<?xml version="1.0" encoding="UTF-8" standalone="no"?>
<!DOCTYPE svg PUBLIC "-//W3C//DTD SVG 1.1//EN"
 "http://www.w3.org/Graphics/SVG/1.1/DTD/svg11.dtd">
<!-- Generated by graphviz version 2.38.0 (20140413.2041)
 -->
<!-- Title: ChBodyAddedMass.h Pages: 1 -->
<svg width="322pt" height="151pt"
 viewBox="0.00 0.00 322.00 151.00" xmlns="http://www.w3.org/2000/svg" xmlns:xlink="http://www.w3.org/1999/xlink">
<g id="graph0" class="graph" transform="scale(1 1) rotate(0) translate(4 147)">
<title>ChBodyAddedMass.h</title>
<polygon fill="white" stroke="none" points="-4,4 -4,-147 318,-147 318,4 -4,4"/>
<!-- Node1 -->
<g id="node1" class="node"><title>Node1</title>
<polygon fill="#bfbfbf" stroke="black" points="91.5,-123.5 91.5,-142.5 209.5,-142.5 209.5,-123.5 91.5,-123.5"/>
<text text-anchor="middle" x="150.5" y="-130.5" font-family="Helvetica,sans-Serif" font-size="10.00">ChBodyAddedMass.h</text>
</g>
<!-- Node2 -->
<g id="node2" class="node"><title>Node2</title>
<polygon fill="white" stroke="#bfbfbf" points="0,-67.5 0,-86.5 135,-86.5 135,-67.5 0,-67.5"/>
<text text-anchor="middle" x="67.5" y="-74.5" font-family="Helvetica,sans-Serif" font-size="10.00">chrono/physics/ChBody.h</text>
</g>
<!-- Node1&#45;&gt;Node2 -->
<g id="edge1" class="edge"><title>Node1&#45;&gt;Node2</title>
<path fill="none" stroke="midnightblue" d="M137.165,-123.324C124.338,-114.979 104.715,-102.212 89.5602,-92.3524"/>
<polygon fill="midnightblue" stroke="midnightblue" points="91.0932,-89.1742 80.8023,-86.6545 87.2757,-95.0417 91.0932,-89.1742"/>
</g>
<!-- Node3 -->
<g id="node3" class="node"><title>Node3</title>
<g id="a_node3"><a xlink:href="_ch_variables_body_added_mass_8h.html" target="_top" xlink:title="ChVariablesBodyAddedMass.h">
<polygon fill="white" stroke="black" points="153,-67.5 153,-86.5 314,-86.5 314,-67.5 153,-67.5"/>
<text text-anchor="middle" x="233.5" y="-74.5" font-family="Helvetica,sans-Serif" font-size="10.00">ChVariablesBodyAddedMass.h</text>
</a>
</g>
</g>
<!-- Node1&#45;&gt;Node3 -->
<g id="edge2" class="edge"><title>Node1&#45;&gt;Node3</title>
<path fill="none" stroke="midnightblue" d="M163.835,-123.324C176.662,-114.979 196.285,-102.212 211.44,-92.3524"/>
<polygon fill="midnightblue" stroke="midnightblue" points="213.724,-95.0417 220.198,-86.6545 209.907,-89.1742 213.724,-95.0417"/>
</g>
<!-- Node4 -->
<g id="node4" class="node"><title>Node4</title>
<polygon fill="white" stroke="#bfbfbf" points="163.5,-0.5 163.5,-30.5 303.5,-30.5 303.5,-0.5 163.5,-0.5"/>
<text text-anchor="start" x="171.5" y="-18.5" font-family="Helvetica,sans-Serif" font-size="10.00">chrono/solver/ChVariables</text>
<text text-anchor="middle" x="233.5" y="-7.5" font-family="Helvetica,sans-Serif" font-size="10.00">BodyOwnMass.h</text>
</g>
<!-- Node3&#45;&gt;Node4 -->
<g id="edge3" class="edge"><title>Node3&#45;&gt;Node4</title>
<path fill="none" stroke="midnightblue" d="M233.5,-67.4751C233.5,-60.471 233.5,-50.1919 233.5,-40.6956"/>
<polygon fill="midnightblue" stroke="midnightblue" points="237,-40.5229 233.5,-30.523 230,-40.523 237,-40.5229"/>
</g>
</g>
</svg>
