<?xml version="1.0" encoding="UTF-8" standalone="no"?>
<!DOCTYPE svg PUBLIC "-//W3C//DTD SVG 1.1//EN"
 "http://www.w3.org/Graphics/SVG/1.1/DTD/svg11.dtd">
<!-- Generated by graphviz version 2.38.0 (20140413.2041)
 -->
<!-- Title: CompKernel.h Pages: 1 -->
<svg width="2738pt" height="84pt"
 viewBox="0.00 0.00 2738.00 84.00" xmlns="http://www.w3.org/2000/svg" xmlns:xlink="http://www.w3.org/1999/xlink">
<g id="graph0" class="graph" transform="scale(1 1) rotate(0) translate(4 80)">
<title>CompKernel.h</title>
<polygon fill="white" stroke="none" points="-4,4 -4,-80 2734,-80 2734,4 -4,4"/>
<!-- Node1 -->
<g id="node1" class="node"><title>Node1</title>
<polygon fill="#bfbfbf" stroke="black" points="1345.5,-56.5 1345.5,-75.5 1428.5,-75.5 1428.5,-56.5 1345.5,-56.5"/>
<text text-anchor="middle" x="1387" y="-63.5" font-family="Helvetica,sans-Serif" font-size="10.00">CompKernel.h</text>
</g>
<!-- Node2 -->
<g id="node2" class="node"><title>Node2</title>
<g id="a_node2"><a xlink:href="_a_d_r_8h.html" target="_top" xlink:title="ADR.h">
<polygon fill="white" stroke="black" points="0,-0.5 0,-19.5 46,-19.5 46,-0.5 0,-0.5"/>
<text text-anchor="middle" x="23" y="-7.5" font-family="Helvetica,sans-Serif" font-size="10.00">ADR.h</text>
</a>
</g>
</g>
<!-- Node1&#45;&gt;Node2 -->
<g id="edge1" class="edge"><title>Node1&#45;&gt;Node2</title>
<path fill="none" stroke="midnightblue" d="M1335.13,-64.9108C1121.41,-64.2869 308.377,-59.3234 55,-20 52.1486,-19.5575 49.1903,-18.9445 46.2757,-18.2445"/>
<polygon fill="midnightblue" stroke="midnightblue" points="1335.43,-68.4116 1345.44,-64.9389 1335.45,-61.4116 1335.43,-68.4116"/>
</g>
<!-- Node3 -->
<g id="node3" class="node"><title>Node3</title>
<g id="a_node3"><a xlink:href="_elasto_plastic_8h.html" target="_top" xlink:title="ElastoPlastic.h">
<polygon fill="white" stroke="black" points="64,-0.5 64,-19.5 150,-19.5 150,-0.5 64,-0.5"/>
<text text-anchor="middle" x="107" y="-7.5" font-family="Helvetica,sans-Serif" font-size="10.00">ElastoPlastic.h</text>
</a>
</g>
</g>
<!-- Node1&#45;&gt;Node3 -->
<g id="edge2" class="edge"><title>Node1&#45;&gt;Node3</title>
<path fill="none" stroke="midnightblue" d="M1335.11,-65.593C1165.58,-66.998 612.856,-67.3737 159,-20 156.084,-19.6956 153.085,-19.3267 150.068,-18.9142"/>
<polygon fill="midnightblue" stroke="midnightblue" points="1335.28,-69.0917 1345.25,-65.5038 1335.22,-62.092 1335.28,-69.0917"/>
</g>
<!-- Node4 -->
<g id="node4" class="node"><title>Node4</title>
<g id="a_node4"><a xlink:href="_added_mass_8h.html" target="_top" xlink:title="AddedMass.h">
<polygon fill="white" stroke="black" points="168.5,-0.5 168.5,-19.5 249.5,-19.5 249.5,-0.5 168.5,-0.5"/>
<text text-anchor="middle" x="209" y="-7.5" font-family="Helvetica,sans-Serif" font-size="10.00">AddedMass.h</text>
</a>
</g>
</g>
<!-- Node1&#45;&gt;Node4 -->
<g id="edge3" class="edge"><title>Node1&#45;&gt;Node4</title>
<path fill="none" stroke="midnightblue" d="M1335.3,-65.4728C1174.99,-66.3965 672.214,-65.2123 259,-20 255.931,-19.6642 252.767,-19.2521 249.591,-18.7906"/>
<polygon fill="midnightblue" stroke="midnightblue" points="1335.39,-68.9724 1345.36,-65.4093 1335.34,-61.9726 1335.39,-68.9724"/>
</g>
<!-- Node5 -->
<g id="node5" class="node"><title>Node5</title>
<g id="a_node5"><a xlink:href="_c_l_s_v_o_f_8h.html" target="_top" xlink:title="CLSVOF.h">
<polygon fill="white" stroke="black" points="268,-0.5 268,-19.5 330,-19.5 330,-0.5 268,-0.5"/>
<text text-anchor="middle" x="299" y="-7.5" font-family="Helvetica,sans-Serif" font-size="10.00">CLSVOF.h</text>
</a>
</g>
</g>
<!-- Node1&#45;&gt;Node5 -->
<g id="edge4" class="edge"><title>Node1&#45;&gt;Node5</title>
<path fill="none" stroke="midnightblue" d="M1335.17,-63.9992C1151.9,-60.2689 534.903,-46.0331 339,-20 336.178,-19.6249 333.261,-19.1474 330.348,-18.6084"/>
<polygon fill="midnightblue" stroke="midnightblue" points="1335.28,-67.502 1345.35,-64.2046 1335.42,-60.5034 1335.28,-67.502"/>
</g>
<!-- Node6 -->
<g id="node6" class="node"><title>Node6</title>
<g id="a_node6"><a xlink:href="_dissipation_8h.html" target="_top" xlink:title="Dissipation.h">
<polygon fill="white" stroke="black" points="348,-0.5 348,-19.5 426,-19.5 426,-0.5 348,-0.5"/>
<text text-anchor="middle" x="387" y="-7.5" font-family="Helvetica,sans-Serif" font-size="10.00">Dissipation.h</text>
</a>
</g>
</g>
<!-- Node1&#45;&gt;Node6 -->
<g id="edge5" class="edge"><title>Node1&#45;&gt;Node6</title>
<path fill="none" stroke="midnightblue" d="M1334.78,-65.0577C1190.86,-64.6726 776.508,-59.8943 435,-20 432.137,-19.6655 429.187,-19.2611 426.225,-18.8113"/>
<polygon fill="midnightblue" stroke="midnightblue" points="1335.07,-68.5582 1345.07,-65.0789 1335.08,-61.5582 1335.07,-68.5582"/>
</g>
<!-- Node7 -->
<g id="node7" class="node"><title>Node7</title>
<g id="a_node7"><a xlink:href="_dissipation2_d_8h.html" target="_top" xlink:title="Dissipation2D.h">
<polygon fill="white" stroke="black" points="444,-0.5 444,-19.5 536,-19.5 536,-0.5 444,-0.5"/>
<text text-anchor="middle" x="490" y="-7.5" font-family="Helvetica,sans-Serif" font-size="10.00">Dissipation2D.h</text>
</a>
</g>
</g>
<!-- Node1&#45;&gt;Node7 -->
<g id="edge6" class="edge"><title>Node1&#45;&gt;Node7</title>
<path fill="none" stroke="midnightblue" d="M1335.02,-64.1872C1202.78,-61.6935 842.928,-52.2405 545,-20 542.114,-19.6877 539.149,-19.325 536.164,-18.928"/>
<polygon fill="midnightblue" stroke="midnightblue" points="1335.19,-67.6909 1345.26,-64.3748 1335.32,-60.6921 1335.19,-67.6909"/>
</g>
<!-- Node8 -->
<g id="node8" class="node"><title>Node8</title>
<g id="a_node8"><a xlink:href="_g_n___s_w2_d_c_v_8h.html" target="_top" xlink:title="GN_SW2DCV.h">
<polygon fill="white" stroke="black" points="554,-0.5 554,-19.5 640,-19.5 640,-0.5 554,-0.5"/>
<text text-anchor="middle" x="597" y="-7.5" font-family="Helvetica,sans-Serif" font-size="10.00">GN_SW2DCV.h</text>
</a>
</g>
</g>
<!-- Node1&#45;&gt;Node8 -->
<g id="edge7" class="edge"><title>Node1&#45;&gt;Node8</title>
<path fill="none" stroke="midnightblue" d="M1335.18,-63.8078C1214.49,-60.6025 905.447,-49.9183 649,-20 646.088,-19.6603 643.091,-19.2648 640.077,-18.8329"/>
<polygon fill="midnightblue" stroke="midnightblue" points="1335.16,-67.3084 1345.24,-64.0693 1335.34,-60.3107 1335.16,-67.3084"/>
</g>
<!-- Node9 -->
<g id="node9" class="node"><title>Node9</title>
<g id="a_node9"><a xlink:href="_kappa_8h.html" target="_top" xlink:title="Kappa.h">
<polygon fill="white" stroke="black" points="658,-0.5 658,-19.5 714,-19.5 714,-0.5 658,-0.5"/>
<text text-anchor="middle" x="686" y="-7.5" font-family="Helvetica,sans-Serif" font-size="10.00">Kappa.h</text>
</a>
</g>
</g>
<!-- Node1&#45;&gt;Node9 -->
<g id="edge8" class="edge"><title>Node1&#45;&gt;Node9</title>
<path fill="none" stroke="midnightblue" d="M1335.12,-64.4927C1222.84,-62.7373 949.172,-54.909 723,-20 720.125,-19.5563 717.146,-18.9992 714.182,-18.3809"/>
<polygon fill="midnightblue" stroke="midnightblue" points="1335.11,-67.9928 1345.16,-64.64 1335.21,-60.9935 1335.11,-67.9928"/>
</g>
<!-- Node10 -->
<g id="node10" class="node"><title>Node10</title>
<g id="a_node10"><a xlink:href="_kappa2_d_8h.html" target="_top" xlink:title="Kappa2D.h">
<polygon fill="white" stroke="black" points="732.5,-0.5 732.5,-19.5 801.5,-19.5 801.5,-0.5 732.5,-0.5"/>
<text text-anchor="middle" x="767" y="-7.5" font-family="Helvetica,sans-Serif" font-size="10.00">Kappa2D.h</text>
</a>
</g>
</g>
<!-- Node1&#45;&gt;Node10 -->
<g id="edge9" class="edge"><title>Node1&#45;&gt;Node10</title>
<path fill="none" stroke="midnightblue" d="M1334.88,-63.18C1233.41,-59.1409 1002.37,-47.5172 810,-20 807.282,-19.6112 804.478,-19.1538 801.666,-18.6547"/>
<polygon fill="midnightblue" stroke="midnightblue" points="1335.03,-66.6884 1345.16,-63.5807 1335.31,-59.6937 1335.03,-66.6884"/>
</g>
<!-- Node11 -->
<g id="node11" class="node"><title>Node11</title>
<g id="a_node11"><a xlink:href="_m_corr_8h.html" target="_top" xlink:title="MCorr.h">
<polygon fill="white" stroke="black" points="819.5,-0.5 819.5,-19.5 872.5,-19.5 872.5,-0.5 819.5,-0.5"/>
<text text-anchor="middle" x="846" y="-7.5" font-family="Helvetica,sans-Serif" font-size="10.00">MCorr.h</text>
</a>
</g>
</g>
<!-- Node1&#45;&gt;Node11 -->
<g id="edge10" class="edge"><title>Node1&#45;&gt;Node11</title>
<path fill="none" stroke="midnightblue" d="M1335.23,-63.1806C1243.22,-59.3299 1045.46,-48.2635 881,-20 878.279,-19.5324 875.46,-18.9597 872.656,-18.3318"/>
<polygon fill="midnightblue" stroke="midnightblue" points="1335.25,-66.6843 1345.38,-63.5942 1335.53,-59.6901 1335.25,-66.6843"/>
</g>
<!-- Node12 -->
<g id="node12" class="node"><title>Node12</title>
<g id="a_node12"><a xlink:href="_m_corr3_p_8h.html" target="_top" xlink:title="MCorr3P.h">
<polygon fill="white" stroke="black" points="890.5,-0.5 890.5,-19.5 955.5,-19.5 955.5,-0.5 890.5,-0.5"/>
<text text-anchor="middle" x="923" y="-7.5" font-family="Helvetica,sans-Serif" font-size="10.00">MCorr3P.h</text>
</a>
</g>
</g>
<!-- Node1&#45;&gt;Node12 -->
<g id="edge11" class="edge"><title>Node1&#45;&gt;Node12</title>
<path fill="none" stroke="midnightblue" d="M1335.07,-61.3274C1255.04,-55.251 1096.9,-41.5885 964,-20 961.267,-19.556 958.441,-19.0455 955.612,-18.498"/>
<polygon fill="midnightblue" stroke="midnightblue" points="1335.13,-64.8419 1345.37,-62.1 1335.66,-57.8615 1335.13,-64.8419"/>
</g>
<!-- Node13 -->
<g id="node13" class="node"><title>Node13</title>
<g id="a_node13"><a xlink:href="_move_mesh_8h.html" target="_top" xlink:title="MoveMesh.h">
<polygon fill="white" stroke="black" points="973.5,-0.5 973.5,-19.5 1050.5,-19.5 1050.5,-0.5 973.5,-0.5"/>
<text text-anchor="middle" x="1012" y="-7.5" font-family="Helvetica,sans-Serif" font-size="10.00">MoveMesh.h</text>
</a>
</g>
</g>
<!-- Node1&#45;&gt;Node13 -->
<g id="edge12" class="edge"><title>Node1&#45;&gt;Node13</title>
<path fill="none" stroke="midnightblue" d="M1335.43,-58.6894C1270.89,-50.612 1157.05,-35.7663 1060,-20 1056.99,-19.5105 1053.87,-18.9808 1050.74,-18.4317"/>
<polygon fill="midnightblue" stroke="midnightblue" points="1334.99,-62.1625 1345.35,-59.9267 1335.86,-55.2163 1334.99,-62.1625"/>
</g>
<!-- Node14 -->
<g id="node14" class="node"><title>Node14</title>
<g id="a_node14"><a xlink:href="_move_mesh2_d_8h.html" target="_top" xlink:title="MoveMesh2D.h">
<polygon fill="white" stroke="black" points="1069,-0.5 1069,-19.5 1159,-19.5 1159,-0.5 1069,-0.5"/>
<text text-anchor="middle" x="1114" y="-7.5" font-family="Helvetica,sans-Serif" font-size="10.00">MoveMesh2D.h</text>
</a>
</g>
</g>
<!-- Node1&#45;&gt;Node14 -->
<g id="edge13" class="edge"><title>Node1&#45;&gt;Node14</title>
<path fill="none" stroke="midnightblue" d="M1335.3,-54.7736C1283.73,-44.5733 1205.42,-29.0839 1157.11,-19.5268"/>
<polygon fill="midnightblue" stroke="midnightblue" points="1334.75,-58.2328 1345.24,-56.7398 1336.11,-51.3658 1334.75,-58.2328"/>
</g>
<!-- Node15 -->
<g id="node15" class="node"><title>Node15</title>
<g id="a_node15"><a xlink:href="_n_c_l_s_8h.html" target="_top" xlink:title="NCLS.h">
<polygon fill="white" stroke="black" points="1177,-0.5 1177,-19.5 1229,-19.5 1229,-0.5 1177,-0.5"/>
<text text-anchor="middle" x="1203" y="-7.5" font-family="Helvetica,sans-Serif" font-size="10.00">NCLS.h</text>
</a>
</g>
</g>
<!-- Node1&#45;&gt;Node15 -->
<g id="edge14" class="edge"><title>Node1&#45;&gt;Node15</title>
<path fill="none" stroke="midnightblue" d="M1348.2,-53.614C1312.37,-43.0967 1260.12,-27.7635 1229.04,-18.6433"/>
<polygon fill="midnightblue" stroke="midnightblue" points="1347.26,-56.9858 1357.84,-56.4435 1349.23,-50.2691 1347.26,-56.9858"/>
</g>
<!-- Node16 -->
<g id="node16" class="node"><title>Node16</title>
<g id="a_node16"><a xlink:href="_n_c_l_s3_p_8h.html" target="_top" xlink:title="NCLS3P.h">
<polygon fill="white" stroke="black" points="1247,-0.5 1247,-19.5 1309,-19.5 1309,-0.5 1247,-0.5"/>
<text text-anchor="middle" x="1278" y="-7.5" font-family="Helvetica,sans-Serif" font-size="10.00">NCLS3P.h</text>
</a>
</g>
</g>
<!-- Node1&#45;&gt;Node16 -->
<g id="edge15" class="edge"><title>Node1&#45;&gt;Node16</title>
<path fill="none" stroke="midnightblue" d="M1360.48,-51.8622C1340.27,-41.8492 1313.01,-28.3458 1295.47,-19.6545"/>
<polygon fill="midnightblue" stroke="midnightblue" points="1358.97,-55.0209 1369.49,-56.324 1362.08,-48.7485 1358.97,-55.0209"/>
</g>
<!-- Node17 -->
<g id="node17" class="node"><title>Node17</title>
<g id="a_node17"><a xlink:href="_pres_8h.html" target="_top" xlink:title="Pres.h">
<polygon fill="white" stroke="black" points="1327.5,-0.5 1327.5,-19.5 1374.5,-19.5 1374.5,-0.5 1327.5,-0.5"/>
<text text-anchor="middle" x="1351" y="-7.5" font-family="Helvetica,sans-Serif" font-size="10.00">Pres.h</text>
</a>
</g>
</g>
<!-- Node1&#45;&gt;Node17 -->
<g id="edge16" class="edge"><title>Node1&#45;&gt;Node17</title>
<path fill="none" stroke="midnightblue" d="M1375.38,-47.5656C1369.18,-38.2747 1361.83,-27.2484 1356.83,-19.7511"/>
<polygon fill="midnightblue" stroke="midnightblue" points="1372.6,-49.7039 1381.06,-56.083 1378.42,-45.821 1372.6,-49.7039"/>
</g>
<!-- Node18 -->
<g id="node18" class="node"><title>Node18</title>
<g id="a_node18"><a xlink:href="_pres_inc_8h.html" target="_top" xlink:title="PresInc.h">
<polygon fill="white" stroke="black" points="1393,-0.5 1393,-19.5 1453,-19.5 1453,-0.5 1393,-0.5"/>
<text text-anchor="middle" x="1423" y="-7.5" font-family="Helvetica,sans-Serif" font-size="10.00">PresInc.h</text>
</a>
</g>
</g>
<!-- Node1&#45;&gt;Node18 -->
<g id="edge17" class="edge"><title>Node1&#45;&gt;Node18</title>
<path fill="none" stroke="midnightblue" d="M1398.62,-47.5656C1404.82,-38.2747 1412.17,-27.2484 1417.17,-19.7511"/>
<polygon fill="midnightblue" stroke="midnightblue" points="1395.58,-45.821 1392.94,-56.083 1401.4,-49.7039 1395.58,-45.821"/>
</g>
<!-- Node19 -->
<g id="node19" class="node"><title>Node19</title>
<g id="a_node19"><a xlink:href="_pres_init_8h.html" target="_top" xlink:title="PresInit.h">
<polygon fill="white" stroke="black" points="1471.5,-0.5 1471.5,-19.5 1532.5,-19.5 1532.5,-0.5 1471.5,-0.5"/>
<text text-anchor="middle" x="1502" y="-7.5" font-family="Helvetica,sans-Serif" font-size="10.00">PresInit.h</text>
</a>
</g>
</g>
<!-- Node1&#45;&gt;Node19 -->
<g id="edge18" class="edge"><title>Node1&#45;&gt;Node19</title>
<path fill="none" stroke="midnightblue" d="M1414.48,-52.096C1435.97,-42.0073 1465.22,-28.2697 1483.86,-19.5164"/>
<polygon fill="midnightblue" stroke="midnightblue" points="1412.79,-49.025 1405.22,-56.4435 1415.76,-55.3612 1412.79,-49.025"/>
</g>
<!-- Node20 -->
<g id="node20" class="node"><title>Node20</title>
<g id="a_node20"><a xlink:href="_r_a_n_s2_p_8h.html" target="_top" xlink:title="RANS2P.h">
<polygon fill="white" stroke="black" points="1551,-0.5 1551,-19.5 1613,-19.5 1613,-0.5 1551,-0.5"/>
<text text-anchor="middle" x="1582" y="-7.5" font-family="Helvetica,sans-Serif" font-size="10.00">RANS2P.h</text>
</a>
</g>
</g>
<!-- Node1&#45;&gt;Node20 -->
<g id="edge19" class="edge"><title>Node1&#45;&gt;Node20</title>
<path fill="none" stroke="midnightblue" d="M1427.81,-53.6986C1464.61,-43.507 1517.93,-28.7429 1551.25,-19.5164"/>
<polygon fill="midnightblue" stroke="midnightblue" points="1426.6,-50.4016 1417.9,-56.4435 1428.47,-57.1477 1426.6,-50.4016"/>
</g>
<!-- Node21 -->
<g id="node21" class="node"><title>Node21</title>
<g id="a_node21"><a xlink:href="_r_a_n_s2_p2_d_8h.html" target="_top" xlink:title="RANS2P2D.h">
<polygon fill="white" stroke="black" points="1631.5,-0.5 1631.5,-19.5 1708.5,-19.5 1708.5,-0.5 1631.5,-0.5"/>
<text text-anchor="middle" x="1670" y="-7.5" font-family="Helvetica,sans-Serif" font-size="10.00">RANS2P2D.h</text>
</a>
</g>
</g>
<!-- Node1&#45;&gt;Node21 -->
<g id="edge20" class="edge"><title>Node1&#45;&gt;Node21</title>
<path fill="none" stroke="midnightblue" d="M1438.75,-55.1253C1494.31,-44.5232 1581.32,-27.9219 1631.26,-18.3926"/>
<polygon fill="midnightblue" stroke="midnightblue" points="1437.92,-51.7198 1428.76,-57.0321 1439.24,-58.5957 1437.92,-51.7198"/>
</g>
<!-- Node22 -->
<g id="node22" class="node"><title>Node22</title>
<g id="a_node22"><a xlink:href="_r_a_n_s2_p___i_b_8h.html" target="_top" xlink:title="RANS2P_IB.h">
<polygon fill="white" stroke="black" points="1727,-0.5 1727,-19.5 1805,-19.5 1805,-0.5 1727,-0.5"/>
<text text-anchor="middle" x="1766" y="-7.5" font-family="Helvetica,sans-Serif" font-size="10.00">RANS2P_IB.h</text>
</a>
</g>
</g>
<!-- Node1&#45;&gt;Node22 -->
<g id="edge21" class="edge"><title>Node1&#45;&gt;Node22</title>
<path fill="none" stroke="midnightblue" d="M1438.67,-58.7916C1503.9,-50.7659 1619.5,-35.9194 1718,-20 1720.93,-19.5265 1723.96,-19.0143 1727,-18.4828"/>
<polygon fill="midnightblue" stroke="midnightblue" points="1438.14,-55.3298 1428.64,-60.0202 1438.99,-62.2778 1438.14,-55.3298"/>
</g>
<!-- Node23 -->
<g id="node23" class="node"><title>Node23</title>
<g id="a_node23"><a xlink:href="_r_a_n_s3_p_f_8h.html" target="_top" xlink:title="RANS3PF.h">
<polygon fill="white" stroke="black" points="1823,-0.5 1823,-19.5 1891,-19.5 1891,-0.5 1823,-0.5"/>
<text text-anchor="middle" x="1857" y="-7.5" font-family="Helvetica,sans-Serif" font-size="10.00">RANS3PF.h</text>
</a>
</g>
</g>
<!-- Node1&#45;&gt;Node23 -->
<g id="edge22" class="edge"><title>Node1&#45;&gt;Node23</title>
<path fill="none" stroke="midnightblue" d="M1439.08,-61.2229C1519.73,-54.9885 1679.57,-41.097 1814,-20 1816.86,-19.5507 1819.82,-19.0364 1822.79,-18.4865"/>
<polygon fill="midnightblue" stroke="midnightblue" points="1438.41,-57.7639 1428.7,-62.0163 1438.94,-64.7435 1438.41,-57.7639"/>
</g>
<!-- Node24 -->
<g id="node24" class="node"><title>Node24</title>
<g id="a_node24"><a xlink:href="_r_a_n_s3_p_f2_d_8h.html" target="_top" xlink:title="RANS3PF2D.h">
<polygon fill="white" stroke="black" points="1909.5,-0.5 1909.5,-19.5 1992.5,-19.5 1992.5,-0.5 1909.5,-0.5"/>
<text text-anchor="middle" x="1951" y="-7.5" font-family="Helvetica,sans-Serif" font-size="10.00">RANS3PF2D.h</text>
</a>
</g>
</g>
<!-- Node1&#45;&gt;Node24 -->
<g id="edge23" class="edge"><title>Node1&#45;&gt;Node24</title>
<path fill="none" stroke="midnightblue" d="M1438.94,-61.9462C1531.75,-56.155 1732.08,-42.1389 1900,-20 1903.03,-19.6004 1906.16,-19.1482 1909.3,-18.6645"/>
<polygon fill="midnightblue" stroke="midnightblue" points="1438.46,-58.469 1428.69,-62.5791 1438.89,-65.4557 1438.46,-58.469"/>
</g>
<!-- Node25 -->
<g id="node25" class="node"><title>Node25</title>
<g id="a_node25"><a xlink:href="_r_a_n_s3_p_sed_8h.html" target="_top" xlink:title="RANS3PSed.h">
<polygon fill="white" stroke="black" points="2010.5,-0.5 2010.5,-19.5 2093.5,-19.5 2093.5,-0.5 2010.5,-0.5"/>
<text text-anchor="middle" x="2052" y="-7.5" font-family="Helvetica,sans-Serif" font-size="10.00">RANS3PSed.h</text>
</a>
</g>
</g>
<!-- Node1&#45;&gt;Node25 -->
<g id="edge24" class="edge"><title>Node1&#45;&gt;Node25</title>
<path fill="none" stroke="midnightblue" d="M1438.64,-63.0555C1544.6,-58.6623 1794.11,-46.2426 2002,-20 2004.71,-19.6576 2007.5,-19.2661 2010.31,-18.8425"/>
<polygon fill="midnightblue" stroke="midnightblue" points="1438.39,-59.5628 1428.54,-63.4679 1438.67,-66.557 1438.39,-59.5628"/>
</g>
<!-- Node26 -->
<g id="node26" class="node"><title>Node26</title>
<g id="a_node26"><a xlink:href="_r_a_n_s3_p_sed2_d_8h.html" target="_top" xlink:title="RANS3PSed2D.h">
<polygon fill="white" stroke="black" points="2112,-0.5 2112,-19.5 2208,-19.5 2208,-0.5 2112,-0.5"/>
<text text-anchor="middle" x="2160" y="-7.5" font-family="Helvetica,sans-Serif" font-size="10.00">RANS3PSed2D.h</text>
</a>
</g>
</g>
<!-- Node1&#45;&gt;Node26 -->
<g id="edge25" class="edge"><title>Node1&#45;&gt;Node26</title>
<path fill="none" stroke="midnightblue" d="M1438.88,-63.409C1557.04,-59.4206 1855.14,-47.2961 2103,-20 2105.89,-19.682 2108.85,-19.3205 2111.84,-18.9295"/>
<polygon fill="midnightblue" stroke="midnightblue" points="1438.56,-59.9177 1428.68,-63.748 1438.79,-66.9138 1438.56,-59.9177"/>
</g>
<!-- Node27 -->
<g id="node27" class="node"><title>Node27</title>
<g id="a_node27"><a xlink:href="_r_d_l_s_8h.html" target="_top" xlink:title="RDLS.h">
<polygon fill="white" stroke="black" points="2226.5,-0.5 2226.5,-19.5 2277.5,-19.5 2277.5,-0.5 2226.5,-0.5"/>
<text text-anchor="middle" x="2252" y="-7.5" font-family="Helvetica,sans-Serif" font-size="10.00">RDLS.h</text>
</a>
</g>
</g>
<!-- Node1&#45;&gt;Node27 -->
<g id="edge26" class="edge"><title>Node1&#45;&gt;Node27</title>
<path fill="none" stroke="midnightblue" d="M1438.92,-65.7278C1570.13,-66.8023 1925.39,-64.9466 2217,-20 2219.98,-19.5412 2223.07,-18.9381 2226.12,-18.2609"/>
<polygon fill="midnightblue" stroke="midnightblue" points="1438.79,-62.2266 1428.75,-65.6349 1438.72,-69.2263 1438.79,-62.2266"/>
</g>
<!-- Node28 -->
<g id="node28" class="node"><title>Node28</title>
<g id="a_node28"><a xlink:href="_s_w2_d_8h.html" target="_top" xlink:title="SW2D.h">
<polygon fill="white" stroke="black" points="2296,-0.5 2296,-19.5 2350,-19.5 2350,-0.5 2296,-0.5"/>
<text text-anchor="middle" x="2323" y="-7.5" font-family="Helvetica,sans-Serif" font-size="10.00">SW2D.h</text>
</a>
</g>
</g>
<!-- Node1&#45;&gt;Node28 -->
<g id="edge27" class="edge"><title>Node1&#45;&gt;Node28</title>
<path fill="none" stroke="midnightblue" d="M1439.09,-63.731C1605.29,-59.4721 2121.67,-44.5599 2287,-20 2289.93,-19.5646 2292.97,-18.995 2295.99,-18.3536"/>
<polygon fill="midnightblue" stroke="midnightblue" points="1438.57,-60.2431 1428.66,-63.9961 1438.74,-67.2409 1438.57,-60.2431"/>
</g>
<!-- Node29 -->
<g id="node29" class="node"><title>Node29</title>
<g id="a_node29"><a xlink:href="_s_w2_d_c_v_8h.html" target="_top" xlink:title="SW2DCV.h">
<polygon fill="white" stroke="black" points="2368,-0.5 2368,-19.5 2434,-19.5 2434,-0.5 2368,-0.5"/>
<text text-anchor="middle" x="2401" y="-7.5" font-family="Helvetica,sans-Serif" font-size="10.00">SW2DCV.h</text>
</a>
</g>
</g>
<!-- Node1&#45;&gt;Node29 -->
<g id="edge28" class="edge"><title>Node1&#45;&gt;Node29</title>
<path fill="none" stroke="midnightblue" d="M1438.9,-65.5954C1584.63,-66.6227 2009.7,-65.1973 2359,-20 2361.81,-19.6364 2364.71,-19.1824 2367.62,-18.6729"/>
<polygon fill="midnightblue" stroke="midnightblue" points="1438.93,-62.0956 1428.9,-65.5178 1438.87,-69.0954 1438.93,-62.0956"/>
</g>
<!-- Node30 -->
<g id="node30" class="node"><title>Node30</title>
<g id="a_node30"><a xlink:href="_v_o_f_8h.html" target="_top" xlink:title="VOF.h">
<polygon fill="white" stroke="black" points="2452,-0.5 2452,-19.5 2496,-19.5 2496,-0.5 2452,-0.5"/>
<text text-anchor="middle" x="2474" y="-7.5" font-family="Helvetica,sans-Serif" font-size="10.00">VOF.h</text>
</a>
</g>
</g>
<!-- Node1&#45;&gt;Node30 -->
<g id="edge29" class="edge"><title>Node1&#45;&gt;Node30</title>
<path fill="none" stroke="midnightblue" d="M1438.97,-64.4338C1623.47,-62.1666 2246.38,-52.2488 2443,-20 2445.88,-19.5283 2448.86,-18.8769 2451.8,-18.1383"/>
<polygon fill="midnightblue" stroke="midnightblue" points="1438.69,-60.9368 1428.73,-64.5572 1438.77,-67.9363 1438.69,-60.9368"/>
</g>
<!-- Node31 -->
<g id="node31" class="node"><title>Node31</title>
<g id="a_node31"><a xlink:href="_v_o_f3_p_8h.html" target="_top" xlink:title="VOF3P.h">
<polygon fill="white" stroke="black" points="2514,-0.5 2514,-19.5 2570,-19.5 2570,-0.5 2514,-0.5"/>
<text text-anchor="middle" x="2542" y="-7.5" font-family="Helvetica,sans-Serif" font-size="10.00">VOF3P.h</text>
</a>
</g>
</g>
<!-- Node1&#45;&gt;Node31 -->
<g id="edge30" class="edge"><title>Node1&#45;&gt;Node31</title>
<path fill="none" stroke="midnightblue" d="M1438.79,-64.279C1629.85,-61.4067 2294.97,-49.4729 2505,-20 2507.88,-19.5958 2510.86,-19.0646 2513.83,-18.4621"/>
<polygon fill="midnightblue" stroke="midnightblue" points="1438.67,-60.7802 1428.73,-64.4284 1438.78,-67.7794 1438.67,-60.7802"/>
</g>
<!-- Node32 -->
<g id="node32" class="node"><title>Node32</title>
<g id="a_node32"><a xlink:href="_v_o_s3_p_8h.html" target="_top" xlink:title="VOS3P.h">
<polygon fill="white" stroke="black" points="2588.5,-0.5 2588.5,-19.5 2645.5,-19.5 2645.5,-0.5 2588.5,-0.5"/>
<text text-anchor="middle" x="2617" y="-7.5" font-family="Helvetica,sans-Serif" font-size="10.00">VOS3P.h</text>
</a>
</g>
</g>
<!-- Node1&#45;&gt;Node32 -->
<g id="edge31" class="edge"><title>Node1&#45;&gt;Node32</title>
<path fill="none" stroke="midnightblue" d="M1438.86,-64.3866C1637.99,-61.8223 2353.72,-50.6328 2579,-20 2582.09,-19.5798 2585.3,-19.02 2588.48,-18.3844"/>
<polygon fill="midnightblue" stroke="midnightblue" points="1438.62,-60.8891 1428.67,-64.516 1438.71,-67.8886 1438.62,-60.8891"/>
</g>
<!-- Node33 -->
<g id="node33" class="node"><title>Node33</title>
<g id="a_node33"><a xlink:href="_richards_8h.html" target="_top" xlink:title="Richards.h">
<polygon fill="white" stroke="black" points="2664,-0.5 2664,-19.5 2730,-19.5 2730,-0.5 2664,-0.5"/>
<text text-anchor="middle" x="2697" y="-7.5" font-family="Helvetica,sans-Serif" font-size="10.00">Richards.h</text>
</a>
</g>
</g>
<!-- Node1&#45;&gt;Node33 -->
<g id="edge32" class="edge"><title>Node1&#45;&gt;Node33</title>
<path fill="none" stroke="midnightblue" d="M1439.02,-64.3728C1646.31,-61.6851 2413.81,-49.8865 2655,-20 2657.81,-19.6515 2660.71,-19.2082 2663.62,-18.7059"/>
<polygon fill="midnightblue" stroke="midnightblue" points="1438.68,-60.8768 1428.72,-64.5048 1438.77,-67.8763 1438.68,-60.8768"/>
</g>
</g>
</svg>
