<?xml version="1.0" encoding="UTF-8" standalone="no"?>
<!DOCTYPE svg PUBLIC "-//W3C//DTD SVG 1.1//EN"
 "http://www.w3.org/Graphics/SVG/1.1/DTD/svg11.dtd">
<!-- Generated by graphviz version 2.38.0 (20140413.2041)
 -->
<!-- Title: Domain.h Pages: 1 -->
<svg width="193pt" height="84pt"
 viewBox="0.00 0.00 192.50 84.00" xmlns="http://www.w3.org/2000/svg" xmlns:xlink="http://www.w3.org/1999/xlink">
<g id="graph0" class="graph" transform="scale(1 1) rotate(0) translate(4 80)">
<title>Domain.h</title>
<polygon fill="white" stroke="none" points="-4,4 -4,-80 188.5,-80 188.5,4 -4,4"/>
<!-- Node1 -->
<g id="node1" class="node"><title>Node1</title>
<polygon fill="#bfbfbf" stroke="black" points="69,-56.5 69,-75.5 132,-75.5 132,-56.5 69,-56.5"/>
<text text-anchor="middle" x="100.5" y="-63.5" font-family="Helvetica,sans-Serif" font-size="10.00">Domain.h</text>
</g>
<!-- Node2 -->
<g id="node2" class="node"><title>Node2</title>
<polygon fill="white" stroke="#bfbfbf" points="0,-0.5 0,-19.5 59,-19.5 59,-0.5 0,-0.5"/>
<text text-anchor="middle" x="29.5" y="-7.5" font-family="Helvetica,sans-Serif" font-size="10.00">iostream</text>
</g>
<!-- Node1&#45;&gt;Node2 -->
<g id="edge1" class="edge"><title>Node1&#45;&gt;Node2</title>
<path fill="none" stroke="midnightblue" d="M89.0926,-56.324C78.3912,-48.1849 62.1593,-35.8395 49.3372,-26.0874"/>
<polygon fill="midnightblue" stroke="midnightblue" points="51.1932,-23.1018 41.1149,-19.8339 46.9556,-28.6734 51.1932,-23.1018"/>
</g>
<!-- Node3 -->
<g id="node3" class="node"><title>Node3</title>
<polygon fill="white" stroke="#bfbfbf" points="77,-0.5 77,-19.5 124,-19.5 124,-0.5 77,-0.5"/>
<text text-anchor="middle" x="100.5" y="-7.5" font-family="Helvetica,sans-Serif" font-size="10.00">vector</text>
</g>
<!-- Node1&#45;&gt;Node3 -->
<g id="edge2" class="edge"><title>Node1&#45;&gt;Node3</title>
<path fill="none" stroke="midnightblue" d="M100.5,-56.083C100.5,-49.0059 100.5,-38.8611 100.5,-29.9865"/>
<polygon fill="midnightblue" stroke="midnightblue" points="104,-29.751 100.5,-19.7511 97.0001,-29.7511 104,-29.751"/>
</g>
<!-- Node4 -->
<g id="node4" class="node"><title>Node4</title>
<polygon fill="white" stroke="#bfbfbf" points="142.5,-0.5 142.5,-19.5 184.5,-19.5 184.5,-0.5 142.5,-0.5"/>
<text text-anchor="middle" x="163.5" y="-7.5" font-family="Helvetica,sans-Serif" font-size="10.00">utility</text>
</g>
<!-- Node1&#45;&gt;Node4 -->
<g id="edge3" class="edge"><title>Node1&#45;&gt;Node4</title>
<path fill="none" stroke="midnightblue" d="M110.622,-56.324C120.026,-48.2631 134.244,-36.0765 145.569,-26.3695"/>
<polygon fill="midnightblue" stroke="midnightblue" points="147.879,-28.9993 153.194,-19.8339 143.323,-23.6844 147.879,-28.9993"/>
</g>
</g>
</svg>
