<?xml version="1.0" encoding="UTF-8" standalone="no"?>
<!DOCTYPE svg PUBLIC "-//W3C//DTD SVG 1.1//EN"
 "http://www.w3.org/Graphics/SVG/1.1/DTD/svg11.dtd">
<!-- Generated by graphviz version 2.38.0 (20140413.2041)
 -->
<!-- Title: ElastoPlastic.h Pages: 1 -->
<svg width="1068pt" height="140pt"
 viewBox="0.00 0.00 1068.00 140.00" xmlns="http://www.w3.org/2000/svg" xmlns:xlink="http://www.w3.org/1999/xlink">
<g id="graph0" class="graph" transform="scale(1 1) rotate(0) translate(4 136)">
<title>ElastoPlastic.h</title>
<polygon fill="white" stroke="none" points="-4,4 -4,-136 1064,-136 1064,4 -4,4"/>
<!-- Node1 -->
<g id="node1" class="node"><title>Node1</title>
<polygon fill="#bfbfbf" stroke="black" points="433.5,-112.5 433.5,-131.5 519.5,-131.5 519.5,-112.5 433.5,-112.5"/>
<text text-anchor="middle" x="476.5" y="-119.5" font-family="Helvetica,sans-Serif" font-size="10.00">ElastoPlastic.h</text>
</g>
<!-- Node2 -->
<g id="node2" class="node"><title>Node2</title>
<polygon fill="white" stroke="#bfbfbf" points="0,-0.5 0,-19.5 47,-19.5 47,-0.5 0,-0.5"/>
<text text-anchor="middle" x="23.5" y="-7.5" font-family="Helvetica,sans-Serif" font-size="10.00">cmath</text>
</g>
<!-- Node1&#45;&gt;Node2 -->
<g id="edge1" class="edge"><title>Node1&#45;&gt;Node2</title>
<path fill="none" stroke="midnightblue" d="M433.461,-120.099C322.949,-117.342 35.8636,-107.215 7.5,-76 -4.29639,-63.0176 3.37956,-42.7482 11.6668,-28.2977"/>
<polygon fill="midnightblue" stroke="midnightblue" points="14.6615,-30.11 17.0025,-19.777 8.72875,-26.3949 14.6615,-30.11"/>
</g>
<!-- Node3 -->
<g id="node3" class="node"><title>Node3</title>
<polygon fill="white" stroke="#bfbfbf" points="411,-0.5 411,-19.5 470,-19.5 470,-0.5 411,-0.5"/>
<text text-anchor="middle" x="440.5" y="-7.5" font-family="Helvetica,sans-Serif" font-size="10.00">iostream</text>
</g>
<!-- Node1&#45;&gt;Node3 -->
<g id="edge2" class="edge"><title>Node1&#45;&gt;Node3</title>
<path fill="none" stroke="midnightblue" d="M474.132,-112.102C470.731,-99.5188 464.139,-75.8465 457.5,-56 454.516,-47.0788 450.867,-37.2962 447.715,-29.1374"/>
<polygon fill="midnightblue" stroke="midnightblue" points="450.867,-27.5877 443.957,-19.5563 444.35,-30.1438 450.867,-27.5877"/>
</g>
<!-- Node4 -->
<g id="node4" class="node"><title>Node4</title>
<polygon fill="white" stroke="#bfbfbf" points="118,-56.5 118,-75.5 173,-75.5 173,-56.5 118,-56.5"/>
<text text-anchor="middle" x="145.5" y="-63.5" font-family="Helvetica,sans-Serif" font-size="10.00">iomanip</text>
</g>
<!-- Node1&#45;&gt;Node4 -->
<g id="edge3" class="edge"><title>Node1&#45;&gt;Node4</title>
<path fill="none" stroke="midnightblue" d="M433.286,-115.697C377.575,-108.576 277.526,-94.8312 183.326,-76.2291"/>
<polygon fill="midnightblue" stroke="midnightblue" points="183.842,-72.7629 173.35,-74.236 182.47,-79.6273 183.842,-72.7629"/>
</g>
<!-- Node5 -->
<g id="node5" class="node"><title>Node5</title>
<polygon fill="white" stroke="#bfbfbf" points="191,-56.5 191,-75.5 238,-75.5 238,-56.5 191,-56.5"/>
<text text-anchor="middle" x="214.5" y="-63.5" font-family="Helvetica,sans-Serif" font-size="10.00">vector</text>
</g>
<!-- Node1&#45;&gt;Node5 -->
<g id="edge4" class="edge"><title>Node1&#45;&gt;Node5</title>
<path fill="none" stroke="midnightblue" d="M433.463,-113.654C389.168,-105.855 317.973,-92.6583 248.063,-76.2373"/>
<polygon fill="midnightblue" stroke="midnightblue" points="248.748,-72.8026 238.21,-73.899 247.131,-79.6135 248.748,-72.8026"/>
</g>
<!-- Node6 -->
<g id="node6" class="node"><title>Node6</title>
<g id="a_node6"><a xlink:href="proteus__blas_8h.html" target="_top" xlink:title="proteus_blas.h">
<polygon fill="white" stroke="black" points="256,-56.5 256,-75.5 343,-75.5 343,-56.5 256,-56.5"/>
<text text-anchor="middle" x="299.5" y="-63.5" font-family="Helvetica,sans-Serif" font-size="10.00">proteus_blas.h</text>
</a>
</g>
</g>
<!-- Node1&#45;&gt;Node6 -->
<g id="edge5" class="edge"><title>Node1&#45;&gt;Node6</title>
<path fill="none" stroke="midnightblue" d="M448.454,-112.444C418.418,-103.28 370.587,-88.6876 337.257,-78.5192"/>
<polygon fill="midnightblue" stroke="midnightblue" points="338.001,-75.0869 327.415,-75.5164 335.958,-81.7822 338.001,-75.0869"/>
</g>
<!-- Node7 -->
<g id="node7" class="node"><title>Node7</title>
<g id="a_node7"><a xlink:href="_comp_kernel_8h.html" target="_top" xlink:title="CompKernel.h">
<polygon fill="white" stroke="black" points="17,-56.5 17,-75.5 100,-75.5 100,-56.5 17,-56.5"/>
<text text-anchor="middle" x="58.5" y="-63.5" font-family="Helvetica,sans-Serif" font-size="10.00">CompKernel.h</text>
</a>
</g>
</g>
<!-- Node1&#45;&gt;Node7 -->
<g id="edge6" class="edge"><title>Node1&#45;&gt;Node7</title>
<path fill="none" stroke="midnightblue" d="M433.335,-116.52C366.296,-109.388 232.878,-94.497 110.158,-76.185"/>
<polygon fill="midnightblue" stroke="midnightblue" points="110.622,-72.7155 100.213,-74.6899 109.581,-79.6378 110.622,-72.7155"/>
</g>
<!-- Node8 -->
<g id="node8" class="node"><title>Node8</title>
<g id="a_node8"><a xlink:href="_model_factory_8h.html" target="_top" xlink:title="ModelFactory.h">
<polygon fill="white" stroke="black" points="361,-56.5 361,-75.5 448,-75.5 448,-56.5 361,-56.5"/>
<text text-anchor="middle" x="404.5" y="-63.5" font-family="Helvetica,sans-Serif" font-size="10.00">ModelFactory.h</text>
</a>
</g>
</g>
<!-- Node1&#45;&gt;Node8 -->
<g id="edge8" class="edge"><title>Node1&#45;&gt;Node8</title>
<path fill="none" stroke="midnightblue" d="M464.932,-112.324C454.08,-104.185 437.619,-91.8395 424.617,-82.0874"/>
<polygon fill="midnightblue" stroke="midnightblue" points="426.379,-79.0339 416.279,-75.8339 422.179,-84.6339 426.379,-79.0339"/>
</g>
<!-- Node9 -->
<g id="node9" class="node"><title>Node9</title>
<g id="a_node9"><a xlink:href="mohr_coulomb_8h.html" target="_top" xlink:title="mohrCoulomb.h">
<polygon fill="white" stroke="black" points="504.5,-56.5 504.5,-75.5 598.5,-75.5 598.5,-56.5 504.5,-56.5"/>
<text text-anchor="middle" x="551.5" y="-63.5" font-family="Helvetica,sans-Serif" font-size="10.00">mohrCoulomb.h</text>
</a>
</g>
</g>
<!-- Node1&#45;&gt;Node9 -->
<g id="edge10" class="edge"><title>Node1&#45;&gt;Node9</title>
<path fill="none" stroke="midnightblue" d="M488.55,-112.324C499.963,-104.107 517.331,-91.6017 530.935,-81.8069"/>
<polygon fill="midnightblue" stroke="midnightblue" points="533.16,-84.5174 539.231,-75.8339 529.07,-78.8366 533.16,-84.5174"/>
</g>
<!-- Node10 -->
<g id="node10" class="node"><title>Node10</title>
<g id="a_node10"><a xlink:href="mohr_coulomb2_8h.html" target="_top" xlink:title="mohrCoulomb2.h">
<polygon fill="white" stroke="black" points="616.5,-56.5 616.5,-75.5 716.5,-75.5 716.5,-56.5 616.5,-56.5"/>
<text text-anchor="middle" x="666.5" y="-63.5" font-family="Helvetica,sans-Serif" font-size="10.00">mohrCoulomb2.h</text>
</a>
</g>
</g>
<!-- Node1&#45;&gt;Node10 -->
<g id="edge11" class="edge"><title>Node1&#45;&gt;Node10</title>
<path fill="none" stroke="midnightblue" d="M506.606,-112.444C539.126,-103.201 591.079,-88.4356 626.891,-78.2572"/>
<polygon fill="midnightblue" stroke="midnightblue" points="627.873,-81.617 636.535,-75.5164 625.959,-74.8837 627.873,-81.617"/>
</g>
<!-- Node11 -->
<g id="node11" class="node"><title>Node11</title>
<g id="a_node11"><a xlink:href="von_mises_8h.html" target="_top" xlink:title="vonMises.h">
<polygon fill="white" stroke="black" points="734.5,-56.5 734.5,-75.5 804.5,-75.5 804.5,-56.5 734.5,-56.5"/>
<text text-anchor="middle" x="769.5" y="-63.5" font-family="Helvetica,sans-Serif" font-size="10.00">vonMises.h</text>
</a>
</g>
</g>
<!-- Node1&#45;&gt;Node11 -->
<g id="edge12" class="edge"><title>Node1&#45;&gt;Node11</title>
<path fill="none" stroke="midnightblue" d="M519.74,-113.496C567.41,-105.154 646.628,-91.0887 724.472,-76.1642"/>
<polygon fill="midnightblue" stroke="midnightblue" points="725.291,-79.5709 734.45,-74.2449 723.969,-72.6969 725.291,-79.5709"/>
</g>
<!-- Node12 -->
<g id="node12" class="node"><title>Node12</title>
<g id="a_node12"><a xlink:href="tresca_8h.html" target="_top" xlink:title="tresca.h">
<polygon fill="white" stroke="black" points="822.5,-56.5 822.5,-75.5 878.5,-75.5 878.5,-56.5 822.5,-56.5"/>
<text text-anchor="middle" x="850.5" y="-63.5" font-family="Helvetica,sans-Serif" font-size="10.00">tresca.h</text>
</a>
</g>
</g>
<!-- Node1&#45;&gt;Node12 -->
<g id="edge13" class="edge"><title>Node1&#45;&gt;Node12</title>
<path fill="none" stroke="midnightblue" d="M519.556,-116.727C581.973,-110.209 701.384,-96.5286 812.27,-76.0607"/>
<polygon fill="midnightblue" stroke="midnightblue" points="813.098,-79.4667 822.285,-74.189 811.812,-72.5858 813.098,-79.4667"/>
</g>
<!-- Node13 -->
<g id="node13" class="node"><title>Node13</title>
<g id="a_node13"><a xlink:href="drucker_prager_8h.html" target="_top" xlink:title="druckerPrager.h">
<polygon fill="white" stroke="black" points="896.5,-56.5 896.5,-75.5 988.5,-75.5 988.5,-56.5 896.5,-56.5"/>
<text text-anchor="middle" x="942.5" y="-63.5" font-family="Helvetica,sans-Serif" font-size="10.00">druckerPrager.h</text>
</a>
</g>
</g>
<!-- Node1&#45;&gt;Node13 -->
<g id="edge14" class="edge"><title>Node1&#45;&gt;Node13</title>
<path fill="none" stroke="midnightblue" d="M519.789,-117.024C593.054,-110.128 746.386,-94.9784 886.266,-76.1057"/>
<polygon fill="midnightblue" stroke="midnightblue" points="886.876,-79.5552 896.313,-74.7405 885.933,-72.619 886.876,-79.5552"/>
</g>
<!-- Node14 -->
<g id="node14" class="node"><title>Node14</title>
<g id="a_node14"><a xlink:href="mcdp_8h.html" target="_top" xlink:title="mcdp.h">
<polygon fill="white" stroke="black" points="1007,-56.5 1007,-75.5 1060,-75.5 1060,-56.5 1007,-56.5"/>
<text text-anchor="middle" x="1033.5" y="-63.5" font-family="Helvetica,sans-Serif" font-size="10.00">mcdp.h</text>
</a>
</g>
</g>
<!-- Node1&#45;&gt;Node14 -->
<g id="edge15" class="edge"><title>Node1&#45;&gt;Node14</title>
<path fill="none" stroke="midnightblue" d="M519.676,-119.589C607.668,-116.215 814.127,-105.752 996.805,-75.8314"/>
<polygon fill="midnightblue" stroke="midnightblue" points="997.572,-79.2521 1006.86,-74.1601 996.424,-72.3467 997.572,-79.2521"/>
</g>
<!-- Node7&#45;&gt;Node2 -->
<g id="edge7" class="edge"><title>Node7&#45;&gt;Node2</title>
<path fill="none" stroke="midnightblue" d="M52.7205,-56.083C47.8276,-48.5341 40.6726,-37.4948 34.6674,-28.2298"/>
<polygon fill="midnightblue" stroke="midnightblue" points="37.548,-26.239 29.172,-19.7511 31.674,-30.0463 37.548,-26.239"/>
</g>
<!-- Node8&#45;&gt;Node3 -->
<g id="edge9" class="edge"><title>Node8&#45;&gt;Node3</title>
<path fill="none" stroke="midnightblue" d="M410.445,-56.083C415.477,-48.5341 422.837,-37.4948 429.013,-28.2298"/>
<polygon fill="midnightblue" stroke="midnightblue" points="432.031,-30.0131 434.666,-19.7511 426.207,-26.1301 432.031,-30.0131"/>
</g>
</g>
</svg>
