<?xml version="1.0" encoding="UTF-8" standalone="no"?>
<!DOCTYPE svg PUBLIC "-//W3C//DTD SVG 1.1//EN"
 "http://www.w3.org/Graphics/SVG/1.1/DTD/svg11.dtd">
<!-- Generated by graphviz version 2.38.0 (20140413.2041)
 -->
<!-- Title: Inout.cpp Pages: 1 -->
<svg width="466pt" height="84pt"
 viewBox="0.00 0.00 465.50 84.00" xmlns="http://www.w3.org/2000/svg" xmlns:xlink="http://www.w3.org/1999/xlink">
<g id="graph0" class="graph" transform="scale(1 1) rotate(0) translate(4 80)">
<title>Inout.cpp</title>
<polygon fill="white" stroke="none" points="-4,4 -4,-80 461.5,-80 461.5,4 -4,4"/>
<!-- Node1 -->
<g id="node1" class="node"><title>Node1</title>
<polygon fill="#bfbfbf" stroke="black" points="212,-56.5 212,-75.5 273,-75.5 273,-56.5 212,-56.5"/>
<text text-anchor="middle" x="242.5" y="-63.5" font-family="Helvetica,sans-Serif" font-size="10.00">Inout.cpp</text>
</g>
<!-- Node2 -->
<g id="node2" class="node"><title>Node2</title>
<polygon fill="white" stroke="#bfbfbf" points="0,-0.5 0,-19.5 51,-19.5 51,-0.5 0,-0.5"/>
<text text-anchor="middle" x="25.5" y="-7.5" font-family="Helvetica,sans-Serif" font-size="10.00">math.h</text>
</g>
<!-- Node1&#45;&gt;Node2 -->
<g id="edge1" class="edge"><title>Node1&#45;&gt;Node2</title>
<path fill="none" stroke="midnightblue" d="M211.698,-57.6015C177.216,-49.2802 119.423,-35.2194 60.8863,-20.3246"/>
<polygon fill="midnightblue" stroke="midnightblue" points="61.662,-16.9105 51.1072,-17.8301 59.9318,-23.6933 61.662,-16.9105"/>
</g>
<!-- Node3 -->
<g id="node3" class="node"><title>Node3</title>
<polygon fill="white" stroke="#bfbfbf" points="68.5,-0.5 68.5,-19.5 166.5,-19.5 166.5,-0.5 68.5,-0.5"/>
<text text-anchor="middle" x="117.5" y="-7.5" font-family="Helvetica,sans-Serif" font-size="10.00">ncurses/curses.h</text>
</g>
<!-- Node1&#45;&gt;Node3 -->
<g id="edge2" class="edge"><title>Node1&#45;&gt;Node3</title>
<path fill="none" stroke="midnightblue" d="M222.693,-56.4435C202.213,-47.5961 170.017,-33.6875 146.635,-23.5865"/>
<polygon fill="midnightblue" stroke="midnightblue" points="147.782,-20.2692 137.214,-19.5164 145.006,-26.6953 147.782,-20.2692"/>
</g>
<!-- Node4 -->
<g id="node4" class="node"><title>Node4</title>
<polygon fill="white" stroke="#bfbfbf" points="184,-0.5 184,-19.5 233,-19.5 233,-0.5 184,-0.5"/>
<text text-anchor="middle" x="208.5" y="-7.5" font-family="Helvetica,sans-Serif" font-size="10.00">stdio.h</text>
</g>
<!-- Node1&#45;&gt;Node4 -->
<g id="edge3" class="edge"><title>Node1&#45;&gt;Node4</title>
<path fill="none" stroke="midnightblue" d="M236.886,-56.083C232.133,-48.5341 225.182,-37.4948 219.348,-28.2298"/>
<polygon fill="midnightblue" stroke="midnightblue" points="222.3,-26.3486 214.01,-19.7511 216.376,-30.0783 222.3,-26.3486"/>
</g>
<!-- Node5 -->
<g id="node5" class="node"><title>Node5</title>
<polygon fill="white" stroke="#bfbfbf" points="251,-0.5 251,-19.5 302,-19.5 302,-0.5 251,-0.5"/>
<text text-anchor="middle" x="276.5" y="-7.5" font-family="Helvetica,sans-Serif" font-size="10.00">stdlib.h</text>
</g>
<!-- Node1&#45;&gt;Node5 -->
<g id="edge4" class="edge"><title>Node1&#45;&gt;Node5</title>
<path fill="none" stroke="midnightblue" d="M248.114,-56.083C252.867,-48.5341 259.818,-37.4948 265.652,-28.2298"/>
<polygon fill="midnightblue" stroke="midnightblue" points="268.624,-30.0783 270.99,-19.7511 262.7,-26.3486 268.624,-30.0783"/>
</g>
<!-- Node6 -->
<g id="node6" class="node"><title>Node6</title>
<polygon fill="white" stroke="#bfbfbf" points="320,-0.5 320,-19.5 373,-19.5 373,-0.5 320,-0.5"/>
<text text-anchor="middle" x="346.5" y="-7.5" font-family="Helvetica,sans-Serif" font-size="10.00">string.h</text>
</g>
<!-- Node1&#45;&gt;Node6 -->
<g id="edge5" class="edge"><title>Node1&#45;&gt;Node6</title>
<path fill="none" stroke="midnightblue" d="M259.209,-56.324C275.812,-47.7034 301.502,-34.3643 320.72,-24.3855"/>
<polygon fill="midnightblue" stroke="midnightblue" points="322.57,-27.3689 329.832,-19.6545 319.344,-21.1565 322.57,-27.3689"/>
</g>
<!-- Node7 -->
<g id="node7" class="node"><title>Node7</title>
<g id="a_node7"><a xlink:href="_headers_8h.html" target="_top" xlink:title="Headers.h">
<polygon fill="white" stroke="black" points="391.5,-0.5 391.5,-19.5 457.5,-19.5 457.5,-0.5 391.5,-0.5"/>
<text text-anchor="middle" x="424.5" y="-7.5" font-family="Helvetica,sans-Serif" font-size="10.00">Headers.h</text>
</a>
</g>
</g>
<!-- Node1&#45;&gt;Node7 -->
<g id="edge6" class="edge"><title>Node1&#45;&gt;Node7</title>
<path fill="none" stroke="midnightblue" d="M271.338,-56.4435C302.356,-47.2406 351.829,-32.5617 386.118,-22.3879"/>
<polygon fill="midnightblue" stroke="midnightblue" points="387.205,-25.7164 395.796,-19.5164 385.214,-19.0055 387.205,-25.7164"/>
</g>
</g>
</svg>
