<?xml version="1.0" encoding="UTF-8" standalone="no"?>
<!DOCTYPE svg PUBLIC "-//W3C//DTD SVG 1.1//EN"
 "http://www.w3.org/Graphics/SVG/1.1/DTD/svg11.dtd">
<!-- Generated by graphviz version 2.38.0 (20140413.2041)
 -->
<!-- Title: Kappa2D.h Pages: 1 -->
<svg width="347pt" height="140pt"
 viewBox="0.00 0.00 346.97 140.00" xmlns="http://www.w3.org/2000/svg" xmlns:xlink="http://www.w3.org/1999/xlink">
<g id="graph0" class="graph" transform="scale(1 1) rotate(0) translate(4 136)">
<title>Kappa2D.h</title>
<polygon fill="white" stroke="none" points="-4,4 -4,-136 342.973,-136 342.973,4 -4,4"/>
<!-- Node1 -->
<g id="node1" class="node"><title>Node1</title>
<polygon fill="#bfbfbf" stroke="black" points="120.973,-112.5 120.973,-131.5 189.973,-131.5 189.973,-112.5 120.973,-112.5"/>
<text text-anchor="middle" x="155.473" y="-119.5" font-family="Helvetica,sans-Serif" font-size="10.00">Kappa2D.h</text>
</g>
<!-- Node2 -->
<g id="node2" class="node"><title>Node2</title>
<polygon fill="white" stroke="#bfbfbf" points="31.973,-0.5 31.973,-19.5 78.973,-19.5 78.973,-0.5 31.973,-0.5"/>
<text text-anchor="middle" x="55.473" y="-7.5" font-family="Helvetica,sans-Serif" font-size="10.00">cmath</text>
</g>
<!-- Node1&#45;&gt;Node2 -->
<g id="edge1" class="edge"><title>Node1&#45;&gt;Node2</title>
<path fill="none" stroke="midnightblue" d="M120.719,-121.652C85.0519,-120.217 31.1216,-111.748 4.473,-76 -8.83406,-58.1489 12.7474,-38.0478 31.8003,-24.9884"/>
<polygon fill="midnightblue" stroke="midnightblue" points="33.754,-27.8931 40.242,-19.5171 29.9468,-22.0189 33.754,-27.8931"/>
</g>
<!-- Node3 -->
<g id="node3" class="node"><title>Node3</title>
<polygon fill="white" stroke="#bfbfbf" points="193.973,-0.5 193.973,-19.5 252.973,-19.5 252.973,-0.5 193.973,-0.5"/>
<text text-anchor="middle" x="223.473" y="-7.5" font-family="Helvetica,sans-Serif" font-size="10.00">iostream</text>
</g>
<!-- Node1&#45;&gt;Node3 -->
<g id="edge2" class="edge"><title>Node1&#45;&gt;Node3</title>
<path fill="none" stroke="midnightblue" d="M168.139,-112.456C179.258,-104.322 195.083,-91.1064 204.473,-76 213.298,-61.8025 218.181,-43.3242 220.779,-29.7002"/>
<polygon fill="midnightblue" stroke="midnightblue" points="224.271,-30.0372 222.46,-19.5983 217.366,-28.8882 224.271,-30.0372"/>
</g>
<!-- Node4 -->
<g id="node4" class="node"><title>Node4</title>
<g id="a_node4"><a xlink:href="_comp_kernel_8h.html" target="_top" xlink:title="CompKernel.h">
<polygon fill="white" stroke="black" points="13.973,-56.5 13.973,-75.5 96.973,-75.5 96.973,-56.5 13.973,-56.5"/>
<text text-anchor="middle" x="55.473" y="-63.5" font-family="Helvetica,sans-Serif" font-size="10.00">CompKernel.h</text>
</a>
</g>
</g>
<!-- Node1&#45;&gt;Node4 -->
<g id="edge3" class="edge"><title>Node1&#45;&gt;Node4</title>
<path fill="none" stroke="midnightblue" d="M139.406,-112.324C123.515,-103.743 98.9656,-90.486 80.5145,-80.5224"/>
<polygon fill="midnightblue" stroke="midnightblue" points="81.962,-77.3264 71.4999,-75.6545 78.6359,-83.4857 81.962,-77.3264"/>
</g>
<!-- Node5 -->
<g id="node5" class="node"><title>Node5</title>
<g id="a_node5"><a xlink:href="_model_factory_8h.html" target="_top" xlink:title="ModelFactory.h">
<polygon fill="white" stroke="black" points="251.973,-56.5 251.973,-75.5 338.973,-75.5 338.973,-56.5 251.973,-56.5"/>
<text text-anchor="middle" x="295.473" y="-63.5" font-family="Helvetica,sans-Serif" font-size="10.00">ModelFactory.h</text>
</a>
</g>
</g>
<!-- Node1&#45;&gt;Node5 -->
<g id="edge5" class="edge"><title>Node1&#45;&gt;Node5</title>
<path fill="none" stroke="midnightblue" d="M177.656,-112.444C200.901,-103.478 237.622,-89.314 263.888,-79.1827"/>
<polygon fill="midnightblue" stroke="midnightblue" points="265.323,-82.3807 273.393,-75.5164 262.804,-75.8497 265.323,-82.3807"/>
</g>
<!-- Node6 -->
<g id="node6" class="node"><title>Node6</title>
<g id="a_node6"><a xlink:href="_sed_closure_8h.html" target="_top" xlink:title="SedClosure.h">
<polygon fill="white" stroke="black" points="115.473,-56.5 115.473,-75.5 195.473,-75.5 195.473,-56.5 115.473,-56.5"/>
<text text-anchor="middle" x="155.473" y="-63.5" font-family="Helvetica,sans-Serif" font-size="10.00">SedClosure.h</text>
</a>
</g>
</g>
<!-- Node1&#45;&gt;Node6 -->
<g id="edge7" class="edge"><title>Node1&#45;&gt;Node6</title>
<path fill="none" stroke="midnightblue" d="M155.473,-112.083C155.473,-105.006 155.473,-94.8611 155.473,-85.9865"/>
<polygon fill="midnightblue" stroke="midnightblue" points="158.973,-85.751 155.473,-75.7511 151.973,-85.7511 158.973,-85.751"/>
</g>
<!-- Node4&#45;&gt;Node2 -->
<g id="edge4" class="edge"><title>Node4&#45;&gt;Node2</title>
<path fill="none" stroke="midnightblue" d="M55.473,-56.083C55.473,-49.0059 55.473,-38.8611 55.473,-29.9865"/>
<polygon fill="midnightblue" stroke="midnightblue" points="58.9731,-29.751 55.473,-19.7511 51.9731,-29.7511 58.9731,-29.751"/>
</g>
<!-- Node5&#45;&gt;Node3 -->
<g id="edge6" class="edge"><title>Node5&#45;&gt;Node3</title>
<path fill="none" stroke="midnightblue" d="M283.905,-56.324C273.053,-48.1849 256.592,-35.8395 243.59,-26.0874"/>
<polygon fill="midnightblue" stroke="midnightblue" points="245.352,-23.0339 235.252,-19.8339 241.152,-28.6339 245.352,-23.0339"/>
</g>
<!-- Node6&#45;&gt;Node2 -->
<g id="edge8" class="edge"><title>Node6&#45;&gt;Node2</title>
<path fill="none" stroke="midnightblue" d="M139.406,-56.324C123.515,-47.7428 98.9656,-34.486 80.5145,-24.5224"/>
<polygon fill="midnightblue" stroke="midnightblue" points="81.962,-21.3264 71.4999,-19.6545 78.6359,-27.4857 81.962,-21.3264"/>
</g>
<!-- Node6&#45;&gt;Node3 -->
<g id="edge9" class="edge"><title>Node6&#45;&gt;Node3</title>
<path fill="none" stroke="midnightblue" d="M166.398,-56.324C176.648,-48.1849 192.194,-35.8395 204.474,-26.0874"/>
<polygon fill="midnightblue" stroke="midnightblue" points="206.694,-28.7937 212.349,-19.8339 202.341,-23.3119 206.694,-28.7937"/>
</g>
</g>
</svg>
