<?xml version="1.0" encoding="UTF-8" standalone="no"?>
<!DOCTYPE svg PUBLIC "-//W3C//DTD SVG 1.1//EN"
 "http://www.w3.org/Graphics/SVG/1.1/DTD/svg11.dtd">
<!-- Generated by graphviz version 2.38.0 (20140413.2041)
 -->
<!-- Title: MeshAdaptPUMI.h Pages: 1 -->
<svg width="659pt" height="140pt"
 viewBox="0.00 0.00 658.50 140.00" xmlns="http://www.w3.org/2000/svg" xmlns:xlink="http://www.w3.org/1999/xlink">
<g id="graph0" class="graph" transform="scale(1 1) rotate(0) translate(4 136)">
<title>MeshAdaptPUMI.h</title>
<polygon fill="white" stroke="none" points="-4,4 -4,-136 654.5,-136 654.5,4 -4,4"/>
<!-- Node1 -->
<g id="node1" class="node"><title>Node1</title>
<polygon fill="#bfbfbf" stroke="black" points="385,-112.5 385,-131.5 489,-131.5 489,-112.5 385,-112.5"/>
<text text-anchor="middle" x="437" y="-119.5" font-family="Helvetica,sans-Serif" font-size="10.00">MeshAdaptPUMI.h</text>
</g>
<!-- Node2 -->
<g id="node2" class="node"><title>Node2</title>
<g id="a_node2"><a xlink:href="mesh_8h.html" target="_top" xlink:title="mesh.h">
<polygon fill="white" stroke="black" points="271.5,-56.5 271.5,-75.5 324.5,-75.5 324.5,-56.5 271.5,-56.5"/>
<text text-anchor="middle" x="298" y="-63.5" font-family="Helvetica,sans-Serif" font-size="10.00">mesh.h</text>
</a>
</g>
</g>
<!-- Node1&#45;&gt;Node2 -->
<g id="edge1" class="edge"><title>Node1&#45;&gt;Node2</title>
<path fill="none" stroke="midnightblue" d="M414.975,-112.444C391.896,-103.478 355.438,-89.314 329.359,-79.1827"/>
<polygon fill="midnightblue" stroke="midnightblue" points="330.511,-75.8753 319.922,-75.5164 327.976,-82.4002 330.511,-75.8753"/>
</g>
<!-- Node13 -->
<g id="node13" class="node"><title>Node13</title>
<polygon fill="white" stroke="#bfbfbf" points="343,-56.5 343,-75.5 383,-75.5 383,-56.5 343,-56.5"/>
<text text-anchor="middle" x="363" y="-63.5" font-family="Helvetica,sans-Serif" font-size="10.00">apf.h</text>
</g>
<!-- Node1&#45;&gt;Node13 -->
<g id="edge12" class="edge"><title>Node1&#45;&gt;Node13</title>
<path fill="none" stroke="midnightblue" d="M425.111,-112.324C413.85,-104.107 396.713,-91.6017 383.291,-81.8069"/>
<polygon fill="midnightblue" stroke="midnightblue" points="385.247,-78.9014 375.106,-75.8339 381.12,-84.5559 385.247,-78.9014"/>
</g>
<!-- Node14 -->
<g id="node14" class="node"><title>Node14</title>
<polygon fill="white" stroke="#bfbfbf" points="401,-56.5 401,-75.5 473,-75.5 473,-56.5 401,-56.5"/>
<text text-anchor="middle" x="437" y="-63.5" font-family="Helvetica,sans-Serif" font-size="10.00">apfMesh2.h</text>
</g>
<!-- Node1&#45;&gt;Node14 -->
<g id="edge13" class="edge"><title>Node1&#45;&gt;Node14</title>
<path fill="none" stroke="midnightblue" d="M437,-112.083C437,-105.006 437,-94.8611 437,-85.9865"/>
<polygon fill="midnightblue" stroke="midnightblue" points="440.5,-85.751 437,-75.7511 433.5,-85.7511 440.5,-85.751"/>
</g>
<!-- Node15 -->
<g id="node15" class="node"><title>Node15</title>
<polygon fill="white" stroke="#bfbfbf" points="491,-56.5 491,-75.5 585,-75.5 585,-56.5 491,-56.5"/>
<text text-anchor="middle" x="538" y="-63.5" font-family="Helvetica,sans-Serif" font-size="10.00">apfNumbering.h</text>
</g>
<!-- Node1&#45;&gt;Node15 -->
<g id="edge14" class="edge"><title>Node1&#45;&gt;Node15</title>
<path fill="none" stroke="midnightblue" d="M453.227,-112.324C469.351,-103.703 494.3,-90.3643 512.964,-80.3855"/>
<polygon fill="midnightblue" stroke="midnightblue" points="514.644,-83.456 521.813,-75.6545 511.344,-77.283 514.644,-83.456"/>
</g>
<!-- Node16 -->
<g id="node16" class="node"><title>Node16</title>
<polygon fill="white" stroke="#bfbfbf" points="603.5,-56.5 603.5,-75.5 650.5,-75.5 650.5,-56.5 603.5,-56.5"/>
<text text-anchor="middle" x="627" y="-63.5" font-family="Helvetica,sans-Serif" font-size="10.00">queue</text>
</g>
<!-- Node1&#45;&gt;Node16 -->
<g id="edge15" class="edge"><title>Node1&#45;&gt;Node16</title>
<path fill="none" stroke="midnightblue" d="M467.106,-112.444C501.487,-102.672 557.588,-86.7275 593.374,-76.5567"/>
<polygon fill="midnightblue" stroke="midnightblue" points="594.676,-79.8256 603.338,-73.7251 592.762,-73.0923 594.676,-79.8256"/>
</g>
<!-- Node3 -->
<g id="node3" class="node"><title>Node3</title>
<polygon fill="white" stroke="#bfbfbf" points="0,-0.5 0,-19.5 32,-19.5 32,-0.5 0,-0.5"/>
<text text-anchor="middle" x="16" y="-7.5" font-family="Helvetica,sans-Serif" font-size="10.00">set</text>
</g>
<!-- Node2&#45;&gt;Node3 -->
<g id="edge2" class="edge"><title>Node2&#45;&gt;Node3</title>
<path fill="none" stroke="midnightblue" d="M271.407,-61.8796C226.045,-56.2299 130.756,-42.9418 41.7146,-19.7929"/>
<polygon fill="midnightblue" stroke="midnightblue" points="42.5717,-16.3993 32.0089,-17.2231 40.78,-23.1661 42.5717,-16.3993"/>
</g>
<!-- Node4 -->
<g id="node4" class="node"><title>Node4</title>
<polygon fill="white" stroke="#bfbfbf" points="50.5,-0.5 50.5,-19.5 97.5,-19.5 97.5,-0.5 50.5,-0.5"/>
<text text-anchor="middle" x="74" y="-7.5" font-family="Helvetica,sans-Serif" font-size="10.00">vector</text>
</g>
<!-- Node2&#45;&gt;Node4 -->
<g id="edge3" class="edge"><title>Node2&#45;&gt;Node4</title>
<path fill="none" stroke="midnightblue" d="M271.356,-59.0311C236.182,-51.0846 172.098,-36.3771 107.685,-20.1057"/>
<polygon fill="midnightblue" stroke="midnightblue" points="108.321,-16.656 97.7669,-17.5882 106.598,-23.4409 108.321,-16.656"/>
</g>
<!-- Node5 -->
<g id="node5" class="node"><title>Node5</title>
<polygon fill="white" stroke="#bfbfbf" points="116,-0.5 116,-19.5 178,-19.5 178,-0.5 116,-0.5"/>
<text text-anchor="middle" x="147" y="-7.5" font-family="Helvetica,sans-Serif" font-size="10.00">algorithm</text>
</g>
<!-- Node2&#45;&gt;Node5 -->
<g id="edge4" class="edge"><title>Node2&#45;&gt;Node5</title>
<path fill="none" stroke="midnightblue" d="M274.074,-56.4435C248.781,-47.3986 208.698,-33.064 180.32,-22.9158"/>
<polygon fill="midnightblue" stroke="midnightblue" points="181.409,-19.5882 170.814,-19.5164 179.052,-26.1794 181.409,-19.5882"/>
</g>
<!-- Node6 -->
<g id="node6" class="node"><title>Node6</title>
<polygon fill="white" stroke="#bfbfbf" points="196,-0.5 196,-19.5 234,-19.5 234,-0.5 196,-0.5"/>
<text text-anchor="middle" x="215" y="-7.5" font-family="Helvetica,sans-Serif" font-size="10.00">map</text>
</g>
<!-- Node2&#45;&gt;Node6 -->
<g id="edge5" class="edge"><title>Node2&#45;&gt;Node6</title>
<path fill="none" stroke="midnightblue" d="M284.665,-56.324C271.838,-47.979 252.215,-35.2122 237.06,-25.3524"/>
<polygon fill="midnightblue" stroke="midnightblue" points="238.593,-22.1742 228.302,-19.6545 234.776,-28.0417 238.593,-22.1742"/>
</g>
<!-- Node7 -->
<g id="node7" class="node"><title>Node7</title>
<polygon fill="white" stroke="#bfbfbf" points="252,-0.5 252,-19.5 282,-19.5 282,-0.5 252,-0.5"/>
<text text-anchor="middle" x="267" y="-7.5" font-family="Helvetica,sans-Serif" font-size="10.00">list</text>
</g>
<!-- Node2&#45;&gt;Node7 -->
<g id="edge6" class="edge"><title>Node2&#45;&gt;Node7</title>
<path fill="none" stroke="midnightblue" d="M292.881,-56.083C288.592,-48.6127 282.342,-37.7244 277.058,-28.5199"/>
<polygon fill="midnightblue" stroke="midnightblue" points="280.038,-26.6811 272.024,-19.7511 273.967,-30.1662 280.038,-26.6811"/>
</g>
<!-- Node8 -->
<g id="node8" class="node"><title>Node8</title>
<polygon fill="white" stroke="#bfbfbf" points="300.5,-0.5 300.5,-19.5 359.5,-19.5 359.5,-0.5 300.5,-0.5"/>
<text text-anchor="middle" x="330" y="-7.5" font-family="Helvetica,sans-Serif" font-size="10.00">iostream</text>
</g>
<!-- Node2&#45;&gt;Node8 -->
<g id="edge7" class="edge"><title>Node2&#45;&gt;Node8</title>
<path fill="none" stroke="midnightblue" d="M303.284,-56.083C307.711,-48.6127 314.163,-37.7244 319.618,-28.5199"/>
<polygon fill="midnightblue" stroke="midnightblue" points="322.727,-30.1383 324.814,-19.7511 316.705,-26.5697 322.727,-30.1383"/>
</g>
<!-- Node9 -->
<g id="node9" class="node"><title>Node9</title>
<polygon fill="white" stroke="#bfbfbf" points="377.5,-0.5 377.5,-19.5 432.5,-19.5 432.5,-0.5 377.5,-0.5"/>
<text text-anchor="middle" x="405" y="-7.5" font-family="Helvetica,sans-Serif" font-size="10.00">iomanip</text>
</g>
<!-- Node2&#45;&gt;Node9 -->
<g id="edge8" class="edge"><title>Node2&#45;&gt;Node9</title>
<path fill="none" stroke="midnightblue" d="M315.191,-56.324C332.351,-47.6641 358.946,-34.2424 378.747,-24.249"/>
<polygon fill="midnightblue" stroke="midnightblue" points="380.501,-27.2847 387.851,-19.6545 377.347,-21.0354 380.501,-27.2847"/>
</g>
<!-- Node10 -->
<g id="node10" class="node"><title>Node10</title>
<polygon fill="white" stroke="#bfbfbf" points="451,-0.5 451,-19.5 505,-19.5 505,-0.5 451,-0.5"/>
<text text-anchor="middle" x="478" y="-7.5" font-family="Helvetica,sans-Serif" font-size="10.00">fstream</text>
</g>
<!-- Node2&#45;&gt;Node10 -->
<g id="edge9" class="edge"><title>Node2&#45;&gt;Node10</title>
<path fill="none" stroke="midnightblue" d="M324.56,-57.0321C355.356,-47.7932 406.316,-32.5051 440.986,-22.1043"/>
<polygon fill="midnightblue" stroke="midnightblue" points="442.169,-25.4035 450.741,-19.1776 440.157,-18.6988 442.169,-25.4035"/>
</g>
<!-- Node11 -->
<g id="node11" class="node"><title>Node11</title>
<polygon fill="white" stroke="#bfbfbf" points="523,-0.5 523,-19.5 575,-19.5 575,-0.5 523,-0.5"/>
<text text-anchor="middle" x="549" y="-7.5" font-family="Helvetica,sans-Serif" font-size="10.00">cassert</text>
</g>
<!-- Node2&#45;&gt;Node11 -->
<g id="edge10" class="edge"><title>Node2&#45;&gt;Node11</title>
<path fill="none" stroke="midnightblue" d="M324.703,-58.1742C327.832,-57.4188 330.983,-56.6784 334,-56 410.487,-38.8005 432.744,-38.188 512.629,-20.2155"/>
<polygon fill="midnightblue" stroke="midnightblue" points="513.688,-23.5641 522.664,-17.9354 512.137,-16.7381 513.688,-23.5641"/>
</g>
<!-- Node12 -->
<g id="node12" class="node"><title>Node12</title>
<polygon fill="white" stroke="#bfbfbf" points="593.5,-0.5 593.5,-19.5 640.5,-19.5 640.5,-0.5 593.5,-0.5"/>
<text text-anchor="middle" x="617" y="-7.5" font-family="Helvetica,sans-Serif" font-size="10.00">cmath</text>
</g>
<!-- Node2&#45;&gt;Node12 -->
<g id="edge11" class="edge"><title>Node2&#45;&gt;Node12</title>
<path fill="none" stroke="midnightblue" d="M324.668,-58.0112C327.804,-57.2851 330.966,-56.5961 334,-56 441.032,-34.9716 472.325,-42.3571 583.375,-19.8839"/>
<polygon fill="midnightblue" stroke="midnightblue" points="584.203,-23.2868 593.292,-17.8414 582.791,-16.4307 584.203,-23.2868"/>
</g>
</g>
</svg>
