<?xml version="1.0" encoding="UTF-8" standalone="no"?>
<!DOCTYPE svg PUBLIC "-//W3C//DTD SVG 1.1//EN"
 "http://www.w3.org/Graphics/SVG/1.1/DTD/svg11.dtd">
<!-- Generated by graphviz version 2.38.0 (20140413.2041)
 -->
<!-- Title: MeshAdaptPUMI.h Pages: 1 -->
<svg width="1021pt" height="84pt"
 viewBox="0.00 0.00 1020.50 84.00" xmlns="http://www.w3.org/2000/svg" xmlns:xlink="http://www.w3.org/1999/xlink">
<g id="graph0" class="graph" transform="scale(1 1) rotate(0) translate(4 80)">
<title>MeshAdaptPUMI.h</title>
<polygon fill="white" stroke="none" points="-4,4 -4,-80 1016.5,-80 1016.5,4 -4,4"/>
<!-- Node1 -->
<g id="node1" class="node"><title>Node1</title>
<polygon fill="#bfbfbf" stroke="black" points="522,-56.5 522,-75.5 626,-75.5 626,-56.5 522,-56.5"/>
<text text-anchor="middle" x="574" y="-63.5" font-family="Helvetica,sans-Serif" font-size="10.00">MeshAdaptPUMI.h</text>
</g>
<!-- Node2 -->
<g id="node2" class="node"><title>Node2</title>
<g id="a_node2"><a xlink:href="c_mesh_adapt_p_u_m_i_8cpp.html" target="_top" xlink:title="cMeshAdaptPUMI.cpp">
<polygon fill="white" stroke="black" points="0,-0.5 0,-19.5 120,-19.5 120,-0.5 0,-0.5"/>
<text text-anchor="middle" x="60" y="-7.5" font-family="Helvetica,sans-Serif" font-size="10.00">cMeshAdaptPUMI.cpp</text>
</a>
</g>
</g>
<!-- Node1&#45;&gt;Node2 -->
<g id="edge1" class="edge"><title>Node1&#45;&gt;Node2</title>
<path fill="none" stroke="midnightblue" d="M511.754,-59.2783C425.654,-51.2332 265.386,-35.7873 129,-20 126.12,-19.6666 123.173,-19.3166 120.198,-18.9561"/>
<polygon fill="midnightblue" stroke="midnightblue" points="511.598,-62.7788 521.88,-60.2222 512.248,-55.8091 511.598,-62.7788"/>
</g>
<!-- Node3 -->
<g id="node3" class="node"><title>Node3</title>
<g id="a_node3"><a xlink:href="create_analytic_geometry_8cpp.html" target="_top" xlink:title="createAnalyticGeometry.cpp">
<polygon fill="white" stroke="black" points="138,-0.5 138,-19.5 290,-19.5 290,-0.5 138,-0.5"/>
<text text-anchor="middle" x="214" y="-7.5" font-family="Helvetica,sans-Serif" font-size="10.00">createAnalyticGeometry.cpp</text>
</a>
</g>
</g>
<!-- Node1&#45;&gt;Node3 -->
<g id="edge2" class="edge"><title>Node1&#45;&gt;Node3</title>
<path fill="none" stroke="midnightblue" d="M511.535,-55.6302C443.732,-45.4597 336.395,-29.3593 270.868,-19.5303"/>
<polygon fill="midnightblue" stroke="midnightblue" points="511.244,-59.1257 521.653,-57.1479 512.283,-52.2032 511.244,-59.1257"/>
</g>
<!-- Node4 -->
<g id="node4" class="node"><title>Node4</title>
<g id="a_node4"><a xlink:href="_error_residual_method_8cpp.html" target="_top" xlink:title="ErrorResidualMethod.cpp">
<polygon fill="white" stroke="black" points="308.5,-0.5 308.5,-19.5 443.5,-19.5 443.5,-0.5 308.5,-0.5"/>
<text text-anchor="middle" x="376" y="-7.5" font-family="Helvetica,sans-Serif" font-size="10.00">ErrorResidualMethod.cpp</text>
</a>
</g>
</g>
<!-- Node1&#45;&gt;Node4 -->
<g id="edge3" class="edge"><title>Node1&#45;&gt;Node4</title>
<path fill="none" stroke="midnightblue" d="M532.562,-53.6986C495.193,-43.507 441.057,-28.7429 407.227,-19.5164"/>
<polygon fill="midnightblue" stroke="midnightblue" points="532.058,-57.189 542.626,-56.4435 533.9,-50.4356 532.058,-57.189"/>
</g>
<!-- Node5 -->
<g id="node5" class="node"><title>Node5</title>
<g id="a_node5"><a xlink:href="_mesh_converter_8cpp.html" target="_top" xlink:title="MeshConverter.cpp">
<polygon fill="white" stroke="black" points="461.5,-0.5 461.5,-19.5 570.5,-19.5 570.5,-0.5 461.5,-0.5"/>
<text text-anchor="middle" x="516" y="-7.5" font-family="Helvetica,sans-Serif" font-size="10.00">MeshConverter.cpp</text>
</a>
</g>
</g>
<!-- Node1&#45;&gt;Node5 -->
<g id="edge4" class="edge"><title>Node1&#45;&gt;Node5</title>
<path fill="none" stroke="midnightblue" d="M557.087,-49.2533C546.797,-39.6731 534.034,-27.7906 525.488,-19.8339"/>
<polygon fill="midnightblue" stroke="midnightblue" points="554.977,-52.0714 564.681,-56.324 559.747,-46.9481 554.977,-52.0714"/>
</g>
<!-- Node6 -->
<g id="node6" class="node"><title>Node6</title>
<g id="a_node6"><a xlink:href="_mesh_fields_8cpp.html" target="_top" xlink:title="MeshFields.cpp">
<polygon fill="white" stroke="black" points="588.5,-0.5 588.5,-19.5 677.5,-19.5 677.5,-0.5 588.5,-0.5"/>
<text text-anchor="middle" x="633" y="-7.5" font-family="Helvetica,sans-Serif" font-size="10.00">MeshFields.cpp</text>
</a>
</g>
</g>
<!-- Node1&#45;&gt;Node6 -->
<g id="edge5" class="edge"><title>Node1&#45;&gt;Node6</title>
<path fill="none" stroke="midnightblue" d="M590.895,-49.5372C601.415,-39.9087 614.569,-27.8694 623.348,-19.8339"/>
<polygon fill="midnightblue" stroke="midnightblue" points="588.493,-46.9905 583.479,-56.324 593.219,-52.1542 588.493,-46.9905"/>
</g>
<!-- Node7 -->
<g id="node7" class="node"><title>Node7</title>
<g id="a_node7"><a xlink:href="_parallel_mesh_converter_8cpp.html" target="_top" xlink:title="ParallelMeshConverter.cpp">
<polygon fill="white" stroke="black" points="695.5,-0.5 695.5,-19.5 838.5,-19.5 838.5,-0.5 695.5,-0.5"/>
<text text-anchor="middle" x="767" y="-7.5" font-family="Helvetica,sans-Serif" font-size="10.00">ParallelMeshConverter.cpp</text>
</a>
</g>
</g>
<!-- Node1&#45;&gt;Node7 -->
<g id="edge6" class="edge"><title>Node1&#45;&gt;Node7</title>
<path fill="none" stroke="midnightblue" d="M614.392,-53.6986C650.817,-43.507 703.586,-28.7429 736.562,-19.5164"/>
<polygon fill="midnightblue" stroke="midnightblue" points="613.269,-50.3785 604.581,-56.4435 615.155,-57.1196 613.269,-50.3785"/>
</g>
<!-- Node8 -->
<g id="node8" class="node"><title>Node8</title>
<g id="a_node8"><a xlink:href="_size_field_8cpp.html" target="_top" xlink:title="SizeField.cpp">
<polygon fill="white" stroke="black" points="857,-0.5 857,-19.5 935,-19.5 935,-0.5 857,-0.5"/>
<text text-anchor="middle" x="896" y="-7.5" font-family="Helvetica,sans-Serif" font-size="10.00">SizeField.cpp</text>
</a>
</g>
</g>
<!-- Node1&#45;&gt;Node8 -->
<g id="edge7" class="edge"><title>Node1&#45;&gt;Node8</title>
<path fill="none" stroke="midnightblue" d="M636.119,-55.2076C691.699,-46.3486 775.368,-32.7718 848,-20 850.923,-19.4861 853.943,-18.9444 856.981,-18.3923"/>
<polygon fill="midnightblue" stroke="midnightblue" points="635.403,-51.7775 626.077,-56.8056 636.503,-58.6905 635.403,-51.7775"/>
</g>
<!-- Node9 -->
<g id="node9" class="node"><title>Node9</title>
<g id="a_node9"><a xlink:href="_v_m_s_8cpp.html" target="_top" xlink:title="VMS.cpp">
<polygon fill="white" stroke="black" points="953.5,-0.5 953.5,-19.5 1012.5,-19.5 1012.5,-0.5 953.5,-0.5"/>
<text text-anchor="middle" x="983" y="-7.5" font-family="Helvetica,sans-Serif" font-size="10.00">VMS.cpp</text>
</a>
</g>
</g>
<!-- Node1&#45;&gt;Node9 -->
<g id="edge8" class="edge"><title>Node1&#45;&gt;Node9</title>
<path fill="none" stroke="midnightblue" d="M636.083,-59.4737C709.828,-52.4427 836.412,-38.902 944,-20 947.011,-19.4709 950.14,-18.8579 953.256,-18.2053"/>
<polygon fill="midnightblue" stroke="midnightblue" points="635.662,-55.9977 626.035,-60.4224 636.32,-62.9667 635.662,-55.9977"/>
</g>
</g>
</svg>
