<?xml version="1.0" encoding="UTF-8" standalone="no"?>
<!DOCTYPE svg PUBLIC "-//W3C//DTD SVG 1.1//EN"
 "http://www.w3.org/Graphics/SVG/1.1/DTD/svg11.dtd">
<!-- Generated by graphviz version 2.38.0 (20140413.2041)
 -->
<!-- Title: MixedModelFactory.h Pages: 1 -->
<svg width="166pt" height="84pt"
 viewBox="0.00 0.00 165.50 84.00" xmlns="http://www.w3.org/2000/svg" xmlns:xlink="http://www.w3.org/1999/xlink">
<g id="graph0" class="graph" transform="scale(1 1) rotate(0) translate(4 80)">
<title>MixedModelFactory.h</title>
<polygon fill="white" stroke="none" points="-4,4 -4,-80 161.5,-80 161.5,4 -4,4"/>
<!-- Node1 -->
<g id="node1" class="node"><title>Node1</title>
<polygon fill="#bfbfbf" stroke="black" points="17.5,-56.5 17.5,-75.5 132.5,-75.5 132.5,-56.5 17.5,-56.5"/>
<text text-anchor="middle" x="75" y="-63.5" font-family="Helvetica,sans-Serif" font-size="10.00">MixedModelFactory.h</text>
</g>
<!-- Node2 -->
<g id="node2" class="node"><title>Node2</title>
<g id="a_node2"><a xlink:href="_r_a_n_s2_p_8h.html" target="_top" xlink:title="RANS2P.h">
<polygon fill="white" stroke="black" points="0,-0.5 0,-19.5 62,-19.5 62,-0.5 0,-0.5"/>
<text text-anchor="middle" x="31" y="-7.5" font-family="Helvetica,sans-Serif" font-size="10.00">RANS2P.h</text>
</a>
</g>
</g>
<!-- Node1&#45;&gt;Node2 -->
<g id="edge1" class="edge"><title>Node1&#45;&gt;Node2</title>
<path fill="none" stroke="midnightblue" d="M61.2655,-48.144C53.5995,-38.7357 44.3667,-27.4046 38.1305,-19.7511"/>
<polygon fill="midnightblue" stroke="midnightblue" points="58.7042,-50.5415 67.7343,-56.083 64.1309,-46.1198 58.7042,-50.5415"/>
</g>
<!-- Node3 -->
<g id="node3" class="node"><title>Node3</title>
<g id="a_node3"><a xlink:href="_r_a_n_s2_p2_d_8h.html" target="_top" xlink:title="RANS2P2D.h">
<polygon fill="white" stroke="black" points="80.5,-0.5 80.5,-19.5 157.5,-19.5 157.5,-0.5 80.5,-0.5"/>
<text text-anchor="middle" x="119" y="-7.5" font-family="Helvetica,sans-Serif" font-size="10.00">RANS2P2D.h</text>
</a>
</g>
</g>
<!-- Node1&#45;&gt;Node3 -->
<g id="edge2" class="edge"><title>Node1&#45;&gt;Node3</title>
<path fill="none" stroke="midnightblue" d="M88.7345,-48.144C96.4005,-38.7357 105.633,-27.4046 111.869,-19.7511"/>
<polygon fill="midnightblue" stroke="midnightblue" points="85.8691,-46.1198 82.2657,-56.083 91.2958,-50.5415 85.8691,-46.1198"/>
</g>
</g>
</svg>
