<?xml version="1.0" encoding="UTF-8" standalone="no"?>
<!DOCTYPE svg PUBLIC "-//W3C//DTD SVG 1.1//EN"
 "http://www.w3.org/Graphics/SVG/1.1/DTD/svg11.dtd">
<!-- Generated by graphviz version 2.38.0 (20140413.2041)
 -->
<!-- Title: ParallelMeshConverter.cpp Pages: 1 -->
<svg width="677pt" height="196pt"
 viewBox="0.00 0.00 677.00 196.00" xmlns="http://www.w3.org/2000/svg" xmlns:xlink="http://www.w3.org/1999/xlink">
<g id="graph0" class="graph" transform="scale(1 1) rotate(0) translate(4 192)">
<title>ParallelMeshConverter.cpp</title>
<polygon fill="white" stroke="none" points="-4,4 -4,-192 673,-192 673,4 -4,4"/>
<!-- Node1 -->
<g id="node1" class="node"><title>Node1</title>
<polygon fill="#bfbfbf" stroke="black" points="161.5,-168.5 161.5,-187.5 304.5,-187.5 304.5,-168.5 161.5,-168.5"/>
<text text-anchor="middle" x="233" y="-175.5" font-family="Helvetica,sans-Serif" font-size="10.00">ParallelMeshConverter.cpp</text>
</g>
<!-- Node2 -->
<g id="node2" class="node"><title>Node2</title>
<polygon fill="white" stroke="#bfbfbf" points="0,-0.5 0,-19.5 62,-19.5 62,-0.5 0,-0.5"/>
<text text-anchor="middle" x="31" y="-7.5" font-family="Helvetica,sans-Serif" font-size="10.00">algorithm</text>
</g>
<!-- Node1&#45;&gt;Node2 -->
<g id="edge1" class="edge"><title>Node1&#45;&gt;Node2</title>
<path fill="none" stroke="midnightblue" d="M161.274,-171.313C106.874,-165.335 38.5548,-153.672 21,-132 -2.78814,-102.632 11.6504,-55.0476 22.4382,-29.1691"/>
<polygon fill="midnightblue" stroke="midnightblue" points="25.7323,-30.3741 26.5797,-19.8132 19.3314,-27.5406 25.7323,-30.3741"/>
</g>
<!-- Node3 -->
<g id="node3" class="node"><title>Node3</title>
<polygon fill="white" stroke="#bfbfbf" points="30,-112.5 30,-131.5 74,-131.5 74,-112.5 30,-112.5"/>
<text text-anchor="middle" x="52" y="-119.5" font-family="Helvetica,sans-Serif" font-size="10.00">mpi.h</text>
</g>
<!-- Node1&#45;&gt;Node3 -->
<g id="edge2" class="edge"><title>Node1&#45;&gt;Node3</title>
<path fill="none" stroke="midnightblue" d="M204.32,-168.444C171.618,-158.687 118.288,-142.776 84.1897,-132.604"/>
<polygon fill="midnightblue" stroke="midnightblue" points="84.8525,-129.149 74.2692,-129.644 82.8512,-135.857 84.8525,-129.149"/>
</g>
<!-- Node4 -->
<g id="node4" class="node"><title>Node4</title>
<polygon fill="white" stroke="#bfbfbf" points="92,-112.5 92,-131.5 138,-131.5 138,-112.5 92,-112.5"/>
<text text-anchor="middle" x="115" y="-119.5" font-family="Helvetica,sans-Serif" font-size="10.00">PCU.h</text>
</g>
<!-- Node1&#45;&gt;Node4 -->
<g id="edge3" class="edge"><title>Node1&#45;&gt;Node4</title>
<path fill="none" stroke="midnightblue" d="M214.303,-168.444C195.056,-159.636 164.848,-145.812 142.8,-135.722"/>
<polygon fill="midnightblue" stroke="midnightblue" points="144.16,-132.495 133.61,-131.516 141.247,-138.86 144.16,-132.495"/>
</g>
<!-- Node5 -->
<g id="node5" class="node"><title>Node5</title>
<polygon fill="white" stroke="#bfbfbf" points="156,-112.5 156,-131.5 212,-131.5 212,-112.5 156,-112.5"/>
<text text-anchor="middle" x="184" y="-119.5" font-family="Helvetica,sans-Serif" font-size="10.00">sstream</text>
</g>
<!-- Node1&#45;&gt;Node5 -->
<g id="edge4" class="edge"><title>Node1&#45;&gt;Node5</title>
<path fill="none" stroke="midnightblue" d="M224.909,-168.083C217.845,-160.298 207.412,-148.801 198.851,-139.367"/>
<polygon fill="midnightblue" stroke="midnightblue" points="201.253,-136.805 191.941,-131.751 196.069,-141.509 201.253,-136.805"/>
</g>
<!-- Node6 -->
<g id="node6" class="node"><title>Node6</title>
<g id="a_node6"><a xlink:href="_mesh_adapt_p_u_m_i_8h.html" target="_top" xlink:title="MeshAdaptPUMI.h">
<polygon fill="white" stroke="black" points="230,-112.5 230,-131.5 334,-131.5 334,-112.5 230,-112.5"/>
<text text-anchor="middle" x="282" y="-119.5" font-family="Helvetica,sans-Serif" font-size="10.00">MeshAdaptPUMI.h</text>
</a>
</g>
</g>
<!-- Node1&#45;&gt;Node6 -->
<g id="edge5" class="edge"><title>Node1&#45;&gt;Node6</title>
<path fill="none" stroke="midnightblue" d="M241.091,-168.083C248.155,-160.298 258.588,-148.801 267.149,-139.367"/>
<polygon fill="midnightblue" stroke="midnightblue" points="269.931,-141.509 274.059,-131.751 264.747,-136.805 269.931,-141.509"/>
</g>
<!-- Node7 -->
<g id="node7" class="node"><title>Node7</title>
<g id="a_node7"><a xlink:href="mesh_8h.html" target="_top" xlink:title="mesh.h">
<polygon fill="white" stroke="black" points="356.5,-56.5 356.5,-75.5 409.5,-75.5 409.5,-56.5 356.5,-56.5"/>
<text text-anchor="middle" x="383" y="-63.5" font-family="Helvetica,sans-Serif" font-size="10.00">mesh.h</text>
</a>
</g>
</g>
<!-- Node1&#45;&gt;Node7 -->
<g id="edge21" class="edge"><title>Node1&#45;&gt;Node7</title>
<path fill="none" stroke="midnightblue" d="M269.003,-168.5C292.116,-161.638 321.684,-150.091 343,-132 357.958,-119.305 368.994,-99.5519 375.641,-85.1513"/>
<polygon fill="midnightblue" stroke="midnightblue" points="378.933,-86.3561 379.699,-75.789 372.511,-83.5724 378.933,-86.3561"/>
</g>
<!-- Node21 -->
<g id="node21" class="node"><title>Node21</title>
<g id="a_node21"><a xlink:href="_dump_mesh_8h.html" target="_top" xlink:title="DumpMesh.h">
<polygon fill="white" stroke="black" points="390,-112.5 390,-131.5 470,-131.5 470,-112.5 390,-112.5"/>
<text text-anchor="middle" x="430" y="-119.5" font-family="Helvetica,sans-Serif" font-size="10.00">DumpMesh.h</text>
</a>
</g>
</g>
<!-- Node1&#45;&gt;Node21 -->
<g id="edge22" class="edge"><title>Node1&#45;&gt;Node21</title>
<path fill="none" stroke="midnightblue" d="M264.215,-168.444C297.933,-159.201 351.8,-144.436 388.932,-134.257"/>
<polygon fill="midnightblue" stroke="midnightblue" points="390.212,-137.536 398.931,-131.516 388.361,-130.785 390.212,-137.536"/>
</g>
<!-- Node23 -->
<g id="node23" class="node"><title>Node23</title>
<polygon fill="white" stroke="#bfbfbf" points="488.5,-112.5 488.5,-131.5 537.5,-131.5 537.5,-112.5 488.5,-112.5"/>
<text text-anchor="middle" x="513" y="-119.5" font-family="Helvetica,sans-Serif" font-size="10.00">cstring</text>
</g>
<!-- Node1&#45;&gt;Node23 -->
<g id="edge25" class="edge"><title>Node1&#45;&gt;Node23</title>
<path fill="none" stroke="midnightblue" d="M286.508,-168.447C334.257,-160.536 406.282,-147.921 478.05,-132.069"/>
<polygon fill="midnightblue" stroke="midnightblue" points="479.174,-135.404 488.172,-129.811 477.65,-128.572 479.174,-135.404"/>
</g>
<!-- Node6&#45;&gt;Node7 -->
<g id="edge6" class="edge"><title>Node6&#45;&gt;Node7</title>
<path fill="none" stroke="midnightblue" d="M298.227,-112.324C314.351,-103.703 339.3,-90.3643 357.964,-80.3855"/>
<polygon fill="midnightblue" stroke="midnightblue" points="359.644,-83.456 366.813,-75.6545 356.344,-77.283 359.644,-83.456"/>
</g>
<!-- Node17 -->
<g id="node17" class="node"><title>Node17</title>
<polygon fill="white" stroke="#bfbfbf" points="298,-56.5 298,-75.5 338,-75.5 338,-56.5 298,-56.5"/>
<text text-anchor="middle" x="318" y="-63.5" font-family="Helvetica,sans-Serif" font-size="10.00">apf.h</text>
</g>
<!-- Node6&#45;&gt;Node17 -->
<g id="edge17" class="edge"><title>Node6&#45;&gt;Node17</title>
<path fill="none" stroke="midnightblue" d="M287.945,-112.083C292.977,-104.534 300.337,-93.4948 306.513,-84.2298"/>
<polygon fill="midnightblue" stroke="midnightblue" points="309.531,-86.0131 312.166,-75.7511 303.707,-82.1301 309.531,-86.0131"/>
</g>
<!-- Node18 -->
<g id="node18" class="node"><title>Node18</title>
<polygon fill="white" stroke="#bfbfbf" points="30,-56.5 30,-75.5 102,-75.5 102,-56.5 30,-56.5"/>
<text text-anchor="middle" x="66" y="-63.5" font-family="Helvetica,sans-Serif" font-size="10.00">apfMesh2.h</text>
</g>
<!-- Node6&#45;&gt;Node18 -->
<g id="edge18" class="edge"><title>Node6&#45;&gt;Node18</title>
<path fill="none" stroke="midnightblue" d="M247.774,-112.444C210.488,-103.122 150.731,-88.1828 109.989,-77.9972"/>
<polygon fill="midnightblue" stroke="midnightblue" points="110.616,-74.5464 100.066,-75.5164 108.918,-81.3374 110.616,-74.5464"/>
</g>
<!-- Node19 -->
<g id="node19" class="node"><title>Node19</title>
<polygon fill="white" stroke="#bfbfbf" points="120,-56.5 120,-75.5 214,-75.5 214,-56.5 120,-56.5"/>
<text text-anchor="middle" x="167" y="-63.5" font-family="Helvetica,sans-Serif" font-size="10.00">apfNumbering.h</text>
</g>
<!-- Node6&#45;&gt;Node19 -->
<g id="edge19" class="edge"><title>Node6&#45;&gt;Node19</title>
<path fill="none" stroke="midnightblue" d="M263.778,-112.444C245.104,-103.675 215.844,-89.9355 194.383,-79.8579"/>
<polygon fill="midnightblue" stroke="midnightblue" points="195.676,-76.5988 185.137,-75.5164 192.701,-82.935 195.676,-76.5988"/>
</g>
<!-- Node20 -->
<g id="node20" class="node"><title>Node20</title>
<polygon fill="white" stroke="#bfbfbf" points="232.5,-56.5 232.5,-75.5 279.5,-75.5 279.5,-56.5 232.5,-56.5"/>
<text text-anchor="middle" x="256" y="-63.5" font-family="Helvetica,sans-Serif" font-size="10.00">queue</text>
</g>
<!-- Node6&#45;&gt;Node20 -->
<g id="edge20" class="edge"><title>Node6&#45;&gt;Node20</title>
<path fill="none" stroke="midnightblue" d="M277.707,-112.083C274.148,-104.691 268.978,-93.9533 264.576,-84.8111"/>
<polygon fill="midnightblue" stroke="midnightblue" points="267.705,-83.2427 260.213,-75.7511 261.398,-86.2795 267.705,-83.2427"/>
</g>
<!-- Node7&#45;&gt;Node2 -->
<g id="edge9" class="edge"><title>Node7&#45;&gt;Node2</title>
<path fill="none" stroke="midnightblue" d="M356.333,-58.0065C353.197,-57.2813 350.035,-56.5938 347,-56 320.554,-50.8256 151.857,-27.5341 72.3503,-16.6448"/>
<polygon fill="midnightblue" stroke="midnightblue" points="72.5839,-13.1442 62.2016,-15.2558 71.6346,-20.0796 72.5839,-13.1442"/>
</g>
<!-- Node8 -->
<g id="node8" class="node"><title>Node8</title>
<polygon fill="white" stroke="#bfbfbf" points="637,-0.5 637,-19.5 669,-19.5 669,-0.5 637,-0.5"/>
<text text-anchor="middle" x="653" y="-7.5" font-family="Helvetica,sans-Serif" font-size="10.00">set</text>
</g>
<!-- Node7&#45;&gt;Node8 -->
<g id="edge7" class="edge"><title>Node7&#45;&gt;Node8</title>
<path fill="none" stroke="midnightblue" d="M409.7,-57.8943C412.495,-57.2223 415.3,-56.5775 418,-56 507.525,-36.8496 534.642,-43.634 627.218,-19.7982"/>
<polygon fill="midnightblue" stroke="midnightblue" points="628.21,-23.1566 636.993,-17.2318 626.432,-16.386 628.21,-23.1566"/>
</g>
<!-- Node9 -->
<g id="node9" class="node"><title>Node9</title>
<polygon fill="white" stroke="#bfbfbf" points="108.5,-0.5 108.5,-19.5 155.5,-19.5 155.5,-0.5 108.5,-0.5"/>
<text text-anchor="middle" x="132" y="-7.5" font-family="Helvetica,sans-Serif" font-size="10.00">vector</text>
</g>
<!-- Node7&#45;&gt;Node9 -->
<g id="edge8" class="edge"><title>Node7&#45;&gt;Node9</title>
<path fill="none" stroke="midnightblue" d="M356.299,-58.1678C353.169,-57.4137 350.018,-56.6752 347,-56 269.677,-38.6985 247.022,-38.8209 165.928,-20.0736"/>
<polygon fill="midnightblue" stroke="midnightblue" points="166.276,-16.5605 155.742,-17.6913 164.682,-23.3766 166.276,-16.5605"/>
</g>
<!-- Node10 -->
<g id="node10" class="node"><title>Node10</title>
<polygon fill="white" stroke="#bfbfbf" points="174,-0.5 174,-19.5 212,-19.5 212,-0.5 174,-0.5"/>
<text text-anchor="middle" x="193" y="-7.5" font-family="Helvetica,sans-Serif" font-size="10.00">map</text>
</g>
<!-- Node7&#45;&gt;Node10 -->
<g id="edge10" class="edge"><title>Node7&#45;&gt;Node10</title>
<path fill="none" stroke="midnightblue" d="M356.246,-57.9206C325.936,-49.8236 274.838,-35.9443 222.108,-20.2494"/>
<polygon fill="midnightblue" stroke="midnightblue" points="222.832,-16.8126 212.248,-17.2987 220.825,-23.5188 222.832,-16.8126"/>
</g>
<!-- Node11 -->
<g id="node11" class="node"><title>Node11</title>
<polygon fill="white" stroke="#bfbfbf" points="230,-0.5 230,-19.5 260,-19.5 260,-0.5 230,-0.5"/>
<text text-anchor="middle" x="245" y="-7.5" font-family="Helvetica,sans-Serif" font-size="10.00">list</text>
</g>
<!-- Node7&#45;&gt;Node11 -->
<g id="edge11" class="edge"><title>Node7&#45;&gt;Node11</title>
<path fill="none" stroke="midnightblue" d="M361.133,-56.4435C336.309,-46.7295 295.892,-30.9142 269.881,-20.7362"/>
<polygon fill="midnightblue" stroke="midnightblue" points="270.943,-17.3931 260.355,-17.0084 268.392,-23.9118 270.943,-17.3931"/>
</g>
<!-- Node12 -->
<g id="node12" class="node"><title>Node12</title>
<polygon fill="white" stroke="#bfbfbf" points="278.5,-0.5 278.5,-19.5 337.5,-19.5 337.5,-0.5 278.5,-0.5"/>
<text text-anchor="middle" x="308" y="-7.5" font-family="Helvetica,sans-Serif" font-size="10.00">iostream</text>
</g>
<!-- Node7&#45;&gt;Node12 -->
<g id="edge12" class="edge"><title>Node7&#45;&gt;Node12</title>
<path fill="none" stroke="midnightblue" d="M370.95,-56.324C359.537,-48.1066 342.169,-35.6017 328.565,-25.8069"/>
<polygon fill="midnightblue" stroke="midnightblue" points="330.43,-22.8366 320.269,-19.8339 326.34,-28.5174 330.43,-22.8366"/>
</g>
<!-- Node13 -->
<g id="node13" class="node"><title>Node13</title>
<polygon fill="white" stroke="#bfbfbf" points="355.5,-0.5 355.5,-19.5 410.5,-19.5 410.5,-0.5 355.5,-0.5"/>
<text text-anchor="middle" x="383" y="-7.5" font-family="Helvetica,sans-Serif" font-size="10.00">iomanip</text>
</g>
<!-- Node7&#45;&gt;Node13 -->
<g id="edge13" class="edge"><title>Node7&#45;&gt;Node13</title>
<path fill="none" stroke="midnightblue" d="M383,-56.083C383,-49.0059 383,-38.8611 383,-29.9865"/>
<polygon fill="midnightblue" stroke="midnightblue" points="386.5,-29.751 383,-19.7511 379.5,-29.7511 386.5,-29.751"/>
</g>
<!-- Node14 -->
<g id="node14" class="node"><title>Node14</title>
<polygon fill="white" stroke="#bfbfbf" points="429,-0.5 429,-19.5 483,-19.5 483,-0.5 429,-0.5"/>
<text text-anchor="middle" x="456" y="-7.5" font-family="Helvetica,sans-Serif" font-size="10.00">fstream</text>
</g>
<!-- Node7&#45;&gt;Node14 -->
<g id="edge14" class="edge"><title>Node7&#45;&gt;Node14</title>
<path fill="none" stroke="midnightblue" d="M394.729,-56.324C405.837,-48.1066 422.742,-35.6017 435.983,-25.8069"/>
<polygon fill="midnightblue" stroke="midnightblue" points="438.1,-28.5948 444.058,-19.8339 433.937,-22.9671 438.1,-28.5948"/>
</g>
<!-- Node15 -->
<g id="node15" class="node"><title>Node15</title>
<polygon fill="white" stroke="#bfbfbf" points="501,-0.5 501,-19.5 553,-19.5 553,-0.5 501,-0.5"/>
<text text-anchor="middle" x="527" y="-7.5" font-family="Helvetica,sans-Serif" font-size="10.00">cassert</text>
</g>
<!-- Node7&#45;&gt;Node15 -->
<g id="edge15" class="edge"><title>Node7&#45;&gt;Node15</title>
<path fill="none" stroke="midnightblue" d="M405.817,-56.4435C429.832,-47.4381 467.829,-33.1891 494.869,-23.049"/>
<polygon fill="midnightblue" stroke="midnightblue" points="496.155,-26.3049 504.29,-19.5164 493.697,-19.7506 496.155,-26.3049"/>
</g>
<!-- Node16 -->
<g id="node16" class="node"><title>Node16</title>
<polygon fill="white" stroke="#bfbfbf" points="571.5,-0.5 571.5,-19.5 618.5,-19.5 618.5,-0.5 571.5,-0.5"/>
<text text-anchor="middle" x="595" y="-7.5" font-family="Helvetica,sans-Serif" font-size="10.00">cmath</text>
</g>
<!-- Node7&#45;&gt;Node16 -->
<g id="edge16" class="edge"><title>Node7&#45;&gt;Node16</title>
<path fill="none" stroke="midnightblue" d="M409.748,-58.1022C412.534,-57.3897 415.324,-56.6785 418,-56 478.948,-40.5454 496.548,-36.9998 561.314,-20.137"/>
<polygon fill="midnightblue" stroke="midnightblue" points="562.432,-23.4626 571.223,-17.5495 560.663,-16.6898 562.432,-23.4626"/>
</g>
<!-- Node21&#45;&gt;Node7 -->
<g id="edge23" class="edge"><title>Node21&#45;&gt;Node7</title>
<path fill="none" stroke="midnightblue" d="M422.239,-112.083C415.463,-104.298 405.457,-92.8015 397.245,-83.3665"/>
<polygon fill="midnightblue" stroke="midnightblue" points="399.822,-80.9963 390.617,-75.7511 394.542,-85.592 399.822,-80.9963"/>
</g>
<!-- Node22 -->
<g id="node22" class="node"><title>Node22</title>
<polygon fill="white" stroke="#bfbfbf" points="427.5,-56.5 427.5,-75.5 472.5,-75.5 472.5,-56.5 427.5,-56.5"/>
<text text-anchor="middle" x="450" y="-63.5" font-family="Helvetica,sans-Serif" font-size="10.00">cstdio</text>
</g>
<!-- Node21&#45;&gt;Node22 -->
<g id="edge24" class="edge"><title>Node21&#45;&gt;Node22</title>
<path fill="none" stroke="midnightblue" d="M433.303,-112.083C435.982,-104.849 439.849,-94.4087 443.186,-85.3968"/>
<polygon fill="midnightblue" stroke="midnightblue" points="446.568,-86.3442 446.759,-75.7511 440.004,-83.9129 446.568,-86.3442"/>
</g>
</g>
</svg>
