<?xml version="1.0" encoding="UTF-8" standalone="no"?>
<!DOCTYPE svg PUBLIC "-//W3C//DTD SVG 1.1//EN"
 "http://www.w3.org/Graphics/SVG/1.1/DTD/svg11.dtd">
<!-- Generated by graphviz version 2.38.0 (20140413.2041)
 -->
<!-- Title: ProtChBody.h Pages: 1 -->
<svg width="981pt" height="95pt"
 viewBox="0.00 0.00 980.50 95.00" xmlns="http://www.w3.org/2000/svg" xmlns:xlink="http://www.w3.org/1999/xlink">
<g id="graph0" class="graph" transform="scale(1 1) rotate(0) translate(4 91)">
<title>ProtChBody.h</title>
<polygon fill="white" stroke="none" points="-4,4 -4,-91 976.5,-91 976.5,4 -4,4"/>
<!-- Node1 -->
<g id="node1" class="node"><title>Node1</title>
<polygon fill="#bfbfbf" stroke="black" points="531.5,-67.5 531.5,-86.5 611.5,-86.5 611.5,-67.5 531.5,-67.5"/>
<text text-anchor="middle" x="571.5" y="-74.5" font-family="Helvetica,sans-Serif" font-size="10.00">ProtChBody.h</text>
</g>
<!-- Node2 -->
<g id="node2" class="node"><title>Node2</title>
<polygon fill="white" stroke="#bfbfbf" points="0,-6 0,-25 171,-25 171,-6 0,-6"/>
<text text-anchor="middle" x="85.5" y="-13" font-family="Helvetica,sans-Serif" font-size="10.00">chrono/physics/ChSystemSMC.h</text>
</g>
<!-- Node1&#45;&gt;Node2 -->
<g id="edge1" class="edge"><title>Node1&#45;&gt;Node2</title>
<path fill="none" stroke="midnightblue" d="M531.37,-71.9121C460.328,-64.5596 307.815,-48.255 179.5,-31 169.558,-29.6631 159.041,-28.1441 148.782,-26.6048"/>
<polygon fill="midnightblue" stroke="midnightblue" points="149.052,-23.1058 138.64,-25.0647 148.001,-30.0264 149.052,-23.1058"/>
</g>
<!-- Node3 -->
<g id="node3" class="node"><title>Node3</title>
<polygon fill="white" stroke="#bfbfbf" points="189,-6 189,-25 338,-25 338,-6 189,-6"/>
<text text-anchor="middle" x="263.5" y="-13" font-family="Helvetica,sans-Serif" font-size="10.00">chrono/physics/ChSystem.h</text>
</g>
<!-- Node1&#45;&gt;Node3 -->
<g id="edge2" class="edge"><title>Node1&#45;&gt;Node3</title>
<path fill="none" stroke="midnightblue" d="M531.234,-68.2214C476.478,-57.6434 378.377,-38.6922 317.343,-26.9016"/>
<polygon fill="midnightblue" stroke="midnightblue" points="317.991,-23.462 307.509,-25.0017 316.663,-30.335 317.991,-23.462"/>
</g>
<!-- Node4 -->
<g id="node4" class="node"><title>Node4</title>
<polygon fill="white" stroke="#bfbfbf" points="356,-0.5 356,-30.5 467,-30.5 467,-0.5 356,-0.5"/>
<text text-anchor="start" x="364" y="-18.5" font-family="Helvetica,sans-Serif" font-size="10.00">chrono/timestepper</text>
<text text-anchor="middle" x="411.5" y="-7.5" font-family="Helvetica,sans-Serif" font-size="10.00">/ChTimestepper.h</text>
</g>
<!-- Node1&#45;&gt;Node4 -->
<g id="edge3" class="edge"><title>Node1&#45;&gt;Node4</title>
<path fill="none" stroke="midnightblue" d="M548.576,-67.4751C525.286,-58.8142 488.53,-45.1454 458.939,-34.1415"/>
<polygon fill="midnightblue" stroke="midnightblue" points="459.802,-30.7281 449.209,-30.523 457.362,-37.2891 459.802,-30.7281"/>
</g>
<!-- Node5 -->
<g id="node5" class="node"><title>Node5</title>
<polygon fill="white" stroke="#bfbfbf" points="485,-6 485,-25 658,-25 658,-6 485,-6"/>
<text text-anchor="middle" x="571.5" y="-13" font-family="Helvetica,sans-Serif" font-size="10.00">chrono/solver/ChSolverMINRES.h</text>
</g>
<!-- Node1&#45;&gt;Node5 -->
<g id="edge4" class="edge"><title>Node1&#45;&gt;Node5</title>
<path fill="none" stroke="midnightblue" d="M571.5,-67.4751C571.5,-59.0803 571.5,-45.9806 571.5,-35.1631"/>
<polygon fill="midnightblue" stroke="midnightblue" points="575,-35.0091 571.5,-25.0091 568,-35.0091 575,-35.0091"/>
</g>
<!-- Node6 -->
<g id="node6" class="node"><title>Node6</title>
<polygon fill="white" stroke="#bfbfbf" points="676.5,-6 676.5,-25 822.5,-25 822.5,-6 676.5,-6"/>
<text text-anchor="middle" x="749.5" y="-13" font-family="Helvetica,sans-Serif" font-size="10.00">chrono/core/ChTransform.h</text>
</g>
<!-- Node1&#45;&gt;Node6 -->
<g id="edge5" class="edge"><title>Node1&#45;&gt;Node6</title>
<path fill="none" stroke="midnightblue" d="M597.003,-67.4751C627.801,-57.1804 679.765,-39.8103 714.348,-28.2502"/>
<polygon fill="midnightblue" stroke="midnightblue" points="715.67,-31.4989 724.044,-25.0091 713.45,-24.86 715.67,-31.4989"/>
</g>
<!-- Node7 -->
<g id="node7" class="node"><title>Node7</title>
<polygon fill="white" stroke="#bfbfbf" points="841,-6 841,-25 900,-25 900,-6 841,-6"/>
<text text-anchor="middle" x="870.5" y="-13" font-family="Helvetica,sans-Serif" font-size="10.00">iostream</text>
</g>
<!-- Node1&#45;&gt;Node7 -->
<g id="edge6" class="edge"><title>Node1&#45;&gt;Node7</title>
<path fill="none" stroke="midnightblue" d="M611.641,-71.39C663.15,-64.9439 754.988,-51.6548 831.5,-31 834.311,-30.2411 837.204,-29.3616 840.084,-28.4183"/>
<polygon fill="midnightblue" stroke="midnightblue" points="841.406,-31.6638 849.681,-25.0483 839.086,-25.0591 841.406,-31.6638"/>
</g>
<!-- Node8 -->
<g id="node8" class="node"><title>Node8</title>
<polygon fill="white" stroke="#bfbfbf" points="918.5,-6 918.5,-25 972.5,-25 972.5,-6 918.5,-6"/>
<text text-anchor="middle" x="945.5" y="-13" font-family="Helvetica,sans-Serif" font-size="10.00">fstream</text>
</g>
<!-- Node1&#45;&gt;Node8 -->
<g id="edge7" class="edge"><title>Node1&#45;&gt;Node8</title>
<path fill="none" stroke="midnightblue" d="M611.674,-73.9094C675.64,-69.858 804.17,-58.7527 909.5,-31 912.008,-30.3391 914.577,-29.549 917.13,-28.6835"/>
<polygon fill="midnightblue" stroke="midnightblue" points="918.606,-31.8684 926.745,-25.086 916.153,-25.3123 918.606,-31.8684"/>
</g>
</g>
</svg>
