<?xml version="1.0" encoding="UTF-8" standalone="no"?>
<!DOCTYPE svg PUBLIC "-//W3C//DTD SVG 1.1//EN"
 "http://www.w3.org/Graphics/SVG/1.1/DTD/svg11.dtd">
<!-- Generated by graphviz version 2.38.0 (20140413.2041)
 -->
<!-- Title: RANS2P.h Pages: 1 -->
<svg width="685pt" height="151pt"
 viewBox="0.00 0.00 684.50 151.00" xmlns="http://www.w3.org/2000/svg" xmlns:xlink="http://www.w3.org/1999/xlink">
<g id="graph0" class="graph" transform="scale(1 1) rotate(0) translate(4 147)">
<title>RANS2P.h</title>
<polygon fill="white" stroke="none" points="-4,4 -4,-147 680.5,-147 680.5,4 -4,4"/>
<!-- Node1 -->
<g id="node1" class="node"><title>Node1</title>
<polygon fill="#bfbfbf" stroke="black" points="276.5,-123.5 276.5,-142.5 338.5,-142.5 338.5,-123.5 276.5,-123.5"/>
<text text-anchor="middle" x="307.5" y="-130.5" font-family="Helvetica,sans-Serif" font-size="10.00">RANS2P.h</text>
</g>
<!-- Node2 -->
<g id="node2" class="node"><title>Node2</title>
<polygon fill="white" stroke="#bfbfbf" points="0,-6 0,-25 47,-25 47,-6 0,-6"/>
<text text-anchor="middle" x="23.5" y="-13" font-family="Helvetica,sans-Serif" font-size="10.00">cmath</text>
</g>
<!-- Node1&#45;&gt;Node2 -->
<g id="edge1" class="edge"><title>Node1&#45;&gt;Node2</title>
<path fill="none" stroke="midnightblue" d="M276.029,-131.463C210.884,-129.649 64.5663,-121.715 31.5,-87 18.6473,-73.5066 18.1913,-51.3413 19.9689,-35.4654"/>
<polygon fill="midnightblue" stroke="midnightblue" points="23.4819,-35.641 21.5126,-25.2308 16.5602,-34.5969 23.4819,-35.641"/>
</g>
<!-- Node3 -->
<g id="node3" class="node"><title>Node3</title>
<polygon fill="white" stroke="#bfbfbf" points="428,-6 428,-25 487,-25 487,-6 428,-6"/>
<text text-anchor="middle" x="457.5" y="-13" font-family="Helvetica,sans-Serif" font-size="10.00">iostream</text>
</g>
<!-- Node1&#45;&gt;Node3 -->
<g id="edge2" class="edge"><title>Node1&#45;&gt;Node3</title>
<path fill="none" stroke="midnightblue" d="M307.688,-123.246C308.447,-109.535 311.856,-82.9222 326.5,-67 328.27,-65.0752 386.568,-43.0253 424.789,-28.7053"/>
<polygon fill="midnightblue" stroke="midnightblue" points="426.361,-31.8543 434.5,-25.0714 423.908,-25.2982 426.361,-31.8543"/>
</g>
<!-- Node4 -->
<g id="node4" class="node"><title>Node4</title>
<polygon fill="white" stroke="#bfbfbf" points="469,-67.5 469,-86.5 524,-86.5 524,-67.5 469,-67.5"/>
<text text-anchor="middle" x="496.5" y="-74.5" font-family="Helvetica,sans-Serif" font-size="10.00">valarray</text>
</g>
<!-- Node1&#45;&gt;Node4 -->
<g id="edge3" class="edge"><title>Node1&#45;&gt;Node4</title>
<path fill="none" stroke="midnightblue" d="M337.448,-123.444C370.321,-114.051 423.158,-98.9549 458.821,-88.7654"/>
<polygon fill="midnightblue" stroke="midnightblue" points="460.191,-92.0141 468.845,-85.9015 458.268,-85.2835 460.191,-92.0141"/>
</g>
<!-- Node5 -->
<g id="node5" class="node"><title>Node5</title>
<g id="a_node5"><a xlink:href="_comp_kernel_8h.html" target="_top" xlink:title="CompKernel.h">
<polygon fill="white" stroke="black" points="41,-67.5 41,-86.5 124,-86.5 124,-67.5 41,-67.5"/>
<text text-anchor="middle" x="82.5" y="-74.5" font-family="Helvetica,sans-Serif" font-size="10.00">CompKernel.h</text>
</a>
</g>
</g>
<!-- Node1&#45;&gt;Node5 -->
<g id="edge4" class="edge"><title>Node1&#45;&gt;Node5</title>
<path fill="none" stroke="midnightblue" d="M276.215,-124.492C237.679,-115.243 171.919,-99.4606 127.847,-88.8833"/>
<polygon fill="midnightblue" stroke="midnightblue" points="128.506,-85.4422 117.966,-86.5118 126.873,-92.2489 128.506,-85.4422"/>
</g>
<!-- Node6 -->
<g id="node6" class="node"><title>Node6</title>
<g id="a_node6"><a xlink:href="_mixed_model_factory_8h.html" target="_top" xlink:title="MixedModelFactory.h">
<polygon fill="white" stroke="black" points="336,-67.5 336,-86.5 451,-86.5 451,-67.5 336,-67.5"/>
<text text-anchor="middle" x="393.5" y="-74.5" font-family="Helvetica,sans-Serif" font-size="10.00">MixedModelFactory.h</text>
</a>
</g>
</g>
<!-- Node1&#45;&gt;Node6 -->
<g id="edge6" class="edge"><title>Node1&#45;&gt;Node6</title>
<path fill="none" stroke="midnightblue" d="M321.317,-123.324C334.733,-114.9 355.324,-101.971 371.086,-92.0741"/>
<polygon fill="midnightblue" stroke="midnightblue" points="373.109,-94.9364 379.717,-86.6545 369.387,-89.0081 373.109,-94.9364"/>
</g>
<!-- Node7 -->
<g id="node7" class="node"><title>Node7</title>
<g id="a_node7"><a xlink:href="_py_embedded_functions_8h.html" target="_top" xlink:title="PyEmbeddedFunctions.h">
<polygon fill="white" stroke="black" points="542.5,-67.5 542.5,-86.5 676.5,-86.5 676.5,-67.5 542.5,-67.5"/>
<text text-anchor="middle" x="609.5" y="-74.5" font-family="Helvetica,sans-Serif" font-size="10.00">PyEmbeddedFunctions.h</text>
</a>
</g>
</g>
<!-- Node1&#45;&gt;Node7 -->
<g id="edge8" class="edge"><title>Node1&#45;&gt;Node7</title>
<path fill="none" stroke="midnightblue" d="M338.682,-126.424C388.893,-117.446 488.435,-99.6474 551.843,-88.3095"/>
<polygon fill="midnightblue" stroke="midnightblue" points="552.469,-91.7532 561.697,-86.5476 551.237,-84.8625 552.469,-91.7532"/>
</g>
<!-- Node9 -->
<g id="node9" class="node"><title>Node9</title>
<g id="a_node9"><a xlink:href="equivalent__polynomials_8h.html" target="_top" xlink:title="equivalent_polynomials.h">
<polygon fill="white" stroke="black" points="142,-67.5 142,-86.5 279,-86.5 279,-67.5 142,-67.5"/>
<text text-anchor="middle" x="210.5" y="-74.5" font-family="Helvetica,sans-Serif" font-size="10.00">equivalent_polynomials.h</text>
</a>
</g>
</g>
<!-- Node1&#45;&gt;Node9 -->
<g id="edge10" class="edge"><title>Node1&#45;&gt;Node9</title>
<path fill="none" stroke="midnightblue" d="M291.915,-123.324C276.501,-114.743 252.688,-101.486 234.79,-91.5224"/>
<polygon fill="midnightblue" stroke="midnightblue" points="236.486,-88.4606 226.046,-86.6545 233.081,-94.5767 236.486,-88.4606"/>
</g>
<!-- Node5&#45;&gt;Node2 -->
<g id="edge5" class="edge"><title>Node5&#45;&gt;Node2</title>
<path fill="none" stroke="midnightblue" d="M74.0467,-67.4751C64.9338,-58.285 50.2298,-43.4563 39.0245,-32.156"/>
<polygon fill="midnightblue" stroke="midnightblue" points="41.4641,-29.6455 31.9376,-25.0091 36.4935,-34.5744 41.4641,-29.6455"/>
</g>
<!-- Node6&#45;&gt;Node3 -->
<g id="edge7" class="edge"><title>Node6&#45;&gt;Node3</title>
<path fill="none" stroke="midnightblue" d="M402.67,-67.4751C412.65,-58.1966 428.812,-43.1706 441.009,-31.831"/>
<polygon fill="midnightblue" stroke="midnightblue" points="443.407,-34.3814 448.347,-25.0091 438.64,-29.2547 443.407,-34.3814"/>
</g>
<!-- Node8 -->
<g id="node8" class="node"><title>Node8</title>
<polygon fill="white" stroke="#bfbfbf" points="580,-6 580,-25 639,-25 639,-6 580,-6"/>
<text text-anchor="middle" x="609.5" y="-13" font-family="Helvetica,sans-Serif" font-size="10.00">Python.h</text>
</g>
<!-- Node7&#45;&gt;Node8 -->
<g id="edge9" class="edge"><title>Node7&#45;&gt;Node8</title>
<path fill="none" stroke="midnightblue" d="M609.5,-67.4751C609.5,-59.0803 609.5,-45.9806 609.5,-35.1631"/>
<polygon fill="midnightblue" stroke="midnightblue" points="613,-35.0091 609.5,-25.0091 606,-35.0091 613,-35.0091"/>
</g>
<!-- Node9&#45;&gt;Node2 -->
<g id="edge11" class="edge"><title>Node9&#45;&gt;Node2</title>
<path fill="none" stroke="midnightblue" d="M176.75,-67.4902C145.276,-59.2371 97.1999,-45.8173 56.5,-31 54.8425,-30.3966 53.1499,-29.7502 51.4501,-29.0777"/>
<polygon fill="midnightblue" stroke="midnightblue" points="52.4052,-25.6836 41.8289,-25.0571 49.7061,-32.1423 52.4052,-25.6836"/>
</g>
<!-- Node10 -->
<g id="node10" class="node"><title>Node10</title>
<polygon fill="white" stroke="#bfbfbf" points="65.5,-6 65.5,-25 117.5,-25 117.5,-6 65.5,-6"/>
<text text-anchor="middle" x="91.5" y="-13" font-family="Helvetica,sans-Serif" font-size="10.00">cassert</text>
</g>
<!-- Node9&#45;&gt;Node10 -->
<g id="edge12" class="edge"><title>Node9&#45;&gt;Node10</title>
<path fill="none" stroke="midnightblue" d="M193.45,-67.4751C173.656,-57.578 140.783,-41.1416 117.73,-29.6151"/>
<polygon fill="midnightblue" stroke="midnightblue" points="119.028,-26.3508 108.518,-25.0091 115.897,-32.6118 119.028,-26.3508"/>
</g>
<!-- Node11 -->
<g id="node11" class="node"><title>Node11</title>
<g id="a_node11"><a xlink:href="equivalent__polynomials__coefficients_8h.html" target="_top" xlink:title="equivalent_polynomials\l_coefficients.h">
<polygon fill="white" stroke="black" points="135.5,-0.5 135.5,-30.5 263.5,-30.5 263.5,-0.5 135.5,-0.5"/>
<text text-anchor="start" x="143.5" y="-18.5" font-family="Helvetica,sans-Serif" font-size="10.00">equivalent_polynomials</text>
<text text-anchor="middle" x="199.5" y="-7.5" font-family="Helvetica,sans-Serif" font-size="10.00">_coefficients.h</text>
</a>
</g>
</g>
<!-- Node9&#45;&gt;Node11 -->
<g id="edge13" class="edge"><title>Node9&#45;&gt;Node11</title>
<path fill="none" stroke="midnightblue" d="M208.924,-67.4751C207.615,-60.3957 205.688,-49.9705 203.917,-40.3896"/>
<polygon fill="midnightblue" stroke="midnightblue" points="207.352,-39.72 202.092,-30.523 200.469,-40.9926 207.352,-39.72"/>
</g>
<!-- Node12 -->
<g id="node12" class="node"><title>Node12</title>
<g id="a_node12"><a xlink:href="equivalent__polynomials__utils_8h.html" target="_top" xlink:title="equivalent_polynomials\l_utils.h">
<polygon fill="white" stroke="black" points="281.5,-0.5 281.5,-30.5 409.5,-30.5 409.5,-0.5 281.5,-0.5"/>
<text text-anchor="start" x="289.5" y="-18.5" font-family="Helvetica,sans-Serif" font-size="10.00">equivalent_polynomials</text>
<text text-anchor="middle" x="345.5" y="-7.5" font-family="Helvetica,sans-Serif" font-size="10.00">_utils.h</text>
</a>
</g>
</g>
<!-- Node9&#45;&gt;Node12 -->
<g id="edge14" class="edge"><title>Node9&#45;&gt;Node12</title>
<path fill="none" stroke="midnightblue" d="M229.842,-67.4751C249.237,-58.9271 279.699,-45.5011 304.493,-34.5734"/>
<polygon fill="midnightblue" stroke="midnightblue" points="305.944,-37.7588 313.683,-30.523 303.121,-31.3534 305.944,-37.7588"/>
</g>
</g>
</svg>
