<?xml version="1.0" encoding="UTF-8" standalone="no"?>
<!DOCTYPE svg PUBLIC "-//W3C//DTD SVG 1.1//EN"
 "http://www.w3.org/Graphics/SVG/1.1/DTD/svg11.dtd">
<!-- Generated by graphviz version 2.38.0 (20140413.2041)
 -->
<!-- Title: RANS3PF2D.h Pages: 1 -->
<svg width="760pt" height="151pt"
 viewBox="0.00 0.00 759.85 151.00" xmlns="http://www.w3.org/2000/svg" xmlns:xlink="http://www.w3.org/1999/xlink">
<g id="graph0" class="graph" transform="scale(1 1) rotate(0) translate(4 147)">
<title>RANS3PF2D.h</title>
<polygon fill="white" stroke="none" points="-4,4 -4,-147 755.845,-147 755.845,4 -4,4"/>
<!-- Node1 -->
<g id="node1" class="node"><title>Node1</title>
<polygon fill="#bfbfbf" stroke="black" points="320.845,-123.5 320.845,-142.5 403.845,-142.5 403.845,-123.5 320.845,-123.5"/>
<text text-anchor="middle" x="362.345" y="-130.5" font-family="Helvetica,sans-Serif" font-size="10.00">RANS3PF2D.h</text>
</g>
<!-- Node2 -->
<g id="node2" class="node"><title>Node2</title>
<polygon fill="white" stroke="#bfbfbf" points="81.8454,-6 81.8454,-25 128.845,-25 128.845,-6 81.8454,-6"/>
<text text-anchor="middle" x="105.345" y="-13" font-family="Helvetica,sans-Serif" font-size="10.00">cmath</text>
</g>
<!-- Node1&#45;&gt;Node2 -->
<g id="edge1" class="edge"><title>Node1&#45;&gt;Node2</title>
<path fill="none" stroke="midnightblue" d="M320.643,-129.778C231.102,-124.581 26.8662,-110.278 6.34536,-87 -17.5427,-59.9023 34.7958,-37.5181 72.0906,-25.6621"/>
<polygon fill="midnightblue" stroke="midnightblue" points="73.1208,-29.0071 81.6633,-22.74 71.0771,-22.3121 73.1208,-29.0071"/>
</g>
<!-- Node3 -->
<g id="node3" class="node"><title>Node3</title>
<polygon fill="white" stroke="#bfbfbf" points="513.845,-67.5 513.845,-86.5 568.845,-86.5 568.845,-67.5 513.845,-67.5"/>
<text text-anchor="middle" x="541.345" y="-74.5" font-family="Helvetica,sans-Serif" font-size="10.00">valarray</text>
</g>
<!-- Node1&#45;&gt;Node3 -->
<g id="edge2" class="edge"><title>Node1&#45;&gt;Node3</title>
<path fill="none" stroke="midnightblue" d="M390.708,-123.444C421.262,-114.226 470.025,-99.5157 503.755,-89.3402"/>
<polygon fill="midnightblue" stroke="midnightblue" points="505.14,-92.5781 513.703,-86.339 503.118,-85.8764 505.14,-92.5781"/>
</g>
<!-- Node4 -->
<g id="node4" class="node"><title>Node4</title>
<polygon fill="white" stroke="#bfbfbf" points="195.845,-6 195.845,-25 254.845,-25 254.845,-6 195.845,-6"/>
<text text-anchor="middle" x="225.345" y="-13" font-family="Helvetica,sans-Serif" font-size="10.00">iostream</text>
</g>
<!-- Node1&#45;&gt;Node4 -->
<g id="edge3" class="edge"><title>Node1&#45;&gt;Node4</title>
<path fill="none" stroke="midnightblue" d="M320.627,-125.867C295.217,-120.021 263.97,-108.716 244.345,-87 231.488,-72.7722 227.191,-50.7405 225.828,-35.0968"/>
<polygon fill="midnightblue" stroke="midnightblue" points="229.318,-34.8296 225.273,-25.0376 222.329,-35.2152 229.318,-34.8296"/>
</g>
<!-- Node5 -->
<g id="node5" class="node"><title>Node5</title>
<polygon fill="white" stroke="#bfbfbf" points="586.845,-67.5 586.845,-86.5 633.845,-86.5 633.845,-67.5 586.845,-67.5"/>
<text text-anchor="middle" x="610.345" y="-74.5" font-family="Helvetica,sans-Serif" font-size="10.00">vector</text>
</g>
<!-- Node1&#45;&gt;Node5 -->
<g id="edge4" class="edge"><title>Node1&#45;&gt;Node5</title>
<path fill="none" stroke="midnightblue" d="M403.945,-124.215C445.45,-116.252 511.247,-103.101 576.574,-87.3177"/>
<polygon fill="midnightblue" stroke="midnightblue" points="577.741,-90.6357 586.628,-84.8665 576.083,-83.8349 577.741,-90.6357"/>
</g>
<!-- Node6 -->
<g id="node6" class="node"><title>Node6</title>
<polygon fill="white" stroke="#bfbfbf" points="652.345,-67.5 652.345,-86.5 684.345,-86.5 684.345,-67.5 652.345,-67.5"/>
<text text-anchor="middle" x="668.345" y="-74.5" font-family="Helvetica,sans-Serif" font-size="10.00">set</text>
</g>
<!-- Node1&#45;&gt;Node6 -->
<g id="edge5" class="edge"><title>Node1&#45;&gt;Node6</title>
<path fill="none" stroke="midnightblue" d="M404.267,-127.762C457.679,-121.822 552.866,-109.423 642.323,-86.858"/>
<polygon fill="midnightblue" stroke="midnightblue" points="643.262,-90.2303 652.076,-84.3507 641.519,-83.4507 643.262,-90.2303"/>
</g>
<!-- Node7 -->
<g id="node7" class="node"><title>Node7</title>
<polygon fill="white" stroke="#bfbfbf" points="702.845,-67.5 702.845,-86.5 751.845,-86.5 751.845,-67.5 702.845,-67.5"/>
<text text-anchor="middle" x="727.345" y="-74.5" font-family="Helvetica,sans-Serif" font-size="10.00">cstring</text>
</g>
<!-- Node1&#45;&gt;Node7 -->
<g id="edge6" class="edge"><title>Node1&#45;&gt;Node7</title>
<path fill="none" stroke="midnightblue" d="M403.901,-128.018C465.04,-121.795 582.952,-108.411 692.639,-86.9124"/>
<polygon fill="midnightblue" stroke="midnightblue" points="693.42,-90.3257 702.546,-84.9436 692.055,-83.46 693.42,-90.3257"/>
</g>
<!-- Node8 -->
<g id="node8" class="node"><title>Node8</title>
<g id="a_node8"><a xlink:href="_comp_kernel_8h.html" target="_top" xlink:title="CompKernel.h">
<polygon fill="white" stroke="black" points="15.8454,-67.5 15.8454,-86.5 98.8454,-86.5 98.8454,-67.5 15.8454,-67.5"/>
<text text-anchor="middle" x="57.3454" y="-74.5" font-family="Helvetica,sans-Serif" font-size="10.00">CompKernel.h</text>
</a>
</g>
</g>
<!-- Node1&#45;&gt;Node8 -->
<g id="edge7" class="edge"><title>Node1&#45;&gt;Node8</title>
<path fill="none" stroke="midnightblue" d="M320.576,-124.605C265.517,-114.857 168.678,-97.7114 109.057,-87.1555"/>
<polygon fill="midnightblue" stroke="midnightblue" points="109.556,-83.6894 99.0986,-85.3924 108.335,-90.5822 109.556,-83.6894"/>
</g>
<!-- Node9 -->
<g id="node9" class="node"><title>Node9</title>
<g id="a_node9"><a xlink:href="_model_factory_8h.html" target="_top" xlink:title="ModelFactory.h">
<polygon fill="white" stroke="black" points="253.845,-67.5 253.845,-86.5 340.845,-86.5 340.845,-67.5 253.845,-67.5"/>
<text text-anchor="middle" x="297.345" y="-74.5" font-family="Helvetica,sans-Serif" font-size="10.00">ModelFactory.h</text>
</a>
</g>
</g>
<!-- Node1&#45;&gt;Node9 -->
<g id="edge9" class="edge"><title>Node1&#45;&gt;Node9</title>
<path fill="none" stroke="midnightblue" d="M351.902,-123.324C342.199,-115.263 327.53,-103.077 315.846,-93.3695"/>
<polygon fill="midnightblue" stroke="midnightblue" points="317.907,-90.532 307.979,-86.8339 313.434,-95.9163 317.907,-90.532"/>
</g>
<!-- Node10 -->
<g id="node10" class="node"><title>Node10</title>
<g id="a_node10"><a xlink:href="_sed_closure_8h.html" target="_top" xlink:title="SedClosure.h">
<polygon fill="white" stroke="black" points="117.345,-67.5 117.345,-86.5 197.345,-86.5 197.345,-67.5 117.345,-67.5"/>
<text text-anchor="middle" x="157.345" y="-74.5" font-family="Helvetica,sans-Serif" font-size="10.00">SedClosure.h</text>
</a>
</g>
</g>
<!-- Node1&#45;&gt;Node10 -->
<g id="edge11" class="edge"><title>Node1&#45;&gt;Node10</title>
<path fill="none" stroke="midnightblue" d="M329.862,-123.444C294.626,-114.162 238.242,-99.3093 199.587,-89.127"/>
<polygon fill="midnightblue" stroke="midnightblue" points="200.238,-85.6792 189.676,-86.5164 198.455,-92.4483 200.238,-85.6792"/>
</g>
<!-- Node11 -->
<g id="node11" class="node"><title>Node11</title>
<g id="a_node11"><a xlink:href="equivalent__polynomials_8h.html" target="_top" xlink:title="equivalent_polynomials.h">
<polygon fill="white" stroke="black" points="358.845,-67.5 358.845,-86.5 495.845,-86.5 495.845,-67.5 358.845,-67.5"/>
<text text-anchor="middle" x="427.345" y="-74.5" font-family="Helvetica,sans-Serif" font-size="10.00">equivalent_polynomials.h</text>
</a>
</g>
</g>
<!-- Node1&#45;&gt;Node11 -->
<g id="edge14" class="edge"><title>Node1&#45;&gt;Node11</title>
<path fill="none" stroke="midnightblue" d="M372.789,-123.324C382.492,-115.263 397.161,-103.077 408.845,-93.3695"/>
<polygon fill="midnightblue" stroke="midnightblue" points="411.257,-95.9163 416.712,-86.8339 406.783,-90.532 411.257,-95.9163"/>
</g>
<!-- Node8&#45;&gt;Node2 -->
<g id="edge8" class="edge"><title>Node8&#45;&gt;Node2</title>
<path fill="none" stroke="midnightblue" d="M64.2226,-67.4751C71.4939,-58.4617 83.1407,-44.0246 92.1863,-32.8118"/>
<polygon fill="midnightblue" stroke="midnightblue" points="94.9261,-34.9898 98.4809,-25.0091 89.478,-30.5946 94.9261,-34.9898"/>
</g>
<!-- Node9&#45;&gt;Node4 -->
<g id="edge10" class="edge"><title>Node9&#45;&gt;Node4</title>
<path fill="none" stroke="midnightblue" d="M287.03,-67.4751C275.695,-58.1082 257.272,-42.8839 243.506,-31.5081"/>
<polygon fill="midnightblue" stroke="midnightblue" points="245.58,-28.6813 235.642,-25.0091 241.121,-34.0773 245.58,-28.6813"/>
</g>
<!-- Node10&#45;&gt;Node2 -->
<g id="edge12" class="edge"><title>Node10&#45;&gt;Node2</title>
<path fill="none" stroke="midnightblue" d="M149.895,-67.4751C142.018,-58.4617 129.4,-44.0246 119.601,-32.8118"/>
<polygon fill="midnightblue" stroke="midnightblue" points="121.998,-30.2356 112.782,-25.0091 116.727,-34.842 121.998,-30.2356"/>
</g>
<!-- Node10&#45;&gt;Node4 -->
<g id="edge13" class="edge"><title>Node10&#45;&gt;Node4</title>
<path fill="none" stroke="midnightblue" d="M167.088,-67.4751C177.692,-58.1966 194.865,-43.1706 207.824,-31.831"/>
<polygon fill="midnightblue" stroke="midnightblue" points="210.4,-34.2282 215.621,-25.0091 205.79,-28.9601 210.4,-34.2282"/>
</g>
<!-- Node11&#45;&gt;Node2 -->
<g id="edge15" class="edge"><title>Node11&#45;&gt;Node2</title>
<path fill="none" stroke="midnightblue" d="M381.211,-67.4751C315.727,-55.3749 197.345,-33.4999 139.297,-22.7736"/>
<polygon fill="midnightblue" stroke="midnightblue" points="139.656,-19.2808 129.186,-20.9054 138.384,-26.1643 139.656,-19.2808"/>
</g>
<!-- Node12 -->
<g id="node12" class="node"><title>Node12</title>
<polygon fill="white" stroke="#bfbfbf" points="293.345,-6 293.345,-25 345.345,-25 345.345,-6 293.345,-6"/>
<text text-anchor="middle" x="319.345" y="-13" font-family="Helvetica,sans-Serif" font-size="10.00">cassert</text>
</g>
<!-- Node11&#45;&gt;Node12 -->
<g id="edge16" class="edge"><title>Node11&#45;&gt;Node12</title>
<path fill="none" stroke="midnightblue" d="M411.872,-67.4751C394.068,-57.6664 364.605,-41.4346 343.713,-29.925"/>
<polygon fill="midnightblue" stroke="midnightblue" points="345.238,-26.769 334.79,-25.0091 341.86,-32.9001 345.238,-26.769"/>
</g>
<!-- Node13 -->
<g id="node13" class="node"><title>Node13</title>
<g id="a_node13"><a xlink:href="equivalent__polynomials__coefficients_8h.html" target="_top" xlink:title="equivalent_polynomials\l_coefficients.h">
<polygon fill="white" stroke="black" points="363.345,-0.5 363.345,-30.5 491.345,-30.5 491.345,-0.5 363.345,-0.5"/>
<text text-anchor="start" x="371.345" y="-18.5" font-family="Helvetica,sans-Serif" font-size="10.00">equivalent_polynomials</text>
<text text-anchor="middle" x="427.345" y="-7.5" font-family="Helvetica,sans-Serif" font-size="10.00">_coefficients.h</text>
</a>
</g>
</g>
<!-- Node11&#45;&gt;Node13 -->
<g id="edge17" class="edge"><title>Node11&#45;&gt;Node13</title>
<path fill="none" stroke="midnightblue" d="M427.345,-67.4751C427.345,-60.471 427.345,-50.1919 427.345,-40.6956"/>
<polygon fill="midnightblue" stroke="midnightblue" points="430.845,-40.5229 427.345,-30.523 423.845,-40.523 430.845,-40.5229"/>
</g>
<!-- Node14 -->
<g id="node14" class="node"><title>Node14</title>
<g id="a_node14"><a xlink:href="equivalent__polynomials__utils_8h.html" target="_top" xlink:title="equivalent_polynomials\l_utils.h">
<polygon fill="white" stroke="black" points="509.345,-0.5 509.345,-30.5 637.345,-30.5 637.345,-0.5 509.345,-0.5"/>
<text text-anchor="start" x="517.345" y="-18.5" font-family="Helvetica,sans-Serif" font-size="10.00">equivalent_polynomials</text>
<text text-anchor="middle" x="573.345" y="-7.5" font-family="Helvetica,sans-Serif" font-size="10.00">_utils.h</text>
</a>
</g>
</g>
<!-- Node11&#45;&gt;Node14 -->
<g id="edge18" class="edge"><title>Node11&#45;&gt;Node14</title>
<path fill="none" stroke="midnightblue" d="M448.264,-67.4751C469.331,-58.8895 502.473,-45.3827 529.351,-34.4291"/>
<polygon fill="midnightblue" stroke="midnightblue" points="530.996,-37.5382 538.936,-30.523 528.355,-31.0558 530.996,-37.5382"/>
</g>
</g>
</svg>
