<?xml version="1.0" encoding="UTF-8" standalone="no"?>
<!DOCTYPE svg PUBLIC "-//W3C//DTD SVG 1.1//EN"
 "http://www.w3.org/Graphics/SVG/1.1/DTD/svg11.dtd">
<!-- Generated by graphviz version 2.38.0 (20140413.2041)
 -->
<!-- Title: RDLS.h Pages: 1 -->
<svg width="657pt" height="151pt"
 viewBox="0.00 0.00 656.50 151.00" xmlns="http://www.w3.org/2000/svg" xmlns:xlink="http://www.w3.org/1999/xlink">
<g id="graph0" class="graph" transform="scale(1 1) rotate(0) translate(4 147)">
<title>RDLS.h</title>
<polygon fill="white" stroke="none" points="-4,4 -4,-147 652.5,-147 652.5,4 -4,4"/>
<!-- Node1 -->
<g id="node1" class="node"><title>Node1</title>
<polygon fill="#bfbfbf" stroke="black" points="174,-123.5 174,-142.5 225,-142.5 225,-123.5 174,-123.5"/>
<text text-anchor="middle" x="199.5" y="-130.5" font-family="Helvetica,sans-Serif" font-size="10.00">RDLS.h</text>
</g>
<!-- Node2 -->
<g id="node2" class="node"><title>Node2</title>
<polygon fill="white" stroke="#bfbfbf" points="239,-6 239,-25 286,-25 286,-6 239,-6"/>
<text text-anchor="middle" x="262.5" y="-13" font-family="Helvetica,sans-Serif" font-size="10.00">cmath</text>
</g>
<!-- Node1&#45;&gt;Node2 -->
<g id="edge1" class="edge"><title>Node1&#45;&gt;Node2</title>
<path fill="none" stroke="midnightblue" d="M204.235,-123.319C214.542,-104.422 239.183,-59.2483 252.889,-34.1206"/>
<polygon fill="midnightblue" stroke="midnightblue" points="255.994,-35.737 257.71,-25.282 249.849,-32.385 255.994,-35.737"/>
</g>
<!-- Node3 -->
<g id="node3" class="node"><title>Node3</title>
<polygon fill="white" stroke="#bfbfbf" points="50,-6 50,-25 109,-25 109,-6 50,-6"/>
<text text-anchor="middle" x="79.5" y="-13" font-family="Helvetica,sans-Serif" font-size="10.00">iostream</text>
</g>
<!-- Node1&#45;&gt;Node3 -->
<g id="edge2" class="edge"><title>Node1&#45;&gt;Node3</title>
<path fill="none" stroke="midnightblue" d="M184.619,-123.495C170.797,-115.197 150.065,-101.703 134.5,-87 117.304,-70.7572 101.094,-48.8735 90.7872,-33.8185"/>
<polygon fill="midnightblue" stroke="midnightblue" points="93.6486,-31.8012 85.177,-25.4386 87.8318,-35.6955 93.6486,-31.8012"/>
</g>
<!-- Node4 -->
<g id="node4" class="node"><title>Node4</title>
<polygon fill="white" stroke="#bfbfbf" points="144,-67.5 144,-86.5 199,-86.5 199,-67.5 144,-67.5"/>
<text text-anchor="middle" x="171.5" y="-74.5" font-family="Helvetica,sans-Serif" font-size="10.00">valarray</text>
</g>
<!-- Node1&#45;&gt;Node4 -->
<g id="edge3" class="edge"><title>Node1&#45;&gt;Node4</title>
<path fill="none" stroke="midnightblue" d="M194.876,-123.083C191.044,-115.691 185.476,-104.953 180.735,-95.8111"/>
<polygon fill="midnightblue" stroke="midnightblue" points="183.748,-94.0175 176.038,-86.7511 177.534,-97.2398 183.748,-94.0175"/>
</g>
<!-- Node5 -->
<g id="node5" class="node"><title>Node5</title>
<g id="a_node5"><a xlink:href="_comp_kernel_8h.html" target="_top" xlink:title="CompKernel.h">
<polygon fill="white" stroke="black" points="256,-67.5 256,-86.5 339,-86.5 339,-67.5 256,-67.5"/>
<text text-anchor="middle" x="297.5" y="-74.5" font-family="Helvetica,sans-Serif" font-size="10.00">CompKernel.h</text>
</a>
</g>
</g>
<!-- Node1&#45;&gt;Node5 -->
<g id="edge4" class="edge"><title>Node1&#45;&gt;Node5</title>
<path fill="none" stroke="midnightblue" d="M215.245,-123.324C230.819,-114.743 254.877,-101.486 272.959,-91.5224"/>
<polygon fill="midnightblue" stroke="midnightblue" points="274.724,-94.546 281.794,-86.6545 271.346,-88.4152 274.724,-94.546"/>
</g>
<!-- Node6 -->
<g id="node6" class="node"><title>Node6</title>
<g id="a_node6"><a xlink:href="_model_factory_8h.html" target="_top" xlink:title="ModelFactory.h">
<polygon fill="white" stroke="black" points="0,-67.5 0,-86.5 87,-86.5 87,-67.5 0,-67.5"/>
<text text-anchor="middle" x="43.5" y="-74.5" font-family="Helvetica,sans-Serif" font-size="10.00">ModelFactory.h</text>
</a>
</g>
</g>
<!-- Node1&#45;&gt;Node6 -->
<g id="edge6" class="edge"><title>Node1&#45;&gt;Node6</title>
<path fill="none" stroke="midnightblue" d="M174.781,-123.444C148.652,-114.399 107.241,-100.064 77.9236,-89.9158"/>
<polygon fill="midnightblue" stroke="midnightblue" points="78.6978,-86.4801 68.103,-86.5164 76.408,-93.0951 78.6978,-86.4801"/>
</g>
<!-- Node7 -->
<g id="node7" class="node"><title>Node7</title>
<g id="a_node7"><a xlink:href="equivalent__polynomials_8h.html" target="_top" xlink:title="equivalent_polynomials.h">
<polygon fill="white" stroke="black" points="357,-67.5 357,-86.5 494,-86.5 494,-67.5 357,-67.5"/>
<text text-anchor="middle" x="425.5" y="-74.5" font-family="Helvetica,sans-Serif" font-size="10.00">equivalent_polynomials.h</text>
</a>
</g>
</g>
<!-- Node1&#45;&gt;Node7 -->
<g id="edge8" class="edge"><title>Node1&#45;&gt;Node7</title>
<path fill="none" stroke="midnightblue" d="M225.425,-125.806C263.123,-116.798 333.628,-99.9518 380.069,-88.8552"/>
<polygon fill="midnightblue" stroke="midnightblue" points="380.968,-92.2391 389.881,-86.5108 379.341,-85.4307 380.968,-92.2391"/>
</g>
<!-- Node5&#45;&gt;Node2 -->
<g id="edge5" class="edge"><title>Node5&#45;&gt;Node2</title>
<path fill="none" stroke="midnightblue" d="M292.485,-67.4751C287.339,-58.7268 279.188,-44.8691 272.682,-33.8093"/>
<polygon fill="midnightblue" stroke="midnightblue" points="275.592,-31.8539 267.505,-25.0091 269.559,-35.403 275.592,-31.8539"/>
</g>
<!-- Node6&#45;&gt;Node3 -->
<g id="edge7" class="edge"><title>Node6&#45;&gt;Node3</title>
<path fill="none" stroke="midnightblue" d="M48.6579,-67.4751C53.951,-58.7268 62.3355,-44.8691 69.0271,-33.8093"/>
<polygon fill="midnightblue" stroke="midnightblue" points="72.1695,-35.3768 74.3516,-25.0091 66.1804,-31.7531 72.1695,-35.3768"/>
</g>
<!-- Node7&#45;&gt;Node2 -->
<g id="edge9" class="edge"><title>Node7&#45;&gt;Node2</title>
<path fill="none" stroke="midnightblue" d="M398.879,-67.4838C372.441,-58.8626 330.855,-44.8603 295.5,-31 293.898,-30.3719 292.259,-29.7114 290.61,-29.0327"/>
<polygon fill="midnightblue" stroke="midnightblue" points="291.809,-25.7394 281.237,-25.046 289.069,-32.1809 291.809,-25.7394"/>
</g>
<!-- Node8 -->
<g id="node8" class="node"><title>Node8</title>
<polygon fill="white" stroke="#bfbfbf" points="450.5,-6 450.5,-25 502.5,-25 502.5,-6 450.5,-6"/>
<text text-anchor="middle" x="476.5" y="-13" font-family="Helvetica,sans-Serif" font-size="10.00">cassert</text>
</g>
<!-- Node7&#45;&gt;Node8 -->
<g id="edge10" class="edge"><title>Node7&#45;&gt;Node8</title>
<path fill="none" stroke="midnightblue" d="M432.807,-67.4751C440.533,-58.4617 452.908,-44.0246 462.518,-32.8118"/>
<polygon fill="midnightblue" stroke="midnightblue" points="465.356,-34.8795 469.206,-25.0091 460.041,-30.3239 465.356,-34.8795"/>
</g>
<!-- Node9 -->
<g id="node9" class="node"><title>Node9</title>
<g id="a_node9"><a xlink:href="equivalent__polynomials__coefficients_8h.html" target="_top" xlink:title="equivalent_polynomials\l_coefficients.h">
<polygon fill="white" stroke="black" points="520.5,-0.5 520.5,-30.5 648.5,-30.5 648.5,-0.5 520.5,-0.5"/>
<text text-anchor="start" x="528.5" y="-18.5" font-family="Helvetica,sans-Serif" font-size="10.00">equivalent_polynomials</text>
<text text-anchor="middle" x="584.5" y="-7.5" font-family="Helvetica,sans-Serif" font-size="10.00">_coefficients.h</text>
</a>
</g>
</g>
<!-- Node7&#45;&gt;Node9 -->
<g id="edge11" class="edge"><title>Node7&#45;&gt;Node9</title>
<path fill="none" stroke="midnightblue" d="M448.281,-67.4751C471.425,-58.8142 507.952,-45.1454 537.357,-34.1415"/>
<polygon fill="midnightblue" stroke="midnightblue" points="538.888,-37.3058 547.027,-30.523 536.434,-30.7498 538.888,-37.3058"/>
</g>
<!-- Node10 -->
<g id="node10" class="node"><title>Node10</title>
<g id="a_node10"><a xlink:href="equivalent__polynomials__utils_8h.html" target="_top" xlink:title="equivalent_polynomials\l_utils.h">
<polygon fill="white" stroke="black" points="304.5,-0.5 304.5,-30.5 432.5,-30.5 432.5,-0.5 304.5,-0.5"/>
<text text-anchor="start" x="312.5" y="-18.5" font-family="Helvetica,sans-Serif" font-size="10.00">equivalent_polynomials</text>
<text text-anchor="middle" x="368.5" y="-7.5" font-family="Helvetica,sans-Serif" font-size="10.00">_utils.h</text>
</a>
</g>
</g>
<!-- Node7&#45;&gt;Node10 -->
<g id="edge12" class="edge"><title>Node7&#45;&gt;Node10</title>
<path fill="none" stroke="midnightblue" d="M417.333,-67.4751C409.974,-59.7932 398.841,-48.1717 389.062,-37.9643"/>
<polygon fill="midnightblue" stroke="midnightblue" points="391.379,-35.3229 381.934,-30.523 386.324,-40.1654 391.379,-35.3229"/>
</g>
</g>
</svg>
