<?xml version="1.0" encoding="UTF-8" standalone="no"?>
<!DOCTYPE svg PUBLIC "-//W3C//DTD SVG 1.1//EN"
 "http://www.w3.org/Graphics/SVG/1.1/DTD/svg11.dtd">
<!-- Generated by graphviz version 2.38.0 (20140413.2041)
 -->
<!-- Title: SW2D.h Pages: 1 -->
<svg width="253pt" height="140pt"
 viewBox="0.00 0.00 253.00 140.00" xmlns="http://www.w3.org/2000/svg" xmlns:xlink="http://www.w3.org/1999/xlink">
<g id="graph0" class="graph" transform="scale(1 1) rotate(0) translate(4 136)">
<title>SW2D.h</title>
<polygon fill="white" stroke="none" points="-4,4 -4,-136 249,-136 249,4 -4,4"/>
<!-- Node1 -->
<g id="node1" class="node"><title>Node1</title>
<polygon fill="#bfbfbf" stroke="black" points="67.5,-112.5 67.5,-131.5 121.5,-131.5 121.5,-112.5 67.5,-112.5"/>
<text text-anchor="middle" x="94.5" y="-119.5" font-family="Helvetica,sans-Serif" font-size="10.00">SW2D.h</text>
</g>
<!-- Node2 -->
<g id="node2" class="node"><title>Node2</title>
<polygon fill="white" stroke="#bfbfbf" points="0,-0.5 0,-19.5 47,-19.5 47,-0.5 0,-0.5"/>
<text text-anchor="middle" x="23.5" y="-7.5" font-family="Helvetica,sans-Serif" font-size="10.00">cmath</text>
</g>
<!-- Node1&#45;&gt;Node2 -->
<g id="edge1" class="edge"><title>Node1&#45;&gt;Node2</title>
<path fill="none" stroke="midnightblue" d="M67.1528,-114.745C47.0632,-108.563 21.1536,-96.9023 8.5,-76 -0.283683,-61.4904 5.89179,-42.3091 12.7854,-28.5499"/>
<polygon fill="midnightblue" stroke="midnightblue" points="15.9408,-30.0767 17.7283,-19.6338 9.81861,-26.6827 15.9408,-30.0767"/>
</g>
<!-- Node3 -->
<g id="node3" class="node"><title>Node3</title>
<polygon fill="white" stroke="#bfbfbf" points="136,-0.5 136,-19.5 195,-19.5 195,-0.5 136,-0.5"/>
<text text-anchor="middle" x="165.5" y="-7.5" font-family="Helvetica,sans-Serif" font-size="10.00">iostream</text>
</g>
<!-- Node1&#45;&gt;Node3 -->
<g id="edge2" class="edge"><title>Node1&#45;&gt;Node3</title>
<path fill="none" stroke="midnightblue" d="M100.071,-112.368C111.736,-94.2957 138.923,-52.1764 154.329,-28.3074"/>
<polygon fill="midnightblue" stroke="midnightblue" points="157.472,-29.8913 159.955,-19.5914 151.591,-26.0952 157.472,-29.8913"/>
</g>
<!-- Node4 -->
<g id="node4" class="node"><title>Node4</title>
<g id="a_node4"><a xlink:href="_comp_kernel_8h.html" target="_top" xlink:title="CompKernel.h">
<polygon fill="white" stroke="black" points="18,-56.5 18,-75.5 101,-75.5 101,-56.5 18,-56.5"/>
<text text-anchor="middle" x="59.5" y="-63.5" font-family="Helvetica,sans-Serif" font-size="10.00">CompKernel.h</text>
</a>
</g>
</g>
<!-- Node1&#45;&gt;Node4 -->
<g id="edge3" class="edge"><title>Node1&#45;&gt;Node4</title>
<path fill="none" stroke="midnightblue" d="M88.7205,-112.083C83.8276,-104.534 76.6726,-93.4948 70.6674,-84.2298"/>
<polygon fill="midnightblue" stroke="midnightblue" points="73.548,-82.239 65.172,-75.7511 67.674,-86.0463 73.548,-82.239"/>
</g>
<!-- Node5 -->
<g id="node5" class="node"><title>Node5</title>
<g id="a_node5"><a xlink:href="_model_factory_8h.html" target="_top" xlink:title="ModelFactory.h">
<polygon fill="white" stroke="black" points="158,-56.5 158,-75.5 245,-75.5 245,-56.5 158,-56.5"/>
<text text-anchor="middle" x="201.5" y="-63.5" font-family="Helvetica,sans-Serif" font-size="10.00">ModelFactory.h</text>
</a>
</g>
</g>
<!-- Node1&#45;&gt;Node5 -->
<g id="edge5" class="edge"><title>Node1&#45;&gt;Node5</title>
<path fill="none" stroke="midnightblue" d="M111.691,-112.324C128.851,-103.664 155.446,-90.2424 175.247,-80.249"/>
<polygon fill="midnightblue" stroke="midnightblue" points="177.001,-83.2847 184.351,-75.6545 173.847,-77.0354 177.001,-83.2847"/>
</g>
<!-- Node4&#45;&gt;Node2 -->
<g id="edge4" class="edge"><title>Node4&#45;&gt;Node2</title>
<path fill="none" stroke="midnightblue" d="M53.5553,-56.083C48.5227,-48.5341 41.1632,-37.4948 34.9865,-28.2298"/>
<polygon fill="midnightblue" stroke="midnightblue" points="37.7933,-26.1301 29.3341,-19.7511 31.9689,-30.0131 37.7933,-26.1301"/>
</g>
<!-- Node5&#45;&gt;Node3 -->
<g id="edge6" class="edge"><title>Node5&#45;&gt;Node3</title>
<path fill="none" stroke="midnightblue" d="M195.555,-56.083C190.523,-48.5341 183.163,-37.4948 176.987,-28.2298"/>
<polygon fill="midnightblue" stroke="midnightblue" points="179.793,-26.1301 171.334,-19.7511 173.969,-30.0131 179.793,-26.1301"/>
</g>
</g>
</svg>
