<?xml version="1.0" encoding="UTF-8" standalone="no"?>
<!DOCTYPE svg PUBLIC "-//W3C//DTD SVG 1.1//EN"
 "http://www.w3.org/Graphics/SVG/1.1/DTD/svg11.dtd">
<!-- Generated by graphviz version 2.38.0 (20140413.2041)
 -->
<!-- Title: SedClosure.h Pages: 1 -->
<svg width="761pt" height="84pt"
 viewBox="0.00 0.00 761.00 84.00" xmlns="http://www.w3.org/2000/svg" xmlns:xlink="http://www.w3.org/1999/xlink">
<g id="graph0" class="graph" transform="scale(1 1) rotate(0) translate(4 80)">
<title>SedClosure.h</title>
<polygon fill="white" stroke="none" points="-4,4 -4,-80 757,-80 757,4 -4,4"/>
<!-- Node1 -->
<g id="node1" class="node"><title>Node1</title>
<polygon fill="#bfbfbf" stroke="black" points="318,-56.5 318,-75.5 398,-75.5 398,-56.5 318,-56.5"/>
<text text-anchor="middle" x="358" y="-63.5" font-family="Helvetica,sans-Serif" font-size="10.00">SedClosure.h</text>
</g>
<!-- Node2 -->
<g id="node2" class="node"><title>Node2</title>
<g id="a_node2"><a xlink:href="_dissipation_8h.html" target="_top" xlink:title="Dissipation.h">
<polygon fill="white" stroke="black" points="0,-0.5 0,-19.5 78,-19.5 78,-0.5 0,-0.5"/>
<text text-anchor="middle" x="39" y="-7.5" font-family="Helvetica,sans-Serif" font-size="10.00">Dissipation.h</text>
</a>
</g>
</g>
<!-- Node1&#45;&gt;Node2 -->
<g id="edge1" class="edge"><title>Node1&#45;&gt;Node2</title>
<path fill="none" stroke="midnightblue" d="M307.465,-56.9308C252.994,-48.1577 163.771,-33.5697 87,-20 84.0778,-19.4835 81.0574,-18.94 78.0203,-18.3865"/>
<polygon fill="midnightblue" stroke="midnightblue" points="307.123,-60.4205 317.552,-58.5527 308.234,-53.5093 307.123,-60.4205"/>
</g>
<!-- Node3 -->
<g id="node3" class="node"><title>Node3</title>
<g id="a_node3"><a xlink:href="_dissipation2_d_8h.html" target="_top" xlink:title="Dissipation2D.h">
<polygon fill="white" stroke="black" points="96,-0.5 96,-19.5 188,-19.5 188,-0.5 96,-0.5"/>
<text text-anchor="middle" x="142" y="-7.5" font-family="Helvetica,sans-Serif" font-size="10.00">Dissipation2D.h</text>
</a>
</g>
</g>
<!-- Node1&#45;&gt;Node3 -->
<g id="edge2" class="edge"><title>Node1&#45;&gt;Node3</title>
<path fill="none" stroke="midnightblue" d="M313.836,-53.959C273.039,-43.7598 213.287,-28.8217 176.066,-19.5164"/>
<polygon fill="midnightblue" stroke="midnightblue" points="313.224,-57.4136 323.774,-56.4435 314.922,-50.6226 313.224,-57.4136"/>
</g>
<!-- Node4 -->
<g id="node4" class="node"><title>Node4</title>
<g id="a_node4"><a xlink:href="_kappa_8h.html" target="_top" xlink:title="Kappa.h">
<polygon fill="white" stroke="black" points="206,-0.5 206,-19.5 262,-19.5 262,-0.5 206,-0.5"/>
<text text-anchor="middle" x="234" y="-7.5" font-family="Helvetica,sans-Serif" font-size="10.00">Kappa.h</text>
</a>
</g>
</g>
<!-- Node1&#45;&gt;Node4 -->
<g id="edge3" class="edge"><title>Node1&#45;&gt;Node4</title>
<path fill="none" stroke="midnightblue" d="M328.993,-52.3678C305.771,-42.2553 273.837,-28.3486 253.556,-19.5164"/>
<polygon fill="midnightblue" stroke="midnightblue" points="327.786,-55.6597 338.352,-56.4435 330.581,-49.2419 327.786,-55.6597"/>
</g>
<!-- Node5 -->
<g id="node5" class="node"><title>Node5</title>
<g id="a_node5"><a xlink:href="_kappa2_d_8h.html" target="_top" xlink:title="Kappa2D.h">
<polygon fill="white" stroke="black" points="280.5,-0.5 280.5,-19.5 349.5,-19.5 349.5,-0.5 280.5,-0.5"/>
<text text-anchor="middle" x="315" y="-7.5" font-family="Helvetica,sans-Serif" font-size="10.00">Kappa2D.h</text>
</a>
</g>
</g>
<!-- Node1&#45;&gt;Node5 -->
<g id="edge4" class="edge"><title>Node1&#45;&gt;Node5</title>
<path fill="none" stroke="midnightblue" d="M344.578,-48.144C337.086,-38.7357 328.063,-27.4046 321.968,-19.7511"/>
<polygon fill="midnightblue" stroke="midnightblue" points="341.932,-50.4404 350.899,-56.083 347.408,-46.0799 341.932,-50.4404"/>
</g>
<!-- Node6 -->
<g id="node6" class="node"><title>Node6</title>
<g id="a_node6"><a xlink:href="_r_a_n_s3_p_f_8h.html" target="_top" xlink:title="RANS3PF.h">
<polygon fill="white" stroke="black" points="368,-0.5 368,-19.5 436,-19.5 436,-0.5 368,-0.5"/>
<text text-anchor="middle" x="402" y="-7.5" font-family="Helvetica,sans-Serif" font-size="10.00">RANS3PF.h</text>
</a>
</g>
</g>
<!-- Node1&#45;&gt;Node6 -->
<g id="edge5" class="edge"><title>Node1&#45;&gt;Node6</title>
<path fill="none" stroke="midnightblue" d="M371.735,-48.144C379.401,-38.7357 388.633,-27.4046 394.869,-19.7511"/>
<polygon fill="midnightblue" stroke="midnightblue" points="368.869,-46.1198 365.266,-56.083 374.296,-50.5415 368.869,-46.1198"/>
</g>
<!-- Node7 -->
<g id="node7" class="node"><title>Node7</title>
<g id="a_node7"><a xlink:href="_r_a_n_s3_p_f2_d_8h.html" target="_top" xlink:title="RANS3PF2D.h">
<polygon fill="white" stroke="black" points="454.5,-0.5 454.5,-19.5 537.5,-19.5 537.5,-0.5 454.5,-0.5"/>
<text text-anchor="middle" x="496" y="-7.5" font-family="Helvetica,sans-Serif" font-size="10.00">RANS3PF2D.h</text>
</a>
</g>
</g>
<!-- Node1&#45;&gt;Node7 -->
<g id="edge6" class="edge"><title>Node1&#45;&gt;Node7</title>
<path fill="none" stroke="midnightblue" d="M389.249,-52.772C415.171,-42.6287 451.362,-28.4669 474.236,-19.5164"/>
<polygon fill="midnightblue" stroke="midnightblue" points="387.904,-49.5401 379.867,-56.4435 390.454,-56.0588 387.904,-49.5401"/>
</g>
<!-- Node8 -->
<g id="node8" class="node"><title>Node8</title>
<g id="a_node8"><a xlink:href="_r_a_n_s3_p_sed_8h.html" target="_top" xlink:title="RANS3PSed.h">
<polygon fill="white" stroke="black" points="555.5,-0.5 555.5,-19.5 638.5,-19.5 638.5,-0.5 555.5,-0.5"/>
<text text-anchor="middle" x="597" y="-7.5" font-family="Helvetica,sans-Serif" font-size="10.00">RANS3PSed.h</text>
</a>
</g>
</g>
<!-- Node1&#45;&gt;Node8 -->
<g id="edge7" class="edge"><title>Node1&#45;&gt;Node8</title>
<path fill="none" stroke="midnightblue" d="M405.724,-54.2172C450.885,-44.0134 517.773,-28.9006 559.307,-19.5164"/>
<polygon fill="midnightblue" stroke="midnightblue" points="404.853,-50.8257 395.87,-56.4435 406.396,-57.6535 404.853,-50.8257"/>
</g>
<!-- Node9 -->
<g id="node9" class="node"><title>Node9</title>
<g id="a_node9"><a xlink:href="_r_a_n_s3_p_sed2_d_8h.html" target="_top" xlink:title="RANS3PSed2D.h">
<polygon fill="white" stroke="black" points="657,-0.5 657,-19.5 753,-19.5 753,-0.5 657,-0.5"/>
<text text-anchor="middle" x="705" y="-7.5" font-family="Helvetica,sans-Serif" font-size="10.00">RANS3PSed2D.h</text>
</a>
</g>
</g>
<!-- Node1&#45;&gt;Node9 -->
<g id="edge8" class="edge"><title>Node1&#45;&gt;Node9</title>
<path fill="none" stroke="midnightblue" d="M408.327,-57.2321C466.17,-48.2946 563.95,-33.1566 648,-20 650.87,-19.5507 653.822,-19.0877 656.799,-18.6198"/>
<polygon fill="midnightblue" stroke="midnightblue" points="407.7,-53.7874 398.352,-58.7732 408.769,-60.7053 407.7,-53.7874"/>
</g>
</g>
</svg>
