<?xml version="1.0" encoding="UTF-8" standalone="no"?>
<!DOCTYPE svg PUBLIC "-//W3C//DTD SVG 1.1//EN"
 "http://www.w3.org/Graphics/SVG/1.1/DTD/svg11.dtd">
<!-- Generated by graphviz version 2.38.0 (20140413.2041)
 -->
<!-- Title: SizeField.cpp Pages: 1 -->
<svg width="1224pt" height="196pt"
 viewBox="0.00 0.00 1223.50 196.00" xmlns="http://www.w3.org/2000/svg" xmlns:xlink="http://www.w3.org/1999/xlink">
<g id="graph0" class="graph" transform="scale(1 1) rotate(0) translate(4 192)">
<title>SizeField.cpp</title>
<polygon fill="white" stroke="none" points="-4,4 -4,-192 1219.5,-192 1219.5,4 -4,4"/>
<!-- Node1 -->
<g id="node1" class="node"><title>Node1</title>
<polygon fill="#bfbfbf" stroke="black" points="531,-168.5 531,-187.5 609,-187.5 609,-168.5 531,-168.5"/>
<text text-anchor="middle" x="570" y="-175.5" font-family="Helvetica,sans-Serif" font-size="10.00">SizeField.cpp</text>
</g>
<!-- Node2 -->
<g id="node2" class="node"><title>Node2</title>
<g id="a_node2"><a xlink:href="_mesh_adapt_p_u_m_i_8h.html" target="_top" xlink:title="MeshAdaptPUMI.h">
<polygon fill="white" stroke="black" points="244,-112.5 244,-131.5 348,-131.5 348,-112.5 244,-112.5"/>
<text text-anchor="middle" x="296" y="-119.5" font-family="Helvetica,sans-Serif" font-size="10.00">MeshAdaptPUMI.h</text>
</a>
</g>
</g>
<!-- Node1&#45;&gt;Node2 -->
<g id="edge1" class="edge"><title>Node1&#45;&gt;Node2</title>
<path fill="none" stroke="midnightblue" d="M530.742,-169.263C483.06,-159.866 402.416,-143.973 349.187,-133.482"/>
<polygon fill="midnightblue" stroke="midnightblue" points="349.741,-130.024 339.253,-131.524 348.388,-136.892 349.741,-130.024"/>
</g>
<!-- Node6 -->
<g id="node6" class="node"><title>Node6</title>
<polygon fill="white" stroke="#bfbfbf" points="0,-0.5 0,-19.5 62,-19.5 62,-0.5 0,-0.5"/>
<text text-anchor="middle" x="31" y="-7.5" font-family="Helvetica,sans-Serif" font-size="10.00">algorithm</text>
</g>
<!-- Node1&#45;&gt;Node6 -->
<g id="edge29" class="edge"><title>Node1&#45;&gt;Node6</title>
<path fill="none" stroke="midnightblue" d="M530.982,-175.07C446.385,-170.457 248.733,-157.256 187,-132 127.489,-107.654 71.4274,-54.0143 45.7158,-27.0866"/>
<polygon fill="midnightblue" stroke="midnightblue" points="48.1343,-24.549 38.7405,-19.6493 43.0285,-29.3376 48.1343,-24.549"/>
</g>
<!-- Node9 -->
<g id="node9" class="node"><title>Node9</title>
<polygon fill="white" stroke="#bfbfbf" points="80.5,-0.5 80.5,-19.5 139.5,-19.5 139.5,-0.5 80.5,-0.5"/>
<text text-anchor="middle" x="110" y="-7.5" font-family="Helvetica,sans-Serif" font-size="10.00">iostream</text>
</g>
<!-- Node1&#45;&gt;Node9 -->
<g id="edge24" class="edge"><title>Node1&#45;&gt;Node9</title>
<path fill="none" stroke="midnightblue" d="M530.901,-175.391C451.109,-171.562 272.538,-160.044 219,-132 172.826,-107.813 136.627,-55.7098 119.983,-28.4419"/>
<polygon fill="midnightblue" stroke="midnightblue" points="122.862,-26.4357 114.753,-19.6172 116.84,-30.0044 122.862,-26.4357"/>
</g>
<!-- Node14 -->
<g id="node14" class="node"><title>Node14</title>
<polygon fill="white" stroke="#bfbfbf" points="196,-56.5 196,-75.5 236,-75.5 236,-56.5 196,-56.5"/>
<text text-anchor="middle" x="216" y="-63.5" font-family="Helvetica,sans-Serif" font-size="10.00">apf.h</text>
</g>
<!-- Node1&#45;&gt;Node14 -->
<g id="edge17" class="edge"><title>Node1&#45;&gt;Node14</title>
<path fill="none" stroke="midnightblue" d="M530.908,-176.924C452.257,-175.966 278.669,-169.532 235,-132 221.784,-120.642 217.503,-100.647 216.24,-85.8234"/>
<polygon fill="midnightblue" stroke="midnightblue" points="219.731,-85.5493 215.765,-75.7248 212.739,-85.8783 219.731,-85.5493"/>
</g>
<!-- Node17 -->
<g id="node17" class="node"><title>Node17</title>
<polygon fill="white" stroke="#bfbfbf" points="528.5,-56.5 528.5,-75.5 575.5,-75.5 575.5,-56.5 528.5,-56.5"/>
<text text-anchor="middle" x="552" y="-63.5" font-family="Helvetica,sans-Serif" font-size="10.00">queue</text>
</g>
<!-- Node1&#45;&gt;Node17 -->
<g id="edge28" class="edge"><title>Node1&#45;&gt;Node17</title>
<path fill="none" stroke="midnightblue" d="M530.996,-172.443C484.904,-166.162 412.38,-153.156 396,-132 390.558,-124.972 390.656,-119.103 396,-112 396.95,-110.737 473.204,-89.1379 518.735,-76.3302"/>
<polygon fill="midnightblue" stroke="midnightblue" points="519.813,-79.663 528.493,-73.5877 517.919,-72.9242 519.813,-79.663"/>
</g>
<!-- Node18 -->
<g id="node18" class="node"><title>Node18</title>
<polygon fill="white" stroke="#bfbfbf" points="404.5,-112.5 404.5,-131.5 475.5,-131.5 475.5,-112.5 404.5,-112.5"/>
<text text-anchor="middle" x="440" y="-119.5" font-family="Helvetica,sans-Serif" font-size="10.00">apfVector.h</text>
</g>
<!-- Node1&#45;&gt;Node18 -->
<g id="edge18" class="edge"><title>Node1&#45;&gt;Node18</title>
<path fill="none" stroke="midnightblue" d="M549.401,-168.444C528.007,-159.557 494.319,-145.563 469.976,-135.451"/>
<polygon fill="midnightblue" stroke="midnightblue" points="471.08,-132.12 460.503,-131.516 468.395,-138.585 471.08,-132.12"/>
</g>
<!-- Node19 -->
<g id="node19" class="node"><title>Node19</title>
<polygon fill="white" stroke="#bfbfbf" points="494,-112.5 494,-131.5 560,-131.5 560,-112.5 494,-112.5"/>
<text text-anchor="middle" x="527" y="-119.5" font-family="Helvetica,sans-Serif" font-size="10.00">apfMesh.h</text>
</g>
<!-- Node1&#45;&gt;Node19 -->
<g id="edge19" class="edge"><title>Node1&#45;&gt;Node19</title>
<path fill="none" stroke="midnightblue" d="M562.899,-168.083C556.763,-160.377 547.73,-149.033 540.261,-139.653"/>
<polygon fill="midnightblue" stroke="midnightblue" points="542.936,-137.394 533.968,-131.751 537.46,-141.754 542.936,-137.394"/>
</g>
<!-- Node20 -->
<g id="node20" class="node"><title>Node20</title>
<polygon fill="white" stroke="#bfbfbf" points="578.5,-112.5 578.5,-131.5 649.5,-131.5 649.5,-112.5 578.5,-112.5"/>
<text text-anchor="middle" x="614" y="-119.5" font-family="Helvetica,sans-Serif" font-size="10.00">apfShape.h</text>
</g>
<!-- Node1&#45;&gt;Node20 -->
<g id="edge20" class="edge"><title>Node1&#45;&gt;Node20</title>
<path fill="none" stroke="midnightblue" d="M577.266,-168.083C583.545,-160.377 592.788,-149.033 600.431,-139.653"/>
<polygon fill="midnightblue" stroke="midnightblue" points="603.266,-141.714 606.869,-131.751 597.839,-137.293 603.266,-141.714"/>
</g>
<!-- Node21 -->
<g id="node21" class="node"><title>Node21</title>
<polygon fill="white" stroke="#bfbfbf" points="667.5,-112.5 667.5,-131.5 780.5,-131.5 780.5,-112.5 667.5,-112.5"/>
<text text-anchor="middle" x="724" y="-119.5" font-family="Helvetica,sans-Serif" font-size="10.00">apfDynamicVector.h</text>
</g>
<!-- Node1&#45;&gt;Node21 -->
<g id="edge21" class="edge"><title>Node1&#45;&gt;Node21</title>
<path fill="none" stroke="midnightblue" d="M594.402,-168.444C620.197,-159.399 661.077,-145.064 690.018,-134.916"/>
<polygon fill="midnightblue" stroke="midnightblue" points="691.434,-138.128 699.712,-131.516 689.118,-131.523 691.434,-138.128"/>
</g>
<!-- Node22 -->
<g id="node22" class="node"><title>Node22</title>
<polygon fill="white" stroke="#bfbfbf" points="798.5,-112.5 798.5,-131.5 881.5,-131.5 881.5,-112.5 798.5,-112.5"/>
<text text-anchor="middle" x="840" y="-119.5" font-family="Helvetica,sans-Serif" font-size="10.00">apfCavityOp.h</text>
</g>
<!-- Node1&#45;&gt;Node22 -->
<g id="edge22" class="edge"><title>Node1&#45;&gt;Node22</title>
<path fill="none" stroke="midnightblue" d="M609.26,-169.148C656.565,-159.687 736.184,-143.763 788.412,-133.318"/>
<polygon fill="midnightblue" stroke="midnightblue" points="789.355,-136.698 798.475,-131.305 787.982,-129.834 789.355,-136.698"/>
</g>
<!-- Node23 -->
<g id="node23" class="node"><title>Node23</title>
<polygon fill="white" stroke="#bfbfbf" points="900,-112.5 900,-131.5 944,-131.5 944,-112.5 900,-112.5"/>
<text text-anchor="middle" x="922" y="-119.5" font-family="Helvetica,sans-Serif" font-size="10.00">string</text>
</g>
<!-- Node1&#45;&gt;Node23 -->
<g id="edge23" class="edge"><title>Node1&#45;&gt;Node23</title>
<path fill="none" stroke="midnightblue" d="M609.353,-173.319C668.356,-167.401 783.342,-154.324 889.802,-131.993"/>
<polygon fill="midnightblue" stroke="midnightblue" points="890.695,-135.382 899.746,-129.875 889.236,-128.535 890.695,-135.382"/>
</g>
<!-- Node24 -->
<g id="node24" class="node"><title>Node24</title>
<polygon fill="white" stroke="#bfbfbf" points="962,-112.5 962,-131.5 1018,-131.5 1018,-112.5 962,-112.5"/>
<text text-anchor="middle" x="990" y="-119.5" font-family="Helvetica,sans-Serif" font-size="10.00">sstream</text>
</g>
<!-- Node1&#45;&gt;Node24 -->
<g id="edge25" class="edge"><title>Node1&#45;&gt;Node24</title>
<path fill="none" stroke="midnightblue" d="M609.103,-173.987C676.891,-168.423 820.746,-155.106 951.595,-132.057"/>
<polygon fill="midnightblue" stroke="midnightblue" points="952.565,-135.439 961.793,-130.235 951.334,-128.548 952.565,-135.439"/>
</g>
<!-- Node25 -->
<g id="node25" class="node"><title>Node25</title>
<polygon fill="white" stroke="#bfbfbf" points="1036,-112.5 1036,-131.5 1082,-131.5 1082,-112.5 1036,-112.5"/>
<text text-anchor="middle" x="1059" y="-119.5" font-family="Helvetica,sans-Serif" font-size="10.00">PCU.h</text>
</g>
<!-- Node1&#45;&gt;Node25 -->
<g id="edge26" class="edge"><title>Node1&#45;&gt;Node25</title>
<path fill="none" stroke="midnightblue" d="M609.149,-175.468C686.931,-171.925 866.466,-161.26 1025.72,-131.933"/>
<polygon fill="midnightblue" stroke="midnightblue" points="1026.51,-135.346 1035.69,-130.067 1025.22,-128.466 1026.51,-135.346"/>
</g>
<!-- Node26 -->
<g id="node26" class="node"><title>Node26</title>
<polygon fill="white" stroke="#bfbfbf" points="1100.5,-112.5 1100.5,-131.5 1215.5,-131.5 1215.5,-112.5 1100.5,-112.5"/>
<text text-anchor="middle" x="1158" y="-119.5" font-family="Helvetica,sans-Serif" font-size="10.00">samElementCount.h</text>
</g>
<!-- Node1&#45;&gt;Node26 -->
<g id="edge27" class="edge"><title>Node1&#45;&gt;Node26</title>
<path fill="none" stroke="midnightblue" d="M609.277,-174.246C694.682,-168.121 903.894,-152.372 1090.29,-132.027"/>
<polygon fill="midnightblue" stroke="midnightblue" points="1090.72,-135.501 1100.28,-130.93 1089.96,-128.543 1090.72,-135.501"/>
</g>
<!-- Node3 -->
<g id="node3" class="node"><title>Node3</title>
<g id="a_node3"><a xlink:href="mesh_8h.html" target="_top" xlink:title="mesh.h">
<polygon fill="white" stroke="black" points="254.5,-56.5 254.5,-75.5 307.5,-75.5 307.5,-56.5 254.5,-56.5"/>
<text text-anchor="middle" x="281" y="-63.5" font-family="Helvetica,sans-Serif" font-size="10.00">mesh.h</text>
</a>
</g>
</g>
<!-- Node2&#45;&gt;Node3 -->
<g id="edge2" class="edge"><title>Node2&#45;&gt;Node3</title>
<path fill="none" stroke="midnightblue" d="M293.523,-112.083C291.514,-104.849 288.614,-94.4087 286.11,-85.3968"/>
<polygon fill="midnightblue" stroke="midnightblue" points="289.48,-84.4495 283.431,-75.7511 282.735,-86.323 289.48,-84.4495"/>
</g>
<!-- Node2&#45;&gt;Node14 -->
<g id="edge13" class="edge"><title>Node2&#45;&gt;Node14</title>
<path fill="none" stroke="midnightblue" d="M283.147,-112.324C270.784,-103.979 251.87,-91.2122 237.263,-81.3524"/>
<polygon fill="midnightblue" stroke="midnightblue" points="239.068,-78.3483 228.821,-75.6545 235.152,-84.1503 239.068,-78.3483"/>
</g>
<!-- Node15 -->
<g id="node15" class="node"><title>Node15</title>
<polygon fill="white" stroke="#bfbfbf" points="326,-56.5 326,-75.5 398,-75.5 398,-56.5 326,-56.5"/>
<text text-anchor="middle" x="362" y="-63.5" font-family="Helvetica,sans-Serif" font-size="10.00">apfMesh2.h</text>
</g>
<!-- Node2&#45;&gt;Node15 -->
<g id="edge14" class="edge"><title>Node2&#45;&gt;Node15</title>
<path fill="none" stroke="midnightblue" d="M306.604,-112.324C316.456,-104.263 331.351,-92.0765 343.215,-82.3695"/>
<polygon fill="midnightblue" stroke="midnightblue" points="345.68,-84.8752 351.203,-75.8339 341.247,-79.4575 345.68,-84.8752"/>
</g>
<!-- Node16 -->
<g id="node16" class="node"><title>Node16</title>
<polygon fill="white" stroke="#bfbfbf" points="416,-56.5 416,-75.5 510,-75.5 510,-56.5 416,-56.5"/>
<text text-anchor="middle" x="463" y="-63.5" font-family="Helvetica,sans-Serif" font-size="10.00">apfNumbering.h</text>
</g>
<!-- Node2&#45;&gt;Node16 -->
<g id="edge15" class="edge"><title>Node2&#45;&gt;Node16</title>
<path fill="none" stroke="midnightblue" d="M322.462,-112.444C350.678,-103.32 395.54,-88.8133 426.968,-78.6509"/>
<polygon fill="midnightblue" stroke="midnightblue" points="428.224,-81.9234 436.662,-75.5164 426.07,-75.263 428.224,-81.9234"/>
</g>
<!-- Node2&#45;&gt;Node17 -->
<g id="edge16" class="edge"><title>Node2&#45;&gt;Node17</title>
<path fill="none" stroke="midnightblue" d="M343.185,-112.431C386.337,-104.38 452.136,-91.5701 518.468,-75.9977"/>
<polygon fill="midnightblue" stroke="midnightblue" points="519.331,-79.3902 528.256,-73.6803 517.718,-72.5785 519.331,-79.3902"/>
</g>
<!-- Node4 -->
<g id="node4" class="node"><title>Node4</title>
<polygon fill="white" stroke="#bfbfbf" points="294,-0.5 294,-19.5 326,-19.5 326,-0.5 294,-0.5"/>
<text text-anchor="middle" x="310" y="-7.5" font-family="Helvetica,sans-Serif" font-size="10.00">set</text>
</g>
<!-- Node3&#45;&gt;Node4 -->
<g id="edge3" class="edge"><title>Node3&#45;&gt;Node4</title>
<path fill="none" stroke="midnightblue" d="M285.789,-56.083C289.758,-48.6913 295.525,-37.9533 300.435,-28.8111"/>
<polygon fill="midnightblue" stroke="midnightblue" points="303.653,-30.217 305.3,-19.7511 297.486,-26.9051 303.653,-30.217"/>
</g>
<!-- Node5 -->
<g id="node5" class="node"><title>Node5</title>
<polygon fill="white" stroke="#bfbfbf" points="344.5,-0.5 344.5,-19.5 391.5,-19.5 391.5,-0.5 344.5,-0.5"/>
<text text-anchor="middle" x="368" y="-7.5" font-family="Helvetica,sans-Serif" font-size="10.00">vector</text>
</g>
<!-- Node3&#45;&gt;Node5 -->
<g id="edge4" class="edge"><title>Node3&#45;&gt;Node5</title>
<path fill="none" stroke="midnightblue" d="M294.978,-56.324C308.55,-47.9002 329.38,-34.9709 345.325,-25.0741"/>
<polygon fill="midnightblue" stroke="midnightblue" points="347.406,-27.9019 354.057,-19.6545 343.714,-21.9544 347.406,-27.9019"/>
</g>
<!-- Node3&#45;&gt;Node6 -->
<g id="edge5" class="edge"><title>Node3&#45;&gt;Node6</title>
<path fill="none" stroke="midnightblue" d="M254.293,-58.1939C251.165,-57.4351 248.015,-56.6884 245,-56 171.168,-39.1407 149.914,-36.8385 72.6598,-20.3251"/>
<polygon fill="midnightblue" stroke="midnightblue" points="72.9439,-16.8062 62.4315,-18.126 71.4724,-23.6498 72.9439,-16.8062"/>
</g>
<!-- Node7 -->
<g id="node7" class="node"><title>Node7</title>
<polygon fill="white" stroke="#bfbfbf" points="410,-0.5 410,-19.5 448,-19.5 448,-0.5 410,-0.5"/>
<text text-anchor="middle" x="429" y="-7.5" font-family="Helvetica,sans-Serif" font-size="10.00">map</text>
</g>
<!-- Node3&#45;&gt;Node7 -->
<g id="edge6" class="edge"><title>Node3&#45;&gt;Node7</title>
<path fill="none" stroke="midnightblue" d="M304.451,-56.4435C330.439,-46.9613 372.361,-31.6657 400.292,-21.4745"/>
<polygon fill="midnightblue" stroke="midnightblue" points="401.7,-24.6866 409.894,-17.971 399.3,-18.1107 401.7,-24.6866"/>
</g>
<!-- Node8 -->
<g id="node8" class="node"><title>Node8</title>
<polygon fill="white" stroke="#bfbfbf" points="466,-0.5 466,-19.5 496,-19.5 496,-0.5 466,-0.5"/>
<text text-anchor="middle" x="481" y="-7.5" font-family="Helvetica,sans-Serif" font-size="10.00">list</text>
</g>
<!-- Node3&#45;&gt;Node8 -->
<g id="edge7" class="edge"><title>Node3&#45;&gt;Node8</title>
<path fill="none" stroke="midnightblue" d="M307.516,-58.3007C348.78,-47.8658 426.118,-28.2655 455.983,-19.8827"/>
<polygon fill="midnightblue" stroke="midnightblue" points="457.254,-23.1566 465.851,-16.9643 455.269,-16.444 457.254,-23.1566"/>
</g>
<!-- Node3&#45;&gt;Node9 -->
<g id="edge8" class="edge"><title>Node3&#45;&gt;Node9</title>
<path fill="none" stroke="midnightblue" d="M254.281,-56.5625C225.338,-47.4226 178.977,-32.7821 146.644,-22.5719"/>
<polygon fill="midnightblue" stroke="midnightblue" points="147.685,-19.2303 137.095,-19.5565 145.577,-25.9054 147.685,-19.2303"/>
</g>
<!-- Node10 -->
<g id="node10" class="node"><title>Node10</title>
<polygon fill="white" stroke="#bfbfbf" points="514.5,-0.5 514.5,-19.5 569.5,-19.5 569.5,-0.5 514.5,-0.5"/>
<text text-anchor="middle" x="542" y="-7.5" font-family="Helvetica,sans-Serif" font-size="10.00">iomanip</text>
</g>
<!-- Node3&#45;&gt;Node10 -->
<g id="edge9" class="edge"><title>Node3&#45;&gt;Node10</title>
<path fill="none" stroke="midnightblue" d="M307.697,-58.1497C310.827,-57.3987 313.98,-56.666 317,-56 396.994,-38.3562 420.164,-38.0565 504.164,-20.0878"/>
<polygon fill="midnightblue" stroke="midnightblue" points="505.118,-23.4624 514.154,-17.9295 503.64,-16.6202 505.118,-23.4624"/>
</g>
<!-- Node11 -->
<g id="node11" class="node"><title>Node11</title>
<polygon fill="white" stroke="#bfbfbf" points="588,-0.5 588,-19.5 642,-19.5 642,-0.5 588,-0.5"/>
<text text-anchor="middle" x="615" y="-7.5" font-family="Helvetica,sans-Serif" font-size="10.00">fstream</text>
</g>
<!-- Node3&#45;&gt;Node11 -->
<g id="edge10" class="edge"><title>Node3&#45;&gt;Node11</title>
<path fill="none" stroke="midnightblue" d="M307.665,-57.9918C310.8,-57.2692 313.964,-56.5863 317,-56 429.251,-34.323 461.825,-41.8406 577.948,-20.0103"/>
<polygon fill="midnightblue" stroke="midnightblue" points="578.779,-23.4149 587.943,-18.0983 577.464,-16.5396 578.779,-23.4149"/>
</g>
<!-- Node12 -->
<g id="node12" class="node"><title>Node12</title>
<polygon fill="white" stroke="#bfbfbf" points="158,-0.5 158,-19.5 210,-19.5 210,-0.5 158,-0.5"/>
<text text-anchor="middle" x="184" y="-7.5" font-family="Helvetica,sans-Serif" font-size="10.00">cassert</text>
</g>
<!-- Node3&#45;&gt;Node12 -->
<g id="edge11" class="edge"><title>Node3&#45;&gt;Node12</title>
<path fill="none" stroke="midnightblue" d="M265.415,-56.324C250.001,-47.7428 226.188,-34.486 208.29,-24.5224"/>
<polygon fill="midnightblue" stroke="midnightblue" points="209.986,-21.4606 199.546,-19.6545 206.581,-27.5767 209.986,-21.4606"/>
</g>
<!-- Node13 -->
<g id="node13" class="node"><title>Node13</title>
<polygon fill="white" stroke="#bfbfbf" points="228.5,-0.5 228.5,-19.5 275.5,-19.5 275.5,-0.5 228.5,-0.5"/>
<text text-anchor="middle" x="252" y="-7.5" font-family="Helvetica,sans-Serif" font-size="10.00">cmath</text>
</g>
<!-- Node3&#45;&gt;Node13 -->
<g id="edge12" class="edge"><title>Node3&#45;&gt;Node13</title>
<path fill="none" stroke="midnightblue" d="M276.211,-56.083C272.242,-48.6913 266.475,-37.9533 261.565,-28.8111"/>
<polygon fill="midnightblue" stroke="midnightblue" points="264.514,-26.9051 256.7,-19.7511 258.347,-30.217 264.514,-26.9051"/>
</g>
</g>
</svg>
