<?xml version="1.0" encoding="UTF-8" standalone="no"?>
<!DOCTYPE svg PUBLIC "-//W3C//DTD SVG 1.1//EN"
 "http://www.w3.org/Graphics/SVG/1.1/DTD/svg11.dtd">
<!-- Generated by graphviz version 2.38.0 (20140413.2041)
 -->
<!-- Title: Subroutines.cpp Pages: 1 -->
<svg width="397pt" height="84pt"
 viewBox="0.00 0.00 396.50 84.00" xmlns="http://www.w3.org/2000/svg" xmlns:xlink="http://www.w3.org/1999/xlink">
<g id="graph0" class="graph" transform="scale(1 1) rotate(0) translate(4 80)">
<title>Subroutines.cpp</title>
<polygon fill="white" stroke="none" points="-4,4 -4,-80 392.5,-80 392.5,4 -4,4"/>
<!-- Node1 -->
<g id="node1" class="node"><title>Node1</title>
<polygon fill="#bfbfbf" stroke="black" points="115,-56.5 115,-75.5 210,-75.5 210,-56.5 115,-56.5"/>
<text text-anchor="middle" x="162.5" y="-63.5" font-family="Helvetica,sans-Serif" font-size="10.00">Subroutines.cpp</text>
</g>
<!-- Node2 -->
<g id="node2" class="node"><title>Node2</title>
<polygon fill="white" stroke="#bfbfbf" points="0,-0.5 0,-19.5 51,-19.5 51,-0.5 0,-0.5"/>
<text text-anchor="middle" x="25.5" y="-7.5" font-family="Helvetica,sans-Serif" font-size="10.00">math.h</text>
</g>
<!-- Node1&#45;&gt;Node2 -->
<g id="edge1" class="edge"><title>Node1&#45;&gt;Node2</title>
<path fill="none" stroke="midnightblue" d="M140.792,-56.4435C118.145,-47.5171 82.4279,-33.4387 56.7482,-23.3168"/>
<polygon fill="midnightblue" stroke="midnightblue" points="57.6934,-19.9273 47.1065,-19.5164 55.1264,-26.4397 57.6934,-19.9273"/>
</g>
<!-- Node3 -->
<g id="node3" class="node"><title>Node3</title>
<polygon fill="white" stroke="#bfbfbf" points="69,-0.5 69,-19.5 118,-19.5 118,-0.5 69,-0.5"/>
<text text-anchor="middle" x="93.5" y="-7.5" font-family="Helvetica,sans-Serif" font-size="10.00">stdio.h</text>
</g>
<!-- Node1&#45;&gt;Node3 -->
<g id="edge2" class="edge"><title>Node1&#45;&gt;Node3</title>
<path fill="none" stroke="midnightblue" d="M151.414,-56.324C141.014,-48.1849 125.239,-35.8395 112.778,-26.0874"/>
<polygon fill="midnightblue" stroke="midnightblue" points="114.82,-23.2407 104.788,-19.8339 110.506,-28.7533 114.82,-23.2407"/>
</g>
<!-- Node4 -->
<g id="node4" class="node"><title>Node4</title>
<polygon fill="white" stroke="#bfbfbf" points="136,-0.5 136,-19.5 189,-19.5 189,-0.5 136,-0.5"/>
<text text-anchor="middle" x="162.5" y="-7.5" font-family="Helvetica,sans-Serif" font-size="10.00">string.h</text>
</g>
<!-- Node1&#45;&gt;Node4 -->
<g id="edge3" class="edge"><title>Node1&#45;&gt;Node4</title>
<path fill="none" stroke="midnightblue" d="M162.5,-56.083C162.5,-49.0059 162.5,-38.8611 162.5,-29.9865"/>
<polygon fill="midnightblue" stroke="midnightblue" points="166,-29.751 162.5,-19.7511 159,-29.7511 166,-29.751"/>
</g>
<!-- Node5 -->
<g id="node5" class="node"><title>Node5</title>
<polygon fill="white" stroke="#bfbfbf" points="206.5,-0.5 206.5,-19.5 304.5,-19.5 304.5,-0.5 206.5,-0.5"/>
<text text-anchor="middle" x="255.5" y="-7.5" font-family="Helvetica,sans-Serif" font-size="10.00">ncurses/curses.h</text>
</g>
<!-- Node1&#45;&gt;Node5 -->
<g id="edge4" class="edge"><title>Node1&#45;&gt;Node5</title>
<path fill="none" stroke="midnightblue" d="M177.442,-56.324C192.085,-47.8215 214.634,-34.7288 231.738,-24.7975"/>
<polygon fill="midnightblue" stroke="midnightblue" points="233.705,-27.7027 240.595,-19.6545 230.19,-21.6491 233.705,-27.7027"/>
</g>
<!-- Node6 -->
<g id="node6" class="node"><title>Node6</title>
<g id="a_node6"><a xlink:href="_headers_8h.html" target="_top" xlink:title="Headers.h">
<polygon fill="white" stroke="black" points="322.5,-0.5 322.5,-19.5 388.5,-19.5 388.5,-0.5 322.5,-0.5"/>
<text text-anchor="middle" x="355.5" y="-7.5" font-family="Helvetica,sans-Serif" font-size="10.00">Headers.h</text>
</a>
</g>
</g>
<!-- Node1&#45;&gt;Node6 -->
<g id="edge5" class="edge"><title>Node1&#45;&gt;Node6</title>
<path fill="none" stroke="midnightblue" d="M193.081,-56.4435C226.115,-47.2011 278.888,-32.4356 315.266,-22.2572"/>
<polygon fill="midnightblue" stroke="midnightblue" points="316.375,-25.5815 325.062,-19.5164 314.488,-18.8404 316.375,-25.5815"/>
</g>
</g>
</svg>
