<?xml version="1.0" encoding="UTF-8" standalone="no"?>
<!DOCTYPE svg PUBLIC "-//W3C//DTD SVG 1.1//EN"
 "http://www.w3.org/Graphics/SVG/1.1/DTD/svg11.dtd">
<!-- Generated by graphviz version 2.38.0 (20140413.2041)
 -->
<!-- Title: analyticalSolutions.c Pages: 1 -->
<svg width="195pt" height="140pt"
 viewBox="0.00 0.00 195.00 140.00" xmlns="http://www.w3.org/2000/svg" xmlns:xlink="http://www.w3.org/1999/xlink">
<g id="graph0" class="graph" transform="scale(1 1) rotate(0) translate(4 136)">
<title>analyticalSolutions.c</title>
<polygon fill="white" stroke="none" points="-4,4 -4,-136 191,-136 191,4 -4,4"/>
<!-- Node1 -->
<g id="node1" class="node"><title>Node1</title>
<polygon fill="#bfbfbf" stroke="black" points="36.5,-112.5 36.5,-131.5 150.5,-131.5 150.5,-112.5 36.5,-112.5"/>
<text text-anchor="middle" x="93.5" y="-119.5" font-family="Helvetica,sans-Serif" font-size="10.00">analyticalSolutions.c</text>
</g>
<!-- Node2 -->
<g id="node2" class="node"><title>Node2</title>
<g id="a_node2"><a xlink:href="analytical_solutions_8h.html" target="_top" xlink:title="analyticalSolutions.h">
<polygon fill="white" stroke="black" points="36,-56.5 36,-75.5 151,-75.5 151,-56.5 36,-56.5"/>
<text text-anchor="middle" x="93.5" y="-63.5" font-family="Helvetica,sans-Serif" font-size="10.00">analyticalSolutions.h</text>
</a>
</g>
</g>
<!-- Node1&#45;&gt;Node2 -->
<g id="edge1" class="edge"><title>Node1&#45;&gt;Node2</title>
<path fill="none" stroke="midnightblue" d="M93.5,-112.083C93.5,-105.006 93.5,-94.8611 93.5,-85.9865"/>
<polygon fill="midnightblue" stroke="midnightblue" points="97.0001,-85.751 93.5,-75.7511 90.0001,-85.7511 97.0001,-85.751"/>
</g>
<!-- Node3 -->
<g id="node3" class="node"><title>Node3</title>
<polygon fill="white" stroke="#bfbfbf" points="0,-0.5 0,-19.5 51,-19.5 51,-0.5 0,-0.5"/>
<text text-anchor="middle" x="25.5" y="-7.5" font-family="Helvetica,sans-Serif" font-size="10.00">math.h</text>
</g>
<!-- Node2&#45;&gt;Node3 -->
<g id="edge2" class="edge"><title>Node2&#45;&gt;Node3</title>
<path fill="none" stroke="midnightblue" d="M82.5746,-56.324C72.3254,-48.1849 56.7794,-35.8395 44.499,-26.0874"/>
<polygon fill="midnightblue" stroke="midnightblue" points="46.6319,-23.3119 36.6242,-19.8339 42.2787,-28.7937 46.6319,-23.3119"/>
</g>
<!-- Node4 -->
<g id="node4" class="node"><title>Node4</title>
<polygon fill="white" stroke="#bfbfbf" points="69,-0.5 69,-19.5 118,-19.5 118,-0.5 69,-0.5"/>
<text text-anchor="middle" x="93.5" y="-7.5" font-family="Helvetica,sans-Serif" font-size="10.00">stdio.h</text>
</g>
<!-- Node2&#45;&gt;Node4 -->
<g id="edge3" class="edge"><title>Node2&#45;&gt;Node4</title>
<path fill="none" stroke="midnightblue" d="M93.5,-56.083C93.5,-49.0059 93.5,-38.8611 93.5,-29.9865"/>
<polygon fill="midnightblue" stroke="midnightblue" points="97.0001,-29.751 93.5,-19.7511 90.0001,-29.7511 97.0001,-29.751"/>
</g>
<!-- Node5 -->
<g id="node5" class="node"><title>Node5</title>
<polygon fill="white" stroke="#bfbfbf" points="136,-0.5 136,-19.5 187,-19.5 187,-0.5 136,-0.5"/>
<text text-anchor="middle" x="161.5" y="-7.5" font-family="Helvetica,sans-Serif" font-size="10.00">stdlib.h</text>
</g>
<!-- Node2&#45;&gt;Node5 -->
<g id="edge4" class="edge"><title>Node2&#45;&gt;Node5</title>
<path fill="none" stroke="midnightblue" d="M104.425,-56.324C114.675,-48.1849 130.221,-35.8395 142.501,-26.0874"/>
<polygon fill="midnightblue" stroke="midnightblue" points="144.721,-28.7937 150.376,-19.8339 140.368,-23.3119 144.721,-28.7937"/>
</g>
</g>
</svg>
