<?xml version="1.0" encoding="UTF-8" standalone="no"?>
<!DOCTYPE svg PUBLIC "-//W3C//DTD SVG 1.1//EN"
 "http://www.w3.org/Graphics/SVG/1.1/DTD/svg11.dtd">
<!-- Generated by graphviz version 2.38.0 (20140413.2041)
 -->
<!-- Title: cMeshAdaptPUMI.cpp Pages: 1 -->
<svg width="1216pt" height="196pt"
 viewBox="0.00 0.00 1215.50 196.00" xmlns="http://www.w3.org/2000/svg" xmlns:xlink="http://www.w3.org/1999/xlink">
<g id="graph0" class="graph" transform="scale(1 1) rotate(0) translate(4 192)">
<title>cMeshAdaptPUMI.cpp</title>
<polygon fill="white" stroke="none" points="-4,4 -4,-192 1211.5,-192 1211.5,4 -4,4"/>
<!-- Node1 -->
<g id="node1" class="node"><title>Node1</title>
<polygon fill="#bfbfbf" stroke="black" points="485,-168.5 485,-187.5 605,-187.5 605,-168.5 485,-168.5"/>
<text text-anchor="middle" x="545" y="-175.5" font-family="Helvetica,sans-Serif" font-size="10.00">cMeshAdaptPUMI.cpp</text>
</g>
<!-- Node2 -->
<g id="node2" class="node"><title>Node2</title>
<polygon fill="white" stroke="#bfbfbf" points="0,-112.5 0,-131.5 44,-131.5 44,-112.5 0,-112.5"/>
<text text-anchor="middle" x="22" y="-119.5" font-family="Helvetica,sans-Serif" font-size="10.00">gmi.h</text>
</g>
<!-- Node1&#45;&gt;Node2 -->
<g id="edge1" class="edge"><title>Node1&#45;&gt;Node2</title>
<path fill="none" stroke="midnightblue" d="M484.656,-175.194C393.275,-171.644 214.342,-161.511 54.2569,-131.892"/>
<polygon fill="midnightblue" stroke="midnightblue" points="54.7022,-128.414 44.2275,-130.005 53.4083,-135.293 54.7022,-128.414"/>
</g>
<!-- Node3 -->
<g id="node3" class="node"><title>Node3</title>
<polygon fill="white" stroke="#bfbfbf" points="62,-112.5 62,-131.5 138,-131.5 138,-112.5 62,-112.5"/>
<text text-anchor="middle" x="100" y="-119.5" font-family="Helvetica,sans-Serif" font-size="10.00">gmi_mesh.h</text>
</g>
<!-- Node1&#45;&gt;Node3 -->
<g id="edge2" class="edge"><title>Node1&#45;&gt;Node3</title>
<path fill="none" stroke="midnightblue" d="M484.801,-171.642C408.748,-164.551 273.638,-150.881 148.335,-132.101"/>
<polygon fill="midnightblue" stroke="midnightblue" points="148.589,-128.6 138.177,-130.564 147.541,-135.521 148.589,-128.6"/>
</g>
<!-- Node4 -->
<g id="node4" class="node"><title>Node4</title>
<polygon fill="white" stroke="#bfbfbf" points="156.5,-112.5 156.5,-131.5 221.5,-131.5 221.5,-112.5 156.5,-112.5"/>
<text text-anchor="middle" x="189" y="-119.5" font-family="Helvetica,sans-Serif" font-size="10.00">gmi_null.h</text>
</g>
<!-- Node1&#45;&gt;Node4 -->
<g id="edge3" class="edge"><title>Node1&#45;&gt;Node4</title>
<path fill="none" stroke="midnightblue" d="M484.986,-169.772C423.62,-162.079 325.338,-148.92 231.567,-132.182"/>
<polygon fill="midnightblue" stroke="midnightblue" points="232.092,-128.72 221.63,-130.391 230.851,-135.609 232.092,-128.72"/>
</g>
<!-- Node5 -->
<g id="node5" class="node"><title>Node5</title>
<polygon fill="white" stroke="#bfbfbf" points="239.5,-112.5 239.5,-131.5 280.5,-131.5 280.5,-112.5 239.5,-112.5"/>
<text text-anchor="middle" x="260" y="-119.5" font-family="Helvetica,sans-Serif" font-size="10.00">ma.h</text>
</g>
<!-- Node1&#45;&gt;Node5 -->
<g id="edge4" class="edge"><title>Node1&#45;&gt;Node5</title>
<path fill="none" stroke="midnightblue" d="M485.343,-168.49C435.638,-160.941 362.848,-148.827 290.334,-131.834"/>
<polygon fill="midnightblue" stroke="midnightblue" points="291.109,-128.421 280.571,-129.516 289.492,-135.232 291.109,-128.421"/>
</g>
<!-- Node6 -->
<g id="node6" class="node"><title>Node6</title>
<polygon fill="white" stroke="#bfbfbf" points="299,-112.5 299,-131.5 371,-131.5 371,-112.5 299,-112.5"/>
<text text-anchor="middle" x="335" y="-119.5" font-family="Helvetica,sans-Serif" font-size="10.00">maShape.h</text>
</g>
<!-- Node1&#45;&gt;Node6 -->
<g id="edge5" class="edge"><title>Node1&#45;&gt;Node6</title>
<path fill="none" stroke="midnightblue" d="M511.725,-168.444C475.552,-159.142 417.623,-144.246 378.019,-134.062"/>
<polygon fill="midnightblue" stroke="midnightblue" points="378.676,-130.617 368.119,-131.516 376.933,-137.397 378.676,-130.617"/>
</g>
<!-- Node7 -->
<g id="node7" class="node"><title>Node7</title>
<polygon fill="white" stroke="#bfbfbf" points="389.5,-112.5 389.5,-131.5 452.5,-131.5 452.5,-112.5 389.5,-112.5"/>
<text text-anchor="middle" x="421" y="-119.5" font-family="Helvetica,sans-Serif" font-size="10.00">apfMDS.h</text>
</g>
<!-- Node1&#45;&gt;Node7 -->
<g id="edge6" class="edge"><title>Node1&#45;&gt;Node7</title>
<path fill="none" stroke="midnightblue" d="M525.352,-168.444C505.035,-159.596 473.097,-145.687 449.902,-135.586"/>
<polygon fill="midnightblue" stroke="midnightblue" points="451.122,-132.3 440.556,-131.516 448.327,-138.718 451.122,-132.3"/>
</g>
<!-- Node8 -->
<g id="node8" class="node"><title>Node8</title>
<polygon fill="white" stroke="#bfbfbf" points="471,-112.5 471,-131.5 517,-131.5 517,-112.5 471,-112.5"/>
<text text-anchor="middle" x="494" y="-119.5" font-family="Helvetica,sans-Serif" font-size="10.00">PCU.h</text>
</g>
<!-- Node1&#45;&gt;Node8 -->
<g id="edge7" class="edge"><title>Node1&#45;&gt;Node8</title>
<path fill="none" stroke="midnightblue" d="M536.578,-168.083C529.152,-160.22 518.148,-148.569 509.188,-139.081"/>
<polygon fill="midnightblue" stroke="midnightblue" points="511.676,-136.618 502.265,-131.751 506.587,-141.424 511.676,-136.618"/>
</g>
<!-- Node9 -->
<g id="node9" class="node"><title>Node9</title>
<polygon fill="white" stroke="#bfbfbf" points="611,-56.5 611,-75.5 651,-75.5 651,-56.5 611,-56.5"/>
<text text-anchor="middle" x="631" y="-63.5" font-family="Helvetica,sans-Serif" font-size="10.00">apf.h</text>
</g>
<!-- Node1&#45;&gt;Node9 -->
<g id="edge8" class="edge"><title>Node1&#45;&gt;Node9</title>
<path fill="none" stroke="midnightblue" d="M557.313,-168.449C568.658,-160.118 585.439,-146.602 597,-132 608.465,-117.519 617.852,-98.5839 623.836,-84.889"/>
<polygon fill="midnightblue" stroke="midnightblue" points="627.092,-86.1743 627.726,-75.5985 620.635,-83.4705 627.092,-86.1743"/>
</g>
<!-- Node10 -->
<g id="node10" class="node"><title>Node10</title>
<polygon fill="white" stroke="#bfbfbf" points="555.5,-0.5 555.5,-19.5 614.5,-19.5 614.5,-0.5 555.5,-0.5"/>
<text text-anchor="middle" x="585" y="-7.5" font-family="Helvetica,sans-Serif" font-size="10.00">iostream</text>
</g>
<!-- Node1&#45;&gt;Node10 -->
<g id="edge9" class="edge"><title>Node1&#45;&gt;Node10</title>
<path fill="none" stroke="midnightblue" d="M546.265,-168.391C549.294,-148.426 557.572,-97.5018 569,-56 571.48,-46.9954 574.875,-37.2028 577.9,-29.059"/>
<polygon fill="midnightblue" stroke="midnightblue" points="581.25,-30.0983 581.555,-19.5078 574.712,-27.5963 581.25,-30.0983"/>
</g>
<!-- Node11 -->
<g id="node11" class="node"><title>Node11</title>
<polygon fill="white" stroke="#bfbfbf" points="640,-0.5 640,-19.5 694,-19.5 694,-0.5 640,-0.5"/>
<text text-anchor="middle" x="667" y="-7.5" font-family="Helvetica,sans-Serif" font-size="10.00">fstream</text>
</g>
<!-- Node1&#45;&gt;Node11 -->
<g id="edge10" class="edge"><title>Node1&#45;&gt;Node11</title>
<path fill="none" stroke="midnightblue" d="M549.543,-168.439C554.282,-159.435 561.861,-144.82 568,-132 583.981,-98.6252 578.361,-84.4693 602,-56 612.583,-43.2542 627.636,-32.5237 640.592,-24.7416"/>
<polygon fill="midnightblue" stroke="midnightblue" points="642.62,-27.6139 649.561,-19.6095 639.143,-21.5382 642.62,-27.6139"/>
</g>
<!-- Node12 -->
<g id="node12" class="node"><title>Node12</title>
<polygon fill="white" stroke="#bfbfbf" points="771.5,-112.5 771.5,-131.5 820.5,-131.5 820.5,-112.5 771.5,-112.5"/>
<text text-anchor="middle" x="796" y="-119.5" font-family="Helvetica,sans-Serif" font-size="10.00">stdio.h</text>
</g>
<!-- Node1&#45;&gt;Node12 -->
<g id="edge11" class="edge"><title>Node1&#45;&gt;Node12</title>
<path fill="none" stroke="midnightblue" d="M589.625,-168.482C631.457,-160.332 695.963,-147.345 761.12,-132.107"/>
<polygon fill="midnightblue" stroke="midnightblue" points="762.226,-135.442 771.157,-129.743 760.621,-128.629 762.226,-135.442"/>
</g>
<!-- Node13 -->
<g id="node13" class="node"><title>Node13</title>
<polygon fill="white" stroke="#bfbfbf" points="838.5,-112.5 838.5,-131.5 891.5,-131.5 891.5,-112.5 838.5,-112.5"/>
<text text-anchor="middle" x="865" y="-119.5" font-family="Helvetica,sans-Serif" font-size="10.00">string.h</text>
</g>
<!-- Node1&#45;&gt;Node13 -->
<g id="edge12" class="edge"><title>Node1&#45;&gt;Node13</title>
<path fill="none" stroke="midnightblue" d="M605.073,-169.207C660.697,-161.608 745.891,-149.002 828.277,-132.211"/>
<polygon fill="midnightblue" stroke="midnightblue" points="829.221,-135.59 838.308,-130.142 827.807,-128.734 829.221,-135.59"/>
</g>
<!-- Node14 -->
<g id="node14" class="node"><title>Node14</title>
<g id="a_node14"><a xlink:href="_mesh_adapt_p_u_m_i_8h.html" target="_top" xlink:title="MeshAdaptPUMI.h">
<polygon fill="white" stroke="black" points="649,-112.5 649,-131.5 753,-131.5 753,-112.5 649,-112.5"/>
<text text-anchor="middle" x="701" y="-119.5" font-family="Helvetica,sans-Serif" font-size="10.00">MeshAdaptPUMI.h</text>
</a>
</g>
</g>
<!-- Node1&#45;&gt;Node14 -->
<g id="edge13" class="edge"><title>Node1&#45;&gt;Node14</title>
<path fill="none" stroke="midnightblue" d="M569.719,-168.444C595.848,-159.399 637.259,-145.064 666.576,-134.916"/>
<polygon fill="midnightblue" stroke="midnightblue" points="668.092,-138.095 676.397,-131.516 665.802,-131.48 668.092,-138.095"/>
</g>
<!-- Node27 -->
<g id="node27" class="node"><title>Node27</title>
<polygon fill="white" stroke="#bfbfbf" points="909.5,-112.5 909.5,-131.5 956.5,-131.5 956.5,-112.5 909.5,-112.5"/>
<text text-anchor="middle" x="933" y="-119.5" font-family="Helvetica,sans-Serif" font-size="10.00">sam.h</text>
</g>
<!-- Node1&#45;&gt;Node27 -->
<g id="edge29" class="edge"><title>Node1&#45;&gt;Node27</title>
<path fill="none" stroke="midnightblue" d="M605.282,-172.13C674.288,-165.941 790.799,-153.625 899.203,-132.121"/>
<polygon fill="midnightblue" stroke="midnightblue" points="900.219,-135.486 909.33,-130.08 898.836,-128.624 900.219,-135.486"/>
</g>
<!-- Node28 -->
<g id="node28" class="node"><title>Node28</title>
<polygon fill="white" stroke="#bfbfbf" points="974.5,-112.5 974.5,-131.5 1033.5,-131.5 1033.5,-112.5 974.5,-112.5"/>
<text text-anchor="middle" x="1004" y="-119.5" font-family="Helvetica,sans-Serif" font-size="10.00">samSz.h</text>
</g>
<!-- Node1&#45;&gt;Node28 -->
<g id="edge30" class="edge"><title>Node1&#45;&gt;Node28</title>
<path fill="none" stroke="midnightblue" d="M605.285,-172.957C685.311,-167.059 831.143,-154.461 964.235,-132.127"/>
<polygon fill="midnightblue" stroke="midnightblue" points="964.931,-135.559 974.202,-130.432 963.757,-128.659 964.931,-135.559"/>
</g>
<!-- Node14&#45;&gt;Node9 -->
<g id="edge25" class="edge"><title>Node14&#45;&gt;Node9</title>
<path fill="none" stroke="midnightblue" d="M689.753,-112.324C679.203,-104.185 663.199,-91.8395 650.558,-82.0874"/>
<polygon fill="midnightblue" stroke="midnightblue" points="652.507,-79.1707 642.451,-75.8339 648.231,-84.7132 652.507,-79.1707"/>
</g>
<!-- Node15 -->
<g id="node15" class="node"><title>Node15</title>
<g id="a_node15"><a xlink:href="mesh_8h.html" target="_top" xlink:title="mesh.h">
<polygon fill="white" stroke="black" points="936.5,-56.5 936.5,-75.5 989.5,-75.5 989.5,-56.5 936.5,-56.5"/>
<text text-anchor="middle" x="963" y="-63.5" font-family="Helvetica,sans-Serif" font-size="10.00">mesh.h</text>
</a>
</g>
</g>
<!-- Node14&#45;&gt;Node15 -->
<g id="edge14" class="edge"><title>Node14&#45;&gt;Node15</title>
<path fill="none" stroke="midnightblue" d="M748.116,-112.456C791.983,-104.323 859.413,-91.3678 926.406,-76.2757"/>
<polygon fill="midnightblue" stroke="midnightblue" points="927.307,-79.6604 936.284,-74.0339 925.758,-72.834 927.307,-79.6604"/>
</g>
<!-- Node24 -->
<g id="node24" class="node"><title>Node24</title>
<polygon fill="white" stroke="#bfbfbf" points="669,-56.5 669,-75.5 741,-75.5 741,-56.5 669,-56.5"/>
<text text-anchor="middle" x="705" y="-63.5" font-family="Helvetica,sans-Serif" font-size="10.00">apfMesh2.h</text>
</g>
<!-- Node14&#45;&gt;Node24 -->
<g id="edge26" class="edge"><title>Node14&#45;&gt;Node24</title>
<path fill="none" stroke="midnightblue" d="M701.661,-112.083C702.185,-105.006 702.936,-94.8611 703.594,-85.9865"/>
<polygon fill="midnightblue" stroke="midnightblue" points="707.103,-85.9823 704.352,-75.7511 700.123,-85.4652 707.103,-85.9823"/>
</g>
<!-- Node25 -->
<g id="node25" class="node"><title>Node25</title>
<polygon fill="white" stroke="#bfbfbf" points="759,-56.5 759,-75.5 853,-75.5 853,-56.5 759,-56.5"/>
<text text-anchor="middle" x="806" y="-63.5" font-family="Helvetica,sans-Serif" font-size="10.00">apfNumbering.h</text>
</g>
<!-- Node14&#45;&gt;Node25 -->
<g id="edge27" class="edge"><title>Node14&#45;&gt;Node25</title>
<path fill="none" stroke="midnightblue" d="M717.87,-112.324C734.709,-103.664 760.807,-90.2424 780.238,-80.249"/>
<polygon fill="midnightblue" stroke="midnightblue" points="781.88,-83.3405 789.172,-75.6545 778.678,-77.1155 781.88,-83.3405"/>
</g>
<!-- Node26 -->
<g id="node26" class="node"><title>Node26</title>
<polygon fill="white" stroke="#bfbfbf" points="871.5,-56.5 871.5,-75.5 918.5,-75.5 918.5,-56.5 871.5,-56.5"/>
<text text-anchor="middle" x="895" y="-63.5" font-family="Helvetica,sans-Serif" font-size="10.00">queue</text>
</g>
<!-- Node14&#45;&gt;Node26 -->
<g id="edge28" class="edge"><title>Node14&#45;&gt;Node26</title>
<path fill="none" stroke="midnightblue" d="M731.74,-112.444C767.19,-102.576 825.258,-86.4126 861.741,-76.2577"/>
<polygon fill="midnightblue" stroke="midnightblue" points="862.726,-79.6165 871.422,-73.5631 860.849,-72.8729 862.726,-79.6165"/>
</g>
<!-- Node15&#45;&gt;Node10 -->
<g id="edge20" class="edge"><title>Node15&#45;&gt;Node10</title>
<path fill="none" stroke="midnightblue" d="M936.328,-57.7574C933.527,-57.1121 930.713,-56.5109 928,-56 797.331,-31.3902 762.332,-40.7792 631,-20 628.928,-19.6721 626.806,-19.319 624.667,-18.9491"/>
<polygon fill="midnightblue" stroke="midnightblue" points="625.102,-15.471 614.638,-17.1268 623.851,-22.3582 625.102,-15.471"/>
</g>
<!-- Node15&#45;&gt;Node11 -->
<g id="edge22" class="edge"><title>Node15&#45;&gt;Node11</title>
<path fill="none" stroke="midnightblue" d="M936.305,-57.8712C933.509,-57.2037 930.702,-56.5662 928,-56 830.599,-35.5873 804.7,-38.9311 707,-20 706.083,-19.8223 705.155,-19.6391 704.219,-19.4516"/>
<polygon fill="midnightblue" stroke="midnightblue" points="704.571,-15.9492 694.065,-17.3199 703.132,-22.7999 704.571,-15.9492"/>
</g>
<!-- Node16 -->
<g id="node16" class="node"><title>Node16</title>
<polygon fill="white" stroke="#bfbfbf" points="852,-0.5 852,-19.5 884,-19.5 884,-0.5 852,-0.5"/>
<text text-anchor="middle" x="868" y="-7.5" font-family="Helvetica,sans-Serif" font-size="10.00">set</text>
</g>
<!-- Node15&#45;&gt;Node16 -->
<g id="edge15" class="edge"><title>Node15&#45;&gt;Node16</title>
<path fill="none" stroke="midnightblue" d="M947.737,-56.324C932.779,-47.8215 909.745,-34.7288 892.273,-24.7975"/>
<polygon fill="midnightblue" stroke="midnightblue" points="893.649,-21.5534 883.226,-19.6545 890.19,-27.639 893.649,-21.5534"/>
</g>
<!-- Node17 -->
<g id="node17" class="node"><title>Node17</title>
<polygon fill="white" stroke="#bfbfbf" points="902.5,-0.5 902.5,-19.5 949.5,-19.5 949.5,-0.5 902.5,-0.5"/>
<text text-anchor="middle" x="926" y="-7.5" font-family="Helvetica,sans-Serif" font-size="10.00">vector</text>
</g>
<!-- Node15&#45;&gt;Node17 -->
<g id="edge16" class="edge"><title>Node15&#45;&gt;Node17</title>
<path fill="none" stroke="midnightblue" d="M956.89,-56.083C951.718,-48.5341 944.154,-37.4948 937.806,-28.2298"/>
<polygon fill="midnightblue" stroke="midnightblue" points="940.536,-26.0221 931.996,-19.7511 934.761,-29.9787 940.536,-26.0221"/>
</g>
<!-- Node18 -->
<g id="node18" class="node"><title>Node18</title>
<polygon fill="white" stroke="#bfbfbf" points="968,-0.5 968,-19.5 1030,-19.5 1030,-0.5 968,-0.5"/>
<text text-anchor="middle" x="999" y="-7.5" font-family="Helvetica,sans-Serif" font-size="10.00">algorithm</text>
</g>
<!-- Node15&#45;&gt;Node18 -->
<g id="edge17" class="edge"><title>Node15&#45;&gt;Node18</title>
<path fill="none" stroke="midnightblue" d="M968.945,-56.083C973.977,-48.5341 981.337,-37.4948 987.513,-28.2298"/>
<polygon fill="midnightblue" stroke="midnightblue" points="990.531,-30.0131 993.166,-19.7511 984.707,-26.1301 990.531,-30.0131"/>
</g>
<!-- Node19 -->
<g id="node19" class="node"><title>Node19</title>
<polygon fill="white" stroke="#bfbfbf" points="1048,-0.5 1048,-19.5 1086,-19.5 1086,-0.5 1048,-0.5"/>
<text text-anchor="middle" x="1067" y="-7.5" font-family="Helvetica,sans-Serif" font-size="10.00">map</text>
</g>
<!-- Node15&#45;&gt;Node19 -->
<g id="edge18" class="edge"><title>Node15&#45;&gt;Node19</title>
<path fill="none" stroke="midnightblue" d="M979.709,-56.324C996.312,-47.7034 1022,-34.3643 1041.22,-24.3855"/>
<polygon fill="midnightblue" stroke="midnightblue" points="1043.07,-27.3689 1050.33,-19.6545 1039.84,-21.1565 1043.07,-27.3689"/>
</g>
<!-- Node20 -->
<g id="node20" class="node"><title>Node20</title>
<polygon fill="white" stroke="#bfbfbf" points="1104,-0.5 1104,-19.5 1134,-19.5 1134,-0.5 1104,-0.5"/>
<text text-anchor="middle" x="1119" y="-7.5" font-family="Helvetica,sans-Serif" font-size="10.00">list</text>
</g>
<!-- Node15&#45;&gt;Node20 -->
<g id="edge19" class="edge"><title>Node15&#45;&gt;Node20</title>
<path fill="none" stroke="midnightblue" d="M988.879,-56.4345C1013.68,-48.1715 1052.37,-35.1335 1094.24,-20.2018"/>
<polygon fill="midnightblue" stroke="midnightblue" points="1095.55,-23.4485 1103.79,-16.7827 1093.2,-16.8581 1095.55,-23.4485"/>
</g>
<!-- Node21 -->
<g id="node21" class="node"><title>Node21</title>
<polygon fill="white" stroke="#bfbfbf" points="1152.5,-0.5 1152.5,-19.5 1207.5,-19.5 1207.5,-0.5 1152.5,-0.5"/>
<text text-anchor="middle" x="1180" y="-7.5" font-family="Helvetica,sans-Serif" font-size="10.00">iomanip</text>
</g>
<!-- Node15&#45;&gt;Node21 -->
<g id="edge21" class="edge"><title>Node15&#45;&gt;Node21</title>
<path fill="none" stroke="midnightblue" d="M989.608,-58.3785C1027.96,-48.8358 1098.93,-31.1735 1142.56,-20.3179"/>
<polygon fill="midnightblue" stroke="midnightblue" points="1143.63,-23.6573 1152.49,-17.846 1141.94,-16.8645 1143.63,-23.6573"/>
</g>
<!-- Node22 -->
<g id="node22" class="node"><title>Node22</title>
<polygon fill="white" stroke="#bfbfbf" points="716,-0.5 716,-19.5 768,-19.5 768,-0.5 716,-0.5"/>
<text text-anchor="middle" x="742" y="-7.5" font-family="Helvetica,sans-Serif" font-size="10.00">cassert</text>
</g>
<!-- Node15&#45;&gt;Node22 -->
<g id="edge23" class="edge"><title>Node15&#45;&gt;Node22</title>
<path fill="none" stroke="midnightblue" d="M936.258,-58.0762C933.471,-57.3688 930.679,-56.6659 928,-56 864.454,-40.2053 846.207,-36.6241 778.265,-20.0436"/>
<polygon fill="midnightblue" stroke="midnightblue" points="778.884,-16.5919 768.339,-17.6152 777.221,-23.3914 778.884,-16.5919"/>
</g>
<!-- Node23 -->
<g id="node23" class="node"><title>Node23</title>
<polygon fill="white" stroke="#bfbfbf" points="786.5,-0.5 786.5,-19.5 833.5,-19.5 833.5,-0.5 786.5,-0.5"/>
<text text-anchor="middle" x="810" y="-7.5" font-family="Helvetica,sans-Serif" font-size="10.00">cmath</text>
</g>
<!-- Node15&#45;&gt;Node23 -->
<g id="edge24" class="edge"><title>Node15&#45;&gt;Node23</title>
<path fill="none" stroke="midnightblue" d="M938.757,-56.4435C912.979,-47.3454 872.036,-32.8952 843.255,-22.7372"/>
<polygon fill="midnightblue" stroke="midnightblue" points="844.222,-19.3668 833.627,-19.339 841.892,-25.9677 844.222,-19.3668"/>
</g>
</g>
</svg>
