<?xml version="1.0" encoding="UTF-8" standalone="no"?>
<!DOCTYPE svg PUBLIC "-//W3C//DTD SVG 1.1//EN"
 "http://www.w3.org/Graphics/SVG/1.1/DTD/svg11.dtd">
<!-- Generated by graphviz version 2.38.0 (20140413.2041)
 -->
<!-- Title: cppMultiSegmentedCable Pages: 1 -->
<svg width="590pt" height="514pt"
 viewBox="0.00 0.00 590.00 513.72" xmlns="http://www.w3.org/2000/svg" xmlns:xlink="http://www.w3.org/1999/xlink">
<g id="graph0" class="graph" transform="scale(1 1) rotate(0) translate(4 509.716)">
<title>cppMultiSegmentedCable</title>
<polygon fill="white" stroke="none" points="-4,4 -4,-509.716 586,-509.716 586,4 -4,4"/>
<!-- Node1 -->
<g id="node1" class="node"><title>Node1</title>
<polygon fill="#bfbfbf" stroke="black" points="442,-240.216 442,-259.216 582,-259.216 582,-240.216 442,-240.216"/>
<text text-anchor="middle" x="512" y="-247.216" font-family="Helvetica,sans-Serif" font-size="10.00">cppMultiSegmentedCable</text>
</g>
<!-- Node2 -->
<g id="node2" class="node"><title>Node2</title>
<polygon fill="white" stroke="#bfbfbf" points="144,-474.716 144,-504.716 311,-504.716 311,-474.716 144,-474.716"/>
<text text-anchor="start" x="152" y="-492.716" font-family="Helvetica,sans-Serif" font-size="10.00">std::vector&lt; std::shared</text>
<text text-anchor="middle" x="227.5" y="-481.716" font-family="Helvetica,sans-Serif" font-size="10.00">_ptr&lt; ChVector&lt; double &gt; &gt; &gt;</text>
</g>
<!-- Node2&#45;&gt;Node1 -->
<g id="edge1" class="edge"><title>Node2&#45;&gt;Node1</title>
<path fill="none" stroke="#9a32cd" stroke-dasharray="5,2" d="M321.805,-486.758C357.047,-481.431 395.48,-470.049 424,-446.716 486.215,-395.814 505.293,-291.46 509.808,-259.339"/>
<polygon fill="#9a32cd" stroke="#9a32cd" points="320.91,-483.347 311.474,-488.164 321.855,-490.283 320.91,-483.347"/>
<text text-anchor="middle" x="378.5" y="-497.716" font-family="Helvetica,sans-Serif" font-size="10.00"> forces_drag</text>
<text text-anchor="middle" x="378.5" y="-486.716" font-family="Helvetica,sans-Serif" font-size="10.00">forces_addedmass</text>
</g>
<!-- Node3 -->
<g id="node3" class="node"><title>Node3</title>
<polygon fill="white" stroke="#bfbfbf" points="161,-425.716 161,-455.716 294,-455.716 294,-425.716 161,-425.716"/>
<text text-anchor="start" x="169" y="-443.716" font-family="Helvetica,sans-Serif" font-size="10.00">std::vector&lt; std::shared</text>
<text text-anchor="middle" x="227.5" y="-432.716" font-family="Helvetica,sans-Serif" font-size="10.00">_ptr&lt; cppCable &gt; &gt;</text>
</g>
<!-- Node3&#45;&gt;Node1 -->
<g id="edge2" class="edge"><title>Node3&#45;&gt;Node1</title>
<path fill="none" stroke="#9a32cd" stroke-dasharray="5,2" d="M304.371,-437.274C343.238,-432.238 389.507,-420.855 424,-395.716 473.597,-359.567 500.033,-285.777 508.202,-259.377"/>
<polygon fill="#9a32cd" stroke="#9a32cd" points="303.665,-433.833 294.142,-438.477 304.483,-440.785 303.665,-433.833"/>
<text text-anchor="middle" x="378.5" y="-434.716" font-family="Helvetica,sans-Serif" font-size="10.00"> cables</text>
</g>
<!-- Node4 -->
<g id="node4" class="node"><title>Node4</title>
<polygon fill="white" stroke="#bfbfbf" points="149.5,-376.716 149.5,-406.716 305.5,-406.716 305.5,-376.716 149.5,-376.716"/>
<text text-anchor="start" x="157.5" y="-394.716" font-family="Helvetica,sans-Serif" font-size="10.00">std::vector&lt; std::shared</text>
<text text-anchor="middle" x="227.5" y="-383.716" font-family="Helvetica,sans-Serif" font-size="10.00">_ptr&lt; ChNodeFEAxyzDD &gt; &gt;</text>
</g>
<!-- Node4&#45;&gt;Node1 -->
<g id="edge3" class="edge"><title>Node4&#45;&gt;Node1</title>
<path fill="none" stroke="#9a32cd" stroke-dasharray="5,2" d="M316.262,-384.396C351.604,-378.486 391.585,-367.847 424,-348.716 462.819,-325.806 493.413,-279.53 505.453,-259.417"/>
<polygon fill="#9a32cd" stroke="#9a32cd" points="315.281,-381.007 305.943,-386.011 316.364,-387.922 315.281,-381.007"/>
<text text-anchor="middle" x="378.5" y="-383.716" font-family="Helvetica,sans-Serif" font-size="10.00"> nodesDD</text>
</g>
<!-- Node5 -->
<g id="node5" class="node"><title>Node5</title>
<polygon fill="white" stroke="#bfbfbf" points="140.5,-327.716 140.5,-357.716 314.5,-357.716 314.5,-327.716 140.5,-327.716"/>
<text text-anchor="start" x="148.5" y="-345.716" font-family="Helvetica,sans-Serif" font-size="10.00">std::vector&lt; std::shared</text>
<text text-anchor="middle" x="227.5" y="-334.716" font-family="Helvetica,sans-Serif" font-size="10.00">_ptr&lt; ChElementBeamEuler &gt; &gt;</text>
</g>
<!-- Node5&#45;&gt;Node1 -->
<g id="edge4" class="edge"><title>Node5&#45;&gt;Node1</title>
<path fill="none" stroke="#9a32cd" stroke-dasharray="5,2" d="M324.842,-334.93C357.191,-330.116 392.927,-322.325 424,-309.716 454.432,-297.367 484.842,-272.953 500.382,-259.383"/>
<polygon fill="#9a32cd" stroke="#9a32cd" points="324.333,-331.467 314.92,-336.331 325.311,-338.399 324.333,-331.467"/>
<text text-anchor="middle" x="378.5" y="-336.716" font-family="Helvetica,sans-Serif" font-size="10.00"> elemsBeamEuler</text>
</g>
<!-- Node6 -->
<g id="node6" class="node"><title>Node6</title>
<polygon fill="white" stroke="#bfbfbf" points="153,-278.716 153,-308.716 302,-308.716 302,-278.716 153,-278.716"/>
<text text-anchor="start" x="161" y="-296.716" font-family="Helvetica,sans-Serif" font-size="10.00">std::vector&lt; std::shared</text>
<text text-anchor="middle" x="227.5" y="-285.716" font-family="Helvetica,sans-Serif" font-size="10.00">_ptr&lt; ChNodeFEAxyzD &gt; &gt;</text>
</g>
<!-- Node6&#45;&gt;Node1 -->
<g id="edge5" class="edge"><title>Node6&#45;&gt;Node1</title>
<path fill="none" stroke="#9a32cd" stroke-dasharray="5,2" d="M312.258,-295.309C347.143,-294.46 387.863,-291.487 424,-283.716 448.257,-278.499 474.595,-267.373 491.862,-259.265"/>
<polygon fill="#9a32cd" stroke="#9a32cd" points="312.04,-291.813 302.108,-295.501 312.172,-298.812 312.04,-291.813"/>
<text text-anchor="middle" x="378.5" y="-297.716" font-family="Helvetica,sans-Serif" font-size="10.00"> nodes</text>
</g>
<!-- Node7 -->
<g id="node7" class="node"><title>Node7</title>
<polygon fill="white" stroke="#bfbfbf" points="152.5,-240.216 152.5,-259.216 302.5,-259.216 302.5,-240.216 152.5,-240.216"/>
<text text-anchor="middle" x="227.5" y="-247.216" font-family="Helvetica,sans-Serif" font-size="10.00">std::vector&lt; ChVector&lt;&gt; &gt;</text>
</g>
<!-- Node7&#45;&gt;Node1 -->
<g id="edge6" class="edge"><title>Node7&#45;&gt;Node1</title>
<path fill="none" stroke="#9a32cd" stroke-dasharray="5,2" d="M312.726,-249.716C353.843,-249.716 402.708,-249.716 441.638,-249.716"/>
<polygon fill="#9a32cd" stroke="#9a32cd" points="312.724,-246.216 302.724,-249.716 312.724,-253.216 312.724,-246.216"/>
<text text-anchor="middle" x="378.5" y="-274.716" font-family="Helvetica,sans-Serif" font-size="10.00"> fluid_acceleration</text>
<text text-anchor="middle" x="378.5" y="-263.716" font-family="Helvetica,sans-Serif" font-size="10.00">fluid_velocity</text>
<text text-anchor="middle" x="378.5" y="-252.716" font-family="Helvetica,sans-Serif" font-size="10.00">mvecs</text>
</g>
<!-- Node8 -->
<g id="node8" class="node"><title>Node8</title>
<g id="a_node8"><a xlink:title="STL class. ">
<polygon fill="white" stroke="#bfbfbf" points="195,-202.216 195,-221.216 260,-221.216 260,-202.216 195,-202.216"/>
<text text-anchor="middle" x="227.5" y="-209.216" font-family="Helvetica,sans-Serif" font-size="10.00">std::string</text>
</a>
</g>
</g>
<!-- Node8&#45;&gt;Node1 -->
<g id="edge7" class="edge"><title>Node8&#45;&gt;Node1</title>
<path fill="none" stroke="#9a32cd" stroke-dasharray="5,2" d="M270.144,-215.961C309.781,-220.156 371.064,-227.044 424,-234.716 435.073,-236.321 446.905,-238.23 458.163,-240.139"/>
<polygon fill="#9a32cd" stroke="#9a32cd" points="270.369,-212.465 260.058,-214.902 269.638,-219.427 270.369,-212.465"/>
<text text-anchor="middle" x="378.5" y="-237.716" font-family="Helvetica,sans-Serif" font-size="10.00"> beam_type</text>
</g>
<!-- Node9 -->
<g id="node9" class="node"><title>Node9</title>
<g id="a_node9"><a xlink:title="STL class. ">
<polygon fill="white" stroke="#bfbfbf" points="0,-196.716 0,-226.716 103,-226.716 103,-196.716 0,-196.716"/>
<text text-anchor="start" x="8" y="-214.716" font-family="Helvetica,sans-Serif" font-size="10.00">std::basic_string&lt;</text>
<text text-anchor="middle" x="51.5" y="-203.716" font-family="Helvetica,sans-Serif" font-size="10.00"> char &gt;</text>
</a>
</g>
</g>
<!-- Node9&#45;&gt;Node8 -->
<g id="edge8" class="edge"><title>Node9&#45;&gt;Node8</title>
<path fill="none" stroke="midnightblue" d="M113.588,-211.716C140.993,-211.716 172.172,-211.716 194.813,-211.716"/>
<polygon fill="midnightblue" stroke="midnightblue" points="113.296,-208.216 103.296,-211.716 113.296,-215.216 113.296,-208.216"/>
</g>
<!-- Node10 -->
<g id="node10" class="node"><title>Node10</title>
<polygon fill="white" stroke="#bfbfbf" points="176.5,-164.216 176.5,-183.216 278.5,-183.216 278.5,-164.216 176.5,-164.216"/>
<text text-anchor="middle" x="227.5" y="-171.216" font-family="Helvetica,sans-Serif" font-size="10.00">std::vector&lt; int &gt;</text>
</g>
<!-- Node10&#45;&gt;Node1 -->
<g id="edge9" class="edge"><title>Node10&#45;&gt;Node1</title>
<path fill="none" stroke="#9a32cd" stroke-dasharray="5,2" d="M288.774,-174.683C328.178,-176.863 380.259,-182.712 424,-197.716 452.961,-207.65 482.745,-228.103 498.854,-240.186"/>
<polygon fill="#9a32cd" stroke="#9a32cd" points="288.945,-171.187 278.785,-174.193 288.602,-178.178 288.945,-171.187"/>
<text text-anchor="middle" x="378.5" y="-211.716" font-family="Helvetica,sans-Serif" font-size="10.00"> nb_nodes</text>
<text text-anchor="middle" x="378.5" y="-200.716" font-family="Helvetica,sans-Serif" font-size="10.00">nb_elems</text>
</g>
<!-- Node11 -->
<g id="node11" class="node"><title>Node11</title>
<polygon fill="white" stroke="#bfbfbf" points="140,-114.716 140,-144.716 315,-144.716 315,-114.716 140,-114.716"/>
<text text-anchor="start" x="148" y="-132.716" font-family="Helvetica,sans-Serif" font-size="10.00">std::vector&lt; std::shared</text>
<text text-anchor="middle" x="227.5" y="-121.716" font-family="Helvetica,sans-Serif" font-size="10.00">_ptr&lt; ChElementCableANCF &gt; &gt;</text>
</g>
<!-- Node11&#45;&gt;Node1 -->
<g id="edge10" class="edge"><title>Node11&#45;&gt;Node1</title>
<path fill="none" stroke="#9a32cd" stroke-dasharray="5,2" d="M325.364,-134.86C358.068,-139.583 393.89,-148.196 424,-163.716 460.435,-182.495 491.381,-221.839 504.406,-240.066"/>
<polygon fill="#9a32cd" stroke="#9a32cd" points="325.701,-131.374 315.325,-133.516 324.772,-138.312 325.701,-131.374"/>
<text text-anchor="middle" x="378.5" y="-166.716" font-family="Helvetica,sans-Serif" font-size="10.00"> elemsCableANCF</text>
</g>
<!-- Node12 -->
<g id="node12" class="node"><title>Node12</title>
<polygon fill="white" stroke="#bfbfbf" points="150,-65.7158 150,-95.7158 305,-95.7158 305,-65.7158 150,-65.7158"/>
<text text-anchor="start" x="158" y="-83.7158" font-family="Helvetica,sans-Serif" font-size="10.00">std::vector&lt; std::shared</text>
<text text-anchor="middle" x="227.5" y="-72.7158" font-family="Helvetica,sans-Serif" font-size="10.00">_ptr&lt; ChNodeFEAxyzrot &gt; &gt;</text>
</g>
<!-- Node12&#45;&gt;Node1 -->
<g id="edge11" class="edge"><title>Node12&#45;&gt;Node1</title>
<path fill="none" stroke="#9a32cd" stroke-dasharray="5,2" d="M315.22,-84.7097C351.312,-89.8125 392.134,-100.367 424,-121.716 469.762,-152.374 498.022,-216.011 507.466,-240.15"/>
<polygon fill="#9a32cd" stroke="#9a32cd" points="315.543,-81.2225 305.177,-83.4106 314.645,-88.1647 315.543,-81.2225"/>
<text text-anchor="middle" x="378.5" y="-124.716" font-family="Helvetica,sans-Serif" font-size="10.00"> nodesRot</text>
</g>
<!-- Node13 -->
<g id="node13" class="node"><title>Node13</title>
<polygon fill="white" stroke="#bfbfbf" points="166.5,-1.21576 166.5,-20.2158 288.5,-20.2158 288.5,-1.21576 166.5,-1.21576"/>
<text text-anchor="middle" x="227.5" y="-8.21576" font-family="Helvetica,sans-Serif" font-size="10.00">std::vector&lt; double &gt;</text>
</g>
<!-- Node13&#45;&gt;Node1 -->
<g id="edge12" class="edge"><title>Node13&#45;&gt;Node1</title>
<path fill="none" stroke="#9a32cd" stroke-dasharray="5,2" d="M298.671,-0.587646C339.094,1.40518 388.719,-3.14228 424,-29.7158 495.52,-83.5851 508.321,-205.243 510.546,-240.173"/>
<polygon fill="#9a32cd" stroke="#9a32cd" points="298.365,2.90007 288.606,-1.22579 298.808,-4.0859 298.365,2.90007"/>
<text text-anchor="middle" x="378.5" y="-76.7158" font-family="Helvetica,sans-Serif" font-size="10.00"> E</text>
<text text-anchor="middle" x="378.5" y="-65.7158" font-family="Helvetica,sans-Serif" font-size="10.00">rho</text>
<text text-anchor="middle" x="378.5" y="-54.7158" font-family="Helvetica,sans-Serif" font-size="10.00">length</text>
<text text-anchor="middle" x="378.5" y="-43.7158" font-family="Helvetica,sans-Serif" font-size="10.00">d</text>
<text text-anchor="middle" x="378.5" y="-32.7158" font-family="Helvetica,sans-Serif" font-size="10.00">fluid_density</text>
</g>
</g>
</svg>
