<?xml version="1.0" encoding="UTF-8" standalone="no"?>
<!DOCTYPE svg PUBLIC "-//W3C//DTD SVG 1.1//EN"
 "http://www.w3.org/Graphics/SVG/1.1/DTD/svg11.dtd">
<!-- Generated by graphviz version 2.38.0 (20140413.2041)
 -->
<!-- Title: proteus::RDLS&lt; CompKernelType, nSpace, nQuadraturePoints_element, nDOF_mesh_trial_element, nDOF_trial_element, nDOF_test_element, nQuadraturePoints_elementBoundary &gt; Pages: 1 -->
<svg width="761pt" height="112pt"
 viewBox="0.00 0.00 761.00 111.50" xmlns="http://www.w3.org/2000/svg" xmlns:xlink="http://www.w3.org/1999/xlink">
<g id="graph0" class="graph" transform="scale(1 1) rotate(0) translate(4 107.5)">
<title>proteus::RDLS&lt; CompKernelType, nSpace, nQuadraturePoints_element, nDOF_mesh_trial_element, nDOF_trial_element, nDOF_test_element, nQuadraturePoints_elementBoundary &gt;</title>
<polygon fill="white" stroke="none" points="-4,4 -4,-107.5 757,-107.5 757,4 -4,4"/>
<!-- Node1 -->
<g id="node1" class="node"><title>Node1</title>
<polygon fill="#bfbfbf" stroke="black" points="535,-18 535,-81 753,-81 753,-18 535,-18"/>
<text text-anchor="start" x="543" y="-69" font-family="Helvetica,sans-Serif" font-size="10.00">proteus::RDLS&lt; CompKernel</text>
<text text-anchor="start" x="543" y="-58" font-family="Helvetica,sans-Serif" font-size="10.00">Type, nSpace, nQuadraturePoints</text>
<text text-anchor="start" x="543" y="-47" font-family="Helvetica,sans-Serif" font-size="10.00">_element, nDOF_mesh_trial_element,</text>
<text text-anchor="start" x="543" y="-36" font-family="Helvetica,sans-Serif" font-size="10.00"> nDOF_trial_element, nDOF_test_element,</text>
<text text-anchor="middle" x="644" y="-25" font-family="Helvetica,sans-Serif" font-size="10.00"> nQuadraturePoints_elementBoundary &gt;</text>
</g>
<!-- Node2 -->
<g id="node2" class="node"><title>Node2</title>
<g id="a_node2"><a xlink:href="classproteus_1_1_r_d_l_s__base.html" target="_top" xlink:title="proteus::RDLS_base">
<polygon fill="white" stroke="black" points="326.5,-72 326.5,-91 439.5,-91 439.5,-72 326.5,-72"/>
<text text-anchor="middle" x="383" y="-79" font-family="Helvetica,sans-Serif" font-size="10.00">proteus::RDLS_base</text>
</a>
</g>
</g>
<!-- Node2&#45;&gt;Node1 -->
<g id="edge1" class="edge"><title>Node2&#45;&gt;Node1</title>
<path fill="none" stroke="midnightblue" d="M449.601,-73.3948C475.448,-70.2014 505.826,-66.4481 534.751,-62.8744"/>
<polygon fill="midnightblue" stroke="midnightblue" points="449.057,-69.9353 439.562,-74.6352 449.916,-76.8825 449.057,-69.9353"/>
</g>
<!-- Node3 -->
<g id="node3" class="node"><title>Node3</title>
<polygon fill="white" stroke="#bfbfbf" points="0,-72 0,-91 131,-91 131,-72 0,-72"/>
<text text-anchor="middle" x="65.5" y="-79" font-family="Helvetica,sans-Serif" font-size="10.00">std::valarray&lt; double &gt;</text>
</g>
<!-- Node3&#45;&gt;Node2 -->
<g id="edge2" class="edge"><title>Node3&#45;&gt;Node2</title>
<path fill="none" stroke="#9a32cd" stroke-dasharray="5,2" d="M141.117,-81.5C197.955,-81.5 274.949,-81.5 326.441,-81.5"/>
<polygon fill="#9a32cd" stroke="#9a32cd" points="141.107,-78.0001 131.107,-81.5 141.107,-85.0001 141.107,-78.0001"/>
<text text-anchor="start" x="149" y="-95.5" font-family="Helvetica,sans-Serif" font-size="10.00"> weighted_lumped_mass</text>
<text text-anchor="middle" x="208.5" y="-84.5" font-family="Helvetica,sans-Serif" font-size="10.00">_matrix</text>
</g>
<!-- Node4 -->
<g id="node4" class="node"><title>Node4</title>
<g id="a_node4"><a xlink:href="classequivalent__polynomials_1_1_generalized_functions__mix.html" target="_top" xlink:title="equivalent_polynomials\l::GeneralizedFunctions\l_mix\&lt; nSpace, 1, nQuadraturePoints\l_element \&gt;">
<polygon fill="white" stroke="black" points="286,-0.5 286,-52.5 480,-52.5 480,-0.5 286,-0.5"/>
<text text-anchor="start" x="294" y="-40.5" font-family="Helvetica,sans-Serif" font-size="10.00">equivalent_polynomials</text>
<text text-anchor="start" x="294" y="-29.5" font-family="Helvetica,sans-Serif" font-size="10.00">::GeneralizedFunctions</text>
<text text-anchor="start" x="294" y="-18.5" font-family="Helvetica,sans-Serif" font-size="10.00">_mix&lt; nSpace, 1, nQuadraturePoints</text>
<text text-anchor="middle" x="383" y="-7.5" font-family="Helvetica,sans-Serif" font-size="10.00">_element &gt;</text>
</a>
</g>
</g>
<!-- Node4&#45;&gt;Node1 -->
<g id="edge3" class="edge"><title>Node4&#45;&gt;Node1</title>
<path fill="none" stroke="#9a32cd" stroke-dasharray="5,2" d="M490.432,-34.2386C499.421,-34.9723 508.37,-35.7305 517,-36.5 522.805,-37.0176 528.758,-37.5673 534.766,-38.1369"/>
<polygon fill="#9a32cd" stroke="#9a32cd" points="490.528,-30.7351 480.279,-33.4212 489.966,-37.7125 490.528,-30.7351"/>
<text text-anchor="middle" x="507.5" y="-50.5" font-family="Helvetica,sans-Serif" font-size="10.00"> gfu</text>
<text text-anchor="middle" x="507.5" y="-39.5" font-family="Helvetica,sans-Serif" font-size="10.00">gf</text>
</g>
</g>
</svg>
