<?xml version="1.0" encoding="UTF-8" standalone="no"?>
<!DOCTYPE svg PUBLIC "-//W3C//DTD SVG 1.1//EN"
 "http://www.w3.org/Graphics/SVG/1.1/DTD/svg11.dtd">
<!-- Generated by graphviz version 2.38.0 (20140413.2041)
 -->
<!-- Title: proteus::Richards_base Pages: 1 -->
<svg width="432pt" height="83pt"
 viewBox="0.00 0.00 432.00 83.00" xmlns="http://www.w3.org/2000/svg" xmlns:xlink="http://www.w3.org/1999/xlink">
<g id="graph0" class="graph" transform="scale(1 1) rotate(0) translate(4 79)">
<title>proteus::Richards_base</title>
<polygon fill="white" stroke="none" points="-4,4 -4,-79 428,-79 428,4 -4,4"/>
<!-- Node1 -->
<g id="node1" class="node"><title>Node1</title>
<polygon fill="#bfbfbf" stroke="black" points="0,-28 0,-47 128,-47 128,-28 0,-28"/>
<text text-anchor="middle" x="64" y="-35" font-family="Helvetica,sans-Serif" font-size="10.00">proteus::Richards_base</text>
</g>
<!-- Node2 -->
<g id="node2" class="node"><title>Node2</title>
<g id="a_node2"><a xlink:href="classproteus_1_1_richards.html" target="_top" xlink:title="proteus::Richards\&lt;\l CompKernelType, nSpace,\l nQuadraturePoints_element,\l nDOF_mesh_trial_element,\l nDOF_trial_element, nDOF_test\l_element, nQuadraturePoints_elementBoundary \&gt;">
<polygon fill="white" stroke="black" points="164,-0.5 164,-74.5 424,-74.5 424,-0.5 164,-0.5"/>
<text text-anchor="start" x="172" y="-62.5" font-family="Helvetica,sans-Serif" font-size="10.00">proteus::Richards&lt;</text>
<text text-anchor="start" x="172" y="-51.5" font-family="Helvetica,sans-Serif" font-size="10.00"> CompKernelType, nSpace,</text>
<text text-anchor="start" x="172" y="-40.5" font-family="Helvetica,sans-Serif" font-size="10.00"> nQuadraturePoints_element,</text>
<text text-anchor="start" x="172" y="-29.5" font-family="Helvetica,sans-Serif" font-size="10.00"> nDOF_mesh_trial_element,</text>
<text text-anchor="start" x="172" y="-18.5" font-family="Helvetica,sans-Serif" font-size="10.00"> nDOF_trial_element, nDOF_test</text>
<text text-anchor="middle" x="294" y="-7.5" font-family="Helvetica,sans-Serif" font-size="10.00">_element, nQuadraturePoints_elementBoundary &gt;</text>
</a>
</g>
</g>
<!-- Node1&#45;&gt;Node2 -->
<g id="edge1" class="edge"><title>Node1&#45;&gt;Node2</title>
<path fill="none" stroke="midnightblue" d="M138.387,-37.5C146.571,-37.5 155.076,-37.5 163.699,-37.5"/>
<polygon fill="midnightblue" stroke="midnightblue" points="138.208,-34.0001 128.208,-37.5 138.208,-41.0001 138.208,-34.0001"/>
</g>
</g>
</svg>
