<?xml version="1.0" encoding="UTF-8" standalone="no"?>
<!DOCTYPE svg PUBLIC "-//W3C//DTD SVG 1.1//EN"
 "http://www.w3.org/Graphics/SVG/1.1/DTD/svg11.dtd">
<!-- Generated by graphviz version 2.38.0 (20140413.2041)
 -->
<!-- Title: D_base Pages: 1 -->
<svg width="497pt" height="84pt"
 viewBox="0.00 0.00 496.50 84.00" xmlns="http://www.w3.org/2000/svg" xmlns:xlink="http://www.w3.org/1999/xlink">
<g id="graph0" class="graph" transform="scale(1 1) rotate(0) translate(4 80)">
<title>D_base</title>
<polygon fill="white" stroke="none" points="-4,4 -4,-80 492.5,-80 492.5,4 -4,4"/>
<!-- Node1 -->
<g id="node1" class="node"><title>Node1</title>
<polygon fill="#bfbfbf" stroke="black" points="248,-56.5 248,-75.5 301,-75.5 301,-56.5 248,-56.5"/>
<text text-anchor="middle" x="274.5" y="-63.5" font-family="Helvetica,sans-Serif" font-size="10.00">D_base</text>
</g>
<!-- Node2 -->
<g id="node2" class="node"><title>Node2</title>
<g id="a_node2"><a xlink:href="class_piecewise_linear_complex_domain.html" target="_top" xlink:title="PiecewiseLinearComplexDomain">
<polygon fill="white" stroke="black" points="0,-0.5 0,-19.5 171,-19.5 171,-0.5 0,-0.5"/>
<text text-anchor="middle" x="85.5" y="-7.5" font-family="Helvetica,sans-Serif" font-size="10.00">PiecewiseLinearComplexDomain</text>
</a>
</g>
</g>
<!-- Node1&#45;&gt;Node2 -->
<g id="edge1" class="edge"><title>Node1&#45;&gt;Node2</title>
<path fill="none" stroke="midnightblue" d="M237.82,-54.5199C202.159,-44.3313 148.656,-29.0447 115.473,-19.5637"/>
<polygon fill="midnightblue" stroke="midnightblue" points="237.245,-57.9957 247.822,-57.3776 239.168,-51.265 237.245,-57.9957"/>
</g>
<!-- Node3 -->
<g id="node3" class="node"><title>Node3</title>
<g id="a_node3"><a xlink:href="class_planar_straight_line_graph_domain.html" target="_top" xlink:title="PlanarStraightLineGraphDomain">
<polygon fill="white" stroke="black" points="189,-0.5 189,-19.5 360,-19.5 360,-0.5 189,-0.5"/>
<text text-anchor="middle" x="274.5" y="-7.5" font-family="Helvetica,sans-Serif" font-size="10.00">PlanarStraightLineGraphDomain</text>
</a>
</g>
</g>
<!-- Node1&#45;&gt;Node3 -->
<g id="edge2" class="edge"><title>Node1&#45;&gt;Node3</title>
<path fill="none" stroke="midnightblue" d="M274.5,-45.8045C274.5,-36.9102 274.5,-26.7798 274.5,-19.7511"/>
<polygon fill="midnightblue" stroke="midnightblue" points="271,-46.083 274.5,-56.083 278,-46.083 271,-46.083"/>
</g>
<!-- Node4 -->
<g id="node4" class="node"><title>Node4</title>
<g id="a_node4"><a xlink:href="class_rectangular_domain.html" target="_top" xlink:title="RectangularDomain">
<polygon fill="white" stroke="black" points="378.5,-0.5 378.5,-19.5 488.5,-19.5 488.5,-0.5 378.5,-0.5"/>
<text text-anchor="middle" x="433.5" y="-7.5" font-family="Helvetica,sans-Serif" font-size="10.00">RectangularDomain</text>
</a>
</g>
</g>
<!-- Node1&#45;&gt;Node4 -->
<g id="edge3" class="edge"><title>Node1&#45;&gt;Node4</title>
<path fill="none" stroke="midnightblue" d="M309.327,-53.172C339.266,-43.0039 381.721,-28.5852 408.424,-19.5164"/>
<polygon fill="midnightblue" stroke="midnightblue" points="308.037,-49.9136 299.694,-56.4435 310.288,-56.5417 308.037,-49.9136"/>
</g>
</g>
</svg>
