<?xml version="1.0" encoding="UTF-8" standalone="no"?>
<!DOCTYPE svg PUBLIC "-//W3C//DTD SVG 1.1//EN"
 "http://www.w3.org/Graphics/SVG/1.1/DTD/svg11.dtd">
<!-- Generated by graphviz version 2.38.0 (20140413.2041)
 -->
<!-- Title: RectangularDomain Pages: 1 -->
<svg width="233pt" height="231pt"
 viewBox="0.00 0.00 232.50 231.00" xmlns="http://www.w3.org/2000/svg" xmlns:xlink="http://www.w3.org/1999/xlink">
<g id="graph0" class="graph" transform="scale(1 1) rotate(0) translate(4 227)">
<title>RectangularDomain</title>
<polygon fill="white" stroke="none" points="-4,4 -4,-227 228.5,-227 228.5,4 -4,4"/>
<!-- Node1 -->
<g id="node1" class="node"><title>Node1</title>
<polygon fill="#bfbfbf" stroke="black" points="80.5,-0.5 80.5,-19.5 190.5,-19.5 190.5,-0.5 80.5,-0.5"/>
<text text-anchor="middle" x="135.5" y="-7.5" font-family="Helvetica,sans-Serif" font-size="10.00">RectangularDomain</text>
</g>
<!-- Node2 -->
<g id="node2" class="node"><title>Node2</title>
<g id="a_node2"><a xlink:href="class_d__base.html" target="_top" xlink:title="D_base">
<polygon fill="white" stroke="black" points="109,-57.5 109,-76.5 162,-76.5 162,-57.5 109,-57.5"/>
<text text-anchor="middle" x="135.5" y="-64.5" font-family="Helvetica,sans-Serif" font-size="10.00">D_base</text>
</a>
</g>
</g>
<!-- Node2&#45;&gt;Node1 -->
<g id="edge1" class="edge"><title>Node2&#45;&gt;Node1</title>
<path fill="none" stroke="midnightblue" d="M135.5,-47.1166C135.5,-37.8173 135.5,-27.0557 135.5,-19.7149"/>
<polygon fill="midnightblue" stroke="midnightblue" points="132,-47.4062 135.5,-57.4062 139,-47.4063 132,-47.4062"/>
</g>
<!-- Node3 -->
<g id="node3" class="node"><title>Node3</title>
<g id="a_node3"><a xlink:title="STL class. ">
<polygon fill="white" stroke="#bfbfbf" points="19,-135.5 19,-154.5 84,-154.5 84,-135.5 19,-135.5"/>
<text text-anchor="middle" x="51.5" y="-142.5" font-family="Helvetica,sans-Serif" font-size="10.00">std::string</text>
</a>
</g>
</g>
<!-- Node3&#45;&gt;Node2 -->
<g id="edge2" class="edge"><title>Node3&#45;&gt;Node2</title>
<path fill="none" stroke="#9a32cd" stroke-dasharray="5,2" d="M68.8481,-128.304C86.1586,-112.642 112.117,-89.1562 125.977,-76.6165"/>
<polygon fill="#9a32cd" stroke="#9a32cd" points="66.203,-125.977 61.1359,-135.282 70.8995,-131.168 66.203,-125.977"/>
<text text-anchor="middle" x="117.5" y="-109" font-family="Helvetica,sans-Serif" font-size="10.00"> units</text>
<text text-anchor="middle" x="117.5" y="-98" font-family="Helvetica,sans-Serif" font-size="10.00">name</text>
</g>
<!-- Node4 -->
<g id="node4" class="node"><title>Node4</title>
<g id="a_node4"><a xlink:title="STL class. ">
<polygon fill="white" stroke="#bfbfbf" points="0,-192.5 0,-222.5 103,-222.5 103,-192.5 0,-192.5"/>
<text text-anchor="start" x="8" y="-210.5" font-family="Helvetica,sans-Serif" font-size="10.00">std::basic_string&lt;</text>
<text text-anchor="middle" x="51.5" y="-199.5" font-family="Helvetica,sans-Serif" font-size="10.00"> char &gt;</text>
</a>
</g>
</g>
<!-- Node4&#45;&gt;Node3 -->
<g id="edge3" class="edge"><title>Node4&#45;&gt;Node3</title>
<path fill="none" stroke="midnightblue" d="M51.5,-182.352C51.5,-172.513 51.5,-161.775 51.5,-154.54"/>
<polygon fill="midnightblue" stroke="midnightblue" points="48.0001,-182.468 51.5,-192.468 55.0001,-182.468 48.0001,-182.468"/>
</g>
<!-- Node5 -->
<g id="node5" class="node"><title>Node5</title>
<polygon fill="white" stroke="#bfbfbf" points="102.5,-135.5 102.5,-154.5 224.5,-154.5 224.5,-135.5 102.5,-135.5"/>
<text text-anchor="middle" x="163.5" y="-142.5" font-family="Helvetica,sans-Serif" font-size="10.00">std::vector&lt; double &gt;</text>
</g>
<!-- Node5&#45;&gt;Node2 -->
<g id="edge4" class="edge"><title>Node5&#45;&gt;Node2</title>
<path fill="none" stroke="#9a32cd" stroke-dasharray="5,2" d="M156.748,-125.674C151.015,-110.113 143.042,-88.4722 138.674,-76.6165"/>
<polygon fill="#9a32cd" stroke="#9a32cd" points="153.547,-127.108 160.288,-135.282 160.115,-124.688 153.547,-127.108"/>
<text text-anchor="middle" x="158" y="-109" font-family="Helvetica,sans-Serif" font-size="10.00"> x</text>
<text text-anchor="middle" x="158" y="-98" font-family="Helvetica,sans-Serif" font-size="10.00">L</text>
</g>
</g>
</svg>
