<?xml version="1.0" encoding="UTF-8" standalone="no"?>
<!DOCTYPE svg PUBLIC "-//W3C//DTD SVG 1.1//EN"
 "http://www.w3.org/Graphics/SVG/1.1/DTD/svg11.dtd">
<!-- Generated by graphviz version 2.38.0 (20140413.2041)
 -->
<!-- Title: proteus::cppADR&lt; CompKernelType, nSpace, nQuadraturePoints_element, nDOF_mesh_trial_element, nDOF_trial_element, nDOF_test_element, nQuadraturePoints_elementBoundary &gt; Pages: 1 -->
<svg width="226pt" height="128pt"
 viewBox="0.00 0.00 226.00 128.00" xmlns="http://www.w3.org/2000/svg" xmlns:xlink="http://www.w3.org/1999/xlink">
<g id="graph0" class="graph" transform="scale(1 1) rotate(0) translate(4 124)">
<title>proteus::cppADR&lt; CompKernelType, nSpace, nQuadraturePoints_element, nDOF_mesh_trial_element, nDOF_trial_element, nDOF_test_element, nQuadraturePoints_elementBoundary &gt;</title>
<polygon fill="white" stroke="none" points="-4,4 -4,-124 222,-124 222,4 -4,4"/>
<!-- Node1 -->
<g id="node1" class="node"><title>Node1</title>
<polygon fill="#bfbfbf" stroke="black" points="0,-0.5 0,-63.5 218,-63.5 218,-0.5 0,-0.5"/>
<text text-anchor="start" x="8" y="-51.5" font-family="Helvetica,sans-Serif" font-size="10.00">proteus::cppADR&lt; CompKernel</text>
<text text-anchor="start" x="8" y="-40.5" font-family="Helvetica,sans-Serif" font-size="10.00">Type, nSpace, nQuadraturePoints</text>
<text text-anchor="start" x="8" y="-29.5" font-family="Helvetica,sans-Serif" font-size="10.00">_element, nDOF_mesh_trial_element,</text>
<text text-anchor="start" x="8" y="-18.5" font-family="Helvetica,sans-Serif" font-size="10.00"> nDOF_trial_element, nDOF_test_element,</text>
<text text-anchor="middle" x="109" y="-7.5" font-family="Helvetica,sans-Serif" font-size="10.00"> nQuadraturePoints_elementBoundary &gt;</text>
</g>
<!-- Node2 -->
<g id="node2" class="node"><title>Node2</title>
<g id="a_node2"><a xlink:href="classproteus_1_1cpp_a_d_r__base.html" target="_top" xlink:title="proteus::cppADR_base">
<polygon fill="white" stroke="black" points="46.5,-100.5 46.5,-119.5 171.5,-119.5 171.5,-100.5 46.5,-100.5"/>
<text text-anchor="middle" x="109" y="-107.5" font-family="Helvetica,sans-Serif" font-size="10.00">proteus::cppADR_base</text>
</a>
</g>
</g>
<!-- Node2&#45;&gt;Node1 -->
<g id="edge1" class="edge"><title>Node2&#45;&gt;Node1</title>
<path fill="none" stroke="midnightblue" d="M109,-90.1878C109,-82.1609 109,-72.5855 109,-63.587"/>
<polygon fill="midnightblue" stroke="midnightblue" points="105.5,-90.2818 109,-100.282 112.5,-90.2819 105.5,-90.2818"/>
</g>
</g>
</svg>
