<?xml version="1.0" encoding="UTF-8" standalone="no"?>
<!DOCTYPE svg PUBLIC "-//W3C//DTD SVG 1.1//EN"
 "http://www.w3.org/Graphics/SVG/1.1/DTD/svg11.dtd">
<!-- Generated by graphviz version 2.38.0 (20140413.2041)
 -->
<!-- Title: PskRelation Pages: 1 -->
<svg width="288pt" height="196pt"
 viewBox="0.00 0.00 287.50 196.00" xmlns="http://www.w3.org/2000/svg" xmlns:xlink="http://www.w3.org/1999/xlink">
<g id="graph0" class="graph" transform="scale(1 1) rotate(0) translate(4 192)">
<title>PskRelation</title>
<polygon fill="white" stroke="none" points="-4,4 -4,-192 283.5,-192 283.5,4 -4,4"/>
<!-- Node1 -->
<g id="node1" class="node"><title>Node1</title>
<polygon fill="#bfbfbf" stroke="black" points="92.5,-168.5 92.5,-187.5 163.5,-187.5 163.5,-168.5 92.5,-168.5"/>
<text text-anchor="middle" x="128" y="-175.5" font-family="Helvetica,sans-Serif" font-size="10.00">PskRelation</text>
</g>
<!-- Node2 -->
<g id="node2" class="node"><title>Node2</title>
<g id="a_node2"><a xlink:href="class_b_c_m.html" target="_top" xlink:title="BCM">
<polygon fill="white" stroke="black" points="0,-112.5 0,-131.5 38,-131.5 38,-112.5 0,-112.5"/>
<text text-anchor="middle" x="19" y="-119.5" font-family="Helvetica,sans-Serif" font-size="10.00">BCM</text>
</a>
</g>
</g>
<!-- Node1&#45;&gt;Node2 -->
<g id="edge1" class="edge"><title>Node1&#45;&gt;Node2</title>
<path fill="none" stroke="midnightblue" d="M101.481,-163.862C81.2697,-153.849 54.0129,-140.346 36.4693,-131.655"/>
<polygon fill="midnightblue" stroke="midnightblue" points="99.9729,-167.021 110.487,-168.324 103.08,-160.748 99.9729,-167.021"/>
</g>
<!-- Node4 -->
<g id="node4" class="node"><title>Node4</title>
<g id="a_node4"><a xlink:href="class_psk_spline.html" target="_top" xlink:title="PskSpline">
<polygon fill="white" stroke="black" points="56,-112.5 56,-131.5 118,-131.5 118,-112.5 56,-112.5"/>
<text text-anchor="middle" x="87" y="-119.5" font-family="Helvetica,sans-Serif" font-size="10.00">PskSpline</text>
</a>
</g>
</g>
<!-- Node1&#45;&gt;Node4 -->
<g id="edge3" class="edge"><title>Node1&#45;&gt;Node4</title>
<path fill="none" stroke="midnightblue" d="M114.983,-159.855C107.883,-150.505 99.396,-139.327 93.6443,-131.751"/>
<polygon fill="midnightblue" stroke="midnightblue" points="112.395,-162.235 121.23,-168.083 117.97,-158.002 112.395,-162.235"/>
</g>
<!-- Node5 -->
<g id="node5" class="node"><title>Node5</title>
<g id="a_node5"><a xlink:href="class_simple_p_s_k.html" target="_top" xlink:title="SimplePSK">
<polygon fill="white" stroke="black" points="136,-112.5 136,-131.5 204,-131.5 204,-112.5 136,-112.5"/>
<text text-anchor="middle" x="170" y="-119.5" font-family="Helvetica,sans-Serif" font-size="10.00">SimplePSK</text>
</a>
</g>
</g>
<!-- Node1&#45;&gt;Node5 -->
<g id="edge4" class="edge"><title>Node1&#45;&gt;Node5</title>
<path fill="none" stroke="midnightblue" d="M141.11,-160.144C148.428,-150.736 157.241,-139.405 163.194,-131.751"/>
<polygon fill="midnightblue" stroke="midnightblue" points="138.312,-158.041 134.935,-168.083 143.838,-162.338 138.312,-158.041"/>
</g>
<!-- Node6 -->
<g id="node6" class="node"><title>Node6</title>
<g id="a_node6"><a xlink:href="class_v_g_morig.html" target="_top" xlink:title="VGMorig">
<polygon fill="white" stroke="black" points="222.5,-112.5 222.5,-131.5 279.5,-131.5 279.5,-112.5 222.5,-112.5"/>
<text text-anchor="middle" x="251" y="-119.5" font-family="Helvetica,sans-Serif" font-size="10.00">VGMorig</text>
</a>
</g>
</g>
<!-- Node1&#45;&gt;Node6 -->
<g id="edge5" class="edge"><title>Node1&#45;&gt;Node6</title>
<path fill="none" stroke="midnightblue" d="M156.773,-164.368C179.807,-154.255 211.484,-140.349 231.601,-131.516"/>
<polygon fill="midnightblue" stroke="midnightblue" points="155.239,-161.219 147.49,-168.444 158.053,-167.628 155.239,-161.219"/>
</g>
<!-- Node3 -->
<g id="node3" class="node"><title>Node3</title>
<g id="a_node3"><a xlink:href="class_b_c_b.html" target="_top" xlink:title="BCB">
<polygon fill="white" stroke="black" points="0.5,-56.5 0.5,-75.5 37.5,-75.5 37.5,-56.5 0.5,-56.5"/>
<text text-anchor="middle" x="19" y="-63.5" font-family="Helvetica,sans-Serif" font-size="10.00">BCB</text>
</a>
</g>
</g>
<!-- Node2&#45;&gt;Node3 -->
<g id="edge2" class="edge"><title>Node2&#45;&gt;Node3</title>
<path fill="none" stroke="midnightblue" d="M19,-101.805C19,-92.9102 19,-82.7798 19,-75.7511"/>
<polygon fill="midnightblue" stroke="midnightblue" points="15.5001,-102.083 19,-112.083 22.5001,-102.083 15.5001,-102.083"/>
</g>
<!-- Node7 -->
<g id="node7" class="node"><title>Node7</title>
<g id="a_node7"><a xlink:href="class_v_g_m.html" target="_top" xlink:title="VGM">
<polygon fill="white" stroke="black" points="231.5,-56.5 231.5,-75.5 270.5,-75.5 270.5,-56.5 231.5,-56.5"/>
<text text-anchor="middle" x="251" y="-63.5" font-family="Helvetica,sans-Serif" font-size="10.00">VGM</text>
</a>
</g>
</g>
<!-- Node6&#45;&gt;Node7 -->
<g id="edge6" class="edge"><title>Node6&#45;&gt;Node7</title>
<path fill="none" stroke="midnightblue" d="M251,-101.805C251,-92.9102 251,-82.7798 251,-75.7511"/>
<polygon fill="midnightblue" stroke="midnightblue" points="247.5,-102.083 251,-112.083 254.5,-102.083 247.5,-102.083"/>
</g>
<!-- Node8 -->
<g id="node8" class="node"><title>Node8</title>
<g id="a_node8"><a xlink:href="class_v_g_b.html" target="_top" xlink:title="VGB">
<polygon fill="white" stroke="black" points="232,-0.5 232,-19.5 270,-19.5 270,-0.5 232,-0.5"/>
<text text-anchor="middle" x="251" y="-7.5" font-family="Helvetica,sans-Serif" font-size="10.00">VGB</text>
</a>
</g>
</g>
<!-- Node7&#45;&gt;Node8 -->
<g id="edge7" class="edge"><title>Node7&#45;&gt;Node8</title>
<path fill="none" stroke="midnightblue" d="M251,-45.8045C251,-36.9102 251,-26.7798 251,-19.7511"/>
<polygon fill="midnightblue" stroke="midnightblue" points="247.5,-46.083 251,-56.083 254.5,-46.083 247.5,-46.083"/>
</g>
</g>
</svg>
