<?xml version="1.0" encoding="UTF-8" standalone="no"?>
<!DOCTYPE svg PUBLIC "-//W3C//DTD SVG 1.1//EN"
 "http://www.w3.org/Graphics/SVG/1.1/DTD/svg11.dtd">
<!-- Generated by graphviz version 2.38.0 (20140413.2041)
 -->
<!-- Title: proteus::cppRANS3PF&lt; CompKernelType, nSpace, nQuadraturePoints_element, nDOF_mesh_trial_element, nDOF_trial_element, nDOF_test_element, nQuadraturePoints_elementBoundary &gt; Pages: 1 -->
<svg width="864pt" height="338pt"
 viewBox="0.00 0.00 864.00 337.50" xmlns="http://www.w3.org/2000/svg" xmlns:xlink="http://www.w3.org/1999/xlink">
<g id="graph0" class="graph" transform="scale(1 1) rotate(0) translate(4 333.5)">
<title>proteus::cppRANS3PF&lt; CompKernelType, nSpace, nQuadraturePoints_element, nDOF_mesh_trial_element, nDOF_trial_element, nDOF_test_element, nQuadraturePoints_elementBoundary &gt;</title>
<polygon fill="white" stroke="none" points="-4,4 -4,-333.5 860,-333.5 860,4 -4,4"/>
<!-- Node1 -->
<g id="node1" class="node"><title>Node1</title>
<polygon fill="#bfbfbf" stroke="black" points="596,-83.5 596,-157.5 856,-157.5 856,-83.5 596,-83.5"/>
<text text-anchor="start" x="604" y="-145.5" font-family="Helvetica,sans-Serif" font-size="10.00">proteus::cppRANS3PF</text>
<text text-anchor="start" x="604" y="-134.5" font-family="Helvetica,sans-Serif" font-size="10.00">&lt; CompKernelType, nSpace,</text>
<text text-anchor="start" x="604" y="-123.5" font-family="Helvetica,sans-Serif" font-size="10.00"> nQuadraturePoints_element,</text>
<text text-anchor="start" x="604" y="-112.5" font-family="Helvetica,sans-Serif" font-size="10.00"> nDOF_mesh_trial_element,</text>
<text text-anchor="start" x="604" y="-101.5" font-family="Helvetica,sans-Serif" font-size="10.00"> nDOF_trial_element, nDOF_test</text>
<text text-anchor="middle" x="726" y="-90.5" font-family="Helvetica,sans-Serif" font-size="10.00">_element, nQuadraturePoints_elementBoundary &gt;</text>
</g>
<!-- Node2 -->
<g id="node2" class="node"><title>Node2</title>
<g id="a_node2"><a xlink:href="classproteus_1_1cpp_r_a_n_s3_p_f__base.html" target="_top" xlink:title="proteus::cppRANS3PF_base">
<polygon fill="white" stroke="black" points="282.5,-188 282.5,-207 431.5,-207 431.5,-188 282.5,-188"/>
<text text-anchor="middle" x="357" y="-195" font-family="Helvetica,sans-Serif" font-size="10.00">proteus::cppRANS3PF_base</text>
</a>
</g>
</g>
<!-- Node2&#45;&gt;Node1 -->
<g id="edge1" class="edge"><title>Node2&#45;&gt;Node1</title>
<path fill="none" stroke="midnightblue" d="M441.554,-187.217C482.855,-181.469 533.303,-173.446 578,-163.5 586.176,-161.681 594.566,-159.658 602.992,-157.51"/>
<polygon fill="midnightblue" stroke="midnightblue" points="440.964,-183.766 431.532,-188.593 441.916,-190.701 440.964,-183.766"/>
</g>
<!-- Node3 -->
<g id="node3" class="node"><title>Node3</title>
<polygon fill="white" stroke="#bfbfbf" points="0,-188 0,-207 131,-207 131,-188 0,-188"/>
<text text-anchor="middle" x="65.5" y="-195" font-family="Helvetica,sans-Serif" font-size="10.00">std::valarray&lt; double &gt;</text>
</g>
<!-- Node3&#45;&gt;Node2 -->
<g id="edge2" class="edge"><title>Node3&#45;&gt;Node2</title>
<path fill="none" stroke="#9a32cd" stroke-dasharray="5,2" d="M141.326,-197.5C184.741,-197.5 239.202,-197.5 282.405,-197.5"/>
<polygon fill="#9a32cd" stroke="#9a32cd" points="141.109,-194 131.109,-197.5 141.109,-201 141.109,-194"/>
<text text-anchor="middle" x="195.5" y="-321.5" font-family="Helvetica,sans-Serif" font-size="10.00"> wStar_min_hiHe</text>
<text text-anchor="middle" x="195.5" y="-310.5" font-family="Helvetica,sans-Serif" font-size="10.00">den_hi</text>
<text text-anchor="middle" x="195.5" y="-299.5" font-family="Helvetica,sans-Serif" font-size="10.00">vStar_hi</text>
<text text-anchor="start" x="149" y="-288.5" font-family="Helvetica,sans-Serif" font-size="10.00">TransposeTransport</text>
<text text-anchor="middle" x="195.5" y="-277.5" font-family="Helvetica,sans-Serif" font-size="10.00">Matrix</text>
<text text-anchor="middle" x="195.5" y="-266.5" font-family="Helvetica,sans-Serif" font-size="10.00">uStar_hi</text>
<text text-anchor="middle" x="195.5" y="-255.5" font-family="Helvetica,sans-Serif" font-size="10.00">wStar_hi</text>
<text text-anchor="middle" x="195.5" y="-244.5" font-family="Helvetica,sans-Serif" font-size="10.00">wStar_psi</text>
<text text-anchor="middle" x="195.5" y="-233.5" font-family="Helvetica,sans-Serif" font-size="10.00">wStar_gamma</text>
<text text-anchor="middle" x="195.5" y="-222.5" font-family="Helvetica,sans-Serif" font-size="10.00">vStar_psi</text>
<text text-anchor="middle" x="195.5" y="-211.5" font-family="Helvetica,sans-Serif" font-size="10.00">uStar_psi</text>
<text text-anchor="middle" x="195.5" y="-200.5" font-family="Helvetica,sans-Serif" font-size="10.00">...</text>
</g>
<!-- Node4 -->
<g id="node4" class="node"><title>Node4</title>
<g id="a_node4"><a xlink:href="classproteus_1_1cpp_hsu_sed_stress.html" target="_top" xlink:title="proteus::cppHsuSedStress\&lt; 3 \&gt;">
<polygon fill="white" stroke="black" points="270.5,-150 270.5,-169 443.5,-169 443.5,-150 270.5,-150"/>
<text text-anchor="middle" x="357" y="-157" font-family="Helvetica,sans-Serif" font-size="10.00">proteus::cppHsuSedStress&lt; 3 &gt;</text>
</a>
</g>
</g>
<!-- Node4&#45;&gt;Node1 -->
<g id="edge3" class="edge"><title>Node4&#45;&gt;Node1</title>
<path fill="none" stroke="#9a32cd" stroke-dasharray="5,2" d="M453.887,-150.236C492.467,-146.424 537.362,-141.881 578,-137.5 583.875,-136.867 589.881,-136.21 595.946,-135.539"/>
<polygon fill="#9a32cd" stroke="#9a32cd" points="453.312,-146.776 443.704,-151.24 453.999,-153.742 453.312,-146.776"/>
<text text-anchor="middle" x="525" y="-151.5" font-family="Helvetica,sans-Serif" font-size="10.00"> closure</text>
</g>
<!-- Node5 -->
<g id="node5" class="node"><title>Node5</title>
<polygon fill="white" stroke="#bfbfbf" points="306,-72 306,-91 408,-91 408,-72 306,-72"/>
<text text-anchor="middle" x="357" y="-79" font-family="Helvetica,sans-Serif" font-size="10.00">std::vector&lt; int &gt;</text>
</g>
<!-- Node5&#45;&gt;Node1 -->
<g id="edge4" class="edge"><title>Node5&#45;&gt;Node1</title>
<path fill="none" stroke="#9a32cd" stroke-dasharray="5,2" d="M418.228,-79.6189C435.582,-79.1572 454.541,-78.7297 472,-78.5 519.107,-77.8803 531.344,-71.9656 578,-78.5 587.069,-79.7701 596.363,-81.4606 605.657,-83.4353"/>
<polygon fill="#9a32cd" stroke="#9a32cd" points="418.12,-76.1204 408.219,-79.8935 418.312,-83.1178 418.12,-76.1204"/>
<text text-anchor="start" x="472" y="-125.5" font-family="Helvetica,sans-Serif" font-size="10.00"> surrogate_boundary</text>
<text text-anchor="middle" x="525" y="-114.5" font-family="Helvetica,sans-Serif" font-size="10.00">_elements</text>
<text text-anchor="middle" x="525" y="-103.5" font-family="Helvetica,sans-Serif" font-size="10.00">surrogate_boundaries</text>
<text text-anchor="start" x="472" y="-92.5" font-family="Helvetica,sans-Serif" font-size="10.00">surrogate_boundary</text>
<text text-anchor="middle" x="525" y="-81.5" font-family="Helvetica,sans-Serif" font-size="10.00">_particle</text>
</g>
<!-- Node6 -->
<g id="node6" class="node"><title>Node6</title>
<g id="a_node6"><a xlink:href="classequivalent__polynomials_1_1_generalized_functions__mix.html" target="_top" xlink:title="equivalent_polynomials\l::GeneralizedFunctions\l_mix\&lt; nSpace, 1, nQuadraturePoints\l_element \&gt;">
<polygon fill="white" stroke="black" points="260,-0.5 260,-52.5 454,-52.5 454,-0.5 260,-0.5"/>
<text text-anchor="start" x="268" y="-40.5" font-family="Helvetica,sans-Serif" font-size="10.00">equivalent_polynomials</text>
<text text-anchor="start" x="268" y="-29.5" font-family="Helvetica,sans-Serif" font-size="10.00">::GeneralizedFunctions</text>
<text text-anchor="start" x="268" y="-18.5" font-family="Helvetica,sans-Serif" font-size="10.00">_mix&lt; nSpace, 1, nQuadraturePoints</text>
<text text-anchor="middle" x="357" y="-7.5" font-family="Helvetica,sans-Serif" font-size="10.00">_element &gt;</text>
</a>
</g>
</g>
<!-- Node6&#45;&gt;Node1 -->
<g id="edge5" class="edge"><title>Node6&#45;&gt;Node1</title>
<path fill="none" stroke="#9a32cd" stroke-dasharray="5,2" d="M464.304,-30.1795C500.859,-33.3918 541.704,-39.1784 578,-49.5 606.215,-57.5236 635.644,-70.6647 660.692,-83.4739"/>
<polygon fill="#9a32cd" stroke="#9a32cd" points="464.369,-26.6731 454.115,-29.3401 463.794,-33.6494 464.369,-26.6731"/>
<text text-anchor="middle" x="525" y="-63.5" font-family="Helvetica,sans-Serif" font-size="10.00"> gf_s</text>
<text text-anchor="middle" x="525" y="-52.5" font-family="Helvetica,sans-Serif" font-size="10.00">gf</text>
</g>
</g>
</svg>
