<?xml version="1.0" encoding="UTF-8" standalone="no"?>
<!DOCTYPE svg PUBLIC "-//W3C//DTD SVG 1.1//EN"
 "http://www.w3.org/Graphics/SVG/1.1/DTD/svg11.dtd">
<!-- Generated by graphviz version 2.38.0 (20140413.2041)
 -->
<!-- Title: chrono::ChBodyAddedMass Pages: 1 -->
<svg width="275pt" height="152pt"
 viewBox="0.00 0.00 274.50 152.00" xmlns="http://www.w3.org/2000/svg" xmlns:xlink="http://www.w3.org/1999/xlink">
<g id="graph0" class="graph" transform="scale(1 1) rotate(0) translate(4 148)">
<title>chrono::ChBodyAddedMass</title>
<polygon fill="white" stroke="none" points="-4,4 -4,-148 270.5,-148 270.5,4 -4,4"/>
<!-- Node1 -->
<g id="node1" class="node"><title>Node1</title>
<polygon fill="#bfbfbf" stroke="black" points="0,-0.5 0,-19.5 148,-19.5 148,-0.5 0,-0.5"/>
<text text-anchor="middle" x="74" y="-7.5" font-family="Helvetica,sans-Serif" font-size="10.00">chrono::ChBodyAddedMass</text>
</g>
<!-- Node2 -->
<g id="node2" class="node"><title>Node2</title>
<polygon fill="white" stroke="#bfbfbf" points="4.5,-67.5 4.5,-86.5 57.5,-86.5 57.5,-67.5 4.5,-67.5"/>
<text text-anchor="middle" x="31" y="-74.5" font-family="Helvetica,sans-Serif" font-size="10.00">ChBody</text>
</g>
<!-- Node2&#45;&gt;Node1 -->
<g id="edge1" class="edge"><title>Node2&#45;&gt;Node1</title>
<path fill="none" stroke="midnightblue" d="M42.554,-58.5347C50.8793,-45.9499 61.7568,-29.5072 68.2927,-19.6273"/>
<polygon fill="midnightblue" stroke="midnightblue" points="39.3975,-56.9625 36.7992,-67.2338 45.2356,-60.8247 39.3975,-56.9625"/>
</g>
<!-- Node3 -->
<g id="node3" class="node"><title>Node3</title>
<g id="a_node3"><a xlink:href="classchrono_1_1_ch_variables_body_added_mass.html" target="_top" xlink:title="chrono::ChVariablesBodyAddedMass">
<polygon fill="white" stroke="black" points="75.5,-67.5 75.5,-86.5 266.5,-86.5 266.5,-67.5 75.5,-67.5"/>
<text text-anchor="middle" x="171" y="-74.5" font-family="Helvetica,sans-Serif" font-size="10.00">chrono::ChVariablesBodyAddedMass</text>
</a>
</g>
</g>
<!-- Node3&#45;&gt;Node1 -->
<g id="edge2" class="edge"><title>Node3&#45;&gt;Node1</title>
<path fill="none" stroke="#9a32cd" stroke-dasharray="5,2" d="M149.503,-61.5945C130.314,-48.7359 102.847,-30.3306 86.8746,-19.6273"/>
<polygon fill="#9a32cd" stroke="#9a32cd" points="147.662,-64.5746 157.918,-67.2338 151.559,-58.7595 147.662,-64.5746"/>
<text text-anchor="middle" x="151" y="-41" font-family="Helvetica,sans-Serif" font-size="10.00"> variables</text>
</g>
<!-- Node4 -->
<g id="node4" class="node"><title>Node4</title>
<polygon fill="white" stroke="#bfbfbf" points="100,-124.5 100,-143.5 242,-143.5 242,-124.5 100,-124.5"/>
<text text-anchor="middle" x="171" y="-131.5" font-family="Helvetica,sans-Serif" font-size="10.00">ChVariablesBodyOwnMass</text>
</g>
<!-- Node4&#45;&gt;Node3 -->
<g id="edge3" class="edge"><title>Node4&#45;&gt;Node3</title>
<path fill="none" stroke="midnightblue" d="M171,-114.117C171,-104.817 171,-94.0557 171,-86.7149"/>
<polygon fill="midnightblue" stroke="midnightblue" points="167.5,-114.406 171,-124.406 174.5,-114.406 167.5,-114.406"/>
</g>
</g>
</svg>
