<?xml version="1.0" encoding="UTF-8" standalone="no"?>
<!DOCTYPE svg PUBLIC "-//W3C//DTD SVG 1.1//EN"
 "http://www.w3.org/Graphics/SVG/1.1/DTD/svg11.dtd">
<!-- Generated by graphviz version 2.38.0 (20140413.2041)
 -->
<!-- Title: proteus::cppRANS3PF_base Pages: 1 -->
<svg width="176pt" height="216pt"
 viewBox="0.00 0.00 175.50 216.00" xmlns="http://www.w3.org/2000/svg" xmlns:xlink="http://www.w3.org/1999/xlink">
<g id="graph0" class="graph" transform="scale(1 1) rotate(0) translate(4 212)">
<title>proteus::cppRANS3PF_base</title>
<polygon fill="white" stroke="none" points="-4,4 -4,-212 171.5,-212 171.5,4 -4,4"/>
<!-- Node1 -->
<g id="node1" class="node"><title>Node1</title>
<polygon fill="#bfbfbf" stroke="black" points="-1.42109e-14,-0.5 -1.42109e-14,-19.5 149,-19.5 149,-0.5 -1.42109e-14,-0.5"/>
<text text-anchor="middle" x="74.5" y="-7.5" font-family="Helvetica,sans-Serif" font-size="10.00">proteus::cppRANS3PF_base</text>
</g>
<!-- Node2 -->
<g id="node2" class="node"><title>Node2</title>
<polygon fill="white" stroke="#bfbfbf" points="9,-188.5 9,-207.5 140,-207.5 140,-188.5 9,-188.5"/>
<text text-anchor="middle" x="74.5" y="-195.5" font-family="Helvetica,sans-Serif" font-size="10.00">std::valarray&lt; double &gt;</text>
</g>
<!-- Node2&#45;&gt;Node1 -->
<g id="edge1" class="edge"><title>Node2&#45;&gt;Node1</title>
<path fill="none" stroke="#9a32cd" stroke-dasharray="5,2" d="M74.5,-177.86C74.5,-138.211 74.5,-48.4172 74.5,-19.8812"/>
<polygon fill="#9a32cd" stroke="#9a32cd" points="71.0001,-178.029 74.5,-188.029 78.0001,-178.029 71.0001,-178.029"/>
<text text-anchor="middle" x="121" y="-162" font-family="Helvetica,sans-Serif" font-size="10.00"> wStar_min_hiHe</text>
<text text-anchor="middle" x="121" y="-151" font-family="Helvetica,sans-Serif" font-size="10.00">den_hi</text>
<text text-anchor="middle" x="121" y="-140" font-family="Helvetica,sans-Serif" font-size="10.00">vStar_hi</text>
<text text-anchor="start" x="74.5" y="-129" font-family="Helvetica,sans-Serif" font-size="10.00">TransposeTransport</text>
<text text-anchor="middle" x="121" y="-118" font-family="Helvetica,sans-Serif" font-size="10.00">Matrix</text>
<text text-anchor="middle" x="121" y="-107" font-family="Helvetica,sans-Serif" font-size="10.00">uStar_hi</text>
<text text-anchor="middle" x="121" y="-96" font-family="Helvetica,sans-Serif" font-size="10.00">wStar_hi</text>
<text text-anchor="middle" x="121" y="-85" font-family="Helvetica,sans-Serif" font-size="10.00">wStar_psi</text>
<text text-anchor="middle" x="121" y="-74" font-family="Helvetica,sans-Serif" font-size="10.00">wStar_gamma</text>
<text text-anchor="middle" x="121" y="-63" font-family="Helvetica,sans-Serif" font-size="10.00">vStar_psi</text>
<text text-anchor="middle" x="121" y="-52" font-family="Helvetica,sans-Serif" font-size="10.00">uStar_psi</text>
<text text-anchor="middle" x="121" y="-41" font-family="Helvetica,sans-Serif" font-size="10.00">...</text>
</g>
</g>
</svg>
