<?xml version="1.0" encoding="UTF-8" standalone="no"?>
<!DOCTYPE svg PUBLIC "-//W3C//DTD SVG 1.1//EN"
 "http://www.w3.org/Graphics/SVG/1.1/DTD/svg11.dtd">
<!-- Generated by graphviz version 2.38.0 (20140413.2041)
 -->
<!-- Title: proteus::cppRANS3PF2D_base Pages: 1 -->
<svg width="182pt" height="216pt"
 viewBox="0.00 0.00 182.00 216.00" xmlns="http://www.w3.org/2000/svg" xmlns:xlink="http://www.w3.org/1999/xlink">
<g id="graph0" class="graph" transform="scale(1 1) rotate(0) translate(4 212)">
<title>proteus::cppRANS3PF2D_base</title>
<polygon fill="white" stroke="none" points="-4,4 -4,-212 178,-212 178,4 -4,4"/>
<!-- Node1 -->
<g id="node1" class="node"><title>Node1</title>
<polygon fill="#bfbfbf" stroke="black" points="0,-0.5 0,-19.5 162,-19.5 162,-0.5 0,-0.5"/>
<text text-anchor="middle" x="81" y="-7.5" font-family="Helvetica,sans-Serif" font-size="10.00">proteus::cppRANS3PF2D_base</text>
</g>
<!-- Node2 -->
<g id="node2" class="node"><title>Node2</title>
<polygon fill="white" stroke="#bfbfbf" points="15.5,-188.5 15.5,-207.5 146.5,-207.5 146.5,-188.5 15.5,-188.5"/>
<text text-anchor="middle" x="81" y="-195.5" font-family="Helvetica,sans-Serif" font-size="10.00">std::valarray&lt; double &gt;</text>
</g>
<!-- Node2&#45;&gt;Node1 -->
<g id="edge1" class="edge"><title>Node2&#45;&gt;Node1</title>
<path fill="none" stroke="#9a32cd" stroke-dasharray="5,2" d="M81,-177.86C81,-138.211 81,-48.4172 81,-19.8812"/>
<polygon fill="#9a32cd" stroke="#9a32cd" points="77.5001,-178.029 81,-188.029 84.5001,-178.029 77.5001,-178.029"/>
<text text-anchor="middle" x="127.5" y="-162" font-family="Helvetica,sans-Serif" font-size="10.00"> wStar_min_hiHe</text>
<text text-anchor="middle" x="127.5" y="-151" font-family="Helvetica,sans-Serif" font-size="10.00">den_hi</text>
<text text-anchor="middle" x="127.5" y="-140" font-family="Helvetica,sans-Serif" font-size="10.00">vStar_hi</text>
<text text-anchor="start" x="81" y="-129" font-family="Helvetica,sans-Serif" font-size="10.00">TransposeTransport</text>
<text text-anchor="middle" x="127.5" y="-118" font-family="Helvetica,sans-Serif" font-size="10.00">Matrix</text>
<text text-anchor="middle" x="127.5" y="-107" font-family="Helvetica,sans-Serif" font-size="10.00">uStar_hi</text>
<text text-anchor="middle" x="127.5" y="-96" font-family="Helvetica,sans-Serif" font-size="10.00">wStar_hi</text>
<text text-anchor="middle" x="127.5" y="-85" font-family="Helvetica,sans-Serif" font-size="10.00">wStar_psi</text>
<text text-anchor="middle" x="127.5" y="-74" font-family="Helvetica,sans-Serif" font-size="10.00">wStar_gamma</text>
<text text-anchor="middle" x="127.5" y="-63" font-family="Helvetica,sans-Serif" font-size="10.00">vStar_psi</text>
<text text-anchor="middle" x="127.5" y="-52" font-family="Helvetica,sans-Serif" font-size="10.00">uStar_psi</text>
<text text-anchor="middle" x="127.5" y="-41" font-family="Helvetica,sans-Serif" font-size="10.00">...</text>
</g>
</g>
</svg>
