<?xml version="1.0" encoding="UTF-8" standalone="no"?>
<!DOCTYPE svg PUBLIC "-//W3C//DTD SVG 1.1//EN"
 "http://www.w3.org/Graphics/SVG/1.1/DTD/svg11.dtd">
<!-- Generated by graphviz version 2.38.0 (20140413.2041)
 -->
<!-- Title: proteus::Kappa2D&lt; CompKernelType, nSpace, nQuadraturePoints_element, nDOF_mesh_trial_element, nDOF_trial_element, nDOF_test_element, nQuadraturePoints_elementBoundary &gt; Pages: 1 -->
<svg width="330pt" height="139pt"
 viewBox="0.00 0.00 330.00 139.00" xmlns="http://www.w3.org/2000/svg" xmlns:xlink="http://www.w3.org/1999/xlink">
<g id="graph0" class="graph" transform="scale(1 1) rotate(0) translate(4 135)">
<title>proteus::Kappa2D&lt; CompKernelType, nSpace, nQuadraturePoints_element, nDOF_mesh_trial_element, nDOF_trial_element, nDOF_test_element, nQuadraturePoints_elementBoundary &gt;</title>
<polygon fill="white" stroke="none" points="-4,4 -4,-135 326,-135 326,4 -4,4"/>
<!-- Node1 -->
<g id="node1" class="node"><title>Node1</title>
<polygon fill="#bfbfbf" stroke="black" points="41.5,-0.5 41.5,-63.5 259.5,-63.5 259.5,-0.5 41.5,-0.5"/>
<text text-anchor="start" x="49.5" y="-51.5" font-family="Helvetica,sans-Serif" font-size="10.00">proteus::Kappa2D&lt; CompKernel</text>
<text text-anchor="start" x="49.5" y="-40.5" font-family="Helvetica,sans-Serif" font-size="10.00">Type, nSpace, nQuadraturePoints</text>
<text text-anchor="start" x="49.5" y="-29.5" font-family="Helvetica,sans-Serif" font-size="10.00">_element, nDOF_mesh_trial_element,</text>
<text text-anchor="start" x="49.5" y="-18.5" font-family="Helvetica,sans-Serif" font-size="10.00"> nDOF_trial_element, nDOF_test_element,</text>
<text text-anchor="middle" x="150.5" y="-7.5" font-family="Helvetica,sans-Serif" font-size="10.00"> nQuadraturePoints_elementBoundary &gt;</text>
</g>
<!-- Node2 -->
<g id="node2" class="node"><title>Node2</title>
<g id="a_node2"><a xlink:href="classproteus_1_1_kappa2_d__base.html" target="_top" xlink:title="proteus::Kappa2D_base">
<polygon fill="white" stroke="black" points="0,-111.5 0,-130.5 131,-130.5 131,-111.5 0,-111.5"/>
<text text-anchor="middle" x="65.5" y="-118.5" font-family="Helvetica,sans-Serif" font-size="10.00">proteus::Kappa2D_base</text>
</a>
</g>
</g>
<!-- Node2&#45;&gt;Node1 -->
<g id="edge1" class="edge"><title>Node2&#45;&gt;Node1</title>
<path fill="none" stroke="midnightblue" d="M81.199,-103.932C92.246,-92.6247 107.374,-77.1406 120.678,-63.5239"/>
<polygon fill="midnightblue" stroke="midnightblue" points="78.4458,-101.741 73.9609,-111.34 83.4528,-106.633 78.4458,-101.741"/>
</g>
<!-- Node3 -->
<g id="node3" class="node"><title>Node3</title>
<g id="a_node3"><a xlink:href="classproteus_1_1cpp_hsu_sed_stress.html" target="_top" xlink:title="proteus::cppHsuSedStress\&lt; 2 \&gt;">
<polygon fill="white" stroke="black" points="149,-111.5 149,-130.5 322,-130.5 322,-111.5 149,-111.5"/>
<text text-anchor="middle" x="235.5" y="-118.5" font-family="Helvetica,sans-Serif" font-size="10.00">proteus::cppHsuSedStress&lt; 2 &gt;</text>
</a>
</g>
</g>
<!-- Node3&#45;&gt;Node1 -->
<g id="edge2" class="edge"><title>Node3&#45;&gt;Node1</title>
<path fill="none" stroke="#9a32cd" stroke-dasharray="5,2" d="M219.801,-103.932C208.754,-92.6247 193.626,-77.1406 180.322,-63.5239"/>
<polygon fill="#9a32cd" stroke="#9a32cd" points="217.547,-106.633 227.039,-111.34 222.554,-101.741 217.547,-106.633"/>
<text text-anchor="middle" x="226.5" y="-85" font-family="Helvetica,sans-Serif" font-size="10.00"> closure</text>
</g>
</g>
</svg>
