<?xml version="1.0" encoding="UTF-8" standalone="no"?>
<!DOCTYPE svg PUBLIC "-//W3C//DTD SVG 1.1//EN"
 "http://www.w3.org/Graphics/SVG/1.1/DTD/svg11.dtd">
<!-- Generated by graphviz version 2.38.0 (20140413.2041)
 -->
<!-- Title: proteus::cppRANS3PF2D&lt; CompKernelType, nSpace, nQuadraturePoints_element, nDOF_mesh_trial_element, nDOF_trial_element, nDOF_test_element, nQuadraturePoints_elementBoundary &gt; Pages: 1 -->
<svg width="864pt" height="315pt"
 viewBox="0.00 0.00 864.00 314.50" xmlns="http://www.w3.org/2000/svg" xmlns:xlink="http://www.w3.org/1999/xlink">
<g id="graph0" class="graph" transform="scale(1 1) rotate(0) translate(4 310.5)">
<title>proteus::cppRANS3PF2D&lt; CompKernelType, nSpace, nQuadraturePoints_element, nDOF_mesh_trial_element, nDOF_trial_element, nDOF_test_element, nQuadraturePoints_elementBoundary &gt;</title>
<polygon fill="white" stroke="none" points="-4,4 -4,-310.5 860,-310.5 860,4 -4,4"/>
<!-- Node1 -->
<g id="node1" class="node"><title>Node1</title>
<polygon fill="#bfbfbf" stroke="black" points="596,-122.5 596,-196.5 856,-196.5 856,-122.5 596,-122.5"/>
<text text-anchor="start" x="604" y="-184.5" font-family="Helvetica,sans-Serif" font-size="10.00">proteus::cppRANS3PF2D</text>
<text text-anchor="start" x="604" y="-173.5" font-family="Helvetica,sans-Serif" font-size="10.00">&lt; CompKernelType, nSpace,</text>
<text text-anchor="start" x="604" y="-162.5" font-family="Helvetica,sans-Serif" font-size="10.00"> nQuadraturePoints_element,</text>
<text text-anchor="start" x="604" y="-151.5" font-family="Helvetica,sans-Serif" font-size="10.00"> nDOF_mesh_trial_element,</text>
<text text-anchor="start" x="604" y="-140.5" font-family="Helvetica,sans-Serif" font-size="10.00"> nDOF_trial_element, nDOF_test</text>
<text text-anchor="middle" x="726" y="-129.5" font-family="Helvetica,sans-Serif" font-size="10.00">_element, nQuadraturePoints_elementBoundary &gt;</text>
</g>
<!-- Node2 -->
<g id="node2" class="node"><title>Node2</title>
<g id="a_node2"><a xlink:href="classproteus_1_1cpp_r_a_n_s3_p_f2_d__base.html" target="_top" xlink:title="proteus::cppRANS3PF2D_base">
<polygon fill="white" stroke="black" points="276,-185 276,-204 438,-204 438,-185 276,-185"/>
<text text-anchor="middle" x="357" y="-192" font-family="Helvetica,sans-Serif" font-size="10.00">proteus::cppRANS3PF2D_base</text>
</a>
</g>
</g>
<!-- Node2&#45;&gt;Node1 -->
<g id="edge1" class="edge"><title>Node2&#45;&gt;Node1</title>
<path fill="none" stroke="midnightblue" d="M448.272,-185.891C492.664,-181.657 546.968,-176.479 595.678,-171.833"/>
<polygon fill="midnightblue" stroke="midnightblue" points="447.709,-182.429 438.086,-186.862 448.373,-189.397 447.709,-182.429"/>
</g>
<!-- Node3 -->
<g id="node3" class="node"><title>Node3</title>
<polygon fill="white" stroke="#bfbfbf" points="0,-207 0,-226 131,-226 131,-207 0,-207"/>
<text text-anchor="middle" x="65.5" y="-214" font-family="Helvetica,sans-Serif" font-size="10.00">std::valarray&lt; double &gt;</text>
</g>
<!-- Node3&#45;&gt;Node1 -->
<g id="edge4" class="edge"><title>Node3&#45;&gt;Node1</title>
<path fill="none" stroke="#9a32cd" stroke-dasharray="5,2" d="M82.7062,-233.189C98.1624,-247.81 122.897,-268.012 149,-276.5 188.307,-289.282 200.958,-281.4 242,-276.5 368.365,-261.413 509.457,-224.871 606.356,-196.605"/>
<polygon fill="#9a32cd" stroke="#9a32cd" points="85.105,-230.639 75.5114,-226.143 80.2073,-235.641 85.105,-230.639"/>
<text text-anchor="middle" x="357" y="-298.5" font-family="Helvetica,sans-Serif" font-size="10.00"> psi</text>
<text text-anchor="middle" x="357" y="-287.5" font-family="Helvetica,sans-Serif" font-size="10.00">TransposeTransportMatrix</text>
<text text-anchor="middle" x="357" y="-276.5" font-family="Helvetica,sans-Serif" font-size="10.00">TransportMatrix</text>
</g>
<!-- Node3&#45;&gt;Node2 -->
<g id="edge2" class="edge"><title>Node3&#45;&gt;Node2</title>
<path fill="none" stroke="#9a32cd" stroke-dasharray="5,2" d="M79.9224,-199.018C94.6541,-181.409 120.089,-155.342 149,-144.5 187.702,-129.987 206.179,-123.878 242,-144.5 255.807,-152.449 247.034,-166.242 260,-175.5 265.393,-179.35 271.37,-182.468 277.629,-184.988"/>
<polygon fill="#9a32cd" stroke="#9a32cd" points="77.1358,-196.898 73.5819,-206.879 82.5843,-201.292 77.1358,-196.898"/>
<text text-anchor="middle" x="195.5" y="-268.5" font-family="Helvetica,sans-Serif" font-size="10.00"> wStar_min_hiHe</text>
<text text-anchor="middle" x="195.5" y="-257.5" font-family="Helvetica,sans-Serif" font-size="10.00">den_hi</text>
<text text-anchor="middle" x="195.5" y="-246.5" font-family="Helvetica,sans-Serif" font-size="10.00">vStar_hi</text>
<text text-anchor="start" x="149" y="-235.5" font-family="Helvetica,sans-Serif" font-size="10.00">TransposeTransport</text>
<text text-anchor="middle" x="195.5" y="-224.5" font-family="Helvetica,sans-Serif" font-size="10.00">Matrix</text>
<text text-anchor="middle" x="195.5" y="-213.5" font-family="Helvetica,sans-Serif" font-size="10.00">uStar_hi</text>
<text text-anchor="middle" x="195.5" y="-202.5" font-family="Helvetica,sans-Serif" font-size="10.00">wStar_hi</text>
<text text-anchor="middle" x="195.5" y="-191.5" font-family="Helvetica,sans-Serif" font-size="10.00">wStar_psi</text>
<text text-anchor="middle" x="195.5" y="-180.5" font-family="Helvetica,sans-Serif" font-size="10.00">wStar_gamma</text>
<text text-anchor="middle" x="195.5" y="-169.5" font-family="Helvetica,sans-Serif" font-size="10.00">vStar_psi</text>
<text text-anchor="middle" x="195.5" y="-158.5" font-family="Helvetica,sans-Serif" font-size="10.00">uStar_psi</text>
<text text-anchor="middle" x="195.5" y="-147.5" font-family="Helvetica,sans-Serif" font-size="10.00">...</text>
</g>
<!-- Node4 -->
<g id="node4" class="node"><title>Node4</title>
<g id="a_node4"><a xlink:href="classproteus_1_1cpp_hsu_sed_stress.html" target="_top" xlink:title="proteus::cppHsuSedStress\&lt; 2 \&gt;">
<polygon fill="white" stroke="black" points="270.5,-147 270.5,-166 443.5,-166 443.5,-147 270.5,-147"/>
<text text-anchor="middle" x="357" y="-154" font-family="Helvetica,sans-Serif" font-size="10.00">proteus::cppHsuSedStress&lt; 2 &gt;</text>
</a>
</g>
</g>
<!-- Node4&#45;&gt;Node1 -->
<g id="edge3" class="edge"><title>Node4&#45;&gt;Node1</title>
<path fill="none" stroke="#9a32cd" stroke-dasharray="5,2" d="M453.829,-157.283C497.148,-157.637 548.988,-158.061 595.685,-158.443"/>
<polygon fill="#9a32cd" stroke="#9a32cd" points="453.61,-153.782 443.582,-157.2 453.553,-160.781 453.61,-153.782"/>
<text text-anchor="middle" x="525" y="-161.5" font-family="Helvetica,sans-Serif" font-size="10.00"> closure</text>
</g>
<!-- Node5 -->
<g id="node5" class="node"><title>Node5</title>
<polygon fill="white" stroke="#bfbfbf" points="306,-72 306,-91 408,-91 408,-72 306,-72"/>
<text text-anchor="middle" x="357" y="-79" font-family="Helvetica,sans-Serif" font-size="10.00">std::vector&lt; int &gt;</text>
</g>
<!-- Node5&#45;&gt;Node1 -->
<g id="edge5" class="edge"><title>Node5&#45;&gt;Node1</title>
<path fill="none" stroke="#9a32cd" stroke-dasharray="5,2" d="M418.171,-81.0608C462.842,-81.9559 524.949,-85.7853 578,-98.5 601.646,-104.167 626.405,-113.146 648.718,-122.49"/>
<polygon fill="#9a32cd" stroke="#9a32cd" points="418.116,-77.5596 408.062,-80.9023 418.006,-84.5588 418.116,-77.5596"/>
<text text-anchor="start" x="472" y="-145.5" font-family="Helvetica,sans-Serif" font-size="10.00"> surrogate_boundary</text>
<text text-anchor="middle" x="525" y="-134.5" font-family="Helvetica,sans-Serif" font-size="10.00">_elements</text>
<text text-anchor="middle" x="525" y="-123.5" font-family="Helvetica,sans-Serif" font-size="10.00">surrogate_boundaries</text>
<text text-anchor="start" x="472" y="-112.5" font-family="Helvetica,sans-Serif" font-size="10.00">surrogate_boundary</text>
<text text-anchor="middle" x="525" y="-101.5" font-family="Helvetica,sans-Serif" font-size="10.00">_particle</text>
</g>
<!-- Node6 -->
<g id="node6" class="node"><title>Node6</title>
<g id="a_node6"><a xlink:href="classequivalent__polynomials_1_1_generalized_functions__mix.html" target="_top" xlink:title="equivalent_polynomials\l::GeneralizedFunctions\l_mix\&lt; nSpace, 1, nQuadraturePoints\l_element \&gt;">
<polygon fill="white" stroke="black" points="260,-0.5 260,-52.5 454,-52.5 454,-0.5 260,-0.5"/>
<text text-anchor="start" x="268" y="-40.5" font-family="Helvetica,sans-Serif" font-size="10.00">equivalent_polynomials</text>
<text text-anchor="start" x="268" y="-29.5" font-family="Helvetica,sans-Serif" font-size="10.00">::GeneralizedFunctions</text>
<text text-anchor="start" x="268" y="-18.5" font-family="Helvetica,sans-Serif" font-size="10.00">_mix&lt; nSpace, 1, nQuadraturePoints</text>
<text text-anchor="middle" x="357" y="-7.5" font-family="Helvetica,sans-Serif" font-size="10.00">_element &gt;</text>
</a>
</g>
</g>
<!-- Node6&#45;&gt;Node1 -->
<g id="edge6" class="edge"><title>Node6&#45;&gt;Node1</title>
<path fill="none" stroke="#9a32cd" stroke-dasharray="5,2" d="M464.401,-32.1003C501.312,-36.5976 542.357,-44.5431 578,-58.5 616.347,-73.5157 654.526,-100.19 682.362,-122.357"/>
<polygon fill="#9a32cd" stroke="#9a32cd" points="464.44,-28.5821 454.107,-30.9212 463.644,-35.5366 464.44,-28.5821"/>
<text text-anchor="middle" x="525" y="-72.5" font-family="Helvetica,sans-Serif" font-size="10.00"> gf_s</text>
<text text-anchor="middle" x="525" y="-61.5" font-family="Helvetica,sans-Serif" font-size="10.00">gf</text>
</g>
</g>
</svg>
