<?xml version="1.0" encoding="UTF-8" standalone="no"?>
<!DOCTYPE svg PUBLIC "-//W3C//DTD SVG 1.1//EN"
 "http://www.w3.org/Graphics/SVG/1.1/DTD/svg11.dtd">
<!-- Generated by graphviz version 2.38.0 (20140413.2041)
 -->
<!-- Title: proteus::MoveMesh2D&lt; CompKernelType, nSpace, nQuadraturePoints_element, nDOF_mesh_trial_element, nDOF_trial_element, nDOF_test_element, nQuadraturePoints_elementBoundary &gt; Pages: 1 -->
<svg width="288pt" height="150pt"
 viewBox="0.00 0.00 288.00 150.00" xmlns="http://www.w3.org/2000/svg" xmlns:xlink="http://www.w3.org/1999/xlink">
<g id="graph0" class="graph" transform="scale(1 1) rotate(0) translate(4 146)">
<title>proteus::MoveMesh2D&lt; CompKernelType, nSpace, nQuadraturePoints_element, nDOF_mesh_trial_element, nDOF_trial_element, nDOF_test_element, nQuadraturePoints_elementBoundary &gt;</title>
<polygon fill="white" stroke="none" points="-4,4 -4,-146 284,-146 284,4 -4,4"/>
<!-- Node1 -->
<g id="node1" class="node"><title>Node1</title>
<polygon fill="#bfbfbf" stroke="black" points="20,-0.5 20,-74.5 280,-74.5 280,-0.5 20,-0.5"/>
<text text-anchor="start" x="28" y="-62.5" font-family="Helvetica,sans-Serif" font-size="10.00">proteus::MoveMesh2D</text>
<text text-anchor="start" x="28" y="-51.5" font-family="Helvetica,sans-Serif" font-size="10.00">&lt; CompKernelType, nSpace,</text>
<text text-anchor="start" x="28" y="-40.5" font-family="Helvetica,sans-Serif" font-size="10.00"> nQuadraturePoints_element,</text>
<text text-anchor="start" x="28" y="-29.5" font-family="Helvetica,sans-Serif" font-size="10.00"> nDOF_mesh_trial_element,</text>
<text text-anchor="start" x="28" y="-18.5" font-family="Helvetica,sans-Serif" font-size="10.00"> nDOF_trial_element, nDOF_test</text>
<text text-anchor="middle" x="150" y="-7.5" font-family="Helvetica,sans-Serif" font-size="10.00">_element, nQuadraturePoints_elementBoundary &gt;</text>
</g>
<!-- Node2 -->
<g id="node2" class="node"><title>Node2</title>
<g id="a_node2"><a xlink:href="classproteus_1_1_move_mesh2_d__base.html" target="_top" xlink:title="proteus::MoveMesh2D_base">
<polygon fill="white" stroke="black" points="0,-122.5 0,-141.5 152,-141.5 152,-122.5 0,-122.5"/>
<text text-anchor="middle" x="76" y="-129.5" font-family="Helvetica,sans-Serif" font-size="10.00">proteus::MoveMesh2D_base</text>
</a>
</g>
</g>
<!-- Node2&#45;&gt;Node1 -->
<g id="edge1" class="edge"><title>Node2&#45;&gt;Node1</title>
<path fill="none" stroke="midnightblue" d="M89.1403,-114.575C97.9489,-103.564 109.904,-88.6206 120.886,-74.8925"/>
<polygon fill="midnightblue" stroke="midnightblue" points="86.343,-112.468 82.8291,-122.464 91.8091,-116.841 86.343,-112.468"/>
</g>
<!-- Node3 -->
<g id="node3" class="node"><title>Node3</title>
<g id="a_node3"><a xlink:href="class_e_index.html" target="_top" xlink:title="EIndex\&lt; nSpace \&gt;">
<polygon fill="white" stroke="black" points="170.5,-122.5 170.5,-141.5 277.5,-141.5 277.5,-122.5 170.5,-122.5"/>
<text text-anchor="middle" x="224" y="-129.5" font-family="Helvetica,sans-Serif" font-size="10.00">EIndex&lt; nSpace &gt;</text>
</a>
</g>
</g>
<!-- Node3&#45;&gt;Node1 -->
<g id="edge2" class="edge"><title>Node3&#45;&gt;Node1</title>
<path fill="none" stroke="#9a32cd" stroke-dasharray="5,2" d="M210.86,-114.575C202.051,-103.564 190.096,-88.6206 179.114,-74.8925"/>
<polygon fill="#9a32cd" stroke="#9a32cd" points="208.191,-116.841 217.171,-122.464 213.657,-112.468 208.191,-116.841"/>
<text text-anchor="middle" x="209" y="-96" font-family="Helvetica,sans-Serif" font-size="10.00"> ei</text>
</g>
</g>
</svg>
