<?xml version="1.0" encoding="UTF-8" standalone="no"?>
<!DOCTYPE svg PUBLIC "-//W3C//DTD SVG 1.1//EN"
 "http://www.w3.org/Graphics/SVG/1.1/DTD/svg11.dtd">
<!-- Generated by graphviz version 2.38.0 (20140413.2041)
 -->
<!-- Title: proteus::GN_SW2DCV_base Pages: 1 -->
<svg width="158pt" height="205pt"
 viewBox="0.00 0.00 158.00 205.00" xmlns="http://www.w3.org/2000/svg" xmlns:xlink="http://www.w3.org/1999/xlink">
<g id="graph0" class="graph" transform="scale(1 1) rotate(0) translate(4 201)">
<title>proteus::GN_SW2DCV_base</title>
<polygon fill="white" stroke="none" points="-4,4 -4,-201 154,-201 154,4 -4,4"/>
<!-- Node1 -->
<g id="node1" class="node"><title>Node1</title>
<polygon fill="#bfbfbf" stroke="black" points="-1.42109e-14,-0.5 -1.42109e-14,-19.5 150,-19.5 150,-0.5 -1.42109e-14,-0.5"/>
<text text-anchor="middle" x="75" y="-7.5" font-family="Helvetica,sans-Serif" font-size="10.00">proteus::GN_SW2DCV_base</text>
</g>
<!-- Node2 -->
<g id="node2" class="node"><title>Node2</title>
<polygon fill="white" stroke="#bfbfbf" points="9.5,-177.5 9.5,-196.5 140.5,-196.5 140.5,-177.5 9.5,-177.5"/>
<text text-anchor="middle" x="75" y="-184.5" font-family="Helvetica,sans-Serif" font-size="10.00">std::valarray&lt; double &gt;</text>
</g>
<!-- Node2&#45;&gt;Node1 -->
<g id="edge1" class="edge"><title>Node2&#45;&gt;Node1</title>
<path fill="none" stroke="#9a32cd" stroke-dasharray="5,2" d="M75,-166.951C75,-129.297 75,-46.6537 75,-19.6932"/>
<polygon fill="#9a32cd" stroke="#9a32cd" points="71.5001,-167.081 75,-177.081 78.5001,-167.081 71.5001,-167.081"/>
<text text-anchor="middle" x="101" y="-151" font-family="Helvetica,sans-Serif" font-size="10.00"> Rpos</text>
<text text-anchor="middle" x="101" y="-140" font-family="Helvetica,sans-Serif" font-size="10.00">hwLow</text>
<text text-anchor="middle" x="101" y="-129" font-family="Helvetica,sans-Serif" font-size="10.00">Rpos_heta</text>
<text text-anchor="middle" x="101" y="-118" font-family="Helvetica,sans-Serif" font-size="10.00">Rneg_heta</text>
<text text-anchor="middle" x="101" y="-107" font-family="Helvetica,sans-Serif" font-size="10.00">hvLow</text>
<text text-anchor="middle" x="101" y="-96" font-family="Helvetica,sans-Serif" font-size="10.00">huLow</text>
<text text-anchor="middle" x="101" y="-85" font-family="Helvetica,sans-Serif" font-size="10.00">Kmax</text>
<text text-anchor="middle" x="101" y="-74" font-family="Helvetica,sans-Serif" font-size="10.00">Rneg</text>
<text text-anchor="middle" x="101" y="-63" font-family="Helvetica,sans-Serif" font-size="10.00">hLow</text>
<text text-anchor="middle" x="101" y="-52" font-family="Helvetica,sans-Serif" font-size="10.00">hetaLow</text>
<text text-anchor="middle" x="101" y="-41" font-family="Helvetica,sans-Serif" font-size="10.00">...</text>
</g>
</g>
</svg>
