<?xml version="1.0" encoding="UTF-8" standalone="no"?>
<!DOCTYPE svg PUBLIC "-//W3C//DTD SVG 1.1//EN"
 "http://www.w3.org/Graphics/SVG/1.1/DTD/svg11.dtd">
<!-- Generated by graphviz version 2.38.0 (20140413.2041)
 -->
<!-- Title: equivalent_polynomials_coefficients.h Pages: 1 -->
<svg width="494pt" height="151pt"
 viewBox="0.00 0.00 494.00 151.00" xmlns="http://www.w3.org/2000/svg" xmlns:xlink="http://www.w3.org/1999/xlink">
<g id="graph0" class="graph" transform="scale(1 1) rotate(0) translate(4 147)">
<title>equivalent_polynomials_coefficients.h</title>
<polygon fill="white" stroke="none" points="-4,4 -4,-147 490,-147 490,4 -4,4"/>
<!-- Node1 -->
<g id="node1" class="node"><title>Node1</title>
<polygon fill="#bfbfbf" stroke="black" points="171.5,-112.5 171.5,-142.5 299.5,-142.5 299.5,-112.5 171.5,-112.5"/>
<text text-anchor="start" x="179.5" y="-130.5" font-family="Helvetica,sans-Serif" font-size="10.00">equivalent_polynomials</text>
<text text-anchor="middle" x="235.5" y="-119.5" font-family="Helvetica,sans-Serif" font-size="10.00">_coefficients.h</text>
</g>
<!-- Node2 -->
<g id="node2" class="node"><title>Node2</title>
<g id="a_node2"><a xlink:href="equivalent__polynomials_8h.html" target="_top" xlink:title="equivalent_polynomials.h">
<polygon fill="white" stroke="black" points="167,-56.5 167,-75.5 304,-75.5 304,-56.5 167,-56.5"/>
<text text-anchor="middle" x="235.5" y="-63.5" font-family="Helvetica,sans-Serif" font-size="10.00">equivalent_polynomials.h</text>
</a>
</g>
</g>
<!-- Node1&#45;&gt;Node2 -->
<g id="edge1" class="edge"><title>Node1&#45;&gt;Node2</title>
<path fill="none" stroke="midnightblue" d="M235.5,-102.289C235.5,-92.857 235.5,-82.6548 235.5,-75.6578"/>
<polygon fill="midnightblue" stroke="midnightblue" points="232,-102.399 235.5,-112.399 239,-102.399 232,-102.399"/>
</g>
<!-- Node3 -->
<g id="node3" class="node"><title>Node3</title>
<g id="a_node3"><a xlink:href="_m_corr_8h.html" target="_top" xlink:title="MCorr.h">
<polygon fill="white" stroke="black" points="0,-0.5 0,-19.5 53,-19.5 53,-0.5 0,-0.5"/>
<text text-anchor="middle" x="26.5" y="-7.5" font-family="Helvetica,sans-Serif" font-size="10.00">MCorr.h</text>
</a>
</g>
</g>
<!-- Node2&#45;&gt;Node3 -->
<g id="edge2" class="edge"><title>Node2&#45;&gt;Node3</title>
<path fill="none" stroke="midnightblue" d="M192.471,-53.8824C150.605,-43.0655 88.3169,-26.9718 53.1615,-17.8886"/>
<polygon fill="midnightblue" stroke="midnightblue" points="191.826,-57.3306 202.383,-56.4435 193.577,-50.5532 191.826,-57.3306"/>
</g>
<!-- Node4 -->
<g id="node4" class="node"><title>Node4</title>
<g id="a_node4"><a xlink:href="_r_a_n_s2_p_8h.html" target="_top" xlink:title="RANS2P.h">
<polygon fill="white" stroke="black" points="71.5,-0.5 71.5,-19.5 133.5,-19.5 133.5,-0.5 71.5,-0.5"/>
<text text-anchor="middle" x="102.5" y="-7.5" font-family="Helvetica,sans-Serif" font-size="10.00">RANS2P.h</text>
</a>
</g>
</g>
<!-- Node2&#45;&gt;Node4 -->
<g id="edge3" class="edge"><title>Node2&#45;&gt;Node4</title>
<path fill="none" stroke="midnightblue" d="M205.052,-52.6377C180.093,-42.504 145.423,-28.4274 123.476,-19.5164"/>
<polygon fill="midnightblue" stroke="midnightblue" points="203.844,-55.9245 214.426,-56.4435 206.477,-49.4387 203.844,-55.9245"/>
</g>
<!-- Node5 -->
<g id="node5" class="node"><title>Node5</title>
<g id="a_node5"><a xlink:href="_r_a_n_s2_p2_d_8h.html" target="_top" xlink:title="RANS2P2D.h">
<polygon fill="white" stroke="black" points="152,-0.5 152,-19.5 229,-19.5 229,-0.5 152,-0.5"/>
<text text-anchor="middle" x="190.5" y="-7.5" font-family="Helvetica,sans-Serif" font-size="10.00">RANS2P2D.h</text>
</a>
</g>
</g>
<!-- Node2&#45;&gt;Node5 -->
<g id="edge4" class="edge"><title>Node2&#45;&gt;Node5</title>
<path fill="none" stroke="midnightblue" d="M221.453,-48.144C213.613,-38.7357 204.171,-27.4046 197.793,-19.7511"/>
<polygon fill="midnightblue" stroke="midnightblue" points="218.979,-50.6414 228.069,-56.083 224.356,-46.1601 218.979,-50.6414"/>
</g>
<!-- Node6 -->
<g id="node6" class="node"><title>Node6</title>
<g id="a_node6"><a xlink:href="_r_a_n_s3_p_f_8h.html" target="_top" xlink:title="RANS3PF.h">
<polygon fill="white" stroke="black" points="247.5,-0.5 247.5,-19.5 315.5,-19.5 315.5,-0.5 247.5,-0.5"/>
<text text-anchor="middle" x="281.5" y="-7.5" font-family="Helvetica,sans-Serif" font-size="10.00">RANS3PF.h</text>
</a>
</g>
</g>
<!-- Node2&#45;&gt;Node6 -->
<g id="edge5" class="edge"><title>Node2&#45;&gt;Node6</title>
<path fill="none" stroke="midnightblue" d="M249.614,-48.4314C257.676,-38.9673 267.459,-27.4827 274.045,-19.7511"/>
<polygon fill="midnightblue" stroke="midnightblue" points="246.916,-46.2009 243.096,-56.083 252.245,-50.7402 246.916,-46.2009"/>
</g>
<!-- Node7 -->
<g id="node7" class="node"><title>Node7</title>
<g id="a_node7"><a xlink:href="_r_a_n_s3_p_f2_d_8h.html" target="_top" xlink:title="RANS3PF2D.h">
<polygon fill="white" stroke="black" points="334,-0.5 334,-19.5 417,-19.5 417,-0.5 334,-0.5"/>
<text text-anchor="middle" x="375.5" y="-7.5" font-family="Helvetica,sans-Serif" font-size="10.00">RANS3PF2D.h</text>
</a>
</g>
</g>
<!-- Node2&#45;&gt;Node7 -->
<g id="edge6" class="edge"><title>Node2&#45;&gt;Node7</title>
<path fill="none" stroke="midnightblue" d="M267.202,-52.772C293.5,-42.6287 330.216,-28.4669 353.42,-19.5164"/>
<polygon fill="midnightblue" stroke="midnightblue" points="265.754,-49.5792 257.683,-56.4435 268.273,-56.1103 265.754,-49.5792"/>
</g>
<!-- Node8 -->
<g id="node8" class="node"><title>Node8</title>
<g id="a_node8"><a xlink:href="_r_d_l_s_8h.html" target="_top" xlink:title="RDLS.h">
<polygon fill="white" stroke="black" points="435,-0.5 435,-19.5 486,-19.5 486,-0.5 435,-0.5"/>
<text text-anchor="middle" x="460.5" y="-7.5" font-family="Helvetica,sans-Serif" font-size="10.00">RDLS.h</text>
</a>
</g>
</g>
<!-- Node2&#45;&gt;Node8 -->
<g id="edge7" class="edge"><title>Node2&#45;&gt;Node8</title>
<path fill="none" stroke="midnightblue" d="M283.206,-54.142C321.897,-45.2441 377.807,-32.1784 426.5,-20 429.225,-19.3185 432.068,-18.5913 434.9,-17.8569"/>
<polygon fill="midnightblue" stroke="midnightblue" points="282.227,-50.7756 273.264,-56.4239 283.793,-57.5982 282.227,-50.7756"/>
</g>
</g>
</svg>
