<?xml version="1.0" encoding="UTF-8" standalone="no"?>
<!DOCTYPE svg PUBLIC "-//W3C//DTD SVG 1.1//EN"
 "http://www.w3.org/Graphics/SVG/1.1/DTD/svg11.dtd">
<!-- Generated by graphviz version 2.38.0 (20140413.2041)
 -->
<!-- Title: femIntegrals.c Pages: 1 -->
<svg width="521pt" height="84pt"
 viewBox="0.00 0.00 520.50 84.00" xmlns="http://www.w3.org/2000/svg" xmlns:xlink="http://www.w3.org/1999/xlink">
<g id="graph0" class="graph" transform="scale(1 1) rotate(0) translate(4 80)">
<title>femIntegrals.c</title>
<polygon fill="white" stroke="none" points="-4,4 -4,-80 516.5,-80 516.5,4 -4,4"/>
<!-- Node1 -->
<g id="node1" class="node"><title>Node1</title>
<polygon fill="#bfbfbf" stroke="black" points="189,-56.5 189,-75.5 274,-75.5 274,-56.5 189,-56.5"/>
<text text-anchor="middle" x="231.5" y="-63.5" font-family="Helvetica,sans-Serif" font-size="10.00">femIntegrals.c</text>
</g>
<!-- Node2 -->
<g id="node2" class="node"><title>Node2</title>
<polygon fill="white" stroke="#bfbfbf" points="0,-0.5 0,-19.5 51,-19.5 51,-0.5 0,-0.5"/>
<text text-anchor="middle" x="25.5" y="-7.5" font-family="Helvetica,sans-Serif" font-size="10.00">stdlib.h</text>
</g>
<!-- Node1&#45;&gt;Node2 -->
<g id="edge1" class="edge"><title>Node1&#45;&gt;Node2</title>
<path fill="none" stroke="midnightblue" d="M198.839,-56.4849C166.263,-47.9853 114.521,-34.4673 61.1066,-20.418"/>
<polygon fill="midnightblue" stroke="midnightblue" points="61.6791,-16.9496 51.1177,-17.7896 59.8978,-23.7192 61.6791,-16.9496"/>
</g>
<!-- Node3 -->
<g id="node3" class="node"><title>Node3</title>
<polygon fill="white" stroke="#bfbfbf" points="69,-0.5 69,-19.5 118,-19.5 118,-0.5 69,-0.5"/>
<text text-anchor="middle" x="93.5" y="-7.5" font-family="Helvetica,sans-Serif" font-size="10.00">stdio.h</text>
</g>
<!-- Node1&#45;&gt;Node3 -->
<g id="edge2" class="edge"><title>Node1&#45;&gt;Node3</title>
<path fill="none" stroke="midnightblue" d="M209.633,-56.4435C186.721,-47.4776 150.525,-33.314 124.634,-23.1827"/>
<polygon fill="midnightblue" stroke="midnightblue" points="125.852,-19.9011 115.264,-19.5164 123.301,-26.4198 125.852,-19.9011"/>
</g>
<!-- Node4 -->
<g id="node4" class="node"><title>Node4</title>
<polygon fill="white" stroke="#bfbfbf" points="136,-0.5 136,-19.5 187,-19.5 187,-0.5 136,-0.5"/>
<text text-anchor="middle" x="161.5" y="-7.5" font-family="Helvetica,sans-Serif" font-size="10.00">math.h</text>
</g>
<!-- Node1&#45;&gt;Node4 -->
<g id="edge3" class="edge"><title>Node1&#45;&gt;Node4</title>
<path fill="none" stroke="midnightblue" d="M220.253,-56.324C209.703,-48.1849 193.699,-35.8395 181.058,-26.0874"/>
<polygon fill="midnightblue" stroke="midnightblue" points="183.007,-23.1707 172.951,-19.8339 178.731,-28.7132 183.007,-23.1707"/>
</g>
<!-- Node5 -->
<g id="node5" class="node"><title>Node5</title>
<polygon fill="white" stroke="#bfbfbf" points="205,-0.5 205,-19.5 258,-19.5 258,-0.5 205,-0.5"/>
<text text-anchor="middle" x="231.5" y="-7.5" font-family="Helvetica,sans-Serif" font-size="10.00">string.h</text>
</g>
<!-- Node1&#45;&gt;Node5 -->
<g id="edge4" class="edge"><title>Node1&#45;&gt;Node5</title>
<path fill="none" stroke="midnightblue" d="M231.5,-56.083C231.5,-49.0059 231.5,-38.8611 231.5,-29.9865"/>
<polygon fill="midnightblue" stroke="midnightblue" points="235,-29.751 231.5,-19.7511 228,-29.7511 235,-29.751"/>
</g>
<!-- Node6 -->
<g id="node6" class="node"><title>Node6</title>
<polygon fill="white" stroke="#bfbfbf" points="276.5,-0.5 276.5,-19.5 334.5,-19.5 334.5,-0.5 276.5,-0.5"/>
<text text-anchor="middle" x="305.5" y="-7.5" font-family="Helvetica,sans-Serif" font-size="10.00">strings.h</text>
</g>
<!-- Node1&#45;&gt;Node6 -->
<g id="edge5" class="edge"><title>Node1&#45;&gt;Node6</title>
<path fill="none" stroke="midnightblue" d="M243.389,-56.324C254.65,-48.1066 271.787,-35.6017 285.209,-25.8069"/>
<polygon fill="midnightblue" stroke="midnightblue" points="287.38,-28.5559 293.394,-19.8339 283.253,-22.9014 287.38,-28.5559"/>
</g>
<!-- Node7 -->
<g id="node7" class="node"><title>Node7</title>
<polygon fill="white" stroke="#bfbfbf" points="352.5,-0.5 352.5,-19.5 408.5,-19.5 408.5,-0.5 352.5,-0.5"/>
<text text-anchor="middle" x="380.5" y="-7.5" font-family="Helvetica,sans-Serif" font-size="10.00">assert.h</text>
</g>
<!-- Node1&#45;&gt;Node7 -->
<g id="edge6" class="edge"><title>Node1&#45;&gt;Node7</title>
<path fill="none" stroke="midnightblue" d="M255.109,-56.4435C279.958,-47.4381 319.274,-33.1891 347.254,-23.049"/>
<polygon fill="midnightblue" stroke="midnightblue" points="348.792,-26.2144 357.001,-19.5164 346.407,-19.6332 348.792,-26.2144"/>
</g>
<!-- Node8 -->
<g id="node8" class="node"><title>Node8</title>
<g id="a_node8"><a xlink:href="fem_integrals_8h.html" target="_top" xlink:title="A library of functions for computing the discrete finite element formulations. ">
<polygon fill="white" stroke="black" points="426.5,-0.5 426.5,-19.5 512.5,-19.5 512.5,-0.5 426.5,-0.5"/>
<text text-anchor="middle" x="469.5" y="-7.5" font-family="Helvetica,sans-Serif" font-size="10.00">femIntegrals.h</text>
</a>
</g>
</g>
<!-- Node1&#45;&gt;Node8 -->
<g id="edge7" class="edge"><title>Node1&#45;&gt;Node8</title>
<path fill="none" stroke="midnightblue" d="M269.212,-56.4435C310.643,-47.0431 377.257,-31.9291 422.167,-21.7393"/>
<polygon fill="midnightblue" stroke="midnightblue" points="422.987,-25.1424 431.965,-19.5164 421.438,-18.3159 422.987,-25.1424"/>
</g>
</g>
</svg>
