<?xml version="1.0" encoding="UTF-8" standalone="no"?>
<!DOCTYPE svg PUBLIC "-//W3C//DTD SVG 1.1//EN"
 "http://www.w3.org/Graphics/SVG/1.1/DTD/svg11.dtd">
<!-- Generated by graphviz version 2.38.0 (20140413.2041)
 -->
<!-- Title: flopTest.c Pages: 1 -->
<svg width="402pt" height="84pt"
 viewBox="0.00 0.00 401.50 84.00" xmlns="http://www.w3.org/2000/svg" xmlns:xlink="http://www.w3.org/1999/xlink">
<g id="graph0" class="graph" transform="scale(1 1) rotate(0) translate(4 80)">
<title>flopTest.c</title>
<polygon fill="white" stroke="none" points="-4,4 -4,-80 397.5,-80 397.5,4 -4,4"/>
<!-- Node1 -->
<g id="node1" class="node"><title>Node1</title>
<polygon fill="#bfbfbf" stroke="black" points="134,-56.5 134,-75.5 195,-75.5 195,-56.5 134,-56.5"/>
<text text-anchor="middle" x="164.5" y="-63.5" font-family="Helvetica,sans-Serif" font-size="10.00">flopTest.c</text>
</g>
<!-- Node2 -->
<g id="node2" class="node"><title>Node2</title>
<polygon fill="white" stroke="#bfbfbf" points="0,-0.5 0,-19.5 51,-19.5 51,-0.5 0,-0.5"/>
<text text-anchor="middle" x="25.5" y="-7.5" font-family="Helvetica,sans-Serif" font-size="10.00">stdlib.h</text>
</g>
<!-- Node1&#45;&gt;Node2 -->
<g id="edge1" class="edge"><title>Node1&#45;&gt;Node2</title>
<path fill="none" stroke="midnightblue" d="M142.475,-56.4435C119.396,-47.4776 82.938,-33.314 56.8591,-23.1827"/>
<polygon fill="midnightblue" stroke="midnightblue" points="58.0107,-19.8753 47.4219,-19.5164 55.4758,-26.4002 58.0107,-19.8753"/>
</g>
<!-- Node3 -->
<g id="node3" class="node"><title>Node3</title>
<polygon fill="white" stroke="#bfbfbf" points="69,-0.5 69,-19.5 122,-19.5 122,-0.5 69,-0.5"/>
<text text-anchor="middle" x="95.5" y="-7.5" font-family="Helvetica,sans-Serif" font-size="10.00">stdint.h</text>
</g>
<!-- Node1&#45;&gt;Node3 -->
<g id="edge2" class="edge"><title>Node1&#45;&gt;Node3</title>
<path fill="none" stroke="midnightblue" d="M153.414,-56.324C143.014,-48.1849 127.239,-35.8395 114.778,-26.0874"/>
<polygon fill="midnightblue" stroke="midnightblue" points="116.82,-23.2407 106.788,-19.8339 112.506,-28.7533 116.82,-23.2407"/>
</g>
<!-- Node4 -->
<g id="node4" class="node"><title>Node4</title>
<polygon fill="white" stroke="#bfbfbf" points="140,-0.5 140,-19.5 189,-19.5 189,-0.5 140,-0.5"/>
<text text-anchor="middle" x="164.5" y="-7.5" font-family="Helvetica,sans-Serif" font-size="10.00">stdio.h</text>
</g>
<!-- Node1&#45;&gt;Node4 -->
<g id="edge3" class="edge"><title>Node1&#45;&gt;Node4</title>
<path fill="none" stroke="midnightblue" d="M164.5,-56.083C164.5,-49.0059 164.5,-38.8611 164.5,-29.9865"/>
<polygon fill="midnightblue" stroke="midnightblue" points="168,-29.751 164.5,-19.7511 161,-29.7511 168,-29.751"/>
</g>
<!-- Node5 -->
<g id="node5" class="node"><title>Node5</title>
<polygon fill="white" stroke="#bfbfbf" points="207.5,-0.5 207.5,-19.5 265.5,-19.5 265.5,-0.5 207.5,-0.5"/>
<text text-anchor="middle" x="236.5" y="-7.5" font-family="Helvetica,sans-Serif" font-size="10.00">strings.h</text>
</g>
<!-- Node1&#45;&gt;Node5 -->
<g id="edge4" class="edge"><title>Node1&#45;&gt;Node5</title>
<path fill="none" stroke="midnightblue" d="M176.068,-56.324C186.92,-48.1849 203.381,-35.8395 216.383,-26.0874"/>
<polygon fill="midnightblue" stroke="midnightblue" points="218.821,-28.6339 224.721,-19.8339 214.621,-23.0339 218.821,-28.6339"/>
</g>
<!-- Node6 -->
<g id="node6" class="node"><title>Node6</title>
<polygon fill="white" stroke="#bfbfbf" points="283.5,-0.5 283.5,-19.5 393.5,-19.5 393.5,-0.5 283.5,-0.5"/>
<text text-anchor="middle" x="338.5" y="-7.5" font-family="Helvetica,sans-Serif" font-size="10.00">mach/mach_time.h</text>
</g>
<!-- Node1&#45;&gt;Node6 -->
<g id="edge5" class="edge"><title>Node1&#45;&gt;Node6</title>
<path fill="none" stroke="midnightblue" d="M192.071,-56.4435C221.597,-47.2801 268.618,-32.6876 301.383,-22.5192"/>
<polygon fill="midnightblue" stroke="midnightblue" points="302.545,-25.8232 311.058,-19.5164 300.47,-19.1378 302.545,-25.8232"/>
</g>
</g>
</svg>
