<?xml version="1.0" encoding="UTF-8" standalone="no"?>
<!DOCTYPE svg PUBLIC "-//W3C//DTD SVG 1.1//EN"
 "http://www.w3.org/Graphics/SVG/1.1/DTD/svg11.dtd">
<!-- Generated by graphviz version 2.38.0 (20140413.2041)
 -->
<!-- Title: Graphical Class Hierarchy Pages: 1 -->
<svg width="450pt" height="83pt"
 viewBox="0.00 0.00 450.00 83.00" xmlns="http://www.w3.org/2000/svg" xmlns:xlink="http://www.w3.org/1999/xlink">
<g id="graph0" class="graph" transform="scale(1 1) rotate(0) translate(4 79)">
<title>Graphical Class Hierarchy</title>
<polygon fill="white" stroke="none" points="-4,4 -4,-79 446,-79 446,4 -4,4"/>
<!-- Node1 -->
<g id="node1" class="node"><title>Node1</title>
<g id="a_node1"><a xlink:href="classproteus_1_1cpp_m_corr3_p__base.html" target="_top" xlink:title="proteus::cppMCorr3P_base">
<polygon fill="white" stroke="black" points="0,-28 0,-47 146,-47 146,-28 0,-28"/>
<text text-anchor="middle" x="73" y="-35" font-family="Helvetica,sans-Serif" font-size="10.00">proteus::cppMCorr3P_base</text>
</a>
</g>
</g>
<!-- Node2 -->
<g id="node2" class="node"><title>Node2</title>
<g id="a_node2"><a xlink:href="classproteus_1_1cpp_m_corr3_p.html" target="_top" xlink:title="proteus::cppMCorr3P\l\&lt; CompKernelType, nSpace,\l nQuadraturePoints_element,\l nDOF_mesh_trial_element,\l nDOF_trial_element, nDOF_test\l_element, nQuadraturePoints_elementBoundary \&gt;">
<polygon fill="white" stroke="black" points="182,-0.5 182,-74.5 442,-74.5 442,-0.5 182,-0.5"/>
<text text-anchor="start" x="190" y="-62.5" font-family="Helvetica,sans-Serif" font-size="10.00">proteus::cppMCorr3P</text>
<text text-anchor="start" x="190" y="-51.5" font-family="Helvetica,sans-Serif" font-size="10.00">&lt; CompKernelType, nSpace,</text>
<text text-anchor="start" x="190" y="-40.5" font-family="Helvetica,sans-Serif" font-size="10.00"> nQuadraturePoints_element,</text>
<text text-anchor="start" x="190" y="-29.5" font-family="Helvetica,sans-Serif" font-size="10.00"> nDOF_mesh_trial_element,</text>
<text text-anchor="start" x="190" y="-18.5" font-family="Helvetica,sans-Serif" font-size="10.00"> nDOF_trial_element, nDOF_test</text>
<text text-anchor="middle" x="312" y="-7.5" font-family="Helvetica,sans-Serif" font-size="10.00">_element, nQuadraturePoints_elementBoundary &gt;</text>
</a>
</g>
</g>
<!-- Node1&#45;&gt;Node2 -->
<g id="edge1" class="edge"><title>Node1&#45;&gt;Node2</title>
<path fill="none" stroke="midnightblue" d="M156.152,-37.5C164.535,-37.5 173.187,-37.5 181.916,-37.5"/>
<polygon fill="midnightblue" stroke="midnightblue" points="156.073,-34.0001 146.073,-37.5 156.073,-41.0001 156.073,-34.0001"/>
</g>
</g>
</svg>
