<?xml version="1.0" encoding="UTF-8" standalone="no"?>
<!DOCTYPE svg PUBLIC "-//W3C//DTD SVG 1.1//EN"
 "http://www.w3.org/Graphics/SVG/1.1/DTD/svg11.dtd">
<!-- Generated by graphviz version 2.38.0 (20140413.2041)
 -->
<!-- Title: Graphical Class Hierarchy Pages: 1 -->
<svg width="374pt" height="142pt"
 viewBox="0.00 0.00 374.00 142.00" xmlns="http://www.w3.org/2000/svg" xmlns:xlink="http://www.w3.org/1999/xlink">
<g id="graph0" class="graph" transform="scale(1 1) rotate(0) translate(4 138)">
<title>Graphical Class Hierarchy</title>
<polygon fill="white" stroke="none" points="-4,4 -4,-138 370,-138 370,4 -4,4"/>
<!-- Node1 -->
<g id="node1" class="node"><title>Node1</title>
<g id="a_node1"><a xlink:href="class_density_relation.html" target="_top" xlink:title="DensityRelation">
<polygon fill="white" stroke="black" points="0,-57.5 0,-76.5 90,-76.5 90,-57.5 0,-57.5"/>
<text text-anchor="middle" x="45" y="-64.5" font-family="Helvetica,sans-Serif" font-size="10.00">DensityRelation</text>
</a>
</g>
</g>
<!-- Node2 -->
<g id="node2" class="node"><title>Node2</title>
<g id="a_node2"><a xlink:href="class_constant_density.html" target="_top" xlink:title="ConstantDensity">
<polygon fill="white" stroke="black" points="126,-114.5 126,-133.5 222,-133.5 222,-114.5 126,-114.5"/>
<text text-anchor="middle" x="174" y="-121.5" font-family="Helvetica,sans-Serif" font-size="10.00">ConstantDensity</text>
</a>
</g>
</g>
<!-- Node1&#45;&gt;Node2 -->
<g id="edge1" class="edge"><title>Node1&#45;&gt;Node2</title>
<path fill="none" stroke="midnightblue" d="M74.6084,-81.0941C89.7799,-88.4399 108.793,-97.4431 126,-105 133.253,-108.185 141.215,-111.479 148.491,-114.412"/>
<polygon fill="midnightblue" stroke="midnightblue" points="75.774,-77.7688 65.2508,-76.5381 72.7097,-84.0625 75.774,-77.7688"/>
</g>
<!-- Node3 -->
<g id="node3" class="node"><title>Node3</title>
<g id="a_node3"><a xlink:href="class_ideal_gas_density.html" target="_top" xlink:title="IdealGasDensity">
<polygon fill="white" stroke="black" points="127,-76.5 127,-95.5 221,-95.5 221,-76.5 127,-76.5"/>
<text text-anchor="middle" x="174" y="-83.5" font-family="Helvetica,sans-Serif" font-size="10.00">IdealGasDensity</text>
</a>
</g>
</g>
<!-- Node1&#45;&gt;Node3 -->
<g id="edge2" class="edge"><title>Node1&#45;&gt;Node3</title>
<path fill="none" stroke="midnightblue" d="M100.005,-75.0794C108.942,-76.4165 118.136,-77.792 126.857,-79.0967"/>
<polygon fill="midnightblue" stroke="midnightblue" points="100.47,-71.6102 90.062,-73.592 99.4341,-78.5331 100.47,-71.6102"/>
</g>
<!-- Node4 -->
<g id="node4" class="node"><title>Node4</title>
<g id="a_node4"><a xlink:href="class_linear_density.html" target="_top" xlink:title="LinearDensity">
<polygon fill="white" stroke="black" points="133,-38.5 133,-57.5 215,-57.5 215,-38.5 133,-38.5"/>
<text text-anchor="middle" x="174" y="-45.5" font-family="Helvetica,sans-Serif" font-size="10.00">LinearDensity</text>
</a>
</g>
</g>
<!-- Node1&#45;&gt;Node4 -->
<g id="edge3" class="edge"><title>Node1&#45;&gt;Node4</title>
<path fill="none" stroke="midnightblue" d="M100.022,-58.918C111.029,-57.2713 122.424,-55.5665 132.845,-54.0074"/>
<polygon fill="midnightblue" stroke="midnightblue" points="99.4341,-55.4669 90.062,-60.408 100.47,-62.3898 99.4341,-55.4669"/>
</g>
<!-- Node6 -->
<g id="node6" class="node"><title>Node6</title>
<g id="a_node6"><a xlink:href="class_real_gas_density.html" target="_top" xlink:title="RealGasDensity">
<polygon fill="white" stroke="black" points="128.5,-0.5 128.5,-19.5 219.5,-19.5 219.5,-0.5 128.5,-0.5"/>
<text text-anchor="middle" x="174" y="-7.5" font-family="Helvetica,sans-Serif" font-size="10.00">RealGasDensity</text>
</a>
</g>
</g>
<!-- Node1&#45;&gt;Node6 -->
<g id="edge5" class="edge"><title>Node1&#45;&gt;Node6</title>
<path fill="none" stroke="midnightblue" d="M74.6084,-52.9059C89.7799,-45.5601 108.793,-36.5569 126,-29 133.253,-25.8149 141.215,-22.521 148.491,-19.5885"/>
<polygon fill="midnightblue" stroke="midnightblue" points="72.7097,-49.9375 65.2508,-57.4619 75.774,-56.2312 72.7097,-49.9375"/>
</g>
<!-- Node5 -->
<g id="node5" class="node"><title>Node5</title>
<g id="a_node5"><a xlink:href="class_exponential_density.html" target="_top" xlink:title="ExponentialDensity">
<polygon fill="white" stroke="black" points="258,-38.5 258,-57.5 366,-57.5 366,-38.5 258,-38.5"/>
<text text-anchor="middle" x="312" y="-45.5" font-family="Helvetica,sans-Serif" font-size="10.00">ExponentialDensity</text>
</a>
</g>
</g>
<!-- Node4&#45;&gt;Node5 -->
<g id="edge4" class="edge"><title>Node4&#45;&gt;Node5</title>
<path fill="none" stroke="midnightblue" d="M225.342,-48C235.859,-48 246.98,-48 257.603,-48"/>
<polygon fill="midnightblue" stroke="midnightblue" points="225.069,-44.5001 215.069,-48 225.069,-51.5001 225.069,-44.5001"/>
</g>
</g>
</svg>
