<?xml version="1.0" encoding="UTF-8" standalone="no"?>
<!DOCTYPE svg PUBLIC "-//W3C//DTD SVG 1.1//EN"
 "http://www.w3.org/Graphics/SVG/1.1/DTD/svg11.dtd">
<!-- Generated by graphviz version 2.38.0 (20140413.2041)
 -->
<!-- Title: mesh.h Pages: 1 -->
<svg width="649pt" height="84pt"
 viewBox="0.00 0.00 648.50 84.00" xmlns="http://www.w3.org/2000/svg" xmlns:xlink="http://www.w3.org/1999/xlink">
<g id="graph0" class="graph" transform="scale(1 1) rotate(0) translate(4 80)">
<title>mesh.h</title>
<polygon fill="white" stroke="none" points="-4,4 -4,-80 644.5,-80 644.5,4 -4,4"/>
<!-- Node1 -->
<g id="node1" class="node"><title>Node1</title>
<polygon fill="#bfbfbf" stroke="black" points="271.5,-56.5 271.5,-75.5 324.5,-75.5 324.5,-56.5 271.5,-56.5"/>
<text text-anchor="middle" x="298" y="-63.5" font-family="Helvetica,sans-Serif" font-size="10.00">mesh.h</text>
</g>
<!-- Node2 -->
<g id="node2" class="node"><title>Node2</title>
<polygon fill="white" stroke="#bfbfbf" points="0,-0.5 0,-19.5 32,-19.5 32,-0.5 0,-0.5"/>
<text text-anchor="middle" x="16" y="-7.5" font-family="Helvetica,sans-Serif" font-size="10.00">set</text>
</g>
<!-- Node1&#45;&gt;Node2 -->
<g id="edge1" class="edge"><title>Node1&#45;&gt;Node2</title>
<path fill="none" stroke="midnightblue" d="M271.407,-61.8796C226.045,-56.2299 130.756,-42.9418 41.7146,-19.7929"/>
<polygon fill="midnightblue" stroke="midnightblue" points="42.5717,-16.3993 32.0089,-17.2231 40.78,-23.1661 42.5717,-16.3993"/>
</g>
<!-- Node3 -->
<g id="node3" class="node"><title>Node3</title>
<polygon fill="white" stroke="#bfbfbf" points="50.5,-0.5 50.5,-19.5 97.5,-19.5 97.5,-0.5 50.5,-0.5"/>
<text text-anchor="middle" x="74" y="-7.5" font-family="Helvetica,sans-Serif" font-size="10.00">vector</text>
</g>
<!-- Node1&#45;&gt;Node3 -->
<g id="edge2" class="edge"><title>Node1&#45;&gt;Node3</title>
<path fill="none" stroke="midnightblue" d="M271.356,-59.0311C236.182,-51.0846 172.098,-36.3771 107.685,-20.1057"/>
<polygon fill="midnightblue" stroke="midnightblue" points="108.321,-16.656 97.7669,-17.5882 106.598,-23.4409 108.321,-16.656"/>
</g>
<!-- Node4 -->
<g id="node4" class="node"><title>Node4</title>
<polygon fill="white" stroke="#bfbfbf" points="116,-0.5 116,-19.5 178,-19.5 178,-0.5 116,-0.5"/>
<text text-anchor="middle" x="147" y="-7.5" font-family="Helvetica,sans-Serif" font-size="10.00">algorithm</text>
</g>
<!-- Node1&#45;&gt;Node4 -->
<g id="edge3" class="edge"><title>Node1&#45;&gt;Node4</title>
<path fill="none" stroke="midnightblue" d="M274.074,-56.4435C248.781,-47.3986 208.698,-33.064 180.32,-22.9158"/>
<polygon fill="midnightblue" stroke="midnightblue" points="181.409,-19.5882 170.814,-19.5164 179.052,-26.1794 181.409,-19.5882"/>
</g>
<!-- Node5 -->
<g id="node5" class="node"><title>Node5</title>
<polygon fill="white" stroke="#bfbfbf" points="196,-0.5 196,-19.5 234,-19.5 234,-0.5 196,-0.5"/>
<text text-anchor="middle" x="215" y="-7.5" font-family="Helvetica,sans-Serif" font-size="10.00">map</text>
</g>
<!-- Node1&#45;&gt;Node5 -->
<g id="edge4" class="edge"><title>Node1&#45;&gt;Node5</title>
<path fill="none" stroke="midnightblue" d="M284.665,-56.324C271.838,-47.979 252.215,-35.2122 237.06,-25.3524"/>
<polygon fill="midnightblue" stroke="midnightblue" points="238.593,-22.1742 228.302,-19.6545 234.776,-28.0417 238.593,-22.1742"/>
</g>
<!-- Node6 -->
<g id="node6" class="node"><title>Node6</title>
<polygon fill="white" stroke="#bfbfbf" points="252,-0.5 252,-19.5 282,-19.5 282,-0.5 252,-0.5"/>
<text text-anchor="middle" x="267" y="-7.5" font-family="Helvetica,sans-Serif" font-size="10.00">list</text>
</g>
<!-- Node1&#45;&gt;Node6 -->
<g id="edge5" class="edge"><title>Node1&#45;&gt;Node6</title>
<path fill="none" stroke="midnightblue" d="M292.881,-56.083C288.592,-48.6127 282.342,-37.7244 277.058,-28.5199"/>
<polygon fill="midnightblue" stroke="midnightblue" points="280.038,-26.6811 272.024,-19.7511 273.967,-30.1662 280.038,-26.6811"/>
</g>
<!-- Node7 -->
<g id="node7" class="node"><title>Node7</title>
<polygon fill="white" stroke="#bfbfbf" points="300.5,-0.5 300.5,-19.5 359.5,-19.5 359.5,-0.5 300.5,-0.5"/>
<text text-anchor="middle" x="330" y="-7.5" font-family="Helvetica,sans-Serif" font-size="10.00">iostream</text>
</g>
<!-- Node1&#45;&gt;Node7 -->
<g id="edge6" class="edge"><title>Node1&#45;&gt;Node7</title>
<path fill="none" stroke="midnightblue" d="M303.284,-56.083C307.711,-48.6127 314.163,-37.7244 319.618,-28.5199"/>
<polygon fill="midnightblue" stroke="midnightblue" points="322.727,-30.1383 324.814,-19.7511 316.705,-26.5697 322.727,-30.1383"/>
</g>
<!-- Node8 -->
<g id="node8" class="node"><title>Node8</title>
<polygon fill="white" stroke="#bfbfbf" points="377.5,-0.5 377.5,-19.5 432.5,-19.5 432.5,-0.5 377.5,-0.5"/>
<text text-anchor="middle" x="405" y="-7.5" font-family="Helvetica,sans-Serif" font-size="10.00">iomanip</text>
</g>
<!-- Node1&#45;&gt;Node8 -->
<g id="edge7" class="edge"><title>Node1&#45;&gt;Node8</title>
<path fill="none" stroke="midnightblue" d="M315.191,-56.324C332.351,-47.6641 358.946,-34.2424 378.747,-24.249"/>
<polygon fill="midnightblue" stroke="midnightblue" points="380.501,-27.2847 387.851,-19.6545 377.347,-21.0354 380.501,-27.2847"/>
</g>
<!-- Node9 -->
<g id="node9" class="node"><title>Node9</title>
<polygon fill="white" stroke="#bfbfbf" points="451,-0.5 451,-19.5 505,-19.5 505,-0.5 451,-0.5"/>
<text text-anchor="middle" x="478" y="-7.5" font-family="Helvetica,sans-Serif" font-size="10.00">fstream</text>
</g>
<!-- Node1&#45;&gt;Node9 -->
<g id="edge8" class="edge"><title>Node1&#45;&gt;Node9</title>
<path fill="none" stroke="midnightblue" d="M324.56,-57.0321C355.356,-47.7932 406.316,-32.5051 440.986,-22.1043"/>
<polygon fill="midnightblue" stroke="midnightblue" points="442.169,-25.4035 450.741,-19.1776 440.157,-18.6988 442.169,-25.4035"/>
</g>
<!-- Node10 -->
<g id="node10" class="node"><title>Node10</title>
<polygon fill="white" stroke="#bfbfbf" points="523,-0.5 523,-19.5 575,-19.5 575,-0.5 523,-0.5"/>
<text text-anchor="middle" x="549" y="-7.5" font-family="Helvetica,sans-Serif" font-size="10.00">cassert</text>
</g>
<!-- Node1&#45;&gt;Node10 -->
<g id="edge9" class="edge"><title>Node1&#45;&gt;Node10</title>
<path fill="none" stroke="midnightblue" d="M324.69,-59.8528C363.814,-52.2185 439.25,-37.1616 512.771,-20.2073"/>
<polygon fill="midnightblue" stroke="midnightblue" points="513.709,-23.5828 522.659,-17.9127 512.126,-16.764 513.709,-23.5828"/>
</g>
<!-- Node11 -->
<g id="node11" class="node"><title>Node11</title>
<polygon fill="white" stroke="#bfbfbf" points="593.5,-0.5 593.5,-19.5 640.5,-19.5 640.5,-0.5 593.5,-0.5"/>
<text text-anchor="middle" x="617" y="-7.5" font-family="Helvetica,sans-Serif" font-size="10.00">cmath</text>
</g>
<!-- Node1&#45;&gt;Node11 -->
<g id="edge10" class="edge"><title>Node1&#45;&gt;Node11</title>
<path fill="none" stroke="midnightblue" d="M324.598,-61.8106C373.716,-55.7083 482.107,-41.2517 583.21,-19.9542"/>
<polygon fill="midnightblue" stroke="midnightblue" points="584.235,-23.3144 593.284,-17.8039 582.773,-16.4687 584.235,-23.3144"/>
</g>
</g>
</svg>
