<?xml version="1.0" encoding="UTF-8" standalone="no"?>
<!DOCTYPE svg PUBLIC "-//W3C//DTD SVG 1.1//EN"
 "http://www.w3.org/Graphics/SVG/1.1/DTD/svg11.dtd">
<!-- Generated by graphviz version 2.38.0 (20140413.2041)
 -->
<!-- Title: meshio.h Pages: 1 -->
<svg width="266pt" height="140pt"
 viewBox="0.00 0.00 265.50 140.00" xmlns="http://www.w3.org/2000/svg" xmlns:xlink="http://www.w3.org/1999/xlink">
<g id="graph0" class="graph" transform="scale(1 1) rotate(0) translate(4 136)">
<title>meshio.h</title>
<polygon fill="white" stroke="none" points="-4,4 -4,-136 261.5,-136 261.5,4 -4,4"/>
<!-- Node1 -->
<g id="node1" class="node"><title>Node1</title>
<polygon fill="#bfbfbf" stroke="black" points="87.5,-112.5 87.5,-131.5 148.5,-131.5 148.5,-112.5 87.5,-112.5"/>
<text text-anchor="middle" x="118" y="-119.5" font-family="Helvetica,sans-Serif" font-size="10.00">meshio.h</text>
</g>
<!-- Node2 -->
<g id="node2" class="node"><title>Node2</title>
<g id="a_node2"><a xlink:href="mesh_8cpp.html" target="_top" xlink:title="mesh.cpp">
<polygon fill="white" stroke="black" points="0,-56.5 0,-75.5 64,-75.5 64,-56.5 0,-56.5"/>
<text text-anchor="middle" x="32" y="-63.5" font-family="Helvetica,sans-Serif" font-size="10.00">mesh.cpp</text>
</a>
</g>
</g>
<!-- Node1&#45;&gt;Node2 -->
<g id="edge1" class="edge"><title>Node1&#45;&gt;Node2</title>
<path fill="none" stroke="midnightblue" d="M95.5453,-106.901C79.7756,-96.9986 59.1864,-84.0705 45.7831,-75.6545"/>
<polygon fill="midnightblue" stroke="midnightblue" points="93.8525,-109.97 104.183,-112.324 97.5749,-104.042 93.8525,-109.97"/>
</g>
<!-- Node3 -->
<g id="node3" class="node"><title>Node3</title>
<g id="a_node3"><a xlink:href="meshio_8cpp.html" target="_top" xlink:title="meshio.cpp">
<polygon fill="white" stroke="black" points="82,-56.5 82,-75.5 154,-75.5 154,-56.5 82,-56.5"/>
<text text-anchor="middle" x="118" y="-63.5" font-family="Helvetica,sans-Serif" font-size="10.00">meshio.cpp</text>
</a>
</g>
</g>
<!-- Node1&#45;&gt;Node3 -->
<g id="edge2" class="edge"><title>Node1&#45;&gt;Node3</title>
<path fill="none" stroke="midnightblue" d="M118,-101.805C118,-92.9102 118,-82.7798 118,-75.7511"/>
<polygon fill="midnightblue" stroke="midnightblue" points="114.5,-102.083 118,-112.083 121.5,-102.083 114.5,-102.083"/>
</g>
<!-- Node4 -->
<g id="node4" class="node"><title>Node4</title>
<g id="a_node4"><a xlink:href="partitioning_8h.html" target="_top" xlink:title="partitioning.h">
<polygon fill="white" stroke="black" points="172,-56.5 172,-75.5 252,-75.5 252,-56.5 172,-56.5"/>
<text text-anchor="middle" x="212" y="-63.5" font-family="Helvetica,sans-Serif" font-size="10.00">partitioning.h</text>
</a>
</g>
</g>
<!-- Node1&#45;&gt;Node4 -->
<g id="edge3" class="edge"><title>Node1&#45;&gt;Node4</title>
<path fill="none" stroke="midnightblue" d="M142.062,-107.177C159.359,-97.2407 182.148,-84.1492 196.935,-75.6545"/>
<polygon fill="midnightblue" stroke="midnightblue" points="140.03,-104.308 133.103,-112.324 143.517,-110.378 140.03,-104.308"/>
</g>
<!-- Node5 -->
<g id="node5" class="node"><title>Node5</title>
<g id="a_node5"><a xlink:href="partitioning_8cpp.html" target="_top" xlink:title="partitioning.cpp">
<polygon fill="white" stroke="black" points="166.5,-0.5 166.5,-19.5 257.5,-19.5 257.5,-0.5 166.5,-0.5"/>
<text text-anchor="middle" x="212" y="-7.5" font-family="Helvetica,sans-Serif" font-size="10.00">partitioning.cpp</text>
</a>
</g>
</g>
<!-- Node4&#45;&gt;Node5 -->
<g id="edge4" class="edge"><title>Node4&#45;&gt;Node5</title>
<path fill="none" stroke="midnightblue" d="M212,-45.8045C212,-36.9102 212,-26.7798 212,-19.7511"/>
<polygon fill="midnightblue" stroke="midnightblue" points="208.5,-46.083 212,-56.083 215.5,-46.083 208.5,-46.083"/>
</g>
</g>
</svg>
