<?xml version="1.0" encoding="UTF-8" standalone="no"?>
<!DOCTYPE svg PUBLIC "-//W3C//DTD SVG 1.1//EN"
 "http://www.w3.org/Graphics/SVG/1.1/DTD/svg11.dtd">
<!-- Generated by graphviz version 2.38.0 (20140413.2041)
 -->
<!-- Title: mesh.cpp Pages: 1 -->
<svg width="649pt" height="140pt"
 viewBox="0.00 0.00 649.00 140.00" xmlns="http://www.w3.org/2000/svg" xmlns:xlink="http://www.w3.org/1999/xlink">
<g id="graph0" class="graph" transform="scale(1 1) rotate(0) translate(4 136)">
<title>mesh.cpp</title>
<polygon fill="white" stroke="none" points="-4,4 -4,-136 645,-136 645,4 -4,4"/>
<!-- Node1 -->
<g id="node1" class="node"><title>Node1</title>
<polygon fill="#bfbfbf" stroke="black" points="282,-112.5 282,-131.5 346,-131.5 346,-112.5 282,-112.5"/>
<text text-anchor="middle" x="314" y="-119.5" font-family="Helvetica,sans-Serif" font-size="10.00">mesh.cpp</text>
</g>
<!-- Node2 -->
<g id="node2" class="node"><title>Node2</title>
<g id="a_node2"><a xlink:href="mesh_8h.html" target="_top" xlink:title="mesh.h">
<polygon fill="white" stroke="black" points="232.5,-56.5 232.5,-75.5 285.5,-75.5 285.5,-56.5 232.5,-56.5"/>
<text text-anchor="middle" x="259" y="-63.5" font-family="Helvetica,sans-Serif" font-size="10.00">mesh.h</text>
</a>
</g>
</g>
<!-- Node1&#45;&gt;Node2 -->
<g id="edge1" class="edge"><title>Node1&#45;&gt;Node2</title>
<path fill="none" stroke="midnightblue" d="M304.918,-112.083C296.829,-104.141 284.805,-92.3354 275.09,-82.7973"/>
<polygon fill="midnightblue" stroke="midnightblue" points="277.501,-80.2595 267.913,-75.7511 272.597,-85.2545 277.501,-80.2595"/>
</g>
<!-- Node3 -->
<g id="node3" class="node"><title>Node3</title>
<polygon fill="white" stroke="#bfbfbf" points="0,-0.5 0,-19.5 32,-19.5 32,-0.5 0,-0.5"/>
<text text-anchor="middle" x="16" y="-7.5" font-family="Helvetica,sans-Serif" font-size="10.00">set</text>
</g>
<!-- Node1&#45;&gt;Node3 -->
<g id="edge15" class="edge"><title>Node1&#45;&gt;Node3</title>
<path fill="none" stroke="midnightblue" d="M281.877,-119.532C237.202,-116.399 154.739,-106.598 92,-76 67.5099,-64.0559 44.4846,-42.3282 30.3319,-27.3011"/>
<polygon fill="midnightblue" stroke="midnightblue" points="32.7584,-24.7681 23.4291,-19.7468 27.5908,-29.49 32.7584,-24.7681"/>
</g>
<!-- Node8 -->
<g id="node8" class="node"><title>Node8</title>
<polygon fill="white" stroke="#bfbfbf" points="50.5,-0.5 50.5,-19.5 109.5,-19.5 109.5,-0.5 50.5,-0.5"/>
<text text-anchor="middle" x="80" y="-7.5" font-family="Helvetica,sans-Serif" font-size="10.00">iostream</text>
</g>
<!-- Node1&#45;&gt;Node8 -->
<g id="edge19" class="edge"><title>Node1&#45;&gt;Node8</title>
<path fill="none" stroke="midnightblue" d="M281.847,-117.333C231.508,-111.031 137.132,-96.7868 111,-76 96.4977,-64.4641 88.3967,-44.4971 84.146,-29.729"/>
<polygon fill="midnightblue" stroke="midnightblue" points="87.4485,-28.5117 81.6038,-19.6749 80.6621,-30.2278 87.4485,-28.5117"/>
</g>
<!-- Node10 -->
<g id="node10" class="node"><title>Node10</title>
<polygon fill="white" stroke="#bfbfbf" points="587,-0.5 587,-19.5 641,-19.5 641,-0.5 587,-0.5"/>
<text text-anchor="middle" x="614" y="-7.5" font-family="Helvetica,sans-Serif" font-size="10.00">fstream</text>
</g>
<!-- Node1&#45;&gt;Node10 -->
<g id="edge20" class="edge"><title>Node1&#45;&gt;Node10</title>
<path fill="none" stroke="midnightblue" d="M313.931,-112.287C314.33,-98.1359 317.337,-70.3046 334,-56 373.475,-22.1118 509.416,-29.726 576.746,-19.8187"/>
<polygon fill="midnightblue" stroke="midnightblue" points="577.674,-23.2107 586.938,-18.0692 576.49,-16.3116 577.674,-23.2107"/>
</g>
<!-- Node13 -->
<g id="node13" class="node"><title>Node13</title>
<g id="a_node13"><a xlink:href="meshio_8h.html" target="_top" xlink:title="meshio.h">
<polygon fill="white" stroke="black" points="120.5,-56.5 120.5,-75.5 181.5,-75.5 181.5,-56.5 120.5,-56.5"/>
<text text-anchor="middle" x="151" y="-63.5" font-family="Helvetica,sans-Serif" font-size="10.00">meshio.h</text>
</a>
</g>
</g>
<!-- Node1&#45;&gt;Node13 -->
<g id="edge12" class="edge"><title>Node1&#45;&gt;Node13</title>
<path fill="none" stroke="midnightblue" d="M288.172,-112.444C260.751,-103.359 217.223,-88.9388 186.568,-78.7831"/>
<polygon fill="midnightblue" stroke="midnightblue" points="187.3,-75.3389 176.707,-75.5164 185.099,-81.9837 187.3,-75.3389"/>
</g>
<!-- Node14 -->
<g id="node14" class="node"><title>Node14</title>
<polygon fill="white" stroke="#bfbfbf" points="342.5,-56.5 342.5,-75.5 397.5,-75.5 397.5,-56.5 342.5,-56.5"/>
<text text-anchor="middle" x="370" y="-63.5" font-family="Helvetica,sans-Serif" font-size="10.00">valarray</text>
</g>
<!-- Node1&#45;&gt;Node14 -->
<g id="edge16" class="edge"><title>Node1&#45;&gt;Node14</title>
<path fill="none" stroke="midnightblue" d="M322.997,-112.324C331.194,-104.42 343.506,-92.5482 353.472,-82.9377"/>
<polygon fill="midnightblue" stroke="midnightblue" points="356.07,-85.2947 360.839,-75.8339 351.211,-80.2558 356.07,-85.2947"/>
</g>
<!-- Node15 -->
<g id="node15" class="node"><title>Node15</title>
<polygon fill="white" stroke="#bfbfbf" points="416,-56.5 416,-75.5 460,-75.5 460,-56.5 416,-56.5"/>
<text text-anchor="middle" x="438" y="-63.5" font-family="Helvetica,sans-Serif" font-size="10.00">string</text>
</g>
<!-- Node1&#45;&gt;Node15 -->
<g id="edge17" class="edge"><title>Node1&#45;&gt;Node15</title>
<path fill="none" stroke="midnightblue" d="M333.648,-112.444C353.965,-103.596 385.903,-89.6875 409.098,-79.5865"/>
<polygon fill="midnightblue" stroke="midnightblue" points="410.673,-82.7181 418.444,-75.5164 407.878,-76.3002 410.673,-82.7181"/>
</g>
<!-- Node16 -->
<g id="node16" class="node"><title>Node16</title>
<polygon fill="white" stroke="#bfbfbf" points="478,-56.5 478,-75.5 534,-75.5 534,-56.5 478,-56.5"/>
<text text-anchor="middle" x="506" y="-63.5" font-family="Helvetica,sans-Serif" font-size="10.00">sstream</text>
</g>
<!-- Node1&#45;&gt;Node16 -->
<g id="edge18" class="edge"><title>Node1&#45;&gt;Node16</title>
<path fill="none" stroke="midnightblue" d="M344.423,-112.444C377.961,-103.011 431.955,-87.8252 468.189,-77.6345"/>
<polygon fill="midnightblue" stroke="midnightblue" points="469.227,-80.9783 477.906,-74.9015 467.332,-74.2398 469.227,-80.9783"/>
</g>
<!-- Node17 -->
<g id="node17" class="node"><title>Node17</title>
<polygon fill="white" stroke="#bfbfbf" points="552.5,-56.5 552.5,-75.5 601.5,-75.5 601.5,-56.5 552.5,-56.5"/>
<text text-anchor="middle" x="577" y="-63.5" font-family="Helvetica,sans-Serif" font-size="10.00">cstring</text>
</g>
<!-- Node1&#45;&gt;Node17 -->
<g id="edge21" class="edge"><title>Node1&#45;&gt;Node17</title>
<path fill="none" stroke="midnightblue" d="M346.375,-115.32C388.951,-107.703 466.297,-93.3547 541.983,-76.1124"/>
<polygon fill="midnightblue" stroke="midnightblue" points="543.202,-79.4236 552.164,-73.7729 541.634,-72.6014 543.202,-79.4236"/>
</g>
<!-- Node2&#45;&gt;Node3 -->
<g id="edge2" class="edge"><title>Node2&#45;&gt;Node3</title>
<path fill="none" stroke="midnightblue" d="M232.196,-60.7304C192.552,-54.1452 115.848,-40.3728 41.9606,-19.9419"/>
<polygon fill="midnightblue" stroke="midnightblue" points="42.6031,-16.4869 32.029,-17.1498 40.7085,-23.2257 42.6031,-16.4869"/>
</g>
<!-- Node4 -->
<g id="node4" class="node"><title>Node4</title>
<polygon fill="white" stroke="#bfbfbf" points="127.5,-0.5 127.5,-19.5 174.5,-19.5 174.5,-0.5 127.5,-0.5"/>
<text text-anchor="middle" x="151" y="-7.5" font-family="Helvetica,sans-Serif" font-size="10.00">vector</text>
</g>
<!-- Node2&#45;&gt;Node4 -->
<g id="edge3" class="edge"><title>Node2&#45;&gt;Node4</title>
<path fill="none" stroke="midnightblue" d="M241.648,-56.324C224.328,-47.6641 197.485,-34.2424 177.498,-24.249"/>
<polygon fill="midnightblue" stroke="midnightblue" points="178.819,-20.9962 168.309,-19.6545 175.688,-27.2572 178.819,-20.9962"/>
</g>
<!-- Node5 -->
<g id="node5" class="node"><title>Node5</title>
<polygon fill="white" stroke="#bfbfbf" points="193,-0.5 193,-19.5 255,-19.5 255,-0.5 193,-0.5"/>
<text text-anchor="middle" x="224" y="-7.5" font-family="Helvetica,sans-Serif" font-size="10.00">algorithm</text>
</g>
<!-- Node2&#45;&gt;Node5 -->
<g id="edge4" class="edge"><title>Node2&#45;&gt;Node5</title>
<path fill="none" stroke="midnightblue" d="M253.22,-56.083C248.328,-48.5341 241.173,-37.4948 235.167,-28.2298"/>
<polygon fill="midnightblue" stroke="midnightblue" points="238.048,-26.239 229.672,-19.7511 232.174,-30.0463 238.048,-26.239"/>
</g>
<!-- Node6 -->
<g id="node6" class="node"><title>Node6</title>
<polygon fill="white" stroke="#bfbfbf" points="273,-0.5 273,-19.5 311,-19.5 311,-0.5 273,-0.5"/>
<text text-anchor="middle" x="292" y="-7.5" font-family="Helvetica,sans-Serif" font-size="10.00">map</text>
</g>
<!-- Node2&#45;&gt;Node6 -->
<g id="edge5" class="edge"><title>Node2&#45;&gt;Node6</title>
<path fill="none" stroke="midnightblue" d="M264.449,-56.083C269.014,-48.6127 275.668,-37.7244 281.293,-28.5199"/>
<polygon fill="midnightblue" stroke="midnightblue" points="284.424,-30.109 286.652,-19.7511 278.451,-26.4588 284.424,-30.109"/>
</g>
<!-- Node7 -->
<g id="node7" class="node"><title>Node7</title>
<polygon fill="white" stroke="#bfbfbf" points="329,-0.5 329,-19.5 359,-19.5 359,-0.5 329,-0.5"/>
<text text-anchor="middle" x="344" y="-7.5" font-family="Helvetica,sans-Serif" font-size="10.00">list</text>
</g>
<!-- Node2&#45;&gt;Node7 -->
<g id="edge6" class="edge"><title>Node2&#45;&gt;Node7</title>
<path fill="none" stroke="midnightblue" d="M272.657,-56.324C285.916,-47.9002 306.268,-34.9709 321.846,-25.0741"/>
<polygon fill="midnightblue" stroke="midnightblue" points="323.813,-27.9711 330.377,-19.6545 320.06,-22.0626 323.813,-27.9711"/>
</g>
<!-- Node2&#45;&gt;Node8 -->
<g id="edge7" class="edge"><title>Node2&#45;&gt;Node8</title>
<path fill="none" stroke="midnightblue" d="M232.202,-56.9157C201.932,-47.7841 152.433,-32.8514 118.141,-22.5061"/>
<polygon fill="midnightblue" stroke="midnightblue" points="119.047,-19.124 108.463,-19.5865 117.026,-25.8256 119.047,-19.124"/>
</g>
<!-- Node9 -->
<g id="node9" class="node"><title>Node9</title>
<polygon fill="white" stroke="#bfbfbf" points="377.5,-0.5 377.5,-19.5 432.5,-19.5 432.5,-0.5 377.5,-0.5"/>
<text text-anchor="middle" x="405" y="-7.5" font-family="Helvetica,sans-Serif" font-size="10.00">iomanip</text>
</g>
<!-- Node2&#45;&gt;Node9 -->
<g id="edge8" class="edge"><title>Node2&#45;&gt;Node9</title>
<path fill="none" stroke="midnightblue" d="M282.134,-56.4435C306.482,-47.4381 345.007,-33.1891 372.423,-23.049"/>
<polygon fill="midnightblue" stroke="midnightblue" points="373.809,-26.2681 381.974,-19.5164 371.381,-19.7028 373.809,-26.2681"/>
</g>
<!-- Node2&#45;&gt;Node10 -->
<g id="edge9" class="edge"><title>Node2&#45;&gt;Node10</title>
<path fill="none" stroke="midnightblue" d="M285.84,-58.7567C290.545,-57.7629 295.405,-56.8002 300,-56 419.503,-35.1871 453.788,-42.7188 576.758,-20.032"/>
<polygon fill="midnightblue" stroke="midnightblue" points="577.764,-23.4045 586.948,-18.1212 576.474,-16.5244 577.764,-23.4045"/>
</g>
<!-- Node11 -->
<g id="node11" class="node"><title>Node11</title>
<polygon fill="white" stroke="#bfbfbf" points="451,-0.5 451,-19.5 503,-19.5 503,-0.5 451,-0.5"/>
<text text-anchor="middle" x="477" y="-7.5" font-family="Helvetica,sans-Serif" font-size="10.00">cassert</text>
</g>
<!-- Node2&#45;&gt;Node11 -->
<g id="edge10" class="edge"><title>Node2&#45;&gt;Node11</title>
<path fill="none" stroke="midnightblue" d="M285.692,-58.53C319.536,-50.3061 379.936,-35.5618 440.856,-20.2696"/>
<polygon fill="midnightblue" stroke="midnightblue" points="441.789,-23.6441 450.634,-17.8115 440.083,-16.8553 441.789,-23.6441"/>
</g>
<!-- Node12 -->
<g id="node12" class="node"><title>Node12</title>
<polygon fill="white" stroke="#bfbfbf" points="521.5,-0.5 521.5,-19.5 568.5,-19.5 568.5,-0.5 521.5,-0.5"/>
<text text-anchor="middle" x="545" y="-7.5" font-family="Helvetica,sans-Serif" font-size="10.00">cmath</text>
</g>
<!-- Node2&#45;&gt;Node12 -->
<g id="edge11" class="edge"><title>Node2&#45;&gt;Node12</title>
<path fill="none" stroke="midnightblue" d="M285.868,-58.9093C290.57,-57.8985 295.422,-56.8907 300,-56 390.697,-38.3552 416.948,-40.432 511.308,-19.9597"/>
<polygon fill="midnightblue" stroke="midnightblue" points="512.26,-23.334 521.276,-17.769 510.758,-16.4971 512.26,-23.334"/>
</g>
<!-- Node13&#45;&gt;Node4 -->
<g id="edge14" class="edge"><title>Node13&#45;&gt;Node4</title>
<path fill="none" stroke="midnightblue" d="M151,-56.083C151,-49.0059 151,-38.8611 151,-29.9865"/>
<polygon fill="midnightblue" stroke="midnightblue" points="154.5,-29.751 151,-19.7511 147.5,-29.7511 154.5,-29.751"/>
</g>
<!-- Node13&#45;&gt;Node8 -->
<g id="edge13" class="edge"><title>Node13&#45;&gt;Node8</title>
<path fill="none" stroke="midnightblue" d="M139.593,-56.324C128.891,-48.1849 112.659,-35.8395 99.8372,-26.0874"/>
<polygon fill="midnightblue" stroke="midnightblue" points="101.693,-23.1018 91.6149,-19.8339 97.4556,-28.6734 101.693,-23.1018"/>
</g>
</g>
</svg>
