<?xml version="1.0" encoding="UTF-8" standalone="no"?>
<!DOCTYPE svg PUBLIC "-//W3C//DTD SVG 1.1//EN"
 "http://www.w3.org/Graphics/SVG/1.1/DTD/svg11.dtd">
<!-- Generated by graphviz version 2.38.0 (20140413.2041)
 -->
<!-- Title: mesh.h Pages: 1 -->
<svg width="1241pt" height="140pt"
 viewBox="0.00 0.00 1241.00 140.00" xmlns="http://www.w3.org/2000/svg" xmlns:xlink="http://www.w3.org/1999/xlink">
<g id="graph0" class="graph" transform="scale(1 1) rotate(0) translate(4 136)">
<title>mesh.h</title>
<polygon fill="white" stroke="none" points="-4,4 -4,-136 1237,-136 1237,4 -4,4"/>
<!-- Node1 -->
<g id="node1" class="node"><title>Node1</title>
<polygon fill="#bfbfbf" stroke="black" points="847,-112.5 847,-131.5 900,-131.5 900,-112.5 847,-112.5"/>
<text text-anchor="middle" x="873.5" y="-119.5" font-family="Helvetica,sans-Serif" font-size="10.00">mesh.h</text>
</g>
<!-- Node2 -->
<g id="node2" class="node"><title>Node2</title>
<g id="a_node2"><a xlink:href="mesh_8cpp.html" target="_top" xlink:title="mesh.cpp">
<polygon fill="white" stroke="black" points="512.5,-56.5 512.5,-75.5 576.5,-75.5 576.5,-56.5 512.5,-56.5"/>
<text text-anchor="middle" x="544.5" y="-63.5" font-family="Helvetica,sans-Serif" font-size="10.00">mesh.cpp</text>
</a>
</g>
</g>
<!-- Node1&#45;&gt;Node2 -->
<g id="edge1" class="edge"><title>Node1&#45;&gt;Node2</title>
<path fill="none" stroke="midnightblue" d="M836.797,-115.59C782.764,-107.528 678.674,-91.6309 590.5,-76 586.013,-75.2046 581.288,-74.3265 576.643,-73.4399"/>
<polygon fill="midnightblue" stroke="midnightblue" points="836.51,-119.085 846.916,-117.095 837.54,-112.162 836.51,-119.085"/>
</g>
<!-- Node3 -->
<g id="node3" class="node"><title>Node3</title>
<g id="a_node3"><a xlink:href="_mesh_adapt_p_u_m_i_8h.html" target="_top" xlink:title="MeshAdaptPUMI.h">
<polygon fill="white" stroke="black" points="632.5,-56.5 632.5,-75.5 736.5,-75.5 736.5,-56.5 632.5,-56.5"/>
<text text-anchor="middle" x="684.5" y="-63.5" font-family="Helvetica,sans-Serif" font-size="10.00">MeshAdaptPUMI.h</text>
</a>
</g>
</g>
<!-- Node1&#45;&gt;Node3 -->
<g id="edge2" class="edge"><title>Node1&#45;&gt;Node3</title>
<path fill="none" stroke="midnightblue" d="M836.82,-110.52C801.159,-100.331 747.656,-85.0447 714.473,-75.5637"/>
<polygon fill="midnightblue" stroke="midnightblue" points="836.245,-113.996 846.822,-113.378 838.168,-107.265 836.245,-113.996"/>
</g>
<!-- Node7 -->
<g id="node7" class="node"><title>Node7</title>
<g id="a_node7"><a xlink:href="_mesh_converter_8cpp.html" target="_top" xlink:title="MeshConverter.cpp">
<polygon fill="white" stroke="black" points="0,-0.5 0,-19.5 109,-19.5 109,-0.5 0,-0.5"/>
<text text-anchor="middle" x="54.5" y="-7.5" font-family="Helvetica,sans-Serif" font-size="10.00">MeshConverter.cpp</text>
</a>
</g>
</g>
<!-- Node1&#45;&gt;Node7 -->
<g id="edge14" class="edge"><title>Node1&#45;&gt;Node7</title>
<path fill="none" stroke="midnightblue" d="M836.693,-117.927C787.139,-112.996 696.735,-101.19 623.5,-76 605.453,-69.7924 603.838,-61.2873 585.5,-56 385.477,1.67071 325.451,-42.5055 118.5,-20 115.488,-19.6725 112.4,-19.3139 109.285,-18.9345"/>
<polygon fill="midnightblue" stroke="midnightblue" points="836.631,-121.437 846.919,-118.904 837.297,-114.468 836.631,-121.437"/>
</g>
<!-- Node9 -->
<g id="node9" class="node"><title>Node9</title>
<g id="a_node9"><a xlink:href="_parallel_mesh_converter_8cpp.html" target="_top" xlink:title="ParallelMeshConverter.cpp">
<polygon fill="white" stroke="black" points="870,-0.5 870,-19.5 1013,-19.5 1013,-0.5 870,-0.5"/>
<text text-anchor="middle" x="941.5" y="-7.5" font-family="Helvetica,sans-Serif" font-size="10.00">ParallelMeshConverter.cpp</text>
</a>
</g>
</g>
<!-- Node1&#45;&gt;Node9 -->
<g id="edge15" class="edge"><title>Node1&#45;&gt;Node9</title>
<path fill="none" stroke="midnightblue" d="M876.194,-102.3C878.792,-88.6758 883.675,-70.1975 892.5,-56 901.89,-40.8936 917.715,-27.6776 928.834,-19.5443"/>
<polygon fill="midnightblue" stroke="midnightblue" points="872.702,-101.963 874.513,-112.402 879.607,-103.112 872.702,-101.963"/>
</g>
<!-- Node12 -->
<g id="node12" class="node"><title>Node12</title>
<g id="a_node12"><a xlink:href="_dump_mesh_8h.html" target="_top" xlink:title="DumpMesh.h">
<polygon fill="white" stroke="black" points="901.5,-56.5 901.5,-75.5 981.5,-75.5 981.5,-56.5 901.5,-56.5"/>
<text text-anchor="middle" x="941.5" y="-63.5" font-family="Helvetica,sans-Serif" font-size="10.00">DumpMesh.h</text>
</a>
</g>
</g>
<!-- Node1&#45;&gt;Node12 -->
<g id="edge11" class="edge"><title>Node1&#45;&gt;Node12</title>
<path fill="none" stroke="midnightblue" d="M892.262,-106.101C904.5,-96.3824 920.059,-84.0269 930.376,-75.8339"/>
<polygon fill="midnightblue" stroke="midnightblue" points="890.08,-103.364 884.425,-112.324 894.433,-108.846 890.08,-103.364"/>
</g>
<!-- Node14 -->
<g id="node14" class="node"><title>Node14</title>
<g id="a_node14"><a xlink:href="partitioning_8h.html" target="_top" xlink:title="partitioning.h">
<polygon fill="white" stroke="black" points="999.5,-56.5 999.5,-75.5 1079.5,-75.5 1079.5,-56.5 999.5,-56.5"/>
<text text-anchor="middle" x="1039.5" y="-63.5" font-family="Helvetica,sans-Serif" font-size="10.00">partitioning.h</text>
</a>
</g>
</g>
<!-- Node1&#45;&gt;Node14 -->
<g id="edge16" class="edge"><title>Node1&#45;&gt;Node14</title>
<path fill="none" stroke="midnightblue" d="M909.453,-109.304C940.732,-99.1294 985.321,-84.6246 1013.32,-75.5164"/>
<polygon fill="midnightblue" stroke="midnightblue" points="908.23,-106.022 899.803,-112.444 910.395,-112.678 908.23,-106.022"/>
</g>
<!-- Node16 -->
<g id="node16" class="node"><title>Node16</title>
<g id="a_node16"><a xlink:href="test_mesh_8cpp.html" target="_top" xlink:title="testMesh.cpp">
<polygon fill="white" stroke="black" points="1098,-56.5 1098,-75.5 1179,-75.5 1179,-56.5 1098,-56.5"/>
<text text-anchor="middle" x="1138.5" y="-63.5" font-family="Helvetica,sans-Serif" font-size="10.00">testMesh.cpp</text>
</a>
</g>
</g>
<!-- Node1&#45;&gt;Node16 -->
<g id="edge18" class="edge"><title>Node1&#45;&gt;Node16</title>
<path fill="none" stroke="midnightblue" d="M910.275,-113.506C959.518,-103.472 1046.59,-85.7279 1097.77,-75.2993"/>
<polygon fill="midnightblue" stroke="midnightblue" points="909.468,-110.099 900.368,-115.525 910.865,-116.958 909.468,-110.099"/>
</g>
<!-- Node4 -->
<g id="node4" class="node"><title>Node4</title>
<g id="a_node4"><a xlink:href="c_mesh_adapt_p_u_m_i_8cpp.html" target="_top" xlink:title="cMeshAdaptPUMI.cpp">
<polygon fill="white" stroke="black" points="127.5,-0.5 127.5,-19.5 247.5,-19.5 247.5,-0.5 127.5,-0.5"/>
<text text-anchor="middle" x="187.5" y="-7.5" font-family="Helvetica,sans-Serif" font-size="10.00">cMeshAdaptPUMI.cpp</text>
</a>
</g>
</g>
<!-- Node3&#45;&gt;Node4 -->
<g id="edge3" class="edge"><title>Node3&#45;&gt;Node4</title>
<path fill="none" stroke="midnightblue" d="M622.315,-56.4562C621.033,-56.3008 619.76,-56.1485 618.5,-56 457.929,-37.0741 417.125,-38.4581 256.5,-20 253.62,-19.669 250.673,-19.321 247.697,-18.962"/>
<polygon fill="midnightblue" stroke="midnightblue" points="621.927,-59.9348 632.284,-57.701 622.794,-52.9888 621.927,-59.9348"/>
</g>
<!-- Node5 -->
<g id="node5" class="node"><title>Node5</title>
<g id="a_node5"><a xlink:href="create_analytic_geometry_8cpp.html" target="_top" xlink:title="createAnalyticGeometry.cpp">
<polygon fill="white" stroke="black" points="265.5,-0.5 265.5,-19.5 417.5,-19.5 417.5,-0.5 265.5,-0.5"/>
<text text-anchor="middle" x="341.5" y="-7.5" font-family="Helvetica,sans-Serif" font-size="10.00">createAnalyticGeometry.cpp</text>
</a>
</g>
</g>
<!-- Node3&#45;&gt;Node5 -->
<g id="edge4" class="edge"><title>Node3&#45;&gt;Node5</title>
<path fill="none" stroke="midnightblue" d="M622.326,-55.2117C557.544,-45.0127 457.069,-29.1946 395.502,-19.5018"/>
<polygon fill="midnightblue" stroke="midnightblue" points="621.983,-58.7007 632.406,-56.7986 623.072,-51.7859 621.983,-58.7007"/>
</g>
<!-- Node6 -->
<g id="node6" class="node"><title>Node6</title>
<g id="a_node6"><a xlink:href="_error_residual_method_8cpp.html" target="_top" xlink:title="ErrorResidualMethod.cpp">
<polygon fill="white" stroke="black" points="436,-0.5 436,-19.5 571,-19.5 571,-0.5 436,-0.5"/>
<text text-anchor="middle" x="503.5" y="-7.5" font-family="Helvetica,sans-Serif" font-size="10.00">ErrorResidualMethod.cpp</text>
</a>
</g>
</g>
<!-- Node3&#45;&gt;Node6 -->
<g id="edge5" class="edge"><title>Node3&#45;&gt;Node6</title>
<path fill="none" stroke="midnightblue" d="M646.181,-53.5677C612.036,-43.381 562.839,-28.7034 532.046,-19.5164"/>
<polygon fill="midnightblue" stroke="midnightblue" points="645.237,-56.9385 655.82,-56.4435 647.238,-50.2306 645.237,-56.9385"/>
</g>
<!-- Node3&#45;&gt;Node7 -->
<g id="edge6" class="edge"><title>Node3&#45;&gt;Node7</title>
<path fill="none" stroke="midnightblue" d="M622.321,-56.409C621.036,-56.2679 619.762,-56.1313 618.5,-56 396.899,-32.9369 340.052,-43.5263 118.5,-20 115.487,-19.6801 112.398,-19.3276 109.283,-18.9528"/>
<polygon fill="midnightblue" stroke="midnightblue" points="621.961,-59.8907 632.298,-57.5694 622.769,-52.9376 621.961,-59.8907"/>
</g>
<!-- Node8 -->
<g id="node8" class="node"><title>Node8</title>
<g id="a_node8"><a xlink:href="_mesh_fields_8cpp.html" target="_top" xlink:title="MeshFields.cpp">
<polygon fill="white" stroke="black" points="589,-0.5 589,-19.5 678,-19.5 678,-0.5 589,-0.5"/>
<text text-anchor="middle" x="633.5" y="-7.5" font-family="Helvetica,sans-Serif" font-size="10.00">MeshFields.cpp</text>
</a>
</g>
</g>
<!-- Node3&#45;&gt;Node8 -->
<g id="edge7" class="edge"><title>Node3&#45;&gt;Node8</title>
<path fill="none" stroke="midnightblue" d="M669.122,-48.7175C660.133,-39.1997 649.141,-27.5608 641.765,-19.7511"/>
<polygon fill="midnightblue" stroke="midnightblue" points="666.668,-51.216 676.078,-56.083 671.757,-46.4096 666.668,-51.216"/>
</g>
<!-- Node3&#45;&gt;Node9 -->
<g id="edge8" class="edge"><title>Node3&#45;&gt;Node9</title>
<path fill="none" stroke="midnightblue" d="M735.207,-54.3456C783.776,-44.1405 856.119,-28.94 900.968,-19.5164"/>
<polygon fill="midnightblue" stroke="midnightblue" points="734.289,-50.962 725.222,-56.4435 735.728,-57.8124 734.289,-50.962"/>
</g>
<!-- Node10 -->
<g id="node10" class="node"><title>Node10</title>
<g id="a_node10"><a xlink:href="_size_field_8cpp.html" target="_top" xlink:title="SizeField.cpp">
<polygon fill="white" stroke="black" points="696.5,-0.5 696.5,-19.5 774.5,-19.5 774.5,-0.5 696.5,-0.5"/>
<text text-anchor="middle" x="735.5" y="-7.5" font-family="Helvetica,sans-Serif" font-size="10.00">SizeField.cpp</text>
</a>
</g>
</g>
<!-- Node3&#45;&gt;Node10 -->
<g id="edge9" class="edge"><title>Node3&#45;&gt;Node10</title>
<path fill="none" stroke="midnightblue" d="M699.878,-48.7175C708.867,-39.1997 719.859,-27.5608 727.235,-19.7511"/>
<polygon fill="midnightblue" stroke="midnightblue" points="697.243,-46.4096 692.922,-56.083 702.332,-51.216 697.243,-46.4096"/>
</g>
<!-- Node11 -->
<g id="node11" class="node"><title>Node11</title>
<g id="a_node11"><a xlink:href="_v_m_s_8cpp.html" target="_top" xlink:title="VMS.cpp">
<polygon fill="white" stroke="black" points="793,-0.5 793,-19.5 852,-19.5 852,-0.5 793,-0.5"/>
<text text-anchor="middle" x="822.5" y="-7.5" font-family="Helvetica,sans-Serif" font-size="10.00">VMS.cpp</text>
</a>
</g>
</g>
<!-- Node3&#45;&gt;Node11 -->
<g id="edge10" class="edge"><title>Node3&#45;&gt;Node11</title>
<path fill="none" stroke="midnightblue" d="M715.749,-52.772C741.671,-42.6287 777.862,-28.4669 800.736,-19.5164"/>
<polygon fill="midnightblue" stroke="midnightblue" points="714.404,-49.5401 706.367,-56.4435 716.954,-56.0588 714.404,-49.5401"/>
</g>
<!-- Node12&#45;&gt;Node9 -->
<g id="edge13" class="edge"><title>Node12&#45;&gt;Node9</title>
<path fill="none" stroke="midnightblue" d="M941.5,-45.8045C941.5,-36.9102 941.5,-26.7798 941.5,-19.7511"/>
<polygon fill="midnightblue" stroke="midnightblue" points="938,-46.083 941.5,-56.083 945,-46.083 938,-46.083"/>
</g>
<!-- Node13 -->
<g id="node13" class="node"><title>Node13</title>
<g id="a_node13"><a xlink:href="_dump_mesh_8cpp.html" target="_top" xlink:title="DumpMesh.cpp">
<polygon fill="white" stroke="black" points="1031.5,-0.5 1031.5,-19.5 1123.5,-19.5 1123.5,-0.5 1031.5,-0.5"/>
<text text-anchor="middle" x="1077.5" y="-7.5" font-family="Helvetica,sans-Serif" font-size="10.00">DumpMesh.cpp</text>
</a>
</g>
</g>
<!-- Node12&#45;&gt;Node13 -->
<g id="edge12" class="edge"><title>Node12&#45;&gt;Node13</title>
<path fill="none" stroke="midnightblue" d="M972.635,-52.6377C998.157,-42.504 1033.61,-28.4274 1056.05,-19.5164"/>
<polygon fill="midnightblue" stroke="midnightblue" points="971.052,-49.5002 963.05,-56.4435 973.635,-56.0061 971.052,-49.5002"/>
</g>
<!-- Node15 -->
<g id="node15" class="node"><title>Node15</title>
<g id="a_node15"><a xlink:href="partitioning_8cpp.html" target="_top" xlink:title="partitioning.cpp">
<polygon fill="white" stroke="black" points="1142,-0.5 1142,-19.5 1233,-19.5 1233,-0.5 1142,-0.5"/>
<text text-anchor="middle" x="1187.5" y="-7.5" font-family="Helvetica,sans-Serif" font-size="10.00">partitioning.cpp</text>
</a>
</g>
</g>
<!-- Node14&#45;&gt;Node15 -->
<g id="edge17" class="edge"><title>Node14&#45;&gt;Node15</title>
<path fill="none" stroke="midnightblue" d="M1072.65,-52.9058C1100.47,-42.7536 1139.52,-28.5063 1164.16,-19.5164"/>
<polygon fill="midnightblue" stroke="midnightblue" points="1071.15,-49.7279 1062.95,-56.4435 1073.54,-56.3038 1071.15,-49.7279"/>
</g>
</g>
</svg>
