<?xml version="1.0" encoding="UTF-8" standalone="no"?>
<!DOCTYPE svg PUBLIC "-//W3C//DTD SVG 1.1//EN"
 "http://www.w3.org/Graphics/SVG/1.1/DTD/svg11.dtd">
<!-- Generated by graphviz version 2.38.0 (20140413.2041)
 -->
<!-- Title: numericalFlux.h Pages: 1 -->
<svg width="418pt" height="84pt"
 viewBox="0.00 0.00 417.50 84.00" xmlns="http://www.w3.org/2000/svg" xmlns:xlink="http://www.w3.org/1999/xlink">
<g id="graph0" class="graph" transform="scale(1 1) rotate(0) translate(4 80)">
<title>numericalFlux.h</title>
<polygon fill="white" stroke="none" points="-4,4 -4,-80 413.5,-80 413.5,4 -4,4"/>
<!-- Node1 -->
<g id="node1" class="node"><title>Node1</title>
<polygon fill="#bfbfbf" stroke="black" points="151.5,-56.5 151.5,-75.5 243.5,-75.5 243.5,-56.5 151.5,-56.5"/>
<text text-anchor="middle" x="197.5" y="-63.5" font-family="Helvetica,sans-Serif" font-size="10.00">numericalFlux.h</text>
</g>
<!-- Node2 -->
<g id="node2" class="node"><title>Node2</title>
<polygon fill="white" stroke="#bfbfbf" points="0,-0.5 0,-19.5 51,-19.5 51,-0.5 0,-0.5"/>
<text text-anchor="middle" x="25.5" y="-7.5" font-family="Helvetica,sans-Serif" font-size="10.00">stdlib.h</text>
</g>
<!-- Node1&#45;&gt;Node2 -->
<g id="edge1" class="edge"><title>Node1&#45;&gt;Node2</title>
<path fill="none" stroke="midnightblue" d="M170.246,-56.4435C140.63,-47.1454 93.2081,-32.2572 60.7711,-22.0735"/>
<polygon fill="midnightblue" stroke="midnightblue" points="61.8111,-18.7316 51.2218,-19.0755 59.7143,-25.4102 61.8111,-18.7316"/>
</g>
<!-- Node3 -->
<g id="node3" class="node"><title>Node3</title>
<polygon fill="white" stroke="#bfbfbf" points="69,-0.5 69,-19.5 118,-19.5 118,-0.5 69,-0.5"/>
<text text-anchor="middle" x="93.5" y="-7.5" font-family="Helvetica,sans-Serif" font-size="10.00">stdio.h</text>
</g>
<!-- Node1&#45;&gt;Node3 -->
<g id="edge2" class="edge"><title>Node1&#45;&gt;Node3</title>
<path fill="none" stroke="midnightblue" d="M180.791,-56.324C164.188,-47.7034 138.498,-34.3643 119.28,-24.3855"/>
<polygon fill="midnightblue" stroke="midnightblue" points="120.656,-21.1565 110.168,-19.6545 117.43,-27.3689 120.656,-21.1565"/>
</g>
<!-- Node4 -->
<g id="node4" class="node"><title>Node4</title>
<polygon fill="white" stroke="#bfbfbf" points="136,-0.5 136,-19.5 187,-19.5 187,-0.5 136,-0.5"/>
<text text-anchor="middle" x="161.5" y="-7.5" font-family="Helvetica,sans-Serif" font-size="10.00">math.h</text>
</g>
<!-- Node1&#45;&gt;Node4 -->
<g id="edge3" class="edge"><title>Node1&#45;&gt;Node4</title>
<path fill="none" stroke="midnightblue" d="M191.555,-56.083C186.523,-48.5341 179.163,-37.4948 172.987,-28.2298"/>
<polygon fill="midnightblue" stroke="midnightblue" points="175.793,-26.1301 167.334,-19.7511 169.969,-30.0131 175.793,-26.1301"/>
</g>
<!-- Node5 -->
<g id="node5" class="node"><title>Node5</title>
<polygon fill="white" stroke="#bfbfbf" points="205.5,-0.5 205.5,-19.5 263.5,-19.5 263.5,-0.5 205.5,-0.5"/>
<text text-anchor="middle" x="234.5" y="-7.5" font-family="Helvetica,sans-Serif" font-size="10.00">strings.h</text>
</g>
<!-- Node1&#45;&gt;Node5 -->
<g id="edge4" class="edge"><title>Node1&#45;&gt;Node5</title>
<path fill="none" stroke="midnightblue" d="M203.61,-56.083C208.782,-48.5341 216.346,-37.4948 222.694,-28.2298"/>
<polygon fill="midnightblue" stroke="midnightblue" points="225.739,-29.9787 228.504,-19.7511 219.964,-26.0221 225.739,-29.9787"/>
</g>
<!-- Node6 -->
<g id="node6" class="node"><title>Node6</title>
<polygon fill="white" stroke="#bfbfbf" points="282,-0.5 282,-19.5 335,-19.5 335,-0.5 282,-0.5"/>
<text text-anchor="middle" x="308.5" y="-7.5" font-family="Helvetica,sans-Serif" font-size="10.00">string.h</text>
</g>
<!-- Node1&#45;&gt;Node6 -->
<g id="edge5" class="edge"><title>Node1&#45;&gt;Node6</title>
<path fill="none" stroke="midnightblue" d="M215.334,-56.324C233.216,-47.6247 260.975,-34.1202 281.546,-24.113"/>
<polygon fill="midnightblue" stroke="midnightblue" points="283.249,-27.1765 290.71,-19.6545 280.187,-20.8819 283.249,-27.1765"/>
</g>
<!-- Node7 -->
<g id="node7" class="node"><title>Node7</title>
<polygon fill="white" stroke="#bfbfbf" points="353.5,-0.5 353.5,-19.5 409.5,-19.5 409.5,-0.5 353.5,-0.5"/>
<text text-anchor="middle" x="381.5" y="-7.5" font-family="Helvetica,sans-Serif" font-size="10.00">assert.h</text>
</g>
<!-- Node1&#45;&gt;Node7 -->
<g id="edge6" class="edge"><title>Node1&#45;&gt;Node7</title>
<path fill="none" stroke="midnightblue" d="M226.655,-56.4435C258.29,-47.1594 308.915,-32.3022 343.611,-22.1197"/>
<polygon fill="midnightblue" stroke="midnightblue" points="344.776,-25.4252 353.386,-19.2508 342.805,-18.7085 344.776,-25.4252"/>
</g>
</g>
</svg>
