<?xml version="1.0" encoding="UTF-8" standalone="no"?>
<!DOCTYPE svg PUBLIC "-//W3C//DTD SVG 1.1//EN"
 "http://www.w3.org/Graphics/SVG/1.1/DTD/svg11.dtd">
<!-- Generated by graphviz version 2.38.0 (20140413.2041)
 -->
<!-- Title: partitioning.cpp Pages: 1 -->
<svg width="658pt" height="196pt"
 viewBox="0.00 0.00 657.50 196.00" xmlns="http://www.w3.org/2000/svg" xmlns:xlink="http://www.w3.org/1999/xlink">
<g id="graph0" class="graph" transform="scale(1 1) rotate(0) translate(4 192)">
<title>partitioning.cpp</title>
<polygon fill="white" stroke="none" points="-4,4 -4,-192 653.5,-192 653.5,4 -4,4"/>
<!-- Node1 -->
<g id="node1" class="node"><title>Node1</title>
<polygon fill="#bfbfbf" stroke="black" points="326,-168.5 326,-187.5 417,-187.5 417,-168.5 326,-168.5"/>
<text text-anchor="middle" x="371.5" y="-175.5" font-family="Helvetica,sans-Serif" font-size="10.00">partitioning.cpp</text>
</g>
<!-- Node2 -->
<g id="node2" class="node"><title>Node2</title>
<g id="a_node2"><a xlink:href="partitioning_8h.html" target="_top" xlink:title="partitioning.h">
<polygon fill="white" stroke="black" points="331.5,-112.5 331.5,-131.5 411.5,-131.5 411.5,-112.5 331.5,-112.5"/>
<text text-anchor="middle" x="371.5" y="-119.5" font-family="Helvetica,sans-Serif" font-size="10.00">partitioning.h</text>
</a>
</g>
</g>
<!-- Node1&#45;&gt;Node2 -->
<g id="edge1" class="edge"><title>Node1&#45;&gt;Node2</title>
<path fill="none" stroke="midnightblue" d="M371.5,-168.083C371.5,-161.006 371.5,-150.861 371.5,-141.986"/>
<polygon fill="midnightblue" stroke="midnightblue" points="375,-141.751 371.5,-131.751 368,-141.751 375,-141.751"/>
</g>
<!-- Node3 -->
<g id="node3" class="node"><title>Node3</title>
<polygon fill="white" stroke="#bfbfbf" points="0,-0.5 0,-19.5 59,-19.5 59,-0.5 0,-0.5"/>
<text text-anchor="middle" x="29.5" y="-7.5" font-family="Helvetica,sans-Serif" font-size="10.00">iostream</text>
</g>
<!-- Node2&#45;&gt;Node3 -->
<g id="edge2" class="edge"><title>Node2&#45;&gt;Node3</title>
<path fill="none" stroke="midnightblue" d="M331.392,-119.815C257.326,-116.891 102.782,-107.136 60.5,-76 45.4321,-64.904 37.3868,-44.5643 33.303,-29.5824"/>
<polygon fill="midnightblue" stroke="midnightblue" points="36.7025,-28.7492 30.9858,-19.829 29.8921,-30.3673 36.7025,-28.7492"/>
</g>
<!-- Node4 -->
<g id="node4" class="node"><title>Node4</title>
<polygon fill="white" stroke="#bfbfbf" points="310,-56.5 310,-75.5 365,-75.5 365,-56.5 310,-56.5"/>
<text text-anchor="middle" x="337.5" y="-63.5" font-family="Helvetica,sans-Serif" font-size="10.00">valarray</text>
</g>
<!-- Node2&#45;&gt;Node4 -->
<g id="edge3" class="edge"><title>Node2&#45;&gt;Node4</title>
<path fill="none" stroke="midnightblue" d="M365.886,-112.083C361.133,-104.534 354.182,-93.4948 348.348,-84.2298"/>
<polygon fill="midnightblue" stroke="midnightblue" points="351.3,-82.3486 343.01,-75.7511 345.376,-86.0783 351.3,-82.3486"/>
</g>
<!-- Node5 -->
<g id="node5" class="node"><title>Node5</title>
<polygon fill="white" stroke="#bfbfbf" points="383.5,-56.5 383.5,-75.5 427.5,-75.5 427.5,-56.5 383.5,-56.5"/>
<text text-anchor="middle" x="405.5" y="-63.5" font-family="Helvetica,sans-Serif" font-size="10.00">mpi.h</text>
</g>
<!-- Node2&#45;&gt;Node5 -->
<g id="edge4" class="edge"><title>Node2&#45;&gt;Node5</title>
<path fill="none" stroke="midnightblue" d="M377.114,-112.083C381.867,-104.534 388.818,-93.4948 394.652,-84.2298"/>
<polygon fill="midnightblue" stroke="midnightblue" points="397.624,-86.0783 399.99,-75.7511 391.7,-82.3486 397.624,-86.0783"/>
</g>
<!-- Node6 -->
<g id="node6" class="node"><title>Node6</title>
<polygon fill="white" stroke="#bfbfbf" points="446,-56.5 446,-75.5 493,-75.5 493,-56.5 446,-56.5"/>
<text text-anchor="middle" x="469.5" y="-63.5" font-family="Helvetica,sans-Serif" font-size="10.00">hdf5.h</text>
</g>
<!-- Node2&#45;&gt;Node6 -->
<g id="edge5" class="edge"><title>Node2&#45;&gt;Node6</title>
<path fill="none" stroke="midnightblue" d="M387.245,-112.324C402.819,-103.743 426.877,-90.486 444.959,-80.5224"/>
<polygon fill="midnightblue" stroke="midnightblue" points="446.724,-83.546 453.794,-75.6545 443.346,-77.4152 446.724,-83.546"/>
</g>
<!-- Node7 -->
<g id="node7" class="node"><title>Node7</title>
<polygon fill="white" stroke="#bfbfbf" points="511.5,-56.5 511.5,-75.5 563.5,-75.5 563.5,-56.5 511.5,-56.5"/>
<text text-anchor="middle" x="537.5" y="-63.5" font-family="Helvetica,sans-Serif" font-size="10.00">petsc.h</text>
</g>
<!-- Node2&#45;&gt;Node7 -->
<g id="edge6" class="edge"><title>Node2&#45;&gt;Node7</title>
<path fill="none" stroke="midnightblue" d="M397.803,-112.444C425.851,-103.32 470.444,-88.8133 501.684,-78.6509"/>
<polygon fill="midnightblue" stroke="midnightblue" points="502.893,-81.9383 511.32,-75.5164 500.728,-75.2816 502.893,-81.9383"/>
</g>
<!-- Node8 -->
<g id="node8" class="node"><title>Node8</title>
<polygon fill="white" stroke="#bfbfbf" points="581.5,-56.5 581.5,-75.5 649.5,-75.5 649.5,-56.5 581.5,-56.5"/>
<text text-anchor="middle" x="615.5" y="-63.5" font-family="Helvetica,sans-Serif" font-size="10.00">petscsys.h</text>
</g>
<!-- Node2&#45;&gt;Node8 -->
<g id="edge7" class="edge"><title>Node2&#45;&gt;Node8</title>
<path fill="none" stroke="midnightblue" d="M410.163,-112.444C454.013,-102.739 525.377,-86.9452 571.372,-76.7661"/>
<polygon fill="midnightblue" stroke="midnightblue" points="572.342,-80.1362 581.349,-74.558 570.829,-73.3016 572.342,-80.1362"/>
</g>
<!-- Node9 -->
<g id="node9" class="node"><title>Node9</title>
<g id="a_node9"><a xlink:href="mesh_8h.html" target="_top" xlink:title="mesh.h">
<polygon fill="white" stroke="black" points="239,-56.5 239,-75.5 292,-75.5 292,-56.5 239,-56.5"/>
<text text-anchor="middle" x="265.5" y="-63.5" font-family="Helvetica,sans-Serif" font-size="10.00">mesh.h</text>
</a>
</g>
</g>
<!-- Node2&#45;&gt;Node9 -->
<g id="edge8" class="edge"><title>Node2&#45;&gt;Node9</title>
<path fill="none" stroke="midnightblue" d="M354.469,-112.324C337.47,-103.664 311.124,-90.2424 291.507,-80.249"/>
<polygon fill="midnightblue" stroke="midnightblue" points="292.988,-77.0752 282.488,-75.6545 289.81,-83.3125 292.988,-77.0752"/>
</g>
<!-- Node19 -->
<g id="node19" class="node"><title>Node19</title>
<g id="a_node19"><a xlink:href="meshio_8h.html" target="_top" xlink:title="meshio.h">
<polygon fill="white" stroke="black" points="70,-56.5 70,-75.5 131,-75.5 131,-56.5 70,-56.5"/>
<text text-anchor="middle" x="100.5" y="-63.5" font-family="Helvetica,sans-Serif" font-size="10.00">meshio.h</text>
</a>
</g>
</g>
<!-- Node2&#45;&gt;Node19 -->
<g id="edge19" class="edge"><title>Node2&#45;&gt;Node19</title>
<path fill="none" stroke="midnightblue" d="M331.221,-112.974C280.183,-102.804 192.698,-85.3715 141.376,-75.1451"/>
<polygon fill="midnightblue" stroke="midnightblue" points="141.799,-71.6606 131.308,-73.1388 140.431,-78.5256 141.799,-71.6606"/>
</g>
<!-- Node9&#45;&gt;Node3 -->
<g id="edge14" class="edge"><title>Node9&#45;&gt;Node3</title>
<path fill="none" stroke="midnightblue" d="M238.901,-59.0353C202.658,-50.8907 135.478,-35.7318 69.1421,-20.3677"/>
<polygon fill="midnightblue" stroke="midnightblue" points="69.8969,-16.95 59.3647,-18.1002 68.3155,-23.769 69.8969,-16.95"/>
</g>
<!-- Node10 -->
<g id="node10" class="node"><title>Node10</title>
<polygon fill="white" stroke="#bfbfbf" points="278.5,-0.5 278.5,-19.5 310.5,-19.5 310.5,-0.5 278.5,-0.5"/>
<text text-anchor="middle" x="294.5" y="-7.5" font-family="Helvetica,sans-Serif" font-size="10.00">set</text>
</g>
<!-- Node9&#45;&gt;Node10 -->
<g id="edge9" class="edge"><title>Node9&#45;&gt;Node10</title>
<path fill="none" stroke="midnightblue" d="M270.289,-56.083C274.258,-48.6913 280.025,-37.9533 284.935,-28.8111"/>
<polygon fill="midnightblue" stroke="midnightblue" points="288.153,-30.217 289.8,-19.7511 281.986,-26.9051 288.153,-30.217"/>
</g>
<!-- Node11 -->
<g id="node11" class="node"><title>Node11</title>
<polygon fill="white" stroke="#bfbfbf" points="77,-0.5 77,-19.5 124,-19.5 124,-0.5 77,-0.5"/>
<text text-anchor="middle" x="100.5" y="-7.5" font-family="Helvetica,sans-Serif" font-size="10.00">vector</text>
</g>
<!-- Node9&#45;&gt;Node11 -->
<g id="edge10" class="edge"><title>Node9&#45;&gt;Node11</title>
<path fill="none" stroke="midnightblue" d="M239.355,-56.4435C210.739,-47.0781 164.793,-32.0415 133.663,-21.8532"/>
<polygon fill="midnightblue" stroke="midnightblue" points="134.709,-18.5131 124.116,-18.729 132.532,-25.1659 134.709,-18.5131"/>
</g>
<!-- Node12 -->
<g id="node12" class="node"><title>Node12</title>
<polygon fill="white" stroke="#bfbfbf" points="328.5,-0.5 328.5,-19.5 390.5,-19.5 390.5,-0.5 328.5,-0.5"/>
<text text-anchor="middle" x="359.5" y="-7.5" font-family="Helvetica,sans-Serif" font-size="10.00">algorithm</text>
</g>
<!-- Node9&#45;&gt;Node12 -->
<g id="edge11" class="edge"><title>Node9&#45;&gt;Node12</title>
<path fill="none" stroke="midnightblue" d="M280.603,-56.324C295.403,-47.8215 318.194,-34.7288 335.482,-24.7975"/>
<polygon fill="midnightblue" stroke="midnightblue" points="337.507,-27.6707 344.435,-19.6545 334.02,-21.6009 337.507,-27.6707"/>
</g>
<!-- Node13 -->
<g id="node13" class="node"><title>Node13</title>
<polygon fill="white" stroke="#bfbfbf" points="408.5,-0.5 408.5,-19.5 446.5,-19.5 446.5,-0.5 408.5,-0.5"/>
<text text-anchor="middle" x="427.5" y="-7.5" font-family="Helvetica,sans-Serif" font-size="10.00">map</text>
</g>
<!-- Node9&#45;&gt;Node13 -->
<g id="edge12" class="edge"><title>Node9&#45;&gt;Node13</title>
<path fill="none" stroke="midnightblue" d="M291.169,-56.4435C320.346,-46.7178 367.871,-30.8764 398.401,-20.6997"/>
<polygon fill="midnightblue" stroke="midnightblue" points="399.672,-23.9654 408.052,-17.4826 397.458,-17.3246 399.672,-23.9654"/>
</g>
<!-- Node14 -->
<g id="node14" class="node"><title>Node14</title>
<polygon fill="white" stroke="#bfbfbf" points="464.5,-0.5 464.5,-19.5 494.5,-19.5 494.5,-0.5 464.5,-0.5"/>
<text text-anchor="middle" x="479.5" y="-7.5" font-family="Helvetica,sans-Serif" font-size="10.00">list</text>
</g>
<!-- Node9&#45;&gt;Node14 -->
<g id="edge13" class="edge"><title>Node9&#45;&gt;Node14</title>
<path fill="none" stroke="midnightblue" d="M292.225,-58.2703C295.35,-57.4977 298.494,-56.727 301.5,-56 366.751,-40.2179 386.476,-40.3363 454.445,-20.0189"/>
<polygon fill="midnightblue" stroke="midnightblue" points="455.811,-23.2624 464.366,-17.0126 453.781,-16.5632 455.811,-23.2624"/>
</g>
<!-- Node15 -->
<g id="node15" class="node"><title>Node15</title>
<polygon fill="white" stroke="#bfbfbf" points="513,-0.5 513,-19.5 568,-19.5 568,-0.5 513,-0.5"/>
<text text-anchor="middle" x="540.5" y="-7.5" font-family="Helvetica,sans-Serif" font-size="10.00">iomanip</text>
</g>
<!-- Node9&#45;&gt;Node15 -->
<g id="edge15" class="edge"><title>Node9&#45;&gt;Node15</title>
<path fill="none" stroke="midnightblue" d="M292.189,-58.1113C295.32,-57.3672 298.476,-56.6467 301.5,-56 387.628,-37.5819 412.575,-38.6834 502.829,-20.0249"/>
<polygon fill="midnightblue" stroke="midnightblue" points="503.59,-23.4415 512.662,-17.968 502.157,-16.5898 503.59,-23.4415"/>
</g>
<!-- Node16 -->
<g id="node16" class="node"><title>Node16</title>
<polygon fill="white" stroke="#bfbfbf" points="586.5,-0.5 586.5,-19.5 640.5,-19.5 640.5,-0.5 586.5,-0.5"/>
<text text-anchor="middle" x="613.5" y="-7.5" font-family="Helvetica,sans-Serif" font-size="10.00">fstream</text>
</g>
<!-- Node9&#45;&gt;Node16 -->
<g id="edge16" class="edge"><title>Node9&#45;&gt;Node16</title>
<path fill="none" stroke="midnightblue" d="M292.161,-57.9712C295.297,-57.2523 298.462,-56.5759 301.5,-56 419.837,-33.5677 454.161,-42.5313 576.325,-20.018"/>
<polygon fill="midnightblue" stroke="midnightblue" points="577.264,-23.403 586.447,-18.1184 575.973,-16.5231 577.264,-23.403"/>
</g>
<!-- Node17 -->
<g id="node17" class="node"><title>Node17</title>
<polygon fill="white" stroke="#bfbfbf" points="142.5,-0.5 142.5,-19.5 194.5,-19.5 194.5,-0.5 142.5,-0.5"/>
<text text-anchor="middle" x="168.5" y="-7.5" font-family="Helvetica,sans-Serif" font-size="10.00">cassert</text>
</g>
<!-- Node9&#45;&gt;Node17 -->
<g id="edge17" class="edge"><title>Node9&#45;&gt;Node17</title>
<path fill="none" stroke="midnightblue" d="M249.915,-56.324C234.501,-47.7428 210.688,-34.486 192.79,-24.5224"/>
<polygon fill="midnightblue" stroke="midnightblue" points="194.486,-21.4606 184.046,-19.6545 191.081,-27.5767 194.486,-21.4606"/>
</g>
<!-- Node18 -->
<g id="node18" class="node"><title>Node18</title>
<polygon fill="white" stroke="#bfbfbf" points="213,-0.5 213,-19.5 260,-19.5 260,-0.5 213,-0.5"/>
<text text-anchor="middle" x="236.5" y="-7.5" font-family="Helvetica,sans-Serif" font-size="10.00">cmath</text>
</g>
<!-- Node9&#45;&gt;Node18 -->
<g id="edge18" class="edge"><title>Node9&#45;&gt;Node18</title>
<path fill="none" stroke="midnightblue" d="M260.711,-56.083C256.742,-48.6913 250.975,-37.9533 246.065,-28.8111"/>
<polygon fill="midnightblue" stroke="midnightblue" points="249.014,-26.9051 241.2,-19.7511 242.847,-30.217 249.014,-26.9051"/>
</g>
<!-- Node19&#45;&gt;Node3 -->
<g id="edge20" class="edge"><title>Node19&#45;&gt;Node3</title>
<path fill="none" stroke="midnightblue" d="M89.0926,-56.324C78.3912,-48.1849 62.1593,-35.8395 49.3372,-26.0874"/>
<polygon fill="midnightblue" stroke="midnightblue" points="51.1932,-23.1018 41.1149,-19.8339 46.9556,-28.6734 51.1932,-23.1018"/>
</g>
<!-- Node19&#45;&gt;Node11 -->
<g id="edge21" class="edge"><title>Node19&#45;&gt;Node11</title>
<path fill="none" stroke="midnightblue" d="M100.5,-56.083C100.5,-49.0059 100.5,-38.8611 100.5,-29.9865"/>
<polygon fill="midnightblue" stroke="midnightblue" points="104,-29.751 100.5,-19.7511 97.0001,-29.7511 104,-29.751"/>
</g>
</g>
</svg>
