<?xml version="1.0" encoding="UTF-8" standalone="no"?>
<!DOCTYPE svg PUBLIC "-//W3C//DTD SVG 1.1//EN"
 "http://www.w3.org/Graphics/SVG/1.1/DTD/svg11.dtd">
<!-- Generated by graphviz version 2.38.0 (20140413.2041)
 -->
<!-- Title: smoothers.c Pages: 1 -->
<svg width="292pt" height="140pt"
 viewBox="0.00 0.00 292.00 140.00" xmlns="http://www.w3.org/2000/svg" xmlns:xlink="http://www.w3.org/1999/xlink">
<g id="graph0" class="graph" transform="scale(1 1) rotate(0) translate(4 136)">
<title>smoothers.c</title>
<polygon fill="white" stroke="none" points="-4,4 -4,-136 288,-136 288,4 -4,4"/>
<!-- Node1 -->
<g id="node1" class="node"><title>Node1</title>
<polygon fill="#bfbfbf" stroke="black" points="89,-112.5 89,-131.5 166,-131.5 166,-112.5 89,-112.5"/>
<text text-anchor="middle" x="127.5" y="-119.5" font-family="Helvetica,sans-Serif" font-size="10.00">smoothers.c</text>
</g>
<!-- Node2 -->
<g id="node2" class="node"><title>Node2</title>
<polygon fill="white" stroke="#bfbfbf" points="-3.55271e-15,-56.5 -3.55271e-15,-75.5 51,-75.5 51,-56.5 -3.55271e-15,-56.5"/>
<text text-anchor="middle" x="25.5" y="-63.5" font-family="Helvetica,sans-Serif" font-size="10.00">math.h</text>
</g>
<!-- Node1&#45;&gt;Node2 -->
<g id="edge1" class="edge"><title>Node1&#45;&gt;Node2</title>
<path fill="none" stroke="midnightblue" d="M111.112,-112.324C94.8287,-103.703 69.6325,-90.3643 50.7837,-80.3855"/>
<polygon fill="midnightblue" stroke="midnightblue" points="52.3229,-77.2402 41.8474,-75.6545 49.0477,-83.4267 52.3229,-77.2402"/>
</g>
<!-- Node3 -->
<g id="node3" class="node"><title>Node3</title>
<polygon fill="white" stroke="#bfbfbf" points="69,-56.5 69,-75.5 118,-75.5 118,-56.5 69,-56.5"/>
<text text-anchor="middle" x="93.5" y="-63.5" font-family="Helvetica,sans-Serif" font-size="10.00">stdio.h</text>
</g>
<!-- Node1&#45;&gt;Node3 -->
<g id="edge2" class="edge"><title>Node1&#45;&gt;Node3</title>
<path fill="none" stroke="midnightblue" d="M121.886,-112.083C117.133,-104.534 110.182,-93.4948 104.348,-84.2298"/>
<polygon fill="midnightblue" stroke="midnightblue" points="107.3,-82.3486 99.0099,-75.7511 101.376,-86.0783 107.3,-82.3486"/>
</g>
<!-- Node4 -->
<g id="node4" class="node"><title>Node4</title>
<polygon fill="white" stroke="#bfbfbf" points="136,-56.5 136,-75.5 189,-75.5 189,-56.5 136,-56.5"/>
<text text-anchor="middle" x="162.5" y="-63.5" font-family="Helvetica,sans-Serif" font-size="10.00">string.h</text>
</g>
<!-- Node1&#45;&gt;Node4 -->
<g id="edge3" class="edge"><title>Node1&#45;&gt;Node4</title>
<path fill="none" stroke="midnightblue" d="M133.28,-112.083C138.172,-104.534 145.327,-93.4948 151.333,-84.2298"/>
<polygon fill="midnightblue" stroke="midnightblue" points="154.326,-86.0463 156.828,-75.7511 148.452,-82.239 154.326,-86.0463"/>
</g>
<!-- Node5 -->
<g id="node5" class="node"><title>Node5</title>
<g id="a_node5"><a xlink:href="smoothers_8h.html" target="_top" xlink:title="C implementations of multilevel smoother algorithms. ">
<polygon fill="white" stroke="black" points="207,-56.5 207,-75.5 284,-75.5 284,-56.5 207,-56.5"/>
<text text-anchor="middle" x="245.5" y="-63.5" font-family="Helvetica,sans-Serif" font-size="10.00">smoothers.h</text>
</a>
</g>
</g>
<!-- Node1&#45;&gt;Node5 -->
<g id="edge4" class="edge"><title>Node1&#45;&gt;Node5</title>
<path fill="none" stroke="midnightblue" d="M146.197,-112.444C165.444,-103.636 195.652,-89.8116 217.7,-79.722"/>
<polygon fill="midnightblue" stroke="midnightblue" points="219.253,-82.8603 226.89,-75.5164 216.34,-76.4951 219.253,-82.8603"/>
</g>
<!-- Node6 -->
<g id="node6" class="node"><title>Node6</title>
<polygon fill="white" stroke="#bfbfbf" points="210,-0.5 210,-19.5 281,-19.5 281,-0.5 210,-0.5"/>
<text text-anchor="middle" x="245.5" y="-7.5" font-family="Helvetica,sans-Serif" font-size="10.00">slu_ddefs.h</text>
</g>
<!-- Node5&#45;&gt;Node6 -->
<g id="edge5" class="edge"><title>Node5&#45;&gt;Node6</title>
<path fill="none" stroke="midnightblue" d="M245.5,-56.083C245.5,-49.0059 245.5,-38.8611 245.5,-29.9865"/>
<polygon fill="midnightblue" stroke="midnightblue" points="249,-29.751 245.5,-19.7511 242,-29.7511 249,-29.751"/>
</g>
</g>
</svg>
