<?xml version="1.0" encoding="UTF-8" standalone="no"?>
<!DOCTYPE svg PUBLIC "-//W3C//DTD SVG 1.1//EN"
 "http://www.w3.org/Graphics/SVG/1.1/DTD/svg11.dtd">
<!-- Generated by graphviz version 2.38.0 (20140413.2041)
 -->
<!-- Title: MultilevelMesh Pages: 1 -->
<svg width="153pt" height="95pt"
 viewBox="0.00 0.00 153.00 95.00" xmlns="http://www.w3.org/2000/svg" xmlns:xlink="http://www.w3.org/1999/xlink">
<g id="graph0" class="graph" transform="scale(1 1) rotate(0) translate(4 91)">
<title>MultilevelMesh</title>
<polygon fill="white" stroke="none" points="-4,4 -4,-91 149,-91 149,4 -4,4"/>
<!-- Node1 -->
<g id="node1" class="node"><title>Node1</title>
<polygon fill="#bfbfbf" stroke="black" points="0,-0.5 0,-19.5 86,-19.5 86,-0.5 0,-0.5"/>
<text text-anchor="middle" x="43" y="-7.5" font-family="Helvetica,sans-Serif" font-size="10.00">MultilevelMesh</text>
</g>
<!-- Node2 -->
<g id="node2" class="node"><title>Node2</title>
<g id="a_node2"><a xlink:href="struct_mesh.html" target="_top" xlink:title="Mesh">
<polygon fill="white" stroke="black" points="22,-67.5 22,-86.5 64,-86.5 64,-67.5 22,-67.5"/>
<text text-anchor="middle" x="43" y="-74.5" font-family="Helvetica,sans-Serif" font-size="10.00">Mesh</text>
</a>
</g>
</g>
<!-- Node2&#45;&gt;Node1 -->
<g id="edge1" class="edge"><title>Node2&#45;&gt;Node1</title>
<path fill="none" stroke="#9a32cd" stroke-dasharray="5,2" d="M43,-57.037C43,-44.6703 43,-29.1198 43,-19.6273"/>
<polygon fill="#9a32cd" stroke="#9a32cd" points="39.5001,-57.2338 43,-67.2338 46.5001,-57.2338 39.5001,-57.2338"/>
<text text-anchor="middle" x="71" y="-41" font-family="Helvetica,sans-Serif" font-size="10.00"> meshArray</text>
</g>
<!-- Node2&#45;&gt;Node2 -->
<g id="edge2" class="edge"><title>Node2&#45;&gt;Node2</title>
<path fill="none" stroke="#9a32cd" stroke-dasharray="5,2" d="M74.4062,-82.4067C78.9452,-81.5444 82,-79.7422 82,-77 82,-72.5 73.7734,-70.5312 64.2615,-71.0938"/>
<polygon fill="#9a32cd" stroke="#9a32cd" points="74.0772,-78.9186 64.2615,-82.9062 74.4215,-85.9101 74.0772,-78.9186"/>
<text text-anchor="middle" x="113.5" y="-74.5" font-family="Helvetica,sans-Serif" font-size="10.00"> subdomainp</text>
</g>
</g>
</svg>
