<?xml version="1.0" encoding="UTF-8" standalone="no"?>
<!DOCTYPE svg PUBLIC "-//W3C//DTD SVG 1.1//EN"
 "http://www.w3.org/Graphics/SVG/1.1/DTD/svg11.dtd">
<!-- Generated by graphviz version 2.38.0 (20140413.2041)
 -->
<!-- Title: testDomain.cpp Pages: 1 -->
<svg width="272pt" height="140pt"
 viewBox="0.00 0.00 271.50 140.00" xmlns="http://www.w3.org/2000/svg" xmlns:xlink="http://www.w3.org/1999/xlink">
<g id="graph0" class="graph" transform="scale(1 1) rotate(0) translate(4 136)">
<title>testDomain.cpp</title>
<polygon fill="white" stroke="none" points="-4,4 -4,-136 267.5,-136 267.5,4 -4,4"/>
<!-- Node1 -->
<g id="node1" class="node"><title>Node1</title>
<polygon fill="#bfbfbf" stroke="black" points="89,-112.5 89,-131.5 182,-131.5 182,-112.5 89,-112.5"/>
<text text-anchor="middle" x="135.5" y="-119.5" font-family="Helvetica,sans-Serif" font-size="10.00">testDomain.cpp</text>
</g>
<!-- Node2 -->
<g id="node2" class="node"><title>Node2</title>
<g id="a_node2"><a xlink:href="_domain_8h.html" target="_top" xlink:title="Domain.h">
<polygon fill="white" stroke="black" points="66,-56.5 66,-75.5 129,-75.5 129,-56.5 66,-56.5"/>
<text text-anchor="middle" x="97.5" y="-63.5" font-family="Helvetica,sans-Serif" font-size="10.00">Domain.h</text>
</a>
</g>
</g>
<!-- Node1&#45;&gt;Node2 -->
<g id="edge1" class="edge"><title>Node1&#45;&gt;Node2</title>
<path fill="none" stroke="midnightblue" d="M129.225,-112.083C123.858,-104.455 115.982,-93.2645 109.421,-83.9408"/>
<polygon fill="midnightblue" stroke="midnightblue" points="112.275,-81.9149 103.658,-75.7511 106.551,-85.9434 112.275,-81.9149"/>
</g>
<!-- Node3 -->
<g id="node3" class="node"><title>Node3</title>
<polygon fill="white" stroke="#bfbfbf" points="0,-0.5 0,-19.5 59,-19.5 59,-0.5 0,-0.5"/>
<text text-anchor="middle" x="29.5" y="-7.5" font-family="Helvetica,sans-Serif" font-size="10.00">iostream</text>
</g>
<!-- Node1&#45;&gt;Node3 -->
<g id="edge5" class="edge"><title>Node1&#45;&gt;Node3</title>
<path fill="none" stroke="midnightblue" d="M112.007,-112.48C94.6602,-105.146 71.5447,-93.0377 56.5,-76 44.757,-62.7013 37.6493,-43.58 33.6964,-29.5181"/>
<polygon fill="midnightblue" stroke="midnightblue" points="37.0168,-28.3715 31.1742,-19.5332 30.2299,-30.0858 37.0168,-28.3715"/>
</g>
<!-- Node6 -->
<g id="node6" class="node"><title>Node6</title>
<polygon fill="white" stroke="#bfbfbf" points="147.5,-56.5 147.5,-75.5 201.5,-75.5 201.5,-56.5 147.5,-56.5"/>
<text text-anchor="middle" x="174.5" y="-63.5" font-family="Helvetica,sans-Serif" font-size="10.00">fstream</text>
</g>
<!-- Node1&#45;&gt;Node6 -->
<g id="edge6" class="edge"><title>Node1&#45;&gt;Node6</title>
<path fill="none" stroke="midnightblue" d="M141.94,-112.083C147.449,-104.455 155.531,-93.2645 162.265,-83.9408"/>
<polygon fill="midnightblue" stroke="midnightblue" points="165.162,-85.9071 168.18,-75.7511 159.487,-81.8087 165.162,-85.9071"/>
</g>
<!-- Node7 -->
<g id="node7" class="node"><title>Node7</title>
<polygon fill="white" stroke="#bfbfbf" points="219.5,-56.5 219.5,-75.5 263.5,-75.5 263.5,-56.5 219.5,-56.5"/>
<text text-anchor="middle" x="241.5" y="-63.5" font-family="Helvetica,sans-Serif" font-size="10.00">string</text>
</g>
<!-- Node1&#45;&gt;Node7 -->
<g id="edge7" class="edge"><title>Node1&#45;&gt;Node7</title>
<path fill="none" stroke="midnightblue" d="M152.531,-112.324C169.53,-103.664 195.876,-90.2424 215.493,-80.249"/>
<polygon fill="midnightblue" stroke="midnightblue" points="217.19,-83.3125 224.512,-75.6545 214.012,-77.0752 217.19,-83.3125"/>
</g>
<!-- Node2&#45;&gt;Node3 -->
<g id="edge2" class="edge"><title>Node2&#45;&gt;Node3</title>
<path fill="none" stroke="midnightblue" d="M86.5746,-56.324C76.3254,-48.1849 60.7794,-35.8395 48.499,-26.0874"/>
<polygon fill="midnightblue" stroke="midnightblue" points="50.6319,-23.3119 40.6242,-19.8339 46.2787,-28.7937 50.6319,-23.3119"/>
</g>
<!-- Node4 -->
<g id="node4" class="node"><title>Node4</title>
<polygon fill="white" stroke="#bfbfbf" points="77,-0.5 77,-19.5 124,-19.5 124,-0.5 77,-0.5"/>
<text text-anchor="middle" x="100.5" y="-7.5" font-family="Helvetica,sans-Serif" font-size="10.00">vector</text>
</g>
<!-- Node2&#45;&gt;Node4 -->
<g id="edge3" class="edge"><title>Node2&#45;&gt;Node4</title>
<path fill="none" stroke="midnightblue" d="M97.9954,-56.083C98.3886,-49.0059 98.9522,-38.8611 99.4452,-29.9865"/>
<polygon fill="midnightblue" stroke="midnightblue" points="102.954,-29.9299 100.014,-19.7511 95.9644,-29.5415 102.954,-29.9299"/>
</g>
<!-- Node5 -->
<g id="node5" class="node"><title>Node5</title>
<polygon fill="white" stroke="#bfbfbf" points="142.5,-0.5 142.5,-19.5 184.5,-19.5 184.5,-0.5 142.5,-0.5"/>
<text text-anchor="middle" x="163.5" y="-7.5" font-family="Helvetica,sans-Serif" font-size="10.00">utility</text>
</g>
<!-- Node2&#45;&gt;Node5 -->
<g id="edge4" class="edge"><title>Node2&#45;&gt;Node5</title>
<path fill="none" stroke="midnightblue" d="M108.104,-56.324C117.956,-48.2631 132.851,-36.0765 144.715,-26.3695"/>
<polygon fill="midnightblue" stroke="midnightblue" points="147.18,-28.8752 152.703,-19.8339 142.747,-23.4575 147.18,-28.8752"/>
</g>
</g>
</svg>
