<?xml version="1.0" encoding="UTF-8" standalone="no"?>
<!DOCTYPE svg PUBLIC "-//W3C//DTD SVG 1.1//EN"
 "http://www.w3.org/Graphics/SVG/1.1/DTD/svg11.dtd">
<!-- Generated by graphviz version 2.38.0 (20140413.2041)
 -->
<!-- Title: NumericalSolutionHasA Pages: 1 -->
<svg width="1233pt" height="118pt"
 viewBox="0.00 0.00 1233.00 118.00" xmlns="http://www.w3.org/2000/svg" xmlns:xlink="http://www.w3.org/1999/xlink">
<g id="graph0" class="graph" transform="scale(1 1) rotate(0) translate(4 114)">
<title>NumericalSolutionHasA</title>
<polygon fill="white" stroke="none" points="-4,4 -4,-114 1229,-114 1229,4 -4,4"/>
<!-- NS -->
<g id="node1" class="node"><title>NS</title>
<g id="a_node1"><a xlink:href="\ref NumericalSolution" xlink:title="NumericalSolution">
<polygon fill="gray" stroke="black" points="576,-73.5 576,-109.5 697,-109.5 697,-73.5 576,-73.5"/>
<text text-anchor="middle" x="636.5" y="-88.4" font-family="Helvetica,sans-Serif" font-size="12.00">NumericalSolution</text>
</a>
</g>
</g>
<!-- mList -->
<g id="node2" class="node"><title>mList</title>
<g id="a_node2"><a xlink:href="\ref proteus::Transport::MultilevelTransport" xlink:title="MultilevelTranportModel [n]">
<polygon fill="none" stroke="black" points="0,-0.5 0,-36.5 171,-36.5 171,-0.5 0,-0.5"/>
<text text-anchor="middle" x="85.5" y="-15.4" font-family="Helvetica,sans-Serif" font-size="12.00">MultilevelTranportModel [n]</text>
</a>
</g>
</g>
<!-- NS&#45;&gt;mList -->
<g id="edge5" class="edge"><title>NS&#45;&gt;mList</title>
<path fill="none" stroke="purple" stroke-dasharray="5,2" d="M575.848,-84.6583C490.282,-76.1346 329.039,-59.0386 181.321,-37.0681"/>
<polygon fill="purple" stroke="purple" points="181.57,-33.5664 171.162,-35.546 180.533,-40.4891 181.57,-33.5664"/>
</g>
<!-- nsList -->
<g id="node3" class="node"><title>nsList</title>
<g id="a_node3"><a xlink:href="\ref proteus::NonLinearSolver" xlink:title="NonLinearSolver [n] ">
<polygon fill="none" stroke="black" points="189.5,-0.5 189.5,-36.5 321.5,-36.5 321.5,-0.5 189.5,-0.5"/>
<text text-anchor="middle" x="255.5" y="-15.4" font-family="Helvetica,sans-Serif" font-size="12.00">NonLinearSolver [n]</text>
</a>
</g>
</g>
<!-- NS&#45;&gt;nsList -->
<g id="edge6" class="edge"><title>NS&#45;&gt;nsList</title>
<path fill="none" stroke="purple" stroke-dasharray="5,2" d="M575.928,-80.9396C516.233,-71.2847 422.211,-55.4566 331.599,-37.1699"/>
<polygon fill="purple" stroke="purple" points="332.206,-33.7218 321.709,-35.1613 330.812,-40.5817 332.206,-33.7218"/>
</g>
<!-- lsList -->
<g id="node4" class="node"><title>lsList</title>
<g id="a_node4"><a xlink:href="\ref proteus::LinearSolver" xlink:title="LinearSolver [n] ">
<polygon fill="none" stroke="black" points="339.5,-0.5 339.5,-36.5 447.5,-36.5 447.5,-0.5 339.5,-0.5"/>
<text text-anchor="middle" x="393.5" y="-15.4" font-family="Helvetica,sans-Serif" font-size="12.00">LinearSolver [n]</text>
</a>
</g>
</g>
<!-- NS&#45;&gt;lsList -->
<g id="edge7" class="edge"><title>NS&#45;&gt;lsList</title>
<path fill="none" stroke="purple" stroke-dasharray="5,2" d="M578.295,-73.4937C541.948,-62.8737 495.116,-49.1902 457.692,-38.2558"/>
<polygon fill="purple" stroke="purple" points="458.479,-34.8395 447.899,-35.3944 456.516,-41.5586 458.479,-34.8395"/>
</g>
<!-- pList -->
<g id="node5" class="node"><title>pList</title>
<g id="a_node5"><a xlink:href="\ref proteus::default_p" xlink:title="Problem Specification [n]">
<polygon fill="none" stroke="black" points="466,-0.5 466,-36.5 627,-36.5 627,-0.5 466,-0.5"/>
<text text-anchor="middle" x="546.5" y="-15.4" font-family="Helvetica,sans-Serif" font-size="12.00">Problem Specification [n]</text>
</a>
</g>
</g>
<!-- NS&#45;&gt;pList -->
<g id="edge1" class="edge"><title>NS&#45;&gt;pList</title>
<path fill="none" stroke="purple" stroke-dasharray="5,2" d="M614.714,-73.3129C603.106,-64.1558 588.661,-52.76 576.055,-42.8158"/>
<polygon fill="purple" stroke="purple" points="578.105,-39.9746 568.086,-36.5288 573.769,-45.4704 578.105,-39.9746"/>
</g>
<!-- nList -->
<g id="node6" class="node"><title>nList</title>
<g id="a_node6"><a xlink:href="\ref proteus::default_n" xlink:title="Numerics Specifiation [n]">
<polygon fill="none" stroke="black" points="645.5,-0.5 645.5,-36.5 807.5,-36.5 807.5,-0.5 645.5,-0.5"/>
<text text-anchor="middle" x="726.5" y="-15.4" font-family="Helvetica,sans-Serif" font-size="12.00">Numerics Specifiation [n]</text>
</a>
</g>
</g>
<!-- NS&#45;&gt;nList -->
<g id="edge2" class="edge"><title>NS&#45;&gt;nList</title>
<path fill="none" stroke="purple" stroke-dasharray="5,2" d="M658.286,-73.3129C669.894,-64.1558 684.339,-52.76 696.945,-42.8158"/>
<polygon fill="purple" stroke="purple" points="699.231,-45.4704 704.914,-36.5288 694.895,-39.9746 699.231,-45.4704"/>
</g>
<!-- sList -->
<g id="node7" class="node"><title>sList</title>
<g id="a_node7"><a xlink:href="\ref proteus::SimTools" xlink:title="Output Specification [n]">
<polygon fill="none" stroke="black" points="826,-0.5 826,-36.5 981,-36.5 981,-0.5 826,-0.5"/>
<text text-anchor="middle" x="903.5" y="-15.4" font-family="Helvetica,sans-Serif" font-size="12.00">Output Specification [n]</text>
</a>
</g>
</g>
<!-- NS&#45;&gt;sList -->
<g id="edge4" class="edge"><title>NS&#45;&gt;sList</title>
<path fill="none" stroke="purple" stroke-dasharray="5,2" d="M697.086,-74.389C736.4,-63.9348 787.883,-50.2447 829.597,-39.1521"/>
<polygon fill="purple" stroke="purple" points="830.665,-42.4897 839.43,-36.5373 828.866,-35.7248 830.665,-42.4897"/>
</g>
<!-- so -->
<g id="node8" class="node"><title>so</title>
<g id="a_node8"><a xlink:href="\ref proteus::SO_base" xlink:title="Coupling Specification ">
<polygon fill="none" stroke="black" points="999,-0.5 999,-36.5 1142,-36.5 1142,-0.5 999,-0.5"/>
<text text-anchor="middle" x="1070.5" y="-15.4" font-family="Helvetica,sans-Serif" font-size="12.00">Coupling Specification</text>
</a>
</g>
</g>
<!-- NS&#45;&gt;so -->
<g id="edge3" class="edge"><title>NS&#45;&gt;so</title>
<path fill="none" stroke="purple" stroke-dasharray="5,2" d="M697.147,-82.5629C765.668,-73.3197 880.738,-56.9692 988.516,-37.3138"/>
<polygon fill="purple" stroke="purple" points="989.384,-40.7129 998.587,-35.4634 988.119,-33.8282 989.384,-40.7129"/>
</g>
<!-- ar -->
<g id="node9" class="node"><title>ar</title>
<g id="a_node9"><a xlink:href="\ref proteus::AR_base" xlink:title="Archiver">
<polygon fill="none" stroke="black" points="1160,-0.5 1160,-36.5 1225,-36.5 1225,-0.5 1160,-0.5"/>
<text text-anchor="middle" x="1192.5" y="-15.4" font-family="Helvetica,sans-Serif" font-size="12.00">Archiver</text>
</a>
</g>
</g>
<!-- NS&#45;&gt;ar -->
<g id="edge8" class="edge"><title>NS&#45;&gt;ar</title>
<path fill="none" stroke="purple" stroke-dasharray="5,2" d="M697.008,-90.0436C792.42,-88.0591 983.307,-78.9539 1149.76,-37.0544"/>
<polygon fill="purple" stroke="purple" points="1150.86,-40.3856 1159.68,-34.5112 1149.12,-33.6049 1150.86,-40.3856"/>
</g>
</g>
</svg>
