<?xml version="1.0" encoding="UTF-8" standalone="no"?>
<!DOCTYPE svg PUBLIC "-//W3C//DTD SVG 1.1//EN"
 "http://www.w3.org/Graphics/SVG/1.1/DTD/svg11.dtd">
<!-- Generated by graphviz version 2.38.0 (20140413.2041)
 -->
<!-- Title: inheritance0624bf74da Pages: 1 -->
<svg width="601pt" height="508pt"
 viewBox="0.00 0.00 601.00 508.00" xmlns="http://www.w3.org/2000/svg" xmlns:xlink="http://www.w3.org/1999/xlink">
<g id="graph0" class="graph" transform="scale(1 1) rotate(0) translate(4 504)">
<title>inheritance0624bf74da</title>
<polygon fill="white" stroke="none" points="-4,4 -4,-504 597,-504 597,4 -4,4"/>
<!-- AddedMassNewton -->
<g id="node1" class="node"><title>AddedMassNewton</title>
<g id="a_node1"><a xlink:href="../api/proteus.NonlinearSolvers.html#proteus.NonlinearSolvers.AddedMassNewton" xlink:title="AddedMassNewton" target="_top">
<polygon fill="none" stroke="black" stroke-width="0.5" points="499.5,-500 391.5,-500 391.5,-481 499.5,-481 499.5,-500"/>
<text text-anchor="middle" x="445.5" y="-488" font-family="Vera Sans, DejaVu Sans, Liberation Sans, Arial, Helvetica, sans" font-size="10.00">AddedMassNewton</text>
</a>
</g>
</g>
<!-- Newton -->
<g id="node2" class="node"><title>Newton</title>
<g id="a_node2"><a xlink:href="../api/proteus.NonlinearSolvers.html#proteus.NonlinearSolvers.Newton" xlink:title="A simple iterative solver that is Newton&#39;s method" target="_top">
<polygon fill="none" stroke="black" stroke-width="0.5" points="244.5,-259 190.5,-259 190.5,-240 244.5,-240 244.5,-259"/>
<text text-anchor="middle" x="217.5" y="-247" font-family="Vera Sans, DejaVu Sans, Liberation Sans, Arial, Helvetica, sans" font-size="10.00">Newton</text>
</a>
</g>
</g>
<!-- Newton&#45;&gt;AddedMassNewton -->
<g id="edge1" class="edge"><title>Newton&#45;&gt;AddedMassNewton</title>
<path fill="none" stroke="black" stroke-width="0.5" d="M244.772,-256.14C251.269,-258.959 257.617,-262.931 262,-268.5 318.944,-340.845 231.215,-409.127 298,-472.5 321.019,-494.343 356.049,-499.266 386.083,-498.527"/>
<polygon fill="black" stroke="black" stroke-width="0.5" points="386.307,-500.27 391.242,-498.344 386.183,-496.772 386.307,-500.27"/>
</g>
<!-- CLSVOFNewton -->
<g id="node3" class="node"><title>CLSVOFNewton</title>
<g id="a_node3"><a xlink:href="../api/proteus.NonlinearSolvers.html#proteus.NonlinearSolvers.CLSVOFNewton" xlink:title="CLSVOFNewton" target="_top">
<polygon fill="none" stroke="black" stroke-width="0.5" points="491,-463 400,-463 400,-444 491,-444 491,-463"/>
<text text-anchor="middle" x="445.5" y="-451" font-family="Vera Sans, DejaVu Sans, Liberation Sans, Arial, Helvetica, sans" font-size="10.00">CLSVOFNewton</text>
</a>
</g>
</g>
<!-- Newton&#45;&gt;CLSVOFNewton -->
<g id="edge2" class="edge"><title>Newton&#45;&gt;CLSVOFNewton</title>
<path fill="none" stroke="black" stroke-width="0.5" d="M244.634,-256.251C251.131,-259.07 257.512,-263.014 262,-268.5 310.076,-327.268 241.949,-384.283 298,-435.5 323.678,-458.963 363.313,-462.605 394.885,-460.849"/>
<polygon fill="black" stroke="black" stroke-width="0.5" points="395.004,-462.595 399.879,-460.523 394.776,-459.103 395.004,-462.595"/>
</g>
<!-- ExplicitConsistentMassMatrixForVOF -->
<g id="node4" class="node"><title>ExplicitConsistentMassMatrixForVOF</title>
<g id="a_node4"><a xlink:href="../api/proteus.NonlinearSolvers.html#proteus.NonlinearSolvers.ExplicitConsistentMassMatrixForVOF" xlink:title="This is a fake solver meant to be used with optimized code" target="_top">
<polygon fill="none" stroke="black" stroke-width="0.5" points="540,-426 351,-426 351,-407 540,-407 540,-426"/>
<text text-anchor="middle" x="445.5" y="-414" font-family="Vera Sans, DejaVu Sans, Liberation Sans, Arial, Helvetica, sans" font-size="10.00">ExplicitConsistentMassMatrixForVOF</text>
</a>
</g>
</g>
<!-- Newton&#45;&gt;ExplicitConsistentMassMatrixForVOF -->
<g id="edge3" class="edge"><title>Newton&#45;&gt;ExplicitConsistentMassMatrixForVOF</title>
<path fill="none" stroke="black" stroke-width="0.5" d="M244.88,-256.624C251.221,-259.428 257.464,-263.271 262,-268.5 301.286,-313.786 252.591,-359.355 298,-398.5 311.483,-410.123 328.437,-416.764 345.984,-420.27"/>
<polygon fill="black" stroke="black" stroke-width="0.5" points="345.713,-421.999 350.947,-421.177 346.343,-418.556 345.713,-421.999"/>
</g>
<!-- ExplicitConsistentMassMatrixShallowWaterEquationsSolver -->
<g id="node5" class="node"><title>ExplicitConsistentMassMatrixShallowWaterEquationsSolver</title>
<g id="a_node5"><a xlink:href="../api/proteus.NonlinearSolvers.html#proteus.NonlinearSolvers.ExplicitConsistentMassMatrixShallowWaterEquationsSolver" xlink:title="This is a fake solver meant to be used with optimized code" target="_top">
<polygon fill="none" stroke="black" stroke-width="0.5" points="593,-389 298,-389 298,-370 593,-370 593,-389"/>
<text text-anchor="middle" x="445.5" y="-377" font-family="Vera Sans, DejaVu Sans, Liberation Sans, Arial, Helvetica, sans" font-size="10.00">ExplicitConsistentMassMatrixShallowWaterEquationsSolver</text>
</a>
</g>
</g>
<!-- Newton&#45;&gt;ExplicitConsistentMassMatrixShallowWaterEquationsSolver -->
<g id="edge4" class="edge"><title>Newton&#45;&gt;ExplicitConsistentMassMatrixShallowWaterEquationsSolver</title>
<path fill="none" stroke="black" stroke-width="0.5" d="M244.536,-256.937C250.88,-259.739 257.21,-263.502 262,-268.5 292.668,-300.499 263.036,-334.26 298,-361.5 300.653,-363.567 303.419,-365.469 306.28,-367.219"/>
<polygon fill="black" stroke="black" stroke-width="0.5" points="305.643,-368.871 310.85,-369.843 307.386,-365.836 305.643,-368.871"/>
</g>
<!-- ExplicitConsistentMassMatrixWithRedistancing -->
<g id="node6" class="node"><title>ExplicitConsistentMassMatrixWithRedistancing</title>
<g id="a_node6"><a xlink:href="../api/proteus.NonlinearSolvers.html#proteus.NonlinearSolvers.ExplicitConsistentMassMatrixWithRedistancing" xlink:title="This is a fake solver meant to be used with optimized code" target="_top">
<polygon fill="none" stroke="black" stroke-width="0.5" points="563,-352 328,-352 328,-333 563,-333 563,-352"/>
<text text-anchor="middle" x="445.5" y="-340" font-family="Vera Sans, DejaVu Sans, Liberation Sans, Arial, Helvetica, sans" font-size="10.00">ExplicitConsistentMassMatrixWithRedistancing</text>
</a>
</g>
</g>
<!-- Newton&#45;&gt;ExplicitConsistentMassMatrixWithRedistancing -->
<g id="edge5" class="edge"><title>Newton&#45;&gt;ExplicitConsistentMassMatrixWithRedistancing</title>
<path fill="none" stroke="black" stroke-width="0.5" d="M244.795,-258.031C250.852,-260.766 256.982,-264.224 262,-268.5 284.523,-287.688 272.945,-308.762 298,-324.5 305.69,-329.33 314.058,-333.168 322.769,-336.196"/>
<polygon fill="black" stroke="black" stroke-width="0.5" points="322.345,-337.899 327.642,-337.796 323.437,-334.573 322.345,-337.899"/>
</g>
<!-- ExplicitLumpedMassMatrix -->
<g id="node7" class="node"><title>ExplicitLumpedMassMatrix</title>
<g id="a_node7"><a xlink:href="../api/proteus.NonlinearSolvers.html#proteus.NonlinearSolvers.ExplicitLumpedMassMatrix" xlink:title="This is a fake solver meant to be used with optimized code" target="_top">
<polygon fill="none" stroke="black" stroke-width="0.5" points="517,-315 374,-315 374,-296 517,-296 517,-315"/>
<text text-anchor="middle" x="445.5" y="-303" font-family="Vera Sans, DejaVu Sans, Liberation Sans, Arial, Helvetica, sans" font-size="10.00">ExplicitLumpedMassMatrix</text>
</a>
</g>
</g>
<!-- Newton&#45;&gt;ExplicitLumpedMassMatrix -->
<g id="edge6" class="edge"><title>Newton&#45;&gt;ExplicitLumpedMassMatrix</title>
<path fill="none" stroke="black" stroke-width="0.5" d="M241.221,-259.048C247.957,-261.979 255.317,-265.282 262,-268.5 278.301,-276.348 280.738,-282.086 298,-287.5 320.391,-294.523 345.508,-298.825 368.537,-301.454"/>
<polygon fill="black" stroke="black" stroke-width="0.5" points="368.563,-303.217 373.724,-302.022 368.944,-299.738 368.563,-303.217"/>
</g>
<!-- ExplicitLumpedMassMatrixShallowWaterEquationsSolver -->
<g id="node8" class="node"><title>ExplicitLumpedMassMatrixShallowWaterEquationsSolver</title>
<g id="a_node8"><a xlink:href="../api/proteus.NonlinearSolvers.html#proteus.NonlinearSolvers.ExplicitLumpedMassMatrixShallowWaterEquationsSolver" xlink:title="This is a fake solver meant to be used with optimized code" target="_top">
<polygon fill="none" stroke="black" stroke-width="0.5" points="587,-278 304,-278 304,-259 587,-259 587,-278"/>
<text text-anchor="middle" x="445.5" y="-266" font-family="Vera Sans, DejaVu Sans, Liberation Sans, Arial, Helvetica, sans" font-size="10.00">ExplicitLumpedMassMatrixShallowWaterEquationsSolver</text>
</a>
</g>
</g>
<!-- Newton&#45;&gt;ExplicitLumpedMassMatrixShallowWaterEquationsSolver -->
<g id="edge7" class="edge"><title>Newton&#45;&gt;ExplicitLumpedMassMatrixShallowWaterEquationsSolver</title>
<path fill="none" stroke="black" stroke-width="0.5" d="M244.867,-251.717C265.396,-253.443 295.457,-255.97 326.051,-258.542"/>
<polygon fill="black" stroke="black" stroke-width="0.5" points="326.236,-260.314 331.365,-258.989 326.529,-256.826 326.236,-260.314"/>
</g>
<!-- MoveMeshMonitorNewton -->
<g id="node12" class="node"><title>MoveMeshMonitorNewton</title>
<g id="a_node12"><a xlink:href="../api/proteus.NonlinearSolvers.html#proteus.NonlinearSolvers.MoveMeshMonitorNewton" xlink:title="MoveMeshMonitorNewton" target="_top">
<polygon fill="none" stroke="black" stroke-width="0.5" points="515.5,-241 375.5,-241 375.5,-222 515.5,-222 515.5,-241"/>
<text text-anchor="middle" x="445.5" y="-229" font-family="Vera Sans, DejaVu Sans, Liberation Sans, Arial, Helvetica, sans" font-size="10.00">MoveMeshMonitorNewton</text>
</a>
</g>
</g>
<!-- Newton&#45;&gt;MoveMeshMonitorNewton -->
<g id="edge9" class="edge"><title>Newton&#45;&gt;MoveMeshMonitorNewton</title>
<path fill="none" stroke="black" stroke-width="0.5" d="M244.867,-247.4C275.413,-244.967 327.066,-240.853 370.178,-237.419"/>
<polygon fill="black" stroke="black" stroke-width="0.5" points="370.546,-239.146 375.391,-237.004 370.268,-235.657 370.546,-239.146"/>
</g>
<!-- NewtonWithL2ProjectionForMassCorrection -->
<g id="node19" class="node"><title>NewtonWithL2ProjectionForMassCorrection</title>
<g id="a_node19"><a xlink:href="../api/proteus.NonlinearSolvers.html#proteus.NonlinearSolvers.NewtonWithL2ProjectionForMassCorrection" xlink:title="This is a fake solver meant to be used with optimized code" target="_top">
<polygon fill="none" stroke="black" stroke-width="0.5" points="556,-204 335,-204 335,-185 556,-185 556,-204"/>
<text text-anchor="middle" x="445.5" y="-192" font-family="Vera Sans, DejaVu Sans, Liberation Sans, Arial, Helvetica, sans" font-size="10.00">NewtonWithL2ProjectionForMassCorrection</text>
</a>
</g>
</g>
<!-- Newton&#45;&gt;NewtonWithL2ProjectionForMassCorrection -->
<g id="edge16" class="edge"><title>Newton&#45;&gt;NewtonWithL2ProjectionForMassCorrection</title>
<path fill="none" stroke="black" stroke-width="0.5" d="M242.564,-239.901C248.923,-237.267 255.754,-234.349 262,-231.5 278.275,-224.075 280.891,-218.723 298,-213.5 309.161,-210.093 320.982,-207.296 332.877,-205.001"/>
<polygon fill="black" stroke="black" stroke-width="0.5" points="333.384,-206.687 337.977,-204.048 332.741,-203.247 333.384,-206.687"/>
</g>
<!-- POD_DEIM_Newton -->
<g id="node21" class="node"><title>POD_DEIM_Newton</title>
<g id="a_node21"><a xlink:href="../api/proteus.NonlinearSolvers.html#proteus.NonlinearSolvers.POD_DEIM_Newton" xlink:title="Newton&#39;s method on the reduced order system based on POD" target="_top">
<polygon fill="none" stroke="black" stroke-width="0.5" points="499.5,-167 391.5,-167 391.5,-148 499.5,-148 499.5,-167"/>
<text text-anchor="middle" x="445.5" y="-155" font-family="Vera Sans, DejaVu Sans, Liberation Sans, Arial, Helvetica, sans" font-size="10.00">POD_DEIM_Newton</text>
</a>
</g>
</g>
<!-- Newton&#45;&gt;POD_DEIM_Newton -->
<g id="edge17" class="edge"><title>Newton&#45;&gt;POD_DEIM_Newton</title>
<path fill="none" stroke="black" stroke-width="0.5" d="M244.795,-241.618C250.852,-239.021 256.982,-235.692 262,-231.5 284.708,-212.532 272.945,-191.238 298,-175.5 323.944,-159.204 357.608,-154.203 386.123,-153.502"/>
<polygon fill="black" stroke="black" stroke-width="0.5" points="386.413,-155.247 391.385,-153.419 386.358,-151.748 386.413,-155.247"/>
</g>
<!-- POD_Newton -->
<g id="node22" class="node"><title>POD_Newton</title>
<g id="a_node22"><a xlink:href="../api/proteus.NonlinearSolvers.html#proteus.NonlinearSolvers.POD_Newton" xlink:title="Newton&#39;s method on the reduced order system based on POD" target="_top">
<polygon fill="none" stroke="black" stroke-width="0.5" points="485,-130 406,-130 406,-111 485,-111 485,-130"/>
<text text-anchor="middle" x="445.5" y="-118" font-family="Vera Sans, DejaVu Sans, Liberation Sans, Arial, Helvetica, sans" font-size="10.00">POD_Newton</text>
</a>
</g>
</g>
<!-- Newton&#45;&gt;POD_Newton -->
<g id="edge18" class="edge"><title>Newton&#45;&gt;POD_Newton</title>
<path fill="none" stroke="black" stroke-width="0.5" d="M244.525,-242.692C250.869,-240.036 257.202,-236.41 262,-231.5 292.978,-199.801 263.036,-165.74 298,-138.5 326.878,-116.002 369.147,-113.008 400.869,-114.756"/>
<polygon fill="black" stroke="black" stroke-width="0.5" points="400.764,-116.503 405.866,-115.075 400.987,-113.01 400.764,-116.503"/>
</g>
<!-- PicardNewton -->
<g id="node23" class="node"><title>PicardNewton</title>
<g id="a_node23"><a xlink:href="../api/proteus.NonlinearSolvers.html#proteus.NonlinearSolvers.PicardNewton" xlink:title="PicardNewton" target="_top">
<polygon fill="none" stroke="black" stroke-width="0.5" points="486.5,-93 404.5,-93 404.5,-74 486.5,-74 486.5,-93"/>
<text text-anchor="middle" x="445.5" y="-81" font-family="Vera Sans, DejaVu Sans, Liberation Sans, Arial, Helvetica, sans" font-size="10.00">PicardNewton</text>
</a>
</g>
</g>
<!-- Newton&#45;&gt;PicardNewton -->
<g id="edge19" class="edge"><title>Newton&#45;&gt;PicardNewton</title>
<path fill="none" stroke="black" stroke-width="0.5" d="M244.862,-243.006C251.204,-240.347 257.451,-236.642 262,-231.5 301.725,-186.598 252.591,-140.645 298,-101.5 325.451,-77.8359 367.286,-74.8254 399.233,-76.8702"/>
<polygon fill="black" stroke="black" stroke-width="0.5" points="399.157,-78.6192 404.271,-77.2394 399.412,-75.1286 399.157,-78.6192"/>
</g>
<!-- SSPRKNewton -->
<g id="node24" class="node"><title>SSPRKNewton</title>
<g id="a_node24"><a xlink:href="../api/proteus.NonlinearSolvers.html#proteus.NonlinearSolvers.SSPRKNewton" xlink:title="Version of Newton for SSPRK so doesn&#39;t refactor unnecessarily" target="_top">
<polygon fill="none" stroke="black" stroke-width="0.5" points="487.5,-56 403.5,-56 403.5,-37 487.5,-37 487.5,-56"/>
<text text-anchor="middle" x="445.5" y="-44" font-family="Vera Sans, DejaVu Sans, Liberation Sans, Arial, Helvetica, sans" font-size="10.00">SSPRKNewton</text>
</a>
</g>
</g>
<!-- Newton&#45;&gt;SSPRKNewton -->
<g id="edge20" class="edge"><title>Newton&#45;&gt;SSPRKNewton</title>
<path fill="none" stroke="black" stroke-width="0.5" d="M244.613,-243.369C251.11,-240.699 257.497,-236.897 262,-231.5 310.645,-173.203 241.949,-115.717 298,-64.5 324.576,-40.2162 366.101,-37.1641 398.166,-39.3541"/>
<polygon fill="black" stroke="black" stroke-width="0.5" points="398.106,-41.1047 403.227,-39.7482 398.378,-37.6153 398.106,-41.1047"/>
</g>
<!-- TwoStageNewton -->
<g id="node25" class="node"><title>TwoStageNewton</title>
<g id="a_node25"><a xlink:href="../api/proteus.NonlinearSolvers.html#proteus.NonlinearSolvers.TwoStageNewton" xlink:title="Solves a 2 Stage problem via Newton&#39;s solve" target="_top">
<polygon fill="none" stroke="black" stroke-width="0.5" points="494.5,-19 396.5,-19 396.5,-0 494.5,-0 494.5,-19"/>
<text text-anchor="middle" x="445.5" y="-7" font-family="Vera Sans, DejaVu Sans, Liberation Sans, Arial, Helvetica, sans" font-size="10.00">TwoStageNewton</text>
</a>
</g>
</g>
<!-- Newton&#45;&gt;TwoStageNewton -->
<g id="edge21" class="edge"><title>Newton&#45;&gt;TwoStageNewton</title>
<path fill="none" stroke="black" stroke-width="0.5" d="M244.749,-243.48C251.246,-240.81 257.599,-236.981 262,-231.5 319.645,-159.712 231.215,-90.8732 298,-27.5 322.249,-4.48971 359.827,-0.256562 390.852,-1.63874"/>
<polygon fill="black" stroke="black" stroke-width="0.5" points="391.078,-3.4038 396.167,-1.93245 391.271,0.0908642 391.078,-3.4038"/>
</g>
<!-- FAS -->
<g id="node9" class="node"><title>FAS</title>
<g id="a_node9"><a xlink:href="../api/proteus.NonlinearSolvers.html#proteus.NonlinearSolvers.FAS" xlink:title="A generic nonlinear multigrid W cycle using the Full Approximation Scheme (FAS)." target="_top">
<polygon fill="none" stroke="black" stroke-width="0.5" points="95.5,-240 41.5,-240 41.5,-221 95.5,-221 95.5,-240"/>
<text text-anchor="middle" x="68.5" y="-228" font-family="Vera Sans, DejaVu Sans, Liberation Sans, Arial, Helvetica, sans" font-size="10.00">FAS</text>
</a>
</g>
</g>
<!-- FasTwoLevel -->
<g id="node10" class="node"><title>FasTwoLevel</title>
<g id="a_node10"><a xlink:href="../api/proteus.NonlinearSolvers.html#proteus.NonlinearSolvers.FasTwoLevel" xlink:title="A generic nonlinear two&#45;level solver based on the full approximation scheme. (FAS)." target="_top">
<polygon fill="none" stroke="black" stroke-width="0.5" points="254.5,-222 180.5,-222 180.5,-203 254.5,-203 254.5,-222"/>
<text text-anchor="middle" x="217.5" y="-210" font-family="Vera Sans, DejaVu Sans, Liberation Sans, Arial, Helvetica, sans" font-size="10.00">FasTwoLevel</text>
</a>
</g>
</g>
<!-- NonlinearSolver -->
<g id="node11" class="node"><title>NonlinearSolver</title>
<g id="a_node11"><a xlink:href="../api/proteus.NonlinearSolvers.html#proteus.NonlinearSolvers.NonlinearSolver" xlink:title="The base class for nonlinear solvers." target="_top">
<polygon fill="none" stroke="black" stroke-width="0.5" points="114.5,-166 22.5,-166 22.5,-147 114.5,-147 114.5,-166"/>
<text text-anchor="middle" x="68.5" y="-154" font-family="Vera Sans, DejaVu Sans, Liberation Sans, Arial, Helvetica, sans" font-size="10.00">NonlinearSolver</text>
</a>
</g>
</g>
<!-- NonlinearSolver&#45;&gt;Newton -->
<g id="edge14" class="edge"><title>NonlinearSolver&#45;&gt;Newton</title>
<path fill="none" stroke="black" stroke-width="0.5" d="M80.9982,-166.233C99.484,-181.549 137.36,-211.578 173,-231.5 176.982,-233.726 181.295,-235.836 185.606,-237.777"/>
<polygon fill="black" stroke="black" stroke-width="0.5" points="184.984,-239.415 190.267,-239.812 186.385,-236.207 184.984,-239.415"/>
</g>
<!-- NonlinearSolver&#45;&gt;FasTwoLevel -->
<g id="edge8" class="edge"><title>NonlinearSolver&#45;&gt;FasTwoLevel</title>
<path fill="none" stroke="black" stroke-width="0.5" d="M94.7702,-166.127C120.272,-175.842 159.643,-190.84 186.664,-201.134"/>
<polygon fill="black" stroke="black" stroke-width="0.5" points="186.264,-202.854 191.56,-202.999 187.51,-199.583 186.264,-202.854"/>
</g>
<!-- NLGaussSeidel -->
<g id="node14" class="node"><title>NLGaussSeidel</title>
<g id="a_node14"><a xlink:href="../api/proteus.NonlinearSolvers.html#proteus.NonlinearSolvers.NLGaussSeidel" xlink:title="Nonlinear Gauss&#45;Seidel." target="_top">
<polygon fill="none" stroke="black" stroke-width="0.5" points="262,-185 173,-185 173,-166 262,-166 262,-185"/>
<text text-anchor="middle" x="217.5" y="-173" font-family="Vera Sans, DejaVu Sans, Liberation Sans, Arial, Helvetica, sans" font-size="10.00">NLGaussSeidel</text>
</a>
</g>
</g>
<!-- NonlinearSolver&#45;&gt;NLGaussSeidel -->
<g id="edge10" class="edge"><title>NonlinearSolver&#45;&gt;NLGaussSeidel</title>
<path fill="none" stroke="black" stroke-width="0.5" d="M114.804,-162.356C131.547,-164.52 150.591,-166.981 167.635,-169.184"/>
<polygon fill="black" stroke="black" stroke-width="0.5" points="167.673,-170.953 172.856,-169.859 168.122,-167.482 167.673,-170.953"/>
</g>
<!-- NLJacobi -->
<g id="node15" class="node"><title>NLJacobi</title>
<g id="a_node15"><a xlink:href="../api/proteus.NonlinearSolvers.html#proteus.NonlinearSolvers.NLJacobi" xlink:title="Nonlinear Jacobi iteration." target="_top">
<polygon fill="none" stroke="black" stroke-width="0.5" points="246,-148 189,-148 189,-129 246,-129 246,-148"/>
<text text-anchor="middle" x="217.5" y="-136" font-family="Vera Sans, DejaVu Sans, Liberation Sans, Arial, Helvetica, sans" font-size="10.00">NLJacobi</text>
</a>
</g>
</g>
<!-- NonlinearSolver&#45;&gt;NLJacobi -->
<g id="edge11" class="edge"><title>NonlinearSolver&#45;&gt;NLJacobi</title>
<path fill="none" stroke="black" stroke-width="0.5" d="M114.804,-150.953C137.046,-148.229 163.348,-145.008 183.631,-142.525"/>
<polygon fill="black" stroke="black" stroke-width="0.5" points="183.902,-144.255 188.652,-141.91 183.476,-140.781 183.902,-144.255"/>
</g>
<!-- NLStarILU -->
<g id="node17" class="node"><title>NLStarILU</title>
<g id="a_node17"><a xlink:href="../api/proteus.NonlinearSolvers.html#proteus.NonlinearSolvers.NLStarILU" xlink:title="Nonlinear alternating Schwarz on node stars." target="_top">
<polygon fill="none" stroke="black" stroke-width="0.5" points="249.5,-111 185.5,-111 185.5,-92 249.5,-92 249.5,-111"/>
<text text-anchor="middle" x="217.5" y="-99" font-family="Vera Sans, DejaVu Sans, Liberation Sans, Arial, Helvetica, sans" font-size="10.00">NLStarILU</text>
</a>
</g>
</g>
<!-- NonlinearSolver&#45;&gt;NLStarILU -->
<g id="edge13" class="edge"><title>NonlinearSolver&#45;&gt;NLStarILU</title>
<path fill="none" stroke="black" stroke-width="0.5" d="M95.1054,-146.92C120.351,-137.474 158.948,-123.033 185.819,-112.979"/>
<polygon fill="black" stroke="black" stroke-width="0.5" points="186.625,-114.546 190.695,-111.155 185.399,-111.268 186.625,-114.546"/>
</g>
<!-- NewtonNS -->
<g id="node18" class="node"><title>NewtonNS</title>
<g id="a_node18"><a xlink:href="../api/proteus.NonlinearSolvers.html#proteus.NonlinearSolvers.NewtonNS" xlink:title="A simple iterative solver that is Newton&#39;s method" target="_top">
<polygon fill="none" stroke="black" stroke-width="0.5" points="251,-74 184,-74 184,-55 251,-55 251,-74"/>
<text text-anchor="middle" x="217.5" y="-62" font-family="Vera Sans, DejaVu Sans, Liberation Sans, Arial, Helvetica, sans" font-size="10.00">NewtonNS</text>
</a>
</g>
</g>
<!-- NonlinearSolver&#45;&gt;NewtonNS -->
<g id="edge15" class="edge"><title>NonlinearSolver&#45;&gt;NewtonNS</title>
<path fill="none" stroke="black" stroke-width="0.5" d="M81.0219,-146.911C99.5402,-131.82 137.459,-102.218 173,-82.5 177.094,-80.2287 181.533,-78.0727 185.959,-76.094"/>
<polygon fill="black" stroke="black" stroke-width="0.5" points="186.849,-77.6155 190.739,-74.0195 185.456,-74.4049 186.849,-77.6155"/>
</g>
<!-- MultilevelNonlinearSolver -->
<g id="node13" class="node"><title>MultilevelNonlinearSolver</title>
<g id="a_node13"><a xlink:href="../api/proteus.NonlinearSolvers.html#proteus.NonlinearSolvers.MultilevelNonlinearSolver" xlink:title="A generic multilevel solver." target="_top">
<polygon fill="none" stroke="black" stroke-width="0.5" points="137,-296 0,-296 0,-277 137,-277 137,-296"/>
<text text-anchor="middle" x="68.5" y="-284" font-family="Vera Sans, DejaVu Sans, Liberation Sans, Arial, Helvetica, sans" font-size="10.00">MultilevelNonlinearSolver</text>
</a>
</g>
</g>
<!-- NLNI -->
<g id="node16" class="node"><title>NLNI</title>
<g id="a_node16"><a xlink:href="../api/proteus.NonlinearSolvers.html#proteus.NonlinearSolvers.NLNI" xlink:title="Nonlinear nested iteration." target="_top">
<polygon fill="none" stroke="black" stroke-width="0.5" points="244.5,-296 190.5,-296 190.5,-277 244.5,-277 244.5,-296"/>
<text text-anchor="middle" x="217.5" y="-284" font-family="Vera Sans, DejaVu Sans, Liberation Sans, Arial, Helvetica, sans" font-size="10.00">NLNI</text>
</a>
</g>
</g>
<!-- MultilevelNonlinearSolver&#45;&gt;NLNI -->
<g id="edge12" class="edge"><title>MultilevelNonlinearSolver&#45;&gt;NLNI</title>
<path fill="none" stroke="black" stroke-width="0.5" d="M137.406,-286.5C154.156,-286.5 171.296,-286.5 185.318,-286.5"/>
<polygon fill="black" stroke="black" stroke-width="0.5" points="185.337,-288.25 190.337,-286.5 185.337,-284.75 185.337,-288.25"/>
</g>
<!-- NonlinearEquation -->
<g id="node20" class="node"><title>NonlinearEquation</title>
<g id="a_node20"><a xlink:href="../api/proteus.NonlinearSolvers.html#proteus.NonlinearSolvers.NonlinearEquation" xlink:title="The base class for nonlinear equations." target="_top">
<polygon fill="none" stroke="black" stroke-width="0.5" points="120.5,-333 16.5,-333 16.5,-314 120.5,-314 120.5,-333"/>
<text text-anchor="middle" x="68.5" y="-321" font-family="Vera Sans, DejaVu Sans, Liberation Sans, Arial, Helvetica, sans" font-size="10.00">NonlinearEquation</text>
</a>
</g>
</g>
</g>
</svg>
