<?xml version="1.0" encoding="UTF-8" standalone="no"?>
<!DOCTYPE svg PUBLIC "-//W3C//DTD SVG 1.1//EN"
 "http://www.w3.org/Graphics/SVG/1.1/DTD/svg11.dtd">
<!-- Generated by graphviz version 2.50.0 (20211204.2007)
 -->
<!-- Title: ADR.h Pages: 1 -->
<svg width="1110pt" height="151pt"
 viewBox="0.00 0.00 1110.00 151.00" xmlns="http://www.w3.org/2000/svg" xmlns:xlink="http://www.w3.org/1999/xlink">
<g id="graph0" class="graph" transform="scale(1 1) rotate(0) translate(4 147)">
<title>ADR.h</title>
<polygon fill="white" stroke="transparent" points="-4,4 -4,-147 1106,-147 1106,4 -4,4"/>
<!-- Node1 -->
<g id="node1" class="node">
<title>Node1</title>
<g id="a_node1"><a xlink:title=" ">
<polygon fill="#bfbfbf" stroke="black" points="375.5,-123.5 375.5,-142.5 422.5,-142.5 422.5,-123.5 375.5,-123.5"/>
<text text-anchor="middle" x="399" y="-130.5" font-family="Helvetica,sans-Serif" font-size="10.00">ADR.h</text>
</a>
</g>
</g>
<!-- Node2 -->
<g id="node2" class="node">
<title>Node2</title>
<g id="a_node2"><a xlink:title=" ">
<polygon fill="white" stroke="#bfbfbf" points="0,-6 0,-25 44,-25 44,-6 0,-6"/>
<text text-anchor="middle" x="22" y="-13" font-family="Helvetica,sans-Serif" font-size="10.00">cmath</text>
</a>
</g>
</g>
<!-- Node1&#45;&gt;Node2 -->
<g id="edge1" class="edge">
<title>Node1&#45;&gt;Node2</title>
<path fill="none" stroke="midnightblue" d="M375.35,-132.33C303.73,-132.85 91.08,-130.6 41,-87 26.54,-74.41 22.53,-52.08 21.68,-35.92"/>
<polygon fill="midnightblue" stroke="midnightblue" points="25.17,-35.41 21.5,-25.47 18.17,-35.52 25.17,-35.41"/>
</g>
<!-- Node3 -->
<g id="node3" class="node">
<title>Node3</title>
<g id="a_node3"><a xlink:title=" ">
<polygon fill="white" stroke="#bfbfbf" points="62,-6 62,-25 116,-25 116,-6 62,-6"/>
<text text-anchor="middle" x="89" y="-13" font-family="Helvetica,sans-Serif" font-size="10.00">iostream</text>
</a>
</g>
</g>
<!-- Node1&#45;&gt;Node3 -->
<g id="edge2" class="edge">
<title>Node1&#45;&gt;Node3</title>
<path fill="none" stroke="midnightblue" d="M375.17,-130.84C333.24,-128.02 244.32,-118.5 177,-87 148.35,-73.59 120.82,-49.03 104.4,-32.73"/>
<polygon fill="midnightblue" stroke="midnightblue" points="106.78,-30.16 97.27,-25.48 101.78,-35.07 106.78,-30.16"/>
</g>
<!-- Node4 -->
<g id="node4" class="node">
<title>Node4</title>
<g id="a_node4"><a xlink:title=" ">
<polygon fill="white" stroke="#bfbfbf" points="432,-67.5 432,-86.5 462,-86.5 462,-67.5 432,-67.5"/>
<text text-anchor="middle" x="447" y="-74.5" font-family="Helvetica,sans-Serif" font-size="10.00">set</text>
</a>
</g>
</g>
<!-- Node1&#45;&gt;Node4 -->
<g id="edge3" class="edge">
<title>Node1&#45;&gt;Node4</title>
<path fill="none" stroke="midnightblue" d="M406.93,-123.08C413.85,-115.3 424.07,-103.8 432.45,-94.37"/>
<polygon fill="midnightblue" stroke="midnightblue" points="435.19,-96.55 439.22,-86.75 429.96,-91.9 435.19,-96.55"/>
</g>
<!-- Node5 -->
<g id="node5" class="node">
<title>Node5</title>
<g id="a_node5"><a xlink:title=" ">
<polygon fill="white" stroke="#bfbfbf" points="677.5,-6 677.5,-25 712.5,-25 712.5,-6 677.5,-6"/>
<text text-anchor="middle" x="695" y="-13" font-family="Helvetica,sans-Serif" font-size="10.00">map</text>
</a>
</g>
</g>
<!-- Node1&#45;&gt;Node5 -->
<g id="edge4" class="edge">
<title>Node1&#45;&gt;Node5</title>
<path fill="none" stroke="midnightblue" d="M422.82,-124.26C470.27,-108.57 579.65,-71.09 668,-31 668.85,-30.62 669.71,-30.22 670.57,-29.8"/>
<polygon fill="midnightblue" stroke="midnightblue" points="672.42,-32.79 679.76,-25.14 669.26,-26.55 672.42,-32.79"/>
</g>
<!-- Node6 -->
<g id="node6" class="node">
<title>Node6</title>
<g id="a_node6"><a xlink:title=" ">
<polygon fill="white" stroke="#bfbfbf" points="879.5,-67.5 879.5,-86.5 930.5,-86.5 930.5,-67.5 879.5,-67.5"/>
<text text-anchor="middle" x="905" y="-74.5" font-family="Helvetica,sans-Serif" font-size="10.00">valarray</text>
</a>
</g>
</g>
<!-- Node1&#45;&gt;Node6 -->
<g id="edge5" class="edge">
<title>Node1&#45;&gt;Node6</title>
<path fill="none" stroke="midnightblue" d="M422.9,-130.75C491.83,-126.92 696.86,-113.93 865,-87 866.45,-86.77 867.93,-86.51 869.41,-86.25"/>
<polygon fill="midnightblue" stroke="midnightblue" points="870.15,-89.67 879.27,-84.29 868.78,-82.8 870.15,-89.67"/>
</g>
<!-- Node7 -->
<g id="node7" class="node">
<title>Node7</title>
<g id="a_node7"><a xlink:href="_comp_kernel_8h.html" target="_top" xlink:title=" ">
<polygon fill="white" stroke="black" points="50.5,-67.5 50.5,-86.5 129.5,-86.5 129.5,-67.5 50.5,-67.5"/>
<text text-anchor="middle" x="90" y="-74.5" font-family="Helvetica,sans-Serif" font-size="10.00">CompKernel.h</text>
</a>
</g>
</g>
<!-- Node1&#45;&gt;Node7 -->
<g id="edge6" class="edge">
<title>Node1&#45;&gt;Node7</title>
<path fill="none" stroke="midnightblue" d="M375.27,-127.85C325.06,-119.08 207.18,-98.48 139.72,-86.69"/>
<polygon fill="midnightblue" stroke="midnightblue" points="140.2,-83.22 129.74,-84.95 138.99,-90.11 140.2,-83.22"/>
</g>
<!-- Node8 -->
<g id="node8" class="node">
<title>Node8</title>
<g id="a_node8"><a xlink:href="_model_factory_8h.html" target="_top" xlink:title=" ">
<polygon fill="white" stroke="black" points="186.5,-67.5 186.5,-86.5 269.5,-86.5 269.5,-67.5 186.5,-67.5"/>
<text text-anchor="middle" x="228" y="-74.5" font-family="Helvetica,sans-Serif" font-size="10.00">ModelFactory.h</text>
</a>
</g>
</g>
<!-- Node1&#45;&gt;Node8 -->
<g id="edge8" class="edge">
<title>Node1&#45;&gt;Node8</title>
<path fill="none" stroke="midnightblue" d="M375.22,-124.49C346.61,-115.46 298.26,-100.19 264.82,-89.63"/>
<polygon fill="midnightblue" stroke="midnightblue" points="265.54,-86.19 254.95,-86.51 263.44,-92.86 265.54,-86.19"/>
</g>
<!-- Node9 -->
<g id="node9" class="node">
<title>Node9</title>
<g id="a_node9"><a xlink:href="equivalent__polynomials_8h.html" target="_top" xlink:title=" ">
<polygon fill="white" stroke="black" points="288,-67.5 288,-86.5 414,-86.5 414,-67.5 288,-67.5"/>
<text text-anchor="middle" x="351" y="-74.5" font-family="Helvetica,sans-Serif" font-size="10.00">equivalent_polynomials.h</text>
</a>
</g>
</g>
<!-- Node1&#45;&gt;Node9 -->
<g id="edge10" class="edge">
<title>Node1&#45;&gt;Node9</title>
<path fill="none" stroke="midnightblue" d="M391.07,-123.08C384.15,-115.3 373.93,-103.8 365.55,-94.37"/>
<polygon fill="midnightblue" stroke="midnightblue" points="368.04,-91.9 358.78,-86.75 362.81,-96.55 368.04,-91.9"/>
</g>
<!-- Node15 -->
<g id="node15" class="node">
<title>Node15</title>
<g id="a_node15"><a xlink:href="_arguments_dict_8h.html" target="_top" xlink:title=" ">
<polygon fill="white" stroke="black" points="697.5,-67.5 697.5,-86.5 822.5,-86.5 822.5,-67.5 697.5,-67.5"/>
<text text-anchor="middle" x="760" y="-74.5" font-family="Helvetica,sans-Serif" font-size="10.00">mprans/ArgumentsDict.h</text>
</a>
</g>
</g>
<!-- Node1&#45;&gt;Node15 -->
<g id="edge18" class="edge">
<title>Node1&#45;&gt;Node15</title>
<path fill="none" stroke="midnightblue" d="M422.69,-128.46C476.82,-120.36 611.23,-100.25 693.1,-88.01"/>
<polygon fill="midnightblue" stroke="midnightblue" points="693.69,-91.46 703.06,-86.52 692.65,-84.54 693.69,-91.46"/>
</g>
<!-- Node18 -->
<g id="node18" class="node">
<title>Node18</title>
<g id="a_node18"><a xlink:title=" ">
<polygon fill="white" stroke="#bfbfbf" points="968,-6 968,-25 1102,-25 1102,-6 968,-6"/>
<text text-anchor="middle" x="1035" y="-13" font-family="Helvetica,sans-Serif" font-size="10.00">xtensor&#45;python/pyarray.hpp</text>
</a>
</g>
</g>
<!-- Node1&#45;&gt;Node18 -->
<g id="edge24" class="edge">
<title>Node1&#45;&gt;Node18</title>
<path fill="none" stroke="midnightblue" d="M422.59,-132.56C488.72,-133.5 680.94,-131.86 832,-87 850.67,-81.45 852.96,-74.34 871,-67 910.76,-50.83 957.72,-36.86 991.18,-27.74"/>
<polygon fill="midnightblue" stroke="midnightblue" points="992.36,-31.05 1001.11,-25.07 990.54,-24.29 992.36,-31.05"/>
</g>
<!-- Node7&#45;&gt;Node2 -->
<g id="edge7" class="edge">
<title>Node7&#45;&gt;Node2</title>
<path fill="none" stroke="midnightblue" d="M80.26,-67.48C69.65,-58.2 52.48,-43.17 39.52,-31.83"/>
<polygon fill="midnightblue" stroke="midnightblue" points="41.56,-28.96 31.72,-25.01 36.95,-34.23 41.56,-28.96"/>
</g>
<!-- Node8&#45;&gt;Node3 -->
<g id="edge9" class="edge">
<title>Node8&#45;&gt;Node3</title>
<path fill="none" stroke="midnightblue" d="M208.08,-67.48C184.55,-57.4 145.19,-40.55 118.21,-29"/>
<polygon fill="midnightblue" stroke="midnightblue" points="119.45,-25.73 108.88,-25.01 116.69,-32.16 119.45,-25.73"/>
</g>
<!-- Node9&#45;&gt;Node2 -->
<g id="edge11" class="edge">
<title>Node9&#45;&gt;Node2</title>
<path fill="none" stroke="midnightblue" d="M288,-67.47C207.25,-56.38 75,-37.66 53,-31 51.12,-30.43 49.22,-29.77 47.32,-29.05"/>
<polygon fill="midnightblue" stroke="midnightblue" points="48.63,-25.8 38.06,-25.08 45.88,-32.24 48.63,-25.8"/>
</g>
<!-- Node9&#45;&gt;Node3 -->
<g id="edge13" class="edge">
<title>Node9&#45;&gt;Node3</title>
<path fill="none" stroke="midnightblue" d="M292.68,-67.46C246.61,-59.98 180.97,-47.69 125,-31 122.57,-30.28 120.08,-29.45 117.59,-28.57"/>
<polygon fill="midnightblue" stroke="midnightblue" points="118.79,-25.28 108.2,-25 116.3,-31.82 118.79,-25.28"/>
</g>
<!-- Node10 -->
<g id="node10" class="node">
<title>Node10</title>
<g id="a_node10"><a xlink:title=" ">
<polygon fill="white" stroke="#bfbfbf" points="610.5,-6 610.5,-25 659.5,-25 659.5,-6 610.5,-6"/>
<text text-anchor="middle" x="635" y="-13" font-family="Helvetica,sans-Serif" font-size="10.00">cassert</text>
</a>
</g>
</g>
<!-- Node9&#45;&gt;Node10 -->
<g id="edge12" class="edge">
<title>Node9&#45;&gt;Node10</title>
<path fill="none" stroke="midnightblue" d="M406.73,-67.47C468.93,-57.68 565.51,-41.61 601,-31 603.15,-30.36 605.34,-29.62 607.53,-28.83"/>
<polygon fill="midnightblue" stroke="midnightblue" points="608.92,-32.04 616.93,-25.1 606.34,-25.53 608.92,-32.04"/>
</g>
<!-- Node11 -->
<g id="node11" class="node">
<title>Node11</title>
<g id="a_node11"><a xlink:title=" ">
<polygon fill="white" stroke="#bfbfbf" points="134,-6 134,-25 184,-25 184,-6 134,-6"/>
<text text-anchor="middle" x="159" y="-13" font-family="Helvetica,sans-Serif" font-size="10.00">iomanip</text>
</a>
</g>
</g>
<!-- Node9&#45;&gt;Node11 -->
<g id="edge14" class="edge">
<title>Node9&#45;&gt;Node11</title>
<path fill="none" stroke="midnightblue" d="M316.4,-67.48C284.12,-59.23 234.81,-45.8 193,-31 191.14,-30.34 189.24,-29.63 187.33,-28.89"/>
<polygon fill="midnightblue" stroke="midnightblue" points="188.48,-25.58 177.89,-25.06 185.84,-32.07 188.48,-25.58"/>
</g>
<!-- Node12 -->
<g id="node12" class="node">
<title>Node12</title>
<g id="a_node12"><a xlink:href="equivalent__polynomials__coefficients_8h.html" target="_top" xlink:title=" ">
<polygon fill="white" stroke="black" points="202,-0.5 202,-30.5 320,-30.5 320,-0.5 202,-0.5"/>
<text text-anchor="start" x="210" y="-18.5" font-family="Helvetica,sans-Serif" font-size="10.00">equivalent_polynomials</text>
<text text-anchor="middle" x="261" y="-7.5" font-family="Helvetica,sans-Serif" font-size="10.00">_coefficients.h</text>
</a>
</g>
</g>
<!-- Node9&#45;&gt;Node12 -->
<g id="edge15" class="edge">
<title>Node9&#45;&gt;Node12</title>
<path fill="none" stroke="midnightblue" d="M338.11,-67.48C325.8,-59.34 306.82,-46.79 290.77,-36.18"/>
<polygon fill="midnightblue" stroke="midnightblue" points="292.48,-33.12 282.21,-30.52 288.62,-38.96 292.48,-33.12"/>
</g>
<!-- Node13 -->
<g id="node13" class="node">
<title>Node13</title>
<g id="a_node13"><a xlink:href="equivalent__polynomials__coefficients__quad_8h.html" target="_top" xlink:title=" ">
<polygon fill="white" stroke="black" points="338,-0.5 338,-30.5 456,-30.5 456,-0.5 338,-0.5"/>
<text text-anchor="start" x="346" y="-18.5" font-family="Helvetica,sans-Serif" font-size="10.00">equivalent_polynomials</text>
<text text-anchor="middle" x="397" y="-7.5" font-family="Helvetica,sans-Serif" font-size="10.00">_coefficients_quad.h</text>
</a>
</g>
</g>
<!-- Node9&#45;&gt;Node13 -->
<g id="edge16" class="edge">
<title>Node9&#45;&gt;Node13</title>
<path fill="none" stroke="midnightblue" d="M357.59,-67.48C363.41,-59.94 372.16,-48.63 379.94,-38.57"/>
<polygon fill="midnightblue" stroke="midnightblue" points="382.81,-40.58 386.16,-30.52 377.27,-36.29 382.81,-40.58"/>
</g>
<!-- Node14 -->
<g id="node14" class="node">
<title>Node14</title>
<g id="a_node14"><a xlink:href="equivalent__polynomials__utils_8h.html" target="_top" xlink:title=" ">
<polygon fill="white" stroke="black" points="474,-0.5 474,-30.5 592,-30.5 592,-0.5 474,-0.5"/>
<text text-anchor="start" x="482" y="-18.5" font-family="Helvetica,sans-Serif" font-size="10.00">equivalent_polynomials</text>
<text text-anchor="middle" x="533" y="-7.5" font-family="Helvetica,sans-Serif" font-size="10.00">_utils.h</text>
</a>
</g>
</g>
<!-- Node9&#45;&gt;Node14 -->
<g id="edge17" class="edge">
<title>Node9&#45;&gt;Node14</title>
<path fill="none" stroke="midnightblue" d="M377.08,-67.48C403.91,-58.7 446.47,-44.79 480.35,-33.71"/>
<polygon fill="midnightblue" stroke="midnightblue" points="481.69,-36.96 490.11,-30.52 479.51,-30.3 481.69,-36.96"/>
</g>
<!-- Node15&#45;&gt;Node5 -->
<g id="edge19" class="edge">
<title>Node15&#45;&gt;Node5</title>
<path fill="none" stroke="midnightblue" d="M750.69,-67.48C740.55,-58.2 724.14,-43.17 711.75,-31.83"/>
<polygon fill="midnightblue" stroke="midnightblue" points="714.04,-29.18 704.3,-25.01 709.31,-34.34 714.04,-29.18"/>
</g>
<!-- Node16 -->
<g id="node16" class="node">
<title>Node16</title>
<g id="a_node16"><a xlink:title=" ">
<polygon fill="white" stroke="#bfbfbf" points="730.5,-6 730.5,-25 789.5,-25 789.5,-6 730.5,-6"/>
<text text-anchor="middle" x="760" y="-13" font-family="Helvetica,sans-Serif" font-size="10.00">stdexcept</text>
</a>
</g>
</g>
<!-- Node15&#45;&gt;Node16 -->
<g id="edge20" class="edge">
<title>Node15&#45;&gt;Node16</title>
<path fill="none" stroke="midnightblue" d="M760,-67.48C760,-59.08 760,-45.98 760,-35.16"/>
<polygon fill="midnightblue" stroke="midnightblue" points="763.5,-35.01 760,-25.01 756.5,-35.01 763.5,-35.01"/>
</g>
<!-- Node17 -->
<g id="node17" class="node">
<title>Node17</title>
<g id="a_node17"><a xlink:title=" ">
<polygon fill="white" stroke="#bfbfbf" points="807.5,-6 807.5,-25 848.5,-25 848.5,-6 807.5,-6"/>
<text text-anchor="middle" x="828" y="-13" font-family="Helvetica,sans-Serif" font-size="10.00">string</text>
</a>
</g>
</g>
<!-- Node15&#45;&gt;Node17 -->
<g id="edge21" class="edge">
<title>Node15&#45;&gt;Node17</title>
<path fill="none" stroke="midnightblue" d="M769.74,-67.48C780.35,-58.2 797.52,-43.17 810.48,-31.83"/>
<polygon fill="midnightblue" stroke="midnightblue" points="813.05,-34.23 818.28,-25.01 808.44,-28.96 813.05,-34.23"/>
</g>
<!-- Node15&#45;&gt;Node18 -->
<g id="edge22" class="edge">
<title>Node15&#45;&gt;Node18</title>
<path fill="none" stroke="midnightblue" d="M799.4,-67.48C848.51,-56.85 932.47,-38.68 985.77,-27.15"/>
<polygon fill="midnightblue" stroke="midnightblue" points="986.64,-30.54 995.67,-25.01 985.16,-23.7 986.64,-30.54"/>
</g>
<!-- Node19 -->
<g id="node19" class="node">
<title>Node19</title>
<g id="a_node19"><a xlink:title=" ">
<polygon fill="white" stroke="#bfbfbf" points="866.5,-6 866.5,-25 949.5,-25 949.5,-6 866.5,-6"/>
<text text-anchor="middle" x="908" y="-13" font-family="Helvetica,sans-Serif" font-size="10.00">xtensor/xio.hpp</text>
</a>
</g>
</g>
<!-- Node15&#45;&gt;Node19 -->
<g id="edge23" class="edge">
<title>Node15&#45;&gt;Node19</title>
<path fill="none" stroke="midnightblue" d="M781.2,-67.48C806.37,-57.36 848.54,-40.4 877.28,-28.85"/>
<polygon fill="midnightblue" stroke="midnightblue" points="878.86,-31.99 886.83,-25.01 876.25,-25.49 878.86,-31.99"/>
</g>
</g>
</svg>
