<?xml version="1.0" encoding="UTF-8" standalone="no"?>
<!DOCTYPE svg PUBLIC "-//W3C//DTD SVG 1.1//EN"
 "http://www.w3.org/Graphics/SVG/1.1/DTD/svg11.dtd">
<!-- Generated by graphviz version 2.40.1 (20161225.0304)
 -->
<!-- Title: ADR.cpp Pages: 1 -->
<svg width="940pt" height="207pt"
 viewBox="0.00 0.00 939.95 207.00" xmlns="http://www.w3.org/2000/svg" xmlns:xlink="http://www.w3.org/1999/xlink">
<g id="graph0" class="graph" transform="scale(1 1) rotate(0) translate(4 203)">
<title>ADR.cpp</title>
<polygon fill="#ffffff" stroke="transparent" points="-4,4 -4,-203 935.9511,-203 935.9511,4 -4,4"/>
<!-- Node0 -->
<g id="node1" class="node">
<title>Node0</title>
<polygon fill="#bfbfbf" stroke="#000000" points="242.9511,-179.5 242.9511,-198.5 299.9511,-198.5 299.9511,-179.5 242.9511,-179.5"/>
<text text-anchor="middle" x="271.4511" y="-186.5" font-family="Helvetica,sans-Serif" font-size="10.00" fill="#000000">ADR.cpp</text>
</g>
<!-- Node1 -->
<g id="node2" class="node">
<title>Node1</title>
<polygon fill="#ffffff" stroke="#bfbfbf" points="96.4511,-123.5 96.4511,-142.5 202.4511,-142.5 202.4511,-123.5 96.4511,-123.5"/>
<text text-anchor="middle" x="149.4511" y="-130.5" font-family="Helvetica,sans-Serif" font-size="10.00" fill="#000000">pybind11/pybind11.h</text>
</g>
<!-- Node0&#45;&gt;Node1 -->
<g id="edge1" class="edge">
<title>Node0&#45;&gt;Node1</title>
<path fill="none" stroke="#191970" d="M250.4785,-179.3733C230.8943,-170.3838 201.455,-156.8706 179.4001,-146.7471"/>
<polygon fill="#191970" stroke="#191970" points="180.6983,-143.4919 170.1499,-142.5011 177.7781,-149.8538 180.6983,-143.4919"/>
</g>
<!-- Node2 -->
<g id="node3" class="node">
<title>Node2</title>
<polygon fill="#ffffff" stroke="#bfbfbf" points="220.9511,-123.5 220.9511,-142.5 321.9511,-142.5 321.9511,-123.5 220.9511,-123.5"/>
<text text-anchor="middle" x="271.4511" y="-130.5" font-family="Helvetica,sans-Serif" font-size="10.00" fill="#000000">pybind11/stl_bind.h</text>
</g>
<!-- Node0&#45;&gt;Node2 -->
<g id="edge2" class="edge">
<title>Node0&#45;&gt;Node2</title>
<path fill="none" stroke="#191970" d="M271.4511,-179.2455C271.4511,-171.9382 271.4511,-161.6944 271.4511,-152.7046"/>
<polygon fill="#191970" stroke="#191970" points="274.9512,-152.6426 271.4511,-142.6427 267.9512,-152.6427 274.9512,-152.6426"/>
</g>
<!-- Node3 -->
<g id="node4" class="node">
<title>Node3</title>
<g id="a_node4"><a xlink:href="_a_d_r_8h.html" target="_top" xlink:title="ADR.h">
<polygon fill="#ffffff" stroke="#000000" points="339.9511,-123.5 339.9511,-142.5 386.9511,-142.5 386.9511,-123.5 339.9511,-123.5"/>
<text text-anchor="middle" x="363.4511" y="-130.5" font-family="Helvetica,sans-Serif" font-size="10.00" fill="#000000">ADR.h</text>
</a>
</g>
</g>
<!-- Node0&#45;&gt;Node3 -->
<g id="edge3" class="edge">
<title>Node0&#45;&gt;Node3</title>
<path fill="none" stroke="#191970" d="M287.4762,-179.2455C301.5919,-170.6534 322.3774,-158.0014 338.6409,-148.1018"/>
<polygon fill="#191970" stroke="#191970" points="340.8874,-150.8319 347.6095,-142.6427 337.2477,-144.8525 340.8874,-150.8319"/>
</g>
<!-- Node4 -->
<g id="node5" class="node">
<title>Node4</title>
<polygon fill="#ffffff" stroke="#bfbfbf" points="32.4511,-6 32.4511,-25 76.4511,-25 76.4511,-6 32.4511,-6"/>
<text text-anchor="middle" x="54.4511" y="-13" font-family="Helvetica,sans-Serif" font-size="10.00" fill="#000000">cmath</text>
</g>
<!-- Node3&#45;&gt;Node4 -->
<g id="edge4" class="edge">
<title>Node3&#45;&gt;Node4</title>
<path fill="none" stroke="#191970" d="M339.792,-125.2616C336.6727,-124.4093 333.5005,-123.6254 330.4511,-123 259.2686,-108.4018 53.9213,-141.1358 5.4511,-87 -10.3757,-69.3233 11.8794,-46.299 31.3112,-31.2193"/>
<polygon fill="#191970" stroke="#191970" points="33.6506,-33.8429 39.6199,-25.0897 29.4949,-28.2099 33.6506,-33.8429"/>
</g>
<!-- Node5 -->
<g id="node6" class="node">
<title>Node5</title>
<polygon fill="#ffffff" stroke="#bfbfbf" points="94.4511,-6 94.4511,-25 148.4511,-25 148.4511,-6 94.4511,-6"/>
<text text-anchor="middle" x="121.4511" y="-13" font-family="Helvetica,sans-Serif" font-size="10.00" fill="#000000">iostream</text>
</g>
<!-- Node3&#45;&gt;Node5 -->
<g id="edge5" class="edge">
<title>Node3&#45;&gt;Node5</title>
<path fill="none" stroke="#191970" d="M339.7412,-125.4869C336.6302,-124.5978 333.4739,-123.7437 330.4511,-123 247.4167,-102.572 204.4166,-144.8562 141.4511,-87 127.2615,-73.9619 122.8242,-51.7677 121.5879,-35.5579"/>
<polygon fill="#191970" stroke="#191970" points="125.0812,-35.3216 121.163,-25.4779 118.0874,-35.6165 125.0812,-35.3216"/>
</g>
<!-- Node6 -->
<g id="node7" class="node">
<title>Node6</title>
<polygon fill="#ffffff" stroke="#bfbfbf" points="396.4511,-67.5 396.4511,-86.5 426.4511,-86.5 426.4511,-67.5 396.4511,-67.5"/>
<text text-anchor="middle" x="411.4511" y="-74.5" font-family="Helvetica,sans-Serif" font-size="10.00" fill="#000000">set</text>
</g>
<!-- Node3&#45;&gt;Node6 -->
<g id="edge6" class="edge">
<title>Node3&#45;&gt;Node6</title>
<path fill="none" stroke="#191970" d="M371.812,-123.2455C378.6261,-115.2958 388.4192,-103.8706 396.5663,-94.3656"/>
<polygon fill="#191970" stroke="#191970" points="399.3354,-96.513 403.1859,-86.6427 394.0206,-91.9575 399.3354,-96.513"/>
</g>
<!-- Node7 -->
<g id="node8" class="node">
<title>Node7</title>
<polygon fill="#ffffff" stroke="#bfbfbf" points="506.9511,-6 506.9511,-25 541.9511,-25 541.9511,-6 506.9511,-6"/>
<text text-anchor="middle" x="524.4511" y="-13" font-family="Helvetica,sans-Serif" font-size="10.00" fill="#000000">map</text>
</g>
<!-- Node3&#45;&gt;Node7 -->
<g id="edge7" class="edge">
<title>Node3&#45;&gt;Node7</title>
<path fill="none" stroke="#191970" d="M379.5079,-123.4308C394.3192,-114.4435 416.7742,-100.4087 435.4511,-87 460.3564,-69.1197 487.659,-46.7419 505.3685,-31.8302"/>
<polygon fill="#191970" stroke="#191970" points="507.8717,-34.2967 513.2391,-25.1621 503.3467,-28.9558 507.8717,-34.2967"/>
</g>
<!-- Node8 -->
<g id="node9" class="node">
<title>Node8</title>
<polygon fill="#ffffff" stroke="#bfbfbf" points="708.9511,-67.5 708.9511,-86.5 759.9511,-86.5 759.9511,-67.5 708.9511,-67.5"/>
<text text-anchor="middle" x="734.4511" y="-74.5" font-family="Helvetica,sans-Serif" font-size="10.00" fill="#000000">valarray</text>
</g>
<!-- Node3&#45;&gt;Node8 -->
<g id="edge8" class="edge">
<title>Node3&#45;&gt;Node8</title>
<path fill="none" stroke="#191970" d="M387.2752,-130.5737C441.8978,-124.8183 580.2531,-109.1442 694.4511,-87 695.9004,-86.719 697.3759,-86.4183 698.8639,-86.103"/>
<polygon fill="#191970" stroke="#191970" points="699.7452,-89.492 708.7207,-83.8625 698.1936,-82.6661 699.7452,-89.492"/>
</g>
<!-- Node9 -->
<g id="node10" class="node">
<title>Node9</title>
<g id="a_node10"><a xlink:href="_comp_kernel_8h.html" target="_top" xlink:title="CompKernel.h">
<polygon fill="#ffffff" stroke="#000000" points="14.9511,-67.5 14.9511,-86.5 93.9511,-86.5 93.9511,-67.5 14.9511,-67.5"/>
<text text-anchor="middle" x="54.4511" y="-74.5" font-family="Helvetica,sans-Serif" font-size="10.00" fill="#000000">CompKernel.h</text>
</a>
</g>
</g>
<!-- Node3&#45;&gt;Node9 -->
<g id="edge9" class="edge">
<title>Node3&#45;&gt;Node9</title>
<path fill="none" stroke="#191970" d="M339.7601,-125.4077C336.6461,-124.5316 333.4838,-123.7021 330.4511,-123 233.071,-100.4559 206.9328,-104.1015 108.4511,-87 106.9833,-86.7451 105.4935,-86.4841 103.9899,-86.2186"/>
<polygon fill="#191970" stroke="#191970" points="104.4124,-82.7387 93.9519,-84.4202 103.1779,-89.629 104.4124,-82.7387"/>
</g>
<!-- Node10 -->
<g id="node11" class="node">
<title>Node10</title>
<g id="a_node11"><a xlink:href="_model_factory_8h.html" target="_top" xlink:title="ModelFactory.h">
<polygon fill="#ffffff" stroke="#000000" points="150.4511,-67.5 150.4511,-86.5 234.4511,-86.5 234.4511,-67.5 150.4511,-67.5"/>
<text text-anchor="middle" x="192.4511" y="-74.5" font-family="Helvetica,sans-Serif" font-size="10.00" fill="#000000">ModelFactory.h</text>
</a>
</g>
</g>
<!-- Node3&#45;&gt;Node10 -->
<g id="edge11" class="edge">
<title>Node3&#45;&gt;Node10</title>
<path fill="none" stroke="#191970" d="M339.6742,-125.2134C311.7303,-116.0622 264.9516,-100.7429 231.6249,-89.8289"/>
<polygon fill="#191970" stroke="#191970" points="232.3425,-86.381 221.7498,-86.5949 230.1639,-93.0334 232.3425,-86.381"/>
</g>
<!-- Node11 -->
<g id="node12" class="node">
<title>Node11</title>
<g id="a_node12"><a xlink:href="equivalent__polynomials_8h.html" target="_top" xlink:title="equivalent_polynomials.h">
<polygon fill="#ffffff" stroke="#000000" points="252.4511,-67.5 252.4511,-86.5 378.4511,-86.5 378.4511,-67.5 252.4511,-67.5"/>
<text text-anchor="middle" x="315.4511" y="-74.5" font-family="Helvetica,sans-Serif" font-size="10.00" fill="#000000">equivalent_polynomials.h</text>
</a>
</g>
</g>
<!-- Node3&#45;&gt;Node11 -->
<g id="edge13" class="edge">
<title>Node3&#45;&gt;Node11</title>
<path fill="none" stroke="#191970" d="M355.0901,-123.2455C348.276,-115.2958 338.483,-103.8706 330.3358,-94.3656"/>
<polygon fill="#191970" stroke="#191970" points="332.8816,-91.9575 323.7162,-86.6427 327.5667,-96.513 332.8816,-91.9575"/>
</g>
<!-- Node15 -->
<g id="node16" class="node">
<title>Node15</title>
<g id="a_node16"><a xlink:href="_arguments_dict_8h.html" target="_top" xlink:title="mprans/ArgumentsDict.h">
<polygon fill="#ffffff" stroke="#000000" points="526.9511,-67.5 526.9511,-86.5 651.9511,-86.5 651.9511,-67.5 526.9511,-67.5"/>
<text text-anchor="middle" x="589.4511" y="-74.5" font-family="Helvetica,sans-Serif" font-size="10.00" fill="#000000">mprans/ArgumentsDict.h</text>
</a>
</g>
</g>
<!-- Node3&#45;&gt;Node15 -->
<g id="edge19" class="edge">
<title>Node3&#45;&gt;Node15</title>
<path fill="none" stroke="#191970" d="M387.2099,-127.1129C423.6063,-118.0943 493.9152,-100.6726 541.2725,-88.938"/>
<polygon fill="#191970" stroke="#191970" points="542.1446,-92.3279 551.0092,-86.5254 540.461,-85.5334 542.1446,-92.3279"/>
</g>
<!-- Node18 -->
<g id="node19" class="node">
<title>Node18</title>
<polygon fill="#ffffff" stroke="#bfbfbf" points="796.9511,-6 796.9511,-25 931.9511,-25 931.9511,-6 796.9511,-6"/>
<text text-anchor="middle" x="864.4511" y="-13" font-family="Helvetica,sans-Serif" font-size="10.00" fill="#000000">xtensor&#45;python/pyarray.hpp</text>
</g>
<!-- Node3&#45;&gt;Node18 -->
<g id="edge25" class="edge">
<title>Node3&#45;&gt;Node18</title>
<path fill="none" stroke="#191970" d="M387.226,-131.9087C438.5082,-129.0016 562.8523,-118.9651 661.4511,-87 679.9813,-80.9926 682.4272,-74.389 700.4511,-67 739.2383,-51.0988 784.8368,-37.1422 818.0938,-27.7837"/>
<polygon fill="#191970" stroke="#191970" points="819.3007,-31.081 827.9975,-25.0299 817.4254,-24.3369 819.3007,-31.081"/>
</g>
<!-- Node9&#45;&gt;Node4 -->
<g id="edge10" class="edge">
<title>Node9&#45;&gt;Node4</title>
<path fill="none" stroke="#191970" d="M54.4511,-67.3906C54.4511,-58.8657 54.4511,-46.1392 54.4511,-35.4235"/>
<polygon fill="#191970" stroke="#191970" points="57.9512,-35.2448 54.4511,-25.2449 50.9512,-35.2449 57.9512,-35.2448"/>
</g>
<!-- Node10&#45;&gt;Node5 -->
<g id="edge12" class="edge">
<title>Node10&#45;&gt;Node5</title>
<path fill="none" stroke="#191970" d="M181.3573,-67.3906C170.4796,-57.9683 153.6763,-43.4134 140.6311,-32.1137"/>
<polygon fill="#191970" stroke="#191970" points="142.5514,-29.1466 132.7012,-25.2449 137.9683,-34.4377 142.5514,-29.1466"/>
</g>
<!-- Node11&#45;&gt;Node4 -->
<g id="edge14" class="edge">
<title>Node11&#45;&gt;Node4</title>
<path fill="none" stroke="#191970" d="M258.872,-67.4628C201.5034,-57.4745 116.8426,-41.7707 85.4511,-31 83.8468,-30.4496 82.2199,-29.8324 80.595,-29.1699"/>
<polygon fill="#191970" stroke="#191970" points="82.0309,-25.9781 71.4787,-25.0286 79.1356,-32.3513 82.0309,-25.9781"/>
</g>
<!-- Node11&#45;&gt;Node5 -->
<g id="edge16" class="edge">
<title>Node11&#45;&gt;Node5</title>
<path fill="none" stroke="#191970" d="M278.0044,-67.4944C245.7254,-58.9702 198.0498,-45.5872 157.4511,-31 155.626,-30.3442 153.761,-29.6424 151.8878,-28.9128"/>
<polygon fill="#191970" stroke="#191970" points="153.179,-25.6596 142.598,-25.1193 150.5326,-32.1401 153.179,-25.6596"/>
</g>
<!-- Node12 -->
<g id="node13" class="node">
<title>Node12</title>
<polygon fill="#ffffff" stroke="#bfbfbf" points="166.9511,-6 166.9511,-25 215.9511,-25 215.9511,-6 166.9511,-6"/>
<text text-anchor="middle" x="191.4511" y="-13" font-family="Helvetica,sans-Serif" font-size="10.00" fill="#000000">cassert</text>
</g>
<!-- Node11&#45;&gt;Node12 -->
<g id="edge15" class="edge">
<title>Node11&#45;&gt;Node12</title>
<path fill="none" stroke="#191970" d="M296.0761,-67.3906C275.6016,-57.2359 243.1069,-41.1196 219.7625,-29.5416"/>
<polygon fill="#191970" stroke="#191970" points="221.2038,-26.3496 210.69,-25.0419 218.0935,-32.6207 221.2038,-26.3496"/>
</g>
<!-- Node13 -->
<g id="node14" class="node">
<title>Node13</title>
<g id="a_node14"><a xlink:href="equivalent__polynomials__coefficients_8h.html" target="_top" xlink:title="equivalent_polynomials\l_coefficients.h">
<polygon fill="#ffffff" stroke="#000000" points="234.4511,-.5 234.4511,-30.5 352.4511,-30.5 352.4511,-.5 234.4511,-.5"/>
<text text-anchor="start" x="242.4511" y="-18.5" font-family="Helvetica,sans-Serif" font-size="10.00" fill="#000000">equivalent_polynomials</text>
<text text-anchor="middle" x="293.4511" y="-7.5" font-family="Helvetica,sans-Serif" font-size="10.00" fill="#000000">_coefficients.h</text>
</a>
</g>
</g>
<!-- Node11&#45;&gt;Node13 -->
<g id="edge17" class="edge">
<title>Node11&#45;&gt;Node13</title>
<path fill="none" stroke="#191970" d="M312.0136,-67.3906C309.3945,-60.0692 305.6669,-49.6488 302.2384,-40.0647"/>
<polygon fill="#191970" stroke="#191970" points="305.4966,-38.7814 298.8329,-30.5446 298.9056,-41.1392 305.4966,-38.7814"/>
</g>
<!-- Node14 -->
<g id="node15" class="node">
<title>Node14</title>
<g id="a_node15"><a xlink:href="equivalent__polynomials__utils_8h.html" target="_top" xlink:title="equivalent_polynomials\l_utils.h">
<polygon fill="#ffffff" stroke="#000000" points="370.4511,-.5 370.4511,-30.5 488.4511,-30.5 488.4511,-.5 370.4511,-.5"/>
<text text-anchor="start" x="378.4511" y="-18.5" font-family="Helvetica,sans-Serif" font-size="10.00" fill="#000000">equivalent_polynomials</text>
<text text-anchor="middle" x="429.4511" y="-7.5" font-family="Helvetica,sans-Serif" font-size="10.00" fill="#000000">_utils.h</text>
</a>
</g>
</g>
<!-- Node11&#45;&gt;Node14 -->
<g id="edge18" class="edge">
<title>Node11&#45;&gt;Node14</title>
<path fill="none" stroke="#191970" d="M333.2636,-67.3906C349.1206,-58.8361 372.8201,-46.0509 392.7262,-35.3121"/>
<polygon fill="#191970" stroke="#191970" points="394.4243,-38.3729 401.5635,-30.5446 391.1007,-32.2122 394.4243,-38.3729"/>
</g>
<!-- Node15&#45;&gt;Node7 -->
<g id="edge20" class="edge">
<title>Node15&#45;&gt;Node7</title>
<path fill="none" stroke="#191970" d="M579.2948,-67.3906C569.4311,-58.0581 554.2455,-43.6902 542.3524,-32.4374"/>
<polygon fill="#191970" stroke="#191970" points="544.4199,-29.5753 534.7505,-25.2449 539.609,-34.6601 544.4199,-29.5753"/>
</g>
<!-- Node16 -->
<g id="node17" class="node">
<title>Node16</title>
<polygon fill="#ffffff" stroke="#bfbfbf" points="559.9511,-6 559.9511,-25 618.9511,-25 618.9511,-6 559.9511,-6"/>
<text text-anchor="middle" x="589.4511" y="-13" font-family="Helvetica,sans-Serif" font-size="10.00" fill="#000000">stdexcept</text>
</g>
<!-- Node15&#45;&gt;Node16 -->
<g id="edge21" class="edge">
<title>Node15&#45;&gt;Node16</title>
<path fill="none" stroke="#191970" d="M589.4511,-67.3906C589.4511,-58.8657 589.4511,-46.1392 589.4511,-35.4235"/>
<polygon fill="#191970" stroke="#191970" points="592.9512,-35.2448 589.4511,-25.2449 585.9512,-35.2449 592.9512,-35.2448"/>
</g>
<!-- Node17 -->
<g id="node18" class="node">
<title>Node17</title>
<polygon fill="#ffffff" stroke="#bfbfbf" points="636.9511,-6 636.9511,-25 677.9511,-25 677.9511,-6 636.9511,-6"/>
<text text-anchor="middle" x="657.4511" y="-13" font-family="Helvetica,sans-Serif" font-size="10.00" fill="#000000">string</text>
</g>
<!-- Node15&#45;&gt;Node17 -->
<g id="edge22" class="edge">
<title>Node15&#45;&gt;Node17</title>
<path fill="none" stroke="#191970" d="M600.0761,-67.3906C610.4942,-57.9683 626.5875,-43.4134 639.0815,-32.1137"/>
<polygon fill="#191970" stroke="#191970" points="641.6073,-34.5484 646.6763,-25.2449 636.9119,-29.3568 641.6073,-34.5484"/>
</g>
<!-- Node15&#45;&gt;Node18 -->
<g id="edge23" class="edge">
<title>Node15&#45;&gt;Node18</title>
<path fill="none" stroke="#191970" d="M632.1181,-67.4581C680.4889,-56.6406 759.388,-38.9959 811.6118,-27.3168"/>
<polygon fill="#191970" stroke="#191970" points="812.6889,-30.6624 821.6839,-25.0643 811.1611,-23.8312 812.6889,-30.6624"/>
</g>
<!-- Node19 -->
<g id="node20" class="node">
<title>Node19</title>
<polygon fill="#ffffff" stroke="#bfbfbf" points="695.9511,-6 695.9511,-25 778.9511,-25 778.9511,-6 695.9511,-6"/>
<text text-anchor="middle" x="737.4511" y="-13" font-family="Helvetica,sans-Serif" font-size="10.00" fill="#000000">xtensor/xio.hpp</text>
</g>
<!-- Node15&#45;&gt;Node19 -->
<g id="edge24" class="edge">
<title>Node15&#45;&gt;Node19</title>
<path fill="none" stroke="#191970" d="M612.5761,-67.3906C637.4478,-57.0554 677.1808,-40.5447 705.1354,-28.9284"/>
<polygon fill="#191970" stroke="#191970" points="706.5971,-32.1113 714.4884,-25.0419 703.9109,-25.6472 706.5971,-32.1113"/>
</g>
</g>
</svg>
