<?xml version="1.0" encoding="UTF-8" standalone="no"?>
<!DOCTYPE svg PUBLIC "-//W3C//DTD SVG 1.1//EN"
 "http://www.w3.org/Graphics/SVG/1.1/DTD/svg11.dtd">
<!-- Generated by graphviz version 2.40.1 (20161225.0304)
 -->
<!-- Title: ADR.h Pages: 1 -->
<svg width="940pt" height="151pt"
 viewBox="0.00 0.00 939.88 151.00" xmlns="http://www.w3.org/2000/svg" xmlns:xlink="http://www.w3.org/1999/xlink">
<g id="graph0" class="graph" transform="scale(1 1) rotate(0) translate(4 147)">
<title>ADR.h</title>
<polygon fill="#ffffff" stroke="transparent" points="-4,4 -4,-147 935.8767,-147 935.8767,4 -4,4"/>
<!-- Node0 -->
<g id="node1" class="node">
<title>Node0</title>
<polygon fill="#bfbfbf" stroke="#000000" points="339.8767,-123.5 339.8767,-142.5 386.8767,-142.5 386.8767,-123.5 339.8767,-123.5"/>
<text text-anchor="middle" x="363.3767" y="-130.5" font-family="Helvetica,sans-Serif" font-size="10.00" fill="#000000">ADR.h</text>
</g>
<!-- Node1 -->
<g id="node2" class="node">
<title>Node1</title>
<polygon fill="#ffffff" stroke="#bfbfbf" points="32.3767,-6 32.3767,-25 76.3767,-25 76.3767,-6 32.3767,-6"/>
<text text-anchor="middle" x="54.3767" y="-13" font-family="Helvetica,sans-Serif" font-size="10.00" fill="#000000">cmath</text>
</g>
<!-- Node0&#45;&gt;Node1 -->
<g id="edge1" class="edge">
<title>Node0&#45;&gt;Node1</title>
<path fill="none" stroke="#191970" d="M339.6861,-131.7394C263.36,-127.4393 27.5463,-112.2005 5.3767,-87 -10.2951,-69.1858 11.9241,-46.1933 31.3055,-31.1584"/>
<polygon fill="#191970" stroke="#191970" points="33.6197,-33.8006 39.5913,-25.049 29.4655,-28.1665 33.6197,-33.8006"/>
</g>
<!-- Node2 -->
<g id="node3" class="node">
<title>Node2</title>
<polygon fill="#ffffff" stroke="#bfbfbf" points="94.3767,-6 94.3767,-25 148.3767,-25 148.3767,-6 94.3767,-6"/>
<text text-anchor="middle" x="121.3767" y="-13" font-family="Helvetica,sans-Serif" font-size="10.00" fill="#000000">iostream</text>
</g>
<!-- Node0&#45;&gt;Node2 -->
<g id="edge2" class="edge">
<title>Node0&#45;&gt;Node2</title>
<path fill="none" stroke="#191970" d="M339.5174,-131.1494C288.2697,-126.699 170.0006,-113.7292 141.3767,-87 127.2925,-73.8481 122.8374,-51.673 121.5682,-35.4988"/>
<polygon fill="#191970" stroke="#191970" points="125.062,-35.2786 121.1193,-25.4447 118.0689,-35.5909 125.062,-35.2786"/>
</g>
<!-- Node3 -->
<g id="node4" class="node">
<title>Node3</title>
<polygon fill="#ffffff" stroke="#bfbfbf" points="396.3767,-67.5 396.3767,-86.5 426.3767,-86.5 426.3767,-67.5 396.3767,-67.5"/>
<text text-anchor="middle" x="411.3767" y="-74.5" font-family="Helvetica,sans-Serif" font-size="10.00" fill="#000000">set</text>
</g>
<!-- Node0&#45;&gt;Node3 -->
<g id="edge3" class="edge">
<title>Node0&#45;&gt;Node3</title>
<path fill="none" stroke="#191970" d="M371.7376,-123.2455C378.5517,-115.2958 388.3448,-103.8706 396.4919,-94.3656"/>
<polygon fill="#191970" stroke="#191970" points="399.261,-96.513 403.1115,-86.6427 393.9462,-91.9575 399.261,-96.513"/>
</g>
<!-- Node4 -->
<g id="node5" class="node">
<title>Node4</title>
<polygon fill="#ffffff" stroke="#bfbfbf" points="506.8767,-6 506.8767,-25 541.8767,-25 541.8767,-6 506.8767,-6"/>
<text text-anchor="middle" x="524.3767" y="-13" font-family="Helvetica,sans-Serif" font-size="10.00" fill="#000000">map</text>
</g>
<!-- Node0&#45;&gt;Node4 -->
<g id="edge4" class="edge">
<title>Node0&#45;&gt;Node4</title>
<path fill="none" stroke="#191970" d="M379.4335,-123.4308C394.2448,-114.4435 416.6998,-100.4087 435.3767,-87 460.282,-69.1197 487.5846,-46.7419 505.2941,-31.8302"/>
<polygon fill="#191970" stroke="#191970" points="507.7973,-34.2967 513.1647,-25.1621 503.2723,-28.9558 507.7973,-34.2967"/>
</g>
<!-- Node5 -->
<g id="node6" class="node">
<title>Node5</title>
<polygon fill="#ffffff" stroke="#bfbfbf" points="708.8767,-67.5 708.8767,-86.5 759.8767,-86.5 759.8767,-67.5 708.8767,-67.5"/>
<text text-anchor="middle" x="734.3767" y="-74.5" font-family="Helvetica,sans-Serif" font-size="10.00" fill="#000000">valarray</text>
</g>
<!-- Node0&#45;&gt;Node5 -->
<g id="edge5" class="edge">
<title>Node0&#45;&gt;Node5</title>
<path fill="none" stroke="#191970" d="M387.2008,-130.5737C441.8234,-124.8183 580.1787,-109.1442 694.3767,-87 695.826,-86.719 697.3015,-86.4183 698.7895,-86.103"/>
<polygon fill="#191970" stroke="#191970" points="699.6708,-89.492 708.6463,-83.8625 698.1192,-82.6661 699.6708,-89.492"/>
</g>
<!-- Node6 -->
<g id="node7" class="node">
<title>Node6</title>
<g id="a_node7"><a xlink:href="_comp_kernel_8h.html" target="_top" xlink:title="CompKernel.h">
<polygon fill="#ffffff" stroke="#000000" points="14.8767,-67.5 14.8767,-86.5 93.8767,-86.5 93.8767,-67.5 14.8767,-67.5"/>
<text text-anchor="middle" x="54.3767" y="-74.5" font-family="Helvetica,sans-Serif" font-size="10.00" fill="#000000">CompKernel.h</text>
</a>
</g>
</g>
<!-- Node0&#45;&gt;Node6 -->
<g id="edge6" class="edge">
<title>Node0&#45;&gt;Node6</title>
<path fill="none" stroke="#191970" d="M339.8154,-128.7874C294.8222,-120.7345 193.5621,-102.5709 108.3767,-87 106.9112,-86.7321 105.4234,-86.4597 103.9216,-86.1843"/>
<polygon fill="#191970" stroke="#191970" points="104.36,-82.7063 93.8918,-84.3395 103.0937,-89.5908 104.36,-82.7063"/>
</g>
<!-- Node7 -->
<g id="node8" class="node">
<title>Node7</title>
<g id="a_node8"><a xlink:href="_model_factory_8h.html" target="_top" xlink:title="ModelFactory.h">
<polygon fill="#ffffff" stroke="#000000" points="150.3767,-67.5 150.3767,-86.5 234.3767,-86.5 234.3767,-67.5 150.3767,-67.5"/>
<text text-anchor="middle" x="192.3767" y="-74.5" font-family="Helvetica,sans-Serif" font-size="10.00" fill="#000000">ModelFactory.h</text>
</a>
</g>
</g>
<!-- Node0&#45;&gt;Node7 -->
<g id="edge8" class="edge">
<title>Node0&#45;&gt;Node7</title>
<path fill="none" stroke="#191970" d="M339.5998,-125.2134C311.6559,-116.0622 264.8772,-100.7429 231.5505,-89.8289"/>
<polygon fill="#191970" stroke="#191970" points="232.2681,-86.381 221.6754,-86.5949 230.0895,-93.0334 232.2681,-86.381"/>
</g>
<!-- Node8 -->
<g id="node9" class="node">
<title>Node8</title>
<g id="a_node9"><a xlink:href="equivalent__polynomials_8h.html" target="_top" xlink:title="equivalent_polynomials.h">
<polygon fill="#ffffff" stroke="#000000" points="252.3767,-67.5 252.3767,-86.5 378.3767,-86.5 378.3767,-67.5 252.3767,-67.5"/>
<text text-anchor="middle" x="315.3767" y="-74.5" font-family="Helvetica,sans-Serif" font-size="10.00" fill="#000000">equivalent_polynomials.h</text>
</a>
</g>
</g>
<!-- Node0&#45;&gt;Node8 -->
<g id="edge10" class="edge">
<title>Node0&#45;&gt;Node8</title>
<path fill="none" stroke="#191970" d="M355.0157,-123.2455C348.2017,-115.2958 338.4086,-103.8706 330.2614,-94.3656"/>
<polygon fill="#191970" stroke="#191970" points="332.8072,-91.9575 323.6418,-86.6427 327.4923,-96.513 332.8072,-91.9575"/>
</g>
<!-- Node12 -->
<g id="node13" class="node">
<title>Node12</title>
<g id="a_node13"><a xlink:href="_arguments_dict_8h.html" target="_top" xlink:title="mprans/ArgumentsDict.h">
<polygon fill="#ffffff" stroke="#000000" points="526.8767,-67.5 526.8767,-86.5 651.8767,-86.5 651.8767,-67.5 526.8767,-67.5"/>
<text text-anchor="middle" x="589.3767" y="-74.5" font-family="Helvetica,sans-Serif" font-size="10.00" fill="#000000">mprans/ArgumentsDict.h</text>
</a>
</g>
</g>
<!-- Node0&#45;&gt;Node12 -->
<g id="edge16" class="edge">
<title>Node0&#45;&gt;Node12</title>
<path fill="none" stroke="#191970" d="M387.1355,-127.1129C423.5319,-118.0943 493.8408,-100.6726 541.1981,-88.938"/>
<polygon fill="#191970" stroke="#191970" points="542.0702,-92.3279 550.9348,-86.5254 540.3866,-85.5334 542.0702,-92.3279"/>
</g>
<!-- Node15 -->
<g id="node16" class="node">
<title>Node15</title>
<polygon fill="#ffffff" stroke="#bfbfbf" points="796.8767,-6 796.8767,-25 931.8767,-25 931.8767,-6 796.8767,-6"/>
<text text-anchor="middle" x="864.3767" y="-13" font-family="Helvetica,sans-Serif" font-size="10.00" fill="#000000">xtensor&#45;python/pyarray.hpp</text>
</g>
<!-- Node0&#45;&gt;Node15 -->
<g id="edge22" class="edge">
<title>Node0&#45;&gt;Node15</title>
<path fill="none" stroke="#191970" d="M387.1516,-131.9087C438.4339,-129.0016 562.7779,-118.9651 661.3767,-87 679.9069,-80.9926 682.3528,-74.389 700.3767,-67 739.1639,-51.0988 784.7624,-37.1422 818.0194,-27.7837"/>
<polygon fill="#191970" stroke="#191970" points="819.2263,-31.081 827.9231,-25.0299 817.351,-24.3369 819.2263,-31.081"/>
</g>
<!-- Node6&#45;&gt;Node1 -->
<g id="edge7" class="edge">
<title>Node6&#45;&gt;Node1</title>
<path fill="none" stroke="#191970" d="M54.3767,-67.3906C54.3767,-58.8657 54.3767,-46.1392 54.3767,-35.4235"/>
<polygon fill="#191970" stroke="#191970" points="57.8768,-35.2448 54.3767,-25.2449 50.8768,-35.2449 57.8768,-35.2448"/>
</g>
<!-- Node7&#45;&gt;Node2 -->
<g id="edge9" class="edge">
<title>Node7&#45;&gt;Node2</title>
<path fill="none" stroke="#191970" d="M181.2829,-67.3906C170.4052,-57.9683 153.6019,-43.4134 140.5567,-32.1137"/>
<polygon fill="#191970" stroke="#191970" points="142.477,-29.1466 132.6268,-25.2449 137.8939,-34.4377 142.477,-29.1466"/>
</g>
<!-- Node8&#45;&gt;Node1 -->
<g id="edge11" class="edge">
<title>Node8&#45;&gt;Node1</title>
<path fill="none" stroke="#191970" d="M258.7976,-67.4628C201.429,-57.4745 116.7682,-41.7707 85.3767,-31 83.7724,-30.4496 82.1455,-29.8324 80.5206,-29.1699"/>
<polygon fill="#191970" stroke="#191970" points="81.9565,-25.9781 71.4043,-25.0286 79.0612,-32.3513 81.9565,-25.9781"/>
</g>
<!-- Node8&#45;&gt;Node2 -->
<g id="edge13" class="edge">
<title>Node8&#45;&gt;Node2</title>
<path fill="none" stroke="#191970" d="M277.93,-67.4944C245.651,-58.9702 197.9754,-45.5872 157.3767,-31 155.5516,-30.3442 153.6866,-29.6424 151.8134,-28.9128"/>
<polygon fill="#191970" stroke="#191970" points="153.1046,-25.6596 142.5236,-25.1193 150.4582,-32.1401 153.1046,-25.6596"/>
</g>
<!-- Node9 -->
<g id="node10" class="node">
<title>Node9</title>
<polygon fill="#ffffff" stroke="#bfbfbf" points="166.8767,-6 166.8767,-25 215.8767,-25 215.8767,-6 166.8767,-6"/>
<text text-anchor="middle" x="191.3767" y="-13" font-family="Helvetica,sans-Serif" font-size="10.00" fill="#000000">cassert</text>
</g>
<!-- Node8&#45;&gt;Node9 -->
<g id="edge12" class="edge">
<title>Node8&#45;&gt;Node9</title>
<path fill="none" stroke="#191970" d="M296.0017,-67.3906C275.5272,-57.2359 243.0325,-41.1196 219.6881,-29.5416"/>
<polygon fill="#191970" stroke="#191970" points="221.1294,-26.3496 210.6156,-25.0419 218.0191,-32.6207 221.1294,-26.3496"/>
</g>
<!-- Node10 -->
<g id="node11" class="node">
<title>Node10</title>
<g id="a_node11"><a xlink:href="equivalent__polynomials__coefficients_8h.html" target="_top" xlink:title="equivalent_polynomials\l_coefficients.h">
<polygon fill="#ffffff" stroke="#000000" points="234.3767,-.5 234.3767,-30.5 352.3767,-30.5 352.3767,-.5 234.3767,-.5"/>
<text text-anchor="start" x="242.3767" y="-18.5" font-family="Helvetica,sans-Serif" font-size="10.00" fill="#000000">equivalent_polynomials</text>
<text text-anchor="middle" x="293.3767" y="-7.5" font-family="Helvetica,sans-Serif" font-size="10.00" fill="#000000">_coefficients.h</text>
</a>
</g>
</g>
<!-- Node8&#45;&gt;Node10 -->
<g id="edge14" class="edge">
<title>Node8&#45;&gt;Node10</title>
<path fill="none" stroke="#191970" d="M311.9392,-67.3906C309.3201,-60.0692 305.5925,-49.6488 302.164,-40.0647"/>
<polygon fill="#191970" stroke="#191970" points="305.4222,-38.7814 298.7585,-30.5446 298.8313,-41.1392 305.4222,-38.7814"/>
</g>
<!-- Node11 -->
<g id="node12" class="node">
<title>Node11</title>
<g id="a_node12"><a xlink:href="equivalent__polynomials__utils_8h.html" target="_top" xlink:title="equivalent_polynomials\l_utils.h">
<polygon fill="#ffffff" stroke="#000000" points="370.3767,-.5 370.3767,-30.5 488.3767,-30.5 488.3767,-.5 370.3767,-.5"/>
<text text-anchor="start" x="378.3767" y="-18.5" font-family="Helvetica,sans-Serif" font-size="10.00" fill="#000000">equivalent_polynomials</text>
<text text-anchor="middle" x="429.3767" y="-7.5" font-family="Helvetica,sans-Serif" font-size="10.00" fill="#000000">_utils.h</text>
</a>
</g>
</g>
<!-- Node8&#45;&gt;Node11 -->
<g id="edge15" class="edge">
<title>Node8&#45;&gt;Node11</title>
<path fill="none" stroke="#191970" d="M333.1892,-67.3906C349.0462,-58.8361 372.7457,-46.0509 392.6518,-35.3121"/>
<polygon fill="#191970" stroke="#191970" points="394.3499,-38.3729 401.4891,-30.5446 391.0263,-32.2122 394.3499,-38.3729"/>
</g>
<!-- Node12&#45;&gt;Node4 -->
<g id="edge17" class="edge">
<title>Node12&#45;&gt;Node4</title>
<path fill="none" stroke="#191970" d="M579.2204,-67.3906C569.3567,-58.0581 554.1711,-43.6902 542.278,-32.4374"/>
<polygon fill="#191970" stroke="#191970" points="544.3455,-29.5753 534.6761,-25.2449 539.5346,-34.6601 544.3455,-29.5753"/>
</g>
<!-- Node13 -->
<g id="node14" class="node">
<title>Node13</title>
<polygon fill="#ffffff" stroke="#bfbfbf" points="559.8767,-6 559.8767,-25 618.8767,-25 618.8767,-6 559.8767,-6"/>
<text text-anchor="middle" x="589.3767" y="-13" font-family="Helvetica,sans-Serif" font-size="10.00" fill="#000000">stdexcept</text>
</g>
<!-- Node12&#45;&gt;Node13 -->
<g id="edge18" class="edge">
<title>Node12&#45;&gt;Node13</title>
<path fill="none" stroke="#191970" d="M589.3767,-67.3906C589.3767,-58.8657 589.3767,-46.1392 589.3767,-35.4235"/>
<polygon fill="#191970" stroke="#191970" points="592.8768,-35.2448 589.3767,-25.2449 585.8768,-35.2449 592.8768,-35.2448"/>
</g>
<!-- Node14 -->
<g id="node15" class="node">
<title>Node14</title>
<polygon fill="#ffffff" stroke="#bfbfbf" points="636.8767,-6 636.8767,-25 677.8767,-25 677.8767,-6 636.8767,-6"/>
<text text-anchor="middle" x="657.3767" y="-13" font-family="Helvetica,sans-Serif" font-size="10.00" fill="#000000">string</text>
</g>
<!-- Node12&#45;&gt;Node14 -->
<g id="edge19" class="edge">
<title>Node12&#45;&gt;Node14</title>
<path fill="none" stroke="#191970" d="M600.0017,-67.3906C610.4198,-57.9683 626.5131,-43.4134 639.0071,-32.1137"/>
<polygon fill="#191970" stroke="#191970" points="641.5329,-34.5484 646.6019,-25.2449 636.8375,-29.3568 641.5329,-34.5484"/>
</g>
<!-- Node12&#45;&gt;Node15 -->
<g id="edge20" class="edge">
<title>Node12&#45;&gt;Node15</title>
<path fill="none" stroke="#191970" d="M632.0437,-67.4581C680.4145,-56.6406 759.3136,-38.9959 811.5374,-27.3168"/>
<polygon fill="#191970" stroke="#191970" points="812.6145,-30.6624 821.6095,-25.0643 811.0867,-23.8312 812.6145,-30.6624"/>
</g>
<!-- Node16 -->
<g id="node17" class="node">
<title>Node16</title>
<polygon fill="#ffffff" stroke="#bfbfbf" points="695.8767,-6 695.8767,-25 778.8767,-25 778.8767,-6 695.8767,-6"/>
<text text-anchor="middle" x="737.3767" y="-13" font-family="Helvetica,sans-Serif" font-size="10.00" fill="#000000">xtensor/xio.hpp</text>
</g>
<!-- Node12&#45;&gt;Node16 -->
<g id="edge21" class="edge">
<title>Node12&#45;&gt;Node16</title>
<path fill="none" stroke="#191970" d="M612.5017,-67.3906C637.3734,-57.0554 677.1064,-40.5447 705.061,-28.9284"/>
<polygon fill="#191970" stroke="#191970" points="706.5227,-32.1113 714.414,-25.0419 703.8365,-25.6472 706.5227,-32.1113"/>
</g>
</g>
</svg>
