<?xml version="1.0" encoding="UTF-8" standalone="no"?>
<!DOCTYPE svg PUBLIC "-//W3C//DTD SVG 1.1//EN"
 "http://www.w3.org/Graphics/SVG/1.1/DTD/svg11.dtd">
<!-- Generated by graphviz version 2.43.0 (0)
 -->
<!-- Title: ADR.h Pages: 1 -->
<svg width="1215pt" height="151pt"
 viewBox="0.00 0.00 1215.00 151.00" xmlns="http://www.w3.org/2000/svg" xmlns:xlink="http://www.w3.org/1999/xlink">
<g id="graph0" class="graph" transform="scale(1 1) rotate(0) translate(4 147)">
<title>ADR.h</title>
<polygon fill="white" stroke="transparent" points="-4,4 -4,-147 1211,-147 1211,4 -4,4"/>
<!-- Node1 -->
<g id="node1" class="node">
<title>Node1</title>
<g id="a_node1"><a xlink:title=" ">
<polygon fill="#bfbfbf" stroke="black" points="402,-123.5 402,-142.5 449,-142.5 449,-123.5 402,-123.5"/>
<text text-anchor="middle" x="425.5" y="-130.5" font-family="Helvetica,sans-Serif" font-size="10.00">ADR.h</text>
</a>
</g>
</g>
<!-- Node2 -->
<g id="node2" class="node">
<title>Node2</title>
<g id="a_node2"><a xlink:title=" ">
<polygon fill="white" stroke="#bfbfbf" points="0,-6 0,-25 47,-25 47,-6 0,-6"/>
<text text-anchor="middle" x="23.5" y="-13" font-family="Helvetica,sans-Serif" font-size="10.00">cmath</text>
</a>
</g>
</g>
<!-- Node1&#45;&gt;Node2 -->
<g id="edge1" class="edge">
<title>Node1&#45;&gt;Node2</title>
<path fill="none" stroke="midnightblue" d="M401.81,-132.55C326.85,-133.81 96.59,-133.71 42.5,-87 27.83,-74.33 23.91,-51.65 23.12,-35.43"/>
<polygon fill="midnightblue" stroke="midnightblue" points="26.62,-34.96 23,-25 19.62,-35.04 26.62,-34.96"/>
</g>
<!-- Node3 -->
<g id="node3" class="node">
<title>Node3</title>
<g id="a_node3"><a xlink:title=" ">
<polygon fill="white" stroke="#bfbfbf" points="65.5,-6 65.5,-25 125.5,-25 125.5,-6 65.5,-6"/>
<text text-anchor="middle" x="95.5" y="-13" font-family="Helvetica,sans-Serif" font-size="10.00">iostream</text>
</a>
</g>
</g>
<!-- Node1&#45;&gt;Node3 -->
<g id="edge2" class="edge">
<title>Node1&#45;&gt;Node3</title>
<path fill="none" stroke="midnightblue" d="M401.79,-131.32C357.25,-129.24 258.88,-120.86 184.5,-87 155.21,-73.66 127.08,-48.66 110.54,-32.3"/>
<polygon fill="midnightblue" stroke="midnightblue" points="112.91,-29.72 103.4,-25.05 107.92,-34.63 112.91,-29.72"/>
</g>
<!-- Node4 -->
<g id="node4" class="node">
<title>Node4</title>
<g id="a_node4"><a xlink:title=" ">
<polygon fill="white" stroke="#bfbfbf" points="462.5,-67.5 462.5,-86.5 494.5,-86.5 494.5,-67.5 462.5,-67.5"/>
<text text-anchor="middle" x="478.5" y="-74.5" font-family="Helvetica,sans-Serif" font-size="10.00">set</text>
</a>
</g>
</g>
<!-- Node1&#45;&gt;Node4 -->
<g id="edge3" class="edge">
<title>Node1&#45;&gt;Node4</title>
<path fill="none" stroke="midnightblue" d="M434.25,-123.08C441.97,-115.22 453.4,-103.57 462.72,-94.08"/>
<polygon fill="midnightblue" stroke="midnightblue" points="465.4,-96.34 469.91,-86.75 460.41,-91.44 465.4,-96.34"/>
</g>
<!-- Node5 -->
<g id="node5" class="node">
<title>Node5</title>
<g id="a_node5"><a xlink:title=" ">
<polygon fill="white" stroke="#bfbfbf" points="743.5,-6 743.5,-25 781.5,-25 781.5,-6 743.5,-6"/>
<text text-anchor="middle" x="762.5" y="-13" font-family="Helvetica,sans-Serif" font-size="10.00">map</text>
</a>
</g>
</g>
<!-- Node1&#45;&gt;Node5 -->
<g id="edge4" class="edge">
<title>Node1&#45;&gt;Node5</title>
<path fill="none" stroke="midnightblue" d="M449.23,-125.67C501.66,-111.36 630.92,-74.41 734.5,-31 735.53,-30.57 736.58,-30.11 737.64,-29.63"/>
<polygon fill="midnightblue" stroke="midnightblue" points="739.55,-32.6 747.02,-25.09 736.49,-26.3 739.55,-32.6"/>
</g>
<!-- Node6 -->
<g id="node6" class="node">
<title>Node6</title>
<g id="a_node6"><a xlink:title=" ">
<polygon fill="white" stroke="#bfbfbf" points="958,-67.5 958,-86.5 1015,-86.5 1015,-67.5 958,-67.5"/>
<text text-anchor="middle" x="986.5" y="-74.5" font-family="Helvetica,sans-Serif" font-size="10.00">valarray</text>
</a>
</g>
</g>
<!-- Node1&#45;&gt;Node6 -->
<g id="edge5" class="edge">
<title>Node1&#45;&gt;Node6</title>
<path fill="none" stroke="midnightblue" d="M449.11,-130.96C522.64,-127.49 753.96,-114.97 943.5,-87 944.96,-86.78 946.45,-86.55 947.95,-86.3"/>
<polygon fill="midnightblue" stroke="midnightblue" points="948.7,-89.72 957.9,-84.48 947.44,-82.84 948.7,-89.72"/>
</g>
<!-- Node7 -->
<g id="node7" class="node">
<title>Node7</title>
<g id="a_node7"><a xlink:href="_comp_kernel_8h.html" target="_top" xlink:title=" ">
<polygon fill="white" stroke="black" points="52,-67.5 52,-86.5 137,-86.5 137,-67.5 52,-67.5"/>
<text text-anchor="middle" x="94.5" y="-74.5" font-family="Helvetica,sans-Serif" font-size="10.00">CompKernel.h</text>
</a>
</g>
</g>
<!-- Node1&#45;&gt;Node7 -->
<g id="edge6" class="edge">
<title>Node1&#45;&gt;Node7</title>
<path fill="none" stroke="midnightblue" d="M401.96,-128.16C349.13,-119.54 220.07,-98.49 147.06,-86.57"/>
<polygon fill="midnightblue" stroke="midnightblue" points="147.58,-83.11 137.15,-84.96 146.45,-90.02 147.58,-83.11"/>
</g>
<!-- Node8 -->
<g id="node8" class="node">
<title>Node8</title>
<g id="a_node8"><a xlink:href="_model_factory_8h.html" target="_top" xlink:title=" ">
<polygon fill="white" stroke="black" points="194,-67.5 194,-86.5 283,-86.5 283,-67.5 194,-67.5"/>
<text text-anchor="middle" x="238.5" y="-74.5" font-family="Helvetica,sans-Serif" font-size="10.00">ModelFactory.h</text>
</a>
</g>
</g>
<!-- Node1&#45;&gt;Node8 -->
<g id="edge8" class="edge">
<title>Node1&#45;&gt;Node8</title>
<path fill="none" stroke="midnightblue" d="M401.82,-125.16C370.73,-116.19 315.74,-100.3 278.23,-89.47"/>
<polygon fill="midnightblue" stroke="midnightblue" points="278.73,-85.97 268.15,-86.56 276.78,-92.7 278.73,-85.97"/>
</g>
<!-- Node9 -->
<g id="node9" class="node">
<title>Node9</title>
<g id="a_node9"><a xlink:href="equivalent__polynomials_8h.html" target="_top" xlink:title=" ">
<polygon fill="white" stroke="black" points="301,-67.5 301,-86.5 444,-86.5 444,-67.5 301,-67.5"/>
<text text-anchor="middle" x="372.5" y="-74.5" font-family="Helvetica,sans-Serif" font-size="10.00">equivalent_polynomials.h</text>
</a>
</g>
</g>
<!-- Node1&#45;&gt;Node9 -->
<g id="edge10" class="edge">
<title>Node1&#45;&gt;Node9</title>
<path fill="none" stroke="midnightblue" d="M416.75,-123.08C409.03,-115.22 397.6,-103.57 388.28,-94.08"/>
<polygon fill="midnightblue" stroke="midnightblue" points="390.59,-91.44 381.09,-86.75 385.6,-96.34 390.59,-91.44"/>
</g>
<!-- Node15 -->
<g id="node15" class="node">
<title>Node15</title>
<g id="a_node15"><a xlink:href="_arguments_dict_8h.html" target="_top" xlink:title=" ">
<polygon fill="white" stroke="black" points="763.5,-67.5 763.5,-86.5 901.5,-86.5 901.5,-67.5 763.5,-67.5"/>
<text text-anchor="middle" x="832.5" y="-74.5" font-family="Helvetica,sans-Serif" font-size="10.00">mprans/ArgumentsDict.h</text>
</a>
</g>
</g>
<!-- Node1&#45;&gt;Node15 -->
<g id="edge18" class="edge">
<title>Node1&#45;&gt;Node15</title>
<path fill="none" stroke="midnightblue" d="M449.14,-128.86C508.23,-121.02 664.34,-100.31 758.12,-87.87"/>
<polygon fill="midnightblue" stroke="midnightblue" points="758.66,-91.33 768.12,-86.54 757.74,-84.39 758.66,-91.33"/>
</g>
<!-- Node18 -->
<g id="node18" class="node">
<title>Node18</title>
<g id="a_node18"><a xlink:title=" ">
<polygon fill="white" stroke="#bfbfbf" points="1056,-6 1056,-25 1207,-25 1207,-6 1056,-6"/>
<text text-anchor="middle" x="1131.5" y="-13" font-family="Helvetica,sans-Serif" font-size="10.00">xtensor&#45;python/pyarray.hpp</text>
</a>
</g>
</g>
<!-- Node1&#45;&gt;Node18 -->
<g id="edge24" class="edge">
<title>Node1&#45;&gt;Node18</title>
<path fill="none" stroke="midnightblue" d="M449.12,-131C533.85,-127.21 822.2,-112.7 910.5,-87 929.2,-81.56 931.35,-74.09 949.5,-67 993.06,-49.99 1044.56,-36.26 1081.64,-27.44"/>
<polygon fill="midnightblue" stroke="midnightblue" points="1082.76,-30.77 1091.7,-25.08 1081.16,-23.96 1082.76,-30.77"/>
</g>
<!-- Node7&#45;&gt;Node2 -->
<g id="edge7" class="edge">
<title>Node7&#45;&gt;Node2</title>
<path fill="none" stroke="midnightblue" d="M84.33,-67.48C73.15,-58.11 54.98,-42.88 41.41,-31.51"/>
<polygon fill="midnightblue" stroke="midnightblue" points="43.57,-28.75 33.65,-25.01 39.07,-34.11 43.57,-28.75"/>
</g>
<!-- Node8&#45;&gt;Node3 -->
<g id="edge9" class="edge">
<title>Node8&#45;&gt;Node3</title>
<path fill="none" stroke="midnightblue" d="M218.01,-67.48C193.69,-57.36 152.95,-40.4 125.18,-28.85"/>
<polygon fill="midnightblue" stroke="midnightblue" points="126.53,-25.62 115.95,-25.01 123.84,-32.08 126.53,-25.62"/>
</g>
<!-- Node9&#45;&gt;Node2 -->
<g id="edge11" class="edge">
<title>Node9&#45;&gt;Node2</title>
<path fill="none" stroke="midnightblue" d="M305.71,-67.47C220.12,-56.39 79.91,-37.68 56.5,-31 54.35,-30.39 52.15,-29.66 49.97,-28.87"/>
<polygon fill="midnightblue" stroke="midnightblue" points="51.22,-25.6 40.64,-25.09 48.59,-32.09 51.22,-25.6"/>
</g>
<!-- Node9&#45;&gt;Node3 -->
<g id="edge13" class="edge">
<title>Node9&#45;&gt;Node3</title>
<path fill="none" stroke="midnightblue" d="M312.19,-67.49C263.69,-59.95 194.05,-47.57 134.5,-31 131.85,-30.26 129.13,-29.42 126.41,-28.53"/>
<polygon fill="midnightblue" stroke="midnightblue" points="127.34,-25.15 116.74,-25.14 125.02,-31.75 127.34,-25.15"/>
</g>
<!-- Node10 -->
<g id="node10" class="node">
<title>Node10</title>
<g id="a_node10"><a xlink:title=" ">
<polygon fill="white" stroke="#bfbfbf" points="673.5,-6 673.5,-25 725.5,-25 725.5,-6 673.5,-6"/>
<text text-anchor="middle" x="699.5" y="-13" font-family="Helvetica,sans-Serif" font-size="10.00">cassert</text>
</a>
</g>
</g>
<!-- Node9&#45;&gt;Node10 -->
<g id="edge12" class="edge">
<title>Node9&#45;&gt;Node10</title>
<path fill="none" stroke="midnightblue" d="M440.19,-67.48C512.9,-57.99 623.5,-42.47 664.5,-31 666.94,-30.32 669.44,-29.51 671.92,-28.64"/>
<polygon fill="midnightblue" stroke="midnightblue" points="673.2,-31.89 681.27,-25.02 670.68,-25.36 673.2,-31.89"/>
</g>
<!-- Node11 -->
<g id="node11" class="node">
<title>Node11</title>
<g id="a_node11"><a xlink:title=" ">
<polygon fill="white" stroke="#bfbfbf" points="143.5,-6 143.5,-25 199.5,-25 199.5,-6 143.5,-6"/>
<text text-anchor="middle" x="171.5" y="-13" font-family="Helvetica,sans-Serif" font-size="10.00">iomanip</text>
</a>
</g>
</g>
<!-- Node9&#45;&gt;Node11 -->
<g id="edge14" class="edge">
<title>Node9&#45;&gt;Node11</title>
<path fill="none" stroke="midnightblue" d="M337.31,-67.49C303.88,-59.14 252.35,-45.56 208.5,-31 206.23,-30.25 203.91,-29.43 201.57,-28.59"/>
<polygon fill="midnightblue" stroke="midnightblue" points="202.69,-25.27 192.1,-25.02 200.22,-31.82 202.69,-25.27"/>
</g>
<!-- Node12 -->
<g id="node12" class="node">
<title>Node12</title>
<g id="a_node12"><a xlink:href="equivalent__polynomials__coefficients_8h.html" target="_top" xlink:title=" ">
<polygon fill="white" stroke="black" points="217.5,-0.5 217.5,-30.5 351.5,-30.5 351.5,-0.5 217.5,-0.5"/>
<text text-anchor="start" x="225.5" y="-18.5" font-family="Helvetica,sans-Serif" font-size="10.00">equivalent_polynomials</text>
<text text-anchor="middle" x="284.5" y="-7.5" font-family="Helvetica,sans-Serif" font-size="10.00">_coefficients.h</text>
</a>
</g>
</g>
<!-- Node9&#45;&gt;Node12 -->
<g id="edge15" class="edge">
<title>Node9&#45;&gt;Node12</title>
<path fill="none" stroke="midnightblue" d="M359.89,-67.48C347.86,-59.34 329.3,-46.79 313.6,-36.18"/>
<polygon fill="midnightblue" stroke="midnightblue" points="315.48,-33.22 305.24,-30.52 311.56,-39.02 315.48,-33.22"/>
</g>
<!-- Node13 -->
<g id="node13" class="node">
<title>Node13</title>
<g id="a_node13"><a xlink:href="equivalent__polynomials__coefficients__quad_8h.html" target="_top" xlink:title=" ">
<polygon fill="white" stroke="black" points="369.5,-0.5 369.5,-30.5 503.5,-30.5 503.5,-0.5 369.5,-0.5"/>
<text text-anchor="start" x="377.5" y="-18.5" font-family="Helvetica,sans-Serif" font-size="10.00">equivalent_polynomials</text>
<text text-anchor="middle" x="436.5" y="-7.5" font-family="Helvetica,sans-Serif" font-size="10.00">_coefficients_quad.h</text>
</a>
</g>
</g>
<!-- Node9&#45;&gt;Node13 -->
<g id="edge16" class="edge">
<title>Node9&#45;&gt;Node13</title>
<path fill="none" stroke="midnightblue" d="M381.67,-67.48C390.09,-59.64 402.92,-47.71 414.06,-37.37"/>
<polygon fill="midnightblue" stroke="midnightblue" points="416.48,-39.9 421.42,-30.52 411.71,-34.77 416.48,-39.9"/>
</g>
<!-- Node14 -->
<g id="node14" class="node">
<title>Node14</title>
<g id="a_node14"><a xlink:href="equivalent__polynomials__utils_8h.html" target="_top" xlink:title=" ">
<polygon fill="white" stroke="black" points="521.5,-0.5 521.5,-30.5 655.5,-30.5 655.5,-0.5 521.5,-0.5"/>
<text text-anchor="start" x="529.5" y="-18.5" font-family="Helvetica,sans-Serif" font-size="10.00">equivalent_polynomials</text>
<text text-anchor="middle" x="588.5" y="-7.5" font-family="Helvetica,sans-Serif" font-size="10.00">_utils.h</text>
</a>
</g>
</g>
<!-- Node9&#45;&gt;Node14 -->
<g id="edge17" class="edge">
<title>Node9&#45;&gt;Node14</title>
<path fill="none" stroke="midnightblue" d="M403.45,-67.48C435.78,-58.57 487.33,-44.37 527.82,-33.22"/>
<polygon fill="midnightblue" stroke="midnightblue" points="528.88,-36.55 537.59,-30.52 527.02,-29.8 528.88,-36.55"/>
</g>
<!-- Node15&#45;&gt;Node5 -->
<g id="edge19" class="edge">
<title>Node15&#45;&gt;Node5</title>
<path fill="none" stroke="midnightblue" d="M822.47,-67.48C811.45,-58.11 793.54,-42.88 780.16,-31.51"/>
<polygon fill="midnightblue" stroke="midnightblue" points="782.4,-28.82 772.51,-25.01 777.86,-34.15 782.4,-28.82"/>
</g>
<!-- Node16 -->
<g id="node16" class="node">
<title>Node16</title>
<g id="a_node16"><a xlink:title=" ">
<polygon fill="white" stroke="#bfbfbf" points="800,-6 800,-25 865,-25 865,-6 800,-6"/>
<text text-anchor="middle" x="832.5" y="-13" font-family="Helvetica,sans-Serif" font-size="10.00">stdexcept</text>
</a>
</g>
</g>
<!-- Node15&#45;&gt;Node16 -->
<g id="edge20" class="edge">
<title>Node15&#45;&gt;Node16</title>
<path fill="none" stroke="midnightblue" d="M832.5,-67.48C832.5,-59.08 832.5,-45.98 832.5,-35.16"/>
<polygon fill="midnightblue" stroke="midnightblue" points="836,-35.01 832.5,-25.01 829,-35.01 836,-35.01"/>
</g>
<!-- Node17 -->
<g id="node17" class="node">
<title>Node17</title>
<g id="a_node17"><a xlink:title=" ">
<polygon fill="white" stroke="#bfbfbf" points="883.5,-6 883.5,-25 927.5,-25 927.5,-6 883.5,-6"/>
<text text-anchor="middle" x="905.5" y="-13" font-family="Helvetica,sans-Serif" font-size="10.00">string</text>
</a>
</g>
</g>
<!-- Node15&#45;&gt;Node17 -->
<g id="edge21" class="edge">
<title>Node15&#45;&gt;Node17</title>
<path fill="none" stroke="midnightblue" d="M842.96,-67.48C854.45,-58.11 873.13,-42.88 887.09,-31.51"/>
<polygon fill="midnightblue" stroke="midnightblue" points="889.52,-34.04 895.06,-25.01 885.1,-28.61 889.52,-34.04"/>
</g>
<!-- Node15&#45;&gt;Node18 -->
<g id="edge22" class="edge">
<title>Node15&#45;&gt;Node18</title>
<path fill="none" stroke="midnightblue" d="M875.34,-67.48C928.96,-56.8 1020.78,-38.53 1078.69,-27.01"/>
<polygon fill="midnightblue" stroke="midnightblue" points="1079.62,-30.39 1088.74,-25.01 1078.25,-23.53 1079.62,-30.39"/>
</g>
<!-- Node19 -->
<g id="node19" class="node">
<title>Node19</title>
<g id="a_node19"><a xlink:title=" ">
<polygon fill="white" stroke="#bfbfbf" points="945.5,-6 945.5,-25 1037.5,-25 1037.5,-6 945.5,-6"/>
<text text-anchor="middle" x="991.5" y="-13" font-family="Helvetica,sans-Serif" font-size="10.00">xtensor/xio.hpp</text>
</a>
</g>
</g>
<!-- Node15&#45;&gt;Node19 -->
<g id="edge23" class="edge">
<title>Node15&#45;&gt;Node19</title>
<path fill="none" stroke="midnightblue" d="M855.28,-67.48C882.55,-57.27 928.41,-40.11 959.3,-28.55"/>
<polygon fill="midnightblue" stroke="midnightblue" points="960.62,-31.79 968.76,-25.01 958.17,-25.24 960.62,-31.79"/>
</g>
</g>
</svg>
