<?xml version="1.0" encoding="UTF-8" standalone="no"?>
<!DOCTYPE svg PUBLIC "-//W3C//DTD SVG 1.1//EN"
 "http://www.w3.org/Graphics/SVG/1.1/DTD/svg11.dtd">
<!-- Generated by graphviz version 2.40.1 (20161225.0304)
 -->
<!-- Title: Allocation.h Pages: 1 -->
<svg width="261pt" height="84pt"
 viewBox="0.00 0.00 260.50 84.00" xmlns="http://www.w3.org/2000/svg" xmlns:xlink="http://www.w3.org/1999/xlink">
<g id="graph0" class="graph" transform="scale(1 1) rotate(0) translate(4 80)">
<title>Allocation.h</title>
<polygon fill="#ffffff" stroke="transparent" points="-4,4 -4,-80 256.5,-80 256.5,4 -4,4"/>
<!-- Node1 -->
<g id="node1" class="node">
<title>Node1</title>
<polygon fill="#bfbfbf" stroke="#000000" points="97,-56.5 97,-75.5 165,-75.5 165,-56.5 97,-56.5"/>
<text text-anchor="middle" x="131" y="-63.5" font-family="Helvetica,sans-Serif" font-size="10.00" fill="#000000">Allocation.h</text>
</g>
<!-- Node2 -->
<g id="node2" class="node">
<title>Node2</title>
<g id="a_node2"><a xlink:href="_dsvbksb_8cpp.html" target="_top" xlink:title="Dsvbksb.cpp">
<polygon fill="#ffffff" stroke="#000000" points="0,-.5 0,-19.5 74,-19.5 74,-.5 0,-.5"/>
<text text-anchor="middle" x="37" y="-7.5" font-family="Helvetica,sans-Serif" font-size="10.00" fill="#000000">Dsvbksb.cpp</text>
</a>
</g>
</g>
<!-- Node1&#45;&gt;Node2 -->
<g id="edge1" class="edge">
<title>Node1&#45;&gt;Node2</title>
<path fill="none" stroke="#191970" d="M105.8995,-51.0465C89.174,-41.0824 67.6832,-28.2794 53.1859,-19.6427"/>
<polygon fill="#191970" stroke="#191970" points="104.2441,-54.1343 114.6264,-56.2455 107.8268,-48.1206 104.2441,-54.1343"/>
</g>
<!-- Node3 -->
<g id="node3" class="node">
<title>Node3</title>
<g id="a_node3"><a xlink:href="_dsvdcmp_8cpp.html" target="_top" xlink:title="Dsvdcmp.cpp">
<polygon fill="#ffffff" stroke="#000000" points="92.5,-.5 92.5,-19.5 169.5,-19.5 169.5,-.5 92.5,-.5"/>
<text text-anchor="middle" x="131" y="-7.5" font-family="Helvetica,sans-Serif" font-size="10.00" fill="#000000">Dsvdcmp.cpp</text>
</a>
</g>
</g>
<!-- Node1&#45;&gt;Node3 -->
<g id="edge2" class="edge">
<title>Node1&#45;&gt;Node3</title>
<path fill="none" stroke="#191970" d="M131,-46.1575C131,-37.155 131,-26.9199 131,-19.6427"/>
<polygon fill="#191970" stroke="#191970" points="127.5001,-46.2455 131,-56.2455 134.5001,-46.2456 127.5001,-46.2455"/>
</g>
<!-- Node4 -->
<g id="node4" class="node">
<title>Node4</title>
<g id="a_node4"><a xlink:href="_fourier_8cpp.html" target="_top" xlink:title="Fourier.cpp">
<polygon fill="#ffffff" stroke="#000000" points="187.5,-.5 187.5,-19.5 252.5,-19.5 252.5,-.5 187.5,-.5"/>
<text text-anchor="middle" x="220" y="-7.5" font-family="Helvetica,sans-Serif" font-size="10.00" fill="#000000">Fourier.cpp</text>
</a>
</g>
</g>
<!-- Node1&#45;&gt;Node4 -->
<g id="edge3" class="edge">
<title>Node1&#45;&gt;Node4</title>
<path fill="none" stroke="#191970" d="M155.2064,-50.769C170.9775,-40.8456 191.076,-28.1994 204.675,-19.6427"/>
<polygon fill="#191970" stroke="#191970" points="153.1026,-47.9575 146.5026,-56.2455 156.8305,-53.8823 153.1026,-47.9575"/>
</g>
</g>
</svg>
