<?xml version="1.0" encoding="UTF-8" standalone="no"?>
<!DOCTYPE svg PUBLIC "-//W3C//DTD SVG 1.1//EN"
 "http://www.w3.org/Graphics/SVG/1.1/DTD/svg11.dtd">
<!-- Generated by graphviz version 2.43.0 (0)
 -->
<!-- Title: ArgumentsDict.h Pages: 1 -->
<svg width="2910pt" height="140pt"
 viewBox="0.00 0.00 2910.00 140.00" xmlns="http://www.w3.org/2000/svg" xmlns:xlink="http://www.w3.org/1999/xlink">
<g id="graph0" class="graph" transform="scale(1 1) rotate(0) translate(4 136)">
<title>ArgumentsDict.h</title>
<polygon fill="white" stroke="transparent" points="-4,4 -4,-136 2906,-136 2906,4 -4,4"/>
<!-- Node1 -->
<g id="node1" class="node">
<title>Node1</title>
<g id="a_node1"><a xlink:title=" ">
<polygon fill="#bfbfbf" stroke="black" points="1464,-112.5 1464,-131.5 1562,-131.5 1562,-112.5 1464,-112.5"/>
<text text-anchor="middle" x="1513" y="-119.5" font-family="Helvetica,sans-Serif" font-size="10.00">ArgumentsDict.h</text>
</a>
</g>
</g>
<!-- Node2 -->
<g id="node2" class="node">
<title>Node2</title>
<g id="a_node2"><a xlink:href="_a_d_r_8h.html" target="_top" xlink:title=" ">
<polygon fill="white" stroke="black" points="12.5,-56.5 12.5,-75.5 59.5,-75.5 59.5,-56.5 12.5,-56.5"/>
<text text-anchor="middle" x="36" y="-63.5" font-family="Helvetica,sans-Serif" font-size="10.00">ADR.h</text>
</a>
</g>
</g>
<!-- Node1&#45;&gt;Node2 -->
<g id="edge1" class="edge">
<title>Node1&#45;&gt;Node2</title>
<path fill="none" stroke="midnightblue" d="M1453.77,-120.69C1218.33,-119.22 348.21,-111.45 75,-76 70.04,-75.36 64.78,-74.36 59.79,-73.27"/>
<polygon fill="midnightblue" stroke="midnightblue" points="1453.83,-124.19 1463.85,-120.75 1453.87,-117.19 1453.83,-124.19"/>
</g>
<!-- Node4 -->
<g id="node4" class="node">
<title>Node4</title>
<g id="a_node4"><a xlink:href="_elasto_plastic_8h.html" target="_top" xlink:title=" ">
<polygon fill="white" stroke="black" points="84,-56.5 84,-75.5 172,-75.5 172,-56.5 84,-56.5"/>
<text text-anchor="middle" x="128" y="-63.5" font-family="Helvetica,sans-Serif" font-size="10.00">ElastoPlastic.h</text>
</a>
</g>
</g>
<!-- Node1&#45;&gt;Node4 -->
<g id="edge3" class="edge">
<title>Node1&#45;&gt;Node4</title>
<path fill="none" stroke="midnightblue" d="M1453.44,-120.05C1228.83,-116.32 433.1,-101.55 181,-76 178.12,-75.71 175.16,-75.36 172.19,-74.96"/>
<polygon fill="midnightblue" stroke="midnightblue" points="1453.64,-123.56 1463.7,-120.22 1453.76,-116.56 1453.64,-123.56"/>
</g>
<!-- Node6 -->
<g id="node6" class="node">
<title>Node6</title>
<g id="a_node6"><a xlink:href="_added_mass_8h.html" target="_top" xlink:title=" ">
<polygon fill="white" stroke="black" points="190,-56.5 190,-75.5 272,-75.5 272,-56.5 190,-56.5"/>
<text text-anchor="middle" x="231" y="-63.5" font-family="Helvetica,sans-Serif" font-size="10.00">AddedMass.h</text>
</a>
</g>
</g>
<!-- Node1&#45;&gt;Node6 -->
<g id="edge5" class="edge">
<title>Node1&#45;&gt;Node6</title>
<path fill="none" stroke="midnightblue" d="M1453.67,-119.95C1240.32,-115.99 512.49,-100.93 281,-76 278.11,-75.69 275.13,-75.31 272.13,-74.88"/>
<polygon fill="midnightblue" stroke="midnightblue" points="1453.67,-123.45 1463.74,-120.13 1453.8,-116.45 1453.67,-123.45"/>
</g>
<!-- Node8 -->
<g id="node8" class="node">
<title>Node8</title>
<g id="a_node8"><a xlink:href="_arguments_dict_8cpp.html" target="_top" xlink:title=" ">
<polygon fill="white" stroke="black" points="290,-56.5 290,-75.5 400,-75.5 400,-56.5 290,-56.5"/>
<text text-anchor="middle" x="345" y="-63.5" font-family="Helvetica,sans-Serif" font-size="10.00">ArgumentsDict.cpp</text>
</a>
</g>
</g>
<!-- Node1&#45;&gt;Node8 -->
<g id="edge7" class="edge">
<title>Node1&#45;&gt;Node8</title>
<path fill="none" stroke="midnightblue" d="M1453.46,-120.64C1287.66,-119.2 806.72,-111.98 409,-76 406.09,-75.74 403.12,-75.43 400.12,-75.1"/>
<polygon fill="midnightblue" stroke="midnightblue" points="1453.89,-124.15 1463.92,-120.73 1453.95,-117.15 1453.89,-124.15"/>
</g>
<!-- Node9 -->
<g id="node9" class="node">
<title>Node9</title>
<g id="a_node9"><a xlink:href="_c_l_s_v_o_f_8h.html" target="_top" xlink:title=" ">
<polygon fill="white" stroke="black" points="418,-56.5 418,-75.5 480,-75.5 480,-56.5 418,-56.5"/>
<text text-anchor="middle" x="449" y="-63.5" font-family="Helvetica,sans-Serif" font-size="10.00">CLSVOF.h</text>
</a>
</g>
</g>
<!-- Node1&#45;&gt;Node9 -->
<g id="edge8" class="edge">
<title>Node1&#45;&gt;Node9</title>
<path fill="none" stroke="midnightblue" d="M1453.79,-119.78C1264.8,-115.67 677.46,-101.14 489,-76 486.18,-75.62 483.26,-75.14 480.35,-74.61"/>
<polygon fill="midnightblue" stroke="midnightblue" points="1453.73,-123.28 1463.81,-120 1453.88,-116.28 1453.73,-123.28"/>
</g>
<!-- Node11 -->
<g id="node11" class="node">
<title>Node11</title>
<g id="a_node11"><a xlink:href="_dissipation_8h.html" target="_top" xlink:title=" ">
<polygon fill="white" stroke="black" points="498,-56.5 498,-75.5 578,-75.5 578,-56.5 498,-56.5"/>
<text text-anchor="middle" x="538" y="-63.5" font-family="Helvetica,sans-Serif" font-size="10.00">Dissipation.h</text>
</a>
</g>
</g>
<!-- Node1&#45;&gt;Node11 -->
<g id="edge10" class="edge">
<title>Node1&#45;&gt;Node11</title>
<path fill="none" stroke="midnightblue" d="M1453.44,-120.85C1306.03,-119.87 912.55,-113.64 587,-76 584.08,-75.66 581.07,-75.26 578.05,-74.8"/>
<polygon fill="midnightblue" stroke="midnightblue" points="1453.6,-124.35 1463.62,-120.91 1453.64,-117.35 1453.6,-124.35"/>
</g>
<!-- Node13 -->
<g id="node13" class="node">
<title>Node13</title>
<g id="a_node13"><a xlink:href="_dissipation2_d_8h.html" target="_top" xlink:title=" ">
<polygon fill="white" stroke="black" points="596,-56.5 596,-75.5 690,-75.5 690,-56.5 596,-56.5"/>
<text text-anchor="middle" x="643" y="-63.5" font-family="Helvetica,sans-Serif" font-size="10.00">Dissipation2D.h</text>
</a>
</g>
</g>
<!-- Node1&#45;&gt;Node13 -->
<g id="edge12" class="edge">
<title>Node1&#45;&gt;Node13</title>
<path fill="none" stroke="midnightblue" d="M1453.67,-119.84C1319.09,-116.73 980.5,-106.32 699,-76 696.06,-75.68 693.05,-75.32 690.01,-74.92"/>
<polygon fill="midnightblue" stroke="midnightblue" points="1453.69,-123.34 1463.77,-120.06 1453.85,-116.34 1453.69,-123.34"/>
</g>
<!-- Node15 -->
<g id="node15" class="node">
<title>Node15</title>
<g id="a_node15"><a xlink:href="_g_n___s_w2_d_c_v_8h.html" target="_top" xlink:title=" ">
<polygon fill="white" stroke="black" points="708.5,-56.5 708.5,-75.5 795.5,-75.5 795.5,-56.5 708.5,-56.5"/>
<text text-anchor="middle" x="752" y="-63.5" font-family="Helvetica,sans-Serif" font-size="10.00">GN_SW2DCV.h</text>
</a>
</g>
</g>
<!-- Node1&#45;&gt;Node15 -->
<g id="edge14" class="edge">
<title>Node1&#45;&gt;Node15</title>
<path fill="none" stroke="midnightblue" d="M1453.69,-119.33C1331.81,-115.43 1044.53,-103.87 805,-76 801.94,-75.64 798.79,-75.23 795.62,-74.78"/>
<polygon fill="midnightblue" stroke="midnightblue" points="1453.81,-122.83 1463.92,-119.65 1454.03,-115.84 1453.81,-122.83"/>
</g>
<!-- Node17 -->
<g id="node17" class="node">
<title>Node17</title>
<g id="a_node17"><a xlink:href="_kappa_8h.html" target="_top" xlink:title=" ">
<polygon fill="white" stroke="black" points="814,-56.5 814,-75.5 870,-75.5 870,-56.5 814,-56.5"/>
<text text-anchor="middle" x="842" y="-63.5" font-family="Helvetica,sans-Serif" font-size="10.00">Kappa.h</text>
</a>
</g>
</g>
<!-- Node1&#45;&gt;Node17 -->
<g id="edge16" class="edge">
<title>Node1&#45;&gt;Node17</title>
<path fill="none" stroke="midnightblue" d="M1453.62,-120.1C1340.94,-117.66 1088.6,-108.69 879,-76 876.13,-75.55 873.15,-74.99 870.18,-74.37"/>
<polygon fill="midnightblue" stroke="midnightblue" points="1453.69,-123.6 1463.76,-120.31 1453.84,-116.6 1453.69,-123.6"/>
</g>
<!-- Node19 -->
<g id="node19" class="node">
<title>Node19</title>
<g id="a_node19"><a xlink:href="_kappa2_d_8h.html" target="_top" xlink:title=" ">
<polygon fill="white" stroke="black" points="888,-56.5 888,-75.5 958,-75.5 958,-56.5 888,-56.5"/>
<text text-anchor="middle" x="923" y="-63.5" font-family="Helvetica,sans-Serif" font-size="10.00">Kappa2D.h</text>
</a>
</g>
</g>
<!-- Node1&#45;&gt;Node19 -->
<g id="edge18" class="edge">
<title>Node1&#45;&gt;Node19</title>
<path fill="none" stroke="midnightblue" d="M1453.58,-118.43C1352.99,-113.56 1142.96,-101.16 967,-76 964.22,-75.6 961.35,-75.14 958.48,-74.64"/>
<polygon fill="midnightblue" stroke="midnightblue" points="1453.68,-121.94 1463.84,-118.92 1454.01,-114.95 1453.68,-121.94"/>
</g>
<!-- Node21 -->
<g id="node21" class="node">
<title>Node21</title>
<g id="a_node21"><a xlink:href="_m_corr_8h.html" target="_top" xlink:title=" ">
<polygon fill="white" stroke="black" points="976,-56.5 976,-75.5 1030,-75.5 1030,-56.5 976,-56.5"/>
<text text-anchor="middle" x="1003" y="-63.5" font-family="Helvetica,sans-Serif" font-size="10.00">MCorr.h</text>
</a>
</g>
</g>
<!-- Node1&#45;&gt;Node21 -->
<g id="edge20" class="edge">
<title>Node1&#45;&gt;Node21</title>
<path fill="none" stroke="midnightblue" d="M1453.87,-118.25C1363.8,-113.41 1187.07,-101.39 1039,-76 1036.08,-75.5 1033.05,-74.89 1030.03,-74.22"/>
<polygon fill="midnightblue" stroke="midnightblue" points="1453.72,-121.74 1463.89,-118.77 1454.09,-114.75 1453.72,-121.74"/>
</g>
<!-- Node23 -->
<g id="node23" class="node">
<title>Node23</title>
<g id="a_node23"><a xlink:href="_m_corr3_p_8h.html" target="_top" xlink:title=" ">
<polygon fill="white" stroke="black" points="1048.5,-56.5 1048.5,-75.5 1113.5,-75.5 1113.5,-56.5 1048.5,-56.5"/>
<text text-anchor="middle" x="1081" y="-63.5" font-family="Helvetica,sans-Serif" font-size="10.00">MCorr3P.h</text>
</a>
</g>
</g>
<!-- Node1&#45;&gt;Node23 -->
<g id="edge22" class="edge">
<title>Node1&#45;&gt;Node23</title>
<path fill="none" stroke="midnightblue" d="M1453.73,-116.07C1376.9,-109.24 1238.91,-95.51 1122,-76 1119.27,-75.54 1116.44,-75.03 1113.62,-74.47"/>
<polygon fill="midnightblue" stroke="midnightblue" points="1453.44,-119.55 1463.7,-116.94 1454.05,-112.58 1453.44,-119.55"/>
</g>
<!-- Node25 -->
<g id="node25" class="node">
<title>Node25</title>
<g id="a_node25"><a xlink:href="_move_mesh_8h.html" target="_top" xlink:title=" ">
<polygon fill="white" stroke="black" points="1131.5,-56.5 1131.5,-75.5 1210.5,-75.5 1210.5,-56.5 1131.5,-56.5"/>
<text text-anchor="middle" x="1171" y="-63.5" font-family="Helvetica,sans-Serif" font-size="10.00">MoveMesh.h</text>
</a>
</g>
</g>
<!-- Node1&#45;&gt;Node25 -->
<g id="edge24" class="edge">
<title>Node1&#45;&gt;Node25</title>
<path fill="none" stroke="midnightblue" d="M1454.02,-112.46C1394.79,-103.76 1300.95,-89.65 1220,-76 1216.93,-75.48 1213.75,-74.93 1210.56,-74.37"/>
<polygon fill="midnightblue" stroke="midnightblue" points="1453.54,-115.93 1463.94,-113.91 1454.55,-109 1453.54,-115.93"/>
</g>
<!-- Node27 -->
<g id="node27" class="node">
<title>Node27</title>
<g id="a_node27"><a xlink:href="_move_mesh2_d_8h.html" target="_top" xlink:title=" ">
<polygon fill="white" stroke="black" points="1229,-56.5 1229,-75.5 1321,-75.5 1321,-56.5 1229,-56.5"/>
<text text-anchor="middle" x="1275" y="-63.5" font-family="Helvetica,sans-Serif" font-size="10.00">MoveMesh2D.h</text>
</a>
</g>
</g>
<!-- Node1&#45;&gt;Node27 -->
<g id="edge26" class="edge">
<title>Node1&#45;&gt;Node27</title>
<path fill="none" stroke="midnightblue" d="M1465.48,-110.22C1420.5,-100.01 1353.9,-84.9 1312.54,-75.52"/>
<polygon fill="midnightblue" stroke="midnightblue" points="1464.76,-113.64 1475.29,-112.44 1466.31,-106.82 1464.76,-113.64"/>
</g>
<!-- Node29 -->
<g id="node29" class="node">
<title>Node29</title>
<g id="a_node29"><a xlink:href="_n_c_l_s_8h.html" target="_top" xlink:title=" ">
<polygon fill="white" stroke="black" points="1339.5,-56.5 1339.5,-75.5 1390.5,-75.5 1390.5,-56.5 1339.5,-56.5"/>
<text text-anchor="middle" x="1365" y="-63.5" font-family="Helvetica,sans-Serif" font-size="10.00">NCLS.h</text>
</a>
</g>
</g>
<!-- Node1&#45;&gt;Node29 -->
<g id="edge28" class="edge">
<title>Node1&#45;&gt;Node29</title>
<path fill="none" stroke="midnightblue" d="M1479.85,-108.91C1452.03,-98.75 1412.98,-84.51 1388.34,-75.52"/>
<polygon fill="midnightblue" stroke="midnightblue" points="1478.96,-112.3 1489.55,-112.44 1481.35,-105.73 1478.96,-112.3"/>
</g>
<!-- Node31 -->
<g id="node31" class="node">
<title>Node31</title>
<g id="a_node31"><a xlink:href="_n_c_l_s3_p_8h.html" target="_top" xlink:title=" ">
<polygon fill="white" stroke="black" points="1409,-56.5 1409,-75.5 1471,-75.5 1471,-56.5 1409,-56.5"/>
<text text-anchor="middle" x="1440" y="-63.5" font-family="Helvetica,sans-Serif" font-size="10.00">NCLS3P.h</text>
</a>
</g>
</g>
<!-- Node1&#45;&gt;Node31 -->
<g id="edge30" class="edge">
<title>Node1&#45;&gt;Node31</title>
<path fill="none" stroke="midnightblue" d="M1492.86,-106.1C1479.72,-96.38 1463.02,-84.03 1451.94,-75.83"/>
<polygon fill="midnightblue" stroke="midnightblue" points="1491.15,-109.19 1501.27,-112.32 1495.31,-103.56 1491.15,-109.19"/>
</g>
<!-- Node33 -->
<g id="node33" class="node">
<title>Node33</title>
<g id="a_node33"><a xlink:href="_pres_8h.html" target="_top" xlink:title=" ">
<polygon fill="white" stroke="black" points="1489.5,-56.5 1489.5,-75.5 1536.5,-75.5 1536.5,-56.5 1489.5,-56.5"/>
<text text-anchor="middle" x="1513" y="-63.5" font-family="Helvetica,sans-Serif" font-size="10.00">Pres.h</text>
</a>
</g>
</g>
<!-- Node1&#45;&gt;Node33 -->
<g id="edge32" class="edge">
<title>Node1&#45;&gt;Node33</title>
<path fill="none" stroke="midnightblue" d="M1513,-101.8C1513,-92.91 1513,-82.78 1513,-75.75"/>
<polygon fill="midnightblue" stroke="midnightblue" points="1509.5,-102.08 1513,-112.08 1516.5,-102.08 1509.5,-102.08"/>
</g>
<!-- Node35 -->
<g id="node35" class="node">
<title>Node35</title>
<g id="a_node35"><a xlink:href="_pres_inc_8h.html" target="_top" xlink:title=" ">
<polygon fill="white" stroke="red" points="1554.5,-56.5 1554.5,-75.5 1615.5,-75.5 1615.5,-56.5 1554.5,-56.5"/>
<text text-anchor="middle" x="1585" y="-63.5" font-family="Helvetica,sans-Serif" font-size="10.00">PresInc.h</text>
</a>
</g>
</g>
<!-- Node1&#45;&gt;Node35 -->
<g id="edge34" class="edge">
<title>Node1&#45;&gt;Node35</title>
<path fill="none" stroke="midnightblue" d="M1532.87,-106.1C1545.82,-96.38 1562.3,-84.03 1573.22,-75.83"/>
<polygon fill="midnightblue" stroke="midnightblue" points="1530.47,-103.52 1524.57,-112.32 1534.67,-109.12 1530.47,-103.52"/>
</g>
<!-- Node37 -->
<g id="node36" class="node">
<title>Node37</title>
<g id="a_node36"><a xlink:href="_pres_init_8h.html" target="_top" xlink:title=" ">
<polygon fill="white" stroke="red" points="1634,-56.5 1634,-75.5 1696,-75.5 1696,-56.5 1634,-56.5"/>
<text text-anchor="middle" x="1665" y="-63.5" font-family="Helvetica,sans-Serif" font-size="10.00">PresInit.h</text>
</a>
</g>
</g>
<!-- Node1&#45;&gt;Node37 -->
<g id="edge35" class="edge">
<title>Node1&#45;&gt;Node37</title>
<path fill="none" stroke="midnightblue" d="M1546.67,-109.04C1575.27,-98.88 1615.61,-84.55 1641.03,-75.52"/>
<polygon fill="midnightblue" stroke="midnightblue" points="1545.34,-105.8 1537.08,-112.44 1547.68,-112.39 1545.34,-105.8"/>
</g>
<!-- Node39 -->
<g id="node37" class="node">
<title>Node39</title>
<g id="a_node37"><a xlink:href="_r_a_n_s2_p_8h.html" target="_top" xlink:title=" ">
<polygon fill="white" stroke="red" points="1714.5,-56.5 1714.5,-75.5 1777.5,-75.5 1777.5,-56.5 1714.5,-56.5"/>
<text text-anchor="middle" x="1746" y="-63.5" font-family="Helvetica,sans-Serif" font-size="10.00">RANS2P.h</text>
</a>
</g>
</g>
<!-- Node1&#45;&gt;Node39 -->
<g id="edge36" class="edge">
<title>Node1&#45;&gt;Node39</title>
<path fill="none" stroke="midnightblue" d="M1559.94,-110.12C1605.91,-99.47 1674.7,-83.52 1714.48,-74.3"/>
<polygon fill="midnightblue" stroke="midnightblue" points="1558.87,-106.78 1549.92,-112.44 1560.45,-113.6 1558.87,-106.78"/>
</g>
<!-- Node41 -->
<g id="node38" class="node">
<title>Node41</title>
<g id="a_node38"><a xlink:href="_r_a_n_s2_p2_d_8h.html" target="_top" xlink:title=" ">
<polygon fill="white" stroke="red" points="1796,-56.5 1796,-75.5 1874,-75.5 1874,-56.5 1796,-56.5"/>
<text text-anchor="middle" x="1835" y="-63.5" font-family="Helvetica,sans-Serif" font-size="10.00">RANS2P2D.h</text>
</a>
</g>
</g>
<!-- Node1&#45;&gt;Node41 -->
<g id="edge37" class="edge">
<title>Node1&#45;&gt;Node41</title>
<path fill="none" stroke="midnightblue" d="M1572.07,-111.69C1627.61,-102.85 1713.03,-89.01 1787,-76 1789.92,-75.49 1792.94,-74.94 1795.98,-74.39"/>
<polygon fill="midnightblue" stroke="midnightblue" points="1571.38,-108.26 1562.06,-113.29 1572.48,-115.17 1571.38,-108.26"/>
</g>
<!-- Node43 -->
<g id="node39" class="node">
<title>Node43</title>
<g id="a_node39"><a xlink:href="_r_a_n_s2_p___i_b_8h.html" target="_top" xlink:title=" ">
<polygon fill="white" stroke="red" points="1892,-56.5 1892,-75.5 1972,-75.5 1972,-56.5 1892,-56.5"/>
<text text-anchor="middle" x="1932" y="-63.5" font-family="Helvetica,sans-Serif" font-size="10.00">RANS2P_IB.h</text>
</a>
</g>
</g>
<!-- Node1&#45;&gt;Node43 -->
<g id="edge38" class="edge">
<title>Node1&#45;&gt;Node43</title>
<path fill="none" stroke="midnightblue" d="M1572.16,-114.92C1645.33,-107.15 1773.64,-92.68 1883,-76 1885.91,-75.56 1888.91,-75.07 1891.92,-74.57"/>
<polygon fill="midnightblue" stroke="midnightblue" points="1571.78,-111.44 1562.21,-115.98 1572.52,-118.4 1571.78,-111.44"/>
</g>
<!-- Node45 -->
<g id="node40" class="node">
<title>Node45</title>
<g id="a_node40"><a xlink:href="_r_a_n_s3_p_f_8h.html" target="_top" xlink:title=" ">
<polygon fill="white" stroke="red" points="1990.5,-56.5 1990.5,-75.5 2059.5,-75.5 2059.5,-56.5 1990.5,-56.5"/>
<text text-anchor="middle" x="2025" y="-63.5" font-family="Helvetica,sans-Serif" font-size="10.00">RANS3PF.h</text>
</a>
</g>
</g>
<!-- Node1&#45;&gt;Node45 -->
<g id="edge39" class="edge">
<title>Node1&#45;&gt;Node45</title>
<path fill="none" stroke="midnightblue" d="M1572.23,-117.32C1661.29,-111.34 1834.83,-97.91 1981,-76 1984.08,-75.54 1987.28,-75 1990.47,-74.42"/>
<polygon fill="midnightblue" stroke="midnightblue" points="1571.8,-113.84 1562.06,-118 1572.27,-120.83 1571.8,-113.84"/>
</g>
<!-- Node47 -->
<g id="node41" class="node">
<title>Node47</title>
<g id="a_node41"><a xlink:href="_r_a_n_s3_p_f2_d_8h.html" target="_top" xlink:title=" ">
<polygon fill="white" stroke="red" points="2078,-56.5 2078,-75.5 2162,-75.5 2162,-56.5 2078,-56.5"/>
<text text-anchor="middle" x="2120" y="-63.5" font-family="Helvetica,sans-Serif" font-size="10.00">RANS3PF2D.h</text>
</a>
</g>
</g>
<!-- Node1&#45;&gt;Node47 -->
<g id="edge40" class="edge">
<title>Node1&#45;&gt;Node47</title>
<path fill="none" stroke="midnightblue" d="M1572.34,-118.03C1674.22,-112.53 1888.84,-99.14 2069,-76 2071.85,-75.63 2074.79,-75.22 2077.75,-74.77"/>
<polygon fill="midnightblue" stroke="midnightblue" points="1572.05,-114.54 1562.25,-118.57 1572.42,-121.53 1572.05,-114.54"/>
</g>
<!-- Node49 -->
<g id="node42" class="node">
<title>Node49</title>
<g id="a_node42"><a xlink:href="_r_a_n_s3_p_sed_8h.html" target="_top" xlink:title=" ">
<polygon fill="white" stroke="red" points="2180.5,-56.5 2180.5,-75.5 2263.5,-75.5 2263.5,-56.5 2180.5,-56.5"/>
<text text-anchor="middle" x="2222" y="-63.5" font-family="Helvetica,sans-Serif" font-size="10.00">RANS3PSed.h</text>
</a>
</g>
</g>
<!-- Node1&#45;&gt;Node49 -->
<g id="edge41" class="edge">
<title>Node1&#45;&gt;Node49</title>
<path fill="none" stroke="midnightblue" d="M1572.34,-119.06C1687.92,-114.81 1951.17,-102.84 2171,-76 2174.03,-75.63 2177.16,-75.2 2180.31,-74.73"/>
<polygon fill="midnightblue" stroke="midnightblue" points="1572.15,-115.56 1562.28,-119.42 1572.4,-122.56 1572.15,-115.56"/>
</g>
<!-- Node51 -->
<g id="node43" class="node">
<title>Node51</title>
<g id="a_node43"><a xlink:href="_r_a_n_s3_p_sed2_d_8h.html" target="_top" xlink:title=" ">
<polygon fill="white" stroke="red" points="2282,-56.5 2282,-75.5 2378,-75.5 2378,-56.5 2282,-56.5"/>
<text text-anchor="middle" x="2330" y="-63.5" font-family="Helvetica,sans-Serif" font-size="10.00">RANS3PSed2D.h</text>
</a>
</g>
</g>
<!-- Node1&#45;&gt;Node51 -->
<g id="edge42" class="edge">
<title>Node1&#45;&gt;Node51</title>
<path fill="none" stroke="midnightblue" d="M1572.42,-119.45C1700.67,-115.68 2012.9,-104.17 2273,-76 2275.89,-75.69 2278.85,-75.33 2281.84,-74.94"/>
<polygon fill="midnightblue" stroke="midnightblue" points="1571.93,-115.96 1562.04,-119.75 1572.14,-122.96 1571.93,-115.96"/>
</g>
<!-- Node53 -->
<g id="node44" class="node">
<title>Node53</title>
<g id="a_node44"><a xlink:href="_r_d_l_s_8h.html" target="_top" xlink:title=" ">
<polygon fill="white" stroke="red" points="2396.5,-56.5 2396.5,-75.5 2447.5,-75.5 2447.5,-56.5 2396.5,-56.5"/>
<text text-anchor="middle" x="2422" y="-63.5" font-family="Helvetica,sans-Serif" font-size="10.00">RDLS.h</text>
</a>
</g>
</g>
<!-- Node1&#45;&gt;Node53 -->
<g id="edge43" class="edge">
<title>Node1&#45;&gt;Node53</title>
<path fill="none" stroke="midnightblue" d="M1572.04,-119.5C1741.81,-114.95 2229.23,-100.1 2387,-76 2389.98,-75.55 2393.07,-74.94 2396.13,-74.27"/>
<polygon fill="midnightblue" stroke="midnightblue" points="1571.94,-116 1562.04,-119.77 1572.13,-123 1571.94,-116"/>
</g>
<!-- Node55 -->
<g id="node45" class="node">
<title>Node55</title>
<g id="a_node45"><a xlink:href="_s_w2_d_8h.html" target="_top" xlink:title=" ">
<polygon fill="white" stroke="red" points="2465.5,-56.5 2465.5,-75.5 2520.5,-75.5 2520.5,-56.5 2465.5,-56.5"/>
<text text-anchor="middle" x="2493" y="-63.5" font-family="Helvetica,sans-Serif" font-size="10.00">SW2D.h</text>
</a>
</g>
</g>
<!-- Node1&#45;&gt;Node55 -->
<g id="edge44" class="edge">
<title>Node1&#45;&gt;Node55</title>
<path fill="none" stroke="midnightblue" d="M1572.11,-119.71C1751.04,-115.56 2285.03,-101.34 2457,-76 2459.68,-75.61 2462.44,-75.1 2465.2,-74.53"/>
<polygon fill="midnightblue" stroke="midnightblue" points="1572.02,-116.21 1562.1,-119.94 1572.18,-123.21 1572.02,-116.21"/>
</g>
<!-- Node57 -->
<g id="node46" class="node">
<title>Node57</title>
<g id="a_node46"><a xlink:href="_s_w2_d_c_v_8h.html" target="_top" xlink:title=" ">
<polygon fill="white" stroke="red" points="2538.5,-56.5 2538.5,-75.5 2605.5,-75.5 2605.5,-56.5 2538.5,-56.5"/>
<text text-anchor="middle" x="2572" y="-63.5" font-family="Helvetica,sans-Serif" font-size="10.00">SW2DCV.h</text>
</a>
</g>
</g>
<!-- Node1&#45;&gt;Node57 -->
<g id="edge45" class="edge">
<title>Node1&#45;&gt;Node57</title>
<path fill="none" stroke="midnightblue" d="M1572.4,-119.67C1760.71,-115.27 2342.9,-100.01 2530,-76 2532.66,-75.66 2535.41,-75.23 2538.16,-74.76"/>
<polygon fill="midnightblue" stroke="midnightblue" points="1572.07,-116.18 1562.15,-119.91 1572.23,-123.18 1572.07,-116.18"/>
</g>
<!-- Node59 -->
<g id="node47" class="node">
<title>Node59</title>
<g id="a_node47"><a xlink:href="_v_o_f_8h.html" target="_top" xlink:title=" ">
<polygon fill="white" stroke="red" points="2624,-56.5 2624,-75.5 2668,-75.5 2668,-56.5 2624,-56.5"/>
<text text-anchor="middle" x="2646" y="-63.5" font-family="Helvetica,sans-Serif" font-size="10.00">VOF.h</text>
</a>
</g>
</g>
<!-- Node1&#45;&gt;Node59 -->
<g id="edge46" class="edge">
<title>Node1&#45;&gt;Node59</title>
<path fill="none" stroke="midnightblue" d="M1572.35,-120.46C1771.02,-118.38 2411.59,-109.18 2615,-76 2617.88,-75.53 2620.86,-74.88 2623.8,-74.14"/>
<polygon fill="midnightblue" stroke="midnightblue" points="1572.08,-116.97 1562.12,-120.57 1572.15,-123.97 1572.08,-116.97"/>
</g>
<!-- Node61 -->
<g id="node48" class="node">
<title>Node61</title>
<g id="a_node48"><a xlink:href="_v_o_f3_p_8h.html" target="_top" xlink:title=" ">
<polygon fill="white" stroke="red" points="2686,-56.5 2686,-75.5 2742,-75.5 2742,-56.5 2686,-56.5"/>
<text text-anchor="middle" x="2714" y="-63.5" font-family="Helvetica,sans-Serif" font-size="10.00">VOF3P.h</text>
</a>
</g>
</g>
<!-- Node1&#45;&gt;Node61 -->
<g id="edge47" class="edge">
<title>Node1&#45;&gt;Node61</title>
<path fill="none" stroke="midnightblue" d="M1572.18,-120.28C1777.77,-117.52 2460.21,-106.25 2677,-76 2679.88,-75.6 2682.86,-75.07 2685.83,-74.47"/>
<polygon fill="midnightblue" stroke="midnightblue" points="1572.14,-116.78 1562.18,-120.41 1572.23,-123.78 1572.14,-116.78"/>
</g>
<!-- Node63 -->
<g id="node49" class="node">
<title>Node63</title>
<g id="a_node49"><a xlink:href="_v_o_s3_p_8h.html" target="_top" xlink:title=" ">
<polygon fill="white" stroke="red" points="2760,-56.5 2760,-75.5 2816,-75.5 2816,-56.5 2760,-56.5"/>
<text text-anchor="middle" x="2788" y="-63.5" font-family="Helvetica,sans-Serif" font-size="10.00">VOS3P.h</text>
</a>
</g>
</g>
<!-- Node1&#45;&gt;Node63 -->
<g id="edge48" class="edge">
<title>Node1&#45;&gt;Node63</title>
<path fill="none" stroke="midnightblue" d="M1572.31,-120.43C1786.44,-118.14 2519.12,-108.08 2751,-76 2753.88,-75.6 2756.87,-75.07 2759.83,-74.47"/>
<polygon fill="midnightblue" stroke="midnightblue" points="1572.18,-116.93 1562.21,-120.54 1572.25,-123.93 1572.18,-116.93"/>
</g>
<!-- Node65 -->
<g id="node50" class="node">
<title>Node65</title>
<g id="a_node50"><a xlink:href="_richards_8h.html" target="_top" xlink:title=" ">
<polygon fill="white" stroke="red" points="2834,-56.5 2834,-75.5 2902,-75.5 2902,-56.5 2834,-56.5"/>
<text text-anchor="middle" x="2868" y="-63.5" font-family="Helvetica,sans-Serif" font-size="10.00">Richards.h</text>
</a>
</g>
</g>
<!-- Node1&#45;&gt;Node65 -->
<g id="edge49" class="edge">
<title>Node1&#45;&gt;Node65</title>
<path fill="none" stroke="midnightblue" d="M1572.45,-120.32C1794.82,-117.57 2577.49,-105.92 2825,-76 2827.88,-75.65 2830.85,-75.21 2833.82,-74.71"/>
<polygon fill="midnightblue" stroke="midnightblue" points="1572.24,-116.82 1562.29,-120.44 1572.33,-123.82 1572.24,-116.82"/>
</g>
<!-- Node3 -->
<g id="node3" class="node">
<title>Node3</title>
<g id="a_node3"><a xlink:href="_a_d_r_8cpp.html" target="_top" xlink:title=" ">
<polygon fill="white" stroke="black" points="0,-0.5 0,-19.5 58,-19.5 58,-0.5 0,-0.5"/>
<text text-anchor="middle" x="29" y="-7.5" font-family="Helvetica,sans-Serif" font-size="10.00">ADR.cpp</text>
</a>
</g>
</g>
<!-- Node2&#45;&gt;Node3 -->
<g id="edge2" class="edge">
<title>Node2&#45;&gt;Node3</title>
<path fill="none" stroke="midnightblue" d="M33.55,-46.1C32.39,-37.14 31.06,-26.86 30.13,-19.75"/>
<polygon fill="midnightblue" stroke="midnightblue" points="30.09,-46.62 34.84,-56.08 37.03,-45.72 30.09,-46.62"/>
</g>
<!-- Node5 -->
<g id="node5" class="node">
<title>Node5</title>
<g id="a_node5"><a xlink:href="c_elasto_plastic_8cpp.html" target="_top" xlink:title=" ">
<polygon fill="white" stroke="black" points="76,-0.5 76,-19.5 180,-19.5 180,-0.5 76,-0.5"/>
<text text-anchor="middle" x="128" y="-7.5" font-family="Helvetica,sans-Serif" font-size="10.00">cElastoPlastic.cpp</text>
</a>
</g>
</g>
<!-- Node4&#45;&gt;Node5 -->
<g id="edge4" class="edge">
<title>Node4&#45;&gt;Node5</title>
<path fill="none" stroke="midnightblue" d="M128,-45.8C128,-36.91 128,-26.78 128,-19.75"/>
<polygon fill="midnightblue" stroke="midnightblue" points="124.5,-46.08 128,-56.08 131.5,-46.08 124.5,-46.08"/>
</g>
<!-- Node7 -->
<g id="node7" class="node">
<title>Node7</title>
<g id="a_node7"><a xlink:href="_added_mass_8cpp.html" target="_top" xlink:title=" ">
<polygon fill="white" stroke="black" points="198.5,-0.5 198.5,-19.5 291.5,-19.5 291.5,-0.5 198.5,-0.5"/>
<text text-anchor="middle" x="245" y="-7.5" font-family="Helvetica,sans-Serif" font-size="10.00">AddedMass.cpp</text>
</a>
</g>
</g>
<!-- Node6&#45;&gt;Node7 -->
<g id="edge6" class="edge">
<title>Node6&#45;&gt;Node7</title>
<path fill="none" stroke="midnightblue" d="M235.82,-46.4C238.17,-37.36 240.87,-26.94 242.73,-19.75"/>
<polygon fill="midnightblue" stroke="midnightblue" points="232.43,-45.52 233.31,-56.08 239.21,-47.28 232.43,-45.52"/>
</g>
<!-- Node10 -->
<g id="node10" class="node">
<title>Node10</title>
<g id="a_node10"><a xlink:href="_c_l_s_v_o_f_8cpp.html" target="_top" xlink:title=" ">
<polygon fill="white" stroke="black" points="343,-0.5 343,-19.5 417,-19.5 417,-0.5 343,-0.5"/>
<text text-anchor="middle" x="380" y="-7.5" font-family="Helvetica,sans-Serif" font-size="10.00">CLSVOF.cpp</text>
</a>
</g>
</g>
<!-- Node9&#45;&gt;Node10 -->
<g id="edge9" class="edge">
<title>Node9&#45;&gt;Node10</title>
<path fill="none" stroke="midnightblue" d="M429.96,-50.1C417.54,-40.38 401.76,-28.03 391.29,-19.83"/>
<polygon fill="midnightblue" stroke="midnightblue" points="427.88,-52.92 437.91,-56.32 432.2,-47.4 427.88,-52.92"/>
</g>
<!-- Node12 -->
<g id="node12" class="node">
<title>Node12</title>
<g id="a_node12"><a xlink:href="_dissipation_8cpp.html" target="_top" xlink:title=" ">
<polygon fill="white" stroke="black" points="435,-0.5 435,-19.5 527,-19.5 527,-0.5 435,-0.5"/>
<text text-anchor="middle" x="481" y="-7.5" font-family="Helvetica,sans-Serif" font-size="10.00">Dissipation.cpp</text>
</a>
</g>
</g>
<!-- Node11&#45;&gt;Node12 -->
<g id="edge11" class="edge">
<title>Node11&#45;&gt;Node12</title>
<path fill="none" stroke="midnightblue" d="M521.38,-49.25C511.27,-39.67 498.72,-27.79 490.32,-19.83"/>
<polygon fill="midnightblue" stroke="midnightblue" points="519.18,-51.99 528.84,-56.32 523.99,-46.91 519.18,-51.99"/>
</g>
<!-- Node14 -->
<g id="node14" class="node">
<title>Node14</title>
<g id="a_node14"><a xlink:href="_dissipation2_d_8cpp.html" target="_top" xlink:title=" ">
<polygon fill="white" stroke="black" points="545.5,-0.5 545.5,-19.5 650.5,-19.5 650.5,-0.5 545.5,-0.5"/>
<text text-anchor="middle" x="598" y="-7.5" font-family="Helvetica,sans-Serif" font-size="10.00">Dissipation2D.cpp</text>
</a>
</g>
</g>
<!-- Node13&#45;&gt;Node14 -->
<g id="edge13" class="edge">
<title>Node13&#45;&gt;Node14</title>
<path fill="none" stroke="midnightblue" d="M628.95,-48.14C621.11,-38.74 611.67,-27.4 605.29,-19.75"/>
<polygon fill="midnightblue" stroke="midnightblue" points="626.48,-50.64 635.57,-56.08 631.86,-46.16 626.48,-50.64"/>
</g>
<!-- Node16 -->
<g id="node16" class="node">
<title>Node16</title>
<g id="a_node16"><a xlink:href="_g_n___s_w2_d_c_v_8cpp.html" target="_top" xlink:title=" ">
<polygon fill="white" stroke="black" points="669,-0.5 669,-19.5 767,-19.5 767,-0.5 669,-0.5"/>
<text text-anchor="middle" x="718" y="-7.5" font-family="Helvetica,sans-Serif" font-size="10.00">GN_SW2DCV.cpp</text>
</a>
</g>
</g>
<!-- Node15&#45;&gt;Node16 -->
<g id="edge15" class="edge">
<title>Node15&#45;&gt;Node16</title>
<path fill="none" stroke="midnightblue" d="M741.02,-47.57C735.17,-38.27 728.23,-27.25 723.51,-19.75"/>
<polygon fill="midnightblue" stroke="midnightblue" points="738.1,-49.49 746.39,-56.08 744.02,-45.76 738.1,-49.49"/>
</g>
<!-- Node18 -->
<g id="node18" class="node">
<title>Node18</title>
<g id="a_node18"><a xlink:href="_kappa_8cpp.html" target="_top" xlink:title=" ">
<polygon fill="white" stroke="black" points="785,-0.5 785,-19.5 853,-19.5 853,-0.5 785,-0.5"/>
<text text-anchor="middle" x="819" y="-7.5" font-family="Helvetica,sans-Serif" font-size="10.00">Kappa.cpp</text>
</a>
</g>
</g>
<!-- Node17&#45;&gt;Node18 -->
<g id="edge17" class="edge">
<title>Node17&#45;&gt;Node18</title>
<path fill="none" stroke="midnightblue" d="M834.2,-46.69C830.32,-37.59 825.82,-27.01 822.73,-19.75"/>
<polygon fill="midnightblue" stroke="midnightblue" points="831.06,-48.25 838.2,-56.08 837.5,-45.51 831.06,-48.25"/>
</g>
<!-- Node20 -->
<g id="node20" class="node">
<title>Node20</title>
<g id="a_node20"><a xlink:href="_kappa2_d_8cpp.html" target="_top" xlink:title=" ">
<polygon fill="white" stroke="black" points="871.5,-0.5 871.5,-19.5 952.5,-19.5 952.5,-0.5 871.5,-0.5"/>
<text text-anchor="middle" x="912" y="-7.5" font-family="Helvetica,sans-Serif" font-size="10.00">Kappa2D.cpp</text>
</a>
</g>
</g>
<!-- Node19&#45;&gt;Node20 -->
<g id="edge19" class="edge">
<title>Node19&#45;&gt;Node20</title>
<path fill="none" stroke="midnightblue" d="M919.15,-46.1C917.32,-37.14 915.23,-26.86 913.78,-19.75"/>
<polygon fill="midnightblue" stroke="midnightblue" points="915.76,-46.98 921.18,-56.08 922.62,-45.59 915.76,-46.98"/>
</g>
<!-- Node22 -->
<g id="node22" class="node">
<title>Node22</title>
<g id="a_node22"><a xlink:href="_m_corr_8cpp.html" target="_top" xlink:title=" ">
<polygon fill="white" stroke="black" points="970.5,-0.5 970.5,-19.5 1035.5,-19.5 1035.5,-0.5 970.5,-0.5"/>
<text text-anchor="middle" x="1003" y="-7.5" font-family="Helvetica,sans-Serif" font-size="10.00">MCorr.cpp</text>
</a>
</g>
</g>
<!-- Node21&#45;&gt;Node22 -->
<g id="edge21" class="edge">
<title>Node21&#45;&gt;Node22</title>
<path fill="none" stroke="midnightblue" d="M1003,-45.8C1003,-36.91 1003,-26.78 1003,-19.75"/>
<polygon fill="midnightblue" stroke="midnightblue" points="999.5,-46.08 1003,-56.08 1006.5,-46.08 999.5,-46.08"/>
</g>
<!-- Node24 -->
<g id="node24" class="node">
<title>Node24</title>
<g id="a_node24"><a xlink:href="_m_corr3_p_8cpp.html" target="_top" xlink:title=" ">
<polygon fill="white" stroke="black" points="1053.5,-0.5 1053.5,-19.5 1130.5,-19.5 1130.5,-0.5 1053.5,-0.5"/>
<text text-anchor="middle" x="1092" y="-7.5" font-family="Helvetica,sans-Serif" font-size="10.00">MCorr3P.cpp</text>
</a>
</g>
</g>
<!-- Node23&#45;&gt;Node24 -->
<g id="edge23" class="edge">
<title>Node23&#45;&gt;Node24</title>
<path fill="none" stroke="midnightblue" d="M1084.85,-46.1C1086.68,-37.14 1088.77,-26.86 1090.22,-19.75"/>
<polygon fill="midnightblue" stroke="midnightblue" points="1081.38,-45.59 1082.82,-56.08 1088.24,-46.98 1081.38,-45.59"/>
</g>
<!-- Node26 -->
<g id="node26" class="node">
<title>Node26</title>
<g id="a_node26"><a xlink:href="_move_mesh_8cpp.html" target="_top" xlink:title=" ">
<polygon fill="white" stroke="black" points="1149,-0.5 1149,-19.5 1239,-19.5 1239,-0.5 1149,-0.5"/>
<text text-anchor="middle" x="1194" y="-7.5" font-family="Helvetica,sans-Serif" font-size="10.00">MoveMesh.cpp</text>
</a>
</g>
</g>
<!-- Node25&#45;&gt;Node26 -->
<g id="edge25" class="edge">
<title>Node25&#45;&gt;Node26</title>
<path fill="none" stroke="midnightblue" d="M1178.8,-46.69C1182.68,-37.59 1187.18,-27.01 1190.27,-19.75"/>
<polygon fill="midnightblue" stroke="midnightblue" points="1175.5,-45.51 1174.8,-56.08 1181.94,-48.25 1175.5,-45.51"/>
</g>
<!-- Node28 -->
<g id="node28" class="node">
<title>Node28</title>
<g id="a_node28"><a xlink:href="_move_mesh2_d_8cpp.html" target="_top" xlink:title=" ">
<polygon fill="white" stroke="black" points="1257,-0.5 1257,-19.5 1361,-19.5 1361,-0.5 1257,-0.5"/>
<text text-anchor="middle" x="1309" y="-7.5" font-family="Helvetica,sans-Serif" font-size="10.00">MoveMesh2D.cpp</text>
</a>
</g>
</g>
<!-- Node27&#45;&gt;Node28 -->
<g id="edge27" class="edge">
<title>Node27&#45;&gt;Node28</title>
<path fill="none" stroke="midnightblue" d="M1285.98,-47.57C1291.83,-38.27 1298.77,-27.25 1303.49,-19.75"/>
<polygon fill="midnightblue" stroke="midnightblue" points="1282.98,-45.76 1280.61,-56.08 1288.9,-49.49 1282.98,-45.76"/>
</g>
<!-- Node30 -->
<g id="node30" class="node">
<title>Node30</title>
<g id="a_node30"><a xlink:href="_n_c_l_s_8cpp.html" target="_top" xlink:title=" ">
<polygon fill="white" stroke="black" points="1379,-0.5 1379,-19.5 1441,-19.5 1441,-0.5 1379,-0.5"/>
<text text-anchor="middle" x="1410" y="-7.5" font-family="Helvetica,sans-Serif" font-size="10.00">NCLS.cpp</text>
</a>
</g>
</g>
<!-- Node29&#45;&gt;Node30 -->
<g id="edge29" class="edge">
<title>Node29&#45;&gt;Node30</title>
<path fill="none" stroke="midnightblue" d="M1379.05,-48.14C1386.89,-38.74 1396.33,-27.4 1402.71,-19.75"/>
<polygon fill="midnightblue" stroke="midnightblue" points="1376.14,-46.16 1372.43,-56.08 1381.52,-50.64 1376.14,-46.16"/>
</g>
<!-- Node32 -->
<g id="node32" class="node">
<title>Node32</title>
<g id="a_node32"><a xlink:href="_n_c_l_s3_p_8cpp.html" target="_top" xlink:title=" ">
<polygon fill="white" stroke="black" points="1459.5,-0.5 1459.5,-19.5 1532.5,-19.5 1532.5,-0.5 1459.5,-0.5"/>
<text text-anchor="middle" x="1496" y="-7.5" font-family="Helvetica,sans-Serif" font-size="10.00">NCLS3P.cpp</text>
</a>
</g>
</g>
<!-- Node31&#45;&gt;Node32 -->
<g id="edge31" class="edge">
<title>Node31&#45;&gt;Node32</title>
<path fill="none" stroke="midnightblue" d="M1456.33,-49.25C1466.26,-39.67 1478.59,-27.79 1486.84,-19.83"/>
<polygon fill="midnightblue" stroke="midnightblue" points="1453.77,-46.86 1449,-56.32 1458.63,-51.9 1453.77,-46.86"/>
</g>
<!-- Node34 -->
<g id="node34" class="node">
<title>Node34</title>
<g id="a_node34"><a xlink:href="_pres_8cpp.html" target="_top" xlink:title=" ">
<polygon fill="white" stroke="black" points="1551,-0.5 1551,-19.5 1609,-19.5 1609,-0.5 1551,-0.5"/>
<text text-anchor="middle" x="1580" y="-7.5" font-family="Helvetica,sans-Serif" font-size="10.00">Pres.cpp</text>
</a>
</g>
</g>
<!-- Node33&#45;&gt;Node34 -->
<g id="edge33" class="edge">
<title>Node33&#45;&gt;Node34</title>
<path fill="none" stroke="midnightblue" d="M1531.83,-49.82C1543.84,-40.15 1558.97,-27.95 1569.04,-19.83"/>
<polygon fill="midnightblue" stroke="midnightblue" points="1529.35,-47.32 1523.76,-56.32 1533.75,-52.77 1529.35,-47.32"/>
</g>
</g>
</svg>
