<?xml version="1.0" encoding="UTF-8" standalone="no"?>
<!DOCTYPE svg PUBLIC "-//W3C//DTD SVG 1.1//EN"
 "http://www.w3.org/Graphics/SVG/1.1/DTD/svg11.dtd">
<!-- Generated by graphviz version 2.40.1 (20161225.0304)
 -->
<!-- Title: ArgumentsDict.cpp Pages: 1 -->
<svg width="572pt" height="140pt"
 viewBox="0.00 0.00 571.50 140.00" xmlns="http://www.w3.org/2000/svg" xmlns:xlink="http://www.w3.org/1999/xlink">
<g id="graph0" class="graph" transform="scale(1 1) rotate(0) translate(4 136)">
<title>ArgumentsDict.cpp</title>
<polygon fill="#ffffff" stroke="transparent" points="-4,4 -4,-136 567.5,-136 567.5,4 -4,4"/>
<!-- Node0 -->
<g id="node1" class="node">
<title>Node0</title>
<polygon fill="#bfbfbf" stroke="#000000" points="124.5,-112.5 124.5,-131.5 225.5,-131.5 225.5,-112.5 124.5,-112.5"/>
<text text-anchor="middle" x="175" y="-119.5" font-family="Helvetica,sans-Serif" font-size="10.00" fill="#000000">ArgumentsDict.cpp</text>
</g>
<!-- Node1 -->
<g id="node2" class="node">
<title>Node1</title>
<polygon fill="#ffffff" stroke="#bfbfbf" points="0,-56.5 0,-75.5 106,-75.5 106,-56.5 0,-56.5"/>
<text text-anchor="middle" x="53" y="-63.5" font-family="Helvetica,sans-Serif" font-size="10.00" fill="#000000">pybind11/pybind11.h</text>
</g>
<!-- Node0&#45;&gt;Node1 -->
<g id="edge1" class="edge">
<title>Node0&#45;&gt;Node1</title>
<path fill="none" stroke="#191970" d="M154.0275,-112.3733C134.4433,-103.3838 105.0039,-89.8706 82.949,-79.7471"/>
<polygon fill="#191970" stroke="#191970" points="84.2473,-76.4919 73.6989,-75.5011 81.3271,-82.8538 84.2473,-76.4919"/>
</g>
<!-- Node2 -->
<g id="node3" class="node">
<title>Node2</title>
<polygon fill="#ffffff" stroke="#bfbfbf" points="124.5,-56.5 124.5,-75.5 225.5,-75.5 225.5,-56.5 124.5,-56.5"/>
<text text-anchor="middle" x="175" y="-63.5" font-family="Helvetica,sans-Serif" font-size="10.00" fill="#000000">pybind11/stl_bind.h</text>
</g>
<!-- Node0&#45;&gt;Node2 -->
<g id="edge2" class="edge">
<title>Node0&#45;&gt;Node2</title>
<path fill="none" stroke="#191970" d="M175,-112.2455C175,-104.9382 175,-94.6944 175,-85.7046"/>
<polygon fill="#191970" stroke="#191970" points="178.5001,-85.6426 175,-75.6427 171.5001,-85.6427 178.5001,-85.6426"/>
</g>
<!-- Node3 -->
<g id="node4" class="node">
<title>Node3</title>
<g id="a_node4"><a xlink:href="_arguments_dict_8h.html" target="_top" xlink:title="ArgumentsDict.h">
<polygon fill="#ffffff" stroke="#000000" points="244,-56.5 244,-75.5 334,-75.5 334,-56.5 244,-56.5"/>
<text text-anchor="middle" x="289" y="-63.5" font-family="Helvetica,sans-Serif" font-size="10.00" fill="#000000">ArgumentsDict.h</text>
</a>
</g>
</g>
<!-- Node0&#45;&gt;Node3 -->
<g id="edge3" class="edge">
<title>Node0&#45;&gt;Node3</title>
<path fill="none" stroke="#191970" d="M194.5973,-112.3733C212.7331,-103.4644 239.9135,-90.1127 260.4587,-80.0203"/>
<polygon fill="#191970" stroke="#191970" points="262.2261,-83.0517 269.6584,-75.5011 259.1397,-76.7688 262.2261,-83.0517"/>
</g>
<!-- Node4 -->
<g id="node5" class="node">
<title>Node4</title>
<polygon fill="#ffffff" stroke="#bfbfbf" points="138.5,-.5 138.5,-19.5 173.5,-19.5 173.5,-.5 138.5,-.5"/>
<text text-anchor="middle" x="156" y="-7.5" font-family="Helvetica,sans-Serif" font-size="10.00" fill="#000000">map</text>
</g>
<!-- Node3&#45;&gt;Node4 -->
<g id="edge4" class="edge">
<title>Node3&#45;&gt;Node4</title>
<path fill="none" stroke="#191970" d="M266.1365,-56.3733C243.1589,-46.6985 207.7371,-31.784 183.2993,-21.4945"/>
<polygon fill="#191970" stroke="#191970" points="184.4598,-18.1855 173.8852,-17.5306 181.7433,-24.637 184.4598,-18.1855"/>
</g>
<!-- Node5 -->
<g id="node6" class="node">
<title>Node5</title>
<polygon fill="#ffffff" stroke="#bfbfbf" points="191.5,-.5 191.5,-19.5 250.5,-19.5 250.5,-.5 191.5,-.5"/>
<text text-anchor="middle" x="221" y="-7.5" font-family="Helvetica,sans-Serif" font-size="10.00" fill="#000000">stdexcept</text>
</g>
<!-- Node3&#45;&gt;Node5 -->
<g id="edge5" class="edge">
<title>Node3&#45;&gt;Node5</title>
<path fill="none" stroke="#191970" d="M277.1553,-56.2455C267.112,-47.9746 252.5005,-35.9416 240.6996,-26.2232"/>
<polygon fill="#191970" stroke="#191970" points="242.6533,-23.298 232.709,-19.6427 238.2033,-28.7015 242.6533,-23.298"/>
</g>
<!-- Node6 -->
<g id="node7" class="node">
<title>Node6</title>
<polygon fill="#ffffff" stroke="#bfbfbf" points="268.5,-.5 268.5,-19.5 309.5,-19.5 309.5,-.5 268.5,-.5"/>
<text text-anchor="middle" x="289" y="-7.5" font-family="Helvetica,sans-Serif" font-size="10.00" fill="#000000">string</text>
</g>
<!-- Node3&#45;&gt;Node6 -->
<g id="edge6" class="edge">
<title>Node3&#45;&gt;Node6</title>
<path fill="none" stroke="#191970" d="M289,-56.2455C289,-48.9382 289,-38.6944 289,-29.7046"/>
<polygon fill="#191970" stroke="#191970" points="292.5001,-29.6426 289,-19.6427 285.5001,-29.6427 292.5001,-29.6426"/>
</g>
<!-- Node7 -->
<g id="node8" class="node">
<title>Node7</title>
<polygon fill="#ffffff" stroke="#bfbfbf" points="327.5,-.5 327.5,-19.5 462.5,-19.5 462.5,-.5 327.5,-.5"/>
<text text-anchor="middle" x="395" y="-7.5" font-family="Helvetica,sans-Serif" font-size="10.00" fill="#000000">xtensor&#45;python/pyarray.hpp</text>
</g>
<!-- Node3&#45;&gt;Node7 -->
<g id="edge7" class="edge">
<title>Node3&#45;&gt;Node7</title>
<path fill="none" stroke="#191970" d="M307.4638,-56.2455C324.1074,-47.4527 348.7993,-34.4079 367.7192,-24.4125"/>
<polygon fill="#191970" stroke="#191970" points="369.5408,-27.4086 376.7478,-19.6427 366.2709,-21.2193 369.5408,-27.4086"/>
</g>
<!-- Node8 -->
<g id="node9" class="node">
<title>Node8</title>
<polygon fill="#ffffff" stroke="#bfbfbf" points="480.5,-.5 480.5,-19.5 563.5,-19.5 563.5,-.5 480.5,-.5"/>
<text text-anchor="middle" x="522" y="-7.5" font-family="Helvetica,sans-Serif" font-size="10.00" fill="#000000">xtensor/xio.hpp</text>
</g>
<!-- Node3&#45;&gt;Node8 -->
<g id="edge8" class="edge">
<title>Node3&#45;&gt;Node8</title>
<path fill="none" stroke="#191970" d="M328.7894,-56.4369C368.498,-46.8932 429.6104,-32.2052 472.4455,-21.9101"/>
<polygon fill="#191970" stroke="#191970" points="473.4695,-25.2637 482.3747,-19.5237 471.8337,-18.4575 473.4695,-25.2637"/>
</g>
</g>
</svg>
