<?xml version="1.0" encoding="UTF-8" standalone="no"?>
<!DOCTYPE svg PUBLIC "-//W3C//DTD SVG 1.1//EN"
 "http://www.w3.org/Graphics/SVG/1.1/DTD/svg11.dtd">
<!-- Generated by graphviz version 2.50.0 (20211204.2007)
 -->
<!-- Title: ArgumentsDict.h Pages: 1 -->
<svg width="2840pt" height="140pt"
 viewBox="0.00 0.00 2839.50 140.00" xmlns="http://www.w3.org/2000/svg" xmlns:xlink="http://www.w3.org/1999/xlink">
<g id="graph0" class="graph" transform="scale(1 1) rotate(0) translate(4 136)">
<title>ArgumentsDict.h</title>
<polygon fill="white" stroke="transparent" points="-4,4 -4,-136 2835.5,-136 2835.5,4 -4,4"/>
<!-- Node1 -->
<g id="node1" class="node">
<title>Node1</title>
<g id="a_node1"><a xlink:title=" ">
<polygon fill="#bfbfbf" stroke="black" points="1408.5,-112.5 1408.5,-131.5 1498.5,-131.5 1498.5,-112.5 1408.5,-112.5"/>
<text text-anchor="middle" x="1453.5" y="-119.5" font-family="Helvetica,sans-Serif" font-size="10.00">ArgumentsDict.h</text>
</a>
</g>
</g>
<!-- Node2 -->
<g id="node2" class="node">
<title>Node2</title>
<g id="a_node2"><a xlink:href="_a_d_r_8h.html" target="_top" xlink:title=" ">
<polygon fill="white" stroke="black" points="12,-56.5 12,-75.5 59,-75.5 59,-56.5 12,-56.5"/>
<text text-anchor="middle" x="35.5" y="-63.5" font-family="Helvetica,sans-Serif" font-size="10.00">ADR.h</text>
</a>
</g>
</g>
<!-- Node1&#45;&gt;Node2 -->
<g id="edge1" class="edge">
<title>Node1&#45;&gt;Node2</title>
<path fill="none" stroke="midnightblue" d="M1398.24,-120.67C1174.62,-119.12 336.19,-111.03 73.5,-76 68.8,-75.37 63.82,-74.42 59.08,-73.36"/>
<polygon fill="midnightblue" stroke="midnightblue" points="1398.4,-124.17 1408.42,-120.74 1398.44,-117.17 1398.4,-124.17"/>
</g>
<!-- Node4 -->
<g id="node4" class="node">
<title>Node4</title>
<g id="a_node4"><a xlink:href="_elasto_plastic_8h.html" target="_top" xlink:title=" ">
<polygon fill="white" stroke="black" points="83,-56.5 83,-75.5 166,-75.5 166,-56.5 83,-56.5"/>
<text text-anchor="middle" x="124.5" y="-63.5" font-family="Helvetica,sans-Serif" font-size="10.00">ElastoPlastic.h</text>
</a>
</g>
</g>
<!-- Node1&#45;&gt;Node4 -->
<g id="edge3" class="edge">
<title>Node1&#45;&gt;Node4</title>
<path fill="none" stroke="midnightblue" d="M1398.19,-120.11C1185.09,-116.51 417.15,-101.97 174.5,-76 171.78,-75.71 168.99,-75.36 166.18,-74.96"/>
<polygon fill="midnightblue" stroke="midnightblue" points="1398.44,-123.61 1408.5,-120.28 1398.56,-116.61 1398.44,-123.61"/>
</g>
<!-- Node6 -->
<g id="node6" class="node">
<title>Node6</title>
<g id="a_node6"><a xlink:href="_added_mass_8h.html" target="_top" xlink:title=" ">
<polygon fill="white" stroke="black" points="184,-56.5 184,-75.5 261,-75.5 261,-56.5 184,-56.5"/>
<text text-anchor="middle" x="222.5" y="-63.5" font-family="Helvetica,sans-Serif" font-size="10.00">AddedMass.h</text>
</a>
</g>
</g>
<!-- Node1&#45;&gt;Node6 -->
<g id="edge5" class="edge">
<title>Node1&#45;&gt;Node6</title>
<path fill="none" stroke="midnightblue" d="M1398.28,-120.01C1195.55,-116.21 492.48,-101.44 269.5,-76 266.78,-75.69 263.97,-75.31 261.16,-74.88"/>
<polygon fill="midnightblue" stroke="midnightblue" points="1398.33,-123.51 1408.4,-120.2 1398.47,-116.51 1398.33,-123.51"/>
</g>
<!-- Node8 -->
<g id="node8" class="node">
<title>Node8</title>
<g id="a_node8"><a xlink:href="_arguments_dict_8cpp.html" target="_top" xlink:title=" ">
<polygon fill="white" stroke="black" points="279,-56.5 279,-75.5 380,-75.5 380,-56.5 279,-56.5"/>
<text text-anchor="middle" x="329.5" y="-63.5" font-family="Helvetica,sans-Serif" font-size="10.00">ArgumentsDict.cpp</text>
</a>
</g>
</g>
<!-- Node1&#45;&gt;Node8 -->
<g id="edge7" class="edge">
<title>Node1&#45;&gt;Node8</title>
<path fill="none" stroke="midnightblue" d="M1398.08,-120.79C1240.02,-119.72 773.6,-113.4 388.5,-76 385.82,-75.74 383.07,-75.44 380.3,-75.11"/>
<polygon fill="midnightblue" stroke="midnightblue" points="1398.46,-124.29 1408.48,-120.85 1398.5,-117.29 1398.46,-124.29"/>
</g>
<!-- Node9 -->
<g id="node9" class="node">
<title>Node9</title>
<g id="a_node9"><a xlink:href="_c_l_s_v_o_f_8h.html" target="_top" xlink:title=" ">
<polygon fill="white" stroke="black" points="398,-56.5 398,-75.5 461,-75.5 461,-56.5 398,-56.5"/>
<text text-anchor="middle" x="429.5" y="-63.5" font-family="Helvetica,sans-Serif" font-size="10.00">CLSVOF.h</text>
</a>
</g>
</g>
<!-- Node1&#45;&gt;Node9 -->
<g id="edge8" class="edge">
<title>Node1&#45;&gt;Node9</title>
<path fill="none" stroke="midnightblue" d="M1398.29,-119.71C1218.67,-115.32 652.02,-99.9 470.5,-76 467.47,-75.6 464.32,-75.09 461.19,-74.52"/>
<polygon fill="midnightblue" stroke="midnightblue" points="1398.23,-123.21 1408.31,-119.95 1398.4,-116.21 1398.23,-123.21"/>
</g>
<!-- Node11 -->
<g id="node11" class="node">
<title>Node11</title>
<g id="a_node11"><a xlink:href="_dissipation_8h.html" target="_top" xlink:title=" ">
<polygon fill="white" stroke="black" points="479.5,-56.5 479.5,-75.5 553.5,-75.5 553.5,-56.5 479.5,-56.5"/>
<text text-anchor="middle" x="516.5" y="-63.5" font-family="Helvetica,sans-Serif" font-size="10.00">Dissipation.h</text>
</a>
</g>
</g>
<!-- Node1&#45;&gt;Node11 -->
<g id="edge10" class="edge">
<title>Node1&#45;&gt;Node11</title>
<path fill="none" stroke="midnightblue" d="M1398.27,-120.94C1258.04,-120.21 877.09,-114.52 562.5,-76 559.59,-75.64 556.59,-75.21 553.58,-74.73"/>
<polygon fill="midnightblue" stroke="midnightblue" points="1398.32,-124.44 1408.34,-120.99 1398.35,-117.44 1398.32,-124.44"/>
</g>
<!-- Node13 -->
<g id="node13" class="node">
<title>Node13</title>
<g id="a_node13"><a xlink:href="_dissipation2_d_8h.html" target="_top" xlink:title=" ">
<polygon fill="white" stroke="black" points="571.5,-56.5 571.5,-75.5 657.5,-75.5 657.5,-56.5 571.5,-56.5"/>
<text text-anchor="middle" x="614.5" y="-63.5" font-family="Helvetica,sans-Serif" font-size="10.00">Dissipation2D.h</text>
</a>
</g>
</g>
<!-- Node1&#45;&gt;Node13 -->
<g id="edge12" class="edge">
<title>Node1&#45;&gt;Node13</title>
<path fill="none" stroke="midnightblue" d="M1398.08,-120.01C1269.27,-117.22 939.86,-107.37 666.5,-76 663.59,-75.67 660.59,-75.27 657.58,-74.85"/>
<polygon fill="midnightblue" stroke="midnightblue" points="1398.03,-123.51 1408.1,-120.22 1398.17,-116.51 1398.03,-123.51"/>
</g>
<!-- Node15 -->
<g id="node15" class="node">
<title>Node15</title>
<g id="a_node15"><a xlink:href="_g_n___s_w2_d_c_v_8h.html" target="_top" xlink:title=" ">
<polygon fill="white" stroke="black" points="676,-56.5 676,-75.5 763,-75.5 763,-56.5 676,-56.5"/>
<text text-anchor="middle" x="719.5" y="-63.5" font-family="Helvetica,sans-Serif" font-size="10.00">GN_SW2DCV.h</text>
</a>
</g>
</g>
<!-- Node1&#45;&gt;Node15 -->
<g id="edge14" class="edge">
<title>Node1&#45;&gt;Node15</title>
<path fill="none" stroke="midnightblue" d="M1398.17,-119.33C1281.82,-115.38 1003.39,-103.64 771.5,-76 768.77,-75.67 765.97,-75.3 763.14,-74.9"/>
<polygon fill="midnightblue" stroke="midnightblue" points="1398.15,-122.83 1408.26,-119.66 1398.38,-115.83 1398.15,-122.83"/>
</g>
<!-- Node17 -->
<g id="node17" class="node">
<title>Node17</title>
<g id="a_node17"><a xlink:href="_kappa_8h.html" target="_top" xlink:title=" ">
<polygon fill="white" stroke="black" points="781,-56.5 781,-75.5 834,-75.5 834,-56.5 781,-56.5"/>
<text text-anchor="middle" x="807.5" y="-63.5" font-family="Helvetica,sans-Serif" font-size="10.00">Kappa.h</text>
</a>
</g>
</g>
<!-- Node1&#45;&gt;Node17 -->
<g id="edge16" class="edge">
<title>Node1&#45;&gt;Node17</title>
<path fill="none" stroke="midnightblue" d="M1398.03,-120.21C1290.27,-117.96 1045.4,-109.29 842.5,-76 839.78,-75.55 836.95,-74.99 834.15,-74.37"/>
<polygon fill="midnightblue" stroke="midnightblue" points="1398.27,-123.72 1408.33,-120.42 1398.4,-116.72 1398.27,-123.72"/>
</g>
<!-- Node19 -->
<g id="node19" class="node">
<title>Node19</title>
<g id="a_node19"><a xlink:href="_kappa2_d_8h.html" target="_top" xlink:title=" ">
<polygon fill="white" stroke="black" points="852,-56.5 852,-75.5 917,-75.5 917,-56.5 852,-56.5"/>
<text text-anchor="middle" x="884.5" y="-63.5" font-family="Helvetica,sans-Serif" font-size="10.00">Kappa2D.h</text>
</a>
</g>
</g>
<!-- Node1&#45;&gt;Node19 -->
<g id="edge18" class="edge">
<title>Node1&#45;&gt;Node19</title>
<path fill="none" stroke="midnightblue" d="M1398.32,-118.68C1301.94,-114.1 1096.85,-101.99 925.5,-76 922.76,-75.58 919.93,-75.09 917.1,-74.56"/>
<polygon fill="midnightblue" stroke="midnightblue" points="1398.26,-122.18 1408.41,-119.15 1398.59,-115.19 1398.26,-122.18"/>
</g>
<!-- Node21 -->
<g id="node21" class="node">
<title>Node21</title>
<g id="a_node21"><a xlink:href="_m_corr_8h.html" target="_top" xlink:title=" ">
<polygon fill="white" stroke="black" points="935,-56.5 935,-75.5 986,-75.5 986,-56.5 935,-56.5"/>
<text text-anchor="middle" x="960.5" y="-63.5" font-family="Helvetica,sans-Serif" font-size="10.00">MCorr.h</text>
</a>
</g>
</g>
<!-- Node1&#45;&gt;Node21 -->
<g id="edge20" class="edge">
<title>Node1&#45;&gt;Node21</title>
<path fill="none" stroke="midnightblue" d="M1398.22,-118.32C1311.76,-113.51 1139.53,-101.44 995.5,-76 992.41,-75.45 989.19,-74.78 986.02,-74.04"/>
<polygon fill="midnightblue" stroke="midnightblue" points="1398.16,-121.82 1408.33,-118.87 1398.54,-114.83 1398.16,-121.82"/>
</g>
<!-- Node23 -->
<g id="node23" class="node">
<title>Node23</title>
<g id="a_node23"><a xlink:href="_m_corr3_p_8h.html" target="_top" xlink:title=" ">
<polygon fill="white" stroke="black" points="1004.5,-56.5 1004.5,-75.5 1066.5,-75.5 1066.5,-56.5 1004.5,-56.5"/>
<text text-anchor="middle" x="1035.5" y="-63.5" font-family="Helvetica,sans-Serif" font-size="10.00">MCorr3P.h</text>
</a>
</g>
</g>
<!-- Node1&#45;&gt;Node23 -->
<g id="edge22" class="edge">
<title>Node1&#45;&gt;Node23</title>
<path fill="none" stroke="midnightblue" d="M1398.48,-116.24C1324.67,-109.44 1189.66,-95.58 1075.5,-76 1072.69,-75.52 1069.79,-74.97 1066.88,-74.38"/>
<polygon fill="midnightblue" stroke="midnightblue" points="1398.2,-119.73 1408.48,-117.15 1398.84,-112.76 1398.2,-119.73"/>
</g>
<!-- Node25 -->
<g id="node25" class="node">
<title>Node25</title>
<g id="a_node25"><a xlink:href="_move_mesh_8h.html" target="_top" xlink:title=" ">
<polygon fill="white" stroke="black" points="1085,-56.5 1085,-75.5 1158,-75.5 1158,-56.5 1085,-56.5"/>
<text text-anchor="middle" x="1121.5" y="-63.5" font-family="Helvetica,sans-Serif" font-size="10.00">MoveMesh.h</text>
</a>
</g>
</g>
<!-- Node1&#45;&gt;Node25 -->
<g id="edge24" class="edge">
<title>Node1&#45;&gt;Node25</title>
<path fill="none" stroke="midnightblue" d="M1398.34,-112.94C1340.67,-104.37 1247.58,-90.13 1167.5,-76 1164.45,-75.46 1161.3,-74.89 1158.14,-74.3"/>
<polygon fill="midnightblue" stroke="midnightblue" points="1397.93,-116.42 1408.34,-114.42 1398.96,-109.5 1397.93,-116.42"/>
</g>
<!-- Node27 -->
<g id="node27" class="node">
<title>Node27</title>
<g id="a_node27"><a xlink:href="_move_mesh2_d_8h.html" target="_top" xlink:title=" ">
<polygon fill="white" stroke="black" points="1176.5,-56.5 1176.5,-75.5 1262.5,-75.5 1262.5,-56.5 1176.5,-56.5"/>
<text text-anchor="middle" x="1219.5" y="-63.5" font-family="Helvetica,sans-Serif" font-size="10.00">MoveMesh2D.h</text>
</a>
</g>
</g>
<!-- Node1&#45;&gt;Node27 -->
<g id="edge26" class="edge">
<title>Node1&#45;&gt;Node27</title>
<path fill="none" stroke="midnightblue" d="M1406.5,-110.15C1362.28,-99.95 1296.98,-84.88 1256.4,-75.52"/>
<polygon fill="midnightblue" stroke="midnightblue" points="1405.89,-113.61 1416.42,-112.44 1407.47,-106.78 1405.89,-113.61"/>
</g>
<!-- Node29 -->
<g id="node29" class="node">
<title>Node29</title>
<g id="a_node29"><a xlink:href="_n_c_l_s_8h.html" target="_top" xlink:title=" ">
<polygon fill="white" stroke="black" points="1280.5,-56.5 1280.5,-75.5 1332.5,-75.5 1332.5,-56.5 1280.5,-56.5"/>
<text text-anchor="middle" x="1306.5" y="-63.5" font-family="Helvetica,sans-Serif" font-size="10.00">NCLS.h</text>
</a>
</g>
</g>
<!-- Node1&#45;&gt;Node29 -->
<g id="edge28" class="edge">
<title>Node1&#45;&gt;Node29</title>
<path fill="none" stroke="midnightblue" d="M1420.58,-108.91C1392.94,-98.75 1354.16,-84.51 1329.68,-75.52"/>
<polygon fill="midnightblue" stroke="midnightblue" points="1419.61,-112.28 1430.21,-112.44 1422.03,-105.71 1419.61,-112.28"/>
</g>
<!-- Node31 -->
<g id="node31" class="node">
<title>Node31</title>
<g id="a_node31"><a xlink:href="_n_c_l_s3_p_8h.html" target="_top" xlink:title=" ">
<polygon fill="white" stroke="black" points="1350.5,-56.5 1350.5,-75.5 1412.5,-75.5 1412.5,-56.5 1350.5,-56.5"/>
<text text-anchor="middle" x="1381.5" y="-63.5" font-family="Helvetica,sans-Serif" font-size="10.00">NCLS3P.h</text>
</a>
</g>
</g>
<!-- Node1&#45;&gt;Node31 -->
<g id="edge30" class="edge">
<title>Node1&#45;&gt;Node31</title>
<path fill="none" stroke="midnightblue" d="M1433.63,-106.1C1420.68,-96.38 1404.2,-84.03 1393.28,-75.83"/>
<polygon fill="midnightblue" stroke="midnightblue" points="1431.83,-109.12 1441.93,-112.32 1436.03,-103.52 1431.83,-109.12"/>
</g>
<!-- Node33 -->
<g id="node33" class="node">
<title>Node33</title>
<g id="a_node33"><a xlink:href="_pres_8h.html" target="_top" xlink:title=" ">
<polygon fill="white" stroke="black" points="1431,-56.5 1431,-75.5 1476,-75.5 1476,-56.5 1431,-56.5"/>
<text text-anchor="middle" x="1453.5" y="-63.5" font-family="Helvetica,sans-Serif" font-size="10.00">Pres.h</text>
</a>
</g>
</g>
<!-- Node1&#45;&gt;Node33 -->
<g id="edge32" class="edge">
<title>Node1&#45;&gt;Node33</title>
<path fill="none" stroke="midnightblue" d="M1453.5,-101.8C1453.5,-92.91 1453.5,-82.78 1453.5,-75.75"/>
<polygon fill="midnightblue" stroke="midnightblue" points="1450,-102.08 1453.5,-112.08 1457,-102.08 1450,-102.08"/>
</g>
<!-- Node35 -->
<g id="node35" class="node">
<title>Node35</title>
<g id="a_node35"><a xlink:href="_pres_inc_8h.html" target="_top" xlink:title=" ">
<polygon fill="white" stroke="red" points="1494,-56.5 1494,-75.5 1553,-75.5 1553,-56.5 1494,-56.5"/>
<text text-anchor="middle" x="1523.5" y="-63.5" font-family="Helvetica,sans-Serif" font-size="10.00">PresInc.h</text>
</a>
</g>
</g>
<!-- Node1&#45;&gt;Node35 -->
<g id="edge34" class="edge">
<title>Node1&#45;&gt;Node35</title>
<path fill="none" stroke="midnightblue" d="M1472.81,-106.1C1485.41,-96.38 1501.43,-84.03 1512.05,-75.83"/>
<polygon fill="midnightblue" stroke="midnightblue" points="1470.53,-103.44 1464.75,-112.32 1474.8,-108.99 1470.53,-103.44"/>
</g>
<!-- Node37 -->
<g id="node36" class="node">
<title>Node37</title>
<g id="a_node36"><a xlink:href="_pres_init_8h.html" target="_top" xlink:title=" ">
<polygon fill="white" stroke="red" points="1571,-56.5 1571,-75.5 1630,-75.5 1630,-56.5 1571,-56.5"/>
<text text-anchor="middle" x="1600.5" y="-63.5" font-family="Helvetica,sans-Serif" font-size="10.00">PresInit.h</text>
</a>
</g>
</g>
<!-- Node1&#45;&gt;Node37 -->
<g id="edge35" class="edge">
<title>Node1&#45;&gt;Node37</title>
<path fill="none" stroke="midnightblue" d="M1486.42,-108.91C1514.06,-98.75 1552.84,-84.51 1577.32,-75.52"/>
<polygon fill="midnightblue" stroke="midnightblue" points="1484.97,-105.71 1476.79,-112.44 1487.39,-112.28 1484.97,-105.71"/>
</g>
<!-- Node39 -->
<g id="node37" class="node">
<title>Node39</title>
<g id="a_node37"><a xlink:href="_r_a_n_s2_p_8h.html" target="_top" xlink:title=" ">
<polygon fill="white" stroke="red" points="1648.5,-56.5 1648.5,-75.5 1712.5,-75.5 1712.5,-56.5 1648.5,-56.5"/>
<text text-anchor="middle" x="1680.5" y="-63.5" font-family="Helvetica,sans-Serif" font-size="10.00">RANS2P.h</text>
</a>
</g>
</g>
<!-- Node1&#45;&gt;Node39 -->
<g id="edge36" class="edge">
<title>Node1&#45;&gt;Node39</title>
<path fill="none" stroke="midnightblue" d="M1499.39,-110.08C1543.64,-99.56 1609.46,-83.9 1648.37,-74.64"/>
<polygon fill="midnightblue" stroke="midnightblue" points="1498.39,-106.72 1489.47,-112.44 1500.01,-113.53 1498.39,-106.72"/>
</g>
<!-- Node41 -->
<g id="node38" class="node">
<title>Node41</title>
<g id="a_node38"><a xlink:href="_r_a_n_s2_p2_d_8h.html" target="_top" xlink:title=" ">
<polygon fill="white" stroke="red" points="1730.5,-56.5 1730.5,-75.5 1808.5,-75.5 1808.5,-56.5 1730.5,-56.5"/>
<text text-anchor="middle" x="1769.5" y="-63.5" font-family="Helvetica,sans-Serif" font-size="10.00">RANS2P2D.h</text>
</a>
</g>
</g>
<!-- Node1&#45;&gt;Node41 -->
<g id="edge37" class="edge">
<title>Node1&#45;&gt;Node41</title>
<path fill="none" stroke="midnightblue" d="M1508.68,-112.05C1562.9,-103.18 1647.97,-89.07 1721.5,-76 1724.42,-75.48 1727.44,-74.94 1730.48,-74.38"/>
<polygon fill="midnightblue" stroke="midnightblue" points="1507.9,-108.63 1498.59,-113.7 1509.03,-115.54 1507.9,-108.63"/>
</g>
<!-- Node43 -->
<g id="node39" class="node">
<title>Node43</title>
<g id="a_node39"><a xlink:href="_r_a_n_s2_p___i_b_8h.html" target="_top" xlink:title=" ">
<polygon fill="white" stroke="red" points="1826.5,-56.5 1826.5,-75.5 1906.5,-75.5 1906.5,-56.5 1826.5,-56.5"/>
<text text-anchor="middle" x="1866.5" y="-63.5" font-family="Helvetica,sans-Serif" font-size="10.00">RANS2P_IB.h</text>
</a>
</g>
</g>
<!-- Node1&#45;&gt;Node43 -->
<g id="edge38" class="edge">
<title>Node1&#45;&gt;Node43</title>
<path fill="none" stroke="midnightblue" d="M1508.86,-115.18C1580.32,-107.43 1708.47,-92.74 1817.5,-76 1820.41,-75.55 1823.41,-75.07 1826.42,-74.56"/>
<polygon fill="midnightblue" stroke="midnightblue" points="1508.3,-111.72 1498.73,-116.27 1509.05,-118.68 1508.3,-111.72"/>
</g>
<!-- Node45 -->
<g id="node40" class="node">
<title>Node45</title>
<g id="a_node40"><a xlink:href="_r_a_n_s3_p_f_8h.html" target="_top" xlink:title=" ">
<polygon fill="white" stroke="red" points="1924.5,-56.5 1924.5,-75.5 1994.5,-75.5 1994.5,-56.5 1924.5,-56.5"/>
<text text-anchor="middle" x="1959.5" y="-63.5" font-family="Helvetica,sans-Serif" font-size="10.00">RANS3PF.h</text>
</a>
</g>
</g>
<!-- Node1&#45;&gt;Node45 -->
<g id="edge39" class="edge">
<title>Node1&#45;&gt;Node45</title>
<path fill="none" stroke="midnightblue" d="M1508.78,-117.49C1595.68,-111.56 1769.43,-97.99 1915.5,-76 1918.43,-75.56 1921.46,-75.05 1924.49,-74.5"/>
<polygon fill="midnightblue" stroke="midnightblue" points="1508.36,-114.01 1498.62,-118.18 1508.83,-121 1508.36,-114.01"/>
</g>
<!-- Node47 -->
<g id="node41" class="node">
<title>Node47</title>
<g id="a_node41"><a xlink:href="_r_a_n_s3_p_f2_d_8h.html" target="_top" xlink:title=" ">
<polygon fill="white" stroke="red" points="2012.5,-56.5 2012.5,-75.5 2096.5,-75.5 2096.5,-56.5 2012.5,-56.5"/>
<text text-anchor="middle" x="2054.5" y="-63.5" font-family="Helvetica,sans-Serif" font-size="10.00">RANS3PF2D.h</text>
</a>
</g>
</g>
<!-- Node1&#45;&gt;Node47 -->
<g id="edge40" class="edge">
<title>Node1&#45;&gt;Node47</title>
<path fill="none" stroke="midnightblue" d="M1508.66,-118.19C1607.94,-112.75 1823.17,-99.24 2003.5,-76 2006.35,-75.63 2009.29,-75.22 2012.25,-74.77"/>
<polygon fill="midnightblue" stroke="midnightblue" points="1508.36,-114.7 1498.56,-118.74 1508.74,-121.69 1508.36,-114.7"/>
</g>
<!-- Node49 -->
<g id="node42" class="node">
<title>Node49</title>
<g id="a_node42"><a xlink:href="_r_a_n_s3_p_sed_8h.html" target="_top" xlink:title=" ">
<polygon fill="white" stroke="red" points="2115,-56.5 2115,-75.5 2198,-75.5 2198,-56.5 2115,-56.5"/>
<text text-anchor="middle" x="2156.5" y="-63.5" font-family="Helvetica,sans-Serif" font-size="10.00">RANS3PSed.h</text>
</a>
</g>
</g>
<!-- Node1&#45;&gt;Node49 -->
<g id="edge41" class="edge">
<title>Node1&#45;&gt;Node49</title>
<path fill="none" stroke="midnightblue" d="M1508.81,-119.16C1621.46,-114.97 1885.43,-102.94 2105.5,-76 2108.53,-75.63 2111.66,-75.2 2114.81,-74.73"/>
<polygon fill="midnightblue" stroke="midnightblue" points="1508.58,-115.66 1498.71,-119.53 1508.83,-122.66 1508.58,-115.66"/>
</g>
<!-- Node51 -->
<g id="node43" class="node">
<title>Node51</title>
<g id="a_node43"><a xlink:href="_r_a_n_s3_p_sed2_d_8h.html" target="_top" xlink:title=" ">
<polygon fill="white" stroke="red" points="2216,-56.5 2216,-75.5 2311,-75.5 2311,-56.5 2216,-56.5"/>
<text text-anchor="middle" x="2263.5" y="-63.5" font-family="Helvetica,sans-Serif" font-size="10.00">RANS3PSed2D.h</text>
</a>
</g>
</g>
<!-- Node1&#45;&gt;Node51 -->
<g id="edge42" class="edge">
<title>Node1&#45;&gt;Node51</title>
<path fill="none" stroke="midnightblue" d="M1508.75,-119.59C1633.61,-115.99 1946.95,-104.64 2207.5,-76 2210.24,-75.7 2213.05,-75.36 2215.88,-74.98"/>
<polygon fill="midnightblue" stroke="midnightblue" points="1508.57,-116.09 1498.68,-119.87 1508.77,-123.09 1508.57,-116.09"/>
</g>
<!-- Node53 -->
<g id="node44" class="node">
<title>Node53</title>
<g id="a_node44"><a xlink:href="_r_d_l_s_8h.html" target="_top" xlink:title=" ">
<polygon fill="white" stroke="red" points="2329.5,-56.5 2329.5,-75.5 2381.5,-75.5 2381.5,-56.5 2329.5,-56.5"/>
<text text-anchor="middle" x="2355.5" y="-63.5" font-family="Helvetica,sans-Serif" font-size="10.00">RDLS.h</text>
</a>
</g>
</g>
<!-- Node1&#45;&gt;Node53 -->
<g id="edge43" class="edge">
<title>Node1&#45;&gt;Node53</title>
<path fill="none" stroke="midnightblue" d="M1509.03,-119.57C1674.59,-115.07 2163.05,-100.08 2320.5,-76 2323.35,-75.56 2326.31,-74.99 2329.24,-74.35"/>
<polygon fill="midnightblue" stroke="midnightblue" points="1508.5,-116.08 1498.6,-119.85 1508.69,-123.08 1508.5,-116.08"/>
</g>
<!-- Node55 -->
<g id="node45" class="node">
<title>Node55</title>
<g id="a_node45"><a xlink:href="_s_w2_d_8h.html" target="_top" xlink:title=" ">
<polygon fill="white" stroke="red" points="2399.5,-56.5 2399.5,-75.5 2453.5,-75.5 2453.5,-56.5 2399.5,-56.5"/>
<text text-anchor="middle" x="2426.5" y="-63.5" font-family="Helvetica,sans-Serif" font-size="10.00">SW2D.h</text>
</a>
</g>
</g>
<!-- Node1&#45;&gt;Node55 -->
<g id="edge44" class="edge">
<title>Node1&#45;&gt;Node55</title>
<path fill="none" stroke="midnightblue" d="M1508.75,-119.78C1682.85,-115.69 2218.69,-101.35 2390.5,-76 2393.43,-75.57 2396.47,-75 2399.49,-74.36"/>
<polygon fill="midnightblue" stroke="midnightblue" points="1508.45,-116.28 1498.53,-120.01 1508.61,-123.28 1508.45,-116.28"/>
</g>
<!-- Node57 -->
<g id="node46" class="node">
<title>Node57</title>
<g id="a_node46"><a xlink:href="_s_w2_d_c_v_8h.html" target="_top" xlink:title=" ">
<polygon fill="white" stroke="red" points="2472,-56.5 2472,-75.5 2539,-75.5 2539,-56.5 2472,-56.5"/>
<text text-anchor="middle" x="2505.5" y="-63.5" font-family="Helvetica,sans-Serif" font-size="10.00">SW2DCV.h</text>
</a>
</g>
</g>
<!-- Node1&#45;&gt;Node57 -->
<g id="edge45" class="edge">
<title>Node1&#45;&gt;Node57</title>
<path fill="none" stroke="midnightblue" d="M1508.78,-121.66C1661.34,-122.82 2100.91,-121.6 2462.5,-76 2465.53,-75.62 2468.66,-75.14 2471.79,-74.59"/>
<polygon fill="midnightblue" stroke="midnightblue" points="1508.75,-118.16 1498.73,-121.58 1508.7,-125.16 1508.75,-118.16"/>
</g>
<!-- Node59 -->
<g id="node47" class="node">
<title>Node59</title>
<g id="a_node47"><a xlink:href="_v_o_f_8h.html" target="_top" xlink:title=" ">
<polygon fill="white" stroke="red" points="2557.5,-56.5 2557.5,-75.5 2601.5,-75.5 2601.5,-56.5 2557.5,-56.5"/>
<text text-anchor="middle" x="2579.5" y="-63.5" font-family="Helvetica,sans-Serif" font-size="10.00">VOF.h</text>
</a>
</g>
</g>
<!-- Node1&#45;&gt;Node59 -->
<g id="edge46" class="edge">
<title>Node1&#45;&gt;Node59</title>
<path fill="none" stroke="midnightblue" d="M1508.77,-120.49C1701.79,-118.44 2345.1,-109.2 2548.5,-76 2551.38,-75.53 2554.36,-74.88 2557.3,-74.14"/>
<polygon fill="midnightblue" stroke="midnightblue" points="1508.54,-116.99 1498.58,-120.6 1508.62,-123.99 1508.54,-116.99"/>
</g>
<!-- Node61 -->
<g id="node48" class="node">
<title>Node61</title>
<g id="a_node48"><a xlink:href="_v_o_f3_p_8h.html" target="_top" xlink:title=" ">
<polygon fill="white" stroke="red" points="2619.5,-56.5 2619.5,-75.5 2675.5,-75.5 2675.5,-56.5 2619.5,-56.5"/>
<text text-anchor="middle" x="2647.5" y="-63.5" font-family="Helvetica,sans-Serif" font-size="10.00">VOF3P.h</text>
</a>
</g>
</g>
<!-- Node1&#45;&gt;Node61 -->
<g id="edge47" class="edge">
<title>Node1&#45;&gt;Node61</title>
<path fill="none" stroke="midnightblue" d="M1508.81,-120.31C1708.77,-117.6 2393.76,-106.26 2610.5,-76 2613.38,-75.6 2616.36,-75.07 2619.33,-74.47"/>
<polygon fill="midnightblue" stroke="midnightblue" points="1508.5,-116.82 1498.55,-120.45 1508.59,-123.82 1508.5,-116.82"/>
</g>
<!-- Node63 -->
<g id="node49" class="node">
<title>Node63</title>
<g id="a_node49"><a xlink:href="_v_o_s3_p_8h.html" target="_top" xlink:title=" ">
<polygon fill="white" stroke="red" points="2693.5,-56.5 2693.5,-75.5 2749.5,-75.5 2749.5,-56.5 2693.5,-56.5"/>
<text text-anchor="middle" x="2721.5" y="-63.5" font-family="Helvetica,sans-Serif" font-size="10.00">VOS3P.h</text>
</a>
</g>
</g>
<!-- Node1&#45;&gt;Node63 -->
<g id="edge48" class="edge">
<title>Node1&#45;&gt;Node63</title>
<path fill="none" stroke="midnightblue" d="M1508.88,-120.46C1717.05,-118.21 2452.61,-108.1 2684.5,-76 2687.38,-75.6 2690.37,-75.07 2693.33,-74.47"/>
<polygon fill="midnightblue" stroke="midnightblue" points="1508.75,-116.96 1498.79,-120.57 1508.83,-123.96 1508.75,-116.96"/>
</g>
<!-- Node65 -->
<g id="node50" class="node">
<title>Node65</title>
<g id="a_node50"><a xlink:href="_richards_8h.html" target="_top" xlink:title=" ">
<polygon fill="white" stroke="red" points="2767.5,-56.5 2767.5,-75.5 2831.5,-75.5 2831.5,-56.5 2767.5,-56.5"/>
<text text-anchor="middle" x="2799.5" y="-63.5" font-family="Helvetica,sans-Serif" font-size="10.00">Richards.h</text>
</a>
</g>
</g>
<!-- Node1&#45;&gt;Node65 -->
<g id="edge49" class="edge">
<title>Node1&#45;&gt;Node65</title>
<path fill="none" stroke="midnightblue" d="M1508.92,-120.43C1724.98,-118 2511.06,-107.16 2758.5,-76 2761.39,-75.64 2764.38,-75.17 2767.37,-74.63"/>
<polygon fill="midnightblue" stroke="midnightblue" points="1508.73,-116.93 1498.77,-120.54 1508.81,-123.93 1508.73,-116.93"/>
</g>
<!-- Node3 -->
<g id="node3" class="node">
<title>Node3</title>
<g id="a_node3"><a xlink:href="_a_d_r_8cpp.html" target="_top" xlink:title=" ">
<polygon fill="white" stroke="black" points="0,-0.5 0,-19.5 57,-19.5 57,-0.5 0,-0.5"/>
<text text-anchor="middle" x="28.5" y="-7.5" font-family="Helvetica,sans-Serif" font-size="10.00">ADR.cpp</text>
</a>
</g>
</g>
<!-- Node2&#45;&gt;Node3 -->
<g id="edge2" class="edge">
<title>Node2&#45;&gt;Node3</title>
<path fill="none" stroke="midnightblue" d="M33.05,-46.1C31.89,-37.14 30.56,-26.86 29.63,-19.75"/>
<polygon fill="midnightblue" stroke="midnightblue" points="29.59,-46.62 34.34,-56.08 36.53,-45.72 29.59,-46.62"/>
</g>
<!-- Node5 -->
<g id="node5" class="node">
<title>Node5</title>
<g id="a_node5"><a xlink:href="c_elasto_plastic_8cpp.html" target="_top" xlink:title=" ">
<polygon fill="white" stroke="black" points="75.5,-0.5 75.5,-19.5 173.5,-19.5 173.5,-0.5 75.5,-0.5"/>
<text text-anchor="middle" x="124.5" y="-7.5" font-family="Helvetica,sans-Serif" font-size="10.00">cElastoPlastic.cpp</text>
</a>
</g>
</g>
<!-- Node4&#45;&gt;Node5 -->
<g id="edge4" class="edge">
<title>Node4&#45;&gt;Node5</title>
<path fill="none" stroke="midnightblue" d="M124.5,-45.8C124.5,-36.91 124.5,-26.78 124.5,-19.75"/>
<polygon fill="midnightblue" stroke="midnightblue" points="121,-46.08 124.5,-56.08 128,-46.08 121,-46.08"/>
</g>
<!-- Node7 -->
<g id="node7" class="node">
<title>Node7</title>
<g id="a_node7"><a xlink:href="_added_mass_8cpp.html" target="_top" xlink:title=" ">
<polygon fill="white" stroke="black" points="192,-0.5 192,-19.5 279,-19.5 279,-0.5 192,-0.5"/>
<text text-anchor="middle" x="235.5" y="-7.5" font-family="Helvetica,sans-Serif" font-size="10.00">AddedMass.cpp</text>
</a>
</g>
</g>
<!-- Node6&#45;&gt;Node7 -->
<g id="edge6" class="edge">
<title>Node6&#45;&gt;Node7</title>
<path fill="none" stroke="midnightblue" d="M227.05,-46.1C229.21,-37.14 231.68,-26.86 233.39,-19.75"/>
<polygon fill="midnightblue" stroke="midnightblue" points="223.58,-45.54 224.65,-56.08 230.39,-47.18 223.58,-45.54"/>
</g>
<!-- Node10 -->
<g id="node10" class="node">
<title>Node10</title>
<g id="a_node10"><a xlink:href="_c_l_s_v_o_f_8cpp.html" target="_top" xlink:title=" ">
<polygon fill="white" stroke="black" points="327.5,-0.5 327.5,-19.5 401.5,-19.5 401.5,-0.5 327.5,-0.5"/>
<text text-anchor="middle" x="364.5" y="-7.5" font-family="Helvetica,sans-Serif" font-size="10.00">CLSVOF.cpp</text>
</a>
</g>
</g>
<!-- Node9&#45;&gt;Node10 -->
<g id="edge9" class="edge">
<title>Node9&#45;&gt;Node10</title>
<path fill="none" stroke="midnightblue" d="M411.23,-49.82C399.58,-40.15 384.9,-27.95 375.13,-19.83"/>
<polygon fill="midnightblue" stroke="midnightblue" points="409.13,-52.63 419.06,-56.32 413.6,-47.24 409.13,-52.63"/>
</g>
<!-- Node12 -->
<g id="node12" class="node">
<title>Node12</title>
<g id="a_node12"><a xlink:href="_dissipation_8cpp.html" target="_top" xlink:title=" ">
<polygon fill="white" stroke="black" points="419.5,-0.5 419.5,-19.5 503.5,-19.5 503.5,-0.5 419.5,-0.5"/>
<text text-anchor="middle" x="461.5" y="-7.5" font-family="Helvetica,sans-Serif" font-size="10.00">Dissipation.cpp</text>
</a>
</g>
</g>
<!-- Node11&#45;&gt;Node12 -->
<g id="edge11" class="edge">
<title>Node11&#45;&gt;Node12</title>
<path fill="none" stroke="midnightblue" d="M500.21,-49C490.46,-39.43 478.45,-27.64 470.41,-19.75"/>
<polygon fill="midnightblue" stroke="midnightblue" points="497.83,-51.57 507.42,-56.08 502.73,-46.58 497.83,-51.57"/>
</g>
<!-- Node14 -->
<g id="node14" class="node">
<title>Node14</title>
<g id="a_node14"><a xlink:href="_dissipation2_d_8cpp.html" target="_top" xlink:title=" ">
<polygon fill="white" stroke="black" points="522,-0.5 522,-19.5 619,-19.5 619,-0.5 522,-0.5"/>
<text text-anchor="middle" x="570.5" y="-7.5" font-family="Helvetica,sans-Serif" font-size="10.00">Dissipation2D.cpp</text>
</a>
</g>
</g>
<!-- Node13&#45;&gt;Node14 -->
<g id="edge13" class="edge">
<title>Node13&#45;&gt;Node14</title>
<path fill="none" stroke="midnightblue" d="M600.77,-48.14C593.1,-38.74 583.87,-27.4 577.63,-19.75"/>
<polygon fill="midnightblue" stroke="midnightblue" points="598.2,-50.54 607.23,-56.08 603.63,-46.12 598.2,-50.54"/>
</g>
<!-- Node16 -->
<g id="node16" class="node">
<title>Node16</title>
<g id="a_node16"><a xlink:href="_g_n___s_w2_d_c_v_8cpp.html" target="_top" xlink:title=" ">
<polygon fill="white" stroke="black" points="637.5,-0.5 637.5,-19.5 735.5,-19.5 735.5,-0.5 637.5,-0.5"/>
<text text-anchor="middle" x="686.5" y="-7.5" font-family="Helvetica,sans-Serif" font-size="10.00">GN_SW2DCV.cpp</text>
</a>
</g>
</g>
<!-- Node15&#45;&gt;Node16 -->
<g id="edge15" class="edge">
<title>Node15&#45;&gt;Node16</title>
<path fill="none" stroke="midnightblue" d="M708.67,-47.27C703.03,-38.05 696.38,-27.17 691.85,-19.75"/>
<polygon fill="midnightblue" stroke="midnightblue" points="705.85,-49.38 714.05,-56.08 711.82,-45.73 705.85,-49.38"/>
</g>
<!-- Node18 -->
<g id="node18" class="node">
<title>Node18</title>
<g id="a_node18"><a xlink:href="_kappa_8cpp.html" target="_top" xlink:title=" ">
<polygon fill="white" stroke="black" points="754,-0.5 754,-19.5 817,-19.5 817,-0.5 754,-0.5"/>
<text text-anchor="middle" x="785.5" y="-7.5" font-family="Helvetica,sans-Serif" font-size="10.00">Kappa.cpp</text>
</a>
</g>
</g>
<!-- Node17&#45;&gt;Node18 -->
<g id="edge17" class="edge">
<title>Node17&#45;&gt;Node18</title>
<path fill="none" stroke="midnightblue" d="M800.04,-46.69C796.33,-37.59 792.02,-27.01 789.07,-19.75"/>
<polygon fill="midnightblue" stroke="midnightblue" points="796.85,-48.14 803.87,-56.08 803.34,-45.5 796.85,-48.14"/>
</g>
<!-- Node20 -->
<g id="node20" class="node">
<title>Node20</title>
<g id="a_node20"><a xlink:href="_kappa2_d_8cpp.html" target="_top" xlink:title=" ">
<polygon fill="white" stroke="black" points="835.5,-0.5 835.5,-19.5 911.5,-19.5 911.5,-0.5 835.5,-0.5"/>
<text text-anchor="middle" x="873.5" y="-7.5" font-family="Helvetica,sans-Serif" font-size="10.00">Kappa2D.cpp</text>
</a>
</g>
</g>
<!-- Node19&#45;&gt;Node20 -->
<g id="edge19" class="edge">
<title>Node19&#45;&gt;Node20</title>
<path fill="none" stroke="midnightblue" d="M880.65,-46.1C878.82,-37.14 876.73,-26.86 875.28,-19.75"/>
<polygon fill="midnightblue" stroke="midnightblue" points="877.26,-46.98 882.68,-56.08 884.12,-45.59 877.26,-46.98"/>
</g>
<!-- Node22 -->
<g id="node22" class="node">
<title>Node22</title>
<g id="a_node22"><a xlink:href="_m_corr_8cpp.html" target="_top" xlink:title=" ">
<polygon fill="white" stroke="black" points="929.5,-0.5 929.5,-19.5 991.5,-19.5 991.5,-0.5 929.5,-0.5"/>
<text text-anchor="middle" x="960.5" y="-7.5" font-family="Helvetica,sans-Serif" font-size="10.00">MCorr.cpp</text>
</a>
</g>
</g>
<!-- Node21&#45;&gt;Node22 -->
<g id="edge21" class="edge">
<title>Node21&#45;&gt;Node22</title>
<path fill="none" stroke="midnightblue" d="M960.5,-45.8C960.5,-36.91 960.5,-26.78 960.5,-19.75"/>
<polygon fill="midnightblue" stroke="midnightblue" points="957,-46.08 960.5,-56.08 964,-46.08 957,-46.08"/>
</g>
<!-- Node24 -->
<g id="node24" class="node">
<title>Node24</title>
<g id="a_node24"><a xlink:href="_m_corr3_p_8cpp.html" target="_top" xlink:title=" ">
<polygon fill="white" stroke="black" points="1010,-0.5 1010,-19.5 1083,-19.5 1083,-0.5 1010,-0.5"/>
<text text-anchor="middle" x="1046.5" y="-7.5" font-family="Helvetica,sans-Serif" font-size="10.00">MCorr3P.cpp</text>
</a>
</g>
</g>
<!-- Node23&#45;&gt;Node24 -->
<g id="edge23" class="edge">
<title>Node23&#45;&gt;Node24</title>
<path fill="none" stroke="midnightblue" d="M1039.35,-46.1C1041.18,-37.14 1043.27,-26.86 1044.72,-19.75"/>
<polygon fill="midnightblue" stroke="midnightblue" points="1035.88,-45.59 1037.32,-56.08 1042.74,-46.98 1035.88,-45.59"/>
</g>
<!-- Node26 -->
<g id="node26" class="node">
<title>Node26</title>
<g id="a_node26"><a xlink:href="_move_mesh_8cpp.html" target="_top" xlink:title=" ">
<polygon fill="white" stroke="black" points="1101,-0.5 1101,-19.5 1184,-19.5 1184,-0.5 1101,-0.5"/>
<text text-anchor="middle" x="1142.5" y="-7.5" font-family="Helvetica,sans-Serif" font-size="10.00">MoveMesh.cpp</text>
</a>
</g>
</g>
<!-- Node25&#45;&gt;Node26 -->
<g id="edge25" class="edge">
<title>Node25&#45;&gt;Node26</title>
<path fill="none" stroke="midnightblue" d="M1128.62,-46.69C1132.16,-37.59 1136.27,-27.01 1139.1,-19.75"/>
<polygon fill="midnightblue" stroke="midnightblue" points="1125.33,-45.49 1124.97,-56.08 1131.85,-48.03 1125.33,-45.49"/>
</g>
<!-- Node28 -->
<g id="node28" class="node">
<title>Node28</title>
<g id="a_node28"><a xlink:href="_move_mesh2_d_8cpp.html" target="_top" xlink:title=" ">
<polygon fill="white" stroke="black" points="1202.5,-0.5 1202.5,-19.5 1298.5,-19.5 1298.5,-0.5 1202.5,-0.5"/>
<text text-anchor="middle" x="1250.5" y="-7.5" font-family="Helvetica,sans-Serif" font-size="10.00">MoveMesh2D.cpp</text>
</a>
</g>
</g>
<!-- Node27&#45;&gt;Node28 -->
<g id="edge27" class="edge">
<title>Node27&#45;&gt;Node28</title>
<path fill="none" stroke="midnightblue" d="M1229.68,-47.27C1234.97,-38.05 1241.22,-27.17 1245.48,-19.75"/>
<polygon fill="midnightblue" stroke="midnightblue" points="1226.56,-45.67 1224.62,-56.08 1232.63,-49.15 1226.56,-45.67"/>
</g>
<!-- Node30 -->
<g id="node30" class="node">
<title>Node30</title>
<g id="a_node30"><a xlink:href="_n_c_l_s_8cpp.html" target="_top" xlink:title=" ">
<polygon fill="white" stroke="black" points="1316.5,-0.5 1316.5,-19.5 1378.5,-19.5 1378.5,-0.5 1316.5,-0.5"/>
<text text-anchor="middle" x="1347.5" y="-7.5" font-family="Helvetica,sans-Serif" font-size="10.00">NCLS.cpp</text>
</a>
</g>
</g>
<!-- Node29&#45;&gt;Node30 -->
<g id="edge29" class="edge">
<title>Node29&#45;&gt;Node30</title>
<path fill="none" stroke="midnightblue" d="M1319.52,-47.86C1326.62,-38.5 1335.1,-27.33 1340.86,-19.75"/>
<polygon fill="midnightblue" stroke="midnightblue" points="1316.53,-46 1313.27,-56.08 1322.11,-50.24 1316.53,-46"/>
</g>
<!-- Node32 -->
<g id="node32" class="node">
<title>Node32</title>
<g id="a_node32"><a xlink:href="_n_c_l_s3_p_8cpp.html" target="_top" xlink:title=" ">
<polygon fill="white" stroke="black" points="1397,-0.5 1397,-19.5 1470,-19.5 1470,-0.5 1397,-0.5"/>
<text text-anchor="middle" x="1433.5" y="-7.5" font-family="Helvetica,sans-Serif" font-size="10.00">NCLS3P.cpp</text>
</a>
</g>
</g>
<!-- Node31&#45;&gt;Node32 -->
<g id="edge31" class="edge">
<title>Node31&#45;&gt;Node32</title>
<path fill="none" stroke="midnightblue" d="M1397.18,-48.72C1406.34,-39.2 1417.55,-27.56 1425.07,-19.75"/>
<polygon fill="midnightblue" stroke="midnightblue" points="1394.5,-46.45 1390.09,-56.08 1399.54,-51.31 1394.5,-46.45"/>
</g>
<!-- Node34 -->
<g id="node34" class="node">
<title>Node34</title>
<g id="a_node34"><a xlink:href="_pres_8cpp.html" target="_top" xlink:title=" ">
<polygon fill="white" stroke="black" points="1488.5,-0.5 1488.5,-19.5 1544.5,-19.5 1544.5,-0.5 1488.5,-0.5"/>
<text text-anchor="middle" x="1516.5" y="-7.5" font-family="Helvetica,sans-Serif" font-size="10.00">Pres.cpp</text>
</a>
</g>
</g>
<!-- Node33&#45;&gt;Node34 -->
<g id="edge33" class="edge">
<title>Node33&#45;&gt;Node34</title>
<path fill="none" stroke="midnightblue" d="M1471.54,-49.54C1482.77,-39.91 1496.82,-27.87 1506.19,-19.83"/>
<polygon fill="midnightblue" stroke="midnightblue" points="1468.94,-47.16 1463.62,-56.32 1473.49,-52.47 1468.94,-47.16"/>
</g>
</g>
</svg>
