<?xml version="1.0" encoding="UTF-8" standalone="no"?>
<!DOCTYPE svg PUBLIC "-//W3C//DTD SVG 1.1//EN"
 "http://www.w3.org/Graphics/SVG/1.1/DTD/svg11.dtd">
<!-- Generated by graphviz version 2.40.1 (20161225.0304)
 -->
<!-- Title: ArgumentsDict.h Pages: 1 -->
<svg width="2857pt" height="140pt"
 viewBox="0.00 0.00 2856.50 140.00" xmlns="http://www.w3.org/2000/svg" xmlns:xlink="http://www.w3.org/1999/xlink">
<g id="graph0" class="graph" transform="scale(1 1) rotate(0) translate(4 136)">
<title>ArgumentsDict.h</title>
<polygon fill="#ffffff" stroke="transparent" points="-4,4 -4,-136 2852.5,-136 2852.5,4 -4,4"/>
<!-- Node6 -->
<g id="node1" class="node">
<title>Node6</title>
<polygon fill="#bfbfbf" stroke="#000000" points="1417.5,-112.5 1417.5,-131.5 1507.5,-131.5 1507.5,-112.5 1417.5,-112.5"/>
<text text-anchor="middle" x="1462.5" y="-119.5" font-family="Helvetica,sans-Serif" font-size="10.00" fill="#000000">ArgumentsDict.h</text>
</g>
<!-- Node7 -->
<g id="node2" class="node">
<title>Node7</title>
<g id="a_node2"><a xlink:href="_a_d_r_8h.html" target="_top" xlink:title="ADR.h">
<polygon fill="#ffffff" stroke="#000000" points="12,-56.5 12,-75.5 59,-75.5 59,-56.5 12,-56.5"/>
<text text-anchor="middle" x="35.5" y="-63.5" font-family="Helvetica,sans-Serif" font-size="10.00" fill="#000000">ADR.h</text>
</a>
</g>
</g>
<!-- Node6&#45;&gt;Node7 -->
<g id="edge1" class="edge">
<title>Node6&#45;&gt;Node7</title>
<path fill="none" stroke="#191970" d="M1407.2308,-121.8222C1182.6126,-120.8444 337.5905,-114.6216 73.5,-76 68.775,-75.309 63.7928,-74.2482 59.0473,-73.0715"/>
<polygon fill="#191970" stroke="#191970" points="1407.4386,-125.323 1417.4532,-121.8649 1407.4679,-118.3231 1407.4386,-125.323"/>
</g>
<!-- Node9 -->
<g id="node4" class="node">
<title>Node9</title>
<g id="a_node4"><a xlink:href="_elasto_plastic_8h.html" target="_top" xlink:title="ElastoPlastic.h">
<polygon fill="#ffffff" stroke="#000000" points="83,-56.5 83,-75.5 166,-75.5 166,-56.5 83,-56.5"/>
<text text-anchor="middle" x="124.5" y="-63.5" font-family="Helvetica,sans-Serif" font-size="10.00" fill="#000000">ElastoPlastic.h</text>
</a>
</g>
</g>
<!-- Node6&#45;&gt;Node9 -->
<g id="edge3" class="edge">
<title>Node6&#45;&gt;Node9</title>
<path fill="none" stroke="#191970" d="M1407.1003,-121.215C1192.8941,-117.9944 418.7101,-104.5916 174.5,-76 171.7744,-75.6809 168.9756,-75.2924 166.1615,-74.8561"/>
<polygon fill="#191970" stroke="#191970" points="1407.1181,-124.7155 1417.1692,-121.365 1407.2225,-117.7163 1407.1181,-124.7155"/>
</g>
<!-- Node11 -->
<g id="node6" class="node">
<title>Node11</title>
<g id="a_node6"><a xlink:href="_added_mass_8h.html" target="_top" xlink:title="AddedMass.h">
<polygon fill="#ffffff" stroke="#000000" points="184,-56.5 184,-75.5 261,-75.5 261,-56.5 184,-56.5"/>
<text text-anchor="middle" x="222.5" y="-63.5" font-family="Helvetica,sans-Serif" font-size="10.00" fill="#000000">AddedMass.h</text>
</a>
</g>
</g>
<!-- Node6&#45;&gt;Node11 -->
<g id="edge5" class="edge">
<title>Node6&#45;&gt;Node11</title>
<path fill="none" stroke="#191970" d="M1407.1892,-121.1242C1203.3065,-117.7002 494.0275,-104.0054 269.5,-76 266.7682,-75.6593 263.9597,-75.2402 261.1396,-74.7687"/>
<polygon fill="#191970" stroke="#191970" points="1407.3034,-124.6265 1417.3603,-121.2935 1407.42,-117.6275 1407.3034,-124.6265"/>
</g>
<!-- Node13 -->
<g id="node8" class="node">
<title>Node13</title>
<g id="a_node8"><a xlink:href="_arguments_dict_8cpp.html" target="_top" xlink:title="ArgumentsDict.cpp">
<polygon fill="#ffffff" stroke="#000000" points="279,-56.5 279,-75.5 380,-75.5 380,-56.5 279,-56.5"/>
<text text-anchor="middle" x="329.5" y="-63.5" font-family="Helvetica,sans-Serif" font-size="10.00" fill="#000000">ArgumentsDict.cpp</text>
</a>
</g>
</g>
<!-- Node6&#45;&gt;Node13 -->
<g id="edge7" class="edge">
<title>Node6&#45;&gt;Node13</title>
<path fill="none" stroke="#191970" d="M1407.4291,-120.5535C1217.3066,-115.4171 589.1935,-97.2217 388.5,-76 385.8138,-75.716 383.0647,-75.3865 380.2931,-75.0237"/>
<polygon fill="#191970" stroke="#191970" points="1407.3825,-124.0535 1417.473,-120.8237 1407.5708,-117.056 1407.3825,-124.0535"/>
</g>
<!-- Node14 -->
<g id="node9" class="node">
<title>Node14</title>
<g id="a_node9"><a xlink:href="_c_l_s_v_o_f_8h.html" target="_top" xlink:title="CLSVOF.h">
<polygon fill="#ffffff" stroke="#000000" points="398,-56.5 398,-75.5 463,-75.5 463,-56.5 398,-56.5"/>
<text text-anchor="middle" x="430.5" y="-63.5" font-family="Helvetica,sans-Serif" font-size="10.00" fill="#000000">CLSVOF.h</text>
</a>
</g>
</g>
<!-- Node6&#45;&gt;Node14 -->
<g id="edge8" class="edge">
<title>Node6&#45;&gt;Node14</title>
<path fill="none" stroke="#191970" d="M1407.1944,-120.7945C1226.5797,-116.6435 655.1945,-101.7619 472.5,-76 469.5312,-75.5814 466.4647,-75.0494 463.4036,-74.4498"/>
<polygon fill="#191970" stroke="#191970" points="1407.1883,-124.2952 1417.2655,-121.0242 1407.3479,-117.297 1407.1883,-124.2952"/>
</g>
<!-- Node16 -->
<g id="node11" class="node">
<title>Node16</title>
<g id="a_node11"><a xlink:href="_dissipation_8h.html" target="_top" xlink:title="Dissipation.h">
<polygon fill="#ffffff" stroke="#000000" points="481.5,-56.5 481.5,-75.5 555.5,-75.5 555.5,-56.5 481.5,-56.5"/>
<text text-anchor="middle" x="518.5" y="-63.5" font-family="Helvetica,sans-Serif" font-size="10.00" fill="#000000">Dissipation.h</text>
</a>
</g>
</g>
<!-- Node6&#45;&gt;Node16 -->
<g id="edge10" class="edge">
<title>Node6&#45;&gt;Node16</title>
<path fill="none" stroke="#191970" d="M1407.3023,-120.3522C1238.1851,-115.1174 728.7565,-97.9124 564.5,-76 561.5837,-75.611 558.5779,-75.1336 555.5655,-74.6004"/>
<polygon fill="#191970" stroke="#191970" points="1407.368,-123.8558 1417.4709,-120.6652 1407.5834,-116.8591 1407.368,-123.8558"/>
</g>
<!-- Node18 -->
<g id="node13" class="node">
<title>Node18</title>
<g id="a_node13"><a xlink:href="_dissipation2_d_8h.html" target="_top" xlink:title="Dissipation2D.h">
<polygon fill="#ffffff" stroke="#000000" points="573.5,-56.5 573.5,-75.5 659.5,-75.5 659.5,-56.5 573.5,-56.5"/>
<text text-anchor="middle" x="616.5" y="-63.5" font-family="Helvetica,sans-Serif" font-size="10.00" fill="#000000">Dissipation2D.h</text>
</a>
</g>
</g>
<!-- Node6&#45;&gt;Node18 -->
<g id="edge12" class="edge">
<title>Node6&#45;&gt;Node18</title>
<path fill="none" stroke="#191970" d="M1407.0152,-121.3029C1277.3049,-119.125 944.3181,-110.3579 668.5,-76 665.5807,-75.6364 662.5788,-75.2074 659.5604,-74.7351"/>
<polygon fill="#191970" stroke="#191970" points="1407.0457,-124.8038 1417.1009,-121.4657 1407.1587,-117.8047 1407.0457,-124.8038"/>
</g>
<!-- Node20 -->
<g id="node15" class="node">
<title>Node20</title>
<g id="a_node15"><a xlink:href="_g_n___s_w2_d_c_v_8h.html" target="_top" xlink:title="GN_SW2DCV.h">
<polygon fill="#ffffff" stroke="#000000" points="678,-56.5 678,-75.5 767,-75.5 767,-56.5 678,-56.5"/>
<text text-anchor="middle" x="722.5" y="-63.5" font-family="Helvetica,sans-Serif" font-size="10.00" fill="#000000">GN_SW2DCV.h</text>
</a>
</g>
</g>
<!-- Node6&#45;&gt;Node20 -->
<g id="edge14" class="edge">
<title>Node6&#45;&gt;Node20</title>
<path fill="none" stroke="#191970" d="M1407.1661,-120.5398C1290.1532,-116.9592 1009.1654,-105.7583 775.5,-76 772.8063,-75.6569 770.0427,-75.2633 767.2597,-74.8349"/>
<polygon fill="#191970" stroke="#191970" points="1407.2067,-124.0424 1417.307,-120.8434 1407.4162,-117.0456 1407.2067,-124.0424"/>
</g>
<!-- Node22 -->
<g id="node17" class="node">
<title>Node22</title>
<g id="a_node17"><a xlink:href="_kappa_8h.html" target="_top" xlink:title="Kappa.h">
<polygon fill="#ffffff" stroke="#000000" points="785,-56.5 785,-75.5 838,-75.5 838,-56.5 785,-56.5"/>
<text text-anchor="middle" x="811.5" y="-63.5" font-family="Helvetica,sans-Serif" font-size="10.00" fill="#000000">Kappa.h</text>
</a>
</g>
</g>
<!-- Node6&#45;&gt;Node22 -->
<g id="edge16" class="edge">
<title>Node6&#45;&gt;Node22</title>
<path fill="none" stroke="#191970" d="M1407.0706,-119.311C1276.6644,-112.7503 953.4056,-95.0582 846.5,-76 843.7626,-75.512 840.9322,-74.8963 838.1217,-74.2113"/>
<polygon fill="#191970" stroke="#191970" points="1407.0705,-122.8153 1417.2329,-119.8194 1407.4203,-115.8241 1407.0705,-122.8153"/>
</g>
<!-- Node24 -->
<g id="node19" class="node">
<title>Node24</title>
<g id="a_node19"><a xlink:href="_kappa2_d_8h.html" target="_top" xlink:title="Kappa2D.h">
<polygon fill="#ffffff" stroke="#000000" points="856,-56.5 856,-75.5 921,-75.5 921,-56.5 856,-56.5"/>
<text text-anchor="middle" x="888.5" y="-63.5" font-family="Helvetica,sans-Serif" font-size="10.00" fill="#000000">Kappa2D.h</text>
</a>
</g>
</g>
<!-- Node6&#45;&gt;Node24 -->
<g id="edge18" class="edge">
<title>Node6&#45;&gt;Node24</title>
<path fill="none" stroke="#191970" d="M1407.2239,-119.9076C1310.1945,-115.6376 1103.1345,-103.8592 930.5,-76 927.5401,-75.5223 924.4798,-74.9498 921.4227,-74.3237"/>
<polygon fill="#191970" stroke="#191970" points="1407.2439,-123.4116 1417.3851,-120.3449 1407.5449,-116.4181 1407.2439,-123.4116"/>
</g>
<!-- Node26 -->
<g id="node21" class="node">
<title>Node26</title>
<g id="a_node21"><a xlink:href="_m_corr_8h.html" target="_top" xlink:title="MCorr.h">
<polygon fill="#ffffff" stroke="#000000" points="939.5,-56.5 939.5,-75.5 991.5,-75.5 991.5,-56.5 939.5,-56.5"/>
<text text-anchor="middle" x="965.5" y="-63.5" font-family="Helvetica,sans-Serif" font-size="10.00" fill="#000000">MCorr.h</text>
</a>
</g>
</g>
<!-- Node6&#45;&gt;Node26 -->
<g id="edge20" class="edge">
<title>Node6&#45;&gt;Node26</title>
<path fill="none" stroke="#191970" d="M1406.9949,-119.6855C1319.7812,-115.3301 1145.6233,-103.725 1000.5,-76 997.6447,-75.4545 994.6854,-74.7822 991.7517,-74.0462"/>
<polygon fill="#191970" stroke="#191970" points="1407.0337,-123.1914 1417.1919,-120.1813 1407.3737,-116.1997 1407.0337,-123.1914"/>
</g>
<!-- Node28 -->
<g id="node23" class="node">
<title>Node28</title>
<g id="a_node23"><a xlink:href="_m_corr3_p_8h.html" target="_top" xlink:title="MCorr3P.h">
<polygon fill="#ffffff" stroke="#000000" points="1009.5,-56.5 1009.5,-75.5 1073.5,-75.5 1073.5,-56.5 1009.5,-56.5"/>
<text text-anchor="middle" x="1041.5" y="-63.5" font-family="Helvetica,sans-Serif" font-size="10.00" fill="#000000">MCorr3P.h</text>
</a>
</g>
</g>
<!-- Node6&#45;&gt;Node28 -->
<g id="edge22" class="edge">
<title>Node6&#45;&gt;Node28</title>
<path fill="none" stroke="#191970" d="M1407.4396,-117.4032C1333.2476,-110.7385 1197.2425,-96.8617 1082.5,-76 1079.6166,-75.4758 1076.6333,-74.8712 1073.6516,-74.2242"/>
<polygon fill="#191970" stroke="#191970" points="1407.2191,-120.8973 1417.4896,-118.2957 1407.8384,-113.9247 1407.2191,-120.8973"/>
</g>
<!-- Node30 -->
<g id="node25" class="node">
<title>Node30</title>
<g id="a_node25"><a xlink:href="_move_mesh_8h.html" target="_top" xlink:title="MoveMesh.h">
<polygon fill="#ffffff" stroke="#000000" points="1092,-56.5 1092,-75.5 1165,-75.5 1165,-56.5 1092,-56.5"/>
<text text-anchor="middle" x="1128.5" y="-63.5" font-family="Helvetica,sans-Serif" font-size="10.00" fill="#000000">MoveMesh.h</text>
</a>
</g>
</g>
<!-- Node6&#45;&gt;Node30 -->
<g id="edge24" class="edge">
<title>Node6&#45;&gt;Node30</title>
<path fill="none" stroke="#191970" d="M1407.4073,-114.132C1349.3259,-105.6196 1255.2368,-91.2113 1174.5,-76 1171.4481,-75.425 1168.2887,-74.8004 1165.1209,-74.1535"/>
<polygon fill="#191970" stroke="#191970" points="1407.0684,-117.6196 1417.469,-115.6005 1408.0793,-110.6929 1407.0684,-117.6196"/>
</g>
<!-- Node32 -->
<g id="node27" class="node">
<title>Node32</title>
<g id="a_node27"><a xlink:href="_move_mesh2_d_8h.html" target="_top" xlink:title="MoveMesh2D.h">
<polygon fill="#ffffff" stroke="#000000" points="1183.5,-56.5 1183.5,-75.5 1269.5,-75.5 1269.5,-56.5 1183.5,-56.5"/>
<text text-anchor="middle" x="1226.5" y="-63.5" font-family="Helvetica,sans-Serif" font-size="10.00" fill="#000000">MoveMesh2D.h</text>
</a>
</g>
</g>
<!-- Node6&#45;&gt;Node32 -->
<g id="edge26" class="edge">
<title>Node6&#45;&gt;Node32</title>
<path fill="none" stroke="#191970" d="M1412.4026,-110.1125C1368.9516,-99.8021 1306.8802,-85.0733 1266.6355,-75.5237"/>
<polygon fill="#191970" stroke="#191970" points="1411.6604,-113.5335 1422.1983,-112.4369 1413.2766,-106.7226 1411.6604,-113.5335"/>
</g>
<!-- Node34 -->
<g id="node29" class="node">
<title>Node34</title>
<g id="a_node29"><a xlink:href="_n_c_l_s_8h.html" target="_top" xlink:title="NCLS.h">
<polygon fill="#ffffff" stroke="#000000" points="1287.5,-56.5 1287.5,-75.5 1339.5,-75.5 1339.5,-56.5 1287.5,-56.5"/>
<text text-anchor="middle" x="1313.5" y="-63.5" font-family="Helvetica,sans-Serif" font-size="10.00" fill="#000000">NCLS.h</text>
</a>
</g>
</g>
<!-- Node6&#45;&gt;Node34 -->
<g id="edge28" class="edge">
<title>Node6&#45;&gt;Node34</title>
<path fill="none" stroke="#191970" d="M1427.3488,-108.7888C1400.1432,-98.5639 1363.1191,-84.6488 1338.7798,-75.5011"/>
<polygon fill="#191970" stroke="#191970" points="1426.2939,-112.1313 1436.886,-112.3733 1428.7566,-105.5788 1426.2939,-112.1313"/>
</g>
<!-- Node36 -->
<g id="node31" class="node">
<title>Node36</title>
<g id="a_node31"><a xlink:href="_n_c_l_s3_p_8h.html" target="_top" xlink:title="NCLS3P.h">
<polygon fill="#ffffff" stroke="#000000" points="1357.5,-56.5 1357.5,-75.5 1421.5,-75.5 1421.5,-56.5 1357.5,-56.5"/>
<text text-anchor="middle" x="1389.5" y="-63.5" font-family="Helvetica,sans-Serif" font-size="10.00" fill="#000000">NCLS3P.h</text>
</a>
</g>
</g>
<!-- Node6&#45;&gt;Node36 -->
<g id="edge30" class="edge">
<title>Node6&#45;&gt;Node36</title>
<path fill="none" stroke="#191970" d="M1441.549,-105.928C1428.7893,-96.1397 1412.9115,-83.9595 1402.0699,-75.6427"/>
<polygon fill="#191970" stroke="#191970" points="1439.7197,-108.9359 1449.7844,-112.2455 1443.9804,-103.3819 1439.7197,-108.9359"/>
</g>
<!-- Node38 -->
<g id="node33" class="node">
<title>Node38</title>
<g id="a_node33"><a xlink:href="_pres_8h.html" target="_top" xlink:title="Pres.h">
<polygon fill="#ffffff" stroke="#000000" points="1440,-56.5 1440,-75.5 1485,-75.5 1485,-56.5 1440,-56.5"/>
<text text-anchor="middle" x="1462.5" y="-63.5" font-family="Helvetica,sans-Serif" font-size="10.00" fill="#000000">Pres.h</text>
</a>
</g>
</g>
<!-- Node6&#45;&gt;Node38 -->
<g id="edge32" class="edge">
<title>Node6&#45;&gt;Node38</title>
<path fill="none" stroke="#191970" d="M1462.5,-102.1575C1462.5,-93.155 1462.5,-82.9199 1462.5,-75.6427"/>
<polygon fill="#191970" stroke="#191970" points="1459.0001,-102.2455 1462.5,-112.2455 1466.0001,-102.2456 1459.0001,-102.2455"/>
</g>
<!-- Node40 -->
<g id="node35" class="node">
<title>Node40</title>
<g id="a_node35"><a xlink:href="_pres_inc_8h.html" target="_top" xlink:title="PresInc.h">
<polygon fill="#ffffff" stroke="#ff0000" points="1503,-56.5 1503,-75.5 1562,-75.5 1562,-56.5 1503,-56.5"/>
<text text-anchor="middle" x="1532.5" y="-63.5" font-family="Helvetica,sans-Serif" font-size="10.00" fill="#000000">PresInc.h</text>
</a>
</g>
</g>
<!-- Node6&#45;&gt;Node40 -->
<g id="edge34" class="edge">
<title>Node6&#45;&gt;Node40</title>
<path fill="none" stroke="#191970" d="M1482.59,-105.928C1494.8253,-96.1397 1510.0507,-83.9595 1520.4467,-75.6427"/>
<polygon fill="#191970" stroke="#191970" points="1480.3153,-103.2655 1474.6931,-112.2455 1484.6882,-108.7316 1480.3153,-103.2655"/>
</g>
<!-- Node42 -->
<g id="node36" class="node">
<title>Node42</title>
<g id="a_node36"><a xlink:href="_pres_init_8h.html" target="_top" xlink:title="PresInit.h">
<polygon fill="#ffffff" stroke="#ff0000" points="1580,-56.5 1580,-75.5 1639,-75.5 1639,-56.5 1580,-56.5"/>
<text text-anchor="middle" x="1609.5" y="-63.5" font-family="Helvetica,sans-Serif" font-size="10.00" fill="#000000">PresInit.h</text>
</a>
</g>
</g>
<!-- Node6&#45;&gt;Node42 -->
<g id="edge35" class="edge">
<title>Node6&#45;&gt;Node42</title>
<path fill="none" stroke="#191970" d="M1497.1794,-108.7888C1524.0198,-98.5639 1560.547,-84.6488 1584.5596,-75.5011"/>
<polygon fill="#191970" stroke="#191970" points="1495.8691,-105.5425 1487.7702,-112.3733 1498.3611,-112.0839 1495.8691,-105.5425"/>
</g>
<!-- Node44 -->
<g id="node37" class="node">
<title>Node44</title>
<g id="a_node37"><a xlink:href="_r_a_n_s2_p_8h.html" target="_top" xlink:title="RANS2P.h">
<polygon fill="#ffffff" stroke="#ff0000" points="1657,-56.5 1657,-75.5 1722,-75.5 1722,-56.5 1657,-56.5"/>
<text text-anchor="middle" x="1689.5" y="-63.5" font-family="Helvetica,sans-Serif" font-size="10.00" fill="#000000">RANS2P.h</text>
</a>
</g>
</g>
<!-- Node6&#45;&gt;Node44 -->
<g id="edge36" class="edge">
<title>Node6&#45;&gt;Node44</title>
<path fill="none" stroke="#191970" d="M1511.1612,-109.9955C1555.1228,-99.1503 1618.612,-83.4878 1656.7867,-74.0702"/>
<polygon fill="#191970" stroke="#191970" points="1510.1354,-106.6435 1501.2648,-112.4369 1511.812,-113.4398 1510.1354,-106.6435"/>
</g>
<!-- Node46 -->
<g id="node38" class="node">
<title>Node46</title>
<g id="a_node38"><a xlink:href="_r_a_n_s2_p2_d_8h.html" target="_top" xlink:title="RANS2P2D.h">
<polygon fill="#ffffff" stroke="#ff0000" points="1740.5,-56.5 1740.5,-75.5 1818.5,-75.5 1818.5,-56.5 1740.5,-56.5"/>
<text text-anchor="middle" x="1779.5" y="-63.5" font-family="Helvetica,sans-Serif" font-size="10.00" fill="#000000">RANS2P2D.h</text>
</a>
</g>
</g>
<!-- Node6&#45;&gt;Node46 -->
<g id="edge37" class="edge">
<title>Node6&#45;&gt;Node46</title>
<path fill="none" stroke="#191970" d="M1517.9381,-113.1188C1572.4001,-104.2529 1657.8124,-89.9715 1731.5,-76 1734.4271,-75.445 1737.4511,-74.8548 1740.4907,-74.2495"/>
<polygon fill="#191970" stroke="#191970" points="1517.115,-109.7065 1507.8052,-114.764 1518.2368,-116.6161 1517.115,-109.7065"/>
</g>
<!-- Node48 -->
<g id="node39" class="node">
<title>Node48</title>
<g id="a_node39"><a xlink:href="_r_a_n_s2_p___i_b_8h.html" target="_top" xlink:title="RANS2P_IB.h">
<polygon fill="#ffffff" stroke="#ff0000" points="1836.5,-56.5 1836.5,-75.5 1916.5,-75.5 1916.5,-56.5 1836.5,-56.5"/>
<text text-anchor="middle" x="1876.5" y="-63.5" font-family="Helvetica,sans-Serif" font-size="10.00" fill="#000000">RANS2P_IB.h</text>
</a>
</g>
</g>
<!-- Node6&#45;&gt;Node48 -->
<g id="edge38" class="edge">
<title>Node6&#45;&gt;Node48</title>
<path fill="none" stroke="#191970" d="M1517.7618,-116.3574C1589.4213,-108.7381 1718.1814,-94.0168 1827.5,-76 1830.4127,-75.52 1833.416,-74.991 1836.4345,-74.4347"/>
<polygon fill="#191970" stroke="#191970" points="1517.1894,-112.8983 1507.6125,-117.4296 1517.9249,-119.8596 1517.1894,-112.8983"/>
</g>
<!-- Node50 -->
<g id="node40" class="node">
<title>Node50</title>
<g id="a_node40"><a xlink:href="_r_a_n_s3_p_f_8h.html" target="_top" xlink:title="RANS3PF.h">
<polygon fill="#ffffff" stroke="#ff0000" points="1935,-56.5 1935,-75.5 2006,-75.5 2006,-56.5 1935,-56.5"/>
<text text-anchor="middle" x="1970.5" y="-63.5" font-family="Helvetica,sans-Serif" font-size="10.00" fill="#000000">RANS3PF.h</text>
</a>
</g>
</g>
<!-- Node6&#45;&gt;Node50 -->
<g id="edge39" class="edge">
<title>Node6&#45;&gt;Node50</title>
<path fill="none" stroke="#191970" d="M1517.9406,-118.6442C1605.0943,-112.8855 1779.2996,-99.421 1925.5,-76 1928.5029,-75.5189 1931.6058,-74.9604 1934.7129,-74.3579"/>
<polygon fill="#191970" stroke="#191970" points="1517.5025,-115.1652 1507.7514,-119.3084 1517.9579,-122.1504 1517.5025,-115.1652"/>
</g>
<!-- Node52 -->
<g id="node41" class="node">
<title>Node52</title>
<g id="a_node41"><a xlink:href="_r_a_n_s3_p_f2_d_8h.html" target="_top" xlink:title="RANS3PF2D.h">
<polygon fill="#ffffff" stroke="#ff0000" points="2024.5,-56.5 2024.5,-75.5 2108.5,-75.5 2108.5,-56.5 2024.5,-56.5"/>
<text text-anchor="middle" x="2066.5" y="-63.5" font-family="Helvetica,sans-Serif" font-size="10.00" fill="#000000">RANS3PF2D.h</text>
</a>
</g>
</g>
<!-- Node6&#45;&gt;Node52 -->
<g id="edge40" class="edge">
<title>Node6&#45;&gt;Node52</title>
<path fill="none" stroke="#191970" d="M1518.0072,-119.4186C1617.8974,-114.3209 1834.4111,-101.2068 2015.5,-76 2018.3597,-75.6019 2021.3014,-75.1471 2024.2598,-74.656"/>
<polygon fill="#191970" stroke="#191970" points="1517.6584,-115.9317 1507.847,-119.9299 1518.0103,-122.9228 1517.6584,-115.9317"/>
</g>
<!-- Node54 -->
<g id="node42" class="node">
<title>Node54</title>
<g id="a_node42"><a xlink:href="_r_a_n_s3_p_sed_8h.html" target="_top" xlink:title="RANS3PSed.h">
<polygon fill="#ffffff" stroke="#ff0000" points="2127,-56.5 2127,-75.5 2210,-75.5 2210,-56.5 2127,-56.5"/>
<text text-anchor="middle" x="2168.5" y="-63.5" font-family="Helvetica,sans-Serif" font-size="10.00" fill="#000000">RANS3PSed.h</text>
</a>
</g>
</g>
<!-- Node6&#45;&gt;Node54 -->
<g id="edge41" class="edge">
<title>Node6&#45;&gt;Node54</title>
<path fill="none" stroke="#191970" d="M1517.6926,-120.4249C1630.6988,-116.6938 1896.4131,-105.3244 2117.5,-76 2120.5411,-75.5966 2123.674,-75.124 2126.8207,-74.6077"/>
<polygon fill="#191970" stroke="#191970" points="1517.4431,-116.931 1507.5614,-120.7523 1517.6693,-123.9274 1517.4431,-116.931"/>
</g>
<!-- Node56 -->
<g id="node43" class="node">
<title>Node56</title>
<g id="a_node43"><a xlink:href="_r_a_n_s3_p_sed2_d_8h.html" target="_top" xlink:title="RANS3PSed2D.h">
<polygon fill="#ffffff" stroke="#ff0000" points="2228,-56.5 2228,-75.5 2323,-75.5 2323,-56.5 2228,-56.5"/>
<text text-anchor="middle" x="2275.5" y="-63.5" font-family="Helvetica,sans-Serif" font-size="10.00" fill="#000000">RANS3PSed2D.h</text>
</a>
</g>
</g>
<!-- Node6&#45;&gt;Node56 -->
<g id="edge42" class="edge">
<title>Node6&#45;&gt;Node56</title>
<path fill="none" stroke="#191970" d="M1518.0106,-120.8306C1643.442,-117.7067 1958.1767,-107.1656 2219.5,-76 2222.2458,-75.6725 2225.0609,-75.2971 2227.8973,-74.888"/>
<polygon fill="#191970" stroke="#191970" points="1517.7982,-117.3346 1507.8863,-121.0767 1517.9684,-124.3325 1517.7982,-117.3346"/>
</g>
<!-- Node58 -->
<g id="node44" class="node">
<title>Node58</title>
<g id="a_node44"><a xlink:href="_r_d_l_s_8h.html" target="_top" xlink:title="RDLS.h">
<polygon fill="#ffffff" stroke="#ff0000" points="2341.5,-56.5 2341.5,-75.5 2393.5,-75.5 2393.5,-56.5 2341.5,-56.5"/>
<text text-anchor="middle" x="2367.5" y="-63.5" font-family="Helvetica,sans-Serif" font-size="10.00" fill="#000000">RDLS.h</text>
</a>
</g>
</g>
<!-- Node6&#45;&gt;Node58 -->
<g id="edge43" class="edge">
<title>Node6&#45;&gt;Node58</title>
<path fill="none" stroke="#191970" d="M1517.9672,-120.7019C1683.9107,-116.5598 2174.7512,-102.3585 2332.5,-76 2335.3672,-75.5209 2338.3341,-74.8911 2341.2723,-74.1802"/>
<polygon fill="#191970" stroke="#191970" points="1517.4241,-117.2141 1507.5137,-120.9602 1517.5971,-124.212 1517.4241,-117.2141"/>
</g>
<!-- Node60 -->
<g id="node45" class="node">
<title>Node60</title>
<g id="a_node45"><a xlink:href="_s_w2_d_8h.html" target="_top" xlink:title="SW2D.h">
<polygon fill="#ffffff" stroke="#ff0000" points="2411.5,-56.5 2411.5,-75.5 2465.5,-75.5 2465.5,-56.5 2411.5,-56.5"/>
<text text-anchor="middle" x="2438.5" y="-63.5" font-family="Helvetica,sans-Serif" font-size="10.00" fill="#000000">SW2D.h</text>
</a>
</g>
</g>
<!-- Node6&#45;&gt;Node60 -->
<g id="edge44" class="edge">
<title>Node6&#45;&gt;Node60</title>
<path fill="none" stroke="#191970" d="M1517.9513,-120.9019C1692.6977,-117.1872 2230.494,-103.7445 2402.5,-76 2405.3177,-75.5455 2408.2303,-74.9518 2411.1219,-74.2803"/>
<polygon fill="#191970" stroke="#191970" points="1517.6268,-117.4079 1507.7026,-121.1175 1517.774,-124.4063 1517.6268,-117.4079"/>
</g>
<!-- Node62 -->
<g id="node46" class="node">
<title>Node62</title>
<g id="a_node46"><a xlink:href="_s_w2_d_c_v_8h.html" target="_top" xlink:title="SW2DCV.h">
<polygon fill="#ffffff" stroke="#ff0000" points="2483.5,-56.5 2483.5,-75.5 2551.5,-75.5 2551.5,-56.5 2483.5,-56.5"/>
<text text-anchor="middle" x="2517.5" y="-63.5" font-family="Helvetica,sans-Serif" font-size="10.00" fill="#000000">SW2DCV.h</text>
</a>
</g>
</g>
<!-- Node6&#45;&gt;Node62 -->
<g id="edge45" class="edge">
<title>Node6&#45;&gt;Node62</title>
<path fill="none" stroke="#191970" d="M1517.7685,-120.8219C1700.9659,-116.7073 2287.2456,-101.8079 2474.5,-76 2477.3852,-75.6023 2480.3614,-75.1024 2483.3378,-74.5393"/>
<polygon fill="#191970" stroke="#191970" points="1517.4806,-117.3273 1507.5611,-121.0493 1517.6366,-124.3256 1517.4806,-117.3273"/>
</g>
<!-- Node64 -->
<g id="node47" class="node">
<title>Node64</title>
<g id="a_node47"><a xlink:href="_v_o_f_8h.html" target="_top" xlink:title="VOF.h">
<polygon fill="#ffffff" stroke="#ff0000" points="2570,-56.5 2570,-75.5 2615,-75.5 2615,-56.5 2570,-56.5"/>
<text text-anchor="middle" x="2592.5" y="-63.5" font-family="Helvetica,sans-Serif" font-size="10.00" fill="#000000">VOF.h</text>
</a>
</g>
</g>
<!-- Node6&#45;&gt;Node64 -->
<g id="edge46" class="edge">
<title>Node6&#45;&gt;Node64</title>
<path fill="none" stroke="#191970" d="M1517.9491,-121.5861C1711.5767,-119.8427 2356.8976,-111.4483 2560.5,-76 2563.5965,-75.4609 2566.8105,-74.7043 2569.9546,-73.8459"/>
<polygon fill="#191970" stroke="#191970" points="1517.6948,-118.0881 1507.7259,-121.6757 1517.7562,-125.0878 1517.6948,-118.0881"/>
</g>
<!-- Node66 -->
<g id="node48" class="node">
<title>Node66</title>
<g id="a_node48"><a xlink:href="_v_o_f3_p_8h.html" target="_top" xlink:title="VOF3P.h">
<polygon fill="#ffffff" stroke="#ff0000" points="2633,-56.5 2633,-75.5 2690,-75.5 2690,-56.5 2633,-56.5"/>
<text text-anchor="middle" x="2661.5" y="-63.5" font-family="Helvetica,sans-Serif" font-size="10.00" fill="#000000">VOF3P.h</text>
</a>
</g>
</g>
<!-- Node6&#45;&gt;Node66 -->
<g id="edge47" class="edge">
<title>Node6&#45;&gt;Node66</title>
<path fill="none" stroke="#191970" d="M1517.7773,-121.4544C1718.313,-119.2195 2407.1271,-109.2452 2624.5,-76 2627.2626,-75.5775 2630.1146,-75.0244 2632.9524,-74.3951"/>
<polygon fill="#191970" stroke="#191970" points="1517.7261,-117.9547 1507.765,-121.5641 1517.8028,-124.9543 1517.7261,-117.9547"/>
</g>
<!-- Node68 -->
<g id="node49" class="node">
<title>Node68</title>
<g id="a_node49"><a xlink:href="_v_o_s3_p_8h.html" target="_top" xlink:title="VOS3P.h">
<polygon fill="#ffffff" stroke="#ff0000" points="2708.5,-56.5 2708.5,-75.5 2766.5,-75.5 2766.5,-56.5 2708.5,-56.5"/>
<text text-anchor="middle" x="2737.5" y="-63.5" font-family="Helvetica,sans-Serif" font-size="10.00" fill="#000000">VOS3P.h</text>
</a>
</g>
</g>
<!-- Node6&#45;&gt;Node68 -->
<g id="edge48" class="edge">
<title>Node6&#45;&gt;Node68</title>
<path fill="none" stroke="#191970" d="M1517.8145,-121.56C1726.5924,-119.6483 2466.6698,-110.5334 2699.5,-76 2702.3342,-75.5796 2705.2612,-75.028 2708.1743,-74.3996"/>
<polygon fill="#191970" stroke="#191970" points="1517.6682,-118.0611 1507.7,-121.6508 1517.7311,-125.0608 1517.6682,-118.0611"/>
</g>
<!-- Node70 -->
<g id="node50" class="node">
<title>Node70</title>
<g id="a_node50"><a xlink:href="_richards_8h.html" target="_top" xlink:title="Richards.h">
<polygon fill="#ffffff" stroke="#ff0000" points="2784.5,-56.5 2784.5,-75.5 2848.5,-75.5 2848.5,-56.5 2784.5,-56.5"/>
<text text-anchor="middle" x="2816.5" y="-63.5" font-family="Helvetica,sans-Serif" font-size="10.00" fill="#000000">Richards.h</text>
</a>
</g>
</g>
<!-- Node6&#45;&gt;Node70 -->
<g id="edge49" class="edge">
<title>Node6&#45;&gt;Node70</title>
<path fill="none" stroke="#191970" d="M1517.9189,-121.5654C1734.8724,-119.6305 2526.7914,-110.3197 2775.5,-76 2778.4032,-75.5994 2781.4001,-75.0798 2784.3906,-74.4883"/>
<polygon fill="#191970" stroke="#191970" points="1517.6962,-118.0671 1507.7272,-121.6546 1517.7575,-125.0668 1517.6962,-118.0671"/>
</g>
<!-- Node8 -->
<g id="node3" class="node">
<title>Node8</title>
<g id="a_node3"><a xlink:href="_a_d_r_8cpp.html" target="_top" xlink:title="ADR.cpp">
<polygon fill="#ffffff" stroke="#000000" points="0,-.5 0,-19.5 57,-19.5 57,-.5 0,-.5"/>
<text text-anchor="middle" x="28.5" y="-7.5" font-family="Helvetica,sans-Serif" font-size="10.00" fill="#000000">ADR.cpp</text>
</a>
</g>
</g>
<!-- Node7&#45;&gt;Node8 -->
<g id="edge2" class="edge">
<title>Node7&#45;&gt;Node8</title>
<path fill="none" stroke="#191970" d="M33.0197,-46.1575C31.8944,-37.155 30.615,-26.9199 29.7053,-19.6427"/>
<polygon fill="#191970" stroke="#191970" points="29.5673,-46.7569 34.2807,-56.2455 36.5132,-45.8886 29.5673,-46.7569"/>
</g>
<!-- Node10 -->
<g id="node5" class="node">
<title>Node10</title>
<g id="a_node5"><a xlink:href="c_elasto_plastic_8cpp.html" target="_top" xlink:title="cElastoPlastic.cpp">
<polygon fill="#ffffff" stroke="#000000" points="75.5,-.5 75.5,-19.5 173.5,-19.5 173.5,-.5 75.5,-.5"/>
<text text-anchor="middle" x="124.5" y="-7.5" font-family="Helvetica,sans-Serif" font-size="10.00" fill="#000000">cElastoPlastic.cpp</text>
</a>
</g>
</g>
<!-- Node9&#45;&gt;Node10 -->
<g id="edge4" class="edge">
<title>Node9&#45;&gt;Node10</title>
<path fill="none" stroke="#191970" d="M124.5,-46.1575C124.5,-37.155 124.5,-26.9199 124.5,-19.6427"/>
<polygon fill="#191970" stroke="#191970" points="121.0001,-46.2455 124.5,-56.2455 128.0001,-46.2456 121.0001,-46.2455"/>
</g>
<!-- Node12 -->
<g id="node7" class="node">
<title>Node12</title>
<g id="a_node7"><a xlink:href="_added_mass_8cpp.html" target="_top" xlink:title="AddedMass.cpp">
<polygon fill="#ffffff" stroke="#000000" points="192,-.5 192,-19.5 279,-19.5 279,-.5 192,-.5"/>
<text text-anchor="middle" x="235.5" y="-7.5" font-family="Helvetica,sans-Serif" font-size="10.00" fill="#000000">AddedMass.cpp</text>
</a>
</g>
</g>
<!-- Node11&#45;&gt;Node12 -->
<g id="edge6" class="edge">
<title>Node11&#45;&gt;Node12</title>
<path fill="none" stroke="#191970" d="M227.0375,-46.4538C229.1439,-37.3803 231.5536,-26.9998 233.2615,-19.6427"/>
<polygon fill="#191970" stroke="#191970" points="223.6165,-45.7131 224.7644,-56.2455 230.4351,-47.2961 223.6165,-45.7131"/>
</g>
<!-- Node15 -->
<g id="node10" class="node">
<title>Node15</title>
<g id="a_node10"><a xlink:href="_c_l_s_v_o_f_8cpp.html" target="_top" xlink:title="CLSVOF.cpp">
<polygon fill="#ffffff" stroke="#000000" points="333,-.5 333,-19.5 408,-19.5 408,-.5 333,-.5"/>
<text text-anchor="middle" x="370.5" y="-7.5" font-family="Helvetica,sans-Serif" font-size="10.00" fill="#000000">CLSVOF.cpp</text>
</a>
</g>
</g>
<!-- Node14&#45;&gt;Node15 -->
<g id="edge9" class="edge">
<title>Node14&#45;&gt;Node15</title>
<path fill="none" stroke="#191970" d="M412.6722,-49.3607C402.2922,-39.6727 389.5709,-27.7995 380.8314,-19.6427"/>
<polygon fill="#191970" stroke="#191970" points="410.3501,-51.981 420.0488,-56.2455 415.1263,-46.8636 410.3501,-51.981"/>
</g>
<!-- Node17 -->
<g id="node12" class="node">
<title>Node17</title>
<g id="a_node12"><a xlink:href="_dissipation_8cpp.html" target="_top" xlink:title="Dissipation.cpp">
<polygon fill="#ffffff" stroke="#000000" points="425.5,-.5 425.5,-19.5 509.5,-19.5 509.5,-.5 425.5,-.5"/>
<text text-anchor="middle" x="467.5" y="-7.5" font-family="Helvetica,sans-Serif" font-size="10.00" fill="#000000">Dissipation.cpp</text>
</a>
</g>
</g>
<!-- Node16&#45;&gt;Node17 -->
<g id="edge11" class="edge">
<title>Node16&#45;&gt;Node17</title>
<path fill="none" stroke="#191970" d="M502.8251,-48.7884C494.1006,-39.2085 483.5646,-27.6396 476.2817,-19.6427"/>
<polygon fill="#191970" stroke="#191970" points="500.2954,-51.2088 509.6165,-56.2455 505.4709,-46.4954 500.2954,-51.2088"/>
</g>
<!-- Node19 -->
<g id="node14" class="node">
<title>Node19</title>
<g id="a_node14"><a xlink:href="_dissipation2_d_8cpp.html" target="_top" xlink:title="Dissipation2D.cpp">
<polygon fill="#ffffff" stroke="#000000" points="527,-.5 527,-19.5 624,-19.5 624,-.5 527,-.5"/>
<text text-anchor="middle" x="575.5" y="-7.5" font-family="Helvetica,sans-Serif" font-size="10.00" fill="#000000">Dissipation2D.cpp</text>
</a>
</g>
</g>
<!-- Node18&#45;&gt;Node19 -->
<g id="edge13" class="edge">
<title>Node18&#45;&gt;Node19</title>
<path fill="none" stroke="#191970" d="M603.2636,-47.9209C596.3789,-38.5176 588.2391,-27.3997 582.5598,-19.6427"/>
<polygon fill="#191970" stroke="#191970" points="600.6269,-50.2445 609.3583,-56.2455 606.2749,-46.1093 600.6269,-50.2445"/>
</g>
<!-- Node21 -->
<g id="node16" class="node">
<title>Node21</title>
<g id="a_node16"><a xlink:href="_g_n___s_w2_d_c_v_8cpp.html" target="_top" xlink:title="GN_SW2DCV.cpp">
<polygon fill="#ffffff" stroke="#000000" points="642,-.5 642,-19.5 741,-19.5 741,-.5 642,-.5"/>
<text text-anchor="middle" x="691.5" y="-7.5" font-family="Helvetica,sans-Serif" font-size="10.00" fill="#000000">GN_SW2DCV.cpp</text>
</a>
</g>
</g>
<!-- Node20&#45;&gt;Node21 -->
<g id="edge15" class="edge">
<title>Node20&#45;&gt;Node21</title>
<path fill="none" stroke="#191970" d="M712.1688,-47.3372C707.0335,-38.0605 701.0434,-27.2398 696.8379,-19.6427"/>
<polygon fill="#191970" stroke="#191970" points="709.1949,-49.1917 717.1002,-56.2455 715.3191,-45.8015 709.1949,-49.1917"/>
</g>
<!-- Node23 -->
<g id="node18" class="node">
<title>Node23</title>
<g id="a_node18"><a xlink:href="_kappa_8cpp.html" target="_top" xlink:title="Kappa.cpp">
<polygon fill="#ffffff" stroke="#000000" points="759,-.5 759,-19.5 822,-19.5 822,-.5 759,-.5"/>
<text text-anchor="middle" x="790.5" y="-7.5" font-family="Helvetica,sans-Serif" font-size="10.00" fill="#000000">Kappa.cpp</text>
</a>
</g>
</g>
<!-- Node22&#45;&gt;Node23 -->
<g id="edge17" class="edge">
<title>Node22&#45;&gt;Node23</title>
<path fill="none" stroke="#191970" d="M804.281,-46.7493C800.8524,-37.6064 796.9049,-27.0798 794.116,-19.6427"/>
<polygon fill="#191970" stroke="#191970" points="801.0536,-48.1112 807.8421,-56.2455 807.6079,-45.6533 801.0536,-48.1112"/>
</g>
<!-- Node25 -->
<g id="node20" class="node">
<title>Node25</title>
<g id="a_node20"><a xlink:href="_kappa2_d_8cpp.html" target="_top" xlink:title="Kappa2D.cpp">
<polygon fill="#ffffff" stroke="#000000" points="840.5,-.5 840.5,-19.5 916.5,-19.5 916.5,-.5 840.5,-.5"/>
<text text-anchor="middle" x="878.5" y="-7.5" font-family="Helvetica,sans-Serif" font-size="10.00" fill="#000000">Kappa2D.cpp</text>
</a>
</g>
</g>
<!-- Node24&#45;&gt;Node25 -->
<g id="edge19" class="edge">
<title>Node24&#45;&gt;Node25</title>
<path fill="none" stroke="#191970" d="M884.9567,-46.1575C883.3491,-37.155 881.5214,-26.9199 880.2219,-19.6427"/>
<polygon fill="#191970" stroke="#191970" points="881.5546,-47.0166 886.7581,-56.2455 888.4456,-45.786 881.5546,-47.0166"/>
</g>
<!-- Node27 -->
<g id="node22" class="node">
<title>Node27</title>
<g id="a_node22"><a xlink:href="_m_corr_8cpp.html" target="_top" xlink:title="MCorr.cpp">
<polygon fill="#ffffff" stroke="#000000" points="934.5,-.5 934.5,-19.5 996.5,-19.5 996.5,-.5 934.5,-.5"/>
<text text-anchor="middle" x="965.5" y="-7.5" font-family="Helvetica,sans-Serif" font-size="10.00" fill="#000000">MCorr.cpp</text>
</a>
</g>
</g>
<!-- Node26&#45;&gt;Node27 -->
<g id="edge21" class="edge">
<title>Node26&#45;&gt;Node27</title>
<path fill="none" stroke="#191970" d="M965.5,-46.1575C965.5,-37.155 965.5,-26.9199 965.5,-19.6427"/>
<polygon fill="#191970" stroke="#191970" points="962.0001,-46.2455 965.5,-56.2455 969.0001,-46.2456 962.0001,-46.2455"/>
</g>
<!-- Node29 -->
<g id="node24" class="node">
<title>Node29</title>
<g id="a_node24"><a xlink:href="_m_corr3_p_8cpp.html" target="_top" xlink:title="MCorr3P.cpp">
<polygon fill="#ffffff" stroke="#000000" points="1014.5,-.5 1014.5,-19.5 1088.5,-19.5 1088.5,-.5 1014.5,-.5"/>
<text text-anchor="middle" x="1051.5" y="-7.5" font-family="Helvetica,sans-Serif" font-size="10.00" fill="#000000">MCorr3P.cpp</text>
</a>
</g>
</g>
<!-- Node28&#45;&gt;Node29 -->
<g id="edge23" class="edge">
<title>Node28&#45;&gt;Node29</title>
<path fill="none" stroke="#191970" d="M1045.0433,-46.1575C1046.6509,-37.155 1048.4786,-26.9199 1049.7781,-19.6427"/>
<polygon fill="#191970" stroke="#191970" points="1041.5544,-45.786 1043.2419,-56.2455 1048.4454,-47.0166 1041.5544,-45.786"/>
</g>
<!-- Node31 -->
<g id="node26" class="node">
<title>Node31</title>
<g id="a_node26"><a xlink:href="_move_mesh_8cpp.html" target="_top" xlink:title="MoveMesh.cpp">
<polygon fill="#ffffff" stroke="#000000" points="1107,-.5 1107,-19.5 1190,-19.5 1190,-.5 1107,-.5"/>
<text text-anchor="middle" x="1148.5" y="-7.5" font-family="Helvetica,sans-Serif" font-size="10.00" fill="#000000">MoveMesh.cpp</text>
</a>
</g>
</g>
<!-- Node30&#45;&gt;Node31 -->
<g id="edge25" class="edge">
<title>Node30&#45;&gt;Node31</title>
<path fill="none" stroke="#191970" d="M1135.3753,-46.7493C1138.6406,-37.6064 1142.4001,-27.0798 1145.0562,-19.6427"/>
<polygon fill="#191970" stroke="#191970" points="1132.0511,-45.6509 1131.9837,-56.2455 1138.6433,-48.0053 1132.0511,-45.6509"/>
</g>
<!-- Node33 -->
<g id="node28" class="node">
<title>Node33</title>
<g id="a_node28"><a xlink:href="_move_mesh2_d_8cpp.html" target="_top" xlink:title="MoveMesh2D.cpp">
<polygon fill="#ffffff" stroke="#000000" points="1208.5,-.5 1208.5,-19.5 1304.5,-19.5 1304.5,-.5 1208.5,-.5"/>
<text text-anchor="middle" x="1256.5" y="-7.5" font-family="Helvetica,sans-Serif" font-size="10.00" fill="#000000">MoveMesh2D.cpp</text>
</a>
</g>
</g>
<!-- Node32&#45;&gt;Node33 -->
<g id="edge27" class="edge">
<title>Node32&#45;&gt;Node33</title>
<path fill="none" stroke="#191970" d="M1236.498,-47.3372C1241.4676,-38.0605 1247.2644,-27.2398 1251.3343,-19.6427"/>
<polygon fill="#191970" stroke="#191970" points="1233.3627,-45.7779 1231.7256,-56.2455 1239.5331,-49.0835 1233.3627,-45.7779"/>
</g>
<!-- Node35 -->
<g id="node30" class="node">
<title>Node35</title>
<g id="a_node30"><a xlink:href="_n_c_l_s_8cpp.html" target="_top" xlink:title="NCLS.cpp">
<polygon fill="#ffffff" stroke="#000000" points="1322.5,-.5 1322.5,-19.5 1384.5,-19.5 1384.5,-.5 1322.5,-.5"/>
<text text-anchor="middle" x="1353.5" y="-7.5" font-family="Helvetica,sans-Serif" font-size="10.00" fill="#000000">NCLS.cpp</text>
</a>
</g>
</g>
<!-- Node34&#45;&gt;Node35 -->
<g id="edge29" class="edge">
<title>Node34&#45;&gt;Node35</title>
<path fill="none" stroke="#191970" d="M1326.4136,-47.9209C1333.1303,-38.5176 1341.0717,-27.3997 1346.6124,-19.6427"/>
<polygon fill="#191970" stroke="#191970" points="1323.4318,-46.0738 1320.4675,-56.2455 1329.128,-50.1425 1323.4318,-46.0738"/>
</g>
<!-- Node37 -->
<g id="node32" class="node">
<title>Node37</title>
<g id="a_node32"><a xlink:href="_n_c_l_s3_p_8cpp.html" target="_top" xlink:title="NCLS3P.cpp">
<polygon fill="#ffffff" stroke="#000000" points="1402.5,-.5 1402.5,-19.5 1476.5,-19.5 1476.5,-.5 1402.5,-.5"/>
<text text-anchor="middle" x="1439.5" y="-7.5" font-family="Helvetica,sans-Serif" font-size="10.00" fill="#000000">NCLS3P.cpp</text>
</a>
</g>
</g>
<!-- Node36&#45;&gt;Node37 -->
<g id="edge31" class="edge">
<title>Node36&#45;&gt;Node37</title>
<path fill="none" stroke="#191970" d="M1405.1247,-48.5004C1413.6273,-38.9775 1423.8218,-27.5596 1430.8905,-19.6427"/>
<polygon fill="#191970" stroke="#191970" points="1402.2587,-46.4551 1398.2093,-56.2455 1407.4803,-51.1172 1402.2587,-46.4551"/>
</g>
<!-- Node39 -->
<g id="node34" class="node">
<title>Node39</title>
<g id="a_node34"><a xlink:href="_pres_8cpp.html" target="_top" xlink:title="Pres.cpp">
<polygon fill="#ffffff" stroke="#000000" points="1494.5,-.5 1494.5,-19.5 1550.5,-19.5 1550.5,-.5 1494.5,-.5"/>
<text text-anchor="middle" x="1522.5" y="-7.5" font-family="Helvetica,sans-Serif" font-size="10.00" fill="#000000">Pres.cpp</text>
</a>
</g>
</g>
<!-- Node38&#45;&gt;Node39 -->
<g id="edge33" class="edge">
<title>Node38&#45;&gt;Node39</title>
<path fill="none" stroke="#191970" d="M1480.3278,-49.3607C1490.7078,-39.6727 1503.4291,-27.7995 1512.1686,-19.6427"/>
<polygon fill="#191970" stroke="#191970" points="1477.8737,-46.8636 1472.9512,-56.2455 1482.6499,-51.981 1477.8737,-46.8636"/>
</g>
</g>
</svg>
