<?xml version="1.0" encoding="UTF-8" standalone="no"?>
<!DOCTYPE svg PUBLIC "-//W3C//DTD SVG 1.1//EN"
 "http://www.w3.org/Graphics/SVG/1.1/DTD/svg11.dtd">
<!-- Generated by graphviz version 2.40.1 (20161225.0304)
 -->
<!-- Title: ArgumentsDict.h Pages: 1 -->
<svg width="433pt" height="84pt"
 viewBox="0.00 0.00 433.00 84.00" xmlns="http://www.w3.org/2000/svg" xmlns:xlink="http://www.w3.org/1999/xlink">
<g id="graph0" class="graph" transform="scale(1 1) rotate(0) translate(4 80)">
<title>ArgumentsDict.h</title>
<polygon fill="#ffffff" stroke="transparent" points="-4,4 -4,-80 429,-80 429,4 -4,4"/>
<!-- Node0 -->
<g id="node1" class="node">
<title>Node0</title>
<polygon fill="#bfbfbf" stroke="#000000" points="105.5,-56.5 105.5,-75.5 195.5,-75.5 195.5,-56.5 105.5,-56.5"/>
<text text-anchor="middle" x="150.5" y="-63.5" font-family="Helvetica,sans-Serif" font-size="10.00" fill="#000000">ArgumentsDict.h</text>
</g>
<!-- Node1 -->
<g id="node2" class="node">
<title>Node1</title>
<polygon fill="#ffffff" stroke="#bfbfbf" points="0,-.5 0,-19.5 35,-19.5 35,-.5 0,-.5"/>
<text text-anchor="middle" x="17.5" y="-7.5" font-family="Helvetica,sans-Serif" font-size="10.00" fill="#000000">map</text>
</g>
<!-- Node0&#45;&gt;Node1 -->
<g id="edge1" class="edge">
<title>Node0&#45;&gt;Node1</title>
<path fill="none" stroke="#191970" d="M127.6365,-56.3733C104.6589,-46.6985 69.2371,-31.784 44.7993,-21.4945"/>
<polygon fill="#191970" stroke="#191970" points="45.9598,-18.1855 35.3852,-17.5306 43.2433,-24.637 45.9598,-18.1855"/>
</g>
<!-- Node2 -->
<g id="node3" class="node">
<title>Node2</title>
<polygon fill="#ffffff" stroke="#bfbfbf" points="53,-.5 53,-19.5 112,-19.5 112,-.5 53,-.5"/>
<text text-anchor="middle" x="82.5" y="-7.5" font-family="Helvetica,sans-Serif" font-size="10.00" fill="#000000">stdexcept</text>
</g>
<!-- Node0&#45;&gt;Node2 -->
<g id="edge2" class="edge">
<title>Node0&#45;&gt;Node2</title>
<path fill="none" stroke="#191970" d="M138.6553,-56.2455C128.612,-47.9746 114.0005,-35.9416 102.1996,-26.2232"/>
<polygon fill="#191970" stroke="#191970" points="104.1533,-23.298 94.209,-19.6427 99.7033,-28.7015 104.1533,-23.298"/>
</g>
<!-- Node3 -->
<g id="node4" class="node">
<title>Node3</title>
<polygon fill="#ffffff" stroke="#bfbfbf" points="130,-.5 130,-19.5 171,-19.5 171,-.5 130,-.5"/>
<text text-anchor="middle" x="150.5" y="-7.5" font-family="Helvetica,sans-Serif" font-size="10.00" fill="#000000">string</text>
</g>
<!-- Node0&#45;&gt;Node3 -->
<g id="edge3" class="edge">
<title>Node0&#45;&gt;Node3</title>
<path fill="none" stroke="#191970" d="M150.5,-56.2455C150.5,-48.9382 150.5,-38.6944 150.5,-29.7046"/>
<polygon fill="#191970" stroke="#191970" points="154.0001,-29.6426 150.5,-19.6427 147.0001,-29.6427 154.0001,-29.6426"/>
</g>
<!-- Node4 -->
<g id="node5" class="node">
<title>Node4</title>
<polygon fill="#ffffff" stroke="#bfbfbf" points="189,-.5 189,-19.5 324,-19.5 324,-.5 189,-.5"/>
<text text-anchor="middle" x="256.5" y="-7.5" font-family="Helvetica,sans-Serif" font-size="10.00" fill="#000000">xtensor&#45;python/pyarray.hpp</text>
</g>
<!-- Node0&#45;&gt;Node4 -->
<g id="edge4" class="edge">
<title>Node0&#45;&gt;Node4</title>
<path fill="none" stroke="#191970" d="M168.9638,-56.2455C185.6074,-47.4527 210.2993,-34.4079 229.2192,-24.4125"/>
<polygon fill="#191970" stroke="#191970" points="231.0408,-27.4086 238.2478,-19.6427 227.7709,-21.2193 231.0408,-27.4086"/>
</g>
<!-- Node5 -->
<g id="node6" class="node">
<title>Node5</title>
<polygon fill="#ffffff" stroke="#bfbfbf" points="342,-.5 342,-19.5 425,-19.5 425,-.5 342,-.5"/>
<text text-anchor="middle" x="383.5" y="-7.5" font-family="Helvetica,sans-Serif" font-size="10.00" fill="#000000">xtensor/xio.hpp</text>
</g>
<!-- Node0&#45;&gt;Node5 -->
<g id="edge5" class="edge">
<title>Node0&#45;&gt;Node5</title>
<path fill="none" stroke="#191970" d="M190.2894,-56.4369C229.998,-46.8932 291.1104,-32.2052 333.9455,-21.9101"/>
<polygon fill="#191970" stroke="#191970" points="334.9695,-25.2637 343.8747,-19.5237 333.3337,-18.4575 334.9695,-25.2637"/>
</g>
</g>
</svg>
