<?xml version="1.0" encoding="UTF-8" standalone="no"?>
<!DOCTYPE svg PUBLIC "-//W3C//DTD SVG 1.1//EN"
 "http://www.w3.org/Graphics/SVG/1.1/DTD/svg11.dtd">
<!-- Generated by graphviz version 2.40.1 (20161225.0304)
 -->
<!-- Title: CLSVOF.cpp Pages: 1 -->
<svg width="733pt" height="196pt"
 viewBox="0.00 0.00 732.50 196.00" xmlns="http://www.w3.org/2000/svg" xmlns:xlink="http://www.w3.org/1999/xlink">
<g id="graph0" class="graph" transform="scale(1 1) rotate(0) translate(4 192)">
<title>CLSVOF.cpp</title>
<polygon fill="#ffffff" stroke="transparent" points="-4,4 -4,-192 728.5,-192 728.5,4 -4,4"/>
<!-- Node0 -->
<g id="node1" class="node">
<title>Node0</title>
<polygon fill="#bfbfbf" stroke="#000000" points="137.5,-168.5 137.5,-187.5 212.5,-187.5 212.5,-168.5 137.5,-168.5"/>
<text text-anchor="middle" x="175" y="-175.5" font-family="Helvetica,sans-Serif" font-size="10.00" fill="#000000">CLSVOF.cpp</text>
</g>
<!-- Node1 -->
<g id="node2" class="node">
<title>Node1</title>
<polygon fill="#ffffff" stroke="#bfbfbf" points="0,-112.5 0,-131.5 106,-131.5 106,-112.5 0,-112.5"/>
<text text-anchor="middle" x="53" y="-119.5" font-family="Helvetica,sans-Serif" font-size="10.00" fill="#000000">pybind11/pybind11.h</text>
</g>
<!-- Node0&#45;&gt;Node1 -->
<g id="edge1" class="edge">
<title>Node0&#45;&gt;Node1</title>
<path fill="none" stroke="#191970" d="M154.0275,-168.3733C134.4433,-159.3838 105.0039,-145.8706 82.949,-135.7471"/>
<polygon fill="#191970" stroke="#191970" points="84.2473,-132.4919 73.6989,-131.5011 81.3271,-138.8538 84.2473,-132.4919"/>
</g>
<!-- Node2 -->
<g id="node3" class="node">
<title>Node2</title>
<polygon fill="#ffffff" stroke="#bfbfbf" points="124.5,-112.5 124.5,-131.5 225.5,-131.5 225.5,-112.5 124.5,-112.5"/>
<text text-anchor="middle" x="175" y="-119.5" font-family="Helvetica,sans-Serif" font-size="10.00" fill="#000000">pybind11/stl_bind.h</text>
</g>
<!-- Node0&#45;&gt;Node2 -->
<g id="edge2" class="edge">
<title>Node0&#45;&gt;Node2</title>
<path fill="none" stroke="#191970" d="M175,-168.2455C175,-160.9382 175,-150.6944 175,-141.7046"/>
<polygon fill="#191970" stroke="#191970" points="178.5001,-141.6426 175,-131.6427 171.5001,-141.6427 178.5001,-141.6426"/>
</g>
<!-- Node3 -->
<g id="node4" class="node">
<title>Node3</title>
<g id="a_node4"><a xlink:href="_c_l_s_v_o_f_8h.html" target="_top" xlink:title="CLSVOF.h">
<polygon fill="#ffffff" stroke="#000000" points="243.5,-112.5 243.5,-131.5 308.5,-131.5 308.5,-112.5 243.5,-112.5"/>
<text text-anchor="middle" x="276" y="-119.5" font-family="Helvetica,sans-Serif" font-size="10.00" fill="#000000">CLSVOF.h</text>
</a>
</g>
</g>
<!-- Node0&#45;&gt;Node3 -->
<g id="edge3" class="edge">
<title>Node0&#45;&gt;Node3</title>
<path fill="none" stroke="#191970" d="M192.5929,-168.2455C208.379,-159.4928 231.7639,-146.527 249.7587,-136.5496"/>
<polygon fill="#191970" stroke="#191970" points="251.5603,-139.5528 258.6087,-131.6427 248.1659,-133.4308 251.5603,-139.5528"/>
</g>
<!-- Node4 -->
<g id="node5" class="node">
<title>Node4</title>
<polygon fill="#ffffff" stroke="#bfbfbf" points="51,-.5 51,-19.5 95,-19.5 95,-.5 51,-.5"/>
<text text-anchor="middle" x="73" y="-7.5" font-family="Helvetica,sans-Serif" font-size="10.00" fill="#000000">cmath</text>
</g>
<!-- Node3&#45;&gt;Node4 -->
<g id="edge4" class="edge">
<title>Node3&#45;&gt;Node4</title>
<path fill="none" stroke="#191970" d="M243.4643,-114.1449C240.2694,-113.4062 237.0738,-112.6801 234,-112 156.0436,-94.7513 108.4839,-137.8554 58,-76 47.1338,-62.6862 53.5787,-43.044 61.1018,-28.6493"/>
<polygon fill="#191970" stroke="#191970" points="64.3194,-30.0757 66.2828,-19.6643 58.2554,-26.5789 64.3194,-30.0757"/>
</g>
<!-- Node5 -->
<g id="node6" class="node">
<title>Node5</title>
<polygon fill="#ffffff" stroke="#bfbfbf" points="227,-.5 227,-19.5 281,-19.5 281,-.5 227,-.5"/>
<text text-anchor="middle" x="254" y="-7.5" font-family="Helvetica,sans-Serif" font-size="10.00" fill="#000000">iostream</text>
</g>
<!-- Node3&#45;&gt;Node5 -->
<g id="edge5" class="edge">
<title>Node3&#45;&gt;Node5</title>
<path fill="none" stroke="#191970" d="M292.7564,-112.3889C311.875,-100.1041 339.0338,-77.8067 327,-56 319.0442,-41.5833 304.4617,-31.0661 290.4099,-23.7578"/>
<polygon fill="#191970" stroke="#191970" points="291.8586,-20.5709 281.3276,-19.4097 288.836,-26.8847 291.8586,-20.5709"/>
</g>
<!-- Node6 -->
<g id="node7" class="node">
<title>Node6</title>
<polygon fill="#ffffff" stroke="#bfbfbf" points="164.5,-56.5 164.5,-75.5 215.5,-75.5 215.5,-56.5 164.5,-56.5"/>
<text text-anchor="middle" x="190" y="-63.5" font-family="Helvetica,sans-Serif" font-size="10.00" fill="#000000">valarray</text>
</g>
<!-- Node3&#45;&gt;Node6 -->
<g id="edge6" class="edge">
<title>Node3&#45;&gt;Node6</title>
<path fill="none" stroke="#191970" d="M261.0199,-112.2455C247.8249,-103.6534 228.3949,-91.0014 213.1921,-81.1018"/>
<polygon fill="#191970" stroke="#191970" points="215.0983,-78.1665 204.8084,-75.6427 211.2785,-84.0325 215.0983,-78.1665"/>
</g>
<!-- Node7 -->
<g id="node8" class="node">
<title>Node7</title>
<g id="a_node8"><a xlink:href="_comp_kernel_8h.html" target="_top" xlink:title="CompKernel.h">
<polygon fill="#ffffff" stroke="#000000" points="67.5,-56.5 67.5,-75.5 146.5,-75.5 146.5,-56.5 67.5,-56.5"/>
<text text-anchor="middle" x="107" y="-63.5" font-family="Helvetica,sans-Serif" font-size="10.00" fill="#000000">CompKernel.h</text>
</a>
</g>
</g>
<!-- Node3&#45;&gt;Node7 -->
<g id="edge7" class="edge">
<title>Node3&#45;&gt;Node7</title>
<path fill="none" stroke="#191970" d="M246.9479,-112.3733C218.8457,-103.0613 176.0946,-88.8953 145.2393,-78.671"/>
<polygon fill="#191970" stroke="#191970" points="146.2664,-75.3243 135.673,-75.5011 144.0645,-81.969 146.2664,-75.3243"/>
</g>
<!-- Node8 -->
<g id="node9" class="node">
<title>Node8</title>
<g id="a_node9"><a xlink:href="_model_factory_8h.html" target="_top" xlink:title="ModelFactory.h">
<polygon fill="#ffffff" stroke="#000000" points="234,-56.5 234,-75.5 318,-75.5 318,-56.5 234,-56.5"/>
<text text-anchor="middle" x="276" y="-63.5" font-family="Helvetica,sans-Serif" font-size="10.00" fill="#000000">ModelFactory.h</text>
</a>
</g>
</g>
<!-- Node3&#45;&gt;Node8 -->
<g id="edge9" class="edge">
<title>Node3&#45;&gt;Node8</title>
<path fill="none" stroke="#191970" d="M276,-112.2455C276,-104.9382 276,-94.6944 276,-85.7046"/>
<polygon fill="#191970" stroke="#191970" points="279.5001,-85.6426 276,-75.6427 272.5001,-85.6427 279.5001,-85.6426"/>
</g>
<!-- Node9 -->
<g id="node10" class="node">
<title>Node9</title>
<g id="a_node10"><a xlink:href="_arguments_dict_8h.html" target="_top" xlink:title="ArgumentsDict.h">
<polygon fill="#ffffff" stroke="#000000" points="417,-56.5 417,-75.5 507,-75.5 507,-56.5 417,-56.5"/>
<text text-anchor="middle" x="462" y="-63.5" font-family="Helvetica,sans-Serif" font-size="10.00" fill="#000000">ArgumentsDict.h</text>
</a>
</g>
</g>
<!-- Node3&#45;&gt;Node9 -->
<g id="edge11" class="edge">
<title>Node3&#45;&gt;Node9</title>
<path fill="none" stroke="#191970" d="M307.9745,-112.3733C339.1713,-102.9807 386.771,-88.6496 420.7932,-78.4064"/>
<polygon fill="#191970" stroke="#191970" points="421.8763,-81.7355 430.4427,-75.5011 419.8582,-75.0327 421.8763,-81.7355"/>
</g>
<!-- Node13 -->
<g id="node14" class="node">
<title>Node13</title>
<polygon fill="#ffffff" stroke="#bfbfbf" points="589.5,-.5 589.5,-19.5 724.5,-19.5 724.5,-.5 589.5,-.5"/>
<text text-anchor="middle" x="657" y="-7.5" font-family="Helvetica,sans-Serif" font-size="10.00" fill="#000000">xtensor&#45;python/pyarray.hpp</text>
</g>
<!-- Node3&#45;&gt;Node13 -->
<g id="edge17" class="edge">
<title>Node3&#45;&gt;Node13</title>
<path fill="none" stroke="#191970" d="M308.8632,-118.3278C355.7015,-112.5079 443.9641,-99.3598 516,-76 557.8574,-62.4265 603.5019,-39.4243 631.1878,-24.4755"/>
<polygon fill="#191970" stroke="#191970" points="633.0995,-27.4194 640.1961,-19.5524 629.7425,-21.2768 633.0995,-27.4194"/>
</g>
<!-- Node7&#45;&gt;Node4 -->
<g id="edge8" class="edge">
<title>Node7&#45;&gt;Node4</title>
<path fill="none" stroke="#191970" d="M101.0777,-56.2455C96.3973,-48.5367 89.7327,-37.5598 84.0711,-28.2348"/>
<polygon fill="#191970" stroke="#191970" points="87.0361,-26.3741 78.8545,-19.6427 81.0525,-30.007 87.0361,-26.3741"/>
</g>
<!-- Node8&#45;&gt;Node5 -->
<g id="edge10" class="edge">
<title>Node8&#45;&gt;Node5</title>
<path fill="none" stroke="#191970" d="M272.1679,-56.2455C269.2341,-48.7776 265.0953,-38.2427 261.509,-29.1137"/>
<polygon fill="#191970" stroke="#191970" points="264.7024,-27.6704 257.7882,-19.6427 258.1871,-30.23 264.7024,-27.6704"/>
</g>
<!-- Node10 -->
<g id="node11" class="node">
<title>Node10</title>
<polygon fill="#ffffff" stroke="#bfbfbf" points="400.5,-.5 400.5,-19.5 435.5,-19.5 435.5,-.5 400.5,-.5"/>
<text text-anchor="middle" x="418" y="-7.5" font-family="Helvetica,sans-Serif" font-size="10.00" fill="#000000">map</text>
</g>
<!-- Node9&#45;&gt;Node10 -->
<g id="edge12" class="edge">
<title>Node9&#45;&gt;Node10</title>
<path fill="none" stroke="#191970" d="M454.3358,-56.2455C448.1527,-48.3761 439.2937,-37.101 431.8711,-27.6542"/>
<polygon fill="#191970" stroke="#191970" points="434.5068,-25.3435 425.5764,-19.6427 429.0025,-29.6683 434.5068,-25.3435"/>
</g>
<!-- Node11 -->
<g id="node12" class="node">
<title>Node11</title>
<polygon fill="#ffffff" stroke="#bfbfbf" points="453.5,-.5 453.5,-19.5 512.5,-19.5 512.5,-.5 453.5,-.5"/>
<text text-anchor="middle" x="483" y="-7.5" font-family="Helvetica,sans-Serif" font-size="10.00" fill="#000000">stdexcept</text>
</g>
<!-- Node9&#45;&gt;Node11 -->
<g id="edge13" class="edge">
<title>Node9&#45;&gt;Node11</title>
<path fill="none" stroke="#191970" d="M465.6579,-56.2455C468.4584,-48.7776 472.409,-38.2427 475.8324,-29.1137"/>
<polygon fill="#191970" stroke="#191970" points="479.1499,-30.2349 479.384,-19.6427 472.5955,-27.777 479.1499,-30.2349"/>
</g>
<!-- Node12 -->
<g id="node13" class="node">
<title>Node12</title>
<polygon fill="#ffffff" stroke="#bfbfbf" points="530.5,-.5 530.5,-19.5 571.5,-19.5 571.5,-.5 530.5,-.5"/>
<text text-anchor="middle" x="551" y="-7.5" font-family="Helvetica,sans-Serif" font-size="10.00" fill="#000000">string</text>
</g>
<!-- Node9&#45;&gt;Node12 -->
<g id="edge14" class="edge">
<title>Node9&#45;&gt;Node12</title>
<path fill="none" stroke="#191970" d="M477.5026,-56.2455C491.158,-47.6534 511.2657,-35.0014 526.9989,-25.1018"/>
<polygon fill="#191970" stroke="#191970" points="529.0751,-27.9307 535.675,-19.6427 525.3471,-22.006 529.0751,-27.9307"/>
</g>
<!-- Node9&#45;&gt;Node13 -->
<g id="edge15" class="edge">
<title>Node9&#45;&gt;Node13</title>
<path fill="none" stroke="#191970" d="M495.5217,-56.3733C528.3683,-46.9404 578.5595,-32.5265 614.2578,-22.2747"/>
<polygon fill="#191970" stroke="#191970" points="615.2703,-25.6255 623.9157,-19.5011 613.3381,-18.8974 615.2703,-25.6255"/>
</g>
<!-- Node14 -->
<g id="node15" class="node">
<title>Node14</title>
<polygon fill="#ffffff" stroke="#bfbfbf" points="299.5,-.5 299.5,-19.5 382.5,-19.5 382.5,-.5 299.5,-.5"/>
<text text-anchor="middle" x="341" y="-7.5" font-family="Helvetica,sans-Serif" font-size="10.00" fill="#000000">xtensor/xio.hpp</text>
</g>
<!-- Node9&#45;&gt;Node14 -->
<g id="edge16" class="edge">
<title>Node9&#45;&gt;Node14</title>
<path fill="none" stroke="#191970" d="M441.1994,-56.3733C421.7757,-47.3838 392.5776,-33.8706 370.7036,-23.7471"/>
<polygon fill="#191970" stroke="#191970" points="372.0745,-20.5249 361.5292,-19.5011 369.1344,-26.8776 372.0745,-20.5249"/>
</g>
</g>
</svg>
