<?xml version="1.0" encoding="UTF-8" standalone="no"?>
<!DOCTYPE svg PUBLIC "-//W3C//DTD SVG 1.1//EN"
 "http://www.w3.org/Graphics/SVG/1.1/DTD/svg11.dtd">
<!-- Generated by graphviz version 2.50.0 (20211204.2007)
 -->
<!-- Title: CLSVOF.h Pages: 1 -->
<svg width="680pt" height="140pt"
 viewBox="0.00 0.00 680.00 140.00" xmlns="http://www.w3.org/2000/svg" xmlns:xlink="http://www.w3.org/1999/xlink">
<g id="graph0" class="graph" transform="scale(1 1) rotate(0) translate(4 136)">
<title>CLSVOF.h</title>
<polygon fill="white" stroke="transparent" points="-4,4 -4,-136 676,-136 676,4 -4,4"/>
<!-- Node1 -->
<g id="node1" class="node">
<title>Node1</title>
<g id="a_node1"><a xlink:title=" ">
<polygon fill="#bfbfbf" stroke="black" points="192.5,-112.5 192.5,-131.5 255.5,-131.5 255.5,-112.5 192.5,-112.5"/>
<text text-anchor="middle" x="224" y="-119.5" font-family="Helvetica,sans-Serif" font-size="10.00">CLSVOF.h</text>
</a>
</g>
</g>
<!-- Node2 -->
<g id="node2" class="node">
<title>Node2</title>
<g id="a_node2"><a xlink:title=" ">
<polygon fill="white" stroke="#bfbfbf" points="0,-0.5 0,-19.5 44,-19.5 44,-0.5 0,-0.5"/>
<text text-anchor="middle" x="22" y="-7.5" font-family="Helvetica,sans-Serif" font-size="10.00">cmath</text>
</a>
</g>
</g>
<!-- Node1&#45;&gt;Node2 -->
<g id="edge1" class="edge">
<title>Node1&#45;&gt;Node2</title>
<path fill="none" stroke="midnightblue" d="M192.34,-119.19C137.86,-115.35 30.01,-104.27 7,-76 -3.93,-62.57 3.02,-42.66 10.7,-28.42"/>
<polygon fill="midnightblue" stroke="midnightblue" points="13.83,-30 15.92,-19.61 7.81,-26.43 13.83,-30"/>
</g>
<!-- Node3 -->
<g id="node3" class="node">
<title>Node3</title>
<g id="a_node3"><a xlink:title=" ">
<polygon fill="white" stroke="#bfbfbf" points="175,-0.5 175,-19.5 229,-19.5 229,-0.5 175,-0.5"/>
<text text-anchor="middle" x="202" y="-7.5" font-family="Helvetica,sans-Serif" font-size="10.00">iostream</text>
</a>
</g>
</g>
<!-- Node1&#45;&gt;Node3 -->
<g id="edge2" class="edge">
<title>Node1&#45;&gt;Node3</title>
<path fill="none" stroke="midnightblue" d="M239.43,-112.38C258.59,-100.5 287.31,-78.04 275,-56 266.84,-41.39 251.78,-30.94 237.45,-23.8"/>
<polygon fill="midnightblue" stroke="midnightblue" points="238.76,-20.56 228.21,-19.59 235.85,-26.92 238.76,-20.56"/>
</g>
<!-- Node4 -->
<g id="node4" class="node">
<title>Node4</title>
<g id="a_node4"><a xlink:title=" ">
<polygon fill="white" stroke="#bfbfbf" points="113.5,-56.5 113.5,-75.5 164.5,-75.5 164.5,-56.5 113.5,-56.5"/>
<text text-anchor="middle" x="139" y="-63.5" font-family="Helvetica,sans-Serif" font-size="10.00">valarray</text>
</a>
</g>
</g>
<!-- Node1&#45;&gt;Node4 -->
<g id="edge3" class="edge">
<title>Node1&#45;&gt;Node4</title>
<path fill="none" stroke="midnightblue" d="M210.34,-112.32C197.08,-103.9 176.73,-90.97 161.15,-81.07"/>
<polygon fill="midnightblue" stroke="midnightblue" points="162.94,-78.06 152.62,-75.65 159.19,-83.97 162.94,-78.06"/>
</g>
<!-- Node5 -->
<g id="node5" class="node">
<title>Node5</title>
<g id="a_node5"><a xlink:href="_comp_kernel_8h.html" target="_top" xlink:title=" ">
<polygon fill="white" stroke="black" points="16.5,-56.5 16.5,-75.5 95.5,-75.5 95.5,-56.5 16.5,-56.5"/>
<text text-anchor="middle" x="56" y="-63.5" font-family="Helvetica,sans-Serif" font-size="10.00">CompKernel.h</text>
</a>
</g>
</g>
<!-- Node1&#45;&gt;Node5 -->
<g id="edge4" class="edge">
<title>Node1&#45;&gt;Node5</title>
<path fill="none" stroke="midnightblue" d="M197.38,-112.44C168.99,-103.32 123.86,-88.81 92.25,-78.65"/>
<polygon fill="midnightblue" stroke="midnightblue" points="93.09,-75.24 82.5,-75.52 90.94,-81.91 93.09,-75.24"/>
</g>
<!-- Node6 -->
<g id="node6" class="node">
<title>Node6</title>
<g id="a_node6"><a xlink:href="_model_factory_8h.html" target="_top" xlink:title=" ">
<polygon fill="white" stroke="black" points="182.5,-56.5 182.5,-75.5 265.5,-75.5 265.5,-56.5 182.5,-56.5"/>
<text text-anchor="middle" x="224" y="-63.5" font-family="Helvetica,sans-Serif" font-size="10.00">ModelFactory.h</text>
</a>
</g>
</g>
<!-- Node1&#45;&gt;Node6 -->
<g id="edge6" class="edge">
<title>Node1&#45;&gt;Node6</title>
<path fill="none" stroke="midnightblue" d="M224,-112.08C224,-105.01 224,-94.86 224,-85.99"/>
<polygon fill="midnightblue" stroke="midnightblue" points="227.5,-85.75 224,-75.75 220.5,-85.75 227.5,-85.75"/>
</g>
<!-- Node7 -->
<g id="node7" class="node">
<title>Node7</title>
<g id="a_node7"><a xlink:href="_arguments_dict_8h.html" target="_top" xlink:title=" ">
<polygon fill="white" stroke="black" points="365,-56.5 365,-75.5 455,-75.5 455,-56.5 365,-56.5"/>
<text text-anchor="middle" x="410" y="-63.5" font-family="Helvetica,sans-Serif" font-size="10.00">ArgumentsDict.h</text>
</a>
</g>
</g>
<!-- Node1&#45;&gt;Node7 -->
<g id="edge8" class="edge">
<title>Node1&#45;&gt;Node7</title>
<path fill="none" stroke="midnightblue" d="M253.47,-112.44C285.17,-103.24 335.73,-88.56 370.77,-78.39"/>
<polygon fill="midnightblue" stroke="midnightblue" points="372.04,-81.67 380.67,-75.52 370.09,-74.94 372.04,-81.67"/>
</g>
<!-- Node11 -->
<g id="node11" class="node">
<title>Node11</title>
<g id="a_node11"><a xlink:title=" ">
<polygon fill="white" stroke="#bfbfbf" points="538,-0.5 538,-19.5 672,-19.5 672,-0.5 538,-0.5"/>
<text text-anchor="middle" x="605" y="-7.5" font-family="Helvetica,sans-Serif" font-size="10.00">xtensor&#45;python/pyarray.hpp</text>
</a>
</g>
</g>
<!-- Node1&#45;&gt;Node11 -->
<g id="edge14" class="edge">
<title>Node1&#45;&gt;Node11</title>
<path fill="none" stroke="midnightblue" d="M255.68,-117.59C302.18,-112.01 391.3,-99.18 464,-76 506.73,-62.38 553.48,-39 580.97,-24.31"/>
<polygon fill="midnightblue" stroke="midnightblue" points="582.72,-27.34 589.85,-19.51 579.39,-21.19 582.72,-27.34"/>
</g>
<!-- Node5&#45;&gt;Node2 -->
<g id="edge5" class="edge">
<title>Node5&#45;&gt;Node2</title>
<path fill="none" stroke="midnightblue" d="M50.39,-56.08C45.63,-48.53 38.68,-37.49 32.85,-28.23"/>
<polygon fill="midnightblue" stroke="midnightblue" points="35.8,-26.35 27.51,-19.75 29.88,-30.08 35.8,-26.35"/>
</g>
<!-- Node6&#45;&gt;Node3 -->
<g id="edge7" class="edge">
<title>Node6&#45;&gt;Node3</title>
<path fill="none" stroke="midnightblue" d="M220.37,-56.08C217.39,-48.77 213.07,-38.18 209.38,-29.1"/>
<polygon fill="midnightblue" stroke="midnightblue" points="212.58,-27.69 205.57,-19.75 206.1,-30.33 212.58,-27.69"/>
</g>
<!-- Node8 -->
<g id="node8" class="node">
<title>Node8</title>
<g id="a_node8"><a xlink:title=" ">
<polygon fill="white" stroke="#bfbfbf" points="348.5,-0.5 348.5,-19.5 383.5,-19.5 383.5,-0.5 348.5,-0.5"/>
<text text-anchor="middle" x="366" y="-7.5" font-family="Helvetica,sans-Serif" font-size="10.00">map</text>
</a>
</g>
</g>
<!-- Node7&#45;&gt;Node8 -->
<g id="edge9" class="edge">
<title>Node7&#45;&gt;Node8</title>
<path fill="none" stroke="midnightblue" d="M402.73,-56.08C396.46,-48.38 387.21,-37.03 379.57,-27.65"/>
<polygon fill="midnightblue" stroke="midnightblue" points="382.16,-25.29 373.13,-19.75 376.73,-29.71 382.16,-25.29"/>
</g>
<!-- Node9 -->
<g id="node9" class="node">
<title>Node9</title>
<g id="a_node9"><a xlink:title=" ">
<polygon fill="white" stroke="#bfbfbf" points="401.5,-0.5 401.5,-19.5 460.5,-19.5 460.5,-0.5 401.5,-0.5"/>
<text text-anchor="middle" x="431" y="-7.5" font-family="Helvetica,sans-Serif" font-size="10.00">stdexcept</text>
</a>
</g>
</g>
<!-- Node7&#45;&gt;Node9 -->
<g id="edge10" class="edge">
<title>Node7&#45;&gt;Node9</title>
<path fill="none" stroke="midnightblue" d="M413.47,-56.08C416.31,-48.77 420.43,-38.18 423.96,-29.1"/>
<polygon fill="midnightblue" stroke="midnightblue" points="427.23,-30.34 427.6,-19.75 420.71,-27.8 427.23,-30.34"/>
</g>
<!-- Node10 -->
<g id="node10" class="node">
<title>Node10</title>
<g id="a_node10"><a xlink:title=" ">
<polygon fill="white" stroke="#bfbfbf" points="478.5,-0.5 478.5,-19.5 519.5,-19.5 519.5,-0.5 478.5,-0.5"/>
<text text-anchor="middle" x="499" y="-7.5" font-family="Helvetica,sans-Serif" font-size="10.00">string</text>
</a>
</g>
</g>
<!-- Node7&#45;&gt;Node10 -->
<g id="edge11" class="edge">
<title>Node7&#45;&gt;Node10</title>
<path fill="none" stroke="midnightblue" d="M424.3,-56.32C438.18,-47.9 459.49,-34.97 475.8,-25.07"/>
<polygon fill="midnightblue" stroke="midnightblue" points="478,-27.83 484.74,-19.65 474.37,-21.85 478,-27.83"/>
</g>
<!-- Node7&#45;&gt;Node11 -->
<g id="edge12" class="edge">
<title>Node7&#45;&gt;Node11</title>
<path fill="none" stroke="midnightblue" d="M440.9,-56.44C474.27,-47.2 527.59,-32.44 564.35,-22.26"/>
<polygon fill="midnightblue" stroke="midnightblue" points="565.54,-25.56 574.25,-19.52 563.67,-18.81 565.54,-25.56"/>
</g>
<!-- Node12 -->
<g id="node12" class="node">
<title>Node12</title>
<g id="a_node12"><a xlink:title=" ">
<polygon fill="white" stroke="#bfbfbf" points="247.5,-0.5 247.5,-19.5 330.5,-19.5 330.5,-0.5 247.5,-0.5"/>
<text text-anchor="middle" x="289" y="-7.5" font-family="Helvetica,sans-Serif" font-size="10.00">xtensor/xio.hpp</text>
</a>
</g>
</g>
<!-- Node7&#45;&gt;Node12 -->
<g id="edge13" class="edge">
<title>Node7&#45;&gt;Node12</title>
<path fill="none" stroke="midnightblue" d="M390.83,-56.44C371.09,-47.64 340.11,-33.81 317.51,-23.72"/>
<polygon fill="midnightblue" stroke="midnightblue" points="318.64,-20.4 308.08,-19.52 315.79,-26.79 318.64,-20.4"/>
</g>
</g>
</svg>
