<?xml version="1.0" encoding="UTF-8" standalone="no"?>
<!DOCTYPE svg PUBLIC "-//W3C//DTD SVG 1.1//EN"
 "http://www.w3.org/Graphics/SVG/1.1/DTD/svg11.dtd">
<!-- Generated by graphviz version 2.40.1 (20161225.0304)
 -->
<!-- Title: ChBodyAddedMass.cpp Pages: 1 -->
<svg width="308pt" height="207pt"
 viewBox="0.00 0.00 307.50 207.00" xmlns="http://www.w3.org/2000/svg" xmlns:xlink="http://www.w3.org/1999/xlink">
<g id="graph0" class="graph" transform="scale(1 1) rotate(0) translate(4 203)">
<title>ChBodyAddedMass.cpp</title>
<polygon fill="#ffffff" stroke="transparent" points="-4,4 -4,-203 303.5,-203 303.5,4 -4,4"/>
<!-- Node0 -->
<g id="node1" class="node">
<title>Node0</title>
<polygon fill="#bfbfbf" stroke="#000000" points="120.5,-179.5 120.5,-198.5 242.5,-198.5 242.5,-179.5 120.5,-179.5"/>
<text text-anchor="middle" x="181.5" y="-186.5" font-family="Helvetica,sans-Serif" font-size="10.00" fill="#000000">ChBodyAddedMass.cpp</text>
</g>
<!-- Node1 -->
<g id="node2" class="node">
<title>Node1</title>
<g id="a_node2"><a xlink:href="_ch_body_added_mass_8h.html" target="_top" xlink:title="ChBodyAddedMass.h">
<polygon fill="#ffffff" stroke="#000000" points="83.5,-123.5 83.5,-142.5 195.5,-142.5 195.5,-123.5 83.5,-123.5"/>
<text text-anchor="middle" x="139.5" y="-130.5" font-family="Helvetica,sans-Serif" font-size="10.00" fill="#000000">ChBodyAddedMass.h</text>
</a>
</g>
</g>
<!-- Node0&#45;&gt;Node1 -->
<g id="edge1" class="edge">
<title>Node0&#45;&gt;Node1</title>
<path fill="none" stroke="#191970" d="M174.1842,-179.2455C168.2821,-171.3761 159.8258,-160.101 152.7406,-150.6542"/>
<polygon fill="#191970" stroke="#191970" points="155.5321,-148.5427 146.732,-142.6427 149.932,-152.7427 155.5321,-148.5427"/>
</g>
<!-- Node3 -->
<g id="node4" class="node">
<title>Node3</title>
<g id="a_node4"><a xlink:href="_ch_variables_body_added_mass_8h.html" target="_top" xlink:title="ChVariablesBodyAddedMass.h">
<polygon fill="#ffffff" stroke="#000000" points="147.5,-67.5 147.5,-86.5 299.5,-86.5 299.5,-67.5 147.5,-67.5"/>
<text text-anchor="middle" x="223.5" y="-74.5" font-family="Helvetica,sans-Serif" font-size="10.00" fill="#000000">ChVariablesBodyAddedMass.h</text>
</a>
</g>
</g>
<!-- Node0&#45;&gt;Node3 -->
<g id="edge5" class="edge">
<title>Node0&#45;&gt;Node3</title>
<path fill="none" stroke="#191970" d="M186.9693,-179.3666C192.0041,-170.2193 199.4375,-155.9763 204.5,-143 210.4589,-127.7262 215.4978,-109.8197 218.8861,-96.5148"/>
<polygon fill="#191970" stroke="#191970" points="222.3399,-97.1263 221.3278,-86.5799 215.5422,-95.4555 222.3399,-97.1263"/>
</g>
<!-- Node2 -->
<g id="node3" class="node">
<title>Node2</title>
<polygon fill="#ffffff" stroke="#bfbfbf" points="0,-67.5 0,-86.5 129,-86.5 129,-67.5 0,-67.5"/>
<text text-anchor="middle" x="64.5" y="-74.5" font-family="Helvetica,sans-Serif" font-size="10.00" fill="#000000">chrono/physics/ChBody.h</text>
</g>
<!-- Node1&#45;&gt;Node2 -->
<g id="edge2" class="edge">
<title>Node1&#45;&gt;Node2</title>
<path fill="none" stroke="#191970" d="M126.436,-123.2455C115.1438,-114.814 98.6155,-102.4729 85.4729,-92.6598"/>
<polygon fill="#191970" stroke="#191970" points="87.5211,-89.8211 77.4143,-86.6427 83.3331,-95.4301 87.5211,-89.8211"/>
</g>
<!-- Node1&#45;&gt;Node3 -->
<g id="edge3" class="edge">
<title>Node1&#45;&gt;Node3</title>
<path fill="none" stroke="#191970" d="M154.1317,-123.2455C166.8994,-114.7337 185.6438,-102.2375 200.4299,-92.3801"/>
<polygon fill="#191970" stroke="#191970" points="202.6569,-95.1019 209.036,-86.6427 198.774,-89.2775 202.6569,-95.1019"/>
</g>
<!-- Node4 -->
<g id="node5" class="node">
<title>Node4</title>
<polygon fill="#ffffff" stroke="#bfbfbf" points="158,-.5 158,-30.5 289,-30.5 289,-.5 158,-.5"/>
<text text-anchor="start" x="166" y="-18.5" font-family="Helvetica,sans-Serif" font-size="10.00" fill="#000000">chrono/solver/ChVariables</text>
<text text-anchor="middle" x="223.5" y="-7.5" font-family="Helvetica,sans-Serif" font-size="10.00" fill="#000000">BodyOwnMass.h</text>
</g>
<!-- Node3&#45;&gt;Node4 -->
<g id="edge4" class="edge">
<title>Node3&#45;&gt;Node4</title>
<path fill="none" stroke="#191970" d="M223.5,-67.3906C223.5,-60.2234 223.5,-50.0862 223.5,-40.671"/>
<polygon fill="#191970" stroke="#191970" points="227.0001,-40.5446 223.5,-30.5446 220.0001,-40.5446 227.0001,-40.5446"/>
</g>
</g>
</svg>
