<?xml version="1.0" encoding="UTF-8" standalone="no"?>
<!DOCTYPE svg PUBLIC "-//W3C//DTD SVG 1.1//EN"
 "http://www.w3.org/Graphics/SVG/1.1/DTD/svg11.dtd">
<!-- Generated by graphviz version 2.40.1 (20161225.0304)
 -->
<!-- Title: ChBodyAddedMass.h Pages: 1 -->
<svg width="308pt" height="151pt"
 viewBox="0.00 0.00 307.50 151.00" xmlns="http://www.w3.org/2000/svg" xmlns:xlink="http://www.w3.org/1999/xlink">
<g id="graph0" class="graph" transform="scale(1 1) rotate(0) translate(4 147)">
<title>ChBodyAddedMass.h</title>
<polygon fill="#ffffff" stroke="transparent" points="-4,4 -4,-147 303.5,-147 303.5,4 -4,4"/>
<!-- Node0 -->
<g id="node1" class="node">
<title>Node0</title>
<polygon fill="#bfbfbf" stroke="#000000" points="87.5,-123.5 87.5,-142.5 199.5,-142.5 199.5,-123.5 87.5,-123.5"/>
<text text-anchor="middle" x="143.5" y="-130.5" font-family="Helvetica,sans-Serif" font-size="10.00" fill="#000000">ChBodyAddedMass.h</text>
</g>
<!-- Node1 -->
<g id="node2" class="node">
<title>Node1</title>
<polygon fill="#ffffff" stroke="#bfbfbf" points="0,-67.5 0,-86.5 129,-86.5 129,-67.5 0,-67.5"/>
<text text-anchor="middle" x="64.5" y="-74.5" font-family="Helvetica,sans-Serif" font-size="10.00" fill="#000000">chrono/physics/ChBody.h</text>
</g>
<!-- Node0&#45;&gt;Node1 -->
<g id="edge1" class="edge">
<title>Node0&#45;&gt;Node1</title>
<path fill="none" stroke="#191970" d="M129.7393,-123.2455C117.8448,-114.814 100.435,-102.4729 86.5915,-92.6598"/>
<polygon fill="#191970" stroke="#191970" points="88.2854,-89.5704 78.1031,-86.6427 84.2372,-95.2811 88.2854,-89.5704"/>
</g>
<!-- Node2 -->
<g id="node3" class="node">
<title>Node2</title>
<g id="a_node3"><a xlink:href="_ch_variables_body_added_mass_8h.html" target="_top" xlink:title="ChVariablesBodyAddedMass.h">
<polygon fill="#ffffff" stroke="#000000" points="147.5,-67.5 147.5,-86.5 299.5,-86.5 299.5,-67.5 147.5,-67.5"/>
<text text-anchor="middle" x="223.5" y="-74.5" font-family="Helvetica,sans-Serif" font-size="10.00" fill="#000000">ChVariablesBodyAddedMass.h</text>
</a>
</g>
</g>
<!-- Node0&#45;&gt;Node2 -->
<g id="edge2" class="edge">
<title>Node0&#45;&gt;Node2</title>
<path fill="none" stroke="#191970" d="M157.4349,-123.2455C169.5947,-114.7337 187.4464,-102.2375 201.5285,-92.3801"/>
<polygon fill="#191970" stroke="#191970" points="203.5395,-95.2447 209.7248,-86.6427 199.5253,-89.51 203.5395,-95.2447"/>
</g>
<!-- Node3 -->
<g id="node4" class="node">
<title>Node3</title>
<polygon fill="#ffffff" stroke="#bfbfbf" points="158,-.5 158,-30.5 289,-30.5 289,-.5 158,-.5"/>
<text text-anchor="start" x="166" y="-18.5" font-family="Helvetica,sans-Serif" font-size="10.00" fill="#000000">chrono/solver/ChVariables</text>
<text text-anchor="middle" x="223.5" y="-7.5" font-family="Helvetica,sans-Serif" font-size="10.00" fill="#000000">BodyOwnMass.h</text>
</g>
<!-- Node2&#45;&gt;Node3 -->
<g id="edge3" class="edge">
<title>Node2&#45;&gt;Node3</title>
<path fill="none" stroke="#191970" d="M223.5,-67.3906C223.5,-60.2234 223.5,-50.0862 223.5,-40.671"/>
<polygon fill="#191970" stroke="#191970" points="227.0001,-40.5446 223.5,-30.5446 220.0001,-40.5446 227.0001,-40.5446"/>
</g>
</g>
</svg>
