<?xml version="1.0" encoding="UTF-8" standalone="no"?>
<!DOCTYPE svg PUBLIC "-//W3C//DTD SVG 1.1//EN"
 "http://www.w3.org/Graphics/SVG/1.1/DTD/svg11.dtd">
<!-- Generated by graphviz version 2.40.1 (20161225.0304)
 -->
<!-- Title: ChVariablesBodyAddedMass.cpp Pages: 1 -->
<svg width="171pt" height="151pt"
 viewBox="0.00 0.00 171.00 151.00" xmlns="http://www.w3.org/2000/svg" xmlns:xlink="http://www.w3.org/1999/xlink">
<g id="graph0" class="graph" transform="scale(1 1) rotate(0) translate(4 147)">
<title>ChVariablesBodyAddedMass.cpp</title>
<polygon fill="#ffffff" stroke="transparent" points="-4,4 -4,-147 167,-147 167,4 -4,4"/>
<!-- Node0 -->
<g id="node1" class="node">
<title>Node0</title>
<polygon fill="#bfbfbf" stroke="#000000" points="0,-123.5 0,-142.5 163,-142.5 163,-123.5 0,-123.5"/>
<text text-anchor="middle" x="81.5" y="-130.5" font-family="Helvetica,sans-Serif" font-size="10.00" fill="#000000">ChVariablesBodyAddedMass.cpp</text>
</g>
<!-- Node1 -->
<g id="node2" class="node">
<title>Node1</title>
<g id="a_node2"><a xlink:href="_ch_variables_body_added_mass_8h.html" target="_top" xlink:title="ChVariablesBodyAddedMass.h">
<polygon fill="#ffffff" stroke="#000000" points="5.5,-67.5 5.5,-86.5 157.5,-86.5 157.5,-67.5 5.5,-67.5"/>
<text text-anchor="middle" x="81.5" y="-74.5" font-family="Helvetica,sans-Serif" font-size="10.00" fill="#000000">ChVariablesBodyAddedMass.h</text>
</a>
</g>
</g>
<!-- Node0&#45;&gt;Node1 -->
<g id="edge1" class="edge">
<title>Node0&#45;&gt;Node1</title>
<path fill="none" stroke="#191970" d="M81.5,-123.2455C81.5,-115.9382 81.5,-105.6944 81.5,-96.7046"/>
<polygon fill="#191970" stroke="#191970" points="85.0001,-96.6426 81.5,-86.6427 78.0001,-96.6427 85.0001,-96.6426"/>
</g>
<!-- Node2 -->
<g id="node3" class="node">
<title>Node2</title>
<polygon fill="#ffffff" stroke="#bfbfbf" points="16,-.5 16,-30.5 147,-30.5 147,-.5 16,-.5"/>
<text text-anchor="start" x="24" y="-18.5" font-family="Helvetica,sans-Serif" font-size="10.00" fill="#000000">chrono/solver/ChVariables</text>
<text text-anchor="middle" x="81.5" y="-7.5" font-family="Helvetica,sans-Serif" font-size="10.00" fill="#000000">BodyOwnMass.h</text>
</g>
<!-- Node1&#45;&gt;Node2 -->
<g id="edge2" class="edge">
<title>Node1&#45;&gt;Node2</title>
<path fill="none" stroke="#191970" d="M81.5,-67.3906C81.5,-60.2234 81.5,-50.0862 81.5,-40.671"/>
<polygon fill="#191970" stroke="#191970" points="85.0001,-40.5446 81.5,-30.5446 78.0001,-40.5446 85.0001,-40.5446"/>
</g>
</g>
</svg>
