<?xml version="1.0" encoding="UTF-8" standalone="no"?>
<!DOCTYPE svg PUBLIC "-//W3C//DTD SVG 1.1//EN"
 "http://www.w3.org/Graphics/SVG/1.1/DTD/svg11.dtd">
<!-- Generated by graphviz version 2.44.1 (20200629.0846)
 -->
<!-- Title: ChVariablesBodyAddedMass.h Pages: 1 -->
<svg width="347pt" height="140pt"
 viewBox="0.00 0.00 347.00 140.00" xmlns="http://www.w3.org/2000/svg" xmlns:xlink="http://www.w3.org/1999/xlink">
<g id="graph0" class="graph" transform="scale(1 1) rotate(0) translate(4 136)">
<title>ChVariablesBodyAddedMass.h</title>
<polygon fill="white" stroke="transparent" points="-4,4 -4,-136 343,-136 343,4 -4,4"/>
<!-- Node1 -->
<g id="node1" class="node">
<title>Node1</title>
<g id="a_node1"><a xlink:title=" ">
<polygon fill="#bfbfbf" stroke="black" points="27,-112.5 27,-131.5 179,-131.5 179,-112.5 27,-112.5"/>
<text text-anchor="middle" x="103" y="-119.5" font-family="Helvetica,sans-Serif" font-size="10.00">ChVariablesBodyAddedMass.h</text>
</a>
</g>
</g>
<!-- Node2 -->
<g id="node2" class="node">
<title>Node2</title>
<g id="a_node2"><a xlink:href="_ch_body_added_mass_8cpp.html" target="_top" xlink:title=" ">
<polygon fill="white" stroke="black" points="0,-0.5 0,-19.5 122,-19.5 122,-0.5 0,-0.5"/>
<text text-anchor="middle" x="61" y="-7.5" font-family="Helvetica,sans-Serif" font-size="10.00">ChBodyAddedMass.cpp</text>
</a>
</g>
</g>
<!-- Node1&#45;&gt;Node2 -->
<g id="edge1" class="edge">
<title>Node1&#45;&gt;Node2</title>
<path fill="none" stroke="midnightblue" d="M71.98,-107.67C59.01,-100.35 45.28,-89.89 38,-76 28,-56.91 43.43,-32.53 53.48,-19.74"/>
<polygon fill="midnightblue" stroke="midnightblue" points="70.7,-110.95 81.19,-112.45 73.93,-104.73 70.7,-110.95"/>
</g>
<!-- Node3 -->
<g id="node3" class="node">
<title>Node3</title>
<g id="a_node3"><a xlink:href="_ch_body_added_mass_8h.html" target="_top" xlink:title=" ">
<polygon fill="white" stroke="black" points="47,-56.5 47,-75.5 159,-75.5 159,-56.5 47,-56.5"/>
<text text-anchor="middle" x="103" y="-63.5" font-family="Helvetica,sans-Serif" font-size="10.00">ChBodyAddedMass.h</text>
</a>
</g>
</g>
<!-- Node1&#45;&gt;Node3 -->
<g id="edge2" class="edge">
<title>Node1&#45;&gt;Node3</title>
<path fill="none" stroke="midnightblue" d="M103,-101.8C103,-92.91 103,-82.78 103,-75.75"/>
<polygon fill="midnightblue" stroke="midnightblue" points="99.5,-102.08 103,-112.08 106.5,-102.08 99.5,-102.08"/>
</g>
<!-- Node4 -->
<g id="node4" class="node">
<title>Node4</title>
<g id="a_node4"><a xlink:href="_ch_variables_body_added_mass_8cpp.html" target="_top" xlink:title=" ">
<polygon fill="white" stroke="black" points="177,-56.5 177,-75.5 339,-75.5 339,-56.5 177,-56.5"/>
<text text-anchor="middle" x="258" y="-63.5" font-family="Helvetica,sans-Serif" font-size="10.00">ChVariablesBodyAddedMass.cpp</text>
</a>
</g>
</g>
<!-- Node1&#45;&gt;Node4 -->
<g id="edge4" class="edge">
<title>Node1&#45;&gt;Node4</title>
<path fill="none" stroke="midnightblue" d="M137.33,-109.04C166.5,-98.88 207.64,-84.55 233.55,-75.52"/>
<polygon fill="midnightblue" stroke="midnightblue" points="135.85,-105.85 127.56,-112.44 138.16,-112.46 135.85,-105.85"/>
</g>
<!-- Node3&#45;&gt;Node2 -->
<g id="edge3" class="edge">
<title>Node3&#45;&gt;Node2</title>
<path fill="none" stroke="midnightblue" d="M89.89,-48.14C82.57,-38.74 73.76,-27.4 67.81,-19.75"/>
<polygon fill="midnightblue" stroke="midnightblue" points="87.16,-50.34 96.06,-56.08 92.69,-46.04 87.16,-50.34"/>
</g>
</g>
</svg>
