<?xml version="1.0" encoding="UTF-8" standalone="no"?>
<!DOCTYPE svg PUBLIC "-//W3C//DTD SVG 1.1//EN"
 "http://www.w3.org/Graphics/SVG/1.1/DTD/svg11.dtd">
<!-- Generated by graphviz version 2.40.1 (20161225.0304)
 -->
<!-- Title: ChVariablesBodyAddedMass.h Pages: 1 -->
<svg width="340pt" height="140pt"
 viewBox="0.00 0.00 339.50 140.00" xmlns="http://www.w3.org/2000/svg" xmlns:xlink="http://www.w3.org/1999/xlink">
<g id="graph0" class="graph" transform="scale(1 1) rotate(0) translate(4 136)">
<title>ChVariablesBodyAddedMass.h</title>
<polygon fill="#ffffff" stroke="transparent" points="-4,4 -4,-136 335.5,-136 335.5,4 -4,4"/>
<!-- Node2 -->
<g id="node1" class="node">
<title>Node2</title>
<polygon fill="#bfbfbf" stroke="#000000" points="64,-112.5 64,-131.5 216,-131.5 216,-112.5 64,-112.5"/>
<text text-anchor="middle" x="140" y="-119.5" font-family="Helvetica,sans-Serif" font-size="10.00" fill="#000000">ChVariablesBodyAddedMass.h</text>
</g>
<!-- Node3 -->
<g id="node2" class="node">
<title>Node3</title>
<g id="a_node2"><a xlink:href="_ch_body_added_mass_8h.html" target="_top" xlink:title="ChBodyAddedMass.h">
<polygon fill="#ffffff" stroke="#000000" points="0,-56.5 0,-75.5 112,-75.5 112,-56.5 0,-56.5"/>
<text text-anchor="middle" x="56" y="-63.5" font-family="Helvetica,sans-Serif" font-size="10.00" fill="#000000">ChBodyAddedMass.h</text>
</a>
</g>
</g>
<!-- Node2&#45;&gt;Node3 -->
<g id="edge1" class="edge">
<title>Node2&#45;&gt;Node3</title>
<path fill="none" stroke="#191970" d="M116.7351,-106.49C101.9144,-96.6096 83.1791,-84.1194 70.464,-75.6427"/>
<polygon fill="#191970" stroke="#191970" points="115.1063,-109.6107 125.3683,-112.2455 118.9893,-103.7863 115.1063,-109.6107"/>
</g>
<!-- Node4 -->
<g id="node3" class="node">
<title>Node4</title>
<g id="a_node3"><a xlink:href="_ch_body_added_mass_8cpp.html" target="_top" xlink:title="ChBodyAddedMass.cpp">
<polygon fill="#ffffff" stroke="#000000" points="37,-.5 37,-19.5 159,-19.5 159,-.5 37,-.5"/>
<text text-anchor="middle" x="98" y="-7.5" font-family="Helvetica,sans-Serif" font-size="10.00" fill="#000000">ChBodyAddedMass.cpp</text>
</a>
</g>
</g>
<!-- Node2&#45;&gt;Node4 -->
<g id="edge3" class="edge">
<title>Node2&#45;&gt;Node4</title>
<path fill="none" stroke="#191970" d="M135.3861,-102.4852C131.9978,-89.1803 126.9589,-71.2738 121,-56 115.9375,-43.0237 108.5041,-28.7807 103.4693,-19.6334"/>
<polygon fill="#191970" stroke="#191970" points="132.0422,-103.5445 137.8278,-112.4201 138.8399,-101.8737 132.0422,-103.5445"/>
</g>
<!-- Node5 -->
<g id="node4" class="node">
<title>Node5</title>
<g id="a_node4"><a xlink:href="_ch_variables_body_added_mass_8cpp.html" target="_top" xlink:title="ChVariablesBodyAddedMass.cpp">
<polygon fill="#ffffff" stroke="#000000" points="168.5,-56.5 168.5,-75.5 331.5,-75.5 331.5,-56.5 168.5,-56.5"/>
<text text-anchor="middle" x="250" y="-63.5" font-family="Helvetica,sans-Serif" font-size="10.00" fill="#000000">ChVariablesBodyAddedMass.cpp</text>
</a>
</g>
</g>
<!-- Node2&#45;&gt;Node5 -->
<g id="edge4" class="edge">
<title>Node2&#45;&gt;Node5</title>
<path fill="none" stroke="#191970" d="M168.2914,-107.5971C188.0111,-97.558 213.78,-84.4393 231.059,-75.6427"/>
<polygon fill="#191970" stroke="#191970" points="166.4843,-104.5896 159.1605,-112.2455 169.6601,-110.8277 166.4843,-104.5896"/>
</g>
<!-- Node3&#45;&gt;Node4 -->
<g id="edge2" class="edge">
<title>Node3&#45;&gt;Node4</title>
<path fill="none" stroke="#191970" d="M69.3416,-48.2112C76.4396,-38.7472 84.8903,-27.4797 90.768,-19.6427"/>
<polygon fill="#191970" stroke="#191970" points="66.5159,-46.1455 63.3158,-56.2455 72.1159,-50.3455 66.5159,-46.1455"/>
</g>
</g>
</svg>
