<?xml version="1.0" encoding="UTF-8" standalone="no"?>
<!DOCTYPE svg PUBLIC "-//W3C//DTD SVG 1.1//EN"
 "http://www.w3.org/Graphics/SVG/1.1/DTD/svg11.dtd">
<!-- Generated by graphviz version 2.50.0 (20211204.2007)
 -->
<!-- Title: ChBodyAddedMass.h Pages: 1 -->
<svg width="306pt" height="151pt"
 viewBox="0.00 0.00 306.00 151.00" xmlns="http://www.w3.org/2000/svg" xmlns:xlink="http://www.w3.org/1999/xlink">
<g id="graph0" class="graph" transform="scale(1 1) rotate(0) translate(4 147)">
<title>ChBodyAddedMass.h</title>
<polygon fill="white" stroke="transparent" points="-4,4 -4,-147 302,-147 302,4 -4,4"/>
<!-- Node1 -->
<g id="node1" class="node">
<title>Node1</title>
<g id="a_node1"><a xlink:title=" ">
<polygon fill="#bfbfbf" stroke="black" points="87,-123.5 87,-142.5 199,-142.5 199,-123.5 87,-123.5"/>
<text text-anchor="middle" x="143" y="-130.5" font-family="Helvetica,sans-Serif" font-size="10.00">ChBodyAddedMass.h</text>
</a>
</g>
</g>
<!-- Node2 -->
<g id="node2" class="node">
<title>Node2</title>
<g id="a_node2"><a xlink:title=" ">
<polygon fill="white" stroke="#bfbfbf" points="0,-67.5 0,-86.5 128,-86.5 128,-67.5 0,-67.5"/>
<text text-anchor="middle" x="64" y="-74.5" font-family="Helvetica,sans-Serif" font-size="10.00">chrono/physics/ChBody.h</text>
</a>
</g>
</g>
<!-- Node1&#45;&gt;Node2 -->
<g id="edge1" class="edge">
<title>Node1&#45;&gt;Node2</title>
<path fill="none" stroke="midnightblue" d="M130.31,-123.32C118.1,-114.98 99.42,-102.21 85,-92.35"/>
<polygon fill="midnightblue" stroke="midnightblue" points="86.89,-89.41 76.66,-86.65 82.94,-95.19 86.89,-89.41"/>
</g>
<!-- Node3 -->
<g id="node3" class="node">
<title>Node3</title>
<g id="a_node3"><a xlink:href="_ch_variables_body_added_mass_8h.html" target="_top" xlink:title=" ">
<polygon fill="white" stroke="black" points="146,-67.5 146,-86.5 298,-86.5 298,-67.5 146,-67.5"/>
<text text-anchor="middle" x="222" y="-74.5" font-family="Helvetica,sans-Serif" font-size="10.00">ChVariablesBodyAddedMass.h</text>
</a>
</g>
</g>
<!-- Node1&#45;&gt;Node3 -->
<g id="edge2" class="edge">
<title>Node1&#45;&gt;Node3</title>
<path fill="none" stroke="midnightblue" d="M155.69,-123.32C167.9,-114.98 186.58,-102.21 201,-92.35"/>
<polygon fill="midnightblue" stroke="midnightblue" points="203.06,-95.19 209.34,-86.65 199.11,-89.41 203.06,-95.19"/>
</g>
<!-- Node4 -->
<g id="node4" class="node">
<title>Node4</title>
<g id="a_node4"><a xlink:title=" ">
<polygon fill="white" stroke="#bfbfbf" points="156.5,-0.5 156.5,-30.5 287.5,-30.5 287.5,-0.5 156.5,-0.5"/>
<text text-anchor="start" x="164.5" y="-18.5" font-family="Helvetica,sans-Serif" font-size="10.00">chrono/solver/ChVariables</text>
<text text-anchor="middle" x="222" y="-7.5" font-family="Helvetica,sans-Serif" font-size="10.00">BodyOwnMass.h</text>
</a>
</g>
</g>
<!-- Node3&#45;&gt;Node4 -->
<g id="edge3" class="edge">
<title>Node3&#45;&gt;Node4</title>
<path fill="none" stroke="midnightblue" d="M222,-67.48C222,-60.47 222,-50.19 222,-40.7"/>
<polygon fill="midnightblue" stroke="midnightblue" points="225.5,-40.52 222,-30.52 218.5,-40.52 225.5,-40.52"/>
</g>
</g>
</svg>
