<?xml version="1.0" encoding="UTF-8" standalone="no"?>
<!DOCTYPE svg PUBLIC "-//W3C//DTD SVG 1.1//EN"
 "http://www.w3.org/Graphics/SVG/1.1/DTD/svg11.dtd">
<!-- Generated by graphviz version 2.50.0 (20211204.2007)
 -->
<!-- Title: ChBodyAddedMass.cpp Pages: 1 -->
<svg width="306pt" height="207pt"
 viewBox="0.00 0.00 306.00 207.00" xmlns="http://www.w3.org/2000/svg" xmlns:xlink="http://www.w3.org/1999/xlink">
<g id="graph0" class="graph" transform="scale(1 1) rotate(0) translate(4 203)">
<title>ChBodyAddedMass.cpp</title>
<polygon fill="white" stroke="transparent" points="-4,4 -4,-203 302,-203 302,4 -4,4"/>
<!-- Node1 -->
<g id="node1" class="node">
<title>Node1</title>
<g id="a_node1"><a xlink:title=" ">
<polygon fill="#bfbfbf" stroke="black" points="119,-179.5 119,-198.5 241,-198.5 241,-179.5 119,-179.5"/>
<text text-anchor="middle" x="180" y="-186.5" font-family="Helvetica,sans-Serif" font-size="10.00">ChBodyAddedMass.cpp</text>
</a>
</g>
</g>
<!-- Node2 -->
<g id="node2" class="node">
<title>Node2</title>
<g id="a_node2"><a xlink:href="_ch_body_added_mass_8h.html" target="_top" xlink:title=" ">
<polygon fill="white" stroke="black" points="82,-123.5 82,-142.5 194,-142.5 194,-123.5 82,-123.5"/>
<text text-anchor="middle" x="138" y="-130.5" font-family="Helvetica,sans-Serif" font-size="10.00">ChBodyAddedMass.h</text>
</a>
</g>
</g>
<!-- Node1&#45;&gt;Node2 -->
<g id="edge1" class="edge">
<title>Node1&#45;&gt;Node2</title>
<path fill="none" stroke="midnightblue" d="M173.06,-179.08C167.07,-171.38 158.25,-160.03 150.95,-150.65"/>
<polygon fill="midnightblue" stroke="midnightblue" points="153.71,-148.5 144.81,-142.75 148.18,-152.79 153.71,-148.5"/>
</g>
<!-- Node4 -->
<g id="node4" class="node">
<title>Node4</title>
<g id="a_node4"><a xlink:href="_ch_variables_body_added_mass_8h.html" target="_top" xlink:title=" ">
<polygon fill="white" stroke="black" points="146,-67.5 146,-86.5 298,-86.5 298,-67.5 146,-67.5"/>
<text text-anchor="middle" x="222" y="-74.5" font-family="Helvetica,sans-Serif" font-size="10.00">ChVariablesBodyAddedMass.h</text>
</a>
</g>
</g>
<!-- Node1&#45;&gt;Node4 -->
<g id="edge5" class="edge">
<title>Node1&#45;&gt;Node4</title>
<path fill="none" stroke="midnightblue" d="M185.09,-179.26C190.13,-170.36 197.81,-156.04 203,-143 209.11,-127.64 214.24,-109.54 217.62,-96.35"/>
<polygon fill="midnightblue" stroke="midnightblue" points="221.03,-97.13 220.04,-86.59 214.24,-95.45 221.03,-97.13"/>
</g>
<!-- Node3 -->
<g id="node3" class="node">
<title>Node3</title>
<g id="a_node3"><a xlink:title=" ">
<polygon fill="white" stroke="#bfbfbf" points="0,-67.5 0,-86.5 128,-86.5 128,-67.5 0,-67.5"/>
<text text-anchor="middle" x="64" y="-74.5" font-family="Helvetica,sans-Serif" font-size="10.00">chrono/physics/ChBody.h</text>
</a>
</g>
</g>
<!-- Node2&#45;&gt;Node3 -->
<g id="edge2" class="edge">
<title>Node2&#45;&gt;Node3</title>
<path fill="none" stroke="midnightblue" d="M126.11,-123.32C114.85,-115.11 97.71,-102.6 84.29,-92.81"/>
<polygon fill="midnightblue" stroke="midnightblue" points="86.25,-89.9 76.11,-86.83 82.12,-95.56 86.25,-89.9"/>
</g>
<!-- Node2&#45;&gt;Node4 -->
<g id="edge3" class="edge">
<title>Node2&#45;&gt;Node4</title>
<path fill="none" stroke="midnightblue" d="M151.5,-123.32C164.6,-114.9 184.71,-101.97 200.11,-92.07"/>
<polygon fill="midnightblue" stroke="midnightblue" points="202.02,-95.01 208.54,-86.65 198.23,-89.12 202.02,-95.01"/>
</g>
<!-- Node5 -->
<g id="node5" class="node">
<title>Node5</title>
<g id="a_node5"><a xlink:title=" ">
<polygon fill="white" stroke="#bfbfbf" points="156.5,-0.5 156.5,-30.5 287.5,-30.5 287.5,-0.5 156.5,-0.5"/>
<text text-anchor="start" x="164.5" y="-18.5" font-family="Helvetica,sans-Serif" font-size="10.00">chrono/solver/ChVariables</text>
<text text-anchor="middle" x="222" y="-7.5" font-family="Helvetica,sans-Serif" font-size="10.00">BodyOwnMass.h</text>
</a>
</g>
</g>
<!-- Node4&#45;&gt;Node5 -->
<g id="edge4" class="edge">
<title>Node4&#45;&gt;Node5</title>
<path fill="none" stroke="midnightblue" d="M222,-67.48C222,-60.47 222,-50.19 222,-40.7"/>
<polygon fill="midnightblue" stroke="midnightblue" points="225.5,-40.52 222,-30.52 218.5,-40.52 225.5,-40.52"/>
</g>
</g>
</svg>
