<?xml version="1.0" encoding="UTF-8" standalone="no"?>
<!DOCTYPE svg PUBLIC "-//W3C//DTD SVG 1.1//EN"
 "http://www.w3.org/Graphics/SVG/1.1/DTD/svg11.dtd">
<!-- Generated by graphviz version 2.44.1 (20200629.0846)
 -->
<!-- Title: CompKernel.h Pages: 1 -->
<svg width="2799pt" height="140pt"
 viewBox="0.00 0.00 2798.50 140.00" xmlns="http://www.w3.org/2000/svg" xmlns:xlink="http://www.w3.org/1999/xlink">
<g id="graph0" class="graph" transform="scale(1 1) rotate(0) translate(4 136)">
<title>CompKernel.h</title>
<polygon fill="white" stroke="transparent" points="-4,4 -4,-136 2794.5,-136 2794.5,4 -4,4"/>
<!-- Node1 -->
<g id="node1" class="node">
<title>Node1</title>
<g id="a_node1"><a xlink:title=" ">
<polygon fill="#bfbfbf" stroke="black" points="1408,-112.5 1408,-131.5 1487,-131.5 1487,-112.5 1408,-112.5"/>
<text text-anchor="middle" x="1447.5" y="-119.5" font-family="Helvetica,sans-Serif" font-size="10.00">CompKernel.h</text>
</a>
</g>
</g>
<!-- Node2 -->
<g id="node2" class="node">
<title>Node2</title>
<g id="a_node2"><a xlink:href="_a_d_r_8h.html" target="_top" xlink:title=" ">
<polygon fill="white" stroke="black" points="18,-56.5 18,-75.5 65,-75.5 65,-56.5 18,-56.5"/>
<text text-anchor="middle" x="41.5" y="-63.5" font-family="Helvetica,sans-Serif" font-size="10.00">ADR.h</text>
</a>
</g>
</g>
<!-- Node1&#45;&gt;Node2 -->
<g id="edge1" class="edge">
<title>Node1&#45;&gt;Node2</title>
<path fill="none" stroke="midnightblue" d="M1397.51,-120.69C1183.29,-119.17 341.82,-111.02 79.5,-76 74.8,-75.37 69.82,-74.41 65.08,-73.35"/>
<polygon fill="midnightblue" stroke="midnightblue" points="1397.79,-124.19 1407.82,-120.76 1397.84,-117.19 1397.79,-124.19"/>
</g>
<!-- Node4 -->
<g id="node4" class="node">
<title>Node4</title>
<g id="a_node4"><a xlink:href="_elasto_plastic_8h.html" target="_top" xlink:title=" ">
<polygon fill="white" stroke="black" points="89,-56.5 89,-75.5 172,-75.5 172,-56.5 89,-56.5"/>
<text text-anchor="middle" x="130.5" y="-63.5" font-family="Helvetica,sans-Serif" font-size="10.00">ElastoPlastic.h</text>
</a>
</g>
</g>
<!-- Node1&#45;&gt;Node4 -->
<g id="edge3" class="edge">
<title>Node1&#45;&gt;Node4</title>
<path fill="none" stroke="midnightblue" d="M1397.74,-121.15C1228.52,-121.24 659.88,-118.18 192.5,-76 185.89,-75.4 178.91,-74.58 172.11,-73.67"/>
<polygon fill="midnightblue" stroke="midnightblue" points="1397.84,-124.65 1407.84,-121.14 1397.83,-117.65 1397.84,-124.65"/>
</g>
<!-- Node6 -->
<g id="node6" class="node">
<title>Node6</title>
<g id="a_node6"><a xlink:href="_added_mass_8h.html" target="_top" xlink:title=" ">
<polygon fill="white" stroke="black" points="202,-56.5 202,-75.5 279,-75.5 279,-56.5 202,-56.5"/>
<text text-anchor="middle" x="240.5" y="-63.5" font-family="Helvetica,sans-Serif" font-size="10.00">AddedMass.h</text>
</a>
</g>
</g>
<!-- Node1&#45;&gt;Node6 -->
<g id="edge5" class="edge">
<title>Node1&#45;&gt;Node6</title>
<path fill="none" stroke="midnightblue" d="M1397.95,-121.09C1238.23,-120.94 722.61,-117.07 298.5,-76 292.21,-75.39 285.57,-74.55 279.11,-73.62"/>
<polygon fill="midnightblue" stroke="midnightblue" points="1397.95,-124.59 1407.95,-121.09 1397.95,-117.59 1397.95,-124.59"/>
</g>
<!-- Node8 -->
<g id="node8" class="node">
<title>Node8</title>
<g id="a_node8"><a xlink:href="_c_l_s_v_o_f_8h.html" target="_top" xlink:title=" ">
<polygon fill="white" stroke="black" points="308,-56.5 308,-75.5 371,-75.5 371,-56.5 308,-56.5"/>
<text text-anchor="middle" x="339.5" y="-63.5" font-family="Helvetica,sans-Serif" font-size="10.00">CLSVOF.h</text>
</a>
</g>
</g>
<!-- Node1&#45;&gt;Node8 -->
<g id="edge7" class="edge">
<title>Node1&#45;&gt;Node8</title>
<path fill="none" stroke="midnightblue" d="M1397.11,-121.21C1244.81,-121.34 776.1,-118.05 390.5,-76 384.24,-75.32 377.6,-74.34 371.24,-73.27"/>
<polygon fill="midnightblue" stroke="midnightblue" points="1397.53,-124.71 1407.52,-121.2 1397.52,-117.71 1397.53,-124.71"/>
</g>
<!-- Node10 -->
<g id="node10" class="node">
<title>Node10</title>
<g id="a_node10"><a xlink:href="_dissipation_8h.html" target="_top" xlink:title=" ">
<polygon fill="white" stroke="black" points="399.5,-56.5 399.5,-75.5 473.5,-75.5 473.5,-56.5 399.5,-56.5"/>
<text text-anchor="middle" x="436.5" y="-63.5" font-family="Helvetica,sans-Serif" font-size="10.00">Dissipation.h</text>
</a>
</g>
</g>
<!-- Node1&#45;&gt;Node10 -->
<g id="edge9" class="edge">
<title>Node1&#45;&gt;Node10</title>
<path fill="none" stroke="midnightblue" d="M1397.74,-120.57C1256.02,-118.93 838.28,-111.24 493.5,-76 487.02,-75.34 480.16,-74.43 473.52,-73.45"/>
<polygon fill="midnightblue" stroke="midnightblue" points="1397.82,-124.07 1407.85,-120.68 1397.89,-117.07 1397.82,-124.07"/>
</g>
<!-- Node12 -->
<g id="node12" class="node">
<title>Node12</title>
<g id="a_node12"><a xlink:href="_dissipation2_d_8h.html" target="_top" xlink:title=" ">
<polygon fill="white" stroke="black" points="502.5,-56.5 502.5,-75.5 588.5,-75.5 588.5,-56.5 502.5,-56.5"/>
<text text-anchor="middle" x="545.5" y="-63.5" font-family="Helvetica,sans-Serif" font-size="10.00">Dissipation2D.h</text>
</a>
</g>
</g>
<!-- Node1&#45;&gt;Node12 -->
<g id="edge11" class="edge">
<title>Node1&#45;&gt;Node12</title>
<path fill="none" stroke="midnightblue" d="M1397.6,-119.86C1267.47,-116.56 907.09,-105.28 608.5,-76 602.12,-75.37 595.4,-74.57 588.82,-73.7"/>
<polygon fill="midnightblue" stroke="midnightblue" points="1397.58,-123.36 1407.66,-120.11 1397.76,-116.36 1397.58,-123.36"/>
</g>
<!-- Node14 -->
<g id="node14" class="node">
<title>Node14</title>
<g id="a_node14"><a xlink:href="_g_n___s_w2_d_c_v_8h.html" target="_top" xlink:title=" ">
<polygon fill="white" stroke="black" points="618,-56.5 618,-75.5 705,-75.5 705,-56.5 618,-56.5"/>
<text text-anchor="middle" x="661.5" y="-63.5" font-family="Helvetica,sans-Serif" font-size="10.00">GN_SW2DCV.h</text>
</a>
</g>
</g>
<!-- Node1&#45;&gt;Node14 -->
<g id="edge13" class="edge">
<title>Node1&#45;&gt;Node14</title>
<path fill="none" stroke="midnightblue" d="M1397.71,-119.27C1280.26,-114.89 976.8,-101.83 724.5,-76 718.24,-75.36 711.64,-74.56 705.16,-73.7"/>
<polygon fill="midnightblue" stroke="midnightblue" points="1397.71,-122.77 1407.83,-119.64 1397.97,-115.78 1397.71,-122.77"/>
</g>
<!-- Node16 -->
<g id="node16" class="node">
<title>Node16</title>
<g id="a_node16"><a xlink:href="_kappa_8h.html" target="_top" xlink:title=" ">
<polygon fill="white" stroke="black" points="734,-56.5 734,-75.5 787,-75.5 787,-56.5 734,-56.5"/>
<text text-anchor="middle" x="760.5" y="-63.5" font-family="Helvetica,sans-Serif" font-size="10.00">Kappa.h</text>
</a>
</g>
</g>
<!-- Node1&#45;&gt;Node16 -->
<g id="edge15" class="edge">
<title>Node1&#45;&gt;Node16</title>
<path fill="none" stroke="midnightblue" d="M1397.95,-120.02C1289.38,-117.33 1022.5,-107.78 801.5,-76 796.88,-75.34 792.01,-74.44 787.3,-73.47"/>
<polygon fill="midnightblue" stroke="midnightblue" points="1397.88,-123.52 1407.96,-120.26 1398.05,-116.52 1397.88,-123.52"/>
</g>
<!-- Node18 -->
<g id="node18" class="node">
<title>Node18</title>
<g id="a_node18"><a xlink:href="_kappa2_d_8h.html" target="_top" xlink:title=" ">
<polygon fill="white" stroke="black" points="811,-56.5 811,-75.5 876,-75.5 876,-56.5 811,-56.5"/>
<text text-anchor="middle" x="843.5" y="-63.5" font-family="Helvetica,sans-Serif" font-size="10.00">Kappa2D.h</text>
</a>
</g>
</g>
<!-- Node1&#45;&gt;Node18 -->
<g id="edge17" class="edge">
<title>Node1&#45;&gt;Node18</title>
<path fill="none" stroke="midnightblue" d="M1397.43,-119.29C1298.8,-115.41 1072.58,-104.03 884.5,-76 881.76,-75.59 878.93,-75.11 876.1,-74.58"/>
<polygon fill="midnightblue" stroke="midnightblue" points="1397.57,-122.8 1407.7,-119.68 1397.84,-115.8 1397.57,-122.8"/>
</g>
<!-- Node20 -->
<g id="node20" class="node">
<title>Node20</title>
<g id="a_node20"><a xlink:href="_m_corr_8h.html" target="_top" xlink:title=" ">
<polygon fill="white" stroke="black" points="894,-56.5 894,-75.5 945,-75.5 945,-56.5 894,-56.5"/>
<text text-anchor="middle" x="919.5" y="-63.5" font-family="Helvetica,sans-Serif" font-size="10.00">MCorr.h</text>
</a>
</g>
</g>
<!-- Node1&#45;&gt;Node20 -->
<g id="edge19" class="edge">
<title>Node1&#45;&gt;Node20</title>
<path fill="none" stroke="midnightblue" d="M1397.81,-119.11C1308.5,-115.11 1115.18,-103.81 954.5,-76 951.41,-75.47 948.19,-74.8 945.01,-74.07"/>
<polygon fill="midnightblue" stroke="midnightblue" points="1397.77,-122.61 1407.92,-119.55 1398.08,-115.61 1397.77,-122.61"/>
</g>
<!-- Node22 -->
<g id="node22" class="node">
<title>Node22</title>
<g id="a_node22"><a xlink:href="_m_corr3_p_8h.html" target="_top" xlink:title=" ">
<polygon fill="white" stroke="black" points="963.5,-56.5 963.5,-75.5 1025.5,-75.5 1025.5,-56.5 963.5,-56.5"/>
<text text-anchor="middle" x="994.5" y="-63.5" font-family="Helvetica,sans-Serif" font-size="10.00">MCorr3P.h</text>
</a>
</g>
</g>
<!-- Node1&#45;&gt;Node22 -->
<g id="edge21" class="edge">
<title>Node1&#45;&gt;Node22</title>
<path fill="none" stroke="midnightblue" d="M1397.71,-117.4C1319.85,-111.36 1164.72,-97.67 1034.5,-76 1031.69,-75.53 1028.78,-74.99 1025.88,-74.41"/>
<polygon fill="midnightblue" stroke="midnightblue" points="1397.48,-120.89 1407.72,-118.17 1398.01,-113.91 1397.48,-120.89"/>
</g>
<!-- Node24 -->
<g id="node24" class="node">
<title>Node24</title>
<g id="a_node24"><a xlink:href="_move_mesh_8h.html" target="_top" xlink:title=" ">
<polygon fill="white" stroke="black" points="1044,-56.5 1044,-75.5 1117,-75.5 1117,-56.5 1044,-56.5"/>
<text text-anchor="middle" x="1080.5" y="-63.5" font-family="Helvetica,sans-Serif" font-size="10.00">MoveMesh.h</text>
</a>
</g>
</g>
<!-- Node1&#45;&gt;Node24 -->
<g id="edge23" class="edge">
<title>Node1&#45;&gt;Node24</title>
<path fill="none" stroke="midnightblue" d="M1397.77,-114.87C1334.57,-106.89 1222.18,-92.05 1126.5,-76 1123.45,-75.49 1120.29,-74.93 1117.13,-74.35"/>
<polygon fill="midnightblue" stroke="midnightblue" points="1397.5,-118.37 1407.86,-116.14 1398.38,-111.42 1397.5,-118.37"/>
</g>
<!-- Node26 -->
<g id="node26" class="node">
<title>Node26</title>
<g id="a_node26"><a xlink:href="_move_mesh2_d_8h.html" target="_top" xlink:title=" ">
<polygon fill="white" stroke="black" points="1135.5,-56.5 1135.5,-75.5 1221.5,-75.5 1221.5,-56.5 1135.5,-56.5"/>
<text text-anchor="middle" x="1178.5" y="-63.5" font-family="Helvetica,sans-Serif" font-size="10.00">MoveMesh2D.h</text>
</a>
</g>
</g>
<!-- Node1&#45;&gt;Node26 -->
<g id="edge25" class="edge">
<title>Node1&#45;&gt;Node26</title>
<path fill="none" stroke="midnightblue" d="M1397.72,-111.01C1346.94,-100.81 1269,-85.17 1221.02,-75.54"/>
<polygon fill="midnightblue" stroke="midnightblue" points="1397.31,-114.5 1407.81,-113.03 1398.69,-107.63 1397.31,-114.5"/>
</g>
<!-- Node28 -->
<g id="node28" class="node">
<title>Node28</title>
<g id="a_node28"><a xlink:href="_n_c_l_s_8h.html" target="_top" xlink:title=" ">
<polygon fill="white" stroke="black" points="1239.5,-56.5 1239.5,-75.5 1291.5,-75.5 1291.5,-56.5 1239.5,-56.5"/>
<text text-anchor="middle" x="1265.5" y="-63.5" font-family="Helvetica,sans-Serif" font-size="10.00">NCLS.h</text>
</a>
</g>
</g>
<!-- Node1&#45;&gt;Node28 -->
<g id="edge27" class="edge">
<title>Node1&#45;&gt;Node28</title>
<path fill="none" stroke="midnightblue" d="M1408.7,-109.49C1373.38,-99.01 1322.2,-83.82 1291.55,-74.73"/>
<polygon fill="midnightblue" stroke="midnightblue" points="1408.08,-112.95 1418.66,-112.44 1410.07,-106.24 1408.08,-112.95"/>
</g>
<!-- Node30 -->
<g id="node30" class="node">
<title>Node30</title>
<g id="a_node30"><a xlink:href="_n_c_l_s3_p_8h.html" target="_top" xlink:title=" ">
<polygon fill="white" stroke="black" points="1309.5,-56.5 1309.5,-75.5 1371.5,-75.5 1371.5,-56.5 1309.5,-56.5"/>
<text text-anchor="middle" x="1340.5" y="-63.5" font-family="Helvetica,sans-Serif" font-size="10.00">NCLS3P.h</text>
</a>
</g>
</g>
<!-- Node1&#45;&gt;Node30 -->
<g id="edge29" class="edge">
<title>Node1&#45;&gt;Node30</title>
<path fill="none" stroke="midnightblue" d="M1421.2,-107.73C1401.39,-97.73 1374.79,-84.31 1357.65,-75.65"/>
<polygon fill="midnightblue" stroke="midnightblue" points="1419.8,-110.94 1430.31,-112.32 1422.96,-104.69 1419.8,-110.94"/>
</g>
<!-- Node32 -->
<g id="node32" class="node">
<title>Node32</title>
<g id="a_node32"><a xlink:href="_pres_8h.html" target="_top" xlink:title=" ">
<polygon fill="white" stroke="black" points="1390,-56.5 1390,-75.5 1435,-75.5 1435,-56.5 1390,-56.5"/>
<text text-anchor="middle" x="1412.5" y="-63.5" font-family="Helvetica,sans-Serif" font-size="10.00">Pres.h</text>
</a>
</g>
</g>
<!-- Node1&#45;&gt;Node32 -->
<g id="edge31" class="edge">
<title>Node1&#45;&gt;Node32</title>
<path fill="none" stroke="midnightblue" d="M1436.2,-103.57C1430.18,-94.27 1423.03,-83.25 1418.17,-75.75"/>
<polygon fill="midnightblue" stroke="midnightblue" points="1433.34,-105.6 1441.72,-112.08 1439.22,-101.79 1433.34,-105.6"/>
</g>
<!-- Node34 -->
<g id="node34" class="node">
<title>Node34</title>
<g id="a_node34"><a xlink:href="_pres_inc_8h.html" target="_top" xlink:title=" ">
<polygon fill="white" stroke="black" points="1453,-56.5 1453,-75.5 1512,-75.5 1512,-56.5 1453,-56.5"/>
<text text-anchor="middle" x="1482.5" y="-63.5" font-family="Helvetica,sans-Serif" font-size="10.00">PresInc.h</text>
</a>
</g>
</g>
<!-- Node1&#45;&gt;Node34 -->
<g id="edge33" class="edge">
<title>Node1&#45;&gt;Node34</title>
<path fill="none" stroke="midnightblue" d="M1458.8,-103.57C1464.82,-94.27 1471.97,-83.25 1476.83,-75.75"/>
<polygon fill="midnightblue" stroke="midnightblue" points="1455.78,-101.79 1453.28,-112.08 1461.66,-105.6 1455.78,-101.79"/>
</g>
<!-- Node36 -->
<g id="node36" class="node">
<title>Node36</title>
<g id="a_node36"><a xlink:href="_pres_init_8h.html" target="_top" xlink:title=" ">
<polygon fill="white" stroke="red" points="1530,-56.5 1530,-75.5 1589,-75.5 1589,-56.5 1530,-56.5"/>
<text text-anchor="middle" x="1559.5" y="-63.5" font-family="Helvetica,sans-Serif" font-size="10.00">PresInit.h</text>
</a>
</g>
</g>
<!-- Node1&#45;&gt;Node36 -->
<g id="edge35" class="edge">
<title>Node1&#45;&gt;Node36</title>
<path fill="none" stroke="midnightblue" d="M1474.75,-107.86C1495.52,-97.85 1523.52,-84.35 1541.55,-75.65"/>
<polygon fill="midnightblue" stroke="midnightblue" points="1472.98,-104.83 1465.49,-112.32 1476.02,-111.13 1472.98,-104.83"/>
</g>
<!-- Node38 -->
<g id="node37" class="node">
<title>Node38</title>
<g id="a_node37"><a xlink:href="_r_a_n_s2_p_8h.html" target="_top" xlink:title=" ">
<polygon fill="white" stroke="red" points="1607.5,-56.5 1607.5,-75.5 1671.5,-75.5 1671.5,-56.5 1607.5,-56.5"/>
<text text-anchor="middle" x="1639.5" y="-63.5" font-family="Helvetica,sans-Serif" font-size="10.00">RANS2P.h</text>
</a>
</g>
</g>
<!-- Node1&#45;&gt;Node38 -->
<g id="edge36" class="edge">
<title>Node1&#45;&gt;Node38</title>
<path fill="none" stroke="midnightblue" d="M1487.68,-109.7C1523.92,-99.51 1576.41,-84.74 1609.22,-75.52"/>
<polygon fill="midnightblue" stroke="midnightblue" points="1486.6,-106.37 1477.92,-112.44 1488.5,-113.11 1486.6,-106.37"/>
</g>
<!-- Node40 -->
<g id="node38" class="node">
<title>Node40</title>
<g id="a_node38"><a xlink:href="_r_a_n_s2_p2_d_8h.html" target="_top" xlink:title=" ">
<polygon fill="white" stroke="red" points="1689.5,-56.5 1689.5,-75.5 1767.5,-75.5 1767.5,-56.5 1689.5,-56.5"/>
<text text-anchor="middle" x="1728.5" y="-63.5" font-family="Helvetica,sans-Serif" font-size="10.00">RANS2P2D.h</text>
</a>
</g>
</g>
<!-- Node1&#45;&gt;Node40 -->
<g id="edge37" class="edge">
<title>Node1&#45;&gt;Node40</title>
<path fill="none" stroke="midnightblue" d="M1497.02,-111.48C1551.89,-100.94 1639.25,-84.15 1689.49,-74.5"/>
<polygon fill="midnightblue" stroke="midnightblue" points="1496.32,-108.05 1487.16,-113.38 1497.65,-114.93 1496.32,-108.05"/>
</g>
<!-- Node42 -->
<g id="node39" class="node">
<title>Node42</title>
<g id="a_node39"><a xlink:href="_r_a_n_s2_p___i_b_8h.html" target="_top" xlink:title=" ">
<polygon fill="white" stroke="red" points="1785.5,-56.5 1785.5,-75.5 1865.5,-75.5 1865.5,-56.5 1785.5,-56.5"/>
<text text-anchor="middle" x="1825.5" y="-63.5" font-family="Helvetica,sans-Serif" font-size="10.00">RANS2P_IB.h</text>
</a>
</g>
</g>
<!-- Node1&#45;&gt;Node42 -->
<g id="edge38" class="edge">
<title>Node1&#45;&gt;Node42</title>
<path fill="none" stroke="midnightblue" d="M1497.38,-114.9C1561.93,-106.84 1677.82,-91.8 1776.5,-76 1779.4,-75.53 1782.4,-75.03 1785.41,-74.52"/>
<polygon fill="midnightblue" stroke="midnightblue" points="1496.58,-111.47 1487.09,-116.18 1497.44,-118.42 1496.58,-111.47"/>
</g>
<!-- Node44 -->
<g id="node40" class="node">
<title>Node44</title>
<g id="a_node40"><a xlink:href="_r_a_n_s3_p_f_8h.html" target="_top" xlink:title=" ">
<polygon fill="white" stroke="black" points="1883.5,-56.5 1883.5,-75.5 1953.5,-75.5 1953.5,-56.5 1883.5,-56.5"/>
<text text-anchor="middle" x="1918.5" y="-63.5" font-family="Helvetica,sans-Serif" font-size="10.00">RANS3PF.h</text>
</a>
</g>
</g>
<!-- Node1&#45;&gt;Node44 -->
<g id="edge39" class="edge">
<title>Node1&#45;&gt;Node44</title>
<path fill="none" stroke="midnightblue" d="M1497.37,-117.32C1577.26,-111.07 1738.78,-96.98 1874.5,-76 1877.43,-75.55 1880.46,-75.03 1883.49,-74.48"/>
<polygon fill="midnightblue" stroke="midnightblue" points="1496.81,-113.85 1487.11,-118.11 1497.35,-120.83 1496.81,-113.85"/>
</g>
<!-- Node45 -->
<g id="node41" class="node">
<title>Node45</title>
<g id="a_node41"><a xlink:href="_r_a_n_s3_p_f2_d_8h.html" target="_top" xlink:title=" ">
<polygon fill="white" stroke="black" points="1971.5,-56.5 1971.5,-75.5 2055.5,-75.5 2055.5,-56.5 1971.5,-56.5"/>
<text text-anchor="middle" x="2013.5" y="-63.5" font-family="Helvetica,sans-Serif" font-size="10.00">RANS3PF2D.h</text>
</a>
</g>
</g>
<!-- Node1&#45;&gt;Node45 -->
<g id="edge40" class="edge">
<title>Node1&#45;&gt;Node45</title>
<path fill="none" stroke="midnightblue" d="M1497.18,-118.11C1589.23,-112.43 1792.42,-98.39 1962.5,-76 1965.35,-75.62 1968.29,-75.2 1971.24,-74.75"/>
<polygon fill="midnightblue" stroke="midnightblue" points="1496.81,-114.63 1487.04,-118.73 1497.24,-121.61 1496.81,-114.63"/>
</g>
<!-- Node46 -->
<g id="node42" class="node">
<title>Node46</title>
<g id="a_node42"><a xlink:href="_r_a_n_s3_p_sed_8h.html" target="_top" xlink:title=" ">
<polygon fill="white" stroke="red" points="2074,-56.5 2074,-75.5 2157,-75.5 2157,-56.5 2074,-56.5"/>
<text text-anchor="middle" x="2115.5" y="-63.5" font-family="Helvetica,sans-Serif" font-size="10.00">RANS3PSed.h</text>
</a>
</g>
</g>
<!-- Node1&#45;&gt;Node46 -->
<g id="edge41" class="edge">
<title>Node1&#45;&gt;Node46</title>
<path fill="none" stroke="midnightblue" d="M1497.35,-119.09C1602.49,-114.68 1854.6,-102.11 2064.5,-76 2067.53,-75.62 2070.66,-75.19 2073.8,-74.71"/>
<polygon fill="midnightblue" stroke="midnightblue" points="1497.19,-115.59 1487.34,-119.5 1497.47,-122.59 1497.19,-115.59"/>
</g>
<!-- Node48 -->
<g id="node43" class="node">
<title>Node48</title>
<g id="a_node43"><a xlink:href="_r_a_n_s3_p_sed2_d_8h.html" target="_top" xlink:title=" ">
<polygon fill="white" stroke="red" points="2175,-56.5 2175,-75.5 2270,-75.5 2270,-56.5 2175,-56.5"/>
<text text-anchor="middle" x="2222.5" y="-63.5" font-family="Helvetica,sans-Serif" font-size="10.00">RANS3PSed2D.h</text>
</a>
</g>
</g>
<!-- Node1&#45;&gt;Node48 -->
<g id="edge42" class="edge">
<title>Node1&#45;&gt;Node48</title>
<path fill="none" stroke="midnightblue" d="M1497.47,-119.54C1614.64,-115.75 1916.13,-103.89 2166.5,-76 2169.24,-75.69 2172.05,-75.35 2174.88,-74.97"/>
<polygon fill="midnightblue" stroke="midnightblue" points="1497.25,-116.04 1487.37,-119.86 1497.48,-123.04 1497.25,-116.04"/>
</g>
<!-- Node49 -->
<g id="node44" class="node">
<title>Node49</title>
<g id="a_node44"><a xlink:href="_r_d_l_s_8h.html" target="_top" xlink:title=" ">
<polygon fill="white" stroke="red" points="2288.5,-56.5 2288.5,-75.5 2340.5,-75.5 2340.5,-56.5 2288.5,-56.5"/>
<text text-anchor="middle" x="2314.5" y="-63.5" font-family="Helvetica,sans-Serif" font-size="10.00">RDLS.h</text>
</a>
</g>
</g>
<!-- Node1&#45;&gt;Node49 -->
<g id="edge43" class="edge">
<title>Node1&#45;&gt;Node49</title>
<path fill="none" stroke="midnightblue" d="M1497.22,-121.72C1626.83,-122.86 1985.44,-121.3 2279.5,-76 2282.35,-75.56 2285.31,-74.99 2288.24,-74.35"/>
<polygon fill="midnightblue" stroke="midnightblue" points="1497.23,-118.22 1487.19,-121.62 1497.16,-125.22 1497.23,-118.22"/>
</g>
<!-- Node51 -->
<g id="node45" class="node">
<title>Node51</title>
<g id="a_node45"><a xlink:href="_s_w2_d_8h.html" target="_top" xlink:title=" ">
<polygon fill="white" stroke="red" points="2358.5,-56.5 2358.5,-75.5 2412.5,-75.5 2412.5,-56.5 2358.5,-56.5"/>
<text text-anchor="middle" x="2385.5" y="-63.5" font-family="Helvetica,sans-Serif" font-size="10.00">SW2D.h</text>
</a>
</g>
</g>
<!-- Node1&#45;&gt;Node51 -->
<g id="edge44" class="edge">
<title>Node1&#45;&gt;Node51</title>
<path fill="none" stroke="midnightblue" d="M1497.44,-119.79C1661.53,-115.62 2183.04,-100.72 2349.5,-76 2352.43,-75.56 2355.47,-75 2358.49,-74.35"/>
<polygon fill="midnightblue" stroke="midnightblue" points="1497.07,-116.3 1487.16,-120.05 1497.24,-123.3 1497.07,-116.3"/>
</g>
<!-- Node53 -->
<g id="node46" class="node">
<title>Node53</title>
<g id="a_node46"><a xlink:href="_s_w2_d_c_v_8h.html" target="_top" xlink:title=" ">
<polygon fill="white" stroke="red" points="2431,-56.5 2431,-75.5 2498,-75.5 2498,-56.5 2431,-56.5"/>
<text text-anchor="middle" x="2464.5" y="-63.5" font-family="Helvetica,sans-Serif" font-size="10.00">SW2DCV.h</text>
</a>
</g>
</g>
<!-- Node1&#45;&gt;Node53 -->
<g id="edge45" class="edge">
<title>Node1&#45;&gt;Node53</title>
<path fill="none" stroke="midnightblue" d="M1497.4,-121.5C1641.36,-122.36 2069.67,-120.65 2421.5,-76 2424.53,-75.62 2427.66,-75.13 2430.79,-74.59"/>
<polygon fill="midnightblue" stroke="midnightblue" points="1497.15,-118 1487.13,-121.44 1497.1,-125 1497.15,-118"/>
</g>
<!-- Node55 -->
<g id="node47" class="node">
<title>Node55</title>
<g id="a_node47"><a xlink:href="_v_o_f_8h.html" target="_top" xlink:title=" ">
<polygon fill="white" stroke="red" points="2516.5,-56.5 2516.5,-75.5 2560.5,-75.5 2560.5,-56.5 2516.5,-56.5"/>
<text text-anchor="middle" x="2538.5" y="-63.5" font-family="Helvetica,sans-Serif" font-size="10.00">VOF.h</text>
</a>
</g>
</g>
<!-- Node1&#45;&gt;Node55 -->
<g id="edge46" class="edge">
<title>Node1&#45;&gt;Node55</title>
<path fill="none" stroke="midnightblue" d="M1497.19,-120.47C1679.2,-118.29 2309.25,-108.5 2507.5,-76 2510.38,-75.53 2513.36,-74.88 2516.3,-74.14"/>
<polygon fill="midnightblue" stroke="midnightblue" points="1497.06,-116.97 1487.1,-120.59 1497.14,-123.97 1497.06,-116.97"/>
</g>
<!-- Node57 -->
<g id="node48" class="node">
<title>Node57</title>
<g id="a_node48"><a xlink:href="_v_o_f3_p_8h.html" target="_top" xlink:title=" ">
<polygon fill="white" stroke="red" points="2578.5,-56.5 2578.5,-75.5 2634.5,-75.5 2634.5,-56.5 2578.5,-56.5"/>
<text text-anchor="middle" x="2606.5" y="-63.5" font-family="Helvetica,sans-Serif" font-size="10.00">VOF3P.h</text>
</a>
</g>
</g>
<!-- Node1&#45;&gt;Node57 -->
<g id="edge47" class="edge">
<title>Node1&#45;&gt;Node57</title>
<path fill="none" stroke="midnightblue" d="M1497.19,-120.32C1685.87,-117.53 2357.88,-105.68 2569.5,-76 2572.38,-75.6 2575.36,-75.06 2578.33,-74.46"/>
<polygon fill="midnightblue" stroke="midnightblue" points="1496.97,-116.82 1487.02,-120.47 1497.07,-123.82 1496.97,-116.82"/>
</g>
<!-- Node59 -->
<g id="node49" class="node">
<title>Node59</title>
<g id="a_node49"><a xlink:href="_v_o_s3_p_8h.html" target="_top" xlink:title=" ">
<polygon fill="white" stroke="red" points="2652.5,-56.5 2652.5,-75.5 2708.5,-75.5 2708.5,-56.5 2652.5,-56.5"/>
<text text-anchor="middle" x="2680.5" y="-63.5" font-family="Helvetica,sans-Serif" font-size="10.00">VOS3P.h</text>
</a>
</g>
</g>
<!-- Node1&#45;&gt;Node59 -->
<g id="edge48" class="edge">
<title>Node1&#45;&gt;Node59</title>
<path fill="none" stroke="midnightblue" d="M1497.21,-120.46C1693.73,-118.13 2416.67,-107.53 2643.5,-76 2646.38,-75.6 2649.36,-75.07 2652.33,-74.47"/>
<polygon fill="midnightblue" stroke="midnightblue" points="1497.13,-116.96 1487.18,-120.58 1497.22,-123.96 1497.13,-116.96"/>
</g>
<!-- Node61 -->
<g id="node50" class="node">
<title>Node61</title>
<g id="a_node50"><a xlink:href="_richards_8h.html" target="_top" xlink:title=" ">
<polygon fill="white" stroke="red" points="2726.5,-56.5 2726.5,-75.5 2790.5,-75.5 2790.5,-56.5 2726.5,-56.5"/>
<text text-anchor="middle" x="2758.5" y="-63.5" font-family="Helvetica,sans-Serif" font-size="10.00">Richards.h</text>
</a>
</g>
</g>
<!-- Node1&#45;&gt;Node61 -->
<g id="edge49" class="edge">
<title>Node1&#45;&gt;Node61</title>
<path fill="none" stroke="midnightblue" d="M1497.21,-120.44C1701.24,-117.95 2475.06,-106.65 2717.5,-76 2720.39,-75.63 2723.38,-75.16 2726.37,-74.63"/>
<polygon fill="midnightblue" stroke="midnightblue" points="1497.04,-116.94 1487.09,-120.56 1497.13,-123.94 1497.04,-116.94"/>
</g>
<!-- Node3 -->
<g id="node3" class="node">
<title>Node3</title>
<g id="a_node3"><a xlink:href="_a_d_r_8cpp.html" target="_top" xlink:title=" ">
<polygon fill="white" stroke="black" points="0,-0.5 0,-19.5 57,-19.5 57,-0.5 0,-0.5"/>
<text text-anchor="middle" x="28.5" y="-7.5" font-family="Helvetica,sans-Serif" font-size="10.00">ADR.cpp</text>
</a>
</g>
</g>
<!-- Node2&#45;&gt;Node3 -->
<g id="edge2" class="edge">
<title>Node2&#45;&gt;Node3</title>
<path fill="none" stroke="midnightblue" d="M36.95,-46.1C34.79,-37.14 32.32,-26.86 30.61,-19.75"/>
<polygon fill="midnightblue" stroke="midnightblue" points="33.61,-47.18 39.35,-56.08 40.42,-45.54 33.61,-47.18"/>
</g>
<!-- Node5 -->
<g id="node5" class="node">
<title>Node5</title>
<g id="a_node5"><a xlink:href="c_elasto_plastic_8cpp.html" target="_top" xlink:title=" ">
<polygon fill="white" stroke="black" points="75.5,-0.5 75.5,-19.5 173.5,-19.5 173.5,-0.5 75.5,-0.5"/>
<text text-anchor="middle" x="124.5" y="-7.5" font-family="Helvetica,sans-Serif" font-size="10.00">cElastoPlastic.cpp</text>
</a>
</g>
</g>
<!-- Node4&#45;&gt;Node5 -->
<g id="edge4" class="edge">
<title>Node4&#45;&gt;Node5</title>
<path fill="none" stroke="midnightblue" d="M128.4,-46.1C127.4,-37.14 126.26,-26.86 125.47,-19.75"/>
<polygon fill="midnightblue" stroke="midnightblue" points="124.93,-46.53 129.51,-56.08 131.88,-45.76 124.93,-46.53"/>
</g>
<!-- Node7 -->
<g id="node7" class="node">
<title>Node7</title>
<g id="a_node7"><a xlink:href="_added_mass_8cpp.html" target="_top" xlink:title=" ">
<polygon fill="white" stroke="black" points="192,-0.5 192,-19.5 279,-19.5 279,-0.5 192,-0.5"/>
<text text-anchor="middle" x="235.5" y="-7.5" font-family="Helvetica,sans-Serif" font-size="10.00">AddedMass.cpp</text>
</a>
</g>
</g>
<!-- Node6&#45;&gt;Node7 -->
<g id="edge6" class="edge">
<title>Node6&#45;&gt;Node7</title>
<path fill="none" stroke="midnightblue" d="M238.75,-46.1C237.92,-37.14 236.97,-26.86 236.31,-19.75"/>
<polygon fill="midnightblue" stroke="midnightblue" points="235.27,-46.45 239.67,-56.08 242.24,-45.8 235.27,-46.45"/>
</g>
<!-- Node9 -->
<g id="node9" class="node">
<title>Node9</title>
<g id="a_node9"><a xlink:href="_c_l_s_v_o_f_8cpp.html" target="_top" xlink:title=" ">
<polygon fill="white" stroke="black" points="297.5,-0.5 297.5,-19.5 371.5,-19.5 371.5,-0.5 297.5,-0.5"/>
<text text-anchor="middle" x="334.5" y="-7.5" font-family="Helvetica,sans-Serif" font-size="10.00">CLSVOF.cpp</text>
</a>
</g>
</g>
<!-- Node8&#45;&gt;Node9 -->
<g id="edge8" class="edge">
<title>Node8&#45;&gt;Node9</title>
<path fill="none" stroke="midnightblue" d="M337.75,-46.1C336.92,-37.14 335.97,-26.86 335.31,-19.75"/>
<polygon fill="midnightblue" stroke="midnightblue" points="334.27,-46.45 338.67,-56.08 341.24,-45.8 334.27,-46.45"/>
</g>
<!-- Node11 -->
<g id="node11" class="node">
<title>Node11</title>
<g id="a_node11"><a xlink:href="_dissipation_8cpp.html" target="_top" xlink:title=" ">
<polygon fill="white" stroke="black" points="389.5,-0.5 389.5,-19.5 473.5,-19.5 473.5,-0.5 389.5,-0.5"/>
<text text-anchor="middle" x="431.5" y="-7.5" font-family="Helvetica,sans-Serif" font-size="10.00">Dissipation.cpp</text>
</a>
</g>
</g>
<!-- Node10&#45;&gt;Node11 -->
<g id="edge10" class="edge">
<title>Node10&#45;&gt;Node11</title>
<path fill="none" stroke="midnightblue" d="M434.75,-46.1C433.92,-37.14 432.97,-26.86 432.31,-19.75"/>
<polygon fill="midnightblue" stroke="midnightblue" points="431.27,-46.45 435.67,-56.08 438.24,-45.8 431.27,-46.45"/>
</g>
<!-- Node13 -->
<g id="node13" class="node">
<title>Node13</title>
<g id="a_node13"><a xlink:href="_dissipation2_d_8cpp.html" target="_top" xlink:title=" ">
<polygon fill="white" stroke="black" points="492,-0.5 492,-19.5 589,-19.5 589,-0.5 492,-0.5"/>
<text text-anchor="middle" x="540.5" y="-7.5" font-family="Helvetica,sans-Serif" font-size="10.00">Dissipation2D.cpp</text>
</a>
</g>
</g>
<!-- Node12&#45;&gt;Node13 -->
<g id="edge12" class="edge">
<title>Node12&#45;&gt;Node13</title>
<path fill="none" stroke="midnightblue" d="M543.75,-46.1C542.92,-37.14 541.97,-26.86 541.31,-19.75"/>
<polygon fill="midnightblue" stroke="midnightblue" points="540.27,-46.45 544.67,-56.08 547.24,-45.8 540.27,-46.45"/>
</g>
<!-- Node15 -->
<g id="node15" class="node">
<title>Node15</title>
<g id="a_node15"><a xlink:href="_g_n___s_w2_d_c_v_8cpp.html" target="_top" xlink:title=" ">
<polygon fill="white" stroke="black" points="607.5,-0.5 607.5,-19.5 705.5,-19.5 705.5,-0.5 607.5,-0.5"/>
<text text-anchor="middle" x="656.5" y="-7.5" font-family="Helvetica,sans-Serif" font-size="10.00">GN_SW2DCV.cpp</text>
</a>
</g>
</g>
<!-- Node14&#45;&gt;Node15 -->
<g id="edge14" class="edge">
<title>Node14&#45;&gt;Node15</title>
<path fill="none" stroke="midnightblue" d="M659.75,-46.1C658.92,-37.14 657.97,-26.86 657.31,-19.75"/>
<polygon fill="midnightblue" stroke="midnightblue" points="656.27,-46.45 660.67,-56.08 663.24,-45.8 656.27,-46.45"/>
</g>
<!-- Node17 -->
<g id="node17" class="node">
<title>Node17</title>
<g id="a_node17"><a xlink:href="_kappa_8cpp.html" target="_top" xlink:title=" ">
<polygon fill="white" stroke="black" points="724,-0.5 724,-19.5 787,-19.5 787,-0.5 724,-0.5"/>
<text text-anchor="middle" x="755.5" y="-7.5" font-family="Helvetica,sans-Serif" font-size="10.00">Kappa.cpp</text>
</a>
</g>
</g>
<!-- Node16&#45;&gt;Node17 -->
<g id="edge16" class="edge">
<title>Node16&#45;&gt;Node17</title>
<path fill="none" stroke="midnightblue" d="M758.75,-46.1C757.92,-37.14 756.97,-26.86 756.31,-19.75"/>
<polygon fill="midnightblue" stroke="midnightblue" points="755.27,-46.45 759.67,-56.08 762.24,-45.8 755.27,-46.45"/>
</g>
<!-- Node19 -->
<g id="node19" class="node">
<title>Node19</title>
<g id="a_node19"><a xlink:href="_kappa2_d_8cpp.html" target="_top" xlink:title=" ">
<polygon fill="white" stroke="black" points="805.5,-0.5 805.5,-19.5 881.5,-19.5 881.5,-0.5 805.5,-0.5"/>
<text text-anchor="middle" x="843.5" y="-7.5" font-family="Helvetica,sans-Serif" font-size="10.00">Kappa2D.cpp</text>
</a>
</g>
</g>
<!-- Node18&#45;&gt;Node19 -->
<g id="edge18" class="edge">
<title>Node18&#45;&gt;Node19</title>
<path fill="none" stroke="midnightblue" d="M843.5,-45.8C843.5,-36.91 843.5,-26.78 843.5,-19.75"/>
<polygon fill="midnightblue" stroke="midnightblue" points="840,-46.08 843.5,-56.08 847,-46.08 840,-46.08"/>
</g>
<!-- Node21 -->
<g id="node21" class="node">
<title>Node21</title>
<g id="a_node21"><a xlink:href="_m_corr_8cpp.html" target="_top" xlink:title=" ">
<polygon fill="white" stroke="black" points="899.5,-0.5 899.5,-19.5 961.5,-19.5 961.5,-0.5 899.5,-0.5"/>
<text text-anchor="middle" x="930.5" y="-7.5" font-family="Helvetica,sans-Serif" font-size="10.00">MCorr.cpp</text>
</a>
</g>
</g>
<!-- Node20&#45;&gt;Node21 -->
<g id="edge20" class="edge">
<title>Node20&#45;&gt;Node21</title>
<path fill="none" stroke="midnightblue" d="M923.35,-46.1C925.18,-37.14 927.27,-26.86 928.72,-19.75"/>
<polygon fill="midnightblue" stroke="midnightblue" points="919.88,-45.59 921.32,-56.08 926.74,-46.98 919.88,-45.59"/>
</g>
<!-- Node23 -->
<g id="node23" class="node">
<title>Node23</title>
<g id="a_node23"><a xlink:href="_m_corr3_p_8cpp.html" target="_top" xlink:title=" ">
<polygon fill="white" stroke="black" points="980,-0.5 980,-19.5 1053,-19.5 1053,-0.5 980,-0.5"/>
<text text-anchor="middle" x="1016.5" y="-7.5" font-family="Helvetica,sans-Serif" font-size="10.00">MCorr3P.cpp</text>
</a>
</g>
</g>
<!-- Node22&#45;&gt;Node23 -->
<g id="edge22" class="edge">
<title>Node22&#45;&gt;Node23</title>
<path fill="none" stroke="midnightblue" d="M1001.96,-46.69C1005.67,-37.59 1009.98,-27.01 1012.93,-19.75"/>
<polygon fill="midnightblue" stroke="midnightblue" points="998.66,-45.5 998.13,-56.08 1005.15,-48.14 998.66,-45.5"/>
</g>
<!-- Node25 -->
<g id="node25" class="node">
<title>Node25</title>
<g id="a_node25"><a xlink:href="_move_mesh_8cpp.html" target="_top" xlink:title=" ">
<polygon fill="white" stroke="black" points="1071,-0.5 1071,-19.5 1154,-19.5 1154,-0.5 1071,-0.5"/>
<text text-anchor="middle" x="1112.5" y="-7.5" font-family="Helvetica,sans-Serif" font-size="10.00">MoveMesh.cpp</text>
</a>
</g>
</g>
<!-- Node24&#45;&gt;Node25 -->
<g id="edge24" class="edge">
<title>Node24&#45;&gt;Node25</title>
<path fill="none" stroke="midnightblue" d="M1091,-47.27C1096.47,-38.05 1102.92,-27.17 1107.31,-19.75"/>
<polygon fill="midnightblue" stroke="midnightblue" points="1087.87,-45.7 1085.78,-56.08 1093.89,-49.26 1087.87,-45.7"/>
</g>
<!-- Node27 -->
<g id="node27" class="node">
<title>Node27</title>
<g id="a_node27"><a xlink:href="_move_mesh2_d_8cpp.html" target="_top" xlink:title=" ">
<polygon fill="white" stroke="black" points="1172.5,-0.5 1172.5,-19.5 1268.5,-19.5 1268.5,-0.5 1172.5,-0.5"/>
<text text-anchor="middle" x="1220.5" y="-7.5" font-family="Helvetica,sans-Serif" font-size="10.00">MoveMesh2D.cpp</text>
</a>
</g>
</g>
<!-- Node26&#45;&gt;Node27 -->
<g id="edge26" class="edge">
<title>Node26&#45;&gt;Node27</title>
<path fill="none" stroke="midnightblue" d="M1191.61,-48.14C1198.93,-38.74 1207.74,-27.4 1213.69,-19.75"/>
<polygon fill="midnightblue" stroke="midnightblue" points="1188.81,-46.04 1185.44,-56.08 1194.34,-50.34 1188.81,-46.04"/>
</g>
<!-- Node29 -->
<g id="node29" class="node">
<title>Node29</title>
<g id="a_node29"><a xlink:href="_n_c_l_s_8cpp.html" target="_top" xlink:title=" ">
<polygon fill="white" stroke="black" points="1286.5,-0.5 1286.5,-19.5 1348.5,-19.5 1348.5,-0.5 1286.5,-0.5"/>
<text text-anchor="middle" x="1317.5" y="-7.5" font-family="Helvetica,sans-Serif" font-size="10.00">NCLS.cpp</text>
</a>
</g>
</g>
<!-- Node28&#45;&gt;Node29 -->
<g id="edge28" class="edge">
<title>Node28&#45;&gt;Node29</title>
<path fill="none" stroke="midnightblue" d="M1281.18,-48.72C1290.34,-39.2 1301.55,-27.56 1309.07,-19.75"/>
<polygon fill="midnightblue" stroke="midnightblue" points="1278.5,-46.45 1274.09,-56.08 1283.54,-51.31 1278.5,-46.45"/>
</g>
<!-- Node31 -->
<g id="node31" class="node">
<title>Node31</title>
<g id="a_node31"><a xlink:href="_n_c_l_s3_p_8cpp.html" target="_top" xlink:title=" ">
<polygon fill="white" stroke="black" points="1367,-0.5 1367,-19.5 1440,-19.5 1440,-0.5 1367,-0.5"/>
<text text-anchor="middle" x="1403.5" y="-7.5" font-family="Helvetica,sans-Serif" font-size="10.00">NCLS3P.cpp</text>
</a>
</g>
</g>
<!-- Node30&#45;&gt;Node31 -->
<g id="edge30" class="edge">
<title>Node30&#45;&gt;Node31</title>
<path fill="none" stroke="midnightblue" d="M1358.54,-49.54C1369.77,-39.91 1383.82,-27.87 1393.19,-19.83"/>
<polygon fill="midnightblue" stroke="midnightblue" points="1355.94,-47.16 1350.62,-56.32 1360.49,-52.47 1355.94,-47.16"/>
</g>
<!-- Node33 -->
<g id="node33" class="node">
<title>Node33</title>
<g id="a_node33"><a xlink:href="_pres_8cpp.html" target="_top" xlink:title=" ">
<polygon fill="white" stroke="black" points="1458.5,-0.5 1458.5,-19.5 1514.5,-19.5 1514.5,-0.5 1458.5,-0.5"/>
<text text-anchor="middle" x="1486.5" y="-7.5" font-family="Helvetica,sans-Serif" font-size="10.00">Pres.cpp</text>
</a>
</g>
</g>
<!-- Node32&#45;&gt;Node33 -->
<g id="edge32" class="edge">
<title>Node32&#45;&gt;Node33</title>
<path fill="none" stroke="midnightblue" d="M1432.53,-50.38C1445.91,-40.62 1463.06,-28.11 1474.39,-19.83"/>
<polygon fill="midnightblue" stroke="midnightblue" points="1430.4,-47.6 1424.39,-56.32 1434.53,-53.26 1430.4,-47.6"/>
</g>
<!-- Node35 -->
<g id="node35" class="node">
<title>Node35</title>
<g id="a_node35"><a xlink:href="_pres_inc_8cpp.html" target="_top" xlink:title=" ">
<polygon fill="white" stroke="black" points="1533,-0.5 1533,-19.5 1602,-19.5 1602,-0.5 1533,-0.5"/>
<text text-anchor="middle" x="1567.5" y="-7.5" font-family="Helvetica,sans-Serif" font-size="10.00">PresInc.cpp</text>
</a>
</g>
</g>
<!-- Node34&#45;&gt;Node35 -->
<g id="edge34" class="edge">
<title>Node34&#45;&gt;Node35</title>
<path fill="none" stroke="midnightblue" d="M1504.69,-50.9C1520.28,-41 1540.63,-28.07 1553.88,-19.65"/>
<polygon fill="midnightblue" stroke="midnightblue" points="1502.72,-48.01 1496.16,-56.32 1506.47,-53.92 1502.72,-48.01"/>
</g>
</g>
</svg>
