<?xml version="1.0" encoding="UTF-8" standalone="no"?>
<!DOCTYPE svg PUBLIC "-//W3C//DTD SVG 1.1//EN"
 "http://www.w3.org/Graphics/SVG/1.1/DTD/svg11.dtd">
<!-- Generated by graphviz version 2.43.0 (0)
 -->
<!-- Title: CompKernel.h Pages: 1 -->
<svg width="2866pt" height="140pt"
 viewBox="0.00 0.00 2866.00 140.00" xmlns="http://www.w3.org/2000/svg" xmlns:xlink="http://www.w3.org/1999/xlink">
<g id="graph0" class="graph" transform="scale(1 1) rotate(0) translate(4 136)">
<title>CompKernel.h</title>
<polygon fill="white" stroke="transparent" points="-4,4 -4,-136 2862,-136 2862,4 -4,4"/>
<!-- Node1 -->
<g id="node1" class="node">
<title>Node1</title>
<g id="a_node1"><a xlink:title=" ">
<polygon fill="#bfbfbf" stroke="black" points="1462.5,-112.5 1462.5,-131.5 1547.5,-131.5 1547.5,-112.5 1462.5,-112.5"/>
<text text-anchor="middle" x="1505" y="-119.5" font-family="Helvetica,sans-Serif" font-size="10.00">CompKernel.h</text>
</a>
</g>
</g>
<!-- Node2 -->
<g id="node2" class="node">
<title>Node2</title>
<g id="a_node2"><a xlink:href="_a_d_r_8h.html" target="_top" xlink:title=" ">
<polygon fill="white" stroke="black" points="19.5,-56.5 19.5,-75.5 66.5,-75.5 66.5,-56.5 19.5,-56.5"/>
<text text-anchor="middle" x="43" y="-63.5" font-family="Helvetica,sans-Serif" font-size="10.00">ADR.h</text>
</a>
</g>
</g>
<!-- Node1&#45;&gt;Node2 -->
<g id="edge1" class="edge">
<title>Node1&#45;&gt;Node2</title>
<path fill="none" stroke="midnightblue" d="M1452.19,-120.71C1228.06,-119.26 354.65,-111.43 82,-76 77.04,-75.36 71.78,-74.36 66.79,-73.27"/>
<polygon fill="midnightblue" stroke="midnightblue" points="1452.34,-124.21 1462.37,-120.77 1452.39,-117.21 1452.34,-124.21"/>
</g>
<!-- Node4 -->
<g id="node4" class="node">
<title>Node4</title>
<g id="a_node4"><a xlink:href="_elasto_plastic_8h.html" target="_top" xlink:title=" ">
<polygon fill="white" stroke="black" points="91,-56.5 91,-75.5 179,-75.5 179,-56.5 91,-56.5"/>
<text text-anchor="middle" x="135" y="-63.5" font-family="Helvetica,sans-Serif" font-size="10.00">ElastoPlastic.h</text>
</a>
</g>
</g>
<!-- Node1&#45;&gt;Node4 -->
<g id="edge3" class="edge">
<title>Node1&#45;&gt;Node4</title>
<path fill="none" stroke="midnightblue" d="M1452.33,-121.09C1275.35,-120.98 685.92,-117.32 201,-76 193.97,-75.4 186.54,-74.58 179.31,-73.67"/>
<polygon fill="midnightblue" stroke="midnightblue" points="1452.41,-124.59 1462.41,-121.09 1452.41,-117.59 1452.41,-124.59"/>
</g>
<!-- Node6 -->
<g id="node6" class="node">
<title>Node6</title>
<g id="a_node6"><a xlink:href="_added_mass_8h.html" target="_top" xlink:title=" ">
<polygon fill="white" stroke="black" points="210,-56.5 210,-75.5 292,-75.5 292,-56.5 210,-56.5"/>
<text text-anchor="middle" x="251" y="-63.5" font-family="Helvetica,sans-Serif" font-size="10.00">AddedMass.h</text>
</a>
</g>
</g>
<!-- Node1&#45;&gt;Node6 -->
<g id="edge5" class="edge">
<title>Node1&#45;&gt;Node6</title>
<path fill="none" stroke="midnightblue" d="M1452.39,-121.01C1285.35,-120.61 752.11,-116.05 313,-76 306.28,-75.39 299.18,-74.54 292.28,-73.62"/>
<polygon fill="midnightblue" stroke="midnightblue" points="1452.39,-124.51 1462.4,-121.03 1452.41,-117.51 1452.39,-124.51"/>
</g>
<!-- Node8 -->
<g id="node8" class="node">
<title>Node8</title>
<g id="a_node8"><a xlink:href="_c_l_s_v_o_f_8h.html" target="_top" xlink:title=" ">
<polygon fill="white" stroke="black" points="322,-56.5 322,-75.5 384,-75.5 384,-56.5 322,-56.5"/>
<text text-anchor="middle" x="353" y="-63.5" font-family="Helvetica,sans-Serif" font-size="10.00">CLSVOF.h</text>
</a>
</g>
</g>
<!-- Node1&#45;&gt;Node8 -->
<g id="edge7" class="edge">
<title>Node1&#45;&gt;Node8</title>
<path fill="none" stroke="midnightblue" d="M1451.94,-121.28C1292.81,-121.59 805.84,-118.7 405,-76 398.26,-75.28 391.07,-74.23 384.25,-73.09"/>
<polygon fill="midnightblue" stroke="midnightblue" points="1452.39,-124.78 1462.38,-121.25 1452.37,-117.78 1452.39,-124.78"/>
</g>
<!-- Node10 -->
<g id="node10" class="node">
<title>Node10</title>
<g id="a_node10"><a xlink:href="_dissipation_8h.html" target="_top" xlink:title=" ">
<polygon fill="white" stroke="black" points="414,-56.5 414,-75.5 494,-75.5 494,-56.5 414,-56.5"/>
<text text-anchor="middle" x="454" y="-63.5" font-family="Helvetica,sans-Serif" font-size="10.00">Dissipation.h</text>
</a>
</g>
</g>
<!-- Node1&#45;&gt;Node10 -->
<g id="edge9" class="edge">
<title>Node1&#45;&gt;Node10</title>
<path fill="none" stroke="midnightblue" d="M1452.21,-120.52C1303.98,-118.77 871.39,-110.82 514,-76 507.61,-75.38 500.85,-74.54 494.27,-73.63"/>
<polygon fill="midnightblue" stroke="midnightblue" points="1452.35,-124.03 1462.39,-120.64 1452.43,-117.03 1452.35,-124.03"/>
</g>
<!-- Node12 -->
<g id="node12" class="node">
<title>Node12</title>
<g id="a_node12"><a xlink:href="_dissipation2_d_8h.html" target="_top" xlink:title=" ">
<polygon fill="white" stroke="black" points="523,-56.5 523,-75.5 617,-75.5 617,-56.5 523,-56.5"/>
<text text-anchor="middle" x="570" y="-63.5" font-family="Helvetica,sans-Serif" font-size="10.00">Dissipation2D.h</text>
</a>
</g>
</g>
<!-- Node1&#45;&gt;Node12 -->
<g id="edge11" class="edge">
<title>Node1&#45;&gt;Node12</title>
<path fill="none" stroke="midnightblue" d="M1452.36,-119.77C1316.89,-116.28 945.24,-104.64 637,-76 630.57,-75.4 623.81,-74.65 617.16,-73.83"/>
<polygon fill="midnightblue" stroke="midnightblue" points="1452.38,-123.27 1462.46,-120.03 1452.55,-116.27 1452.38,-123.27"/>
</g>
<!-- Node14 -->
<g id="node14" class="node">
<title>Node14</title>
<g id="a_node14"><a xlink:href="_g_n___s_w2_d_c_v_8h.html" target="_top" xlink:title=" ">
<polygon fill="white" stroke="black" points="646.5,-56.5 646.5,-75.5 733.5,-75.5 733.5,-56.5 646.5,-56.5"/>
<text text-anchor="middle" x="690" y="-63.5" font-family="Helvetica,sans-Serif" font-size="10.00">GN_SW2DCV.h</text>
</a>
</g>
</g>
<!-- Node1&#45;&gt;Node14 -->
<g id="edge13" class="edge">
<title>Node1&#45;&gt;Node14</title>
<path fill="none" stroke="midnightblue" d="M1451.96,-119.23C1329.14,-114.84 1015.78,-101.84 755,-76 748.08,-75.31 740.77,-74.45 733.65,-73.52"/>
<polygon fill="midnightblue" stroke="midnightblue" points="1452.09,-122.74 1462.2,-119.6 1452.33,-115.75 1452.09,-122.74"/>
</g>
<!-- Node16 -->
<g id="node16" class="node">
<title>Node16</title>
<g id="a_node16"><a xlink:href="_kappa_8h.html" target="_top" xlink:title=" ">
<polygon fill="white" stroke="black" points="764,-56.5 764,-75.5 820,-75.5 820,-56.5 764,-56.5"/>
<text text-anchor="middle" x="792" y="-63.5" font-family="Helvetica,sans-Serif" font-size="10.00">Kappa.h</text>
</a>
</g>
</g>
<!-- Node1&#45;&gt;Node16 -->
<g id="edge15" class="edge">
<title>Node1&#45;&gt;Node16</title>
<path fill="none" stroke="midnightblue" d="M1452.32,-119.95C1338.93,-117.16 1063.48,-107.43 835,-76 830.16,-75.33 825.06,-74.44 820.12,-73.47"/>
<polygon fill="midnightblue" stroke="midnightblue" points="1452.38,-123.46 1462.46,-120.2 1452.55,-116.46 1452.38,-123.46"/>
</g>
<!-- Node18 -->
<g id="node18" class="node">
<title>Node18</title>
<g id="a_node18"><a xlink:href="_kappa2_d_8h.html" target="_top" xlink:title=" ">
<polygon fill="white" stroke="black" points="844,-56.5 844,-75.5 914,-75.5 914,-56.5 844,-56.5"/>
<text text-anchor="middle" x="879" y="-63.5" font-family="Helvetica,sans-Serif" font-size="10.00">Kappa2D.h</text>
</a>
</g>
</g>
<!-- Node1&#45;&gt;Node18 -->
<g id="edge17" class="edge">
<title>Node1&#45;&gt;Node18</title>
<path fill="none" stroke="midnightblue" d="M1452.37,-119.13C1349.99,-115 1117.05,-103.24 923,-76 920.22,-75.61 917.35,-75.15 914.48,-74.65"/>
<polygon fill="midnightblue" stroke="midnightblue" points="1452.32,-122.63 1462.45,-119.53 1452.6,-115.63 1452.32,-122.63"/>
</g>
<!-- Node20 -->
<g id="node20" class="node">
<title>Node20</title>
<g id="a_node20"><a xlink:href="_m_corr_8h.html" target="_top" xlink:title=" ">
<polygon fill="white" stroke="black" points="932,-56.5 932,-75.5 986,-75.5 986,-56.5 932,-56.5"/>
<text text-anchor="middle" x="959" y="-63.5" font-family="Helvetica,sans-Serif" font-size="10.00">MCorr.h</text>
</a>
</g>
</g>
<!-- Node1&#45;&gt;Node20 -->
<g id="edge19" class="edge">
<title>Node1&#45;&gt;Node20</title>
<path fill="none" stroke="midnightblue" d="M1452.41,-119.08C1359.53,-115.09 1160.6,-103.83 995,-76 992.08,-75.51 989.04,-74.9 986.03,-74.24"/>
<polygon fill="midnightblue" stroke="midnightblue" points="1452.26,-122.58 1462.4,-119.5 1452.55,-115.59 1452.26,-122.58"/>
</g>
<!-- Node22 -->
<g id="node22" class="node">
<title>Node22</title>
<g id="a_node22"><a xlink:href="_m_corr3_p_8h.html" target="_top" xlink:title=" ">
<polygon fill="white" stroke="black" points="1004.5,-56.5 1004.5,-75.5 1069.5,-75.5 1069.5,-56.5 1004.5,-56.5"/>
<text text-anchor="middle" x="1037" y="-63.5" font-family="Helvetica,sans-Serif" font-size="10.00">MCorr3P.h</text>
</a>
</g>
</g>
<!-- Node1&#45;&gt;Node22 -->
<g id="edge21" class="edge">
<title>Node1&#45;&gt;Node22</title>
<path fill="none" stroke="midnightblue" d="M1451.94,-117.31C1370.96,-111.26 1211.8,-97.67 1078,-76 1075.27,-75.56 1072.44,-75.05 1069.61,-74.5"/>
<polygon fill="midnightblue" stroke="midnightblue" points="1452.14,-120.84 1462.37,-118.08 1452.65,-113.86 1452.14,-120.84"/>
</g>
<!-- Node24 -->
<g id="node24" class="node">
<title>Node24</title>
<g id="a_node24"><a xlink:href="_move_mesh_8h.html" target="_top" xlink:title=" ">
<polygon fill="white" stroke="black" points="1087.5,-56.5 1087.5,-75.5 1166.5,-75.5 1166.5,-56.5 1087.5,-56.5"/>
<text text-anchor="middle" x="1127" y="-63.5" font-family="Helvetica,sans-Serif" font-size="10.00">MoveMesh.h</text>
</a>
</g>
</g>
<!-- Node1&#45;&gt;Node24 -->
<g id="edge23" class="edge">
<title>Node1&#45;&gt;Node24</title>
<path fill="none" stroke="midnightblue" d="M1452.31,-114.55C1387.25,-106.41 1273.26,-91.58 1176,-76 1172.93,-75.51 1169.75,-74.98 1166.55,-74.43"/>
<polygon fill="midnightblue" stroke="midnightblue" points="1451.96,-118.03 1462.32,-115.8 1452.83,-111.08 1451.96,-118.03"/>
</g>
<!-- Node26 -->
<g id="node26" class="node">
<title>Node26</title>
<g id="a_node26"><a xlink:href="_move_mesh2_d_8h.html" target="_top" xlink:title=" ">
<polygon fill="white" stroke="black" points="1185,-56.5 1185,-75.5 1277,-75.5 1277,-56.5 1185,-56.5"/>
<text text-anchor="middle" x="1231" y="-63.5" font-family="Helvetica,sans-Serif" font-size="10.00">MoveMesh2D.h</text>
</a>
</g>
</g>
<!-- Node1&#45;&gt;Node26 -->
<g id="edge25" class="edge">
<title>Node1&#45;&gt;Node26</title>
<path fill="none" stroke="midnightblue" d="M1452.52,-110.66C1400.85,-100.47 1322.85,-85.1 1274.52,-75.58"/>
<polygon fill="midnightblue" stroke="midnightblue" points="1452,-114.12 1462.49,-112.62 1453.35,-107.25 1452,-114.12"/>
</g>
<!-- Node28 -->
<g id="node28" class="node">
<title>Node28</title>
<g id="a_node28"><a xlink:href="_n_c_l_s_8h.html" target="_top" xlink:title=" ">
<polygon fill="white" stroke="black" points="1295.5,-56.5 1295.5,-75.5 1346.5,-75.5 1346.5,-56.5 1295.5,-56.5"/>
<text text-anchor="middle" x="1321" y="-63.5" font-family="Helvetica,sans-Serif" font-size="10.00">NCLS.h</text>
</a>
</g>
</g>
<!-- Node1&#45;&gt;Node28 -->
<g id="edge27" class="edge">
<title>Node1&#45;&gt;Node28</title>
<path fill="none" stroke="midnightblue" d="M1466.17,-109.61C1430.23,-99.06 1377.79,-83.67 1346.75,-74.56"/>
<polygon fill="midnightblue" stroke="midnightblue" points="1465.26,-112.99 1475.84,-112.44 1467.23,-106.27 1465.26,-112.99"/>
</g>
<!-- Node30 -->
<g id="node30" class="node">
<title>Node30</title>
<g id="a_node30"><a xlink:href="_n_c_l_s3_p_8h.html" target="_top" xlink:title=" ">
<polygon fill="white" stroke="black" points="1365,-56.5 1365,-75.5 1427,-75.5 1427,-56.5 1365,-56.5"/>
<text text-anchor="middle" x="1396" y="-63.5" font-family="Helvetica,sans-Serif" font-size="10.00">NCLS3P.h</text>
</a>
</g>
</g>
<!-- Node1&#45;&gt;Node30 -->
<g id="edge29" class="edge">
<title>Node1&#45;&gt;Node30</title>
<path fill="none" stroke="midnightblue" d="M1478.48,-107.86C1458.27,-97.85 1431.01,-84.35 1413.47,-75.65"/>
<polygon fill="midnightblue" stroke="midnightblue" points="1476.97,-111.02 1487.49,-112.32 1480.08,-104.75 1476.97,-111.02"/>
</g>
<!-- Node32 -->
<g id="node32" class="node">
<title>Node32</title>
<g id="a_node32"><a xlink:href="_pres_8h.html" target="_top" xlink:title=" ">
<polygon fill="white" stroke="black" points="1445.5,-56.5 1445.5,-75.5 1492.5,-75.5 1492.5,-56.5 1445.5,-56.5"/>
<text text-anchor="middle" x="1469" y="-63.5" font-family="Helvetica,sans-Serif" font-size="10.00">Pres.h</text>
</a>
</g>
</g>
<!-- Node1&#45;&gt;Node32 -->
<g id="edge31" class="edge">
<title>Node1&#45;&gt;Node32</title>
<path fill="none" stroke="midnightblue" d="M1493.38,-103.57C1487.18,-94.27 1479.83,-83.25 1474.83,-75.75"/>
<polygon fill="midnightblue" stroke="midnightblue" points="1490.6,-105.7 1499.06,-112.08 1496.42,-101.82 1490.6,-105.7"/>
</g>
<!-- Node34 -->
<g id="node34" class="node">
<title>Node34</title>
<g id="a_node34"><a xlink:href="_pres_inc_8h.html" target="_top" xlink:title=" ">
<polygon fill="white" stroke="black" points="1510.5,-56.5 1510.5,-75.5 1571.5,-75.5 1571.5,-56.5 1510.5,-56.5"/>
<text text-anchor="middle" x="1541" y="-63.5" font-family="Helvetica,sans-Serif" font-size="10.00">PresInc.h</text>
</a>
</g>
</g>
<!-- Node1&#45;&gt;Node34 -->
<g id="edge33" class="edge">
<title>Node1&#45;&gt;Node34</title>
<path fill="none" stroke="midnightblue" d="M1516.62,-103.57C1522.82,-94.27 1530.17,-83.25 1535.17,-75.75"/>
<polygon fill="midnightblue" stroke="midnightblue" points="1513.58,-101.82 1510.94,-112.08 1519.4,-105.7 1513.58,-101.82"/>
</g>
<!-- Node36 -->
<g id="node36" class="node">
<title>Node36</title>
<g id="a_node36"><a xlink:href="_pres_init_8h.html" target="_top" xlink:title=" ">
<polygon fill="white" stroke="red" points="1590,-56.5 1590,-75.5 1652,-75.5 1652,-56.5 1590,-56.5"/>
<text text-anchor="middle" x="1621" y="-63.5" font-family="Helvetica,sans-Serif" font-size="10.00">PresInit.h</text>
</a>
</g>
</g>
<!-- Node1&#45;&gt;Node36 -->
<g id="edge35" class="edge">
<title>Node1&#45;&gt;Node36</title>
<path fill="none" stroke="midnightblue" d="M1532.72,-108.1C1554.39,-98.01 1583.9,-84.27 1602.71,-75.52"/>
<polygon fill="midnightblue" stroke="midnightblue" points="1530.97,-105.05 1523.38,-112.44 1533.92,-111.4 1530.97,-105.05"/>
</g>
<!-- Node38 -->
<g id="node37" class="node">
<title>Node38</title>
<g id="a_node37"><a xlink:href="_r_a_n_s2_p_8h.html" target="_top" xlink:title=" ">
<polygon fill="white" stroke="red" points="1670.5,-56.5 1670.5,-75.5 1733.5,-75.5 1733.5,-56.5 1670.5,-56.5"/>
<text text-anchor="middle" x="1702" y="-63.5" font-family="Helvetica,sans-Serif" font-size="10.00">RANS2P.h</text>
</a>
</g>
</g>
<!-- Node1&#45;&gt;Node38 -->
<g id="edge36" class="edge">
<title>Node1&#45;&gt;Node38</title>
<path fill="none" stroke="midnightblue" d="M1546.23,-109.7C1583.41,-99.51 1637.27,-84.74 1670.93,-75.52"/>
<polygon fill="midnightblue" stroke="midnightblue" points="1544.93,-106.42 1536.22,-112.44 1546.78,-113.18 1544.93,-106.42"/>
</g>
<!-- Node40 -->
<g id="node38" class="node">
<title>Node40</title>
<g id="a_node38"><a xlink:href="_r_a_n_s2_p2_d_8h.html" target="_top" xlink:title=" ">
<polygon fill="white" stroke="red" points="1752,-56.5 1752,-75.5 1830,-75.5 1830,-56.5 1752,-56.5"/>
<text text-anchor="middle" x="1791" y="-63.5" font-family="Helvetica,sans-Serif" font-size="10.00">RANS2P2D.h</text>
</a>
</g>
</g>
<!-- Node1&#45;&gt;Node40 -->
<g id="edge37" class="edge">
<title>Node1&#45;&gt;Node40</title>
<path fill="none" stroke="midnightblue" d="M1557.62,-111.07C1613.82,-100.45 1701.58,-83.88 1751.94,-74.38"/>
<polygon fill="midnightblue" stroke="midnightblue" points="1556.69,-107.68 1547.51,-112.97 1557.98,-114.56 1556.69,-107.68"/>
</g>
<!-- Node42 -->
<g id="node39" class="node">
<title>Node42</title>
<g id="a_node39"><a xlink:href="_r_a_n_s2_p___i_b_8h.html" target="_top" xlink:title=" ">
<polygon fill="white" stroke="red" points="1848,-56.5 1848,-75.5 1928,-75.5 1928,-56.5 1848,-56.5"/>
<text text-anchor="middle" x="1888" y="-63.5" font-family="Helvetica,sans-Serif" font-size="10.00">RANS2P_IB.h</text>
</a>
</g>
</g>
<!-- Node1&#45;&gt;Node42 -->
<g id="edge38" class="edge">
<title>Node1&#45;&gt;Node42</title>
<path fill="none" stroke="midnightblue" d="M1557.67,-114.69C1623.59,-106.62 1739.86,-91.77 1839,-76 1841.9,-75.54 1844.9,-75.04 1847.92,-74.52"/>
<polygon fill="midnightblue" stroke="midnightblue" points="1557.04,-111.24 1547.54,-115.93 1557.89,-118.19 1557.04,-111.24"/>
</g>
<!-- Node44 -->
<g id="node40" class="node">
<title>Node44</title>
<g id="a_node40"><a xlink:href="_r_a_n_s3_p_f_8h.html" target="_top" xlink:title=" ">
<polygon fill="white" stroke="red" points="1946.5,-56.5 1946.5,-75.5 2015.5,-75.5 2015.5,-56.5 1946.5,-56.5"/>
<text text-anchor="middle" x="1981" y="-63.5" font-family="Helvetica,sans-Serif" font-size="10.00">RANS3PF.h</text>
</a>
</g>
</g>
<!-- Node1&#45;&gt;Node44 -->
<g id="edge39" class="edge">
<title>Node1&#45;&gt;Node44</title>
<path fill="none" stroke="midnightblue" d="M1557.82,-117.18C1639.45,-110.89 1801.03,-96.94 1937,-76 1940.08,-75.53 1943.28,-74.98 1946.47,-74.4"/>
<polygon fill="midnightblue" stroke="midnightblue" points="1557.5,-113.69 1547.79,-117.94 1558.03,-120.67 1557.5,-113.69"/>
</g>
<!-- Node46 -->
<g id="node41" class="node">
<title>Node46</title>
<g id="a_node41"><a xlink:href="_r_a_n_s3_p_f2_d_8h.html" target="_top" xlink:title=" ">
<polygon fill="white" stroke="red" points="2034,-56.5 2034,-75.5 2118,-75.5 2118,-56.5 2034,-56.5"/>
<text text-anchor="middle" x="2076" y="-63.5" font-family="Helvetica,sans-Serif" font-size="10.00">RANS3PF2D.h</text>
</a>
</g>
</g>
<!-- Node1&#45;&gt;Node46 -->
<g id="edge40" class="edge">
<title>Node1&#45;&gt;Node46</title>
<path fill="none" stroke="midnightblue" d="M1557.72,-117.98C1651.83,-112.25 1854.83,-98.33 2025,-76 2027.85,-75.63 2030.79,-75.2 2033.74,-74.75"/>
<polygon fill="midnightblue" stroke="midnightblue" points="1557.37,-114.5 1547.6,-118.59 1557.8,-121.48 1557.37,-114.5"/>
</g>
<!-- Node48 -->
<g id="node42" class="node">
<title>Node48</title>
<g id="a_node42"><a xlink:href="_r_a_n_s3_p_sed_8h.html" target="_top" xlink:title=" ">
<polygon fill="white" stroke="red" points="2136.5,-56.5 2136.5,-75.5 2219.5,-75.5 2219.5,-56.5 2136.5,-56.5"/>
<text text-anchor="middle" x="2178" y="-63.5" font-family="Helvetica,sans-Serif" font-size="10.00">RANS3PSed.h</text>
</a>
</g>
</g>
<!-- Node1&#45;&gt;Node48 -->
<g id="edge41" class="edge">
<title>Node1&#45;&gt;Node48</title>
<path fill="none" stroke="midnightblue" d="M1558.02,-119C1665.62,-114.53 1917.22,-102.03 2127,-76 2130.03,-75.62 2133.16,-75.19 2136.3,-74.72"/>
<polygon fill="midnightblue" stroke="midnightblue" points="1557.6,-115.51 1547.76,-119.42 1557.89,-122.51 1557.6,-115.51"/>
</g>
<!-- Node50 -->
<g id="node43" class="node">
<title>Node50</title>
<g id="a_node43"><a xlink:href="_r_a_n_s3_p_sed2_d_8h.html" target="_top" xlink:title=" ">
<polygon fill="white" stroke="red" points="2238,-56.5 2238,-75.5 2334,-75.5 2334,-56.5 2238,-56.5"/>
<text text-anchor="middle" x="2286" y="-63.5" font-family="Helvetica,sans-Serif" font-size="10.00">RANS3PSed2D.h</text>
</a>
</g>
</g>
<!-- Node1&#45;&gt;Node50 -->
<g id="edge42" class="edge">
<title>Node1&#45;&gt;Node50</title>
<path fill="none" stroke="midnightblue" d="M1557.9,-119.43C1677.67,-115.49 1978.67,-103.48 2229,-76 2231.89,-75.68 2234.85,-75.32 2237.84,-74.93"/>
<polygon fill="midnightblue" stroke="midnightblue" points="1557.44,-115.94 1547.55,-119.76 1557.66,-122.93 1557.44,-115.94"/>
</g>
<!-- Node52 -->
<g id="node44" class="node">
<title>Node52</title>
<g id="a_node44"><a xlink:href="_r_d_l_s_8h.html" target="_top" xlink:title=" ">
<polygon fill="white" stroke="red" points="2352.5,-56.5 2352.5,-75.5 2403.5,-75.5 2403.5,-56.5 2352.5,-56.5"/>
<text text-anchor="middle" x="2378" y="-63.5" font-family="Helvetica,sans-Serif" font-size="10.00">RDLS.h</text>
</a>
</g>
</g>
<!-- Node1&#45;&gt;Node52 -->
<g id="edge43" class="edge">
<title>Node1&#45;&gt;Node52</title>
<path fill="none" stroke="midnightblue" d="M1557.57,-119.54C1716.51,-114.91 2190.47,-99.47 2343,-76 2345.98,-75.54 2349.07,-74.94 2352.12,-74.26"/>
<polygon fill="midnightblue" stroke="midnightblue" points="1557.46,-116.04 1547.56,-119.83 1557.66,-123.04 1557.46,-116.04"/>
</g>
<!-- Node54 -->
<g id="node45" class="node">
<title>Node54</title>
<g id="a_node45"><a xlink:href="_s_w2_d_8h.html" target="_top" xlink:title=" ">
<polygon fill="white" stroke="red" points="2421.5,-56.5 2421.5,-75.5 2476.5,-75.5 2476.5,-56.5 2421.5,-56.5"/>
<text text-anchor="middle" x="2449" y="-63.5" font-family="Helvetica,sans-Serif" font-size="10.00">SW2D.h</text>
</a>
</g>
</g>
<!-- Node1&#45;&gt;Node54 -->
<g id="edge44" class="edge">
<title>Node1&#45;&gt;Node54</title>
<path fill="none" stroke="midnightblue" d="M1557.63,-119.74C1725.38,-115.53 2246.22,-100.74 2413,-76 2415.68,-75.6 2418.44,-75.09 2421.2,-74.52"/>
<polygon fill="midnightblue" stroke="midnightblue" points="1557.47,-116.25 1547.56,-119.99 1557.65,-123.24 1557.47,-116.25"/>
</g>
<!-- Node56 -->
<g id="node46" class="node">
<title>Node56</title>
<g id="a_node46"><a xlink:href="_s_w2_d_c_v_8h.html" target="_top" xlink:title=" ">
<polygon fill="white" stroke="red" points="2494.5,-56.5 2494.5,-75.5 2561.5,-75.5 2561.5,-56.5 2494.5,-56.5"/>
<text text-anchor="middle" x="2528" y="-63.5" font-family="Helvetica,sans-Serif" font-size="10.00">SW2DCV.h</text>
</a>
</g>
</g>
<!-- Node1&#45;&gt;Node56 -->
<g id="edge45" class="edge">
<title>Node1&#45;&gt;Node56</title>
<path fill="none" stroke="midnightblue" d="M1557.9,-121.63C1705.46,-122.75 2133.87,-121.49 2486,-76 2488.66,-75.66 2491.41,-75.23 2494.16,-74.75"/>
<polygon fill="midnightblue" stroke="midnightblue" points="1557.8,-118.13 1547.77,-121.55 1557.74,-125.13 1557.8,-118.13"/>
</g>
<!-- Node58 -->
<g id="node47" class="node">
<title>Node58</title>
<g id="a_node47"><a xlink:href="_v_o_f_8h.html" target="_top" xlink:title=" ">
<polygon fill="white" stroke="red" points="2580,-56.5 2580,-75.5 2624,-75.5 2624,-56.5 2580,-56.5"/>
<text text-anchor="middle" x="2602" y="-63.5" font-family="Helvetica,sans-Serif" font-size="10.00">VOF.h</text>
</a>
</g>
</g>
<!-- Node1&#45;&gt;Node58 -->
<g id="edge46" class="edge">
<title>Node1&#45;&gt;Node58</title>
<path fill="none" stroke="midnightblue" d="M1557.82,-120.45C1744.5,-118.23 2372.64,-108.49 2571,-76 2573.88,-75.53 2576.86,-74.88 2579.8,-74.14"/>
<polygon fill="midnightblue" stroke="midnightblue" points="1557.67,-116.95 1547.71,-120.57 1557.75,-123.95 1557.67,-116.95"/>
</g>
<!-- Node60 -->
<g id="node48" class="node">
<title>Node60</title>
<g id="a_node48"><a xlink:href="_v_o_f3_p_8h.html" target="_top" xlink:title=" ">
<polygon fill="white" stroke="red" points="2642,-56.5 2642,-75.5 2698,-75.5 2698,-56.5 2642,-56.5"/>
<text text-anchor="middle" x="2670" y="-63.5" font-family="Helvetica,sans-Serif" font-size="10.00">VOF3P.h</text>
</a>
</g>
</g>
<!-- Node1&#45;&gt;Node60 -->
<g id="edge47" class="edge">
<title>Node1&#45;&gt;Node60</title>
<path fill="none" stroke="midnightblue" d="M1557.9,-120.28C1751.53,-117.45 2421.33,-105.66 2633,-76 2635.88,-75.6 2638.86,-75.07 2641.83,-74.46"/>
<polygon fill="midnightblue" stroke="midnightblue" points="1557.65,-116.79 1547.7,-120.43 1557.75,-123.79 1557.65,-116.79"/>
</g>
<!-- Node62 -->
<g id="node49" class="node">
<title>Node62</title>
<g id="a_node49"><a xlink:href="_v_o_s3_p_8h.html" target="_top" xlink:title=" ">
<polygon fill="white" stroke="red" points="2716,-56.5 2716,-75.5 2772,-75.5 2772,-56.5 2716,-56.5"/>
<text text-anchor="middle" x="2744" y="-63.5" font-family="Helvetica,sans-Serif" font-size="10.00">VOS3P.h</text>
</a>
</g>
</g>
<!-- Node1&#45;&gt;Node62 -->
<g id="edge48" class="edge">
<title>Node1&#45;&gt;Node62</title>
<path fill="none" stroke="midnightblue" d="M1557.67,-120.44C1759.02,-118.07 2480.06,-107.52 2707,-76 2709.88,-75.6 2712.86,-75.07 2715.83,-74.47"/>
<polygon fill="midnightblue" stroke="midnightblue" points="1557.61,-116.94 1547.65,-120.55 1557.69,-123.94 1557.61,-116.94"/>
</g>
<!-- Node64 -->
<g id="node50" class="node">
<title>Node64</title>
<g id="a_node50"><a xlink:href="_richards_8h.html" target="_top" xlink:title=" ">
<polygon fill="white" stroke="red" points="2790,-56.5 2790,-75.5 2858,-75.5 2858,-56.5 2790,-56.5"/>
<text text-anchor="middle" x="2824" y="-63.5" font-family="Helvetica,sans-Serif" font-size="10.00">Richards.h</text>
</a>
</g>
</g>
<!-- Node1&#45;&gt;Node64 -->
<g id="edge49" class="edge">
<title>Node1&#45;&gt;Node64</title>
<path fill="none" stroke="midnightblue" d="M1557.73,-120.34C1766.88,-117.55 2538.36,-105.45 2781,-76 2783.88,-75.65 2786.85,-75.21 2789.82,-74.7"/>
<polygon fill="midnightblue" stroke="midnightblue" points="1557.58,-116.85 1547.63,-120.48 1557.67,-123.84 1557.58,-116.85"/>
</g>
<!-- Node3 -->
<g id="node3" class="node">
<title>Node3</title>
<g id="a_node3"><a xlink:href="_a_d_r_8cpp.html" target="_top" xlink:title=" ">
<polygon fill="white" stroke="black" points="0,-0.5 0,-19.5 58,-19.5 58,-0.5 0,-0.5"/>
<text text-anchor="middle" x="29" y="-7.5" font-family="Helvetica,sans-Serif" font-size="10.00">ADR.cpp</text>
</a>
</g>
</g>
<!-- Node2&#45;&gt;Node3 -->
<g id="edge2" class="edge">
<title>Node2&#45;&gt;Node3</title>
<path fill="none" stroke="midnightblue" d="M38.18,-46.4C35.83,-37.36 33.13,-26.94 31.27,-19.75"/>
<polygon fill="midnightblue" stroke="midnightblue" points="34.79,-47.28 40.69,-56.08 41.57,-45.52 34.79,-47.28"/>
</g>
<!-- Node5 -->
<g id="node5" class="node">
<title>Node5</title>
<g id="a_node5"><a xlink:href="c_elasto_plastic_8cpp.html" target="_top" xlink:title=" ">
<polygon fill="white" stroke="black" points="76,-0.5 76,-19.5 180,-19.5 180,-0.5 76,-0.5"/>
<text text-anchor="middle" x="128" y="-7.5" font-family="Helvetica,sans-Serif" font-size="10.00">cElastoPlastic.cpp</text>
</a>
</g>
</g>
<!-- Node4&#45;&gt;Node5 -->
<g id="edge4" class="edge">
<title>Node4&#45;&gt;Node5</title>
<path fill="none" stroke="midnightblue" d="M132.55,-46.1C131.39,-37.14 130.06,-26.86 129.13,-19.75"/>
<polygon fill="midnightblue" stroke="midnightblue" points="129.09,-46.62 133.84,-56.08 136.03,-45.72 129.09,-46.62"/>
</g>
<!-- Node7 -->
<g id="node7" class="node">
<title>Node7</title>
<g id="a_node7"><a xlink:href="_added_mass_8cpp.html" target="_top" xlink:title=" ">
<polygon fill="white" stroke="black" points="198.5,-0.5 198.5,-19.5 291.5,-19.5 291.5,-0.5 198.5,-0.5"/>
<text text-anchor="middle" x="245" y="-7.5" font-family="Helvetica,sans-Serif" font-size="10.00">AddedMass.cpp</text>
</a>
</g>
</g>
<!-- Node6&#45;&gt;Node7 -->
<g id="edge6" class="edge">
<title>Node6&#45;&gt;Node7</title>
<path fill="none" stroke="midnightblue" d="M248.9,-46.1C247.9,-37.14 246.76,-26.86 245.97,-19.75"/>
<polygon fill="midnightblue" stroke="midnightblue" points="245.43,-46.53 250.01,-56.08 252.38,-45.76 245.43,-46.53"/>
</g>
<!-- Node9 -->
<g id="node9" class="node">
<title>Node9</title>
<g id="a_node9"><a xlink:href="_c_l_s_v_o_f_8cpp.html" target="_top" xlink:title=" ">
<polygon fill="white" stroke="black" points="310,-0.5 310,-19.5 384,-19.5 384,-0.5 310,-0.5"/>
<text text-anchor="middle" x="347" y="-7.5" font-family="Helvetica,sans-Serif" font-size="10.00">CLSVOF.cpp</text>
</a>
</g>
</g>
<!-- Node8&#45;&gt;Node9 -->
<g id="edge8" class="edge">
<title>Node8&#45;&gt;Node9</title>
<path fill="none" stroke="midnightblue" d="M350.9,-46.1C349.9,-37.14 348.76,-26.86 347.97,-19.75"/>
<polygon fill="midnightblue" stroke="midnightblue" points="347.43,-46.53 352.01,-56.08 354.38,-45.76 347.43,-46.53"/>
</g>
<!-- Node11 -->
<g id="node11" class="node">
<title>Node11</title>
<g id="a_node11"><a xlink:href="_dissipation_8cpp.html" target="_top" xlink:title=" ">
<polygon fill="white" stroke="black" points="402,-0.5 402,-19.5 494,-19.5 494,-0.5 402,-0.5"/>
<text text-anchor="middle" x="448" y="-7.5" font-family="Helvetica,sans-Serif" font-size="10.00">Dissipation.cpp</text>
</a>
</g>
</g>
<!-- Node10&#45;&gt;Node11 -->
<g id="edge10" class="edge">
<title>Node10&#45;&gt;Node11</title>
<path fill="none" stroke="midnightblue" d="M451.9,-46.1C450.9,-37.14 449.76,-26.86 448.97,-19.75"/>
<polygon fill="midnightblue" stroke="midnightblue" points="448.43,-46.53 453.01,-56.08 455.38,-45.76 448.43,-46.53"/>
</g>
<!-- Node13 -->
<g id="node13" class="node">
<title>Node13</title>
<g id="a_node13"><a xlink:href="_dissipation2_d_8cpp.html" target="_top" xlink:title=" ">
<polygon fill="white" stroke="black" points="512.5,-0.5 512.5,-19.5 617.5,-19.5 617.5,-0.5 512.5,-0.5"/>
<text text-anchor="middle" x="565" y="-7.5" font-family="Helvetica,sans-Serif" font-size="10.00">Dissipation2D.cpp</text>
</a>
</g>
</g>
<!-- Node12&#45;&gt;Node13 -->
<g id="edge12" class="edge">
<title>Node12&#45;&gt;Node13</title>
<path fill="none" stroke="midnightblue" d="M568.25,-46.1C567.42,-37.14 566.47,-26.86 565.81,-19.75"/>
<polygon fill="midnightblue" stroke="midnightblue" points="564.77,-46.45 569.17,-56.08 571.74,-45.8 564.77,-46.45"/>
</g>
<!-- Node15 -->
<g id="node15" class="node">
<title>Node15</title>
<g id="a_node15"><a xlink:href="_g_n___s_w2_d_c_v_8cpp.html" target="_top" xlink:title=" ">
<polygon fill="white" stroke="black" points="636,-0.5 636,-19.5 734,-19.5 734,-0.5 636,-0.5"/>
<text text-anchor="middle" x="685" y="-7.5" font-family="Helvetica,sans-Serif" font-size="10.00">GN_SW2DCV.cpp</text>
</a>
</g>
</g>
<!-- Node14&#45;&gt;Node15 -->
<g id="edge14" class="edge">
<title>Node14&#45;&gt;Node15</title>
<path fill="none" stroke="midnightblue" d="M688.25,-46.1C687.42,-37.14 686.47,-26.86 685.81,-19.75"/>
<polygon fill="midnightblue" stroke="midnightblue" points="684.77,-46.45 689.17,-56.08 691.74,-45.8 684.77,-46.45"/>
</g>
<!-- Node17 -->
<g id="node17" class="node">
<title>Node17</title>
<g id="a_node17"><a xlink:href="_kappa_8cpp.html" target="_top" xlink:title=" ">
<polygon fill="white" stroke="black" points="752,-0.5 752,-19.5 820,-19.5 820,-0.5 752,-0.5"/>
<text text-anchor="middle" x="786" y="-7.5" font-family="Helvetica,sans-Serif" font-size="10.00">Kappa.cpp</text>
</a>
</g>
</g>
<!-- Node16&#45;&gt;Node17 -->
<g id="edge16" class="edge">
<title>Node16&#45;&gt;Node17</title>
<path fill="none" stroke="midnightblue" d="M789.9,-46.1C788.9,-37.14 787.76,-26.86 786.97,-19.75"/>
<polygon fill="midnightblue" stroke="midnightblue" points="786.43,-46.53 791.01,-56.08 793.38,-45.76 786.43,-46.53"/>
</g>
<!-- Node19 -->
<g id="node19" class="node">
<title>Node19</title>
<g id="a_node19"><a xlink:href="_kappa2_d_8cpp.html" target="_top" xlink:title=" ">
<polygon fill="white" stroke="black" points="838.5,-0.5 838.5,-19.5 919.5,-19.5 919.5,-0.5 838.5,-0.5"/>
<text text-anchor="middle" x="879" y="-7.5" font-family="Helvetica,sans-Serif" font-size="10.00">Kappa2D.cpp</text>
</a>
</g>
</g>
<!-- Node18&#45;&gt;Node19 -->
<g id="edge18" class="edge">
<title>Node18&#45;&gt;Node19</title>
<path fill="none" stroke="midnightblue" d="M879,-45.8C879,-36.91 879,-26.78 879,-19.75"/>
<polygon fill="midnightblue" stroke="midnightblue" points="875.5,-46.08 879,-56.08 882.5,-46.08 875.5,-46.08"/>
</g>
<!-- Node21 -->
<g id="node21" class="node">
<title>Node21</title>
<g id="a_node21"><a xlink:href="_m_corr_8cpp.html" target="_top" xlink:title=" ">
<polygon fill="white" stroke="black" points="937.5,-0.5 937.5,-19.5 1002.5,-19.5 1002.5,-0.5 937.5,-0.5"/>
<text text-anchor="middle" x="970" y="-7.5" font-family="Helvetica,sans-Serif" font-size="10.00">MCorr.cpp</text>
</a>
</g>
</g>
<!-- Node20&#45;&gt;Node21 -->
<g id="edge20" class="edge">
<title>Node20&#45;&gt;Node21</title>
<path fill="none" stroke="midnightblue" d="M962.85,-46.1C964.68,-37.14 966.77,-26.86 968.22,-19.75"/>
<polygon fill="midnightblue" stroke="midnightblue" points="959.38,-45.59 960.82,-56.08 966.24,-46.98 959.38,-45.59"/>
</g>
<!-- Node23 -->
<g id="node23" class="node">
<title>Node23</title>
<g id="a_node23"><a xlink:href="_m_corr3_p_8cpp.html" target="_top" xlink:title=" ">
<polygon fill="white" stroke="black" points="1020.5,-0.5 1020.5,-19.5 1097.5,-19.5 1097.5,-0.5 1020.5,-0.5"/>
<text text-anchor="middle" x="1059" y="-7.5" font-family="Helvetica,sans-Serif" font-size="10.00">MCorr3P.cpp</text>
</a>
</g>
</g>
<!-- Node22&#45;&gt;Node23 -->
<g id="edge22" class="edge">
<title>Node22&#45;&gt;Node23</title>
<path fill="none" stroke="midnightblue" d="M1044.46,-46.69C1048.17,-37.59 1052.48,-27.01 1055.43,-19.75"/>
<polygon fill="midnightblue" stroke="midnightblue" points="1041.16,-45.5 1040.63,-56.08 1047.65,-48.14 1041.16,-45.5"/>
</g>
<!-- Node25 -->
<g id="node25" class="node">
<title>Node25</title>
<g id="a_node25"><a xlink:href="_move_mesh_8cpp.html" target="_top" xlink:title=" ">
<polygon fill="white" stroke="black" points="1116,-0.5 1116,-19.5 1206,-19.5 1206,-0.5 1116,-0.5"/>
<text text-anchor="middle" x="1161" y="-7.5" font-family="Helvetica,sans-Serif" font-size="10.00">MoveMesh.cpp</text>
</a>
</g>
</g>
<!-- Node24&#45;&gt;Node25 -->
<g id="edge24" class="edge">
<title>Node24&#45;&gt;Node25</title>
<path fill="none" stroke="midnightblue" d="M1137.98,-47.57C1143.83,-38.27 1150.77,-27.25 1155.49,-19.75"/>
<polygon fill="midnightblue" stroke="midnightblue" points="1134.98,-45.76 1132.61,-56.08 1140.9,-49.49 1134.98,-45.76"/>
</g>
<!-- Node27 -->
<g id="node27" class="node">
<title>Node27</title>
<g id="a_node27"><a xlink:href="_move_mesh2_d_8cpp.html" target="_top" xlink:title=" ">
<polygon fill="white" stroke="black" points="1224,-0.5 1224,-19.5 1328,-19.5 1328,-0.5 1224,-0.5"/>
<text text-anchor="middle" x="1276" y="-7.5" font-family="Helvetica,sans-Serif" font-size="10.00">MoveMesh2D.cpp</text>
</a>
</g>
</g>
<!-- Node26&#45;&gt;Node27 -->
<g id="edge26" class="edge">
<title>Node26&#45;&gt;Node27</title>
<path fill="none" stroke="midnightblue" d="M1245.05,-48.14C1252.89,-38.74 1262.33,-27.4 1268.71,-19.75"/>
<polygon fill="midnightblue" stroke="midnightblue" points="1242.14,-46.16 1238.43,-56.08 1247.52,-50.64 1242.14,-46.16"/>
</g>
<!-- Node29 -->
<g id="node29" class="node">
<title>Node29</title>
<g id="a_node29"><a xlink:href="_n_c_l_s_8cpp.html" target="_top" xlink:title=" ">
<polygon fill="white" stroke="black" points="1346,-0.5 1346,-19.5 1408,-19.5 1408,-0.5 1346,-0.5"/>
<text text-anchor="middle" x="1377" y="-7.5" font-family="Helvetica,sans-Serif" font-size="10.00">NCLS.cpp</text>
</a>
</g>
</g>
<!-- Node28&#45;&gt;Node29 -->
<g id="edge28" class="edge">
<title>Node28&#45;&gt;Node29</title>
<path fill="none" stroke="midnightblue" d="M1337.33,-49.25C1347.26,-39.67 1359.59,-27.79 1367.84,-19.83"/>
<polygon fill="midnightblue" stroke="midnightblue" points="1334.77,-46.86 1330,-56.32 1339.63,-51.9 1334.77,-46.86"/>
</g>
<!-- Node31 -->
<g id="node31" class="node">
<title>Node31</title>
<g id="a_node31"><a xlink:href="_n_c_l_s3_p_8cpp.html" target="_top" xlink:title=" ">
<polygon fill="white" stroke="black" points="1426.5,-0.5 1426.5,-19.5 1499.5,-19.5 1499.5,-0.5 1426.5,-0.5"/>
<text text-anchor="middle" x="1463" y="-7.5" font-family="Helvetica,sans-Serif" font-size="10.00">NCLS3P.cpp</text>
</a>
</g>
</g>
<!-- Node30&#45;&gt;Node31 -->
<g id="edge30" class="edge">
<title>Node30&#45;&gt;Node31</title>
<path fill="none" stroke="midnightblue" d="M1414.83,-49.82C1426.84,-40.15 1441.97,-27.95 1452.04,-19.83"/>
<polygon fill="midnightblue" stroke="midnightblue" points="1412.35,-47.32 1406.76,-56.32 1416.75,-52.77 1412.35,-47.32"/>
</g>
<!-- Node33 -->
<g id="node33" class="node">
<title>Node33</title>
<g id="a_node33"><a xlink:href="_pres_8cpp.html" target="_top" xlink:title=" ">
<polygon fill="white" stroke="black" points="1518,-0.5 1518,-19.5 1576,-19.5 1576,-0.5 1518,-0.5"/>
<text text-anchor="middle" x="1547" y="-7.5" font-family="Helvetica,sans-Serif" font-size="10.00">Pres.cpp</text>
</a>
</g>
</g>
<!-- Node32&#45;&gt;Node33 -->
<g id="edge32" class="edge">
<title>Node32&#45;&gt;Node33</title>
<path fill="none" stroke="midnightblue" d="M1489.77,-50.62C1504.02,-40.76 1522.46,-27.99 1534.5,-19.65"/>
<polygon fill="midnightblue" stroke="midnightblue" points="1487.76,-47.75 1481.53,-56.32 1491.75,-53.51 1487.76,-47.75"/>
</g>
<!-- Node35 -->
<g id="node35" class="node">
<title>Node35</title>
<g id="a_node35"><a xlink:href="_pres_inc_8cpp.html" target="_top" xlink:title=" ">
<polygon fill="white" stroke="black" points="1594,-0.5 1594,-19.5 1666,-19.5 1666,-0.5 1594,-0.5"/>
<text text-anchor="middle" x="1630" y="-7.5" font-family="Helvetica,sans-Serif" font-size="10.00">PresInc.cpp</text>
</a>
</g>
</g>
<!-- Node34&#45;&gt;Node35 -->
<g id="edge34" class="edge">
<title>Node34&#45;&gt;Node35</title>
<path fill="none" stroke="midnightblue" d="M1564.24,-50.9C1580.56,-41 1601.87,-28.07 1615.74,-19.65"/>
<polygon fill="midnightblue" stroke="midnightblue" points="1562.03,-48.14 1555.3,-56.32 1565.66,-54.13 1562.03,-48.14"/>
</g>
</g>
</svg>
