<?xml version="1.0" encoding="UTF-8" standalone="no"?>
<!DOCTYPE svg PUBLIC "-//W3C//DTD SVG 1.1//EN"
 "http://www.w3.org/Graphics/SVG/1.1/DTD/svg11.dtd">
<!-- Generated by graphviz version 2.40.1 (20161225.0304)
 -->
<!-- Title: CompKernel.h Pages: 1 -->
<svg width="2811pt" height="140pt"
 viewBox="0.00 0.00 2810.50 140.00" xmlns="http://www.w3.org/2000/svg" xmlns:xlink="http://www.w3.org/1999/xlink">
<g id="graph0" class="graph" transform="scale(1 1) rotate(0) translate(4 136)">
<title>CompKernel.h</title>
<polygon fill="#ffffff" stroke="transparent" points="-4,4 -4,-136 2806.5,-136 2806.5,4 -4,4"/>
<!-- Node2 -->
<g id="node1" class="node">
<title>Node2</title>
<polygon fill="#bfbfbf" stroke="#000000" points="1412,-112.5 1412,-131.5 1491,-131.5 1491,-112.5 1412,-112.5"/>
<text text-anchor="middle" x="1451.5" y="-119.5" font-family="Helvetica,sans-Serif" font-size="10.00" fill="#000000">CompKernel.h</text>
</g>
<!-- Node3 -->
<g id="node2" class="node">
<title>Node3</title>
<g id="a_node2"><a xlink:href="_a_d_r_8h.html" target="_top" xlink:title="ADR.h">
<polygon fill="#ffffff" stroke="#000000" points="18,-56.5 18,-75.5 65,-75.5 65,-56.5 18,-56.5"/>
<text text-anchor="middle" x="41.5" y="-63.5" font-family="Helvetica,sans-Serif" font-size="10.00" fill="#000000">ADR.h</text>
</a>
</g>
</g>
<!-- Node2&#45;&gt;Node3 -->
<g id="edge1" class="edge">
<title>Node2&#45;&gt;Node3</title>
<path fill="none" stroke="#191970" d="M1401.6589,-121.8215C1187.2313,-120.8241 342.2548,-114.4813 79.5,-76 74.7751,-75.308 69.793,-74.2468 65.0475,-73.07"/>
<polygon fill="#191970" stroke="#191970" points="1401.6658,-125.3215 1411.6814,-121.8664 1401.6972,-118.3216 1401.6658,-125.3215"/>
</g>
<!-- Node5 -->
<g id="node4" class="node">
<title>Node5</title>
<g id="a_node4"><a xlink:href="_elasto_plastic_8h.html" target="_top" xlink:title="ElastoPlastic.h">
<polygon fill="#ffffff" stroke="#000000" points="89,-56.5 89,-75.5 172,-75.5 172,-56.5 89,-56.5"/>
<text text-anchor="middle" x="130.5" y="-63.5" font-family="Helvetica,sans-Serif" font-size="10.00" fill="#000000">ElastoPlastic.h</text>
</a>
</g>
</g>
<!-- Node2&#45;&gt;Node5 -->
<g id="edge3" class="edge">
<title>Node2&#45;&gt;Node5</title>
<path fill="none" stroke="#191970" d="M1401.9278,-121.0074C1199.3127,-116.8239 433.4592,-99.7427 192.5,-76 185.8812,-75.3478 178.8965,-74.4387 172.096,-73.432"/>
<polygon fill="#191970" stroke="#191970" points="1401.9101,-124.5077 1411.9799,-121.2139 1402.0539,-117.5092 1401.9101,-124.5077"/>
</g>
<!-- Node7 -->
<g id="node6" class="node">
<title>Node7</title>
<g id="a_node6"><a xlink:href="_added_mass_8h.html" target="_top" xlink:title="AddedMass.h">
<polygon fill="#ffffff" stroke="#000000" points="202,-56.5 202,-75.5 279,-75.5 279,-56.5 202,-56.5"/>
<text text-anchor="middle" x="240.5" y="-63.5" font-family="Helvetica,sans-Serif" font-size="10.00" fill="#000000">AddedMass.h</text>
</a>
</g>
</g>
<!-- Node2&#45;&gt;Node7 -->
<g id="edge5" class="edge">
<title>Node2&#45;&gt;Node7</title>
<path fill="none" stroke="#191970" d="M1401.6567,-120.9248C1209.3717,-116.6355 515.6639,-99.8192 296.5,-76 290.9036,-75.3918 285.0231,-74.5586 279.2625,-73.6309"/>
<polygon fill="#191970" stroke="#191970" points="1401.6797,-124.426 1411.7548,-121.1488 1401.835,-117.4278 1401.6797,-124.426"/>
</g>
<!-- Node9 -->
<g id="node8" class="node">
<title>Node9</title>
<g id="a_node8"><a xlink:href="_c_l_s_v_o_f_8h.html" target="_top" xlink:title="CLSVOF.h">
<polygon fill="#ffffff" stroke="#000000" points="306,-56.5 306,-75.5 371,-75.5 371,-56.5 306,-56.5"/>
<text text-anchor="middle" x="338.5" y="-63.5" font-family="Helvetica,sans-Serif" font-size="10.00" fill="#000000">CLSVOF.h</text>
</a>
</g>
</g>
<!-- Node2&#45;&gt;Node9 -->
<g id="edge7" class="edge">
<title>Node2&#45;&gt;Node9</title>
<path fill="none" stroke="#191970" d="M1401.8525,-120.8151C1219.9602,-116.3234 590.2307,-99.4065 390.5,-76 384.1998,-75.2617 377.5182,-74.1949 371.1184,-73.0303"/>
<polygon fill="#191970" stroke="#191970" points="1401.8499,-124.316 1411.9328,-121.0626 1402.0218,-117.3181 1401.8499,-124.316"/>
</g>
<!-- Node11 -->
<g id="node10" class="node">
<title>Node11</title>
<g id="a_node10"><a xlink:href="_dissipation_8h.html" target="_top" xlink:title="Dissipation.h">
<polygon fill="#ffffff" stroke="#000000" points="399.5,-56.5 399.5,-75.5 473.5,-75.5 473.5,-56.5 399.5,-56.5"/>
<text text-anchor="middle" x="436.5" y="-63.5" font-family="Helvetica,sans-Serif" font-size="10.00" fill="#000000">Dissipation.h</text>
</a>
</g>
</g>
<!-- Node2&#45;&gt;Node11 -->
<g id="edge9" class="edge">
<title>Node2&#45;&gt;Node11</title>
<path fill="none" stroke="#191970" d="M1401.6272,-120.458C1231.0132,-115.0496 671.3667,-96.1751 492.5,-76 486.4155,-75.3137 479.9934,-74.3733 473.7543,-73.3421"/>
<polygon fill="#191970" stroke="#191970" points="1401.7196,-123.9625 1411.825,-120.7799 1401.9405,-116.966 1401.7196,-123.9625"/>
</g>
<!-- Node13 -->
<g id="node12" class="node">
<title>Node13</title>
<g id="a_node12"><a xlink:href="_dissipation2_d_8h.html" target="_top" xlink:title="Dissipation2D.h">
<polygon fill="#ffffff" stroke="#000000" points="501.5,-56.5 501.5,-75.5 587.5,-75.5 587.5,-56.5 501.5,-56.5"/>
<text text-anchor="middle" x="544.5" y="-63.5" font-family="Helvetica,sans-Serif" font-size="10.00" fill="#000000">Dissipation2D.h</text>
</a>
</g>
</g>
<!-- Node2&#45;&gt;Node13 -->
<g id="edge11" class="edge">
<title>Node2&#45;&gt;Node13</title>
<path fill="none" stroke="#191970" d="M1401.6802,-121.1222C1270.9309,-118.4218 907.3046,-108.3547 606.5,-76 600.4293,-75.347 594.0478,-74.5012 587.7819,-73.5782"/>
<polygon fill="#191970" stroke="#191970" points="1401.716,-124.6236 1411.7845,-121.3257 1401.857,-117.625 1401.716,-124.6236"/>
</g>
<!-- Node15 -->
<g id="node14" class="node">
<title>Node15</title>
<g id="a_node14"><a xlink:href="_g_n___s_w2_d_c_v_8h.html" target="_top" xlink:title="GN_SW2DCV.h">
<polygon fill="#ffffff" stroke="#000000" points="616,-56.5 616,-75.5 705,-75.5 705,-56.5 616,-56.5"/>
<text text-anchor="middle" x="660.5" y="-63.5" font-family="Helvetica,sans-Serif" font-size="10.00" fill="#000000">GN_SW2DCV.h</text>
</a>
</g>
</g>
<!-- Node2&#45;&gt;Node15 -->
<g id="edge13" class="edge">
<title>Node2&#45;&gt;Node15</title>
<path fill="none" stroke="#191970" d="M1401.7647,-120.4751C1283.7493,-116.5044 977.6433,-104.1359 723.5,-76 717.5561,-75.342 711.3167,-74.5166 705.1708,-73.6237"/>
<polygon fill="#191970" stroke="#191970" points="1401.8191,-123.9788 1411.9296,-120.8119 1402.051,-116.9826 1401.8191,-123.9788"/>
</g>
<!-- Node17 -->
<g id="node16" class="node">
<title>Node17</title>
<g id="a_node16"><a xlink:href="_kappa_8h.html" target="_top" xlink:title="Kappa.h">
<polygon fill="#ffffff" stroke="#000000" points="733,-56.5 733,-75.5 786,-75.5 786,-56.5 733,-56.5"/>
<text text-anchor="middle" x="759.5" y="-63.5" font-family="Helvetica,sans-Serif" font-size="10.00" fill="#000000">Kappa.h</text>
</a>
</g>
</g>
<!-- Node2&#45;&gt;Node17 -->
<g id="edge15" class="edge">
<title>Node2&#45;&gt;Node17</title>
<path fill="none" stroke="#191970" d="M1401.9127,-121.3422C1292.6342,-119.2715 1023.0894,-110.7547 800.5,-76 795.867,-75.2766 790.9881,-74.2899 786.2756,-73.2168"/>
<polygon fill="#191970" stroke="#191970" points="1401.9195,-124.8428 1411.9808,-121.5231 1402.0453,-117.8439 1401.9195,-124.8428"/>
</g>
<!-- Node19 -->
<g id="node18" class="node">
<title>Node19</title>
<g id="a_node18"><a xlink:href="_kappa2_d_8h.html" target="_top" xlink:title="Kappa2D.h">
<polygon fill="#ffffff" stroke="#000000" points="810,-56.5 810,-75.5 875,-75.5 875,-56.5 810,-56.5"/>
<text text-anchor="middle" x="842.5" y="-63.5" font-family="Helvetica,sans-Serif" font-size="10.00" fill="#000000">Kappa2D.h</text>
</a>
</g>
</g>
<!-- Node2&#45;&gt;Node19 -->
<g id="edge17" class="edge">
<title>Node2&#45;&gt;Node19</title>
<path fill="none" stroke="#191970" d="M1401.704,-120.5157C1302.6477,-117.001 1074.0915,-106.0804 884.5,-76 881.5388,-75.5302 878.4777,-74.963 875.42,-74.3405"/>
<polygon fill="#191970" stroke="#191970" points="1401.6117,-124.0145 1411.7265,-120.8616 1401.8532,-117.0187 1401.6117,-124.0145"/>
</g>
<!-- Node21 -->
<g id="node20" class="node">
<title>Node21</title>
<g id="a_node20"><a xlink:href="_m_corr_8h.html" target="_top" xlink:title="MCorr.h">
<polygon fill="#ffffff" stroke="#000000" points="893.5,-56.5 893.5,-75.5 945.5,-75.5 945.5,-56.5 893.5,-56.5"/>
<text text-anchor="middle" x="919.5" y="-63.5" font-family="Helvetica,sans-Serif" font-size="10.00" fill="#000000">MCorr.h</text>
</a>
</g>
</g>
<!-- Node2&#45;&gt;Node21 -->
<g id="edge19" class="edge">
<title>Node2&#45;&gt;Node21</title>
<path fill="none" stroke="#191970" d="M1401.6672,-120.4513C1311.6636,-116.9768 1116.3046,-106.3297 954.5,-76 951.6428,-75.4644 948.6823,-74.7984 945.7479,-74.0662"/>
<polygon fill="#191970" stroke="#191970" points="1401.7304,-123.956 1411.8539,-120.8311 1401.9912,-116.9609 1401.7304,-123.956"/>
</g>
<!-- Node23 -->
<g id="node22" class="node">
<title>Node23</title>
<g id="a_node22"><a xlink:href="_m_corr3_p_8h.html" target="_top" xlink:title="MCorr3P.h">
<polygon fill="#ffffff" stroke="#000000" points="963.5,-56.5 963.5,-75.5 1027.5,-75.5 1027.5,-56.5 963.5,-56.5"/>
<text text-anchor="middle" x="995.5" y="-63.5" font-family="Helvetica,sans-Serif" font-size="10.00" fill="#000000">MCorr3P.h</text>
</a>
</g>
</g>
<!-- Node2&#45;&gt;Node23 -->
<g id="edge21" class="edge">
<title>Node2&#45;&gt;Node23</title>
<path fill="none" stroke="#191970" d="M1401.7247,-118.5662C1323.531,-112.7046 1167.3285,-99.1063 1036.5,-76 1033.614,-75.4903 1030.6289,-74.8957 1027.6461,-74.2553"/>
<polygon fill="#191970" stroke="#191970" points="1401.545,-122.0624 1411.7758,-119.3091 1402.061,-115.0814 1401.545,-122.0624"/>
</g>
<!-- Node25 -->
<g id="node24" class="node">
<title>Node25</title>
<g id="a_node24"><a xlink:href="_move_mesh_8h.html" target="_top" xlink:title="MoveMesh.h">
<polygon fill="#ffffff" stroke="#000000" points="1046,-56.5 1046,-75.5 1119,-75.5 1119,-56.5 1046,-56.5"/>
<text text-anchor="middle" x="1082.5" y="-63.5" font-family="Helvetica,sans-Serif" font-size="10.00" fill="#000000">MoveMesh.h</text>
</a>
</g>
</g>
<!-- Node2&#45;&gt;Node25 -->
<g id="edge23" class="edge">
<title>Node2&#45;&gt;Node25</title>
<path fill="none" stroke="#191970" d="M1401.412,-116.0119C1337.7628,-108.14 1224.6137,-93.2676 1128.5,-76 1125.4433,-75.4508 1122.2806,-74.8444 1119.1105,-74.2097"/>
<polygon fill="#191970" stroke="#191970" points="1401.218,-119.5143 1411.5703,-117.2607 1402.0721,-112.5666 1401.218,-119.5143"/>
</g>
<!-- Node27 -->
<g id="node26" class="node">
<title>Node27</title>
<g id="a_node26"><a xlink:href="_move_mesh2_d_8h.html" target="_top" xlink:title="MoveMesh2D.h">
<polygon fill="#ffffff" stroke="#000000" points="1137.5,-56.5 1137.5,-75.5 1223.5,-75.5 1223.5,-56.5 1137.5,-56.5"/>
<text text-anchor="middle" x="1180.5" y="-63.5" font-family="Helvetica,sans-Serif" font-size="10.00" fill="#000000">MoveMesh2D.h</text>
</a>
</g>
</g>
<!-- Node2&#45;&gt;Node27 -->
<g id="edge25" class="edge">
<title>Node2&#45;&gt;Node27</title>
<path fill="none" stroke="#191970" d="M1402.0014,-111.7715C1351.06,-101.2449 1272.4768,-85.0063 1223.8923,-74.9667"/>
<polygon fill="#191970" stroke="#191970" points="1401.3026,-115.201 1411.804,-113.7971 1402.7193,-108.3458 1401.3026,-115.201"/>
</g>
<!-- Node29 -->
<g id="node28" class="node">
<title>Node29</title>
<g id="a_node28"><a xlink:href="_n_c_l_s_8h.html" target="_top" xlink:title="NCLS.h">
<polygon fill="#ffffff" stroke="#000000" points="1241.5,-56.5 1241.5,-75.5 1293.5,-75.5 1293.5,-56.5 1241.5,-56.5"/>
<text text-anchor="middle" x="1267.5" y="-63.5" font-family="Helvetica,sans-Serif" font-size="10.00" fill="#000000">NCLS.h</text>
</a>
</g>
</g>
<!-- Node2&#45;&gt;Node29 -->
<g id="edge27" class="edge">
<title>Node2&#45;&gt;Node29</title>
<path fill="none" stroke="#191970" d="M1410.2263,-109.4384C1374.542,-98.578 1324.0457,-83.2096 1293.665,-73.9633"/>
<polygon fill="#191970" stroke="#191970" points="1409.2834,-112.8099 1419.8693,-112.3733 1411.3216,-106.1132 1409.2834,-112.8099"/>
</g>
<!-- Node31 -->
<g id="node30" class="node">
<title>Node31</title>
<g id="a_node30"><a xlink:href="_n_c_l_s3_p_8h.html" target="_top" xlink:title="NCLS3P.h">
<polygon fill="#ffffff" stroke="#000000" points="1311.5,-56.5 1311.5,-75.5 1375.5,-75.5 1375.5,-56.5 1311.5,-56.5"/>
<text text-anchor="middle" x="1343.5" y="-63.5" font-family="Helvetica,sans-Serif" font-size="10.00" fill="#000000">NCLS3P.h</text>
</a>
</g>
</g>
<!-- Node2&#45;&gt;Node31 -->
<g id="edge29" class="edge">
<title>Node2&#45;&gt;Node31</title>
<path fill="none" stroke="#191970" d="M1423.7229,-107.5971C1404.3618,-97.558 1379.0615,-84.4393 1362.0966,-75.6427"/>
<polygon fill="#191970" stroke="#191970" points="1422.1992,-110.7495 1432.6878,-112.2455 1425.4214,-104.5352 1422.1992,-110.7495"/>
</g>
<!-- Node33 -->
<g id="node32" class="node">
<title>Node33</title>
<g id="a_node32"><a xlink:href="_pres_8h.html" target="_top" xlink:title="Pres.h">
<polygon fill="#ffffff" stroke="#000000" points="1394,-56.5 1394,-75.5 1439,-75.5 1439,-56.5 1394,-56.5"/>
<text text-anchor="middle" x="1416.5" y="-63.5" font-family="Helvetica,sans-Serif" font-size="10.00" fill="#000000">Pres.h</text>
</a>
</g>
</g>
<!-- Node2&#45;&gt;Node33 -->
<g id="edge31" class="edge">
<title>Node2&#45;&gt;Node33</title>
<path fill="none" stroke="#191970" d="M1440.0185,-103.6296C1434.1804,-94.2887 1427.3248,-83.3197 1422.5267,-75.6427"/>
<polygon fill="#191970" stroke="#191970" points="1437.1354,-105.6206 1445.4035,-112.2455 1443.0714,-101.9105 1437.1354,-105.6206"/>
</g>
<!-- Node35 -->
<g id="node34" class="node">
<title>Node35</title>
<g id="a_node34"><a xlink:href="_pres_inc_8h.html" target="_top" xlink:title="PresInc.h">
<polygon fill="#ffffff" stroke="#000000" points="1457,-56.5 1457,-75.5 1516,-75.5 1516,-56.5 1457,-56.5"/>
<text text-anchor="middle" x="1486.5" y="-63.5" font-family="Helvetica,sans-Serif" font-size="10.00" fill="#000000">PresInc.h</text>
</a>
</g>
</g>
<!-- Node2&#45;&gt;Node35 -->
<g id="edge33" class="edge">
<title>Node2&#45;&gt;Node35</title>
<path fill="none" stroke="#191970" d="M1462.9815,-103.6296C1468.8196,-94.2887 1475.6752,-83.3197 1480.4733,-75.6427"/>
<polygon fill="#191970" stroke="#191970" points="1459.9286,-101.9105 1457.5965,-112.2455 1465.8646,-105.6206 1459.9286,-101.9105"/>
</g>
<!-- Node37 -->
<g id="node36" class="node">
<title>Node37</title>
<g id="a_node36"><a xlink:href="_pres_init_8h.html" target="_top" xlink:title="PresInit.h">
<polygon fill="#ffffff" stroke="#ff0000" points="1534,-56.5 1534,-75.5 1593,-75.5 1593,-56.5 1534,-56.5"/>
<text text-anchor="middle" x="1563.5" y="-63.5" font-family="Helvetica,sans-Serif" font-size="10.00" fill="#000000">PresInit.h</text>
</a>
</g>
</g>
<!-- Node2&#45;&gt;Node37 -->
<g id="edge35" class="edge">
<title>Node2&#45;&gt;Node37</title>
<path fill="none" stroke="#191970" d="M1479.8263,-107.8368C1500.0721,-97.7139 1526.7642,-84.3679 1544.4978,-75.5011"/>
<polygon fill="#191970" stroke="#191970" points="1478.1325,-104.7706 1470.7535,-112.3733 1481.263,-111.0316 1478.1325,-104.7706"/>
</g>
<!-- Node39 -->
<g id="node37" class="node">
<title>Node39</title>
<g id="a_node37"><a xlink:href="_r_a_n_s2_p_8h.html" target="_top" xlink:title="RANS2P.h">
<polygon fill="#ffffff" stroke="#ff0000" points="1611,-56.5 1611,-75.5 1676,-75.5 1676,-56.5 1611,-56.5"/>
<text text-anchor="middle" x="1643.5" y="-63.5" font-family="Helvetica,sans-Serif" font-size="10.00" fill="#000000">RANS2P.h</text>
</a>
</g>
</g>
<!-- Node2&#45;&gt;Node39 -->
<g id="edge36" class="edge">
<title>Node2&#45;&gt;Node39</title>
<path fill="none" stroke="#191970" d="M1494.5077,-109.4561C1529.7521,-99.1765 1578.8736,-84.8494 1610.9247,-75.5011"/>
<polygon fill="#191970" stroke="#191970" points="1493.126,-106.2132 1484.506,-112.3733 1495.086,-112.9332 1493.126,-106.2132"/>
</g>
<!-- Node41 -->
<g id="node38" class="node">
<title>Node41</title>
<g id="a_node38"><a xlink:href="_r_a_n_s2_p2_d_8h.html" target="_top" xlink:title="RANS2P2D.h">
<polygon fill="#ffffff" stroke="#ff0000" points="1694.5,-56.5 1694.5,-75.5 1772.5,-75.5 1772.5,-56.5 1694.5,-56.5"/>
<text text-anchor="middle" x="1733.5" y="-63.5" font-family="Helvetica,sans-Serif" font-size="10.00" fill="#000000">RANS2P2D.h</text>
</a>
</g>
</g>
<!-- Node2&#45;&gt;Node41 -->
<g id="edge37" class="edge">
<title>Node2&#45;&gt;Node41</title>
<path fill="none" stroke="#191970" d="M1501.2744,-112.3842C1548.668,-103.1883 1621.9871,-88.8582 1685.5,-76 1688.4201,-75.4088 1691.4389,-74.7924 1694.4749,-74.1686"/>
<polygon fill="#191970" stroke="#191970" points="1500.4257,-108.9835 1491.2747,-114.3229 1501.7581,-115.8555 1500.4257,-108.9835"/>
</g>
<!-- Node43 -->
<g id="node39" class="node">
<title>Node43</title>
<g id="a_node39"><a xlink:href="_r_a_n_s2_p___i_b_8h.html" target="_top" xlink:title="RANS2P_IB.h">
<polygon fill="#ffffff" stroke="#ff0000" points="1790.5,-56.5 1790.5,-75.5 1870.5,-75.5 1870.5,-56.5 1790.5,-56.5"/>
<text text-anchor="middle" x="1830.5" y="-63.5" font-family="Helvetica,sans-Serif" font-size="10.00" fill="#000000">RANS2P_IB.h</text>
</a>
</g>
</g>
<!-- Node2&#45;&gt;Node43 -->
<g id="edge38" class="edge">
<title>Node2&#45;&gt;Node43</title>
<path fill="none" stroke="#191970" d="M1501.1764,-116.0631C1565.8902,-108.103 1682.4651,-92.9908 1781.5,-76 1784.4095,-75.5008 1787.4104,-74.9579 1790.4273,-74.3916"/>
<polygon fill="#191970" stroke="#191970" points="1500.7469,-112.5894 1491.2461,-117.2784 1501.5973,-119.5376 1500.7469,-112.5894"/>
</g>
<!-- Node45 -->
<g id="node40" class="node">
<title>Node45</title>
<g id="a_node40"><a xlink:href="_r_a_n_s3_p_f_8h.html" target="_top" xlink:title="RANS3PF.h">
<polygon fill="#ffffff" stroke="#ff0000" points="1889,-56.5 1889,-75.5 1960,-75.5 1960,-56.5 1889,-56.5"/>
<text text-anchor="middle" x="1924.5" y="-63.5" font-family="Helvetica,sans-Serif" font-size="10.00" fill="#000000">RANS3PF.h</text>
</a>
</g>
</g>
<!-- Node2&#45;&gt;Node45 -->
<g id="edge39" class="edge">
<title>Node2&#45;&gt;Node45</title>
<path fill="none" stroke="#191970" d="M1501.5243,-118.4447C1581.6672,-112.3405 1743.6416,-98.3246 1879.5,-76 1882.5009,-75.5069 1885.6025,-74.9398 1888.7086,-74.3316"/>
<polygon fill="#191970" stroke="#191970" points="1500.9433,-114.9784 1491.2341,-119.219 1501.4686,-121.9587 1500.9433,-114.9784"/>
</g>
<!-- Node47 -->
<g id="node41" class="node">
<title>Node47</title>
<g id="a_node41"><a xlink:href="_r_a_n_s3_p_f2_d_8h.html" target="_top" xlink:title="RANS3PF2D.h">
<polygon fill="#ffffff" stroke="#ff0000" points="1978.5,-56.5 1978.5,-75.5 2062.5,-75.5 2062.5,-56.5 1978.5,-56.5"/>
<text text-anchor="middle" x="2020.5" y="-63.5" font-family="Helvetica,sans-Serif" font-size="10.00" fill="#000000">RANS3PF2D.h</text>
</a>
</g>
</g>
<!-- Node2&#45;&gt;Node47 -->
<g id="edge40" class="edge">
<title>Node2&#45;&gt;Node47</title>
<path fill="none" stroke="#191970" d="M1501.5109,-119.3108C1594.1674,-113.94 1798.6508,-100.2675 1969.5,-76 1972.3586,-75.594 1975.2994,-75.1332 1978.2572,-74.6377"/>
<polygon fill="#191970" stroke="#191970" points="1501.0884,-115.8291 1491.3047,-119.8949 1501.4884,-122.8177 1501.0884,-115.8291"/>
</g>
<!-- Node49 -->
<g id="node42" class="node">
<title>Node49</title>
<g id="a_node42"><a xlink:href="_r_a_n_s3_p_sed_8h.html" target="_top" xlink:title="RANS3PSed.h">
<polygon fill="#ffffff" stroke="#ff0000" points="2081,-56.5 2081,-75.5 2164,-75.5 2164,-56.5 2081,-56.5"/>
<text text-anchor="middle" x="2122.5" y="-63.5" font-family="Helvetica,sans-Serif" font-size="10.00" fill="#000000">RANS3PSed.h</text>
</a>
</g>
</g>
<!-- Node2&#45;&gt;Node49 -->
<g id="edge41" class="edge">
<title>Node2&#45;&gt;Node49</title>
<path fill="none" stroke="#191970" d="M1501.2412,-120.3287C1606.7429,-116.341 1860.5735,-104.4002 2071.5,-76 2074.5403,-75.5906 2077.6726,-75.1136 2080.8189,-74.5941"/>
<polygon fill="#191970" stroke="#191970" points="1501.0656,-116.8327 1491.2022,-120.7009 1501.325,-123.8279 1501.0656,-116.8327"/>
</g>
<!-- Node51 -->
<g id="node43" class="node">
<title>Node51</title>
<g id="a_node43"><a xlink:href="_r_a_n_s3_p_sed2_d_8h.html" target="_top" xlink:title="RANS3PSed2D.h">
<polygon fill="#ffffff" stroke="#ff0000" points="2182,-56.5 2182,-75.5 2277,-75.5 2277,-56.5 2182,-56.5"/>
<text text-anchor="middle" x="2229.5" y="-63.5" font-family="Helvetica,sans-Serif" font-size="10.00" fill="#000000">RANS3PSed2D.h</text>
</a>
</g>
</g>
<!-- Node2&#45;&gt;Node51 -->
<g id="edge42" class="edge">
<title>Node2&#45;&gt;Node51</title>
<path fill="none" stroke="#191970" d="M1501.2861,-120.7665C1618.7168,-117.4349 1922.0344,-106.3643 2173.5,-76 2176.2453,-75.6685 2179.0601,-75.2899 2181.8961,-74.8784"/>
<polygon fill="#191970" stroke="#191970" points="1501.0671,-117.2711 1491.1681,-121.0473 1501.2614,-124.2684 1501.0671,-117.2711"/>
</g>
<!-- Node53 -->
<g id="node44" class="node">
<title>Node53</title>
<g id="a_node44"><a xlink:href="_r_d_l_s_8h.html" target="_top" xlink:title="RDLS.h">
<polygon fill="#ffffff" stroke="#ff0000" points="2295.5,-56.5 2295.5,-75.5 2347.5,-75.5 2347.5,-56.5 2295.5,-56.5"/>
<text text-anchor="middle" x="2321.5" y="-63.5" font-family="Helvetica,sans-Serif" font-size="10.00" fill="#000000">RDLS.h</text>
</a>
</g>
</g>
<!-- Node2&#45;&gt;Node53 -->
<g id="edge43" class="edge">
<title>Node2&#45;&gt;Node53</title>
<path fill="none" stroke="#191970" d="M1501.6644,-120.7052C1657.8565,-116.4423 2134.1213,-101.6343 2286.5,-76 2289.3667,-75.5177 2292.3333,-74.8859 2295.2712,-74.1739"/>
<polygon fill="#191970" stroke="#191970" points="1501.3144,-117.2133 1491.4127,-120.9824 1501.5037,-124.2107 1501.3144,-117.2133"/>
</g>
<!-- Node55 -->
<g id="node45" class="node">
<title>Node55</title>
<g id="a_node45"><a xlink:href="_s_w2_d_8h.html" target="_top" xlink:title="SW2D.h">
<polygon fill="#ffffff" stroke="#ff0000" points="2365.5,-56.5 2365.5,-75.5 2419.5,-75.5 2419.5,-56.5 2365.5,-56.5"/>
<text text-anchor="middle" x="2392.5" y="-63.5" font-family="Helvetica,sans-Serif" font-size="10.00" fill="#000000">SW2D.h</text>
</a>
</g>
</g>
<!-- Node2&#45;&gt;Node55 -->
<g id="edge44" class="edge">
<title>Node2&#45;&gt;Node55</title>
<path fill="none" stroke="#191970" d="M1501.353,-120.9112C1665.7511,-117.0941 2189.7311,-103.0613 2356.5,-76 2359.3173,-75.5428 2362.2296,-74.9474 2365.121,-74.2748"/>
<polygon fill="#191970" stroke="#191970" points="1500.969,-117.419 1491.052,-121.1479 1501.1298,-124.4172 1500.969,-117.419"/>
</g>
<!-- Node57 -->
<g id="node46" class="node">
<title>Node57</title>
<g id="a_node46"><a xlink:href="_s_w2_d_c_v_8h.html" target="_top" xlink:title="SW2DCV.h">
<polygon fill="#ffffff" stroke="#ff0000" points="2437.5,-56.5 2437.5,-75.5 2505.5,-75.5 2505.5,-56.5 2437.5,-56.5"/>
<text text-anchor="middle" x="2471.5" y="-63.5" font-family="Helvetica,sans-Serif" font-size="10.00" fill="#000000">SW2DCV.h</text>
</a>
</g>
</g>
<!-- Node2&#45;&gt;Node57 -->
<g id="edge45" class="edge">
<title>Node2&#45;&gt;Node57</title>
<path fill="none" stroke="#191970" d="M1501.2098,-120.8528C1673.7972,-116.6835 2246.4662,-101.2391 2428.5,-76 2431.3849,-75.6 2434.3608,-75.0984 2437.3371,-74.5342"/>
<polygon fill="#191970" stroke="#191970" points="1501.0535,-117.3555 1491.1403,-121.0942 1501.2213,-124.3535 1501.0535,-117.3555"/>
</g>
<!-- Node59 -->
<g id="node47" class="node">
<title>Node59</title>
<g id="a_node47"><a xlink:href="_v_o_f_8h.html" target="_top" xlink:title="VOF.h">
<polygon fill="#ffffff" stroke="#ff0000" points="2524,-56.5 2524,-75.5 2569,-75.5 2569,-56.5 2524,-56.5"/>
<text text-anchor="middle" x="2546.5" y="-63.5" font-family="Helvetica,sans-Serif" font-size="10.00" fill="#000000">VOF.h</text>
</a>
</g>
</g>
<!-- Node2&#45;&gt;Node59 -->
<g id="edge46" class="edge">
<title>Node2&#45;&gt;Node59</title>
<path fill="none" stroke="#191970" d="M1501.3488,-121.5558C1683.9616,-119.6622 2316.0339,-110.6948 2514.5,-76 2517.5961,-75.4588 2520.8099,-74.7009 2523.9539,-73.8419"/>
<polygon fill="#191970" stroke="#191970" points="1501.1924,-118.0571 1491.2284,-121.6582 1501.2633,-125.0567 1501.1924,-118.0571"/>
</g>
<!-- Node61 -->
<g id="node48" class="node">
<title>Node61</title>
<g id="a_node48"><a xlink:href="_v_o_f3_p_8h.html" target="_top" xlink:title="VOF3P.h">
<polygon fill="#ffffff" stroke="#ff0000" points="2587,-56.5 2587,-75.5 2644,-75.5 2644,-56.5 2587,-56.5"/>
<text text-anchor="middle" x="2615.5" y="-63.5" font-family="Helvetica,sans-Serif" font-size="10.00" fill="#000000">VOF3P.h</text>
</a>
</g>
</g>
<!-- Node2&#45;&gt;Node61 -->
<g id="edge47" class="edge">
<title>Node2&#45;&gt;Node61</title>
<path fill="none" stroke="#191970" d="M1501.4403,-121.4422C1691.0484,-119.0944 2366.3359,-108.5819 2578.5,-76 2581.2623,-75.5758 2584.1142,-75.0216 2586.9518,-74.3915"/>
<polygon fill="#191970" stroke="#191970" points="1501.1702,-117.9451 1491.2136,-121.5667 1501.2555,-124.9446 1501.1702,-117.9451"/>
</g>
<!-- Node63 -->
<g id="node49" class="node">
<title>Node63</title>
<g id="a_node49"><a xlink:href="_v_o_s3_p_8h.html" target="_top" xlink:title="VOS3P.h">
<polygon fill="#ffffff" stroke="#ff0000" points="2662.5,-56.5 2662.5,-75.5 2720.5,-75.5 2720.5,-56.5 2662.5,-56.5"/>
<text text-anchor="middle" x="2691.5" y="-63.5" font-family="Helvetica,sans-Serif" font-size="10.00" fill="#000000">VOS3P.h</text>
</a>
</g>
</g>
<!-- Node2&#45;&gt;Node63 -->
<g id="edge48" class="edge">
<title>Node2&#45;&gt;Node63</title>
<path fill="none" stroke="#191970" d="M1501.1507,-121.5489C1698.2394,-119.5341 2425.7156,-109.9109 2653.5,-76 2656.3339,-75.5781 2659.2608,-75.0255 2662.1739,-74.3964"/>
<polygon fill="#191970" stroke="#191970" points="1501.051,-118.0496 1491.0867,-121.6498 1501.1213,-125.0493 1501.051,-118.0496"/>
</g>
<!-- Node65 -->
<g id="node50" class="node">
<title>Node65</title>
<g id="a_node50"><a xlink:href="_richards_8h.html" target="_top" xlink:title="Richards.h">
<polygon fill="#ffffff" stroke="#ff0000" points="2738.5,-56.5 2738.5,-75.5 2802.5,-75.5 2802.5,-56.5 2738.5,-56.5"/>
<text text-anchor="middle" x="2770.5" y="-63.5" font-family="Helvetica,sans-Serif" font-size="10.00" fill="#000000">Richards.h</text>
</a>
</g>
</g>
<!-- Node2&#45;&gt;Node65 -->
<g id="edge49" class="edge">
<title>Node2&#45;&gt;Node65</title>
<path fill="none" stroke="#191970" d="M1501.1994,-121.5606C1706.0741,-119.5408 2485.7778,-109.7507 2729.5,-76 2732.403,-75.598 2735.3998,-75.0775 2738.3902,-74.4853"/>
<polygon fill="#191970" stroke="#191970" points="1501.0057,-118.0622 1491.0401,-121.659 1501.0736,-125.0618 1501.0057,-118.0622"/>
</g>
<!-- Node4 -->
<g id="node3" class="node">
<title>Node4</title>
<g id="a_node3"><a xlink:href="_a_d_r_8cpp.html" target="_top" xlink:title="ADR.cpp">
<polygon fill="#ffffff" stroke="#000000" points="0,-.5 0,-19.5 57,-19.5 57,-.5 0,-.5"/>
<text text-anchor="middle" x="28.5" y="-7.5" font-family="Helvetica,sans-Serif" font-size="10.00" fill="#000000">ADR.cpp</text>
</a>
</g>
</g>
<!-- Node3&#45;&gt;Node4 -->
<g id="edge2" class="edge">
<title>Node3&#45;&gt;Node4</title>
<path fill="none" stroke="#191970" d="M36.9625,-46.4538C34.8561,-37.3803 32.4464,-26.9998 30.7385,-19.6427"/>
<polygon fill="#191970" stroke="#191970" points="33.5649,-47.2961 39.2356,-56.2455 40.3835,-45.7131 33.5649,-47.2961"/>
</g>
<!-- Node6 -->
<g id="node5" class="node">
<title>Node6</title>
<g id="a_node5"><a xlink:href="c_elasto_plastic_8cpp.html" target="_top" xlink:title="cElastoPlastic.cpp">
<polygon fill="#ffffff" stroke="#000000" points="75.5,-.5 75.5,-19.5 173.5,-19.5 173.5,-.5 75.5,-.5"/>
<text text-anchor="middle" x="124.5" y="-7.5" font-family="Helvetica,sans-Serif" font-size="10.00" fill="#000000">cElastoPlastic.cpp</text>
</a>
</g>
</g>
<!-- Node5&#45;&gt;Node6 -->
<g id="edge4" class="edge">
<title>Node5&#45;&gt;Node6</title>
<path fill="none" stroke="#191970" d="M128.374,-46.1575C127.4095,-37.155 126.3128,-26.9199 125.5331,-19.6427"/>
<polygon fill="#191970" stroke="#191970" points="124.9094,-46.6753 129.4549,-56.2455 131.8695,-45.9296 124.9094,-46.6753"/>
</g>
<!-- Node8 -->
<g id="node7" class="node">
<title>Node8</title>
<g id="a_node7"><a xlink:href="_added_mass_8cpp.html" target="_top" xlink:title="AddedMass.cpp">
<polygon fill="#ffffff" stroke="#000000" points="192,-.5 192,-19.5 279,-19.5 279,-.5 192,-.5"/>
<text text-anchor="middle" x="235.5" y="-7.5" font-family="Helvetica,sans-Serif" font-size="10.00" fill="#000000">AddedMass.cpp</text>
</a>
</g>
</g>
<!-- Node7&#45;&gt;Node8 -->
<g id="edge6" class="edge">
<title>Node7&#45;&gt;Node8</title>
<path fill="none" stroke="#191970" d="M238.7283,-46.1575C237.9246,-37.155 237.0107,-26.9199 236.361,-19.6427"/>
<polygon fill="#191970" stroke="#191970" points="235.2535,-46.5965 239.6291,-56.2455 242.2258,-45.9739 235.2535,-46.5965"/>
</g>
<!-- Node10 -->
<g id="node9" class="node">
<title>Node10</title>
<g id="a_node9"><a xlink:href="_c_l_s_v_o_f_8cpp.html" target="_top" xlink:title="CLSVOF.cpp">
<polygon fill="#ffffff" stroke="#000000" points="297,-.5 297,-19.5 372,-19.5 372,-.5 297,-.5"/>
<text text-anchor="middle" x="334.5" y="-7.5" font-family="Helvetica,sans-Serif" font-size="10.00" fill="#000000">CLSVOF.cpp</text>
</a>
</g>
</g>
<!-- Node9&#45;&gt;Node10 -->
<g id="edge8" class="edge">
<title>Node9&#45;&gt;Node10</title>
<path fill="none" stroke="#191970" d="M337.0827,-46.1575C336.4396,-37.155 335.7086,-26.9199 335.1888,-19.6427"/>
<polygon fill="#191970" stroke="#191970" points="333.5996,-46.5204 337.8033,-56.2455 340.5818,-46.0216 333.5996,-46.5204"/>
</g>
<!-- Node12 -->
<g id="node11" class="node">
<title>Node12</title>
<g id="a_node11"><a xlink:href="_dissipation_8cpp.html" target="_top" xlink:title="Dissipation.cpp">
<polygon fill="#ffffff" stroke="#000000" points="389.5,-.5 389.5,-19.5 473.5,-19.5 473.5,-.5 389.5,-.5"/>
<text text-anchor="middle" x="431.5" y="-7.5" font-family="Helvetica,sans-Serif" font-size="10.00" fill="#000000">Dissipation.cpp</text>
</a>
</g>
</g>
<!-- Node11&#45;&gt;Node12 -->
<g id="edge10" class="edge">
<title>Node11&#45;&gt;Node12</title>
<path fill="none" stroke="#191970" d="M434.7283,-46.1575C433.9246,-37.155 433.0107,-26.9199 432.361,-19.6427"/>
<polygon fill="#191970" stroke="#191970" points="431.2535,-46.5965 435.6291,-56.2455 438.2258,-45.9739 431.2535,-46.5965"/>
</g>
<!-- Node14 -->
<g id="node13" class="node">
<title>Node14</title>
<g id="a_node13"><a xlink:href="_dissipation2_d_8cpp.html" target="_top" xlink:title="Dissipation2D.cpp">
<polygon fill="#ffffff" stroke="#000000" points="491,-.5 491,-19.5 588,-19.5 588,-.5 491,-.5"/>
<text text-anchor="middle" x="539.5" y="-7.5" font-family="Helvetica,sans-Serif" font-size="10.00" fill="#000000">Dissipation2D.cpp</text>
</a>
</g>
</g>
<!-- Node13&#45;&gt;Node14 -->
<g id="edge12" class="edge">
<title>Node13&#45;&gt;Node14</title>
<path fill="none" stroke="#191970" d="M542.7283,-46.1575C541.9246,-37.155 541.0107,-26.9199 540.361,-19.6427"/>
<polygon fill="#191970" stroke="#191970" points="539.2535,-46.5965 543.6291,-56.2455 546.2258,-45.9739 539.2535,-46.5965"/>
</g>
<!-- Node16 -->
<g id="node15" class="node">
<title>Node16</title>
<g id="a_node15"><a xlink:href="_g_n___s_w2_d_c_v_8cpp.html" target="_top" xlink:title="GN_SW2DCV.cpp">
<polygon fill="#ffffff" stroke="#000000" points="606,-.5 606,-19.5 705,-19.5 705,-.5 606,-.5"/>
<text text-anchor="middle" x="655.5" y="-7.5" font-family="Helvetica,sans-Serif" font-size="10.00" fill="#000000">GN_SW2DCV.cpp</text>
</a>
</g>
</g>
<!-- Node15&#45;&gt;Node16 -->
<g id="edge14" class="edge">
<title>Node15&#45;&gt;Node16</title>
<path fill="none" stroke="#191970" d="M658.7283,-46.1575C657.9246,-37.155 657.0107,-26.9199 656.361,-19.6427"/>
<polygon fill="#191970" stroke="#191970" points="655.2535,-46.5965 659.6291,-56.2455 662.2258,-45.9739 655.2535,-46.5965"/>
</g>
<!-- Node18 -->
<g id="node17" class="node">
<title>Node18</title>
<g id="a_node17"><a xlink:href="_kappa_8cpp.html" target="_top" xlink:title="Kappa.cpp">
<polygon fill="#ffffff" stroke="#000000" points="723,-.5 723,-19.5 786,-19.5 786,-.5 723,-.5"/>
<text text-anchor="middle" x="754.5" y="-7.5" font-family="Helvetica,sans-Serif" font-size="10.00" fill="#000000">Kappa.cpp</text>
</a>
</g>
</g>
<!-- Node17&#45;&gt;Node18 -->
<g id="edge16" class="edge">
<title>Node17&#45;&gt;Node18</title>
<path fill="none" stroke="#191970" d="M757.7283,-46.1575C756.9246,-37.155 756.0107,-26.9199 755.361,-19.6427"/>
<polygon fill="#191970" stroke="#191970" points="754.2535,-46.5965 758.6291,-56.2455 761.2258,-45.9739 754.2535,-46.5965"/>
</g>
<!-- Node20 -->
<g id="node19" class="node">
<title>Node20</title>
<g id="a_node19"><a xlink:href="_kappa2_d_8cpp.html" target="_top" xlink:title="Kappa2D.cpp">
<polygon fill="#ffffff" stroke="#000000" points="804.5,-.5 804.5,-19.5 880.5,-19.5 880.5,-.5 804.5,-.5"/>
<text text-anchor="middle" x="842.5" y="-7.5" font-family="Helvetica,sans-Serif" font-size="10.00" fill="#000000">Kappa2D.cpp</text>
</a>
</g>
</g>
<!-- Node19&#45;&gt;Node20 -->
<g id="edge18" class="edge">
<title>Node19&#45;&gt;Node20</title>
<path fill="none" stroke="#191970" d="M842.5,-46.1575C842.5,-37.155 842.5,-26.9199 842.5,-19.6427"/>
<polygon fill="#191970" stroke="#191970" points="839.0001,-46.2455 842.5,-56.2455 846.0001,-46.2456 839.0001,-46.2455"/>
</g>
<!-- Node22 -->
<g id="node21" class="node">
<title>Node22</title>
<g id="a_node21"><a xlink:href="_m_corr_8cpp.html" target="_top" xlink:title="MCorr.cpp">
<polygon fill="#ffffff" stroke="#000000" points="898.5,-.5 898.5,-19.5 960.5,-19.5 960.5,-.5 898.5,-.5"/>
<text text-anchor="middle" x="929.5" y="-7.5" font-family="Helvetica,sans-Serif" font-size="10.00" fill="#000000">MCorr.cpp</text>
</a>
</g>
</g>
<!-- Node21&#45;&gt;Node22 -->
<g id="edge20" class="edge">
<title>Node21&#45;&gt;Node22</title>
<path fill="none" stroke="#191970" d="M923.0433,-46.1575C924.6509,-37.155 926.4786,-26.9199 927.7781,-19.6427"/>
<polygon fill="#191970" stroke="#191970" points="919.5544,-45.786 921.2419,-56.2455 926.4454,-47.0166 919.5544,-45.786"/>
</g>
<!-- Node24 -->
<g id="node23" class="node">
<title>Node24</title>
<g id="a_node23"><a xlink:href="_m_corr3_p_8cpp.html" target="_top" xlink:title="MCorr3P.cpp">
<polygon fill="#ffffff" stroke="#000000" points="978.5,-.5 978.5,-19.5 1052.5,-19.5 1052.5,-.5 978.5,-.5"/>
<text text-anchor="middle" x="1015.5" y="-7.5" font-family="Helvetica,sans-Serif" font-size="10.00" fill="#000000">MCorr3P.cpp</text>
</a>
</g>
</g>
<!-- Node23&#45;&gt;Node24 -->
<g id="edge22" class="edge">
<title>Node23&#45;&gt;Node24</title>
<path fill="none" stroke="#191970" d="M1002.3753,-46.7493C1005.6406,-37.6064 1009.4001,-27.0798 1012.0562,-19.6427"/>
<polygon fill="#191970" stroke="#191970" points="999.0511,-45.6509 998.9837,-56.2455 1005.6433,-48.0053 999.0511,-45.6509"/>
</g>
<!-- Node26 -->
<g id="node25" class="node">
<title>Node26</title>
<g id="a_node25"><a xlink:href="_move_mesh_8cpp.html" target="_top" xlink:title="MoveMesh.cpp">
<polygon fill="#ffffff" stroke="#000000" points="1071,-.5 1071,-19.5 1154,-19.5 1154,-.5 1071,-.5"/>
<text text-anchor="middle" x="1112.5" y="-7.5" font-family="Helvetica,sans-Serif" font-size="10.00" fill="#000000">MoveMesh.cpp</text>
</a>
</g>
</g>
<!-- Node25&#45;&gt;Node26 -->
<g id="edge24" class="edge">
<title>Node25&#45;&gt;Node26</title>
<path fill="none" stroke="#191970" d="M1092.498,-47.3372C1097.4676,-38.0605 1103.2644,-27.2398 1107.3343,-19.6427"/>
<polygon fill="#191970" stroke="#191970" points="1089.3627,-45.7779 1087.7256,-56.2455 1095.5331,-49.0835 1089.3627,-45.7779"/>
</g>
<!-- Node28 -->
<g id="node27" class="node">
<title>Node28</title>
<g id="a_node27"><a xlink:href="_move_mesh2_d_8cpp.html" target="_top" xlink:title="MoveMesh2D.cpp">
<polygon fill="#ffffff" stroke="#000000" points="1172.5,-.5 1172.5,-19.5 1268.5,-19.5 1268.5,-.5 1172.5,-.5"/>
<text text-anchor="middle" x="1220.5" y="-7.5" font-family="Helvetica,sans-Serif" font-size="10.00" fill="#000000">MoveMesh2D.cpp</text>
</a>
</g>
</g>
<!-- Node27&#45;&gt;Node28 -->
<g id="edge26" class="edge">
<title>Node27&#45;&gt;Node28</title>
<path fill="none" stroke="#191970" d="M1193.4136,-47.9209C1200.1303,-38.5176 1208.0717,-27.3997 1213.6124,-19.6427"/>
<polygon fill="#191970" stroke="#191970" points="1190.4318,-46.0738 1187.4675,-56.2455 1196.128,-50.1425 1190.4318,-46.0738"/>
</g>
<!-- Node30 -->
<g id="node29" class="node">
<title>Node30</title>
<g id="a_node29"><a xlink:href="_n_c_l_s_8cpp.html" target="_top" xlink:title="NCLS.cpp">
<polygon fill="#ffffff" stroke="#000000" points="1286.5,-.5 1286.5,-19.5 1348.5,-19.5 1348.5,-.5 1286.5,-.5"/>
<text text-anchor="middle" x="1317.5" y="-7.5" font-family="Helvetica,sans-Serif" font-size="10.00" fill="#000000">NCLS.cpp</text>
</a>
</g>
</g>
<!-- Node29&#45;&gt;Node30 -->
<g id="edge28" class="edge">
<title>Node29&#45;&gt;Node30</title>
<path fill="none" stroke="#191970" d="M1283.1247,-48.5004C1291.6273,-38.9775 1301.8218,-27.5596 1308.8905,-19.6427"/>
<polygon fill="#191970" stroke="#191970" points="1280.2587,-46.4551 1276.2093,-56.2455 1285.4803,-51.1172 1280.2587,-46.4551"/>
</g>
<!-- Node32 -->
<g id="node31" class="node">
<title>Node32</title>
<g id="a_node31"><a xlink:href="_n_c_l_s3_p_8cpp.html" target="_top" xlink:title="NCLS3P.cpp">
<polygon fill="#ffffff" stroke="#000000" points="1366.5,-.5 1366.5,-19.5 1440.5,-19.5 1440.5,-.5 1366.5,-.5"/>
<text text-anchor="middle" x="1403.5" y="-7.5" font-family="Helvetica,sans-Serif" font-size="10.00" fill="#000000">NCLS3P.cpp</text>
</a>
</g>
</g>
<!-- Node31&#45;&gt;Node32 -->
<g id="edge30" class="edge">
<title>Node31&#45;&gt;Node32</title>
<path fill="none" stroke="#191970" d="M1361.3278,-49.3607C1371.7078,-39.6727 1384.4291,-27.7995 1393.1686,-19.6427"/>
<polygon fill="#191970" stroke="#191970" points="1358.8737,-46.8636 1353.9512,-56.2455 1363.6499,-51.981 1358.8737,-46.8636"/>
</g>
<!-- Node34 -->
<g id="node33" class="node">
<title>Node34</title>
<g id="a_node33"><a xlink:href="_pres_8cpp.html" target="_top" xlink:title="Pres.cpp">
<polygon fill="#ffffff" stroke="#000000" points="1458.5,-.5 1458.5,-19.5 1514.5,-19.5 1514.5,-.5 1458.5,-.5"/>
<text text-anchor="middle" x="1486.5" y="-7.5" font-family="Helvetica,sans-Serif" font-size="10.00" fill="#000000">Pres.cpp</text>
</a>
</g>
</g>
<!-- Node33&#45;&gt;Node34 -->
<g id="edge32" class="edge">
<title>Node33&#45;&gt;Node34</title>
<path fill="none" stroke="#191970" d="M1436.59,-49.928C1448.8253,-40.1397 1464.0507,-27.9595 1474.4467,-19.6427"/>
<polygon fill="#191970" stroke="#191970" points="1434.3153,-47.2655 1428.6931,-56.2455 1438.6882,-52.7316 1434.3153,-47.2655"/>
</g>
<!-- Node36 -->
<g id="node35" class="node">
<title>Node36</title>
<g id="a_node35"><a xlink:href="_pres_inc_8cpp.html" target="_top" xlink:title="PresInc.cpp">
<polygon fill="#ffffff" stroke="#000000" points="1533,-.5 1533,-19.5 1602,-19.5 1602,-.5 1533,-.5"/>
<text text-anchor="middle" x="1567.5" y="-7.5" font-family="Helvetica,sans-Serif" font-size="10.00" fill="#000000">PresInc.cpp</text>
</a>
</g>
</g>
<!-- Node35&#45;&gt;Node36 -->
<g id="edge34" class="edge">
<title>Node35&#45;&gt;Node36</title>
<path fill="none" stroke="#191970" d="M1508.934,-50.49C1523.2254,-40.6096 1541.2916,-28.1194 1553.5526,-19.6427"/>
<polygon fill="#191970" stroke="#191970" points="1506.8443,-47.6797 1500.6091,-56.2455 1510.8251,-53.4376 1506.8443,-47.6797"/>
</g>
</g>
</svg>
