<?xml version="1.0" encoding="UTF-8" standalone="no"?>
<!DOCTYPE svg PUBLIC "-//W3C//DTD SVG 1.1//EN"
 "http://www.w3.org/Graphics/SVG/1.1/DTD/svg11.dtd">
<!-- Generated by graphviz version 2.40.1 (20161225.0304)
 -->
<!-- Title: Dissipation2D.cpp Pages: 1 -->
<svg width="733pt" height="196pt"
 viewBox="0.00 0.00 732.50 196.00" xmlns="http://www.w3.org/2000/svg" xmlns:xlink="http://www.w3.org/1999/xlink">
<g id="graph0" class="graph" transform="scale(1 1) rotate(0) translate(4 192)">
<title>Dissipation2D.cpp</title>
<polygon fill="#ffffff" stroke="transparent" points="-4,4 -4,-192 728.5,-192 728.5,4 -4,4"/>
<!-- Node0 -->
<g id="node1" class="node">
<title>Node0</title>
<polygon fill="#bfbfbf" stroke="#000000" points="126.5,-168.5 126.5,-187.5 223.5,-187.5 223.5,-168.5 126.5,-168.5"/>
<text text-anchor="middle" x="175" y="-175.5" font-family="Helvetica,sans-Serif" font-size="10.00" fill="#000000">Dissipation2D.cpp</text>
</g>
<!-- Node1 -->
<g id="node2" class="node">
<title>Node1</title>
<polygon fill="#ffffff" stroke="#bfbfbf" points="0,-112.5 0,-131.5 106,-131.5 106,-112.5 0,-112.5"/>
<text text-anchor="middle" x="53" y="-119.5" font-family="Helvetica,sans-Serif" font-size="10.00" fill="#000000">pybind11/pybind11.h</text>
</g>
<!-- Node0&#45;&gt;Node1 -->
<g id="edge1" class="edge">
<title>Node0&#45;&gt;Node1</title>
<path fill="none" stroke="#191970" d="M154.0275,-168.3733C134.4433,-159.3838 105.0039,-145.8706 82.949,-135.7471"/>
<polygon fill="#191970" stroke="#191970" points="84.2473,-132.4919 73.6989,-131.5011 81.3271,-138.8538 84.2473,-132.4919"/>
</g>
<!-- Node2 -->
<g id="node3" class="node">
<title>Node2</title>
<polygon fill="#ffffff" stroke="#bfbfbf" points="124.5,-112.5 124.5,-131.5 225.5,-131.5 225.5,-112.5 124.5,-112.5"/>
<text text-anchor="middle" x="175" y="-119.5" font-family="Helvetica,sans-Serif" font-size="10.00" fill="#000000">pybind11/stl_bind.h</text>
</g>
<!-- Node0&#45;&gt;Node2 -->
<g id="edge2" class="edge">
<title>Node0&#45;&gt;Node2</title>
<path fill="none" stroke="#191970" d="M175,-168.2455C175,-160.9382 175,-150.6944 175,-141.7046"/>
<polygon fill="#191970" stroke="#191970" points="178.5001,-141.6426 175,-131.6427 171.5001,-141.6427 178.5001,-141.6426"/>
</g>
<!-- Node3 -->
<g id="node4" class="node">
<title>Node3</title>
<g id="a_node4"><a xlink:href="_dissipation2_d_8h.html" target="_top" xlink:title="Dissipation2D.h">
<polygon fill="#ffffff" stroke="#000000" points="244,-112.5 244,-131.5 330,-131.5 330,-112.5 244,-112.5"/>
<text text-anchor="middle" x="287" y="-119.5" font-family="Helvetica,sans-Serif" font-size="10.00" fill="#000000">Dissipation2D.h</text>
</a>
</g>
</g>
<!-- Node0&#45;&gt;Node3 -->
<g id="edge3" class="edge">
<title>Node0&#45;&gt;Node3</title>
<path fill="none" stroke="#191970" d="M194.2535,-168.3733C212.0712,-159.4644 238.7747,-146.1127 258.9594,-136.0203"/>
<polygon fill="#191970" stroke="#191970" points="260.6187,-139.1038 267.9978,-131.5011 257.4882,-132.8428 260.6187,-139.1038"/>
</g>
<!-- Node4 -->
<g id="node5" class="node">
<title>Node4</title>
<polygon fill="#ffffff" stroke="#bfbfbf" points="133,-.5 133,-19.5 177,-19.5 177,-.5 133,-.5"/>
<text text-anchor="middle" x="155" y="-7.5" font-family="Helvetica,sans-Serif" font-size="10.00" fill="#000000">cmath</text>
</g>
<!-- Node3&#45;&gt;Node4 -->
<g id="edge4" class="edge">
<title>Node3&#45;&gt;Node4</title>
<path fill="none" stroke="#191970" d="M243.816,-114.0459C220.1551,-107.5725 192.0548,-96.0837 174,-76 162.6779,-63.4057 158.0706,-44.4705 156.2123,-30.1072"/>
<polygon fill="#191970" stroke="#191970" points="159.6614,-29.4028 155.2355,-19.7767 152.6925,-30.0618 159.6614,-29.4028"/>
</g>
<!-- Node5 -->
<g id="node6" class="node">
<title>Node5</title>
<polygon fill="#ffffff" stroke="#bfbfbf" points="227,-.5 227,-19.5 281,-19.5 281,-.5 227,-.5"/>
<text text-anchor="middle" x="254" y="-7.5" font-family="Helvetica,sans-Serif" font-size="10.00" fill="#000000">iostream</text>
</g>
<!-- Node3&#45;&gt;Node5 -->
<g id="edge5" class="edge">
<title>Node3&#45;&gt;Node5</title>
<path fill="none" stroke="#191970" d="M284.2137,-112.1465C280.551,-99.2346 273.8904,-75.8935 268,-56 265.3963,-47.2065 262.4491,-37.489 259.9326,-29.2598"/>
<polygon fill="#191970" stroke="#191970" points="263.218,-28.0351 256.9378,-19.5021 256.526,-30.089 263.218,-28.0351"/>
</g>
<!-- Node6 -->
<g id="node7" class="node">
<title>Node6</title>
<g id="a_node7"><a xlink:href="_comp_kernel_8h.html" target="_top" xlink:title="CompKernel.h">
<polygon fill="#ffffff" stroke="#000000" points="47.5,-56.5 47.5,-75.5 126.5,-75.5 126.5,-56.5 47.5,-56.5"/>
<text text-anchor="middle" x="87" y="-63.5" font-family="Helvetica,sans-Serif" font-size="10.00" fill="#000000">CompKernel.h</text>
</a>
</g>
</g>
<!-- Node3&#45;&gt;Node6 -->
<g id="edge6" class="edge">
<title>Node3&#45;&gt;Node6</title>
<path fill="none" stroke="#191970" d="M252.6188,-112.3733C218.9299,-102.9404 167.4518,-88.5265 130.8382,-78.2747"/>
<polygon fill="#191970" stroke="#191970" points="131.506,-74.8271 120.9326,-75.5011 129.6185,-81.5679 131.506,-74.8271"/>
</g>
<!-- Node7 -->
<g id="node8" class="node">
<title>Node7</title>
<g id="a_node8"><a xlink:href="_model_factory_8h.html" target="_top" xlink:title="ModelFactory.h">
<polygon fill="#ffffff" stroke="#000000" points="315,-56.5 315,-75.5 399,-75.5 399,-56.5 315,-56.5"/>
<text text-anchor="middle" x="357" y="-63.5" font-family="Helvetica,sans-Serif" font-size="10.00" fill="#000000">ModelFactory.h</text>
</a>
</g>
</g>
<!-- Node3&#45;&gt;Node7 -->
<g id="edge8" class="edge">
<title>Node3&#45;&gt;Node7</title>
<path fill="none" stroke="#191970" d="M299.1931,-112.2455C309.6321,-103.8943 324.8655,-91.7076 337.074,-81.9408"/>
<polygon fill="#191970" stroke="#191970" points="339.3244,-84.6227 344.9467,-75.6427 334.9515,-79.1566 339.3244,-84.6227"/>
</g>
<!-- Node8 -->
<g id="node9" class="node">
<title>Node8</title>
<g id="a_node9"><a xlink:href="_sed_closure_8h.html" target="_top" xlink:title="SedClosure.h">
<polygon fill="#ffffff" stroke="#000000" points="183,-56.5 183,-75.5 259,-75.5 259,-56.5 183,-56.5"/>
<text text-anchor="middle" x="221" y="-63.5" font-family="Helvetica,sans-Serif" font-size="10.00" fill="#000000">SedClosure.h</text>
</a>
</g>
</g>
<!-- Node3&#45;&gt;Node8 -->
<g id="edge10" class="edge">
<title>Node3&#45;&gt;Node8</title>
<path fill="none" stroke="#191970" d="M275.5037,-112.2455C265.7558,-103.9746 251.5741,-91.9416 240.1202,-82.2232"/>
<polygon fill="#191970" stroke="#191970" points="242.2541,-79.4437 232.3646,-75.6427 237.7253,-84.7813 242.2541,-79.4437"/>
</g>
<!-- Node9 -->
<g id="node10" class="node">
<title>Node9</title>
<polygon fill="#ffffff" stroke="#bfbfbf" points="299.5,-.5 299.5,-19.5 434.5,-19.5 434.5,-.5 299.5,-.5"/>
<text text-anchor="middle" x="367" y="-7.5" font-family="Helvetica,sans-Serif" font-size="10.00" fill="#000000">xtensor&#45;python/pyarray.hpp</text>
</g>
<!-- Node3&#45;&gt;Node9 -->
<g id="edge20" class="edge">
<title>Node3&#45;&gt;Node9</title>
<path fill="none" stroke="#191970" d="M325.5713,-112.4404C357.195,-103.7303 398.2711,-90.1067 408,-76 419.4779,-59.3571 403.4636,-39.5798 388.2136,-26.0425"/>
<polygon fill="#191970" stroke="#191970" points="390.3816,-23.2933 380.4581,-19.5819 385.9012,-28.6716 390.3816,-23.2933"/>
</g>
<!-- Node10 -->
<g id="node11" class="node">
<title>Node10</title>
<g id="a_node11"><a xlink:href="_arguments_dict_8h.html" target="_top" xlink:title="ArgumentsDict.h">
<polygon fill="#ffffff" stroke="#000000" points="480,-56.5 480,-75.5 570,-75.5 570,-56.5 480,-56.5"/>
<text text-anchor="middle" x="525" y="-63.5" font-family="Helvetica,sans-Serif" font-size="10.00" fill="#000000">ArgumentsDict.h</text>
</a>
</g>
</g>
<!-- Node3&#45;&gt;Node10 -->
<g id="edge14" class="edge">
<title>Node3&#45;&gt;Node10</title>
<path fill="none" stroke="#191970" d="M327.6432,-112.4369C368.2895,-102.8731 430.8913,-88.1432 474.6587,-77.845"/>
<polygon fill="#191970" stroke="#191970" points="475.5919,-81.2211 484.5244,-75.5237 473.9886,-74.4072 475.5919,-81.2211"/>
</g>
<!-- Node6&#45;&gt;Node4 -->
<g id="edge7" class="edge">
<title>Node6&#45;&gt;Node4</title>
<path fill="none" stroke="#191970" d="M98.8447,-56.2455C108.888,-47.9746 123.4995,-35.9416 135.3004,-26.2232"/>
<polygon fill="#191970" stroke="#191970" points="137.7967,-28.7015 143.291,-19.6427 133.3467,-23.298 137.7967,-28.7015"/>
</g>
<!-- Node7&#45;&gt;Node5 -->
<g id="edge9" class="edge">
<title>Node7&#45;&gt;Node5</title>
<path fill="none" stroke="#191970" d="M339.0588,-56.2455C322.96,-47.4928 299.1121,-34.527 280.7609,-24.5496"/>
<polygon fill="#191970" stroke="#191970" points="282.1929,-21.3444 271.7356,-19.6427 278.8493,-27.4942 282.1929,-21.3444"/>
</g>
<!-- Node8&#45;&gt;Node4 -->
<g id="edge11" class="edge">
<title>Node8&#45;&gt;Node4</title>
<path fill="none" stroke="#191970" d="M209.5037,-56.2455C199.7558,-47.9746 185.5741,-35.9416 174.1202,-26.2232"/>
<polygon fill="#191970" stroke="#191970" points="176.2541,-23.4437 166.3646,-19.6427 171.7253,-28.7813 176.2541,-23.4437"/>
</g>
<!-- Node8&#45;&gt;Node5 -->
<g id="edge12" class="edge">
<title>Node8&#45;&gt;Node5</title>
<path fill="none" stroke="#191970" d="M226.7482,-56.2455C231.2435,-48.617 237.6248,-37.7881 243.0825,-28.5267"/>
<polygon fill="#191970" stroke="#191970" points="246.2561,-30.035 248.3177,-19.6427 240.2253,-26.4811 246.2561,-30.035"/>
</g>
<!-- Node8&#45;&gt;Node9 -->
<g id="edge13" class="edge">
<title>Node8&#45;&gt;Node9</title>
<path fill="none" stroke="#191970" d="M246.0983,-56.3733C269.9555,-47.2226 306.0335,-33.3844 332.571,-23.2057"/>
<polygon fill="#191970" stroke="#191970" points="334.1459,-26.3503 342.2292,-19.5011 331.639,-19.8145 334.1459,-26.3503"/>
</g>
<!-- Node10&#45;&gt;Node9 -->
<g id="edge18" class="edge">
<title>Node10&#45;&gt;Node9</title>
<path fill="none" stroke="#191970" d="M497.8388,-56.3733C471.7933,-47.1419 432.2884,-33.1402 403.5021,-22.9375"/>
<polygon fill="#191970" stroke="#191970" points="404.4015,-19.5429 393.8067,-19.5011 402.063,-26.1408 404.4015,-19.5429"/>
</g>
<!-- Node11 -->
<g id="node12" class="node">
<title>Node11</title>
<polygon fill="#ffffff" stroke="#bfbfbf" points="689.5,-.5 689.5,-19.5 724.5,-19.5 724.5,-.5 689.5,-.5"/>
<text text-anchor="middle" x="707" y="-7.5" font-family="Helvetica,sans-Serif" font-size="10.00" fill="#000000">map</text>
</g>
<!-- Node10&#45;&gt;Node11 -->
<g id="edge15" class="edge">
<title>Node10&#45;&gt;Node11</title>
<path fill="none" stroke="#191970" d="M560.259,-56.4768C589.9952,-48.2521 633.8447,-35.6739 679.9012,-20.2079"/>
<polygon fill="#191970" stroke="#191970" points="681.1014,-23.4967 689.4477,-16.9707 678.8534,-16.8675 681.1014,-23.4967"/>
</g>
<!-- Node12 -->
<g id="node13" class="node">
<title>Node12</title>
<polygon fill="#ffffff" stroke="#bfbfbf" points="452.5,-.5 452.5,-19.5 511.5,-19.5 511.5,-.5 452.5,-.5"/>
<text text-anchor="middle" x="482" y="-7.5" font-family="Helvetica,sans-Serif" font-size="10.00" fill="#000000">stdexcept</text>
</g>
<!-- Node10&#45;&gt;Node12 -->
<g id="edge16" class="edge">
<title>Node10&#45;&gt;Node12</title>
<path fill="none" stroke="#191970" d="M517.51,-56.2455C511.4674,-48.3761 502.8097,-37.101 495.5559,-27.6542"/>
<polygon fill="#191970" stroke="#191970" points="498.2705,-25.4426 489.4042,-19.6427 492.7185,-29.7058 498.2705,-25.4426"/>
</g>
<!-- Node13 -->
<g id="node14" class="node">
<title>Node13</title>
<polygon fill="#ffffff" stroke="#bfbfbf" points="529.5,-.5 529.5,-19.5 570.5,-19.5 570.5,-.5 529.5,-.5"/>
<text text-anchor="middle" x="550" y="-7.5" font-family="Helvetica,sans-Serif" font-size="10.00" fill="#000000">string</text>
</g>
<!-- Node10&#45;&gt;Node13 -->
<g id="edge17" class="edge">
<title>Node10&#45;&gt;Node13</title>
<path fill="none" stroke="#191970" d="M529.3547,-56.2455C532.7244,-48.6973 537.493,-38.0158 541.5983,-28.8197"/>
<polygon fill="#191970" stroke="#191970" points="544.8147,-30.2009 545.6952,-19.6427 538.4227,-27.3473 544.8147,-30.2009"/>
</g>
<!-- Node14 -->
<g id="node15" class="node">
<title>Node14</title>
<polygon fill="#ffffff" stroke="#bfbfbf" points="588.5,-.5 588.5,-19.5 671.5,-19.5 671.5,-.5 588.5,-.5"/>
<text text-anchor="middle" x="630" y="-7.5" font-family="Helvetica,sans-Serif" font-size="10.00" fill="#000000">xtensor/xio.hpp</text>
</g>
<!-- Node10&#45;&gt;Node14 -->
<g id="edge19" class="edge">
<title>Node10&#45;&gt;Node14</title>
<path fill="none" stroke="#191970" d="M543.2896,-56.2455C559.7762,-47.4527 584.2352,-34.4079 602.9765,-24.4125"/>
<polygon fill="#191970" stroke="#191970" points="604.7435,-27.4368 611.92,-19.6427 601.4494,-21.2604 604.7435,-27.4368"/>
</g>
</g>
</svg>
