<?xml version="1.0" encoding="UTF-8" standalone="no"?>
<!DOCTYPE svg PUBLIC "-//W3C//DTD SVG 1.1//EN"
 "http://www.w3.org/Graphics/SVG/1.1/DTD/svg11.dtd">
<!-- Generated by graphviz version 2.40.1 (20161225.0304)
 -->
<!-- Title: Dissipation.h Pages: 1 -->
<svg width="685pt" height="140pt"
 viewBox="0.00 0.00 685.00 140.00" xmlns="http://www.w3.org/2000/svg" xmlns:xlink="http://www.w3.org/1999/xlink">
<g id="graph0" class="graph" transform="scale(1 1) rotate(0) translate(4 136)">
<title>Dissipation.h</title>
<polygon fill="#ffffff" stroke="transparent" points="-4,4 -4,-136 681,-136 681,4 -4,4"/>
<!-- Node0 -->
<g id="node1" class="node">
<title>Node0</title>
<polygon fill="#bfbfbf" stroke="#000000" points="202.5,-112.5 202.5,-131.5 276.5,-131.5 276.5,-112.5 202.5,-112.5"/>
<text text-anchor="middle" x="239.5" y="-119.5" font-family="Helvetica,sans-Serif" font-size="10.00" fill="#000000">Dissipation.h</text>
</g>
<!-- Node1 -->
<g id="node2" class="node">
<title>Node1</title>
<polygon fill="#ffffff" stroke="#bfbfbf" points="85.5,-.5 85.5,-19.5 129.5,-19.5 129.5,-.5 85.5,-.5"/>
<text text-anchor="middle" x="107.5" y="-7.5" font-family="Helvetica,sans-Serif" font-size="10.00" fill="#000000">cmath</text>
</g>
<!-- Node0&#45;&gt;Node1 -->
<g id="edge1" class="edge">
<title>Node0&#45;&gt;Node1</title>
<path fill="none" stroke="#191970" d="M202.3316,-115.6117C177.5785,-109.4909 146.1125,-97.8164 126.5,-76 115.1779,-63.4057 110.5706,-44.4705 108.7123,-30.1072"/>
<polygon fill="#191970" stroke="#191970" points="112.1614,-29.4028 107.7355,-19.7767 105.1925,-30.0618 112.1614,-29.4028"/>
</g>
<!-- Node2 -->
<g id="node3" class="node">
<title>Node2</title>
<polygon fill="#ffffff" stroke="#bfbfbf" points="179.5,-.5 179.5,-19.5 233.5,-19.5 233.5,-.5 179.5,-.5"/>
<text text-anchor="middle" x="206.5" y="-7.5" font-family="Helvetica,sans-Serif" font-size="10.00" fill="#000000">iostream</text>
</g>
<!-- Node0&#45;&gt;Node2 -->
<g id="edge2" class="edge">
<title>Node0&#45;&gt;Node2</title>
<path fill="none" stroke="#191970" d="M236.7137,-112.1465C233.051,-99.2346 226.3904,-75.8935 220.5,-56 217.8963,-47.2065 214.9491,-37.489 212.4326,-29.2598"/>
<polygon fill="#191970" stroke="#191970" points="215.718,-28.0351 209.4378,-19.5021 209.026,-30.089 215.718,-28.0351"/>
</g>
<!-- Node3 -->
<g id="node4" class="node">
<title>Node3</title>
<g id="a_node4"><a xlink:href="_comp_kernel_8h.html" target="_top" xlink:title="CompKernel.h">
<polygon fill="#ffffff" stroke="#000000" points="0,-56.5 0,-75.5 79,-75.5 79,-56.5 0,-56.5"/>
<text text-anchor="middle" x="39.5" y="-63.5" font-family="Helvetica,sans-Serif" font-size="10.00" fill="#000000">CompKernel.h</text>
</a>
</g>
</g>
<!-- Node0&#45;&gt;Node3 -->
<g id="edge3" class="edge">
<title>Node0&#45;&gt;Node3</title>
<path fill="none" stroke="#191970" d="M205.1188,-112.3733C171.4299,-102.9404 119.9518,-88.5265 83.3382,-78.2747"/>
<polygon fill="#191970" stroke="#191970" points="84.006,-74.8271 73.4326,-75.5011 82.1185,-81.5679 84.006,-74.8271"/>
</g>
<!-- Node4 -->
<g id="node5" class="node">
<title>Node4</title>
<g id="a_node5"><a xlink:href="_model_factory_8h.html" target="_top" xlink:title="ModelFactory.h">
<polygon fill="#ffffff" stroke="#000000" points="267.5,-56.5 267.5,-75.5 351.5,-75.5 351.5,-56.5 267.5,-56.5"/>
<text text-anchor="middle" x="309.5" y="-63.5" font-family="Helvetica,sans-Serif" font-size="10.00" fill="#000000">ModelFactory.h</text>
</a>
</g>
</g>
<!-- Node0&#45;&gt;Node4 -->
<g id="edge5" class="edge">
<title>Node0&#45;&gt;Node4</title>
<path fill="none" stroke="#191970" d="M251.6931,-112.2455C262.1321,-103.8943 277.3655,-91.7076 289.574,-81.9408"/>
<polygon fill="#191970" stroke="#191970" points="291.8244,-84.6227 297.4467,-75.6427 287.4515,-79.1566 291.8244,-84.6227"/>
</g>
<!-- Node5 -->
<g id="node6" class="node">
<title>Node5</title>
<g id="a_node6"><a xlink:href="_sed_closure_8h.html" target="_top" xlink:title="SedClosure.h">
<polygon fill="#ffffff" stroke="#000000" points="135.5,-56.5 135.5,-75.5 211.5,-75.5 211.5,-56.5 135.5,-56.5"/>
<text text-anchor="middle" x="173.5" y="-63.5" font-family="Helvetica,sans-Serif" font-size="10.00" fill="#000000">SedClosure.h</text>
</a>
</g>
</g>
<!-- Node0&#45;&gt;Node5 -->
<g id="edge7" class="edge">
<title>Node0&#45;&gt;Node5</title>
<path fill="none" stroke="#191970" d="M228.0037,-112.2455C218.2558,-103.9746 204.0741,-91.9416 192.6202,-82.2232"/>
<polygon fill="#191970" stroke="#191970" points="194.7541,-79.4437 184.8646,-75.6427 190.2253,-84.7813 194.7541,-79.4437"/>
</g>
<!-- Node6 -->
<g id="node7" class="node">
<title>Node6</title>
<polygon fill="#ffffff" stroke="#bfbfbf" points="252,-.5 252,-19.5 387,-19.5 387,-.5 252,-.5"/>
<text text-anchor="middle" x="319.5" y="-7.5" font-family="Helvetica,sans-Serif" font-size="10.00" fill="#000000">xtensor&#45;python/pyarray.hpp</text>
</g>
<!-- Node0&#45;&gt;Node6 -->
<g id="edge17" class="edge">
<title>Node0&#45;&gt;Node6</title>
<path fill="none" stroke="#191970" d="M276.5238,-112.8647C308.3398,-104.1768 350.6117,-90.338 360.5,-76 371.9779,-59.3571 355.9636,-39.5798 340.7136,-26.0425"/>
<polygon fill="#191970" stroke="#191970" points="342.8816,-23.2933 332.9581,-19.5819 338.4012,-28.6716 342.8816,-23.2933"/>
</g>
<!-- Node7 -->
<g id="node8" class="node">
<title>Node7</title>
<g id="a_node8"><a xlink:href="_arguments_dict_8h.html" target="_top" xlink:title="ArgumentsDict.h">
<polygon fill="#ffffff" stroke="#000000" points="432.5,-56.5 432.5,-75.5 522.5,-75.5 522.5,-56.5 432.5,-56.5"/>
<text text-anchor="middle" x="477.5" y="-63.5" font-family="Helvetica,sans-Serif" font-size="10.00" fill="#000000">ArgumentsDict.h</text>
</a>
</g>
</g>
<!-- Node0&#45;&gt;Node7 -->
<g id="edge11" class="edge">
<title>Node0&#45;&gt;Node7</title>
<path fill="none" stroke="#191970" d="M276.6875,-113.25C317.1619,-103.7266 382.1096,-88.4448 427.1366,-77.8502"/>
<polygon fill="#191970" stroke="#191970" points="428.0592,-81.2288 436.9917,-75.5314 426.4559,-74.4149 428.0592,-81.2288"/>
</g>
<!-- Node3&#45;&gt;Node1 -->
<g id="edge4" class="edge">
<title>Node3&#45;&gt;Node1</title>
<path fill="none" stroke="#191970" d="M51.3447,-56.2455C61.388,-47.9746 75.9995,-35.9416 87.8004,-26.2232"/>
<polygon fill="#191970" stroke="#191970" points="90.2967,-28.7015 95.791,-19.6427 85.8467,-23.298 90.2967,-28.7015"/>
</g>
<!-- Node4&#45;&gt;Node2 -->
<g id="edge6" class="edge">
<title>Node4&#45;&gt;Node2</title>
<path fill="none" stroke="#191970" d="M291.5588,-56.2455C275.46,-47.4928 251.6121,-34.527 233.2609,-24.5496"/>
<polygon fill="#191970" stroke="#191970" points="234.6929,-21.3444 224.2356,-19.6427 231.3493,-27.4942 234.6929,-21.3444"/>
</g>
<!-- Node5&#45;&gt;Node1 -->
<g id="edge8" class="edge">
<title>Node5&#45;&gt;Node1</title>
<path fill="none" stroke="#191970" d="M162.0037,-56.2455C152.2558,-47.9746 138.0741,-35.9416 126.6202,-26.2232"/>
<polygon fill="#191970" stroke="#191970" points="128.7541,-23.4437 118.8646,-19.6427 124.2253,-28.7813 128.7541,-23.4437"/>
</g>
<!-- Node5&#45;&gt;Node2 -->
<g id="edge9" class="edge">
<title>Node5&#45;&gt;Node2</title>
<path fill="none" stroke="#191970" d="M179.2482,-56.2455C183.7435,-48.617 190.1248,-37.7881 195.5825,-28.5267"/>
<polygon fill="#191970" stroke="#191970" points="198.7561,-30.035 200.8177,-19.6427 192.7253,-26.4811 198.7561,-30.035"/>
</g>
<!-- Node5&#45;&gt;Node6 -->
<g id="edge10" class="edge">
<title>Node5&#45;&gt;Node6</title>
<path fill="none" stroke="#191970" d="M198.5983,-56.3733C222.4555,-47.2226 258.5335,-33.3844 285.071,-23.2057"/>
<polygon fill="#191970" stroke="#191970" points="286.6459,-26.3503 294.7292,-19.5011 284.139,-19.8145 286.6459,-26.3503"/>
</g>
<!-- Node7&#45;&gt;Node6 -->
<g id="edge15" class="edge">
<title>Node7&#45;&gt;Node6</title>
<path fill="none" stroke="#191970" d="M450.3388,-56.3733C424.2933,-47.1419 384.7884,-33.1402 356.0021,-22.9375"/>
<polygon fill="#191970" stroke="#191970" points="356.9015,-19.5429 346.3067,-19.5011 354.563,-26.1408 356.9015,-19.5429"/>
</g>
<!-- Node8 -->
<g id="node9" class="node">
<title>Node8</title>
<polygon fill="#ffffff" stroke="#bfbfbf" points="642,-.5 642,-19.5 677,-19.5 677,-.5 642,-.5"/>
<text text-anchor="middle" x="659.5" y="-7.5" font-family="Helvetica,sans-Serif" font-size="10.00" fill="#000000">map</text>
</g>
<!-- Node7&#45;&gt;Node8 -->
<g id="edge12" class="edge">
<title>Node7&#45;&gt;Node8</title>
<path fill="none" stroke="#191970" d="M512.759,-56.4768C542.4952,-48.2521 586.3447,-35.6739 632.4012,-20.2079"/>
<polygon fill="#191970" stroke="#191970" points="633.6014,-23.4967 641.9477,-16.9707 631.3534,-16.8675 633.6014,-23.4967"/>
</g>
<!-- Node9 -->
<g id="node10" class="node">
<title>Node9</title>
<polygon fill="#ffffff" stroke="#bfbfbf" points="405,-.5 405,-19.5 464,-19.5 464,-.5 405,-.5"/>
<text text-anchor="middle" x="434.5" y="-7.5" font-family="Helvetica,sans-Serif" font-size="10.00" fill="#000000">stdexcept</text>
</g>
<!-- Node7&#45;&gt;Node9 -->
<g id="edge13" class="edge">
<title>Node7&#45;&gt;Node9</title>
<path fill="none" stroke="#191970" d="M470.01,-56.2455C463.9674,-48.3761 455.3097,-37.101 448.0559,-27.6542"/>
<polygon fill="#191970" stroke="#191970" points="450.7705,-25.4426 441.9042,-19.6427 445.2185,-29.7058 450.7705,-25.4426"/>
</g>
<!-- Node10 -->
<g id="node11" class="node">
<title>Node10</title>
<polygon fill="#ffffff" stroke="#bfbfbf" points="482,-.5 482,-19.5 523,-19.5 523,-.5 482,-.5"/>
<text text-anchor="middle" x="502.5" y="-7.5" font-family="Helvetica,sans-Serif" font-size="10.00" fill="#000000">string</text>
</g>
<!-- Node7&#45;&gt;Node10 -->
<g id="edge14" class="edge">
<title>Node7&#45;&gt;Node10</title>
<path fill="none" stroke="#191970" d="M481.8547,-56.2455C485.2244,-48.6973 489.993,-38.0158 494.0983,-28.8197"/>
<polygon fill="#191970" stroke="#191970" points="497.3147,-30.2009 498.1952,-19.6427 490.9227,-27.3473 497.3147,-30.2009"/>
</g>
<!-- Node11 -->
<g id="node12" class="node">
<title>Node11</title>
<polygon fill="#ffffff" stroke="#bfbfbf" points="541,-.5 541,-19.5 624,-19.5 624,-.5 541,-.5"/>
<text text-anchor="middle" x="582.5" y="-7.5" font-family="Helvetica,sans-Serif" font-size="10.00" fill="#000000">xtensor/xio.hpp</text>
</g>
<!-- Node7&#45;&gt;Node11 -->
<g id="edge16" class="edge">
<title>Node7&#45;&gt;Node11</title>
<path fill="none" stroke="#191970" d="M495.7896,-56.2455C512.2762,-47.4527 536.7352,-34.4079 555.4765,-24.4125"/>
<polygon fill="#191970" stroke="#191970" points="557.2435,-27.4368 564.42,-19.6427 553.9494,-21.2604 557.2435,-27.4368"/>
</g>
</g>
</svg>
