<?xml version="1.0" encoding="UTF-8" standalone="no"?>
<!DOCTYPE svg PUBLIC "-//W3C//DTD SVG 1.1//EN"
 "http://www.w3.org/Graphics/SVG/1.1/DTD/svg11.dtd">
<!-- Generated by graphviz version 2.50.0 (20211204.2007)
 -->
<!-- Title: Dissipation.cpp Pages: 1 -->
<svg width="726pt" height="196pt"
 viewBox="0.00 0.00 725.50 196.00" xmlns="http://www.w3.org/2000/svg" xmlns:xlink="http://www.w3.org/1999/xlink">
<g id="graph0" class="graph" transform="scale(1 1) rotate(0) translate(4 192)">
<title>Dissipation.cpp</title>
<polygon fill="white" stroke="transparent" points="-4,4 -4,-192 721.5,-192 721.5,4 -4,4"/>
<!-- Node1 -->
<g id="node1" class="node">
<title>Node1</title>
<g id="a_node1"><a xlink:title=" ">
<polygon fill="#bfbfbf" stroke="black" points="133,-168.5 133,-187.5 217,-187.5 217,-168.5 133,-168.5"/>
<text text-anchor="middle" x="175" y="-175.5" font-family="Helvetica,sans-Serif" font-size="10.00">Dissipation.cpp</text>
</a>
</g>
</g>
<!-- Node2 -->
<g id="node2" class="node">
<title>Node2</title>
<g id="a_node2"><a xlink:title=" ">
<polygon fill="white" stroke="#bfbfbf" points="0,-112.5 0,-131.5 106,-131.5 106,-112.5 0,-112.5"/>
<text text-anchor="middle" x="53" y="-119.5" font-family="Helvetica,sans-Serif" font-size="10.00">pybind11/pybind11.h</text>
</a>
</g>
</g>
<!-- Node1&#45;&gt;Node2 -->
<g id="edge1" class="edge">
<title>Node1&#45;&gt;Node2</title>
<path fill="none" stroke="midnightblue" d="M155.67,-168.44C135.68,-159.6 104.26,-145.69 81.44,-135.59"/>
<polygon fill="midnightblue" stroke="midnightblue" points="82.8,-132.36 72.24,-131.52 79.97,-138.76 82.8,-132.36"/>
</g>
<!-- Node3 -->
<g id="node3" class="node">
<title>Node3</title>
<g id="a_node3"><a xlink:title=" ">
<polygon fill="white" stroke="#bfbfbf" points="124.5,-112.5 124.5,-131.5 225.5,-131.5 225.5,-112.5 124.5,-112.5"/>
<text text-anchor="middle" x="175" y="-119.5" font-family="Helvetica,sans-Serif" font-size="10.00">pybind11/stl_bind.h</text>
</a>
</g>
</g>
<!-- Node1&#45;&gt;Node3 -->
<g id="edge2" class="edge">
<title>Node1&#45;&gt;Node3</title>
<path fill="none" stroke="midnightblue" d="M175,-168.08C175,-161.01 175,-150.86 175,-141.99"/>
<polygon fill="midnightblue" stroke="midnightblue" points="178.5,-141.75 175,-131.75 171.5,-141.75 178.5,-141.75"/>
</g>
<!-- Node4 -->
<g id="node4" class="node">
<title>Node4</title>
<g id="a_node4"><a xlink:href="_dissipation_8h.html" target="_top" xlink:title=" ">
<polygon fill="white" stroke="black" points="244,-112.5 244,-131.5 318,-131.5 318,-112.5 244,-112.5"/>
<text text-anchor="middle" x="281" y="-119.5" font-family="Helvetica,sans-Serif" font-size="10.00">Dissipation.h</text>
</a>
</g>
</g>
<!-- Node1&#45;&gt;Node4 -->
<g id="edge3" class="edge">
<title>Node1&#45;&gt;Node4</title>
<path fill="none" stroke="midnightblue" d="M192.03,-168.32C209.03,-159.66 235.38,-146.24 254.99,-136.25"/>
<polygon fill="midnightblue" stroke="midnightblue" points="256.69,-139.31 264.01,-131.65 253.51,-133.08 256.69,-139.31"/>
</g>
<!-- Node5 -->
<g id="node5" class="node">
<title>Node5</title>
<g id="a_node5"><a xlink:title=" ">
<polygon fill="white" stroke="#bfbfbf" points="127,-0.5 127,-19.5 171,-19.5 171,-0.5 127,-0.5"/>
<text text-anchor="middle" x="149" y="-7.5" font-family="Helvetica,sans-Serif" font-size="10.00">cmath</text>
</a>
</g>
</g>
<!-- Node4&#45;&gt;Node5 -->
<g id="edge4" class="edge">
<title>Node4&#45;&gt;Node5</title>
<path fill="none" stroke="midnightblue" d="M251.41,-112.46C221.96,-103.4 179.54,-88.69 168,-76 156.51,-63.37 151.95,-44.16 150.14,-29.9"/>
<polygon fill="midnightblue" stroke="midnightblue" points="153.61,-29.37 149.21,-19.74 146.64,-30.01 153.61,-29.37"/>
</g>
<!-- Node6 -->
<g id="node6" class="node">
<title>Node6</title>
<g id="a_node6"><a xlink:title=" ">
<polygon fill="white" stroke="#bfbfbf" points="221,-0.5 221,-19.5 275,-19.5 275,-0.5 221,-0.5"/>
<text text-anchor="middle" x="248" y="-7.5" font-family="Helvetica,sans-Serif" font-size="10.00">iostream</text>
</a>
</g>
</g>
<!-- Node4&#45;&gt;Node6 -->
<g id="edge5" class="edge">
<title>Node4&#45;&gt;Node6</title>
<path fill="none" stroke="midnightblue" d="M278.47,-112.15C274.87,-99.63 268.04,-76.04 262,-56 259.34,-47.18 256.31,-37.41 253.75,-29.23"/>
<polygon fill="midnightblue" stroke="midnightblue" points="257.06,-28.1 250.73,-19.61 250.39,-30.2 257.06,-28.1"/>
</g>
<!-- Node7 -->
<g id="node7" class="node">
<title>Node7</title>
<g id="a_node7"><a xlink:href="_comp_kernel_8h.html" target="_top" xlink:title=" ">
<polygon fill="white" stroke="black" points="41.5,-56.5 41.5,-75.5 120.5,-75.5 120.5,-56.5 41.5,-56.5"/>
<text text-anchor="middle" x="81" y="-63.5" font-family="Helvetica,sans-Serif" font-size="10.00">CompKernel.h</text>
</a>
</g>
</g>
<!-- Node4&#45;&gt;Node7 -->
<g id="edge6" class="edge">
<title>Node4&#45;&gt;Node7</title>
<path fill="none" stroke="midnightblue" d="M249.31,-112.44C214.93,-103.16 159.92,-88.31 122.21,-78.13"/>
<polygon fill="midnightblue" stroke="midnightblue" points="123.11,-74.74 112.54,-75.52 121.28,-81.5 123.11,-74.74"/>
</g>
<!-- Node8 -->
<g id="node8" class="node">
<title>Node8</title>
<g id="a_node8"><a xlink:href="_model_factory_8h.html" target="_top" xlink:title=" ">
<polygon fill="white" stroke="black" points="309.5,-56.5 309.5,-75.5 392.5,-75.5 392.5,-56.5 309.5,-56.5"/>
<text text-anchor="middle" x="351" y="-63.5" font-family="Helvetica,sans-Serif" font-size="10.00">ModelFactory.h</text>
</a>
</g>
</g>
<!-- Node4&#45;&gt;Node8 -->
<g id="edge8" class="edge">
<title>Node4&#45;&gt;Node8</title>
<path fill="none" stroke="midnightblue" d="M292.25,-112.32C302.8,-104.18 318.8,-91.84 331.44,-82.09"/>
<polygon fill="midnightblue" stroke="midnightblue" points="333.77,-84.71 339.55,-75.83 329.49,-79.17 333.77,-84.71"/>
</g>
<!-- Node9 -->
<g id="node9" class="node">
<title>Node9</title>
<g id="a_node9"><a xlink:href="_sed_closure_8h.html" target="_top" xlink:title=" ">
<polygon fill="white" stroke="black" points="177,-56.5 177,-75.5 253,-75.5 253,-56.5 177,-56.5"/>
<text text-anchor="middle" x="215" y="-63.5" font-family="Helvetica,sans-Serif" font-size="10.00">SedClosure.h</text>
</a>
</g>
</g>
<!-- Node4&#45;&gt;Node9 -->
<g id="edge10" class="edge">
<title>Node4&#45;&gt;Node9</title>
<path fill="none" stroke="midnightblue" d="M270.4,-112.32C260.54,-104.26 245.65,-92.08 233.78,-82.37"/>
<polygon fill="midnightblue" stroke="midnightblue" points="235.75,-79.46 225.8,-75.83 231.32,-84.88 235.75,-79.46"/>
</g>
<!-- Node10 -->
<g id="node10" class="node">
<title>Node10</title>
<g id="a_node10"><a xlink:title=" ">
<polygon fill="white" stroke="#bfbfbf" points="293,-0.5 293,-19.5 427,-19.5 427,-0.5 293,-0.5"/>
<text text-anchor="middle" x="360" y="-7.5" font-family="Helvetica,sans-Serif" font-size="10.00">xtensor&#45;python/pyarray.hpp</text>
</a>
</g>
</g>
<!-- Node4&#45;&gt;Node10 -->
<g id="edge20" class="edge">
<title>Node4&#45;&gt;Node10</title>
<path fill="none" stroke="midnightblue" d="M318.18,-118C346.07,-113.58 382.5,-102.7 401,-76 412.65,-59.19 395.65,-39.21 380.13,-25.88"/>
<polygon fill="midnightblue" stroke="midnightblue" points="382.29,-23.12 372.31,-19.57 377.89,-28.57 382.29,-23.12"/>
</g>
<!-- Node11 -->
<g id="node11" class="node">
<title>Node11</title>
<g id="a_node11"><a xlink:href="_arguments_dict_8h.html" target="_top" xlink:title=" ">
<polygon fill="white" stroke="black" points="474,-56.5 474,-75.5 564,-75.5 564,-56.5 474,-56.5"/>
<text text-anchor="middle" x="519" y="-63.5" font-family="Helvetica,sans-Serif" font-size="10.00">ArgumentsDict.h</text>
</a>
</g>
</g>
<!-- Node4&#45;&gt;Node11 -->
<g id="edge14" class="edge">
<title>Node4&#45;&gt;Node11</title>
<path fill="none" stroke="midnightblue" d="M318.19,-112.56C359.51,-103.19 426.35,-88.02 471.45,-77.79"/>
<polygon fill="midnightblue" stroke="midnightblue" points="472.31,-81.18 481.29,-75.56 470.76,-74.36 472.31,-81.18"/>
</g>
<!-- Node7&#45;&gt;Node5 -->
<g id="edge7" class="edge">
<title>Node7&#45;&gt;Node5</title>
<path fill="none" stroke="midnightblue" d="M91.93,-56.32C102.17,-48.18 117.72,-35.84 130,-26.09"/>
<polygon fill="midnightblue" stroke="midnightblue" points="132.22,-28.79 137.88,-19.83 127.87,-23.31 132.22,-28.79"/>
</g>
<!-- Node8&#45;&gt;Node6 -->
<g id="edge9" class="edge">
<title>Node8&#45;&gt;Node6</title>
<path fill="none" stroke="midnightblue" d="M334.45,-56.32C318.01,-47.7 292.57,-34.36 273.53,-24.39"/>
<polygon fill="midnightblue" stroke="midnightblue" points="274.99,-21.2 264.51,-19.65 271.74,-27.4 274.99,-21.2"/>
</g>
<!-- Node9&#45;&gt;Node5 -->
<g id="edge11" class="edge">
<title>Node9&#45;&gt;Node5</title>
<path fill="none" stroke="midnightblue" d="M204.4,-56.32C194.54,-48.26 179.65,-36.08 167.78,-26.37"/>
<polygon fill="midnightblue" stroke="midnightblue" points="169.75,-23.46 159.8,-19.83 165.32,-28.88 169.75,-23.46"/>
</g>
<!-- Node9&#45;&gt;Node6 -->
<g id="edge12" class="edge">
<title>Node9&#45;&gt;Node6</title>
<path fill="none" stroke="midnightblue" d="M220.45,-56.08C225.01,-48.61 231.67,-37.72 237.29,-28.52"/>
<polygon fill="midnightblue" stroke="midnightblue" points="240.42,-30.11 242.65,-19.75 234.45,-26.46 240.42,-30.11"/>
</g>
<!-- Node9&#45;&gt;Node10 -->
<g id="edge13" class="edge">
<title>Node9&#45;&gt;Node10</title>
<path fill="none" stroke="midnightblue" d="M237.98,-56.44C262.16,-47.44 300.42,-33.19 327.65,-23.05"/>
<polygon fill="midnightblue" stroke="midnightblue" points="328.98,-26.29 337.13,-19.52 326.54,-19.73 328.98,-26.29"/>
</g>
<!-- Node11&#45;&gt;Node10 -->
<g id="edge18" class="edge">
<title>Node11&#45;&gt;Node10</title>
<path fill="none" stroke="midnightblue" d="M493.81,-56.44C467.06,-47.36 424.6,-32.94 394.69,-22.78"/>
<polygon fill="midnightblue" stroke="midnightblue" points="395.67,-19.42 385.08,-19.52 393.42,-26.05 395.67,-19.42"/>
</g>
<!-- Node12 -->
<g id="node12" class="node">
<title>Node12</title>
<g id="a_node12"><a xlink:title=" ">
<polygon fill="white" stroke="#bfbfbf" points="682.5,-0.5 682.5,-19.5 717.5,-19.5 717.5,-0.5 682.5,-0.5"/>
<text text-anchor="middle" x="700" y="-7.5" font-family="Helvetica,sans-Serif" font-size="10.00">map</text>
</a>
</g>
</g>
<!-- Node11&#45;&gt;Node12 -->
<g id="edge15" class="edge">
<title>Node11&#45;&gt;Node12</title>
<path fill="none" stroke="midnightblue" d="M550.02,-56.49C579.45,-48.31 625.11,-35.34 672.85,-20.26"/>
<polygon fill="midnightblue" stroke="midnightblue" points="673.95,-23.59 682.42,-17.22 671.83,-16.92 673.95,-23.59"/>
</g>
<!-- Node13 -->
<g id="node13" class="node">
<title>Node13</title>
<g id="a_node13"><a xlink:title=" ">
<polygon fill="white" stroke="#bfbfbf" points="445.5,-0.5 445.5,-19.5 504.5,-19.5 504.5,-0.5 445.5,-0.5"/>
<text text-anchor="middle" x="475" y="-7.5" font-family="Helvetica,sans-Serif" font-size="10.00">stdexcept</text>
</a>
</g>
</g>
<!-- Node11&#45;&gt;Node13 -->
<g id="edge16" class="edge">
<title>Node11&#45;&gt;Node13</title>
<path fill="none" stroke="midnightblue" d="M511.73,-56.08C505.46,-48.38 496.21,-37.03 488.57,-27.65"/>
<polygon fill="midnightblue" stroke="midnightblue" points="491.16,-25.29 482.13,-19.75 485.73,-29.71 491.16,-25.29"/>
</g>
<!-- Node14 -->
<g id="node14" class="node">
<title>Node14</title>
<g id="a_node14"><a xlink:title=" ">
<polygon fill="white" stroke="#bfbfbf" points="522.5,-0.5 522.5,-19.5 563.5,-19.5 563.5,-0.5 522.5,-0.5"/>
<text text-anchor="middle" x="543" y="-7.5" font-family="Helvetica,sans-Serif" font-size="10.00">string</text>
</a>
</g>
</g>
<!-- Node11&#45;&gt;Node14 -->
<g id="edge17" class="edge">
<title>Node11&#45;&gt;Node14</title>
<path fill="none" stroke="midnightblue" d="M522.96,-56.08C526.21,-48.77 530.92,-38.18 534.95,-29.1"/>
<polygon fill="midnightblue" stroke="midnightblue" points="538.25,-30.31 539.11,-19.75 531.85,-27.47 538.25,-30.31"/>
</g>
<!-- Node15 -->
<g id="node15" class="node">
<title>Node15</title>
<g id="a_node15"><a xlink:title=" ">
<polygon fill="white" stroke="#bfbfbf" points="581.5,-0.5 581.5,-19.5 664.5,-19.5 664.5,-0.5 581.5,-0.5"/>
<text text-anchor="middle" x="623" y="-7.5" font-family="Helvetica,sans-Serif" font-size="10.00">xtensor/xio.hpp</text>
</a>
</g>
</g>
<!-- Node11&#45;&gt;Node15 -->
<g id="edge19" class="edge">
<title>Node11&#45;&gt;Node15</title>
<path fill="none" stroke="midnightblue" d="M535.71,-56.32C552.31,-47.7 578,-34.36 597.22,-24.39"/>
<polygon fill="midnightblue" stroke="midnightblue" points="599.07,-27.37 606.33,-19.65 595.84,-21.16 599.07,-27.37"/>
</g>
</g>
</svg>
