<?xml version="1.0" encoding="UTF-8" standalone="no"?>
<!DOCTYPE svg PUBLIC "-//W3C//DTD SVG 1.1//EN"
 "http://www.w3.org/Graphics/SVG/1.1/DTD/svg11.dtd">
<!-- Generated by graphviz version 2.50.0 (20211204.2007)
 -->
<!-- Title: Dissipation.h Pages: 1 -->
<svg width="684pt" height="140pt"
 viewBox="0.00 0.00 684.00 140.00" xmlns="http://www.w3.org/2000/svg" xmlns:xlink="http://www.w3.org/1999/xlink">
<g id="graph0" class="graph" transform="scale(1 1) rotate(0) translate(4 136)">
<title>Dissipation.h</title>
<polygon fill="white" stroke="transparent" points="-4,4 -4,-136 680,-136 680,4 -4,4"/>
<!-- Node1 -->
<g id="node1" class="node">
<title>Node1</title>
<g id="a_node1"><a xlink:title=" ">
<polygon fill="#bfbfbf" stroke="black" points="202.5,-112.5 202.5,-131.5 276.5,-131.5 276.5,-112.5 202.5,-112.5"/>
<text text-anchor="middle" x="239.5" y="-119.5" font-family="Helvetica,sans-Serif" font-size="10.00">Dissipation.h</text>
</a>
</g>
</g>
<!-- Node2 -->
<g id="node2" class="node">
<title>Node2</title>
<g id="a_node2"><a xlink:title=" ">
<polygon fill="white" stroke="#bfbfbf" points="85.5,-0.5 85.5,-19.5 129.5,-19.5 129.5,-0.5 85.5,-0.5"/>
<text text-anchor="middle" x="107.5" y="-7.5" font-family="Helvetica,sans-Serif" font-size="10.00">cmath</text>
</a>
</g>
</g>
<!-- Node1&#45;&gt;Node2 -->
<g id="edge1" class="edge">
<title>Node1&#45;&gt;Node2</title>
<path fill="none" stroke="midnightblue" d="M202.37,-114.94C177.64,-109.03 146.18,-97.63 126.5,-76 115.01,-63.37 110.45,-44.16 108.64,-29.9"/>
<polygon fill="midnightblue" stroke="midnightblue" points="112.11,-29.37 107.71,-19.74 105.14,-30.01 112.11,-29.37"/>
</g>
<!-- Node3 -->
<g id="node3" class="node">
<title>Node3</title>
<g id="a_node3"><a xlink:title=" ">
<polygon fill="white" stroke="#bfbfbf" points="179.5,-0.5 179.5,-19.5 233.5,-19.5 233.5,-0.5 179.5,-0.5"/>
<text text-anchor="middle" x="206.5" y="-7.5" font-family="Helvetica,sans-Serif" font-size="10.00">iostream</text>
</a>
</g>
</g>
<!-- Node1&#45;&gt;Node3 -->
<g id="edge2" class="edge">
<title>Node1&#45;&gt;Node3</title>
<path fill="none" stroke="midnightblue" d="M236.97,-112.15C233.37,-99.63 226.54,-76.04 220.5,-56 217.84,-47.18 214.81,-37.41 212.25,-29.23"/>
<polygon fill="midnightblue" stroke="midnightblue" points="215.56,-28.1 209.23,-19.61 208.89,-30.2 215.56,-28.1"/>
</g>
<!-- Node4 -->
<g id="node4" class="node">
<title>Node4</title>
<g id="a_node4"><a xlink:href="_comp_kernel_8h.html" target="_top" xlink:title=" ">
<polygon fill="white" stroke="black" points="0,-56.5 0,-75.5 79,-75.5 79,-56.5 0,-56.5"/>
<text text-anchor="middle" x="39.5" y="-63.5" font-family="Helvetica,sans-Serif" font-size="10.00">CompKernel.h</text>
</a>
</g>
</g>
<!-- Node1&#45;&gt;Node4 -->
<g id="edge3" class="edge">
<title>Node1&#45;&gt;Node4</title>
<path fill="none" stroke="midnightblue" d="M207.81,-112.44C173.43,-103.16 118.42,-88.31 80.71,-78.13"/>
<polygon fill="midnightblue" stroke="midnightblue" points="81.61,-74.74 71.04,-75.52 79.78,-81.5 81.61,-74.74"/>
</g>
<!-- Node5 -->
<g id="node5" class="node">
<title>Node5</title>
<g id="a_node5"><a xlink:href="_model_factory_8h.html" target="_top" xlink:title=" ">
<polygon fill="white" stroke="black" points="268,-56.5 268,-75.5 351,-75.5 351,-56.5 268,-56.5"/>
<text text-anchor="middle" x="309.5" y="-63.5" font-family="Helvetica,sans-Serif" font-size="10.00">ModelFactory.h</text>
</a>
</g>
</g>
<!-- Node1&#45;&gt;Node5 -->
<g id="edge5" class="edge">
<title>Node1&#45;&gt;Node5</title>
<path fill="none" stroke="midnightblue" d="M250.75,-112.32C261.3,-104.18 277.3,-91.84 289.94,-82.09"/>
<polygon fill="midnightblue" stroke="midnightblue" points="292.27,-84.71 298.05,-75.83 287.99,-79.17 292.27,-84.71"/>
</g>
<!-- Node6 -->
<g id="node6" class="node">
<title>Node6</title>
<g id="a_node6"><a xlink:href="_sed_closure_8h.html" target="_top" xlink:title=" ">
<polygon fill="white" stroke="black" points="135.5,-56.5 135.5,-75.5 211.5,-75.5 211.5,-56.5 135.5,-56.5"/>
<text text-anchor="middle" x="173.5" y="-63.5" font-family="Helvetica,sans-Serif" font-size="10.00">SedClosure.h</text>
</a>
</g>
</g>
<!-- Node1&#45;&gt;Node6 -->
<g id="edge7" class="edge">
<title>Node1&#45;&gt;Node6</title>
<path fill="none" stroke="midnightblue" d="M228.9,-112.32C219.04,-104.26 204.15,-92.08 192.28,-82.37"/>
<polygon fill="midnightblue" stroke="midnightblue" points="194.25,-79.46 184.3,-75.83 189.82,-84.88 194.25,-79.46"/>
</g>
<!-- Node7 -->
<g id="node7" class="node">
<title>Node7</title>
<g id="a_node7"><a xlink:title=" ">
<polygon fill="white" stroke="#bfbfbf" points="251.5,-0.5 251.5,-19.5 385.5,-19.5 385.5,-0.5 251.5,-0.5"/>
<text text-anchor="middle" x="318.5" y="-7.5" font-family="Helvetica,sans-Serif" font-size="10.00">xtensor&#45;python/pyarray.hpp</text>
</a>
</g>
</g>
<!-- Node1&#45;&gt;Node7 -->
<g id="edge17" class="edge">
<title>Node1&#45;&gt;Node7</title>
<path fill="none" stroke="midnightblue" d="M276.68,-118C304.57,-113.58 341,-102.7 359.5,-76 371.15,-59.19 354.15,-39.21 338.63,-25.88"/>
<polygon fill="midnightblue" stroke="midnightblue" points="340.79,-23.12 330.81,-19.57 336.39,-28.57 340.79,-23.12"/>
</g>
<!-- Node8 -->
<g id="node8" class="node">
<title>Node8</title>
<g id="a_node8"><a xlink:href="_arguments_dict_8h.html" target="_top" xlink:title=" ">
<polygon fill="white" stroke="black" points="432.5,-56.5 432.5,-75.5 522.5,-75.5 522.5,-56.5 432.5,-56.5"/>
<text text-anchor="middle" x="477.5" y="-63.5" font-family="Helvetica,sans-Serif" font-size="10.00">ArgumentsDict.h</text>
</a>
</g>
</g>
<!-- Node1&#45;&gt;Node8 -->
<g id="edge11" class="edge">
<title>Node1&#45;&gt;Node8</title>
<path fill="none" stroke="midnightblue" d="M276.69,-112.56C318.01,-103.19 384.85,-88.02 429.95,-77.79"/>
<polygon fill="midnightblue" stroke="midnightblue" points="430.81,-81.18 439.79,-75.56 429.26,-74.36 430.81,-81.18"/>
</g>
<!-- Node4&#45;&gt;Node2 -->
<g id="edge4" class="edge">
<title>Node4&#45;&gt;Node2</title>
<path fill="none" stroke="midnightblue" d="M50.43,-56.32C60.67,-48.18 76.22,-35.84 88.5,-26.09"/>
<polygon fill="midnightblue" stroke="midnightblue" points="90.72,-28.79 96.38,-19.83 86.37,-23.31 90.72,-28.79"/>
</g>
<!-- Node5&#45;&gt;Node3 -->
<g id="edge6" class="edge">
<title>Node5&#45;&gt;Node3</title>
<path fill="none" stroke="midnightblue" d="M292.95,-56.32C276.51,-47.7 251.07,-34.36 232.03,-24.39"/>
<polygon fill="midnightblue" stroke="midnightblue" points="233.49,-21.2 223.01,-19.65 230.24,-27.4 233.49,-21.2"/>
</g>
<!-- Node6&#45;&gt;Node2 -->
<g id="edge8" class="edge">
<title>Node6&#45;&gt;Node2</title>
<path fill="none" stroke="midnightblue" d="M162.9,-56.32C153.04,-48.26 138.15,-36.08 126.28,-26.37"/>
<polygon fill="midnightblue" stroke="midnightblue" points="128.25,-23.46 118.3,-19.83 123.82,-28.88 128.25,-23.46"/>
</g>
<!-- Node6&#45;&gt;Node3 -->
<g id="edge9" class="edge">
<title>Node6&#45;&gt;Node3</title>
<path fill="none" stroke="midnightblue" d="M178.95,-56.08C183.51,-48.61 190.17,-37.72 195.79,-28.52"/>
<polygon fill="midnightblue" stroke="midnightblue" points="198.92,-30.11 201.15,-19.75 192.95,-26.46 198.92,-30.11"/>
</g>
<!-- Node6&#45;&gt;Node7 -->
<g id="edge10" class="edge">
<title>Node6&#45;&gt;Node7</title>
<path fill="none" stroke="midnightblue" d="M196.48,-56.44C220.66,-47.44 258.92,-33.19 286.15,-23.05"/>
<polygon fill="midnightblue" stroke="midnightblue" points="287.48,-26.29 295.63,-19.52 285.04,-19.73 287.48,-26.29"/>
</g>
<!-- Node8&#45;&gt;Node7 -->
<g id="edge15" class="edge">
<title>Node8&#45;&gt;Node7</title>
<path fill="none" stroke="midnightblue" d="M452.31,-56.44C425.56,-47.36 383.1,-32.94 353.19,-22.78"/>
<polygon fill="midnightblue" stroke="midnightblue" points="354.17,-19.42 343.58,-19.52 351.92,-26.05 354.17,-19.42"/>
</g>
<!-- Node9 -->
<g id="node9" class="node">
<title>Node9</title>
<g id="a_node9"><a xlink:title=" ">
<polygon fill="white" stroke="#bfbfbf" points="641,-0.5 641,-19.5 676,-19.5 676,-0.5 641,-0.5"/>
<text text-anchor="middle" x="658.5" y="-7.5" font-family="Helvetica,sans-Serif" font-size="10.00">map</text>
</a>
</g>
</g>
<!-- Node8&#45;&gt;Node9 -->
<g id="edge12" class="edge">
<title>Node8&#45;&gt;Node9</title>
<path fill="none" stroke="midnightblue" d="M508.52,-56.49C537.95,-48.31 583.61,-35.34 631.35,-20.26"/>
<polygon fill="midnightblue" stroke="midnightblue" points="632.45,-23.59 640.92,-17.22 630.33,-16.92 632.45,-23.59"/>
</g>
<!-- Node10 -->
<g id="node10" class="node">
<title>Node10</title>
<g id="a_node10"><a xlink:title=" ">
<polygon fill="white" stroke="#bfbfbf" points="404,-0.5 404,-19.5 463,-19.5 463,-0.5 404,-0.5"/>
<text text-anchor="middle" x="433.5" y="-7.5" font-family="Helvetica,sans-Serif" font-size="10.00">stdexcept</text>
</a>
</g>
</g>
<!-- Node8&#45;&gt;Node10 -->
<g id="edge13" class="edge">
<title>Node8&#45;&gt;Node10</title>
<path fill="none" stroke="midnightblue" d="M470.23,-56.08C463.96,-48.38 454.71,-37.03 447.07,-27.65"/>
<polygon fill="midnightblue" stroke="midnightblue" points="449.66,-25.29 440.63,-19.75 444.23,-29.71 449.66,-25.29"/>
</g>
<!-- Node11 -->
<g id="node11" class="node">
<title>Node11</title>
<g id="a_node11"><a xlink:title=" ">
<polygon fill="white" stroke="#bfbfbf" points="481,-0.5 481,-19.5 522,-19.5 522,-0.5 481,-0.5"/>
<text text-anchor="middle" x="501.5" y="-7.5" font-family="Helvetica,sans-Serif" font-size="10.00">string</text>
</a>
</g>
</g>
<!-- Node8&#45;&gt;Node11 -->
<g id="edge14" class="edge">
<title>Node8&#45;&gt;Node11</title>
<path fill="none" stroke="midnightblue" d="M481.46,-56.08C484.71,-48.77 489.42,-38.18 493.45,-29.1"/>
<polygon fill="midnightblue" stroke="midnightblue" points="496.75,-30.31 497.61,-19.75 490.35,-27.47 496.75,-30.31"/>
</g>
<!-- Node12 -->
<g id="node12" class="node">
<title>Node12</title>
<g id="a_node12"><a xlink:title=" ">
<polygon fill="white" stroke="#bfbfbf" points="540,-0.5 540,-19.5 623,-19.5 623,-0.5 540,-0.5"/>
<text text-anchor="middle" x="581.5" y="-7.5" font-family="Helvetica,sans-Serif" font-size="10.00">xtensor/xio.hpp</text>
</a>
</g>
</g>
<!-- Node8&#45;&gt;Node12 -->
<g id="edge16" class="edge">
<title>Node8&#45;&gt;Node12</title>
<path fill="none" stroke="midnightblue" d="M494.21,-56.32C510.81,-47.7 536.5,-34.36 555.72,-24.39"/>
<polygon fill="midnightblue" stroke="midnightblue" points="557.57,-27.37 564.83,-19.65 554.34,-21.16 557.57,-27.37"/>
</g>
</g>
</svg>
