<?xml version="1.0" encoding="UTF-8" standalone="no"?>
<!DOCTYPE svg PUBLIC "-//W3C//DTD SVG 1.1//EN"
 "http://www.w3.org/Graphics/SVG/1.1/DTD/svg11.dtd">
<!-- Generated by graphviz version 2.43.0 (0)
 -->
<!-- Title: Dissipation.cpp Pages: 1 -->
<svg width="795pt" height="196pt"
 viewBox="0.00 0.00 794.50 196.00" xmlns="http://www.w3.org/2000/svg" xmlns:xlink="http://www.w3.org/1999/xlink">
<g id="graph0" class="graph" transform="scale(1 1) rotate(0) translate(4 192)">
<title>Dissipation.cpp</title>
<polygon fill="white" stroke="transparent" points="-4,4 -4,-192 790.5,-192 790.5,4 -4,4"/>
<!-- Node1 -->
<g id="node1" class="node">
<title>Node1</title>
<g id="a_node1"><a xlink:title=" ">
<polygon fill="#bfbfbf" stroke="black" points="147.5,-168.5 147.5,-187.5 239.5,-187.5 239.5,-168.5 147.5,-168.5"/>
<text text-anchor="middle" x="193.5" y="-175.5" font-family="Helvetica,sans-Serif" font-size="10.00">Dissipation.cpp</text>
</a>
</g>
</g>
<!-- Node2 -->
<g id="node2" class="node">
<title>Node2</title>
<g id="a_node2"><a xlink:title=" ">
<polygon fill="white" stroke="#bfbfbf" points="0,-112.5 0,-131.5 119,-131.5 119,-112.5 0,-112.5"/>
<text text-anchor="middle" x="59.5" y="-119.5" font-family="Helvetica,sans-Serif" font-size="10.00">pybind11/pybind11.h</text>
</a>
</g>
</g>
<!-- Node1&#45;&gt;Node2 -->
<g id="edge1" class="edge">
<title>Node1&#45;&gt;Node2</title>
<path fill="none" stroke="midnightblue" d="M172.27,-168.44C150.12,-159.52 115.18,-145.44 90.06,-135.32"/>
<polygon fill="midnightblue" stroke="midnightblue" points="91.22,-132.01 80.63,-131.52 88.6,-138.5 91.22,-132.01"/>
</g>
<!-- Node3 -->
<g id="node3" class="node">
<title>Node3</title>
<g id="a_node3"><a xlink:title=" ">
<polygon fill="white" stroke="#bfbfbf" points="137.5,-112.5 137.5,-131.5 249.5,-131.5 249.5,-112.5 137.5,-112.5"/>
<text text-anchor="middle" x="193.5" y="-119.5" font-family="Helvetica,sans-Serif" font-size="10.00">pybind11/stl_bind.h</text>
</a>
</g>
</g>
<!-- Node1&#45;&gt;Node3 -->
<g id="edge2" class="edge">
<title>Node1&#45;&gt;Node3</title>
<path fill="none" stroke="midnightblue" d="M193.5,-168.08C193.5,-161.01 193.5,-150.86 193.5,-141.99"/>
<polygon fill="midnightblue" stroke="midnightblue" points="197,-141.75 193.5,-131.75 190,-141.75 197,-141.75"/>
</g>
<!-- Node4 -->
<g id="node4" class="node">
<title>Node4</title>
<g id="a_node4"><a xlink:href="_dissipation_8h.html" target="_top" xlink:title=" ">
<polygon fill="white" stroke="black" points="267.5,-112.5 267.5,-131.5 347.5,-131.5 347.5,-112.5 267.5,-112.5"/>
<text text-anchor="middle" x="307.5" y="-119.5" font-family="Helvetica,sans-Serif" font-size="10.00">Dissipation.h</text>
</a>
</g>
</g>
<!-- Node1&#45;&gt;Node4 -->
<g id="edge3" class="edge">
<title>Node1&#45;&gt;Node4</title>
<path fill="none" stroke="midnightblue" d="M211.56,-168.44C230.07,-159.68 259.08,-145.94 280.36,-135.86"/>
<polygon fill="midnightblue" stroke="midnightblue" points="281.98,-138.96 289.52,-131.52 278.99,-132.63 281.98,-138.96"/>
</g>
<!-- Node5 -->
<g id="node5" class="node">
<title>Node5</title>
<g id="a_node5"><a xlink:title=" ">
<polygon fill="white" stroke="#bfbfbf" points="148,-0.5 148,-19.5 195,-19.5 195,-0.5 148,-0.5"/>
<text text-anchor="middle" x="171.5" y="-7.5" font-family="Helvetica,sans-Serif" font-size="10.00">cmath</text>
</a>
</g>
</g>
<!-- Node4&#45;&gt;Node5 -->
<g id="edge4" class="edge">
<title>Node4&#45;&gt;Node5</title>
<path fill="none" stroke="midnightblue" d="M276.31,-112.42C245.85,-103.46 202.4,-88.93 190.5,-76 178.94,-63.44 174.38,-44.22 172.6,-29.93"/>
<polygon fill="midnightblue" stroke="midnightblue" points="176.07,-29.4 171.69,-19.76 169.09,-30.03 176.07,-29.4"/>
</g>
<!-- Node6 -->
<g id="node6" class="node">
<title>Node6</title>
<g id="a_node6"><a xlink:title=" ">
<polygon fill="white" stroke="#bfbfbf" points="245.5,-0.5 245.5,-19.5 305.5,-19.5 305.5,-0.5 245.5,-0.5"/>
<text text-anchor="middle" x="275.5" y="-7.5" font-family="Helvetica,sans-Serif" font-size="10.00">iostream</text>
</a>
</g>
</g>
<!-- Node4&#45;&gt;Node6 -->
<g id="edge5" class="edge">
<title>Node4&#45;&gt;Node6</title>
<path fill="none" stroke="midnightblue" d="M304.99,-112.37C299.8,-94.54 287.8,-53.3 280.82,-29.27"/>
<polygon fill="midnightblue" stroke="midnightblue" points="284.15,-28.22 278,-19.59 277.43,-30.17 284.15,-28.22"/>
</g>
<!-- Node7 -->
<g id="node7" class="node">
<title>Node7</title>
<g id="a_node7"><a xlink:href="_comp_kernel_8h.html" target="_top" xlink:title=" ">
<polygon fill="white" stroke="black" points="58,-56.5 58,-75.5 143,-75.5 143,-56.5 58,-56.5"/>
<text text-anchor="middle" x="100.5" y="-63.5" font-family="Helvetica,sans-Serif" font-size="10.00">CompKernel.h</text>
</a>
</g>
</g>
<!-- Node4&#45;&gt;Node7 -->
<g id="edge6" class="edge">
<title>Node4&#45;&gt;Node7</title>
<path fill="none" stroke="midnightblue" d="M274.7,-112.44C239.12,-103.16 182.19,-88.31 143.15,-78.13"/>
<polygon fill="midnightblue" stroke="midnightblue" points="143.71,-74.65 133.15,-75.52 141.94,-81.43 143.71,-74.65"/>
</g>
<!-- Node8 -->
<g id="node8" class="node">
<title>Node8</title>
<g id="a_node8"><a xlink:href="_model_factory_8h.html" target="_top" xlink:title=" ">
<polygon fill="white" stroke="black" points="336,-56.5 336,-75.5 425,-75.5 425,-56.5 336,-56.5"/>
<text text-anchor="middle" x="380.5" y="-63.5" font-family="Helvetica,sans-Serif" font-size="10.00">ModelFactory.h</text>
</a>
</g>
</g>
<!-- Node4&#45;&gt;Node8 -->
<g id="edge8" class="edge">
<title>Node4&#45;&gt;Node8</title>
<path fill="none" stroke="midnightblue" d="M319.23,-112.32C330.34,-104.11 347.24,-91.6 360.48,-81.81"/>
<polygon fill="midnightblue" stroke="midnightblue" points="362.6,-84.59 368.56,-75.83 358.44,-78.97 362.6,-84.59"/>
</g>
<!-- Node9 -->
<g id="node9" class="node">
<title>Node9</title>
<g id="a_node9"><a xlink:href="_sed_closure_8h.html" target="_top" xlink:title=" ">
<polygon fill="white" stroke="black" points="199.5,-56.5 199.5,-75.5 279.5,-75.5 279.5,-56.5 199.5,-56.5"/>
<text text-anchor="middle" x="239.5" y="-63.5" font-family="Helvetica,sans-Serif" font-size="10.00">SedClosure.h</text>
</a>
</g>
</g>
<!-- Node4&#45;&gt;Node9 -->
<g id="edge10" class="edge">
<title>Node4&#45;&gt;Node9</title>
<path fill="none" stroke="midnightblue" d="M296.57,-112.32C286.33,-104.18 270.78,-91.84 258.5,-82.09"/>
<polygon fill="midnightblue" stroke="midnightblue" points="260.63,-79.31 250.62,-75.83 256.28,-84.79 260.63,-79.31"/>
</g>
<!-- Node10 -->
<g id="node10" class="node">
<title>Node10</title>
<g id="a_node10"><a xlink:title=" ">
<polygon fill="white" stroke="#bfbfbf" points="324,-0.5 324,-19.5 475,-19.5 475,-0.5 324,-0.5"/>
<text text-anchor="middle" x="399.5" y="-7.5" font-family="Helvetica,sans-Serif" font-size="10.00">xtensor&#45;python/pyarray.hpp</text>
</a>
</g>
</g>
<!-- Node4&#45;&gt;Node10 -->
<g id="edge20" class="edge">
<title>Node4&#45;&gt;Node10</title>
<path fill="none" stroke="midnightblue" d="M347.68,-118.4C376.77,-114.16 414.23,-103.34 433.5,-76 444.54,-60.34 430.85,-40.63 417.7,-27.04"/>
<polygon fill="midnightblue" stroke="midnightblue" points="419.83,-24.24 410.2,-19.83 414.98,-29.29 419.83,-24.24"/>
</g>
<!-- Node11 -->
<g id="node11" class="node">
<title>Node11</title>
<g id="a_node11"><a xlink:href="_arguments_dict_8h.html" target="_top" xlink:title=" ">
<polygon fill="white" stroke="black" points="515.5,-56.5 515.5,-75.5 613.5,-75.5 613.5,-56.5 515.5,-56.5"/>
<text text-anchor="middle" x="564.5" y="-63.5" font-family="Helvetica,sans-Serif" font-size="10.00">ArgumentsDict.h</text>
</a>
</g>
</g>
<!-- Node4&#45;&gt;Node11 -->
<g id="edge14" class="edge">
<title>Node4&#45;&gt;Node11</title>
<path fill="none" stroke="midnightblue" d="M347.66,-112.56C392.47,-103.15 465.06,-87.89 513.77,-77.66"/>
<polygon fill="midnightblue" stroke="midnightblue" points="514.71,-81.04 523.78,-75.56 513.27,-74.19 514.71,-81.04"/>
</g>
<!-- Node7&#45;&gt;Node5 -->
<g id="edge7" class="edge">
<title>Node7&#45;&gt;Node5</title>
<path fill="none" stroke="midnightblue" d="M111.91,-56.32C122.61,-48.18 138.84,-35.84 151.66,-26.09"/>
<polygon fill="midnightblue" stroke="midnightblue" points="154.04,-28.67 159.89,-19.83 149.81,-23.1 154.04,-28.67"/>
</g>
<!-- Node8&#45;&gt;Node6 -->
<g id="edge9" class="edge">
<title>Node8&#45;&gt;Node6</title>
<path fill="none" stroke="midnightblue" d="M363.63,-56.32C346.79,-47.66 320.69,-34.24 301.26,-24.25"/>
<polygon fill="midnightblue" stroke="midnightblue" points="302.82,-21.12 292.33,-19.65 299.62,-27.34 302.82,-21.12"/>
</g>
<!-- Node9&#45;&gt;Node5 -->
<g id="edge11" class="edge">
<title>Node9&#45;&gt;Node5</title>
<path fill="none" stroke="midnightblue" d="M228.57,-56.32C218.33,-48.18 202.78,-35.84 190.5,-26.09"/>
<polygon fill="midnightblue" stroke="midnightblue" points="192.63,-23.31 182.62,-19.83 188.28,-28.79 192.63,-23.31"/>
</g>
<!-- Node9&#45;&gt;Node6 -->
<g id="edge12" class="edge">
<title>Node9&#45;&gt;Node6</title>
<path fill="none" stroke="midnightblue" d="M245.44,-56.08C250.48,-48.53 257.84,-37.49 264.01,-28.23"/>
<polygon fill="midnightblue" stroke="midnightblue" points="267.03,-30.01 269.67,-19.75 261.21,-26.13 267.03,-30.01"/>
</g>
<!-- Node9&#45;&gt;Node10 -->
<g id="edge13" class="edge">
<title>Node9&#45;&gt;Node10</title>
<path fill="none" stroke="midnightblue" d="M264.85,-56.44C291.77,-47.36 334.5,-32.94 364.59,-22.78"/>
<polygon fill="midnightblue" stroke="midnightblue" points="365.91,-26.03 374.27,-19.52 363.67,-19.4 365.91,-26.03"/>
</g>
<!-- Node11&#45;&gt;Node10 -->
<g id="edge18" class="edge">
<title>Node11&#45;&gt;Node10</title>
<path fill="none" stroke="midnightblue" d="M538.36,-56.44C510.48,-47.32 466.15,-32.81 435.1,-22.65"/>
<polygon fill="midnightblue" stroke="midnightblue" points="436.12,-19.3 425.52,-19.52 433.94,-25.95 436.12,-19.3"/>
</g>
<!-- Node12 -->
<g id="node12" class="node">
<title>Node12</title>
<g id="a_node12"><a xlink:title=" ">
<polygon fill="white" stroke="#bfbfbf" points="748.5,-0.5 748.5,-19.5 786.5,-19.5 786.5,-0.5 748.5,-0.5"/>
<text text-anchor="middle" x="767.5" y="-7.5" font-family="Helvetica,sans-Serif" font-size="10.00">map</text>
</a>
</g>
</g>
<!-- Node11&#45;&gt;Node12 -->
<g id="edge15" class="edge">
<title>Node11&#45;&gt;Node12</title>
<path fill="none" stroke="midnightblue" d="M600.2,-56.48C633.67,-48.34 685.32,-35.42 738.65,-20.13"/>
<polygon fill="midnightblue" stroke="midnightblue" points="739.63,-23.49 748.27,-17.35 737.69,-16.76 739.63,-23.49"/>
</g>
<!-- Node13 -->
<g id="node13" class="node">
<title>Node13</title>
<g id="a_node13"><a xlink:title=" ">
<polygon fill="white" stroke="#bfbfbf" points="493,-0.5 493,-19.5 558,-19.5 558,-0.5 493,-0.5"/>
<text text-anchor="middle" x="525.5" y="-7.5" font-family="Helvetica,sans-Serif" font-size="10.00">stdexcept</text>
</a>
</g>
</g>
<!-- Node11&#45;&gt;Node13 -->
<g id="edge16" class="edge">
<title>Node11&#45;&gt;Node13</title>
<path fill="none" stroke="midnightblue" d="M558.06,-56.08C552.55,-48.46 544.47,-37.26 537.74,-27.94"/>
<polygon fill="midnightblue" stroke="midnightblue" points="540.51,-25.81 531.82,-19.75 534.84,-29.91 540.51,-25.81"/>
</g>
<!-- Node14 -->
<g id="node14" class="node">
<title>Node14</title>
<g id="a_node14"><a xlink:title=" ">
<polygon fill="white" stroke="#bfbfbf" points="576.5,-0.5 576.5,-19.5 620.5,-19.5 620.5,-0.5 576.5,-0.5"/>
<text text-anchor="middle" x="598.5" y="-7.5" font-family="Helvetica,sans-Serif" font-size="10.00">string</text>
</a>
</g>
</g>
<!-- Node11&#45;&gt;Node14 -->
<g id="edge17" class="edge">
<title>Node11&#45;&gt;Node14</title>
<path fill="none" stroke="midnightblue" d="M570.11,-56.08C574.87,-48.53 581.82,-37.49 587.65,-28.23"/>
<polygon fill="midnightblue" stroke="midnightblue" points="590.62,-30.08 592.99,-19.75 584.7,-26.35 590.62,-30.08"/>
</g>
<!-- Node15 -->
<g id="node15" class="node">
<title>Node15</title>
<g id="a_node15"><a xlink:title=" ">
<polygon fill="white" stroke="#bfbfbf" points="638.5,-0.5 638.5,-19.5 730.5,-19.5 730.5,-0.5 638.5,-0.5"/>
<text text-anchor="middle" x="684.5" y="-7.5" font-family="Helvetica,sans-Serif" font-size="10.00">xtensor/xio.hpp</text>
</a>
</g>
</g>
<!-- Node11&#45;&gt;Node15 -->
<g id="edge19" class="edge">
<title>Node11&#45;&gt;Node15</title>
<path fill="none" stroke="midnightblue" d="M583.51,-56.44C603.09,-47.64 633.81,-33.81 656.23,-23.72"/>
<polygon fill="midnightblue" stroke="midnightblue" points="657.89,-26.81 665.57,-19.52 655.02,-20.43 657.89,-26.81"/>
</g>
</g>
</svg>
