<?xml version="1.0" encoding="UTF-8" standalone="no"?>
<!DOCTYPE svg PUBLIC "-//W3C//DTD SVG 1.1//EN"
 "http://www.w3.org/Graphics/SVG/1.1/DTD/svg11.dtd">
<!-- Generated by graphviz version 2.50.0 (20211204.2007)
 -->
<!-- Title: Dissipation2D.cpp Pages: 1 -->
<svg width="732pt" height="196pt"
 viewBox="0.00 0.00 731.50 196.00" xmlns="http://www.w3.org/2000/svg" xmlns:xlink="http://www.w3.org/1999/xlink">
<g id="graph0" class="graph" transform="scale(1 1) rotate(0) translate(4 192)">
<title>Dissipation2D.cpp</title>
<polygon fill="white" stroke="transparent" points="-4,4 -4,-192 727.5,-192 727.5,4 -4,4"/>
<!-- Node1 -->
<g id="node1" class="node">
<title>Node1</title>
<g id="a_node1"><a xlink:title=" ">
<polygon fill="#bfbfbf" stroke="black" points="126.5,-168.5 126.5,-187.5 223.5,-187.5 223.5,-168.5 126.5,-168.5"/>
<text text-anchor="middle" x="175" y="-175.5" font-family="Helvetica,sans-Serif" font-size="10.00">Dissipation2D.cpp</text>
</a>
</g>
</g>
<!-- Node2 -->
<g id="node2" class="node">
<title>Node2</title>
<g id="a_node2"><a xlink:title=" ">
<polygon fill="white" stroke="#bfbfbf" points="0,-112.5 0,-131.5 106,-131.5 106,-112.5 0,-112.5"/>
<text text-anchor="middle" x="53" y="-119.5" font-family="Helvetica,sans-Serif" font-size="10.00">pybind11/pybind11.h</text>
</a>
</g>
</g>
<!-- Node1&#45;&gt;Node2 -->
<g id="edge1" class="edge">
<title>Node1&#45;&gt;Node2</title>
<path fill="none" stroke="midnightblue" d="M155.67,-168.44C135.68,-159.6 104.26,-145.69 81.44,-135.59"/>
<polygon fill="midnightblue" stroke="midnightblue" points="82.8,-132.36 72.24,-131.52 79.97,-138.76 82.8,-132.36"/>
</g>
<!-- Node3 -->
<g id="node3" class="node">
<title>Node3</title>
<g id="a_node3"><a xlink:title=" ">
<polygon fill="white" stroke="#bfbfbf" points="124.5,-112.5 124.5,-131.5 225.5,-131.5 225.5,-112.5 124.5,-112.5"/>
<text text-anchor="middle" x="175" y="-119.5" font-family="Helvetica,sans-Serif" font-size="10.00">pybind11/stl_bind.h</text>
</a>
</g>
</g>
<!-- Node1&#45;&gt;Node3 -->
<g id="edge2" class="edge">
<title>Node1&#45;&gt;Node3</title>
<path fill="none" stroke="midnightblue" d="M175,-168.08C175,-161.01 175,-150.86 175,-141.99"/>
<polygon fill="midnightblue" stroke="midnightblue" points="178.5,-141.75 175,-131.75 171.5,-141.75 178.5,-141.75"/>
</g>
<!-- Node4 -->
<g id="node4" class="node">
<title>Node4</title>
<g id="a_node4"><a xlink:href="_dissipation2_d_8h.html" target="_top" xlink:title=" ">
<polygon fill="white" stroke="black" points="244,-112.5 244,-131.5 330,-131.5 330,-112.5 244,-112.5"/>
<text text-anchor="middle" x="287" y="-119.5" font-family="Helvetica,sans-Serif" font-size="10.00">Dissipation2D.h</text>
</a>
</g>
</g>
<!-- Node1&#45;&gt;Node4 -->
<g id="edge3" class="edge">
<title>Node1&#45;&gt;Node4</title>
<path fill="none" stroke="midnightblue" d="M192.99,-168.32C211.04,-159.62 239.05,-146.12 259.8,-136.11"/>
<polygon fill="midnightblue" stroke="midnightblue" points="261.56,-139.15 269.05,-131.65 258.52,-132.84 261.56,-139.15"/>
</g>
<!-- Node5 -->
<g id="node5" class="node">
<title>Node5</title>
<g id="a_node5"><a xlink:title=" ">
<polygon fill="white" stroke="#bfbfbf" points="133,-0.5 133,-19.5 177,-19.5 177,-0.5 133,-0.5"/>
<text text-anchor="middle" x="155" y="-7.5" font-family="Helvetica,sans-Serif" font-size="10.00">cmath</text>
</a>
</g>
</g>
<!-- Node4&#45;&gt;Node5 -->
<g id="edge4" class="edge">
<title>Node4&#45;&gt;Node5</title>
<path fill="none" stroke="midnightblue" d="M243.86,-113.42C220.22,-107.16 192.12,-95.92 174,-76 162.51,-63.37 157.95,-44.16 156.14,-29.9"/>
<polygon fill="midnightblue" stroke="midnightblue" points="159.61,-29.37 155.21,-19.74 152.64,-30.01 159.61,-29.37"/>
</g>
<!-- Node6 -->
<g id="node6" class="node">
<title>Node6</title>
<g id="a_node6"><a xlink:title=" ">
<polygon fill="white" stroke="#bfbfbf" points="227,-0.5 227,-19.5 281,-19.5 281,-0.5 227,-0.5"/>
<text text-anchor="middle" x="254" y="-7.5" font-family="Helvetica,sans-Serif" font-size="10.00">iostream</text>
</a>
</g>
</g>
<!-- Node4&#45;&gt;Node6 -->
<g id="edge5" class="edge">
<title>Node4&#45;&gt;Node6</title>
<path fill="none" stroke="midnightblue" d="M284.47,-112.15C280.87,-99.63 274.04,-76.04 268,-56 265.34,-47.18 262.31,-37.41 259.75,-29.23"/>
<polygon fill="midnightblue" stroke="midnightblue" points="263.06,-28.1 256.73,-19.61 256.39,-30.2 263.06,-28.1"/>
</g>
<!-- Node7 -->
<g id="node7" class="node">
<title>Node7</title>
<g id="a_node7"><a xlink:href="_comp_kernel_8h.html" target="_top" xlink:title=" ">
<polygon fill="white" stroke="black" points="47.5,-56.5 47.5,-75.5 126.5,-75.5 126.5,-56.5 47.5,-56.5"/>
<text text-anchor="middle" x="87" y="-63.5" font-family="Helvetica,sans-Serif" font-size="10.00">CompKernel.h</text>
</a>
</g>
</g>
<!-- Node4&#45;&gt;Node7 -->
<g id="edge6" class="edge">
<title>Node4&#45;&gt;Node7</title>
<path fill="none" stroke="midnightblue" d="M255.31,-112.44C220.93,-103.16 165.92,-88.31 128.21,-78.13"/>
<polygon fill="midnightblue" stroke="midnightblue" points="129.11,-74.74 118.54,-75.52 127.28,-81.5 129.11,-74.74"/>
</g>
<!-- Node8 -->
<g id="node8" class="node">
<title>Node8</title>
<g id="a_node8"><a xlink:href="_model_factory_8h.html" target="_top" xlink:title=" ">
<polygon fill="white" stroke="black" points="315.5,-56.5 315.5,-75.5 398.5,-75.5 398.5,-56.5 315.5,-56.5"/>
<text text-anchor="middle" x="357" y="-63.5" font-family="Helvetica,sans-Serif" font-size="10.00">ModelFactory.h</text>
</a>
</g>
</g>
<!-- Node4&#45;&gt;Node8 -->
<g id="edge8" class="edge">
<title>Node4&#45;&gt;Node8</title>
<path fill="none" stroke="midnightblue" d="M298.25,-112.32C308.8,-104.18 324.8,-91.84 337.44,-82.09"/>
<polygon fill="midnightblue" stroke="midnightblue" points="339.77,-84.71 345.55,-75.83 335.49,-79.17 339.77,-84.71"/>
</g>
<!-- Node9 -->
<g id="node9" class="node">
<title>Node9</title>
<g id="a_node9"><a xlink:href="_sed_closure_8h.html" target="_top" xlink:title=" ">
<polygon fill="white" stroke="black" points="183,-56.5 183,-75.5 259,-75.5 259,-56.5 183,-56.5"/>
<text text-anchor="middle" x="221" y="-63.5" font-family="Helvetica,sans-Serif" font-size="10.00">SedClosure.h</text>
</a>
</g>
</g>
<!-- Node4&#45;&gt;Node9 -->
<g id="edge10" class="edge">
<title>Node4&#45;&gt;Node9</title>
<path fill="none" stroke="midnightblue" d="M276.4,-112.32C266.54,-104.26 251.65,-92.08 239.78,-82.37"/>
<polygon fill="midnightblue" stroke="midnightblue" points="241.75,-79.46 231.8,-75.83 237.32,-84.88 241.75,-79.46"/>
</g>
<!-- Node10 -->
<g id="node10" class="node">
<title>Node10</title>
<g id="a_node10"><a xlink:title=" ">
<polygon fill="white" stroke="#bfbfbf" points="299,-0.5 299,-19.5 433,-19.5 433,-0.5 299,-0.5"/>
<text text-anchor="middle" x="366" y="-7.5" font-family="Helvetica,sans-Serif" font-size="10.00">xtensor&#45;python/pyarray.hpp</text>
</a>
</g>
</g>
<!-- Node4&#45;&gt;Node10 -->
<g id="edge20" class="edge">
<title>Node4&#45;&gt;Node10</title>
<path fill="none" stroke="midnightblue" d="M330.02,-117C356.97,-112.02 389.76,-100.87 407,-76 418.65,-59.19 401.65,-39.21 386.13,-25.88"/>
<polygon fill="midnightblue" stroke="midnightblue" points="388.29,-23.12 378.31,-19.57 383.89,-28.57 388.29,-23.12"/>
</g>
<!-- Node11 -->
<g id="node11" class="node">
<title>Node11</title>
<g id="a_node11"><a xlink:href="_arguments_dict_8h.html" target="_top" xlink:title=" ">
<polygon fill="white" stroke="black" points="480,-56.5 480,-75.5 570,-75.5 570,-56.5 480,-56.5"/>
<text text-anchor="middle" x="525" y="-63.5" font-family="Helvetica,sans-Serif" font-size="10.00">ArgumentsDict.h</text>
</a>
</g>
</g>
<!-- Node4&#45;&gt;Node11 -->
<g id="edge14" class="edge">
<title>Node4&#45;&gt;Node11</title>
<path fill="none" stroke="midnightblue" d="M324.71,-112.44C366.14,-103.04 432.76,-87.93 477.67,-77.74"/>
<polygon fill="midnightblue" stroke="midnightblue" points="478.49,-81.14 487.46,-75.52 476.94,-74.32 478.49,-81.14"/>
</g>
<!-- Node7&#45;&gt;Node5 -->
<g id="edge7" class="edge">
<title>Node7&#45;&gt;Node5</title>
<path fill="none" stroke="midnightblue" d="M97.93,-56.32C108.17,-48.18 123.72,-35.84 136,-26.09"/>
<polygon fill="midnightblue" stroke="midnightblue" points="138.22,-28.79 143.88,-19.83 133.87,-23.31 138.22,-28.79"/>
</g>
<!-- Node8&#45;&gt;Node6 -->
<g id="edge9" class="edge">
<title>Node8&#45;&gt;Node6</title>
<path fill="none" stroke="midnightblue" d="M340.45,-56.32C324.01,-47.7 298.57,-34.36 279.53,-24.39"/>
<polygon fill="midnightblue" stroke="midnightblue" points="280.99,-21.2 270.51,-19.65 277.74,-27.4 280.99,-21.2"/>
</g>
<!-- Node9&#45;&gt;Node5 -->
<g id="edge11" class="edge">
<title>Node9&#45;&gt;Node5</title>
<path fill="none" stroke="midnightblue" d="M210.4,-56.32C200.54,-48.26 185.65,-36.08 173.78,-26.37"/>
<polygon fill="midnightblue" stroke="midnightblue" points="175.75,-23.46 165.8,-19.83 171.32,-28.88 175.75,-23.46"/>
</g>
<!-- Node9&#45;&gt;Node6 -->
<g id="edge12" class="edge">
<title>Node9&#45;&gt;Node6</title>
<path fill="none" stroke="midnightblue" d="M226.45,-56.08C231.01,-48.61 237.67,-37.72 243.29,-28.52"/>
<polygon fill="midnightblue" stroke="midnightblue" points="246.42,-30.11 248.65,-19.75 240.45,-26.46 246.42,-30.11"/>
</g>
<!-- Node9&#45;&gt;Node10 -->
<g id="edge13" class="edge">
<title>Node9&#45;&gt;Node10</title>
<path fill="none" stroke="midnightblue" d="M243.98,-56.44C268.16,-47.44 306.42,-33.19 333.65,-23.05"/>
<polygon fill="midnightblue" stroke="midnightblue" points="334.98,-26.29 343.13,-19.52 332.54,-19.73 334.98,-26.29"/>
</g>
<!-- Node11&#45;&gt;Node10 -->
<g id="edge18" class="edge">
<title>Node11&#45;&gt;Node10</title>
<path fill="none" stroke="midnightblue" d="M499.81,-56.44C473.06,-47.36 430.6,-32.94 400.69,-22.78"/>
<polygon fill="midnightblue" stroke="midnightblue" points="401.67,-19.42 391.08,-19.52 399.42,-26.05 401.67,-19.42"/>
</g>
<!-- Node12 -->
<g id="node12" class="node">
<title>Node12</title>
<g id="a_node12"><a xlink:title=" ">
<polygon fill="white" stroke="#bfbfbf" points="688.5,-0.5 688.5,-19.5 723.5,-19.5 723.5,-0.5 688.5,-0.5"/>
<text text-anchor="middle" x="706" y="-7.5" font-family="Helvetica,sans-Serif" font-size="10.00">map</text>
</a>
</g>
</g>
<!-- Node11&#45;&gt;Node12 -->
<g id="edge15" class="edge">
<title>Node11&#45;&gt;Node12</title>
<path fill="none" stroke="midnightblue" d="M556.02,-56.49C585.45,-48.31 631.11,-35.34 678.85,-20.26"/>
<polygon fill="midnightblue" stroke="midnightblue" points="679.95,-23.59 688.42,-17.22 677.83,-16.92 679.95,-23.59"/>
</g>
<!-- Node13 -->
<g id="node13" class="node">
<title>Node13</title>
<g id="a_node13"><a xlink:title=" ">
<polygon fill="white" stroke="#bfbfbf" points="451.5,-0.5 451.5,-19.5 510.5,-19.5 510.5,-0.5 451.5,-0.5"/>
<text text-anchor="middle" x="481" y="-7.5" font-family="Helvetica,sans-Serif" font-size="10.00">stdexcept</text>
</a>
</g>
</g>
<!-- Node11&#45;&gt;Node13 -->
<g id="edge16" class="edge">
<title>Node11&#45;&gt;Node13</title>
<path fill="none" stroke="midnightblue" d="M517.73,-56.08C511.46,-48.38 502.21,-37.03 494.57,-27.65"/>
<polygon fill="midnightblue" stroke="midnightblue" points="497.16,-25.29 488.13,-19.75 491.73,-29.71 497.16,-25.29"/>
</g>
<!-- Node14 -->
<g id="node14" class="node">
<title>Node14</title>
<g id="a_node14"><a xlink:title=" ">
<polygon fill="white" stroke="#bfbfbf" points="528.5,-0.5 528.5,-19.5 569.5,-19.5 569.5,-0.5 528.5,-0.5"/>
<text text-anchor="middle" x="549" y="-7.5" font-family="Helvetica,sans-Serif" font-size="10.00">string</text>
</a>
</g>
</g>
<!-- Node11&#45;&gt;Node14 -->
<g id="edge17" class="edge">
<title>Node11&#45;&gt;Node14</title>
<path fill="none" stroke="midnightblue" d="M528.96,-56.08C532.21,-48.77 536.92,-38.18 540.95,-29.1"/>
<polygon fill="midnightblue" stroke="midnightblue" points="544.25,-30.31 545.11,-19.75 537.85,-27.47 544.25,-30.31"/>
</g>
<!-- Node15 -->
<g id="node15" class="node">
<title>Node15</title>
<g id="a_node15"><a xlink:title=" ">
<polygon fill="white" stroke="#bfbfbf" points="587.5,-0.5 587.5,-19.5 670.5,-19.5 670.5,-0.5 587.5,-0.5"/>
<text text-anchor="middle" x="629" y="-7.5" font-family="Helvetica,sans-Serif" font-size="10.00">xtensor/xio.hpp</text>
</a>
</g>
</g>
<!-- Node11&#45;&gt;Node15 -->
<g id="edge19" class="edge">
<title>Node11&#45;&gt;Node15</title>
<path fill="none" stroke="midnightblue" d="M541.71,-56.32C558.31,-47.7 584,-34.36 603.22,-24.39"/>
<polygon fill="midnightblue" stroke="midnightblue" points="605.07,-27.37 612.33,-19.65 601.84,-21.16 605.07,-27.37"/>
</g>
</g>
</svg>
