<?xml version="1.0" encoding="UTF-8" standalone="no"?>
<!DOCTYPE svg PUBLIC "-//W3C//DTD SVG 1.1//EN"
 "http://www.w3.org/Graphics/SVG/1.1/DTD/svg11.dtd">
<!-- Generated by graphviz version 2.44.1 (20200629.0846)
 -->
<!-- Title: Domain.cpp Pages: 1 -->
<svg width="428pt" height="140pt"
 viewBox="0.00 0.00 427.50 140.00" xmlns="http://www.w3.org/2000/svg" xmlns:xlink="http://www.w3.org/1999/xlink">
<g id="graph0" class="graph" transform="scale(1 1) rotate(0) translate(4 136)">
<title>Domain.cpp</title>
<polygon fill="white" stroke="transparent" points="-4,4 -4,-136 423.5,-136 423.5,4 -4,4"/>
<!-- Node1 -->
<g id="node1" class="node">
<title>Node1</title>
<g id="a_node1"><a xlink:title=" ">
<polygon fill="#bfbfbf" stroke="black" points="168.5,-112.5 168.5,-131.5 237.5,-131.5 237.5,-112.5 168.5,-112.5"/>
<text text-anchor="middle" x="203" y="-119.5" font-family="Helvetica,sans-Serif" font-size="10.00">Domain.cpp</text>
</a>
</g>
</g>
<!-- Node2 -->
<g id="node2" class="node">
<title>Node2</title>
<g id="a_node2"><a xlink:href="_domain_8h.html" target="_top" xlink:title=" ">
<polygon fill="white" stroke="black" points="62.5,-56.5 62.5,-75.5 121.5,-75.5 121.5,-56.5 62.5,-56.5"/>
<text text-anchor="middle" x="92" y="-63.5" font-family="Helvetica,sans-Serif" font-size="10.00">Domain.h</text>
</a>
</g>
</g>
<!-- Node1&#45;&gt;Node2 -->
<g id="edge1" class="edge">
<title>Node1&#45;&gt;Node2</title>
<path fill="none" stroke="midnightblue" d="M185.17,-112.32C167.28,-103.62 139.52,-90.12 118.95,-80.11"/>
<polygon fill="midnightblue" stroke="midnightblue" points="120.31,-76.88 109.79,-75.65 117.25,-83.18 120.31,-76.88"/>
</g>
<!-- Node3 -->
<g id="node3" class="node">
<title>Node3</title>
<g id="a_node3"><a xlink:title=" ">
<polygon fill="white" stroke="#bfbfbf" points="0,-0.5 0,-19.5 54,-19.5 54,-0.5 0,-0.5"/>
<text text-anchor="middle" x="27" y="-7.5" font-family="Helvetica,sans-Serif" font-size="10.00">iostream</text>
</a>
</g>
</g>
<!-- Node1&#45;&gt;Node3 -->
<g id="edge6" class="edge">
<title>Node1&#45;&gt;Node3</title>
<path fill="none" stroke="midnightblue" d="M168.45,-118.89C135.31,-115.13 85.77,-104.73 54,-76 40.57,-63.85 33.64,-43.98 30.18,-29.4"/>
<polygon fill="midnightblue" stroke="midnightblue" points="33.59,-28.6 28.17,-19.5 26.73,-30 33.59,-28.6"/>
</g>
<!-- Node4 -->
<g id="node4" class="node">
<title>Node4</title>
<g id="a_node4"><a xlink:title=" ">
<polygon fill="white" stroke="#bfbfbf" points="130,-0.5 130,-19.5 174,-19.5 174,-0.5 130,-0.5"/>
<text text-anchor="middle" x="152" y="-7.5" font-family="Helvetica,sans-Serif" font-size="10.00">vector</text>
</a>
</g>
</g>
<!-- Node1&#45;&gt;Node4 -->
<g id="edge8" class="edge">
<title>Node1&#45;&gt;Node4</title>
<path fill="none" stroke="midnightblue" d="M194.83,-112.39C187.12,-103.8 175.75,-89.92 169,-76 161.84,-61.24 157.42,-43.08 154.89,-29.71"/>
<polygon fill="midnightblue" stroke="midnightblue" points="158.32,-29.05 153.18,-19.79 151.42,-30.24 158.32,-29.05"/>
</g>
<!-- Node6 -->
<g id="node6" class="node">
<title>Node6</title>
<g id="a_node6"><a xlink:title=" ">
<polygon fill="white" stroke="#bfbfbf" points="178,-56.5 178,-75.5 228,-75.5 228,-56.5 178,-56.5"/>
<text text-anchor="middle" x="203" y="-63.5" font-family="Helvetica,sans-Serif" font-size="10.00">fstream</text>
</a>
</g>
</g>
<!-- Node1&#45;&gt;Node6 -->
<g id="edge5" class="edge">
<title>Node1&#45;&gt;Node6</title>
<path fill="none" stroke="midnightblue" d="M203,-112.08C203,-105.01 203,-94.86 203,-85.99"/>
<polygon fill="midnightblue" stroke="midnightblue" points="206.5,-85.75 203,-75.75 199.5,-85.75 206.5,-85.75"/>
</g>
<!-- Node7 -->
<g id="node7" class="node">
<title>Node7</title>
<g id="a_node7"><a xlink:title=" ">
<polygon fill="white" stroke="#bfbfbf" points="246.5,-56.5 246.5,-75.5 287.5,-75.5 287.5,-56.5 246.5,-56.5"/>
<text text-anchor="middle" x="267" y="-63.5" font-family="Helvetica,sans-Serif" font-size="10.00">string</text>
</a>
</g>
</g>
<!-- Node1&#45;&gt;Node7 -->
<g id="edge7" class="edge">
<title>Node1&#45;&gt;Node7</title>
<path fill="none" stroke="midnightblue" d="M213.28,-112.32C222.84,-104.26 237.28,-92.08 248.78,-82.37"/>
<polygon fill="midnightblue" stroke="midnightblue" points="251.14,-84.96 256.53,-75.83 246.63,-79.61 251.14,-84.96"/>
</g>
<!-- Node8 -->
<g id="node8" class="node">
<title>Node8</title>
<g id="a_node8"><a xlink:title=" ">
<polygon fill="white" stroke="#bfbfbf" points="306,-56.5 306,-75.5 352,-75.5 352,-56.5 306,-56.5"/>
<text text-anchor="middle" x="329" y="-63.5" font-family="Helvetica,sans-Serif" font-size="10.00">cstring</text>
</a>
</g>
</g>
<!-- Node1&#45;&gt;Node8 -->
<g id="edge9" class="edge">
<title>Node1&#45;&gt;Node8</title>
<path fill="none" stroke="midnightblue" d="M222.97,-112.44C243.61,-103.6 276.06,-89.69 299.63,-79.59"/>
<polygon fill="midnightblue" stroke="midnightblue" points="301.32,-82.67 309.13,-75.52 298.56,-76.24 301.32,-82.67"/>
</g>
<!-- Node9 -->
<g id="node9" class="node">
<title>Node9</title>
<g id="a_node9"><a xlink:title=" ">
<polygon fill="white" stroke="#bfbfbf" points="370.5,-56.5 370.5,-75.5 419.5,-75.5 419.5,-56.5 370.5,-56.5"/>
<text text-anchor="middle" x="395" y="-63.5" font-family="Helvetica,sans-Serif" font-size="10.00">cassert</text>
</a>
</g>
</g>
<!-- Node1&#45;&gt;Node9 -->
<g id="edge10" class="edge">
<title>Node1&#45;&gt;Node9</title>
<path fill="none" stroke="midnightblue" d="M233.42,-112.44C268.02,-102.71 324.4,-86.86 360.58,-76.68"/>
<polygon fill="midnightblue" stroke="midnightblue" points="361.54,-80.05 370.21,-73.97 359.64,-73.31 361.54,-80.05"/>
</g>
<!-- Node2&#45;&gt;Node3 -->
<g id="edge2" class="edge">
<title>Node2&#45;&gt;Node3</title>
<path fill="none" stroke="midnightblue" d="M81.56,-56.32C71.85,-48.26 57.18,-36.08 45.5,-26.37"/>
<polygon fill="midnightblue" stroke="midnightblue" points="47.56,-23.53 37.63,-19.83 43.09,-28.92 47.56,-23.53"/>
</g>
<!-- Node2&#45;&gt;Node4 -->
<g id="edge3" class="edge">
<title>Node2&#45;&gt;Node4</title>
<path fill="none" stroke="midnightblue" d="M101.64,-56.32C110.51,-48.34 123.87,-36.31 134.61,-26.65"/>
<polygon fill="midnightblue" stroke="midnightblue" points="137.09,-29.13 142.18,-19.83 132.41,-23.92 137.09,-29.13"/>
</g>
<!-- Node5 -->
<g id="node5" class="node">
<title>Node5</title>
<g id="a_node5"><a xlink:title=" ">
<polygon fill="white" stroke="#bfbfbf" points="72,-0.5 72,-19.5 112,-19.5 112,-0.5 72,-0.5"/>
<text text-anchor="middle" x="92" y="-7.5" font-family="Helvetica,sans-Serif" font-size="10.00">utility</text>
</a>
</g>
</g>
<!-- Node2&#45;&gt;Node5 -->
<g id="edge4" class="edge">
<title>Node2&#45;&gt;Node5</title>
<path fill="none" stroke="midnightblue" d="M92,-56.08C92,-49.01 92,-38.86 92,-29.99"/>
<polygon fill="midnightblue" stroke="midnightblue" points="95.5,-29.75 92,-19.75 88.5,-29.75 95.5,-29.75"/>
</g>
</g>
</svg>
