<?xml version="1.0" encoding="UTF-8" standalone="no"?>
<!DOCTYPE svg PUBLIC "-//W3C//DTD SVG 1.1//EN"
 "http://www.w3.org/Graphics/SVG/1.1/DTD/svg11.dtd">
<!-- Generated by graphviz version 2.40.1 (20161225.0304)
 -->
<!-- Title: Domain.h Pages: 1 -->
<svg width="182pt" height="84pt"
 viewBox="0.00 0.00 181.50 84.00" xmlns="http://www.w3.org/2000/svg" xmlns:xlink="http://www.w3.org/1999/xlink">
<g id="graph0" class="graph" transform="scale(1 1) rotate(0) translate(4 80)">
<title>Domain.h</title>
<polygon fill="#ffffff" stroke="transparent" points="-4,4 -4,-80 177.5,-80 177.5,4 -4,4"/>
<!-- Node4 -->
<g id="node1" class="node">
<title>Node4</title>
<polygon fill="#bfbfbf" stroke="#000000" points="53,-56.5 53,-75.5 112,-75.5 112,-56.5 53,-56.5"/>
<text text-anchor="middle" x="82.5" y="-63.5" font-family="Helvetica,sans-Serif" font-size="10.00" fill="#000000">Domain.h</text>
</g>
<!-- Node5 -->
<g id="node2" class="node">
<title>Node5</title>
<g id="a_node2"><a xlink:href="_domain_8cpp.html" target="_top" xlink:title="Domain.cpp">
<polygon fill="#ffffff" stroke="#000000" points="0,-.5 0,-19.5 69,-19.5 69,-.5 0,-.5"/>
<text text-anchor="middle" x="34.5" y="-7.5" font-family="Helvetica,sans-Serif" font-size="10.00" fill="#000000">Domain.cpp</text>
</a>
</g>
</g>
<!-- Node4&#45;&gt;Node5 -->
<g id="edge1" class="edge">
<title>Node4&#45;&gt;Node5</title>
<path fill="none" stroke="#191970" d="M67.5003,-48.5004C59.3378,-38.9775 49.5511,-27.5596 42.7651,-19.6427"/>
<polygon fill="#191970" stroke="#191970" points="64.9737,-50.9307 74.139,-56.2455 70.2885,-46.3752 64.9737,-50.9307"/>
</g>
<!-- Node6 -->
<g id="node3" class="node">
<title>Node6</title>
<g id="a_node3"><a xlink:href="test_domain_8cpp.html" target="_top" xlink:title="testDomain.cpp">
<polygon fill="#ffffff" stroke="#000000" points="87.5,-.5 87.5,-19.5 173.5,-19.5 173.5,-.5 87.5,-.5"/>
<text text-anchor="middle" x="130.5" y="-7.5" font-family="Helvetica,sans-Serif" font-size="10.00" fill="#000000">testDomain.cpp</text>
</a>
</g>
</g>
<!-- Node4&#45;&gt;Node6 -->
<g id="edge2" class="edge">
<title>Node4&#45;&gt;Node6</title>
<path fill="none" stroke="#191970" d="M97.4997,-48.5004C105.6622,-38.9775 115.4489,-27.5596 122.2349,-19.6427"/>
<polygon fill="#191970" stroke="#191970" points="94.7115,-46.3752 90.861,-56.2455 100.0263,-50.9307 94.7115,-46.3752"/>
</g>
</g>
</svg>
