<?xml version="1.0" encoding="UTF-8" standalone="no"?>
<!DOCTYPE svg PUBLIC "-//W3C//DTD SVG 1.1//EN"
 "http://www.w3.org/Graphics/SVG/1.1/DTD/svg11.dtd">
<!-- Generated by graphviz version 2.40.1 (20161225.0304)
 -->
<!-- Title: Dsvdcmp.cpp Pages: 1 -->
<svg width="206pt" height="84pt"
 viewBox="0.00 0.00 205.50 84.00" xmlns="http://www.w3.org/2000/svg" xmlns:xlink="http://www.w3.org/1999/xlink">
<g id="graph0" class="graph" transform="scale(1 1) rotate(0) translate(4 80)">
<title>Dsvdcmp.cpp</title>
<polygon fill="#ffffff" stroke="transparent" points="-4,4 -4,-80 201.5,-80 201.5,4 -4,4"/>
<!-- Node0 -->
<g id="node1" class="node">
<title>Node0</title>
<polygon fill="#bfbfbf" stroke="#000000" points="61,-56.5 61,-75.5 138,-75.5 138,-56.5 61,-56.5"/>
<text text-anchor="middle" x="99.5" y="-63.5" font-family="Helvetica,sans-Serif" font-size="10.00" fill="#000000">Dsvdcmp.cpp</text>
</g>
<!-- Node1 -->
<g id="node2" class="node">
<title>Node1</title>
<polygon fill="#ffffff" stroke="#bfbfbf" points="0,-.5 0,-19.5 47,-19.5 47,-.5 0,-.5"/>
<text text-anchor="middle" x="23.5" y="-7.5" font-family="Helvetica,sans-Serif" font-size="10.00" fill="#000000">math.h</text>
</g>
<!-- Node0&#45;&gt;Node1 -->
<g id="edge1" class="edge">
<title>Node0&#45;&gt;Node1</title>
<path fill="none" stroke="#191970" d="M86.2618,-56.2455C74.819,-47.814 58.0704,-35.4729 44.7525,-25.6598"/>
<polygon fill="#191970" stroke="#191970" points="46.7133,-22.757 36.5865,-19.6427 42.5609,-28.3924 46.7133,-22.757"/>
</g>
<!-- Node2 -->
<g id="node3" class="node">
<title>Node2</title>
<g id="a_node3"><a xlink:href="_allocation_8h.html" target="_top" xlink:title="Allocation.h">
<polygon fill="#ffffff" stroke="#000000" points="65.5,-.5 65.5,-19.5 133.5,-19.5 133.5,-.5 65.5,-.5"/>
<text text-anchor="middle" x="99.5" y="-7.5" font-family="Helvetica,sans-Serif" font-size="10.00" fill="#000000">Allocation.h</text>
</a>
</g>
</g>
<!-- Node0&#45;&gt;Node2 -->
<g id="edge2" class="edge">
<title>Node0&#45;&gt;Node2</title>
<path fill="none" stroke="#191970" d="M99.5,-56.2455C99.5,-48.9382 99.5,-38.6944 99.5,-29.7046"/>
<polygon fill="#191970" stroke="#191970" points="103.0001,-29.6426 99.5,-19.6427 96.0001,-29.6427 103.0001,-29.6426"/>
</g>
<!-- Node3 -->
<g id="node4" class="node">
<title>Node3</title>
<polygon fill="#ffffff" stroke="#bfbfbf" points="151.5,-.5 151.5,-19.5 197.5,-19.5 197.5,-.5 151.5,-.5"/>
<text text-anchor="middle" x="174.5" y="-7.5" font-family="Helvetica,sans-Serif" font-size="10.00" fill="#000000">stdio.h</text>
</g>
<!-- Node0&#45;&gt;Node3 -->
<g id="edge3" class="edge">
<title>Node0&#45;&gt;Node3</title>
<path fill="none" stroke="#191970" d="M112.564,-56.2455C123.8562,-47.814 140.3845,-35.4729 153.5271,-25.6598"/>
<polygon fill="#191970" stroke="#191970" points="155.6669,-28.4301 161.5857,-19.6427 151.4789,-22.8211 155.6669,-28.4301"/>
</g>
</g>
</svg>
