<?xml version="1.0" encoding="UTF-8" standalone="no"?>
<!DOCTYPE svg PUBLIC "-//W3C//DTD SVG 1.1//EN"
 "http://www.w3.org/Graphics/SVG/1.1/DTD/svg11.dtd">
<!-- Generated by graphviz version 2.50.0 (20211204.2007)
 -->
<!-- Title: DumpMesh.cpp Pages: 1 -->
<svg width="613pt" height="196pt"
 viewBox="0.00 0.00 613.00 196.00" xmlns="http://www.w3.org/2000/svg" xmlns:xlink="http://www.w3.org/1999/xlink">
<g id="graph0" class="graph" transform="scale(1 1) rotate(0) translate(4 192)">
<title>DumpMesh.cpp</title>
<polygon fill="white" stroke="transparent" points="-4,4 -4,-192 609,-192 609,4 -4,4"/>
<!-- Node1 -->
<g id="node1" class="node">
<title>Node1</title>
<g id="a_node1"><a xlink:title=" ">
<polygon fill="#bfbfbf" stroke="black" points="310,-168.5 310,-187.5 396,-187.5 396,-168.5 310,-168.5"/>
<text text-anchor="middle" x="353" y="-175.5" font-family="Helvetica,sans-Serif" font-size="10.00">DumpMesh.cpp</text>
</a>
</g>
</g>
<!-- Node2 -->
<g id="node2" class="node">
<title>Node2</title>
<g id="a_node2"><a xlink:href="_dump_mesh_8h.html" target="_top" xlink:title=" ">
<polygon fill="white" stroke="black" points="276.5,-112.5 276.5,-131.5 351.5,-131.5 351.5,-112.5 276.5,-112.5"/>
<text text-anchor="middle" x="314" y="-119.5" font-family="Helvetica,sans-Serif" font-size="10.00">DumpMesh.h</text>
</a>
</g>
</g>
<!-- Node1&#45;&gt;Node2 -->
<g id="edge1" class="edge">
<title>Node1&#45;&gt;Node2</title>
<path fill="none" stroke="midnightblue" d="M346.56,-168.08C341.05,-160.46 332.97,-149.26 326.24,-139.94"/>
<polygon fill="midnightblue" stroke="midnightblue" points="329.01,-137.81 320.32,-131.75 323.34,-141.91 329.01,-137.81"/>
</g>
<!-- Node15 -->
<g id="node15" class="node">
<title>Node15</title>
<g id="a_node15"><a xlink:title=" ">
<polygon fill="white" stroke="#bfbfbf" points="369.5,-112.5 369.5,-131.5 416.5,-131.5 416.5,-112.5 369.5,-112.5"/>
<text text-anchor="middle" x="393" y="-119.5" font-family="Helvetica,sans-Serif" font-size="10.00">PCU.h</text>
</a>
</g>
</g>
<!-- Node1&#45;&gt;Node15 -->
<g id="edge14" class="edge">
<title>Node1&#45;&gt;Node15</title>
<path fill="none" stroke="midnightblue" d="M359.61,-168.08C365.26,-160.46 373.54,-149.26 380.45,-139.94"/>
<polygon fill="midnightblue" stroke="midnightblue" points="383.38,-141.87 386.52,-131.75 377.75,-137.7 383.38,-141.87"/>
</g>
<!-- Node3 -->
<g id="node3" class="node">
<title>Node3</title>
<g id="a_node3"><a xlink:href="mesh_8h.html" target="_top" xlink:title=" ">
<polygon fill="white" stroke="black" points="257.5,-56.5 257.5,-75.5 306.5,-75.5 306.5,-56.5 257.5,-56.5"/>
<text text-anchor="middle" x="282" y="-63.5" font-family="Helvetica,sans-Serif" font-size="10.00">mesh.h</text>
</a>
</g>
</g>
<!-- Node2&#45;&gt;Node3 -->
<g id="edge2" class="edge">
<title>Node2&#45;&gt;Node3</title>
<path fill="none" stroke="midnightblue" d="M308.72,-112.08C304.29,-104.61 297.84,-93.72 292.38,-84.52"/>
<polygon fill="midnightblue" stroke="midnightblue" points="295.29,-82.57 287.19,-75.75 289.27,-86.14 295.29,-82.57"/>
</g>
<!-- Node14 -->
<g id="node14" class="node">
<title>Node14</title>
<g id="a_node14"><a xlink:title=" ">
<polygon fill="white" stroke="#bfbfbf" points="324.5,-56.5 324.5,-75.5 367.5,-75.5 367.5,-56.5 324.5,-56.5"/>
<text text-anchor="middle" x="346" y="-63.5" font-family="Helvetica,sans-Serif" font-size="10.00">cstdio</text>
</a>
</g>
</g>
<!-- Node2&#45;&gt;Node14 -->
<g id="edge13" class="edge">
<title>Node2&#45;&gt;Node14</title>
<path fill="none" stroke="midnightblue" d="M319.28,-112.08C323.71,-104.61 330.16,-93.72 335.62,-84.52"/>
<polygon fill="midnightblue" stroke="midnightblue" points="338.73,-86.14 340.81,-75.75 332.71,-82.57 338.73,-86.14"/>
</g>
<!-- Node4 -->
<g id="node4" class="node">
<title>Node4</title>
<g id="a_node4"><a xlink:title=" ">
<polygon fill="white" stroke="#bfbfbf" points="0,-0.5 0,-19.5 30,-19.5 30,-0.5 0,-0.5"/>
<text text-anchor="middle" x="15" y="-7.5" font-family="Helvetica,sans-Serif" font-size="10.00">set</text>
</a>
</g>
</g>
<!-- Node3&#45;&gt;Node4 -->
<g id="edge3" class="edge">
<title>Node3&#45;&gt;Node4</title>
<path fill="none" stroke="midnightblue" d="M257.19,-61.87C214.5,-56.18 124.36,-42.8 39.85,-19.82"/>
<polygon fill="midnightblue" stroke="midnightblue" points="40.67,-16.42 30.1,-17.12 38.8,-23.17 40.67,-16.42"/>
</g>
<!-- Node5 -->
<g id="node5" class="node">
<title>Node5</title>
<g id="a_node5"><a xlink:title=" ">
<polygon fill="white" stroke="#bfbfbf" points="48,-0.5 48,-19.5 92,-19.5 92,-0.5 48,-0.5"/>
<text text-anchor="middle" x="70" y="-7.5" font-family="Helvetica,sans-Serif" font-size="10.00">vector</text>
</a>
</g>
</g>
<!-- Node3&#45;&gt;Node5 -->
<g id="edge4" class="edge">
<title>Node3&#45;&gt;Node5</title>
<path fill="none" stroke="midnightblue" d="M257.33,-59.19C224.19,-51.31 163.25,-36.59 102.13,-20.23"/>
<polygon fill="midnightblue" stroke="midnightblue" points="102.89,-16.81 92.32,-17.59 101.07,-23.57 102.89,-16.81"/>
</g>
<!-- Node6 -->
<g id="node6" class="node">
<title>Node6</title>
<g id="a_node6"><a xlink:title=" ">
<polygon fill="white" stroke="#bfbfbf" points="110,-0.5 110,-19.5 166,-19.5 166,-0.5 110,-0.5"/>
<text text-anchor="middle" x="138" y="-7.5" font-family="Helvetica,sans-Serif" font-size="10.00">algorithm</text>
</a>
</g>
</g>
<!-- Node3&#45;&gt;Node6 -->
<g id="edge5" class="edge">
<title>Node3&#45;&gt;Node6</title>
<path fill="none" stroke="midnightblue" d="M259.18,-56.44C235.17,-47.44 197.17,-33.19 170.13,-23.05"/>
<polygon fill="midnightblue" stroke="midnightblue" points="171.3,-19.75 160.71,-19.52 168.84,-26.3 171.3,-19.75"/>
</g>
<!-- Node7 -->
<g id="node7" class="node">
<title>Node7</title>
<g id="a_node7"><a xlink:title=" ">
<polygon fill="white" stroke="#bfbfbf" points="184.5,-0.5 184.5,-19.5 219.5,-19.5 219.5,-0.5 184.5,-0.5"/>
<text text-anchor="middle" x="202" y="-7.5" font-family="Helvetica,sans-Serif" font-size="10.00">map</text>
</a>
</g>
</g>
<!-- Node3&#45;&gt;Node7 -->
<g id="edge6" class="edge">
<title>Node3&#45;&gt;Node7</title>
<path fill="none" stroke="midnightblue" d="M269.15,-56.32C256.78,-47.98 237.87,-35.21 223.26,-25.35"/>
<polygon fill="midnightblue" stroke="midnightblue" points="225.07,-22.35 214.82,-19.65 221.15,-28.15 225.07,-22.35"/>
</g>
<!-- Node8 -->
<g id="node8" class="node">
<title>Node8</title>
<g id="a_node8"><a xlink:title=" ">
<polygon fill="white" stroke="#bfbfbf" points="237.5,-0.5 237.5,-19.5 266.5,-19.5 266.5,-0.5 237.5,-0.5"/>
<text text-anchor="middle" x="252" y="-7.5" font-family="Helvetica,sans-Serif" font-size="10.00">list</text>
</a>
</g>
</g>
<!-- Node3&#45;&gt;Node8 -->
<g id="edge7" class="edge">
<title>Node3&#45;&gt;Node8</title>
<path fill="none" stroke="midnightblue" d="M277.05,-56.08C272.9,-48.61 266.85,-37.72 261.73,-28.52"/>
<polygon fill="midnightblue" stroke="midnightblue" points="264.78,-26.79 256.86,-19.75 258.66,-30.19 264.78,-26.79"/>
</g>
<!-- Node9 -->
<g id="node9" class="node">
<title>Node9</title>
<g id="a_node9"><a xlink:title=" ">
<polygon fill="white" stroke="#bfbfbf" points="285,-0.5 285,-19.5 339,-19.5 339,-0.5 285,-0.5"/>
<text text-anchor="middle" x="312" y="-7.5" font-family="Helvetica,sans-Serif" font-size="10.00">iostream</text>
</a>
</g>
</g>
<!-- Node3&#45;&gt;Node9 -->
<g id="edge8" class="edge">
<title>Node3&#45;&gt;Node9</title>
<path fill="none" stroke="midnightblue" d="M286.95,-56.08C291.1,-48.61 297.15,-37.72 302.27,-28.52"/>
<polygon fill="midnightblue" stroke="midnightblue" points="305.34,-30.19 307.14,-19.75 299.22,-26.79 305.34,-30.19"/>
</g>
<!-- Node10 -->
<g id="node10" class="node">
<title>Node10</title>
<g id="a_node10"><a xlink:title=" ">
<polygon fill="white" stroke="#bfbfbf" points="357,-0.5 357,-19.5 407,-19.5 407,-0.5 357,-0.5"/>
<text text-anchor="middle" x="382" y="-7.5" font-family="Helvetica,sans-Serif" font-size="10.00">iomanip</text>
</a>
</g>
</g>
<!-- Node3&#45;&gt;Node10 -->
<g id="edge9" class="edge">
<title>Node3&#45;&gt;Node10</title>
<path fill="none" stroke="midnightblue" d="M298.07,-56.32C313.96,-47.74 338.51,-34.49 356.96,-24.52"/>
<polygon fill="midnightblue" stroke="midnightblue" points="358.84,-27.49 365.97,-19.65 355.51,-21.33 358.84,-27.49"/>
</g>
<!-- Node11 -->
<g id="node11" class="node">
<title>Node11</title>
<g id="a_node11"><a xlink:title=" ">
<polygon fill="white" stroke="#bfbfbf" points="425,-0.5 425,-19.5 475,-19.5 475,-0.5 425,-0.5"/>
<text text-anchor="middle" x="450" y="-7.5" font-family="Helvetica,sans-Serif" font-size="10.00">fstream</text>
</a>
</g>
</g>
<!-- Node3&#45;&gt;Node11 -->
<g id="edge10" class="edge">
<title>Node3&#45;&gt;Node11</title>
<path fill="none" stroke="midnightblue" d="M306.79,-57.03C335.37,-47.85 382.55,-32.68 414.9,-22.28"/>
<polygon fill="midnightblue" stroke="midnightblue" points="416.39,-25.48 424.83,-19.09 414.24,-18.82 416.39,-25.48"/>
</g>
<!-- Node12 -->
<g id="node12" class="node">
<title>Node12</title>
<g id="a_node12"><a xlink:title=" ">
<polygon fill="white" stroke="#bfbfbf" points="493.5,-0.5 493.5,-19.5 542.5,-19.5 542.5,-0.5 493.5,-0.5"/>
<text text-anchor="middle" x="518" y="-7.5" font-family="Helvetica,sans-Serif" font-size="10.00">cassert</text>
</a>
</g>
</g>
<!-- Node3&#45;&gt;Node12 -->
<g id="edge11" class="edge">
<title>Node3&#45;&gt;Node12</title>
<path fill="none" stroke="midnightblue" d="M306.85,-58.28C309.92,-57.49 313.03,-56.71 316,-56 387.22,-38.95 408.05,-37.84 483.2,-20.09"/>
<polygon fill="midnightblue" stroke="midnightblue" points="484.24,-23.45 493.15,-17.72 482.61,-16.64 484.24,-23.45"/>
</g>
<!-- Node13 -->
<g id="node13" class="node">
<title>Node13</title>
<g id="a_node13"><a xlink:title=" ">
<polygon fill="white" stroke="#bfbfbf" points="561,-0.5 561,-19.5 605,-19.5 605,-0.5 561,-0.5"/>
<text text-anchor="middle" x="583" y="-7.5" font-family="Helvetica,sans-Serif" font-size="10.00">cmath</text>
</a>
</g>
</g>
<!-- Node3&#45;&gt;Node13 -->
<g id="edge12" class="edge">
<title>Node3&#45;&gt;Node13</title>
<path fill="none" stroke="midnightblue" d="M306.81,-58.1C309.89,-57.34 313.01,-56.62 316,-56 416.73,-35.05 446.59,-42.36 550.76,-20.02"/>
<polygon fill="midnightblue" stroke="midnightblue" points="551.72,-23.4 560.74,-17.84 550.22,-16.56 551.72,-23.4"/>
</g>
</g>
</svg>
