<?xml version="1.0" encoding="UTF-8" standalone="no"?>
<!DOCTYPE svg PUBLIC "-//W3C//DTD SVG 1.1//EN"
 "http://www.w3.org/Graphics/SVG/1.1/DTD/svg11.dtd">
<!-- Generated by graphviz version 2.44.1 (20200629.0846)
 -->
<!-- Title: ElastoPlastic.h Pages: 1 -->
<svg width="1288pt" height="140pt"
 viewBox="0.00 0.00 1288.00 140.00" xmlns="http://www.w3.org/2000/svg" xmlns:xlink="http://www.w3.org/1999/xlink">
<g id="graph0" class="graph" transform="scale(1 1) rotate(0) translate(4 136)">
<title>ElastoPlastic.h</title>
<polygon fill="white" stroke="transparent" points="-4,4 -4,-136 1284,-136 1284,4 -4,4"/>
<!-- Node1 -->
<g id="node1" class="node">
<title>Node1</title>
<g id="a_node1"><a xlink:title=" ">
<polygon fill="#bfbfbf" stroke="black" points="483.5,-112.5 483.5,-131.5 566.5,-131.5 566.5,-112.5 483.5,-112.5"/>
<text text-anchor="middle" x="525" y="-119.5" font-family="Helvetica,sans-Serif" font-size="10.00">ElastoPlastic.h</text>
</a>
</g>
</g>
<!-- Node2 -->
<g id="node2" class="node">
<title>Node2</title>
<g id="a_node2"><a xlink:title=" ">
<polygon fill="white" stroke="#bfbfbf" points="0,-0.5 0,-19.5 44,-19.5 44,-0.5 0,-0.5"/>
<text text-anchor="middle" x="22" y="-7.5" font-family="Helvetica,sans-Serif" font-size="10.00">cmath</text>
</a>
</g>
</g>
<!-- Node1&#45;&gt;Node2 -->
<g id="edge1" class="edge">
<title>Node1&#45;&gt;Node2</title>
<path fill="none" stroke="midnightblue" d="M483.1,-120.53C365.52,-118.8 38.95,-110.85 7,-76 -4.7,-63.24 2.38,-43.21 10.3,-28.76"/>
<polygon fill="midnightblue" stroke="midnightblue" points="13.53,-30.18 15.69,-19.81 7.53,-26.57 13.53,-30.18"/>
</g>
<!-- Node3 -->
<g id="node3" class="node">
<title>Node3</title>
<g id="a_node3"><a xlink:title=" ">
<polygon fill="white" stroke="#bfbfbf" points="392,-0.5 392,-19.5 446,-19.5 446,-0.5 392,-0.5"/>
<text text-anchor="middle" x="419" y="-7.5" font-family="Helvetica,sans-Serif" font-size="10.00">iostream</text>
</a>
</g>
</g>
<!-- Node1&#45;&gt;Node3 -->
<g id="edge2" class="edge">
<title>Node1&#45;&gt;Node3</title>
<path fill="none" stroke="midnightblue" d="M513.78,-112.19C502.92,-103.46 486.2,-89.47 473,-76 457.84,-60.53 442.2,-41.28 431.68,-27.76"/>
<polygon fill="midnightblue" stroke="midnightblue" points="434.43,-25.6 425.56,-19.8 428.88,-29.86 434.43,-25.6"/>
</g>
<!-- Node4 -->
<g id="node4" class="node">
<title>Node4</title>
<g id="a_node4"><a xlink:title=" ">
<polygon fill="white" stroke="#bfbfbf" points="114,-56.5 114,-75.5 164,-75.5 164,-56.5 114,-56.5"/>
<text text-anchor="middle" x="139" y="-63.5" font-family="Helvetica,sans-Serif" font-size="10.00">iomanip</text>
</a>
</g>
</g>
<!-- Node1&#45;&gt;Node4 -->
<g id="edge3" class="edge">
<title>Node1&#45;&gt;Node4</title>
<path fill="none" stroke="midnightblue" d="M483.26,-117.46C418.87,-111.6 291.33,-98.45 174.03,-75.97"/>
<polygon fill="midnightblue" stroke="midnightblue" points="174.65,-72.53 164.17,-74.06 173.31,-79.4 174.65,-72.53"/>
</g>
<!-- Node5 -->
<g id="node5" class="node">
<title>Node5</title>
<g id="a_node5"><a xlink:title=" ">
<polygon fill="white" stroke="#bfbfbf" points="182,-56.5 182,-75.5 226,-75.5 226,-56.5 182,-56.5"/>
<text text-anchor="middle" x="204" y="-63.5" font-family="Helvetica,sans-Serif" font-size="10.00">vector</text>
</a>
</g>
</g>
<!-- Node1&#45;&gt;Node5 -->
<g id="edge4" class="edge">
<title>Node1&#45;&gt;Node5</title>
<path fill="none" stroke="midnightblue" d="M483.39,-116.25C428.72,-109.64 329.61,-96.36 236.16,-76.02"/>
<polygon fill="midnightblue" stroke="midnightblue" points="236.78,-72.57 226.26,-73.83 235.27,-79.41 236.78,-72.57"/>
</g>
<!-- Node6 -->
<g id="node6" class="node">
<title>Node6</title>
<g id="a_node6"><a xlink:href="proteus__blas_8h.html" target="_top" xlink:title=" ">
<polygon fill="white" stroke="black" points="244,-56.5 244,-75.5 324,-75.5 324,-56.5 244,-56.5"/>
<text text-anchor="middle" x="284" y="-63.5" font-family="Helvetica,sans-Serif" font-size="10.00">proteus_blas.h</text>
</a>
</g>
</g>
<!-- Node1&#45;&gt;Node6 -->
<g id="edge5" class="edge">
<title>Node1&#45;&gt;Node6</title>
<path fill="none" stroke="midnightblue" d="M486.81,-112.44C444.86,-103.04 377.41,-87.93 331.93,-77.74"/>
<polygon fill="midnightblue" stroke="midnightblue" points="332.53,-74.29 322.01,-75.52 331,-81.12 332.53,-74.29"/>
</g>
<!-- Node7 -->
<g id="node7" class="node">
<title>Node7</title>
<g id="a_node7"><a xlink:href="_comp_kernel_8h.html" target="_top" xlink:title=" ">
<polygon fill="white" stroke="black" points="16.5,-56.5 16.5,-75.5 95.5,-75.5 95.5,-56.5 16.5,-56.5"/>
<text text-anchor="middle" x="56" y="-63.5" font-family="Helvetica,sans-Serif" font-size="10.00">CompKernel.h</text>
</a>
</g>
</g>
<!-- Node1&#45;&gt;Node7 -->
<g id="edge6" class="edge">
<title>Node1&#45;&gt;Node7</title>
<path fill="none" stroke="midnightblue" d="M483.44,-117.59C409.58,-111.3 250.43,-96.72 105.5,-75.97"/>
<polygon fill="midnightblue" stroke="midnightblue" points="105.94,-72.49 95.54,-74.52 104.93,-79.42 105.94,-72.49"/>
</g>
<!-- Node8 -->
<g id="node8" class="node">
<title>Node8</title>
<g id="a_node8"><a xlink:href="_model_factory_8h.html" target="_top" xlink:title=" ">
<polygon fill="white" stroke="black" points="342.5,-56.5 342.5,-75.5 425.5,-75.5 425.5,-56.5 342.5,-56.5"/>
<text text-anchor="middle" x="384" y="-63.5" font-family="Helvetica,sans-Serif" font-size="10.00">ModelFactory.h</text>
</a>
</g>
</g>
<!-- Node1&#45;&gt;Node8 -->
<g id="edge8" class="edge">
<title>Node1&#45;&gt;Node8</title>
<path fill="none" stroke="midnightblue" d="M502.66,-112.44C479.25,-103.48 442.26,-89.31 415.81,-79.18"/>
<polygon fill="midnightblue" stroke="midnightblue" points="416.83,-75.82 406.24,-75.52 414.32,-82.36 416.83,-75.82"/>
</g>
<!-- Node9 -->
<g id="node9" class="node">
<title>Node9</title>
<g id="a_node9"><a xlink:href="mohr_coulomb_8h.html" target="_top" xlink:title=" ">
<polygon fill="white" stroke="black" points="482,-56.5 482,-75.5 568,-75.5 568,-56.5 482,-56.5"/>
<text text-anchor="middle" x="525" y="-63.5" font-family="Helvetica,sans-Serif" font-size="10.00">mohrCoulomb.h</text>
</a>
</g>
</g>
<!-- Node1&#45;&gt;Node9 -->
<g id="edge10" class="edge">
<title>Node1&#45;&gt;Node9</title>
<path fill="none" stroke="midnightblue" d="M525,-112.08C525,-105.01 525,-94.86 525,-85.99"/>
<polygon fill="midnightblue" stroke="midnightblue" points="528.5,-85.75 525,-75.75 521.5,-85.75 528.5,-85.75"/>
</g>
<!-- Node10 -->
<g id="node10" class="node">
<title>Node10</title>
<g id="a_node10"><a xlink:href="mohr_coulomb2_8h.html" target="_top" xlink:title=" ">
<polygon fill="white" stroke="black" points="586.5,-56.5 586.5,-75.5 677.5,-75.5 677.5,-56.5 586.5,-56.5"/>
<text text-anchor="middle" x="632" y="-63.5" font-family="Helvetica,sans-Serif" font-size="10.00">mohrCoulomb2.h</text>
</a>
</g>
</g>
<!-- Node1&#45;&gt;Node10 -->
<g id="edge11" class="edge">
<title>Node1&#45;&gt;Node10</title>
<path fill="none" stroke="midnightblue" d="M542.19,-112.32C559.35,-103.66 585.95,-90.24 605.75,-80.25"/>
<polygon fill="midnightblue" stroke="midnightblue" points="607.5,-83.28 614.85,-75.65 604.35,-77.04 607.5,-83.28"/>
</g>
<!-- Node11 -->
<g id="node11" class="node">
<title>Node11</title>
<g id="a_node11"><a xlink:href="von_mises_8h.html" target="_top" xlink:title=" ">
<polygon fill="white" stroke="black" points="695.5,-56.5 695.5,-75.5 762.5,-75.5 762.5,-56.5 695.5,-56.5"/>
<text text-anchor="middle" x="729" y="-63.5" font-family="Helvetica,sans-Serif" font-size="10.00">vonMises.h</text>
</a>
</g>
</g>
<!-- Node1&#45;&gt;Node11 -->
<g id="edge12" class="edge">
<title>Node1&#45;&gt;Node11</title>
<path fill="none" stroke="midnightblue" d="M557.32,-112.44C592.39,-103.16 648.5,-88.31 686.96,-78.13"/>
<polygon fill="midnightblue" stroke="midnightblue" points="688.06,-81.46 696.83,-75.52 686.26,-74.69 688.06,-81.46"/>
</g>
<!-- Node12 -->
<g id="node12" class="node">
<title>Node12</title>
<g id="a_node12"><a xlink:href="tresca_8h.html" target="_top" xlink:title=" ">
<polygon fill="white" stroke="black" points="781,-56.5 781,-75.5 833,-75.5 833,-56.5 781,-56.5"/>
<text text-anchor="middle" x="807" y="-63.5" font-family="Helvetica,sans-Serif" font-size="10.00">tresca.h</text>
</a>
</g>
</g>
<!-- Node1&#45;&gt;Node12 -->
<g id="edge13" class="edge">
<title>Node1&#45;&gt;Node12</title>
<path fill="none" stroke="midnightblue" d="M566.7,-114.34C613.93,-106.59 693.4,-92.92 770.76,-76.15"/>
<polygon fill="midnightblue" stroke="midnightblue" points="771.65,-79.54 780.67,-73.98 770.16,-72.7 771.65,-79.54"/>
</g>
<!-- Node13 -->
<g id="node13" class="node">
<title>Node13</title>
<g id="a_node13"><a xlink:href="drucker_prager_8h.html" target="_top" xlink:title=" ">
<polygon fill="white" stroke="black" points="851.5,-56.5 851.5,-75.5 936.5,-75.5 936.5,-56.5 851.5,-56.5"/>
<text text-anchor="middle" x="894" y="-63.5" font-family="Helvetica,sans-Serif" font-size="10.00">druckerPrager.h</text>
</a>
</g>
</g>
<!-- Node1&#45;&gt;Node13 -->
<g id="edge14" class="edge">
<title>Node1&#45;&gt;Node13</title>
<path fill="none" stroke="midnightblue" d="M566.6,-115.5C625.35,-107.65 736.23,-92.51 841.3,-76.07"/>
<polygon fill="midnightblue" stroke="midnightblue" points="842.11,-79.48 851.45,-74.47 841.03,-72.57 842.11,-79.48"/>
</g>
<!-- Node14 -->
<g id="node14" class="node">
<title>Node14</title>
<g id="a_node14"><a xlink:href="mcdp_8h.html" target="_top" xlink:title=" ">
<polygon fill="white" stroke="black" points="954.5,-56.5 954.5,-75.5 1003.5,-75.5 1003.5,-56.5 954.5,-56.5"/>
<text text-anchor="middle" x="979" y="-63.5" font-family="Helvetica,sans-Serif" font-size="10.00">mcdp.h</text>
</a>
</g>
</g>
<!-- Node1&#45;&gt;Node14 -->
<g id="edge15" class="edge">
<title>Node1&#45;&gt;Node14</title>
<path fill="none" stroke="midnightblue" d="M566.55,-118.77C640.75,-114.3 800.99,-102.49 944.38,-76.06"/>
<polygon fill="midnightblue" stroke="midnightblue" points="945.05,-79.49 954.23,-74.21 943.76,-72.61 945.05,-79.49"/>
</g>
<!-- Node15 -->
<g id="node15" class="node">
<title>Node15</title>
<g id="a_node15"><a xlink:title=" ">
<polygon fill="white" stroke="#bfbfbf" points="1022,-56.5 1022,-75.5 1156,-75.5 1156,-56.5 1022,-56.5"/>
<text text-anchor="middle" x="1089" y="-63.5" font-family="Helvetica,sans-Serif" font-size="10.00">xtensor&#45;python/pyarray.hpp</text>
</a>
</g>
</g>
<!-- Node1&#45;&gt;Node15 -->
<g id="edge16" class="edge">
<title>Node1&#45;&gt;Node15</title>
<path fill="none" stroke="midnightblue" d="M566.81,-117.51C649.62,-110.53 840.55,-94.02 1011.92,-76.09"/>
<polygon fill="midnightblue" stroke="midnightblue" points="1012.29,-79.57 1021.87,-75.04 1011.56,-72.61 1012.29,-79.57"/>
</g>
<!-- Node16 -->
<g id="node16" class="node">
<title>Node16</title>
<g id="a_node16"><a xlink:title=" ">
<polygon fill="white" stroke="#bfbfbf" points="1174,-56.5 1174,-75.5 1280,-75.5 1280,-56.5 1174,-56.5"/>
<text text-anchor="middle" x="1227" y="-63.5" font-family="Helvetica,sans-Serif" font-size="10.00">pybind11/pybind11.h</text>
</a>
</g>
</g>
<!-- Node1&#45;&gt;Node16 -->
<g id="edge17" class="edge">
<title>Node1&#45;&gt;Node16</title>
<path fill="none" stroke="midnightblue" d="M566.65,-119.14C667.37,-114.41 932.26,-100.62 1163.97,-76.03"/>
<polygon fill="midnightblue" stroke="midnightblue" points="1164.36,-79.51 1173.93,-74.97 1163.62,-72.55 1164.36,-79.51"/>
</g>
<!-- Node7&#45;&gt;Node2 -->
<g id="edge7" class="edge">
<title>Node7&#45;&gt;Node2</title>
<path fill="none" stroke="midnightblue" d="M50.39,-56.08C45.63,-48.53 38.68,-37.49 32.85,-28.23"/>
<polygon fill="midnightblue" stroke="midnightblue" points="35.8,-26.35 27.51,-19.75 29.88,-30.08 35.8,-26.35"/>
</g>
<!-- Node8&#45;&gt;Node3 -->
<g id="edge9" class="edge">
<title>Node8&#45;&gt;Node3</title>
<path fill="none" stroke="midnightblue" d="M389.78,-56.08C394.67,-48.53 401.83,-37.49 407.83,-28.23"/>
<polygon fill="midnightblue" stroke="midnightblue" points="410.83,-30.05 413.33,-19.75 404.95,-26.24 410.83,-30.05"/>
</g>
</g>
</svg>
