<?xml version="1.0" encoding="UTF-8" standalone="no"?>
<!DOCTYPE svg PUBLIC "-//W3C//DTD SVG 1.1//EN"
 "http://www.w3.org/Graphics/SVG/1.1/DTD/svg11.dtd">
<!-- Generated by graphviz version 2.40.1 (20161225.0304)
 -->
<!-- Title: ElastoPlastic.h Pages: 1 -->
<svg width="1349pt" height="140pt"
 viewBox="0.00 0.00 1348.50 140.00" xmlns="http://www.w3.org/2000/svg" xmlns:xlink="http://www.w3.org/1999/xlink">
<g id="graph0" class="graph" transform="scale(1 1) rotate(0) translate(4 136)">
<title>ElastoPlastic.h</title>
<polygon fill="#ffffff" stroke="transparent" points="-4,4 -4,-136 1344.5,-136 1344.5,4 -4,4"/>
<!-- Node0 -->
<g id="node1" class="node">
<title>Node0</title>
<polygon fill="#bfbfbf" stroke="#000000" points="558,-112.5 558,-131.5 641,-131.5 641,-112.5 558,-112.5"/>
<text text-anchor="middle" x="599.5" y="-119.5" font-family="Helvetica,sans-Serif" font-size="10.00" fill="#000000">ElastoPlastic.h</text>
</g>
<!-- Node1 -->
<g id="node2" class="node">
<title>Node1</title>
<polygon fill="#ffffff" stroke="#bfbfbf" points="51.5,-.5 51.5,-19.5 95.5,-19.5 95.5,-.5 51.5,-.5"/>
<text text-anchor="middle" x="73.5" y="-7.5" font-family="Helvetica,sans-Serif" font-size="10.00" fill="#000000">cmath</text>
</g>
<!-- Node0&#45;&gt;Node1 -->
<g id="edge1" class="edge">
<title>Node0&#45;&gt;Node1</title>
<path fill="none" stroke="#191970" d="M557.8824,-119.7992C449.4464,-113.8061 164.0146,-96.2794 126.5,-76 106.9874,-65.452 92.0598,-44.3988 83.0937,-28.8948"/>
<polygon fill="#191970" stroke="#191970" points="85.9295,-26.7837 78.0742,-19.6741 79.7814,-30.1305 85.9295,-26.7837"/>
</g>
<!-- Node2 -->
<g id="node3" class="node">
<title>Node2</title>
<polygon fill="#ffffff" stroke="#bfbfbf" points="381.5,-.5 381.5,-19.5 435.5,-19.5 435.5,-.5 381.5,-.5"/>
<text text-anchor="middle" x="408.5" y="-7.5" font-family="Helvetica,sans-Serif" font-size="10.00" fill="#000000">iostream</text>
</g>
<!-- Node0&#45;&gt;Node2 -->
<g id="edge2" class="edge">
<title>Node0&#45;&gt;Node2</title>
<path fill="none" stroke="#191970" d="M557.8915,-118.7787C503.5227,-113.6059 412.8289,-101.3424 392.5,-76 381.7105,-62.5496 388.4707,-42.9268 396.2502,-28.5739"/>
<polygon fill="#191970" stroke="#191970" points="399.4749,-30.0003 401.5957,-19.6199 393.4645,-26.4121 399.4749,-30.0003"/>
</g>
<!-- Node3 -->
<g id="node4" class="node">
<title>Node3</title>
<polygon fill="#ffffff" stroke="#bfbfbf" points="135.5,-56.5 135.5,-75.5 185.5,-75.5 185.5,-56.5 135.5,-56.5"/>
<text text-anchor="middle" x="160.5" y="-63.5" font-family="Helvetica,sans-Serif" font-size="10.00" fill="#000000">iomanip</text>
</g>
<!-- Node0&#45;&gt;Node3 -->
<g id="edge3" class="edge">
<title>Node0&#45;&gt;Node3</title>
<path fill="none" stroke="#191970" d="M557.735,-119.6453C485.5979,-115.0617 332.9632,-103.0938 195.4993,-75.9018"/>
<polygon fill="#191970" stroke="#191970" points="196.1231,-72.4573 185.6294,-73.9176 194.7434,-79.32 196.1231,-72.4573"/>
</g>
<!-- Node4 -->
<g id="node5" class="node">
<title>Node4</title>
<polygon fill="#ffffff" stroke="#bfbfbf" points="203.5,-56.5 203.5,-75.5 247.5,-75.5 247.5,-56.5 203.5,-56.5"/>
<text text-anchor="middle" x="225.5" y="-63.5" font-family="Helvetica,sans-Serif" font-size="10.00" fill="#000000">vector</text>
</g>
<!-- Node0&#45;&gt;Node4 -->
<g id="edge4" class="edge">
<title>Node0&#45;&gt;Node4</title>
<path fill="none" stroke="#191970" d="M557.8934,-118.8352C494.7707,-113.5094 371.0011,-101.0159 257.6056,-75.9193"/>
<polygon fill="#191970" stroke="#191970" points="258.2435,-72.4754 247.7188,-73.6927 256.7055,-79.3043 258.2435,-72.4754"/>
</g>
<!-- Node5 -->
<g id="node6" class="node">
<title>Node5</title>
<g id="a_node6"><a xlink:href="proteus__blas_8h.html" target="_top" xlink:title="proteus_blas.h">
<polygon fill="#ffffff" stroke="#000000" points="265.5,-56.5 265.5,-75.5 345.5,-75.5 345.5,-56.5 265.5,-56.5"/>
<text text-anchor="middle" x="305.5" y="-63.5" font-family="Helvetica,sans-Serif" font-size="10.00" fill="#000000">proteus_blas.h</text>
</a>
</g>
</g>
<!-- Node0&#45;&gt;Node5 -->
<g id="edge5" class="edge">
<title>Node0&#45;&gt;Node5</title>
<path fill="none" stroke="#191970" d="M557.6892,-114.036C504.4486,-103.895 412.5494,-86.3904 355.6126,-75.5453"/>
<polygon fill="#191970" stroke="#191970" points="356.2293,-72.0999 345.751,-73.6669 354.9195,-78.9762 356.2293,-72.0999"/>
</g>
<!-- Node6 -->
<g id="node7" class="node">
<title>Node6</title>
<g id="a_node7"><a xlink:href="_comp_kernel_8h.html" target="_top" xlink:title="CompKernel.h">
<polygon fill="#ffffff" stroke="#000000" points="0,-56.5 0,-75.5 79,-75.5 79,-56.5 0,-56.5"/>
<text text-anchor="middle" x="39.5" y="-63.5" font-family="Helvetica,sans-Serif" font-size="10.00" fill="#000000">CompKernel.h</text>
</a>
</g>
</g>
<!-- Node0&#45;&gt;Node6 -->
<g id="edge6" class="edge">
<title>Node0&#45;&gt;Node6</title>
<path fill="none" stroke="#191970" d="M557.7001,-119.5127C470.9169,-114.0601 264.9918,-99.6224 93.5,-76 92.1983,-75.8207 90.8803,-75.6317 89.5515,-75.4346"/>
<polygon fill="#191970" stroke="#191970" points="89.6707,-71.9095 79.2443,-73.7907 88.5682,-78.8221 89.6707,-71.9095"/>
</g>
<!-- Node7 -->
<g id="node8" class="node">
<title>Node7</title>
<g id="a_node8"><a xlink:href="_model_factory_8h.html" target="_top" xlink:title="ModelFactory.h">
<polygon fill="#ffffff" stroke="#000000" points="401.5,-56.5 401.5,-75.5 485.5,-75.5 485.5,-56.5 401.5,-56.5"/>
<text text-anchor="middle" x="443.5" y="-63.5" font-family="Helvetica,sans-Serif" font-size="10.00" fill="#000000">ModelFactory.h</text>
</a>
</g>
</g>
<!-- Node0&#45;&gt;Node7 -->
<g id="edge8" class="edge">
<title>Node0&#45;&gt;Node7</title>
<path fill="none" stroke="#191970" d="M572.6826,-112.3733C546.9668,-103.1419 507.962,-89.1402 479.5401,-78.9375"/>
<polygon fill="#191970" stroke="#191970" points="480.5619,-75.5857 469.9674,-75.5011 478.1968,-82.174 480.5619,-75.5857"/>
</g>
<!-- Node8 -->
<g id="node9" class="node">
<title>Node8</title>
<g id="a_node9"><a xlink:href="mohr_coulomb_8h.html" target="_top" xlink:title="mohrCoulomb.h">
<polygon fill="#ffffff" stroke="#000000" points="503.5,-56.5 503.5,-75.5 589.5,-75.5 589.5,-56.5 503.5,-56.5"/>
<text text-anchor="middle" x="546.5" y="-63.5" font-family="Helvetica,sans-Serif" font-size="10.00" fill="#000000">mohrCoulomb.h</text>
</a>
</g>
</g>
<!-- Node0&#45;&gt;Node8 -->
<g id="edge10" class="edge">
<title>Node0&#45;&gt;Node8</title>
<path fill="none" stroke="#191970" d="M590.2681,-112.2455C582.6683,-104.2155 571.7123,-92.6394 562.6632,-83.0781"/>
<polygon fill="#191970" stroke="#191970" points="565.042,-80.4998 555.6261,-75.6427 559.9579,-85.3115 565.042,-80.4998"/>
</g>
<!-- Node9 -->
<g id="node10" class="node">
<title>Node9</title>
<g id="a_node10"><a xlink:href="mohr_coulomb2_8h.html" target="_top" xlink:title="mohrCoulomb2.h">
<polygon fill="#ffffff" stroke="#000000" points="608,-56.5 608,-75.5 699,-75.5 699,-56.5 608,-56.5"/>
<text text-anchor="middle" x="653.5" y="-63.5" font-family="Helvetica,sans-Serif" font-size="10.00" fill="#000000">mohrCoulomb2.h</text>
</a>
</g>
</g>
<!-- Node0&#45;&gt;Node9 -->
<g id="edge11" class="edge">
<title>Node0&#45;&gt;Node9</title>
<path fill="none" stroke="#191970" d="M608.9061,-112.2455C616.6493,-104.2155 627.812,-92.6394 637.0318,-83.0781"/>
<polygon fill="#191970" stroke="#191970" points="639.7798,-85.2706 644.2017,-75.6427 634.7409,-80.4117 639.7798,-85.2706"/>
</g>
<!-- Node10 -->
<g id="node11" class="node">
<title>Node10</title>
<g id="a_node11"><a xlink:href="von_mises_8h.html" target="_top" xlink:title="vonMises.h">
<polygon fill="#ffffff" stroke="#000000" points="717,-56.5 717,-75.5 784,-75.5 784,-56.5 717,-56.5"/>
<text text-anchor="middle" x="750.5" y="-63.5" font-family="Helvetica,sans-Serif" font-size="10.00" fill="#000000">vonMises.h</text>
</a>
</g>
</g>
<!-- Node0&#45;&gt;Node10 -->
<g id="edge12" class="edge">
<title>Node0&#45;&gt;Node10</title>
<path fill="none" stroke="#191970" d="M625.4578,-112.3733C650.2407,-103.1822 687.7746,-89.2624 715.254,-79.0713"/>
<polygon fill="#191970" stroke="#191970" points="716.7219,-82.26 724.8809,-75.5011 714.2879,-75.6968 716.7219,-82.26"/>
</g>
<!-- Node11 -->
<g id="node12" class="node">
<title>Node11</title>
<g id="a_node12"><a xlink:href="tresca_8h.html" target="_top" xlink:title="tresca.h">
<polygon fill="#ffffff" stroke="#000000" points="802.5,-56.5 802.5,-75.5 854.5,-75.5 854.5,-56.5 802.5,-56.5"/>
<text text-anchor="middle" x="828.5" y="-63.5" font-family="Helvetica,sans-Serif" font-size="10.00" fill="#000000">tresca.h</text>
</a>
</g>
</g>
<!-- Node0&#45;&gt;Node11 -->
<g id="edge13" class="edge">
<title>Node0&#45;&gt;Node11</title>
<path fill="none" stroke="#191970" d="M641.0228,-112.5708C680.1821,-103.5678 740.4684,-89.4224 792.5,-76 792.5981,-75.9747 792.6964,-75.9493 792.7948,-75.9239"/>
<polygon fill="#191970" stroke="#191970" points="793.4172,-79.38 802.1841,-73.4308 791.6208,-72.6144 793.4172,-79.38"/>
</g>
<!-- Node12 -->
<g id="node13" class="node">
<title>Node12</title>
<g id="a_node13"><a xlink:href="drucker_prager_8h.html" target="_top" xlink:title="druckerPrager.h">
<polygon fill="#ffffff" stroke="#000000" points="872.5,-56.5 872.5,-75.5 958.5,-75.5 958.5,-56.5 872.5,-56.5"/>
<text text-anchor="middle" x="915.5" y="-63.5" font-family="Helvetica,sans-Serif" font-size="10.00" fill="#000000">druckerPrager.h</text>
</a>
</g>
</g>
<!-- Node0&#45;&gt;Node12 -->
<g id="edge14" class="edge">
<title>Node0&#45;&gt;Node12</title>
<path fill="none" stroke="#191970" d="M641.1494,-114.9742C691.2253,-106.4758 778.0828,-91.5727 862.382,-76.1823"/>
<polygon fill="#191970" stroke="#191970" points="863.1742,-79.5955 872.3807,-74.3523 861.9139,-72.7099 863.1742,-79.5955"/>
</g>
<!-- Node13 -->
<g id="node14" class="node">
<title>Node13</title>
<g id="a_node14"><a xlink:href="mcdp_8h.html" target="_top" xlink:title="mcdp.h">
<polygon fill="#ffffff" stroke="#000000" points="977,-56.5 977,-75.5 1026,-75.5 1026,-56.5 977,-56.5"/>
<text text-anchor="middle" x="1001.5" y="-63.5" font-family="Helvetica,sans-Serif" font-size="10.00" fill="#000000">mcdp.h</text>
</a>
</g>
</g>
<!-- Node0&#45;&gt;Node13 -->
<g id="edge15" class="edge">
<title>Node0&#45;&gt;Node13</title>
<path fill="none" stroke="#191970" d="M641.2515,-118.9927C708.0659,-113.7004 843.2003,-101.0288 966.7265,-75.8593"/>
<polygon fill="#191970" stroke="#191970" points="967.6525,-79.2419 976.7351,-73.7869 966.2331,-72.3873 967.6525,-79.2419"/>
</g>
<!-- Node14 -->
<g id="node15" class="node">
<title>Node14</title>
<g id="a_node15"><a xlink:href="_arguments_dict_8h.html" target="_top" xlink:title="../mprans/ArgumentsDict.h">
<polygon fill="#ffffff" stroke="#000000" points="1044.5,-56.5 1044.5,-75.5 1178.5,-75.5 1178.5,-56.5 1044.5,-56.5"/>
<text text-anchor="middle" x="1111.5" y="-63.5" font-family="Helvetica,sans-Serif" font-size="10.00" fill="#000000">../mprans/ArgumentsDict.h</text>
</a>
</g>
</g>
<!-- Node0&#45;&gt;Node14 -->
<g id="edge16" class="edge">
<title>Node0&#45;&gt;Node14</title>
<path fill="none" stroke="#191970" d="M641.0199,-117.9783C716.8449,-110.5558 883.0674,-93.9247 1033.9968,-76.1541"/>
<polygon fill="#191970" stroke="#191970" points="1034.855,-79.5771 1044.375,-74.9274 1034.0332,-72.6255 1034.855,-79.5771"/>
</g>
<!-- Node18 -->
<g id="node19" class="node">
<title>Node18</title>
<polygon fill="#ffffff" stroke="#bfbfbf" points="1184,-.5 1184,-19.5 1319,-19.5 1319,-.5 1184,-.5"/>
<text text-anchor="middle" x="1251.5" y="-7.5" font-family="Helvetica,sans-Serif" font-size="10.00" fill="#000000">xtensor&#45;python/pyarray.hpp</text>
</g>
<!-- Node0&#45;&gt;Node18 -->
<g id="edge22" class="edge">
<title>Node0&#45;&gt;Node18</title>
<path fill="none" stroke="#191970" d="M641.2868,-120.4365C767.3721,-115.4827 1138.3864,-99.0874 1187.5,-76 1209.7175,-65.556 1228.3409,-43.8363 1239.6687,-28.1608"/>
<polygon fill="#191970" stroke="#191970" points="1242.6667,-29.9786 1245.4672,-19.7606 1236.9059,-26.002 1242.6667,-29.9786"/>
</g>
<!-- Node20 -->
<g id="node21" class="node">
<title>Node20</title>
<polygon fill="#ffffff" stroke="#bfbfbf" points="1234.5,-56.5 1234.5,-75.5 1340.5,-75.5 1340.5,-56.5 1234.5,-56.5"/>
<text text-anchor="middle" x="1287.5" y="-63.5" font-family="Helvetica,sans-Serif" font-size="10.00" fill="#000000">pybind11/pybind11.h</text>
</g>
<!-- Node0&#45;&gt;Node20 -->
<g id="edge23" class="edge">
<title>Node0&#45;&gt;Node20</title>
<path fill="none" stroke="#191970" d="M641.089,-119.3244C761.2555,-111.5293 1107.5516,-88.5947 1220.5,-76 1221.6104,-75.8762 1222.7306,-75.7478 1223.8585,-75.6153"/>
<polygon fill="#191970" stroke="#191970" points="1224.6651,-79.0418 1234.153,-74.3269 1223.7958,-72.0959 1224.6651,-79.0418"/>
</g>
<!-- Node6&#45;&gt;Node1 -->
<g id="edge7" class="edge">
<title>Node6&#45;&gt;Node1</title>
<path fill="none" stroke="#191970" d="M45.4223,-56.2455C50.1027,-48.5367 56.7673,-37.5598 62.4289,-28.2348"/>
<polygon fill="#191970" stroke="#191970" points="65.4475,-30.007 67.6455,-19.6427 59.4639,-26.3741 65.4475,-30.007"/>
</g>
<!-- Node7&#45;&gt;Node2 -->
<g id="edge9" class="edge">
<title>Node7&#45;&gt;Node2</title>
<path fill="none" stroke="#191970" d="M437.4035,-56.2455C432.5855,-48.5367 425.7249,-37.5598 419.8968,-28.2348"/>
<polygon fill="#191970" stroke="#191970" points="422.7947,-26.2677 414.5267,-19.6427 416.8587,-29.9777 422.7947,-26.2677"/>
</g>
<!-- Node15 -->
<g id="node16" class="node">
<title>Node15</title>
<polygon fill="#ffffff" stroke="#bfbfbf" points="995,-.5 995,-19.5 1030,-19.5 1030,-.5 995,-.5"/>
<text text-anchor="middle" x="1012.5" y="-7.5" font-family="Helvetica,sans-Serif" font-size="10.00" fill="#000000">map</text>
</g>
<!-- Node14&#45;&gt;Node15 -->
<g id="edge17" class="edge">
<title>Node14&#45;&gt;Node15</title>
<path fill="none" stroke="#191970" d="M1094.2555,-56.2455C1078.9239,-47.5731 1056.2801,-34.7645 1038.7084,-24.825"/>
<polygon fill="#191970" stroke="#191970" points="1039.9741,-21.5198 1029.5469,-19.6427 1036.5276,-27.6126 1039.9741,-21.5198"/>
</g>
<!-- Node16 -->
<g id="node17" class="node">
<title>Node16</title>
<polygon fill="#ffffff" stroke="#bfbfbf" points="1048,-.5 1048,-19.5 1107,-19.5 1107,-.5 1048,-.5"/>
<text text-anchor="middle" x="1077.5" y="-7.5" font-family="Helvetica,sans-Serif" font-size="10.00" fill="#000000">stdexcept</text>
</g>
<!-- Node14&#45;&gt;Node16 -->
<g id="edge18" class="edge">
<title>Node14&#45;&gt;Node16</title>
<path fill="none" stroke="#191970" d="M1105.5777,-56.2455C1100.8973,-48.5367 1094.2327,-37.5598 1088.5711,-28.2348"/>
<polygon fill="#191970" stroke="#191970" points="1091.5361,-26.3741 1083.3545,-19.6427 1085.5525,-30.007 1091.5361,-26.3741"/>
</g>
<!-- Node17 -->
<g id="node18" class="node">
<title>Node17</title>
<polygon fill="#ffffff" stroke="#bfbfbf" points="1125,-.5 1125,-19.5 1166,-19.5 1166,-.5 1125,-.5"/>
<text text-anchor="middle" x="1145.5" y="-7.5" font-family="Helvetica,sans-Serif" font-size="10.00" fill="#000000">string</text>
</g>
<!-- Node14&#45;&gt;Node17 -->
<g id="edge19" class="edge">
<title>Node14&#45;&gt;Node17</title>
<path fill="none" stroke="#191970" d="M1117.4223,-56.2455C1122.1027,-48.5367 1128.7673,-37.5598 1134.4289,-28.2348"/>
<polygon fill="#191970" stroke="#191970" points="1137.4475,-30.007 1139.6455,-19.6427 1131.4639,-26.3741 1137.4475,-30.007"/>
</g>
<!-- Node14&#45;&gt;Node18 -->
<g id="edge20" class="edge">
<title>Node14&#45;&gt;Node18</title>
<path fill="none" stroke="#191970" d="M1135.5669,-56.3733C1158.3428,-47.2629 1192.7344,-33.5062 1218.149,-23.3404"/>
<polygon fill="#191970" stroke="#191970" points="1219.7623,-26.4648 1227.7472,-19.5011 1217.1625,-19.9654 1219.7623,-26.4648"/>
</g>
<!-- Node19 -->
<g id="node20" class="node">
<title>Node19</title>
<polygon fill="#ffffff" stroke="#bfbfbf" points="894,-.5 894,-19.5 977,-19.5 977,-.5 894,-.5"/>
<text text-anchor="middle" x="935.5" y="-7.5" font-family="Helvetica,sans-Serif" font-size="10.00" fill="#000000">xtensor/xio.hpp</text>
</g>
<!-- Node14&#45;&gt;Node19 -->
<g id="edge21" class="edge">
<title>Node14&#45;&gt;Node19</title>
<path fill="none" stroke="#191970" d="M1081.2445,-56.3733C1051.8517,-47.021 1007.0708,-32.7725 974.9066,-22.5385"/>
<polygon fill="#191970" stroke="#191970" points="975.9512,-19.198 965.3607,-19.5011 973.8287,-25.8685 975.9512,-19.198"/>
</g>
</g>
</svg>
