<?xml version="1.0" encoding="UTF-8" standalone="no"?>
<!DOCTYPE svg PUBLIC "-//W3C//DTD SVG 1.1//EN"
 "http://www.w3.org/Graphics/SVG/1.1/DTD/svg11.dtd">
<!-- Generated by graphviz version 2.43.0 (0)
 -->
<!-- Title: ElastoPlastic.h Pages: 1 -->
<svg width="1442pt" height="140pt"
 viewBox="0.00 0.00 1442.00 140.00" xmlns="http://www.w3.org/2000/svg" xmlns:xlink="http://www.w3.org/1999/xlink">
<g id="graph0" class="graph" transform="scale(1 1) rotate(0) translate(4 136)">
<title>ElastoPlastic.h</title>
<polygon fill="white" stroke="transparent" points="-4,4 -4,-136 1438,-136 1438,4 -4,4"/>
<!-- Node1 -->
<g id="node1" class="node">
<title>Node1</title>
<g id="a_node1"><a xlink:title=" ">
<polygon fill="#bfbfbf" stroke="black" points="594.5,-112.5 594.5,-131.5 682.5,-131.5 682.5,-112.5 594.5,-112.5"/>
<text text-anchor="middle" x="638.5" y="-119.5" font-family="Helvetica,sans-Serif" font-size="10.00">ElastoPlastic.h</text>
</a>
</g>
</g>
<!-- Node2 -->
<g id="node2" class="node">
<title>Node2</title>
<g id="a_node2"><a xlink:title=" ">
<polygon fill="white" stroke="#bfbfbf" points="55,-0.5 55,-19.5 102,-19.5 102,-0.5 55,-0.5"/>
<text text-anchor="middle" x="78.5" y="-7.5" font-family="Helvetica,sans-Serif" font-size="10.00">cmath</text>
</a>
</g>
</g>
<!-- Node1&#45;&gt;Node2 -->
<g id="edge1" class="edge">
<title>Node1&#45;&gt;Node2</title>
<path fill="none" stroke="midnightblue" d="M594.21,-121.36C486.18,-121.55 212.16,-117.79 132.5,-76 112.46,-65.49 96.97,-44.05 87.82,-28.67"/>
<polygon fill="midnightblue" stroke="midnightblue" points="90.68,-26.62 82.74,-19.61 84.58,-30.04 90.68,-26.62"/>
</g>
<!-- Node3 -->
<g id="node3" class="node">
<title>Node3</title>
<g id="a_node3"><a xlink:title=" ">
<polygon fill="white" stroke="#bfbfbf" points="403.5,-0.5 403.5,-19.5 463.5,-19.5 463.5,-0.5 403.5,-0.5"/>
<text text-anchor="middle" x="433.5" y="-7.5" font-family="Helvetica,sans-Serif" font-size="10.00">iostream</text>
</a>
</g>
</g>
<!-- Node1&#45;&gt;Node3 -->
<g id="edge2" class="edge">
<title>Node1&#45;&gt;Node3</title>
<path fill="none" stroke="midnightblue" d="M594.42,-118.49C536.22,-114.14 438.53,-102.94 416.5,-76 405.46,-62.5 413.11,-42.6 421.39,-28.38"/>
<polygon fill="midnightblue" stroke="midnightblue" points="424.57,-29.9 427,-19.59 418.67,-26.14 424.57,-29.9"/>
</g>
<!-- Node4 -->
<g id="node4" class="node">
<title>Node4</title>
<g id="a_node4"><a xlink:title=" ">
<polygon fill="white" stroke="#bfbfbf" points="141.5,-56.5 141.5,-75.5 197.5,-75.5 197.5,-56.5 141.5,-56.5"/>
<text text-anchor="middle" x="169.5" y="-63.5" font-family="Helvetica,sans-Serif" font-size="10.00">iomanip</text>
</a>
</g>
</g>
<!-- Node1&#45;&gt;Node4 -->
<g id="edge3" class="edge">
<title>Node1&#45;&gt;Node4</title>
<path fill="none" stroke="midnightblue" d="M594.39,-118.38C517.68,-113.39 354.66,-100.89 207.8,-76.01"/>
<polygon fill="midnightblue" stroke="midnightblue" points="208.15,-72.52 197.7,-74.27 206.96,-79.42 208.15,-72.52"/>
</g>
<!-- Node5 -->
<g id="node5" class="node">
<title>Node5</title>
<g id="a_node5"><a xlink:title=" ">
<polygon fill="white" stroke="#bfbfbf" points="216,-56.5 216,-75.5 263,-75.5 263,-56.5 216,-56.5"/>
<text text-anchor="middle" x="239.5" y="-63.5" font-family="Helvetica,sans-Serif" font-size="10.00">vector</text>
</a>
</g>
</g>
<!-- Node1&#45;&gt;Node5 -->
<g id="edge4" class="edge">
<title>Node1&#45;&gt;Node5</title>
<path fill="none" stroke="midnightblue" d="M594.23,-117.63C526.91,-112.05 394.66,-99.31 273.05,-75.83"/>
<polygon fill="midnightblue" stroke="midnightblue" points="273.68,-72.39 263.2,-73.9 272.34,-79.26 273.68,-72.39"/>
</g>
<!-- Node6 -->
<g id="node6" class="node">
<title>Node6</title>
<g id="a_node6"><a xlink:href="proteus__blas_8h.html" target="_top" xlink:title=" ">
<polygon fill="white" stroke="black" points="281.5,-56.5 281.5,-75.5 369.5,-75.5 369.5,-56.5 281.5,-56.5"/>
<text text-anchor="middle" x="325.5" y="-63.5" font-family="Helvetica,sans-Serif" font-size="10.00">proteus_blas.h</text>
</a>
</g>
</g>
<!-- Node1&#45;&gt;Node6 -->
<g id="edge5" class="edge">
<title>Node1&#45;&gt;Node6</title>
<path fill="none" stroke="midnightblue" d="M594.32,-113.38C538.01,-103.66 440.69,-86.87 379.88,-76.38"/>
<polygon fill="midnightblue" stroke="midnightblue" points="380.16,-72.88 369.71,-74.63 378.97,-79.78 380.16,-72.88"/>
</g>
<!-- Node7 -->
<g id="node7" class="node">
<title>Node7</title>
<g id="a_node7"><a xlink:href="_comp_kernel_8h.html" target="_top" xlink:title=" ">
<polygon fill="white" stroke="black" points="0,-56.5 0,-75.5 85,-75.5 85,-56.5 0,-56.5"/>
<text text-anchor="middle" x="42.5" y="-63.5" font-family="Helvetica,sans-Serif" font-size="10.00">CompKernel.h</text>
</a>
</g>
</g>
<!-- Node1&#45;&gt;Node7 -->
<g id="edge6" class="edge">
<title>Node1&#45;&gt;Node7</title>
<path fill="none" stroke="midnightblue" d="M594.37,-118.42C502.22,-112.78 282.69,-98.08 99.5,-76 98.04,-75.82 96.56,-75.64 95.06,-75.45"/>
<polygon fill="midnightblue" stroke="midnightblue" points="95.48,-71.97 85.09,-74.07 94.52,-78.9 95.48,-71.97"/>
</g>
<!-- Node8 -->
<g id="node8" class="node">
<title>Node8</title>
<g id="a_node8"><a xlink:href="_model_factory_8h.html" target="_top" xlink:title=" ">
<polygon fill="white" stroke="black" points="426,-56.5 426,-75.5 515,-75.5 515,-56.5 426,-56.5"/>
<text text-anchor="middle" x="470.5" y="-63.5" font-family="Helvetica,sans-Serif" font-size="10.00">ModelFactory.h</text>
</a>
</g>
</g>
<!-- Node1&#45;&gt;Node8 -->
<g id="edge8" class="edge">
<title>Node1&#45;&gt;Node8</title>
<path fill="none" stroke="midnightblue" d="M611.88,-112.44C583.49,-103.32 538.36,-88.81 506.75,-78.65"/>
<polygon fill="midnightblue" stroke="midnightblue" points="507.59,-75.24 497,-75.52 505.44,-81.91 507.59,-75.24"/>
</g>
<!-- Node9 -->
<g id="node9" class="node">
<title>Node9</title>
<g id="a_node9"><a xlink:href="mohr_coulomb_8h.html" target="_top" xlink:title=" ">
<polygon fill="white" stroke="black" points="533,-56.5 533,-75.5 628,-75.5 628,-56.5 533,-56.5"/>
<text text-anchor="middle" x="580.5" y="-63.5" font-family="Helvetica,sans-Serif" font-size="10.00">mohrCoulomb.h</text>
</a>
</g>
</g>
<!-- Node1&#45;&gt;Node9 -->
<g id="edge10" class="edge">
<title>Node1&#45;&gt;Node9</title>
<path fill="none" stroke="midnightblue" d="M629.18,-112.32C620.61,-104.34 607.69,-92.31 597.31,-82.65"/>
<polygon fill="midnightblue" stroke="midnightblue" points="599.69,-80.09 589.99,-75.83 594.92,-85.21 599.69,-80.09"/>
</g>
<!-- Node10 -->
<g id="node10" class="node">
<title>Node10</title>
<g id="a_node10"><a xlink:href="mohr_coulomb2_8h.html" target="_top" xlink:title=" ">
<polygon fill="white" stroke="black" points="646,-56.5 646,-75.5 747,-75.5 747,-56.5 646,-56.5"/>
<text text-anchor="middle" x="696.5" y="-63.5" font-family="Helvetica,sans-Serif" font-size="10.00">mohrCoulomb2.h</text>
</a>
</g>
</g>
<!-- Node1&#45;&gt;Node10 -->
<g id="edge11" class="edge">
<title>Node1&#45;&gt;Node10</title>
<path fill="none" stroke="midnightblue" d="M647.82,-112.32C656.39,-104.34 669.31,-92.31 679.69,-82.65"/>
<polygon fill="midnightblue" stroke="midnightblue" points="682.08,-85.21 687.01,-75.83 677.31,-80.09 682.08,-85.21"/>
</g>
<!-- Node11 -->
<g id="node11" class="node">
<title>Node11</title>
<g id="a_node11"><a xlink:href="von_mises_8h.html" target="_top" xlink:title=" ">
<polygon fill="white" stroke="black" points="765.5,-56.5 765.5,-75.5 837.5,-75.5 837.5,-56.5 765.5,-56.5"/>
<text text-anchor="middle" x="801.5" y="-63.5" font-family="Helvetica,sans-Serif" font-size="10.00">vonMises.h</text>
</a>
</g>
</g>
<!-- Node1&#45;&gt;Node11 -->
<g id="edge12" class="edge">
<title>Node1&#45;&gt;Node11</title>
<path fill="none" stroke="midnightblue" d="M664.33,-112.44C691.75,-103.36 735.28,-88.94 765.93,-78.78"/>
<polygon fill="midnightblue" stroke="midnightblue" points="767.4,-81.98 775.79,-75.52 765.2,-75.34 767.4,-81.98"/>
</g>
<!-- Node12 -->
<g id="node12" class="node">
<title>Node12</title>
<g id="a_node12"><a xlink:href="tresca_8h.html" target="_top" xlink:title=" ">
<polygon fill="white" stroke="black" points="855.5,-56.5 855.5,-75.5 911.5,-75.5 911.5,-56.5 855.5,-56.5"/>
<text text-anchor="middle" x="883.5" y="-63.5" font-family="Helvetica,sans-Serif" font-size="10.00">tresca.h</text>
</a>
</g>
</g>
<!-- Node1&#45;&gt;Node12 -->
<g id="edge13" class="edge">
<title>Node1&#45;&gt;Node12</title>
<path fill="none" stroke="midnightblue" d="M679.61,-112.43C719.49,-104.04 781.96,-90.72 845.1,-76.28"/>
<polygon fill="midnightblue" stroke="midnightblue" points="846.27,-79.6 855.24,-73.95 844.71,-72.78 846.27,-79.6"/>
</g>
<!-- Node13 -->
<g id="node13" class="node">
<title>Node13</title>
<g id="a_node13"><a xlink:href="drucker_prager_8h.html" target="_top" xlink:title=" ">
<polygon fill="white" stroke="black" points="929.5,-56.5 929.5,-75.5 1021.5,-75.5 1021.5,-56.5 929.5,-56.5"/>
<text text-anchor="middle" x="975.5" y="-63.5" font-family="Helvetica,sans-Serif" font-size="10.00">druckerPrager.h</text>
</a>
</g>
</g>
<!-- Node1&#45;&gt;Node13 -->
<g id="edge14" class="edge">
<title>Node1&#45;&gt;Node13</title>
<path fill="none" stroke="midnightblue" d="M682.96,-113.96C736.52,-105.47 829.53,-90.68 919.22,-76.2"/>
<polygon fill="midnightblue" stroke="midnightblue" points="919.97,-79.63 929.29,-74.58 918.86,-72.72 919.97,-79.63"/>
</g>
<!-- Node14 -->
<g id="node14" class="node">
<title>Node14</title>
<g id="a_node14"><a xlink:href="mcdp_8h.html" target="_top" xlink:title=" ">
<polygon fill="white" stroke="black" points="1040,-56.5 1040,-75.5 1093,-75.5 1093,-56.5 1040,-56.5"/>
<text text-anchor="middle" x="1066.5" y="-63.5" font-family="Helvetica,sans-Serif" font-size="10.00">mcdp.h</text>
</a>
</g>
</g>
<!-- Node1&#45;&gt;Node14 -->
<g id="edge15" class="edge">
<title>Node1&#45;&gt;Node14</title>
<path fill="none" stroke="midnightblue" d="M682.57,-117.83C753.63,-112.31 898.03,-99.39 1029.97,-75.86"/>
<polygon fill="midnightblue" stroke="midnightblue" points="1030.63,-79.3 1039.85,-74.08 1029.38,-72.41 1030.63,-79.3"/>
</g>
<!-- Node15 -->
<g id="node15" class="node">
<title>Node15</title>
<g id="a_node15"><a xlink:href="_arguments_dict_8h.html" target="_top" xlink:title=" ">
<polygon fill="white" stroke="black" points="1111,-56.5 1111,-75.5 1258,-75.5 1258,-56.5 1111,-56.5"/>
<text text-anchor="middle" x="1184.5" y="-63.5" font-family="Helvetica,sans-Serif" font-size="10.00">../mprans/ArgumentsDict.h</text>
</a>
</g>
</g>
<!-- Node1&#45;&gt;Node15 -->
<g id="edge16" class="edge">
<title>Node1&#45;&gt;Node15</title>
<path fill="none" stroke="midnightblue" d="M682.66,-116.9C763.48,-109.37 940.86,-92.64 1100.73,-76.17"/>
<polygon fill="midnightblue" stroke="midnightblue" points="1101.16,-79.65 1110.75,-75.14 1100.44,-72.68 1101.16,-79.65"/>
</g>
<!-- Node19 -->
<g id="node19" class="node">
<title>Node19</title>
<g id="a_node19"><a xlink:title=" ">
<polygon fill="white" stroke="#bfbfbf" points="1261,-0.5 1261,-19.5 1412,-19.5 1412,-0.5 1261,-0.5"/>
<text text-anchor="middle" x="1336.5" y="-7.5" font-family="Helvetica,sans-Serif" font-size="10.00">xtensor&#45;python/pyarray.hpp</text>
</a>
</g>
</g>
<!-- Node1&#45;&gt;Node19 -->
<g id="edge22" class="edge">
<title>Node1&#45;&gt;Node19</title>
<path fill="none" stroke="midnightblue" d="M682.82,-121.65C808.1,-122.88 1162.48,-122.08 1267.5,-76 1291.18,-65.61 1311.79,-43.48 1324.18,-27.94"/>
<polygon fill="midnightblue" stroke="midnightblue" points="1327.19,-29.76 1330.48,-19.69 1321.63,-25.51 1327.19,-29.76"/>
</g>
<!-- Node21 -->
<g id="node21" class="node">
<title>Node21</title>
<g id="a_node21"><a xlink:title=" ">
<polygon fill="white" stroke="#bfbfbf" points="1315,-56.5 1315,-75.5 1434,-75.5 1434,-56.5 1315,-56.5"/>
<text text-anchor="middle" x="1374.5" y="-63.5" font-family="Helvetica,sans-Serif" font-size="10.00">pybind11/pybind11.h</text>
</a>
</g>
</g>
<!-- Node1&#45;&gt;Node21 -->
<g id="edge23" class="edge">
<title>Node1&#45;&gt;Node21</title>
<path fill="none" stroke="midnightblue" d="M682.73,-118.81C789.22,-113.35 1068.27,-98 1300.5,-76 1301.8,-75.88 1303.12,-75.75 1304.45,-75.62"/>
<polygon fill="midnightblue" stroke="midnightblue" points="1305.17,-79.06 1314.76,-74.54 1304.45,-72.1 1305.17,-79.06"/>
</g>
<!-- Node7&#45;&gt;Node2 -->
<g id="edge7" class="edge">
<title>Node7&#45;&gt;Node2</title>
<path fill="none" stroke="midnightblue" d="M48.44,-56.08C53.48,-48.53 60.84,-37.49 67.01,-28.23"/>
<polygon fill="midnightblue" stroke="midnightblue" points="70.03,-30.01 72.67,-19.75 64.21,-26.13 70.03,-30.01"/>
</g>
<!-- Node8&#45;&gt;Node3 -->
<g id="edge9" class="edge">
<title>Node8&#45;&gt;Node3</title>
<path fill="none" stroke="midnightblue" d="M464.39,-56.08C459.22,-48.53 451.65,-37.49 445.31,-28.23"/>
<polygon fill="midnightblue" stroke="midnightblue" points="448.04,-26.02 439.5,-19.75 442.26,-29.98 448.04,-26.02"/>
</g>
<!-- Node16 -->
<g id="node16" class="node">
<title>Node16</title>
<g id="a_node16"><a xlink:title=" ">
<polygon fill="white" stroke="#bfbfbf" points="1058.5,-0.5 1058.5,-19.5 1096.5,-19.5 1096.5,-0.5 1058.5,-0.5"/>
<text text-anchor="middle" x="1077.5" y="-7.5" font-family="Helvetica,sans-Serif" font-size="10.00">map</text>
</a>
</g>
</g>
<!-- Node15&#45;&gt;Node16 -->
<g id="edge17" class="edge">
<title>Node15&#45;&gt;Node16</title>
<path fill="none" stroke="midnightblue" d="M1167.31,-56.32C1150.15,-47.66 1123.55,-34.24 1103.75,-24.25"/>
<polygon fill="midnightblue" stroke="midnightblue" points="1105.15,-21.04 1094.65,-19.65 1102,-27.28 1105.15,-21.04"/>
</g>
<!-- Node17 -->
<g id="node17" class="node">
<title>Node17</title>
<g id="a_node17"><a xlink:title=" ">
<polygon fill="white" stroke="#bfbfbf" points="1115,-0.5 1115,-19.5 1180,-19.5 1180,-0.5 1115,-0.5"/>
<text text-anchor="middle" x="1147.5" y="-7.5" font-family="Helvetica,sans-Serif" font-size="10.00">stdexcept</text>
</a>
</g>
</g>
<!-- Node15&#45;&gt;Node17 -->
<g id="edge18" class="edge">
<title>Node15&#45;&gt;Node17</title>
<path fill="none" stroke="midnightblue" d="M1178.39,-56.08C1173.22,-48.53 1165.65,-37.49 1159.31,-28.23"/>
<polygon fill="midnightblue" stroke="midnightblue" points="1162.04,-26.02 1153.5,-19.75 1156.26,-29.98 1162.04,-26.02"/>
</g>
<!-- Node18 -->
<g id="node18" class="node">
<title>Node18</title>
<g id="a_node18"><a xlink:title=" ">
<polygon fill="white" stroke="#bfbfbf" points="1198.5,-0.5 1198.5,-19.5 1242.5,-19.5 1242.5,-0.5 1198.5,-0.5"/>
<text text-anchor="middle" x="1220.5" y="-7.5" font-family="Helvetica,sans-Serif" font-size="10.00">string</text>
</a>
</g>
</g>
<!-- Node15&#45;&gt;Node18 -->
<g id="edge19" class="edge">
<title>Node15&#45;&gt;Node18</title>
<path fill="none" stroke="midnightblue" d="M1190.44,-56.08C1195.48,-48.53 1202.84,-37.49 1209.01,-28.23"/>
<polygon fill="midnightblue" stroke="midnightblue" points="1212.03,-30.01 1214.67,-19.75 1206.21,-26.13 1212.03,-30.01"/>
</g>
<!-- Node15&#45;&gt;Node19 -->
<g id="edge20" class="edge">
<title>Node15&#45;&gt;Node19</title>
<path fill="none" stroke="midnightblue" d="M1208.58,-56.44C1234.04,-47.4 1274.39,-33.06 1302.96,-22.92"/>
<polygon fill="midnightblue" stroke="midnightblue" points="1304.28,-26.16 1312.53,-19.52 1301.93,-19.57 1304.28,-26.16"/>
</g>
<!-- Node20 -->
<g id="node20" class="node">
<title>Node20</title>
<g id="a_node20"><a xlink:title=" ">
<polygon fill="white" stroke="#bfbfbf" points="948.5,-0.5 948.5,-19.5 1040.5,-19.5 1040.5,-0.5 948.5,-0.5"/>
<text text-anchor="middle" x="994.5" y="-7.5" font-family="Helvetica,sans-Serif" font-size="10.00">xtensor/xio.hpp</text>
</a>
</g>
</g>
<!-- Node15&#45;&gt;Node20 -->
<g id="edge21" class="edge">
<title>Node15&#45;&gt;Node20</title>
<path fill="none" stroke="midnightblue" d="M1154.39,-56.44C1121.87,-47.2 1069.92,-32.44 1034.11,-22.26"/>
<polygon fill="midnightblue" stroke="midnightblue" points="1035.04,-18.88 1024.47,-19.52 1033.13,-25.62 1035.04,-18.88"/>
</g>
</g>
</svg>
