<?xml version="1.0" encoding="UTF-8" standalone="no"?>
<!DOCTYPE svg PUBLIC "-//W3C//DTD SVG 1.1//EN"
 "http://www.w3.org/Graphics/SVG/1.1/DTD/svg11.dtd">
<!-- Generated by graphviz version 2.50.0 (20211204.2007)
 -->
<!-- Title: ElastoPlastic.h Pages: 1 -->
<svg width="1348pt" height="140pt"
 viewBox="0.00 0.00 1347.50 140.00" xmlns="http://www.w3.org/2000/svg" xmlns:xlink="http://www.w3.org/1999/xlink">
<g id="graph0" class="graph" transform="scale(1 1) rotate(0) translate(4 136)">
<title>ElastoPlastic.h</title>
<polygon fill="white" stroke="transparent" points="-4,4 -4,-136 1343.5,-136 1343.5,4 -4,4"/>
<!-- Node1 -->
<g id="node1" class="node">
<title>Node1</title>
<g id="a_node1"><a xlink:title=" ">
<polygon fill="#bfbfbf" stroke="black" points="558,-112.5 558,-131.5 641,-131.5 641,-112.5 558,-112.5"/>
<text text-anchor="middle" x="599.5" y="-119.5" font-family="Helvetica,sans-Serif" font-size="10.00">ElastoPlastic.h</text>
</a>
</g>
</g>
<!-- Node2 -->
<g id="node2" class="node">
<title>Node2</title>
<g id="a_node2"><a xlink:title=" ">
<polygon fill="white" stroke="#bfbfbf" points="51.5,-0.5 51.5,-19.5 95.5,-19.5 95.5,-0.5 51.5,-0.5"/>
<text text-anchor="middle" x="73.5" y="-7.5" font-family="Helvetica,sans-Serif" font-size="10.00">cmath</text>
</a>
</g>
</g>
<!-- Node1&#45;&gt;Node2 -->
<g id="edge1" class="edge">
<title>Node1&#45;&gt;Node2</title>
<path fill="none" stroke="midnightblue" d="M557.69,-121.09C456.38,-120.67 200.62,-115.61 126.5,-76 106.7,-65.42 91.52,-44 82.58,-28.63"/>
<polygon fill="midnightblue" stroke="midnightblue" points="85.5,-26.68 77.62,-19.59 79.36,-30.04 85.5,-26.68"/>
</g>
<!-- Node3 -->
<g id="node3" class="node">
<title>Node3</title>
<g id="a_node3"><a xlink:title=" ">
<polygon fill="white" stroke="#bfbfbf" points="381.5,-0.5 381.5,-19.5 435.5,-19.5 435.5,-0.5 381.5,-0.5"/>
<text text-anchor="middle" x="408.5" y="-7.5" font-family="Helvetica,sans-Serif" font-size="10.00">iostream</text>
</a>
</g>
</g>
<!-- Node1&#45;&gt;Node3 -->
<g id="edge2" class="edge">
<title>Node1&#45;&gt;Node3</title>
<path fill="none" stroke="midnightblue" d="M557.9,-117.99C503.55,-113.09 412.87,-101.27 392.5,-76 381.6,-62.47 388.89,-42.58 396.84,-28.36"/>
<polygon fill="midnightblue" stroke="midnightblue" points="399.98,-29.93 402.23,-19.58 394.01,-26.27 399.98,-29.93"/>
</g>
<!-- Node4 -->
<g id="node4" class="node">
<title>Node4</title>
<g id="a_node4"><a xlink:title=" ">
<polygon fill="white" stroke="#bfbfbf" points="135.5,-56.5 135.5,-75.5 185.5,-75.5 185.5,-56.5 135.5,-56.5"/>
<text text-anchor="middle" x="160.5" y="-63.5" font-family="Helvetica,sans-Serif" font-size="10.00">iomanip</text>
</a>
</g>
</g>
<!-- Node1&#45;&gt;Node4 -->
<g id="edge3" class="edge">
<title>Node1&#45;&gt;Node4</title>
<path fill="none" stroke="midnightblue" d="M557.81,-118.41C485.78,-113.5 333.3,-101.15 195.55,-75.94"/>
<polygon fill="midnightblue" stroke="midnightblue" points="196.13,-72.49 185.66,-74.1 194.85,-79.37 196.13,-72.49"/>
</g>
<!-- Node5 -->
<g id="node5" class="node">
<title>Node5</title>
<g id="a_node5"><a xlink:title=" ">
<polygon fill="white" stroke="#bfbfbf" points="203.5,-56.5 203.5,-75.5 247.5,-75.5 247.5,-56.5 203.5,-56.5"/>
<text text-anchor="middle" x="225.5" y="-63.5" font-family="Helvetica,sans-Serif" font-size="10.00">vector</text>
</a>
</g>
</g>
<!-- Node1&#45;&gt;Node5 -->
<g id="edge4" class="edge">
<title>Node1&#45;&gt;Node5</title>
<path fill="none" stroke="midnightblue" d="M557.98,-117.61C494.96,-112.01 371.33,-99.28 257.66,-75.96"/>
<polygon fill="midnightblue" stroke="midnightblue" points="258.25,-72.51 247.75,-73.9 256.82,-79.37 258.25,-72.51"/>
</g>
<!-- Node6 -->
<g id="node6" class="node">
<title>Node6</title>
<g id="a_node6"><a xlink:href="proteus__blas_8h.html" target="_top" xlink:title=" ">
<polygon fill="white" stroke="black" points="265.5,-56.5 265.5,-75.5 345.5,-75.5 345.5,-56.5 265.5,-56.5"/>
<text text-anchor="middle" x="305.5" y="-63.5" font-family="Helvetica,sans-Serif" font-size="10.00">proteus_blas.h</text>
</a>
</g>
</g>
<!-- Node1&#45;&gt;Node6 -->
<g id="edge5" class="edge">
<title>Node1&#45;&gt;Node6</title>
<path fill="none" stroke="midnightblue" d="M557.69,-113.32C504.45,-103.54 412.55,-86.66 355.61,-76.2"/>
<polygon fill="midnightblue" stroke="midnightblue" points="356.22,-72.76 345.75,-74.39 354.95,-79.64 356.22,-72.76"/>
</g>
<!-- Node7 -->
<g id="node7" class="node">
<title>Node7</title>
<g id="a_node7"><a xlink:href="_comp_kernel_8h.html" target="_top" xlink:title=" ">
<polygon fill="white" stroke="black" points="0,-56.5 0,-75.5 79,-75.5 79,-56.5 0,-56.5"/>
<text text-anchor="middle" x="39.5" y="-63.5" font-family="Helvetica,sans-Serif" font-size="10.00">CompKernel.h</text>
</a>
</g>
</g>
<!-- Node1&#45;&gt;Node7 -->
<g id="edge6" class="edge">
<title>Node1&#45;&gt;Node7</title>
<path fill="none" stroke="midnightblue" d="M557.73,-118.37C471.01,-112.67 265.19,-97.91 93.5,-76 92.2,-75.83 90.88,-75.66 89.56,-75.48"/>
<polygon fill="midnightblue" stroke="midnightblue" points="89.66,-71.96 79.26,-73.98 88.65,-78.88 89.66,-71.96"/>
</g>
<!-- Node8 -->
<g id="node8" class="node">
<title>Node8</title>
<g id="a_node8"><a xlink:href="_model_factory_8h.html" target="_top" xlink:title=" ">
<polygon fill="white" stroke="black" points="402,-56.5 402,-75.5 485,-75.5 485,-56.5 402,-56.5"/>
<text text-anchor="middle" x="443.5" y="-63.5" font-family="Helvetica,sans-Serif" font-size="10.00">ModelFactory.h</text>
</a>
</g>
</g>
<!-- Node1&#45;&gt;Node8 -->
<g id="edge8" class="edge">
<title>Node1&#45;&gt;Node8</title>
<path fill="none" stroke="midnightblue" d="M574.78,-112.44C548.65,-103.4 507.24,-89.06 477.92,-78.92"/>
<polygon fill="midnightblue" stroke="midnightblue" points="478.7,-75.48 468.1,-75.52 476.41,-82.1 478.7,-75.48"/>
</g>
<!-- Node9 -->
<g id="node9" class="node">
<title>Node9</title>
<g id="a_node9"><a xlink:href="mohr_coulomb_8h.html" target="_top" xlink:title=" ">
<polygon fill="white" stroke="black" points="503.5,-56.5 503.5,-75.5 589.5,-75.5 589.5,-56.5 503.5,-56.5"/>
<text text-anchor="middle" x="546.5" y="-63.5" font-family="Helvetica,sans-Serif" font-size="10.00">mohrCoulomb.h</text>
</a>
</g>
</g>
<!-- Node1&#45;&gt;Node9 -->
<g id="edge10" class="edge">
<title>Node1&#45;&gt;Node9</title>
<path fill="none" stroke="midnightblue" d="M590.75,-112.08C583.03,-104.22 571.6,-92.57 562.28,-83.08"/>
<polygon fill="midnightblue" stroke="midnightblue" points="564.59,-80.44 555.09,-75.75 559.6,-85.34 564.59,-80.44"/>
</g>
<!-- Node10 -->
<g id="node10" class="node">
<title>Node10</title>
<g id="a_node10"><a xlink:href="mohr_coulomb2_8h.html" target="_top" xlink:title=" ">
<polygon fill="white" stroke="black" points="608,-56.5 608,-75.5 699,-75.5 699,-56.5 608,-56.5"/>
<text text-anchor="middle" x="653.5" y="-63.5" font-family="Helvetica,sans-Serif" font-size="10.00">mohrCoulomb2.h</text>
</a>
</g>
</g>
<!-- Node1&#45;&gt;Node10 -->
<g id="edge11" class="edge">
<title>Node1&#45;&gt;Node10</title>
<path fill="none" stroke="midnightblue" d="M608.42,-112.08C616.28,-104.22 627.93,-92.57 637.42,-83.08"/>
<polygon fill="midnightblue" stroke="midnightblue" points="640.15,-85.3 644.75,-75.75 635.2,-80.35 640.15,-85.3"/>
</g>
<!-- Node11 -->
<g id="node11" class="node">
<title>Node11</title>
<g id="a_node11"><a xlink:href="von_mises_8h.html" target="_top" xlink:title=" ">
<polygon fill="white" stroke="black" points="717,-56.5 717,-75.5 784,-75.5 784,-56.5 717,-56.5"/>
<text text-anchor="middle" x="750.5" y="-63.5" font-family="Helvetica,sans-Serif" font-size="10.00">vonMises.h</text>
</a>
</g>
</g>
<!-- Node1&#45;&gt;Node11 -->
<g id="edge12" class="edge">
<title>Node1&#45;&gt;Node11</title>
<path fill="none" stroke="midnightblue" d="M623.43,-112.44C648.72,-103.4 688.8,-89.06 717.18,-78.92"/>
<polygon fill="midnightblue" stroke="midnightblue" points="718.45,-82.18 726.69,-75.52 716.09,-75.59 718.45,-82.18"/>
</g>
<!-- Node12 -->
<g id="node12" class="node">
<title>Node12</title>
<g id="a_node12"><a xlink:href="tresca_8h.html" target="_top" xlink:title=" ">
<polygon fill="white" stroke="black" points="802.5,-56.5 802.5,-75.5 854.5,-75.5 854.5,-56.5 802.5,-56.5"/>
<text text-anchor="middle" x="828.5" y="-63.5" font-family="Helvetica,sans-Serif" font-size="10.00">tresca.h</text>
</a>
</g>
</g>
<!-- Node1&#45;&gt;Node12 -->
<g id="edge13" class="edge">
<title>Node1&#45;&gt;Node12</title>
<path fill="none" stroke="midnightblue" d="M636.9,-112.46C673.76,-104.01 731.94,-90.56 792.1,-76.06"/>
<polygon fill="midnightblue" stroke="midnightblue" points="793.27,-79.38 802.17,-73.63 791.62,-72.58 793.27,-79.38"/>
</g>
<!-- Node13 -->
<g id="node13" class="node">
<title>Node13</title>
<g id="a_node13"><a xlink:href="drucker_prager_8h.html" target="_top" xlink:title=" ">
<polygon fill="white" stroke="black" points="873,-56.5 873,-75.5 958,-75.5 958,-56.5 873,-56.5"/>
<text text-anchor="middle" x="915.5" y="-63.5" font-family="Helvetica,sans-Serif" font-size="10.00">druckerPrager.h</text>
</a>
</g>
</g>
<!-- Node1&#45;&gt;Node13 -->
<g id="edge14" class="edge">
<title>Node1&#45;&gt;Node13</title>
<path fill="none" stroke="midnightblue" d="M641.11,-113.94C691.16,-105.44 777.98,-90.68 862.86,-76.11"/>
<polygon fill="midnightblue" stroke="midnightblue" points="863.67,-79.52 872.93,-74.38 862.49,-72.62 863.67,-79.52"/>
</g>
<!-- Node14 -->
<g id="node14" class="node">
<title>Node14</title>
<g id="a_node14"><a xlink:href="mcdp_8h.html" target="_top" xlink:title=" ">
<polygon fill="white" stroke="black" points="976,-56.5 976,-75.5 1025,-75.5 1025,-56.5 976,-56.5"/>
<text text-anchor="middle" x="1000.5" y="-63.5" font-family="Helvetica,sans-Serif" font-size="10.00">mcdp.h</text>
</a>
</g>
</g>
<!-- Node1&#45;&gt;Node14 -->
<g id="edge15" class="edge">
<title>Node1&#45;&gt;Node14</title>
<path fill="none" stroke="midnightblue" d="M641.2,-117.88C707.94,-112.45 842.98,-99.71 965.78,-76.11"/>
<polygon fill="midnightblue" stroke="midnightblue" points="966.58,-79.52 975.72,-74.17 965.24,-72.65 966.58,-79.52"/>
</g>
<!-- Node15 -->
<g id="node15" class="node">
<title>Node15</title>
<g id="a_node15"><a xlink:href="_arguments_dict_8h.html" target="_top" xlink:title=" ">
<polygon fill="white" stroke="black" points="1043.5,-56.5 1043.5,-75.5 1177.5,-75.5 1177.5,-56.5 1043.5,-56.5"/>
<text text-anchor="middle" x="1110.5" y="-63.5" font-family="Helvetica,sans-Serif" font-size="10.00">../mprans/ArgumentsDict.h</text>
</a>
</g>
</g>
<!-- Node1&#45;&gt;Node15 -->
<g id="edge16" class="edge">
<title>Node1&#45;&gt;Node15</title>
<path fill="none" stroke="midnightblue" d="M641.21,-116.89C716.97,-109.39 882.53,-92.78 1033.02,-76.15"/>
<polygon fill="midnightblue" stroke="midnightblue" points="1033.82,-79.58 1043.37,-75 1033.04,-72.63 1033.82,-79.58"/>
</g>
<!-- Node19 -->
<g id="node19" class="node">
<title>Node19</title>
<g id="a_node19"><a xlink:title=" ">
<polygon fill="white" stroke="#bfbfbf" points="1183.5,-0.5 1183.5,-19.5 1317.5,-19.5 1317.5,-0.5 1183.5,-0.5"/>
<text text-anchor="middle" x="1250.5" y="-7.5" font-family="Helvetica,sans-Serif" font-size="10.00">xtensor&#45;python/pyarray.hpp</text>
</a>
</g>
</g>
<!-- Node1&#45;&gt;Node19 -->
<g id="edge22" class="edge">
<title>Node1&#45;&gt;Node19</title>
<path fill="none" stroke="midnightblue" d="M641.37,-121.55C758.89,-122.52 1089.52,-121.05 1186.5,-76 1209.07,-65.52 1228.05,-43.41 1239.34,-27.9"/>
<polygon fill="midnightblue" stroke="midnightblue" points="1242.23,-29.87 1245.07,-19.67 1236.48,-25.88 1242.23,-29.87"/>
</g>
<!-- Node21 -->
<g id="node21" class="node">
<title>Node21</title>
<g id="a_node21"><a xlink:title=" ">
<polygon fill="white" stroke="#bfbfbf" points="1233.5,-56.5 1233.5,-75.5 1339.5,-75.5 1339.5,-56.5 1233.5,-56.5"/>
<text text-anchor="middle" x="1286.5" y="-63.5" font-family="Helvetica,sans-Serif" font-size="10.00">pybind11/pybind11.h</text>
</a>
</g>
</g>
<!-- Node1&#45;&gt;Node21 -->
<g id="edge23" class="edge">
<title>Node1&#45;&gt;Node21</title>
<path fill="none" stroke="midnightblue" d="M641.3,-118.85C741.35,-113.51 1002.38,-98.44 1219.5,-76 1220.61,-75.89 1221.73,-75.77 1222.85,-75.64"/>
<polygon fill="midnightblue" stroke="midnightblue" points="1223.6,-79.08 1233.14,-74.47 1222.81,-72.13 1223.6,-79.08"/>
</g>
<!-- Node7&#45;&gt;Node2 -->
<g id="edge7" class="edge">
<title>Node7&#45;&gt;Node2</title>
<path fill="none" stroke="midnightblue" d="M45.11,-56.08C49.87,-48.53 56.82,-37.49 62.65,-28.23"/>
<polygon fill="midnightblue" stroke="midnightblue" points="65.62,-30.08 67.99,-19.75 59.7,-26.35 65.62,-30.08"/>
</g>
<!-- Node8&#45;&gt;Node3 -->
<g id="edge9" class="edge">
<title>Node8&#45;&gt;Node3</title>
<path fill="none" stroke="midnightblue" d="M437.72,-56.08C432.83,-48.53 425.67,-37.49 419.67,-28.23"/>
<polygon fill="midnightblue" stroke="midnightblue" points="422.55,-26.24 414.17,-19.75 416.67,-30.05 422.55,-26.24"/>
</g>
<!-- Node16 -->
<g id="node16" class="node">
<title>Node16</title>
<g id="a_node16"><a xlink:title=" ">
<polygon fill="white" stroke="#bfbfbf" points="994,-0.5 994,-19.5 1029,-19.5 1029,-0.5 994,-0.5"/>
<text text-anchor="middle" x="1011.5" y="-7.5" font-family="Helvetica,sans-Serif" font-size="10.00">map</text>
</a>
</g>
</g>
<!-- Node15&#45;&gt;Node16 -->
<g id="edge17" class="edge">
<title>Node15&#45;&gt;Node16</title>
<path fill="none" stroke="midnightblue" d="M1094.59,-56.32C1078.86,-47.74 1054.56,-34.49 1036.29,-24.52"/>
<polygon fill="midnightblue" stroke="midnightblue" points="1037.82,-21.37 1027.37,-19.65 1034.47,-27.52 1037.82,-21.37"/>
</g>
<!-- Node17 -->
<g id="node17" class="node">
<title>Node17</title>
<g id="a_node17"><a xlink:title=" ">
<polygon fill="white" stroke="#bfbfbf" points="1047,-0.5 1047,-19.5 1106,-19.5 1106,-0.5 1047,-0.5"/>
<text text-anchor="middle" x="1076.5" y="-7.5" font-family="Helvetica,sans-Serif" font-size="10.00">stdexcept</text>
</a>
</g>
</g>
<!-- Node15&#45;&gt;Node17 -->
<g id="edge18" class="edge">
<title>Node15&#45;&gt;Node17</title>
<path fill="none" stroke="midnightblue" d="M1104.89,-56.08C1100.13,-48.53 1093.18,-37.49 1087.35,-28.23"/>
<polygon fill="midnightblue" stroke="midnightblue" points="1090.3,-26.35 1082.01,-19.75 1084.38,-30.08 1090.3,-26.35"/>
</g>
<!-- Node18 -->
<g id="node18" class="node">
<title>Node18</title>
<g id="a_node18"><a xlink:title=" ">
<polygon fill="white" stroke="#bfbfbf" points="1124,-0.5 1124,-19.5 1165,-19.5 1165,-0.5 1124,-0.5"/>
<text text-anchor="middle" x="1144.5" y="-7.5" font-family="Helvetica,sans-Serif" font-size="10.00">string</text>
</a>
</g>
</g>
<!-- Node15&#45;&gt;Node18 -->
<g id="edge19" class="edge">
<title>Node15&#45;&gt;Node18</title>
<path fill="none" stroke="midnightblue" d="M1116.11,-56.08C1120.87,-48.53 1127.82,-37.49 1133.65,-28.23"/>
<polygon fill="midnightblue" stroke="midnightblue" points="1136.62,-30.08 1138.99,-19.75 1130.7,-26.35 1136.62,-30.08"/>
</g>
<!-- Node15&#45;&gt;Node19 -->
<g id="edge20" class="edge">
<title>Node15&#45;&gt;Node19</title>
<path fill="none" stroke="midnightblue" d="M1132.68,-56.44C1155.93,-47.48 1192.65,-33.31 1218.92,-23.18"/>
<polygon fill="midnightblue" stroke="midnightblue" points="1220.35,-26.38 1228.42,-19.52 1217.83,-19.85 1220.35,-26.38"/>
</g>
<!-- Node20 -->
<g id="node20" class="node">
<title>Node20</title>
<g id="a_node20"><a xlink:title=" ">
<polygon fill="white" stroke="#bfbfbf" points="893,-0.5 893,-19.5 976,-19.5 976,-0.5 893,-0.5"/>
<text text-anchor="middle" x="934.5" y="-7.5" font-family="Helvetica,sans-Serif" font-size="10.00">xtensor/xio.hpp</text>
</a>
</g>
</g>
<!-- Node15&#45;&gt;Node20 -->
<g id="edge21" class="edge">
<title>Node15&#45;&gt;Node20</title>
<path fill="none" stroke="midnightblue" d="M1082.61,-56.44C1052.75,-47.28 1005.19,-32.69 972.04,-22.52"/>
<polygon fill="midnightblue" stroke="midnightblue" points="972.84,-19.1 962.26,-19.52 970.79,-25.8 972.84,-19.1"/>
</g>
</g>
</svg>
