<?xml version="1.0" encoding="UTF-8" standalone="no"?>
<!DOCTYPE svg PUBLIC "-//W3C//DTD SVG 1.1//EN"
 "http://www.w3.org/Graphics/SVG/1.1/DTD/svg11.dtd">
<!-- Generated by graphviz version 2.40.1 (20161225.0304)
 -->
<!-- Title: ErrorResidualMethod.cpp Pages: 1 -->
<svg width="886pt" height="196pt"
 viewBox="0.00 0.00 886.00 196.00" xmlns="http://www.w3.org/2000/svg" xmlns:xlink="http://www.w3.org/1999/xlink">
<g id="graph0" class="graph" transform="scale(1 1) rotate(0) translate(4 192)">
<title>ErrorResidualMethod.cpp</title>
<polygon fill="#ffffff" stroke="transparent" points="-4,4 -4,-192 882,-192 882,4 -4,4"/>
<!-- Node0 -->
<g id="node1" class="node">
<title>Node0</title>
<polygon fill="#bfbfbf" stroke="#000000" points="395.5,-168.5 395.5,-187.5 522.5,-187.5 522.5,-168.5 395.5,-168.5"/>
<text text-anchor="middle" x="459" y="-175.5" font-family="Helvetica,sans-Serif" font-size="10.00" fill="#000000">ErrorResidualMethod.cpp</text>
</g>
<!-- Node1 -->
<g id="node2" class="node">
<title>Node1</title>
<g id="a_node2"><a xlink:href="_mesh_adapt_p_u_m_i_8h.html" target="_top" xlink:title="MeshAdaptPUMI.h">
<polygon fill="#ffffff" stroke="#000000" points="305,-112.5 305,-131.5 405,-131.5 405,-112.5 305,-112.5"/>
<text text-anchor="middle" x="355" y="-119.5" font-family="Helvetica,sans-Serif" font-size="10.00" fill="#000000">MeshAdaptPUMI.h</text>
</a>
</g>
</g>
<!-- Node0&#45;&gt;Node1 -->
<g id="edge1" class="edge">
<title>Node0&#45;&gt;Node1</title>
<path fill="none" stroke="#191970" d="M440.8846,-168.2455C424.555,-159.4527 400.329,-146.4079 381.7661,-136.4125"/>
<polygon fill="#191970" stroke="#191970" points="383.3719,-133.3021 372.9078,-131.6427 380.0532,-139.4654 383.3719,-133.3021"/>
</g>
<!-- Node8 -->
<g id="node9" class="node">
<title>Node8</title>
<polygon fill="#ffffff" stroke="#bfbfbf" points="0,-.5 0,-19.5 54,-19.5 54,-.5 0,-.5"/>
<text text-anchor="middle" x="27" y="-7.5" font-family="Helvetica,sans-Serif" font-size="10.00" fill="#000000">iostream</text>
</g>
<!-- Node0&#45;&gt;Node8 -->
<g id="edge26" class="edge">
<title>Node0&#45;&gt;Node8</title>
<path fill="none" stroke="#191970" d="M395.3565,-171.2772C348.2309,-164.8771 283.0934,-153.0033 229,-132 157.5283,-104.2491 82.6046,-51.8757 47.4694,-25.7086"/>
<polygon fill="#191970" stroke="#191970" points="49.5151,-22.8678 39.4203,-19.6515 45.3061,-28.461 49.5151,-22.8678"/>
</g>
<!-- Node10 -->
<g id="node11" class="node">
<title>Node10</title>
<polygon fill="#ffffff" stroke="#bfbfbf" points="72,-.5 72,-19.5 122,-19.5 122,-.5 72,-.5"/>
<text text-anchor="middle" x="97" y="-7.5" font-family="Helvetica,sans-Serif" font-size="10.00" fill="#000000">fstream</text>
</g>
<!-- Node0&#45;&gt;Node10 -->
<g id="edge27" class="edge">
<title>Node0&#45;&gt;Node10</title>
<path fill="none" stroke="#191970" d="M395.4088,-168.8253C357.5235,-161.8584 309.1549,-150.2819 269,-132 207.1743,-103.8518 144.6106,-52.4136 114.86,-26.2358"/>
<polygon fill="#191970" stroke="#191970" points="117.1625,-23.5995 107.3669,-19.5625 112.5069,-28.827 117.1625,-23.5995"/>
</g>
<!-- Node13 -->
<g id="node14" class="node">
<title>Node13</title>
<polygon fill="#ffffff" stroke="#bfbfbf" points="213,-56.5 213,-75.5 251,-75.5 251,-56.5 213,-56.5"/>
<text text-anchor="middle" x="232" y="-63.5" font-family="Helvetica,sans-Serif" font-size="10.00" fill="#000000">apf.h</text>
</g>
<!-- Node0&#45;&gt;Node13 -->
<g id="edge21" class="edge">
<title>Node0&#45;&gt;Node13</title>
<path fill="none" stroke="#191970" d="M397.0956,-168.4911C365.27,-161.6881 326.8067,-150.3794 296,-132 275.1463,-119.5586 256.475,-98.5944 244.7575,-83.6318"/>
<polygon fill="#191970" stroke="#191970" points="247.5236,-81.4869 238.698,-75.6253 241.942,-85.7113 247.5236,-81.4869"/>
</g>
<!-- Node15 -->
<g id="node16" class="node">
<title>Node15</title>
<polygon fill="#ffffff" stroke="#bfbfbf" points="629,-56.5 629,-75.5 715,-75.5 715,-56.5 629,-56.5"/>
<text text-anchor="middle" x="672" y="-63.5" font-family="Helvetica,sans-Serif" font-size="10.00" fill="#000000">apfNumbering.h</text>
</g>
<!-- Node0&#45;&gt;Node15 -->
<g id="edge25" class="edge">
<title>Node0&#45;&gt;Node15</title>
<path fill="none" stroke="#191970" d="M454.2764,-168.2545C448.2163,-154.1763 439.9474,-128.0791 453,-112 455.6511,-108.7342 554.9961,-88.8245 618.9577,-76.2918"/>
<polygon fill="#191970" stroke="#191970" points="619.7569,-79.7019 628.8991,-74.3474 618.4132,-72.8321 619.7569,-79.7019"/>
</g>
<!-- Node19 -->
<g id="node20" class="node">
<title>Node19</title>
<polygon fill="#ffffff" stroke="#bfbfbf" points="461.5,-112.5 461.5,-131.5 508.5,-131.5 508.5,-112.5 461.5,-112.5"/>
<text text-anchor="middle" x="485" y="-119.5" font-family="Helvetica,sans-Serif" font-size="10.00" fill="#000000">PCU.h</text>
</g>
<!-- Node0&#45;&gt;Node19 -->
<g id="edge19" class="edge">
<title>Node0&#45;&gt;Node19</title>
<path fill="none" stroke="#191970" d="M463.5289,-168.2455C467.0334,-160.6973 471.9927,-150.0158 476.2623,-140.8197"/>
<polygon fill="#191970" stroke="#191970" points="479.4864,-142.1867 480.523,-131.6427 473.1373,-139.2389 479.4864,-142.1867"/>
</g>
<!-- Node20 -->
<g id="node21" class="node">
<title>Node20</title>
<polygon fill="#ffffff" stroke="#bfbfbf" points="526.5,-112.5 526.5,-131.5 591.5,-131.5 591.5,-112.5 526.5,-112.5"/>
<text text-anchor="middle" x="559" y="-119.5" font-family="Helvetica,sans-Serif" font-size="10.00" fill="#000000">petscksp.h</text>
</g>
<!-- Node0&#45;&gt;Node20 -->
<g id="edge20" class="edge">
<title>Node0&#45;&gt;Node20</title>
<path fill="none" stroke="#191970" d="M476.4187,-168.2455C492.0485,-159.4928 515.2019,-146.527 533.0185,-136.5496"/>
<polygon fill="#191970" stroke="#191970" points="534.766,-139.5825 541.7809,-131.6427 531.3457,-133.475 534.766,-139.5825"/>
</g>
<!-- Node21 -->
<g id="node22" class="node">
<title>Node21</title>
<polygon fill="#ffffff" stroke="#bfbfbf" points="610,-112.5 610,-131.5 672,-131.5 672,-112.5 610,-112.5"/>
<text text-anchor="middle" x="641" y="-119.5" font-family="Helvetica,sans-Serif" font-size="10.00" fill="#000000">apfMesh.h</text>
</g>
<!-- Node0&#45;&gt;Node21 -->
<g id="edge22" class="edge">
<title>Node0&#45;&gt;Node21</title>
<path fill="none" stroke="#191970" d="M490.2869,-168.3733C520.6818,-159.021 566.9893,-144.7725 600.25,-134.5385"/>
<polygon fill="#191970" stroke="#191970" points="601.5929,-137.7873 610.1214,-131.5011 599.5342,-131.0968 601.5929,-137.7873"/>
</g>
<!-- Node22 -->
<g id="node23" class="node">
<title>Node22</title>
<polygon fill="#ffffff" stroke="#bfbfbf" points="690,-112.5 690,-131.5 756,-131.5 756,-112.5 690,-112.5"/>
<text text-anchor="middle" x="723" y="-119.5" font-family="Helvetica,sans-Serif" font-size="10.00" fill="#000000">apfShape.h</text>
</g>
<!-- Node0&#45;&gt;Node22 -->
<g id="edge23" class="edge">
<title>Node0&#45;&gt;Node22</title>
<path fill="none" stroke="#191970" d="M507.1565,-168.4468C549.9844,-159.855 614.5687,-146.6652 679.5433,-132.2821"/>
<polygon fill="#191970" stroke="#191970" points="680.5475,-135.6444 689.5499,-130.058 679.0287,-128.8111 680.5475,-135.6444"/>
</g>
<!-- Node23 -->
<g id="node24" class="node">
<title>Node23</title>
<polygon fill="#ffffff" stroke="#bfbfbf" points="774,-112.5 774,-131.5 878,-131.5 878,-112.5 774,-112.5"/>
<text text-anchor="middle" x="826" y="-119.5" font-family="Helvetica,sans-Serif" font-size="10.00" fill="#000000">apfDynamicMatrix.h</text>
</g>
<!-- Node0&#45;&gt;Node23 -->
<g id="edge24" class="edge">
<title>Node0&#45;&gt;Node23</title>
<path fill="none" stroke="#191970" d="M522.6257,-168.6868C582.3086,-159.8935 674.3357,-146.1887 763.7241,-132.1859"/>
<polygon fill="#191970" stroke="#191970" points="764.4276,-135.6184 773.7639,-130.6101 763.3421,-128.7031 764.4276,-135.6184"/>
</g>
<!-- Node2 -->
<g id="node3" class="node">
<title>Node2</title>
<g id="a_node3"><a xlink:href="mesh_8h.html" target="_top" xlink:title="mesh.h">
<polygon fill="#ffffff" stroke="#000000" points="269.5,-56.5 269.5,-75.5 318.5,-75.5 318.5,-56.5 269.5,-56.5"/>
<text text-anchor="middle" x="294" y="-63.5" font-family="Helvetica,sans-Serif" font-size="10.00" fill="#000000">mesh.h</text>
</a>
</g>
</g>
<!-- Node1&#45;&gt;Node2 -->
<g id="edge2" class="edge">
<title>Node1&#45;&gt;Node2</title>
<path fill="none" stroke="#191970" d="M344.3746,-112.2455C335.4527,-104.0549 322.512,-92.1749 311.9808,-82.5069"/>
<polygon fill="#191970" stroke="#191970" points="314.2371,-79.8271 304.5036,-75.6427 309.5032,-84.9837 314.2371,-79.8271"/>
</g>
<!-- Node1&#45;&gt;Node13 -->
<g id="edge13" class="edge">
<title>Node1&#45;&gt;Node13</title>
<path fill="none" stroke="#191970" d="M333.8555,-112.3733C313.6322,-103.1659 282.9853,-89.2128 260.5908,-79.0169"/>
<polygon fill="#191970" stroke="#191970" points="261.8029,-75.7232 251.2515,-74.7649 258.9023,-82.094 261.8029,-75.7232"/>
</g>
<!-- Node14 -->
<g id="node15" class="node">
<title>Node14</title>
<polygon fill="#ffffff" stroke="#bfbfbf" points="337,-56.5 337,-75.5 405,-75.5 405,-56.5 337,-56.5"/>
<text text-anchor="middle" x="371" y="-63.5" font-family="Helvetica,sans-Serif" font-size="10.00" fill="#000000">apfMesh2.h</text>
</g>
<!-- Node1&#45;&gt;Node14 -->
<g id="edge14" class="edge">
<title>Node1&#45;&gt;Node14</title>
<path fill="none" stroke="#191970" d="M357.787,-112.2455C359.8977,-104.8579 362.866,-94.4689 365.4547,-85.4087"/>
<polygon fill="#191970" stroke="#191970" points="368.863,-86.2195 368.245,-75.6427 362.1323,-84.2964 368.863,-86.2195"/>
</g>
<!-- Node1&#45;&gt;Node15 -->
<g id="edge15" class="edge">
<title>Node1&#45;&gt;Node15</title>
<path fill="none" stroke="#191970" d="M405.3575,-113.5379C456.5136,-104.8789 538.3067,-90.8628 618.5907,-76.2344"/>
<polygon fill="#191970" stroke="#191970" points="619.6729,-79.5947 628.8811,-74.3544 618.4149,-72.7086 619.6729,-79.5947"/>
</g>
<!-- Node16 -->
<g id="node17" class="node">
<title>Node16</title>
<polygon fill="#ffffff" stroke="#bfbfbf" points="423.5,-56.5 423.5,-75.5 466.5,-75.5 466.5,-56.5 423.5,-56.5"/>
<text text-anchor="middle" x="445" y="-63.5" font-family="Helvetica,sans-Serif" font-size="10.00" fill="#000000">queue</text>
</g>
<!-- Node1&#45;&gt;Node16 -->
<g id="edge16" class="edge">
<title>Node1&#45;&gt;Node16</title>
<path fill="none" stroke="#191970" d="M370.6768,-112.2455C384.4856,-103.6534 404.8193,-91.0014 420.7292,-81.1018"/>
<polygon fill="#191970" stroke="#191970" points="422.8613,-83.8974 429.5028,-75.6427 419.1632,-77.954 422.8613,-83.8974"/>
</g>
<!-- Node17 -->
<g id="node18" class="node">
<title>Node17</title>
<g id="a_node18"><a xlink:href="_py_embedded_functions_8h.html" target="_top" xlink:title="PyEmbeddedFunctions.h">
<polygon fill="#ffffff" stroke="#000000" points="485,-56.5 485,-75.5 611,-75.5 611,-56.5 485,-56.5"/>
<text text-anchor="middle" x="548" y="-63.5" font-family="Helvetica,sans-Serif" font-size="10.00" fill="#000000">PyEmbeddedFunctions.h</text>
</a>
</g>
</g>
<!-- Node1&#45;&gt;Node17 -->
<g id="edge17" class="edge">
<title>Node1&#45;&gt;Node17</title>
<path fill="none" stroke="#191970" d="M388.1779,-112.3733C420.5487,-102.9807 469.9398,-88.6496 505.2424,-78.4064"/>
<polygon fill="#191970" stroke="#191970" points="506.6265,-81.6492 515.2551,-75.5011 504.6758,-74.9264 506.6265,-81.6492"/>
</g>
<!-- Node3 -->
<g id="node4" class="node">
<title>Node3</title>
<polygon fill="#ffffff" stroke="#bfbfbf" points="575,-.5 575,-19.5 605,-19.5 605,-.5 575,-.5"/>
<text text-anchor="middle" x="590" y="-7.5" font-family="Helvetica,sans-Serif" font-size="10.00" fill="#000000">set</text>
</g>
<!-- Node2&#45;&gt;Node3 -->
<g id="edge3" class="edge">
<title>Node2&#45;&gt;Node3</title>
<path fill="none" stroke="#191970" d="M318.7811,-58.2884C321.8692,-57.4527 324.9965,-56.6656 328,-56 429.387,-33.5315 461.1136,-47.8883 565.3257,-19.6016"/>
<polygon fill="#191970" stroke="#191970" points="566.2666,-22.9729 574.9634,-16.9218 564.3913,-16.2288 566.2666,-22.9729"/>
</g>
<!-- Node4 -->
<g id="node5" class="node">
<title>Node4</title>
<polygon fill="#ffffff" stroke="#bfbfbf" points="140,-.5 140,-19.5 184,-19.5 184,-.5 140,-.5"/>
<text text-anchor="middle" x="162" y="-7.5" font-family="Helvetica,sans-Serif" font-size="10.00" fill="#000000">vector</text>
</g>
<!-- Node2&#45;&gt;Node4 -->
<g id="edge4" class="edge">
<title>Node2&#45;&gt;Node4</title>
<path fill="none" stroke="#191970" d="M271.3084,-56.3733C249.9289,-47.3032 217.6943,-33.6279 193.7638,-23.4755"/>
<polygon fill="#191970" stroke="#191970" points="194.9683,-20.1846 184.3955,-19.5011 192.2344,-26.6287 194.9683,-20.1846"/>
</g>
<!-- Node5 -->
<g id="node6" class="node">
<title>Node5</title>
<polygon fill="#ffffff" stroke="#bfbfbf" points="202,-.5 202,-19.5 258,-19.5 258,-.5 202,-.5"/>
<text text-anchor="middle" x="230" y="-7.5" font-family="Helvetica,sans-Serif" font-size="10.00" fill="#000000">algorithm</text>
</g>
<!-- Node2&#45;&gt;Node5 -->
<g id="edge5" class="edge">
<title>Node2&#45;&gt;Node5</title>
<path fill="none" stroke="#191970" d="M282.8521,-56.2455C273.4913,-48.0549 259.9142,-36.1749 248.8651,-26.5069"/>
<polygon fill="#191970" stroke="#191970" points="250.8508,-23.5937 241.0202,-19.6427 246.2412,-28.8618 250.8508,-23.5937"/>
</g>
<!-- Node6 -->
<g id="node7" class="node">
<title>Node6</title>
<polygon fill="#ffffff" stroke="#bfbfbf" points="276.5,-.5 276.5,-19.5 311.5,-19.5 311.5,-.5 276.5,-.5"/>
<text text-anchor="middle" x="294" y="-7.5" font-family="Helvetica,sans-Serif" font-size="10.00" fill="#000000">map</text>
</g>
<!-- Node2&#45;&gt;Node6 -->
<g id="edge6" class="edge">
<title>Node2&#45;&gt;Node6</title>
<path fill="none" stroke="#191970" d="M294,-56.2455C294,-48.9382 294,-38.6944 294,-29.7046"/>
<polygon fill="#191970" stroke="#191970" points="297.5001,-29.6426 294,-19.6427 290.5001,-29.6427 297.5001,-29.6426"/>
</g>
<!-- Node7 -->
<g id="node8" class="node">
<title>Node7</title>
<polygon fill="#ffffff" stroke="#bfbfbf" points="329.5,-.5 329.5,-19.5 358.5,-19.5 358.5,-.5 329.5,-.5"/>
<text text-anchor="middle" x="344" y="-7.5" font-family="Helvetica,sans-Serif" font-size="10.00" fill="#000000">list</text>
</g>
<!-- Node2&#45;&gt;Node7 -->
<g id="edge7" class="edge">
<title>Node2&#45;&gt;Node7</title>
<path fill="none" stroke="#191970" d="M302.7093,-56.2455C309.8073,-48.2958 320.0084,-36.8706 328.495,-27.3656"/>
<polygon fill="#191970" stroke="#191970" points="331.3411,-29.4331 335.3905,-19.6427 326.1195,-24.771 331.3411,-29.4331"/>
</g>
<!-- Node2&#45;&gt;Node8 -->
<g id="edge8" class="edge">
<title>Node2&#45;&gt;Node8</title>
<path fill="none" stroke="#191970" d="M269.1984,-58.3776C266.1138,-57.5266 262.993,-56.7115 260,-56 176.4521,-36.138 151.4867,-39.6446 63.8906,-20.0363"/>
<polygon fill="#191970" stroke="#191970" points="64.5874,-16.6054 54.06,-17.7985 63.0337,-23.4308 64.5874,-16.6054"/>
</g>
<!-- Node9 -->
<g id="node10" class="node">
<title>Node9</title>
<polygon fill="#ffffff" stroke="#bfbfbf" points="377,-.5 377,-19.5 427,-19.5 427,-.5 377,-.5"/>
<text text-anchor="middle" x="402" y="-7.5" font-family="Helvetica,sans-Serif" font-size="10.00" fill="#000000">iomanip</text>
</g>
<!-- Node2&#45;&gt;Node9 -->
<g id="edge9" class="edge">
<title>Node2&#45;&gt;Node9</title>
<path fill="none" stroke="#191970" d="M312.8122,-56.2455C329.8473,-47.4125 355.1575,-34.2887 374.4681,-24.2758"/>
<polygon fill="#191970" stroke="#191970" points="376.137,-27.353 383.4034,-19.6427 372.9147,-21.1388 376.137,-27.353"/>
</g>
<!-- Node2&#45;&gt;Node10 -->
<g id="edge10" class="edge">
<title>Node2&#45;&gt;Node10</title>
<path fill="none" stroke="#191970" d="M269.4978,-58.7493C266.3046,-57.8174 263.0756,-56.8814 260,-56 205.685,-40.4345 189.8093,-36.7576 131.9059,-20.2322"/>
<polygon fill="#191970" stroke="#191970" points="132.8167,-16.8524 122.2396,-17.4658 130.8907,-23.5822 132.8167,-16.8524"/>
</g>
<!-- Node11 -->
<g id="node12" class="node">
<title>Node11</title>
<polygon fill="#ffffff" stroke="#bfbfbf" points="445.5,-.5 445.5,-19.5 494.5,-19.5 494.5,-.5 445.5,-.5"/>
<text text-anchor="middle" x="470" y="-7.5" font-family="Helvetica,sans-Serif" font-size="10.00" fill="#000000">cassert</text>
</g>
<!-- Node2&#45;&gt;Node11 -->
<g id="edge11" class="edge">
<title>Node2&#45;&gt;Node11</title>
<path fill="none" stroke="#191970" d="M318.8432,-58.0953C349.3728,-48.3814 401.3371,-31.8473 435.6692,-20.9234"/>
<polygon fill="#191970" stroke="#191970" points="436.8151,-24.2318 445.2832,-17.8644 434.6927,-17.5613 436.8151,-24.2318"/>
</g>
<!-- Node12 -->
<g id="node13" class="node">
<title>Node12</title>
<polygon fill="#ffffff" stroke="#bfbfbf" points="513,-.5 513,-19.5 557,-19.5 557,-.5 513,-.5"/>
<text text-anchor="middle" x="535" y="-7.5" font-family="Helvetica,sans-Serif" font-size="10.00" fill="#000000">cmath</text>
</g>
<!-- Node2&#45;&gt;Node12 -->
<g id="edge12" class="edge">
<title>Node2&#45;&gt;Node12</title>
<path fill="none" stroke="#191970" d="M318.8164,-58.4386C321.8985,-57.5771 325.0147,-56.7429 328,-56 402.4521,-37.4717 425.0287,-40.0428 502.9513,-20.0583"/>
<polygon fill="#191970" stroke="#191970" points="503.9427,-23.4169 512.7357,-17.5064 502.176,-16.6435 503.9427,-23.4169"/>
</g>
<!-- Node18 -->
<g id="node19" class="node">
<title>Node18</title>
<polygon fill="#ffffff" stroke="#bfbfbf" points="623,-.5 623,-19.5 679,-19.5 679,-.5 623,-.5"/>
<text text-anchor="middle" x="651" y="-7.5" font-family="Helvetica,sans-Serif" font-size="10.00" fill="#000000">Python.h</text>
</g>
<!-- Node17&#45;&gt;Node18 -->
<g id="edge18" class="edge">
<title>Node17&#45;&gt;Node18</title>
<path fill="none" stroke="#191970" d="M565.9412,-56.2455C582.04,-47.4928 605.8879,-34.527 624.2391,-24.5496"/>
<polygon fill="#191970" stroke="#191970" points="626.1507,-27.4942 633.2644,-19.6427 622.8071,-21.3444 626.1507,-27.4942"/>
</g>
</g>
</svg>
