<?xml version="1.0" encoding="UTF-8" standalone="no"?>
<!DOCTYPE svg PUBLIC "-//W3C//DTD SVG 1.1//EN"
 "http://www.w3.org/Graphics/SVG/1.1/DTD/svg11.dtd">
<!-- Generated by graphviz version 2.43.0 (0)
 -->
<!-- Title: ErrorResidualMethod.cpp Pages: 1 -->
<svg width="944pt" height="196pt"
 viewBox="0.00 0.00 944.00 196.00" xmlns="http://www.w3.org/2000/svg" xmlns:xlink="http://www.w3.org/1999/xlink">
<g id="graph0" class="graph" transform="scale(1 1) rotate(0) translate(4 192)">
<title>ErrorResidualMethod.cpp</title>
<polygon fill="white" stroke="transparent" points="-4,4 -4,-192 940,-192 940,4 -4,4"/>
<!-- Node1 -->
<g id="node1" class="node">
<title>Node1</title>
<g id="a_node1"><a xlink:title=" ">
<polygon fill="#bfbfbf" stroke="black" points="419.5,-168.5 419.5,-187.5 558.5,-187.5 558.5,-168.5 419.5,-168.5"/>
<text text-anchor="middle" x="489" y="-175.5" font-family="Helvetica,sans-Serif" font-size="10.00">ErrorResidualMethod.cpp</text>
</a>
</g>
</g>
<!-- Node2 -->
<g id="node2" class="node">
<title>Node2</title>
<g id="a_node2"><a xlink:href="_mesh_adapt_p_u_m_i_8h.html" target="_top" xlink:title=" ">
<polygon fill="white" stroke="black" points="330,-112.5 330,-131.5 436,-131.5 436,-112.5 330,-112.5"/>
<text text-anchor="middle" x="383" y="-119.5" font-family="Helvetica,sans-Serif" font-size="10.00">MeshAdaptPUMI.h</text>
</a>
</g>
</g>
<!-- Node1&#45;&gt;Node2 -->
<g id="edge1" class="edge">
<title>Node1&#45;&gt;Node2</title>
<path fill="none" stroke="midnightblue" d="M471.97,-168.32C454.97,-159.66 428.62,-146.24 409.01,-136.25"/>
<polygon fill="midnightblue" stroke="midnightblue" points="410.49,-133.08 399.99,-131.65 407.31,-139.31 410.49,-133.08"/>
</g>
<!-- Node9 -->
<g id="node9" class="node">
<title>Node9</title>
<g id="a_node9"><a xlink:title=" ">
<polygon fill="white" stroke="#bfbfbf" points="0,-0.5 0,-19.5 60,-19.5 60,-0.5 0,-0.5"/>
<text text-anchor="middle" x="30" y="-7.5" font-family="Helvetica,sans-Serif" font-size="10.00">iostream</text>
</a>
</g>
</g>
<!-- Node1&#45;&gt;Node9 -->
<g id="edge26" class="edge">
<title>Node1&#45;&gt;Node9</title>
<path fill="none" stroke="midnightblue" d="M419.44,-169.92C370.68,-163.53 304.55,-151.97 249,-132 171.37,-104.1 88.4,-51.01 50.73,-25.45"/>
<polygon fill="midnightblue" stroke="midnightblue" points="52.39,-22.35 42.16,-19.58 48.43,-28.12 52.39,-22.35"/>
</g>
<!-- Node11 -->
<g id="node11" class="node">
<title>Node11</title>
<g id="a_node11"><a xlink:title=" ">
<polygon fill="white" stroke="#bfbfbf" points="78.5,-0.5 78.5,-19.5 133.5,-19.5 133.5,-0.5 78.5,-0.5"/>
<text text-anchor="middle" x="106" y="-7.5" font-family="Helvetica,sans-Serif" font-size="10.00">fstream</text>
</a>
</g>
</g>
<!-- Node1&#45;&gt;Node11 -->
<g id="edge27" class="edge">
<title>Node1&#45;&gt;Node11</title>
<path fill="none" stroke="midnightblue" d="M425.24,-168.43C385.53,-161.66 334,-150.25 291,-132 224.48,-103.77 155.73,-51.61 124.02,-25.99"/>
<polygon fill="midnightblue" stroke="midnightblue" points="126.04,-23.13 116.09,-19.51 121.62,-28.55 126.04,-23.13"/>
</g>
<!-- Node14 -->
<g id="node14" class="node">
<title>Node14</title>
<g id="a_node14"><a xlink:title=" ">
<polygon fill="white" stroke="#bfbfbf" points="232.5,-56.5 232.5,-75.5 273.5,-75.5 273.5,-56.5 232.5,-56.5"/>
<text text-anchor="middle" x="253" y="-63.5" font-family="Helvetica,sans-Serif" font-size="10.00">apf.h</text>
</a>
</g>
</g>
<!-- Node1&#45;&gt;Node14 -->
<g id="edge21" class="edge">
<title>Node1&#45;&gt;Node14</title>
<path fill="none" stroke="midnightblue" d="M429.08,-168.48C395.7,-161.93 354.29,-150.72 321,-132 298.87,-119.55 278.53,-98.25 265.98,-83.44"/>
<polygon fill="midnightblue" stroke="midnightblue" points="268.58,-81.09 259.53,-75.58 263.17,-85.53 268.58,-81.09"/>
</g>
<!-- Node16 -->
<g id="node16" class="node">
<title>Node16</title>
<g id="a_node16"><a xlink:title=" ">
<polygon fill="white" stroke="#bfbfbf" points="675.5,-56.5 675.5,-75.5 770.5,-75.5 770.5,-56.5 675.5,-56.5"/>
<text text-anchor="middle" x="723" y="-63.5" font-family="Helvetica,sans-Serif" font-size="10.00">apfNumbering.h</text>
</a>
</g>
</g>
<!-- Node1&#45;&gt;Node16 -->
<g id="edge25" class="edge">
<title>Node1&#45;&gt;Node16</title>
<path fill="none" stroke="midnightblue" d="M484.68,-168.28C478.61,-154.6 469.68,-128.05 483,-112 485.94,-108.46 595.39,-89 665.45,-76.86"/>
<polygon fill="midnightblue" stroke="midnightblue" points="666.23,-80.28 675.49,-75.13 665.04,-73.38 666.23,-80.28"/>
</g>
<!-- Node20 -->
<g id="node20" class="node">
<title>Node20</title>
<g id="a_node20"><a xlink:title=" ">
<polygon fill="white" stroke="#bfbfbf" points="492,-112.5 492,-131.5 538,-131.5 538,-112.5 492,-112.5"/>
<text text-anchor="middle" x="515" y="-119.5" font-family="Helvetica,sans-Serif" font-size="10.00">PCU.h</text>
</a>
</g>
</g>
<!-- Node1&#45;&gt;Node20 -->
<g id="edge19" class="edge">
<title>Node1&#45;&gt;Node20</title>
<path fill="none" stroke="midnightblue" d="M493.29,-168.08C496.85,-160.69 502.02,-149.95 506.42,-140.81"/>
<polygon fill="midnightblue" stroke="midnightblue" points="509.6,-142.28 510.79,-131.75 503.29,-139.24 509.6,-142.28"/>
</g>
<!-- Node21 -->
<g id="node21" class="node">
<title>Node21</title>
<g id="a_node21"><a xlink:title=" ">
<polygon fill="white" stroke="#bfbfbf" points="556.5,-112.5 556.5,-131.5 625.5,-131.5 625.5,-112.5 556.5,-112.5"/>
<text text-anchor="middle" x="591" y="-119.5" font-family="Helvetica,sans-Serif" font-size="10.00">petscksp.h</text>
</a>
</g>
</g>
<!-- Node1&#45;&gt;Node21 -->
<g id="edge20" class="edge">
<title>Node1&#45;&gt;Node21</title>
<path fill="none" stroke="midnightblue" d="M505.39,-168.32C521.67,-159.7 546.87,-146.36 565.72,-136.39"/>
<polygon fill="midnightblue" stroke="midnightblue" points="567.45,-139.43 574.65,-131.65 564.18,-133.24 567.45,-139.43"/>
</g>
<!-- Node22 -->
<g id="node22" class="node">
<title>Node22</title>
<g id="a_node22"><a xlink:title=" ">
<polygon fill="white" stroke="#bfbfbf" points="644,-112.5 644,-131.5 712,-131.5 712,-112.5 644,-112.5"/>
<text text-anchor="middle" x="678" y="-119.5" font-family="Helvetica,sans-Serif" font-size="10.00">apfMesh.h</text>
</a>
</g>
</g>
<!-- Node1&#45;&gt;Node22 -->
<g id="edge22" class="edge">
<title>Node1&#45;&gt;Node22</title>
<path fill="none" stroke="midnightblue" d="M518.95,-168.44C551.16,-159.24 602.53,-144.56 638.14,-134.39"/>
<polygon fill="midnightblue" stroke="midnightblue" points="639.54,-137.63 648.19,-131.52 637.62,-130.9 639.54,-137.63"/>
</g>
<!-- Node23 -->
<g id="node23" class="node">
<title>Node23</title>
<g id="a_node23"><a xlink:title=" ">
<polygon fill="white" stroke="#bfbfbf" points="730.5,-112.5 730.5,-131.5 801.5,-131.5 801.5,-112.5 730.5,-112.5"/>
<text text-anchor="middle" x="766" y="-119.5" font-family="Helvetica,sans-Serif" font-size="10.00">apfShape.h</text>
</a>
</g>
</g>
<!-- Node1&#45;&gt;Node23 -->
<g id="edge23" class="edge">
<title>Node1&#45;&gt;Node23</title>
<path fill="none" stroke="midnightblue" d="M533.49,-168.45C578.11,-159.86 649.05,-146.15 720.12,-132.17"/>
<polygon fill="midnightblue" stroke="midnightblue" points="721.01,-135.56 730.14,-130.19 719.65,-128.69 721.01,-135.56"/>
</g>
<!-- Node24 -->
<g id="node24" class="node">
<title>Node24</title>
<g id="a_node24"><a xlink:title=" ">
<polygon fill="white" stroke="#bfbfbf" points="820,-112.5 820,-131.5 936,-131.5 936,-112.5 820,-112.5"/>
<text text-anchor="middle" x="878" y="-119.5" font-family="Helvetica,sans-Serif" font-size="10.00">apfDynamicMatrix.h</text>
</a>
</g>
</g>
<!-- Node1&#45;&gt;Node24 -->
<g id="edge24" class="edge">
<title>Node1&#45;&gt;Node24</title>
<path fill="none" stroke="midnightblue" d="M550.64,-168.44C621.23,-158.64 736.54,-142.64 809.78,-132.47"/>
<polygon fill="midnightblue" stroke="midnightblue" points="810.4,-135.92 819.83,-131.08 809.44,-128.98 810.4,-135.92"/>
</g>
<!-- Node3 -->
<g id="node3" class="node">
<title>Node3</title>
<g id="a_node3"><a xlink:href="mesh_8h.html" target="_top" xlink:title=" ">
<polygon fill="white" stroke="black" points="291.5,-56.5 291.5,-75.5 344.5,-75.5 344.5,-56.5 291.5,-56.5"/>
<text text-anchor="middle" x="318" y="-63.5" font-family="Helvetica,sans-Serif" font-size="10.00">mesh.h</text>
</a>
</g>
</g>
<!-- Node2&#45;&gt;Node3 -->
<g id="edge2" class="edge">
<title>Node2&#45;&gt;Node3</title>
<path fill="none" stroke="midnightblue" d="M372.56,-112.32C362.85,-104.26 348.18,-92.08 336.5,-82.37"/>
<polygon fill="midnightblue" stroke="midnightblue" points="338.56,-79.53 328.63,-75.83 334.09,-84.92 338.56,-79.53"/>
</g>
<!-- Node2&#45;&gt;Node14 -->
<g id="edge13" class="edge">
<title>Node2&#45;&gt;Node14</title>
<path fill="none" stroke="midnightblue" d="M362.4,-112.44C341.01,-103.56 307.32,-89.56 282.98,-79.45"/>
<polygon fill="midnightblue" stroke="midnightblue" points="284.08,-76.12 273.5,-75.52 281.39,-82.58 284.08,-76.12"/>
</g>
<!-- Node15 -->
<g id="node15" class="node">
<title>Node15</title>
<g id="a_node15"><a xlink:title=" ">
<polygon fill="white" stroke="#bfbfbf" points="363,-56.5 363,-75.5 437,-75.5 437,-56.5 363,-56.5"/>
<text text-anchor="middle" x="400" y="-63.5" font-family="Helvetica,sans-Serif" font-size="10.00">apfMesh2.h</text>
</a>
</g>
</g>
<!-- Node2&#45;&gt;Node15 -->
<g id="edge14" class="edge">
<title>Node2&#45;&gt;Node15</title>
<path fill="none" stroke="midnightblue" d="M385.81,-112.08C388.08,-104.85 391.37,-94.41 394.21,-85.4"/>
<polygon fill="midnightblue" stroke="midnightblue" points="397.58,-86.34 397.25,-75.75 390.9,-84.24 397.58,-86.34"/>
</g>
<!-- Node2&#45;&gt;Node16 -->
<g id="edge15" class="edge">
<title>Node2&#45;&gt;Node16</title>
<path fill="none" stroke="midnightblue" d="M436.12,-112.56C498.44,-102.67 601.36,-86.32 665.51,-76.13"/>
<polygon fill="midnightblue" stroke="midnightblue" points="666.13,-79.58 675.46,-74.55 665.03,-72.66 666.13,-79.58"/>
</g>
<!-- Node17 -->
<g id="node17" class="node">
<title>Node17</title>
<g id="a_node17"><a xlink:title=" ">
<polygon fill="white" stroke="#bfbfbf" points="455.5,-56.5 455.5,-75.5 502.5,-75.5 502.5,-56.5 455.5,-56.5"/>
<text text-anchor="middle" x="479" y="-63.5" font-family="Helvetica,sans-Serif" font-size="10.00">queue</text>
</a>
</g>
</g>
<!-- Node2&#45;&gt;Node17 -->
<g id="edge16" class="edge">
<title>Node2&#45;&gt;Node17</title>
<path fill="none" stroke="midnightblue" d="M398.42,-112.32C413.54,-103.82 436.82,-90.73 454.47,-80.8"/>
<polygon fill="midnightblue" stroke="midnightblue" points="456.61,-83.61 463.61,-75.65 453.18,-77.51 456.61,-83.61"/>
</g>
<!-- Node18 -->
<g id="node18" class="node">
<title>Node18</title>
<g id="a_node18"><a xlink:href="_py_embedded_functions_8h.html" target="_top" xlink:title=" ">
<polygon fill="white" stroke="black" points="521,-56.5 521,-75.5 657,-75.5 657,-56.5 521,-56.5"/>
<text text-anchor="middle" x="589" y="-63.5" font-family="Helvetica,sans-Serif" font-size="10.00">PyEmbeddedFunctions.h</text>
</a>
</g>
</g>
<!-- Node2&#45;&gt;Node18 -->
<g id="edge17" class="edge">
<title>Node2&#45;&gt;Node18</title>
<path fill="none" stroke="midnightblue" d="M415.64,-112.44C451.05,-103.16 507.71,-88.31 546.55,-78.13"/>
<polygon fill="midnightblue" stroke="midnightblue" points="547.73,-81.44 556.51,-75.52 545.95,-74.67 547.73,-81.44"/>
</g>
<!-- Node4 -->
<g id="node4" class="node">
<title>Node4</title>
<g id="a_node4"><a xlink:title=" ">
<polygon fill="white" stroke="#bfbfbf" points="615,-0.5 615,-19.5 647,-19.5 647,-0.5 615,-0.5"/>
<text text-anchor="middle" x="631" y="-7.5" font-family="Helvetica,sans-Serif" font-size="10.00">set</text>
</a>
</g>
</g>
<!-- Node3&#45;&gt;Node4 -->
<g id="edge3" class="edge">
<title>Node3&#45;&gt;Node4</title>
<path fill="none" stroke="midnightblue" d="M344.67,-58.01C347.8,-57.28 350.97,-56.59 354,-56 461.88,-34.87 494.38,-46.59 604.88,-19.83"/>
<polygon fill="midnightblue" stroke="midnightblue" points="605.87,-23.19 614.74,-17.39 604.19,-16.39 605.87,-23.19"/>
</g>
<!-- Node5 -->
<g id="node5" class="node">
<title>Node5</title>
<g id="a_node5"><a xlink:title=" ">
<polygon fill="white" stroke="#bfbfbf" points="151.5,-0.5 151.5,-19.5 198.5,-19.5 198.5,-0.5 151.5,-0.5"/>
<text text-anchor="middle" x="175" y="-7.5" font-family="Helvetica,sans-Serif" font-size="10.00">vector</text>
</a>
</g>
</g>
<!-- Node3&#45;&gt;Node5 -->
<g id="edge4" class="edge">
<title>Node3&#45;&gt;Node5</title>
<path fill="none" stroke="midnightblue" d="M295.34,-56.44C271.6,-47.48 234.09,-33.31 207.26,-23.18"/>
<polygon fill="midnightblue" stroke="midnightblue" points="208.14,-19.77 197.55,-19.52 205.67,-26.32 208.14,-19.77"/>
</g>
<!-- Node6 -->
<g id="node6" class="node">
<title>Node6</title>
<g id="a_node6"><a xlink:title=" ">
<polygon fill="white" stroke="#bfbfbf" points="217,-0.5 217,-19.5 281,-19.5 281,-0.5 217,-0.5"/>
<text text-anchor="middle" x="249" y="-7.5" font-family="Helvetica,sans-Serif" font-size="10.00">algorithm</text>
</a>
</g>
</g>
<!-- Node3&#45;&gt;Node6 -->
<g id="edge5" class="edge">
<title>Node3&#45;&gt;Node6</title>
<path fill="none" stroke="midnightblue" d="M306.91,-56.32C296.51,-48.18 280.74,-35.84 268.28,-26.09"/>
<polygon fill="midnightblue" stroke="midnightblue" points="270.32,-23.24 260.29,-19.83 266.01,-28.75 270.32,-23.24"/>
</g>
<!-- Node7 -->
<g id="node7" class="node">
<title>Node7</title>
<g id="a_node7"><a xlink:title=" ">
<polygon fill="white" stroke="#bfbfbf" points="299,-0.5 299,-19.5 337,-19.5 337,-0.5 299,-0.5"/>
<text text-anchor="middle" x="318" y="-7.5" font-family="Helvetica,sans-Serif" font-size="10.00">map</text>
</a>
</g>
</g>
<!-- Node3&#45;&gt;Node7 -->
<g id="edge6" class="edge">
<title>Node3&#45;&gt;Node7</title>
<path fill="none" stroke="midnightblue" d="M318,-56.08C318,-49.01 318,-38.86 318,-29.99"/>
<polygon fill="midnightblue" stroke="midnightblue" points="321.5,-29.75 318,-19.75 314.5,-29.75 321.5,-29.75"/>
</g>
<!-- Node8 -->
<g id="node8" class="node">
<title>Node8</title>
<g id="a_node8"><a xlink:title=" ">
<polygon fill="white" stroke="#bfbfbf" points="355,-0.5 355,-19.5 387,-19.5 387,-0.5 355,-0.5"/>
<text text-anchor="middle" x="371" y="-7.5" font-family="Helvetica,sans-Serif" font-size="10.00">list</text>
</a>
</g>
</g>
<!-- Node3&#45;&gt;Node8 -->
<g id="edge7" class="edge">
<title>Node3&#45;&gt;Node8</title>
<path fill="none" stroke="midnightblue" d="M326.75,-56.08C334.47,-48.22 345.9,-36.57 355.22,-27.08"/>
<polygon fill="midnightblue" stroke="midnightblue" points="357.9,-29.34 362.41,-19.75 352.91,-24.44 357.9,-29.34"/>
</g>
<!-- Node3&#45;&gt;Node9 -->
<g id="edge8" class="edge">
<title>Node3&#45;&gt;Node9</title>
<path fill="none" stroke="midnightblue" d="M291.32,-58.08C288.18,-57.35 285.03,-56.63 282,-56 191.14,-37 164.88,-38.66 70.2,-20.14"/>
<polygon fill="midnightblue" stroke="midnightblue" points="70.69,-16.67 60.2,-18.15 69.32,-23.53 70.69,-16.67"/>
</g>
<!-- Node10 -->
<g id="node10" class="node">
<title>Node10</title>
<g id="a_node10"><a xlink:title=" ">
<polygon fill="white" stroke="#bfbfbf" points="405,-0.5 405,-19.5 461,-19.5 461,-0.5 405,-0.5"/>
<text text-anchor="middle" x="433" y="-7.5" font-family="Helvetica,sans-Serif" font-size="10.00">iomanip</text>
</a>
</g>
</g>
<!-- Node3&#45;&gt;Node10 -->
<g id="edge9" class="edge">
<title>Node3&#45;&gt;Node10</title>
<path fill="none" stroke="midnightblue" d="M336.22,-56.44C354.9,-47.68 384.16,-33.94 405.62,-23.86"/>
<polygon fill="midnightblue" stroke="midnightblue" points="407.3,-26.93 414.86,-19.52 404.32,-20.6 407.3,-26.93"/>
</g>
<!-- Node3&#45;&gt;Node11 -->
<g id="edge10" class="edge">
<title>Node3&#45;&gt;Node11</title>
<path fill="none" stroke="midnightblue" d="M291.15,-58.16C253.79,-48.64 185.94,-31.36 143.57,-20.57"/>
<polygon fill="midnightblue" stroke="midnightblue" points="144.19,-17.12 133.64,-18.04 142.47,-23.9 144.19,-17.12"/>
</g>
<!-- Node12 -->
<g id="node12" class="node">
<title>Node12</title>
<g id="a_node12"><a xlink:title=" ">
<polygon fill="white" stroke="#bfbfbf" points="479,-0.5 479,-19.5 531,-19.5 531,-0.5 479,-0.5"/>
<text text-anchor="middle" x="505" y="-7.5" font-family="Helvetica,sans-Serif" font-size="10.00">cassert</text>
</a>
</g>
</g>
<!-- Node3&#45;&gt;Node12 -->
<g id="edge11" class="edge">
<title>Node3&#45;&gt;Node12</title>
<path fill="none" stroke="midnightblue" d="M344.79,-57.26C377.47,-47.83 432.83,-31.84 469.15,-21.35"/>
<polygon fill="midnightblue" stroke="midnightblue" points="470.22,-24.69 478.86,-18.55 468.28,-17.96 470.22,-24.69"/>
</g>
<!-- Node13 -->
<g id="node13" class="node">
<title>Node13</title>
<g id="a_node13"><a xlink:title=" ">
<polygon fill="white" stroke="#bfbfbf" points="549.5,-0.5 549.5,-19.5 596.5,-19.5 596.5,-0.5 549.5,-0.5"/>
<text text-anchor="middle" x="573" y="-7.5" font-family="Helvetica,sans-Serif" font-size="10.00">cmath</text>
</a>
</g>
</g>
<!-- Node3&#45;&gt;Node13 -->
<g id="edge12" class="edge">
<title>Node3&#45;&gt;Node13</title>
<path fill="none" stroke="midnightblue" d="M344.7,-58.16C347.83,-57.4 350.98,-56.67 354,-56 433.16,-38.46 456.29,-39.02 539.38,-19.99"/>
<polygon fill="midnightblue" stroke="midnightblue" points="540.31,-23.37 549.26,-17.7 538.73,-16.55 540.31,-23.37"/>
</g>
<!-- Node19 -->
<g id="node19" class="node">
<title>Node19</title>
<g id="a_node19"><a xlink:title=" ">
<polygon fill="white" stroke="#bfbfbf" points="665.5,-0.5 665.5,-19.5 724.5,-19.5 724.5,-0.5 665.5,-0.5"/>
<text text-anchor="middle" x="695" y="-7.5" font-family="Helvetica,sans-Serif" font-size="10.00">Python.h</text>
</a>
</g>
</g>
<!-- Node18&#45;&gt;Node19 -->
<g id="edge18" class="edge">
<title>Node18&#45;&gt;Node19</title>
<path fill="none" stroke="midnightblue" d="M606.03,-56.32C623.03,-47.66 649.38,-34.24 668.99,-24.25"/>
<polygon fill="midnightblue" stroke="midnightblue" points="670.69,-27.31 678.01,-19.65 667.51,-21.08 670.69,-27.31"/>
</g>
</g>
</svg>
