<?xml version="1.0" encoding="UTF-8" standalone="no"?>
<!DOCTYPE svg PUBLIC "-//W3C//DTD SVG 1.1//EN"
 "http://www.w3.org/Graphics/SVG/1.1/DTD/svg11.dtd">
<!-- Generated by graphviz version 2.44.1 (20200629.0846)
 -->
<!-- Title: ErrorResidualMethod.cpp Pages: 1 -->
<svg width="804pt" height="196pt"
 viewBox="0.00 0.00 804.00 196.00" xmlns="http://www.w3.org/2000/svg" xmlns:xlink="http://www.w3.org/1999/xlink">
<g id="graph0" class="graph" transform="scale(1 1) rotate(0) translate(4 192)">
<title>ErrorResidualMethod.cpp</title>
<polygon fill="white" stroke="transparent" points="-4,4 -4,-192 800,-192 800,4 -4,4"/>
<!-- Node1 -->
<g id="node1" class="node">
<title>Node1</title>
<g id="a_node1"><a xlink:title=" ">
<polygon fill="#bfbfbf" stroke="black" points="313.5,-168.5 313.5,-187.5 440.5,-187.5 440.5,-168.5 313.5,-168.5"/>
<text text-anchor="middle" x="377" y="-175.5" font-family="Helvetica,sans-Serif" font-size="10.00">ErrorResidualMethod.cpp</text>
</a>
</g>
</g>
<!-- Node2 -->
<g id="node2" class="node">
<title>Node2</title>
<g id="a_node2"><a xlink:href="_mesh_adapt_p_u_m_i_8h.html" target="_top" xlink:title=" ">
<polygon fill="white" stroke="black" points="223,-112.5 223,-131.5 323,-131.5 323,-112.5 223,-112.5"/>
<text text-anchor="middle" x="273" y="-119.5" font-family="Helvetica,sans-Serif" font-size="10.00">MeshAdaptPUMI.h</text>
</a>
</g>
</g>
<!-- Node1&#45;&gt;Node2 -->
<g id="edge1" class="edge">
<title>Node1&#45;&gt;Node2</title>
<path fill="none" stroke="midnightblue" d="M360.29,-168.32C343.69,-159.7 318,-146.36 298.78,-136.39"/>
<polygon fill="midnightblue" stroke="midnightblue" points="300.16,-133.16 289.67,-131.65 296.93,-139.37 300.16,-133.16"/>
</g>
<!-- Node9 -->
<g id="node9" class="node">
<title>Node9</title>
<g id="a_node9"><a xlink:title=" ">
<polygon fill="white" stroke="#bfbfbf" points="0,-0.5 0,-19.5 54,-19.5 54,-0.5 0,-0.5"/>
<text text-anchor="middle" x="27" y="-7.5" font-family="Helvetica,sans-Serif" font-size="10.00">iostream</text>
</a>
</g>
</g>
<!-- Node1&#45;&gt;Node9 -->
<g id="edge24" class="edge">
<title>Node1&#45;&gt;Node9</title>
<path fill="none" stroke="midnightblue" d="M313.36,-171.42C270.75,-165.75 214.37,-154.44 169,-132 115.04,-105.3 64.57,-53.58 40.98,-27.25"/>
<polygon fill="midnightblue" stroke="midnightblue" points="43.53,-24.85 34.29,-19.66 38.27,-29.48 43.53,-24.85"/>
</g>
<!-- Node11 -->
<g id="node11" class="node">
<title>Node11</title>
<g id="a_node11"><a xlink:title=" ">
<polygon fill="white" stroke="#bfbfbf" points="72,-0.5 72,-19.5 122,-19.5 122,-0.5 72,-0.5"/>
<text text-anchor="middle" x="97" y="-7.5" font-family="Helvetica,sans-Serif" font-size="10.00">fstream</text>
</a>
</g>
</g>
<!-- Node1&#45;&gt;Node11 -->
<g id="edge25" class="edge">
<title>Node1&#45;&gt;Node11</title>
<path fill="none" stroke="midnightblue" d="M313.16,-170.99C276.88,-165.24 231.88,-153.99 197,-132 154.89,-105.45 121.96,-55.18 106.55,-28.56"/>
<polygon fill="midnightblue" stroke="midnightblue" points="109.47,-26.62 101.52,-19.62 103.37,-30.05 109.47,-26.62"/>
</g>
<!-- Node14 -->
<g id="node14" class="node">
<title>Node14</title>
<g id="a_node14"><a xlink:title=" ">
<polygon fill="white" stroke="#bfbfbf" points="176,-56.5 176,-75.5 214,-75.5 214,-56.5 176,-56.5"/>
<text text-anchor="middle" x="195" y="-63.5" font-family="Helvetica,sans-Serif" font-size="10.00">apf.h</text>
</a>
</g>
</g>
<!-- Node1&#45;&gt;Node14 -->
<g id="edge19" class="edge">
<title>Node1&#45;&gt;Node14</title>
<path fill="none" stroke="midnightblue" d="M313.17,-173.94C279.62,-169.09 240.14,-157.75 214,-132 201.84,-120.02 197.36,-100.72 195.76,-86.26"/>
<polygon fill="midnightblue" stroke="midnightblue" points="199.23,-85.65 195.01,-75.93 192.25,-86.16 199.23,-85.65"/>
</g>
<!-- Node16 -->
<g id="node16" class="node">
<title>Node16</title>
<g id="a_node16"><a xlink:title=" ">
<polygon fill="white" stroke="#bfbfbf" points="448,-56.5 448,-75.5 534,-75.5 534,-56.5 448,-56.5"/>
<text text-anchor="middle" x="491" y="-63.5" font-family="Helvetica,sans-Serif" font-size="10.00">apfNumbering.h</text>
</a>
</g>
</g>
<!-- Node1&#45;&gt;Node16 -->
<g id="edge23" class="edge">
<title>Node1&#45;&gt;Node16</title>
<path fill="none" stroke="midnightblue" d="M372.84,-168.1C367.24,-154.65 359.25,-128.95 371,-112 379.94,-99.1 415.46,-86.76 445.55,-78.27"/>
<polygon fill="midnightblue" stroke="midnightblue" points="446.78,-81.56 455.51,-75.54 444.94,-74.81 446.78,-81.56"/>
</g>
<!-- Node18 -->
<g id="node18" class="node">
<title>Node18</title>
<g id="a_node18"><a xlink:title=" ">
<polygon fill="white" stroke="#bfbfbf" points="379.5,-112.5 379.5,-131.5 426.5,-131.5 426.5,-112.5 379.5,-112.5"/>
<text text-anchor="middle" x="403" y="-119.5" font-family="Helvetica,sans-Serif" font-size="10.00">PCU.h</text>
</a>
</g>
</g>
<!-- Node1&#45;&gt;Node18 -->
<g id="edge17" class="edge">
<title>Node1&#45;&gt;Node18</title>
<path fill="none" stroke="midnightblue" d="M381.29,-168.08C384.85,-160.69 390.02,-149.95 394.42,-140.81"/>
<polygon fill="midnightblue" stroke="midnightblue" points="397.6,-142.28 398.79,-131.75 391.29,-139.24 397.6,-142.28"/>
</g>
<!-- Node19 -->
<g id="node19" class="node">
<title>Node19</title>
<g id="a_node19"><a xlink:title=" ">
<polygon fill="white" stroke="#bfbfbf" points="444.5,-112.5 444.5,-131.5 509.5,-131.5 509.5,-112.5 444.5,-112.5"/>
<text text-anchor="middle" x="477" y="-119.5" font-family="Helvetica,sans-Serif" font-size="10.00">petscksp.h</text>
</a>
</g>
</g>
<!-- Node1&#45;&gt;Node19 -->
<g id="edge18" class="edge">
<title>Node1&#45;&gt;Node19</title>
<path fill="none" stroke="midnightblue" d="M393.07,-168.32C408.96,-159.74 433.51,-146.49 451.96,-136.52"/>
<polygon fill="midnightblue" stroke="midnightblue" points="453.84,-139.49 460.97,-131.65 450.51,-133.33 453.84,-139.49"/>
</g>
<!-- Node20 -->
<g id="node20" class="node">
<title>Node20</title>
<g id="a_node20"><a xlink:title=" ">
<polygon fill="white" stroke="#bfbfbf" points="528,-112.5 528,-131.5 590,-131.5 590,-112.5 528,-112.5"/>
<text text-anchor="middle" x="559" y="-119.5" font-family="Helvetica,sans-Serif" font-size="10.00">apfMesh.h</text>
</a>
</g>
</g>
<!-- Node1&#45;&gt;Node20 -->
<g id="edge20" class="edge">
<title>Node1&#45;&gt;Node20</title>
<path fill="none" stroke="midnightblue" d="M405.84,-168.44C436.86,-159.24 486.33,-144.56 520.62,-134.39"/>
<polygon fill="midnightblue" stroke="midnightblue" points="521.71,-137.72 530.3,-131.52 519.71,-131.01 521.71,-137.72"/>
</g>
<!-- Node21 -->
<g id="node21" class="node">
<title>Node21</title>
<g id="a_node21"><a xlink:title=" ">
<polygon fill="white" stroke="#bfbfbf" points="608,-112.5 608,-131.5 674,-131.5 674,-112.5 608,-112.5"/>
<text text-anchor="middle" x="641" y="-119.5" font-family="Helvetica,sans-Serif" font-size="10.00">apfShape.h</text>
</a>
</g>
</g>
<!-- Node1&#45;&gt;Node21 -->
<g id="edge21" class="edge">
<title>Node1&#45;&gt;Node21</title>
<path fill="none" stroke="midnightblue" d="M420,-168.43C462.65,-159.9 530.13,-146.31 597.98,-132.2"/>
<polygon fill="midnightblue" stroke="midnightblue" points="598.92,-135.58 607.99,-130.11 597.49,-128.72 598.92,-135.58"/>
</g>
<!-- Node22 -->
<g id="node22" class="node">
<title>Node22</title>
<g id="a_node22"><a xlink:title=" ">
<polygon fill="white" stroke="#bfbfbf" points="692,-112.5 692,-131.5 796,-131.5 796,-112.5 692,-112.5"/>
<text text-anchor="middle" x="744" y="-119.5" font-family="Helvetica,sans-Serif" font-size="10.00">apfDynamicMatrix.h</text>
</a>
</g>
</g>
<!-- Node1&#45;&gt;Node22 -->
<g id="edge22" class="edge">
<title>Node1&#45;&gt;Node22</title>
<path fill="none" stroke="midnightblue" d="M435.09,-168.47C494.48,-159.74 589.69,-145.74 681.71,-132.19"/>
<polygon fill="midnightblue" stroke="midnightblue" points="682.37,-135.63 691.76,-130.71 681.35,-128.7 682.37,-135.63"/>
</g>
<!-- Node3 -->
<g id="node3" class="node">
<title>Node3</title>
<g id="a_node3"><a xlink:href="mesh_8h.html" target="_top" xlink:title=" ">
<polygon fill="white" stroke="black" points="232.5,-56.5 232.5,-75.5 281.5,-75.5 281.5,-56.5 232.5,-56.5"/>
<text text-anchor="middle" x="257" y="-63.5" font-family="Helvetica,sans-Serif" font-size="10.00">mesh.h</text>
</a>
</g>
</g>
<!-- Node2&#45;&gt;Node3 -->
<g id="edge2" class="edge">
<title>Node2&#45;&gt;Node3</title>
<path fill="none" stroke="midnightblue" d="M270.36,-112.08C268.21,-104.85 265.12,-94.41 262.45,-85.4"/>
<polygon fill="midnightblue" stroke="midnightblue" points="265.79,-84.34 259.59,-75.75 259.08,-86.33 265.79,-84.34"/>
</g>
<!-- Node2&#45;&gt;Node14 -->
<g id="edge13" class="edge">
<title>Node2&#45;&gt;Node14</title>
<path fill="none" stroke="midnightblue" d="M260.47,-112.32C248.41,-103.98 229.97,-91.21 215.73,-81.35"/>
<polygon fill="midnightblue" stroke="midnightblue" points="217.72,-78.47 207.5,-75.65 213.73,-84.22 217.72,-78.47"/>
</g>
<!-- Node15 -->
<g id="node15" class="node">
<title>Node15</title>
<g id="a_node15"><a xlink:title=" ">
<polygon fill="white" stroke="#bfbfbf" points="300,-56.5 300,-75.5 368,-75.5 368,-56.5 300,-56.5"/>
<text text-anchor="middle" x="334" y="-63.5" font-family="Helvetica,sans-Serif" font-size="10.00">apfMesh2.h</text>
</a>
</g>
</g>
<!-- Node2&#45;&gt;Node15 -->
<g id="edge14" class="edge">
<title>Node2&#45;&gt;Node15</title>
<path fill="none" stroke="midnightblue" d="M282.8,-112.32C291.82,-104.34 305.41,-92.31 316.32,-82.65"/>
<polygon fill="midnightblue" stroke="midnightblue" points="318.85,-85.08 324.02,-75.83 314.21,-79.84 318.85,-85.08"/>
</g>
<!-- Node2&#45;&gt;Node16 -->
<g id="edge15" class="edge">
<title>Node2&#45;&gt;Node16</title>
<path fill="none" stroke="midnightblue" d="M307.54,-112.44C345.25,-103.1 405.74,-88.12 446.86,-77.93"/>
<polygon fill="midnightblue" stroke="midnightblue" points="447.75,-81.32 456.62,-75.52 446.07,-74.52 447.75,-81.32"/>
</g>
<!-- Node17 -->
<g id="node17" class="node">
<title>Node17</title>
<g id="a_node17"><a xlink:title=" ">
<polygon fill="white" stroke="#bfbfbf" points="386.5,-56.5 386.5,-75.5 429.5,-75.5 429.5,-56.5 386.5,-56.5"/>
<text text-anchor="middle" x="408" y="-63.5" font-family="Helvetica,sans-Serif" font-size="10.00">queue</text>
</a>
</g>
</g>
<!-- Node2&#45;&gt;Node17 -->
<g id="edge16" class="edge">
<title>Node2&#45;&gt;Node17</title>
<path fill="none" stroke="midnightblue" d="M294.39,-112.44C316.71,-103.52 351.9,-89.44 377.21,-79.32"/>
<polygon fill="midnightblue" stroke="midnightblue" points="378.72,-82.48 386.71,-75.52 376.12,-75.98 378.72,-82.48"/>
</g>
<!-- Node4 -->
<g id="node4" class="node">
<title>Node4</title>
<g id="a_node4"><a xlink:title=" ">
<polygon fill="white" stroke="#bfbfbf" points="270,-0.5 270,-19.5 300,-19.5 300,-0.5 270,-0.5"/>
<text text-anchor="middle" x="285" y="-7.5" font-family="Helvetica,sans-Serif" font-size="10.00">set</text>
</a>
</g>
</g>
<!-- Node3&#45;&gt;Node4 -->
<g id="edge3" class="edge">
<title>Node3&#45;&gt;Node4</title>
<path fill="none" stroke="midnightblue" d="M261.62,-56.08C265.46,-48.69 271.02,-37.95 275.76,-28.81"/>
<polygon fill="midnightblue" stroke="midnightblue" points="278.97,-30.24 280.46,-19.75 272.75,-27.02 278.97,-30.24"/>
</g>
<!-- Node5 -->
<g id="node5" class="node">
<title>Node5</title>
<g id="a_node5"><a xlink:title=" ">
<polygon fill="white" stroke="#bfbfbf" points="318,-0.5 318,-19.5 362,-19.5 362,-0.5 318,-0.5"/>
<text text-anchor="middle" x="340" y="-7.5" font-family="Helvetica,sans-Serif" font-size="10.00">vector</text>
</a>
</g>
</g>
<!-- Node3&#45;&gt;Node5 -->
<g id="edge4" class="edge">
<title>Node3&#45;&gt;Node5</title>
<path fill="none" stroke="midnightblue" d="M270.34,-56.32C283.16,-47.98 302.78,-35.21 317.94,-25.35"/>
<polygon fill="midnightblue" stroke="midnightblue" points="320.22,-28.04 326.7,-19.65 316.41,-22.17 320.22,-28.04"/>
</g>
<!-- Node6 -->
<g id="node6" class="node">
<title>Node6</title>
<g id="a_node6"><a xlink:title=" ">
<polygon fill="white" stroke="#bfbfbf" points="380,-0.5 380,-19.5 436,-19.5 436,-0.5 380,-0.5"/>
<text text-anchor="middle" x="408" y="-7.5" font-family="Helvetica,sans-Serif" font-size="10.00">algorithm</text>
</a>
</g>
</g>
<!-- Node3&#45;&gt;Node6 -->
<g id="edge5" class="edge">
<title>Node3&#45;&gt;Node6</title>
<path fill="none" stroke="midnightblue" d="M280.93,-56.44C306.22,-47.4 346.3,-33.06 374.68,-22.92"/>
<polygon fill="midnightblue" stroke="midnightblue" points="375.95,-26.18 384.19,-19.52 373.59,-19.59 375.95,-26.18"/>
</g>
<!-- Node7 -->
<g id="node7" class="node">
<title>Node7</title>
<g id="a_node7"><a xlink:title=" ">
<polygon fill="white" stroke="#bfbfbf" points="454.5,-0.5 454.5,-19.5 489.5,-19.5 489.5,-0.5 454.5,-0.5"/>
<text text-anchor="middle" x="472" y="-7.5" font-family="Helvetica,sans-Serif" font-size="10.00">map</text>
</a>
</g>
</g>
<!-- Node3&#45;&gt;Node7 -->
<g id="edge6" class="edge">
<title>Node3&#45;&gt;Node7</title>
<path fill="none" stroke="midnightblue" d="M281.86,-58.33C284.94,-57.53 288.04,-56.74 291,-56 356.14,-39.77 375.63,-39.16 444.32,-19.97"/>
<polygon fill="midnightblue" stroke="midnightblue" points="445.68,-23.23 454.35,-17.14 443.78,-16.49 445.68,-23.23"/>
</g>
<!-- Node8 -->
<g id="node8" class="node">
<title>Node8</title>
<g id="a_node8"><a xlink:title=" ">
<polygon fill="white" stroke="#bfbfbf" points="507.5,-0.5 507.5,-19.5 536.5,-19.5 536.5,-0.5 507.5,-0.5"/>
<text text-anchor="middle" x="522" y="-7.5" font-family="Helvetica,sans-Serif" font-size="10.00">list</text>
</a>
</g>
</g>
<!-- Node3&#45;&gt;Node8 -->
<g id="edge7" class="edge">
<title>Node3&#45;&gt;Node8</title>
<path fill="none" stroke="midnightblue" d="M281.82,-58.16C284.9,-57.39 288.02,-56.65 291,-56 379.52,-36.66 406.78,-44.62 497.21,-20.08"/>
<polygon fill="midnightblue" stroke="midnightblue" points="498.35,-23.39 507.05,-17.35 496.48,-16.65 498.35,-23.39"/>
</g>
<!-- Node3&#45;&gt;Node9 -->
<g id="edge8" class="edge">
<title>Node3&#45;&gt;Node9</title>
<path fill="none" stroke="midnightblue" d="M232.15,-58.31C229.07,-57.51 225.97,-56.73 223,-56 155.24,-39.42 135.59,-37.03 64.07,-20.21"/>
<polygon fill="midnightblue" stroke="midnightblue" points="64.65,-16.75 54.11,-17.85 63.04,-23.56 64.65,-16.75"/>
</g>
<!-- Node10 -->
<g id="node10" class="node">
<title>Node10</title>
<g id="a_node10"><a xlink:title=" ">
<polygon fill="white" stroke="#bfbfbf" points="555,-0.5 555,-19.5 605,-19.5 605,-0.5 555,-0.5"/>
<text text-anchor="middle" x="580" y="-7.5" font-family="Helvetica,sans-Serif" font-size="10.00">iomanip</text>
</a>
</g>
</g>
<!-- Node3&#45;&gt;Node10 -->
<g id="edge9" class="edge">
<title>Node3&#45;&gt;Node10</title>
<path fill="none" stroke="midnightblue" d="M281.8,-58.07C284.89,-57.32 288.01,-56.61 291,-56 400.01,-33.96 432.01,-42.18 544.76,-20.03"/>
<polygon fill="midnightblue" stroke="midnightblue" points="545.71,-23.41 554.83,-18.02 544.33,-16.55 545.71,-23.41"/>
</g>
<!-- Node3&#45;&gt;Node11 -->
<g id="edge10" class="edge">
<title>Node3&#45;&gt;Node11</title>
<path fill="none" stroke="midnightblue" d="M232.35,-56.68C205.49,-47.62 162.32,-33.04 131.96,-22.8"/>
<polygon fill="midnightblue" stroke="midnightblue" points="132.8,-19.39 122.21,-19.51 130.56,-26.02 132.8,-19.39"/>
</g>
<!-- Node12 -->
<g id="node12" class="node">
<title>Node12</title>
<g id="a_node12"><a xlink:title=" ">
<polygon fill="white" stroke="#bfbfbf" points="140.5,-0.5 140.5,-19.5 189.5,-19.5 189.5,-0.5 140.5,-0.5"/>
<text text-anchor="middle" x="165" y="-7.5" font-family="Helvetica,sans-Serif" font-size="10.00">cassert</text>
</a>
</g>
</g>
<!-- Node3&#45;&gt;Node12 -->
<g id="edge11" class="edge">
<title>Node3&#45;&gt;Node12</title>
<path fill="none" stroke="midnightblue" d="M242.22,-56.32C227.73,-47.82 205.43,-34.73 188.51,-24.8"/>
<polygon fill="midnightblue" stroke="midnightblue" points="190.14,-21.7 179.74,-19.65 186.6,-27.74 190.14,-21.7"/>
</g>
<!-- Node13 -->
<g id="node13" class="node">
<title>Node13</title>
<g id="a_node13"><a xlink:title=" ">
<polygon fill="white" stroke="#bfbfbf" points="208,-0.5 208,-19.5 252,-19.5 252,-0.5 208,-0.5"/>
<text text-anchor="middle" x="230" y="-7.5" font-family="Helvetica,sans-Serif" font-size="10.00">cmath</text>
</a>
</g>
</g>
<!-- Node3&#45;&gt;Node13 -->
<g id="edge12" class="edge">
<title>Node3&#45;&gt;Node13</title>
<path fill="none" stroke="midnightblue" d="M252.54,-56.08C248.85,-48.69 243.48,-37.95 238.91,-28.81"/>
<polygon fill="midnightblue" stroke="midnightblue" points="241.98,-27.13 234.38,-19.75 235.72,-30.26 241.98,-27.13"/>
</g>
</g>
</svg>
