<?xml version="1.0" encoding="UTF-8" standalone="no"?>
<!DOCTYPE svg PUBLIC "-//W3C//DTD SVG 1.1//EN"
 "http://www.w3.org/Graphics/SVG/1.1/DTD/svg11.dtd">
<!-- Generated by graphviz version 2.40.1 (20161225.0304)
 -->
<!-- Title: Fourier.cpp Pages: 1 -->
<svg width="616pt" height="84pt"
 viewBox="0.00 0.00 615.50 84.00" xmlns="http://www.w3.org/2000/svg" xmlns:xlink="http://www.w3.org/1999/xlink">
<g id="graph0" class="graph" transform="scale(1 1) rotate(0) translate(4 80)">
<title>Fourier.cpp</title>
<polygon fill="#ffffff" stroke="transparent" points="-4,4 -4,-80 611.5,-80 611.5,4 -4,4"/>
<!-- Node0 -->
<g id="node1" class="node">
<title>Node0</title>
<polygon fill="#bfbfbf" stroke="#000000" points="252,-56.5 252,-75.5 317,-75.5 317,-56.5 252,-56.5"/>
<text text-anchor="middle" x="284.5" y="-63.5" font-family="Helvetica,sans-Serif" font-size="10.00" fill="#000000">Fourier.cpp</text>
</g>
<!-- Node1 -->
<g id="node2" class="node">
<title>Node1</title>
<polygon fill="#ffffff" stroke="#bfbfbf" points="0,-.5 0,-19.5 47,-19.5 47,-.5 0,-.5"/>
<text text-anchor="middle" x="23.5" y="-7.5" font-family="Helvetica,sans-Serif" font-size="10.00" fill="#000000">math.h</text>
</g>
<!-- Node0&#45;&gt;Node1 -->
<g id="edge1" class="edge">
<title>Node0&#45;&gt;Node1</title>
<path fill="none" stroke="#191970" d="M251.8104,-60.4149C209.2511,-52.9241 132.3903,-38.6485 57.3157,-20.0175"/>
<polygon fill="#191970" stroke="#191970" points="57.769,-16.5227 47.2177,-17.4819 56.0642,-23.3119 57.769,-16.5227"/>
</g>
<!-- Node2 -->
<g id="node3" class="node">
<title>Node2</title>
<polygon fill="#ffffff" stroke="#bfbfbf" points="65.5,-.5 65.5,-19.5 111.5,-19.5 111.5,-.5 65.5,-.5"/>
<text text-anchor="middle" x="88.5" y="-7.5" font-family="Helvetica,sans-Serif" font-size="10.00" fill="#000000">stdio.h</text>
</g>
<!-- Node0&#45;&gt;Node2 -->
<g id="edge2" class="edge">
<title>Node0&#45;&gt;Node2</title>
<path fill="none" stroke="#191970" d="M251.7467,-57.1181C220.5924,-48.6025 172.1752,-35.1951 121.3917,-20.2077"/>
<polygon fill="#191970" stroke="#191970" points="122.1296,-16.776 111.5473,-17.2912 120.1411,-23.4877 122.1296,-16.776"/>
</g>
<!-- Node3 -->
<g id="node4" class="node">
<title>Node3</title>
<polygon fill="#ffffff" stroke="#bfbfbf" points="129.5,-.5 129.5,-19.5 197.5,-19.5 197.5,-.5 129.5,-.5"/>
<text text-anchor="middle" x="163.5" y="-7.5" font-family="Helvetica,sans-Serif" font-size="10.00" fill="#000000">sys/types.h</text>
</g>
<!-- Node0&#45;&gt;Node3 -->
<g id="edge3" class="edge">
<title>Node0&#45;&gt;Node3</title>
<path fill="none" stroke="#191970" d="M263.6994,-56.3733C244.2757,-47.3838 215.0776,-33.8706 193.2036,-23.7471"/>
<polygon fill="#191970" stroke="#191970" points="194.5745,-20.5249 184.0292,-19.5011 191.6344,-26.8776 194.5745,-20.5249"/>
</g>
<!-- Node4 -->
<g id="node5" class="node">
<title>Node4</title>
<polygon fill="#ffffff" stroke="#bfbfbf" points="216,-.5 216,-19.5 265,-19.5 265,-.5 216,-.5"/>
<text text-anchor="middle" x="240.5" y="-7.5" font-family="Helvetica,sans-Serif" font-size="10.00" fill="#000000">string.h</text>
</g>
<!-- Node0&#45;&gt;Node4 -->
<g id="edge4" class="edge">
<title>Node0&#45;&gt;Node4</title>
<path fill="none" stroke="#191970" d="M276.8358,-56.2455C270.6527,-48.3761 261.7937,-37.101 254.3711,-27.6542"/>
<polygon fill="#191970" stroke="#191970" points="257.0068,-25.3435 248.0764,-19.6427 251.5025,-29.6683 257.0068,-25.3435"/>
</g>
<!-- Node5 -->
<g id="node6" class="node">
<title>Node5</title>
<polygon fill="#ffffff" stroke="#bfbfbf" points="283.5,-.5 283.5,-19.5 375.5,-19.5 375.5,-.5 283.5,-.5"/>
<text text-anchor="middle" x="329.5" y="-7.5" font-family="Helvetica,sans-Serif" font-size="10.00" fill="#000000">ncurses/curses.h</text>
</g>
<!-- Node0&#45;&gt;Node5 -->
<g id="edge5" class="edge">
<title>Node0&#45;&gt;Node5</title>
<path fill="none" stroke="#191970" d="M292.3384,-56.2455C298.662,-48.3761 307.7224,-37.101 315.3136,-27.6542"/>
<polygon fill="#191970" stroke="#191970" points="318.2158,-29.6302 321.7514,-19.6427 312.7592,-25.2454 318.2158,-29.6302"/>
</g>
<!-- Node6 -->
<g id="node7" class="node">
<title>Node6</title>
<polygon fill="#ffffff" stroke="#bfbfbf" points="393.5,-.5 393.5,-19.5 441.5,-19.5 441.5,-.5 393.5,-.5"/>
<text text-anchor="middle" x="417.5" y="-7.5" font-family="Helvetica,sans-Serif" font-size="10.00" fill="#000000">stdlib.h</text>
</g>
<!-- Node0&#45;&gt;Node6 -->
<g id="edge6" class="edge">
<title>Node0&#45;&gt;Node6</title>
<path fill="none" stroke="#191970" d="M307.3635,-56.3733C328.905,-47.3032 361.3838,-33.6279 385.4956,-23.4755"/>
<polygon fill="#191970" stroke="#191970" points="387.0767,-26.6075 394.9348,-19.5011 384.3603,-20.156 387.0767,-26.6075"/>
</g>
<!-- Node7 -->
<g id="node8" class="node">
<title>Node7</title>
<g id="a_node8"><a xlink:href="_allocation_8h.html" target="_top" xlink:title="Allocation.h">
<polygon fill="#ffffff" stroke="#000000" points="459.5,-.5 459.5,-19.5 527.5,-19.5 527.5,-.5 459.5,-.5"/>
<text text-anchor="middle" x="493.5" y="-7.5" font-family="Helvetica,sans-Serif" font-size="10.00" fill="#000000">Allocation.h</text>
</a>
</g>
</g>
<!-- Node0&#45;&gt;Node7 -->
<g id="edge7" class="edge">
<title>Node0&#45;&gt;Node7</title>
<path fill="none" stroke="#191970" d="M317.1563,-57.25C352.748,-47.7134 409.8905,-32.4026 449.4371,-21.8063"/>
<polygon fill="#191970" stroke="#191970" points="450.5853,-25.1222 459.3387,-19.1533 448.7736,-18.3607 450.5853,-25.1222"/>
</g>
<!-- Node8 -->
<g id="node9" class="node">
<title>Node8</title>
<g id="a_node9"><a xlink:href="_headers_8h.html" target="_top" xlink:title="Headers.h">
<polygon fill="#ffffff" stroke="#000000" points="545.5,-.5 545.5,-19.5 607.5,-19.5 607.5,-.5 545.5,-.5"/>
<text text-anchor="middle" x="576.5" y="-7.5" font-family="Helvetica,sans-Serif" font-size="10.00" fill="#000000">Headers.h</text>
</a>
</g>
</g>
<!-- Node0&#45;&gt;Node8 -->
<g id="edge8" class="edge">
<title>Node0&#45;&gt;Node8</title>
<path fill="none" stroke="#191970" d="M317.2541,-60.714C363.6206,-53.0806 451.25,-38.1016 535.1557,-20.1932"/>
<polygon fill="#191970" stroke="#191970" points="536.0621,-23.5784 545.1018,-18.0526 534.5892,-16.7351 536.0621,-23.5784"/>
</g>
</g>
</svg>
