<?xml version="1.0" encoding="UTF-8" standalone="no"?>
<!DOCTYPE svg PUBLIC "-//W3C//DTD SVG 1.1//EN"
 "http://www.w3.org/Graphics/SVG/1.1/DTD/svg11.dtd">
<!-- Generated by graphviz version 2.44.1 (20200629.0846)
 -->
<!-- Title: GN_SW2DCV.cpp Pages: 1 -->
<svg width="597pt" height="196pt"
 viewBox="0.00 0.00 597.00 196.00" xmlns="http://www.w3.org/2000/svg" xmlns:xlink="http://www.w3.org/1999/xlink">
<g id="graph0" class="graph" transform="scale(1 1) rotate(0) translate(4 192)">
<title>GN_SW2DCV.cpp</title>
<polygon fill="white" stroke="transparent" points="-4,4 -4,-192 593,-192 593,4 -4,4"/>
<!-- Node1 -->
<g id="node1" class="node">
<title>Node1</title>
<g id="a_node1"><a xlink:title=" ">
<polygon fill="#bfbfbf" stroke="black" points="126,-168.5 126,-187.5 224,-187.5 224,-168.5 126,-168.5"/>
<text text-anchor="middle" x="175" y="-175.5" font-family="Helvetica,sans-Serif" font-size="10.00">GN_SW2DCV.cpp</text>
</a>
</g>
</g>
<!-- Node2 -->
<g id="node2" class="node">
<title>Node2</title>
<g id="a_node2"><a xlink:title=" ">
<polygon fill="white" stroke="#bfbfbf" points="0,-112.5 0,-131.5 106,-131.5 106,-112.5 0,-112.5"/>
<text text-anchor="middle" x="53" y="-119.5" font-family="Helvetica,sans-Serif" font-size="10.00">pybind11/pybind11.h</text>
</a>
</g>
</g>
<!-- Node1&#45;&gt;Node2 -->
<g id="edge1" class="edge">
<title>Node1&#45;&gt;Node2</title>
<path fill="none" stroke="midnightblue" d="M155.67,-168.44C135.68,-159.6 104.26,-145.69 81.44,-135.59"/>
<polygon fill="midnightblue" stroke="midnightblue" points="82.8,-132.36 72.24,-131.52 79.97,-138.76 82.8,-132.36"/>
</g>
<!-- Node3 -->
<g id="node3" class="node">
<title>Node3</title>
<g id="a_node3"><a xlink:title=" ">
<polygon fill="white" stroke="#bfbfbf" points="124.5,-112.5 124.5,-131.5 225.5,-131.5 225.5,-112.5 124.5,-112.5"/>
<text text-anchor="middle" x="175" y="-119.5" font-family="Helvetica,sans-Serif" font-size="10.00">pybind11/stl_bind.h</text>
</a>
</g>
</g>
<!-- Node1&#45;&gt;Node3 -->
<g id="edge2" class="edge">
<title>Node1&#45;&gt;Node3</title>
<path fill="none" stroke="midnightblue" d="M175,-168.08C175,-161.01 175,-150.86 175,-141.99"/>
<polygon fill="midnightblue" stroke="midnightblue" points="178.5,-141.75 175,-131.75 171.5,-141.75 178.5,-141.75"/>
</g>
<!-- Node4 -->
<g id="node4" class="node">
<title>Node4</title>
<g id="a_node4"><a xlink:href="_g_n___s_w2_d_c_v_8h.html" target="_top" xlink:title=" ">
<polygon fill="white" stroke="black" points="243.5,-112.5 243.5,-131.5 330.5,-131.5 330.5,-112.5 243.5,-112.5"/>
<text text-anchor="middle" x="287" y="-119.5" font-family="Helvetica,sans-Serif" font-size="10.00">GN_SW2DCV.h</text>
</a>
</g>
</g>
<!-- Node1&#45;&gt;Node4 -->
<g id="edge3" class="edge">
<title>Node1&#45;&gt;Node4</title>
<path fill="none" stroke="midnightblue" d="M192.99,-168.32C211.04,-159.62 239.05,-146.12 259.8,-136.11"/>
<polygon fill="midnightblue" stroke="midnightblue" points="261.56,-139.15 269.05,-131.65 258.52,-132.84 261.56,-139.15"/>
</g>
<!-- Node5 -->
<g id="node5" class="node">
<title>Node5</title>
<g id="a_node5"><a xlink:href="_comp_kernel_8h.html" target="_top" xlink:title=" ">
<polygon fill="white" stroke="black" points="39.5,-56.5 39.5,-75.5 118.5,-75.5 118.5,-56.5 39.5,-56.5"/>
<text text-anchor="middle" x="79" y="-63.5" font-family="Helvetica,sans-Serif" font-size="10.00">CompKernel.h</text>
</a>
</g>
</g>
<!-- Node4&#45;&gt;Node5 -->
<g id="edge4" class="edge">
<title>Node4&#45;&gt;Node5</title>
<path fill="none" stroke="midnightblue" d="M254.04,-112.44C218.21,-103.14 160.84,-88.25 121.61,-78.06"/>
<polygon fill="midnightblue" stroke="midnightblue" points="122.36,-74.64 111.8,-75.52 120.6,-81.42 122.36,-74.64"/>
</g>
<!-- Node6 -->
<g id="node6" class="node">
<title>Node6</title>
<g id="a_node6"><a xlink:title=" ">
<polygon fill="white" stroke="#bfbfbf" points="91,-0.5 91,-19.5 135,-19.5 135,-0.5 91,-0.5"/>
<text text-anchor="middle" x="113" y="-7.5" font-family="Helvetica,sans-Serif" font-size="10.00">cmath</text>
</a>
</g>
</g>
<!-- Node4&#45;&gt;Node6 -->
<g id="edge9" class="edge">
<title>Node4&#45;&gt;Node6</title>
<path fill="none" stroke="midnightblue" d="M249.05,-112.46C223.86,-105.51 190.97,-93.88 166,-76 148.13,-63.21 132.91,-42.9 123.42,-28.39"/>
<polygon fill="midnightblue" stroke="midnightblue" points="126.33,-26.44 118.05,-19.83 120.4,-30.16 126.33,-26.44"/>
</g>
<!-- Node7 -->
<g id="node7" class="node">
<title>Node7</title>
<g id="a_node7"><a xlink:href="_model_factory_8h.html" target="_top" xlink:title=" ">
<polygon fill="white" stroke="black" points="175.5,-56.5 175.5,-75.5 258.5,-75.5 258.5,-56.5 175.5,-56.5"/>
<text text-anchor="middle" x="217" y="-63.5" font-family="Helvetica,sans-Serif" font-size="10.00">ModelFactory.h</text>
</a>
</g>
</g>
<!-- Node4&#45;&gt;Node7 -->
<g id="edge6" class="edge">
<title>Node4&#45;&gt;Node7</title>
<path fill="none" stroke="midnightblue" d="M275.75,-112.32C265.2,-104.18 249.2,-91.84 236.56,-82.09"/>
<polygon fill="midnightblue" stroke="midnightblue" points="238.51,-79.17 228.45,-75.83 234.23,-84.71 238.51,-79.17"/>
</g>
<!-- Node8 -->
<g id="node8" class="node">
<title>Node8</title>
<g id="a_node8"><a xlink:title=" ">
<polygon fill="white" stroke="#bfbfbf" points="225,-0.5 225,-19.5 279,-19.5 279,-0.5 225,-0.5"/>
<text text-anchor="middle" x="252" y="-7.5" font-family="Helvetica,sans-Serif" font-size="10.00">iostream</text>
</a>
</g>
</g>
<!-- Node4&#45;&gt;Node8 -->
<g id="edge10" class="edge">
<title>Node4&#45;&gt;Node8</title>
<path fill="none" stroke="midnightblue" d="M284.58,-112.12C281.11,-99.56 274.44,-75.91 268,-56 265.12,-47.11 261.68,-37.34 258.73,-29.17"/>
<polygon fill="midnightblue" stroke="midnightblue" points="261.94,-27.76 255.21,-19.58 255.37,-30.17 261.94,-27.76"/>
</g>
<!-- Node9 -->
<g id="node9" class="node">
<title>Node9</title>
<g id="a_node9"><a xlink:title=" ">
<polygon fill="white" stroke="#bfbfbf" points="315,-56.5 315,-75.5 367,-75.5 367,-56.5 315,-56.5"/>
<text text-anchor="middle" x="341" y="-63.5" font-family="Helvetica,sans-Serif" font-size="10.00">assert.h</text>
</a>
</g>
</g>
<!-- Node4&#45;&gt;Node9 -->
<g id="edge8" class="edge">
<title>Node4&#45;&gt;Node9</title>
<path fill="none" stroke="midnightblue" d="M295.92,-112.08C303.78,-104.22 315.43,-92.57 324.92,-83.08"/>
<polygon fill="midnightblue" stroke="midnightblue" points="327.65,-85.3 332.25,-75.75 322.7,-80.35 327.65,-85.3"/>
</g>
<!-- Node10 -->
<g id="node10" class="node">
<title>Node10</title>
<g id="a_node10"><a xlink:title=" ">
<polygon fill="white" stroke="#bfbfbf" points="385.5,-56.5 385.5,-75.5 436.5,-75.5 436.5,-56.5 385.5,-56.5"/>
<text text-anchor="middle" x="411" y="-63.5" font-family="Helvetica,sans-Serif" font-size="10.00">valarray</text>
</a>
</g>
</g>
<!-- Node4&#45;&gt;Node10 -->
<g id="edge11" class="edge">
<title>Node4&#45;&gt;Node10</title>
<path fill="none" stroke="midnightblue" d="M306.65,-112.44C326.96,-103.6 358.9,-89.69 382.1,-79.59"/>
<polygon fill="midnightblue" stroke="midnightblue" points="383.67,-82.72 391.44,-75.52 380.88,-76.3 383.67,-82.72"/>
</g>
<!-- Node11 -->
<g id="node11" class="node">
<title>Node11</title>
<g id="a_node11"><a xlink:title=" ">
<polygon fill="white" stroke="#bfbfbf" points="455,-56.5 455,-75.5 589,-75.5 589,-56.5 455,-56.5"/>
<text text-anchor="middle" x="522" y="-63.5" font-family="Helvetica,sans-Serif" font-size="10.00">xtensor&#45;python/pyarray.hpp</text>
</a>
</g>
</g>
<!-- Node4&#45;&gt;Node11 -->
<g id="edge12" class="edge">
<title>Node4&#45;&gt;Node11</title>
<path fill="none" stroke="midnightblue" d="M324.24,-112.44C365.06,-103.06 430.64,-87.99 474.98,-77.8"/>
<polygon fill="midnightblue" stroke="midnightblue" points="475.98,-81.17 484.94,-75.52 474.41,-74.34 475.98,-81.17"/>
</g>
<!-- Node5&#45;&gt;Node6 -->
<g id="edge5" class="edge">
<title>Node5&#45;&gt;Node6</title>
<path fill="none" stroke="midnightblue" d="M84.61,-56.08C89.37,-48.53 96.32,-37.49 102.15,-28.23"/>
<polygon fill="midnightblue" stroke="midnightblue" points="105.12,-30.08 107.49,-19.75 99.2,-26.35 105.12,-30.08"/>
</g>
<!-- Node7&#45;&gt;Node8 -->
<g id="edge7" class="edge">
<title>Node7&#45;&gt;Node8</title>
<path fill="none" stroke="midnightblue" d="M222.78,-56.08C227.67,-48.53 234.83,-37.49 240.83,-28.23"/>
<polygon fill="midnightblue" stroke="midnightblue" points="243.83,-30.05 246.33,-19.75 237.95,-26.24 243.83,-30.05"/>
</g>
</g>
</svg>
