<?xml version="1.0" encoding="UTF-8" standalone="no"?>
<!DOCTYPE svg PUBLIC "-//W3C//DTD SVG 1.1//EN"
 "http://www.w3.org/Graphics/SVG/1.1/DTD/svg11.dtd">
<!-- Generated by graphviz version 2.40.1 (20161225.0304)
 -->
<!-- Title: Inout.cpp Pages: 1 -->
<svg width="444pt" height="84pt"
 viewBox="0.00 0.00 443.50 84.00" xmlns="http://www.w3.org/2000/svg" xmlns:xlink="http://www.w3.org/1999/xlink">
<g id="graph0" class="graph" transform="scale(1 1) rotate(0) translate(4 80)">
<title>Inout.cpp</title>
<polygon fill="#ffffff" stroke="transparent" points="-4,4 -4,-80 439.5,-80 439.5,4 -4,4"/>
<!-- Node0 -->
<g id="node1" class="node">
<title>Node0</title>
<polygon fill="#bfbfbf" stroke="#000000" points="202,-56.5 202,-75.5 259,-75.5 259,-56.5 202,-56.5"/>
<text text-anchor="middle" x="230.5" y="-63.5" font-family="Helvetica,sans-Serif" font-size="10.00" fill="#000000">Inout.cpp</text>
</g>
<!-- Node1 -->
<g id="node2" class="node">
<title>Node1</title>
<polygon fill="#ffffff" stroke="#bfbfbf" points="0,-.5 0,-19.5 47,-19.5 47,-.5 0,-.5"/>
<text text-anchor="middle" x="23.5" y="-7.5" font-family="Helvetica,sans-Serif" font-size="10.00" fill="#000000">math.h</text>
</g>
<!-- Node0&#45;&gt;Node1 -->
<g id="edge1" class="edge">
<title>Node0&#45;&gt;Node1</title>
<path fill="none" stroke="#191970" d="M201.7799,-58.743C169.103,-50.413 113.9137,-36.1235 57.1301,-20.1079"/>
<polygon fill="#191970" stroke="#191970" points="57.8386,-16.6709 47.2632,-17.3118 55.93,-23.4057 57.8386,-16.6709"/>
</g>
<!-- Node2 -->
<g id="node3" class="node">
<title>Node2</title>
<polygon fill="#ffffff" stroke="#bfbfbf" points="65.5,-.5 65.5,-19.5 157.5,-19.5 157.5,-.5 65.5,-.5"/>
<text text-anchor="middle" x="111.5" y="-7.5" font-family="Helvetica,sans-Serif" font-size="10.00" fill="#000000">ncurses/curses.h</text>
</g>
<!-- Node0&#45;&gt;Node2 -->
<g id="edge2" class="edge">
<title>Node0&#45;&gt;Node2</title>
<path fill="none" stroke="#191970" d="M210.0432,-56.3733C191.0262,-47.4241 162.4825,-33.9917 141.0024,-23.8835"/>
<polygon fill="#191970" stroke="#191970" points="142.2284,-20.5923 131.6899,-19.5011 139.2478,-26.926 142.2284,-20.5923"/>
</g>
<!-- Node3 -->
<g id="node4" class="node">
<title>Node3</title>
<polygon fill="#ffffff" stroke="#bfbfbf" points="175.5,-.5 175.5,-19.5 221.5,-19.5 221.5,-.5 175.5,-.5"/>
<text text-anchor="middle" x="198.5" y="-7.5" font-family="Helvetica,sans-Serif" font-size="10.00" fill="#000000">stdio.h</text>
</g>
<!-- Node0&#45;&gt;Node3 -->
<g id="edge3" class="edge">
<title>Node0&#45;&gt;Node3</title>
<path fill="none" stroke="#191970" d="M224.926,-56.2455C220.5669,-48.617 214.3789,-37.7881 209.0867,-28.5267"/>
<polygon fill="#191970" stroke="#191970" points="212.0104,-26.5886 204.0101,-19.6427 205.9327,-30.0616 212.0104,-26.5886"/>
</g>
<!-- Node4 -->
<g id="node5" class="node">
<title>Node4</title>
<polygon fill="#ffffff" stroke="#bfbfbf" points="239.5,-.5 239.5,-19.5 287.5,-19.5 287.5,-.5 239.5,-.5"/>
<text text-anchor="middle" x="263.5" y="-7.5" font-family="Helvetica,sans-Serif" font-size="10.00" fill="#000000">stdlib.h</text>
</g>
<!-- Node0&#45;&gt;Node4 -->
<g id="edge4" class="edge">
<title>Node0&#45;&gt;Node4</title>
<path fill="none" stroke="#191970" d="M236.2482,-56.2455C240.7435,-48.617 247.1248,-37.7881 252.5825,-28.5267"/>
<polygon fill="#191970" stroke="#191970" points="255.7561,-30.035 257.8177,-19.6427 249.7253,-26.4811 255.7561,-30.035"/>
</g>
<!-- Node5 -->
<g id="node6" class="node">
<title>Node5</title>
<polygon fill="#ffffff" stroke="#bfbfbf" points="306,-.5 306,-19.5 355,-19.5 355,-.5 306,-.5"/>
<text text-anchor="middle" x="330.5" y="-7.5" font-family="Helvetica,sans-Serif" font-size="10.00" fill="#000000">string.h</text>
</g>
<!-- Node0&#45;&gt;Node5 -->
<g id="edge5" class="edge">
<title>Node0&#45;&gt;Node5</title>
<path fill="none" stroke="#191970" d="M247.9187,-56.2455C263.5485,-47.4928 286.7019,-34.527 304.5185,-24.5496"/>
<polygon fill="#191970" stroke="#191970" points="306.266,-27.5825 313.2809,-19.6427 302.8457,-21.475 306.266,-27.5825"/>
</g>
<!-- Node6 -->
<g id="node7" class="node">
<title>Node6</title>
<g id="a_node7"><a xlink:href="_headers_8h.html" target="_top" xlink:title="Headers.h">
<polygon fill="#ffffff" stroke="#000000" points="373.5,-.5 373.5,-19.5 435.5,-19.5 435.5,-.5 373.5,-.5"/>
<text text-anchor="middle" x="404.5" y="-7.5" font-family="Helvetica,sans-Serif" font-size="10.00" fill="#000000">Headers.h</text>
</a>
</g>
</g>
<!-- Node0&#45;&gt;Node6 -->
<g id="edge6" class="edge">
<title>Node0&#45;&gt;Node6</title>
<path fill="none" stroke="#191970" d="M259.2326,-56.7527C288.1871,-47.434 333.0773,-32.9866 365.2918,-22.6187"/>
<polygon fill="#191970" stroke="#191970" points="366.404,-25.9377 374.8508,-19.5423 364.2594,-19.2743 366.404,-25.9377"/>
</g>
</g>
</svg>
