<?xml version="1.0" encoding="UTF-8" standalone="no"?>
<!DOCTYPE svg PUBLIC "-//W3C//DTD SVG 1.1//EN"
 "http://www.w3.org/Graphics/SVG/1.1/DTD/svg11.dtd">
<!-- Generated by graphviz version 2.43.0 (0)
 -->
<!-- Title: Kappa.h Pages: 1 -->
<svg width="737pt" height="140pt"
 viewBox="0.00 0.00 736.50 140.00" xmlns="http://www.w3.org/2000/svg" xmlns:xlink="http://www.w3.org/1999/xlink">
<g id="graph0" class="graph" transform="scale(1 1) rotate(0) translate(4 136)">
<title>Kappa.h</title>
<polygon fill="white" stroke="transparent" points="-4,4 -4,-136 732.5,-136 732.5,4 -4,4"/>
<!-- Node1 -->
<g id="node1" class="node">
<title>Node1</title>
<g id="a_node1"><a xlink:title=" ">
<polygon fill="#bfbfbf" stroke="black" points="221.5,-112.5 221.5,-131.5 277.5,-131.5 277.5,-112.5 221.5,-112.5"/>
<text text-anchor="middle" x="249.5" y="-119.5" font-family="Helvetica,sans-Serif" font-size="10.00">Kappa.h</text>
</a>
</g>
</g>
<!-- Node2 -->
<g id="node2" class="node">
<title>Node2</title>
<g id="a_node2"><a xlink:title=" ">
<polygon fill="white" stroke="#bfbfbf" points="90,-0.5 90,-19.5 137,-19.5 137,-0.5 90,-0.5"/>
<text text-anchor="middle" x="113.5" y="-7.5" font-family="Helvetica,sans-Serif" font-size="10.00">cmath</text>
</a>
</g>
</g>
<!-- Node1&#45;&gt;Node2 -->
<g id="edge1" class="edge">
<title>Node1&#45;&gt;Node2</title>
<path fill="none" stroke="midnightblue" d="M221.43,-117.39C194.9,-112.51 155.79,-101.3 132.5,-76 120.94,-63.44 116.38,-44.22 114.6,-29.93"/>
<polygon fill="midnightblue" stroke="midnightblue" points="118.07,-29.4 113.69,-19.76 111.09,-30.03 118.07,-29.4"/>
</g>
<!-- Node3 -->
<g id="node3" class="node">
<title>Node3</title>
<g id="a_node3"><a xlink:title=" ">
<polygon fill="white" stroke="#bfbfbf" points="187.5,-0.5 187.5,-19.5 247.5,-19.5 247.5,-0.5 187.5,-0.5"/>
<text text-anchor="middle" x="217.5" y="-7.5" font-family="Helvetica,sans-Serif" font-size="10.00">iostream</text>
</a>
</g>
</g>
<!-- Node1&#45;&gt;Node3 -->
<g id="edge2" class="edge">
<title>Node1&#45;&gt;Node3</title>
<path fill="none" stroke="midnightblue" d="M246.99,-112.37C241.8,-94.54 229.8,-53.3 222.82,-29.27"/>
<polygon fill="midnightblue" stroke="midnightblue" points="226.15,-28.22 220,-19.59 219.43,-30.17 226.15,-28.22"/>
</g>
<!-- Node4 -->
<g id="node4" class="node">
<title>Node4</title>
<g id="a_node4"><a xlink:href="_comp_kernel_8h.html" target="_top" xlink:title=" ">
<polygon fill="white" stroke="black" points="0,-56.5 0,-75.5 85,-75.5 85,-56.5 0,-56.5"/>
<text text-anchor="middle" x="42.5" y="-63.5" font-family="Helvetica,sans-Serif" font-size="10.00">CompKernel.h</text>
</a>
</g>
</g>
<!-- Node1&#45;&gt;Node4 -->
<g id="edge3" class="edge">
<title>Node1&#45;&gt;Node4</title>
<path fill="none" stroke="midnightblue" d="M221.15,-113.6C186.04,-104.44 125.88,-88.75 85.18,-78.13"/>
<polygon fill="midnightblue" stroke="midnightblue" points="85.84,-74.69 75.28,-75.55 84.07,-81.46 85.84,-74.69"/>
</g>
<!-- Node5 -->
<g id="node5" class="node">
<title>Node5</title>
<g id="a_node5"><a xlink:href="_model_factory_8h.html" target="_top" xlink:title=" ">
<polygon fill="white" stroke="black" points="278,-56.5 278,-75.5 367,-75.5 367,-56.5 278,-56.5"/>
<text text-anchor="middle" x="322.5" y="-63.5" font-family="Helvetica,sans-Serif" font-size="10.00">ModelFactory.h</text>
</a>
</g>
</g>
<!-- Node1&#45;&gt;Node5 -->
<g id="edge5" class="edge">
<title>Node1&#45;&gt;Node5</title>
<path fill="none" stroke="midnightblue" d="M261.23,-112.32C272.34,-104.11 289.24,-91.6 302.48,-81.81"/>
<polygon fill="midnightblue" stroke="midnightblue" points="304.6,-84.59 310.56,-75.83 300.44,-78.97 304.6,-84.59"/>
</g>
<!-- Node6 -->
<g id="node6" class="node">
<title>Node6</title>
<g id="a_node6"><a xlink:href="_sed_closure_8h.html" target="_top" xlink:title=" ">
<polygon fill="white" stroke="black" points="141.5,-56.5 141.5,-75.5 221.5,-75.5 221.5,-56.5 141.5,-56.5"/>
<text text-anchor="middle" x="181.5" y="-63.5" font-family="Helvetica,sans-Serif" font-size="10.00">SedClosure.h</text>
</a>
</g>
</g>
<!-- Node1&#45;&gt;Node6 -->
<g id="edge7" class="edge">
<title>Node1&#45;&gt;Node6</title>
<path fill="none" stroke="midnightblue" d="M238.57,-112.32C228.33,-104.18 212.78,-91.84 200.5,-82.09"/>
<polygon fill="midnightblue" stroke="midnightblue" points="202.63,-79.31 192.62,-75.83 198.28,-84.79 202.63,-79.31"/>
</g>
<!-- Node7 -->
<g id="node7" class="node">
<title>Node7</title>
<g id="a_node7"><a xlink:title=" ">
<polygon fill="white" stroke="#bfbfbf" points="266,-0.5 266,-19.5 417,-19.5 417,-0.5 266,-0.5"/>
<text text-anchor="middle" x="341.5" y="-7.5" font-family="Helvetica,sans-Serif" font-size="10.00">xtensor&#45;python/pyarray.hpp</text>
</a>
</g>
</g>
<!-- Node1&#45;&gt;Node7 -->
<g id="edge17" class="edge">
<title>Node1&#45;&gt;Node7</title>
<path fill="none" stroke="midnightblue" d="M277.58,-119.86C307.46,-116.97 353.42,-107.33 375.5,-76 386.54,-60.34 372.85,-40.63 359.7,-27.04"/>
<polygon fill="midnightblue" stroke="midnightblue" points="361.83,-24.24 352.2,-19.83 356.98,-29.29 361.83,-24.24"/>
</g>
<!-- Node8 -->
<g id="node8" class="node">
<title>Node8</title>
<g id="a_node8"><a xlink:href="_arguments_dict_8h.html" target="_top" xlink:title=" ">
<polygon fill="white" stroke="black" points="457.5,-56.5 457.5,-75.5 555.5,-75.5 555.5,-56.5 457.5,-56.5"/>
<text text-anchor="middle" x="506.5" y="-63.5" font-family="Helvetica,sans-Serif" font-size="10.00">ArgumentsDict.h</text>
</a>
</g>
</g>
<!-- Node1&#45;&gt;Node8 -->
<g id="edge11" class="edge">
<title>Node1&#45;&gt;Node8</title>
<path fill="none" stroke="midnightblue" d="M277.99,-115.01C320.83,-106.01 402.51,-88.85 455.72,-77.67"/>
<polygon fill="midnightblue" stroke="midnightblue" points="456.57,-81.07 465.63,-75.59 455.13,-74.22 456.57,-81.07"/>
</g>
<!-- Node4&#45;&gt;Node2 -->
<g id="edge4" class="edge">
<title>Node4&#45;&gt;Node2</title>
<path fill="none" stroke="midnightblue" d="M53.91,-56.32C64.61,-48.18 80.84,-35.84 93.66,-26.09"/>
<polygon fill="midnightblue" stroke="midnightblue" points="96.04,-28.67 101.89,-19.83 91.81,-23.1 96.04,-28.67"/>
</g>
<!-- Node5&#45;&gt;Node3 -->
<g id="edge6" class="edge">
<title>Node5&#45;&gt;Node3</title>
<path fill="none" stroke="midnightblue" d="M305.63,-56.32C288.79,-47.66 262.69,-34.24 243.26,-24.25"/>
<polygon fill="midnightblue" stroke="midnightblue" points="244.82,-21.12 234.33,-19.65 241.62,-27.34 244.82,-21.12"/>
</g>
<!-- Node6&#45;&gt;Node2 -->
<g id="edge8" class="edge">
<title>Node6&#45;&gt;Node2</title>
<path fill="none" stroke="midnightblue" d="M170.57,-56.32C160.33,-48.18 144.78,-35.84 132.5,-26.09"/>
<polygon fill="midnightblue" stroke="midnightblue" points="134.63,-23.31 124.62,-19.83 130.28,-28.79 134.63,-23.31"/>
</g>
<!-- Node6&#45;&gt;Node3 -->
<g id="edge9" class="edge">
<title>Node6&#45;&gt;Node3</title>
<path fill="none" stroke="midnightblue" d="M187.44,-56.08C192.48,-48.53 199.84,-37.49 206.01,-28.23"/>
<polygon fill="midnightblue" stroke="midnightblue" points="209.03,-30.01 211.67,-19.75 203.21,-26.13 209.03,-30.01"/>
</g>
<!-- Node6&#45;&gt;Node7 -->
<g id="edge10" class="edge">
<title>Node6&#45;&gt;Node7</title>
<path fill="none" stroke="midnightblue" d="M206.85,-56.44C233.77,-47.36 276.5,-32.94 306.59,-22.78"/>
<polygon fill="midnightblue" stroke="midnightblue" points="307.91,-26.03 316.27,-19.52 305.67,-19.4 307.91,-26.03"/>
</g>
<!-- Node8&#45;&gt;Node7 -->
<g id="edge15" class="edge">
<title>Node8&#45;&gt;Node7</title>
<path fill="none" stroke="midnightblue" d="M480.36,-56.44C452.48,-47.32 408.15,-32.81 377.1,-22.65"/>
<polygon fill="midnightblue" stroke="midnightblue" points="378.12,-19.3 367.52,-19.52 375.94,-25.95 378.12,-19.3"/>
</g>
<!-- Node9 -->
<g id="node9" class="node">
<title>Node9</title>
<g id="a_node9"><a xlink:title=" ">
<polygon fill="white" stroke="#bfbfbf" points="690.5,-0.5 690.5,-19.5 728.5,-19.5 728.5,-0.5 690.5,-0.5"/>
<text text-anchor="middle" x="709.5" y="-7.5" font-family="Helvetica,sans-Serif" font-size="10.00">map</text>
</a>
</g>
</g>
<!-- Node8&#45;&gt;Node9 -->
<g id="edge12" class="edge">
<title>Node8&#45;&gt;Node9</title>
<path fill="none" stroke="midnightblue" d="M542.2,-56.48C575.67,-48.34 627.32,-35.42 680.65,-20.13"/>
<polygon fill="midnightblue" stroke="midnightblue" points="681.63,-23.49 690.27,-17.35 679.69,-16.76 681.63,-23.49"/>
</g>
<!-- Node10 -->
<g id="node10" class="node">
<title>Node10</title>
<g id="a_node10"><a xlink:title=" ">
<polygon fill="white" stroke="#bfbfbf" points="435,-0.5 435,-19.5 500,-19.5 500,-0.5 435,-0.5"/>
<text text-anchor="middle" x="467.5" y="-7.5" font-family="Helvetica,sans-Serif" font-size="10.00">stdexcept</text>
</a>
</g>
</g>
<!-- Node8&#45;&gt;Node10 -->
<g id="edge13" class="edge">
<title>Node8&#45;&gt;Node10</title>
<path fill="none" stroke="midnightblue" d="M500.06,-56.08C494.55,-48.46 486.47,-37.26 479.74,-27.94"/>
<polygon fill="midnightblue" stroke="midnightblue" points="482.51,-25.81 473.82,-19.75 476.84,-29.91 482.51,-25.81"/>
</g>
<!-- Node11 -->
<g id="node11" class="node">
<title>Node11</title>
<g id="a_node11"><a xlink:title=" ">
<polygon fill="white" stroke="#bfbfbf" points="518.5,-0.5 518.5,-19.5 562.5,-19.5 562.5,-0.5 518.5,-0.5"/>
<text text-anchor="middle" x="540.5" y="-7.5" font-family="Helvetica,sans-Serif" font-size="10.00">string</text>
</a>
</g>
</g>
<!-- Node8&#45;&gt;Node11 -->
<g id="edge14" class="edge">
<title>Node8&#45;&gt;Node11</title>
<path fill="none" stroke="midnightblue" d="M512.11,-56.08C516.87,-48.53 523.82,-37.49 529.65,-28.23"/>
<polygon fill="midnightblue" stroke="midnightblue" points="532.62,-30.08 534.99,-19.75 526.7,-26.35 532.62,-30.08"/>
</g>
<!-- Node12 -->
<g id="node12" class="node">
<title>Node12</title>
<g id="a_node12"><a xlink:title=" ">
<polygon fill="white" stroke="#bfbfbf" points="580.5,-0.5 580.5,-19.5 672.5,-19.5 672.5,-0.5 580.5,-0.5"/>
<text text-anchor="middle" x="626.5" y="-7.5" font-family="Helvetica,sans-Serif" font-size="10.00">xtensor/xio.hpp</text>
</a>
</g>
</g>
<!-- Node8&#45;&gt;Node12 -->
<g id="edge16" class="edge">
<title>Node8&#45;&gt;Node12</title>
<path fill="none" stroke="midnightblue" d="M525.51,-56.44C545.09,-47.64 575.81,-33.81 598.23,-23.72"/>
<polygon fill="midnightblue" stroke="midnightblue" points="599.89,-26.81 607.57,-19.52 597.02,-20.43 599.89,-26.81"/>
</g>
</g>
</svg>
