<?xml version="1.0" encoding="UTF-8" standalone="no"?>
<!DOCTYPE svg PUBLIC "-//W3C//DTD SVG 1.1//EN"
 "http://www.w3.org/Graphics/SVG/1.1/DTD/svg11.dtd">
<!-- Generated by graphviz version 2.44.1 (20200629.0846)
 -->
<!-- Title: Kappa.h Pages: 1 -->
<svg width="417pt" height="140pt"
 viewBox="0.00 0.00 416.58 140.00" xmlns="http://www.w3.org/2000/svg" xmlns:xlink="http://www.w3.org/1999/xlink">
<g id="graph0" class="graph" transform="scale(1 1) rotate(0) translate(4 136)">
<title>Kappa.h</title>
<polygon fill="white" stroke="transparent" points="-4,4 -4,-136 412.58,-136 412.58,4 -4,4"/>
<!-- Node1 -->
<g id="node1" class="node">
<title>Node1</title>
<g id="a_node1"><a xlink:title=" ">
<polygon fill="#bfbfbf" stroke="black" points="156.08,-112.5 156.08,-131.5 209.08,-131.5 209.08,-112.5 156.08,-112.5"/>
<text text-anchor="middle" x="182.58" y="-119.5" font-family="Helvetica,sans-Serif" font-size="10.00">Kappa.h</text>
</a>
</g>
</g>
<!-- Node2 -->
<g id="node2" class="node">
<title>Node2</title>
<g id="a_node2"><a xlink:title=" ">
<polygon fill="white" stroke="#bfbfbf" points="31.58,-0.5 31.58,-19.5 75.58,-19.5 75.58,-0.5 31.58,-0.5"/>
<text text-anchor="middle" x="53.58" y="-7.5" font-family="Helvetica,sans-Serif" font-size="10.00">cmath</text>
</a>
</g>
</g>
<!-- Node1&#45;&gt;Node2 -->
<g id="edge1" class="edge">
<title>Node1&#45;&gt;Node2</title>
<path fill="none" stroke="midnightblue" d="M155.83,-118.21C110.82,-112.9 23.04,-99.7 4.58,-76 -8.84,-58.77 11.8,-38.66 30.26,-25.42"/>
<polygon fill="midnightblue" stroke="midnightblue" points="32.41,-28.19 38.73,-19.69 28.49,-22.4 32.41,-28.19"/>
</g>
<!-- Node3 -->
<g id="node3" class="node">
<title>Node3</title>
<g id="a_node3"><a xlink:title=" ">
<polygon fill="white" stroke="#bfbfbf" points="188.58,-0.5 188.58,-19.5 242.58,-19.5 242.58,-0.5 188.58,-0.5"/>
<text text-anchor="middle" x="215.58" y="-7.5" font-family="Helvetica,sans-Serif" font-size="10.00">iostream</text>
</a>
</g>
</g>
<!-- Node1&#45;&gt;Node3 -->
<g id="edge2" class="edge">
<title>Node1&#45;&gt;Node3</title>
<path fill="none" stroke="midnightblue" d="M185.31,-112.39C188.16,-103.34 192.75,-88.69 196.58,-76 201.3,-60.35 206.5,-42.52 210.26,-29.5"/>
<polygon fill="midnightblue" stroke="midnightblue" points="213.64,-30.42 213.05,-19.85 206.91,-28.49 213.64,-30.42"/>
</g>
<!-- Node4 -->
<g id="node4" class="node">
<title>Node4</title>
<g id="a_node4"><a xlink:href="_comp_kernel_8h.html" target="_top" xlink:title=" ">
<polygon fill="white" stroke="black" points="14.08,-56.5 14.08,-75.5 93.08,-75.5 93.08,-56.5 14.08,-56.5"/>
<text text-anchor="middle" x="53.58" y="-63.5" font-family="Helvetica,sans-Serif" font-size="10.00">CompKernel.h</text>
</a>
</g>
</g>
<!-- Node1&#45;&gt;Node4 -->
<g id="edge3" class="edge">
<title>Node1&#45;&gt;Node4</title>
<path fill="none" stroke="midnightblue" d="M162.14,-112.44C140.91,-103.56 107.48,-89.56 83.33,-79.45"/>
<polygon fill="midnightblue" stroke="midnightblue" points="84.5,-76.15 73.92,-75.52 81.8,-82.61 84.5,-76.15"/>
</g>
<!-- Node5 -->
<g id="node5" class="node">
<title>Node5</title>
<g id="a_node5"><a xlink:href="_model_factory_8h.html" target="_top" xlink:title=" ">
<polygon fill="white" stroke="black" points="244.08,-56.5 244.08,-75.5 327.08,-75.5 327.08,-56.5 244.08,-56.5"/>
<text text-anchor="middle" x="285.58" y="-63.5" font-family="Helvetica,sans-Serif" font-size="10.00">ModelFactory.h</text>
</a>
</g>
</g>
<!-- Node1&#45;&gt;Node5 -->
<g id="edge5" class="edge">
<title>Node1&#45;&gt;Node5</title>
<path fill="none" stroke="midnightblue" d="M199.13,-112.32C215.57,-103.7 241.01,-90.36 260.05,-80.39"/>
<polygon fill="midnightblue" stroke="midnightblue" points="261.84,-83.4 269.07,-75.65 258.59,-77.2 261.84,-83.4"/>
</g>
<!-- Node6 -->
<g id="node6" class="node">
<title>Node6</title>
<g id="a_node6"><a xlink:href="_sed_closure_8h.html" target="_top" xlink:title=" ">
<polygon fill="white" stroke="black" points="111.58,-56.5 111.58,-75.5 187.58,-75.5 187.58,-56.5 111.58,-56.5"/>
<text text-anchor="middle" x="149.58" y="-63.5" font-family="Helvetica,sans-Serif" font-size="10.00">SedClosure.h</text>
</a>
</g>
</g>
<!-- Node1&#45;&gt;Node6 -->
<g id="edge7" class="edge">
<title>Node1&#45;&gt;Node6</title>
<path fill="none" stroke="midnightblue" d="M177.13,-112.08C172.57,-104.61 165.91,-93.72 160.29,-84.52"/>
<polygon fill="midnightblue" stroke="midnightblue" points="163.13,-82.46 154.93,-75.75 157.16,-86.11 163.13,-82.46"/>
</g>
<!-- Node7 -->
<g id="node7" class="node">
<title>Node7</title>
<g id="a_node7"><a xlink:title=" ">
<polygon fill="white" stroke="#bfbfbf" points="274.58,-0.5 274.58,-19.5 408.58,-19.5 408.58,-0.5 274.58,-0.5"/>
<text text-anchor="middle" x="341.58" y="-7.5" font-family="Helvetica,sans-Serif" font-size="10.00">xtensor&#45;python/pyarray.hpp</text>
</a>
</g>
</g>
<!-- Node1&#45;&gt;Node7 -->
<g id="edge11" class="edge">
<title>Node1&#45;&gt;Node7</title>
<path fill="none" stroke="midnightblue" d="M209.25,-121.72C244.49,-121.06 305.69,-114.07 336.58,-76 346.93,-63.24 347.15,-44.05 345.4,-29.82"/>
<polygon fill="midnightblue" stroke="midnightblue" points="348.81,-28.99 343.73,-19.7 341.9,-30.13 348.81,-28.99"/>
</g>
<!-- Node4&#45;&gt;Node2 -->
<g id="edge4" class="edge">
<title>Node4&#45;&gt;Node2</title>
<path fill="none" stroke="midnightblue" d="M53.58,-56.08C53.58,-49.01 53.58,-38.86 53.58,-29.99"/>
<polygon fill="midnightblue" stroke="midnightblue" points="57.08,-29.75 53.58,-19.75 50.08,-29.75 57.08,-29.75"/>
</g>
<!-- Node5&#45;&gt;Node3 -->
<g id="edge6" class="edge">
<title>Node5&#45;&gt;Node3</title>
<path fill="none" stroke="midnightblue" d="M274.33,-56.32C263.78,-48.18 247.78,-35.84 235.14,-26.09"/>
<polygon fill="midnightblue" stroke="midnightblue" points="237.09,-23.17 227.03,-19.83 232.81,-28.71 237.09,-23.17"/>
</g>
<!-- Node6&#45;&gt;Node2 -->
<g id="edge8" class="edge">
<title>Node6&#45;&gt;Node2</title>
<path fill="none" stroke="midnightblue" d="M134.16,-56.32C119.04,-47.82 95.76,-34.73 78.11,-24.8"/>
<polygon fill="midnightblue" stroke="midnightblue" points="79.4,-21.51 68.97,-19.65 75.97,-27.61 79.4,-21.51"/>
</g>
<!-- Node6&#45;&gt;Node3 -->
<g id="edge9" class="edge">
<title>Node6&#45;&gt;Node3</title>
<path fill="none" stroke="midnightblue" d="M160.18,-56.32C170.04,-48.26 184.93,-36.08 196.8,-26.37"/>
<polygon fill="midnightblue" stroke="midnightblue" points="199.26,-28.88 204.78,-19.83 194.83,-23.46 199.26,-28.88"/>
</g>
<!-- Node6&#45;&gt;Node7 -->
<g id="edge10" class="edge">
<title>Node6&#45;&gt;Node7</title>
<path fill="none" stroke="midnightblue" d="M180,-56.44C212.87,-47.2 265.36,-32.44 301.55,-22.26"/>
<polygon fill="midnightblue" stroke="midnightblue" points="302.62,-25.59 311.3,-19.52 300.73,-18.85 302.62,-25.59"/>
</g>
</g>
</svg>
