<?xml version="1.0" encoding="UTF-8" standalone="no"?>
<!DOCTYPE svg PUBLIC "-//W3C//DTD SVG 1.1//EN"
 "http://www.w3.org/Graphics/SVG/1.1/DTD/svg11.dtd">
<!-- Generated by graphviz version 2.40.1 (20161225.0304)
 -->
<!-- Title: Kappa2D.cpp Pages: 1 -->
<svg width="722pt" height="196pt"
 viewBox="0.00 0.00 721.50 196.00" xmlns="http://www.w3.org/2000/svg" xmlns:xlink="http://www.w3.org/1999/xlink">
<g id="graph0" class="graph" transform="scale(1 1) rotate(0) translate(4 192)">
<title>Kappa2D.cpp</title>
<polygon fill="#ffffff" stroke="transparent" points="-4,4 -4,-192 717.5,-192 717.5,4 -4,4"/>
<!-- Node0 -->
<g id="node1" class="node">
<title>Node0</title>
<polygon fill="#bfbfbf" stroke="#000000" points="137,-168.5 137,-187.5 213,-187.5 213,-168.5 137,-168.5"/>
<text text-anchor="middle" x="175" y="-175.5" font-family="Helvetica,sans-Serif" font-size="10.00" fill="#000000">Kappa2D.cpp</text>
</g>
<!-- Node1 -->
<g id="node2" class="node">
<title>Node1</title>
<polygon fill="#ffffff" stroke="#bfbfbf" points="0,-112.5 0,-131.5 106,-131.5 106,-112.5 0,-112.5"/>
<text text-anchor="middle" x="53" y="-119.5" font-family="Helvetica,sans-Serif" font-size="10.00" fill="#000000">pybind11/pybind11.h</text>
</g>
<!-- Node0&#45;&gt;Node1 -->
<g id="edge1" class="edge">
<title>Node0&#45;&gt;Node1</title>
<path fill="none" stroke="#191970" d="M154.0275,-168.3733C134.4433,-159.3838 105.0039,-145.8706 82.949,-135.7471"/>
<polygon fill="#191970" stroke="#191970" points="84.2473,-132.4919 73.6989,-131.5011 81.3271,-138.8538 84.2473,-132.4919"/>
</g>
<!-- Node2 -->
<g id="node3" class="node">
<title>Node2</title>
<polygon fill="#ffffff" stroke="#bfbfbf" points="124.5,-112.5 124.5,-131.5 225.5,-131.5 225.5,-112.5 124.5,-112.5"/>
<text text-anchor="middle" x="175" y="-119.5" font-family="Helvetica,sans-Serif" font-size="10.00" fill="#000000">pybind11/stl_bind.h</text>
</g>
<!-- Node0&#45;&gt;Node2 -->
<g id="edge2" class="edge">
<title>Node0&#45;&gt;Node2</title>
<path fill="none" stroke="#191970" d="M175,-168.2455C175,-160.9382 175,-150.6944 175,-141.7046"/>
<polygon fill="#191970" stroke="#191970" points="178.5001,-141.6426 175,-131.6427 171.5001,-141.6427 178.5001,-141.6426"/>
</g>
<!-- Node3 -->
<g id="node4" class="node">
<title>Node3</title>
<g id="a_node4"><a xlink:href="_kappa2_d_8h.html" target="_top" xlink:title="Kappa2D.h">
<polygon fill="#ffffff" stroke="#000000" points="243.5,-112.5 243.5,-131.5 308.5,-131.5 308.5,-112.5 243.5,-112.5"/>
<text text-anchor="middle" x="276" y="-119.5" font-family="Helvetica,sans-Serif" font-size="10.00" fill="#000000">Kappa2D.h</text>
</a>
</g>
</g>
<!-- Node0&#45;&gt;Node3 -->
<g id="edge3" class="edge">
<title>Node0&#45;&gt;Node3</title>
<path fill="none" stroke="#191970" d="M192.5929,-168.2455C208.379,-159.4928 231.7639,-146.527 249.7587,-136.5496"/>
<polygon fill="#191970" stroke="#191970" points="251.5603,-139.5528 258.6087,-131.6427 248.1659,-133.4308 251.5603,-139.5528"/>
</g>
<!-- Node4 -->
<g id="node5" class="node">
<title>Node4</title>
<polygon fill="#ffffff" stroke="#bfbfbf" points="122,-.5 122,-19.5 166,-19.5 166,-.5 122,-.5"/>
<text text-anchor="middle" x="144" y="-7.5" font-family="Helvetica,sans-Serif" font-size="10.00" fill="#000000">cmath</text>
</g>
<!-- Node3&#45;&gt;Node4 -->
<g id="edge4" class="edge">
<title>Node3&#45;&gt;Node4</title>
<path fill="none" stroke="#191970" d="M244.1957,-112.4974C214.8651,-103.1422 174.2223,-88.4834 163,-76 151.6779,-63.4057 147.0706,-44.4705 145.2123,-30.1072"/>
<polygon fill="#191970" stroke="#191970" points="148.6614,-29.4028 144.2355,-19.7767 141.6925,-30.0618 148.6614,-29.4028"/>
</g>
<!-- Node5 -->
<g id="node6" class="node">
<title>Node5</title>
<polygon fill="#ffffff" stroke="#bfbfbf" points="216,-.5 216,-19.5 270,-19.5 270,-.5 216,-.5"/>
<text text-anchor="middle" x="243" y="-7.5" font-family="Helvetica,sans-Serif" font-size="10.00" fill="#000000">iostream</text>
</g>
<!-- Node3&#45;&gt;Node5 -->
<g id="edge5" class="edge">
<title>Node3&#45;&gt;Node5</title>
<path fill="none" stroke="#191970" d="M273.2137,-112.1465C269.551,-99.2346 262.8904,-75.8935 257,-56 254.3963,-47.2065 251.4491,-37.489 248.9326,-29.2598"/>
<polygon fill="#191970" stroke="#191970" points="252.218,-28.0351 245.9378,-19.5021 245.526,-30.089 252.218,-28.0351"/>
</g>
<!-- Node6 -->
<g id="node7" class="node">
<title>Node6</title>
<g id="a_node7"><a xlink:href="_comp_kernel_8h.html" target="_top" xlink:title="CompKernel.h">
<polygon fill="#ffffff" stroke="#000000" points="36.5,-56.5 36.5,-75.5 115.5,-75.5 115.5,-56.5 36.5,-56.5"/>
<text text-anchor="middle" x="76" y="-63.5" font-family="Helvetica,sans-Serif" font-size="10.00" fill="#000000">CompKernel.h</text>
</a>
</g>
</g>
<!-- Node3&#45;&gt;Node6 -->
<g id="edge6" class="edge">
<title>Node3&#45;&gt;Node6</title>
<path fill="none" stroke="#191970" d="M243.4214,-112.878C209.9322,-103.501 157.5596,-88.8367 120.3154,-78.4083"/>
<polygon fill="#191970" stroke="#191970" points="120.8134,-74.9132 110.24,-75.5872 118.9259,-81.6539 120.8134,-74.9132"/>
</g>
<!-- Node7 -->
<g id="node8" class="node">
<title>Node7</title>
<g id="a_node8"><a xlink:href="_model_factory_8h.html" target="_top" xlink:title="ModelFactory.h">
<polygon fill="#ffffff" stroke="#000000" points="304,-56.5 304,-75.5 388,-75.5 388,-56.5 304,-56.5"/>
<text text-anchor="middle" x="346" y="-63.5" font-family="Helvetica,sans-Serif" font-size="10.00" fill="#000000">ModelFactory.h</text>
</a>
</g>
</g>
<!-- Node3&#45;&gt;Node7 -->
<g id="edge8" class="edge">
<title>Node3&#45;&gt;Node7</title>
<path fill="none" stroke="#191970" d="M288.1931,-112.2455C298.6321,-103.8943 313.8655,-91.7076 326.074,-81.9408"/>
<polygon fill="#191970" stroke="#191970" points="328.3244,-84.6227 333.9467,-75.6427 323.9515,-79.1566 328.3244,-84.6227"/>
</g>
<!-- Node8 -->
<g id="node9" class="node">
<title>Node8</title>
<g id="a_node9"><a xlink:href="_sed_closure_8h.html" target="_top" xlink:title="SedClosure.h">
<polygon fill="#ffffff" stroke="#000000" points="172,-56.5 172,-75.5 248,-75.5 248,-56.5 172,-56.5"/>
<text text-anchor="middle" x="210" y="-63.5" font-family="Helvetica,sans-Serif" font-size="10.00" fill="#000000">SedClosure.h</text>
</a>
</g>
</g>
<!-- Node3&#45;&gt;Node8 -->
<g id="edge10" class="edge">
<title>Node3&#45;&gt;Node8</title>
<path fill="none" stroke="#191970" d="M264.5037,-112.2455C254.7558,-103.9746 240.5741,-91.9416 229.1202,-82.2232"/>
<polygon fill="#191970" stroke="#191970" points="231.2541,-79.4437 221.3646,-75.6427 226.7253,-84.7813 231.2541,-79.4437"/>
</g>
<!-- Node9 -->
<g id="node10" class="node">
<title>Node9</title>
<polygon fill="#ffffff" stroke="#bfbfbf" points="288.5,-.5 288.5,-19.5 423.5,-19.5 423.5,-.5 288.5,-.5"/>
<text text-anchor="middle" x="356" y="-7.5" font-family="Helvetica,sans-Serif" font-size="10.00" fill="#000000">xtensor&#45;python/pyarray.hpp</text>
</g>
<!-- Node3&#45;&gt;Node9 -->
<g id="edge20" class="edge">
<title>Node3&#45;&gt;Node9</title>
<path fill="none" stroke="#191970" d="M308.7812,-114.0099C340.9556,-105.4258 386.6651,-90.9855 397,-76 408.4779,-59.3571 392.4636,-39.5798 377.2136,-26.0425"/>
<polygon fill="#191970" stroke="#191970" points="379.3816,-23.2933 369.4581,-19.5819 374.9012,-28.6716 379.3816,-23.2933"/>
</g>
<!-- Node10 -->
<g id="node11" class="node">
<title>Node10</title>
<g id="a_node11"><a xlink:href="_arguments_dict_8h.html" target="_top" xlink:title="ArgumentsDict.h">
<polygon fill="#ffffff" stroke="#000000" points="469,-56.5 469,-75.5 559,-75.5 559,-56.5 469,-56.5"/>
<text text-anchor="middle" x="514" y="-63.5" font-family="Helvetica,sans-Serif" font-size="10.00" fill="#000000">ArgumentsDict.h</text>
</a>
</g>
</g>
<!-- Node3&#45;&gt;Node10 -->
<g id="edge14" class="edge">
<title>Node3&#45;&gt;Node10</title>
<path fill="none" stroke="#191970" d="M308.5939,-114.3309C348.5642,-104.9261 416.752,-88.8819 463.5211,-77.8774"/>
<polygon fill="#191970" stroke="#191970" points="464.5181,-81.2385 473.4506,-75.541 462.9148,-74.4245 464.5181,-81.2385"/>
</g>
<!-- Node6&#45;&gt;Node4 -->
<g id="edge7" class="edge">
<title>Node6&#45;&gt;Node4</title>
<path fill="none" stroke="#191970" d="M87.8447,-56.2455C97.888,-47.9746 112.4995,-35.9416 124.3004,-26.2232"/>
<polygon fill="#191970" stroke="#191970" points="126.7967,-28.7015 132.291,-19.6427 122.3467,-23.298 126.7967,-28.7015"/>
</g>
<!-- Node7&#45;&gt;Node5 -->
<g id="edge9" class="edge">
<title>Node7&#45;&gt;Node5</title>
<path fill="none" stroke="#191970" d="M328.0588,-56.2455C311.96,-47.4928 288.1121,-34.527 269.7609,-24.5496"/>
<polygon fill="#191970" stroke="#191970" points="271.1929,-21.3444 260.7356,-19.6427 267.8493,-27.4942 271.1929,-21.3444"/>
</g>
<!-- Node8&#45;&gt;Node4 -->
<g id="edge11" class="edge">
<title>Node8&#45;&gt;Node4</title>
<path fill="none" stroke="#191970" d="M198.5037,-56.2455C188.7558,-47.9746 174.5741,-35.9416 163.1202,-26.2232"/>
<polygon fill="#191970" stroke="#191970" points="165.2541,-23.4437 155.3646,-19.6427 160.7253,-28.7813 165.2541,-23.4437"/>
</g>
<!-- Node8&#45;&gt;Node5 -->
<g id="edge12" class="edge">
<title>Node8&#45;&gt;Node5</title>
<path fill="none" stroke="#191970" d="M215.7482,-56.2455C220.2435,-48.617 226.6248,-37.7881 232.0825,-28.5267"/>
<polygon fill="#191970" stroke="#191970" points="235.2561,-30.035 237.3177,-19.6427 229.2253,-26.4811 235.2561,-30.035"/>
</g>
<!-- Node8&#45;&gt;Node9 -->
<g id="edge13" class="edge">
<title>Node8&#45;&gt;Node9</title>
<path fill="none" stroke="#191970" d="M235.0983,-56.3733C258.9555,-47.2226 295.0335,-33.3844 321.571,-23.2057"/>
<polygon fill="#191970" stroke="#191970" points="323.1459,-26.3503 331.2292,-19.5011 320.639,-19.8145 323.1459,-26.3503"/>
</g>
<!-- Node10&#45;&gt;Node9 -->
<g id="edge18" class="edge">
<title>Node10&#45;&gt;Node9</title>
<path fill="none" stroke="#191970" d="M486.8388,-56.3733C460.7933,-47.1419 421.2884,-33.1402 392.5021,-22.9375"/>
<polygon fill="#191970" stroke="#191970" points="393.4015,-19.5429 382.8067,-19.5011 391.063,-26.1408 393.4015,-19.5429"/>
</g>
<!-- Node11 -->
<g id="node12" class="node">
<title>Node11</title>
<polygon fill="#ffffff" stroke="#bfbfbf" points="678.5,-.5 678.5,-19.5 713.5,-19.5 713.5,-.5 678.5,-.5"/>
<text text-anchor="middle" x="696" y="-7.5" font-family="Helvetica,sans-Serif" font-size="10.00" fill="#000000">map</text>
</g>
<!-- Node10&#45;&gt;Node11 -->
<g id="edge15" class="edge">
<title>Node10&#45;&gt;Node11</title>
<path fill="none" stroke="#191970" d="M549.259,-56.4768C578.9952,-48.2521 622.8447,-35.6739 668.9012,-20.2079"/>
<polygon fill="#191970" stroke="#191970" points="670.1014,-23.4967 678.4477,-16.9707 667.8534,-16.8675 670.1014,-23.4967"/>
</g>
<!-- Node12 -->
<g id="node13" class="node">
<title>Node12</title>
<polygon fill="#ffffff" stroke="#bfbfbf" points="441.5,-.5 441.5,-19.5 500.5,-19.5 500.5,-.5 441.5,-.5"/>
<text text-anchor="middle" x="471" y="-7.5" font-family="Helvetica,sans-Serif" font-size="10.00" fill="#000000">stdexcept</text>
</g>
<!-- Node10&#45;&gt;Node12 -->
<g id="edge16" class="edge">
<title>Node10&#45;&gt;Node12</title>
<path fill="none" stroke="#191970" d="M506.51,-56.2455C500.4674,-48.3761 491.8097,-37.101 484.5559,-27.6542"/>
<polygon fill="#191970" stroke="#191970" points="487.2705,-25.4426 478.4042,-19.6427 481.7185,-29.7058 487.2705,-25.4426"/>
</g>
<!-- Node13 -->
<g id="node14" class="node">
<title>Node13</title>
<polygon fill="#ffffff" stroke="#bfbfbf" points="518.5,-.5 518.5,-19.5 559.5,-19.5 559.5,-.5 518.5,-.5"/>
<text text-anchor="middle" x="539" y="-7.5" font-family="Helvetica,sans-Serif" font-size="10.00" fill="#000000">string</text>
</g>
<!-- Node10&#45;&gt;Node13 -->
<g id="edge17" class="edge">
<title>Node10&#45;&gt;Node13</title>
<path fill="none" stroke="#191970" d="M518.3547,-56.2455C521.7244,-48.6973 526.493,-38.0158 530.5983,-28.8197"/>
<polygon fill="#191970" stroke="#191970" points="533.8147,-30.2009 534.6952,-19.6427 527.4227,-27.3473 533.8147,-30.2009"/>
</g>
<!-- Node14 -->
<g id="node15" class="node">
<title>Node14</title>
<polygon fill="#ffffff" stroke="#bfbfbf" points="577.5,-.5 577.5,-19.5 660.5,-19.5 660.5,-.5 577.5,-.5"/>
<text text-anchor="middle" x="619" y="-7.5" font-family="Helvetica,sans-Serif" font-size="10.00" fill="#000000">xtensor/xio.hpp</text>
</g>
<!-- Node10&#45;&gt;Node14 -->
<g id="edge19" class="edge">
<title>Node10&#45;&gt;Node14</title>
<path fill="none" stroke="#191970" d="M532.2896,-56.2455C548.7762,-47.4527 573.2352,-34.4079 591.9765,-24.4125"/>
<polygon fill="#191970" stroke="#191970" points="593.7435,-27.4368 600.92,-19.6427 590.4494,-21.2604 593.7435,-27.4368"/>
</g>
</g>
</svg>
