<?xml version="1.0" encoding="UTF-8" standalone="no"?>
<!DOCTYPE svg PUBLIC "-//W3C//DTD SVG 1.1//EN"
 "http://www.w3.org/Graphics/SVG/1.1/DTD/svg11.dtd">
<!-- Generated by graphviz version 2.50.0 (20211204.2007)
 -->
<!-- Title: Kappa.cpp Pages: 1 -->
<svg width="715pt" height="196pt"
 viewBox="0.00 0.00 714.50 196.00" xmlns="http://www.w3.org/2000/svg" xmlns:xlink="http://www.w3.org/1999/xlink">
<g id="graph0" class="graph" transform="scale(1 1) rotate(0) translate(4 192)">
<title>Kappa.cpp</title>
<polygon fill="white" stroke="transparent" points="-4,4 -4,-192 710.5,-192 710.5,4 -4,4"/>
<!-- Node1 -->
<g id="node1" class="node">
<title>Node1</title>
<g id="a_node1"><a xlink:title=" ">
<polygon fill="#bfbfbf" stroke="black" points="143.5,-168.5 143.5,-187.5 206.5,-187.5 206.5,-168.5 143.5,-168.5"/>
<text text-anchor="middle" x="175" y="-175.5" font-family="Helvetica,sans-Serif" font-size="10.00">Kappa.cpp</text>
</a>
</g>
</g>
<!-- Node2 -->
<g id="node2" class="node">
<title>Node2</title>
<g id="a_node2"><a xlink:title=" ">
<polygon fill="white" stroke="#bfbfbf" points="0,-112.5 0,-131.5 106,-131.5 106,-112.5 0,-112.5"/>
<text text-anchor="middle" x="53" y="-119.5" font-family="Helvetica,sans-Serif" font-size="10.00">pybind11/pybind11.h</text>
</a>
</g>
</g>
<!-- Node1&#45;&gt;Node2 -->
<g id="edge1" class="edge">
<title>Node1&#45;&gt;Node2</title>
<path fill="none" stroke="midnightblue" d="M155.67,-168.44C135.68,-159.6 104.26,-145.69 81.44,-135.59"/>
<polygon fill="midnightblue" stroke="midnightblue" points="82.8,-132.36 72.24,-131.52 79.97,-138.76 82.8,-132.36"/>
</g>
<!-- Node3 -->
<g id="node3" class="node">
<title>Node3</title>
<g id="a_node3"><a xlink:title=" ">
<polygon fill="white" stroke="#bfbfbf" points="124.5,-112.5 124.5,-131.5 225.5,-131.5 225.5,-112.5 124.5,-112.5"/>
<text text-anchor="middle" x="175" y="-119.5" font-family="Helvetica,sans-Serif" font-size="10.00">pybind11/stl_bind.h</text>
</a>
</g>
</g>
<!-- Node1&#45;&gt;Node3 -->
<g id="edge2" class="edge">
<title>Node1&#45;&gt;Node3</title>
<path fill="none" stroke="midnightblue" d="M175,-168.08C175,-161.01 175,-150.86 175,-141.99"/>
<polygon fill="midnightblue" stroke="midnightblue" points="178.5,-141.75 175,-131.75 171.5,-141.75 178.5,-141.75"/>
</g>
<!-- Node4 -->
<g id="node4" class="node">
<title>Node4</title>
<g id="a_node4"><a xlink:href="_kappa_8h.html" target="_top" xlink:title=" ">
<polygon fill="white" stroke="black" points="243.5,-112.5 243.5,-131.5 296.5,-131.5 296.5,-112.5 243.5,-112.5"/>
<text text-anchor="middle" x="270" y="-119.5" font-family="Helvetica,sans-Serif" font-size="10.00">Kappa.h</text>
</a>
</g>
</g>
<!-- Node1&#45;&gt;Node4 -->
<g id="edge3" class="edge">
<title>Node1&#45;&gt;Node4</title>
<path fill="none" stroke="midnightblue" d="M190.26,-168.32C205.22,-159.82 228.25,-146.73 245.73,-136.8"/>
<polygon fill="midnightblue" stroke="midnightblue" points="247.81,-139.64 254.77,-131.65 244.35,-133.55 247.81,-139.64"/>
</g>
<!-- Node5 -->
<g id="node5" class="node">
<title>Node5</title>
<g id="a_node5"><a xlink:title=" ">
<polygon fill="white" stroke="#bfbfbf" points="116,-0.5 116,-19.5 160,-19.5 160,-0.5 116,-0.5"/>
<text text-anchor="middle" x="138" y="-7.5" font-family="Helvetica,sans-Serif" font-size="10.00">cmath</text>
</a>
</g>
</g>
<!-- Node4&#45;&gt;Node5 -->
<g id="edge4" class="edge">
<title>Node4&#45;&gt;Node5</title>
<path fill="none" stroke="midnightblue" d="M243.35,-113.36C213.87,-104.4 168.94,-89.12 157,-76 145.51,-63.37 140.95,-44.16 139.14,-29.9"/>
<polygon fill="midnightblue" stroke="midnightblue" points="142.61,-29.37 138.21,-19.74 135.64,-30.01 142.61,-29.37"/>
</g>
<!-- Node6 -->
<g id="node6" class="node">
<title>Node6</title>
<g id="a_node6"><a xlink:title=" ">
<polygon fill="white" stroke="#bfbfbf" points="210,-0.5 210,-19.5 264,-19.5 264,-0.5 210,-0.5"/>
<text text-anchor="middle" x="237" y="-7.5" font-family="Helvetica,sans-Serif" font-size="10.00">iostream</text>
</a>
</g>
</g>
<!-- Node4&#45;&gt;Node6 -->
<g id="edge5" class="edge">
<title>Node4&#45;&gt;Node6</title>
<path fill="none" stroke="midnightblue" d="M267.47,-112.15C263.87,-99.63 257.04,-76.04 251,-56 248.34,-47.18 245.31,-37.41 242.75,-29.23"/>
<polygon fill="midnightblue" stroke="midnightblue" points="246.06,-28.1 239.73,-19.61 239.39,-30.2 246.06,-28.1"/>
</g>
<!-- Node7 -->
<g id="node7" class="node">
<title>Node7</title>
<g id="a_node7"><a xlink:href="_comp_kernel_8h.html" target="_top" xlink:title=" ">
<polygon fill="white" stroke="black" points="30.5,-56.5 30.5,-75.5 109.5,-75.5 109.5,-56.5 30.5,-56.5"/>
<text text-anchor="middle" x="70" y="-63.5" font-family="Helvetica,sans-Serif" font-size="10.00">CompKernel.h</text>
</a>
</g>
</g>
<!-- Node4&#45;&gt;Node7 -->
<g id="edge6" class="edge">
<title>Node4&#45;&gt;Node7</title>
<path fill="none" stroke="midnightblue" d="M243.44,-113.83C209.72,-104.72 151.16,-88.91 111.51,-78.21"/>
<polygon fill="midnightblue" stroke="midnightblue" points="112.19,-74.76 101.62,-75.54 110.36,-81.52 112.19,-74.76"/>
</g>
<!-- Node8 -->
<g id="node8" class="node">
<title>Node8</title>
<g id="a_node8"><a xlink:href="_model_factory_8h.html" target="_top" xlink:title=" ">
<polygon fill="white" stroke="black" points="298.5,-56.5 298.5,-75.5 381.5,-75.5 381.5,-56.5 298.5,-56.5"/>
<text text-anchor="middle" x="340" y="-63.5" font-family="Helvetica,sans-Serif" font-size="10.00">ModelFactory.h</text>
</a>
</g>
</g>
<!-- Node4&#45;&gt;Node8 -->
<g id="edge8" class="edge">
<title>Node4&#45;&gt;Node8</title>
<path fill="none" stroke="midnightblue" d="M281.25,-112.32C291.8,-104.18 307.8,-91.84 320.44,-82.09"/>
<polygon fill="midnightblue" stroke="midnightblue" points="322.77,-84.71 328.55,-75.83 318.49,-79.17 322.77,-84.71"/>
</g>
<!-- Node9 -->
<g id="node9" class="node">
<title>Node9</title>
<g id="a_node9"><a xlink:href="_sed_closure_8h.html" target="_top" xlink:title=" ">
<polygon fill="white" stroke="black" points="166,-56.5 166,-75.5 242,-75.5 242,-56.5 166,-56.5"/>
<text text-anchor="middle" x="204" y="-63.5" font-family="Helvetica,sans-Serif" font-size="10.00">SedClosure.h</text>
</a>
</g>
</g>
<!-- Node4&#45;&gt;Node9 -->
<g id="edge10" class="edge">
<title>Node4&#45;&gt;Node9</title>
<path fill="none" stroke="midnightblue" d="M259.4,-112.32C249.54,-104.26 234.65,-92.08 222.78,-82.37"/>
<polygon fill="midnightblue" stroke="midnightblue" points="224.75,-79.46 214.8,-75.83 220.32,-84.88 224.75,-79.46"/>
</g>
<!-- Node10 -->
<g id="node10" class="node">
<title>Node10</title>
<g id="a_node10"><a xlink:title=" ">
<polygon fill="white" stroke="#bfbfbf" points="282,-0.5 282,-19.5 416,-19.5 416,-0.5 282,-0.5"/>
<text text-anchor="middle" x="349" y="-7.5" font-family="Helvetica,sans-Serif" font-size="10.00">xtensor&#45;python/pyarray.hpp</text>
</a>
</g>
</g>
<!-- Node4&#45;&gt;Node10 -->
<g id="edge20" class="edge">
<title>Node4&#45;&gt;Node10</title>
<path fill="none" stroke="midnightblue" d="M296.52,-119.45C325.02,-116.21 369.03,-106.27 390,-76 401.65,-59.19 384.65,-39.21 369.13,-25.88"/>
<polygon fill="midnightblue" stroke="midnightblue" points="371.29,-23.12 361.31,-19.57 366.89,-28.57 371.29,-23.12"/>
</g>
<!-- Node11 -->
<g id="node11" class="node">
<title>Node11</title>
<g id="a_node11"><a xlink:href="_arguments_dict_8h.html" target="_top" xlink:title=" ">
<polygon fill="white" stroke="black" points="463,-56.5 463,-75.5 553,-75.5 553,-56.5 463,-56.5"/>
<text text-anchor="middle" x="508" y="-63.5" font-family="Helvetica,sans-Serif" font-size="10.00">ArgumentsDict.h</text>
</a>
</g>
</g>
<!-- Node4&#45;&gt;Node11 -->
<g id="edge14" class="edge">
<title>Node4&#45;&gt;Node11</title>
<path fill="none" stroke="midnightblue" d="M296.84,-114.91C336.53,-105.9 411.47,-88.9 460.56,-77.76"/>
<polygon fill="midnightblue" stroke="midnightblue" points="461.34,-81.17 470.32,-75.55 459.8,-74.35 461.34,-81.17"/>
</g>
<!-- Node7&#45;&gt;Node5 -->
<g id="edge7" class="edge">
<title>Node7&#45;&gt;Node5</title>
<path fill="none" stroke="midnightblue" d="M80.93,-56.32C91.17,-48.18 106.72,-35.84 119,-26.09"/>
<polygon fill="midnightblue" stroke="midnightblue" points="121.22,-28.79 126.88,-19.83 116.87,-23.31 121.22,-28.79"/>
</g>
<!-- Node8&#45;&gt;Node6 -->
<g id="edge9" class="edge">
<title>Node8&#45;&gt;Node6</title>
<path fill="none" stroke="midnightblue" d="M323.45,-56.32C307.01,-47.7 281.57,-34.36 262.53,-24.39"/>
<polygon fill="midnightblue" stroke="midnightblue" points="263.99,-21.2 253.51,-19.65 260.74,-27.4 263.99,-21.2"/>
</g>
<!-- Node9&#45;&gt;Node5 -->
<g id="edge11" class="edge">
<title>Node9&#45;&gt;Node5</title>
<path fill="none" stroke="midnightblue" d="M193.4,-56.32C183.54,-48.26 168.65,-36.08 156.78,-26.37"/>
<polygon fill="midnightblue" stroke="midnightblue" points="158.75,-23.46 148.8,-19.83 154.32,-28.88 158.75,-23.46"/>
</g>
<!-- Node9&#45;&gt;Node6 -->
<g id="edge12" class="edge">
<title>Node9&#45;&gt;Node6</title>
<path fill="none" stroke="midnightblue" d="M209.45,-56.08C214.01,-48.61 220.67,-37.72 226.29,-28.52"/>
<polygon fill="midnightblue" stroke="midnightblue" points="229.42,-30.11 231.65,-19.75 223.45,-26.46 229.42,-30.11"/>
</g>
<!-- Node9&#45;&gt;Node10 -->
<g id="edge13" class="edge">
<title>Node9&#45;&gt;Node10</title>
<path fill="none" stroke="midnightblue" d="M226.98,-56.44C251.16,-47.44 289.42,-33.19 316.65,-23.05"/>
<polygon fill="midnightblue" stroke="midnightblue" points="317.98,-26.29 326.13,-19.52 315.54,-19.73 317.98,-26.29"/>
</g>
<!-- Node11&#45;&gt;Node10 -->
<g id="edge18" class="edge">
<title>Node11&#45;&gt;Node10</title>
<path fill="none" stroke="midnightblue" d="M482.81,-56.44C456.06,-47.36 413.6,-32.94 383.69,-22.78"/>
<polygon fill="midnightblue" stroke="midnightblue" points="384.67,-19.42 374.08,-19.52 382.42,-26.05 384.67,-19.42"/>
</g>
<!-- Node12 -->
<g id="node12" class="node">
<title>Node12</title>
<g id="a_node12"><a xlink:title=" ">
<polygon fill="white" stroke="#bfbfbf" points="671.5,-0.5 671.5,-19.5 706.5,-19.5 706.5,-0.5 671.5,-0.5"/>
<text text-anchor="middle" x="689" y="-7.5" font-family="Helvetica,sans-Serif" font-size="10.00">map</text>
</a>
</g>
</g>
<!-- Node11&#45;&gt;Node12 -->
<g id="edge15" class="edge">
<title>Node11&#45;&gt;Node12</title>
<path fill="none" stroke="midnightblue" d="M539.02,-56.49C568.45,-48.31 614.11,-35.34 661.85,-20.26"/>
<polygon fill="midnightblue" stroke="midnightblue" points="662.95,-23.59 671.42,-17.22 660.83,-16.92 662.95,-23.59"/>
</g>
<!-- Node13 -->
<g id="node13" class="node">
<title>Node13</title>
<g id="a_node13"><a xlink:title=" ">
<polygon fill="white" stroke="#bfbfbf" points="434.5,-0.5 434.5,-19.5 493.5,-19.5 493.5,-0.5 434.5,-0.5"/>
<text text-anchor="middle" x="464" y="-7.5" font-family="Helvetica,sans-Serif" font-size="10.00">stdexcept</text>
</a>
</g>
</g>
<!-- Node11&#45;&gt;Node13 -->
<g id="edge16" class="edge">
<title>Node11&#45;&gt;Node13</title>
<path fill="none" stroke="midnightblue" d="M500.73,-56.08C494.46,-48.38 485.21,-37.03 477.57,-27.65"/>
<polygon fill="midnightblue" stroke="midnightblue" points="480.16,-25.29 471.13,-19.75 474.73,-29.71 480.16,-25.29"/>
</g>
<!-- Node14 -->
<g id="node14" class="node">
<title>Node14</title>
<g id="a_node14"><a xlink:title=" ">
<polygon fill="white" stroke="#bfbfbf" points="511.5,-0.5 511.5,-19.5 552.5,-19.5 552.5,-0.5 511.5,-0.5"/>
<text text-anchor="middle" x="532" y="-7.5" font-family="Helvetica,sans-Serif" font-size="10.00">string</text>
</a>
</g>
</g>
<!-- Node11&#45;&gt;Node14 -->
<g id="edge17" class="edge">
<title>Node11&#45;&gt;Node14</title>
<path fill="none" stroke="midnightblue" d="M511.96,-56.08C515.21,-48.77 519.92,-38.18 523.95,-29.1"/>
<polygon fill="midnightblue" stroke="midnightblue" points="527.25,-30.31 528.11,-19.75 520.85,-27.47 527.25,-30.31"/>
</g>
<!-- Node15 -->
<g id="node15" class="node">
<title>Node15</title>
<g id="a_node15"><a xlink:title=" ">
<polygon fill="white" stroke="#bfbfbf" points="570.5,-0.5 570.5,-19.5 653.5,-19.5 653.5,-0.5 570.5,-0.5"/>
<text text-anchor="middle" x="612" y="-7.5" font-family="Helvetica,sans-Serif" font-size="10.00">xtensor/xio.hpp</text>
</a>
</g>
</g>
<!-- Node11&#45;&gt;Node15 -->
<g id="edge19" class="edge">
<title>Node11&#45;&gt;Node15</title>
<path fill="none" stroke="midnightblue" d="M524.71,-56.32C541.31,-47.7 567,-34.36 586.22,-24.39"/>
<polygon fill="midnightblue" stroke="midnightblue" points="588.07,-27.37 595.33,-19.65 584.84,-21.16 588.07,-27.37"/>
</g>
</g>
</svg>
