<?xml version="1.0" encoding="UTF-8" standalone="no"?>
<!DOCTYPE svg PUBLIC "-//W3C//DTD SVG 1.1//EN"
 "http://www.w3.org/Graphics/SVG/1.1/DTD/svg11.dtd">
<!-- Generated by graphviz version 2.40.1 (20161225.0304)
 -->
<!-- Title: Kappa.cpp Pages: 1 -->
<svg width="716pt" height="196pt"
 viewBox="0.00 0.00 715.50 196.00" xmlns="http://www.w3.org/2000/svg" xmlns:xlink="http://www.w3.org/1999/xlink">
<g id="graph0" class="graph" transform="scale(1 1) rotate(0) translate(4 192)">
<title>Kappa.cpp</title>
<polygon fill="#ffffff" stroke="transparent" points="-4,4 -4,-192 711.5,-192 711.5,4 -4,4"/>
<!-- Node0 -->
<g id="node1" class="node">
<title>Node0</title>
<polygon fill="#bfbfbf" stroke="#000000" points="143.5,-168.5 143.5,-187.5 206.5,-187.5 206.5,-168.5 143.5,-168.5"/>
<text text-anchor="middle" x="175" y="-175.5" font-family="Helvetica,sans-Serif" font-size="10.00" fill="#000000">Kappa.cpp</text>
</g>
<!-- Node1 -->
<g id="node2" class="node">
<title>Node1</title>
<polygon fill="#ffffff" stroke="#bfbfbf" points="0,-112.5 0,-131.5 106,-131.5 106,-112.5 0,-112.5"/>
<text text-anchor="middle" x="53" y="-119.5" font-family="Helvetica,sans-Serif" font-size="10.00" fill="#000000">pybind11/pybind11.h</text>
</g>
<!-- Node0&#45;&gt;Node1 -->
<g id="edge1" class="edge">
<title>Node0&#45;&gt;Node1</title>
<path fill="none" stroke="#191970" d="M154.0275,-168.3733C134.4433,-159.3838 105.0039,-145.8706 82.949,-135.7471"/>
<polygon fill="#191970" stroke="#191970" points="84.2473,-132.4919 73.6989,-131.5011 81.3271,-138.8538 84.2473,-132.4919"/>
</g>
<!-- Node2 -->
<g id="node3" class="node">
<title>Node2</title>
<polygon fill="#ffffff" stroke="#bfbfbf" points="124.5,-112.5 124.5,-131.5 225.5,-131.5 225.5,-112.5 124.5,-112.5"/>
<text text-anchor="middle" x="175" y="-119.5" font-family="Helvetica,sans-Serif" font-size="10.00" fill="#000000">pybind11/stl_bind.h</text>
</g>
<!-- Node0&#45;&gt;Node2 -->
<g id="edge2" class="edge">
<title>Node0&#45;&gt;Node2</title>
<path fill="none" stroke="#191970" d="M175,-168.2455C175,-160.9382 175,-150.6944 175,-141.7046"/>
<polygon fill="#191970" stroke="#191970" points="178.5001,-141.6426 175,-131.6427 171.5001,-141.6427 178.5001,-141.6426"/>
</g>
<!-- Node3 -->
<g id="node4" class="node">
<title>Node3</title>
<g id="a_node4"><a xlink:href="_kappa_8h.html" target="_top" xlink:title="Kappa.h">
<polygon fill="#ffffff" stroke="#000000" points="243.5,-112.5 243.5,-131.5 296.5,-131.5 296.5,-112.5 243.5,-112.5"/>
<text text-anchor="middle" x="270" y="-119.5" font-family="Helvetica,sans-Serif" font-size="10.00" fill="#000000">Kappa.h</text>
</a>
</g>
</g>
<!-- Node0&#45;&gt;Node3 -->
<g id="edge3" class="edge">
<title>Node0&#45;&gt;Node3</title>
<path fill="none" stroke="#191970" d="M191.5477,-168.2455C206.2599,-159.5731 227.9888,-146.7645 244.8505,-136.825"/>
<polygon fill="#191970" stroke="#191970" points="246.8046,-139.736 253.6419,-131.6427 243.2498,-133.7057 246.8046,-139.736"/>
</g>
<!-- Node4 -->
<g id="node5" class="node">
<title>Node4</title>
<polygon fill="#ffffff" stroke="#bfbfbf" points="116,-.5 116,-19.5 160,-19.5 160,-.5 116,-.5"/>
<text text-anchor="middle" x="138" y="-7.5" font-family="Helvetica,sans-Serif" font-size="10.00" fill="#000000">cmath</text>
</g>
<!-- Node3&#45;&gt;Node4 -->
<g id="edge4" class="edge">
<title>Node3&#45;&gt;Node4</title>
<path fill="none" stroke="#191970" d="M243.3389,-114.1208C213.8428,-104.9073 168.8949,-89.2316 157,-76 145.6779,-63.4057 141.0706,-44.4705 139.2123,-30.1072"/>
<polygon fill="#191970" stroke="#191970" points="142.6614,-29.4028 138.2355,-19.7767 135.6925,-30.0618 142.6614,-29.4028"/>
</g>
<!-- Node5 -->
<g id="node6" class="node">
<title>Node5</title>
<polygon fill="#ffffff" stroke="#bfbfbf" points="210,-.5 210,-19.5 264,-19.5 264,-.5 210,-.5"/>
<text text-anchor="middle" x="237" y="-7.5" font-family="Helvetica,sans-Serif" font-size="10.00" fill="#000000">iostream</text>
</g>
<!-- Node3&#45;&gt;Node5 -->
<g id="edge5" class="edge">
<title>Node3&#45;&gt;Node5</title>
<path fill="none" stroke="#191970" d="M267.2137,-112.1465C263.551,-99.2346 256.8904,-75.8935 251,-56 248.3963,-47.2065 245.4491,-37.489 242.9326,-29.2598"/>
<polygon fill="#191970" stroke="#191970" points="246.218,-28.0351 239.9378,-19.5021 239.526,-30.089 246.218,-28.0351"/>
</g>
<!-- Node6 -->
<g id="node7" class="node">
<title>Node6</title>
<g id="a_node7"><a xlink:href="_comp_kernel_8h.html" target="_top" xlink:title="CompKernel.h">
<polygon fill="#ffffff" stroke="#000000" points="30.5,-56.5 30.5,-75.5 109.5,-75.5 109.5,-56.5 30.5,-56.5"/>
<text text-anchor="middle" x="70" y="-63.5" font-family="Helvetica,sans-Serif" font-size="10.00" fill="#000000">CompKernel.h</text>
</a>
</g>
</g>
<!-- Node3&#45;&gt;Node6 -->
<g id="edge6" class="edge">
<title>Node3&#45;&gt;Node6</title>
<path fill="none" stroke="#191970" d="M243.4415,-114.5636C210.3323,-105.2931 153.2846,-89.3197 113.6982,-78.2355"/>
<polygon fill="#191970" stroke="#191970" points="114.6086,-74.8559 104.0352,-75.5299 112.7212,-81.5966 114.6086,-74.8559"/>
</g>
<!-- Node7 -->
<g id="node8" class="node">
<title>Node7</title>
<g id="a_node8"><a xlink:href="_model_factory_8h.html" target="_top" xlink:title="ModelFactory.h">
<polygon fill="#ffffff" stroke="#000000" points="298,-56.5 298,-75.5 382,-75.5 382,-56.5 298,-56.5"/>
<text text-anchor="middle" x="340" y="-63.5" font-family="Helvetica,sans-Serif" font-size="10.00" fill="#000000">ModelFactory.h</text>
</a>
</g>
</g>
<!-- Node3&#45;&gt;Node7 -->
<g id="edge8" class="edge">
<title>Node3&#45;&gt;Node7</title>
<path fill="none" stroke="#191970" d="M282.1931,-112.2455C292.6321,-103.8943 307.8655,-91.7076 320.074,-81.9408"/>
<polygon fill="#191970" stroke="#191970" points="322.3244,-84.6227 327.9467,-75.6427 317.9515,-79.1566 322.3244,-84.6227"/>
</g>
<!-- Node8 -->
<g id="node9" class="node">
<title>Node8</title>
<g id="a_node9"><a xlink:href="_sed_closure_8h.html" target="_top" xlink:title="SedClosure.h">
<polygon fill="#ffffff" stroke="#000000" points="166,-56.5 166,-75.5 242,-75.5 242,-56.5 166,-56.5"/>
<text text-anchor="middle" x="204" y="-63.5" font-family="Helvetica,sans-Serif" font-size="10.00" fill="#000000">SedClosure.h</text>
</a>
</g>
</g>
<!-- Node3&#45;&gt;Node8 -->
<g id="edge10" class="edge">
<title>Node3&#45;&gt;Node8</title>
<path fill="none" stroke="#191970" d="M258.5037,-112.2455C248.7558,-103.9746 234.5741,-91.9416 223.1202,-82.2232"/>
<polygon fill="#191970" stroke="#191970" points="225.2541,-79.4437 215.3646,-75.6427 220.7253,-84.7813 225.2541,-79.4437"/>
</g>
<!-- Node9 -->
<g id="node10" class="node">
<title>Node9</title>
<polygon fill="#ffffff" stroke="#bfbfbf" points="282.5,-.5 282.5,-19.5 417.5,-19.5 417.5,-.5 282.5,-.5"/>
<text text-anchor="middle" x="350" y="-7.5" font-family="Helvetica,sans-Serif" font-size="10.00" fill="#000000">xtensor&#45;python/pyarray.hpp</text>
</g>
<!-- Node3&#45;&gt;Node9 -->
<g id="edge20" class="edge">
<title>Node3&#45;&gt;Node9</title>
<path fill="none" stroke="#191970" d="M296.709,-115.6038C328.8817,-107.2954 379.9952,-91.9568 391,-76 402.4779,-59.3571 386.4636,-39.5798 371.2136,-26.0425"/>
<polygon fill="#191970" stroke="#191970" points="373.3816,-23.2933 363.4581,-19.5819 368.9012,-28.6716 373.3816,-23.2933"/>
</g>
<!-- Node10 -->
<g id="node11" class="node">
<title>Node10</title>
<g id="a_node11"><a xlink:href="_arguments_dict_8h.html" target="_top" xlink:title="ArgumentsDict.h">
<polygon fill="#ffffff" stroke="#000000" points="463,-56.5 463,-75.5 553,-75.5 553,-56.5 463,-56.5"/>
<text text-anchor="middle" x="508" y="-63.5" font-family="Helvetica,sans-Serif" font-size="10.00" fill="#000000">ArgumentsDict.h</text>
</a>
</g>
</g>
<!-- Node3&#45;&gt;Node10 -->
<g id="edge14" class="edge">
<title>Node3&#45;&gt;Node10</title>
<path fill="none" stroke="#191970" d="M296.839,-115.6849C335.7357,-106.5328 408.4806,-89.4163 457.5793,-77.8637"/>
<polygon fill="#191970" stroke="#191970" points="458.439,-81.2571 467.3715,-75.5596 456.8357,-74.4431 458.439,-81.2571"/>
</g>
<!-- Node6&#45;&gt;Node4 -->
<g id="edge7" class="edge">
<title>Node6&#45;&gt;Node4</title>
<path fill="none" stroke="#191970" d="M81.8447,-56.2455C91.888,-47.9746 106.4995,-35.9416 118.3004,-26.2232"/>
<polygon fill="#191970" stroke="#191970" points="120.7967,-28.7015 126.291,-19.6427 116.3467,-23.298 120.7967,-28.7015"/>
</g>
<!-- Node7&#45;&gt;Node5 -->
<g id="edge9" class="edge">
<title>Node7&#45;&gt;Node5</title>
<path fill="none" stroke="#191970" d="M322.0588,-56.2455C305.96,-47.4928 282.1121,-34.527 263.7609,-24.5496"/>
<polygon fill="#191970" stroke="#191970" points="265.1929,-21.3444 254.7356,-19.6427 261.8493,-27.4942 265.1929,-21.3444"/>
</g>
<!-- Node8&#45;&gt;Node4 -->
<g id="edge11" class="edge">
<title>Node8&#45;&gt;Node4</title>
<path fill="none" stroke="#191970" d="M192.5037,-56.2455C182.7558,-47.9746 168.5741,-35.9416 157.1202,-26.2232"/>
<polygon fill="#191970" stroke="#191970" points="159.2541,-23.4437 149.3646,-19.6427 154.7253,-28.7813 159.2541,-23.4437"/>
</g>
<!-- Node8&#45;&gt;Node5 -->
<g id="edge12" class="edge">
<title>Node8&#45;&gt;Node5</title>
<path fill="none" stroke="#191970" d="M209.7482,-56.2455C214.2435,-48.617 220.6248,-37.7881 226.0825,-28.5267"/>
<polygon fill="#191970" stroke="#191970" points="229.2561,-30.035 231.3177,-19.6427 223.2253,-26.4811 229.2561,-30.035"/>
</g>
<!-- Node8&#45;&gt;Node9 -->
<g id="edge13" class="edge">
<title>Node8&#45;&gt;Node9</title>
<path fill="none" stroke="#191970" d="M229.0983,-56.3733C252.9555,-47.2226 289.0335,-33.3844 315.571,-23.2057"/>
<polygon fill="#191970" stroke="#191970" points="317.1459,-26.3503 325.2292,-19.5011 314.639,-19.8145 317.1459,-26.3503"/>
</g>
<!-- Node10&#45;&gt;Node9 -->
<g id="edge18" class="edge">
<title>Node10&#45;&gt;Node9</title>
<path fill="none" stroke="#191970" d="M480.8388,-56.3733C454.7933,-47.1419 415.2884,-33.1402 386.5021,-22.9375"/>
<polygon fill="#191970" stroke="#191970" points="387.4015,-19.5429 376.8067,-19.5011 385.063,-26.1408 387.4015,-19.5429"/>
</g>
<!-- Node11 -->
<g id="node12" class="node">
<title>Node11</title>
<polygon fill="#ffffff" stroke="#bfbfbf" points="672.5,-.5 672.5,-19.5 707.5,-19.5 707.5,-.5 672.5,-.5"/>
<text text-anchor="middle" x="690" y="-7.5" font-family="Helvetica,sans-Serif" font-size="10.00" fill="#000000">map</text>
</g>
<!-- Node10&#45;&gt;Node11 -->
<g id="edge15" class="edge">
<title>Node10&#45;&gt;Node11</title>
<path fill="none" stroke="#191970" d="M543.259,-56.4768C572.9952,-48.2521 616.8447,-35.6739 662.9012,-20.2079"/>
<polygon fill="#191970" stroke="#191970" points="664.1014,-23.4967 672.4477,-16.9707 661.8534,-16.8675 664.1014,-23.4967"/>
</g>
<!-- Node12 -->
<g id="node13" class="node">
<title>Node12</title>
<polygon fill="#ffffff" stroke="#bfbfbf" points="435.5,-.5 435.5,-19.5 494.5,-19.5 494.5,-.5 435.5,-.5"/>
<text text-anchor="middle" x="465" y="-7.5" font-family="Helvetica,sans-Serif" font-size="10.00" fill="#000000">stdexcept</text>
</g>
<!-- Node10&#45;&gt;Node12 -->
<g id="edge16" class="edge">
<title>Node10&#45;&gt;Node12</title>
<path fill="none" stroke="#191970" d="M500.51,-56.2455C494.4674,-48.3761 485.8097,-37.101 478.5559,-27.6542"/>
<polygon fill="#191970" stroke="#191970" points="481.2705,-25.4426 472.4042,-19.6427 475.7185,-29.7058 481.2705,-25.4426"/>
</g>
<!-- Node13 -->
<g id="node14" class="node">
<title>Node13</title>
<polygon fill="#ffffff" stroke="#bfbfbf" points="512.5,-.5 512.5,-19.5 553.5,-19.5 553.5,-.5 512.5,-.5"/>
<text text-anchor="middle" x="533" y="-7.5" font-family="Helvetica,sans-Serif" font-size="10.00" fill="#000000">string</text>
</g>
<!-- Node10&#45;&gt;Node13 -->
<g id="edge17" class="edge">
<title>Node10&#45;&gt;Node13</title>
<path fill="none" stroke="#191970" d="M512.3547,-56.2455C515.7244,-48.6973 520.493,-38.0158 524.5983,-28.8197"/>
<polygon fill="#191970" stroke="#191970" points="527.8147,-30.2009 528.6952,-19.6427 521.4227,-27.3473 527.8147,-30.2009"/>
</g>
<!-- Node14 -->
<g id="node15" class="node">
<title>Node14</title>
<polygon fill="#ffffff" stroke="#bfbfbf" points="571.5,-.5 571.5,-19.5 654.5,-19.5 654.5,-.5 571.5,-.5"/>
<text text-anchor="middle" x="613" y="-7.5" font-family="Helvetica,sans-Serif" font-size="10.00" fill="#000000">xtensor/xio.hpp</text>
</g>
<!-- Node10&#45;&gt;Node14 -->
<g id="edge19" class="edge">
<title>Node10&#45;&gt;Node14</title>
<path fill="none" stroke="#191970" d="M526.2896,-56.2455C542.7762,-47.4527 567.2352,-34.4079 585.9765,-24.4125"/>
<polygon fill="#191970" stroke="#191970" points="587.7435,-27.4368 594.92,-19.6427 584.4494,-21.2604 587.7435,-27.4368"/>
</g>
</g>
</svg>
