<?xml version="1.0" encoding="UTF-8" standalone="no"?>
<!DOCTYPE svg PUBLIC "-//W3C//DTD SVG 1.1//EN"
 "http://www.w3.org/Graphics/SVG/1.1/DTD/svg11.dtd">
<!-- Generated by graphviz version 2.43.0 (0)
 -->
<!-- Title: Kappa2D.cpp Pages: 1 -->
<svg width="790pt" height="196pt"
 viewBox="0.00 0.00 789.50 196.00" xmlns="http://www.w3.org/2000/svg" xmlns:xlink="http://www.w3.org/1999/xlink">
<g id="graph0" class="graph" transform="scale(1 1) rotate(0) translate(4 192)">
<title>Kappa2D.cpp</title>
<polygon fill="white" stroke="transparent" points="-4,4 -4,-192 785.5,-192 785.5,4 -4,4"/>
<!-- Node1 -->
<g id="node1" class="node">
<title>Node1</title>
<g id="a_node1"><a xlink:title=" ">
<polygon fill="#bfbfbf" stroke="black" points="153,-168.5 153,-187.5 234,-187.5 234,-168.5 153,-168.5"/>
<text text-anchor="middle" x="193.5" y="-175.5" font-family="Helvetica,sans-Serif" font-size="10.00">Kappa2D.cpp</text>
</a>
</g>
</g>
<!-- Node2 -->
<g id="node2" class="node">
<title>Node2</title>
<g id="a_node2"><a xlink:title=" ">
<polygon fill="white" stroke="#bfbfbf" points="0,-112.5 0,-131.5 119,-131.5 119,-112.5 0,-112.5"/>
<text text-anchor="middle" x="59.5" y="-119.5" font-family="Helvetica,sans-Serif" font-size="10.00">pybind11/pybind11.h</text>
</a>
</g>
</g>
<!-- Node1&#45;&gt;Node2 -->
<g id="edge1" class="edge">
<title>Node1&#45;&gt;Node2</title>
<path fill="none" stroke="midnightblue" d="M172.27,-168.44C150.12,-159.52 115.18,-145.44 90.06,-135.32"/>
<polygon fill="midnightblue" stroke="midnightblue" points="91.22,-132.01 80.63,-131.52 88.6,-138.5 91.22,-132.01"/>
</g>
<!-- Node3 -->
<g id="node3" class="node">
<title>Node3</title>
<g id="a_node3"><a xlink:title=" ">
<polygon fill="white" stroke="#bfbfbf" points="137.5,-112.5 137.5,-131.5 249.5,-131.5 249.5,-112.5 137.5,-112.5"/>
<text text-anchor="middle" x="193.5" y="-119.5" font-family="Helvetica,sans-Serif" font-size="10.00">pybind11/stl_bind.h</text>
</a>
</g>
</g>
<!-- Node1&#45;&gt;Node3 -->
<g id="edge2" class="edge">
<title>Node1&#45;&gt;Node3</title>
<path fill="none" stroke="midnightblue" d="M193.5,-168.08C193.5,-161.01 193.5,-150.86 193.5,-141.99"/>
<polygon fill="midnightblue" stroke="midnightblue" points="197,-141.75 193.5,-131.75 190,-141.75 197,-141.75"/>
</g>
<!-- Node4 -->
<g id="node4" class="node">
<title>Node4</title>
<g id="a_node4"><a xlink:href="_kappa2_d_8h.html" target="_top" xlink:title=" ">
<polygon fill="white" stroke="black" points="267.5,-112.5 267.5,-131.5 337.5,-131.5 337.5,-112.5 267.5,-112.5"/>
<text text-anchor="middle" x="302.5" y="-119.5" font-family="Helvetica,sans-Serif" font-size="10.00">Kappa2D.h</text>
</a>
</g>
</g>
<!-- Node1&#45;&gt;Node4 -->
<g id="edge3" class="edge">
<title>Node1&#45;&gt;Node4</title>
<path fill="none" stroke="midnightblue" d="M211.01,-168.32C228.57,-159.62 255.83,-146.12 276.03,-136.11"/>
<polygon fill="midnightblue" stroke="midnightblue" points="277.62,-139.23 285.03,-131.65 274.52,-132.96 277.62,-139.23"/>
</g>
<!-- Node5 -->
<g id="node5" class="node">
<title>Node5</title>
<g id="a_node5"><a xlink:title=" ">
<polygon fill="white" stroke="#bfbfbf" points="143,-0.5 143,-19.5 190,-19.5 190,-0.5 143,-0.5"/>
<text text-anchor="middle" x="166.5" y="-7.5" font-family="Helvetica,sans-Serif" font-size="10.00">cmath</text>
</a>
</g>
</g>
<!-- Node4&#45;&gt;Node5 -->
<g id="edge4" class="edge">
<title>Node4&#45;&gt;Node5</title>
<path fill="none" stroke="midnightblue" d="M271.31,-112.42C240.85,-103.46 197.4,-88.93 185.5,-76 173.94,-63.44 169.38,-44.22 167.6,-29.93"/>
<polygon fill="midnightblue" stroke="midnightblue" points="171.07,-29.4 166.69,-19.76 164.09,-30.03 171.07,-29.4"/>
</g>
<!-- Node6 -->
<g id="node6" class="node">
<title>Node6</title>
<g id="a_node6"><a xlink:title=" ">
<polygon fill="white" stroke="#bfbfbf" points="240.5,-0.5 240.5,-19.5 300.5,-19.5 300.5,-0.5 240.5,-0.5"/>
<text text-anchor="middle" x="270.5" y="-7.5" font-family="Helvetica,sans-Serif" font-size="10.00">iostream</text>
</a>
</g>
</g>
<!-- Node4&#45;&gt;Node6 -->
<g id="edge5" class="edge">
<title>Node4&#45;&gt;Node6</title>
<path fill="none" stroke="midnightblue" d="M299.99,-112.37C294.8,-94.54 282.8,-53.3 275.82,-29.27"/>
<polygon fill="midnightblue" stroke="midnightblue" points="279.15,-28.22 273,-19.59 272.43,-30.17 279.15,-28.22"/>
</g>
<!-- Node7 -->
<g id="node7" class="node">
<title>Node7</title>
<g id="a_node7"><a xlink:href="_comp_kernel_8h.html" target="_top" xlink:title=" ">
<polygon fill="white" stroke="black" points="53,-56.5 53,-75.5 138,-75.5 138,-56.5 53,-56.5"/>
<text text-anchor="middle" x="95.5" y="-63.5" font-family="Helvetica,sans-Serif" font-size="10.00">CompKernel.h</text>
</a>
</g>
</g>
<!-- Node4&#45;&gt;Node7 -->
<g id="edge6" class="edge">
<title>Node4&#45;&gt;Node7</title>
<path fill="none" stroke="midnightblue" d="M269.7,-112.44C234.12,-103.16 177.19,-88.31 138.15,-78.13"/>
<polygon fill="midnightblue" stroke="midnightblue" points="138.71,-74.65 128.15,-75.52 136.94,-81.43 138.71,-74.65"/>
</g>
<!-- Node8 -->
<g id="node8" class="node">
<title>Node8</title>
<g id="a_node8"><a xlink:href="_model_factory_8h.html" target="_top" xlink:title=" ">
<polygon fill="white" stroke="black" points="331,-56.5 331,-75.5 420,-75.5 420,-56.5 331,-56.5"/>
<text text-anchor="middle" x="375.5" y="-63.5" font-family="Helvetica,sans-Serif" font-size="10.00">ModelFactory.h</text>
</a>
</g>
</g>
<!-- Node4&#45;&gt;Node8 -->
<g id="edge8" class="edge">
<title>Node4&#45;&gt;Node8</title>
<path fill="none" stroke="midnightblue" d="M314.23,-112.32C325.34,-104.11 342.24,-91.6 355.48,-81.81"/>
<polygon fill="midnightblue" stroke="midnightblue" points="357.6,-84.59 363.56,-75.83 353.44,-78.97 357.6,-84.59"/>
</g>
<!-- Node9 -->
<g id="node9" class="node">
<title>Node9</title>
<g id="a_node9"><a xlink:href="_sed_closure_8h.html" target="_top" xlink:title=" ">
<polygon fill="white" stroke="black" points="194.5,-56.5 194.5,-75.5 274.5,-75.5 274.5,-56.5 194.5,-56.5"/>
<text text-anchor="middle" x="234.5" y="-63.5" font-family="Helvetica,sans-Serif" font-size="10.00">SedClosure.h</text>
</a>
</g>
</g>
<!-- Node4&#45;&gt;Node9 -->
<g id="edge10" class="edge">
<title>Node4&#45;&gt;Node9</title>
<path fill="none" stroke="midnightblue" d="M291.57,-112.32C281.33,-104.18 265.78,-91.84 253.5,-82.09"/>
<polygon fill="midnightblue" stroke="midnightblue" points="255.63,-79.31 245.62,-75.83 251.28,-84.79 255.63,-79.31"/>
</g>
<!-- Node10 -->
<g id="node10" class="node">
<title>Node10</title>
<g id="a_node10"><a xlink:title=" ">
<polygon fill="white" stroke="#bfbfbf" points="319,-0.5 319,-19.5 470,-19.5 470,-0.5 319,-0.5"/>
<text text-anchor="middle" x="394.5" y="-7.5" font-family="Helvetica,sans-Serif" font-size="10.00">xtensor&#45;python/pyarray.hpp</text>
</a>
</g>
</g>
<!-- Node4&#45;&gt;Node10 -->
<g id="edge20" class="edge">
<title>Node4&#45;&gt;Node10</title>
<path fill="none" stroke="midnightblue" d="M337.63,-119.08C367.29,-115.38 408.09,-104.96 428.5,-76 439.54,-60.34 425.85,-40.63 412.7,-27.04"/>
<polygon fill="midnightblue" stroke="midnightblue" points="414.83,-24.24 405.2,-19.83 409.98,-29.29 414.83,-24.24"/>
</g>
<!-- Node11 -->
<g id="node11" class="node">
<title>Node11</title>
<g id="a_node11"><a xlink:href="_arguments_dict_8h.html" target="_top" xlink:title=" ">
<polygon fill="white" stroke="black" points="510.5,-56.5 510.5,-75.5 608.5,-75.5 608.5,-56.5 510.5,-56.5"/>
<text text-anchor="middle" x="559.5" y="-63.5" font-family="Helvetica,sans-Serif" font-size="10.00">ArgumentsDict.h</text>
</a>
</g>
</g>
<!-- Node4&#45;&gt;Node11 -->
<g id="edge14" class="edge">
<title>Node4&#45;&gt;Node11</title>
<path fill="none" stroke="midnightblue" d="M337.7,-113.6C381.94,-104.31 458.2,-88.29 508.74,-77.67"/>
<polygon fill="midnightblue" stroke="midnightblue" points="509.74,-81.03 518.8,-75.55 508.3,-74.18 509.74,-81.03"/>
</g>
<!-- Node7&#45;&gt;Node5 -->
<g id="edge7" class="edge">
<title>Node7&#45;&gt;Node5</title>
<path fill="none" stroke="midnightblue" d="M106.91,-56.32C117.61,-48.18 133.84,-35.84 146.66,-26.09"/>
<polygon fill="midnightblue" stroke="midnightblue" points="149.04,-28.67 154.89,-19.83 144.81,-23.1 149.04,-28.67"/>
</g>
<!-- Node8&#45;&gt;Node6 -->
<g id="edge9" class="edge">
<title>Node8&#45;&gt;Node6</title>
<path fill="none" stroke="midnightblue" d="M358.63,-56.32C341.79,-47.66 315.69,-34.24 296.26,-24.25"/>
<polygon fill="midnightblue" stroke="midnightblue" points="297.82,-21.12 287.33,-19.65 294.62,-27.34 297.82,-21.12"/>
</g>
<!-- Node9&#45;&gt;Node5 -->
<g id="edge11" class="edge">
<title>Node9&#45;&gt;Node5</title>
<path fill="none" stroke="midnightblue" d="M223.57,-56.32C213.33,-48.18 197.78,-35.84 185.5,-26.09"/>
<polygon fill="midnightblue" stroke="midnightblue" points="187.63,-23.31 177.62,-19.83 183.28,-28.79 187.63,-23.31"/>
</g>
<!-- Node9&#45;&gt;Node6 -->
<g id="edge12" class="edge">
<title>Node9&#45;&gt;Node6</title>
<path fill="none" stroke="midnightblue" d="M240.44,-56.08C245.48,-48.53 252.84,-37.49 259.01,-28.23"/>
<polygon fill="midnightblue" stroke="midnightblue" points="262.03,-30.01 264.67,-19.75 256.21,-26.13 262.03,-30.01"/>
</g>
<!-- Node9&#45;&gt;Node10 -->
<g id="edge13" class="edge">
<title>Node9&#45;&gt;Node10</title>
<path fill="none" stroke="midnightblue" d="M259.85,-56.44C286.77,-47.36 329.5,-32.94 359.59,-22.78"/>
<polygon fill="midnightblue" stroke="midnightblue" points="360.91,-26.03 369.27,-19.52 358.67,-19.4 360.91,-26.03"/>
</g>
<!-- Node11&#45;&gt;Node10 -->
<g id="edge18" class="edge">
<title>Node11&#45;&gt;Node10</title>
<path fill="none" stroke="midnightblue" d="M533.36,-56.44C505.48,-47.32 461.15,-32.81 430.1,-22.65"/>
<polygon fill="midnightblue" stroke="midnightblue" points="431.12,-19.3 420.52,-19.52 428.94,-25.95 431.12,-19.3"/>
</g>
<!-- Node12 -->
<g id="node12" class="node">
<title>Node12</title>
<g id="a_node12"><a xlink:title=" ">
<polygon fill="white" stroke="#bfbfbf" points="743.5,-0.5 743.5,-19.5 781.5,-19.5 781.5,-0.5 743.5,-0.5"/>
<text text-anchor="middle" x="762.5" y="-7.5" font-family="Helvetica,sans-Serif" font-size="10.00">map</text>
</a>
</g>
</g>
<!-- Node11&#45;&gt;Node12 -->
<g id="edge15" class="edge">
<title>Node11&#45;&gt;Node12</title>
<path fill="none" stroke="midnightblue" d="M595.2,-56.48C628.67,-48.34 680.32,-35.42 733.65,-20.13"/>
<polygon fill="midnightblue" stroke="midnightblue" points="734.63,-23.49 743.27,-17.35 732.69,-16.76 734.63,-23.49"/>
</g>
<!-- Node13 -->
<g id="node13" class="node">
<title>Node13</title>
<g id="a_node13"><a xlink:title=" ">
<polygon fill="white" stroke="#bfbfbf" points="488,-0.5 488,-19.5 553,-19.5 553,-0.5 488,-0.5"/>
<text text-anchor="middle" x="520.5" y="-7.5" font-family="Helvetica,sans-Serif" font-size="10.00">stdexcept</text>
</a>
</g>
</g>
<!-- Node11&#45;&gt;Node13 -->
<g id="edge16" class="edge">
<title>Node11&#45;&gt;Node13</title>
<path fill="none" stroke="midnightblue" d="M553.06,-56.08C547.55,-48.46 539.47,-37.26 532.74,-27.94"/>
<polygon fill="midnightblue" stroke="midnightblue" points="535.51,-25.81 526.82,-19.75 529.84,-29.91 535.51,-25.81"/>
</g>
<!-- Node14 -->
<g id="node14" class="node">
<title>Node14</title>
<g id="a_node14"><a xlink:title=" ">
<polygon fill="white" stroke="#bfbfbf" points="571.5,-0.5 571.5,-19.5 615.5,-19.5 615.5,-0.5 571.5,-0.5"/>
<text text-anchor="middle" x="593.5" y="-7.5" font-family="Helvetica,sans-Serif" font-size="10.00">string</text>
</a>
</g>
</g>
<!-- Node11&#45;&gt;Node14 -->
<g id="edge17" class="edge">
<title>Node11&#45;&gt;Node14</title>
<path fill="none" stroke="midnightblue" d="M565.11,-56.08C569.87,-48.53 576.82,-37.49 582.65,-28.23"/>
<polygon fill="midnightblue" stroke="midnightblue" points="585.62,-30.08 587.99,-19.75 579.7,-26.35 585.62,-30.08"/>
</g>
<!-- Node15 -->
<g id="node15" class="node">
<title>Node15</title>
<g id="a_node15"><a xlink:title=" ">
<polygon fill="white" stroke="#bfbfbf" points="633.5,-0.5 633.5,-19.5 725.5,-19.5 725.5,-0.5 633.5,-0.5"/>
<text text-anchor="middle" x="679.5" y="-7.5" font-family="Helvetica,sans-Serif" font-size="10.00">xtensor/xio.hpp</text>
</a>
</g>
</g>
<!-- Node11&#45;&gt;Node15 -->
<g id="edge19" class="edge">
<title>Node11&#45;&gt;Node15</title>
<path fill="none" stroke="midnightblue" d="M578.51,-56.44C598.09,-47.64 628.81,-33.81 651.23,-23.72"/>
<polygon fill="midnightblue" stroke="midnightblue" points="652.89,-26.81 660.57,-19.52 650.02,-20.43 652.89,-26.81"/>
</g>
</g>
</svg>
