<?xml version="1.0" encoding="UTF-8" standalone="no"?>
<!DOCTYPE svg PUBLIC "-//W3C//DTD SVG 1.1//EN"
 "http://www.w3.org/Graphics/SVG/1.1/DTD/svg11.dtd">
<!-- Generated by graphviz version 2.44.1 (20200629.0846)
 -->
<!-- Title: MCorr.cpp Pages: 1 -->
<svg width="669pt" height="207pt"
 viewBox="0.00 0.00 669.00 207.00" xmlns="http://www.w3.org/2000/svg" xmlns:xlink="http://www.w3.org/1999/xlink">
<g id="graph0" class="graph" transform="scale(1 1) rotate(0) translate(4 203)">
<title>MCorr.cpp</title>
<polygon fill="white" stroke="transparent" points="-4,4 -4,-203 665,-203 665,4 -4,4"/>
<!-- Node1 -->
<g id="node1" class="node">
<title>Node1</title>
<g id="a_node1"><a xlink:title=" ">
<polygon fill="#bfbfbf" stroke="black" points="144,-179.5 144,-198.5 206,-198.5 206,-179.5 144,-179.5"/>
<text text-anchor="middle" x="175" y="-186.5" font-family="Helvetica,sans-Serif" font-size="10.00">MCorr.cpp</text>
</a>
</g>
</g>
<!-- Node2 -->
<g id="node2" class="node">
<title>Node2</title>
<g id="a_node2"><a xlink:title=" ">
<polygon fill="white" stroke="#bfbfbf" points="0,-123.5 0,-142.5 106,-142.5 106,-123.5 0,-123.5"/>
<text text-anchor="middle" x="53" y="-130.5" font-family="Helvetica,sans-Serif" font-size="10.00">pybind11/pybind11.h</text>
</a>
</g>
</g>
<!-- Node1&#45;&gt;Node2 -->
<g id="edge1" class="edge">
<title>Node1&#45;&gt;Node2</title>
<path fill="none" stroke="midnightblue" d="M155.67,-179.44C135.68,-170.6 104.26,-156.69 81.44,-146.59"/>
<polygon fill="midnightblue" stroke="midnightblue" points="82.8,-143.36 72.24,-142.52 79.97,-149.76 82.8,-143.36"/>
</g>
<!-- Node3 -->
<g id="node3" class="node">
<title>Node3</title>
<g id="a_node3"><a xlink:title=" ">
<polygon fill="white" stroke="#bfbfbf" points="124.5,-123.5 124.5,-142.5 225.5,-142.5 225.5,-123.5 124.5,-123.5"/>
<text text-anchor="middle" x="175" y="-130.5" font-family="Helvetica,sans-Serif" font-size="10.00">pybind11/stl_bind.h</text>
</a>
</g>
</g>
<!-- Node1&#45;&gt;Node3 -->
<g id="edge2" class="edge">
<title>Node1&#45;&gt;Node3</title>
<path fill="none" stroke="midnightblue" d="M175,-179.08C175,-172.01 175,-161.86 175,-152.99"/>
<polygon fill="midnightblue" stroke="midnightblue" points="178.5,-152.75 175,-142.75 171.5,-152.75 178.5,-152.75"/>
</g>
<!-- Node4 -->
<g id="node4" class="node">
<title>Node4</title>
<g id="a_node4"><a xlink:href="_m_corr_8h.html" target="_top" xlink:title=" ">
<polygon fill="white" stroke="black" points="243.5,-123.5 243.5,-142.5 294.5,-142.5 294.5,-123.5 243.5,-123.5"/>
<text text-anchor="middle" x="269" y="-130.5" font-family="Helvetica,sans-Serif" font-size="10.00">MCorr.h</text>
</a>
</g>
</g>
<!-- Node1&#45;&gt;Node4 -->
<g id="edge3" class="edge">
<title>Node1&#45;&gt;Node4</title>
<path fill="none" stroke="midnightblue" d="M190.1,-179.32C204.9,-170.82 227.69,-157.73 244.98,-147.8"/>
<polygon fill="midnightblue" stroke="midnightblue" points="247.01,-150.67 253.93,-142.65 243.52,-144.6 247.01,-150.67"/>
</g>
<!-- Node5 -->
<g id="node5" class="node">
<title>Node5</title>
<g id="a_node5"><a xlink:title=" ">
<polygon fill="white" stroke="#bfbfbf" points="277,-6 277,-25 321,-25 321,-6 277,-6"/>
<text text-anchor="middle" x="299" y="-13" font-family="Helvetica,sans-Serif" font-size="10.00">cmath</text>
</a>
</g>
</g>
<!-- Node4&#45;&gt;Node5 -->
<g id="edge4" class="edge">
<title>Node4&#45;&gt;Node5</title>
<path fill="none" stroke="midnightblue" d="M283.66,-123.4C295.41,-115.58 311.03,-102.86 318,-87 325.62,-69.65 317.86,-48.52 310.09,-33.94"/>
<polygon fill="midnightblue" stroke="midnightblue" points="312.95,-31.9 304.89,-25.03 306.9,-35.43 312.95,-31.9"/>
</g>
<!-- Node6 -->
<g id="node6" class="node">
<title>Node6</title>
<g id="a_node6"><a xlink:title=" ">
<polygon fill="white" stroke="#bfbfbf" points="39,-6 39,-25 93,-25 93,-6 39,-6"/>
<text text-anchor="middle" x="66" y="-13" font-family="Helvetica,sans-Serif" font-size="10.00">iostream</text>
</a>
</g>
</g>
<!-- Node4&#45;&gt;Node6 -->
<g id="edge5" class="edge">
<title>Node4&#45;&gt;Node6</title>
<path fill="none" stroke="midnightblue" d="M243.43,-125.04C240.59,-124.32 237.74,-123.63 235,-123 153.36,-104.27 103.27,-151.64 50,-87 37.7,-72.08 46,-49.59 54.55,-34.04"/>
<polygon fill="midnightblue" stroke="midnightblue" points="57.6,-35.77 59.74,-25.39 51.6,-32.17 57.6,-35.77"/>
</g>
<!-- Node7 -->
<g id="node7" class="node">
<title>Node7</title>
<g id="a_node7"><a xlink:title=" ">
<polygon fill="white" stroke="#bfbfbf" points="160.5,-67.5 160.5,-86.5 211.5,-86.5 211.5,-67.5 160.5,-67.5"/>
<text text-anchor="middle" x="186" y="-74.5" font-family="Helvetica,sans-Serif" font-size="10.00">valarray</text>
</a>
</g>
</g>
<!-- Node4&#45;&gt;Node7 -->
<g id="edge6" class="edge">
<title>Node4&#45;&gt;Node7</title>
<path fill="none" stroke="midnightblue" d="M255.66,-123.32C242.84,-114.98 223.22,-102.21 208.06,-92.35"/>
<polygon fill="midnightblue" stroke="midnightblue" points="209.59,-89.17 199.3,-86.65 205.78,-95.04 209.59,-89.17"/>
</g>
<!-- Node8 -->
<g id="node8" class="node">
<title>Node8</title>
<g id="a_node8"><a xlink:href="_comp_kernel_8h.html" target="_top" xlink:title=" ">
<polygon fill="white" stroke="black" points="229.5,-67.5 229.5,-86.5 308.5,-86.5 308.5,-67.5 229.5,-67.5"/>
<text text-anchor="middle" x="269" y="-74.5" font-family="Helvetica,sans-Serif" font-size="10.00">CompKernel.h</text>
</a>
</g>
</g>
<!-- Node4&#45;&gt;Node8 -->
<g id="edge7" class="edge">
<title>Node4&#45;&gt;Node8</title>
<path fill="none" stroke="midnightblue" d="M269,-123.08C269,-116.01 269,-105.86 269,-96.99"/>
<polygon fill="midnightblue" stroke="midnightblue" points="272.5,-96.75 269,-86.75 265.5,-96.75 272.5,-96.75"/>
</g>
<!-- Node9 -->
<g id="node9" class="node">
<title>Node9</title>
<g id="a_node9"><a xlink:href="_model_factory_8h.html" target="_top" xlink:title=" ">
<polygon fill="white" stroke="black" points="59.5,-67.5 59.5,-86.5 142.5,-86.5 142.5,-67.5 59.5,-67.5"/>
<text text-anchor="middle" x="101" y="-74.5" font-family="Helvetica,sans-Serif" font-size="10.00">ModelFactory.h</text>
</a>
</g>
</g>
<!-- Node4&#45;&gt;Node9 -->
<g id="edge9" class="edge">
<title>Node4&#45;&gt;Node9</title>
<path fill="none" stroke="midnightblue" d="M243.48,-123.8C215.24,-114.72 169.48,-100.01 137.46,-89.72"/>
<polygon fill="midnightblue" stroke="midnightblue" points="138.18,-86.27 127.59,-86.55 136.04,-92.94 138.18,-86.27"/>
</g>
<!-- Node10 -->
<g id="node10" class="node">
<title>Node10</title>
<g id="a_node10"><a xlink:href="equivalent__polynomials_8h.html" target="_top" xlink:title=" ">
<polygon fill="white" stroke="black" points="365,-67.5 365,-86.5 491,-86.5 491,-67.5 365,-67.5"/>
<text text-anchor="middle" x="428" y="-74.5" font-family="Helvetica,sans-Serif" font-size="10.00">equivalent_polynomials.h</text>
</a>
</g>
</g>
<!-- Node4&#45;&gt;Node10 -->
<g id="edge11" class="edge">
<title>Node4&#45;&gt;Node10</title>
<path fill="none" stroke="midnightblue" d="M294.19,-123.44C320.94,-114.36 363.4,-99.94 393.31,-89.78"/>
<polygon fill="midnightblue" stroke="midnightblue" points="394.58,-93.05 402.92,-86.52 392.33,-86.42 394.58,-93.05"/>
</g>
<!-- Node14 -->
<g id="node14" class="node">
<title>Node14</title>
<g id="a_node14"><a xlink:title=" ">
<polygon fill="white" stroke="#bfbfbf" points="509,-67.5 509,-86.5 643,-86.5 643,-67.5 509,-67.5"/>
<text text-anchor="middle" x="576" y="-74.5" font-family="Helvetica,sans-Serif" font-size="10.00">xtensor&#45;python/pyarray.hpp</text>
</a>
</g>
</g>
<!-- Node4&#45;&gt;Node14 -->
<g id="edge16" class="edge">
<title>Node4&#45;&gt;Node14</title>
<path fill="none" stroke="midnightblue" d="M294.65,-127.49C343.38,-118.92 450.46,-100.08 517.56,-88.28"/>
<polygon fill="midnightblue" stroke="midnightblue" points="518.33,-91.7 527.57,-86.52 517.11,-84.8 518.33,-91.7"/>
</g>
<!-- Node8&#45;&gt;Node5 -->
<g id="edge8" class="edge">
<title>Node8&#45;&gt;Node5</title>
<path fill="none" stroke="midnightblue" d="M273.3,-67.48C277.66,-58.82 284.56,-45.15 290.1,-34.15"/>
<polygon fill="midnightblue" stroke="midnightblue" points="293.33,-35.51 294.71,-25.01 287.08,-32.36 293.33,-35.51"/>
</g>
<!-- Node9&#45;&gt;Node6 -->
<g id="edge10" class="edge">
<title>Node9&#45;&gt;Node6</title>
<path fill="none" stroke="midnightblue" d="M95.99,-67.48C90.84,-58.73 82.69,-44.87 76.18,-33.81"/>
<polygon fill="midnightblue" stroke="midnightblue" points="79.09,-31.85 71.01,-25.01 73.06,-35.4 79.09,-31.85"/>
</g>
<!-- Node10&#45;&gt;Node5 -->
<g id="edge12" class="edge">
<title>Node10&#45;&gt;Node5</title>
<path fill="none" stroke="midnightblue" d="M409.19,-67.41C389.45,-58.39 357.52,-43.75 330,-31 328.85,-30.47 327.67,-29.92 326.48,-29.37"/>
<polygon fill="midnightblue" stroke="midnightblue" points="327.89,-26.16 317.35,-25.11 324.93,-32.51 327.89,-26.16"/>
</g>
<!-- Node11 -->
<g id="node11" class="node">
<title>Node11</title>
<g id="a_node11"><a xlink:title=" ">
<polygon fill="white" stroke="#bfbfbf" points="475.5,-6 475.5,-25 524.5,-25 524.5,-6 475.5,-6"/>
<text text-anchor="middle" x="500" y="-13" font-family="Helvetica,sans-Serif" font-size="10.00">cassert</text>
</a>
</g>
</g>
<!-- Node10&#45;&gt;Node11 -->
<g id="edge13" class="edge">
<title>Node10&#45;&gt;Node11</title>
<path fill="none" stroke="midnightblue" d="M438.32,-67.48C449.65,-58.11 468.07,-42.88 481.84,-31.51"/>
<polygon fill="midnightblue" stroke="midnightblue" points="484.22,-34.08 489.7,-25.01 479.77,-28.68 484.22,-34.08"/>
</g>
<!-- Node12 -->
<g id="node12" class="node">
<title>Node12</title>
<g id="a_node12"><a xlink:href="equivalent__polynomials__coefficients_8h.html" target="_top" xlink:title=" ">
<polygon fill="white" stroke="black" points="543,-0.5 543,-30.5 661,-30.5 661,-0.5 543,-0.5"/>
<text text-anchor="start" x="551" y="-18.5" font-family="Helvetica,sans-Serif" font-size="10.00">equivalent_polynomials</text>
<text text-anchor="middle" x="602" y="-7.5" font-family="Helvetica,sans-Serif" font-size="10.00">_coefficients.h</text>
</a>
</g>
</g>
<!-- Node10&#45;&gt;Node12 -->
<g id="edge14" class="edge">
<title>Node10&#45;&gt;Node12</title>
<path fill="none" stroke="midnightblue" d="M452.93,-67.48C478.48,-58.74 518.93,-44.91 551.25,-33.86"/>
<polygon fill="midnightblue" stroke="midnightblue" points="552.66,-37.07 560.99,-30.52 550.4,-30.45 552.66,-37.07"/>
</g>
<!-- Node13 -->
<g id="node13" class="node">
<title>Node13</title>
<g id="a_node13"><a xlink:href="equivalent__polynomials__utils_8h.html" target="_top" xlink:title=" ">
<polygon fill="white" stroke="black" points="339,-0.5 339,-30.5 457,-30.5 457,-0.5 339,-0.5"/>
<text text-anchor="start" x="347" y="-18.5" font-family="Helvetica,sans-Serif" font-size="10.00">equivalent_polynomials</text>
<text text-anchor="middle" x="398" y="-7.5" font-family="Helvetica,sans-Serif" font-size="10.00">_utils.h</text>
</a>
</g>
</g>
<!-- Node10&#45;&gt;Node13 -->
<g id="edge15" class="edge">
<title>Node10&#45;&gt;Node13</title>
<path fill="none" stroke="midnightblue" d="M423.7,-67.48C420.02,-60.17 414.54,-49.3 409.58,-39.47"/>
<polygon fill="midnightblue" stroke="midnightblue" points="412.7,-37.88 405.07,-30.52 406.45,-41.03 412.7,-37.88"/>
</g>
</g>
</svg>
