<?xml version="1.0" encoding="UTF-8" standalone="no"?>
<!DOCTYPE svg PUBLIC "-//W3C//DTD SVG 1.1//EN"
 "http://www.w3.org/Graphics/SVG/1.1/DTD/svg11.dtd">
<!-- Generated by graphviz version 2.43.0 (0)
 -->
<!-- Title: MCorr.h Pages: 1 -->
<svg width="1248pt" height="151pt"
 viewBox="0.00 0.00 1247.66 151.00" xmlns="http://www.w3.org/2000/svg" xmlns:xlink="http://www.w3.org/1999/xlink">
<g id="graph0" class="graph" transform="scale(1 1) rotate(0) translate(4 147)">
<title>MCorr.h</title>
<polygon fill="white" stroke="transparent" points="-4,4 -4,-147 1243.66,-147 1243.66,4 -4,4"/>
<!-- Node1 -->
<g id="node1" class="node">
<title>Node1</title>
<g id="a_node1"><a xlink:title=" ">
<polygon fill="#bfbfbf" stroke="black" points="241.16,-123.5 241.16,-142.5 295.16,-142.5 295.16,-123.5 241.16,-123.5"/>
<text text-anchor="middle" x="268.16" y="-130.5" font-family="Helvetica,sans-Serif" font-size="10.00">MCorr.h</text>
</a>
</g>
</g>
<!-- Node2 -->
<g id="node2" class="node">
<title>Node2</title>
<g id="a_node2"><a xlink:title=" ">
<polygon fill="white" stroke="#bfbfbf" points="32.66,-6 32.66,-25 79.66,-25 79.66,-6 32.66,-6"/>
<text text-anchor="middle" x="56.16" y="-13" font-family="Helvetica,sans-Serif" font-size="10.00">cmath</text>
</a>
</g>
</g>
<!-- Node1&#45;&gt;Node2 -->
<g id="edge1" class="edge">
<title>Node1&#45;&gt;Node2</title>
<path fill="none" stroke="midnightblue" d="M241.11,-131.59C180.19,-130.03 35.17,-122.59 5.16,-87 -10.52,-68.41 13.69,-45.32 33.82,-30.74"/>
<polygon fill="midnightblue" stroke="midnightblue" points="35.83,-33.61 42.07,-25.05 31.85,-27.85 35.83,-33.61"/>
</g>
<!-- Node3 -->
<g id="node3" class="node">
<title>Node3</title>
<g id="a_node3"><a xlink:title=" ">
<polygon fill="white" stroke="#bfbfbf" points="98.16,-6 98.16,-25 158.16,-25 158.16,-6 98.16,-6"/>
<text text-anchor="middle" x="128.16" y="-13" font-family="Helvetica,sans-Serif" font-size="10.00">iostream</text>
</a>
</g>
</g>
<!-- Node1&#45;&gt;Node3 -->
<g id="edge2" class="edge">
<title>Node1&#45;&gt;Node3</title>
<path fill="none" stroke="midnightblue" d="M241.09,-129.11C213.57,-124.73 171.61,-113.84 147.16,-87 134.24,-72.83 129.95,-50.78 128.61,-35.12"/>
<polygon fill="midnightblue" stroke="midnightblue" points="132.1,-34.85 128.07,-25.05 125.11,-35.22 132.1,-34.85"/>
</g>
<!-- Node4 -->
<g id="node4" class="node">
<title>Node4</title>
<g id="a_node4"><a xlink:title=" ">
<polygon fill="white" stroke="#bfbfbf" points="424.66,-67.5 424.66,-86.5 481.66,-86.5 481.66,-67.5 424.66,-67.5"/>
<text text-anchor="middle" x="453.16" y="-74.5" font-family="Helvetica,sans-Serif" font-size="10.00">valarray</text>
</a>
</g>
</g>
<!-- Node1&#45;&gt;Node4 -->
<g id="edge3" class="edge">
<title>Node1&#45;&gt;Node4</title>
<path fill="none" stroke="midnightblue" d="M295.45,-124.03C326.92,-114.85 378.88,-99.68 414.5,-89.29"/>
<polygon fill="midnightblue" stroke="midnightblue" points="415.91,-92.52 424.53,-86.36 413.95,-85.8 415.91,-92.52"/>
</g>
<!-- Node5 -->
<g id="node5" class="node">
<title>Node5</title>
<g id="a_node5"><a xlink:href="_comp_kernel_8h.html" target="_top" xlink:title=" ">
<polygon fill="white" stroke="black" points="14.66,-67.5 14.66,-86.5 99.66,-86.5 99.66,-67.5 14.66,-67.5"/>
<text text-anchor="middle" x="57.16" y="-74.5" font-family="Helvetica,sans-Serif" font-size="10.00">CompKernel.h</text>
</a>
</g>
</g>
<!-- Node1&#45;&gt;Node5 -->
<g id="edge4" class="edge">
<title>Node1&#45;&gt;Node5</title>
<path fill="none" stroke="midnightblue" d="M241,-125.05C205.35,-115.93 142.35,-99.8 100.17,-89.01"/>
<polygon fill="midnightblue" stroke="midnightblue" points="101.01,-85.61 90.46,-86.52 99.28,-92.39 101.01,-85.61"/>
</g>
<!-- Node6 -->
<g id="node6" class="node">
<title>Node6</title>
<g id="a_node6"><a xlink:href="_model_factory_8h.html" target="_top" xlink:title=" ">
<polygon fill="white" stroke="black" points="156.66,-67.5 156.66,-86.5 245.66,-86.5 245.66,-67.5 156.66,-67.5"/>
<text text-anchor="middle" x="201.16" y="-74.5" font-family="Helvetica,sans-Serif" font-size="10.00">ModelFactory.h</text>
</a>
</g>
</g>
<!-- Node1&#45;&gt;Node6 -->
<g id="edge6" class="edge">
<title>Node1&#45;&gt;Node6</title>
<path fill="none" stroke="midnightblue" d="M257.39,-123.32C247.39,-115.26 232.27,-103.08 220.23,-93.37"/>
<polygon fill="midnightblue" stroke="midnightblue" points="222.1,-90.38 212.12,-86.83 217.71,-95.83 222.1,-90.38"/>
</g>
<!-- Node7 -->
<g id="node7" class="node">
<title>Node7</title>
<g id="a_node7"><a xlink:href="equivalent__polynomials_8h.html" target="_top" xlink:title=" ">
<polygon fill="white" stroke="black" points="263.66,-67.5 263.66,-86.5 406.66,-86.5 406.66,-67.5 263.66,-67.5"/>
<text text-anchor="middle" x="335.16" y="-74.5" font-family="Helvetica,sans-Serif" font-size="10.00">equivalent_polynomials.h</text>
</a>
</g>
</g>
<!-- Node1&#45;&gt;Node7 -->
<g id="edge8" class="edge">
<title>Node1&#45;&gt;Node7</title>
<path fill="none" stroke="midnightblue" d="M278.92,-123.32C288.92,-115.26 304.04,-103.08 316.09,-93.37"/>
<polygon fill="midnightblue" stroke="midnightblue" points="318.61,-95.83 324.2,-86.83 314.21,-90.38 318.61,-95.83"/>
</g>
<!-- Node13 -->
<g id="node13" class="node">
<title>Node13</title>
<g id="a_node13"><a xlink:href="_arguments_dict_8h.html" target="_top" xlink:title=" ">
<polygon fill="white" stroke="black" points="852.16,-67.5 852.16,-86.5 950.16,-86.5 950.16,-67.5 852.16,-67.5"/>
<text text-anchor="middle" x="901.16" y="-74.5" font-family="Helvetica,sans-Serif" font-size="10.00">ArgumentsDict.h</text>
</a>
</g>
</g>
<!-- Node1&#45;&gt;Node13 -->
<g id="edge16" class="edge">
<title>Node1&#45;&gt;Node13</title>
<path fill="none" stroke="midnightblue" d="M295.36,-129.68C390.38,-121.57 708.96,-94.4 842,-83.05"/>
<polygon fill="midnightblue" stroke="midnightblue" points="842.35,-86.53 852.01,-82.19 841.75,-79.56 842.35,-86.53"/>
</g>
<!-- Node17 -->
<g id="node17" class="node">
<title>Node17</title>
<g id="a_node17"><a xlink:title=" ">
<polygon fill="white" stroke="#bfbfbf" points="1088.66,-6 1088.66,-25 1239.66,-25 1239.66,-6 1088.66,-6"/>
<text text-anchor="middle" x="1164.16" y="-13" font-family="Helvetica,sans-Serif" font-size="10.00">xtensor&#45;python/pyarray.hpp</text>
</a>
</g>
</g>
<!-- Node1&#45;&gt;Node17 -->
<g id="edge22" class="edge">
<title>Node1&#45;&gt;Node17</title>
<path fill="none" stroke="midnightblue" d="M295.31,-131.2C406.67,-127.75 828.62,-113.21 959.16,-87 1023.99,-73.98 1096.4,-45.62 1135.44,-29.11"/>
<polygon fill="midnightblue" stroke="midnightblue" points="1137.03,-32.24 1144.85,-25.09 1134.28,-25.8 1137.03,-32.24"/>
</g>
<!-- Node5&#45;&gt;Node2 -->
<g id="edge5" class="edge">
<title>Node5&#45;&gt;Node2</title>
<path fill="none" stroke="midnightblue" d="M57.01,-67.48C56.87,-59.08 56.65,-45.98 56.47,-35.16"/>
<polygon fill="midnightblue" stroke="midnightblue" points="59.97,-34.95 56.3,-25.01 52.97,-35.07 59.97,-34.95"/>
</g>
<!-- Node6&#45;&gt;Node3 -->
<g id="edge7" class="edge">
<title>Node6&#45;&gt;Node3</title>
<path fill="none" stroke="midnightblue" d="M190.7,-67.48C179.21,-58.11 160.53,-42.88 146.57,-31.51"/>
<polygon fill="midnightblue" stroke="midnightblue" points="148.56,-28.61 138.6,-25.01 144.14,-34.04 148.56,-28.61"/>
</g>
<!-- Node7&#45;&gt;Node2 -->
<g id="edge9" class="edge">
<title>Node7&#45;&gt;Node2</title>
<path fill="none" stroke="midnightblue" d="M264.13,-67.48C214.42,-60.43 146.86,-48.69 89.16,-31 87.23,-30.41 85.26,-29.74 83.3,-29.01"/>
<polygon fill="midnightblue" stroke="midnightblue" points="84.26,-25.63 73.68,-25.1 81.63,-32.11 84.26,-25.63"/>
</g>
<!-- Node7&#45;&gt;Node3 -->
<g id="edge11" class="edge">
<title>Node7&#45;&gt;Node3</title>
<path fill="none" stroke="midnightblue" d="M299.48,-67.48C265.28,-59.07 212.32,-45.41 167.16,-31 164.75,-30.23 162.27,-29.4 159.78,-28.54"/>
<polygon fill="midnightblue" stroke="midnightblue" points="160.9,-25.22 150.31,-25.15 158.54,-31.81 160.9,-25.22"/>
</g>
<!-- Node8 -->
<g id="node8" class="node">
<title>Node8</title>
<g id="a_node8"><a xlink:title=" ">
<polygon fill="white" stroke="#bfbfbf" points="706.16,-6 706.16,-25 758.16,-25 758.16,-6 706.16,-6"/>
<text text-anchor="middle" x="732.16" y="-13" font-family="Helvetica,sans-Serif" font-size="10.00">cassert</text>
</a>
</g>
</g>
<!-- Node7&#45;&gt;Node8 -->
<g id="edge10" class="edge">
<title>Node7&#45;&gt;Node8</title>
<path fill="none" stroke="midnightblue" d="M407.02,-67.57C508.56,-55.58 683.32,-34.65 697.16,-31 699.61,-30.35 702.11,-29.57 704.6,-28.71"/>
<polygon fill="midnightblue" stroke="midnightblue" points="705.87,-31.98 713.95,-25.13 703.36,-25.44 705.87,-31.98"/>
</g>
<!-- Node9 -->
<g id="node9" class="node">
<title>Node9</title>
<g id="a_node9"><a xlink:title=" ">
<polygon fill="white" stroke="#bfbfbf" points="176.16,-6 176.16,-25 232.16,-25 232.16,-6 176.16,-6"/>
<text text-anchor="middle" x="204.16" y="-13" font-family="Helvetica,sans-Serif" font-size="10.00">iomanip</text>
</a>
</g>
</g>
<!-- Node7&#45;&gt;Node9 -->
<g id="edge12" class="edge">
<title>Node7&#45;&gt;Node9</title>
<path fill="none" stroke="midnightblue" d="M316.39,-67.48C294.31,-57.45 257.44,-40.7 232.02,-29.15"/>
<polygon fill="midnightblue" stroke="midnightblue" points="233.44,-25.96 222.89,-25.01 230.55,-32.33 233.44,-25.96"/>
</g>
<!-- Node10 -->
<g id="node10" class="node">
<title>Node10</title>
<g id="a_node10"><a xlink:href="equivalent__polynomials__coefficients_8h.html" target="_top" xlink:title=" ">
<polygon fill="white" stroke="black" points="250.16,-0.5 250.16,-30.5 384.16,-30.5 384.16,-0.5 250.16,-0.5"/>
<text text-anchor="start" x="258.16" y="-18.5" font-family="Helvetica,sans-Serif" font-size="10.00">equivalent_polynomials</text>
<text text-anchor="middle" x="317.16" y="-7.5" font-family="Helvetica,sans-Serif" font-size="10.00">_coefficients.h</text>
</a>
</g>
</g>
<!-- Node7&#45;&gt;Node10 -->
<g id="edge13" class="edge">
<title>Node7&#45;&gt;Node10</title>
<path fill="none" stroke="midnightblue" d="M332.58,-67.48C330.44,-60.4 327.28,-49.97 324.38,-40.39"/>
<polygon fill="midnightblue" stroke="midnightblue" points="327.65,-39.08 321.4,-30.52 320.94,-41.11 327.65,-39.08"/>
</g>
<!-- Node11 -->
<g id="node11" class="node">
<title>Node11</title>
<g id="a_node11"><a xlink:href="equivalent__polynomials__coefficients__quad_8h.html" target="_top" xlink:title=" ">
<polygon fill="white" stroke="black" points="402.16,-0.5 402.16,-30.5 536.16,-30.5 536.16,-0.5 402.16,-0.5"/>
<text text-anchor="start" x="410.16" y="-18.5" font-family="Helvetica,sans-Serif" font-size="10.00">equivalent_polynomials</text>
<text text-anchor="middle" x="469.16" y="-7.5" font-family="Helvetica,sans-Serif" font-size="10.00">_coefficients_quad.h</text>
</a>
</g>
</g>
<!-- Node7&#45;&gt;Node11 -->
<g id="edge14" class="edge">
<title>Node7&#45;&gt;Node11</title>
<path fill="none" stroke="midnightblue" d="M354.36,-67.48C373.52,-58.96 403.58,-45.62 428.13,-34.72"/>
<polygon fill="midnightblue" stroke="midnightblue" points="429.86,-37.78 437.58,-30.52 427.02,-31.38 429.86,-37.78"/>
</g>
<!-- Node12 -->
<g id="node12" class="node">
<title>Node12</title>
<g id="a_node12"><a xlink:href="equivalent__polynomials__utils_8h.html" target="_top" xlink:title=" ">
<polygon fill="white" stroke="black" points="554.16,-0.5 554.16,-30.5 688.16,-30.5 688.16,-0.5 554.16,-0.5"/>
<text text-anchor="start" x="562.16" y="-18.5" font-family="Helvetica,sans-Serif" font-size="10.00">equivalent_polynomials</text>
<text text-anchor="middle" x="621.16" y="-7.5" font-family="Helvetica,sans-Serif" font-size="10.00">_utils.h</text>
</a>
</g>
</g>
<!-- Node7&#45;&gt;Node12 -->
<g id="edge15" class="edge">
<title>Node7&#45;&gt;Node12</title>
<path fill="none" stroke="midnightblue" d="M376.13,-67.48C419.83,-58.38 490.04,-43.78 544.13,-32.53"/>
<polygon fill="midnightblue" stroke="midnightblue" points="544.95,-35.93 554.03,-30.47 543.52,-29.08 544.95,-35.93"/>
</g>
<!-- Node14 -->
<g id="node14" class="node">
<title>Node14</title>
<g id="a_node14"><a xlink:title=" ">
<polygon fill="white" stroke="#bfbfbf" points="776.16,-6 776.16,-25 814.16,-25 814.16,-6 776.16,-6"/>
<text text-anchor="middle" x="795.16" y="-13" font-family="Helvetica,sans-Serif" font-size="10.00">map</text>
</a>
</g>
</g>
<!-- Node13&#45;&gt;Node14 -->
<g id="edge17" class="edge">
<title>Node13&#45;&gt;Node14</title>
<path fill="none" stroke="midnightblue" d="M885.97,-67.48C868.5,-57.67 839.58,-41.43 819.07,-29.92"/>
<polygon fill="midnightblue" stroke="midnightblue" points="820.75,-26.85 810.32,-25.01 817.32,-32.96 820.75,-26.85"/>
</g>
<!-- Node15 -->
<g id="node15" class="node">
<title>Node15</title>
<g id="a_node15"><a xlink:title=" ">
<polygon fill="white" stroke="#bfbfbf" points="832.66,-6 832.66,-25 897.66,-25 897.66,-6 832.66,-6"/>
<text text-anchor="middle" x="865.16" y="-13" font-family="Helvetica,sans-Serif" font-size="10.00">stdexcept</text>
</a>
</g>
</g>
<!-- Node13&#45;&gt;Node15 -->
<g id="edge18" class="edge">
<title>Node13&#45;&gt;Node15</title>
<path fill="none" stroke="midnightblue" d="M896,-67.48C890.71,-58.73 882.32,-44.87 875.63,-33.81"/>
<polygon fill="midnightblue" stroke="midnightblue" points="878.48,-31.75 870.31,-25.01 872.49,-35.38 878.48,-31.75"/>
</g>
<!-- Node16 -->
<g id="node16" class="node">
<title>Node16</title>
<g id="a_node16"><a xlink:title=" ">
<polygon fill="white" stroke="#bfbfbf" points="916.16,-6 916.16,-25 960.16,-25 960.16,-6 916.16,-6"/>
<text text-anchor="middle" x="938.16" y="-13" font-family="Helvetica,sans-Serif" font-size="10.00">string</text>
</a>
</g>
</g>
<!-- Node13&#45;&gt;Node16 -->
<g id="edge19" class="edge">
<title>Node13&#45;&gt;Node16</title>
<path fill="none" stroke="midnightblue" d="M906.46,-67.48C911.9,-58.73 920.52,-44.87 927.39,-33.81"/>
<polygon fill="midnightblue" stroke="midnightblue" points="930.56,-35.35 932.87,-25.01 924.61,-31.65 930.56,-35.35"/>
</g>
<!-- Node13&#45;&gt;Node17 -->
<g id="edge20" class="edge">
<title>Node13&#45;&gt;Node17</title>
<path fill="none" stroke="midnightblue" d="M938.84,-67.48C985.71,-56.87 1065.76,-38.76 1116.75,-27.22"/>
<polygon fill="midnightblue" stroke="midnightblue" points="1117.56,-30.63 1126.55,-25.01 1116.02,-23.8 1117.56,-30.63"/>
</g>
<!-- Node18 -->
<g id="node18" class="node">
<title>Node18</title>
<g id="a_node18"><a xlink:title=" ">
<polygon fill="white" stroke="#bfbfbf" points="978.16,-6 978.16,-25 1070.16,-25 1070.16,-6 978.16,-6"/>
<text text-anchor="middle" x="1024.16" y="-13" font-family="Helvetica,sans-Serif" font-size="10.00">xtensor/xio.hpp</text>
</a>
</g>
</g>
<!-- Node13&#45;&gt;Node18 -->
<g id="edge21" class="edge">
<title>Node13&#45;&gt;Node18</title>
<path fill="none" stroke="midnightblue" d="M918.78,-67.48C939.33,-57.53 973.52,-40.99 997.36,-29.46"/>
<polygon fill="midnightblue" stroke="midnightblue" points="999.09,-32.51 1006.57,-25.01 996.04,-26.21 999.09,-32.51"/>
</g>
</g>
</svg>
