<?xml version="1.0" encoding="UTF-8" standalone="no"?>
<!DOCTYPE svg PUBLIC "-//W3C//DTD SVG 1.1//EN"
 "http://www.w3.org/Graphics/SVG/1.1/DTD/svg11.dtd">
<!-- Generated by graphviz version 2.43.0 (0)
 -->
<!-- Title: MCorr.cpp Pages: 1 -->
<svg width="1274pt" height="207pt"
 viewBox="0.00 0.00 1274.00 207.00" xmlns="http://www.w3.org/2000/svg" xmlns:xlink="http://www.w3.org/1999/xlink">
<g id="graph0" class="graph" transform="scale(1 1) rotate(0) translate(4 203)">
<title>MCorr.cpp</title>
<polygon fill="white" stroke="transparent" points="-4,4 -4,-203 1270,-203 1270,4 -4,4"/>
<!-- Node1 -->
<g id="node1" class="node">
<title>Node1</title>
<g id="a_node1"><a xlink:title=" ">
<polygon fill="#bfbfbf" stroke="black" points="161,-179.5 161,-198.5 226,-198.5 226,-179.5 161,-179.5"/>
<text text-anchor="middle" x="193.5" y="-186.5" font-family="Helvetica,sans-Serif" font-size="10.00">MCorr.cpp</text>
</a>
</g>
</g>
<!-- Node2 -->
<g id="node2" class="node">
<title>Node2</title>
<g id="a_node2"><a xlink:title=" ">
<polygon fill="white" stroke="#bfbfbf" points="0,-123.5 0,-142.5 119,-142.5 119,-123.5 0,-123.5"/>
<text text-anchor="middle" x="59.5" y="-130.5" font-family="Helvetica,sans-Serif" font-size="10.00">pybind11/pybind11.h</text>
</a>
</g>
</g>
<!-- Node1&#45;&gt;Node2 -->
<g id="edge1" class="edge">
<title>Node1&#45;&gt;Node2</title>
<path fill="none" stroke="midnightblue" d="M172.27,-179.44C150.12,-170.52 115.18,-156.44 90.06,-146.32"/>
<polygon fill="midnightblue" stroke="midnightblue" points="91.22,-143.01 80.63,-142.52 88.6,-149.5 91.22,-143.01"/>
</g>
<!-- Node3 -->
<g id="node3" class="node">
<title>Node3</title>
<g id="a_node3"><a xlink:title=" ">
<polygon fill="white" stroke="#bfbfbf" points="137.5,-123.5 137.5,-142.5 249.5,-142.5 249.5,-123.5 137.5,-123.5"/>
<text text-anchor="middle" x="193.5" y="-130.5" font-family="Helvetica,sans-Serif" font-size="10.00">pybind11/stl_bind.h</text>
</a>
</g>
</g>
<!-- Node1&#45;&gt;Node3 -->
<g id="edge2" class="edge">
<title>Node1&#45;&gt;Node3</title>
<path fill="none" stroke="midnightblue" d="M193.5,-179.08C193.5,-172.01 193.5,-161.86 193.5,-152.99"/>
<polygon fill="midnightblue" stroke="midnightblue" points="197,-152.75 193.5,-142.75 190,-152.75 197,-152.75"/>
</g>
<!-- Node4 -->
<g id="node4" class="node">
<title>Node4</title>
<g id="a_node4"><a xlink:href="_m_corr_8h.html" target="_top" xlink:title=" ">
<polygon fill="white" stroke="black" points="267.5,-123.5 267.5,-142.5 321.5,-142.5 321.5,-123.5 267.5,-123.5"/>
<text text-anchor="middle" x="294.5" y="-130.5" font-family="Helvetica,sans-Serif" font-size="10.00">MCorr.h</text>
</a>
</g>
</g>
<!-- Node1&#45;&gt;Node4 -->
<g id="edge3" class="edge">
<title>Node1&#45;&gt;Node4</title>
<path fill="none" stroke="midnightblue" d="M209.73,-179.32C225.85,-170.7 250.8,-157.36 269.46,-147.39"/>
<polygon fill="midnightblue" stroke="midnightblue" points="271.14,-150.46 278.31,-142.65 267.84,-144.28 271.14,-150.46"/>
</g>
<!-- Node5 -->
<g id="node5" class="node">
<title>Node5</title>
<g id="a_node5"><a xlink:title=" ">
<polygon fill="white" stroke="#bfbfbf" points="59,-6 59,-25 106,-25 106,-6 59,-6"/>
<text text-anchor="middle" x="82.5" y="-13" font-family="Helvetica,sans-Serif" font-size="10.00">cmath</text>
</a>
</g>
</g>
<!-- Node4&#45;&gt;Node5 -->
<g id="edge4" class="edge">
<title>Node4&#45;&gt;Node5</title>
<path fill="none" stroke="midnightblue" d="M267.43,-124.96C264.43,-124.26 261.4,-123.59 258.5,-123 208.45,-112.8 64.67,-125.84 31.5,-87 15.71,-68.5 39.95,-45.39 60.12,-30.78"/>
<polygon fill="midnightblue" stroke="midnightblue" points="62.14,-33.64 68.38,-25.08 58.16,-27.87 62.14,-33.64"/>
</g>
<!-- Node6 -->
<g id="node6" class="node">
<title>Node6</title>
<g id="a_node6"><a xlink:title=" ">
<polygon fill="white" stroke="#bfbfbf" points="124.5,-6 124.5,-25 184.5,-25 184.5,-6 124.5,-6"/>
<text text-anchor="middle" x="154.5" y="-13" font-family="Helvetica,sans-Serif" font-size="10.00">iostream</text>
</a>
</g>
</g>
<!-- Node4&#45;&gt;Node6 -->
<g id="edge5" class="edge">
<title>Node4&#45;&gt;Node6</title>
<path fill="none" stroke="midnightblue" d="M267.33,-125.02C235.77,-116.39 186.37,-101.12 173.5,-87 160.58,-72.83 156.3,-50.78 154.95,-35.12"/>
<polygon fill="midnightblue" stroke="midnightblue" points="158.44,-34.85 154.41,-25.05 151.45,-35.22 158.44,-34.85"/>
</g>
<!-- Node7 -->
<g id="node7" class="node">
<title>Node7</title>
<g id="a_node7"><a xlink:title=" ">
<polygon fill="white" stroke="#bfbfbf" points="451,-67.5 451,-86.5 508,-86.5 508,-67.5 451,-67.5"/>
<text text-anchor="middle" x="479.5" y="-74.5" font-family="Helvetica,sans-Serif" font-size="10.00">valarray</text>
</a>
</g>
</g>
<!-- Node4&#45;&gt;Node7 -->
<g id="edge6" class="edge">
<title>Node4&#45;&gt;Node7</title>
<path fill="none" stroke="midnightblue" d="M321.8,-124.03C353.27,-114.85 405.22,-99.68 440.84,-89.29"/>
<polygon fill="midnightblue" stroke="midnightblue" points="442.25,-92.52 450.87,-86.36 440.29,-85.8 442.25,-92.52"/>
</g>
<!-- Node8 -->
<g id="node8" class="node">
<title>Node8</title>
<g id="a_node8"><a xlink:href="_comp_kernel_8h.html" target="_top" xlink:title=" ">
<polygon fill="white" stroke="black" points="41,-67.5 41,-86.5 126,-86.5 126,-67.5 41,-67.5"/>
<text text-anchor="middle" x="83.5" y="-74.5" font-family="Helvetica,sans-Serif" font-size="10.00">CompKernel.h</text>
</a>
</g>
</g>
<!-- Node4&#45;&gt;Node8 -->
<g id="edge7" class="edge">
<title>Node4&#45;&gt;Node8</title>
<path fill="none" stroke="midnightblue" d="M267.35,-125.05C231.69,-115.93 168.69,-99.8 126.52,-89.01"/>
<polygon fill="midnightblue" stroke="midnightblue" points="127.36,-85.61 116.8,-86.52 125.62,-92.39 127.36,-85.61"/>
</g>
<!-- Node9 -->
<g id="node9" class="node">
<title>Node9</title>
<g id="a_node9"><a xlink:href="_model_factory_8h.html" target="_top" xlink:title=" ">
<polygon fill="white" stroke="black" points="183,-67.5 183,-86.5 272,-86.5 272,-67.5 183,-67.5"/>
<text text-anchor="middle" x="227.5" y="-74.5" font-family="Helvetica,sans-Serif" font-size="10.00">ModelFactory.h</text>
</a>
</g>
</g>
<!-- Node4&#45;&gt;Node9 -->
<g id="edge9" class="edge">
<title>Node4&#45;&gt;Node9</title>
<path fill="none" stroke="midnightblue" d="M283.74,-123.32C273.73,-115.26 258.61,-103.08 246.57,-93.37"/>
<polygon fill="midnightblue" stroke="midnightblue" points="248.44,-90.38 238.46,-86.83 244.05,-95.83 248.44,-90.38"/>
</g>
<!-- Node10 -->
<g id="node10" class="node">
<title>Node10</title>
<g id="a_node10"><a xlink:href="equivalent__polynomials_8h.html" target="_top" xlink:title=" ">
<polygon fill="white" stroke="black" points="290,-67.5 290,-86.5 433,-86.5 433,-67.5 290,-67.5"/>
<text text-anchor="middle" x="361.5" y="-74.5" font-family="Helvetica,sans-Serif" font-size="10.00">equivalent_polynomials.h</text>
</a>
</g>
</g>
<!-- Node4&#45;&gt;Node10 -->
<g id="edge11" class="edge">
<title>Node4&#45;&gt;Node10</title>
<path fill="none" stroke="midnightblue" d="M305.26,-123.32C315.27,-115.26 330.39,-103.08 342.43,-93.37"/>
<polygon fill="midnightblue" stroke="midnightblue" points="344.95,-95.83 350.54,-86.83 340.56,-90.38 344.95,-95.83"/>
</g>
<!-- Node16 -->
<g id="node16" class="node">
<title>Node16</title>
<g id="a_node16"><a xlink:href="_arguments_dict_8h.html" target="_top" xlink:title=" ">
<polygon fill="white" stroke="black" points="878.5,-67.5 878.5,-86.5 976.5,-86.5 976.5,-67.5 878.5,-67.5"/>
<text text-anchor="middle" x="927.5" y="-74.5" font-family="Helvetica,sans-Serif" font-size="10.00">ArgumentsDict.h</text>
</a>
</g>
</g>
<!-- Node4&#45;&gt;Node16 -->
<g id="edge19" class="edge">
<title>Node4&#45;&gt;Node16</title>
<path fill="none" stroke="midnightblue" d="M321.7,-129.68C416.72,-121.57 735.3,-94.4 868.34,-83.05"/>
<polygon fill="midnightblue" stroke="midnightblue" points="868.69,-86.53 878.36,-82.19 868.09,-79.56 868.69,-86.53"/>
</g>
<!-- Node20 -->
<g id="node20" class="node">
<title>Node20</title>
<g id="a_node20"><a xlink:title=" ">
<polygon fill="white" stroke="#bfbfbf" points="1115,-6 1115,-25 1266,-25 1266,-6 1115,-6"/>
<text text-anchor="middle" x="1190.5" y="-13" font-family="Helvetica,sans-Serif" font-size="10.00">xtensor&#45;python/pyarray.hpp</text>
</a>
</g>
</g>
<!-- Node4&#45;&gt;Node20 -->
<g id="edge25" class="edge">
<title>Node4&#45;&gt;Node20</title>
<path fill="none" stroke="midnightblue" d="M321.65,-131.2C433.01,-127.75 854.96,-113.21 985.5,-87 1050.33,-73.98 1122.74,-45.62 1161.78,-29.11"/>
<polygon fill="midnightblue" stroke="midnightblue" points="1163.38,-32.24 1171.19,-25.09 1160.62,-25.8 1163.38,-32.24"/>
</g>
<!-- Node8&#45;&gt;Node5 -->
<g id="edge8" class="edge">
<title>Node8&#45;&gt;Node5</title>
<path fill="none" stroke="midnightblue" d="M83.36,-67.48C83.22,-59.08 83,-45.98 82.81,-35.16"/>
<polygon fill="midnightblue" stroke="midnightblue" points="86.31,-34.95 82.64,-25.01 79.31,-35.07 86.31,-34.95"/>
</g>
<!-- Node9&#45;&gt;Node6 -->
<g id="edge10" class="edge">
<title>Node9&#45;&gt;Node6</title>
<path fill="none" stroke="midnightblue" d="M217.04,-67.48C205.55,-58.11 186.87,-42.88 172.91,-31.51"/>
<polygon fill="midnightblue" stroke="midnightblue" points="174.9,-28.61 164.94,-25.01 170.48,-34.04 174.9,-28.61"/>
</g>
<!-- Node10&#45;&gt;Node5 -->
<g id="edge12" class="edge">
<title>Node10&#45;&gt;Node5</title>
<path fill="none" stroke="midnightblue" d="M290.47,-67.48C240.77,-60.43 173.2,-48.69 115.5,-31 113.57,-30.41 111.6,-29.74 109.64,-29.01"/>
<polygon fill="midnightblue" stroke="midnightblue" points="110.6,-25.63 100.02,-25.1 107.97,-32.11 110.6,-25.63"/>
</g>
<!-- Node10&#45;&gt;Node6 -->
<g id="edge14" class="edge">
<title>Node10&#45;&gt;Node6</title>
<path fill="none" stroke="midnightblue" d="M325.82,-67.48C291.62,-59.07 238.66,-45.41 193.5,-31 191.09,-30.23 188.61,-29.4 186.13,-28.54"/>
<polygon fill="midnightblue" stroke="midnightblue" points="187.24,-25.22 176.65,-25.15 184.88,-31.81 187.24,-25.22"/>
</g>
<!-- Node11 -->
<g id="node11" class="node">
<title>Node11</title>
<g id="a_node11"><a xlink:title=" ">
<polygon fill="white" stroke="#bfbfbf" points="732.5,-6 732.5,-25 784.5,-25 784.5,-6 732.5,-6"/>
<text text-anchor="middle" x="758.5" y="-13" font-family="Helvetica,sans-Serif" font-size="10.00">cassert</text>
</a>
</g>
</g>
<!-- Node10&#45;&gt;Node11 -->
<g id="edge13" class="edge">
<title>Node10&#45;&gt;Node11</title>
<path fill="none" stroke="midnightblue" d="M433.36,-67.57C534.91,-55.58 709.67,-34.65 723.5,-31 725.95,-30.35 728.45,-29.57 730.94,-28.71"/>
<polygon fill="midnightblue" stroke="midnightblue" points="732.21,-31.98 740.29,-25.13 729.7,-25.44 732.21,-31.98"/>
</g>
<!-- Node12 -->
<g id="node12" class="node">
<title>Node12</title>
<g id="a_node12"><a xlink:title=" ">
<polygon fill="white" stroke="#bfbfbf" points="202.5,-6 202.5,-25 258.5,-25 258.5,-6 202.5,-6"/>
<text text-anchor="middle" x="230.5" y="-13" font-family="Helvetica,sans-Serif" font-size="10.00">iomanip</text>
</a>
</g>
</g>
<!-- Node10&#45;&gt;Node12 -->
<g id="edge15" class="edge">
<title>Node10&#45;&gt;Node12</title>
<path fill="none" stroke="midnightblue" d="M342.73,-67.48C320.65,-57.45 283.78,-40.7 258.36,-29.15"/>
<polygon fill="midnightblue" stroke="midnightblue" points="259.79,-25.96 249.23,-25.01 256.89,-32.33 259.79,-25.96"/>
</g>
<!-- Node13 -->
<g id="node13" class="node">
<title>Node13</title>
<g id="a_node13"><a xlink:href="equivalent__polynomials__coefficients_8h.html" target="_top" xlink:title=" ">
<polygon fill="white" stroke="black" points="276.5,-0.5 276.5,-30.5 410.5,-30.5 410.5,-0.5 276.5,-0.5"/>
<text text-anchor="start" x="284.5" y="-18.5" font-family="Helvetica,sans-Serif" font-size="10.00">equivalent_polynomials</text>
<text text-anchor="middle" x="343.5" y="-7.5" font-family="Helvetica,sans-Serif" font-size="10.00">_coefficients.h</text>
</a>
</g>
</g>
<!-- Node10&#45;&gt;Node13 -->
<g id="edge16" class="edge">
<title>Node10&#45;&gt;Node13</title>
<path fill="none" stroke="midnightblue" d="M358.92,-67.48C356.78,-60.4 353.63,-49.97 350.73,-40.39"/>
<polygon fill="midnightblue" stroke="midnightblue" points="353.99,-39.08 347.74,-30.52 347.29,-41.11 353.99,-39.08"/>
</g>
<!-- Node14 -->
<g id="node14" class="node">
<title>Node14</title>
<g id="a_node14"><a xlink:href="equivalent__polynomials__coefficients__quad_8h.html" target="_top" xlink:title=" ">
<polygon fill="white" stroke="black" points="428.5,-0.5 428.5,-30.5 562.5,-30.5 562.5,-0.5 428.5,-0.5"/>
<text text-anchor="start" x="436.5" y="-18.5" font-family="Helvetica,sans-Serif" font-size="10.00">equivalent_polynomials</text>
<text text-anchor="middle" x="495.5" y="-7.5" font-family="Helvetica,sans-Serif" font-size="10.00">_coefficients_quad.h</text>
</a>
</g>
</g>
<!-- Node10&#45;&gt;Node14 -->
<g id="edge17" class="edge">
<title>Node10&#45;&gt;Node14</title>
<path fill="none" stroke="midnightblue" d="M380.7,-67.48C399.87,-58.96 429.92,-45.62 454.47,-34.72"/>
<polygon fill="midnightblue" stroke="midnightblue" points="456.2,-37.78 463.92,-30.52 453.36,-31.38 456.2,-37.78"/>
</g>
<!-- Node15 -->
<g id="node15" class="node">
<title>Node15</title>
<g id="a_node15"><a xlink:href="equivalent__polynomials__utils_8h.html" target="_top" xlink:title=" ">
<polygon fill="white" stroke="black" points="580.5,-0.5 580.5,-30.5 714.5,-30.5 714.5,-0.5 580.5,-0.5"/>
<text text-anchor="start" x="588.5" y="-18.5" font-family="Helvetica,sans-Serif" font-size="10.00">equivalent_polynomials</text>
<text text-anchor="middle" x="647.5" y="-7.5" font-family="Helvetica,sans-Serif" font-size="10.00">_utils.h</text>
</a>
</g>
</g>
<!-- Node10&#45;&gt;Node15 -->
<g id="edge18" class="edge">
<title>Node10&#45;&gt;Node15</title>
<path fill="none" stroke="midnightblue" d="M402.48,-67.48C446.17,-58.38 516.38,-43.78 570.47,-32.53"/>
<polygon fill="midnightblue" stroke="midnightblue" points="571.29,-35.93 580.37,-30.47 569.87,-29.08 571.29,-35.93"/>
</g>
<!-- Node17 -->
<g id="node17" class="node">
<title>Node17</title>
<g id="a_node17"><a xlink:title=" ">
<polygon fill="white" stroke="#bfbfbf" points="802.5,-6 802.5,-25 840.5,-25 840.5,-6 802.5,-6"/>
<text text-anchor="middle" x="821.5" y="-13" font-family="Helvetica,sans-Serif" font-size="10.00">map</text>
</a>
</g>
</g>
<!-- Node16&#45;&gt;Node17 -->
<g id="edge20" class="edge">
<title>Node16&#45;&gt;Node17</title>
<path fill="none" stroke="midnightblue" d="M912.31,-67.48C894.84,-57.67 865.92,-41.43 845.42,-29.92"/>
<polygon fill="midnightblue" stroke="midnightblue" points="847.09,-26.85 836.66,-25.01 843.67,-32.96 847.09,-26.85"/>
</g>
<!-- Node18 -->
<g id="node18" class="node">
<title>Node18</title>
<g id="a_node18"><a xlink:title=" ">
<polygon fill="white" stroke="#bfbfbf" points="859,-6 859,-25 924,-25 924,-6 859,-6"/>
<text text-anchor="middle" x="891.5" y="-13" font-family="Helvetica,sans-Serif" font-size="10.00">stdexcept</text>
</a>
</g>
</g>
<!-- Node16&#45;&gt;Node18 -->
<g id="edge21" class="edge">
<title>Node16&#45;&gt;Node18</title>
<path fill="none" stroke="midnightblue" d="M922.34,-67.48C917.05,-58.73 908.66,-44.87 901.97,-33.81"/>
<polygon fill="midnightblue" stroke="midnightblue" points="904.82,-31.75 896.65,-25.01 898.83,-35.38 904.82,-31.75"/>
</g>
<!-- Node19 -->
<g id="node19" class="node">
<title>Node19</title>
<g id="a_node19"><a xlink:title=" ">
<polygon fill="white" stroke="#bfbfbf" points="942.5,-6 942.5,-25 986.5,-25 986.5,-6 942.5,-6"/>
<text text-anchor="middle" x="964.5" y="-13" font-family="Helvetica,sans-Serif" font-size="10.00">string</text>
</a>
</g>
</g>
<!-- Node16&#45;&gt;Node19 -->
<g id="edge22" class="edge">
<title>Node16&#45;&gt;Node19</title>
<path fill="none" stroke="midnightblue" d="M932.8,-67.48C938.24,-58.73 946.86,-44.87 953.74,-33.81"/>
<polygon fill="midnightblue" stroke="midnightblue" points="956.9,-35.35 959.21,-25.01 950.96,-31.65 956.9,-35.35"/>
</g>
<!-- Node16&#45;&gt;Node20 -->
<g id="edge23" class="edge">
<title>Node16&#45;&gt;Node20</title>
<path fill="none" stroke="midnightblue" d="M965.18,-67.48C1012.05,-56.87 1092.11,-38.76 1143.1,-27.22"/>
<polygon fill="midnightblue" stroke="midnightblue" points="1143.91,-30.63 1152.89,-25.01 1142.36,-23.8 1143.91,-30.63"/>
</g>
<!-- Node21 -->
<g id="node21" class="node">
<title>Node21</title>
<g id="a_node21"><a xlink:title=" ">
<polygon fill="white" stroke="#bfbfbf" points="1004.5,-6 1004.5,-25 1096.5,-25 1096.5,-6 1004.5,-6"/>
<text text-anchor="middle" x="1050.5" y="-13" font-family="Helvetica,sans-Serif" font-size="10.00">xtensor/xio.hpp</text>
</a>
</g>
</g>
<!-- Node16&#45;&gt;Node21 -->
<g id="edge24" class="edge">
<title>Node16&#45;&gt;Node21</title>
<path fill="none" stroke="midnightblue" d="M945.12,-67.48C965.67,-57.53 999.86,-40.99 1023.71,-29.46"/>
<polygon fill="midnightblue" stroke="midnightblue" points="1025.43,-32.51 1032.91,-25.01 1022.38,-26.21 1025.43,-32.51"/>
</g>
</g>
</svg>
