<?xml version="1.0" encoding="UTF-8" standalone="no"?>
<!DOCTYPE svg PUBLIC "-//W3C//DTD SVG 1.1//EN"
 "http://www.w3.org/Graphics/SVG/1.1/DTD/svg11.dtd">
<!-- Generated by graphviz version 2.44.1 (20200629.0846)
 -->
<!-- Title: MCorr.h Pages: 1 -->
<svg width="630pt" height="151pt"
 viewBox="0.00 0.00 630.00 151.00" xmlns="http://www.w3.org/2000/svg" xmlns:xlink="http://www.w3.org/1999/xlink">
<g id="graph0" class="graph" transform="scale(1 1) rotate(0) translate(4 147)">
<title>MCorr.h</title>
<polygon fill="white" stroke="transparent" points="-4,4 -4,-147 626,-147 626,4 -4,4"/>
<!-- Node1 -->
<g id="node1" class="node">
<title>Node1</title>
<g id="a_node1"><a xlink:title=" ">
<polygon fill="#bfbfbf" stroke="black" points="204.5,-123.5 204.5,-142.5 255.5,-142.5 255.5,-123.5 204.5,-123.5"/>
<text text-anchor="middle" x="230" y="-130.5" font-family="Helvetica,sans-Serif" font-size="10.00">MCorr.h</text>
</a>
</g>
</g>
<!-- Node2 -->
<g id="node2" class="node">
<title>Node2</title>
<g id="a_node2"><a xlink:title=" ">
<polygon fill="white" stroke="#bfbfbf" points="238,-6 238,-25 282,-25 282,-6 238,-6"/>
<text text-anchor="middle" x="260" y="-13" font-family="Helvetica,sans-Serif" font-size="10.00">cmath</text>
</a>
</g>
</g>
<!-- Node1&#45;&gt;Node2 -->
<g id="edge1" class="edge">
<title>Node1&#45;&gt;Node2</title>
<path fill="none" stroke="midnightblue" d="M244.66,-123.4C256.41,-115.58 272.03,-102.86 279,-87 286.62,-69.65 278.86,-48.52 271.09,-33.94"/>
<polygon fill="midnightblue" stroke="midnightblue" points="273.95,-31.9 265.89,-25.03 267.9,-35.43 273.95,-31.9"/>
</g>
<!-- Node3 -->
<g id="node3" class="node">
<title>Node3</title>
<g id="a_node3"><a xlink:title=" ">
<polygon fill="white" stroke="#bfbfbf" points="0,-6 0,-25 54,-25 54,-6 0,-6"/>
<text text-anchor="middle" x="27" y="-13" font-family="Helvetica,sans-Serif" font-size="10.00">iostream</text>
</a>
</g>
</g>
<!-- Node1&#45;&gt;Node3 -->
<g id="edge2" class="edge">
<title>Node1&#45;&gt;Node3</title>
<path fill="none" stroke="midnightblue" d="M204.31,-130.65C151.82,-127.31 35.16,-116.63 11,-87 -1.22,-72.02 7.06,-49.54 15.59,-34.01"/>
<polygon fill="midnightblue" stroke="midnightblue" points="18.63,-35.75 20.76,-25.37 12.62,-32.16 18.63,-35.75"/>
</g>
<!-- Node4 -->
<g id="node4" class="node">
<title>Node4</title>
<g id="a_node4"><a xlink:title=" ">
<polygon fill="white" stroke="#bfbfbf" points="121.5,-67.5 121.5,-86.5 172.5,-86.5 172.5,-67.5 121.5,-67.5"/>
<text text-anchor="middle" x="147" y="-74.5" font-family="Helvetica,sans-Serif" font-size="10.00">valarray</text>
</a>
</g>
</g>
<!-- Node1&#45;&gt;Node4 -->
<g id="edge3" class="edge">
<title>Node1&#45;&gt;Node4</title>
<path fill="none" stroke="midnightblue" d="M216.66,-123.32C203.84,-114.98 184.22,-102.21 169.06,-92.35"/>
<polygon fill="midnightblue" stroke="midnightblue" points="170.59,-89.17 160.3,-86.65 166.78,-95.04 170.59,-89.17"/>
</g>
<!-- Node5 -->
<g id="node5" class="node">
<title>Node5</title>
<g id="a_node5"><a xlink:href="_comp_kernel_8h.html" target="_top" xlink:title=" ">
<polygon fill="white" stroke="black" points="190.5,-67.5 190.5,-86.5 269.5,-86.5 269.5,-67.5 190.5,-67.5"/>
<text text-anchor="middle" x="230" y="-74.5" font-family="Helvetica,sans-Serif" font-size="10.00">CompKernel.h</text>
</a>
</g>
</g>
<!-- Node1&#45;&gt;Node5 -->
<g id="edge4" class="edge">
<title>Node1&#45;&gt;Node5</title>
<path fill="none" stroke="midnightblue" d="M230,-123.08C230,-116.01 230,-105.86 230,-96.99"/>
<polygon fill="midnightblue" stroke="midnightblue" points="233.5,-96.75 230,-86.75 226.5,-96.75 233.5,-96.75"/>
</g>
<!-- Node6 -->
<g id="node6" class="node">
<title>Node6</title>
<g id="a_node6"><a xlink:href="_model_factory_8h.html" target="_top" xlink:title=" ">
<polygon fill="white" stroke="black" points="20.5,-67.5 20.5,-86.5 103.5,-86.5 103.5,-67.5 20.5,-67.5"/>
<text text-anchor="middle" x="62" y="-74.5" font-family="Helvetica,sans-Serif" font-size="10.00">ModelFactory.h</text>
</a>
</g>
</g>
<!-- Node1&#45;&gt;Node6 -->
<g id="edge6" class="edge">
<title>Node1&#45;&gt;Node6</title>
<path fill="none" stroke="midnightblue" d="M204.48,-123.8C176.24,-114.72 130.48,-100.01 98.46,-89.72"/>
<polygon fill="midnightblue" stroke="midnightblue" points="99.18,-86.27 88.59,-86.55 97.04,-92.94 99.18,-86.27"/>
</g>
<!-- Node7 -->
<g id="node7" class="node">
<title>Node7</title>
<g id="a_node7"><a xlink:href="equivalent__polynomials_8h.html" target="_top" xlink:title=" ">
<polygon fill="white" stroke="black" points="326,-67.5 326,-86.5 452,-86.5 452,-67.5 326,-67.5"/>
<text text-anchor="middle" x="389" y="-74.5" font-family="Helvetica,sans-Serif" font-size="10.00">equivalent_polynomials.h</text>
</a>
</g>
</g>
<!-- Node1&#45;&gt;Node7 -->
<g id="edge8" class="edge">
<title>Node1&#45;&gt;Node7</title>
<path fill="none" stroke="midnightblue" d="M255.19,-123.44C281.94,-114.36 324.4,-99.94 354.31,-89.78"/>
<polygon fill="midnightblue" stroke="midnightblue" points="355.58,-93.05 363.92,-86.52 353.33,-86.42 355.58,-93.05"/>
</g>
<!-- Node11 -->
<g id="node11" class="node">
<title>Node11</title>
<g id="a_node11"><a xlink:title=" ">
<polygon fill="white" stroke="#bfbfbf" points="470,-67.5 470,-86.5 604,-86.5 604,-67.5 470,-67.5"/>
<text text-anchor="middle" x="537" y="-74.5" font-family="Helvetica,sans-Serif" font-size="10.00">xtensor&#45;python/pyarray.hpp</text>
</a>
</g>
</g>
<!-- Node1&#45;&gt;Node11 -->
<g id="edge13" class="edge">
<title>Node1&#45;&gt;Node11</title>
<path fill="none" stroke="midnightblue" d="M255.65,-127.49C304.38,-118.92 411.46,-100.08 478.56,-88.28"/>
<polygon fill="midnightblue" stroke="midnightblue" points="479.33,-91.7 488.57,-86.52 478.11,-84.8 479.33,-91.7"/>
</g>
<!-- Node5&#45;&gt;Node2 -->
<g id="edge5" class="edge">
<title>Node5&#45;&gt;Node2</title>
<path fill="none" stroke="midnightblue" d="M234.3,-67.48C238.66,-58.82 245.56,-45.15 251.1,-34.15"/>
<polygon fill="midnightblue" stroke="midnightblue" points="254.33,-35.51 255.71,-25.01 248.08,-32.36 254.33,-35.51"/>
</g>
<!-- Node6&#45;&gt;Node3 -->
<g id="edge7" class="edge">
<title>Node6&#45;&gt;Node3</title>
<path fill="none" stroke="midnightblue" d="M56.99,-67.48C51.84,-58.73 43.69,-44.87 37.18,-33.81"/>
<polygon fill="midnightblue" stroke="midnightblue" points="40.09,-31.85 32.01,-25.01 34.06,-35.4 40.09,-31.85"/>
</g>
<!-- Node7&#45;&gt;Node2 -->
<g id="edge9" class="edge">
<title>Node7&#45;&gt;Node2</title>
<path fill="none" stroke="midnightblue" d="M370.19,-67.41C350.45,-58.39 318.52,-43.75 291,-31 289.85,-30.47 288.67,-29.92 287.48,-29.37"/>
<polygon fill="midnightblue" stroke="midnightblue" points="288.89,-26.16 278.35,-25.11 285.93,-32.51 288.89,-26.16"/>
</g>
<!-- Node8 -->
<g id="node8" class="node">
<title>Node8</title>
<g id="a_node8"><a xlink:title=" ">
<polygon fill="white" stroke="#bfbfbf" points="436.5,-6 436.5,-25 485.5,-25 485.5,-6 436.5,-6"/>
<text text-anchor="middle" x="461" y="-13" font-family="Helvetica,sans-Serif" font-size="10.00">cassert</text>
</a>
</g>
</g>
<!-- Node7&#45;&gt;Node8 -->
<g id="edge10" class="edge">
<title>Node7&#45;&gt;Node8</title>
<path fill="none" stroke="midnightblue" d="M399.32,-67.48C410.65,-58.11 429.07,-42.88 442.84,-31.51"/>
<polygon fill="midnightblue" stroke="midnightblue" points="445.22,-34.08 450.7,-25.01 440.77,-28.68 445.22,-34.08"/>
</g>
<!-- Node9 -->
<g id="node9" class="node">
<title>Node9</title>
<g id="a_node9"><a xlink:href="equivalent__polynomials__coefficients_8h.html" target="_top" xlink:title=" ">
<polygon fill="white" stroke="black" points="504,-0.5 504,-30.5 622,-30.5 622,-0.5 504,-0.5"/>
<text text-anchor="start" x="512" y="-18.5" font-family="Helvetica,sans-Serif" font-size="10.00">equivalent_polynomials</text>
<text text-anchor="middle" x="563" y="-7.5" font-family="Helvetica,sans-Serif" font-size="10.00">_coefficients.h</text>
</a>
</g>
</g>
<!-- Node7&#45;&gt;Node9 -->
<g id="edge11" class="edge">
<title>Node7&#45;&gt;Node9</title>
<path fill="none" stroke="midnightblue" d="M413.93,-67.48C439.48,-58.74 479.93,-44.91 512.25,-33.86"/>
<polygon fill="midnightblue" stroke="midnightblue" points="513.66,-37.07 521.99,-30.52 511.4,-30.45 513.66,-37.07"/>
</g>
<!-- Node10 -->
<g id="node10" class="node">
<title>Node10</title>
<g id="a_node10"><a xlink:href="equivalent__polynomials__utils_8h.html" target="_top" xlink:title=" ">
<polygon fill="white" stroke="black" points="300,-0.5 300,-30.5 418,-30.5 418,-0.5 300,-0.5"/>
<text text-anchor="start" x="308" y="-18.5" font-family="Helvetica,sans-Serif" font-size="10.00">equivalent_polynomials</text>
<text text-anchor="middle" x="359" y="-7.5" font-family="Helvetica,sans-Serif" font-size="10.00">_utils.h</text>
</a>
</g>
</g>
<!-- Node7&#45;&gt;Node10 -->
<g id="edge12" class="edge">
<title>Node7&#45;&gt;Node10</title>
<path fill="none" stroke="midnightblue" d="M384.7,-67.48C381.02,-60.17 375.54,-49.3 370.58,-39.47"/>
<polygon fill="midnightblue" stroke="midnightblue" points="373.7,-37.88 366.07,-30.52 367.45,-41.03 373.7,-37.88"/>
</g>
</g>
</svg>
