<?xml version="1.0" encoding="UTF-8" standalone="no"?>
<!DOCTYPE svg PUBLIC "-//W3C//DTD SVG 1.1//EN"
 "http://www.w3.org/Graphics/SVG/1.1/DTD/svg11.dtd">
<!-- Generated by graphviz version 2.40.1 (20161225.0304)
 -->
<!-- Title: MCorr.cpp Pages: 1 -->
<svg width="968pt" height="207pt"
 viewBox="0.00 0.00 967.50 207.00" xmlns="http://www.w3.org/2000/svg" xmlns:xlink="http://www.w3.org/1999/xlink">
<g id="graph0" class="graph" transform="scale(1 1) rotate(0) translate(4 203)">
<title>MCorr.cpp</title>
<polygon fill="#ffffff" stroke="transparent" points="-4,4 -4,-203 963.5,-203 963.5,4 -4,4"/>
<!-- Node0 -->
<g id="node1" class="node">
<title>Node0</title>
<polygon fill="#bfbfbf" stroke="#000000" points="144,-179.5 144,-198.5 206,-198.5 206,-179.5 144,-179.5"/>
<text text-anchor="middle" x="175" y="-186.5" font-family="Helvetica,sans-Serif" font-size="10.00" fill="#000000">MCorr.cpp</text>
</g>
<!-- Node1 -->
<g id="node2" class="node">
<title>Node1</title>
<polygon fill="#ffffff" stroke="#bfbfbf" points="0,-123.5 0,-142.5 106,-142.5 106,-123.5 0,-123.5"/>
<text text-anchor="middle" x="53" y="-130.5" font-family="Helvetica,sans-Serif" font-size="10.00" fill="#000000">pybind11/pybind11.h</text>
</g>
<!-- Node0&#45;&gt;Node1 -->
<g id="edge1" class="edge">
<title>Node0&#45;&gt;Node1</title>
<path fill="none" stroke="#191970" d="M154.0275,-179.3733C134.4433,-170.3838 105.0039,-156.8706 82.949,-146.7471"/>
<polygon fill="#191970" stroke="#191970" points="84.2473,-143.4919 73.6989,-142.5011 81.3271,-149.8538 84.2473,-143.4919"/>
</g>
<!-- Node2 -->
<g id="node3" class="node">
<title>Node2</title>
<polygon fill="#ffffff" stroke="#bfbfbf" points="124.5,-123.5 124.5,-142.5 225.5,-142.5 225.5,-123.5 124.5,-123.5"/>
<text text-anchor="middle" x="175" y="-130.5" font-family="Helvetica,sans-Serif" font-size="10.00" fill="#000000">pybind11/stl_bind.h</text>
</g>
<!-- Node0&#45;&gt;Node2 -->
<g id="edge2" class="edge">
<title>Node0&#45;&gt;Node2</title>
<path fill="none" stroke="#191970" d="M175,-179.2455C175,-171.9382 175,-161.6944 175,-152.7046"/>
<polygon fill="#191970" stroke="#191970" points="178.5001,-152.6426 175,-142.6427 171.5001,-152.6427 178.5001,-152.6426"/>
</g>
<!-- Node3 -->
<g id="node4" class="node">
<title>Node3</title>
<g id="a_node4"><a xlink:href="_m_corr_8h.html" target="_top" xlink:title="MCorr.h">
<polygon fill="#ffffff" stroke="#000000" points="244,-123.5 244,-142.5 296,-142.5 296,-123.5 244,-123.5"/>
<text text-anchor="middle" x="270" y="-130.5" font-family="Helvetica,sans-Serif" font-size="10.00" fill="#000000">MCorr.h</text>
</a>
</g>
</g>
<!-- Node0&#45;&gt;Node3 -->
<g id="edge3" class="edge">
<title>Node0&#45;&gt;Node3</title>
<path fill="none" stroke="#191970" d="M191.5477,-179.2455C206.2599,-170.5731 227.9888,-157.7645 244.8505,-147.825"/>
<polygon fill="#191970" stroke="#191970" points="246.8046,-150.736 253.6419,-142.6427 243.2498,-144.7057 246.8046,-150.736"/>
</g>
<!-- Node4 -->
<g id="node5" class="node">
<title>Node4</title>
<polygon fill="#ffffff" stroke="#bfbfbf" points="49,-6 49,-25 93,-25 93,-6 49,-6"/>
<text text-anchor="middle" x="71" y="-13" font-family="Helvetica,sans-Serif" font-size="10.00" fill="#000000">cmath</text>
</g>
<!-- Node3&#45;&gt;Node4 -->
<g id="edge4" class="edge">
<title>Node3&#45;&gt;Node4</title>
<path fill="none" stroke="#191970" d="M243.7325,-125.3677C240.4677,-124.5184 237.1655,-123.7064 234,-123 187.3618,-112.5915 52.8316,-123.5085 22,-87 6.776,-68.9729 28.583,-46.2059 47.77,-31.2681"/>
<polygon fill="#191970" stroke="#191970" points="50.0279,-33.9514 55.9874,-25.1915 45.8659,-28.3231 50.0279,-33.9514"/>
</g>
<!-- Node5 -->
<g id="node6" class="node">
<title>Node5</title>
<polygon fill="#ffffff" stroke="#bfbfbf" points="122,-6 122,-25 176,-25 176,-6 122,-6"/>
<text text-anchor="middle" x="149" y="-13" font-family="Helvetica,sans-Serif" font-size="10.00" fill="#000000">iostream</text>
</g>
<!-- Node3&#45;&gt;Node5 -->
<g id="edge5" class="edge">
<title>Node3&#45;&gt;Node5</title>
<path fill="none" stroke="#191970" d="M243.9881,-125.6395C214.4156,-116.7269 168.826,-101.1481 158,-87 146.8653,-72.4484 145.525,-51.1458 146.4169,-35.5789"/>
<polygon fill="#191970" stroke="#191970" points="149.9191,-35.7154 147.3527,-25.4361 142.9487,-35.0722 149.9191,-35.7154"/>
</g>
<!-- Node6 -->
<g id="node7" class="node">
<title>Node6</title>
<polygon fill="#ffffff" stroke="#bfbfbf" points="413.5,-67.5 413.5,-86.5 464.5,-86.5 464.5,-67.5 413.5,-67.5"/>
<text text-anchor="middle" x="439" y="-74.5" font-family="Helvetica,sans-Serif" font-size="10.00" fill="#000000">valarray</text>
</g>
<!-- Node3&#45;&gt;Node6 -->
<g id="edge6" class="edge">
<title>Node3&#45;&gt;Node6</title>
<path fill="none" stroke="#191970" d="M296.0359,-124.3727C324.8598,-114.8216 371.4854,-99.3717 403.6089,-88.7272"/>
<polygon fill="#191970" stroke="#191970" points="405.0966,-91.9215 413.4881,-85.4536 402.8947,-85.2768 405.0966,-91.9215"/>
</g>
<!-- Node7 -->
<g id="node8" class="node">
<title>Node7</title>
<g id="a_node8"><a xlink:href="_comp_kernel_8h.html" target="_top" xlink:title="CompKernel.h">
<polygon fill="#ffffff" stroke="#000000" points="31.5,-67.5 31.5,-86.5 110.5,-86.5 110.5,-67.5 31.5,-67.5"/>
<text text-anchor="middle" x="71" y="-74.5" font-family="Helvetica,sans-Serif" font-size="10.00" fill="#000000">CompKernel.h</text>
</a>
</g>
</g>
<!-- Node3&#45;&gt;Node7 -->
<g id="edge7" class="edge">
<title>Node3&#45;&gt;Node7</title>
<path fill="none" stroke="#191970" d="M243.9842,-125.679C211.1565,-116.441 154.2171,-100.4179 114.6722,-89.2897"/>
<polygon fill="#191970" stroke="#191970" points="115.5927,-85.9128 105.0185,-86.573 113.6965,-92.6511 115.5927,-85.9128"/>
</g>
<!-- Node8 -->
<g id="node9" class="node">
<title>Node8</title>
<g id="a_node9"><a xlink:href="_model_factory_8h.html" target="_top" xlink:title="ModelFactory.h">
<polygon fill="#ffffff" stroke="#000000" points="167,-67.5 167,-86.5 251,-86.5 251,-67.5 167,-67.5"/>
<text text-anchor="middle" x="209" y="-74.5" font-family="Helvetica,sans-Serif" font-size="10.00" fill="#000000">ModelFactory.h</text>
</a>
</g>
</g>
<!-- Node3&#45;&gt;Node8 -->
<g id="edge9" class="edge">
<title>Node3&#45;&gt;Node8</title>
<path fill="none" stroke="#191970" d="M259.3746,-123.2455C250.4527,-115.0549 237.512,-103.1749 226.9808,-93.5069"/>
<polygon fill="#191970" stroke="#191970" points="229.2371,-90.8271 219.5036,-86.6427 224.5032,-95.9837 229.2371,-90.8271"/>
</g>
<!-- Node9 -->
<g id="node10" class="node">
<title>Node9</title>
<g id="a_node10"><a xlink:href="equivalent__polynomials_8h.html" target="_top" xlink:title="equivalent_polynomials.h">
<polygon fill="#ffffff" stroke="#000000" points="269,-67.5 269,-86.5 395,-86.5 395,-67.5 269,-67.5"/>
<text text-anchor="middle" x="332" y="-74.5" font-family="Helvetica,sans-Serif" font-size="10.00" fill="#000000">equivalent_polynomials.h</text>
</a>
</g>
</g>
<!-- Node3&#45;&gt;Node9 -->
<g id="edge11" class="edge">
<title>Node3&#45;&gt;Node9</title>
<path fill="none" stroke="#191970" d="M280.7996,-123.2455C289.8678,-115.0549 303.0206,-103.1749 313.7245,-93.5069"/>
<polygon fill="#191970" stroke="#191970" points="316.2491,-95.9429 321.3242,-86.6427 311.5571,-90.7482 316.2491,-95.9429"/>
</g>
<!-- Node13 -->
<g id="node14" class="node">
<title>Node13</title>
<g id="a_node14"><a xlink:href="_arguments_dict_8h.html" target="_top" xlink:title="ArgumentsDict.h">
<polygon fill="#ffffff" stroke="#000000" points="628,-67.5 628,-86.5 718,-86.5 718,-67.5 628,-67.5"/>
<text text-anchor="middle" x="673" y="-74.5" font-family="Helvetica,sans-Serif" font-size="10.00" fill="#000000">ArgumentsDict.h</text>
</a>
</g>
</g>
<!-- Node3&#45;&gt;Node13 -->
<g id="edge17" class="edge">
<title>Node3&#45;&gt;Node13</title>
<path fill="none" stroke="#191970" d="M296.1314,-129.3688C360.8931,-120.3697 529.9224,-96.8818 617.9325,-84.6521"/>
<polygon fill="#191970" stroke="#191970" points="618.5709,-88.0971 627.994,-83.2539 617.6074,-81.1637 618.5709,-88.0971"/>
</g>
<!-- Node17 -->
<g id="node18" class="node">
<title>Node17</title>
<polygon fill="#ffffff" stroke="#bfbfbf" points="824.5,-6 824.5,-25 959.5,-25 959.5,-6 824.5,-6"/>
<text text-anchor="middle" x="892" y="-13" font-family="Helvetica,sans-Serif" font-size="10.00" fill="#000000">xtensor&#45;python/pyarray.hpp</text>
</g>
<!-- Node3&#45;&gt;Node17 -->
<g id="edge23" class="edge">
<title>Node3&#45;&gt;Node17</title>
<path fill="none" stroke="#191970" d="M296.1986,-131.4271C380.5582,-126.196 644.4277,-108.4904 727,-87 778.202,-73.6741 833.9213,-46.6581 865.7391,-29.9171"/>
<polygon fill="#191970" stroke="#191970" points="867.6374,-32.8714 874.8147,-25.0781 864.3439,-26.6946 867.6374,-32.8714"/>
</g>
<!-- Node7&#45;&gt;Node4 -->
<g id="edge8" class="edge">
<title>Node7&#45;&gt;Node4</title>
<path fill="none" stroke="#191970" d="M71,-67.3906C71,-58.8657 71,-46.1392 71,-35.4235"/>
<polygon fill="#191970" stroke="#191970" points="74.5001,-35.2448 71,-25.2449 67.5001,-35.2449 74.5001,-35.2448"/>
</g>
<!-- Node8&#45;&gt;Node5 -->
<g id="edge10" class="edge">
<title>Node8&#45;&gt;Node5</title>
<path fill="none" stroke="#191970" d="M199.625,-67.3906C190.5201,-58.0581 176.5026,-43.6902 165.5243,-32.4374"/>
<polygon fill="#191970" stroke="#191970" points="167.9957,-29.9586 158.5072,-25.2449 162.9852,-34.8468 167.9957,-29.9586"/>
</g>
<!-- Node9&#45;&gt;Node4 -->
<g id="edge12" class="edge">
<title>Node9&#45;&gt;Node4</title>
<path fill="none" stroke="#191970" d="M275.1787,-67.4278C230.6388,-59.359 167.3215,-46.6374 113,-31 109.6109,-30.0244 106.1038,-28.9077 102.6268,-27.7305"/>
<polygon fill="#191970" stroke="#191970" points="103.6261,-24.3712 93.0313,-24.32 101.2817,-30.967 103.6261,-24.3712"/>
</g>
<!-- Node9&#45;&gt;Node5 -->
<g id="edge14" class="edge">
<title>Node9&#45;&gt;Node5</title>
<path fill="none" stroke="#191970" d="M298.0958,-67.4723C268.0843,-58.7829 223.2387,-45.1718 185,-31 183.1815,-30.3261 181.3218,-29.6101 179.4525,-28.8697"/>
<polygon fill="#191970" stroke="#191970" points="180.7525,-25.62 170.1731,-25.0473 178.0863,-32.0924 180.7525,-25.62"/>
</g>
<!-- Node10 -->
<g id="node11" class="node">
<title>Node10</title>
<polygon fill="#ffffff" stroke="#bfbfbf" points="194.5,-6 194.5,-25 243.5,-25 243.5,-6 194.5,-6"/>
<text text-anchor="middle" x="219" y="-13" font-family="Helvetica,sans-Serif" font-size="10.00" fill="#000000">cassert</text>
</g>
<!-- Node9&#45;&gt;Node10 -->
<g id="edge13" class="edge">
<title>Node9&#45;&gt;Node10</title>
<path fill="none" stroke="#191970" d="M314.3438,-67.3906C295.8514,-57.3262 266.599,-41.4057 245.3692,-29.8514"/>
<polygon fill="#191970" stroke="#191970" points="246.9888,-26.7481 236.5323,-25.0419 243.6425,-32.8965 246.9888,-26.7481"/>
</g>
<!-- Node11 -->
<g id="node12" class="node">
<title>Node11</title>
<g id="a_node12"><a xlink:href="equivalent__polynomials__coefficients_8h.html" target="_top" xlink:title="equivalent_polynomials\l_coefficients.h">
<polygon fill="#ffffff" stroke="#000000" points="262,-.5 262,-30.5 380,-30.5 380,-.5 262,-.5"/>
<text text-anchor="start" x="270" y="-18.5" font-family="Helvetica,sans-Serif" font-size="10.00" fill="#000000">equivalent_polynomials</text>
<text text-anchor="middle" x="321" y="-7.5" font-family="Helvetica,sans-Serif" font-size="10.00" fill="#000000">_coefficients.h</text>
</a>
</g>
</g>
<!-- Node9&#45;&gt;Node11 -->
<g id="edge15" class="edge">
<title>Node9&#45;&gt;Node11</title>
<path fill="none" stroke="#191970" d="M330.2813,-67.3906C328.9993,-60.2234 327.1862,-50.0862 325.5021,-40.671"/>
<polygon fill="#191970" stroke="#191970" points="328.897,-39.7721 323.6909,-30.5446 322.0063,-41.0046 328.897,-39.7721"/>
</g>
<!-- Node12 -->
<g id="node13" class="node">
<title>Node12</title>
<g id="a_node13"><a xlink:href="equivalent__polynomials__utils_8h.html" target="_top" xlink:title="equivalent_polynomials\l_utils.h">
<polygon fill="#ffffff" stroke="#000000" points="398,-.5 398,-30.5 516,-30.5 516,-.5 398,-.5"/>
<text text-anchor="start" x="406" y="-18.5" font-family="Helvetica,sans-Serif" font-size="10.00" fill="#000000">equivalent_polynomials</text>
<text text-anchor="middle" x="457" y="-7.5" font-family="Helvetica,sans-Serif" font-size="10.00" fill="#000000">_utils.h</text>
</a>
</g>
</g>
<!-- Node9&#45;&gt;Node12 -->
<g id="edge16" class="edge">
<title>Node9&#45;&gt;Node12</title>
<path fill="none" stroke="#191970" d="M351.5313,-67.3906C369.075,-58.7591 395.3736,-45.8202 417.3204,-35.0224"/>
<polygon fill="#191970" stroke="#191970" points="418.9939,-38.0997 426.4216,-30.5446 415.9036,-31.8188 418.9939,-38.0997"/>
</g>
<!-- Node14 -->
<g id="node15" class="node">
<title>Node14</title>
<polygon fill="#ffffff" stroke="#bfbfbf" points="694.5,-6 694.5,-25 729.5,-25 729.5,-6 694.5,-6"/>
<text text-anchor="middle" x="712" y="-13" font-family="Helvetica,sans-Serif" font-size="10.00" fill="#000000">map</text>
</g>
<!-- Node13&#45;&gt;Node14 -->
<g id="edge18" class="edge">
<title>Node13&#45;&gt;Node14</title>
<path fill="none" stroke="#191970" d="M679.0938,-67.3906C684.7843,-58.417 693.4272,-44.7879 700.4274,-33.7491"/>
<polygon fill="#191970" stroke="#191970" points="703.4207,-35.5644 705.8203,-25.2449 697.5091,-31.8155 703.4207,-35.5644"/>
</g>
<!-- Node15 -->
<g id="node16" class="node">
<title>Node15</title>
<polygon fill="#ffffff" stroke="#bfbfbf" points="747.5,-6 747.5,-25 806.5,-25 806.5,-6 747.5,-6"/>
<text text-anchor="middle" x="777" y="-13" font-family="Helvetica,sans-Serif" font-size="10.00" fill="#000000">stdexcept</text>
</g>
<!-- Node13&#45;&gt;Node15 -->
<g id="edge19" class="edge">
<title>Node13&#45;&gt;Node15</title>
<path fill="none" stroke="#191970" d="M689.25,-67.3906C706.1169,-57.4165 732.7099,-41.6908 752.2035,-30.1633"/>
<polygon fill="#191970" stroke="#191970" points="754.038,-33.1447 760.8641,-25.0419 750.4749,-27.1194 754.038,-33.1447"/>
</g>
<!-- Node16 -->
<g id="node17" class="node">
<title>Node16</title>
<polygon fill="#ffffff" stroke="#bfbfbf" points="534.5,-6 534.5,-25 575.5,-25 575.5,-6 534.5,-6"/>
<text text-anchor="middle" x="555" y="-13" font-family="Helvetica,sans-Serif" font-size="10.00" fill="#000000">string</text>
</g>
<!-- Node13&#45;&gt;Node16 -->
<g id="edge20" class="edge">
<title>Node13&#45;&gt;Node16</title>
<path fill="none" stroke="#191970" d="M654.2089,-67.383C636.1693,-58.1281 608.1715,-43.7054 584,-31 583.3178,-30.6414 582.6269,-30.2776 581.9302,-29.91"/>
<polygon fill="#191970" stroke="#191970" points="583.2436,-26.6447 572.7699,-25.0476 579.9616,-32.8276 583.2436,-26.6447"/>
</g>
<!-- Node13&#45;&gt;Node17 -->
<g id="edge21" class="edge">
<title>Node13&#45;&gt;Node17</title>
<path fill="none" stroke="#191970" d="M707.2188,-67.3906C745.2275,-56.7169 806.6911,-39.4566 848.1884,-27.8033"/>
<polygon fill="#191970" stroke="#191970" points="849.3402,-31.1153 858.0215,-25.0419 847.4477,-24.3759 849.3402,-31.1153"/>
</g>
<!-- Node18 -->
<g id="node19" class="node">
<title>Node18</title>
<polygon fill="#ffffff" stroke="#bfbfbf" points="593.5,-6 593.5,-25 676.5,-25 676.5,-6 593.5,-6"/>
<text text-anchor="middle" x="635" y="-13" font-family="Helvetica,sans-Serif" font-size="10.00" fill="#000000">xtensor/xio.hpp</text>
</g>
<!-- Node13&#45;&gt;Node18 -->
<g id="edge22" class="edge">
<title>Node13&#45;&gt;Node18</title>
<path fill="none" stroke="#191970" d="M667.0625,-67.3906C661.5733,-58.5068 653.2647,-45.0601 646.481,-34.0811"/>
<polygon fill="#191970" stroke="#191970" points="649.2551,-31.9122 641.0212,-25.2449 643.3002,-35.5917 649.2551,-31.9122"/>
</g>
</g>
</svg>
