<?xml version="1.0" encoding="UTF-8" standalone="no"?>
<!DOCTYPE svg PUBLIC "-//W3C//DTD SVG 1.1//EN"
 "http://www.w3.org/Graphics/SVG/1.1/DTD/svg11.dtd">
<!-- Generated by graphviz version 2.50.0 (20211204.2007)
 -->
<!-- Title: MCorr.cpp Pages: 1 -->
<svg width="1158pt" height="207pt"
 viewBox="0.00 0.00 1158.00 207.00" xmlns="http://www.w3.org/2000/svg" xmlns:xlink="http://www.w3.org/1999/xlink">
<g id="graph0" class="graph" transform="scale(1 1) rotate(0) translate(4 203)">
<title>MCorr.cpp</title>
<polygon fill="white" stroke="transparent" points="-4,4 -4,-203 1154,-203 1154,4 -4,4"/>
<!-- Node1 -->
<g id="node1" class="node">
<title>Node1</title>
<g id="a_node1"><a xlink:title=" ">
<polygon fill="#bfbfbf" stroke="black" points="144,-179.5 144,-198.5 206,-198.5 206,-179.5 144,-179.5"/>
<text text-anchor="middle" x="175" y="-186.5" font-family="Helvetica,sans-Serif" font-size="10.00">MCorr.cpp</text>
</a>
</g>
</g>
<!-- Node2 -->
<g id="node2" class="node">
<title>Node2</title>
<g id="a_node2"><a xlink:title=" ">
<polygon fill="white" stroke="#bfbfbf" points="0,-123.5 0,-142.5 106,-142.5 106,-123.5 0,-123.5"/>
<text text-anchor="middle" x="53" y="-130.5" font-family="Helvetica,sans-Serif" font-size="10.00">pybind11/pybind11.h</text>
</a>
</g>
</g>
<!-- Node1&#45;&gt;Node2 -->
<g id="edge1" class="edge">
<title>Node1&#45;&gt;Node2</title>
<path fill="none" stroke="midnightblue" d="M155.67,-179.44C135.68,-170.6 104.26,-156.69 81.44,-146.59"/>
<polygon fill="midnightblue" stroke="midnightblue" points="82.8,-143.36 72.24,-142.52 79.97,-149.76 82.8,-143.36"/>
</g>
<!-- Node3 -->
<g id="node3" class="node">
<title>Node3</title>
<g id="a_node3"><a xlink:title=" ">
<polygon fill="white" stroke="#bfbfbf" points="124.5,-123.5 124.5,-142.5 225.5,-142.5 225.5,-123.5 124.5,-123.5"/>
<text text-anchor="middle" x="175" y="-130.5" font-family="Helvetica,sans-Serif" font-size="10.00">pybind11/stl_bind.h</text>
</a>
</g>
</g>
<!-- Node1&#45;&gt;Node3 -->
<g id="edge2" class="edge">
<title>Node1&#45;&gt;Node3</title>
<path fill="none" stroke="midnightblue" d="M175,-179.08C175,-172.01 175,-161.86 175,-152.99"/>
<polygon fill="midnightblue" stroke="midnightblue" points="178.5,-152.75 175,-142.75 171.5,-152.75 178.5,-152.75"/>
</g>
<!-- Node4 -->
<g id="node4" class="node">
<title>Node4</title>
<g id="a_node4"><a xlink:href="_m_corr_8h.html" target="_top" xlink:title=" ">
<polygon fill="white" stroke="black" points="243.5,-123.5 243.5,-142.5 294.5,-142.5 294.5,-123.5 243.5,-123.5"/>
<text text-anchor="middle" x="269" y="-130.5" font-family="Helvetica,sans-Serif" font-size="10.00">MCorr.h</text>
</a>
</g>
</g>
<!-- Node1&#45;&gt;Node4 -->
<g id="edge3" class="edge">
<title>Node1&#45;&gt;Node4</title>
<path fill="none" stroke="midnightblue" d="M190.1,-179.32C204.9,-170.82 227.69,-157.73 244.98,-147.8"/>
<polygon fill="midnightblue" stroke="midnightblue" points="247.01,-150.67 253.93,-142.65 243.52,-144.6 247.01,-150.67"/>
</g>
<!-- Node5 -->
<g id="node5" class="node">
<title>Node5</title>
<g id="a_node5"><a xlink:title=" ">
<polygon fill="white" stroke="#bfbfbf" points="48,-6 48,-25 92,-25 92,-6 48,-6"/>
<text text-anchor="middle" x="70" y="-13" font-family="Helvetica,sans-Serif" font-size="10.00">cmath</text>
</a>
</g>
</g>
<!-- Node4&#45;&gt;Node5 -->
<g id="edge4" class="edge">
<title>Node4&#45;&gt;Node5</title>
<path fill="none" stroke="midnightblue" d="M243.44,-125.16C240.27,-124.39 237.07,-123.65 234,-123 187.05,-113.01 51.99,-123.66 21,-87 5.58,-68.75 28.68,-45.72 48.1,-31.04"/>
<polygon fill="midnightblue" stroke="midnightblue" points="50.27,-33.8 56.35,-25.12 46.19,-28.11 50.27,-33.8"/>
</g>
<!-- Node6 -->
<g id="node6" class="node">
<title>Node6</title>
<g id="a_node6"><a xlink:title=" ">
<polygon fill="white" stroke="#bfbfbf" points="110,-6 110,-25 164,-25 164,-6 110,-6"/>
<text text-anchor="middle" x="137" y="-13" font-family="Helvetica,sans-Serif" font-size="10.00">iostream</text>
</a>
</g>
</g>
<!-- Node4&#45;&gt;Node6 -->
<g id="edge5" class="edge">
<title>Node4&#45;&gt;Node6</title>
<path fill="none" stroke="midnightblue" d="M243.35,-124.58C214.13,-115.65 168.88,-100.2 157,-87 144.13,-72.69 139.48,-50.67 137.84,-35.06"/>
<polygon fill="midnightblue" stroke="midnightblue" points="141.33,-34.73 137.1,-25.02 134.34,-35.25 141.33,-34.73"/>
</g>
<!-- Node7 -->
<g id="node7" class="node">
<title>Node7</title>
<g id="a_node7"><a xlink:title=" ">
<polygon fill="white" stroke="#bfbfbf" points="412.5,-67.5 412.5,-86.5 463.5,-86.5 463.5,-67.5 412.5,-67.5"/>
<text text-anchor="middle" x="438" y="-74.5" font-family="Helvetica,sans-Serif" font-size="10.00">valarray</text>
</a>
</g>
</g>
<!-- Node4&#45;&gt;Node7 -->
<g id="edge6" class="edge">
<title>Node4&#45;&gt;Node7</title>
<path fill="none" stroke="midnightblue" d="M294.67,-123.8C323.41,-114.61 370.19,-99.67 402.45,-89.36"/>
<polygon fill="midnightblue" stroke="midnightblue" points="403.91,-92.57 412.37,-86.19 401.78,-85.9 403.91,-92.57"/>
</g>
<!-- Node8 -->
<g id="node8" class="node">
<title>Node8</title>
<g id="a_node8"><a xlink:href="_comp_kernel_8h.html" target="_top" xlink:title=" ">
<polygon fill="white" stroke="black" points="30.5,-67.5 30.5,-86.5 109.5,-86.5 109.5,-67.5 30.5,-67.5"/>
<text text-anchor="middle" x="70" y="-74.5" font-family="Helvetica,sans-Serif" font-size="10.00">CompKernel.h</text>
</a>
</g>
</g>
<!-- Node4&#45;&gt;Node8 -->
<g id="edge7" class="edge">
<title>Node4&#45;&gt;Node8</title>
<path fill="none" stroke="midnightblue" d="M243.39,-125.05C209.91,-115.97 150.85,-99.94 111.08,-89.15"/>
<polygon fill="midnightblue" stroke="midnightblue" points="111.97,-85.76 101.41,-86.52 110.14,-92.52 111.97,-85.76"/>
</g>
<!-- Node9 -->
<g id="node9" class="node">
<title>Node9</title>
<g id="a_node9"><a xlink:href="_model_factory_8h.html" target="_top" xlink:title=" ">
<polygon fill="white" stroke="black" points="166.5,-67.5 166.5,-86.5 249.5,-86.5 249.5,-67.5 166.5,-67.5"/>
<text text-anchor="middle" x="208" y="-74.5" font-family="Helvetica,sans-Serif" font-size="10.00">ModelFactory.h</text>
</a>
</g>
</g>
<!-- Node4&#45;&gt;Node9 -->
<g id="edge9" class="edge">
<title>Node4&#45;&gt;Node9</title>
<path fill="none" stroke="midnightblue" d="M259.2,-123.32C250.18,-115.34 236.59,-103.31 225.68,-93.65"/>
<polygon fill="midnightblue" stroke="midnightblue" points="227.79,-90.84 217.98,-86.83 223.15,-96.08 227.79,-90.84"/>
</g>
<!-- Node10 -->
<g id="node10" class="node">
<title>Node10</title>
<g id="a_node10"><a xlink:href="equivalent__polynomials_8h.html" target="_top" xlink:title=" ">
<polygon fill="white" stroke="black" points="268,-67.5 268,-86.5 394,-86.5 394,-67.5 268,-67.5"/>
<text text-anchor="middle" x="331" y="-74.5" font-family="Helvetica,sans-Serif" font-size="10.00">equivalent_polynomials.h</text>
</a>
</g>
</g>
<!-- Node4&#45;&gt;Node10 -->
<g id="edge11" class="edge">
<title>Node4&#45;&gt;Node10</title>
<path fill="none" stroke="midnightblue" d="M278.96,-123.32C288.13,-115.34 301.94,-103.31 313.03,-93.65"/>
<polygon fill="midnightblue" stroke="midnightblue" points="315.62,-96.04 320.86,-86.83 311.02,-90.76 315.62,-96.04"/>
</g>
<!-- Node16 -->
<g id="node16" class="node">
<title>Node16</title>
<g id="a_node16"><a xlink:href="_arguments_dict_8h.html" target="_top" xlink:title=" ">
<polygon fill="white" stroke="black" points="797,-67.5 797,-86.5 887,-86.5 887,-67.5 797,-67.5"/>
<text text-anchor="middle" x="842" y="-74.5" font-family="Helvetica,sans-Serif" font-size="10.00">ArgumentsDict.h</text>
</a>
</g>
</g>
<!-- Node4&#45;&gt;Node16 -->
<g id="edge19" class="edge">
<title>Node4&#45;&gt;Node16</title>
<path fill="none" stroke="midnightblue" d="M294.73,-129.57C381.7,-121.38 665.96,-94.59 786.82,-83.2"/>
<polygon fill="midnightblue" stroke="midnightblue" points="787.33,-86.67 796.96,-82.24 786.68,-79.7 787.33,-86.67"/>
</g>
<!-- Node20 -->
<g id="node20" class="node">
<title>Node20</title>
<g id="a_node20"><a xlink:title=" ">
<polygon fill="white" stroke="#bfbfbf" points="1016,-6 1016,-25 1150,-25 1150,-6 1016,-6"/>
<text text-anchor="middle" x="1083" y="-13" font-family="Helvetica,sans-Serif" font-size="10.00">xtensor&#45;python/pyarray.hpp</text>
</a>
</g>
</g>
<!-- Node4&#45;&gt;Node20 -->
<g id="edge25" class="edge">
<title>Node4&#45;&gt;Node20</title>
<path fill="none" stroke="midnightblue" d="M294.7,-131.14C397.38,-127.57 778.34,-112.83 896,-87 955.17,-74.01 1020.6,-45.95 1056.24,-29.42"/>
<polygon fill="midnightblue" stroke="midnightblue" points="1057.91,-32.5 1065.47,-25.08 1054.93,-26.16 1057.91,-32.5"/>
</g>
<!-- Node8&#45;&gt;Node5 -->
<g id="edge8" class="edge">
<title>Node8&#45;&gt;Node5</title>
<path fill="none" stroke="midnightblue" d="M70,-67.48C70,-59.08 70,-45.98 70,-35.16"/>
<polygon fill="midnightblue" stroke="midnightblue" points="73.5,-35.01 70,-25.01 66.5,-35.01 73.5,-35.01"/>
</g>
<!-- Node9&#45;&gt;Node6 -->
<g id="edge10" class="edge">
<title>Node9&#45;&gt;Node6</title>
<path fill="none" stroke="midnightblue" d="M197.83,-67.48C186.65,-58.11 168.48,-42.88 154.91,-31.51"/>
<polygon fill="midnightblue" stroke="midnightblue" points="157.07,-28.75 147.15,-25.01 152.57,-34.11 157.07,-28.75"/>
</g>
<!-- Node10&#45;&gt;Node5 -->
<g id="edge12" class="edge">
<title>Node10&#45;&gt;Node5</title>
<path fill="none" stroke="midnightblue" d="M267.96,-67.91C221.14,-60.89 156.12,-48.98 101,-31 99.33,-30.46 97.63,-29.84 95.94,-29.19"/>
<polygon fill="midnightblue" stroke="midnightblue" points="97,-25.83 86.43,-25.09 94.23,-32.26 97,-25.83"/>
</g>
<!-- Node10&#45;&gt;Node6 -->
<g id="edge14" class="edge">
<title>Node10&#45;&gt;Node6</title>
<path fill="none" stroke="midnightblue" d="M297.08,-67.45C264.87,-59.07 215.22,-45.47 173,-31 170.88,-30.27 168.7,-29.49 166.51,-28.68"/>
<polygon fill="midnightblue" stroke="midnightblue" points="167.63,-25.36 157.04,-25.01 165.1,-31.88 167.63,-25.36"/>
</g>
<!-- Node11 -->
<g id="node11" class="node">
<title>Node11</title>
<g id="a_node11"><a xlink:title=" ">
<polygon fill="white" stroke="#bfbfbf" points="658.5,-6 658.5,-25 707.5,-25 707.5,-6 658.5,-6"/>
<text text-anchor="middle" x="683" y="-13" font-family="Helvetica,sans-Serif" font-size="10.00">cassert</text>
</a>
</g>
</g>
<!-- Node10&#45;&gt;Node11 -->
<g id="edge13" class="edge">
<title>Node10&#45;&gt;Node11</title>
<path fill="none" stroke="midnightblue" d="M394.2,-67.96C479.88,-56.92 625.03,-37.68 649,-31 651.29,-30.36 653.64,-29.6 655.97,-28.77"/>
<polygon fill="midnightblue" stroke="midnightblue" points="657.3,-32.01 665.32,-25.08 654.73,-25.5 657.3,-32.01"/>
</g>
<!-- Node12 -->
<g id="node12" class="node">
<title>Node12</title>
<g id="a_node12"><a xlink:title=" ">
<polygon fill="white" stroke="#bfbfbf" points="182,-6 182,-25 232,-25 232,-6 182,-6"/>
<text text-anchor="middle" x="207" y="-13" font-family="Helvetica,sans-Serif" font-size="10.00">iomanip</text>
</a>
</g>
</g>
<!-- Node10&#45;&gt;Node12 -->
<g id="edge15" class="edge">
<title>Node10&#45;&gt;Node12</title>
<path fill="none" stroke="midnightblue" d="M313.23,-67.48C292.52,-57.53 258.05,-40.99 234.01,-29.46"/>
<polygon fill="midnightblue" stroke="midnightblue" points="235.26,-26.18 224.73,-25.01 232.23,-32.49 235.26,-26.18"/>
</g>
<!-- Node13 -->
<g id="node13" class="node">
<title>Node13</title>
<g id="a_node13"><a xlink:href="equivalent__polynomials__coefficients_8h.html" target="_top" xlink:title=" ">
<polygon fill="white" stroke="black" points="250,-0.5 250,-30.5 368,-30.5 368,-0.5 250,-0.5"/>
<text text-anchor="start" x="258" y="-18.5" font-family="Helvetica,sans-Serif" font-size="10.00">equivalent_polynomials</text>
<text text-anchor="middle" x="309" y="-7.5" font-family="Helvetica,sans-Serif" font-size="10.00">_coefficients.h</text>
</a>
</g>
</g>
<!-- Node10&#45;&gt;Node13 -->
<g id="edge16" class="edge">
<title>Node10&#45;&gt;Node13</title>
<path fill="none" stroke="midnightblue" d="M327.85,-67.48C325.2,-60.32 321.29,-49.75 317.72,-40.08"/>
<polygon fill="midnightblue" stroke="midnightblue" points="320.94,-38.69 314.18,-30.52 314.37,-41.12 320.94,-38.69"/>
</g>
<!-- Node14 -->
<g id="node14" class="node">
<title>Node14</title>
<g id="a_node14"><a xlink:href="equivalent__polynomials__coefficients__quad_8h.html" target="_top" xlink:title=" ">
<polygon fill="white" stroke="black" points="386,-0.5 386,-30.5 504,-30.5 504,-0.5 386,-0.5"/>
<text text-anchor="start" x="394" y="-18.5" font-family="Helvetica,sans-Serif" font-size="10.00">equivalent_polynomials</text>
<text text-anchor="middle" x="445" y="-7.5" font-family="Helvetica,sans-Serif" font-size="10.00">_coefficients_quad.h</text>
</a>
</g>
</g>
<!-- Node10&#45;&gt;Node14 -->
<g id="edge17" class="edge">
<title>Node10&#45;&gt;Node14</title>
<path fill="none" stroke="midnightblue" d="M347.33,-67.48C363.42,-59.08 388.53,-45.97 409.26,-35.15"/>
<polygon fill="midnightblue" stroke="midnightblue" points="410.89,-38.25 418.13,-30.52 407.65,-32.05 410.89,-38.25"/>
</g>
<!-- Node15 -->
<g id="node15" class="node">
<title>Node15</title>
<g id="a_node15"><a xlink:href="equivalent__polynomials__utils_8h.html" target="_top" xlink:title=" ">
<polygon fill="white" stroke="black" points="522,-0.5 522,-30.5 640,-30.5 640,-0.5 522,-0.5"/>
<text text-anchor="start" x="530" y="-18.5" font-family="Helvetica,sans-Serif" font-size="10.00">equivalent_polynomials</text>
<text text-anchor="middle" x="581" y="-7.5" font-family="Helvetica,sans-Serif" font-size="10.00">_utils.h</text>
</a>
</g>
</g>
<!-- Node10&#45;&gt;Node15 -->
<g id="edge18" class="edge">
<title>Node10&#45;&gt;Node15</title>
<path fill="none" stroke="midnightblue" d="M366.82,-67.48C404.63,-58.48 465.17,-44.07 512.25,-32.86"/>
<polygon fill="midnightblue" stroke="midnightblue" points="513.16,-36.24 522.08,-30.52 511.54,-29.43 513.16,-36.24"/>
</g>
<!-- Node17 -->
<g id="node17" class="node">
<title>Node17</title>
<g id="a_node17"><a xlink:title=" ">
<polygon fill="white" stroke="#bfbfbf" points="725.5,-6 725.5,-25 760.5,-25 760.5,-6 725.5,-6"/>
<text text-anchor="middle" x="743" y="-13" font-family="Helvetica,sans-Serif" font-size="10.00">map</text>
</a>
</g>
</g>
<!-- Node16&#45;&gt;Node17 -->
<g id="edge20" class="edge">
<title>Node16&#45;&gt;Node17</title>
<path fill="none" stroke="midnightblue" d="M827.82,-67.48C811.64,-57.75 784.97,-41.73 765.86,-30.24"/>
<polygon fill="midnightblue" stroke="midnightblue" points="767.53,-27.16 757.16,-25.01 763.93,-33.16 767.53,-27.16"/>
</g>
<!-- Node18 -->
<g id="node18" class="node">
<title>Node18</title>
<g id="a_node18"><a xlink:title=" ">
<polygon fill="white" stroke="#bfbfbf" points="778.5,-6 778.5,-25 837.5,-25 837.5,-6 778.5,-6"/>
<text text-anchor="middle" x="808" y="-13" font-family="Helvetica,sans-Serif" font-size="10.00">stdexcept</text>
</a>
</g>
</g>
<!-- Node16&#45;&gt;Node18 -->
<g id="edge21" class="edge">
<title>Node16&#45;&gt;Node18</title>
<path fill="none" stroke="midnightblue" d="M837.13,-67.48C832.13,-58.73 824.21,-44.87 817.89,-33.81"/>
<polygon fill="midnightblue" stroke="midnightblue" points="820.86,-31.96 812.86,-25.01 814.78,-35.43 820.86,-31.96"/>
</g>
<!-- Node19 -->
<g id="node19" class="node">
<title>Node19</title>
<g id="a_node19"><a xlink:title=" ">
<polygon fill="white" stroke="#bfbfbf" points="855.5,-6 855.5,-25 896.5,-25 896.5,-6 855.5,-6"/>
<text text-anchor="middle" x="876" y="-13" font-family="Helvetica,sans-Serif" font-size="10.00">string</text>
</a>
</g>
</g>
<!-- Node16&#45;&gt;Node19 -->
<g id="edge22" class="edge">
<title>Node16&#45;&gt;Node19</title>
<path fill="none" stroke="midnightblue" d="M846.87,-67.48C851.87,-58.73 859.79,-44.87 866.11,-33.81"/>
<polygon fill="midnightblue" stroke="midnightblue" points="869.22,-35.43 871.14,-25.01 863.14,-31.96 869.22,-35.43"/>
</g>
<!-- Node16&#45;&gt;Node20 -->
<g id="edge23" class="edge">
<title>Node16&#45;&gt;Node20</title>
<path fill="none" stroke="midnightblue" d="M876.53,-67.48C919.21,-56.94 991.92,-38.99 1038.68,-27.44"/>
<polygon fill="midnightblue" stroke="midnightblue" points="1039.67,-30.8 1048.53,-25.01 1037.99,-24.01 1039.67,-30.8"/>
</g>
<!-- Node21 -->
<g id="node21" class="node">
<title>Node21</title>
<g id="a_node21"><a xlink:title=" ">
<polygon fill="white" stroke="#bfbfbf" points="914.5,-6 914.5,-25 997.5,-25 997.5,-6 914.5,-6"/>
<text text-anchor="middle" x="956" y="-13" font-family="Helvetica,sans-Serif" font-size="10.00">xtensor/xio.hpp</text>
</a>
</g>
</g>
<!-- Node16&#45;&gt;Node21 -->
<g id="edge24" class="edge">
<title>Node16&#45;&gt;Node21</title>
<path fill="none" stroke="midnightblue" d="M858.33,-67.48C877.21,-57.62 908.51,-41.29 930.58,-29.77"/>
<polygon fill="midnightblue" stroke="midnightblue" points="932.45,-32.74 939.7,-25.01 929.21,-26.53 932.45,-32.74"/>
</g>
</g>
</svg>
