<?xml version="1.0" encoding="UTF-8" standalone="no"?>
<!DOCTYPE svg PUBLIC "-//W3C//DTD SVG 1.1//EN"
 "http://www.w3.org/Graphics/SVG/1.1/DTD/svg11.dtd">
<!-- Generated by graphviz version 2.50.0 (20211204.2007)
 -->
<!-- Title: MeshConverter.cpp Pages: 1 -->
<svg width="1347pt" height="196pt"
 viewBox="0.00 0.00 1347.00 196.00" xmlns="http://www.w3.org/2000/svg" xmlns:xlink="http://www.w3.org/1999/xlink">
<g id="graph0" class="graph" transform="scale(1 1) rotate(0) translate(4 192)">
<title>MeshConverter.cpp</title>
<polygon fill="white" stroke="transparent" points="-4,4 -4,-192 1343,-192 1343,4 -4,4"/>
<!-- Node1 -->
<g id="node1" class="node">
<title>Node1</title>
<g id="a_node1"><a xlink:title=" ">
<polygon fill="#bfbfbf" stroke="black" points="601.5,-168.5 601.5,-187.5 702.5,-187.5 702.5,-168.5 601.5,-168.5"/>
<text text-anchor="middle" x="652" y="-175.5" font-family="Helvetica,sans-Serif" font-size="10.00">MeshConverter.cpp</text>
</a>
</g>
</g>
<!-- Node2 -->
<g id="node2" class="node">
<title>Node2</title>
<g id="a_node2"><a xlink:title=" ">
<polygon fill="white" stroke="#bfbfbf" points="0,-0.5 0,-19.5 56,-19.5 56,-0.5 0,-0.5"/>
<text text-anchor="middle" x="28" y="-7.5" font-family="Helvetica,sans-Serif" font-size="10.00">algorithm</text>
</a>
</g>
</g>
<!-- Node1&#45;&gt;Node2 -->
<g id="edge1" class="edge">
<title>Node1&#45;&gt;Node2</title>
<path fill="none" stroke="midnightblue" d="M601.5,-177.77C523.23,-177.57 368.75,-171.56 245,-132 166.6,-106.94 84.5,-52.01 47.79,-25.66"/>
<polygon fill="midnightblue" stroke="midnightblue" points="49.61,-22.66 39.46,-19.61 45.49,-28.32 49.61,-22.66"/>
</g>
<!-- Node3 -->
<g id="node3" class="node">
<title>Node3</title>
<g id="a_node3"><a xlink:href="_mesh_adapt_p_u_m_i_8h.html" target="_top" xlink:title=" ">
<polygon fill="white" stroke="black" points="435,-112.5 435,-131.5 535,-131.5 535,-112.5 435,-112.5"/>
<text text-anchor="middle" x="485" y="-119.5" font-family="Helvetica,sans-Serif" font-size="10.00">MeshAdaptPUMI.h</text>
</a>
</g>
</g>
<!-- Node1&#45;&gt;Node3 -->
<g id="edge2" class="edge">
<title>Node1&#45;&gt;Node3</title>
<path fill="none" stroke="midnightblue" d="M625.54,-168.44C597.32,-159.32 552.46,-144.81 521.03,-134.65"/>
<polygon fill="midnightblue" stroke="midnightblue" points="521.93,-131.26 511.34,-131.52 519.78,-137.92 521.93,-131.26"/>
</g>
<!-- Node4 -->
<g id="node4" class="node">
<title>Node4</title>
<g id="a_node4"><a xlink:href="mesh_8h.html" target="_top" xlink:title=" ">
<polygon fill="white" stroke="black" points="253.5,-56.5 253.5,-75.5 302.5,-75.5 302.5,-56.5 253.5,-56.5"/>
<text text-anchor="middle" x="278" y="-63.5" font-family="Helvetica,sans-Serif" font-size="10.00">mesh.h</text>
</a>
</g>
</g>
<!-- Node1&#45;&gt;Node4 -->
<g id="edge21" class="edge">
<title>Node1&#45;&gt;Node4</title>
<path fill="none" stroke="midnightblue" d="M601.44,-175.5C519.62,-172.21 362.71,-162.08 317,-132 300.55,-121.17 290,-100.79 284.08,-85.72"/>
<polygon fill="midnightblue" stroke="midnightblue" points="287.23,-84.14 280.57,-75.9 280.64,-86.5 287.23,-84.14"/>
</g>
<!-- Node7 -->
<g id="node7" class="node">
<title>Node7</title>
<g id="a_node7"><a xlink:title=" ">
<polygon fill="white" stroke="#bfbfbf" points="74.5,-0.5 74.5,-19.5 109.5,-19.5 109.5,-0.5 74.5,-0.5"/>
<text text-anchor="middle" x="92" y="-7.5" font-family="Helvetica,sans-Serif" font-size="10.00">map</text>
</a>
</g>
</g>
<!-- Node1&#45;&gt;Node7 -->
<g id="edge28" class="edge">
<title>Node1&#45;&gt;Node7</title>
<path fill="none" stroke="midnightblue" d="M601.46,-177.08C530.93,-175.76 399.85,-168.08 295,-132 221.28,-106.63 145.16,-52.26 110.81,-25.91"/>
<polygon fill="midnightblue" stroke="midnightblue" points="112.68,-22.93 102.64,-19.56 108.39,-28.46 112.68,-22.93"/>
</g>
<!-- Node12 -->
<g id="node12" class="node">
<title>Node12</title>
<g id="a_node12"><a xlink:title=" ">
<polygon fill="white" stroke="#bfbfbf" points="556.5,-0.5 556.5,-19.5 605.5,-19.5 605.5,-0.5 556.5,-0.5"/>
<text text-anchor="middle" x="581" y="-7.5" font-family="Helvetica,sans-Serif" font-size="10.00">cassert</text>
</a>
</g>
</g>
<!-- Node1&#45;&gt;Node12 -->
<g id="edge34" class="edge">
<title>Node1&#45;&gt;Node12</title>
<path fill="none" stroke="midnightblue" d="M601.34,-172.39C536.69,-165.79 429.12,-152.16 395,-132 367.51,-115.76 360.6,-106.12 350,-76 347.05,-67.62 344.31,-62.83 350,-56 376.83,-23.82 489.24,-28.92 546.21,-19.71"/>
<polygon fill="midnightblue" stroke="midnightblue" points="547,-23.12 556.17,-17.81 545.69,-16.25 547,-23.12"/>
</g>
<!-- Node14 -->
<g id="node14" class="node">
<title>Node14</title>
<g id="a_node14"><a xlink:title=" ">
<polygon fill="white" stroke="#bfbfbf" points="359,-56.5 359,-75.5 397,-75.5 397,-56.5 359,-56.5"/>
<text text-anchor="middle" x="378" y="-63.5" font-family="Helvetica,sans-Serif" font-size="10.00">apf.h</text>
</a>
</g>
</g>
<!-- Node1&#45;&gt;Node14 -->
<g id="edge26" class="edge">
<title>Node1&#45;&gt;Node14</title>
<path fill="none" stroke="midnightblue" d="M601.37,-172.17C541.47,-165.62 446.16,-152.37 417,-132 400.85,-120.72 390.26,-100.41 384.24,-85.49"/>
<polygon fill="midnightblue" stroke="midnightblue" points="387.4,-83.95 380.65,-75.78 380.83,-86.37 387.4,-83.95"/>
</g>
<!-- Node15 -->
<g id="node15" class="node">
<title>Node15</title>
<g id="a_node15"><a xlink:title=" ">
<polygon fill="white" stroke="#bfbfbf" points="415,-56.5 415,-75.5 483,-75.5 483,-56.5 415,-56.5"/>
<text text-anchor="middle" x="449" y="-63.5" font-family="Helvetica,sans-Serif" font-size="10.00">apfMesh2.h</text>
</a>
</g>
</g>
<!-- Node1&#45;&gt;Node15 -->
<g id="edge25" class="edge">
<title>Node1&#45;&gt;Node15</title>
<path fill="none" stroke="midnightblue" d="M601.5,-174.2C541.79,-169.7 447.76,-158.52 426,-132 414.56,-118.05 424.56,-98 434.72,-83.86"/>
<polygon fill="midnightblue" stroke="midnightblue" points="437.51,-85.98 440.88,-75.93 431.98,-81.68 437.51,-85.98"/>
</g>
<!-- Node16 -->
<g id="node16" class="node">
<title>Node16</title>
<g id="a_node16"><a xlink:title=" ">
<polygon fill="white" stroke="#bfbfbf" points="707,-56.5 707,-75.5 793,-75.5 793,-56.5 707,-56.5"/>
<text text-anchor="middle" x="750" y="-63.5" font-family="Helvetica,sans-Serif" font-size="10.00">apfNumbering.h</text>
</a>
</g>
</g>
<!-- Node1&#45;&gt;Node16 -->
<g id="edge27" class="edge">
<title>Node1&#45;&gt;Node16</title>
<path fill="none" stroke="midnightblue" d="M630.39,-168.46C604.16,-156.84 565.48,-134.86 583,-112 590.19,-102.62 651.7,-87.75 698,-77.7"/>
<polygon fill="midnightblue" stroke="midnightblue" points="698.88,-81.09 707.92,-75.57 697.41,-74.25 698.88,-81.09"/>
</g>
<!-- Node20 -->
<g id="node20" class="node">
<title>Node20</title>
<g id="a_node20"><a xlink:title=" ">
<polygon fill="white" stroke="#bfbfbf" points="591.5,-112.5 591.5,-131.5 638.5,-131.5 638.5,-112.5 591.5,-112.5"/>
<text text-anchor="middle" x="615" y="-119.5" font-family="Helvetica,sans-Serif" font-size="10.00">PCU.h</text>
</a>
</g>
</g>
<!-- Node1&#45;&gt;Node20 -->
<g id="edge20" class="edge">
<title>Node1&#45;&gt;Node20</title>
<path fill="none" stroke="midnightblue" d="M645.89,-168.08C640.72,-160.53 633.15,-149.49 626.81,-140.23"/>
<polygon fill="midnightblue" stroke="midnightblue" points="629.54,-138.02 621,-131.75 623.76,-141.98 629.54,-138.02"/>
</g>
<!-- Node21 -->
<g id="node21" class="node">
<title>Node21</title>
<g id="a_node21"><a xlink:title=" ">
<polygon fill="white" stroke="#bfbfbf" points="657,-112.5 657,-131.5 723,-131.5 723,-112.5 657,-112.5"/>
<text text-anchor="middle" x="690" y="-119.5" font-family="Helvetica,sans-Serif" font-size="10.00">apfShape.h</text>
</a>
</g>
</g>
<!-- Node1&#45;&gt;Node21 -->
<g id="edge22" class="edge">
<title>Node1&#45;&gt;Node21</title>
<path fill="none" stroke="midnightblue" d="M658.27,-168.08C663.64,-160.46 671.52,-149.26 678.08,-139.94"/>
<polygon fill="midnightblue" stroke="midnightblue" points="680.95,-141.94 683.84,-131.75 675.22,-137.91 680.95,-141.94"/>
</g>
<!-- Node22 -->
<g id="node22" class="node">
<title>Node22</title>
<g id="a_node22"><a xlink:title=" ">
<polygon fill="white" stroke="#bfbfbf" points="741,-112.5 741,-131.5 793,-131.5 793,-112.5 741,-112.5"/>
<text text-anchor="middle" x="767" y="-119.5" font-family="Helvetica,sans-Serif" font-size="10.00">sstream</text>
</a>
</g>
</g>
<!-- Node1&#45;&gt;Node22 -->
<g id="edge23" class="edge">
<title>Node1&#45;&gt;Node22</title>
<path fill="none" stroke="midnightblue" d="M670.22,-168.44C688.9,-159.68 718.16,-145.94 739.62,-135.86"/>
<polygon fill="midnightblue" stroke="midnightblue" points="741.3,-138.93 748.86,-131.52 738.32,-132.6 741.3,-138.93"/>
</g>
<!-- Node23 -->
<g id="node23" class="node">
<title>Node23</title>
<g id="a_node23"><a xlink:title=" ">
<polygon fill="white" stroke="#bfbfbf" points="811.5,-112.5 811.5,-131.5 884.5,-131.5 884.5,-112.5 811.5,-112.5"/>
<text text-anchor="middle" x="848" y="-119.5" font-family="Helvetica,sans-Serif" font-size="10.00">apfConvert.h</text>
</a>
</g>
</g>
<!-- Node1&#45;&gt;Node23 -->
<g id="edge24" class="edge">
<title>Node1&#45;&gt;Node23</title>
<path fill="none" stroke="midnightblue" d="M683.06,-168.44C716.6,-159.2 770.2,-144.44 807.14,-134.26"/>
<polygon fill="midnightblue" stroke="midnightblue" points="808.38,-137.55 817.09,-131.52 806.52,-130.8 808.38,-137.55"/>
</g>
<!-- Node24 -->
<g id="node24" class="node">
<title>Node24</title>
<g id="a_node24"><a xlink:title=" ">
<polygon fill="white" stroke="#bfbfbf" points="902.5,-112.5 902.5,-131.5 963.5,-131.5 963.5,-112.5 902.5,-112.5"/>
<text text-anchor="middle" x="933" y="-119.5" font-family="Helvetica,sans-Serif" font-size="10.00">gmi_null.h</text>
</a>
</g>
</g>
<!-- Node1&#45;&gt;Node24 -->
<g id="edge29" class="edge">
<title>Node1&#45;&gt;Node24</title>
<path fill="none" stroke="midnightblue" d="M701.25,-168.48C748.04,-160.24 820.6,-147.1 892.27,-132.3"/>
<polygon fill="midnightblue" stroke="midnightblue" points="893.29,-135.66 902.37,-130.2 891.87,-128.81 893.29,-135.66"/>
</g>
<!-- Node25 -->
<g id="node25" class="node">
<title>Node25</title>
<g id="a_node25"><a xlink:title=" ">
<polygon fill="white" stroke="#bfbfbf" points="982,-112.5 982,-131.5 1052,-131.5 1052,-112.5 982,-112.5"/>
<text text-anchor="middle" x="1017" y="-119.5" font-family="Helvetica,sans-Serif" font-size="10.00">gmi_mesh.h</text>
</a>
</g>
</g>
<!-- Node1&#45;&gt;Node25 -->
<g id="edge30" class="edge">
<title>Node1&#45;&gt;Node25</title>
<path fill="none" stroke="midnightblue" d="M702.75,-170.88C764.11,-163.26 870.74,-149.31 971.89,-132.1"/>
<polygon fill="midnightblue" stroke="midnightblue" points="972.71,-135.51 981.97,-130.37 971.52,-128.61 972.71,-135.51"/>
</g>
<!-- Node26 -->
<g id="node26" class="node">
<title>Node26</title>
<g id="a_node26"><a xlink:title=" ">
<polygon fill="white" stroke="#bfbfbf" points="1070.5,-112.5 1070.5,-131.5 1111.5,-131.5 1111.5,-112.5 1070.5,-112.5"/>
<text text-anchor="middle" x="1091" y="-119.5" font-family="Helvetica,sans-Serif" font-size="10.00">gmi.h</text>
</a>
</g>
</g>
<!-- Node1&#45;&gt;Node26 -->
<g id="edge31" class="edge">
<title>Node1&#45;&gt;Node26</title>
<path fill="none" stroke="midnightblue" d="M702.51,-174.4C778.3,-169.86 925.98,-158.5 1060.4,-131.73"/>
<polygon fill="midnightblue" stroke="midnightblue" points="1061.36,-135.11 1070.47,-129.7 1059.97,-128.25 1061.36,-135.11"/>
</g>
<!-- Node27 -->
<g id="node27" class="node">
<title>Node27</title>
<g id="a_node27"><a xlink:title=" ">
<polygon fill="white" stroke="#bfbfbf" points="1129.5,-112.5 1129.5,-131.5 1190.5,-131.5 1190.5,-112.5 1129.5,-112.5"/>
<text text-anchor="middle" x="1160" y="-119.5" font-family="Helvetica,sans-Serif" font-size="10.00">apfMDS.h</text>
</a>
</g>
</g>
<!-- Node1&#45;&gt;Node27 -->
<g id="edge32" class="edge">
<title>Node1&#45;&gt;Node27</title>
<path fill="none" stroke="midnightblue" d="M702.6,-174.33C787.03,-169.39 962.09,-157.13 1119.1,-132.12"/>
<polygon fill="midnightblue" stroke="midnightblue" points="1120.1,-135.51 1129.42,-130.46 1118.99,-128.6 1120.1,-135.51"/>
</g>
<!-- Node28 -->
<g id="node28" class="node">
<title>Node28</title>
<g id="a_node28"><a xlink:title=" ">
<polygon fill="white" stroke="#bfbfbf" points="1209,-112.5 1209,-131.5 1247,-131.5 1247,-112.5 1209,-112.5"/>
<text text-anchor="middle" x="1228" y="-119.5" font-family="Helvetica,sans-Serif" font-size="10.00">ma.h</text>
</a>
</g>
</g>
<!-- Node1&#45;&gt;Node28 -->
<g id="edge33" class="edge">
<title>Node1&#45;&gt;Node28</title>
<path fill="none" stroke="midnightblue" d="M702.78,-176.69C798.45,-175.28 1011.87,-168.17 1198.86,-131.77"/>
<polygon fill="midnightblue" stroke="midnightblue" points="1199.74,-135.16 1208.87,-129.79 1198.38,-128.3 1199.74,-135.16"/>
</g>
<!-- Node29 -->
<g id="node29" class="node">
<title>Node29</title>
<g id="a_node29"><a xlink:title=" ">
<polygon fill="white" stroke="#bfbfbf" points="1265,-112.5 1265,-131.5 1339,-131.5 1339,-112.5 1265,-112.5"/>
<text text-anchor="middle" x="1302" y="-119.5" font-family="Helvetica,sans-Serif" font-size="10.00">gmi_lookup.h</text>
</a>
</g>
</g>
<!-- Node1&#45;&gt;Node29 -->
<g id="edge35" class="edge">
<title>Node1&#45;&gt;Node29</title>
<path fill="none" stroke="midnightblue" d="M702.72,-175.26C805.2,-171.3 1044.38,-159.82 1254.9,-131.99"/>
<polygon fill="midnightblue" stroke="midnightblue" points="1255.46,-135.45 1264.91,-130.65 1254.53,-128.51 1255.46,-135.45"/>
</g>
<!-- Node3&#45;&gt;Node4 -->
<g id="edge3" class="edge">
<title>Node3&#45;&gt;Node4</title>
<path fill="none" stroke="midnightblue" d="M452.2,-112.44C414,-102.48 351.2,-86.09 312.35,-75.96"/>
<polygon fill="midnightblue" stroke="midnightblue" points="313.1,-72.54 302.54,-73.4 311.34,-79.31 313.1,-72.54"/>
</g>
<!-- Node3&#45;&gt;Node14 -->
<g id="edge14" class="edge">
<title>Node3&#45;&gt;Node14</title>
<path fill="none" stroke="midnightblue" d="M467.81,-112.32C450.65,-103.66 424.05,-90.24 404.25,-80.25"/>
<polygon fill="midnightblue" stroke="midnightblue" points="405.65,-77.04 395.15,-75.65 402.5,-83.28 405.65,-77.04"/>
</g>
<!-- Node3&#45;&gt;Node15 -->
<g id="edge15" class="edge">
<title>Node3&#45;&gt;Node15</title>
<path fill="none" stroke="midnightblue" d="M479.06,-112.08C474.02,-104.53 466.66,-93.49 460.49,-84.23"/>
<polygon fill="midnightblue" stroke="midnightblue" points="463.29,-82.13 454.83,-75.75 457.47,-86.01 463.29,-82.13"/>
</g>
<!-- Node3&#45;&gt;Node16 -->
<g id="edge16" class="edge">
<title>Node3&#45;&gt;Node16</title>
<path fill="none" stroke="midnightblue" d="M526.99,-112.44C573.41,-102.98 648.23,-87.74 698.24,-77.55"/>
<polygon fill="midnightblue" stroke="midnightblue" points="699.11,-80.94 708.21,-75.52 697.71,-74.08 699.11,-80.94"/>
</g>
<!-- Node17 -->
<g id="node17" class="node">
<title>Node17</title>
<g id="a_node17"><a xlink:title=" ">
<polygon fill="white" stroke="#bfbfbf" points="501.5,-56.5 501.5,-75.5 544.5,-75.5 544.5,-56.5 501.5,-56.5"/>
<text text-anchor="middle" x="523" y="-63.5" font-family="Helvetica,sans-Serif" font-size="10.00">queue</text>
</a>
</g>
</g>
<!-- Node3&#45;&gt;Node17 -->
<g id="edge17" class="edge">
<title>Node3&#45;&gt;Node17</title>
<path fill="none" stroke="midnightblue" d="M491.27,-112.08C496.64,-104.46 504.52,-93.26 511.08,-83.94"/>
<polygon fill="midnightblue" stroke="midnightblue" points="513.95,-85.94 516.84,-75.75 508.22,-81.91 513.95,-85.94"/>
</g>
<!-- Node18 -->
<g id="node18" class="node">
<title>Node18</title>
<g id="a_node18"><a xlink:href="_py_embedded_functions_8h.html" target="_top" xlink:title=" ">
<polygon fill="white" stroke="black" points="563,-56.5 563,-75.5 689,-75.5 689,-56.5 563,-56.5"/>
<text text-anchor="middle" x="626" y="-63.5" font-family="Helvetica,sans-Serif" font-size="10.00">PyEmbeddedFunctions.h</text>
</a>
</g>
</g>
<!-- Node3&#45;&gt;Node18 -->
<g id="edge18" class="edge">
<title>Node3&#45;&gt;Node18</title>
<path fill="none" stroke="midnightblue" d="M507.34,-112.44C530.75,-103.48 567.74,-89.31 594.19,-79.18"/>
<polygon fill="midnightblue" stroke="midnightblue" points="595.68,-82.36 603.76,-75.52 593.17,-75.82 595.68,-82.36"/>
</g>
<!-- Node4&#45;&gt;Node2 -->
<g id="edge6" class="edge">
<title>Node4&#45;&gt;Node2</title>
<path fill="none" stroke="midnightblue" d="M253.35,-60.05C215.33,-52.35 139.85,-36.86 66.17,-20.22"/>
<polygon fill="midnightblue" stroke="midnightblue" points="66.79,-16.77 56.26,-17.97 65.24,-23.59 66.79,-16.77"/>
</g>
<!-- Node5 -->
<g id="node5" class="node">
<title>Node5</title>
<g id="a_node5"><a xlink:title=" ">
<polygon fill="white" stroke="#bfbfbf" points="128,-0.5 128,-19.5 158,-19.5 158,-0.5 128,-0.5"/>
<text text-anchor="middle" x="143" y="-7.5" font-family="Helvetica,sans-Serif" font-size="10.00">set</text>
</a>
</g>
</g>
<!-- Node4&#45;&gt;Node5 -->
<g id="edge4" class="edge">
<title>Node4&#45;&gt;Node5</title>
<path fill="none" stroke="midnightblue" d="M256.61,-56.44C232.32,-46.73 192.79,-30.91 167.34,-20.74"/>
<polygon fill="midnightblue" stroke="midnightblue" points="168.61,-17.47 158.02,-17.01 166.01,-23.97 168.61,-17.47"/>
</g>
<!-- Node6 -->
<g id="node6" class="node">
<title>Node6</title>
<g id="a_node6"><a xlink:title=" ">
<polygon fill="white" stroke="#bfbfbf" points="176,-0.5 176,-19.5 220,-19.5 220,-0.5 176,-0.5"/>
<text text-anchor="middle" x="198" y="-7.5" font-family="Helvetica,sans-Serif" font-size="10.00">vector</text>
</a>
</g>
</g>
<!-- Node4&#45;&gt;Node6 -->
<g id="edge5" class="edge">
<title>Node4&#45;&gt;Node6</title>
<path fill="none" stroke="midnightblue" d="M265.15,-56.32C252.78,-47.98 233.87,-35.21 219.26,-25.35"/>
<polygon fill="midnightblue" stroke="midnightblue" points="221.07,-22.35 210.82,-19.65 217.15,-28.15 221.07,-22.35"/>
</g>
<!-- Node4&#45;&gt;Node7 -->
<g id="edge7" class="edge">
<title>Node4&#45;&gt;Node7</title>
<path fill="none" stroke="midnightblue" d="M253.38,-58.41C223.82,-50.41 172.53,-36.29 119.29,-19.98"/>
<polygon fill="midnightblue" stroke="midnightblue" points="120.27,-16.62 109.68,-17.02 118.21,-23.31 120.27,-16.62"/>
</g>
<!-- Node8 -->
<g id="node8" class="node">
<title>Node8</title>
<g id="a_node8"><a xlink:title=" ">
<polygon fill="white" stroke="#bfbfbf" points="238.5,-0.5 238.5,-19.5 267.5,-19.5 267.5,-0.5 238.5,-0.5"/>
<text text-anchor="middle" x="253" y="-7.5" font-family="Helvetica,sans-Serif" font-size="10.00">list</text>
</a>
</g>
</g>
<!-- Node4&#45;&gt;Node8 -->
<g id="edge8" class="edge">
<title>Node4&#45;&gt;Node8</title>
<path fill="none" stroke="midnightblue" d="M273.87,-56.08C270.49,-48.77 265.58,-38.18 261.38,-29.1"/>
<polygon fill="midnightblue" stroke="midnightblue" points="264.43,-27.36 257.05,-19.75 258.08,-30.3 264.43,-27.36"/>
</g>
<!-- Node9 -->
<g id="node9" class="node">
<title>Node9</title>
<g id="a_node9"><a xlink:title=" ">
<polygon fill="white" stroke="#bfbfbf" points="286,-0.5 286,-19.5 340,-19.5 340,-0.5 286,-0.5"/>
<text text-anchor="middle" x="313" y="-7.5" font-family="Helvetica,sans-Serif" font-size="10.00">iostream</text>
</a>
</g>
</g>
<!-- Node4&#45;&gt;Node9 -->
<g id="edge9" class="edge">
<title>Node4&#45;&gt;Node9</title>
<path fill="none" stroke="midnightblue" d="M283.78,-56.08C288.67,-48.53 295.83,-37.49 301.83,-28.23"/>
<polygon fill="midnightblue" stroke="midnightblue" points="304.83,-30.05 307.33,-19.75 298.95,-26.24 304.83,-30.05"/>
</g>
<!-- Node10 -->
<g id="node10" class="node">
<title>Node10</title>
<g id="a_node10"><a xlink:title=" ">
<polygon fill="white" stroke="#bfbfbf" points="358,-0.5 358,-19.5 408,-19.5 408,-0.5 358,-0.5"/>
<text text-anchor="middle" x="383" y="-7.5" font-family="Helvetica,sans-Serif" font-size="10.00">iomanip</text>
</a>
</g>
</g>
<!-- Node4&#45;&gt;Node10 -->
<g id="edge10" class="edge">
<title>Node4&#45;&gt;Node10</title>
<path fill="none" stroke="midnightblue" d="M294.87,-56.32C311.71,-47.66 337.81,-34.24 357.24,-24.25"/>
<polygon fill="midnightblue" stroke="midnightblue" points="358.88,-27.34 366.17,-19.65 355.68,-21.12 358.88,-27.34"/>
</g>
<!-- Node11 -->
<g id="node11" class="node">
<title>Node11</title>
<g id="a_node11"><a xlink:title=" ">
<polygon fill="white" stroke="#bfbfbf" points="426,-0.5 426,-19.5 476,-19.5 476,-0.5 426,-0.5"/>
<text text-anchor="middle" x="451" y="-7.5" font-family="Helvetica,sans-Serif" font-size="10.00">fstream</text>
</a>
</g>
</g>
<!-- Node4&#45;&gt;Node11 -->
<g id="edge11" class="edge">
<title>Node4&#45;&gt;Node11</title>
<path fill="none" stroke="midnightblue" d="M302.79,-57.26C332.51,-47.99 382.51,-32.38 416.11,-21.89"/>
<polygon fill="midnightblue" stroke="midnightblue" points="417.48,-25.13 425.98,-18.81 415.39,-18.45 417.48,-25.13"/>
</g>
<!-- Node4&#45;&gt;Node12 -->
<g id="edge12" class="edge">
<title>Node4&#45;&gt;Node12</title>
<path fill="none" stroke="midnightblue" d="M302.7,-59.02C307.43,-57.95 312.36,-56.9 317,-56 415.51,-36.95 444.03,-40.99 546.38,-19.93"/>
<polygon fill="midnightblue" stroke="midnightblue" points="547.11,-23.35 556.19,-17.89 545.68,-16.5 547.11,-23.35"/>
</g>
<!-- Node13 -->
<g id="node13" class="node">
<title>Node13</title>
<g id="a_node13"><a xlink:title=" ">
<polygon fill="white" stroke="#bfbfbf" points="494,-0.5 494,-19.5 538,-19.5 538,-0.5 494,-0.5"/>
<text text-anchor="middle" x="516" y="-7.5" font-family="Helvetica,sans-Serif" font-size="10.00">cmath</text>
</a>
</g>
</g>
<!-- Node4&#45;&gt;Node13 -->
<g id="edge13" class="edge">
<title>Node4&#45;&gt;Node13</title>
<path fill="none" stroke="midnightblue" d="M302.74,-59.23C307.47,-58.14 312.39,-57.03 317,-56 388.48,-40.09 409.27,-38.75 483.83,-20.16"/>
<polygon fill="midnightblue" stroke="midnightblue" points="484.86,-23.51 493.7,-17.68 483.15,-16.72 484.86,-23.51"/>
</g>
<!-- Node19 -->
<g id="node19" class="node">
<title>Node19</title>
<g id="a_node19"><a xlink:title=" ">
<polygon fill="white" stroke="#bfbfbf" points="624,-0.5 624,-19.5 680,-19.5 680,-0.5 624,-0.5"/>
<text text-anchor="middle" x="652" y="-7.5" font-family="Helvetica,sans-Serif" font-size="10.00">Python.h</text>
</a>
</g>
</g>
<!-- Node18&#45;&gt;Node19 -->
<g id="edge19" class="edge">
<title>Node18&#45;&gt;Node19</title>
<path fill="none" stroke="midnightblue" d="M630.29,-56.08C633.85,-48.69 639.02,-37.95 643.42,-28.81"/>
<polygon fill="midnightblue" stroke="midnightblue" points="646.6,-30.28 647.79,-19.75 640.29,-27.24 646.6,-30.28"/>
</g>
</g>
</svg>
