<?xml version="1.0" encoding="UTF-8" standalone="no"?>
<!DOCTYPE svg PUBLIC "-//W3C//DTD SVG 1.1//EN"
 "http://www.w3.org/Graphics/SVG/1.1/DTD/svg11.dtd">
<!-- Generated by graphviz version 2.40.1 (20161225.0304)
 -->
<!-- Title: MeshAdaptPUMI.h Pages: 1 -->
<svg width="974pt" height="84pt"
 viewBox="0.00 0.00 973.50 84.00" xmlns="http://www.w3.org/2000/svg" xmlns:xlink="http://www.w3.org/1999/xlink">
<g id="graph0" class="graph" transform="scale(1 1) rotate(0) translate(4 80)">
<title>MeshAdaptPUMI.h</title>
<polygon fill="#ffffff" stroke="transparent" points="-4,4 -4,-80 969.5,-80 969.5,4 -4,4"/>
<!-- Node18 -->
<g id="node1" class="node">
<title>Node18</title>
<polygon fill="#bfbfbf" stroke="#000000" points="495,-56.5 495,-75.5 595,-75.5 595,-56.5 495,-56.5"/>
<text text-anchor="middle" x="545" y="-63.5" font-family="Helvetica,sans-Serif" font-size="10.00" fill="#000000">MeshAdaptPUMI.h</text>
</g>
<!-- Node19 -->
<g id="node2" class="node">
<title>Node19</title>
<g id="a_node2"><a xlink:href="c_mesh_adapt_p_u_m_i_8cpp.html" target="_top" xlink:title="cMeshAdaptPUMI.cpp">
<polygon fill="#ffffff" stroke="#000000" points="0,-.5 0,-19.5 116,-19.5 116,-.5 0,-.5"/>
<text text-anchor="middle" x="58" y="-7.5" font-family="Helvetica,sans-Serif" font-size="10.00" fill="#000000">cMeshAdaptPUMI.cpp</text>
</a>
</g>
</g>
<!-- Node18&#45;&gt;Node19 -->
<g id="edge1" class="edge">
<title>Node18&#45;&gt;Node19</title>
<path fill="none" stroke="#191970" d="M484.7275,-60.1458C403.082,-52.0451 252.8407,-36.5347 125,-20 122.0841,-19.6229 119.0987,-19.224 116.0853,-18.8113"/>
<polygon fill="#191970" stroke="#191970" points="484.5239,-63.6427 494.8198,-61.144 485.2129,-56.6766 484.5239,-63.6427"/>
</g>
<!-- Node20 -->
<g id="node3" class="node">
<title>Node20</title>
<g id="a_node3"><a xlink:href="create_analytic_geometry_8cpp.html" target="_top" xlink:title="createAnalyticGeometry.cpp">
<polygon fill="#ffffff" stroke="#000000" points="134,-.5 134,-19.5 274,-19.5 274,-.5 134,-.5"/>
<text text-anchor="middle" x="204" y="-7.5" font-family="Helvetica,sans-Serif" font-size="10.00" fill="#000000">createAnalyticGeometry.cpp</text>
</a>
</g>
</g>
<!-- Node18&#45;&gt;Node20 -->
<g id="edge2" class="edge">
<title>Node18&#45;&gt;Node20</title>
<path fill="none" stroke="#191970" d="M484.5172,-56.0673C421.6271,-45.7394 323.8823,-29.6874 261.9486,-19.5165"/>
<polygon fill="#191970" stroke="#191970" points="484.2492,-59.5701 494.6843,-57.737 485.3837,-52.6627 484.2492,-59.5701"/>
</g>
<!-- Node21 -->
<g id="node4" class="node">
<title>Node21</title>
<g id="a_node4"><a xlink:href="_error_residual_method_8cpp.html" target="_top" xlink:title="ErrorResidualMethod.cpp">
<polygon fill="#ffffff" stroke="#000000" points="292.5,-.5 292.5,-19.5 419.5,-19.5 419.5,-.5 292.5,-.5"/>
<text text-anchor="middle" x="356" y="-7.5" font-family="Helvetica,sans-Serif" font-size="10.00" fill="#000000">ErrorResidualMethod.cpp</text>
</a>
</g>
</g>
<!-- Node18&#45;&gt;Node21 -->
<g id="edge3" class="edge">
<title>Node18&#45;&gt;Node21</title>
<path fill="none" stroke="#191970" d="M502.6643,-53.4561C467.9706,-43.1765 419.6166,-28.8494 388.0663,-19.5011"/>
<polygon fill="#191970" stroke="#191970" points="501.9274,-56.8881 512.5097,-56.3733 503.9161,-50.1765 501.9274,-56.8881"/>
</g>
<!-- Node22 -->
<g id="node5" class="node">
<title>Node22</title>
<g id="a_node5"><a xlink:href="_mesh_converter_8cpp.html" target="_top" xlink:title="MeshConverter.cpp">
<polygon fill="#ffffff" stroke="#000000" points="438,-.5 438,-19.5 540,-19.5 540,-.5 438,-.5"/>
<text text-anchor="middle" x="489" y="-7.5" font-family="Helvetica,sans-Serif" font-size="10.00" fill="#000000">MeshConverter.cpp</text>
</a>
</g>
</g>
<!-- Node18&#45;&gt;Node22 -->
<g id="edge4" class="edge">
<title>Node18&#45;&gt;Node22</title>
<path fill="none" stroke="#191970" d="M528.0751,-49.0751C518.4402,-39.4402 506.7196,-27.7196 498.6427,-19.6427"/>
<polygon fill="#191970" stroke="#191970" points="525.6996,-51.6493 535.2455,-56.2455 530.6493,-46.6996 525.6996,-51.6493"/>
</g>
<!-- Node23 -->
<g id="node6" class="node">
<title>Node23</title>
<g id="a_node6"><a xlink:href="_mesh_fields_8cpp.html" target="_top" xlink:title="MeshFields.cpp">
<polygon fill="#ffffff" stroke="#000000" points="558,-.5 558,-19.5 644,-19.5 644,-.5 558,-.5"/>
<text text-anchor="middle" x="601" y="-7.5" font-family="Helvetica,sans-Serif" font-size="10.00" fill="#000000">MeshFields.cpp</text>
</a>
</g>
</g>
<!-- Node18&#45;&gt;Node23 -->
<g id="edge5" class="edge">
<title>Node18&#45;&gt;Node23</title>
<path fill="none" stroke="#191970" d="M561.9249,-49.0751C571.5598,-39.4402 583.2804,-27.7196 591.3573,-19.6427"/>
<polygon fill="#191970" stroke="#191970" points="559.3507,-46.6996 554.7545,-56.2455 564.3004,-51.6493 559.3507,-46.6996"/>
</g>
<!-- Node24 -->
<g id="node7" class="node">
<title>Node24</title>
<g id="a_node7"><a xlink:href="_parallel_mesh_converter_8cpp.html" target="_top" xlink:title="ParallelMeshConverter.cpp">
<polygon fill="#ffffff" stroke="#000000" points="662,-.5 662,-19.5 796,-19.5 796,-.5 662,-.5"/>
<text text-anchor="middle" x="729" y="-7.5" font-family="Helvetica,sans-Serif" font-size="10.00" fill="#000000">ParallelMeshConverter.cpp</text>
</a>
</g>
</g>
<!-- Node18&#45;&gt;Node24 -->
<g id="edge6" class="edge">
<title>Node18&#45;&gt;Node24</title>
<path fill="none" stroke="#191970" d="M586.2157,-53.4561C619.9916,-43.1765 667.0663,-28.8494 697.782,-19.5011"/>
<polygon fill="#191970" stroke="#191970" points="585.1784,-50.1132 576.6307,-56.3733 587.2166,-56.8099 585.1784,-50.1132"/>
</g>
<!-- Node25 -->
<g id="node8" class="node">
<title>Node25</title>
<g id="a_node8"><a xlink:href="_size_field_8cpp.html" target="_top" xlink:title="SizeField.cpp">
<polygon fill="#ffffff" stroke="#000000" points="814,-.5 814,-19.5 890,-19.5 890,-.5 814,-.5"/>
<text text-anchor="middle" x="852" y="-7.5" font-family="Helvetica,sans-Serif" font-size="10.00" fill="#000000">SizeField.cpp</text>
</a>
</g>
</g>
<!-- Node18&#45;&gt;Node25 -->
<g id="edge7" class="edge">
<title>Node18&#45;&gt;Node25</title>
<path fill="none" stroke="#191970" d="M605.2944,-55.9395C658.0606,-46.9903 736.7339,-33.2972 805,-20 807.866,-19.4418 810.8268,-18.8492 813.803,-18.2422"/>
<polygon fill="#191970" stroke="#191970" points="604.7007,-52.4901 595.4247,-57.6093 605.8685,-59.392 604.7007,-52.4901"/>
</g>
<!-- Node26 -->
<g id="node9" class="node">
<title>Node26</title>
<g id="a_node9"><a xlink:href="_v_m_s_8cpp.html" target="_top" xlink:title="VMS.cpp">
<polygon fill="#ffffff" stroke="#000000" points="908.5,-.5 908.5,-19.5 965.5,-19.5 965.5,-.5 908.5,-.5"/>
<text text-anchor="middle" x="937" y="-7.5" font-family="Helvetica,sans-Serif" font-size="10.00" fill="#000000">VMS.cpp</text>
</a>
</g>
</g>
<!-- Node18&#45;&gt;Node26 -->
<g id="edge8" class="edge">
<title>Node18&#45;&gt;Node26</title>
<path fill="none" stroke="#191970" d="M605.2241,-60.5476C675.9714,-53.5957 796.6827,-40.025 899,-20 902.0796,-19.3973 905.2794,-18.6883 908.4568,-17.9307"/>
<polygon fill="#191970" stroke="#191970" points="604.7715,-57.075 595.1567,-61.5252 605.4482,-64.0422 604.7715,-57.075"/>
</g>
</g>
</svg>
