<?xml version="1.0" encoding="UTF-8" standalone="no"?>
<!DOCTYPE svg PUBLIC "-//W3C//DTD SVG 1.1//EN"
 "http://www.w3.org/Graphics/SVG/1.1/DTD/svg11.dtd">
<!-- Generated by graphviz version 2.44.1 (20200629.0846)
 -->
<!-- Title: MeshFields.cpp Pages: 1 -->
<svg width="769pt" height="196pt"
 viewBox="0.00 0.00 768.50 196.00" xmlns="http://www.w3.org/2000/svg" xmlns:xlink="http://www.w3.org/1999/xlink">
<g id="graph0" class="graph" transform="scale(1 1) rotate(0) translate(4 192)">
<title>MeshFields.cpp</title>
<polygon fill="white" stroke="transparent" points="-4,4 -4,-192 764.5,-192 764.5,4 -4,4"/>
<!-- Node1 -->
<g id="node1" class="node">
<title>Node1</title>
<g id="a_node1"><a xlink:title=" ">
<polygon fill="#bfbfbf" stroke="black" points="553,-168.5 553,-187.5 639,-187.5 639,-168.5 553,-168.5"/>
<text text-anchor="middle" x="596" y="-175.5" font-family="Helvetica,sans-Serif" font-size="10.00">MeshFields.cpp</text>
</a>
</g>
</g>
<!-- Node2 -->
<g id="node2" class="node">
<title>Node2</title>
<g id="a_node2"><a xlink:href="_mesh_adapt_p_u_m_i_8h.html" target="_top" xlink:title=" ">
<polygon fill="white" stroke="black" points="365,-112.5 365,-131.5 465,-131.5 465,-112.5 365,-112.5"/>
<text text-anchor="middle" x="415" y="-119.5" font-family="Helvetica,sans-Serif" font-size="10.00">MeshAdaptPUMI.h</text>
</a>
</g>
</g>
<!-- Node1&#45;&gt;Node2 -->
<g id="edge1" class="edge">
<title>Node1&#45;&gt;Node2</title>
<path fill="none" stroke="midnightblue" d="M567.32,-168.44C536.47,-159.24 487.27,-144.56 453.17,-134.39"/>
<polygon fill="midnightblue" stroke="midnightblue" points="454.13,-131.02 443.55,-131.52 452.13,-137.73 454.13,-131.02"/>
</g>
<!-- Node18 -->
<g id="node18" class="node">
<title>Node18</title>
<g id="a_node18"><a xlink:title=" ">
<polygon fill="white" stroke="#bfbfbf" points="483,-112.5 483,-131.5 545,-131.5 545,-112.5 483,-112.5"/>
<text text-anchor="middle" x="514" y="-119.5" font-family="Helvetica,sans-Serif" font-size="10.00">apfMesh.h</text>
</a>
</g>
</g>
<!-- Node1&#45;&gt;Node18 -->
<g id="edge17" class="edge">
<title>Node1&#45;&gt;Node18</title>
<path fill="none" stroke="midnightblue" d="M582.83,-168.32C570.15,-159.98 550.77,-147.21 535.79,-137.35"/>
<polygon fill="midnightblue" stroke="midnightblue" points="537.42,-134.23 527.14,-131.65 533.57,-140.08 537.42,-134.23"/>
</g>
<!-- Node19 -->
<g id="node19" class="node">
<title>Node19</title>
<g id="a_node19"><a xlink:title=" ">
<polygon fill="white" stroke="#bfbfbf" points="563,-112.5 563,-131.5 629,-131.5 629,-112.5 563,-112.5"/>
<text text-anchor="middle" x="596" y="-119.5" font-family="Helvetica,sans-Serif" font-size="10.00">apfShape.h</text>
</a>
</g>
</g>
<!-- Node1&#45;&gt;Node19 -->
<g id="edge18" class="edge">
<title>Node1&#45;&gt;Node19</title>
<path fill="none" stroke="midnightblue" d="M596,-168.08C596,-161.01 596,-150.86 596,-141.99"/>
<polygon fill="midnightblue" stroke="midnightblue" points="599.5,-141.75 596,-131.75 592.5,-141.75 599.5,-141.75"/>
</g>
<!-- Node20 -->
<g id="node20" class="node">
<title>Node20</title>
<g id="a_node20"><a xlink:title=" ">
<polygon fill="white" stroke="#bfbfbf" points="647,-112.5 647,-131.5 693,-131.5 693,-112.5 647,-112.5"/>
<text text-anchor="middle" x="670" y="-119.5" font-family="Helvetica,sans-Serif" font-size="10.00">stdio.h</text>
</a>
</g>
</g>
<!-- Node1&#45;&gt;Node20 -->
<g id="edge19" class="edge">
<title>Node1&#45;&gt;Node20</title>
<path fill="none" stroke="midnightblue" d="M607.89,-168.32C619.15,-160.11 636.29,-147.6 649.71,-137.81"/>
<polygon fill="midnightblue" stroke="midnightblue" points="651.88,-140.56 657.89,-131.83 647.75,-134.9 651.88,-140.56"/>
</g>
<!-- Node21 -->
<g id="node21" class="node">
<title>Node21</title>
<g id="a_node21"><a xlink:title=" ">
<polygon fill="white" stroke="#bfbfbf" points="711.5,-112.5 711.5,-131.5 760.5,-131.5 760.5,-112.5 711.5,-112.5"/>
<text text-anchor="middle" x="736" y="-119.5" font-family="Helvetica,sans-Serif" font-size="10.00">string.h</text>
</a>
</g>
</g>
<!-- Node1&#45;&gt;Node21 -->
<g id="edge20" class="edge">
<title>Node1&#45;&gt;Node21</title>
<path fill="none" stroke="midnightblue" d="M618.18,-168.44C641.43,-159.48 678.15,-145.31 704.42,-135.18"/>
<polygon fill="midnightblue" stroke="midnightblue" points="705.85,-138.38 713.92,-131.52 703.33,-131.85 705.85,-138.38"/>
</g>
<!-- Node3 -->
<g id="node3" class="node">
<title>Node3</title>
<g id="a_node3"><a xlink:href="mesh_8h.html" target="_top" xlink:title=" ">
<polygon fill="white" stroke="black" points="257.5,-56.5 257.5,-75.5 306.5,-75.5 306.5,-56.5 257.5,-56.5"/>
<text text-anchor="middle" x="282" y="-63.5" font-family="Helvetica,sans-Serif" font-size="10.00">mesh.h</text>
</a>
</g>
</g>
<!-- Node2&#45;&gt;Node3 -->
<g id="edge2" class="edge">
<title>Node2&#45;&gt;Node3</title>
<path fill="none" stroke="midnightblue" d="M393.93,-112.44C371.94,-103.52 337.27,-89.44 312.34,-79.32"/>
<polygon fill="midnightblue" stroke="midnightblue" points="313.56,-76.04 302.98,-75.52 310.92,-82.52 313.56,-76.04"/>
</g>
<!-- Node14 -->
<g id="node14" class="node">
<title>Node14</title>
<g id="a_node14"><a xlink:title=" ">
<polygon fill="white" stroke="#bfbfbf" points="325,-56.5 325,-75.5 363,-75.5 363,-56.5 325,-56.5"/>
<text text-anchor="middle" x="344" y="-63.5" font-family="Helvetica,sans-Serif" font-size="10.00">apf.h</text>
</a>
</g>
</g>
<!-- Node2&#45;&gt;Node14 -->
<g id="edge13" class="edge">
<title>Node2&#45;&gt;Node14</title>
<path fill="none" stroke="midnightblue" d="M403.59,-112.32C392.89,-104.18 376.66,-91.84 363.84,-82.09"/>
<polygon fill="midnightblue" stroke="midnightblue" points="365.69,-79.1 355.61,-75.83 361.46,-84.67 365.69,-79.1"/>
</g>
<!-- Node15 -->
<g id="node15" class="node">
<title>Node15</title>
<g id="a_node15"><a xlink:title=" ">
<polygon fill="white" stroke="#bfbfbf" points="381,-56.5 381,-75.5 449,-75.5 449,-56.5 381,-56.5"/>
<text text-anchor="middle" x="415" y="-63.5" font-family="Helvetica,sans-Serif" font-size="10.00">apfMesh2.h</text>
</a>
</g>
</g>
<!-- Node2&#45;&gt;Node15 -->
<g id="edge14" class="edge">
<title>Node2&#45;&gt;Node15</title>
<path fill="none" stroke="midnightblue" d="M415,-112.08C415,-105.01 415,-94.86 415,-85.99"/>
<polygon fill="midnightblue" stroke="midnightblue" points="418.5,-85.75 415,-75.75 411.5,-85.75 418.5,-85.75"/>
</g>
<!-- Node16 -->
<g id="node16" class="node">
<title>Node16</title>
<g id="a_node16"><a xlink:title=" ">
<polygon fill="white" stroke="#bfbfbf" points="467,-56.5 467,-75.5 553,-75.5 553,-56.5 467,-56.5"/>
<text text-anchor="middle" x="510" y="-63.5" font-family="Helvetica,sans-Serif" font-size="10.00">apfNumbering.h</text>
</a>
</g>
</g>
<!-- Node2&#45;&gt;Node16 -->
<g id="edge15" class="edge">
<title>Node2&#45;&gt;Node16</title>
<path fill="none" stroke="midnightblue" d="M430.26,-112.32C445.22,-103.82 468.25,-90.73 485.73,-80.8"/>
<polygon fill="midnightblue" stroke="midnightblue" points="487.81,-83.64 494.77,-75.65 484.35,-77.55 487.81,-83.64"/>
</g>
<!-- Node17 -->
<g id="node17" class="node">
<title>Node17</title>
<g id="a_node17"><a xlink:title=" ">
<polygon fill="white" stroke="#bfbfbf" points="571.5,-56.5 571.5,-75.5 614.5,-75.5 614.5,-56.5 571.5,-56.5"/>
<text text-anchor="middle" x="593" y="-63.5" font-family="Helvetica,sans-Serif" font-size="10.00">queue</text>
</a>
</g>
</g>
<!-- Node2&#45;&gt;Node17 -->
<g id="edge16" class="edge">
<title>Node2&#45;&gt;Node17</title>
<path fill="none" stroke="midnightblue" d="M443.2,-112.44C475.45,-102.66 528.1,-86.69 561.62,-76.52"/>
<polygon fill="midnightblue" stroke="midnightblue" points="562.81,-79.82 571.37,-73.56 560.78,-73.12 562.81,-79.82"/>
</g>
<!-- Node4 -->
<g id="node4" class="node">
<title>Node4</title>
<g id="a_node4"><a xlink:title=" ">
<polygon fill="white" stroke="#bfbfbf" points="0,-0.5 0,-19.5 30,-19.5 30,-0.5 0,-0.5"/>
<text text-anchor="middle" x="15" y="-7.5" font-family="Helvetica,sans-Serif" font-size="10.00">set</text>
</a>
</g>
</g>
<!-- Node3&#45;&gt;Node4 -->
<g id="edge3" class="edge">
<title>Node3&#45;&gt;Node4</title>
<path fill="none" stroke="midnightblue" d="M257.19,-61.87C214.5,-56.18 124.36,-42.8 39.85,-19.82"/>
<polygon fill="midnightblue" stroke="midnightblue" points="40.67,-16.42 30.1,-17.12 38.8,-23.17 40.67,-16.42"/>
</g>
<!-- Node5 -->
<g id="node5" class="node">
<title>Node5</title>
<g id="a_node5"><a xlink:title=" ">
<polygon fill="white" stroke="#bfbfbf" points="48,-0.5 48,-19.5 92,-19.5 92,-0.5 48,-0.5"/>
<text text-anchor="middle" x="70" y="-7.5" font-family="Helvetica,sans-Serif" font-size="10.00">vector</text>
</a>
</g>
</g>
<!-- Node3&#45;&gt;Node5 -->
<g id="edge4" class="edge">
<title>Node3&#45;&gt;Node5</title>
<path fill="none" stroke="midnightblue" d="M257.33,-59.19C224.19,-51.31 163.25,-36.59 102.13,-20.23"/>
<polygon fill="midnightblue" stroke="midnightblue" points="102.89,-16.81 92.32,-17.59 101.07,-23.57 102.89,-16.81"/>
</g>
<!-- Node6 -->
<g id="node6" class="node">
<title>Node6</title>
<g id="a_node6"><a xlink:title=" ">
<polygon fill="white" stroke="#bfbfbf" points="110,-0.5 110,-19.5 166,-19.5 166,-0.5 110,-0.5"/>
<text text-anchor="middle" x="138" y="-7.5" font-family="Helvetica,sans-Serif" font-size="10.00">algorithm</text>
</a>
</g>
</g>
<!-- Node3&#45;&gt;Node6 -->
<g id="edge5" class="edge">
<title>Node3&#45;&gt;Node6</title>
<path fill="none" stroke="midnightblue" d="M259.18,-56.44C235.17,-47.44 197.17,-33.19 170.13,-23.05"/>
<polygon fill="midnightblue" stroke="midnightblue" points="171.3,-19.75 160.71,-19.52 168.84,-26.3 171.3,-19.75"/>
</g>
<!-- Node7 -->
<g id="node7" class="node">
<title>Node7</title>
<g id="a_node7"><a xlink:title=" ">
<polygon fill="white" stroke="#bfbfbf" points="184.5,-0.5 184.5,-19.5 219.5,-19.5 219.5,-0.5 184.5,-0.5"/>
<text text-anchor="middle" x="202" y="-7.5" font-family="Helvetica,sans-Serif" font-size="10.00">map</text>
</a>
</g>
</g>
<!-- Node3&#45;&gt;Node7 -->
<g id="edge6" class="edge">
<title>Node3&#45;&gt;Node7</title>
<path fill="none" stroke="midnightblue" d="M269.15,-56.32C256.78,-47.98 237.87,-35.21 223.26,-25.35"/>
<polygon fill="midnightblue" stroke="midnightblue" points="225.07,-22.35 214.82,-19.65 221.15,-28.15 225.07,-22.35"/>
</g>
<!-- Node8 -->
<g id="node8" class="node">
<title>Node8</title>
<g id="a_node8"><a xlink:title=" ">
<polygon fill="white" stroke="#bfbfbf" points="237.5,-0.5 237.5,-19.5 266.5,-19.5 266.5,-0.5 237.5,-0.5"/>
<text text-anchor="middle" x="252" y="-7.5" font-family="Helvetica,sans-Serif" font-size="10.00">list</text>
</a>
</g>
</g>
<!-- Node3&#45;&gt;Node8 -->
<g id="edge7" class="edge">
<title>Node3&#45;&gt;Node8</title>
<path fill="none" stroke="midnightblue" d="M277.05,-56.08C272.9,-48.61 266.85,-37.72 261.73,-28.52"/>
<polygon fill="midnightblue" stroke="midnightblue" points="264.78,-26.79 256.86,-19.75 258.66,-30.19 264.78,-26.79"/>
</g>
<!-- Node9 -->
<g id="node9" class="node">
<title>Node9</title>
<g id="a_node9"><a xlink:title=" ">
<polygon fill="white" stroke="#bfbfbf" points="285,-0.5 285,-19.5 339,-19.5 339,-0.5 285,-0.5"/>
<text text-anchor="middle" x="312" y="-7.5" font-family="Helvetica,sans-Serif" font-size="10.00">iostream</text>
</a>
</g>
</g>
<!-- Node3&#45;&gt;Node9 -->
<g id="edge8" class="edge">
<title>Node3&#45;&gt;Node9</title>
<path fill="none" stroke="midnightblue" d="M286.95,-56.08C291.1,-48.61 297.15,-37.72 302.27,-28.52"/>
<polygon fill="midnightblue" stroke="midnightblue" points="305.34,-30.19 307.14,-19.75 299.22,-26.79 305.34,-30.19"/>
</g>
<!-- Node10 -->
<g id="node10" class="node">
<title>Node10</title>
<g id="a_node10"><a xlink:title=" ">
<polygon fill="white" stroke="#bfbfbf" points="357,-0.5 357,-19.5 407,-19.5 407,-0.5 357,-0.5"/>
<text text-anchor="middle" x="382" y="-7.5" font-family="Helvetica,sans-Serif" font-size="10.00">iomanip</text>
</a>
</g>
</g>
<!-- Node3&#45;&gt;Node10 -->
<g id="edge9" class="edge">
<title>Node3&#45;&gt;Node10</title>
<path fill="none" stroke="midnightblue" d="M298.07,-56.32C313.96,-47.74 338.51,-34.49 356.96,-24.52"/>
<polygon fill="midnightblue" stroke="midnightblue" points="358.84,-27.49 365.97,-19.65 355.51,-21.33 358.84,-27.49"/>
</g>
<!-- Node11 -->
<g id="node11" class="node">
<title>Node11</title>
<g id="a_node11"><a xlink:title=" ">
<polygon fill="white" stroke="#bfbfbf" points="425,-0.5 425,-19.5 475,-19.5 475,-0.5 425,-0.5"/>
<text text-anchor="middle" x="450" y="-7.5" font-family="Helvetica,sans-Serif" font-size="10.00">fstream</text>
</a>
</g>
</g>
<!-- Node3&#45;&gt;Node11 -->
<g id="edge10" class="edge">
<title>Node3&#45;&gt;Node11</title>
<path fill="none" stroke="midnightblue" d="M306.79,-57.03C335.37,-47.85 382.55,-32.68 414.9,-22.28"/>
<polygon fill="midnightblue" stroke="midnightblue" points="416.39,-25.48 424.83,-19.09 414.24,-18.82 416.39,-25.48"/>
</g>
<!-- Node12 -->
<g id="node12" class="node">
<title>Node12</title>
<g id="a_node12"><a xlink:title=" ">
<polygon fill="white" stroke="#bfbfbf" points="493.5,-0.5 493.5,-19.5 542.5,-19.5 542.5,-0.5 493.5,-0.5"/>
<text text-anchor="middle" x="518" y="-7.5" font-family="Helvetica,sans-Serif" font-size="10.00">cassert</text>
</a>
</g>
</g>
<!-- Node3&#45;&gt;Node12 -->
<g id="edge11" class="edge">
<title>Node3&#45;&gt;Node12</title>
<path fill="none" stroke="midnightblue" d="M306.85,-58.28C309.92,-57.49 313.03,-56.71 316,-56 387.22,-38.95 408.05,-37.84 483.2,-20.09"/>
<polygon fill="midnightblue" stroke="midnightblue" points="484.24,-23.45 493.15,-17.72 482.61,-16.64 484.24,-23.45"/>
</g>
<!-- Node13 -->
<g id="node13" class="node">
<title>Node13</title>
<g id="a_node13"><a xlink:title=" ">
<polygon fill="white" stroke="#bfbfbf" points="561,-0.5 561,-19.5 605,-19.5 605,-0.5 561,-0.5"/>
<text text-anchor="middle" x="583" y="-7.5" font-family="Helvetica,sans-Serif" font-size="10.00">cmath</text>
</a>
</g>
</g>
<!-- Node3&#45;&gt;Node13 -->
<g id="edge12" class="edge">
<title>Node3&#45;&gt;Node13</title>
<path fill="none" stroke="midnightblue" d="M306.81,-58.1C309.89,-57.34 313.01,-56.62 316,-56 416.73,-35.05 446.59,-42.36 550.76,-20.02"/>
<polygon fill="midnightblue" stroke="midnightblue" points="551.72,-23.4 560.74,-17.84 550.22,-16.56 551.72,-23.4"/>
</g>
</g>
</svg>
