<?xml version="1.0" encoding="UTF-8" standalone="no"?>
<!DOCTYPE svg PUBLIC "-//W3C//DTD SVG 1.1//EN"
 "http://www.w3.org/Graphics/SVG/1.1/DTD/svg11.dtd">
<!-- Generated by graphviz version 2.40.1 (20161225.0304)
 -->
<!-- Title: MeshConverter.cpp Pages: 1 -->
<svg width="1347pt" height="196pt"
 viewBox="0.00 0.00 1347.00 196.00" xmlns="http://www.w3.org/2000/svg" xmlns:xlink="http://www.w3.org/1999/xlink">
<g id="graph0" class="graph" transform="scale(1 1) rotate(0) translate(4 192)">
<title>MeshConverter.cpp</title>
<polygon fill="#ffffff" stroke="transparent" points="-4,4 -4,-192 1343,-192 1343,4 -4,4"/>
<!-- Node0 -->
<g id="node1" class="node">
<title>Node0</title>
<polygon fill="#bfbfbf" stroke="#000000" points="601,-168.5 601,-187.5 703,-187.5 703,-168.5 601,-168.5"/>
<text text-anchor="middle" x="652" y="-175.5" font-family="Helvetica,sans-Serif" font-size="10.00" fill="#000000">MeshConverter.cpp</text>
</g>
<!-- Node1 -->
<g id="node2" class="node">
<title>Node1</title>
<polygon fill="#ffffff" stroke="#bfbfbf" points="0,-.5 0,-19.5 56,-19.5 56,-.5 0,-.5"/>
<text text-anchor="middle" x="28" y="-7.5" font-family="Helvetica,sans-Serif" font-size="10.00" fill="#000000">algorithm</text>
</g>
<!-- Node0&#45;&gt;Node1 -->
<g id="edge1" class="edge">
<title>Node0&#45;&gt;Node1</title>
<path fill="none" stroke="#191970" d="M600.9539,-174.7708C506.9303,-168.4041 310.0466,-153.0054 245,-132 167.3257,-106.9167 86.1551,-52.4446 48.921,-25.5974"/>
<polygon fill="#191970" stroke="#191970" points="50.9796,-22.7668 40.8376,-19.7024 46.855,-28.4226 50.9796,-22.7668"/>
</g>
<!-- Node2 -->
<g id="node3" class="node">
<title>Node2</title>
<g id="a_node3"><a xlink:href="_mesh_adapt_p_u_m_i_8h.html" target="_top" xlink:title="MeshAdaptPUMI.h">
<polygon fill="#ffffff" stroke="#000000" points="435,-112.5 435,-131.5 535,-131.5 535,-112.5 435,-112.5"/>
<text text-anchor="middle" x="485" y="-119.5" font-family="Helvetica,sans-Serif" font-size="10.00" fill="#000000">MeshAdaptPUMI.h</text>
</a>
</g>
</g>
<!-- Node0&#45;&gt;Node2 -->
<g id="edge2" class="edge">
<title>Node0&#45;&gt;Node2</title>
<path fill="none" stroke="#191970" d="M623.2917,-168.3733C595.6423,-159.1016 553.6424,-145.0178 523.1834,-134.804"/>
<polygon fill="#191970" stroke="#191970" points="523.9276,-131.3621 513.3337,-131.5011 521.7021,-137.9989 523.9276,-131.3621"/>
</g>
<!-- Node3 -->
<g id="node4" class="node">
<title>Node3</title>
<g id="a_node4"><a xlink:href="mesh_8h.html" target="_top" xlink:title="mesh.h">
<polygon fill="#ffffff" stroke="#000000" points="253.5,-56.5 253.5,-75.5 302.5,-75.5 302.5,-56.5 253.5,-56.5"/>
<text text-anchor="middle" x="278" y="-63.5" font-family="Helvetica,sans-Serif" font-size="10.00" fill="#000000">mesh.h</text>
</a>
</g>
</g>
<!-- Node0&#45;&gt;Node3 -->
<g id="edge21" class="edge">
<title>Node0&#45;&gt;Node3</title>
<path fill="none" stroke="#191970" d="M600.7536,-176.3433C518.7072,-172.8144 362.4639,-162.2286 317,-132 300.4308,-120.9832 289.9134,-100.3252 284.0303,-85.0438"/>
<polygon fill="#191970" stroke="#191970" points="287.297,-83.7825 280.6803,-75.5078 280.6926,-86.1027 287.297,-83.7825"/>
</g>
<!-- Node6 -->
<g id="node7" class="node">
<title>Node6</title>
<polygon fill="#ffffff" stroke="#bfbfbf" points="74.5,-.5 74.5,-19.5 109.5,-19.5 109.5,-.5 74.5,-.5"/>
<text text-anchor="middle" x="92" y="-7.5" font-family="Helvetica,sans-Serif" font-size="10.00" fill="#000000">map</text>
</g>
<!-- Node0&#45;&gt;Node6 -->
<g id="edge28" class="edge">
<title>Node0&#45;&gt;Node6</title>
<path fill="none" stroke="#191970" d="M600.8832,-174.015C516.1231,-166.9736 350.3359,-151.2415 295,-132 221.9621,-106.6031 146.6822,-52.6811 111.8704,-25.85"/>
<polygon fill="#191970" stroke="#191970" points="113.9552,-23.0374 103.9178,-19.6461 109.6496,-28.5566 113.9552,-23.0374"/>
</g>
<!-- Node11 -->
<g id="node12" class="node">
<title>Node11</title>
<polygon fill="#ffffff" stroke="#bfbfbf" points="556.5,-.5 556.5,-19.5 605.5,-19.5 605.5,-.5 556.5,-.5"/>
<text text-anchor="middle" x="581" y="-7.5" font-family="Helvetica,sans-Serif" font-size="10.00" fill="#000000">cassert</text>
</g>
<!-- Node0&#45;&gt;Node11 -->
<g id="edge34" class="edge">
<title>Node0&#45;&gt;Node11</title>
<path fill="none" stroke="#191970" d="M600.7837,-173.1178C536.0669,-166.2222 429.0118,-152.1801 395,-132 367.5406,-115.7077 360.6014,-106.1175 350,-76 347.0486,-67.6154 344.3075,-62.827 350,-56 376.8298,-23.8229 489.3636,-29.4464 546.2561,-19.6447"/>
<polygon fill="#191970" stroke="#191970" points="547.0967,-23.0455 556.1984,-17.6224 545.7014,-16.1859 547.0967,-23.0455"/>
</g>
<!-- Node13 -->
<g id="node14" class="node">
<title>Node13</title>
<polygon fill="#ffffff" stroke="#bfbfbf" points="359,-56.5 359,-75.5 397,-75.5 397,-56.5 359,-56.5"/>
<text text-anchor="middle" x="378" y="-63.5" font-family="Helvetica,sans-Serif" font-size="10.00" fill="#000000">apf.h</text>
</g>
<!-- Node0&#45;&gt;Node13 -->
<g id="edge26" class="edge">
<title>Node0&#45;&gt;Node13</title>
<path fill="none" stroke="#191970" d="M600.8191,-172.9086C540.8514,-166.1068 445.9856,-152.4835 417,-132 400.9272,-120.6417 390.41,-100.3835 384.393,-85.2971"/>
<polygon fill="#191970" stroke="#191970" points="387.6593,-84.038 380.9335,-75.8518 381.0864,-86.4456 387.6593,-84.038"/>
</g>
<!-- Node14 -->
<g id="node15" class="node">
<title>Node14</title>
<polygon fill="#ffffff" stroke="#bfbfbf" points="415,-56.5 415,-75.5 483,-75.5 483,-56.5 415,-56.5"/>
<text text-anchor="middle" x="449" y="-63.5" font-family="Helvetica,sans-Serif" font-size="10.00" fill="#000000">apfMesh2.h</text>
</g>
<!-- Node0&#45;&gt;Node14 -->
<g id="edge25" class="edge">
<title>Node0&#45;&gt;Node14</title>
<path fill="none" stroke="#191970" d="M600.9629,-174.9223C541.2204,-170.13 447.6594,-158.512 426,-132 414.5565,-117.9927 424.2376,-97.9207 434.3224,-83.5957"/>
<polygon fill="#191970" stroke="#191970" points="437.1947,-85.601 440.4686,-75.5246 431.6256,-81.36 437.1947,-85.601"/>
</g>
<!-- Node15 -->
<g id="node16" class="node">
<title>Node15</title>
<polygon fill="#ffffff" stroke="#bfbfbf" points="707,-56.5 707,-75.5 793,-75.5 793,-56.5 707,-56.5"/>
<text text-anchor="middle" x="750" y="-63.5" font-family="Helvetica,sans-Serif" font-size="10.00" fill="#000000">apfNumbering.h</text>
</g>
<!-- Node0&#45;&gt;Node15 -->
<g id="edge27" class="edge">
<title>Node0&#45;&gt;Node15</title>
<path fill="none" stroke="#191970" d="M628.5496,-168.4611C602.3796,-156.4219 565.8224,-134.5489 583,-112 590.1095,-102.6674 650.6046,-87.6201 696.7591,-77.2928"/>
<polygon fill="#191970" stroke="#191970" points="697.6539,-80.6795 706.6605,-75.0999 696.1402,-73.8452 697.6539,-80.6795"/>
</g>
<!-- Node19 -->
<g id="node20" class="node">
<title>Node19</title>
<polygon fill="#ffffff" stroke="#bfbfbf" points="591.5,-112.5 591.5,-131.5 638.5,-131.5 638.5,-112.5 591.5,-112.5"/>
<text text-anchor="middle" x="615" y="-119.5" font-family="Helvetica,sans-Serif" font-size="10.00" fill="#000000">PCU.h</text>
</g>
<!-- Node0&#45;&gt;Node19 -->
<g id="edge20" class="edge">
<title>Node0&#45;&gt;Node19</title>
<path fill="none" stroke="#191970" d="M645.5551,-168.2455C640.4618,-160.5367 633.2092,-149.5598 627.048,-140.2348"/>
<polygon fill="#191970" stroke="#191970" points="629.8038,-138.0566 621.3711,-131.6427 623.9635,-141.9155 629.8038,-138.0566"/>
</g>
<!-- Node20 -->
<g id="node21" class="node">
<title>Node20</title>
<polygon fill="#ffffff" stroke="#bfbfbf" points="657,-112.5 657,-131.5 723,-131.5 723,-112.5 657,-112.5"/>
<text text-anchor="middle" x="690" y="-119.5" font-family="Helvetica,sans-Serif" font-size="10.00" fill="#000000">apfShape.h</text>
</g>
<!-- Node0&#45;&gt;Node20 -->
<g id="edge22" class="edge">
<title>Node0&#45;&gt;Node20</title>
<path fill="none" stroke="#191970" d="M658.6191,-168.2455C663.9046,-160.4564 671.4541,-149.3308 677.8238,-139.9439"/>
<polygon fill="#191970" stroke="#191970" points="680.7379,-141.8827 683.4568,-131.6427 674.9455,-137.9522 680.7379,-141.8827"/>
</g>
<!-- Node21 -->
<g id="node22" class="node">
<title>Node21</title>
<polygon fill="#ffffff" stroke="#bfbfbf" points="741,-112.5 741,-131.5 793,-131.5 793,-112.5 741,-112.5"/>
<text text-anchor="middle" x="767" y="-119.5" font-family="Helvetica,sans-Serif" font-size="10.00" fill="#000000">sstream</text>
</g>
<!-- Node0&#45;&gt;Node21 -->
<g id="edge23" class="edge">
<title>Node0&#45;&gt;Node21</title>
<path fill="none" stroke="#191970" d="M671.7692,-168.3733C690.1469,-159.4241 717.7312,-145.9917 738.4893,-135.8835"/>
<polygon fill="#191970" stroke="#191970" points="740.0304,-139.026 747.4888,-131.5011 736.9657,-132.7325 740.0304,-139.026"/>
</g>
<!-- Node22 -->
<g id="node23" class="node">
<title>Node22</title>
<polygon fill="#ffffff" stroke="#bfbfbf" points="811.5,-112.5 811.5,-131.5 884.5,-131.5 884.5,-112.5 811.5,-112.5"/>
<text text-anchor="middle" x="848" y="-119.5" font-family="Helvetica,sans-Serif" font-size="10.00" fill="#000000">apfConvert.h</text>
</g>
<!-- Node0&#45;&gt;Node22 -->
<g id="edge24" class="edge">
<title>Node0&#45;&gt;Node22</title>
<path fill="none" stroke="#191970" d="M685.6936,-168.3733C718.7087,-158.9404 769.1573,-144.5265 805.0386,-134.2747"/>
<polygon fill="#191970" stroke="#191970" points="806.0924,-137.6137 814.7461,-131.5011 804.1693,-130.8831 806.0924,-137.6137"/>
</g>
<!-- Node23 -->
<g id="node24" class="node">
<title>Node23</title>
<polygon fill="#ffffff" stroke="#bfbfbf" points="902.5,-112.5 902.5,-131.5 963.5,-131.5 963.5,-112.5 902.5,-112.5"/>
<text text-anchor="middle" x="933" y="-119.5" font-family="Helvetica,sans-Serif" font-size="10.00" fill="#000000">gmi_null.h</text>
</g>
<!-- Node0&#45;&gt;Node23 -->
<g id="edge29" class="edge">
<title>Node0&#45;&gt;Node23</title>
<path fill="none" stroke="#191970" d="M703.1808,-169.2396C750.0885,-160.9927 821.678,-147.8608 892.4143,-132.2614"/>
<polygon fill="#191970" stroke="#191970" points="893.3851,-135.6311 902.3871,-130.0441 891.8659,-128.7979 893.3851,-135.6311"/>
</g>
<!-- Node24 -->
<g id="node25" class="node">
<title>Node24</title>
<polygon fill="#ffffff" stroke="#bfbfbf" points="982,-112.5 982,-131.5 1052,-131.5 1052,-112.5 982,-112.5"/>
<text text-anchor="middle" x="1017" y="-119.5" font-family="Helvetica,sans-Serif" font-size="10.00" fill="#000000">gmi_mesh.h</text>
</g>
<!-- Node0&#45;&gt;Node24 -->
<g id="edge30" class="edge">
<title>Node0&#45;&gt;Node24</title>
<path fill="none" stroke="#191970" d="M703.0782,-171.9793C764.5398,-164.446 871.0534,-150.4736 971.9316,-132.0788"/>
<polygon fill="#191970" stroke="#191970" points="972.788,-135.48 981.9886,-130.2265 971.52,-128.5958 972.788,-135.48"/>
</g>
<!-- Node25 -->
<g id="node26" class="node">
<title>Node25</title>
<polygon fill="#ffffff" stroke="#bfbfbf" points="1070.5,-112.5 1070.5,-131.5 1111.5,-131.5 1111.5,-112.5 1070.5,-112.5"/>
<text text-anchor="middle" x="1091" y="-119.5" font-family="Helvetica,sans-Serif" font-size="10.00" fill="#000000">gmi.h</text>
</g>
<!-- Node0&#45;&gt;Node25 -->
<g id="edge31" class="edge">
<title>Node0&#45;&gt;Node25</title>
<path fill="none" stroke="#191970" d="M703.2533,-175.6882C779.3716,-171.5011 926.7524,-160.4999 1060.1862,-131.7541"/>
<polygon fill="#191970" stroke="#191970" points="1061.1585,-135.1241 1070.1762,-129.5625 1059.6584,-128.2867 1061.1585,-135.1241"/>
</g>
<!-- Node26 -->
<g id="node27" class="node">
<title>Node26</title>
<polygon fill="#ffffff" stroke="#bfbfbf" points="1129.5,-112.5 1129.5,-131.5 1190.5,-131.5 1190.5,-112.5 1129.5,-112.5"/>
<text text-anchor="middle" x="1160" y="-119.5" font-family="Helvetica,sans-Serif" font-size="10.00" fill="#000000">apfMDS.h</text>
</g>
<!-- Node0&#45;&gt;Node26 -->
<g id="edge32" class="edge">
<title>Node0&#45;&gt;Node26</title>
<path fill="none" stroke="#191970" d="M703.0101,-175.5613C787.6682,-170.9553 962.6024,-159.0701 1119.1556,-132.1058"/>
<polygon fill="#191970" stroke="#191970" points="1120.192,-135.4778 1129.4398,-130.3078 1118.9864,-128.5824 1120.192,-135.4778"/>
</g>
<!-- Node27 -->
<g id="node28" class="node">
<title>Node27</title>
<polygon fill="#ffffff" stroke="#bfbfbf" points="1209,-112.5 1209,-131.5 1247,-131.5 1247,-112.5 1209,-112.5"/>
<text text-anchor="middle" x="1228" y="-119.5" font-family="Helvetica,sans-Serif" font-size="10.00" fill="#000000">ma.h</text>
</g>
<!-- Node0&#45;&gt;Node27 -->
<g id="edge33" class="edge">
<title>Node0&#45;&gt;Node27</title>
<path fill="none" stroke="#191970" d="M703.1531,-175.4028C816.9132,-169.3607 1088.8584,-153.3776 1199.072,-131.6103"/>
<polygon fill="#191970" stroke="#191970" points="1199.8385,-135.0258 1208.9115,-129.5549 1198.4071,-128.1737 1199.8385,-135.0258"/>
</g>
<!-- Node28 -->
<g id="node29" class="node">
<title>Node28</title>
<polygon fill="#ffffff" stroke="#bfbfbf" points="1265,-112.5 1265,-131.5 1339,-131.5 1339,-112.5 1265,-112.5"/>
<text text-anchor="middle" x="1302" y="-119.5" font-family="Helvetica,sans-Serif" font-size="10.00" fill="#000000">gmi_lookup.h</text>
</g>
<!-- Node0&#45;&gt;Node28 -->
<g id="edge35" class="edge">
<title>Node0&#45;&gt;Node28</title>
<path fill="none" stroke="#191970" d="M703.1707,-176.4857C805.9623,-172.9282 1044.9406,-162.0615 1254.9456,-131.9678"/>
<polygon fill="#191970" stroke="#191970" points="1255.5295,-135.4199 1264.9233,-130.5202 1254.5243,-128.4924 1255.5295,-135.4199"/>
</g>
<!-- Node2&#45;&gt;Node3 -->
<g id="edge3" class="edge">
<title>Node2&#45;&gt;Node3</title>
<path fill="none" stroke="#191970" d="M449.4154,-112.3733C411.1663,-102.0257 350.7614,-85.6842 312.8133,-75.4181"/>
<polygon fill="#191970" stroke="#191970" points="313.3096,-71.9266 302.7426,-72.6936 311.4816,-78.6837 313.3096,-71.9266"/>
</g>
<!-- Node2&#45;&gt;Node13 -->
<g id="edge14" class="edge">
<title>Node2&#45;&gt;Node13</title>
<path fill="none" stroke="#191970" d="M466.362,-112.2455C449.5614,-103.4527 424.6366,-90.4079 405.5382,-80.4125"/>
<polygon fill="#191970" stroke="#191970" points="406.9073,-77.1787 396.4244,-75.6427 403.6614,-83.3807 406.9073,-77.1787"/>
</g>
<!-- Node2&#45;&gt;Node14 -->
<g id="edge15" class="edge">
<title>Node2&#45;&gt;Node14</title>
<path fill="none" stroke="#191970" d="M478.7293,-112.2455C473.7736,-104.5367 466.717,-93.5598 460.7224,-84.2348"/>
<polygon fill="#191970" stroke="#191970" points="463.5506,-82.1618 455.1989,-75.6427 457.6624,-85.9471 463.5506,-82.1618"/>
</g>
<!-- Node2&#45;&gt;Node15 -->
<g id="edge16" class="edge">
<title>Node2&#45;&gt;Node15</title>
<path fill="none" stroke="#191970" d="M530.254,-112.4369C576.3493,-102.696 647.8044,-87.5961 696.6326,-77.2776"/>
<polygon fill="#191970" stroke="#191970" points="697.631,-80.644 706.6913,-75.152 696.1837,-73.7953 697.631,-80.644"/>
</g>
<!-- Node16 -->
<g id="node17" class="node">
<title>Node16</title>
<polygon fill="#ffffff" stroke="#bfbfbf" points="501.5,-56.5 501.5,-75.5 544.5,-75.5 544.5,-56.5 501.5,-56.5"/>
<text text-anchor="middle" x="523" y="-63.5" font-family="Helvetica,sans-Serif" font-size="10.00" fill="#000000">queue</text>
</g>
<!-- Node2&#45;&gt;Node16 -->
<g id="edge17" class="edge">
<title>Node2&#45;&gt;Node16</title>
<path fill="none" stroke="#191970" d="M491.6191,-112.2455C496.9046,-104.4564 504.4541,-93.3308 510.8238,-83.9439"/>
<polygon fill="#191970" stroke="#191970" points="513.7379,-85.8827 516.4568,-75.6427 507.9455,-81.9522 513.7379,-85.8827"/>
</g>
<!-- Node17 -->
<g id="node18" class="node">
<title>Node17</title>
<g id="a_node18"><a xlink:href="_py_embedded_functions_8h.html" target="_top" xlink:title="PyEmbeddedFunctions.h">
<polygon fill="#ffffff" stroke="#000000" points="563,-56.5 563,-75.5 689,-75.5 689,-56.5 563,-56.5"/>
<text text-anchor="middle" x="626" y="-63.5" font-family="Helvetica,sans-Serif" font-size="10.00" fill="#000000">PyEmbeddedFunctions.h</text>
</a>
</g>
</g>
<!-- Node2&#45;&gt;Node17 -->
<g id="edge18" class="edge">
<title>Node2&#45;&gt;Node17</title>
<path fill="none" stroke="#191970" d="M509.2388,-112.3733C532.2789,-103.2226 567.1214,-89.3844 592.7501,-79.2057"/>
<polygon fill="#191970" stroke="#191970" points="594.0756,-82.4452 602.0775,-75.5011 591.4918,-75.9395 594.0756,-82.4452"/>
</g>
<!-- Node3&#45;&gt;Node1 -->
<g id="edge6" class="edge">
<title>Node3&#45;&gt;Node1</title>
<path fill="none" stroke="#191970" d="M253.3077,-61.0957C215.2319,-53.4413 139.6858,-37.8906 66.1346,-20.1899"/>
<polygon fill="#191970" stroke="#191970" points="66.7864,-16.7466 56.2434,-17.7933 65.1379,-23.5498 66.7864,-16.7466"/>
</g>
<!-- Node4 -->
<g id="node5" class="node">
<title>Node4</title>
<polygon fill="#ffffff" stroke="#bfbfbf" points="128,-.5 128,-19.5 158,-19.5 158,-.5 128,-.5"/>
<text text-anchor="middle" x="143" y="-7.5" font-family="Helvetica,sans-Serif" font-size="10.00" fill="#000000">set</text>
</g>
<!-- Node3&#45;&gt;Node4 -->
<g id="edge4" class="edge">
<title>Node3&#45;&gt;Node4</title>
<path fill="none" stroke="#191970" d="M255.0351,-56.4981C234.4262,-47.9677 203.1169,-35.0003 167.7944,-20.3255"/>
<polygon fill="#191970" stroke="#191970" points="168.8111,-16.9579 158.2336,-16.3525 166.1249,-23.422 168.8111,-16.9579"/>
</g>
<!-- Node5 -->
<g id="node6" class="node">
<title>Node5</title>
<polygon fill="#ffffff" stroke="#bfbfbf" points="176,-.5 176,-19.5 220,-19.5 220,-.5 176,-.5"/>
<text text-anchor="middle" x="198" y="-7.5" font-family="Helvetica,sans-Serif" font-size="10.00" fill="#000000">vector</text>
</g>
<!-- Node3&#45;&gt;Node5 -->
<g id="edge5" class="edge">
<title>Node3&#45;&gt;Node5</title>
<path fill="none" stroke="#191970" d="M264.0651,-56.2455C251.9053,-47.7337 234.0536,-35.2375 219.9715,-25.3801"/>
<polygon fill="#191970" stroke="#191970" points="221.9747,-22.51 211.7752,-19.6427 217.9605,-28.2447 221.9747,-22.51"/>
</g>
<!-- Node3&#45;&gt;Node6 -->
<g id="edge7" class="edge">
<title>Node3&#45;&gt;Node6</title>
<path fill="none" stroke="#191970" d="M253.3147,-59.4601C223.6857,-51.4807 172.3276,-37.2393 119.2319,-19.904"/>
<polygon fill="#191970" stroke="#191970" points="120.2467,-16.5533 109.6536,-16.7487 118.0565,-23.2019 120.2467,-16.5533"/>
</g>
<!-- Node7 -->
<g id="node8" class="node">
<title>Node7</title>
<polygon fill="#ffffff" stroke="#bfbfbf" points="238.5,-.5 238.5,-19.5 267.5,-19.5 267.5,-.5 238.5,-.5"/>
<text text-anchor="middle" x="253" y="-7.5" font-family="Helvetica,sans-Serif" font-size="10.00" fill="#000000">list</text>
</g>
<!-- Node3&#45;&gt;Node7 -->
<g id="edge8" class="edge">
<title>Node3&#45;&gt;Node7</title>
<path fill="none" stroke="#191970" d="M273.6453,-56.2455C270.2756,-48.6973 265.507,-38.0158 261.4017,-28.8197"/>
<polygon fill="#191970" stroke="#191970" points="264.5773,-27.3473 257.3048,-19.6427 258.1853,-30.2009 264.5773,-27.3473"/>
</g>
<!-- Node8 -->
<g id="node9" class="node">
<title>Node8</title>
<polygon fill="#ffffff" stroke="#bfbfbf" points="286,-.5 286,-19.5 340,-19.5 340,-.5 286,-.5"/>
<text text-anchor="middle" x="313" y="-7.5" font-family="Helvetica,sans-Serif" font-size="10.00" fill="#000000">iostream</text>
</g>
<!-- Node3&#45;&gt;Node8 -->
<g id="edge9" class="edge">
<title>Node3&#45;&gt;Node8</title>
<path fill="none" stroke="#191970" d="M284.0965,-56.2455C288.9145,-48.5367 295.7751,-37.5598 301.6032,-28.2348"/>
<polygon fill="#191970" stroke="#191970" points="304.6413,-29.9777 306.9733,-19.6427 298.7053,-26.2677 304.6413,-29.9777"/>
</g>
<!-- Node9 -->
<g id="node10" class="node">
<title>Node9</title>
<polygon fill="#ffffff" stroke="#bfbfbf" points="358,-.5 358,-19.5 408,-19.5 408,-.5 358,-.5"/>
<text text-anchor="middle" x="383" y="-7.5" font-family="Helvetica,sans-Serif" font-size="10.00" fill="#000000">iomanip</text>
</g>
<!-- Node3&#45;&gt;Node9 -->
<g id="edge10" class="edge">
<title>Node3&#45;&gt;Node9</title>
<path fill="none" stroke="#191970" d="M296.2896,-56.2455C312.7762,-47.4527 337.2352,-34.4079 355.9765,-24.4125"/>
<polygon fill="#191970" stroke="#191970" points="357.7435,-27.4368 364.92,-19.6427 354.4494,-21.2604 357.7435,-27.4368"/>
</g>
<!-- Node10 -->
<g id="node11" class="node">
<title>Node10</title>
<polygon fill="#ffffff" stroke="#bfbfbf" points="426,-.5 426,-19.5 476,-19.5 476,-.5 426,-.5"/>
<text text-anchor="middle" x="451" y="-7.5" font-family="Helvetica,sans-Serif" font-size="10.00" fill="#000000">fstream</text>
</g>
<!-- Node3&#45;&gt;Node10 -->
<g id="edge11" class="edge">
<title>Node3&#45;&gt;Node10</title>
<path fill="none" stroke="#191970" d="M302.7867,-57.9766C332.5061,-48.3564 382.5057,-32.1716 416.1149,-21.2923"/>
<polygon fill="#191970" stroke="#191970" points="417.5425,-24.509 425.9786,-18.0994 415.3867,-17.8493 417.5425,-24.509"/>
</g>
<!-- Node3&#45;&gt;Node11 -->
<g id="edge12" class="edge">
<title>Node3&#45;&gt;Node11</title>
<path fill="none" stroke="#191970" d="M302.6747,-59.2933C307.4107,-58.1139 312.3446,-56.9589 317,-56 415.2716,-35.7587 444.2971,-42.2166 546.432,-19.8749"/>
<polygon fill="#191970" stroke="#191970" points="547.2152,-23.2863 556.2156,-17.6966 545.6939,-16.4536 547.2152,-23.2863"/>
</g>
<!-- Node12 -->
<g id="node13" class="node">
<title>Node12</title>
<polygon fill="#ffffff" stroke="#bfbfbf" points="494,-.5 494,-19.5 538,-19.5 538,-.5 494,-.5"/>
<text text-anchor="middle" x="516" y="-7.5" font-family="Helvetica,sans-Serif" font-size="10.00" fill="#000000">cmath</text>
</g>
<!-- Node3&#45;&gt;Node12 -->
<g id="edge13" class="edge">
<title>Node3&#45;&gt;Node12</title>
<path fill="none" stroke="#191970" d="M302.7209,-59.5029C307.4527,-58.3042 312.3732,-57.0885 317,-56 388.2838,-39.2306 409.5114,-39.6771 483.8862,-20.1052"/>
<polygon fill="#191970" stroke="#191970" points="484.9681,-23.4391 493.729,-17.4812 483.1648,-16.6754 484.9681,-23.4391"/>
</g>
<!-- Node18 -->
<g id="node19" class="node">
<title>Node18</title>
<polygon fill="#ffffff" stroke="#bfbfbf" points="624,-.5 624,-19.5 680,-19.5 680,-.5 624,-.5"/>
<text text-anchor="middle" x="652" y="-7.5" font-family="Helvetica,sans-Serif" font-size="10.00" fill="#000000">Python.h</text>
</g>
<!-- Node17&#45;&gt;Node18 -->
<g id="edge19" class="edge">
<title>Node17&#45;&gt;Node18</title>
<path fill="none" stroke="#191970" d="M630.5289,-56.2455C634.0334,-48.6973 638.9927,-38.0158 643.2623,-28.8197"/>
<polygon fill="#191970" stroke="#191970" points="646.4864,-30.1867 647.523,-19.6427 640.1373,-27.2389 646.4864,-30.1867"/>
</g>
</g>
</svg>
