<?xml version="1.0" encoding="UTF-8" standalone="no"?>
<!DOCTYPE svg PUBLIC "-//W3C//DTD SVG 1.1//EN"
 "http://www.w3.org/Graphics/SVG/1.1/DTD/svg11.dtd">
<!-- Generated by graphviz version 2.43.0 (0)
 -->
<!-- Title: MeshFields.cpp Pages: 1 -->
<svg width="871pt" height="196pt"
 viewBox="0.00 0.00 870.50 196.00" xmlns="http://www.w3.org/2000/svg" xmlns:xlink="http://www.w3.org/1999/xlink">
<g id="graph0" class="graph" transform="scale(1 1) rotate(0) translate(4 192)">
<title>MeshFields.cpp</title>
<polygon fill="white" stroke="transparent" points="-4,4 -4,-192 866.5,-192 866.5,4 -4,4"/>
<!-- Node1 -->
<g id="node1" class="node">
<title>Node1</title>
<g id="a_node1"><a xlink:title=" ">
<polygon fill="#bfbfbf" stroke="black" points="641,-168.5 641,-187.5 733,-187.5 733,-168.5 641,-168.5"/>
<text text-anchor="middle" x="687" y="-175.5" font-family="Helvetica,sans-Serif" font-size="10.00">MeshFields.cpp</text>
</a>
</g>
</g>
<!-- Node2 -->
<g id="node2" class="node">
<title>Node2</title>
<g id="a_node2"><a xlink:href="_mesh_adapt_p_u_m_i_8h.html" target="_top" xlink:title=" ">
<polygon fill="white" stroke="black" points="441,-112.5 441,-131.5 547,-131.5 547,-112.5 441,-112.5"/>
<text text-anchor="middle" x="494" y="-119.5" font-family="Helvetica,sans-Serif" font-size="10.00">MeshAdaptPUMI.h</text>
</a>
</g>
</g>
<!-- Node1&#45;&gt;Node2 -->
<g id="edge1" class="edge">
<title>Node1&#45;&gt;Node2</title>
<path fill="none" stroke="midnightblue" d="M656.42,-168.44C623.39,-159.2 570.61,-144.44 534.23,-134.26"/>
<polygon fill="midnightblue" stroke="midnightblue" points="535.01,-130.84 524.44,-131.52 533.13,-137.58 535.01,-130.84"/>
</g>
<!-- Node20 -->
<g id="node20" class="node">
<title>Node20</title>
<g id="a_node20"><a xlink:title=" ">
<polygon fill="white" stroke="#bfbfbf" points="565,-112.5 565,-131.5 633,-131.5 633,-112.5 565,-112.5"/>
<text text-anchor="middle" x="599" y="-119.5" font-family="Helvetica,sans-Serif" font-size="10.00">apfMesh.h</text>
</a>
</g>
</g>
<!-- Node1&#45;&gt;Node20 -->
<g id="edge19" class="edge">
<title>Node1&#45;&gt;Node20</title>
<path fill="none" stroke="midnightblue" d="M672.86,-168.32C659.13,-159.9 638.06,-146.97 621.94,-137.07"/>
<polygon fill="midnightblue" stroke="midnightblue" points="623.46,-133.9 613.1,-131.65 619.8,-139.87 623.46,-133.9"/>
</g>
<!-- Node21 -->
<g id="node21" class="node">
<title>Node21</title>
<g id="a_node21"><a xlink:title=" ">
<polygon fill="white" stroke="#bfbfbf" points="651.5,-112.5 651.5,-131.5 722.5,-131.5 722.5,-112.5 651.5,-112.5"/>
<text text-anchor="middle" x="687" y="-119.5" font-family="Helvetica,sans-Serif" font-size="10.00">apfShape.h</text>
</a>
</g>
</g>
<!-- Node1&#45;&gt;Node21 -->
<g id="edge20" class="edge">
<title>Node1&#45;&gt;Node21</title>
<path fill="none" stroke="midnightblue" d="M687,-168.08C687,-161.01 687,-150.86 687,-141.99"/>
<polygon fill="midnightblue" stroke="midnightblue" points="690.5,-141.75 687,-131.75 683.5,-141.75 690.5,-141.75"/>
</g>
<!-- Node22 -->
<g id="node22" class="node">
<title>Node22</title>
<g id="a_node22"><a xlink:title=" ">
<polygon fill="white" stroke="#bfbfbf" points="741,-112.5 741,-131.5 791,-131.5 791,-112.5 741,-112.5"/>
<text text-anchor="middle" x="766" y="-119.5" font-family="Helvetica,sans-Serif" font-size="10.00">stdio.h</text>
</a>
</g>
</g>
<!-- Node1&#45;&gt;Node22 -->
<g id="edge21" class="edge">
<title>Node1&#45;&gt;Node22</title>
<path fill="none" stroke="midnightblue" d="M699.69,-168.32C711.9,-159.98 730.58,-147.21 745,-137.35"/>
<polygon fill="midnightblue" stroke="midnightblue" points="747.06,-140.19 753.34,-131.65 743.11,-134.41 747.06,-140.19"/>
</g>
<!-- Node23 -->
<g id="node23" class="node">
<title>Node23</title>
<g id="a_node23"><a xlink:title=" ">
<polygon fill="white" stroke="#bfbfbf" points="809.5,-112.5 809.5,-131.5 862.5,-131.5 862.5,-112.5 809.5,-112.5"/>
<text text-anchor="middle" x="836" y="-119.5" font-family="Helvetica,sans-Serif" font-size="10.00">string.h</text>
</a>
</g>
</g>
<!-- Node1&#45;&gt;Node23 -->
<g id="edge22" class="edge">
<title>Node1&#45;&gt;Node23</title>
<path fill="none" stroke="midnightblue" d="M710.61,-168.44C735.46,-159.44 774.77,-145.19 802.75,-135.05"/>
<polygon fill="midnightblue" stroke="midnightblue" points="804.29,-138.21 812.5,-131.52 801.91,-131.63 804.29,-138.21"/>
</g>
<!-- Node3 -->
<g id="node3" class="node">
<title>Node3</title>
<g id="a_node3"><a xlink:href="mesh_8h.html" target="_top" xlink:title=" ">
<polygon fill="white" stroke="black" points="275.5,-56.5 275.5,-75.5 328.5,-75.5 328.5,-56.5 275.5,-56.5"/>
<text text-anchor="middle" x="302" y="-63.5" font-family="Helvetica,sans-Serif" font-size="10.00">mesh.h</text>
</a>
</g>
</g>
<!-- Node2&#45;&gt;Node3 -->
<g id="edge2" class="edge">
<title>Node2&#45;&gt;Node3</title>
<path fill="none" stroke="midnightblue" d="M463.58,-112.44C429.56,-102.87 374.49,-87.39 338.26,-77.2"/>
<polygon fill="midnightblue" stroke="midnightblue" points="339.14,-73.81 328.57,-74.47 337.25,-80.55 339.14,-73.81"/>
</g>
<!-- Node14 -->
<g id="node14" class="node">
<title>Node14</title>
<g id="a_node14"><a xlink:title=" ">
<polygon fill="white" stroke="#bfbfbf" points="346.5,-56.5 346.5,-75.5 387.5,-75.5 387.5,-56.5 346.5,-56.5"/>
<text text-anchor="middle" x="367" y="-63.5" font-family="Helvetica,sans-Serif" font-size="10.00">apf.h</text>
</a>
</g>
</g>
<!-- Node2&#45;&gt;Node14 -->
<g id="edge13" class="edge">
<title>Node2&#45;&gt;Node14</title>
<path fill="none" stroke="midnightblue" d="M473.88,-112.44C452.98,-103.56 420.07,-89.56 396.28,-79.45"/>
<polygon fill="midnightblue" stroke="midnightblue" points="397.6,-76.21 387.03,-75.52 394.86,-82.65 397.6,-76.21"/>
</g>
<!-- Node15 -->
<g id="node15" class="node">
<title>Node15</title>
<g id="a_node15"><a xlink:title=" ">
<polygon fill="white" stroke="#bfbfbf" points="406,-56.5 406,-75.5 480,-75.5 480,-56.5 406,-56.5"/>
<text text-anchor="middle" x="443" y="-63.5" font-family="Helvetica,sans-Serif" font-size="10.00">apfMesh2.h</text>
</a>
</g>
</g>
<!-- Node2&#45;&gt;Node15 -->
<g id="edge14" class="edge">
<title>Node2&#45;&gt;Node15</title>
<path fill="none" stroke="midnightblue" d="M485.58,-112.08C478.15,-104.22 467.15,-92.57 458.19,-83.08"/>
<polygon fill="midnightblue" stroke="midnightblue" points="460.68,-80.62 451.26,-75.75 455.59,-85.42 460.68,-80.62"/>
</g>
<!-- Node16 -->
<g id="node16" class="node">
<title>Node16</title>
<g id="a_node16"><a xlink:title=" ">
<polygon fill="white" stroke="#bfbfbf" points="498.5,-56.5 498.5,-75.5 593.5,-75.5 593.5,-56.5 498.5,-56.5"/>
<text text-anchor="middle" x="546" y="-63.5" font-family="Helvetica,sans-Serif" font-size="10.00">apfNumbering.h</text>
</a>
</g>
</g>
<!-- Node2&#45;&gt;Node16 -->
<g id="edge15" class="edge">
<title>Node2&#45;&gt;Node16</title>
<path fill="none" stroke="midnightblue" d="M502.59,-112.08C510.16,-104.22 521.38,-92.57 530.51,-83.08"/>
<polygon fill="midnightblue" stroke="midnightblue" points="533.16,-85.38 537.57,-75.75 528.12,-80.53 533.16,-85.38"/>
</g>
<!-- Node17 -->
<g id="node17" class="node">
<title>Node17</title>
<g id="a_node17"><a xlink:title=" ">
<polygon fill="white" stroke="#bfbfbf" points="611.5,-56.5 611.5,-75.5 658.5,-75.5 658.5,-56.5 611.5,-56.5"/>
<text text-anchor="middle" x="635" y="-63.5" font-family="Helvetica,sans-Serif" font-size="10.00">queue</text>
</a>
</g>
</g>
<!-- Node2&#45;&gt;Node17 -->
<g id="edge16" class="edge">
<title>Node2&#45;&gt;Node17</title>
<path fill="none" stroke="midnightblue" d="M516.34,-112.44C539.75,-103.48 576.74,-89.31 603.19,-79.18"/>
<polygon fill="midnightblue" stroke="midnightblue" points="604.68,-82.36 612.76,-75.52 602.17,-75.82 604.68,-82.36"/>
</g>
<!-- Node18 -->
<g id="node18" class="node">
<title>Node18</title>
<g id="a_node18"><a xlink:href="_py_embedded_functions_8h.html" target="_top" xlink:title=" ">
<polygon fill="white" stroke="black" points="677,-56.5 677,-75.5 813,-75.5 813,-56.5 677,-56.5"/>
<text text-anchor="middle" x="745" y="-63.5" font-family="Helvetica,sans-Serif" font-size="10.00">PyEmbeddedFunctions.h</text>
</a>
</g>
</g>
<!-- Node2&#45;&gt;Node18 -->
<g id="edge17" class="edge">
<title>Node2&#45;&gt;Node18</title>
<path fill="none" stroke="midnightblue" d="M533.77,-112.44C577.56,-103.02 648.01,-87.87 695.38,-77.68"/>
<polygon fill="midnightblue" stroke="midnightblue" points="696.37,-81.04 705.41,-75.52 694.9,-74.2 696.37,-81.04"/>
</g>
<!-- Node4 -->
<g id="node4" class="node">
<title>Node4</title>
<g id="a_node4"><a xlink:title=" ">
<polygon fill="white" stroke="#bfbfbf" points="0,-0.5 0,-19.5 32,-19.5 32,-0.5 0,-0.5"/>
<text text-anchor="middle" x="16" y="-7.5" font-family="Helvetica,sans-Serif" font-size="10.00">set</text>
</a>
</g>
</g>
<!-- Node3&#45;&gt;Node4 -->
<g id="edge3" class="edge">
<title>Node3&#45;&gt;Node4</title>
<path fill="none" stroke="midnightblue" d="M275.37,-61.97C229.46,-56.42 132.39,-43.22 41.87,-19.83"/>
<polygon fill="midnightblue" stroke="midnightblue" points="42.57,-16.39 32.01,-17.23 40.79,-23.16 42.57,-16.39"/>
</g>
<!-- Node5 -->
<g id="node5" class="node">
<title>Node5</title>
<g id="a_node5"><a xlink:title=" ">
<polygon fill="white" stroke="#bfbfbf" points="50.5,-0.5 50.5,-19.5 97.5,-19.5 97.5,-0.5 50.5,-0.5"/>
<text text-anchor="middle" x="74" y="-7.5" font-family="Helvetica,sans-Serif" font-size="10.00">vector</text>
</a>
</g>
</g>
<!-- Node3&#45;&gt;Node5 -->
<g id="edge4" class="edge">
<title>Node3&#45;&gt;Node5</title>
<path fill="none" stroke="midnightblue" d="M275.43,-59.22C239.58,-51.34 173.54,-36.56 107.5,-20.05"/>
<polygon fill="midnightblue" stroke="midnightblue" points="108.32,-16.64 97.76,-17.6 106.61,-23.43 108.32,-16.64"/>
</g>
<!-- Node6 -->
<g id="node6" class="node">
<title>Node6</title>
<g id="a_node6"><a xlink:title=" ">
<polygon fill="white" stroke="#bfbfbf" points="116,-0.5 116,-19.5 180,-19.5 180,-0.5 116,-0.5"/>
<text text-anchor="middle" x="148" y="-7.5" font-family="Helvetica,sans-Serif" font-size="10.00">algorithm</text>
</a>
</g>
</g>
<!-- Node3&#45;&gt;Node6 -->
<g id="edge5" class="edge">
<title>Node3&#45;&gt;Node6</title>
<path fill="none" stroke="midnightblue" d="M277.6,-56.44C251.8,-47.4 210.92,-33.06 181.98,-22.92"/>
<polygon fill="midnightblue" stroke="midnightblue" points="182.88,-19.52 172.29,-19.52 180.57,-26.13 182.88,-19.52"/>
</g>
<!-- Node7 -->
<g id="node7" class="node">
<title>Node7</title>
<g id="a_node7"><a xlink:title=" ">
<polygon fill="white" stroke="#bfbfbf" points="198,-0.5 198,-19.5 236,-19.5 236,-0.5 198,-0.5"/>
<text text-anchor="middle" x="217" y="-7.5" font-family="Helvetica,sans-Serif" font-size="10.00">map</text>
</a>
</g>
</g>
<!-- Node3&#45;&gt;Node7 -->
<g id="edge6" class="edge">
<title>Node3&#45;&gt;Node7</title>
<path fill="none" stroke="midnightblue" d="M288.34,-56.32C275.08,-47.9 254.73,-34.97 239.15,-25.07"/>
<polygon fill="midnightblue" stroke="midnightblue" points="240.94,-22.06 230.62,-19.65 237.19,-27.97 240.94,-22.06"/>
</g>
<!-- Node8 -->
<g id="node8" class="node">
<title>Node8</title>
<g id="a_node8"><a xlink:title=" ">
<polygon fill="white" stroke="#bfbfbf" points="254,-0.5 254,-19.5 286,-19.5 286,-0.5 254,-0.5"/>
<text text-anchor="middle" x="270" y="-7.5" font-family="Helvetica,sans-Serif" font-size="10.00">list</text>
</a>
</g>
</g>
<!-- Node3&#45;&gt;Node8 -->
<g id="edge7" class="edge">
<title>Node3&#45;&gt;Node8</title>
<path fill="none" stroke="midnightblue" d="M296.72,-56.08C292.29,-48.61 285.84,-37.72 280.38,-28.52"/>
<polygon fill="midnightblue" stroke="midnightblue" points="283.29,-26.57 275.19,-19.75 277.27,-30.14 283.29,-26.57"/>
</g>
<!-- Node9 -->
<g id="node9" class="node">
<title>Node9</title>
<g id="a_node9"><a xlink:title=" ">
<polygon fill="white" stroke="#bfbfbf" points="304,-0.5 304,-19.5 364,-19.5 364,-0.5 304,-0.5"/>
<text text-anchor="middle" x="334" y="-7.5" font-family="Helvetica,sans-Serif" font-size="10.00">iostream</text>
</a>
</g>
</g>
<!-- Node3&#45;&gt;Node9 -->
<g id="edge8" class="edge">
<title>Node3&#45;&gt;Node9</title>
<path fill="none" stroke="midnightblue" d="M307.28,-56.08C311.71,-48.61 318.16,-37.72 323.62,-28.52"/>
<polygon fill="midnightblue" stroke="midnightblue" points="326.73,-30.14 328.81,-19.75 320.71,-26.57 326.73,-30.14"/>
</g>
<!-- Node10 -->
<g id="node10" class="node">
<title>Node10</title>
<g id="a_node10"><a xlink:title=" ">
<polygon fill="white" stroke="#bfbfbf" points="382,-0.5 382,-19.5 438,-19.5 438,-0.5 382,-0.5"/>
<text text-anchor="middle" x="410" y="-7.5" font-family="Helvetica,sans-Serif" font-size="10.00">iomanip</text>
</a>
</g>
</g>
<!-- Node3&#45;&gt;Node10 -->
<g id="edge9" class="edge">
<title>Node3&#45;&gt;Node10</title>
<path fill="none" stroke="midnightblue" d="M319.35,-56.32C336.67,-47.66 363.52,-34.24 383.5,-24.25"/>
<polygon fill="midnightblue" stroke="midnightblue" points="385.31,-27.26 392.69,-19.65 382.18,-21 385.31,-27.26"/>
</g>
<!-- Node11 -->
<g id="node11" class="node">
<title>Node11</title>
<g id="a_node11"><a xlink:title=" ">
<polygon fill="white" stroke="#bfbfbf" points="456.5,-0.5 456.5,-19.5 511.5,-19.5 511.5,-0.5 456.5,-0.5"/>
<text text-anchor="middle" x="484" y="-7.5" font-family="Helvetica,sans-Serif" font-size="10.00">fstream</text>
</a>
</g>
</g>
<!-- Node3&#45;&gt;Node11 -->
<g id="edge10" class="edge">
<title>Node3&#45;&gt;Node11</title>
<path fill="none" stroke="midnightblue" d="M328.85,-57.03C359.99,-47.79 411.52,-32.51 446.57,-22.1"/>
<polygon fill="midnightblue" stroke="midnightblue" points="447.85,-25.38 456.44,-19.18 445.86,-18.67 447.85,-25.38"/>
</g>
<!-- Node12 -->
<g id="node12" class="node">
<title>Node12</title>
<g id="a_node12"><a xlink:title=" ">
<polygon fill="white" stroke="#bfbfbf" points="530,-0.5 530,-19.5 582,-19.5 582,-0.5 530,-0.5"/>
<text text-anchor="middle" x="556" y="-7.5" font-family="Helvetica,sans-Serif" font-size="10.00">cassert</text>
</a>
</g>
</g>
<!-- Node3&#45;&gt;Node12 -->
<g id="edge11" class="edge">
<title>Node3&#45;&gt;Node12</title>
<path fill="none" stroke="midnightblue" d="M328.7,-58.16C331.83,-57.41 334.98,-56.67 338,-56 415.74,-38.65 438.41,-38.33 519.48,-20.24"/>
<polygon fill="midnightblue" stroke="midnightblue" points="520.68,-23.56 529.67,-17.94 519.14,-16.73 520.68,-23.56"/>
</g>
<!-- Node13 -->
<g id="node13" class="node">
<title>Node13</title>
<g id="a_node13"><a xlink:title=" ">
<polygon fill="white" stroke="#bfbfbf" points="600.5,-0.5 600.5,-19.5 647.5,-19.5 647.5,-0.5 600.5,-0.5"/>
<text text-anchor="middle" x="624" y="-7.5" font-family="Helvetica,sans-Serif" font-size="10.00">cmath</text>
</a>
</g>
</g>
<!-- Node3&#45;&gt;Node13 -->
<g id="edge12" class="edge">
<title>Node3&#45;&gt;Node13</title>
<path fill="none" stroke="midnightblue" d="M328.67,-58.01C331.8,-57.28 334.97,-56.59 338,-56 446.31,-34.81 477.99,-42.51 590.27,-19.9"/>
<polygon fill="midnightblue" stroke="midnightblue" points="591.2,-23.28 600.29,-17.85 589.79,-16.43 591.2,-23.28"/>
</g>
<!-- Node19 -->
<g id="node19" class="node">
<title>Node19</title>
<g id="a_node19"><a xlink:title=" ">
<polygon fill="white" stroke="#bfbfbf" points="715.5,-0.5 715.5,-19.5 774.5,-19.5 774.5,-0.5 715.5,-0.5"/>
<text text-anchor="middle" x="745" y="-7.5" font-family="Helvetica,sans-Serif" font-size="10.00">Python.h</text>
</a>
</g>
</g>
<!-- Node18&#45;&gt;Node19 -->
<g id="edge18" class="edge">
<title>Node18&#45;&gt;Node19</title>
<path fill="none" stroke="midnightblue" d="M745,-56.08C745,-49.01 745,-38.86 745,-29.99"/>
<polygon fill="midnightblue" stroke="midnightblue" points="748.5,-29.75 745,-19.75 741.5,-29.75 748.5,-29.75"/>
</g>
</g>
</svg>
