<?xml version="1.0" encoding="UTF-8" standalone="no"?>
<!DOCTYPE svg PUBLIC "-//W3C//DTD SVG 1.1//EN"
 "http://www.w3.org/Graphics/SVG/1.1/DTD/svg11.dtd">
<!-- Generated by graphviz version 2.44.1 (20200629.0846)
 -->
<!-- Title: MeshAdaptPUMI.h Pages: 1 -->
<svg width="972pt" height="84pt"
 viewBox="0.00 0.00 971.50 84.00" xmlns="http://www.w3.org/2000/svg" xmlns:xlink="http://www.w3.org/1999/xlink">
<g id="graph0" class="graph" transform="scale(1 1) rotate(0) translate(4 80)">
<title>MeshAdaptPUMI.h</title>
<polygon fill="white" stroke="transparent" points="-4,4 -4,-80 967.5,-80 967.5,4 -4,4"/>
<!-- Node1 -->
<g id="node1" class="node">
<title>Node1</title>
<g id="a_node1"><a xlink:title=" ">
<polygon fill="#bfbfbf" stroke="black" points="493,-56.5 493,-75.5 593,-75.5 593,-56.5 493,-56.5"/>
<text text-anchor="middle" x="543" y="-63.5" font-family="Helvetica,sans-Serif" font-size="10.00">MeshAdaptPUMI.h</text>
</a>
</g>
</g>
<!-- Node2 -->
<g id="node2" class="node">
<title>Node2</title>
<g id="a_node2"><a xlink:href="c_mesh_adapt_p_u_m_i_8cpp.html" target="_top" xlink:title=" ">
<polygon fill="white" stroke="black" points="0,-0.5 0,-19.5 116,-19.5 116,-0.5 0,-0.5"/>
<text text-anchor="middle" x="58" y="-7.5" font-family="Helvetica,sans-Serif" font-size="10.00">cMeshAdaptPUMI.cpp</text>
</a>
</g>
</g>
<!-- Node1&#45;&gt;Node2 -->
<g id="edge1" class="edge">
<title>Node1&#45;&gt;Node2</title>
<path fill="none" stroke="midnightblue" d="M482.71,-59.01C401.42,-50.82 252.16,-35.38 125,-20 122.09,-19.65 119.1,-19.28 116.09,-18.9"/>
<polygon fill="midnightblue" stroke="midnightblue" points="482.46,-62.5 492.76,-60.02 483.16,-55.54 482.46,-62.5"/>
</g>
<!-- Node3 -->
<g id="node3" class="node">
<title>Node3</title>
<g id="a_node3"><a xlink:href="create_analytic_geometry_8cpp.html" target="_top" xlink:title=" ">
<polygon fill="white" stroke="black" points="134.5,-0.5 134.5,-19.5 273.5,-19.5 273.5,-0.5 134.5,-0.5"/>
<text text-anchor="middle" x="204" y="-7.5" font-family="Helvetica,sans-Serif" font-size="10.00">createAnalyticGeometry.cpp</text>
</a>
</g>
</g>
<!-- Node1&#45;&gt;Node3 -->
<g id="edge2" class="edge">
<title>Node1&#45;&gt;Node3</title>
<path fill="none" stroke="midnightblue" d="M483.05,-55.45C419.16,-45.27 318.93,-29.31 257.59,-19.54"/>
<polygon fill="midnightblue" stroke="midnightblue" points="482.55,-58.92 492.98,-57.03 483.65,-52 482.55,-58.92"/>
</g>
<!-- Node4 -->
<g id="node4" class="node">
<title>Node4</title>
<g id="a_node4"><a xlink:href="_error_residual_method_8cpp.html" target="_top" xlink:title=" ">
<polygon fill="white" stroke="black" points="291.5,-0.5 291.5,-19.5 418.5,-19.5 418.5,-0.5 291.5,-0.5"/>
<text text-anchor="middle" x="355" y="-7.5" font-family="Helvetica,sans-Serif" font-size="10.00">ErrorResidualMethod.cpp</text>
</a>
</g>
</g>
<!-- Node1&#45;&gt;Node4 -->
<g id="edge3" class="edge">
<title>Node1&#45;&gt;Node4</title>
<path fill="none" stroke="midnightblue" d="M503.2,-53.57C467.73,-43.38 416.63,-28.7 384.65,-19.52"/>
<polygon fill="midnightblue" stroke="midnightblue" points="502.63,-57.05 513.21,-56.44 504.57,-50.32 502.63,-57.05"/>
</g>
<!-- Node5 -->
<g id="node5" class="node">
<title>Node5</title>
<g id="a_node5"><a xlink:href="_mesh_converter_8cpp.html" target="_top" xlink:title=" ">
<polygon fill="white" stroke="black" points="436.5,-0.5 436.5,-19.5 537.5,-19.5 537.5,-0.5 436.5,-0.5"/>
<text text-anchor="middle" x="487" y="-7.5" font-family="Helvetica,sans-Serif" font-size="10.00">MeshConverter.cpp</text>
</a>
</g>
</g>
<!-- Node1&#45;&gt;Node5 -->
<g id="edge4" class="edge">
<title>Node1&#45;&gt;Node5</title>
<path fill="none" stroke="midnightblue" d="M526.67,-49.25C516.74,-39.67 504.41,-27.79 496.16,-19.83"/>
<polygon fill="midnightblue" stroke="midnightblue" points="524.37,-51.9 534,-56.32 529.23,-46.86 524.37,-51.9"/>
</g>
<!-- Node6 -->
<g id="node6" class="node">
<title>Node6</title>
<g id="a_node6"><a xlink:href="_mesh_fields_8cpp.html" target="_top" xlink:title=" ">
<polygon fill="white" stroke="black" points="556,-0.5 556,-19.5 642,-19.5 642,-0.5 556,-0.5"/>
<text text-anchor="middle" x="599" y="-7.5" font-family="Helvetica,sans-Serif" font-size="10.00">MeshFields.cpp</text>
</a>
</g>
</g>
<!-- Node1&#45;&gt;Node6 -->
<g id="edge5" class="edge">
<title>Node1&#45;&gt;Node6</title>
<path fill="none" stroke="midnightblue" d="M559.33,-49.25C569.26,-39.67 581.59,-27.79 589.84,-19.83"/>
<polygon fill="midnightblue" stroke="midnightblue" points="556.77,-46.86 552,-56.32 561.63,-51.9 556.77,-46.86"/>
</g>
<!-- Node7 -->
<g id="node7" class="node">
<title>Node7</title>
<g id="a_node7"><a xlink:href="_parallel_mesh_converter_8cpp.html" target="_top" xlink:title=" ">
<polygon fill="white" stroke="black" points="660,-0.5 660,-19.5 794,-19.5 794,-0.5 660,-0.5"/>
<text text-anchor="middle" x="727" y="-7.5" font-family="Helvetica,sans-Serif" font-size="10.00">ParallelMeshConverter.cpp</text>
</a>
</g>
</g>
<!-- Node1&#45;&gt;Node7 -->
<g id="edge6" class="edge">
<title>Node1&#45;&gt;Node7</title>
<path fill="none" stroke="midnightblue" d="M581.95,-53.57C616.66,-43.38 666.68,-28.7 697.98,-19.52"/>
<polygon fill="midnightblue" stroke="midnightblue" points="580.77,-50.27 572.16,-56.44 582.74,-56.99 580.77,-50.27"/>
</g>
<!-- Node8 -->
<g id="node8" class="node">
<title>Node8</title>
<g id="a_node8"><a xlink:href="_size_field_8cpp.html" target="_top" xlink:title=" ">
<polygon fill="white" stroke="black" points="812,-0.5 812,-19.5 888,-19.5 888,-0.5 812,-0.5"/>
<text text-anchor="middle" x="850" y="-7.5" font-family="Helvetica,sans-Serif" font-size="10.00">SizeField.cpp</text>
</a>
</g>
</g>
<!-- Node1&#45;&gt;Node8 -->
<g id="edge7" class="edge">
<title>Node1&#45;&gt;Node8</title>
<path fill="none" stroke="midnightblue" d="M603.24,-54.89C655.97,-45.96 734.62,-32.46 803,-20 805.86,-19.48 808.82,-18.93 811.79,-18.38"/>
<polygon fill="midnightblue" stroke="midnightblue" points="602.65,-51.44 593.38,-56.55 603.82,-58.34 602.65,-51.44"/>
</g>
<!-- Node9 -->
<g id="node9" class="node">
<title>Node9</title>
<g id="a_node9"><a xlink:href="_v_m_s_8cpp.html" target="_top" xlink:title=" ">
<polygon fill="white" stroke="black" points="906.5,-0.5 906.5,-19.5 963.5,-19.5 963.5,-0.5 906.5,-0.5"/>
<text text-anchor="middle" x="935" y="-7.5" font-family="Helvetica,sans-Serif" font-size="10.00">VMS.cpp</text>
</a>
</g>
</g>
<!-- Node1&#45;&gt;Node9 -->
<g id="edge8" class="edge">
<title>Node1&#45;&gt;Node9</title>
<path fill="none" stroke="midnightblue" d="M603.14,-59.32C673.81,-52.19 794.45,-38.61 897,-20 900.07,-19.44 903.26,-18.8 906.43,-18.11"/>
<polygon fill="midnightblue" stroke="midnightblue" points="602.69,-55.85 593.09,-60.32 603.39,-62.81 602.69,-55.85"/>
</g>
</g>
</svg>
