<?xml version="1.0" encoding="UTF-8" standalone="no"?>
<!DOCTYPE svg PUBLIC "-//W3C//DTD SVG 1.1//EN"
 "http://www.w3.org/Graphics/SVG/1.1/DTD/svg11.dtd">
<!-- Generated by graphviz version 2.44.1 (20200629.0846)
 -->
<!-- Title: MeshConverter.cpp Pages: 1 -->
<svg width="1402pt" height="196pt"
 viewBox="0.00 0.00 1402.00 196.00" xmlns="http://www.w3.org/2000/svg" xmlns:xlink="http://www.w3.org/1999/xlink">
<g id="graph0" class="graph" transform="scale(1 1) rotate(0) translate(4 192)">
<title>MeshConverter.cpp</title>
<polygon fill="white" stroke="transparent" points="-4,4 -4,-192 1398,-192 1398,4 -4,4"/>
<!-- Node1 -->
<g id="node1" class="node">
<title>Node1</title>
<g id="a_node1"><a xlink:title=" ">
<polygon fill="#bfbfbf" stroke="black" points="656.5,-168.5 656.5,-187.5 757.5,-187.5 757.5,-168.5 656.5,-168.5"/>
<text text-anchor="middle" x="707" y="-175.5" font-family="Helvetica,sans-Serif" font-size="10.00">MeshConverter.cpp</text>
</a>
</g>
</g>
<!-- Node2 -->
<g id="node2" class="node">
<title>Node2</title>
<g id="a_node2"><a xlink:title=" ">
<polygon fill="white" stroke="#bfbfbf" points="0,-0.5 0,-19.5 56,-19.5 56,-0.5 0,-0.5"/>
<text text-anchor="middle" x="28" y="-7.5" font-family="Helvetica,sans-Serif" font-size="10.00">algorithm</text>
</a>
</g>
</g>
<!-- Node1&#45;&gt;Node2 -->
<g id="edge1" class="edge">
<title>Node1&#45;&gt;Node2</title>
<path fill="none" stroke="midnightblue" d="M656.46,-177.85C573.12,-177.93 402.42,-172.52 265,-132 179.9,-106.91 89.11,-51.37 49.05,-25.19"/>
<polygon fill="midnightblue" stroke="midnightblue" points="50.92,-22.22 40.64,-19.63 47.06,-28.06 50.92,-22.22"/>
</g>
<!-- Node3 -->
<g id="node3" class="node">
<title>Node3</title>
<g id="a_node3"><a xlink:href="_mesh_adapt_p_u_m_i_8h.html" target="_top" xlink:title=" ">
<polygon fill="white" stroke="black" points="334,-112.5 334,-131.5 434,-131.5 434,-112.5 334,-112.5"/>
<text text-anchor="middle" x="384" y="-119.5" font-family="Helvetica,sans-Serif" font-size="10.00">MeshAdaptPUMI.h</text>
</a>
</g>
</g>
<!-- Node1&#45;&gt;Node3 -->
<g id="edge2" class="edge">
<title>Node1&#45;&gt;Node3</title>
<path fill="none" stroke="midnightblue" d="M656.18,-168.5C598.7,-158.89 505.21,-143.26 444.15,-133.06"/>
<polygon fill="midnightblue" stroke="midnightblue" points="444.7,-129.6 434.26,-131.4 443.55,-136.5 444.7,-129.6"/>
</g>
<!-- Node4 -->
<g id="node4" class="node">
<title>Node4</title>
<g id="a_node4"><a xlink:href="mesh_8h.html" target="_top" xlink:title=" ">
<polygon fill="white" stroke="black" points="194.5,-56.5 194.5,-75.5 243.5,-75.5 243.5,-56.5 194.5,-56.5"/>
<text text-anchor="middle" x="219" y="-63.5" font-family="Helvetica,sans-Serif" font-size="10.00">mesh.h</text>
</a>
</g>
</g>
<!-- Node1&#45;&gt;Node4 -->
<g id="edge19" class="edge">
<title>Node1&#45;&gt;Node4</title>
<path fill="none" stroke="midnightblue" d="M656.47,-174.88C562.4,-170.36 364.21,-158.01 301,-132 274.1,-120.93 248.78,-98.29 233.58,-82.87"/>
<polygon fill="midnightblue" stroke="midnightblue" points="236.04,-80.38 226.6,-75.57 230.98,-85.22 236.04,-80.38"/>
</g>
<!-- Node7 -->
<g id="node7" class="node">
<title>Node7</title>
<g id="a_node7"><a xlink:title=" ">
<polygon fill="white" stroke="#bfbfbf" points="512.5,-0.5 512.5,-19.5 547.5,-19.5 547.5,-0.5 512.5,-0.5"/>
<text text-anchor="middle" x="530" y="-7.5" font-family="Helvetica,sans-Serif" font-size="10.00">map</text>
</a>
</g>
</g>
<!-- Node1&#45;&gt;Node7 -->
<g id="edge26" class="edge">
<title>Node1&#45;&gt;Node7</title>
<path fill="none" stroke="midnightblue" d="M685.09,-168.35C667.17,-160.58 641.8,-147.95 623,-132 603.86,-115.76 562.1,-57.26 541.69,-27.97"/>
<polygon fill="midnightblue" stroke="midnightblue" points="544.45,-25.8 535.87,-19.57 538.69,-29.79 544.45,-25.8"/>
</g>
<!-- Node12 -->
<g id="node12" class="node">
<title>Node12</title>
<g id="a_node12"><a xlink:title=" ">
<polygon fill="white" stroke="#bfbfbf" points="584.5,-0.5 584.5,-19.5 633.5,-19.5 633.5,-0.5 584.5,-0.5"/>
<text text-anchor="middle" x="609" y="-7.5" font-family="Helvetica,sans-Serif" font-size="10.00">cassert</text>
</a>
</g>
</g>
<!-- Node1&#45;&gt;Node12 -->
<g id="edge32" class="edge">
<title>Node1&#45;&gt;Node12</title>
<path fill="none" stroke="midnightblue" d="M685.75,-168.36C670.22,-160.97 649.87,-148.83 638,-132 616.09,-100.92 610.6,-55.37 609.31,-29.94"/>
<polygon fill="midnightblue" stroke="midnightblue" points="612.8,-29.68 608.97,-19.8 605.8,-29.92 612.8,-29.68"/>
</g>
<!-- Node14 -->
<g id="node14" class="node">
<title>Node14</title>
<g id="a_node14"><a xlink:title=" ">
<polygon fill="white" stroke="#bfbfbf" points="262,-56.5 262,-75.5 300,-75.5 300,-56.5 262,-56.5"/>
<text text-anchor="middle" x="281" y="-63.5" font-family="Helvetica,sans-Serif" font-size="10.00">apf.h</text>
</a>
</g>
</g>
<!-- Node1&#45;&gt;Node14 -->
<g id="edge24" class="edge">
<title>Node1&#45;&gt;Node14</title>
<path fill="none" stroke="midnightblue" d="M656.16,-176.18C565.31,-173.88 379.48,-165.14 325,-132 307.22,-121.18 294.99,-100.13 288.02,-84.91"/>
<polygon fill="midnightblue" stroke="midnightblue" points="291.16,-83.34 284.03,-75.5 284.71,-86.08 291.16,-83.34"/>
</g>
<!-- Node15 -->
<g id="node15" class="node">
<title>Node15</title>
<g id="a_node15"><a xlink:title=" ">
<polygon fill="white" stroke="#bfbfbf" points="380,-56.5 380,-75.5 448,-75.5 448,-56.5 380,-56.5"/>
<text text-anchor="middle" x="414" y="-63.5" font-family="Helvetica,sans-Serif" font-size="10.00">apfMesh2.h</text>
</a>
</g>
</g>
<!-- Node1&#45;&gt;Node15 -->
<g id="edge23" class="edge">
<title>Node1&#45;&gt;Node15</title>
<path fill="none" stroke="midnightblue" d="M664.5,-168.44C629.81,-160.8 579.87,-148.31 538,-132 501.21,-117.67 461.18,-95.35 436.84,-80.96"/>
<polygon fill="midnightblue" stroke="midnightblue" points="438.4,-77.81 428.02,-75.68 434.8,-83.82 438.4,-77.81"/>
</g>
<!-- Node16 -->
<g id="node16" class="node">
<title>Node16</title>
<g id="a_node16"><a xlink:title=" ">
<polygon fill="white" stroke="#bfbfbf" points="466,-56.5 466,-75.5 552,-75.5 552,-56.5 466,-56.5"/>
<text text-anchor="middle" x="509" y="-63.5" font-family="Helvetica,sans-Serif" font-size="10.00">apfNumbering.h</text>
</a>
</g>
</g>
<!-- Node1&#45;&gt;Node16 -->
<g id="edge25" class="edge">
<title>Node1&#45;&gt;Node16</title>
<path fill="none" stroke="midnightblue" d="M659.12,-168.48C630.42,-161.8 594.16,-150.44 566,-132 547.05,-119.59 530.63,-99.22 520.35,-84.59"/>
<polygon fill="midnightblue" stroke="midnightblue" points="523.01,-82.27 514.51,-75.94 517.2,-86.19 523.01,-82.27"/>
</g>
<!-- Node18 -->
<g id="node18" class="node">
<title>Node18</title>
<g id="a_node18"><a xlink:title=" ">
<polygon fill="white" stroke="#bfbfbf" points="646.5,-112.5 646.5,-131.5 693.5,-131.5 693.5,-112.5 646.5,-112.5"/>
<text text-anchor="middle" x="670" y="-119.5" font-family="Helvetica,sans-Serif" font-size="10.00">PCU.h</text>
</a>
</g>
</g>
<!-- Node1&#45;&gt;Node18 -->
<g id="edge18" class="edge">
<title>Node1&#45;&gt;Node18</title>
<path fill="none" stroke="midnightblue" d="M700.89,-168.08C695.72,-160.53 688.15,-149.49 681.81,-140.23"/>
<polygon fill="midnightblue" stroke="midnightblue" points="684.54,-138.02 676,-131.75 678.76,-141.98 684.54,-138.02"/>
</g>
<!-- Node19 -->
<g id="node19" class="node">
<title>Node19</title>
<g id="a_node19"><a xlink:title=" ">
<polygon fill="white" stroke="#bfbfbf" points="712,-112.5 712,-131.5 778,-131.5 778,-112.5 712,-112.5"/>
<text text-anchor="middle" x="745" y="-119.5" font-family="Helvetica,sans-Serif" font-size="10.00">apfShape.h</text>
</a>
</g>
</g>
<!-- Node1&#45;&gt;Node19 -->
<g id="edge20" class="edge">
<title>Node1&#45;&gt;Node19</title>
<path fill="none" stroke="midnightblue" d="M713.27,-168.08C718.64,-160.46 726.52,-149.26 733.08,-139.94"/>
<polygon fill="midnightblue" stroke="midnightblue" points="735.95,-141.94 738.84,-131.75 730.22,-137.91 735.95,-141.94"/>
</g>
<!-- Node20 -->
<g id="node20" class="node">
<title>Node20</title>
<g id="a_node20"><a xlink:title=" ">
<polygon fill="white" stroke="#bfbfbf" points="796,-112.5 796,-131.5 848,-131.5 848,-112.5 796,-112.5"/>
<text text-anchor="middle" x="822" y="-119.5" font-family="Helvetica,sans-Serif" font-size="10.00">sstream</text>
</a>
</g>
</g>
<!-- Node1&#45;&gt;Node20 -->
<g id="edge21" class="edge">
<title>Node1&#45;&gt;Node20</title>
<path fill="none" stroke="midnightblue" d="M725.22,-168.44C743.9,-159.68 773.16,-145.94 794.62,-135.86"/>
<polygon fill="midnightblue" stroke="midnightblue" points="796.3,-138.93 803.86,-131.52 793.32,-132.6 796.3,-138.93"/>
</g>
<!-- Node21 -->
<g id="node21" class="node">
<title>Node21</title>
<g id="a_node21"><a xlink:title=" ">
<polygon fill="white" stroke="#bfbfbf" points="866.5,-112.5 866.5,-131.5 939.5,-131.5 939.5,-112.5 866.5,-112.5"/>
<text text-anchor="middle" x="903" y="-119.5" font-family="Helvetica,sans-Serif" font-size="10.00">apfConvert.h</text>
</a>
</g>
</g>
<!-- Node1&#45;&gt;Node21 -->
<g id="edge22" class="edge">
<title>Node1&#45;&gt;Node21</title>
<path fill="none" stroke="midnightblue" d="M738.06,-168.44C771.6,-159.2 825.2,-144.44 862.14,-134.26"/>
<polygon fill="midnightblue" stroke="midnightblue" points="863.38,-137.55 872.09,-131.52 861.52,-130.8 863.38,-137.55"/>
</g>
<!-- Node22 -->
<g id="node22" class="node">
<title>Node22</title>
<g id="a_node22"><a xlink:title=" ">
<polygon fill="white" stroke="#bfbfbf" points="957.5,-112.5 957.5,-131.5 1018.5,-131.5 1018.5,-112.5 957.5,-112.5"/>
<text text-anchor="middle" x="988" y="-119.5" font-family="Helvetica,sans-Serif" font-size="10.00">gmi_null.h</text>
</a>
</g>
</g>
<!-- Node1&#45;&gt;Node22 -->
<g id="edge27" class="edge">
<title>Node1&#45;&gt;Node22</title>
<path fill="none" stroke="midnightblue" d="M756.25,-168.48C803.04,-160.24 875.6,-147.1 947.27,-132.3"/>
<polygon fill="midnightblue" stroke="midnightblue" points="948.29,-135.66 957.37,-130.2 946.87,-128.81 948.29,-135.66"/>
</g>
<!-- Node23 -->
<g id="node23" class="node">
<title>Node23</title>
<g id="a_node23"><a xlink:title=" ">
<polygon fill="white" stroke="#bfbfbf" points="1037,-112.5 1037,-131.5 1107,-131.5 1107,-112.5 1037,-112.5"/>
<text text-anchor="middle" x="1072" y="-119.5" font-family="Helvetica,sans-Serif" font-size="10.00">gmi_mesh.h</text>
</a>
</g>
</g>
<!-- Node1&#45;&gt;Node23 -->
<g id="edge28" class="edge">
<title>Node1&#45;&gt;Node23</title>
<path fill="none" stroke="midnightblue" d="M757.75,-170.88C819.11,-163.26 925.74,-149.31 1026.89,-132.1"/>
<polygon fill="midnightblue" stroke="midnightblue" points="1027.71,-135.51 1036.97,-130.37 1026.52,-128.61 1027.71,-135.51"/>
</g>
<!-- Node24 -->
<g id="node24" class="node">
<title>Node24</title>
<g id="a_node24"><a xlink:title=" ">
<polygon fill="white" stroke="#bfbfbf" points="1125.5,-112.5 1125.5,-131.5 1166.5,-131.5 1166.5,-112.5 1125.5,-112.5"/>
<text text-anchor="middle" x="1146" y="-119.5" font-family="Helvetica,sans-Serif" font-size="10.00">gmi.h</text>
</a>
</g>
</g>
<!-- Node1&#45;&gt;Node24 -->
<g id="edge29" class="edge">
<title>Node1&#45;&gt;Node24</title>
<path fill="none" stroke="midnightblue" d="M757.51,-174.4C833.3,-169.86 980.98,-158.5 1115.4,-131.73"/>
<polygon fill="midnightblue" stroke="midnightblue" points="1116.36,-135.11 1125.47,-129.7 1114.97,-128.25 1116.36,-135.11"/>
</g>
<!-- Node25 -->
<g id="node25" class="node">
<title>Node25</title>
<g id="a_node25"><a xlink:title=" ">
<polygon fill="white" stroke="#bfbfbf" points="1184.5,-112.5 1184.5,-131.5 1245.5,-131.5 1245.5,-112.5 1184.5,-112.5"/>
<text text-anchor="middle" x="1215" y="-119.5" font-family="Helvetica,sans-Serif" font-size="10.00">apfMDS.h</text>
</a>
</g>
</g>
<!-- Node1&#45;&gt;Node25 -->
<g id="edge30" class="edge">
<title>Node1&#45;&gt;Node25</title>
<path fill="none" stroke="midnightblue" d="M757.6,-174.33C842.03,-169.39 1017.09,-157.13 1174.1,-132.12"/>
<polygon fill="midnightblue" stroke="midnightblue" points="1175.1,-135.51 1184.42,-130.46 1173.99,-128.6 1175.1,-135.51"/>
</g>
<!-- Node26 -->
<g id="node26" class="node">
<title>Node26</title>
<g id="a_node26"><a xlink:title=" ">
<polygon fill="white" stroke="#bfbfbf" points="1264,-112.5 1264,-131.5 1302,-131.5 1302,-112.5 1264,-112.5"/>
<text text-anchor="middle" x="1283" y="-119.5" font-family="Helvetica,sans-Serif" font-size="10.00">ma.h</text>
</a>
</g>
</g>
<!-- Node1&#45;&gt;Node26 -->
<g id="edge31" class="edge">
<title>Node1&#45;&gt;Node26</title>
<path fill="none" stroke="midnightblue" d="M757.78,-176.69C853.45,-175.28 1066.87,-168.17 1253.86,-131.77"/>
<polygon fill="midnightblue" stroke="midnightblue" points="1254.74,-135.16 1263.87,-129.79 1253.38,-128.3 1254.74,-135.16"/>
</g>
<!-- Node27 -->
<g id="node27" class="node">
<title>Node27</title>
<g id="a_node27"><a xlink:title=" ">
<polygon fill="white" stroke="#bfbfbf" points="1320,-112.5 1320,-131.5 1394,-131.5 1394,-112.5 1320,-112.5"/>
<text text-anchor="middle" x="1357" y="-119.5" font-family="Helvetica,sans-Serif" font-size="10.00">gmi_lookup.h</text>
</a>
</g>
</g>
<!-- Node1&#45;&gt;Node27 -->
<g id="edge33" class="edge">
<title>Node1&#45;&gt;Node27</title>
<path fill="none" stroke="midnightblue" d="M757.72,-175.26C860.2,-171.3 1099.38,-159.82 1309.9,-131.99"/>
<polygon fill="midnightblue" stroke="midnightblue" points="1310.46,-135.45 1319.91,-130.65 1309.53,-128.51 1310.46,-135.45"/>
</g>
<!-- Node3&#45;&gt;Node4 -->
<g id="edge3" class="edge">
<title>Node3&#45;&gt;Node4</title>
<path fill="none" stroke="midnightblue" d="M357.86,-112.44C329.57,-103.19 284.34,-88.39 253.24,-78.21"/>
<polygon fill="midnightblue" stroke="midnightblue" points="254.27,-74.86 243.67,-75.08 252.09,-81.51 254.27,-74.86"/>
</g>
<!-- Node3&#45;&gt;Node14 -->
<g id="edge14" class="edge">
<title>Node3&#45;&gt;Node14</title>
<path fill="none" stroke="midnightblue" d="M367.45,-112.32C351.01,-103.7 325.57,-90.36 306.53,-80.39"/>
<polygon fill="midnightblue" stroke="midnightblue" points="307.99,-77.2 297.51,-75.65 304.74,-83.4 307.99,-77.2"/>
</g>
<!-- Node3&#45;&gt;Node15 -->
<g id="edge15" class="edge">
<title>Node3&#45;&gt;Node15</title>
<path fill="none" stroke="midnightblue" d="M388.95,-112.08C393.1,-104.61 399.15,-93.72 404.27,-84.52"/>
<polygon fill="midnightblue" stroke="midnightblue" points="407.34,-86.19 409.14,-75.75 401.22,-82.79 407.34,-86.19"/>
</g>
<!-- Node3&#45;&gt;Node16 -->
<g id="edge16" class="edge">
<title>Node3&#45;&gt;Node16</title>
<path fill="none" stroke="midnightblue" d="M403.81,-112.44C424.29,-103.6 456.48,-89.69 479.86,-79.59"/>
<polygon fill="midnightblue" stroke="midnightblue" points="481.49,-82.7 489.29,-75.52 478.72,-76.27 481.49,-82.7"/>
</g>
<!-- Node17 -->
<g id="node17" class="node">
<title>Node17</title>
<g id="a_node17"><a xlink:title=" ">
<polygon fill="white" stroke="#bfbfbf" points="318.5,-56.5 318.5,-75.5 361.5,-75.5 361.5,-56.5 318.5,-56.5"/>
<text text-anchor="middle" x="340" y="-63.5" font-family="Helvetica,sans-Serif" font-size="10.00">queue</text>
</a>
</g>
</g>
<!-- Node3&#45;&gt;Node17 -->
<g id="edge17" class="edge">
<title>Node3&#45;&gt;Node17</title>
<path fill="none" stroke="midnightblue" d="M376.73,-112.08C370.46,-104.38 361.21,-93.03 353.57,-83.65"/>
<polygon fill="midnightblue" stroke="midnightblue" points="356.16,-81.29 347.13,-75.75 350.73,-85.71 356.16,-81.29"/>
</g>
<!-- Node4&#45;&gt;Node2 -->
<g id="edge6" class="edge">
<title>Node4&#45;&gt;Node2</title>
<path fill="none" stroke="midnightblue" d="M194.42,-58.05C161.86,-48.85 104.12,-32.52 65.94,-21.73"/>
<polygon fill="midnightblue" stroke="midnightblue" points="66.78,-18.33 56.21,-18.98 64.88,-25.06 66.78,-18.33"/>
</g>
<!-- Node5 -->
<g id="node5" class="node">
<title>Node5</title>
<g id="a_node5"><a xlink:title=" ">
<polygon fill="white" stroke="#bfbfbf" points="392,-0.5 392,-19.5 422,-19.5 422,-0.5 392,-0.5"/>
<text text-anchor="middle" x="407" y="-7.5" font-family="Helvetica,sans-Serif" font-size="10.00">set</text>
</a>
</g>
</g>
<!-- Node4&#45;&gt;Node5 -->
<g id="edge4" class="edge">
<title>Node4&#45;&gt;Node5</title>
<path fill="none" stroke="midnightblue" d="M243.76,-58.34C281.41,-48.19 351.31,-29.28 382.1,-19.98"/>
<polygon fill="midnightblue" stroke="midnightblue" points="383.35,-23.26 391.84,-16.92 381.25,-16.58 383.35,-23.26"/>
</g>
<!-- Node6 -->
<g id="node6" class="node">
<title>Node6</title>
<g id="a_node6"><a xlink:title=" ">
<polygon fill="white" stroke="#bfbfbf" points="440,-0.5 440,-19.5 484,-19.5 484,-0.5 440,-0.5"/>
<text text-anchor="middle" x="462" y="-7.5" font-family="Helvetica,sans-Serif" font-size="10.00">vector</text>
</a>
</g>
</g>
<!-- Node4&#45;&gt;Node6 -->
<g id="edge5" class="edge">
<title>Node4&#45;&gt;Node6</title>
<path fill="none" stroke="midnightblue" d="M243.84,-58.24C246.92,-57.46 250.03,-56.69 253,-56 328.53,-38.38 350.89,-39.17 429.8,-20.13"/>
<polygon fill="midnightblue" stroke="midnightblue" points="430.83,-23.49 439.71,-17.71 429.16,-16.69 430.83,-23.49"/>
</g>
<!-- Node4&#45;&gt;Node7 -->
<g id="edge7" class="edge">
<title>Node4&#45;&gt;Node7</title>
<path fill="none" stroke="midnightblue" d="M243.81,-58.1C246.89,-57.34 250.01,-56.62 253,-56 358.63,-34.17 387.16,-40.77 493,-20 496.08,-19.4 499.29,-18.71 502.47,-17.98"/>
<polygon fill="midnightblue" stroke="midnightblue" points="503.46,-21.35 512.38,-15.63 501.84,-14.54 503.46,-21.35"/>
</g>
<!-- Node8 -->
<g id="node8" class="node">
<title>Node8</title>
<g id="a_node8"><a xlink:title=" ">
<polygon fill="white" stroke="#bfbfbf" points="74.5,-0.5 74.5,-19.5 103.5,-19.5 103.5,-0.5 74.5,-0.5"/>
<text text-anchor="middle" x="89" y="-7.5" font-family="Helvetica,sans-Serif" font-size="10.00">list</text>
</a>
</g>
</g>
<!-- Node4&#45;&gt;Node8 -->
<g id="edge8" class="edge">
<title>Node4&#45;&gt;Node8</title>
<path fill="none" stroke="midnightblue" d="M198.4,-56.44C175.24,-46.82 137.69,-31.22 113.16,-21.04"/>
<polygon fill="midnightblue" stroke="midnightblue" points="114.42,-17.77 103.84,-17.16 111.73,-24.23 114.42,-17.77"/>
</g>
<!-- Node9 -->
<g id="node9" class="node">
<title>Node9</title>
<g id="a_node9"><a xlink:title=" ">
<polygon fill="white" stroke="#bfbfbf" points="122,-0.5 122,-19.5 176,-19.5 176,-0.5 122,-0.5"/>
<text text-anchor="middle" x="149" y="-7.5" font-family="Helvetica,sans-Serif" font-size="10.00">iostream</text>
</a>
</g>
</g>
<!-- Node4&#45;&gt;Node9 -->
<g id="edge9" class="edge">
<title>Node4&#45;&gt;Node9</title>
<path fill="none" stroke="midnightblue" d="M207.75,-56.32C197.2,-48.18 181.2,-35.84 168.56,-26.09"/>
<polygon fill="midnightblue" stroke="midnightblue" points="170.51,-23.17 160.45,-19.83 166.23,-28.71 170.51,-23.17"/>
</g>
<!-- Node10 -->
<g id="node10" class="node">
<title>Node10</title>
<g id="a_node10"><a xlink:title=" ">
<polygon fill="white" stroke="#bfbfbf" points="194,-0.5 194,-19.5 244,-19.5 244,-0.5 194,-0.5"/>
<text text-anchor="middle" x="219" y="-7.5" font-family="Helvetica,sans-Serif" font-size="10.00">iomanip</text>
</a>
</g>
</g>
<!-- Node4&#45;&gt;Node10 -->
<g id="edge10" class="edge">
<title>Node4&#45;&gt;Node10</title>
<path fill="none" stroke="midnightblue" d="M219,-56.08C219,-49.01 219,-38.86 219,-29.99"/>
<polygon fill="midnightblue" stroke="midnightblue" points="222.5,-29.75 219,-19.75 215.5,-29.75 222.5,-29.75"/>
</g>
<!-- Node11 -->
<g id="node11" class="node">
<title>Node11</title>
<g id="a_node11"><a xlink:title=" ">
<polygon fill="white" stroke="#bfbfbf" points="262,-0.5 262,-19.5 312,-19.5 312,-0.5 262,-0.5"/>
<text text-anchor="middle" x="287" y="-7.5" font-family="Helvetica,sans-Serif" font-size="10.00">fstream</text>
</a>
</g>
</g>
<!-- Node4&#45;&gt;Node11 -->
<g id="edge11" class="edge">
<title>Node4&#45;&gt;Node11</title>
<path fill="none" stroke="midnightblue" d="M229.93,-56.32C240.17,-48.18 255.72,-35.84 268,-26.09"/>
<polygon fill="midnightblue" stroke="midnightblue" points="270.22,-28.79 275.88,-19.83 265.87,-23.31 270.22,-28.79"/>
</g>
<!-- Node4&#45;&gt;Node12 -->
<g id="edge12" class="edge">
<title>Node4&#45;&gt;Node12</title>
<path fill="none" stroke="midnightblue" d="M243.79,-58.01C246.88,-57.26 250,-56.57 253,-56 386.65,-30.53 422.37,-39.61 557,-20 562.61,-19.18 568.55,-18.24 574.32,-17.27"/>
<polygon fill="midnightblue" stroke="midnightblue" points="575.18,-20.67 584.44,-15.53 573.99,-13.77 575.18,-20.67"/>
</g>
<!-- Node13 -->
<g id="node13" class="node">
<title>Node13</title>
<g id="a_node13"><a xlink:title=" ">
<polygon fill="white" stroke="#bfbfbf" points="330,-0.5 330,-19.5 374,-19.5 374,-0.5 330,-0.5"/>
<text text-anchor="middle" x="352" y="-7.5" font-family="Helvetica,sans-Serif" font-size="10.00">cmath</text>
</a>
</g>
</g>
<!-- Node4&#45;&gt;Node13 -->
<g id="edge13" class="edge">
<title>Node4&#45;&gt;Node13</title>
<path fill="none" stroke="midnightblue" d="M240.07,-56.44C262.06,-47.52 296.73,-33.44 321.66,-23.32"/>
<polygon fill="midnightblue" stroke="midnightblue" points="323.08,-26.52 331.02,-19.52 320.44,-20.04 323.08,-26.52"/>
</g>
</g>
</svg>
