<?xml version="1.0" encoding="UTF-8" standalone="no"?>
<!DOCTYPE svg PUBLIC "-//W3C//DTD SVG 1.1//EN"
 "http://www.w3.org/Graphics/SVG/1.1/DTD/svg11.dtd">
<!-- Generated by graphviz version 2.40.1 (20161225.0304)
 -->
<!-- Title: MeshFields.cpp Pages: 1 -->
<svg width="816pt" height="196pt"
 viewBox="0.00 0.00 815.50 196.00" xmlns="http://www.w3.org/2000/svg" xmlns:xlink="http://www.w3.org/1999/xlink">
<g id="graph0" class="graph" transform="scale(1 1) rotate(0) translate(4 192)">
<title>MeshFields.cpp</title>
<polygon fill="#ffffff" stroke="transparent" points="-4,4 -4,-192 811.5,-192 811.5,4 -4,4"/>
<!-- Node0 -->
<g id="node1" class="node">
<title>Node0</title>
<polygon fill="#bfbfbf" stroke="#000000" points="600,-168.5 600,-187.5 686,-187.5 686,-168.5 600,-168.5"/>
<text text-anchor="middle" x="643" y="-175.5" font-family="Helvetica,sans-Serif" font-size="10.00" fill="#000000">MeshFields.cpp</text>
</g>
<!-- Node1 -->
<g id="node2" class="node">
<title>Node1</title>
<g id="a_node2"><a xlink:href="_mesh_adapt_p_u_m_i_8h.html" target="_top" xlink:title="MeshAdaptPUMI.h">
<polygon fill="#ffffff" stroke="#000000" points="412,-112.5 412,-131.5 512,-131.5 512,-112.5 412,-112.5"/>
<text text-anchor="middle" x="462" y="-119.5" font-family="Helvetica,sans-Serif" font-size="10.00" fill="#000000">MeshAdaptPUMI.h</text>
</a>
</g>
</g>
<!-- Node0&#45;&gt;Node1 -->
<g id="edge1" class="edge">
<title>Node0&#45;&gt;Node1</title>
<path fill="none" stroke="#191970" d="M611.885,-168.3733C581.6571,-159.021 535.604,-144.7725 502.5261,-134.5385"/>
<polygon fill="#191970" stroke="#191970" points="503.2967,-131.1133 492.709,-131.5011 501.2277,-137.8005 503.2967,-131.1133"/>
</g>
<!-- Node19 -->
<g id="node20" class="node">
<title>Node19</title>
<polygon fill="#ffffff" stroke="#bfbfbf" points="530,-112.5 530,-131.5 592,-131.5 592,-112.5 530,-112.5"/>
<text text-anchor="middle" x="561" y="-119.5" font-family="Helvetica,sans-Serif" font-size="10.00" fill="#000000">apfMesh.h</text>
</g>
<!-- Node0&#45;&gt;Node19 -->
<g id="edge19" class="edge">
<title>Node0&#45;&gt;Node19</title>
<path fill="none" stroke="#191970" d="M628.7167,-168.2455C616.253,-159.7337 597.9549,-147.2375 583.5208,-137.3801"/>
<polygon fill="#191970" stroke="#191970" points="585.3515,-134.392 575.1196,-131.6427 581.4038,-140.1726 585.3515,-134.392"/>
</g>
<!-- Node20 -->
<g id="node21" class="node">
<title>Node20</title>
<polygon fill="#ffffff" stroke="#bfbfbf" points="610,-112.5 610,-131.5 676,-131.5 676,-112.5 610,-112.5"/>
<text text-anchor="middle" x="643" y="-119.5" font-family="Helvetica,sans-Serif" font-size="10.00" fill="#000000">apfShape.h</text>
</g>
<!-- Node0&#45;&gt;Node20 -->
<g id="edge20" class="edge">
<title>Node0&#45;&gt;Node20</title>
<path fill="none" stroke="#191970" d="M643,-168.2455C643,-160.9382 643,-150.6944 643,-141.7046"/>
<polygon fill="#191970" stroke="#191970" points="646.5001,-141.6426 643,-131.6427 639.5001,-141.6427 646.5001,-141.6426"/>
</g>
<!-- Node21 -->
<g id="node22" class="node">
<title>Node21</title>
<polygon fill="#ffffff" stroke="#bfbfbf" points="694,-112.5 694,-131.5 740,-131.5 740,-112.5 694,-112.5"/>
<text text-anchor="middle" x="717" y="-119.5" font-family="Helvetica,sans-Serif" font-size="10.00" fill="#000000">stdio.h</text>
</g>
<!-- Node0&#45;&gt;Node21 -->
<g id="edge21" class="edge">
<title>Node0&#45;&gt;Node21</title>
<path fill="none" stroke="#191970" d="M655.8898,-168.2455C666.9254,-159.8943 683.0292,-147.7076 695.9353,-137.9408"/>
<polygon fill="#191970" stroke="#191970" points="698.3959,-140.4681 704.2579,-131.6427 694.1717,-134.8862 698.3959,-140.4681"/>
</g>
<!-- Node22 -->
<g id="node23" class="node">
<title>Node22</title>
<polygon fill="#ffffff" stroke="#bfbfbf" points="758.5,-112.5 758.5,-131.5 807.5,-131.5 807.5,-112.5 758.5,-112.5"/>
<text text-anchor="middle" x="783" y="-119.5" font-family="Helvetica,sans-Serif" font-size="10.00" fill="#000000">string.h</text>
</g>
<!-- Node0&#45;&gt;Node22 -->
<g id="edge22" class="edge">
<title>Node0&#45;&gt;Node22</title>
<path fill="none" stroke="#191970" d="M667.0669,-168.3733C689.8428,-159.2629 724.2344,-145.5062 749.649,-135.3404"/>
<polygon fill="#191970" stroke="#191970" points="751.2623,-138.4648 759.2472,-131.5011 748.6625,-131.9654 751.2623,-138.4648"/>
</g>
<!-- Node2 -->
<g id="node3" class="node">
<title>Node2</title>
<g id="a_node3"><a xlink:href="mesh_8h.html" target="_top" xlink:title="mesh.h">
<polygon fill="#ffffff" stroke="#000000" points="257.5,-56.5 257.5,-75.5 306.5,-75.5 306.5,-56.5 257.5,-56.5"/>
<text text-anchor="middle" x="282" y="-63.5" font-family="Helvetica,sans-Serif" font-size="10.00" fill="#000000">mesh.h</text>
</a>
</g>
</g>
<!-- Node1&#45;&gt;Node2 -->
<g id="edge2" class="edge">
<title>Node1&#45;&gt;Node2</title>
<path fill="none" stroke="#191970" d="M431.0569,-112.3733C399.1742,-102.4542 349.5882,-87.0275 316.4698,-76.7239"/>
<polygon fill="#191970" stroke="#191970" points="317.3465,-73.3313 306.7582,-73.7026 315.267,-80.0153 317.3465,-73.3313"/>
</g>
<!-- Node13 -->
<g id="node14" class="node">
<title>Node13</title>
<polygon fill="#ffffff" stroke="#bfbfbf" points="325,-56.5 325,-75.5 363,-75.5 363,-56.5 325,-56.5"/>
<text text-anchor="middle" x="344" y="-63.5" font-family="Helvetica,sans-Serif" font-size="10.00" fill="#000000">apf.h</text>
</g>
<!-- Node1&#45;&gt;Node13 -->
<g id="edge13" class="edge">
<title>Node1&#45;&gt;Node13</title>
<path fill="none" stroke="#191970" d="M441.7151,-112.3733C422.6294,-103.3156 393.8665,-89.6655 372.4831,-79.5174"/>
<polygon fill="#191970" stroke="#191970" points="373.7737,-76.2558 363.2388,-75.1303 370.7725,-82.5798 373.7737,-76.2558"/>
</g>
<!-- Node14 -->
<g id="node15" class="node">
<title>Node14</title>
<polygon fill="#ffffff" stroke="#bfbfbf" points="381,-56.5 381,-75.5 449,-75.5 449,-56.5 381,-56.5"/>
<text text-anchor="middle" x="415" y="-63.5" font-family="Helvetica,sans-Serif" font-size="10.00" fill="#000000">apfMesh2.h</text>
</g>
<!-- Node1&#45;&gt;Node14 -->
<g id="edge14" class="edge">
<title>Node1&#45;&gt;Node14</title>
<path fill="none" stroke="#191970" d="M453.8132,-112.2455C447.1411,-104.2958 437.5521,-92.8706 429.5747,-83.3656"/>
<polygon fill="#191970" stroke="#191970" points="432.2026,-81.0524 423.093,-75.6427 426.8408,-85.5525 432.2026,-81.0524"/>
</g>
<!-- Node15 -->
<g id="node16" class="node">
<title>Node15</title>
<polygon fill="#ffffff" stroke="#bfbfbf" points="467,-56.5 467,-75.5 553,-75.5 553,-56.5 467,-56.5"/>
<text text-anchor="middle" x="510" y="-63.5" font-family="Helvetica,sans-Serif" font-size="10.00" fill="#000000">apfNumbering.h</text>
</g>
<!-- Node1&#45;&gt;Node15 -->
<g id="edge15" class="edge">
<title>Node1&#45;&gt;Node15</title>
<path fill="none" stroke="#191970" d="M470.361,-112.2455C477.175,-104.2958 486.9681,-92.8706 495.1152,-83.3656"/>
<polygon fill="#191970" stroke="#191970" points="497.8843,-85.513 501.7349,-75.6427 492.5695,-80.9575 497.8843,-85.513"/>
</g>
<!-- Node16 -->
<g id="node17" class="node">
<title>Node16</title>
<polygon fill="#ffffff" stroke="#bfbfbf" points="571.5,-56.5 571.5,-75.5 614.5,-75.5 614.5,-56.5 571.5,-56.5"/>
<text text-anchor="middle" x="593" y="-63.5" font-family="Helvetica,sans-Serif" font-size="10.00" fill="#000000">queue</text>
</g>
<!-- Node1&#45;&gt;Node16 -->
<g id="edge16" class="edge">
<title>Node1&#45;&gt;Node16</title>
<path fill="none" stroke="#191970" d="M484.5197,-112.3733C505.8658,-103.2482 538.1158,-89.462 561.9077,-79.2913"/>
<polygon fill="#191970" stroke="#191970" points="563.3901,-82.4641 571.2095,-75.315 560.6386,-76.0275 563.3901,-82.4641"/>
</g>
<!-- Node17 -->
<g id="node18" class="node">
<title>Node17</title>
<g id="a_node18"><a xlink:href="_py_embedded_functions_8h.html" target="_top" xlink:title="PyEmbeddedFunctions.h">
<polygon fill="#ffffff" stroke="#000000" points="633,-56.5 633,-75.5 759,-75.5 759,-56.5 633,-56.5"/>
<text text-anchor="middle" x="696" y="-63.5" font-family="Helvetica,sans-Serif" font-size="10.00" fill="#000000">PyEmbeddedFunctions.h</text>
</a>
</g>
</g>
<!-- Node1&#45;&gt;Node17 -->
<g id="edge17" class="edge">
<title>Node1&#45;&gt;Node17</title>
<path fill="none" stroke="#191970" d="M501.9602,-112.4369C541.8392,-102.8932 603.2139,-88.2052 646.2328,-77.9101"/>
<polygon fill="#191970" stroke="#191970" points="647.2939,-81.2551 656.2047,-75.5237 645.6646,-74.4473 647.2939,-81.2551"/>
</g>
<!-- Node3 -->
<g id="node4" class="node">
<title>Node3</title>
<polygon fill="#ffffff" stroke="#bfbfbf" points="0,-.5 0,-19.5 30,-19.5 30,-.5 0,-.5"/>
<text text-anchor="middle" x="15" y="-7.5" font-family="Helvetica,sans-Serif" font-size="10.00" fill="#000000">set</text>
</g>
<!-- Node2&#45;&gt;Node3 -->
<g id="edge3" class="edge">
<title>Node2&#45;&gt;Node3</title>
<path fill="none" stroke="#191970" d="M257.457,-63.0703C214.7956,-57.6153 124.2052,-44.4292 39.7913,-19.7396"/>
<polygon fill="#191970" stroke="#191970" points="40.6455,-16.3421 30.0621,-16.8336 38.6421,-23.0492 40.6455,-16.3421"/>
</g>
<!-- Node4 -->
<g id="node5" class="node">
<title>Node4</title>
<polygon fill="#ffffff" stroke="#bfbfbf" points="48,-.5 48,-19.5 92,-19.5 92,-.5 48,-.5"/>
<text text-anchor="middle" x="70" y="-7.5" font-family="Helvetica,sans-Serif" font-size="10.00" fill="#000000">vector</text>
</g>
<!-- Node2&#45;&gt;Node4 -->
<g id="edge4" class="edge">
<title>Node2&#45;&gt;Node4</title>
<path fill="none" stroke="#191970" d="M257.2753,-60.2401C224.0765,-52.3934 163.0648,-37.5795 102.0822,-20.1913"/>
<polygon fill="#191970" stroke="#191970" points="102.8771,-16.7782 92.2994,-17.3792 100.9432,-23.5057 102.8771,-16.7782"/>
</g>
<!-- Node5 -->
<g id="node6" class="node">
<title>Node5</title>
<polygon fill="#ffffff" stroke="#bfbfbf" points="110,-.5 110,-19.5 166,-19.5 166,-.5 110,-.5"/>
<text text-anchor="middle" x="138" y="-7.5" font-family="Helvetica,sans-Serif" font-size="10.00" fill="#000000">algorithm</text>
</g>
<!-- Node2&#45;&gt;Node5 -->
<g id="edge5" class="edge">
<title>Node2&#45;&gt;Node5</title>
<path fill="none" stroke="#191970" d="M257.2455,-56.3733C233.7151,-47.2226 198.1313,-33.3844 171.9574,-23.2057"/>
<polygon fill="#191970" stroke="#191970" points="173.0201,-19.8636 162.4315,-19.5011 170.4829,-26.3877 173.0201,-19.8636"/>
</g>
<!-- Node6 -->
<g id="node7" class="node">
<title>Node6</title>
<polygon fill="#ffffff" stroke="#bfbfbf" points="184.5,-.5 184.5,-19.5 219.5,-19.5 219.5,-.5 184.5,-.5"/>
<text text-anchor="middle" x="202" y="-7.5" font-family="Helvetica,sans-Serif" font-size="10.00" fill="#000000">map</text>
</g>
<!-- Node2&#45;&gt;Node6 -->
<g id="edge6" class="edge">
<title>Node2&#45;&gt;Node6</title>
<path fill="none" stroke="#191970" d="M268.0651,-56.2455C255.9053,-47.7337 238.0536,-35.2375 223.9715,-25.3801"/>
<polygon fill="#191970" stroke="#191970" points="225.9747,-22.51 215.7752,-19.6427 221.9605,-28.2447 225.9747,-22.51"/>
</g>
<!-- Node7 -->
<g id="node8" class="node">
<title>Node7</title>
<polygon fill="#ffffff" stroke="#bfbfbf" points="237.5,-.5 237.5,-19.5 266.5,-19.5 266.5,-.5 237.5,-.5"/>
<text text-anchor="middle" x="252" y="-7.5" font-family="Helvetica,sans-Serif" font-size="10.00" fill="#000000">list</text>
</g>
<!-- Node2&#45;&gt;Node7 -->
<g id="edge7" class="edge">
<title>Node2&#45;&gt;Node7</title>
<path fill="none" stroke="#191970" d="M276.7744,-56.2455C272.6877,-48.617 266.8865,-37.7881 261.925,-28.5267"/>
<polygon fill="#191970" stroke="#191970" points="264.9732,-26.8047 257.1657,-19.6427 258.8028,-30.1103 264.9732,-26.8047"/>
</g>
<!-- Node8 -->
<g id="node9" class="node">
<title>Node8</title>
<polygon fill="#ffffff" stroke="#bfbfbf" points="285,-.5 285,-19.5 339,-19.5 339,-.5 285,-.5"/>
<text text-anchor="middle" x="312" y="-7.5" font-family="Helvetica,sans-Serif" font-size="10.00" fill="#000000">iostream</text>
</g>
<!-- Node2&#45;&gt;Node8 -->
<g id="edge8" class="edge">
<title>Node2&#45;&gt;Node8</title>
<path fill="none" stroke="#191970" d="M287.2256,-56.2455C291.3123,-48.617 297.1135,-37.7881 302.075,-28.5267"/>
<polygon fill="#191970" stroke="#191970" points="305.1972,-30.1103 306.8343,-19.6427 299.0268,-26.8047 305.1972,-30.1103"/>
</g>
<!-- Node9 -->
<g id="node10" class="node">
<title>Node9</title>
<polygon fill="#ffffff" stroke="#bfbfbf" points="357,-.5 357,-19.5 407,-19.5 407,-.5 357,-.5"/>
<text text-anchor="middle" x="382" y="-7.5" font-family="Helvetica,sans-Serif" font-size="10.00" fill="#000000">iomanip</text>
</g>
<!-- Node2&#45;&gt;Node9 -->
<g id="edge9" class="edge">
<title>Node2&#45;&gt;Node9</title>
<path fill="none" stroke="#191970" d="M299.4187,-56.2455C315.0485,-47.4928 338.2019,-34.527 356.0185,-24.5496"/>
<polygon fill="#191970" stroke="#191970" points="357.766,-27.5825 364.7809,-19.6427 354.3457,-21.475 357.766,-27.5825"/>
</g>
<!-- Node10 -->
<g id="node11" class="node">
<title>Node10</title>
<polygon fill="#ffffff" stroke="#bfbfbf" points="425,-.5 425,-19.5 475,-19.5 475,-.5 425,-.5"/>
<text text-anchor="middle" x="450" y="-7.5" font-family="Helvetica,sans-Serif" font-size="10.00" fill="#000000">fstream</text>
</g>
<!-- Node2&#45;&gt;Node10 -->
<g id="edge10" class="edge">
<title>Node2&#45;&gt;Node10</title>
<path fill="none" stroke="#191970" d="M306.789,-57.737C335.4916,-48.1695 382.9607,-32.3464 415.316,-21.5613"/>
<polygon fill="#191970" stroke="#191970" points="416.4545,-24.8712 424.8345,-18.3885 414.2409,-18.2304 416.4545,-24.8712"/>
</g>
<!-- Node11 -->
<g id="node12" class="node">
<title>Node11</title>
<polygon fill="#ffffff" stroke="#bfbfbf" points="493.5,-.5 493.5,-19.5 542.5,-19.5 542.5,-.5 493.5,-.5"/>
<text text-anchor="middle" x="518" y="-7.5" font-family="Helvetica,sans-Serif" font-size="10.00" fill="#000000">cassert</text>
</g>
<!-- Node2&#45;&gt;Node11 -->
<g id="edge11" class="edge">
<title>Node2&#45;&gt;Node11</title>
<path fill="none" stroke="#191970" d="M306.8232,-58.4656C309.9041,-57.5995 313.0182,-56.7569 316,-56 386.9789,-37.984 408.2562,-38.6918 483.2513,-20.0372"/>
<polygon fill="#191970" stroke="#191970" points="484.3361,-23.3733 493.1768,-17.5344 482.6245,-16.5857 484.3361,-23.3733"/>
</g>
<!-- Node12 -->
<g id="node13" class="node">
<title>Node12</title>
<polygon fill="#ffffff" stroke="#bfbfbf" points="561,-.5 561,-19.5 605,-19.5 605,-.5 561,-.5"/>
<text text-anchor="middle" x="583" y="-7.5" font-family="Helvetica,sans-Serif" font-size="10.00" fill="#000000">cmath</text>
</g>
<!-- Node2&#45;&gt;Node12 -->
<g id="edge12" class="edge">
<title>Node2&#45;&gt;Node12</title>
<path fill="none" stroke="#191970" d="M306.7819,-58.2921C309.8699,-57.4557 312.9969,-56.6675 316,-56 416.439,-33.6755 446.8997,-43.7075 550.8181,-19.9675"/>
<polygon fill="#191970" stroke="#191970" points="551.8278,-23.326 560.7698,-17.6434 550.2358,-16.5094 551.8278,-23.326"/>
</g>
<!-- Node18 -->
<g id="node19" class="node">
<title>Node18</title>
<polygon fill="#ffffff" stroke="#bfbfbf" points="668,-.5 668,-19.5 724,-19.5 724,-.5 668,-.5"/>
<text text-anchor="middle" x="696" y="-7.5" font-family="Helvetica,sans-Serif" font-size="10.00" fill="#000000">Python.h</text>
</g>
<!-- Node17&#45;&gt;Node18 -->
<g id="edge18" class="edge">
<title>Node17&#45;&gt;Node18</title>
<path fill="none" stroke="#191970" d="M696,-56.2455C696,-48.9382 696,-38.6944 696,-29.7046"/>
<polygon fill="#191970" stroke="#191970" points="699.5001,-29.6426 696,-19.6427 692.5001,-29.6427 699.5001,-29.6426"/>
</g>
</g>
</svg>
