<?xml version="1.0" encoding="UTF-8" standalone="no"?>
<!DOCTYPE svg PUBLIC "-//W3C//DTD SVG 1.1//EN"
 "http://www.w3.org/Graphics/SVG/1.1/DTD/svg11.dtd">
<!-- Generated by graphviz version 2.43.0 (0)
 -->
<!-- Title: MeshConverter.cpp Pages: 1 -->
<svg width="1421pt" height="196pt"
 viewBox="0.00 0.00 1421.00 196.00" xmlns="http://www.w3.org/2000/svg" xmlns:xlink="http://www.w3.org/1999/xlink">
<g id="graph0" class="graph" transform="scale(1 1) rotate(0) translate(4 192)">
<title>MeshConverter.cpp</title>
<polygon fill="white" stroke="transparent" points="-4,4 -4,-192 1417,-192 1417,4 -4,4"/>
<!-- Node1 -->
<g id="node1" class="node">
<title>Node1</title>
<g id="a_node1"><a xlink:title=" ">
<polygon fill="#bfbfbf" stroke="black" points="625,-168.5 625,-187.5 735,-187.5 735,-168.5 625,-168.5"/>
<text text-anchor="middle" x="680" y="-175.5" font-family="Helvetica,sans-Serif" font-size="10.00">MeshConverter.cpp</text>
</a>
</g>
</g>
<!-- Node2 -->
<g id="node2" class="node">
<title>Node2</title>
<g id="a_node2"><a xlink:title=" ">
<polygon fill="white" stroke="#bfbfbf" points="0,-0.5 0,-19.5 64,-19.5 64,-0.5 0,-0.5"/>
<text text-anchor="middle" x="32" y="-7.5" font-family="Helvetica,sans-Serif" font-size="10.00">algorithm</text>
</a>
</g>
</g>
<!-- Node1&#45;&gt;Node2 -->
<g id="edge1" class="edge">
<title>Node1&#45;&gt;Node2</title>
<path fill="none" stroke="midnightblue" d="M624.72,-177.53C543.62,-176.87 388.41,-170.11 263,-132 179.99,-106.78 91.81,-51.51 52.72,-25.32"/>
<polygon fill="midnightblue" stroke="midnightblue" points="54.54,-22.32 44.29,-19.61 50.61,-28.11 54.54,-22.32"/>
</g>
<!-- Node3 -->
<g id="node3" class="node">
<title>Node3</title>
<g id="a_node3"><a xlink:href="_mesh_adapt_p_u_m_i_8h.html" target="_top" xlink:title=" ">
<polygon fill="white" stroke="black" points="457,-112.5 457,-131.5 563,-131.5 563,-112.5 457,-112.5"/>
<text text-anchor="middle" x="510" y="-119.5" font-family="Helvetica,sans-Serif" font-size="10.00">MeshAdaptPUMI.h</text>
</a>
</g>
</g>
<!-- Node1&#45;&gt;Node3 -->
<g id="edge2" class="edge">
<title>Node1&#45;&gt;Node3</title>
<path fill="none" stroke="midnightblue" d="M653.06,-168.44C624.34,-159.32 578.67,-144.81 546.68,-134.65"/>
<polygon fill="midnightblue" stroke="midnightblue" points="547.4,-131.21 536.81,-131.52 545.28,-137.88 547.4,-131.21"/>
</g>
<!-- Node4 -->
<g id="node4" class="node">
<title>Node4</title>
<g id="a_node4"><a xlink:href="mesh_8h.html" target="_top" xlink:title=" ">
<polygon fill="white" stroke="black" points="271.5,-56.5 271.5,-75.5 324.5,-75.5 324.5,-56.5 271.5,-56.5"/>
<text text-anchor="middle" x="298" y="-63.5" font-family="Helvetica,sans-Serif" font-size="10.00">mesh.h</text>
</a>
</g>
</g>
<!-- Node1&#45;&gt;Node4 -->
<g id="edge21" class="edge">
<title>Node1&#45;&gt;Node4</title>
<path fill="none" stroke="midnightblue" d="M624.89,-175.34C540.76,-171.89 385.2,-161.59 339,-132 322.02,-121.13 310.8,-100.44 304.46,-85.31"/>
<polygon fill="midnightblue" stroke="midnightblue" points="307.7,-83.99 300.83,-75.92 301.17,-86.51 307.7,-83.99"/>
</g>
<!-- Node7 -->
<g id="node7" class="node">
<title>Node7</title>
<g id="a_node7"><a xlink:title=" ">
<polygon fill="white" stroke="#bfbfbf" points="82,-0.5 82,-19.5 120,-19.5 120,-0.5 82,-0.5"/>
<text text-anchor="middle" x="101" y="-7.5" font-family="Helvetica,sans-Serif" font-size="10.00">map</text>
</a>
</g>
</g>
<!-- Node1&#45;&gt;Node7 -->
<g id="edge28" class="edge">
<title>Node1&#45;&gt;Node7</title>
<path fill="none" stroke="midnightblue" d="M624.91,-176.78C552.33,-175.02 421.55,-166.72 316,-132 238.36,-106.46 157,-51.76 120.61,-25.57"/>
<polygon fill="midnightblue" stroke="midnightblue" points="122.5,-22.61 112.36,-19.56 118.38,-28.27 122.5,-22.61"/>
</g>
<!-- Node12 -->
<g id="node12" class="node">
<title>Node12</title>
<g id="a_node12"><a xlink:title=" ">
<polygon fill="white" stroke="#bfbfbf" points="595,-0.5 595,-19.5 647,-19.5 647,-0.5 595,-0.5"/>
<text text-anchor="middle" x="621" y="-7.5" font-family="Helvetica,sans-Serif" font-size="10.00">cassert</text>
</a>
</g>
</g>
<!-- Node1&#45;&gt;Node12 -->
<g id="edge34" class="edge">
<title>Node1&#45;&gt;Node12</title>
<path fill="none" stroke="midnightblue" d="M624.97,-172.09C558.79,-165.41 452.31,-151.95 418,-132 390.15,-115.81 382.86,-106.32 372,-76 369,-67.63 366.26,-62.79 372,-56 401.44,-21.19 524.3,-28.97 584.83,-19.8"/>
<polygon fill="midnightblue" stroke="midnightblue" points="585.46,-23.24 594.68,-18.02 584.22,-16.35 585.46,-23.24"/>
</g>
<!-- Node14 -->
<g id="node14" class="node">
<title>Node14</title>
<g id="a_node14"><a xlink:title=" ">
<polygon fill="white" stroke="#bfbfbf" points="381.5,-56.5 381.5,-75.5 422.5,-75.5 422.5,-56.5 381.5,-56.5"/>
<text text-anchor="middle" x="402" y="-63.5" font-family="Helvetica,sans-Serif" font-size="10.00">apf.h</text>
</a>
</g>
</g>
<!-- Node1&#45;&gt;Node14 -->
<g id="edge26" class="edge">
<title>Node1&#45;&gt;Node14</title>
<path fill="none" stroke="midnightblue" d="M624.74,-171.97C563.38,-165.48 469.11,-152.5 440,-132 424,-120.74 413.72,-100.42 407.94,-85.49"/>
<polygon fill="midnightblue" stroke="midnightblue" points="411.14,-84.05 404.51,-75.78 404.54,-86.38 411.14,-84.05"/>
</g>
<!-- Node15 -->
<g id="node15" class="node">
<title>Node15</title>
<g id="a_node15"><a xlink:title=" ">
<polygon fill="white" stroke="#bfbfbf" points="441,-56.5 441,-75.5 515,-75.5 515,-56.5 441,-56.5"/>
<text text-anchor="middle" x="478" y="-63.5" font-family="Helvetica,sans-Serif" font-size="10.00">apfMesh2.h</text>
</a>
</g>
</g>
<!-- Node1&#45;&gt;Node15 -->
<g id="edge25" class="edge">
<title>Node1&#45;&gt;Node15</title>
<path fill="none" stroke="midnightblue" d="M624.93,-174.17C563.54,-169.73 469.99,-158.67 448,-132 435.97,-117.41 448.83,-97.21 461.25,-83.21"/>
<polygon fill="midnightblue" stroke="midnightblue" points="463.97,-85.44 468.32,-75.78 458.89,-80.61 463.97,-85.44"/>
</g>
<!-- Node16 -->
<g id="node16" class="node">
<title>Node16</title>
<g id="a_node16"><a xlink:title=" ">
<polygon fill="white" stroke="#bfbfbf" points="753.5,-56.5 753.5,-75.5 848.5,-75.5 848.5,-56.5 753.5,-56.5"/>
<text text-anchor="middle" x="801" y="-63.5" font-family="Helvetica,sans-Serif" font-size="10.00">apfNumbering.h</text>
</a>
</g>
</g>
<!-- Node1&#45;&gt;Node16 -->
<g id="edge27" class="edge">
<title>Node1&#45;&gt;Node16</title>
<path fill="none" stroke="midnightblue" d="M658,-168.43C631.31,-156.77 591.98,-134.75 610,-112 618.42,-101.37 690.26,-86.55 743.37,-76.87"/>
<polygon fill="midnightblue" stroke="midnightblue" points="744.17,-80.28 753.39,-75.06 742.92,-73.39 744.17,-80.28"/>
</g>
<!-- Node20 -->
<g id="node20" class="node">
<title>Node20</title>
<g id="a_node20"><a xlink:title=" ">
<polygon fill="white" stroke="#bfbfbf" points="619,-112.5 619,-131.5 665,-131.5 665,-112.5 619,-112.5"/>
<text text-anchor="middle" x="642" y="-119.5" font-family="Helvetica,sans-Serif" font-size="10.00">PCU.h</text>
</a>
</g>
</g>
<!-- Node1&#45;&gt;Node20 -->
<g id="edge20" class="edge">
<title>Node1&#45;&gt;Node20</title>
<path fill="none" stroke="midnightblue" d="M673.73,-168.08C668.36,-160.46 660.48,-149.26 653.92,-139.94"/>
<polygon fill="midnightblue" stroke="midnightblue" points="656.78,-137.91 648.16,-131.75 651.05,-141.94 656.78,-137.91"/>
</g>
<!-- Node21 -->
<g id="node21" class="node">
<title>Node21</title>
<g id="a_node21"><a xlink:title=" ">
<polygon fill="white" stroke="#bfbfbf" points="683.5,-112.5 683.5,-131.5 754.5,-131.5 754.5,-112.5 683.5,-112.5"/>
<text text-anchor="middle" x="719" y="-119.5" font-family="Helvetica,sans-Serif" font-size="10.00">apfShape.h</text>
</a>
</g>
</g>
<!-- Node1&#45;&gt;Node21 -->
<g id="edge22" class="edge">
<title>Node1&#45;&gt;Node21</title>
<path fill="none" stroke="midnightblue" d="M686.44,-168.08C691.95,-160.46 700.03,-149.26 706.76,-139.94"/>
<polygon fill="midnightblue" stroke="midnightblue" points="709.66,-141.91 712.68,-131.75 703.99,-137.81 709.66,-141.91"/>
</g>
<!-- Node22 -->
<g id="node22" class="node">
<title>Node22</title>
<g id="a_node22"><a xlink:title=" ">
<polygon fill="white" stroke="#bfbfbf" points="773,-112.5 773,-131.5 829,-131.5 829,-112.5 773,-112.5"/>
<text text-anchor="middle" x="801" y="-119.5" font-family="Helvetica,sans-Serif" font-size="10.00">sstream</text>
</a>
</g>
</g>
<!-- Node1&#45;&gt;Node22 -->
<g id="edge23" class="edge">
<title>Node1&#45;&gt;Node22</title>
<path fill="none" stroke="midnightblue" d="M699.17,-168.44C718.91,-159.64 749.89,-145.81 772.49,-135.72"/>
<polygon fill="midnightblue" stroke="midnightblue" points="774.21,-138.79 781.92,-131.52 771.36,-132.4 774.21,-138.79"/>
</g>
<!-- Node23 -->
<g id="node23" class="node">
<title>Node23</title>
<g id="a_node23"><a xlink:title=" ">
<polygon fill="white" stroke="#bfbfbf" points="847,-112.5 847,-131.5 927,-131.5 927,-112.5 847,-112.5"/>
<text text-anchor="middle" x="887" y="-119.5" font-family="Helvetica,sans-Serif" font-size="10.00">apfConvert.h</text>
</a>
</g>
</g>
<!-- Node1&#45;&gt;Node23 -->
<g id="edge24" class="edge">
<title>Node1&#45;&gt;Node23</title>
<path fill="none" stroke="midnightblue" d="M712.8,-168.44C748.38,-159.16 805.31,-144.31 844.35,-134.13"/>
<polygon fill="midnightblue" stroke="midnightblue" points="845.56,-137.43 854.35,-131.52 843.79,-130.65 845.56,-137.43"/>
</g>
<!-- Node24 -->
<g id="node24" class="node">
<title>Node24</title>
<g id="a_node24"><a xlink:title=" ">
<polygon fill="white" stroke="#bfbfbf" points="945,-112.5 945,-131.5 1013,-131.5 1013,-112.5 945,-112.5"/>
<text text-anchor="middle" x="979" y="-119.5" font-family="Helvetica,sans-Serif" font-size="10.00">gmi_null.h</text>
</a>
</g>
</g>
<!-- Node1&#45;&gt;Node24 -->
<g id="edge29" class="edge">
<title>Node1&#45;&gt;Node24</title>
<path fill="none" stroke="midnightblue" d="M731.58,-168.44C781.11,-160.1 858.33,-146.81 934.5,-132.24"/>
<polygon fill="midnightblue" stroke="midnightblue" points="935.59,-135.6 944.75,-130.27 934.27,-128.72 935.59,-135.6"/>
</g>
<!-- Node25 -->
<g id="node25" class="node">
<title>Node25</title>
<g id="a_node25"><a xlink:title=" ">
<polygon fill="white" stroke="#bfbfbf" points="1031.5,-112.5 1031.5,-131.5 1108.5,-131.5 1108.5,-112.5 1031.5,-112.5"/>
<text text-anchor="middle" x="1070" y="-119.5" font-family="Helvetica,sans-Serif" font-size="10.00">gmi_mesh.h</text>
</a>
</g>
</g>
<!-- Node1&#45;&gt;Node25 -->
<g id="edge30" class="edge">
<title>Node1&#45;&gt;Node25</title>
<path fill="none" stroke="midnightblue" d="M735.22,-170.67C800.89,-162.94 914.05,-148.95 1021.24,-132.04"/>
<polygon fill="midnightblue" stroke="midnightblue" points="1021.93,-135.48 1031.26,-130.45 1020.83,-128.56 1021.93,-135.48"/>
</g>
<!-- Node26 -->
<g id="node26" class="node">
<title>Node26</title>
<g id="a_node26"><a xlink:title=" ">
<polygon fill="white" stroke="#bfbfbf" points="1127,-112.5 1127,-131.5 1171,-131.5 1171,-112.5 1127,-112.5"/>
<text text-anchor="middle" x="1149" y="-119.5" font-family="Helvetica,sans-Serif" font-size="10.00">gmi.h</text>
</a>
</g>
</g>
<!-- Node1&#45;&gt;Node26 -->
<g id="edge31" class="edge">
<title>Node1&#45;&gt;Node26</title>
<path fill="none" stroke="midnightblue" d="M735.09,-174.53C816.62,-170.17 974.21,-159.08 1116.55,-131.96"/>
<polygon fill="midnightblue" stroke="midnightblue" points="1117.62,-135.31 1126.77,-129.97 1116.28,-128.44 1117.62,-135.31"/>
</g>
<!-- Node27 -->
<g id="node27" class="node">
<title>Node27</title>
<g id="a_node27"><a xlink:title=" ">
<polygon fill="white" stroke="#bfbfbf" points="1189,-112.5 1189,-131.5 1253,-131.5 1253,-112.5 1189,-112.5"/>
<text text-anchor="middle" x="1221" y="-119.5" font-family="Helvetica,sans-Serif" font-size="10.00">apfMDS.h</text>
</a>
</g>
</g>
<!-- Node1&#45;&gt;Node27 -->
<g id="edge32" class="edge">
<title>Node1&#45;&gt;Node27</title>
<path fill="none" stroke="midnightblue" d="M735.02,-174.33C825.6,-169.42 1011.89,-157.25 1178.89,-131.99"/>
<polygon fill="midnightblue" stroke="midnightblue" points="1179.49,-135.44 1188.84,-130.46 1178.43,-128.52 1179.49,-135.44"/>
</g>
<!-- Node28 -->
<g id="node28" class="node">
<title>Node28</title>
<g id="a_node28"><a xlink:title=" ">
<polygon fill="white" stroke="#bfbfbf" points="1271.5,-112.5 1271.5,-131.5 1312.5,-131.5 1312.5,-112.5 1271.5,-112.5"/>
<text text-anchor="middle" x="1292" y="-119.5" font-family="Helvetica,sans-Serif" font-size="10.00">ma.h</text>
</a>
</g>
</g>
<!-- Node1&#45;&gt;Node28 -->
<g id="edge33" class="edge">
<title>Node1&#45;&gt;Node28</title>
<path fill="none" stroke="midnightblue" d="M735.07,-176.66C837.26,-175.17 1063.06,-167.91 1261.46,-131.65"/>
<polygon fill="midnightblue" stroke="midnightblue" points="1262.29,-135.05 1271.49,-129.79 1261.02,-128.17 1262.29,-135.05"/>
</g>
<!-- Node29 -->
<g id="node29" class="node">
<title>Node29</title>
<g id="a_node29"><a xlink:title=" ">
<polygon fill="white" stroke="#bfbfbf" points="1331,-112.5 1331,-131.5 1413,-131.5 1413,-112.5 1331,-112.5"/>
<text text-anchor="middle" x="1372" y="-119.5" font-family="Helvetica,sans-Serif" font-size="10.00">gmi_lookup.h</text>
</a>
</g>
</g>
<!-- Node1&#45;&gt;Node29 -->
<g id="edge35" class="edge">
<title>Node1&#45;&gt;Node29</title>
<path fill="none" stroke="midnightblue" d="M735.16,-175.14C844.78,-171.02 1097.98,-159.32 1320.61,-132.04"/>
<polygon fill="midnightblue" stroke="midnightblue" points="1321.36,-135.47 1330.85,-130.77 1320.5,-128.53 1321.36,-135.47"/>
</g>
<!-- Node3&#45;&gt;Node4 -->
<g id="edge3" class="edge">
<title>Node3&#45;&gt;Node4</title>
<path fill="none" stroke="midnightblue" d="M476.41,-112.44C437.74,-102.59 374.45,-86.47 334.57,-76.32"/>
<polygon fill="midnightblue" stroke="midnightblue" points="335.28,-72.88 324.72,-73.81 333.55,-79.67 335.28,-72.88"/>
</g>
<!-- Node3&#45;&gt;Node14 -->
<g id="edge14" class="edge">
<title>Node3&#45;&gt;Node14</title>
<path fill="none" stroke="midnightblue" d="M492.65,-112.32C475.33,-103.66 448.48,-90.24 428.5,-80.25"/>
<polygon fill="midnightblue" stroke="midnightblue" points="429.82,-77 419.31,-75.65 426.69,-83.26 429.82,-77"/>
</g>
<!-- Node3&#45;&gt;Node15 -->
<g id="edge15" class="edge">
<title>Node3&#45;&gt;Node15</title>
<path fill="none" stroke="midnightblue" d="M504.72,-112.08C500.29,-104.61 493.84,-93.72 488.38,-84.52"/>
<polygon fill="midnightblue" stroke="midnightblue" points="491.29,-82.57 483.19,-75.75 485.27,-86.14 491.29,-82.57"/>
</g>
<!-- Node3&#45;&gt;Node16 -->
<g id="edge16" class="edge">
<title>Node3&#45;&gt;Node16</title>
<path fill="none" stroke="midnightblue" d="M556.11,-112.44C607.41,-102.92 690.27,-87.55 745.19,-77.36"/>
<polygon fill="midnightblue" stroke="midnightblue" points="745.91,-80.78 755.11,-75.52 744.64,-73.9 745.91,-80.78"/>
</g>
<!-- Node17 -->
<g id="node17" class="node">
<title>Node17</title>
<g id="a_node17"><a xlink:title=" ">
<polygon fill="white" stroke="#bfbfbf" points="533.5,-56.5 533.5,-75.5 580.5,-75.5 580.5,-56.5 533.5,-56.5"/>
<text text-anchor="middle" x="557" y="-63.5" font-family="Helvetica,sans-Serif" font-size="10.00">queue</text>
</a>
</g>
</g>
<!-- Node3&#45;&gt;Node17 -->
<g id="edge17" class="edge">
<title>Node3&#45;&gt;Node17</title>
<path fill="none" stroke="midnightblue" d="M517.76,-112.08C524.54,-104.3 534.54,-92.8 542.76,-83.37"/>
<polygon fill="midnightblue" stroke="midnightblue" points="545.46,-85.59 549.38,-75.75 540.18,-81 545.46,-85.59"/>
</g>
<!-- Node18 -->
<g id="node18" class="node">
<title>Node18</title>
<g id="a_node18"><a xlink:href="_py_embedded_functions_8h.html" target="_top" xlink:title=" ">
<polygon fill="white" stroke="black" points="599,-56.5 599,-75.5 735,-75.5 735,-56.5 599,-56.5"/>
<text text-anchor="middle" x="667" y="-63.5" font-family="Helvetica,sans-Serif" font-size="10.00">PyEmbeddedFunctions.h</text>
</a>
</g>
</g>
<!-- Node3&#45;&gt;Node18 -->
<g id="edge18" class="edge">
<title>Node3&#45;&gt;Node18</title>
<path fill="none" stroke="midnightblue" d="M534.88,-112.44C561.29,-103.36 603.22,-88.94 632.74,-78.78"/>
<polygon fill="midnightblue" stroke="midnightblue" points="633.92,-82.08 642.24,-75.52 631.64,-75.46 633.92,-82.08"/>
</g>
<!-- Node4&#45;&gt;Node2 -->
<g id="edge6" class="edge">
<title>Node4&#45;&gt;Node2</title>
<path fill="none" stroke="midnightblue" d="M271.3,-59.83C230.86,-51.96 151.41,-36.35 74.12,-20.21"/>
<polygon fill="midnightblue" stroke="midnightblue" points="74.72,-16.76 64.22,-18.13 73.29,-23.61 74.72,-16.76"/>
</g>
<!-- Node5 -->
<g id="node5" class="node">
<title>Node5</title>
<g id="a_node5"><a xlink:title=" ">
<polygon fill="white" stroke="#bfbfbf" points="138,-0.5 138,-19.5 170,-19.5 170,-0.5 138,-0.5"/>
<text text-anchor="middle" x="154" y="-7.5" font-family="Helvetica,sans-Serif" font-size="10.00">set</text>
</a>
</g>
</g>
<!-- Node4&#45;&gt;Node5 -->
<g id="edge4" class="edge">
<title>Node4&#45;&gt;Node5</title>
<path fill="none" stroke="midnightblue" d="M275.18,-56.44C249.16,-46.69 206.73,-30.77 179.6,-20.6"/>
<polygon fill="midnightblue" stroke="midnightblue" points="180.61,-17.24 170.02,-17.01 178.16,-23.8 180.61,-17.24"/>
</g>
<!-- Node6 -->
<g id="node6" class="node">
<title>Node6</title>
<g id="a_node6"><a xlink:title=" ">
<polygon fill="white" stroke="#bfbfbf" points="188.5,-0.5 188.5,-19.5 235.5,-19.5 235.5,-0.5 188.5,-0.5"/>
<text text-anchor="middle" x="212" y="-7.5" font-family="Helvetica,sans-Serif" font-size="10.00">vector</text>
</a>
</g>
</g>
<!-- Node4&#45;&gt;Node6 -->
<g id="edge5" class="edge">
<title>Node4&#45;&gt;Node6</title>
<path fill="none" stroke="midnightblue" d="M284.18,-56.32C270.77,-47.9 250.18,-34.97 234.41,-25.07"/>
<polygon fill="midnightblue" stroke="midnightblue" points="236.11,-22.01 225.78,-19.65 232.39,-27.94 236.11,-22.01"/>
</g>
<!-- Node4&#45;&gt;Node7 -->
<g id="edge7" class="edge">
<title>Node4&#45;&gt;Node7</title>
<path fill="none" stroke="midnightblue" d="M271.25,-58.32C239.66,-50.34 185.32,-36.31 129.87,-20.15"/>
<polygon fill="midnightblue" stroke="midnightblue" points="130.82,-16.78 120.24,-17.33 128.85,-23.5 130.82,-16.78"/>
</g>
<!-- Node8 -->
<g id="node8" class="node">
<title>Node8</title>
<g id="a_node8"><a xlink:title=" ">
<polygon fill="white" stroke="#bfbfbf" points="254,-0.5 254,-19.5 286,-19.5 286,-0.5 254,-0.5"/>
<text text-anchor="middle" x="270" y="-7.5" font-family="Helvetica,sans-Serif" font-size="10.00">list</text>
</a>
</g>
</g>
<!-- Node4&#45;&gt;Node8 -->
<g id="edge8" class="edge">
<title>Node4&#45;&gt;Node8</title>
<path fill="none" stroke="midnightblue" d="M293.38,-56.08C289.54,-48.69 283.98,-37.95 279.24,-28.81"/>
<polygon fill="midnightblue" stroke="midnightblue" points="282.25,-27.02 274.54,-19.75 276.03,-30.24 282.25,-27.02"/>
</g>
<!-- Node9 -->
<g id="node9" class="node">
<title>Node9</title>
<g id="a_node9"><a xlink:title=" ">
<polygon fill="white" stroke="#bfbfbf" points="304,-0.5 304,-19.5 364,-19.5 364,-0.5 304,-0.5"/>
<text text-anchor="middle" x="334" y="-7.5" font-family="Helvetica,sans-Serif" font-size="10.00">iostream</text>
</a>
</g>
</g>
<!-- Node4&#45;&gt;Node9 -->
<g id="edge9" class="edge">
<title>Node4&#45;&gt;Node9</title>
<path fill="none" stroke="midnightblue" d="M303.94,-56.08C308.98,-48.53 316.34,-37.49 322.51,-28.23"/>
<polygon fill="midnightblue" stroke="midnightblue" points="325.53,-30.01 328.17,-19.75 319.71,-26.13 325.53,-30.01"/>
</g>
<!-- Node10 -->
<g id="node10" class="node">
<title>Node10</title>
<g id="a_node10"><a xlink:title=" ">
<polygon fill="white" stroke="#bfbfbf" points="382,-0.5 382,-19.5 438,-19.5 438,-0.5 382,-0.5"/>
<text text-anchor="middle" x="410" y="-7.5" font-family="Helvetica,sans-Serif" font-size="10.00">iomanip</text>
</a>
</g>
</g>
<!-- Node4&#45;&gt;Node10 -->
<g id="edge10" class="edge">
<title>Node4&#45;&gt;Node10</title>
<path fill="none" stroke="midnightblue" d="M315.99,-56.32C334.04,-47.62 362.05,-34.12 382.8,-24.11"/>
<polygon fill="midnightblue" stroke="midnightblue" points="384.56,-27.15 392.05,-19.65 381.52,-20.84 384.56,-27.15"/>
</g>
<!-- Node11 -->
<g id="node11" class="node">
<title>Node11</title>
<g id="a_node11"><a xlink:title=" ">
<polygon fill="white" stroke="#bfbfbf" points="456.5,-0.5 456.5,-19.5 511.5,-19.5 511.5,-0.5 456.5,-0.5"/>
<text text-anchor="middle" x="484" y="-7.5" font-family="Helvetica,sans-Serif" font-size="10.00">fstream</text>
</a>
</g>
</g>
<!-- Node4&#45;&gt;Node11 -->
<g id="edge11" class="edge">
<title>Node4&#45;&gt;Node11</title>
<path fill="none" stroke="midnightblue" d="M324.65,-57.26C356.69,-47.96 410.67,-32.29 446.8,-21.8"/>
<polygon fill="midnightblue" stroke="midnightblue" points="447.86,-25.14 456.49,-18.99 445.91,-18.41 447.86,-25.14"/>
</g>
<!-- Node4&#45;&gt;Node12 -->
<g id="edge12" class="edge">
<title>Node4&#45;&gt;Node12</title>
<path fill="none" stroke="midnightblue" d="M324.85,-58.82C329.56,-57.82 334.41,-56.84 339,-56 444.94,-36.68 475.46,-41.53 584.6,-20.1"/>
<polygon fill="midnightblue" stroke="midnightblue" points="585.57,-23.47 594.7,-18.09 584.2,-16.61 585.57,-23.47"/>
</g>
<!-- Node13 -->
<g id="node13" class="node">
<title>Node13</title>
<g id="a_node13"><a xlink:title=" ">
<polygon fill="white" stroke="#bfbfbf" points="529.5,-0.5 529.5,-19.5 576.5,-19.5 576.5,-0.5 529.5,-0.5"/>
<text text-anchor="middle" x="553" y="-7.5" font-family="Helvetica,sans-Serif" font-size="10.00">cmath</text>
</a>
</g>
</g>
<!-- Node4&#45;&gt;Node13 -->
<g id="edge13" class="edge">
<title>Node4&#45;&gt;Node13</title>
<path fill="none" stroke="midnightblue" d="M324.89,-59.02C329.59,-57.99 334.43,-56.95 339,-56 416.15,-39.86 438.44,-38.86 519.12,-20.07"/>
<polygon fill="midnightblue" stroke="midnightblue" points="520.32,-23.38 529.26,-17.69 518.72,-16.57 520.32,-23.38"/>
</g>
<!-- Node19 -->
<g id="node19" class="node">
<title>Node19</title>
<g id="a_node19"><a xlink:title=" ">
<polygon fill="white" stroke="#bfbfbf" points="665.5,-0.5 665.5,-19.5 724.5,-19.5 724.5,-0.5 665.5,-0.5"/>
<text text-anchor="middle" x="695" y="-7.5" font-family="Helvetica,sans-Serif" font-size="10.00">Python.h</text>
</a>
</g>
</g>
<!-- Node18&#45;&gt;Node19 -->
<g id="edge19" class="edge">
<title>Node18&#45;&gt;Node19</title>
<path fill="none" stroke="midnightblue" d="M671.62,-56.08C675.46,-48.69 681.02,-37.95 685.76,-28.81"/>
<polygon fill="midnightblue" stroke="midnightblue" points="688.97,-30.24 690.46,-19.75 682.75,-27.02 688.97,-30.24"/>
</g>
</g>
</svg>
