<?xml version="1.0" encoding="UTF-8" standalone="no"?>
<!DOCTYPE svg PUBLIC "-//W3C//DTD SVG 1.1//EN"
 "http://www.w3.org/Graphics/SVG/1.1/DTD/svg11.dtd">
<!-- Generated by graphviz version 2.40.1 (20161225.0304)
 -->
<!-- Title: MixedModelFactory.h Pages: 1 -->
<svg width="192pt" height="140pt"
 viewBox="0.00 0.00 191.50 140.00" xmlns="http://www.w3.org/2000/svg" xmlns:xlink="http://www.w3.org/1999/xlink">
<g id="graph0" class="graph" transform="scale(1 1) rotate(0) translate(4 136)">
<title>MixedModelFactory.h</title>
<polygon fill="#ffffff" stroke="transparent" points="-4,4 -4,-136 187.5,-136 187.5,4 -4,4"/>
<!-- Node2 -->
<g id="node1" class="node">
<title>Node2</title>
<polygon fill="#bfbfbf" stroke="#000000" points="33,-112.5 33,-131.5 143,-131.5 143,-112.5 33,-112.5"/>
<text text-anchor="middle" x="88" y="-119.5" font-family="Helvetica,sans-Serif" font-size="10.00" fill="#000000">MixedModelFactory.h</text>
</g>
<!-- Node3 -->
<g id="node2" class="node">
<title>Node3</title>
<g id="a_node2"><a xlink:href="_r_a_n_s2_p_8h.html" target="_top" xlink:title="RANS2P.h">
<polygon fill="#ffffff" stroke="#000000" points="10.5,-56.5 10.5,-75.5 75.5,-75.5 75.5,-56.5 10.5,-56.5"/>
<text text-anchor="middle" x="43" y="-63.5" font-family="Helvetica,sans-Serif" font-size="10.00" fill="#000000">RANS2P.h</text>
</a>
</g>
</g>
<!-- Node2&#45;&gt;Node3 -->
<g id="edge1" class="edge">
<title>Node2&#45;&gt;Node3</title>
<path fill="none" stroke="#191970" d="M73.7054,-104.2112C66.1004,-94.7472 57.0462,-83.4797 50.7486,-75.6427"/>
<polygon fill="#191970" stroke="#191970" points="71.1694,-106.6428 80.1616,-112.2455 76.6259,-102.2581 71.1694,-106.6428"/>
</g>
<!-- Node5 -->
<g id="node4" class="node">
<title>Node5</title>
<g id="a_node4"><a xlink:href="_r_a_n_s2_p2_d_8h.html" target="_top" xlink:title="RANS2P2D.h">
<polygon fill="#ffffff" stroke="#000000" points="97,-56.5 97,-75.5 175,-75.5 175,-56.5 97,-56.5"/>
<text text-anchor="middle" x="136" y="-63.5" font-family="Helvetica,sans-Serif" font-size="10.00" fill="#000000">RANS2P2D.h</text>
</a>
</g>
</g>
<!-- Node2&#45;&gt;Node5 -->
<g id="edge3" class="edge">
<title>Node2&#45;&gt;Node5</title>
<path fill="none" stroke="#191970" d="M102.9997,-104.5004C111.1622,-94.9775 120.9489,-83.5596 127.7349,-75.6427"/>
<polygon fill="#191970" stroke="#191970" points="100.2115,-102.3752 96.361,-112.2455 105.5263,-106.9307 100.2115,-102.3752"/>
</g>
<!-- Node4 -->
<g id="node3" class="node">
<title>Node4</title>
<g id="a_node3"><a xlink:href="_r_a_n_s2_p_8cpp.html" target="_top" xlink:title="RANS2P.cpp">
<polygon fill="#ffffff" stroke="#000000" points="0,-.5 0,-19.5 76,-19.5 76,-.5 0,-.5"/>
<text text-anchor="middle" x="38" y="-7.5" font-family="Helvetica,sans-Serif" font-size="10.00" fill="#000000">RANS2P.cpp</text>
</a>
</g>
</g>
<!-- Node3&#45;&gt;Node4 -->
<g id="edge2" class="edge">
<title>Node3&#45;&gt;Node4</title>
<path fill="none" stroke="#191970" d="M41.2283,-46.1575C40.4246,-37.155 39.5107,-26.9199 38.861,-19.6427"/>
<polygon fill="#191970" stroke="#191970" points="37.7535,-46.5965 42.1291,-56.2455 44.7258,-45.9739 37.7535,-46.5965"/>
</g>
<!-- Node6 -->
<g id="node5" class="node">
<title>Node6</title>
<g id="a_node5"><a xlink:href="_r_a_n_s2_p2_d_8cpp.html" target="_top" xlink:title="RANS2P2D.cpp">
<polygon fill="#ffffff" stroke="#000000" points="94.5,-.5 94.5,-19.5 183.5,-19.5 183.5,-.5 94.5,-.5"/>
<text text-anchor="middle" x="139" y="-7.5" font-family="Helvetica,sans-Serif" font-size="10.00" fill="#000000">RANS2P2D.cpp</text>
</a>
</g>
</g>
<!-- Node5&#45;&gt;Node6 -->
<g id="edge4" class="edge">
<title>Node5&#45;&gt;Node6</title>
<path fill="none" stroke="#191970" d="M137.063,-46.1575C137.5453,-37.155 138.0936,-26.9199 138.4834,-19.6427"/>
<polygon fill="#191970" stroke="#191970" points="133.5626,-46.0726 136.5226,-56.2455 140.5526,-46.4471 133.5626,-46.0726"/>
</g>
</g>
</svg>
