<?xml version="1.0" encoding="UTF-8" standalone="no"?>
<!DOCTYPE svg PUBLIC "-//W3C//DTD SVG 1.1//EN"
 "http://www.w3.org/Graphics/SVG/1.1/DTD/svg11.dtd">
<!-- Generated by graphviz version 2.44.1 (20200629.0846)
 -->
<!-- Title: ModelFactory.h Pages: 1 -->
<svg width="2632pt" height="140pt"
 viewBox="0.00 0.00 2631.50 140.00" xmlns="http://www.w3.org/2000/svg" xmlns:xlink="http://www.w3.org/1999/xlink">
<g id="graph0" class="graph" transform="scale(1 1) rotate(0) translate(4 136)">
<title>ModelFactory.h</title>
<polygon fill="white" stroke="transparent" points="-4,4 -4,-136 2627.5,-136 2627.5,4 -4,4"/>
<!-- Node1 -->
<g id="node1" class="node">
<title>Node1</title>
<g id="a_node1"><a xlink:title=" ">
<polygon fill="#bfbfbf" stroke="black" points="1346,-112.5 1346,-131.5 1429,-131.5 1429,-112.5 1346,-112.5"/>
<text text-anchor="middle" x="1387.5" y="-119.5" font-family="Helvetica,sans-Serif" font-size="10.00">ModelFactory.h</text>
</a>
</g>
</g>
<!-- Node2 -->
<g id="node2" class="node">
<title>Node2</title>
<g id="a_node2"><a xlink:href="_a_d_r_8h.html" target="_top" xlink:title=" ">
<polygon fill="white" stroke="black" points="18,-56.5 18,-75.5 65,-75.5 65,-56.5 18,-56.5"/>
<text text-anchor="middle" x="41.5" y="-63.5" font-family="Helvetica,sans-Serif" font-size="10.00">ADR.h</text>
</a>
</g>
</g>
<!-- Node1&#45;&gt;Node2 -->
<g id="edge1" class="edge">
<title>Node1&#45;&gt;Node2</title>
<path fill="none" stroke="midnightblue" d="M1335.55,-120.59C1124.24,-118.69 328.64,-109.45 79.5,-76 74.8,-75.37 69.82,-74.41 65.08,-73.35"/>
<polygon fill="midnightblue" stroke="midnightblue" points="1335.72,-124.09 1345.75,-120.68 1335.78,-117.09 1335.72,-124.09"/>
</g>
<!-- Node4 -->
<g id="node4" class="node">
<title>Node4</title>
<g id="a_node4"><a xlink:href="_elasto_plastic_8h.html" target="_top" xlink:title=" ">
<polygon fill="white" stroke="black" points="89,-56.5 89,-75.5 172,-75.5 172,-56.5 89,-56.5"/>
<text text-anchor="middle" x="130.5" y="-63.5" font-family="Helvetica,sans-Serif" font-size="10.00">ElastoPlastic.h</text>
</a>
</g>
</g>
<!-- Node1&#45;&gt;Node4 -->
<g id="edge3" class="edge">
<title>Node1&#45;&gt;Node4</title>
<path fill="none" stroke="midnightblue" d="M1335.41,-121.02C1168.69,-120.65 633.29,-116.18 192.5,-76 185.89,-75.4 178.91,-74.57 172.12,-73.66"/>
<polygon fill="midnightblue" stroke="midnightblue" points="1335.85,-124.52 1345.86,-121.04 1335.86,-117.52 1335.85,-124.52"/>
</g>
<!-- Node6 -->
<g id="node6" class="node">
<title>Node6</title>
<g id="a_node6"><a xlink:href="_added_mass_8h.html" target="_top" xlink:title=" ">
<polygon fill="white" stroke="black" points="202,-56.5 202,-75.5 279,-75.5 279,-56.5 202,-56.5"/>
<text text-anchor="middle" x="240.5" y="-63.5" font-family="Helvetica,sans-Serif" font-size="10.00">AddedMass.h</text>
</a>
</g>
</g>
<!-- Node1&#45;&gt;Node6 -->
<g id="edge5" class="edge">
<title>Node1&#45;&gt;Node6</title>
<path fill="none" stroke="midnightblue" d="M1335.55,-120.93C1178.67,-120.26 696.14,-114.94 298.5,-76 292.21,-75.38 285.57,-74.54 279.11,-73.61"/>
<polygon fill="midnightblue" stroke="midnightblue" points="1335.83,-124.43 1345.84,-120.97 1335.85,-117.43 1335.83,-124.43"/>
</g>
<!-- Node8 -->
<g id="node8" class="node">
<title>Node8</title>
<g id="a_node8"><a xlink:href="_c_l_s_v_o_f_8h.html" target="_top" xlink:title=" ">
<polygon fill="white" stroke="black" points="308,-56.5 308,-75.5 371,-75.5 371,-56.5 308,-56.5"/>
<text text-anchor="middle" x="339.5" y="-63.5" font-family="Helvetica,sans-Serif" font-size="10.00">CLSVOF.h</text>
</a>
</g>
</g>
<!-- Node1&#45;&gt;Node8 -->
<g id="edge7" class="edge">
<title>Node1&#45;&gt;Node8</title>
<path fill="none" stroke="midnightblue" d="M1335.39,-121.02C1187.12,-120.57 750.42,-115.71 390.5,-76 384.24,-75.31 377.6,-74.32 371.24,-73.26"/>
<polygon fill="midnightblue" stroke="midnightblue" points="1335.55,-124.52 1345.56,-121.05 1335.57,-117.52 1335.55,-124.52"/>
</g>
<!-- Node10 -->
<g id="node10" class="node">
<title>Node10</title>
<g id="a_node10"><a xlink:href="_dissipation_8h.html" target="_top" xlink:title=" ">
<polygon fill="white" stroke="black" points="399.5,-56.5 399.5,-75.5 473.5,-75.5 473.5,-56.5 399.5,-56.5"/>
<text text-anchor="middle" x="436.5" y="-63.5" font-family="Helvetica,sans-Serif" font-size="10.00">Dissipation.h</text>
</a>
</g>
</g>
<!-- Node1&#45;&gt;Node10 -->
<g id="edge9" class="edge">
<title>Node1&#45;&gt;Node10</title>
<path fill="none" stroke="midnightblue" d="M1335.7,-120.32C1198.16,-118.08 812.5,-109.12 493.5,-76 487.02,-75.33 480.16,-74.42 473.53,-73.43"/>
<polygon fill="midnightblue" stroke="midnightblue" points="1335.89,-123.82 1345.94,-120.48 1336,-116.82 1335.89,-123.82"/>
</g>
<!-- Node12 -->
<g id="node12" class="node">
<title>Node12</title>
<g id="a_node12"><a xlink:href="_dissipation2_d_8h.html" target="_top" xlink:title=" ">
<polygon fill="white" stroke="black" points="502.5,-56.5 502.5,-75.5 588.5,-75.5 588.5,-56.5 502.5,-56.5"/>
<text text-anchor="middle" x="545.5" y="-63.5" font-family="Helvetica,sans-Serif" font-size="10.00">Dissipation2D.h</text>
</a>
</g>
</g>
<!-- Node1&#45;&gt;Node12 -->
<g id="edge11" class="edge">
<title>Node1&#45;&gt;Node12</title>
<path fill="none" stroke="midnightblue" d="M1335.52,-119.51C1210.19,-115.59 881.53,-103.34 608.5,-76 602.12,-75.36 595.4,-74.55 588.82,-73.68"/>
<polygon fill="midnightblue" stroke="midnightblue" points="1335.5,-123.01 1345.6,-119.82 1335.72,-116.01 1335.5,-123.01"/>
</g>
<!-- Node14 -->
<g id="node14" class="node">
<title>Node14</title>
<g id="a_node14"><a xlink:href="_g_n___s_w2_d_c_v_8h.html" target="_top" xlink:title=" ">
<polygon fill="white" stroke="black" points="618,-56.5 618,-75.5 705,-75.5 705,-56.5 618,-56.5"/>
<text text-anchor="middle" x="661.5" y="-63.5" font-family="Helvetica,sans-Serif" font-size="10.00">GN_SW2DCV.h</text>
</a>
</g>
</g>
<!-- Node1&#45;&gt;Node14 -->
<g id="edge13" class="edge">
<title>Node1&#45;&gt;Node14</title>
<path fill="none" stroke="midnightblue" d="M1335.58,-118.79C1223.68,-113.73 951.52,-99.89 724.5,-76 718.24,-75.34 711.64,-74.53 705.17,-73.67"/>
<polygon fill="midnightblue" stroke="midnightblue" points="1335.76,-122.3 1345.9,-119.25 1336.07,-115.31 1335.76,-122.3"/>
</g>
<!-- Node16 -->
<g id="node16" class="node">
<title>Node16</title>
<g id="a_node16"><a xlink:href="_kappa_8h.html" target="_top" xlink:title=" ">
<polygon fill="white" stroke="black" points="734,-56.5 734,-75.5 787,-75.5 787,-56.5 734,-56.5"/>
<text text-anchor="middle" x="760.5" y="-63.5" font-family="Helvetica,sans-Serif" font-size="10.00">Kappa.h</text>
</a>
</g>
</g>
<!-- Node1&#45;&gt;Node16 -->
<g id="edge15" class="edge">
<title>Node1&#45;&gt;Node16</title>
<path fill="none" stroke="midnightblue" d="M1335.75,-119.01C1233.98,-114.64 1000.82,-102.44 806.5,-76 800.21,-75.14 793.48,-73.97 787.17,-72.76"/>
<polygon fill="midnightblue" stroke="midnightblue" points="1335.62,-122.5 1345.76,-119.43 1335.91,-115.51 1335.62,-122.5"/>
</g>
<!-- Node18 -->
<g id="node18" class="node">
<title>Node18</title>
<g id="a_node18"><a xlink:href="_kappa2_d_8h.html" target="_top" xlink:title=" ">
<polygon fill="white" stroke="black" points="816,-56.5 816,-75.5 881,-75.5 881,-56.5 816,-56.5"/>
<text text-anchor="middle" x="848.5" y="-63.5" font-family="Helvetica,sans-Serif" font-size="10.00">Kappa2D.h</text>
</a>
</g>
</g>
<!-- Node1&#45;&gt;Node18 -->
<g id="edge17" class="edge">
<title>Node1&#45;&gt;Node18</title>
<path fill="none" stroke="midnightblue" d="M1335.68,-117.94C1245.77,-112.25 1055.22,-98.54 895.5,-76 890.81,-75.34 885.88,-74.52 881.05,-73.66"/>
<polygon fill="midnightblue" stroke="midnightblue" points="1335.67,-121.44 1345.87,-118.57 1336.11,-114.46 1335.67,-121.44"/>
</g>
<!-- Node20 -->
<g id="node20" class="node">
<title>Node20</title>
<g id="a_node20"><a xlink:href="_m_corr_8h.html" target="_top" xlink:title=" ">
<polygon fill="white" stroke="black" points="905,-56.5 905,-75.5 956,-75.5 956,-56.5 905,-56.5"/>
<text text-anchor="middle" x="930.5" y="-63.5" font-family="Helvetica,sans-Serif" font-size="10.00">MCorr.h</text>
</a>
</g>
</g>
<!-- Node1&#45;&gt;Node20 -->
<g id="edge19" class="edge">
<title>Node1&#45;&gt;Node20</title>
<path fill="none" stroke="midnightblue" d="M1335.59,-117.9C1255.62,-112.59 1097.68,-99.91 965.5,-76 962.41,-75.44 959.2,-74.76 956.02,-74.02"/>
<polygon fill="midnightblue" stroke="midnightblue" points="1335.68,-121.42 1345.88,-118.58 1336.13,-114.43 1335.68,-121.42"/>
</g>
<!-- Node22 -->
<g id="node22" class="node">
<title>Node22</title>
<g id="a_node22"><a xlink:href="_m_corr3_p_8h.html" target="_top" xlink:title=" ">
<polygon fill="white" stroke="black" points="974.5,-56.5 974.5,-75.5 1036.5,-75.5 1036.5,-56.5 974.5,-56.5"/>
<text text-anchor="middle" x="1005.5" y="-63.5" font-family="Helvetica,sans-Serif" font-size="10.00">MCorr3P.h</text>
</a>
</g>
</g>
<!-- Node1&#45;&gt;Node22 -->
<g id="edge21" class="edge">
<title>Node1&#45;&gt;Node22</title>
<path fill="none" stroke="midnightblue" d="M1335.67,-115.66C1268.48,-108.4 1147.78,-94.2 1045.5,-76 1042.7,-75.5 1039.79,-74.94 1036.89,-74.34"/>
<polygon fill="midnightblue" stroke="midnightblue" points="1335.67,-119.18 1345.99,-116.76 1336.42,-112.22 1335.67,-119.18"/>
</g>
<!-- Node24 -->
<g id="node24" class="node">
<title>Node24</title>
<g id="a_node24"><a xlink:href="_move_mesh_8h.html" target="_top" xlink:title=" ">
<polygon fill="white" stroke="black" points="1055,-56.5 1055,-75.5 1128,-75.5 1128,-56.5 1055,-56.5"/>
<text text-anchor="middle" x="1091.5" y="-63.5" font-family="Helvetica,sans-Serif" font-size="10.00">MoveMesh.h</text>
</a>
</g>
</g>
<!-- Node1&#45;&gt;Node24 -->
<g id="edge23" class="edge">
<title>Node1&#45;&gt;Node24</title>
<path fill="none" stroke="midnightblue" d="M1335.85,-111.94C1285.27,-103.01 1206.03,-88.87 1137.5,-76 1134.46,-75.43 1131.31,-74.83 1128.15,-74.22"/>
<polygon fill="midnightblue" stroke="midnightblue" points="1335.43,-115.42 1345.88,-113.71 1336.64,-108.52 1335.43,-115.42"/>
</g>
<!-- Node26 -->
<g id="node26" class="node">
<title>Node26</title>
<g id="a_node26"><a xlink:href="_move_mesh2_d_8h.html" target="_top" xlink:title=" ">
<polygon fill="white" stroke="black" points="1146.5,-56.5 1146.5,-75.5 1232.5,-75.5 1232.5,-56.5 1146.5,-56.5"/>
<text text-anchor="middle" x="1189.5" y="-63.5" font-family="Helvetica,sans-Serif" font-size="10.00">MoveMesh2D.h</text>
</a>
</g>
</g>
<!-- Node1&#45;&gt;Node26 -->
<g id="edge25" class="edge">
<title>Node1&#45;&gt;Node26</title>
<path fill="none" stroke="midnightblue" d="M1346.06,-109.7C1308.69,-99.51 1254.56,-84.74 1220.73,-75.52"/>
<polygon fill="midnightblue" stroke="midnightblue" points="1345.56,-113.19 1356.13,-112.44 1347.4,-106.44 1345.56,-113.19"/>
</g>
<!-- Node28 -->
<g id="node28" class="node">
<title>Node28</title>
<g id="a_node28"><a xlink:href="_n_c_l_s_8h.html" target="_top" xlink:title=" ">
<polygon fill="white" stroke="black" points="1250.5,-56.5 1250.5,-75.5 1302.5,-75.5 1302.5,-56.5 1250.5,-56.5"/>
<text text-anchor="middle" x="1276.5" y="-63.5" font-family="Helvetica,sans-Serif" font-size="10.00">NCLS.h</text>
</a>
</g>
</g>
<!-- Node1&#45;&gt;Node28 -->
<g id="edge27" class="edge">
<title>Node1&#45;&gt;Node28</title>
<path fill="none" stroke="midnightblue" d="M1360.49,-107.86C1339.91,-97.85 1312.16,-84.35 1294.29,-75.65"/>
<polygon fill="midnightblue" stroke="midnightblue" points="1359.14,-111.1 1369.67,-112.32 1362.2,-104.8 1359.14,-111.1"/>
</g>
<!-- Node30 -->
<g id="node30" class="node">
<title>Node30</title>
<g id="a_node30"><a xlink:href="_n_c_l_s3_p_8h.html" target="_top" xlink:title=" ">
<polygon fill="white" stroke="black" points="1320.5,-56.5 1320.5,-75.5 1382.5,-75.5 1382.5,-56.5 1320.5,-56.5"/>
<text text-anchor="middle" x="1351.5" y="-63.5" font-family="Helvetica,sans-Serif" font-size="10.00">NCLS3P.h</text>
</a>
</g>
</g>
<!-- Node1&#45;&gt;Node30 -->
<g id="edge29" class="edge">
<title>Node1&#45;&gt;Node30</title>
<path fill="none" stroke="midnightblue" d="M1375.88,-103.57C1369.68,-94.27 1362.33,-83.25 1357.33,-75.75"/>
<polygon fill="midnightblue" stroke="midnightblue" points="1373.1,-105.7 1381.56,-112.08 1378.92,-101.82 1373.1,-105.7"/>
</g>
<!-- Node32 -->
<g id="node32" class="node">
<title>Node32</title>
<g id="a_node32"><a xlink:href="_pres_8h.html" target="_top" xlink:title=" ">
<polygon fill="white" stroke="black" points="1401,-56.5 1401,-75.5 1446,-75.5 1446,-56.5 1401,-56.5"/>
<text text-anchor="middle" x="1423.5" y="-63.5" font-family="Helvetica,sans-Serif" font-size="10.00">Pres.h</text>
</a>
</g>
</g>
<!-- Node1&#45;&gt;Node32 -->
<g id="edge31" class="edge">
<title>Node1&#45;&gt;Node32</title>
<path fill="none" stroke="midnightblue" d="M1399.12,-103.57C1405.32,-94.27 1412.67,-83.25 1417.67,-75.75"/>
<polygon fill="midnightblue" stroke="midnightblue" points="1396.08,-101.82 1393.44,-112.08 1401.9,-105.7 1396.08,-101.82"/>
</g>
<!-- Node34 -->
<g id="node34" class="node">
<title>Node34</title>
<g id="a_node34"><a xlink:href="_pres_inc_8h.html" target="_top" xlink:title=" ">
<polygon fill="white" stroke="black" points="1464,-56.5 1464,-75.5 1523,-75.5 1523,-56.5 1464,-56.5"/>
<text text-anchor="middle" x="1493.5" y="-63.5" font-family="Helvetica,sans-Serif" font-size="10.00">PresInc.h</text>
</a>
</g>
</g>
<!-- Node1&#45;&gt;Node34 -->
<g id="edge33" class="edge">
<title>Node1&#45;&gt;Node34</title>
<path fill="none" stroke="midnightblue" d="M1413.56,-107.73C1433.18,-97.73 1459.53,-84.31 1476.51,-75.65"/>
<polygon fill="midnightblue" stroke="midnightblue" points="1411.85,-104.67 1404.53,-112.32 1415.03,-110.9 1411.85,-104.67"/>
</g>
<!-- Node36 -->
<g id="node36" class="node">
<title>Node36</title>
<g id="a_node36"><a xlink:href="_pres_init_8h.html" target="_top" xlink:title=" ">
<polygon fill="white" stroke="black" points="1541,-56.5 1541,-75.5 1600,-75.5 1600,-56.5 1541,-56.5"/>
<text text-anchor="middle" x="1570.5" y="-63.5" font-family="Helvetica,sans-Serif" font-size="10.00">PresInit.h</text>
</a>
</g>
</g>
<!-- Node1&#45;&gt;Node36 -->
<g id="edge35" class="edge">
<title>Node1&#45;&gt;Node36</title>
<path fill="none" stroke="midnightblue" d="M1426.24,-109.57C1460.76,-99.38 1510.51,-84.7 1541.64,-75.52"/>
<polygon fill="midnightblue" stroke="midnightblue" points="1425.1,-106.26 1416.5,-112.44 1427.08,-112.97 1425.1,-106.26"/>
</g>
<!-- Node38 -->
<g id="node38" class="node">
<title>Node38</title>
<g id="a_node38"><a xlink:href="_r_a_n_s2_p___i_b_8h.html" target="_top" xlink:title=" ">
<polygon fill="white" stroke="black" points="1618.5,-56.5 1618.5,-75.5 1698.5,-75.5 1698.5,-56.5 1618.5,-56.5"/>
<text text-anchor="middle" x="1658.5" y="-63.5" font-family="Helvetica,sans-Serif" font-size="10.00">RANS2P_IB.h</text>
</a>
</g>
</g>
<!-- Node1&#45;&gt;Node38 -->
<g id="edge37" class="edge">
<title>Node1&#45;&gt;Node38</title>
<path fill="none" stroke="midnightblue" d="M1439.31,-110.68C1491.5,-100.28 1570.93,-84.45 1618.47,-74.98"/>
<polygon fill="midnightblue" stroke="midnightblue" points="1438.37,-107.29 1429.25,-112.68 1439.74,-114.16 1438.37,-107.29"/>
</g>
<!-- Node40 -->
<g id="node40" class="node">
<title>Node40</title>
<g id="a_node40"><a xlink:href="_r_a_n_s3_p_f_8h.html" target="_top" xlink:title=" ">
<polygon fill="white" stroke="black" points="1716.5,-56.5 1716.5,-75.5 1786.5,-75.5 1786.5,-56.5 1716.5,-56.5"/>
<text text-anchor="middle" x="1751.5" y="-63.5" font-family="Helvetica,sans-Serif" font-size="10.00">RANS3PF.h</text>
</a>
</g>
</g>
<!-- Node1&#45;&gt;Node40 -->
<g id="edge39" class="edge">
<title>Node1&#45;&gt;Node40</title>
<path fill="none" stroke="midnightblue" d="M1439.19,-114.73C1502.58,-106.82 1613.23,-92.25 1707.5,-76 1710.42,-75.5 1713.44,-74.94 1716.47,-74.37"/>
<polygon fill="midnightblue" stroke="midnightblue" points="1438.54,-111.29 1429.05,-115.99 1439.41,-118.23 1438.54,-111.29"/>
</g>
<!-- Node41 -->
<g id="node41" class="node">
<title>Node41</title>
<g id="a_node41"><a xlink:href="_r_a_n_s3_p_f2_d_8h.html" target="_top" xlink:title=" ">
<polygon fill="white" stroke="black" points="1804.5,-56.5 1804.5,-75.5 1888.5,-75.5 1888.5,-56.5 1804.5,-56.5"/>
<text text-anchor="middle" x="1846.5" y="-63.5" font-family="Helvetica,sans-Serif" font-size="10.00">RANS3PF2D.h</text>
</a>
</g>
</g>
<!-- Node1&#45;&gt;Node41 -->
<g id="edge40" class="edge">
<title>Node1&#45;&gt;Node41</title>
<path fill="none" stroke="midnightblue" d="M1439.01,-116.4C1516.53,-109.23 1667.73,-94.3 1795.5,-76 1798.35,-75.59 1801.28,-75.15 1804.23,-74.68"/>
<polygon fill="midnightblue" stroke="midnightblue" points="1438.66,-112.92 1429.02,-117.32 1439.3,-119.89 1438.66,-112.92"/>
</g>
<!-- Node42 -->
<g id="node42" class="node">
<title>Node42</title>
<g id="a_node42"><a xlink:href="_r_a_n_s3_p_sed_8h.html" target="_top" xlink:title=" ">
<polygon fill="white" stroke="red" points="1907,-56.5 1907,-75.5 1990,-75.5 1990,-56.5 1907,-56.5"/>
<text text-anchor="middle" x="1948.5" y="-63.5" font-family="Helvetica,sans-Serif" font-size="10.00">RANS3PSed.h</text>
</a>
</g>
</g>
<!-- Node1&#45;&gt;Node42 -->
<g id="edge41" class="edge">
<title>Node1&#45;&gt;Node42</title>
<path fill="none" stroke="midnightblue" d="M1439.49,-117.91C1531.91,-112.07 1730.77,-98.03 1897.5,-76 1900.53,-75.6 1903.66,-75.15 1906.8,-74.66"/>
<polygon fill="midnightblue" stroke="midnightblue" points="1439.04,-114.43 1429.28,-118.54 1439.48,-121.41 1439.04,-114.43"/>
</g>
<!-- Node44 -->
<g id="node43" class="node">
<title>Node44</title>
<g id="a_node43"><a xlink:href="_r_a_n_s3_p_sed2_d_8h.html" target="_top" xlink:title=" ">
<polygon fill="white" stroke="red" points="2008,-56.5 2008,-75.5 2103,-75.5 2103,-56.5 2008,-56.5"/>
<text text-anchor="middle" x="2055.5" y="-63.5" font-family="Helvetica,sans-Serif" font-size="10.00">RANS3PSed2D.h</text>
</a>
</g>
</g>
<!-- Node1&#45;&gt;Node44 -->
<g id="edge42" class="edge">
<title>Node1&#45;&gt;Node44</title>
<path fill="none" stroke="midnightblue" d="M1439.24,-118.7C1544.83,-113.67 1792.64,-100.18 1999.5,-76 2002.24,-75.68 2005.05,-75.32 2007.88,-74.94"/>
<polygon fill="midnightblue" stroke="midnightblue" points="1439,-115.21 1429.17,-119.17 1439.33,-122.2 1439,-115.21"/>
</g>
<!-- Node45 -->
<g id="node44" class="node">
<title>Node45</title>
<g id="a_node44"><a xlink:href="_r_d_l_s_8h.html" target="_top" xlink:title=" ">
<polygon fill="white" stroke="red" points="2121.5,-56.5 2121.5,-75.5 2173.5,-75.5 2173.5,-56.5 2121.5,-56.5"/>
<text text-anchor="middle" x="2147.5" y="-63.5" font-family="Helvetica,sans-Serif" font-size="10.00">RDLS.h</text>
</a>
</g>
</g>
<!-- Node1&#45;&gt;Node45 -->
<g id="edge43" class="edge">
<title>Node1&#45;&gt;Node45</title>
<path fill="none" stroke="midnightblue" d="M1439.39,-121.14C1558.91,-120.74 1862.51,-115.53 2112.5,-76 2115.35,-75.55 2118.31,-74.97 2121.24,-74.32"/>
<polygon fill="midnightblue" stroke="midnightblue" points="1439.07,-117.64 1429.08,-121.17 1439.09,-124.64 1439.07,-117.64"/>
</g>
<!-- Node47 -->
<g id="node45" class="node">
<title>Node47</title>
<g id="a_node45"><a xlink:href="_s_w2_d_8h.html" target="_top" xlink:title=" ">
<polygon fill="white" stroke="red" points="2191.5,-56.5 2191.5,-75.5 2245.5,-75.5 2245.5,-56.5 2191.5,-56.5"/>
<text text-anchor="middle" x="2218.5" y="-63.5" font-family="Helvetica,sans-Serif" font-size="10.00">SW2D.h</text>
</a>
</g>
</g>
<!-- Node1&#45;&gt;Node47 -->
<g id="edge44" class="edge">
<title>Node1&#45;&gt;Node47</title>
<path fill="none" stroke="midnightblue" d="M1439.4,-121.43C1566.78,-121.76 1904.66,-118.21 2182.5,-76 2185.43,-75.55 2188.47,-74.98 2191.48,-74.33"/>
<polygon fill="midnightblue" stroke="midnightblue" points="1439.18,-117.93 1429.17,-121.39 1439.15,-124.93 1439.18,-117.93"/>
</g>
<!-- Node49 -->
<g id="node46" class="node">
<title>Node49</title>
<g id="a_node46"><a xlink:href="_s_w2_d_c_v_8h.html" target="_top" xlink:title=" ">
<polygon fill="white" stroke="red" points="2264,-56.5 2264,-75.5 2331,-75.5 2331,-56.5 2264,-56.5"/>
<text text-anchor="middle" x="2297.5" y="-63.5" font-family="Helvetica,sans-Serif" font-size="10.00">SW2DCV.h</text>
</a>
</g>
</g>
<!-- Node1&#45;&gt;Node49 -->
<g id="edge45" class="edge">
<title>Node1&#45;&gt;Node49</title>
<path fill="none" stroke="midnightblue" d="M1439.26,-121.09C1574.12,-120.74 1947.13,-115.9 2254.5,-76 2257.53,-75.61 2260.66,-75.12 2263.78,-74.57"/>
<polygon fill="midnightblue" stroke="midnightblue" points="1439.21,-117.59 1429.22,-121.11 1439.22,-124.59 1439.21,-117.59"/>
</g>
<!-- Node51 -->
<g id="node47" class="node">
<title>Node51</title>
<g id="a_node47"><a xlink:href="_v_o_f_8h.html" target="_top" xlink:title=" ">
<polygon fill="white" stroke="red" points="2349.5,-56.5 2349.5,-75.5 2393.5,-75.5 2393.5,-56.5 2349.5,-56.5"/>
<text text-anchor="middle" x="2371.5" y="-63.5" font-family="Helvetica,sans-Serif" font-size="10.00">VOF.h</text>
</a>
</g>
</g>
<!-- Node1&#45;&gt;Node51 -->
<g id="edge46" class="edge">
<title>Node1&#45;&gt;Node51</title>
<path fill="none" stroke="midnightblue" d="M1439.23,-120.16C1611.51,-117.11 2164.77,-105.24 2340.5,-76 2343.37,-75.52 2346.36,-74.87 2349.29,-74.13"/>
<polygon fill="midnightblue" stroke="midnightblue" points="1439.1,-116.66 1429.16,-120.34 1439.22,-123.66 1439.1,-116.66"/>
</g>
<!-- Node53 -->
<g id="node48" class="node">
<title>Node53</title>
<g id="a_node48"><a xlink:href="_v_o_f3_p_8h.html" target="_top" xlink:title=" ">
<polygon fill="white" stroke="red" points="2411.5,-56.5 2411.5,-75.5 2467.5,-75.5 2467.5,-56.5 2411.5,-56.5"/>
<text text-anchor="middle" x="2439.5" y="-63.5" font-family="Helvetica,sans-Serif" font-size="10.00">VOF3P.h</text>
</a>
</g>
</g>
<!-- Node1&#45;&gt;Node53 -->
<g id="edge47" class="edge">
<title>Node1&#45;&gt;Node53</title>
<path fill="none" stroke="midnightblue" d="M1439.49,-120.03C1619.24,-116.47 2213.63,-102.9 2402.5,-76 2405.38,-75.59 2408.36,-75.05 2411.33,-74.45"/>
<polygon fill="midnightblue" stroke="midnightblue" points="1439.18,-116.54 1429.25,-120.23 1439.32,-123.53 1439.18,-116.54"/>
</g>
<!-- Node55 -->
<g id="node49" class="node">
<title>Node55</title>
<g id="a_node49"><a xlink:href="_v_o_s3_p_8h.html" target="_top" xlink:title=" ">
<polygon fill="white" stroke="red" points="2485.5,-56.5 2485.5,-75.5 2541.5,-75.5 2541.5,-56.5 2485.5,-56.5"/>
<text text-anchor="middle" x="2513.5" y="-63.5" font-family="Helvetica,sans-Serif" font-size="10.00">VOS3P.h</text>
</a>
</g>
</g>
<!-- Node1&#45;&gt;Node55 -->
<g id="edge48" class="edge">
<title>Node1&#45;&gt;Node55</title>
<path fill="none" stroke="midnightblue" d="M1439.17,-120.22C1626.88,-117.16 2272.37,-104.76 2476.5,-76 2479.38,-75.59 2482.36,-75.06 2485.33,-74.46"/>
<polygon fill="midnightblue" stroke="midnightblue" points="1438.96,-116.72 1429.02,-120.38 1439.07,-123.72 1438.96,-116.72"/>
</g>
<!-- Node57 -->
<g id="node50" class="node">
<title>Node57</title>
<g id="a_node50"><a xlink:href="_richards_8h.html" target="_top" xlink:title=" ">
<polygon fill="white" stroke="red" points="2559.5,-56.5 2559.5,-75.5 2623.5,-75.5 2623.5,-56.5 2559.5,-56.5"/>
<text text-anchor="middle" x="2591.5" y="-63.5" font-family="Helvetica,sans-Serif" font-size="10.00">Richards.h</text>
</a>
</g>
</g>
<!-- Node1&#45;&gt;Node57 -->
<g id="edge49" class="edge">
<title>Node1&#45;&gt;Node57</title>
<path fill="none" stroke="midnightblue" d="M1439.06,-120.22C1634.66,-117.08 2330.83,-104.13 2550.5,-76 2553.39,-75.63 2556.38,-75.16 2559.37,-74.62"/>
<polygon fill="midnightblue" stroke="midnightblue" points="1438.99,-116.72 1429.05,-120.38 1439.1,-123.72 1438.99,-116.72"/>
</g>
<!-- Node3 -->
<g id="node3" class="node">
<title>Node3</title>
<g id="a_node3"><a xlink:href="_a_d_r_8cpp.html" target="_top" xlink:title=" ">
<polygon fill="white" stroke="black" points="0,-0.5 0,-19.5 57,-19.5 57,-0.5 0,-0.5"/>
<text text-anchor="middle" x="28.5" y="-7.5" font-family="Helvetica,sans-Serif" font-size="10.00">ADR.cpp</text>
</a>
</g>
</g>
<!-- Node2&#45;&gt;Node3 -->
<g id="edge2" class="edge">
<title>Node2&#45;&gt;Node3</title>
<path fill="none" stroke="midnightblue" d="M36.95,-46.1C34.79,-37.14 32.32,-26.86 30.61,-19.75"/>
<polygon fill="midnightblue" stroke="midnightblue" points="33.61,-47.18 39.35,-56.08 40.42,-45.54 33.61,-47.18"/>
</g>
<!-- Node5 -->
<g id="node5" class="node">
<title>Node5</title>
<g id="a_node5"><a xlink:href="c_elasto_plastic_8cpp.html" target="_top" xlink:title=" ">
<polygon fill="white" stroke="black" points="75.5,-0.5 75.5,-19.5 173.5,-19.5 173.5,-0.5 75.5,-0.5"/>
<text text-anchor="middle" x="124.5" y="-7.5" font-family="Helvetica,sans-Serif" font-size="10.00">cElastoPlastic.cpp</text>
</a>
</g>
</g>
<!-- Node4&#45;&gt;Node5 -->
<g id="edge4" class="edge">
<title>Node4&#45;&gt;Node5</title>
<path fill="none" stroke="midnightblue" d="M128.4,-46.1C127.4,-37.14 126.26,-26.86 125.47,-19.75"/>
<polygon fill="midnightblue" stroke="midnightblue" points="124.93,-46.53 129.51,-56.08 131.88,-45.76 124.93,-46.53"/>
</g>
<!-- Node7 -->
<g id="node7" class="node">
<title>Node7</title>
<g id="a_node7"><a xlink:href="_added_mass_8cpp.html" target="_top" xlink:title=" ">
<polygon fill="white" stroke="black" points="192,-0.5 192,-19.5 279,-19.5 279,-0.5 192,-0.5"/>
<text text-anchor="middle" x="235.5" y="-7.5" font-family="Helvetica,sans-Serif" font-size="10.00">AddedMass.cpp</text>
</a>
</g>
</g>
<!-- Node6&#45;&gt;Node7 -->
<g id="edge6" class="edge">
<title>Node6&#45;&gt;Node7</title>
<path fill="none" stroke="midnightblue" d="M238.75,-46.1C237.92,-37.14 236.97,-26.86 236.31,-19.75"/>
<polygon fill="midnightblue" stroke="midnightblue" points="235.27,-46.45 239.67,-56.08 242.24,-45.8 235.27,-46.45"/>
</g>
<!-- Node9 -->
<g id="node9" class="node">
<title>Node9</title>
<g id="a_node9"><a xlink:href="_c_l_s_v_o_f_8cpp.html" target="_top" xlink:title=" ">
<polygon fill="white" stroke="black" points="297.5,-0.5 297.5,-19.5 371.5,-19.5 371.5,-0.5 297.5,-0.5"/>
<text text-anchor="middle" x="334.5" y="-7.5" font-family="Helvetica,sans-Serif" font-size="10.00">CLSVOF.cpp</text>
</a>
</g>
</g>
<!-- Node8&#45;&gt;Node9 -->
<g id="edge8" class="edge">
<title>Node8&#45;&gt;Node9</title>
<path fill="none" stroke="midnightblue" d="M337.75,-46.1C336.92,-37.14 335.97,-26.86 335.31,-19.75"/>
<polygon fill="midnightblue" stroke="midnightblue" points="334.27,-46.45 338.67,-56.08 341.24,-45.8 334.27,-46.45"/>
</g>
<!-- Node11 -->
<g id="node11" class="node">
<title>Node11</title>
<g id="a_node11"><a xlink:href="_dissipation_8cpp.html" target="_top" xlink:title=" ">
<polygon fill="white" stroke="black" points="389.5,-0.5 389.5,-19.5 473.5,-19.5 473.5,-0.5 389.5,-0.5"/>
<text text-anchor="middle" x="431.5" y="-7.5" font-family="Helvetica,sans-Serif" font-size="10.00">Dissipation.cpp</text>
</a>
</g>
</g>
<!-- Node10&#45;&gt;Node11 -->
<g id="edge10" class="edge">
<title>Node10&#45;&gt;Node11</title>
<path fill="none" stroke="midnightblue" d="M434.75,-46.1C433.92,-37.14 432.97,-26.86 432.31,-19.75"/>
<polygon fill="midnightblue" stroke="midnightblue" points="431.27,-46.45 435.67,-56.08 438.24,-45.8 431.27,-46.45"/>
</g>
<!-- Node13 -->
<g id="node13" class="node">
<title>Node13</title>
<g id="a_node13"><a xlink:href="_dissipation2_d_8cpp.html" target="_top" xlink:title=" ">
<polygon fill="white" stroke="black" points="492,-0.5 492,-19.5 589,-19.5 589,-0.5 492,-0.5"/>
<text text-anchor="middle" x="540.5" y="-7.5" font-family="Helvetica,sans-Serif" font-size="10.00">Dissipation2D.cpp</text>
</a>
</g>
</g>
<!-- Node12&#45;&gt;Node13 -->
<g id="edge12" class="edge">
<title>Node12&#45;&gt;Node13</title>
<path fill="none" stroke="midnightblue" d="M543.75,-46.1C542.92,-37.14 541.97,-26.86 541.31,-19.75"/>
<polygon fill="midnightblue" stroke="midnightblue" points="540.27,-46.45 544.67,-56.08 547.24,-45.8 540.27,-46.45"/>
</g>
<!-- Node15 -->
<g id="node15" class="node">
<title>Node15</title>
<g id="a_node15"><a xlink:href="_g_n___s_w2_d_c_v_8cpp.html" target="_top" xlink:title=" ">
<polygon fill="white" stroke="black" points="607.5,-0.5 607.5,-19.5 705.5,-19.5 705.5,-0.5 607.5,-0.5"/>
<text text-anchor="middle" x="656.5" y="-7.5" font-family="Helvetica,sans-Serif" font-size="10.00">GN_SW2DCV.cpp</text>
</a>
</g>
</g>
<!-- Node14&#45;&gt;Node15 -->
<g id="edge14" class="edge">
<title>Node14&#45;&gt;Node15</title>
<path fill="none" stroke="midnightblue" d="M659.75,-46.1C658.92,-37.14 657.97,-26.86 657.31,-19.75"/>
<polygon fill="midnightblue" stroke="midnightblue" points="656.27,-46.45 660.67,-56.08 663.24,-45.8 656.27,-46.45"/>
</g>
<!-- Node17 -->
<g id="node17" class="node">
<title>Node17</title>
<g id="a_node17"><a xlink:href="_kappa_8cpp.html" target="_top" xlink:title=" ">
<polygon fill="white" stroke="black" points="724,-0.5 724,-19.5 787,-19.5 787,-0.5 724,-0.5"/>
<text text-anchor="middle" x="755.5" y="-7.5" font-family="Helvetica,sans-Serif" font-size="10.00">Kappa.cpp</text>
</a>
</g>
</g>
<!-- Node16&#45;&gt;Node17 -->
<g id="edge16" class="edge">
<title>Node16&#45;&gt;Node17</title>
<path fill="none" stroke="midnightblue" d="M758.75,-46.1C757.92,-37.14 756.97,-26.86 756.31,-19.75"/>
<polygon fill="midnightblue" stroke="midnightblue" points="755.27,-46.45 759.67,-56.08 762.24,-45.8 755.27,-46.45"/>
</g>
<!-- Node19 -->
<g id="node19" class="node">
<title>Node19</title>
<g id="a_node19"><a xlink:href="_kappa2_d_8cpp.html" target="_top" xlink:title=" ">
<polygon fill="white" stroke="black" points="805.5,-0.5 805.5,-19.5 881.5,-19.5 881.5,-0.5 805.5,-0.5"/>
<text text-anchor="middle" x="843.5" y="-7.5" font-family="Helvetica,sans-Serif" font-size="10.00">Kappa2D.cpp</text>
</a>
</g>
</g>
<!-- Node18&#45;&gt;Node19 -->
<g id="edge18" class="edge">
<title>Node18&#45;&gt;Node19</title>
<path fill="none" stroke="midnightblue" d="M846.75,-46.1C845.92,-37.14 844.97,-26.86 844.31,-19.75"/>
<polygon fill="midnightblue" stroke="midnightblue" points="843.27,-46.45 847.67,-56.08 850.24,-45.8 843.27,-46.45"/>
</g>
<!-- Node21 -->
<g id="node21" class="node">
<title>Node21</title>
<g id="a_node21"><a xlink:href="_m_corr_8cpp.html" target="_top" xlink:title=" ">
<polygon fill="white" stroke="black" points="899.5,-0.5 899.5,-19.5 961.5,-19.5 961.5,-0.5 899.5,-0.5"/>
<text text-anchor="middle" x="930.5" y="-7.5" font-family="Helvetica,sans-Serif" font-size="10.00">MCorr.cpp</text>
</a>
</g>
</g>
<!-- Node20&#45;&gt;Node21 -->
<g id="edge20" class="edge">
<title>Node20&#45;&gt;Node21</title>
<path fill="none" stroke="midnightblue" d="M930.5,-45.8C930.5,-36.91 930.5,-26.78 930.5,-19.75"/>
<polygon fill="midnightblue" stroke="midnightblue" points="927,-46.08 930.5,-56.08 934,-46.08 927,-46.08"/>
</g>
<!-- Node23 -->
<g id="node23" class="node">
<title>Node23</title>
<g id="a_node23"><a xlink:href="_m_corr3_p_8cpp.html" target="_top" xlink:title=" ">
<polygon fill="white" stroke="black" points="980,-0.5 980,-19.5 1053,-19.5 1053,-0.5 980,-0.5"/>
<text text-anchor="middle" x="1016.5" y="-7.5" font-family="Helvetica,sans-Serif" font-size="10.00">MCorr3P.cpp</text>
</a>
</g>
</g>
<!-- Node22&#45;&gt;Node23 -->
<g id="edge22" class="edge">
<title>Node22&#45;&gt;Node23</title>
<path fill="none" stroke="midnightblue" d="M1009.35,-46.1C1011.18,-37.14 1013.27,-26.86 1014.72,-19.75"/>
<polygon fill="midnightblue" stroke="midnightblue" points="1005.88,-45.59 1007.32,-56.08 1012.74,-46.98 1005.88,-45.59"/>
</g>
<!-- Node25 -->
<g id="node25" class="node">
<title>Node25</title>
<g id="a_node25"><a xlink:href="_move_mesh_8cpp.html" target="_top" xlink:title=" ">
<polygon fill="white" stroke="black" points="1071,-0.5 1071,-19.5 1154,-19.5 1154,-0.5 1071,-0.5"/>
<text text-anchor="middle" x="1112.5" y="-7.5" font-family="Helvetica,sans-Serif" font-size="10.00">MoveMesh.cpp</text>
</a>
</g>
</g>
<!-- Node24&#45;&gt;Node25 -->
<g id="edge24" class="edge">
<title>Node24&#45;&gt;Node25</title>
<path fill="none" stroke="midnightblue" d="M1098.62,-46.69C1102.16,-37.59 1106.27,-27.01 1109.1,-19.75"/>
<polygon fill="midnightblue" stroke="midnightblue" points="1095.33,-45.49 1094.97,-56.08 1101.85,-48.03 1095.33,-45.49"/>
</g>
<!-- Node27 -->
<g id="node27" class="node">
<title>Node27</title>
<g id="a_node27"><a xlink:href="_move_mesh2_d_8cpp.html" target="_top" xlink:title=" ">
<polygon fill="white" stroke="black" points="1172.5,-0.5 1172.5,-19.5 1268.5,-19.5 1268.5,-0.5 1172.5,-0.5"/>
<text text-anchor="middle" x="1220.5" y="-7.5" font-family="Helvetica,sans-Serif" font-size="10.00">MoveMesh2D.cpp</text>
</a>
</g>
</g>
<!-- Node26&#45;&gt;Node27 -->
<g id="edge26" class="edge">
<title>Node26&#45;&gt;Node27</title>
<path fill="none" stroke="midnightblue" d="M1199.68,-47.27C1204.97,-38.05 1211.22,-27.17 1215.48,-19.75"/>
<polygon fill="midnightblue" stroke="midnightblue" points="1196.56,-45.67 1194.62,-56.08 1202.63,-49.15 1196.56,-45.67"/>
</g>
<!-- Node29 -->
<g id="node29" class="node">
<title>Node29</title>
<g id="a_node29"><a xlink:href="_n_c_l_s_8cpp.html" target="_top" xlink:title=" ">
<polygon fill="white" stroke="black" points="1286.5,-0.5 1286.5,-19.5 1348.5,-19.5 1348.5,-0.5 1286.5,-0.5"/>
<text text-anchor="middle" x="1317.5" y="-7.5" font-family="Helvetica,sans-Serif" font-size="10.00">NCLS.cpp</text>
</a>
</g>
</g>
<!-- Node28&#45;&gt;Node29 -->
<g id="edge28" class="edge">
<title>Node28&#45;&gt;Node29</title>
<path fill="none" stroke="midnightblue" d="M1289.52,-47.86C1296.62,-38.5 1305.1,-27.33 1310.86,-19.75"/>
<polygon fill="midnightblue" stroke="midnightblue" points="1286.53,-46 1283.27,-56.08 1292.11,-50.24 1286.53,-46"/>
</g>
<!-- Node31 -->
<g id="node31" class="node">
<title>Node31</title>
<g id="a_node31"><a xlink:href="_n_c_l_s3_p_8cpp.html" target="_top" xlink:title=" ">
<polygon fill="white" stroke="black" points="1367,-0.5 1367,-19.5 1440,-19.5 1440,-0.5 1367,-0.5"/>
<text text-anchor="middle" x="1403.5" y="-7.5" font-family="Helvetica,sans-Serif" font-size="10.00">NCLS3P.cpp</text>
</a>
</g>
</g>
<!-- Node30&#45;&gt;Node31 -->
<g id="edge30" class="edge">
<title>Node30&#45;&gt;Node31</title>
<path fill="none" stroke="midnightblue" d="M1367.18,-48.72C1376.34,-39.2 1387.55,-27.56 1395.07,-19.75"/>
<polygon fill="midnightblue" stroke="midnightblue" points="1364.5,-46.45 1360.09,-56.08 1369.54,-51.31 1364.5,-46.45"/>
</g>
<!-- Node33 -->
<g id="node33" class="node">
<title>Node33</title>
<g id="a_node33"><a xlink:href="_pres_8cpp.html" target="_top" xlink:title=" ">
<polygon fill="white" stroke="black" points="1458.5,-0.5 1458.5,-19.5 1514.5,-19.5 1514.5,-0.5 1458.5,-0.5"/>
<text text-anchor="middle" x="1486.5" y="-7.5" font-family="Helvetica,sans-Serif" font-size="10.00">Pres.cpp</text>
</a>
</g>
</g>
<!-- Node32&#45;&gt;Node33 -->
<g id="edge32" class="edge">
<title>Node32&#45;&gt;Node33</title>
<path fill="none" stroke="midnightblue" d="M1441.54,-49.54C1452.77,-39.91 1466.82,-27.87 1476.19,-19.83"/>
<polygon fill="midnightblue" stroke="midnightblue" points="1438.94,-47.16 1433.62,-56.32 1443.49,-52.47 1438.94,-47.16"/>
</g>
<!-- Node35 -->
<g id="node35" class="node">
<title>Node35</title>
<g id="a_node35"><a xlink:href="_pres_inc_8cpp.html" target="_top" xlink:title=" ">
<polygon fill="white" stroke="black" points="1533,-0.5 1533,-19.5 1602,-19.5 1602,-0.5 1533,-0.5"/>
<text text-anchor="middle" x="1567.5" y="-7.5" font-family="Helvetica,sans-Serif" font-size="10.00">PresInc.cpp</text>
</a>
</g>
</g>
<!-- Node34&#45;&gt;Node35 -->
<g id="edge34" class="edge">
<title>Node34&#45;&gt;Node35</title>
<path fill="none" stroke="midnightblue" d="M1513.53,-50.38C1526.91,-40.62 1544.06,-28.11 1555.39,-19.83"/>
<polygon fill="midnightblue" stroke="midnightblue" points="1511.4,-47.6 1505.39,-56.32 1515.53,-53.26 1511.4,-47.6"/>
</g>
<!-- Node37 -->
<g id="node37" class="node">
<title>Node37</title>
<g id="a_node37"><a xlink:href="_pres_init_8cpp.html" target="_top" xlink:title=" ">
<polygon fill="white" stroke="black" points="1620,-0.5 1620,-19.5 1689,-19.5 1689,-0.5 1620,-0.5"/>
<text text-anchor="middle" x="1654.5" y="-7.5" font-family="Helvetica,sans-Serif" font-size="10.00">PresInit.cpp</text>
</a>
</g>
</g>
<!-- Node36&#45;&gt;Node37 -->
<g id="edge36" class="edge">
<title>Node36&#45;&gt;Node37</title>
<path fill="none" stroke="midnightblue" d="M1592.43,-50.9C1607.84,-41 1627.95,-28.07 1641.04,-19.65"/>
<polygon fill="midnightblue" stroke="midnightblue" points="1590.52,-47.97 1584,-56.32 1594.3,-53.86 1590.52,-47.97"/>
</g>
<!-- Node39 -->
<g id="node39" class="node">
<title>Node39</title>
<g id="a_node39"><a xlink:href="_r_a_n_s2_p___i_b_8cpp.html" target="_top" xlink:title=" ">
<polygon fill="white" stroke="black" points="1707,-0.5 1707,-19.5 1798,-19.5 1798,-0.5 1707,-0.5"/>
<text text-anchor="middle" x="1752.5" y="-7.5" font-family="Helvetica,sans-Serif" font-size="10.00">RANS2P_IB.cpp</text>
</a>
</g>
</g>
<!-- Node38&#45;&gt;Node39 -->
<g id="edge38" class="edge">
<title>Node38&#45;&gt;Node39</title>
<path fill="none" stroke="midnightblue" d="M1682.56,-51.18C1699.86,-41.24 1722.65,-28.15 1737.43,-19.65"/>
<polygon fill="midnightblue" stroke="midnightblue" points="1680.53,-48.31 1673.6,-56.32 1684.02,-54.38 1680.53,-48.31"/>
</g>
</g>
</svg>
