<?xml version="1.0" encoding="UTF-8" standalone="no"?>
<!DOCTYPE svg PUBLIC "-//W3C//DTD SVG 1.1//EN"
 "http://www.w3.org/Graphics/SVG/1.1/DTD/svg11.dtd">
<!-- Generated by graphviz version 2.43.0 (0)
 -->
<!-- Title: ModelFactory.h Pages: 1 -->
<svg width="2699pt" height="140pt"
 viewBox="0.00 0.00 2699.00 140.00" xmlns="http://www.w3.org/2000/svg" xmlns:xlink="http://www.w3.org/1999/xlink">
<g id="graph0" class="graph" transform="scale(1 1) rotate(0) translate(4 136)">
<title>ModelFactory.h</title>
<polygon fill="white" stroke="transparent" points="-4,4 -4,-136 2695,-136 2695,4 -4,4"/>
<!-- Node1 -->
<g id="node1" class="node">
<title>Node1</title>
<g id="a_node1"><a xlink:title=" ">
<polygon fill="#bfbfbf" stroke="black" points="1398.5,-112.5 1398.5,-131.5 1487.5,-131.5 1487.5,-112.5 1398.5,-112.5"/>
<text text-anchor="middle" x="1443" y="-119.5" font-family="Helvetica,sans-Serif" font-size="10.00">ModelFactory.h</text>
</a>
</g>
</g>
<!-- Node2 -->
<g id="node2" class="node">
<title>Node2</title>
<g id="a_node2"><a xlink:href="_a_d_r_8h.html" target="_top" xlink:title=" ">
<polygon fill="white" stroke="black" points="19.5,-56.5 19.5,-75.5 66.5,-75.5 66.5,-56.5 19.5,-56.5"/>
<text text-anchor="middle" x="43" y="-63.5" font-family="Helvetica,sans-Serif" font-size="10.00">ADR.h</text>
</a>
</g>
</g>
<!-- Node1&#45;&gt;Node2 -->
<g id="edge1" class="edge">
<title>Node1&#45;&gt;Node2</title>
<path fill="none" stroke="midnightblue" d="M1388.14,-120.6C1167.06,-118.79 341.03,-109.84 82,-76 77.04,-75.35 71.78,-74.36 66.79,-73.26"/>
<polygon fill="midnightblue" stroke="midnightblue" points="1388.18,-124.1 1398.2,-120.69 1388.23,-117.1 1388.18,-124.1"/>
</g>
<!-- Node4 -->
<g id="node4" class="node">
<title>Node4</title>
<g id="a_node4"><a xlink:href="_elasto_plastic_8h.html" target="_top" xlink:title=" ">
<polygon fill="white" stroke="black" points="91,-56.5 91,-75.5 179,-75.5 179,-56.5 91,-56.5"/>
<text text-anchor="middle" x="135" y="-63.5" font-family="Helvetica,sans-Serif" font-size="10.00">ElastoPlastic.h</text>
</a>
</g>
</g>
<!-- Node1&#45;&gt;Node4 -->
<g id="edge3" class="edge">
<title>Node1&#45;&gt;Node4</title>
<path fill="none" stroke="midnightblue" d="M1388.16,-120.95C1214.11,-120.39 658.68,-115.4 201,-76 193.97,-75.39 186.55,-74.57 179.31,-73.66"/>
<polygon fill="midnightblue" stroke="midnightblue" points="1388.34,-124.45 1398.35,-120.98 1388.36,-117.45 1388.34,-124.45"/>
</g>
<!-- Node6 -->
<g id="node6" class="node">
<title>Node6</title>
<g id="a_node6"><a xlink:href="_added_mass_8h.html" target="_top" xlink:title=" ">
<polygon fill="white" stroke="black" points="210,-56.5 210,-75.5 292,-75.5 292,-56.5 210,-56.5"/>
<text text-anchor="middle" x="251" y="-63.5" font-family="Helvetica,sans-Serif" font-size="10.00">AddedMass.h</text>
</a>
</g>
</g>
<!-- Node1&#45;&gt;Node6 -->
<g id="edge5" class="edge">
<title>Node1&#45;&gt;Node6</title>
<path fill="none" stroke="midnightblue" d="M1388.18,-120.84C1224.48,-119.93 725.02,-114 313,-76 306.28,-75.38 299.19,-74.53 292.28,-73.6"/>
<polygon fill="midnightblue" stroke="midnightblue" points="1388.46,-124.34 1398.47,-120.89 1388.49,-117.34 1388.46,-124.34"/>
</g>
<!-- Node8 -->
<g id="node8" class="node">
<title>Node8</title>
<g id="a_node8"><a xlink:href="_c_l_s_v_o_f_8h.html" target="_top" xlink:title=" ">
<polygon fill="white" stroke="black" points="322,-56.5 322,-75.5 384,-75.5 384,-56.5 322,-56.5"/>
<text text-anchor="middle" x="353" y="-63.5" font-family="Helvetica,sans-Serif" font-size="10.00">CLSVOF.h</text>
</a>
</g>
</g>
<!-- Node1&#45;&gt;Node8 -->
<g id="edge7" class="edge">
<title>Node1&#45;&gt;Node8</title>
<path fill="none" stroke="midnightblue" d="M1388.13,-121.09C1233.19,-120.81 779.29,-116.34 405,-76 398.26,-75.27 391.07,-74.22 384.26,-73.08"/>
<polygon fill="midnightblue" stroke="midnightblue" points="1388.33,-124.59 1398.33,-121.1 1388.34,-117.59 1388.33,-124.59"/>
</g>
<!-- Node10 -->
<g id="node10" class="node">
<title>Node10</title>
<g id="a_node10"><a xlink:href="_dissipation_8h.html" target="_top" xlink:title=" ">
<polygon fill="white" stroke="black" points="414,-56.5 414,-75.5 494,-75.5 494,-56.5 414,-56.5"/>
<text text-anchor="middle" x="454" y="-63.5" font-family="Helvetica,sans-Serif" font-size="10.00">Dissipation.h</text>
</a>
</g>
</g>
<!-- Node1&#45;&gt;Node10 -->
<g id="edge9" class="edge">
<title>Node1&#45;&gt;Node10</title>
<path fill="none" stroke="midnightblue" d="M1388.09,-120.26C1244.26,-117.92 844.78,-108.74 514,-76 507.61,-75.37 500.85,-74.52 494.27,-73.61"/>
<polygon fill="midnightblue" stroke="midnightblue" points="1388.35,-123.77 1398.41,-120.43 1388.46,-116.77 1388.35,-123.77"/>
</g>
<!-- Node12 -->
<g id="node12" class="node">
<title>Node12</title>
<g id="a_node12"><a xlink:href="_dissipation2_d_8h.html" target="_top" xlink:title=" ">
<polygon fill="white" stroke="black" points="523,-56.5 523,-75.5 617,-75.5 617,-56.5 523,-56.5"/>
<text text-anchor="middle" x="570" y="-63.5" font-family="Helvetica,sans-Serif" font-size="10.00">Dissipation2D.h</text>
</a>
</g>
</g>
<!-- Node1&#45;&gt;Node12 -->
<g id="edge11" class="edge">
<title>Node1&#45;&gt;Node12</title>
<path fill="none" stroke="midnightblue" d="M1388.22,-119.41C1257.83,-115.31 918.87,-102.76 637,-76 630.57,-75.39 623.82,-74.63 617.17,-73.8"/>
<polygon fill="midnightblue" stroke="midnightblue" points="1388.24,-122.91 1398.35,-119.73 1388.46,-115.92 1388.24,-122.91"/>
</g>
<!-- Node14 -->
<g id="node14" class="node">
<title>Node14</title>
<g id="a_node14"><a xlink:href="_g_n___s_w2_d_c_v_8h.html" target="_top" xlink:title=" ">
<polygon fill="white" stroke="black" points="646.5,-56.5 646.5,-75.5 733.5,-75.5 733.5,-56.5 646.5,-56.5"/>
<text text-anchor="middle" x="690" y="-63.5" font-family="Helvetica,sans-Serif" font-size="10.00">GN_SW2DCV.h</text>
</a>
</g>
</g>
<!-- Node1&#45;&gt;Node14 -->
<g id="edge13" class="edge">
<title>Node1&#45;&gt;Node14</title>
<path fill="none" stroke="midnightblue" d="M1388.12,-118.76C1271.4,-113.7 989.95,-99.92 755,-76 748.09,-75.3 740.78,-74.42 733.65,-73.49"/>
<polygon fill="midnightblue" stroke="midnightblue" points="1388.09,-122.26 1398.23,-119.19 1388.39,-115.27 1388.09,-122.26"/>
</g>
<!-- Node16 -->
<g id="node16" class="node">
<title>Node16</title>
<g id="a_node16"><a xlink:href="_kappa_8h.html" target="_top" xlink:title=" ">
<polygon fill="white" stroke="black" points="764,-56.5 764,-75.5 820,-75.5 820,-56.5 764,-56.5"/>
<text text-anchor="middle" x="792" y="-63.5" font-family="Helvetica,sans-Serif" font-size="10.00">Kappa.h</text>
</a>
</g>
</g>
<!-- Node1&#45;&gt;Node16 -->
<g id="edge15" class="edge">
<title>Node1&#45;&gt;Node16</title>
<path fill="none" stroke="midnightblue" d="M1388.04,-118.94C1281.79,-114.51 1040.97,-102.26 840,-76 833.53,-75.15 826.6,-74 820.09,-72.81"/>
<polygon fill="midnightblue" stroke="midnightblue" points="1388.06,-122.44 1398.2,-119.36 1388.35,-115.45 1388.06,-122.44"/>
</g>
<!-- Node18 -->
<g id="node18" class="node">
<title>Node18</title>
<g id="a_node18"><a xlink:href="_kappa2_d_8h.html" target="_top" xlink:title=" ">
<polygon fill="white" stroke="black" points="849,-56.5 849,-75.5 919,-75.5 919,-56.5 849,-56.5"/>
<text text-anchor="middle" x="884" y="-63.5" font-family="Helvetica,sans-Serif" font-size="10.00">Kappa2D.h</text>
</a>
</g>
</g>
<!-- Node1&#45;&gt;Node18 -->
<g id="edge17" class="edge">
<title>Node1&#45;&gt;Node18</title>
<path fill="none" stroke="midnightblue" d="M1388.18,-117.78C1294.71,-111.92 1098.63,-98.05 934,-76 929.19,-75.36 924.14,-74.57 919.18,-73.74"/>
<polygon fill="midnightblue" stroke="midnightblue" points="1388.06,-121.27 1398.25,-118.4 1388.49,-114.29 1388.06,-121.27"/>
</g>
<!-- Node20 -->
<g id="node20" class="node">
<title>Node20</title>
<g id="a_node20"><a xlink:href="_m_corr_8h.html" target="_top" xlink:title=" ">
<polygon fill="white" stroke="black" points="943,-56.5 943,-75.5 997,-75.5 997,-56.5 943,-56.5"/>
<text text-anchor="middle" x="970" y="-63.5" font-family="Helvetica,sans-Serif" font-size="10.00">MCorr.h</text>
</a>
</g>
</g>
<!-- Node1&#45;&gt;Node20 -->
<g id="edge19" class="edge">
<title>Node1&#45;&gt;Node20</title>
<path fill="none" stroke="midnightblue" d="M1388.14,-117.87C1305,-112.55 1142.33,-99.94 1006,-76 1003.08,-75.49 1000.05,-74.87 997.04,-74.2"/>
<polygon fill="midnightblue" stroke="midnightblue" points="1388.16,-121.37 1398.36,-118.51 1388.6,-114.39 1388.16,-121.37"/>
</g>
<!-- Node22 -->
<g id="node22" class="node">
<title>Node22</title>
<g id="a_node22"><a xlink:href="_m_corr3_p_8h.html" target="_top" xlink:title=" ">
<polygon fill="white" stroke="black" points="1015.5,-56.5 1015.5,-75.5 1080.5,-75.5 1080.5,-56.5 1015.5,-56.5"/>
<text text-anchor="middle" x="1048" y="-63.5" font-family="Helvetica,sans-Serif" font-size="10.00">MCorr3P.h</text>
</a>
</g>
</g>
<!-- Node1&#45;&gt;Node22 -->
<g id="edge21" class="edge">
<title>Node1&#45;&gt;Node22</title>
<path fill="none" stroke="midnightblue" d="M1388.07,-115.56C1318.28,-108.3 1194.24,-94.2 1089,-76 1086.27,-75.53 1083.45,-75 1080.62,-74.44"/>
<polygon fill="midnightblue" stroke="midnightblue" points="1388.07,-119.08 1398.38,-116.63 1388.79,-112.12 1388.07,-119.08"/>
</g>
<!-- Node24 -->
<g id="node24" class="node">
<title>Node24</title>
<g id="a_node24"><a xlink:href="_move_mesh_8h.html" target="_top" xlink:title=" ">
<polygon fill="white" stroke="black" points="1098.5,-56.5 1098.5,-75.5 1177.5,-75.5 1177.5,-56.5 1098.5,-56.5"/>
<text text-anchor="middle" x="1138" y="-63.5" font-family="Helvetica,sans-Serif" font-size="10.00">MoveMesh.h</text>
</a>
</g>
</g>
<!-- Node1&#45;&gt;Node24 -->
<g id="edge23" class="edge">
<title>Node1&#45;&gt;Node24</title>
<path fill="none" stroke="midnightblue" d="M1388.14,-111.48C1336.29,-102.46 1256.33,-88.46 1187,-76 1183.94,-75.45 1180.76,-74.88 1177.58,-74.3"/>
<polygon fill="midnightblue" stroke="midnightblue" points="1387.67,-114.95 1398.12,-113.22 1388.87,-108.06 1387.67,-114.95"/>
</g>
<!-- Node26 -->
<g id="node26" class="node">
<title>Node26</title>
<g id="a_node26"><a xlink:href="_move_mesh2_d_8h.html" target="_top" xlink:title=" ">
<polygon fill="white" stroke="black" points="1196,-56.5 1196,-75.5 1288,-75.5 1288,-56.5 1196,-56.5"/>
<text text-anchor="middle" x="1242" y="-63.5" font-family="Helvetica,sans-Serif" font-size="10.00">MoveMesh2D.h</text>
</a>
</g>
</g>
<!-- Node1&#45;&gt;Node26 -->
<g id="edge25" class="edge">
<title>Node1&#45;&gt;Node26</title>
<path fill="none" stroke="midnightblue" d="M1401.42,-109.83C1363.47,-99.63 1308.19,-84.78 1273.7,-75.52"/>
<polygon fill="midnightblue" stroke="midnightblue" points="1400.59,-113.23 1411.15,-112.44 1402.4,-106.47 1400.59,-113.23"/>
</g>
<!-- Node28 -->
<g id="node28" class="node">
<title>Node28</title>
<g id="a_node28"><a xlink:href="_n_c_l_s_8h.html" target="_top" xlink:title=" ">
<polygon fill="white" stroke="black" points="1306.5,-56.5 1306.5,-75.5 1357.5,-75.5 1357.5,-56.5 1306.5,-56.5"/>
<text text-anchor="middle" x="1332" y="-63.5" font-family="Helvetica,sans-Serif" font-size="10.00">NCLS.h</text>
</a>
</g>
</g>
<!-- Node1&#45;&gt;Node28 -->
<g id="edge27" class="edge">
<title>Node1&#45;&gt;Node28</title>
<path fill="none" stroke="midnightblue" d="M1415.99,-107.86C1395.41,-97.85 1367.66,-84.35 1349.79,-75.65"/>
<polygon fill="midnightblue" stroke="midnightblue" points="1414.64,-111.1 1425.17,-112.32 1417.7,-104.8 1414.64,-111.1"/>
</g>
<!-- Node30 -->
<g id="node30" class="node">
<title>Node30</title>
<g id="a_node30"><a xlink:href="_n_c_l_s3_p_8h.html" target="_top" xlink:title=" ">
<polygon fill="white" stroke="black" points="1376,-56.5 1376,-75.5 1438,-75.5 1438,-56.5 1376,-56.5"/>
<text text-anchor="middle" x="1407" y="-63.5" font-family="Helvetica,sans-Serif" font-size="10.00">NCLS3P.h</text>
</a>
</g>
</g>
<!-- Node1&#45;&gt;Node30 -->
<g id="edge29" class="edge">
<title>Node1&#45;&gt;Node30</title>
<path fill="none" stroke="midnightblue" d="M1431.38,-103.57C1425.18,-94.27 1417.83,-83.25 1412.83,-75.75"/>
<polygon fill="midnightblue" stroke="midnightblue" points="1428.6,-105.7 1437.06,-112.08 1434.42,-101.82 1428.6,-105.7"/>
</g>
<!-- Node32 -->
<g id="node32" class="node">
<title>Node32</title>
<g id="a_node32"><a xlink:href="_pres_8h.html" target="_top" xlink:title=" ">
<polygon fill="white" stroke="black" points="1456.5,-56.5 1456.5,-75.5 1503.5,-75.5 1503.5,-56.5 1456.5,-56.5"/>
<text text-anchor="middle" x="1480" y="-63.5" font-family="Helvetica,sans-Serif" font-size="10.00">Pres.h</text>
</a>
</g>
</g>
<!-- Node1&#45;&gt;Node32 -->
<g id="edge31" class="edge">
<title>Node1&#45;&gt;Node32</title>
<path fill="none" stroke="midnightblue" d="M1454.95,-103.57C1461.31,-94.27 1468.87,-83.25 1474,-75.75"/>
<polygon fill="midnightblue" stroke="midnightblue" points="1451.87,-101.86 1449.11,-112.08 1457.65,-105.81 1451.87,-101.86"/>
</g>
<!-- Node34 -->
<g id="node34" class="node">
<title>Node34</title>
<g id="a_node34"><a xlink:href="_pres_inc_8h.html" target="_top" xlink:title=" ">
<polygon fill="white" stroke="black" points="1521.5,-56.5 1521.5,-75.5 1582.5,-75.5 1582.5,-56.5 1521.5,-56.5"/>
<text text-anchor="middle" x="1552" y="-63.5" font-family="Helvetica,sans-Serif" font-size="10.00">PresInc.h</text>
</a>
</g>
</g>
<!-- Node1&#45;&gt;Node34 -->
<g id="edge33" class="edge">
<title>Node1&#45;&gt;Node34</title>
<path fill="none" stroke="midnightblue" d="M1469.52,-107.86C1489.73,-97.85 1516.99,-84.35 1534.53,-75.65"/>
<polygon fill="midnightblue" stroke="midnightblue" points="1467.92,-104.75 1460.51,-112.32 1471.03,-111.02 1467.92,-104.75"/>
</g>
<!-- Node36 -->
<g id="node36" class="node">
<title>Node36</title>
<g id="a_node36"><a xlink:href="_pres_init_8h.html" target="_top" xlink:title=" ">
<polygon fill="white" stroke="black" points="1601,-56.5 1601,-75.5 1663,-75.5 1663,-56.5 1601,-56.5"/>
<text text-anchor="middle" x="1632" y="-63.5" font-family="Helvetica,sans-Serif" font-size="10.00">PresInit.h</text>
</a>
</g>
</g>
<!-- Node1&#45;&gt;Node36 -->
<g id="edge35" class="edge">
<title>Node1&#45;&gt;Node36</title>
<path fill="none" stroke="midnightblue" d="M1483.01,-109.57C1518.67,-99.38 1570.04,-84.7 1602.19,-75.52"/>
<polygon fill="midnightblue" stroke="midnightblue" points="1481.6,-106.33 1472.95,-112.44 1483.52,-113.06 1481.6,-106.33"/>
</g>
<!-- Node38 -->
<g id="node38" class="node">
<title>Node38</title>
<g id="a_node38"><a xlink:href="_r_a_n_s2_p___i_b_8h.html" target="_top" xlink:title=" ">
<polygon fill="white" stroke="black" points="1681,-56.5 1681,-75.5 1761,-75.5 1761,-56.5 1681,-56.5"/>
<text text-anchor="middle" x="1721" y="-63.5" font-family="Helvetica,sans-Serif" font-size="10.00">RANS2P_IB.h</text>
</a>
</g>
</g>
<!-- Node1&#45;&gt;Node38 -->
<g id="edge37" class="edge">
<title>Node1&#45;&gt;Node38</title>
<path fill="none" stroke="midnightblue" d="M1497.1,-110.49C1550.96,-100.03 1632.38,-84.21 1680.77,-74.82"/>
<polygon fill="midnightblue" stroke="midnightblue" points="1496.2,-107.1 1487.05,-112.44 1497.53,-113.97 1496.2,-107.1"/>
</g>
<!-- Node40 -->
<g id="node40" class="node">
<title>Node40</title>
<g id="a_node40"><a xlink:href="_r_a_n_s3_p_f_8h.html" target="_top" xlink:title=" ">
<polygon fill="white" stroke="red" points="1779.5,-56.5 1779.5,-75.5 1848.5,-75.5 1848.5,-56.5 1779.5,-56.5"/>
<text text-anchor="middle" x="1814" y="-63.5" font-family="Helvetica,sans-Serif" font-size="10.00">RANS3PF.h</text>
</a>
</g>
</g>
<!-- Node1&#45;&gt;Node40 -->
<g id="edge39" class="edge">
<title>Node1&#45;&gt;Node40</title>
<path fill="none" stroke="midnightblue" d="M1497.6,-114.59C1562.66,-106.69 1674.56,-92.31 1770,-76 1773.07,-75.47 1776.26,-74.89 1779.45,-74.29"/>
<polygon fill="midnightblue" stroke="midnightblue" points="1497.08,-111.13 1487.57,-115.8 1497.92,-118.07 1497.08,-111.13"/>
</g>
<!-- Node42 -->
<g id="node41" class="node">
<title>Node42</title>
<g id="a_node41"><a xlink:href="_r_a_n_s3_p_f2_d_8h.html" target="_top" xlink:title=" ">
<polygon fill="white" stroke="red" points="1867,-56.5 1867,-75.5 1951,-75.5 1951,-56.5 1867,-56.5"/>
<text text-anchor="middle" x="1909" y="-63.5" font-family="Helvetica,sans-Serif" font-size="10.00">RANS3PF2D.h</text>
</a>
</g>
</g>
<!-- Node1&#45;&gt;Node42 -->
<g id="edge40" class="edge">
<title>Node1&#45;&gt;Node42</title>
<path fill="none" stroke="midnightblue" d="M1497.92,-116.22C1577.5,-109.03 1729.42,-94.3 1858,-76 1860.85,-75.59 1863.78,-75.15 1866.73,-74.68"/>
<polygon fill="midnightblue" stroke="midnightblue" points="1497.29,-112.76 1487.65,-117.14 1497.92,-119.73 1497.29,-112.76"/>
</g>
<!-- Node44 -->
<g id="node42" class="node">
<title>Node44</title>
<g id="a_node42"><a xlink:href="_r_a_n_s3_p_sed_8h.html" target="_top" xlink:title=" ">
<polygon fill="white" stroke="red" points="1969.5,-56.5 1969.5,-75.5 2052.5,-75.5 2052.5,-56.5 1969.5,-56.5"/>
<text text-anchor="middle" x="2011" y="-63.5" font-family="Helvetica,sans-Serif" font-size="10.00">RANS3PSed.h</text>
</a>
</g>
</g>
<!-- Node1&#45;&gt;Node44 -->
<g id="edge41" class="edge">
<title>Node1&#45;&gt;Node44</title>
<path fill="none" stroke="midnightblue" d="M1497.94,-117.81C1592.57,-111.96 1792.32,-98.05 1960,-76 1963.03,-75.6 1966.16,-75.15 1969.3,-74.67"/>
<polygon fill="midnightblue" stroke="midnightblue" points="1497.52,-114.33 1487.75,-118.43 1497.94,-121.32 1497.52,-114.33"/>
</g>
<!-- Node46 -->
<g id="node43" class="node">
<title>Node46</title>
<g id="a_node43"><a xlink:href="_r_a_n_s3_p_sed2_d_8h.html" target="_top" xlink:title=" ">
<polygon fill="white" stroke="red" points="2071,-56.5 2071,-75.5 2167,-75.5 2167,-56.5 2071,-56.5"/>
<text text-anchor="middle" x="2119" y="-63.5" font-family="Helvetica,sans-Serif" font-size="10.00">RANS3PSed2D.h</text>
</a>
</g>
</g>
<!-- Node1&#45;&gt;Node46 -->
<g id="edge42" class="edge">
<title>Node1&#45;&gt;Node46</title>
<path fill="none" stroke="midnightblue" d="M1497.81,-118.56C1605.95,-113.42 1854.35,-99.9 2062,-76 2064.89,-75.67 2067.85,-75.3 2070.84,-74.9"/>
<polygon fill="midnightblue" stroke="midnightblue" points="1497.61,-115.07 1487.79,-119.04 1497.94,-122.06 1497.61,-115.07"/>
</g>
<!-- Node48 -->
<g id="node44" class="node">
<title>Node48</title>
<g id="a_node44"><a xlink:href="_r_d_l_s_8h.html" target="_top" xlink:title=" ">
<polygon fill="white" stroke="red" points="2185.5,-56.5 2185.5,-75.5 2236.5,-75.5 2236.5,-56.5 2185.5,-56.5"/>
<text text-anchor="middle" x="2211" y="-63.5" font-family="Helvetica,sans-Serif" font-size="10.00">RDLS.h</text>
</a>
</g>
</g>
<!-- Node1&#45;&gt;Node48 -->
<g id="edge43" class="edge">
<title>Node1&#45;&gt;Node48</title>
<path fill="none" stroke="midnightblue" d="M1497.75,-121.18C1620.14,-120.82 1924.83,-115.63 2176,-76 2178.97,-75.53 2182.06,-74.92 2185.12,-74.24"/>
<polygon fill="midnightblue" stroke="midnightblue" points="1497.52,-117.69 1487.52,-121.2 1497.53,-124.69 1497.52,-117.69"/>
</g>
<!-- Node50 -->
<g id="node45" class="node">
<title>Node50</title>
<g id="a_node45"><a xlink:href="_s_w2_d_8h.html" target="_top" xlink:title=" ">
<polygon fill="white" stroke="red" points="2254.5,-56.5 2254.5,-75.5 2309.5,-75.5 2309.5,-56.5 2254.5,-56.5"/>
<text text-anchor="middle" x="2282" y="-63.5" font-family="Helvetica,sans-Serif" font-size="10.00">SW2D.h</text>
</a>
</g>
</g>
<!-- Node1&#45;&gt;Node50 -->
<g id="edge44" class="edge">
<title>Node1&#45;&gt;Node50</title>
<path fill="none" stroke="midnightblue" d="M1497.83,-121.48C1628.29,-121.86 1967.1,-118.29 2246,-76 2248.68,-75.59 2251.44,-75.08 2254.2,-74.5"/>
<polygon fill="midnightblue" stroke="midnightblue" points="1497.71,-117.98 1487.7,-121.44 1497.69,-124.98 1497.71,-117.98"/>
</g>
<!-- Node52 -->
<g id="node46" class="node">
<title>Node52</title>
<g id="a_node46"><a xlink:href="_s_w2_d_c_v_8h.html" target="_top" xlink:title=" ">
<polygon fill="white" stroke="red" points="2327.5,-56.5 2327.5,-75.5 2394.5,-75.5 2394.5,-56.5 2327.5,-56.5"/>
<text text-anchor="middle" x="2361" y="-63.5" font-family="Helvetica,sans-Serif" font-size="10.00">SW2DCV.h</text>
</a>
</g>
</g>
<!-- Node1&#45;&gt;Node52 -->
<g id="edge45" class="edge">
<title>Node1&#45;&gt;Node52</title>
<path fill="none" stroke="midnightblue" d="M1498.26,-121.22C1636.95,-121.1 2010.74,-116.68 2319,-76 2321.66,-75.65 2324.41,-75.22 2327.15,-74.74"/>
<polygon fill="midnightblue" stroke="midnightblue" points="1497.9,-117.72 1487.9,-121.22 1497.9,-124.72 1497.9,-117.72"/>
</g>
<!-- Node54 -->
<g id="node47" class="node">
<title>Node54</title>
<g id="a_node47"><a xlink:href="_v_o_f_8h.html" target="_top" xlink:title=" ">
<polygon fill="white" stroke="red" points="2413,-56.5 2413,-75.5 2457,-75.5 2457,-56.5 2413,-56.5"/>
<text text-anchor="middle" x="2435" y="-63.5" font-family="Helvetica,sans-Serif" font-size="10.00">VOF.h</text>
</a>
</g>
</g>
<!-- Node1&#45;&gt;Node54 -->
<g id="edge46" class="edge">
<title>Node1&#45;&gt;Node54</title>
<path fill="none" stroke="midnightblue" d="M1497.6,-120.13C1674.05,-117.07 2227.61,-105.31 2404,-76 2406.87,-75.52 2409.86,-74.87 2412.79,-74.13"/>
<polygon fill="midnightblue" stroke="midnightblue" points="1497.45,-116.64 1487.52,-120.31 1497.57,-123.64 1497.45,-116.64"/>
</g>
<!-- Node56 -->
<g id="node48" class="node">
<title>Node56</title>
<g id="a_node48"><a xlink:href="_v_o_f3_p_8h.html" target="_top" xlink:title=" ">
<polygon fill="white" stroke="red" points="2475,-56.5 2475,-75.5 2531,-75.5 2531,-56.5 2475,-56.5"/>
<text text-anchor="middle" x="2503" y="-63.5" font-family="Helvetica,sans-Serif" font-size="10.00">VOF3P.h</text>
</a>
</g>
</g>
<!-- Node1&#45;&gt;Node56 -->
<g id="edge47" class="edge">
<title>Node1&#45;&gt;Node56</title>
<path fill="none" stroke="midnightblue" d="M1497.93,-119.99C1682.07,-116.4 2276.51,-102.95 2466,-76 2468.88,-75.59 2471.86,-75.06 2474.83,-74.45"/>
<polygon fill="midnightblue" stroke="midnightblue" points="1497.61,-116.5 1487.68,-120.19 1497.74,-123.5 1497.61,-116.5"/>
</g>
<!-- Node58 -->
<g id="node49" class="node">
<title>Node58</title>
<g id="a_node49"><a xlink:href="_v_o_s3_p_8h.html" target="_top" xlink:title=" ">
<polygon fill="white" stroke="red" points="2549,-56.5 2549,-75.5 2605,-75.5 2605,-56.5 2549,-56.5"/>
<text text-anchor="middle" x="2577" y="-63.5" font-family="Helvetica,sans-Serif" font-size="10.00">VOS3P.h</text>
</a>
</g>
</g>
<!-- Node1&#45;&gt;Node58 -->
<g id="edge48" class="edge">
<title>Node1&#45;&gt;Node58</title>
<path fill="none" stroke="midnightblue" d="M1497.67,-120.19C1690.07,-117.1 2335.31,-104.8 2540,-76 2542.88,-75.59 2545.86,-75.06 2548.83,-74.46"/>
<polygon fill="midnightblue" stroke="midnightblue" points="1497.46,-116.69 1487.52,-120.35 1497.57,-123.69 1497.46,-116.69"/>
</g>
<!-- Node60 -->
<g id="node50" class="node">
<title>Node60</title>
<g id="a_node50"><a xlink:href="_richards_8h.html" target="_top" xlink:title=" ">
<polygon fill="white" stroke="red" points="2623,-56.5 2623,-75.5 2691,-75.5 2691,-56.5 2623,-56.5"/>
<text text-anchor="middle" x="2657" y="-63.5" font-family="Helvetica,sans-Serif" font-size="10.00">Richards.h</text>
</a>
</g>
</g>
<!-- Node1&#45;&gt;Node60 -->
<g id="edge49" class="edge">
<title>Node1&#45;&gt;Node60</title>
<path fill="none" stroke="midnightblue" d="M1497.63,-120.12C1698.18,-116.69 2393.69,-103.09 2614,-76 2616.88,-75.65 2619.85,-75.2 2622.82,-74.69"/>
<polygon fill="midnightblue" stroke="midnightblue" points="1497.56,-116.62 1487.62,-120.29 1497.68,-123.62 1497.56,-116.62"/>
</g>
<!-- Node3 -->
<g id="node3" class="node">
<title>Node3</title>
<g id="a_node3"><a xlink:href="_a_d_r_8cpp.html" target="_top" xlink:title=" ">
<polygon fill="white" stroke="black" points="0,-0.5 0,-19.5 58,-19.5 58,-0.5 0,-0.5"/>
<text text-anchor="middle" x="29" y="-7.5" font-family="Helvetica,sans-Serif" font-size="10.00">ADR.cpp</text>
</a>
</g>
</g>
<!-- Node2&#45;&gt;Node3 -->
<g id="edge2" class="edge">
<title>Node2&#45;&gt;Node3</title>
<path fill="none" stroke="midnightblue" d="M38.18,-46.4C35.83,-37.36 33.13,-26.94 31.27,-19.75"/>
<polygon fill="midnightblue" stroke="midnightblue" points="34.79,-47.28 40.69,-56.08 41.57,-45.52 34.79,-47.28"/>
</g>
<!-- Node5 -->
<g id="node5" class="node">
<title>Node5</title>
<g id="a_node5"><a xlink:href="c_elasto_plastic_8cpp.html" target="_top" xlink:title=" ">
<polygon fill="white" stroke="black" points="76,-0.5 76,-19.5 180,-19.5 180,-0.5 76,-0.5"/>
<text text-anchor="middle" x="128" y="-7.5" font-family="Helvetica,sans-Serif" font-size="10.00">cElastoPlastic.cpp</text>
</a>
</g>
</g>
<!-- Node4&#45;&gt;Node5 -->
<g id="edge4" class="edge">
<title>Node4&#45;&gt;Node5</title>
<path fill="none" stroke="midnightblue" d="M132.55,-46.1C131.39,-37.14 130.06,-26.86 129.13,-19.75"/>
<polygon fill="midnightblue" stroke="midnightblue" points="129.09,-46.62 133.84,-56.08 136.03,-45.72 129.09,-46.62"/>
</g>
<!-- Node7 -->
<g id="node7" class="node">
<title>Node7</title>
<g id="a_node7"><a xlink:href="_added_mass_8cpp.html" target="_top" xlink:title=" ">
<polygon fill="white" stroke="black" points="198.5,-0.5 198.5,-19.5 291.5,-19.5 291.5,-0.5 198.5,-0.5"/>
<text text-anchor="middle" x="245" y="-7.5" font-family="Helvetica,sans-Serif" font-size="10.00">AddedMass.cpp</text>
</a>
</g>
</g>
<!-- Node6&#45;&gt;Node7 -->
<g id="edge6" class="edge">
<title>Node6&#45;&gt;Node7</title>
<path fill="none" stroke="midnightblue" d="M248.9,-46.1C247.9,-37.14 246.76,-26.86 245.97,-19.75"/>
<polygon fill="midnightblue" stroke="midnightblue" points="245.43,-46.53 250.01,-56.08 252.38,-45.76 245.43,-46.53"/>
</g>
<!-- Node9 -->
<g id="node9" class="node">
<title>Node9</title>
<g id="a_node9"><a xlink:href="_c_l_s_v_o_f_8cpp.html" target="_top" xlink:title=" ">
<polygon fill="white" stroke="black" points="310,-0.5 310,-19.5 384,-19.5 384,-0.5 310,-0.5"/>
<text text-anchor="middle" x="347" y="-7.5" font-family="Helvetica,sans-Serif" font-size="10.00">CLSVOF.cpp</text>
</a>
</g>
</g>
<!-- Node8&#45;&gt;Node9 -->
<g id="edge8" class="edge">
<title>Node8&#45;&gt;Node9</title>
<path fill="none" stroke="midnightblue" d="M350.9,-46.1C349.9,-37.14 348.76,-26.86 347.97,-19.75"/>
<polygon fill="midnightblue" stroke="midnightblue" points="347.43,-46.53 352.01,-56.08 354.38,-45.76 347.43,-46.53"/>
</g>
<!-- Node11 -->
<g id="node11" class="node">
<title>Node11</title>
<g id="a_node11"><a xlink:href="_dissipation_8cpp.html" target="_top" xlink:title=" ">
<polygon fill="white" stroke="black" points="402,-0.5 402,-19.5 494,-19.5 494,-0.5 402,-0.5"/>
<text text-anchor="middle" x="448" y="-7.5" font-family="Helvetica,sans-Serif" font-size="10.00">Dissipation.cpp</text>
</a>
</g>
</g>
<!-- Node10&#45;&gt;Node11 -->
<g id="edge10" class="edge">
<title>Node10&#45;&gt;Node11</title>
<path fill="none" stroke="midnightblue" d="M451.9,-46.1C450.9,-37.14 449.76,-26.86 448.97,-19.75"/>
<polygon fill="midnightblue" stroke="midnightblue" points="448.43,-46.53 453.01,-56.08 455.38,-45.76 448.43,-46.53"/>
</g>
<!-- Node13 -->
<g id="node13" class="node">
<title>Node13</title>
<g id="a_node13"><a xlink:href="_dissipation2_d_8cpp.html" target="_top" xlink:title=" ">
<polygon fill="white" stroke="black" points="512.5,-0.5 512.5,-19.5 617.5,-19.5 617.5,-0.5 512.5,-0.5"/>
<text text-anchor="middle" x="565" y="-7.5" font-family="Helvetica,sans-Serif" font-size="10.00">Dissipation2D.cpp</text>
</a>
</g>
</g>
<!-- Node12&#45;&gt;Node13 -->
<g id="edge12" class="edge">
<title>Node12&#45;&gt;Node13</title>
<path fill="none" stroke="midnightblue" d="M568.25,-46.1C567.42,-37.14 566.47,-26.86 565.81,-19.75"/>
<polygon fill="midnightblue" stroke="midnightblue" points="564.77,-46.45 569.17,-56.08 571.74,-45.8 564.77,-46.45"/>
</g>
<!-- Node15 -->
<g id="node15" class="node">
<title>Node15</title>
<g id="a_node15"><a xlink:href="_g_n___s_w2_d_c_v_8cpp.html" target="_top" xlink:title=" ">
<polygon fill="white" stroke="black" points="636,-0.5 636,-19.5 734,-19.5 734,-0.5 636,-0.5"/>
<text text-anchor="middle" x="685" y="-7.5" font-family="Helvetica,sans-Serif" font-size="10.00">GN_SW2DCV.cpp</text>
</a>
</g>
</g>
<!-- Node14&#45;&gt;Node15 -->
<g id="edge14" class="edge">
<title>Node14&#45;&gt;Node15</title>
<path fill="none" stroke="midnightblue" d="M688.25,-46.1C687.42,-37.14 686.47,-26.86 685.81,-19.75"/>
<polygon fill="midnightblue" stroke="midnightblue" points="684.77,-46.45 689.17,-56.08 691.74,-45.8 684.77,-46.45"/>
</g>
<!-- Node17 -->
<g id="node17" class="node">
<title>Node17</title>
<g id="a_node17"><a xlink:href="_kappa_8cpp.html" target="_top" xlink:title=" ">
<polygon fill="white" stroke="black" points="752,-0.5 752,-19.5 820,-19.5 820,-0.5 752,-0.5"/>
<text text-anchor="middle" x="786" y="-7.5" font-family="Helvetica,sans-Serif" font-size="10.00">Kappa.cpp</text>
</a>
</g>
</g>
<!-- Node16&#45;&gt;Node17 -->
<g id="edge16" class="edge">
<title>Node16&#45;&gt;Node17</title>
<path fill="none" stroke="midnightblue" d="M789.9,-46.1C788.9,-37.14 787.76,-26.86 786.97,-19.75"/>
<polygon fill="midnightblue" stroke="midnightblue" points="786.43,-46.53 791.01,-56.08 793.38,-45.76 786.43,-46.53"/>
</g>
<!-- Node19 -->
<g id="node19" class="node">
<title>Node19</title>
<g id="a_node19"><a xlink:href="_kappa2_d_8cpp.html" target="_top" xlink:title=" ">
<polygon fill="white" stroke="black" points="838.5,-0.5 838.5,-19.5 919.5,-19.5 919.5,-0.5 838.5,-0.5"/>
<text text-anchor="middle" x="879" y="-7.5" font-family="Helvetica,sans-Serif" font-size="10.00">Kappa2D.cpp</text>
</a>
</g>
</g>
<!-- Node18&#45;&gt;Node19 -->
<g id="edge18" class="edge">
<title>Node18&#45;&gt;Node19</title>
<path fill="none" stroke="midnightblue" d="M882.25,-46.1C881.42,-37.14 880.47,-26.86 879.81,-19.75"/>
<polygon fill="midnightblue" stroke="midnightblue" points="878.77,-46.45 883.17,-56.08 885.74,-45.8 878.77,-46.45"/>
</g>
<!-- Node21 -->
<g id="node21" class="node">
<title>Node21</title>
<g id="a_node21"><a xlink:href="_m_corr_8cpp.html" target="_top" xlink:title=" ">
<polygon fill="white" stroke="black" points="937.5,-0.5 937.5,-19.5 1002.5,-19.5 1002.5,-0.5 937.5,-0.5"/>
<text text-anchor="middle" x="970" y="-7.5" font-family="Helvetica,sans-Serif" font-size="10.00">MCorr.cpp</text>
</a>
</g>
</g>
<!-- Node20&#45;&gt;Node21 -->
<g id="edge20" class="edge">
<title>Node20&#45;&gt;Node21</title>
<path fill="none" stroke="midnightblue" d="M970,-45.8C970,-36.91 970,-26.78 970,-19.75"/>
<polygon fill="midnightblue" stroke="midnightblue" points="966.5,-46.08 970,-56.08 973.5,-46.08 966.5,-46.08"/>
</g>
<!-- Node23 -->
<g id="node23" class="node">
<title>Node23</title>
<g id="a_node23"><a xlink:href="_m_corr3_p_8cpp.html" target="_top" xlink:title=" ">
<polygon fill="white" stroke="black" points="1020.5,-0.5 1020.5,-19.5 1097.5,-19.5 1097.5,-0.5 1020.5,-0.5"/>
<text text-anchor="middle" x="1059" y="-7.5" font-family="Helvetica,sans-Serif" font-size="10.00">MCorr3P.cpp</text>
</a>
</g>
</g>
<!-- Node22&#45;&gt;Node23 -->
<g id="edge22" class="edge">
<title>Node22&#45;&gt;Node23</title>
<path fill="none" stroke="midnightblue" d="M1051.85,-46.1C1053.68,-37.14 1055.77,-26.86 1057.22,-19.75"/>
<polygon fill="midnightblue" stroke="midnightblue" points="1048.38,-45.59 1049.82,-56.08 1055.24,-46.98 1048.38,-45.59"/>
</g>
<!-- Node25 -->
<g id="node25" class="node">
<title>Node25</title>
<g id="a_node25"><a xlink:href="_move_mesh_8cpp.html" target="_top" xlink:title=" ">
<polygon fill="white" stroke="black" points="1116,-0.5 1116,-19.5 1206,-19.5 1206,-0.5 1116,-0.5"/>
<text text-anchor="middle" x="1161" y="-7.5" font-family="Helvetica,sans-Serif" font-size="10.00">MoveMesh.cpp</text>
</a>
</g>
</g>
<!-- Node24&#45;&gt;Node25 -->
<g id="edge24" class="edge">
<title>Node24&#45;&gt;Node25</title>
<path fill="none" stroke="midnightblue" d="M1145.8,-46.69C1149.68,-37.59 1154.18,-27.01 1157.27,-19.75"/>
<polygon fill="midnightblue" stroke="midnightblue" points="1142.5,-45.51 1141.8,-56.08 1148.94,-48.25 1142.5,-45.51"/>
</g>
<!-- Node27 -->
<g id="node27" class="node">
<title>Node27</title>
<g id="a_node27"><a xlink:href="_move_mesh2_d_8cpp.html" target="_top" xlink:title=" ">
<polygon fill="white" stroke="black" points="1224,-0.5 1224,-19.5 1328,-19.5 1328,-0.5 1224,-0.5"/>
<text text-anchor="middle" x="1276" y="-7.5" font-family="Helvetica,sans-Serif" font-size="10.00">MoveMesh2D.cpp</text>
</a>
</g>
</g>
<!-- Node26&#45;&gt;Node27 -->
<g id="edge26" class="edge">
<title>Node26&#45;&gt;Node27</title>
<path fill="none" stroke="midnightblue" d="M1252.98,-47.57C1258.83,-38.27 1265.77,-27.25 1270.49,-19.75"/>
<polygon fill="midnightblue" stroke="midnightblue" points="1249.98,-45.76 1247.61,-56.08 1255.9,-49.49 1249.98,-45.76"/>
</g>
<!-- Node29 -->
<g id="node29" class="node">
<title>Node29</title>
<g id="a_node29"><a xlink:href="_n_c_l_s_8cpp.html" target="_top" xlink:title=" ">
<polygon fill="white" stroke="black" points="1346,-0.5 1346,-19.5 1408,-19.5 1408,-0.5 1346,-0.5"/>
<text text-anchor="middle" x="1377" y="-7.5" font-family="Helvetica,sans-Serif" font-size="10.00">NCLS.cpp</text>
</a>
</g>
</g>
<!-- Node28&#45;&gt;Node29 -->
<g id="edge28" class="edge">
<title>Node28&#45;&gt;Node29</title>
<path fill="none" stroke="midnightblue" d="M1346.05,-48.14C1353.89,-38.74 1363.33,-27.4 1369.71,-19.75"/>
<polygon fill="midnightblue" stroke="midnightblue" points="1343.14,-46.16 1339.43,-56.08 1348.52,-50.64 1343.14,-46.16"/>
</g>
<!-- Node31 -->
<g id="node31" class="node">
<title>Node31</title>
<g id="a_node31"><a xlink:href="_n_c_l_s3_p_8cpp.html" target="_top" xlink:title=" ">
<polygon fill="white" stroke="black" points="1426.5,-0.5 1426.5,-19.5 1499.5,-19.5 1499.5,-0.5 1426.5,-0.5"/>
<text text-anchor="middle" x="1463" y="-7.5" font-family="Helvetica,sans-Serif" font-size="10.00">NCLS3P.cpp</text>
</a>
</g>
</g>
<!-- Node30&#45;&gt;Node31 -->
<g id="edge30" class="edge">
<title>Node30&#45;&gt;Node31</title>
<path fill="none" stroke="midnightblue" d="M1423.33,-49.25C1433.26,-39.67 1445.59,-27.79 1453.84,-19.83"/>
<polygon fill="midnightblue" stroke="midnightblue" points="1420.77,-46.86 1416,-56.32 1425.63,-51.9 1420.77,-46.86"/>
</g>
<!-- Node33 -->
<g id="node33" class="node">
<title>Node33</title>
<g id="a_node33"><a xlink:href="_pres_8cpp.html" target="_top" xlink:title=" ">
<polygon fill="white" stroke="black" points="1518,-0.5 1518,-19.5 1576,-19.5 1576,-0.5 1518,-0.5"/>
<text text-anchor="middle" x="1547" y="-7.5" font-family="Helvetica,sans-Serif" font-size="10.00">Pres.cpp</text>
</a>
</g>
</g>
<!-- Node32&#45;&gt;Node33 -->
<g id="edge32" class="edge">
<title>Node32&#45;&gt;Node33</title>
<path fill="none" stroke="midnightblue" d="M1498.83,-49.82C1510.84,-40.15 1525.97,-27.95 1536.04,-19.83"/>
<polygon fill="midnightblue" stroke="midnightblue" points="1496.35,-47.32 1490.76,-56.32 1500.75,-52.77 1496.35,-47.32"/>
</g>
<!-- Node35 -->
<g id="node35" class="node">
<title>Node35</title>
<g id="a_node35"><a xlink:href="_pres_inc_8cpp.html" target="_top" xlink:title=" ">
<polygon fill="white" stroke="black" points="1594,-0.5 1594,-19.5 1666,-19.5 1666,-0.5 1594,-0.5"/>
<text text-anchor="middle" x="1630" y="-7.5" font-family="Helvetica,sans-Serif" font-size="10.00">PresInc.cpp</text>
</a>
</g>
</g>
<!-- Node34&#45;&gt;Node35 -->
<g id="edge34" class="edge">
<title>Node34&#45;&gt;Node35</title>
<path fill="none" stroke="midnightblue" d="M1572.77,-50.62C1587.02,-40.76 1605.46,-27.99 1617.5,-19.65"/>
<polygon fill="midnightblue" stroke="midnightblue" points="1570.76,-47.75 1564.53,-56.32 1574.75,-53.51 1570.76,-47.75"/>
</g>
<!-- Node37 -->
<g id="node37" class="node">
<title>Node37</title>
<g id="a_node37"><a xlink:href="_pres_init_8cpp.html" target="_top" xlink:title=" ">
<polygon fill="white" stroke="black" points="1684,-0.5 1684,-19.5 1758,-19.5 1758,-0.5 1684,-0.5"/>
<text text-anchor="middle" x="1721" y="-7.5" font-family="Helvetica,sans-Serif" font-size="10.00">PresInit.cpp</text>
</a>
</g>
</g>
<!-- Node36&#45;&gt;Node37 -->
<g id="edge36" class="edge">
<title>Node36&#45;&gt;Node37</title>
<path fill="none" stroke="midnightblue" d="M1655.24,-50.9C1671.56,-41 1692.87,-28.07 1706.74,-19.65"/>
<polygon fill="midnightblue" stroke="midnightblue" points="1653.03,-48.14 1646.3,-56.32 1656.66,-54.13 1653.03,-48.14"/>
</g>
<!-- Node39 -->
<g id="node39" class="node">
<title>Node39</title>
<g id="a_node39"><a xlink:href="_r_a_n_s2_p___i_b_8cpp.html" target="_top" xlink:title=" ">
<polygon fill="white" stroke="black" points="1776.5,-0.5 1776.5,-19.5 1867.5,-19.5 1867.5,-0.5 1776.5,-0.5"/>
<text text-anchor="middle" x="1822" y="-7.5" font-family="Helvetica,sans-Serif" font-size="10.00">RANS2P_IB.cpp</text>
</a>
</g>
</g>
<!-- Node38&#45;&gt;Node39 -->
<g id="edge38" class="edge">
<title>Node38&#45;&gt;Node39</title>
<path fill="none" stroke="midnightblue" d="M1746.08,-51.59C1764.76,-41.61 1789.7,-28.27 1805.81,-19.65"/>
<polygon fill="midnightblue" stroke="midnightblue" points="1744.4,-48.52 1737.23,-56.32 1747.7,-54.7 1744.4,-48.52"/>
</g>
</g>
</svg>
