<?xml version="1.0" encoding="UTF-8" standalone="no"?>
<!DOCTYPE svg PUBLIC "-//W3C//DTD SVG 1.1//EN"
 "http://www.w3.org/Graphics/SVG/1.1/DTD/svg11.dtd">
<!-- Generated by graphviz version 2.40.1 (20161225.0304)
 -->
<!-- Title: ModelFactory.h Pages: 1 -->
<svg width="2642pt" height="140pt"
 viewBox="0.00 0.00 2641.50 140.00" xmlns="http://www.w3.org/2000/svg" xmlns:xlink="http://www.w3.org/1999/xlink">
<g id="graph0" class="graph" transform="scale(1 1) rotate(0) translate(4 136)">
<title>ModelFactory.h</title>
<polygon fill="#ffffff" stroke="transparent" points="-4,4 -4,-136 2637.5,-136 2637.5,4 -4,4"/>
<!-- Node2 -->
<g id="node1" class="node">
<title>Node2</title>
<polygon fill="#bfbfbf" stroke="#000000" points="1347.5,-112.5 1347.5,-131.5 1431.5,-131.5 1431.5,-112.5 1347.5,-112.5"/>
<text text-anchor="middle" x="1389.5" y="-119.5" font-family="Helvetica,sans-Serif" font-size="10.00" fill="#000000">ModelFactory.h</text>
</g>
<!-- Node3 -->
<g id="node2" class="node">
<title>Node3</title>
<g id="a_node2"><a xlink:href="_a_d_r_8h.html" target="_top" xlink:title="ADR.h">
<polygon fill="#ffffff" stroke="#000000" points="18,-56.5 18,-75.5 65,-75.5 65,-56.5 18,-56.5"/>
<text text-anchor="middle" x="41.5" y="-63.5" font-family="Helvetica,sans-Serif" font-size="10.00" fill="#000000">ADR.h</text>
</a>
</g>
</g>
<!-- Node2&#45;&gt;Node3 -->
<g id="edge1" class="edge">
<title>Node2&#45;&gt;Node3</title>
<path fill="none" stroke="#191970" d="M1337.0955,-121.7127C1124.8304,-120.3093 328.4421,-112.6599 79.5,-76 74.7757,-75.3043 69.7938,-74.2414 65.0484,-73.0641"/>
<polygon fill="#191970" stroke="#191970" points="1337.3186,-125.2142 1347.3409,-121.7786 1337.3636,-118.2143 1337.3186,-125.2142"/>
</g>
<!-- Node5 -->
<g id="node4" class="node">
<title>Node5</title>
<g id="a_node4"><a xlink:href="_elasto_plastic_8h.html" target="_top" xlink:title="ElastoPlastic.h">
<polygon fill="#ffffff" stroke="#000000" points="89,-56.5 89,-75.5 172,-75.5 172,-56.5 89,-56.5"/>
<text text-anchor="middle" x="130.5" y="-63.5" font-family="Helvetica,sans-Serif" font-size="10.00" fill="#000000">ElastoPlastic.h</text>
</a>
</g>
</g>
<!-- Node2&#45;&gt;Node5 -->
<g id="edge3" class="edge">
<title>Node2&#45;&gt;Node5</title>
<path fill="none" stroke="#191970" d="M1337.1493,-120.8361C1136.9295,-116.253 419.568,-98.5906 192.5,-76 185.8818,-75.3416 178.8974,-74.4291 172.097,-73.4212"/>
<polygon fill="#191970" stroke="#191970" points="1337.317,-124.3407 1347.3942,-121.0695 1337.4765,-117.3426 1337.317,-124.3407"/>
</g>
<!-- Node7 -->
<g id="node6" class="node">
<title>Node7</title>
<g id="a_node6"><a xlink:href="_added_mass_8h.html" target="_top" xlink:title="AddedMass.h">
<polygon fill="#ffffff" stroke="#000000" points="202,-56.5 202,-75.5 279,-75.5 279,-56.5 202,-56.5"/>
<text text-anchor="middle" x="240.5" y="-63.5" font-family="Helvetica,sans-Serif" font-size="10.00" fill="#000000">AddedMass.h</text>
</a>
</g>
</g>
<!-- Node2&#45;&gt;Node7 -->
<g id="edge5" class="edge">
<title>Node2&#45;&gt;Node7</title>
<path fill="none" stroke="#191970" d="M1337.0575,-120.7305C1148.0242,-116.0081 501.9368,-98.5618 296.5,-76 290.9043,-75.3855 285.0242,-74.5488 279.2638,-73.6195"/>
<polygon fill="#191970" stroke="#191970" points="1337.1987,-124.235 1347.2827,-120.9846 1337.3727,-117.2371 1337.1987,-124.235"/>
</g>
<!-- Node9 -->
<g id="node8" class="node">
<title>Node9</title>
<g id="a_node8"><a xlink:href="_c_l_s_v_o_f_8h.html" target="_top" xlink:title="CLSVOF.h">
<polygon fill="#ffffff" stroke="#000000" points="306,-56.5 306,-75.5 371,-75.5 371,-56.5 306,-56.5"/>
<text text-anchor="middle" x="338.5" y="-63.5" font-family="Helvetica,sans-Serif" font-size="10.00" fill="#000000">CLSVOF.h</text>
</a>
</g>
</g>
<!-- Node2&#45;&gt;Node9 -->
<g id="edge7" class="edge">
<title>Node2&#45;&gt;Node9</title>
<path fill="none" stroke="#191970" d="M1337.16,-120.5866C1158.9508,-115.6182 576.5567,-98.0573 390.5,-76 384.2008,-75.2532 377.5196,-74.1825 371.12,-73.0168"/>
<polygon fill="#191970" stroke="#191970" points="1337.2292,-124.0898 1347.3225,-120.8685 1337.4234,-117.0925 1337.2292,-124.0898"/>
</g>
<!-- Node11 -->
<g id="node10" class="node">
<title>Node11</title>
<g id="a_node10"><a xlink:href="_dissipation_8h.html" target="_top" xlink:title="Dissipation.h">
<polygon fill="#ffffff" stroke="#000000" points="399.5,-56.5 399.5,-75.5 473.5,-75.5 473.5,-56.5 399.5,-56.5"/>
<text text-anchor="middle" x="436.5" y="-63.5" font-family="Helvetica,sans-Serif" font-size="10.00" fill="#000000">Dissipation.h</text>
</a>
</g>
</g>
<!-- Node2&#45;&gt;Node11 -->
<g id="edge9" class="edge">
<title>Node2&#45;&gt;Node11</title>
<path fill="none" stroke="#191970" d="M1336.9976,-121.6048C1198.4783,-120.0656 811.8408,-112.5546 492.5,-76 486.4166,-75.3036 479.9952,-74.358 473.7563,-73.3247"/>
<polygon fill="#191970" stroke="#191970" points="1337.2767,-125.1078 1347.313,-121.7133 1337.3504,-118.1082 1337.2767,-125.1078"/>
</g>
<!-- Node13 -->
<g id="node12" class="node">
<title>Node13</title>
<g id="a_node12"><a xlink:href="_dissipation2_d_8h.html" target="_top" xlink:title="Dissipation2D.h">
<polygon fill="#ffffff" stroke="#000000" points="501.5,-56.5 501.5,-75.5 587.5,-75.5 587.5,-56.5 501.5,-56.5"/>
<text text-anchor="middle" x="544.5" y="-63.5" font-family="Helvetica,sans-Serif" font-size="10.00" fill="#000000">Dissipation2D.h</text>
</a>
</g>
</g>
<!-- Node2&#45;&gt;Node13 -->
<g id="edge11" class="edge">
<title>Node2&#45;&gt;Node13</title>
<path fill="none" stroke="#191970" d="M1337.2198,-120.7564C1211.1756,-117.3605 880.678,-106.0867 606.5,-76 600.4308,-75.334 594.05,-74.4809 587.7845,-73.5543"/>
<polygon fill="#191970" stroke="#191970" points="1337.2705,-124.2589 1347.3595,-121.0244 1337.4555,-117.2613 1337.2705,-124.2589"/>
</g>
<!-- Node15 -->
<g id="node14" class="node">
<title>Node15</title>
<g id="a_node14"><a xlink:href="_g_n___s_w2_d_c_v_8h.html" target="_top" xlink:title="GN_SW2DCV.h">
<polygon fill="#ffffff" stroke="#000000" points="616,-56.5 616,-75.5 705,-75.5 705,-56.5 616,-56.5"/>
<text text-anchor="middle" x="660.5" y="-63.5" font-family="Helvetica,sans-Serif" font-size="10.00" fill="#000000">GN_SW2DCV.h</text>
</a>
</g>
</g>
<!-- Node2&#45;&gt;Node15 -->
<g id="edge13" class="edge">
<title>Node2&#45;&gt;Node15</title>
<path fill="none" stroke="#191970" d="M1337.2449,-119.9651C1224.738,-115.2385 951.3121,-101.8963 723.5,-76 717.5581,-75.3246 711.3197,-74.4891 705.1744,-73.5912"/>
<polygon fill="#191970" stroke="#191970" points="1337.1685,-123.4648 1347.3051,-120.3827 1337.4589,-116.4709 1337.1685,-123.4648"/>
</g>
<!-- Node17 -->
<g id="node16" class="node">
<title>Node17</title>
<g id="a_node16"><a xlink:href="_kappa_8h.html" target="_top" xlink:title="Kappa.h">
<polygon fill="#ffffff" stroke="#000000" points="733,-56.5 733,-75.5 786,-75.5 786,-56.5 733,-56.5"/>
<text text-anchor="middle" x="759.5" y="-63.5" font-family="Helvetica,sans-Serif" font-size="10.00" fill="#000000">Kappa.h</text>
</a>
</g>
</g>
<!-- Node2&#45;&gt;Node17 -->
<g id="edge15" class="edge">
<title>Node2&#45;&gt;Node17</title>
<path fill="none" stroke="#191970" d="M1337.0437,-120.2506C1234.4618,-116.3042 1000.2936,-104.7099 805.5,-76 799.1935,-75.0705 792.4596,-73.7791 786.1443,-72.4326"/>
<polygon fill="#191970" stroke="#191970" points="1337.0156,-123.7519 1347.1402,-120.6305 1337.2789,-116.7569 1337.0156,-123.7519"/>
</g>
<!-- Node19 -->
<g id="node18" class="node">
<title>Node19</title>
<g id="a_node18"><a xlink:href="_kappa2_d_8h.html" target="_top" xlink:title="Kappa2D.h">
<polygon fill="#ffffff" stroke="#000000" points="815,-56.5 815,-75.5 880,-75.5 880,-56.5 815,-56.5"/>
<text text-anchor="middle" x="847.5" y="-63.5" font-family="Helvetica,sans-Serif" font-size="10.00" fill="#000000">Kappa2D.h</text>
</a>
</g>
</g>
<!-- Node2&#45;&gt;Node19 -->
<g id="edge17" class="edge">
<title>Node2&#45;&gt;Node19</title>
<path fill="none" stroke="#191970" d="M1337.2376,-119.1594C1246.6828,-113.7884 1054.9123,-100.4329 894.5,-76 889.7991,-75.284 884.8615,-74.3911 880.0256,-73.4355"/>
<polygon fill="#191970" stroke="#191970" points="1337.0615,-122.655 1347.2488,-119.745 1337.4703,-115.6669 1337.0615,-122.655"/>
</g>
<!-- Node21 -->
<g id="node20" class="node">
<title>Node21</title>
<g id="a_node20"><a xlink:href="_m_corr_8h.html" target="_top" xlink:title="MCorr.h">
<polygon fill="#ffffff" stroke="#000000" points="903.5,-56.5 903.5,-75.5 955.5,-75.5 955.5,-56.5 903.5,-56.5"/>
<text text-anchor="middle" x="929.5" y="-63.5" font-family="Helvetica,sans-Serif" font-size="10.00" fill="#000000">MCorr.h</text>
</a>
</g>
</g>
<!-- Node2&#45;&gt;Node21 -->
<g id="edge19" class="edge">
<title>Node2&#45;&gt;Node21</title>
<path fill="none" stroke="#191970" d="M1336.8248,-119.1935C1256.078,-114.2422 1097.1179,-101.9258 964.5,-76 961.647,-75.4423 958.6893,-74.7621 955.7565,-74.0215"/>
<polygon fill="#191970" stroke="#191970" points="1337.0269,-122.7118 1347.2184,-119.8165 1337.4458,-115.7244 1337.0269,-122.7118"/>
</g>
<!-- Node23 -->
<g id="node22" class="node">
<title>Node23</title>
<g id="a_node22"><a xlink:href="_m_corr3_p_8h.html" target="_top" xlink:title="MCorr3P.h">
<polygon fill="#ffffff" stroke="#000000" points="973.5,-56.5 973.5,-75.5 1037.5,-75.5 1037.5,-56.5 973.5,-56.5"/>
<text text-anchor="middle" x="1005.5" y="-63.5" font-family="Helvetica,sans-Serif" font-size="10.00" fill="#000000">MCorr3P.h</text>
</a>
</g>
</g>
<!-- Node2&#45;&gt;Node23 -->
<g id="edge21" class="edge">
<title>Node2&#45;&gt;Node23</title>
<path fill="none" stroke="#191970" d="M1337.3353,-116.7435C1269.865,-109.5473 1148.8506,-95.2888 1046.5,-76 1043.62,-75.4572 1040.639,-74.84 1037.659,-74.1847"/>
<polygon fill="#191970" stroke="#191970" points="1336.9805,-120.2254 1347.2929,-117.7956 1337.7161,-113.2642 1336.9805,-120.2254"/>
</g>
<!-- Node25 -->
<g id="node24" class="node">
<title>Node25</title>
<g id="a_node24"><a xlink:href="_move_mesh_8h.html" target="_top" xlink:title="MoveMesh.h">
<polygon fill="#ffffff" stroke="#000000" points="1056,-56.5 1056,-75.5 1129,-75.5 1129,-56.5 1056,-56.5"/>
<text text-anchor="middle" x="1092.5" y="-63.5" font-family="Helvetica,sans-Serif" font-size="10.00" fill="#000000">MoveMesh.h</text>
</a>
</g>
</g>
<!-- Node2&#45;&gt;Node25 -->
<g id="edge23" class="edge">
<title>Node2&#45;&gt;Node25</title>
<path fill="none" stroke="#191970" d="M1337.1392,-112.9197C1286.2966,-103.9811 1206.9779,-89.7143 1138.5,-76 1135.4549,-75.3901 1132.3002,-74.741 1129.1356,-74.0777"/>
<polygon fill="#191970" stroke="#191970" points="1336.7747,-116.4092 1347.229,-114.6894 1337.9841,-109.5144 1336.7747,-116.4092"/>
</g>
<!-- Node27 -->
<g id="node26" class="node">
<title>Node27</title>
<g id="a_node26"><a xlink:href="_move_mesh2_d_8h.html" target="_top" xlink:title="MoveMesh2D.h">
<polygon fill="#ffffff" stroke="#000000" points="1147.5,-56.5 1147.5,-75.5 1233.5,-75.5 1233.5,-56.5 1147.5,-56.5"/>
<text text-anchor="middle" x="1190.5" y="-63.5" font-family="Helvetica,sans-Serif" font-size="10.00" fill="#000000">MoveMesh2D.h</text>
</a>
</g>
</g>
<!-- Node2&#45;&gt;Node27 -->
<g id="edge25" class="edge">
<title>Node2&#45;&gt;Node27</title>
<path fill="none" stroke="#191970" d="M1345.3938,-109.5882C1308.8323,-99.2996 1257.6252,-84.8895 1224.2629,-75.5011"/>
<polygon fill="#191970" stroke="#191970" points="1344.7164,-113.0335 1355.2907,-112.3733 1346.6127,-106.2952 1344.7164,-113.0335"/>
</g>
<!-- Node29 -->
<g id="node28" class="node">
<title>Node29</title>
<g id="a_node28"><a xlink:href="_n_c_l_s_8h.html" target="_top" xlink:title="NCLS.h">
<polygon fill="#ffffff" stroke="#000000" points="1251.5,-56.5 1251.5,-75.5 1303.5,-75.5 1303.5,-56.5 1251.5,-56.5"/>
<text text-anchor="middle" x="1277.5" y="-63.5" font-family="Helvetica,sans-Serif" font-size="10.00" fill="#000000">NCLS.h</text>
</a>
</g>
</g>
<!-- Node2&#45;&gt;Node29 -->
<g id="edge27" class="edge">
<title>Node2&#45;&gt;Node29</title>
<path fill="none" stroke="#191970" d="M1361.1737,-107.8368C1340.9279,-97.7139 1314.2358,-84.3679 1296.5022,-75.5011"/>
<polygon fill="#191970" stroke="#191970" points="1359.737,-111.0316 1370.2465,-112.3733 1362.8675,-104.7706 1359.737,-111.0316"/>
</g>
<!-- Node31 -->
<g id="node30" class="node">
<title>Node31</title>
<g id="a_node30"><a xlink:href="_n_c_l_s3_p_8h.html" target="_top" xlink:title="NCLS3P.h">
<polygon fill="#ffffff" stroke="#000000" points="1321.5,-56.5 1321.5,-75.5 1385.5,-75.5 1385.5,-56.5 1321.5,-56.5"/>
<text text-anchor="middle" x="1353.5" y="-63.5" font-family="Helvetica,sans-Serif" font-size="10.00" fill="#000000">NCLS3P.h</text>
</a>
</g>
</g>
<!-- Node2&#45;&gt;Node31 -->
<g id="edge29" class="edge">
<title>Node2&#45;&gt;Node31</title>
<path fill="none" stroke="#191970" d="M1377.6904,-103.6296C1371.6856,-94.2887 1364.6341,-83.3197 1359.6989,-75.6427"/>
<polygon fill="#191970" stroke="#191970" points="1374.8775,-105.7264 1383.2293,-112.2455 1380.7658,-101.9411 1374.8775,-105.7264"/>
</g>
<!-- Node33 -->
<g id="node32" class="node">
<title>Node33</title>
<g id="a_node32"><a xlink:href="_pres_8h.html" target="_top" xlink:title="Pres.h">
<polygon fill="#ffffff" stroke="#000000" points="1404,-56.5 1404,-75.5 1449,-75.5 1449,-56.5 1404,-56.5"/>
<text text-anchor="middle" x="1426.5" y="-63.5" font-family="Helvetica,sans-Serif" font-size="10.00" fill="#000000">Pres.h</text>
</a>
</g>
</g>
<!-- Node2&#45;&gt;Node33 -->
<g id="edge31" class="edge">
<title>Node2&#45;&gt;Node33</title>
<path fill="none" stroke="#191970" d="M1401.6376,-103.6296C1407.8093,-94.2887 1415.0566,-83.3197 1420.1289,-75.6427"/>
<polygon fill="#191970" stroke="#191970" points="1398.5373,-101.9728 1395.9449,-112.2455 1404.3777,-105.8316 1398.5373,-101.9728"/>
</g>
<!-- Node35 -->
<g id="node34" class="node">
<title>Node35</title>
<g id="a_node34"><a xlink:href="_pres_inc_8h.html" target="_top" xlink:title="PresInc.h">
<polygon fill="#ffffff" stroke="#000000" points="1467,-56.5 1467,-75.5 1526,-75.5 1526,-56.5 1467,-56.5"/>
<text text-anchor="middle" x="1496.5" y="-63.5" font-family="Helvetica,sans-Serif" font-size="10.00" fill="#000000">PresInc.h</text>
</a>
</g>
</g>
<!-- Node2&#45;&gt;Node35 -->
<g id="edge33" class="edge">
<title>Node2&#45;&gt;Node35</title>
<path fill="none" stroke="#191970" d="M1417.0199,-107.5971C1436.2017,-97.558 1461.2678,-84.4393 1478.0756,-75.6427"/>
<polygon fill="#191970" stroke="#191970" points="1415.375,-104.5075 1408.138,-112.2455 1418.6209,-110.7095 1415.375,-104.5075"/>
</g>
<!-- Node37 -->
<g id="node36" class="node">
<title>Node37</title>
<g id="a_node36"><a xlink:href="_pres_init_8h.html" target="_top" xlink:title="PresInit.h">
<polygon fill="#ffffff" stroke="#000000" points="1544,-56.5 1544,-75.5 1603,-75.5 1603,-56.5 1544,-56.5"/>
<text text-anchor="middle" x="1573.5" y="-63.5" font-family="Helvetica,sans-Serif" font-size="10.00" fill="#000000">PresInit.h</text>
</a>
</g>
</g>
<!-- Node2&#45;&gt;Node37 -->
<g id="edge35" class="edge">
<title>Node2&#45;&gt;Node37</title>
<path fill="none" stroke="#191970" d="M1430.8674,-109.4099C1465.1953,-98.9623 1513.1825,-84.3575 1543.8023,-75.0384"/>
<polygon fill="#191970" stroke="#191970" points="1429.6784,-106.1132 1421.1307,-112.3733 1431.7166,-112.8099 1429.6784,-106.1132"/>
</g>
<!-- Node39 -->
<g id="node38" class="node">
<title>Node39</title>
<g id="a_node38"><a xlink:href="_r_a_n_s2_p___i_b_8h.html" target="_top" xlink:title="RANS2P_IB.h">
<polygon fill="#ffffff" stroke="#000000" points="1621.5,-56.5 1621.5,-75.5 1701.5,-75.5 1701.5,-56.5 1621.5,-56.5"/>
<text text-anchor="middle" x="1661.5" y="-63.5" font-family="Helvetica,sans-Serif" font-size="10.00" fill="#000000">RANS2P_IB.h</text>
</a>
</g>
</g>
<!-- Node2&#45;&gt;Node39 -->
<g id="edge37" class="edge">
<title>Node2&#45;&gt;Node39</title>
<path fill="none" stroke="#191970" d="M1441.807,-111.2309C1494.2316,-100.4376 1573.8009,-84.0557 1621.4174,-74.2523"/>
<polygon fill="#191970" stroke="#191970" points="1440.7903,-107.8667 1431.7016,-113.3114 1442.2019,-114.7229 1440.7903,-107.8667"/>
</g>
<!-- Node41 -->
<g id="node40" class="node">
<title>Node41</title>
<g id="a_node40"><a xlink:href="_r_a_n_s3_p_f_8h.html" target="_top" xlink:title="RANS3PF.h">
<polygon fill="#ffffff" stroke="#ff0000" points="1720,-56.5 1720,-75.5 1791,-75.5 1791,-56.5 1720,-56.5"/>
<text text-anchor="middle" x="1755.5" y="-63.5" font-family="Helvetica,sans-Serif" font-size="10.00" fill="#000000">RANS3PF.h</text>
</a>
</g>
</g>
<!-- Node2&#45;&gt;Node41 -->
<g id="edge39" class="edge">
<title>Node2&#45;&gt;Node41</title>
<path fill="none" stroke="#191970" d="M1441.9241,-115.7359C1505.6425,-107.8348 1616.3285,-93.1851 1710.5,-76 1713.4918,-75.454 1716.5869,-74.8498 1719.6887,-74.2167"/>
<polygon fill="#191970" stroke="#191970" points="1441.227,-112.2952 1431.7301,-116.9919 1442.0831,-119.2427 1441.227,-112.2952"/>
</g>
<!-- Node43 -->
<g id="node41" class="node">
<title>Node43</title>
<g id="a_node41"><a xlink:href="_r_a_n_s3_p_f2_d_8h.html" target="_top" xlink:title="RANS3PF2D.h">
<polygon fill="#ffffff" stroke="#ff0000" points="1809.5,-56.5 1809.5,-75.5 1893.5,-75.5 1893.5,-56.5 1809.5,-56.5"/>
<text text-anchor="middle" x="1851.5" y="-63.5" font-family="Helvetica,sans-Serif" font-size="10.00" fill="#000000">RANS3PF2D.h</text>
</a>
</g>
</g>
<!-- Node2&#45;&gt;Node43 -->
<g id="edge40" class="edge">
<title>Node2&#45;&gt;Node43</title>
<path fill="none" stroke="#191970" d="M1441.7421,-117.5394C1519.9849,-110.5457 1672.1375,-95.7337 1800.5,-76 1803.3538,-75.5613 1806.291,-75.076 1809.2461,-74.5626"/>
<polygon fill="#191970" stroke="#191970" points="1441.3106,-114.0638 1431.659,-118.4339 1441.9292,-121.0365 1441.3106,-114.0638"/>
</g>
<!-- Node45 -->
<g id="node42" class="node">
<title>Node45</title>
<g id="a_node42"><a xlink:href="_r_a_n_s3_p_sed_8h.html" target="_top" xlink:title="RANS3PSed.h">
<polygon fill="#ffffff" stroke="#ff0000" points="1912,-56.5 1912,-75.5 1995,-75.5 1995,-56.5 1912,-56.5"/>
<text text-anchor="middle" x="1953.5" y="-63.5" font-family="Helvetica,sans-Serif" font-size="10.00" fill="#000000">RANS3PSed.h</text>
</a>
</g>
</g>
<!-- Node2&#45;&gt;Node45 -->
<g id="edge41" class="edge">
<title>Node2&#45;&gt;Node45</title>
<path fill="none" stroke="#191970" d="M1441.5522,-119.1304C1534.4603,-113.6087 1734.8322,-99.889 1902.5,-76 1905.5371,-75.5673 1908.667,-75.0731 1911.8116,-74.5415"/>
<polygon fill="#191970" stroke="#191970" points="1441.3416,-115.6366 1431.564,-119.7169 1441.752,-122.6246 1441.3416,-115.6366"/>
</g>
<!-- Node47 -->
<g id="node43" class="node">
<title>Node47</title>
<g id="a_node43"><a xlink:href="_r_a_n_s3_p_sed2_d_8h.html" target="_top" xlink:title="RANS3PSed2D.h">
<polygon fill="#ffffff" stroke="#ff0000" points="2013,-56.5 2013,-75.5 2108,-75.5 2108,-56.5 2013,-56.5"/>
<text text-anchor="middle" x="2060.5" y="-63.5" font-family="Helvetica,sans-Serif" font-size="10.00" fill="#000000">RANS3PSed2D.h</text>
</a>
</g>
</g>
<!-- Node2&#45;&gt;Node47 -->
<g id="edge42" class="edge">
<title>Node2&#45;&gt;Node47</title>
<path fill="none" stroke="#191970" d="M1441.9253,-119.8852C1548.3207,-115.1954 1797.0984,-102.205 2004.5,-76 2007.2435,-75.6534 2010.0567,-75.2629 2012.8917,-74.8424"/>
<polygon fill="#191970" stroke="#191970" points="1441.6155,-116.3952 1431.777,-120.3263 1441.9195,-123.3886 1441.6155,-116.3952"/>
</g>
<!-- Node49 -->
<g id="node44" class="node">
<title>Node49</title>
<g id="a_node44"><a xlink:href="_r_d_l_s_8h.html" target="_top" xlink:title="RDLS.h">
<polygon fill="#ffffff" stroke="#ff0000" points="2126.5,-56.5 2126.5,-75.5 2178.5,-75.5 2178.5,-56.5 2126.5,-56.5"/>
<text text-anchor="middle" x="2152.5" y="-63.5" font-family="Helvetica,sans-Serif" font-size="10.00" fill="#000000">RDLS.h</text>
</a>
</g>
</g>
<!-- Node2&#45;&gt;Node49 -->
<g id="edge43" class="edge">
<title>Node2&#45;&gt;Node49</title>
<path fill="none" stroke="#191970" d="M1441.8862,-120.1554C1586.1908,-114.8409 1987.376,-98.4306 2117.5,-76 2120.3647,-75.5062 2123.33,-74.867 2126.2672,-74.1505"/>
<polygon fill="#191970" stroke="#191970" points="1441.4088,-116.6705 1431.5434,-120.5335 1441.6646,-123.6658 1441.4088,-116.6705"/>
</g>
<!-- Node51 -->
<g id="node45" class="node">
<title>Node51</title>
<g id="a_node45"><a xlink:href="_s_w2_d_8h.html" target="_top" xlink:title="SW2D.h">
<polygon fill="#ffffff" stroke="#ff0000" points="2196.5,-56.5 2196.5,-75.5 2250.5,-75.5 2250.5,-56.5 2196.5,-56.5"/>
<text text-anchor="middle" x="2223.5" y="-63.5" font-family="Helvetica,sans-Serif" font-size="10.00" fill="#000000">SW2D.h</text>
</a>
</g>
</g>
<!-- Node2&#45;&gt;Node51 -->
<g id="edge44" class="edge">
<title>Node2&#45;&gt;Node51</title>
<path fill="none" stroke="#191970" d="M1441.6243,-120.4483C1595.0199,-115.6519 2043.1323,-99.93 2187.5,-76 2190.3157,-75.5333 2193.227,-74.9316 2196.1178,-74.2551"/>
<polygon fill="#191970" stroke="#191970" points="1441.4113,-116.9532 1431.5246,-120.7616 1441.6284,-123.9498 1441.4113,-116.9532"/>
</g>
<!-- Node53 -->
<g id="node46" class="node">
<title>Node53</title>
<g id="a_node46"><a xlink:href="_s_w2_d_c_v_8h.html" target="_top" xlink:title="SW2DCV.h">
<polygon fill="#ffffff" stroke="#ff0000" points="2268.5,-56.5 2268.5,-75.5 2336.5,-75.5 2336.5,-56.5 2268.5,-56.5"/>
<text text-anchor="middle" x="2302.5" y="-63.5" font-family="Helvetica,sans-Serif" font-size="10.00" fill="#000000">SW2DCV.h</text>
</a>
</g>
</g>
<!-- Node2&#45;&gt;Node53 -->
<g id="edge45" class="edge">
<title>Node2&#45;&gt;Node53</title>
<path fill="none" stroke="#191970" d="M1441.7875,-120.4418C1604.4455,-115.404 2100.1363,-98.5652 2259.5,-76 2262.3837,-75.5917 2265.3588,-75.0842 2268.3346,-74.5161"/>
<polygon fill="#191970" stroke="#191970" points="1441.4498,-116.9504 1431.5622,-120.7565 1441.6652,-123.9471 1441.4498,-116.9504"/>
</g>
<!-- Node55 -->
<g id="node47" class="node">
<title>Node55</title>
<g id="a_node47"><a xlink:href="_v_o_f_8h.html" target="_top" xlink:title="VOF.h">
<polygon fill="#ffffff" stroke="#ff0000" points="2355,-56.5 2355,-75.5 2400,-75.5 2400,-56.5 2355,-56.5"/>
<text text-anchor="middle" x="2377.5" y="-63.5" font-family="Helvetica,sans-Serif" font-size="10.00" fill="#000000">VOF.h</text>
</a>
</g>
</g>
<!-- Node2&#45;&gt;Node55 -->
<g id="edge46" class="edge">
<title>Node2&#45;&gt;Node55</title>
<path fill="none" stroke="#191970" d="M1441.7161,-121.2373C1614.9463,-118.4328 2169.6304,-107.1828 2345.5,-76 2348.5948,-75.4513 2351.8078,-74.6891 2354.9515,-73.8279"/>
<polygon fill="#191970" stroke="#191970" points="1441.5266,-117.7398 1431.5836,-121.3987 1441.6381,-124.7389 1441.5266,-117.7398"/>
</g>
<!-- Node57 -->
<g id="node48" class="node">
<title>Node57</title>
<g id="a_node48"><a xlink:href="_v_o_f3_p_8h.html" target="_top" xlink:title="VOF3P.h">
<polygon fill="#ffffff" stroke="#ff0000" points="2418,-56.5 2418,-75.5 2475,-75.5 2475,-56.5 2418,-56.5"/>
<text text-anchor="middle" x="2446.5" y="-63.5" font-family="Helvetica,sans-Serif" font-size="10.00" fill="#000000">VOF3P.h</text>
</a>
</g>
</g>
<!-- Node2&#45;&gt;Node57 -->
<g id="edge47" class="edge">
<title>Node2&#45;&gt;Node57</title>
<path fill="none" stroke="#191970" d="M1441.8132,-121.153C1622.5718,-117.9902 2220.0728,-105.5046 2409.5,-76 2412.2614,-75.5699 2415.1127,-75.0117 2417.9499,-74.3792"/>
<polygon fill="#191970" stroke="#191970" points="1441.7014,-117.6544 1431.7634,-121.3268 1441.8224,-124.6533 1441.7014,-117.6544"/>
</g>
<!-- Node59 -->
<g id="node49" class="node">
<title>Node59</title>
<g id="a_node49"><a xlink:href="_v_o_s3_p_8h.html" target="_top" xlink:title="VOS3P.h">
<polygon fill="#ffffff" stroke="#ff0000" points="2493.5,-56.5 2493.5,-75.5 2551.5,-75.5 2551.5,-56.5 2493.5,-56.5"/>
<text text-anchor="middle" x="2522.5" y="-63.5" font-family="Helvetica,sans-Serif" font-size="10.00" fill="#000000">VOS3P.h</text>
</a>
</g>
</g>
<!-- Node2&#45;&gt;Node59 -->
<g id="edge48" class="edge">
<title>Node2&#45;&gt;Node59</title>
<path fill="none" stroke="#191970" d="M1441.7908,-121.295C1631.0098,-118.5115 2279.6493,-106.8877 2484.5,-76 2487.3331,-75.5728 2490.2595,-75.0166 2493.1722,-74.3853"/>
<polygon fill="#191970" stroke="#191970" points="1441.5058,-117.7987 1431.5577,-121.4434 1441.6074,-124.7979 1441.5058,-117.7987"/>
</g>
<!-- Node61 -->
<g id="node50" class="node">
<title>Node61</title>
<g id="a_node50"><a xlink:href="_richards_8h.html" target="_top" xlink:title="Richards.h">
<polygon fill="#ffffff" stroke="#ff0000" points="2569.5,-56.5 2569.5,-75.5 2633.5,-75.5 2633.5,-56.5 2569.5,-56.5"/>
<text text-anchor="middle" x="2601.5" y="-63.5" font-family="Helvetica,sans-Serif" font-size="10.00" fill="#000000">Richards.h</text>
</a>
</g>
</g>
<!-- Node2&#45;&gt;Node61 -->
<g id="edge49" class="edge">
<title>Node2&#45;&gt;Node61</title>
<path fill="none" stroke="#191970" d="M1441.7702,-121.3358C1639.2437,-118.6109 2339.792,-106.9331 2560.5,-76 2563.4023,-75.5932 2566.3986,-75.0694 2569.3887,-74.4751"/>
<polygon fill="#191970" stroke="#191970" points="1441.6104,-117.8376 1431.659,-121.4736 1441.7058,-124.8369 1441.6104,-117.8376"/>
</g>
<!-- Node4 -->
<g id="node3" class="node">
<title>Node4</title>
<g id="a_node3"><a xlink:href="_a_d_r_8cpp.html" target="_top" xlink:title="ADR.cpp">
<polygon fill="#ffffff" stroke="#000000" points="0,-.5 0,-19.5 57,-19.5 57,-.5 0,-.5"/>
<text text-anchor="middle" x="28.5" y="-7.5" font-family="Helvetica,sans-Serif" font-size="10.00" fill="#000000">ADR.cpp</text>
</a>
</g>
</g>
<!-- Node3&#45;&gt;Node4 -->
<g id="edge2" class="edge">
<title>Node3&#45;&gt;Node4</title>
<path fill="none" stroke="#191970" d="M36.9625,-46.4538C34.8561,-37.3803 32.4464,-26.9998 30.7385,-19.6427"/>
<polygon fill="#191970" stroke="#191970" points="33.5649,-47.2961 39.2356,-56.2455 40.3835,-45.7131 33.5649,-47.2961"/>
</g>
<!-- Node6 -->
<g id="node5" class="node">
<title>Node6</title>
<g id="a_node5"><a xlink:href="c_elasto_plastic_8cpp.html" target="_top" xlink:title="cElastoPlastic.cpp">
<polygon fill="#ffffff" stroke="#000000" points="75.5,-.5 75.5,-19.5 173.5,-19.5 173.5,-.5 75.5,-.5"/>
<text text-anchor="middle" x="124.5" y="-7.5" font-family="Helvetica,sans-Serif" font-size="10.00" fill="#000000">cElastoPlastic.cpp</text>
</a>
</g>
</g>
<!-- Node5&#45;&gt;Node6 -->
<g id="edge4" class="edge">
<title>Node5&#45;&gt;Node6</title>
<path fill="none" stroke="#191970" d="M128.374,-46.1575C127.4095,-37.155 126.3128,-26.9199 125.5331,-19.6427"/>
<polygon fill="#191970" stroke="#191970" points="124.9094,-46.6753 129.4549,-56.2455 131.8695,-45.9296 124.9094,-46.6753"/>
</g>
<!-- Node8 -->
<g id="node7" class="node">
<title>Node8</title>
<g id="a_node7"><a xlink:href="_added_mass_8cpp.html" target="_top" xlink:title="AddedMass.cpp">
<polygon fill="#ffffff" stroke="#000000" points="192,-.5 192,-19.5 279,-19.5 279,-.5 192,-.5"/>
<text text-anchor="middle" x="235.5" y="-7.5" font-family="Helvetica,sans-Serif" font-size="10.00" fill="#000000">AddedMass.cpp</text>
</a>
</g>
</g>
<!-- Node7&#45;&gt;Node8 -->
<g id="edge6" class="edge">
<title>Node7&#45;&gt;Node8</title>
<path fill="none" stroke="#191970" d="M238.7283,-46.1575C237.9246,-37.155 237.0107,-26.9199 236.361,-19.6427"/>
<polygon fill="#191970" stroke="#191970" points="235.2535,-46.5965 239.6291,-56.2455 242.2258,-45.9739 235.2535,-46.5965"/>
</g>
<!-- Node10 -->
<g id="node9" class="node">
<title>Node10</title>
<g id="a_node9"><a xlink:href="_c_l_s_v_o_f_8cpp.html" target="_top" xlink:title="CLSVOF.cpp">
<polygon fill="#ffffff" stroke="#000000" points="297,-.5 297,-19.5 372,-19.5 372,-.5 297,-.5"/>
<text text-anchor="middle" x="334.5" y="-7.5" font-family="Helvetica,sans-Serif" font-size="10.00" fill="#000000">CLSVOF.cpp</text>
</a>
</g>
</g>
<!-- Node9&#45;&gt;Node10 -->
<g id="edge8" class="edge">
<title>Node9&#45;&gt;Node10</title>
<path fill="none" stroke="#191970" d="M337.0827,-46.1575C336.4396,-37.155 335.7086,-26.9199 335.1888,-19.6427"/>
<polygon fill="#191970" stroke="#191970" points="333.5996,-46.5204 337.8033,-56.2455 340.5818,-46.0216 333.5996,-46.5204"/>
</g>
<!-- Node12 -->
<g id="node11" class="node">
<title>Node12</title>
<g id="a_node11"><a xlink:href="_dissipation_8cpp.html" target="_top" xlink:title="Dissipation.cpp">
<polygon fill="#ffffff" stroke="#000000" points="389.5,-.5 389.5,-19.5 473.5,-19.5 473.5,-.5 389.5,-.5"/>
<text text-anchor="middle" x="431.5" y="-7.5" font-family="Helvetica,sans-Serif" font-size="10.00" fill="#000000">Dissipation.cpp</text>
</a>
</g>
</g>
<!-- Node11&#45;&gt;Node12 -->
<g id="edge10" class="edge">
<title>Node11&#45;&gt;Node12</title>
<path fill="none" stroke="#191970" d="M434.7283,-46.1575C433.9246,-37.155 433.0107,-26.9199 432.361,-19.6427"/>
<polygon fill="#191970" stroke="#191970" points="431.2535,-46.5965 435.6291,-56.2455 438.2258,-45.9739 431.2535,-46.5965"/>
</g>
<!-- Node14 -->
<g id="node13" class="node">
<title>Node14</title>
<g id="a_node13"><a xlink:href="_dissipation2_d_8cpp.html" target="_top" xlink:title="Dissipation2D.cpp">
<polygon fill="#ffffff" stroke="#000000" points="491,-.5 491,-19.5 588,-19.5 588,-.5 491,-.5"/>
<text text-anchor="middle" x="539.5" y="-7.5" font-family="Helvetica,sans-Serif" font-size="10.00" fill="#000000">Dissipation2D.cpp</text>
</a>
</g>
</g>
<!-- Node13&#45;&gt;Node14 -->
<g id="edge12" class="edge">
<title>Node13&#45;&gt;Node14</title>
<path fill="none" stroke="#191970" d="M542.7283,-46.1575C541.9246,-37.155 541.0107,-26.9199 540.361,-19.6427"/>
<polygon fill="#191970" stroke="#191970" points="539.2535,-46.5965 543.6291,-56.2455 546.2258,-45.9739 539.2535,-46.5965"/>
</g>
<!-- Node16 -->
<g id="node15" class="node">
<title>Node16</title>
<g id="a_node15"><a xlink:href="_g_n___s_w2_d_c_v_8cpp.html" target="_top" xlink:title="GN_SW2DCV.cpp">
<polygon fill="#ffffff" stroke="#000000" points="606,-.5 606,-19.5 705,-19.5 705,-.5 606,-.5"/>
<text text-anchor="middle" x="655.5" y="-7.5" font-family="Helvetica,sans-Serif" font-size="10.00" fill="#000000">GN_SW2DCV.cpp</text>
</a>
</g>
</g>
<!-- Node15&#45;&gt;Node16 -->
<g id="edge14" class="edge">
<title>Node15&#45;&gt;Node16</title>
<path fill="none" stroke="#191970" d="M658.7283,-46.1575C657.9246,-37.155 657.0107,-26.9199 656.361,-19.6427"/>
<polygon fill="#191970" stroke="#191970" points="655.2535,-46.5965 659.6291,-56.2455 662.2258,-45.9739 655.2535,-46.5965"/>
</g>
<!-- Node18 -->
<g id="node17" class="node">
<title>Node18</title>
<g id="a_node17"><a xlink:href="_kappa_8cpp.html" target="_top" xlink:title="Kappa.cpp">
<polygon fill="#ffffff" stroke="#000000" points="723,-.5 723,-19.5 786,-19.5 786,-.5 723,-.5"/>
<text text-anchor="middle" x="754.5" y="-7.5" font-family="Helvetica,sans-Serif" font-size="10.00" fill="#000000">Kappa.cpp</text>
</a>
</g>
</g>
<!-- Node17&#45;&gt;Node18 -->
<g id="edge16" class="edge">
<title>Node17&#45;&gt;Node18</title>
<path fill="none" stroke="#191970" d="M757.7283,-46.1575C756.9246,-37.155 756.0107,-26.9199 755.361,-19.6427"/>
<polygon fill="#191970" stroke="#191970" points="754.2535,-46.5965 758.6291,-56.2455 761.2258,-45.9739 754.2535,-46.5965"/>
</g>
<!-- Node20 -->
<g id="node19" class="node">
<title>Node20</title>
<g id="a_node19"><a xlink:href="_kappa2_d_8cpp.html" target="_top" xlink:title="Kappa2D.cpp">
<polygon fill="#ffffff" stroke="#000000" points="804.5,-.5 804.5,-19.5 880.5,-19.5 880.5,-.5 804.5,-.5"/>
<text text-anchor="middle" x="842.5" y="-7.5" font-family="Helvetica,sans-Serif" font-size="10.00" fill="#000000">Kappa2D.cpp</text>
</a>
</g>
</g>
<!-- Node19&#45;&gt;Node20 -->
<g id="edge18" class="edge">
<title>Node19&#45;&gt;Node20</title>
<path fill="none" stroke="#191970" d="M845.7283,-46.1575C844.9246,-37.155 844.0107,-26.9199 843.361,-19.6427"/>
<polygon fill="#191970" stroke="#191970" points="842.2535,-46.5965 846.6291,-56.2455 849.2258,-45.9739 842.2535,-46.5965"/>
</g>
<!-- Node22 -->
<g id="node21" class="node">
<title>Node22</title>
<g id="a_node21"><a xlink:href="_m_corr_8cpp.html" target="_top" xlink:title="MCorr.cpp">
<polygon fill="#ffffff" stroke="#000000" points="898.5,-.5 898.5,-19.5 960.5,-19.5 960.5,-.5 898.5,-.5"/>
<text text-anchor="middle" x="929.5" y="-7.5" font-family="Helvetica,sans-Serif" font-size="10.00" fill="#000000">MCorr.cpp</text>
</a>
</g>
</g>
<!-- Node21&#45;&gt;Node22 -->
<g id="edge20" class="edge">
<title>Node21&#45;&gt;Node22</title>
<path fill="none" stroke="#191970" d="M929.5,-46.1575C929.5,-37.155 929.5,-26.9199 929.5,-19.6427"/>
<polygon fill="#191970" stroke="#191970" points="926.0001,-46.2455 929.5,-56.2455 933.0001,-46.2456 926.0001,-46.2455"/>
</g>
<!-- Node24 -->
<g id="node23" class="node">
<title>Node24</title>
<g id="a_node23"><a xlink:href="_m_corr3_p_8cpp.html" target="_top" xlink:title="MCorr3P.cpp">
<polygon fill="#ffffff" stroke="#000000" points="978.5,-.5 978.5,-19.5 1052.5,-19.5 1052.5,-.5 978.5,-.5"/>
<text text-anchor="middle" x="1015.5" y="-7.5" font-family="Helvetica,sans-Serif" font-size="10.00" fill="#000000">MCorr3P.cpp</text>
</a>
</g>
</g>
<!-- Node23&#45;&gt;Node24 -->
<g id="edge22" class="edge">
<title>Node23&#45;&gt;Node24</title>
<path fill="none" stroke="#191970" d="M1009.0433,-46.1575C1010.6509,-37.155 1012.4786,-26.9199 1013.7781,-19.6427"/>
<polygon fill="#191970" stroke="#191970" points="1005.5544,-45.786 1007.2419,-56.2455 1012.4454,-47.0166 1005.5544,-45.786"/>
</g>
<!-- Node26 -->
<g id="node25" class="node">
<title>Node26</title>
<g id="a_node25"><a xlink:href="_move_mesh_8cpp.html" target="_top" xlink:title="MoveMesh.cpp">
<polygon fill="#ffffff" stroke="#000000" points="1071,-.5 1071,-19.5 1154,-19.5 1154,-.5 1071,-.5"/>
<text text-anchor="middle" x="1112.5" y="-7.5" font-family="Helvetica,sans-Serif" font-size="10.00" fill="#000000">MoveMesh.cpp</text>
</a>
</g>
</g>
<!-- Node25&#45;&gt;Node26 -->
<g id="edge24" class="edge">
<title>Node25&#45;&gt;Node26</title>
<path fill="none" stroke="#191970" d="M1099.3753,-46.7493C1102.6406,-37.6064 1106.4001,-27.0798 1109.0562,-19.6427"/>
<polygon fill="#191970" stroke="#191970" points="1096.0511,-45.6509 1095.9837,-56.2455 1102.6433,-48.0053 1096.0511,-45.6509"/>
</g>
<!-- Node28 -->
<g id="node27" class="node">
<title>Node28</title>
<g id="a_node27"><a xlink:href="_move_mesh2_d_8cpp.html" target="_top" xlink:title="MoveMesh2D.cpp">
<polygon fill="#ffffff" stroke="#000000" points="1172.5,-.5 1172.5,-19.5 1268.5,-19.5 1268.5,-.5 1172.5,-.5"/>
<text text-anchor="middle" x="1220.5" y="-7.5" font-family="Helvetica,sans-Serif" font-size="10.00" fill="#000000">MoveMesh2D.cpp</text>
</a>
</g>
</g>
<!-- Node27&#45;&gt;Node28 -->
<g id="edge26" class="edge">
<title>Node27&#45;&gt;Node28</title>
<path fill="none" stroke="#191970" d="M1200.498,-47.3372C1205.4676,-38.0605 1211.2644,-27.2398 1215.3343,-19.6427"/>
<polygon fill="#191970" stroke="#191970" points="1197.3627,-45.7779 1195.7256,-56.2455 1203.5331,-49.0835 1197.3627,-45.7779"/>
</g>
<!-- Node30 -->
<g id="node29" class="node">
<title>Node30</title>
<g id="a_node29"><a xlink:href="_n_c_l_s_8cpp.html" target="_top" xlink:title="NCLS.cpp">
<polygon fill="#ffffff" stroke="#000000" points="1286.5,-.5 1286.5,-19.5 1348.5,-19.5 1348.5,-.5 1286.5,-.5"/>
<text text-anchor="middle" x="1317.5" y="-7.5" font-family="Helvetica,sans-Serif" font-size="10.00" fill="#000000">NCLS.cpp</text>
</a>
</g>
</g>
<!-- Node29&#45;&gt;Node30 -->
<g id="edge28" class="edge">
<title>Node29&#45;&gt;Node30</title>
<path fill="none" stroke="#191970" d="M1290.4136,-47.9209C1297.1303,-38.5176 1305.0717,-27.3997 1310.6124,-19.6427"/>
<polygon fill="#191970" stroke="#191970" points="1287.4318,-46.0738 1284.4675,-56.2455 1293.128,-50.1425 1287.4318,-46.0738"/>
</g>
<!-- Node32 -->
<g id="node31" class="node">
<title>Node32</title>
<g id="a_node31"><a xlink:href="_n_c_l_s3_p_8cpp.html" target="_top" xlink:title="NCLS3P.cpp">
<polygon fill="#ffffff" stroke="#000000" points="1366.5,-.5 1366.5,-19.5 1440.5,-19.5 1440.5,-.5 1366.5,-.5"/>
<text text-anchor="middle" x="1403.5" y="-7.5" font-family="Helvetica,sans-Serif" font-size="10.00" fill="#000000">NCLS3P.cpp</text>
</a>
</g>
</g>
<!-- Node31&#45;&gt;Node32 -->
<g id="edge30" class="edge">
<title>Node31&#45;&gt;Node32</title>
<path fill="none" stroke="#191970" d="M1369.1247,-48.5004C1377.6273,-38.9775 1387.8218,-27.5596 1394.8905,-19.6427"/>
<polygon fill="#191970" stroke="#191970" points="1366.2587,-46.4551 1362.2093,-56.2455 1371.4803,-51.1172 1366.2587,-46.4551"/>
</g>
<!-- Node34 -->
<g id="node33" class="node">
<title>Node34</title>
<g id="a_node33"><a xlink:href="_pres_8cpp.html" target="_top" xlink:title="Pres.cpp">
<polygon fill="#ffffff" stroke="#000000" points="1458.5,-.5 1458.5,-19.5 1514.5,-19.5 1514.5,-.5 1458.5,-.5"/>
<text text-anchor="middle" x="1486.5" y="-7.5" font-family="Helvetica,sans-Serif" font-size="10.00" fill="#000000">Pres.cpp</text>
</a>
</g>
</g>
<!-- Node33&#45;&gt;Node34 -->
<g id="edge32" class="edge">
<title>Node33&#45;&gt;Node34</title>
<path fill="none" stroke="#191970" d="M1444.3278,-49.3607C1454.7078,-39.6727 1467.4291,-27.7995 1476.1686,-19.6427"/>
<polygon fill="#191970" stroke="#191970" points="1441.8737,-46.8636 1436.9512,-56.2455 1446.6499,-51.981 1441.8737,-46.8636"/>
</g>
<!-- Node36 -->
<g id="node35" class="node">
<title>Node36</title>
<g id="a_node35"><a xlink:href="_pres_inc_8cpp.html" target="_top" xlink:title="PresInc.cpp">
<polygon fill="#ffffff" stroke="#000000" points="1533,-.5 1533,-19.5 1602,-19.5 1602,-.5 1533,-.5"/>
<text text-anchor="middle" x="1567.5" y="-7.5" font-family="Helvetica,sans-Serif" font-size="10.00" fill="#000000">PresInc.cpp</text>
</a>
</g>
</g>
<!-- Node35&#45;&gt;Node36 -->
<g id="edge34" class="edge">
<title>Node35&#45;&gt;Node36</title>
<path fill="none" stroke="#191970" d="M1516.877,-49.928C1529.2871,-40.1397 1544.73,-27.9595 1555.2745,-19.6427"/>
<polygon fill="#191970" stroke="#191970" points="1514.5514,-47.3046 1508.8673,-56.2455 1518.8864,-52.8007 1514.5514,-47.3046"/>
</g>
<!-- Node38 -->
<g id="node37" class="node">
<title>Node38</title>
<g id="a_node37"><a xlink:href="_pres_init_8cpp.html" target="_top" xlink:title="PresInit.cpp">
<polygon fill="#ffffff" stroke="#000000" points="1620,-.5 1620,-19.5 1689,-19.5 1689,-.5 1620,-.5"/>
<text text-anchor="middle" x="1654.5" y="-7.5" font-family="Helvetica,sans-Serif" font-size="10.00" fill="#000000">PresInit.cpp</text>
</a>
</g>
</g>
<!-- Node37&#45;&gt;Node38 -->
<g id="edge36" class="edge">
<title>Node37&#45;&gt;Node38</title>
<path fill="none" stroke="#191970" d="M1595.934,-50.49C1610.2254,-40.6096 1628.2916,-28.1194 1640.5526,-19.6427"/>
<polygon fill="#191970" stroke="#191970" points="1593.8443,-47.6797 1587.6091,-56.2455 1597.8251,-53.4376 1593.8443,-47.6797"/>
</g>
<!-- Node40 -->
<g id="node39" class="node">
<title>Node40</title>
<g id="a_node39"><a xlink:href="_r_a_n_s2_p___i_b_8cpp.html" target="_top" xlink:title="RANS2P_IB.cpp">
<polygon fill="#ffffff" stroke="#000000" points="1707,-.5 1707,-19.5 1798,-19.5 1798,-.5 1707,-.5"/>
<text text-anchor="middle" x="1752.5" y="-7.5" font-family="Helvetica,sans-Serif" font-size="10.00" fill="#000000">RANS2P_IB.cpp</text>
</a>
</g>
</g>
<!-- Node39&#45;&gt;Node40 -->
<g id="edge38" class="edge">
<title>Node39&#45;&gt;Node40</title>
<path fill="none" stroke="#191970" d="M1686.2504,-50.769C1702.3758,-40.8456 1722.926,-28.1994 1736.8307,-19.6427"/>
<polygon fill="#191970" stroke="#191970" points="1684.0332,-48.0237 1677.351,-56.2455 1687.7019,-53.9853 1684.0332,-48.0237"/>
</g>
</g>
</svg>
