<?xml version="1.0" encoding="UTF-8" standalone="no"?>
<!DOCTYPE svg PUBLIC "-//W3C//DTD SVG 1.1//EN"
 "http://www.w3.org/Graphics/SVG/1.1/DTD/svg11.dtd">
<!-- Generated by graphviz version 2.43.0 (0)
 -->
<!-- Title: MoveMesh2D.cpp Pages: 1 -->
<svg width="790pt" height="196pt"
 viewBox="0.00 0.00 790.00 196.00" xmlns="http://www.w3.org/2000/svg" xmlns:xlink="http://www.w3.org/1999/xlink">
<g id="graph0" class="graph" transform="scale(1 1) rotate(0) translate(4 192)">
<title>MoveMesh2D.cpp</title>
<polygon fill="white" stroke="transparent" points="-4,4 -4,-192 786,-192 786,4 -4,4"/>
<!-- Node1 -->
<g id="node1" class="node">
<title>Node1</title>
<g id="a_node1"><a xlink:title=" ">
<polygon fill="#bfbfbf" stroke="black" points="141.5,-168.5 141.5,-187.5 245.5,-187.5 245.5,-168.5 141.5,-168.5"/>
<text text-anchor="middle" x="193.5" y="-175.5" font-family="Helvetica,sans-Serif" font-size="10.00">MoveMesh2D.cpp</text>
</a>
</g>
</g>
<!-- Node2 -->
<g id="node2" class="node">
<title>Node2</title>
<g id="a_node2"><a xlink:title=" ">
<polygon fill="white" stroke="#bfbfbf" points="0,-112.5 0,-131.5 119,-131.5 119,-112.5 0,-112.5"/>
<text text-anchor="middle" x="59.5" y="-119.5" font-family="Helvetica,sans-Serif" font-size="10.00">pybind11/pybind11.h</text>
</a>
</g>
</g>
<!-- Node1&#45;&gt;Node2 -->
<g id="edge1" class="edge">
<title>Node1&#45;&gt;Node2</title>
<path fill="none" stroke="midnightblue" d="M172.27,-168.44C150.12,-159.52 115.18,-145.44 90.06,-135.32"/>
<polygon fill="midnightblue" stroke="midnightblue" points="91.22,-132.01 80.63,-131.52 88.6,-138.5 91.22,-132.01"/>
</g>
<!-- Node3 -->
<g id="node3" class="node">
<title>Node3</title>
<g id="a_node3"><a xlink:title=" ">
<polygon fill="white" stroke="#bfbfbf" points="137.5,-112.5 137.5,-131.5 249.5,-131.5 249.5,-112.5 137.5,-112.5"/>
<text text-anchor="middle" x="193.5" y="-119.5" font-family="Helvetica,sans-Serif" font-size="10.00">pybind11/stl_bind.h</text>
</a>
</g>
</g>
<!-- Node1&#45;&gt;Node3 -->
<g id="edge2" class="edge">
<title>Node1&#45;&gt;Node3</title>
<path fill="none" stroke="midnightblue" d="M193.5,-168.08C193.5,-161.01 193.5,-150.86 193.5,-141.99"/>
<polygon fill="midnightblue" stroke="midnightblue" points="197,-141.75 193.5,-131.75 190,-141.75 197,-141.75"/>
</g>
<!-- Node4 -->
<g id="node4" class="node">
<title>Node4</title>
<g id="a_node4"><a xlink:href="_move_mesh2_d_8h.html" target="_top" xlink:title=" ">
<polygon fill="white" stroke="black" points="267.5,-112.5 267.5,-131.5 359.5,-131.5 359.5,-112.5 267.5,-112.5"/>
<text text-anchor="middle" x="313.5" y="-119.5" font-family="Helvetica,sans-Serif" font-size="10.00">MoveMesh2D.h</text>
</a>
</g>
</g>
<!-- Node1&#45;&gt;Node4 -->
<g id="edge3" class="edge">
<title>Node1&#45;&gt;Node4</title>
<path fill="none" stroke="midnightblue" d="M212.51,-168.44C232.09,-159.64 262.81,-145.81 285.23,-135.72"/>
<polygon fill="midnightblue" stroke="midnightblue" points="286.89,-138.81 294.57,-131.52 284.02,-132.43 286.89,-138.81"/>
</g>
<!-- Node5 -->
<g id="node5" class="node">
<title>Node5</title>
<g id="a_node5"><a xlink:title=" ">
<polygon fill="white" stroke="#bfbfbf" points="147,-0.5 147,-19.5 194,-19.5 194,-0.5 147,-0.5"/>
<text text-anchor="middle" x="170.5" y="-7.5" font-family="Helvetica,sans-Serif" font-size="10.00">cmath</text>
</a>
</g>
</g>
<!-- Node4&#45;&gt;Node5 -->
<g id="edge4" class="edge">
<title>Node4&#45;&gt;Node5</title>
<path fill="none" stroke="midnightblue" d="M274.21,-112.47C229.56,-102.38 161.85,-85.72 154.5,-76 144.13,-62.29 151.08,-42.73 158.8,-28.66"/>
<polygon fill="midnightblue" stroke="midnightblue" points="161.9,-30.3 164.06,-19.92 155.9,-26.68 161.9,-30.3"/>
</g>
<!-- Node6 -->
<g id="node6" class="node">
<title>Node6</title>
<g id="a_node6"><a xlink:title=" ">
<polygon fill="white" stroke="#bfbfbf" points="240.5,-0.5 240.5,-19.5 300.5,-19.5 300.5,-0.5 240.5,-0.5"/>
<text text-anchor="middle" x="270.5" y="-7.5" font-family="Helvetica,sans-Serif" font-size="10.00">iostream</text>
</a>
</g>
</g>
<!-- Node4&#45;&gt;Node6 -->
<g id="edge5" class="edge">
<title>Node4&#45;&gt;Node6</title>
<path fill="none" stroke="midnightblue" d="M310.13,-112.37C303.12,-94.46 286.89,-52.92 277.52,-28.95"/>
<polygon fill="midnightblue" stroke="midnightblue" points="280.76,-27.63 273.86,-19.59 274.24,-30.18 280.76,-27.63"/>
</g>
<!-- Node7 -->
<g id="node7" class="node">
<title>Node7</title>
<g id="a_node7"><a xlink:href="_comp_kernel_8h.html" target="_top" xlink:title=" ">
<polygon fill="white" stroke="black" points="164,-56.5 164,-75.5 249,-75.5 249,-56.5 164,-56.5"/>
<text text-anchor="middle" x="206.5" y="-63.5" font-family="Helvetica,sans-Serif" font-size="10.00">CompKernel.h</text>
</a>
</g>
</g>
<!-- Node4&#45;&gt;Node7 -->
<g id="edge6" class="edge">
<title>Node4&#45;&gt;Node7</title>
<path fill="none" stroke="midnightblue" d="M296.31,-112.32C279.15,-103.66 252.55,-90.24 232.75,-80.25"/>
<polygon fill="midnightblue" stroke="midnightblue" points="234.15,-77.04 223.65,-75.65 231,-83.28 234.15,-77.04"/>
</g>
<!-- Node8 -->
<g id="node8" class="node">
<title>Node8</title>
<g id="a_node8"><a xlink:href="_model_factory_8h.html" target="_top" xlink:title=" ">
<polygon fill="white" stroke="black" points="306,-56.5 306,-75.5 395,-75.5 395,-56.5 306,-56.5"/>
<text text-anchor="middle" x="350.5" y="-63.5" font-family="Helvetica,sans-Serif" font-size="10.00">ModelFactory.h</text>
</a>
</g>
</g>
<!-- Node4&#45;&gt;Node8 -->
<g id="edge8" class="edge">
<title>Node4&#45;&gt;Node8</title>
<path fill="none" stroke="midnightblue" d="M319.61,-112.08C324.78,-104.53 332.35,-93.49 338.69,-84.23"/>
<polygon fill="midnightblue" stroke="midnightblue" points="341.74,-85.98 344.5,-75.75 335.96,-82.02 341.74,-85.98"/>
</g>
<!-- Node9 -->
<g id="node9" class="node">
<title>Node9</title>
<g id="a_node9"><a xlink:href="_arguments_dict_8h.html" target="_top" xlink:title=" ">
<polygon fill="white" stroke="black" points="425.5,-56.5 425.5,-75.5 523.5,-75.5 523.5,-56.5 425.5,-56.5"/>
<text text-anchor="middle" x="474.5" y="-63.5" font-family="Helvetica,sans-Serif" font-size="10.00">ArgumentsDict.h</text>
</a>
</g>
</g>
<!-- Node4&#45;&gt;Node9 -->
<g id="edge10" class="edge">
<title>Node4&#45;&gt;Node9</title>
<path fill="none" stroke="midnightblue" d="M339.01,-112.44C366.1,-103.36 409.09,-88.94 439.37,-78.78"/>
<polygon fill="midnightblue" stroke="midnightblue" points="440.74,-82.01 449.11,-75.52 438.51,-75.38 440.74,-82.01"/>
</g>
<!-- Node13 -->
<g id="node13" class="node">
<title>Node13</title>
<g id="a_node13"><a xlink:title=" ">
<polygon fill="white" stroke="#bfbfbf" points="631,-0.5 631,-19.5 782,-19.5 782,-0.5 631,-0.5"/>
<text text-anchor="middle" x="706.5" y="-7.5" font-family="Helvetica,sans-Serif" font-size="10.00">xtensor&#45;python/pyarray.hpp</text>
</a>
</g>
</g>
<!-- Node4&#45;&gt;Node13 -->
<g id="edge16" class="edge">
<title>Node4&#45;&gt;Node13</title>
<path fill="none" stroke="midnightblue" d="M359.72,-113.65C404.39,-106.04 473.75,-92.9 532.5,-76 584.54,-61.03 643.18,-37.73 677.36,-23.47"/>
<polygon fill="midnightblue" stroke="midnightblue" points="678.88,-26.63 686.74,-19.53 676.17,-20.18 678.88,-26.63"/>
</g>
<!-- Node7&#45;&gt;Node5 -->
<g id="edge7" class="edge">
<title>Node7&#45;&gt;Node5</title>
<path fill="none" stroke="midnightblue" d="M200.56,-56.08C195.52,-48.53 188.16,-37.49 181.99,-28.23"/>
<polygon fill="midnightblue" stroke="midnightblue" points="184.79,-26.13 176.33,-19.75 178.97,-30.01 184.79,-26.13"/>
</g>
<!-- Node8&#45;&gt;Node6 -->
<g id="edge9" class="edge">
<title>Node8&#45;&gt;Node6</title>
<path fill="none" stroke="midnightblue" d="M337.65,-56.32C325.28,-47.98 306.37,-35.21 291.76,-25.35"/>
<polygon fill="midnightblue" stroke="midnightblue" points="293.57,-22.35 283.32,-19.65 289.65,-28.15 293.57,-22.35"/>
</g>
<!-- Node10 -->
<g id="node10" class="node">
<title>Node10</title>
<g id="a_node10"><a xlink:title=" ">
<polygon fill="white" stroke="#bfbfbf" points="318.5,-0.5 318.5,-19.5 356.5,-19.5 356.5,-0.5 318.5,-0.5"/>
<text text-anchor="middle" x="337.5" y="-7.5" font-family="Helvetica,sans-Serif" font-size="10.00">map</text>
</a>
</g>
</g>
<!-- Node9&#45;&gt;Node10 -->
<g id="edge11" class="edge">
<title>Node9&#45;&gt;Node10</title>
<path fill="none" stroke="midnightblue" d="M452.79,-56.44C429.48,-47.25 392.32,-32.61 366.51,-22.43"/>
<polygon fill="midnightblue" stroke="midnightblue" points="367.48,-19.05 356.89,-18.64 364.91,-25.57 367.48,-19.05"/>
</g>
<!-- Node11 -->
<g id="node11" class="node">
<title>Node11</title>
<g id="a_node11"><a xlink:title=" ">
<polygon fill="white" stroke="#bfbfbf" points="375,-0.5 375,-19.5 440,-19.5 440,-0.5 375,-0.5"/>
<text text-anchor="middle" x="407.5" y="-7.5" font-family="Helvetica,sans-Serif" font-size="10.00">stdexcept</text>
</a>
</g>
</g>
<!-- Node9&#45;&gt;Node11 -->
<g id="edge12" class="edge">
<title>Node9&#45;&gt;Node11</title>
<path fill="none" stroke="midnightblue" d="M463.74,-56.32C453.73,-48.26 438.61,-36.08 426.57,-26.37"/>
<polygon fill="midnightblue" stroke="midnightblue" points="428.44,-23.38 418.46,-19.83 424.05,-28.83 428.44,-23.38"/>
</g>
<!-- Node12 -->
<g id="node12" class="node">
<title>Node12</title>
<g id="a_node12"><a xlink:title=" ">
<polygon fill="white" stroke="#bfbfbf" points="458.5,-0.5 458.5,-19.5 502.5,-19.5 502.5,-0.5 458.5,-0.5"/>
<text text-anchor="middle" x="480.5" y="-7.5" font-family="Helvetica,sans-Serif" font-size="10.00">string</text>
</a>
</g>
</g>
<!-- Node9&#45;&gt;Node12 -->
<g id="edge13" class="edge">
<title>Node9&#45;&gt;Node12</title>
<path fill="none" stroke="midnightblue" d="M475.49,-56.08C476.29,-48.93 477.43,-38.64 478.42,-29.69"/>
<polygon fill="midnightblue" stroke="midnightblue" points="481.9,-30.08 479.53,-19.75 474.94,-29.3 481.9,-30.08"/>
</g>
<!-- Node9&#45;&gt;Node13 -->
<g id="edge14" class="edge">
<title>Node9&#45;&gt;Node13</title>
<path fill="none" stroke="midnightblue" d="M511.26,-56.44C551.56,-47.06 616.31,-31.99 660.08,-21.8"/>
<polygon fill="midnightblue" stroke="midnightblue" points="660.96,-25.19 669.91,-19.52 659.38,-18.37 660.96,-25.19"/>
</g>
<!-- Node14 -->
<g id="node14" class="node">
<title>Node14</title>
<g id="a_node14"><a xlink:title=" ">
<polygon fill="white" stroke="#bfbfbf" points="520.5,-0.5 520.5,-19.5 612.5,-19.5 612.5,-0.5 520.5,-0.5"/>
<text text-anchor="middle" x="566.5" y="-7.5" font-family="Helvetica,sans-Serif" font-size="10.00">xtensor/xio.hpp</text>
</a>
</g>
</g>
<!-- Node9&#45;&gt;Node14 -->
<g id="edge15" class="edge">
<title>Node9&#45;&gt;Node14</title>
<path fill="none" stroke="midnightblue" d="M489.28,-56.32C503.77,-47.82 526.07,-34.73 542.99,-24.8"/>
<polygon fill="midnightblue" stroke="midnightblue" points="544.9,-27.74 551.76,-19.65 541.36,-21.7 544.9,-27.74"/>
</g>
</g>
</svg>
