<?xml version="1.0" encoding="UTF-8" standalone="no"?>
<!DOCTYPE svg PUBLIC "-//W3C//DTD SVG 1.1//EN"
 "http://www.w3.org/Graphics/SVG/1.1/DTD/svg11.dtd">
<!-- Generated by graphviz version 2.40.1 (20161225.0304)
 -->
<!-- Title: MoveMesh2D.cpp Pages: 1 -->
<svg width="725pt" height="196pt"
 viewBox="0.00 0.00 724.50 196.00" xmlns="http://www.w3.org/2000/svg" xmlns:xlink="http://www.w3.org/1999/xlink">
<g id="graph0" class="graph" transform="scale(1 1) rotate(0) translate(4 192)">
<title>MoveMesh2D.cpp</title>
<polygon fill="#ffffff" stroke="transparent" points="-4,4 -4,-192 720.5,-192 720.5,4 -4,4"/>
<!-- Node0 -->
<g id="node1" class="node">
<title>Node0</title>
<polygon fill="#bfbfbf" stroke="#000000" points="127,-168.5 127,-187.5 223,-187.5 223,-168.5 127,-168.5"/>
<text text-anchor="middle" x="175" y="-175.5" font-family="Helvetica,sans-Serif" font-size="10.00" fill="#000000">MoveMesh2D.cpp</text>
</g>
<!-- Node1 -->
<g id="node2" class="node">
<title>Node1</title>
<polygon fill="#ffffff" stroke="#bfbfbf" points="0,-112.5 0,-131.5 106,-131.5 106,-112.5 0,-112.5"/>
<text text-anchor="middle" x="53" y="-119.5" font-family="Helvetica,sans-Serif" font-size="10.00" fill="#000000">pybind11/pybind11.h</text>
</g>
<!-- Node0&#45;&gt;Node1 -->
<g id="edge1" class="edge">
<title>Node0&#45;&gt;Node1</title>
<path fill="none" stroke="#191970" d="M154.0275,-168.3733C134.4433,-159.3838 105.0039,-145.8706 82.949,-135.7471"/>
<polygon fill="#191970" stroke="#191970" points="84.2473,-132.4919 73.6989,-131.5011 81.3271,-138.8538 84.2473,-132.4919"/>
</g>
<!-- Node2 -->
<g id="node3" class="node">
<title>Node2</title>
<polygon fill="#ffffff" stroke="#bfbfbf" points="124.5,-112.5 124.5,-131.5 225.5,-131.5 225.5,-112.5 124.5,-112.5"/>
<text text-anchor="middle" x="175" y="-119.5" font-family="Helvetica,sans-Serif" font-size="10.00" fill="#000000">pybind11/stl_bind.h</text>
</g>
<!-- Node0&#45;&gt;Node2 -->
<g id="edge2" class="edge">
<title>Node0&#45;&gt;Node2</title>
<path fill="none" stroke="#191970" d="M175,-168.2455C175,-160.9382 175,-150.6944 175,-141.7046"/>
<polygon fill="#191970" stroke="#191970" points="178.5001,-141.6426 175,-131.6427 171.5001,-141.6427 178.5001,-141.6426"/>
</g>
<!-- Node3 -->
<g id="node4" class="node">
<title>Node3</title>
<g id="a_node4"><a xlink:href="_move_mesh2_d_8h.html" target="_top" xlink:title="MoveMesh2D.h">
<polygon fill="#ffffff" stroke="#000000" points="244,-112.5 244,-131.5 330,-131.5 330,-112.5 244,-112.5"/>
<text text-anchor="middle" x="287" y="-119.5" font-family="Helvetica,sans-Serif" font-size="10.00" fill="#000000">MoveMesh2D.h</text>
</a>
</g>
</g>
<!-- Node0&#45;&gt;Node3 -->
<g id="edge3" class="edge">
<title>Node0&#45;&gt;Node3</title>
<path fill="none" stroke="#191970" d="M194.2535,-168.3733C212.0712,-159.4644 238.7747,-146.1127 258.9594,-136.0203"/>
<polygon fill="#191970" stroke="#191970" points="260.6187,-139.1038 267.9978,-131.5011 257.4882,-132.8428 260.6187,-139.1038"/>
</g>
<!-- Node4 -->
<g id="node5" class="node">
<title>Node4</title>
<polygon fill="#ffffff" stroke="#bfbfbf" points="128,-.5 128,-19.5 172,-19.5 172,-.5 128,-.5"/>
<text text-anchor="middle" x="150" y="-7.5" font-family="Helvetica,sans-Serif" font-size="10.00" fill="#000000">cmath</text>
</g>
<!-- Node3&#45;&gt;Node4 -->
<g id="edge4" class="edge">
<title>Node3&#45;&gt;Node4</title>
<path fill="none" stroke="#191970" d="M246.7629,-112.4432C204.0795,-101.9021 141.8395,-85.2157 135,-76 124.7583,-62.2001 131.1141,-42.6272 138.4461,-28.3812"/>
<polygon fill="#191970" stroke="#191970" points="141.5914,-29.9302 143.486,-19.5061 135.5044,-26.4735 141.5914,-29.9302"/>
</g>
<!-- Node5 -->
<g id="node6" class="node">
<title>Node5</title>
<polygon fill="#ffffff" stroke="#bfbfbf" points="219,-.5 219,-19.5 273,-19.5 273,-.5 219,-.5"/>
<text text-anchor="middle" x="246" y="-7.5" font-family="Helvetica,sans-Serif" font-size="10.00" fill="#000000">iostream</text>
</g>
<!-- Node3&#45;&gt;Node5 -->
<g id="edge5" class="edge">
<title>Node3&#45;&gt;Node5</title>
<path fill="none" stroke="#191970" d="M283.5044,-112.4509C276.7568,-94.0186 261.8236,-53.2254 252.9711,-29.043"/>
<polygon fill="#191970" stroke="#191970" points="256.2112,-27.7123 249.4868,-19.5249 249.6378,-30.1187 256.2112,-27.7123"/>
</g>
<!-- Node6 -->
<g id="node7" class="node">
<title>Node6</title>
<g id="a_node7"><a xlink:href="_comp_kernel_8h.html" target="_top" xlink:title="CompKernel.h">
<polygon fill="#ffffff" stroke="#000000" points="144.5,-56.5 144.5,-75.5 223.5,-75.5 223.5,-56.5 144.5,-56.5"/>
<text text-anchor="middle" x="184" y="-63.5" font-family="Helvetica,sans-Serif" font-size="10.00" fill="#000000">CompKernel.h</text>
</a>
</g>
</g>
<!-- Node3&#45;&gt;Node6 -->
<g id="edge6" class="edge">
<title>Node3&#45;&gt;Node6</title>
<path fill="none" stroke="#191970" d="M269.0588,-112.2455C252.96,-103.4928 229.1121,-90.527 210.7609,-80.5496"/>
<polygon fill="#191970" stroke="#191970" points="212.1929,-77.3444 201.7356,-75.6427 208.8493,-83.4942 212.1929,-77.3444"/>
</g>
<!-- Node7 -->
<g id="node8" class="node">
<title>Node7</title>
<g id="a_node8"><a xlink:href="_model_factory_8h.html" target="_top" xlink:title="ModelFactory.h">
<polygon fill="#ffffff" stroke="#000000" points="280,-56.5 280,-75.5 364,-75.5 364,-56.5 280,-56.5"/>
<text text-anchor="middle" x="322" y="-63.5" font-family="Helvetica,sans-Serif" font-size="10.00" fill="#000000">ModelFactory.h</text>
</a>
</g>
</g>
<!-- Node3&#45;&gt;Node7 -->
<g id="edge8" class="edge">
<title>Node3&#45;&gt;Node7</title>
<path fill="none" stroke="#191970" d="M293.0965,-112.2455C297.9145,-104.5367 304.7751,-93.5598 310.6032,-84.2348"/>
<polygon fill="#191970" stroke="#191970" points="313.6413,-85.9777 315.9733,-75.6427 307.7053,-82.2677 313.6413,-85.9777"/>
</g>
<!-- Node8 -->
<g id="node9" class="node">
<title>Node8</title>
<g id="a_node9"><a xlink:href="_arguments_dict_8h.html" target="_top" xlink:title="ArgumentsDict.h">
<polygon fill="#ffffff" stroke="#000000" points="392,-56.5 392,-75.5 482,-75.5 482,-56.5 392,-56.5"/>
<text text-anchor="middle" x="437" y="-63.5" font-family="Helvetica,sans-Serif" font-size="10.00" fill="#000000">ArgumentsDict.h</text>
</a>
</g>
</g>
<!-- Node3&#45;&gt;Node8 -->
<g id="edge10" class="edge">
<title>Node3&#45;&gt;Node8</title>
<path fill="none" stroke="#191970" d="M312.7859,-112.3733C337.4047,-103.1822 374.69,-89.2624 401.9875,-79.0713"/>
<polygon fill="#191970" stroke="#191970" points="403.4063,-82.2777 411.5506,-75.5011 400.958,-75.7198 403.4063,-82.2777"/>
</g>
<!-- Node12 -->
<g id="node13" class="node">
<title>Node12</title>
<polygon fill="#ffffff" stroke="#bfbfbf" points="581.5,-.5 581.5,-19.5 716.5,-19.5 716.5,-.5 581.5,-.5"/>
<text text-anchor="middle" x="649" y="-7.5" font-family="Helvetica,sans-Serif" font-size="10.00" fill="#000000">xtensor&#45;python/pyarray.hpp</text>
</g>
<!-- Node3&#45;&gt;Node12 -->
<g id="edge16" class="edge">
<title>Node3&#45;&gt;Node12</title>
<path fill="none" stroke="#191970" d="M330.167,-114.5272C371.8606,-106.7822 436.5218,-93.3749 491,-76 537.0011,-61.3287 588.2318,-38.7065 619.5388,-24.1282"/>
<polygon fill="#191970" stroke="#191970" points="621.4081,-27.1172 628.9715,-19.6979 618.4322,-20.7812 621.4081,-27.1172"/>
</g>
<!-- Node6&#45;&gt;Node4 -->
<g id="edge7" class="edge">
<title>Node6&#45;&gt;Node4</title>
<path fill="none" stroke="#191970" d="M178.0777,-56.2455C173.3973,-48.5367 166.7327,-37.5598 161.0711,-28.2348"/>
<polygon fill="#191970" stroke="#191970" points="164.0361,-26.3741 155.8545,-19.6427 158.0525,-30.007 164.0361,-26.3741"/>
</g>
<!-- Node7&#45;&gt;Node5 -->
<g id="edge9" class="edge">
<title>Node7&#45;&gt;Node5</title>
<path fill="none" stroke="#191970" d="M308.7618,-56.2455C297.319,-47.814 280.5704,-35.4729 267.2525,-25.6598"/>
<polygon fill="#191970" stroke="#191970" points="269.2133,-22.757 259.0865,-19.6427 265.0609,-28.3924 269.2133,-22.757"/>
</g>
<!-- Node9 -->
<g id="node10" class="node">
<title>Node9</title>
<polygon fill="#ffffff" stroke="#bfbfbf" points="291.5,-.5 291.5,-19.5 326.5,-19.5 326.5,-.5 291.5,-.5"/>
<text text-anchor="middle" x="309" y="-7.5" font-family="Helvetica,sans-Serif" font-size="10.00" fill="#000000">map</text>
</g>
<!-- Node8&#45;&gt;Node9 -->
<g id="edge11" class="edge">
<title>Node8&#45;&gt;Node9</title>
<path fill="none" stroke="#191970" d="M414.996,-56.3733C393.1057,-46.7962 359.4796,-32.0848 335.9889,-21.8077"/>
<polygon fill="#191970" stroke="#191970" points="337.1703,-18.5042 326.6058,-17.7026 334.3645,-24.9174 337.1703,-18.5042"/>
</g>
<!-- Node10 -->
<g id="node11" class="node">
<title>Node10</title>
<polygon fill="#ffffff" stroke="#bfbfbf" points="344.5,-.5 344.5,-19.5 403.5,-19.5 403.5,-.5 344.5,-.5"/>
<text text-anchor="middle" x="374" y="-7.5" font-family="Helvetica,sans-Serif" font-size="10.00" fill="#000000">stdexcept</text>
</g>
<!-- Node8&#45;&gt;Node10 -->
<g id="edge12" class="edge">
<title>Node8&#45;&gt;Node10</title>
<path fill="none" stroke="#191970" d="M426.0262,-56.2455C416.8118,-48.0549 403.4468,-36.1749 392.5703,-26.5069"/>
<polygon fill="#191970" stroke="#191970" points="394.6474,-23.6704 384.848,-19.6427 389.9968,-28.9023 394.6474,-23.6704"/>
</g>
<!-- Node11 -->
<g id="node12" class="node">
<title>Node11</title>
<polygon fill="#ffffff" stroke="#bfbfbf" points="421.5,-.5 421.5,-19.5 462.5,-19.5 462.5,-.5 421.5,-.5"/>
<text text-anchor="middle" x="442" y="-7.5" font-family="Helvetica,sans-Serif" font-size="10.00" fill="#000000">string</text>
</g>
<!-- Node8&#45;&gt;Node11 -->
<g id="edge13" class="edge">
<title>Node8&#45;&gt;Node11</title>
<path fill="none" stroke="#191970" d="M437.8709,-56.2455C438.5234,-48.9382 439.438,-38.6944 440.2407,-29.7046"/>
<polygon fill="#191970" stroke="#191970" points="443.7358,-29.9143 441.139,-19.6427 436.7635,-29.2918 443.7358,-29.9143"/>
</g>
<!-- Node8&#45;&gt;Node12 -->
<g id="edge14" class="edge">
<title>Node8&#45;&gt;Node12</title>
<path fill="none" stroke="#191970" d="M473.4441,-56.3733C509.3069,-46.9001 564.1878,-32.4032 603.0282,-22.1435"/>
<polygon fill="#191970" stroke="#191970" points="604.257,-25.439 613.0315,-19.5011 602.4692,-18.6712 604.257,-25.439"/>
</g>
<!-- Node13 -->
<g id="node14" class="node">
<title>Node13</title>
<polygon fill="#ffffff" stroke="#bfbfbf" points="480.5,-.5 480.5,-19.5 563.5,-19.5 563.5,-.5 480.5,-.5"/>
<text text-anchor="middle" x="522" y="-7.5" font-family="Helvetica,sans-Serif" font-size="10.00" fill="#000000">xtensor/xio.hpp</text>
</g>
<!-- Node8&#45;&gt;Node13 -->
<g id="edge15" class="edge">
<title>Node8&#45;&gt;Node13</title>
<path fill="none" stroke="#191970" d="M451.8059,-56.2455C464.7256,-47.7337 483.6931,-35.2375 498.6552,-25.3801"/>
<polygon fill="#191970" stroke="#191970" points="500.9387,-28.067 507.3638,-19.6427 497.0876,-22.2216 500.9387,-28.067"/>
</g>
</g>
</svg>
