<?xml version="1.0" encoding="UTF-8" standalone="no"?>
<!DOCTYPE svg PUBLIC "-//W3C//DTD SVG 1.1//EN"
 "http://www.w3.org/Graphics/SVG/1.1/DTD/svg11.dtd">
<!-- Generated by graphviz version 2.50.0 (20211204.2007)
 -->
<!-- Title: MoveMesh2D.cpp Pages: 1 -->
<svg width="724pt" height="196pt"
 viewBox="0.00 0.00 724.00 196.00" xmlns="http://www.w3.org/2000/svg" xmlns:xlink="http://www.w3.org/1999/xlink">
<g id="graph0" class="graph" transform="scale(1 1) rotate(0) translate(4 192)">
<title>MoveMesh2D.cpp</title>
<polygon fill="white" stroke="transparent" points="-4,4 -4,-192 720,-192 720,4 -4,4"/>
<!-- Node1 -->
<g id="node1" class="node">
<title>Node1</title>
<g id="a_node1"><a xlink:title=" ">
<polygon fill="#bfbfbf" stroke="black" points="127,-168.5 127,-187.5 223,-187.5 223,-168.5 127,-168.5"/>
<text text-anchor="middle" x="175" y="-175.5" font-family="Helvetica,sans-Serif" font-size="10.00">MoveMesh2D.cpp</text>
</a>
</g>
</g>
<!-- Node2 -->
<g id="node2" class="node">
<title>Node2</title>
<g id="a_node2"><a xlink:title=" ">
<polygon fill="white" stroke="#bfbfbf" points="0,-112.5 0,-131.5 106,-131.5 106,-112.5 0,-112.5"/>
<text text-anchor="middle" x="53" y="-119.5" font-family="Helvetica,sans-Serif" font-size="10.00">pybind11/pybind11.h</text>
</a>
</g>
</g>
<!-- Node1&#45;&gt;Node2 -->
<g id="edge1" class="edge">
<title>Node1&#45;&gt;Node2</title>
<path fill="none" stroke="midnightblue" d="M155.67,-168.44C135.68,-159.6 104.26,-145.69 81.44,-135.59"/>
<polygon fill="midnightblue" stroke="midnightblue" points="82.8,-132.36 72.24,-131.52 79.97,-138.76 82.8,-132.36"/>
</g>
<!-- Node3 -->
<g id="node3" class="node">
<title>Node3</title>
<g id="a_node3"><a xlink:title=" ">
<polygon fill="white" stroke="#bfbfbf" points="124.5,-112.5 124.5,-131.5 225.5,-131.5 225.5,-112.5 124.5,-112.5"/>
<text text-anchor="middle" x="175" y="-119.5" font-family="Helvetica,sans-Serif" font-size="10.00">pybind11/stl_bind.h</text>
</a>
</g>
</g>
<!-- Node1&#45;&gt;Node3 -->
<g id="edge2" class="edge">
<title>Node1&#45;&gt;Node3</title>
<path fill="none" stroke="midnightblue" d="M175,-168.08C175,-161.01 175,-150.86 175,-141.99"/>
<polygon fill="midnightblue" stroke="midnightblue" points="178.5,-141.75 175,-131.75 171.5,-141.75 178.5,-141.75"/>
</g>
<!-- Node4 -->
<g id="node4" class="node">
<title>Node4</title>
<g id="a_node4"><a xlink:href="_move_mesh2_d_8h.html" target="_top" xlink:title=" ">
<polygon fill="white" stroke="black" points="244,-112.5 244,-131.5 330,-131.5 330,-112.5 244,-112.5"/>
<text text-anchor="middle" x="287" y="-119.5" font-family="Helvetica,sans-Serif" font-size="10.00">MoveMesh2D.h</text>
</a>
</g>
</g>
<!-- Node1&#45;&gt;Node4 -->
<g id="edge3" class="edge">
<title>Node1&#45;&gt;Node4</title>
<path fill="none" stroke="midnightblue" d="M192.99,-168.32C211.04,-159.62 239.05,-146.12 259.8,-136.11"/>
<polygon fill="midnightblue" stroke="midnightblue" points="261.56,-139.15 269.05,-131.65 258.52,-132.84 261.56,-139.15"/>
</g>
<!-- Node5 -->
<g id="node5" class="node">
<title>Node5</title>
<g id="a_node5"><a xlink:title=" ">
<polygon fill="white" stroke="#bfbfbf" points="128,-0.5 128,-19.5 172,-19.5 172,-0.5 128,-0.5"/>
<text text-anchor="middle" x="150" y="-7.5" font-family="Helvetica,sans-Serif" font-size="10.00">cmath</text>
</a>
</g>
</g>
<!-- Node4&#45;&gt;Node5 -->
<g id="edge4" class="edge">
<title>Node4&#45;&gt;Node5</title>
<path fill="none" stroke="midnightblue" d="M249.81,-112.44C207.11,-102.24 142.02,-85.4 135,-76 124.75,-62.28 131.35,-42.72 138.75,-28.65"/>
<polygon fill="midnightblue" stroke="midnightblue" points="141.82,-30.33 143.8,-19.92 135.76,-26.82 141.82,-30.33"/>
</g>
<!-- Node6 -->
<g id="node6" class="node">
<title>Node6</title>
<g id="a_node6"><a xlink:title=" ">
<polygon fill="white" stroke="#bfbfbf" points="219,-0.5 219,-19.5 273,-19.5 273,-0.5 219,-0.5"/>
<text text-anchor="middle" x="246" y="-7.5" font-family="Helvetica,sans-Serif" font-size="10.00">iostream</text>
</a>
</g>
</g>
<!-- Node4&#45;&gt;Node6 -->
<g id="edge5" class="edge">
<title>Node4&#45;&gt;Node6</title>
<path fill="none" stroke="midnightblue" d="M283.78,-112.37C277.14,-94.54 261.76,-53.3 252.81,-29.27"/>
<polygon fill="midnightblue" stroke="midnightblue" points="255.97,-27.74 249.2,-19.59 249.42,-30.18 255.97,-27.74"/>
</g>
<!-- Node7 -->
<g id="node7" class="node">
<title>Node7</title>
<g id="a_node7"><a xlink:href="_comp_kernel_8h.html" target="_top" xlink:title=" ">
<polygon fill="white" stroke="black" points="144.5,-56.5 144.5,-75.5 223.5,-75.5 223.5,-56.5 144.5,-56.5"/>
<text text-anchor="middle" x="184" y="-63.5" font-family="Helvetica,sans-Serif" font-size="10.00">CompKernel.h</text>
</a>
</g>
</g>
<!-- Node4&#45;&gt;Node7 -->
<g id="edge6" class="edge">
<title>Node4&#45;&gt;Node7</title>
<path fill="none" stroke="midnightblue" d="M270.45,-112.32C254.01,-103.7 228.57,-90.36 209.53,-80.39"/>
<polygon fill="midnightblue" stroke="midnightblue" points="210.99,-77.2 200.51,-75.65 207.74,-83.4 210.99,-77.2"/>
</g>
<!-- Node8 -->
<g id="node8" class="node">
<title>Node8</title>
<g id="a_node8"><a xlink:href="_model_factory_8h.html" target="_top" xlink:title=" ">
<polygon fill="white" stroke="black" points="280.5,-56.5 280.5,-75.5 363.5,-75.5 363.5,-56.5 280.5,-56.5"/>
<text text-anchor="middle" x="322" y="-63.5" font-family="Helvetica,sans-Serif" font-size="10.00">ModelFactory.h</text>
</a>
</g>
</g>
<!-- Node4&#45;&gt;Node8 -->
<g id="edge8" class="edge">
<title>Node4&#45;&gt;Node8</title>
<path fill="none" stroke="midnightblue" d="M292.78,-112.08C297.67,-104.53 304.83,-93.49 310.83,-84.23"/>
<polygon fill="midnightblue" stroke="midnightblue" points="313.83,-86.05 316.33,-75.75 307.95,-82.24 313.83,-86.05"/>
</g>
<!-- Node9 -->
<g id="node9" class="node">
<title>Node9</title>
<g id="a_node9"><a xlink:href="_arguments_dict_8h.html" target="_top" xlink:title=" ">
<polygon fill="white" stroke="black" points="392,-56.5 392,-75.5 482,-75.5 482,-56.5 392,-56.5"/>
<text text-anchor="middle" x="437" y="-63.5" font-family="Helvetica,sans-Serif" font-size="10.00">ArgumentsDict.h</text>
</a>
</g>
</g>
<!-- Node4&#45;&gt;Node9 -->
<g id="edge10" class="edge">
<title>Node4&#45;&gt;Node9</title>
<path fill="none" stroke="midnightblue" d="M310.77,-112.44C335.89,-103.4 375.71,-89.06 403.9,-78.92"/>
<polygon fill="midnightblue" stroke="midnightblue" points="405.12,-82.2 413.34,-75.52 402.75,-75.61 405.12,-82.2"/>
</g>
<!-- Node13 -->
<g id="node13" class="node">
<title>Node13</title>
<g id="a_node13"><a xlink:title=" ">
<polygon fill="white" stroke="#bfbfbf" points="582,-0.5 582,-19.5 716,-19.5 716,-0.5 582,-0.5"/>
<text text-anchor="middle" x="649" y="-7.5" font-family="Helvetica,sans-Serif" font-size="10.00">xtensor&#45;python/pyarray.hpp</text>
</a>
</g>
</g>
<!-- Node4&#45;&gt;Node13 -->
<g id="edge16" class="edge">
<title>Node4&#45;&gt;Node13</title>
<path fill="none" stroke="midnightblue" d="M330.15,-113.73C371.84,-106.18 436.49,-93.08 491,-76 537.99,-61.27 590.49,-38.31 621.58,-23.98"/>
<polygon fill="midnightblue" stroke="midnightblue" points="623.3,-27.05 630.89,-19.66 620.35,-20.7 623.3,-27.05"/>
</g>
<!-- Node7&#45;&gt;Node5 -->
<g id="edge7" class="edge">
<title>Node7&#45;&gt;Node5</title>
<path fill="none" stroke="midnightblue" d="M178.39,-56.08C173.63,-48.53 166.68,-37.49 160.85,-28.23"/>
<polygon fill="midnightblue" stroke="midnightblue" points="163.8,-26.35 155.51,-19.75 157.88,-30.08 163.8,-26.35"/>
</g>
<!-- Node8&#45;&gt;Node6 -->
<g id="edge9" class="edge">
<title>Node8&#45;&gt;Node6</title>
<path fill="none" stroke="midnightblue" d="M309.79,-56.32C298.22,-48.11 280.62,-35.6 266.84,-25.81"/>
<polygon fill="midnightblue" stroke="midnightblue" points="268.61,-22.77 258.43,-19.83 264.56,-28.48 268.61,-22.77"/>
</g>
<!-- Node10 -->
<g id="node10" class="node">
<title>Node10</title>
<g id="a_node10"><a xlink:title=" ">
<polygon fill="white" stroke="#bfbfbf" points="291.5,-0.5 291.5,-19.5 326.5,-19.5 326.5,-0.5 291.5,-0.5"/>
<text text-anchor="middle" x="309" y="-7.5" font-family="Helvetica,sans-Serif" font-size="10.00">map</text>
</a>
</g>
</g>
<!-- Node9&#45;&gt;Node10 -->
<g id="edge11" class="edge">
<title>Node9&#45;&gt;Node10</title>
<path fill="none" stroke="midnightblue" d="M416.72,-56.44C394.91,-47.24 360.13,-32.57 336.01,-22.4"/>
<polygon fill="midnightblue" stroke="midnightblue" points="337.29,-19.14 326.71,-18.47 334.57,-25.58 337.29,-19.14"/>
</g>
<!-- Node11 -->
<g id="node11" class="node">
<title>Node11</title>
<g id="a_node11"><a xlink:title=" ">
<polygon fill="white" stroke="#bfbfbf" points="344.5,-0.5 344.5,-19.5 403.5,-19.5 403.5,-0.5 344.5,-0.5"/>
<text text-anchor="middle" x="374" y="-7.5" font-family="Helvetica,sans-Serif" font-size="10.00">stdexcept</text>
</a>
</g>
</g>
<!-- Node9&#45;&gt;Node11 -->
<g id="edge12" class="edge">
<title>Node9&#45;&gt;Node11</title>
<path fill="none" stroke="midnightblue" d="M426.88,-56.32C417.47,-48.26 403.26,-36.08 391.93,-26.37"/>
<polygon fill="midnightblue" stroke="midnightblue" points="394.18,-23.68 384.31,-19.83 389.62,-29 394.18,-23.68"/>
</g>
<!-- Node12 -->
<g id="node12" class="node">
<title>Node12</title>
<g id="a_node12"><a xlink:title=" ">
<polygon fill="white" stroke="#bfbfbf" points="421.5,-0.5 421.5,-19.5 462.5,-19.5 462.5,-0.5 421.5,-0.5"/>
<text text-anchor="middle" x="442" y="-7.5" font-family="Helvetica,sans-Serif" font-size="10.00">string</text>
</a>
</g>
</g>
<!-- Node9&#45;&gt;Node12 -->
<g id="edge13" class="edge">
<title>Node9&#45;&gt;Node12</title>
<path fill="none" stroke="midnightblue" d="M437.83,-56.08C438.48,-49.01 439.42,-38.86 440.24,-29.99"/>
<polygon fill="midnightblue" stroke="midnightblue" points="443.75,-30.03 441.19,-19.75 436.78,-29.39 443.75,-30.03"/>
</g>
<!-- Node9&#45;&gt;Node13 -->
<g id="edge14" class="edge">
<title>Node9&#45;&gt;Node13</title>
<path fill="none" stroke="midnightblue" d="M470.59,-56.44C507.19,-47.12 565.84,-32.18 605.83,-22"/>
<polygon fill="midnightblue" stroke="midnightblue" points="606.74,-25.38 615.57,-19.52 605.01,-18.59 606.74,-25.38"/>
</g>
<!-- Node14 -->
<g id="node14" class="node">
<title>Node14</title>
<g id="a_node14"><a xlink:title=" ">
<polygon fill="white" stroke="#bfbfbf" points="480.5,-0.5 480.5,-19.5 563.5,-19.5 563.5,-0.5 480.5,-0.5"/>
<text text-anchor="middle" x="522" y="-7.5" font-family="Helvetica,sans-Serif" font-size="10.00">xtensor/xio.hpp</text>
</a>
</g>
</g>
<!-- Node9&#45;&gt;Node14 -->
<g id="edge15" class="edge">
<title>Node9&#45;&gt;Node14</title>
<path fill="none" stroke="midnightblue" d="M450.66,-56.32C463.92,-47.9 484.27,-34.97 499.85,-25.07"/>
<polygon fill="midnightblue" stroke="midnightblue" points="501.81,-27.97 508.38,-19.65 498.06,-22.06 501.81,-27.97"/>
</g>
</g>
</svg>
