<?xml version="1.0" encoding="UTF-8" standalone="no"?>
<!DOCTYPE svg PUBLIC "-//W3C//DTD SVG 1.1//EN"
 "http://www.w3.org/Graphics/SVG/1.1/DTD/svg11.dtd">
<!-- Generated by graphviz version 2.50.0 (20211204.2007)
 -->
<!-- Title: MoveMesh.h Pages: 1 -->
<svg width="596pt" height="140pt"
 viewBox="0.00 0.00 596.00 140.00" xmlns="http://www.w3.org/2000/svg" xmlns:xlink="http://www.w3.org/1999/xlink">
<g id="graph0" class="graph" transform="scale(1 1) rotate(0) translate(4 136)">
<title>MoveMesh.h</title>
<polygon fill="white" stroke="transparent" points="-4,4 -4,-136 592,-136 592,4 -4,4"/>
<!-- Node1 -->
<g id="node1" class="node">
<title>Node1</title>
<g id="a_node1"><a xlink:title=" ">
<polygon fill="#bfbfbf" stroke="black" points="122.5,-112.5 122.5,-131.5 195.5,-131.5 195.5,-112.5 122.5,-112.5"/>
<text text-anchor="middle" x="159" y="-119.5" font-family="Helvetica,sans-Serif" font-size="10.00">MoveMesh.h</text>
</a>
</g>
</g>
<!-- Node2 -->
<g id="node2" class="node">
<title>Node2</title>
<g id="a_node2"><a xlink:title=" ">
<polygon fill="white" stroke="#bfbfbf" points="0,-0.5 0,-19.5 44,-19.5 44,-0.5 0,-0.5"/>
<text text-anchor="middle" x="22" y="-7.5" font-family="Helvetica,sans-Serif" font-size="10.00">cmath</text>
</a>
</g>
</g>
<!-- Node1&#45;&gt;Node2 -->
<g id="edge1" class="edge">
<title>Node1&#45;&gt;Node2</title>
<path fill="none" stroke="midnightblue" d="M122.36,-121.66C86.47,-120.09 33.43,-111.39 7,-76 -3.25,-62.28 3.35,-42.72 10.75,-28.65"/>
<polygon fill="midnightblue" stroke="midnightblue" points="13.82,-30.33 15.8,-19.92 7.76,-26.82 13.82,-30.33"/>
</g>
<!-- Node3 -->
<g id="node3" class="node">
<title>Node3</title>
<g id="a_node3"><a xlink:title=" ">
<polygon fill="white" stroke="#bfbfbf" points="91,-0.5 91,-19.5 145,-19.5 145,-0.5 91,-0.5"/>
<text text-anchor="middle" x="118" y="-7.5" font-family="Helvetica,sans-Serif" font-size="10.00">iostream</text>
</a>
</g>
</g>
<!-- Node1&#45;&gt;Node3 -->
<g id="edge2" class="edge">
<title>Node1&#45;&gt;Node3</title>
<path fill="none" stroke="midnightblue" d="M155.78,-112.37C149.14,-94.54 133.76,-53.3 124.81,-29.27"/>
<polygon fill="midnightblue" stroke="midnightblue" points="127.97,-27.74 121.2,-19.59 121.42,-30.18 127.97,-27.74"/>
</g>
<!-- Node4 -->
<g id="node4" class="node">
<title>Node4</title>
<g id="a_node4"><a xlink:href="_comp_kernel_8h.html" target="_top" xlink:title=" ">
<polygon fill="white" stroke="black" points="16.5,-56.5 16.5,-75.5 95.5,-75.5 95.5,-56.5 16.5,-56.5"/>
<text text-anchor="middle" x="56" y="-63.5" font-family="Helvetica,sans-Serif" font-size="10.00">CompKernel.h</text>
</a>
</g>
</g>
<!-- Node1&#45;&gt;Node4 -->
<g id="edge3" class="edge">
<title>Node1&#45;&gt;Node4</title>
<path fill="none" stroke="midnightblue" d="M142.45,-112.32C126.01,-103.7 100.57,-90.36 81.53,-80.39"/>
<polygon fill="midnightblue" stroke="midnightblue" points="82.99,-77.2 72.51,-75.65 79.74,-83.4 82.99,-77.2"/>
</g>
<!-- Node5 -->
<g id="node5" class="node">
<title>Node5</title>
<g id="a_node5"><a xlink:href="_model_factory_8h.html" target="_top" xlink:title=" ">
<polygon fill="white" stroke="black" points="152.5,-56.5 152.5,-75.5 235.5,-75.5 235.5,-56.5 152.5,-56.5"/>
<text text-anchor="middle" x="194" y="-63.5" font-family="Helvetica,sans-Serif" font-size="10.00">ModelFactory.h</text>
</a>
</g>
</g>
<!-- Node1&#45;&gt;Node5 -->
<g id="edge5" class="edge">
<title>Node1&#45;&gt;Node5</title>
<path fill="none" stroke="midnightblue" d="M164.78,-112.08C169.67,-104.53 176.83,-93.49 182.83,-84.23"/>
<polygon fill="midnightblue" stroke="midnightblue" points="185.83,-86.05 188.33,-75.75 179.95,-82.24 185.83,-86.05"/>
</g>
<!-- Node6 -->
<g id="node6" class="node">
<title>Node6</title>
<g id="a_node6"><a xlink:href="_arguments_dict_8h.html" target="_top" xlink:title=" ">
<polygon fill="white" stroke="black" points="264,-56.5 264,-75.5 354,-75.5 354,-56.5 264,-56.5"/>
<text text-anchor="middle" x="309" y="-63.5" font-family="Helvetica,sans-Serif" font-size="10.00">ArgumentsDict.h</text>
</a>
</g>
</g>
<!-- Node1&#45;&gt;Node6 -->
<g id="edge7" class="edge">
<title>Node1&#45;&gt;Node6</title>
<path fill="none" stroke="midnightblue" d="M182.77,-112.44C207.89,-103.4 247.71,-89.06 275.9,-78.92"/>
<polygon fill="midnightblue" stroke="midnightblue" points="277.12,-82.2 285.34,-75.52 274.75,-75.61 277.12,-82.2"/>
</g>
<!-- Node10 -->
<g id="node10" class="node">
<title>Node10</title>
<g id="a_node10"><a xlink:title=" ">
<polygon fill="white" stroke="#bfbfbf" points="454,-0.5 454,-19.5 588,-19.5 588,-0.5 454,-0.5"/>
<text text-anchor="middle" x="521" y="-7.5" font-family="Helvetica,sans-Serif" font-size="10.00">xtensor&#45;python/pyarray.hpp</text>
</a>
</g>
</g>
<!-- Node1&#45;&gt;Node10 -->
<g id="edge13" class="edge">
<title>Node1&#45;&gt;Node10</title>
<path fill="none" stroke="midnightblue" d="M195.61,-114.9C236.83,-107.58 305.55,-94 363,-76 409.99,-61.27 462.49,-38.31 493.58,-23.98"/>
<polygon fill="midnightblue" stroke="midnightblue" points="495.3,-27.05 502.89,-19.66 492.35,-20.7 495.3,-27.05"/>
</g>
<!-- Node4&#45;&gt;Node2 -->
<g id="edge4" class="edge">
<title>Node4&#45;&gt;Node2</title>
<path fill="none" stroke="midnightblue" d="M50.39,-56.08C45.63,-48.53 38.68,-37.49 32.85,-28.23"/>
<polygon fill="midnightblue" stroke="midnightblue" points="35.8,-26.35 27.51,-19.75 29.88,-30.08 35.8,-26.35"/>
</g>
<!-- Node5&#45;&gt;Node3 -->
<g id="edge6" class="edge">
<title>Node5&#45;&gt;Node3</title>
<path fill="none" stroke="midnightblue" d="M181.79,-56.32C170.22,-48.11 152.62,-35.6 138.84,-25.81"/>
<polygon fill="midnightblue" stroke="midnightblue" points="140.61,-22.77 130.43,-19.83 136.56,-28.48 140.61,-22.77"/>
</g>
<!-- Node7 -->
<g id="node7" class="node">
<title>Node7</title>
<g id="a_node7"><a xlink:title=" ">
<polygon fill="white" stroke="#bfbfbf" points="163.5,-0.5 163.5,-19.5 198.5,-19.5 198.5,-0.5 163.5,-0.5"/>
<text text-anchor="middle" x="181" y="-7.5" font-family="Helvetica,sans-Serif" font-size="10.00">map</text>
</a>
</g>
</g>
<!-- Node6&#45;&gt;Node7 -->
<g id="edge8" class="edge">
<title>Node6&#45;&gt;Node7</title>
<path fill="none" stroke="midnightblue" d="M288.72,-56.44C266.91,-47.24 232.13,-32.57 208.01,-22.4"/>
<polygon fill="midnightblue" stroke="midnightblue" points="209.29,-19.14 198.71,-18.47 206.57,-25.58 209.29,-19.14"/>
</g>
<!-- Node8 -->
<g id="node8" class="node">
<title>Node8</title>
<g id="a_node8"><a xlink:title=" ">
<polygon fill="white" stroke="#bfbfbf" points="216.5,-0.5 216.5,-19.5 275.5,-19.5 275.5,-0.5 216.5,-0.5"/>
<text text-anchor="middle" x="246" y="-7.5" font-family="Helvetica,sans-Serif" font-size="10.00">stdexcept</text>
</a>
</g>
</g>
<!-- Node6&#45;&gt;Node8 -->
<g id="edge9" class="edge">
<title>Node6&#45;&gt;Node8</title>
<path fill="none" stroke="midnightblue" d="M298.88,-56.32C289.47,-48.26 275.26,-36.08 263.93,-26.37"/>
<polygon fill="midnightblue" stroke="midnightblue" points="266.18,-23.68 256.31,-19.83 261.62,-29 266.18,-23.68"/>
</g>
<!-- Node9 -->
<g id="node9" class="node">
<title>Node9</title>
<g id="a_node9"><a xlink:title=" ">
<polygon fill="white" stroke="#bfbfbf" points="293.5,-0.5 293.5,-19.5 334.5,-19.5 334.5,-0.5 293.5,-0.5"/>
<text text-anchor="middle" x="314" y="-7.5" font-family="Helvetica,sans-Serif" font-size="10.00">string</text>
</a>
</g>
</g>
<!-- Node6&#45;&gt;Node9 -->
<g id="edge10" class="edge">
<title>Node6&#45;&gt;Node9</title>
<path fill="none" stroke="midnightblue" d="M309.83,-56.08C310.48,-49.01 311.42,-38.86 312.24,-29.99"/>
<polygon fill="midnightblue" stroke="midnightblue" points="315.75,-30.03 313.19,-19.75 308.78,-29.39 315.75,-30.03"/>
</g>
<!-- Node6&#45;&gt;Node10 -->
<g id="edge11" class="edge">
<title>Node6&#45;&gt;Node10</title>
<path fill="none" stroke="midnightblue" d="M342.59,-56.44C379.19,-47.12 437.84,-32.18 477.83,-22"/>
<polygon fill="midnightblue" stroke="midnightblue" points="478.74,-25.38 487.57,-19.52 477.01,-18.59 478.74,-25.38"/>
</g>
<!-- Node11 -->
<g id="node11" class="node">
<title>Node11</title>
<g id="a_node11"><a xlink:title=" ">
<polygon fill="white" stroke="#bfbfbf" points="352.5,-0.5 352.5,-19.5 435.5,-19.5 435.5,-0.5 352.5,-0.5"/>
<text text-anchor="middle" x="394" y="-7.5" font-family="Helvetica,sans-Serif" font-size="10.00">xtensor/xio.hpp</text>
</a>
</g>
</g>
<!-- Node6&#45;&gt;Node11 -->
<g id="edge12" class="edge">
<title>Node6&#45;&gt;Node11</title>
<path fill="none" stroke="midnightblue" d="M322.66,-56.32C335.92,-47.9 356.27,-34.97 371.85,-25.07"/>
<polygon fill="midnightblue" stroke="midnightblue" points="373.81,-27.97 380.38,-19.65 370.06,-22.06 373.81,-27.97"/>
</g>
</g>
</svg>
