<?xml version="1.0" encoding="UTF-8" standalone="no"?>
<!DOCTYPE svg PUBLIC "-//W3C//DTD SVG 1.1//EN"
 "http://www.w3.org/Graphics/SVG/1.1/DTD/svg11.dtd">
<!-- Generated by graphviz version 2.40.1 (20161225.0304)
 -->
<!-- Title: MoveMesh.cpp Pages: 1 -->
<svg width="718pt" height="196pt"
 viewBox="0.00 0.00 717.50 196.00" xmlns="http://www.w3.org/2000/svg" xmlns:xlink="http://www.w3.org/1999/xlink">
<g id="graph0" class="graph" transform="scale(1 1) rotate(0) translate(4 192)">
<title>MoveMesh.cpp</title>
<polygon fill="#ffffff" stroke="transparent" points="-4,4 -4,-192 713.5,-192 713.5,4 -4,4"/>
<!-- Node0 -->
<g id="node1" class="node">
<title>Node0</title>
<polygon fill="#bfbfbf" stroke="#000000" points="133.5,-168.5 133.5,-187.5 216.5,-187.5 216.5,-168.5 133.5,-168.5"/>
<text text-anchor="middle" x="175" y="-175.5" font-family="Helvetica,sans-Serif" font-size="10.00" fill="#000000">MoveMesh.cpp</text>
</g>
<!-- Node1 -->
<g id="node2" class="node">
<title>Node1</title>
<polygon fill="#ffffff" stroke="#bfbfbf" points="0,-112.5 0,-131.5 106,-131.5 106,-112.5 0,-112.5"/>
<text text-anchor="middle" x="53" y="-119.5" font-family="Helvetica,sans-Serif" font-size="10.00" fill="#000000">pybind11/pybind11.h</text>
</g>
<!-- Node0&#45;&gt;Node1 -->
<g id="edge1" class="edge">
<title>Node0&#45;&gt;Node1</title>
<path fill="none" stroke="#191970" d="M154.0275,-168.3733C134.4433,-159.3838 105.0039,-145.8706 82.949,-135.7471"/>
<polygon fill="#191970" stroke="#191970" points="84.2473,-132.4919 73.6989,-131.5011 81.3271,-138.8538 84.2473,-132.4919"/>
</g>
<!-- Node2 -->
<g id="node3" class="node">
<title>Node2</title>
<polygon fill="#ffffff" stroke="#bfbfbf" points="124.5,-112.5 124.5,-131.5 225.5,-131.5 225.5,-112.5 124.5,-112.5"/>
<text text-anchor="middle" x="175" y="-119.5" font-family="Helvetica,sans-Serif" font-size="10.00" fill="#000000">pybind11/stl_bind.h</text>
</g>
<!-- Node0&#45;&gt;Node2 -->
<g id="edge2" class="edge">
<title>Node0&#45;&gt;Node2</title>
<path fill="none" stroke="#191970" d="M175,-168.2455C175,-160.9382 175,-150.6944 175,-141.7046"/>
<polygon fill="#191970" stroke="#191970" points="178.5001,-141.6426 175,-131.6427 171.5001,-141.6427 178.5001,-141.6426"/>
</g>
<!-- Node3 -->
<g id="node4" class="node">
<title>Node3</title>
<g id="a_node4"><a xlink:href="_move_mesh_8h.html" target="_top" xlink:title="MoveMesh.h">
<polygon fill="#ffffff" stroke="#000000" points="243.5,-112.5 243.5,-131.5 316.5,-131.5 316.5,-112.5 243.5,-112.5"/>
<text text-anchor="middle" x="280" y="-119.5" font-family="Helvetica,sans-Serif" font-size="10.00" fill="#000000">MoveMesh.h</text>
</a>
</g>
</g>
<!-- Node0&#45;&gt;Node3 -->
<g id="edge3" class="edge">
<title>Node0&#45;&gt;Node3</title>
<path fill="none" stroke="#191970" d="M193.2896,-168.2455C209.7762,-159.4527 234.2352,-146.4079 252.9765,-136.4125"/>
<polygon fill="#191970" stroke="#191970" points="254.7435,-139.4368 261.92,-131.6427 251.4494,-133.2604 254.7435,-139.4368"/>
</g>
<!-- Node4 -->
<g id="node5" class="node">
<title>Node4</title>
<polygon fill="#ffffff" stroke="#bfbfbf" points="121,-.5 121,-19.5 165,-19.5 165,-.5 121,-.5"/>
<text text-anchor="middle" x="143" y="-7.5" font-family="Helvetica,sans-Serif" font-size="10.00" fill="#000000">cmath</text>
</g>
<!-- Node3&#45;&gt;Node4 -->
<g id="edge4" class="edge">
<title>Node3&#45;&gt;Node4</title>
<path fill="none" stroke="#191970" d="M243.1794,-113.2842C200.4843,-102.8096 135.0243,-85.4647 128,-76 117.7583,-62.2001 124.1141,-42.6272 131.4461,-28.3812"/>
<polygon fill="#191970" stroke="#191970" points="134.5914,-29.9302 136.486,-19.5061 128.5044,-26.4735 134.5914,-29.9302"/>
</g>
<!-- Node5 -->
<g id="node6" class="node">
<title>Node5</title>
<polygon fill="#ffffff" stroke="#bfbfbf" points="212,-.5 212,-19.5 266,-19.5 266,-.5 212,-.5"/>
<text text-anchor="middle" x="239" y="-7.5" font-family="Helvetica,sans-Serif" font-size="10.00" fill="#000000">iostream</text>
</g>
<!-- Node3&#45;&gt;Node5 -->
<g id="edge5" class="edge">
<title>Node3&#45;&gt;Node5</title>
<path fill="none" stroke="#191970" d="M276.5044,-112.4509C269.7568,-94.0186 254.8236,-53.2254 245.9711,-29.043"/>
<polygon fill="#191970" stroke="#191970" points="249.2112,-27.7123 242.4868,-19.5249 242.6378,-30.1187 249.2112,-27.7123"/>
</g>
<!-- Node6 -->
<g id="node7" class="node">
<title>Node6</title>
<g id="a_node7"><a xlink:href="_comp_kernel_8h.html" target="_top" xlink:title="CompKernel.h">
<polygon fill="#ffffff" stroke="#000000" points="137.5,-56.5 137.5,-75.5 216.5,-75.5 216.5,-56.5 137.5,-56.5"/>
<text text-anchor="middle" x="177" y="-63.5" font-family="Helvetica,sans-Serif" font-size="10.00" fill="#000000">CompKernel.h</text>
</a>
</g>
</g>
<!-- Node3&#45;&gt;Node6 -->
<g id="edge6" class="edge">
<title>Node3&#45;&gt;Node6</title>
<path fill="none" stroke="#191970" d="M262.0588,-112.2455C245.96,-103.4928 222.1121,-90.527 203.7609,-80.5496"/>
<polygon fill="#191970" stroke="#191970" points="205.1929,-77.3444 194.7356,-75.6427 201.8493,-83.4942 205.1929,-77.3444"/>
</g>
<!-- Node7 -->
<g id="node8" class="node">
<title>Node7</title>
<g id="a_node8"><a xlink:href="_model_factory_8h.html" target="_top" xlink:title="ModelFactory.h">
<polygon fill="#ffffff" stroke="#000000" points="273,-56.5 273,-75.5 357,-75.5 357,-56.5 273,-56.5"/>
<text text-anchor="middle" x="315" y="-63.5" font-family="Helvetica,sans-Serif" font-size="10.00" fill="#000000">ModelFactory.h</text>
</a>
</g>
</g>
<!-- Node3&#45;&gt;Node7 -->
<g id="edge8" class="edge">
<title>Node3&#45;&gt;Node7</title>
<path fill="none" stroke="#191970" d="M286.0965,-112.2455C290.9145,-104.5367 297.7751,-93.5598 303.6032,-84.2348"/>
<polygon fill="#191970" stroke="#191970" points="306.6413,-85.9777 308.9733,-75.6427 300.7053,-82.2677 306.6413,-85.9777"/>
</g>
<!-- Node8 -->
<g id="node9" class="node">
<title>Node8</title>
<g id="a_node9"><a xlink:href="_arguments_dict_8h.html" target="_top" xlink:title="ArgumentsDict.h">
<polygon fill="#ffffff" stroke="#000000" points="385,-56.5 385,-75.5 475,-75.5 475,-56.5 385,-56.5"/>
<text text-anchor="middle" x="430" y="-63.5" font-family="Helvetica,sans-Serif" font-size="10.00" fill="#000000">ArgumentsDict.h</text>
</a>
</g>
</g>
<!-- Node3&#45;&gt;Node8 -->
<g id="edge10" class="edge">
<title>Node3&#45;&gt;Node8</title>
<path fill="none" stroke="#191970" d="M305.7859,-112.3733C330.4047,-103.1822 367.69,-89.2624 394.9875,-79.0713"/>
<polygon fill="#191970" stroke="#191970" points="396.4063,-82.2777 404.5506,-75.5011 393.958,-75.7198 396.4063,-82.2777"/>
</g>
<!-- Node12 -->
<g id="node13" class="node">
<title>Node12</title>
<polygon fill="#ffffff" stroke="#bfbfbf" points="574.5,-.5 574.5,-19.5 709.5,-19.5 709.5,-.5 574.5,-.5"/>
<text text-anchor="middle" x="642" y="-7.5" font-family="Helvetica,sans-Serif" font-size="10.00" fill="#000000">xtensor&#45;python/pyarray.hpp</text>
</g>
<!-- Node3&#45;&gt;Node12 -->
<g id="edge16" class="edge">
<title>Node3&#45;&gt;Node12</title>
<path fill="none" stroke="#191970" d="M316.6225,-115.7314C357.8517,-108.2177 426.5818,-94.3126 484,-76 530.0011,-61.3287 581.2318,-38.7065 612.5388,-24.1282"/>
<polygon fill="#191970" stroke="#191970" points="614.4081,-27.1172 621.9715,-19.6979 611.4322,-20.7812 614.4081,-27.1172"/>
</g>
<!-- Node6&#45;&gt;Node4 -->
<g id="edge7" class="edge">
<title>Node6&#45;&gt;Node4</title>
<path fill="none" stroke="#191970" d="M171.0777,-56.2455C166.3973,-48.5367 159.7327,-37.5598 154.0711,-28.2348"/>
<polygon fill="#191970" stroke="#191970" points="157.0361,-26.3741 148.8545,-19.6427 151.0525,-30.007 157.0361,-26.3741"/>
</g>
<!-- Node7&#45;&gt;Node5 -->
<g id="edge9" class="edge">
<title>Node7&#45;&gt;Node5</title>
<path fill="none" stroke="#191970" d="M301.7618,-56.2455C290.319,-47.814 273.5704,-35.4729 260.2525,-25.6598"/>
<polygon fill="#191970" stroke="#191970" points="262.2133,-22.757 252.0865,-19.6427 258.0609,-28.3924 262.2133,-22.757"/>
</g>
<!-- Node9 -->
<g id="node10" class="node">
<title>Node9</title>
<polygon fill="#ffffff" stroke="#bfbfbf" points="284.5,-.5 284.5,-19.5 319.5,-19.5 319.5,-.5 284.5,-.5"/>
<text text-anchor="middle" x="302" y="-7.5" font-family="Helvetica,sans-Serif" font-size="10.00" fill="#000000">map</text>
</g>
<!-- Node8&#45;&gt;Node9 -->
<g id="edge11" class="edge">
<title>Node8&#45;&gt;Node9</title>
<path fill="none" stroke="#191970" d="M407.996,-56.3733C386.1057,-46.7962 352.4796,-32.0848 328.9889,-21.8077"/>
<polygon fill="#191970" stroke="#191970" points="330.1703,-18.5042 319.6058,-17.7026 327.3645,-24.9174 330.1703,-18.5042"/>
</g>
<!-- Node10 -->
<g id="node11" class="node">
<title>Node10</title>
<polygon fill="#ffffff" stroke="#bfbfbf" points="337.5,-.5 337.5,-19.5 396.5,-19.5 396.5,-.5 337.5,-.5"/>
<text text-anchor="middle" x="367" y="-7.5" font-family="Helvetica,sans-Serif" font-size="10.00" fill="#000000">stdexcept</text>
</g>
<!-- Node8&#45;&gt;Node10 -->
<g id="edge12" class="edge">
<title>Node8&#45;&gt;Node10</title>
<path fill="none" stroke="#191970" d="M419.0262,-56.2455C409.8118,-48.0549 396.4468,-36.1749 385.5703,-26.5069"/>
<polygon fill="#191970" stroke="#191970" points="387.6474,-23.6704 377.848,-19.6427 382.9968,-28.9023 387.6474,-23.6704"/>
</g>
<!-- Node11 -->
<g id="node12" class="node">
<title>Node11</title>
<polygon fill="#ffffff" stroke="#bfbfbf" points="414.5,-.5 414.5,-19.5 455.5,-19.5 455.5,-.5 414.5,-.5"/>
<text text-anchor="middle" x="435" y="-7.5" font-family="Helvetica,sans-Serif" font-size="10.00" fill="#000000">string</text>
</g>
<!-- Node8&#45;&gt;Node11 -->
<g id="edge13" class="edge">
<title>Node8&#45;&gt;Node11</title>
<path fill="none" stroke="#191970" d="M430.8709,-56.2455C431.5234,-48.9382 432.438,-38.6944 433.2407,-29.7046"/>
<polygon fill="#191970" stroke="#191970" points="436.7358,-29.9143 434.139,-19.6427 429.7635,-29.2918 436.7358,-29.9143"/>
</g>
<!-- Node8&#45;&gt;Node12 -->
<g id="edge14" class="edge">
<title>Node8&#45;&gt;Node12</title>
<path fill="none" stroke="#191970" d="M466.4441,-56.3733C502.3069,-46.9001 557.1878,-32.4032 596.0282,-22.1435"/>
<polygon fill="#191970" stroke="#191970" points="597.257,-25.439 606.0315,-19.5011 595.4692,-18.6712 597.257,-25.439"/>
</g>
<!-- Node13 -->
<g id="node14" class="node">
<title>Node13</title>
<polygon fill="#ffffff" stroke="#bfbfbf" points="473.5,-.5 473.5,-19.5 556.5,-19.5 556.5,-.5 473.5,-.5"/>
<text text-anchor="middle" x="515" y="-7.5" font-family="Helvetica,sans-Serif" font-size="10.00" fill="#000000">xtensor/xio.hpp</text>
</g>
<!-- Node8&#45;&gt;Node13 -->
<g id="edge15" class="edge">
<title>Node8&#45;&gt;Node13</title>
<path fill="none" stroke="#191970" d="M444.8059,-56.2455C457.7256,-47.7337 476.6931,-35.2375 491.6552,-25.3801"/>
<polygon fill="#191970" stroke="#191970" points="493.9387,-28.067 500.3638,-19.6427 490.0876,-22.2216 493.9387,-28.067"/>
</g>
</g>
</svg>
