<?xml version="1.0" encoding="UTF-8" standalone="no"?>
<!DOCTYPE svg PUBLIC "-//W3C//DTD SVG 1.1//EN"
 "http://www.w3.org/Graphics/SVG/1.1/DTD/svg11.dtd">
<!-- Generated by graphviz version 2.43.0 (0)
 -->
<!-- Title: NCLS3P.h Pages: 1 -->
<svg width="643pt" height="140pt"
 viewBox="0.00 0.00 643.00 140.00" xmlns="http://www.w3.org/2000/svg" xmlns:xlink="http://www.w3.org/1999/xlink">
<g id="graph0" class="graph" transform="scale(1 1) rotate(0) translate(4 136)">
<title>NCLS3P.h</title>
<polygon fill="white" stroke="transparent" points="-4,4 -4,-136 639,-136 639,4 -4,4"/>
<!-- Node1 -->
<g id="node1" class="node">
<title>Node1</title>
<g id="a_node1"><a xlink:title=" ">
<polygon fill="#bfbfbf" stroke="black" points="135.5,-112.5 135.5,-131.5 197.5,-131.5 197.5,-112.5 135.5,-112.5"/>
<text text-anchor="middle" x="166.5" y="-119.5" font-family="Helvetica,sans-Serif" font-size="10.00">NCLS3P.h</text>
</a>
</g>
</g>
<!-- Node2 -->
<g id="node2" class="node">
<title>Node2</title>
<g id="a_node2"><a xlink:title=" ">
<polygon fill="white" stroke="#bfbfbf" points="0,-0.5 0,-19.5 47,-19.5 47,-0.5 0,-0.5"/>
<text text-anchor="middle" x="23.5" y="-7.5" font-family="Helvetica,sans-Serif" font-size="10.00">cmath</text>
</a>
</g>
</g>
<!-- Node1&#45;&gt;Node2 -->
<g id="edge1" class="edge">
<title>Node1&#45;&gt;Node2</title>
<path fill="none" stroke="midnightblue" d="M135.15,-116.63C93.36,-110.09 22.86,-96.31 7.5,-76 -2.87,-62.29 4.08,-42.73 11.8,-28.66"/>
<polygon fill="midnightblue" stroke="midnightblue" points="14.9,-30.3 17.06,-19.92 8.9,-26.68 14.9,-30.3"/>
</g>
<!-- Node3 -->
<g id="node3" class="node">
<title>Node3</title>
<g id="a_node3"><a xlink:title=" ">
<polygon fill="white" stroke="#bfbfbf" points="93.5,-0.5 93.5,-19.5 153.5,-19.5 153.5,-0.5 93.5,-0.5"/>
<text text-anchor="middle" x="123.5" y="-7.5" font-family="Helvetica,sans-Serif" font-size="10.00">iostream</text>
</a>
</g>
</g>
<!-- Node1&#45;&gt;Node3 -->
<g id="edge2" class="edge">
<title>Node1&#45;&gt;Node3</title>
<path fill="none" stroke="midnightblue" d="M163.13,-112.37C156.12,-94.46 139.89,-52.92 130.52,-28.95"/>
<polygon fill="midnightblue" stroke="midnightblue" points="133.76,-27.63 126.86,-19.59 127.24,-30.18 133.76,-27.63"/>
</g>
<!-- Node4 -->
<g id="node4" class="node">
<title>Node4</title>
<g id="a_node4"><a xlink:href="_comp_kernel_8h.html" target="_top" xlink:title=" ">
<polygon fill="white" stroke="black" points="17,-56.5 17,-75.5 102,-75.5 102,-56.5 17,-56.5"/>
<text text-anchor="middle" x="59.5" y="-63.5" font-family="Helvetica,sans-Serif" font-size="10.00">CompKernel.h</text>
</a>
</g>
</g>
<!-- Node1&#45;&gt;Node4 -->
<g id="edge3" class="edge">
<title>Node1&#45;&gt;Node4</title>
<path fill="none" stroke="midnightblue" d="M149.31,-112.32C132.15,-103.66 105.55,-90.24 85.75,-80.25"/>
<polygon fill="midnightblue" stroke="midnightblue" points="87.15,-77.04 76.65,-75.65 84,-83.28 87.15,-77.04"/>
</g>
<!-- Node5 -->
<g id="node5" class="node">
<title>Node5</title>
<g id="a_node5"><a xlink:href="_model_factory_8h.html" target="_top" xlink:title=" ">
<polygon fill="white" stroke="black" points="159,-56.5 159,-75.5 248,-75.5 248,-56.5 159,-56.5"/>
<text text-anchor="middle" x="203.5" y="-63.5" font-family="Helvetica,sans-Serif" font-size="10.00">ModelFactory.h</text>
</a>
</g>
</g>
<!-- Node1&#45;&gt;Node5 -->
<g id="edge5" class="edge">
<title>Node1&#45;&gt;Node5</title>
<path fill="none" stroke="midnightblue" d="M172.61,-112.08C177.78,-104.53 185.35,-93.49 191.69,-84.23"/>
<polygon fill="midnightblue" stroke="midnightblue" points="194.74,-85.98 197.5,-75.75 188.96,-82.02 194.74,-85.98"/>
</g>
<!-- Node6 -->
<g id="node6" class="node">
<title>Node6</title>
<g id="a_node6"><a xlink:href="_arguments_dict_8h.html" target="_top" xlink:title=" ">
<polygon fill="white" stroke="black" points="278.5,-56.5 278.5,-75.5 376.5,-75.5 376.5,-56.5 278.5,-56.5"/>
<text text-anchor="middle" x="327.5" y="-63.5" font-family="Helvetica,sans-Serif" font-size="10.00">ArgumentsDict.h</text>
</a>
</g>
</g>
<!-- Node1&#45;&gt;Node6 -->
<g id="edge7" class="edge">
<title>Node1&#45;&gt;Node6</title>
<path fill="none" stroke="midnightblue" d="M192.01,-112.44C219.1,-103.36 262.09,-88.94 292.37,-78.78"/>
<polygon fill="midnightblue" stroke="midnightblue" points="293.74,-82.01 302.11,-75.52 291.51,-75.38 293.74,-82.01"/>
</g>
<!-- Node10 -->
<g id="node10" class="node">
<title>Node10</title>
<g id="a_node10"><a xlink:title=" ">
<polygon fill="white" stroke="#bfbfbf" points="484,-0.5 484,-19.5 635,-19.5 635,-0.5 484,-0.5"/>
<text text-anchor="middle" x="559.5" y="-7.5" font-family="Helvetica,sans-Serif" font-size="10.00">xtensor&#45;python/pyarray.hpp</text>
</a>
</g>
</g>
<!-- Node1&#45;&gt;Node10 -->
<g id="edge13" class="edge">
<title>Node1&#45;&gt;Node10</title>
<path fill="none" stroke="midnightblue" d="M197.69,-116.16C240.51,-109.15 319.66,-94.94 385.5,-76 437.54,-61.03 496.18,-37.73 530.36,-23.47"/>
<polygon fill="midnightblue" stroke="midnightblue" points="531.88,-26.63 539.74,-19.53 529.17,-20.18 531.88,-26.63"/>
</g>
<!-- Node4&#45;&gt;Node2 -->
<g id="edge4" class="edge">
<title>Node4&#45;&gt;Node2</title>
<path fill="none" stroke="midnightblue" d="M53.56,-56.08C48.52,-48.53 41.16,-37.49 34.99,-28.23"/>
<polygon fill="midnightblue" stroke="midnightblue" points="37.79,-26.13 29.33,-19.75 31.97,-30.01 37.79,-26.13"/>
</g>
<!-- Node5&#45;&gt;Node3 -->
<g id="edge6" class="edge">
<title>Node5&#45;&gt;Node3</title>
<path fill="none" stroke="midnightblue" d="M190.65,-56.32C178.28,-47.98 159.37,-35.21 144.76,-25.35"/>
<polygon fill="midnightblue" stroke="midnightblue" points="146.57,-22.35 136.32,-19.65 142.65,-28.15 146.57,-22.35"/>
</g>
<!-- Node7 -->
<g id="node7" class="node">
<title>Node7</title>
<g id="a_node7"><a xlink:title=" ">
<polygon fill="white" stroke="#bfbfbf" points="171.5,-0.5 171.5,-19.5 209.5,-19.5 209.5,-0.5 171.5,-0.5"/>
<text text-anchor="middle" x="190.5" y="-7.5" font-family="Helvetica,sans-Serif" font-size="10.00">map</text>
</a>
</g>
</g>
<!-- Node6&#45;&gt;Node7 -->
<g id="edge8" class="edge">
<title>Node6&#45;&gt;Node7</title>
<path fill="none" stroke="midnightblue" d="M305.79,-56.44C282.48,-47.25 245.32,-32.61 219.51,-22.43"/>
<polygon fill="midnightblue" stroke="midnightblue" points="220.48,-19.05 209.89,-18.64 217.91,-25.57 220.48,-19.05"/>
</g>
<!-- Node8 -->
<g id="node8" class="node">
<title>Node8</title>
<g id="a_node8"><a xlink:title=" ">
<polygon fill="white" stroke="#bfbfbf" points="228,-0.5 228,-19.5 293,-19.5 293,-0.5 228,-0.5"/>
<text text-anchor="middle" x="260.5" y="-7.5" font-family="Helvetica,sans-Serif" font-size="10.00">stdexcept</text>
</a>
</g>
</g>
<!-- Node6&#45;&gt;Node8 -->
<g id="edge9" class="edge">
<title>Node6&#45;&gt;Node8</title>
<path fill="none" stroke="midnightblue" d="M316.74,-56.32C306.73,-48.26 291.61,-36.08 279.57,-26.37"/>
<polygon fill="midnightblue" stroke="midnightblue" points="281.44,-23.38 271.46,-19.83 277.05,-28.83 281.44,-23.38"/>
</g>
<!-- Node9 -->
<g id="node9" class="node">
<title>Node9</title>
<g id="a_node9"><a xlink:title=" ">
<polygon fill="white" stroke="#bfbfbf" points="311.5,-0.5 311.5,-19.5 355.5,-19.5 355.5,-0.5 311.5,-0.5"/>
<text text-anchor="middle" x="333.5" y="-7.5" font-family="Helvetica,sans-Serif" font-size="10.00">string</text>
</a>
</g>
</g>
<!-- Node6&#45;&gt;Node9 -->
<g id="edge10" class="edge">
<title>Node6&#45;&gt;Node9</title>
<path fill="none" stroke="midnightblue" d="M328.49,-56.08C329.29,-48.93 330.43,-38.64 331.42,-29.69"/>
<polygon fill="midnightblue" stroke="midnightblue" points="334.9,-30.08 332.53,-19.75 327.94,-29.3 334.9,-30.08"/>
</g>
<!-- Node6&#45;&gt;Node10 -->
<g id="edge11" class="edge">
<title>Node6&#45;&gt;Node10</title>
<path fill="none" stroke="midnightblue" d="M364.26,-56.44C404.56,-47.06 469.31,-31.99 513.08,-21.8"/>
<polygon fill="midnightblue" stroke="midnightblue" points="513.96,-25.19 522.91,-19.52 512.38,-18.37 513.96,-25.19"/>
</g>
<!-- Node11 -->
<g id="node11" class="node">
<title>Node11</title>
<g id="a_node11"><a xlink:title=" ">
<polygon fill="white" stroke="#bfbfbf" points="373.5,-0.5 373.5,-19.5 465.5,-19.5 465.5,-0.5 373.5,-0.5"/>
<text text-anchor="middle" x="419.5" y="-7.5" font-family="Helvetica,sans-Serif" font-size="10.00">xtensor/xio.hpp</text>
</a>
</g>
</g>
<!-- Node6&#45;&gt;Node11 -->
<g id="edge12" class="edge">
<title>Node6&#45;&gt;Node11</title>
<path fill="none" stroke="midnightblue" d="M342.28,-56.32C356.77,-47.82 379.07,-34.73 395.99,-24.8"/>
<polygon fill="midnightblue" stroke="midnightblue" points="397.9,-27.74 404.76,-19.65 394.36,-21.7 397.9,-27.74"/>
</g>
</g>
</svg>
