<?xml version="1.0" encoding="UTF-8" standalone="no"?>
<!DOCTYPE svg PUBLIC "-//W3C//DTD SVG 1.1//EN"
 "http://www.w3.org/Graphics/SVG/1.1/DTD/svg11.dtd">
<!-- Generated by graphviz version 2.40.1 (20161225.0304)
 -->
<!-- Title: NCLS3P.h Pages: 1 -->
<svg width="597pt" height="140pt"
 viewBox="0.00 0.00 596.50 140.00" xmlns="http://www.w3.org/2000/svg" xmlns:xlink="http://www.w3.org/1999/xlink">
<g id="graph0" class="graph" transform="scale(1 1) rotate(0) translate(4 136)">
<title>NCLS3P.h</title>
<polygon fill="#ffffff" stroke="transparent" points="-4,4 -4,-136 592.5,-136 592.5,4 -4,4"/>
<!-- Node0 -->
<g id="node1" class="node">
<title>Node0</title>
<polygon fill="#bfbfbf" stroke="#000000" points="127,-112.5 127,-131.5 191,-131.5 191,-112.5 127,-112.5"/>
<text text-anchor="middle" x="159" y="-119.5" font-family="Helvetica,sans-Serif" font-size="10.00" fill="#000000">NCLS3P.h</text>
</g>
<!-- Node1 -->
<g id="node2" class="node">
<title>Node1</title>
<polygon fill="#ffffff" stroke="#bfbfbf" points="0,-.5 0,-19.5 44,-19.5 44,-.5 0,-.5"/>
<text text-anchor="middle" x="22" y="-7.5" font-family="Helvetica,sans-Serif" font-size="10.00" fill="#000000">cmath</text>
</g>
<!-- Node0&#45;&gt;Node1 -->
<g id="edge1" class="edge">
<title>Node0&#45;&gt;Node1</title>
<path fill="none" stroke="#191970" d="M126.9513,-116.8553C86.7525,-109.6726 21.3362,-95.3169 7,-76 -3.2417,-62.2001 3.1141,-42.6272 10.4461,-28.3812"/>
<polygon fill="#191970" stroke="#191970" points="13.5914,-29.9302 15.486,-19.5061 7.5044,-26.4735 13.5914,-29.9302"/>
</g>
<!-- Node2 -->
<g id="node3" class="node">
<title>Node2</title>
<polygon fill="#ffffff" stroke="#bfbfbf" points="91,-.5 91,-19.5 145,-19.5 145,-.5 91,-.5"/>
<text text-anchor="middle" x="118" y="-7.5" font-family="Helvetica,sans-Serif" font-size="10.00" fill="#000000">iostream</text>
</g>
<!-- Node0&#45;&gt;Node2 -->
<g id="edge2" class="edge">
<title>Node0&#45;&gt;Node2</title>
<path fill="none" stroke="#191970" d="M155.5044,-112.4509C148.7568,-94.0186 133.8236,-53.2254 124.9711,-29.043"/>
<polygon fill="#191970" stroke="#191970" points="128.2112,-27.7123 121.4868,-19.5249 121.6378,-30.1187 128.2112,-27.7123"/>
</g>
<!-- Node3 -->
<g id="node4" class="node">
<title>Node3</title>
<g id="a_node4"><a xlink:href="_comp_kernel_8h.html" target="_top" xlink:title="CompKernel.h">
<polygon fill="#ffffff" stroke="#000000" points="16.5,-56.5 16.5,-75.5 95.5,-75.5 95.5,-56.5 16.5,-56.5"/>
<text text-anchor="middle" x="56" y="-63.5" font-family="Helvetica,sans-Serif" font-size="10.00" fill="#000000">CompKernel.h</text>
</a>
</g>
</g>
<!-- Node0&#45;&gt;Node3 -->
<g id="edge3" class="edge">
<title>Node0&#45;&gt;Node3</title>
<path fill="none" stroke="#191970" d="M141.0588,-112.2455C124.96,-103.4928 101.1121,-90.527 82.7609,-80.5496"/>
<polygon fill="#191970" stroke="#191970" points="84.1929,-77.3444 73.7356,-75.6427 80.8493,-83.4942 84.1929,-77.3444"/>
</g>
<!-- Node4 -->
<g id="node5" class="node">
<title>Node4</title>
<g id="a_node5"><a xlink:href="_model_factory_8h.html" target="_top" xlink:title="ModelFactory.h">
<polygon fill="#ffffff" stroke="#000000" points="152,-56.5 152,-75.5 236,-75.5 236,-56.5 152,-56.5"/>
<text text-anchor="middle" x="194" y="-63.5" font-family="Helvetica,sans-Serif" font-size="10.00" fill="#000000">ModelFactory.h</text>
</a>
</g>
</g>
<!-- Node0&#45;&gt;Node4 -->
<g id="edge5" class="edge">
<title>Node0&#45;&gt;Node4</title>
<path fill="none" stroke="#191970" d="M165.0965,-112.2455C169.9145,-104.5367 176.7751,-93.5598 182.6032,-84.2348"/>
<polygon fill="#191970" stroke="#191970" points="185.6413,-85.9777 187.9733,-75.6427 179.7053,-82.2677 185.6413,-85.9777"/>
</g>
<!-- Node5 -->
<g id="node6" class="node">
<title>Node5</title>
<g id="a_node6"><a xlink:href="_arguments_dict_8h.html" target="_top" xlink:title="ArgumentsDict.h">
<polygon fill="#ffffff" stroke="#000000" points="264,-56.5 264,-75.5 354,-75.5 354,-56.5 264,-56.5"/>
<text text-anchor="middle" x="309" y="-63.5" font-family="Helvetica,sans-Serif" font-size="10.00" fill="#000000">ArgumentsDict.h</text>
</a>
</g>
</g>
<!-- Node0&#45;&gt;Node5 -->
<g id="edge7" class="edge">
<title>Node0&#45;&gt;Node5</title>
<path fill="none" stroke="#191970" d="M184.7859,-112.3733C209.4047,-103.1822 246.69,-89.2624 273.9875,-79.0713"/>
<polygon fill="#191970" stroke="#191970" points="275.4063,-82.2777 283.5506,-75.5011 272.958,-75.7198 275.4063,-82.2777"/>
</g>
<!-- Node9 -->
<g id="node10" class="node">
<title>Node9</title>
<polygon fill="#ffffff" stroke="#bfbfbf" points="453.5,-.5 453.5,-19.5 588.5,-19.5 588.5,-.5 453.5,-.5"/>
<text text-anchor="middle" x="521" y="-7.5" font-family="Helvetica,sans-Serif" font-size="10.00" fill="#000000">xtensor&#45;python/pyarray.hpp</text>
</g>
<!-- Node0&#45;&gt;Node9 -->
<g id="edge13" class="edge">
<title>Node0&#45;&gt;Node9</title>
<path fill="none" stroke="#191970" d="M191.2615,-116.521C231.8685,-109.2172 303.5064,-94.9745 363,-76 409.0011,-61.3287 460.2318,-38.7065 491.5388,-24.1282"/>
<polygon fill="#191970" stroke="#191970" points="493.4081,-27.1172 500.9715,-19.6979 490.4322,-20.7812 493.4081,-27.1172"/>
</g>
<!-- Node3&#45;&gt;Node1 -->
<g id="edge4" class="edge">
<title>Node3&#45;&gt;Node1</title>
<path fill="none" stroke="#191970" d="M50.0777,-56.2455C45.3973,-48.5367 38.7327,-37.5598 33.0711,-28.2348"/>
<polygon fill="#191970" stroke="#191970" points="36.0361,-26.3741 27.8545,-19.6427 30.0525,-30.007 36.0361,-26.3741"/>
</g>
<!-- Node4&#45;&gt;Node2 -->
<g id="edge6" class="edge">
<title>Node4&#45;&gt;Node2</title>
<path fill="none" stroke="#191970" d="M180.7618,-56.2455C169.319,-47.814 152.5704,-35.4729 139.2525,-25.6598"/>
<polygon fill="#191970" stroke="#191970" points="141.2133,-22.757 131.0865,-19.6427 137.0609,-28.3924 141.2133,-22.757"/>
</g>
<!-- Node6 -->
<g id="node7" class="node">
<title>Node6</title>
<polygon fill="#ffffff" stroke="#bfbfbf" points="163.5,-.5 163.5,-19.5 198.5,-19.5 198.5,-.5 163.5,-.5"/>
<text text-anchor="middle" x="181" y="-7.5" font-family="Helvetica,sans-Serif" font-size="10.00" fill="#000000">map</text>
</g>
<!-- Node5&#45;&gt;Node6 -->
<g id="edge8" class="edge">
<title>Node5&#45;&gt;Node6</title>
<path fill="none" stroke="#191970" d="M286.996,-56.3733C265.1057,-46.7962 231.4796,-32.0848 207.9889,-21.8077"/>
<polygon fill="#191970" stroke="#191970" points="209.1703,-18.5042 198.6058,-17.7026 206.3645,-24.9174 209.1703,-18.5042"/>
</g>
<!-- Node7 -->
<g id="node8" class="node">
<title>Node7</title>
<polygon fill="#ffffff" stroke="#bfbfbf" points="216.5,-.5 216.5,-19.5 275.5,-19.5 275.5,-.5 216.5,-.5"/>
<text text-anchor="middle" x="246" y="-7.5" font-family="Helvetica,sans-Serif" font-size="10.00" fill="#000000">stdexcept</text>
</g>
<!-- Node5&#45;&gt;Node7 -->
<g id="edge9" class="edge">
<title>Node5&#45;&gt;Node7</title>
<path fill="none" stroke="#191970" d="M298.0262,-56.2455C288.8118,-48.0549 275.4468,-36.1749 264.5703,-26.5069"/>
<polygon fill="#191970" stroke="#191970" points="266.6474,-23.6704 256.848,-19.6427 261.9968,-28.9023 266.6474,-23.6704"/>
</g>
<!-- Node8 -->
<g id="node9" class="node">
<title>Node8</title>
<polygon fill="#ffffff" stroke="#bfbfbf" points="293.5,-.5 293.5,-19.5 334.5,-19.5 334.5,-.5 293.5,-.5"/>
<text text-anchor="middle" x="314" y="-7.5" font-family="Helvetica,sans-Serif" font-size="10.00" fill="#000000">string</text>
</g>
<!-- Node5&#45;&gt;Node8 -->
<g id="edge10" class="edge">
<title>Node5&#45;&gt;Node8</title>
<path fill="none" stroke="#191970" d="M309.8709,-56.2455C310.5234,-48.9382 311.438,-38.6944 312.2407,-29.7046"/>
<polygon fill="#191970" stroke="#191970" points="315.7358,-29.9143 313.139,-19.6427 308.7635,-29.2918 315.7358,-29.9143"/>
</g>
<!-- Node5&#45;&gt;Node9 -->
<g id="edge11" class="edge">
<title>Node5&#45;&gt;Node9</title>
<path fill="none" stroke="#191970" d="M345.4441,-56.3733C381.3069,-46.9001 436.1878,-32.4032 475.0282,-22.1435"/>
<polygon fill="#191970" stroke="#191970" points="476.257,-25.439 485.0315,-19.5011 474.4692,-18.6712 476.257,-25.439"/>
</g>
<!-- Node10 -->
<g id="node11" class="node">
<title>Node10</title>
<polygon fill="#ffffff" stroke="#bfbfbf" points="352.5,-.5 352.5,-19.5 435.5,-19.5 435.5,-.5 352.5,-.5"/>
<text text-anchor="middle" x="394" y="-7.5" font-family="Helvetica,sans-Serif" font-size="10.00" fill="#000000">xtensor/xio.hpp</text>
</g>
<!-- Node5&#45;&gt;Node10 -->
<g id="edge12" class="edge">
<title>Node5&#45;&gt;Node10</title>
<path fill="none" stroke="#191970" d="M323.8059,-56.2455C336.7256,-47.7337 355.6931,-35.2375 370.6552,-25.3801"/>
<polygon fill="#191970" stroke="#191970" points="372.9387,-28.067 379.3638,-19.6427 369.0876,-22.2216 372.9387,-28.067"/>
</g>
</g>
</svg>
