<?xml version="1.0" encoding="UTF-8" standalone="no"?>
<!DOCTYPE svg PUBLIC "-//W3C//DTD SVG 1.1//EN"
 "http://www.w3.org/Graphics/SVG/1.1/DTD/svg11.dtd">
<!-- Generated by graphviz version 2.40.1 (20161225.0304)
 -->
<!-- Title: NCLS.cpp Pages: 1 -->
<svg width="727pt" height="196pt"
 viewBox="0.00 0.00 726.50 196.00" xmlns="http://www.w3.org/2000/svg" xmlns:xlink="http://www.w3.org/1999/xlink">
<g id="graph0" class="graph" transform="scale(1 1) rotate(0) translate(4 192)">
<title>NCLS.cpp</title>
<polygon fill="#ffffff" stroke="transparent" points="-4,4 -4,-192 722.5,-192 722.5,4 -4,4"/>
<!-- Node0 -->
<g id="node1" class="node">
<title>Node0</title>
<polygon fill="#bfbfbf" stroke="#000000" points="144,-168.5 144,-187.5 206,-187.5 206,-168.5 144,-168.5"/>
<text text-anchor="middle" x="175" y="-175.5" font-family="Helvetica,sans-Serif" font-size="10.00" fill="#000000">NCLS.cpp</text>
</g>
<!-- Node1 -->
<g id="node2" class="node">
<title>Node1</title>
<polygon fill="#ffffff" stroke="#bfbfbf" points="0,-112.5 0,-131.5 106,-131.5 106,-112.5 0,-112.5"/>
<text text-anchor="middle" x="53" y="-119.5" font-family="Helvetica,sans-Serif" font-size="10.00" fill="#000000">pybind11/pybind11.h</text>
</g>
<!-- Node0&#45;&gt;Node1 -->
<g id="edge1" class="edge">
<title>Node0&#45;&gt;Node1</title>
<path fill="none" stroke="#191970" d="M154.0275,-168.3733C134.4433,-159.3838 105.0039,-145.8706 82.949,-135.7471"/>
<polygon fill="#191970" stroke="#191970" points="84.2473,-132.4919 73.6989,-131.5011 81.3271,-138.8538 84.2473,-132.4919"/>
</g>
<!-- Node2 -->
<g id="node3" class="node">
<title>Node2</title>
<polygon fill="#ffffff" stroke="#bfbfbf" points="124.5,-112.5 124.5,-131.5 225.5,-131.5 225.5,-112.5 124.5,-112.5"/>
<text text-anchor="middle" x="175" y="-119.5" font-family="Helvetica,sans-Serif" font-size="10.00" fill="#000000">pybind11/stl_bind.h</text>
</g>
<!-- Node0&#45;&gt;Node2 -->
<g id="edge2" class="edge">
<title>Node0&#45;&gt;Node2</title>
<path fill="none" stroke="#191970" d="M175,-168.2455C175,-160.9382 175,-150.6944 175,-141.7046"/>
<polygon fill="#191970" stroke="#191970" points="178.5001,-141.6426 175,-131.6427 171.5001,-141.6427 178.5001,-141.6426"/>
</g>
<!-- Node3 -->
<g id="node4" class="node">
<title>Node3</title>
<g id="a_node4"><a xlink:href="_n_c_l_s_8h.html" target="_top" xlink:title="NCLS.h">
<polygon fill="#ffffff" stroke="#000000" points="244,-112.5 244,-131.5 296,-131.5 296,-112.5 244,-112.5"/>
<text text-anchor="middle" x="270" y="-119.5" font-family="Helvetica,sans-Serif" font-size="10.00" fill="#000000">NCLS.h</text>
</a>
</g>
</g>
<!-- Node0&#45;&gt;Node3 -->
<g id="edge3" class="edge">
<title>Node0&#45;&gt;Node3</title>
<path fill="none" stroke="#191970" d="M191.5477,-168.2455C206.2599,-159.5731 227.9888,-146.7645 244.8505,-136.825"/>
<polygon fill="#191970" stroke="#191970" points="246.8046,-139.736 253.6419,-131.6427 243.2498,-133.7057 246.8046,-139.736"/>
</g>
<!-- Node4 -->
<g id="node5" class="node">
<title>Node4</title>
<polygon fill="#ffffff" stroke="#bfbfbf" points="45,-.5 45,-19.5 89,-19.5 89,-.5 45,-.5"/>
<text text-anchor="middle" x="67" y="-7.5" font-family="Helvetica,sans-Serif" font-size="10.00" fill="#000000">cmath</text>
</g>
<!-- Node3&#45;&gt;Node4 -->
<g id="edge4" class="edge">
<title>Node3&#45;&gt;Node4</title>
<path fill="none" stroke="#191970" d="M243.7134,-114.4508C240.4518,-113.5873 237.1556,-112.7492 234,-112 153.7742,-92.9519 104.3436,-139.7115 52,-76 41.0908,-62.7215 47.5417,-43.0742 55.078,-28.6687"/>
<polygon fill="#191970" stroke="#191970" points="58.3009,-30.0863 60.2688,-19.6758 52.2384,-26.5869 58.3009,-30.0863"/>
</g>
<!-- Node5 -->
<g id="node6" class="node">
<title>Node5</title>
<polygon fill="#ffffff" stroke="#bfbfbf" points="221,-.5 221,-19.5 275,-19.5 275,-.5 221,-.5"/>
<text text-anchor="middle" x="248" y="-7.5" font-family="Helvetica,sans-Serif" font-size="10.00" fill="#000000">iostream</text>
</g>
<!-- Node3&#45;&gt;Node5 -->
<g id="edge5" class="edge">
<title>Node3&#45;&gt;Node5</title>
<path fill="none" stroke="#191970" d="M286.7564,-112.3889C305.875,-100.1041 333.0338,-77.8067 321,-56 313.0442,-41.5833 298.4617,-31.0661 284.4099,-23.7578"/>
<polygon fill="#191970" stroke="#191970" points="285.8586,-20.5709 275.3276,-19.4097 282.836,-26.8847 285.8586,-20.5709"/>
</g>
<!-- Node6 -->
<g id="node7" class="node">
<title>Node6</title>
<polygon fill="#ffffff" stroke="#bfbfbf" points="158.5,-56.5 158.5,-75.5 209.5,-75.5 209.5,-56.5 158.5,-56.5"/>
<text text-anchor="middle" x="184" y="-63.5" font-family="Helvetica,sans-Serif" font-size="10.00" fill="#000000">valarray</text>
</g>
<!-- Node3&#45;&gt;Node6 -->
<g id="edge6" class="edge">
<title>Node3&#45;&gt;Node6</title>
<path fill="none" stroke="#191970" d="M255.0199,-112.2455C241.8249,-103.6534 222.3949,-91.0014 207.1921,-81.1018"/>
<polygon fill="#191970" stroke="#191970" points="209.0983,-78.1665 198.8084,-75.6427 205.2785,-84.0325 209.0983,-78.1665"/>
</g>
<!-- Node7 -->
<g id="node8" class="node">
<title>Node7</title>
<g id="a_node8"><a xlink:href="_comp_kernel_8h.html" target="_top" xlink:title="CompKernel.h">
<polygon fill="#ffffff" stroke="#000000" points="61.5,-56.5 61.5,-75.5 140.5,-75.5 140.5,-56.5 61.5,-56.5"/>
<text text-anchor="middle" x="101" y="-63.5" font-family="Helvetica,sans-Serif" font-size="10.00" fill="#000000">CompKernel.h</text>
</a>
</g>
</g>
<!-- Node3&#45;&gt;Node7 -->
<g id="edge7" class="edge">
<title>Node3&#45;&gt;Node7</title>
<path fill="none" stroke="#191970" d="M243.9641,-113.3727C216.1428,-104.1538 171.7366,-89.4393 139.7944,-78.8549"/>
<polygon fill="#191970" stroke="#191970" points="140.4917,-75.3989 129.8983,-75.5758 138.2898,-82.0436 140.4917,-75.3989"/>
</g>
<!-- Node8 -->
<g id="node9" class="node">
<title>Node8</title>
<g id="a_node9"><a xlink:href="_model_factory_8h.html" target="_top" xlink:title="ModelFactory.h">
<polygon fill="#ffffff" stroke="#000000" points="228,-56.5 228,-75.5 312,-75.5 312,-56.5 228,-56.5"/>
<text text-anchor="middle" x="270" y="-63.5" font-family="Helvetica,sans-Serif" font-size="10.00" fill="#000000">ModelFactory.h</text>
</a>
</g>
</g>
<!-- Node3&#45;&gt;Node8 -->
<g id="edge9" class="edge">
<title>Node3&#45;&gt;Node8</title>
<path fill="none" stroke="#191970" d="M270,-112.2455C270,-104.9382 270,-94.6944 270,-85.7046"/>
<polygon fill="#191970" stroke="#191970" points="273.5001,-85.6426 270,-75.6427 266.5001,-85.6427 273.5001,-85.6426"/>
</g>
<!-- Node9 -->
<g id="node10" class="node">
<title>Node9</title>
<g id="a_node10"><a xlink:href="_arguments_dict_8h.html" target="_top" xlink:title="ArgumentsDict.h">
<polygon fill="#ffffff" stroke="#000000" points="411,-56.5 411,-75.5 501,-75.5 501,-56.5 411,-56.5"/>
<text text-anchor="middle" x="456" y="-63.5" font-family="Helvetica,sans-Serif" font-size="10.00" fill="#000000">ArgumentsDict.h</text>
</a>
</g>
</g>
<!-- Node3&#45;&gt;Node9 -->
<g id="edge11" class="edge">
<title>Node3&#45;&gt;Node9</title>
<path fill="none" stroke="#191970" d="M296.2548,-114.0953C327.0099,-104.8357 378.3481,-89.3791 414.5092,-78.4918"/>
<polygon fill="#191970" stroke="#191970" points="415.71,-81.7856 424.2764,-75.5512 413.6919,-75.0828 415.71,-81.7856"/>
</g>
<!-- Node13 -->
<g id="node14" class="node">
<title>Node13</title>
<polygon fill="#ffffff" stroke="#bfbfbf" points="583.5,-.5 583.5,-19.5 718.5,-19.5 718.5,-.5 583.5,-.5"/>
<text text-anchor="middle" x="651" y="-7.5" font-family="Helvetica,sans-Serif" font-size="10.00" fill="#000000">xtensor&#45;python/pyarray.hpp</text>
</g>
<!-- Node3&#45;&gt;Node13 -->
<g id="edge17" class="edge">
<title>Node3&#45;&gt;Node13</title>
<path fill="none" stroke="#191970" d="M296.1017,-119.1525C340.7598,-113.8078 434.332,-100.5376 510,-76 551.8574,-62.4265 597.5019,-39.4243 625.1878,-24.4755"/>
<polygon fill="#191970" stroke="#191970" points="627.0995,-27.4194 634.1961,-19.5524 623.7425,-21.2768 627.0995,-27.4194"/>
</g>
<!-- Node7&#45;&gt;Node4 -->
<g id="edge8" class="edge">
<title>Node7&#45;&gt;Node4</title>
<path fill="none" stroke="#191970" d="M95.0777,-56.2455C90.3973,-48.5367 83.7327,-37.5598 78.0711,-28.2348"/>
<polygon fill="#191970" stroke="#191970" points="81.0361,-26.3741 72.8545,-19.6427 75.0525,-30.007 81.0361,-26.3741"/>
</g>
<!-- Node8&#45;&gt;Node5 -->
<g id="edge10" class="edge">
<title>Node8&#45;&gt;Node5</title>
<path fill="none" stroke="#191970" d="M266.1679,-56.2455C263.2341,-48.7776 259.0953,-38.2427 255.509,-29.1137"/>
<polygon fill="#191970" stroke="#191970" points="258.7024,-27.6704 251.7882,-19.6427 252.1871,-30.23 258.7024,-27.6704"/>
</g>
<!-- Node10 -->
<g id="node11" class="node">
<title>Node10</title>
<polygon fill="#ffffff" stroke="#bfbfbf" points="394.5,-.5 394.5,-19.5 429.5,-19.5 429.5,-.5 394.5,-.5"/>
<text text-anchor="middle" x="412" y="-7.5" font-family="Helvetica,sans-Serif" font-size="10.00" fill="#000000">map</text>
</g>
<!-- Node9&#45;&gt;Node10 -->
<g id="edge12" class="edge">
<title>Node9&#45;&gt;Node10</title>
<path fill="none" stroke="#191970" d="M448.3358,-56.2455C442.1527,-48.3761 433.2937,-37.101 425.8711,-27.6542"/>
<polygon fill="#191970" stroke="#191970" points="428.5068,-25.3435 419.5764,-19.6427 423.0025,-29.6683 428.5068,-25.3435"/>
</g>
<!-- Node11 -->
<g id="node12" class="node">
<title>Node11</title>
<polygon fill="#ffffff" stroke="#bfbfbf" points="447.5,-.5 447.5,-19.5 506.5,-19.5 506.5,-.5 447.5,-.5"/>
<text text-anchor="middle" x="477" y="-7.5" font-family="Helvetica,sans-Serif" font-size="10.00" fill="#000000">stdexcept</text>
</g>
<!-- Node9&#45;&gt;Node11 -->
<g id="edge13" class="edge">
<title>Node9&#45;&gt;Node11</title>
<path fill="none" stroke="#191970" d="M459.6579,-56.2455C462.4584,-48.7776 466.409,-38.2427 469.8324,-29.1137"/>
<polygon fill="#191970" stroke="#191970" points="473.1499,-30.2349 473.384,-19.6427 466.5955,-27.777 473.1499,-30.2349"/>
</g>
<!-- Node12 -->
<g id="node13" class="node">
<title>Node12</title>
<polygon fill="#ffffff" stroke="#bfbfbf" points="524.5,-.5 524.5,-19.5 565.5,-19.5 565.5,-.5 524.5,-.5"/>
<text text-anchor="middle" x="545" y="-7.5" font-family="Helvetica,sans-Serif" font-size="10.00" fill="#000000">string</text>
</g>
<!-- Node9&#45;&gt;Node12 -->
<g id="edge14" class="edge">
<title>Node9&#45;&gt;Node12</title>
<path fill="none" stroke="#191970" d="M471.5026,-56.2455C485.158,-47.6534 505.2657,-35.0014 520.9989,-25.1018"/>
<polygon fill="#191970" stroke="#191970" points="523.0751,-27.9307 529.675,-19.6427 519.3471,-22.006 523.0751,-27.9307"/>
</g>
<!-- Node9&#45;&gt;Node13 -->
<g id="edge15" class="edge">
<title>Node9&#45;&gt;Node13</title>
<path fill="none" stroke="#191970" d="M489.5217,-56.3733C522.3683,-46.9404 572.5595,-32.5265 608.2578,-22.2747"/>
<polygon fill="#191970" stroke="#191970" points="609.2703,-25.6255 617.9157,-19.5011 607.3381,-18.8974 609.2703,-25.6255"/>
</g>
<!-- Node14 -->
<g id="node15" class="node">
<title>Node14</title>
<polygon fill="#ffffff" stroke="#bfbfbf" points="293.5,-.5 293.5,-19.5 376.5,-19.5 376.5,-.5 293.5,-.5"/>
<text text-anchor="middle" x="335" y="-7.5" font-family="Helvetica,sans-Serif" font-size="10.00" fill="#000000">xtensor/xio.hpp</text>
</g>
<!-- Node9&#45;&gt;Node14 -->
<g id="edge16" class="edge">
<title>Node9&#45;&gt;Node14</title>
<path fill="none" stroke="#191970" d="M435.1994,-56.3733C415.7757,-47.3838 386.5776,-33.8706 364.7036,-23.7471"/>
<polygon fill="#191970" stroke="#191970" points="366.0745,-20.5249 355.5292,-19.5011 363.1344,-26.8776 366.0745,-20.5249"/>
</g>
</g>
</svg>
