<?xml version="1.0" encoding="UTF-8" standalone="no"?>
<!DOCTYPE svg PUBLIC "-//W3C//DTD SVG 1.1//EN"
 "http://www.w3.org/Graphics/SVG/1.1/DTD/svg11.dtd">
<!-- Generated by graphviz version 2.44.1 (20200629.0846)
 -->
<!-- Title: NCLS.cpp Pages: 1 -->
<svg width="569pt" height="196pt"
 viewBox="0.00 0.00 569.00 196.00" xmlns="http://www.w3.org/2000/svg" xmlns:xlink="http://www.w3.org/1999/xlink">
<g id="graph0" class="graph" transform="scale(1 1) rotate(0) translate(4 192)">
<title>NCLS.cpp</title>
<polygon fill="white" stroke="transparent" points="-4,4 -4,-192 565,-192 565,4 -4,4"/>
<!-- Node1 -->
<g id="node1" class="node">
<title>Node1</title>
<g id="a_node1"><a xlink:title=" ">
<polygon fill="#bfbfbf" stroke="black" points="144,-168.5 144,-187.5 206,-187.5 206,-168.5 144,-168.5"/>
<text text-anchor="middle" x="175" y="-175.5" font-family="Helvetica,sans-Serif" font-size="10.00">NCLS.cpp</text>
</a>
</g>
</g>
<!-- Node2 -->
<g id="node2" class="node">
<title>Node2</title>
<g id="a_node2"><a xlink:title=" ">
<polygon fill="white" stroke="#bfbfbf" points="0,-112.5 0,-131.5 106,-131.5 106,-112.5 0,-112.5"/>
<text text-anchor="middle" x="53" y="-119.5" font-family="Helvetica,sans-Serif" font-size="10.00">pybind11/pybind11.h</text>
</a>
</g>
</g>
<!-- Node1&#45;&gt;Node2 -->
<g id="edge1" class="edge">
<title>Node1&#45;&gt;Node2</title>
<path fill="none" stroke="midnightblue" d="M155.67,-168.44C135.68,-159.6 104.26,-145.69 81.44,-135.59"/>
<polygon fill="midnightblue" stroke="midnightblue" points="82.8,-132.36 72.24,-131.52 79.97,-138.76 82.8,-132.36"/>
</g>
<!-- Node3 -->
<g id="node3" class="node">
<title>Node3</title>
<g id="a_node3"><a xlink:title=" ">
<polygon fill="white" stroke="#bfbfbf" points="124.5,-112.5 124.5,-131.5 225.5,-131.5 225.5,-112.5 124.5,-112.5"/>
<text text-anchor="middle" x="175" y="-119.5" font-family="Helvetica,sans-Serif" font-size="10.00">pybind11/stl_bind.h</text>
</a>
</g>
</g>
<!-- Node1&#45;&gt;Node3 -->
<g id="edge2" class="edge">
<title>Node1&#45;&gt;Node3</title>
<path fill="none" stroke="midnightblue" d="M175,-168.08C175,-161.01 175,-150.86 175,-141.99"/>
<polygon fill="midnightblue" stroke="midnightblue" points="178.5,-141.75 175,-131.75 171.5,-141.75 178.5,-141.75"/>
</g>
<!-- Node4 -->
<g id="node4" class="node">
<title>Node4</title>
<g id="a_node4"><a xlink:href="_n_c_l_s_8h.html" target="_top" xlink:title=" ">
<polygon fill="white" stroke="black" points="244,-112.5 244,-131.5 296,-131.5 296,-112.5 244,-112.5"/>
<text text-anchor="middle" x="270" y="-119.5" font-family="Helvetica,sans-Serif" font-size="10.00">NCLS.h</text>
</a>
</g>
</g>
<!-- Node1&#45;&gt;Node4 -->
<g id="edge3" class="edge">
<title>Node1&#45;&gt;Node4</title>
<path fill="none" stroke="midnightblue" d="M190.26,-168.32C205.22,-159.82 228.25,-146.73 245.73,-136.8"/>
<polygon fill="midnightblue" stroke="midnightblue" points="247.81,-139.64 254.77,-131.65 244.35,-133.55 247.81,-139.64"/>
</g>
<!-- Node5 -->
<g id="node5" class="node">
<title>Node5</title>
<g id="a_node5"><a xlink:title=" ">
<polygon fill="white" stroke="#bfbfbf" points="133,-0.5 133,-19.5 177,-19.5 177,-0.5 133,-0.5"/>
<text text-anchor="middle" x="155" y="-7.5" font-family="Helvetica,sans-Serif" font-size="10.00">cmath</text>
</a>
</g>
</g>
<!-- Node4&#45;&gt;Node5 -->
<g id="edge4" class="edge">
<title>Node4&#45;&gt;Node5</title>
<path fill="none" stroke="midnightblue" d="M256.16,-112.45C243.06,-104.02 223.17,-90.34 208,-76 192.35,-61.21 177.1,-41.82 167,-28.08"/>
<polygon fill="midnightblue" stroke="midnightblue" points="169.58,-25.66 160.9,-19.59 163.9,-29.75 169.58,-25.66"/>
</g>
<!-- Node6 -->
<g id="node6" class="node">
<title>Node6</title>
<g id="a_node6"><a xlink:title=" ">
<polygon fill="white" stroke="#bfbfbf" points="305,-0.5 305,-19.5 359,-19.5 359,-0.5 305,-0.5"/>
<text text-anchor="middle" x="332" y="-7.5" font-family="Helvetica,sans-Serif" font-size="10.00">iostream</text>
</a>
</g>
</g>
<!-- Node4&#45;&gt;Node6 -->
<g id="edge5" class="edge">
<title>Node4&#45;&gt;Node6</title>
<path fill="none" stroke="midnightblue" d="M274.87,-112.37C285.05,-94.3 308.79,-52.18 322.24,-28.31"/>
<polygon fill="midnightblue" stroke="midnightblue" points="325.3,-30.02 327.16,-19.59 319.2,-26.58 325.3,-30.02"/>
</g>
<!-- Node7 -->
<g id="node7" class="node">
<title>Node7</title>
<g id="a_node7"><a xlink:title=" ">
<polygon fill="white" stroke="#bfbfbf" points="217.5,-56.5 217.5,-75.5 268.5,-75.5 268.5,-56.5 217.5,-56.5"/>
<text text-anchor="middle" x="243" y="-63.5" font-family="Helvetica,sans-Serif" font-size="10.00">valarray</text>
</a>
</g>
</g>
<!-- Node4&#45;&gt;Node7 -->
<g id="edge6" class="edge">
<title>Node4&#45;&gt;Node7</title>
<path fill="none" stroke="midnightblue" d="M265.54,-112.08C261.85,-104.69 256.48,-93.95 251.91,-84.81"/>
<polygon fill="midnightblue" stroke="midnightblue" points="254.98,-83.13 247.38,-75.75 248.72,-86.26 254.98,-83.13"/>
</g>
<!-- Node8 -->
<g id="node8" class="node">
<title>Node8</title>
<g id="a_node8"><a xlink:href="_comp_kernel_8h.html" target="_top" xlink:title=" ">
<polygon fill="white" stroke="black" points="81.5,-56.5 81.5,-75.5 160.5,-75.5 160.5,-56.5 81.5,-56.5"/>
<text text-anchor="middle" x="121" y="-63.5" font-family="Helvetica,sans-Serif" font-size="10.00">CompKernel.h</text>
</a>
</g>
</g>
<!-- Node4&#45;&gt;Node8 -->
<g id="edge7" class="edge">
<title>Node4&#45;&gt;Node8</title>
<path fill="none" stroke="midnightblue" d="M246.39,-112.44C221.54,-103.44 182.23,-89.19 154.25,-79.05"/>
<polygon fill="midnightblue" stroke="midnightblue" points="155.09,-75.63 144.5,-75.52 152.71,-82.21 155.09,-75.63"/>
</g>
<!-- Node9 -->
<g id="node9" class="node">
<title>Node9</title>
<g id="a_node9"><a xlink:href="_model_factory_8h.html" target="_top" xlink:title=" ">
<polygon fill="white" stroke="black" points="325.5,-56.5 325.5,-75.5 408.5,-75.5 408.5,-56.5 325.5,-56.5"/>
<text text-anchor="middle" x="367" y="-63.5" font-family="Helvetica,sans-Serif" font-size="10.00">ModelFactory.h</text>
</a>
</g>
</g>
<!-- Node4&#45;&gt;Node9 -->
<g id="edge9" class="edge">
<title>Node4&#45;&gt;Node9</title>
<path fill="none" stroke="midnightblue" d="M285.58,-112.32C301,-103.74 324.81,-90.49 342.71,-80.52"/>
<polygon fill="midnightblue" stroke="midnightblue" points="344.42,-83.58 351.45,-75.65 341.01,-77.46 344.42,-83.58"/>
</g>
<!-- Node10 -->
<g id="node10" class="node">
<title>Node10</title>
<g id="a_node10"><a xlink:title=" ">
<polygon fill="white" stroke="#bfbfbf" points="427,-56.5 427,-75.5 561,-75.5 561,-56.5 427,-56.5"/>
<text text-anchor="middle" x="494" y="-63.5" font-family="Helvetica,sans-Serif" font-size="10.00">xtensor&#45;python/pyarray.hpp</text>
</a>
</g>
</g>
<!-- Node4&#45;&gt;Node10 -->
<g id="edge11" class="edge">
<title>Node4&#45;&gt;Node10</title>
<path fill="none" stroke="midnightblue" d="M296.13,-114.7C333.47,-105.7 402.63,-89.03 448.48,-77.97"/>
<polygon fill="midnightblue" stroke="midnightblue" points="449.56,-81.31 458.46,-75.57 447.92,-74.51 449.56,-81.31"/>
</g>
<!-- Node8&#45;&gt;Node5 -->
<g id="edge8" class="edge">
<title>Node8&#45;&gt;Node5</title>
<path fill="none" stroke="midnightblue" d="M126.61,-56.08C131.37,-48.53 138.32,-37.49 144.15,-28.23"/>
<polygon fill="midnightblue" stroke="midnightblue" points="147.12,-30.08 149.49,-19.75 141.2,-26.35 147.12,-30.08"/>
</g>
<!-- Node9&#45;&gt;Node6 -->
<g id="edge10" class="edge">
<title>Node9&#45;&gt;Node6</title>
<path fill="none" stroke="midnightblue" d="M361.22,-56.08C356.33,-48.53 349.17,-37.49 343.17,-28.23"/>
<polygon fill="midnightblue" stroke="midnightblue" points="346.05,-26.24 337.67,-19.75 340.17,-30.05 346.05,-26.24"/>
</g>
</g>
</svg>
