<?xml version="1.0" encoding="UTF-8" standalone="no"?>
<!DOCTYPE svg PUBLIC "-//W3C//DTD SVG 1.1//EN"
 "http://www.w3.org/Graphics/SVG/1.1/DTD/svg11.dtd">
<!-- Generated by graphviz version 2.43.0 (0)
 -->
<!-- Title: ParallelMeshConverter.cpp Pages: 1 -->
<svg width="952pt" height="196pt"
 viewBox="0.00 0.00 952.00 196.00" xmlns="http://www.w3.org/2000/svg" xmlns:xlink="http://www.w3.org/1999/xlink">
<g id="graph0" class="graph" transform="scale(1 1) rotate(0) translate(4 192)">
<title>ParallelMeshConverter.cpp</title>
<polygon fill="white" stroke="transparent" points="-4,4 -4,-192 948,-192 948,4 -4,4"/>
<!-- Node1 -->
<g id="node1" class="node">
<title>Node1</title>
<g id="a_node1"><a xlink:title=" ">
<polygon fill="#bfbfbf" stroke="black" points="568,-168.5 568,-187.5 714,-187.5 714,-168.5 568,-168.5"/>
<text text-anchor="middle" x="641" y="-175.5" font-family="Helvetica,sans-Serif" font-size="10.00">ParallelMeshConverter.cpp</text>
</a>
</g>
</g>
<!-- Node2 -->
<g id="node2" class="node">
<title>Node2</title>
<g id="a_node2"><a xlink:title=" ">
<polygon fill="white" stroke="#bfbfbf" points="296,-0.5 296,-19.5 360,-19.5 360,-0.5 296,-0.5"/>
<text text-anchor="middle" x="328" y="-7.5" font-family="Helvetica,sans-Serif" font-size="10.00">algorithm</text>
</a>
</g>
</g>
<!-- Node1&#45;&gt;Node2 -->
<g id="edge1" class="edge">
<title>Node1&#45;&gt;Node2</title>
<path fill="none" stroke="midnightblue" d="M615.59,-168.42C595.1,-160.77 566.14,-148.28 544,-132 507.24,-104.97 513.52,-80.44 475,-56 457.49,-44.89 407.08,-30.69 370.15,-21.24"/>
<polygon fill="midnightblue" stroke="midnightblue" points="370.69,-17.77 360.14,-18.71 368.97,-24.55 370.69,-17.77"/>
</g>
<!-- Node3 -->
<g id="node3" class="node">
<title>Node3</title>
<g id="a_node3"><a xlink:title=" ">
<polygon fill="white" stroke="#bfbfbf" points="660,-112.5 660,-131.5 704,-131.5 704,-112.5 660,-112.5"/>
<text text-anchor="middle" x="682" y="-119.5" font-family="Helvetica,sans-Serif" font-size="10.00">mpi.h</text>
</a>
</g>
</g>
<!-- Node1&#45;&gt;Node3 -->
<g id="edge2" class="edge">
<title>Node1&#45;&gt;Node3</title>
<path fill="none" stroke="midnightblue" d="M647.77,-168.08C653.56,-160.46 662.06,-149.26 669.14,-139.94"/>
<polygon fill="midnightblue" stroke="midnightblue" points="672.1,-141.83 675.36,-131.75 666.52,-137.6 672.1,-141.83"/>
</g>
<!-- Node4 -->
<g id="node4" class="node">
<title>Node4</title>
<g id="a_node4"><a xlink:title=" ">
<polygon fill="white" stroke="#bfbfbf" points="722,-112.5 722,-131.5 768,-131.5 768,-112.5 722,-112.5"/>
<text text-anchor="middle" x="745" y="-119.5" font-family="Helvetica,sans-Serif" font-size="10.00">PCU.h</text>
</a>
</g>
</g>
<!-- Node1&#45;&gt;Node4 -->
<g id="edge3" class="edge">
<title>Node1&#45;&gt;Node4</title>
<path fill="none" stroke="midnightblue" d="M657.71,-168.32C674.31,-159.7 700,-146.36 719.22,-136.39"/>
<polygon fill="midnightblue" stroke="midnightblue" points="721.07,-139.37 728.33,-131.65 717.84,-133.16 721.07,-139.37"/>
</g>
<!-- Node5 -->
<g id="node5" class="node">
<title>Node5</title>
<g id="a_node5"><a xlink:title=" ">
<polygon fill="white" stroke="#bfbfbf" points="786,-112.5 786,-131.5 842,-131.5 842,-112.5 786,-112.5"/>
<text text-anchor="middle" x="814" y="-119.5" font-family="Helvetica,sans-Serif" font-size="10.00">sstream</text>
</a>
</g>
</g>
<!-- Node1&#45;&gt;Node5 -->
<g id="edge4" class="edge">
<title>Node1&#45;&gt;Node5</title>
<path fill="none" stroke="midnightblue" d="M668.41,-168.44C697.77,-159.28 744.52,-144.69 777.1,-134.52"/>
<polygon fill="midnightblue" stroke="midnightblue" points="778.21,-137.84 786.72,-131.52 776.13,-131.16 778.21,-137.84"/>
</g>
<!-- Node6 -->
<g id="node6" class="node">
<title>Node6</title>
<g id="a_node6"><a xlink:href="_mesh_adapt_p_u_m_i_8h.html" target="_top" xlink:title=" ">
<polygon fill="white" stroke="black" points="238,-112.5 238,-131.5 344,-131.5 344,-112.5 238,-112.5"/>
<text text-anchor="middle" x="291" y="-119.5" font-family="Helvetica,sans-Serif" font-size="10.00">MeshAdaptPUMI.h</text>
</a>
</g>
</g>
<!-- Node1&#45;&gt;Node6 -->
<g id="edge5" class="edge">
<title>Node1&#45;&gt;Node6</title>
<path fill="none" stroke="midnightblue" d="M585.54,-168.44C522.69,-158.75 420.44,-142.97 354.46,-132.79"/>
<polygon fill="midnightblue" stroke="midnightblue" points="354.61,-129.27 344.19,-131.21 353.54,-136.19 354.61,-129.27"/>
</g>
<!-- Node7 -->
<g id="node7" class="node">
<title>Node7</title>
<g id="a_node7"><a xlink:href="mesh_8h.html" target="_top" xlink:title=" ">
<polygon fill="white" stroke="black" points="548.5,-56.5 548.5,-75.5 601.5,-75.5 601.5,-56.5 548.5,-56.5"/>
<text text-anchor="middle" x="575" y="-63.5" font-family="Helvetica,sans-Serif" font-size="10.00">mesh.h</text>
</a>
</g>
</g>
<!-- Node1&#45;&gt;Node7 -->
<g id="edge23" class="edge">
<title>Node1&#45;&gt;Node7</title>
<path fill="none" stroke="midnightblue" d="M603.9,-168.46C584.56,-161.92 562.57,-150.72 551,-132 541.66,-116.89 551.08,-97.59 560.72,-83.95"/>
<polygon fill="midnightblue" stroke="midnightblue" points="563.58,-85.98 566.9,-75.91 558.03,-81.71 563.58,-85.98"/>
</g>
<!-- Node23 -->
<g id="node23" class="node">
<title>Node23</title>
<g id="a_node23"><a xlink:href="_dump_mesh_8h.html" target="_top" xlink:title=" ">
<polygon fill="white" stroke="black" points="560.5,-112.5 560.5,-131.5 641.5,-131.5 641.5,-112.5 560.5,-112.5"/>
<text text-anchor="middle" x="601" y="-119.5" font-family="Helvetica,sans-Serif" font-size="10.00">DumpMesh.h</text>
</a>
</g>
</g>
<!-- Node1&#45;&gt;Node23 -->
<g id="edge24" class="edge">
<title>Node1&#45;&gt;Node23</title>
<path fill="none" stroke="midnightblue" d="M634.39,-168.08C628.74,-160.46 620.46,-149.26 613.55,-139.94"/>
<polygon fill="midnightblue" stroke="midnightblue" points="616.25,-137.7 607.48,-131.75 610.62,-141.87 616.25,-137.7"/>
</g>
<!-- Node25 -->
<g id="node25" class="node">
<title>Node25</title>
<g id="a_node25"><a xlink:title=" ">
<polygon fill="white" stroke="#bfbfbf" points="860,-112.5 860,-131.5 910,-131.5 910,-112.5 860,-112.5"/>
<text text-anchor="middle" x="885" y="-119.5" font-family="Helvetica,sans-Serif" font-size="10.00">cstring</text>
</a>
</g>
</g>
<!-- Node1&#45;&gt;Node25 -->
<g id="edge27" class="edge">
<title>Node1&#45;&gt;Node25</title>
<path fill="none" stroke="midnightblue" d="M683.77,-168.46C724.22,-160.24 786.85,-147.16 850.05,-132.14"/>
<polygon fill="midnightblue" stroke="midnightblue" points="850.87,-135.55 859.78,-129.82 849.24,-128.74 850.87,-135.55"/>
</g>
<!-- Node6&#45;&gt;Node7 -->
<g id="edge6" class="edge">
<title>Node6&#45;&gt;Node7</title>
<path fill="none" stroke="midnightblue" d="M336,-112.44C391.9,-101.82 486.2,-83.88 538.07,-74.02"/>
<polygon fill="midnightblue" stroke="midnightblue" points="538.99,-77.41 548.16,-72.1 537.68,-70.53 538.99,-77.41"/>
</g>
<!-- Node17 -->
<g id="node17" class="node">
<title>Node17</title>
<g id="a_node17"><a xlink:title=" ">
<polygon fill="white" stroke="#bfbfbf" points="270.5,-56.5 270.5,-75.5 311.5,-75.5 311.5,-56.5 270.5,-56.5"/>
<text text-anchor="middle" x="291" y="-63.5" font-family="Helvetica,sans-Serif" font-size="10.00">apf.h</text>
</a>
</g>
</g>
<!-- Node6&#45;&gt;Node17 -->
<g id="edge17" class="edge">
<title>Node6&#45;&gt;Node17</title>
<path fill="none" stroke="midnightblue" d="M291,-112.08C291,-105.01 291,-94.86 291,-85.99"/>
<polygon fill="midnightblue" stroke="midnightblue" points="294.5,-85.75 291,-75.75 287.5,-85.75 294.5,-85.75"/>
</g>
<!-- Node18 -->
<g id="node18" class="node">
<title>Node18</title>
<g id="a_node18"><a xlink:title=" ">
<polygon fill="white" stroke="#bfbfbf" points="0,-56.5 0,-75.5 74,-75.5 74,-56.5 0,-56.5"/>
<text text-anchor="middle" x="37" y="-63.5" font-family="Helvetica,sans-Serif" font-size="10.00">apfMesh2.h</text>
</a>
</g>
</g>
<!-- Node6&#45;&gt;Node18 -->
<g id="edge18" class="edge">
<title>Node6&#45;&gt;Node18</title>
<path fill="none" stroke="midnightblue" d="M250.75,-112.44C205.44,-102.81 131.89,-87.17 83.98,-76.99"/>
<polygon fill="midnightblue" stroke="midnightblue" points="84.68,-73.56 74.17,-74.9 83.22,-80.4 84.68,-73.56"/>
</g>
<!-- Node19 -->
<g id="node19" class="node">
<title>Node19</title>
<g id="a_node19"><a xlink:title=" ">
<polygon fill="white" stroke="#bfbfbf" points="92.5,-56.5 92.5,-75.5 187.5,-75.5 187.5,-56.5 92.5,-56.5"/>
<text text-anchor="middle" x="140" y="-63.5" font-family="Helvetica,sans-Serif" font-size="10.00">apfNumbering.h</text>
</a>
</g>
</g>
<!-- Node6&#45;&gt;Node19 -->
<g id="edge19" class="edge">
<title>Node6&#45;&gt;Node19</title>
<path fill="none" stroke="midnightblue" d="M267.07,-112.44C241.78,-103.4 201.7,-89.06 173.32,-78.92"/>
<polygon fill="midnightblue" stroke="midnightblue" points="174.41,-75.59 163.81,-75.52 172.05,-82.18 174.41,-75.59"/>
</g>
<!-- Node20 -->
<g id="node20" class="node">
<title>Node20</title>
<g id="a_node20"><a xlink:title=" ">
<polygon fill="white" stroke="#bfbfbf" points="205.5,-56.5 205.5,-75.5 252.5,-75.5 252.5,-56.5 205.5,-56.5"/>
<text text-anchor="middle" x="229" y="-63.5" font-family="Helvetica,sans-Serif" font-size="10.00">queue</text>
</a>
</g>
</g>
<!-- Node6&#45;&gt;Node20 -->
<g id="edge20" class="edge">
<title>Node6&#45;&gt;Node20</title>
<path fill="none" stroke="midnightblue" d="M281.04,-112.32C271.87,-104.34 258.06,-92.31 246.97,-82.65"/>
<polygon fill="midnightblue" stroke="midnightblue" points="248.98,-79.76 239.14,-75.83 244.38,-85.04 248.98,-79.76"/>
</g>
<!-- Node21 -->
<g id="node21" class="node">
<title>Node21</title>
<g id="a_node21"><a xlink:href="_py_embedded_functions_8h.html" target="_top" xlink:title=" ">
<polygon fill="white" stroke="black" points="330,-56.5 330,-75.5 466,-75.5 466,-56.5 330,-56.5"/>
<text text-anchor="middle" x="398" y="-63.5" font-family="Helvetica,sans-Serif" font-size="10.00">PyEmbeddedFunctions.h</text>
</a>
</g>
</g>
<!-- Node6&#45;&gt;Node21 -->
<g id="edge21" class="edge">
<title>Node6&#45;&gt;Node21</title>
<path fill="none" stroke="midnightblue" d="M308.19,-112.32C325.35,-103.66 351.95,-90.24 371.75,-80.25"/>
<polygon fill="midnightblue" stroke="midnightblue" points="373.5,-83.28 380.85,-75.65 370.35,-77.04 373.5,-83.28"/>
</g>
<!-- Node7&#45;&gt;Node2 -->
<g id="edge9" class="edge">
<title>Node7&#45;&gt;Node2</title>
<path fill="none" stroke="midnightblue" d="M548.33,-59.18C510.83,-51 440.09,-35.56 370.1,-20.24"/>
<polygon fill="midnightblue" stroke="midnightblue" points="370.75,-16.8 360.23,-18.08 369.25,-23.64 370.75,-16.8"/>
</g>
<!-- Node8 -->
<g id="node8" class="node">
<title>Node8</title>
<g id="a_node8"><a xlink:title=" ">
<polygon fill="white" stroke="#bfbfbf" points="588,-0.5 588,-19.5 620,-19.5 620,-0.5 588,-0.5"/>
<text text-anchor="middle" x="604" y="-7.5" font-family="Helvetica,sans-Serif" font-size="10.00">set</text>
</a>
</g>
</g>
<!-- Node7&#45;&gt;Node8 -->
<g id="edge7" class="edge">
<title>Node7&#45;&gt;Node8</title>
<path fill="none" stroke="midnightblue" d="M579.79,-56.08C583.76,-48.69 589.53,-37.95 594.43,-28.81"/>
<polygon fill="midnightblue" stroke="midnightblue" points="597.65,-30.22 599.3,-19.75 591.49,-26.91 597.65,-30.22"/>
</g>
<!-- Node9 -->
<g id="node9" class="node">
<title>Node9</title>
<g id="a_node9"><a xlink:title=" ">
<polygon fill="white" stroke="#bfbfbf" points="638.5,-0.5 638.5,-19.5 685.5,-19.5 685.5,-0.5 638.5,-0.5"/>
<text text-anchor="middle" x="662" y="-7.5" font-family="Helvetica,sans-Serif" font-size="10.00">vector</text>
</a>
</g>
</g>
<!-- Node7&#45;&gt;Node9 -->
<g id="edge8" class="edge">
<title>Node7&#45;&gt;Node9</title>
<path fill="none" stroke="midnightblue" d="M588.98,-56.32C602.55,-47.9 623.38,-34.97 639.32,-25.07"/>
<polygon fill="midnightblue" stroke="midnightblue" points="641.41,-27.9 648.06,-19.65 637.71,-21.95 641.41,-27.9"/>
</g>
<!-- Node10 -->
<g id="node10" class="node">
<title>Node10</title>
<g id="a_node10"><a xlink:title=" ">
<polygon fill="white" stroke="#bfbfbf" points="704,-0.5 704,-19.5 742,-19.5 742,-0.5 704,-0.5"/>
<text text-anchor="middle" x="723" y="-7.5" font-family="Helvetica,sans-Serif" font-size="10.00">map</text>
</a>
</g>
</g>
<!-- Node7&#45;&gt;Node10 -->
<g id="edge10" class="edge">
<title>Node7&#45;&gt;Node10</title>
<path fill="none" stroke="midnightblue" d="M598.45,-56.44C624.44,-46.96 666.36,-31.67 694.29,-21.47"/>
<polygon fill="midnightblue" stroke="midnightblue" points="695.7,-24.69 703.89,-17.97 693.3,-18.11 695.7,-24.69"/>
</g>
<!-- Node11 -->
<g id="node11" class="node">
<title>Node11</title>
<g id="a_node11"><a xlink:title=" ">
<polygon fill="white" stroke="#bfbfbf" points="760,-0.5 760,-19.5 792,-19.5 792,-0.5 760,-0.5"/>
<text text-anchor="middle" x="776" y="-7.5" font-family="Helvetica,sans-Serif" font-size="10.00">list</text>
</a>
</g>
</g>
<!-- Node7&#45;&gt;Node11 -->
<g id="edge11" class="edge">
<title>Node7&#45;&gt;Node11</title>
<path fill="none" stroke="midnightblue" d="M601.57,-58.36C642.16,-48.19 717.65,-29.19 750.08,-19.96"/>
<polygon fill="midnightblue" stroke="midnightblue" points="751.35,-23.24 759.94,-17.04 749.36,-16.52 751.35,-23.24"/>
</g>
<!-- Node12 -->
<g id="node12" class="node">
<title>Node12</title>
<g id="a_node12"><a xlink:title=" ">
<polygon fill="white" stroke="#bfbfbf" points="810,-0.5 810,-19.5 870,-19.5 870,-0.5 810,-0.5"/>
<text text-anchor="middle" x="840" y="-7.5" font-family="Helvetica,sans-Serif" font-size="10.00">iostream</text>
</a>
</g>
</g>
<!-- Node7&#45;&gt;Node12 -->
<g id="edge12" class="edge">
<title>Node7&#45;&gt;Node12</title>
<path fill="none" stroke="midnightblue" d="M601.7,-58.14C604.83,-57.39 607.98,-56.66 611,-56 691.91,-38.24 715.22,-37.68 799.99,-20.14"/>
<polygon fill="midnightblue" stroke="midnightblue" points="800.72,-23.57 809.79,-18.1 799.29,-16.71 800.72,-23.57"/>
</g>
<!-- Node13 -->
<g id="node13" class="node">
<title>Node13</title>
<g id="a_node13"><a xlink:title=" ">
<polygon fill="white" stroke="#bfbfbf" points="888,-0.5 888,-19.5 944,-19.5 944,-0.5 888,-0.5"/>
<text text-anchor="middle" x="916" y="-7.5" font-family="Helvetica,sans-Serif" font-size="10.00">iomanip</text>
</a>
</g>
</g>
<!-- Node7&#45;&gt;Node13 -->
<g id="edge13" class="edge">
<title>Node7&#45;&gt;Node13</title>
<path fill="none" stroke="midnightblue" d="M601.66,-57.98C604.8,-57.26 607.96,-56.58 611,-56 725.92,-33.99 759.15,-41.79 877.94,-20.02"/>
<polygon fill="midnightblue" stroke="midnightblue" points="878.6,-23.46 887.78,-18.19 877.31,-16.58 878.6,-23.46"/>
</g>
<!-- Node14 -->
<g id="node14" class="node">
<title>Node14</title>
<g id="a_node14"><a xlink:title=" ">
<polygon fill="white" stroke="#bfbfbf" points="378.5,-0.5 378.5,-19.5 433.5,-19.5 433.5,-0.5 378.5,-0.5"/>
<text text-anchor="middle" x="406" y="-7.5" font-family="Helvetica,sans-Serif" font-size="10.00">fstream</text>
</a>
</g>
</g>
<!-- Node7&#45;&gt;Node14 -->
<g id="edge14" class="edge">
<title>Node7&#45;&gt;Node14</title>
<path fill="none" stroke="midnightblue" d="M548.22,-56.44C519.67,-47.32 474.27,-32.81 442.46,-22.65"/>
<polygon fill="midnightblue" stroke="midnightblue" points="443.24,-19.23 432.65,-19.52 441.11,-25.89 443.24,-19.23"/>
</g>
<!-- Node15 -->
<g id="node15" class="node">
<title>Node15</title>
<g id="a_node15"><a xlink:title=" ">
<polygon fill="white" stroke="#bfbfbf" points="452,-0.5 452,-19.5 504,-19.5 504,-0.5 452,-0.5"/>
<text text-anchor="middle" x="478" y="-7.5" font-family="Helvetica,sans-Serif" font-size="10.00">cassert</text>
</a>
</g>
</g>
<!-- Node7&#45;&gt;Node15 -->
<g id="edge15" class="edge">
<title>Node7&#45;&gt;Node15</title>
<path fill="none" stroke="midnightblue" d="M559.42,-56.32C544,-47.74 520.19,-34.49 502.29,-24.52"/>
<polygon fill="midnightblue" stroke="midnightblue" points="503.99,-21.46 493.55,-19.65 500.58,-27.58 503.99,-21.46"/>
</g>
<!-- Node16 -->
<g id="node16" class="node">
<title>Node16</title>
<g id="a_node16"><a xlink:title=" ">
<polygon fill="white" stroke="#bfbfbf" points="522.5,-0.5 522.5,-19.5 569.5,-19.5 569.5,-0.5 522.5,-0.5"/>
<text text-anchor="middle" x="546" y="-7.5" font-family="Helvetica,sans-Serif" font-size="10.00">cmath</text>
</a>
</g>
</g>
<!-- Node7&#45;&gt;Node16 -->
<g id="edge16" class="edge">
<title>Node7&#45;&gt;Node16</title>
<path fill="none" stroke="midnightblue" d="M570.21,-56.08C566.24,-48.69 560.47,-37.95 555.57,-28.81"/>
<polygon fill="midnightblue" stroke="midnightblue" points="558.51,-26.91 550.7,-19.75 552.35,-30.22 558.51,-26.91"/>
</g>
<!-- Node22 -->
<g id="node22" class="node">
<title>Node22</title>
<g id="a_node22"><a xlink:title=" ">
<polygon fill="white" stroke="#bfbfbf" points="218.5,-0.5 218.5,-19.5 277.5,-19.5 277.5,-0.5 218.5,-0.5"/>
<text text-anchor="middle" x="248" y="-7.5" font-family="Helvetica,sans-Serif" font-size="10.00">Python.h</text>
</a>
</g>
</g>
<!-- Node21&#45;&gt;Node22 -->
<g id="edge22" class="edge">
<title>Node21&#45;&gt;Node22</title>
<path fill="none" stroke="midnightblue" d="M374.23,-56.44C349.11,-47.4 309.29,-33.06 281.1,-22.92"/>
<polygon fill="midnightblue" stroke="midnightblue" points="282.25,-19.61 271.66,-19.52 279.88,-26.2 282.25,-19.61"/>
</g>
<!-- Node23&#45;&gt;Node7 -->
<g id="edge25" class="edge">
<title>Node23&#45;&gt;Node7</title>
<path fill="none" stroke="midnightblue" d="M596.71,-112.08C593.15,-104.69 587.98,-93.95 583.58,-84.81"/>
<polygon fill="midnightblue" stroke="midnightblue" points="586.71,-83.24 579.21,-75.75 580.4,-86.28 586.71,-83.24"/>
</g>
<!-- Node24 -->
<g id="node24" class="node">
<title>Node24</title>
<g id="a_node24"><a xlink:title=" ">
<polygon fill="white" stroke="#bfbfbf" points="620,-56.5 620,-75.5 666,-75.5 666,-56.5 620,-56.5"/>
<text text-anchor="middle" x="643" y="-63.5" font-family="Helvetica,sans-Serif" font-size="10.00">cstdio</text>
</a>
</g>
</g>
<!-- Node23&#45;&gt;Node24 -->
<g id="edge26" class="edge">
<title>Node23&#45;&gt;Node24</title>
<path fill="none" stroke="midnightblue" d="M607.94,-112.08C613.93,-104.38 622.75,-93.03 630.05,-83.65"/>
<polygon fill="midnightblue" stroke="midnightblue" points="632.82,-85.79 636.19,-75.75 627.29,-81.5 632.82,-85.79"/>
</g>
</g>
</svg>
