<?xml version="1.0" encoding="UTF-8" standalone="no"?>
<!DOCTYPE svg PUBLIC "-//W3C//DTD SVG 1.1//EN"
 "http://www.w3.org/Graphics/SVG/1.1/DTD/svg11.dtd">
<!-- Generated by graphviz version 2.44.1 (20200629.0846)
 -->
<!-- Title: ParallelMeshConverter.cpp Pages: 1 -->
<svg width="640pt" height="196pt"
 viewBox="0.00 0.00 640.00 196.00" xmlns="http://www.w3.org/2000/svg" xmlns:xlink="http://www.w3.org/1999/xlink">
<g id="graph0" class="graph" transform="scale(1 1) rotate(0) translate(4 192)">
<title>ParallelMeshConverter.cpp</title>
<polygon fill="white" stroke="transparent" points="-4,4 -4,-192 636,-192 636,4 -4,4"/>
<!-- Node1 -->
<g id="node1" class="node">
<title>Node1</title>
<g id="a_node1"><a xlink:title=" ">
<polygon fill="#bfbfbf" stroke="black" points="159,-168.5 159,-187.5 293,-187.5 293,-168.5 159,-168.5"/>
<text text-anchor="middle" x="226" y="-175.5" font-family="Helvetica,sans-Serif" font-size="10.00">ParallelMeshConverter.cpp</text>
</a>
</g>
</g>
<!-- Node2 -->
<g id="node2" class="node">
<title>Node2</title>
<g id="a_node2"><a xlink:title=" ">
<polygon fill="white" stroke="#bfbfbf" points="0,-0.5 0,-19.5 56,-19.5 56,-0.5 0,-0.5"/>
<text text-anchor="middle" x="28" y="-7.5" font-family="Helvetica,sans-Serif" font-size="10.00">algorithm</text>
</a>
</g>
</g>
<!-- Node1&#45;&gt;Node2 -->
<g id="edge1" class="edge">
<title>Node1&#45;&gt;Node2</title>
<path fill="none" stroke="midnightblue" d="M158.89,-171.41C105.31,-165.39 36.42,-153.62 19,-132 -4.7,-102.59 9.21,-55.02 19.68,-29.16"/>
<polygon fill="midnightblue" stroke="midnightblue" points="22.96,-30.38 23.7,-19.81 16.53,-27.61 22.96,-30.38"/>
</g>
<!-- Node3 -->
<g id="node3" class="node">
<title>Node3</title>
<g id="a_node3"><a xlink:title=" ">
<polygon fill="white" stroke="#bfbfbf" points="28.5,-112.5 28.5,-131.5 69.5,-131.5 69.5,-112.5 28.5,-112.5"/>
<text text-anchor="middle" x="49" y="-119.5" font-family="Helvetica,sans-Serif" font-size="10.00">mpi.h</text>
</a>
</g>
</g>
<!-- Node1&#45;&gt;Node3 -->
<g id="edge2" class="edge">
<title>Node1&#45;&gt;Node3</title>
<path fill="none" stroke="midnightblue" d="M197.61,-168.42C169.73,-159.98 125.73,-146.64 79.23,-132.37"/>
<polygon fill="midnightblue" stroke="midnightblue" points="80.18,-129 69.59,-129.41 78.12,-135.69 80.18,-129"/>
</g>
<!-- Node4 -->
<g id="node4" class="node">
<title>Node4</title>
<g id="a_node4"><a xlink:title=" ">
<polygon fill="white" stroke="#bfbfbf" points="87.5,-112.5 87.5,-131.5 134.5,-131.5 134.5,-112.5 87.5,-112.5"/>
<text text-anchor="middle" x="111" y="-119.5" font-family="Helvetica,sans-Serif" font-size="10.00">PCU.h</text>
</a>
</g>
</g>
<!-- Node1&#45;&gt;Node4 -->
<g id="edge3" class="edge">
<title>Node1&#45;&gt;Node4</title>
<path fill="none" stroke="midnightblue" d="M207.78,-168.44C189.1,-159.68 159.84,-145.94 138.38,-135.86"/>
<polygon fill="midnightblue" stroke="midnightblue" points="139.68,-132.6 129.14,-131.52 136.7,-138.93 139.68,-132.6"/>
</g>
<!-- Node5 -->
<g id="node5" class="node">
<title>Node5</title>
<g id="a_node5"><a xlink:title=" ">
<polygon fill="white" stroke="#bfbfbf" points="153,-112.5 153,-131.5 205,-131.5 205,-112.5 153,-112.5"/>
<text text-anchor="middle" x="179" y="-119.5" font-family="Helvetica,sans-Serif" font-size="10.00">sstream</text>
</a>
</g>
</g>
<!-- Node1&#45;&gt;Node5 -->
<g id="edge4" class="edge">
<title>Node1&#45;&gt;Node5</title>
<path fill="none" stroke="midnightblue" d="M218.24,-168.08C211.46,-160.3 201.46,-148.8 193.24,-139.37"/>
<polygon fill="midnightblue" stroke="midnightblue" points="195.82,-137 186.62,-131.75 190.54,-141.59 195.82,-137"/>
</g>
<!-- Node6 -->
<g id="node6" class="node">
<title>Node6</title>
<g id="a_node6"><a xlink:href="_mesh_adapt_p_u_m_i_8h.html" target="_top" xlink:title=" ">
<polygon fill="white" stroke="black" points="223,-112.5 223,-131.5 323,-131.5 323,-112.5 223,-112.5"/>
<text text-anchor="middle" x="273" y="-119.5" font-family="Helvetica,sans-Serif" font-size="10.00">MeshAdaptPUMI.h</text>
</a>
</g>
</g>
<!-- Node1&#45;&gt;Node6 -->
<g id="edge5" class="edge">
<title>Node1&#45;&gt;Node6</title>
<path fill="none" stroke="midnightblue" d="M233.76,-168.08C240.54,-160.3 250.54,-148.8 258.76,-139.37"/>
<polygon fill="midnightblue" stroke="midnightblue" points="261.46,-141.59 265.38,-131.75 256.18,-137 261.46,-141.59"/>
</g>
<!-- Node7 -->
<g id="node7" class="node">
<title>Node7</title>
<g id="a_node7"><a xlink:href="mesh_8h.html" target="_top" xlink:title=" ">
<polygon fill="white" stroke="black" points="336.5,-56.5 336.5,-75.5 385.5,-75.5 385.5,-56.5 336.5,-56.5"/>
<text text-anchor="middle" x="361" y="-63.5" font-family="Helvetica,sans-Serif" font-size="10.00">mesh.h</text>
</a>
</g>
</g>
<!-- Node1&#45;&gt;Node7 -->
<g id="edge21" class="edge">
<title>Node1&#45;&gt;Node7</title>
<path fill="none" stroke="midnightblue" d="M263.52,-168.49C285.79,-161.79 313.24,-150.42 332,-132 344.93,-119.31 352.56,-99.83 356.72,-85.5"/>
<polygon fill="midnightblue" stroke="midnightblue" points="360.13,-86.31 359.26,-75.75 353.35,-84.55 360.13,-86.31"/>
</g>
<!-- Node21 -->
<g id="node21" class="node">
<title>Node21</title>
<g id="a_node21"><a xlink:href="_dump_mesh_8h.html" target="_top" xlink:title=" ">
<polygon fill="white" stroke="black" points="379.5,-112.5 379.5,-131.5 454.5,-131.5 454.5,-112.5 379.5,-112.5"/>
<text text-anchor="middle" x="417" y="-119.5" font-family="Helvetica,sans-Serif" font-size="10.00">DumpMesh.h</text>
</a>
</g>
</g>
<!-- Node1&#45;&gt;Node21 -->
<g id="edge22" class="edge">
<title>Node1&#45;&gt;Node21</title>
<path fill="none" stroke="midnightblue" d="M256.26,-168.44C288.96,-159.2 341.18,-144.44 377.18,-134.26"/>
<polygon fill="midnightblue" stroke="midnightblue" points="378.21,-137.61 386.88,-131.52 376.3,-130.87 378.21,-137.61"/>
</g>
<!-- Node23 -->
<g id="node23" class="node">
<title>Node23</title>
<g id="a_node23"><a xlink:title=" ">
<polygon fill="white" stroke="#bfbfbf" points="473,-112.5 473,-131.5 519,-131.5 519,-112.5 473,-112.5"/>
<text text-anchor="middle" x="496" y="-119.5" font-family="Helvetica,sans-Serif" font-size="10.00">cstring</text>
</a>
</g>
</g>
<!-- Node1&#45;&gt;Node23 -->
<g id="edge25" class="edge">
<title>Node1&#45;&gt;Node23</title>
<path fill="none" stroke="midnightblue" d="M278.27,-168.47C324.51,-160.62 393.96,-148.08 463.22,-132.02"/>
<polygon fill="midnightblue" stroke="midnightblue" points="464.05,-135.42 472.99,-129.73 462.46,-128.6 464.05,-135.42"/>
</g>
<!-- Node6&#45;&gt;Node7 -->
<g id="edge6" class="edge">
<title>Node6&#45;&gt;Node7</title>
<path fill="none" stroke="midnightblue" d="M287.14,-112.32C300.87,-103.9 321.94,-90.97 338.06,-81.07"/>
<polygon fill="midnightblue" stroke="midnightblue" points="340.2,-83.87 346.9,-75.65 336.54,-77.9 340.2,-83.87"/>
</g>
<!-- Node17 -->
<g id="node17" class="node">
<title>Node17</title>
<g id="a_node17"><a xlink:title=" ">
<polygon fill="white" stroke="#bfbfbf" points="280,-56.5 280,-75.5 318,-75.5 318,-56.5 280,-56.5"/>
<text text-anchor="middle" x="299" y="-63.5" font-family="Helvetica,sans-Serif" font-size="10.00">apf.h</text>
</a>
</g>
</g>
<!-- Node6&#45;&gt;Node17 -->
<g id="edge17" class="edge">
<title>Node6&#45;&gt;Node17</title>
<path fill="none" stroke="midnightblue" d="M277.29,-112.08C280.85,-104.69 286.02,-93.95 290.42,-84.81"/>
<polygon fill="midnightblue" stroke="midnightblue" points="293.6,-86.28 294.79,-75.75 287.29,-83.24 293.6,-86.28"/>
</g>
<!-- Node18 -->
<g id="node18" class="node">
<title>Node18</title>
<g id="a_node18"><a xlink:title=" ">
<polygon fill="white" stroke="#bfbfbf" points="28,-56.5 28,-75.5 96,-75.5 96,-56.5 28,-56.5"/>
<text text-anchor="middle" x="62" y="-63.5" font-family="Helvetica,sans-Serif" font-size="10.00">apfMesh2.h</text>
</a>
</g>
</g>
<!-- Node6&#45;&gt;Node18 -->
<g id="edge18" class="edge">
<title>Node6&#45;&gt;Node18</title>
<path fill="none" stroke="midnightblue" d="M239.57,-112.44C203.14,-103.12 144.77,-88.18 104.97,-78"/>
<polygon fill="midnightblue" stroke="midnightblue" points="105.83,-74.61 95.28,-75.52 104.1,-81.39 105.83,-74.61"/>
</g>
<!-- Node19 -->
<g id="node19" class="node">
<title>Node19</title>
<g id="a_node19"><a xlink:title=" ">
<polygon fill="white" stroke="#bfbfbf" points="114,-56.5 114,-75.5 200,-75.5 200,-56.5 114,-56.5"/>
<text text-anchor="middle" x="157" y="-63.5" font-family="Helvetica,sans-Serif" font-size="10.00">apfNumbering.h</text>
</a>
</g>
</g>
<!-- Node6&#45;&gt;Node19 -->
<g id="edge19" class="edge">
<title>Node6&#45;&gt;Node19</title>
<path fill="none" stroke="midnightblue" d="M254.62,-112.44C235.78,-103.68 206.27,-89.94 184.62,-79.86"/>
<polygon fill="midnightblue" stroke="midnightblue" points="185.84,-76.56 175.29,-75.52 182.88,-82.91 185.84,-76.56"/>
</g>
<!-- Node20 -->
<g id="node20" class="node">
<title>Node20</title>
<g id="a_node20"><a xlink:title=" ">
<polygon fill="white" stroke="#bfbfbf" points="218.5,-56.5 218.5,-75.5 261.5,-75.5 261.5,-56.5 218.5,-56.5"/>
<text text-anchor="middle" x="240" y="-63.5" font-family="Helvetica,sans-Serif" font-size="10.00">queue</text>
</a>
</g>
</g>
<!-- Node6&#45;&gt;Node20 -->
<g id="edge20" class="edge">
<title>Node6&#45;&gt;Node20</title>
<path fill="none" stroke="midnightblue" d="M267.55,-112.08C262.99,-104.61 256.33,-93.72 250.71,-84.52"/>
<polygon fill="midnightblue" stroke="midnightblue" points="253.55,-82.46 245.35,-75.75 247.58,-86.11 253.55,-82.46"/>
</g>
<!-- Node7&#45;&gt;Node2 -->
<g id="edge9" class="edge">
<title>Node7&#45;&gt;Node2</title>
<path fill="none" stroke="midnightblue" d="M336.19,-58.1C333.11,-57.34 329.99,-56.62 327,-56 301.9,-50.81 141.06,-27.34 66.21,-16.51"/>
<polygon fill="midnightblue" stroke="midnightblue" points="66.64,-13.04 56.24,-15.07 65.64,-19.97 66.64,-13.04"/>
</g>
<!-- Node8 -->
<g id="node8" class="node">
<title>Node8</title>
<g id="a_node8"><a xlink:title=" ">
<polygon fill="white" stroke="#bfbfbf" points="602,-0.5 602,-19.5 632,-19.5 632,-0.5 602,-0.5"/>
<text text-anchor="middle" x="617" y="-7.5" font-family="Helvetica,sans-Serif" font-size="10.00">set</text>
</a>
</g>
</g>
<!-- Node7&#45;&gt;Node8 -->
<g id="edge7" class="edge">
<title>Node7&#45;&gt;Node8</title>
<path fill="none" stroke="midnightblue" d="M385.83,-58.19C388.91,-57.41 392.02,-56.66 395,-56 479.23,-37.23 504.98,-43.32 592.12,-19.82"/>
<polygon fill="midnightblue" stroke="midnightblue" points="593.19,-23.16 601.9,-17.13 591.33,-16.41 593.19,-23.16"/>
</g>
<!-- Node9 -->
<g id="node9" class="node">
<title>Node9</title>
<g id="a_node9"><a xlink:title=" ">
<polygon fill="white" stroke="#bfbfbf" points="101,-0.5 101,-19.5 145,-19.5 145,-0.5 101,-0.5"/>
<text text-anchor="middle" x="123" y="-7.5" font-family="Helvetica,sans-Serif" font-size="10.00">vector</text>
</a>
</g>
</g>
<!-- Node7&#45;&gt;Node9 -->
<g id="edge8" class="edge">
<title>Node7&#45;&gt;Node9</title>
<path fill="none" stroke="midnightblue" d="M336.16,-58.26C333.08,-57.47 329.97,-56.7 327,-56 253.7,-38.69 231.98,-38.91 155.43,-20.2"/>
<polygon fill="midnightblue" stroke="midnightblue" points="155.84,-16.7 145.3,-17.7 154.16,-23.5 155.84,-16.7"/>
</g>
<!-- Node10 -->
<g id="node10" class="node">
<title>Node10</title>
<g id="a_node10"><a xlink:title=" ">
<polygon fill="white" stroke="#bfbfbf" points="163.5,-0.5 163.5,-19.5 198.5,-19.5 198.5,-0.5 163.5,-0.5"/>
<text text-anchor="middle" x="181" y="-7.5" font-family="Helvetica,sans-Serif" font-size="10.00">map</text>
</a>
</g>
</g>
<!-- Node7&#45;&gt;Node10 -->
<g id="edge10" class="edge">
<title>Node7&#45;&gt;Node10</title>
<path fill="none" stroke="midnightblue" d="M336.35,-58.2C307.69,-50.21 258.77,-36.29 208.35,-20.33"/>
<polygon fill="midnightblue" stroke="midnightblue" points="209.17,-16.92 198.58,-17.22 207.05,-23.59 209.17,-16.92"/>
</g>
<!-- Node11 -->
<g id="node11" class="node">
<title>Node11</title>
<g id="a_node11"><a xlink:title=" ">
<polygon fill="white" stroke="#bfbfbf" points="216.5,-0.5 216.5,-19.5 245.5,-19.5 245.5,-0.5 216.5,-0.5"/>
<text text-anchor="middle" x="231" y="-7.5" font-family="Helvetica,sans-Serif" font-size="10.00">list</text>
</a>
</g>
</g>
<!-- Node7&#45;&gt;Node11 -->
<g id="edge11" class="edge">
<title>Node7&#45;&gt;Node11</title>
<path fill="none" stroke="midnightblue" d="M340.4,-56.44C317.24,-46.82 279.69,-31.22 255.16,-21.04"/>
<polygon fill="midnightblue" stroke="midnightblue" points="256.42,-17.77 245.84,-17.16 253.73,-24.23 256.42,-17.77"/>
</g>
<!-- Node12 -->
<g id="node12" class="node">
<title>Node12</title>
<g id="a_node12"><a xlink:title=" ">
<polygon fill="white" stroke="#bfbfbf" points="264,-0.5 264,-19.5 318,-19.5 318,-0.5 264,-0.5"/>
<text text-anchor="middle" x="291" y="-7.5" font-family="Helvetica,sans-Serif" font-size="10.00">iostream</text>
</a>
</g>
</g>
<!-- Node7&#45;&gt;Node12 -->
<g id="edge12" class="edge">
<title>Node7&#45;&gt;Node12</title>
<path fill="none" stroke="midnightblue" d="M349.75,-56.32C339.2,-48.18 323.2,-35.84 310.56,-26.09"/>
<polygon fill="midnightblue" stroke="midnightblue" points="312.51,-23.17 302.45,-19.83 308.23,-28.71 312.51,-23.17"/>
</g>
<!-- Node13 -->
<g id="node13" class="node">
<title>Node13</title>
<g id="a_node13"><a xlink:title=" ">
<polygon fill="white" stroke="#bfbfbf" points="336,-0.5 336,-19.5 386,-19.5 386,-0.5 336,-0.5"/>
<text text-anchor="middle" x="361" y="-7.5" font-family="Helvetica,sans-Serif" font-size="10.00">iomanip</text>
</a>
</g>
</g>
<!-- Node7&#45;&gt;Node13 -->
<g id="edge13" class="edge">
<title>Node7&#45;&gt;Node13</title>
<path fill="none" stroke="midnightblue" d="M361,-56.08C361,-49.01 361,-38.86 361,-29.99"/>
<polygon fill="midnightblue" stroke="midnightblue" points="364.5,-29.75 361,-19.75 357.5,-29.75 364.5,-29.75"/>
</g>
<!-- Node14 -->
<g id="node14" class="node">
<title>Node14</title>
<g id="a_node14"><a xlink:title=" ">
<polygon fill="white" stroke="#bfbfbf" points="404,-0.5 404,-19.5 454,-19.5 454,-0.5 404,-0.5"/>
<text text-anchor="middle" x="429" y="-7.5" font-family="Helvetica,sans-Serif" font-size="10.00">fstream</text>
</a>
</g>
</g>
<!-- Node7&#45;&gt;Node14 -->
<g id="edge14" class="edge">
<title>Node7&#45;&gt;Node14</title>
<path fill="none" stroke="midnightblue" d="M371.93,-56.32C382.17,-48.18 397.72,-35.84 410,-26.09"/>
<polygon fill="midnightblue" stroke="midnightblue" points="412.22,-28.79 417.88,-19.83 407.87,-23.31 412.22,-28.79"/>
</g>
<!-- Node15 -->
<g id="node15" class="node">
<title>Node15</title>
<g id="a_node15"><a xlink:title=" ">
<polygon fill="white" stroke="#bfbfbf" points="472.5,-0.5 472.5,-19.5 521.5,-19.5 521.5,-0.5 472.5,-0.5"/>
<text text-anchor="middle" x="497" y="-7.5" font-family="Helvetica,sans-Serif" font-size="10.00">cassert</text>
</a>
</g>
</g>
<!-- Node7&#45;&gt;Node15 -->
<g id="edge15" class="edge">
<title>Node7&#45;&gt;Node15</title>
<path fill="none" stroke="midnightblue" d="M382.55,-56.44C405.03,-47.52 440.49,-33.44 465.98,-23.32"/>
<polygon fill="midnightblue" stroke="midnightblue" points="467.55,-26.46 475.55,-19.52 464.97,-19.95 467.55,-26.46"/>
</g>
<!-- Node16 -->
<g id="node16" class="node">
<title>Node16</title>
<g id="a_node16"><a xlink:title=" ">
<polygon fill="white" stroke="#bfbfbf" points="540,-0.5 540,-19.5 584,-19.5 584,-0.5 540,-0.5"/>
<text text-anchor="middle" x="562" y="-7.5" font-family="Helvetica,sans-Serif" font-size="10.00">cmath</text>
</a>
</g>
</g>
<!-- Node7&#45;&gt;Node16 -->
<g id="edge16" class="edge">
<title>Node7&#45;&gt;Node16</title>
<path fill="none" stroke="midnightblue" d="M385.77,-58.45C425.57,-47.92 501.61,-27.8 529.76,-20.24"/>
<polygon fill="midnightblue" stroke="midnightblue" points="530.93,-23.55 539.67,-17.55 529.1,-16.79 530.93,-23.55"/>
</g>
<!-- Node21&#45;&gt;Node7 -->
<g id="edge23" class="edge">
<title>Node21&#45;&gt;Node7</title>
<path fill="none" stroke="midnightblue" d="M408,-112.32C399.81,-104.42 387.49,-92.55 377.53,-82.94"/>
<polygon fill="midnightblue" stroke="midnightblue" points="379.79,-80.26 370.16,-75.83 374.93,-85.29 379.79,-80.26"/>
</g>
<!-- Node22 -->
<g id="node22" class="node">
<title>Node22</title>
<g id="a_node22"><a xlink:title=" ">
<polygon fill="white" stroke="#bfbfbf" points="403.5,-56.5 403.5,-75.5 446.5,-75.5 446.5,-56.5 403.5,-56.5"/>
<text text-anchor="middle" x="425" y="-63.5" font-family="Helvetica,sans-Serif" font-size="10.00">cstdio</text>
</a>
</g>
</g>
<!-- Node21&#45;&gt;Node22 -->
<g id="edge24" class="edge">
<title>Node21&#45;&gt;Node22</title>
<path fill="none" stroke="midnightblue" d="M418.32,-112.08C419.38,-104.93 420.91,-94.64 422.23,-85.69"/>
<polygon fill="midnightblue" stroke="midnightblue" points="425.7,-86.16 423.7,-75.75 418.78,-85.13 425.7,-86.16"/>
</g>
</g>
</svg>
