<?xml version="1.0" encoding="UTF-8" standalone="no"?>
<!DOCTYPE svg PUBLIC "-//W3C//DTD SVG 1.1//EN"
 "http://www.w3.org/Graphics/SVG/1.1/DTD/svg11.dtd">
<!-- Generated by graphviz version 2.50.0 (20211204.2007)
 -->
<!-- Title: ParallelMeshConverter.cpp Pages: 1 -->
<svg width="894pt" height="196pt"
 viewBox="0.00 0.00 894.00 196.00" xmlns="http://www.w3.org/2000/svg" xmlns:xlink="http://www.w3.org/1999/xlink">
<g id="graph0" class="graph" transform="scale(1 1) rotate(0) translate(4 192)">
<title>ParallelMeshConverter.cpp</title>
<polygon fill="white" stroke="transparent" points="-4,4 -4,-192 890,-192 890,4 -4,4"/>
<!-- Node1 -->
<g id="node1" class="node">
<title>Node1</title>
<g id="a_node1"><a xlink:title=" ">
<polygon fill="#bfbfbf" stroke="black" points="537,-168.5 537,-187.5 671,-187.5 671,-168.5 537,-168.5"/>
<text text-anchor="middle" x="604" y="-175.5" font-family="Helvetica,sans-Serif" font-size="10.00">ParallelMeshConverter.cpp</text>
</a>
</g>
</g>
<!-- Node2 -->
<g id="node2" class="node">
<title>Node2</title>
<g id="a_node2"><a xlink:title=" ">
<polygon fill="white" stroke="#bfbfbf" points="281,-0.5 281,-19.5 337,-19.5 337,-0.5 281,-0.5"/>
<text text-anchor="middle" x="309" y="-7.5" font-family="Helvetica,sans-Serif" font-size="10.00">algorithm</text>
</a>
</g>
</g>
<!-- Node1&#45;&gt;Node2 -->
<g id="edge1" class="edge">
<title>Node1&#45;&gt;Node2</title>
<path fill="none" stroke="midnightblue" d="M580.71,-168.48C561.24,-160.72 533.32,-148.02 512,-132 475.52,-104.6 481.19,-80.96 443,-56 426.99,-45.54 380.8,-31.13 347.11,-21.46"/>
<polygon fill="midnightblue" stroke="midnightblue" points="347.68,-17.99 337.11,-18.63 345.77,-24.72 347.68,-17.99"/>
</g>
<!-- Node3 -->
<g id="node3" class="node">
<title>Node3</title>
<g id="a_node3"><a xlink:title=" ">
<polygon fill="white" stroke="#bfbfbf" points="621.5,-112.5 621.5,-131.5 662.5,-131.5 662.5,-112.5 621.5,-112.5"/>
<text text-anchor="middle" x="642" y="-119.5" font-family="Helvetica,sans-Serif" font-size="10.00">mpi.h</text>
</a>
</g>
</g>
<!-- Node1&#45;&gt;Node3 -->
<g id="edge2" class="edge">
<title>Node1&#45;&gt;Node3</title>
<path fill="none" stroke="midnightblue" d="M610.27,-168.08C615.64,-160.46 623.52,-149.26 630.08,-139.94"/>
<polygon fill="midnightblue" stroke="midnightblue" points="632.95,-141.94 635.84,-131.75 627.22,-137.91 632.95,-141.94"/>
</g>
<!-- Node4 -->
<g id="node4" class="node">
<title>Node4</title>
<g id="a_node4"><a xlink:title=" ">
<polygon fill="white" stroke="#bfbfbf" points="680.5,-112.5 680.5,-131.5 727.5,-131.5 727.5,-112.5 680.5,-112.5"/>
<text text-anchor="middle" x="704" y="-119.5" font-family="Helvetica,sans-Serif" font-size="10.00">PCU.h</text>
</a>
</g>
</g>
<!-- Node1&#45;&gt;Node4 -->
<g id="edge3" class="edge">
<title>Node1&#45;&gt;Node4</title>
<path fill="none" stroke="midnightblue" d="M620.07,-168.32C635.96,-159.74 660.51,-146.49 678.96,-136.52"/>
<polygon fill="midnightblue" stroke="midnightblue" points="680.84,-139.49 687.97,-131.65 677.51,-133.33 680.84,-139.49"/>
</g>
<!-- Node5 -->
<g id="node5" class="node">
<title>Node5</title>
<g id="a_node5"><a xlink:title=" ">
<polygon fill="white" stroke="#bfbfbf" points="746,-112.5 746,-131.5 798,-131.5 798,-112.5 746,-112.5"/>
<text text-anchor="middle" x="772" y="-119.5" font-family="Helvetica,sans-Serif" font-size="10.00">sstream</text>
</a>
</g>
</g>
<!-- Node1&#45;&gt;Node5 -->
<g id="edge4" class="edge">
<title>Node1&#45;&gt;Node5</title>
<path fill="none" stroke="midnightblue" d="M630.62,-168.44C659.09,-159.29 704.4,-144.73 736.03,-134.56"/>
<polygon fill="midnightblue" stroke="midnightblue" points="737.33,-137.82 745.78,-131.43 735.19,-131.16 737.33,-137.82"/>
</g>
<!-- Node6 -->
<g id="node6" class="node">
<title>Node6</title>
<g id="a_node6"><a xlink:href="_mesh_adapt_p_u_m_i_8h.html" target="_top" xlink:title=" ">
<polygon fill="white" stroke="black" points="221,-112.5 221,-131.5 321,-131.5 321,-112.5 221,-112.5"/>
<text text-anchor="middle" x="271" y="-119.5" font-family="Helvetica,sans-Serif" font-size="10.00">MeshAdaptPUMI.h</text>
</a>
</g>
</g>
<!-- Node1&#45;&gt;Node6 -->
<g id="edge5" class="edge">
<title>Node1&#45;&gt;Node6</title>
<path fill="none" stroke="midnightblue" d="M551.24,-168.44C491.39,-158.74 393.99,-142.94 331.22,-132.76"/>
<polygon fill="midnightblue" stroke="midnightblue" points="331.5,-129.27 321.07,-131.12 330.38,-136.17 331.5,-129.27"/>
</g>
<!-- Node7 -->
<g id="node7" class="node">
<title>Node7</title>
<g id="a_node7"><a xlink:href="mesh_8h.html" target="_top" xlink:title=" ">
<polygon fill="white" stroke="black" points="516.5,-56.5 516.5,-75.5 565.5,-75.5 565.5,-56.5 516.5,-56.5"/>
<text text-anchor="middle" x="541" y="-63.5" font-family="Helvetica,sans-Serif" font-size="10.00">mesh.h</text>
</a>
</g>
</g>
<!-- Node1&#45;&gt;Node7 -->
<g id="edge23" class="edge">
<title>Node1&#45;&gt;Node7</title>
<path fill="none" stroke="midnightblue" d="M570.2,-168.39C551.61,-161.74 530.11,-150.45 519,-132 510.01,-117.07 518.47,-97.99 527.38,-84.37"/>
<polygon fill="midnightblue" stroke="midnightblue" points="530.44,-86.1 533.41,-75.93 524.75,-82.03 530.44,-86.1"/>
</g>
<!-- Node23 -->
<g id="node23" class="node">
<title>Node23</title>
<g id="a_node23"><a xlink:href="_dump_mesh_8h.html" target="_top" xlink:title=" ">
<polygon fill="white" stroke="black" points="528.5,-112.5 528.5,-131.5 603.5,-131.5 603.5,-112.5 528.5,-112.5"/>
<text text-anchor="middle" x="566" y="-119.5" font-family="Helvetica,sans-Serif" font-size="10.00">DumpMesh.h</text>
</a>
</g>
</g>
<!-- Node1&#45;&gt;Node23 -->
<g id="edge24" class="edge">
<title>Node1&#45;&gt;Node23</title>
<path fill="none" stroke="midnightblue" d="M597.73,-168.08C592.36,-160.46 584.48,-149.26 577.92,-139.94"/>
<polygon fill="midnightblue" stroke="midnightblue" points="580.78,-137.91 572.16,-131.75 575.05,-141.94 580.78,-137.91"/>
</g>
<!-- Node25 -->
<g id="node25" class="node">
<title>Node25</title>
<g id="a_node25"><a xlink:title=" ">
<polygon fill="white" stroke="#bfbfbf" points="816,-112.5 816,-131.5 862,-131.5 862,-112.5 816,-112.5"/>
<text text-anchor="middle" x="839" y="-119.5" font-family="Helvetica,sans-Serif" font-size="10.00">cstring</text>
</a>
</g>
</g>
<!-- Node1&#45;&gt;Node25 -->
<g id="edge27" class="edge">
<title>Node1&#45;&gt;Node25</title>
<path fill="none" stroke="midnightblue" d="M645.76,-168.46C684.82,-160.31 745.01,-147.34 806.15,-132.11"/>
<polygon fill="midnightblue" stroke="midnightblue" points="807.12,-135.47 815.97,-129.64 805.42,-128.68 807.12,-135.47"/>
</g>
<!-- Node6&#45;&gt;Node7 -->
<g id="edge6" class="edge">
<title>Node6&#45;&gt;Node7</title>
<path fill="none" stroke="midnightblue" d="M313.78,-112.44C367.09,-101.78 457.14,-83.77 506.35,-73.93"/>
<polygon fill="midnightblue" stroke="midnightblue" points="507.08,-77.35 516.2,-71.96 505.71,-70.49 507.08,-77.35"/>
</g>
<!-- Node17 -->
<g id="node17" class="node">
<title>Node17</title>
<g id="a_node17"><a xlink:title=" ">
<polygon fill="white" stroke="#bfbfbf" points="252,-56.5 252,-75.5 290,-75.5 290,-56.5 252,-56.5"/>
<text text-anchor="middle" x="271" y="-63.5" font-family="Helvetica,sans-Serif" font-size="10.00">apf.h</text>
</a>
</g>
</g>
<!-- Node6&#45;&gt;Node17 -->
<g id="edge17" class="edge">
<title>Node6&#45;&gt;Node17</title>
<path fill="none" stroke="midnightblue" d="M271,-112.08C271,-105.01 271,-94.86 271,-85.99"/>
<polygon fill="midnightblue" stroke="midnightblue" points="274.5,-85.75 271,-75.75 267.5,-85.75 274.5,-85.75"/>
</g>
<!-- Node18 -->
<g id="node18" class="node">
<title>Node18</title>
<g id="a_node18"><a xlink:title=" ">
<polygon fill="white" stroke="#bfbfbf" points="0,-56.5 0,-75.5 68,-75.5 68,-56.5 0,-56.5"/>
<text text-anchor="middle" x="34" y="-63.5" font-family="Helvetica,sans-Serif" font-size="10.00">apfMesh2.h</text>
</a>
</g>
</g>
<!-- Node6&#45;&gt;Node18 -->
<g id="edge18" class="edge">
<title>Node6&#45;&gt;Node18</title>
<path fill="none" stroke="midnightblue" d="M233.45,-112.44C191.31,-102.84 123.01,-87.28 78.3,-77.09"/>
<polygon fill="midnightblue" stroke="midnightblue" points="78.83,-73.62 68.3,-74.82 77.27,-80.45 78.83,-73.62"/>
</g>
<!-- Node19 -->
<g id="node19" class="node">
<title>Node19</title>
<g id="a_node19"><a xlink:title=" ">
<polygon fill="white" stroke="#bfbfbf" points="86,-56.5 86,-75.5 172,-75.5 172,-56.5 86,-56.5"/>
<text text-anchor="middle" x="129" y="-63.5" font-family="Helvetica,sans-Serif" font-size="10.00">apfNumbering.h</text>
</a>
</g>
</g>
<!-- Node6&#45;&gt;Node19 -->
<g id="edge19" class="edge">
<title>Node6&#45;&gt;Node19</title>
<path fill="none" stroke="midnightblue" d="M248.5,-112.44C224.92,-103.48 187.68,-89.31 161.04,-79.18"/>
<polygon fill="midnightblue" stroke="midnightblue" points="161.99,-75.8 151.4,-75.52 159.5,-82.34 161.99,-75.8"/>
</g>
<!-- Node20 -->
<g id="node20" class="node">
<title>Node20</title>
<g id="a_node20"><a xlink:title=" ">
<polygon fill="white" stroke="#bfbfbf" points="190.5,-56.5 190.5,-75.5 233.5,-75.5 233.5,-56.5 190.5,-56.5"/>
<text text-anchor="middle" x="212" y="-63.5" font-family="Helvetica,sans-Serif" font-size="10.00">queue</text>
</a>
</g>
</g>
<!-- Node6&#45;&gt;Node20 -->
<g id="edge20" class="edge">
<title>Node6&#45;&gt;Node20</title>
<path fill="none" stroke="midnightblue" d="M261.52,-112.32C252.8,-104.34 239.66,-92.31 229.1,-82.65"/>
<polygon fill="midnightblue" stroke="midnightblue" points="231.39,-80 221.65,-75.83 226.67,-85.17 231.39,-80"/>
</g>
<!-- Node21 -->
<g id="node21" class="node">
<title>Node21</title>
<g id="a_node21"><a xlink:href="_py_embedded_functions_8h.html" target="_top" xlink:title=" ">
<polygon fill="white" stroke="black" points="308,-56.5 308,-75.5 434,-75.5 434,-56.5 308,-56.5"/>
<text text-anchor="middle" x="371" y="-63.5" font-family="Helvetica,sans-Serif" font-size="10.00">PyEmbeddedFunctions.h</text>
</a>
</g>
</g>
<!-- Node6&#45;&gt;Node21 -->
<g id="edge21" class="edge">
<title>Node6&#45;&gt;Node21</title>
<path fill="none" stroke="midnightblue" d="M287.07,-112.32C302.96,-103.74 327.51,-90.49 345.96,-80.52"/>
<polygon fill="midnightblue" stroke="midnightblue" points="347.84,-83.49 354.97,-75.65 344.51,-77.33 347.84,-83.49"/>
</g>
<!-- Node7&#45;&gt;Node2 -->
<g id="edge9" class="edge">
<title>Node7&#45;&gt;Node2</title>
<path fill="none" stroke="midnightblue" d="M516.35,-59.41C481.07,-51.39 413.88,-36.03 347.12,-20.24"/>
<polygon fill="midnightblue" stroke="midnightblue" points="347.81,-16.81 337.27,-17.91 346.2,-23.62 347.81,-16.81"/>
</g>
<!-- Node8 -->
<g id="node8" class="node">
<title>Node8</title>
<g id="a_node8"><a xlink:title=" ">
<polygon fill="white" stroke="#bfbfbf" points="553,-0.5 553,-19.5 583,-19.5 583,-0.5 553,-0.5"/>
<text text-anchor="middle" x="568" y="-7.5" font-family="Helvetica,sans-Serif" font-size="10.00">set</text>
</a>
</g>
</g>
<!-- Node7&#45;&gt;Node8 -->
<g id="edge7" class="edge">
<title>Node7&#45;&gt;Node8</title>
<path fill="none" stroke="midnightblue" d="M545.46,-56.08C549.15,-48.69 554.52,-37.95 559.09,-28.81"/>
<polygon fill="midnightblue" stroke="midnightblue" points="562.28,-30.26 563.62,-19.75 556.02,-27.13 562.28,-30.26"/>
</g>
<!-- Node9 -->
<g id="node9" class="node">
<title>Node9</title>
<g id="a_node9"><a xlink:title=" ">
<polygon fill="white" stroke="#bfbfbf" points="601,-0.5 601,-19.5 645,-19.5 645,-0.5 601,-0.5"/>
<text text-anchor="middle" x="623" y="-7.5" font-family="Helvetica,sans-Serif" font-size="10.00">vector</text>
</a>
</g>
</g>
<!-- Node7&#45;&gt;Node9 -->
<g id="edge8" class="edge">
<title>Node7&#45;&gt;Node9</title>
<path fill="none" stroke="midnightblue" d="M554.17,-56.32C566.85,-47.98 586.23,-35.21 601.21,-25.35"/>
<polygon fill="midnightblue" stroke="midnightblue" points="603.43,-28.08 609.86,-19.65 599.58,-22.23 603.43,-28.08"/>
</g>
<!-- Node10 -->
<g id="node10" class="node">
<title>Node10</title>
<g id="a_node10"><a xlink:title=" ">
<polygon fill="white" stroke="#bfbfbf" points="663.5,-0.5 663.5,-19.5 698.5,-19.5 698.5,-0.5 663.5,-0.5"/>
<text text-anchor="middle" x="681" y="-7.5" font-family="Helvetica,sans-Serif" font-size="10.00">map</text>
</a>
</g>
</g>
<!-- Node7&#45;&gt;Node10 -->
<g id="edge10" class="edge">
<title>Node7&#45;&gt;Node10</title>
<path fill="none" stroke="midnightblue" d="M563.18,-56.44C587.8,-46.95 627.52,-31.63 653.94,-21.44"/>
<polygon fill="midnightblue" stroke="midnightblue" points="655.28,-24.67 663.35,-17.81 652.76,-18.14 655.28,-24.67"/>
</g>
<!-- Node11 -->
<g id="node11" class="node">
<title>Node11</title>
<g id="a_node11"><a xlink:title=" ">
<polygon fill="white" stroke="#bfbfbf" points="716.5,-0.5 716.5,-19.5 745.5,-19.5 745.5,-0.5 716.5,-0.5"/>
<text text-anchor="middle" x="731" y="-7.5" font-family="Helvetica,sans-Serif" font-size="10.00">list</text>
</a>
</g>
</g>
<!-- Node7&#45;&gt;Node11 -->
<g id="edge11" class="edge">
<title>Node7&#45;&gt;Node11</title>
<path fill="none" stroke="midnightblue" d="M565.81,-58.39C604.69,-48.03 677.92,-28.46 706.68,-19.99"/>
<polygon fill="midnightblue" stroke="midnightblue" points="707.97,-23.26 716.49,-16.96 705.9,-16.57 707.97,-23.26"/>
</g>
<!-- Node12 -->
<g id="node12" class="node">
<title>Node12</title>
<g id="a_node12"><a xlink:title=" ">
<polygon fill="white" stroke="#bfbfbf" points="764,-0.5 764,-19.5 818,-19.5 818,-0.5 764,-0.5"/>
<text text-anchor="middle" x="791" y="-7.5" font-family="Helvetica,sans-Serif" font-size="10.00">iostream</text>
</a>
</g>
</g>
<!-- Node7&#45;&gt;Node12 -->
<g id="edge12" class="edge">
<title>Node7&#45;&gt;Node12</title>
<path fill="none" stroke="midnightblue" d="M565.84,-58.24C568.92,-57.45 572.03,-56.69 575,-56 651.37,-38.27 673.68,-37.9 753.84,-20.17"/>
<polygon fill="midnightblue" stroke="midnightblue" points="754.91,-23.52 763.91,-17.92 753.38,-16.69 754.91,-23.52"/>
</g>
<!-- Node13 -->
<g id="node13" class="node">
<title>Node13</title>
<g id="a_node13"><a xlink:title=" ">
<polygon fill="white" stroke="#bfbfbf" points="836,-0.5 836,-19.5 886,-19.5 886,-0.5 836,-0.5"/>
<text text-anchor="middle" x="861" y="-7.5" font-family="Helvetica,sans-Serif" font-size="10.00">iomanip</text>
</a>
</g>
</g>
<!-- Node7&#45;&gt;Node13 -->
<g id="edge13" class="edge">
<title>Node7&#45;&gt;Node13</title>
<path fill="none" stroke="midnightblue" d="M565.8,-58.08C568.89,-57.32 572.01,-56.61 575,-56 682.73,-34.12 714.35,-42.03 825.87,-20.02"/>
<polygon fill="midnightblue" stroke="midnightblue" points="826.71,-23.42 835.83,-18.01 825.33,-16.55 826.71,-23.42"/>
</g>
<!-- Node14 -->
<g id="node14" class="node">
<title>Node14</title>
<g id="a_node14"><a xlink:title=" ">
<polygon fill="white" stroke="#bfbfbf" points="355,-0.5 355,-19.5 405,-19.5 405,-0.5 355,-0.5"/>
<text text-anchor="middle" x="380" y="-7.5" font-family="Helvetica,sans-Serif" font-size="10.00">fstream</text>
</a>
</g>
</g>
<!-- Node7&#45;&gt;Node14 -->
<g id="edge14" class="edge">
<title>Node7&#45;&gt;Node14</title>
<path fill="none" stroke="midnightblue" d="M516.2,-56.68C489.09,-47.59 445.47,-32.96 414.92,-22.71"/>
<polygon fill="midnightblue" stroke="midnightblue" points="415.69,-19.28 405.1,-19.42 413.46,-25.92 415.69,-19.28"/>
</g>
<!-- Node15 -->
<g id="node15" class="node">
<title>Node15</title>
<g id="a_node15"><a xlink:title=" ">
<polygon fill="white" stroke="#bfbfbf" points="423.5,-0.5 423.5,-19.5 472.5,-19.5 472.5,-0.5 423.5,-0.5"/>
<text text-anchor="middle" x="448" y="-7.5" font-family="Helvetica,sans-Serif" font-size="10.00">cassert</text>
</a>
</g>
</g>
<!-- Node7&#45;&gt;Node15 -->
<g id="edge15" class="edge">
<title>Node7&#45;&gt;Node15</title>
<path fill="none" stroke="midnightblue" d="M526.06,-56.32C511.41,-47.82 488.87,-34.73 471.76,-24.8"/>
<polygon fill="midnightblue" stroke="midnightblue" points="473.31,-21.65 462.9,-19.65 469.8,-27.7 473.31,-21.65"/>
</g>
<!-- Node16 -->
<g id="node16" class="node">
<title>Node16</title>
<g id="a_node16"><a xlink:title=" ">
<polygon fill="white" stroke="#bfbfbf" points="491,-0.5 491,-19.5 535,-19.5 535,-0.5 491,-0.5"/>
<text text-anchor="middle" x="513" y="-7.5" font-family="Helvetica,sans-Serif" font-size="10.00">cmath</text>
</a>
</g>
</g>
<!-- Node7&#45;&gt;Node16 -->
<g id="edge16" class="edge">
<title>Node7&#45;&gt;Node16</title>
<path fill="none" stroke="midnightblue" d="M536.38,-56.08C532.54,-48.69 526.98,-37.95 522.24,-28.81"/>
<polygon fill="midnightblue" stroke="midnightblue" points="525.25,-27.02 517.54,-19.75 519.03,-30.24 525.25,-27.02"/>
</g>
<!-- Node22 -->
<g id="node22" class="node">
<title>Node22</title>
<g id="a_node22"><a xlink:title=" ">
<polygon fill="white" stroke="#bfbfbf" points="207,-0.5 207,-19.5 263,-19.5 263,-0.5 207,-0.5"/>
<text text-anchor="middle" x="235" y="-7.5" font-family="Helvetica,sans-Serif" font-size="10.00">Python.h</text>
</a>
</g>
</g>
<!-- Node21&#45;&gt;Node22 -->
<g id="edge22" class="edge">
<title>Node21&#45;&gt;Node22</title>
<path fill="none" stroke="midnightblue" d="M349.45,-56.44C326.97,-47.52 291.51,-33.44 266.02,-23.32"/>
<polygon fill="midnightblue" stroke="midnightblue" points="267.03,-19.95 256.45,-19.52 264.45,-26.46 267.03,-19.95"/>
</g>
<!-- Node23&#45;&gt;Node7 -->
<g id="edge25" class="edge">
<title>Node23&#45;&gt;Node7</title>
<path fill="none" stroke="midnightblue" d="M561.87,-112.08C558.49,-104.77 553.58,-94.18 549.38,-85.1"/>
<polygon fill="midnightblue" stroke="midnightblue" points="552.43,-83.36 545.05,-75.75 546.08,-86.3 552.43,-83.36"/>
</g>
<!-- Node24 -->
<g id="node24" class="node">
<title>Node24</title>
<g id="a_node24"><a xlink:title=" ">
<polygon fill="white" stroke="#bfbfbf" points="583.5,-56.5 583.5,-75.5 626.5,-75.5 626.5,-56.5 583.5,-56.5"/>
<text text-anchor="middle" x="605" y="-63.5" font-family="Helvetica,sans-Serif" font-size="10.00">cstdio</text>
</a>
</g>
</g>
<!-- Node23&#45;&gt;Node24 -->
<g id="edge26" class="edge">
<title>Node23&#45;&gt;Node24</title>
<path fill="none" stroke="midnightblue" d="M572.44,-112.08C577.95,-104.46 586.03,-93.26 592.76,-83.94"/>
<polygon fill="midnightblue" stroke="midnightblue" points="595.66,-85.91 598.68,-75.75 589.99,-81.81 595.66,-85.91"/>
</g>
</g>
</svg>
