<?xml version="1.0" encoding="UTF-8" standalone="no"?>
<!DOCTYPE svg PUBLIC "-//W3C//DTD SVG 1.1//EN"
 "http://www.w3.org/Graphics/SVG/1.1/DTD/svg11.dtd">
<!-- Generated by graphviz version 2.40.1 (20161225.0304)
 -->
<!-- Title: ParallelMeshConverter.cpp Pages: 1 -->
<svg width="894pt" height="196pt"
 viewBox="0.00 0.00 894.00 196.00" xmlns="http://www.w3.org/2000/svg" xmlns:xlink="http://www.w3.org/1999/xlink">
<g id="graph0" class="graph" transform="scale(1 1) rotate(0) translate(4 192)">
<title>ParallelMeshConverter.cpp</title>
<polygon fill="#ffffff" stroke="transparent" points="-4,4 -4,-192 890,-192 890,4 -4,4"/>
<!-- Node0 -->
<g id="node1" class="node">
<title>Node0</title>
<polygon fill="#bfbfbf" stroke="#000000" points="537,-168.5 537,-187.5 671,-187.5 671,-168.5 537,-168.5"/>
<text text-anchor="middle" x="604" y="-175.5" font-family="Helvetica,sans-Serif" font-size="10.00" fill="#000000">ParallelMeshConverter.cpp</text>
</g>
<!-- Node1 -->
<g id="node2" class="node">
<title>Node1</title>
<polygon fill="#ffffff" stroke="#bfbfbf" points="281,-.5 281,-19.5 337,-19.5 337,-.5 281,-.5"/>
<text text-anchor="middle" x="309" y="-7.5" font-family="Helvetica,sans-Serif" font-size="10.00" fill="#000000">algorithm</text>
</g>
<!-- Node0&#45;&gt;Node1 -->
<g id="edge1" class="edge">
<title>Node0&#45;&gt;Node1</title>
<path fill="none" stroke="#191970" d="M579.4546,-168.4519C560.317,-160.3549 533.6181,-147.5847 513,-132 476.3659,-104.3091 481.4479,-81.1116 443,-56 426.9502,-45.5173 380.7658,-30.746 347.0943,-20.795"/>
<polygon fill="#191970" stroke="#191970" points="347.6739,-17.318 337.0935,-17.8716 345.7098,-24.0368 347.6739,-17.318"/>
</g>
<!-- Node2 -->
<g id="node3" class="node">
<title>Node2</title>
<polygon fill="#ffffff" stroke="#bfbfbf" points="621.5,-112.5 621.5,-131.5 662.5,-131.5 662.5,-112.5 621.5,-112.5"/>
<text text-anchor="middle" x="642" y="-119.5" font-family="Helvetica,sans-Serif" font-size="10.00" fill="#000000">mpi.h</text>
</g>
<!-- Node0&#45;&gt;Node2 -->
<g id="edge2" class="edge">
<title>Node0&#45;&gt;Node2</title>
<path fill="none" stroke="#191970" d="M610.6191,-168.2455C615.9046,-160.4564 623.4541,-149.3308 629.8238,-139.9439"/>
<polygon fill="#191970" stroke="#191970" points="632.7379,-141.8827 635.4568,-131.6427 626.9455,-137.9522 632.7379,-141.8827"/>
</g>
<!-- Node3 -->
<g id="node4" class="node">
<title>Node3</title>
<polygon fill="#ffffff" stroke="#bfbfbf" points="680.5,-112.5 680.5,-131.5 727.5,-131.5 727.5,-112.5 680.5,-112.5"/>
<text text-anchor="middle" x="704" y="-119.5" font-family="Helvetica,sans-Serif" font-size="10.00" fill="#000000">PCU.h</text>
</g>
<!-- Node0&#45;&gt;Node3 -->
<g id="edge3" class="edge">
<title>Node0&#45;&gt;Node3</title>
<path fill="none" stroke="#191970" d="M621.4187,-168.2455C637.0485,-159.4928 660.2019,-146.527 678.0185,-136.5496"/>
<polygon fill="#191970" stroke="#191970" points="679.766,-139.5825 686.7809,-131.6427 676.3457,-133.475 679.766,-139.5825"/>
</g>
<!-- Node4 -->
<g id="node5" class="node">
<title>Node4</title>
<polygon fill="#ffffff" stroke="#bfbfbf" points="746,-112.5 746,-131.5 798,-131.5 798,-112.5 746,-112.5"/>
<text text-anchor="middle" x="772" y="-119.5" font-family="Helvetica,sans-Serif" font-size="10.00" fill="#000000">sstream</text>
</g>
<!-- Node0&#45;&gt;Node4 -->
<g id="edge4" class="edge">
<title>Node0&#45;&gt;Node4</title>
<path fill="none" stroke="#191970" d="M632.8802,-168.3733C661.578,-158.8073 705.6431,-144.119 736.4696,-133.8435"/>
<polygon fill="#191970" stroke="#191970" points="737.5967,-137.1572 745.9767,-130.6744 735.3831,-130.5164 737.5967,-137.1572"/>
</g>
<!-- Node5 -->
<g id="node6" class="node">
<title>Node5</title>
<g id="a_node6"><a xlink:href="_mesh_adapt_p_u_m_i_8h.html" target="_top" xlink:title="MeshAdaptPUMI.h">
<polygon fill="#ffffff" stroke="#000000" points="221,-112.5 221,-131.5 321,-131.5 321,-112.5 221,-112.5"/>
<text text-anchor="middle" x="271" y="-119.5" font-family="Helvetica,sans-Serif" font-size="10.00" fill="#000000">MeshAdaptPUMI.h</text>
</a>
</g>
</g>
<!-- Node0&#45;&gt;Node5 -->
<g id="edge5" class="edge">
<title>Node0&#45;&gt;Node5</title>
<path fill="none" stroke="#191970" d="M547.1336,-168.4369C486.9541,-158.3166 392.3769,-142.4117 331.0255,-132.0944"/>
<polygon fill="#191970" stroke="#191970" points="331.5418,-128.6321 321.0998,-130.4252 330.3809,-135.5352 331.5418,-128.6321"/>
</g>
<!-- Node6 -->
<g id="node7" class="node">
<title>Node6</title>
<g id="a_node7"><a xlink:href="mesh_8h.html" target="_top" xlink:title="mesh.h">
<polygon fill="#ffffff" stroke="#000000" points="516.5,-56.5 516.5,-75.5 565.5,-75.5 565.5,-56.5 516.5,-56.5"/>
<text text-anchor="middle" x="541" y="-63.5" font-family="Helvetica,sans-Serif" font-size="10.00" fill="#000000">mesh.h</text>
</a>
</g>
</g>
<!-- Node0&#45;&gt;Node6 -->
<g id="edge23" class="edge">
<title>Node0&#45;&gt;Node6</title>
<path fill="none" stroke="#191970" d="M569.2773,-168.4044C551.1949,-161.4487 530.6791,-150.0236 520,-132 511.1354,-117.0388 518.9891,-97.9175 527.5006,-84.1115"/>
<polygon fill="#191970" stroke="#191970" points="530.6067,-85.7658 533.3009,-75.5192 524.8049,-81.8492 530.6067,-85.7658"/>
</g>
<!-- Node22 -->
<g id="node23" class="node">
<title>Node22</title>
<g id="a_node23"><a xlink:href="_dump_mesh_8h.html" target="_top" xlink:title="DumpMesh.h">
<polygon fill="#ffffff" stroke="#000000" points="528.5,-112.5 528.5,-131.5 603.5,-131.5 603.5,-112.5 528.5,-112.5"/>
<text text-anchor="middle" x="566" y="-119.5" font-family="Helvetica,sans-Serif" font-size="10.00" fill="#000000">DumpMesh.h</text>
</a>
</g>
</g>
<!-- Node0&#45;&gt;Node22 -->
<g id="edge24" class="edge">
<title>Node0&#45;&gt;Node22</title>
<path fill="none" stroke="#191970" d="M597.3809,-168.2455C592.0954,-160.4564 584.5459,-149.3308 578.1762,-139.9439"/>
<polygon fill="#191970" stroke="#191970" points="581.0545,-137.9522 572.5432,-131.6427 575.2621,-141.8827 581.0545,-137.9522"/>
</g>
<!-- Node24 -->
<g id="node25" class="node">
<title>Node24</title>
<polygon fill="#ffffff" stroke="#bfbfbf" points="816,-112.5 816,-131.5 862,-131.5 862,-112.5 816,-112.5"/>
<text text-anchor="middle" x="839" y="-119.5" font-family="Helvetica,sans-Serif" font-size="10.00" fill="#000000">cstring</text>
</g>
<!-- Node0&#45;&gt;Node24 -->
<g id="edge27" class="edge">
<title>Node0&#45;&gt;Node24</title>
<path fill="none" stroke="#191970" d="M651.0262,-168.4596C690.1603,-160.2693 747.5166,-147.6871 806.1849,-132.0681"/>
<polygon fill="#191970" stroke="#191970" points="807.2439,-135.4078 815.9924,-129.4316 805.4266,-128.6478 807.2439,-135.4078"/>
</g>
<!-- Node5&#45;&gt;Node6 -->
<g id="edge6" class="edge">
<title>Node5&#45;&gt;Node6</title>
<path fill="none" stroke="#191970" d="M317.1079,-112.4369C370.71,-101.3194 457.9693,-83.2212 506.1982,-73.2182"/>
<polygon fill="#191970" stroke="#191970" points="507.0747,-76.6109 516.1555,-71.1529 505.653,-69.7568 507.0747,-76.6109"/>
</g>
<!-- Node16 -->
<g id="node17" class="node">
<title>Node16</title>
<polygon fill="#ffffff" stroke="#bfbfbf" points="252,-56.5 252,-75.5 290,-75.5 290,-56.5 252,-56.5"/>
<text text-anchor="middle" x="271" y="-63.5" font-family="Helvetica,sans-Serif" font-size="10.00" fill="#000000">apf.h</text>
</g>
<!-- Node5&#45;&gt;Node16 -->
<g id="edge17" class="edge">
<title>Node5&#45;&gt;Node16</title>
<path fill="none" stroke="#191970" d="M271,-112.2455C271,-104.9382 271,-94.6944 271,-85.7046"/>
<polygon fill="#191970" stroke="#191970" points="274.5001,-85.6426 271,-75.6427 267.5001,-85.6427 274.5001,-85.6426"/>
</g>
<!-- Node17 -->
<g id="node18" class="node">
<title>Node17</title>
<polygon fill="#ffffff" stroke="#bfbfbf" points="0,-56.5 0,-75.5 68,-75.5 68,-56.5 0,-56.5"/>
<text text-anchor="middle" x="34" y="-63.5" font-family="Helvetica,sans-Serif" font-size="10.00" fill="#000000">apfMesh2.h</text>
</g>
<!-- Node5&#45;&gt;Node17 -->
<g id="edge18" class="edge">
<title>Node5&#45;&gt;Node17</title>
<path fill="none" stroke="#191970" d="M230.5275,-112.4369C188.0896,-102.4094 121.617,-86.7027 77.9272,-76.3794"/>
<polygon fill="#191970" stroke="#191970" points="78.6913,-72.9637 68.1544,-74.0702 77.0816,-79.7761 78.6913,-72.9637"/>
</g>
<!-- Node18 -->
<g id="node19" class="node">
<title>Node18</title>
<polygon fill="#ffffff" stroke="#bfbfbf" points="86,-56.5 86,-75.5 172,-75.5 172,-56.5 86,-56.5"/>
<text text-anchor="middle" x="129" y="-63.5" font-family="Helvetica,sans-Serif" font-size="10.00" fill="#000000">apfNumbering.h</text>
</g>
<!-- Node5&#45;&gt;Node18 -->
<g id="edge19" class="edge">
<title>Node5&#45;&gt;Node18</title>
<path fill="none" stroke="#191970" d="M246.5893,-112.3733C223.3858,-103.2226 188.2962,-89.3844 162.4858,-79.2057"/>
<polygon fill="#191970" stroke="#191970" points="163.6789,-75.9139 153.0921,-75.5011 161.1108,-82.4258 163.6789,-75.9139"/>
</g>
<!-- Node19 -->
<g id="node20" class="node">
<title>Node19</title>
<polygon fill="#ffffff" stroke="#bfbfbf" points="190.5,-56.5 190.5,-75.5 233.5,-75.5 233.5,-56.5 190.5,-56.5"/>
<text text-anchor="middle" x="212" y="-63.5" font-family="Helvetica,sans-Serif" font-size="10.00" fill="#000000">queue</text>
</g>
<!-- Node5&#45;&gt;Node19 -->
<g id="edge20" class="edge">
<title>Node5&#45;&gt;Node19</title>
<path fill="none" stroke="#191970" d="M260.723,-112.2455C252.1782,-104.1352 239.8222,-92.4075 229.6915,-82.7919"/>
<polygon fill="#191970" stroke="#191970" points="231.8218,-79.9884 222.1592,-75.6427 227.0028,-85.0655 231.8218,-79.9884"/>
</g>
<!-- Node20 -->
<g id="node21" class="node">
<title>Node20</title>
<g id="a_node21"><a xlink:href="_py_embedded_functions_8h.html" target="_top" xlink:title="PyEmbeddedFunctions.h">
<polygon fill="#ffffff" stroke="#000000" points="308,-56.5 308,-75.5 434,-75.5 434,-56.5 308,-56.5"/>
<text text-anchor="middle" x="371" y="-63.5" font-family="Helvetica,sans-Serif" font-size="10.00" fill="#000000">PyEmbeddedFunctions.h</text>
</a>
</g>
</g>
<!-- Node5&#45;&gt;Node20 -->
<g id="edge21" class="edge">
<title>Node5&#45;&gt;Node20</title>
<path fill="none" stroke="#191970" d="M288.4187,-112.2455C304.0485,-103.4928 327.2019,-90.527 345.0185,-80.5496"/>
<polygon fill="#191970" stroke="#191970" points="346.766,-83.5825 353.7809,-75.6427 343.3457,-77.475 346.766,-83.5825"/>
</g>
<!-- Node6&#45;&gt;Node1 -->
<g id="edge9" class="edge">
<title>Node6&#45;&gt;Node1</title>
<path fill="none" stroke="#191970" d="M516.3118,-60.4451C480.9793,-52.4373 413.7268,-36.9809 347.0817,-20.2196"/>
<polygon fill="#191970" stroke="#191970" points="347.8098,-16.7936 337.2571,-17.7378 346.0954,-23.5804 347.8098,-16.7936"/>
</g>
<!-- Node7 -->
<g id="node8" class="node">
<title>Node7</title>
<polygon fill="#ffffff" stroke="#bfbfbf" points="553,-.5 553,-19.5 583,-19.5 583,-.5 553,-.5"/>
<text text-anchor="middle" x="568" y="-7.5" font-family="Helvetica,sans-Serif" font-size="10.00" fill="#000000">set</text>
</g>
<!-- Node6&#45;&gt;Node7 -->
<g id="edge7" class="edge">
<title>Node6&#45;&gt;Node7</title>
<path fill="none" stroke="#191970" d="M545.703,-56.2455C549.3424,-48.6973 554.4924,-38.0158 558.9262,-28.8197"/>
<polygon fill="#191970" stroke="#191970" points="562.1605,-30.1704 563.3509,-19.6427 555.8551,-27.1303 562.1605,-30.1704"/>
</g>
<!-- Node8 -->
<g id="node9" class="node">
<title>Node8</title>
<polygon fill="#ffffff" stroke="#bfbfbf" points="601,-.5 601,-19.5 645,-19.5 645,-.5 601,-.5"/>
<text text-anchor="middle" x="623" y="-7.5" font-family="Helvetica,sans-Serif" font-size="10.00" fill="#000000">vector</text>
</g>
<!-- Node6&#45;&gt;Node8 -->
<g id="edge8" class="edge">
<title>Node6&#45;&gt;Node8</title>
<path fill="none" stroke="#191970" d="M555.2833,-56.2455C567.747,-47.7337 586.0451,-35.2375 600.4792,-25.3801"/>
<polygon fill="#191970" stroke="#191970" points="602.5962,-28.1726 608.8804,-19.6427 598.6485,-22.392 602.5962,-28.1726"/>
</g>
<!-- Node9 -->
<g id="node10" class="node">
<title>Node9</title>
<polygon fill="#ffffff" stroke="#bfbfbf" points="663.5,-.5 663.5,-19.5 698.5,-19.5 698.5,-.5 663.5,-.5"/>
<text text-anchor="middle" x="681" y="-7.5" font-family="Helvetica,sans-Serif" font-size="10.00" fill="#000000">map</text>
</g>
<!-- Node6&#45;&gt;Node9 -->
<g id="edge10" class="edge">
<title>Node6&#45;&gt;Node9</title>
<path fill="none" stroke="#191970" d="M565.0669,-56.3733C589.7753,-46.4899 628.1542,-31.1383 653.9118,-20.8353"/>
<polygon fill="#191970" stroke="#191970" points="655.4556,-23.9874 663.4405,-17.0238 652.8558,-17.4881 655.4556,-23.9874"/>
</g>
<!-- Node10 -->
<g id="node11" class="node">
<title>Node10</title>
<polygon fill="#ffffff" stroke="#bfbfbf" points="716.5,-.5 716.5,-19.5 745.5,-19.5 745.5,-.5 716.5,-.5"/>
<text text-anchor="middle" x="731" y="-7.5" font-family="Helvetica,sans-Serif" font-size="10.00" fill="#000000">list</text>
</g>
<!-- Node6&#45;&gt;Node10 -->
<g id="edge11" class="edge">
<title>Node6&#45;&gt;Node10</title>
<path fill="none" stroke="#191970" d="M565.8644,-58.6193C568.9382,-57.7269 572.0394,-56.836 575,-56 630.9412,-40.2044 648.448,-40.216 706.3752,-20.2611"/>
<polygon fill="#191970" stroke="#191970" points="707.749,-23.4886 716.0314,-16.8815 705.4365,-16.8815 707.749,-23.4886"/>
</g>
<!-- Node11 -->
<g id="node12" class="node">
<title>Node11</title>
<polygon fill="#ffffff" stroke="#bfbfbf" points="764,-.5 764,-19.5 818,-19.5 818,-.5 764,-.5"/>
<text text-anchor="middle" x="791" y="-7.5" font-family="Helvetica,sans-Serif" font-size="10.00" fill="#000000">iostream</text>
</g>
<!-- Node6&#45;&gt;Node11 -->
<g id="edge12" class="edge">
<title>Node6&#45;&gt;Node11</title>
<path fill="none" stroke="#191970" d="M565.8133,-58.4259C568.8959,-57.5666 572.013,-56.7364 575,-56 651.1182,-37.2335 673.88,-38.7719 753.8811,-20.1263"/>
<polygon fill="#191970" stroke="#191970" points="755.0028,-23.4577 763.9286,-17.7497 753.3914,-16.6457 755.0028,-23.4577"/>
</g>
<!-- Node12 -->
<g id="node13" class="node">
<title>Node12</title>
<polygon fill="#ffffff" stroke="#bfbfbf" points="836,-.5 836,-19.5 886,-19.5 886,-.5 836,-.5"/>
<text text-anchor="middle" x="861" y="-7.5" font-family="Helvetica,sans-Serif" font-size="10.00" fill="#000000">iomanip</text>
</g>
<!-- Node6&#45;&gt;Node12 -->
<g id="edge13" class="edge">
<title>Node6&#45;&gt;Node12</title>
<path fill="none" stroke="#191970" d="M565.7758,-58.2644C568.8648,-57.4328 571.9938,-56.6533 575,-56 682.426,-32.6563 714.6297,-43.3706 825.9173,-19.9699"/>
<polygon fill="#191970" stroke="#191970" points="826.8116,-23.3577 835.8533,-17.8351 825.3412,-16.5138 826.8116,-23.3577"/>
</g>
<!-- Node13 -->
<g id="node14" class="node">
<title>Node13</title>
<polygon fill="#ffffff" stroke="#bfbfbf" points="355,-.5 355,-19.5 405,-19.5 405,-.5 355,-.5"/>
<text text-anchor="middle" x="380" y="-7.5" font-family="Helvetica,sans-Serif" font-size="10.00" fill="#000000">fstream</text>
</g>
<!-- Node6&#45;&gt;Node13 -->
<g id="edge14" class="edge">
<title>Node6&#45;&gt;Node13</title>
<path fill="none" stroke="#191970" d="M516.1966,-57.3727C489.0937,-47.9456 445.4695,-32.772 414.915,-22.1444"/>
<polygon fill="#191970" stroke="#191970" points="415.6917,-18.7089 405.0969,-18.7293 413.392,-25.3204 415.6917,-18.7089"/>
</g>
<!-- Node14 -->
<g id="node15" class="node">
<title>Node14</title>
<polygon fill="#ffffff" stroke="#bfbfbf" points="423.5,-.5 423.5,-19.5 472.5,-19.5 472.5,-.5 423.5,-.5"/>
<text text-anchor="middle" x="448" y="-7.5" font-family="Helvetica,sans-Serif" font-size="10.00" fill="#000000">cassert</text>
</g>
<!-- Node6&#45;&gt;Node14 -->
<g id="edge15" class="edge">
<title>Node6&#45;&gt;Node14</title>
<path fill="none" stroke="#191970" d="M524.8006,-56.2455C510.3982,-47.5731 489.1268,-34.7645 472.6201,-24.825"/>
<polygon fill="#191970" stroke="#191970" points="474.386,-21.8028 464.0137,-19.6427 470.775,-27.7996 474.386,-21.8028"/>
</g>
<!-- Node15 -->
<g id="node16" class="node">
<title>Node15</title>
<polygon fill="#ffffff" stroke="#bfbfbf" points="491,-.5 491,-19.5 535,-19.5 535,-.5 491,-.5"/>
<text text-anchor="middle" x="513" y="-7.5" font-family="Helvetica,sans-Serif" font-size="10.00" fill="#000000">cmath</text>
</g>
<!-- Node6&#45;&gt;Node15 -->
<g id="edge16" class="edge">
<title>Node6&#45;&gt;Node15</title>
<path fill="none" stroke="#191970" d="M536.1228,-56.2455C532.3487,-48.6973 527.0079,-38.0158 522.4099,-28.8197"/>
<polygon fill="#191970" stroke="#191970" points="525.424,-27.0217 517.8213,-19.6427 519.163,-30.1522 525.424,-27.0217"/>
</g>
<!-- Node21 -->
<g id="node22" class="node">
<title>Node21</title>
<polygon fill="#ffffff" stroke="#bfbfbf" points="207,-.5 207,-19.5 263,-19.5 263,-.5 207,-.5"/>
<text text-anchor="middle" x="235" y="-7.5" font-family="Helvetica,sans-Serif" font-size="10.00" fill="#000000">Python.h</text>
</g>
<!-- Node20&#45;&gt;Node21 -->
<g id="edge22" class="edge">
<title>Node20&#45;&gt;Node21</title>
<path fill="none" stroke="#191970" d="M347.6208,-56.3733C325.4955,-47.2629 292.0866,-33.5062 267.3981,-23.3404"/>
<polygon fill="#191970" stroke="#191970" points="268.6536,-20.0723 258.0742,-19.5011 265.9883,-26.5451 268.6536,-20.0723"/>
</g>
<!-- Node22&#45;&gt;Node6 -->
<g id="edge25" class="edge">
<title>Node22&#45;&gt;Node6</title>
<path fill="none" stroke="#191970" d="M561.6453,-112.2455C558.2756,-104.6973 553.507,-94.0158 549.4017,-84.8197"/>
<polygon fill="#191970" stroke="#191970" points="552.5773,-83.3473 545.3048,-75.6427 546.1853,-86.2009 552.5773,-83.3473"/>
</g>
<!-- Node23 -->
<g id="node24" class="node">
<title>Node23</title>
<polygon fill="#ffffff" stroke="#bfbfbf" points="583.5,-56.5 583.5,-75.5 626.5,-75.5 626.5,-56.5 583.5,-56.5"/>
<text text-anchor="middle" x="605" y="-63.5" font-family="Helvetica,sans-Serif" font-size="10.00" fill="#000000">cstdio</text>
</g>
<!-- Node22&#45;&gt;Node23 -->
<g id="edge26" class="edge">
<title>Node22&#45;&gt;Node23</title>
<path fill="none" stroke="#191970" d="M572.7933,-112.2455C578.2178,-104.4564 585.9661,-93.3308 592.5033,-83.9439"/>
<polygon fill="#191970" stroke="#191970" points="595.4417,-85.849 598.2846,-75.6427 589.6975,-81.8485 595.4417,-85.849"/>
</g>
</g>
</svg>
