<?xml version="1.0" encoding="UTF-8" standalone="no"?>
<!DOCTYPE svg PUBLIC "-//W3C//DTD SVG 1.1//EN"
 "http://www.w3.org/Graphics/SVG/1.1/DTD/svg11.dtd">
<!-- Generated by graphviz version 2.43.0 (0)
 -->
<!-- Title: Pres.cpp Pages: 1 -->
<svg width="768pt" height="196pt"
 viewBox="0.00 0.00 768.00 196.00" xmlns="http://www.w3.org/2000/svg" xmlns:xlink="http://www.w3.org/1999/xlink">
<g id="graph0" class="graph" transform="scale(1 1) rotate(0) translate(4 192)">
<title>Pres.cpp</title>
<polygon fill="white" stroke="transparent" points="-4,4 -4,-192 764,-192 764,4 -4,4"/>
<!-- Node1 -->
<g id="node1" class="node">
<title>Node1</title>
<g id="a_node1"><a xlink:title=" ">
<polygon fill="#bfbfbf" stroke="black" points="164.5,-168.5 164.5,-187.5 222.5,-187.5 222.5,-168.5 164.5,-168.5"/>
<text text-anchor="middle" x="193.5" y="-175.5" font-family="Helvetica,sans-Serif" font-size="10.00">Pres.cpp</text>
</a>
</g>
</g>
<!-- Node2 -->
<g id="node2" class="node">
<title>Node2</title>
<g id="a_node2"><a xlink:title=" ">
<polygon fill="white" stroke="#bfbfbf" points="0,-112.5 0,-131.5 119,-131.5 119,-112.5 0,-112.5"/>
<text text-anchor="middle" x="59.5" y="-119.5" font-family="Helvetica,sans-Serif" font-size="10.00">pybind11/pybind11.h</text>
</a>
</g>
</g>
<!-- Node1&#45;&gt;Node2 -->
<g id="edge1" class="edge">
<title>Node1&#45;&gt;Node2</title>
<path fill="none" stroke="midnightblue" d="M172.27,-168.44C150.12,-159.52 115.18,-145.44 90.06,-135.32"/>
<polygon fill="midnightblue" stroke="midnightblue" points="91.22,-132.01 80.63,-131.52 88.6,-138.5 91.22,-132.01"/>
</g>
<!-- Node3 -->
<g id="node3" class="node">
<title>Node3</title>
<g id="a_node3"><a xlink:title=" ">
<polygon fill="white" stroke="#bfbfbf" points="137.5,-112.5 137.5,-131.5 249.5,-131.5 249.5,-112.5 137.5,-112.5"/>
<text text-anchor="middle" x="193.5" y="-119.5" font-family="Helvetica,sans-Serif" font-size="10.00">pybind11/stl_bind.h</text>
</a>
</g>
</g>
<!-- Node1&#45;&gt;Node3 -->
<g id="edge2" class="edge">
<title>Node1&#45;&gt;Node3</title>
<path fill="none" stroke="midnightblue" d="M193.5,-168.08C193.5,-161.01 193.5,-150.86 193.5,-141.99"/>
<polygon fill="midnightblue" stroke="midnightblue" points="197,-141.75 193.5,-131.75 190,-141.75 197,-141.75"/>
</g>
<!-- Node4 -->
<g id="node4" class="node">
<title>Node4</title>
<g id="a_node4"><a xlink:href="_pres_8h.html" target="_top" xlink:title=" ">
<polygon fill="white" stroke="black" points="268,-112.5 268,-131.5 315,-131.5 315,-112.5 268,-112.5"/>
<text text-anchor="middle" x="291.5" y="-119.5" font-family="Helvetica,sans-Serif" font-size="10.00">Pres.h</text>
</a>
</g>
</g>
<!-- Node1&#45;&gt;Node4 -->
<g id="edge3" class="edge">
<title>Node1&#45;&gt;Node4</title>
<path fill="none" stroke="midnightblue" d="M209.25,-168.32C224.82,-159.74 248.88,-146.49 266.96,-136.52"/>
<polygon fill="midnightblue" stroke="midnightblue" points="268.72,-139.55 275.79,-131.65 265.35,-133.42 268.72,-139.55"/>
</g>
<!-- Node5 -->
<g id="node5" class="node">
<title>Node5</title>
<g id="a_node5"><a xlink:title=" ">
<polygon fill="white" stroke="#bfbfbf" points="125,-0.5 125,-19.5 172,-19.5 172,-0.5 125,-0.5"/>
<text text-anchor="middle" x="148.5" y="-7.5" font-family="Helvetica,sans-Serif" font-size="10.00">cmath</text>
</a>
</g>
</g>
<!-- Node4&#45;&gt;Node5 -->
<g id="edge4" class="edge">
<title>Node4&#45;&gt;Node5</title>
<path fill="none" stroke="midnightblue" d="M267.88,-114.51C223.85,-102.39 133.55,-77.38 132.5,-76 122.13,-62.29 129.08,-42.73 136.8,-28.66"/>
<polygon fill="midnightblue" stroke="midnightblue" points="139.9,-30.3 142.06,-19.92 133.9,-26.68 139.9,-30.3"/>
</g>
<!-- Node6 -->
<g id="node6" class="node">
<title>Node6</title>
<g id="a_node6"><a xlink:title=" ">
<polygon fill="white" stroke="#bfbfbf" points="218.5,-0.5 218.5,-19.5 278.5,-19.5 278.5,-0.5 218.5,-0.5"/>
<text text-anchor="middle" x="248.5" y="-7.5" font-family="Helvetica,sans-Serif" font-size="10.00">iostream</text>
</a>
</g>
</g>
<!-- Node4&#45;&gt;Node6 -->
<g id="edge5" class="edge">
<title>Node4&#45;&gt;Node6</title>
<path fill="none" stroke="midnightblue" d="M288.13,-112.37C281.12,-94.46 264.89,-52.92 255.52,-28.95"/>
<polygon fill="midnightblue" stroke="midnightblue" points="258.76,-27.63 251.86,-19.59 252.24,-30.18 258.76,-27.63"/>
</g>
<!-- Node7 -->
<g id="node7" class="node">
<title>Node7</title>
<g id="a_node7"><a xlink:href="_comp_kernel_8h.html" target="_top" xlink:title=" ">
<polygon fill="white" stroke="black" points="142,-56.5 142,-75.5 227,-75.5 227,-56.5 142,-56.5"/>
<text text-anchor="middle" x="184.5" y="-63.5" font-family="Helvetica,sans-Serif" font-size="10.00">CompKernel.h</text>
</a>
</g>
</g>
<!-- Node4&#45;&gt;Node7 -->
<g id="edge6" class="edge">
<title>Node4&#45;&gt;Node7</title>
<path fill="none" stroke="midnightblue" d="M274.31,-112.32C257.15,-103.66 230.55,-90.24 210.75,-80.25"/>
<polygon fill="midnightblue" stroke="midnightblue" points="212.15,-77.04 201.65,-75.65 209,-83.28 212.15,-77.04"/>
</g>
<!-- Node8 -->
<g id="node8" class="node">
<title>Node8</title>
<g id="a_node8"><a xlink:href="_model_factory_8h.html" target="_top" xlink:title=" ">
<polygon fill="white" stroke="black" points="284,-56.5 284,-75.5 373,-75.5 373,-56.5 284,-56.5"/>
<text text-anchor="middle" x="328.5" y="-63.5" font-family="Helvetica,sans-Serif" font-size="10.00">ModelFactory.h</text>
</a>
</g>
</g>
<!-- Node4&#45;&gt;Node8 -->
<g id="edge8" class="edge">
<title>Node4&#45;&gt;Node8</title>
<path fill="none" stroke="midnightblue" d="M297.61,-112.08C302.78,-104.53 310.35,-93.49 316.69,-84.23"/>
<polygon fill="midnightblue" stroke="midnightblue" points="319.74,-85.98 322.5,-75.75 313.96,-82.02 319.74,-85.98"/>
</g>
<!-- Node9 -->
<g id="node9" class="node">
<title>Node9</title>
<g id="a_node9"><a xlink:href="_arguments_dict_8h.html" target="_top" xlink:title=" ">
<polygon fill="white" stroke="black" points="403.5,-56.5 403.5,-75.5 501.5,-75.5 501.5,-56.5 403.5,-56.5"/>
<text text-anchor="middle" x="452.5" y="-63.5" font-family="Helvetica,sans-Serif" font-size="10.00">ArgumentsDict.h</text>
</a>
</g>
</g>
<!-- Node4&#45;&gt;Node9 -->
<g id="edge10" class="edge">
<title>Node4&#45;&gt;Node9</title>
<path fill="none" stroke="midnightblue" d="M315.26,-113.03C342.25,-103.98 386.56,-89.12 417.51,-78.74"/>
<polygon fill="midnightblue" stroke="midnightblue" points="418.68,-82.03 427.05,-75.54 416.46,-75.4 418.68,-82.03"/>
</g>
<!-- Node13 -->
<g id="node13" class="node">
<title>Node13</title>
<g id="a_node13"><a xlink:title=" ">
<polygon fill="white" stroke="#bfbfbf" points="609,-0.5 609,-19.5 760,-19.5 760,-0.5 609,-0.5"/>
<text text-anchor="middle" x="684.5" y="-7.5" font-family="Helvetica,sans-Serif" font-size="10.00">xtensor&#45;python/pyarray.hpp</text>
</a>
</g>
</g>
<!-- Node4&#45;&gt;Node13 -->
<g id="edge16" class="edge">
<title>Node4&#45;&gt;Node13</title>
<path fill="none" stroke="midnightblue" d="M315.13,-117.38C355.59,-110.91 440.56,-96.12 510.5,-76 562.54,-61.03 621.18,-37.73 655.36,-23.47"/>
<polygon fill="midnightblue" stroke="midnightblue" points="656.88,-26.63 664.74,-19.53 654.17,-20.18 656.88,-26.63"/>
</g>
<!-- Node7&#45;&gt;Node5 -->
<g id="edge7" class="edge">
<title>Node7&#45;&gt;Node5</title>
<path fill="none" stroke="midnightblue" d="M178.56,-56.08C173.52,-48.53 166.16,-37.49 159.99,-28.23"/>
<polygon fill="midnightblue" stroke="midnightblue" points="162.79,-26.13 154.33,-19.75 156.97,-30.01 162.79,-26.13"/>
</g>
<!-- Node8&#45;&gt;Node6 -->
<g id="edge9" class="edge">
<title>Node8&#45;&gt;Node6</title>
<path fill="none" stroke="midnightblue" d="M315.65,-56.32C303.28,-47.98 284.37,-35.21 269.76,-25.35"/>
<polygon fill="midnightblue" stroke="midnightblue" points="271.57,-22.35 261.32,-19.65 267.65,-28.15 271.57,-22.35"/>
</g>
<!-- Node10 -->
<g id="node10" class="node">
<title>Node10</title>
<g id="a_node10"><a xlink:title=" ">
<polygon fill="white" stroke="#bfbfbf" points="296.5,-0.5 296.5,-19.5 334.5,-19.5 334.5,-0.5 296.5,-0.5"/>
<text text-anchor="middle" x="315.5" y="-7.5" font-family="Helvetica,sans-Serif" font-size="10.00">map</text>
</a>
</g>
</g>
<!-- Node9&#45;&gt;Node10 -->
<g id="edge11" class="edge">
<title>Node9&#45;&gt;Node10</title>
<path fill="none" stroke="midnightblue" d="M430.79,-56.44C407.48,-47.25 370.32,-32.61 344.51,-22.43"/>
<polygon fill="midnightblue" stroke="midnightblue" points="345.48,-19.05 334.89,-18.64 342.91,-25.57 345.48,-19.05"/>
</g>
<!-- Node11 -->
<g id="node11" class="node">
<title>Node11</title>
<g id="a_node11"><a xlink:title=" ">
<polygon fill="white" stroke="#bfbfbf" points="353,-0.5 353,-19.5 418,-19.5 418,-0.5 353,-0.5"/>
<text text-anchor="middle" x="385.5" y="-7.5" font-family="Helvetica,sans-Serif" font-size="10.00">stdexcept</text>
</a>
</g>
</g>
<!-- Node9&#45;&gt;Node11 -->
<g id="edge12" class="edge">
<title>Node9&#45;&gt;Node11</title>
<path fill="none" stroke="midnightblue" d="M441.74,-56.32C431.73,-48.26 416.61,-36.08 404.57,-26.37"/>
<polygon fill="midnightblue" stroke="midnightblue" points="406.44,-23.38 396.46,-19.83 402.05,-28.83 406.44,-23.38"/>
</g>
<!-- Node12 -->
<g id="node12" class="node">
<title>Node12</title>
<g id="a_node12"><a xlink:title=" ">
<polygon fill="white" stroke="#bfbfbf" points="436.5,-0.5 436.5,-19.5 480.5,-19.5 480.5,-0.5 436.5,-0.5"/>
<text text-anchor="middle" x="458.5" y="-7.5" font-family="Helvetica,sans-Serif" font-size="10.00">string</text>
</a>
</g>
</g>
<!-- Node9&#45;&gt;Node12 -->
<g id="edge13" class="edge">
<title>Node9&#45;&gt;Node12</title>
<path fill="none" stroke="midnightblue" d="M453.49,-56.08C454.29,-48.93 455.43,-38.64 456.42,-29.69"/>
<polygon fill="midnightblue" stroke="midnightblue" points="459.9,-30.08 457.53,-19.75 452.94,-29.3 459.9,-30.08"/>
</g>
<!-- Node9&#45;&gt;Node13 -->
<g id="edge14" class="edge">
<title>Node9&#45;&gt;Node13</title>
<path fill="none" stroke="midnightblue" d="M489.26,-56.44C529.56,-47.06 594.31,-31.99 638.08,-21.8"/>
<polygon fill="midnightblue" stroke="midnightblue" points="638.96,-25.19 647.91,-19.52 637.38,-18.37 638.96,-25.19"/>
</g>
<!-- Node14 -->
<g id="node14" class="node">
<title>Node14</title>
<g id="a_node14"><a xlink:title=" ">
<polygon fill="white" stroke="#bfbfbf" points="498.5,-0.5 498.5,-19.5 590.5,-19.5 590.5,-0.5 498.5,-0.5"/>
<text text-anchor="middle" x="544.5" y="-7.5" font-family="Helvetica,sans-Serif" font-size="10.00">xtensor/xio.hpp</text>
</a>
</g>
</g>
<!-- Node9&#45;&gt;Node14 -->
<g id="edge15" class="edge">
<title>Node9&#45;&gt;Node14</title>
<path fill="none" stroke="midnightblue" d="M467.28,-56.32C481.77,-47.82 504.07,-34.73 520.99,-24.8"/>
<polygon fill="midnightblue" stroke="midnightblue" points="522.9,-27.74 529.76,-19.65 519.36,-21.7 522.9,-27.74"/>
</g>
</g>
</svg>
