<?xml version="1.0" encoding="UTF-8" standalone="no"?>
<!DOCTYPE svg PUBLIC "-//W3C//DTD SVG 1.1//EN"
 "http://www.w3.org/Graphics/SVG/1.1/DTD/svg11.dtd">
<!-- Generated by graphviz version 2.50.0 (20211204.2007)
 -->
<!-- Title: Pres.cpp Pages: 1 -->
<svg width="703pt" height="196pt"
 viewBox="0.00 0.00 703.00 196.00" xmlns="http://www.w3.org/2000/svg" xmlns:xlink="http://www.w3.org/1999/xlink">
<g id="graph0" class="graph" transform="scale(1 1) rotate(0) translate(4 192)">
<title>Pres.cpp</title>
<polygon fill="white" stroke="transparent" points="-4,4 -4,-192 699,-192 699,4 -4,4"/>
<!-- Node1 -->
<g id="node1" class="node">
<title>Node1</title>
<g id="a_node1"><a xlink:title=" ">
<polygon fill="#bfbfbf" stroke="black" points="147,-168.5 147,-187.5 203,-187.5 203,-168.5 147,-168.5"/>
<text text-anchor="middle" x="175" y="-175.5" font-family="Helvetica,sans-Serif" font-size="10.00">Pres.cpp</text>
</a>
</g>
</g>
<!-- Node2 -->
<g id="node2" class="node">
<title>Node2</title>
<g id="a_node2"><a xlink:title=" ">
<polygon fill="white" stroke="#bfbfbf" points="0,-112.5 0,-131.5 106,-131.5 106,-112.5 0,-112.5"/>
<text text-anchor="middle" x="53" y="-119.5" font-family="Helvetica,sans-Serif" font-size="10.00">pybind11/pybind11.h</text>
</a>
</g>
</g>
<!-- Node1&#45;&gt;Node2 -->
<g id="edge1" class="edge">
<title>Node1&#45;&gt;Node2</title>
<path fill="none" stroke="midnightblue" d="M155.67,-168.44C135.68,-159.6 104.26,-145.69 81.44,-135.59"/>
<polygon fill="midnightblue" stroke="midnightblue" points="82.8,-132.36 72.24,-131.52 79.97,-138.76 82.8,-132.36"/>
</g>
<!-- Node3 -->
<g id="node3" class="node">
<title>Node3</title>
<g id="a_node3"><a xlink:title=" ">
<polygon fill="white" stroke="#bfbfbf" points="124.5,-112.5 124.5,-131.5 225.5,-131.5 225.5,-112.5 124.5,-112.5"/>
<text text-anchor="middle" x="175" y="-119.5" font-family="Helvetica,sans-Serif" font-size="10.00">pybind11/stl_bind.h</text>
</a>
</g>
</g>
<!-- Node1&#45;&gt;Node3 -->
<g id="edge2" class="edge">
<title>Node1&#45;&gt;Node3</title>
<path fill="none" stroke="midnightblue" d="M175,-168.08C175,-161.01 175,-150.86 175,-141.99"/>
<polygon fill="midnightblue" stroke="midnightblue" points="178.5,-141.75 175,-131.75 171.5,-141.75 178.5,-141.75"/>
</g>
<!-- Node4 -->
<g id="node4" class="node">
<title>Node4</title>
<g id="a_node4"><a xlink:href="_pres_8h.html" target="_top" xlink:title=" ">
<polygon fill="white" stroke="black" points="243.5,-112.5 243.5,-131.5 288.5,-131.5 288.5,-112.5 243.5,-112.5"/>
<text text-anchor="middle" x="266" y="-119.5" font-family="Helvetica,sans-Serif" font-size="10.00">Pres.h</text>
</a>
</g>
</g>
<!-- Node1&#45;&gt;Node4 -->
<g id="edge3" class="edge">
<title>Node1&#45;&gt;Node4</title>
<path fill="none" stroke="midnightblue" d="M189.62,-168.32C203.95,-159.82 226.01,-146.73 242.75,-136.8"/>
<polygon fill="midnightblue" stroke="midnightblue" points="244.6,-139.77 251.42,-131.65 241.03,-133.75 244.6,-139.77"/>
</g>
<!-- Node5 -->
<g id="node5" class="node">
<title>Node5</title>
<g id="a_node5"><a xlink:title=" ">
<polygon fill="white" stroke="#bfbfbf" points="107,-0.5 107,-19.5 151,-19.5 151,-0.5 107,-0.5"/>
<text text-anchor="middle" x="129" y="-7.5" font-family="Helvetica,sans-Serif" font-size="10.00">cmath</text>
</a>
</g>
</g>
<!-- Node4&#45;&gt;Node5 -->
<g id="edge4" class="edge">
<title>Node4&#45;&gt;Node5</title>
<path fill="none" stroke="midnightblue" d="M243.42,-114.5C201.33,-102.36 115,-77.33 114,-76 103.75,-62.28 110.35,-42.72 117.75,-28.65"/>
<polygon fill="midnightblue" stroke="midnightblue" points="120.82,-30.33 122.8,-19.92 114.76,-26.82 120.82,-30.33"/>
</g>
<!-- Node6 -->
<g id="node6" class="node">
<title>Node6</title>
<g id="a_node6"><a xlink:title=" ">
<polygon fill="white" stroke="#bfbfbf" points="198,-0.5 198,-19.5 252,-19.5 252,-0.5 198,-0.5"/>
<text text-anchor="middle" x="225" y="-7.5" font-family="Helvetica,sans-Serif" font-size="10.00">iostream</text>
</a>
</g>
</g>
<!-- Node4&#45;&gt;Node6 -->
<g id="edge5" class="edge">
<title>Node4&#45;&gt;Node6</title>
<path fill="none" stroke="midnightblue" d="M262.78,-112.37C256.14,-94.54 240.76,-53.3 231.81,-29.27"/>
<polygon fill="midnightblue" stroke="midnightblue" points="234.97,-27.74 228.2,-19.59 228.42,-30.18 234.97,-27.74"/>
</g>
<!-- Node7 -->
<g id="node7" class="node">
<title>Node7</title>
<g id="a_node7"><a xlink:href="_comp_kernel_8h.html" target="_top" xlink:title=" ">
<polygon fill="white" stroke="black" points="123.5,-56.5 123.5,-75.5 202.5,-75.5 202.5,-56.5 123.5,-56.5"/>
<text text-anchor="middle" x="163" y="-63.5" font-family="Helvetica,sans-Serif" font-size="10.00">CompKernel.h</text>
</a>
</g>
</g>
<!-- Node4&#45;&gt;Node7 -->
<g id="edge6" class="edge">
<title>Node4&#45;&gt;Node7</title>
<path fill="none" stroke="midnightblue" d="M249.45,-112.32C233.01,-103.7 207.57,-90.36 188.53,-80.39"/>
<polygon fill="midnightblue" stroke="midnightblue" points="189.99,-77.2 179.51,-75.65 186.74,-83.4 189.99,-77.2"/>
</g>
<!-- Node8 -->
<g id="node8" class="node">
<title>Node8</title>
<g id="a_node8"><a xlink:href="_model_factory_8h.html" target="_top" xlink:title=" ">
<polygon fill="white" stroke="black" points="259.5,-56.5 259.5,-75.5 342.5,-75.5 342.5,-56.5 259.5,-56.5"/>
<text text-anchor="middle" x="301" y="-63.5" font-family="Helvetica,sans-Serif" font-size="10.00">ModelFactory.h</text>
</a>
</g>
</g>
<!-- Node4&#45;&gt;Node8 -->
<g id="edge8" class="edge">
<title>Node4&#45;&gt;Node8</title>
<path fill="none" stroke="midnightblue" d="M271.78,-112.08C276.67,-104.53 283.83,-93.49 289.83,-84.23"/>
<polygon fill="midnightblue" stroke="midnightblue" points="292.83,-86.05 295.33,-75.75 286.95,-82.24 292.83,-86.05"/>
</g>
<!-- Node9 -->
<g id="node9" class="node">
<title>Node9</title>
<g id="a_node9"><a xlink:href="_arguments_dict_8h.html" target="_top" xlink:title=" ">
<polygon fill="white" stroke="black" points="371,-56.5 371,-75.5 461,-75.5 461,-56.5 371,-56.5"/>
<text text-anchor="middle" x="416" y="-63.5" font-family="Helvetica,sans-Serif" font-size="10.00">ArgumentsDict.h</text>
</a>
</g>
</g>
<!-- Node4&#45;&gt;Node9 -->
<g id="edge10" class="edge">
<title>Node4&#45;&gt;Node9</title>
<path fill="none" stroke="midnightblue" d="M288.78,-112.8C313.71,-103.83 353.91,-89.35 382.45,-79.08"/>
<polygon fill="midnightblue" stroke="midnightblue" points="383.79,-82.32 392.01,-75.64 381.41,-75.73 383.79,-82.32"/>
</g>
<!-- Node13 -->
<g id="node13" class="node">
<title>Node13</title>
<g id="a_node13"><a xlink:title=" ">
<polygon fill="white" stroke="#bfbfbf" points="561,-0.5 561,-19.5 695,-19.5 695,-0.5 561,-0.5"/>
<text text-anchor="middle" x="628" y="-7.5" font-family="Helvetica,sans-Serif" font-size="10.00">xtensor&#45;python/pyarray.hpp</text>
</a>
</g>
</g>
<!-- Node4&#45;&gt;Node13 -->
<g id="edge16" class="edge">
<title>Node4&#45;&gt;Node13</title>
<path fill="none" stroke="midnightblue" d="M288.67,-117.32C326.68,-110.87 405.46,-96.23 470,-76 516.99,-61.27 569.49,-38.31 600.58,-23.98"/>
<polygon fill="midnightblue" stroke="midnightblue" points="602.3,-27.05 609.89,-19.66 599.35,-20.7 602.3,-27.05"/>
</g>
<!-- Node7&#45;&gt;Node5 -->
<g id="edge7" class="edge">
<title>Node7&#45;&gt;Node5</title>
<path fill="none" stroke="midnightblue" d="M157.39,-56.08C152.63,-48.53 145.68,-37.49 139.85,-28.23"/>
<polygon fill="midnightblue" stroke="midnightblue" points="142.8,-26.35 134.51,-19.75 136.88,-30.08 142.8,-26.35"/>
</g>
<!-- Node8&#45;&gt;Node6 -->
<g id="edge9" class="edge">
<title>Node8&#45;&gt;Node6</title>
<path fill="none" stroke="midnightblue" d="M288.79,-56.32C277.22,-48.11 259.62,-35.6 245.84,-25.81"/>
<polygon fill="midnightblue" stroke="midnightblue" points="247.61,-22.77 237.43,-19.83 243.56,-28.48 247.61,-22.77"/>
</g>
<!-- Node10 -->
<g id="node10" class="node">
<title>Node10</title>
<g id="a_node10"><a xlink:title=" ">
<polygon fill="white" stroke="#bfbfbf" points="270.5,-0.5 270.5,-19.5 305.5,-19.5 305.5,-0.5 270.5,-0.5"/>
<text text-anchor="middle" x="288" y="-7.5" font-family="Helvetica,sans-Serif" font-size="10.00">map</text>
</a>
</g>
</g>
<!-- Node9&#45;&gt;Node10 -->
<g id="edge11" class="edge">
<title>Node9&#45;&gt;Node10</title>
<path fill="none" stroke="midnightblue" d="M395.72,-56.44C373.91,-47.24 339.13,-32.57 315.01,-22.4"/>
<polygon fill="midnightblue" stroke="midnightblue" points="316.29,-19.14 305.71,-18.47 313.57,-25.58 316.29,-19.14"/>
</g>
<!-- Node11 -->
<g id="node11" class="node">
<title>Node11</title>
<g id="a_node11"><a xlink:title=" ">
<polygon fill="white" stroke="#bfbfbf" points="323.5,-0.5 323.5,-19.5 382.5,-19.5 382.5,-0.5 323.5,-0.5"/>
<text text-anchor="middle" x="353" y="-7.5" font-family="Helvetica,sans-Serif" font-size="10.00">stdexcept</text>
</a>
</g>
</g>
<!-- Node9&#45;&gt;Node11 -->
<g id="edge12" class="edge">
<title>Node9&#45;&gt;Node11</title>
<path fill="none" stroke="midnightblue" d="M405.88,-56.32C396.47,-48.26 382.26,-36.08 370.93,-26.37"/>
<polygon fill="midnightblue" stroke="midnightblue" points="373.18,-23.68 363.31,-19.83 368.62,-29 373.18,-23.68"/>
</g>
<!-- Node12 -->
<g id="node12" class="node">
<title>Node12</title>
<g id="a_node12"><a xlink:title=" ">
<polygon fill="white" stroke="#bfbfbf" points="400.5,-0.5 400.5,-19.5 441.5,-19.5 441.5,-0.5 400.5,-0.5"/>
<text text-anchor="middle" x="421" y="-7.5" font-family="Helvetica,sans-Serif" font-size="10.00">string</text>
</a>
</g>
</g>
<!-- Node9&#45;&gt;Node12 -->
<g id="edge13" class="edge">
<title>Node9&#45;&gt;Node12</title>
<path fill="none" stroke="midnightblue" d="M416.83,-56.08C417.48,-49.01 418.42,-38.86 419.24,-29.99"/>
<polygon fill="midnightblue" stroke="midnightblue" points="422.75,-30.03 420.19,-19.75 415.78,-29.39 422.75,-30.03"/>
</g>
<!-- Node9&#45;&gt;Node13 -->
<g id="edge14" class="edge">
<title>Node9&#45;&gt;Node13</title>
<path fill="none" stroke="midnightblue" d="M449.59,-56.44C486.19,-47.12 544.84,-32.18 584.83,-22"/>
<polygon fill="midnightblue" stroke="midnightblue" points="585.74,-25.38 594.57,-19.52 584.01,-18.59 585.74,-25.38"/>
</g>
<!-- Node14 -->
<g id="node14" class="node">
<title>Node14</title>
<g id="a_node14"><a xlink:title=" ">
<polygon fill="white" stroke="#bfbfbf" points="459.5,-0.5 459.5,-19.5 542.5,-19.5 542.5,-0.5 459.5,-0.5"/>
<text text-anchor="middle" x="501" y="-7.5" font-family="Helvetica,sans-Serif" font-size="10.00">xtensor/xio.hpp</text>
</a>
</g>
</g>
<!-- Node9&#45;&gt;Node14 -->
<g id="edge15" class="edge">
<title>Node9&#45;&gt;Node14</title>
<path fill="none" stroke="midnightblue" d="M429.66,-56.32C442.92,-47.9 463.27,-34.97 478.85,-25.07"/>
<polygon fill="midnightblue" stroke="midnightblue" points="480.81,-27.97 487.38,-19.65 477.06,-22.06 480.81,-27.97"/>
</g>
</g>
</svg>
