<?xml version="1.0" encoding="UTF-8" standalone="no"?>
<!DOCTYPE svg PUBLIC "-//W3C//DTD SVG 1.1//EN"
 "http://www.w3.org/Graphics/SVG/1.1/DTD/svg11.dtd">
<!-- Generated by graphviz version 2.40.1 (20161225.0304)
 -->
<!-- Title: Pres.cpp Pages: 1 -->
<svg width="704pt" height="196pt"
 viewBox="0.00 0.00 703.50 196.00" xmlns="http://www.w3.org/2000/svg" xmlns:xlink="http://www.w3.org/1999/xlink">
<g id="graph0" class="graph" transform="scale(1 1) rotate(0) translate(4 192)">
<title>Pres.cpp</title>
<polygon fill="#ffffff" stroke="transparent" points="-4,4 -4,-192 699.5,-192 699.5,4 -4,4"/>
<!-- Node0 -->
<g id="node1" class="node">
<title>Node0</title>
<polygon fill="#bfbfbf" stroke="#000000" points="147,-168.5 147,-187.5 203,-187.5 203,-168.5 147,-168.5"/>
<text text-anchor="middle" x="175" y="-175.5" font-family="Helvetica,sans-Serif" font-size="10.00" fill="#000000">Pres.cpp</text>
</g>
<!-- Node1 -->
<g id="node2" class="node">
<title>Node1</title>
<polygon fill="#ffffff" stroke="#bfbfbf" points="0,-112.5 0,-131.5 106,-131.5 106,-112.5 0,-112.5"/>
<text text-anchor="middle" x="53" y="-119.5" font-family="Helvetica,sans-Serif" font-size="10.00" fill="#000000">pybind11/pybind11.h</text>
</g>
<!-- Node0&#45;&gt;Node1 -->
<g id="edge1" class="edge">
<title>Node0&#45;&gt;Node1</title>
<path fill="none" stroke="#191970" d="M154.0275,-168.3733C134.4433,-159.3838 105.0039,-145.8706 82.949,-135.7471"/>
<polygon fill="#191970" stroke="#191970" points="84.2473,-132.4919 73.6989,-131.5011 81.3271,-138.8538 84.2473,-132.4919"/>
</g>
<!-- Node2 -->
<g id="node3" class="node">
<title>Node2</title>
<polygon fill="#ffffff" stroke="#bfbfbf" points="124.5,-112.5 124.5,-131.5 225.5,-131.5 225.5,-112.5 124.5,-112.5"/>
<text text-anchor="middle" x="175" y="-119.5" font-family="Helvetica,sans-Serif" font-size="10.00" fill="#000000">pybind11/stl_bind.h</text>
</g>
<!-- Node0&#45;&gt;Node2 -->
<g id="edge2" class="edge">
<title>Node0&#45;&gt;Node2</title>
<path fill="none" stroke="#191970" d="M175,-168.2455C175,-160.9382 175,-150.6944 175,-141.7046"/>
<polygon fill="#191970" stroke="#191970" points="178.5001,-141.6426 175,-131.6427 171.5001,-141.6427 178.5001,-141.6426"/>
</g>
<!-- Node3 -->
<g id="node4" class="node">
<title>Node3</title>
<g id="a_node4"><a xlink:href="_pres_8h.html" target="_top" xlink:title="Pres.h">
<polygon fill="#ffffff" stroke="#000000" points="243.5,-112.5 243.5,-131.5 288.5,-131.5 288.5,-112.5 243.5,-112.5"/>
<text text-anchor="middle" x="266" y="-119.5" font-family="Helvetica,sans-Serif" font-size="10.00" fill="#000000">Pres.h</text>
</a>
</g>
</g>
<!-- Node0&#45;&gt;Node3 -->
<g id="edge3" class="edge">
<title>Node0&#45;&gt;Node3</title>
<path fill="none" stroke="#191970" d="M190.851,-168.2455C204.8132,-159.6534 225.3728,-147.0014 241.4596,-137.1018"/>
<polygon fill="#191970" stroke="#191970" points="243.6484,-139.8645 250.3307,-131.6427 239.9797,-133.9029 243.6484,-139.8645"/>
</g>
<!-- Node4 -->
<g id="node5" class="node">
<title>Node4</title>
<polygon fill="#ffffff" stroke="#bfbfbf" points="107,-.5 107,-19.5 151,-19.5 151,-.5 107,-.5"/>
<text text-anchor="middle" x="129" y="-7.5" font-family="Helvetica,sans-Serif" font-size="10.00" fill="#000000">cmath</text>
</g>
<!-- Node3&#45;&gt;Node4 -->
<g id="edge4" class="edge">
<title>Node3&#45;&gt;Node4</title>
<path fill="none" stroke="#191970" d="M243.2843,-114.8662C240.1666,-113.8974 237.0053,-112.9203 234,-112 180.759,-95.6955 147.2381,-120.673 114,-76 103.7417,-62.2125 110.0998,-42.6378 117.4369,-28.388"/>
<polygon fill="#191970" stroke="#191970" points="120.5841,-29.9339 122.4806,-19.5102 114.4977,-26.4761 120.5841,-29.9339"/>
</g>
<!-- Node5 -->
<g id="node6" class="node">
<title>Node5</title>
<polygon fill="#ffffff" stroke="#bfbfbf" points="198,-.5 198,-19.5 252,-19.5 252,-.5 198,-.5"/>
<text text-anchor="middle" x="225" y="-7.5" font-family="Helvetica,sans-Serif" font-size="10.00" fill="#000000">iostream</text>
</g>
<!-- Node3&#45;&gt;Node5 -->
<g id="edge5" class="edge">
<title>Node3&#45;&gt;Node5</title>
<path fill="none" stroke="#191970" d="M262.5044,-112.4509C255.7568,-94.0186 240.8236,-53.2254 231.9711,-29.043"/>
<polygon fill="#191970" stroke="#191970" points="235.2112,-27.7123 228.4868,-19.5249 228.6378,-30.1187 235.2112,-27.7123"/>
</g>
<!-- Node6 -->
<g id="node7" class="node">
<title>Node6</title>
<g id="a_node7"><a xlink:href="_comp_kernel_8h.html" target="_top" xlink:title="CompKernel.h">
<polygon fill="#ffffff" stroke="#000000" points="123.5,-56.5 123.5,-75.5 202.5,-75.5 202.5,-56.5 123.5,-56.5"/>
<text text-anchor="middle" x="163" y="-63.5" font-family="Helvetica,sans-Serif" font-size="10.00" fill="#000000">CompKernel.h</text>
</a>
</g>
</g>
<!-- Node3&#45;&gt;Node6 -->
<g id="edge6" class="edge">
<title>Node3&#45;&gt;Node6</title>
<path fill="none" stroke="#191970" d="M248.0588,-112.2455C231.96,-103.4928 208.1121,-90.527 189.7609,-80.5496"/>
<polygon fill="#191970" stroke="#191970" points="191.1929,-77.3444 180.7356,-75.6427 187.8493,-83.4942 191.1929,-77.3444"/>
</g>
<!-- Node7 -->
<g id="node8" class="node">
<title>Node7</title>
<g id="a_node8"><a xlink:href="_model_factory_8h.html" target="_top" xlink:title="ModelFactory.h">
<polygon fill="#ffffff" stroke="#000000" points="259,-56.5 259,-75.5 343,-75.5 343,-56.5 259,-56.5"/>
<text text-anchor="middle" x="301" y="-63.5" font-family="Helvetica,sans-Serif" font-size="10.00" fill="#000000">ModelFactory.h</text>
</a>
</g>
</g>
<!-- Node3&#45;&gt;Node7 -->
<g id="edge8" class="edge">
<title>Node3&#45;&gt;Node7</title>
<path fill="none" stroke="#191970" d="M272.0965,-112.2455C276.9145,-104.5367 283.7751,-93.5598 289.6032,-84.2348"/>
<polygon fill="#191970" stroke="#191970" points="292.6413,-85.9777 294.9733,-75.6427 286.7053,-82.2677 292.6413,-85.9777"/>
</g>
<!-- Node8 -->
<g id="node9" class="node">
<title>Node8</title>
<g id="a_node9"><a xlink:href="_arguments_dict_8h.html" target="_top" xlink:title="ArgumentsDict.h">
<polygon fill="#ffffff" stroke="#000000" points="371,-56.5 371,-75.5 461,-75.5 461,-56.5 371,-56.5"/>
<text text-anchor="middle" x="416" y="-63.5" font-family="Helvetica,sans-Serif" font-size="10.00" fill="#000000">ArgumentsDict.h</text>
</a>
</g>
</g>
<!-- Node3&#45;&gt;Node8 -->
<g id="edge10" class="edge">
<title>Node3&#45;&gt;Node8</title>
<path fill="none" stroke="#191970" d="M288.7818,-113.4948C313.2684,-104.3531 352.4976,-89.7076 380.9253,-79.0946"/>
<polygon fill="#191970" stroke="#191970" points="382.3439,-82.301 390.4882,-75.5244 379.8956,-75.7431 382.3439,-82.301"/>
</g>
<!-- Node12 -->
<g id="node13" class="node">
<title>Node12</title>
<polygon fill="#ffffff" stroke="#bfbfbf" points="560.5,-.5 560.5,-19.5 695.5,-19.5 695.5,-.5 560.5,-.5"/>
<text text-anchor="middle" x="628" y="-7.5" font-family="Helvetica,sans-Serif" font-size="10.00" fill="#000000">xtensor&#45;python/pyarray.hpp</text>
</g>
<!-- Node3&#45;&gt;Node12 -->
<g id="edge16" class="edge">
<title>Node3&#45;&gt;Node12</title>
<path fill="none" stroke="#191970" d="M288.6792,-118.2189C326.7037,-111.5849 405.4909,-96.5741 470,-76 516.0011,-61.3287 567.2318,-38.7065 598.5388,-24.1282"/>
<polygon fill="#191970" stroke="#191970" points="600.4081,-27.1172 607.9715,-19.6979 597.4322,-20.7812 600.4081,-27.1172"/>
</g>
<!-- Node6&#45;&gt;Node4 -->
<g id="edge7" class="edge">
<title>Node6&#45;&gt;Node4</title>
<path fill="none" stroke="#191970" d="M157.0777,-56.2455C152.3973,-48.5367 145.7327,-37.5598 140.0711,-28.2348"/>
<polygon fill="#191970" stroke="#191970" points="143.0361,-26.3741 134.8545,-19.6427 137.0525,-30.007 143.0361,-26.3741"/>
</g>
<!-- Node7&#45;&gt;Node5 -->
<g id="edge9" class="edge">
<title>Node7&#45;&gt;Node5</title>
<path fill="none" stroke="#191970" d="M287.7618,-56.2455C276.319,-47.814 259.5704,-35.4729 246.2525,-25.6598"/>
<polygon fill="#191970" stroke="#191970" points="248.2133,-22.757 238.0865,-19.6427 244.0609,-28.3924 248.2133,-22.757"/>
</g>
<!-- Node9 -->
<g id="node10" class="node">
<title>Node9</title>
<polygon fill="#ffffff" stroke="#bfbfbf" points="270.5,-.5 270.5,-19.5 305.5,-19.5 305.5,-.5 270.5,-.5"/>
<text text-anchor="middle" x="288" y="-7.5" font-family="Helvetica,sans-Serif" font-size="10.00" fill="#000000">map</text>
</g>
<!-- Node8&#45;&gt;Node9 -->
<g id="edge11" class="edge">
<title>Node8&#45;&gt;Node9</title>
<path fill="none" stroke="#191970" d="M393.996,-56.3733C372.1057,-46.7962 338.4796,-32.0848 314.9889,-21.8077"/>
<polygon fill="#191970" stroke="#191970" points="316.1703,-18.5042 305.6058,-17.7026 313.3645,-24.9174 316.1703,-18.5042"/>
</g>
<!-- Node10 -->
<g id="node11" class="node">
<title>Node10</title>
<polygon fill="#ffffff" stroke="#bfbfbf" points="323.5,-.5 323.5,-19.5 382.5,-19.5 382.5,-.5 323.5,-.5"/>
<text text-anchor="middle" x="353" y="-7.5" font-family="Helvetica,sans-Serif" font-size="10.00" fill="#000000">stdexcept</text>
</g>
<!-- Node8&#45;&gt;Node10 -->
<g id="edge12" class="edge">
<title>Node8&#45;&gt;Node10</title>
<path fill="none" stroke="#191970" d="M405.0262,-56.2455C395.8118,-48.0549 382.4468,-36.1749 371.5703,-26.5069"/>
<polygon fill="#191970" stroke="#191970" points="373.6474,-23.6704 363.848,-19.6427 368.9968,-28.9023 373.6474,-23.6704"/>
</g>
<!-- Node11 -->
<g id="node12" class="node">
<title>Node11</title>
<polygon fill="#ffffff" stroke="#bfbfbf" points="400.5,-.5 400.5,-19.5 441.5,-19.5 441.5,-.5 400.5,-.5"/>
<text text-anchor="middle" x="421" y="-7.5" font-family="Helvetica,sans-Serif" font-size="10.00" fill="#000000">string</text>
</g>
<!-- Node8&#45;&gt;Node11 -->
<g id="edge13" class="edge">
<title>Node8&#45;&gt;Node11</title>
<path fill="none" stroke="#191970" d="M416.8709,-56.2455C417.5234,-48.9382 418.438,-38.6944 419.2407,-29.7046"/>
<polygon fill="#191970" stroke="#191970" points="422.7358,-29.9143 420.139,-19.6427 415.7635,-29.2918 422.7358,-29.9143"/>
</g>
<!-- Node8&#45;&gt;Node12 -->
<g id="edge14" class="edge">
<title>Node8&#45;&gt;Node12</title>
<path fill="none" stroke="#191970" d="M452.4441,-56.3733C488.3069,-46.9001 543.1878,-32.4032 582.0282,-22.1435"/>
<polygon fill="#191970" stroke="#191970" points="583.257,-25.439 592.0315,-19.5011 581.4692,-18.6712 583.257,-25.439"/>
</g>
<!-- Node13 -->
<g id="node14" class="node">
<title>Node13</title>
<polygon fill="#ffffff" stroke="#bfbfbf" points="459.5,-.5 459.5,-19.5 542.5,-19.5 542.5,-.5 459.5,-.5"/>
<text text-anchor="middle" x="501" y="-7.5" font-family="Helvetica,sans-Serif" font-size="10.00" fill="#000000">xtensor/xio.hpp</text>
</g>
<!-- Node8&#45;&gt;Node13 -->
<g id="edge15" class="edge">
<title>Node8&#45;&gt;Node13</title>
<path fill="none" stroke="#191970" d="M430.8059,-56.2455C443.7256,-47.7337 462.6931,-35.2375 477.6552,-25.3801"/>
<polygon fill="#191970" stroke="#191970" points="479.9387,-28.067 486.3638,-19.6427 476.0876,-22.2216 479.9387,-28.067"/>
</g>
</g>
</svg>
