<?xml version="1.0" encoding="UTF-8" standalone="no"?>
<!DOCTYPE svg PUBLIC "-//W3C//DTD SVG 1.1//EN"
 "http://www.w3.org/Graphics/SVG/1.1/DTD/svg11.dtd">
<!-- Generated by graphviz version 2.40.1 (20161225.0304)
 -->
<!-- Title: PresInit.cpp Pages: 1 -->
<svg width="711pt" height="196pt"
 viewBox="0.00 0.00 710.50 196.00" xmlns="http://www.w3.org/2000/svg" xmlns:xlink="http://www.w3.org/1999/xlink">
<g id="graph0" class="graph" transform="scale(1 1) rotate(0) translate(4 192)">
<title>PresInit.cpp</title>
<polygon fill="#ffffff" stroke="transparent" points="-4,4 -4,-192 706.5,-192 706.5,4 -4,4"/>
<!-- Node0 -->
<g id="node1" class="node">
<title>Node0</title>
<polygon fill="#bfbfbf" stroke="#000000" points="140.5,-168.5 140.5,-187.5 209.5,-187.5 209.5,-168.5 140.5,-168.5"/>
<text text-anchor="middle" x="175" y="-175.5" font-family="Helvetica,sans-Serif" font-size="10.00" fill="#000000">PresInit.cpp</text>
</g>
<!-- Node1 -->
<g id="node2" class="node">
<title>Node1</title>
<polygon fill="#ffffff" stroke="#bfbfbf" points="0,-112.5 0,-131.5 106,-131.5 106,-112.5 0,-112.5"/>
<text text-anchor="middle" x="53" y="-119.5" font-family="Helvetica,sans-Serif" font-size="10.00" fill="#000000">pybind11/pybind11.h</text>
</g>
<!-- Node0&#45;&gt;Node1 -->
<g id="edge1" class="edge">
<title>Node0&#45;&gt;Node1</title>
<path fill="none" stroke="#191970" d="M154.0275,-168.3733C134.4433,-159.3838 105.0039,-145.8706 82.949,-135.7471"/>
<polygon fill="#191970" stroke="#191970" points="84.2473,-132.4919 73.6989,-131.5011 81.3271,-138.8538 84.2473,-132.4919"/>
</g>
<!-- Node2 -->
<g id="node3" class="node">
<title>Node2</title>
<polygon fill="#ffffff" stroke="#bfbfbf" points="124.5,-112.5 124.5,-131.5 225.5,-131.5 225.5,-112.5 124.5,-112.5"/>
<text text-anchor="middle" x="175" y="-119.5" font-family="Helvetica,sans-Serif" font-size="10.00" fill="#000000">pybind11/stl_bind.h</text>
</g>
<!-- Node0&#45;&gt;Node2 -->
<g id="edge2" class="edge">
<title>Node0&#45;&gt;Node2</title>
<path fill="none" stroke="#191970" d="M175,-168.2455C175,-160.9382 175,-150.6944 175,-141.7046"/>
<polygon fill="#191970" stroke="#191970" points="178.5001,-141.6426 175,-131.6427 171.5001,-141.6427 178.5001,-141.6426"/>
</g>
<!-- Node3 -->
<g id="node4" class="node">
<title>Node3</title>
<g id="a_node4"><a xlink:href="_pres_init_8h.html" target="_top" xlink:title="PresInit.h">
<polygon fill="#ffffff" stroke="#000000" points="243.5,-112.5 243.5,-131.5 302.5,-131.5 302.5,-112.5 243.5,-112.5"/>
<text text-anchor="middle" x="273" y="-119.5" font-family="Helvetica,sans-Serif" font-size="10.00" fill="#000000">PresInit.h</text>
</a>
</g>
</g>
<!-- Node0&#45;&gt;Node3 -->
<g id="edge3" class="edge">
<title>Node0&#45;&gt;Node3</title>
<path fill="none" stroke="#191970" d="M192.0703,-168.2455C207.247,-159.5731 229.6621,-146.7645 247.0563,-136.825"/>
<polygon fill="#191970" stroke="#191970" points="249.1794,-139.643 256.1253,-131.6427 245.7064,-133.5653 249.1794,-139.643"/>
</g>
<!-- Node4 -->
<g id="node5" class="node">
<title>Node4</title>
<polygon fill="#ffffff" stroke="#bfbfbf" points="114,-.5 114,-19.5 158,-19.5 158,-.5 114,-.5"/>
<text text-anchor="middle" x="136" y="-7.5" font-family="Helvetica,sans-Serif" font-size="10.00" fill="#000000">cmath</text>
</g>
<!-- Node3&#45;&gt;Node4 -->
<g id="edge4" class="edge">
<title>Node3&#45;&gt;Node4</title>
<path fill="none" stroke="#191970" d="M243.1776,-113.9538C199.9868,-102.1618 124.7381,-81.0368 121,-76 110.7583,-62.2001 117.1141,-42.6272 124.4461,-28.3812"/>
<polygon fill="#191970" stroke="#191970" points="127.5914,-29.9302 129.486,-19.5061 121.5044,-26.4735 127.5914,-29.9302"/>
</g>
<!-- Node5 -->
<g id="node6" class="node">
<title>Node5</title>
<polygon fill="#ffffff" stroke="#bfbfbf" points="205,-.5 205,-19.5 259,-19.5 259,-.5 205,-.5"/>
<text text-anchor="middle" x="232" y="-7.5" font-family="Helvetica,sans-Serif" font-size="10.00" fill="#000000">iostream</text>
</g>
<!-- Node3&#45;&gt;Node5 -->
<g id="edge5" class="edge">
<title>Node3&#45;&gt;Node5</title>
<path fill="none" stroke="#191970" d="M269.5044,-112.4509C262.7568,-94.0186 247.8236,-53.2254 238.9711,-29.043"/>
<polygon fill="#191970" stroke="#191970" points="242.2112,-27.7123 235.4868,-19.5249 235.6378,-30.1187 242.2112,-27.7123"/>
</g>
<!-- Node6 -->
<g id="node7" class="node">
<title>Node6</title>
<g id="a_node7"><a xlink:href="_comp_kernel_8h.html" target="_top" xlink:title="CompKernel.h">
<polygon fill="#ffffff" stroke="#000000" points="130.5,-56.5 130.5,-75.5 209.5,-75.5 209.5,-56.5 130.5,-56.5"/>
<text text-anchor="middle" x="170" y="-63.5" font-family="Helvetica,sans-Serif" font-size="10.00" fill="#000000">CompKernel.h</text>
</a>
</g>
</g>
<!-- Node3&#45;&gt;Node6 -->
<g id="edge6" class="edge">
<title>Node3&#45;&gt;Node6</title>
<path fill="none" stroke="#191970" d="M255.0588,-112.2455C238.96,-103.4928 215.1121,-90.527 196.7609,-80.5496"/>
<polygon fill="#191970" stroke="#191970" points="198.1929,-77.3444 187.7356,-75.6427 194.8493,-83.4942 198.1929,-77.3444"/>
</g>
<!-- Node7 -->
<g id="node8" class="node">
<title>Node7</title>
<g id="a_node8"><a xlink:href="_model_factory_8h.html" target="_top" xlink:title="ModelFactory.h">
<polygon fill="#ffffff" stroke="#000000" points="266,-56.5 266,-75.5 350,-75.5 350,-56.5 266,-56.5"/>
<text text-anchor="middle" x="308" y="-63.5" font-family="Helvetica,sans-Serif" font-size="10.00" fill="#000000">ModelFactory.h</text>
</a>
</g>
</g>
<!-- Node3&#45;&gt;Node7 -->
<g id="edge8" class="edge">
<title>Node3&#45;&gt;Node7</title>
<path fill="none" stroke="#191970" d="M279.0965,-112.2455C283.9145,-104.5367 290.7751,-93.5598 296.6032,-84.2348"/>
<polygon fill="#191970" stroke="#191970" points="299.6413,-85.9777 301.9733,-75.6427 293.7053,-82.2677 299.6413,-85.9777"/>
</g>
<!-- Node8 -->
<g id="node9" class="node">
<title>Node8</title>
<g id="a_node9"><a xlink:href="_arguments_dict_8h.html" target="_top" xlink:title="ArgumentsDict.h">
<polygon fill="#ffffff" stroke="#000000" points="378,-56.5 378,-75.5 468,-75.5 468,-56.5 378,-56.5"/>
<text text-anchor="middle" x="423" y="-63.5" font-family="Helvetica,sans-Serif" font-size="10.00" fill="#000000">ArgumentsDict.h</text>
</a>
</g>
</g>
<!-- Node3&#45;&gt;Node8 -->
<g id="edge10" class="edge">
<title>Node3&#45;&gt;Node8</title>
<path fill="none" stroke="#191970" d="M298.7859,-112.3733C323.4047,-103.1822 360.69,-89.2624 387.9875,-79.0713"/>
<polygon fill="#191970" stroke="#191970" points="389.4063,-82.2777 397.5506,-75.5011 386.958,-75.7198 389.4063,-82.2777"/>
</g>
<!-- Node12 -->
<g id="node13" class="node">
<title>Node12</title>
<polygon fill="#ffffff" stroke="#bfbfbf" points="567.5,-.5 567.5,-19.5 702.5,-19.5 702.5,-.5 567.5,-.5"/>
<text text-anchor="middle" x="635" y="-7.5" font-family="Helvetica,sans-Serif" font-size="10.00" fill="#000000">xtensor&#45;python/pyarray.hpp</text>
</g>
<!-- Node3&#45;&gt;Node12 -->
<g id="edge16" class="edge">
<title>Node3&#45;&gt;Node12</title>
<path fill="none" stroke="#191970" d="M302.8215,-116.9582C342.9479,-109.7948 416.2958,-95.3606 477,-76 523.0011,-61.3287 574.2318,-38.7065 605.5388,-24.1282"/>
<polygon fill="#191970" stroke="#191970" points="607.4081,-27.1172 614.9715,-19.6979 604.4322,-20.7812 607.4081,-27.1172"/>
</g>
<!-- Node6&#45;&gt;Node4 -->
<g id="edge7" class="edge">
<title>Node6&#45;&gt;Node4</title>
<path fill="none" stroke="#191970" d="M164.0777,-56.2455C159.3973,-48.5367 152.7327,-37.5598 147.0711,-28.2348"/>
<polygon fill="#191970" stroke="#191970" points="150.0361,-26.3741 141.8545,-19.6427 144.0525,-30.007 150.0361,-26.3741"/>
</g>
<!-- Node7&#45;&gt;Node5 -->
<g id="edge9" class="edge">
<title>Node7&#45;&gt;Node5</title>
<path fill="none" stroke="#191970" d="M294.7618,-56.2455C283.319,-47.814 266.5704,-35.4729 253.2525,-25.6598"/>
<polygon fill="#191970" stroke="#191970" points="255.2133,-22.757 245.0865,-19.6427 251.0609,-28.3924 255.2133,-22.757"/>
</g>
<!-- Node9 -->
<g id="node10" class="node">
<title>Node9</title>
<polygon fill="#ffffff" stroke="#bfbfbf" points="277.5,-.5 277.5,-19.5 312.5,-19.5 312.5,-.5 277.5,-.5"/>
<text text-anchor="middle" x="295" y="-7.5" font-family="Helvetica,sans-Serif" font-size="10.00" fill="#000000">map</text>
</g>
<!-- Node8&#45;&gt;Node9 -->
<g id="edge11" class="edge">
<title>Node8&#45;&gt;Node9</title>
<path fill="none" stroke="#191970" d="M400.996,-56.3733C379.1057,-46.7962 345.4796,-32.0848 321.9889,-21.8077"/>
<polygon fill="#191970" stroke="#191970" points="323.1703,-18.5042 312.6058,-17.7026 320.3645,-24.9174 323.1703,-18.5042"/>
</g>
<!-- Node10 -->
<g id="node11" class="node">
<title>Node10</title>
<polygon fill="#ffffff" stroke="#bfbfbf" points="330.5,-.5 330.5,-19.5 389.5,-19.5 389.5,-.5 330.5,-.5"/>
<text text-anchor="middle" x="360" y="-7.5" font-family="Helvetica,sans-Serif" font-size="10.00" fill="#000000">stdexcept</text>
</g>
<!-- Node8&#45;&gt;Node10 -->
<g id="edge12" class="edge">
<title>Node8&#45;&gt;Node10</title>
<path fill="none" stroke="#191970" d="M412.0262,-56.2455C402.8118,-48.0549 389.4468,-36.1749 378.5703,-26.5069"/>
<polygon fill="#191970" stroke="#191970" points="380.6474,-23.6704 370.848,-19.6427 375.9968,-28.9023 380.6474,-23.6704"/>
</g>
<!-- Node11 -->
<g id="node12" class="node">
<title>Node11</title>
<polygon fill="#ffffff" stroke="#bfbfbf" points="407.5,-.5 407.5,-19.5 448.5,-19.5 448.5,-.5 407.5,-.5"/>
<text text-anchor="middle" x="428" y="-7.5" font-family="Helvetica,sans-Serif" font-size="10.00" fill="#000000">string</text>
</g>
<!-- Node8&#45;&gt;Node11 -->
<g id="edge13" class="edge">
<title>Node8&#45;&gt;Node11</title>
<path fill="none" stroke="#191970" d="M423.8709,-56.2455C424.5234,-48.9382 425.438,-38.6944 426.2407,-29.7046"/>
<polygon fill="#191970" stroke="#191970" points="429.7358,-29.9143 427.139,-19.6427 422.7635,-29.2918 429.7358,-29.9143"/>
</g>
<!-- Node8&#45;&gt;Node12 -->
<g id="edge14" class="edge">
<title>Node8&#45;&gt;Node12</title>
<path fill="none" stroke="#191970" d="M459.4441,-56.3733C495.3069,-46.9001 550.1878,-32.4032 589.0282,-22.1435"/>
<polygon fill="#191970" stroke="#191970" points="590.257,-25.439 599.0315,-19.5011 588.4692,-18.6712 590.257,-25.439"/>
</g>
<!-- Node13 -->
<g id="node14" class="node">
<title>Node13</title>
<polygon fill="#ffffff" stroke="#bfbfbf" points="466.5,-.5 466.5,-19.5 549.5,-19.5 549.5,-.5 466.5,-.5"/>
<text text-anchor="middle" x="508" y="-7.5" font-family="Helvetica,sans-Serif" font-size="10.00" fill="#000000">xtensor/xio.hpp</text>
</g>
<!-- Node8&#45;&gt;Node13 -->
<g id="edge15" class="edge">
<title>Node8&#45;&gt;Node13</title>
<path fill="none" stroke="#191970" d="M437.8059,-56.2455C450.7256,-47.7337 469.6931,-35.2375 484.6552,-25.3801"/>
<polygon fill="#191970" stroke="#191970" points="486.9387,-28.067 493.3638,-19.6427 483.0876,-22.2216 486.9387,-28.067"/>
</g>
</g>
</svg>
