<?xml version="1.0" encoding="UTF-8" standalone="no"?>
<!DOCTYPE svg PUBLIC "-//W3C//DTD SVG 1.1//EN"
 "http://www.w3.org/Graphics/SVG/1.1/DTD/svg11.dtd">
<!-- Generated by graphviz version 2.44.1 (20200629.0846)
 -->
<!-- Title: PresInit.cpp Pages: 1 -->
<svg width="545pt" height="196pt"
 viewBox="0.00 0.00 545.00 196.00" xmlns="http://www.w3.org/2000/svg" xmlns:xlink="http://www.w3.org/1999/xlink">
<g id="graph0" class="graph" transform="scale(1 1) rotate(0) translate(4 192)">
<title>PresInit.cpp</title>
<polygon fill="white" stroke="transparent" points="-4,4 -4,-192 541,-192 541,4 -4,4"/>
<!-- Node1 -->
<g id="node1" class="node">
<title>Node1</title>
<g id="a_node1"><a xlink:title=" ">
<polygon fill="#bfbfbf" stroke="black" points="140.5,-168.5 140.5,-187.5 209.5,-187.5 209.5,-168.5 140.5,-168.5"/>
<text text-anchor="middle" x="175" y="-175.5" font-family="Helvetica,sans-Serif" font-size="10.00">PresInit.cpp</text>
</a>
</g>
</g>
<!-- Node2 -->
<g id="node2" class="node">
<title>Node2</title>
<g id="a_node2"><a xlink:title=" ">
<polygon fill="white" stroke="#bfbfbf" points="0,-112.5 0,-131.5 106,-131.5 106,-112.5 0,-112.5"/>
<text text-anchor="middle" x="53" y="-119.5" font-family="Helvetica,sans-Serif" font-size="10.00">pybind11/pybind11.h</text>
</a>
</g>
</g>
<!-- Node1&#45;&gt;Node2 -->
<g id="edge1" class="edge">
<title>Node1&#45;&gt;Node2</title>
<path fill="none" stroke="midnightblue" d="M155.67,-168.44C135.68,-159.6 104.26,-145.69 81.44,-135.59"/>
<polygon fill="midnightblue" stroke="midnightblue" points="82.8,-132.36 72.24,-131.52 79.97,-138.76 82.8,-132.36"/>
</g>
<!-- Node3 -->
<g id="node3" class="node">
<title>Node3</title>
<g id="a_node3"><a xlink:title=" ">
<polygon fill="white" stroke="#bfbfbf" points="124.5,-112.5 124.5,-131.5 225.5,-131.5 225.5,-112.5 124.5,-112.5"/>
<text text-anchor="middle" x="175" y="-119.5" font-family="Helvetica,sans-Serif" font-size="10.00">pybind11/stl_bind.h</text>
</a>
</g>
</g>
<!-- Node1&#45;&gt;Node3 -->
<g id="edge2" class="edge">
<title>Node1&#45;&gt;Node3</title>
<path fill="none" stroke="midnightblue" d="M175,-168.08C175,-161.01 175,-150.86 175,-141.99"/>
<polygon fill="midnightblue" stroke="midnightblue" points="178.5,-141.75 175,-131.75 171.5,-141.75 178.5,-141.75"/>
</g>
<!-- Node4 -->
<g id="node4" class="node">
<title>Node4</title>
<g id="a_node4"><a xlink:href="_pres_init_8h.html" target="_top" xlink:title=" ">
<polygon fill="white" stroke="black" points="243.5,-112.5 243.5,-131.5 302.5,-131.5 302.5,-112.5 243.5,-112.5"/>
<text text-anchor="middle" x="273" y="-119.5" font-family="Helvetica,sans-Serif" font-size="10.00">PresInit.h</text>
</a>
</g>
</g>
<!-- Node1&#45;&gt;Node4 -->
<g id="edge3" class="edge">
<title>Node1&#45;&gt;Node4</title>
<path fill="none" stroke="midnightblue" d="M190.75,-168.32C206.32,-159.74 230.38,-146.49 248.46,-136.52"/>
<polygon fill="midnightblue" stroke="midnightblue" points="250.22,-139.55 257.29,-131.65 246.85,-133.42 250.22,-139.55"/>
</g>
<!-- Node5 -->
<g id="node5" class="node">
<title>Node5</title>
<g id="a_node5"><a xlink:title=" ">
<polygon fill="white" stroke="#bfbfbf" points="149,-0.5 149,-19.5 193,-19.5 193,-0.5 149,-0.5"/>
<text text-anchor="middle" x="171" y="-7.5" font-family="Helvetica,sans-Serif" font-size="10.00">cmath</text>
</a>
</g>
</g>
<!-- Node4&#45;&gt;Node5 -->
<g id="edge4" class="edge">
<title>Node4&#45;&gt;Node5</title>
<path fill="none" stroke="midnightblue" d="M243.3,-113.67C212.11,-105.3 166.2,-90.85 156,-76 146.4,-62.02 152.69,-42.76 159.84,-28.84"/>
<polygon fill="midnightblue" stroke="midnightblue" points="163.08,-30.22 164.97,-19.8 156.99,-26.76 163.08,-30.22"/>
</g>
<!-- Node6 -->
<g id="node6" class="node">
<title>Node6</title>
<g id="a_node6"><a xlink:title=" ">
<polygon fill="white" stroke="#bfbfbf" points="281,-0.5 281,-19.5 335,-19.5 335,-0.5 281,-0.5"/>
<text text-anchor="middle" x="308" y="-7.5" font-family="Helvetica,sans-Serif" font-size="10.00">iostream</text>
</a>
</g>
</g>
<!-- Node4&#45;&gt;Node6 -->
<g id="edge5" class="edge">
<title>Node4&#45;&gt;Node6</title>
<path fill="none" stroke="midnightblue" d="M275.42,-112.12C278.89,-99.56 285.56,-75.91 292,-56 294.88,-47.11 298.32,-37.34 301.27,-29.17"/>
<polygon fill="midnightblue" stroke="midnightblue" points="304.63,-30.17 304.79,-19.58 298.06,-27.76 304.63,-30.17"/>
</g>
<!-- Node7 -->
<g id="node7" class="node">
<title>Node7</title>
<g id="a_node7"><a xlink:href="_comp_kernel_8h.html" target="_top" xlink:title=" ">
<polygon fill="white" stroke="black" points="165.5,-56.5 165.5,-75.5 244.5,-75.5 244.5,-56.5 165.5,-56.5"/>
<text text-anchor="middle" x="205" y="-63.5" font-family="Helvetica,sans-Serif" font-size="10.00">CompKernel.h</text>
</a>
</g>
</g>
<!-- Node4&#45;&gt;Node7 -->
<g id="edge6" class="edge">
<title>Node4&#45;&gt;Node7</title>
<path fill="none" stroke="midnightblue" d="M262.07,-112.32C251.83,-104.18 236.28,-91.84 224,-82.09"/>
<polygon fill="midnightblue" stroke="midnightblue" points="226.13,-79.31 216.12,-75.83 221.78,-84.79 226.13,-79.31"/>
</g>
<!-- Node8 -->
<g id="node8" class="node">
<title>Node8</title>
<g id="a_node8"><a xlink:href="_model_factory_8h.html" target="_top" xlink:title=" ">
<polygon fill="white" stroke="black" points="301.5,-56.5 301.5,-75.5 384.5,-75.5 384.5,-56.5 301.5,-56.5"/>
<text text-anchor="middle" x="343" y="-63.5" font-family="Helvetica,sans-Serif" font-size="10.00">ModelFactory.h</text>
</a>
</g>
</g>
<!-- Node4&#45;&gt;Node8 -->
<g id="edge8" class="edge">
<title>Node4&#45;&gt;Node8</title>
<path fill="none" stroke="midnightblue" d="M284.25,-112.32C294.8,-104.18 310.8,-91.84 323.44,-82.09"/>
<polygon fill="midnightblue" stroke="midnightblue" points="325.77,-84.71 331.55,-75.83 321.49,-79.17 325.77,-84.71"/>
</g>
<!-- Node9 -->
<g id="node9" class="node">
<title>Node9</title>
<g id="a_node9"><a xlink:title=" ">
<polygon fill="white" stroke="#bfbfbf" points="403,-56.5 403,-75.5 537,-75.5 537,-56.5 403,-56.5"/>
<text text-anchor="middle" x="470" y="-63.5" font-family="Helvetica,sans-Serif" font-size="10.00">xtensor&#45;python/pyarray.hpp</text>
</a>
</g>
</g>
<!-- Node4&#45;&gt;Node9 -->
<g id="edge10" class="edge">
<title>Node4&#45;&gt;Node9</title>
<path fill="none" stroke="midnightblue" d="M302.92,-112.8C336.47,-103.6 391.09,-88.63 428.7,-78.32"/>
<polygon fill="midnightblue" stroke="midnightblue" points="430.1,-81.57 438.82,-75.55 428.25,-74.81 430.1,-81.57"/>
</g>
<!-- Node7&#45;&gt;Node5 -->
<g id="edge7" class="edge">
<title>Node7&#45;&gt;Node5</title>
<path fill="none" stroke="midnightblue" d="M199.39,-56.08C194.63,-48.53 187.68,-37.49 181.85,-28.23"/>
<polygon fill="midnightblue" stroke="midnightblue" points="184.8,-26.35 176.51,-19.75 178.88,-30.08 184.8,-26.35"/>
</g>
<!-- Node8&#45;&gt;Node6 -->
<g id="edge9" class="edge">
<title>Node8&#45;&gt;Node6</title>
<path fill="none" stroke="midnightblue" d="M337.22,-56.08C332.33,-48.53 325.17,-37.49 319.17,-28.23"/>
<polygon fill="midnightblue" stroke="midnightblue" points="322.05,-26.24 313.67,-19.75 316.17,-30.05 322.05,-26.24"/>
</g>
</g>
</svg>
