<?xml version="1.0" encoding="UTF-8" standalone="no"?>
<!DOCTYPE svg PUBLIC "-//W3C//DTD SVG 1.1//EN"
 "http://www.w3.org/Graphics/SVG/1.1/DTD/svg11.dtd">
<!-- Generated by graphviz version 2.44.1 (20200629.0846)
 -->
<!-- Title: ProtChBody.h Pages: 1 -->
<svg width="1262pt" height="95pt"
 viewBox="0.00 0.00 1261.50 95.00" xmlns="http://www.w3.org/2000/svg" xmlns:xlink="http://www.w3.org/1999/xlink">
<g id="graph0" class="graph" transform="scale(1 1) rotate(0) translate(4 91)">
<title>ProtChBody.h</title>
<polygon fill="white" stroke="transparent" points="-4,4 -4,-91 1257.5,-91 1257.5,4 -4,4"/>
<!-- Node1 -->
<g id="node1" class="node">
<title>Node1</title>
<g id="a_node1"><a xlink:title=" ">
<polygon fill="#bfbfbf" stroke="black" points="679,-67.5 679,-86.5 756,-86.5 756,-67.5 679,-67.5"/>
<text text-anchor="middle" x="717.5" y="-74.5" font-family="Helvetica,sans-Serif" font-size="10.00">ProtChBody.h</text>
</a>
</g>
</g>
<!-- Node2 -->
<g id="node2" class="node">
<title>Node2</title>
<g id="a_node2"><a xlink:title=" ">
<polygon fill="white" stroke="#bfbfbf" points="0,-6 0,-25 163,-25 163,-6 0,-6"/>
<text text-anchor="middle" x="81.5" y="-13" font-family="Helvetica,sans-Serif" font-size="10.00">chrono/physics/ChSystemSMC.h</text>
</a>
</g>
</g>
<!-- Node1&#45;&gt;Node2 -->
<g id="edge1" class="edge">
<title>Node1&#45;&gt;Node2</title>
<path fill="none" stroke="midnightblue" d="M678.74,-73.81C589.31,-68.54 361.72,-53.85 172.5,-31 162.15,-29.75 151.17,-28.2 140.56,-26.58"/>
<polygon fill="midnightblue" stroke="midnightblue" points="140.94,-23.09 130.52,-25.01 139.86,-30.01 140.94,-23.09"/>
</g>
<!-- Node3 -->
<g id="node3" class="node">
<title>Node3</title>
<g id="a_node3"><a xlink:title=" ">
<polygon fill="white" stroke="#bfbfbf" points="181.5,-6 181.5,-25 321.5,-25 321.5,-6 181.5,-6"/>
<text text-anchor="middle" x="251.5" y="-13" font-family="Helvetica,sans-Serif" font-size="10.00">chrono/physics/ChSystem.h</text>
</a>
</g>
</g>
<!-- Node1&#45;&gt;Node3 -->
<g id="edge2" class="edge">
<title>Node1&#45;&gt;Node3</title>
<path fill="none" stroke="midnightblue" d="M678.94,-72.36C609.21,-65.6 457.6,-50.03 330.5,-31 322.36,-29.78 313.78,-28.35 305.39,-26.88"/>
<polygon fill="midnightblue" stroke="midnightblue" points="305.75,-23.39 295.29,-25.07 304.51,-30.28 305.75,-23.39"/>
</g>
<!-- Node4 -->
<g id="node4" class="node">
<title>Node4</title>
<g id="a_node4"><a xlink:title=" ">
<polygon fill="white" stroke="#bfbfbf" points="339.5,-0.5 339.5,-30.5 439.5,-30.5 439.5,-0.5 339.5,-0.5"/>
<text text-anchor="start" x="347.5" y="-18.5" font-family="Helvetica,sans-Serif" font-size="10.00">chrono/timestepper</text>
<text text-anchor="middle" x="389.5" y="-7.5" font-family="Helvetica,sans-Serif" font-size="10.00">/ChTimestepper.h</text>
</a>
</g>
</g>
<!-- Node1&#45;&gt;Node4 -->
<g id="edge3" class="edge">
<title>Node1&#45;&gt;Node4</title>
<path fill="none" stroke="midnightblue" d="M678.57,-70.43C628,-62.98 536.78,-48.85 449.46,-31.11"/>
<polygon fill="midnightblue" stroke="midnightblue" points="450.15,-27.68 439.65,-29.1 448.75,-34.54 450.15,-27.68"/>
</g>
<!-- Node5 -->
<g id="node5" class="node">
<title>Node5</title>
<g id="a_node5"><a xlink:title=" ">
<polygon fill="white" stroke="#bfbfbf" points="458,-6 458,-25 631,-25 631,-6 458,-6"/>
<text text-anchor="middle" x="544.5" y="-13" font-family="Helvetica,sans-Serif" font-size="10.00">chrono/solver/ChSolverPMINRES.h</text>
</a>
</g>
</g>
<!-- Node1&#45;&gt;Node5 -->
<g id="edge4" class="edge">
<title>Node1&#45;&gt;Node5</title>
<path fill="none" stroke="midnightblue" d="M692.71,-67.48C662.91,-57.22 612.71,-39.96 579.1,-28.4"/>
<polygon fill="midnightblue" stroke="midnightblue" points="579.84,-24.95 569.24,-25.01 577.56,-31.57 579.84,-24.95"/>
</g>
<!-- Node6 -->
<g id="node6" class="node">
<title>Node6</title>
<g id="a_node6"><a xlink:title=" ">
<polygon fill="white" stroke="#bfbfbf" points="649.5,-6 649.5,-25 785.5,-25 785.5,-6 649.5,-6"/>
<text text-anchor="middle" x="717.5" y="-13" font-family="Helvetica,sans-Serif" font-size="10.00">chrono/core/ChTransform.h</text>
</a>
</g>
</g>
<!-- Node1&#45;&gt;Node6 -->
<g id="edge5" class="edge">
<title>Node1&#45;&gt;Node6</title>
<path fill="none" stroke="midnightblue" d="M717.5,-67.48C717.5,-59.08 717.5,-45.98 717.5,-35.16"/>
<polygon fill="midnightblue" stroke="midnightblue" points="721,-35.01 717.5,-25.01 714,-35.01 721,-35.01"/>
</g>
<!-- Node7 -->
<g id="node7" class="node">
<title>Node7</title>
<g id="a_node7"><a xlink:title=" ">
<polygon fill="white" stroke="#bfbfbf" points="803.5,-6 803.5,-25 955.5,-25 955.5,-6 803.5,-6"/>
<text text-anchor="middle" x="879.5" y="-13" font-family="Helvetica,sans-Serif" font-size="10.00">chrono/physics/ChLinkSpring.h</text>
</a>
</g>
</g>
<!-- Node1&#45;&gt;Node7 -->
<g id="edge6" class="edge">
<title>Node1&#45;&gt;Node7</title>
<path fill="none" stroke="midnightblue" d="M740.71,-67.48C768.5,-57.27 815.22,-40.11 846.69,-28.55"/>
<polygon fill="midnightblue" stroke="midnightblue" points="848.15,-31.74 856.33,-25.01 845.74,-25.17 848.15,-31.74"/>
</g>
<!-- Node8 -->
<g id="node8" class="node">
<title>Node8</title>
<g id="a_node8"><a xlink:title=" ">
<polygon fill="white" stroke="#bfbfbf" points="973.5,-0.5 973.5,-30.5 1113.5,-30.5 1113.5,-0.5 973.5,-0.5"/>
<text text-anchor="start" x="981.5" y="-18.5" font-family="Helvetica,sans-Serif" font-size="10.00">chrono/geometry/ChTriangle</text>
<text text-anchor="middle" x="1043.5" y="-7.5" font-family="Helvetica,sans-Serif" font-size="10.00">MeshConnected.h</text>
</a>
</g>
</g>
<!-- Node1&#45;&gt;Node8 -->
<g id="edge7" class="edge">
<title>Node1&#45;&gt;Node8</title>
<path fill="none" stroke="midnightblue" d="M756.01,-69C802.61,-60.53 883.75,-45.76 963.12,-31.25"/>
<polygon fill="midnightblue" stroke="midnightblue" points="964.08,-34.63 973.29,-29.39 962.82,-27.75 964.08,-34.63"/>
</g>
<!-- Node9 -->
<g id="node9" class="node">
<title>Node9</title>
<g id="a_node9"><a xlink:title=" ">
<polygon fill="white" stroke="#bfbfbf" points="1131.5,-6 1131.5,-25 1185.5,-25 1185.5,-6 1131.5,-6"/>
<text text-anchor="middle" x="1158.5" y="-13" font-family="Helvetica,sans-Serif" font-size="10.00">iostream</text>
</a>
</g>
</g>
<!-- Node1&#45;&gt;Node9 -->
<g id="edge8" class="edge">
<title>Node1&#45;&gt;Node9</title>
<path fill="none" stroke="midnightblue" d="M756.08,-75.19C828.83,-72.9 990.78,-64.18 1122.5,-31 1125.16,-30.33 1127.89,-29.5 1130.6,-28.59"/>
<polygon fill="midnightblue" stroke="midnightblue" points="1132,-31.8 1140.14,-25.02 1129.55,-25.25 1132,-31.8"/>
</g>
<!-- Node10 -->
<g id="node10" class="node">
<title>Node10</title>
<g id="a_node10"><a xlink:title=" ">
<polygon fill="white" stroke="#bfbfbf" points="1203.5,-6 1203.5,-25 1253.5,-25 1253.5,-6 1203.5,-6"/>
<text text-anchor="middle" x="1228.5" y="-13" font-family="Helvetica,sans-Serif" font-size="10.00">fstream</text>
</a>
</g>
</g>
<!-- Node1&#45;&gt;Node10 -->
<g id="edge9" class="edge">
<title>Node1&#45;&gt;Node10</title>
<path fill="none" stroke="midnightblue" d="M756.21,-76.36C838.32,-76.24 1035.47,-71.37 1194.5,-31 1196.86,-30.4 1199.27,-29.66 1201.66,-28.83"/>
<polygon fill="midnightblue" stroke="midnightblue" points="1203.18,-32 1211.21,-25.09 1200.63,-25.48 1203.18,-32"/>
</g>
</g>
</svg>
