<?xml version="1.0" encoding="UTF-8" standalone="no"?>
<!DOCTYPE svg PUBLIC "-//W3C//DTD SVG 1.1//EN"
 "http://www.w3.org/Graphics/SVG/1.1/DTD/svg11.dtd">
<!-- Generated by graphviz version 2.43.0 (0)
 -->
<!-- Title: ProtChBody.h Pages: 1 -->
<svg width="1353pt" height="95pt"
 viewBox="0.00 0.00 1353.00 95.00" xmlns="http://www.w3.org/2000/svg" xmlns:xlink="http://www.w3.org/1999/xlink">
<g id="graph0" class="graph" transform="scale(1 1) rotate(0) translate(4 91)">
<title>ProtChBody.h</title>
<polygon fill="white" stroke="transparent" points="-4,4 -4,-91 1349,-91 1349,4 -4,4"/>
<!-- Node1 -->
<g id="node1" class="node">
<title>Node1</title>
<g id="a_node1"><a xlink:title=" ">
<polygon fill="#bfbfbf" stroke="black" points="724,-67.5 724,-86.5 805,-86.5 805,-67.5 724,-67.5"/>
<text text-anchor="middle" x="764.5" y="-74.5" font-family="Helvetica,sans-Serif" font-size="10.00">ProtChBody.h</text>
</a>
</g>
</g>
<!-- Node2 -->
<g id="node2" class="node">
<title>Node2</title>
<g id="a_node2"><a xlink:title=" ">
<polygon fill="white" stroke="#bfbfbf" points="0,-6 0,-25 173,-25 173,-6 0,-6"/>
<text text-anchor="middle" x="86.5" y="-13" font-family="Helvetica,sans-Serif" font-size="10.00">chrono/physics/ChSystemSMC.h</text>
</a>
</g>
</g>
<!-- Node1&#45;&gt;Node2 -->
<g id="edge1" class="edge">
<title>Node1&#45;&gt;Node2</title>
<path fill="none" stroke="midnightblue" d="M723.76,-73.9C628.61,-68.77 384.47,-54.29 181.5,-31 170.59,-29.75 159,-28.18 147.81,-26.54"/>
<polygon fill="midnightblue" stroke="midnightblue" points="148.09,-23.05 137.68,-25.03 147.05,-29.97 148.09,-23.05"/>
</g>
<!-- Node3 -->
<g id="node3" class="node">
<title>Node3</title>
<g id="a_node3"><a xlink:title=" ">
<polygon fill="white" stroke="#bfbfbf" points="191,-6 191,-25 342,-25 342,-6 191,-6"/>
<text text-anchor="middle" x="266.5" y="-13" font-family="Helvetica,sans-Serif" font-size="10.00">chrono/physics/ChSystem.h</text>
</a>
</g>
</g>
<!-- Node1&#45;&gt;Node3 -->
<g id="edge2" class="edge">
<title>Node1&#45;&gt;Node3</title>
<path fill="none" stroke="midnightblue" d="M723.95,-72.4C649.83,-65.64 487.58,-50 351.5,-31 342.46,-29.74 332.91,-28.25 323.6,-26.73"/>
<polygon fill="midnightblue" stroke="midnightblue" points="324.07,-23.26 313.63,-25.06 322.92,-30.16 324.07,-23.26"/>
</g>
<!-- Node4 -->
<g id="node4" class="node">
<title>Node4</title>
<g id="a_node4"><a xlink:title=" ">
<polygon fill="white" stroke="#bfbfbf" points="360.5,-0.5 360.5,-30.5 472.5,-30.5 472.5,-0.5 360.5,-0.5"/>
<text text-anchor="start" x="368.5" y="-18.5" font-family="Helvetica,sans-Serif" font-size="10.00">chrono/timestepper</text>
<text text-anchor="middle" x="416.5" y="-7.5" font-family="Helvetica,sans-Serif" font-size="10.00">/ChTimestepper.h</text>
</a>
</g>
</g>
<!-- Node1&#45;&gt;Node4 -->
<g id="edge3" class="edge">
<title>Node1&#45;&gt;Node4</title>
<path fill="none" stroke="midnightblue" d="M723.59,-70.3C670.38,-62.72 574.32,-48.42 482.81,-31.18"/>
<polygon fill="midnightblue" stroke="midnightblue" points="483.3,-27.72 472.83,-29.29 482,-34.59 483.3,-27.72"/>
</g>
<!-- Node5 -->
<g id="node5" class="node">
<title>Node5</title>
<g id="a_node5"><a xlink:title=" ">
<polygon fill="white" stroke="#bfbfbf" points="490.5,-6 490.5,-25 672.5,-25 672.5,-6 490.5,-6"/>
<text text-anchor="middle" x="581.5" y="-13" font-family="Helvetica,sans-Serif" font-size="10.00">chrono/solver/ChSolverPMINRES.h</text>
</a>
</g>
</g>
<!-- Node1&#45;&gt;Node5 -->
<g id="edge4" class="edge">
<title>Node1&#45;&gt;Node5</title>
<path fill="none" stroke="midnightblue" d="M738.28,-67.48C706.48,-57.14 652.73,-39.66 617.18,-28.1"/>
<polygon fill="midnightblue" stroke="midnightblue" points="618.26,-24.77 607.67,-25.01 616.1,-31.43 618.26,-24.77"/>
</g>
<!-- Node6 -->
<g id="node6" class="node">
<title>Node6</title>
<g id="a_node6"><a xlink:title=" ">
<polygon fill="white" stroke="#bfbfbf" points="691,-6 691,-25 838,-25 838,-6 691,-6"/>
<text text-anchor="middle" x="764.5" y="-13" font-family="Helvetica,sans-Serif" font-size="10.00">chrono/core/ChTransform.h</text>
</a>
</g>
</g>
<!-- Node1&#45;&gt;Node6 -->
<g id="edge5" class="edge">
<title>Node1&#45;&gt;Node6</title>
<path fill="none" stroke="midnightblue" d="M764.5,-67.48C764.5,-59.08 764.5,-45.98 764.5,-35.16"/>
<polygon fill="midnightblue" stroke="midnightblue" points="768,-35.01 764.5,-25.01 761,-35.01 768,-35.01"/>
</g>
<!-- Node7 -->
<g id="node7" class="node">
<title>Node7</title>
<g id="a_node7"><a xlink:title=" ">
<polygon fill="white" stroke="#bfbfbf" points="856,-6 856,-25 1021,-25 1021,-6 856,-6"/>
<text text-anchor="middle" x="938.5" y="-13" font-family="Helvetica,sans-Serif" font-size="10.00">chrono/physics/ChLinkSpring.h</text>
</a>
</g>
</g>
<!-- Node1&#45;&gt;Node7 -->
<g id="edge6" class="edge">
<title>Node1&#45;&gt;Node7</title>
<path fill="none" stroke="midnightblue" d="M789.43,-67.48C819.54,-57.18 870.33,-39.81 904.14,-28.25"/>
<polygon fill="midnightblue" stroke="midnightblue" points="905.29,-31.56 913.62,-25.01 903.02,-24.93 905.29,-31.56"/>
</g>
<!-- Node8 -->
<g id="node8" class="node">
<title>Node8</title>
<g id="a_node8"><a xlink:title=" ">
<polygon fill="white" stroke="#bfbfbf" points="1039.5,-0.5 1039.5,-30.5 1193.5,-30.5 1193.5,-0.5 1039.5,-0.5"/>
<text text-anchor="start" x="1047.5" y="-18.5" font-family="Helvetica,sans-Serif" font-size="10.00">chrono/geometry/ChTriangle</text>
<text text-anchor="middle" x="1116.5" y="-7.5" font-family="Helvetica,sans-Serif" font-size="10.00">MeshConnected.h</text>
</a>
</g>
</g>
<!-- Node1&#45;&gt;Node8 -->
<g id="edge7" class="edge">
<title>Node1&#45;&gt;Node8</title>
<path fill="none" stroke="midnightblue" d="M805.22,-69.12C859.75,-59.9 957.92,-43.31 1029.46,-31.21"/>
<polygon fill="midnightblue" stroke="midnightblue" points="1030.1,-34.65 1039.37,-29.54 1028.93,-27.75 1030.1,-34.65"/>
</g>
<!-- Node9 -->
<g id="node9" class="node">
<title>Node9</title>
<g id="a_node9"><a xlink:title=" ">
<polygon fill="white" stroke="#bfbfbf" points="1211.5,-6 1211.5,-25 1271.5,-25 1271.5,-6 1211.5,-6"/>
<text text-anchor="middle" x="1241.5" y="-13" font-family="Helvetica,sans-Serif" font-size="10.00">iostream</text>
</a>
</g>
</g>
<!-- Node1&#45;&gt;Node9 -->
<g id="edge8" class="edge">
<title>Node1&#45;&gt;Node9</title>
<path fill="none" stroke="midnightblue" d="M805.22,-75.25C883.29,-73.05 1059.01,-64.47 1202.5,-31 1205.57,-30.28 1208.72,-29.39 1211.84,-28.4"/>
<polygon fill="midnightblue" stroke="midnightblue" points="1213.27,-31.61 1221.56,-25.02 1210.96,-25 1213.27,-31.61"/>
</g>
<!-- Node10 -->
<g id="node10" class="node">
<title>Node10</title>
<g id="a_node10"><a xlink:title=" ">
<polygon fill="white" stroke="#bfbfbf" points="1290,-6 1290,-25 1345,-25 1345,-6 1290,-6"/>
<text text-anchor="middle" x="1317.5" y="-13" font-family="Helvetica,sans-Serif" font-size="10.00">fstream</text>
</a>
</g>
</g>
<!-- Node1&#45;&gt;Node10 -->
<g id="edge9" class="edge">
<title>Node1&#45;&gt;Node10</title>
<path fill="none" stroke="midnightblue" d="M805.26,-76.37C893.28,-76.33 1107.15,-71.63 1280.5,-31 1283.33,-30.34 1286.24,-29.5 1289.11,-28.56"/>
<polygon fill="midnightblue" stroke="midnightblue" points="1290.43,-31.8 1298.63,-25.1 1288.04,-25.23 1290.43,-31.8"/>
</g>
</g>
</svg>
