<?xml version="1.0" encoding="UTF-8" standalone="no"?>
<!DOCTYPE svg PUBLIC "-//W3C//DTD SVG 1.1//EN"
 "http://www.w3.org/Graphics/SVG/1.1/DTD/svg11.dtd">
<!-- Generated by graphviz version 2.40.1 (20161225.0304)
 -->
<!-- Title: ProtChBody.h Pages: 1 -->
<svg width="1262pt" height="95pt"
 viewBox="0.00 0.00 1261.50 95.00" xmlns="http://www.w3.org/2000/svg" xmlns:xlink="http://www.w3.org/1999/xlink">
<g id="graph0" class="graph" transform="scale(1 1) rotate(0) translate(4 91)">
<title>ProtChBody.h</title>
<polygon fill="#ffffff" stroke="transparent" points="-4,4 -4,-91 1257.5,-91 1257.5,4 -4,4"/>
<!-- Node0 -->
<g id="node1" class="node">
<title>Node0</title>
<polygon fill="#bfbfbf" stroke="#000000" points="678.5,-67.5 678.5,-86.5 756.5,-86.5 756.5,-67.5 678.5,-67.5"/>
<text text-anchor="middle" x="717.5" y="-74.5" font-family="Helvetica,sans-Serif" font-size="10.00" fill="#000000">ProtChBody.h</text>
</g>
<!-- Node1 -->
<g id="node2" class="node">
<title>Node1</title>
<polygon fill="#ffffff" stroke="#bfbfbf" points="0,-6 0,-25 163,-25 163,-6 0,-6"/>
<text text-anchor="middle" x="81.5" y="-13" font-family="Helvetica,sans-Serif" font-size="10.00" fill="#000000">chrono/physics/ChSystemSMC.h</text>
</g>
<!-- Node0&#45;&gt;Node1 -->
<g id="edge1" class="edge">
<title>Node0&#45;&gt;Node1</title>
<path fill="none" stroke="#191970" d="M678.3905,-74.837C588.6969,-69.6279 361.3635,-55.0113 172.5,-31 162.9425,-29.7849 152.8554,-28.2857 143.0147,-26.7029"/>
<polygon fill="#191970" stroke="#191970" points="143.3176,-23.2056 132.8813,-25.0315 142.1783,-30.1123 143.3176,-23.2056"/>
</g>
<!-- Node2 -->
<g id="node3" class="node">
<title>Node2</title>
<polygon fill="#ffffff" stroke="#bfbfbf" points="181.5,-6 181.5,-25 321.5,-25 321.5,-6 181.5,-6"/>
<text text-anchor="middle" x="251.5" y="-13" font-family="Helvetica,sans-Serif" font-size="10.00" fill="#000000">chrono/physics/ChSystem.h</text>
</g>
<!-- Node0&#45;&gt;Node2 -->
<g id="edge2" class="edge">
<title>Node0&#45;&gt;Node2</title>
<path fill="none" stroke="#191970" d="M678.3651,-73.3339C608.3588,-66.5566 457.1591,-50.9239 330.5,-31 322.8306,-29.7936 314.7701,-28.381 306.8493,-26.9084"/>
<polygon fill="#191970" stroke="#191970" points="307.4087,-23.4522 296.9309,-25.0221 306.1009,-30.3289 307.4087,-23.4522"/>
</g>
<!-- Node3 -->
<g id="node4" class="node">
<title>Node3</title>
<polygon fill="#ffffff" stroke="#bfbfbf" points="339.5,-.5 339.5,-30.5 439.5,-30.5 439.5,-.5 339.5,-.5"/>
<text text-anchor="start" x="347.5" y="-18.5" font-family="Helvetica,sans-Serif" font-size="10.00" fill="#000000">chrono/timestepper</text>
<text text-anchor="middle" x="389.5" y="-7.5" font-family="Helvetica,sans-Serif" font-size="10.00" fill="#000000">/ChTimestepper.h</text>
</g>
<!-- Node0&#45;&gt;Node3 -->
<g id="edge3" class="edge">
<title>Node0&#45;&gt;Node3</title>
<path fill="none" stroke="#191970" d="M678.0895,-71.3661C627.4375,-63.8828 536.5991,-49.6458 449.6707,-31.1491"/>
<polygon fill="#191970" stroke="#191970" points="450.1525,-27.6727 439.6401,-28.9916 448.6806,-34.5162 450.1525,-27.6727"/>
</g>
<!-- Node4 -->
<g id="node5" class="node">
<title>Node4</title>
<polygon fill="#ffffff" stroke="#bfbfbf" points="458,-6 458,-25 631,-25 631,-6 458,-6"/>
<text text-anchor="middle" x="544.5" y="-13" font-family="Helvetica,sans-Serif" font-size="10.00" fill="#000000">chrono/solver/ChSolverPMINRES.h</text>
</g>
<!-- Node0&#45;&gt;Node4 -->
<g id="edge4" class="edge">
<title>Node0&#45;&gt;Node4</title>
<path fill="none" stroke="#191970" d="M690.4688,-67.3906C661.0149,-56.92 613.7311,-40.1111 580.9973,-28.4745"/>
<polygon fill="#191970" stroke="#191970" points="581.9361,-25.0937 571.3414,-25.0419 579.5914,-31.6893 581.9361,-25.0937"/>
</g>
<!-- Node5 -->
<g id="node6" class="node">
<title>Node5</title>
<polygon fill="#ffffff" stroke="#bfbfbf" points="649.5,-6 649.5,-25 785.5,-25 785.5,-6 649.5,-6"/>
<text text-anchor="middle" x="717.5" y="-13" font-family="Helvetica,sans-Serif" font-size="10.00" fill="#000000">chrono/core/ChTransform.h</text>
</g>
<!-- Node0&#45;&gt;Node5 -->
<g id="edge5" class="edge">
<title>Node0&#45;&gt;Node5</title>
<path fill="none" stroke="#191970" d="M717.5,-67.3906C717.5,-58.8657 717.5,-46.1392 717.5,-35.4235"/>
<polygon fill="#191970" stroke="#191970" points="721.0001,-35.2448 717.5,-25.2449 714.0001,-35.2449 721.0001,-35.2448"/>
</g>
<!-- Node6 -->
<g id="node7" class="node">
<title>Node6</title>
<polygon fill="#ffffff" stroke="#bfbfbf" points="803.5,-6 803.5,-25 955.5,-25 955.5,-6 803.5,-6"/>
<text text-anchor="middle" x="879.5" y="-13" font-family="Helvetica,sans-Serif" font-size="10.00" fill="#000000">chrono/physics/ChLinkSpring.h</text>
</g>
<!-- Node0&#45;&gt;Node6 -->
<g id="edge6" class="edge">
<title>Node0&#45;&gt;Node6</title>
<path fill="none" stroke="#191970" d="M742.8125,-67.3906C770.2747,-56.9652 814.2895,-40.2559 844.9263,-28.6252"/>
<polygon fill="#191970" stroke="#191970" points="846.2585,-31.8633 854.3652,-25.0419 843.774,-25.319 846.2585,-31.8633"/>
</g>
<!-- Node7 -->
<g id="node8" class="node">
<title>Node7</title>
<polygon fill="#ffffff" stroke="#bfbfbf" points="973.5,-.5 973.5,-30.5 1113.5,-30.5 1113.5,-.5 973.5,-.5"/>
<text text-anchor="start" x="981.5" y="-18.5" font-family="Helvetica,sans-Serif" font-size="10.00" fill="#000000">chrono/geometry/ChTriangle</text>
<text text-anchor="middle" x="1043.5" y="-7.5" font-family="Helvetica,sans-Serif" font-size="10.00" fill="#000000">MeshConnected.h</text>
</g>
<!-- Node0&#45;&gt;Node7 -->
<g id="edge7" class="edge">
<title>Node0&#45;&gt;Node7</title>
<path fill="none" stroke="#191970" d="M756.8785,-69.787C803.6426,-61.1945 884.2788,-46.2947 963.1836,-31.2424"/>
<polygon fill="#191970" stroke="#191970" points="964.1299,-34.625 973.2955,-29.3106 962.8164,-27.7493 964.1299,-34.625"/>
</g>
<!-- Node8 -->
<g id="node9" class="node">
<title>Node8</title>
<polygon fill="#ffffff" stroke="#bfbfbf" points="1131.5,-6 1131.5,-25 1185.5,-25 1185.5,-6 1131.5,-6"/>
<text text-anchor="middle" x="1158.5" y="-13" font-family="Helvetica,sans-Serif" font-size="10.00" fill="#000000">iostream</text>
</g>
<!-- Node0&#45;&gt;Node8 -->
<g id="edge8" class="edge">
<title>Node0&#45;&gt;Node8</title>
<path fill="none" stroke="#191970" d="M756.6853,-74.0213C844.3428,-67.1195 1053.9398,-49.2261 1122.5,-31 1124.8305,-30.3805 1127.2056,-29.6354 1129.5683,-28.8115"/>
<polygon fill="#191970" stroke="#191970" points="1131.0254,-32 1139.0653,-25.0999 1128.4773,-25.4802 1131.0254,-32"/>
</g>
<!-- Node9 -->
<g id="node10" class="node">
<title>Node9</title>
<polygon fill="#ffffff" stroke="#bfbfbf" points="1203.5,-6 1203.5,-25 1253.5,-25 1253.5,-6 1203.5,-6"/>
<text text-anchor="middle" x="1228.5" y="-13" font-family="Helvetica,sans-Serif" font-size="10.00" fill="#000000">fstream</text>
</g>
<!-- Node0&#45;&gt;Node9 -->
<g id="edge9" class="edge">
<title>Node0&#45;&gt;Node9</title>
<path fill="none" stroke="#191970" d="M756.5827,-74.9001C855.1796,-69.3356 1112.0317,-53.1095 1194.5,-31 1196.6892,-30.4131 1198.9141,-29.6977 1201.1242,-28.8998"/>
<polygon fill="#191970" stroke="#191970" points="1202.6462,-32.0583 1210.562,-25.0163 1199.9825,-25.5849 1202.6462,-32.0583"/>
</g>
</g>
</svg>
