<?xml version="1.0" encoding="UTF-8" standalone="no"?>
<!DOCTYPE svg PUBLIC "-//W3C//DTD SVG 1.1//EN"
 "http://www.w3.org/Graphics/SVG/1.1/DTD/svg11.dtd">
<!-- Generated by graphviz version 2.40.1 (20161225.0304)
 -->
<!-- Title: ProtChMoorings.h Pages: 1 -->
<svg width="3103pt" height="95pt"
 viewBox="0.00 0.00 3103.00 95.00" xmlns="http://www.w3.org/2000/svg" xmlns:xlink="http://www.w3.org/1999/xlink">
<g id="graph0" class="graph" transform="scale(1 1) rotate(0) translate(4 91)">
<title>ProtChMoorings.h</title>
<polygon fill="#ffffff" stroke="transparent" points="-4,4 -4,-91 3099,-91 3099,4 -4,4"/>
<!-- Node0 -->
<g id="node1" class="node">
<title>Node0</title>
<polygon fill="#bfbfbf" stroke="#000000" points="1397.5,-67.5 1397.5,-86.5 1492.5,-86.5 1492.5,-67.5 1397.5,-67.5"/>
<text text-anchor="middle" x="1445" y="-74.5" font-family="Helvetica,sans-Serif" font-size="10.00" fill="#000000">ProtChMoorings.h</text>
</g>
<!-- Node1 -->
<g id="node2" class="node">
<title>Node1</title>
<polygon fill="#ffffff" stroke="#bfbfbf" points="0,-6 0,-25 54,-25 54,-6 0,-6"/>
<text text-anchor="middle" x="27" y="-13" font-family="Helvetica,sans-Serif" font-size="10.00" fill="#000000">iostream</text>
</g>
<!-- Node0&#45;&gt;Node1 -->
<g id="edge1" class="edge">
<title>Node0&#45;&gt;Node1</title>
<path fill="none" stroke="#191970" d="M1397.2093,-76.463C1168.939,-73.7562 195.2226,-60.5564 63,-31 60.352,-30.4081 57.6555,-29.6245 54.9898,-28.7233"/>
<polygon fill="#191970" stroke="#191970" points="56.2012,-25.4391 45.6126,-25.0768 53.6642,-31.9632 56.2012,-25.4391"/>
</g>
<!-- Node2 -->
<g id="node3" class="node">
<title>Node2</title>
<polygon fill="#ffffff" stroke="#bfbfbf" points="72.5,-6 72.5,-25 119.5,-25 119.5,-6 72.5,-6"/>
<text text-anchor="middle" x="96" y="-13" font-family="Helvetica,sans-Serif" font-size="10.00" fill="#000000">math.h</text>
</g>
<!-- Node0&#45;&gt;Node2 -->
<g id="edge2" class="edge">
<title>Node0&#45;&gt;Node2</title>
<path fill="none" stroke="#191970" d="M1397.2359,-76.5019C1175.603,-74.033 252.9111,-61.9642 128,-31 126.0228,-30.5099 124.0235,-29.8885 122.0409,-29.178"/>
<polygon fill="#191970" stroke="#191970" points="123.0146,-25.7879 112.4437,-25.0759 120.2633,-32.2246 123.0146,-25.7879"/>
</g>
<!-- Node3 -->
<g id="node4" class="node">
<title>Node3</title>
<polygon fill="#ffffff" stroke="#bfbfbf" points="137.5,-6 137.5,-25 178.5,-25 178.5,-6 137.5,-6"/>
<text text-anchor="middle" x="158" y="-13" font-family="Helvetica,sans-Serif" font-size="10.00" fill="#000000">string</text>
</g>
<!-- Node0&#45;&gt;Node3 -->
<g id="edge3" class="edge">
<title>Node0&#45;&gt;Node3</title>
<path fill="none" stroke="#191970" d="M1397.2554,-76.4873C1181.9122,-74.0085 306.414,-62.0871 188,-31 186.2847,-30.5497 184.556,-29.9894 182.8408,-29.3514"/>
<polygon fill="#191970" stroke="#191970" points="183.9102,-25.9941 173.3555,-25.0721 181.0315,-32.3748 183.9102,-25.9941"/>
</g>
<!-- Node4 -->
<g id="node5" class="node">
<title>Node4</title>
<polygon fill="#ffffff" stroke="#bfbfbf" points="197,-6 197,-25 337,-25 337,-6 197,-6"/>
<text text-anchor="middle" x="267" y="-13" font-family="Helvetica,sans-Serif" font-size="10.00" fill="#000000">chrono/physics/ChSystem.h</text>
</g>
<!-- Node0&#45;&gt;Node4 -->
<g id="edge4" class="edge">
<title>Node0&#45;&gt;Node4</title>
<path fill="none" stroke="#191970" d="M1397.3541,-75.9704C1214.0556,-71.8596 554.2512,-55.6433 346,-31 337.3272,-29.9737 328.1817,-28.525 319.3109,-26.9212"/>
<polygon fill="#191970" stroke="#191970" points="319.928,-23.476 309.4521,-25.0589 318.6286,-30.3543 319.928,-23.476"/>
</g>
<!-- Node5 -->
<g id="node6" class="node">
<title>Node5</title>
<polygon fill="#ffffff" stroke="#bfbfbf" points="355.5,-6 355.5,-25 518.5,-25 518.5,-6 355.5,-6"/>
<text text-anchor="middle" x="437" y="-13" font-family="Helvetica,sans-Serif" font-size="10.00" fill="#000000">chrono/physics/ChSystemSMC.h</text>
</g>
<!-- Node0&#45;&gt;Node5 -->
<g id="edge5" class="edge">
<title>Node0&#45;&gt;Node5</title>
<path fill="none" stroke="#191970" d="M1397.109,-76.5965C1260.7948,-75.0179 859.1571,-67.3792 528,-31 517.7386,-29.8727 506.8798,-28.3314 496.3739,-26.6558"/>
<polygon fill="#191970" stroke="#191970" points="496.8766,-23.1915 486.4403,-25.0173 495.7373,-30.0982 496.8766,-23.1915"/>
</g>
<!-- Node6 -->
<g id="node7" class="node">
<title>Node6</title>
<polygon fill="#ffffff" stroke="#bfbfbf" points="537,-6 537,-25 707,-25 707,-6 537,-6"/>
<text text-anchor="middle" x="622" y="-13" font-family="Helvetica,sans-Serif" font-size="10.00" fill="#000000">chrono/physics/ChLoadContainer.h</text>
</g>
<!-- Node0&#45;&gt;Node6 -->
<g id="edge6" class="edge">
<title>Node0&#45;&gt;Node6</title>
<path fill="none" stroke="#191970" d="M1397.0892,-75.6413C1280.3056,-71.9675 971.7846,-60.0843 716,-31 705.6633,-29.8247 694.7315,-28.2912 684.121,-26.6465"/>
<polygon fill="#191970" stroke="#191970" points="684.5031,-23.1633 674.0765,-25.0436 683.4,-30.0758 684.5031,-23.1633"/>
</g>
<!-- Node7 -->
<g id="node8" class="node">
<title>Node7</title>
<polygon fill="#ffffff" stroke="#bfbfbf" points="725,-6 725,-25 871,-25 871,-6 725,-6"/>
<text text-anchor="middle" x="798" y="-13" font-family="Helvetica,sans-Serif" font-size="10.00" fill="#000000">chrono/physics/ChLinkMate.h</text>
</g>
<!-- Node0&#45;&gt;Node7 -->
<g id="edge7" class="edge">
<title>Node0&#45;&gt;Node7</title>
<path fill="none" stroke="#191970" d="M1397.1959,-74.8147C1299.629,-69.979 1070.6755,-56.7101 880,-31 871.5376,-29.859 862.6254,-28.4218 853.9191,-26.8852"/>
<polygon fill="#191970" stroke="#191970" points="854.2979,-23.3967 843.8325,-25.0477 853.0432,-30.2834 854.2979,-23.3967"/>
</g>
<!-- Node8 -->
<g id="node9" class="node">
<title>Node8</title>
<polygon fill="#ffffff" stroke="#bfbfbf" points="889,-6 889,-25 1041,-25 1041,-6 889,-6"/>
<text text-anchor="middle" x="965" y="-13" font-family="Helvetica,sans-Serif" font-size="10.00" fill="#000000">chrono/physics/ChBodyEasy.h</text>
</g>
<!-- Node0&#45;&gt;Node8 -->
<g id="edge8" class="edge">
<title>Node0&#45;&gt;Node8</title>
<path fill="none" stroke="#191970" d="M1397.4435,-72.4613C1323.1112,-65.1422 1174.9589,-49.6496 1050,-31 1041.6826,-29.7587 1032.9316,-28.3177 1024.3359,-26.824"/>
<polygon fill="#191970" stroke="#191970" points="1024.8091,-23.3534 1014.3519,-25.0551 1023.5879,-30.246 1024.8091,-23.3534"/>
</g>
<!-- Node9 -->
<g id="node10" class="node">
<title>Node9</title>
<polygon fill="#ffffff" stroke="#bfbfbf" points="1059,-.5 1059,-30.5 1199,-30.5 1199,-.5 1059,-.5"/>
<text text-anchor="start" x="1067" y="-18.5" font-family="Helvetica,sans-Serif" font-size="10.00" fill="#000000">chrono/fea/ChElementBeam</text>
<text text-anchor="middle" x="1129" y="-7.5" font-family="Helvetica,sans-Serif" font-size="10.00" fill="#000000">ANCF.h</text>
</g>
<!-- Node0&#45;&gt;Node9 -->
<g id="edge9" class="edge">
<title>Node0&#45;&gt;Node9</title>
<path fill="none" stroke="#191970" d="M1397.3304,-67.7772C1351.6178,-58.9263 1280.3731,-45.1148 1209.2431,-31.2406"/>
<polygon fill="#191970" stroke="#191970" points="1209.695,-27.7629 1199.2098,-29.283 1208.3545,-34.6333 1209.695,-27.7629"/>
</g>
<!-- Node10 -->
<g id="node11" class="node">
<title>Node10</title>
<polygon fill="#ffffff" stroke="#bfbfbf" points="1217,-.5 1217,-30.5 1357,-30.5 1357,-.5 1217,-.5"/>
<text text-anchor="start" x="1225" y="-18.5" font-family="Helvetica,sans-Serif" font-size="10.00" fill="#000000">chrono/fea/ChElementCable</text>
<text text-anchor="middle" x="1287" y="-7.5" font-family="Helvetica,sans-Serif" font-size="10.00" fill="#000000">ANCF.h</text>
</g>
<!-- Node0&#45;&gt;Node10 -->
<g id="edge10" class="edge">
<title>Node0&#45;&gt;Node10</title>
<path fill="none" stroke="#191970" d="M1420.3125,-67.3906C1397.6422,-58.5664 1363.4063,-45.2404 1335.3058,-34.3026"/>
<polygon fill="#191970" stroke="#191970" points="1336.2397,-30.9103 1325.6511,-30.5446 1333.7005,-37.4336 1336.2397,-30.9103"/>
</g>
<!-- Node11 -->
<g id="node12" class="node">
<title>Node11</title>
<polygon fill="#ffffff" stroke="#bfbfbf" points="1375,-.5 1375,-30.5 1515,-30.5 1515,-.5 1375,-.5"/>
<text text-anchor="start" x="1383" y="-18.5" font-family="Helvetica,sans-Serif" font-size="10.00" fill="#000000">chrono/fea/ChElementBeam</text>
<text text-anchor="middle" x="1445" y="-7.5" font-family="Helvetica,sans-Serif" font-size="10.00" fill="#000000">Euler.h</text>
</g>
<!-- Node0&#45;&gt;Node11 -->
<g id="edge11" class="edge">
<title>Node0&#45;&gt;Node11</title>
<path fill="none" stroke="#191970" d="M1445,-67.3906C1445,-60.2234 1445,-50.0862 1445,-40.671"/>
<polygon fill="#191970" stroke="#191970" points="1448.5001,-40.5446 1445,-30.5446 1441.5001,-40.5446 1448.5001,-40.5446"/>
</g>
<!-- Node12 -->
<g id="node13" class="node">
<title>Node12</title>
<polygon fill="#ffffff" stroke="#bfbfbf" points="1533.5,-6 1533.5,-25 1678.5,-25 1678.5,-6 1533.5,-6"/>
<text text-anchor="middle" x="1606" y="-13" font-family="Helvetica,sans-Serif" font-size="10.00" fill="#000000">chrono/fea/ChBeamSection.h</text>
</g>
<!-- Node0&#45;&gt;Node12 -->
<g id="edge12" class="edge">
<title>Node0&#45;&gt;Node12</title>
<path fill="none" stroke="#191970" d="M1470.1563,-67.3906C1497.449,-56.9652 1541.192,-40.2559 1571.6397,-28.6252"/>
<polygon fill="#191970" stroke="#191970" points="1572.9277,-31.8799 1581.0204,-25.0419 1570.4298,-25.3408 1572.9277,-31.8799"/>
</g>
<!-- Node13 -->
<g id="node14" class="node">
<title>Node13</title>
<polygon fill="#ffffff" stroke="#bfbfbf" points="1697,-6 1697,-25 1807,-25 1807,-6 1697,-6"/>
<text text-anchor="middle" x="1752" y="-13" font-family="Helvetica,sans-Serif" font-size="10.00" fill="#000000">chrono/fea/ChMesh.h</text>
</g>
<!-- Node0&#45;&gt;Node13 -->
<g id="edge13" class="edge">
<title>Node0&#45;&gt;Node13</title>
<path fill="none" stroke="#191970" d="M1492.6371,-68.7165C1541.7343,-60.0072 1620.4246,-45.5693 1688,-31 1693.1076,-29.8988 1698.4313,-28.6968 1703.7312,-27.465"/>
<polygon fill="#191970" stroke="#191970" points="1704.9037,-30.7844 1713.8306,-25.0783 1703.2937,-23.9721 1704.9037,-30.7844"/>
</g>
<!-- Node14 -->
<g id="node15" class="node">
<title>Node14</title>
<polygon fill="#ffffff" stroke="#bfbfbf" points="1825.5,-6 1825.5,-25 1974.5,-25 1974.5,-6 1825.5,-6"/>
<text text-anchor="middle" x="1900" y="-13" font-family="Helvetica,sans-Serif" font-size="10.00" fill="#000000">chrono/fea/ChLinkPointPoint.h</text>
</g>
<!-- Node0&#45;&gt;Node14 -->
<g id="edge14" class="edge">
<title>Node0&#45;&gt;Node14</title>
<path fill="none" stroke="#191970" d="M1492.5618,-72.0131C1563.2691,-64.3936 1700.2172,-48.8443 1816,-31 1824.2168,-29.7336 1832.8632,-28.2786 1841.3571,-26.7782"/>
<polygon fill="#191970" stroke="#191970" points="1842.0002,-30.2188 1851.2231,-25.0046 1840.7616,-23.3292 1842.0002,-30.2188"/>
</g>
<!-- Node15 -->
<g id="node16" class="node">
<title>Node15</title>
<polygon fill="#ffffff" stroke="#bfbfbf" points="1992.5,-6 1992.5,-25 2147.5,-25 2147.5,-6 1992.5,-6"/>
<text text-anchor="middle" x="2070" y="-13" font-family="Helvetica,sans-Serif" font-size="10.00" fill="#000000">chrono/fea/ChLinkPointFrame.h</text>
</g>
<!-- Node0&#45;&gt;Node15 -->
<g id="edge15" class="edge">
<title>Node0&#45;&gt;Node15</title>
<path fill="none" stroke="#191970" d="M1492.7487,-74.4236C1586.9756,-69.0085 1803.3804,-54.9312 1984,-31 1992.9463,-29.8147 2002.3783,-28.3433 2011.5873,-26.7829"/>
<polygon fill="#191970" stroke="#191970" points="2012.2076,-30.2276 2021.459,-25.0639 2011.0068,-23.3314 2012.2076,-30.2276"/>
</g>
<!-- Node16 -->
<g id="node17" class="node">
<title>Node16</title>
<polygon fill="#ffffff" stroke="#bfbfbf" points="2165.5,-6 2165.5,-25 2310.5,-25 2310.5,-6 2165.5,-6"/>
<text text-anchor="middle" x="2238" y="-13" font-family="Helvetica,sans-Serif" font-size="10.00" fill="#000000">chrono/fea/ChLinkDirFrame.h</text>
</g>
<!-- Node0&#45;&gt;Node16 -->
<g id="edge16" class="edge">
<title>Node0&#45;&gt;Node16</title>
<path fill="none" stroke="#191970" d="M1492.6901,-75.9686C1607.4982,-73.0401 1908.1793,-62.7193 2157,-31 2165.6681,-29.895 2174.8069,-28.4359 2183.6993,-26.8544"/>
<polygon fill="#191970" stroke="#191970" points="2184.397,-30.2848 2193.5963,-25.0291 2183.1273,-23.4009 2184.397,-30.2848"/>
</g>
<!-- Node17 -->
<g id="node18" class="node">
<title>Node17</title>
<polygon fill="#ffffff" stroke="#bfbfbf" points="2329,-6 2329,-25 2467,-25 2467,-6 2329,-6"/>
<text text-anchor="middle" x="2398" y="-13" font-family="Helvetica,sans-Serif" font-size="10.00" fill="#000000">chrono/fea/ChLoadsBeam.h</text>
</g>
<!-- Node0&#45;&gt;Node17 -->
<g id="edge17" class="edge">
<title>Node0&#45;&gt;Node17</title>
<path fill="none" stroke="#191970" d="M1492.6559,-75.3989C1650.8539,-69.9419 2157.7341,-51.2812 2320,-31 2328.3698,-29.9539 2337.187,-28.5243 2345.7614,-26.9539"/>
<polygon fill="#191970" stroke="#191970" points="2346.5086,-30.3745 2355.6742,-25.0602 2345.195,-23.4989 2346.5086,-30.3745"/>
</g>
<!-- Node18 -->
<g id="node19" class="node">
<title>Node18</title>
<polygon fill="#ffffff" stroke="#bfbfbf" points="2485,-.5 2485,-30.5 2631,-30.5 2631,-.5 2485,-.5"/>
<text text-anchor="start" x="2493" y="-18.5" font-family="Helvetica,sans-Serif" font-size="10.00" fill="#000000">chrono/fea/ChContactSurface</text>
<text text-anchor="middle" x="2558" y="-7.5" font-family="Helvetica,sans-Serif" font-size="10.00" fill="#000000">NodeCloud.h</text>
</g>
<!-- Node0&#45;&gt;Node18 -->
<g id="edge18" class="edge">
<title>Node0&#45;&gt;Node18</title>
<path fill="none" stroke="#191970" d="M1492.6727,-75.7747C1665.8304,-71.186 2262.0339,-54.1464 2474.6287,-31.0192"/>
<polygon fill="#191970" stroke="#191970" points="2475.2161,-34.4753 2484.7616,-29.8781 2474.4327,-27.5193 2475.2161,-34.4753"/>
</g>
<!-- Node19 -->
<g id="node20" class="node">
<title>Node19</title>
<polygon fill="#ffffff" stroke="#bfbfbf" points="2649,-.5 2649,-30.5 2749,-30.5 2749,-.5 2649,-.5"/>
<text text-anchor="start" x="2657" y="-18.5" font-family="Helvetica,sans-Serif" font-size="10.00" fill="#000000">chrono/timestepper</text>
<text text-anchor="middle" x="2699" y="-7.5" font-family="Helvetica,sans-Serif" font-size="10.00" fill="#000000">/ChTimestepper.h</text>
</g>
<!-- Node0&#45;&gt;Node19 -->
<g id="edge19" class="edge">
<title>Node0&#45;&gt;Node19</title>
<path fill="none" stroke="#191970" d="M1492.5213,-76.5556C1683.088,-74.5626 2393.0403,-65.063 2638.9854,-30.8816"/>
<polygon fill="#191970" stroke="#191970" points="2639.5446,-34.3372 2648.9427,-29.4459 2638.5456,-27.4089 2639.5446,-34.3372"/>
</g>
<!-- Node20 -->
<g id="node21" class="node">
<title>Node20</title>
<polygon fill="#ffffff" stroke="#bfbfbf" points="2767.5,-6 2767.5,-25 2940.5,-25 2940.5,-6 2767.5,-6"/>
<text text-anchor="middle" x="2854" y="-13" font-family="Helvetica,sans-Serif" font-size="10.00" fill="#000000">chrono/solver/ChSolverPMINRES.h</text>
</g>
<!-- Node0&#45;&gt;Node20 -->
<g id="edge20" class="edge">
<title>Node0&#45;&gt;Node20</title>
<path fill="none" stroke="#191970" d="M1492.5549,-76.1322C1697.3405,-72.2723 2505.0292,-55.7555 2758,-31 2769.1761,-29.9063 2781.0255,-28.3346 2792.4437,-26.607"/>
<polygon fill="#191970" stroke="#191970" points="2793.0014,-30.0624 2802.3392,-25.0569 2791.918,-23.1468 2793.0014,-30.0624"/>
</g>
<!-- Node21 -->
<g id="node22" class="node">
<title>Node21</title>
<polygon fill="#ffffff" stroke="#bfbfbf" points="2959,-6 2959,-25 3095,-25 3095,-6 2959,-6"/>
<text text-anchor="middle" x="3027" y="-13" font-family="Helvetica,sans-Serif" font-size="10.00" fill="#000000">chrono/core/ChTransform.h</text>
</g>
<!-- Node0&#45;&gt;Node21 -->
<g id="edge21" class="edge">
<title>Node0&#45;&gt;Node21</title>
<path fill="none" stroke="#191970" d="M1492.6375,-76.6223C1715.6214,-74.6894 2657.6841,-64.6467 2950,-31 2958.471,-30.025 2967.3978,-28.6015 2976.0524,-27.0067"/>
<polygon fill="#191970" stroke="#191970" points="2976.8909,-30.4095 2986.0434,-25.0727 2975.5605,-23.5371 2976.8909,-30.4095"/>
</g>
</g>
</svg>
