<?xml version="1.0" encoding="UTF-8" standalone="no"?>
<!DOCTYPE svg PUBLIC "-//W3C//DTD SVG 1.1//EN"
 "http://www.w3.org/Graphics/SVG/1.1/DTD/svg11.dtd">
<!-- Generated by graphviz version 2.50.0 (20211204.2007)
 -->
<!-- Title: ProtChMoorings.h Pages: 1 -->
<svg width="3100pt" height="95pt"
 viewBox="0.00 0.00 3100.00 95.00" xmlns="http://www.w3.org/2000/svg" xmlns:xlink="http://www.w3.org/1999/xlink">
<g id="graph0" class="graph" transform="scale(1 1) rotate(0) translate(4 91)">
<title>ProtChMoorings.h</title>
<polygon fill="white" stroke="transparent" points="-4,4 -4,-91 3096,-91 3096,4 -4,4"/>
<!-- Node1 -->
<g id="node1" class="node">
<title>Node1</title>
<g id="a_node1"><a xlink:title=" ">
<polygon fill="#bfbfbf" stroke="black" points="1394.5,-67.5 1394.5,-86.5 1489.5,-86.5 1489.5,-67.5 1394.5,-67.5"/>
<text text-anchor="middle" x="1442" y="-74.5" font-family="Helvetica,sans-Serif" font-size="10.00">ProtChMoorings.h</text>
</a>
</g>
</g>
<!-- Node2 -->
<g id="node2" class="node">
<title>Node2</title>
<g id="a_node2"><a xlink:title=" ">
<polygon fill="white" stroke="#bfbfbf" points="0,-6 0,-25 54,-25 54,-6 0,-6"/>
<text text-anchor="middle" x="27" y="-13" font-family="Helvetica,sans-Serif" font-size="10.00">iostream</text>
</a>
</g>
</g>
<!-- Node1&#45;&gt;Node2 -->
<g id="edge1" class="edge">
<title>Node1&#45;&gt;Node2</title>
<path fill="none" stroke="midnightblue" d="M1394.33,-75.43C1166.62,-72.58 195.28,-58.89 63,-31 60.09,-30.39 57.12,-29.56 54.19,-28.6"/>
<polygon fill="midnightblue" stroke="midnightblue" points="55.15,-25.22 44.56,-25 52.7,-31.78 55.15,-25.22"/>
</g>
<!-- Node3 -->
<g id="node3" class="node">
<title>Node3</title>
<g id="a_node3"><a xlink:title=" ">
<polygon fill="white" stroke="#bfbfbf" points="72.5,-6 72.5,-25 119.5,-25 119.5,-6 72.5,-6"/>
<text text-anchor="middle" x="96" y="-13" font-family="Helvetica,sans-Serif" font-size="10.00">math.h</text>
</a>
</g>
</g>
<!-- Node1&#45;&gt;Node3 -->
<g id="edge2" class="edge">
<title>Node1&#45;&gt;Node3</title>
<path fill="none" stroke="midnightblue" d="M1394.36,-75.47C1173.31,-72.85 253.02,-60.25 128,-31 125.64,-30.45 123.25,-29.72 120.89,-28.88"/>
<polygon fill="midnightblue" stroke="midnightblue" points="122.1,-25.6 111.52,-25 119.42,-32.06 122.1,-25.6"/>
</g>
<!-- Node4 -->
<g id="node4" class="node">
<title>Node4</title>
<g id="a_node4"><a xlink:title=" ">
<polygon fill="white" stroke="#bfbfbf" points="137.5,-6 137.5,-25 178.5,-25 178.5,-6 137.5,-6"/>
<text text-anchor="middle" x="158" y="-13" font-family="Helvetica,sans-Serif" font-size="10.00">string</text>
</a>
</g>
</g>
<!-- Node1&#45;&gt;Node4 -->
<g id="edge3" class="edge">
<title>Node1&#45;&gt;Node4</title>
<path fill="none" stroke="midnightblue" d="M1394.39,-75.45C1179.64,-72.82 306.54,-60.39 188,-31 186.06,-30.52 184.1,-29.91 182.16,-29.2"/>
<polygon fill="midnightblue" stroke="midnightblue" points="183.37,-25.91 172.8,-25.15 180.59,-32.34 183.37,-25.91"/>
</g>
<!-- Node5 -->
<g id="node5" class="node">
<title>Node5</title>
<g id="a_node5"><a xlink:title=" ">
<polygon fill="white" stroke="#bfbfbf" points="197,-6 197,-25 337,-25 337,-6 197,-6"/>
<text text-anchor="middle" x="267" y="-13" font-family="Helvetica,sans-Serif" font-size="10.00">chrono/physics/ChSystem.h</text>
</a>
</g>
</g>
<!-- Node1&#45;&gt;Node5 -->
<g id="edge4" class="edge">
<title>Node1&#45;&gt;Node5</title>
<path fill="none" stroke="midnightblue" d="M1394.28,-76.43C1241.31,-77.29 749.6,-76.1 346,-31 336.74,-29.97 326.93,-28.48 317.49,-26.86"/>
<polygon fill="midnightblue" stroke="midnightblue" points="317.89,-23.37 307.43,-25.05 316.66,-30.26 317.89,-23.37"/>
</g>
<!-- Node6 -->
<g id="node6" class="node">
<title>Node6</title>
<g id="a_node6"><a xlink:title=" ">
<polygon fill="white" stroke="#bfbfbf" points="355.5,-6 355.5,-25 518.5,-25 518.5,-6 355.5,-6"/>
<text text-anchor="middle" x="437" y="-13" font-family="Helvetica,sans-Serif" font-size="10.00">chrono/physics/ChSystemSMC.h</text>
</a>
</g>
</g>
<!-- Node1&#45;&gt;Node6 -->
<g id="edge5" class="edge">
<title>Node1&#45;&gt;Node6</title>
<path fill="none" stroke="midnightblue" d="M1394.23,-75.51C1258.26,-73.72 857.6,-65.65 527,-31 516.15,-29.86 504.63,-28.29 493.57,-26.59"/>
<polygon fill="midnightblue" stroke="midnightblue" points="494.01,-23.12 483.58,-25.01 492.91,-30.03 494.01,-23.12"/>
</g>
<!-- Node7 -->
<g id="node7" class="node">
<title>Node7</title>
<g id="a_node7"><a xlink:title=" ">
<polygon fill="white" stroke="#bfbfbf" points="536.5,-6 536.5,-25 705.5,-25 705.5,-6 536.5,-6"/>
<text text-anchor="middle" x="621" y="-13" font-family="Helvetica,sans-Serif" font-size="10.00">chrono/physics/ChLoadContainer.h</text>
</a>
</g>
</g>
<!-- Node1&#45;&gt;Node7 -->
<g id="edge6" class="edge">
<title>Node1&#45;&gt;Node7</title>
<path fill="none" stroke="midnightblue" d="M1394.24,-74.55C1277.82,-70.69 970.23,-58.53 715,-31 703.94,-29.81 692.19,-28.24 680.88,-26.57"/>
<polygon fill="midnightblue" stroke="midnightblue" points="681.06,-23.06 670.65,-25.02 680.01,-29.98 681.06,-23.06"/>
</g>
<!-- Node8 -->
<g id="node8" class="node">
<title>Node8</title>
<g id="a_node8"><a xlink:title=" ">
<polygon fill="white" stroke="#bfbfbf" points="724,-6 724,-25 870,-25 870,-6 724,-6"/>
<text text-anchor="middle" x="797" y="-13" font-family="Helvetica,sans-Serif" font-size="10.00">chrono/physics/ChLinkMate.h</text>
</a>
</g>
</g>
<!-- Node1&#45;&gt;Node8 -->
<g id="edge7" class="edge">
<title>Node1&#45;&gt;Node8</title>
<path fill="none" stroke="midnightblue" d="M1394.39,-73.73C1297.21,-68.75 1069.14,-55.35 879,-31 869.84,-29.83 860.14,-28.34 850.75,-26.76"/>
<polygon fill="midnightblue" stroke="midnightblue" points="851.16,-23.28 840.71,-25.03 849.97,-30.18 851.16,-23.28"/>
</g>
<!-- Node9 -->
<g id="node9" class="node">
<title>Node9</title>
<g id="a_node9"><a xlink:title=" ">
<polygon fill="white" stroke="#bfbfbf" points="888,-6 888,-25 1038,-25 1038,-6 888,-6"/>
<text text-anchor="middle" x="963" y="-13" font-family="Helvetica,sans-Serif" font-size="10.00">chrono/physics/ChBodyEasy.h</text>
</a>
</g>
</g>
<!-- Node1&#45;&gt;Node9 -->
<g id="edge8" class="edge">
<title>Node1&#45;&gt;Node9</title>
<path fill="none" stroke="midnightblue" d="M1394.46,-71.48C1320.15,-64.2 1172.03,-48.9 1047,-31 1038.17,-29.74 1028.83,-28.26 1019.72,-26.75"/>
<polygon fill="midnightblue" stroke="midnightblue" points="1020.02,-23.25 1009.58,-25.03 1018.85,-30.15 1020.02,-23.25"/>
</g>
<!-- Node10 -->
<g id="node10" class="node">
<title>Node10</title>
<g id="a_node10"><a xlink:title=" ">
<polygon fill="white" stroke="#bfbfbf" points="1056,-0.5 1056,-30.5 1196,-30.5 1196,-0.5 1056,-0.5"/>
<text text-anchor="start" x="1064" y="-18.5" font-family="Helvetica,sans-Serif" font-size="10.00">chrono/fea/ChElementBeam</text>
<text text-anchor="middle" x="1126" y="-7.5" font-family="Helvetica,sans-Serif" font-size="10.00">ANCF_3333.h</text>
</a>
</g>
</g>
<!-- Node1&#45;&gt;Node10 -->
<g id="edge9" class="edge">
<title>Node1&#45;&gt;Node10</title>
<path fill="none" stroke="midnightblue" d="M1396.72,-67.48C1347.1,-58.13 1266.51,-42.96 1206.14,-31.59"/>
<polygon fill="midnightblue" stroke="midnightblue" points="1206.73,-28.14 1196.25,-29.73 1205.43,-35.02 1206.73,-28.14"/>
</g>
<!-- Node11 -->
<g id="node11" class="node">
<title>Node11</title>
<g id="a_node11"><a xlink:title=" ">
<polygon fill="white" stroke="#bfbfbf" points="1214,-0.5 1214,-30.5 1354,-30.5 1354,-0.5 1214,-0.5"/>
<text text-anchor="start" x="1222" y="-18.5" font-family="Helvetica,sans-Serif" font-size="10.00">chrono/fea/ChElementCable</text>
<text text-anchor="middle" x="1284" y="-7.5" font-family="Helvetica,sans-Serif" font-size="10.00">ANCF.h</text>
</a>
</g>
</g>
<!-- Node1&#45;&gt;Node11 -->
<g id="edge10" class="edge">
<title>Node1&#45;&gt;Node11</title>
<path fill="none" stroke="midnightblue" d="M1419.36,-67.48C1396.36,-58.81 1360.07,-45.15 1330.85,-34.14"/>
<polygon fill="midnightblue" stroke="midnightblue" points="1331.83,-30.77 1321.24,-30.52 1329.36,-37.32 1331.83,-30.77"/>
</g>
<!-- Node12 -->
<g id="node12" class="node">
<title>Node12</title>
<g id="a_node12"><a xlink:title=" ">
<polygon fill="white" stroke="#bfbfbf" points="1372,-0.5 1372,-30.5 1512,-30.5 1512,-0.5 1372,-0.5"/>
<text text-anchor="start" x="1380" y="-18.5" font-family="Helvetica,sans-Serif" font-size="10.00">chrono/fea/ChElementBeam</text>
<text text-anchor="middle" x="1442" y="-7.5" font-family="Helvetica,sans-Serif" font-size="10.00">Euler.h</text>
</a>
</g>
</g>
<!-- Node1&#45;&gt;Node12 -->
<g id="edge11" class="edge">
<title>Node1&#45;&gt;Node12</title>
<path fill="none" stroke="midnightblue" d="M1442,-67.48C1442,-60.47 1442,-50.19 1442,-40.7"/>
<polygon fill="midnightblue" stroke="midnightblue" points="1445.5,-40.52 1442,-30.52 1438.5,-40.52 1445.5,-40.52"/>
</g>
<!-- Node13 -->
<g id="node13" class="node">
<title>Node13</title>
<g id="a_node13"><a xlink:title=" ">
<polygon fill="white" stroke="#bfbfbf" points="1530.5,-6 1530.5,-25 1675.5,-25 1675.5,-6 1530.5,-6"/>
<text text-anchor="middle" x="1603" y="-13" font-family="Helvetica,sans-Serif" font-size="10.00">chrono/fea/ChBeamSection.h</text>
</a>
</g>
</g>
<!-- Node1&#45;&gt;Node13 -->
<g id="edge12" class="edge">
<title>Node1&#45;&gt;Node13</title>
<path fill="none" stroke="midnightblue" d="M1465.07,-67.48C1492.68,-57.27 1539.12,-40.11 1570.4,-28.55"/>
<polygon fill="midnightblue" stroke="midnightblue" points="1571.81,-31.76 1579.98,-25.01 1569.38,-25.19 1571.81,-31.76"/>
</g>
<!-- Node14 -->
<g id="node14" class="node">
<title>Node14</title>
<g id="a_node14"><a xlink:title=" ">
<polygon fill="white" stroke="#bfbfbf" points="1694,-6 1694,-25 1804,-25 1804,-6 1694,-6"/>
<text text-anchor="middle" x="1749" y="-13" font-family="Helvetica,sans-Serif" font-size="10.00">chrono/fea/ChMesh.h</text>
</a>
</g>
</g>
<!-- Node1&#45;&gt;Node14 -->
<g id="edge13" class="edge">
<title>Node1&#45;&gt;Node14</title>
<path fill="none" stroke="midnightblue" d="M1489.6,-67.76C1538.67,-59.13 1617.34,-44.92 1685,-31 1690.72,-29.82 1696.71,-28.54 1702.64,-27.23"/>
<polygon fill="midnightblue" stroke="midnightblue" points="1703.5,-30.62 1712.5,-25.03 1701.98,-23.79 1703.5,-30.62"/>
</g>
<!-- Node15 -->
<g id="node15" class="node">
<title>Node15</title>
<g id="a_node15"><a xlink:title=" ">
<polygon fill="white" stroke="#bfbfbf" points="1822.5,-6 1822.5,-25 1971.5,-25 1971.5,-6 1822.5,-6"/>
<text text-anchor="middle" x="1897" y="-13" font-family="Helvetica,sans-Serif" font-size="10.00">chrono/fea/ChLinkPointPoint.h</text>
</a>
</g>
</g>
<!-- Node1&#45;&gt;Node15 -->
<g id="edge14" class="edge">
<title>Node1&#45;&gt;Node15</title>
<path fill="none" stroke="midnightblue" d="M1489.54,-71.01C1560.22,-63.41 1697.13,-48.02 1813,-31 1821.72,-29.72 1830.94,-28.25 1839.94,-26.75"/>
<polygon fill="midnightblue" stroke="midnightblue" points="1840.7,-30.17 1849.97,-25.05 1839.53,-23.27 1840.7,-30.17"/>
</g>
<!-- Node16 -->
<g id="node16" class="node">
<title>Node16</title>
<g id="a_node16"><a xlink:title=" ">
<polygon fill="white" stroke="#bfbfbf" points="1989.5,-6 1989.5,-25 2144.5,-25 2144.5,-6 1989.5,-6"/>
<text text-anchor="middle" x="2067" y="-13" font-family="Helvetica,sans-Serif" font-size="10.00">chrono/fea/ChLinkPointFrame.h</text>
</a>
</g>
</g>
<!-- Node1&#45;&gt;Node16 -->
<g id="edge15" class="edge">
<title>Node1&#45;&gt;Node16</title>
<path fill="none" stroke="midnightblue" d="M1489.73,-73.36C1583.91,-67.86 1800.26,-53.74 1981,-31 1990.59,-29.79 2000.74,-28.29 2010.58,-26.71"/>
<polygon fill="midnightblue" stroke="midnightblue" points="2011.39,-30.12 2020.69,-25.04 2010.25,-23.21 2011.39,-30.12"/>
</g>
<!-- Node17 -->
<g id="node17" class="node">
<title>Node17</title>
<g id="a_node17"><a xlink:title=" ">
<polygon fill="white" stroke="#bfbfbf" points="2162.5,-6 2162.5,-25 2307.5,-25 2307.5,-6 2162.5,-6"/>
<text text-anchor="middle" x="2235" y="-13" font-family="Helvetica,sans-Serif" font-size="10.00">chrono/fea/ChLinkDirFrame.h</text>
</a>
</g>
</g>
<!-- Node1&#45;&gt;Node17 -->
<g id="edge16" class="edge">
<title>Node1&#45;&gt;Node17</title>
<path fill="none" stroke="midnightblue" d="M1489.67,-74.86C1604.42,-71.72 1905,-61.06 2154,-31 2163.27,-29.88 2173.09,-28.39 2182.57,-26.79"/>
<polygon fill="midnightblue" stroke="midnightblue" points="2183.43,-30.19 2192.68,-25.02 2182.22,-23.29 2183.43,-30.19"/>
</g>
<!-- Node18 -->
<g id="node18" class="node">
<title>Node18</title>
<g id="a_node18"><a xlink:title=" ">
<polygon fill="white" stroke="#bfbfbf" points="2326,-6 2326,-25 2464,-25 2464,-6 2326,-6"/>
<text text-anchor="middle" x="2395" y="-13" font-family="Helvetica,sans-Serif" font-size="10.00">chrono/fea/ChLoadsBeam.h</text>
</a>
</g>
</g>
<!-- Node1&#45;&gt;Node18 -->
<g id="edge17" class="edge">
<title>Node1&#45;&gt;Node18</title>
<path fill="none" stroke="midnightblue" d="M1489.61,-75.76C1621.54,-74.63 2002.8,-68.12 2317,-31 2325.94,-29.94 2335.41,-28.48 2344.54,-26.89"/>
<polygon fill="midnightblue" stroke="midnightblue" points="2345.46,-30.28 2354.67,-25.05 2344.21,-23.39 2345.46,-30.28"/>
</g>
<!-- Node19 -->
<g id="node19" class="node">
<title>Node19</title>
<g id="a_node19"><a xlink:title=" ">
<polygon fill="white" stroke="#bfbfbf" points="2482,-0.5 2482,-30.5 2628,-30.5 2628,-0.5 2482,-0.5"/>
<text text-anchor="start" x="2490" y="-18.5" font-family="Helvetica,sans-Serif" font-size="10.00">chrono/fea/ChContactSurface</text>
<text text-anchor="middle" x="2555" y="-7.5" font-family="Helvetica,sans-Serif" font-size="10.00">NodeCloud.h</text>
</a>
</g>
</g>
<!-- Node1&#45;&gt;Node19 -->
<g id="edge18" class="edge">
<title>Node1&#45;&gt;Node19</title>
<path fill="none" stroke="midnightblue" d="M1489.7,-76.14C1635.41,-76.1 2087.62,-72.48 2471.55,-31.05"/>
<polygon fill="midnightblue" stroke="midnightblue" points="2472.19,-34.51 2481.75,-29.94 2471.43,-27.55 2472.19,-34.51"/>
</g>
<!-- Node20 -->
<g id="node20" class="node">
<title>Node20</title>
<g id="a_node20"><a xlink:title=" ">
<polygon fill="white" stroke="#bfbfbf" points="2646,-0.5 2646,-30.5 2746,-30.5 2746,-0.5 2646,-0.5"/>
<text text-anchor="start" x="2654" y="-18.5" font-family="Helvetica,sans-Serif" font-size="10.00">chrono/timestepper</text>
<text text-anchor="middle" x="2696" y="-7.5" font-family="Helvetica,sans-Serif" font-size="10.00">/ChTimestepper.h</text>
</a>
</g>
</g>
<!-- Node1&#45;&gt;Node20 -->
<g id="edge19" class="edge">
<title>Node1&#45;&gt;Node20</title>
<path fill="none" stroke="midnightblue" d="M1489.51,-75.5C1680.02,-73.3 2389.78,-63.18 2635.96,-30.9"/>
<polygon fill="midnightblue" stroke="midnightblue" points="2636.49,-34.36 2645.92,-29.54 2635.54,-27.42 2636.49,-34.36"/>
</g>
<!-- Node21 -->
<g id="node21" class="node">
<title>Node21</title>
<g id="a_node21"><a xlink:title=" ">
<polygon fill="white" stroke="#bfbfbf" points="2764.5,-6 2764.5,-25 2937.5,-25 2937.5,-6 2764.5,-6"/>
<text text-anchor="middle" x="2851" y="-13" font-family="Helvetica,sans-Serif" font-size="10.00">chrono/solver/ChSolverPMINRES.h</text>
</a>
</g>
</g>
<!-- Node1&#45;&gt;Node21 -->
<g id="edge20" class="edge">
<title>Node1&#45;&gt;Node21</title>
<path fill="none" stroke="midnightblue" d="M1489.52,-76.35C1660.73,-77.2 2261.87,-76.54 2755,-31 2766.93,-29.9 2779.64,-28.29 2791.77,-26.54"/>
<polygon fill="midnightblue" stroke="midnightblue" points="2792.43,-29.98 2801.8,-25.05 2791.4,-23.06 2792.43,-29.98"/>
</g>
<!-- Node22 -->
<g id="node22" class="node">
<title>Node22</title>
<g id="a_node22"><a xlink:title=" ">
<polygon fill="white" stroke="#bfbfbf" points="2956,-6 2956,-25 3092,-25 3092,-6 2956,-6"/>
<text text-anchor="middle" x="3024" y="-13" font-family="Helvetica,sans-Serif" font-size="10.00">chrono/core/ChTransform.h</text>
</a>
</g>
</g>
<!-- Node1&#45;&gt;Node22 -->
<g id="edge21" class="edge">
<title>Node1&#45;&gt;Node22</title>
<path fill="none" stroke="midnightblue" d="M1489.63,-75.58C1712.57,-73.45 2654.47,-62.72 2947,-31 2956.14,-30.01 2965.81,-28.53 2975.11,-26.89"/>
<polygon fill="midnightblue" stroke="midnightblue" points="2975.81,-30.32 2985,-25.07 2974.54,-23.44 2975.81,-30.32"/>
</g>
</g>
</svg>
