<?xml version="1.0" encoding="UTF-8" standalone="no"?>
<!DOCTYPE svg PUBLIC "-//W3C//DTD SVG 1.1//EN"
 "http://www.w3.org/Graphics/SVG/1.1/DTD/svg11.dtd">
<!-- Generated by graphviz version 2.43.0 (0)
 -->
<!-- Title: PyEmbeddedFunctions.h Pages: 1 -->
<svg width="1239pt" height="140pt"
 viewBox="0.00 0.00 1238.50 140.00" xmlns="http://www.w3.org/2000/svg" xmlns:xlink="http://www.w3.org/1999/xlink">
<g id="graph0" class="graph" transform="scale(1 1) rotate(0) translate(4 136)">
<title>PyEmbeddedFunctions.h</title>
<polygon fill="white" stroke="transparent" points="-4,4 -4,-136 1234.5,-136 1234.5,4 -4,4"/>
<!-- Node1 -->
<g id="node1" class="node">
<title>Node1</title>
<g id="a_node1"><a xlink:title=" ">
<polygon fill="#bfbfbf" stroke="black" points="1018,-112.5 1018,-131.5 1154,-131.5 1154,-112.5 1018,-112.5"/>
<text text-anchor="middle" x="1086" y="-119.5" font-family="Helvetica,sans-Serif" font-size="10.00">PyEmbeddedFunctions.h</text>
</a>
</g>
</g>
<!-- Node2 -->
<g id="node2" class="node">
<title>Node2</title>
<g id="a_node2"><a xlink:href="_mesh_adapt_p_u_m_i_8h.html" target="_top" xlink:title=" ">
<polygon fill="white" stroke="black" points="592,-56.5 592,-75.5 698,-75.5 698,-56.5 592,-56.5"/>
<text text-anchor="middle" x="645" y="-63.5" font-family="Helvetica,sans-Serif" font-size="10.00">MeshAdaptPUMI.h</text>
</a>
</g>
</g>
<!-- Node1&#45;&gt;Node2 -->
<g id="edge1" class="edge">
<title>Node1&#45;&gt;Node2</title>
<path fill="none" stroke="midnightblue" d="M1007.52,-111.39C918.39,-100.48 775.38,-82.97 698.32,-73.53"/>
<polygon fill="midnightblue" stroke="midnightblue" points="1007.23,-114.88 1017.58,-112.62 1008.08,-107.93 1007.23,-114.88"/>
</g>
<!-- Node11 -->
<g id="node11" class="node">
<title>Node11</title>
<g id="a_node11"><a xlink:href="_r_a_n_s2_p_8h.html" target="_top" xlink:title=" ">
<polygon fill="white" stroke="black" points="1054.5,-56.5 1054.5,-75.5 1117.5,-75.5 1117.5,-56.5 1054.5,-56.5"/>
<text text-anchor="middle" x="1086" y="-63.5" font-family="Helvetica,sans-Serif" font-size="10.00">RANS2P.h</text>
</a>
</g>
</g>
<!-- Node1&#45;&gt;Node11 -->
<g id="edge10" class="edge">
<title>Node1&#45;&gt;Node11</title>
<path fill="none" stroke="midnightblue" d="M1086,-101.8C1086,-92.91 1086,-82.78 1086,-75.75"/>
<polygon fill="midnightblue" stroke="midnightblue" points="1082.5,-102.08 1086,-112.08 1089.5,-102.08 1082.5,-102.08"/>
</g>
<!-- Node13 -->
<g id="node13" class="node">
<title>Node13</title>
<g id="a_node13"><a xlink:href="_r_a_n_s2_p2_d_8h.html" target="_top" xlink:title=" ">
<polygon fill="white" stroke="black" points="1141,-56.5 1141,-75.5 1219,-75.5 1219,-56.5 1141,-56.5"/>
<text text-anchor="middle" x="1180" y="-63.5" font-family="Helvetica,sans-Serif" font-size="10.00">RANS2P2D.h</text>
</a>
</g>
</g>
<!-- Node1&#45;&gt;Node13 -->
<g id="edge12" class="edge">
<title>Node1&#45;&gt;Node13</title>
<path fill="none" stroke="midnightblue" d="M1110.06,-107.18C1127.36,-97.24 1150.15,-84.15 1164.93,-75.65"/>
<polygon fill="midnightblue" stroke="midnightblue" points="1108.03,-104.31 1101.1,-112.32 1111.52,-110.38 1108.03,-104.31"/>
</g>
<!-- Node3 -->
<g id="node3" class="node">
<title>Node3</title>
<g id="a_node3"><a xlink:href="c_mesh_adapt_p_u_m_i_8cpp.html" target="_top" xlink:title=" ">
<polygon fill="white" stroke="black" points="0,-0.5 0,-19.5 122,-19.5 122,-0.5 0,-0.5"/>
<text text-anchor="middle" x="61" y="-7.5" font-family="Helvetica,sans-Serif" font-size="10.00">cMeshAdaptPUMI.cpp</text>
</a>
</g>
</g>
<!-- Node2&#45;&gt;Node3 -->
<g id="edge2" class="edge">
<title>Node2&#45;&gt;Node3</title>
<path fill="none" stroke="midnightblue" d="M581.41,-60.27C484.23,-52.84 292.98,-37.5 131,-20 128.08,-19.68 125.09,-19.35 122.07,-19"/>
<polygon fill="midnightblue" stroke="midnightblue" points="581.42,-63.78 591.65,-61.05 581.95,-56.8 581.42,-63.78"/>
</g>
<!-- Node4 -->
<g id="node4" class="node">
<title>Node4</title>
<g id="a_node4"><a xlink:href="create_analytic_geometry_8cpp.html" target="_top" xlink:title=" ">
<polygon fill="white" stroke="black" points="140.5,-0.5 140.5,-19.5 295.5,-19.5 295.5,-0.5 140.5,-0.5"/>
<text text-anchor="middle" x="218" y="-7.5" font-family="Helvetica,sans-Serif" font-size="10.00">createAnalyticGeometry.cpp</text>
</a>
</g>
</g>
<!-- Node2&#45;&gt;Node4 -->
<g id="edge3" class="edge">
<title>Node2&#45;&gt;Node4</title>
<path fill="none" stroke="midnightblue" d="M581.42,-56.96C501.93,-46.91 366.45,-29.77 285.27,-19.51"/>
<polygon fill="midnightblue" stroke="midnightblue" points="581.42,-60.49 591.78,-58.27 582.3,-53.54 581.42,-60.49"/>
</g>
<!-- Node5 -->
<g id="node5" class="node">
<title>Node5</title>
<g id="a_node5"><a xlink:href="_error_residual_method_8cpp.html" target="_top" xlink:title=" ">
<polygon fill="white" stroke="black" points="313.5,-0.5 313.5,-19.5 452.5,-19.5 452.5,-0.5 313.5,-0.5"/>
<text text-anchor="middle" x="383" y="-7.5" font-family="Helvetica,sans-Serif" font-size="10.00">ErrorResidualMethod.cpp</text>
</a>
</g>
</g>
<!-- Node2&#45;&gt;Node5 -->
<g id="edge4" class="edge">
<title>Node2&#45;&gt;Node5</title>
<path fill="none" stroke="midnightblue" d="M593.62,-54.41C544.1,-44.2 470.14,-28.96 424.32,-19.52"/>
<polygon fill="midnightblue" stroke="midnightblue" points="592.98,-57.85 603.49,-56.44 594.4,-51 592.98,-57.85"/>
</g>
<!-- Node6 -->
<g id="node6" class="node">
<title>Node6</title>
<g id="a_node6"><a xlink:href="_mesh_converter_8cpp.html" target="_top" xlink:title=" ">
<polygon fill="white" stroke="black" points="471,-0.5 471,-19.5 581,-19.5 581,-0.5 471,-0.5"/>
<text text-anchor="middle" x="526" y="-7.5" font-family="Helvetica,sans-Serif" font-size="10.00">MeshConverter.cpp</text>
</a>
</g>
</g>
<!-- Node2&#45;&gt;Node6 -->
<g id="edge5" class="edge">
<title>Node2&#45;&gt;Node6</title>
<path fill="none" stroke="midnightblue" d="M616.86,-52.23C594.6,-42.13 564.14,-28.31 544.77,-19.52"/>
<polygon fill="midnightblue" stroke="midnightblue" points="615.59,-55.5 626.14,-56.44 618.48,-49.12 615.59,-55.5"/>
</g>
<!-- Node7 -->
<g id="node7" class="node">
<title>Node7</title>
<g id="a_node7"><a xlink:href="_mesh_fields_8cpp.html" target="_top" xlink:title=" ">
<polygon fill="white" stroke="black" points="599,-0.5 599,-19.5 691,-19.5 691,-0.5 599,-0.5"/>
<text text-anchor="middle" x="645" y="-7.5" font-family="Helvetica,sans-Serif" font-size="10.00">MeshFields.cpp</text>
</a>
</g>
</g>
<!-- Node2&#45;&gt;Node7 -->
<g id="edge6" class="edge">
<title>Node2&#45;&gt;Node7</title>
<path fill="none" stroke="midnightblue" d="M645,-45.8C645,-36.91 645,-26.78 645,-19.75"/>
<polygon fill="midnightblue" stroke="midnightblue" points="641.5,-46.08 645,-56.08 648.5,-46.08 641.5,-46.08"/>
</g>
<!-- Node8 -->
<g id="node8" class="node">
<title>Node8</title>
<g id="a_node8"><a xlink:href="_parallel_mesh_converter_8cpp.html" target="_top" xlink:title=" ">
<polygon fill="white" stroke="black" points="709,-0.5 709,-19.5 855,-19.5 855,-0.5 709,-0.5"/>
<text text-anchor="middle" x="782" y="-7.5" font-family="Helvetica,sans-Serif" font-size="10.00">ParallelMeshConverter.cpp</text>
</a>
</g>
</g>
<!-- Node2&#45;&gt;Node8 -->
<g id="edge7" class="edge">
<title>Node2&#45;&gt;Node8</title>
<path fill="none" stroke="midnightblue" d="M676.02,-52.77C701.76,-42.63 737.69,-28.47 760.39,-19.52"/>
<polygon fill="midnightblue" stroke="midnightblue" points="674.73,-49.52 666.71,-56.44 677.29,-56.03 674.73,-49.52"/>
</g>
<!-- Node9 -->
<g id="node9" class="node">
<title>Node9</title>
<g id="a_node9"><a xlink:href="_size_field_8cpp.html" target="_top" xlink:title=" ">
<polygon fill="white" stroke="black" points="873,-0.5 873,-19.5 953,-19.5 953,-0.5 873,-0.5"/>
<text text-anchor="middle" x="913" y="-7.5" font-family="Helvetica,sans-Serif" font-size="10.00">SizeField.cpp</text>
</a>
</g>
</g>
<!-- Node2&#45;&gt;Node9 -->
<g id="edge8" class="edge">
<title>Node2&#45;&gt;Node9</title>
<path fill="none" stroke="midnightblue" d="M697.39,-54.44C748.84,-44.08 826.2,-28.49 872.92,-19.08"/>
<polygon fill="midnightblue" stroke="midnightblue" points="696.58,-51.04 687.47,-56.44 697.96,-57.9 696.58,-51.04"/>
</g>
<!-- Node10 -->
<g id="node10" class="node">
<title>Node10</title>
<g id="a_node10"><a xlink:href="_v_m_s_8cpp.html" target="_top" xlink:title=" ">
<polygon fill="white" stroke="black" points="971.5,-0.5 971.5,-19.5 1030.5,-19.5 1030.5,-0.5 971.5,-0.5"/>
<text text-anchor="middle" x="1001" y="-7.5" font-family="Helvetica,sans-Serif" font-size="10.00">VMS.cpp</text>
</a>
</g>
</g>
<!-- Node2&#45;&gt;Node10 -->
<g id="edge9" class="edge">
<title>Node2&#45;&gt;Node10</title>
<path fill="none" stroke="midnightblue" d="M708.2,-57.65C772.36,-49.81 874.46,-36.28 962,-20 965.01,-19.44 968.13,-18.81 971.24,-18.14"/>
<polygon fill="midnightblue" stroke="midnightblue" points="707.74,-54.18 698.23,-58.86 708.58,-61.13 707.74,-54.18"/>
</g>
<!-- Node12 -->
<g id="node12" class="node">
<title>Node12</title>
<g id="a_node12"><a xlink:href="_r_a_n_s2_p_8cpp.html" target="_top" xlink:title=" ">
<polygon fill="white" stroke="black" points="1049,-0.5 1049,-19.5 1123,-19.5 1123,-0.5 1049,-0.5"/>
<text text-anchor="middle" x="1086" y="-7.5" font-family="Helvetica,sans-Serif" font-size="10.00">RANS2P.cpp</text>
</a>
</g>
</g>
<!-- Node11&#45;&gt;Node12 -->
<g id="edge11" class="edge">
<title>Node11&#45;&gt;Node12</title>
<path fill="none" stroke="midnightblue" d="M1086,-45.8C1086,-36.91 1086,-26.78 1086,-19.75"/>
<polygon fill="midnightblue" stroke="midnightblue" points="1082.5,-46.08 1086,-56.08 1089.5,-46.08 1082.5,-46.08"/>
</g>
<!-- Node14 -->
<g id="node14" class="node">
<title>Node14</title>
<g id="a_node14"><a xlink:href="_r_a_n_s2_p2_d_8cpp.html" target="_top" xlink:title=" ">
<polygon fill="white" stroke="black" points="1141.5,-0.5 1141.5,-19.5 1230.5,-19.5 1230.5,-0.5 1141.5,-0.5"/>
<text text-anchor="middle" x="1186" y="-7.5" font-family="Helvetica,sans-Serif" font-size="10.00">RANS2P2D.cpp</text>
</a>
</g>
</g>
<!-- Node13&#45;&gt;Node14 -->
<g id="edge13" class="edge">
<title>Node13&#45;&gt;Node14</title>
<path fill="none" stroke="midnightblue" d="M1182.1,-46.1C1183.1,-37.14 1184.24,-26.86 1185.03,-19.75"/>
<polygon fill="midnightblue" stroke="midnightblue" points="1178.62,-45.76 1180.99,-56.08 1185.57,-46.53 1178.62,-45.76"/>
</g>
</g>
</svg>
