<?xml version="1.0" encoding="UTF-8" standalone="no"?>
<!DOCTYPE svg PUBLIC "-//W3C//DTD SVG 1.1//EN"
 "http://www.w3.org/Graphics/SVG/1.1/DTD/svg11.dtd">
<!-- Generated by graphviz version 2.50.0 (20211204.2007)
 -->
<!-- Title: PyEmbeddedFunctions.h Pages: 1 -->
<svg width="1172pt" height="140pt"
 viewBox="0.00 0.00 1171.50 140.00" xmlns="http://www.w3.org/2000/svg" xmlns:xlink="http://www.w3.org/1999/xlink">
<g id="graph0" class="graph" transform="scale(1 1) rotate(0) translate(4 136)">
<title>PyEmbeddedFunctions.h</title>
<polygon fill="white" stroke="transparent" points="-4,4 -4,-136 1167.5,-136 1167.5,4 -4,4"/>
<!-- Node1 -->
<g id="node1" class="node">
<title>Node1</title>
<g id="a_node1"><a xlink:title=" ">
<polygon fill="#bfbfbf" stroke="black" points="956,-112.5 956,-131.5 1082,-131.5 1082,-112.5 956,-112.5"/>
<text text-anchor="middle" x="1019" y="-119.5" font-family="Helvetica,sans-Serif" font-size="10.00">PyEmbeddedFunctions.h</text>
</a>
</g>
</g>
<!-- Node2 -->
<g id="node2" class="node">
<title>Node2</title>
<g id="a_node2"><a xlink:href="_mesh_adapt_p_u_m_i_8h.html" target="_top" xlink:title=" ">
<polygon fill="white" stroke="black" points="549,-56.5 549,-75.5 649,-75.5 649,-56.5 549,-56.5"/>
<text text-anchor="middle" x="599" y="-63.5" font-family="Helvetica,sans-Serif" font-size="10.00">MeshAdaptPUMI.h</text>
</a>
</g>
</g>
<!-- Node1&#45;&gt;Node2 -->
<g id="edge1" class="edge">
<title>Node1&#45;&gt;Node2</title>
<path fill="none" stroke="midnightblue" d="M945.56,-111.56C860.48,-100.62 722.58,-82.89 649.01,-73.43"/>
<polygon fill="midnightblue" stroke="midnightblue" points="945.3,-115.05 955.67,-112.86 946.2,-108.11 945.3,-115.05"/>
</g>
<!-- Node11 -->
<g id="node11" class="node">
<title>Node11</title>
<g id="a_node11"><a xlink:href="_r_a_n_s2_p_8h.html" target="_top" xlink:title=" ">
<polygon fill="white" stroke="black" points="987,-56.5 987,-75.5 1051,-75.5 1051,-56.5 987,-56.5"/>
<text text-anchor="middle" x="1019" y="-63.5" font-family="Helvetica,sans-Serif" font-size="10.00">RANS2P.h</text>
</a>
</g>
</g>
<!-- Node1&#45;&gt;Node11 -->
<g id="edge10" class="edge">
<title>Node1&#45;&gt;Node11</title>
<path fill="none" stroke="midnightblue" d="M1019,-101.8C1019,-92.91 1019,-82.78 1019,-75.75"/>
<polygon fill="midnightblue" stroke="midnightblue" points="1015.5,-102.08 1019,-112.08 1022.5,-102.08 1015.5,-102.08"/>
</g>
<!-- Node13 -->
<g id="node13" class="node">
<title>Node13</title>
<g id="a_node13"><a xlink:href="_r_a_n_s2_p2_d_8h.html" target="_top" xlink:title=" ">
<polygon fill="white" stroke="black" points="1074,-56.5 1074,-75.5 1152,-75.5 1152,-56.5 1074,-56.5"/>
<text text-anchor="middle" x="1113" y="-63.5" font-family="Helvetica,sans-Serif" font-size="10.00">RANS2P2D.h</text>
</a>
</g>
</g>
<!-- Node1&#45;&gt;Node13 -->
<g id="edge12" class="edge">
<title>Node1&#45;&gt;Node13</title>
<path fill="none" stroke="midnightblue" d="M1043.06,-107.18C1060.36,-97.24 1083.15,-84.15 1097.93,-75.65"/>
<polygon fill="midnightblue" stroke="midnightblue" points="1041.03,-104.31 1034.1,-112.32 1044.52,-110.38 1041.03,-104.31"/>
</g>
<!-- Node3 -->
<g id="node3" class="node">
<title>Node3</title>
<g id="a_node3"><a xlink:href="c_mesh_adapt_p_u_m_i_8cpp.html" target="_top" xlink:title=" ">
<polygon fill="white" stroke="black" points="0,-0.5 0,-19.5 116,-19.5 116,-0.5 0,-0.5"/>
<text text-anchor="middle" x="58" y="-7.5" font-family="Helvetica,sans-Serif" font-size="10.00">cMeshAdaptPUMI.cpp</text>
</a>
</g>
</g>
<!-- Node2&#45;&gt;Node3 -->
<g id="edge2" class="edge">
<title>Node2&#45;&gt;Node3</title>
<path fill="none" stroke="midnightblue" d="M538.74,-60.03C448.62,-52.44 273.47,-37.01 125,-20 122.08,-19.67 119.1,-19.31 116.09,-18.94"/>
<polygon fill="midnightblue" stroke="midnightblue" points="538.51,-63.53 548.77,-60.88 539.1,-56.55 538.51,-63.53"/>
</g>
<!-- Node4 -->
<g id="node4" class="node">
<title>Node4</title>
<g id="a_node4"><a xlink:href="create_analytic_geometry_8cpp.html" target="_top" xlink:title=" ">
<polygon fill="white" stroke="black" points="134.5,-0.5 134.5,-19.5 273.5,-19.5 273.5,-0.5 134.5,-0.5"/>
<text text-anchor="middle" x="204" y="-7.5" font-family="Helvetica,sans-Serif" font-size="10.00">createAnalyticGeometry.cpp</text>
</a>
</g>
</g>
<!-- Node2&#45;&gt;Node4 -->
<g id="edge3" class="edge">
<title>Node2&#45;&gt;Node4</title>
<path fill="none" stroke="midnightblue" d="M538.92,-56.79C465.24,-46.71 340.96,-29.72 266.28,-19.51"/>
<polygon fill="midnightblue" stroke="midnightblue" points="538.59,-60.27 548.97,-58.16 539.54,-53.34 538.59,-60.27"/>
</g>
<!-- Node5 -->
<g id="node5" class="node">
<title>Node5</title>
<g id="a_node5"><a xlink:href="_error_residual_method_8cpp.html" target="_top" xlink:title=" ">
<polygon fill="white" stroke="black" points="291.5,-0.5 291.5,-19.5 418.5,-19.5 418.5,-0.5 291.5,-0.5"/>
<text text-anchor="middle" x="355" y="-7.5" font-family="Helvetica,sans-Serif" font-size="10.00">ErrorResidualMethod.cpp</text>
</a>
</g>
</g>
<!-- Node2&#45;&gt;Node5 -->
<g id="edge4" class="edge">
<title>Node2&#45;&gt;Node5</title>
<path fill="none" stroke="midnightblue" d="M550.57,-54.28C504.46,-44.08 435.97,-28.92 393.48,-19.52"/>
<polygon fill="midnightblue" stroke="midnightblue" points="549.82,-57.7 560.34,-56.44 551.33,-50.87 549.82,-57.7"/>
</g>
<!-- Node6 -->
<g id="node6" class="node">
<title>Node6</title>
<g id="a_node6"><a xlink:href="_mesh_converter_8cpp.html" target="_top" xlink:title=" ">
<polygon fill="white" stroke="black" points="436.5,-0.5 436.5,-19.5 537.5,-19.5 537.5,-0.5 436.5,-0.5"/>
<text text-anchor="middle" x="487" y="-7.5" font-family="Helvetica,sans-Serif" font-size="10.00">MeshConverter.cpp</text>
</a>
</g>
</g>
<!-- Node2&#45;&gt;Node6 -->
<g id="edge5" class="edge">
<title>Node2&#45;&gt;Node6</title>
<path fill="none" stroke="midnightblue" d="M571.75,-51.86C550.98,-41.85 522.98,-28.35 504.95,-19.65"/>
<polygon fill="midnightblue" stroke="midnightblue" points="570.48,-55.13 581.01,-56.32 573.52,-48.83 570.48,-55.13"/>
</g>
<!-- Node7 -->
<g id="node7" class="node">
<title>Node7</title>
<g id="a_node7"><a xlink:href="_mesh_fields_8cpp.html" target="_top" xlink:title=" ">
<polygon fill="white" stroke="black" points="556,-0.5 556,-19.5 642,-19.5 642,-0.5 556,-0.5"/>
<text text-anchor="middle" x="599" y="-7.5" font-family="Helvetica,sans-Serif" font-size="10.00">MeshFields.cpp</text>
</a>
</g>
</g>
<!-- Node2&#45;&gt;Node7 -->
<g id="edge6" class="edge">
<title>Node2&#45;&gt;Node7</title>
<path fill="none" stroke="midnightblue" d="M599,-45.8C599,-36.91 599,-26.78 599,-19.75"/>
<polygon fill="midnightblue" stroke="midnightblue" points="595.5,-46.08 599,-56.08 602.5,-46.08 595.5,-46.08"/>
</g>
<!-- Node8 -->
<g id="node8" class="node">
<title>Node8</title>
<g id="a_node8"><a xlink:href="_parallel_mesh_converter_8cpp.html" target="_top" xlink:title=" ">
<polygon fill="white" stroke="black" points="660,-0.5 660,-19.5 794,-19.5 794,-0.5 660,-0.5"/>
<text text-anchor="middle" x="727" y="-7.5" font-family="Helvetica,sans-Serif" font-size="10.00">ParallelMeshConverter.cpp</text>
</a>
</g>
</g>
<!-- Node2&#45;&gt;Node8 -->
<g id="edge7" class="edge">
<title>Node2&#45;&gt;Node8</title>
<path fill="none" stroke="midnightblue" d="M628.62,-52.5C652.62,-42.38 685.78,-28.39 706.81,-19.52"/>
<polygon fill="midnightblue" stroke="midnightblue" points="627.14,-49.33 619.28,-56.44 629.86,-55.78 627.14,-49.33"/>
</g>
<!-- Node9 -->
<g id="node9" class="node">
<title>Node9</title>
<g id="a_node9"><a xlink:href="_size_field_8cpp.html" target="_top" xlink:title=" ">
<polygon fill="white" stroke="black" points="812,-0.5 812,-19.5 888,-19.5 888,-0.5 812,-0.5"/>
<text text-anchor="middle" x="850" y="-7.5" font-family="Helvetica,sans-Serif" font-size="10.00">SizeField.cpp</text>
</a>
</g>
</g>
<!-- Node2&#45;&gt;Node9 -->
<g id="edge8" class="edge">
<title>Node2&#45;&gt;Node9</title>
<path fill="none" stroke="midnightblue" d="M648.61,-54.33C696.5,-44.02 767.98,-28.65 811.65,-19.25"/>
<polygon fill="midnightblue" stroke="midnightblue" points="647.81,-50.92 638.77,-56.44 649.28,-57.76 647.81,-50.92"/>
</g>
<!-- Node10 -->
<g id="node10" class="node">
<title>Node10</title>
<g id="a_node10"><a xlink:href="_v_m_s_8cpp.html" target="_top" xlink:title=" ">
<polygon fill="white" stroke="black" points="906.5,-0.5 906.5,-19.5 963.5,-19.5 963.5,-0.5 906.5,-0.5"/>
<text text-anchor="middle" x="935" y="-7.5" font-family="Helvetica,sans-Serif" font-size="10.00">VMS.cpp</text>
</a>
</g>
</g>
<!-- Node2&#45;&gt;Node10 -->
<g id="edge9" class="edge">
<title>Node2&#45;&gt;Node10</title>
<path fill="none" stroke="midnightblue" d="M659.16,-57.4C719.52,-49.43 815.06,-35.86 897,-20 900.06,-19.41 903.25,-18.74 906.42,-18.04"/>
<polygon fill="midnightblue" stroke="midnightblue" points="658.5,-53.96 649.04,-58.73 659.41,-60.9 658.5,-53.96"/>
</g>
<!-- Node12 -->
<g id="node12" class="node">
<title>Node12</title>
<g id="a_node12"><a xlink:href="_r_a_n_s2_p_8cpp.html" target="_top" xlink:title=" ">
<polygon fill="white" stroke="black" points="982,-0.5 982,-19.5 1056,-19.5 1056,-0.5 982,-0.5"/>
<text text-anchor="middle" x="1019" y="-7.5" font-family="Helvetica,sans-Serif" font-size="10.00">RANS2P.cpp</text>
</a>
</g>
</g>
<!-- Node11&#45;&gt;Node12 -->
<g id="edge11" class="edge">
<title>Node11&#45;&gt;Node12</title>
<path fill="none" stroke="midnightblue" d="M1019,-45.8C1019,-36.91 1019,-26.78 1019,-19.75"/>
<polygon fill="midnightblue" stroke="midnightblue" points="1015.5,-46.08 1019,-56.08 1022.5,-46.08 1015.5,-46.08"/>
</g>
<!-- Node14 -->
<g id="node14" class="node">
<title>Node14</title>
<g id="a_node14"><a xlink:href="_r_a_n_s2_p2_d_8cpp.html" target="_top" xlink:title=" ">
<polygon fill="white" stroke="black" points="1074.5,-0.5 1074.5,-19.5 1163.5,-19.5 1163.5,-0.5 1074.5,-0.5"/>
<text text-anchor="middle" x="1119" y="-7.5" font-family="Helvetica,sans-Serif" font-size="10.00">RANS2P2D.cpp</text>
</a>
</g>
</g>
<!-- Node13&#45;&gt;Node14 -->
<g id="edge13" class="edge">
<title>Node13&#45;&gt;Node14</title>
<path fill="none" stroke="midnightblue" d="M1115.1,-46.1C1116.1,-37.14 1117.24,-26.86 1118.03,-19.75"/>
<polygon fill="midnightblue" stroke="midnightblue" points="1111.62,-45.76 1113.99,-56.08 1118.57,-46.53 1111.62,-45.76"/>
</g>
</g>
</svg>
