<?xml version="1.0" encoding="UTF-8" standalone="no"?>
<!DOCTYPE svg PUBLIC "-//W3C//DTD SVG 1.1//EN"
 "http://www.w3.org/Graphics/SVG/1.1/DTD/svg11.dtd">
<!-- Generated by graphviz version 2.40.1 (20161225.0304)
 -->
<!-- Title: PyEmbeddedFunctions.h Pages: 1 -->
<svg width="1176pt" height="140pt"
 viewBox="0.00 0.00 1175.50 140.00" xmlns="http://www.w3.org/2000/svg" xmlns:xlink="http://www.w3.org/1999/xlink">
<g id="graph0" class="graph" transform="scale(1 1) rotate(0) translate(4 136)">
<title>PyEmbeddedFunctions.h</title>
<polygon fill="#ffffff" stroke="transparent" points="-4,4 -4,-136 1171.5,-136 1171.5,4 -4,4"/>
<!-- Node2 -->
<g id="node1" class="node">
<title>Node2</title>
<polygon fill="#bfbfbf" stroke="#000000" points="959,-112.5 959,-131.5 1085,-131.5 1085,-112.5 959,-112.5"/>
<text text-anchor="middle" x="1022" y="-119.5" font-family="Helvetica,sans-Serif" font-size="10.00" fill="#000000">PyEmbeddedFunctions.h</text>
</g>
<!-- Node3 -->
<g id="node2" class="node">
<title>Node3</title>
<g id="a_node2"><a xlink:href="_mesh_adapt_p_u_m_i_8h.html" target="_top" xlink:title="MeshAdaptPUMI.h">
<polygon fill="#ffffff" stroke="#000000" points="551,-56.5 551,-75.5 651,-75.5 651,-56.5 551,-56.5"/>
<text text-anchor="middle" x="601" y="-63.5" font-family="Helvetica,sans-Serif" font-size="10.00" fill="#000000">MeshAdaptPUMI.h</text>
</a>
</g>
</g>
<!-- Node2&#45;&gt;Node3 -->
<g id="edge1" class="edge">
<title>Node2&#45;&gt;Node3</title>
<path fill="none" stroke="#191970" d="M948.8536,-112.2703C863.6513,-100.937 725.1625,-82.5157 651.2436,-72.6832"/>
<polygon fill="#191970" stroke="#191970" points="948.5978,-115.767 958.972,-113.6162 949.5209,-108.8282 948.5978,-115.767"/>
</g>
<!-- Node12 -->
<g id="node11" class="node">
<title>Node12</title>
<g id="a_node11"><a xlink:href="_r_a_n_s2_p_8h.html" target="_top" xlink:title="RANS2P.h">
<polygon fill="#ffffff" stroke="#000000" points="989.5,-56.5 989.5,-75.5 1054.5,-75.5 1054.5,-56.5 989.5,-56.5"/>
<text text-anchor="middle" x="1022" y="-63.5" font-family="Helvetica,sans-Serif" font-size="10.00" fill="#000000">RANS2P.h</text>
</a>
</g>
</g>
<!-- Node2&#45;&gt;Node12 -->
<g id="edge10" class="edge">
<title>Node2&#45;&gt;Node12</title>
<path fill="none" stroke="#191970" d="M1022,-102.1575C1022,-93.155 1022,-82.9199 1022,-75.6427"/>
<polygon fill="#191970" stroke="#191970" points="1018.5001,-102.2455 1022,-112.2455 1025.5001,-102.2456 1018.5001,-102.2455"/>
</g>
<!-- Node14 -->
<g id="node13" class="node">
<title>Node14</title>
<g id="a_node13"><a xlink:href="_r_a_n_s2_p2_d_8h.html" target="_top" xlink:title="RANS2P2D.h">
<polygon fill="#ffffff" stroke="#000000" points="1078,-56.5 1078,-75.5 1156,-75.5 1156,-56.5 1078,-56.5"/>
<text text-anchor="middle" x="1117" y="-63.5" font-family="Helvetica,sans-Serif" font-size="10.00" fill="#000000">RANS2P2D.h</text>
</a>
</g>
</g>
<!-- Node2&#45;&gt;Node14 -->
<g id="edge12" class="edge">
<title>Node2&#45;&gt;Node14</title>
<path fill="none" stroke="#191970" d="M1047.3676,-107.0465C1064.271,-97.0824 1085.9904,-84.2794 1100.6419,-75.6427"/>
<polygon fill="#191970" stroke="#191970" points="1045.3851,-104.1522 1038.5477,-112.2455 1048.9398,-110.1825 1045.3851,-104.1522"/>
</g>
<!-- Node4 -->
<g id="node3" class="node">
<title>Node4</title>
<g id="a_node3"><a xlink:href="c_mesh_adapt_p_u_m_i_8cpp.html" target="_top" xlink:title="cMeshAdaptPUMI.cpp">
<polygon fill="#ffffff" stroke="#000000" points="0,-.5 0,-19.5 116,-19.5 116,-.5 0,-.5"/>
<text text-anchor="middle" x="58" y="-7.5" font-family="Helvetica,sans-Serif" font-size="10.00" fill="#000000">cMeshAdaptPUMI.cpp</text>
</a>
</g>
</g>
<!-- Node3&#45;&gt;Node4 -->
<g id="edge2" class="edge">
<title>Node3&#45;&gt;Node4</title>
<path fill="none" stroke="#191970" d="M540.813,-61.1902C450.3884,-53.7365 274.171,-38.3275 125,-20 122.0817,-19.6415 119.0945,-19.2576 116.0796,-18.8567"/>
<polygon fill="#191970" stroke="#191970" points="540.6262,-64.6866 550.879,-62.0163 541.1988,-57.71 540.6262,-64.6866"/>
</g>
<!-- Node5 -->
<g id="node4" class="node">
<title>Node5</title>
<g id="a_node4"><a xlink:href="create_analytic_geometry_8cpp.html" target="_top" xlink:title="createAnalyticGeometry.cpp">
<polygon fill="#ffffff" stroke="#000000" points="134,-.5 134,-19.5 274,-19.5 274,-.5 134,-.5"/>
<text text-anchor="middle" x="204" y="-7.5" font-family="Helvetica,sans-Serif" font-size="10.00" fill="#000000">createAnalyticGeometry.cpp</text>
</a>
</g>
</g>
<!-- Node3&#45;&gt;Node5 -->
<g id="edge3" class="edge">
<title>Node3&#45;&gt;Node5</title>
<path fill="none" stroke="#191970" d="M540.384,-57.4496C467.8686,-47.2208 346.8335,-30.1478 271.4282,-19.5113"/>
<polygon fill="#191970" stroke="#191970" points="540.3288,-60.9764 550.7197,-58.9076 541.3066,-54.045 540.3288,-60.9764"/>
</g>
<!-- Node6 -->
<g id="node5" class="node">
<title>Node6</title>
<g id="a_node5"><a xlink:href="_error_residual_method_8cpp.html" target="_top" xlink:title="ErrorResidualMethod.cpp">
<polygon fill="#ffffff" stroke="#000000" points="292.5,-.5 292.5,-19.5 419.5,-19.5 419.5,-.5 292.5,-.5"/>
<text text-anchor="middle" x="356" y="-7.5" font-family="Helvetica,sans-Serif" font-size="10.00" fill="#000000">ErrorResidualMethod.cpp</text>
</a>
</g>
</g>
<!-- Node3&#45;&gt;Node6 -->
<g id="edge4" class="edge">
<title>Node3&#45;&gt;Node6</title>
<path fill="none" stroke="#191970" d="M549.2767,-54.1775C504.1555,-43.8641 439.5335,-29.0934 397.6661,-19.5237"/>
<polygon fill="#191970" stroke="#191970" points="548.6329,-57.6206 559.1614,-56.4369 550.1927,-50.7966 548.6329,-57.6206"/>
</g>
<!-- Node7 -->
<g id="node6" class="node">
<title>Node7</title>
<g id="a_node6"><a xlink:href="_mesh_converter_8cpp.html" target="_top" xlink:title="MeshConverter.cpp">
<polygon fill="#ffffff" stroke="#000000" points="438,-.5 438,-19.5 540,-19.5 540,-.5 438,-.5"/>
<text text-anchor="middle" x="489" y="-7.5" font-family="Helvetica,sans-Serif" font-size="10.00" fill="#000000">MeshConverter.cpp</text>
</a>
</g>
</g>
<!-- Node3&#45;&gt;Node7 -->
<g id="edge5" class="edge">
<title>Node3&#45;&gt;Node7</title>
<path fill="none" stroke="#191970" d="M572.6737,-51.8368C552.4279,-41.7139 525.7358,-28.3679 508.0022,-19.5011"/>
<polygon fill="#191970" stroke="#191970" points="571.237,-55.0316 581.7465,-56.3733 574.3675,-48.7706 571.237,-55.0316"/>
</g>
<!-- Node8 -->
<g id="node7" class="node">
<title>Node8</title>
<g id="a_node7"><a xlink:href="_mesh_fields_8cpp.html" target="_top" xlink:title="MeshFields.cpp">
<polygon fill="#ffffff" stroke="#000000" points="558,-.5 558,-19.5 644,-19.5 644,-.5 558,-.5"/>
<text text-anchor="middle" x="601" y="-7.5" font-family="Helvetica,sans-Serif" font-size="10.00" fill="#000000">MeshFields.cpp</text>
</a>
</g>
</g>
<!-- Node3&#45;&gt;Node8 -->
<g id="edge6" class="edge">
<title>Node3&#45;&gt;Node8</title>
<path fill="none" stroke="#191970" d="M601,-46.1575C601,-37.155 601,-26.9199 601,-19.6427"/>
<polygon fill="#191970" stroke="#191970" points="597.5001,-46.2455 601,-56.2455 604.5001,-46.2456 597.5001,-46.2455"/>
</g>
<!-- Node9 -->
<g id="node8" class="node">
<title>Node9</title>
<g id="a_node8"><a xlink:href="_parallel_mesh_converter_8cpp.html" target="_top" xlink:title="ParallelMeshConverter.cpp">
<polygon fill="#ffffff" stroke="#000000" points="662,-.5 662,-19.5 796,-19.5 796,-.5 662,-.5"/>
<text text-anchor="middle" x="729" y="-7.5" font-family="Helvetica,sans-Serif" font-size="10.00" fill="#000000">ParallelMeshConverter.cpp</text>
</a>
</g>
</g>
<!-- Node3&#45;&gt;Node9 -->
<g id="edge7" class="edge">
<title>Node3&#45;&gt;Node9</title>
<path fill="none" stroke="#191970" d="M632.4348,-52.2473C655.6809,-42.0771 686.7411,-28.4883 707.2831,-19.5011"/>
<polygon fill="#191970" stroke="#191970" points="630.7627,-49.1585 623.004,-56.3733 633.5685,-55.5716 630.7627,-49.1585"/>
</g>
<!-- Node10 -->
<g id="node9" class="node">
<title>Node10</title>
<g id="a_node9"><a xlink:href="_size_field_8cpp.html" target="_top" xlink:title="SizeField.cpp">
<polygon fill="#ffffff" stroke="#000000" points="814,-.5 814,-19.5 890,-19.5 890,-.5 814,-.5"/>
<text text-anchor="middle" x="852" y="-7.5" font-family="Helvetica,sans-Serif" font-size="10.00" fill="#000000">SizeField.cpp</text>
</a>
</g>
</g>
<!-- Node3&#45;&gt;Node10 -->
<g id="edge8" class="edge">
<title>Node3&#45;&gt;Node10</title>
<path fill="none" stroke="#191970" d="M653.7377,-54.2338C701.6299,-43.5487 771.1189,-28.0452 813.8353,-18.5148"/>
<polygon fill="#191970" stroke="#191970" points="652.8611,-50.8433 643.8632,-56.4369 654.3854,-57.6753 652.8611,-50.8433"/>
</g>
<!-- Node11 -->
<g id="node10" class="node">
<title>Node11</title>
<g id="a_node10"><a xlink:href="_v_m_s_8cpp.html" target="_top" xlink:title="VMS.cpp">
<polygon fill="#ffffff" stroke="#000000" points="908.5,-.5 908.5,-19.5 965.5,-19.5 965.5,-.5 908.5,-.5"/>
<text text-anchor="middle" x="937" y="-7.5" font-family="Helvetica,sans-Serif" font-size="10.00" fill="#000000">VMS.cpp</text>
</a>
</g>
</g>
<!-- Node3&#45;&gt;Node11 -->
<g id="edge9" class="edge">
<title>Node3&#45;&gt;Node11</title>
<path fill="none" stroke="#191970" d="M661.238,-58.5759C721.6671,-50.6893 817.2449,-37.0189 899,-20 902.0722,-19.3605 905.2672,-18.6279 908.4418,-17.8564"/>
<polygon fill="#191970" stroke="#191970" points="660.5809,-55.1317 651.1128,-59.8861 661.4793,-62.0738 660.5809,-55.1317"/>
</g>
<!-- Node13 -->
<g id="node12" class="node">
<title>Node13</title>
<g id="a_node12"><a xlink:href="_r_a_n_s2_p_8cpp.html" target="_top" xlink:title="RANS2P.cpp">
<polygon fill="#ffffff" stroke="#000000" points="984,-.5 984,-19.5 1060,-19.5 1060,-.5 984,-.5"/>
<text text-anchor="middle" x="1022" y="-7.5" font-family="Helvetica,sans-Serif" font-size="10.00" fill="#000000">RANS2P.cpp</text>
</a>
</g>
</g>
<!-- Node12&#45;&gt;Node13 -->
<g id="edge11" class="edge">
<title>Node12&#45;&gt;Node13</title>
<path fill="none" stroke="#191970" d="M1022,-46.1575C1022,-37.155 1022,-26.9199 1022,-19.6427"/>
<polygon fill="#191970" stroke="#191970" points="1018.5001,-46.2455 1022,-56.2455 1025.5001,-46.2456 1018.5001,-46.2455"/>
</g>
<!-- Node15 -->
<g id="node14" class="node">
<title>Node15</title>
<g id="a_node14"><a xlink:href="_r_a_n_s2_p2_d_8cpp.html" target="_top" xlink:title="RANS2P2D.cpp">
<polygon fill="#ffffff" stroke="#000000" points="1078.5,-.5 1078.5,-19.5 1167.5,-19.5 1167.5,-.5 1078.5,-.5"/>
<text text-anchor="middle" x="1123" y="-7.5" font-family="Helvetica,sans-Serif" font-size="10.00" fill="#000000">RANS2P2D.cpp</text>
</a>
</g>
</g>
<!-- Node14&#45;&gt;Node15 -->
<g id="edge13" class="edge">
<title>Node14&#45;&gt;Node15</title>
<path fill="none" stroke="#191970" d="M1119.126,-46.1575C1120.0905,-37.155 1121.1872,-26.9199 1121.9669,-19.6427"/>
<polygon fill="#191970" stroke="#191970" points="1115.6305,-45.9296 1118.0451,-56.2455 1122.5906,-46.6753 1115.6305,-45.9296"/>
</g>
</g>
</svg>
