<?xml version="1.0" encoding="UTF-8" standalone="no"?>
<!DOCTYPE svg PUBLIC "-//W3C//DTD SVG 1.1//EN"
 "http://www.w3.org/Graphics/SVG/1.1/DTD/svg11.dtd">
<!-- Generated by graphviz version 2.43.0 (0)
 -->
<!-- Title: RANS3PF2D.h Pages: 1 -->
<svg width="1279pt" height="151pt"
 viewBox="0.00 0.00 1278.50 151.00" xmlns="http://www.w3.org/2000/svg" xmlns:xlink="http://www.w3.org/1999/xlink">
<g id="graph0" class="graph" transform="scale(1 1) rotate(0) translate(4 147)">
<title>RANS3PF2D.h</title>
<polygon fill="white" stroke="transparent" points="-4,4 -4,-147 1274.5,-147 1274.5,4 -4,4"/>
<!-- Node1 -->
<g id="node1" class="node">
<title>Node1</title>
<g id="a_node1"><a xlink:title=" ">
<polygon fill="#bfbfbf" stroke="black" points="414.5,-123.5 414.5,-142.5 498.5,-142.5 498.5,-123.5 414.5,-123.5"/>
<text text-anchor="middle" x="456.5" y="-130.5" font-family="Helvetica,sans-Serif" font-size="10.00">RANS3PF2D.h</text>
</a>
</g>
</g>
<!-- Node2 -->
<g id="node2" class="node">
<title>Node2</title>
<g id="a_node2"><a xlink:title=" ">
<polygon fill="white" stroke="#bfbfbf" points="63,-6 63,-25 110,-25 110,-6 63,-6"/>
<text text-anchor="middle" x="86.5" y="-13" font-family="Helvetica,sans-Serif" font-size="10.00">cmath</text>
</a>
</g>
</g>
<!-- Node1&#45;&gt;Node2 -->
<g id="edge1" class="edge">
<title>Node1&#45;&gt;Node2</title>
<path fill="none" stroke="midnightblue" d="M414.21,-130.43C337.35,-126.89 178.48,-116.17 132.5,-87 113.27,-74.8 100.4,-51.32 93.28,-34.82"/>
<polygon fill="midnightblue" stroke="midnightblue" points="96.38,-33.16 89.42,-25.18 89.89,-35.76 96.38,-33.16"/>
</g>
<!-- Node3 -->
<g id="node3" class="node">
<title>Node3</title>
<g id="a_node3"><a xlink:title=" ">
<polygon fill="white" stroke="#bfbfbf" points="730,-67.5 730,-86.5 787,-86.5 787,-67.5 730,-67.5"/>
<text text-anchor="middle" x="758.5" y="-74.5" font-family="Helvetica,sans-Serif" font-size="10.00">valarray</text>
</a>
</g>
</g>
<!-- Node1&#45;&gt;Node3 -->
<g id="edge2" class="edge">
<title>Node1&#45;&gt;Node3</title>
<path fill="none" stroke="midnightblue" d="M498.72,-125.65C548.98,-117.91 635.67,-103.96 719.92,-87.01"/>
<polygon fill="midnightblue" stroke="midnightblue" points="720.81,-90.4 729.91,-84.98 719.41,-83.54 720.81,-90.4"/>
</g>
<!-- Node4 -->
<g id="node4" class="node">
<title>Node4</title>
<g id="a_node4"><a xlink:title=" ">
<polygon fill="white" stroke="#bfbfbf" points="128.5,-6 128.5,-25 188.5,-25 188.5,-6 128.5,-6"/>
<text text-anchor="middle" x="158.5" y="-13" font-family="Helvetica,sans-Serif" font-size="10.00">iostream</text>
</a>
</g>
</g>
<!-- Node1&#45;&gt;Node4 -->
<g id="edge3" class="edge">
<title>Node1&#45;&gt;Node4</title>
<path fill="none" stroke="midnightblue" d="M414.15,-126.03C375.19,-119.57 316.36,-107.37 268.5,-87 250.3,-79.25 205.83,-49.33 179.34,-31.05"/>
<polygon fill="midnightblue" stroke="midnightblue" points="181.01,-27.95 170.79,-25.13 177.02,-33.7 181.01,-27.95"/>
</g>
<!-- Node5 -->
<g id="node5" class="node">
<title>Node5</title>
<g id="a_node5"><a xlink:title=" ">
<polygon fill="white" stroke="#bfbfbf" points="805,-67.5 805,-86.5 852,-86.5 852,-67.5 805,-67.5"/>
<text text-anchor="middle" x="828.5" y="-74.5" font-family="Helvetica,sans-Serif" font-size="10.00">vector</text>
</a>
</g>
</g>
<!-- Node1&#45;&gt;Node5 -->
<g id="edge4" class="edge">
<title>Node1&#45;&gt;Node5</title>
<path fill="none" stroke="midnightblue" d="M498.7,-128.37C561.4,-122.54 682.96,-109.62 794.74,-87.13"/>
<polygon fill="midnightblue" stroke="midnightblue" points="795.73,-90.5 804.83,-85.06 794.33,-83.64 795.73,-90.5"/>
</g>
<!-- Node6 -->
<g id="node6" class="node">
<title>Node6</title>
<g id="a_node6"><a xlink:title=" ">
<polygon fill="white" stroke="#bfbfbf" points="870.5,-67.5 870.5,-86.5 902.5,-86.5 902.5,-67.5 870.5,-67.5"/>
<text text-anchor="middle" x="886.5" y="-74.5" font-family="Helvetica,sans-Serif" font-size="10.00">set</text>
</a>
</g>
</g>
<!-- Node1&#45;&gt;Node6 -->
<g id="edge5" class="edge">
<title>Node1&#45;&gt;Node6</title>
<path fill="none" stroke="midnightblue" d="M498.73,-130.57C571.26,-127.4 724.05,-117.67 860.47,-86.73"/>
<polygon fill="midnightblue" stroke="midnightblue" points="861.3,-90.13 870.26,-84.47 859.73,-83.31 861.3,-90.13"/>
</g>
<!-- Node7 -->
<g id="node7" class="node">
<title>Node7</title>
<g id="a_node7"><a xlink:title=" ">
<polygon fill="white" stroke="#bfbfbf" points="920.5,-67.5 920.5,-86.5 970.5,-86.5 970.5,-67.5 920.5,-67.5"/>
<text text-anchor="middle" x="945.5" y="-74.5" font-family="Helvetica,sans-Serif" font-size="10.00">cstring</text>
</a>
</g>
</g>
<!-- Node1&#45;&gt;Node7 -->
<g id="edge6" class="edge">
<title>Node1&#45;&gt;Node7</title>
<path fill="none" stroke="midnightblue" d="M498.53,-130.1C577.43,-126.04 753.17,-114.69 910.05,-86.99"/>
<polygon fill="midnightblue" stroke="midnightblue" points="911.13,-90.35 920.35,-85.14 909.89,-83.46 911.13,-90.35"/>
</g>
<!-- Node8 -->
<g id="node8" class="node">
<title>Node8</title>
<g id="a_node8"><a xlink:href="_comp_kernel_8h.html" target="_top" xlink:title=" ">
<polygon fill="white" stroke="black" points="0,-67.5 0,-86.5 85,-86.5 85,-67.5 0,-67.5"/>
<text text-anchor="middle" x="42.5" y="-74.5" font-family="Helvetica,sans-Serif" font-size="10.00">CompKernel.h</text>
</a>
</g>
</g>
<!-- Node1&#45;&gt;Node8 -->
<g id="edge7" class="edge">
<title>Node1&#45;&gt;Node8</title>
<path fill="none" stroke="midnightblue" d="M414.4,-127.12C347.58,-119.29 213.15,-103.13 99.5,-87 98.04,-86.79 96.57,-86.58 95.08,-86.36"/>
<polygon fill="midnightblue" stroke="midnightblue" points="95.53,-82.89 85.12,-84.88 94.49,-89.82 95.53,-82.89"/>
</g>
<!-- Node9 -->
<g id="node9" class="node">
<title>Node9</title>
<g id="a_node9"><a xlink:href="_model_factory_8h.html" target="_top" xlink:title=" ">
<polygon fill="white" stroke="black" points="278,-67.5 278,-86.5 367,-86.5 367,-67.5 278,-67.5"/>
<text text-anchor="middle" x="322.5" y="-74.5" font-family="Helvetica,sans-Serif" font-size="10.00">ModelFactory.h</text>
</a>
</g>
</g>
<!-- Node1&#45;&gt;Node9 -->
<g id="edge9" class="edge">
<title>Node1&#45;&gt;Node9</title>
<path fill="none" stroke="midnightblue" d="M435.27,-123.44C413.12,-114.52 378.18,-100.44 353.06,-90.32"/>
<polygon fill="midnightblue" stroke="midnightblue" points="354.22,-87.01 343.63,-86.52 351.6,-93.5 354.22,-87.01"/>
</g>
<!-- Node10 -->
<g id="node10" class="node">
<title>Node10</title>
<g id="a_node10"><a xlink:href="_sed_closure_8h.html" target="_top" xlink:title=" ">
<polygon fill="white" stroke="black" points="141.5,-67.5 141.5,-86.5 221.5,-86.5 221.5,-67.5 141.5,-67.5"/>
<text text-anchor="middle" x="181.5" y="-74.5" font-family="Helvetica,sans-Serif" font-size="10.00">SedClosure.h</text>
</a>
</g>
</g>
<!-- Node1&#45;&gt;Node10 -->
<g id="edge11" class="edge">
<title>Node1&#45;&gt;Node10</title>
<path fill="none" stroke="midnightblue" d="M414.43,-123.74C365.35,-114.1 284.24,-98.17 231.85,-87.89"/>
<polygon fill="midnightblue" stroke="midnightblue" points="232.26,-84.4 221.77,-85.91 230.91,-91.27 232.26,-84.4"/>
</g>
<!-- Node12 -->
<g id="node12" class="node">
<title>Node12</title>
<g id="a_node12"><a xlink:href="equivalent__polynomials_8h.html" target="_top" xlink:title=" ">
<polygon fill="white" stroke="black" points="385,-67.5 385,-86.5 528,-86.5 528,-67.5 385,-67.5"/>
<text text-anchor="middle" x="456.5" y="-74.5" font-family="Helvetica,sans-Serif" font-size="10.00">equivalent_polynomials.h</text>
</a>
</g>
</g>
<!-- Node1&#45;&gt;Node12 -->
<g id="edge15" class="edge">
<title>Node1&#45;&gt;Node12</title>
<path fill="none" stroke="midnightblue" d="M456.5,-123.08C456.5,-116.01 456.5,-105.86 456.5,-96.99"/>
<polygon fill="midnightblue" stroke="midnightblue" points="460,-96.75 456.5,-86.75 453,-96.75 460,-96.75"/>
</g>
<!-- Node18 -->
<g id="node18" class="node">
<title>Node18</title>
<g id="a_node18"><a xlink:href="_arguments_dict_8h.html" target="_top" xlink:title=" ">
<polygon fill="white" stroke="black" points="613.5,-67.5 613.5,-86.5 711.5,-86.5 711.5,-67.5 613.5,-67.5"/>
<text text-anchor="middle" x="662.5" y="-74.5" font-family="Helvetica,sans-Serif" font-size="10.00">ArgumentsDict.h</text>
</a>
</g>
</g>
<!-- Node1&#45;&gt;Node18 -->
<g id="edge23" class="edge">
<title>Node1&#45;&gt;Node18</title>
<path fill="none" stroke="midnightblue" d="M489.14,-123.44C524.55,-114.16 581.21,-99.31 620.05,-89.13"/>
<polygon fill="midnightblue" stroke="midnightblue" points="621.23,-92.44 630.01,-86.52 619.45,-85.67 621.23,-92.44"/>
</g>
<!-- Node8&#45;&gt;Node2 -->
<g id="edge8" class="edge">
<title>Node8&#45;&gt;Node2</title>
<path fill="none" stroke="midnightblue" d="M48.8,-67.48C55.4,-58.55 65.94,-44.31 74.19,-33.14"/>
<polygon fill="midnightblue" stroke="midnightblue" points="77.08,-35.13 80.21,-25.01 71.45,-30.97 77.08,-35.13"/>
</g>
<!-- Node9&#45;&gt;Node4 -->
<g id="edge10" class="edge">
<title>Node9&#45;&gt;Node4</title>
<path fill="none" stroke="midnightblue" d="M298.51,-67.45C273.33,-58.45 232.59,-43.84 197.5,-31 195.41,-30.23 193.25,-29.44 191.08,-28.64"/>
<polygon fill="midnightblue" stroke="midnightblue" points="192.18,-25.32 181.58,-25.13 189.75,-31.88 192.18,-25.32"/>
</g>
<!-- Node10&#45;&gt;Node2 -->
<g id="edge12" class="edge">
<title>Node10&#45;&gt;Node2</title>
<path fill="none" stroke="midnightblue" d="M167.89,-67.48C152.44,-57.8 127.01,-41.87 108.68,-30.39"/>
<polygon fill="midnightblue" stroke="midnightblue" points="110.42,-27.35 100.09,-25.01 106.7,-33.28 110.42,-27.35"/>
</g>
<!-- Node10&#45;&gt;Node4 -->
<g id="edge13" class="edge">
<title>Node10&#45;&gt;Node4</title>
<path fill="none" stroke="midnightblue" d="M178.2,-67.48C174.89,-58.9 169.68,-45.43 165.45,-34.48"/>
<polygon fill="midnightblue" stroke="midnightblue" points="168.66,-33.07 161.79,-25.01 162.13,-35.6 168.66,-33.07"/>
</g>
<!-- Node11 -->
<g id="node11" class="node">
<title>Node11</title>
<g id="a_node11"><a xlink:title=" ">
<polygon fill="white" stroke="#bfbfbf" points="655,-6 655,-25 806,-25 806,-6 655,-6"/>
<text text-anchor="middle" x="730.5" y="-13" font-family="Helvetica,sans-Serif" font-size="10.00">xtensor&#45;python/pyarray.hpp</text>
</a>
</g>
</g>
<!-- Node10&#45;&gt;Node11 -->
<g id="edge14" class="edge">
<title>Node10&#45;&gt;Node11</title>
<path fill="none" stroke="midnightblue" d="M221.78,-71.77C236.48,-70.24 253.24,-68.52 268.5,-67 435.99,-50.34 478.65,-53.17 645.5,-31 654.86,-29.76 664.77,-28.24 674.39,-26.67"/>
<polygon fill="midnightblue" stroke="midnightblue" points="674.99,-30.12 684.27,-25.02 673.83,-23.22 674.99,-30.12"/>
</g>
<!-- Node12&#45;&gt;Node2 -->
<g id="edge16" class="edge">
<title>Node12&#45;&gt;Node2</title>
<path fill="none" stroke="midnightblue" d="M384.89,-67.52C293.56,-56.55 144.44,-37.99 119.5,-31 117.35,-30.4 115.15,-29.68 112.97,-28.89"/>
<polygon fill="midnightblue" stroke="midnightblue" points="114.21,-25.62 103.63,-25.12 111.59,-32.11 114.21,-25.62"/>
</g>
<!-- Node12&#45;&gt;Node4 -->
<g id="edge18" class="edge">
<title>Node12&#45;&gt;Node4</title>
<path fill="none" stroke="midnightblue" d="M387.04,-67.47C334.45,-60.16 260.72,-48.09 197.5,-31 194.69,-30.24 191.8,-29.36 188.92,-28.42"/>
<polygon fill="midnightblue" stroke="midnightblue" points="189.91,-25.06 179.32,-25.05 187.59,-31.66 189.91,-25.06"/>
</g>
<!-- Node13 -->
<g id="node13" class="node">
<title>Node13</title>
<g id="a_node13"><a xlink:title=" ">
<polygon fill="white" stroke="#bfbfbf" points="358.5,-6 358.5,-25 410.5,-25 410.5,-6 358.5,-6"/>
<text text-anchor="middle" x="384.5" y="-13" font-family="Helvetica,sans-Serif" font-size="10.00">cassert</text>
</a>
</g>
</g>
<!-- Node12&#45;&gt;Node13 -->
<g id="edge17" class="edge">
<title>Node12&#45;&gt;Node13</title>
<path fill="none" stroke="midnightblue" d="M446.18,-67.48C434.85,-58.11 416.43,-42.88 402.66,-31.51"/>
<polygon fill="midnightblue" stroke="midnightblue" points="404.73,-28.68 394.8,-25.01 400.28,-34.08 404.73,-28.68"/>
</g>
<!-- Node14 -->
<g id="node14" class="node">
<title>Node14</title>
<g id="a_node14"><a xlink:title=" ">
<polygon fill="white" stroke="#bfbfbf" points="428.5,-6 428.5,-25 484.5,-25 484.5,-6 428.5,-6"/>
<text text-anchor="middle" x="456.5" y="-13" font-family="Helvetica,sans-Serif" font-size="10.00">iomanip</text>
</a>
</g>
</g>
<!-- Node12&#45;&gt;Node14 -->
<g id="edge19" class="edge">
<title>Node12&#45;&gt;Node14</title>
<path fill="none" stroke="midnightblue" d="M456.5,-67.48C456.5,-59.08 456.5,-45.98 456.5,-35.16"/>
<polygon fill="midnightblue" stroke="midnightblue" points="460,-35.01 456.5,-25.01 453,-35.01 460,-35.01"/>
</g>
<!-- Node15 -->
<g id="node15" class="node">
<title>Node15</title>
<g id="a_node15"><a xlink:href="equivalent__polynomials__coefficients_8h.html" target="_top" xlink:title=" ">
<polygon fill="white" stroke="black" points="502.5,-0.5 502.5,-30.5 636.5,-30.5 636.5,-0.5 502.5,-0.5"/>
<text text-anchor="start" x="510.5" y="-18.5" font-family="Helvetica,sans-Serif" font-size="10.00">equivalent_polynomials</text>
<text text-anchor="middle" x="569.5" y="-7.5" font-family="Helvetica,sans-Serif" font-size="10.00">_coefficients.h</text>
</a>
</g>
</g>
<!-- Node12&#45;&gt;Node15 -->
<g id="edge20" class="edge">
<title>Node12&#45;&gt;Node15</title>
<path fill="none" stroke="midnightblue" d="M472.69,-67.48C488.57,-59.12 513.3,-46.09 533.8,-35.3"/>
<polygon fill="midnightblue" stroke="midnightblue" points="535.65,-38.28 542.87,-30.52 532.39,-32.09 535.65,-38.28"/>
</g>
<!-- Node16 -->
<g id="node16" class="node">
<title>Node16</title>
<g id="a_node16"><a xlink:href="equivalent__polynomials__coefficients__quad_8h.html" target="_top" xlink:title=" ">
<polygon fill="white" stroke="black" points="824.5,-0.5 824.5,-30.5 958.5,-30.5 958.5,-0.5 824.5,-0.5"/>
<text text-anchor="start" x="832.5" y="-18.5" font-family="Helvetica,sans-Serif" font-size="10.00">equivalent_polynomials</text>
<text text-anchor="middle" x="891.5" y="-7.5" font-family="Helvetica,sans-Serif" font-size="10.00">_coefficients_quad.h</text>
</a>
</g>
</g>
<!-- Node12&#45;&gt;Node16 -->
<g id="edge21" class="edge">
<title>Node12&#45;&gt;Node16</title>
<path fill="none" stroke="midnightblue" d="M528.21,-68.37C598.54,-60.59 709.06,-47.52 814.24,-31.14"/>
<polygon fill="midnightblue" stroke="midnightblue" points="815.07,-34.55 824.4,-29.54 813.98,-27.64 815.07,-34.55"/>
</g>
<!-- Node17 -->
<g id="node17" class="node">
<title>Node17</title>
<g id="a_node17"><a xlink:href="equivalent__polynomials__utils_8h.html" target="_top" xlink:title=" ">
<polygon fill="white" stroke="black" points="206.5,-0.5 206.5,-30.5 340.5,-30.5 340.5,-0.5 206.5,-0.5"/>
<text text-anchor="start" x="214.5" y="-18.5" font-family="Helvetica,sans-Serif" font-size="10.00">equivalent_polynomials</text>
<text text-anchor="middle" x="273.5" y="-7.5" font-family="Helvetica,sans-Serif" font-size="10.00">_utils.h</text>
</a>
</g>
</g>
<!-- Node12&#45;&gt;Node17 -->
<g id="edge22" class="edge">
<title>Node12&#45;&gt;Node17</title>
<path fill="none" stroke="midnightblue" d="M430.28,-67.48C403.3,-58.7 360.5,-44.79 326.44,-33.71"/>
<polygon fill="midnightblue" stroke="midnightblue" points="327.22,-30.29 316.63,-30.52 325.06,-36.94 327.22,-30.29"/>
</g>
<!-- Node18&#45;&gt;Node11 -->
<g id="edge27" class="edge">
<title>Node18&#45;&gt;Node11</title>
<path fill="none" stroke="midnightblue" d="M672.24,-67.48C682.85,-58.2 700.02,-43.17 712.98,-31.83"/>
<polygon fill="midnightblue" stroke="midnightblue" points="715.55,-34.23 720.78,-25.01 710.94,-28.96 715.55,-34.23"/>
</g>
<!-- Node19 -->
<g id="node19" class="node">
<title>Node19</title>
<g id="a_node19"><a xlink:title=" ">
<polygon fill="white" stroke="#bfbfbf" points="976.5,-6 976.5,-25 1014.5,-25 1014.5,-6 976.5,-6"/>
<text text-anchor="middle" x="995.5" y="-13" font-family="Helvetica,sans-Serif" font-size="10.00">map</text>
</a>
</g>
</g>
<!-- Node18&#45;&gt;Node19 -->
<g id="edge24" class="edge">
<title>Node18&#45;&gt;Node19</title>
<path fill="none" stroke="midnightblue" d="M711.75,-68.46C715.05,-67.97 718.32,-67.47 721.5,-67 830.78,-50.67 862.32,-64.87 967.5,-31 968.93,-30.54 970.38,-30.01 971.82,-29.43"/>
<polygon fill="midnightblue" stroke="midnightblue" points="973.48,-32.52 981.08,-25.13 970.53,-26.17 973.48,-32.52"/>
</g>
<!-- Node20 -->
<g id="node20" class="node">
<title>Node20</title>
<g id="a_node20"><a xlink:title=" ">
<polygon fill="white" stroke="#bfbfbf" points="1033,-6 1033,-25 1098,-25 1098,-6 1033,-6"/>
<text text-anchor="middle" x="1065.5" y="-13" font-family="Helvetica,sans-Serif" font-size="10.00">stdexcept</text>
</a>
</g>
</g>
<!-- Node18&#45;&gt;Node20 -->
<g id="edge25" class="edge">
<title>Node18&#45;&gt;Node20</title>
<path fill="none" stroke="midnightblue" d="M711.74,-68.37C715.04,-67.89 718.32,-67.43 721.5,-67 855.44,-48.81 891.75,-61.23 1023.5,-31 1026.91,-30.22 1030.43,-29.26 1033.92,-28.21"/>
<polygon fill="midnightblue" stroke="midnightblue" points="1035.1,-31.5 1043.53,-25.08 1032.93,-24.85 1035.1,-31.5"/>
</g>
<!-- Node21 -->
<g id="node21" class="node">
<title>Node21</title>
<g id="a_node21"><a xlink:title=" ">
<polygon fill="white" stroke="#bfbfbf" points="1116.5,-6 1116.5,-25 1160.5,-25 1160.5,-6 1116.5,-6"/>
<text text-anchor="middle" x="1138.5" y="-13" font-family="Helvetica,sans-Serif" font-size="10.00">string</text>
</a>
</g>
</g>
<!-- Node18&#45;&gt;Node21 -->
<g id="edge26" class="edge">
<title>Node18&#45;&gt;Node21</title>
<path fill="none" stroke="midnightblue" d="M711.73,-68.27C715.03,-67.82 718.31,-67.39 721.5,-67 892.52,-46 941.23,-76.17 1107.5,-31 1109.44,-30.47 1111.4,-29.84 1113.35,-29.12"/>
<polygon fill="midnightblue" stroke="midnightblue" points="1114.97,-32.24 1122.81,-25.12 1112.24,-25.79 1114.97,-32.24"/>
</g>
<!-- Node22 -->
<g id="node22" class="node">
<title>Node22</title>
<g id="a_node22"><a xlink:title=" ">
<polygon fill="white" stroke="#bfbfbf" points="1178.5,-6 1178.5,-25 1270.5,-25 1270.5,-6 1178.5,-6"/>
<text text-anchor="middle" x="1224.5" y="-13" font-family="Helvetica,sans-Serif" font-size="10.00">xtensor/xio.hpp</text>
</a>
</g>
</g>
<!-- Node18&#45;&gt;Node22 -->
<g id="edge28" class="edge">
<title>Node18&#45;&gt;Node22</title>
<path fill="none" stroke="midnightblue" d="M711.72,-68.22C715.03,-67.78 718.31,-67.37 721.5,-67 919.92,-43.92 972.59,-64.59 1169.5,-31 1174.91,-30.08 1180.57,-28.87 1186.11,-27.55"/>
<polygon fill="midnightblue" stroke="midnightblue" points="1187.05,-30.92 1195.88,-25.07 1185.33,-24.13 1187.05,-30.92"/>
</g>
</g>
</svg>
