<?xml version="1.0" encoding="UTF-8" standalone="no"?>
<!DOCTYPE svg PUBLIC "-//W3C//DTD SVG 1.1//EN"
 "http://www.w3.org/Graphics/SVG/1.1/DTD/svg11.dtd">
<!-- Generated by graphviz version 2.40.1 (20161225.0304)
 -->
<!-- Title: RANS3PF2D.h Pages: 1 -->
<svg width="991pt" height="151pt"
 viewBox="0.00 0.00 991.00 151.00" xmlns="http://www.w3.org/2000/svg" xmlns:xlink="http://www.w3.org/1999/xlink">
<g id="graph0" class="graph" transform="scale(1 1) rotate(0) translate(4 147)">
<title>RANS3PF2D.h</title>
<polygon fill="#ffffff" stroke="transparent" points="-4,4 -4,-147 987,-147 987,4 -4,4"/>
<!-- Node0 -->
<g id="node1" class="node">
<title>Node0</title>
<polygon fill="#bfbfbf" stroke="#000000" points="390.5,-123.5 390.5,-142.5 474.5,-142.5 474.5,-123.5 390.5,-123.5"/>
<text text-anchor="middle" x="432.5" y="-130.5" font-family="Helvetica,sans-Serif" font-size="10.00" fill="#000000">RANS3PF2D.h</text>
</g>
<!-- Node1 -->
<g id="node2" class="node">
<title>Node1</title>
<polygon fill="#ffffff" stroke="#bfbfbf" points="84.5,-6 84.5,-25 128.5,-25 128.5,-6 84.5,-6"/>
<text text-anchor="middle" x="106.5" y="-13" font-family="Helvetica,sans-Serif" font-size="10.00" fill="#000000">cmath</text>
</g>
<!-- Node0&#45;&gt;Node1 -->
<g id="edge1" class="edge">
<title>Node0&#45;&gt;Node1</title>
<path fill="none" stroke="#191970" d="M390.4793,-132.1699C315.9649,-129.8328 164.8976,-120.9246 126.5,-87 111.9019,-74.1025 107.5694,-51.5154 106.4696,-35.1736"/>
<polygon fill="#191970" stroke="#191970" points="109.9637,-34.9337 106.1383,-25.0536 102.9675,-35.1628 109.9637,-34.9337"/>
</g>
<!-- Node2 -->
<g id="node3" class="node">
<title>Node2</title>
<polygon fill="#ffffff" stroke="#bfbfbf" points="622,-67.5 622,-86.5 673,-86.5 673,-67.5 622,-67.5"/>
<text text-anchor="middle" x="647.5" y="-74.5" font-family="Helvetica,sans-Serif" font-size="10.00" fill="#000000">valarray</text>
</g>
<!-- Node0&#45;&gt;Node2 -->
<g id="edge2" class="edge">
<title>Node0&#45;&gt;Node2</title>
<path fill="none" stroke="#191970" d="M471.2061,-123.4424C505.6459,-114.8638 557.6248,-101.7349 612.0772,-87.0607"/>
<polygon fill="#191970" stroke="#191970" points="613.1696,-90.3911 621.9089,-84.4014 611.3419,-83.6339 613.1696,-90.3911"/>
</g>
<!-- Node3 -->
<g id="node4" class="node">
<title>Node3</title>
<polygon fill="#ffffff" stroke="#bfbfbf" points="146.5,-6 146.5,-25 200.5,-25 200.5,-6 146.5,-6"/>
<text text-anchor="middle" x="173.5" y="-13" font-family="Helvetica,sans-Serif" font-size="10.00" fill="#000000">iostream</text>
</g>
<!-- Node0&#45;&gt;Node3 -->
<g id="edge3" class="edge">
<title>Node0&#45;&gt;Node3</title>
<path fill="none" stroke="#191970" d="M390.1914,-127.1672C353.7381,-120.919 300.5125,-108.8135 258.5,-87 231.4382,-72.9491 205.3778,-48.9771 189.4064,-32.7008"/>
<polygon fill="#191970" stroke="#191970" points="191.862,-30.2046 182.4161,-25.406 186.8078,-35.0477 191.862,-30.2046"/>
</g>
<!-- Node4 -->
<g id="node5" class="node">
<title>Node4</title>
<polygon fill="#ffffff" stroke="#bfbfbf" points="691.5,-67.5 691.5,-86.5 735.5,-86.5 735.5,-67.5 691.5,-67.5"/>
<text text-anchor="middle" x="713.5" y="-74.5" font-family="Helvetica,sans-Serif" font-size="10.00" fill="#000000">vector</text>
</g>
<!-- Node0&#45;&gt;Node4 -->
<g id="edge4" class="edge">
<title>Node0&#45;&gt;Node4</title>
<path fill="none" stroke="#191970" d="M474.8828,-126.9238C522.8504,-119.6676 603.4421,-106.3331 681.28,-87.065"/>
<polygon fill="#191970" stroke="#191970" points="682.4038,-90.3915 691.2495,-84.5601 680.698,-83.6025 682.4038,-90.3915"/>
</g>
<!-- Node5 -->
<g id="node6" class="node">
<title>Node5</title>
<polygon fill="#ffffff" stroke="#bfbfbf" points="753.5,-67.5 753.5,-86.5 783.5,-86.5 783.5,-67.5 753.5,-67.5"/>
<text text-anchor="middle" x="768.5" y="-74.5" font-family="Helvetica,sans-Serif" font-size="10.00" fill="#000000">set</text>
</g>
<!-- Node0&#45;&gt;Node5 -->
<g id="edge5" class="edge">
<title>Node0&#45;&gt;Node5</title>
<path fill="none" stroke="#191970" d="M474.5675,-130.1287C533.256,-125.4012 642.9307,-113.943 743.7399,-86.6243"/>
<polygon fill="#191970" stroke="#191970" points="744.7628,-89.9728 753.4659,-83.9307 742.8945,-83.2267 744.7628,-89.9728"/>
</g>
<!-- Node6 -->
<g id="node7" class="node">
<title>Node6</title>
<polygon fill="#ffffff" stroke="#bfbfbf" points="801.5,-67.5 801.5,-86.5 847.5,-86.5 847.5,-67.5 801.5,-67.5"/>
<text text-anchor="middle" x="824.5" y="-74.5" font-family="Helvetica,sans-Serif" font-size="10.00" fill="#000000">cstring</text>
</g>
<!-- Node0&#45;&gt;Node6 -->
<g id="edge6" class="edge">
<title>Node0&#45;&gt;Node6</title>
<path fill="none" stroke="#191970" d="M474.7572,-130.0216C540.5898,-124.8563 671.6591,-112.4688 791.1593,-86.9794"/>
<polygon fill="#191970" stroke="#191970" points="792.1783,-90.3399 801.2085,-84.7985 790.6936,-83.4991 792.1783,-90.3399"/>
</g>
<!-- Node7 -->
<g id="node8" class="node">
<title>Node7</title>
<g id="a_node8"><a xlink:href="_comp_kernel_8h.html" target="_top" xlink:title="CompKernel.h">
<polygon fill="#ffffff" stroke="#000000" points="0,-67.5 0,-86.5 79,-86.5 79,-67.5 0,-67.5"/>
<text text-anchor="middle" x="39.5" y="-74.5" font-family="Helvetica,sans-Serif" font-size="10.00" fill="#000000">CompKernel.h</text>
</a>
</g>
</g>
<!-- Node0&#45;&gt;Node7 -->
<g id="edge7" class="edge">
<title>Node0&#45;&gt;Node7</title>
<path fill="none" stroke="#191970" d="M390.3886,-127.9488C326.1995,-120.0998 200.0863,-104.0904 93.5,-87 92.2026,-86.792 90.8884,-86.5774 89.563,-86.3575"/>
<polygon fill="#191970" stroke="#191970" points="89.7223,-82.8337 79.2741,-84.5903 88.5373,-89.7327 89.7223,-82.8337"/>
</g>
<!-- Node8 -->
<g id="node9" class="node">
<title>Node8</title>
<g id="a_node9"><a xlink:href="_model_factory_8h.html" target="_top" xlink:title="ModelFactory.h">
<polygon fill="#ffffff" stroke="#000000" points="267.5,-67.5 267.5,-86.5 351.5,-86.5 351.5,-67.5 267.5,-67.5"/>
<text text-anchor="middle" x="309.5" y="-74.5" font-family="Helvetica,sans-Serif" font-size="10.00" fill="#000000">ModelFactory.h</text>
</a>
</g>
</g>
<!-- Node0&#45;&gt;Node8 -->
<g id="edge9" class="edge">
<title>Node0&#45;&gt;Node8</title>
<path fill="none" stroke="#191970" d="M411.3555,-123.3733C391.6108,-114.3838 361.9302,-100.8706 339.6945,-90.7471"/>
<polygon fill="#191970" stroke="#191970" points="340.92,-87.4594 330.3685,-86.5011 338.0194,-93.8302 340.92,-87.4594"/>
</g>
<!-- Node9 -->
<g id="node10" class="node">
<title>Node9</title>
<g id="a_node10"><a xlink:href="_sed_closure_8h.html" target="_top" xlink:title="SedClosure.h">
<polygon fill="#ffffff" stroke="#000000" points="135.5,-67.5 135.5,-86.5 211.5,-86.5 211.5,-67.5 135.5,-67.5"/>
<text text-anchor="middle" x="173.5" y="-74.5" font-family="Helvetica,sans-Serif" font-size="10.00" fill="#000000">SedClosure.h</text>
</a>
</g>
</g>
<!-- Node0&#45;&gt;Node9 -->
<g id="edge11" class="edge">
<title>Node0&#45;&gt;Node9</title>
<path fill="none" stroke="#191970" d="M390.3107,-123.878C344.142,-113.8956 270.2596,-97.921 221.8028,-87.4438"/>
<polygon fill="#191970" stroke="#191970" points="222.3815,-83.9882 211.8677,-85.2957 220.9021,-90.8301 222.3815,-83.9882"/>
</g>
<!-- Node11 -->
<g id="node12" class="node">
<title>Node11</title>
<g id="a_node12"><a xlink:href="equivalent__polynomials_8h.html" target="_top" xlink:title="equivalent_polynomials.h">
<polygon fill="#ffffff" stroke="#000000" points="369.5,-67.5 369.5,-86.5 495.5,-86.5 495.5,-67.5 369.5,-67.5"/>
<text text-anchor="middle" x="432.5" y="-74.5" font-family="Helvetica,sans-Serif" font-size="10.00" fill="#000000">equivalent_polynomials.h</text>
</a>
</g>
</g>
<!-- Node0&#45;&gt;Node11 -->
<g id="edge15" class="edge">
<title>Node0&#45;&gt;Node11</title>
<path fill="none" stroke="#191970" d="M432.5,-123.2455C432.5,-115.9382 432.5,-105.6944 432.5,-96.7046"/>
<polygon fill="#191970" stroke="#191970" points="436.0001,-96.6426 432.5,-86.6427 429.0001,-96.6427 436.0001,-96.6426"/>
</g>
<!-- Node15 -->
<g id="node16" class="node">
<title>Node15</title>
<g id="a_node16"><a xlink:href="_arguments_dict_8h.html" target="_top" xlink:title="ArgumentsDict.h">
<polygon fill="#ffffff" stroke="#000000" points="513.5,-67.5 513.5,-86.5 603.5,-86.5 603.5,-67.5 513.5,-67.5"/>
<text text-anchor="middle" x="558.5" y="-74.5" font-family="Helvetica,sans-Serif" font-size="10.00" fill="#000000">ArgumentsDict.h</text>
</a>
</g>
</g>
<!-- Node0&#45;&gt;Node15 -->
<g id="edge21" class="edge">
<title>Node0&#45;&gt;Node15</title>
<path fill="none" stroke="#191970" d="M454.1602,-123.3733C474.4772,-114.3435 505.064,-100.7494 527.875,-90.6111"/>
<polygon fill="#191970" stroke="#191970" points="529.4059,-93.7609 537.1225,-86.5011 526.5628,-87.3642 529.4059,-93.7609"/>
</g>
<!-- Node7&#45;&gt;Node1 -->
<g id="edge8" class="edge">
<title>Node7&#45;&gt;Node1</title>
<path fill="none" stroke="#191970" d="M49.9688,-67.3906C60.2337,-57.9683 76.0903,-43.4134 88.4006,-32.1137"/>
<polygon fill="#191970" stroke="#191970" points="90.8834,-34.5856 95.8837,-25.2449 86.1499,-29.4287 90.8834,-34.5856"/>
</g>
<!-- Node8&#45;&gt;Node3 -->
<g id="edge10" class="edge">
<title>Node8&#45;&gt;Node3</title>
<path fill="none" stroke="#191970" d="M288.25,-67.3906C265.5945,-57.1457 229.5202,-40.8326 203.8709,-29.2339"/>
<polygon fill="#191970" stroke="#191970" points="205.1546,-25.9732 194.6008,-25.0419 202.2703,-32.3514 205.1546,-25.9732"/>
</g>
<!-- Node9&#45;&gt;Node1 -->
<g id="edge12" class="edge">
<title>Node9&#45;&gt;Node1</title>
<path fill="none" stroke="#191970" d="M163.0313,-67.3906C152.7663,-57.9683 136.9097,-43.4134 124.5994,-32.1137"/>
<polygon fill="#191970" stroke="#191970" points="126.8501,-29.4287 117.1163,-25.2449 122.1166,-34.5856 126.8501,-29.4287"/>
</g>
<!-- Node9&#45;&gt;Node3 -->
<g id="edge13" class="edge">
<title>Node9&#45;&gt;Node3</title>
<path fill="none" stroke="#191970" d="M173.5,-67.3906C173.5,-58.8657 173.5,-46.1392 173.5,-35.4235"/>
<polygon fill="#191970" stroke="#191970" points="177.0001,-35.2448 173.5,-25.2449 170.0001,-35.2449 177.0001,-35.2448"/>
</g>
<!-- Node10 -->
<g id="node11" class="node">
<title>Node10</title>
<polygon fill="#ffffff" stroke="#bfbfbf" points="491,-6 491,-25 626,-25 626,-6 491,-6"/>
<text text-anchor="middle" x="558.5" y="-13" font-family="Helvetica,sans-Serif" font-size="10.00" fill="#000000">xtensor&#45;python/pyarray.hpp</text>
</g>
<!-- Node9&#45;&gt;Node10 -->
<g id="edge14" class="edge">
<title>Node9&#45;&gt;Node10</title>
<path fill="none" stroke="#191970" d="M211.5327,-71.9481C269.7936,-64.0675 384.5776,-47.9818 481.5,-31 488.518,-29.7704 495.8789,-28.397 503.1503,-26.9898"/>
<polygon fill="#191970" stroke="#191970" points="503.8323,-30.4228 512.9698,-25.0602 502.4825,-23.5541 503.8323,-30.4228"/>
</g>
<!-- Node11&#45;&gt;Node1 -->
<g id="edge16" class="edge">
<title>Node11&#45;&gt;Node1</title>
<path fill="none" stroke="#191970" d="M369.4199,-68.2194C289.3952,-56.9164 159.1331,-37.9098 137.5,-31 135.8449,-30.4713 134.1688,-29.8648 132.4975,-29.2045"/>
<polygon fill="#191970" stroke="#191970" points="133.7129,-25.9136 123.157,-25.006 130.8429,-32.2982 133.7129,-25.9136"/>
</g>
<!-- Node11&#45;&gt;Node3 -->
<g id="edge18" class="edge">
<title>Node11&#45;&gt;Node3</title>
<path fill="none" stroke="#191970" d="M369.1496,-67.4615C324.0326,-59.8181 262.2884,-47.6188 209.5,-31 207.3905,-30.3359 205.2365,-29.5906 203.0831,-28.7954"/>
<polygon fill="#191970" stroke="#191970" points="204.3727,-25.5417 193.7876,-25.0871 201.7788,-32.0434 204.3727,-25.5417"/>
</g>
<!-- Node12 -->
<g id="node13" class="node">
<title>Node12</title>
<polygon fill="#ffffff" stroke="#bfbfbf" points="644,-6 644,-25 693,-25 693,-6 644,-6"/>
<text text-anchor="middle" x="668.5" y="-13" font-family="Helvetica,sans-Serif" font-size="10.00" fill="#000000">cassert</text>
</g>
<!-- Node11&#45;&gt;Node12 -->
<g id="edge17" class="edge">
<title>Node11&#45;&gt;Node12</title>
<path fill="none" stroke="#191970" d="M489.8571,-67.4339C531.0267,-59.7436 587.4837,-47.4991 635.5,-31 637.1462,-30.4343 638.8195,-29.8114 640.4951,-29.1499"/>
<polygon fill="#191970" stroke="#191970" points="642.1499,-32.2478 649.9443,-25.0717 639.376,-25.8209 642.1499,-32.2478"/>
</g>
<!-- Node13 -->
<g id="node14" class="node">
<title>Node13</title>
<g id="a_node14"><a xlink:href="equivalent__polynomials__coefficients_8h.html" target="_top" xlink:title="equivalent_polynomials\l_coefficients.h">
<polygon fill="#ffffff" stroke="#000000" points="218.5,-.5 218.5,-30.5 336.5,-30.5 336.5,-.5 218.5,-.5"/>
<text text-anchor="start" x="226.5" y="-18.5" font-family="Helvetica,sans-Serif" font-size="10.00" fill="#000000">equivalent_polynomials</text>
<text text-anchor="middle" x="277.5" y="-7.5" font-family="Helvetica,sans-Serif" font-size="10.00" fill="#000000">_coefficients.h</text>
</a>
</g>
</g>
<!-- Node11&#45;&gt;Node13 -->
<g id="edge19" class="edge">
<title>Node11&#45;&gt;Node13</title>
<path fill="none" stroke="#191970" d="M408.2813,-67.3906C386.0414,-58.5664 352.4555,-45.2404 324.8886,-34.3026"/>
<polygon fill="#191970" stroke="#191970" points="326.0032,-30.9794 315.4173,-30.5446 323.4215,-37.486 326.0032,-30.9794"/>
</g>
<!-- Node14 -->
<g id="node15" class="node">
<title>Node14</title>
<g id="a_node15"><a xlink:href="equivalent__polynomials__utils_8h.html" target="_top" xlink:title="equivalent_polynomials\l_utils.h">
<polygon fill="#ffffff" stroke="#000000" points="354.5,-.5 354.5,-30.5 472.5,-30.5 472.5,-.5 354.5,-.5"/>
<text text-anchor="start" x="362.5" y="-18.5" font-family="Helvetica,sans-Serif" font-size="10.00" fill="#000000">equivalent_polynomials</text>
<text text-anchor="middle" x="413.5" y="-7.5" font-family="Helvetica,sans-Serif" font-size="10.00" fill="#000000">_utils.h</text>
</a>
</g>
</g>
<!-- Node11&#45;&gt;Node14 -->
<g id="edge20" class="edge">
<title>Node11&#45;&gt;Node14</title>
<path fill="none" stroke="#191970" d="M429.5313,-67.3906C427.2932,-60.1463 424.1177,-49.8679 421.1827,-40.3676"/>
<polygon fill="#191970" stroke="#191970" points="424.4438,-39.0659 418.1479,-30.5446 417.7557,-41.1322 424.4438,-39.0659"/>
</g>
<!-- Node15&#45;&gt;Node10 -->
<g id="edge25" class="edge">
<title>Node15&#45;&gt;Node10</title>
<path fill="none" stroke="#191970" d="M558.5,-67.3906C558.5,-58.8657 558.5,-46.1392 558.5,-35.4235"/>
<polygon fill="#191970" stroke="#191970" points="562.0001,-35.2448 558.5,-25.2449 555.0001,-35.2449 562.0001,-35.2448"/>
</g>
<!-- Node16 -->
<g id="node17" class="node">
<title>Node16</title>
<polygon fill="#ffffff" stroke="#bfbfbf" points="871,-6 871,-25 906,-25 906,-6 871,-6"/>
<text text-anchor="middle" x="888.5" y="-13" font-family="Helvetica,sans-Serif" font-size="10.00" fill="#000000">map</text>
</g>
<!-- Node15&#45;&gt;Node16 -->
<g id="edge22" class="edge">
<title>Node15&#45;&gt;Node16</title>
<path fill="none" stroke="#191970" d="M603.7983,-68.6296C607.0792,-68.0646 610.3391,-67.5157 613.5,-67 723.8583,-48.9958 757.1055,-68.3513 862.5,-31 863.5402,-30.6314 864.5847,-30.2189 865.6258,-29.7723"/>
<polygon fill="#191970" stroke="#191970" points="867.4142,-32.788 874.6956,-25.0918 864.204,-26.5675 867.4142,-32.788"/>
</g>
<!-- Node17 -->
<g id="node18" class="node">
<title>Node17</title>
<polygon fill="#ffffff" stroke="#bfbfbf" points="924,-6 924,-25 983,-25 983,-6 924,-6"/>
<text text-anchor="middle" x="953.5" y="-13" font-family="Helvetica,sans-Serif" font-size="10.00" fill="#000000">stdexcept</text>
</g>
<!-- Node15&#45;&gt;Node17 -->
<g id="edge23" class="edge">
<title>Node15&#45;&gt;Node17</title>
<path fill="none" stroke="#191970" d="M603.7842,-68.5398C607.0684,-67.9958 610.3329,-67.4762 613.5,-67 747.1698,-46.9004 784.6296,-64.831 915.5,-31 918.1256,-30.3213 920.8105,-29.5017 923.479,-28.5982"/>
<polygon fill="#191970" stroke="#191970" points="924.7965,-31.8423 932.9361,-25.0602 922.3437,-25.2861 924.7965,-31.8423"/>
</g>
<!-- Node18 -->
<g id="node19" class="node">
<title>Node18</title>
<polygon fill="#ffffff" stroke="#bfbfbf" points="711,-6 711,-25 752,-25 752,-6 711,-6"/>
<text text-anchor="middle" x="731.5" y="-13" font-family="Helvetica,sans-Serif" font-size="10.00" fill="#000000">string</text>
</g>
<!-- Node15&#45;&gt;Node18 -->
<g id="edge24" class="edge">
<title>Node15&#45;&gt;Node18</title>
<path fill="none" stroke="#191970" d="M594.6605,-67.4234C624.1856,-59.1377 666.7246,-46.1267 702.5,-31 703.5253,-30.5665 704.5627,-30.1091 705.6044,-29.6339"/>
<polygon fill="#191970" stroke="#191970" points="707.472,-32.615 714.8844,-25.0449 704.3691,-26.3402 707.472,-32.615"/>
</g>
<!-- Node19 -->
<g id="node20" class="node">
<title>Node19</title>
<polygon fill="#ffffff" stroke="#bfbfbf" points="770,-6 770,-25 853,-25 853,-6 770,-6"/>
<text text-anchor="middle" x="811.5" y="-13" font-family="Helvetica,sans-Serif" font-size="10.00" fill="#000000">xtensor/xio.hpp</text>
</g>
<!-- Node15&#45;&gt;Node19 -->
<g id="edge26" class="edge">
<title>Node15&#45;&gt;Node19</title>
<path fill="none" stroke="#191970" d="M603.8982,-67.7691C645.2027,-59.1207 707.7448,-45.3992 761.5,-31 765.0444,-30.0506 768.7144,-29.0151 772.3824,-27.9443"/>
<polygon fill="#191970" stroke="#191970" points="773.4247,-31.2858 781.9989,-25.0623 771.4151,-24.5805 773.4247,-31.2858"/>
</g>
</g>
</svg>
