<?xml version="1.0" encoding="UTF-8" standalone="no"?>
<!DOCTYPE svg PUBLIC "-//W3C//DTD SVG 1.1//EN"
 "http://www.w3.org/Graphics/SVG/1.1/DTD/svg11.dtd">
<!-- Generated by graphviz version 2.44.1 (20200629.0846)
 -->
<!-- Title: RANS2P2D.h Pages: 1 -->
<svg width="802pt" height="151pt"
 viewBox="0.00 0.00 802.00 151.00" xmlns="http://www.w3.org/2000/svg" xmlns:xlink="http://www.w3.org/1999/xlink">
<g id="graph0" class="graph" transform="scale(1 1) rotate(0) translate(4 147)">
<title>RANS2P2D.h</title>
<polygon fill="white" stroke="transparent" points="-4,4 -4,-147 798,-147 798,4 -4,4"/>
<!-- Node1 -->
<g id="node1" class="node">
<title>Node1</title>
<g id="a_node1"><a xlink:title=" ">
<polygon fill="#bfbfbf" stroke="black" points="293,-123.5 293,-142.5 371,-142.5 371,-123.5 293,-123.5"/>
<text text-anchor="middle" x="332" y="-130.5" font-family="Helvetica,sans-Serif" font-size="10.00">RANS2P2D.h</text>
</a>
</g>
</g>
<!-- Node2 -->
<g id="node2" class="node">
<title>Node2</title>
<g id="a_node2"><a xlink:title=" ">
<polygon fill="white" stroke="#bfbfbf" points="0,-6 0,-25 44,-25 44,-6 0,-6"/>
<text text-anchor="middle" x="22" y="-13" font-family="Helvetica,sans-Serif" font-size="10.00">cmath</text>
</a>
</g>
</g>
<!-- Node1&#45;&gt;Node2 -->
<g id="edge1" class="edge">
<title>Node1&#45;&gt;Node2</title>
<path fill="none" stroke="midnightblue" d="M292.87,-131.86C219.54,-130.71 65.58,-123.85 30,-87 17.06,-73.59 16.62,-51.41 18.42,-35.51"/>
<polygon fill="midnightblue" stroke="midnightblue" points="21.94,-35.67 19.99,-25.25 15.02,-34.61 21.94,-35.67"/>
</g>
<!-- Node3 -->
<g id="node3" class="node">
<title>Node3</title>
<g id="a_node3"><a xlink:title=" ">
<polygon fill="white" stroke="#bfbfbf" points="402,-6 402,-25 456,-25 456,-6 402,-6"/>
<text text-anchor="middle" x="429" y="-13" font-family="Helvetica,sans-Serif" font-size="10.00">iostream</text>
</a>
</g>
</g>
<!-- Node1&#45;&gt;Node3 -->
<g id="edge2" class="edge">
<title>Node1&#45;&gt;Node3</title>
<path fill="none" stroke="midnightblue" d="M324.55,-123.38C314.2,-110.31 298.03,-85.08 310,-67 311.32,-65 363.93,-43.16 398.75,-28.86"/>
<polygon fill="midnightblue" stroke="midnightblue" points="400.12,-32.08 408.04,-25.05 397.46,-25.61 400.12,-32.08"/>
</g>
<!-- Node4 -->
<g id="node4" class="node">
<title>Node4</title>
<g id="a_node4"><a xlink:title=" ">
<polygon fill="white" stroke="#bfbfbf" points="446.5,-67.5 446.5,-86.5 497.5,-86.5 497.5,-67.5 446.5,-67.5"/>
<text text-anchor="middle" x="472" y="-74.5" font-family="Helvetica,sans-Serif" font-size="10.00">valarray</text>
</a>
</g>
</g>
<!-- Node1&#45;&gt;Node4 -->
<g id="edge3" class="edge">
<title>Node1&#45;&gt;Node4</title>
<path fill="none" stroke="midnightblue" d="M354.18,-123.44C377.43,-114.48 414.15,-100.31 440.42,-90.18"/>
<polygon fill="midnightblue" stroke="midnightblue" points="441.85,-93.38 449.92,-86.52 439.33,-86.85 441.85,-93.38"/>
</g>
<!-- Node5 -->
<g id="node5" class="node">
<title>Node5</title>
<g id="a_node5"><a xlink:href="_comp_kernel_8h.html" target="_top" xlink:title=" ">
<polygon fill="white" stroke="black" points="39.5,-67.5 39.5,-86.5 118.5,-86.5 118.5,-67.5 39.5,-67.5"/>
<text text-anchor="middle" x="79" y="-74.5" font-family="Helvetica,sans-Serif" font-size="10.00">CompKernel.h</text>
</a>
</g>
</g>
<!-- Node1&#45;&gt;Node5 -->
<g id="edge4" class="edge">
<title>Node1&#45;&gt;Node5</title>
<path fill="none" stroke="midnightblue" d="M292.75,-123.62C248.56,-114.19 176.68,-98.85 128.64,-88.59"/>
<polygon fill="midnightblue" stroke="midnightblue" points="129.27,-85.15 118.76,-86.49 127.81,-92 129.27,-85.15"/>
</g>
<!-- Node6 -->
<g id="node6" class="node">
<title>Node6</title>
<g id="a_node6"><a xlink:href="_mixed_model_factory_8h.html" target="_top" xlink:title=" ">
<polygon fill="white" stroke="black" points="319.5,-67.5 319.5,-86.5 428.5,-86.5 428.5,-67.5 319.5,-67.5"/>
<text text-anchor="middle" x="374" y="-74.5" font-family="Helvetica,sans-Serif" font-size="10.00">MixedModelFactory.h</text>
</a>
</g>
</g>
<!-- Node1&#45;&gt;Node6 -->
<g id="edge6" class="edge">
<title>Node1&#45;&gt;Node6</title>
<path fill="none" stroke="midnightblue" d="M338.94,-123.08C344.93,-115.38 353.75,-104.03 361.05,-94.65"/>
<polygon fill="midnightblue" stroke="midnightblue" points="363.82,-96.79 367.19,-86.75 358.29,-92.5 363.82,-96.79"/>
</g>
<!-- Node7 -->
<g id="node7" class="node">
<title>Node7</title>
<g id="a_node7"><a xlink:href="_py_embedded_functions_8h.html" target="_top" xlink:title=" ">
<polygon fill="white" stroke="black" points="516,-67.5 516,-86.5 642,-86.5 642,-67.5 516,-67.5"/>
<text text-anchor="middle" x="579" y="-74.5" font-family="Helvetica,sans-Serif" font-size="10.00">PyEmbeddedFunctions.h</text>
</a>
</g>
</g>
<!-- Node1&#45;&gt;Node7 -->
<g id="edge8" class="edge">
<title>Node1&#45;&gt;Node7</title>
<path fill="none" stroke="midnightblue" d="M371.14,-123.44C414.23,-114.02 483.56,-98.87 530.17,-88.68"/>
<polygon fill="midnightblue" stroke="midnightblue" points="531.02,-92.07 540.05,-86.52 529.53,-85.23 531.02,-92.07"/>
</g>
<!-- Node9 -->
<g id="node9" class="node">
<title>Node9</title>
<g id="a_node9"><a xlink:href="equivalent__polynomials_8h.html" target="_top" xlink:title=" ">
<polygon fill="white" stroke="black" points="137,-67.5 137,-86.5 263,-86.5 263,-67.5 137,-67.5"/>
<text text-anchor="middle" x="200" y="-74.5" font-family="Helvetica,sans-Serif" font-size="10.00">equivalent_polynomials.h</text>
</a>
</g>
</g>
<!-- Node1&#45;&gt;Node9 -->
<g id="edge10" class="edge">
<title>Node1&#45;&gt;Node9</title>
<path fill="none" stroke="midnightblue" d="M311.08,-123.44C289.26,-114.52 254.85,-100.44 230.11,-90.32"/>
<polygon fill="midnightblue" stroke="midnightblue" points="231.4,-87.06 220.82,-86.52 228.75,-93.54 231.4,-87.06"/>
</g>
<!-- Node13 -->
<g id="node13" class="node">
<title>Node13</title>
<g id="a_node13"><a xlink:title=" ">
<polygon fill="white" stroke="#bfbfbf" points="660,-67.5 660,-86.5 794,-86.5 794,-67.5 660,-67.5"/>
<text text-anchor="middle" x="727" y="-74.5" font-family="Helvetica,sans-Serif" font-size="10.00">xtensor&#45;python/pyarray.hpp</text>
</a>
</g>
</g>
<!-- Node1&#45;&gt;Node13 -->
<g id="edge15" class="edge">
<title>Node1&#45;&gt;Node13</title>
<path fill="none" stroke="midnightblue" d="M371.32,-126.62C437.26,-117.61 571.08,-99.32 654.47,-87.92"/>
<polygon fill="midnightblue" stroke="midnightblue" points="655.2,-91.35 664.63,-86.53 654.25,-84.41 655.2,-91.35"/>
</g>
<!-- Node5&#45;&gt;Node2 -->
<g id="edge5" class="edge">
<title>Node5&#45;&gt;Node2</title>
<path fill="none" stroke="midnightblue" d="M70.83,-67.48C62.11,-58.37 48.1,-43.74 37.31,-32.48"/>
<polygon fill="midnightblue" stroke="midnightblue" points="39.6,-29.81 30.15,-25.01 34.54,-34.65 39.6,-29.81"/>
</g>
<!-- Node6&#45;&gt;Node3 -->
<g id="edge7" class="edge">
<title>Node6&#45;&gt;Node3</title>
<path fill="none" stroke="midnightblue" d="M381.88,-67.48C390.29,-58.37 403.82,-43.74 414.23,-32.48"/>
<polygon fill="midnightblue" stroke="midnightblue" points="416.92,-34.73 421.13,-25.01 411.78,-29.98 416.92,-34.73"/>
</g>
<!-- Node8 -->
<g id="node8" class="node">
<title>Node8</title>
<g id="a_node8"><a xlink:title=" ">
<polygon fill="white" stroke="#bfbfbf" points="551,-6 551,-25 607,-25 607,-6 551,-6"/>
<text text-anchor="middle" x="579" y="-13" font-family="Helvetica,sans-Serif" font-size="10.00">Python.h</text>
</a>
</g>
</g>
<!-- Node7&#45;&gt;Node8 -->
<g id="edge9" class="edge">
<title>Node7&#45;&gt;Node8</title>
<path fill="none" stroke="midnightblue" d="M579,-67.48C579,-59.08 579,-45.98 579,-35.16"/>
<polygon fill="midnightblue" stroke="midnightblue" points="582.5,-35.01 579,-25.01 575.5,-35.01 582.5,-35.01"/>
</g>
<!-- Node9&#45;&gt;Node2 -->
<g id="edge11" class="edge">
<title>Node9&#45;&gt;Node2</title>
<path fill="none" stroke="midnightblue" d="M167.44,-67.45C137.35,-59.22 91.61,-45.86 53,-31 51.58,-30.45 50.13,-29.87 48.68,-29.26"/>
<polygon fill="midnightblue" stroke="midnightblue" points="49.75,-25.91 39.19,-25.07 46.92,-32.31 49.75,-25.91"/>
</g>
<!-- Node10 -->
<g id="node10" class="node">
<title>Node10</title>
<g id="a_node10"><a xlink:title=" ">
<polygon fill="white" stroke="#bfbfbf" points="62.5,-6 62.5,-25 111.5,-25 111.5,-6 62.5,-6"/>
<text text-anchor="middle" x="87" y="-13" font-family="Helvetica,sans-Serif" font-size="10.00">cassert</text>
</a>
</g>
</g>
<!-- Node9&#45;&gt;Node10 -->
<g id="edge12" class="edge">
<title>Node9&#45;&gt;Node10</title>
<path fill="none" stroke="midnightblue" d="M183.81,-67.48C165.1,-57.62 134.08,-41.29 112.2,-29.77"/>
<polygon fill="midnightblue" stroke="midnightblue" points="113.64,-26.57 103.16,-25.01 110.38,-32.77 113.64,-26.57"/>
</g>
<!-- Node11 -->
<g id="node11" class="node">
<title>Node11</title>
<g id="a_node11"><a xlink:href="equivalent__polynomials__coefficients_8h.html" target="_top" xlink:title=" ">
<polygon fill="white" stroke="black" points="130,-0.5 130,-30.5 248,-30.5 248,-0.5 130,-0.5"/>
<text text-anchor="start" x="138" y="-18.5" font-family="Helvetica,sans-Serif" font-size="10.00">equivalent_polynomials</text>
<text text-anchor="middle" x="189" y="-7.5" font-family="Helvetica,sans-Serif" font-size="10.00">_coefficients.h</text>
</a>
</g>
</g>
<!-- Node9&#45;&gt;Node11 -->
<g id="edge13" class="edge">
<title>Node9&#45;&gt;Node11</title>
<path fill="none" stroke="midnightblue" d="M198.42,-67.48C197.12,-60.4 195.19,-49.97 193.42,-40.39"/>
<polygon fill="midnightblue" stroke="midnightblue" points="196.85,-39.72 191.59,-30.52 189.97,-40.99 196.85,-39.72"/>
</g>
<!-- Node12 -->
<g id="node12" class="node">
<title>Node12</title>
<g id="a_node12"><a xlink:href="equivalent__polynomials__utils_8h.html" target="_top" xlink:title=" ">
<polygon fill="white" stroke="black" points="266,-0.5 266,-30.5 384,-30.5 384,-0.5 266,-0.5"/>
<text text-anchor="start" x="274" y="-18.5" font-family="Helvetica,sans-Serif" font-size="10.00">equivalent_polynomials</text>
<text text-anchor="middle" x="325" y="-7.5" font-family="Helvetica,sans-Serif" font-size="10.00">_utils.h</text>
</a>
</g>
</g>
<!-- Node9&#45;&gt;Node12 -->
<g id="edge14" class="edge">
<title>Node9&#45;&gt;Node12</title>
<path fill="none" stroke="midnightblue" d="M217.91,-67.48C235.71,-59 263.58,-45.74 286.42,-34.86"/>
<polygon fill="midnightblue" stroke="midnightblue" points="288.01,-37.98 295.54,-30.52 285.01,-31.66 288.01,-37.98"/>
</g>
</g>
</svg>
