<?xml version="1.0" encoding="UTF-8" standalone="no"?>
<!DOCTYPE svg PUBLIC "-//W3C//DTD SVG 1.1//EN"
 "http://www.w3.org/Graphics/SVG/1.1/DTD/svg11.dtd">
<!-- Generated by graphviz version 2.43.0 (0)
 -->
<!-- Title: RANS3PSed2D.cpp Pages: 1 -->
<svg width="803pt" height="196pt"
 viewBox="0.00 0.00 802.50 196.00" xmlns="http://www.w3.org/2000/svg" xmlns:xlink="http://www.w3.org/1999/xlink">
<g id="graph0" class="graph" transform="scale(1 1) rotate(0) translate(4 192)">
<title>RANS3PSed2D.cpp</title>
<polygon fill="white" stroke="transparent" points="-4,4 -4,-192 798.5,-192 798.5,4 -4,4"/>
<!-- Node1 -->
<g id="node1" class="node">
<title>Node1</title>
<g id="a_node1"><a xlink:title=" ">
<polygon fill="#bfbfbf" stroke="black" points="140,-168.5 140,-187.5 247,-187.5 247,-168.5 140,-168.5"/>
<text text-anchor="middle" x="193.5" y="-175.5" font-family="Helvetica,sans-Serif" font-size="10.00">RANS3PSed2D.cpp</text>
</a>
</g>
</g>
<!-- Node2 -->
<g id="node2" class="node">
<title>Node2</title>
<g id="a_node2"><a xlink:title=" ">
<polygon fill="white" stroke="#bfbfbf" points="0,-112.5 0,-131.5 119,-131.5 119,-112.5 0,-112.5"/>
<text text-anchor="middle" x="59.5" y="-119.5" font-family="Helvetica,sans-Serif" font-size="10.00">pybind11/pybind11.h</text>
</a>
</g>
</g>
<!-- Node1&#45;&gt;Node2 -->
<g id="edge1" class="edge">
<title>Node1&#45;&gt;Node2</title>
<path fill="none" stroke="midnightblue" d="M172.27,-168.44C150.12,-159.52 115.18,-145.44 90.06,-135.32"/>
<polygon fill="midnightblue" stroke="midnightblue" points="91.22,-132.01 80.63,-131.52 88.6,-138.5 91.22,-132.01"/>
</g>
<!-- Node3 -->
<g id="node3" class="node">
<title>Node3</title>
<g id="a_node3"><a xlink:title=" ">
<polygon fill="white" stroke="#bfbfbf" points="137.5,-112.5 137.5,-131.5 249.5,-131.5 249.5,-112.5 137.5,-112.5"/>
<text text-anchor="middle" x="193.5" y="-119.5" font-family="Helvetica,sans-Serif" font-size="10.00">pybind11/stl_bind.h</text>
</a>
</g>
</g>
<!-- Node1&#45;&gt;Node3 -->
<g id="edge2" class="edge">
<title>Node1&#45;&gt;Node3</title>
<path fill="none" stroke="midnightblue" d="M193.5,-168.08C193.5,-161.01 193.5,-150.86 193.5,-141.99"/>
<polygon fill="midnightblue" stroke="midnightblue" points="197,-141.75 193.5,-131.75 190,-141.75 197,-141.75"/>
</g>
<!-- Node4 -->
<g id="node4" class="node">
<title>Node4</title>
<g id="a_node4"><a xlink:href="_r_a_n_s3_p_sed2_d_8h.html" target="_top" xlink:title=" ">
<polygon fill="white" stroke="black" points="267.5,-112.5 267.5,-131.5 363.5,-131.5 363.5,-112.5 267.5,-112.5"/>
<text text-anchor="middle" x="315.5" y="-119.5" font-family="Helvetica,sans-Serif" font-size="10.00">RANS3PSed2D.h</text>
</a>
</g>
</g>
<!-- Node1&#45;&gt;Node4 -->
<g id="edge3" class="edge">
<title>Node1&#45;&gt;Node4</title>
<path fill="none" stroke="midnightblue" d="M212.83,-168.44C232.82,-159.6 264.24,-145.69 287.06,-135.59"/>
<polygon fill="midnightblue" stroke="midnightblue" points="288.53,-138.76 296.26,-131.52 285.7,-132.36 288.53,-138.76"/>
</g>
<!-- Node5 -->
<g id="node5" class="node">
<title>Node5</title>
<g id="a_node5"><a xlink:title=" ">
<polygon fill="white" stroke="#bfbfbf" points="156,-0.5 156,-19.5 203,-19.5 203,-0.5 156,-0.5"/>
<text text-anchor="middle" x="179.5" y="-7.5" font-family="Helvetica,sans-Serif" font-size="10.00">cmath</text>
</a>
</g>
</g>
<!-- Node4&#45;&gt;Node5 -->
<g id="edge4" class="edge">
<title>Node4&#45;&gt;Node5</title>
<path fill="none" stroke="midnightblue" d="M267.38,-112.9C243.67,-106.58 216.41,-95.46 198.5,-76 186.94,-63.44 182.38,-44.22 180.6,-29.93"/>
<polygon fill="midnightblue" stroke="midnightblue" points="184.07,-29.4 179.69,-19.76 177.09,-30.03 184.07,-29.4"/>
</g>
<!-- Node6 -->
<g id="node6" class="node">
<title>Node6</title>
<g id="a_node6"><a xlink:title=" ">
<polygon fill="white" stroke="#bfbfbf" points="253.5,-0.5 253.5,-19.5 313.5,-19.5 313.5,-0.5 253.5,-0.5"/>
<text text-anchor="middle" x="283.5" y="-7.5" font-family="Helvetica,sans-Serif" font-size="10.00">iostream</text>
</a>
</g>
</g>
<!-- Node4&#45;&gt;Node6 -->
<g id="edge5" class="edge">
<title>Node4&#45;&gt;Node6</title>
<path fill="none" stroke="midnightblue" d="M312.99,-112.37C307.8,-94.54 295.8,-53.3 288.82,-29.27"/>
<polygon fill="midnightblue" stroke="midnightblue" points="292.15,-28.22 286,-19.59 285.43,-30.17 292.15,-28.22"/>
</g>
<!-- Node7 -->
<g id="node7" class="node">
<title>Node7</title>
<g id="a_node7"><a xlink:href="_comp_kernel_8h.html" target="_top" xlink:title=" ">
<polygon fill="white" stroke="black" points="66,-56.5 66,-75.5 151,-75.5 151,-56.5 66,-56.5"/>
<text text-anchor="middle" x="108.5" y="-63.5" font-family="Helvetica,sans-Serif" font-size="10.00">CompKernel.h</text>
</a>
</g>
</g>
<!-- Node4&#45;&gt;Node7 -->
<g id="edge6" class="edge">
<title>Node4&#45;&gt;Node7</title>
<path fill="none" stroke="midnightblue" d="M282.7,-112.44C247.12,-103.16 190.19,-88.31 151.15,-78.13"/>
<polygon fill="midnightblue" stroke="midnightblue" points="151.71,-74.65 141.15,-75.52 149.94,-81.43 151.71,-74.65"/>
</g>
<!-- Node8 -->
<g id="node8" class="node">
<title>Node8</title>
<g id="a_node8"><a xlink:href="_model_factory_8h.html" target="_top" xlink:title=" ">
<polygon fill="white" stroke="black" points="344,-56.5 344,-75.5 433,-75.5 433,-56.5 344,-56.5"/>
<text text-anchor="middle" x="388.5" y="-63.5" font-family="Helvetica,sans-Serif" font-size="10.00">ModelFactory.h</text>
</a>
</g>
</g>
<!-- Node4&#45;&gt;Node8 -->
<g id="edge8" class="edge">
<title>Node4&#45;&gt;Node8</title>
<path fill="none" stroke="midnightblue" d="M327.23,-112.32C338.34,-104.11 355.24,-91.6 368.48,-81.81"/>
<polygon fill="midnightblue" stroke="midnightblue" points="370.6,-84.59 376.56,-75.83 366.44,-78.97 370.6,-84.59"/>
</g>
<!-- Node9 -->
<g id="node9" class="node">
<title>Node9</title>
<g id="a_node9"><a xlink:href="_sed_closure_8h.html" target="_top" xlink:title=" ">
<polygon fill="white" stroke="black" points="207.5,-56.5 207.5,-75.5 287.5,-75.5 287.5,-56.5 207.5,-56.5"/>
<text text-anchor="middle" x="247.5" y="-63.5" font-family="Helvetica,sans-Serif" font-size="10.00">SedClosure.h</text>
</a>
</g>
</g>
<!-- Node4&#45;&gt;Node9 -->
<g id="edge10" class="edge">
<title>Node4&#45;&gt;Node9</title>
<path fill="none" stroke="midnightblue" d="M304.57,-112.32C294.33,-104.18 278.78,-91.84 266.5,-82.09"/>
<polygon fill="midnightblue" stroke="midnightblue" points="268.63,-79.31 258.62,-75.83 264.28,-84.79 268.63,-79.31"/>
</g>
<!-- Node10 -->
<g id="node10" class="node">
<title>Node10</title>
<g id="a_node10"><a xlink:title=" ">
<polygon fill="white" stroke="#bfbfbf" points="332,-0.5 332,-19.5 483,-19.5 483,-0.5 332,-0.5"/>
<text text-anchor="middle" x="407.5" y="-7.5" font-family="Helvetica,sans-Serif" font-size="10.00">xtensor&#45;python/pyarray.hpp</text>
</a>
</g>
</g>
<!-- Node4&#45;&gt;Node10 -->
<g id="edge20" class="edge">
<title>Node4&#45;&gt;Node10</title>
<path fill="none" stroke="midnightblue" d="M363.75,-117.08C391.39,-112.07 423.97,-100.87 441.5,-76 452.54,-60.34 438.85,-40.63 425.7,-27.04"/>
<polygon fill="midnightblue" stroke="midnightblue" points="427.83,-24.24 418.2,-19.83 422.98,-29.29 427.83,-24.24"/>
</g>
<!-- Node11 -->
<g id="node11" class="node">
<title>Node11</title>
<g id="a_node11"><a xlink:href="_arguments_dict_8h.html" target="_top" xlink:title=" ">
<polygon fill="white" stroke="black" points="523.5,-56.5 523.5,-75.5 621.5,-75.5 621.5,-56.5 523.5,-56.5"/>
<text text-anchor="middle" x="572.5" y="-63.5" font-family="Helvetica,sans-Serif" font-size="10.00">ArgumentsDict.h</text>
</a>
</g>
</g>
<!-- Node4&#45;&gt;Node11 -->
<g id="edge14" class="edge">
<title>Node4&#45;&gt;Node11</title>
<path fill="none" stroke="midnightblue" d="M356.22,-112.44C401.15,-103 473.5,-87.8 522,-77.61"/>
<polygon fill="midnightblue" stroke="midnightblue" points="522.9,-81 531.97,-75.52 521.46,-74.15 522.9,-81"/>
</g>
<!-- Node7&#45;&gt;Node5 -->
<g id="edge7" class="edge">
<title>Node7&#45;&gt;Node5</title>
<path fill="none" stroke="midnightblue" d="M119.91,-56.32C130.61,-48.18 146.84,-35.84 159.66,-26.09"/>
<polygon fill="midnightblue" stroke="midnightblue" points="162.04,-28.67 167.89,-19.83 157.81,-23.1 162.04,-28.67"/>
</g>
<!-- Node8&#45;&gt;Node6 -->
<g id="edge9" class="edge">
<title>Node8&#45;&gt;Node6</title>
<path fill="none" stroke="midnightblue" d="M371.63,-56.32C354.79,-47.66 328.69,-34.24 309.26,-24.25"/>
<polygon fill="midnightblue" stroke="midnightblue" points="310.82,-21.12 300.33,-19.65 307.62,-27.34 310.82,-21.12"/>
</g>
<!-- Node9&#45;&gt;Node5 -->
<g id="edge11" class="edge">
<title>Node9&#45;&gt;Node5</title>
<path fill="none" stroke="midnightblue" d="M236.57,-56.32C226.33,-48.18 210.78,-35.84 198.5,-26.09"/>
<polygon fill="midnightblue" stroke="midnightblue" points="200.63,-23.31 190.62,-19.83 196.28,-28.79 200.63,-23.31"/>
</g>
<!-- Node9&#45;&gt;Node6 -->
<g id="edge12" class="edge">
<title>Node9&#45;&gt;Node6</title>
<path fill="none" stroke="midnightblue" d="M253.44,-56.08C258.48,-48.53 265.84,-37.49 272.01,-28.23"/>
<polygon fill="midnightblue" stroke="midnightblue" points="275.03,-30.01 277.67,-19.75 269.21,-26.13 275.03,-30.01"/>
</g>
<!-- Node9&#45;&gt;Node10 -->
<g id="edge13" class="edge">
<title>Node9&#45;&gt;Node10</title>
<path fill="none" stroke="midnightblue" d="M272.85,-56.44C299.77,-47.36 342.5,-32.94 372.59,-22.78"/>
<polygon fill="midnightblue" stroke="midnightblue" points="373.91,-26.03 382.27,-19.52 371.67,-19.4 373.91,-26.03"/>
</g>
<!-- Node11&#45;&gt;Node10 -->
<g id="edge18" class="edge">
<title>Node11&#45;&gt;Node10</title>
<path fill="none" stroke="midnightblue" d="M546.36,-56.44C518.48,-47.32 474.15,-32.81 443.1,-22.65"/>
<polygon fill="midnightblue" stroke="midnightblue" points="444.12,-19.3 433.52,-19.52 441.94,-25.95 444.12,-19.3"/>
</g>
<!-- Node12 -->
<g id="node12" class="node">
<title>Node12</title>
<g id="a_node12"><a xlink:title=" ">
<polygon fill="white" stroke="#bfbfbf" points="756.5,-0.5 756.5,-19.5 794.5,-19.5 794.5,-0.5 756.5,-0.5"/>
<text text-anchor="middle" x="775.5" y="-7.5" font-family="Helvetica,sans-Serif" font-size="10.00">map</text>
</a>
</g>
</g>
<!-- Node11&#45;&gt;Node12 -->
<g id="edge15" class="edge">
<title>Node11&#45;&gt;Node12</title>
<path fill="none" stroke="midnightblue" d="M608.2,-56.48C641.67,-48.34 693.32,-35.42 746.65,-20.13"/>
<polygon fill="midnightblue" stroke="midnightblue" points="747.63,-23.49 756.27,-17.35 745.69,-16.76 747.63,-23.49"/>
</g>
<!-- Node13 -->
<g id="node13" class="node">
<title>Node13</title>
<g id="a_node13"><a xlink:title=" ">
<polygon fill="white" stroke="#bfbfbf" points="501,-0.5 501,-19.5 566,-19.5 566,-0.5 501,-0.5"/>
<text text-anchor="middle" x="533.5" y="-7.5" font-family="Helvetica,sans-Serif" font-size="10.00">stdexcept</text>
</a>
</g>
</g>
<!-- Node11&#45;&gt;Node13 -->
<g id="edge16" class="edge">
<title>Node11&#45;&gt;Node13</title>
<path fill="none" stroke="midnightblue" d="M566.06,-56.08C560.55,-48.46 552.47,-37.26 545.74,-27.94"/>
<polygon fill="midnightblue" stroke="midnightblue" points="548.51,-25.81 539.82,-19.75 542.84,-29.91 548.51,-25.81"/>
</g>
<!-- Node14 -->
<g id="node14" class="node">
<title>Node14</title>
<g id="a_node14"><a xlink:title=" ">
<polygon fill="white" stroke="#bfbfbf" points="584.5,-0.5 584.5,-19.5 628.5,-19.5 628.5,-0.5 584.5,-0.5"/>
<text text-anchor="middle" x="606.5" y="-7.5" font-family="Helvetica,sans-Serif" font-size="10.00">string</text>
</a>
</g>
</g>
<!-- Node11&#45;&gt;Node14 -->
<g id="edge17" class="edge">
<title>Node11&#45;&gt;Node14</title>
<path fill="none" stroke="midnightblue" d="M578.11,-56.08C582.87,-48.53 589.82,-37.49 595.65,-28.23"/>
<polygon fill="midnightblue" stroke="midnightblue" points="598.62,-30.08 600.99,-19.75 592.7,-26.35 598.62,-30.08"/>
</g>
<!-- Node15 -->
<g id="node15" class="node">
<title>Node15</title>
<g id="a_node15"><a xlink:title=" ">
<polygon fill="white" stroke="#bfbfbf" points="646.5,-0.5 646.5,-19.5 738.5,-19.5 738.5,-0.5 646.5,-0.5"/>
<text text-anchor="middle" x="692.5" y="-7.5" font-family="Helvetica,sans-Serif" font-size="10.00">xtensor/xio.hpp</text>
</a>
</g>
</g>
<!-- Node11&#45;&gt;Node15 -->
<g id="edge19" class="edge">
<title>Node11&#45;&gt;Node15</title>
<path fill="none" stroke="midnightblue" d="M591.51,-56.44C611.09,-47.64 641.81,-33.81 664.23,-23.72"/>
<polygon fill="midnightblue" stroke="midnightblue" points="665.89,-26.81 673.57,-19.52 663.02,-20.43 665.89,-26.81"/>
</g>
</g>
</svg>
