<?xml version="1.0" encoding="UTF-8" standalone="no"?>
<!DOCTYPE svg PUBLIC "-//W3C//DTD SVG 1.1//EN"
 "http://www.w3.org/Graphics/SVG/1.1/DTD/svg11.dtd">
<!-- Generated by graphviz version 2.40.1 (20161225.0304)
 -->
<!-- Title: RANS3PF.cpp Pages: 1 -->
<svg width="939pt" height="207pt"
 viewBox="0.00 0.00 939.04 207.00" xmlns="http://www.w3.org/2000/svg" xmlns:xlink="http://www.w3.org/1999/xlink">
<g id="graph0" class="graph" transform="scale(1 1) rotate(0) translate(4 203)">
<title>RANS3PF.cpp</title>
<polygon fill="#ffffff" stroke="transparent" points="-4,4 -4,-203 935.0356,-203 935.0356,4 -4,4"/>
<!-- Node0 -->
<g id="node1" class="node">
<title>Node0</title>
<polygon fill="#bfbfbf" stroke="#000000" points="309.5356,-179.5 309.5356,-198.5 391.5356,-198.5 391.5356,-179.5 309.5356,-179.5"/>
<text text-anchor="middle" x="350.5356" y="-186.5" font-family="Helvetica,sans-Serif" font-size="10.00" fill="#000000">RANS3PF.cpp</text>
</g>
<!-- Node1 -->
<g id="node2" class="node">
<title>Node1</title>
<polygon fill="#ffffff" stroke="#bfbfbf" points="175.5356,-123.5 175.5356,-142.5 281.5356,-142.5 281.5356,-123.5 175.5356,-123.5"/>
<text text-anchor="middle" x="228.5356" y="-130.5" font-family="Helvetica,sans-Serif" font-size="10.00" fill="#000000">pybind11/pybind11.h</text>
</g>
<!-- Node0&#45;&gt;Node1 -->
<g id="edge1" class="edge">
<title>Node0&#45;&gt;Node1</title>
<path fill="none" stroke="#191970" d="M329.563,-179.3733C309.9788,-170.3838 280.5395,-156.8706 258.4846,-146.7471"/>
<polygon fill="#191970" stroke="#191970" points="259.7829,-143.4919 249.2344,-142.5011 256.8626,-149.8538 259.7829,-143.4919"/>
</g>
<!-- Node2 -->
<g id="node3" class="node">
<title>Node2</title>
<polygon fill="#ffffff" stroke="#bfbfbf" points="300.0356,-123.5 300.0356,-142.5 401.0356,-142.5 401.0356,-123.5 300.0356,-123.5"/>
<text text-anchor="middle" x="350.5356" y="-130.5" font-family="Helvetica,sans-Serif" font-size="10.00" fill="#000000">pybind11/stl_bind.h</text>
</g>
<!-- Node0&#45;&gt;Node2 -->
<g id="edge2" class="edge">
<title>Node0&#45;&gt;Node2</title>
<path fill="none" stroke="#191970" d="M350.5356,-179.2455C350.5356,-171.9382 350.5356,-161.6944 350.5356,-152.7046"/>
<polygon fill="#191970" stroke="#191970" points="354.0357,-152.6426 350.5356,-142.6427 347.0357,-152.6427 354.0357,-152.6426"/>
</g>
<!-- Node3 -->
<g id="node4" class="node">
<title>Node3</title>
<g id="a_node4"><a xlink:href="_r_a_n_s3_p_f_8h.html" target="_top" xlink:title="RANS3PF.h">
<polygon fill="#ffffff" stroke="#000000" points="419.0356,-123.5 419.0356,-142.5 490.0356,-142.5 490.0356,-123.5 419.0356,-123.5"/>
<text text-anchor="middle" x="454.5356" y="-130.5" font-family="Helvetica,sans-Serif" font-size="10.00" fill="#000000">RANS3PF.h</text>
</a>
</g>
</g>
<!-- Node0&#45;&gt;Node3 -->
<g id="edge3" class="edge">
<title>Node0&#45;&gt;Node3</title>
<path fill="none" stroke="#191970" d="M368.651,-179.2455C384.9806,-170.4527 409.2066,-157.4079 427.7695,-147.4125"/>
<polygon fill="#191970" stroke="#191970" points="429.4824,-150.4654 436.6277,-142.6427 426.1637,-144.3021 429.4824,-150.4654"/>
</g>
<!-- Node4 -->
<g id="node5" class="node">
<title>Node4</title>
<polygon fill="#ffffff" stroke="#bfbfbf" points="31.5356,-6 31.5356,-25 75.5356,-25 75.5356,-6 31.5356,-6"/>
<text text-anchor="middle" x="53.5356" y="-13" font-family="Helvetica,sans-Serif" font-size="10.00" fill="#000000">cmath</text>
</g>
<!-- Node3&#45;&gt;Node4 -->
<g id="edge4" class="edge">
<title>Node3&#45;&gt;Node4</title>
<path fill="none" stroke="#191970" d="M418.7537,-124.6089C415.6455,-124.0137 412.5409,-123.4658 409.5356,-123 365.0006,-116.0973 35.9555,-120.2512 5.5356,-87 -10.3761,-69.6074 11.5194,-46.5172 30.6874,-31.345"/>
<polygon fill="#191970" stroke="#191970" points="33.0016,-33.9838 38.8865,-25.1737 28.792,-28.3911 33.0016,-33.9838"/>
</g>
<!-- Node5 -->
<g id="node6" class="node">
<title>Node5</title>
<polygon fill="#ffffff" stroke="#bfbfbf" points="637.0356,-67.5 637.0356,-86.5 688.0356,-86.5 688.0356,-67.5 637.0356,-67.5"/>
<text text-anchor="middle" x="662.5356" y="-74.5" font-family="Helvetica,sans-Serif" font-size="10.00" fill="#000000">valarray</text>
</g>
<!-- Node3&#45;&gt;Node5 -->
<g id="edge5" class="edge">
<title>Node3&#45;&gt;Node5</title>
<path fill="none" stroke="#191970" d="M490.0394,-123.7639C523.0644,-115.1273 573.8826,-101.7227 627.2916,-87.0321"/>
<polygon fill="#191970" stroke="#191970" points="628.2267,-90.4049 636.9366,-84.3728 626.366,-83.6567 628.2267,-90.4049"/>
</g>
<!-- Node6 -->
<g id="node7" class="node">
<title>Node6</title>
<polygon fill="#ffffff" stroke="#bfbfbf" points="93.5356,-6 93.5356,-25 147.5356,-25 147.5356,-6 93.5356,-6"/>
<text text-anchor="middle" x="120.5356" y="-13" font-family="Helvetica,sans-Serif" font-size="10.00" fill="#000000">iostream</text>
</g>
<!-- Node3&#45;&gt;Node6 -->
<g id="edge6" class="edge">
<title>Node3&#45;&gt;Node6</title>
<path fill="none" stroke="#191970" d="M418.6845,-124.9835C415.5913,-124.3069 412.5091,-123.638 409.5356,-123 332.3215,-106.4339 308.8694,-116.3019 235.5356,-87 216.6242,-79.4436 170.6395,-49.3678 142.8871,-30.7138"/>
<polygon fill="#191970" stroke="#191970" points="144.8211,-27.7965 134.5747,-25.1017 140.9042,-33.5981 144.8211,-27.7965"/>
</g>
<!-- Node7 -->
<g id="node8" class="node">
<title>Node7</title>
<polygon fill="#ffffff" stroke="#bfbfbf" points="706.5356,-67.5 706.5356,-86.5 750.5356,-86.5 750.5356,-67.5 706.5356,-67.5"/>
<text text-anchor="middle" x="728.5356" y="-74.5" font-family="Helvetica,sans-Serif" font-size="10.00" fill="#000000">vector</text>
</g>
<!-- Node3&#45;&gt;Node7 -->
<g id="edge7" class="edge">
<title>Node3&#45;&gt;Node7</title>
<path fill="none" stroke="#191970" d="M490.2551,-127.6723C535.9511,-120.5444 617.6682,-106.7502 696.2227,-87.0997"/>
<polygon fill="#191970" stroke="#191970" points="697.4501,-90.3992 706.2815,-84.5462 695.7278,-83.6144 697.4501,-90.3992"/>
</g>
<!-- Node8 -->
<g id="node9" class="node">
<title>Node8</title>
<polygon fill="#ffffff" stroke="#bfbfbf" points="768.5356,-67.5 768.5356,-86.5 798.5356,-86.5 798.5356,-67.5 768.5356,-67.5"/>
<text text-anchor="middle" x="783.5356" y="-74.5" font-family="Helvetica,sans-Serif" font-size="10.00" fill="#000000">set</text>
</g>
<!-- Node3&#45;&gt;Node8 -->
<g id="edge8" class="edge">
<title>Node3&#45;&gt;Node8</title>
<path fill="none" stroke="#191970" d="M490.3519,-130.4566C546.1578,-125.8805 657.1556,-114.3196 758.7037,-86.651"/>
<polygon fill="#191970" stroke="#191970" points="759.805,-89.9776 768.4993,-83.9228 757.9268,-83.2342 759.805,-89.9776"/>
</g>
<!-- Node9 -->
<g id="node10" class="node">
<title>Node9</title>
<polygon fill="#ffffff" stroke="#bfbfbf" points="816.5356,-67.5 816.5356,-86.5 862.5356,-86.5 862.5356,-67.5 816.5356,-67.5"/>
<text text-anchor="middle" x="839.5356" y="-74.5" font-family="Helvetica,sans-Serif" font-size="10.00" fill="#000000">cstring</text>
</g>
<!-- Node3&#45;&gt;Node9 -->
<g id="edge9" class="edge">
<title>Node3&#45;&gt;Node9</title>
<path fill="none" stroke="#191970" d="M490.2098,-130.4076C552.6259,-125.4296 685.7342,-112.8478 806.463,-86.927"/>
<polygon fill="#191970" stroke="#191970" points="807.2194,-90.3444 816.2425,-84.7917 805.7261,-83.5055 807.2194,-90.3444"/>
</g>
<!-- Node10 -->
<g id="node11" class="node">
<title>Node10</title>
<g id="a_node11"><a xlink:href="_comp_kernel_8h.html" target="_top" xlink:title="CompKernel.h">
<polygon fill="#ffffff" stroke="#000000" points="15.0356,-67.5 15.0356,-86.5 94.0356,-86.5 94.0356,-67.5 15.0356,-67.5"/>
<text text-anchor="middle" x="54.5356" y="-74.5" font-family="Helvetica,sans-Serif" font-size="10.00" fill="#000000">CompKernel.h</text>
</a>
</g>
</g>
<!-- Node3&#45;&gt;Node10 -->
<g id="edge10" class="edge">
<title>Node3&#45;&gt;Node10</title>
<path fill="none" stroke="#191970" d="M418.7387,-124.7011C415.6338,-124.0858 412.534,-123.5082 409.5356,-123 277.6874,-100.6538 240.4733,-108.3248 104.0595,-86.9541"/>
<polygon fill="#191970" stroke="#191970" points="104.4893,-83.4786 94.0636,-85.3644 103.3898,-90.3917 104.4893,-83.4786"/>
</g>
<!-- Node11 -->
<g id="node12" class="node">
<title>Node11</title>
<g id="a_node12"><a xlink:href="_model_factory_8h.html" target="_top" xlink:title="ModelFactory.h">
<polygon fill="#ffffff" stroke="#000000" points="244.5356,-67.5 244.5356,-86.5 328.5356,-86.5 328.5356,-67.5 244.5356,-67.5"/>
<text text-anchor="middle" x="286.5356" y="-74.5" font-family="Helvetica,sans-Serif" font-size="10.00" fill="#000000">ModelFactory.h</text>
</a>
</g>
</g>
<!-- Node3&#45;&gt;Node11 -->
<g id="edge12" class="edge">
<title>Node3&#45;&gt;Node11</title>
<path fill="none" stroke="#191970" d="M425.6553,-123.3733C397.7195,-114.0613 355.2214,-99.8953 324.5486,-89.671"/>
<polygon fill="#191970" stroke="#191970" points="325.6326,-86.3431 315.0389,-86.5011 323.419,-92.9839 325.6326,-86.3431"/>
</g>
<!-- Node12 -->
<g id="node13" class="node">
<title>Node12</title>
<g id="a_node13"><a xlink:href="_sed_closure_8h.html" target="_top" xlink:title="SedClosure.h">
<polygon fill="#ffffff" stroke="#000000" points="112.5356,-67.5 112.5356,-86.5 188.5356,-86.5 188.5356,-67.5 112.5356,-67.5"/>
<text text-anchor="middle" x="150.5356" y="-74.5" font-family="Helvetica,sans-Serif" font-size="10.00" fill="#000000">SedClosure.h</text>
</a>
</g>
</g>
<!-- Node3&#45;&gt;Node12 -->
<g id="edge14" class="edge">
<title>Node3&#45;&gt;Node12</title>
<path fill="none" stroke="#191970" d="M418.7058,-124.8803C415.608,-124.2261 412.5188,-123.5906 409.5356,-123 317.9322,-104.8665 294.3896,-103.818 202.5356,-87 201.2639,-86.7672 199.9751,-86.5297 198.6747,-86.2889"/>
<polygon fill="#191970" stroke="#191970" points="199.0499,-82.7984 188.5763,-84.3964 197.7605,-89.6786 199.0499,-82.7984"/>
</g>
<!-- Node13 -->
<g id="node14" class="node">
<title>Node13</title>
<polygon fill="#ffffff" stroke="#bfbfbf" points="506.0356,-6 506.0356,-25 641.0356,-25 641.0356,-6 506.0356,-6"/>
<text text-anchor="middle" x="573.5356" y="-13" font-family="Helvetica,sans-Serif" font-size="10.00" fill="#000000">xtensor&#45;python/pyarray.hpp</text>
</g>
<!-- Node3&#45;&gt;Node13 -->
<g id="edge30" class="edge">
<title>Node3&#45;&gt;Node13</title>
<path fill="none" stroke="#191970" d="M464.1311,-123.0646C476.7297,-110.0642 499.5903,-86.6275 519.5356,-67 531.4558,-55.2696 545.0857,-42.2739 555.6697,-32.2719"/>
<polygon fill="#191970" stroke="#191970" points="558.2143,-34.6832 563.0909,-25.2774 553.4131,-29.5892 558.2143,-34.6832"/>
</g>
<!-- Node14 -->
<g id="node15" class="node">
<title>Node14</title>
<g id="a_node15"><a xlink:href="equivalent__polynomials_8h.html" target="_top" xlink:title="equivalent_polynomials.h">
<polygon fill="#ffffff" stroke="#000000" points="346.5356,-67.5 346.5356,-86.5 472.5356,-86.5 472.5356,-67.5 346.5356,-67.5"/>
<text text-anchor="middle" x="409.5356" y="-74.5" font-family="Helvetica,sans-Serif" font-size="10.00" fill="#000000">equivalent_polynomials.h</text>
</a>
</g>
</g>
<!-- Node3&#45;&gt;Node14 -->
<g id="edge18" class="edge">
<title>Node3&#45;&gt;Node14</title>
<path fill="none" stroke="#191970" d="M446.6972,-123.2455C440.3735,-115.3761 431.3132,-104.101 423.722,-94.6542"/>
<polygon fill="#191970" stroke="#191970" points="426.2764,-92.2454 417.2841,-86.6427 420.8198,-96.6302 426.2764,-92.2454"/>
</g>
<!-- Node18 -->
<g id="node19" class="node">
<title>Node18</title>
<g id="a_node19"><a xlink:href="_arguments_dict_8h.html" target="_top" xlink:title="ArgumentsDict.h">
<polygon fill="#ffffff" stroke="#000000" points="528.5356,-67.5 528.5356,-86.5 618.5356,-86.5 618.5356,-67.5 528.5356,-67.5"/>
<text text-anchor="middle" x="573.5356" y="-74.5" font-family="Helvetica,sans-Serif" font-size="10.00" fill="#000000">ArgumentsDict.h</text>
</a>
</g>
</g>
<!-- Node3&#45;&gt;Node18 -->
<g id="edge24" class="edge">
<title>Node3&#45;&gt;Node18</title>
<path fill="none" stroke="#191970" d="M474.9924,-123.3733C494.0093,-114.4241 522.5531,-100.9917 544.0331,-90.8835"/>
<polygon fill="#191970" stroke="#191970" points="545.7878,-93.926 553.3457,-86.5011 542.8072,-87.5923 545.7878,-93.926"/>
</g>
<!-- Node10&#45;&gt;Node4 -->
<g id="edge11" class="edge">
<title>Node10&#45;&gt;Node4</title>
<path fill="none" stroke="#191970" d="M54.3793,-67.3906C54.2407,-58.8657 54.0338,-46.1392 53.8595,-35.4235"/>
<polygon fill="#191970" stroke="#191970" points="57.3562,-35.1866 53.694,-25.2449 50.3572,-35.3005 57.3562,-35.1866"/>
</g>
<!-- Node11&#45;&gt;Node6 -->
<g id="edge13" class="edge">
<title>Node11&#45;&gt;Node6</title>
<path fill="none" stroke="#191970" d="M257.9315,-67.4893C231.4563,-58.5425 191.0876,-44.5341 156.5356,-31 154.9239,-30.3687 153.277,-29.7098 151.6179,-29.0351"/>
<polygon fill="#191970" stroke="#191970" points="152.7176,-25.7014 142.1411,-25.0786 150.0208,-32.1611 152.7176,-25.7014"/>
</g>
<!-- Node12&#45;&gt;Node4 -->
<g id="edge15" class="edge">
<title>Node12&#45;&gt;Node4</title>
<path fill="none" stroke="#191970" d="M135.3793,-67.3906C119.8613,-57.5519 95.5163,-42.1167 77.4071,-30.6351"/>
<polygon fill="#191970" stroke="#191970" points="78.9051,-27.4407 68.5854,-25.0419 75.1568,-33.3526 78.9051,-27.4407"/>
</g>
<!-- Node12&#45;&gt;Node6 -->
<g id="edge16" class="edge">
<title>Node12&#45;&gt;Node6</title>
<path fill="none" stroke="#191970" d="M145.8481,-67.3906C141.5583,-58.5965 135.0874,-45.3312 129.7622,-34.4145"/>
<polygon fill="#191970" stroke="#191970" points="132.8191,-32.6981 125.2892,-25.2449 126.5278,-35.7671 132.8191,-32.6981"/>
</g>
<!-- Node12&#45;&gt;Node13 -->
<g id="edge17" class="edge">
<title>Node12&#45;&gt;Node13</title>
<path fill="none" stroke="#191970" d="M188.6972,-72.2522C265.8213,-62.6035 437.8854,-40.7907 496.5356,-31 503.7482,-29.796 511.3178,-28.4162 518.7783,-26.9873"/>
<polygon fill="#191970" stroke="#191970" points="519.6978,-30.3738 528.8404,-25.02 518.3546,-23.5039 519.6978,-30.3738"/>
</g>
<!-- Node14&#45;&gt;Node4 -->
<g id="edge19" class="edge">
<title>Node14&#45;&gt;Node4</title>
<path fill="none" stroke="#191970" d="M346.4686,-68.202C252.8359,-55.1222 87.6511,-31.971 84.5356,-31 82.8768,-30.483 81.1978,-29.8855 79.5243,-29.2321"/>
<polygon fill="#191970" stroke="#191970" points="80.7356,-25.9398 70.178,-25.052 77.8776,-32.3298 80.7356,-25.9398"/>
</g>
<!-- Node14&#45;&gt;Node6 -->
<g id="edge21" class="edge">
<title>Node14&#45;&gt;Node6</title>
<path fill="none" stroke="#191970" d="M347.9968,-67.4546C284.9833,-57.3863 191.4742,-41.5484 156.5356,-31 154.3655,-30.3448 152.1506,-29.5977 149.9393,-28.7937"/>
<polygon fill="#191970" stroke="#191970" points="151.0036,-25.4505 140.4178,-25.0128 148.4201,-31.9563 151.0036,-25.4505"/>
</g>
<!-- Node15 -->
<g id="node16" class="node">
<title>Node15</title>
<polygon fill="#ffffff" stroke="#bfbfbf" points="166.0356,-6 166.0356,-25 215.0356,-25 215.0356,-6 166.0356,-6"/>
<text text-anchor="middle" x="190.5356" y="-13" font-family="Helvetica,sans-Serif" font-size="10.00" fill="#000000">cassert</text>
</g>
<!-- Node14&#45;&gt;Node15 -->
<g id="edge20" class="edge">
<title>Node14&#45;&gt;Node15</title>
<path fill="none" stroke="#191970" d="M360.9104,-67.4721C323.1789,-59.4678 269.8457,-46.81 224.5356,-31 222.8933,-30.427 221.222,-29.8039 219.5459,-29.1477"/>
<polygon fill="#191970" stroke="#191970" points="220.6345,-25.8081 210.0606,-25.1422 217.9114,-32.2567 220.6345,-25.8081"/>
</g>
<!-- Node16 -->
<g id="node17" class="node">
<title>Node16</title>
<g id="a_node17"><a xlink:href="equivalent__polynomials__coefficients_8h.html" target="_top" xlink:title="equivalent_polynomials\l_coefficients.h">
<polygon fill="#ffffff" stroke="#000000" points="233.5356,-.5 233.5356,-30.5 351.5356,-30.5 351.5356,-.5 233.5356,-.5"/>
<text text-anchor="start" x="241.5356" y="-18.5" font-family="Helvetica,sans-Serif" font-size="10.00" fill="#000000">equivalent_polynomials</text>
<text text-anchor="middle" x="292.5356" y="-7.5" font-family="Helvetica,sans-Serif" font-size="10.00" fill="#000000">_coefficients.h</text>
</a>
</g>
</g>
<!-- Node14&#45;&gt;Node16 -->
<g id="edge22" class="edge">
<title>Node14&#45;&gt;Node16</title>
<path fill="none" stroke="#191970" d="M391.2543,-67.3906C374.9799,-58.8361 350.6568,-46.0509 330.2269,-35.3121"/>
<polygon fill="#191970" stroke="#191970" points="331.6371,-32.0994 321.157,-30.5446 328.3802,-38.2955 331.6371,-32.0994"/>
</g>
<!-- Node17 -->
<g id="node18" class="node">
<title>Node17</title>
<g id="a_node18"><a xlink:href="equivalent__polynomials__utils_8h.html" target="_top" xlink:title="equivalent_polynomials\l_utils.h">
<polygon fill="#ffffff" stroke="#000000" points="369.5356,-.5 369.5356,-30.5 487.5356,-30.5 487.5356,-.5 369.5356,-.5"/>
<text text-anchor="start" x="377.5356" y="-18.5" font-family="Helvetica,sans-Serif" font-size="10.00" fill="#000000">equivalent_polynomials</text>
<text text-anchor="middle" x="428.5356" y="-7.5" font-family="Helvetica,sans-Serif" font-size="10.00" fill="#000000">_utils.h</text>
</a>
</g>
</g>
<!-- Node14&#45;&gt;Node17 -->
<g id="edge23" class="edge">
<title>Node14&#45;&gt;Node17</title>
<path fill="none" stroke="#191970" d="M412.5043,-67.3906C414.7424,-60.1463 417.9179,-49.8679 420.8529,-40.3676"/>
<polygon fill="#191970" stroke="#191970" points="424.2799,-41.1322 423.8876,-30.5446 417.5918,-39.0659 424.2799,-41.1322"/>
</g>
<!-- Node18&#45;&gt;Node13 -->
<g id="edge28" class="edge">
<title>Node18&#45;&gt;Node13</title>
<path fill="none" stroke="#191970" d="M573.5356,-67.3906C573.5356,-58.8657 573.5356,-46.1392 573.5356,-35.4235"/>
<polygon fill="#191970" stroke="#191970" points="577.0357,-35.2448 573.5356,-25.2449 570.0357,-35.2449 577.0357,-35.2448"/>
</g>
<!-- Node19 -->
<g id="node20" class="node">
<title>Node19</title>
<polygon fill="#ffffff" stroke="#bfbfbf" points="819.0356,-6 819.0356,-25 854.0356,-25 854.0356,-6 819.0356,-6"/>
<text text-anchor="middle" x="836.5356" y="-13" font-family="Helvetica,sans-Serif" font-size="10.00" fill="#000000">map</text>
</g>
<!-- Node18&#45;&gt;Node19 -->
<g id="edge25" class="edge">
<title>Node18&#45;&gt;Node19</title>
<path fill="none" stroke="#191970" d="M618.7174,-68.645C684.9597,-56.3358 801.6027,-34.4098 810.5356,-31 811.4162,-30.6638 812.3011,-30.2987 813.1853,-29.9102"/>
<polygon fill="#191970" stroke="#191970" points="815.1489,-32.8343 822.409,-25.1181 811.9216,-26.6227 815.1489,-32.8343"/>
</g>
<!-- Node20 -->
<g id="node21" class="node">
<title>Node20</title>
<polygon fill="#ffffff" stroke="#bfbfbf" points="872.0356,-6 872.0356,-25 931.0356,-25 931.0356,-6 872.0356,-6"/>
<text text-anchor="middle" x="901.5356" y="-13" font-family="Helvetica,sans-Serif" font-size="10.00" fill="#000000">stdexcept</text>
</g>
<!-- Node18&#45;&gt;Node20 -->
<g id="edge26" class="edge">
<title>Node18&#45;&gt;Node20</title>
<path fill="none" stroke="#191970" d="M618.5407,-68.7119C621.921,-68.1217 625.2811,-67.545 628.5356,-67 732.7472,-49.5475 761.691,-59.1481 863.5356,-31 865.9993,-30.3191 868.5187,-29.5246 871.0299,-28.6618"/>
<polygon fill="#191970" stroke="#191970" points="872.4077,-31.8831 880.5389,-25.0908 869.9468,-25.3299 872.4077,-31.8831"/>
</g>
<!-- Node21 -->
<g id="node22" class="node">
<title>Node21</title>
<polygon fill="#ffffff" stroke="#bfbfbf" points="659.0356,-6 659.0356,-25 700.0356,-25 700.0356,-6 659.0356,-6"/>
<text text-anchor="middle" x="679.5356" y="-13" font-family="Helvetica,sans-Serif" font-size="10.00" fill="#000000">string</text>
</g>
<!-- Node18&#45;&gt;Node21 -->
<g id="edge27" class="edge">
<title>Node18&#45;&gt;Node21</title>
<path fill="none" stroke="#191970" d="M590.0981,-67.3906C607.2893,-57.4165 634.3938,-41.6908 654.2622,-30.1633"/>
<polygon fill="#191970" stroke="#191970" points="656.1962,-33.0877 663.0894,-25.0419 652.6833,-27.033 656.1962,-33.0877"/>
</g>
<!-- Node22 -->
<g id="node23" class="node">
<title>Node22</title>
<polygon fill="#ffffff" stroke="#bfbfbf" points="718.0356,-6 718.0356,-25 801.0356,-25 801.0356,-6 718.0356,-6"/>
<text text-anchor="middle" x="759.5356" y="-13" font-family="Helvetica,sans-Serif" font-size="10.00" fill="#000000">xtensor/xio.hpp</text>
</g>
<!-- Node18&#45;&gt;Node22 -->
<g id="edge29" class="edge">
<title>Node18&#45;&gt;Node22</title>
<path fill="none" stroke="#191970" d="M602.5981,-67.3906C634.4018,-56.8749 685.5407,-39.966 720.75,-28.3243"/>
<polygon fill="#191970" stroke="#191970" points="722.2815,-31.5043 730.6772,-25.0419 720.0839,-24.8582 722.2815,-31.5043"/>
</g>
</g>
</svg>
