<?xml version="1.0" encoding="UTF-8" standalone="no"?>
<!DOCTYPE svg PUBLIC "-//W3C//DTD SVG 1.1//EN"
 "http://www.w3.org/Graphics/SVG/1.1/DTD/svg11.dtd">
<!-- Generated by graphviz version 2.50.0 (20211204.2007)
 -->
<!-- Title: RANS3PSed.cpp Pages: 1 -->
<svg width="730pt" height="196pt"
 viewBox="0.00 0.00 729.50 196.00" xmlns="http://www.w3.org/2000/svg" xmlns:xlink="http://www.w3.org/1999/xlink">
<g id="graph0" class="graph" transform="scale(1 1) rotate(0) translate(4 192)">
<title>RANS3PSed.cpp</title>
<polygon fill="white" stroke="transparent" points="-4,4 -4,-192 725.5,-192 725.5,4 -4,4"/>
<!-- Node1 -->
<g id="node1" class="node">
<title>Node1</title>
<g id="a_node1"><a xlink:title=" ">
<polygon fill="#bfbfbf" stroke="black" points="128.5,-168.5 128.5,-187.5 221.5,-187.5 221.5,-168.5 128.5,-168.5"/>
<text text-anchor="middle" x="175" y="-175.5" font-family="Helvetica,sans-Serif" font-size="10.00">RANS3PSed.cpp</text>
</a>
</g>
</g>
<!-- Node2 -->
<g id="node2" class="node">
<title>Node2</title>
<g id="a_node2"><a xlink:title=" ">
<polygon fill="white" stroke="#bfbfbf" points="0,-112.5 0,-131.5 106,-131.5 106,-112.5 0,-112.5"/>
<text text-anchor="middle" x="53" y="-119.5" font-family="Helvetica,sans-Serif" font-size="10.00">pybind11/pybind11.h</text>
</a>
</g>
</g>
<!-- Node1&#45;&gt;Node2 -->
<g id="edge1" class="edge">
<title>Node1&#45;&gt;Node2</title>
<path fill="none" stroke="midnightblue" d="M155.67,-168.44C135.68,-159.6 104.26,-145.69 81.44,-135.59"/>
<polygon fill="midnightblue" stroke="midnightblue" points="82.8,-132.36 72.24,-131.52 79.97,-138.76 82.8,-132.36"/>
</g>
<!-- Node3 -->
<g id="node3" class="node">
<title>Node3</title>
<g id="a_node3"><a xlink:title=" ">
<polygon fill="white" stroke="#bfbfbf" points="124.5,-112.5 124.5,-131.5 225.5,-131.5 225.5,-112.5 124.5,-112.5"/>
<text text-anchor="middle" x="175" y="-119.5" font-family="Helvetica,sans-Serif" font-size="10.00">pybind11/stl_bind.h</text>
</a>
</g>
</g>
<!-- Node1&#45;&gt;Node3 -->
<g id="edge2" class="edge">
<title>Node1&#45;&gt;Node3</title>
<path fill="none" stroke="midnightblue" d="M175,-168.08C175,-161.01 175,-150.86 175,-141.99"/>
<polygon fill="midnightblue" stroke="midnightblue" points="178.5,-141.75 175,-131.75 171.5,-141.75 178.5,-141.75"/>
</g>
<!-- Node4 -->
<g id="node4" class="node">
<title>Node4</title>
<g id="a_node4"><a xlink:href="_r_a_n_s3_p_sed_8h.html" target="_top" xlink:title=" ">
<polygon fill="white" stroke="black" points="243.5,-112.5 243.5,-131.5 326.5,-131.5 326.5,-112.5 243.5,-112.5"/>
<text text-anchor="middle" x="285" y="-119.5" font-family="Helvetica,sans-Serif" font-size="10.00">RANS3PSed.h</text>
</a>
</g>
</g>
<!-- Node1&#45;&gt;Node4 -->
<g id="edge3" class="edge">
<title>Node1&#45;&gt;Node4</title>
<path fill="none" stroke="midnightblue" d="M192.67,-168.32C210.39,-159.62 237.9,-146.12 258.29,-136.11"/>
<polygon fill="midnightblue" stroke="midnightblue" points="259.94,-139.2 267.37,-131.65 256.85,-132.92 259.94,-139.2"/>
</g>
<!-- Node5 -->
<g id="node5" class="node">
<title>Node5</title>
<g id="a_node5"><a xlink:title=" ">
<polygon fill="white" stroke="#bfbfbf" points="131,-0.5 131,-19.5 175,-19.5 175,-0.5 131,-0.5"/>
<text text-anchor="middle" x="153" y="-7.5" font-family="Helvetica,sans-Serif" font-size="10.00">cmath</text>
</a>
</g>
</g>
<!-- Node4&#45;&gt;Node5 -->
<g id="edge4" class="edge">
<title>Node4&#45;&gt;Node5</title>
<path fill="none" stroke="midnightblue" d="M243.25,-113.79C219.32,-107.59 190.47,-96.31 172,-76 160.51,-63.37 155.95,-44.16 154.14,-29.9"/>
<polygon fill="midnightblue" stroke="midnightblue" points="157.61,-29.37 153.21,-19.74 150.64,-30.01 157.61,-29.37"/>
</g>
<!-- Node6 -->
<g id="node6" class="node">
<title>Node6</title>
<g id="a_node6"><a xlink:title=" ">
<polygon fill="white" stroke="#bfbfbf" points="225,-0.5 225,-19.5 279,-19.5 279,-0.5 225,-0.5"/>
<text text-anchor="middle" x="252" y="-7.5" font-family="Helvetica,sans-Serif" font-size="10.00">iostream</text>
</a>
</g>
</g>
<!-- Node4&#45;&gt;Node6 -->
<g id="edge5" class="edge">
<title>Node4&#45;&gt;Node6</title>
<path fill="none" stroke="midnightblue" d="M282.47,-112.15C278.87,-99.63 272.04,-76.04 266,-56 263.34,-47.18 260.31,-37.41 257.75,-29.23"/>
<polygon fill="midnightblue" stroke="midnightblue" points="261.06,-28.1 254.73,-19.61 254.39,-30.2 261.06,-28.1"/>
</g>
<!-- Node7 -->
<g id="node7" class="node">
<title>Node7</title>
<g id="a_node7"><a xlink:href="_comp_kernel_8h.html" target="_top" xlink:title=" ">
<polygon fill="white" stroke="black" points="45.5,-56.5 45.5,-75.5 124.5,-75.5 124.5,-56.5 45.5,-56.5"/>
<text text-anchor="middle" x="85" y="-63.5" font-family="Helvetica,sans-Serif" font-size="10.00">CompKernel.h</text>
</a>
</g>
</g>
<!-- Node4&#45;&gt;Node7 -->
<g id="edge6" class="edge">
<title>Node4&#45;&gt;Node7</title>
<path fill="none" stroke="midnightblue" d="M253.31,-112.44C218.93,-103.16 163.92,-88.31 126.21,-78.13"/>
<polygon fill="midnightblue" stroke="midnightblue" points="127.11,-74.74 116.54,-75.52 125.28,-81.5 127.11,-74.74"/>
</g>
<!-- Node8 -->
<g id="node8" class="node">
<title>Node8</title>
<g id="a_node8"><a xlink:href="_model_factory_8h.html" target="_top" xlink:title=" ">
<polygon fill="white" stroke="black" points="313.5,-56.5 313.5,-75.5 396.5,-75.5 396.5,-56.5 313.5,-56.5"/>
<text text-anchor="middle" x="355" y="-63.5" font-family="Helvetica,sans-Serif" font-size="10.00">ModelFactory.h</text>
</a>
</g>
</g>
<!-- Node4&#45;&gt;Node8 -->
<g id="edge8" class="edge">
<title>Node4&#45;&gt;Node8</title>
<path fill="none" stroke="midnightblue" d="M296.25,-112.32C306.8,-104.18 322.8,-91.84 335.44,-82.09"/>
<polygon fill="midnightblue" stroke="midnightblue" points="337.77,-84.71 343.55,-75.83 333.49,-79.17 337.77,-84.71"/>
</g>
<!-- Node9 -->
<g id="node9" class="node">
<title>Node9</title>
<g id="a_node9"><a xlink:href="_sed_closure_8h.html" target="_top" xlink:title=" ">
<polygon fill="white" stroke="black" points="181,-56.5 181,-75.5 257,-75.5 257,-56.5 181,-56.5"/>
<text text-anchor="middle" x="219" y="-63.5" font-family="Helvetica,sans-Serif" font-size="10.00">SedClosure.h</text>
</a>
</g>
</g>
<!-- Node4&#45;&gt;Node9 -->
<g id="edge10" class="edge">
<title>Node4&#45;&gt;Node9</title>
<path fill="none" stroke="midnightblue" d="M274.4,-112.32C264.54,-104.26 249.65,-92.08 237.78,-82.37"/>
<polygon fill="midnightblue" stroke="midnightblue" points="239.75,-79.46 229.8,-75.83 235.32,-84.88 239.75,-79.46"/>
</g>
<!-- Node10 -->
<g id="node10" class="node">
<title>Node10</title>
<g id="a_node10"><a xlink:title=" ">
<polygon fill="white" stroke="#bfbfbf" points="297,-0.5 297,-19.5 431,-19.5 431,-0.5 297,-0.5"/>
<text text-anchor="middle" x="364" y="-7.5" font-family="Helvetica,sans-Serif" font-size="10.00">xtensor&#45;python/pyarray.hpp</text>
</a>
</g>
</g>
<!-- Node4&#45;&gt;Node10 -->
<g id="edge20" class="edge">
<title>Node4&#45;&gt;Node10</title>
<path fill="none" stroke="midnightblue" d="M326.54,-117.27C353.76,-112.42 387.45,-101.33 405,-76 416.65,-59.19 399.65,-39.21 384.13,-25.88"/>
<polygon fill="midnightblue" stroke="midnightblue" points="386.29,-23.12 376.31,-19.57 381.89,-28.57 386.29,-23.12"/>
</g>
<!-- Node11 -->
<g id="node11" class="node">
<title>Node11</title>
<g id="a_node11"><a xlink:href="_arguments_dict_8h.html" target="_top" xlink:title=" ">
<polygon fill="white" stroke="black" points="478,-56.5 478,-75.5 568,-75.5 568,-56.5 478,-56.5"/>
<text text-anchor="middle" x="523" y="-63.5" font-family="Helvetica,sans-Serif" font-size="10.00">ArgumentsDict.h</text>
</a>
</g>
</g>
<!-- Node4&#45;&gt;Node11 -->
<g id="edge14" class="edge">
<title>Node4&#45;&gt;Node11</title>
<path fill="none" stroke="midnightblue" d="M322.71,-112.44C364.14,-103.04 430.76,-87.93 475.67,-77.74"/>
<polygon fill="midnightblue" stroke="midnightblue" points="476.49,-81.14 485.46,-75.52 474.94,-74.32 476.49,-81.14"/>
</g>
<!-- Node7&#45;&gt;Node5 -->
<g id="edge7" class="edge">
<title>Node7&#45;&gt;Node5</title>
<path fill="none" stroke="midnightblue" d="M95.93,-56.32C106.17,-48.18 121.72,-35.84 134,-26.09"/>
<polygon fill="midnightblue" stroke="midnightblue" points="136.22,-28.79 141.88,-19.83 131.87,-23.31 136.22,-28.79"/>
</g>
<!-- Node8&#45;&gt;Node6 -->
<g id="edge9" class="edge">
<title>Node8&#45;&gt;Node6</title>
<path fill="none" stroke="midnightblue" d="M338.45,-56.32C322.01,-47.7 296.57,-34.36 277.53,-24.39"/>
<polygon fill="midnightblue" stroke="midnightblue" points="278.99,-21.2 268.51,-19.65 275.74,-27.4 278.99,-21.2"/>
</g>
<!-- Node9&#45;&gt;Node5 -->
<g id="edge11" class="edge">
<title>Node9&#45;&gt;Node5</title>
<path fill="none" stroke="midnightblue" d="M208.4,-56.32C198.54,-48.26 183.65,-36.08 171.78,-26.37"/>
<polygon fill="midnightblue" stroke="midnightblue" points="173.75,-23.46 163.8,-19.83 169.32,-28.88 173.75,-23.46"/>
</g>
<!-- Node9&#45;&gt;Node6 -->
<g id="edge12" class="edge">
<title>Node9&#45;&gt;Node6</title>
<path fill="none" stroke="midnightblue" d="M224.45,-56.08C229.01,-48.61 235.67,-37.72 241.29,-28.52"/>
<polygon fill="midnightblue" stroke="midnightblue" points="244.42,-30.11 246.65,-19.75 238.45,-26.46 244.42,-30.11"/>
</g>
<!-- Node9&#45;&gt;Node10 -->
<g id="edge13" class="edge">
<title>Node9&#45;&gt;Node10</title>
<path fill="none" stroke="midnightblue" d="M241.98,-56.44C266.16,-47.44 304.42,-33.19 331.65,-23.05"/>
<polygon fill="midnightblue" stroke="midnightblue" points="332.98,-26.29 341.13,-19.52 330.54,-19.73 332.98,-26.29"/>
</g>
<!-- Node11&#45;&gt;Node10 -->
<g id="edge18" class="edge">
<title>Node11&#45;&gt;Node10</title>
<path fill="none" stroke="midnightblue" d="M497.81,-56.44C471.06,-47.36 428.6,-32.94 398.69,-22.78"/>
<polygon fill="midnightblue" stroke="midnightblue" points="399.67,-19.42 389.08,-19.52 397.42,-26.05 399.67,-19.42"/>
</g>
<!-- Node12 -->
<g id="node12" class="node">
<title>Node12</title>
<g id="a_node12"><a xlink:title=" ">
<polygon fill="white" stroke="#bfbfbf" points="686.5,-0.5 686.5,-19.5 721.5,-19.5 721.5,-0.5 686.5,-0.5"/>
<text text-anchor="middle" x="704" y="-7.5" font-family="Helvetica,sans-Serif" font-size="10.00">map</text>
</a>
</g>
</g>
<!-- Node11&#45;&gt;Node12 -->
<g id="edge15" class="edge">
<title>Node11&#45;&gt;Node12</title>
<path fill="none" stroke="midnightblue" d="M554.02,-56.49C583.45,-48.31 629.11,-35.34 676.85,-20.26"/>
<polygon fill="midnightblue" stroke="midnightblue" points="677.95,-23.59 686.42,-17.22 675.83,-16.92 677.95,-23.59"/>
</g>
<!-- Node13 -->
<g id="node13" class="node">
<title>Node13</title>
<g id="a_node13"><a xlink:title=" ">
<polygon fill="white" stroke="#bfbfbf" points="449.5,-0.5 449.5,-19.5 508.5,-19.5 508.5,-0.5 449.5,-0.5"/>
<text text-anchor="middle" x="479" y="-7.5" font-family="Helvetica,sans-Serif" font-size="10.00">stdexcept</text>
</a>
</g>
</g>
<!-- Node11&#45;&gt;Node13 -->
<g id="edge16" class="edge">
<title>Node11&#45;&gt;Node13</title>
<path fill="none" stroke="midnightblue" d="M515.73,-56.08C509.46,-48.38 500.21,-37.03 492.57,-27.65"/>
<polygon fill="midnightblue" stroke="midnightblue" points="495.16,-25.29 486.13,-19.75 489.73,-29.71 495.16,-25.29"/>
</g>
<!-- Node14 -->
<g id="node14" class="node">
<title>Node14</title>
<g id="a_node14"><a xlink:title=" ">
<polygon fill="white" stroke="#bfbfbf" points="526.5,-0.5 526.5,-19.5 567.5,-19.5 567.5,-0.5 526.5,-0.5"/>
<text text-anchor="middle" x="547" y="-7.5" font-family="Helvetica,sans-Serif" font-size="10.00">string</text>
</a>
</g>
</g>
<!-- Node11&#45;&gt;Node14 -->
<g id="edge17" class="edge">
<title>Node11&#45;&gt;Node14</title>
<path fill="none" stroke="midnightblue" d="M526.96,-56.08C530.21,-48.77 534.92,-38.18 538.95,-29.1"/>
<polygon fill="midnightblue" stroke="midnightblue" points="542.25,-30.31 543.11,-19.75 535.85,-27.47 542.25,-30.31"/>
</g>
<!-- Node15 -->
<g id="node15" class="node">
<title>Node15</title>
<g id="a_node15"><a xlink:title=" ">
<polygon fill="white" stroke="#bfbfbf" points="585.5,-0.5 585.5,-19.5 668.5,-19.5 668.5,-0.5 585.5,-0.5"/>
<text text-anchor="middle" x="627" y="-7.5" font-family="Helvetica,sans-Serif" font-size="10.00">xtensor/xio.hpp</text>
</a>
</g>
</g>
<!-- Node11&#45;&gt;Node15 -->
<g id="edge19" class="edge">
<title>Node11&#45;&gt;Node15</title>
<path fill="none" stroke="midnightblue" d="M539.71,-56.32C556.31,-47.7 582,-34.36 601.22,-24.39"/>
<polygon fill="midnightblue" stroke="midnightblue" points="603.07,-27.37 610.33,-19.65 599.84,-21.16 603.07,-27.37"/>
</g>
</g>
</svg>
