<?xml version="1.0" encoding="UTF-8" standalone="no"?>
<!DOCTYPE svg PUBLIC "-//W3C//DTD SVG 1.1//EN"
 "http://www.w3.org/Graphics/SVG/1.1/DTD/svg11.dtd">
<!-- Generated by graphviz version 2.43.0 (0)
 -->
<!-- Title: RANS2P.cpp Pages: 1 -->
<svg width="1665pt" height="207pt"
 viewBox="0.00 0.00 1664.50 207.00" xmlns="http://www.w3.org/2000/svg" xmlns:xlink="http://www.w3.org/1999/xlink">
<g id="graph0" class="graph" transform="scale(1 1) rotate(0) translate(4 203)">
<title>RANS2P.cpp</title>
<polygon fill="white" stroke="transparent" points="-4,4 -4,-203 1660.5,-203 1660.5,4 -4,4"/>
<!-- Node1 -->
<g id="node1" class="node">
<title>Node1</title>
<g id="a_node1"><a xlink:title=" ">
<polygon fill="#bfbfbf" stroke="black" points="677.5,-179.5 677.5,-198.5 751.5,-198.5 751.5,-179.5 677.5,-179.5"/>
<text text-anchor="middle" x="714.5" y="-186.5" font-family="Helvetica,sans-Serif" font-size="10.00">RANS2P.cpp</text>
</a>
</g>
</g>
<!-- Node2 -->
<g id="node2" class="node">
<title>Node2</title>
<g id="a_node2"><a xlink:title=" ">
<polygon fill="white" stroke="#bfbfbf" points="521,-123.5 521,-142.5 640,-142.5 640,-123.5 521,-123.5"/>
<text text-anchor="middle" x="580.5" y="-130.5" font-family="Helvetica,sans-Serif" font-size="10.00">pybind11/pybind11.h</text>
</a>
</g>
</g>
<!-- Node1&#45;&gt;Node2 -->
<g id="edge1" class="edge">
<title>Node1&#45;&gt;Node2</title>
<path fill="none" stroke="midnightblue" d="M693.27,-179.44C671.12,-170.52 636.18,-156.44 611.06,-146.32"/>
<polygon fill="midnightblue" stroke="midnightblue" points="612.22,-143.01 601.63,-142.52 609.6,-149.5 612.22,-143.01"/>
</g>
<!-- Node3 -->
<g id="node3" class="node">
<title>Node3</title>
<g id="a_node3"><a xlink:title=" ">
<polygon fill="white" stroke="#bfbfbf" points="658.5,-123.5 658.5,-142.5 770.5,-142.5 770.5,-123.5 658.5,-123.5"/>
<text text-anchor="middle" x="714.5" y="-130.5" font-family="Helvetica,sans-Serif" font-size="10.00">pybind11/stl_bind.h</text>
</a>
</g>
</g>
<!-- Node1&#45;&gt;Node3 -->
<g id="edge2" class="edge">
<title>Node1&#45;&gt;Node3</title>
<path fill="none" stroke="midnightblue" d="M714.5,-179.08C714.5,-172.01 714.5,-161.86 714.5,-152.99"/>
<polygon fill="midnightblue" stroke="midnightblue" points="718,-152.75 714.5,-142.75 711,-152.75 718,-152.75"/>
</g>
<!-- Node4 -->
<g id="node4" class="node">
<title>Node4</title>
<g id="a_node4"><a xlink:href="_r_a_n_s2_p_8h.html" target="_top" xlink:title=" ">
<polygon fill="white" stroke="black" points="789,-123.5 789,-142.5 852,-142.5 852,-123.5 789,-123.5"/>
<text text-anchor="middle" x="820.5" y="-130.5" font-family="Helvetica,sans-Serif" font-size="10.00">RANS2P.h</text>
</a>
</g>
</g>
<!-- Node1&#45;&gt;Node4 -->
<g id="edge3" class="edge">
<title>Node1&#45;&gt;Node4</title>
<path fill="none" stroke="midnightblue" d="M731.53,-179.32C748.53,-170.66 774.88,-157.24 794.49,-147.25"/>
<polygon fill="midnightblue" stroke="midnightblue" points="796.19,-150.31 803.51,-142.65 793.01,-144.08 796.19,-150.31"/>
</g>
<!-- Node5 -->
<g id="node5" class="node">
<title>Node5</title>
<g id="a_node5"><a xlink:title=" ">
<polygon fill="white" stroke="#bfbfbf" points="0,-67.5 0,-86.5 57,-86.5 57,-67.5 0,-67.5"/>
<text text-anchor="middle" x="28.5" y="-74.5" font-family="Helvetica,sans-Serif" font-size="10.00">valarray</text>
</a>
</g>
</g>
<!-- Node4&#45;&gt;Node5 -->
<g id="edge4" class="edge">
<title>Node4&#45;&gt;Node5</title>
<path fill="none" stroke="midnightblue" d="M788.81,-124.5C785.68,-123.92 782.53,-123.41 779.5,-123 467.23,-81.08 383.97,-127.4 71.5,-87 70.03,-86.81 68.54,-86.6 67.04,-86.37"/>
<polygon fill="midnightblue" stroke="midnightblue" points="67.53,-82.9 57.08,-84.63 66.32,-89.8 67.53,-82.9"/>
</g>
<!-- Node6 -->
<g id="node6" class="node">
<title>Node6</title>
<g id="a_node6"><a xlink:title=" ">
<polygon fill="white" stroke="#bfbfbf" points="62,-6 62,-25 109,-25 109,-6 62,-6"/>
<text text-anchor="middle" x="85.5" y="-13" font-family="Helvetica,sans-Serif" font-size="10.00">cmath</text>
</a>
</g>
</g>
<!-- Node4&#45;&gt;Node6 -->
<g id="edge5" class="edge">
<title>Node4&#45;&gt;Node6</title>
<path fill="none" stroke="midnightblue" d="M788.81,-124.51C785.67,-123.93 782.53,-123.41 779.5,-123 705.07,-112.91 162.88,-134.25 104.5,-87 89.29,-74.69 85.51,-51.59 84.91,-35.19"/>
<polygon fill="midnightblue" stroke="midnightblue" points="88.41,-35.12 84.9,-25.12 81.41,-35.12 88.41,-35.12"/>
</g>
<!-- Node7 -->
<g id="node7" class="node">
<title>Node7</title>
<g id="a_node7"><a xlink:title=" ">
<polygon fill="white" stroke="#bfbfbf" points="127.5,-6 127.5,-25 187.5,-25 187.5,-6 127.5,-6"/>
<text text-anchor="middle" x="157.5" y="-13" font-family="Helvetica,sans-Serif" font-size="10.00">iostream</text>
</a>
</g>
</g>
<!-- Node4&#45;&gt;Node7 -->
<g id="edge6" class="edge">
<title>Node4&#45;&gt;Node7</title>
<path fill="none" stroke="midnightblue" d="M788.8,-124.55C785.67,-123.97 782.53,-123.43 779.5,-123 661.98,-106.23 357.24,-129.78 246.5,-87 216.32,-75.34 188.25,-49.65 172,-32.71"/>
<polygon fill="midnightblue" stroke="midnightblue" points="174.38,-30.14 165.01,-25.2 169.26,-34.91 174.38,-30.14"/>
</g>
<!-- Node8 -->
<g id="node8" class="node">
<title>Node8</title>
<g id="a_node8"><a xlink:title=" ">
<polygon fill="white" stroke="#bfbfbf" points="722.5,-67.5 722.5,-86.5 754.5,-86.5 754.5,-67.5 722.5,-67.5"/>
<text text-anchor="middle" x="738.5" y="-74.5" font-family="Helvetica,sans-Serif" font-size="10.00">set</text>
</a>
</g>
</g>
<!-- Node4&#45;&gt;Node8 -->
<g id="edge7" class="edge">
<title>Node4&#45;&gt;Node8</title>
<path fill="none" stroke="midnightblue" d="M807.33,-123.32C794.65,-114.98 775.27,-102.21 760.29,-92.35"/>
<polygon fill="midnightblue" stroke="midnightblue" points="761.92,-89.23 751.64,-86.65 758.07,-95.08 761.92,-89.23"/>
</g>
<!-- Node9 -->
<g id="node9" class="node">
<title>Node9</title>
<g id="a_node9"><a xlink:title=" ">
<polygon fill="white" stroke="#bfbfbf" points="805.5,-6 805.5,-25 843.5,-25 843.5,-6 805.5,-6"/>
<text text-anchor="middle" x="824.5" y="-13" font-family="Helvetica,sans-Serif" font-size="10.00">map</text>
</a>
</g>
</g>
<!-- Node4&#45;&gt;Node9 -->
<g id="edge8" class="edge">
<title>Node4&#45;&gt;Node9</title>
<path fill="none" stroke="midnightblue" d="M815.05,-123.27C807.98,-110.89 797.06,-87.45 801.5,-67 804.02,-55.4 809.44,-43.27 814.39,-33.81"/>
<polygon fill="midnightblue" stroke="midnightblue" points="817.46,-35.49 819.23,-25.04 811.33,-32.1 817.46,-35.49"/>
</g>
<!-- Node10 -->
<g id="node10" class="node">
<title>Node10</title>
<g id="a_node10"><a xlink:href="_comp_kernel_8h.html" target="_top" xlink:title=" ">
<polygon fill="white" stroke="black" points="114,-67.5 114,-86.5 199,-86.5 199,-67.5 114,-67.5"/>
<text text-anchor="middle" x="156.5" y="-74.5" font-family="Helvetica,sans-Serif" font-size="10.00">CompKernel.h</text>
</a>
</g>
</g>
<!-- Node4&#45;&gt;Node10 -->
<g id="edge9" class="edge">
<title>Node4&#45;&gt;Node10</title>
<path fill="none" stroke="midnightblue" d="M788.8,-124.54C785.67,-123.96 782.53,-123.43 779.5,-123 529.9,-87.88 464.04,-114.69 213.5,-87 212.04,-86.84 210.56,-86.67 209.06,-86.48"/>
<polygon fill="midnightblue" stroke="midnightblue" points="209.46,-83.01 199.08,-85.17 208.54,-89.95 209.46,-83.01"/>
</g>
<!-- Node11 -->
<g id="node11" class="node">
<title>Node11</title>
<g id="a_node11"><a xlink:href="_mixed_model_factory_8h.html" target="_top" xlink:title=" ">
<polygon fill="white" stroke="black" points="256,-67.5 256,-86.5 375,-86.5 375,-67.5 256,-67.5"/>
<text text-anchor="middle" x="315.5" y="-74.5" font-family="Helvetica,sans-Serif" font-size="10.00">MixedModelFactory.h</text>
</a>
</g>
</g>
<!-- Node4&#45;&gt;Node11 -->
<g id="edge11" class="edge">
<title>Node4&#45;&gt;Node11</title>
<path fill="none" stroke="midnightblue" d="M788.79,-124.63C785.66,-124.02 782.52,-123.47 779.5,-123 608.09,-96.5 560.88,-106.22 385.29,-87.15"/>
<polygon fill="midnightblue" stroke="midnightblue" points="385.51,-83.66 375.19,-86.04 384.74,-90.61 385.51,-83.66"/>
</g>
<!-- Node12 -->
<g id="node12" class="node">
<title>Node12</title>
<g id="a_node12"><a xlink:href="_py_embedded_functions_8h.html" target="_top" xlink:title=" ">
<polygon fill="white" stroke="black" points="964.5,-67.5 964.5,-86.5 1100.5,-86.5 1100.5,-67.5 964.5,-67.5"/>
<text text-anchor="middle" x="1032.5" y="-74.5" font-family="Helvetica,sans-Serif" font-size="10.00">PyEmbeddedFunctions.h</text>
</a>
</g>
</g>
<!-- Node4&#45;&gt;Node12 -->
<g id="edge13" class="edge">
<title>Node4&#45;&gt;Node12</title>
<path fill="none" stroke="midnightblue" d="M852.24,-123.92C888.55,-114.67 948.23,-99.47 988.89,-89.11"/>
<polygon fill="midnightblue" stroke="midnightblue" points="989.96,-92.45 998.79,-86.59 988.24,-85.66 989.96,-92.45"/>
</g>
<!-- Node14 -->
<g id="node14" class="node">
<title>Node14</title>
<g id="a_node14"><a xlink:href="equivalent__polynomials_8h.html" target="_top" xlink:title=" ">
<polygon fill="white" stroke="black" points="393,-67.5 393,-86.5 536,-86.5 536,-67.5 393,-67.5"/>
<text text-anchor="middle" x="464.5" y="-74.5" font-family="Helvetica,sans-Serif" font-size="10.00">equivalent_polynomials.h</text>
</a>
</g>
</g>
<!-- Node4&#45;&gt;Node14 -->
<g id="edge15" class="edge">
<title>Node4&#45;&gt;Node14</title>
<path fill="none" stroke="midnightblue" d="M788.76,-124.79C785.64,-124.15 782.51,-123.54 779.5,-123 700.04,-108.62 608.61,-95.99 544.8,-87.8"/>
<polygon fill="midnightblue" stroke="midnightblue" points="545.16,-84.32 534.8,-86.53 544.28,-91.26 545.16,-84.32"/>
</g>
<!-- Node20 -->
<g id="node20" class="node">
<title>Node20</title>
<g id="a_node20"><a xlink:href="_arguments_dict_8h.html" target="_top" xlink:title=" ">
<polygon fill="white" stroke="black" points="810.5,-67.5 810.5,-86.5 908.5,-86.5 908.5,-67.5 810.5,-67.5"/>
<text text-anchor="middle" x="859.5" y="-74.5" font-family="Helvetica,sans-Serif" font-size="10.00">ArgumentsDict.h</text>
</a>
</g>
</g>
<!-- Node4&#45;&gt;Node20 -->
<g id="edge23" class="edge">
<title>Node4&#45;&gt;Node20</title>
<path fill="none" stroke="midnightblue" d="M826.94,-123.08C832.45,-115.46 840.53,-104.26 847.26,-94.94"/>
<polygon fill="midnightblue" stroke="midnightblue" points="850.16,-96.91 853.18,-86.75 844.49,-92.81 850.16,-96.91"/>
</g>
<!-- Node23 -->
<g id="node23" class="node">
<title>Node23</title>
<g id="a_node23"><a xlink:title=" ">
<polygon fill="white" stroke="#bfbfbf" points="1118,-6 1118,-25 1269,-25 1269,-6 1118,-6"/>
<text text-anchor="middle" x="1193.5" y="-13" font-family="Helvetica,sans-Serif" font-size="10.00">xtensor&#45;python/pyarray.hpp</text>
</a>
</g>
</g>
<!-- Node4&#45;&gt;Node23 -->
<g id="edge32" class="edge">
<title>Node4&#45;&gt;Node23</title>
<path fill="none" stroke="midnightblue" d="M839.59,-123.48C859.25,-114.64 890.71,-100.25 917.5,-87 934.61,-78.54 937.55,-73.49 955.5,-67 988.03,-55.24 1076.35,-37.86 1135.76,-26.86"/>
<polygon fill="midnightblue" stroke="midnightblue" points="1136.56,-30.27 1145.76,-25.02 1135.29,-23.39 1136.56,-30.27"/>
</g>
<!-- Node25 -->
<g id="node25" class="node">
<title>Node25</title>
<g id="a_node25"><a xlink:title=" ">
<polygon fill="white" stroke="#bfbfbf" points="1119,-67.5 1119,-86.5 1226,-86.5 1226,-67.5 1119,-67.5"/>
<text text-anchor="middle" x="1172.5" y="-74.5" font-family="Helvetica,sans-Serif" font-size="10.00">xtensor/xarray.hpp</text>
</a>
</g>
</g>
<!-- Node4&#45;&gt;Node25 -->
<g id="edge29" class="edge">
<title>Node4&#45;&gt;Node25</title>
<path fill="none" stroke="midnightblue" d="M852.05,-127.16C909.7,-118.32 1033.11,-99.38 1108.84,-87.77"/>
<polygon fill="midnightblue" stroke="midnightblue" points="1109.39,-91.22 1118.74,-86.25 1108.32,-84.3 1109.39,-91.22"/>
</g>
<!-- Node26 -->
<g id="node26" class="node">
<title>Node26</title>
<g id="a_node26"><a xlink:title=" ">
<polygon fill="white" stroke="#bfbfbf" points="1244.5,-67.5 1244.5,-86.5 1350.5,-86.5 1350.5,-67.5 1244.5,-67.5"/>
<text text-anchor="middle" x="1297.5" y="-74.5" font-family="Helvetica,sans-Serif" font-size="10.00">xtensor/xview.hpp</text>
</a>
</g>
</g>
<!-- Node4&#45;&gt;Node26 -->
<g id="edge30" class="edge">
<title>Node4&#45;&gt;Node26</title>
<path fill="none" stroke="midnightblue" d="M852.04,-128.97C919.89,-122.38 1084.97,-105.88 1234.16,-87.13"/>
<polygon fill="midnightblue" stroke="midnightblue" points="1234.93,-90.56 1244.42,-85.83 1234.06,-83.62 1234.93,-90.56"/>
</g>
<!-- Node27 -->
<g id="node27" class="node">
<title>Node27</title>
<g id="a_node27"><a xlink:title=" ">
<polygon fill="white" stroke="#bfbfbf" points="1369,-67.5 1369,-86.5 1476,-86.5 1476,-67.5 1369,-67.5"/>
<text text-anchor="middle" x="1422.5" y="-74.5" font-family="Helvetica,sans-Serif" font-size="10.00">xtensor/xfixed.hpp</text>
</a>
</g>
</g>
<!-- Node4&#45;&gt;Node27 -->
<g id="edge31" class="edge">
<title>Node4&#45;&gt;Node27</title>
<path fill="none" stroke="midnightblue" d="M852.15,-130.01C934.02,-124.72 1159.63,-109.26 1358.85,-87.01"/>
<polygon fill="midnightblue" stroke="midnightblue" points="1359.37,-90.47 1368.91,-85.87 1358.58,-83.51 1359.37,-90.47"/>
</g>
<!-- Node28 -->
<g id="node28" class="node">
<title>Node28</title>
<g id="a_node28"><a xlink:title=" ">
<polygon fill="white" stroke="#bfbfbf" points="1494.5,-67.5 1494.5,-86.5 1538.5,-86.5 1538.5,-67.5 1494.5,-67.5"/>
<text text-anchor="middle" x="1516.5" y="-74.5" font-family="Helvetica,sans-Serif" font-size="10.00">mpi.h</text>
</a>
</g>
</g>
<!-- Node4&#45;&gt;Node28 -->
<g id="edge33" class="edge">
<title>Node4&#45;&gt;Node28</title>
<path fill="none" stroke="midnightblue" d="M852.29,-132.26C947.25,-132.52 1237.01,-129.65 1484.39,-86.81"/>
<polygon fill="midnightblue" stroke="midnightblue" points="1485.04,-90.25 1494.28,-85.07 1483.83,-83.35 1485.04,-90.25"/>
</g>
<!-- Node29 -->
<g id="node29" class="node">
<title>Node29</title>
<g id="a_node29"><a xlink:href="proteus__lapack_8h.html" target="_top" xlink:title=" ">
<polygon fill="white" stroke="black" points="1556.5,-67.5 1556.5,-86.5 1656.5,-86.5 1656.5,-67.5 1556.5,-67.5"/>
<text text-anchor="middle" x="1606.5" y="-74.5" font-family="Helvetica,sans-Serif" font-size="10.00">proteus_lapack.h</text>
</a>
</g>
</g>
<!-- Node4&#45;&gt;Node29 -->
<g id="edge34" class="edge">
<title>Node4&#45;&gt;Node29</title>
<path fill="none" stroke="midnightblue" d="M852.12,-131.05C952.24,-127.85 1271.44,-115.99 1546.16,-87.05"/>
<polygon fill="midnightblue" stroke="midnightblue" points="1546.75,-90.5 1556.33,-85.97 1546.01,-83.54 1546.75,-90.5"/>
</g>
<!-- Node10&#45;&gt;Node6 -->
<g id="edge10" class="edge">
<title>Node10&#45;&gt;Node6</title>
<path fill="none" stroke="midnightblue" d="M146.33,-67.48C135.15,-58.11 116.98,-42.88 103.41,-31.51"/>
<polygon fill="midnightblue" stroke="midnightblue" points="105.57,-28.75 95.65,-25.01 101.07,-34.11 105.57,-28.75"/>
</g>
<!-- Node11&#45;&gt;Node7 -->
<g id="edge12" class="edge">
<title>Node11&#45;&gt;Node7</title>
<path fill="none" stroke="midnightblue" d="M292.86,-67.48C265.76,-57.27 220.19,-40.11 189.5,-28.55"/>
<polygon fill="midnightblue" stroke="midnightblue" points="190.69,-25.26 180.1,-25.01 188.22,-31.81 190.69,-25.26"/>
</g>
<!-- Node13 -->
<g id="node13" class="node">
<title>Node13</title>
<g id="a_node13"><a xlink:title=" ">
<polygon fill="white" stroke="#bfbfbf" points="1287,-6 1287,-25 1346,-25 1346,-6 1287,-6"/>
<text text-anchor="middle" x="1316.5" y="-13" font-family="Helvetica,sans-Serif" font-size="10.00">Python.h</text>
</a>
</g>
</g>
<!-- Node12&#45;&gt;Node13 -->
<g id="edge14" class="edge">
<title>Node12&#45;&gt;Node13</title>
<path fill="none" stroke="midnightblue" d="M1097.2,-67.48C1147.25,-60.1 1217.98,-47.93 1278.5,-31 1281.15,-30.26 1283.87,-29.41 1286.59,-28.5"/>
<polygon fill="midnightblue" stroke="midnightblue" points="1288,-31.71 1296.22,-25.03 1285.63,-25.12 1288,-31.71"/>
</g>
<!-- Node14&#45;&gt;Node6 -->
<g id="edge16" class="edge">
<title>Node14&#45;&gt;Node6</title>
<path fill="none" stroke="midnightblue" d="M392.97,-67.8C299.4,-56.9 144.29,-38.18 118.5,-31 116.34,-30.4 114.15,-29.68 111.96,-28.9"/>
<polygon fill="midnightblue" stroke="midnightblue" points="113.21,-25.63 102.63,-25.13 110.59,-32.12 113.21,-25.63"/>
</g>
<!-- Node14&#45;&gt;Node7 -->
<g id="edge18" class="edge">
<title>Node14&#45;&gt;Node7</title>
<path fill="none" stroke="midnightblue" d="M392.9,-67.73C338.46,-60.55 262.02,-48.51 196.5,-31 193.69,-30.25 190.79,-29.37 187.91,-28.43"/>
<polygon fill="midnightblue" stroke="midnightblue" points="188.91,-25.07 178.31,-25.07 186.59,-31.68 188.91,-25.07"/>
</g>
<!-- Node15 -->
<g id="node15" class="node">
<title>Node15</title>
<g id="a_node15"><a xlink:title=" ">
<polygon fill="white" stroke="#bfbfbf" points="357.5,-6 357.5,-25 409.5,-25 409.5,-6 357.5,-6"/>
<text text-anchor="middle" x="383.5" y="-13" font-family="Helvetica,sans-Serif" font-size="10.00">cassert</text>
</a>
</g>
</g>
<!-- Node14&#45;&gt;Node15 -->
<g id="edge17" class="edge">
<title>Node14&#45;&gt;Node15</title>
<path fill="none" stroke="midnightblue" d="M452.89,-67.48C440.02,-58.02 419.03,-42.6 403.49,-31.19"/>
<polygon fill="midnightblue" stroke="midnightblue" points="405.22,-28.11 395.08,-25.01 401.07,-33.75 405.22,-28.11"/>
</g>
<!-- Node16 -->
<g id="node16" class="node">
<title>Node16</title>
<g id="a_node16"><a xlink:title=" ">
<polygon fill="white" stroke="#bfbfbf" points="427.5,-6 427.5,-25 483.5,-25 483.5,-6 427.5,-6"/>
<text text-anchor="middle" x="455.5" y="-13" font-family="Helvetica,sans-Serif" font-size="10.00">iomanip</text>
</a>
</g>
</g>
<!-- Node14&#45;&gt;Node16 -->
<g id="edge19" class="edge">
<title>Node14&#45;&gt;Node16</title>
<path fill="none" stroke="midnightblue" d="M463.21,-67.48C461.94,-59.08 459.96,-45.98 458.32,-35.16"/>
<polygon fill="midnightblue" stroke="midnightblue" points="461.74,-34.37 456.79,-25.01 454.82,-35.42 461.74,-34.37"/>
</g>
<!-- Node17 -->
<g id="node17" class="node">
<title>Node17</title>
<g id="a_node17"><a xlink:href="equivalent__polynomials__coefficients_8h.html" target="_top" xlink:title=" ">
<polygon fill="white" stroke="black" points="501.5,-0.5 501.5,-30.5 635.5,-30.5 635.5,-0.5 501.5,-0.5"/>
<text text-anchor="start" x="509.5" y="-18.5" font-family="Helvetica,sans-Serif" font-size="10.00">equivalent_polynomials</text>
<text text-anchor="middle" x="568.5" y="-7.5" font-family="Helvetica,sans-Serif" font-size="10.00">_coefficients.h</text>
</a>
</g>
</g>
<!-- Node14&#45;&gt;Node17 -->
<g id="edge20" class="edge">
<title>Node14&#45;&gt;Node17</title>
<path fill="none" stroke="midnightblue" d="M479.4,-67.48C493.88,-59.19 516.37,-46.32 535.13,-35.59"/>
<polygon fill="midnightblue" stroke="midnightblue" points="537.05,-38.53 543.99,-30.52 533.57,-32.45 537.05,-38.53"/>
</g>
<!-- Node18 -->
<g id="node18" class="node">
<title>Node18</title>
<g id="a_node18"><a xlink:href="equivalent__polynomials__coefficients__quad_8h.html" target="_top" xlink:title=" ">
<polygon fill="white" stroke="black" points="653.5,-0.5 653.5,-30.5 787.5,-30.5 787.5,-0.5 653.5,-0.5"/>
<text text-anchor="start" x="661.5" y="-18.5" font-family="Helvetica,sans-Serif" font-size="10.00">equivalent_polynomials</text>
<text text-anchor="middle" x="720.5" y="-7.5" font-family="Helvetica,sans-Serif" font-size="10.00">_coefficients_quad.h</text>
</a>
</g>
</g>
<!-- Node14&#45;&gt;Node18 -->
<g id="edge21" class="edge">
<title>Node14&#45;&gt;Node18</title>
<path fill="none" stroke="midnightblue" d="M501.18,-67.48C539.98,-58.46 602.15,-44.01 650.4,-32.79"/>
<polygon fill="midnightblue" stroke="midnightblue" points="651.22,-36.2 660.17,-30.52 649.63,-29.38 651.22,-36.2"/>
</g>
<!-- Node19 -->
<g id="node19" class="node">
<title>Node19</title>
<g id="a_node19"><a xlink:href="equivalent__polynomials__utils_8h.html" target="_top" xlink:title=" ">
<polygon fill="white" stroke="black" points="205.5,-0.5 205.5,-30.5 339.5,-30.5 339.5,-0.5 205.5,-0.5"/>
<text text-anchor="start" x="213.5" y="-18.5" font-family="Helvetica,sans-Serif" font-size="10.00">equivalent_polynomials</text>
<text text-anchor="middle" x="272.5" y="-7.5" font-family="Helvetica,sans-Serif" font-size="10.00">_utils.h</text>
</a>
</g>
</g>
<!-- Node14&#45;&gt;Node19 -->
<g id="edge22" class="edge">
<title>Node14&#45;&gt;Node19</title>
<path fill="none" stroke="midnightblue" d="M436.99,-67.48C408.56,-58.66 363.4,-44.67 327.58,-33.57"/>
<polygon fill="midnightblue" stroke="midnightblue" points="328.34,-30.14 317.75,-30.52 326.27,-36.83 328.34,-30.14"/>
</g>
<!-- Node20&#45;&gt;Node9 -->
<g id="edge24" class="edge">
<title>Node20&#45;&gt;Node9</title>
<path fill="none" stroke="midnightblue" d="M854.49,-67.48C849.34,-58.73 841.19,-44.87 834.68,-33.81"/>
<polygon fill="midnightblue" stroke="midnightblue" points="837.59,-31.85 829.51,-25.01 831.56,-35.4 837.59,-31.85"/>
</g>
<!-- Node21 -->
<g id="node21" class="node">
<title>Node21</title>
<g id="a_node21"><a xlink:title=" ">
<polygon fill="white" stroke="#bfbfbf" points="862,-6 862,-25 927,-25 927,-6 862,-6"/>
<text text-anchor="middle" x="894.5" y="-13" font-family="Helvetica,sans-Serif" font-size="10.00">stdexcept</text>
</a>
</g>
</g>
<!-- Node20&#45;&gt;Node21 -->
<g id="edge25" class="edge">
<title>Node20&#45;&gt;Node21</title>
<path fill="none" stroke="midnightblue" d="M864.51,-67.48C869.66,-58.73 877.81,-44.87 884.32,-33.81"/>
<polygon fill="midnightblue" stroke="midnightblue" points="887.44,-35.4 889.49,-25.01 881.41,-31.85 887.44,-35.4"/>
</g>
<!-- Node22 -->
<g id="node22" class="node">
<title>Node22</title>
<g id="a_node22"><a xlink:title=" ">
<polygon fill="white" stroke="#bfbfbf" points="945.5,-6 945.5,-25 989.5,-25 989.5,-6 945.5,-6"/>
<text text-anchor="middle" x="967.5" y="-13" font-family="Helvetica,sans-Serif" font-size="10.00">string</text>
</a>
</g>
</g>
<!-- Node20&#45;&gt;Node22 -->
<g id="edge26" class="edge">
<title>Node20&#45;&gt;Node22</title>
<path fill="none" stroke="midnightblue" d="M874.97,-67.48C892.78,-57.67 922.24,-41.43 943.13,-29.92"/>
<polygon fill="midnightblue" stroke="midnightblue" points="944.99,-32.9 952.05,-25.01 941.61,-26.77 944.99,-32.9"/>
</g>
<!-- Node20&#45;&gt;Node23 -->
<g id="edge27" class="edge">
<title>Node20&#45;&gt;Node23</title>
<path fill="none" stroke="midnightblue" d="M907.35,-67.48C967.62,-56.74 1071.09,-38.31 1135.71,-26.79"/>
<polygon fill="midnightblue" stroke="midnightblue" points="1136.5,-30.21 1145.73,-25.01 1135.28,-23.32 1136.5,-30.21"/>
</g>
<!-- Node24 -->
<g id="node24" class="node">
<title>Node24</title>
<g id="a_node24"><a xlink:title=" ">
<polygon fill="white" stroke="#bfbfbf" points="1007.5,-6 1007.5,-25 1099.5,-25 1099.5,-6 1007.5,-6"/>
<text text-anchor="middle" x="1053.5" y="-13" font-family="Helvetica,sans-Serif" font-size="10.00">xtensor/xio.hpp</text>
</a>
</g>
</g>
<!-- Node20&#45;&gt;Node24 -->
<g id="edge28" class="edge">
<title>Node20&#45;&gt;Node24</title>
<path fill="none" stroke="midnightblue" d="M887.3,-67.48C921.15,-57.09 978.47,-39.51 1016.15,-27.95"/>
<polygon fill="midnightblue" stroke="midnightblue" points="1017.22,-31.29 1025.76,-25.01 1015.17,-24.6 1017.22,-31.29"/>
</g>
</g>
</svg>
