<?xml version="1.0" encoding="UTF-8" standalone="no"?>
<!DOCTYPE svg PUBLIC "-//W3C//DTD SVG 1.1//EN"
 "http://www.w3.org/Graphics/SVG/1.1/DTD/svg11.dtd">
<!-- Generated by graphviz version 2.50.0 (20211204.2007)
 -->
<!-- Title: RANS3PF.cpp Pages: 1 -->
<svg width="1111pt" height="207pt"
 viewBox="0.00 0.00 1110.50 207.00" xmlns="http://www.w3.org/2000/svg" xmlns:xlink="http://www.w3.org/1999/xlink">
<g id="graph0" class="graph" transform="scale(1 1) rotate(0) translate(4 203)">
<title>RANS3PF.cpp</title>
<polygon fill="white" stroke="transparent" points="-4,4 -4,-203 1106.5,-203 1106.5,4 -4,4"/>
<!-- Node1 -->
<g id="node1" class="node">
<title>Node1</title>
<g id="a_node1"><a xlink:title=" ">
<polygon fill="#bfbfbf" stroke="black" points="362,-179.5 362,-198.5 442,-198.5 442,-179.5 362,-179.5"/>
<text text-anchor="middle" x="402" y="-186.5" font-family="Helvetica,sans-Serif" font-size="10.00">RANS3PF.cpp</text>
</a>
</g>
</g>
<!-- Node2 -->
<g id="node2" class="node">
<title>Node2</title>
<g id="a_node2"><a xlink:title=" ">
<polygon fill="white" stroke="#bfbfbf" points="227,-123.5 227,-142.5 333,-142.5 333,-123.5 227,-123.5"/>
<text text-anchor="middle" x="280" y="-130.5" font-family="Helvetica,sans-Serif" font-size="10.00">pybind11/pybind11.h</text>
</a>
</g>
</g>
<!-- Node1&#45;&gt;Node2 -->
<g id="edge1" class="edge">
<title>Node1&#45;&gt;Node2</title>
<path fill="none" stroke="midnightblue" d="M382.67,-179.44C362.68,-170.6 331.26,-156.69 308.44,-146.59"/>
<polygon fill="midnightblue" stroke="midnightblue" points="309.8,-143.36 299.24,-142.52 306.97,-149.76 309.8,-143.36"/>
</g>
<!-- Node3 -->
<g id="node3" class="node">
<title>Node3</title>
<g id="a_node3"><a xlink:title=" ">
<polygon fill="white" stroke="#bfbfbf" points="351.5,-123.5 351.5,-142.5 452.5,-142.5 452.5,-123.5 351.5,-123.5"/>
<text text-anchor="middle" x="402" y="-130.5" font-family="Helvetica,sans-Serif" font-size="10.00">pybind11/stl_bind.h</text>
</a>
</g>
</g>
<!-- Node1&#45;&gt;Node3 -->
<g id="edge2" class="edge">
<title>Node1&#45;&gt;Node3</title>
<path fill="none" stroke="midnightblue" d="M402,-179.08C402,-172.01 402,-161.86 402,-152.99"/>
<polygon fill="midnightblue" stroke="midnightblue" points="405.5,-152.75 402,-142.75 398.5,-152.75 405.5,-152.75"/>
</g>
<!-- Node4 -->
<g id="node4" class="node">
<title>Node4</title>
<g id="a_node4"><a xlink:href="_r_a_n_s3_p_f_8h.html" target="_top" xlink:title=" ">
<polygon fill="white" stroke="black" points="471,-123.5 471,-142.5 541,-142.5 541,-123.5 471,-123.5"/>
<text text-anchor="middle" x="506" y="-130.5" font-family="Helvetica,sans-Serif" font-size="10.00">RANS3PF.h</text>
</a>
</g>
</g>
<!-- Node1&#45;&gt;Node4 -->
<g id="edge3" class="edge">
<title>Node1&#45;&gt;Node4</title>
<path fill="none" stroke="midnightblue" d="M418.71,-179.32C435.31,-170.7 461,-157.36 480.22,-147.39"/>
<polygon fill="midnightblue" stroke="midnightblue" points="482.07,-150.37 489.33,-142.65 478.84,-144.16 482.07,-150.37"/>
</g>
<!-- Node5 -->
<g id="node5" class="node">
<title>Node5</title>
<g id="a_node5"><a xlink:title=" ">
<polygon fill="white" stroke="#bfbfbf" points="0,-6 0,-25 44,-25 44,-6 0,-6"/>
<text text-anchor="middle" x="22" y="-13" font-family="Helvetica,sans-Serif" font-size="10.00">cmath</text>
</a>
</g>
</g>
<!-- Node4&#45;&gt;Node5 -->
<g id="edge4" class="edge">
<title>Node4&#45;&gt;Node5</title>
<path fill="none" stroke="midnightblue" d="M470.69,-124.53C467.42,-123.97 464.16,-123.44 461,-123 411.98,-116.13 50.55,-123.39 17,-87 4.29,-73.22 8.53,-50.79 14.02,-34.93"/>
<polygon fill="midnightblue" stroke="midnightblue" points="17.44,-35.78 17.82,-25.19 10.92,-33.23 17.44,-35.78"/>
</g>
<!-- Node6 -->
<g id="node6" class="node">
<title>Node6</title>
<g id="a_node6"><a xlink:title=" ">
<polygon fill="white" stroke="#bfbfbf" points="768.5,-67.5 768.5,-86.5 819.5,-86.5 819.5,-67.5 768.5,-67.5"/>
<text text-anchor="middle" x="794" y="-74.5" font-family="Helvetica,sans-Serif" font-size="10.00">valarray</text>
</a>
</g>
</g>
<!-- Node4&#45;&gt;Node6 -->
<g id="edge5" class="edge">
<title>Node4&#45;&gt;Node6</title>
<path fill="none" stroke="midnightblue" d="M541.36,-126.58C588.56,-119.15 674.93,-104.9 758.53,-86.96"/>
<polygon fill="midnightblue" stroke="midnightblue" points="759.41,-90.35 768.44,-84.81 757.92,-83.51 759.41,-90.35"/>
</g>
<!-- Node7 -->
<g id="node7" class="node">
<title>Node7</title>
<g id="a_node7"><a xlink:title=" ">
<polygon fill="white" stroke="#bfbfbf" points="62,-6 62,-25 116,-25 116,-6 62,-6"/>
<text text-anchor="middle" x="89" y="-13" font-family="Helvetica,sans-Serif" font-size="10.00">iostream</text>
</a>
</g>
</g>
<!-- Node4&#45;&gt;Node7 -->
<g id="edge6" class="edge">
<title>Node4&#45;&gt;Node7</title>
<path fill="none" stroke="midnightblue" d="M470.65,-124.82C467.39,-124.19 464.13,-123.58 461,-123 366.15,-105.54 338.38,-117.85 247,-87 228.92,-80.9 226.26,-75.15 209,-67 192.57,-59.24 149.42,-41.3 119.61,-29.03"/>
<polygon fill="midnightblue" stroke="midnightblue" points="120.65,-25.67 110.07,-25.11 117.99,-32.15 120.65,-25.67"/>
</g>
<!-- Node8 -->
<g id="node8" class="node">
<title>Node8</title>
<g id="a_node8"><a xlink:title=" ">
<polygon fill="white" stroke="#bfbfbf" points="838,-67.5 838,-86.5 882,-86.5 882,-67.5 838,-67.5"/>
<text text-anchor="middle" x="860" y="-74.5" font-family="Helvetica,sans-Serif" font-size="10.00">vector</text>
</a>
</g>
</g>
<!-- Node4&#45;&gt;Node8 -->
<g id="edge7" class="edge">
<title>Node4&#45;&gt;Node8</title>
<path fill="none" stroke="midnightblue" d="M541.18,-128.78C599.09,-123.11 718.21,-109.92 827.85,-86.98"/>
<polygon fill="midnightblue" stroke="midnightblue" points="828.69,-90.38 837.75,-84.88 827.24,-83.53 828.69,-90.38"/>
</g>
<!-- Node9 -->
<g id="node9" class="node">
<title>Node9</title>
<g id="a_node9"><a xlink:title=" ">
<polygon fill="white" stroke="#bfbfbf" points="900,-67.5 900,-86.5 930,-86.5 930,-67.5 900,-67.5"/>
<text text-anchor="middle" x="915" y="-74.5" font-family="Helvetica,sans-Serif" font-size="10.00">set</text>
</a>
</g>
</g>
<!-- Node4&#45;&gt;Node9 -->
<g id="edge8" class="edge">
<title>Node4&#45;&gt;Node9</title>
<path fill="none" stroke="midnightblue" d="M541.01,-130.74C607.58,-127.75 756.91,-118.13 889.98,-86.68"/>
<polygon fill="midnightblue" stroke="midnightblue" points="891.04,-90.03 899.94,-84.28 889.4,-83.22 891.04,-90.03"/>
</g>
<!-- Node10 -->
<g id="node10" class="node">
<title>Node10</title>
<g id="a_node10"><a xlink:title=" ">
<polygon fill="white" stroke="#bfbfbf" points="948,-67.5 948,-86.5 994,-86.5 994,-67.5 948,-67.5"/>
<text text-anchor="middle" x="971" y="-74.5" font-family="Helvetica,sans-Serif" font-size="10.00">cstring</text>
</a>
</g>
</g>
<!-- Node4&#45;&gt;Node10 -->
<g id="edge9" class="edge">
<title>Node4&#45;&gt;Node10</title>
<path fill="none" stroke="midnightblue" d="M541.09,-130.39C613.59,-126.62 785.18,-115.45 937.67,-86.95"/>
<polygon fill="midnightblue" stroke="midnightblue" points="938.52,-90.36 947.69,-85.05 937.21,-83.48 938.52,-90.36"/>
</g>
<!-- Node11 -->
<g id="node11" class="node">
<title>Node11</title>
<g id="a_node11"><a xlink:href="_comp_kernel_8h.html" target="_top" xlink:title=" ">
<polygon fill="white" stroke="black" points="26.5,-67.5 26.5,-86.5 105.5,-86.5 105.5,-67.5 26.5,-67.5"/>
<text text-anchor="middle" x="66" y="-74.5" font-family="Helvetica,sans-Serif" font-size="10.00">CompKernel.h</text>
</a>
</g>
</g>
<!-- Node4&#45;&gt;Node11 -->
<g id="edge10" class="edge">
<title>Node4&#45;&gt;Node11</title>
<path fill="none" stroke="midnightblue" d="M470.68,-124.61C467.42,-124.03 464.15,-123.48 461,-123 311.42,-100.31 269.81,-108.6 115.84,-87"/>
<polygon fill="midnightblue" stroke="midnightblue" points="115.93,-83.48 105.54,-85.54 114.94,-90.41 115.93,-83.48"/>
</g>
<!-- Node12 -->
<g id="node12" class="node">
<title>Node12</title>
<g id="a_node12"><a xlink:href="_model_factory_8h.html" target="_top" xlink:title=" ">
<polygon fill="white" stroke="black" points="256.5,-67.5 256.5,-86.5 339.5,-86.5 339.5,-67.5 256.5,-67.5"/>
<text text-anchor="middle" x="298" y="-74.5" font-family="Helvetica,sans-Serif" font-size="10.00">ModelFactory.h</text>
</a>
</g>
</g>
<!-- Node4&#45;&gt;Node12 -->
<g id="edge12" class="edge">
<title>Node4&#45;&gt;Node12</title>
<path fill="none" stroke="midnightblue" d="M473.04,-123.44C437.21,-114.14 379.84,-99.25 340.61,-89.06"/>
<polygon fill="midnightblue" stroke="midnightblue" points="341.36,-85.64 330.8,-86.52 339.6,-92.42 341.36,-85.64"/>
</g>
<!-- Node13 -->
<g id="node13" class="node">
<title>Node13</title>
<g id="a_node13"><a xlink:href="_sed_closure_8h.html" target="_top" xlink:title=" ">
<polygon fill="white" stroke="black" points="124,-67.5 124,-86.5 200,-86.5 200,-67.5 124,-67.5"/>
<text text-anchor="middle" x="162" y="-74.5" font-family="Helvetica,sans-Serif" font-size="10.00">SedClosure.h</text>
</a>
</g>
</g>
<!-- Node4&#45;&gt;Node13 -->
<g id="edge14" class="edge">
<title>Node4&#45;&gt;Node13</title>
<path fill="none" stroke="midnightblue" d="M470.66,-124.75C467.4,-124.14 464.14,-123.54 461,-123 351.68,-104.12 323.55,-104.46 214,-87 212.73,-86.8 211.44,-86.59 210.14,-86.38"/>
<polygon fill="midnightblue" stroke="midnightblue" points="210.47,-82.89 200.04,-84.7 209.33,-89.79 210.47,-82.89"/>
</g>
<!-- Node14 -->
<g id="node14" class="node">
<title>Node14</title>
<g id="a_node14"><a xlink:title=" ">
<polygon fill="white" stroke="#bfbfbf" points="678,-6 678,-25 812,-25 812,-6 678,-6"/>
<text text-anchor="middle" x="745" y="-13" font-family="Helvetica,sans-Serif" font-size="10.00">xtensor&#45;python/pyarray.hpp</text>
</a>
</g>
</g>
<!-- Node4&#45;&gt;Node14 -->
<g id="edge32" class="edge">
<title>Node4&#45;&gt;Node14</title>
<path fill="none" stroke="midnightblue" d="M523.96,-123.32C565.59,-103.2 668.84,-53.31 718.06,-29.52"/>
<polygon fill="midnightblue" stroke="midnightblue" points="719.67,-32.63 727.15,-25.12 716.63,-26.32 719.67,-32.63"/>
</g>
<!-- Node15 -->
<g id="node15" class="node">
<title>Node15</title>
<g id="a_node15"><a xlink:href="equivalent__polynomials_8h.html" target="_top" xlink:title=" ">
<polygon fill="white" stroke="black" points="358,-67.5 358,-86.5 484,-86.5 484,-67.5 358,-67.5"/>
<text text-anchor="middle" x="421" y="-74.5" font-family="Helvetica,sans-Serif" font-size="10.00">equivalent_polynomials.h</text>
</a>
</g>
</g>
<!-- Node4&#45;&gt;Node15 -->
<g id="edge18" class="edge">
<title>Node4&#45;&gt;Node15</title>
<path fill="none" stroke="midnightblue" d="M492.34,-123.32C479.08,-114.9 458.73,-101.97 443.15,-92.07"/>
<polygon fill="midnightblue" stroke="midnightblue" points="444.94,-89.06 434.62,-86.65 441.19,-94.97 444.94,-89.06"/>
</g>
<!-- Node21 -->
<g id="node21" class="node">
<title>Node21</title>
<g id="a_node21"><a xlink:href="_arguments_dict_8h.html" target="_top" xlink:title=" ">
<polygon fill="white" stroke="black" points="660,-67.5 660,-86.5 750,-86.5 750,-67.5 660,-67.5"/>
<text text-anchor="middle" x="705" y="-74.5" font-family="Helvetica,sans-Serif" font-size="10.00">ArgumentsDict.h</text>
</a>
</g>
</g>
<!-- Node4&#45;&gt;Node21 -->
<g id="edge26" class="edge">
<title>Node4&#45;&gt;Node21</title>
<path fill="none" stroke="midnightblue" d="M537.53,-123.44C571.59,-114.2 626.01,-99.44 663.52,-89.26"/>
<polygon fill="midnightblue" stroke="midnightblue" points="664.88,-92.51 673.62,-86.52 663.05,-85.76 664.88,-92.51"/>
</g>
<!-- Node11&#45;&gt;Node5 -->
<g id="edge11" class="edge">
<title>Node11&#45;&gt;Node5</title>
<path fill="none" stroke="midnightblue" d="M59.7,-67.48C53.1,-58.55 42.56,-44.31 34.31,-33.14"/>
<polygon fill="midnightblue" stroke="midnightblue" points="37.05,-30.97 28.29,-25.01 31.42,-35.13 37.05,-30.97"/>
</g>
<!-- Node12&#45;&gt;Node7 -->
<g id="edge13" class="edge">
<title>Node12&#45;&gt;Node7</title>
<path fill="none" stroke="midnightblue" d="M259.45,-67.47C224.12,-59.3 170.53,-46.02 125,-31 122.87,-30.3 120.68,-29.53 118.49,-28.73"/>
<polygon fill="midnightblue" stroke="midnightblue" points="119.6,-25.41 109.01,-25.09 117.09,-31.94 119.6,-25.41"/>
</g>
<!-- Node13&#45;&gt;Node5 -->
<g id="edge15" class="edge">
<title>Node13&#45;&gt;Node5</title>
<path fill="none" stroke="midnightblue" d="M140.57,-67.49C118.5,-58.65 83.17,-44.28 53,-31 51.81,-30.48 50.59,-29.93 49.36,-29.38"/>
<polygon fill="midnightblue" stroke="midnightblue" points="50.52,-26.06 39.97,-25.07 47.6,-32.42 50.52,-26.06"/>
</g>
<!-- Node13&#45;&gt;Node7 -->
<g id="edge16" class="edge">
<title>Node13&#45;&gt;Node7</title>
<path fill="none" stroke="midnightblue" d="M151.54,-67.48C140.05,-58.11 121.37,-42.88 107.41,-31.51"/>
<polygon fill="midnightblue" stroke="midnightblue" points="109.4,-28.61 99.44,-25.01 104.98,-34.04 109.4,-28.61"/>
</g>
<!-- Node13&#45;&gt;Node14 -->
<g id="edge17" class="edge">
<title>Node13&#45;&gt;Node14</title>
<path fill="none" stroke="midnightblue" d="M200.07,-71.8C214.73,-70.23 231.64,-68.47 247,-67 433.94,-49.11 481.93,-56.41 668,-31 676.43,-29.85 685.33,-28.4 693.98,-26.86"/>
<polygon fill="midnightblue" stroke="midnightblue" points="694.76,-30.27 703.97,-25.02 693.5,-23.39 694.76,-30.27"/>
</g>
<!-- Node15&#45;&gt;Node5 -->
<g id="edge19" class="edge">
<title>Node15&#45;&gt;Node5</title>
<path fill="none" stroke="midnightblue" d="M357.69,-68.19C354.41,-67.79 351.17,-67.39 348,-67 216.9,-50.92 179.96,-67.44 53,-31 51.07,-30.45 49.11,-29.79 47.17,-29.06"/>
<polygon fill="midnightblue" stroke="midnightblue" points="48.29,-25.73 37.72,-25.02 45.54,-32.17 48.29,-25.73"/>
</g>
<!-- Node15&#45;&gt;Node7 -->
<g id="edge21" class="edge">
<title>Node15&#45;&gt;Node7</title>
<path fill="none" stroke="midnightblue" d="M357.98,-68.16C284.51,-58.72 167.68,-42.67 125,-31 122.5,-30.32 119.93,-29.51 117.38,-28.63"/>
<polygon fill="midnightblue" stroke="midnightblue" points="118.37,-25.26 107.77,-25.02 115.9,-31.81 118.37,-25.26"/>
</g>
<!-- Node16 -->
<g id="node16" class="node">
<title>Node16</title>
<g id="a_node16"><a xlink:title=" ">
<polygon fill="white" stroke="#bfbfbf" points="610.5,-6 610.5,-25 659.5,-25 659.5,-6 610.5,-6"/>
<text text-anchor="middle" x="635" y="-13" font-family="Helvetica,sans-Serif" font-size="10.00">cassert</text>
</a>
</g>
</g>
<!-- Node15&#45;&gt;Node16 -->
<g id="edge20" class="edge">
<title>Node15&#45;&gt;Node16</title>
<path fill="none" stroke="midnightblue" d="M463,-67.47C499.83,-59.53 554.59,-46.59 601,-31 602.92,-30.36 604.88,-29.65 606.84,-28.91"/>
<polygon fill="midnightblue" stroke="midnightblue" points="608.53,-32 616.5,-25.02 605.92,-25.51 608.53,-32"/>
</g>
<!-- Node17 -->
<g id="node17" class="node">
<title>Node17</title>
<g id="a_node17"><a xlink:title=" ">
<polygon fill="white" stroke="#bfbfbf" points="134,-6 134,-25 184,-25 184,-6 134,-6"/>
<text text-anchor="middle" x="159" y="-13" font-family="Helvetica,sans-Serif" font-size="10.00">iomanip</text>
</a>
</g>
</g>
<!-- Node15&#45;&gt;Node17 -->
<g id="edge22" class="edge">
<title>Node15&#45;&gt;Node17</title>
<path fill="none" stroke="midnightblue" d="M359.66,-67.45C313.27,-60.13 248.33,-48.05 193,-31 190.86,-30.34 188.67,-29.59 186.48,-28.79"/>
<polygon fill="midnightblue" stroke="midnightblue" points="187.67,-25.49 177.09,-25.04 185.08,-32 187.67,-25.49"/>
</g>
<!-- Node18 -->
<g id="node18" class="node">
<title>Node18</title>
<g id="a_node18"><a xlink:href="equivalent__polynomials__coefficients_8h.html" target="_top" xlink:title=" ">
<polygon fill="white" stroke="black" points="202,-0.5 202,-30.5 320,-30.5 320,-0.5 202,-0.5"/>
<text text-anchor="start" x="210" y="-18.5" font-family="Helvetica,sans-Serif" font-size="10.00">equivalent_polynomials</text>
<text text-anchor="middle" x="261" y="-7.5" font-family="Helvetica,sans-Serif" font-size="10.00">_coefficients.h</text>
</a>
</g>
</g>
<!-- Node15&#45;&gt;Node18 -->
<g id="edge23" class="edge">
<title>Node15&#45;&gt;Node18</title>
<path fill="none" stroke="midnightblue" d="M398.08,-67.48C374.79,-58.81 338.03,-45.15 308.44,-34.14"/>
<polygon fill="midnightblue" stroke="midnightblue" points="309.3,-30.73 298.71,-30.52 306.86,-37.29 309.3,-30.73"/>
</g>
<!-- Node19 -->
<g id="node19" class="node">
<title>Node19</title>
<g id="a_node19"><a xlink:href="equivalent__polynomials__coefficients__quad_8h.html" target="_top" xlink:title=" ">
<polygon fill="white" stroke="black" points="338,-0.5 338,-30.5 456,-30.5 456,-0.5 338,-0.5"/>
<text text-anchor="start" x="346" y="-18.5" font-family="Helvetica,sans-Serif" font-size="10.00">equivalent_polynomials</text>
<text text-anchor="middle" x="397" y="-7.5" font-family="Helvetica,sans-Serif" font-size="10.00">_coefficients_quad.h</text>
</a>
</g>
</g>
<!-- Node15&#45;&gt;Node19 -->
<g id="edge24" class="edge">
<title>Node15&#45;&gt;Node19</title>
<path fill="none" stroke="midnightblue" d="M417.56,-67.48C414.68,-60.32 410.41,-49.75 406.51,-40.08"/>
<polygon fill="midnightblue" stroke="midnightblue" points="409.64,-38.49 402.66,-30.52 403.15,-41.11 409.64,-38.49"/>
</g>
<!-- Node20 -->
<g id="node20" class="node">
<title>Node20</title>
<g id="a_node20"><a xlink:href="equivalent__polynomials__utils_8h.html" target="_top" xlink:title=" ">
<polygon fill="white" stroke="black" points="474,-0.5 474,-30.5 592,-30.5 592,-0.5 474,-0.5"/>
<text text-anchor="start" x="482" y="-18.5" font-family="Helvetica,sans-Serif" font-size="10.00">equivalent_polynomials</text>
<text text-anchor="middle" x="533" y="-7.5" font-family="Helvetica,sans-Serif" font-size="10.00">_utils.h</text>
</a>
</g>
</g>
<!-- Node15&#45;&gt;Node20 -->
<g id="edge25" class="edge">
<title>Node15&#45;&gt;Node20</title>
<path fill="none" stroke="midnightblue" d="M437.05,-67.48C452.78,-59.12 477.3,-46.09 497.61,-35.3"/>
<polygon fill="midnightblue" stroke="midnightblue" points="499.41,-38.31 506.6,-30.52 496.13,-32.12 499.41,-38.31"/>
</g>
<!-- Node21&#45;&gt;Node14 -->
<g id="edge30" class="edge">
<title>Node21&#45;&gt;Node14</title>
<path fill="none" stroke="midnightblue" d="M710.73,-67.48C716.67,-58.64 726.12,-44.59 733.59,-33.48"/>
<polygon fill="midnightblue" stroke="midnightblue" points="736.61,-35.26 739.28,-25.01 730.8,-31.36 736.61,-35.26"/>
</g>
<!-- Node22 -->
<g id="node22" class="node">
<title>Node22</title>
<g id="a_node22"><a xlink:title=" ">
<polygon fill="white" stroke="#bfbfbf" points="830.5,-6 830.5,-25 865.5,-25 865.5,-6 830.5,-6"/>
<text text-anchor="middle" x="848" y="-13" font-family="Helvetica,sans-Serif" font-size="10.00">map</text>
</a>
</g>
</g>
<!-- Node21&#45;&gt;Node22 -->
<g id="edge27" class="edge">
<title>Node21&#45;&gt;Node22</title>
<path fill="none" stroke="midnightblue" d="M729.81,-67.38C753.54,-58.89 790.19,-45.18 821,-31 821.85,-30.61 822.7,-30.21 823.56,-29.79"/>
<polygon fill="midnightblue" stroke="midnightblue" points="825.42,-32.77 832.74,-25.11 822.25,-26.54 825.42,-32.77"/>
</g>
<!-- Node23 -->
<g id="node23" class="node">
<title>Node23</title>
<g id="a_node23"><a xlink:title=" ">
<polygon fill="white" stroke="#bfbfbf" points="883.5,-6 883.5,-25 942.5,-25 942.5,-6 883.5,-6"/>
<text text-anchor="middle" x="913" y="-13" font-family="Helvetica,sans-Serif" font-size="10.00">stdexcept</text>
</a>
</g>
</g>
<!-- Node21&#45;&gt;Node23 -->
<g id="edge28" class="edge">
<title>Node21&#45;&gt;Node23</title>
<path fill="none" stroke="midnightblue" d="M741.8,-67.45C776.46,-59.12 829.67,-45.6 875,-31 877.41,-30.22 879.89,-29.38 882.38,-28.5"/>
<polygon fill="midnightblue" stroke="midnightblue" points="883.66,-31.76 891.84,-25.03 881.24,-25.19 883.66,-31.76"/>
</g>
<!-- Node24 -->
<g id="node24" class="node">
<title>Node24</title>
<g id="a_node24"><a xlink:title=" ">
<polygon fill="white" stroke="#bfbfbf" points="960.5,-6 960.5,-25 1001.5,-25 1001.5,-6 960.5,-6"/>
<text text-anchor="middle" x="981" y="-13" font-family="Helvetica,sans-Serif" font-size="10.00">string</text>
</a>
</g>
</g>
<!-- Node21&#45;&gt;Node24 -->
<g id="edge29" class="edge">
<title>Node21&#45;&gt;Node24</title>
<path fill="none" stroke="midnightblue" d="M750.27,-68.47C816.28,-57.37 933.19,-37.27 952,-31 953.62,-30.46 955.25,-29.85 956.89,-29.18"/>
<polygon fill="midnightblue" stroke="midnightblue" points="958.36,-32.36 966,-25.01 955.45,-25.99 958.36,-32.36"/>
</g>
<!-- Node25 -->
<g id="node25" class="node">
<title>Node25</title>
<g id="a_node25"><a xlink:title=" ">
<polygon fill="white" stroke="#bfbfbf" points="1019.5,-6 1019.5,-25 1102.5,-25 1102.5,-6 1019.5,-6"/>
<text text-anchor="middle" x="1061" y="-13" font-family="Helvetica,sans-Serif" font-size="10.00">xtensor/xio.hpp</text>
</a>
</g>
</g>
<!-- Node21&#45;&gt;Node25 -->
<g id="edge31" class="edge">
<title>Node21&#45;&gt;Node25</title>
<path fill="none" stroke="midnightblue" d="M750.01,-68.56C753.39,-68.02 756.75,-67.5 760,-67 871.39,-49.9 900.83,-54.75 1011,-31 1015.39,-30.05 1019.97,-28.93 1024.48,-27.73"/>
<polygon fill="midnightblue" stroke="midnightblue" points="1025.49,-31.08 1034.19,-25.02 1023.62,-24.33 1025.49,-31.08"/>
</g>
</g>
</svg>
