<?xml version="1.0" encoding="UTF-8" standalone="no"?>
<!DOCTYPE svg PUBLIC "-//W3C//DTD SVG 1.1//EN"
 "http://www.w3.org/Graphics/SVG/1.1/DTD/svg11.dtd">
<!-- Generated by graphviz version 2.40.1 (20161225.0304)
 -->
<!-- Title: RANS3PF.h Pages: 1 -->
<svg width="939pt" height="151pt"
 viewBox="0.00 0.00 938.98 151.00" xmlns="http://www.w3.org/2000/svg" xmlns:xlink="http://www.w3.org/1999/xlink">
<g id="graph0" class="graph" transform="scale(1 1) rotate(0) translate(4 147)">
<title>RANS3PF.h</title>
<polygon fill="#ffffff" stroke="transparent" points="-4,4 -4,-147 934.9802,-147 934.9802,4 -4,4"/>
<!-- Node0 -->
<g id="node1" class="node">
<title>Node0</title>
<polygon fill="#bfbfbf" stroke="#000000" points="418.9802,-123.5 418.9802,-142.5 489.9802,-142.5 489.9802,-123.5 418.9802,-123.5"/>
<text text-anchor="middle" x="454.4802" y="-130.5" font-family="Helvetica,sans-Serif" font-size="10.00" fill="#000000">RANS3PF.h</text>
</g>
<!-- Node1 -->
<g id="node2" class="node">
<title>Node1</title>
<polygon fill="#ffffff" stroke="#bfbfbf" points="31.4802,-6 31.4802,-25 75.4802,-25 75.4802,-6 31.4802,-6"/>
<text text-anchor="middle" x="53.4802" y="-13" font-family="Helvetica,sans-Serif" font-size="10.00" fill="#000000">cmath</text>
</g>
<!-- Node0&#45;&gt;Node1 -->
<g id="edge1" class="edge">
<title>Node0&#45;&gt;Node1</title>
<path fill="none" stroke="#191970" d="M418.869,-132.0359C317.525,-128.9278 33.0475,-117.5358 5.4802,-87 -10.3161,-69.5026 11.5526,-46.4367 30.6831,-31.2986"/>
<polygon fill="#191970" stroke="#191970" points="32.9786,-33.9516 38.8653,-25.1427 28.7701,-28.358 32.9786,-33.9516"/>
</g>
<!-- Node2 -->
<g id="node3" class="node">
<title>Node2</title>
<polygon fill="#ffffff" stroke="#bfbfbf" points="636.9802,-67.5 636.9802,-86.5 687.9802,-86.5 687.9802,-67.5 636.9802,-67.5"/>
<text text-anchor="middle" x="662.4802" y="-74.5" font-family="Helvetica,sans-Serif" font-size="10.00" fill="#000000">valarray</text>
</g>
<!-- Node0&#45;&gt;Node2 -->
<g id="edge2" class="edge">
<title>Node0&#45;&gt;Node2</title>
<path fill="none" stroke="#191970" d="M489.9841,-123.7639C523.0091,-115.1273 573.8272,-101.7227 627.2363,-87.0321"/>
<polygon fill="#191970" stroke="#191970" points="628.1713,-90.4049 636.8813,-84.3728 626.3107,-83.6567 628.1713,-90.4049"/>
</g>
<!-- Node3 -->
<g id="node4" class="node">
<title>Node3</title>
<polygon fill="#ffffff" stroke="#bfbfbf" points="93.4802,-6 93.4802,-25 147.4802,-25 147.4802,-6 93.4802,-6"/>
<text text-anchor="middle" x="120.4802" y="-13" font-family="Helvetica,sans-Serif" font-size="10.00" fill="#000000">iostream</text>
</g>
<!-- Node0&#45;&gt;Node3 -->
<g id="edge3" class="edge">
<title>Node0&#45;&gt;Node3</title>
<path fill="none" stroke="#191970" d="M418.8617,-129.3843C374.5871,-124.0267 297.3152,-111.8156 235.4802,-87 216.5803,-79.4151 170.5916,-49.3494 142.8354,-30.7049"/>
<polygon fill="#191970" stroke="#191970" points="144.769,-27.7874 134.5217,-25.0958 140.8539,-33.5902 144.769,-27.7874"/>
</g>
<!-- Node4 -->
<g id="node5" class="node">
<title>Node4</title>
<polygon fill="#ffffff" stroke="#bfbfbf" points="706.4802,-67.5 706.4802,-86.5 750.4802,-86.5 750.4802,-67.5 706.4802,-67.5"/>
<text text-anchor="middle" x="728.4802" y="-74.5" font-family="Helvetica,sans-Serif" font-size="10.00" fill="#000000">vector</text>
</g>
<!-- Node0&#45;&gt;Node4 -->
<g id="edge4" class="edge">
<title>Node0&#45;&gt;Node4</title>
<path fill="none" stroke="#191970" d="M490.1997,-127.6723C535.8958,-120.5444 617.6128,-106.7502 696.1673,-87.0997"/>
<polygon fill="#191970" stroke="#191970" points="697.3948,-90.3992 706.2262,-84.5462 695.6724,-83.6144 697.3948,-90.3992"/>
</g>
<!-- Node5 -->
<g id="node6" class="node">
<title>Node5</title>
<polygon fill="#ffffff" stroke="#bfbfbf" points="768.4802,-67.5 768.4802,-86.5 798.4802,-86.5 798.4802,-67.5 768.4802,-67.5"/>
<text text-anchor="middle" x="783.4802" y="-74.5" font-family="Helvetica,sans-Serif" font-size="10.00" fill="#000000">set</text>
</g>
<!-- Node0&#45;&gt;Node5 -->
<g id="edge5" class="edge">
<title>Node0&#45;&gt;Node5</title>
<path fill="none" stroke="#191970" d="M490.2966,-130.4566C546.1025,-125.8805 657.1002,-114.3196 758.6484,-86.651"/>
<polygon fill="#191970" stroke="#191970" points="759.7497,-89.9776 768.4439,-83.9228 757.8715,-83.2342 759.7497,-89.9776"/>
</g>
<!-- Node6 -->
<g id="node7" class="node">
<title>Node6</title>
<polygon fill="#ffffff" stroke="#bfbfbf" points="816.4802,-67.5 816.4802,-86.5 862.4802,-86.5 862.4802,-67.5 816.4802,-67.5"/>
<text text-anchor="middle" x="839.4802" y="-74.5" font-family="Helvetica,sans-Serif" font-size="10.00" fill="#000000">cstring</text>
</g>
<!-- Node0&#45;&gt;Node6 -->
<g id="edge6" class="edge">
<title>Node0&#45;&gt;Node6</title>
<path fill="none" stroke="#191970" d="M490.1544,-130.4076C552.5706,-125.4296 685.6789,-112.8478 806.4076,-86.927"/>
<polygon fill="#191970" stroke="#191970" points="807.164,-90.3444 816.1872,-84.7917 805.6707,-83.5055 807.164,-90.3444"/>
</g>
<!-- Node7 -->
<g id="node8" class="node">
<title>Node7</title>
<g id="a_node8"><a xlink:href="_comp_kernel_8h.html" target="_top" xlink:title="CompKernel.h">
<polygon fill="#ffffff" stroke="#000000" points="14.9802,-67.5 14.9802,-86.5 93.9802,-86.5 93.9802,-67.5 14.9802,-67.5"/>
<text text-anchor="middle" x="54.4802" y="-74.5" font-family="Helvetica,sans-Serif" font-size="10.00" fill="#000000">CompKernel.h</text>
</a>
</g>
</g>
<!-- Node0&#45;&gt;Node7 -->
<g id="edge7" class="edge">
<title>Node0&#45;&gt;Node7</title>
<path fill="none" stroke="#191970" d="M418.732,-129.1643C356.8639,-122.3422 225.6288,-107.0634 104.2291,-87.0209"/>
<polygon fill="#191970" stroke="#191970" points="104.4549,-83.5103 94.0157,-85.3193 103.3046,-90.4152 104.4549,-83.5103"/>
</g>
<!-- Node8 -->
<g id="node9" class="node">
<title>Node8</title>
<g id="a_node9"><a xlink:href="_model_factory_8h.html" target="_top" xlink:title="ModelFactory.h">
<polygon fill="#ffffff" stroke="#000000" points="244.4802,-67.5 244.4802,-86.5 328.4802,-86.5 328.4802,-67.5 244.4802,-67.5"/>
<text text-anchor="middle" x="286.4802" y="-74.5" font-family="Helvetica,sans-Serif" font-size="10.00" fill="#000000">ModelFactory.h</text>
</a>
</g>
</g>
<!-- Node0&#45;&gt;Node8 -->
<g id="edge9" class="edge">
<title>Node0&#45;&gt;Node8</title>
<path fill="none" stroke="#191970" d="M425.6,-123.3733C397.6642,-114.0613 355.166,-99.8953 324.4933,-89.671"/>
<polygon fill="#191970" stroke="#191970" points="325.5773,-86.3431 314.9836,-86.5011 323.3636,-92.9839 325.5773,-86.3431"/>
</g>
<!-- Node9 -->
<g id="node10" class="node">
<title>Node9</title>
<g id="a_node10"><a xlink:href="_sed_closure_8h.html" target="_top" xlink:title="SedClosure.h">
<polygon fill="#ffffff" stroke="#000000" points="112.4802,-67.5 112.4802,-86.5 188.4802,-86.5 188.4802,-67.5 112.4802,-67.5"/>
<text text-anchor="middle" x="150.4802" y="-74.5" font-family="Helvetica,sans-Serif" font-size="10.00" fill="#000000">SedClosure.h</text>
</a>
</g>
</g>
<!-- Node0&#45;&gt;Node9 -->
<g id="edge11" class="edge">
<title>Node0&#45;&gt;Node9</title>
<path fill="none" stroke="#191970" d="M418.5719,-126.5553C369.6726,-117.7539 279.4131,-101.4187 202.4802,-87 201.2096,-86.7619 199.9216,-86.5197 198.622,-86.2747"/>
<polygon fill="#191970" stroke="#191970" points="199.0049,-82.785 188.5278,-84.3597 197.7002,-89.6623 199.0049,-82.785"/>
</g>
<!-- Node10 -->
<g id="node11" class="node">
<title>Node10</title>
<polygon fill="#ffffff" stroke="#bfbfbf" points="505.9802,-6 505.9802,-25 640.9802,-25 640.9802,-6 505.9802,-6"/>
<text text-anchor="middle" x="573.4802" y="-13" font-family="Helvetica,sans-Serif" font-size="10.00" fill="#000000">xtensor&#45;python/pyarray.hpp</text>
</g>
<!-- Node0&#45;&gt;Node10 -->
<g id="edge27" class="edge">
<title>Node0&#45;&gt;Node10</title>
<path fill="none" stroke="#191970" d="M464.0758,-123.0646C476.6744,-110.0642 499.535,-86.6275 519.4802,-67 531.4005,-55.2696 545.0304,-42.2739 555.6144,-32.2719"/>
<polygon fill="#191970" stroke="#191970" points="558.1589,-34.6832 563.0356,-25.2774 553.3578,-29.5892 558.1589,-34.6832"/>
</g>
<!-- Node11 -->
<g id="node12" class="node">
<title>Node11</title>
<g id="a_node12"><a xlink:href="equivalent__polynomials_8h.html" target="_top" xlink:title="equivalent_polynomials.h">
<polygon fill="#ffffff" stroke="#000000" points="346.4802,-67.5 346.4802,-86.5 472.4802,-86.5 472.4802,-67.5 346.4802,-67.5"/>
<text text-anchor="middle" x="409.4802" y="-74.5" font-family="Helvetica,sans-Serif" font-size="10.00" fill="#000000">equivalent_polynomials.h</text>
</a>
</g>
</g>
<!-- Node0&#45;&gt;Node11 -->
<g id="edge15" class="edge">
<title>Node0&#45;&gt;Node11</title>
<path fill="none" stroke="#191970" d="M446.6418,-123.2455C440.3182,-115.3761 431.2578,-104.101 423.6666,-94.6542"/>
<polygon fill="#191970" stroke="#191970" points="426.221,-92.2454 417.2288,-86.6427 420.7645,-96.6302 426.221,-92.2454"/>
</g>
<!-- Node15 -->
<g id="node16" class="node">
<title>Node15</title>
<g id="a_node16"><a xlink:href="_arguments_dict_8h.html" target="_top" xlink:title="ArgumentsDict.h">
<polygon fill="#ffffff" stroke="#000000" points="528.4802,-67.5 528.4802,-86.5 618.4802,-86.5 618.4802,-67.5 528.4802,-67.5"/>
<text text-anchor="middle" x="573.4802" y="-74.5" font-family="Helvetica,sans-Serif" font-size="10.00" fill="#000000">ArgumentsDict.h</text>
</a>
</g>
</g>
<!-- Node0&#45;&gt;Node15 -->
<g id="edge21" class="edge">
<title>Node0&#45;&gt;Node15</title>
<path fill="none" stroke="#191970" d="M474.9371,-123.3733C493.954,-114.4241 522.4978,-100.9917 543.9778,-90.8835"/>
<polygon fill="#191970" stroke="#191970" points="545.7325,-93.926 553.2903,-86.5011 542.7518,-87.5923 545.7325,-93.926"/>
</g>
<!-- Node7&#45;&gt;Node1 -->
<g id="edge8" class="edge">
<title>Node7&#45;&gt;Node1</title>
<path fill="none" stroke="#191970" d="M54.324,-67.3906C54.1854,-58.8657 53.9784,-46.1392 53.8042,-35.4235"/>
<polygon fill="#191970" stroke="#191970" points="57.3009,-35.1866 53.6387,-25.2449 50.3018,-35.3005 57.3009,-35.1866"/>
</g>
<!-- Node8&#45;&gt;Node3 -->
<g id="edge10" class="edge">
<title>Node8&#45;&gt;Node3</title>
<path fill="none" stroke="#191970" d="M257.8762,-67.4893C231.4009,-58.5425 191.0322,-44.5341 156.4802,-31 154.8685,-30.3687 153.2217,-29.7098 151.5626,-29.0351"/>
<polygon fill="#191970" stroke="#191970" points="152.6623,-25.7014 142.0858,-25.0786 149.9654,-32.1611 152.6623,-25.7014"/>
</g>
<!-- Node9&#45;&gt;Node1 -->
<g id="edge12" class="edge">
<title>Node9&#45;&gt;Node1</title>
<path fill="none" stroke="#191970" d="M135.324,-67.3906C119.8059,-57.5519 95.461,-42.1167 77.3518,-30.6351"/>
<polygon fill="#191970" stroke="#191970" points="78.8498,-27.4407 68.5301,-25.0419 75.1015,-33.3526 78.8498,-27.4407"/>
</g>
<!-- Node9&#45;&gt;Node3 -->
<g id="edge13" class="edge">
<title>Node9&#45;&gt;Node3</title>
<path fill="none" stroke="#191970" d="M145.7927,-67.3906C141.5029,-58.5965 135.0321,-45.3312 129.7068,-34.4145"/>
<polygon fill="#191970" stroke="#191970" points="132.7638,-32.6981 125.2338,-25.2449 126.4724,-35.7671 132.7638,-32.6981"/>
</g>
<!-- Node9&#45;&gt;Node10 -->
<g id="edge14" class="edge">
<title>Node9&#45;&gt;Node10</title>
<path fill="none" stroke="#191970" d="M188.6419,-72.2522C265.7659,-62.6035 437.83,-40.7907 496.4802,-31 503.6928,-29.796 511.2624,-28.4162 518.723,-26.9873"/>
<polygon fill="#191970" stroke="#191970" points="519.6425,-30.3738 528.7851,-25.02 518.2993,-23.5039 519.6425,-30.3738"/>
</g>
<!-- Node11&#45;&gt;Node1 -->
<g id="edge16" class="edge">
<title>Node11&#45;&gt;Node1</title>
<path fill="none" stroke="#191970" d="M346.4133,-68.202C252.7806,-55.1222 87.5958,-31.971 84.4802,-31 82.8215,-30.483 81.1425,-29.8855 79.469,-29.2321"/>
<polygon fill="#191970" stroke="#191970" points="80.6803,-25.9398 70.1227,-25.052 77.8223,-32.3298 80.6803,-25.9398"/>
</g>
<!-- Node11&#45;&gt;Node3 -->
<g id="edge18" class="edge">
<title>Node11&#45;&gt;Node3</title>
<path fill="none" stroke="#191970" d="M347.9414,-67.4546C284.928,-57.3863 191.4188,-41.5484 156.4802,-31 154.3102,-30.3448 152.0953,-29.5977 149.884,-28.7937"/>
<polygon fill="#191970" stroke="#191970" points="150.9482,-25.4505 140.3624,-25.0128 148.3648,-31.9563 150.9482,-25.4505"/>
</g>
<!-- Node12 -->
<g id="node13" class="node">
<title>Node12</title>
<polygon fill="#ffffff" stroke="#bfbfbf" points="165.9802,-6 165.9802,-25 214.9802,-25 214.9802,-6 165.9802,-6"/>
<text text-anchor="middle" x="190.4802" y="-13" font-family="Helvetica,sans-Serif" font-size="10.00" fill="#000000">cassert</text>
</g>
<!-- Node11&#45;&gt;Node12 -->
<g id="edge17" class="edge">
<title>Node11&#45;&gt;Node12</title>
<path fill="none" stroke="#191970" d="M360.855,-67.4721C323.1236,-59.4678 269.7904,-46.81 224.4802,-31 222.8379,-30.427 221.1667,-29.8039 219.4906,-29.1477"/>
<polygon fill="#191970" stroke="#191970" points="220.5792,-25.8081 210.0053,-25.1422 217.856,-32.2567 220.5792,-25.8081"/>
</g>
<!-- Node13 -->
<g id="node14" class="node">
<title>Node13</title>
<g id="a_node14"><a xlink:href="equivalent__polynomials__coefficients_8h.html" target="_top" xlink:title="equivalent_polynomials\l_coefficients.h">
<polygon fill="#ffffff" stroke="#000000" points="233.4802,-.5 233.4802,-30.5 351.4802,-30.5 351.4802,-.5 233.4802,-.5"/>
<text text-anchor="start" x="241.4802" y="-18.5" font-family="Helvetica,sans-Serif" font-size="10.00" fill="#000000">equivalent_polynomials</text>
<text text-anchor="middle" x="292.4802" y="-7.5" font-family="Helvetica,sans-Serif" font-size="10.00" fill="#000000">_coefficients.h</text>
</a>
</g>
</g>
<!-- Node11&#45;&gt;Node13 -->
<g id="edge19" class="edge">
<title>Node11&#45;&gt;Node13</title>
<path fill="none" stroke="#191970" d="M391.199,-67.3906C374.9246,-58.8361 350.6015,-46.0509 330.1715,-35.3121"/>
<polygon fill="#191970" stroke="#191970" points="331.5818,-32.0994 321.1017,-30.5446 328.3248,-38.2955 331.5818,-32.0994"/>
</g>
<!-- Node14 -->
<g id="node15" class="node">
<title>Node14</title>
<g id="a_node15"><a xlink:href="equivalent__polynomials__utils_8h.html" target="_top" xlink:title="equivalent_polynomials\l_utils.h">
<polygon fill="#ffffff" stroke="#000000" points="369.4802,-.5 369.4802,-30.5 487.4802,-30.5 487.4802,-.5 369.4802,-.5"/>
<text text-anchor="start" x="377.4802" y="-18.5" font-family="Helvetica,sans-Serif" font-size="10.00" fill="#000000">equivalent_polynomials</text>
<text text-anchor="middle" x="428.4802" y="-7.5" font-family="Helvetica,sans-Serif" font-size="10.00" fill="#000000">_utils.h</text>
</a>
</g>
</g>
<!-- Node11&#45;&gt;Node14 -->
<g id="edge20" class="edge">
<title>Node11&#45;&gt;Node14</title>
<path fill="none" stroke="#191970" d="M412.449,-67.3906C414.6871,-60.1463 417.8625,-49.8679 420.7976,-40.3676"/>
<polygon fill="#191970" stroke="#191970" points="424.2245,-41.1322 423.8323,-30.5446 417.5364,-39.0659 424.2245,-41.1322"/>
</g>
<!-- Node15&#45;&gt;Node10 -->
<g id="edge25" class="edge">
<title>Node15&#45;&gt;Node10</title>
<path fill="none" stroke="#191970" d="M573.4802,-67.3906C573.4802,-58.8657 573.4802,-46.1392 573.4802,-35.4235"/>
<polygon fill="#191970" stroke="#191970" points="576.9803,-35.2448 573.4802,-25.2449 569.9803,-35.2449 576.9803,-35.2448"/>
</g>
<!-- Node16 -->
<g id="node17" class="node">
<title>Node16</title>
<polygon fill="#ffffff" stroke="#bfbfbf" points="818.9802,-6 818.9802,-25 853.9802,-25 853.9802,-6 818.9802,-6"/>
<text text-anchor="middle" x="836.4802" y="-13" font-family="Helvetica,sans-Serif" font-size="10.00" fill="#000000">map</text>
</g>
<!-- Node15&#45;&gt;Node16 -->
<g id="edge22" class="edge">
<title>Node15&#45;&gt;Node16</title>
<path fill="none" stroke="#191970" d="M618.662,-68.645C684.9043,-56.3358 801.5474,-34.4098 810.4802,-31 811.3609,-30.6638 812.2458,-30.2987 813.13,-29.9102"/>
<polygon fill="#191970" stroke="#191970" points="815.0935,-32.8343 822.3537,-25.1181 811.8662,-26.6227 815.0935,-32.8343"/>
</g>
<!-- Node17 -->
<g id="node18" class="node">
<title>Node17</title>
<polygon fill="#ffffff" stroke="#bfbfbf" points="871.9802,-6 871.9802,-25 930.9802,-25 930.9802,-6 871.9802,-6"/>
<text text-anchor="middle" x="901.4802" y="-13" font-family="Helvetica,sans-Serif" font-size="10.00" fill="#000000">stdexcept</text>
</g>
<!-- Node15&#45;&gt;Node17 -->
<g id="edge23" class="edge">
<title>Node15&#45;&gt;Node17</title>
<path fill="none" stroke="#191970" d="M618.4853,-68.7119C621.8657,-68.1217 625.2258,-67.545 628.4802,-67 732.6918,-49.5475 761.6356,-59.1481 863.4802,-31 865.9439,-30.3191 868.4634,-29.5246 870.9746,-28.6618"/>
<polygon fill="#191970" stroke="#191970" points="872.3524,-31.8831 880.4836,-25.0908 869.8914,-25.3299 872.3524,-31.8831"/>
</g>
<!-- Node18 -->
<g id="node19" class="node">
<title>Node18</title>
<polygon fill="#ffffff" stroke="#bfbfbf" points="658.9802,-6 658.9802,-25 699.9802,-25 699.9802,-6 658.9802,-6"/>
<text text-anchor="middle" x="679.4802" y="-13" font-family="Helvetica,sans-Serif" font-size="10.00" fill="#000000">string</text>
</g>
<!-- Node15&#45;&gt;Node18 -->
<g id="edge24" class="edge">
<title>Node15&#45;&gt;Node18</title>
<path fill="none" stroke="#191970" d="M590.0427,-67.3906C607.234,-57.4165 634.3384,-41.6908 654.2069,-30.1633"/>
<polygon fill="#191970" stroke="#191970" points="656.1409,-33.0877 663.034,-25.0419 652.628,-27.033 656.1409,-33.0877"/>
</g>
<!-- Node19 -->
<g id="node20" class="node">
<title>Node19</title>
<polygon fill="#ffffff" stroke="#bfbfbf" points="717.9802,-6 717.9802,-25 800.9802,-25 800.9802,-6 717.9802,-6"/>
<text text-anchor="middle" x="759.4802" y="-13" font-family="Helvetica,sans-Serif" font-size="10.00" fill="#000000">xtensor/xio.hpp</text>
</g>
<!-- Node15&#45;&gt;Node19 -->
<g id="edge26" class="edge">
<title>Node15&#45;&gt;Node19</title>
<path fill="none" stroke="#191970" d="M602.5427,-67.3906C634.3464,-56.8749 685.4854,-39.966 720.6946,-28.3243"/>
<polygon fill="#191970" stroke="#191970" points="722.2261,-31.5043 730.6218,-25.0419 720.0286,-24.8582 722.2261,-31.5043"/>
</g>
</g>
</svg>
