<?xml version="1.0" encoding="UTF-8" standalone="no"?>
<!DOCTYPE svg PUBLIC "-//W3C//DTD SVG 1.1//EN"
 "http://www.w3.org/Graphics/SVG/1.1/DTD/svg11.dtd">
<!-- Generated by graphviz version 2.40.1 (20161225.0304)
 -->
<!-- Title: RANS3PSed2D.cpp Pages: 1 -->
<svg width="737pt" height="196pt"
 viewBox="0.00 0.00 736.50 196.00" xmlns="http://www.w3.org/2000/svg" xmlns:xlink="http://www.w3.org/1999/xlink">
<g id="graph0" class="graph" transform="scale(1 1) rotate(0) translate(4 192)">
<title>RANS3PSed2D.cpp</title>
<polygon fill="#ffffff" stroke="transparent" points="-4,4 -4,-192 732.5,-192 732.5,4 -4,4"/>
<!-- Node0 -->
<g id="node1" class="node">
<title>Node0</title>
<polygon fill="#bfbfbf" stroke="#000000" points="122,-168.5 122,-187.5 228,-187.5 228,-168.5 122,-168.5"/>
<text text-anchor="middle" x="175" y="-175.5" font-family="Helvetica,sans-Serif" font-size="10.00" fill="#000000">RANS3PSed2D.cpp</text>
</g>
<!-- Node1 -->
<g id="node2" class="node">
<title>Node1</title>
<polygon fill="#ffffff" stroke="#bfbfbf" points="0,-112.5 0,-131.5 106,-131.5 106,-112.5 0,-112.5"/>
<text text-anchor="middle" x="53" y="-119.5" font-family="Helvetica,sans-Serif" font-size="10.00" fill="#000000">pybind11/pybind11.h</text>
</g>
<!-- Node0&#45;&gt;Node1 -->
<g id="edge1" class="edge">
<title>Node0&#45;&gt;Node1</title>
<path fill="none" stroke="#191970" d="M154.0275,-168.3733C134.4433,-159.3838 105.0039,-145.8706 82.949,-135.7471"/>
<polygon fill="#191970" stroke="#191970" points="84.2473,-132.4919 73.6989,-131.5011 81.3271,-138.8538 84.2473,-132.4919"/>
</g>
<!-- Node2 -->
<g id="node3" class="node">
<title>Node2</title>
<polygon fill="#ffffff" stroke="#bfbfbf" points="124.5,-112.5 124.5,-131.5 225.5,-131.5 225.5,-112.5 124.5,-112.5"/>
<text text-anchor="middle" x="175" y="-119.5" font-family="Helvetica,sans-Serif" font-size="10.00" fill="#000000">pybind11/stl_bind.h</text>
</g>
<!-- Node0&#45;&gt;Node2 -->
<g id="edge2" class="edge">
<title>Node0&#45;&gt;Node2</title>
<path fill="none" stroke="#191970" d="M175,-168.2455C175,-160.9382 175,-150.6944 175,-141.7046"/>
<polygon fill="#191970" stroke="#191970" points="178.5001,-141.6426 175,-131.6427 171.5001,-141.6427 178.5001,-141.6426"/>
</g>
<!-- Node3 -->
<g id="node4" class="node">
<title>Node3</title>
<g id="a_node4"><a xlink:href="_r_a_n_s3_p_sed2_d_8h.html" target="_top" xlink:title="RANS3PSed2D.h">
<polygon fill="#ffffff" stroke="#000000" points="243.5,-112.5 243.5,-131.5 338.5,-131.5 338.5,-112.5 243.5,-112.5"/>
<text text-anchor="middle" x="291" y="-119.5" font-family="Helvetica,sans-Serif" font-size="10.00" fill="#000000">RANS3PSed2D.h</text>
</a>
</g>
</g>
<!-- Node0&#45;&gt;Node3 -->
<g id="edge3" class="edge">
<title>Node0&#45;&gt;Node3</title>
<path fill="none" stroke="#191970" d="M194.9411,-168.3733C213.4786,-159.4241 241.3028,-145.9917 262.2413,-135.8835"/>
<polygon fill="#191970" stroke="#191970" points="263.8352,-139.0006 271.3191,-131.5011 260.7919,-132.6967 263.8352,-139.0006"/>
</g>
<!-- Node4 -->
<g id="node5" class="node">
<title>Node4</title>
<polygon fill="#ffffff" stroke="#bfbfbf" points="137,-.5 137,-19.5 181,-19.5 181,-.5 137,-.5"/>
<text text-anchor="middle" x="159" y="-7.5" font-family="Helvetica,sans-Serif" font-size="10.00" fill="#000000">cmath</text>
</g>
<!-- Node3&#45;&gt;Node4 -->
<g id="edge4" class="edge">
<title>Node3&#45;&gt;Node4</title>
<path fill="none" stroke="#191970" d="M243.3134,-112.7673C220.6683,-106.0969 194.922,-94.8235 178,-76 166.6779,-63.4057 162.0706,-44.4705 160.2123,-30.1072"/>
<polygon fill="#191970" stroke="#191970" points="163.6614,-29.4028 159.2355,-19.7767 156.6925,-30.0618 163.6614,-29.4028"/>
</g>
<!-- Node5 -->
<g id="node6" class="node">
<title>Node5</title>
<polygon fill="#ffffff" stroke="#bfbfbf" points="231,-.5 231,-19.5 285,-19.5 285,-.5 231,-.5"/>
<text text-anchor="middle" x="258" y="-7.5" font-family="Helvetica,sans-Serif" font-size="10.00" fill="#000000">iostream</text>
</g>
<!-- Node3&#45;&gt;Node5 -->
<g id="edge5" class="edge">
<title>Node3&#45;&gt;Node5</title>
<path fill="none" stroke="#191970" d="M288.2137,-112.1465C284.551,-99.2346 277.8904,-75.8935 272,-56 269.3963,-47.2065 266.4491,-37.489 263.9326,-29.2598"/>
<polygon fill="#191970" stroke="#191970" points="267.218,-28.0351 260.9378,-19.5021 260.526,-30.089 267.218,-28.0351"/>
</g>
<!-- Node6 -->
<g id="node7" class="node">
<title>Node6</title>
<g id="a_node7"><a xlink:href="_comp_kernel_8h.html" target="_top" xlink:title="CompKernel.h">
<polygon fill="#ffffff" stroke="#000000" points="51.5,-56.5 51.5,-75.5 130.5,-75.5 130.5,-56.5 51.5,-56.5"/>
<text text-anchor="middle" x="91" y="-63.5" font-family="Helvetica,sans-Serif" font-size="10.00" fill="#000000">CompKernel.h</text>
</a>
</g>
</g>
<!-- Node3&#45;&gt;Node6 -->
<g id="edge6" class="edge">
<title>Node3&#45;&gt;Node6</title>
<path fill="none" stroke="#191970" d="M256.6188,-112.3733C222.9299,-102.9404 171.4518,-88.5265 134.8382,-78.2747"/>
<polygon fill="#191970" stroke="#191970" points="135.506,-74.8271 124.9326,-75.5011 133.6185,-81.5679 135.506,-74.8271"/>
</g>
<!-- Node7 -->
<g id="node8" class="node">
<title>Node7</title>
<g id="a_node8"><a xlink:href="_model_factory_8h.html" target="_top" xlink:title="ModelFactory.h">
<polygon fill="#ffffff" stroke="#000000" points="319,-56.5 319,-75.5 403,-75.5 403,-56.5 319,-56.5"/>
<text text-anchor="middle" x="361" y="-63.5" font-family="Helvetica,sans-Serif" font-size="10.00" fill="#000000">ModelFactory.h</text>
</a>
</g>
</g>
<!-- Node3&#45;&gt;Node7 -->
<g id="edge8" class="edge">
<title>Node3&#45;&gt;Node7</title>
<path fill="none" stroke="#191970" d="M303.1931,-112.2455C313.6321,-103.8943 328.8655,-91.7076 341.074,-81.9408"/>
<polygon fill="#191970" stroke="#191970" points="343.3244,-84.6227 348.9467,-75.6427 338.9515,-79.1566 343.3244,-84.6227"/>
</g>
<!-- Node8 -->
<g id="node9" class="node">
<title>Node8</title>
<g id="a_node9"><a xlink:href="_sed_closure_8h.html" target="_top" xlink:title="SedClosure.h">
<polygon fill="#ffffff" stroke="#000000" points="187,-56.5 187,-75.5 263,-75.5 263,-56.5 187,-56.5"/>
<text text-anchor="middle" x="225" y="-63.5" font-family="Helvetica,sans-Serif" font-size="10.00" fill="#000000">SedClosure.h</text>
</a>
</g>
</g>
<!-- Node3&#45;&gt;Node8 -->
<g id="edge10" class="edge">
<title>Node3&#45;&gt;Node8</title>
<path fill="none" stroke="#191970" d="M279.5037,-112.2455C269.7558,-103.9746 255.5741,-91.9416 244.1202,-82.2232"/>
<polygon fill="#191970" stroke="#191970" points="246.2541,-79.4437 236.3646,-75.6427 241.7253,-84.7813 246.2541,-79.4437"/>
</g>
<!-- Node9 -->
<g id="node10" class="node">
<title>Node9</title>
<polygon fill="#ffffff" stroke="#bfbfbf" points="303.5,-.5 303.5,-19.5 438.5,-19.5 438.5,-.5 303.5,-.5"/>
<text text-anchor="middle" x="371" y="-7.5" font-family="Helvetica,sans-Serif" font-size="10.00" fill="#000000">xtensor&#45;python/pyarray.hpp</text>
</g>
<!-- Node3&#45;&gt;Node9 -->
<g id="edge20" class="edge">
<title>Node3&#45;&gt;Node9</title>
<path fill="none" stroke="#191970" d="M329.5713,-112.4404C361.195,-103.7303 402.2711,-90.1067 412,-76 423.4779,-59.3571 407.4636,-39.5798 392.2136,-26.0425"/>
<polygon fill="#191970" stroke="#191970" points="394.3816,-23.2933 384.4581,-19.5819 389.9012,-28.6716 394.3816,-23.2933"/>
</g>
<!-- Node10 -->
<g id="node11" class="node">
<title>Node10</title>
<g id="a_node11"><a xlink:href="_arguments_dict_8h.html" target="_top" xlink:title="ArgumentsDict.h">
<polygon fill="#ffffff" stroke="#000000" points="484,-56.5 484,-75.5 574,-75.5 574,-56.5 484,-56.5"/>
<text text-anchor="middle" x="529" y="-63.5" font-family="Helvetica,sans-Serif" font-size="10.00" fill="#000000">ArgumentsDict.h</text>
</a>
</g>
</g>
<!-- Node3&#45;&gt;Node10 -->
<g id="edge14" class="edge">
<title>Node3&#45;&gt;Node10</title>
<path fill="none" stroke="#191970" d="M331.6432,-112.4369C372.2895,-102.8731 434.8913,-88.1432 478.6587,-77.845"/>
<polygon fill="#191970" stroke="#191970" points="479.5919,-81.2211 488.5244,-75.5237 477.9886,-74.4072 479.5919,-81.2211"/>
</g>
<!-- Node6&#45;&gt;Node4 -->
<g id="edge7" class="edge">
<title>Node6&#45;&gt;Node4</title>
<path fill="none" stroke="#191970" d="M102.8447,-56.2455C112.888,-47.9746 127.4995,-35.9416 139.3004,-26.2232"/>
<polygon fill="#191970" stroke="#191970" points="141.7967,-28.7015 147.291,-19.6427 137.3467,-23.298 141.7967,-28.7015"/>
</g>
<!-- Node7&#45;&gt;Node5 -->
<g id="edge9" class="edge">
<title>Node7&#45;&gt;Node5</title>
<path fill="none" stroke="#191970" d="M343.0588,-56.2455C326.96,-47.4928 303.1121,-34.527 284.7609,-24.5496"/>
<polygon fill="#191970" stroke="#191970" points="286.1929,-21.3444 275.7356,-19.6427 282.8493,-27.4942 286.1929,-21.3444"/>
</g>
<!-- Node8&#45;&gt;Node4 -->
<g id="edge11" class="edge">
<title>Node8&#45;&gt;Node4</title>
<path fill="none" stroke="#191970" d="M213.5037,-56.2455C203.7558,-47.9746 189.5741,-35.9416 178.1202,-26.2232"/>
<polygon fill="#191970" stroke="#191970" points="180.2541,-23.4437 170.3646,-19.6427 175.7253,-28.7813 180.2541,-23.4437"/>
</g>
<!-- Node8&#45;&gt;Node5 -->
<g id="edge12" class="edge">
<title>Node8&#45;&gt;Node5</title>
<path fill="none" stroke="#191970" d="M230.7482,-56.2455C235.2435,-48.617 241.6248,-37.7881 247.0825,-28.5267"/>
<polygon fill="#191970" stroke="#191970" points="250.2561,-30.035 252.3177,-19.6427 244.2253,-26.4811 250.2561,-30.035"/>
</g>
<!-- Node8&#45;&gt;Node9 -->
<g id="edge13" class="edge">
<title>Node8&#45;&gt;Node9</title>
<path fill="none" stroke="#191970" d="M250.0983,-56.3733C273.9555,-47.2226 310.0335,-33.3844 336.571,-23.2057"/>
<polygon fill="#191970" stroke="#191970" points="338.1459,-26.3503 346.2292,-19.5011 335.639,-19.8145 338.1459,-26.3503"/>
</g>
<!-- Node10&#45;&gt;Node9 -->
<g id="edge18" class="edge">
<title>Node10&#45;&gt;Node9</title>
<path fill="none" stroke="#191970" d="M501.8388,-56.3733C475.7933,-47.1419 436.2884,-33.1402 407.5021,-22.9375"/>
<polygon fill="#191970" stroke="#191970" points="408.4015,-19.5429 397.8067,-19.5011 406.063,-26.1408 408.4015,-19.5429"/>
</g>
<!-- Node11 -->
<g id="node12" class="node">
<title>Node11</title>
<polygon fill="#ffffff" stroke="#bfbfbf" points="693.5,-.5 693.5,-19.5 728.5,-19.5 728.5,-.5 693.5,-.5"/>
<text text-anchor="middle" x="711" y="-7.5" font-family="Helvetica,sans-Serif" font-size="10.00" fill="#000000">map</text>
</g>
<!-- Node10&#45;&gt;Node11 -->
<g id="edge15" class="edge">
<title>Node10&#45;&gt;Node11</title>
<path fill="none" stroke="#191970" d="M564.259,-56.4768C593.9952,-48.2521 637.8447,-35.6739 683.9012,-20.2079"/>
<polygon fill="#191970" stroke="#191970" points="685.1014,-23.4967 693.4477,-16.9707 682.8534,-16.8675 685.1014,-23.4967"/>
</g>
<!-- Node12 -->
<g id="node13" class="node">
<title>Node12</title>
<polygon fill="#ffffff" stroke="#bfbfbf" points="456.5,-.5 456.5,-19.5 515.5,-19.5 515.5,-.5 456.5,-.5"/>
<text text-anchor="middle" x="486" y="-7.5" font-family="Helvetica,sans-Serif" font-size="10.00" fill="#000000">stdexcept</text>
</g>
<!-- Node10&#45;&gt;Node12 -->
<g id="edge16" class="edge">
<title>Node10&#45;&gt;Node12</title>
<path fill="none" stroke="#191970" d="M521.51,-56.2455C515.4674,-48.3761 506.8097,-37.101 499.5559,-27.6542"/>
<polygon fill="#191970" stroke="#191970" points="502.2705,-25.4426 493.4042,-19.6427 496.7185,-29.7058 502.2705,-25.4426"/>
</g>
<!-- Node13 -->
<g id="node14" class="node">
<title>Node13</title>
<polygon fill="#ffffff" stroke="#bfbfbf" points="533.5,-.5 533.5,-19.5 574.5,-19.5 574.5,-.5 533.5,-.5"/>
<text text-anchor="middle" x="554" y="-7.5" font-family="Helvetica,sans-Serif" font-size="10.00" fill="#000000">string</text>
</g>
<!-- Node10&#45;&gt;Node13 -->
<g id="edge17" class="edge">
<title>Node10&#45;&gt;Node13</title>
<path fill="none" stroke="#191970" d="M533.3547,-56.2455C536.7244,-48.6973 541.493,-38.0158 545.5983,-28.8197"/>
<polygon fill="#191970" stroke="#191970" points="548.8147,-30.2009 549.6952,-19.6427 542.4227,-27.3473 548.8147,-30.2009"/>
</g>
<!-- Node14 -->
<g id="node15" class="node">
<title>Node14</title>
<polygon fill="#ffffff" stroke="#bfbfbf" points="592.5,-.5 592.5,-19.5 675.5,-19.5 675.5,-.5 592.5,-.5"/>
<text text-anchor="middle" x="634" y="-7.5" font-family="Helvetica,sans-Serif" font-size="10.00" fill="#000000">xtensor/xio.hpp</text>
</g>
<!-- Node10&#45;&gt;Node14 -->
<g id="edge19" class="edge">
<title>Node10&#45;&gt;Node14</title>
<path fill="none" stroke="#191970" d="M547.2896,-56.2455C563.7762,-47.4527 588.2352,-34.4079 606.9765,-24.4125"/>
<polygon fill="#191970" stroke="#191970" points="608.7435,-27.4368 615.92,-19.6427 605.4494,-21.2604 608.7435,-27.4368"/>
</g>
</g>
</svg>
