<?xml version="1.0" encoding="UTF-8" standalone="no"?>
<!DOCTYPE svg PUBLIC "-//W3C//DTD SVG 1.1//EN"
 "http://www.w3.org/Graphics/SVG/1.1/DTD/svg11.dtd">
<!-- Generated by graphviz version 2.50.0 (20211204.2007)
 -->
<!-- Title: RANS3PF2D.cpp Pages: 1 -->
<svg width="1180pt" height="207pt"
 viewBox="0.00 0.00 1180.00 207.00" xmlns="http://www.w3.org/2000/svg" xmlns:xlink="http://www.w3.org/1999/xlink">
<g id="graph0" class="graph" transform="scale(1 1) rotate(0) translate(4 203)">
<title>RANS3PF2D.cpp</title>
<polygon fill="white" stroke="transparent" points="-4,4 -4,-203 1176,-203 1176,4 -4,4"/>
<!-- Node1 -->
<g id="node1" class="node">
<title>Node1</title>
<g id="a_node1"><a xlink:title=" ">
<polygon fill="#bfbfbf" stroke="black" points="274,-179.5 274,-198.5 369,-198.5 369,-179.5 274,-179.5"/>
<text text-anchor="middle" x="321.5" y="-186.5" font-family="Helvetica,sans-Serif" font-size="10.00">RANS3PF2D.cpp</text>
</a>
</g>
</g>
<!-- Node2 -->
<g id="node2" class="node">
<title>Node2</title>
<g id="a_node2"><a xlink:title=" ">
<polygon fill="white" stroke="#bfbfbf" points="146.5,-123.5 146.5,-142.5 252.5,-142.5 252.5,-123.5 146.5,-123.5"/>
<text text-anchor="middle" x="199.5" y="-130.5" font-family="Helvetica,sans-Serif" font-size="10.00">pybind11/pybind11.h</text>
</a>
</g>
</g>
<!-- Node1&#45;&gt;Node2 -->
<g id="edge1" class="edge">
<title>Node1&#45;&gt;Node2</title>
<path fill="none" stroke="midnightblue" d="M302.17,-179.44C282.18,-170.6 250.76,-156.69 227.94,-146.59"/>
<polygon fill="midnightblue" stroke="midnightblue" points="229.3,-143.36 218.74,-142.52 226.47,-149.76 229.3,-143.36"/>
</g>
<!-- Node3 -->
<g id="node3" class="node">
<title>Node3</title>
<g id="a_node3"><a xlink:title=" ">
<polygon fill="white" stroke="#bfbfbf" points="271,-123.5 271,-142.5 372,-142.5 372,-123.5 271,-123.5"/>
<text text-anchor="middle" x="321.5" y="-130.5" font-family="Helvetica,sans-Serif" font-size="10.00">pybind11/stl_bind.h</text>
</a>
</g>
</g>
<!-- Node1&#45;&gt;Node3 -->
<g id="edge2" class="edge">
<title>Node1&#45;&gt;Node3</title>
<path fill="none" stroke="midnightblue" d="M321.5,-179.08C321.5,-172.01 321.5,-161.86 321.5,-152.99"/>
<polygon fill="midnightblue" stroke="midnightblue" points="325,-152.75 321.5,-142.75 318,-152.75 325,-152.75"/>
</g>
<!-- Node4 -->
<g id="node4" class="node">
<title>Node4</title>
<g id="a_node4"><a xlink:href="_r_a_n_s3_p_f2_d_8h.html" target="_top" xlink:title=" ">
<polygon fill="white" stroke="black" points="390.5,-123.5 390.5,-142.5 474.5,-142.5 474.5,-123.5 390.5,-123.5"/>
<text text-anchor="middle" x="432.5" y="-130.5" font-family="Helvetica,sans-Serif" font-size="10.00">RANS3PF2D.h</text>
</a>
</g>
</g>
<!-- Node1&#45;&gt;Node4 -->
<g id="edge3" class="edge">
<title>Node1&#45;&gt;Node4</title>
<path fill="none" stroke="midnightblue" d="M339.33,-179.32C357.22,-170.62 384.98,-157.12 405.55,-147.11"/>
<polygon fill="midnightblue" stroke="midnightblue" points="407.25,-150.18 414.71,-142.65 404.19,-143.88 407.25,-150.18"/>
</g>
<!-- Node5 -->
<g id="node5" class="node">
<title>Node5</title>
<g id="a_node5"><a xlink:title=" ">
<polygon fill="white" stroke="#bfbfbf" points="69.5,-6 69.5,-25 113.5,-25 113.5,-6 69.5,-6"/>
<text text-anchor="middle" x="91.5" y="-13" font-family="Helvetica,sans-Serif" font-size="10.00">cmath</text>
</a>
</g>
</g>
<!-- Node4&#45;&gt;Node5 -->
<g id="edge4" class="edge">
<title>Node4&#45;&gt;Node5</title>
<path fill="none" stroke="midnightblue" d="M390.23,-124.57C386.94,-124.03 383.67,-123.5 380.5,-123 324.18,-114.14 172.72,-120.37 126.5,-87 109.4,-74.65 100.19,-51.56 95.58,-35.17"/>
<polygon fill="midnightblue" stroke="midnightblue" points="98.89,-33.97 93.08,-25.11 92.1,-35.66 98.89,-33.97"/>
</g>
<!-- Node6 -->
<g id="node6" class="node">
<title>Node6</title>
<g id="a_node6"><a xlink:title=" ">
<polygon fill="white" stroke="#bfbfbf" points="682,-67.5 682,-86.5 733,-86.5 733,-67.5 682,-67.5"/>
<text text-anchor="middle" x="707.5" y="-74.5" font-family="Helvetica,sans-Serif" font-size="10.00">valarray</text>
</a>
</g>
</g>
<!-- Node4&#45;&gt;Node6 -->
<g id="edge5" class="edge">
<title>Node4&#45;&gt;Node6</title>
<path fill="none" stroke="midnightblue" d="M474.73,-124.96C520.73,-117.09 596.71,-103.53 671.82,-87.02"/>
<polygon fill="midnightblue" stroke="midnightblue" points="672.93,-90.36 681.93,-84.78 671.41,-83.53 672.93,-90.36"/>
</g>
<!-- Node7 -->
<g id="node7" class="node">
<title>Node7</title>
<g id="a_node7"><a xlink:title=" ">
<polygon fill="white" stroke="#bfbfbf" points="131.5,-6 131.5,-25 185.5,-25 185.5,-6 131.5,-6"/>
<text text-anchor="middle" x="158.5" y="-13" font-family="Helvetica,sans-Serif" font-size="10.00">iostream</text>
</a>
</g>
</g>
<!-- Node4&#45;&gt;Node7 -->
<g id="edge6" class="edge">
<title>Node4&#45;&gt;Node7</title>
<path fill="none" stroke="midnightblue" d="M392.6,-123.43C348.99,-113.76 282.14,-97.95 258.5,-87 227.07,-72.45 195.12,-47.84 176.05,-31.88"/>
<polygon fill="midnightblue" stroke="midnightblue" points="178.13,-29.05 168.25,-25.23 173.59,-34.38 178.13,-29.05"/>
</g>
<!-- Node8 -->
<g id="node8" class="node">
<title>Node8</title>
<g id="a_node8"><a xlink:title=" ">
<polygon fill="white" stroke="#bfbfbf" points="751.5,-67.5 751.5,-86.5 795.5,-86.5 795.5,-67.5 751.5,-67.5"/>
<text text-anchor="middle" x="773.5" y="-74.5" font-family="Helvetica,sans-Serif" font-size="10.00">vector</text>
</a>
</g>
</g>
<!-- Node4&#45;&gt;Node8 -->
<g id="edge7" class="edge">
<title>Node4&#45;&gt;Node8</title>
<path fill="none" stroke="midnightblue" d="M474.7,-127.75C532.73,-121.49 640.52,-108.4 741.21,-87.02"/>
<polygon fill="midnightblue" stroke="midnightblue" points="742.21,-90.39 751.24,-84.86 740.73,-83.55 742.21,-90.39"/>
</g>
<!-- Node9 -->
<g id="node9" class="node">
<title>Node9</title>
<g id="a_node9"><a xlink:title=" ">
<polygon fill="white" stroke="#bfbfbf" points="813.5,-67.5 813.5,-86.5 843.5,-86.5 843.5,-67.5 813.5,-67.5"/>
<text text-anchor="middle" x="828.5" y="-74.5" font-family="Helvetica,sans-Serif" font-size="10.00">set</text>
</a>
</g>
</g>
<!-- Node4&#45;&gt;Node9 -->
<g id="edge8" class="edge">
<title>Node4&#45;&gt;Node9</title>
<path fill="none" stroke="midnightblue" d="M474.65,-130.17C542.39,-126.53 679.63,-116.24 803.41,-86.71"/>
<polygon fill="midnightblue" stroke="midnightblue" points="804.55,-90.04 813.44,-84.27 802.89,-83.24 804.55,-90.04"/>
</g>
<!-- Node10 -->
<g id="node10" class="node">
<title>Node10</title>
<g id="a_node10"><a xlink:title=" ">
<polygon fill="white" stroke="#bfbfbf" points="861.5,-67.5 861.5,-86.5 907.5,-86.5 907.5,-67.5 861.5,-67.5"/>
<text text-anchor="middle" x="884.5" y="-74.5" font-family="Helvetica,sans-Serif" font-size="10.00">cstring</text>
</a>
</g>
</g>
<!-- Node4&#45;&gt;Node10 -->
<g id="edge9" class="edge">
<title>Node4&#45;&gt;Node10</title>
<path fill="none" stroke="midnightblue" d="M474.57,-129.83C548.89,-125.49 708.31,-113.91 851.36,-86.93"/>
<polygon fill="midnightblue" stroke="midnightblue" points="852.03,-90.36 861.19,-85.04 850.71,-83.49 852.03,-90.36"/>
</g>
<!-- Node11 -->
<g id="node11" class="node">
<title>Node11</title>
<g id="a_node11"><a xlink:href="_comp_kernel_8h.html" target="_top" xlink:title=" ">
<polygon fill="white" stroke="black" points="0,-67.5 0,-86.5 79,-86.5 79,-67.5 0,-67.5"/>
<text text-anchor="middle" x="39.5" y="-74.5" font-family="Helvetica,sans-Serif" font-size="10.00">CompKernel.h</text>
</a>
</g>
</g>
<!-- Node4&#45;&gt;Node11 -->
<g id="edge10" class="edge">
<title>Node4&#45;&gt;Node11</title>
<path fill="none" stroke="midnightblue" d="M390.24,-124.52C386.95,-123.99 383.67,-123.47 380.5,-123 253.35,-104.03 220.71,-105.57 93.5,-87 92.2,-86.81 90.89,-86.62 89.57,-86.42"/>
<polygon fill="midnightblue" stroke="midnightblue" points="89.7,-82.9 79.28,-84.82 88.63,-89.81 89.7,-82.9"/>
</g>
<!-- Node12 -->
<g id="node12" class="node">
<title>Node12</title>
<g id="a_node12"><a xlink:href="_model_factory_8h.html" target="_top" xlink:title=" ">
<polygon fill="white" stroke="black" points="268,-67.5 268,-86.5 351,-86.5 351,-67.5 268,-67.5"/>
<text text-anchor="middle" x="309.5" y="-74.5" font-family="Helvetica,sans-Serif" font-size="10.00">ModelFactory.h</text>
</a>
</g>
</g>
<!-- Node4&#45;&gt;Node12 -->
<g id="edge12" class="edge">
<title>Node4&#45;&gt;Node12</title>
<path fill="none" stroke="midnightblue" d="M413.01,-123.44C392.86,-114.6 361.18,-100.69 338.17,-90.59"/>
<polygon fill="midnightblue" stroke="midnightblue" points="339.46,-87.33 328.9,-86.52 336.65,-93.74 339.46,-87.33"/>
</g>
<!-- Node13 -->
<g id="node13" class="node">
<title>Node13</title>
<g id="a_node13"><a xlink:href="_sed_closure_8h.html" target="_top" xlink:title=" ">
<polygon fill="white" stroke="black" points="135.5,-67.5 135.5,-86.5 211.5,-86.5 211.5,-67.5 135.5,-67.5"/>
<text text-anchor="middle" x="173.5" y="-74.5" font-family="Helvetica,sans-Serif" font-size="10.00">SedClosure.h</text>
</a>
</g>
</g>
<!-- Node4&#45;&gt;Node13 -->
<g id="edge14" class="edge">
<title>Node4&#45;&gt;Node13</title>
<path fill="none" stroke="midnightblue" d="M391.46,-123.44C345.39,-113.84 270.69,-98.26 221.83,-88.08"/>
<polygon fill="midnightblue" stroke="midnightblue" points="222.32,-84.6 211.81,-85.99 220.89,-91.46 222.32,-84.6"/>
</g>
<!-- Node15 -->
<g id="node15" class="node">
<title>Node15</title>
<g id="a_node15"><a xlink:href="equivalent__polynomials_8h.html" target="_top" xlink:title=" ">
<polygon fill="white" stroke="black" points="369.5,-67.5 369.5,-86.5 495.5,-86.5 495.5,-67.5 369.5,-67.5"/>
<text text-anchor="middle" x="432.5" y="-74.5" font-family="Helvetica,sans-Serif" font-size="10.00">equivalent_polynomials.h</text>
</a>
</g>
</g>
<!-- Node4&#45;&gt;Node15 -->
<g id="edge18" class="edge">
<title>Node4&#45;&gt;Node15</title>
<path fill="none" stroke="midnightblue" d="M432.5,-123.08C432.5,-116.01 432.5,-105.86 432.5,-96.99"/>
<polygon fill="midnightblue" stroke="midnightblue" points="436,-96.75 432.5,-86.75 429,-96.75 436,-96.75"/>
</g>
<!-- Node21 -->
<g id="node21" class="node">
<title>Node21</title>
<g id="a_node21"><a xlink:href="_arguments_dict_8h.html" target="_top" xlink:title=" ">
<polygon fill="white" stroke="black" points="573.5,-67.5 573.5,-86.5 663.5,-86.5 663.5,-67.5 573.5,-67.5"/>
<text text-anchor="middle" x="618.5" y="-74.5" font-family="Helvetica,sans-Serif" font-size="10.00">ArgumentsDict.h</text>
</a>
</g>
</g>
<!-- Node4&#45;&gt;Node21 -->
<g id="edge26" class="edge">
<title>Node4&#45;&gt;Node21</title>
<path fill="none" stroke="midnightblue" d="M461.97,-123.44C493.67,-114.24 544.23,-99.56 579.27,-89.39"/>
<polygon fill="midnightblue" stroke="midnightblue" points="580.54,-92.67 589.17,-86.52 578.59,-85.94 580.54,-92.67"/>
</g>
<!-- Node11&#45;&gt;Node5 -->
<g id="edge11" class="edge">
<title>Node11&#45;&gt;Node5</title>
<path fill="none" stroke="midnightblue" d="M46.95,-67.48C54.83,-58.46 67.44,-44.02 77.24,-32.81"/>
<polygon fill="midnightblue" stroke="midnightblue" points="80.12,-34.84 84.06,-25.01 74.85,-30.24 80.12,-34.84"/>
</g>
<!-- Node12&#45;&gt;Node7 -->
<g id="edge13" class="edge">
<title>Node12&#45;&gt;Node7</title>
<path fill="none" stroke="midnightblue" d="M287.43,-67.44C264.26,-58.43 226.78,-43.82 194.5,-31 192.86,-30.35 191.19,-29.68 189.49,-29.01"/>
<polygon fill="midnightblue" stroke="midnightblue" points="190.39,-25.6 179.81,-25.12 187.79,-32.09 190.39,-25.6"/>
</g>
<!-- Node13&#45;&gt;Node5 -->
<g id="edge15" class="edge">
<title>Node13&#45;&gt;Node5</title>
<path fill="none" stroke="midnightblue" d="M161.75,-67.48C148.72,-58.02 127.46,-42.6 111.74,-31.19"/>
<polygon fill="midnightblue" stroke="midnightblue" points="113.38,-28.05 103.23,-25.01 109.27,-33.71 113.38,-28.05"/>
</g>
<!-- Node13&#45;&gt;Node7 -->
<g id="edge16" class="edge">
<title>Node13&#45;&gt;Node7</title>
<path fill="none" stroke="midnightblue" d="M171.35,-67.48C169.21,-58.99 165.86,-45.7 163.12,-34.82"/>
<polygon fill="midnightblue" stroke="midnightblue" points="166.48,-33.85 160.65,-25.01 159.7,-35.56 166.48,-33.85"/>
</g>
<!-- Node14 -->
<g id="node14" class="node">
<title>Node14</title>
<g id="a_node14"><a xlink:title=" ">
<polygon fill="white" stroke="#bfbfbf" points="611.5,-6 611.5,-25 745.5,-25 745.5,-6 611.5,-6"/>
<text text-anchor="middle" x="678.5" y="-13" font-family="Helvetica,sans-Serif" font-size="10.00">xtensor&#45;python/pyarray.hpp</text>
</a>
</g>
</g>
<!-- Node13&#45;&gt;Node14 -->
<g id="edge17" class="edge">
<title>Node13&#45;&gt;Node14</title>
<path fill="none" stroke="midnightblue" d="M211.58,-71.96C226.25,-70.4 243.15,-68.62 258.5,-67 411.38,-50.91 450.42,-53.42 602.5,-31 610.53,-29.82 619,-28.38 627.27,-26.88"/>
<polygon fill="midnightblue" stroke="midnightblue" points="628,-30.31 637.19,-25.04 626.72,-23.43 628,-30.31"/>
</g>
<!-- Node15&#45;&gt;Node5 -->
<g id="edge19" class="edge">
<title>Node15&#45;&gt;Node5</title>
<path fill="none" stroke="midnightblue" d="M369.45,-67.85C285.71,-56.88 145.62,-37.92 122.5,-31 120.62,-30.44 118.71,-29.78 116.81,-29.06"/>
<polygon fill="midnightblue" stroke="midnightblue" points="118.13,-25.82 107.56,-25.1 115.37,-32.25 118.13,-25.82"/>
</g>
<!-- Node15&#45;&gt;Node7 -->
<g id="edge21" class="edge">
<title>Node15&#45;&gt;Node7</title>
<path fill="none" stroke="midnightblue" d="M369.32,-67.51C320.89,-60.17 252.71,-48.05 194.5,-31 192.07,-30.29 189.57,-29.47 187.08,-28.6"/>
<polygon fill="midnightblue" stroke="midnightblue" points="188.28,-25.31 177.68,-25.04 185.8,-31.85 188.28,-25.31"/>
</g>
<!-- Node16 -->
<g id="node16" class="node">
<title>Node16</title>
<g id="a_node16"><a xlink:title=" ">
<polygon fill="white" stroke="#bfbfbf" points="340,-6 340,-25 389,-25 389,-6 340,-6"/>
<text text-anchor="middle" x="364.5" y="-13" font-family="Helvetica,sans-Serif" font-size="10.00">cassert</text>
</a>
</g>
</g>
<!-- Node15&#45;&gt;Node16 -->
<g id="edge20" class="edge">
<title>Node15&#45;&gt;Node16</title>
<path fill="none" stroke="midnightblue" d="M422.76,-67.48C412.15,-58.2 394.98,-43.17 382.02,-31.83"/>
<polygon fill="midnightblue" stroke="midnightblue" points="384.06,-28.96 374.22,-25.01 379.45,-34.23 384.06,-28.96"/>
</g>
<!-- Node17 -->
<g id="node17" class="node">
<title>Node17</title>
<g id="a_node17"><a xlink:title=" ">
<polygon fill="white" stroke="#bfbfbf" points="407.5,-6 407.5,-25 457.5,-25 457.5,-6 407.5,-6"/>
<text text-anchor="middle" x="432.5" y="-13" font-family="Helvetica,sans-Serif" font-size="10.00">iomanip</text>
</a>
</g>
</g>
<!-- Node15&#45;&gt;Node17 -->
<g id="edge22" class="edge">
<title>Node15&#45;&gt;Node17</title>
<path fill="none" stroke="midnightblue" d="M432.5,-67.48C432.5,-59.08 432.5,-45.98 432.5,-35.16"/>
<polygon fill="midnightblue" stroke="midnightblue" points="436,-35.01 432.5,-25.01 429,-35.01 436,-35.01"/>
</g>
<!-- Node18 -->
<g id="node18" class="node">
<title>Node18</title>
<g id="a_node18"><a xlink:href="equivalent__polynomials__coefficients_8h.html" target="_top" xlink:title=" ">
<polygon fill="white" stroke="black" points="475.5,-0.5 475.5,-30.5 593.5,-30.5 593.5,-0.5 475.5,-0.5"/>
<text text-anchor="start" x="483.5" y="-18.5" font-family="Helvetica,sans-Serif" font-size="10.00">equivalent_polynomials</text>
<text text-anchor="middle" x="534.5" y="-7.5" font-family="Helvetica,sans-Serif" font-size="10.00">_coefficients.h</text>
</a>
</g>
</g>
<!-- Node15&#45;&gt;Node18 -->
<g id="edge23" class="edge">
<title>Node15&#45;&gt;Node18</title>
<path fill="none" stroke="midnightblue" d="M447.11,-67.48C461.32,-59.19 483.37,-46.32 501.77,-35.59"/>
<polygon fill="midnightblue" stroke="midnightblue" points="503.59,-38.58 510.46,-30.52 500.06,-32.54 503.59,-38.58"/>
</g>
<!-- Node19 -->
<g id="node19" class="node">
<title>Node19</title>
<g id="a_node19"><a xlink:href="equivalent__polynomials__coefficients__quad_8h.html" target="_top" xlink:title=" ">
<polygon fill="white" stroke="black" points="763.5,-0.5 763.5,-30.5 881.5,-30.5 881.5,-0.5 763.5,-0.5"/>
<text text-anchor="start" x="771.5" y="-18.5" font-family="Helvetica,sans-Serif" font-size="10.00">equivalent_polynomials</text>
<text text-anchor="middle" x="822.5" y="-7.5" font-family="Helvetica,sans-Serif" font-size="10.00">_coefficients_quad.h</text>
</a>
</g>
</g>
<!-- Node15&#45;&gt;Node19 -->
<g id="edge24" class="edge">
<title>Node15&#45;&gt;Node19</title>
<path fill="none" stroke="midnightblue" d="M495.64,-68.53C558.49,-60.78 657.92,-47.71 753.12,-31.17"/>
<polygon fill="midnightblue" stroke="midnightblue" points="753.96,-34.58 763.21,-29.4 752.76,-27.68 753.96,-34.58"/>
</g>
<!-- Node20 -->
<g id="node20" class="node">
<title>Node20</title>
<g id="a_node20"><a xlink:href="equivalent__polynomials__utils_8h.html" target="_top" xlink:title=" ">
<polygon fill="white" stroke="black" points="203.5,-0.5 203.5,-30.5 321.5,-30.5 321.5,-0.5 203.5,-0.5"/>
<text text-anchor="start" x="211.5" y="-18.5" font-family="Helvetica,sans-Serif" font-size="10.00">equivalent_polynomials</text>
<text text-anchor="middle" x="262.5" y="-7.5" font-family="Helvetica,sans-Serif" font-size="10.00">_utils.h</text>
</a>
</g>
</g>
<!-- Node15&#45;&gt;Node20 -->
<g id="edge25" class="edge">
<title>Node15&#45;&gt;Node20</title>
<path fill="none" stroke="midnightblue" d="M408.14,-67.48C383.18,-58.74 343.66,-44.91 312.09,-33.86"/>
<polygon fill="midnightblue" stroke="midnightblue" points="313.16,-30.52 302.57,-30.52 310.85,-37.13 313.16,-30.52"/>
</g>
<!-- Node21&#45;&gt;Node14 -->
<g id="edge30" class="edge">
<title>Node21&#45;&gt;Node14</title>
<path fill="none" stroke="midnightblue" d="M627.1,-67.48C636.36,-58.28 651.32,-43.46 662.71,-32.16"/>
<polygon fill="midnightblue" stroke="midnightblue" points="665.28,-34.54 669.92,-25.01 660.35,-29.57 665.28,-34.54"/>
</g>
<!-- Node22 -->
<g id="node22" class="node">
<title>Node22</title>
<g id="a_node22"><a xlink:title=" ">
<polygon fill="white" stroke="#bfbfbf" points="900,-6 900,-25 935,-25 935,-6 900,-6"/>
<text text-anchor="middle" x="917.5" y="-13" font-family="Helvetica,sans-Serif" font-size="10.00">map</text>
</a>
</g>
</g>
<!-- Node21&#45;&gt;Node22 -->
<g id="edge27" class="edge">
<title>Node21&#45;&gt;Node22</title>
<path fill="none" stroke="midnightblue" d="M663.76,-68.56C740.76,-55.9 889.16,-31.46 890.5,-31 891.75,-30.58 893,-30.1 894.26,-29.58"/>
<polygon fill="midnightblue" stroke="midnightblue" points="896.11,-32.57 903.6,-25.09 893.07,-26.27 896.11,-32.57"/>
</g>
<!-- Node23 -->
<g id="node23" class="node">
<title>Node23</title>
<g id="a_node23"><a xlink:title=" ">
<polygon fill="white" stroke="#bfbfbf" points="953,-6 953,-25 1012,-25 1012,-6 953,-6"/>
<text text-anchor="middle" x="982.5" y="-13" font-family="Helvetica,sans-Serif" font-size="10.00">stdexcept</text>
</a>
</g>
</g>
<!-- Node21&#45;&gt;Node23 -->
<g id="edge28" class="edge">
<title>Node21&#45;&gt;Node23</title>
<path fill="none" stroke="midnightblue" d="M663.51,-68.52C666.89,-68 670.25,-67.48 673.5,-67 793.69,-49.19 826.72,-60.86 944.5,-31 947.32,-30.28 950.22,-29.42 953.1,-28.48"/>
<polygon fill="midnightblue" stroke="midnightblue" points="954.43,-31.72 962.67,-25.06 952.07,-25.13 954.43,-31.72"/>
</g>
<!-- Node24 -->
<g id="node24" class="node">
<title>Node24</title>
<g id="a_node24"><a xlink:title=" ">
<polygon fill="white" stroke="#bfbfbf" points="1030,-6 1030,-25 1071,-25 1071,-6 1030,-6"/>
<text text-anchor="middle" x="1050.5" y="-13" font-family="Helvetica,sans-Serif" font-size="10.00">string</text>
</a>
</g>
</g>
<!-- Node21&#45;&gt;Node24 -->
<g id="edge29" class="edge">
<title>Node21&#45;&gt;Node24</title>
<path fill="none" stroke="midnightblue" d="M663.79,-68.37C667.07,-67.89 670.34,-67.42 673.5,-67 827.63,-46.44 872.21,-74.47 1021.5,-31 1023.17,-30.51 1024.86,-29.93 1026.55,-29.29"/>
<polygon fill="midnightblue" stroke="midnightblue" points="1028.18,-32.39 1035.87,-25.1 1025.31,-26 1028.18,-32.39"/>
</g>
<!-- Node25 -->
<g id="node25" class="node">
<title>Node25</title>
<g id="a_node25"><a xlink:title=" ">
<polygon fill="white" stroke="#bfbfbf" points="1089,-6 1089,-25 1172,-25 1172,-6 1089,-6"/>
<text text-anchor="middle" x="1130.5" y="-13" font-family="Helvetica,sans-Serif" font-size="10.00">xtensor/xio.hpp</text>
</a>
</g>
</g>
<!-- Node21&#45;&gt;Node25 -->
<g id="edge31" class="edge">
<title>Node21&#45;&gt;Node25</title>
<path fill="none" stroke="midnightblue" d="M663.78,-68.32C667.07,-67.84 670.33,-67.4 673.5,-67 853.67,-44.32 902.01,-64.45 1080.5,-31 1085.19,-30.12 1090.08,-28.99 1094.88,-27.74"/>
<polygon fill="midnightblue" stroke="midnightblue" points="1095.82,-31.11 1104.52,-25.07 1093.95,-24.37 1095.82,-31.11"/>
</g>
</g>
</svg>
