<?xml version="1.0" encoding="UTF-8" standalone="no"?>
<!DOCTYPE svg PUBLIC "-//W3C//DTD SVG 1.1//EN"
 "http://www.w3.org/Graphics/SVG/1.1/DTD/svg11.dtd">
<!-- Generated by graphviz version 2.40.1 (20161225.0304)
 -->
<!-- Title: RANS2P2D.cpp Pages: 1 -->
<svg width="1145pt" height="207pt"
 viewBox="0.00 0.00 1144.50 207.00" xmlns="http://www.w3.org/2000/svg" xmlns:xlink="http://www.w3.org/1999/xlink">
<g id="graph0" class="graph" transform="scale(1 1) rotate(0) translate(4 203)">
<title>RANS2P2D.cpp</title>
<polygon fill="#ffffff" stroke="transparent" points="-4,4 -4,-203 1140.5,-203 1140.5,4 -4,4"/>
<!-- Node0 -->
<g id="node1" class="node">
<title>Node0</title>
<polygon fill="#bfbfbf" stroke="#000000" points="281,-179.5 281,-198.5 370,-198.5 370,-179.5 281,-179.5"/>
<text text-anchor="middle" x="325.5" y="-186.5" font-family="Helvetica,sans-Serif" font-size="10.00" fill="#000000">RANS2P2D.cpp</text>
</g>
<!-- Node1 -->
<g id="node2" class="node">
<title>Node1</title>
<polygon fill="#ffffff" stroke="#bfbfbf" points="150.5,-123.5 150.5,-142.5 256.5,-142.5 256.5,-123.5 150.5,-123.5"/>
<text text-anchor="middle" x="203.5" y="-130.5" font-family="Helvetica,sans-Serif" font-size="10.00" fill="#000000">pybind11/pybind11.h</text>
</g>
<!-- Node0&#45;&gt;Node1 -->
<g id="edge1" class="edge">
<title>Node0&#45;&gt;Node1</title>
<path fill="none" stroke="#191970" d="M304.5275,-179.3733C284.9433,-170.3838 255.5039,-156.8706 233.449,-146.7471"/>
<polygon fill="#191970" stroke="#191970" points="234.7473,-143.4919 224.1989,-142.5011 231.8271,-149.8538 234.7473,-143.4919"/>
</g>
<!-- Node2 -->
<g id="node3" class="node">
<title>Node2</title>
<polygon fill="#ffffff" stroke="#bfbfbf" points="275,-123.5 275,-142.5 376,-142.5 376,-123.5 275,-123.5"/>
<text text-anchor="middle" x="325.5" y="-130.5" font-family="Helvetica,sans-Serif" font-size="10.00" fill="#000000">pybind11/stl_bind.h</text>
</g>
<!-- Node0&#45;&gt;Node2 -->
<g id="edge2" class="edge">
<title>Node0&#45;&gt;Node2</title>
<path fill="none" stroke="#191970" d="M325.5,-179.2455C325.5,-171.9382 325.5,-161.6944 325.5,-152.7046"/>
<polygon fill="#191970" stroke="#191970" points="329.0001,-152.6426 325.5,-142.6427 322.0001,-152.6427 329.0001,-152.6426"/>
</g>
<!-- Node3 -->
<g id="node4" class="node">
<title>Node3</title>
<g id="a_node4"><a xlink:href="_r_a_n_s2_p2_d_8h.html" target="_top" xlink:title="RANS2P2D.h">
<polygon fill="#ffffff" stroke="#000000" points="394.5,-123.5 394.5,-142.5 472.5,-142.5 472.5,-123.5 394.5,-123.5"/>
<text text-anchor="middle" x="433.5" y="-130.5" font-family="Helvetica,sans-Serif" font-size="10.00" fill="#000000">RANS2P2D.h</text>
</a>
</g>
</g>
<!-- Node0&#45;&gt;Node3 -->
<g id="edge3" class="edge">
<title>Node0&#45;&gt;Node3</title>
<path fill="none" stroke="#191970" d="M344.3122,-179.2455C361.3473,-170.4125 386.6575,-157.2887 405.9681,-147.2758"/>
<polygon fill="#191970" stroke="#191970" points="407.637,-150.353 414.9034,-142.6427 404.4147,-144.1388 407.637,-150.353"/>
</g>
<!-- Node4 -->
<g id="node5" class="node">
<title>Node4</title>
<polygon fill="#ffffff" stroke="#bfbfbf" points="0,-67.5 0,-86.5 51,-86.5 51,-67.5 0,-67.5"/>
<text text-anchor="middle" x="25.5" y="-74.5" font-family="Helvetica,sans-Serif" font-size="10.00" fill="#000000">valarray</text>
</g>
<!-- Node3&#45;&gt;Node4 -->
<g id="edge4" class="edge">
<title>Node3&#45;&gt;Node4</title>
<path fill="none" stroke="#191970" d="M394.2423,-124.6608C390.9533,-124.0619 387.6735,-123.4985 384.5,-123 244.1574,-100.9533 203.7856,-114.9514 61.3534,-87.1054"/>
<polygon fill="#191970" stroke="#191970" points="61.8622,-83.638 51.3713,-85.1187 60.4958,-90.5034 61.8622,-83.638"/>
</g>
<!-- Node5 -->
<g id="node6" class="node">
<title>Node5</title>
<polygon fill="#ffffff" stroke="#bfbfbf" points="154.5,-6 154.5,-25 198.5,-25 198.5,-6 154.5,-6"/>
<text text-anchor="middle" x="176.5" y="-13" font-family="Helvetica,sans-Serif" font-size="10.00" fill="#000000">cmath</text>
</g>
<!-- Node3&#45;&gt;Node5 -->
<g id="edge5" class="edge">
<title>Node3&#45;&gt;Node5</title>
<path fill="none" stroke="#191970" d="M394.4602,-124.9847C391.0925,-124.3079 387.7369,-123.6385 384.5,-123 300.6066,-106.4503 258.0877,-145.2648 195.5,-87 181.4456,-73.9163 177.3266,-51.7298 176.3318,-35.5343"/>
<polygon fill="#191970" stroke="#191970" points="179.8286,-35.366 176.0586,-25.4646 172.8312,-35.5559 179.8286,-35.366"/>
</g>
<!-- Node6 -->
<g id="node7" class="node">
<title>Node6</title>
<polygon fill="#ffffff" stroke="#bfbfbf" points="224.5,-6 224.5,-25 278.5,-25 278.5,-6 224.5,-6"/>
<text text-anchor="middle" x="251.5" y="-13" font-family="Helvetica,sans-Serif" font-size="10.00" fill="#000000">iostream</text>
</g>
<!-- Node3&#45;&gt;Node6 -->
<g id="edge6" class="edge">
<title>Node3&#45;&gt;Node6</title>
<path fill="none" stroke="#191970" d="M418.3077,-123.3425C403.7207,-114.0583 381.0756,-99.6151 361.5,-87 331.379,-67.5891 296.736,-45.0327 274.5048,-30.5279"/>
<polygon fill="#191970" stroke="#191970" points="276.354,-27.5554 266.0669,-25.0203 272.5279,-33.4172 276.354,-27.5554"/>
</g>
<!-- Node7 -->
<g id="node8" class="node">
<title>Node7</title>
<polygon fill="#ffffff" stroke="#bfbfbf" points="514.5,-67.5 514.5,-86.5 544.5,-86.5 544.5,-67.5 514.5,-67.5"/>
<text text-anchor="middle" x="529.5" y="-74.5" font-family="Helvetica,sans-Serif" font-size="10.00" fill="#000000">set</text>
</g>
<!-- Node3&#45;&gt;Node7 -->
<g id="edge7" class="edge">
<title>Node3&#45;&gt;Node7</title>
<path fill="none" stroke="#191970" d="M450.2219,-123.2455C465.4515,-114.3616 488.1219,-101.1372 505.3236,-91.1029"/>
<polygon fill="#191970" stroke="#191970" points="507.3612,-93.9663 514.2355,-85.9043 503.8341,-87.9198 507.3612,-93.9663"/>
</g>
<!-- Node8 -->
<g id="node9" class="node">
<title>Node8</title>
<polygon fill="#ffffff" stroke="#bfbfbf" points="637,-6 637,-25 672,-25 672,-6 637,-6"/>
<text text-anchor="middle" x="654.5" y="-13" font-family="Helvetica,sans-Serif" font-size="10.00" fill="#000000">map</text>
</g>
<!-- Node3&#45;&gt;Node8 -->
<g id="edge8" class="edge">
<title>Node3&#45;&gt;Node8</title>
<path fill="none" stroke="#191970" d="M464.5086,-123.4948C489.3033,-115.3374 524.5773,-102.4657 553.5,-87 583.7008,-70.8509 615.4525,-47.0896 635.1133,-31.4581"/>
<polygon fill="#191970" stroke="#191970" points="637.4104,-34.1021 643.0031,-25.1037 633.0196,-28.6504 637.4104,-34.1021"/>
</g>
<!-- Node9 -->
<g id="node10" class="node">
<title>Node9</title>
<g id="a_node10"><a xlink:href="_comp_kernel_8h.html" target="_top" xlink:title="CompKernel.h">
<polygon fill="#ffffff" stroke="#000000" points="69,-67.5 69,-86.5 148,-86.5 148,-67.5 69,-67.5"/>
<text text-anchor="middle" x="108.5" y="-74.5" font-family="Helvetica,sans-Serif" font-size="10.00" fill="#000000">CompKernel.h</text>
</a>
</g>
</g>
<!-- Node3&#45;&gt;Node9 -->
<g id="edge9" class="edge">
<title>Node3&#45;&gt;Node9</title>
<path fill="none" stroke="#191970" d="M394.4786,-124.8879C391.1069,-124.2321 387.7454,-123.594 384.5,-123 286.178,-105.0027 260.9817,-104.1015 162.5,-87 161.0322,-86.7451 159.5424,-86.4841 158.0388,-86.2186"/>
<polygon fill="#191970" stroke="#191970" points="158.4613,-82.7387 148.0008,-84.4202 157.2268,-89.629 158.4613,-82.7387"/>
</g>
<!-- Node10 -->
<g id="node11" class="node">
<title>Node10</title>
<g id="a_node11"><a xlink:href="_mixed_model_factory_8h.html" target="_top" xlink:title="MixedModelFactory.h">
<polygon fill="#ffffff" stroke="#000000" points="204.5,-67.5 204.5,-86.5 314.5,-86.5 314.5,-67.5 204.5,-67.5"/>
<text text-anchor="middle" x="259.5" y="-74.5" font-family="Helvetica,sans-Serif" font-size="10.00" fill="#000000">MixedModelFactory.h</text>
</a>
</g>
</g>
<!-- Node3&#45;&gt;Node10 -->
<g id="edge11" class="edge">
<title>Node3&#45;&gt;Node10</title>
<path fill="none" stroke="#191970" d="M403.5883,-123.3733C374.6548,-114.0613 330.6389,-99.8953 298.8707,-89.671"/>
<polygon fill="#191970" stroke="#191970" points="299.6128,-86.2331 289.0213,-86.5011 297.4682,-92.8965 299.6128,-86.2331"/>
</g>
<!-- Node11 -->
<g id="node12" class="node">
<title>Node11</title>
<g id="a_node12"><a xlink:href="_py_embedded_functions_8h.html" target="_top" xlink:title="PyEmbeddedFunctions.h">
<polygon fill="#ffffff" stroke="#000000" points="984.5,-67.5 984.5,-86.5 1110.5,-86.5 1110.5,-67.5 984.5,-67.5"/>
<text text-anchor="middle" x="1047.5" y="-74.5" font-family="Helvetica,sans-Serif" font-size="10.00" fill="#000000">PyEmbeddedFunctions.h</text>
</a>
</g>
</g>
<!-- Node3&#45;&gt;Node11 -->
<g id="edge13" class="edge">
<title>Node3&#45;&gt;Node11</title>
<path fill="none" stroke="#191970" d="M472.8425,-129.4118C573.7326,-120.2101 842.91,-95.6597 973.88,-83.7145"/>
<polygon fill="#191970" stroke="#191970" points="974.5695,-87.1663 984.2103,-82.7724 973.9337,-80.1952 974.5695,-87.1663"/>
</g>
<!-- Node13 -->
<g id="node14" class="node">
<title>Node13</title>
<g id="a_node14"><a xlink:href="equivalent__polynomials_8h.html" target="_top" xlink:title="equivalent_polynomials.h">
<polygon fill="#ffffff" stroke="#000000" points="370.5,-67.5 370.5,-86.5 496.5,-86.5 496.5,-67.5 370.5,-67.5"/>
<text text-anchor="middle" x="433.5" y="-74.5" font-family="Helvetica,sans-Serif" font-size="10.00" fill="#000000">equivalent_polynomials.h</text>
</a>
</g>
</g>
<!-- Node3&#45;&gt;Node13 -->
<g id="edge15" class="edge">
<title>Node3&#45;&gt;Node13</title>
<path fill="none" stroke="#191970" d="M433.5,-123.2455C433.5,-115.9382 433.5,-105.6944 433.5,-96.7046"/>
<polygon fill="#191970" stroke="#191970" points="437.0001,-96.6426 433.5,-86.6427 430.0001,-96.6427 437.0001,-96.6426"/>
</g>
<!-- Node17 -->
<g id="node18" class="node">
<title>Node17</title>
<g id="a_node18"><a xlink:href="_arguments_dict_8h.html" target="_top" xlink:title="ArgumentsDict.h">
<polygon fill="#ffffff" stroke="#000000" points="678.5,-67.5 678.5,-86.5 768.5,-86.5 768.5,-67.5 678.5,-67.5"/>
<text text-anchor="middle" x="723.5" y="-74.5" font-family="Helvetica,sans-Serif" font-size="10.00" fill="#000000">ArgumentsDict.h</text>
</a>
</g>
</g>
<!-- Node3&#45;&gt;Node17 -->
<g id="edge21" class="edge">
<title>Node3&#45;&gt;Node17</title>
<path fill="none" stroke="#191970" d="M472.6107,-125.4476C523.074,-115.7029 611.1606,-98.6931 668.3915,-87.6416"/>
<polygon fill="#191970" stroke="#191970" points="669.1967,-91.0509 678.3517,-85.7183 667.8694,-84.1779 669.1967,-91.0509"/>
</g>
<!-- Node20 -->
<g id="node21" class="node">
<title>Node20</title>
<polygon fill="#ffffff" stroke="#bfbfbf" points="927,-6 927,-25 1062,-25 1062,-6 927,-6"/>
<text text-anchor="middle" x="994.5" y="-13" font-family="Helvetica,sans-Serif" font-size="10.00" fill="#000000">xtensor&#45;python/pyarray.hpp</text>
</g>
<!-- Node3&#45;&gt;Node20 -->
<g id="edge27" class="edge">
<title>Node3&#45;&gt;Node20</title>
<path fill="none" stroke="#191970" d="M472.6119,-130.1443C536.8786,-124.9241 668.5617,-112.0034 777.5,-87 843.893,-71.7616 918.8619,-44.792 961.0231,-28.688"/>
<polygon fill="#191970" stroke="#191970" points="962.4344,-31.8952 970.5093,-25.036 959.9195,-25.3625 962.4344,-31.8952"/>
</g>
<!-- Node9&#45;&gt;Node5 -->
<g id="edge10" class="edge">
<title>Node9&#45;&gt;Node5</title>
<path fill="none" stroke="#191970" d="M119.125,-67.3906C129.5431,-57.9683 145.6364,-43.4134 158.1304,-32.1137"/>
<polygon fill="#191970" stroke="#191970" points="160.6562,-34.5484 165.7252,-25.2449 155.9608,-29.3568 160.6562,-34.5484"/>
</g>
<!-- Node10&#45;&gt;Node6 -->
<g id="edge12" class="edge">
<title>Node10&#45;&gt;Node6</title>
<path fill="none" stroke="#191970" d="M258.25,-67.3906C257.1411,-58.8657 255.4856,-46.1392 254.0917,-35.4235"/>
<polygon fill="#191970" stroke="#191970" points="257.5284,-34.7098 252.7676,-25.2449 250.5869,-35.6128 257.5284,-34.7098"/>
</g>
<!-- Node12 -->
<g id="node13" class="node">
<title>Node12</title>
<polygon fill="#ffffff" stroke="#bfbfbf" points="1080.5,-6 1080.5,-25 1136.5,-25 1136.5,-6 1080.5,-6"/>
<text text-anchor="middle" x="1108.5" y="-13" font-family="Helvetica,sans-Serif" font-size="10.00" fill="#000000">Python.h</text>
</g>
<!-- Node11&#45;&gt;Node12 -->
<g id="edge14" class="edge">
<title>Node11&#45;&gt;Node12</title>
<path fill="none" stroke="#191970" d="M1057.0313,-67.3906C1066.2879,-58.0581 1080.539,-43.6902 1091.7003,-32.4374"/>
<polygon fill="#191970" stroke="#191970" points="1094.2772,-34.8095 1098.8344,-25.2449 1089.3072,-29.88 1094.2772,-34.8095"/>
</g>
<!-- Node13&#45;&gt;Node5 -->
<g id="edge16" class="edge">
<title>Node13&#45;&gt;Node5</title>
<path fill="none" stroke="#191970" d="M374.9885,-67.4493C330.7026,-59.5501 268.6391,-47.0385 215.5,-31 213.0587,-30.2632 210.5559,-29.4381 208.0542,-28.5626"/>
<polygon fill="#191970" stroke="#191970" points="209.1348,-25.2303 198.5421,-25.0169 206.6897,-31.7894 209.1348,-25.2303"/>
</g>
<!-- Node13&#45;&gt;Node6 -->
<g id="edge18" class="edge">
<title>Node13&#45;&gt;Node6</title>
<path fill="none" stroke="#191970" d="M399.8311,-67.4474C370.0268,-58.7419 325.488,-45.121 287.5,-31 285.6822,-30.3243 283.8229,-29.6069 281.954,-28.8655"/>
<polygon fill="#191970" stroke="#191970" points="283.2549,-25.6161 272.6758,-25.0403 280.5868,-32.0877 283.2549,-25.6161"/>
</g>
<!-- Node14 -->
<g id="node15" class="node">
<title>Node14</title>
<polygon fill="#ffffff" stroke="#bfbfbf" points="297,-6 297,-25 346,-25 346,-6 297,-6"/>
<text text-anchor="middle" x="321.5" y="-13" font-family="Helvetica,sans-Serif" font-size="10.00" fill="#000000">cassert</text>
</g>
<!-- Node13&#45;&gt;Node14 -->
<g id="edge17" class="edge">
<title>Node13&#45;&gt;Node14</title>
<path fill="none" stroke="#191970" d="M416,-67.3906C397.7535,-57.3713 368.9376,-41.5483 347.9194,-30.0071"/>
<polygon fill="#191970" stroke="#191970" points="349.3272,-26.7872 338.8771,-25.0419 345.958,-32.923 349.3272,-26.7872"/>
</g>
<!-- Node15 -->
<g id="node16" class="node">
<title>Node15</title>
<g id="a_node16"><a xlink:href="equivalent__polynomials__coefficients_8h.html" target="_top" xlink:title="equivalent_polynomials\l_coefficients.h">
<polygon fill="#ffffff" stroke="#000000" points="364.5,-.5 364.5,-30.5 482.5,-30.5 482.5,-.5 364.5,-.5"/>
<text text-anchor="start" x="372.5" y="-18.5" font-family="Helvetica,sans-Serif" font-size="10.00" fill="#000000">equivalent_polynomials</text>
<text text-anchor="middle" x="423.5" y="-7.5" font-family="Helvetica,sans-Serif" font-size="10.00" fill="#000000">_coefficients.h</text>
</a>
</g>
</g>
<!-- Node13&#45;&gt;Node15 -->
<g id="edge19" class="edge">
<title>Node13&#45;&gt;Node15</title>
<path fill="none" stroke="#191970" d="M431.9375,-67.3906C430.7721,-60.2234 429.1238,-50.0862 427.5929,-40.671"/>
<polygon fill="#191970" stroke="#191970" points="431.0059,-39.8532 425.9463,-30.5446 424.0967,-40.9767 431.0059,-39.8532"/>
</g>
<!-- Node16 -->
<g id="node17" class="node">
<title>Node16</title>
<g id="a_node17"><a xlink:href="equivalent__polynomials__utils_8h.html" target="_top" xlink:title="equivalent_polynomials\l_utils.h">
<polygon fill="#ffffff" stroke="#000000" points="500.5,-.5 500.5,-30.5 618.5,-30.5 618.5,-.5 500.5,-.5"/>
<text text-anchor="start" x="508.5" y="-18.5" font-family="Helvetica,sans-Serif" font-size="10.00" fill="#000000">equivalent_polynomials</text>
<text text-anchor="middle" x="559.5" y="-7.5" font-family="Helvetica,sans-Serif" font-size="10.00" fill="#000000">_utils.h</text>
</a>
</g>
</g>
<!-- Node13&#45;&gt;Node16 -->
<g id="edge20" class="edge">
<title>Node13&#45;&gt;Node16</title>
<path fill="none" stroke="#191970" d="M453.1875,-67.3906C470.8716,-58.7591 497.3806,-45.8202 519.503,-35.0224"/>
<polygon fill="#191970" stroke="#191970" points="521.2255,-38.0763 528.6769,-30.5446 518.155,-31.7857 521.2255,-38.0763"/>
</g>
<!-- Node17&#45;&gt;Node8 -->
<g id="edge22" class="edge">
<title>Node17&#45;&gt;Node8</title>
<path fill="none" stroke="#191970" d="M712.7188,-67.3906C702.1474,-57.9683 685.8175,-43.4134 673.1397,-32.1137"/>
<polygon fill="#191970" stroke="#191970" points="675.2272,-29.2858 665.4333,-25.2449 670.5696,-34.5114 675.2272,-29.2858"/>
</g>
<!-- Node18 -->
<g id="node19" class="node">
<title>Node18</title>
<polygon fill="#ffffff" stroke="#bfbfbf" points="690,-6 690,-25 749,-25 749,-6 690,-6"/>
<text text-anchor="middle" x="719.5" y="-13" font-family="Helvetica,sans-Serif" font-size="10.00" fill="#000000">stdexcept</text>
</g>
<!-- Node17&#45;&gt;Node18 -->
<g id="edge23" class="edge">
<title>Node17&#45;&gt;Node18</title>
<path fill="none" stroke="#191970" d="M722.875,-67.3906C722.3205,-58.8657 721.4928,-46.1392 720.7958,-35.4235"/>
<polygon fill="#191970" stroke="#191970" points="724.2756,-34.9966 720.1338,-25.2449 717.2903,-35.451 724.2756,-34.9966"/>
</g>
<!-- Node19 -->
<g id="node20" class="node">
<title>Node19</title>
<polygon fill="#ffffff" stroke="#bfbfbf" points="767,-6 767,-25 808,-25 808,-6 767,-6"/>
<text text-anchor="middle" x="787.5" y="-13" font-family="Helvetica,sans-Serif" font-size="10.00" fill="#000000">string</text>
</g>
<!-- Node17&#45;&gt;Node19 -->
<g id="edge24" class="edge">
<title>Node17&#45;&gt;Node19</title>
<path fill="none" stroke="#191970" d="M733.5,-67.3906C743.2119,-58.0581 758.1639,-43.6902 769.8741,-32.4374"/>
<polygon fill="#191970" stroke="#191970" points="772.5736,-34.6974 777.359,-25.2449 767.7234,-29.65 772.5736,-34.6974"/>
</g>
<!-- Node17&#45;&gt;Node20 -->
<g id="edge25" class="edge">
<title>Node17&#45;&gt;Node20</title>
<path fill="none" stroke="#191970" d="M765.5464,-67.4581C813.2136,-56.6406 890.9651,-38.9959 942.4293,-27.3168"/>
<polygon fill="#191970" stroke="#191970" points="943.3775,-30.6907 952.355,-25.0643 941.8283,-23.8642 943.3775,-30.6907"/>
</g>
<!-- Node21 -->
<g id="node22" class="node">
<title>Node21</title>
<polygon fill="#ffffff" stroke="#bfbfbf" points="826,-6 826,-25 909,-25 909,-6 826,-6"/>
<text text-anchor="middle" x="867.5" y="-13" font-family="Helvetica,sans-Serif" font-size="10.00" fill="#000000">xtensor/xio.hpp</text>
</g>
<!-- Node17&#45;&gt;Node21 -->
<g id="edge26" class="edge">
<title>Node17&#45;&gt;Node21</title>
<path fill="none" stroke="#191970" d="M746,-67.3906C770.0938,-57.1005 808.5213,-40.6888 835.7008,-29.0809"/>
<polygon fill="#191970" stroke="#191970" points="837.3363,-32.1883 845.158,-25.0419 834.5869,-25.7508 837.3363,-32.1883"/>
</g>
</g>
</svg>
