<?xml version="1.0" encoding="UTF-8" standalone="no"?>
<!DOCTYPE svg PUBLIC "-//W3C//DTD SVG 1.1//EN"
 "http://www.w3.org/Graphics/SVG/1.1/DTD/svg11.dtd">
<!-- Generated by graphviz version 2.50.0 (20211204.2007)
 -->
<!-- Title: RANS3PF.h Pages: 1 -->
<svg width="1111pt" height="151pt"
 viewBox="0.00 0.00 1110.50 151.00" xmlns="http://www.w3.org/2000/svg" xmlns:xlink="http://www.w3.org/1999/xlink">
<g id="graph0" class="graph" transform="scale(1 1) rotate(0) translate(4 147)">
<title>RANS3PF.h</title>
<polygon fill="white" stroke="transparent" points="-4,4 -4,-147 1106.5,-147 1106.5,4 -4,4"/>
<!-- Node1 -->
<g id="node1" class="node">
<title>Node1</title>
<g id="a_node1"><a xlink:title=" ">
<polygon fill="#bfbfbf" stroke="black" points="431,-123.5 431,-142.5 501,-142.5 501,-123.5 431,-123.5"/>
<text text-anchor="middle" x="466" y="-130.5" font-family="Helvetica,sans-Serif" font-size="10.00">RANS3PF.h</text>
</a>
</g>
</g>
<!-- Node2 -->
<g id="node2" class="node">
<title>Node2</title>
<g id="a_node2"><a xlink:title=" ">
<polygon fill="white" stroke="#bfbfbf" points="0,-6 0,-25 44,-25 44,-6 0,-6"/>
<text text-anchor="middle" x="22" y="-13" font-family="Helvetica,sans-Serif" font-size="10.00">cmath</text>
</a>
</g>
</g>
<!-- Node1&#45;&gt;Node2 -->
<g id="edge1" class="edge">
<title>Node1&#45;&gt;Node2</title>
<path fill="none" stroke="midnightblue" d="M430.75,-131.13C329.73,-128.27 44.63,-117.53 17,-87 4.42,-73.1 8.64,-50.69 14.08,-34.87"/>
<polygon fill="midnightblue" stroke="midnightblue" points="17.49,-35.75 17.85,-25.16 10.97,-33.21 17.49,-35.75"/>
</g>
<!-- Node3 -->
<g id="node3" class="node">
<title>Node3</title>
<g id="a_node3"><a xlink:title=" ">
<polygon fill="white" stroke="#bfbfbf" points="768.5,-67.5 768.5,-86.5 819.5,-86.5 819.5,-67.5 768.5,-67.5"/>
<text text-anchor="middle" x="794" y="-74.5" font-family="Helvetica,sans-Serif" font-size="10.00">valarray</text>
</a>
</g>
</g>
<!-- Node1&#45;&gt;Node3 -->
<g id="edge2" class="edge">
<title>Node1&#45;&gt;Node3</title>
<path fill="none" stroke="midnightblue" d="M501.38,-127.72C554.88,-121 659.7,-106.85 758.6,-86.89"/>
<polygon fill="midnightblue" stroke="midnightblue" points="759.36,-90.31 768.45,-84.88 757.96,-83.45 759.36,-90.31"/>
</g>
<!-- Node4 -->
<g id="node4" class="node">
<title>Node4</title>
<g id="a_node4"><a xlink:title=" ">
<polygon fill="white" stroke="#bfbfbf" points="62,-6 62,-25 116,-25 116,-6 62,-6"/>
<text text-anchor="middle" x="89" y="-13" font-family="Helvetica,sans-Serif" font-size="10.00">iostream</text>
</a>
</g>
</g>
<!-- Node1&#45;&gt;Node4 -->
<g id="edge3" class="edge">
<title>Node1&#45;&gt;Node4</title>
<path fill="none" stroke="midnightblue" d="M430.66,-127.86C386.66,-122 309.68,-109.42 247,-87 229.03,-80.57 226.26,-75.15 209,-67 192.57,-59.24 149.42,-41.3 119.61,-29.03"/>
<polygon fill="midnightblue" stroke="midnightblue" points="120.65,-25.67 110.07,-25.11 117.99,-32.15 120.65,-25.67"/>
</g>
<!-- Node5 -->
<g id="node5" class="node">
<title>Node5</title>
<g id="a_node5"><a xlink:title=" ">
<polygon fill="white" stroke="#bfbfbf" points="838,-67.5 838,-86.5 882,-86.5 882,-67.5 838,-67.5"/>
<text text-anchor="middle" x="860" y="-74.5" font-family="Helvetica,sans-Serif" font-size="10.00">vector</text>
</a>
</g>
</g>
<!-- Node1&#45;&gt;Node5 -->
<g id="edge4" class="edge">
<title>Node1&#45;&gt;Node5</title>
<path fill="none" stroke="midnightblue" d="M501.09,-129.52C564.51,-124.63 702.51,-112.16 827.62,-86.99"/>
<polygon fill="midnightblue" stroke="midnightblue" points="828.66,-90.35 837.76,-84.92 827.26,-83.49 828.66,-90.35"/>
</g>
<!-- Node6 -->
<g id="node6" class="node">
<title>Node6</title>
<g id="a_node6"><a xlink:title=" ">
<polygon fill="white" stroke="#bfbfbf" points="900,-67.5 900,-86.5 930,-86.5 930,-67.5 900,-67.5"/>
<text text-anchor="middle" x="915" y="-74.5" font-family="Helvetica,sans-Serif" font-size="10.00">set</text>
</a>
</g>
</g>
<!-- Node1&#45;&gt;Node6 -->
<g id="edge5" class="edge">
<title>Node1&#45;&gt;Node6</title>
<path fill="none" stroke="midnightblue" d="M501.21,-131.27C573.07,-129.15 741.66,-120.91 890.19,-86.6"/>
<polygon fill="midnightblue" stroke="midnightblue" points="891.01,-90.01 899.94,-84.31 889.41,-83.19 891.01,-90.01"/>
</g>
<!-- Node7 -->
<g id="node7" class="node">
<title>Node7</title>
<g id="a_node7"><a xlink:title=" ">
<polygon fill="white" stroke="#bfbfbf" points="948,-67.5 948,-86.5 994,-86.5 994,-67.5 948,-67.5"/>
<text text-anchor="middle" x="971" y="-74.5" font-family="Helvetica,sans-Serif" font-size="10.00">cstring</text>
</a>
</g>
</g>
<!-- Node1&#45;&gt;Node7 -->
<g id="edge6" class="edge">
<title>Node1&#45;&gt;Node7</title>
<path fill="none" stroke="midnightblue" d="M501.01,-130.82C578.31,-127.74 769.37,-117.64 937.67,-86.94"/>
<polygon fill="midnightblue" stroke="midnightblue" points="938.5,-90.34 947.7,-85.08 937.23,-83.46 938.5,-90.34"/>
</g>
<!-- Node8 -->
<g id="node8" class="node">
<title>Node8</title>
<g id="a_node8"><a xlink:href="_comp_kernel_8h.html" target="_top" xlink:title=" ">
<polygon fill="white" stroke="black" points="26.5,-67.5 26.5,-86.5 105.5,-86.5 105.5,-67.5 26.5,-67.5"/>
<text text-anchor="middle" x="66" y="-74.5" font-family="Helvetica,sans-Serif" font-size="10.00">CompKernel.h</text>
</a>
</g>
</g>
<!-- Node1&#45;&gt;Node8 -->
<g id="edge7" class="edge">
<title>Node1&#45;&gt;Node8</title>
<path fill="none" stroke="midnightblue" d="M430.79,-128.12C369.12,-121.2 237.37,-105.79 115.43,-86.99"/>
<polygon fill="midnightblue" stroke="midnightblue" points="115.97,-83.53 105.55,-85.45 114.89,-90.45 115.97,-83.53"/>
</g>
<!-- Node9 -->
<g id="node9" class="node">
<title>Node9</title>
<g id="a_node9"><a xlink:href="_model_factory_8h.html" target="_top" xlink:title=" ">
<polygon fill="white" stroke="black" points="256.5,-67.5 256.5,-86.5 339.5,-86.5 339.5,-67.5 256.5,-67.5"/>
<text text-anchor="middle" x="298" y="-74.5" font-family="Helvetica,sans-Serif" font-size="10.00">ModelFactory.h</text>
</a>
</g>
</g>
<!-- Node1&#45;&gt;Node9 -->
<g id="edge9" class="edge">
<title>Node1&#45;&gt;Node9</title>
<path fill="none" stroke="midnightblue" d="M439.38,-123.44C410.99,-114.32 365.86,-99.81 334.25,-89.65"/>
<polygon fill="midnightblue" stroke="midnightblue" points="335.09,-86.24 324.5,-86.52 332.94,-92.91 335.09,-86.24"/>
</g>
<!-- Node10 -->
<g id="node10" class="node">
<title>Node10</title>
<g id="a_node10"><a xlink:href="_sed_closure_8h.html" target="_top" xlink:title=" ">
<polygon fill="white" stroke="black" points="124,-67.5 124,-86.5 200,-86.5 200,-67.5 124,-67.5"/>
<text text-anchor="middle" x="162" y="-74.5" font-family="Helvetica,sans-Serif" font-size="10.00">SedClosure.h</text>
</a>
</g>
</g>
<!-- Node1&#45;&gt;Node10 -->
<g id="edge11" class="edge">
<title>Node1&#45;&gt;Node10</title>
<path fill="none" stroke="midnightblue" d="M430.83,-125.75C376.46,-116.09 271.87,-97.52 210.4,-86.6"/>
<polygon fill="midnightblue" stroke="midnightblue" points="210.64,-83.09 200.18,-84.78 209.42,-89.98 210.64,-83.09"/>
</g>
<!-- Node11 -->
<g id="node11" class="node">
<title>Node11</title>
<g id="a_node11"><a xlink:title=" ">
<polygon fill="white" stroke="#bfbfbf" points="678,-6 678,-25 812,-25 812,-6 678,-6"/>
<text text-anchor="middle" x="745" y="-13" font-family="Helvetica,sans-Serif" font-size="10.00">xtensor&#45;python/pyarray.hpp</text>
</a>
</g>
</g>
<!-- Node1&#45;&gt;Node11 -->
<g id="edge29" class="edge">
<title>Node1&#45;&gt;Node11</title>
<path fill="none" stroke="midnightblue" d="M486.97,-123.32C535.87,-103.08 657.6,-52.68 714.62,-29.07"/>
<polygon fill="midnightblue" stroke="midnightblue" points="716.27,-32.18 724.17,-25.12 713.59,-25.72 716.27,-32.18"/>
</g>
<!-- Node12 -->
<g id="node12" class="node">
<title>Node12</title>
<g id="a_node12"><a xlink:href="equivalent__polynomials_8h.html" target="_top" xlink:title=" ">
<polygon fill="white" stroke="black" points="358,-67.5 358,-86.5 484,-86.5 484,-67.5 358,-67.5"/>
<text text-anchor="middle" x="421" y="-74.5" font-family="Helvetica,sans-Serif" font-size="10.00">equivalent_polynomials.h</text>
</a>
</g>
</g>
<!-- Node1&#45;&gt;Node12 -->
<g id="edge15" class="edge">
<title>Node1&#45;&gt;Node12</title>
<path fill="none" stroke="midnightblue" d="M458.57,-123.08C452.15,-115.38 442.69,-104.03 434.88,-94.65"/>
<polygon fill="midnightblue" stroke="midnightblue" points="437.38,-92.19 428.29,-86.75 432.01,-96.67 437.38,-92.19"/>
</g>
<!-- Node18 -->
<g id="node18" class="node">
<title>Node18</title>
<g id="a_node18"><a xlink:href="_arguments_dict_8h.html" target="_top" xlink:title=" ">
<polygon fill="white" stroke="black" points="660,-67.5 660,-86.5 750,-86.5 750,-67.5 660,-67.5"/>
<text text-anchor="middle" x="705" y="-74.5" font-family="Helvetica,sans-Serif" font-size="10.00">ArgumentsDict.h</text>
</a>
</g>
</g>
<!-- Node1&#45;&gt;Node18 -->
<g id="edge23" class="edge">
<title>Node1&#45;&gt;Node18</title>
<path fill="none" stroke="midnightblue" d="M501.01,-124.09C542.32,-114.76 611.21,-99.19 657.36,-88.76"/>
<polygon fill="midnightblue" stroke="midnightblue" points="658.15,-92.17 667.13,-86.56 656.61,-85.35 658.15,-92.17"/>
</g>
<!-- Node8&#45;&gt;Node2 -->
<g id="edge8" class="edge">
<title>Node8&#45;&gt;Node2</title>
<path fill="none" stroke="midnightblue" d="M59.7,-67.48C53.1,-58.55 42.56,-44.31 34.31,-33.14"/>
<polygon fill="midnightblue" stroke="midnightblue" points="37.05,-30.97 28.29,-25.01 31.42,-35.13 37.05,-30.97"/>
</g>
<!-- Node9&#45;&gt;Node4 -->
<g id="edge10" class="edge">
<title>Node9&#45;&gt;Node4</title>
<path fill="none" stroke="midnightblue" d="M259.45,-67.47C224.12,-59.3 170.53,-46.02 125,-31 122.87,-30.3 120.68,-29.53 118.49,-28.73"/>
<polygon fill="midnightblue" stroke="midnightblue" points="119.6,-25.41 109.01,-25.09 117.09,-31.94 119.6,-25.41"/>
</g>
<!-- Node10&#45;&gt;Node2 -->
<g id="edge12" class="edge">
<title>Node10&#45;&gt;Node2</title>
<path fill="none" stroke="midnightblue" d="M140.57,-67.49C118.5,-58.65 83.17,-44.28 53,-31 51.81,-30.48 50.59,-29.93 49.36,-29.38"/>
<polygon fill="midnightblue" stroke="midnightblue" points="50.52,-26.06 39.97,-25.07 47.6,-32.42 50.52,-26.06"/>
</g>
<!-- Node10&#45;&gt;Node4 -->
<g id="edge13" class="edge">
<title>Node10&#45;&gt;Node4</title>
<path fill="none" stroke="midnightblue" d="M151.54,-67.48C140.05,-58.11 121.37,-42.88 107.41,-31.51"/>
<polygon fill="midnightblue" stroke="midnightblue" points="109.4,-28.61 99.44,-25.01 104.98,-34.04 109.4,-28.61"/>
</g>
<!-- Node10&#45;&gt;Node11 -->
<g id="edge14" class="edge">
<title>Node10&#45;&gt;Node11</title>
<path fill="none" stroke="midnightblue" d="M200.07,-71.8C214.73,-70.23 231.64,-68.47 247,-67 433.94,-49.11 481.93,-56.41 668,-31 676.43,-29.85 685.33,-28.4 693.98,-26.86"/>
<polygon fill="midnightblue" stroke="midnightblue" points="694.76,-30.27 703.97,-25.02 693.5,-23.39 694.76,-30.27"/>
</g>
<!-- Node12&#45;&gt;Node2 -->
<g id="edge16" class="edge">
<title>Node12&#45;&gt;Node2</title>
<path fill="none" stroke="midnightblue" d="M357.69,-68.19C354.41,-67.79 351.17,-67.39 348,-67 216.9,-50.92 179.96,-67.44 53,-31 51.07,-30.45 49.11,-29.79 47.17,-29.06"/>
<polygon fill="midnightblue" stroke="midnightblue" points="48.29,-25.73 37.72,-25.02 45.54,-32.17 48.29,-25.73"/>
</g>
<!-- Node12&#45;&gt;Node4 -->
<g id="edge18" class="edge">
<title>Node12&#45;&gt;Node4</title>
<path fill="none" stroke="midnightblue" d="M357.98,-68.16C284.51,-58.72 167.68,-42.67 125,-31 122.5,-30.32 119.93,-29.51 117.38,-28.63"/>
<polygon fill="midnightblue" stroke="midnightblue" points="118.37,-25.26 107.77,-25.02 115.9,-31.81 118.37,-25.26"/>
</g>
<!-- Node13 -->
<g id="node13" class="node">
<title>Node13</title>
<g id="a_node13"><a xlink:title=" ">
<polygon fill="white" stroke="#bfbfbf" points="610.5,-6 610.5,-25 659.5,-25 659.5,-6 610.5,-6"/>
<text text-anchor="middle" x="635" y="-13" font-family="Helvetica,sans-Serif" font-size="10.00">cassert</text>
</a>
</g>
</g>
<!-- Node12&#45;&gt;Node13 -->
<g id="edge17" class="edge">
<title>Node12&#45;&gt;Node13</title>
<path fill="none" stroke="midnightblue" d="M463,-67.47C499.83,-59.53 554.59,-46.59 601,-31 602.92,-30.36 604.88,-29.65 606.84,-28.91"/>
<polygon fill="midnightblue" stroke="midnightblue" points="608.53,-32 616.5,-25.02 605.92,-25.51 608.53,-32"/>
</g>
<!-- Node14 -->
<g id="node14" class="node">
<title>Node14</title>
<g id="a_node14"><a xlink:title=" ">
<polygon fill="white" stroke="#bfbfbf" points="134,-6 134,-25 184,-25 184,-6 134,-6"/>
<text text-anchor="middle" x="159" y="-13" font-family="Helvetica,sans-Serif" font-size="10.00">iomanip</text>
</a>
</g>
</g>
<!-- Node12&#45;&gt;Node14 -->
<g id="edge19" class="edge">
<title>Node12&#45;&gt;Node14</title>
<path fill="none" stroke="midnightblue" d="M359.66,-67.45C313.27,-60.13 248.33,-48.05 193,-31 190.86,-30.34 188.67,-29.59 186.48,-28.79"/>
<polygon fill="midnightblue" stroke="midnightblue" points="187.67,-25.49 177.09,-25.04 185.08,-32 187.67,-25.49"/>
</g>
<!-- Node15 -->
<g id="node15" class="node">
<title>Node15</title>
<g id="a_node15"><a xlink:href="equivalent__polynomials__coefficients_8h.html" target="_top" xlink:title=" ">
<polygon fill="white" stroke="black" points="202,-0.5 202,-30.5 320,-30.5 320,-0.5 202,-0.5"/>
<text text-anchor="start" x="210" y="-18.5" font-family="Helvetica,sans-Serif" font-size="10.00">equivalent_polynomials</text>
<text text-anchor="middle" x="261" y="-7.5" font-family="Helvetica,sans-Serif" font-size="10.00">_coefficients.h</text>
</a>
</g>
</g>
<!-- Node12&#45;&gt;Node15 -->
<g id="edge20" class="edge">
<title>Node12&#45;&gt;Node15</title>
<path fill="none" stroke="midnightblue" d="M398.08,-67.48C374.79,-58.81 338.03,-45.15 308.44,-34.14"/>
<polygon fill="midnightblue" stroke="midnightblue" points="309.3,-30.73 298.71,-30.52 306.86,-37.29 309.3,-30.73"/>
</g>
<!-- Node16 -->
<g id="node16" class="node">
<title>Node16</title>
<g id="a_node16"><a xlink:href="equivalent__polynomials__coefficients__quad_8h.html" target="_top" xlink:title=" ">
<polygon fill="white" stroke="black" points="338,-0.5 338,-30.5 456,-30.5 456,-0.5 338,-0.5"/>
<text text-anchor="start" x="346" y="-18.5" font-family="Helvetica,sans-Serif" font-size="10.00">equivalent_polynomials</text>
<text text-anchor="middle" x="397" y="-7.5" font-family="Helvetica,sans-Serif" font-size="10.00">_coefficients_quad.h</text>
</a>
</g>
</g>
<!-- Node12&#45;&gt;Node16 -->
<g id="edge21" class="edge">
<title>Node12&#45;&gt;Node16</title>
<path fill="none" stroke="midnightblue" d="M417.56,-67.48C414.68,-60.32 410.41,-49.75 406.51,-40.08"/>
<polygon fill="midnightblue" stroke="midnightblue" points="409.64,-38.49 402.66,-30.52 403.15,-41.11 409.64,-38.49"/>
</g>
<!-- Node17 -->
<g id="node17" class="node">
<title>Node17</title>
<g id="a_node17"><a xlink:href="equivalent__polynomials__utils_8h.html" target="_top" xlink:title=" ">
<polygon fill="white" stroke="black" points="474,-0.5 474,-30.5 592,-30.5 592,-0.5 474,-0.5"/>
<text text-anchor="start" x="482" y="-18.5" font-family="Helvetica,sans-Serif" font-size="10.00">equivalent_polynomials</text>
<text text-anchor="middle" x="533" y="-7.5" font-family="Helvetica,sans-Serif" font-size="10.00">_utils.h</text>
</a>
</g>
</g>
<!-- Node12&#45;&gt;Node17 -->
<g id="edge22" class="edge">
<title>Node12&#45;&gt;Node17</title>
<path fill="none" stroke="midnightblue" d="M437.05,-67.48C452.78,-59.12 477.3,-46.09 497.61,-35.3"/>
<polygon fill="midnightblue" stroke="midnightblue" points="499.41,-38.31 506.6,-30.52 496.13,-32.12 499.41,-38.31"/>
</g>
<!-- Node18&#45;&gt;Node11 -->
<g id="edge27" class="edge">
<title>Node18&#45;&gt;Node11</title>
<path fill="none" stroke="midnightblue" d="M710.73,-67.48C716.67,-58.64 726.12,-44.59 733.59,-33.48"/>
<polygon fill="midnightblue" stroke="midnightblue" points="736.61,-35.26 739.28,-25.01 730.8,-31.36 736.61,-35.26"/>
</g>
<!-- Node19 -->
<g id="node19" class="node">
<title>Node19</title>
<g id="a_node19"><a xlink:title=" ">
<polygon fill="white" stroke="#bfbfbf" points="830.5,-6 830.5,-25 865.5,-25 865.5,-6 830.5,-6"/>
<text text-anchor="middle" x="848" y="-13" font-family="Helvetica,sans-Serif" font-size="10.00">map</text>
</a>
</g>
</g>
<!-- Node18&#45;&gt;Node19 -->
<g id="edge24" class="edge">
<title>Node18&#45;&gt;Node19</title>
<path fill="none" stroke="midnightblue" d="M729.81,-67.38C753.54,-58.89 790.19,-45.18 821,-31 821.85,-30.61 822.7,-30.21 823.56,-29.79"/>
<polygon fill="midnightblue" stroke="midnightblue" points="825.42,-32.77 832.74,-25.11 822.25,-26.54 825.42,-32.77"/>
</g>
<!-- Node20 -->
<g id="node20" class="node">
<title>Node20</title>
<g id="a_node20"><a xlink:title=" ">
<polygon fill="white" stroke="#bfbfbf" points="883.5,-6 883.5,-25 942.5,-25 942.5,-6 883.5,-6"/>
<text text-anchor="middle" x="913" y="-13" font-family="Helvetica,sans-Serif" font-size="10.00">stdexcept</text>
</a>
</g>
</g>
<!-- Node18&#45;&gt;Node20 -->
<g id="edge25" class="edge">
<title>Node18&#45;&gt;Node20</title>
<path fill="none" stroke="midnightblue" d="M741.8,-67.45C776.46,-59.12 829.67,-45.6 875,-31 877.41,-30.22 879.89,-29.38 882.38,-28.5"/>
<polygon fill="midnightblue" stroke="midnightblue" points="883.66,-31.76 891.84,-25.03 881.24,-25.19 883.66,-31.76"/>
</g>
<!-- Node21 -->
<g id="node21" class="node">
<title>Node21</title>
<g id="a_node21"><a xlink:title=" ">
<polygon fill="white" stroke="#bfbfbf" points="960.5,-6 960.5,-25 1001.5,-25 1001.5,-6 960.5,-6"/>
<text text-anchor="middle" x="981" y="-13" font-family="Helvetica,sans-Serif" font-size="10.00">string</text>
</a>
</g>
</g>
<!-- Node18&#45;&gt;Node21 -->
<g id="edge26" class="edge">
<title>Node18&#45;&gt;Node21</title>
<path fill="none" stroke="midnightblue" d="M750.27,-68.47C816.28,-57.37 933.19,-37.27 952,-31 953.62,-30.46 955.25,-29.85 956.89,-29.18"/>
<polygon fill="midnightblue" stroke="midnightblue" points="958.36,-32.36 966,-25.01 955.45,-25.99 958.36,-32.36"/>
</g>
<!-- Node22 -->
<g id="node22" class="node">
<title>Node22</title>
<g id="a_node22"><a xlink:title=" ">
<polygon fill="white" stroke="#bfbfbf" points="1019.5,-6 1019.5,-25 1102.5,-25 1102.5,-6 1019.5,-6"/>
<text text-anchor="middle" x="1061" y="-13" font-family="Helvetica,sans-Serif" font-size="10.00">xtensor/xio.hpp</text>
</a>
</g>
</g>
<!-- Node18&#45;&gt;Node22 -->
<g id="edge28" class="edge">
<title>Node18&#45;&gt;Node22</title>
<path fill="none" stroke="midnightblue" d="M750.01,-68.56C753.39,-68.02 756.75,-67.5 760,-67 871.39,-49.9 900.83,-54.75 1011,-31 1015.39,-30.05 1019.97,-28.93 1024.48,-27.73"/>
<polygon fill="midnightblue" stroke="midnightblue" points="1025.49,-31.08 1034.19,-25.02 1023.62,-24.33 1025.49,-31.08"/>
</g>
</g>
</svg>
