<?xml version="1.0" encoding="UTF-8" standalone="no"?>
<!DOCTYPE svg PUBLIC "-//W3C//DTD SVG 1.1//EN"
 "http://www.w3.org/Graphics/SVG/1.1/DTD/svg11.dtd">
<!-- Generated by graphviz version 2.44.1 (20200629.0846)
 -->
<!-- Title: RANS3PSed.cpp Pages: 1 -->
<svg width="549pt" height="196pt"
 viewBox="0.00 0.00 548.59 196.00" xmlns="http://www.w3.org/2000/svg" xmlns:xlink="http://www.w3.org/1999/xlink">
<g id="graph0" class="graph" transform="scale(1 1) rotate(0) translate(4 192)">
<title>RANS3PSed.cpp</title>
<polygon fill="white" stroke="transparent" points="-4,4 -4,-192 544.59,-192 544.59,4 -4,4"/>
<!-- Node1 -->
<g id="node1" class="node">
<title>Node1</title>
<g id="a_node1"><a xlink:title=" ">
<polygon fill="#bfbfbf" stroke="black" points="183.5,-168.5 183.5,-187.5 276.5,-187.5 276.5,-168.5 183.5,-168.5"/>
<text text-anchor="middle" x="230" y="-175.5" font-family="Helvetica,sans-Serif" font-size="10.00">RANS3PSed.cpp</text>
</a>
</g>
</g>
<!-- Node2 -->
<g id="node2" class="node">
<title>Node2</title>
<g id="a_node2"><a xlink:title=" ">
<polygon fill="white" stroke="#bfbfbf" points="0,-112.5 0,-131.5 106,-131.5 106,-112.5 0,-112.5"/>
<text text-anchor="middle" x="53" y="-119.5" font-family="Helvetica,sans-Serif" font-size="10.00">pybind11/pybind11.h</text>
</a>
</g>
</g>
<!-- Node1&#45;&gt;Node2 -->
<g id="edge1" class="edge">
<title>Node1&#45;&gt;Node2</title>
<path fill="none" stroke="midnightblue" d="M201.95,-168.44C171.92,-159.28 124.09,-144.69 90.76,-134.52"/>
<polygon fill="midnightblue" stroke="midnightblue" points="91.5,-131.09 80.91,-131.52 89.46,-137.78 91.5,-131.09"/>
</g>
<!-- Node3 -->
<g id="node3" class="node">
<title>Node3</title>
<g id="a_node3"><a xlink:title=" ">
<polygon fill="white" stroke="#bfbfbf" points="124.5,-112.5 124.5,-131.5 225.5,-131.5 225.5,-112.5 124.5,-112.5"/>
<text text-anchor="middle" x="175" y="-119.5" font-family="Helvetica,sans-Serif" font-size="10.00">pybind11/stl_bind.h</text>
</a>
</g>
</g>
<!-- Node1&#45;&gt;Node3 -->
<g id="edge2" class="edge">
<title>Node1&#45;&gt;Node3</title>
<path fill="none" stroke="midnightblue" d="M220.92,-168.08C212.83,-160.14 200.8,-148.34 191.09,-138.8"/>
<polygon fill="midnightblue" stroke="midnightblue" points="193.5,-136.26 183.91,-131.75 188.6,-141.25 193.5,-136.26"/>
</g>
<!-- Node4 -->
<g id="node4" class="node">
<title>Node4</title>
<g id="a_node4"><a xlink:href="_r_a_n_s3_p_sed_8h.html" target="_top" xlink:title=" ">
<polygon fill="white" stroke="black" points="243.5,-112.5 243.5,-131.5 326.5,-131.5 326.5,-112.5 243.5,-112.5"/>
<text text-anchor="middle" x="285" y="-119.5" font-family="Helvetica,sans-Serif" font-size="10.00">RANS3PSed.h</text>
</a>
</g>
</g>
<!-- Node1&#45;&gt;Node4 -->
<g id="edge3" class="edge">
<title>Node1&#45;&gt;Node4</title>
<path fill="none" stroke="midnightblue" d="M239.08,-168.08C247.17,-160.14 259.2,-148.34 268.91,-138.8"/>
<polygon fill="midnightblue" stroke="midnightblue" points="271.4,-141.25 276.09,-131.75 266.5,-136.26 271.4,-141.25"/>
</g>
<!-- Node11 -->
<g id="node11" class="node">
<title>Node11</title>
<g id="a_node11"><a xlink:href="_r_a_n_s3_p_sed2_d_8h.html" target="_top" xlink:title=" ">
<polygon fill="white" stroke="black" points="344.5,-112.5 344.5,-131.5 439.5,-131.5 439.5,-112.5 344.5,-112.5"/>
<text text-anchor="middle" x="392" y="-119.5" font-family="Helvetica,sans-Serif" font-size="10.00">RANS3PSed2D.h</text>
</a>
</g>
</g>
<!-- Node1&#45;&gt;Node11 -->
<g id="edge15" class="edge">
<title>Node1&#45;&gt;Node11</title>
<path fill="none" stroke="midnightblue" d="M255.67,-168.44C282.92,-159.36 326.18,-144.94 356.65,-134.78"/>
<polygon fill="midnightblue" stroke="midnightblue" points="358.07,-138 366.45,-131.52 355.86,-131.36 358.07,-138"/>
</g>
<!-- Node5 -->
<g id="node5" class="node">
<title>Node5</title>
<g id="a_node5"><a xlink:title=" ">
<polygon fill="white" stroke="#bfbfbf" points="435,-0.5 435,-19.5 479,-19.5 479,-0.5 435,-0.5"/>
<text text-anchor="middle" x="457" y="-7.5" font-family="Helvetica,sans-Serif" font-size="10.00">cmath</text>
</a>
</g>
</g>
<!-- Node4&#45;&gt;Node5 -->
<g id="edge4" class="edge">
<title>Node4&#45;&gt;Node5</title>
<path fill="none" stroke="midnightblue" d="M309.24,-112.35C329.96,-104.41 360.11,-91.55 384,-76 405.64,-61.91 427.34,-41.61 441.39,-27.46"/>
<polygon fill="midnightblue" stroke="midnightblue" points="444.25,-29.54 448.72,-19.93 439.23,-24.66 444.25,-29.54"/>
</g>
<!-- Node6 -->
<g id="node6" class="node">
<title>Node6</title>
<g id="a_node6"><a xlink:title=" ">
<polygon fill="white" stroke="#bfbfbf" points="167,-0.5 167,-19.5 221,-19.5 221,-0.5 167,-0.5"/>
<text text-anchor="middle" x="194" y="-7.5" font-family="Helvetica,sans-Serif" font-size="10.00">iostream</text>
</a>
</g>
</g>
<!-- Node4&#45;&gt;Node6 -->
<g id="edge5" class="edge">
<title>Node4&#45;&gt;Node6</title>
<path fill="none" stroke="midnightblue" d="M243.13,-112.88C194.58,-103.05 120.11,-86.5 112,-76 94.88,-53.86 128.07,-34.82 157.22,-23.17"/>
<polygon fill="midnightblue" stroke="midnightblue" points="158.76,-26.33 166.87,-19.51 156.28,-19.79 158.76,-26.33"/>
</g>
<!-- Node7 -->
<g id="node7" class="node">
<title>Node7</title>
<g id="a_node7"><a xlink:href="_comp_kernel_8h.html" target="_top" xlink:title=" ">
<polygon fill="white" stroke="black" points="431.5,-56.5 431.5,-75.5 510.5,-75.5 510.5,-56.5 431.5,-56.5"/>
<text text-anchor="middle" x="471" y="-63.5" font-family="Helvetica,sans-Serif" font-size="10.00">CompKernel.h</text>
</a>
</g>
</g>
<!-- Node4&#45;&gt;Node7 -->
<g id="edge6" class="edge">
<title>Node4&#45;&gt;Node7</title>
<path fill="none" stroke="midnightblue" d="M314.47,-112.44C346.17,-103.24 396.73,-88.56 431.77,-78.39"/>
<polygon fill="midnightblue" stroke="midnightblue" points="433.04,-81.67 441.67,-75.52 431.09,-74.94 433.04,-81.67"/>
</g>
<!-- Node8 -->
<g id="node8" class="node">
<title>Node8</title>
<g id="a_node8"><a xlink:href="_model_factory_8h.html" target="_top" xlink:title=" ">
<polygon fill="white" stroke="black" points="121.5,-56.5 121.5,-75.5 204.5,-75.5 204.5,-56.5 121.5,-56.5"/>
<text text-anchor="middle" x="163" y="-63.5" font-family="Helvetica,sans-Serif" font-size="10.00">ModelFactory.h</text>
</a>
</g>
</g>
<!-- Node4&#45;&gt;Node8 -->
<g id="edge8" class="edge">
<title>Node4&#45;&gt;Node8</title>
<path fill="none" stroke="midnightblue" d="M265.67,-112.44C245.68,-103.6 214.26,-89.69 191.44,-79.59"/>
<polygon fill="midnightblue" stroke="midnightblue" points="192.8,-76.36 182.24,-75.52 189.97,-82.76 192.8,-76.36"/>
</g>
<!-- Node9 -->
<g id="node9" class="node">
<title>Node9</title>
<g id="a_node9"><a xlink:href="_sed_closure_8h.html" target="_top" xlink:title=" ">
<polygon fill="white" stroke="black" points="299,-56.5 299,-75.5 375,-75.5 375,-56.5 299,-56.5"/>
<text text-anchor="middle" x="337" y="-63.5" font-family="Helvetica,sans-Serif" font-size="10.00">SedClosure.h</text>
</a>
</g>
</g>
<!-- Node4&#45;&gt;Node9 -->
<g id="edge10" class="edge">
<title>Node4&#45;&gt;Node9</title>
<path fill="none" stroke="midnightblue" d="M293.59,-112.08C301.16,-104.22 312.38,-92.57 321.51,-83.08"/>
<polygon fill="midnightblue" stroke="midnightblue" points="324.16,-85.38 328.57,-75.75 319.12,-80.53 324.16,-85.38"/>
</g>
<!-- Node10 -->
<g id="node10" class="node">
<title>Node10</title>
<g id="a_node10"><a xlink:title=" ">
<polygon fill="white" stroke="#bfbfbf" points="270,-0.5 270,-19.5 404,-19.5 404,-0.5 270,-0.5"/>
<text text-anchor="middle" x="337" y="-7.5" font-family="Helvetica,sans-Serif" font-size="10.00">xtensor&#45;python/pyarray.hpp</text>
</a>
</g>
</g>
<!-- Node4&#45;&gt;Node10 -->
<g id="edge14" class="edge">
<title>Node4&#45;&gt;Node10</title>
<path fill="none" stroke="midnightblue" d="M283.76,-112.08C282.35,-99.07 281.29,-74.42 290,-56 295.68,-44 306.06,-33.53 315.62,-25.71"/>
<polygon fill="midnightblue" stroke="midnightblue" points="317.85,-28.41 323.67,-19.56 313.6,-22.85 317.85,-28.41"/>
</g>
<!-- Node7&#45;&gt;Node5 -->
<g id="edge7" class="edge">
<title>Node7&#45;&gt;Node5</title>
<path fill="none" stroke="midnightblue" d="M468.69,-56.08C466.83,-48.93 464.16,-38.64 461.85,-29.69"/>
<polygon fill="midnightblue" stroke="midnightblue" points="465.17,-28.55 459.27,-19.75 458.39,-30.31 465.17,-28.55"/>
</g>
<!-- Node8&#45;&gt;Node6 -->
<g id="edge9" class="edge">
<title>Node8&#45;&gt;Node6</title>
<path fill="none" stroke="midnightblue" d="M168.12,-56.08C172.41,-48.61 178.66,-37.72 183.94,-28.52"/>
<polygon fill="midnightblue" stroke="midnightblue" points="187.03,-30.17 188.98,-19.75 180.96,-26.68 187.03,-30.17"/>
</g>
<!-- Node9&#45;&gt;Node5 -->
<g id="edge11" class="edge">
<title>Node9&#45;&gt;Node5</title>
<path fill="none" stroke="midnightblue" d="M356.01,-56.44C375.59,-47.64 406.31,-33.81 428.73,-23.72"/>
<polygon fill="midnightblue" stroke="midnightblue" points="430.39,-26.81 438.07,-19.52 427.52,-20.43 430.39,-26.81"/>
</g>
<!-- Node9&#45;&gt;Node6 -->
<g id="edge12" class="edge">
<title>Node9&#45;&gt;Node6</title>
<path fill="none" stroke="midnightblue" d="M314.34,-56.44C290.6,-47.48 253.09,-33.31 226.26,-23.18"/>
<polygon fill="midnightblue" stroke="midnightblue" points="227.14,-19.77 216.55,-19.52 224.67,-26.32 227.14,-19.77"/>
</g>
<!-- Node9&#45;&gt;Node10 -->
<g id="edge13" class="edge">
<title>Node9&#45;&gt;Node10</title>
<path fill="none" stroke="midnightblue" d="M337,-56.08C337,-49.01 337,-38.86 337,-29.99"/>
<polygon fill="midnightblue" stroke="midnightblue" points="340.5,-29.75 337,-19.75 333.5,-29.75 340.5,-29.75"/>
</g>
<!-- Node11&#45;&gt;Node5 -->
<g id="edge16" class="edge">
<title>Node11&#45;&gt;Node5</title>
<path fill="none" stroke="midnightblue" d="M439.83,-119.93C472.66,-116.38 514.12,-105.76 536,-76 552.92,-52.99 517.4,-33.24 488.66,-21.73"/>
<polygon fill="midnightblue" stroke="midnightblue" points="489.84,-18.44 479.25,-18.15 487.35,-24.98 489.84,-18.44"/>
</g>
<!-- Node11&#45;&gt;Node6 -->
<g id="edge17" class="edge">
<title>Node11&#45;&gt;Node6</title>
<path fill="none" stroke="midnightblue" d="M369.56,-112.46C348.52,-104.13 316.42,-90.62 290,-76 262.33,-60.69 232.46,-39.69 213.52,-25.75"/>
<polygon fill="midnightblue" stroke="midnightblue" points="215.51,-22.87 205.39,-19.71 211.33,-28.48 215.51,-22.87"/>
</g>
<!-- Node11&#45;&gt;Node7 -->
<g id="edge18" class="edge">
<title>Node11&#45;&gt;Node7</title>
<path fill="none" stroke="midnightblue" d="M404.69,-112.32C416.9,-103.98 435.58,-91.21 450,-81.35"/>
<polygon fill="midnightblue" stroke="midnightblue" points="452.06,-84.19 458.34,-75.65 448.11,-78.41 452.06,-84.19"/>
</g>
<!-- Node11&#45;&gt;Node8 -->
<g id="edge19" class="edge">
<title>Node11&#45;&gt;Node8</title>
<path fill="none" stroke="midnightblue" d="M355.71,-112.44C316.02,-103.08 252.29,-88.06 209.09,-77.87"/>
<polygon fill="midnightblue" stroke="midnightblue" points="209.65,-74.41 199.12,-75.52 208.05,-81.22 209.65,-74.41"/>
</g>
<!-- Node11&#45;&gt;Node9 -->
<g id="edge20" class="edge">
<title>Node11&#45;&gt;Node9</title>
<path fill="none" stroke="midnightblue" d="M382.92,-112.08C374.83,-104.14 362.8,-92.34 353.09,-82.8"/>
<polygon fill="midnightblue" stroke="midnightblue" points="355.5,-80.26 345.91,-75.75 350.6,-85.25 355.5,-80.26"/>
</g>
<!-- Node11&#45;&gt;Node10 -->
<g id="edge21" class="edge">
<title>Node11&#45;&gt;Node10</title>
<path fill="none" stroke="midnightblue" d="M439.9,-114.24C485.96,-105.69 545.14,-88.07 520,-56 506.61,-38.92 457.95,-27.46 414.18,-20.38"/>
<polygon fill="midnightblue" stroke="midnightblue" points="414.47,-16.88 404.05,-18.8 413.4,-23.8 414.47,-16.88"/>
</g>
</g>
</svg>
