<?xml version="1.0" encoding="UTF-8" standalone="no"?>
<!DOCTYPE svg PUBLIC "-//W3C//DTD SVG 1.1//EN"
 "http://www.w3.org/Graphics/SVG/1.1/DTD/svg11.dtd">
<!-- Generated by graphviz version 2.50.0 (20211204.2007)
 -->
<!-- Title: RANS2P.h Pages: 1 -->
<svg width="1531pt" height="151pt"
 viewBox="0.00 0.00 1531.00 151.00" xmlns="http://www.w3.org/2000/svg" xmlns:xlink="http://www.w3.org/1999/xlink">
<g id="graph0" class="graph" transform="scale(1 1) rotate(0) translate(4 147)">
<title>RANS2P.h</title>
<polygon fill="white" stroke="transparent" points="-4,4 -4,-147 1527,-147 1527,4 -4,4"/>
<!-- Node1 -->
<g id="node1" class="node">
<title>Node1</title>
<g id="a_node1"><a xlink:title=" ">
<polygon fill="#bfbfbf" stroke="black" points="716.5,-123.5 716.5,-142.5 780.5,-142.5 780.5,-123.5 716.5,-123.5"/>
<text text-anchor="middle" x="748.5" y="-130.5" font-family="Helvetica,sans-Serif" font-size="10.00">RANS2P.h</text>
</a>
</g>
</g>
<!-- Node2 -->
<g id="node2" class="node">
<title>Node2</title>
<g id="a_node2"><a xlink:title=" ">
<polygon fill="white" stroke="#bfbfbf" points="0,-67.5 0,-86.5 51,-86.5 51,-67.5 0,-67.5"/>
<text text-anchor="middle" x="25.5" y="-74.5" font-family="Helvetica,sans-Serif" font-size="10.00">valarray</text>
</a>
</g>
</g>
<!-- Node1&#45;&gt;Node2 -->
<g id="edge1" class="edge">
<title>Node1&#45;&gt;Node2</title>
<path fill="none" stroke="midnightblue" d="M716.31,-131.65C618.17,-130.22 314.25,-122.96 65.5,-87 64.05,-86.79 62.57,-86.56 61.08,-86.3"/>
<polygon fill="midnightblue" stroke="midnightblue" points="61.69,-82.86 51.21,-84.4 60.37,-89.73 61.69,-82.86"/>
</g>
<!-- Node3 -->
<g id="node3" class="node">
<title>Node3</title>
<g id="a_node3"><a xlink:title=" ">
<polygon fill="white" stroke="#bfbfbf" points="57.5,-6 57.5,-25 101.5,-25 101.5,-6 57.5,-6"/>
<text text-anchor="middle" x="79.5" y="-13" font-family="Helvetica,sans-Serif" font-size="10.00">cmath</text>
</a>
</g>
</g>
<!-- Node1&#45;&gt;Node3 -->
<g id="edge2" class="edge">
<title>Node1&#45;&gt;Node3</title>
<path fill="none" stroke="midnightblue" d="M716.4,-131.93C592.06,-131.35 146.55,-126.52 98.5,-87 83.39,-74.57 79.59,-51.49 78.96,-35.13"/>
<polygon fill="midnightblue" stroke="midnightblue" points="82.46,-35.08 78.93,-25.09 75.46,-35.1 82.46,-35.08"/>
</g>
<!-- Node4 -->
<g id="node4" class="node">
<title>Node4</title>
<g id="a_node4"><a xlink:title=" ">
<polygon fill="white" stroke="#bfbfbf" points="119.5,-6 119.5,-25 173.5,-25 173.5,-6 119.5,-6"/>
<text text-anchor="middle" x="146.5" y="-13" font-family="Helvetica,sans-Serif" font-size="10.00">iostream</text>
</a>
</g>
</g>
<!-- Node1&#45;&gt;Node4 -->
<g id="edge3" class="edge">
<title>Node1&#45;&gt;Node4</title>
<path fill="none" stroke="midnightblue" d="M716.33,-131.61C617.99,-130.03 322.73,-122.38 234.5,-87 204.83,-75.1 177.21,-49.7 161.09,-32.86"/>
<polygon fill="midnightblue" stroke="midnightblue" points="163.52,-30.33 154.15,-25.38 158.39,-35.09 163.52,-30.33"/>
</g>
<!-- Node5 -->
<g id="node5" class="node">
<title>Node5</title>
<g id="a_node5"><a xlink:title=" ">
<polygon fill="white" stroke="#bfbfbf" points="654.5,-67.5 654.5,-86.5 684.5,-86.5 684.5,-67.5 654.5,-67.5"/>
<text text-anchor="middle" x="669.5" y="-74.5" font-family="Helvetica,sans-Serif" font-size="10.00">set</text>
</a>
</g>
</g>
<!-- Node1&#45;&gt;Node5 -->
<g id="edge4" class="edge">
<title>Node1&#45;&gt;Node5</title>
<path fill="none" stroke="midnightblue" d="M735.81,-123.32C723.6,-114.98 704.92,-102.21 690.5,-92.35"/>
<polygon fill="midnightblue" stroke="midnightblue" points="692.39,-89.41 682.16,-86.65 688.44,-95.19 692.39,-89.41"/>
</g>
<!-- Node6 -->
<g id="node6" class="node">
<title>Node6</title>
<g id="a_node6"><a xlink:title=" ">
<polygon fill="white" stroke="#bfbfbf" points="736,-6 736,-25 771,-25 771,-6 736,-6"/>
<text text-anchor="middle" x="753.5" y="-13" font-family="Helvetica,sans-Serif" font-size="10.00">map</text>
</a>
</g>
</g>
<!-- Node1&#45;&gt;Node6 -->
<g id="edge5" class="edge">
<title>Node1&#45;&gt;Node6</title>
<path fill="none" stroke="midnightblue" d="M743.55,-123.24C737.14,-110.81 727.26,-87.33 731.5,-67 733.88,-55.59 738.98,-43.59 743.67,-34.16"/>
<polygon fill="midnightblue" stroke="midnightblue" points="746.89,-35.55 748.46,-25.07 740.7,-32.29 746.89,-35.55"/>
</g>
<!-- Node7 -->
<g id="node7" class="node">
<title>Node7</title>
<g id="a_node7"><a xlink:href="_comp_kernel_8h.html" target="_top" xlink:title=" ">
<polygon fill="white" stroke="black" points="108,-67.5 108,-86.5 187,-86.5 187,-67.5 108,-67.5"/>
<text text-anchor="middle" x="147.5" y="-74.5" font-family="Helvetica,sans-Serif" font-size="10.00">CompKernel.h</text>
</a>
</g>
</g>
<!-- Node1&#45;&gt;Node7 -->
<g id="edge6" class="edge">
<title>Node1&#45;&gt;Node7</title>
<path fill="none" stroke="midnightblue" d="M716.34,-130.29C631.78,-125.59 396.29,-111.2 201.5,-87 200.2,-86.84 198.88,-86.67 197.56,-86.49"/>
<polygon fill="midnightblue" stroke="midnightblue" points="197.65,-82.97 187.26,-85.01 196.66,-89.9 197.65,-82.97"/>
</g>
<!-- Node8 -->
<g id="node8" class="node">
<title>Node8</title>
<g id="a_node8"><a xlink:href="_mixed_model_factory_8h.html" target="_top" xlink:title=" ">
<polygon fill="white" stroke="black" points="244,-67.5 244,-86.5 353,-86.5 353,-67.5 244,-67.5"/>
<text text-anchor="middle" x="298.5" y="-74.5" font-family="Helvetica,sans-Serif" font-size="10.00">MixedModelFactory.h</text>
</a>
</g>
</g>
<!-- Node1&#45;&gt;Node8 -->
<g id="edge8" class="edge">
<title>Node1&#45;&gt;Node8</title>
<path fill="none" stroke="midnightblue" d="M716.44,-128.52C651.86,-121.46 501.25,-104.71 363.61,-87.12"/>
<polygon fill="midnightblue" stroke="midnightblue" points="363.67,-83.59 353.3,-85.79 362.77,-90.54 363.67,-83.59"/>
</g>
<!-- Node9 -->
<g id="node9" class="node">
<title>Node9</title>
<g id="a_node9"><a xlink:href="_py_embedded_functions_8h.html" target="_top" xlink:title=" ">
<polygon fill="white" stroke="black" points="886.5,-67.5 886.5,-86.5 1012.5,-86.5 1012.5,-67.5 886.5,-67.5"/>
<text text-anchor="middle" x="949.5" y="-74.5" font-family="Helvetica,sans-Serif" font-size="10.00">PyEmbeddedFunctions.h</text>
</a>
</g>
</g>
<!-- Node1&#45;&gt;Node9 -->
<g id="edge10" class="edge">
<title>Node1&#45;&gt;Node9</title>
<path fill="none" stroke="midnightblue" d="M780.35,-123.44C814.9,-114.16 870.18,-99.31 908.08,-89.13"/>
<polygon fill="midnightblue" stroke="midnightblue" points="909.05,-92.49 917.8,-86.52 907.23,-85.73 909.05,-92.49"/>
</g>
<!-- Node11 -->
<g id="node11" class="node">
<title>Node11</title>
<g id="a_node11"><a xlink:href="equivalent__polynomials_8h.html" target="_top" xlink:title=" ">
<polygon fill="white" stroke="black" points="371.5,-67.5 371.5,-86.5 497.5,-86.5 497.5,-67.5 371.5,-67.5"/>
<text text-anchor="middle" x="434.5" y="-74.5" font-family="Helvetica,sans-Serif" font-size="10.00">equivalent_polynomials.h</text>
</a>
</g>
</g>
<!-- Node1&#45;&gt;Node11 -->
<g id="edge12" class="edge">
<title>Node1&#45;&gt;Node11</title>
<path fill="none" stroke="midnightblue" d="M716.37,-126.47C664.22,-117.51 560.34,-99.64 494.3,-88.28"/>
<polygon fill="midnightblue" stroke="midnightblue" points="494.48,-84.76 484.03,-86.52 493.3,-91.66 494.48,-84.76"/>
</g>
<!-- Node17 -->
<g id="node17" class="node">
<title>Node17</title>
<g id="a_node17"><a xlink:href="_arguments_dict_8h.html" target="_top" xlink:title=" ">
<polygon fill="white" stroke="black" points="740.5,-67.5 740.5,-86.5 830.5,-86.5 830.5,-67.5 740.5,-67.5"/>
<text text-anchor="middle" x="785.5" y="-74.5" font-family="Helvetica,sans-Serif" font-size="10.00">ArgumentsDict.h</text>
</a>
</g>
</g>
<!-- Node1&#45;&gt;Node17 -->
<g id="edge20" class="edge">
<title>Node1&#45;&gt;Node17</title>
<path fill="none" stroke="midnightblue" d="M754.61,-123.08C759.78,-115.53 767.35,-104.49 773.69,-95.23"/>
<polygon fill="midnightblue" stroke="midnightblue" points="776.74,-96.98 779.5,-86.75 770.96,-93.02 776.74,-96.98"/>
</g>
<!-- Node20 -->
<g id="node20" class="node">
<title>Node20</title>
<g id="a_node20"><a xlink:title=" ">
<polygon fill="white" stroke="#bfbfbf" points="1026.5,-6 1026.5,-25 1160.5,-25 1160.5,-6 1026.5,-6"/>
<text text-anchor="middle" x="1093.5" y="-13" font-family="Helvetica,sans-Serif" font-size="10.00">xtensor&#45;python/pyarray.hpp</text>
</a>
</g>
</g>
<!-- Node1&#45;&gt;Node20 -->
<g id="edge29" class="edge">
<title>Node1&#45;&gt;Node20</title>
<path fill="none" stroke="midnightblue" d="M766.35,-123.34C784.75,-114.37 814.22,-99.9 839.5,-87 856.5,-78.32 859.62,-73.67 877.5,-67 907.08,-55.97 987.35,-38.36 1041.26,-27.12"/>
<polygon fill="midnightblue" stroke="midnightblue" points="1042.25,-30.48 1051.33,-25.02 1040.83,-23.63 1042.25,-30.48"/>
</g>
<!-- Node22 -->
<g id="node22" class="node">
<title>Node22</title>
<g id="a_node22"><a xlink:title=" ">
<polygon fill="white" stroke="#bfbfbf" points="1030.5,-67.5 1030.5,-86.5 1126.5,-86.5 1126.5,-67.5 1030.5,-67.5"/>
<text text-anchor="middle" x="1078.5" y="-74.5" font-family="Helvetica,sans-Serif" font-size="10.00">xtensor/xarray.hpp</text>
</a>
</g>
</g>
<!-- Node1&#45;&gt;Node22 -->
<g id="edge26" class="edge">
<title>Node1&#45;&gt;Node22</title>
<path fill="none" stroke="midnightblue" d="M780.74,-126.72C836.24,-117.64 950.54,-98.94 1020.27,-87.53"/>
<polygon fill="midnightblue" stroke="midnightblue" points="1020.92,-90.97 1030.22,-85.9 1019.79,-84.06 1020.92,-90.97"/>
</g>
<!-- Node23 -->
<g id="node23" class="node">
<title>Node23</title>
<g id="a_node23"><a xlink:title=" ">
<polygon fill="white" stroke="#bfbfbf" points="1145,-67.5 1145,-86.5 1240,-86.5 1240,-67.5 1145,-67.5"/>
<text text-anchor="middle" x="1192.5" y="-74.5" font-family="Helvetica,sans-Serif" font-size="10.00">xtensor/xview.hpp</text>
</a>
</g>
</g>
<!-- Node1&#45;&gt;Node23 -->
<g id="edge27" class="edge">
<title>Node1&#45;&gt;Node23</title>
<path fill="none" stroke="midnightblue" d="M780.67,-128.71C845.52,-121.98 996.84,-105.78 1135.01,-87.01"/>
<polygon fill="midnightblue" stroke="midnightblue" points="1135.5,-90.48 1144.94,-85.66 1134.55,-83.54 1135.5,-90.48"/>
</g>
<!-- Node24 -->
<g id="node24" class="node">
<title>Node24</title>
<g id="a_node24"><a xlink:title=" ">
<polygon fill="white" stroke="#bfbfbf" points="1258,-67.5 1258,-86.5 1355,-86.5 1355,-67.5 1258,-67.5"/>
<text text-anchor="middle" x="1306.5" y="-74.5" font-family="Helvetica,sans-Serif" font-size="10.00">xtensor/xfixed.hpp</text>
</a>
</g>
</g>
<!-- Node1&#45;&gt;Node24 -->
<g id="edge28" class="edge">
<title>Node1&#45;&gt;Node24</title>
<path fill="none" stroke="midnightblue" d="M780.52,-129.87C858.62,-124.52 1065.27,-109.41 1247.67,-87.16"/>
<polygon fill="midnightblue" stroke="midnightblue" points="1248.21,-90.62 1257.71,-85.92 1247.36,-83.67 1248.21,-90.62"/>
</g>
<!-- Node25 -->
<g id="node25" class="node">
<title>Node25</title>
<g id="a_node25"><a xlink:title=" ">
<polygon fill="white" stroke="#bfbfbf" points="1373,-67.5 1373,-86.5 1414,-86.5 1414,-67.5 1373,-67.5"/>
<text text-anchor="middle" x="1393.5" y="-74.5" font-family="Helvetica,sans-Serif" font-size="10.00">mpi.h</text>
</a>
</g>
</g>
<!-- Node1&#45;&gt;Node25 -->
<g id="edge30" class="edge">
<title>Node1&#45;&gt;Node25</title>
<path fill="none" stroke="midnightblue" d="M780.57,-132.22C871.07,-132.29 1136.11,-128.8 1362.66,-86.96"/>
<polygon fill="midnightblue" stroke="midnightblue" points="1363.55,-90.35 1372.73,-85.07 1362.26,-83.47 1363.55,-90.35"/>
</g>
<!-- Node26 -->
<g id="node26" class="node">
<title>Node26</title>
<g id="a_node26"><a xlink:href="proteus__lapack_8h.html" target="_top" xlink:title=" ">
<polygon fill="white" stroke="black" points="1432,-67.5 1432,-86.5 1523,-86.5 1523,-67.5 1432,-67.5"/>
<text text-anchor="middle" x="1477.5" y="-74.5" font-family="Helvetica,sans-Serif" font-size="10.00">proteus_lapack.h</text>
</a>
</g>
</g>
<!-- Node1&#45;&gt;Node26 -->
<g id="edge31" class="edge">
<title>Node1&#45;&gt;Node26</title>
<path fill="none" stroke="midnightblue" d="M780.57,-130.98C876.42,-127.71 1169.2,-116 1421.78,-87.1"/>
<polygon fill="midnightblue" stroke="midnightblue" points="1422.35,-90.55 1431.88,-85.93 1421.54,-83.6 1422.35,-90.55"/>
</g>
<!-- Node7&#45;&gt;Node3 -->
<g id="edge7" class="edge">
<title>Node7&#45;&gt;Node3</title>
<path fill="none" stroke="midnightblue" d="M137.76,-67.48C127.15,-58.2 109.98,-43.17 97.02,-31.83"/>
<polygon fill="midnightblue" stroke="midnightblue" points="99.06,-28.96 89.22,-25.01 94.45,-34.23 99.06,-28.96"/>
</g>
<!-- Node8&#45;&gt;Node4 -->
<g id="edge9" class="edge">
<title>Node8&#45;&gt;Node4</title>
<path fill="none" stroke="midnightblue" d="M276.23,-67.46C252.85,-58.47 215.04,-43.87 182.5,-31 180.86,-30.35 179.19,-29.69 177.49,-29.01"/>
<polygon fill="midnightblue" stroke="midnightblue" points="178.39,-25.6 167.8,-25.13 175.78,-32.1 178.39,-25.6"/>
</g>
<!-- Node10 -->
<g id="node10" class="node">
<title>Node10</title>
<g id="a_node10"><a xlink:title=" ">
<polygon fill="white" stroke="#bfbfbf" points="1178.5,-6 1178.5,-25 1234.5,-25 1234.5,-6 1178.5,-6"/>
<text text-anchor="middle" x="1206.5" y="-13" font-family="Helvetica,sans-Serif" font-size="10.00">Python.h</text>
</a>
</g>
</g>
<!-- Node9&#45;&gt;Node10 -->
<g id="edge11" class="edge">
<title>Node9&#45;&gt;Node10</title>
<path fill="none" stroke="midnightblue" d="M1004.39,-67.47C1049.29,-59.85 1114.17,-47.37 1169.5,-31 1171.93,-30.28 1174.43,-29.47 1176.92,-28.61"/>
<polygon fill="midnightblue" stroke="midnightblue" points="1178.2,-31.87 1186.36,-25.11 1175.77,-25.3 1178.2,-31.87"/>
</g>
<!-- Node11&#45;&gt;Node3 -->
<g id="edge13" class="edge">
<title>Node11&#45;&gt;Node3</title>
<path fill="none" stroke="midnightblue" d="M371.29,-67.71C280.55,-55.75 122.85,-34.66 110.5,-31 108.62,-30.44 106.71,-29.79 104.81,-29.07"/>
<polygon fill="midnightblue" stroke="midnightblue" points="106.12,-25.83 95.55,-25.12 103.37,-32.27 106.12,-25.83"/>
</g>
<!-- Node11&#45;&gt;Node4 -->
<g id="edge15" class="edge">
<title>Node11&#45;&gt;Node4</title>
<path fill="none" stroke="midnightblue" d="M379.2,-67.49C316.56,-57.61 218.54,-41.36 182.5,-31 180.06,-30.3 177.57,-29.49 175.08,-28.62"/>
<polygon fill="midnightblue" stroke="midnightblue" points="176.27,-25.33 165.67,-25.07 173.79,-31.88 176.27,-25.33"/>
</g>
<!-- Node12 -->
<g id="node12" class="node">
<title>Node12</title>
<g id="a_node12"><a xlink:title=" ">
<polygon fill="white" stroke="#bfbfbf" points="328,-6 328,-25 377,-25 377,-6 328,-6"/>
<text text-anchor="middle" x="352.5" y="-13" font-family="Helvetica,sans-Serif" font-size="10.00">cassert</text>
</a>
</g>
</g>
<!-- Node11&#45;&gt;Node12 -->
<g id="edge14" class="edge">
<title>Node11&#45;&gt;Node12</title>
<path fill="none" stroke="midnightblue" d="M422.75,-67.48C409.72,-58.02 388.46,-42.6 372.74,-31.19"/>
<polygon fill="midnightblue" stroke="midnightblue" points="374.38,-28.05 364.23,-25.01 370.27,-33.71 374.38,-28.05"/>
</g>
<!-- Node13 -->
<g id="node13" class="node">
<title>Node13</title>
<g id="a_node13"><a xlink:title=" ">
<polygon fill="white" stroke="#bfbfbf" points="395.5,-6 395.5,-25 445.5,-25 445.5,-6 395.5,-6"/>
<text text-anchor="middle" x="420.5" y="-13" font-family="Helvetica,sans-Serif" font-size="10.00">iomanip</text>
</a>
</g>
</g>
<!-- Node11&#45;&gt;Node13 -->
<g id="edge16" class="edge">
<title>Node11&#45;&gt;Node13</title>
<path fill="none" stroke="midnightblue" d="M432.49,-67.48C430.5,-58.99 427.37,-45.7 424.81,-34.82"/>
<polygon fill="midnightblue" stroke="midnightblue" points="428.2,-33.94 422.5,-25.01 421.39,-35.54 428.2,-33.94"/>
</g>
<!-- Node14 -->
<g id="node14" class="node">
<title>Node14</title>
<g id="a_node14"><a xlink:href="equivalent__polynomials__coefficients_8h.html" target="_top" xlink:title=" ">
<polygon fill="white" stroke="black" points="463.5,-0.5 463.5,-30.5 581.5,-30.5 581.5,-0.5 463.5,-0.5"/>
<text text-anchor="start" x="471.5" y="-18.5" font-family="Helvetica,sans-Serif" font-size="10.00">equivalent_polynomials</text>
<text text-anchor="middle" x="522.5" y="-7.5" font-family="Helvetica,sans-Serif" font-size="10.00">_coefficients.h</text>
</a>
</g>
</g>
<!-- Node11&#45;&gt;Node14 -->
<g id="edge17" class="edge">
<title>Node11&#45;&gt;Node14</title>
<path fill="none" stroke="midnightblue" d="M447.11,-67.48C459.14,-59.34 477.7,-46.79 493.4,-36.18"/>
<polygon fill="midnightblue" stroke="midnightblue" points="495.44,-39.02 501.76,-30.52 491.52,-33.22 495.44,-39.02"/>
</g>
<!-- Node15 -->
<g id="node15" class="node">
<title>Node15</title>
<g id="a_node15"><a xlink:href="equivalent__polynomials__coefficients__quad_8h.html" target="_top" xlink:title=" ">
<polygon fill="white" stroke="black" points="599.5,-0.5 599.5,-30.5 717.5,-30.5 717.5,-0.5 599.5,-0.5"/>
<text text-anchor="start" x="607.5" y="-18.5" font-family="Helvetica,sans-Serif" font-size="10.00">equivalent_polynomials</text>
<text text-anchor="middle" x="658.5" y="-7.5" font-family="Helvetica,sans-Serif" font-size="10.00">_coefficients_quad.h</text>
</a>
</g>
</g>
<!-- Node11&#45;&gt;Node15 -->
<g id="edge18" class="edge">
<title>Node11&#45;&gt;Node15</title>
<path fill="none" stroke="midnightblue" d="M466.59,-67.48C500.19,-58.55 553.81,-44.31 595.84,-33.14"/>
<polygon fill="midnightblue" stroke="midnightblue" points="596.94,-36.47 605.71,-30.52 595.14,-29.71 596.94,-36.47"/>
</g>
<!-- Node16 -->
<g id="node16" class="node">
<title>Node16</title>
<g id="a_node16"><a xlink:href="equivalent__polynomials__utils_8h.html" target="_top" xlink:title=" ">
<polygon fill="white" stroke="black" points="191.5,-0.5 191.5,-30.5 309.5,-30.5 309.5,-0.5 191.5,-0.5"/>
<text text-anchor="start" x="199.5" y="-18.5" font-family="Helvetica,sans-Serif" font-size="10.00">equivalent_polynomials</text>
<text text-anchor="middle" x="250.5" y="-7.5" font-family="Helvetica,sans-Serif" font-size="10.00">_utils.h</text>
</a>
</g>
</g>
<!-- Node11&#45;&gt;Node16 -->
<g id="edge19" class="edge">
<title>Node11&#45;&gt;Node16</title>
<path fill="none" stroke="midnightblue" d="M408.14,-67.48C381,-58.7 337.98,-44.79 303.73,-33.71"/>
<polygon fill="midnightblue" stroke="midnightblue" points="304.46,-30.27 293.87,-30.52 302.3,-36.93 304.46,-30.27"/>
</g>
<!-- Node17&#45;&gt;Node6 -->
<g id="edge21" class="edge">
<title>Node17&#45;&gt;Node6</title>
<path fill="none" stroke="midnightblue" d="M780.92,-67.48C776.26,-58.82 768.91,-45.15 762.99,-34.15"/>
<polygon fill="midnightblue" stroke="midnightblue" points="765.9,-32.16 758.08,-25.01 759.73,-35.47 765.9,-32.16"/>
</g>
<!-- Node18 -->
<g id="node18" class="node">
<title>Node18</title>
<g id="a_node18"><a xlink:title=" ">
<polygon fill="white" stroke="#bfbfbf" points="789,-6 789,-25 848,-25 848,-6 789,-6"/>
<text text-anchor="middle" x="818.5" y="-13" font-family="Helvetica,sans-Serif" font-size="10.00">stdexcept</text>
</a>
</g>
</g>
<!-- Node17&#45;&gt;Node18 -->
<g id="edge22" class="edge">
<title>Node17&#45;&gt;Node18</title>
<path fill="none" stroke="midnightblue" d="M790.23,-67.48C795.08,-58.73 802.77,-44.87 808.9,-33.81"/>
<polygon fill="midnightblue" stroke="midnightblue" points="811.99,-35.45 813.78,-25.01 805.87,-32.06 811.99,-35.45"/>
</g>
<!-- Node19 -->
<g id="node19" class="node">
<title>Node19</title>
<g id="a_node19"><a xlink:title=" ">
<polygon fill="white" stroke="#bfbfbf" points="866,-6 866,-25 907,-25 907,-6 866,-6"/>
<text text-anchor="middle" x="886.5" y="-13" font-family="Helvetica,sans-Serif" font-size="10.00">string</text>
</a>
</g>
</g>
<!-- Node17&#45;&gt;Node19 -->
<g id="edge23" class="edge">
<title>Node17&#45;&gt;Node19</title>
<path fill="none" stroke="midnightblue" d="M799.97,-67.48C816.47,-57.75 843.68,-41.73 863.18,-30.24"/>
<polygon fill="midnightblue" stroke="midnightblue" points="865.22,-33.1 872.06,-25.01 861.66,-27.07 865.22,-33.1"/>
</g>
<!-- Node17&#45;&gt;Node20 -->
<g id="edge24" class="edge">
<title>Node17&#45;&gt;Node20</title>
<path fill="none" stroke="midnightblue" d="M829.63,-67.48C884.98,-56.78 979.84,-38.46 1039.47,-26.94"/>
<polygon fill="midnightblue" stroke="midnightblue" points="1040.3,-30.34 1049.45,-25.01 1038.97,-23.47 1040.3,-30.34"/>
</g>
<!-- Node21 -->
<g id="node21" class="node">
<title>Node21</title>
<g id="a_node21"><a xlink:title=" ">
<polygon fill="white" stroke="#bfbfbf" points="925,-6 925,-25 1008,-25 1008,-6 925,-6"/>
<text text-anchor="middle" x="966.5" y="-13" font-family="Helvetica,sans-Serif" font-size="10.00">xtensor/xio.hpp</text>
</a>
</g>
</g>
<!-- Node17&#45;&gt;Node21 -->
<g id="edge25" class="edge">
<title>Node17&#45;&gt;Node21</title>
<path fill="none" stroke="midnightblue" d="M811.43,-67.48C842.75,-57.18 895.59,-39.81 930.76,-28.25"/>
<polygon fill="midnightblue" stroke="midnightblue" points="932.21,-31.46 940.62,-25.01 930.02,-24.81 932.21,-31.46"/>
</g>
</g>
</svg>
