<?xml version="1.0" encoding="UTF-8" standalone="no"?>
<!DOCTYPE svg PUBLIC "-//W3C//DTD SVG 1.1//EN"
 "http://www.w3.org/Graphics/SVG/1.1/DTD/svg11.dtd">
<!-- Generated by graphviz version 2.40.1 (20161225.0304)
 -->
<!-- Title: RANS3PSed.cpp Pages: 1 -->
<svg width="731pt" height="196pt"
 viewBox="0.00 0.00 730.50 196.00" xmlns="http://www.w3.org/2000/svg" xmlns:xlink="http://www.w3.org/1999/xlink">
<g id="graph0" class="graph" transform="scale(1 1) rotate(0) translate(4 192)">
<title>RANS3PSed.cpp</title>
<polygon fill="#ffffff" stroke="transparent" points="-4,4 -4,-192 726.5,-192 726.5,4 -4,4"/>
<!-- Node0 -->
<g id="node1" class="node">
<title>Node0</title>
<polygon fill="#bfbfbf" stroke="#000000" points="128.5,-168.5 128.5,-187.5 221.5,-187.5 221.5,-168.5 128.5,-168.5"/>
<text text-anchor="middle" x="175" y="-175.5" font-family="Helvetica,sans-Serif" font-size="10.00" fill="#000000">RANS3PSed.cpp</text>
</g>
<!-- Node1 -->
<g id="node2" class="node">
<title>Node1</title>
<polygon fill="#ffffff" stroke="#bfbfbf" points="0,-112.5 0,-131.5 106,-131.5 106,-112.5 0,-112.5"/>
<text text-anchor="middle" x="53" y="-119.5" font-family="Helvetica,sans-Serif" font-size="10.00" fill="#000000">pybind11/pybind11.h</text>
</g>
<!-- Node0&#45;&gt;Node1 -->
<g id="edge1" class="edge">
<title>Node0&#45;&gt;Node1</title>
<path fill="none" stroke="#191970" d="M154.0275,-168.3733C134.4433,-159.3838 105.0039,-145.8706 82.949,-135.7471"/>
<polygon fill="#191970" stroke="#191970" points="84.2473,-132.4919 73.6989,-131.5011 81.3271,-138.8538 84.2473,-132.4919"/>
</g>
<!-- Node2 -->
<g id="node3" class="node">
<title>Node2</title>
<polygon fill="#ffffff" stroke="#bfbfbf" points="124.5,-112.5 124.5,-131.5 225.5,-131.5 225.5,-112.5 124.5,-112.5"/>
<text text-anchor="middle" x="175" y="-119.5" font-family="Helvetica,sans-Serif" font-size="10.00" fill="#000000">pybind11/stl_bind.h</text>
</g>
<!-- Node0&#45;&gt;Node2 -->
<g id="edge2" class="edge">
<title>Node0&#45;&gt;Node2</title>
<path fill="none" stroke="#191970" d="M175,-168.2455C175,-160.9382 175,-150.6944 175,-141.7046"/>
<polygon fill="#191970" stroke="#191970" points="178.5001,-141.6426 175,-131.6427 171.5001,-141.6427 178.5001,-141.6426"/>
</g>
<!-- Node3 -->
<g id="node4" class="node">
<title>Node3</title>
<g id="a_node4"><a xlink:href="_r_a_n_s3_p_sed_8h.html" target="_top" xlink:title="RANS3PSed.h">
<polygon fill="#ffffff" stroke="#000000" points="243.5,-112.5 243.5,-131.5 326.5,-131.5 326.5,-112.5 243.5,-112.5"/>
<text text-anchor="middle" x="285" y="-119.5" font-family="Helvetica,sans-Serif" font-size="10.00" fill="#000000">RANS3PSed.h</text>
</a>
</g>
</g>
<!-- Node0&#45;&gt;Node3 -->
<g id="edge3" class="edge">
<title>Node0&#45;&gt;Node3</title>
<path fill="none" stroke="#191970" d="M194.1605,-168.2455C211.5111,-159.4125 237.2901,-146.2887 256.9583,-136.2758"/>
<polygon fill="#191970" stroke="#191970" points="258.7353,-139.2986 266.059,-131.6427 255.5595,-133.0605 258.7353,-139.2986"/>
</g>
<!-- Node4 -->
<g id="node5" class="node">
<title>Node4</title>
<polygon fill="#ffffff" stroke="#bfbfbf" points="131,-.5 131,-19.5 175,-19.5 175,-.5 131,-.5"/>
<text text-anchor="middle" x="153" y="-7.5" font-family="Helvetica,sans-Serif" font-size="10.00" fill="#000000">cmath</text>
</g>
<!-- Node3&#45;&gt;Node4 -->
<g id="edge4" class="edge">
<title>Node3&#45;&gt;Node4</title>
<path fill="none" stroke="#191970" d="M243.4787,-114.4946C219.483,-108.1084 190.4796,-96.5562 172,-76 160.6779,-63.4057 156.0706,-44.4705 154.2123,-30.1072"/>
<polygon fill="#191970" stroke="#191970" points="157.6614,-29.4028 153.2355,-19.7767 150.6925,-30.0618 157.6614,-29.4028"/>
</g>
<!-- Node5 -->
<g id="node6" class="node">
<title>Node5</title>
<polygon fill="#ffffff" stroke="#bfbfbf" points="225,-.5 225,-19.5 279,-19.5 279,-.5 225,-.5"/>
<text text-anchor="middle" x="252" y="-7.5" font-family="Helvetica,sans-Serif" font-size="10.00" fill="#000000">iostream</text>
</g>
<!-- Node3&#45;&gt;Node5 -->
<g id="edge5" class="edge">
<title>Node3&#45;&gt;Node5</title>
<path fill="none" stroke="#191970" d="M282.2137,-112.1465C278.551,-99.2346 271.8904,-75.8935 266,-56 263.3963,-47.2065 260.4491,-37.489 257.9326,-29.2598"/>
<polygon fill="#191970" stroke="#191970" points="261.218,-28.0351 254.9378,-19.5021 254.526,-30.089 261.218,-28.0351"/>
</g>
<!-- Node6 -->
<g id="node7" class="node">
<title>Node6</title>
<g id="a_node7"><a xlink:href="_comp_kernel_8h.html" target="_top" xlink:title="CompKernel.h">
<polygon fill="#ffffff" stroke="#000000" points="45.5,-56.5 45.5,-75.5 124.5,-75.5 124.5,-56.5 45.5,-56.5"/>
<text text-anchor="middle" x="85" y="-63.5" font-family="Helvetica,sans-Serif" font-size="10.00" fill="#000000">CompKernel.h</text>
</a>
</g>
</g>
<!-- Node3&#45;&gt;Node6 -->
<g id="edge6" class="edge">
<title>Node3&#45;&gt;Node6</title>
<path fill="none" stroke="#191970" d="M250.6188,-112.3733C216.9299,-102.9404 165.4518,-88.5265 128.8382,-78.2747"/>
<polygon fill="#191970" stroke="#191970" points="129.506,-74.8271 118.9326,-75.5011 127.6185,-81.5679 129.506,-74.8271"/>
</g>
<!-- Node7 -->
<g id="node8" class="node">
<title>Node7</title>
<g id="a_node8"><a xlink:href="_model_factory_8h.html" target="_top" xlink:title="ModelFactory.h">
<polygon fill="#ffffff" stroke="#000000" points="313,-56.5 313,-75.5 397,-75.5 397,-56.5 313,-56.5"/>
<text text-anchor="middle" x="355" y="-63.5" font-family="Helvetica,sans-Serif" font-size="10.00" fill="#000000">ModelFactory.h</text>
</a>
</g>
</g>
<!-- Node3&#45;&gt;Node7 -->
<g id="edge8" class="edge">
<title>Node3&#45;&gt;Node7</title>
<path fill="none" stroke="#191970" d="M297.1931,-112.2455C307.6321,-103.8943 322.8655,-91.7076 335.074,-81.9408"/>
<polygon fill="#191970" stroke="#191970" points="337.3244,-84.6227 342.9467,-75.6427 332.9515,-79.1566 337.3244,-84.6227"/>
</g>
<!-- Node8 -->
<g id="node9" class="node">
<title>Node8</title>
<g id="a_node9"><a xlink:href="_sed_closure_8h.html" target="_top" xlink:title="SedClosure.h">
<polygon fill="#ffffff" stroke="#000000" points="181,-56.5 181,-75.5 257,-75.5 257,-56.5 181,-56.5"/>
<text text-anchor="middle" x="219" y="-63.5" font-family="Helvetica,sans-Serif" font-size="10.00" fill="#000000">SedClosure.h</text>
</a>
</g>
</g>
<!-- Node3&#45;&gt;Node8 -->
<g id="edge10" class="edge">
<title>Node3&#45;&gt;Node8</title>
<path fill="none" stroke="#191970" d="M273.5037,-112.2455C263.7558,-103.9746 249.5741,-91.9416 238.1202,-82.2232"/>
<polygon fill="#191970" stroke="#191970" points="240.2541,-79.4437 230.3646,-75.6427 235.7253,-84.7813 240.2541,-79.4437"/>
</g>
<!-- Node9 -->
<g id="node10" class="node">
<title>Node9</title>
<polygon fill="#ffffff" stroke="#bfbfbf" points="297.5,-.5 297.5,-19.5 432.5,-19.5 432.5,-.5 297.5,-.5"/>
<text text-anchor="middle" x="365" y="-7.5" font-family="Helvetica,sans-Serif" font-size="10.00" fill="#000000">xtensor&#45;python/pyarray.hpp</text>
</g>
<!-- Node3&#45;&gt;Node9 -->
<g id="edge20" class="edge">
<title>Node3&#45;&gt;Node9</title>
<path fill="none" stroke="#191970" d="M323.5713,-112.4404C355.195,-103.7303 396.2711,-90.1067 406,-76 417.4779,-59.3571 401.4636,-39.5798 386.2136,-26.0425"/>
<polygon fill="#191970" stroke="#191970" points="388.3816,-23.2933 378.4581,-19.5819 383.9012,-28.6716 388.3816,-23.2933"/>
</g>
<!-- Node10 -->
<g id="node11" class="node">
<title>Node10</title>
<g id="a_node11"><a xlink:href="_arguments_dict_8h.html" target="_top" xlink:title="ArgumentsDict.h">
<polygon fill="#ffffff" stroke="#000000" points="478,-56.5 478,-75.5 568,-75.5 568,-56.5 478,-56.5"/>
<text text-anchor="middle" x="523" y="-63.5" font-family="Helvetica,sans-Serif" font-size="10.00" fill="#000000">ArgumentsDict.h</text>
</a>
</g>
</g>
<!-- Node3&#45;&gt;Node10 -->
<g id="edge14" class="edge">
<title>Node3&#45;&gt;Node10</title>
<path fill="none" stroke="#191970" d="M325.6432,-112.4369C366.2895,-102.8731 428.8913,-88.1432 472.6587,-77.845"/>
<polygon fill="#191970" stroke="#191970" points="473.5919,-81.2211 482.5244,-75.5237 471.9886,-74.4072 473.5919,-81.2211"/>
</g>
<!-- Node6&#45;&gt;Node4 -->
<g id="edge7" class="edge">
<title>Node6&#45;&gt;Node4</title>
<path fill="none" stroke="#191970" d="M96.8447,-56.2455C106.888,-47.9746 121.4995,-35.9416 133.3004,-26.2232"/>
<polygon fill="#191970" stroke="#191970" points="135.7967,-28.7015 141.291,-19.6427 131.3467,-23.298 135.7967,-28.7015"/>
</g>
<!-- Node7&#45;&gt;Node5 -->
<g id="edge9" class="edge">
<title>Node7&#45;&gt;Node5</title>
<path fill="none" stroke="#191970" d="M337.0588,-56.2455C320.96,-47.4928 297.1121,-34.527 278.7609,-24.5496"/>
<polygon fill="#191970" stroke="#191970" points="280.1929,-21.3444 269.7356,-19.6427 276.8493,-27.4942 280.1929,-21.3444"/>
</g>
<!-- Node8&#45;&gt;Node4 -->
<g id="edge11" class="edge">
<title>Node8&#45;&gt;Node4</title>
<path fill="none" stroke="#191970" d="M207.5037,-56.2455C197.7558,-47.9746 183.5741,-35.9416 172.1202,-26.2232"/>
<polygon fill="#191970" stroke="#191970" points="174.2541,-23.4437 164.3646,-19.6427 169.7253,-28.7813 174.2541,-23.4437"/>
</g>
<!-- Node8&#45;&gt;Node5 -->
<g id="edge12" class="edge">
<title>Node8&#45;&gt;Node5</title>
<path fill="none" stroke="#191970" d="M224.7482,-56.2455C229.2435,-48.617 235.6248,-37.7881 241.0825,-28.5267"/>
<polygon fill="#191970" stroke="#191970" points="244.2561,-30.035 246.3177,-19.6427 238.2253,-26.4811 244.2561,-30.035"/>
</g>
<!-- Node8&#45;&gt;Node9 -->
<g id="edge13" class="edge">
<title>Node8&#45;&gt;Node9</title>
<path fill="none" stroke="#191970" d="M244.0983,-56.3733C267.9555,-47.2226 304.0335,-33.3844 330.571,-23.2057"/>
<polygon fill="#191970" stroke="#191970" points="332.1459,-26.3503 340.2292,-19.5011 329.639,-19.8145 332.1459,-26.3503"/>
</g>
<!-- Node10&#45;&gt;Node9 -->
<g id="edge18" class="edge">
<title>Node10&#45;&gt;Node9</title>
<path fill="none" stroke="#191970" d="M495.8388,-56.3733C469.7933,-47.1419 430.2884,-33.1402 401.5021,-22.9375"/>
<polygon fill="#191970" stroke="#191970" points="402.4015,-19.5429 391.8067,-19.5011 400.063,-26.1408 402.4015,-19.5429"/>
</g>
<!-- Node11 -->
<g id="node12" class="node">
<title>Node11</title>
<polygon fill="#ffffff" stroke="#bfbfbf" points="687.5,-.5 687.5,-19.5 722.5,-19.5 722.5,-.5 687.5,-.5"/>
<text text-anchor="middle" x="705" y="-7.5" font-family="Helvetica,sans-Serif" font-size="10.00" fill="#000000">map</text>
</g>
<!-- Node10&#45;&gt;Node11 -->
<g id="edge15" class="edge">
<title>Node10&#45;&gt;Node11</title>
<path fill="none" stroke="#191970" d="M558.259,-56.4768C587.9952,-48.2521 631.8447,-35.6739 677.9012,-20.2079"/>
<polygon fill="#191970" stroke="#191970" points="679.1014,-23.4967 687.4477,-16.9707 676.8534,-16.8675 679.1014,-23.4967"/>
</g>
<!-- Node12 -->
<g id="node13" class="node">
<title>Node12</title>
<polygon fill="#ffffff" stroke="#bfbfbf" points="450.5,-.5 450.5,-19.5 509.5,-19.5 509.5,-.5 450.5,-.5"/>
<text text-anchor="middle" x="480" y="-7.5" font-family="Helvetica,sans-Serif" font-size="10.00" fill="#000000">stdexcept</text>
</g>
<!-- Node10&#45;&gt;Node12 -->
<g id="edge16" class="edge">
<title>Node10&#45;&gt;Node12</title>
<path fill="none" stroke="#191970" d="M515.51,-56.2455C509.4674,-48.3761 500.8097,-37.101 493.5559,-27.6542"/>
<polygon fill="#191970" stroke="#191970" points="496.2705,-25.4426 487.4042,-19.6427 490.7185,-29.7058 496.2705,-25.4426"/>
</g>
<!-- Node13 -->
<g id="node14" class="node">
<title>Node13</title>
<polygon fill="#ffffff" stroke="#bfbfbf" points="527.5,-.5 527.5,-19.5 568.5,-19.5 568.5,-.5 527.5,-.5"/>
<text text-anchor="middle" x="548" y="-7.5" font-family="Helvetica,sans-Serif" font-size="10.00" fill="#000000">string</text>
</g>
<!-- Node10&#45;&gt;Node13 -->
<g id="edge17" class="edge">
<title>Node10&#45;&gt;Node13</title>
<path fill="none" stroke="#191970" d="M527.3547,-56.2455C530.7244,-48.6973 535.493,-38.0158 539.5983,-28.8197"/>
<polygon fill="#191970" stroke="#191970" points="542.8147,-30.2009 543.6952,-19.6427 536.4227,-27.3473 542.8147,-30.2009"/>
</g>
<!-- Node14 -->
<g id="node15" class="node">
<title>Node14</title>
<polygon fill="#ffffff" stroke="#bfbfbf" points="586.5,-.5 586.5,-19.5 669.5,-19.5 669.5,-.5 586.5,-.5"/>
<text text-anchor="middle" x="628" y="-7.5" font-family="Helvetica,sans-Serif" font-size="10.00" fill="#000000">xtensor/xio.hpp</text>
</g>
<!-- Node10&#45;&gt;Node14 -->
<g id="edge19" class="edge">
<title>Node10&#45;&gt;Node14</title>
<path fill="none" stroke="#191970" d="M541.2896,-56.2455C557.7762,-47.4527 582.2352,-34.4079 600.9765,-24.4125"/>
<polygon fill="#191970" stroke="#191970" points="602.7435,-27.4368 609.92,-19.6427 599.4494,-21.2604 602.7435,-27.4368"/>
</g>
</g>
</svg>
