<?xml version="1.0" encoding="UTF-8" standalone="no"?>
<!DOCTYPE svg PUBLIC "-//W3C//DTD SVG 1.1//EN"
 "http://www.w3.org/Graphics/SVG/1.1/DTD/svg11.dtd">
<!-- Generated by graphviz version 2.43.0 (0)
 -->
<!-- Title: RANS3PF.cpp Pages: 1 -->
<svg width="1216pt" height="207pt"
 viewBox="0.00 0.00 1215.50 207.00" xmlns="http://www.w3.org/2000/svg" xmlns:xlink="http://www.w3.org/1999/xlink">
<g id="graph0" class="graph" transform="scale(1 1) rotate(0) translate(4 203)">
<title>RANS3PF.cpp</title>
<polygon fill="white" stroke="transparent" points="-4,4 -4,-203 1211.5,-203 1211.5,4 -4,4"/>
<!-- Node1 -->
<g id="node1" class="node">
<title>Node1</title>
<g id="a_node1"><a xlink:title=" ">
<polygon fill="#bfbfbf" stroke="black" points="401.5,-179.5 401.5,-198.5 481.5,-198.5 481.5,-179.5 401.5,-179.5"/>
<text text-anchor="middle" x="441.5" y="-186.5" font-family="Helvetica,sans-Serif" font-size="10.00">RANS3PF.cpp</text>
</a>
</g>
</g>
<!-- Node2 -->
<g id="node2" class="node">
<title>Node2</title>
<g id="a_node2"><a xlink:title=" ">
<polygon fill="white" stroke="#bfbfbf" points="248,-123.5 248,-142.5 367,-142.5 367,-123.5 248,-123.5"/>
<text text-anchor="middle" x="307.5" y="-130.5" font-family="Helvetica,sans-Serif" font-size="10.00">pybind11/pybind11.h</text>
</a>
</g>
</g>
<!-- Node1&#45;&gt;Node2 -->
<g id="edge1" class="edge">
<title>Node1&#45;&gt;Node2</title>
<path fill="none" stroke="midnightblue" d="M420.27,-179.44C398.12,-170.52 363.18,-156.44 338.06,-146.32"/>
<polygon fill="midnightblue" stroke="midnightblue" points="339.22,-143.01 328.63,-142.52 336.6,-149.5 339.22,-143.01"/>
</g>
<!-- Node3 -->
<g id="node3" class="node">
<title>Node3</title>
<g id="a_node3"><a xlink:title=" ">
<polygon fill="white" stroke="#bfbfbf" points="385.5,-123.5 385.5,-142.5 497.5,-142.5 497.5,-123.5 385.5,-123.5"/>
<text text-anchor="middle" x="441.5" y="-130.5" font-family="Helvetica,sans-Serif" font-size="10.00">pybind11/stl_bind.h</text>
</a>
</g>
</g>
<!-- Node1&#45;&gt;Node3 -->
<g id="edge2" class="edge">
<title>Node1&#45;&gt;Node3</title>
<path fill="none" stroke="midnightblue" d="M441.5,-179.08C441.5,-172.01 441.5,-161.86 441.5,-152.99"/>
<polygon fill="midnightblue" stroke="midnightblue" points="445,-152.75 441.5,-142.75 438,-152.75 445,-152.75"/>
</g>
<!-- Node4 -->
<g id="node4" class="node">
<title>Node4</title>
<g id="a_node4"><a xlink:href="_r_a_n_s3_p_f_8h.html" target="_top" xlink:title=" ">
<polygon fill="white" stroke="black" points="516,-123.5 516,-142.5 585,-142.5 585,-123.5 516,-123.5"/>
<text text-anchor="middle" x="550.5" y="-130.5" font-family="Helvetica,sans-Serif" font-size="10.00">RANS3PF.h</text>
</a>
</g>
</g>
<!-- Node1&#45;&gt;Node4 -->
<g id="edge3" class="edge">
<title>Node1&#45;&gt;Node4</title>
<path fill="none" stroke="midnightblue" d="M459.01,-179.32C476.57,-170.62 503.83,-157.12 524.03,-147.11"/>
<polygon fill="midnightblue" stroke="midnightblue" points="525.62,-150.23 533.03,-142.65 522.52,-143.96 525.62,-150.23"/>
</g>
<!-- Node5 -->
<g id="node5" class="node">
<title>Node5</title>
<g id="a_node5"><a xlink:title=" ">
<polygon fill="white" stroke="#bfbfbf" points="0,-6 0,-25 47,-25 47,-6 0,-6"/>
<text text-anchor="middle" x="23.5" y="-13" font-family="Helvetica,sans-Serif" font-size="10.00">cmath</text>
</a>
</g>
</g>
<!-- Node4&#45;&gt;Node5 -->
<g id="edge4" class="edge">
<title>Node4&#45;&gt;Node5</title>
<path fill="none" stroke="midnightblue" d="M515.98,-124.51C512.79,-123.94 509.59,-123.43 506.5,-123 453.42,-115.62 62.51,-125.76 25.5,-87 12.58,-73.47 14.37,-50.99 17.91,-35.05"/>
<polygon fill="midnightblue" stroke="midnightblue" points="21.33,-35.82 20.48,-25.26 14.56,-34.04 21.33,-35.82"/>
</g>
<!-- Node6 -->
<g id="node6" class="node">
<title>Node6</title>
<g id="a_node6"><a xlink:title=" ">
<polygon fill="white" stroke="#bfbfbf" points="839,-67.5 839,-86.5 896,-86.5 896,-67.5 839,-67.5"/>
<text text-anchor="middle" x="867.5" y="-74.5" font-family="Helvetica,sans-Serif" font-size="10.00">valarray</text>
</a>
</g>
</g>
<!-- Node4&#45;&gt;Node6 -->
<g id="edge5" class="edge">
<title>Node4&#45;&gt;Node6</title>
<path fill="none" stroke="midnightblue" d="M585.01,-127.26C636.04,-120.06 734.86,-105.45 828.95,-86.98"/>
<polygon fill="midnightblue" stroke="midnightblue" points="829.79,-90.38 838.91,-85.01 828.43,-83.52 829.79,-90.38"/>
</g>
<!-- Node7 -->
<g id="node7" class="node">
<title>Node7</title>
<g id="a_node7"><a xlink:title=" ">
<polygon fill="white" stroke="#bfbfbf" points="65.5,-6 65.5,-25 125.5,-25 125.5,-6 65.5,-6"/>
<text text-anchor="middle" x="95.5" y="-13" font-family="Helvetica,sans-Serif" font-size="10.00">iostream</text>
</a>
</g>
</g>
<!-- Node4&#45;&gt;Node7 -->
<g id="edge6" class="edge">
<title>Node4&#45;&gt;Node7</title>
<path fill="none" stroke="midnightblue" d="M515.95,-124.75C512.76,-124.14 509.57,-123.54 506.5,-123 399.85,-104.14 368.42,-120.7 265.5,-87 247.36,-81.06 244.89,-74.87 227.5,-67 218.08,-62.74 163.78,-42.17 127.83,-28.64"/>
<polygon fill="midnightblue" stroke="midnightblue" points="128.82,-25.27 118.23,-25.03 126.35,-31.82 128.82,-25.27"/>
</g>
<!-- Node8 -->
<g id="node8" class="node">
<title>Node8</title>
<g id="a_node8"><a xlink:title=" ">
<polygon fill="white" stroke="#bfbfbf" points="914,-67.5 914,-86.5 961,-86.5 961,-67.5 914,-67.5"/>
<text text-anchor="middle" x="937.5" y="-74.5" font-family="Helvetica,sans-Serif" font-size="10.00">vector</text>
</a>
</g>
</g>
<!-- Node4&#45;&gt;Node8 -->
<g id="edge7" class="edge">
<title>Node4&#45;&gt;Node8</title>
<path fill="none" stroke="midnightblue" d="M585.05,-129.33C647.15,-124.17 781.86,-111.29 903.94,-87.07"/>
<polygon fill="midnightblue" stroke="midnightblue" points="904.72,-90.49 913.83,-85.08 903.34,-83.62 904.72,-90.49"/>
</g>
<!-- Node9 -->
<g id="node9" class="node">
<title>Node9</title>
<g id="a_node9"><a xlink:title=" ">
<polygon fill="white" stroke="#bfbfbf" points="979.5,-67.5 979.5,-86.5 1011.5,-86.5 1011.5,-67.5 979.5,-67.5"/>
<text text-anchor="middle" x="995.5" y="-74.5" font-family="Helvetica,sans-Serif" font-size="10.00">set</text>
</a>
</g>
</g>
<!-- Node4&#45;&gt;Node9 -->
<g id="edge8" class="edge">
<title>Node4&#45;&gt;Node9</title>
<path fill="none" stroke="midnightblue" d="M585.26,-131.07C656.14,-128.59 822.38,-119.72 969.17,-86.79"/>
<polygon fill="midnightblue" stroke="midnightblue" points="970.29,-90.12 979.26,-84.48 968.73,-83.3 970.29,-90.12"/>
</g>
<!-- Node10 -->
<g id="node10" class="node">
<title>Node10</title>
<g id="a_node10"><a xlink:title=" ">
<polygon fill="white" stroke="#bfbfbf" points="1029.5,-67.5 1029.5,-86.5 1079.5,-86.5 1079.5,-67.5 1029.5,-67.5"/>
<text text-anchor="middle" x="1054.5" y="-74.5" font-family="Helvetica,sans-Serif" font-size="10.00">cstring</text>
</a>
</g>
</g>
<!-- Node4&#45;&gt;Node10 -->
<g id="edge9" class="edge">
<title>Node4&#45;&gt;Node10</title>
<path fill="none" stroke="midnightblue" d="M585.26,-130.62C661.99,-127.14 851.72,-116.28 1019.36,-86.92"/>
<polygon fill="midnightblue" stroke="midnightblue" points="1020.12,-90.34 1029.35,-85.15 1018.89,-83.45 1020.12,-90.34"/>
</g>
<!-- Node11 -->
<g id="node11" class="node">
<title>Node11</title>
<g id="a_node11"><a xlink:href="_comp_kernel_8h.html" target="_top" xlink:title=" ">
<polygon fill="white" stroke="black" points="35,-67.5 35,-86.5 120,-86.5 120,-67.5 35,-67.5"/>
<text text-anchor="middle" x="77.5" y="-74.5" font-family="Helvetica,sans-Serif" font-size="10.00">CompKernel.h</text>
</a>
</g>
</g>
<!-- Node4&#45;&gt;Node11 -->
<g id="edge10" class="edge">
<title>Node4&#45;&gt;Node11</title>
<path fill="none" stroke="midnightblue" d="M515.97,-124.58C512.78,-124 509.58,-123.46 506.5,-123 343.2,-98.57 298.03,-108.95 129.96,-86.95"/>
<polygon fill="midnightblue" stroke="midnightblue" points="130.4,-83.48 120.03,-85.63 129.48,-90.42 130.4,-83.48"/>
</g>
<!-- Node12 -->
<g id="node12" class="node">
<title>Node12</title>
<g id="a_node12"><a xlink:href="_model_factory_8h.html" target="_top" xlink:title=" ">
<polygon fill="white" stroke="black" points="275,-67.5 275,-86.5 364,-86.5 364,-67.5 275,-67.5"/>
<text text-anchor="middle" x="319.5" y="-74.5" font-family="Helvetica,sans-Serif" font-size="10.00">ModelFactory.h</text>
</a>
</g>
</g>
<!-- Node4&#45;&gt;Node12 -->
<g id="edge12" class="edge">
<title>Node4&#45;&gt;Node12</title>
<path fill="none" stroke="midnightblue" d="M515.92,-123.92C476.1,-114.61 410.5,-99.27 366.18,-88.91"/>
<polygon fill="midnightblue" stroke="midnightblue" points="366.77,-85.45 356.23,-86.59 365.17,-92.27 366.77,-85.45"/>
</g>
<!-- Node13 -->
<g id="node13" class="node">
<title>Node13</title>
<g id="a_node13"><a xlink:href="_sed_closure_8h.html" target="_top" xlink:title=" ">
<polygon fill="white" stroke="black" points="138.5,-67.5 138.5,-86.5 218.5,-86.5 218.5,-67.5 138.5,-67.5"/>
<text text-anchor="middle" x="178.5" y="-74.5" font-family="Helvetica,sans-Serif" font-size="10.00">SedClosure.h</text>
</a>
</g>
</g>
<!-- Node4&#45;&gt;Node13 -->
<g id="edge14" class="edge">
<title>Node4&#45;&gt;Node13</title>
<path fill="none" stroke="midnightblue" d="M515.96,-124.69C512.76,-124.09 509.58,-123.52 506.5,-123 385.37,-102.68 353.98,-105.1 232.5,-87 231.23,-86.81 229.95,-86.62 228.65,-86.42"/>
<polygon fill="midnightblue" stroke="midnightblue" points="229,-82.93 218.58,-84.84 227.92,-89.85 229,-82.93"/>
</g>
<!-- Node14 -->
<g id="node14" class="node">
<title>Node14</title>
<g id="a_node14"><a xlink:title=" ">
<polygon fill="white" stroke="#bfbfbf" points="744,-6 744,-25 895,-25 895,-6 744,-6"/>
<text text-anchor="middle" x="819.5" y="-13" font-family="Helvetica,sans-Serif" font-size="10.00">xtensor&#45;python/pyarray.hpp</text>
</a>
</g>
</g>
<!-- Node4&#45;&gt;Node14 -->
<g id="edge32" class="edge">
<title>Node4&#45;&gt;Node14</title>
<path fill="none" stroke="midnightblue" d="M570.72,-123.32C617.86,-103.08 735.23,-52.68 790.21,-29.07"/>
<polygon fill="midnightblue" stroke="midnightblue" points="791.61,-32.29 799.41,-25.12 788.84,-25.85 791.61,-32.29"/>
</g>
<!-- Node15 -->
<g id="node15" class="node">
<title>Node15</title>
<g id="a_node15"><a xlink:href="equivalent__polynomials_8h.html" target="_top" xlink:title=" ">
<polygon fill="white" stroke="black" points="382,-67.5 382,-86.5 525,-86.5 525,-67.5 382,-67.5"/>
<text text-anchor="middle" x="453.5" y="-74.5" font-family="Helvetica,sans-Serif" font-size="10.00">equivalent_polynomials.h</text>
</a>
</g>
</g>
<!-- Node4&#45;&gt;Node15 -->
<g id="edge18" class="edge">
<title>Node4&#45;&gt;Node15</title>
<path fill="none" stroke="midnightblue" d="M534.92,-123.32C519.5,-114.74 495.69,-101.49 477.79,-91.52"/>
<polygon fill="midnightblue" stroke="midnightblue" points="479.49,-88.46 469.05,-86.65 476.08,-94.58 479.49,-88.46"/>
</g>
<!-- Node21 -->
<g id="node21" class="node">
<title>Node21</title>
<g id="a_node21"><a xlink:href="_arguments_dict_8h.html" target="_top" xlink:title=" ">
<polygon fill="white" stroke="black" points="722.5,-67.5 722.5,-86.5 820.5,-86.5 820.5,-67.5 722.5,-67.5"/>
<text text-anchor="middle" x="771.5" y="-74.5" font-family="Helvetica,sans-Serif" font-size="10.00">ArgumentsDict.h</text>
</a>
</g>
</g>
<!-- Node4&#45;&gt;Node21 -->
<g id="edge26" class="edge">
<title>Node4&#45;&gt;Node21</title>
<path fill="none" stroke="midnightblue" d="M585.03,-123.56C623.16,-114.25 684.69,-99.21 726.55,-88.98"/>
<polygon fill="midnightblue" stroke="midnightblue" points="727.6,-92.33 736.48,-86.56 725.94,-85.53 727.6,-92.33"/>
</g>
<!-- Node11&#45;&gt;Node5 -->
<g id="edge11" class="edge">
<title>Node11&#45;&gt;Node5</title>
<path fill="none" stroke="midnightblue" d="M69.76,-67.48C61.5,-58.37 48.22,-43.74 38.01,-32.48"/>
<polygon fill="midnightblue" stroke="midnightblue" points="40.53,-30.06 31.22,-25.01 35.35,-34.77 40.53,-30.06"/>
</g>
<!-- Node12&#45;&gt;Node7 -->
<g id="edge13" class="edge">
<title>Node12&#45;&gt;Node7</title>
<path fill="none" stroke="midnightblue" d="M278.34,-67.44C240.6,-59.25 183.33,-45.96 134.5,-31 131.93,-30.21 129.29,-29.35 126.65,-28.45"/>
<polygon fill="midnightblue" stroke="midnightblue" points="127.8,-25.15 117.21,-25.09 125.45,-31.74 127.8,-25.15"/>
</g>
<!-- Node13&#45;&gt;Node5 -->
<g id="edge15" class="edge">
<title>Node13&#45;&gt;Node5</title>
<path fill="none" stroke="midnightblue" d="M154.03,-67.47C129.28,-58.72 89.99,-44.52 56.5,-31 55.09,-30.43 53.64,-29.84 52.19,-29.23"/>
<polygon fill="midnightblue" stroke="midnightblue" points="53.18,-25.85 42.61,-25.13 50.43,-32.28 53.18,-25.85"/>
</g>
<!-- Node13&#45;&gt;Node7 -->
<g id="edge16" class="edge">
<title>Node13&#45;&gt;Node7</title>
<path fill="none" stroke="midnightblue" d="M166.61,-67.48C153.3,-57.93 131.5,-42.31 115.54,-30.87"/>
<polygon fill="midnightblue" stroke="midnightblue" points="117.54,-27.99 107.37,-25.01 113.46,-33.68 117.54,-27.99"/>
</g>
<!-- Node13&#45;&gt;Node14 -->
<g id="edge17" class="edge">
<title>Node13&#45;&gt;Node14</title>
<path fill="none" stroke="midnightblue" d="M218.76,-71.61C233.46,-70.07 250.23,-68.38 265.5,-67 473.71,-48.24 527.02,-56.6 734.5,-31 744.09,-29.82 754.26,-28.31 764.09,-26.71"/>
<polygon fill="midnightblue" stroke="midnightblue" points="764.89,-30.13 774.18,-25.03 763.74,-23.22 764.89,-30.13"/>
</g>
<!-- Node15&#45;&gt;Node5 -->
<g id="edge19" class="edge">
<title>Node15&#45;&gt;Node5</title>
<path fill="none" stroke="midnightblue" d="M381.56,-67.98C268.2,-55.33 60.39,-32.05 56.5,-31 54.21,-30.38 51.87,-29.63 49.55,-28.79"/>
<polygon fill="midnightblue" stroke="midnightblue" points="50.86,-25.55 40.27,-25.03 48.23,-32.03 50.86,-25.55"/>
</g>
<!-- Node15&#45;&gt;Node7 -->
<g id="edge21" class="edge">
<title>Node15&#45;&gt;Node7</title>
<path fill="none" stroke="midnightblue" d="M381.77,-67.71C302.46,-58.22 179.91,-42.5 134.5,-31 131.52,-30.24 128.44,-29.34 125.4,-28.35"/>
<polygon fill="midnightblue" stroke="midnightblue" points="126.48,-25.02 115.88,-25.02 124.16,-31.63 126.48,-25.02"/>
</g>
<!-- Node16 -->
<g id="node16" class="node">
<title>Node16</title>
<g id="a_node16"><a xlink:title=" ">
<polygon fill="white" stroke="#bfbfbf" points="673.5,-6 673.5,-25 725.5,-25 725.5,-6 673.5,-6"/>
<text text-anchor="middle" x="699.5" y="-13" font-family="Helvetica,sans-Serif" font-size="10.00">cassert</text>
</a>
</g>
</g>
<!-- Node15&#45;&gt;Node16 -->
<g id="edge20" class="edge">
<title>Node15&#45;&gt;Node16</title>
<path fill="none" stroke="midnightblue" d="M506.65,-67.44C549.73,-59.84 611.74,-47.4 664.5,-31 666.64,-30.33 668.84,-29.59 671.03,-28.79"/>
<polygon fill="midnightblue" stroke="midnightblue" points="672.43,-32.01 680.48,-25.12 669.89,-25.48 672.43,-32.01"/>
</g>
<!-- Node17 -->
<g id="node17" class="node">
<title>Node17</title>
<g id="a_node17"><a xlink:title=" ">
<polygon fill="white" stroke="#bfbfbf" points="143.5,-6 143.5,-25 199.5,-25 199.5,-6 143.5,-6"/>
<text text-anchor="middle" x="171.5" y="-13" font-family="Helvetica,sans-Serif" font-size="10.00">iomanip</text>
</a>
</g>
</g>
<!-- Node15&#45;&gt;Node17 -->
<g id="edge22" class="edge">
<title>Node15&#45;&gt;Node17</title>
<path fill="none" stroke="midnightblue" d="M388.24,-67.5C338.42,-60.17 268.39,-48.06 208.5,-31 205.91,-30.26 203.26,-29.41 200.61,-28.51"/>
<polygon fill="midnightblue" stroke="midnightblue" points="201.82,-25.22 191.23,-25.04 199.4,-31.79 201.82,-25.22"/>
</g>
<!-- Node18 -->
<g id="node18" class="node">
<title>Node18</title>
<g id="a_node18"><a xlink:href="equivalent__polynomials__coefficients_8h.html" target="_top" xlink:title=" ">
<polygon fill="white" stroke="black" points="217.5,-0.5 217.5,-30.5 351.5,-30.5 351.5,-0.5 217.5,-0.5"/>
<text text-anchor="start" x="225.5" y="-18.5" font-family="Helvetica,sans-Serif" font-size="10.00">equivalent_polynomials</text>
<text text-anchor="middle" x="284.5" y="-7.5" font-family="Helvetica,sans-Serif" font-size="10.00">_coefficients.h</text>
</a>
</g>
</g>
<!-- Node15&#45;&gt;Node18 -->
<g id="edge23" class="edge">
<title>Node15&#45;&gt;Node18</title>
<path fill="none" stroke="midnightblue" d="M429.29,-67.48C404.47,-58.74 365.19,-44.91 333.79,-33.86"/>
<polygon fill="midnightblue" stroke="midnightblue" points="334.92,-30.54 324.33,-30.52 332.6,-37.15 334.92,-30.54"/>
</g>
<!-- Node19 -->
<g id="node19" class="node">
<title>Node19</title>
<g id="a_node19"><a xlink:href="equivalent__polynomials__coefficients__quad_8h.html" target="_top" xlink:title=" ">
<polygon fill="white" stroke="black" points="369.5,-0.5 369.5,-30.5 503.5,-30.5 503.5,-0.5 369.5,-0.5"/>
<text text-anchor="start" x="377.5" y="-18.5" font-family="Helvetica,sans-Serif" font-size="10.00">equivalent_polynomials</text>
<text text-anchor="middle" x="436.5" y="-7.5" font-family="Helvetica,sans-Serif" font-size="10.00">_coefficients_quad.h</text>
</a>
</g>
</g>
<!-- Node15&#45;&gt;Node19 -->
<g id="edge24" class="edge">
<title>Node15&#45;&gt;Node19</title>
<path fill="none" stroke="midnightblue" d="M451.06,-67.48C449.04,-60.4 446.06,-49.97 443.33,-40.39"/>
<polygon fill="midnightblue" stroke="midnightblue" points="446.62,-39.18 440.51,-30.52 439.89,-41.1 446.62,-39.18"/>
</g>
<!-- Node20 -->
<g id="node20" class="node">
<title>Node20</title>
<g id="a_node20"><a xlink:href="equivalent__polynomials__utils_8h.html" target="_top" xlink:title=" ">
<polygon fill="white" stroke="black" points="521.5,-0.5 521.5,-30.5 655.5,-30.5 655.5,-0.5 521.5,-0.5"/>
<text text-anchor="start" x="529.5" y="-18.5" font-family="Helvetica,sans-Serif" font-size="10.00">equivalent_polynomials</text>
<text text-anchor="middle" x="588.5" y="-7.5" font-family="Helvetica,sans-Serif" font-size="10.00">_utils.h</text>
</a>
</g>
</g>
<!-- Node15&#45;&gt;Node20 -->
<g id="edge25" class="edge">
<title>Node15&#45;&gt;Node20</title>
<path fill="none" stroke="midnightblue" d="M472.84,-67.48C492.24,-58.93 522.7,-45.5 547.49,-34.57"/>
<polygon fill="midnightblue" stroke="midnightblue" points="548.94,-37.76 556.68,-30.52 546.12,-31.35 548.94,-37.76"/>
</g>
<!-- Node21&#45;&gt;Node14 -->
<g id="edge30" class="edge">
<title>Node21&#45;&gt;Node14</title>
<path fill="none" stroke="midnightblue" d="M778.38,-67.48C785.65,-58.46 797.3,-44.02 806.34,-32.81"/>
<polygon fill="midnightblue" stroke="midnightblue" points="809.08,-34.99 812.64,-25.01 803.63,-30.59 809.08,-34.99"/>
</g>
<!-- Node22 -->
<g id="node22" class="node">
<title>Node22</title>
<g id="a_node22"><a xlink:title=" ">
<polygon fill="white" stroke="#bfbfbf" points="913.5,-6 913.5,-25 951.5,-25 951.5,-6 913.5,-6"/>
<text text-anchor="middle" x="932.5" y="-13" font-family="Helvetica,sans-Serif" font-size="10.00">map</text>
</a>
</g>
</g>
<!-- Node21&#45;&gt;Node22 -->
<g id="edge27" class="edge">
<title>Node21&#45;&gt;Node22</title>
<path fill="none" stroke="midnightblue" d="M800.77,-67.5C828.04,-59.25 869.62,-45.83 904.5,-31 905.53,-30.56 906.58,-30.1 907.63,-29.62"/>
<polygon fill="midnightblue" stroke="midnightblue" points="909.55,-32.58 917,-25.06 906.48,-26.29 909.55,-32.58"/>
</g>
<!-- Node23 -->
<g id="node23" class="node">
<title>Node23</title>
<g id="a_node23"><a xlink:title=" ">
<polygon fill="white" stroke="#bfbfbf" points="970,-6 970,-25 1035,-25 1035,-6 970,-6"/>
<text text-anchor="middle" x="1002.5" y="-13" font-family="Helvetica,sans-Serif" font-size="10.00">stdexcept</text>
</a>
</g>
</g>
<!-- Node21&#45;&gt;Node23 -->
<g id="edge28" class="edge">
<title>Node21&#45;&gt;Node23</title>
<path fill="none" stroke="midnightblue" d="M812.36,-67.49C850.85,-59.19 909.98,-45.7 960.5,-31 963.44,-30.14 966.48,-29.2 969.52,-28.23"/>
<polygon fill="midnightblue" stroke="midnightblue" points="970.7,-31.52 979.08,-25.04 968.49,-24.88 970.7,-31.52"/>
</g>
<!-- Node24 -->
<g id="node24" class="node">
<title>Node24</title>
<g id="a_node24"><a xlink:title=" ">
<polygon fill="white" stroke="#bfbfbf" points="1053.5,-6 1053.5,-25 1097.5,-25 1097.5,-6 1053.5,-6"/>
<text text-anchor="middle" x="1075.5" y="-13" font-family="Helvetica,sans-Serif" font-size="10.00">string</text>
</a>
</g>
</g>
<!-- Node21&#45;&gt;Node24 -->
<g id="edge29" class="edge">
<title>Node21&#45;&gt;Node24</title>
<path fill="none" stroke="midnightblue" d="M820.71,-68.25C896.42,-56.26 1033.9,-34.28 1044.5,-31 1046.37,-30.42 1048.28,-29.75 1050.18,-29.02"/>
<polygon fill="midnightblue" stroke="midnightblue" points="1051.62,-32.21 1059.42,-25.04 1048.85,-25.78 1051.62,-32.21"/>
</g>
<!-- Node25 -->
<g id="node25" class="node">
<title>Node25</title>
<g id="a_node25"><a xlink:title=" ">
<polygon fill="white" stroke="#bfbfbf" points="1115.5,-6 1115.5,-25 1207.5,-25 1207.5,-6 1115.5,-6"/>
<text text-anchor="middle" x="1161.5" y="-13" font-family="Helvetica,sans-Serif" font-size="10.00">xtensor/xio.hpp</text>
</a>
</g>
</g>
<!-- Node21&#45;&gt;Node25 -->
<g id="edge31" class="edge">
<title>Node21&#45;&gt;Node25</title>
<path fill="none" stroke="midnightblue" d="M820.74,-68.41C824.04,-67.92 827.32,-67.45 830.5,-67 952.99,-49.67 985.11,-54.82 1106.5,-31 1111.58,-30 1116.88,-28.81 1122.11,-27.54"/>
<polygon fill="midnightblue" stroke="midnightblue" points="1123.15,-30.88 1131.98,-25.03 1121.42,-24.1 1123.15,-30.88"/>
</g>
</g>
</svg>
