<?xml version="1.0" encoding="UTF-8" standalone="no"?>
<!DOCTYPE svg PUBLIC "-//W3C//DTD SVG 1.1//EN"
 "http://www.w3.org/Graphics/SVG/1.1/DTD/svg11.dtd">
<!-- Generated by graphviz version 2.43.0 (0)
 -->
<!-- Title: RANS3PF.h Pages: 1 -->
<svg width="1216pt" height="151pt"
 viewBox="0.00 0.00 1215.50 151.00" xmlns="http://www.w3.org/2000/svg" xmlns:xlink="http://www.w3.org/1999/xlink">
<g id="graph0" class="graph" transform="scale(1 1) rotate(0) translate(4 147)">
<title>RANS3PF.h</title>
<polygon fill="white" stroke="transparent" points="-4,4 -4,-147 1211.5,-147 1211.5,4 -4,4"/>
<!-- Node1 -->
<g id="node1" class="node">
<title>Node1</title>
<g id="a_node1"><a xlink:title=" ">
<polygon fill="#bfbfbf" stroke="black" points="469,-123.5 469,-142.5 538,-142.5 538,-123.5 469,-123.5"/>
<text text-anchor="middle" x="503.5" y="-130.5" font-family="Helvetica,sans-Serif" font-size="10.00">RANS3PF.h</text>
</a>
</g>
</g>
<!-- Node2 -->
<g id="node2" class="node">
<title>Node2</title>
<g id="a_node2"><a xlink:title=" ">
<polygon fill="white" stroke="#bfbfbf" points="0,-6 0,-25 47,-25 47,-6 0,-6"/>
<text text-anchor="middle" x="23.5" y="-13" font-family="Helvetica,sans-Serif" font-size="10.00">cmath</text>
</a>
</g>
</g>
<!-- Node1&#45;&gt;Node2 -->
<g id="edge1" class="edge">
<title>Node1&#45;&gt;Node2</title>
<path fill="none" stroke="midnightblue" d="M468.67,-131.33C363.69,-128.94 55.7,-119.24 25.5,-87 12.71,-73.35 14.47,-50.89 17.97,-34.99"/>
<polygon fill="midnightblue" stroke="midnightblue" points="21.38,-35.78 20.52,-25.22 14.61,-34.02 21.38,-35.78"/>
</g>
<!-- Node3 -->
<g id="node3" class="node">
<title>Node3</title>
<g id="a_node3"><a xlink:title=" ">
<polygon fill="white" stroke="#bfbfbf" points="839,-67.5 839,-86.5 896,-86.5 896,-67.5 839,-67.5"/>
<text text-anchor="middle" x="867.5" y="-74.5" font-family="Helvetica,sans-Serif" font-size="10.00">valarray</text>
</a>
</g>
</g>
<!-- Node1&#45;&gt;Node3 -->
<g id="edge2" class="edge">
<title>Node1&#45;&gt;Node3</title>
<path fill="none" stroke="midnightblue" d="M538.41,-128.29C596.51,-121.87 716.88,-107.56 828.82,-86.96"/>
<polygon fill="midnightblue" stroke="midnightblue" points="829.74,-90.35 838.93,-85.08 828.46,-83.47 829.74,-90.35"/>
</g>
<!-- Node4 -->
<g id="node4" class="node">
<title>Node4</title>
<g id="a_node4"><a xlink:title=" ">
<polygon fill="white" stroke="#bfbfbf" points="65.5,-6 65.5,-25 125.5,-25 125.5,-6 65.5,-6"/>
<text text-anchor="middle" x="95.5" y="-13" font-family="Helvetica,sans-Serif" font-size="10.00">iostream</text>
</a>
</g>
</g>
<!-- Node1&#45;&gt;Node4 -->
<g id="edge3" class="edge">
<title>Node1&#45;&gt;Node4</title>
<path fill="none" stroke="midnightblue" d="M468.77,-128.71C421.67,-123.51 335.38,-111.38 265.5,-87 247.48,-80.71 244.89,-74.87 227.5,-67 218.08,-62.74 163.78,-42.17 127.83,-28.64"/>
<polygon fill="midnightblue" stroke="midnightblue" points="128.82,-25.27 118.23,-25.03 126.35,-31.82 128.82,-25.27"/>
</g>
<!-- Node5 -->
<g id="node5" class="node">
<title>Node5</title>
<g id="a_node5"><a xlink:title=" ">
<polygon fill="white" stroke="#bfbfbf" points="914,-67.5 914,-86.5 961,-86.5 961,-67.5 914,-67.5"/>
<text text-anchor="middle" x="937.5" y="-74.5" font-family="Helvetica,sans-Serif" font-size="10.00">vector</text>
</a>
</g>
</g>
<!-- Node1&#45;&gt;Node5 -->
<g id="edge4" class="edge">
<title>Node1&#45;&gt;Node5</title>
<path fill="none" stroke="midnightblue" d="M538.2,-130.02C606.56,-125.72 763.51,-113.82 903.77,-87.07"/>
<polygon fill="midnightblue" stroke="midnightblue" points="904.69,-90.46 913.84,-85.12 903.35,-83.59 904.69,-90.46"/>
</g>
<!-- Node6 -->
<g id="node6" class="node">
<title>Node6</title>
<g id="a_node6"><a xlink:title=" ">
<polygon fill="white" stroke="#bfbfbf" points="979.5,-67.5 979.5,-86.5 1011.5,-86.5 1011.5,-67.5 979.5,-67.5"/>
<text text-anchor="middle" x="995.5" y="-74.5" font-family="Helvetica,sans-Serif" font-size="10.00">set</text>
</a>
</g>
</g>
<!-- Node1&#45;&gt;Node6 -->
<g id="edge5" class="edge">
<title>Node1&#45;&gt;Node6</title>
<path fill="none" stroke="midnightblue" d="M538.24,-131.6C614.89,-130.09 804.16,-122.92 969.42,-86.7"/>
<polygon fill="midnightblue" stroke="midnightblue" points="970.27,-90.1 979.27,-84.5 968.74,-83.27 970.27,-90.1"/>
</g>
<!-- Node7 -->
<g id="node7" class="node">
<title>Node7</title>
<g id="a_node7"><a xlink:title=" ">
<polygon fill="white" stroke="#bfbfbf" points="1029.5,-67.5 1029.5,-86.5 1079.5,-86.5 1079.5,-67.5 1029.5,-67.5"/>
<text text-anchor="middle" x="1054.5" y="-74.5" font-family="Helvetica,sans-Serif" font-size="10.00">cstring</text>
</a>
</g>
</g>
<!-- Node1&#45;&gt;Node7 -->
<g id="edge6" class="edge">
<title>Node1&#45;&gt;Node7</title>
<path fill="none" stroke="midnightblue" d="M538.25,-131.04C620.42,-128.32 833.12,-118.71 1019.38,-86.9"/>
<polygon fill="midnightblue" stroke="midnightblue" points="1020.1,-90.33 1029.36,-85.17 1018.9,-83.43 1020.1,-90.33"/>
</g>
<!-- Node8 -->
<g id="node8" class="node">
<title>Node8</title>
<g id="a_node8"><a xlink:href="_comp_kernel_8h.html" target="_top" xlink:title=" ">
<polygon fill="white" stroke="black" points="35,-67.5 35,-86.5 120,-86.5 120,-67.5 35,-67.5"/>
<text text-anchor="middle" x="77.5" y="-74.5" font-family="Helvetica,sans-Serif" font-size="10.00">CompKernel.h</text>
</a>
</g>
</g>
<!-- Node1&#45;&gt;Node8 -->
<g id="edge7" class="edge">
<title>Node1&#45;&gt;Node8</title>
<path fill="none" stroke="midnightblue" d="M468.87,-128.44C404.44,-121.68 261.56,-106.08 130.27,-87.04"/>
<polygon fill="midnightblue" stroke="midnightblue" points="130.44,-83.53 120.04,-85.55 129.43,-90.46 130.44,-83.53"/>
</g>
<!-- Node9 -->
<g id="node9" class="node">
<title>Node9</title>
<g id="a_node9"><a xlink:href="_model_factory_8h.html" target="_top" xlink:title=" ">
<polygon fill="white" stroke="black" points="275,-67.5 275,-86.5 364,-86.5 364,-67.5 275,-67.5"/>
<text text-anchor="middle" x="319.5" y="-74.5" font-family="Helvetica,sans-Serif" font-size="10.00">ModelFactory.h</text>
</a>
</g>
</g>
<!-- Node1&#45;&gt;Node9 -->
<g id="edge9" class="edge">
<title>Node1&#45;&gt;Node9</title>
<path fill="none" stroke="midnightblue" d="M474.34,-123.44C442.99,-114.24 392.97,-99.56 358.3,-89.39"/>
<polygon fill="midnightblue" stroke="midnightblue" points="359.1,-85.97 348.52,-86.52 357.13,-92.69 359.1,-85.97"/>
</g>
<!-- Node10 -->
<g id="node10" class="node">
<title>Node10</title>
<g id="a_node10"><a xlink:href="_sed_closure_8h.html" target="_top" xlink:title=" ">
<polygon fill="white" stroke="black" points="138.5,-67.5 138.5,-86.5 218.5,-86.5 218.5,-67.5 138.5,-67.5"/>
<text text-anchor="middle" x="178.5" y="-74.5" font-family="Helvetica,sans-Serif" font-size="10.00">SedClosure.h</text>
</a>
</g>
</g>
<!-- Node1&#45;&gt;Node10 -->
<g id="edge11" class="edge">
<title>Node1&#45;&gt;Node10</title>
<path fill="none" stroke="midnightblue" d="M468.85,-126.25C417.31,-117.7 317.42,-101.13 232.5,-87 231.23,-86.79 229.95,-86.58 228.66,-86.36"/>
<polygon fill="midnightblue" stroke="midnightblue" points="229.04,-82.88 218.6,-84.69 227.89,-89.78 229.04,-82.88"/>
</g>
<!-- Node11 -->
<g id="node11" class="node">
<title>Node11</title>
<g id="a_node11"><a xlink:title=" ">
<polygon fill="white" stroke="#bfbfbf" points="744,-6 744,-25 895,-25 895,-6 744,-6"/>
<text text-anchor="middle" x="819.5" y="-13" font-family="Helvetica,sans-Serif" font-size="10.00">xtensor&#45;python/pyarray.hpp</text>
</a>
</g>
</g>
<!-- Node1&#45;&gt;Node11 -->
<g id="edge29" class="edge">
<title>Node1&#45;&gt;Node11</title>
<path fill="none" stroke="midnightblue" d="M526.99,-123.41C582.52,-103.12 722.02,-52.13 786.22,-28.66"/>
<polygon fill="midnightblue" stroke="midnightblue" points="787.66,-31.86 795.85,-25.14 785.26,-25.29 787.66,-31.86"/>
</g>
<!-- Node12 -->
<g id="node12" class="node">
<title>Node12</title>
<g id="a_node12"><a xlink:href="equivalent__polynomials_8h.html" target="_top" xlink:title=" ">
<polygon fill="white" stroke="black" points="382,-67.5 382,-86.5 525,-86.5 525,-67.5 382,-67.5"/>
<text text-anchor="middle" x="453.5" y="-74.5" font-family="Helvetica,sans-Serif" font-size="10.00">equivalent_polynomials.h</text>
</a>
</g>
</g>
<!-- Node1&#45;&gt;Node12 -->
<g id="edge15" class="edge">
<title>Node1&#45;&gt;Node12</title>
<path fill="none" stroke="midnightblue" d="M495.24,-123.08C488.04,-115.3 477.39,-103.8 468.65,-94.37"/>
<polygon fill="midnightblue" stroke="midnightblue" points="470.97,-91.71 461.6,-86.75 465.83,-96.47 470.97,-91.71"/>
</g>
<!-- Node18 -->
<g id="node18" class="node">
<title>Node18</title>
<g id="a_node18"><a xlink:href="_arguments_dict_8h.html" target="_top" xlink:title=" ">
<polygon fill="white" stroke="black" points="722.5,-67.5 722.5,-86.5 820.5,-86.5 820.5,-67.5 722.5,-67.5"/>
<text text-anchor="middle" x="771.5" y="-74.5" font-family="Helvetica,sans-Serif" font-size="10.00">ArgumentsDict.h</text>
</a>
</g>
</g>
<!-- Node1&#45;&gt;Node18 -->
<g id="edge23" class="edge">
<title>Node1&#45;&gt;Node18</title>
<path fill="none" stroke="midnightblue" d="M538.26,-125C584.3,-115.72 665.89,-99.28 719.33,-88.51"/>
<polygon fill="midnightblue" stroke="midnightblue" points="720.19,-91.91 729.3,-86.5 718.8,-85.05 720.19,-91.91"/>
</g>
<!-- Node8&#45;&gt;Node2 -->
<g id="edge8" class="edge">
<title>Node8&#45;&gt;Node2</title>
<path fill="none" stroke="midnightblue" d="M69.76,-67.48C61.5,-58.37 48.22,-43.74 38.01,-32.48"/>
<polygon fill="midnightblue" stroke="midnightblue" points="40.53,-30.06 31.22,-25.01 35.35,-34.77 40.53,-30.06"/>
</g>
<!-- Node9&#45;&gt;Node4 -->
<g id="edge10" class="edge">
<title>Node9&#45;&gt;Node4</title>
<path fill="none" stroke="midnightblue" d="M278.34,-67.44C240.6,-59.25 183.33,-45.96 134.5,-31 131.93,-30.21 129.29,-29.35 126.65,-28.45"/>
<polygon fill="midnightblue" stroke="midnightblue" points="127.8,-25.15 117.21,-25.09 125.45,-31.74 127.8,-25.15"/>
</g>
<!-- Node10&#45;&gt;Node2 -->
<g id="edge12" class="edge">
<title>Node10&#45;&gt;Node2</title>
<path fill="none" stroke="midnightblue" d="M154.03,-67.47C129.28,-58.72 89.99,-44.52 56.5,-31 55.09,-30.43 53.64,-29.84 52.19,-29.23"/>
<polygon fill="midnightblue" stroke="midnightblue" points="53.18,-25.85 42.61,-25.13 50.43,-32.28 53.18,-25.85"/>
</g>
<!-- Node10&#45;&gt;Node4 -->
<g id="edge13" class="edge">
<title>Node10&#45;&gt;Node4</title>
<path fill="none" stroke="midnightblue" d="M166.61,-67.48C153.3,-57.93 131.5,-42.31 115.54,-30.87"/>
<polygon fill="midnightblue" stroke="midnightblue" points="117.54,-27.99 107.37,-25.01 113.46,-33.68 117.54,-27.99"/>
</g>
<!-- Node10&#45;&gt;Node11 -->
<g id="edge14" class="edge">
<title>Node10&#45;&gt;Node11</title>
<path fill="none" stroke="midnightblue" d="M218.76,-71.61C233.46,-70.07 250.23,-68.38 265.5,-67 473.71,-48.24 527.02,-56.6 734.5,-31 744.09,-29.82 754.26,-28.31 764.09,-26.71"/>
<polygon fill="midnightblue" stroke="midnightblue" points="764.89,-30.13 774.18,-25.03 763.74,-23.22 764.89,-30.13"/>
</g>
<!-- Node12&#45;&gt;Node2 -->
<g id="edge16" class="edge">
<title>Node12&#45;&gt;Node2</title>
<path fill="none" stroke="midnightblue" d="M381.56,-67.98C268.2,-55.33 60.39,-32.05 56.5,-31 54.21,-30.38 51.87,-29.63 49.55,-28.79"/>
<polygon fill="midnightblue" stroke="midnightblue" points="50.86,-25.55 40.27,-25.03 48.23,-32.03 50.86,-25.55"/>
</g>
<!-- Node12&#45;&gt;Node4 -->
<g id="edge18" class="edge">
<title>Node12&#45;&gt;Node4</title>
<path fill="none" stroke="midnightblue" d="M381.77,-67.71C302.46,-58.22 179.91,-42.5 134.5,-31 131.52,-30.24 128.44,-29.34 125.4,-28.35"/>
<polygon fill="midnightblue" stroke="midnightblue" points="126.48,-25.02 115.88,-25.02 124.16,-31.63 126.48,-25.02"/>
</g>
<!-- Node13 -->
<g id="node13" class="node">
<title>Node13</title>
<g id="a_node13"><a xlink:title=" ">
<polygon fill="white" stroke="#bfbfbf" points="673.5,-6 673.5,-25 725.5,-25 725.5,-6 673.5,-6"/>
<text text-anchor="middle" x="699.5" y="-13" font-family="Helvetica,sans-Serif" font-size="10.00">cassert</text>
</a>
</g>
</g>
<!-- Node12&#45;&gt;Node13 -->
<g id="edge17" class="edge">
<title>Node12&#45;&gt;Node13</title>
<path fill="none" stroke="midnightblue" d="M506.65,-67.44C549.73,-59.84 611.74,-47.4 664.5,-31 666.64,-30.33 668.84,-29.59 671.03,-28.79"/>
<polygon fill="midnightblue" stroke="midnightblue" points="672.43,-32.01 680.48,-25.12 669.89,-25.48 672.43,-32.01"/>
</g>
<!-- Node14 -->
<g id="node14" class="node">
<title>Node14</title>
<g id="a_node14"><a xlink:title=" ">
<polygon fill="white" stroke="#bfbfbf" points="143.5,-6 143.5,-25 199.5,-25 199.5,-6 143.5,-6"/>
<text text-anchor="middle" x="171.5" y="-13" font-family="Helvetica,sans-Serif" font-size="10.00">iomanip</text>
</a>
</g>
</g>
<!-- Node12&#45;&gt;Node14 -->
<g id="edge19" class="edge">
<title>Node12&#45;&gt;Node14</title>
<path fill="none" stroke="midnightblue" d="M388.24,-67.5C338.42,-60.17 268.39,-48.06 208.5,-31 205.91,-30.26 203.26,-29.41 200.61,-28.51"/>
<polygon fill="midnightblue" stroke="midnightblue" points="201.82,-25.22 191.23,-25.04 199.4,-31.79 201.82,-25.22"/>
</g>
<!-- Node15 -->
<g id="node15" class="node">
<title>Node15</title>
<g id="a_node15"><a xlink:href="equivalent__polynomials__coefficients_8h.html" target="_top" xlink:title=" ">
<polygon fill="white" stroke="black" points="217.5,-0.5 217.5,-30.5 351.5,-30.5 351.5,-0.5 217.5,-0.5"/>
<text text-anchor="start" x="225.5" y="-18.5" font-family="Helvetica,sans-Serif" font-size="10.00">equivalent_polynomials</text>
<text text-anchor="middle" x="284.5" y="-7.5" font-family="Helvetica,sans-Serif" font-size="10.00">_coefficients.h</text>
</a>
</g>
</g>
<!-- Node12&#45;&gt;Node15 -->
<g id="edge20" class="edge">
<title>Node12&#45;&gt;Node15</title>
<path fill="none" stroke="midnightblue" d="M429.29,-67.48C404.47,-58.74 365.19,-44.91 333.79,-33.86"/>
<polygon fill="midnightblue" stroke="midnightblue" points="334.92,-30.54 324.33,-30.52 332.6,-37.15 334.92,-30.54"/>
</g>
<!-- Node16 -->
<g id="node16" class="node">
<title>Node16</title>
<g id="a_node16"><a xlink:href="equivalent__polynomials__coefficients__quad_8h.html" target="_top" xlink:title=" ">
<polygon fill="white" stroke="black" points="369.5,-0.5 369.5,-30.5 503.5,-30.5 503.5,-0.5 369.5,-0.5"/>
<text text-anchor="start" x="377.5" y="-18.5" font-family="Helvetica,sans-Serif" font-size="10.00">equivalent_polynomials</text>
<text text-anchor="middle" x="436.5" y="-7.5" font-family="Helvetica,sans-Serif" font-size="10.00">_coefficients_quad.h</text>
</a>
</g>
</g>
<!-- Node12&#45;&gt;Node16 -->
<g id="edge21" class="edge">
<title>Node12&#45;&gt;Node16</title>
<path fill="none" stroke="midnightblue" d="M451.06,-67.48C449.04,-60.4 446.06,-49.97 443.33,-40.39"/>
<polygon fill="midnightblue" stroke="midnightblue" points="446.62,-39.18 440.51,-30.52 439.89,-41.1 446.62,-39.18"/>
</g>
<!-- Node17 -->
<g id="node17" class="node">
<title>Node17</title>
<g id="a_node17"><a xlink:href="equivalent__polynomials__utils_8h.html" target="_top" xlink:title=" ">
<polygon fill="white" stroke="black" points="521.5,-0.5 521.5,-30.5 655.5,-30.5 655.5,-0.5 521.5,-0.5"/>
<text text-anchor="start" x="529.5" y="-18.5" font-family="Helvetica,sans-Serif" font-size="10.00">equivalent_polynomials</text>
<text text-anchor="middle" x="588.5" y="-7.5" font-family="Helvetica,sans-Serif" font-size="10.00">_utils.h</text>
</a>
</g>
</g>
<!-- Node12&#45;&gt;Node17 -->
<g id="edge22" class="edge">
<title>Node12&#45;&gt;Node17</title>
<path fill="none" stroke="midnightblue" d="M472.84,-67.48C492.24,-58.93 522.7,-45.5 547.49,-34.57"/>
<polygon fill="midnightblue" stroke="midnightblue" points="548.94,-37.76 556.68,-30.52 546.12,-31.35 548.94,-37.76"/>
</g>
<!-- Node18&#45;&gt;Node11 -->
<g id="edge27" class="edge">
<title>Node18&#45;&gt;Node11</title>
<path fill="none" stroke="midnightblue" d="M778.38,-67.48C785.65,-58.46 797.3,-44.02 806.34,-32.81"/>
<polygon fill="midnightblue" stroke="midnightblue" points="809.08,-34.99 812.64,-25.01 803.63,-30.59 809.08,-34.99"/>
</g>
<!-- Node19 -->
<g id="node19" class="node">
<title>Node19</title>
<g id="a_node19"><a xlink:title=" ">
<polygon fill="white" stroke="#bfbfbf" points="913.5,-6 913.5,-25 951.5,-25 951.5,-6 913.5,-6"/>
<text text-anchor="middle" x="932.5" y="-13" font-family="Helvetica,sans-Serif" font-size="10.00">map</text>
</a>
</g>
</g>
<!-- Node18&#45;&gt;Node19 -->
<g id="edge24" class="edge">
<title>Node18&#45;&gt;Node19</title>
<path fill="none" stroke="midnightblue" d="M800.77,-67.5C828.04,-59.25 869.62,-45.83 904.5,-31 905.53,-30.56 906.58,-30.1 907.63,-29.62"/>
<polygon fill="midnightblue" stroke="midnightblue" points="909.55,-32.58 917,-25.06 906.48,-26.29 909.55,-32.58"/>
</g>
<!-- Node20 -->
<g id="node20" class="node">
<title>Node20</title>
<g id="a_node20"><a xlink:title=" ">
<polygon fill="white" stroke="#bfbfbf" points="970,-6 970,-25 1035,-25 1035,-6 970,-6"/>
<text text-anchor="middle" x="1002.5" y="-13" font-family="Helvetica,sans-Serif" font-size="10.00">stdexcept</text>
</a>
</g>
</g>
<!-- Node18&#45;&gt;Node20 -->
<g id="edge25" class="edge">
<title>Node18&#45;&gt;Node20</title>
<path fill="none" stroke="midnightblue" d="M812.36,-67.49C850.85,-59.19 909.98,-45.7 960.5,-31 963.44,-30.14 966.48,-29.2 969.52,-28.23"/>
<polygon fill="midnightblue" stroke="midnightblue" points="970.7,-31.52 979.08,-25.04 968.49,-24.88 970.7,-31.52"/>
</g>
<!-- Node21 -->
<g id="node21" class="node">
<title>Node21</title>
<g id="a_node21"><a xlink:title=" ">
<polygon fill="white" stroke="#bfbfbf" points="1053.5,-6 1053.5,-25 1097.5,-25 1097.5,-6 1053.5,-6"/>
<text text-anchor="middle" x="1075.5" y="-13" font-family="Helvetica,sans-Serif" font-size="10.00">string</text>
</a>
</g>
</g>
<!-- Node18&#45;&gt;Node21 -->
<g id="edge26" class="edge">
<title>Node18&#45;&gt;Node21</title>
<path fill="none" stroke="midnightblue" d="M820.71,-68.25C896.42,-56.26 1033.9,-34.28 1044.5,-31 1046.37,-30.42 1048.28,-29.75 1050.18,-29.02"/>
<polygon fill="midnightblue" stroke="midnightblue" points="1051.62,-32.21 1059.42,-25.04 1048.85,-25.78 1051.62,-32.21"/>
</g>
<!-- Node22 -->
<g id="node22" class="node">
<title>Node22</title>
<g id="a_node22"><a xlink:title=" ">
<polygon fill="white" stroke="#bfbfbf" points="1115.5,-6 1115.5,-25 1207.5,-25 1207.5,-6 1115.5,-6"/>
<text text-anchor="middle" x="1161.5" y="-13" font-family="Helvetica,sans-Serif" font-size="10.00">xtensor/xio.hpp</text>
</a>
</g>
</g>
<!-- Node18&#45;&gt;Node22 -->
<g id="edge28" class="edge">
<title>Node18&#45;&gt;Node22</title>
<path fill="none" stroke="midnightblue" d="M820.74,-68.41C824.04,-67.92 827.32,-67.45 830.5,-67 952.99,-49.67 985.11,-54.82 1106.5,-31 1111.58,-30 1116.88,-28.81 1122.11,-27.54"/>
<polygon fill="midnightblue" stroke="midnightblue" points="1123.15,-30.88 1131.98,-25.03 1121.42,-24.1 1123.15,-30.88"/>
</g>
</g>
</svg>
