<?xml version="1.0" encoding="UTF-8" standalone="no"?>
<!DOCTYPE svg PUBLIC "-//W3C//DTD SVG 1.1//EN"
 "http://www.w3.org/Graphics/SVG/1.1/DTD/svg11.dtd">
<!-- Generated by graphviz version 2.40.1 (20161225.0304)
 -->
<!-- Title: RDLS.h Pages: 1 -->
<svg width="951pt" height="151pt"
 viewBox="0.00 0.00 950.63 151.00" xmlns="http://www.w3.org/2000/svg" xmlns:xlink="http://www.w3.org/1999/xlink">
<g id="graph0" class="graph" transform="scale(1 1) rotate(0) translate(4 147)">
<title>RDLS.h</title>
<polygon fill="#ffffff" stroke="transparent" points="-4,4 -4,-147 946.6299,-147 946.6299,4 -4,4"/>
<!-- Node0 -->
<g id="node1" class="node">
<title>Node0</title>
<polygon fill="#bfbfbf" stroke="#000000" points="227.1299,-123.5 227.1299,-142.5 279.1299,-142.5 279.1299,-123.5 227.1299,-123.5"/>
<text text-anchor="middle" x="253.1299" y="-130.5" font-family="Helvetica,sans-Serif" font-size="10.00" fill="#000000">RDLS.h</text>
</g>
<!-- Node1 -->
<g id="node2" class="node">
<title>Node1</title>
<polygon fill="#ffffff" stroke="#bfbfbf" points="32.1299,-6 32.1299,-25 76.1299,-25 76.1299,-6 32.1299,-6"/>
<text text-anchor="middle" x="54.1299" y="-13" font-family="Helvetica,sans-Serif" font-size="10.00" fill="#000000">cmath</text>
</g>
<!-- Node0&#45;&gt;Node1 -->
<g id="edge1" class="edge">
<title>Node0&#45;&gt;Node1</title>
<path fill="none" stroke="#191970" d="M226.7395,-132.1929C168.7465,-129.8066 33.1285,-120.6695 5.1299,-87 -9.9567,-68.8578 11.8193,-46.1167 30.9618,-31.2162"/>
<polygon fill="#191970" stroke="#191970" points="33.1981,-33.9155 39.159,-25.1566 29.037,-28.2865 33.1981,-33.9155"/>
</g>
<!-- Node2 -->
<g id="node3" class="node">
<title>Node2</title>
<polygon fill="#ffffff" stroke="#bfbfbf" points="105.1299,-6 105.1299,-25 159.1299,-25 159.1299,-6 105.1299,-6"/>
<text text-anchor="middle" x="132.1299" y="-13" font-family="Helvetica,sans-Serif" font-size="10.00" fill="#000000">iostream</text>
</g>
<!-- Node0&#45;&gt;Node2 -->
<g id="edge2" class="edge">
<title>Node0&#45;&gt;Node2</title>
<path fill="none" stroke="#191970" d="M226.8029,-129.8013C200.6924,-125.142 161.6961,-113.8773 141.1299,-87 129.9951,-72.4484 128.6549,-51.1458 129.5467,-35.5789"/>
<polygon fill="#191970" stroke="#191970" points="133.0489,-35.7154 130.4825,-25.4361 126.0785,-35.0722 133.0489,-35.7154"/>
</g>
<!-- Node3 -->
<g id="node4" class="node">
<title>Node3</title>
<polygon fill="#ffffff" stroke="#bfbfbf" points="396.6299,-67.5 396.6299,-86.5 447.6299,-86.5 447.6299,-67.5 396.6299,-67.5"/>
<text text-anchor="middle" x="422.1299" y="-74.5" font-family="Helvetica,sans-Serif" font-size="10.00" fill="#000000">valarray</text>
</g>
<!-- Node0&#45;&gt;Node3 -->
<g id="edge3" class="edge">
<title>Node0&#45;&gt;Node3</title>
<path fill="none" stroke="#191970" d="M279.1657,-124.3727C307.9897,-114.8216 354.6152,-99.3717 386.7388,-88.7272"/>
<polygon fill="#191970" stroke="#191970" points="388.2264,-91.9215 396.618,-85.4536 386.0246,-85.2768 388.2264,-91.9215"/>
</g>
<!-- Node4 -->
<g id="node5" class="node">
<title>Node4</title>
<g id="a_node5"><a xlink:href="_comp_kernel_8h.html" target="_top" xlink:title="CompKernel.h">
<polygon fill="#ffffff" stroke="#000000" points="14.6299,-67.5 14.6299,-86.5 93.6299,-86.5 93.6299,-67.5 14.6299,-67.5"/>
<text text-anchor="middle" x="54.1299" y="-74.5" font-family="Helvetica,sans-Serif" font-size="10.00" fill="#000000">CompKernel.h</text>
</a>
</g>
</g>
<!-- Node0&#45;&gt;Node4 -->
<g id="edge4" class="edge">
<title>Node0&#45;&gt;Node4</title>
<path fill="none" stroke="#191970" d="M227.1141,-125.679C194.2864,-116.441 137.3469,-100.4179 97.8021,-89.2897"/>
<polygon fill="#191970" stroke="#191970" points="98.7226,-85.9128 88.1484,-86.573 96.8264,-92.6511 98.7226,-85.9128"/>
</g>
<!-- Node5 -->
<g id="node6" class="node">
<title>Node5</title>
<g id="a_node6"><a xlink:href="_model_factory_8h.html" target="_top" xlink:title="ModelFactory.h">
<polygon fill="#ffffff" stroke="#000000" points="150.1299,-67.5 150.1299,-86.5 234.1299,-86.5 234.1299,-67.5 150.1299,-67.5"/>
<text text-anchor="middle" x="192.1299" y="-74.5" font-family="Helvetica,sans-Serif" font-size="10.00" fill="#000000">ModelFactory.h</text>
</a>
</g>
</g>
<!-- Node0&#45;&gt;Node5 -->
<g id="edge6" class="edge">
<title>Node0&#45;&gt;Node5</title>
<path fill="none" stroke="#191970" d="M242.5045,-123.2455C233.5825,-115.0549 220.6418,-103.1749 210.1106,-93.5069"/>
<polygon fill="#191970" stroke="#191970" points="212.367,-90.8271 202.6335,-86.6427 207.6331,-95.9837 212.367,-90.8271"/>
</g>
<!-- Node6 -->
<g id="node7" class="node">
<title>Node6</title>
<g id="a_node7"><a xlink:href="equivalent__polynomials_8h.html" target="_top" xlink:title="equivalent_polynomials.h">
<polygon fill="#ffffff" stroke="#000000" points="252.1299,-67.5 252.1299,-86.5 378.1299,-86.5 378.1299,-67.5 252.1299,-67.5"/>
<text text-anchor="middle" x="315.1299" y="-74.5" font-family="Helvetica,sans-Serif" font-size="10.00" fill="#000000">equivalent_polynomials.h</text>
</a>
</g>
</g>
<!-- Node0&#45;&gt;Node6 -->
<g id="edge8" class="edge">
<title>Node0&#45;&gt;Node6</title>
<path fill="none" stroke="#191970" d="M263.9294,-123.2455C272.9976,-115.0549 286.1505,-103.1749 296.8543,-93.5069"/>
<polygon fill="#191970" stroke="#191970" points="299.379,-95.9429 304.454,-86.6427 294.687,-90.7482 299.379,-95.9429"/>
</g>
<!-- Node10 -->
<g id="node11" class="node">
<title>Node10</title>
<g id="a_node11"><a xlink:href="_arguments_dict_8h.html" target="_top" xlink:title="ArgumentsDict.h">
<polygon fill="#ffffff" stroke="#000000" points="611.1299,-67.5 611.1299,-86.5 701.1299,-86.5 701.1299,-67.5 611.1299,-67.5"/>
<text text-anchor="middle" x="656.1299" y="-74.5" font-family="Helvetica,sans-Serif" font-size="10.00" fill="#000000">ArgumentsDict.h</text>
</a>
</g>
</g>
<!-- Node0&#45;&gt;Node10 -->
<g id="edge14" class="edge">
<title>Node0&#45;&gt;Node10</title>
<path fill="none" stroke="#191970" d="M279.2613,-129.3688C344.023,-120.3697 513.0523,-96.8818 601.0624,-84.6521"/>
<polygon fill="#191970" stroke="#191970" points="601.7008,-88.0971 611.1238,-83.2539 600.7372,-81.1637 601.7008,-88.0971"/>
</g>
<!-- Node14 -->
<g id="node15" class="node">
<title>Node14</title>
<polygon fill="#ffffff" stroke="#bfbfbf" points="807.6299,-6 807.6299,-25 942.6299,-25 942.6299,-6 807.6299,-6"/>
<text text-anchor="middle" x="875.1299" y="-13" font-family="Helvetica,sans-Serif" font-size="10.00" fill="#000000">xtensor&#45;python/pyarray.hpp</text>
</g>
<!-- Node0&#45;&gt;Node14 -->
<g id="edge20" class="edge">
<title>Node0&#45;&gt;Node14</title>
<path fill="none" stroke="#191970" d="M279.3285,-131.4271C363.6881,-126.196 627.5575,-108.4904 710.1299,-87 761.3318,-73.6741 817.0512,-46.6581 848.8689,-29.9171"/>
<polygon fill="#191970" stroke="#191970" points="850.7673,-32.8714 857.9446,-25.0781 847.4738,-26.6946 850.7673,-32.8714"/>
</g>
<!-- Node4&#45;&gt;Node1 -->
<g id="edge5" class="edge">
<title>Node4&#45;&gt;Node1</title>
<path fill="none" stroke="#191970" d="M54.1299,-67.3906C54.1299,-58.8657 54.1299,-46.1392 54.1299,-35.4235"/>
<polygon fill="#191970" stroke="#191970" points="57.63,-35.2448 54.1299,-25.2449 50.63,-35.2449 57.63,-35.2448"/>
</g>
<!-- Node5&#45;&gt;Node2 -->
<g id="edge7" class="edge">
<title>Node5&#45;&gt;Node2</title>
<path fill="none" stroke="#191970" d="M182.7549,-67.3906C173.6499,-58.0581 159.6325,-43.6902 148.6541,-32.4374"/>
<polygon fill="#191970" stroke="#191970" points="151.1256,-29.9586 141.637,-25.2449 146.1151,-34.8468 151.1256,-29.9586"/>
</g>
<!-- Node6&#45;&gt;Node1 -->
<g id="edge9" class="edge">
<title>Node6&#45;&gt;Node1</title>
<path fill="none" stroke="#191970" d="M258.3085,-67.4278C213.7687,-59.359 150.4514,-46.6374 96.1299,-31 92.7408,-30.0244 89.2336,-28.9077 85.7567,-27.7305"/>
<polygon fill="#191970" stroke="#191970" points="86.7559,-24.3712 76.1612,-24.32 84.4115,-30.967 86.7559,-24.3712"/>
</g>
<!-- Node6&#45;&gt;Node2 -->
<g id="edge11" class="edge">
<title>Node6&#45;&gt;Node2</title>
<path fill="none" stroke="#191970" d="M281.2257,-67.4723C251.2141,-58.7829 206.3685,-45.1718 168.1299,-31 166.3114,-30.3261 164.4516,-29.6101 162.5823,-28.8697"/>
<polygon fill="#191970" stroke="#191970" points="163.8824,-25.62 153.303,-25.0473 161.2162,-32.0924 163.8824,-25.62"/>
</g>
<!-- Node7 -->
<g id="node8" class="node">
<title>Node7</title>
<polygon fill="#ffffff" stroke="#bfbfbf" points="177.6299,-6 177.6299,-25 226.6299,-25 226.6299,-6 177.6299,-6"/>
<text text-anchor="middle" x="202.1299" y="-13" font-family="Helvetica,sans-Serif" font-size="10.00" fill="#000000">cassert</text>
</g>
<!-- Node6&#45;&gt;Node7 -->
<g id="edge10" class="edge">
<title>Node6&#45;&gt;Node7</title>
<path fill="none" stroke="#191970" d="M297.4736,-67.3906C278.9813,-57.3262 249.7289,-41.4057 228.4991,-29.8514"/>
<polygon fill="#191970" stroke="#191970" points="230.1187,-26.7481 219.6621,-25.0419 226.7724,-32.8965 230.1187,-26.7481"/>
</g>
<!-- Node8 -->
<g id="node9" class="node">
<title>Node8</title>
<g id="a_node9"><a xlink:href="equivalent__polynomials__coefficients_8h.html" target="_top" xlink:title="equivalent_polynomials\l_coefficients.h">
<polygon fill="#ffffff" stroke="#000000" points="245.1299,-.5 245.1299,-30.5 363.1299,-30.5 363.1299,-.5 245.1299,-.5"/>
<text text-anchor="start" x="253.1299" y="-18.5" font-family="Helvetica,sans-Serif" font-size="10.00" fill="#000000">equivalent_polynomials</text>
<text text-anchor="middle" x="304.1299" y="-7.5" font-family="Helvetica,sans-Serif" font-size="10.00" fill="#000000">_coefficients.h</text>
</a>
</g>
</g>
<!-- Node6&#45;&gt;Node8 -->
<g id="edge12" class="edge">
<title>Node6&#45;&gt;Node8</title>
<path fill="none" stroke="#191970" d="M313.4111,-67.3906C312.1292,-60.2234 310.316,-50.0862 308.632,-40.671"/>
<polygon fill="#191970" stroke="#191970" points="312.0268,-39.7721 306.8208,-30.5446 305.1362,-41.0046 312.0268,-39.7721"/>
</g>
<!-- Node9 -->
<g id="node10" class="node">
<title>Node9</title>
<g id="a_node10"><a xlink:href="equivalent__polynomials__utils_8h.html" target="_top" xlink:title="equivalent_polynomials\l_utils.h">
<polygon fill="#ffffff" stroke="#000000" points="381.1299,-.5 381.1299,-30.5 499.1299,-30.5 499.1299,-.5 381.1299,-.5"/>
<text text-anchor="start" x="389.1299" y="-18.5" font-family="Helvetica,sans-Serif" font-size="10.00" fill="#000000">equivalent_polynomials</text>
<text text-anchor="middle" x="440.1299" y="-7.5" font-family="Helvetica,sans-Serif" font-size="10.00" fill="#000000">_utils.h</text>
</a>
</g>
</g>
<!-- Node6&#45;&gt;Node9 -->
<g id="edge13" class="edge">
<title>Node6&#45;&gt;Node9</title>
<path fill="none" stroke="#191970" d="M334.6611,-67.3906C352.2049,-58.7591 378.5035,-45.8202 400.4503,-35.0224"/>
<polygon fill="#191970" stroke="#191970" points="402.1237,-38.0997 409.5514,-30.5446 399.0335,-31.8188 402.1237,-38.0997"/>
</g>
<!-- Node11 -->
<g id="node12" class="node">
<title>Node11</title>
<polygon fill="#ffffff" stroke="#bfbfbf" points="677.6299,-6 677.6299,-25 712.6299,-25 712.6299,-6 677.6299,-6"/>
<text text-anchor="middle" x="695.1299" y="-13" font-family="Helvetica,sans-Serif" font-size="10.00" fill="#000000">map</text>
</g>
<!-- Node10&#45;&gt;Node11 -->
<g id="edge15" class="edge">
<title>Node10&#45;&gt;Node11</title>
<path fill="none" stroke="#191970" d="M662.2236,-67.3906C667.9142,-58.417 676.557,-44.7879 683.5572,-33.7491"/>
<polygon fill="#191970" stroke="#191970" points="686.5505,-35.5644 688.9502,-25.2449 680.6389,-31.8155 686.5505,-35.5644"/>
</g>
<!-- Node12 -->
<g id="node13" class="node">
<title>Node12</title>
<polygon fill="#ffffff" stroke="#bfbfbf" points="730.6299,-6 730.6299,-25 789.6299,-25 789.6299,-6 730.6299,-6"/>
<text text-anchor="middle" x="760.1299" y="-13" font-family="Helvetica,sans-Serif" font-size="10.00" fill="#000000">stdexcept</text>
</g>
<!-- Node10&#45;&gt;Node12 -->
<g id="edge16" class="edge">
<title>Node10&#45;&gt;Node12</title>
<path fill="none" stroke="#191970" d="M672.3799,-67.3906C689.2467,-57.4165 715.8398,-41.6908 735.3333,-30.1633"/>
<polygon fill="#191970" stroke="#191970" points="737.1679,-33.1447 743.994,-25.0419 733.6048,-27.1194 737.1679,-33.1447"/>
</g>
<!-- Node13 -->
<g id="node14" class="node">
<title>Node13</title>
<polygon fill="#ffffff" stroke="#bfbfbf" points="517.6299,-6 517.6299,-25 558.6299,-25 558.6299,-6 517.6299,-6"/>
<text text-anchor="middle" x="538.1299" y="-13" font-family="Helvetica,sans-Serif" font-size="10.00" fill="#000000">string</text>
</g>
<!-- Node10&#45;&gt;Node13 -->
<g id="edge17" class="edge">
<title>Node10&#45;&gt;Node13</title>
<path fill="none" stroke="#191970" d="M637.3388,-67.383C619.2992,-58.1281 591.3014,-43.7054 567.1299,-31 566.4477,-30.6414 565.7568,-30.2776 565.06,-29.91"/>
<polygon fill="#191970" stroke="#191970" points="566.3735,-26.6447 555.8997,-25.0476 563.0915,-32.8276 566.3735,-26.6447"/>
</g>
<!-- Node10&#45;&gt;Node14 -->
<g id="edge18" class="edge">
<title>Node10&#45;&gt;Node14</title>
<path fill="none" stroke="#191970" d="M690.3486,-67.3906C728.3574,-56.7169 789.821,-39.4566 831.3183,-27.8033"/>
<polygon fill="#191970" stroke="#191970" points="832.4701,-31.1153 841.1514,-25.0419 830.5775,-24.3759 832.4701,-31.1153"/>
</g>
<!-- Node15 -->
<g id="node16" class="node">
<title>Node15</title>
<polygon fill="#ffffff" stroke="#bfbfbf" points="576.6299,-6 576.6299,-25 659.6299,-25 659.6299,-6 576.6299,-6"/>
<text text-anchor="middle" x="618.1299" y="-13" font-family="Helvetica,sans-Serif" font-size="10.00" fill="#000000">xtensor/xio.hpp</text>
</g>
<!-- Node10&#45;&gt;Node15 -->
<g id="edge19" class="edge">
<title>Node10&#45;&gt;Node15</title>
<path fill="none" stroke="#191970" d="M650.1924,-67.3906C644.7031,-58.5068 636.3946,-45.0601 629.6109,-34.0811"/>
<polygon fill="#191970" stroke="#191970" points="632.385,-31.9122 624.1511,-25.2449 626.43,-35.5917 632.385,-31.9122"/>
</g>
</g>
</svg>
