<?xml version="1.0" encoding="UTF-8" standalone="no"?>
<!DOCTYPE svg PUBLIC "-//W3C//DTD SVG 1.1//EN"
 "http://www.w3.org/Graphics/SVG/1.1/DTD/svg11.dtd">
<!-- Generated by graphviz version 2.44.1 (20200629.0846)
 -->
<!-- Title: RDLS.cpp Pages: 1 -->
<svg width="670pt" height="207pt"
 viewBox="0.00 0.00 670.00 207.00" xmlns="http://www.w3.org/2000/svg" xmlns:xlink="http://www.w3.org/1999/xlink">
<g id="graph0" class="graph" transform="scale(1 1) rotate(0) translate(4 203)">
<title>RDLS.cpp</title>
<polygon fill="white" stroke="transparent" points="-4,4 -4,-203 666,-203 666,4 -4,4"/>
<!-- Node1 -->
<g id="node1" class="node">
<title>Node1</title>
<g id="a_node1"><a xlink:title=" ">
<polygon fill="#bfbfbf" stroke="black" points="144,-179.5 144,-198.5 206,-198.5 206,-179.5 144,-179.5"/>
<text text-anchor="middle" x="175" y="-186.5" font-family="Helvetica,sans-Serif" font-size="10.00">RDLS.cpp</text>
</a>
</g>
</g>
<!-- Node2 -->
<g id="node2" class="node">
<title>Node2</title>
<g id="a_node2"><a xlink:title=" ">
<polygon fill="white" stroke="#bfbfbf" points="0,-123.5 0,-142.5 106,-142.5 106,-123.5 0,-123.5"/>
<text text-anchor="middle" x="53" y="-130.5" font-family="Helvetica,sans-Serif" font-size="10.00">pybind11/pybind11.h</text>
</a>
</g>
</g>
<!-- Node1&#45;&gt;Node2 -->
<g id="edge1" class="edge">
<title>Node1&#45;&gt;Node2</title>
<path fill="none" stroke="midnightblue" d="M155.67,-179.44C135.68,-170.6 104.26,-156.69 81.44,-146.59"/>
<polygon fill="midnightblue" stroke="midnightblue" points="82.8,-143.36 72.24,-142.52 79.97,-149.76 82.8,-143.36"/>
</g>
<!-- Node3 -->
<g id="node3" class="node">
<title>Node3</title>
<g id="a_node3"><a xlink:title=" ">
<polygon fill="white" stroke="#bfbfbf" points="124.5,-123.5 124.5,-142.5 225.5,-142.5 225.5,-123.5 124.5,-123.5"/>
<text text-anchor="middle" x="175" y="-130.5" font-family="Helvetica,sans-Serif" font-size="10.00">pybind11/stl_bind.h</text>
</a>
</g>
</g>
<!-- Node1&#45;&gt;Node3 -->
<g id="edge2" class="edge">
<title>Node1&#45;&gt;Node3</title>
<path fill="none" stroke="midnightblue" d="M175,-179.08C175,-172.01 175,-161.86 175,-152.99"/>
<polygon fill="midnightblue" stroke="midnightblue" points="178.5,-152.75 175,-142.75 171.5,-152.75 178.5,-152.75"/>
</g>
<!-- Node4 -->
<g id="node4" class="node">
<title>Node4</title>
<g id="a_node4"><a xlink:href="_r_d_l_s_8h.html" target="_top" xlink:title=" ">
<polygon fill="white" stroke="black" points="244,-123.5 244,-142.5 296,-142.5 296,-123.5 244,-123.5"/>
<text text-anchor="middle" x="270" y="-130.5" font-family="Helvetica,sans-Serif" font-size="10.00">RDLS.h</text>
</a>
</g>
</g>
<!-- Node1&#45;&gt;Node4 -->
<g id="edge3" class="edge">
<title>Node1&#45;&gt;Node4</title>
<path fill="none" stroke="midnightblue" d="M190.26,-179.32C205.22,-170.82 228.25,-157.73 245.73,-147.8"/>
<polygon fill="midnightblue" stroke="midnightblue" points="247.81,-150.64 254.77,-142.65 244.35,-144.55 247.81,-150.64"/>
</g>
<!-- Node5 -->
<g id="node5" class="node">
<title>Node5</title>
<g id="a_node5"><a xlink:title=" ">
<polygon fill="white" stroke="#bfbfbf" points="278,-6 278,-25 322,-25 322,-6 278,-6"/>
<text text-anchor="middle" x="300" y="-13" font-family="Helvetica,sans-Serif" font-size="10.00">cmath</text>
</a>
</g>
</g>
<!-- Node4&#45;&gt;Node5 -->
<g id="edge4" class="edge">
<title>Node4&#45;&gt;Node5</title>
<path fill="none" stroke="midnightblue" d="M284.66,-123.4C296.41,-115.58 312.03,-102.86 319,-87 326.62,-69.65 318.86,-48.52 311.09,-33.94"/>
<polygon fill="midnightblue" stroke="midnightblue" points="313.95,-31.9 305.89,-25.03 307.9,-35.43 313.95,-31.9"/>
</g>
<!-- Node6 -->
<g id="node6" class="node">
<title>Node6</title>
<g id="a_node6"><a xlink:title=" ">
<polygon fill="white" stroke="#bfbfbf" points="40,-6 40,-25 94,-25 94,-6 40,-6"/>
<text text-anchor="middle" x="67" y="-13" font-family="Helvetica,sans-Serif" font-size="10.00">iostream</text>
</a>
</g>
</g>
<!-- Node4&#45;&gt;Node6 -->
<g id="edge5" class="edge">
<title>Node4&#45;&gt;Node6</title>
<path fill="none" stroke="midnightblue" d="M243.67,-125.05C240.75,-124.34 237.81,-123.64 235,-123 153.72,-104.62 103.96,-151.33 51,-87 38.71,-72.08 47,-49.59 55.56,-34.04"/>
<polygon fill="midnightblue" stroke="midnightblue" points="58.6,-35.77 60.74,-25.39 52.6,-32.17 58.6,-35.77"/>
</g>
<!-- Node7 -->
<g id="node7" class="node">
<title>Node7</title>
<g id="a_node7"><a xlink:title=" ">
<polygon fill="white" stroke="#bfbfbf" points="161.5,-67.5 161.5,-86.5 212.5,-86.5 212.5,-67.5 161.5,-67.5"/>
<text text-anchor="middle" x="187" y="-74.5" font-family="Helvetica,sans-Serif" font-size="10.00">valarray</text>
</a>
</g>
</g>
<!-- Node4&#45;&gt;Node7 -->
<g id="edge6" class="edge">
<title>Node4&#45;&gt;Node7</title>
<path fill="none" stroke="midnightblue" d="M256.66,-123.32C243.84,-114.98 224.22,-102.21 209.06,-92.35"/>
<polygon fill="midnightblue" stroke="midnightblue" points="210.59,-89.17 200.3,-86.65 206.78,-95.04 210.59,-89.17"/>
</g>
<!-- Node8 -->
<g id="node8" class="node">
<title>Node8</title>
<g id="a_node8"><a xlink:href="_comp_kernel_8h.html" target="_top" xlink:title=" ">
<polygon fill="white" stroke="black" points="230.5,-67.5 230.5,-86.5 309.5,-86.5 309.5,-67.5 230.5,-67.5"/>
<text text-anchor="middle" x="270" y="-74.5" font-family="Helvetica,sans-Serif" font-size="10.00">CompKernel.h</text>
</a>
</g>
</g>
<!-- Node4&#45;&gt;Node8 -->
<g id="edge7" class="edge">
<title>Node4&#45;&gt;Node8</title>
<path fill="none" stroke="midnightblue" d="M270,-123.08C270,-116.01 270,-105.86 270,-96.99"/>
<polygon fill="midnightblue" stroke="midnightblue" points="273.5,-96.75 270,-86.75 266.5,-96.75 273.5,-96.75"/>
</g>
<!-- Node9 -->
<g id="node9" class="node">
<title>Node9</title>
<g id="a_node9"><a xlink:href="_model_factory_8h.html" target="_top" xlink:title=" ">
<polygon fill="white" stroke="black" points="60.5,-67.5 60.5,-86.5 143.5,-86.5 143.5,-67.5 60.5,-67.5"/>
<text text-anchor="middle" x="102" y="-74.5" font-family="Helvetica,sans-Serif" font-size="10.00">ModelFactory.h</text>
</a>
</g>
</g>
<!-- Node4&#45;&gt;Node9 -->
<g id="edge9" class="edge">
<title>Node4&#45;&gt;Node9</title>
<path fill="none" stroke="midnightblue" d="M243.75,-123.56C215.44,-114.46 170.16,-99.91 138.41,-89.7"/>
<polygon fill="midnightblue" stroke="midnightblue" points="139.21,-86.28 128.62,-86.56 137.07,-92.95 139.21,-86.28"/>
</g>
<!-- Node10 -->
<g id="node10" class="node">
<title>Node10</title>
<g id="a_node10"><a xlink:href="equivalent__polynomials_8h.html" target="_top" xlink:title=" ">
<polygon fill="white" stroke="black" points="366,-67.5 366,-86.5 492,-86.5 492,-67.5 366,-67.5"/>
<text text-anchor="middle" x="429" y="-74.5" font-family="Helvetica,sans-Serif" font-size="10.00">equivalent_polynomials.h</text>
</a>
</g>
</g>
<!-- Node4&#45;&gt;Node10 -->
<g id="edge11" class="edge">
<title>Node4&#45;&gt;Node10</title>
<path fill="none" stroke="midnightblue" d="M295.19,-123.44C321.94,-114.36 364.4,-99.94 394.31,-89.78"/>
<polygon fill="midnightblue" stroke="midnightblue" points="395.58,-93.05 403.92,-86.52 393.33,-86.42 395.58,-93.05"/>
</g>
<!-- Node14 -->
<g id="node14" class="node">
<title>Node14</title>
<g id="a_node14"><a xlink:title=" ">
<polygon fill="white" stroke="#bfbfbf" points="510,-67.5 510,-86.5 644,-86.5 644,-67.5 510,-67.5"/>
<text text-anchor="middle" x="577" y="-74.5" font-family="Helvetica,sans-Serif" font-size="10.00">xtensor&#45;python/pyarray.hpp</text>
</a>
</g>
</g>
<!-- Node4&#45;&gt;Node14 -->
<g id="edge16" class="edge">
<title>Node4&#45;&gt;Node14</title>
<path fill="none" stroke="midnightblue" d="M296.17,-127.4C345.14,-118.78 451.66,-100.05 518.53,-88.29"/>
<polygon fill="midnightblue" stroke="midnightblue" points="519.26,-91.71 528.5,-86.53 518.04,-84.82 519.26,-91.71"/>
</g>
<!-- Node8&#45;&gt;Node5 -->
<g id="edge8" class="edge">
<title>Node8&#45;&gt;Node5</title>
<path fill="none" stroke="midnightblue" d="M274.3,-67.48C278.66,-58.82 285.56,-45.15 291.1,-34.15"/>
<polygon fill="midnightblue" stroke="midnightblue" points="294.33,-35.51 295.71,-25.01 288.08,-32.36 294.33,-35.51"/>
</g>
<!-- Node9&#45;&gt;Node6 -->
<g id="edge10" class="edge">
<title>Node9&#45;&gt;Node6</title>
<path fill="none" stroke="midnightblue" d="M96.99,-67.48C91.84,-58.73 83.69,-44.87 77.18,-33.81"/>
<polygon fill="midnightblue" stroke="midnightblue" points="80.09,-31.85 72.01,-25.01 74.06,-35.4 80.09,-31.85"/>
</g>
<!-- Node10&#45;&gt;Node5 -->
<g id="edge12" class="edge">
<title>Node10&#45;&gt;Node5</title>
<path fill="none" stroke="midnightblue" d="M410.19,-67.41C390.45,-58.39 358.52,-43.75 331,-31 329.85,-30.47 328.67,-29.92 327.48,-29.37"/>
<polygon fill="midnightblue" stroke="midnightblue" points="328.89,-26.16 318.35,-25.11 325.93,-32.51 328.89,-26.16"/>
</g>
<!-- Node11 -->
<g id="node11" class="node">
<title>Node11</title>
<g id="a_node11"><a xlink:title=" ">
<polygon fill="white" stroke="#bfbfbf" points="476.5,-6 476.5,-25 525.5,-25 525.5,-6 476.5,-6"/>
<text text-anchor="middle" x="501" y="-13" font-family="Helvetica,sans-Serif" font-size="10.00">cassert</text>
</a>
</g>
</g>
<!-- Node10&#45;&gt;Node11 -->
<g id="edge13" class="edge">
<title>Node10&#45;&gt;Node11</title>
<path fill="none" stroke="midnightblue" d="M439.32,-67.48C450.65,-58.11 469.07,-42.88 482.84,-31.51"/>
<polygon fill="midnightblue" stroke="midnightblue" points="485.22,-34.08 490.7,-25.01 480.77,-28.68 485.22,-34.08"/>
</g>
<!-- Node12 -->
<g id="node12" class="node">
<title>Node12</title>
<g id="a_node12"><a xlink:href="equivalent__polynomials__coefficients_8h.html" target="_top" xlink:title=" ">
<polygon fill="white" stroke="black" points="544,-0.5 544,-30.5 662,-30.5 662,-0.5 544,-0.5"/>
<text text-anchor="start" x="552" y="-18.5" font-family="Helvetica,sans-Serif" font-size="10.00">equivalent_polynomials</text>
<text text-anchor="middle" x="603" y="-7.5" font-family="Helvetica,sans-Serif" font-size="10.00">_coefficients.h</text>
</a>
</g>
</g>
<!-- Node10&#45;&gt;Node12 -->
<g id="edge14" class="edge">
<title>Node10&#45;&gt;Node12</title>
<path fill="none" stroke="midnightblue" d="M453.93,-67.48C479.48,-58.74 519.93,-44.91 552.25,-33.86"/>
<polygon fill="midnightblue" stroke="midnightblue" points="553.66,-37.07 561.99,-30.52 551.4,-30.45 553.66,-37.07"/>
</g>
<!-- Node13 -->
<g id="node13" class="node">
<title>Node13</title>
<g id="a_node13"><a xlink:href="equivalent__polynomials__utils_8h.html" target="_top" xlink:title=" ">
<polygon fill="white" stroke="black" points="340,-0.5 340,-30.5 458,-30.5 458,-0.5 340,-0.5"/>
<text text-anchor="start" x="348" y="-18.5" font-family="Helvetica,sans-Serif" font-size="10.00">equivalent_polynomials</text>
<text text-anchor="middle" x="399" y="-7.5" font-family="Helvetica,sans-Serif" font-size="10.00">_utils.h</text>
</a>
</g>
</g>
<!-- Node10&#45;&gt;Node13 -->
<g id="edge15" class="edge">
<title>Node10&#45;&gt;Node13</title>
<path fill="none" stroke="midnightblue" d="M424.7,-67.48C421.02,-60.17 415.54,-49.3 410.58,-39.47"/>
<polygon fill="midnightblue" stroke="midnightblue" points="413.7,-37.88 406.07,-30.52 407.45,-41.03 413.7,-37.88"/>
</g>
</g>
</svg>
