<?xml version="1.0" encoding="UTF-8" standalone="no"?>
<!DOCTYPE svg PUBLIC "-//W3C//DTD SVG 1.1//EN"
 "http://www.w3.org/Graphics/SVG/1.1/DTD/svg11.dtd">
<!-- Generated by graphviz version 2.50.0 (20211204.2007)
 -->
<!-- Title: RDLS.cpp Pages: 1 -->
<svg width="1159pt" height="207pt"
 viewBox="0.00 0.00 1159.00 207.00" xmlns="http://www.w3.org/2000/svg" xmlns:xlink="http://www.w3.org/1999/xlink">
<g id="graph0" class="graph" transform="scale(1 1) rotate(0) translate(4 203)">
<title>RDLS.cpp</title>
<polygon fill="white" stroke="transparent" points="-4,4 -4,-203 1155,-203 1155,4 -4,4"/>
<!-- Node1 -->
<g id="node1" class="node">
<title>Node1</title>
<g id="a_node1"><a xlink:title=" ">
<polygon fill="#bfbfbf" stroke="black" points="144,-179.5 144,-198.5 206,-198.5 206,-179.5 144,-179.5"/>
<text text-anchor="middle" x="175" y="-186.5" font-family="Helvetica,sans-Serif" font-size="10.00">RDLS.cpp</text>
</a>
</g>
</g>
<!-- Node2 -->
<g id="node2" class="node">
<title>Node2</title>
<g id="a_node2"><a xlink:title=" ">
<polygon fill="white" stroke="#bfbfbf" points="0,-123.5 0,-142.5 106,-142.5 106,-123.5 0,-123.5"/>
<text text-anchor="middle" x="53" y="-130.5" font-family="Helvetica,sans-Serif" font-size="10.00">pybind11/pybind11.h</text>
</a>
</g>
</g>
<!-- Node1&#45;&gt;Node2 -->
<g id="edge1" class="edge">
<title>Node1&#45;&gt;Node2</title>
<path fill="none" stroke="midnightblue" d="M155.67,-179.44C135.68,-170.6 104.26,-156.69 81.44,-146.59"/>
<polygon fill="midnightblue" stroke="midnightblue" points="82.8,-143.36 72.24,-142.52 79.97,-149.76 82.8,-143.36"/>
</g>
<!-- Node3 -->
<g id="node3" class="node">
<title>Node3</title>
<g id="a_node3"><a xlink:title=" ">
<polygon fill="white" stroke="#bfbfbf" points="124.5,-123.5 124.5,-142.5 225.5,-142.5 225.5,-123.5 124.5,-123.5"/>
<text text-anchor="middle" x="175" y="-130.5" font-family="Helvetica,sans-Serif" font-size="10.00">pybind11/stl_bind.h</text>
</a>
</g>
</g>
<!-- Node1&#45;&gt;Node3 -->
<g id="edge2" class="edge">
<title>Node1&#45;&gt;Node3</title>
<path fill="none" stroke="midnightblue" d="M175,-179.08C175,-172.01 175,-161.86 175,-152.99"/>
<polygon fill="midnightblue" stroke="midnightblue" points="178.5,-152.75 175,-142.75 171.5,-152.75 178.5,-152.75"/>
</g>
<!-- Node4 -->
<g id="node4" class="node">
<title>Node4</title>
<g id="a_node4"><a xlink:href="_r_d_l_s_8h.html" target="_top" xlink:title=" ">
<polygon fill="white" stroke="black" points="244,-123.5 244,-142.5 296,-142.5 296,-123.5 244,-123.5"/>
<text text-anchor="middle" x="270" y="-130.5" font-family="Helvetica,sans-Serif" font-size="10.00">RDLS.h</text>
</a>
</g>
</g>
<!-- Node1&#45;&gt;Node4 -->
<g id="edge3" class="edge">
<title>Node1&#45;&gt;Node4</title>
<path fill="none" stroke="midnightblue" d="M190.26,-179.32C205.22,-170.82 228.25,-157.73 245.73,-147.8"/>
<polygon fill="midnightblue" stroke="midnightblue" points="247.81,-150.64 254.77,-142.65 244.35,-144.55 247.81,-150.64"/>
</g>
<!-- Node5 -->
<g id="node5" class="node">
<title>Node5</title>
<g id="a_node5"><a xlink:title=" ">
<polygon fill="white" stroke="#bfbfbf" points="49,-6 49,-25 93,-25 93,-6 49,-6"/>
<text text-anchor="middle" x="71" y="-13" font-family="Helvetica,sans-Serif" font-size="10.00">cmath</text>
</a>
</g>
</g>
<!-- Node4&#45;&gt;Node5 -->
<g id="edge4" class="edge">
<title>Node4&#45;&gt;Node5</title>
<path fill="none" stroke="midnightblue" d="M243.71,-125.18C240.45,-124.41 237.15,-123.66 234,-123 187.23,-113.2 52.83,-123.51 22,-87 6.59,-68.75 29.68,-45.71 49.11,-31.04"/>
<polygon fill="midnightblue" stroke="midnightblue" points="51.27,-33.8 57.35,-25.12 47.19,-28.11 51.27,-33.8"/>
</g>
<!-- Node6 -->
<g id="node6" class="node">
<title>Node6</title>
<g id="a_node6"><a xlink:title=" ">
<polygon fill="white" stroke="#bfbfbf" points="111,-6 111,-25 165,-25 165,-6 111,-6"/>
<text text-anchor="middle" x="138" y="-13" font-family="Helvetica,sans-Serif" font-size="10.00">iostream</text>
</a>
</g>
</g>
<!-- Node4&#45;&gt;Node6 -->
<g id="edge5" class="edge">
<title>Node4&#45;&gt;Node6</title>
<path fill="none" stroke="midnightblue" d="M243.83,-124.42C214.59,-115.47 169.81,-100.13 158,-87 145.13,-72.69 140.48,-50.67 138.84,-35.06"/>
<polygon fill="midnightblue" stroke="midnightblue" points="142.33,-34.73 138.1,-25.02 135.34,-35.25 142.33,-34.73"/>
</g>
<!-- Node7 -->
<g id="node7" class="node">
<title>Node7</title>
<g id="a_node7"><a xlink:title=" ">
<polygon fill="white" stroke="#bfbfbf" points="413.5,-67.5 413.5,-86.5 464.5,-86.5 464.5,-67.5 413.5,-67.5"/>
<text text-anchor="middle" x="439" y="-74.5" font-family="Helvetica,sans-Serif" font-size="10.00">valarray</text>
</a>
</g>
</g>
<!-- Node4&#45;&gt;Node7 -->
<g id="edge6" class="edge">
<title>Node4&#45;&gt;Node7</title>
<path fill="none" stroke="midnightblue" d="M296.04,-123.68C324.86,-114.47 371.49,-99.57 403.61,-89.31"/>
<polygon fill="midnightblue" stroke="midnightblue" points="405.03,-92.53 413.49,-86.15 402.9,-85.86 405.03,-92.53"/>
</g>
<!-- Node8 -->
<g id="node8" class="node">
<title>Node8</title>
<g id="a_node8"><a xlink:href="_comp_kernel_8h.html" target="_top" xlink:title=" ">
<polygon fill="white" stroke="black" points="31.5,-67.5 31.5,-86.5 110.5,-86.5 110.5,-67.5 31.5,-67.5"/>
<text text-anchor="middle" x="71" y="-74.5" font-family="Helvetica,sans-Serif" font-size="10.00">CompKernel.h</text>
</a>
</g>
</g>
<!-- Node4&#45;&gt;Node8 -->
<g id="edge7" class="edge">
<title>Node4&#45;&gt;Node8</title>
<path fill="none" stroke="midnightblue" d="M243.98,-124.94C210.55,-115.87 152.1,-100.01 112.49,-89.26"/>
<polygon fill="midnightblue" stroke="midnightblue" points="113.17,-85.82 102.6,-86.58 111.34,-92.57 113.17,-85.82"/>
</g>
<!-- Node9 -->
<g id="node9" class="node">
<title>Node9</title>
<g id="a_node9"><a xlink:href="_model_factory_8h.html" target="_top" xlink:title=" ">
<polygon fill="white" stroke="black" points="167.5,-67.5 167.5,-86.5 250.5,-86.5 250.5,-67.5 167.5,-67.5"/>
<text text-anchor="middle" x="209" y="-74.5" font-family="Helvetica,sans-Serif" font-size="10.00">ModelFactory.h</text>
</a>
</g>
</g>
<!-- Node4&#45;&gt;Node9 -->
<g id="edge9" class="edge">
<title>Node4&#45;&gt;Node9</title>
<path fill="none" stroke="midnightblue" d="M260.2,-123.32C251.18,-115.34 237.59,-103.31 226.68,-93.65"/>
<polygon fill="midnightblue" stroke="midnightblue" points="228.79,-90.84 218.98,-86.83 224.15,-96.08 228.79,-90.84"/>
</g>
<!-- Node10 -->
<g id="node10" class="node">
<title>Node10</title>
<g id="a_node10"><a xlink:href="equivalent__polynomials_8h.html" target="_top" xlink:title=" ">
<polygon fill="white" stroke="black" points="269,-67.5 269,-86.5 395,-86.5 395,-67.5 269,-67.5"/>
<text text-anchor="middle" x="332" y="-74.5" font-family="Helvetica,sans-Serif" font-size="10.00">equivalent_polynomials.h</text>
</a>
</g>
</g>
<!-- Node4&#45;&gt;Node10 -->
<g id="edge11" class="edge">
<title>Node4&#45;&gt;Node10</title>
<path fill="none" stroke="midnightblue" d="M279.96,-123.32C289.13,-115.34 302.94,-103.31 314.03,-93.65"/>
<polygon fill="midnightblue" stroke="midnightblue" points="316.62,-96.04 321.86,-86.83 312.02,-90.76 316.62,-96.04"/>
</g>
<!-- Node16 -->
<g id="node16" class="node">
<title>Node16</title>
<g id="a_node16"><a xlink:href="_arguments_dict_8h.html" target="_top" xlink:title=" ">
<polygon fill="white" stroke="black" points="798,-67.5 798,-86.5 888,-86.5 888,-67.5 798,-67.5"/>
<text text-anchor="middle" x="843" y="-74.5" font-family="Helvetica,sans-Serif" font-size="10.00">ArgumentsDict.h</text>
</a>
</g>
</g>
<!-- Node4&#45;&gt;Node16 -->
<g id="edge19" class="edge">
<title>Node4&#45;&gt;Node16</title>
<path fill="none" stroke="midnightblue" d="M296.11,-129.54C383.44,-121.31 666.62,-94.62 787.49,-83.23"/>
<polygon fill="midnightblue" stroke="midnightblue" points="788.01,-86.7 797.64,-82.27 787.35,-79.73 788.01,-86.7"/>
</g>
<!-- Node20 -->
<g id="node20" class="node">
<title>Node20</title>
<g id="a_node20"><a xlink:title=" ">
<polygon fill="white" stroke="#bfbfbf" points="1017,-6 1017,-25 1151,-25 1151,-6 1017,-6"/>
<text text-anchor="middle" x="1084" y="-13" font-family="Helvetica,sans-Serif" font-size="10.00">xtensor&#45;python/pyarray.hpp</text>
</a>
</g>
</g>
<!-- Node4&#45;&gt;Node20 -->
<g id="edge25" class="edge">
<title>Node4&#45;&gt;Node20</title>
<path fill="none" stroke="midnightblue" d="M296.05,-131.13C399.24,-127.54 779.48,-112.8 897,-87 956.17,-74.01 1021.6,-45.95 1057.24,-29.42"/>
<polygon fill="midnightblue" stroke="midnightblue" points="1058.91,-32.5 1066.47,-25.08 1055.93,-26.16 1058.91,-32.5"/>
</g>
<!-- Node8&#45;&gt;Node5 -->
<g id="edge8" class="edge">
<title>Node8&#45;&gt;Node5</title>
<path fill="none" stroke="midnightblue" d="M71,-67.48C71,-59.08 71,-45.98 71,-35.16"/>
<polygon fill="midnightblue" stroke="midnightblue" points="74.5,-35.01 71,-25.01 67.5,-35.01 74.5,-35.01"/>
</g>
<!-- Node9&#45;&gt;Node6 -->
<g id="edge10" class="edge">
<title>Node9&#45;&gt;Node6</title>
<path fill="none" stroke="midnightblue" d="M198.83,-67.48C187.65,-58.11 169.48,-42.88 155.91,-31.51"/>
<polygon fill="midnightblue" stroke="midnightblue" points="158.07,-28.75 148.15,-25.01 153.57,-34.11 158.07,-28.75"/>
</g>
<!-- Node10&#45;&gt;Node5 -->
<g id="edge12" class="edge">
<title>Node10&#45;&gt;Node5</title>
<path fill="none" stroke="midnightblue" d="M268.96,-67.91C222.14,-60.89 157.12,-48.98 102,-31 100.33,-30.46 98.63,-29.84 96.94,-29.19"/>
<polygon fill="midnightblue" stroke="midnightblue" points="98,-25.83 87.43,-25.09 95.23,-32.26 98,-25.83"/>
</g>
<!-- Node10&#45;&gt;Node6 -->
<g id="edge14" class="edge">
<title>Node10&#45;&gt;Node6</title>
<path fill="none" stroke="midnightblue" d="M298.08,-67.45C265.87,-59.07 216.22,-45.47 174,-31 171.88,-30.27 169.7,-29.49 167.51,-28.68"/>
<polygon fill="midnightblue" stroke="midnightblue" points="168.63,-25.36 158.04,-25.01 166.1,-31.88 168.63,-25.36"/>
</g>
<!-- Node11 -->
<g id="node11" class="node">
<title>Node11</title>
<g id="a_node11"><a xlink:title=" ">
<polygon fill="white" stroke="#bfbfbf" points="659.5,-6 659.5,-25 708.5,-25 708.5,-6 659.5,-6"/>
<text text-anchor="middle" x="684" y="-13" font-family="Helvetica,sans-Serif" font-size="10.00">cassert</text>
</a>
</g>
</g>
<!-- Node10&#45;&gt;Node11 -->
<g id="edge13" class="edge">
<title>Node10&#45;&gt;Node11</title>
<path fill="none" stroke="midnightblue" d="M395.2,-67.96C480.88,-56.92 626.03,-37.68 650,-31 652.29,-30.36 654.64,-29.6 656.97,-28.77"/>
<polygon fill="midnightblue" stroke="midnightblue" points="658.3,-32.01 666.32,-25.08 655.73,-25.5 658.3,-32.01"/>
</g>
<!-- Node12 -->
<g id="node12" class="node">
<title>Node12</title>
<g id="a_node12"><a xlink:title=" ">
<polygon fill="white" stroke="#bfbfbf" points="183,-6 183,-25 233,-25 233,-6 183,-6"/>
<text text-anchor="middle" x="208" y="-13" font-family="Helvetica,sans-Serif" font-size="10.00">iomanip</text>
</a>
</g>
</g>
<!-- Node10&#45;&gt;Node12 -->
<g id="edge15" class="edge">
<title>Node10&#45;&gt;Node12</title>
<path fill="none" stroke="midnightblue" d="M314.23,-67.48C293.52,-57.53 259.05,-40.99 235.01,-29.46"/>
<polygon fill="midnightblue" stroke="midnightblue" points="236.26,-26.18 225.73,-25.01 233.23,-32.49 236.26,-26.18"/>
</g>
<!-- Node13 -->
<g id="node13" class="node">
<title>Node13</title>
<g id="a_node13"><a xlink:href="equivalent__polynomials__coefficients_8h.html" target="_top" xlink:title=" ">
<polygon fill="white" stroke="black" points="251,-0.5 251,-30.5 369,-30.5 369,-0.5 251,-0.5"/>
<text text-anchor="start" x="259" y="-18.5" font-family="Helvetica,sans-Serif" font-size="10.00">equivalent_polynomials</text>
<text text-anchor="middle" x="310" y="-7.5" font-family="Helvetica,sans-Serif" font-size="10.00">_coefficients.h</text>
</a>
</g>
</g>
<!-- Node10&#45;&gt;Node13 -->
<g id="edge16" class="edge">
<title>Node10&#45;&gt;Node13</title>
<path fill="none" stroke="midnightblue" d="M328.85,-67.48C326.2,-60.32 322.29,-49.75 318.72,-40.08"/>
<polygon fill="midnightblue" stroke="midnightblue" points="321.94,-38.69 315.18,-30.52 315.37,-41.12 321.94,-38.69"/>
</g>
<!-- Node14 -->
<g id="node14" class="node">
<title>Node14</title>
<g id="a_node14"><a xlink:href="equivalent__polynomials__coefficients__quad_8h.html" target="_top" xlink:title=" ">
<polygon fill="white" stroke="black" points="387,-0.5 387,-30.5 505,-30.5 505,-0.5 387,-0.5"/>
<text text-anchor="start" x="395" y="-18.5" font-family="Helvetica,sans-Serif" font-size="10.00">equivalent_polynomials</text>
<text text-anchor="middle" x="446" y="-7.5" font-family="Helvetica,sans-Serif" font-size="10.00">_coefficients_quad.h</text>
</a>
</g>
</g>
<!-- Node10&#45;&gt;Node14 -->
<g id="edge17" class="edge">
<title>Node10&#45;&gt;Node14</title>
<path fill="none" stroke="midnightblue" d="M348.33,-67.48C364.42,-59.08 389.53,-45.97 410.26,-35.15"/>
<polygon fill="midnightblue" stroke="midnightblue" points="411.89,-38.25 419.13,-30.52 408.65,-32.05 411.89,-38.25"/>
</g>
<!-- Node15 -->
<g id="node15" class="node">
<title>Node15</title>
<g id="a_node15"><a xlink:href="equivalent__polynomials__utils_8h.html" target="_top" xlink:title=" ">
<polygon fill="white" stroke="black" points="523,-0.5 523,-30.5 641,-30.5 641,-0.5 523,-0.5"/>
<text text-anchor="start" x="531" y="-18.5" font-family="Helvetica,sans-Serif" font-size="10.00">equivalent_polynomials</text>
<text text-anchor="middle" x="582" y="-7.5" font-family="Helvetica,sans-Serif" font-size="10.00">_utils.h</text>
</a>
</g>
</g>
<!-- Node10&#45;&gt;Node15 -->
<g id="edge18" class="edge">
<title>Node10&#45;&gt;Node15</title>
<path fill="none" stroke="midnightblue" d="M367.82,-67.48C405.63,-58.48 466.17,-44.07 513.25,-32.86"/>
<polygon fill="midnightblue" stroke="midnightblue" points="514.16,-36.24 523.08,-30.52 512.54,-29.43 514.16,-36.24"/>
</g>
<!-- Node17 -->
<g id="node17" class="node">
<title>Node17</title>
<g id="a_node17"><a xlink:title=" ">
<polygon fill="white" stroke="#bfbfbf" points="726.5,-6 726.5,-25 761.5,-25 761.5,-6 726.5,-6"/>
<text text-anchor="middle" x="744" y="-13" font-family="Helvetica,sans-Serif" font-size="10.00">map</text>
</a>
</g>
</g>
<!-- Node16&#45;&gt;Node17 -->
<g id="edge20" class="edge">
<title>Node16&#45;&gt;Node17</title>
<path fill="none" stroke="midnightblue" d="M828.82,-67.48C812.64,-57.75 785.97,-41.73 766.86,-30.24"/>
<polygon fill="midnightblue" stroke="midnightblue" points="768.53,-27.16 758.16,-25.01 764.93,-33.16 768.53,-27.16"/>
</g>
<!-- Node18 -->
<g id="node18" class="node">
<title>Node18</title>
<g id="a_node18"><a xlink:title=" ">
<polygon fill="white" stroke="#bfbfbf" points="779.5,-6 779.5,-25 838.5,-25 838.5,-6 779.5,-6"/>
<text text-anchor="middle" x="809" y="-13" font-family="Helvetica,sans-Serif" font-size="10.00">stdexcept</text>
</a>
</g>
</g>
<!-- Node16&#45;&gt;Node18 -->
<g id="edge21" class="edge">
<title>Node16&#45;&gt;Node18</title>
<path fill="none" stroke="midnightblue" d="M838.13,-67.48C833.13,-58.73 825.21,-44.87 818.89,-33.81"/>
<polygon fill="midnightblue" stroke="midnightblue" points="821.86,-31.96 813.86,-25.01 815.78,-35.43 821.86,-31.96"/>
</g>
<!-- Node19 -->
<g id="node19" class="node">
<title>Node19</title>
<g id="a_node19"><a xlink:title=" ">
<polygon fill="white" stroke="#bfbfbf" points="856.5,-6 856.5,-25 897.5,-25 897.5,-6 856.5,-6"/>
<text text-anchor="middle" x="877" y="-13" font-family="Helvetica,sans-Serif" font-size="10.00">string</text>
</a>
</g>
</g>
<!-- Node16&#45;&gt;Node19 -->
<g id="edge22" class="edge">
<title>Node16&#45;&gt;Node19</title>
<path fill="none" stroke="midnightblue" d="M847.87,-67.48C852.87,-58.73 860.79,-44.87 867.11,-33.81"/>
<polygon fill="midnightblue" stroke="midnightblue" points="870.22,-35.43 872.14,-25.01 864.14,-31.96 870.22,-35.43"/>
</g>
<!-- Node16&#45;&gt;Node20 -->
<g id="edge23" class="edge">
<title>Node16&#45;&gt;Node20</title>
<path fill="none" stroke="midnightblue" d="M877.53,-67.48C920.21,-56.94 992.92,-38.99 1039.68,-27.44"/>
<polygon fill="midnightblue" stroke="midnightblue" points="1040.67,-30.8 1049.53,-25.01 1038.99,-24.01 1040.67,-30.8"/>
</g>
<!-- Node21 -->
<g id="node21" class="node">
<title>Node21</title>
<g id="a_node21"><a xlink:title=" ">
<polygon fill="white" stroke="#bfbfbf" points="915.5,-6 915.5,-25 998.5,-25 998.5,-6 915.5,-6"/>
<text text-anchor="middle" x="957" y="-13" font-family="Helvetica,sans-Serif" font-size="10.00">xtensor/xio.hpp</text>
</a>
</g>
</g>
<!-- Node16&#45;&gt;Node21 -->
<g id="edge24" class="edge">
<title>Node16&#45;&gt;Node21</title>
<path fill="none" stroke="midnightblue" d="M859.33,-67.48C878.21,-57.62 909.51,-41.29 931.58,-29.77"/>
<polygon fill="midnightblue" stroke="midnightblue" points="933.45,-32.74 940.7,-25.01 930.21,-26.53 933.45,-32.74"/>
</g>
</g>
</svg>
