<?xml version="1.0" encoding="UTF-8" standalone="no"?>
<!DOCTYPE svg PUBLIC "-//W3C//DTD SVG 1.1//EN"
 "http://www.w3.org/Graphics/SVG/1.1/DTD/svg11.dtd">
<!-- Generated by graphviz version 2.43.0 (0)
 -->
<!-- Title: RDLS.cpp Pages: 1 -->
<svg width="1273pt" height="207pt"
 viewBox="0.00 0.00 1273.00 207.00" xmlns="http://www.w3.org/2000/svg" xmlns:xlink="http://www.w3.org/1999/xlink">
<g id="graph0" class="graph" transform="scale(1 1) rotate(0) translate(4 203)">
<title>RDLS.cpp</title>
<polygon fill="white" stroke="transparent" points="-4,4 -4,-203 1269,-203 1269,4 -4,4"/>
<!-- Node1 -->
<g id="node1" class="node">
<title>Node1</title>
<g id="a_node1"><a xlink:title=" ">
<polygon fill="#bfbfbf" stroke="black" points="162.5,-179.5 162.5,-198.5 224.5,-198.5 224.5,-179.5 162.5,-179.5"/>
<text text-anchor="middle" x="193.5" y="-186.5" font-family="Helvetica,sans-Serif" font-size="10.00">RDLS.cpp</text>
</a>
</g>
</g>
<!-- Node2 -->
<g id="node2" class="node">
<title>Node2</title>
<g id="a_node2"><a xlink:title=" ">
<polygon fill="white" stroke="#bfbfbf" points="0,-123.5 0,-142.5 119,-142.5 119,-123.5 0,-123.5"/>
<text text-anchor="middle" x="59.5" y="-130.5" font-family="Helvetica,sans-Serif" font-size="10.00">pybind11/pybind11.h</text>
</a>
</g>
</g>
<!-- Node1&#45;&gt;Node2 -->
<g id="edge1" class="edge">
<title>Node1&#45;&gt;Node2</title>
<path fill="none" stroke="midnightblue" d="M172.27,-179.44C150.12,-170.52 115.18,-156.44 90.06,-146.32"/>
<polygon fill="midnightblue" stroke="midnightblue" points="91.22,-143.01 80.63,-142.52 88.6,-149.5 91.22,-143.01"/>
</g>
<!-- Node3 -->
<g id="node3" class="node">
<title>Node3</title>
<g id="a_node3"><a xlink:title=" ">
<polygon fill="white" stroke="#bfbfbf" points="137.5,-123.5 137.5,-142.5 249.5,-142.5 249.5,-123.5 137.5,-123.5"/>
<text text-anchor="middle" x="193.5" y="-130.5" font-family="Helvetica,sans-Serif" font-size="10.00">pybind11/stl_bind.h</text>
</a>
</g>
</g>
<!-- Node1&#45;&gt;Node3 -->
<g id="edge2" class="edge">
<title>Node1&#45;&gt;Node3</title>
<path fill="none" stroke="midnightblue" d="M193.5,-179.08C193.5,-172.01 193.5,-161.86 193.5,-152.99"/>
<polygon fill="midnightblue" stroke="midnightblue" points="197,-152.75 193.5,-142.75 190,-152.75 197,-152.75"/>
</g>
<!-- Node4 -->
<g id="node4" class="node">
<title>Node4</title>
<g id="a_node4"><a xlink:href="_r_d_l_s_8h.html" target="_top" xlink:title=" ">
<polygon fill="white" stroke="black" points="268,-123.5 268,-142.5 319,-142.5 319,-123.5 268,-123.5"/>
<text text-anchor="middle" x="293.5" y="-130.5" font-family="Helvetica,sans-Serif" font-size="10.00">RDLS.h</text>
</a>
</g>
</g>
<!-- Node1&#45;&gt;Node4 -->
<g id="edge3" class="edge">
<title>Node1&#45;&gt;Node4</title>
<path fill="none" stroke="midnightblue" d="M209.57,-179.32C225.46,-170.74 250.01,-157.49 268.46,-147.52"/>
<polygon fill="midnightblue" stroke="midnightblue" points="270.34,-150.49 277.47,-142.65 267.01,-144.33 270.34,-150.49"/>
</g>
<!-- Node5 -->
<g id="node5" class="node">
<title>Node5</title>
<g id="a_node5"><a xlink:title=" ">
<polygon fill="white" stroke="#bfbfbf" points="58,-6 58,-25 105,-25 105,-6 58,-6"/>
<text text-anchor="middle" x="81.5" y="-13" font-family="Helvetica,sans-Serif" font-size="10.00">cmath</text>
</a>
</g>
</g>
<!-- Node4&#45;&gt;Node5 -->
<g id="edge4" class="edge">
<title>Node4&#45;&gt;Node5</title>
<path fill="none" stroke="midnightblue" d="M267.95,-125.13C264.78,-124.37 261.57,-123.64 258.5,-123 208.27,-112.6 63.82,-126 30.5,-87 14.7,-68.51 38.95,-45.39 59.12,-30.78"/>
<polygon fill="midnightblue" stroke="midnightblue" points="61.14,-33.64 67.38,-25.08 57.16,-27.88 61.14,-33.64"/>
</g>
<!-- Node6 -->
<g id="node6" class="node">
<title>Node6</title>
<g id="a_node6"><a xlink:title=" ">
<polygon fill="white" stroke="#bfbfbf" points="123.5,-6 123.5,-25 183.5,-25 183.5,-6 123.5,-6"/>
<text text-anchor="middle" x="153.5" y="-13" font-family="Helvetica,sans-Serif" font-size="10.00">iostream</text>
</a>
</g>
</g>
<!-- Node4&#45;&gt;Node6 -->
<g id="edge5" class="edge">
<title>Node4&#45;&gt;Node6</title>
<path fill="none" stroke="midnightblue" d="M267.98,-125.47C236.52,-116.93 185.6,-101.37 172.5,-87 159.58,-72.83 155.3,-50.78 153.95,-35.12"/>
<polygon fill="midnightblue" stroke="midnightblue" points="157.44,-34.85 153.41,-25.05 150.45,-35.22 157.44,-34.85"/>
</g>
<!-- Node7 -->
<g id="node7" class="node">
<title>Node7</title>
<g id="a_node7"><a xlink:title=" ">
<polygon fill="white" stroke="#bfbfbf" points="450,-67.5 450,-86.5 507,-86.5 507,-67.5 450,-67.5"/>
<text text-anchor="middle" x="478.5" y="-74.5" font-family="Helvetica,sans-Serif" font-size="10.00">valarray</text>
</a>
</g>
</g>
<!-- Node4&#45;&gt;Node7 -->
<g id="edge6" class="edge">
<title>Node4&#45;&gt;Node7</title>
<path fill="none" stroke="midnightblue" d="M319.22,-124.49C350.62,-115.33 404.01,-99.74 440.23,-89.17"/>
<polygon fill="midnightblue" stroke="midnightblue" points="441.34,-92.49 449.96,-86.33 439.38,-85.77 441.34,-92.49"/>
</g>
<!-- Node8 -->
<g id="node8" class="node">
<title>Node8</title>
<g id="a_node8"><a xlink:href="_comp_kernel_8h.html" target="_top" xlink:title=" ">
<polygon fill="white" stroke="black" points="40,-67.5 40,-86.5 125,-86.5 125,-67.5 40,-67.5"/>
<text text-anchor="middle" x="82.5" y="-74.5" font-family="Helvetica,sans-Serif" font-size="10.00">CompKernel.h</text>
</a>
</g>
</g>
<!-- Node4&#45;&gt;Node8 -->
<g id="edge7" class="edge">
<title>Node4&#45;&gt;Node8</title>
<path fill="none" stroke="midnightblue" d="M267.89,-125.41C264.73,-124.6 261.54,-123.78 258.5,-123 213.32,-111.41 161.6,-98.2 125.97,-89.1"/>
<polygon fill="midnightblue" stroke="midnightblue" points="126.47,-85.61 115.92,-86.53 124.74,-92.39 126.47,-85.61"/>
</g>
<!-- Node9 -->
<g id="node9" class="node">
<title>Node9</title>
<g id="a_node9"><a xlink:href="_model_factory_8h.html" target="_top" xlink:title=" ">
<polygon fill="white" stroke="black" points="182,-67.5 182,-86.5 271,-86.5 271,-67.5 182,-67.5"/>
<text text-anchor="middle" x="226.5" y="-74.5" font-family="Helvetica,sans-Serif" font-size="10.00">ModelFactory.h</text>
</a>
</g>
</g>
<!-- Node4&#45;&gt;Node9 -->
<g id="edge9" class="edge">
<title>Node4&#45;&gt;Node9</title>
<path fill="none" stroke="midnightblue" d="M282.74,-123.32C272.73,-115.26 257.61,-103.08 245.57,-93.37"/>
<polygon fill="midnightblue" stroke="midnightblue" points="247.44,-90.38 237.46,-86.83 243.05,-95.83 247.44,-90.38"/>
</g>
<!-- Node10 -->
<g id="node10" class="node">
<title>Node10</title>
<g id="a_node10"><a xlink:href="equivalent__polynomials_8h.html" target="_top" xlink:title=" ">
<polygon fill="white" stroke="black" points="289,-67.5 289,-86.5 432,-86.5 432,-67.5 289,-67.5"/>
<text text-anchor="middle" x="360.5" y="-74.5" font-family="Helvetica,sans-Serif" font-size="10.00">equivalent_polynomials.h</text>
</a>
</g>
</g>
<!-- Node4&#45;&gt;Node10 -->
<g id="edge11" class="edge">
<title>Node4&#45;&gt;Node10</title>
<path fill="none" stroke="midnightblue" d="M304.26,-123.32C314.27,-115.26 329.39,-103.08 341.43,-93.37"/>
<polygon fill="midnightblue" stroke="midnightblue" points="343.95,-95.83 349.54,-86.83 339.56,-90.38 343.95,-95.83"/>
</g>
<!-- Node16 -->
<g id="node16" class="node">
<title>Node16</title>
<g id="a_node16"><a xlink:href="_arguments_dict_8h.html" target="_top" xlink:title=" ">
<polygon fill="white" stroke="black" points="877.5,-67.5 877.5,-86.5 975.5,-86.5 975.5,-67.5 877.5,-67.5"/>
<text text-anchor="middle" x="926.5" y="-74.5" font-family="Helvetica,sans-Serif" font-size="10.00">ArgumentsDict.h</text>
</a>
</g>
</g>
<!-- Node4&#45;&gt;Node16 -->
<g id="edge19" class="edge">
<title>Node4&#45;&gt;Node16</title>
<path fill="none" stroke="midnightblue" d="M319.1,-129.82C412.09,-121.88 733.54,-94.46 867.34,-83.05"/>
<polygon fill="midnightblue" stroke="midnightblue" points="867.74,-86.53 877.41,-82.19 867.15,-79.55 867.74,-86.53"/>
</g>
<!-- Node20 -->
<g id="node20" class="node">
<title>Node20</title>
<g id="a_node20"><a xlink:title=" ">
<polygon fill="white" stroke="#bfbfbf" points="1114,-6 1114,-25 1265,-25 1265,-6 1114,-6"/>
<text text-anchor="middle" x="1189.5" y="-13" font-family="Helvetica,sans-Serif" font-size="10.00">xtensor&#45;python/pyarray.hpp</text>
</a>
</g>
</g>
<!-- Node4&#45;&gt;Node20 -->
<g id="edge25" class="edge">
<title>Node4&#45;&gt;Node20</title>
<path fill="none" stroke="midnightblue" d="M319.17,-131.24C428.2,-127.88 853.37,-113.33 984.5,-87 1049.33,-73.98 1121.74,-45.62 1160.78,-29.11"/>
<polygon fill="midnightblue" stroke="midnightblue" points="1162.38,-32.24 1170.19,-25.09 1159.62,-25.8 1162.38,-32.24"/>
</g>
<!-- Node8&#45;&gt;Node5 -->
<g id="edge8" class="edge">
<title>Node8&#45;&gt;Node5</title>
<path fill="none" stroke="midnightblue" d="M82.36,-67.48C82.22,-59.08 82,-45.98 81.81,-35.16"/>
<polygon fill="midnightblue" stroke="midnightblue" points="85.31,-34.95 81.64,-25.01 78.31,-35.07 85.31,-34.95"/>
</g>
<!-- Node9&#45;&gt;Node6 -->
<g id="edge10" class="edge">
<title>Node9&#45;&gt;Node6</title>
<path fill="none" stroke="midnightblue" d="M216.04,-67.48C204.55,-58.11 185.87,-42.88 171.91,-31.51"/>
<polygon fill="midnightblue" stroke="midnightblue" points="173.9,-28.61 163.94,-25.01 169.48,-34.04 173.9,-28.61"/>
</g>
<!-- Node10&#45;&gt;Node5 -->
<g id="edge12" class="edge">
<title>Node10&#45;&gt;Node5</title>
<path fill="none" stroke="midnightblue" d="M289.47,-67.48C239.77,-60.43 172.2,-48.69 114.5,-31 112.57,-30.41 110.6,-29.74 108.64,-29.01"/>
<polygon fill="midnightblue" stroke="midnightblue" points="109.6,-25.63 99.02,-25.1 106.97,-32.11 109.6,-25.63"/>
</g>
<!-- Node10&#45;&gt;Node6 -->
<g id="edge14" class="edge">
<title>Node10&#45;&gt;Node6</title>
<path fill="none" stroke="midnightblue" d="M324.82,-67.48C290.62,-59.07 237.66,-45.41 192.5,-31 190.09,-30.23 187.61,-29.4 185.13,-28.54"/>
<polygon fill="midnightblue" stroke="midnightblue" points="186.24,-25.22 175.65,-25.15 183.88,-31.81 186.24,-25.22"/>
</g>
<!-- Node11 -->
<g id="node11" class="node">
<title>Node11</title>
<g id="a_node11"><a xlink:title=" ">
<polygon fill="white" stroke="#bfbfbf" points="731.5,-6 731.5,-25 783.5,-25 783.5,-6 731.5,-6"/>
<text text-anchor="middle" x="757.5" y="-13" font-family="Helvetica,sans-Serif" font-size="10.00">cassert</text>
</a>
</g>
</g>
<!-- Node10&#45;&gt;Node11 -->
<g id="edge13" class="edge">
<title>Node10&#45;&gt;Node11</title>
<path fill="none" stroke="midnightblue" d="M432.36,-67.57C533.91,-55.58 708.67,-34.65 722.5,-31 724.95,-30.35 727.45,-29.57 729.94,-28.71"/>
<polygon fill="midnightblue" stroke="midnightblue" points="731.21,-31.98 739.29,-25.13 728.7,-25.44 731.21,-31.98"/>
</g>
<!-- Node12 -->
<g id="node12" class="node">
<title>Node12</title>
<g id="a_node12"><a xlink:title=" ">
<polygon fill="white" stroke="#bfbfbf" points="201.5,-6 201.5,-25 257.5,-25 257.5,-6 201.5,-6"/>
<text text-anchor="middle" x="229.5" y="-13" font-family="Helvetica,sans-Serif" font-size="10.00">iomanip</text>
</a>
</g>
</g>
<!-- Node10&#45;&gt;Node12 -->
<g id="edge15" class="edge">
<title>Node10&#45;&gt;Node12</title>
<path fill="none" stroke="midnightblue" d="M341.73,-67.48C319.65,-57.45 282.78,-40.7 257.36,-29.15"/>
<polygon fill="midnightblue" stroke="midnightblue" points="258.79,-25.96 248.23,-25.01 255.89,-32.33 258.79,-25.96"/>
</g>
<!-- Node13 -->
<g id="node13" class="node">
<title>Node13</title>
<g id="a_node13"><a xlink:href="equivalent__polynomials__coefficients_8h.html" target="_top" xlink:title=" ">
<polygon fill="white" stroke="black" points="275.5,-0.5 275.5,-30.5 409.5,-30.5 409.5,-0.5 275.5,-0.5"/>
<text text-anchor="start" x="283.5" y="-18.5" font-family="Helvetica,sans-Serif" font-size="10.00">equivalent_polynomials</text>
<text text-anchor="middle" x="342.5" y="-7.5" font-family="Helvetica,sans-Serif" font-size="10.00">_coefficients.h</text>
</a>
</g>
</g>
<!-- Node10&#45;&gt;Node13 -->
<g id="edge16" class="edge">
<title>Node10&#45;&gt;Node13</title>
<path fill="none" stroke="midnightblue" d="M357.92,-67.48C355.78,-60.4 352.63,-49.97 349.73,-40.39"/>
<polygon fill="midnightblue" stroke="midnightblue" points="352.99,-39.08 346.74,-30.52 346.29,-41.11 352.99,-39.08"/>
</g>
<!-- Node14 -->
<g id="node14" class="node">
<title>Node14</title>
<g id="a_node14"><a xlink:href="equivalent__polynomials__coefficients__quad_8h.html" target="_top" xlink:title=" ">
<polygon fill="white" stroke="black" points="427.5,-0.5 427.5,-30.5 561.5,-30.5 561.5,-0.5 427.5,-0.5"/>
<text text-anchor="start" x="435.5" y="-18.5" font-family="Helvetica,sans-Serif" font-size="10.00">equivalent_polynomials</text>
<text text-anchor="middle" x="494.5" y="-7.5" font-family="Helvetica,sans-Serif" font-size="10.00">_coefficients_quad.h</text>
</a>
</g>
</g>
<!-- Node10&#45;&gt;Node14 -->
<g id="edge17" class="edge">
<title>Node10&#45;&gt;Node14</title>
<path fill="none" stroke="midnightblue" d="M379.7,-67.48C398.87,-58.96 428.92,-45.62 453.47,-34.72"/>
<polygon fill="midnightblue" stroke="midnightblue" points="455.2,-37.78 462.92,-30.52 452.36,-31.38 455.2,-37.78"/>
</g>
<!-- Node15 -->
<g id="node15" class="node">
<title>Node15</title>
<g id="a_node15"><a xlink:href="equivalent__polynomials__utils_8h.html" target="_top" xlink:title=" ">
<polygon fill="white" stroke="black" points="579.5,-0.5 579.5,-30.5 713.5,-30.5 713.5,-0.5 579.5,-0.5"/>
<text text-anchor="start" x="587.5" y="-18.5" font-family="Helvetica,sans-Serif" font-size="10.00">equivalent_polynomials</text>
<text text-anchor="middle" x="646.5" y="-7.5" font-family="Helvetica,sans-Serif" font-size="10.00">_utils.h</text>
</a>
</g>
</g>
<!-- Node10&#45;&gt;Node15 -->
<g id="edge18" class="edge">
<title>Node10&#45;&gt;Node15</title>
<path fill="none" stroke="midnightblue" d="M401.48,-67.48C445.17,-58.38 515.38,-43.78 569.47,-32.53"/>
<polygon fill="midnightblue" stroke="midnightblue" points="570.29,-35.93 579.37,-30.47 568.87,-29.08 570.29,-35.93"/>
</g>
<!-- Node17 -->
<g id="node17" class="node">
<title>Node17</title>
<g id="a_node17"><a xlink:title=" ">
<polygon fill="white" stroke="#bfbfbf" points="801.5,-6 801.5,-25 839.5,-25 839.5,-6 801.5,-6"/>
<text text-anchor="middle" x="820.5" y="-13" font-family="Helvetica,sans-Serif" font-size="10.00">map</text>
</a>
</g>
</g>
<!-- Node16&#45;&gt;Node17 -->
<g id="edge20" class="edge">
<title>Node16&#45;&gt;Node17</title>
<path fill="none" stroke="midnightblue" d="M911.31,-67.48C893.84,-57.67 864.92,-41.43 844.42,-29.92"/>
<polygon fill="midnightblue" stroke="midnightblue" points="846.09,-26.85 835.66,-25.01 842.67,-32.96 846.09,-26.85"/>
</g>
<!-- Node18 -->
<g id="node18" class="node">
<title>Node18</title>
<g id="a_node18"><a xlink:title=" ">
<polygon fill="white" stroke="#bfbfbf" points="858,-6 858,-25 923,-25 923,-6 858,-6"/>
<text text-anchor="middle" x="890.5" y="-13" font-family="Helvetica,sans-Serif" font-size="10.00">stdexcept</text>
</a>
</g>
</g>
<!-- Node16&#45;&gt;Node18 -->
<g id="edge21" class="edge">
<title>Node16&#45;&gt;Node18</title>
<path fill="none" stroke="midnightblue" d="M921.34,-67.48C916.05,-58.73 907.66,-44.87 900.97,-33.81"/>
<polygon fill="midnightblue" stroke="midnightblue" points="903.82,-31.75 895.65,-25.01 897.83,-35.38 903.82,-31.75"/>
</g>
<!-- Node19 -->
<g id="node19" class="node">
<title>Node19</title>
<g id="a_node19"><a xlink:title=" ">
<polygon fill="white" stroke="#bfbfbf" points="941.5,-6 941.5,-25 985.5,-25 985.5,-6 941.5,-6"/>
<text text-anchor="middle" x="963.5" y="-13" font-family="Helvetica,sans-Serif" font-size="10.00">string</text>
</a>
</g>
</g>
<!-- Node16&#45;&gt;Node19 -->
<g id="edge22" class="edge">
<title>Node16&#45;&gt;Node19</title>
<path fill="none" stroke="midnightblue" d="M931.8,-67.48C937.24,-58.73 945.86,-44.87 952.74,-33.81"/>
<polygon fill="midnightblue" stroke="midnightblue" points="955.9,-35.35 958.21,-25.01 949.96,-31.65 955.9,-35.35"/>
</g>
<!-- Node16&#45;&gt;Node20 -->
<g id="edge23" class="edge">
<title>Node16&#45;&gt;Node20</title>
<path fill="none" stroke="midnightblue" d="M964.18,-67.48C1011.05,-56.87 1091.11,-38.76 1142.1,-27.22"/>
<polygon fill="midnightblue" stroke="midnightblue" points="1142.91,-30.63 1151.89,-25.01 1141.36,-23.8 1142.91,-30.63"/>
</g>
<!-- Node21 -->
<g id="node21" class="node">
<title>Node21</title>
<g id="a_node21"><a xlink:title=" ">
<polygon fill="white" stroke="#bfbfbf" points="1003.5,-6 1003.5,-25 1095.5,-25 1095.5,-6 1003.5,-6"/>
<text text-anchor="middle" x="1049.5" y="-13" font-family="Helvetica,sans-Serif" font-size="10.00">xtensor/xio.hpp</text>
</a>
</g>
</g>
<!-- Node16&#45;&gt;Node21 -->
<g id="edge24" class="edge">
<title>Node16&#45;&gt;Node21</title>
<path fill="none" stroke="midnightblue" d="M944.12,-67.48C964.67,-57.53 998.86,-40.99 1022.71,-29.46"/>
<polygon fill="midnightblue" stroke="midnightblue" points="1024.43,-32.51 1031.91,-25.01 1021.38,-26.21 1024.43,-32.51"/>
</g>
</g>
</svg>
