<?xml version="1.0" encoding="UTF-8" standalone="no"?>
<!DOCTYPE svg PUBLIC "-//W3C//DTD SVG 1.1//EN"
 "http://www.w3.org/Graphics/SVG/1.1/DTD/svg11.dtd">
<!-- Generated by graphviz version 2.40.1 (20161225.0304)
 -->
<!-- Title: Richards.h Pages: 1 -->
<svg width="603pt" height="140pt"
 viewBox="0.00 0.00 602.50 140.00" xmlns="http://www.w3.org/2000/svg" xmlns:xlink="http://www.w3.org/1999/xlink">
<g id="graph0" class="graph" transform="scale(1 1) rotate(0) translate(4 136)">
<title>Richards.h</title>
<polygon fill="#ffffff" stroke="transparent" points="-4,4 -4,-136 598.5,-136 598.5,4 -4,4"/>
<!-- Node0 -->
<g id="node1" class="node">
<title>Node0</title>
<polygon fill="#bfbfbf" stroke="#000000" points="127,-112.5 127,-131.5 191,-131.5 191,-112.5 127,-112.5"/>
<text text-anchor="middle" x="159" y="-119.5" font-family="Helvetica,sans-Serif" font-size="10.00" fill="#000000">Richards.h</text>
</g>
<!-- Node1 -->
<g id="node2" class="node">
<title>Node1</title>
<polygon fill="#ffffff" stroke="#bfbfbf" points="0,-.5 0,-19.5 44,-19.5 44,-.5 0,-.5"/>
<text text-anchor="middle" x="22" y="-7.5" font-family="Helvetica,sans-Serif" font-size="10.00" fill="#000000">cmath</text>
</g>
<!-- Node0&#45;&gt;Node1 -->
<g id="edge1" class="edge">
<title>Node0&#45;&gt;Node1</title>
<path fill="none" stroke="#191970" d="M126.9513,-116.8553C86.7525,-109.6726 21.3362,-95.3169 7,-76 -3.2417,-62.2001 3.1141,-42.6272 10.4461,-28.3812"/>
<polygon fill="#191970" stroke="#191970" points="13.5914,-29.9302 15.486,-19.5061 7.5044,-26.4735 13.5914,-29.9302"/>
</g>
<!-- Node2 -->
<g id="node3" class="node">
<title>Node2</title>
<polygon fill="#ffffff" stroke="#bfbfbf" points="97,-.5 97,-19.5 151,-19.5 151,-.5 97,-.5"/>
<text text-anchor="middle" x="124" y="-7.5" font-family="Helvetica,sans-Serif" font-size="10.00" fill="#000000">iostream</text>
</g>
<!-- Node0&#45;&gt;Node2 -->
<g id="edge2" class="edge">
<title>Node0&#45;&gt;Node2</title>
<path fill="none" stroke="#191970" d="M155.4108,-112.1813C152.0607,-102.9031 146.9927,-88.5717 143,-76 138.0937,-60.5516 133.0406,-42.8998 129.38,-29.7405"/>
<polygon fill="#191970" stroke="#191970" points="132.6967,-28.6016 126.6664,-19.8903 125.9481,-30.4608 132.6967,-28.6016"/>
</g>
<!-- Node3 -->
<g id="node4" class="node">
<title>Node3</title>
<g id="a_node4"><a xlink:href="_comp_kernel_8h.html" target="_top" xlink:title="CompKernel.h">
<polygon fill="#ffffff" stroke="#000000" points="16.5,-56.5 16.5,-75.5 95.5,-75.5 95.5,-56.5 16.5,-56.5"/>
<text text-anchor="middle" x="56" y="-63.5" font-family="Helvetica,sans-Serif" font-size="10.00" fill="#000000">CompKernel.h</text>
</a>
</g>
</g>
<!-- Node0&#45;&gt;Node3 -->
<g id="edge3" class="edge">
<title>Node0&#45;&gt;Node3</title>
<path fill="none" stroke="#191970" d="M141.0588,-112.2455C124.96,-103.4928 101.1121,-90.527 82.7609,-80.5496"/>
<polygon fill="#191970" stroke="#191970" points="84.1929,-77.3444 73.7356,-75.6427 80.8493,-83.4942 84.1929,-77.3444"/>
</g>
<!-- Node4 -->
<g id="node5" class="node">
<title>Node4</title>
<g id="a_node5"><a xlink:href="_model_factory_8h.html" target="_top" xlink:title="ModelFactory.h">
<polygon fill="#ffffff" stroke="#000000" points="152,-56.5 152,-75.5 236,-75.5 236,-56.5 152,-56.5"/>
<text text-anchor="middle" x="194" y="-63.5" font-family="Helvetica,sans-Serif" font-size="10.00" fill="#000000">ModelFactory.h</text>
</a>
</g>
</g>
<!-- Node0&#45;&gt;Node4 -->
<g id="edge5" class="edge">
<title>Node0&#45;&gt;Node4</title>
<path fill="none" stroke="#191970" d="M165.0965,-112.2455C169.9145,-104.5367 176.7751,-93.5598 182.6032,-84.2348"/>
<polygon fill="#191970" stroke="#191970" points="185.6413,-85.9777 187.9733,-75.6427 179.7053,-82.2677 185.6413,-85.9777"/>
</g>
<!-- Node5 -->
<g id="node6" class="node">
<title>Node5</title>
<g id="a_node6"><a xlink:href="_arguments_dict_8h.html" target="_top" xlink:title="../mprans/ArgumentsDict.h">
<polygon fill="#ffffff" stroke="#000000" points="254,-56.5 254,-75.5 388,-75.5 388,-56.5 254,-56.5"/>
<text text-anchor="middle" x="321" y="-63.5" font-family="Helvetica,sans-Serif" font-size="10.00" fill="#000000">../mprans/ArgumentsDict.h</text>
</a>
</g>
</g>
<!-- Node0&#45;&gt;Node5 -->
<g id="edge7" class="edge">
<title>Node0&#45;&gt;Node5</title>
<path fill="none" stroke="#191970" d="M186.8488,-112.3733C213.6703,-103.1016 254.4127,-89.0178 283.9598,-78.804"/>
<polygon fill="#191970" stroke="#191970" points="285.2069,-82.0762 293.5146,-75.5011 282.9198,-75.4603 285.2069,-82.0762"/>
</g>
<!-- Node9 -->
<g id="node10" class="node">
<title>Node9</title>
<polygon fill="#ffffff" stroke="#bfbfbf" points="459.5,-.5 459.5,-19.5 594.5,-19.5 594.5,-.5 459.5,-.5"/>
<text text-anchor="middle" x="527" y="-7.5" font-family="Helvetica,sans-Serif" font-size="10.00" fill="#000000">xtensor&#45;python/pyarray.hpp</text>
</g>
<!-- Node0&#45;&gt;Node9 -->
<g id="edge13" class="edge">
<title>Node0&#45;&gt;Node9</title>
<path fill="none" stroke="#191970" d="M191.3026,-118.6507C237.7744,-113.1892 325.7427,-100.4355 397,-76 435.8099,-62.6913 477.5916,-39.7758 503.0222,-24.7548"/>
<polygon fill="#191970" stroke="#191970" points="504.8335,-27.7497 511.6158,-19.6103 501.238,-21.7437 504.8335,-27.7497"/>
</g>
<!-- Node3&#45;&gt;Node1 -->
<g id="edge4" class="edge">
<title>Node3&#45;&gt;Node1</title>
<path fill="none" stroke="#191970" d="M50.0777,-56.2455C45.3973,-48.5367 38.7327,-37.5598 33.0711,-28.2348"/>
<polygon fill="#191970" stroke="#191970" points="36.0361,-26.3741 27.8545,-19.6427 30.0525,-30.007 36.0361,-26.3741"/>
</g>
<!-- Node4&#45;&gt;Node2 -->
<g id="edge6" class="edge">
<title>Node4&#45;&gt;Node2</title>
<path fill="none" stroke="#191970" d="M181.8069,-56.2455C171.3679,-47.8943 156.1345,-35.7076 143.926,-25.9408"/>
<polygon fill="#191970" stroke="#191970" points="146.0485,-23.1566 136.0533,-19.6427 141.6756,-28.6227 146.0485,-23.1566"/>
</g>
<!-- Node6 -->
<g id="node7" class="node">
<title>Node6</title>
<polygon fill="#ffffff" stroke="#bfbfbf" points="169.5,-.5 169.5,-19.5 204.5,-19.5 204.5,-.5 169.5,-.5"/>
<text text-anchor="middle" x="187" y="-7.5" font-family="Helvetica,sans-Serif" font-size="10.00" fill="#000000">map</text>
</g>
<!-- Node5&#45;&gt;Node6 -->
<g id="edge8" class="edge">
<title>Node5&#45;&gt;Node6</title>
<path fill="none" stroke="#191970" d="M297.9646,-56.3733C274.6827,-46.6435 238.7202,-31.6144 214.086,-21.3195"/>
<polygon fill="#191970" stroke="#191970" points="215.1881,-17.9868 204.6118,-17.3601 212.4889,-24.4455 215.1881,-17.9868"/>
</g>
<!-- Node7 -->
<g id="node8" class="node">
<title>Node7</title>
<polygon fill="#ffffff" stroke="#bfbfbf" points="222.5,-.5 222.5,-19.5 281.5,-19.5 281.5,-.5 222.5,-.5"/>
<text text-anchor="middle" x="252" y="-7.5" font-family="Helvetica,sans-Serif" font-size="10.00" fill="#000000">stdexcept</text>
</g>
<!-- Node5&#45;&gt;Node7 -->
<g id="edge9" class="edge">
<title>Node5&#45;&gt;Node7</title>
<path fill="none" stroke="#191970" d="M308.9811,-56.2455C298.7902,-47.9746 283.9638,-35.9416 271.9893,-26.2232"/>
<polygon fill="#191970" stroke="#191970" points="273.8514,-23.2268 263.8812,-19.6427 269.4402,-28.662 273.8514,-23.2268"/>
</g>
<!-- Node8 -->
<g id="node9" class="node">
<title>Node8</title>
<polygon fill="#ffffff" stroke="#bfbfbf" points="299.5,-.5 299.5,-19.5 340.5,-19.5 340.5,-.5 299.5,-.5"/>
<text text-anchor="middle" x="320" y="-7.5" font-family="Helvetica,sans-Serif" font-size="10.00" fill="#000000">string</text>
</g>
<!-- Node5&#45;&gt;Node8 -->
<g id="edge10" class="edge">
<title>Node5&#45;&gt;Node8</title>
<path fill="none" stroke="#191970" d="M320.8258,-56.2455C320.6953,-48.9382 320.5124,-38.6944 320.3519,-29.7046"/>
<polygon fill="#191970" stroke="#191970" points="323.8503,-29.5786 320.1722,-19.6427 316.8514,-29.7036 323.8503,-29.5786"/>
</g>
<!-- Node5&#45;&gt;Node9 -->
<g id="edge11" class="edge">
<title>Node5&#45;&gt;Node9</title>
<path fill="none" stroke="#191970" d="M356.4127,-56.3733C391.2605,-46.9001 444.5882,-32.4032 482.3293,-22.1435"/>
<polygon fill="#191970" stroke="#191970" points="483.3178,-25.5019 492.0494,-19.5011 481.4815,-18.747 483.3178,-25.5019"/>
</g>
<!-- Node10 -->
<g id="node11" class="node">
<title>Node10</title>
<polygon fill="#ffffff" stroke="#bfbfbf" points="358.5,-.5 358.5,-19.5 441.5,-19.5 441.5,-.5 358.5,-.5"/>
<text text-anchor="middle" x="400" y="-7.5" font-family="Helvetica,sans-Serif" font-size="10.00" fill="#000000">xtensor/xio.hpp</text>
</g>
<!-- Node5&#45;&gt;Node10 -->
<g id="edge12" class="edge">
<title>Node5&#45;&gt;Node10</title>
<path fill="none" stroke="#191970" d="M334.7607,-56.2455C346.6552,-47.814 364.065,-35.4729 377.9085,-25.6598"/>
<polygon fill="#191970" stroke="#191970" points="380.2628,-28.2811 386.3969,-19.6427 376.2146,-22.5704 380.2628,-28.2811"/>
</g>
</g>
</svg>
