<?xml version="1.0" encoding="UTF-8" standalone="no"?>
<!DOCTYPE svg PUBLIC "-//W3C//DTD SVG 1.1//EN"
 "http://www.w3.org/Graphics/SVG/1.1/DTD/svg11.dtd">
<!-- Generated by graphviz version 2.50.0 (20211204.2007)
 -->
<!-- Title: Richards.h Pages: 1 -->
<svg width="602pt" height="140pt"
 viewBox="0.00 0.00 602.00 140.00" xmlns="http://www.w3.org/2000/svg" xmlns:xlink="http://www.w3.org/1999/xlink">
<g id="graph0" class="graph" transform="scale(1 1) rotate(0) translate(4 136)">
<title>Richards.h</title>
<polygon fill="white" stroke="transparent" points="-4,4 -4,-136 598,-136 598,4 -4,4"/>
<!-- Node1 -->
<g id="node1" class="node">
<title>Node1</title>
<g id="a_node1"><a xlink:title=" ">
<polygon fill="#bfbfbf" stroke="black" points="127,-112.5 127,-131.5 191,-131.5 191,-112.5 127,-112.5"/>
<text text-anchor="middle" x="159" y="-119.5" font-family="Helvetica,sans-Serif" font-size="10.00">Richards.h</text>
</a>
</g>
</g>
<!-- Node2 -->
<g id="node2" class="node">
<title>Node2</title>
<g id="a_node2"><a xlink:title=" ">
<polygon fill="white" stroke="#bfbfbf" points="0,-0.5 0,-19.5 44,-19.5 44,-0.5 0,-0.5"/>
<text text-anchor="middle" x="22" y="-7.5" font-family="Helvetica,sans-Serif" font-size="10.00">cmath</text>
</a>
</g>
</g>
<!-- Node1&#45;&gt;Node2 -->
<g id="edge1" class="edge">
<title>Node1&#45;&gt;Node2</title>
<path fill="none" stroke="midnightblue" d="M126.95,-121.83C91.14,-120.8 34.58,-112.93 7,-76 -3.25,-62.28 3.35,-42.72 10.75,-28.65"/>
<polygon fill="midnightblue" stroke="midnightblue" points="13.82,-30.33 15.8,-19.92 7.76,-26.82 13.82,-30.33"/>
</g>
<!-- Node3 -->
<g id="node3" class="node">
<title>Node3</title>
<g id="a_node3"><a xlink:title=" ">
<polygon fill="white" stroke="#bfbfbf" points="97,-0.5 97,-19.5 151,-19.5 151,-0.5 97,-0.5"/>
<text text-anchor="middle" x="124" y="-7.5" font-family="Helvetica,sans-Serif" font-size="10.00">iostream</text>
</a>
</g>
</g>
<!-- Node1&#45;&gt;Node3 -->
<g id="edge2" class="edge">
<title>Node1&#45;&gt;Node3</title>
<path fill="none" stroke="midnightblue" d="M155.79,-112.42C152.44,-103.41 147.14,-88.78 143,-76 137.97,-60.44 132.79,-42.61 129.12,-29.56"/>
<polygon fill="midnightblue" stroke="midnightblue" points="132.48,-28.57 126.42,-19.88 125.74,-30.45 132.48,-28.57"/>
</g>
<!-- Node4 -->
<g id="node4" class="node">
<title>Node4</title>
<g id="a_node4"><a xlink:href="_comp_kernel_8h.html" target="_top" xlink:title=" ">
<polygon fill="white" stroke="black" points="16.5,-56.5 16.5,-75.5 95.5,-75.5 95.5,-56.5 16.5,-56.5"/>
<text text-anchor="middle" x="56" y="-63.5" font-family="Helvetica,sans-Serif" font-size="10.00">CompKernel.h</text>
</a>
</g>
</g>
<!-- Node1&#45;&gt;Node4 -->
<g id="edge3" class="edge">
<title>Node1&#45;&gt;Node4</title>
<path fill="none" stroke="midnightblue" d="M142.45,-112.32C126.01,-103.7 100.57,-90.36 81.53,-80.39"/>
<polygon fill="midnightblue" stroke="midnightblue" points="82.99,-77.2 72.51,-75.65 79.74,-83.4 82.99,-77.2"/>
</g>
<!-- Node5 -->
<g id="node5" class="node">
<title>Node5</title>
<g id="a_node5"><a xlink:href="_model_factory_8h.html" target="_top" xlink:title=" ">
<polygon fill="white" stroke="black" points="152.5,-56.5 152.5,-75.5 235.5,-75.5 235.5,-56.5 152.5,-56.5"/>
<text text-anchor="middle" x="194" y="-63.5" font-family="Helvetica,sans-Serif" font-size="10.00">ModelFactory.h</text>
</a>
</g>
</g>
<!-- Node1&#45;&gt;Node5 -->
<g id="edge5" class="edge">
<title>Node1&#45;&gt;Node5</title>
<path fill="none" stroke="midnightblue" d="M164.78,-112.08C169.67,-104.53 176.83,-93.49 182.83,-84.23"/>
<polygon fill="midnightblue" stroke="midnightblue" points="185.83,-86.05 188.33,-75.75 179.95,-82.24 185.83,-86.05"/>
</g>
<!-- Node6 -->
<g id="node6" class="node">
<title>Node6</title>
<g id="a_node6"><a xlink:href="_arguments_dict_8h.html" target="_top" xlink:title=" ">
<polygon fill="white" stroke="black" points="254,-56.5 254,-75.5 388,-75.5 388,-56.5 254,-56.5"/>
<text text-anchor="middle" x="321" y="-63.5" font-family="Helvetica,sans-Serif" font-size="10.00">../mprans/ArgumentsDict.h</text>
</a>
</g>
</g>
<!-- Node1&#45;&gt;Node6 -->
<g id="edge7" class="edge">
<title>Node1&#45;&gt;Node6</title>
<path fill="none" stroke="midnightblue" d="M184.67,-112.44C211.92,-103.36 255.18,-88.94 285.65,-78.78"/>
<polygon fill="midnightblue" stroke="midnightblue" points="287.07,-82 295.45,-75.52 284.86,-75.36 287.07,-82"/>
</g>
<!-- Node10 -->
<g id="node10" class="node">
<title>Node10</title>
<g id="a_node10"><a xlink:title=" ">
<polygon fill="white" stroke="#bfbfbf" points="460,-0.5 460,-19.5 594,-19.5 594,-0.5 460,-0.5"/>
<text text-anchor="middle" x="527" y="-7.5" font-family="Helvetica,sans-Serif" font-size="10.00">xtensor&#45;python/pyarray.hpp</text>
</a>
</g>
</g>
<!-- Node1&#45;&gt;Node10 -->
<g id="edge13" class="edge">
<title>Node1&#45;&gt;Node10</title>
<path fill="none" stroke="midnightblue" d="M191.28,-117.76C237.73,-112.47 325.67,-100.05 397,-76 436.44,-62.7 479.02,-39.56 504.32,-24.78"/>
<polygon fill="midnightblue" stroke="midnightblue" points="506.31,-27.67 513.13,-19.56 502.74,-21.64 506.31,-27.67"/>
</g>
<!-- Node4&#45;&gt;Node2 -->
<g id="edge4" class="edge">
<title>Node4&#45;&gt;Node2</title>
<path fill="none" stroke="midnightblue" d="M50.39,-56.08C45.63,-48.53 38.68,-37.49 32.85,-28.23"/>
<polygon fill="midnightblue" stroke="midnightblue" points="35.8,-26.35 27.51,-19.75 29.88,-30.08 35.8,-26.35"/>
</g>
<!-- Node5&#45;&gt;Node3 -->
<g id="edge6" class="edge">
<title>Node5&#45;&gt;Node3</title>
<path fill="none" stroke="midnightblue" d="M182.75,-56.32C172.2,-48.18 156.2,-35.84 143.56,-26.09"/>
<polygon fill="midnightblue" stroke="midnightblue" points="145.51,-23.17 135.45,-19.83 141.23,-28.71 145.51,-23.17"/>
</g>
<!-- Node7 -->
<g id="node7" class="node">
<title>Node7</title>
<g id="a_node7"><a xlink:title=" ">
<polygon fill="white" stroke="#bfbfbf" points="169.5,-0.5 169.5,-19.5 204.5,-19.5 204.5,-0.5 169.5,-0.5"/>
<text text-anchor="middle" x="187" y="-7.5" font-family="Helvetica,sans-Serif" font-size="10.00">map</text>
</a>
</g>
</g>
<!-- Node6&#45;&gt;Node7 -->
<g id="edge8" class="edge">
<title>Node6&#45;&gt;Node7</title>
<path fill="none" stroke="midnightblue" d="M299.77,-56.44C276.57,-47.1 239.36,-32.1 214.09,-21.92"/>
<polygon fill="midnightblue" stroke="midnightblue" points="215.29,-18.63 204.71,-18.14 212.68,-25.12 215.29,-18.63"/>
</g>
<!-- Node8 -->
<g id="node8" class="node">
<title>Node8</title>
<g id="a_node8"><a xlink:title=" ">
<polygon fill="white" stroke="#bfbfbf" points="222.5,-0.5 222.5,-19.5 281.5,-19.5 281.5,-0.5 222.5,-0.5"/>
<text text-anchor="middle" x="252" y="-7.5" font-family="Helvetica,sans-Serif" font-size="10.00">stdexcept</text>
</a>
</g>
</g>
<!-- Node6&#45;&gt;Node8 -->
<g id="edge9" class="edge">
<title>Node6&#45;&gt;Node8</title>
<path fill="none" stroke="midnightblue" d="M309.91,-56.32C299.51,-48.18 283.74,-35.84 271.28,-26.09"/>
<polygon fill="midnightblue" stroke="midnightblue" points="273.32,-23.24 263.29,-19.83 269.01,-28.75 273.32,-23.24"/>
</g>
<!-- Node9 -->
<g id="node9" class="node">
<title>Node9</title>
<g id="a_node9"><a xlink:title=" ">
<polygon fill="white" stroke="#bfbfbf" points="299.5,-0.5 299.5,-19.5 340.5,-19.5 340.5,-0.5 299.5,-0.5"/>
<text text-anchor="middle" x="320" y="-7.5" font-family="Helvetica,sans-Serif" font-size="10.00">string</text>
</a>
</g>
</g>
<!-- Node6&#45;&gt;Node9 -->
<g id="edge10" class="edge">
<title>Node6&#45;&gt;Node9</title>
<path fill="none" stroke="midnightblue" d="M320.83,-56.08C320.7,-49.01 320.52,-38.86 320.35,-29.99"/>
<polygon fill="midnightblue" stroke="midnightblue" points="323.85,-29.68 320.16,-19.75 316.85,-29.81 323.85,-29.68"/>
</g>
<!-- Node6&#45;&gt;Node10 -->
<g id="edge11" class="edge">
<title>Node6&#45;&gt;Node10</title>
<path fill="none" stroke="midnightblue" d="M353.64,-56.44C389.05,-47.16 445.71,-32.31 484.55,-22.13"/>
<polygon fill="midnightblue" stroke="midnightblue" points="485.73,-25.44 494.51,-19.52 483.95,-18.67 485.73,-25.44"/>
</g>
<!-- Node11 -->
<g id="node11" class="node">
<title>Node11</title>
<g id="a_node11"><a xlink:title=" ">
<polygon fill="white" stroke="#bfbfbf" points="358.5,-0.5 358.5,-19.5 441.5,-19.5 441.5,-0.5 358.5,-0.5"/>
<text text-anchor="middle" x="400" y="-7.5" font-family="Helvetica,sans-Serif" font-size="10.00">xtensor/xio.hpp</text>
</a>
</g>
</g>
<!-- Node6&#45;&gt;Node11 -->
<g id="edge12" class="edge">
<title>Node6&#45;&gt;Node11</title>
<path fill="none" stroke="midnightblue" d="M333.69,-56.32C345.9,-47.98 364.58,-35.21 379,-25.35"/>
<polygon fill="midnightblue" stroke="midnightblue" points="381.06,-28.19 387.34,-19.65 377.11,-22.41 381.06,-28.19"/>
</g>
</g>
</svg>
