<?xml version="1.0" encoding="UTF-8" standalone="no"?>
<!DOCTYPE svg PUBLIC "-//W3C//DTD SVG 1.1//EN"
 "http://www.w3.org/Graphics/SVG/1.1/DTD/svg11.dtd">
<!-- Generated by graphviz version 2.43.0 (0)
 -->
<!-- Title: Richards.h Pages: 1 -->
<svg width="649pt" height="140pt"
 viewBox="0.00 0.00 649.00 140.00" xmlns="http://www.w3.org/2000/svg" xmlns:xlink="http://www.w3.org/1999/xlink">
<g id="graph0" class="graph" transform="scale(1 1) rotate(0) translate(4 136)">
<title>Richards.h</title>
<polygon fill="white" stroke="transparent" points="-4,4 -4,-136 645,-136 645,4 -4,4"/>
<!-- Node1 -->
<g id="node1" class="node">
<title>Node1</title>
<g id="a_node1"><a xlink:title=" ">
<polygon fill="#bfbfbf" stroke="black" points="132.5,-112.5 132.5,-131.5 200.5,-131.5 200.5,-112.5 132.5,-112.5"/>
<text text-anchor="middle" x="166.5" y="-119.5" font-family="Helvetica,sans-Serif" font-size="10.00">Richards.h</text>
</a>
</g>
</g>
<!-- Node2 -->
<g id="node2" class="node">
<title>Node2</title>
<g id="a_node2"><a xlink:title=" ">
<polygon fill="white" stroke="#bfbfbf" points="0,-0.5 0,-19.5 47,-19.5 47,-0.5 0,-0.5"/>
<text text-anchor="middle" x="23.5" y="-7.5" font-family="Helvetica,sans-Serif" font-size="10.00">cmath</text>
</a>
</g>
</g>
<!-- Node1&#45;&gt;Node2 -->
<g id="edge1" class="edge">
<title>Node1&#45;&gt;Node2</title>
<path fill="none" stroke="midnightblue" d="M132.28,-116.18C90.21,-109.46 22.51,-95.85 7.5,-76 -2.87,-62.29 4.08,-42.73 11.8,-28.66"/>
<polygon fill="midnightblue" stroke="midnightblue" points="14.9,-30.3 17.06,-19.92 8.9,-26.68 14.9,-30.3"/>
</g>
<!-- Node3 -->
<g id="node3" class="node">
<title>Node3</title>
<g id="a_node3"><a xlink:title=" ">
<polygon fill="white" stroke="#bfbfbf" points="99.5,-0.5 99.5,-19.5 159.5,-19.5 159.5,-0.5 99.5,-0.5"/>
<text text-anchor="middle" x="129.5" y="-7.5" font-family="Helvetica,sans-Serif" font-size="10.00">iostream</text>
</a>
</g>
</g>
<!-- Node1&#45;&gt;Node3 -->
<g id="edge2" class="edge">
<title>Node1&#45;&gt;Node3</title>
<path fill="none" stroke="midnightblue" d="M163.08,-112.43C159.53,-103.42 153.88,-88.8 149.5,-76 144.18,-60.47 138.74,-42.63 134.88,-29.57"/>
<polygon fill="midnightblue" stroke="midnightblue" points="138.21,-28.5 132.04,-19.89 131.49,-30.47 138.21,-28.5"/>
</g>
<!-- Node4 -->
<g id="node4" class="node">
<title>Node4</title>
<g id="a_node4"><a xlink:href="_comp_kernel_8h.html" target="_top" xlink:title=" ">
<polygon fill="white" stroke="black" points="17,-56.5 17,-75.5 102,-75.5 102,-56.5 17,-56.5"/>
<text text-anchor="middle" x="59.5" y="-63.5" font-family="Helvetica,sans-Serif" font-size="10.00">CompKernel.h</text>
</a>
</g>
</g>
<!-- Node1&#45;&gt;Node4 -->
<g id="edge3" class="edge">
<title>Node1&#45;&gt;Node4</title>
<path fill="none" stroke="midnightblue" d="M149.31,-112.32C132.15,-103.66 105.55,-90.24 85.75,-80.25"/>
<polygon fill="midnightblue" stroke="midnightblue" points="87.15,-77.04 76.65,-75.65 84,-83.28 87.15,-77.04"/>
</g>
<!-- Node5 -->
<g id="node5" class="node">
<title>Node5</title>
<g id="a_node5"><a xlink:href="_model_factory_8h.html" target="_top" xlink:title=" ">
<polygon fill="white" stroke="black" points="159,-56.5 159,-75.5 248,-75.5 248,-56.5 159,-56.5"/>
<text text-anchor="middle" x="203.5" y="-63.5" font-family="Helvetica,sans-Serif" font-size="10.00">ModelFactory.h</text>
</a>
</g>
</g>
<!-- Node1&#45;&gt;Node5 -->
<g id="edge5" class="edge">
<title>Node1&#45;&gt;Node5</title>
<path fill="none" stroke="midnightblue" d="M172.61,-112.08C177.78,-104.53 185.35,-93.49 191.69,-84.23"/>
<polygon fill="midnightblue" stroke="midnightblue" points="194.74,-85.98 197.5,-75.75 188.96,-82.02 194.74,-85.98"/>
</g>
<!-- Node6 -->
<g id="node6" class="node">
<title>Node6</title>
<g id="a_node6"><a xlink:href="_arguments_dict_8h.html" target="_top" xlink:title=" ">
<polygon fill="white" stroke="black" points="266,-56.5 266,-75.5 413,-75.5 413,-56.5 266,-56.5"/>
<text text-anchor="middle" x="339.5" y="-63.5" font-family="Helvetica,sans-Serif" font-size="10.00">../mprans/ArgumentsDict.h</text>
</a>
</g>
</g>
<!-- Node1&#45;&gt;Node6 -->
<g id="edge7" class="edge">
<title>Node1&#45;&gt;Node6</title>
<path fill="none" stroke="midnightblue" d="M193.91,-112.44C223.27,-103.28 270.02,-88.69 302.6,-78.52"/>
<polygon fill="midnightblue" stroke="midnightblue" points="303.71,-81.84 312.22,-75.52 301.63,-75.16 303.71,-81.84"/>
</g>
<!-- Node10 -->
<g id="node10" class="node">
<title>Node10</title>
<g id="a_node10"><a xlink:title=" ">
<polygon fill="white" stroke="#bfbfbf" points="490,-0.5 490,-19.5 641,-19.5 641,-0.5 490,-0.5"/>
<text text-anchor="middle" x="565.5" y="-7.5" font-family="Helvetica,sans-Serif" font-size="10.00">xtensor&#45;python/pyarray.hpp</text>
</a>
</g>
</g>
<!-- Node1&#45;&gt;Node10 -->
<g id="edge13" class="edge">
<title>Node1&#45;&gt;Node10</title>
<path fill="none" stroke="midnightblue" d="M200.69,-117.77C250.4,-112.44 345.12,-99.96 422.5,-76 465.84,-62.58 513.25,-39.15 541.13,-24.39"/>
<polygon fill="midnightblue" stroke="midnightblue" points="542.98,-27.37 550.14,-19.56 539.67,-21.2 542.98,-27.37"/>
</g>
<!-- Node4&#45;&gt;Node2 -->
<g id="edge4" class="edge">
<title>Node4&#45;&gt;Node2</title>
<path fill="none" stroke="midnightblue" d="M53.56,-56.08C48.52,-48.53 41.16,-37.49 34.99,-28.23"/>
<polygon fill="midnightblue" stroke="midnightblue" points="37.79,-26.13 29.33,-19.75 31.97,-30.01 37.79,-26.13"/>
</g>
<!-- Node5&#45;&gt;Node3 -->
<g id="edge6" class="edge">
<title>Node5&#45;&gt;Node3</title>
<path fill="none" stroke="midnightblue" d="M191.61,-56.32C180.35,-48.11 163.21,-35.6 149.79,-25.81"/>
<polygon fill="midnightblue" stroke="midnightblue" points="151.75,-22.9 141.61,-19.83 147.62,-28.56 151.75,-22.9"/>
</g>
<!-- Node7 -->
<g id="node7" class="node">
<title>Node7</title>
<g id="a_node7"><a xlink:title=" ">
<polygon fill="white" stroke="#bfbfbf" points="177.5,-0.5 177.5,-19.5 215.5,-19.5 215.5,-0.5 177.5,-0.5"/>
<text text-anchor="middle" x="196.5" y="-7.5" font-family="Helvetica,sans-Serif" font-size="10.00">map</text>
</a>
</g>
</g>
<!-- Node6&#45;&gt;Node7 -->
<g id="edge8" class="edge">
<title>Node6&#45;&gt;Node7</title>
<path fill="none" stroke="midnightblue" d="M316.84,-56.44C292.12,-47.11 252.48,-32.14 225.5,-21.95"/>
<polygon fill="midnightblue" stroke="midnightblue" points="226.43,-18.56 215.84,-18.3 223.96,-25.11 226.43,-18.56"/>
</g>
<!-- Node8 -->
<g id="node8" class="node">
<title>Node8</title>
<g id="a_node8"><a xlink:title=" ">
<polygon fill="white" stroke="#bfbfbf" points="234,-0.5 234,-19.5 299,-19.5 299,-0.5 234,-0.5"/>
<text text-anchor="middle" x="266.5" y="-7.5" font-family="Helvetica,sans-Serif" font-size="10.00">stdexcept</text>
</a>
</g>
</g>
<!-- Node6&#45;&gt;Node8 -->
<g id="edge9" class="edge">
<title>Node6&#45;&gt;Node8</title>
<path fill="none" stroke="midnightblue" d="M327.77,-56.32C316.66,-48.11 299.76,-35.6 286.52,-25.81"/>
<polygon fill="midnightblue" stroke="midnightblue" points="288.56,-22.97 278.44,-19.83 284.4,-28.59 288.56,-22.97"/>
</g>
<!-- Node9 -->
<g id="node9" class="node">
<title>Node9</title>
<g id="a_node9"><a xlink:title=" ">
<polygon fill="white" stroke="#bfbfbf" points="317.5,-0.5 317.5,-19.5 361.5,-19.5 361.5,-0.5 317.5,-0.5"/>
<text text-anchor="middle" x="339.5" y="-7.5" font-family="Helvetica,sans-Serif" font-size="10.00">string</text>
</a>
</g>
</g>
<!-- Node6&#45;&gt;Node9 -->
<g id="edge10" class="edge">
<title>Node6&#45;&gt;Node9</title>
<path fill="none" stroke="midnightblue" d="M339.5,-56.08C339.5,-49.01 339.5,-38.86 339.5,-29.99"/>
<polygon fill="midnightblue" stroke="midnightblue" points="343,-29.75 339.5,-19.75 336,-29.75 343,-29.75"/>
</g>
<!-- Node6&#45;&gt;Node10 -->
<g id="edge11" class="edge">
<title>Node6&#45;&gt;Node10</title>
<path fill="none" stroke="midnightblue" d="M375.31,-56.44C414.49,-47.08 477.38,-32.06 520.02,-21.87"/>
<polygon fill="midnightblue" stroke="midnightblue" points="520.94,-25.24 529.86,-19.52 519.32,-18.44 520.94,-25.24"/>
</g>
<!-- Node11 -->
<g id="node11" class="node">
<title>Node11</title>
<g id="a_node11"><a xlink:title=" ">
<polygon fill="white" stroke="#bfbfbf" points="379.5,-0.5 379.5,-19.5 471.5,-19.5 471.5,-0.5 379.5,-0.5"/>
<text text-anchor="middle" x="425.5" y="-7.5" font-family="Helvetica,sans-Serif" font-size="10.00">xtensor/xio.hpp</text>
</a>
</g>
</g>
<!-- Node6&#45;&gt;Node11 -->
<g id="edge12" class="edge">
<title>Node6&#45;&gt;Node11</title>
<path fill="none" stroke="midnightblue" d="M353.32,-56.32C366.73,-47.9 387.32,-34.97 403.09,-25.07"/>
<polygon fill="midnightblue" stroke="midnightblue" points="405.11,-27.94 411.72,-19.65 401.39,-22.01 405.11,-27.94"/>
</g>
</g>
</svg>
