<?xml version="1.0" encoding="UTF-8" standalone="no"?>
<!DOCTYPE svg PUBLIC "-//W3C//DTD SVG 1.1//EN"
 "http://www.w3.org/Graphics/SVG/1.1/DTD/svg11.dtd">
<!-- Generated by graphviz version 2.43.0 (0)
 -->
<!-- Title: SW2D.cpp Pages: 1 -->
<svg width="772pt" height="196pt"
 viewBox="0.00 0.00 772.00 196.00" xmlns="http://www.w3.org/2000/svg" xmlns:xlink="http://www.w3.org/1999/xlink">
<g id="graph0" class="graph" transform="scale(1 1) rotate(0) translate(4 192)">
<title>SW2D.cpp</title>
<polygon fill="white" stroke="transparent" points="-4,4 -4,-192 768,-192 768,4 -4,4"/>
<!-- Node1 -->
<g id="node1" class="node">
<title>Node1</title>
<g id="a_node1"><a xlink:title=" ">
<polygon fill="#bfbfbf" stroke="black" points="160.5,-168.5 160.5,-187.5 226.5,-187.5 226.5,-168.5 160.5,-168.5"/>
<text text-anchor="middle" x="193.5" y="-175.5" font-family="Helvetica,sans-Serif" font-size="10.00">SW2D.cpp</text>
</a>
</g>
</g>
<!-- Node2 -->
<g id="node2" class="node">
<title>Node2</title>
<g id="a_node2"><a xlink:title=" ">
<polygon fill="white" stroke="#bfbfbf" points="0,-112.5 0,-131.5 119,-131.5 119,-112.5 0,-112.5"/>
<text text-anchor="middle" x="59.5" y="-119.5" font-family="Helvetica,sans-Serif" font-size="10.00">pybind11/pybind11.h</text>
</a>
</g>
</g>
<!-- Node1&#45;&gt;Node2 -->
<g id="edge1" class="edge">
<title>Node1&#45;&gt;Node2</title>
<path fill="none" stroke="midnightblue" d="M172.27,-168.44C150.12,-159.52 115.18,-145.44 90.06,-135.32"/>
<polygon fill="midnightblue" stroke="midnightblue" points="91.22,-132.01 80.63,-131.52 88.6,-138.5 91.22,-132.01"/>
</g>
<!-- Node3 -->
<g id="node3" class="node">
<title>Node3</title>
<g id="a_node3"><a xlink:title=" ">
<polygon fill="white" stroke="#bfbfbf" points="137.5,-112.5 137.5,-131.5 249.5,-131.5 249.5,-112.5 137.5,-112.5"/>
<text text-anchor="middle" x="193.5" y="-119.5" font-family="Helvetica,sans-Serif" font-size="10.00">pybind11/stl_bind.h</text>
</a>
</g>
</g>
<!-- Node1&#45;&gt;Node3 -->
<g id="edge2" class="edge">
<title>Node1&#45;&gt;Node3</title>
<path fill="none" stroke="midnightblue" d="M193.5,-168.08C193.5,-161.01 193.5,-150.86 193.5,-141.99"/>
<polygon fill="midnightblue" stroke="midnightblue" points="197,-141.75 193.5,-131.75 190,-141.75 197,-141.75"/>
</g>
<!-- Node4 -->
<g id="node4" class="node">
<title>Node4</title>
<g id="a_node4"><a xlink:href="_s_w2_d_8h.html" target="_top" xlink:title=" ">
<polygon fill="white" stroke="black" points="268,-112.5 268,-131.5 323,-131.5 323,-112.5 268,-112.5"/>
<text text-anchor="middle" x="295.5" y="-119.5" font-family="Helvetica,sans-Serif" font-size="10.00">SW2D.h</text>
</a>
</g>
</g>
<!-- Node1&#45;&gt;Node4 -->
<g id="edge3" class="edge">
<title>Node1&#45;&gt;Node4</title>
<path fill="none" stroke="midnightblue" d="M209.89,-168.32C226.17,-159.7 251.37,-146.36 270.22,-136.39"/>
<polygon fill="midnightblue" stroke="midnightblue" points="271.95,-139.43 279.15,-131.65 268.68,-133.24 271.95,-139.43"/>
</g>
<!-- Node5 -->
<g id="node5" class="node">
<title>Node5</title>
<g id="a_node5"><a xlink:title=" ">
<polygon fill="white" stroke="#bfbfbf" points="129,-0.5 129,-19.5 176,-19.5 176,-0.5 129,-0.5"/>
<text text-anchor="middle" x="152.5" y="-7.5" font-family="Helvetica,sans-Serif" font-size="10.00">cmath</text>
</a>
</g>
</g>
<!-- Node4&#45;&gt;Node5 -->
<g id="edge4" class="edge">
<title>Node4&#45;&gt;Node5</title>
<path fill="none" stroke="midnightblue" d="M267.96,-114.12C223.52,-102.89 140.54,-81.35 136.5,-76 126.13,-62.29 133.08,-42.73 140.8,-28.66"/>
<polygon fill="midnightblue" stroke="midnightblue" points="143.9,-30.3 146.06,-19.92 137.9,-26.68 143.9,-30.3"/>
</g>
<!-- Node6 -->
<g id="node6" class="node">
<title>Node6</title>
<g id="a_node6"><a xlink:title=" ">
<polygon fill="white" stroke="#bfbfbf" points="222.5,-0.5 222.5,-19.5 282.5,-19.5 282.5,-0.5 222.5,-0.5"/>
<text text-anchor="middle" x="252.5" y="-7.5" font-family="Helvetica,sans-Serif" font-size="10.00">iostream</text>
</a>
</g>
</g>
<!-- Node4&#45;&gt;Node6 -->
<g id="edge5" class="edge">
<title>Node4&#45;&gt;Node6</title>
<path fill="none" stroke="midnightblue" d="M292.13,-112.37C285.12,-94.46 268.89,-52.92 259.52,-28.95"/>
<polygon fill="midnightblue" stroke="midnightblue" points="262.76,-27.63 255.86,-19.59 256.24,-30.18 262.76,-27.63"/>
</g>
<!-- Node7 -->
<g id="node7" class="node">
<title>Node7</title>
<g id="a_node7"><a xlink:href="_comp_kernel_8h.html" target="_top" xlink:title=" ">
<polygon fill="white" stroke="black" points="146,-56.5 146,-75.5 231,-75.5 231,-56.5 146,-56.5"/>
<text text-anchor="middle" x="188.5" y="-63.5" font-family="Helvetica,sans-Serif" font-size="10.00">CompKernel.h</text>
</a>
</g>
</g>
<!-- Node4&#45;&gt;Node7 -->
<g id="edge6" class="edge">
<title>Node4&#45;&gt;Node7</title>
<path fill="none" stroke="midnightblue" d="M278.31,-112.32C261.15,-103.66 234.55,-90.24 214.75,-80.25"/>
<polygon fill="midnightblue" stroke="midnightblue" points="216.15,-77.04 205.65,-75.65 213,-83.28 216.15,-77.04"/>
</g>
<!-- Node8 -->
<g id="node8" class="node">
<title>Node8</title>
<g id="a_node8"><a xlink:href="_model_factory_8h.html" target="_top" xlink:title=" ">
<polygon fill="white" stroke="black" points="288,-56.5 288,-75.5 377,-75.5 377,-56.5 288,-56.5"/>
<text text-anchor="middle" x="332.5" y="-63.5" font-family="Helvetica,sans-Serif" font-size="10.00">ModelFactory.h</text>
</a>
</g>
</g>
<!-- Node4&#45;&gt;Node8 -->
<g id="edge8" class="edge">
<title>Node4&#45;&gt;Node8</title>
<path fill="none" stroke="midnightblue" d="M301.61,-112.08C306.78,-104.53 314.35,-93.49 320.69,-84.23"/>
<polygon fill="midnightblue" stroke="midnightblue" points="323.74,-85.98 326.5,-75.75 317.96,-82.02 323.74,-85.98"/>
</g>
<!-- Node9 -->
<g id="node9" class="node">
<title>Node9</title>
<g id="a_node9"><a xlink:href="_arguments_dict_8h.html" target="_top" xlink:title=" ">
<polygon fill="white" stroke="black" points="407.5,-56.5 407.5,-75.5 505.5,-75.5 505.5,-56.5 407.5,-56.5"/>
<text text-anchor="middle" x="456.5" y="-63.5" font-family="Helvetica,sans-Serif" font-size="10.00">ArgumentsDict.h</text>
</a>
</g>
</g>
<!-- Node4&#45;&gt;Node9 -->
<g id="edge10" class="edge">
<title>Node4&#45;&gt;Node9</title>
<path fill="none" stroke="midnightblue" d="M321.01,-112.44C348.1,-103.36 391.09,-88.94 421.37,-78.78"/>
<polygon fill="midnightblue" stroke="midnightblue" points="422.74,-82.01 431.11,-75.52 420.51,-75.38 422.74,-82.01"/>
</g>
<!-- Node13 -->
<g id="node13" class="node">
<title>Node13</title>
<g id="a_node13"><a xlink:title=" ">
<polygon fill="white" stroke="#bfbfbf" points="613,-0.5 613,-19.5 764,-19.5 764,-0.5 613,-0.5"/>
<text text-anchor="middle" x="688.5" y="-7.5" font-family="Helvetica,sans-Serif" font-size="10.00">xtensor&#45;python/pyarray.hpp</text>
</a>
</g>
</g>
<!-- Node4&#45;&gt;Node13 -->
<g id="edge16" class="edge">
<title>Node4&#45;&gt;Node13</title>
<path fill="none" stroke="midnightblue" d="M323.14,-116.73C365.01,-109.95 446.8,-95.47 514.5,-76 566.54,-61.03 625.18,-37.73 659.36,-23.47"/>
<polygon fill="midnightblue" stroke="midnightblue" points="660.88,-26.63 668.74,-19.53 658.17,-20.18 660.88,-26.63"/>
</g>
<!-- Node7&#45;&gt;Node5 -->
<g id="edge7" class="edge">
<title>Node7&#45;&gt;Node5</title>
<path fill="none" stroke="midnightblue" d="M182.56,-56.08C177.52,-48.53 170.16,-37.49 163.99,-28.23"/>
<polygon fill="midnightblue" stroke="midnightblue" points="166.79,-26.13 158.33,-19.75 160.97,-30.01 166.79,-26.13"/>
</g>
<!-- Node8&#45;&gt;Node6 -->
<g id="edge9" class="edge">
<title>Node8&#45;&gt;Node6</title>
<path fill="none" stroke="midnightblue" d="M319.65,-56.32C307.28,-47.98 288.37,-35.21 273.76,-25.35"/>
<polygon fill="midnightblue" stroke="midnightblue" points="275.57,-22.35 265.32,-19.65 271.65,-28.15 275.57,-22.35"/>
</g>
<!-- Node10 -->
<g id="node10" class="node">
<title>Node10</title>
<g id="a_node10"><a xlink:title=" ">
<polygon fill="white" stroke="#bfbfbf" points="300.5,-0.5 300.5,-19.5 338.5,-19.5 338.5,-0.5 300.5,-0.5"/>
<text text-anchor="middle" x="319.5" y="-7.5" font-family="Helvetica,sans-Serif" font-size="10.00">map</text>
</a>
</g>
</g>
<!-- Node9&#45;&gt;Node10 -->
<g id="edge11" class="edge">
<title>Node9&#45;&gt;Node10</title>
<path fill="none" stroke="midnightblue" d="M434.79,-56.44C411.48,-47.25 374.32,-32.61 348.51,-22.43"/>
<polygon fill="midnightblue" stroke="midnightblue" points="349.48,-19.05 338.89,-18.64 346.91,-25.57 349.48,-19.05"/>
</g>
<!-- Node11 -->
<g id="node11" class="node">
<title>Node11</title>
<g id="a_node11"><a xlink:title=" ">
<polygon fill="white" stroke="#bfbfbf" points="357,-0.5 357,-19.5 422,-19.5 422,-0.5 357,-0.5"/>
<text text-anchor="middle" x="389.5" y="-7.5" font-family="Helvetica,sans-Serif" font-size="10.00">stdexcept</text>
</a>
</g>
</g>
<!-- Node9&#45;&gt;Node11 -->
<g id="edge12" class="edge">
<title>Node9&#45;&gt;Node11</title>
<path fill="none" stroke="midnightblue" d="M445.74,-56.32C435.73,-48.26 420.61,-36.08 408.57,-26.37"/>
<polygon fill="midnightblue" stroke="midnightblue" points="410.44,-23.38 400.46,-19.83 406.05,-28.83 410.44,-23.38"/>
</g>
<!-- Node12 -->
<g id="node12" class="node">
<title>Node12</title>
<g id="a_node12"><a xlink:title=" ">
<polygon fill="white" stroke="#bfbfbf" points="440.5,-0.5 440.5,-19.5 484.5,-19.5 484.5,-0.5 440.5,-0.5"/>
<text text-anchor="middle" x="462.5" y="-7.5" font-family="Helvetica,sans-Serif" font-size="10.00">string</text>
</a>
</g>
</g>
<!-- Node9&#45;&gt;Node12 -->
<g id="edge13" class="edge">
<title>Node9&#45;&gt;Node12</title>
<path fill="none" stroke="midnightblue" d="M457.49,-56.08C458.29,-48.93 459.43,-38.64 460.42,-29.69"/>
<polygon fill="midnightblue" stroke="midnightblue" points="463.9,-30.08 461.53,-19.75 456.94,-29.3 463.9,-30.08"/>
</g>
<!-- Node9&#45;&gt;Node13 -->
<g id="edge14" class="edge">
<title>Node9&#45;&gt;Node13</title>
<path fill="none" stroke="midnightblue" d="M493.26,-56.44C533.56,-47.06 598.31,-31.99 642.08,-21.8"/>
<polygon fill="midnightblue" stroke="midnightblue" points="642.96,-25.19 651.91,-19.52 641.38,-18.37 642.96,-25.19"/>
</g>
<!-- Node14 -->
<g id="node14" class="node">
<title>Node14</title>
<g id="a_node14"><a xlink:title=" ">
<polygon fill="white" stroke="#bfbfbf" points="502.5,-0.5 502.5,-19.5 594.5,-19.5 594.5,-0.5 502.5,-0.5"/>
<text text-anchor="middle" x="548.5" y="-7.5" font-family="Helvetica,sans-Serif" font-size="10.00">xtensor/xio.hpp</text>
</a>
</g>
</g>
<!-- Node9&#45;&gt;Node14 -->
<g id="edge15" class="edge">
<title>Node9&#45;&gt;Node14</title>
<path fill="none" stroke="midnightblue" d="M471.28,-56.32C485.77,-47.82 508.07,-34.73 524.99,-24.8"/>
<polygon fill="midnightblue" stroke="midnightblue" points="526.9,-27.74 533.76,-19.65 523.36,-21.7 526.9,-27.74"/>
</g>
</g>
</svg>
