<?xml version="1.0" encoding="UTF-8" standalone="no"?>
<!DOCTYPE svg PUBLIC "-//W3C//DTD SVG 1.1//EN"
 "http://www.w3.org/Graphics/SVG/1.1/DTD/svg11.dtd">
<!-- Generated by graphviz version 2.44.1 (20200629.0846)
 -->
<!-- Title: SW2D.cpp Pages: 1 -->
<svg width="543pt" height="196pt"
 viewBox="0.00 0.00 543.00 196.00" xmlns="http://www.w3.org/2000/svg" xmlns:xlink="http://www.w3.org/1999/xlink">
<g id="graph0" class="graph" transform="scale(1 1) rotate(0) translate(4 192)">
<title>SW2D.cpp</title>
<polygon fill="white" stroke="transparent" points="-4,4 -4,-192 539,-192 539,4 -4,4"/>
<!-- Node1 -->
<g id="node1" class="node">
<title>Node1</title>
<g id="a_node1"><a xlink:title=" ">
<polygon fill="#bfbfbf" stroke="black" points="142.5,-168.5 142.5,-187.5 207.5,-187.5 207.5,-168.5 142.5,-168.5"/>
<text text-anchor="middle" x="175" y="-175.5" font-family="Helvetica,sans-Serif" font-size="10.00">SW2D.cpp</text>
</a>
</g>
</g>
<!-- Node2 -->
<g id="node2" class="node">
<title>Node2</title>
<g id="a_node2"><a xlink:title=" ">
<polygon fill="white" stroke="#bfbfbf" points="0,-112.5 0,-131.5 106,-131.5 106,-112.5 0,-112.5"/>
<text text-anchor="middle" x="53" y="-119.5" font-family="Helvetica,sans-Serif" font-size="10.00">pybind11/pybind11.h</text>
</a>
</g>
</g>
<!-- Node1&#45;&gt;Node2 -->
<g id="edge1" class="edge">
<title>Node1&#45;&gt;Node2</title>
<path fill="none" stroke="midnightblue" d="M155.67,-168.44C135.68,-159.6 104.26,-145.69 81.44,-135.59"/>
<polygon fill="midnightblue" stroke="midnightblue" points="82.8,-132.36 72.24,-131.52 79.97,-138.76 82.8,-132.36"/>
</g>
<!-- Node3 -->
<g id="node3" class="node">
<title>Node3</title>
<g id="a_node3"><a xlink:title=" ">
<polygon fill="white" stroke="#bfbfbf" points="124.5,-112.5 124.5,-131.5 225.5,-131.5 225.5,-112.5 124.5,-112.5"/>
<text text-anchor="middle" x="175" y="-119.5" font-family="Helvetica,sans-Serif" font-size="10.00">pybind11/stl_bind.h</text>
</a>
</g>
</g>
<!-- Node1&#45;&gt;Node3 -->
<g id="edge2" class="edge">
<title>Node1&#45;&gt;Node3</title>
<path fill="none" stroke="midnightblue" d="M175,-168.08C175,-161.01 175,-150.86 175,-141.99"/>
<polygon fill="midnightblue" stroke="midnightblue" points="178.5,-141.75 175,-131.75 171.5,-141.75 178.5,-141.75"/>
</g>
<!-- Node4 -->
<g id="node4" class="node">
<title>Node4</title>
<g id="a_node4"><a xlink:href="_s_w2_d_8h.html" target="_top" xlink:title=" ">
<polygon fill="white" stroke="black" points="244,-112.5 244,-131.5 298,-131.5 298,-112.5 244,-112.5"/>
<text text-anchor="middle" x="271" y="-119.5" font-family="Helvetica,sans-Serif" font-size="10.00">SW2D.h</text>
</a>
</g>
</g>
<!-- Node1&#45;&gt;Node4 -->
<g id="edge3" class="edge">
<title>Node1&#45;&gt;Node4</title>
<path fill="none" stroke="midnightblue" d="M190.42,-168.32C205.54,-159.82 228.82,-146.73 246.47,-136.8"/>
<polygon fill="midnightblue" stroke="midnightblue" points="248.61,-139.61 255.61,-131.65 245.18,-133.51 248.61,-139.61"/>
</g>
<!-- Node5 -->
<g id="node5" class="node">
<title>Node5</title>
<g id="a_node5"><a xlink:title=" ">
<polygon fill="white" stroke="#bfbfbf" points="147,-0.5 147,-19.5 191,-19.5 191,-0.5 147,-0.5"/>
<text text-anchor="middle" x="169" y="-7.5" font-family="Helvetica,sans-Serif" font-size="10.00">cmath</text>
</a>
</g>
</g>
<!-- Node4&#45;&gt;Node5 -->
<g id="edge4" class="edge">
<title>Node4&#45;&gt;Node5</title>
<path fill="none" stroke="midnightblue" d="M243.81,-114.34C212.63,-106.09 164.47,-91.25 154,-76 144.4,-62.02 150.69,-42.76 157.84,-28.84"/>
<polygon fill="midnightblue" stroke="midnightblue" points="161.08,-30.22 162.97,-19.8 154.99,-26.76 161.08,-30.22"/>
</g>
<!-- Node6 -->
<g id="node6" class="node">
<title>Node6</title>
<g id="a_node6"><a xlink:title=" ">
<polygon fill="white" stroke="#bfbfbf" points="279,-0.5 279,-19.5 333,-19.5 333,-0.5 279,-0.5"/>
<text text-anchor="middle" x="306" y="-7.5" font-family="Helvetica,sans-Serif" font-size="10.00">iostream</text>
</a>
</g>
</g>
<!-- Node4&#45;&gt;Node6 -->
<g id="edge5" class="edge">
<title>Node4&#45;&gt;Node6</title>
<path fill="none" stroke="midnightblue" d="M273.42,-112.12C276.89,-99.56 283.56,-75.91 290,-56 292.88,-47.11 296.32,-37.34 299.27,-29.17"/>
<polygon fill="midnightblue" stroke="midnightblue" points="302.63,-30.17 302.79,-19.58 296.06,-27.76 302.63,-30.17"/>
</g>
<!-- Node7 -->
<g id="node7" class="node">
<title>Node7</title>
<g id="a_node7"><a xlink:href="_comp_kernel_8h.html" target="_top" xlink:title=" ">
<polygon fill="white" stroke="black" points="163.5,-56.5 163.5,-75.5 242.5,-75.5 242.5,-56.5 163.5,-56.5"/>
<text text-anchor="middle" x="203" y="-63.5" font-family="Helvetica,sans-Serif" font-size="10.00">CompKernel.h</text>
</a>
</g>
</g>
<!-- Node4&#45;&gt;Node7 -->
<g id="edge6" class="edge">
<title>Node4&#45;&gt;Node7</title>
<path fill="none" stroke="midnightblue" d="M260.07,-112.32C249.83,-104.18 234.28,-91.84 222,-82.09"/>
<polygon fill="midnightblue" stroke="midnightblue" points="224.13,-79.31 214.12,-75.83 219.78,-84.79 224.13,-79.31"/>
</g>
<!-- Node8 -->
<g id="node8" class="node">
<title>Node8</title>
<g id="a_node8"><a xlink:href="_model_factory_8h.html" target="_top" xlink:title=" ">
<polygon fill="white" stroke="black" points="299.5,-56.5 299.5,-75.5 382.5,-75.5 382.5,-56.5 299.5,-56.5"/>
<text text-anchor="middle" x="341" y="-63.5" font-family="Helvetica,sans-Serif" font-size="10.00">ModelFactory.h</text>
</a>
</g>
</g>
<!-- Node4&#45;&gt;Node8 -->
<g id="edge8" class="edge">
<title>Node4&#45;&gt;Node8</title>
<path fill="none" stroke="midnightblue" d="M282.25,-112.32C292.8,-104.18 308.8,-91.84 321.44,-82.09"/>
<polygon fill="midnightblue" stroke="midnightblue" points="323.77,-84.71 329.55,-75.83 319.49,-79.17 323.77,-84.71"/>
</g>
<!-- Node9 -->
<g id="node9" class="node">
<title>Node9</title>
<g id="a_node9"><a xlink:title=" ">
<polygon fill="white" stroke="#bfbfbf" points="401,-56.5 401,-75.5 535,-75.5 535,-56.5 401,-56.5"/>
<text text-anchor="middle" x="468" y="-63.5" font-family="Helvetica,sans-Serif" font-size="10.00">xtensor&#45;python/pyarray.hpp</text>
</a>
</g>
</g>
<!-- Node4&#45;&gt;Node9 -->
<g id="edge10" class="edge">
<title>Node4&#45;&gt;Node9</title>
<path fill="none" stroke="midnightblue" d="M298.39,-113.49C331.78,-104.34 388.5,-88.79 427.07,-78.22"/>
<polygon fill="midnightblue" stroke="midnightblue" points="428.23,-81.53 436.95,-75.51 426.38,-74.78 428.23,-81.53"/>
</g>
<!-- Node7&#45;&gt;Node5 -->
<g id="edge7" class="edge">
<title>Node7&#45;&gt;Node5</title>
<path fill="none" stroke="midnightblue" d="M197.39,-56.08C192.63,-48.53 185.68,-37.49 179.85,-28.23"/>
<polygon fill="midnightblue" stroke="midnightblue" points="182.8,-26.35 174.51,-19.75 176.88,-30.08 182.8,-26.35"/>
</g>
<!-- Node8&#45;&gt;Node6 -->
<g id="edge9" class="edge">
<title>Node8&#45;&gt;Node6</title>
<path fill="none" stroke="midnightblue" d="M335.22,-56.08C330.33,-48.53 323.17,-37.49 317.17,-28.23"/>
<polygon fill="midnightblue" stroke="midnightblue" points="320.05,-26.24 311.67,-19.75 314.17,-30.05 320.05,-26.24"/>
</g>
</g>
</svg>
