<?xml version="1.0" encoding="UTF-8" standalone="no"?>
<!DOCTYPE svg PUBLIC "-//W3C//DTD SVG 1.1//EN"
 "http://www.w3.org/Graphics/SVG/1.1/DTD/svg11.dtd">
<!-- Generated by graphviz version 2.44.1 (20200629.0846)
 -->
<!-- Title: SW2DCV.h Pages: 1 -->
<svg width="558pt" height="140pt"
 viewBox="0.00 0.00 557.50 140.00" xmlns="http://www.w3.org/2000/svg" xmlns:xlink="http://www.w3.org/1999/xlink">
<g id="graph0" class="graph" transform="scale(1 1) rotate(0) translate(4 136)">
<title>SW2DCV.h</title>
<polygon fill="white" stroke="transparent" points="-4,4 -4,-136 553.5,-136 553.5,4 -4,4"/>
<!-- Node1 -->
<g id="node1" class="node">
<title>Node1</title>
<g id="a_node1"><a xlink:title=" ">
<polygon fill="#bfbfbf" stroke="black" points="214,-112.5 214,-131.5 281,-131.5 281,-112.5 214,-112.5"/>
<text text-anchor="middle" x="247.5" y="-119.5" font-family="Helvetica,sans-Serif" font-size="10.00">SW2DCV.h</text>
</a>
</g>
</g>
<!-- Node2 -->
<g id="node2" class="node">
<title>Node2</title>
<g id="a_node2"><a xlink:href="_comp_kernel_8h.html" target="_top" xlink:title=" ">
<polygon fill="white" stroke="black" points="0,-56.5 0,-75.5 79,-75.5 79,-56.5 0,-56.5"/>
<text text-anchor="middle" x="39.5" y="-63.5" font-family="Helvetica,sans-Serif" font-size="10.00">CompKernel.h</text>
</a>
</g>
</g>
<!-- Node1&#45;&gt;Node2 -->
<g id="edge1" class="edge">
<title>Node1&#45;&gt;Node2</title>
<path fill="none" stroke="midnightblue" d="M214.54,-112.44C178.71,-103.14 121.34,-88.25 82.11,-78.06"/>
<polygon fill="midnightblue" stroke="midnightblue" points="82.86,-74.64 72.3,-75.52 81.1,-81.42 82.86,-74.64"/>
</g>
<!-- Node3 -->
<g id="node3" class="node">
<title>Node3</title>
<g id="a_node3"><a xlink:title=" ">
<polygon fill="white" stroke="#bfbfbf" points="51.5,-0.5 51.5,-19.5 95.5,-19.5 95.5,-0.5 51.5,-0.5"/>
<text text-anchor="middle" x="73.5" y="-7.5" font-family="Helvetica,sans-Serif" font-size="10.00">cmath</text>
</a>
</g>
</g>
<!-- Node1&#45;&gt;Node3 -->
<g id="edge6" class="edge">
<title>Node1&#45;&gt;Node3</title>
<path fill="none" stroke="midnightblue" d="M213.88,-113.63C188.23,-106.84 152.92,-94.92 126.5,-76 108.63,-63.21 93.41,-42.9 83.92,-28.39"/>
<polygon fill="midnightblue" stroke="midnightblue" points="86.83,-26.44 78.55,-19.83 80.9,-30.16 86.83,-26.44"/>
</g>
<!-- Node4 -->
<g id="node4" class="node">
<title>Node4</title>
<g id="a_node4"><a xlink:href="_model_factory_8h.html" target="_top" xlink:title=" ">
<polygon fill="white" stroke="black" points="136,-56.5 136,-75.5 219,-75.5 219,-56.5 136,-56.5"/>
<text text-anchor="middle" x="177.5" y="-63.5" font-family="Helvetica,sans-Serif" font-size="10.00">ModelFactory.h</text>
</a>
</g>
</g>
<!-- Node1&#45;&gt;Node4 -->
<g id="edge3" class="edge">
<title>Node1&#45;&gt;Node4</title>
<path fill="none" stroke="midnightblue" d="M236.25,-112.32C225.7,-104.18 209.7,-91.84 197.06,-82.09"/>
<polygon fill="midnightblue" stroke="midnightblue" points="199.01,-79.17 188.95,-75.83 194.73,-84.71 199.01,-79.17"/>
</g>
<!-- Node5 -->
<g id="node5" class="node">
<title>Node5</title>
<g id="a_node5"><a xlink:title=" ">
<polygon fill="white" stroke="#bfbfbf" points="185.5,-0.5 185.5,-19.5 239.5,-19.5 239.5,-0.5 185.5,-0.5"/>
<text text-anchor="middle" x="212.5" y="-7.5" font-family="Helvetica,sans-Serif" font-size="10.00">iostream</text>
</a>
</g>
</g>
<!-- Node1&#45;&gt;Node5 -->
<g id="edge7" class="edge">
<title>Node1&#45;&gt;Node5</title>
<path fill="none" stroke="midnightblue" d="M245.08,-112.12C241.61,-99.56 234.94,-75.91 228.5,-56 225.62,-47.11 222.18,-37.34 219.23,-29.17"/>
<polygon fill="midnightblue" stroke="midnightblue" points="222.44,-27.76 215.71,-19.58 215.87,-30.17 222.44,-27.76"/>
</g>
<!-- Node6 -->
<g id="node6" class="node">
<title>Node6</title>
<g id="a_node6"><a xlink:title=" ">
<polygon fill="white" stroke="#bfbfbf" points="275.5,-56.5 275.5,-75.5 327.5,-75.5 327.5,-56.5 275.5,-56.5"/>
<text text-anchor="middle" x="301.5" y="-63.5" font-family="Helvetica,sans-Serif" font-size="10.00">assert.h</text>
</a>
</g>
</g>
<!-- Node1&#45;&gt;Node6 -->
<g id="edge5" class="edge">
<title>Node1&#45;&gt;Node6</title>
<path fill="none" stroke="midnightblue" d="M256.42,-112.08C264.28,-104.22 275.93,-92.57 285.42,-83.08"/>
<polygon fill="midnightblue" stroke="midnightblue" points="288.15,-85.3 292.75,-75.75 283.2,-80.35 288.15,-85.3"/>
</g>
<!-- Node7 -->
<g id="node7" class="node">
<title>Node7</title>
<g id="a_node7"><a xlink:title=" ">
<polygon fill="white" stroke="#bfbfbf" points="346,-56.5 346,-75.5 397,-75.5 397,-56.5 346,-56.5"/>
<text text-anchor="middle" x="371.5" y="-63.5" font-family="Helvetica,sans-Serif" font-size="10.00">valarray</text>
</a>
</g>
</g>
<!-- Node1&#45;&gt;Node7 -->
<g id="edge8" class="edge">
<title>Node1&#45;&gt;Node7</title>
<path fill="none" stroke="midnightblue" d="M267.15,-112.44C287.46,-103.6 319.4,-89.69 342.6,-79.59"/>
<polygon fill="midnightblue" stroke="midnightblue" points="344.17,-82.72 351.94,-75.52 341.38,-76.3 344.17,-82.72"/>
</g>
<!-- Node8 -->
<g id="node8" class="node">
<title>Node8</title>
<g id="a_node8"><a xlink:title=" ">
<polygon fill="white" stroke="#bfbfbf" points="415.5,-56.5 415.5,-75.5 549.5,-75.5 549.5,-56.5 415.5,-56.5"/>
<text text-anchor="middle" x="482.5" y="-63.5" font-family="Helvetica,sans-Serif" font-size="10.00">xtensor&#45;python/pyarray.hpp</text>
</a>
</g>
</g>
<!-- Node1&#45;&gt;Node8 -->
<g id="edge9" class="edge">
<title>Node1&#45;&gt;Node8</title>
<path fill="none" stroke="midnightblue" d="M281.17,-113.26C321.64,-103.96 389.8,-88.3 435.45,-77.81"/>
<polygon fill="midnightblue" stroke="midnightblue" points="436.44,-81.18 445.4,-75.52 434.87,-74.35 436.44,-81.18"/>
</g>
<!-- Node2&#45;&gt;Node3 -->
<g id="edge2" class="edge">
<title>Node2&#45;&gt;Node3</title>
<path fill="none" stroke="midnightblue" d="M45.11,-56.08C49.87,-48.53 56.82,-37.49 62.65,-28.23"/>
<polygon fill="midnightblue" stroke="midnightblue" points="65.62,-30.08 67.99,-19.75 59.7,-26.35 65.62,-30.08"/>
</g>
<!-- Node4&#45;&gt;Node5 -->
<g id="edge4" class="edge">
<title>Node4&#45;&gt;Node5</title>
<path fill="none" stroke="midnightblue" d="M183.28,-56.08C188.17,-48.53 195.33,-37.49 201.33,-28.23"/>
<polygon fill="midnightblue" stroke="midnightblue" points="204.33,-30.05 206.83,-19.75 198.45,-26.24 204.33,-30.05"/>
</g>
</g>
</svg>
