<?xml version="1.0" encoding="UTF-8" standalone="no"?>
<!DOCTYPE svg PUBLIC "-//W3C//DTD SVG 1.1//EN"
 "http://www.w3.org/Graphics/SVG/1.1/DTD/svg11.dtd">
<!-- Generated by graphviz version 2.40.1 (20161225.0304)
 -->
<!-- Title: SW2DCV.cpp Pages: 1 -->
<svg width="784pt" height="196pt"
 viewBox="0.00 0.00 784.00 196.00" xmlns="http://www.w3.org/2000/svg" xmlns:xlink="http://www.w3.org/1999/xlink">
<g id="graph0" class="graph" transform="scale(1 1) rotate(0) translate(4 192)">
<title>SW2DCV.cpp</title>
<polygon fill="#ffffff" stroke="transparent" points="-4,4 -4,-192 780,-192 780,4 -4,4"/>
<!-- Node0 -->
<g id="node1" class="node">
<title>Node0</title>
<polygon fill="#bfbfbf" stroke="#000000" points="379,-168.5 379,-187.5 458,-187.5 458,-168.5 379,-168.5"/>
<text text-anchor="middle" x="418.5" y="-175.5" font-family="Helvetica,sans-Serif" font-size="10.00" fill="#000000">SW2DCV.cpp</text>
</g>
<!-- Node1 -->
<g id="node2" class="node">
<title>Node1</title>
<polygon fill="#ffffff" stroke="#bfbfbf" points="243.5,-112.5 243.5,-131.5 349.5,-131.5 349.5,-112.5 243.5,-112.5"/>
<text text-anchor="middle" x="296.5" y="-119.5" font-family="Helvetica,sans-Serif" font-size="10.00" fill="#000000">pybind11/pybind11.h</text>
</g>
<!-- Node0&#45;&gt;Node1 -->
<g id="edge1" class="edge">
<title>Node0&#45;&gt;Node1</title>
<path fill="none" stroke="#191970" d="M397.5275,-168.3733C377.9433,-159.3838 348.5039,-145.8706 326.449,-135.7471"/>
<polygon fill="#191970" stroke="#191970" points="327.7473,-132.4919 317.1989,-131.5011 324.8271,-138.8538 327.7473,-132.4919"/>
</g>
<!-- Node2 -->
<g id="node3" class="node">
<title>Node2</title>
<polygon fill="#ffffff" stroke="#bfbfbf" points="368,-112.5 368,-131.5 469,-131.5 469,-112.5 368,-112.5"/>
<text text-anchor="middle" x="418.5" y="-119.5" font-family="Helvetica,sans-Serif" font-size="10.00" fill="#000000">pybind11/stl_bind.h</text>
</g>
<!-- Node0&#45;&gt;Node2 -->
<g id="edge2" class="edge">
<title>Node0&#45;&gt;Node2</title>
<path fill="none" stroke="#191970" d="M418.5,-168.2455C418.5,-160.9382 418.5,-150.6944 418.5,-141.7046"/>
<polygon fill="#191970" stroke="#191970" points="422.0001,-141.6426 418.5,-131.6427 415.0001,-141.6427 422.0001,-141.6426"/>
</g>
<!-- Node3 -->
<g id="node4" class="node">
<title>Node3</title>
<g id="a_node4"><a xlink:href="_s_w2_d_c_v_8h.html" target="_top" xlink:title="SW2DCV.h">
<polygon fill="#ffffff" stroke="#000000" points="487.5,-112.5 487.5,-131.5 555.5,-131.5 555.5,-112.5 487.5,-112.5"/>
<text text-anchor="middle" x="521.5" y="-119.5" font-family="Helvetica,sans-Serif" font-size="10.00" fill="#000000">SW2DCV.h</text>
</a>
</g>
</g>
<!-- Node0&#45;&gt;Node3 -->
<g id="edge3" class="edge">
<title>Node0&#45;&gt;Node3</title>
<path fill="none" stroke="#191970" d="M436.4412,-168.2455C452.54,-159.4928 476.3879,-146.527 494.7391,-136.5496"/>
<polygon fill="#191970" stroke="#191970" points="496.6507,-139.4942 503.7644,-131.6427 493.3071,-133.3444 496.6507,-139.4942"/>
</g>
<!-- Node4 -->
<g id="node5" class="node">
<title>Node4</title>
<g id="a_node5"><a xlink:href="_arguments_dict_8h.html" target="_top" xlink:title="ArgumentsDict.h">
<polygon fill="#ffffff" stroke="#000000" points="145.5,-56.5 145.5,-75.5 235.5,-75.5 235.5,-56.5 145.5,-56.5"/>
<text text-anchor="middle" x="190.5" y="-63.5" font-family="Helvetica,sans-Serif" font-size="10.00" fill="#000000">ArgumentsDict.h</text>
</a>
</g>
</g>
<!-- Node3&#45;&gt;Node4 -->
<g id="edge4" class="edge">
<title>Node3&#45;&gt;Node4</title>
<path fill="none" stroke="#191970" d="M487.4361,-114.0299C484.0848,-113.3145 480.7302,-112.6253 477.5,-112 397.3467,-96.485 303.8771,-82.2081 245.9353,-73.801"/>
<polygon fill="#191970" stroke="#191970" points="246.2909,-70.3161 235.8933,-72.3511 245.2905,-77.2443 246.2909,-70.3161"/>
</g>
<!-- Node8 -->
<g id="node9" class="node">
<title>Node8</title>
<polygon fill="#ffffff" stroke="#bfbfbf" points="290,-.5 290,-19.5 425,-19.5 425,-.5 290,-.5"/>
<text text-anchor="middle" x="357.5" y="-7.5" font-family="Helvetica,sans-Serif" font-size="10.00" fill="#000000">xtensor&#45;python/pyarray.hpp</text>
</g>
<!-- Node3&#45;&gt;Node8 -->
<g id="edge14" class="edge">
<title>Node3&#45;&gt;Node8</title>
<path fill="none" stroke="#191970" d="M487.1624,-113.6195C444.8347,-102.9844 377.4836,-84.95 369.5,-76 358.489,-63.6562 356.0023,-44.6936 355.9704,-30.2561"/>
<polygon fill="#191970" stroke="#191970" points="359.4828,-29.9833 356.3553,-19.8606 352.4876,-29.7243 359.4828,-29.9833"/>
</g>
<!-- Node10 -->
<g id="node11" class="node">
<title>Node10</title>
<g id="a_node11"><a xlink:href="_comp_kernel_8h.html" target="_top" xlink:title="CompKernel.h">
<polygon fill="#ffffff" stroke="#000000" points="379,-56.5 379,-75.5 458,-75.5 458,-56.5 379,-56.5"/>
<text text-anchor="middle" x="418.5" y="-63.5" font-family="Helvetica,sans-Serif" font-size="10.00" fill="#000000">CompKernel.h</text>
</a>
</g>
</g>
<!-- Node3&#45;&gt;Node10 -->
<g id="edge10" class="edge">
<title>Node3&#45;&gt;Node10</title>
<path fill="none" stroke="#191970" d="M503.5588,-112.2455C487.46,-103.4928 463.6121,-90.527 445.2609,-80.5496"/>
<polygon fill="#191970" stroke="#191970" points="446.6929,-77.3444 436.2356,-75.6427 443.3493,-83.4942 446.6929,-77.3444"/>
</g>
<!-- Node11 -->
<g id="node12" class="node">
<title>Node11</title>
<polygon fill="#ffffff" stroke="#bfbfbf" points="457.5,-.5 457.5,-19.5 501.5,-19.5 501.5,-.5 457.5,-.5"/>
<text text-anchor="middle" x="479.5" y="-7.5" font-family="Helvetica,sans-Serif" font-size="10.00" fill="#000000">cmath</text>
</g>
<!-- Node3&#45;&gt;Node11 -->
<g id="edge16" class="edge">
<title>Node3&#45;&gt;Node11</title>
<path fill="none" stroke="#191970" d="M517.9191,-112.4509C511.007,-94.0186 495.7095,-53.2254 486.6411,-29.043"/>
<polygon fill="#191970" stroke="#191970" points="489.8603,-27.6592 483.0718,-19.5249 483.306,-30.1171 489.8603,-27.6592"/>
</g>
<!-- Node12 -->
<g id="node13" class="node">
<title>Node12</title>
<g id="a_node13"><a xlink:href="_model_factory_8h.html" target="_top" xlink:title="ModelFactory.h">
<polygon fill="#ffffff" stroke="#000000" points="514.5,-56.5 514.5,-75.5 598.5,-75.5 598.5,-56.5 514.5,-56.5"/>
<text text-anchor="middle" x="556.5" y="-63.5" font-family="Helvetica,sans-Serif" font-size="10.00" fill="#000000">ModelFactory.h</text>
</a>
</g>
</g>
<!-- Node3&#45;&gt;Node12 -->
<g id="edge12" class="edge">
<title>Node3&#45;&gt;Node12</title>
<path fill="none" stroke="#191970" d="M527.5965,-112.2455C532.4145,-104.5367 539.2751,-93.5598 545.1032,-84.2348"/>
<polygon fill="#191970" stroke="#191970" points="548.1413,-85.9777 550.4733,-75.6427 542.2053,-82.2677 548.1413,-85.9777"/>
</g>
<!-- Node13 -->
<g id="node14" class="node">
<title>Node13</title>
<polygon fill="#ffffff" stroke="#bfbfbf" points="564.5,-.5 564.5,-19.5 618.5,-19.5 618.5,-.5 564.5,-.5"/>
<text text-anchor="middle" x="591.5" y="-7.5" font-family="Helvetica,sans-Serif" font-size="10.00" fill="#000000">iostream</text>
</g>
<!-- Node3&#45;&gt;Node13 -->
<g id="edge17" class="edge">
<title>Node3&#45;&gt;Node13</title>
<path fill="none" stroke="#191970" d="M555.7072,-113.1033C574.5239,-106.2706 596.2734,-94.7366 607.5,-76 616.1799,-61.5137 610.138,-42.5765 603.1311,-28.704"/>
<polygon fill="#191970" stroke="#191970" points="605.993,-26.6509 598.055,-19.6338 599.8845,-30.0695 605.993,-26.6509"/>
</g>
<!-- Node14 -->
<g id="node15" class="node">
<title>Node14</title>
<polygon fill="#ffffff" stroke="#bfbfbf" points="654.5,-56.5 654.5,-75.5 706.5,-75.5 706.5,-56.5 654.5,-56.5"/>
<text text-anchor="middle" x="680.5" y="-63.5" font-family="Helvetica,sans-Serif" font-size="10.00" fill="#000000">assert.h</text>
</g>
<!-- Node3&#45;&gt;Node14 -->
<g id="edge15" class="edge">
<title>Node3&#45;&gt;Node14</title>
<path fill="none" stroke="#191970" d="M548.8331,-112.3733C575.2817,-103.058 615.5223,-88.8852 644.5542,-78.6602"/>
<polygon fill="#191970" stroke="#191970" points="646.0453,-81.8458 654.3147,-75.2225 643.7199,-75.2433 646.0453,-81.8458"/>
</g>
<!-- Node15 -->
<g id="node16" class="node">
<title>Node15</title>
<polygon fill="#ffffff" stroke="#bfbfbf" points="725,-56.5 725,-75.5 776,-75.5 776,-56.5 725,-56.5"/>
<text text-anchor="middle" x="750.5" y="-63.5" font-family="Helvetica,sans-Serif" font-size="10.00" fill="#000000">valarray</text>
</g>
<!-- Node3&#45;&gt;Node15 -->
<g id="edge18" class="edge">
<title>Node3&#45;&gt;Node15</title>
<path fill="none" stroke="#191970" d="M555.6095,-114.4061C592.4749,-106.09 653.1758,-92.0836 714.9949,-76.0441"/>
<polygon fill="#191970" stroke="#191970" points="716.1307,-79.365 724.9226,-73.453 714.3628,-72.5919 716.1307,-79.365"/>
</g>
<!-- Node5 -->
<g id="node6" class="node">
<title>Node5</title>
<polygon fill="#ffffff" stroke="#bfbfbf" points="0,-.5 0,-19.5 35,-19.5 35,-.5 0,-.5"/>
<text text-anchor="middle" x="17.5" y="-7.5" font-family="Helvetica,sans-Serif" font-size="10.00" fill="#000000">map</text>
</g>
<!-- Node4&#45;&gt;Node5 -->
<g id="edge5" class="edge">
<title>Node4&#45;&gt;Node5</title>
<path fill="none" stroke="#191970" d="M157.8987,-56.4504C130.0252,-48.1422 88.6586,-35.4743 44.7647,-20.3087"/>
<polygon fill="#191970" stroke="#191970" points="45.6608,-16.9147 35.066,-16.9308 43.3584,-23.5252 45.6608,-16.9147"/>
</g>
<!-- Node6 -->
<g id="node7" class="node">
<title>Node6</title>
<polygon fill="#ffffff" stroke="#bfbfbf" points="53,-.5 53,-19.5 112,-19.5 112,-.5 53,-.5"/>
<text text-anchor="middle" x="82.5" y="-7.5" font-family="Helvetica,sans-Serif" font-size="10.00" fill="#000000">stdexcept</text>
</g>
<!-- Node4&#45;&gt;Node6 -->
<g id="edge6" class="edge">
<title>Node4&#45;&gt;Node6</title>
<path fill="none" stroke="#191970" d="M171.6878,-56.2455C154.6527,-47.4125 129.3425,-34.2887 110.0319,-24.2758"/>
<polygon fill="#191970" stroke="#191970" points="111.5853,-21.1388 101.0966,-19.6427 108.363,-27.353 111.5853,-21.1388"/>
</g>
<!-- Node7 -->
<g id="node8" class="node">
<title>Node7</title>
<polygon fill="#ffffff" stroke="#bfbfbf" points="130,-.5 130,-19.5 171,-19.5 171,-.5 130,-.5"/>
<text text-anchor="middle" x="150.5" y="-7.5" font-family="Helvetica,sans-Serif" font-size="10.00" fill="#000000">string</text>
</g>
<!-- Node4&#45;&gt;Node7 -->
<g id="edge7" class="edge">
<title>Node4&#45;&gt;Node7</title>
<path fill="none" stroke="#191970" d="M183.5325,-56.2455C177.9689,-48.4564 170.022,-37.3308 163.3171,-27.9439"/>
<polygon fill="#191970" stroke="#191970" points="166.0481,-25.7457 157.3876,-19.6427 160.352,-29.8144 166.0481,-25.7457"/>
</g>
<!-- Node4&#45;&gt;Node8 -->
<g id="edge8" class="edge">
<title>Node4&#45;&gt;Node8</title>
<path fill="none" stroke="#191970" d="M219.2083,-56.3733C246.8577,-47.1016 288.8576,-33.0178 319.3166,-22.804"/>
<polygon fill="#191970" stroke="#191970" points="320.7979,-25.9989 329.1663,-19.5011 318.5724,-19.3621 320.7979,-25.9989"/>
</g>
<!-- Node9 -->
<g id="node10" class="node">
<title>Node9</title>
<polygon fill="#ffffff" stroke="#bfbfbf" points="189,-.5 189,-19.5 272,-19.5 272,-.5 189,-.5"/>
<text text-anchor="middle" x="230.5" y="-7.5" font-family="Helvetica,sans-Serif" font-size="10.00" fill="#000000">xtensor/xio.hpp</text>
</g>
<!-- Node4&#45;&gt;Node9 -->
<g id="edge9" class="edge">
<title>Node4&#45;&gt;Node9</title>
<path fill="none" stroke="#191970" d="M197.4675,-56.2455C203.0311,-48.4564 210.978,-37.3308 217.6829,-27.9439"/>
<polygon fill="#191970" stroke="#191970" points="220.648,-29.8144 223.6124,-19.6427 214.9519,-25.7457 220.648,-29.8144"/>
</g>
<!-- Node10&#45;&gt;Node11 -->
<g id="edge11" class="edge">
<title>Node10&#45;&gt;Node11</title>
<path fill="none" stroke="#191970" d="M429.1254,-56.2455C438.0473,-48.0549 450.988,-36.1749 461.5192,-26.5069"/>
<polygon fill="#191970" stroke="#191970" points="463.9968,-28.9837 468.9964,-19.6427 459.2629,-23.8271 463.9968,-28.9837"/>
</g>
<!-- Node12&#45;&gt;Node13 -->
<g id="edge13" class="edge">
<title>Node12&#45;&gt;Node13</title>
<path fill="none" stroke="#191970" d="M562.5965,-56.2455C567.4145,-48.5367 574.2751,-37.5598 580.1032,-28.2348"/>
<polygon fill="#191970" stroke="#191970" points="583.1413,-29.9777 585.4733,-19.6427 577.2053,-26.2677 583.1413,-29.9777"/>
</g>
</g>
</svg>
