<?xml version="1.0" encoding="UTF-8" standalone="no"?>
<!DOCTYPE svg PUBLIC "-//W3C//DTD SVG 1.1//EN"
 "http://www.w3.org/Graphics/SVG/1.1/DTD/svg11.dtd">
<!-- Generated by graphviz version 2.40.1 (20161225.0304)
 -->
<!-- Title: SW2D.cpp Pages: 1 -->
<svg width="709pt" height="196pt"
 viewBox="0.00 0.00 708.50 196.00" xmlns="http://www.w3.org/2000/svg" xmlns:xlink="http://www.w3.org/1999/xlink">
<g id="graph0" class="graph" transform="scale(1 1) rotate(0) translate(4 192)">
<title>SW2D.cpp</title>
<polygon fill="#ffffff" stroke="transparent" points="-4,4 -4,-192 704.5,-192 704.5,4 -4,4"/>
<!-- Node0 -->
<g id="node1" class="node">
<title>Node0</title>
<polygon fill="#bfbfbf" stroke="#000000" points="142.5,-168.5 142.5,-187.5 207.5,-187.5 207.5,-168.5 142.5,-168.5"/>
<text text-anchor="middle" x="175" y="-175.5" font-family="Helvetica,sans-Serif" font-size="10.00" fill="#000000">SW2D.cpp</text>
</g>
<!-- Node1 -->
<g id="node2" class="node">
<title>Node1</title>
<polygon fill="#ffffff" stroke="#bfbfbf" points="0,-112.5 0,-131.5 106,-131.5 106,-112.5 0,-112.5"/>
<text text-anchor="middle" x="53" y="-119.5" font-family="Helvetica,sans-Serif" font-size="10.00" fill="#000000">pybind11/pybind11.h</text>
</g>
<!-- Node0&#45;&gt;Node1 -->
<g id="edge1" class="edge">
<title>Node0&#45;&gt;Node1</title>
<path fill="none" stroke="#191970" d="M154.0275,-168.3733C134.4433,-159.3838 105.0039,-145.8706 82.949,-135.7471"/>
<polygon fill="#191970" stroke="#191970" points="84.2473,-132.4919 73.6989,-131.5011 81.3271,-138.8538 84.2473,-132.4919"/>
</g>
<!-- Node2 -->
<g id="node3" class="node">
<title>Node2</title>
<polygon fill="#ffffff" stroke="#bfbfbf" points="124.5,-112.5 124.5,-131.5 225.5,-131.5 225.5,-112.5 124.5,-112.5"/>
<text text-anchor="middle" x="175" y="-119.5" font-family="Helvetica,sans-Serif" font-size="10.00" fill="#000000">pybind11/stl_bind.h</text>
</g>
<!-- Node0&#45;&gt;Node2 -->
<g id="edge2" class="edge">
<title>Node0&#45;&gt;Node2</title>
<path fill="none" stroke="#191970" d="M175,-168.2455C175,-160.9382 175,-150.6944 175,-141.7046"/>
<polygon fill="#191970" stroke="#191970" points="178.5001,-141.6426 175,-131.6427 171.5001,-141.6427 178.5001,-141.6426"/>
</g>
<!-- Node3 -->
<g id="node4" class="node">
<title>Node3</title>
<g id="a_node4"><a xlink:href="_s_w2_d_8h.html" target="_top" xlink:title="SW2D.h">
<polygon fill="#ffffff" stroke="#000000" points="244,-112.5 244,-131.5 298,-131.5 298,-112.5 244,-112.5"/>
<text text-anchor="middle" x="271" y="-119.5" font-family="Helvetica,sans-Serif" font-size="10.00" fill="#000000">SW2D.h</text>
</a>
</g>
</g>
<!-- Node0&#45;&gt;Node3 -->
<g id="edge3" class="edge">
<title>Node0&#45;&gt;Node3</title>
<path fill="none" stroke="#191970" d="M191.7219,-168.2455C206.5889,-159.5731 228.5466,-146.7645 245.5858,-136.825"/>
<polygon fill="#191970" stroke="#191970" points="247.5955,-139.7047 254.4697,-131.6427 244.0683,-133.6582 247.5955,-139.7047"/>
</g>
<!-- Node4 -->
<g id="node5" class="node">
<title>Node4</title>
<polygon fill="#ffffff" stroke="#bfbfbf" points="112,-.5 112,-19.5 156,-19.5 156,-.5 112,-.5"/>
<text text-anchor="middle" x="134" y="-7.5" font-family="Helvetica,sans-Serif" font-size="10.00" fill="#000000">cmath</text>
</g>
<!-- Node3&#45;&gt;Node4 -->
<g id="edge4" class="edge">
<title>Node3&#45;&gt;Node4</title>
<path fill="none" stroke="#191970" d="M243.9778,-114.7175C201.3289,-103.0981 122.8203,-81.1475 119,-76 108.7583,-62.2001 115.1141,-42.6272 122.4461,-28.3812"/>
<polygon fill="#191970" stroke="#191970" points="125.5914,-29.9302 127.486,-19.5061 119.5044,-26.4735 125.5914,-29.9302"/>
</g>
<!-- Node5 -->
<g id="node6" class="node">
<title>Node5</title>
<polygon fill="#ffffff" stroke="#bfbfbf" points="203,-.5 203,-19.5 257,-19.5 257,-.5 203,-.5"/>
<text text-anchor="middle" x="230" y="-7.5" font-family="Helvetica,sans-Serif" font-size="10.00" fill="#000000">iostream</text>
</g>
<!-- Node3&#45;&gt;Node5 -->
<g id="edge5" class="edge">
<title>Node3&#45;&gt;Node5</title>
<path fill="none" stroke="#191970" d="M267.5044,-112.4509C260.7568,-94.0186 245.8236,-53.2254 236.9711,-29.043"/>
<polygon fill="#191970" stroke="#191970" points="240.2112,-27.7123 233.4868,-19.5249 233.6378,-30.1187 240.2112,-27.7123"/>
</g>
<!-- Node6 -->
<g id="node7" class="node">
<title>Node6</title>
<g id="a_node7"><a xlink:href="_comp_kernel_8h.html" target="_top" xlink:title="CompKernel.h">
<polygon fill="#ffffff" stroke="#000000" points="128.5,-56.5 128.5,-75.5 207.5,-75.5 207.5,-56.5 128.5,-56.5"/>
<text text-anchor="middle" x="168" y="-63.5" font-family="Helvetica,sans-Serif" font-size="10.00" fill="#000000">CompKernel.h</text>
</a>
</g>
</g>
<!-- Node3&#45;&gt;Node6 -->
<g id="edge6" class="edge">
<title>Node3&#45;&gt;Node6</title>
<path fill="none" stroke="#191970" d="M253.0588,-112.2455C236.96,-103.4928 213.1121,-90.527 194.7609,-80.5496"/>
<polygon fill="#191970" stroke="#191970" points="196.1929,-77.3444 185.7356,-75.6427 192.8493,-83.4942 196.1929,-77.3444"/>
</g>
<!-- Node7 -->
<g id="node8" class="node">
<title>Node7</title>
<g id="a_node8"><a xlink:href="_model_factory_8h.html" target="_top" xlink:title="ModelFactory.h">
<polygon fill="#ffffff" stroke="#000000" points="264,-56.5 264,-75.5 348,-75.5 348,-56.5 264,-56.5"/>
<text text-anchor="middle" x="306" y="-63.5" font-family="Helvetica,sans-Serif" font-size="10.00" fill="#000000">ModelFactory.h</text>
</a>
</g>
</g>
<!-- Node3&#45;&gt;Node7 -->
<g id="edge8" class="edge">
<title>Node3&#45;&gt;Node7</title>
<path fill="none" stroke="#191970" d="M277.0965,-112.2455C281.9145,-104.5367 288.7751,-93.5598 294.6032,-84.2348"/>
<polygon fill="#191970" stroke="#191970" points="297.6413,-85.9777 299.9733,-75.6427 291.7053,-82.2677 297.6413,-85.9777"/>
</g>
<!-- Node8 -->
<g id="node9" class="node">
<title>Node8</title>
<g id="a_node9"><a xlink:href="_arguments_dict_8h.html" target="_top" xlink:title="ArgumentsDict.h">
<polygon fill="#ffffff" stroke="#000000" points="376,-56.5 376,-75.5 466,-75.5 466,-56.5 376,-56.5"/>
<text text-anchor="middle" x="421" y="-63.5" font-family="Helvetica,sans-Serif" font-size="10.00" fill="#000000">ArgumentsDict.h</text>
</a>
</g>
</g>
<!-- Node3&#45;&gt;Node8 -->
<g id="edge10" class="edge">
<title>Node3&#45;&gt;Node8</title>
<path fill="none" stroke="#191970" d="M296.7859,-112.3733C321.4047,-103.1822 358.69,-89.2624 385.9875,-79.0713"/>
<polygon fill="#191970" stroke="#191970" points="387.4063,-82.2777 395.5506,-75.5011 384.958,-75.7198 387.4063,-82.2777"/>
</g>
<!-- Node12 -->
<g id="node13" class="node">
<title>Node12</title>
<polygon fill="#ffffff" stroke="#bfbfbf" points="565.5,-.5 565.5,-19.5 700.5,-19.5 700.5,-.5 565.5,-.5"/>
<text text-anchor="middle" x="633" y="-7.5" font-family="Helvetica,sans-Serif" font-size="10.00" fill="#000000">xtensor&#45;python/pyarray.hpp</text>
</g>
<!-- Node3&#45;&gt;Node12 -->
<g id="edge16" class="edge">
<title>Node3&#45;&gt;Node12</title>
<path fill="none" stroke="#191970" d="M298.1301,-117.4367C337.5979,-110.4503 412.9122,-95.8019 475,-76 521.0011,-61.3287 572.2318,-38.7065 603.5388,-24.1282"/>
<polygon fill="#191970" stroke="#191970" points="605.4081,-27.1172 612.9715,-19.6979 602.4322,-20.7812 605.4081,-27.1172"/>
</g>
<!-- Node6&#45;&gt;Node4 -->
<g id="edge7" class="edge">
<title>Node6&#45;&gt;Node4</title>
<path fill="none" stroke="#191970" d="M162.0777,-56.2455C157.3973,-48.5367 150.7327,-37.5598 145.0711,-28.2348"/>
<polygon fill="#191970" stroke="#191970" points="148.0361,-26.3741 139.8545,-19.6427 142.0525,-30.007 148.0361,-26.3741"/>
</g>
<!-- Node7&#45;&gt;Node5 -->
<g id="edge9" class="edge">
<title>Node7&#45;&gt;Node5</title>
<path fill="none" stroke="#191970" d="M292.7618,-56.2455C281.319,-47.814 264.5704,-35.4729 251.2525,-25.6598"/>
<polygon fill="#191970" stroke="#191970" points="253.2133,-22.757 243.0865,-19.6427 249.0609,-28.3924 253.2133,-22.757"/>
</g>
<!-- Node9 -->
<g id="node10" class="node">
<title>Node9</title>
<polygon fill="#ffffff" stroke="#bfbfbf" points="275.5,-.5 275.5,-19.5 310.5,-19.5 310.5,-.5 275.5,-.5"/>
<text text-anchor="middle" x="293" y="-7.5" font-family="Helvetica,sans-Serif" font-size="10.00" fill="#000000">map</text>
</g>
<!-- Node8&#45;&gt;Node9 -->
<g id="edge11" class="edge">
<title>Node8&#45;&gt;Node9</title>
<path fill="none" stroke="#191970" d="M398.996,-56.3733C377.1057,-46.7962 343.4796,-32.0848 319.9889,-21.8077"/>
<polygon fill="#191970" stroke="#191970" points="321.1703,-18.5042 310.6058,-17.7026 318.3645,-24.9174 321.1703,-18.5042"/>
</g>
<!-- Node10 -->
<g id="node11" class="node">
<title>Node10</title>
<polygon fill="#ffffff" stroke="#bfbfbf" points="328.5,-.5 328.5,-19.5 387.5,-19.5 387.5,-.5 328.5,-.5"/>
<text text-anchor="middle" x="358" y="-7.5" font-family="Helvetica,sans-Serif" font-size="10.00" fill="#000000">stdexcept</text>
</g>
<!-- Node8&#45;&gt;Node10 -->
<g id="edge12" class="edge">
<title>Node8&#45;&gt;Node10</title>
<path fill="none" stroke="#191970" d="M410.0262,-56.2455C400.8118,-48.0549 387.4468,-36.1749 376.5703,-26.5069"/>
<polygon fill="#191970" stroke="#191970" points="378.6474,-23.6704 368.848,-19.6427 373.9968,-28.9023 378.6474,-23.6704"/>
</g>
<!-- Node11 -->
<g id="node12" class="node">
<title>Node11</title>
<polygon fill="#ffffff" stroke="#bfbfbf" points="405.5,-.5 405.5,-19.5 446.5,-19.5 446.5,-.5 405.5,-.5"/>
<text text-anchor="middle" x="426" y="-7.5" font-family="Helvetica,sans-Serif" font-size="10.00" fill="#000000">string</text>
</g>
<!-- Node8&#45;&gt;Node11 -->
<g id="edge13" class="edge">
<title>Node8&#45;&gt;Node11</title>
<path fill="none" stroke="#191970" d="M421.8709,-56.2455C422.5234,-48.9382 423.438,-38.6944 424.2407,-29.7046"/>
<polygon fill="#191970" stroke="#191970" points="427.7358,-29.9143 425.139,-19.6427 420.7635,-29.2918 427.7358,-29.9143"/>
</g>
<!-- Node8&#45;&gt;Node12 -->
<g id="edge14" class="edge">
<title>Node8&#45;&gt;Node12</title>
<path fill="none" stroke="#191970" d="M457.4441,-56.3733C493.3069,-46.9001 548.1878,-32.4032 587.0282,-22.1435"/>
<polygon fill="#191970" stroke="#191970" points="588.257,-25.439 597.0315,-19.5011 586.4692,-18.6712 588.257,-25.439"/>
</g>
<!-- Node13 -->
<g id="node14" class="node">
<title>Node13</title>
<polygon fill="#ffffff" stroke="#bfbfbf" points="464.5,-.5 464.5,-19.5 547.5,-19.5 547.5,-.5 464.5,-.5"/>
<text text-anchor="middle" x="506" y="-7.5" font-family="Helvetica,sans-Serif" font-size="10.00" fill="#000000">xtensor/xio.hpp</text>
</g>
<!-- Node8&#45;&gt;Node13 -->
<g id="edge15" class="edge">
<title>Node8&#45;&gt;Node13</title>
<path fill="none" stroke="#191970" d="M435.8059,-56.2455C448.7256,-47.7337 467.6931,-35.2375 482.6552,-25.3801"/>
<polygon fill="#191970" stroke="#191970" points="484.9387,-28.067 491.3638,-19.6427 481.0876,-22.2216 484.9387,-28.067"/>
</g>
</g>
</svg>
