<?xml version="1.0" encoding="UTF-8" standalone="no"?>
<!DOCTYPE svg PUBLIC "-//W3C//DTD SVG 1.1//EN"
 "http://www.w3.org/Graphics/SVG/1.1/DTD/svg11.dtd">
<!-- Generated by graphviz version 2.43.0 (0)
 -->
<!-- Title: SW2DCV.cpp Pages: 1 -->
<svg width="837pt" height="196pt"
 viewBox="0.00 0.00 836.50 196.00" xmlns="http://www.w3.org/2000/svg" xmlns:xlink="http://www.w3.org/1999/xlink">
<g id="graph0" class="graph" transform="scale(1 1) rotate(0) translate(4 192)">
<title>SW2DCV.cpp</title>
<polygon fill="white" stroke="transparent" points="-4,4 -4,-192 832.5,-192 832.5,4 -4,4"/>
<!-- Node1 -->
<g id="node1" class="node">
<title>Node1</title>
<g id="a_node1"><a xlink:title=" ">
<polygon fill="#bfbfbf" stroke="black" points="412,-168.5 412,-187.5 490,-187.5 490,-168.5 412,-168.5"/>
<text text-anchor="middle" x="451" y="-175.5" font-family="Helvetica,sans-Serif" font-size="10.00">SW2DCV.cpp</text>
</a>
</g>
</g>
<!-- Node2 -->
<g id="node2" class="node">
<title>Node2</title>
<g id="a_node2"><a xlink:title=" ">
<polygon fill="white" stroke="#bfbfbf" points="257.5,-112.5 257.5,-131.5 376.5,-131.5 376.5,-112.5 257.5,-112.5"/>
<text text-anchor="middle" x="317" y="-119.5" font-family="Helvetica,sans-Serif" font-size="10.00">pybind11/pybind11.h</text>
</a>
</g>
</g>
<!-- Node1&#45;&gt;Node2 -->
<g id="edge1" class="edge">
<title>Node1&#45;&gt;Node2</title>
<path fill="none" stroke="midnightblue" d="M429.77,-168.44C407.62,-159.52 372.68,-145.44 347.56,-135.32"/>
<polygon fill="midnightblue" stroke="midnightblue" points="348.72,-132.01 338.13,-131.52 346.1,-138.5 348.72,-132.01"/>
</g>
<!-- Node3 -->
<g id="node3" class="node">
<title>Node3</title>
<g id="a_node3"><a xlink:title=" ">
<polygon fill="white" stroke="#bfbfbf" points="395,-112.5 395,-131.5 507,-131.5 507,-112.5 395,-112.5"/>
<text text-anchor="middle" x="451" y="-119.5" font-family="Helvetica,sans-Serif" font-size="10.00">pybind11/stl_bind.h</text>
</a>
</g>
</g>
<!-- Node1&#45;&gt;Node3 -->
<g id="edge2" class="edge">
<title>Node1&#45;&gt;Node3</title>
<path fill="none" stroke="midnightblue" d="M451,-168.08C451,-161.01 451,-150.86 451,-141.99"/>
<polygon fill="midnightblue" stroke="midnightblue" points="454.5,-141.75 451,-131.75 447.5,-141.75 454.5,-141.75"/>
</g>
<!-- Node4 -->
<g id="node4" class="node">
<title>Node4</title>
<g id="a_node4"><a xlink:href="_s_w2_d_c_v_8h.html" target="_top" xlink:title=" ">
<polygon fill="white" stroke="black" points="525.5,-112.5 525.5,-131.5 592.5,-131.5 592.5,-112.5 525.5,-112.5"/>
<text text-anchor="middle" x="559" y="-119.5" font-family="Helvetica,sans-Serif" font-size="10.00">SW2DCV.h</text>
</a>
</g>
</g>
<!-- Node1&#45;&gt;Node4 -->
<g id="edge3" class="edge">
<title>Node1&#45;&gt;Node4</title>
<path fill="none" stroke="midnightblue" d="M468.35,-168.32C485.67,-159.66 512.52,-146.24 532.5,-136.25"/>
<polygon fill="midnightblue" stroke="midnightblue" points="534.31,-139.26 541.69,-131.65 531.18,-133 534.31,-139.26"/>
</g>
<!-- Node5 -->
<g id="node5" class="node">
<title>Node5</title>
<g id="a_node5"><a xlink:href="_arguments_dict_8h.html" target="_top" xlink:title=" ">
<polygon fill="white" stroke="black" points="156,-56.5 156,-75.5 254,-75.5 254,-56.5 156,-56.5"/>
<text text-anchor="middle" x="205" y="-63.5" font-family="Helvetica,sans-Serif" font-size="10.00">ArgumentsDict.h</text>
</a>
</g>
</g>
<!-- Node4&#45;&gt;Node5 -->
<g id="edge4" class="edge">
<title>Node4&#45;&gt;Node5</title>
<path fill="none" stroke="midnightblue" d="M525.24,-113.73C522.12,-113.12 519,-112.53 516,-112 428.73,-96.57 326.98,-82.6 264.27,-74.45"/>
<polygon fill="midnightblue" stroke="midnightblue" points="264.54,-70.96 254.17,-73.15 263.64,-77.9 264.54,-70.96"/>
</g>
<!-- Node9 -->
<g id="node9" class="node">
<title>Node9</title>
<g id="a_node9"><a xlink:title=" ">
<polygon fill="white" stroke="#bfbfbf" points="312.5,-0.5 312.5,-19.5 463.5,-19.5 463.5,-0.5 312.5,-0.5"/>
<text text-anchor="middle" x="388" y="-7.5" font-family="Helvetica,sans-Serif" font-size="10.00">xtensor&#45;python/pyarray.hpp</text>
</a>
</g>
</g>
<!-- Node4&#45;&gt;Node9 -->
<g id="edge14" class="edge">
<title>Node4&#45;&gt;Node9</title>
<path fill="none" stroke="midnightblue" d="M525.36,-113.47C481.28,-103.3 408.55,-85.39 400,-76 388.78,-63.68 386.43,-44.43 386.49,-30.07"/>
<polygon fill="midnightblue" stroke="midnightblue" points="390,-29.97 386.94,-19.83 383.01,-29.67 390,-29.97"/>
</g>
<!-- Node11 -->
<g id="node11" class="node">
<title>Node11</title>
<g id="a_node11"><a xlink:href="_comp_kernel_8h.html" target="_top" xlink:title=" ">
<polygon fill="white" stroke="black" points="409.5,-56.5 409.5,-75.5 494.5,-75.5 494.5,-56.5 409.5,-56.5"/>
<text text-anchor="middle" x="452" y="-63.5" font-family="Helvetica,sans-Serif" font-size="10.00">CompKernel.h</text>
</a>
</g>
</g>
<!-- Node4&#45;&gt;Node11 -->
<g id="edge10" class="edge">
<title>Node4&#45;&gt;Node11</title>
<path fill="none" stroke="midnightblue" d="M541.81,-112.32C524.65,-103.66 498.05,-90.24 478.25,-80.25"/>
<polygon fill="midnightblue" stroke="midnightblue" points="479.65,-77.04 469.15,-75.65 476.5,-83.28 479.65,-77.04"/>
</g>
<!-- Node12 -->
<g id="node12" class="node">
<title>Node12</title>
<g id="a_node12"><a xlink:title=" ">
<polygon fill="white" stroke="#bfbfbf" points="493.5,-0.5 493.5,-19.5 540.5,-19.5 540.5,-0.5 493.5,-0.5"/>
<text text-anchor="middle" x="517" y="-7.5" font-family="Helvetica,sans-Serif" font-size="10.00">cmath</text>
</a>
</g>
</g>
<!-- Node4&#45;&gt;Node12 -->
<g id="edge16" class="edge">
<title>Node4&#45;&gt;Node12</title>
<path fill="none" stroke="midnightblue" d="M555.7,-112.37C548.87,-94.46 533.01,-52.92 523.85,-28.95"/>
<polygon fill="midnightblue" stroke="midnightblue" points="527.12,-27.69 520.28,-19.59 520.58,-30.18 527.12,-27.69"/>
</g>
<!-- Node13 -->
<g id="node13" class="node">
<title>Node13</title>
<g id="a_node13"><a xlink:href="_model_factory_8h.html" target="_top" xlink:title=" ">
<polygon fill="white" stroke="black" points="551.5,-56.5 551.5,-75.5 640.5,-75.5 640.5,-56.5 551.5,-56.5"/>
<text text-anchor="middle" x="596" y="-63.5" font-family="Helvetica,sans-Serif" font-size="10.00">ModelFactory.h</text>
</a>
</g>
</g>
<!-- Node4&#45;&gt;Node13 -->
<g id="edge12" class="edge">
<title>Node4&#45;&gt;Node13</title>
<path fill="none" stroke="midnightblue" d="M565.11,-112.08C570.28,-104.53 577.85,-93.49 584.19,-84.23"/>
<polygon fill="midnightblue" stroke="midnightblue" points="587.24,-85.98 590,-75.75 581.46,-82.02 587.24,-85.98"/>
</g>
<!-- Node14 -->
<g id="node14" class="node">
<title>Node14</title>
<g id="a_node14"><a xlink:title=" ">
<polygon fill="white" stroke="#bfbfbf" points="603,-0.5 603,-19.5 663,-19.5 663,-0.5 603,-0.5"/>
<text text-anchor="middle" x="633" y="-7.5" font-family="Helvetica,sans-Serif" font-size="10.00">iostream</text>
</a>
</g>
</g>
<!-- Node4&#45;&gt;Node14 -->
<g id="edge17" class="edge">
<title>Node4&#45;&gt;Node14</title>
<path fill="none" stroke="midnightblue" d="M592.81,-113.75C613.19,-107.45 637.54,-96.06 650,-76 659.01,-61.49 652.15,-42.31 644.63,-28.55"/>
<polygon fill="midnightblue" stroke="midnightblue" points="647.41,-26.39 639.25,-19.63 641.42,-30 647.41,-26.39"/>
</g>
<!-- Node15 -->
<g id="node15" class="node">
<title>Node15</title>
<g id="a_node15"><a xlink:title=" ">
<polygon fill="white" stroke="#bfbfbf" points="697,-56.5 697,-75.5 753,-75.5 753,-56.5 697,-56.5"/>
<text text-anchor="middle" x="725" y="-63.5" font-family="Helvetica,sans-Serif" font-size="10.00">assert.h</text>
</a>
</g>
</g>
<!-- Node4&#45;&gt;Node15 -->
<g id="edge15" class="edge">
<title>Node4&#45;&gt;Node15</title>
<path fill="none" stroke="midnightblue" d="M585.3,-112.44C613.35,-103.32 657.94,-88.81 689.18,-78.65"/>
<polygon fill="midnightblue" stroke="midnightblue" points="690.39,-81.94 698.82,-75.52 688.23,-75.28 690.39,-81.94"/>
</g>
<!-- Node16 -->
<g id="node16" class="node">
<title>Node16</title>
<g id="a_node16"><a xlink:title=" ">
<polygon fill="white" stroke="#bfbfbf" points="771.5,-56.5 771.5,-75.5 828.5,-75.5 828.5,-56.5 771.5,-56.5"/>
<text text-anchor="middle" x="800" y="-63.5" font-family="Helvetica,sans-Serif" font-size="10.00">valarray</text>
</a>
</g>
</g>
<!-- Node4&#45;&gt;Node16 -->
<g id="edge18" class="edge">
<title>Node4&#45;&gt;Node16</title>
<path fill="none" stroke="midnightblue" d="M592.8,-113.66C631.15,-105.31 695.83,-91.11 761.29,-76.14"/>
<polygon fill="midnightblue" stroke="midnightblue" points="762.41,-79.47 771.38,-73.83 760.85,-72.65 762.41,-79.47"/>
</g>
<!-- Node6 -->
<g id="node6" class="node">
<title>Node6</title>
<g id="a_node6"><a xlink:title=" ">
<polygon fill="white" stroke="#bfbfbf" points="0,-0.5 0,-19.5 38,-19.5 38,-0.5 0,-0.5"/>
<text text-anchor="middle" x="19" y="-7.5" font-family="Helvetica,sans-Serif" font-size="10.00">map</text>
</a>
</g>
</g>
<!-- Node5&#45;&gt;Node6 -->
<g id="edge5" class="edge">
<title>Node5&#45;&gt;Node6</title>
<path fill="none" stroke="midnightblue" d="M173.73,-56.43C143.79,-48.15 97.11,-35.04 48.08,-20.26"/>
<polygon fill="midnightblue" stroke="midnightblue" points="48.84,-16.83 38.25,-17.28 46.81,-23.53 48.84,-16.83"/>
</g>
<!-- Node7 -->
<g id="node7" class="node">
<title>Node7</title>
<g id="a_node7"><a xlink:title=" ">
<polygon fill="white" stroke="#bfbfbf" points="56.5,-0.5 56.5,-19.5 121.5,-19.5 121.5,-0.5 56.5,-0.5"/>
<text text-anchor="middle" x="89" y="-7.5" font-family="Helvetica,sans-Serif" font-size="10.00">stdexcept</text>
</a>
</g>
</g>
<!-- Node5&#45;&gt;Node7 -->
<g id="edge6" class="edge">
<title>Node5&#45;&gt;Node7</title>
<path fill="none" stroke="midnightblue" d="M186.62,-56.44C167.78,-47.68 138.27,-33.94 116.62,-23.86"/>
<polygon fill="midnightblue" stroke="midnightblue" points="117.84,-20.56 107.29,-19.52 114.88,-26.91 117.84,-20.56"/>
</g>
<!-- Node8 -->
<g id="node8" class="node">
<title>Node8</title>
<g id="a_node8"><a xlink:title=" ">
<polygon fill="white" stroke="#bfbfbf" points="140,-0.5 140,-19.5 184,-19.5 184,-0.5 140,-0.5"/>
<text text-anchor="middle" x="162" y="-7.5" font-family="Helvetica,sans-Serif" font-size="10.00">string</text>
</a>
</g>
</g>
<!-- Node5&#45;&gt;Node8 -->
<g id="edge7" class="edge">
<title>Node5&#45;&gt;Node8</title>
<path fill="none" stroke="midnightblue" d="M197.9,-56.08C191.76,-48.38 182.73,-37.03 175.26,-27.65"/>
<polygon fill="midnightblue" stroke="midnightblue" points="177.94,-25.39 168.97,-19.75 172.46,-29.75 177.94,-25.39"/>
</g>
<!-- Node5&#45;&gt;Node9 -->
<g id="edge8" class="edge">
<title>Node5&#45;&gt;Node9</title>
<path fill="none" stroke="midnightblue" d="M234,-56.44C265.18,-47.24 314.93,-32.56 349.41,-22.39"/>
<polygon fill="midnightblue" stroke="midnightblue" points="350.54,-25.7 359.14,-19.52 348.56,-18.99 350.54,-25.7"/>
</g>
<!-- Node10 -->
<g id="node10" class="node">
<title>Node10</title>
<g id="a_node10"><a xlink:title=" ">
<polygon fill="white" stroke="#bfbfbf" points="202,-0.5 202,-19.5 294,-19.5 294,-0.5 202,-0.5"/>
<text text-anchor="middle" x="248" y="-7.5" font-family="Helvetica,sans-Serif" font-size="10.00">xtensor/xio.hpp</text>
</a>
</g>
</g>
<!-- Node5&#45;&gt;Node10 -->
<g id="edge9" class="edge">
<title>Node5&#45;&gt;Node10</title>
<path fill="none" stroke="midnightblue" d="M212.1,-56.08C218.24,-48.38 227.27,-37.03 234.74,-27.65"/>
<polygon fill="midnightblue" stroke="midnightblue" points="237.54,-29.75 241.03,-19.75 232.06,-25.39 237.54,-29.75"/>
</g>
<!-- Node11&#45;&gt;Node12 -->
<g id="edge11" class="edge">
<title>Node11&#45;&gt;Node12</title>
<path fill="none" stroke="midnightblue" d="M462.44,-56.32C472.15,-48.26 486.82,-36.08 498.5,-26.37"/>
<polygon fill="midnightblue" stroke="midnightblue" points="500.91,-28.92 506.37,-19.83 496.44,-23.53 500.91,-28.92"/>
</g>
<!-- Node13&#45;&gt;Node14 -->
<g id="edge13" class="edge">
<title>Node13&#45;&gt;Node14</title>
<path fill="none" stroke="midnightblue" d="M602.11,-56.08C607.28,-48.53 614.85,-37.49 621.19,-28.23"/>
<polygon fill="midnightblue" stroke="midnightblue" points="624.24,-29.98 627,-19.75 618.46,-26.02 624.24,-29.98"/>
</g>
</g>
</svg>
