<?xml version="1.0" encoding="UTF-8" standalone="no"?>
<!DOCTYPE svg PUBLIC "-//W3C//DTD SVG 1.1//EN"
 "http://www.w3.org/Graphics/SVG/1.1/DTD/svg11.dtd">
<!-- Generated by graphviz version 2.44.1 (20200629.0846)
 -->
<!-- Title: SedClosure.h Pages: 1 -->
<svg width="873pt" height="140pt"
 viewBox="0.00 0.00 873.00 140.00" xmlns="http://www.w3.org/2000/svg" xmlns:xlink="http://www.w3.org/1999/xlink">
<g id="graph0" class="graph" transform="scale(1 1) rotate(0) translate(4 136)">
<title>SedClosure.h</title>
<polygon fill="white" stroke="transparent" points="-4,4 -4,-136 869,-136 869,4 -4,4"/>
<!-- Node1 -->
<g id="node1" class="node">
<title>Node1</title>
<g id="a_node1"><a xlink:title=" ">
<polygon fill="#bfbfbf" stroke="black" points="371,-112.5 371,-131.5 447,-131.5 447,-112.5 371,-112.5"/>
<text text-anchor="middle" x="409" y="-119.5" font-family="Helvetica,sans-Serif" font-size="10.00">SedClosure.h</text>
</a>
</g>
</g>
<!-- Node2 -->
<g id="node2" class="node">
<title>Node2</title>
<g id="a_node2"><a xlink:href="_dissipation_8h.html" target="_top" xlink:title=" ">
<polygon fill="white" stroke="black" points="13,-56.5 13,-75.5 87,-75.5 87,-56.5 13,-56.5"/>
<text text-anchor="middle" x="50" y="-63.5" font-family="Helvetica,sans-Serif" font-size="10.00">Dissipation.h</text>
</a>
</g>
</g>
<!-- Node1&#45;&gt;Node2 -->
<g id="edge1" class="edge">
<title>Node1&#45;&gt;Node2</title>
<path fill="none" stroke="midnightblue" d="M360.47,-114.36C299.72,-105.95 192.54,-90.76 101,-76 96.47,-75.27 91.73,-74.47 87.03,-73.67"/>
<polygon fill="midnightblue" stroke="midnightblue" points="360.15,-117.85 370.53,-115.75 361.1,-110.92 360.15,-117.85"/>
</g>
<!-- Node4 -->
<g id="node4" class="node">
<title>Node4</title>
<g id="a_node4"><a xlink:href="_dissipation2_d_8h.html" target="_top" xlink:title=" ">
<polygon fill="white" stroke="black" points="110,-56.5 110,-75.5 196,-75.5 196,-56.5 110,-56.5"/>
<text text-anchor="middle" x="153" y="-63.5" font-family="Helvetica,sans-Serif" font-size="10.00">Dissipation2D.h</text>
</a>
</g>
</g>
<!-- Node1&#45;&gt;Node4 -->
<g id="edge3" class="edge">
<title>Node1&#45;&gt;Node4</title>
<path fill="none" stroke="midnightblue" d="M361.04,-110.88C312.67,-100.68 238.84,-85.11 193.37,-75.52"/>
<polygon fill="midnightblue" stroke="midnightblue" points="360.44,-114.33 370.95,-112.97 361.89,-107.49 360.44,-114.33"/>
</g>
<!-- Node6 -->
<g id="node6" class="node">
<title>Node6</title>
<g id="a_node6"><a xlink:href="_kappa_8h.html" target="_top" xlink:title=" ">
<polygon fill="white" stroke="black" points="219.5,-56.5 219.5,-75.5 272.5,-75.5 272.5,-56.5 219.5,-56.5"/>
<text text-anchor="middle" x="246" y="-63.5" font-family="Helvetica,sans-Serif" font-size="10.00">Kappa.h</text>
</a>
</g>
</g>
<!-- Node1&#45;&gt;Node6 -->
<g id="edge5" class="edge">
<title>Node1&#45;&gt;Node6</title>
<path fill="none" stroke="midnightblue" d="M373.3,-109.17C342.6,-99 299.08,-84.59 271.71,-75.52"/>
<polygon fill="midnightblue" stroke="midnightblue" points="372.58,-112.62 383.17,-112.44 374.78,-105.98 372.58,-112.62"/>
</g>
<!-- Node8 -->
<g id="node8" class="node">
<title>Node8</title>
<g id="a_node8"><a xlink:href="_kappa2_d_8h.html" target="_top" xlink:title=" ">
<polygon fill="white" stroke="black" points="290.5,-56.5 290.5,-75.5 355.5,-75.5 355.5,-56.5 290.5,-56.5"/>
<text text-anchor="middle" x="323" y="-63.5" font-family="Helvetica,sans-Serif" font-size="10.00">Kappa2D.h</text>
</a>
</g>
</g>
<!-- Node1&#45;&gt;Node8 -->
<g id="edge7" class="edge">
<title>Node1&#45;&gt;Node8</title>
<path fill="none" stroke="midnightblue" d="M386.55,-106.9C370.78,-97 350.19,-84.07 336.78,-75.65"/>
<polygon fill="midnightblue" stroke="midnightblue" points="384.85,-109.97 395.18,-112.32 388.57,-104.04 384.85,-109.97"/>
</g>
<!-- Node10 -->
<g id="node10" class="node">
<title>Node10</title>
<g id="a_node10"><a xlink:href="_r_a_n_s3_p_f_8h.html" target="_top" xlink:title=" ">
<polygon fill="white" stroke="black" points="374,-56.5 374,-75.5 444,-75.5 444,-56.5 374,-56.5"/>
<text text-anchor="middle" x="409" y="-63.5" font-family="Helvetica,sans-Serif" font-size="10.00">RANS3PF.h</text>
</a>
</g>
</g>
<!-- Node1&#45;&gt;Node10 -->
<g id="edge9" class="edge">
<title>Node1&#45;&gt;Node10</title>
<path fill="none" stroke="midnightblue" d="M409,-101.8C409,-92.91 409,-82.78 409,-75.75"/>
<polygon fill="midnightblue" stroke="midnightblue" points="405.5,-102.08 409,-112.08 412.5,-102.08 405.5,-102.08"/>
</g>
<!-- Node11 -->
<g id="node11" class="node">
<title>Node11</title>
<g id="a_node11"><a xlink:href="_r_a_n_s3_p_f2_d_8h.html" target="_top" xlink:title=" ">
<polygon fill="white" stroke="black" points="462,-56.5 462,-75.5 546,-75.5 546,-56.5 462,-56.5"/>
<text text-anchor="middle" x="504" y="-63.5" font-family="Helvetica,sans-Serif" font-size="10.00">RANS3PF2D.h</text>
</a>
</g>
</g>
<!-- Node1&#45;&gt;Node11 -->
<g id="edge10" class="edge">
<title>Node1&#45;&gt;Node11</title>
<path fill="none" stroke="midnightblue" d="M433.32,-107.18C450.8,-97.24 473.83,-84.15 488.77,-75.65"/>
<polygon fill="midnightblue" stroke="midnightblue" points="431.23,-104.34 424.26,-112.32 434.69,-110.43 431.23,-104.34"/>
</g>
<!-- Node12 -->
<g id="node12" class="node">
<title>Node12</title>
<g id="a_node12"><a xlink:href="_r_a_n_s3_p_sed_8h.html" target="_top" xlink:title=" ">
<polygon fill="white" stroke="black" points="564.5,-56.5 564.5,-75.5 647.5,-75.5 647.5,-56.5 564.5,-56.5"/>
<text text-anchor="middle" x="606" y="-63.5" font-family="Helvetica,sans-Serif" font-size="10.00">RANS3PSed.h</text>
</a>
</g>
</g>
<!-- Node1&#45;&gt;Node12 -->
<g id="edge11" class="edge">
<title>Node1&#45;&gt;Node12</title>
<path fill="none" stroke="midnightblue" d="M450.23,-109.7C487.41,-99.51 541.27,-84.74 574.93,-75.52"/>
<polygon fill="midnightblue" stroke="midnightblue" points="448.93,-106.42 440.22,-112.44 450.78,-113.18 448.93,-106.42"/>
</g>
<!-- Node14 -->
<g id="node14" class="node">
<title>Node14</title>
<g id="a_node14"><a xlink:href="_r_a_n_s3_p_sed2_d_8h.html" target="_top" xlink:title=" ">
<polygon fill="white" stroke="black" points="665.5,-56.5 665.5,-75.5 760.5,-75.5 760.5,-56.5 665.5,-56.5"/>
<text text-anchor="middle" x="713" y="-63.5" font-family="Helvetica,sans-Serif" font-size="10.00">RANS3PSed2D.h</text>
</a>
</g>
</g>
<!-- Node1&#45;&gt;Node14 -->
<g id="edge13" class="edge">
<title>Node1&#45;&gt;Node14</title>
<path fill="none" stroke="midnightblue" d="M457.05,-112.47C514.1,-102.33 608.66,-85.53 665.48,-75.44"/>
<polygon fill="midnightblue" stroke="midnightblue" points="456.43,-109.02 447.19,-114.22 457.65,-115.91 456.43,-109.02"/>
</g>
<!-- Node15 -->
<g id="node15" class="node">
<title>Node15</title>
<g id="a_node15"><a xlink:href="_sed_closure_8cpp.html" target="_top" xlink:title=" ">
<polygon fill="white" stroke="black" points="779,-56.5 779,-75.5 865,-75.5 865,-56.5 779,-56.5"/>
<text text-anchor="middle" x="822" y="-63.5" font-family="Helvetica,sans-Serif" font-size="10.00">SedClosure.cpp</text>
</a>
</g>
</g>
<!-- Node1&#45;&gt;Node15 -->
<g id="edge15" class="edge">
<title>Node1&#45;&gt;Node15</title>
<path fill="none" stroke="midnightblue" d="M457.19,-115.73C526.5,-107.98 658.29,-92.62 770,-76 772.9,-75.57 775.89,-75.1 778.9,-74.62"/>
<polygon fill="midnightblue" stroke="midnightblue" points="456.57,-112.27 447.02,-116.86 457.35,-119.23 456.57,-112.27"/>
</g>
<!-- Node3 -->
<g id="node3" class="node">
<title>Node3</title>
<g id="a_node3"><a xlink:href="_dissipation_8cpp.html" target="_top" xlink:title=" ">
<polygon fill="white" stroke="black" points="0,-0.5 0,-19.5 84,-19.5 84,-0.5 0,-0.5"/>
<text text-anchor="middle" x="42" y="-7.5" font-family="Helvetica,sans-Serif" font-size="10.00">Dissipation.cpp</text>
</a>
</g>
</g>
<!-- Node2&#45;&gt;Node3 -->
<g id="edge2" class="edge">
<title>Node2&#45;&gt;Node3</title>
<path fill="none" stroke="midnightblue" d="M47.2,-46.1C45.87,-37.14 44.35,-26.86 43.3,-19.75"/>
<polygon fill="midnightblue" stroke="midnightblue" points="43.75,-46.7 48.68,-56.08 50.68,-45.68 43.75,-46.7"/>
</g>
<!-- Node5 -->
<g id="node5" class="node">
<title>Node5</title>
<g id="a_node5"><a xlink:href="_dissipation2_d_8cpp.html" target="_top" xlink:title=" ">
<polygon fill="white" stroke="black" points="102.5,-0.5 102.5,-19.5 199.5,-19.5 199.5,-0.5 102.5,-0.5"/>
<text text-anchor="middle" x="151" y="-7.5" font-family="Helvetica,sans-Serif" font-size="10.00">Dissipation2D.cpp</text>
</a>
</g>
</g>
<!-- Node4&#45;&gt;Node5 -->
<g id="edge4" class="edge">
<title>Node4&#45;&gt;Node5</title>
<path fill="none" stroke="midnightblue" d="M152.29,-45.8C151.96,-36.91 151.58,-26.78 151.32,-19.75"/>
<polygon fill="midnightblue" stroke="midnightblue" points="148.8,-46.22 152.67,-56.08 155.8,-45.96 148.8,-46.22"/>
</g>
<!-- Node7 -->
<g id="node7" class="node">
<title>Node7</title>
<g id="a_node7"><a xlink:href="_kappa_8cpp.html" target="_top" xlink:title=" ">
<polygon fill="white" stroke="black" points="217.5,-0.5 217.5,-19.5 280.5,-19.5 280.5,-0.5 217.5,-0.5"/>
<text text-anchor="middle" x="249" y="-7.5" font-family="Helvetica,sans-Serif" font-size="10.00">Kappa.cpp</text>
</a>
</g>
</g>
<!-- Node6&#45;&gt;Node7 -->
<g id="edge6" class="edge">
<title>Node6&#45;&gt;Node7</title>
<path fill="none" stroke="midnightblue" d="M247.07,-45.8C247.56,-36.91 248.12,-26.78 248.51,-19.75"/>
<polygon fill="midnightblue" stroke="midnightblue" points="243.56,-45.9 246.5,-56.08 250.54,-46.29 243.56,-45.9"/>
</g>
<!-- Node9 -->
<g id="node9" class="node">
<title>Node9</title>
<g id="a_node9"><a xlink:href="_kappa2_d_8cpp.html" target="_top" xlink:title=" ">
<polygon fill="white" stroke="black" points="299,-0.5 299,-19.5 375,-19.5 375,-0.5 299,-0.5"/>
<text text-anchor="middle" x="337" y="-7.5" font-family="Helvetica,sans-Serif" font-size="10.00">Kappa2D.cpp</text>
</a>
</g>
</g>
<!-- Node8&#45;&gt;Node9 -->
<g id="edge8" class="edge">
<title>Node8&#45;&gt;Node9</title>
<path fill="none" stroke="midnightblue" d="M327.82,-46.4C330.17,-37.36 332.87,-26.94 334.73,-19.75"/>
<polygon fill="midnightblue" stroke="midnightblue" points="324.43,-45.52 325.31,-56.08 331.21,-47.28 324.43,-45.52"/>
</g>
<!-- Node13 -->
<g id="node13" class="node">
<title>Node13</title>
<g id="a_node13"><a xlink:href="_r_a_n_s3_p_sed_8cpp.html" target="_top" xlink:title=" ">
<polygon fill="white" stroke="black" points="612.5,-0.5 612.5,-19.5 705.5,-19.5 705.5,-0.5 612.5,-0.5"/>
<text text-anchor="middle" x="659" y="-7.5" font-family="Helvetica,sans-Serif" font-size="10.00">RANS3PSed.cpp</text>
</a>
</g>
</g>
<!-- Node12&#45;&gt;Node13 -->
<g id="edge12" class="edge">
<title>Node12&#45;&gt;Node13</title>
<path fill="none" stroke="midnightblue" d="M621.98,-48.72C631.32,-39.2 642.75,-27.56 650.41,-19.75"/>
<polygon fill="midnightblue" stroke="midnightblue" points="619.26,-46.49 614.75,-56.08 624.25,-51.4 619.26,-46.49"/>
</g>
<!-- Node14&#45;&gt;Node13 -->
<g id="edge14" class="edge">
<title>Node14&#45;&gt;Node13</title>
<path fill="none" stroke="midnightblue" d="M697,-49C687.43,-39.43 675.64,-27.64 667.75,-19.75"/>
<polygon fill="midnightblue" stroke="midnightblue" points="694.54,-51.49 704.08,-56.08 699.49,-46.54 694.54,-51.49"/>
</g>
</g>
</svg>
