<?xml version="1.0" encoding="UTF-8" standalone="no"?>
<!DOCTYPE svg PUBLIC "-//W3C//DTD SVG 1.1//EN"
 "http://www.w3.org/Graphics/SVG/1.1/DTD/svg11.dtd">
<!-- Generated by graphviz version 2.40.1 (20161225.0304)
 -->
<!-- Title: SedClosure.cpp Pages: 1 -->
<svg width="278pt" height="140pt"
 viewBox="0.00 0.00 277.50 140.00" xmlns="http://www.w3.org/2000/svg" xmlns:xlink="http://www.w3.org/1999/xlink">
<g id="graph0" class="graph" transform="scale(1 1) rotate(0) translate(4 136)">
<title>SedClosure.cpp</title>
<polygon fill="#ffffff" stroke="transparent" points="-4,4 -4,-136 273.5,-136 273.5,4 -4,4"/>
<!-- Node0 -->
<g id="node1" class="node">
<title>Node0</title>
<polygon fill="#bfbfbf" stroke="#000000" points="46,-112.5 46,-131.5 132,-131.5 132,-112.5 46,-112.5"/>
<text text-anchor="middle" x="89" y="-119.5" font-family="Helvetica,sans-Serif" font-size="10.00" fill="#000000">SedClosure.cpp</text>
</g>
<!-- Node1 -->
<g id="node2" class="node">
<title>Node1</title>
<g id="a_node2"><a xlink:href="_sed_closure_8h.html" target="_top" xlink:title="SedClosure.h">
<polygon fill="#ffffff" stroke="#000000" points="51,-56.5 51,-75.5 127,-75.5 127,-56.5 51,-56.5"/>
<text text-anchor="middle" x="89" y="-63.5" font-family="Helvetica,sans-Serif" font-size="10.00" fill="#000000">SedClosure.h</text>
</a>
</g>
</g>
<!-- Node0&#45;&gt;Node1 -->
<g id="edge1" class="edge">
<title>Node0&#45;&gt;Node1</title>
<path fill="none" stroke="#191970" d="M89,-112.2455C89,-104.9382 89,-94.6944 89,-85.7046"/>
<polygon fill="#191970" stroke="#191970" points="92.5001,-85.6426 89,-75.6427 85.5001,-85.6427 92.5001,-85.6426"/>
</g>
<!-- Node2 -->
<g id="node3" class="node">
<title>Node2</title>
<polygon fill="#ffffff" stroke="#bfbfbf" points="0,-.5 0,-19.5 44,-19.5 44,-.5 0,-.5"/>
<text text-anchor="middle" x="22" y="-7.5" font-family="Helvetica,sans-Serif" font-size="10.00" fill="#000000">cmath</text>
</g>
<!-- Node1&#45;&gt;Node2 -->
<g id="edge2" class="edge">
<title>Node1&#45;&gt;Node2</title>
<path fill="none" stroke="#191970" d="M77.3295,-56.2455C67.4339,-47.9746 53.0373,-35.9416 41.4099,-26.2232"/>
<polygon fill="#191970" stroke="#191970" points="43.4542,-23.3703 33.5368,-19.6427 38.965,-28.7413 43.4542,-23.3703"/>
</g>
<!-- Node3 -->
<g id="node4" class="node">
<title>Node3</title>
<polygon fill="#ffffff" stroke="#bfbfbf" points="62,-.5 62,-19.5 116,-19.5 116,-.5 62,-.5"/>
<text text-anchor="middle" x="89" y="-7.5" font-family="Helvetica,sans-Serif" font-size="10.00" fill="#000000">iostream</text>
</g>
<!-- Node1&#45;&gt;Node3 -->
<g id="edge3" class="edge">
<title>Node1&#45;&gt;Node3</title>
<path fill="none" stroke="#191970" d="M89,-56.2455C89,-48.9382 89,-38.6944 89,-29.7046"/>
<polygon fill="#191970" stroke="#191970" points="92.5001,-29.6426 89,-19.6427 85.5001,-29.6427 92.5001,-29.6426"/>
</g>
<!-- Node4 -->
<g id="node5" class="node">
<title>Node4</title>
<polygon fill="#ffffff" stroke="#bfbfbf" points="134.5,-.5 134.5,-19.5 269.5,-19.5 269.5,-.5 134.5,-.5"/>
<text text-anchor="middle" x="202" y="-7.5" font-family="Helvetica,sans-Serif" font-size="10.00" fill="#000000">xtensor&#45;python/pyarray.hpp</text>
</g>
<!-- Node1&#45;&gt;Node4 -->
<g id="edge4" class="edge">
<title>Node1&#45;&gt;Node4</title>
<path fill="none" stroke="#191970" d="M108.4254,-56.3733C126.4021,-47.4644 153.3441,-34.1127 173.709,-24.0203"/>
<polygon fill="#191970" stroke="#191970" points="175.4222,-27.0776 182.8281,-19.5011 172.3139,-20.8055 175.4222,-27.0776"/>
</g>
</g>
</svg>
