<?xml version="1.0" encoding="UTF-8" standalone="no"?>
<!DOCTYPE svg PUBLIC "-//W3C//DTD SVG 1.1//EN"
 "http://www.w3.org/Graphics/SVG/1.1/DTD/svg11.dtd">
<!-- Generated by graphviz version 2.50.0 (20211204.2007)
 -->
<!-- Title: SedClosure.h Pages: 1 -->
<svg width="894pt" height="140pt"
 viewBox="0.00 0.00 894.00 140.00" xmlns="http://www.w3.org/2000/svg" xmlns:xlink="http://www.w3.org/1999/xlink">
<g id="graph0" class="graph" transform="scale(1 1) rotate(0) translate(4 136)">
<title>SedClosure.h</title>
<polygon fill="white" stroke="transparent" points="-4,4 -4,-136 890,-136 890,4 -4,4"/>
<!-- Node1 -->
<g id="node1" class="node">
<title>Node1</title>
<g id="a_node1"><a xlink:title=" ">
<polygon fill="#bfbfbf" stroke="black" points="392,-112.5 392,-131.5 468,-131.5 468,-112.5 392,-112.5"/>
<text text-anchor="middle" x="430" y="-119.5" font-family="Helvetica,sans-Serif" font-size="10.00">SedClosure.h</text>
</a>
</g>
</g>
<!-- Node2 -->
<g id="node2" class="node">
<title>Node2</title>
<g id="a_node2"><a xlink:href="_dissipation_8h.html" target="_top" xlink:title=" ">
<polygon fill="white" stroke="black" points="16,-56.5 16,-75.5 90,-75.5 90,-56.5 16,-56.5"/>
<text text-anchor="middle" x="53" y="-63.5" font-family="Helvetica,sans-Serif" font-size="10.00">Dissipation.h</text>
</a>
</g>
</g>
<!-- Node1&#45;&gt;Node2 -->
<g id="edge1" class="edge">
<title>Node1&#45;&gt;Node2</title>
<path fill="none" stroke="midnightblue" d="M381.64,-114.9C317.91,-106.73 202.37,-91.46 104,-76 99.47,-75.29 94.72,-74.5 90.02,-73.7"/>
<polygon fill="midnightblue" stroke="midnightblue" points="381.43,-118.4 391.79,-116.2 382.31,-111.46 381.43,-118.4"/>
</g>
<!-- Node4 -->
<g id="node4" class="node">
<title>Node4</title>
<g id="a_node4"><a xlink:href="_dissipation2_d_8h.html" target="_top" xlink:title=" ">
<polygon fill="white" stroke="black" points="113,-56.5 113,-75.5 199,-75.5 199,-56.5 113,-56.5"/>
<text text-anchor="middle" x="156" y="-63.5" font-family="Helvetica,sans-Serif" font-size="10.00">Dissipation2D.h</text>
</a>
</g>
</g>
<!-- Node1&#45;&gt;Node4 -->
<g id="edge3" class="edge">
<title>Node1&#45;&gt;Node4</title>
<path fill="none" stroke="midnightblue" d="M381.98,-111.54C330.32,-101.36 248.9,-85.31 199.19,-75.51"/>
<polygon fill="midnightblue" stroke="midnightblue" points="381.41,-114.99 391.9,-113.49 382.77,-108.12 381.41,-114.99"/>
</g>
<!-- Node6 -->
<g id="node6" class="node">
<title>Node6</title>
<g id="a_node6"><a xlink:href="_kappa_8h.html" target="_top" xlink:title=" ">
<polygon fill="white" stroke="black" points="227.5,-56.5 227.5,-75.5 280.5,-75.5 280.5,-56.5 227.5,-56.5"/>
<text text-anchor="middle" x="254" y="-63.5" font-family="Helvetica,sans-Serif" font-size="10.00">Kappa.h</text>
</a>
</g>
</g>
<!-- Node1&#45;&gt;Node6 -->
<g id="edge5" class="edge">
<title>Node1&#45;&gt;Node6</title>
<path fill="none" stroke="midnightblue" d="M392.19,-109.4C358.58,-99.09 310.3,-84.27 280.61,-75.16"/>
<polygon fill="midnightblue" stroke="midnightblue" points="391.53,-112.86 402.11,-112.44 393.58,-106.16 391.53,-112.86"/>
</g>
<!-- Node8 -->
<g id="node8" class="node">
<title>Node8</title>
<g id="a_node8"><a xlink:href="_kappa2_d_8h.html" target="_top" xlink:title=" ">
<polygon fill="white" stroke="black" points="306.5,-56.5 306.5,-75.5 371.5,-75.5 371.5,-56.5 306.5,-56.5"/>
<text text-anchor="middle" x="339" y="-63.5" font-family="Helvetica,sans-Serif" font-size="10.00">Kappa2D.h</text>
</a>
</g>
</g>
<!-- Node1&#45;&gt;Node8 -->
<g id="edge7" class="edge">
<title>Node1&#45;&gt;Node8</title>
<path fill="none" stroke="midnightblue" d="M406.71,-107.18C389.96,-97.24 367.9,-84.15 353.58,-75.65"/>
<polygon fill="midnightblue" stroke="midnightblue" points="404.99,-110.23 415.38,-112.32 408.57,-104.21 404.99,-110.23"/>
</g>
<!-- Node10 -->
<g id="node10" class="node">
<title>Node10</title>
<g id="a_node10"><a xlink:href="_r_a_n_s3_p_f_8h.html" target="_top" xlink:title=" ">
<polygon fill="white" stroke="black" points="395,-56.5 395,-75.5 465,-75.5 465,-56.5 395,-56.5"/>
<text text-anchor="middle" x="430" y="-63.5" font-family="Helvetica,sans-Serif" font-size="10.00">RANS3PF.h</text>
</a>
</g>
</g>
<!-- Node1&#45;&gt;Node10 -->
<g id="edge9" class="edge">
<title>Node1&#45;&gt;Node10</title>
<path fill="none" stroke="midnightblue" d="M430,-101.8C430,-92.91 430,-82.78 430,-75.75"/>
<polygon fill="midnightblue" stroke="midnightblue" points="426.5,-102.08 430,-112.08 433.5,-102.08 426.5,-102.08"/>
</g>
<!-- Node12 -->
<g id="node12" class="node">
<title>Node12</title>
<g id="a_node12"><a xlink:href="_r_a_n_s3_p_f2_d_8h.html" target="_top" xlink:title=" ">
<polygon fill="white" stroke="black" points="483,-56.5 483,-75.5 567,-75.5 567,-56.5 483,-56.5"/>
<text text-anchor="middle" x="525" y="-63.5" font-family="Helvetica,sans-Serif" font-size="10.00">RANS3PF2D.h</text>
</a>
</g>
</g>
<!-- Node1&#45;&gt;Node12 -->
<g id="edge11" class="edge">
<title>Node1&#45;&gt;Node12</title>
<path fill="none" stroke="midnightblue" d="M454.32,-107.18C471.8,-97.24 494.83,-84.15 509.77,-75.65"/>
<polygon fill="midnightblue" stroke="midnightblue" points="452.23,-104.34 445.26,-112.32 455.69,-110.43 452.23,-104.34"/>
</g>
<!-- Node14 -->
<g id="node14" class="node">
<title>Node14</title>
<g id="a_node14"><a xlink:href="_r_a_n_s3_p_sed_8h.html" target="_top" xlink:title=" ">
<polygon fill="white" stroke="black" points="585.5,-56.5 585.5,-75.5 668.5,-75.5 668.5,-56.5 585.5,-56.5"/>
<text text-anchor="middle" x="627" y="-63.5" font-family="Helvetica,sans-Serif" font-size="10.00">RANS3PSed.h</text>
</a>
</g>
</g>
<!-- Node1&#45;&gt;Node14 -->
<g id="edge13" class="edge">
<title>Node1&#45;&gt;Node14</title>
<path fill="none" stroke="midnightblue" d="M471.23,-109.7C508.41,-99.51 562.27,-84.74 595.93,-75.52"/>
<polygon fill="midnightblue" stroke="midnightblue" points="469.93,-106.42 461.22,-112.44 471.78,-113.18 469.93,-106.42"/>
</g>
<!-- Node16 -->
<g id="node16" class="node">
<title>Node16</title>
<g id="a_node16"><a xlink:href="_r_a_n_s3_p_sed2_d_8h.html" target="_top" xlink:title=" ">
<polygon fill="white" stroke="black" points="686.5,-56.5 686.5,-75.5 781.5,-75.5 781.5,-56.5 686.5,-56.5"/>
<text text-anchor="middle" x="734" y="-63.5" font-family="Helvetica,sans-Serif" font-size="10.00">RANS3PSed2D.h</text>
</a>
</g>
</g>
<!-- Node1&#45;&gt;Node16 -->
<g id="edge15" class="edge">
<title>Node1&#45;&gt;Node16</title>
<path fill="none" stroke="midnightblue" d="M478.05,-112.47C535.1,-102.33 629.66,-85.53 686.48,-75.44"/>
<polygon fill="midnightblue" stroke="midnightblue" points="477.43,-109.02 468.19,-114.22 478.65,-115.91 477.43,-109.02"/>
</g>
<!-- Node18 -->
<g id="node18" class="node">
<title>Node18</title>
<g id="a_node18"><a xlink:href="_sed_closure_8cpp.html" target="_top" xlink:title=" ">
<polygon fill="white" stroke="black" points="800,-56.5 800,-75.5 886,-75.5 886,-56.5 800,-56.5"/>
<text text-anchor="middle" x="843" y="-63.5" font-family="Helvetica,sans-Serif" font-size="10.00">SedClosure.cpp</text>
</a>
</g>
</g>
<!-- Node1&#45;&gt;Node18 -->
<g id="edge17" class="edge">
<title>Node1&#45;&gt;Node18</title>
<path fill="none" stroke="midnightblue" d="M478.19,-115.73C547.5,-107.98 679.29,-92.62 791,-76 793.9,-75.57 796.89,-75.1 799.9,-74.62"/>
<polygon fill="midnightblue" stroke="midnightblue" points="477.57,-112.27 468.02,-116.86 478.35,-119.23 477.57,-112.27"/>
</g>
<!-- Node3 -->
<g id="node3" class="node">
<title>Node3</title>
<g id="a_node3"><a xlink:href="_dissipation_8cpp.html" target="_top" xlink:title=" ">
<polygon fill="white" stroke="black" points="0,-0.5 0,-19.5 84,-19.5 84,-0.5 0,-0.5"/>
<text text-anchor="middle" x="42" y="-7.5" font-family="Helvetica,sans-Serif" font-size="10.00">Dissipation.cpp</text>
</a>
</g>
</g>
<!-- Node2&#45;&gt;Node3 -->
<g id="edge2" class="edge">
<title>Node2&#45;&gt;Node3</title>
<path fill="none" stroke="midnightblue" d="M49.15,-46.1C47.32,-37.14 45.23,-26.86 43.78,-19.75"/>
<polygon fill="midnightblue" stroke="midnightblue" points="45.76,-46.98 51.18,-56.08 52.62,-45.59 45.76,-46.98"/>
</g>
<!-- Node5 -->
<g id="node5" class="node">
<title>Node5</title>
<g id="a_node5"><a xlink:href="_dissipation2_d_8cpp.html" target="_top" xlink:title=" ">
<polygon fill="white" stroke="black" points="102.5,-0.5 102.5,-19.5 199.5,-19.5 199.5,-0.5 102.5,-0.5"/>
<text text-anchor="middle" x="151" y="-7.5" font-family="Helvetica,sans-Serif" font-size="10.00">Dissipation2D.cpp</text>
</a>
</g>
</g>
<!-- Node4&#45;&gt;Node5 -->
<g id="edge4" class="edge">
<title>Node4&#45;&gt;Node5</title>
<path fill="none" stroke="midnightblue" d="M154.25,-46.1C153.42,-37.14 152.47,-26.86 151.81,-19.75"/>
<polygon fill="midnightblue" stroke="midnightblue" points="150.77,-46.45 155.17,-56.08 157.74,-45.8 150.77,-46.45"/>
</g>
<!-- Node7 -->
<g id="node7" class="node">
<title>Node7</title>
<g id="a_node7"><a xlink:href="_kappa_8cpp.html" target="_top" xlink:title=" ">
<polygon fill="white" stroke="black" points="217.5,-0.5 217.5,-19.5 280.5,-19.5 280.5,-0.5 217.5,-0.5"/>
<text text-anchor="middle" x="249" y="-7.5" font-family="Helvetica,sans-Serif" font-size="10.00">Kappa.cpp</text>
</a>
</g>
</g>
<!-- Node6&#45;&gt;Node7 -->
<g id="edge6" class="edge">
<title>Node6&#45;&gt;Node7</title>
<path fill="none" stroke="midnightblue" d="M252.25,-46.1C251.42,-37.14 250.47,-26.86 249.81,-19.75"/>
<polygon fill="midnightblue" stroke="midnightblue" points="248.77,-46.45 253.17,-56.08 255.74,-45.8 248.77,-46.45"/>
</g>
<!-- Node9 -->
<g id="node9" class="node">
<title>Node9</title>
<g id="a_node9"><a xlink:href="_kappa2_d_8cpp.html" target="_top" xlink:title=" ">
<polygon fill="white" stroke="black" points="299,-0.5 299,-19.5 375,-19.5 375,-0.5 299,-0.5"/>
<text text-anchor="middle" x="337" y="-7.5" font-family="Helvetica,sans-Serif" font-size="10.00">Kappa2D.cpp</text>
</a>
</g>
</g>
<!-- Node8&#45;&gt;Node9 -->
<g id="edge8" class="edge">
<title>Node8&#45;&gt;Node9</title>
<path fill="none" stroke="midnightblue" d="M338.29,-45.8C337.96,-36.91 337.58,-26.78 337.32,-19.75"/>
<polygon fill="midnightblue" stroke="midnightblue" points="334.8,-46.22 338.67,-56.08 341.8,-45.96 334.8,-46.22"/>
</g>
<!-- Node11 -->
<g id="node11" class="node">
<title>Node11</title>
<g id="a_node11"><a xlink:href="_r_a_n_s3_p_f_8cpp.html" target="_top" xlink:title=" ">
<polygon fill="white" stroke="black" points="393,-0.5 393,-19.5 473,-19.5 473,-0.5 393,-0.5"/>
<text text-anchor="middle" x="433" y="-7.5" font-family="Helvetica,sans-Serif" font-size="10.00">RANS3PF.cpp</text>
</a>
</g>
</g>
<!-- Node10&#45;&gt;Node11 -->
<g id="edge10" class="edge">
<title>Node10&#45;&gt;Node11</title>
<path fill="none" stroke="midnightblue" d="M431.07,-45.8C431.56,-36.91 432.12,-26.78 432.51,-19.75"/>
<polygon fill="midnightblue" stroke="midnightblue" points="427.56,-45.9 430.5,-56.08 434.54,-46.29 427.56,-45.9"/>
</g>
<!-- Node13 -->
<g id="node13" class="node">
<title>Node13</title>
<g id="a_node13"><a xlink:href="_r_a_n_s3_p_f2_d_8cpp.html" target="_top" xlink:title=" ">
<polygon fill="white" stroke="black" points="491.5,-0.5 491.5,-19.5 586.5,-19.5 586.5,-0.5 491.5,-0.5"/>
<text text-anchor="middle" x="539" y="-7.5" font-family="Helvetica,sans-Serif" font-size="10.00">RANS3PF2D.cpp</text>
</a>
</g>
</g>
<!-- Node12&#45;&gt;Node13 -->
<g id="edge12" class="edge">
<title>Node12&#45;&gt;Node13</title>
<path fill="none" stroke="midnightblue" d="M529.82,-46.4C532.17,-37.36 534.87,-26.94 536.73,-19.75"/>
<polygon fill="midnightblue" stroke="midnightblue" points="526.43,-45.52 527.31,-56.08 533.21,-47.28 526.43,-45.52"/>
</g>
<!-- Node15 -->
<g id="node15" class="node">
<title>Node15</title>
<g id="a_node15"><a xlink:href="_r_a_n_s3_p_sed_8cpp.html" target="_top" xlink:title=" ">
<polygon fill="white" stroke="black" points="604.5,-0.5 604.5,-19.5 697.5,-19.5 697.5,-0.5 604.5,-0.5"/>
<text text-anchor="middle" x="651" y="-7.5" font-family="Helvetica,sans-Serif" font-size="10.00">RANS3PSed.cpp</text>
</a>
</g>
</g>
<!-- Node14&#45;&gt;Node15 -->
<g id="edge14" class="edge">
<title>Node14&#45;&gt;Node15</title>
<path fill="none" stroke="midnightblue" d="M635.14,-46.69C639.18,-37.59 643.88,-27.01 647.11,-19.75"/>
<polygon fill="midnightblue" stroke="midnightblue" points="631.83,-45.52 630.96,-56.08 638.22,-48.37 631.83,-45.52"/>
</g>
<!-- Node17 -->
<g id="node17" class="node">
<title>Node17</title>
<g id="a_node17"><a xlink:href="_r_a_n_s3_p_sed2_d_8cpp.html" target="_top" xlink:title=" ">
<polygon fill="white" stroke="black" points="716,-0.5 716,-19.5 822,-19.5 822,-0.5 716,-0.5"/>
<text text-anchor="middle" x="769" y="-7.5" font-family="Helvetica,sans-Serif" font-size="10.00">RANS3PSed2D.cpp</text>
</a>
</g>
</g>
<!-- Node16&#45;&gt;Node17 -->
<g id="edge16" class="edge">
<title>Node16&#45;&gt;Node17</title>
<path fill="none" stroke="midnightblue" d="M745.3,-47.57C751.32,-38.27 758.47,-27.25 763.33,-19.75"/>
<polygon fill="midnightblue" stroke="midnightblue" points="742.28,-45.79 739.78,-56.08 748.16,-49.6 742.28,-45.79"/>
</g>
</g>
</svg>
