<?xml version="1.0" encoding="UTF-8" standalone="no"?>
<!DOCTYPE svg PUBLIC "-//W3C//DTD SVG 1.1//EN"
 "http://www.w3.org/Graphics/SVG/1.1/DTD/svg11.dtd">
<!-- Generated by graphviz version 2.43.0 (0)
 -->
<!-- Title: SedClosure.h Pages: 1 -->
<svg width="928pt" height="140pt"
 viewBox="0.00 0.00 928.00 140.00" xmlns="http://www.w3.org/2000/svg" xmlns:xlink="http://www.w3.org/1999/xlink">
<g id="graph0" class="graph" transform="scale(1 1) rotate(0) translate(4 136)">
<title>SedClosure.h</title>
<polygon fill="white" stroke="transparent" points="-4,4 -4,-136 924,-136 924,4 -4,4"/>
<!-- Node1 -->
<g id="node1" class="node">
<title>Node1</title>
<g id="a_node1"><a xlink:title=" ">
<polygon fill="#bfbfbf" stroke="black" points="417,-112.5 417,-131.5 497,-131.5 497,-112.5 417,-112.5"/>
<text text-anchor="middle" x="457" y="-119.5" font-family="Helvetica,sans-Serif" font-size="10.00">SedClosure.h</text>
</a>
</g>
</g>
<!-- Node2 -->
<g id="node2" class="node">
<title>Node2</title>
<g id="a_node2"><a xlink:href="_dissipation_8h.html" target="_top" xlink:title=" ">
<polygon fill="white" stroke="black" points="18,-56.5 18,-75.5 98,-75.5 98,-56.5 18,-56.5"/>
<text text-anchor="middle" x="58" y="-63.5" font-family="Helvetica,sans-Serif" font-size="10.00">Dissipation.h</text>
</a>
</g>
</g>
<!-- Node1&#45;&gt;Node2 -->
<g id="edge1" class="edge">
<title>Node1&#45;&gt;Node2</title>
<path fill="none" stroke="midnightblue" d="M406.67,-114.93C339.59,-106.72 217.22,-91.34 113,-76 108.21,-75.3 103.2,-74.52 98.23,-73.74"/>
<polygon fill="midnightblue" stroke="midnightblue" points="406.6,-118.45 416.95,-116.19 407.45,-111.5 406.6,-118.45"/>
</g>
<!-- Node4 -->
<g id="node4" class="node">
<title>Node4</title>
<g id="a_node4"><a xlink:href="_dissipation2_d_8h.html" target="_top" xlink:title=" ">
<polygon fill="white" stroke="black" points="122,-56.5 122,-75.5 216,-75.5 216,-56.5 122,-56.5"/>
<text text-anchor="middle" x="169" y="-63.5" font-family="Helvetica,sans-Serif" font-size="10.00">Dissipation2D.h</text>
</a>
</g>
</g>
<!-- Node1&#45;&gt;Node4 -->
<g id="edge3" class="edge">
<title>Node1&#45;&gt;Node4</title>
<path fill="none" stroke="midnightblue" d="M406.87,-111.6C352.58,-101.42 266.76,-85.33 214.4,-75.51"/>
<polygon fill="midnightblue" stroke="midnightblue" points="406.48,-115.09 416.95,-113.49 407.77,-108.21 406.48,-115.09"/>
</g>
<!-- Node6 -->
<g id="node6" class="node">
<title>Node6</title>
<g id="a_node6"><a xlink:href="_kappa_8h.html" target="_top" xlink:title=" ">
<polygon fill="white" stroke="black" points="246,-56.5 246,-75.5 302,-75.5 302,-56.5 246,-56.5"/>
<text text-anchor="middle" x="274" y="-63.5" font-family="Helvetica,sans-Serif" font-size="10.00">Kappa.h</text>
</a>
</g>
</g>
<!-- Node1&#45;&gt;Node6 -->
<g id="edge5" class="edge">
<title>Node1&#45;&gt;Node6</title>
<path fill="none" stroke="midnightblue" d="M418.2,-109.55C383.45,-99.3 333.33,-84.51 302.26,-75.34"/>
<polygon fill="midnightblue" stroke="midnightblue" points="417.42,-112.97 428,-112.44 419.4,-106.26 417.42,-112.97"/>
</g>
<!-- Node8 -->
<g id="node8" class="node">
<title>Node8</title>
<g id="a_node8"><a xlink:href="_kappa2_d_8h.html" target="_top" xlink:title=" ">
<polygon fill="white" stroke="black" points="329,-56.5 329,-75.5 399,-75.5 399,-56.5 329,-56.5"/>
<text text-anchor="middle" x="364" y="-63.5" font-family="Helvetica,sans-Serif" font-size="10.00">Kappa2D.h</text>
</a>
</g>
</g>
<!-- Node1&#45;&gt;Node8 -->
<g id="edge7" class="edge">
<title>Node1&#45;&gt;Node8</title>
<path fill="none" stroke="midnightblue" d="M433.19,-107.18C416.08,-97.24 393.53,-84.15 378.9,-75.65"/>
<polygon fill="midnightblue" stroke="midnightblue" points="431.65,-110.33 442.06,-112.32 435.17,-104.28 431.65,-110.33"/>
</g>
<!-- Node10 -->
<g id="node10" class="node">
<title>Node10</title>
<g id="a_node10"><a xlink:href="_r_a_n_s3_p_f_8h.html" target="_top" xlink:title=" ">
<polygon fill="white" stroke="black" points="422.5,-56.5 422.5,-75.5 491.5,-75.5 491.5,-56.5 422.5,-56.5"/>
<text text-anchor="middle" x="457" y="-63.5" font-family="Helvetica,sans-Serif" font-size="10.00">RANS3PF.h</text>
</a>
</g>
</g>
<!-- Node1&#45;&gt;Node10 -->
<g id="edge9" class="edge">
<title>Node1&#45;&gt;Node10</title>
<path fill="none" stroke="midnightblue" d="M457,-101.8C457,-92.91 457,-82.78 457,-75.75"/>
<polygon fill="midnightblue" stroke="midnightblue" points="453.5,-102.08 457,-112.08 460.5,-102.08 453.5,-102.08"/>
</g>
<!-- Node12 -->
<g id="node12" class="node">
<title>Node12</title>
<g id="a_node12"><a xlink:href="_r_a_n_s3_p_f2_d_8h.html" target="_top" xlink:title=" ">
<polygon fill="white" stroke="black" points="510,-56.5 510,-75.5 594,-75.5 594,-56.5 510,-56.5"/>
<text text-anchor="middle" x="552" y="-63.5" font-family="Helvetica,sans-Serif" font-size="10.00">RANS3PF2D.h</text>
</a>
</g>
</g>
<!-- Node1&#45;&gt;Node12 -->
<g id="edge11" class="edge">
<title>Node1&#45;&gt;Node12</title>
<path fill="none" stroke="midnightblue" d="M481.32,-107.18C498.8,-97.24 521.83,-84.15 536.77,-75.65"/>
<polygon fill="midnightblue" stroke="midnightblue" points="479.23,-104.34 472.26,-112.32 482.69,-110.43 479.23,-104.34"/>
</g>
<!-- Node14 -->
<g id="node14" class="node">
<title>Node14</title>
<g id="a_node14"><a xlink:href="_r_a_n_s3_p_sed_8h.html" target="_top" xlink:title=" ">
<polygon fill="white" stroke="black" points="612.5,-56.5 612.5,-75.5 695.5,-75.5 695.5,-56.5 612.5,-56.5"/>
<text text-anchor="middle" x="654" y="-63.5" font-family="Helvetica,sans-Serif" font-size="10.00">RANS3PSed.h</text>
</a>
</g>
</g>
<!-- Node1&#45;&gt;Node14 -->
<g id="edge13" class="edge">
<title>Node1&#45;&gt;Node14</title>
<path fill="none" stroke="midnightblue" d="M498.23,-109.7C535.41,-99.51 589.27,-84.74 622.93,-75.52"/>
<polygon fill="midnightblue" stroke="midnightblue" points="496.93,-106.42 488.22,-112.44 498.78,-113.18 496.93,-106.42"/>
</g>
<!-- Node16 -->
<g id="node16" class="node">
<title>Node16</title>
<g id="a_node16"><a xlink:href="_r_a_n_s3_p_sed2_d_8h.html" target="_top" xlink:title=" ">
<polygon fill="white" stroke="black" points="714,-56.5 714,-75.5 810,-75.5 810,-56.5 714,-56.5"/>
<text text-anchor="middle" x="762" y="-63.5" font-family="Helvetica,sans-Serif" font-size="10.00">RANS3PSed2D.h</text>
</a>
</g>
</g>
<!-- Node1&#45;&gt;Node16 -->
<g id="edge15" class="edge">
<title>Node1&#45;&gt;Node16</title>
<path fill="none" stroke="midnightblue" d="M507.1,-112.13C564.39,-101.99 657.51,-85.5 713.93,-75.51"/>
<polygon fill="midnightblue" stroke="midnightblue" points="506.42,-108.7 497.19,-113.88 507.64,-115.59 506.42,-108.7"/>
</g>
<!-- Node18 -->
<g id="node18" class="node">
<title>Node18</title>
<g id="a_node18"><a xlink:href="_sed_closure_8cpp.html" target="_top" xlink:title=" ">
<polygon fill="white" stroke="black" points="828,-56.5 828,-75.5 920,-75.5 920,-56.5 828,-56.5"/>
<text text-anchor="middle" x="874" y="-63.5" font-family="Helvetica,sans-Serif" font-size="10.00">SedClosure.cpp</text>
</a>
</g>
</g>
<!-- Node1&#45;&gt;Node18 -->
<g id="edge17" class="edge">
<title>Node1&#45;&gt;Node18</title>
<path fill="none" stroke="midnightblue" d="M507.54,-115.34C577.59,-107.35 708.1,-91.96 819,-76 821.87,-75.59 824.83,-75.15 827.81,-74.69"/>
<polygon fill="midnightblue" stroke="midnightblue" points="506.78,-111.9 497.24,-116.51 507.58,-118.86 506.78,-111.9"/>
</g>
<!-- Node3 -->
<g id="node3" class="node">
<title>Node3</title>
<g id="a_node3"><a xlink:href="_dissipation_8cpp.html" target="_top" xlink:title=" ">
<polygon fill="white" stroke="black" points="0,-0.5 0,-19.5 92,-19.5 92,-0.5 0,-0.5"/>
<text text-anchor="middle" x="46" y="-7.5" font-family="Helvetica,sans-Serif" font-size="10.00">Dissipation.cpp</text>
</a>
</g>
</g>
<!-- Node2&#45;&gt;Node3 -->
<g id="edge2" class="edge">
<title>Node2&#45;&gt;Node3</title>
<path fill="none" stroke="midnightblue" d="M53.8,-46.1C51.81,-37.14 49.52,-26.86 47.94,-19.75"/>
<polygon fill="midnightblue" stroke="midnightblue" points="50.43,-47.08 56.02,-56.08 57.27,-45.56 50.43,-47.08"/>
</g>
<!-- Node5 -->
<g id="node5" class="node">
<title>Node5</title>
<g id="a_node5"><a xlink:href="_dissipation2_d_8cpp.html" target="_top" xlink:title=" ">
<polygon fill="white" stroke="black" points="110.5,-0.5 110.5,-19.5 215.5,-19.5 215.5,-0.5 110.5,-0.5"/>
<text text-anchor="middle" x="163" y="-7.5" font-family="Helvetica,sans-Serif" font-size="10.00">Dissipation2D.cpp</text>
</a>
</g>
</g>
<!-- Node4&#45;&gt;Node5 -->
<g id="edge4" class="edge">
<title>Node4&#45;&gt;Node5</title>
<path fill="none" stroke="midnightblue" d="M166.9,-46.1C165.9,-37.14 164.76,-26.86 163.97,-19.75"/>
<polygon fill="midnightblue" stroke="midnightblue" points="163.43,-46.53 168.01,-56.08 170.38,-45.76 163.43,-46.53"/>
</g>
<!-- Node7 -->
<g id="node7" class="node">
<title>Node7</title>
<g id="a_node7"><a xlink:href="_kappa_8cpp.html" target="_top" xlink:title=" ">
<polygon fill="white" stroke="black" points="234,-0.5 234,-19.5 302,-19.5 302,-0.5 234,-0.5"/>
<text text-anchor="middle" x="268" y="-7.5" font-family="Helvetica,sans-Serif" font-size="10.00">Kappa.cpp</text>
</a>
</g>
</g>
<!-- Node6&#45;&gt;Node7 -->
<g id="edge6" class="edge">
<title>Node6&#45;&gt;Node7</title>
<path fill="none" stroke="midnightblue" d="M271.9,-46.1C270.9,-37.14 269.76,-26.86 268.97,-19.75"/>
<polygon fill="midnightblue" stroke="midnightblue" points="268.43,-46.53 273.01,-56.08 275.38,-45.76 268.43,-46.53"/>
</g>
<!-- Node9 -->
<g id="node9" class="node">
<title>Node9</title>
<g id="a_node9"><a xlink:href="_kappa2_d_8cpp.html" target="_top" xlink:title=" ">
<polygon fill="white" stroke="black" points="320.5,-0.5 320.5,-19.5 401.5,-19.5 401.5,-0.5 320.5,-0.5"/>
<text text-anchor="middle" x="361" y="-7.5" font-family="Helvetica,sans-Serif" font-size="10.00">Kappa2D.cpp</text>
</a>
</g>
</g>
<!-- Node8&#45;&gt;Node9 -->
<g id="edge8" class="edge">
<title>Node8&#45;&gt;Node9</title>
<path fill="none" stroke="midnightblue" d="M362.93,-45.8C362.44,-36.91 361.88,-26.78 361.49,-19.75"/>
<polygon fill="midnightblue" stroke="midnightblue" points="359.46,-46.29 363.5,-56.08 366.44,-45.9 359.46,-46.29"/>
</g>
<!-- Node11 -->
<g id="node11" class="node">
<title>Node11</title>
<g id="a_node11"><a xlink:href="_r_a_n_s3_p_f_8cpp.html" target="_top" xlink:title=" ">
<polygon fill="white" stroke="black" points="420,-0.5 420,-19.5 500,-19.5 500,-0.5 420,-0.5"/>
<text text-anchor="middle" x="460" y="-7.5" font-family="Helvetica,sans-Serif" font-size="10.00">RANS3PF.cpp</text>
</a>
</g>
</g>
<!-- Node10&#45;&gt;Node11 -->
<g id="edge10" class="edge">
<title>Node10&#45;&gt;Node11</title>
<path fill="none" stroke="midnightblue" d="M458.07,-45.8C458.56,-36.91 459.12,-26.78 459.51,-19.75"/>
<polygon fill="midnightblue" stroke="midnightblue" points="454.56,-45.9 457.5,-56.08 461.54,-46.29 454.56,-45.9"/>
</g>
<!-- Node13 -->
<g id="node13" class="node">
<title>Node13</title>
<g id="a_node13"><a xlink:href="_r_a_n_s3_p_f2_d_8cpp.html" target="_top" xlink:title=" ">
<polygon fill="white" stroke="black" points="518.5,-0.5 518.5,-19.5 613.5,-19.5 613.5,-0.5 518.5,-0.5"/>
<text text-anchor="middle" x="566" y="-7.5" font-family="Helvetica,sans-Serif" font-size="10.00">RANS3PF2D.cpp</text>
</a>
</g>
</g>
<!-- Node12&#45;&gt;Node13 -->
<g id="edge12" class="edge">
<title>Node12&#45;&gt;Node13</title>
<path fill="none" stroke="midnightblue" d="M556.82,-46.4C559.17,-37.36 561.87,-26.94 563.73,-19.75"/>
<polygon fill="midnightblue" stroke="midnightblue" points="553.43,-45.52 554.31,-56.08 560.21,-47.28 553.43,-45.52"/>
</g>
<!-- Node15 -->
<g id="node15" class="node">
<title>Node15</title>
<g id="a_node15"><a xlink:href="_r_a_n_s3_p_sed_8cpp.html" target="_top" xlink:title=" ">
<polygon fill="white" stroke="black" points="632,-0.5 632,-19.5 726,-19.5 726,-0.5 632,-0.5"/>
<text text-anchor="middle" x="679" y="-7.5" font-family="Helvetica,sans-Serif" font-size="10.00">RANS3PSed.cpp</text>
</a>
</g>
</g>
<!-- Node14&#45;&gt;Node15 -->
<g id="edge14" class="edge">
<title>Node14&#45;&gt;Node15</title>
<path fill="none" stroke="midnightblue" d="M662.34,-46.98C666.58,-37.82 671.55,-27.09 674.95,-19.75"/>
<polygon fill="midnightblue" stroke="midnightblue" points="659.15,-45.54 658.13,-56.08 665.51,-48.48 659.15,-45.54"/>
</g>
<!-- Node17 -->
<g id="node17" class="node">
<title>Node17</title>
<g id="a_node17"><a xlink:href="_r_a_n_s3_p_sed2_d_8cpp.html" target="_top" xlink:title=" ">
<polygon fill="white" stroke="black" points="744.5,-0.5 744.5,-19.5 851.5,-19.5 851.5,-0.5 744.5,-0.5"/>
<text text-anchor="middle" x="798" y="-7.5" font-family="Helvetica,sans-Serif" font-size="10.00">RANS3PSed2D.cpp</text>
</a>
</g>
</g>
<!-- Node16&#45;&gt;Node17 -->
<g id="edge16" class="edge">
<title>Node16&#45;&gt;Node17</title>
<path fill="none" stroke="midnightblue" d="M773.62,-47.57C779.82,-38.27 787.17,-27.25 792.17,-19.75"/>
<polygon fill="midnightblue" stroke="midnightblue" points="770.58,-45.82 767.94,-56.08 776.4,-49.7 770.58,-45.82"/>
</g>
</g>
</svg>
