<?xml version="1.0" encoding="UTF-8" standalone="no"?>
<!DOCTYPE svg PUBLIC "-//W3C//DTD SVG 1.1//EN"
 "http://www.w3.org/Graphics/SVG/1.1/DTD/svg11.dtd">
<!-- Generated by graphviz version 2.43.0 (0)
 -->
<!-- Title: SizeField.cpp Pages: 1 -->
<svg width="1299pt" height="196pt"
 viewBox="0.00 0.00 1299.00 196.00" xmlns="http://www.w3.org/2000/svg" xmlns:xlink="http://www.w3.org/1999/xlink">
<g id="graph0" class="graph" transform="scale(1 1) rotate(0) translate(4 192)">
<title>SizeField.cpp</title>
<polygon fill="white" stroke="transparent" points="-4,4 -4,-192 1295,-192 1295,4 -4,4"/>
<!-- Node1 -->
<g id="node1" class="node">
<title>Node1</title>
<g id="a_node1"><a xlink:title=" ">
<polygon fill="#bfbfbf" stroke="black" points="600,-168.5 600,-187.5 680,-187.5 680,-168.5 600,-168.5"/>
<text text-anchor="middle" x="640" y="-175.5" font-family="Helvetica,sans-Serif" font-size="10.00">SizeField.cpp</text>
</a>
</g>
</g>
<!-- Node2 -->
<g id="node2" class="node">
<title>Node2</title>
<g id="a_node2"><a xlink:href="_mesh_adapt_p_u_m_i_8h.html" target="_top" xlink:title=" ">
<polygon fill="white" stroke="black" points="310,-112.5 310,-131.5 416,-131.5 416,-112.5 310,-112.5"/>
<text text-anchor="middle" x="363" y="-119.5" font-family="Helvetica,sans-Serif" font-size="10.00">MeshAdaptPUMI.h</text>
</a>
</g>
</g>
<!-- Node1&#45;&gt;Node2 -->
<g id="edge1" class="edge">
<title>Node1&#45;&gt;Node2</title>
<path fill="none" stroke="midnightblue" d="M599.72,-169.15C551.51,-159.75 470.59,-143.97 417,-133.53"/>
<polygon fill="midnightblue" stroke="midnightblue" points="417.47,-130.05 406.99,-131.58 416.13,-136.92 417.47,-130.05"/>
</g>
<!-- Node6 -->
<g id="node6" class="node">
<title>Node6</title>
<g id="a_node6"><a xlink:title=" ">
<polygon fill="white" stroke="#bfbfbf" points="0,-0.5 0,-19.5 64,-19.5 64,-0.5 0,-0.5"/>
<text text-anchor="middle" x="32" y="-7.5" font-family="Helvetica,sans-Serif" font-size="10.00">algorithm</text>
</a>
</g>
</g>
<!-- Node1&#45;&gt;Node6 -->
<g id="edge31" class="edge">
<title>Node1&#45;&gt;Node6</title>
<path fill="none" stroke="midnightblue" d="M599.69,-174.84C510.1,-169.68 296.99,-155.28 229,-132 156.84,-107.29 83.27,-52.6 50.13,-26.05"/>
<polygon fill="midnightblue" stroke="midnightblue" points="52.22,-23.23 42.25,-19.64 47.81,-28.66 52.22,-23.23"/>
</g>
<!-- Node9 -->
<g id="node9" class="node">
<title>Node9</title>
<g id="a_node9"><a xlink:title=" ">
<polygon fill="white" stroke="#bfbfbf" points="82,-0.5 82,-19.5 142,-19.5 142,-0.5 82,-0.5"/>
<text text-anchor="middle" x="112" y="-7.5" font-family="Helvetica,sans-Serif" font-size="10.00">iostream</text>
</a>
</g>
</g>
<!-- Node1&#45;&gt;Node9 -->
<g id="edge26" class="edge">
<title>Node1&#45;&gt;Node9</title>
<path fill="none" stroke="midnightblue" d="M599.82,-174.79C516.79,-169.78 329.09,-156.1 270,-132 209.99,-107.52 153.08,-53.94 126.96,-27.06"/>
<polygon fill="midnightblue" stroke="midnightblue" points="129.31,-24.45 119.87,-19.63 124.25,-29.28 129.31,-24.45"/>
</g>
<!-- Node14 -->
<g id="node14" class="node">
<title>Node14</title>
<g id="a_node14"><a xlink:title=" ">
<polygon fill="white" stroke="#bfbfbf" points="212.5,-56.5 212.5,-75.5 253.5,-75.5 253.5,-56.5 212.5,-56.5"/>
<text text-anchor="middle" x="233" y="-63.5" font-family="Helvetica,sans-Serif" font-size="10.00">apf.h</text>
</a>
</g>
</g>
<!-- Node1&#45;&gt;Node14 -->
<g id="edge19" class="edge">
<title>Node1&#45;&gt;Node14</title>
<path fill="none" stroke="midnightblue" d="M599.72,-174.78C521.7,-169.98 353.05,-156.98 301,-132 277.86,-120.9 257.5,-98.93 245.24,-83.62"/>
<polygon fill="midnightblue" stroke="midnightblue" points="247.86,-81.3 238.99,-75.51 242.32,-85.57 247.86,-81.3"/>
</g>
<!-- Node17 -->
<g id="node17" class="node">
<title>Node17</title>
<g id="a_node17"><a xlink:title=" ">
<polygon fill="white" stroke="#bfbfbf" points="703.5,-56.5 703.5,-75.5 750.5,-75.5 750.5,-56.5 703.5,-56.5"/>
<text text-anchor="middle" x="727" y="-63.5" font-family="Helvetica,sans-Serif" font-size="10.00">queue</text>
</a>
</g>
</g>
<!-- Node1&#45;&gt;Node17 -->
<g id="edge30" class="edge">
<title>Node1&#45;&gt;Node17</title>
<path fill="none" stroke="midnightblue" d="M599.9,-175.47C536.56,-171.63 424.4,-158.28 464,-112 495.86,-74.77 628.35,-85.48 693.12,-75.65"/>
<polygon fill="midnightblue" stroke="midnightblue" points="694.07,-79.04 703.28,-73.81 692.82,-72.15 694.07,-79.04"/>
</g>
<!-- Node20 -->
<g id="node20" class="node">
<title>Node20</title>
<g id="a_node20"><a xlink:title=" ">
<polygon fill="white" stroke="#bfbfbf" points="472.5,-112.5 472.5,-131.5 543.5,-131.5 543.5,-112.5 472.5,-112.5"/>
<text text-anchor="middle" x="508" y="-119.5" font-family="Helvetica,sans-Serif" font-size="10.00">apfVector.h</text>
</a>
</g>
</g>
<!-- Node1&#45;&gt;Node20 -->
<g id="edge20" class="edge">
<title>Node1&#45;&gt;Node20</title>
<path fill="none" stroke="midnightblue" d="M619.08,-168.44C597.26,-159.52 562.85,-145.44 538.11,-135.32"/>
<polygon fill="midnightblue" stroke="midnightblue" points="539.4,-132.06 528.82,-131.52 536.75,-138.54 539.4,-132.06"/>
</g>
<!-- Node21 -->
<g id="node21" class="node">
<title>Node21</title>
<g id="a_node21"><a xlink:title=" ">
<polygon fill="white" stroke="#bfbfbf" points="562,-112.5 562,-131.5 630,-131.5 630,-112.5 562,-112.5"/>
<text text-anchor="middle" x="596" y="-119.5" font-family="Helvetica,sans-Serif" font-size="10.00">apfMesh.h</text>
</a>
</g>
</g>
<!-- Node1&#45;&gt;Node21 -->
<g id="edge21" class="edge">
<title>Node1&#45;&gt;Node21</title>
<path fill="none" stroke="midnightblue" d="M632.73,-168.08C626.46,-160.38 617.21,-149.03 609.57,-139.65"/>
<polygon fill="midnightblue" stroke="midnightblue" points="612.16,-137.29 603.13,-131.75 606.73,-141.71 612.16,-137.29"/>
</g>
<!-- Node22 -->
<g id="node22" class="node">
<title>Node22</title>
<g id="a_node22"><a xlink:title=" ">
<polygon fill="white" stroke="#bfbfbf" points="648.5,-112.5 648.5,-131.5 719.5,-131.5 719.5,-112.5 648.5,-112.5"/>
<text text-anchor="middle" x="684" y="-119.5" font-family="Helvetica,sans-Serif" font-size="10.00">apfShape.h</text>
</a>
</g>
</g>
<!-- Node1&#45;&gt;Node22 -->
<g id="edge22" class="edge">
<title>Node1&#45;&gt;Node22</title>
<path fill="none" stroke="midnightblue" d="M647.27,-168.08C653.54,-160.38 662.79,-149.03 670.43,-139.65"/>
<polygon fill="midnightblue" stroke="midnightblue" points="673.27,-141.71 676.87,-131.75 667.84,-137.29 673.27,-141.71"/>
</g>
<!-- Node23 -->
<g id="node23" class="node">
<title>Node23</title>
<g id="a_node23"><a xlink:title=" ">
<polygon fill="white" stroke="#bfbfbf" points="737.5,-112.5 737.5,-131.5 852.5,-131.5 852.5,-112.5 737.5,-112.5"/>
<text text-anchor="middle" x="795" y="-119.5" font-family="Helvetica,sans-Serif" font-size="10.00">apfDynamicVector.h</text>
</a>
</g>
</g>
<!-- Node1&#45;&gt;Node23 -->
<g id="edge23" class="edge">
<title>Node1&#45;&gt;Node23</title>
<path fill="none" stroke="midnightblue" d="M664.56,-168.44C690.52,-159.4 731.67,-145.06 760.8,-134.92"/>
<polygon fill="midnightblue" stroke="midnightblue" points="762.26,-138.11 770.55,-131.52 759.96,-131.5 762.26,-138.11"/>
</g>
<!-- Node24 -->
<g id="node24" class="node">
<title>Node24</title>
<g id="a_node24"><a xlink:title=" ">
<polygon fill="white" stroke="#bfbfbf" points="871,-112.5 871,-131.5 957,-131.5 957,-112.5 871,-112.5"/>
<text text-anchor="middle" x="914" y="-119.5" font-family="Helvetica,sans-Serif" font-size="10.00">apfCavityOp.h</text>
</a>
</g>
</g>
<!-- Node1&#45;&gt;Node24 -->
<g id="edge24" class="edge">
<title>Node1&#45;&gt;Node24</title>
<path fill="none" stroke="midnightblue" d="M680.14,-169.09C727.89,-159.68 807.81,-143.93 860.71,-133.5"/>
<polygon fill="midnightblue" stroke="midnightblue" points="861.45,-136.92 870.59,-131.56 860.1,-130.06 861.45,-136.92"/>
</g>
<!-- Node25 -->
<g id="node25" class="node">
<title>Node25</title>
<g id="a_node25"><a xlink:title=" ">
<polygon fill="white" stroke="#bfbfbf" points="975,-112.5 975,-131.5 1019,-131.5 1019,-112.5 975,-112.5"/>
<text text-anchor="middle" x="997" y="-119.5" font-family="Helvetica,sans-Serif" font-size="10.00">string</text>
</a>
</g>
</g>
<!-- Node1&#45;&gt;Node25 -->
<g id="edge25" class="edge">
<title>Node1&#45;&gt;Node25</title>
<path fill="none" stroke="midnightblue" d="M680.22,-173.35C740.22,-167.49 856.82,-154.51 964.67,-132.01"/>
<polygon fill="midnightblue" stroke="midnightblue" points="965.69,-135.38 974.75,-129.88 964.24,-128.53 965.69,-135.38"/>
</g>
<!-- Node26 -->
<g id="node26" class="node">
<title>Node26</title>
<g id="a_node26"><a xlink:title=" ">
<polygon fill="white" stroke="#bfbfbf" points="1037,-112.5 1037,-131.5 1093,-131.5 1093,-112.5 1037,-112.5"/>
<text text-anchor="middle" x="1065" y="-119.5" font-family="Helvetica,sans-Serif" font-size="10.00">sstream</text>
</a>
</g>
</g>
<!-- Node1&#45;&gt;Node26 -->
<g id="edge27" class="edge">
<title>Node1&#45;&gt;Node26</title>
<path fill="none" stroke="midnightblue" d="M680.17,-173.98C749.15,-168.44 894.67,-155.21 1026.89,-132"/>
<polygon fill="midnightblue" stroke="midnightblue" points="1027.56,-135.44 1036.79,-130.24 1026.34,-128.55 1027.56,-135.44"/>
</g>
<!-- Node27 -->
<g id="node27" class="node">
<title>Node27</title>
<g id="a_node27"><a xlink:title=" ">
<polygon fill="white" stroke="#bfbfbf" points="1111,-112.5 1111,-131.5 1157,-131.5 1157,-112.5 1111,-112.5"/>
<text text-anchor="middle" x="1134" y="-119.5" font-family="Helvetica,sans-Serif" font-size="10.00">PCU.h</text>
</a>
</g>
</g>
<!-- Node1&#45;&gt;Node27 -->
<g id="edge28" class="edge">
<title>Node1&#45;&gt;Node27</title>
<path fill="none" stroke="midnightblue" d="M680.2,-175.48C759.16,-171.98 940.13,-161.41 1100.64,-131.95"/>
<polygon fill="midnightblue" stroke="midnightblue" points="1101.51,-135.34 1110.69,-130.07 1100.22,-128.46 1101.51,-135.34"/>
</g>
<!-- Node28 -->
<g id="node28" class="node">
<title>Node28</title>
<g id="a_node28"><a xlink:title=" ">
<polygon fill="white" stroke="#bfbfbf" points="1175,-112.5 1175,-131.5 1291,-131.5 1291,-112.5 1175,-112.5"/>
<text text-anchor="middle" x="1233" y="-119.5" font-family="Helvetica,sans-Serif" font-size="10.00">samElementCount.h</text>
</a>
</g>
</g>
<!-- Node1&#45;&gt;Node28 -->
<g id="edge29" class="edge">
<title>Node1&#45;&gt;Node28</title>
<path fill="none" stroke="midnightblue" d="M680.32,-174.22C766.96,-168.09 977.58,-152.43 1164.89,-132.07"/>
<polygon fill="midnightblue" stroke="midnightblue" points="1165.36,-135.54 1174.92,-130.98 1164.59,-128.58 1165.36,-135.54"/>
</g>
<!-- Node3 -->
<g id="node3" class="node">
<title>Node3</title>
<g id="a_node3"><a xlink:href="mesh_8h.html" target="_top" xlink:title=" ">
<polygon fill="white" stroke="black" points="271.5,-56.5 271.5,-75.5 324.5,-75.5 324.5,-56.5 271.5,-56.5"/>
<text text-anchor="middle" x="298" y="-63.5" font-family="Helvetica,sans-Serif" font-size="10.00">mesh.h</text>
</a>
</g>
</g>
<!-- Node2&#45;&gt;Node3 -->
<g id="edge2" class="edge">
<title>Node2&#45;&gt;Node3</title>
<path fill="none" stroke="midnightblue" d="M352.56,-112.32C342.85,-104.26 328.18,-92.08 316.5,-82.37"/>
<polygon fill="midnightblue" stroke="midnightblue" points="318.56,-79.53 308.63,-75.83 314.09,-84.92 318.56,-79.53"/>
</g>
<!-- Node2&#45;&gt;Node14 -->
<g id="edge13" class="edge">
<title>Node2&#45;&gt;Node14</title>
<path fill="none" stroke="midnightblue" d="M342.4,-112.44C321.01,-103.56 287.32,-89.56 262.98,-79.45"/>
<polygon fill="midnightblue" stroke="midnightblue" points="264.08,-76.12 253.5,-75.52 261.39,-82.58 264.08,-76.12"/>
</g>
<!-- Node15 -->
<g id="node15" class="node">
<title>Node15</title>
<g id="a_node15"><a xlink:title=" ">
<polygon fill="white" stroke="#bfbfbf" points="343,-56.5 343,-75.5 417,-75.5 417,-56.5 343,-56.5"/>
<text text-anchor="middle" x="380" y="-63.5" font-family="Helvetica,sans-Serif" font-size="10.00">apfMesh2.h</text>
</a>
</g>
</g>
<!-- Node2&#45;&gt;Node15 -->
<g id="edge14" class="edge">
<title>Node2&#45;&gt;Node15</title>
<path fill="none" stroke="midnightblue" d="M365.81,-112.08C368.08,-104.85 371.37,-94.41 374.21,-85.4"/>
<polygon fill="midnightblue" stroke="midnightblue" points="377.58,-86.34 377.25,-75.75 370.9,-84.24 377.58,-86.34"/>
</g>
<!-- Node16 -->
<g id="node16" class="node">
<title>Node16</title>
<g id="a_node16"><a xlink:title=" ">
<polygon fill="white" stroke="#bfbfbf" points="435.5,-56.5 435.5,-75.5 530.5,-75.5 530.5,-56.5 435.5,-56.5"/>
<text text-anchor="middle" x="483" y="-63.5" font-family="Helvetica,sans-Serif" font-size="10.00">apfNumbering.h</text>
</a>
</g>
</g>
<!-- Node2&#45;&gt;Node16 -->
<g id="edge15" class="edge">
<title>Node2&#45;&gt;Node16</title>
<path fill="none" stroke="midnightblue" d="M382.01,-112.44C401.59,-103.64 432.31,-89.81 454.73,-79.72"/>
<polygon fill="midnightblue" stroke="midnightblue" points="456.39,-82.81 464.07,-75.52 453.52,-76.43 456.39,-82.81"/>
</g>
<!-- Node2&#45;&gt;Node17 -->
<g id="edge16" class="edge">
<title>Node2&#45;&gt;Node17</title>
<path fill="none" stroke="midnightblue" d="M416.31,-113.84C498.68,-102.77 651.11,-82.24 693.35,-75.58"/>
<polygon fill="midnightblue" stroke="midnightblue" points="694.04,-79.01 703.3,-73.86 692.85,-72.12 694.04,-79.01"/>
</g>
<!-- Node18 -->
<g id="node18" class="node">
<title>Node18</title>
<g id="a_node18"><a xlink:href="_py_embedded_functions_8h.html" target="_top" xlink:title=" ">
<polygon fill="white" stroke="black" points="549,-56.5 549,-75.5 685,-75.5 685,-56.5 549,-56.5"/>
<text text-anchor="middle" x="617" y="-63.5" font-family="Helvetica,sans-Serif" font-size="10.00">PyEmbeddedFunctions.h</text>
</a>
</g>
</g>
<!-- Node2&#45;&gt;Node18 -->
<g id="edge17" class="edge">
<title>Node2&#45;&gt;Node18</title>
<path fill="none" stroke="midnightblue" d="M403.25,-112.44C447.65,-103 519.15,-87.8 567.09,-77.61"/>
<polygon fill="midnightblue" stroke="midnightblue" points="567.89,-81.02 576.94,-75.52 566.43,-74.17 567.89,-81.02"/>
</g>
<!-- Node4 -->
<g id="node4" class="node">
<title>Node4</title>
<g id="a_node4"><a xlink:title=" ">
<polygon fill="white" stroke="#bfbfbf" points="616,-0.5 616,-19.5 648,-19.5 648,-0.5 616,-0.5"/>
<text text-anchor="middle" x="632" y="-7.5" font-family="Helvetica,sans-Serif" font-size="10.00">set</text>
</a>
</g>
</g>
<!-- Node3&#45;&gt;Node4 -->
<g id="edge3" class="edge">
<title>Node3&#45;&gt;Node4</title>
<path fill="none" stroke="midnightblue" d="M324.66,-57.98C327.8,-57.26 330.96,-56.58 334,-56 451.06,-33.72 486.23,-48.09 605.84,-19.81"/>
<polygon fill="midnightblue" stroke="midnightblue" points="606.85,-23.17 615.75,-17.42 605.21,-16.36 606.85,-23.17"/>
</g>
<!-- Node5 -->
<g id="node5" class="node">
<title>Node5</title>
<g id="a_node5"><a xlink:title=" ">
<polygon fill="white" stroke="#bfbfbf" points="160.5,-0.5 160.5,-19.5 207.5,-19.5 207.5,-0.5 160.5,-0.5"/>
<text text-anchor="middle" x="184" y="-7.5" font-family="Helvetica,sans-Serif" font-size="10.00">vector</text>
</a>
</g>
</g>
<!-- Node3&#45;&gt;Node5 -->
<g id="edge4" class="edge">
<title>Node3&#45;&gt;Node5</title>
<path fill="none" stroke="midnightblue" d="M279.94,-56.44C261.43,-47.68 232.42,-33.94 211.14,-23.86"/>
<polygon fill="midnightblue" stroke="midnightblue" points="212.51,-20.63 201.98,-19.52 209.52,-26.96 212.51,-20.63"/>
</g>
<!-- Node3&#45;&gt;Node6 -->
<g id="edge5" class="edge">
<title>Node3&#45;&gt;Node6</title>
<path fill="none" stroke="midnightblue" d="M271.3,-58.15C268.17,-57.4 265.02,-56.66 262,-56 181.59,-38.3 158.47,-37.23 74.23,-20.2"/>
<polygon fill="midnightblue" stroke="midnightblue" points="74.71,-16.73 64.21,-18.16 73.31,-23.59 74.71,-16.73"/>
</g>
<!-- Node7 -->
<g id="node7" class="node">
<title>Node7</title>
<g id="a_node7"><a xlink:title=" ">
<polygon fill="white" stroke="#bfbfbf" points="226,-0.5 226,-19.5 264,-19.5 264,-0.5 226,-0.5"/>
<text text-anchor="middle" x="245" y="-7.5" font-family="Helvetica,sans-Serif" font-size="10.00">map</text>
</a>
</g>
</g>
<!-- Node3&#45;&gt;Node7 -->
<g id="edge6" class="edge">
<title>Node3&#45;&gt;Node7</title>
<path fill="none" stroke="midnightblue" d="M289.25,-56.08C281.53,-48.22 270.1,-36.57 260.78,-27.08"/>
<polygon fill="midnightblue" stroke="midnightblue" points="263.09,-24.44 253.59,-19.75 258.1,-29.34 263.09,-24.44"/>
</g>
<!-- Node8 -->
<g id="node8" class="node">
<title>Node8</title>
<g id="a_node8"><a xlink:title=" ">
<polygon fill="white" stroke="#bfbfbf" points="282,-0.5 282,-19.5 314,-19.5 314,-0.5 282,-0.5"/>
<text text-anchor="middle" x="298" y="-7.5" font-family="Helvetica,sans-Serif" font-size="10.00">list</text>
</a>
</g>
</g>
<!-- Node3&#45;&gt;Node8 -->
<g id="edge7" class="edge">
<title>Node3&#45;&gt;Node8</title>
<path fill="none" stroke="midnightblue" d="M298,-56.08C298,-49.01 298,-38.86 298,-29.99"/>
<polygon fill="midnightblue" stroke="midnightblue" points="301.5,-29.75 298,-19.75 294.5,-29.75 301.5,-29.75"/>
</g>
<!-- Node3&#45;&gt;Node9 -->
<g id="edge8" class="edge">
<title>Node3&#45;&gt;Node9</title>
<path fill="none" stroke="midnightblue" d="M271.35,-57.26C239.86,-48.12 187.18,-32.83 151.07,-22.34"/>
<polygon fill="midnightblue" stroke="midnightblue" points="151.94,-18.95 141.36,-19.52 149.99,-25.67 151.94,-18.95"/>
</g>
<!-- Node10 -->
<g id="node10" class="node">
<title>Node10</title>
<g id="a_node10"><a xlink:title=" ">
<polygon fill="white" stroke="#bfbfbf" points="332,-0.5 332,-19.5 388,-19.5 388,-0.5 332,-0.5"/>
<text text-anchor="middle" x="360" y="-7.5" font-family="Helvetica,sans-Serif" font-size="10.00">iomanip</text>
</a>
</g>
</g>
<!-- Node3&#45;&gt;Node10 -->
<g id="edge9" class="edge">
<title>Node3&#45;&gt;Node10</title>
<path fill="none" stroke="midnightblue" d="M307.96,-56.32C317.13,-48.34 330.94,-36.31 342.03,-26.65"/>
<polygon fill="midnightblue" stroke="midnightblue" points="344.62,-29.04 349.86,-19.83 340.02,-23.76 344.62,-29.04"/>
</g>
<!-- Node11 -->
<g id="node11" class="node">
<title>Node11</title>
<g id="a_node11"><a xlink:title=" ">
<polygon fill="white" stroke="#bfbfbf" points="406.5,-0.5 406.5,-19.5 461.5,-19.5 461.5,-0.5 406.5,-0.5"/>
<text text-anchor="middle" x="434" y="-7.5" font-family="Helvetica,sans-Serif" font-size="10.00">fstream</text>
</a>
</g>
</g>
<!-- Node3&#45;&gt;Node11 -->
<g id="edge10" class="edge">
<title>Node3&#45;&gt;Node11</title>
<path fill="none" stroke="midnightblue" d="M319.55,-56.44C342.03,-47.52 377.49,-33.44 402.98,-23.32"/>
<polygon fill="midnightblue" stroke="midnightblue" points="404.55,-26.46 412.55,-19.52 401.97,-19.95 404.55,-26.46"/>
</g>
<!-- Node12 -->
<g id="node12" class="node">
<title>Node12</title>
<g id="a_node12"><a xlink:title=" ">
<polygon fill="white" stroke="#bfbfbf" points="480,-0.5 480,-19.5 532,-19.5 532,-0.5 480,-0.5"/>
<text text-anchor="middle" x="506" y="-7.5" font-family="Helvetica,sans-Serif" font-size="10.00">cassert</text>
</a>
</g>
</g>
<!-- Node3&#45;&gt;Node12 -->
<g id="edge11" class="edge">
<title>Node3&#45;&gt;Node12</title>
<path fill="none" stroke="midnightblue" d="M324.77,-58.05C361.79,-48.44 428.72,-31.06 470.06,-20.33"/>
<polygon fill="midnightblue" stroke="midnightblue" points="471.19,-23.65 479.99,-17.75 469.43,-16.88 471.19,-23.65"/>
</g>
<!-- Node13 -->
<g id="node13" class="node">
<title>Node13</title>
<g id="a_node13"><a xlink:title=" ">
<polygon fill="white" stroke="#bfbfbf" points="550.5,-0.5 550.5,-19.5 597.5,-19.5 597.5,-0.5 550.5,-0.5"/>
<text text-anchor="middle" x="574" y="-7.5" font-family="Helvetica,sans-Serif" font-size="10.00">cmath</text>
</a>
</g>
</g>
<!-- Node3&#45;&gt;Node13 -->
<g id="edge12" class="edge">
<title>Node3&#45;&gt;Node13</title>
<path fill="none" stroke="midnightblue" d="M324.69,-58.1C327.82,-57.36 330.97,-56.64 334,-56 422.23,-37.32 448.1,-40.09 540.24,-19.98"/>
<polygon fill="midnightblue" stroke="midnightblue" points="541.27,-23.34 550.27,-17.76 539.75,-16.5 541.27,-23.34"/>
</g>
<!-- Node19 -->
<g id="node19" class="node">
<title>Node19</title>
<g id="a_node19"><a xlink:title=" ">
<polygon fill="white" stroke="#bfbfbf" points="666.5,-0.5 666.5,-19.5 725.5,-19.5 725.5,-0.5 666.5,-0.5"/>
<text text-anchor="middle" x="696" y="-7.5" font-family="Helvetica,sans-Serif" font-size="10.00">Python.h</text>
</a>
</g>
</g>
<!-- Node18&#45;&gt;Node19 -->
<g id="edge18" class="edge">
<title>Node18&#45;&gt;Node19</title>
<path fill="none" stroke="midnightblue" d="M629.69,-56.32C641.9,-47.98 660.58,-35.21 675,-25.35"/>
<polygon fill="midnightblue" stroke="midnightblue" points="677.06,-28.19 683.34,-19.65 673.11,-22.41 677.06,-28.19"/>
</g>
</g>
</svg>
