<?xml version="1.0" encoding="UTF-8" standalone="no"?>
<!DOCTYPE svg PUBLIC "-//W3C//DTD SVG 1.1//EN"
 "http://www.w3.org/Graphics/SVG/1.1/DTD/svg11.dtd">
<!-- Generated by graphviz version 2.44.1 (20200629.0846)
 -->
<!-- Title: SizeField.cpp Pages: 1 -->
<svg width="1165pt" height="196pt"
 viewBox="0.00 0.00 1165.00 196.00" xmlns="http://www.w3.org/2000/svg" xmlns:xlink="http://www.w3.org/1999/xlink">
<g id="graph0" class="graph" transform="scale(1 1) rotate(0) translate(4 192)">
<title>SizeField.cpp</title>
<polygon fill="white" stroke="transparent" points="-4,4 -4,-192 1161,-192 1161,4 -4,4"/>
<!-- Node1 -->
<g id="node1" class="node">
<title>Node1</title>
<g id="a_node1"><a xlink:title=" ">
<polygon fill="#bfbfbf" stroke="black" points="503,-168.5 503,-187.5 579,-187.5 579,-168.5 503,-168.5"/>
<text text-anchor="middle" x="541" y="-175.5" font-family="Helvetica,sans-Serif" font-size="10.00">SizeField.cpp</text>
</a>
</g>
</g>
<!-- Node2 -->
<g id="node2" class="node">
<title>Node2</title>
<g id="a_node2"><a xlink:href="_mesh_adapt_p_u_m_i_8h.html" target="_top" xlink:title=" ">
<polygon fill="white" stroke="black" points="229,-112.5 229,-131.5 329,-131.5 329,-112.5 229,-112.5"/>
<text text-anchor="middle" x="279" y="-119.5" font-family="Helvetica,sans-Serif" font-size="10.00">MeshAdaptPUMI.h</text>
</a>
</g>
</g>
<!-- Node1&#45;&gt;Node2 -->
<g id="edge1" class="edge">
<title>Node1&#45;&gt;Node2</title>
<path fill="none" stroke="midnightblue" d="M502.9,-169.15C457.49,-159.79 381.4,-144.11 330.7,-133.66"/>
<polygon fill="midnightblue" stroke="midnightblue" points="331.11,-130.17 320.61,-131.58 329.69,-137.02 331.11,-130.17"/>
</g>
<!-- Node6 -->
<g id="node6" class="node">
<title>Node6</title>
<g id="a_node6"><a xlink:title=" ">
<polygon fill="white" stroke="#bfbfbf" points="0,-0.5 0,-19.5 56,-19.5 56,-0.5 0,-0.5"/>
<text text-anchor="middle" x="28" y="-7.5" font-family="Helvetica,sans-Serif" font-size="10.00">algorithm</text>
</a>
</g>
</g>
<!-- Node1&#45;&gt;Node6 -->
<g id="edge29" class="edge">
<title>Node1&#45;&gt;Node6</title>
<path fill="none" stroke="midnightblue" d="M502.72,-175.09C420.72,-170.56 230.82,-157.57 172,-132 116.06,-107.68 65.09,-54.44 41.62,-27.42"/>
<polygon fill="midnightblue" stroke="midnightblue" points="44.14,-24.98 34.99,-19.64 38.81,-29.52 44.14,-24.98"/>
</g>
<!-- Node9 -->
<g id="node9" class="node">
<title>Node9</title>
<g id="a_node9"><a xlink:title=" ">
<polygon fill="white" stroke="#bfbfbf" points="74,-0.5 74,-19.5 128,-19.5 128,-0.5 74,-0.5"/>
<text text-anchor="middle" x="101" y="-7.5" font-family="Helvetica,sans-Serif" font-size="10.00">iostream</text>
</a>
</g>
</g>
<!-- Node1&#45;&gt;Node9 -->
<g id="edge24" class="edge">
<title>Node1&#45;&gt;Node9</title>
<path fill="none" stroke="midnightblue" d="M502.98,-175.37C425.85,-171.51 254,-159.95 203,-132 158.58,-107.65 125.24,-55.62 110.06,-28.4"/>
<polygon fill="midnightblue" stroke="midnightblue" points="113.13,-26.73 105.3,-19.6 106.97,-30.06 113.13,-26.73"/>
</g>
<!-- Node14 -->
<g id="node14" class="node">
<title>Node14</title>
<g id="a_node14"><a xlink:title=" ">
<polygon fill="white" stroke="#bfbfbf" points="182,-56.5 182,-75.5 220,-75.5 220,-56.5 182,-56.5"/>
<text text-anchor="middle" x="201" y="-63.5" font-family="Helvetica,sans-Serif" font-size="10.00">apf.h</text>
</a>
</g>
</g>
<!-- Node1&#45;&gt;Node14 -->
<g id="edge17" class="edge">
<title>Node1&#45;&gt;Node14</title>
<path fill="none" stroke="midnightblue" d="M502.95,-176.68C427.3,-175.27 261.67,-168.02 220,-132 206.82,-120.6 202.53,-100.61 201.26,-85.8"/>
<polygon fill="midnightblue" stroke="midnightblue" points="204.75,-85.54 200.77,-75.71 197.76,-85.87 204.75,-85.54"/>
</g>
<!-- Node17 -->
<g id="node17" class="node">
<title>Node17</title>
<g id="a_node17"><a xlink:title=" ">
<polygon fill="white" stroke="#bfbfbf" points="496.5,-56.5 496.5,-75.5 539.5,-75.5 539.5,-56.5 496.5,-56.5"/>
<text text-anchor="middle" x="518" y="-63.5" font-family="Helvetica,sans-Serif" font-size="10.00">queue</text>
</a>
</g>
</g>
<!-- Node1&#45;&gt;Node17 -->
<g id="edge28" class="edge">
<title>Node1&#45;&gt;Node17</title>
<path fill="none" stroke="midnightblue" d="M502.83,-171.97C459.05,-165.32 391.32,-152.06 376,-132 370.6,-124.94 370.75,-119.17 376,-112 377.7,-109.68 445.56,-88.87 486.85,-76.37"/>
<polygon fill="midnightblue" stroke="midnightblue" points="487.9,-79.71 496.46,-73.47 485.88,-73.01 487.9,-79.71"/>
</g>
<!-- Node18 -->
<g id="node18" class="node">
<title>Node18</title>
<g id="a_node18"><a xlink:title=" ">
<polygon fill="white" stroke="#bfbfbf" points="385,-112.5 385,-131.5 451,-131.5 451,-112.5 385,-112.5"/>
<text text-anchor="middle" x="418" y="-119.5" font-family="Helvetica,sans-Serif" font-size="10.00">apfVector.h</text>
</a>
</g>
</g>
<!-- Node1&#45;&gt;Node18 -->
<g id="edge18" class="edge">
<title>Node1&#45;&gt;Node18</title>
<path fill="none" stroke="midnightblue" d="M521.51,-168.44C501.36,-159.6 469.68,-145.69 446.67,-135.59"/>
<polygon fill="midnightblue" stroke="midnightblue" points="447.96,-132.33 437.4,-131.52 445.15,-138.74 447.96,-132.33"/>
</g>
<!-- Node19 -->
<g id="node19" class="node">
<title>Node19</title>
<g id="a_node19"><a xlink:title=" ">
<polygon fill="white" stroke="#bfbfbf" points="469,-112.5 469,-131.5 531,-131.5 531,-112.5 469,-112.5"/>
<text text-anchor="middle" x="500" y="-119.5" font-family="Helvetica,sans-Serif" font-size="10.00">apfMesh.h</text>
</a>
</g>
</g>
<!-- Node1&#45;&gt;Node19 -->
<g id="edge19" class="edge">
<title>Node1&#45;&gt;Node19</title>
<path fill="none" stroke="midnightblue" d="M534.23,-168.08C528.44,-160.46 519.94,-149.26 512.86,-139.94"/>
<polygon fill="midnightblue" stroke="midnightblue" points="515.48,-137.6 506.64,-131.75 509.9,-141.83 515.48,-137.6"/>
</g>
<!-- Node20 -->
<g id="node20" class="node">
<title>Node20</title>
<g id="a_node20"><a xlink:title=" ">
<polygon fill="white" stroke="#bfbfbf" points="549,-112.5 549,-131.5 615,-131.5 615,-112.5 549,-112.5"/>
<text text-anchor="middle" x="582" y="-119.5" font-family="Helvetica,sans-Serif" font-size="10.00">apfShape.h</text>
</a>
</g>
</g>
<!-- Node1&#45;&gt;Node20 -->
<g id="edge20" class="edge">
<title>Node1&#45;&gt;Node20</title>
<path fill="none" stroke="midnightblue" d="M547.77,-168.08C553.56,-160.46 562.06,-149.26 569.14,-139.94"/>
<polygon fill="midnightblue" stroke="midnightblue" points="572.1,-141.83 575.36,-131.75 566.52,-137.6 572.1,-141.83"/>
</g>
<!-- Node21 -->
<g id="node21" class="node">
<title>Node21</title>
<g id="a_node21"><a xlink:title=" ">
<polygon fill="white" stroke="#bfbfbf" points="633.5,-112.5 633.5,-131.5 738.5,-131.5 738.5,-112.5 633.5,-112.5"/>
<text text-anchor="middle" x="686" y="-119.5" font-family="Helvetica,sans-Serif" font-size="10.00">apfDynamicVector.h</text>
</a>
</g>
</g>
<!-- Node1&#45;&gt;Node21 -->
<g id="edge21" class="edge">
<title>Node1&#45;&gt;Node21</title>
<path fill="none" stroke="midnightblue" d="M563.98,-168.44C588.16,-159.44 626.42,-145.19 653.65,-135.05"/>
<polygon fill="midnightblue" stroke="midnightblue" points="654.98,-138.29 663.13,-131.52 652.54,-131.73 654.98,-138.29"/>
</g>
<!-- Node22 -->
<g id="node22" class="node">
<title>Node22</title>
<g id="a_node22"><a xlink:title=" ">
<polygon fill="white" stroke="#bfbfbf" points="757,-112.5 757,-131.5 837,-131.5 837,-112.5 757,-112.5"/>
<text text-anchor="middle" x="797" y="-119.5" font-family="Helvetica,sans-Serif" font-size="10.00">apfCavityOp.h</text>
</a>
</g>
</g>
<!-- Node1&#45;&gt;Node22 -->
<g id="edge22" class="edge">
<title>Node1&#45;&gt;Node22</title>
<path fill="none" stroke="midnightblue" d="M579.05,-168.97C623.61,-159.57 697.59,-143.97 746.82,-133.58"/>
<polygon fill="midnightblue" stroke="midnightblue" points="747.56,-137 756.63,-131.52 746.12,-130.16 747.56,-137"/>
</g>
<!-- Node23 -->
<g id="node23" class="node">
<title>Node23</title>
<g id="a_node23"><a xlink:title=" ">
<polygon fill="white" stroke="#bfbfbf" points="855.5,-112.5 855.5,-131.5 896.5,-131.5 896.5,-112.5 855.5,-112.5"/>
<text text-anchor="middle" x="876" y="-119.5" font-family="Helvetica,sans-Serif" font-size="10.00">string</text>
</a>
</g>
</g>
<!-- Node1&#45;&gt;Node23 -->
<g id="edge23" class="edge">
<title>Node1&#45;&gt;Node23</title>
<path fill="none" stroke="midnightblue" d="M579.36,-173.15C635.68,-167.1 744.12,-153.96 845.65,-131.77"/>
<polygon fill="midnightblue" stroke="midnightblue" points="846.44,-135.18 855.45,-129.59 844.93,-128.34 846.44,-135.18"/>
</g>
<!-- Node24 -->
<g id="node24" class="node">
<title>Node24</title>
<g id="a_node24"><a xlink:title=" ">
<polygon fill="white" stroke="#bfbfbf" points="915,-112.5 915,-131.5 967,-131.5 967,-112.5 915,-112.5"/>
<text text-anchor="middle" x="941" y="-119.5" font-family="Helvetica,sans-Serif" font-size="10.00">sstream</text>
</a>
</g>
</g>
<!-- Node1&#45;&gt;Node24 -->
<g id="edge25" class="edge">
<title>Node1&#45;&gt;Node24</title>
<path fill="none" stroke="midnightblue" d="M579.08,-173.94C643.99,-168.36 780.31,-155.12 904.64,-132.04"/>
<polygon fill="midnightblue" stroke="midnightblue" points="905.53,-135.44 914.71,-130.15 904.23,-128.56 905.53,-135.44"/>
</g>
<!-- Node25 -->
<g id="node25" class="node">
<title>Node25</title>
<g id="a_node25"><a xlink:title=" ">
<polygon fill="white" stroke="#bfbfbf" points="985.5,-112.5 985.5,-131.5 1032.5,-131.5 1032.5,-112.5 985.5,-112.5"/>
<text text-anchor="middle" x="1009" y="-119.5" font-family="Helvetica,sans-Serif" font-size="10.00">PCU.h</text>
</a>
</g>
</g>
<!-- Node1&#45;&gt;Node25 -->
<g id="edge26" class="edge">
<title>Node1&#45;&gt;Node25</title>
<path fill="none" stroke="midnightblue" d="M579.12,-175.15C653.52,-171.09 823.34,-159.62 975.33,-131.81"/>
<polygon fill="midnightblue" stroke="midnightblue" points="976.12,-135.22 985.31,-129.96 974.84,-128.34 976.12,-135.22"/>
</g>
<!-- Node26 -->
<g id="node26" class="node">
<title>Node26</title>
<g id="a_node26"><a xlink:title=" ">
<polygon fill="white" stroke="#bfbfbf" points="1051,-112.5 1051,-131.5 1157,-131.5 1157,-112.5 1051,-112.5"/>
<text text-anchor="middle" x="1104" y="-119.5" font-family="Helvetica,sans-Serif" font-size="10.00">samElementCount.h</text>
</a>
</g>
</g>
<!-- Node1&#45;&gt;Node26 -->
<g id="edge27" class="edge">
<title>Node1&#45;&gt;Node26</title>
<path fill="none" stroke="midnightblue" d="M579.1,-174.29C661.37,-168.29 861.99,-152.83 1040.81,-132.08"/>
<polygon fill="midnightblue" stroke="midnightblue" points="1041.4,-135.54 1050.93,-130.9 1040.59,-128.58 1041.4,-135.54"/>
</g>
<!-- Node3 -->
<g id="node3" class="node">
<title>Node3</title>
<g id="a_node3"><a xlink:href="mesh_8h.html" target="_top" xlink:title=" ">
<polygon fill="white" stroke="black" points="238.5,-56.5 238.5,-75.5 287.5,-75.5 287.5,-56.5 238.5,-56.5"/>
<text text-anchor="middle" x="263" y="-63.5" font-family="Helvetica,sans-Serif" font-size="10.00">mesh.h</text>
</a>
</g>
</g>
<!-- Node2&#45;&gt;Node3 -->
<g id="edge2" class="edge">
<title>Node2&#45;&gt;Node3</title>
<path fill="none" stroke="midnightblue" d="M276.36,-112.08C274.21,-104.85 271.12,-94.41 268.45,-85.4"/>
<polygon fill="midnightblue" stroke="midnightblue" points="271.79,-84.34 265.59,-75.75 265.08,-86.33 271.79,-84.34"/>
</g>
<!-- Node2&#45;&gt;Node14 -->
<g id="edge13" class="edge">
<title>Node2&#45;&gt;Node14</title>
<path fill="none" stroke="midnightblue" d="M266.47,-112.32C254.41,-103.98 235.97,-91.21 221.73,-81.35"/>
<polygon fill="midnightblue" stroke="midnightblue" points="223.72,-78.47 213.5,-75.65 219.73,-84.22 223.72,-78.47"/>
</g>
<!-- Node15 -->
<g id="node15" class="node">
<title>Node15</title>
<g id="a_node15"><a xlink:title=" ">
<polygon fill="white" stroke="#bfbfbf" points="306,-56.5 306,-75.5 374,-75.5 374,-56.5 306,-56.5"/>
<text text-anchor="middle" x="340" y="-63.5" font-family="Helvetica,sans-Serif" font-size="10.00">apfMesh2.h</text>
</a>
</g>
</g>
<!-- Node2&#45;&gt;Node15 -->
<g id="edge14" class="edge">
<title>Node2&#45;&gt;Node15</title>
<path fill="none" stroke="midnightblue" d="M288.8,-112.32C297.82,-104.34 311.41,-92.31 322.32,-82.65"/>
<polygon fill="midnightblue" stroke="midnightblue" points="324.85,-85.08 330.02,-75.83 320.21,-79.84 324.85,-85.08"/>
</g>
<!-- Node16 -->
<g id="node16" class="node">
<title>Node16</title>
<g id="a_node16"><a xlink:title=" ">
<polygon fill="white" stroke="#bfbfbf" points="392,-56.5 392,-75.5 478,-75.5 478,-56.5 392,-56.5"/>
<text text-anchor="middle" x="435" y="-63.5" font-family="Helvetica,sans-Serif" font-size="10.00">apfNumbering.h</text>
</a>
</g>
</g>
<!-- Node2&#45;&gt;Node16 -->
<g id="edge15" class="edge">
<title>Node2&#45;&gt;Node16</title>
<path fill="none" stroke="midnightblue" d="M303.72,-112.44C329.85,-103.4 371.26,-89.06 400.58,-78.92"/>
<polygon fill="midnightblue" stroke="midnightblue" points="402.09,-82.1 410.4,-75.52 399.8,-75.48 402.09,-82.1"/>
</g>
<!-- Node2&#45;&gt;Node17 -->
<g id="edge16" class="edge">
<title>Node2&#45;&gt;Node17</title>
<path fill="none" stroke="midnightblue" d="M322.63,-112.48C362.71,-104.45 423.97,-91.66 486.35,-76.02"/>
<polygon fill="midnightblue" stroke="midnightblue" points="487.54,-79.33 496.37,-73.49 485.82,-72.55 487.54,-79.33"/>
</g>
<!-- Node4 -->
<g id="node4" class="node">
<title>Node4</title>
<g id="a_node4"><a xlink:title=" ">
<polygon fill="white" stroke="#bfbfbf" points="276,-0.5 276,-19.5 306,-19.5 306,-0.5 276,-0.5"/>
<text text-anchor="middle" x="291" y="-7.5" font-family="Helvetica,sans-Serif" font-size="10.00">set</text>
</a>
</g>
</g>
<!-- Node3&#45;&gt;Node4 -->
<g id="edge3" class="edge">
<title>Node3&#45;&gt;Node4</title>
<path fill="none" stroke="midnightblue" d="M267.62,-56.08C271.46,-48.69 277.02,-37.95 281.76,-28.81"/>
<polygon fill="midnightblue" stroke="midnightblue" points="284.97,-30.24 286.46,-19.75 278.75,-27.02 284.97,-30.24"/>
</g>
<!-- Node5 -->
<g id="node5" class="node">
<title>Node5</title>
<g id="a_node5"><a xlink:title=" ">
<polygon fill="white" stroke="#bfbfbf" points="324,-0.5 324,-19.5 368,-19.5 368,-0.5 324,-0.5"/>
<text text-anchor="middle" x="346" y="-7.5" font-family="Helvetica,sans-Serif" font-size="10.00">vector</text>
</a>
</g>
</g>
<!-- Node3&#45;&gt;Node5 -->
<g id="edge4" class="edge">
<title>Node3&#45;&gt;Node5</title>
<path fill="none" stroke="midnightblue" d="M276.34,-56.32C289.16,-47.98 308.78,-35.21 323.94,-25.35"/>
<polygon fill="midnightblue" stroke="midnightblue" points="326.22,-28.04 332.7,-19.65 322.41,-22.17 326.22,-28.04"/>
</g>
<!-- Node3&#45;&gt;Node6 -->
<g id="edge5" class="edge">
<title>Node3&#45;&gt;Node6</title>
<path fill="none" stroke="midnightblue" d="M238.15,-58.29C235.07,-57.5 231.97,-56.72 229,-56 159.59,-39.2 139.42,-36.99 66.43,-20.29"/>
<polygon fill="midnightblue" stroke="midnightblue" points="66.8,-16.78 56.27,-17.94 65.23,-23.6 66.8,-16.78"/>
</g>
<!-- Node7 -->
<g id="node7" class="node">
<title>Node7</title>
<g id="a_node7"><a xlink:title=" ">
<polygon fill="white" stroke="#bfbfbf" points="386.5,-0.5 386.5,-19.5 421.5,-19.5 421.5,-0.5 386.5,-0.5"/>
<text text-anchor="middle" x="404" y="-7.5" font-family="Helvetica,sans-Serif" font-size="10.00">map</text>
</a>
</g>
</g>
<!-- Node3&#45;&gt;Node7 -->
<g id="edge6" class="edge">
<title>Node3&#45;&gt;Node7</title>
<path fill="none" stroke="midnightblue" d="M285.34,-56.44C310.13,-46.95 350.13,-31.63 376.74,-21.44"/>
<polygon fill="midnightblue" stroke="midnightblue" points="378.14,-24.65 386.23,-17.81 375.64,-18.11 378.14,-24.65"/>
</g>
<!-- Node8 -->
<g id="node8" class="node">
<title>Node8</title>
<g id="a_node8"><a xlink:title=" ">
<polygon fill="white" stroke="#bfbfbf" points="439.5,-0.5 439.5,-19.5 468.5,-19.5 468.5,-0.5 439.5,-0.5"/>
<text text-anchor="middle" x="454" y="-7.5" font-family="Helvetica,sans-Serif" font-size="10.00">list</text>
</a>
</g>
</g>
<!-- Node3&#45;&gt;Node8 -->
<g id="edge7" class="edge">
<title>Node3&#45;&gt;Node8</title>
<path fill="none" stroke="midnightblue" d="M287.61,-58.49C326.61,-48.15 400.61,-28.5 429.61,-20.01"/>
<polygon fill="midnightblue" stroke="midnightblue" points="430.96,-23.25 439.49,-16.96 428.9,-16.56 430.96,-23.25"/>
</g>
<!-- Node3&#45;&gt;Node9 -->
<g id="edge8" class="edge">
<title>Node3&#45;&gt;Node9</title>
<path fill="none" stroke="midnightblue" d="M238.4,-56.8C211.16,-47.72 167.04,-33.01 136.16,-22.72"/>
<polygon fill="midnightblue" stroke="midnightblue" points="137.23,-19.39 126.64,-19.55 135.02,-26.03 137.23,-19.39"/>
</g>
<!-- Node10 -->
<g id="node10" class="node">
<title>Node10</title>
<g id="a_node10"><a xlink:title=" ">
<polygon fill="white" stroke="#bfbfbf" points="487,-0.5 487,-19.5 537,-19.5 537,-0.5 487,-0.5"/>
<text text-anchor="middle" x="512" y="-7.5" font-family="Helvetica,sans-Serif" font-size="10.00">iomanip</text>
</a>
</g>
</g>
<!-- Node3&#45;&gt;Node10 -->
<g id="edge9" class="edge">
<title>Node3&#45;&gt;Node10</title>
<path fill="none" stroke="midnightblue" d="M287.84,-58.23C290.92,-57.45 294.03,-56.69 297,-56 373.78,-38.22 396.35,-38.45 476.7,-20.18"/>
<polygon fill="midnightblue" stroke="midnightblue" points="477.83,-23.51 486.79,-17.86 476.26,-16.69 477.83,-23.51"/>
</g>
<!-- Node11 -->
<g id="node11" class="node">
<title>Node11</title>
<g id="a_node11"><a xlink:title=" ">
<polygon fill="white" stroke="#bfbfbf" points="555,-0.5 555,-19.5 605,-19.5 605,-0.5 555,-0.5"/>
<text text-anchor="middle" x="580" y="-7.5" font-family="Helvetica,sans-Serif" font-size="10.00">fstream</text>
</a>
</g>
</g>
<!-- Node3&#45;&gt;Node11 -->
<g id="edge10" class="edge">
<title>Node3&#45;&gt;Node11</title>
<path fill="none" stroke="midnightblue" d="M287.8,-58.08C290.89,-57.33 294.01,-56.61 297,-56 403.46,-34.29 434.68,-41.88 544.98,-20"/>
<polygon fill="midnightblue" stroke="midnightblue" points="545.72,-23.42 554.83,-18.01 544.33,-16.56 545.72,-23.42"/>
</g>
<!-- Node12 -->
<g id="node12" class="node">
<title>Node12</title>
<g id="a_node12"><a xlink:title=" ">
<polygon fill="white" stroke="#bfbfbf" points="146.5,-0.5 146.5,-19.5 195.5,-19.5 195.5,-0.5 146.5,-0.5"/>
<text text-anchor="middle" x="171" y="-7.5" font-family="Helvetica,sans-Serif" font-size="10.00">cassert</text>
</a>
</g>
</g>
<!-- Node3&#45;&gt;Node12 -->
<g id="edge11" class="edge">
<title>Node3&#45;&gt;Node12</title>
<path fill="none" stroke="midnightblue" d="M248.22,-56.32C233.73,-47.82 211.43,-34.73 194.51,-24.8"/>
<polygon fill="midnightblue" stroke="midnightblue" points="196.14,-21.7 185.74,-19.65 192.6,-27.74 196.14,-21.7"/>
</g>
<!-- Node13 -->
<g id="node13" class="node">
<title>Node13</title>
<g id="a_node13"><a xlink:title=" ">
<polygon fill="white" stroke="#bfbfbf" points="214,-0.5 214,-19.5 258,-19.5 258,-0.5 214,-0.5"/>
<text text-anchor="middle" x="236" y="-7.5" font-family="Helvetica,sans-Serif" font-size="10.00">cmath</text>
</a>
</g>
</g>
<!-- Node3&#45;&gt;Node13 -->
<g id="edge12" class="edge">
<title>Node3&#45;&gt;Node13</title>
<path fill="none" stroke="midnightblue" d="M258.54,-56.08C254.85,-48.69 249.48,-37.95 244.91,-28.81"/>
<polygon fill="midnightblue" stroke="midnightblue" points="247.98,-27.13 240.38,-19.75 241.72,-30.26 247.98,-27.13"/>
</g>
</g>
</svg>
