<?xml version="1.0" encoding="UTF-8" standalone="no"?>
<!DOCTYPE svg PUBLIC "-//W3C//DTD SVG 1.1//EN"
 "http://www.w3.org/Graphics/SVG/1.1/DTD/svg11.dtd">
<!-- Generated by graphviz version 2.50.0 (20211204.2007)
 -->
<!-- Title: SizeField.cpp Pages: 1 -->
<svg width="1223pt" height="196pt"
 viewBox="0.00 0.00 1223.00 196.00" xmlns="http://www.w3.org/2000/svg" xmlns:xlink="http://www.w3.org/1999/xlink">
<g id="graph0" class="graph" transform="scale(1 1) rotate(0) translate(4 192)">
<title>SizeField.cpp</title>
<polygon fill="white" stroke="transparent" points="-4,4 -4,-192 1219,-192 1219,4 -4,4"/>
<!-- Node1 -->
<g id="node1" class="node">
<title>Node1</title>
<g id="a_node1"><a xlink:title=" ">
<polygon fill="#bfbfbf" stroke="black" points="561,-168.5 561,-187.5 637,-187.5 637,-168.5 561,-168.5"/>
<text text-anchor="middle" x="599" y="-175.5" font-family="Helvetica,sans-Serif" font-size="10.00">SizeField.cpp</text>
</a>
</g>
</g>
<!-- Node2 -->
<g id="node2" class="node">
<title>Node2</title>
<g id="a_node2"><a xlink:href="_mesh_adapt_p_u_m_i_8h.html" target="_top" xlink:title=" ">
<polygon fill="white" stroke="black" points="287,-112.5 287,-131.5 387,-131.5 387,-112.5 287,-112.5"/>
<text text-anchor="middle" x="337" y="-119.5" font-family="Helvetica,sans-Serif" font-size="10.00">MeshAdaptPUMI.h</text>
</a>
</g>
</g>
<!-- Node1&#45;&gt;Node2 -->
<g id="edge1" class="edge">
<title>Node1&#45;&gt;Node2</title>
<path fill="none" stroke="midnightblue" d="M560.9,-169.15C515.49,-159.79 439.4,-144.11 388.7,-133.66"/>
<polygon fill="midnightblue" stroke="midnightblue" points="389.11,-130.17 378.61,-131.58 387.69,-137.02 389.11,-130.17"/>
</g>
<!-- Node6 -->
<g id="node6" class="node">
<title>Node6</title>
<g id="a_node6"><a xlink:title=" ">
<polygon fill="white" stroke="#bfbfbf" points="0,-0.5 0,-19.5 56,-19.5 56,-0.5 0,-0.5"/>
<text text-anchor="middle" x="28" y="-7.5" font-family="Helvetica,sans-Serif" font-size="10.00">algorithm</text>
</a>
</g>
</g>
<!-- Node1&#45;&gt;Node6 -->
<g id="edge31" class="edge">
<title>Node1&#45;&gt;Node6</title>
<path fill="none" stroke="midnightblue" d="M560.68,-174.88C475.53,-169.78 273.06,-155.53 209,-132 141.87,-107.34 75.1,-53.03 44.82,-26.37"/>
<polygon fill="midnightblue" stroke="midnightblue" points="47.07,-23.69 37.28,-19.64 42.41,-28.91 47.07,-23.69"/>
</g>
<!-- Node9 -->
<g id="node9" class="node">
<title>Node9</title>
<g id="a_node9"><a xlink:title=" ">
<polygon fill="white" stroke="#bfbfbf" points="74,-0.5 74,-19.5 128,-19.5 128,-0.5 74,-0.5"/>
<text text-anchor="middle" x="101" y="-7.5" font-family="Helvetica,sans-Serif" font-size="10.00">iostream</text>
</a>
</g>
</g>
<!-- Node1&#45;&gt;Node9 -->
<g id="edge26" class="edge">
<title>Node1&#45;&gt;Node9</title>
<path fill="none" stroke="midnightblue" d="M560.81,-174.78C481.91,-169.75 303.62,-156.05 248,-132 191.33,-107.5 139.1,-54.33 115,-27.38"/>
<polygon fill="midnightblue" stroke="midnightblue" points="117.42,-24.83 108.19,-19.62 112.15,-29.44 117.42,-24.83"/>
</g>
<!-- Node14 -->
<g id="node14" class="node">
<title>Node14</title>
<g id="a_node14"><a xlink:title=" ">
<polygon fill="white" stroke="#bfbfbf" points="195,-56.5 195,-75.5 233,-75.5 233,-56.5 195,-56.5"/>
<text text-anchor="middle" x="214" y="-63.5" font-family="Helvetica,sans-Serif" font-size="10.00">apf.h</text>
</a>
</g>
</g>
<!-- Node1&#45;&gt;Node14 -->
<g id="edge19" class="edge">
<title>Node1&#45;&gt;Node14</title>
<path fill="none" stroke="midnightblue" d="M560.79,-174.72C486.78,-169.8 326.89,-156.6 278,-132 256,-120.93 237.12,-99.33 225.68,-84.07"/>
<polygon fill="midnightblue" stroke="midnightblue" points="228.52,-82.03 219.84,-75.95 222.83,-86.11 228.52,-82.03"/>
</g>
<!-- Node17 -->
<g id="node17" class="node">
<title>Node17</title>
<g id="a_node17"><a xlink:title=" ">
<polygon fill="white" stroke="#bfbfbf" points="653.5,-56.5 653.5,-75.5 696.5,-75.5 696.5,-56.5 653.5,-56.5"/>
<text text-anchor="middle" x="675" y="-63.5" font-family="Helvetica,sans-Serif" font-size="10.00">queue</text>
</a>
</g>
</g>
<!-- Node1&#45;&gt;Node17 -->
<g id="edge30" class="edge">
<title>Node1&#45;&gt;Node17</title>
<path fill="none" stroke="midnightblue" d="M560.94,-174.94C501.47,-170.33 396.99,-155.9 434,-112 462.79,-77.85 583.08,-85.54 643.25,-75.6"/>
<polygon fill="midnightblue" stroke="midnightblue" points="644.26,-78.97 653.4,-73.61 642.91,-72.1 644.26,-78.97"/>
</g>
<!-- Node20 -->
<g id="node20" class="node">
<title>Node20</title>
<g id="a_node20"><a xlink:title=" ">
<polygon fill="white" stroke="#bfbfbf" points="443,-112.5 443,-131.5 509,-131.5 509,-112.5 443,-112.5"/>
<text text-anchor="middle" x="476" y="-119.5" font-family="Helvetica,sans-Serif" font-size="10.00">apfVector.h</text>
</a>
</g>
</g>
<!-- Node1&#45;&gt;Node20 -->
<g id="edge20" class="edge">
<title>Node1&#45;&gt;Node20</title>
<path fill="none" stroke="midnightblue" d="M579.51,-168.44C559.36,-159.6 527.68,-145.69 504.67,-135.59"/>
<polygon fill="midnightblue" stroke="midnightblue" points="505.96,-132.33 495.4,-131.52 503.15,-138.74 505.96,-132.33"/>
</g>
<!-- Node21 -->
<g id="node21" class="node">
<title>Node21</title>
<g id="a_node21"><a xlink:title=" ">
<polygon fill="white" stroke="#bfbfbf" points="527,-112.5 527,-131.5 589,-131.5 589,-112.5 527,-112.5"/>
<text text-anchor="middle" x="558" y="-119.5" font-family="Helvetica,sans-Serif" font-size="10.00">apfMesh.h</text>
</a>
</g>
</g>
<!-- Node1&#45;&gt;Node21 -->
<g id="edge21" class="edge">
<title>Node1&#45;&gt;Node21</title>
<path fill="none" stroke="midnightblue" d="M592.23,-168.08C586.44,-160.46 577.94,-149.26 570.86,-139.94"/>
<polygon fill="midnightblue" stroke="midnightblue" points="573.48,-137.6 564.64,-131.75 567.9,-141.83 573.48,-137.6"/>
</g>
<!-- Node22 -->
<g id="node22" class="node">
<title>Node22</title>
<g id="a_node22"><a xlink:title=" ">
<polygon fill="white" stroke="#bfbfbf" points="607,-112.5 607,-131.5 673,-131.5 673,-112.5 607,-112.5"/>
<text text-anchor="middle" x="640" y="-119.5" font-family="Helvetica,sans-Serif" font-size="10.00">apfShape.h</text>
</a>
</g>
</g>
<!-- Node1&#45;&gt;Node22 -->
<g id="edge22" class="edge">
<title>Node1&#45;&gt;Node22</title>
<path fill="none" stroke="midnightblue" d="M605.77,-168.08C611.56,-160.46 620.06,-149.26 627.14,-139.94"/>
<polygon fill="midnightblue" stroke="midnightblue" points="630.1,-141.83 633.36,-131.75 624.52,-137.6 630.1,-141.83"/>
</g>
<!-- Node23 -->
<g id="node23" class="node">
<title>Node23</title>
<g id="a_node23"><a xlink:title=" ">
<polygon fill="white" stroke="#bfbfbf" points="691.5,-112.5 691.5,-131.5 796.5,-131.5 796.5,-112.5 691.5,-112.5"/>
<text text-anchor="middle" x="744" y="-119.5" font-family="Helvetica,sans-Serif" font-size="10.00">apfDynamicVector.h</text>
</a>
</g>
</g>
<!-- Node1&#45;&gt;Node23 -->
<g id="edge23" class="edge">
<title>Node1&#45;&gt;Node23</title>
<path fill="none" stroke="midnightblue" d="M621.98,-168.44C646.16,-159.44 684.42,-145.19 711.65,-135.05"/>
<polygon fill="midnightblue" stroke="midnightblue" points="712.98,-138.29 721.13,-131.52 710.54,-131.73 712.98,-138.29"/>
</g>
<!-- Node24 -->
<g id="node24" class="node">
<title>Node24</title>
<g id="a_node24"><a xlink:title=" ">
<polygon fill="white" stroke="#bfbfbf" points="815,-112.5 815,-131.5 895,-131.5 895,-112.5 815,-112.5"/>
<text text-anchor="middle" x="855" y="-119.5" font-family="Helvetica,sans-Serif" font-size="10.00">apfCavityOp.h</text>
</a>
</g>
</g>
<!-- Node1&#45;&gt;Node24 -->
<g id="edge24" class="edge">
<title>Node1&#45;&gt;Node24</title>
<path fill="none" stroke="midnightblue" d="M637.05,-168.97C681.61,-159.57 755.59,-143.97 804.82,-133.58"/>
<polygon fill="midnightblue" stroke="midnightblue" points="805.56,-137 814.63,-131.52 804.12,-130.16 805.56,-137"/>
</g>
<!-- Node25 -->
<g id="node25" class="node">
<title>Node25</title>
<g id="a_node25"><a xlink:title=" ">
<polygon fill="white" stroke="#bfbfbf" points="913.5,-112.5 913.5,-131.5 954.5,-131.5 954.5,-112.5 913.5,-112.5"/>
<text text-anchor="middle" x="934" y="-119.5" font-family="Helvetica,sans-Serif" font-size="10.00">string</text>
</a>
</g>
</g>
<!-- Node1&#45;&gt;Node25 -->
<g id="edge25" class="edge">
<title>Node1&#45;&gt;Node25</title>
<path fill="none" stroke="midnightblue" d="M637.36,-173.15C693.68,-167.1 802.12,-153.96 903.65,-131.77"/>
<polygon fill="midnightblue" stroke="midnightblue" points="904.44,-135.18 913.45,-129.59 902.93,-128.34 904.44,-135.18"/>
</g>
<!-- Node26 -->
<g id="node26" class="node">
<title>Node26</title>
<g id="a_node26"><a xlink:title=" ">
<polygon fill="white" stroke="#bfbfbf" points="973,-112.5 973,-131.5 1025,-131.5 1025,-112.5 973,-112.5"/>
<text text-anchor="middle" x="999" y="-119.5" font-family="Helvetica,sans-Serif" font-size="10.00">sstream</text>
</a>
</g>
</g>
<!-- Node1&#45;&gt;Node26 -->
<g id="edge27" class="edge">
<title>Node1&#45;&gt;Node26</title>
<path fill="none" stroke="midnightblue" d="M637.08,-173.94C701.99,-168.36 838.31,-155.12 962.64,-132.04"/>
<polygon fill="midnightblue" stroke="midnightblue" points="963.53,-135.44 972.71,-130.15 962.23,-128.56 963.53,-135.44"/>
</g>
<!-- Node27 -->
<g id="node27" class="node">
<title>Node27</title>
<g id="a_node27"><a xlink:title=" ">
<polygon fill="white" stroke="#bfbfbf" points="1043.5,-112.5 1043.5,-131.5 1090.5,-131.5 1090.5,-112.5 1043.5,-112.5"/>
<text text-anchor="middle" x="1067" y="-119.5" font-family="Helvetica,sans-Serif" font-size="10.00">PCU.h</text>
</a>
</g>
</g>
<!-- Node1&#45;&gt;Node27 -->
<g id="edge28" class="edge">
<title>Node1&#45;&gt;Node27</title>
<path fill="none" stroke="midnightblue" d="M637.12,-175.15C711.52,-171.09 881.34,-159.62 1033.33,-131.81"/>
<polygon fill="midnightblue" stroke="midnightblue" points="1034.12,-135.22 1043.31,-129.96 1032.84,-128.34 1034.12,-135.22"/>
</g>
<!-- Node28 -->
<g id="node28" class="node">
<title>Node28</title>
<g id="a_node28"><a xlink:title=" ">
<polygon fill="white" stroke="#bfbfbf" points="1109,-112.5 1109,-131.5 1215,-131.5 1215,-112.5 1109,-112.5"/>
<text text-anchor="middle" x="1162" y="-119.5" font-family="Helvetica,sans-Serif" font-size="10.00">samElementCount.h</text>
</a>
</g>
</g>
<!-- Node1&#45;&gt;Node28 -->
<g id="edge29" class="edge">
<title>Node1&#45;&gt;Node28</title>
<path fill="none" stroke="midnightblue" d="M637.1,-174.29C719.37,-168.29 919.99,-152.83 1098.81,-132.08"/>
<polygon fill="midnightblue" stroke="midnightblue" points="1099.4,-135.54 1108.93,-130.9 1098.59,-128.58 1099.4,-135.54"/>
</g>
<!-- Node3 -->
<g id="node3" class="node">
<title>Node3</title>
<g id="a_node3"><a xlink:href="mesh_8h.html" target="_top" xlink:title=" ">
<polygon fill="white" stroke="black" points="251.5,-56.5 251.5,-75.5 300.5,-75.5 300.5,-56.5 251.5,-56.5"/>
<text text-anchor="middle" x="276" y="-63.5" font-family="Helvetica,sans-Serif" font-size="10.00">mesh.h</text>
</a>
</g>
</g>
<!-- Node2&#45;&gt;Node3 -->
<g id="edge2" class="edge">
<title>Node2&#45;&gt;Node3</title>
<path fill="none" stroke="midnightblue" d="M327.2,-112.32C318.18,-104.34 304.59,-92.31 293.68,-82.65"/>
<polygon fill="midnightblue" stroke="midnightblue" points="295.79,-79.84 285.98,-75.83 291.15,-85.08 295.79,-79.84"/>
</g>
<!-- Node2&#45;&gt;Node14 -->
<g id="edge13" class="edge">
<title>Node2&#45;&gt;Node14</title>
<path fill="none" stroke="midnightblue" d="M317.51,-112.44C297.36,-103.6 265.68,-89.69 242.67,-79.59"/>
<polygon fill="midnightblue" stroke="midnightblue" points="243.96,-76.33 233.4,-75.52 241.15,-82.74 243.96,-76.33"/>
</g>
<!-- Node15 -->
<g id="node15" class="node">
<title>Node15</title>
<g id="a_node15"><a xlink:title=" ">
<polygon fill="white" stroke="#bfbfbf" points="319,-56.5 319,-75.5 387,-75.5 387,-56.5 319,-56.5"/>
<text text-anchor="middle" x="353" y="-63.5" font-family="Helvetica,sans-Serif" font-size="10.00">apfMesh2.h</text>
</a>
</g>
</g>
<!-- Node2&#45;&gt;Node15 -->
<g id="edge14" class="edge">
<title>Node2&#45;&gt;Node15</title>
<path fill="none" stroke="midnightblue" d="M339.64,-112.08C341.79,-104.85 344.88,-94.41 347.55,-85.4"/>
<polygon fill="midnightblue" stroke="midnightblue" points="350.92,-86.33 350.41,-75.75 344.21,-84.34 350.92,-86.33"/>
</g>
<!-- Node16 -->
<g id="node16" class="node">
<title>Node16</title>
<g id="a_node16"><a xlink:title=" ">
<polygon fill="white" stroke="#bfbfbf" points="405,-56.5 405,-75.5 491,-75.5 491,-56.5 405,-56.5"/>
<text text-anchor="middle" x="448" y="-63.5" font-family="Helvetica,sans-Serif" font-size="10.00">apfNumbering.h</text>
</a>
</g>
</g>
<!-- Node2&#45;&gt;Node16 -->
<g id="edge15" class="edge">
<title>Node2&#45;&gt;Node16</title>
<path fill="none" stroke="midnightblue" d="M354.83,-112.32C372.72,-103.62 400.48,-90.12 421.05,-80.11"/>
<polygon fill="midnightblue" stroke="midnightblue" points="422.75,-83.18 430.21,-75.65 419.69,-76.88 422.75,-83.18"/>
</g>
<!-- Node2&#45;&gt;Node17 -->
<g id="edge16" class="edge">
<title>Node2&#45;&gt;Node17</title>
<path fill="none" stroke="midnightblue" d="M387.19,-113.83C462.99,-102.97 601.56,-83.02 643.53,-75.59"/>
<polygon fill="midnightblue" stroke="midnightblue" points="644.26,-79.01 653.42,-73.68 642.93,-72.14 644.26,-79.01"/>
</g>
<!-- Node18 -->
<g id="node18" class="node">
<title>Node18</title>
<g id="a_node18"><a xlink:href="_py_embedded_functions_8h.html" target="_top" xlink:title=" ">
<polygon fill="white" stroke="black" points="509,-56.5 509,-75.5 635,-75.5 635,-56.5 509,-56.5"/>
<text text-anchor="middle" x="572" y="-63.5" font-family="Helvetica,sans-Serif" font-size="10.00">PyEmbeddedFunctions.h</text>
</a>
</g>
</g>
<!-- Node2&#45;&gt;Node18 -->
<g id="edge17" class="edge">
<title>Node2&#45;&gt;Node18</title>
<path fill="none" stroke="midnightblue" d="M374.24,-112.44C415.06,-103.06 480.64,-87.99 524.98,-77.8"/>
<polygon fill="midnightblue" stroke="midnightblue" points="525.98,-81.17 534.94,-75.52 524.41,-74.34 525.98,-81.17"/>
</g>
<!-- Node4 -->
<g id="node4" class="node">
<title>Node4</title>
<g id="a_node4"><a xlink:title=" ">
<polygon fill="white" stroke="#bfbfbf" points="575,-0.5 575,-19.5 605,-19.5 605,-0.5 575,-0.5"/>
<text text-anchor="middle" x="590" y="-7.5" font-family="Helvetica,sans-Serif" font-size="10.00">set</text>
</a>
</g>
</g>
<!-- Node3&#45;&gt;Node4 -->
<g id="edge3" class="edge">
<title>Node3&#45;&gt;Node4</title>
<path fill="none" stroke="midnightblue" d="M300.8,-58.07C303.89,-57.32 307.01,-56.6 310,-56 419.43,-33.9 452.77,-47.52 564.92,-19.76"/>
<polygon fill="midnightblue" stroke="midnightblue" points="566.09,-23.07 574.93,-17.22 564.37,-16.29 566.09,-23.07"/>
</g>
<!-- Node5 -->
<g id="node5" class="node">
<title>Node5</title>
<g id="a_node5"><a xlink:title=" ">
<polygon fill="white" stroke="#bfbfbf" points="146,-0.5 146,-19.5 190,-19.5 190,-0.5 146,-0.5"/>
<text text-anchor="middle" x="168" y="-7.5" font-family="Helvetica,sans-Serif" font-size="10.00">vector</text>
</a>
</g>
</g>
<!-- Node3&#45;&gt;Node5 -->
<g id="edge4" class="edge">
<title>Node3&#45;&gt;Node5</title>
<path fill="none" stroke="midnightblue" d="M258.65,-56.32C241.33,-47.66 214.48,-34.24 194.5,-24.25"/>
<polygon fill="midnightblue" stroke="midnightblue" points="195.82,-21 185.31,-19.65 192.69,-27.26 195.82,-21"/>
</g>
<!-- Node3&#45;&gt;Node6 -->
<g id="edge5" class="edge">
<title>Node3&#45;&gt;Node6</title>
<path fill="none" stroke="midnightblue" d="M251.16,-58.25C248.08,-57.46 244.97,-56.7 242,-56 166.88,-38.44 145.04,-37.54 66.16,-20.19"/>
<polygon fill="midnightblue" stroke="midnightblue" points="66.78,-16.74 56.26,-17.99 65.26,-23.57 66.78,-16.74"/>
</g>
<!-- Node7 -->
<g id="node7" class="node">
<title>Node7</title>
<g id="a_node7"><a xlink:title=" ">
<polygon fill="white" stroke="#bfbfbf" points="208.5,-0.5 208.5,-19.5 243.5,-19.5 243.5,-0.5 208.5,-0.5"/>
<text text-anchor="middle" x="226" y="-7.5" font-family="Helvetica,sans-Serif" font-size="10.00">map</text>
</a>
</g>
</g>
<!-- Node3&#45;&gt;Node7 -->
<g id="edge6" class="edge">
<title>Node3&#45;&gt;Node7</title>
<path fill="none" stroke="midnightblue" d="M267.74,-56.08C260.54,-48.3 249.89,-36.8 241.15,-27.37"/>
<polygon fill="midnightblue" stroke="midnightblue" points="243.47,-24.71 234.1,-19.75 238.33,-29.47 243.47,-24.71"/>
</g>
<!-- Node8 -->
<g id="node8" class="node">
<title>Node8</title>
<g id="a_node8"><a xlink:title=" ">
<polygon fill="white" stroke="#bfbfbf" points="261.5,-0.5 261.5,-19.5 290.5,-19.5 290.5,-0.5 261.5,-0.5"/>
<text text-anchor="middle" x="276" y="-7.5" font-family="Helvetica,sans-Serif" font-size="10.00">list</text>
</a>
</g>
</g>
<!-- Node3&#45;&gt;Node8 -->
<g id="edge7" class="edge">
<title>Node3&#45;&gt;Node8</title>
<path fill="none" stroke="midnightblue" d="M276,-56.08C276,-49.01 276,-38.86 276,-29.99"/>
<polygon fill="midnightblue" stroke="midnightblue" points="279.5,-29.75 276,-19.75 272.5,-29.75 279.5,-29.75"/>
</g>
<!-- Node3&#45;&gt;Node9 -->
<g id="edge8" class="edge">
<title>Node3&#45;&gt;Node9</title>
<path fill="none" stroke="midnightblue" d="M251.3,-57.38C221.71,-48.25 171.89,-32.87 137.77,-22.35"/>
<polygon fill="midnightblue" stroke="midnightblue" points="138.75,-18.99 128.16,-19.38 136.69,-25.68 138.75,-18.99"/>
</g>
<!-- Node10 -->
<g id="node10" class="node">
<title>Node10</title>
<g id="a_node10"><a xlink:title=" ">
<polygon fill="white" stroke="#bfbfbf" points="309,-0.5 309,-19.5 359,-19.5 359,-0.5 309,-0.5"/>
<text text-anchor="middle" x="334" y="-7.5" font-family="Helvetica,sans-Serif" font-size="10.00">iomanip</text>
</a>
</g>
</g>
<!-- Node3&#45;&gt;Node10 -->
<g id="edge9" class="edge">
<title>Node3&#45;&gt;Node10</title>
<path fill="none" stroke="midnightblue" d="M285.32,-56.32C293.89,-48.34 306.81,-36.31 317.19,-26.65"/>
<polygon fill="midnightblue" stroke="midnightblue" points="319.58,-29.21 324.51,-19.83 314.81,-24.09 319.58,-29.21"/>
</g>
<!-- Node11 -->
<g id="node11" class="node">
<title>Node11</title>
<g id="a_node11"><a xlink:title=" ">
<polygon fill="white" stroke="#bfbfbf" points="377,-0.5 377,-19.5 427,-19.5 427,-0.5 377,-0.5"/>
<text text-anchor="middle" x="402" y="-7.5" font-family="Helvetica,sans-Serif" font-size="10.00">fstream</text>
</a>
</g>
</g>
<!-- Node3&#45;&gt;Node11 -->
<g id="edge10" class="edge">
<title>Node3&#45;&gt;Node11</title>
<path fill="none" stroke="midnightblue" d="M295.97,-56.44C316.61,-47.6 349.06,-33.69 372.63,-23.59"/>
<polygon fill="midnightblue" stroke="midnightblue" points="374.32,-26.67 382.13,-19.52 371.56,-20.24 374.32,-26.67"/>
</g>
<!-- Node12 -->
<g id="node12" class="node">
<title>Node12</title>
<g id="a_node12"><a xlink:title=" ">
<polygon fill="white" stroke="#bfbfbf" points="445.5,-0.5 445.5,-19.5 494.5,-19.5 494.5,-0.5 445.5,-0.5"/>
<text text-anchor="middle" x="470" y="-7.5" font-family="Helvetica,sans-Serif" font-size="10.00">cassert</text>
</a>
</g>
</g>
<!-- Node3&#45;&gt;Node12 -->
<g id="edge11" class="edge">
<title>Node3&#45;&gt;Node12</title>
<path fill="none" stroke="midnightblue" d="M300.57,-58.16C334.73,-48.65 396.74,-31.39 435.52,-20.6"/>
<polygon fill="midnightblue" stroke="midnightblue" points="436.63,-23.92 445.32,-17.87 434.75,-17.18 436.63,-23.92"/>
</g>
<!-- Node13 -->
<g id="node13" class="node">
<title>Node13</title>
<g id="a_node13"><a xlink:title=" ">
<polygon fill="white" stroke="#bfbfbf" points="513,-0.5 513,-19.5 557,-19.5 557,-0.5 513,-0.5"/>
<text text-anchor="middle" x="535" y="-7.5" font-family="Helvetica,sans-Serif" font-size="10.00">cmath</text>
</a>
</g>
</g>
<!-- Node3&#45;&gt;Node13 -->
<g id="edge12" class="edge">
<title>Node3&#45;&gt;Node13</title>
<path fill="none" stroke="midnightblue" d="M300.83,-58.2C303.91,-57.42 307.02,-56.67 310,-56 392.47,-37.46 416.92,-40.03 502.8,-20.09"/>
<polygon fill="midnightblue" stroke="midnightblue" points="503.79,-23.46 512.72,-17.75 502.18,-16.64 503.79,-23.46"/>
</g>
<!-- Node19 -->
<g id="node19" class="node">
<title>Node19</title>
<g id="a_node19"><a xlink:title=" ">
<polygon fill="white" stroke="#bfbfbf" points="623,-0.5 623,-19.5 679,-19.5 679,-0.5 623,-0.5"/>
<text text-anchor="middle" x="651" y="-7.5" font-family="Helvetica,sans-Serif" font-size="10.00">Python.h</text>
</a>
</g>
</g>
<!-- Node18&#45;&gt;Node19 -->
<g id="edge18" class="edge">
<title>Node18&#45;&gt;Node19</title>
<path fill="none" stroke="midnightblue" d="M584.69,-56.32C596.9,-47.98 615.58,-35.21 630,-25.35"/>
<polygon fill="midnightblue" stroke="midnightblue" points="632.06,-28.19 638.34,-19.65 628.11,-22.41 632.06,-28.19"/>
</g>
</g>
</svg>
