<?xml version="1.0" encoding="UTF-8" standalone="no"?>
<!DOCTYPE svg PUBLIC "-//W3C//DTD SVG 1.1//EN"
 "http://www.w3.org/Graphics/SVG/1.1/DTD/svg11.dtd">
<!-- Generated by graphviz version 2.40.1 (20161225.0304)
 -->
<!-- Title: SizeField.cpp Pages: 1 -->
<svg width="1225pt" height="196pt"
 viewBox="0.00 0.00 1225.00 196.00" xmlns="http://www.w3.org/2000/svg" xmlns:xlink="http://www.w3.org/1999/xlink">
<g id="graph0" class="graph" transform="scale(1 1) rotate(0) translate(4 192)">
<title>SizeField.cpp</title>
<polygon fill="#ffffff" stroke="transparent" points="-4,4 -4,-192 1221,-192 1221,4 -4,4"/>
<!-- Node0 -->
<g id="node1" class="node">
<title>Node0</title>
<polygon fill="#bfbfbf" stroke="#000000" points="563,-168.5 563,-187.5 639,-187.5 639,-168.5 563,-168.5"/>
<text text-anchor="middle" x="601" y="-175.5" font-family="Helvetica,sans-Serif" font-size="10.00" fill="#000000">SizeField.cpp</text>
</g>
<!-- Node1 -->
<g id="node2" class="node">
<title>Node1</title>
<g id="a_node2"><a xlink:href="_mesh_adapt_p_u_m_i_8h.html" target="_top" xlink:title="MeshAdaptPUMI.h">
<polygon fill="#ffffff" stroke="#000000" points="287,-112.5 287,-131.5 387,-131.5 387,-112.5 287,-112.5"/>
<text text-anchor="middle" x="337" y="-119.5" font-family="Helvetica,sans-Serif" font-size="10.00" fill="#000000">MeshAdaptPUMI.h</text>
</a>
</g>
</g>
<!-- Node0&#45;&gt;Node1 -->
<g id="edge1" class="edge">
<title>Node0&#45;&gt;Node1</title>
<path fill="none" stroke="#191970" d="M562.8941,-169.9169C518.0483,-160.4042 443.2239,-144.5323 392.0727,-133.6821"/>
<polygon fill="#191970" stroke="#191970" points="392.6826,-130.2337 382.174,-131.5824 391.23,-137.0813 392.6826,-130.2337"/>
</g>
<!-- Node5 -->
<g id="node6" class="node">
<title>Node5</title>
<polygon fill="#ffffff" stroke="#bfbfbf" points="0,-.5 0,-19.5 56,-19.5 56,-.5 0,-.5"/>
<text text-anchor="middle" x="28" y="-7.5" font-family="Helvetica,sans-Serif" font-size="10.00" fill="#000000">algorithm</text>
</g>
<!-- Node0&#45;&gt;Node5 -->
<g id="edge31" class="edge">
<title>Node0&#45;&gt;Node5</title>
<path fill="none" stroke="#191970" d="M562.7979,-175.8176C477.3841,-170.5684 273.4118,-155.874 209,-132 142.7418,-107.4416 76.9768,-53.9316 46.1403,-26.6759"/>
<polygon fill="#191970" stroke="#191970" points="48.1788,-23.8026 38.3977,-19.7305 43.5045,-29.0134 48.1788,-23.8026"/>
</g>
<!-- Node8 -->
<g id="node9" class="node">
<title>Node8</title>
<polygon fill="#ffffff" stroke="#bfbfbf" points="74,-.5 74,-19.5 128,-19.5 128,-.5 74,-.5"/>
<text text-anchor="middle" x="101" y="-7.5" font-family="Helvetica,sans-Serif" font-size="10.00" fill="#000000">iostream</text>
</g>
<!-- Node0&#45;&gt;Node8 -->
<g id="edge26" class="edge">
<title>Node0&#45;&gt;Node8</title>
<path fill="none" stroke="#191970" d="M562.8884,-175.7127C483.6696,-170.5265 303.9441,-156.3919 248,-132 191.7958,-107.4947 140.1049,-54.7571 115.7206,-27.3442"/>
<polygon fill="#191970" stroke="#191970" points="118.2682,-24.9404 109.055,-19.7091 112.995,-29.5441 118.2682,-24.9404"/>
</g>
<!-- Node13 -->
<g id="node14" class="node">
<title>Node13</title>
<polygon fill="#ffffff" stroke="#bfbfbf" points="195,-56.5 195,-75.5 233,-75.5 233,-56.5 195,-56.5"/>
<text text-anchor="middle" x="214" y="-63.5" font-family="Helvetica,sans-Serif" font-size="10.00" fill="#000000">apf.h</text>
</g>
<!-- Node0&#45;&gt;Node13 -->
<g id="edge19" class="edge">
<title>Node0&#45;&gt;Node13</title>
<path fill="none" stroke="#191970" d="M562.8181,-175.6595C488.4468,-170.6008 327.1467,-157.0343 278,-132 256.1246,-120.8571 237.4322,-99.2784 225.9949,-83.8267"/>
<polygon fill="#191970" stroke="#191970" points="228.7716,-81.6918 220.1299,-75.5622 223.063,-85.743 228.7716,-81.6918"/>
</g>
<!-- Node16 -->
<g id="node17" class="node">
<title>Node16</title>
<polygon fill="#ffffff" stroke="#bfbfbf" points="653.5,-56.5 653.5,-75.5 696.5,-75.5 696.5,-56.5 653.5,-56.5"/>
<text text-anchor="middle" x="675" y="-63.5" font-family="Helvetica,sans-Serif" font-size="10.00" fill="#000000">queue</text>
</g>
<!-- Node0&#45;&gt;Node16 -->
<g id="edge30" class="edge">
<title>Node0&#45;&gt;Node16</title>
<path fill="none" stroke="#191970" d="M562.6985,-175.8287C502.8673,-171.0467 397.7331,-156.2349 435,-112 463.6451,-77.999 583.514,-86.1337 643.3382,-75.5165"/>
<polygon fill="#191970" stroke="#191970" points="644.3692,-78.8761 653.4318,-73.3881 642.9248,-72.0268 644.3692,-78.8761"/>
</g>
<!-- Node19 -->
<g id="node20" class="node">
<title>Node19</title>
<polygon fill="#ffffff" stroke="#bfbfbf" points="443.5,-112.5 443.5,-131.5 510.5,-131.5 510.5,-112.5 443.5,-112.5"/>
<text text-anchor="middle" x="477" y="-119.5" font-family="Helvetica,sans-Serif" font-size="10.00" fill="#000000">apfVector.h</text>
</g>
<!-- Node0&#45;&gt;Node19 -->
<g id="edge20" class="edge">
<title>Node0&#45;&gt;Node19</title>
<path fill="none" stroke="#191970" d="M579.6836,-168.3733C559.7784,-159.3838 529.8564,-145.8706 507.44,-135.7471"/>
<polygon fill="#191970" stroke="#191970" points="508.5925,-132.4272 498.0382,-131.5011 505.7113,-138.8068 508.5925,-132.4272"/>
</g>
<!-- Node20 -->
<g id="node21" class="node">
<title>Node20</title>
<polygon fill="#ffffff" stroke="#bfbfbf" points="529,-112.5 529,-131.5 591,-131.5 591,-112.5 529,-112.5"/>
<text text-anchor="middle" x="560" y="-119.5" font-family="Helvetica,sans-Serif" font-size="10.00" fill="#000000">apfMesh.h</text>
</g>
<!-- Node0&#45;&gt;Node20 -->
<g id="edge21" class="edge">
<title>Node0&#45;&gt;Node20</title>
<path fill="none" stroke="#191970" d="M593.8583,-168.2455C588.1556,-160.4564 580.01,-149.3308 573.1375,-139.9439"/>
<polygon fill="#191970" stroke="#191970" points="575.7913,-137.6437 567.0598,-131.6427 570.1432,-141.7789 575.7913,-137.6437"/>
</g>
<!-- Node21 -->
<g id="node22" class="node">
<title>Node21</title>
<polygon fill="#ffffff" stroke="#bfbfbf" points="609,-112.5 609,-131.5 675,-131.5 675,-112.5 609,-112.5"/>
<text text-anchor="middle" x="642" y="-119.5" font-family="Helvetica,sans-Serif" font-size="10.00" fill="#000000">apfShape.h</text>
</g>
<!-- Node0&#45;&gt;Node21 -->
<g id="edge22" class="edge">
<title>Node0&#45;&gt;Node21</title>
<path fill="none" stroke="#191970" d="M608.1417,-168.2455C613.8444,-160.4564 621.99,-149.3308 628.8625,-139.9439"/>
<polygon fill="#191970" stroke="#191970" points="631.8568,-141.7789 634.9402,-131.6427 626.2087,-137.6437 631.8568,-141.7789"/>
</g>
<!-- Node22 -->
<g id="node23" class="node">
<title>Node22</title>
<polygon fill="#ffffff" stroke="#bfbfbf" points="693,-112.5 693,-131.5 799,-131.5 799,-112.5 693,-112.5"/>
<text text-anchor="middle" x="746" y="-119.5" font-family="Helvetica,sans-Serif" font-size="10.00" fill="#000000">apfDynamicVector.h</text>
</g>
<!-- Node0&#45;&gt;Node22 -->
<g id="edge23" class="edge">
<title>Node0&#45;&gt;Node22</title>
<path fill="none" stroke="#191970" d="M625.9264,-168.3733C649.6202,-159.2226 685.4511,-145.3844 711.8068,-135.2057"/>
<polygon fill="#191970" stroke="#191970" points="713.3314,-138.3689 721.3989,-131.5011 710.8094,-131.8389 713.3314,-138.3689"/>
</g>
<!-- Node23 -->
<g id="node24" class="node">
<title>Node23</title>
<polygon fill="#ffffff" stroke="#bfbfbf" points="817,-112.5 817,-131.5 897,-131.5 897,-112.5 817,-112.5"/>
<text text-anchor="middle" x="857" y="-119.5" font-family="Helvetica,sans-Serif" font-size="10.00" fill="#000000">apfCavityOp.h</text>
</g>
<!-- Node0&#45;&gt;Node23 -->
<g id="edge24" class="edge">
<title>Node0&#45;&gt;Node23</title>
<path fill="none" stroke="#191970" d="M639.0494,-169.6767C683.6144,-159.9281 757.5947,-143.7449 806.8226,-132.9763"/>
<polygon fill="#191970" stroke="#191970" points="807.6059,-136.3878 816.6269,-130.8316 806.11,-129.5495 807.6059,-136.3878"/>
</g>
<!-- Node24 -->
<g id="node25" class="node">
<title>Node24</title>
<polygon fill="#ffffff" stroke="#bfbfbf" points="915.5,-112.5 915.5,-131.5 956.5,-131.5 956.5,-112.5 915.5,-112.5"/>
<text text-anchor="middle" x="936" y="-119.5" font-family="Helvetica,sans-Serif" font-size="10.00" fill="#000000">string</text>
</g>
<!-- Node0&#45;&gt;Node24 -->
<g id="edge25" class="edge">
<title>Node0&#45;&gt;Node24</title>
<path fill="none" stroke="#191970" d="M639.4461,-174.3474C695.8637,-168.5218 804.4352,-155.5437 905.7031,-131.6996"/>
<polygon fill="#191970" stroke="#191970" points="906.5689,-135.0913 915.4784,-129.3581 904.9382,-128.2839 906.5689,-135.0913"/>
</g>
<!-- Node25 -->
<g id="node26" class="node">
<title>Node25</title>
<polygon fill="#ffffff" stroke="#bfbfbf" points="975,-112.5 975,-131.5 1027,-131.5 1027,-112.5 975,-112.5"/>
<text text-anchor="middle" x="1001" y="-119.5" font-family="Helvetica,sans-Serif" font-size="10.00" fill="#000000">sstream</text>
</g>
<!-- Node0&#45;&gt;Node25 -->
<g id="edge27" class="edge">
<title>Node0&#45;&gt;Node25</title>
<path fill="none" stroke="#191970" d="M639.1451,-175.1261C704.1443,-169.8115 840.6067,-156.8428 964.682,-132.0143"/>
<polygon fill="#191970" stroke="#191970" points="965.6311,-135.393 974.7334,-129.971 964.2366,-128.5334 965.6311,-135.393"/>
</g>
<!-- Node26 -->
<g id="node27" class="node">
<title>Node26</title>
<polygon fill="#ffffff" stroke="#bfbfbf" points="1045.5,-112.5 1045.5,-131.5 1092.5,-131.5 1092.5,-112.5 1045.5,-112.5"/>
<text text-anchor="middle" x="1069" y="-119.5" font-family="Helvetica,sans-Serif" font-size="10.00" fill="#000000">PCU.h</text>
</g>
<!-- Node0&#45;&gt;Node26 -->
<g id="edge28" class="edge">
<title>Node0&#45;&gt;Node26</title>
<path fill="none" stroke="#191970" d="M639.1878,-176.3868C713.706,-172.7188 883.7196,-161.7982 1035.3819,-131.7592"/>
<polygon fill="#191970" stroke="#191970" points="1036.2318,-135.1584 1045.3439,-129.7529 1034.8496,-128.2962 1036.2318,-135.1584"/>
</g>
<!-- Node27 -->
<g id="node28" class="node">
<title>Node27</title>
<polygon fill="#ffffff" stroke="#bfbfbf" points="1111,-112.5 1111,-131.5 1217,-131.5 1217,-112.5 1111,-112.5"/>
<text text-anchor="middle" x="1164" y="-119.5" font-family="Helvetica,sans-Serif" font-size="10.00" fill="#000000">samElementCount.h</text>
</g>
<!-- Node0&#45;&gt;Node27 -->
<g id="edge29" class="edge">
<title>Node0&#45;&gt;Node27</title>
<path fill="none" stroke="#191970" d="M639.1207,-175.3936C721.4365,-169.5734 922.1411,-154.3492 1100.8248,-132.0744"/>
<polygon fill="#191970" stroke="#191970" points="1101.4492,-135.5236 1110.9345,-130.8035 1100.576,-128.5782 1101.4492,-135.5236"/>
</g>
<!-- Node2 -->
<g id="node3" class="node">
<title>Node2</title>
<g id="a_node3"><a xlink:href="mesh_8h.html" target="_top" xlink:title="mesh.h">
<polygon fill="#ffffff" stroke="#000000" points="251.5,-56.5 251.5,-75.5 300.5,-75.5 300.5,-56.5 251.5,-56.5"/>
<text text-anchor="middle" x="276" y="-63.5" font-family="Helvetica,sans-Serif" font-size="10.00" fill="#000000">mesh.h</text>
</a>
</g>
</g>
<!-- Node1&#45;&gt;Node2 -->
<g id="edge2" class="edge">
<title>Node1&#45;&gt;Node2</title>
<path fill="none" stroke="#191970" d="M326.3746,-112.2455C317.4527,-104.0549 304.512,-92.1749 293.9808,-82.5069"/>
<polygon fill="#191970" stroke="#191970" points="296.2371,-79.8271 286.5036,-75.6427 291.5032,-84.9837 296.2371,-79.8271"/>
</g>
<!-- Node1&#45;&gt;Node13 -->
<g id="edge13" class="edge">
<title>Node1&#45;&gt;Node13</title>
<path fill="none" stroke="#191970" d="M315.8555,-112.3733C295.6322,-103.1659 264.9853,-89.2128 242.5908,-79.0169"/>
<polygon fill="#191970" stroke="#191970" points="243.8029,-75.7232 233.2515,-74.7649 240.9023,-82.094 243.8029,-75.7232"/>
</g>
<!-- Node14 -->
<g id="node15" class="node">
<title>Node14</title>
<polygon fill="#ffffff" stroke="#bfbfbf" points="319,-56.5 319,-75.5 387,-75.5 387,-56.5 319,-56.5"/>
<text text-anchor="middle" x="353" y="-63.5" font-family="Helvetica,sans-Serif" font-size="10.00" fill="#000000">apfMesh2.h</text>
</g>
<!-- Node1&#45;&gt;Node14 -->
<g id="edge14" class="edge">
<title>Node1&#45;&gt;Node14</title>
<path fill="none" stroke="#191970" d="M339.787,-112.2455C341.8977,-104.8579 344.866,-94.4689 347.4547,-85.4087"/>
<polygon fill="#191970" stroke="#191970" points="350.863,-86.2195 350.245,-75.6427 344.1323,-84.2964 350.863,-86.2195"/>
</g>
<!-- Node15 -->
<g id="node16" class="node">
<title>Node15</title>
<polygon fill="#ffffff" stroke="#bfbfbf" points="405,-56.5 405,-75.5 491,-75.5 491,-56.5 405,-56.5"/>
<text text-anchor="middle" x="448" y="-63.5" font-family="Helvetica,sans-Serif" font-size="10.00" fill="#000000">apfNumbering.h</text>
</g>
<!-- Node1&#45;&gt;Node15 -->
<g id="edge15" class="edge">
<title>Node1&#45;&gt;Node15</title>
<path fill="none" stroke="#191970" d="M356.0816,-112.3733C373.7402,-103.4644 400.2053,-90.1127 420.2098,-80.0203"/>
<polygon fill="#191970" stroke="#191970" points="421.8158,-83.1303 429.1674,-75.5011 418.6628,-76.8806 421.8158,-83.1303"/>
</g>
<!-- Node1&#45;&gt;Node16 -->
<g id="edge16" class="edge">
<title>Node1&#45;&gt;Node16</title>
<path fill="none" stroke="#191970" d="M387.3028,-114.1017C391.9329,-113.3863 396.5528,-112.6768 401,-112 505.7736,-96.0538 535.9329,-100.5533 643.4932,-75.7789"/>
<polygon fill="#191970" stroke="#191970" points="644.5056,-79.1367 653.4477,-73.4543 642.9138,-72.3201 644.5056,-79.1367"/>
</g>
<!-- Node17 -->
<g id="node18" class="node">
<title>Node17</title>
<g id="a_node18"><a xlink:href="_py_embedded_functions_8h.html" target="_top" xlink:title="PyEmbeddedFunctions.h">
<polygon fill="#ffffff" stroke="#000000" points="509,-56.5 509,-75.5 635,-75.5 635,-56.5 509,-56.5"/>
<text text-anchor="middle" x="572" y="-63.5" font-family="Helvetica,sans-Serif" font-size="10.00" fill="#000000">PyEmbeddedFunctions.h</text>
</a>
</g>
</g>
<!-- Node1&#45;&gt;Node17 -->
<g id="edge17" class="edge">
<title>Node1&#45;&gt;Node17</title>
<path fill="none" stroke="#191970" d="M377.1309,-112.4369C417.2649,-102.8731 479.0775,-88.1432 522.2933,-77.845"/>
<polygon fill="#191970" stroke="#191970" points="523.1183,-81.2465 532.0346,-75.5237 521.4956,-74.4372 523.1183,-81.2465"/>
</g>
<!-- Node3 -->
<g id="node4" class="node">
<title>Node3</title>
<polygon fill="#ffffff" stroke="#bfbfbf" points="575,-.5 575,-19.5 605,-19.5 605,-.5 575,-.5"/>
<text text-anchor="middle" x="590" y="-7.5" font-family="Helvetica,sans-Serif" font-size="10.00" fill="#000000">set</text>
</g>
<!-- Node2&#45;&gt;Node3 -->
<g id="edge3" class="edge">
<title>Node2&#45;&gt;Node3</title>
<path fill="none" stroke="#191970" d="M300.7744,-58.258C303.8637,-57.4275 306.993,-56.65 310,-56 419.1232,-32.4125 453.2556,-49.322 564.9983,-19.661"/>
<polygon fill="#191970" stroke="#191970" points="566.2406,-22.9503 574.9703,-16.9467 564.4021,-16.196 566.2406,-22.9503"/>
</g>
<!-- Node4 -->
<g id="node5" class="node">
<title>Node4</title>
<polygon fill="#ffffff" stroke="#bfbfbf" points="146,-.5 146,-19.5 190,-19.5 190,-.5 146,-.5"/>
<text text-anchor="middle" x="168" y="-7.5" font-family="Helvetica,sans-Serif" font-size="10.00" fill="#000000">vector</text>
</g>
<!-- Node2&#45;&gt;Node4 -->
<g id="edge4" class="edge">
<title>Node2&#45;&gt;Node4</title>
<path fill="none" stroke="#191970" d="M257.1878,-56.2455C240.1527,-47.4125 214.8425,-34.2887 195.5319,-24.2758"/>
<polygon fill="#191970" stroke="#191970" points="197.0853,-21.1388 186.5966,-19.6427 193.863,-27.353 197.0853,-21.1388"/>
</g>
<!-- Node2&#45;&gt;Node5 -->
<g id="edge5" class="edge">
<title>Node2&#45;&gt;Node5</title>
<path fill="none" stroke="#191970" d="M251.1844,-58.4354C248.1022,-57.5745 244.9858,-56.7413 242,-56 167.1315,-37.4122 144.8458,-38.3715 66.1224,-20.1485"/>
<polygon fill="#191970" stroke="#191970" points="66.7701,-16.7055 56.2349,-17.8285 65.1709,-23.5204 66.7701,-16.7055"/>
</g>
<!-- Node6 -->
<g id="node7" class="node">
<title>Node6</title>
<polygon fill="#ffffff" stroke="#bfbfbf" points="208.5,-.5 208.5,-19.5 243.5,-19.5 243.5,-.5 208.5,-.5"/>
<text text-anchor="middle" x="226" y="-7.5" font-family="Helvetica,sans-Serif" font-size="10.00" fill="#000000">map</text>
</g>
<!-- Node2&#45;&gt;Node6 -->
<g id="edge6" class="edge">
<title>Node2&#45;&gt;Node6</title>
<path fill="none" stroke="#191970" d="M267.2907,-56.2455C260.1927,-48.2958 249.9916,-36.8706 241.505,-27.3656"/>
<polygon fill="#191970" stroke="#191970" points="243.8805,-24.771 234.6095,-19.6427 238.6589,-29.4331 243.8805,-24.771"/>
</g>
<!-- Node7 -->
<g id="node8" class="node">
<title>Node7</title>
<polygon fill="#ffffff" stroke="#bfbfbf" points="261.5,-.5 261.5,-19.5 290.5,-19.5 290.5,-.5 261.5,-.5"/>
<text text-anchor="middle" x="276" y="-7.5" font-family="Helvetica,sans-Serif" font-size="10.00" fill="#000000">list</text>
</g>
<!-- Node2&#45;&gt;Node7 -->
<g id="edge7" class="edge">
<title>Node2&#45;&gt;Node7</title>
<path fill="none" stroke="#191970" d="M276,-56.2455C276,-48.9382 276,-38.6944 276,-29.7046"/>
<polygon fill="#191970" stroke="#191970" points="279.5001,-29.6426 276,-19.6427 272.5001,-29.6427 279.5001,-29.6426"/>
</g>
<!-- Node2&#45;&gt;Node8 -->
<g id="edge8" class="edge">
<title>Node2&#45;&gt;Node8</title>
<path fill="none" stroke="#191970" d="M251.2979,-58.0953C221.7136,-48.6283 171.8862,-32.6836 137.7728,-21.7673"/>
<polygon fill="#191970" stroke="#191970" points="138.7555,-18.407 128.1645,-18.6926 136.622,-25.0739 138.7555,-18.407"/>
</g>
<!-- Node9 -->
<g id="node10" class="node">
<title>Node9</title>
<polygon fill="#ffffff" stroke="#bfbfbf" points="309,-.5 309,-19.5 359,-19.5 359,-.5 309,-.5"/>
<text text-anchor="middle" x="334" y="-7.5" font-family="Helvetica,sans-Serif" font-size="10.00" fill="#000000">iomanip</text>
</g>
<!-- Node2&#45;&gt;Node9 -->
<g id="edge9" class="edge">
<title>Node2&#45;&gt;Node9</title>
<path fill="none" stroke="#191970" d="M286.1028,-56.2455C294.5028,-48.1352 306.6494,-36.4075 316.6084,-26.7919"/>
<polygon fill="#191970" stroke="#191970" points="319.25,-29.1066 324.0129,-19.6427 314.3878,-24.0707 319.25,-29.1066"/>
</g>
<!-- Node10 -->
<g id="node11" class="node">
<title>Node10</title>
<polygon fill="#ffffff" stroke="#bfbfbf" points="377,-.5 377,-19.5 427,-19.5 427,-.5 377,-.5"/>
<text text-anchor="middle" x="402" y="-7.5" font-family="Helvetica,sans-Serif" font-size="10.00" fill="#000000">fstream</text>
</g>
<!-- Node2&#45;&gt;Node10 -->
<g id="edge10" class="edge">
<title>Node2&#45;&gt;Node10</title>
<path fill="none" stroke="#191970" d="M297.6602,-56.3733C317.9772,-47.3435 348.564,-33.7494 371.375,-23.6111"/>
<polygon fill="#191970" stroke="#191970" points="372.9059,-26.7609 380.6225,-19.5011 370.0628,-20.3642 372.9059,-26.7609"/>
</g>
<!-- Node11 -->
<g id="node12" class="node">
<title>Node11</title>
<polygon fill="#ffffff" stroke="#bfbfbf" points="445.5,-.5 445.5,-19.5 494.5,-19.5 494.5,-.5 445.5,-.5"/>
<text text-anchor="middle" x="470" y="-7.5" font-family="Helvetica,sans-Serif" font-size="10.00" fill="#000000">cassert</text>
</g>
<!-- Node2&#45;&gt;Node11 -->
<g id="edge11" class="edge">
<title>Node2&#45;&gt;Node11</title>
<path fill="none" stroke="#191970" d="M300.5074,-58.7673C303.6997,-57.8324 306.9271,-56.8909 310,-56 362.9877,-40.6383 378.4564,-36.6282 435.5557,-20.1115"/>
<polygon fill="#191970" stroke="#191970" points="436.8615,-23.3772 445.4926,-17.2327 434.9136,-16.6537 436.8615,-23.3772"/>
</g>
<!-- Node12 -->
<g id="node13" class="node">
<title>Node12</title>
<polygon fill="#ffffff" stroke="#bfbfbf" points="513,-.5 513,-19.5 557,-19.5 557,-.5 513,-.5"/>
<text text-anchor="middle" x="535" y="-7.5" font-family="Helvetica,sans-Serif" font-size="10.00" fill="#000000">cmath</text>
</g>
<!-- Node2&#45;&gt;Node12 -->
<g id="edge12" class="edge">
<title>Node2&#45;&gt;Node12</title>
<path fill="none" stroke="#191970" d="M300.8035,-58.3855C303.8877,-57.5332 307.008,-56.7156 310,-56 392.2069,-36.3381 417.1909,-41.1132 502.8527,-20.0378"/>
<polygon fill="#191970" stroke="#191970" points="503.9003,-23.3836 512.7484,-17.556 502.1974,-16.5939 503.9003,-23.3836"/>
</g>
<!-- Node18 -->
<g id="node19" class="node">
<title>Node18</title>
<polygon fill="#ffffff" stroke="#bfbfbf" points="623,-.5 623,-19.5 679,-19.5 679,-.5 623,-.5"/>
<text text-anchor="middle" x="651" y="-7.5" font-family="Helvetica,sans-Serif" font-size="10.00" fill="#000000">Python.h</text>
</g>
<!-- Node17&#45;&gt;Node18 -->
<g id="edge18" class="edge">
<title>Node17&#45;&gt;Node18</title>
<path fill="none" stroke="#191970" d="M585.7607,-56.2455C597.6552,-47.814 615.065,-35.4729 628.9085,-25.6598"/>
<polygon fill="#191970" stroke="#191970" points="631.2628,-28.2811 637.3969,-19.6427 627.2146,-22.5704 631.2628,-28.2811"/>
</g>
</g>
</svg>
