<?xml version="1.0" encoding="UTF-8" standalone="no"?>
<!DOCTYPE svg PUBLIC "-//W3C//DTD SVG 1.1//EN"
 "http://www.w3.org/Graphics/SVG/1.1/DTD/svg11.dtd">
<!-- Generated by graphviz version 2.40.1 (20161225.0304)
 -->
<!-- Title: Subroutines.cpp Pages: 1 -->
<svg width="378pt" height="84pt"
 viewBox="0.00 0.00 377.50 84.00" xmlns="http://www.w3.org/2000/svg" xmlns:xlink="http://www.w3.org/1999/xlink">
<g id="graph0" class="graph" transform="scale(1 1) rotate(0) translate(4 80)">
<title>Subroutines.cpp</title>
<polygon fill="#ffffff" stroke="transparent" points="-4,4 -4,-80 373.5,-80 373.5,4 -4,4"/>
<!-- Node0 -->
<g id="node1" class="node">
<title>Node0</title>
<polygon fill="#bfbfbf" stroke="#000000" points="111,-56.5 111,-75.5 198,-75.5 198,-56.5 111,-56.5"/>
<text text-anchor="middle" x="154.5" y="-63.5" font-family="Helvetica,sans-Serif" font-size="10.00" fill="#000000">Subroutines.cpp</text>
</g>
<!-- Node1 -->
<g id="node2" class="node">
<title>Node1</title>
<polygon fill="#ffffff" stroke="#bfbfbf" points="0,-.5 0,-19.5 47,-19.5 47,-.5 0,-.5"/>
<text text-anchor="middle" x="23.5" y="-7.5" font-family="Helvetica,sans-Serif" font-size="10.00" fill="#000000">math.h</text>
</g>
<!-- Node0&#45;&gt;Node1 -->
<g id="edge1" class="edge">
<title>Node0&#45;&gt;Node1</title>
<path fill="none" stroke="#191970" d="M131.9803,-56.3733C110.7628,-47.3032 78.7724,-33.6279 55.0231,-23.4755"/>
<polygon fill="#191970" stroke="#191970" points="56.2967,-20.2136 45.7258,-19.5011 53.5452,-26.6502 56.2967,-20.2136"/>
</g>
<!-- Node2 -->
<g id="node3" class="node">
<title>Node2</title>
<polygon fill="#ffffff" stroke="#bfbfbf" points="65.5,-.5 65.5,-19.5 111.5,-19.5 111.5,-.5 65.5,-.5"/>
<text text-anchor="middle" x="88.5" y="-7.5" font-family="Helvetica,sans-Serif" font-size="10.00" fill="#000000">stdio.h</text>
</g>
<!-- Node0&#45;&gt;Node2 -->
<g id="edge2" class="edge">
<title>Node0&#45;&gt;Node2</title>
<path fill="none" stroke="#191970" d="M143.0037,-56.2455C133.2558,-47.9746 119.0741,-35.9416 107.6202,-26.2232"/>
<polygon fill="#191970" stroke="#191970" points="109.7541,-23.4437 99.8646,-19.6427 105.2253,-28.7813 109.7541,-23.4437"/>
</g>
<!-- Node3 -->
<g id="node4" class="node">
<title>Node3</title>
<polygon fill="#ffffff" stroke="#bfbfbf" points="130,-.5 130,-19.5 179,-19.5 179,-.5 130,-.5"/>
<text text-anchor="middle" x="154.5" y="-7.5" font-family="Helvetica,sans-Serif" font-size="10.00" fill="#000000">string.h</text>
</g>
<!-- Node0&#45;&gt;Node3 -->
<g id="edge3" class="edge">
<title>Node0&#45;&gt;Node3</title>
<path fill="none" stroke="#191970" d="M154.5,-56.2455C154.5,-48.9382 154.5,-38.6944 154.5,-29.7046"/>
<polygon fill="#191970" stroke="#191970" points="158.0001,-29.6426 154.5,-19.6427 151.0001,-29.6427 158.0001,-29.6426"/>
</g>
<!-- Node4 -->
<g id="node5" class="node">
<title>Node4</title>
<polygon fill="#ffffff" stroke="#bfbfbf" points="197.5,-.5 197.5,-19.5 289.5,-19.5 289.5,-.5 197.5,-.5"/>
<text text-anchor="middle" x="243.5" y="-7.5" font-family="Helvetica,sans-Serif" font-size="10.00" fill="#000000">ncurses/curses.h</text>
</g>
<!-- Node0&#45;&gt;Node4 -->
<g id="edge4" class="edge">
<title>Node0&#45;&gt;Node4</title>
<path fill="none" stroke="#191970" d="M170.0026,-56.2455C183.658,-47.6534 203.7657,-35.0014 219.4989,-25.1018"/>
<polygon fill="#191970" stroke="#191970" points="221.5751,-27.9307 228.175,-19.6427 217.8471,-22.006 221.5751,-27.9307"/>
</g>
<!-- Node5 -->
<g id="node6" class="node">
<title>Node5</title>
<g id="a_node6"><a xlink:href="_headers_8h.html" target="_top" xlink:title="Headers.h">
<polygon fill="#ffffff" stroke="#000000" points="307.5,-.5 307.5,-19.5 369.5,-19.5 369.5,-.5 307.5,-.5"/>
<text text-anchor="middle" x="338.5" y="-7.5" font-family="Helvetica,sans-Serif" font-size="10.00" fill="#000000">Headers.h</text>
</a>
</g>
</g>
<!-- Node0&#45;&gt;Node5 -->
<g id="edge5" class="edge">
<title>Node0&#45;&gt;Node5</title>
<path fill="none" stroke="#191970" d="M186.1307,-56.3733C216.8596,-47.021 263.676,-32.7725 297.3022,-22.5385"/>
<polygon fill="#191970" stroke="#191970" points="298.7344,-25.7612 307.282,-19.5011 296.6962,-19.0644 298.7344,-25.7612"/>
</g>
</g>
</svg>
