<?xml version="1.0" encoding="UTF-8" standalone="no"?>
<!DOCTYPE svg PUBLIC "-//W3C//DTD SVG 1.1//EN"
 "http://www.w3.org/Graphics/SVG/1.1/DTD/svg11.dtd">
<!-- Generated by graphviz version 2.40.1 (20161225.0304)
 -->
<!-- Title: SubsurfaceTransportCoefficients.h Pages: 1 -->
<svg width="352pt" height="140pt"
 viewBox="0.00 0.00 351.50 140.00" xmlns="http://www.w3.org/2000/svg" xmlns:xlink="http://www.w3.org/1999/xlink">
<g id="graph0" class="graph" transform="scale(1 1) rotate(0) translate(4 136)">
<title>SubsurfaceTransportCoefficients.h</title>
<polygon fill="#ffffff" stroke="transparent" points="-4,4 -4,-136 347.5,-136 347.5,4 -4,4"/>
<!-- Node1 -->
<g id="node1" class="node">
<title>Node1</title>
<polygon fill="#bfbfbf" stroke="#000000" points="39.5,-112.5 39.5,-131.5 207.5,-131.5 207.5,-112.5 39.5,-112.5"/>
<text text-anchor="middle" x="123.5" y="-119.5" font-family="Helvetica,sans-Serif" font-size="10.00" fill="#000000">SubsurfaceTransportCoefficients.h</text>
</g>
<!-- Node2 -->
<g id="node2" class="node">
<title>Node2</title>
<g id="a_node2"><a xlink:href="psk_relations_8h.html" target="_top" xlink:title="pskRelations.h">
<polygon fill="#ffffff" stroke="#000000" points="117.5,-56.5 117.5,-75.5 199.5,-75.5 199.5,-56.5 117.5,-56.5"/>
<text text-anchor="middle" x="158.5" y="-63.5" font-family="Helvetica,sans-Serif" font-size="10.00" fill="#000000">pskRelations.h</text>
</a>
</g>
</g>
<!-- Node1&#45;&gt;Node2 -->
<g id="edge1" class="edge">
<title>Node1&#45;&gt;Node2</title>
<path fill="none" stroke="#191970" d="M134.9815,-103.6296C140.8196,-94.2887 147.6752,-83.3197 152.4733,-75.6427"/>
<polygon fill="#191970" stroke="#191970" points="131.9286,-101.9105 129.5965,-112.2455 137.8646,-105.6206 131.9286,-101.9105"/>
</g>
<!-- Node3 -->
<g id="node3" class="node">
<title>Node3</title>
<g id="a_node3"><a xlink:href="_subsurface_transport_coefficients_8cpp.html" target="_top" xlink:title="SubsurfaceTransportCoefficients.cpp">
<polygon fill="#ffffff" stroke="#000000" points="0,-.5 0,-19.5 179,-19.5 179,-.5 0,-.5"/>
<text text-anchor="middle" x="89.5" y="-7.5" font-family="Helvetica,sans-Serif" font-size="10.00" fill="#000000">SubsurfaceTransportCoefficients.cpp</text>
</a>
</g>
</g>
<!-- Node1&#45;&gt;Node3 -->
<g id="edge4" class="edge">
<title>Node1&#45;&gt;Node3</title>
<path fill="none" stroke="#191970" d="M116.96,-102.4552C114.2738,-94.2978 111.1731,-84.7104 108.5,-76 102.4132,-56.1657 95.8231,-32.8033 92.2259,-19.8718"/>
<polygon fill="#191970" stroke="#191970" points="113.7095,-103.7728 120.1815,-112.1611 120.3531,-101.5676 113.7095,-103.7728"/>
</g>
<!-- Node2&#45;&gt;Node3 -->
<g id="edge2" class="edge">
<title>Node2&#45;&gt;Node3</title>
<path fill="none" stroke="#191970" d="M138.697,-49.928C126.6364,-40.1397 111.6286,-27.9595 101.3812,-19.6427"/>
<polygon fill="#191970" stroke="#191970" points="136.5109,-52.6614 146.4811,-56.2455 140.9221,-47.2262 136.5109,-52.6614"/>
</g>
<!-- Node4 -->
<g id="node4" class="node">
<title>Node4</title>
<g id="a_node4"><a xlink:href="twophase_darcy_coefficients_8h.html" target="_top" xlink:title="twophaseDarcyCoefficients.h">
<polygon fill="#ffffff" stroke="#000000" points="197.5,-.5 197.5,-19.5 343.5,-19.5 343.5,-.5 197.5,-.5"/>
<text text-anchor="middle" x="270.5" y="-7.5" font-family="Helvetica,sans-Serif" font-size="10.00" fill="#000000">twophaseDarcyCoefficients.h</text>
</a>
</g>
</g>
<!-- Node2&#45;&gt;Node4 -->
<g id="edge3" class="edge">
<title>Node2&#45;&gt;Node4</title>
<path fill="none" stroke="#191970" d="M186.8263,-51.8368C207.0721,-41.7139 233.7642,-28.3679 251.4978,-19.5011"/>
<polygon fill="#191970" stroke="#191970" points="185.1325,-48.7706 177.7535,-56.3733 188.263,-55.0316 185.1325,-48.7706"/>
</g>
</g>
</svg>
