<?xml version="1.0" encoding="UTF-8" standalone="no"?>
<!DOCTYPE svg PUBLIC "-//W3C//DTD SVG 1.1//EN"
 "http://www.w3.org/Graphics/SVG/1.1/DTD/svg11.dtd">
<!-- Generated by graphviz version 2.44.1 (20200629.0846)
 -->
<!-- Title: SubsurfaceTransportCoefficients.h Pages: 1 -->
<svg width="352pt" height="140pt"
 viewBox="0.00 0.00 351.50 140.00" xmlns="http://www.w3.org/2000/svg" xmlns:xlink="http://www.w3.org/1999/xlink">
<g id="graph0" class="graph" transform="scale(1 1) rotate(0) translate(4 136)">
<title>SubsurfaceTransportCoefficients.h</title>
<polygon fill="white" stroke="transparent" points="-4,4 -4,-136 347.5,-136 347.5,4 -4,4"/>
<!-- Node1 -->
<g id="node1" class="node">
<title>Node1</title>
<g id="a_node1"><a xlink:title=" ">
<polygon fill="#bfbfbf" stroke="black" points="39.5,-112.5 39.5,-131.5 207.5,-131.5 207.5,-112.5 39.5,-112.5"/>
<text text-anchor="middle" x="123.5" y="-119.5" font-family="Helvetica,sans-Serif" font-size="10.00">SubsurfaceTransportCoefficients.h</text>
</a>
</g>
</g>
<!-- Node2 -->
<g id="node2" class="node">
<title>Node2</title>
<g id="a_node2"><a xlink:href="psk_relations_8h.html" target="_top" xlink:title=" ">
<polygon fill="white" stroke="black" points="117.5,-56.5 117.5,-75.5 199.5,-75.5 199.5,-56.5 117.5,-56.5"/>
<text text-anchor="middle" x="158.5" y="-63.5" font-family="Helvetica,sans-Serif" font-size="10.00">pskRelations.h</text>
</a>
</g>
</g>
<!-- Node1&#45;&gt;Node2 -->
<g id="edge1" class="edge">
<title>Node1&#45;&gt;Node2</title>
<path fill="none" stroke="midnightblue" d="M134.8,-103.57C140.82,-94.27 147.97,-83.25 152.83,-75.75"/>
<polygon fill="midnightblue" stroke="midnightblue" points="131.78,-101.79 129.28,-112.08 137.66,-105.6 131.78,-101.79"/>
</g>
<!-- Node3 -->
<g id="node3" class="node">
<title>Node3</title>
<g id="a_node3"><a xlink:href="_subsurface_transport_coefficients_8cpp.html" target="_top" xlink:title=" ">
<polygon fill="white" stroke="black" points="0,-0.5 0,-19.5 179,-19.5 179,-0.5 0,-0.5"/>
<text text-anchor="middle" x="89.5" y="-7.5" font-family="Helvetica,sans-Serif" font-size="10.00">SubsurfaceTransportCoefficients.cpp</text>
</a>
</g>
</g>
<!-- Node1&#45;&gt;Node3 -->
<g id="edge4" class="edge">
<title>Node1&#45;&gt;Node3</title>
<path fill="none" stroke="midnightblue" d="M117.26,-102.8C114.5,-94.63 111.27,-84.85 108.5,-76 102.25,-56.03 95.51,-32.4 91.98,-19.86"/>
<polygon fill="midnightblue" stroke="midnightblue" points="113.99,-104.06 120.53,-112.4 120.62,-101.81 113.99,-104.06"/>
</g>
<!-- Node2&#45;&gt;Node3 -->
<g id="edge2" class="edge">
<title>Node2&#45;&gt;Node3</title>
<path fill="none" stroke="midnightblue" d="M139.46,-50.1C127.04,-40.38 111.26,-28.03 100.79,-19.83"/>
<polygon fill="midnightblue" stroke="midnightblue" points="137.38,-52.92 147.41,-56.32 141.7,-47.4 137.38,-52.92"/>
</g>
<!-- Node4 -->
<g id="node4" class="node">
<title>Node4</title>
<g id="a_node4"><a xlink:href="twophase_darcy_coefficients_8h.html" target="_top" xlink:title=" ">
<polygon fill="white" stroke="black" points="197.5,-0.5 197.5,-19.5 343.5,-19.5 343.5,-0.5 197.5,-0.5"/>
<text text-anchor="middle" x="270.5" y="-7.5" font-family="Helvetica,sans-Serif" font-size="10.00">twophaseDarcyCoefficients.h</text>
</a>
</g>
</g>
<!-- Node2&#45;&gt;Node4 -->
<g id="edge3" class="edge">
<title>Node2&#45;&gt;Node4</title>
<path fill="none" stroke="midnightblue" d="M185.75,-51.86C206.52,-41.85 234.52,-28.35 252.55,-19.65"/>
<polygon fill="midnightblue" stroke="midnightblue" points="183.98,-48.83 176.49,-56.32 187.02,-55.13 183.98,-48.83"/>
</g>
</g>
</svg>
