<?xml version="1.0" encoding="UTF-8" standalone="no"?>
<!DOCTYPE svg PUBLIC "-//W3C//DTD SVG 1.1//EN"
 "http://www.w3.org/Graphics/SVG/1.1/DTD/svg11.dtd">
<!-- Generated by graphviz version 2.50.0 (20211204.2007)
 -->
<!-- Title: VMS.cpp Pages: 1 -->
<svg width="886pt" height="196pt"
 viewBox="0.00 0.00 886.00 196.00" xmlns="http://www.w3.org/2000/svg" xmlns:xlink="http://www.w3.org/1999/xlink">
<g id="graph0" class="graph" transform="scale(1 1) rotate(0) translate(4 192)">
<title>VMS.cpp</title>
<polygon fill="white" stroke="transparent" points="-4,4 -4,-192 882,-192 882,4 -4,4"/>
<!-- Node1 -->
<g id="node1" class="node">
<title>Node1</title>
<g id="a_node1"><a xlink:title=" ">
<polygon fill="#bfbfbf" stroke="black" points="430.5,-168.5 430.5,-187.5 487.5,-187.5 487.5,-168.5 430.5,-168.5"/>
<text text-anchor="middle" x="459" y="-175.5" font-family="Helvetica,sans-Serif" font-size="10.00">VMS.cpp</text>
</a>
</g>
</g>
<!-- Node2 -->
<g id="node2" class="node">
<title>Node2</title>
<g id="a_node2"><a xlink:href="_mesh_adapt_p_u_m_i_8h.html" target="_top" xlink:title=" ">
<polygon fill="white" stroke="black" points="305,-112.5 305,-131.5 405,-131.5 405,-112.5 305,-112.5"/>
<text text-anchor="middle" x="355" y="-119.5" font-family="Helvetica,sans-Serif" font-size="10.00">MeshAdaptPUMI.h</text>
</a>
</g>
</g>
<!-- Node1&#45;&gt;Node2 -->
<g id="edge1" class="edge">
<title>Node1&#45;&gt;Node2</title>
<path fill="none" stroke="midnightblue" d="M442.29,-168.32C425.69,-159.7 400,-146.36 380.78,-136.39"/>
<polygon fill="midnightblue" stroke="midnightblue" points="382.16,-133.16 371.67,-131.65 378.93,-139.37 382.16,-133.16"/>
</g>
<!-- Node9 -->
<g id="node9" class="node">
<title>Node9</title>
<g id="a_node9"><a xlink:title=" ">
<polygon fill="white" stroke="#bfbfbf" points="0,-0.5 0,-19.5 54,-19.5 54,-0.5 0,-0.5"/>
<text text-anchor="middle" x="27" y="-7.5" font-family="Helvetica,sans-Serif" font-size="10.00">iostream</text>
</a>
</g>
</g>
<!-- Node1&#45;&gt;Node9 -->
<g id="edge26" class="edge">
<title>Node1&#45;&gt;Node9</title>
<path fill="none" stroke="midnightblue" d="M430.25,-174.7C385.51,-170.39 297.06,-159 227,-132 155.39,-104.4 80.45,-51.55 46.17,-25.82"/>
<polygon fill="midnightblue" stroke="midnightblue" points="48.06,-22.86 37.98,-19.6 43.83,-28.44 48.06,-22.86"/>
</g>
<!-- Node11 -->
<g id="node11" class="node">
<title>Node11</title>
<g id="a_node11"><a xlink:title=" ">
<polygon fill="white" stroke="#bfbfbf" points="72,-0.5 72,-19.5 122,-19.5 122,-0.5 72,-0.5"/>
<text text-anchor="middle" x="97" y="-7.5" font-family="Helvetica,sans-Serif" font-size="10.00">fstream</text>
</a>
</g>
</g>
<!-- Node1&#45;&gt;Node11 -->
<g id="edge27" class="edge">
<title>Node1&#45;&gt;Node11</title>
<path fill="none" stroke="midnightblue" d="M430.23,-173.79C391.67,-168.71 321.75,-156.74 267,-132 205.1,-104.03 142.68,-52.13 113.71,-26.35"/>
<polygon fill="midnightblue" stroke="midnightblue" points="115.91,-23.62 106.14,-19.53 111.22,-28.82 115.91,-23.62"/>
</g>
<!-- Node14 -->
<g id="node14" class="node">
<title>Node14</title>
<g id="a_node14"><a xlink:title=" ">
<polygon fill="white" stroke="#bfbfbf" points="213,-56.5 213,-75.5 251,-75.5 251,-56.5 213,-56.5"/>
<text text-anchor="middle" x="232" y="-63.5" font-family="Helvetica,sans-Serif" font-size="10.00">apf.h</text>
</a>
</g>
</g>
<!-- Node1&#45;&gt;Node14 -->
<g id="edge21" class="edge">
<title>Node1&#45;&gt;Node14</title>
<path fill="none" stroke="midnightblue" d="M430.44,-173.69C396.45,-168.76 338.9,-157.21 296,-132 274.97,-119.64 256.08,-98.62 244.36,-83.84"/>
<polygon fill="midnightblue" stroke="midnightblue" points="246.9,-81.39 238.04,-75.57 241.34,-85.64 246.9,-81.39"/>
</g>
<!-- Node16 -->
<g id="node16" class="node">
<title>Node16</title>
<g id="a_node16"><a xlink:title=" ">
<polygon fill="white" stroke="#bfbfbf" points="629,-56.5 629,-75.5 715,-75.5 715,-56.5 629,-56.5"/>
<text text-anchor="middle" x="672" y="-63.5" font-family="Helvetica,sans-Serif" font-size="10.00">apfNumbering.h</text>
</a>
</g>
</g>
<!-- Node1&#45;&gt;Node16 -->
<g id="edge25" class="edge">
<title>Node1&#45;&gt;Node16</title>
<path fill="none" stroke="midnightblue" d="M454.72,-168.3C448.69,-154.67 439.82,-128.16 453,-112 455.66,-108.74 555,-89.29 618.96,-77.05"/>
<polygon fill="midnightblue" stroke="midnightblue" points="619.73,-80.46 628.9,-75.15 618.42,-73.59 619.73,-80.46"/>
</g>
<!-- Node20 -->
<g id="node20" class="node">
<title>Node20</title>
<g id="a_node20"><a xlink:title=" ">
<polygon fill="white" stroke="#bfbfbf" points="461.5,-112.5 461.5,-131.5 508.5,-131.5 508.5,-112.5 461.5,-112.5"/>
<text text-anchor="middle" x="485" y="-119.5" font-family="Helvetica,sans-Serif" font-size="10.00">PCU.h</text>
</a>
</g>
</g>
<!-- Node1&#45;&gt;Node20 -->
<g id="edge19" class="edge">
<title>Node1&#45;&gt;Node20</title>
<path fill="none" stroke="midnightblue" d="M463.29,-168.08C466.85,-160.69 472.02,-149.95 476.42,-140.81"/>
<polygon fill="midnightblue" stroke="midnightblue" points="479.6,-142.28 480.79,-131.75 473.29,-139.24 479.6,-142.28"/>
</g>
<!-- Node21 -->
<g id="node21" class="node">
<title>Node21</title>
<g id="a_node21"><a xlink:title=" ">
<polygon fill="white" stroke="#bfbfbf" points="526.5,-112.5 526.5,-131.5 591.5,-131.5 591.5,-112.5 526.5,-112.5"/>
<text text-anchor="middle" x="559" y="-119.5" font-family="Helvetica,sans-Serif" font-size="10.00">petscksp.h</text>
</a>
</g>
</g>
<!-- Node1&#45;&gt;Node21 -->
<g id="edge20" class="edge">
<title>Node1&#45;&gt;Node21</title>
<path fill="none" stroke="midnightblue" d="M475.07,-168.32C490.96,-159.74 515.51,-146.49 533.96,-136.52"/>
<polygon fill="midnightblue" stroke="midnightblue" points="535.84,-139.49 542.97,-131.65 532.51,-133.33 535.84,-139.49"/>
</g>
<!-- Node22 -->
<g id="node22" class="node">
<title>Node22</title>
<g id="a_node22"><a xlink:title=" ">
<polygon fill="white" stroke="#bfbfbf" points="610,-112.5 610,-131.5 672,-131.5 672,-112.5 610,-112.5"/>
<text text-anchor="middle" x="641" y="-119.5" font-family="Helvetica,sans-Serif" font-size="10.00">apfMesh.h</text>
</a>
</g>
</g>
<!-- Node1&#45;&gt;Node22 -->
<g id="edge22" class="edge">
<title>Node1&#45;&gt;Node22</title>
<path fill="none" stroke="midnightblue" d="M487.84,-168.44C518.86,-159.24 568.33,-144.56 602.62,-134.39"/>
<polygon fill="midnightblue" stroke="midnightblue" points="603.71,-137.72 612.3,-131.52 601.71,-131.01 603.71,-137.72"/>
</g>
<!-- Node23 -->
<g id="node23" class="node">
<title>Node23</title>
<g id="a_node23"><a xlink:title=" ">
<polygon fill="white" stroke="#bfbfbf" points="690,-112.5 690,-131.5 756,-131.5 756,-112.5 690,-112.5"/>
<text text-anchor="middle" x="723" y="-119.5" font-family="Helvetica,sans-Serif" font-size="10.00">apfShape.h</text>
</a>
</g>
</g>
<!-- Node1&#45;&gt;Node23 -->
<g id="edge23" class="edge">
<title>Node1&#45;&gt;Node23</title>
<path fill="none" stroke="midnightblue" d="M487.76,-171.28C528.28,-163.19 604.76,-147.84 679.89,-132.21"/>
<polygon fill="midnightblue" stroke="midnightblue" points="680.92,-135.58 689.99,-130.11 679.49,-128.72 680.92,-135.58"/>
</g>
<!-- Node24 -->
<g id="node24" class="node">
<title>Node24</title>
<g id="a_node24"><a xlink:title=" ">
<polygon fill="white" stroke="#bfbfbf" points="774,-112.5 774,-131.5 878,-131.5 878,-112.5 774,-112.5"/>
<text text-anchor="middle" x="826" y="-119.5" font-family="Helvetica,sans-Serif" font-size="10.00">apfDynamicMatrix.h</text>
</a>
</g>
</g>
<!-- Node1&#45;&gt;Node24 -->
<g id="edge24" class="edge">
<title>Node1&#45;&gt;Node24</title>
<path fill="none" stroke="midnightblue" d="M487.69,-172.79C540.24,-165.07 655.73,-148.09 763.67,-132.2"/>
<polygon fill="midnightblue" stroke="midnightblue" points="764.37,-135.63 773.76,-130.71 763.35,-128.7 764.37,-135.63"/>
</g>
<!-- Node3 -->
<g id="node3" class="node">
<title>Node3</title>
<g id="a_node3"><a xlink:href="mesh_8h.html" target="_top" xlink:title=" ">
<polygon fill="white" stroke="black" points="269.5,-56.5 269.5,-75.5 318.5,-75.5 318.5,-56.5 269.5,-56.5"/>
<text text-anchor="middle" x="294" y="-63.5" font-family="Helvetica,sans-Serif" font-size="10.00">mesh.h</text>
</a>
</g>
</g>
<!-- Node2&#45;&gt;Node3 -->
<g id="edge2" class="edge">
<title>Node2&#45;&gt;Node3</title>
<path fill="none" stroke="midnightblue" d="M345.2,-112.32C336.18,-104.34 322.59,-92.31 311.68,-82.65"/>
<polygon fill="midnightblue" stroke="midnightblue" points="313.79,-79.84 303.98,-75.83 309.15,-85.08 313.79,-79.84"/>
</g>
<!-- Node2&#45;&gt;Node14 -->
<g id="edge13" class="edge">
<title>Node2&#45;&gt;Node14</title>
<path fill="none" stroke="midnightblue" d="M335.51,-112.44C315.36,-103.6 283.68,-89.69 260.67,-79.59"/>
<polygon fill="midnightblue" stroke="midnightblue" points="261.96,-76.33 251.4,-75.52 259.15,-82.74 261.96,-76.33"/>
</g>
<!-- Node15 -->
<g id="node15" class="node">
<title>Node15</title>
<g id="a_node15"><a xlink:title=" ">
<polygon fill="white" stroke="#bfbfbf" points="337,-56.5 337,-75.5 405,-75.5 405,-56.5 337,-56.5"/>
<text text-anchor="middle" x="371" y="-63.5" font-family="Helvetica,sans-Serif" font-size="10.00">apfMesh2.h</text>
</a>
</g>
</g>
<!-- Node2&#45;&gt;Node15 -->
<g id="edge14" class="edge">
<title>Node2&#45;&gt;Node15</title>
<path fill="none" stroke="midnightblue" d="M357.64,-112.08C359.79,-104.85 362.88,-94.41 365.55,-85.4"/>
<polygon fill="midnightblue" stroke="midnightblue" points="368.92,-86.33 368.41,-75.75 362.21,-84.34 368.92,-86.33"/>
</g>
<!-- Node2&#45;&gt;Node16 -->
<g id="edge15" class="edge">
<title>Node2&#45;&gt;Node16</title>
<path fill="none" stroke="midnightblue" d="M405.32,-112.5C456.44,-103.86 538.21,-90.01 618.57,-76.24"/>
<polygon fill="midnightblue" stroke="midnightblue" points="619.61,-79.61 628.87,-74.48 618.42,-72.72 619.61,-79.61"/>
</g>
<!-- Node17 -->
<g id="node17" class="node">
<title>Node17</title>
<g id="a_node17"><a xlink:title=" ">
<polygon fill="white" stroke="#bfbfbf" points="423.5,-56.5 423.5,-75.5 466.5,-75.5 466.5,-56.5 423.5,-56.5"/>
<text text-anchor="middle" x="445" y="-63.5" font-family="Helvetica,sans-Serif" font-size="10.00">queue</text>
</a>
</g>
</g>
<!-- Node2&#45;&gt;Node17 -->
<g id="edge16" class="edge">
<title>Node2&#45;&gt;Node17</title>
<path fill="none" stroke="midnightblue" d="M369.46,-112.32C383.5,-103.9 405.05,-90.97 421.54,-81.07"/>
<polygon fill="midnightblue" stroke="midnightblue" points="423.8,-83.8 430.58,-75.65 420.2,-77.8 423.8,-83.8"/>
</g>
<!-- Node18 -->
<g id="node18" class="node">
<title>Node18</title>
<g id="a_node18"><a xlink:href="_py_embedded_functions_8h.html" target="_top" xlink:title=" ">
<polygon fill="white" stroke="black" points="485,-56.5 485,-75.5 611,-75.5 611,-56.5 485,-56.5"/>
<text text-anchor="middle" x="548" y="-63.5" font-family="Helvetica,sans-Serif" font-size="10.00">PyEmbeddedFunctions.h</text>
</a>
</g>
</g>
<!-- Node2&#45;&gt;Node18 -->
<g id="edge17" class="edge">
<title>Node2&#45;&gt;Node18</title>
<path fill="none" stroke="midnightblue" d="M385.58,-112.44C418.61,-103.2 471.39,-88.44 507.77,-78.26"/>
<polygon fill="midnightblue" stroke="midnightblue" points="508.87,-81.58 517.56,-75.52 506.99,-74.84 508.87,-81.58"/>
</g>
<!-- Node4 -->
<g id="node4" class="node">
<title>Node4</title>
<g id="a_node4"><a xlink:title=" ">
<polygon fill="white" stroke="#bfbfbf" points="575,-0.5 575,-19.5 605,-19.5 605,-0.5 575,-0.5"/>
<text text-anchor="middle" x="590" y="-7.5" font-family="Helvetica,sans-Serif" font-size="10.00">set</text>
</a>
</g>
</g>
<!-- Node3&#45;&gt;Node4 -->
<g id="edge3" class="edge">
<title>Node3&#45;&gt;Node4</title>
<path fill="none" stroke="midnightblue" d="M318.81,-58.1C321.89,-57.34 325.01,-56.62 328,-56 429.58,-34.94 460.6,-46.19 564.93,-19.79"/>
<polygon fill="midnightblue" stroke="midnightblue" points="566.11,-23.09 574.92,-17.2 564.36,-16.32 566.11,-23.09"/>
</g>
<!-- Node5 -->
<g id="node5" class="node">
<title>Node5</title>
<g id="a_node5"><a xlink:title=" ">
<polygon fill="white" stroke="#bfbfbf" points="140,-0.5 140,-19.5 184,-19.5 184,-0.5 140,-0.5"/>
<text text-anchor="middle" x="162" y="-7.5" font-family="Helvetica,sans-Serif" font-size="10.00">vector</text>
</a>
</g>
</g>
<!-- Node3&#45;&gt;Node5 -->
<g id="edge4" class="edge">
<title>Node3&#45;&gt;Node5</title>
<path fill="none" stroke="midnightblue" d="M273.08,-56.44C251.26,-47.52 216.85,-33.44 192.11,-23.32"/>
<polygon fill="midnightblue" stroke="midnightblue" points="193.4,-20.06 182.82,-19.52 190.75,-26.54 193.4,-20.06"/>
</g>
<!-- Node6 -->
<g id="node6" class="node">
<title>Node6</title>
<g id="a_node6"><a xlink:title=" ">
<polygon fill="white" stroke="#bfbfbf" points="202,-0.5 202,-19.5 258,-19.5 258,-0.5 202,-0.5"/>
<text text-anchor="middle" x="230" y="-7.5" font-family="Helvetica,sans-Serif" font-size="10.00">algorithm</text>
</a>
</g>
</g>
<!-- Node3&#45;&gt;Node6 -->
<g id="edge5" class="edge">
<title>Node3&#45;&gt;Node6</title>
<path fill="none" stroke="midnightblue" d="M283.72,-56.32C274.16,-48.26 259.72,-36.08 248.22,-26.37"/>
<polygon fill="midnightblue" stroke="midnightblue" points="250.37,-23.61 240.47,-19.83 245.86,-28.96 250.37,-23.61"/>
</g>
<!-- Node7 -->
<g id="node7" class="node">
<title>Node7</title>
<g id="a_node7"><a xlink:title=" ">
<polygon fill="white" stroke="#bfbfbf" points="276.5,-0.5 276.5,-19.5 311.5,-19.5 311.5,-0.5 276.5,-0.5"/>
<text text-anchor="middle" x="294" y="-7.5" font-family="Helvetica,sans-Serif" font-size="10.00">map</text>
</a>
</g>
</g>
<!-- Node3&#45;&gt;Node7 -->
<g id="edge6" class="edge">
<title>Node3&#45;&gt;Node7</title>
<path fill="none" stroke="midnightblue" d="M294,-56.08C294,-49.01 294,-38.86 294,-29.99"/>
<polygon fill="midnightblue" stroke="midnightblue" points="297.5,-29.75 294,-19.75 290.5,-29.75 297.5,-29.75"/>
</g>
<!-- Node8 -->
<g id="node8" class="node">
<title>Node8</title>
<g id="a_node8"><a xlink:title=" ">
<polygon fill="white" stroke="#bfbfbf" points="329.5,-0.5 329.5,-19.5 358.5,-19.5 358.5,-0.5 329.5,-0.5"/>
<text text-anchor="middle" x="344" y="-7.5" font-family="Helvetica,sans-Serif" font-size="10.00">list</text>
</a>
</g>
</g>
<!-- Node3&#45;&gt;Node8 -->
<g id="edge7" class="edge">
<title>Node3&#45;&gt;Node8</title>
<path fill="none" stroke="midnightblue" d="M302.26,-56.08C309.46,-48.3 320.11,-36.8 328.85,-27.37"/>
<polygon fill="midnightblue" stroke="midnightblue" points="331.67,-29.47 335.9,-19.75 326.53,-24.71 331.67,-29.47"/>
</g>
<!-- Node3&#45;&gt;Node9 -->
<g id="edge8" class="edge">
<title>Node3&#45;&gt;Node9</title>
<path fill="none" stroke="midnightblue" d="M269.17,-58.19C266.09,-57.41 262.98,-56.67 260,-56 176.19,-37.28 151.7,-38.67 63.94,-20.08"/>
<polygon fill="midnightblue" stroke="midnightblue" points="64.59,-16.64 54.08,-17.97 63.13,-23.49 64.59,-16.64"/>
</g>
<!-- Node10 -->
<g id="node10" class="node">
<title>Node10</title>
<g id="a_node10"><a xlink:title=" ">
<polygon fill="white" stroke="#bfbfbf" points="377,-0.5 377,-19.5 427,-19.5 427,-0.5 377,-0.5"/>
<text text-anchor="middle" x="402" y="-7.5" font-family="Helvetica,sans-Serif" font-size="10.00">iomanip</text>
</a>
</g>
</g>
<!-- Node3&#45;&gt;Node10 -->
<g id="edge9" class="edge">
<title>Node3&#45;&gt;Node10</title>
<path fill="none" stroke="midnightblue" d="M311.35,-56.32C328.67,-47.66 355.52,-34.24 375.5,-24.25"/>
<polygon fill="midnightblue" stroke="midnightblue" points="377.31,-27.26 384.69,-19.65 374.18,-21 377.31,-27.26"/>
</g>
<!-- Node3&#45;&gt;Node11 -->
<g id="edge10" class="edge">
<title>Node3&#45;&gt;Node11</title>
<path fill="none" stroke="midnightblue" d="M269.45,-58.27C234.82,-48.78 171.44,-31.41 131.92,-20.57"/>
<polygon fill="midnightblue" stroke="midnightblue" points="132.74,-17.17 122.17,-17.9 130.89,-23.92 132.74,-17.17"/>
</g>
<!-- Node12 -->
<g id="node12" class="node">
<title>Node12</title>
<g id="a_node12"><a xlink:title=" ">
<polygon fill="white" stroke="#bfbfbf" points="445.5,-0.5 445.5,-19.5 494.5,-19.5 494.5,-0.5 445.5,-0.5"/>
<text text-anchor="middle" x="470" y="-7.5" font-family="Helvetica,sans-Serif" font-size="10.00">cassert</text>
</a>
</g>
</g>
<!-- Node3&#45;&gt;Node12 -->
<g id="edge11" class="edge">
<title>Node3&#45;&gt;Node12</title>
<path fill="none" stroke="midnightblue" d="M318.84,-57.38C349.37,-48.01 401.34,-32.07 435.67,-21.53"/>
<polygon fill="midnightblue" stroke="midnightblue" points="436.75,-24.86 445.28,-18.58 434.7,-18.17 436.75,-24.86"/>
</g>
<!-- Node13 -->
<g id="node13" class="node">
<title>Node13</title>
<g id="a_node13"><a xlink:title=" ">
<polygon fill="white" stroke="#bfbfbf" points="513,-0.5 513,-19.5 557,-19.5 557,-0.5 513,-0.5"/>
<text text-anchor="middle" x="535" y="-7.5" font-family="Helvetica,sans-Serif" font-size="10.00">cmath</text>
</a>
</g>
</g>
<!-- Node3&#45;&gt;Node13 -->
<g id="edge12" class="edge">
<title>Node3&#45;&gt;Node13</title>
<path fill="none" stroke="midnightblue" d="M318.84,-58.25C321.92,-57.46 325.03,-56.7 328,-56 402.7,-38.49 424.78,-39.07 502.9,-20.12"/>
<polygon fill="midnightblue" stroke="midnightblue" points="503.83,-23.49 512.71,-17.71 502.16,-16.69 503.83,-23.49"/>
</g>
<!-- Node19 -->
<g id="node19" class="node">
<title>Node19</title>
<g id="a_node19"><a xlink:title=" ">
<polygon fill="white" stroke="#bfbfbf" points="623,-0.5 623,-19.5 679,-19.5 679,-0.5 623,-0.5"/>
<text text-anchor="middle" x="651" y="-7.5" font-family="Helvetica,sans-Serif" font-size="10.00">Python.h</text>
</a>
</g>
</g>
<!-- Node18&#45;&gt;Node19 -->
<g id="edge18" class="edge">
<title>Node18&#45;&gt;Node19</title>
<path fill="none" stroke="midnightblue" d="M564.55,-56.32C580.99,-47.7 606.43,-34.36 625.47,-24.39"/>
<polygon fill="midnightblue" stroke="midnightblue" points="627.26,-27.4 634.49,-19.65 624.01,-21.2 627.26,-27.4"/>
</g>
</g>
</svg>
