<?xml version="1.0" encoding="UTF-8" standalone="no"?>
<!DOCTYPE svg PUBLIC "-//W3C//DTD SVG 1.1//EN"
 "http://www.w3.org/Graphics/SVG/1.1/DTD/svg11.dtd">
<!-- Generated by graphviz version 2.44.1 (20200629.0846)
 -->
<!-- Title: VOF3P.h Pages: 1 -->
<svg width="488pt" height="140pt"
 viewBox="0.00 0.00 487.50 140.00" xmlns="http://www.w3.org/2000/svg" xmlns:xlink="http://www.w3.org/1999/xlink">
<g id="graph0" class="graph" transform="scale(1 1) rotate(0) translate(4 136)">
<title>VOF3P.h</title>
<polygon fill="white" stroke="transparent" points="-4,4 -4,-136 483.5,-136 483.5,4 -4,4"/>
<!-- Node1 -->
<g id="node1" class="node">
<title>Node1</title>
<g id="a_node1"><a xlink:title=" ">
<polygon fill="#bfbfbf" stroke="black" points="160.5,-112.5 160.5,-131.5 216.5,-131.5 216.5,-112.5 160.5,-112.5"/>
<text text-anchor="middle" x="188.5" y="-119.5" font-family="Helvetica,sans-Serif" font-size="10.00">VOF3P.h</text>
</a>
</g>
</g>
<!-- Node2 -->
<g id="node2" class="node">
<title>Node2</title>
<g id="a_node2"><a xlink:title=" ">
<polygon fill="white" stroke="#bfbfbf" points="51.5,-0.5 51.5,-19.5 95.5,-19.5 95.5,-0.5 51.5,-0.5"/>
<text text-anchor="middle" x="73.5" y="-7.5" font-family="Helvetica,sans-Serif" font-size="10.00">cmath</text>
</a>
</g>
</g>
<!-- Node1&#45;&gt;Node2 -->
<g id="edge1" class="edge">
<title>Node1&#45;&gt;Node2</title>
<path fill="none" stroke="midnightblue" d="M174.66,-112.45C161.56,-104.02 141.67,-90.34 126.5,-76 110.85,-61.21 95.6,-41.82 85.5,-28.08"/>
<polygon fill="midnightblue" stroke="midnightblue" points="88.08,-25.66 79.4,-19.59 82.4,-29.75 88.08,-25.66"/>
</g>
<!-- Node3 -->
<g id="node3" class="node">
<title>Node3</title>
<g id="a_node3"><a xlink:title=" ">
<polygon fill="white" stroke="#bfbfbf" points="223.5,-0.5 223.5,-19.5 277.5,-19.5 277.5,-0.5 223.5,-0.5"/>
<text text-anchor="middle" x="250.5" y="-7.5" font-family="Helvetica,sans-Serif" font-size="10.00">iostream</text>
</a>
</g>
</g>
<!-- Node1&#45;&gt;Node3 -->
<g id="edge2" class="edge">
<title>Node1&#45;&gt;Node3</title>
<path fill="none" stroke="midnightblue" d="M193.37,-112.37C203.55,-94.3 227.29,-52.18 240.74,-28.31"/>
<polygon fill="midnightblue" stroke="midnightblue" points="243.8,-30.02 245.66,-19.59 237.7,-26.58 243.8,-30.02"/>
</g>
<!-- Node4 -->
<g id="node4" class="node">
<title>Node4</title>
<g id="a_node4"><a xlink:title=" ">
<polygon fill="white" stroke="#bfbfbf" points="136,-56.5 136,-75.5 187,-75.5 187,-56.5 136,-56.5"/>
<text text-anchor="middle" x="161.5" y="-63.5" font-family="Helvetica,sans-Serif" font-size="10.00">valarray</text>
</a>
</g>
</g>
<!-- Node1&#45;&gt;Node4 -->
<g id="edge3" class="edge">
<title>Node1&#45;&gt;Node4</title>
<path fill="none" stroke="midnightblue" d="M184.04,-112.08C180.35,-104.69 174.98,-93.95 170.41,-84.81"/>
<polygon fill="midnightblue" stroke="midnightblue" points="173.48,-83.13 165.88,-75.75 167.22,-86.26 173.48,-83.13"/>
</g>
<!-- Node5 -->
<g id="node5" class="node">
<title>Node5</title>
<g id="a_node5"><a xlink:href="_comp_kernel_8h.html" target="_top" xlink:title=" ">
<polygon fill="white" stroke="black" points="0,-56.5 0,-75.5 79,-75.5 79,-56.5 0,-56.5"/>
<text text-anchor="middle" x="39.5" y="-63.5" font-family="Helvetica,sans-Serif" font-size="10.00">CompKernel.h</text>
</a>
</g>
</g>
<!-- Node1&#45;&gt;Node5 -->
<g id="edge4" class="edge">
<title>Node1&#45;&gt;Node5</title>
<path fill="none" stroke="midnightblue" d="M164.89,-112.44C140.04,-103.44 100.73,-89.19 72.75,-79.05"/>
<polygon fill="midnightblue" stroke="midnightblue" points="73.59,-75.63 63,-75.52 71.21,-82.21 73.59,-75.63"/>
</g>
<!-- Node6 -->
<g id="node6" class="node">
<title>Node6</title>
<g id="a_node6"><a xlink:href="_model_factory_8h.html" target="_top" xlink:title=" ">
<polygon fill="white" stroke="black" points="244,-56.5 244,-75.5 327,-75.5 327,-56.5 244,-56.5"/>
<text text-anchor="middle" x="285.5" y="-63.5" font-family="Helvetica,sans-Serif" font-size="10.00">ModelFactory.h</text>
</a>
</g>
</g>
<!-- Node1&#45;&gt;Node6 -->
<g id="edge6" class="edge">
<title>Node1&#45;&gt;Node6</title>
<path fill="none" stroke="midnightblue" d="M204.08,-112.32C219.5,-103.74 243.31,-90.49 261.21,-80.52"/>
<polygon fill="midnightblue" stroke="midnightblue" points="262.92,-83.58 269.95,-75.65 259.51,-77.46 262.92,-83.58"/>
</g>
<!-- Node7 -->
<g id="node7" class="node">
<title>Node7</title>
<g id="a_node7"><a xlink:title=" ">
<polygon fill="white" stroke="#bfbfbf" points="345.5,-56.5 345.5,-75.5 479.5,-75.5 479.5,-56.5 345.5,-56.5"/>
<text text-anchor="middle" x="412.5" y="-63.5" font-family="Helvetica,sans-Serif" font-size="10.00">xtensor&#45;python/pyarray.hpp</text>
</a>
</g>
</g>
<!-- Node1&#45;&gt;Node7 -->
<g id="edge8" class="edge">
<title>Node1&#45;&gt;Node7</title>
<path fill="none" stroke="midnightblue" d="M216.87,-114.16C254.74,-105.03 322.24,-88.76 367.2,-77.92"/>
<polygon fill="midnightblue" stroke="midnightblue" points="368.09,-81.31 376.99,-75.56 366.45,-74.5 368.09,-81.31"/>
</g>
<!-- Node5&#45;&gt;Node2 -->
<g id="edge5" class="edge">
<title>Node5&#45;&gt;Node2</title>
<path fill="none" stroke="midnightblue" d="M45.11,-56.08C49.87,-48.53 56.82,-37.49 62.65,-28.23"/>
<polygon fill="midnightblue" stroke="midnightblue" points="65.62,-30.08 67.99,-19.75 59.7,-26.35 65.62,-30.08"/>
</g>
<!-- Node6&#45;&gt;Node3 -->
<g id="edge7" class="edge">
<title>Node6&#45;&gt;Node3</title>
<path fill="none" stroke="midnightblue" d="M279.72,-56.08C274.83,-48.53 267.67,-37.49 261.67,-28.23"/>
<polygon fill="midnightblue" stroke="midnightblue" points="264.55,-26.24 256.17,-19.75 258.67,-30.05 264.55,-26.24"/>
</g>
</g>
</svg>
