<?xml version="1.0" encoding="UTF-8" standalone="no"?>
<!DOCTYPE svg PUBLIC "-//W3C//DTD SVG 1.1//EN"
 "http://www.w3.org/Graphics/SVG/1.1/DTD/svg11.dtd">
<!-- Generated by graphviz version 2.40.1 (20161225.0304)
 -->
<!-- Title: VOF3P.h Pages: 1 -->
<svg width="682pt" height="140pt"
 viewBox="0.00 0.00 681.50 140.00" xmlns="http://www.w3.org/2000/svg" xmlns:xlink="http://www.w3.org/1999/xlink">
<g id="graph0" class="graph" transform="scale(1 1) rotate(0) translate(4 136)">
<title>VOF3P.h</title>
<polygon fill="#ffffff" stroke="transparent" points="-4,4 -4,-136 677.5,-136 677.5,4 -4,4"/>
<!-- Node0 -->
<g id="node1" class="node">
<title>Node0</title>
<polygon fill="#bfbfbf" stroke="#000000" points="196.5,-112.5 196.5,-131.5 253.5,-131.5 253.5,-112.5 196.5,-112.5"/>
<text text-anchor="middle" x="225" y="-119.5" font-family="Helvetica,sans-Serif" font-size="10.00" fill="#000000">VOF3P.h</text>
</g>
<!-- Node1 -->
<g id="node2" class="node">
<title>Node1</title>
<polygon fill="#ffffff" stroke="#bfbfbf" points="0,-.5 0,-19.5 44,-19.5 44,-.5 0,-.5"/>
<text text-anchor="middle" x="22" y="-7.5" font-family="Helvetica,sans-Serif" font-size="10.00" fill="#000000">cmath</text>
</g>
<!-- Node0&#45;&gt;Node1 -->
<g id="edge1" class="edge">
<title>Node0&#45;&gt;Node1</title>
<path fill="none" stroke="#191970" d="M196.1623,-120.2809C142.478,-116.4142 30.512,-104.991 7,-76 -3.8249,-62.6526 2.6141,-43.0152 10.1245,-28.6307"/>
<polygon fill="#191970" stroke="#191970" points="13.3372,-30.0655 15.2963,-19.6534 7.2717,-26.5713 13.3372,-30.0655"/>
</g>
<!-- Node2 -->
<g id="node3" class="node">
<title>Node2</title>
<polygon fill="#ffffff" stroke="#bfbfbf" points="176,-.5 176,-19.5 230,-19.5 230,-.5 176,-.5"/>
<text text-anchor="middle" x="203" y="-7.5" font-family="Helvetica,sans-Serif" font-size="10.00" fill="#000000">iostream</text>
</g>
<!-- Node0&#45;&gt;Node2 -->
<g id="edge2" class="edge">
<title>Node0&#45;&gt;Node2</title>
<path fill="none" stroke="#191970" d="M241.7564,-112.3889C260.875,-100.1041 288.0338,-77.8067 276,-56 268.0442,-41.5833 253.4617,-31.0661 239.4099,-23.7578"/>
<polygon fill="#191970" stroke="#191970" points="240.8586,-20.5709 230.3276,-19.4097 237.836,-26.8847 240.8586,-20.5709"/>
</g>
<!-- Node3 -->
<g id="node4" class="node">
<title>Node3</title>
<polygon fill="#ffffff" stroke="#bfbfbf" points="113.5,-56.5 113.5,-75.5 164.5,-75.5 164.5,-56.5 113.5,-56.5"/>
<text text-anchor="middle" x="139" y="-63.5" font-family="Helvetica,sans-Serif" font-size="10.00" fill="#000000">valarray</text>
</g>
<!-- Node0&#45;&gt;Node3 -->
<g id="edge3" class="edge">
<title>Node0&#45;&gt;Node3</title>
<path fill="none" stroke="#191970" d="M210.0199,-112.2455C196.8249,-103.6534 177.3949,-91.0014 162.1921,-81.1018"/>
<polygon fill="#191970" stroke="#191970" points="164.0983,-78.1665 153.8084,-75.6427 160.2785,-84.0325 164.0983,-78.1665"/>
</g>
<!-- Node4 -->
<g id="node5" class="node">
<title>Node4</title>
<g id="a_node5"><a xlink:href="_comp_kernel_8h.html" target="_top" xlink:title="CompKernel.h">
<polygon fill="#ffffff" stroke="#000000" points="16.5,-56.5 16.5,-75.5 95.5,-75.5 95.5,-56.5 16.5,-56.5"/>
<text text-anchor="middle" x="56" y="-63.5" font-family="Helvetica,sans-Serif" font-size="10.00" fill="#000000">CompKernel.h</text>
</a>
</g>
</g>
<!-- Node0&#45;&gt;Node4 -->
<g id="edge4" class="edge">
<title>Node0&#45;&gt;Node4</title>
<path fill="none" stroke="#191970" d="M196.3315,-112.5004C168.2893,-103.2083 125.3987,-88.996 94.4161,-78.7296"/>
<polygon fill="#191970" stroke="#191970" points="95.4025,-75.3694 84.8092,-75.5462 93.2007,-82.0141 95.4025,-75.3694"/>
</g>
<!-- Node5 -->
<g id="node6" class="node">
<title>Node5</title>
<g id="a_node6"><a xlink:href="_model_factory_8h.html" target="_top" xlink:title="ModelFactory.h">
<polygon fill="#ffffff" stroke="#000000" points="183,-56.5 183,-75.5 267,-75.5 267,-56.5 183,-56.5"/>
<text text-anchor="middle" x="225" y="-63.5" font-family="Helvetica,sans-Serif" font-size="10.00" fill="#000000">ModelFactory.h</text>
</a>
</g>
</g>
<!-- Node0&#45;&gt;Node5 -->
<g id="edge6" class="edge">
<title>Node0&#45;&gt;Node5</title>
<path fill="none" stroke="#191970" d="M225,-112.2455C225,-104.9382 225,-94.6944 225,-85.7046"/>
<polygon fill="#191970" stroke="#191970" points="228.5001,-85.6426 225,-75.6427 221.5001,-85.6427 228.5001,-85.6426"/>
</g>
<!-- Node6 -->
<g id="node7" class="node">
<title>Node6</title>
<g id="a_node7"><a xlink:href="_arguments_dict_8h.html" target="_top" xlink:title="ArgumentsDict.h">
<polygon fill="#ffffff" stroke="#000000" points="366,-56.5 366,-75.5 456,-75.5 456,-56.5 366,-56.5"/>
<text text-anchor="middle" x="411" y="-63.5" font-family="Helvetica,sans-Serif" font-size="10.00" fill="#000000">ArgumentsDict.h</text>
</a>
</g>
</g>
<!-- Node0&#45;&gt;Node6 -->
<g id="edge8" class="edge">
<title>Node0&#45;&gt;Node6</title>
<path fill="none" stroke="#191970" d="M253.6549,-113.3727C284.5399,-104.074 333.9955,-89.1841 369.2132,-78.581"/>
<polygon fill="#191970" stroke="#191970" points="370.6284,-81.8102 379.1947,-75.5758 368.6103,-75.1074 370.6284,-81.8102"/>
</g>
<!-- Node10 -->
<g id="node11" class="node">
<title>Node10</title>
<polygon fill="#ffffff" stroke="#bfbfbf" points="538.5,-.5 538.5,-19.5 673.5,-19.5 673.5,-.5 538.5,-.5"/>
<text text-anchor="middle" x="606" y="-7.5" font-family="Helvetica,sans-Serif" font-size="10.00" fill="#000000">xtensor&#45;python/pyarray.hpp</text>
</g>
<!-- Node0&#45;&gt;Node10 -->
<g id="edge14" class="edge">
<title>Node0&#45;&gt;Node10</title>
<path fill="none" stroke="#191970" d="M253.6532,-118.8449C299.2469,-113.3084 390.7445,-100.0796 465,-76 506.8574,-62.4265 552.5019,-39.4243 580.1878,-24.4755"/>
<polygon fill="#191970" stroke="#191970" points="582.0995,-27.4194 589.1961,-19.5524 578.7425,-21.2768 582.0995,-27.4194"/>
</g>
<!-- Node4&#45;&gt;Node1 -->
<g id="edge5" class="edge">
<title>Node4&#45;&gt;Node1</title>
<path fill="none" stroke="#191970" d="M50.0777,-56.2455C45.3973,-48.5367 38.7327,-37.5598 33.0711,-28.2348"/>
<polygon fill="#191970" stroke="#191970" points="36.0361,-26.3741 27.8545,-19.6427 30.0525,-30.007 36.0361,-26.3741"/>
</g>
<!-- Node5&#45;&gt;Node2 -->
<g id="edge7" class="edge">
<title>Node5&#45;&gt;Node2</title>
<path fill="none" stroke="#191970" d="M221.1679,-56.2455C218.2341,-48.7776 214.0953,-38.2427 210.509,-29.1137"/>
<polygon fill="#191970" stroke="#191970" points="213.7024,-27.6704 206.7882,-19.6427 207.1871,-30.23 213.7024,-27.6704"/>
</g>
<!-- Node7 -->
<g id="node8" class="node">
<title>Node7</title>
<polygon fill="#ffffff" stroke="#bfbfbf" points="349.5,-.5 349.5,-19.5 384.5,-19.5 384.5,-.5 349.5,-.5"/>
<text text-anchor="middle" x="367" y="-7.5" font-family="Helvetica,sans-Serif" font-size="10.00" fill="#000000">map</text>
</g>
<!-- Node6&#45;&gt;Node7 -->
<g id="edge9" class="edge">
<title>Node6&#45;&gt;Node7</title>
<path fill="none" stroke="#191970" d="M403.3358,-56.2455C397.1527,-48.3761 388.2937,-37.101 380.8711,-27.6542"/>
<polygon fill="#191970" stroke="#191970" points="383.5068,-25.3435 374.5764,-19.6427 378.0025,-29.6683 383.5068,-25.3435"/>
</g>
<!-- Node8 -->
<g id="node9" class="node">
<title>Node8</title>
<polygon fill="#ffffff" stroke="#bfbfbf" points="402.5,-.5 402.5,-19.5 461.5,-19.5 461.5,-.5 402.5,-.5"/>
<text text-anchor="middle" x="432" y="-7.5" font-family="Helvetica,sans-Serif" font-size="10.00" fill="#000000">stdexcept</text>
</g>
<!-- Node6&#45;&gt;Node8 -->
<g id="edge10" class="edge">
<title>Node6&#45;&gt;Node8</title>
<path fill="none" stroke="#191970" d="M414.6579,-56.2455C417.4584,-48.7776 421.409,-38.2427 424.8324,-29.1137"/>
<polygon fill="#191970" stroke="#191970" points="428.1499,-30.2349 428.384,-19.6427 421.5955,-27.777 428.1499,-30.2349"/>
</g>
<!-- Node9 -->
<g id="node10" class="node">
<title>Node9</title>
<polygon fill="#ffffff" stroke="#bfbfbf" points="479.5,-.5 479.5,-19.5 520.5,-19.5 520.5,-.5 479.5,-.5"/>
<text text-anchor="middle" x="500" y="-7.5" font-family="Helvetica,sans-Serif" font-size="10.00" fill="#000000">string</text>
</g>
<!-- Node6&#45;&gt;Node9 -->
<g id="edge11" class="edge">
<title>Node6&#45;&gt;Node9</title>
<path fill="none" stroke="#191970" d="M426.5026,-56.2455C440.158,-47.6534 460.2657,-35.0014 475.9989,-25.1018"/>
<polygon fill="#191970" stroke="#191970" points="478.0751,-27.9307 484.675,-19.6427 474.3471,-22.006 478.0751,-27.9307"/>
</g>
<!-- Node6&#45;&gt;Node10 -->
<g id="edge12" class="edge">
<title>Node6&#45;&gt;Node10</title>
<path fill="none" stroke="#191970" d="M444.5217,-56.3733C477.3683,-46.9404 527.5595,-32.5265 563.2578,-22.2747"/>
<polygon fill="#191970" stroke="#191970" points="564.2703,-25.6255 572.9157,-19.5011 562.3381,-18.8974 564.2703,-25.6255"/>
</g>
<!-- Node11 -->
<g id="node12" class="node">
<title>Node11</title>
<polygon fill="#ffffff" stroke="#bfbfbf" points="248.5,-.5 248.5,-19.5 331.5,-19.5 331.5,-.5 248.5,-.5"/>
<text text-anchor="middle" x="290" y="-7.5" font-family="Helvetica,sans-Serif" font-size="10.00" fill="#000000">xtensor/xio.hpp</text>
</g>
<!-- Node6&#45;&gt;Node11 -->
<g id="edge13" class="edge">
<title>Node6&#45;&gt;Node11</title>
<path fill="none" stroke="#191970" d="M390.1994,-56.3733C370.7757,-47.3838 341.5776,-33.8706 319.7036,-23.7471"/>
<polygon fill="#191970" stroke="#191970" points="321.0745,-20.5249 310.5292,-19.5011 318.1344,-26.8776 321.0745,-20.5249"/>
</g>
</g>
</svg>
