<?xml version="1.0" encoding="UTF-8" standalone="no"?>
<!DOCTYPE svg PUBLIC "-//W3C//DTD SVG 1.1//EN"
 "http://www.w3.org/Graphics/SVG/1.1/DTD/svg11.dtd">
<!-- Generated by graphviz version 2.40.1 (20161225.0304)
 -->
<!-- Title: VOF.cpp Pages: 1 -->
<svg width="723pt" height="196pt"
 viewBox="0.00 0.00 722.50 196.00" xmlns="http://www.w3.org/2000/svg" xmlns:xlink="http://www.w3.org/1999/xlink">
<g id="graph0" class="graph" transform="scale(1 1) rotate(0) translate(4 192)">
<title>VOF.cpp</title>
<polygon fill="#ffffff" stroke="transparent" points="-4,4 -4,-192 718.5,-192 718.5,4 -4,4"/>
<!-- Node0 -->
<g id="node1" class="node">
<title>Node0</title>
<polygon fill="#bfbfbf" stroke="#000000" points="147,-168.5 147,-187.5 203,-187.5 203,-168.5 147,-168.5"/>
<text text-anchor="middle" x="175" y="-175.5" font-family="Helvetica,sans-Serif" font-size="10.00" fill="#000000">VOF.cpp</text>
</g>
<!-- Node1 -->
<g id="node2" class="node">
<title>Node1</title>
<polygon fill="#ffffff" stroke="#bfbfbf" points="0,-112.5 0,-131.5 106,-131.5 106,-112.5 0,-112.5"/>
<text text-anchor="middle" x="53" y="-119.5" font-family="Helvetica,sans-Serif" font-size="10.00" fill="#000000">pybind11/pybind11.h</text>
</g>
<!-- Node0&#45;&gt;Node1 -->
<g id="edge1" class="edge">
<title>Node0&#45;&gt;Node1</title>
<path fill="none" stroke="#191970" d="M154.0275,-168.3733C134.4433,-159.3838 105.0039,-145.8706 82.949,-135.7471"/>
<polygon fill="#191970" stroke="#191970" points="84.2473,-132.4919 73.6989,-131.5011 81.3271,-138.8538 84.2473,-132.4919"/>
</g>
<!-- Node2 -->
<g id="node3" class="node">
<title>Node2</title>
<polygon fill="#ffffff" stroke="#bfbfbf" points="124.5,-112.5 124.5,-131.5 225.5,-131.5 225.5,-112.5 124.5,-112.5"/>
<text text-anchor="middle" x="175" y="-119.5" font-family="Helvetica,sans-Serif" font-size="10.00" fill="#000000">pybind11/stl_bind.h</text>
</g>
<!-- Node0&#45;&gt;Node2 -->
<g id="edge2" class="edge">
<title>Node0&#45;&gt;Node2</title>
<path fill="none" stroke="#191970" d="M175,-168.2455C175,-160.9382 175,-150.6944 175,-141.7046"/>
<polygon fill="#191970" stroke="#191970" points="178.5001,-141.6426 175,-131.6427 171.5001,-141.6427 178.5001,-141.6426"/>
</g>
<!-- Node3 -->
<g id="node4" class="node">
<title>Node3</title>
<g id="a_node4"><a xlink:href="_v_o_f_8h.html" target="_top" xlink:title="VOF.h">
<polygon fill="#ffffff" stroke="#000000" points="243.5,-112.5 243.5,-131.5 288.5,-131.5 288.5,-112.5 243.5,-112.5"/>
<text text-anchor="middle" x="266" y="-119.5" font-family="Helvetica,sans-Serif" font-size="10.00" fill="#000000">VOF.h</text>
</a>
</g>
</g>
<!-- Node0&#45;&gt;Node3 -->
<g id="edge3" class="edge">
<title>Node0&#45;&gt;Node3</title>
<path fill="none" stroke="#191970" d="M190.851,-168.2455C204.8132,-159.6534 225.3728,-147.0014 241.4596,-137.1018"/>
<polygon fill="#191970" stroke="#191970" points="243.6484,-139.8645 250.3307,-131.6427 239.9797,-133.9029 243.6484,-139.8645"/>
</g>
<!-- Node4 -->
<g id="node5" class="node">
<title>Node4</title>
<polygon fill="#ffffff" stroke="#bfbfbf" points="41,-.5 41,-19.5 85,-19.5 85,-.5 41,-.5"/>
<text text-anchor="middle" x="63" y="-7.5" font-family="Helvetica,sans-Serif" font-size="10.00" fill="#000000">cmath</text>
</g>
<!-- Node3&#45;&gt;Node4 -->
<g id="edge4" class="edge">
<title>Node3&#45;&gt;Node4</title>
<path fill="none" stroke="#191970" d="M243.3634,-114.5827C240.2334,-113.6579 237.0477,-112.7686 234,-112 152.3554,-91.4104 101.5843,-140.9499 48,-76 37.0636,-62.7439 43.5184,-43.0934 51.063,-28.6811"/>
<polygon fill="#191970" stroke="#191970" points="54.2893,-30.0931 56.2599,-19.6831 48.2277,-26.592 54.2893,-30.0931"/>
</g>
<!-- Node5 -->
<g id="node6" class="node">
<title>Node5</title>
<polygon fill="#ffffff" stroke="#bfbfbf" points="217,-.5 217,-19.5 271,-19.5 271,-.5 217,-.5"/>
<text text-anchor="middle" x="244" y="-7.5" font-family="Helvetica,sans-Serif" font-size="10.00" fill="#000000">iostream</text>
</g>
<!-- Node3&#45;&gt;Node5 -->
<g id="edge5" class="edge">
<title>Node3&#45;&gt;Node5</title>
<path fill="none" stroke="#191970" d="M282.7564,-112.3889C301.875,-100.1041 329.0338,-77.8067 317,-56 309.0442,-41.5833 294.4617,-31.0661 280.4099,-23.7578"/>
<polygon fill="#191970" stroke="#191970" points="281.8586,-20.5709 271.3276,-19.4097 278.836,-26.8847 281.8586,-20.5709"/>
</g>
<!-- Node6 -->
<g id="node7" class="node">
<title>Node6</title>
<polygon fill="#ffffff" stroke="#bfbfbf" points="154.5,-56.5 154.5,-75.5 205.5,-75.5 205.5,-56.5 154.5,-56.5"/>
<text text-anchor="middle" x="180" y="-63.5" font-family="Helvetica,sans-Serif" font-size="10.00" fill="#000000">valarray</text>
</g>
<!-- Node3&#45;&gt;Node6 -->
<g id="edge6" class="edge">
<title>Node3&#45;&gt;Node6</title>
<path fill="none" stroke="#191970" d="M251.0199,-112.2455C237.8249,-103.6534 218.3949,-91.0014 203.1921,-81.1018"/>
<polygon fill="#191970" stroke="#191970" points="205.0983,-78.1665 194.8084,-75.6427 201.2785,-84.0325 205.0983,-78.1665"/>
</g>
<!-- Node7 -->
<g id="node8" class="node">
<title>Node7</title>
<g id="a_node8"><a xlink:href="_comp_kernel_8h.html" target="_top" xlink:title="CompKernel.h">
<polygon fill="#ffffff" stroke="#000000" points="57.5,-56.5 57.5,-75.5 136.5,-75.5 136.5,-56.5 57.5,-56.5"/>
<text text-anchor="middle" x="97" y="-63.5" font-family="Helvetica,sans-Serif" font-size="10.00" fill="#000000">CompKernel.h</text>
</a>
</g>
</g>
<!-- Node3&#45;&gt;Node7 -->
<g id="edge7" class="edge">
<title>Node3&#45;&gt;Node7</title>
<path fill="none" stroke="#191970" d="M243.2079,-114.4476C215.6917,-105.3298 168.9801,-89.8514 135.7637,-78.8448"/>
<polygon fill="#191970" stroke="#191970" points="136.5179,-75.4076 125.9246,-75.5845 134.3161,-82.0523 136.5179,-75.4076"/>
</g>
<!-- Node8 -->
<g id="node9" class="node">
<title>Node8</title>
<g id="a_node9"><a xlink:href="_model_factory_8h.html" target="_top" xlink:title="ModelFactory.h">
<polygon fill="#ffffff" stroke="#000000" points="224,-56.5 224,-75.5 308,-75.5 308,-56.5 224,-56.5"/>
<text text-anchor="middle" x="266" y="-63.5" font-family="Helvetica,sans-Serif" font-size="10.00" fill="#000000">ModelFactory.h</text>
</a>
</g>
</g>
<!-- Node3&#45;&gt;Node8 -->
<g id="edge9" class="edge">
<title>Node3&#45;&gt;Node8</title>
<path fill="none" stroke="#191970" d="M266,-112.2455C266,-104.9382 266,-94.6944 266,-85.7046"/>
<polygon fill="#191970" stroke="#191970" points="269.5001,-85.6426 266,-75.6427 262.5001,-85.6427 269.5001,-85.6426"/>
</g>
<!-- Node9 -->
<g id="node10" class="node">
<title>Node9</title>
<g id="a_node10"><a xlink:href="_arguments_dict_8h.html" target="_top" xlink:title="ArgumentsDict.h">
<polygon fill="#ffffff" stroke="#000000" points="407,-56.5 407,-75.5 497,-75.5 497,-56.5 407,-56.5"/>
<text text-anchor="middle" x="452" y="-63.5" font-family="Helvetica,sans-Serif" font-size="10.00" fill="#000000">ArgumentsDict.h</text>
</a>
</g>
</g>
<!-- Node3&#45;&gt;Node9 -->
<g id="edge11" class="edge">
<title>Node3&#45;&gt;Node9</title>
<path fill="none" stroke="#191970" d="M288.8073,-115.1333C319.0839,-106.0177 373.0901,-89.7578 410.6446,-78.4511"/>
<polygon fill="#191970" stroke="#191970" points="411.7232,-81.7816 420.2896,-75.5472 409.7051,-75.0788 411.7232,-81.7816"/>
</g>
<!-- Node13 -->
<g id="node14" class="node">
<title>Node13</title>
<polygon fill="#ffffff" stroke="#bfbfbf" points="579.5,-.5 579.5,-19.5 714.5,-19.5 714.5,-.5 579.5,-.5"/>
<text text-anchor="middle" x="647" y="-7.5" font-family="Helvetica,sans-Serif" font-size="10.00" fill="#000000">xtensor&#45;python/pyarray.hpp</text>
</g>
<!-- Node3&#45;&gt;Node13 -->
<g id="edge17" class="edge">
<title>Node3&#45;&gt;Node13</title>
<path fill="none" stroke="#191970" d="M288.6347,-119.5633C331.7565,-114.5075 428.3142,-101.192 506,-76 547.8574,-62.4265 593.5019,-39.4243 621.1878,-24.4755"/>
<polygon fill="#191970" stroke="#191970" points="623.0995,-27.4194 630.1961,-19.5524 619.7425,-21.2768 623.0995,-27.4194"/>
</g>
<!-- Node7&#45;&gt;Node4 -->
<g id="edge8" class="edge">
<title>Node7&#45;&gt;Node4</title>
<path fill="none" stroke="#191970" d="M91.0777,-56.2455C86.3973,-48.5367 79.7327,-37.5598 74.0711,-28.2348"/>
<polygon fill="#191970" stroke="#191970" points="77.0361,-26.3741 68.8545,-19.6427 71.0525,-30.007 77.0361,-26.3741"/>
</g>
<!-- Node8&#45;&gt;Node5 -->
<g id="edge10" class="edge">
<title>Node8&#45;&gt;Node5</title>
<path fill="none" stroke="#191970" d="M262.1679,-56.2455C259.2341,-48.7776 255.0953,-38.2427 251.509,-29.1137"/>
<polygon fill="#191970" stroke="#191970" points="254.7024,-27.6704 247.7882,-19.6427 248.1871,-30.23 254.7024,-27.6704"/>
</g>
<!-- Node10 -->
<g id="node11" class="node">
<title>Node10</title>
<polygon fill="#ffffff" stroke="#bfbfbf" points="390.5,-.5 390.5,-19.5 425.5,-19.5 425.5,-.5 390.5,-.5"/>
<text text-anchor="middle" x="408" y="-7.5" font-family="Helvetica,sans-Serif" font-size="10.00" fill="#000000">map</text>
</g>
<!-- Node9&#45;&gt;Node10 -->
<g id="edge12" class="edge">
<title>Node9&#45;&gt;Node10</title>
<path fill="none" stroke="#191970" d="M444.3358,-56.2455C438.1527,-48.3761 429.2937,-37.101 421.8711,-27.6542"/>
<polygon fill="#191970" stroke="#191970" points="424.5068,-25.3435 415.5764,-19.6427 419.0025,-29.6683 424.5068,-25.3435"/>
</g>
<!-- Node11 -->
<g id="node12" class="node">
<title>Node11</title>
<polygon fill="#ffffff" stroke="#bfbfbf" points="443.5,-.5 443.5,-19.5 502.5,-19.5 502.5,-.5 443.5,-.5"/>
<text text-anchor="middle" x="473" y="-7.5" font-family="Helvetica,sans-Serif" font-size="10.00" fill="#000000">stdexcept</text>
</g>
<!-- Node9&#45;&gt;Node11 -->
<g id="edge13" class="edge">
<title>Node9&#45;&gt;Node11</title>
<path fill="none" stroke="#191970" d="M455.6579,-56.2455C458.4584,-48.7776 462.409,-38.2427 465.8324,-29.1137"/>
<polygon fill="#191970" stroke="#191970" points="469.1499,-30.2349 469.384,-19.6427 462.5955,-27.777 469.1499,-30.2349"/>
</g>
<!-- Node12 -->
<g id="node13" class="node">
<title>Node12</title>
<polygon fill="#ffffff" stroke="#bfbfbf" points="520.5,-.5 520.5,-19.5 561.5,-19.5 561.5,-.5 520.5,-.5"/>
<text text-anchor="middle" x="541" y="-7.5" font-family="Helvetica,sans-Serif" font-size="10.00" fill="#000000">string</text>
</g>
<!-- Node9&#45;&gt;Node12 -->
<g id="edge14" class="edge">
<title>Node9&#45;&gt;Node12</title>
<path fill="none" stroke="#191970" d="M467.5026,-56.2455C481.158,-47.6534 501.2657,-35.0014 516.9989,-25.1018"/>
<polygon fill="#191970" stroke="#191970" points="519.0751,-27.9307 525.675,-19.6427 515.3471,-22.006 519.0751,-27.9307"/>
</g>
<!-- Node9&#45;&gt;Node13 -->
<g id="edge15" class="edge">
<title>Node9&#45;&gt;Node13</title>
<path fill="none" stroke="#191970" d="M485.5217,-56.3733C518.3683,-46.9404 568.5595,-32.5265 604.2578,-22.2747"/>
<polygon fill="#191970" stroke="#191970" points="605.2703,-25.6255 613.9157,-19.5011 603.3381,-18.8974 605.2703,-25.6255"/>
</g>
<!-- Node14 -->
<g id="node15" class="node">
<title>Node14</title>
<polygon fill="#ffffff" stroke="#bfbfbf" points="289.5,-.5 289.5,-19.5 372.5,-19.5 372.5,-.5 289.5,-.5"/>
<text text-anchor="middle" x="331" y="-7.5" font-family="Helvetica,sans-Serif" font-size="10.00" fill="#000000">xtensor/xio.hpp</text>
</g>
<!-- Node9&#45;&gt;Node14 -->
<g id="edge16" class="edge">
<title>Node9&#45;&gt;Node14</title>
<path fill="none" stroke="#191970" d="M431.1994,-56.3733C411.7757,-47.3838 382.5776,-33.8706 360.7036,-23.7471"/>
<polygon fill="#191970" stroke="#191970" points="362.0745,-20.5249 351.5292,-19.5011 359.1344,-26.8776 362.0745,-20.5249"/>
</g>
</g>
</svg>
