<?xml version="1.0" encoding="UTF-8" standalone="no"?>
<!DOCTYPE svg PUBLIC "-//W3C//DTD SVG 1.1//EN"
 "http://www.w3.org/Graphics/SVG/1.1/DTD/svg11.dtd">
<!-- Generated by graphviz version 2.50.0 (20211204.2007)
 -->
<!-- Title: VOF.cpp Pages: 1 -->
<svg width="722pt" height="196pt"
 viewBox="0.00 0.00 722.00 196.00" xmlns="http://www.w3.org/2000/svg" xmlns:xlink="http://www.w3.org/1999/xlink">
<g id="graph0" class="graph" transform="scale(1 1) rotate(0) translate(4 192)">
<title>VOF.cpp</title>
<polygon fill="white" stroke="transparent" points="-4,4 -4,-192 718,-192 718,4 -4,4"/>
<!-- Node1 -->
<g id="node1" class="node">
<title>Node1</title>
<g id="a_node1"><a xlink:title=" ">
<polygon fill="#bfbfbf" stroke="black" points="148,-168.5 148,-187.5 202,-187.5 202,-168.5 148,-168.5"/>
<text text-anchor="middle" x="175" y="-175.5" font-family="Helvetica,sans-Serif" font-size="10.00">VOF.cpp</text>
</a>
</g>
</g>
<!-- Node2 -->
<g id="node2" class="node">
<title>Node2</title>
<g id="a_node2"><a xlink:title=" ">
<polygon fill="white" stroke="#bfbfbf" points="0,-112.5 0,-131.5 106,-131.5 106,-112.5 0,-112.5"/>
<text text-anchor="middle" x="53" y="-119.5" font-family="Helvetica,sans-Serif" font-size="10.00">pybind11/pybind11.h</text>
</a>
</g>
</g>
<!-- Node1&#45;&gt;Node2 -->
<g id="edge1" class="edge">
<title>Node1&#45;&gt;Node2</title>
<path fill="none" stroke="midnightblue" d="M155.67,-168.44C135.68,-159.6 104.26,-145.69 81.44,-135.59"/>
<polygon fill="midnightblue" stroke="midnightblue" points="82.8,-132.36 72.24,-131.52 79.97,-138.76 82.8,-132.36"/>
</g>
<!-- Node3 -->
<g id="node3" class="node">
<title>Node3</title>
<g id="a_node3"><a xlink:title=" ">
<polygon fill="white" stroke="#bfbfbf" points="124.5,-112.5 124.5,-131.5 225.5,-131.5 225.5,-112.5 124.5,-112.5"/>
<text text-anchor="middle" x="175" y="-119.5" font-family="Helvetica,sans-Serif" font-size="10.00">pybind11/stl_bind.h</text>
</a>
</g>
</g>
<!-- Node1&#45;&gt;Node3 -->
<g id="edge2" class="edge">
<title>Node1&#45;&gt;Node3</title>
<path fill="none" stroke="midnightblue" d="M175,-168.08C175,-161.01 175,-150.86 175,-141.99"/>
<polygon fill="midnightblue" stroke="midnightblue" points="178.5,-141.75 175,-131.75 171.5,-141.75 178.5,-141.75"/>
</g>
<!-- Node4 -->
<g id="node4" class="node">
<title>Node4</title>
<g id="a_node4"><a xlink:href="_v_o_f_8h.html" target="_top" xlink:title=" ">
<polygon fill="white" stroke="black" points="244,-112.5 244,-131.5 288,-131.5 288,-112.5 244,-112.5"/>
<text text-anchor="middle" x="266" y="-119.5" font-family="Helvetica,sans-Serif" font-size="10.00">VOF.h</text>
</a>
</g>
</g>
<!-- Node1&#45;&gt;Node4 -->
<g id="edge3" class="edge">
<title>Node1&#45;&gt;Node4</title>
<path fill="none" stroke="midnightblue" d="M189.62,-168.32C203.95,-159.82 226.01,-146.73 242.75,-136.8"/>
<polygon fill="midnightblue" stroke="midnightblue" points="244.6,-139.77 251.42,-131.65 241.03,-133.75 244.6,-139.77"/>
</g>
<!-- Node5 -->
<g id="node5" class="node">
<title>Node5</title>
<g id="a_node5"><a xlink:title=" ">
<polygon fill="white" stroke="#bfbfbf" points="42,-0.5 42,-19.5 86,-19.5 86,-0.5 42,-0.5"/>
<text text-anchor="middle" x="64" y="-7.5" font-family="Helvetica,sans-Serif" font-size="10.00">cmath</text>
</a>
</g>
</g>
<!-- Node4&#45;&gt;Node5 -->
<g id="edge4" class="edge">
<title>Node4&#45;&gt;Node5</title>
<path fill="none" stroke="midnightblue" d="M243.68,-114.47C240.44,-113.6 237.14,-112.75 234,-112 152.5,-92.64 102.27,-140.64 49,-76 37.99,-62.64 44.95,-42.72 52.65,-28.45"/>
<polygon fill="midnightblue" stroke="midnightblue" points="55.8,-30.02 57.89,-19.63 49.78,-26.44 55.8,-30.02"/>
</g>
<!-- Node6 -->
<g id="node6" class="node">
<title>Node6</title>
<g id="a_node6"><a xlink:title=" ">
<polygon fill="white" stroke="#bfbfbf" points="217,-0.5 217,-19.5 271,-19.5 271,-0.5 217,-0.5"/>
<text text-anchor="middle" x="244" y="-7.5" font-family="Helvetica,sans-Serif" font-size="10.00">iostream</text>
</a>
</g>
</g>
<!-- Node4&#45;&gt;Node6 -->
<g id="edge5" class="edge">
<title>Node4&#45;&gt;Node6</title>
<path fill="none" stroke="midnightblue" d="M281.43,-112.38C300.59,-100.5 329.31,-78.04 317,-56 308.84,-41.39 293.78,-30.94 279.45,-23.8"/>
<polygon fill="midnightblue" stroke="midnightblue" points="280.76,-20.56 270.21,-19.59 277.85,-26.92 280.76,-20.56"/>
</g>
<!-- Node7 -->
<g id="node7" class="node">
<title>Node7</title>
<g id="a_node7"><a xlink:title=" ">
<polygon fill="white" stroke="#bfbfbf" points="155.5,-56.5 155.5,-75.5 206.5,-75.5 206.5,-56.5 155.5,-56.5"/>
<text text-anchor="middle" x="181" y="-63.5" font-family="Helvetica,sans-Serif" font-size="10.00">valarray</text>
</a>
</g>
</g>
<!-- Node4&#45;&gt;Node7 -->
<g id="edge6" class="edge">
<title>Node4&#45;&gt;Node7</title>
<path fill="none" stroke="midnightblue" d="M252.34,-112.32C239.08,-103.9 218.73,-90.97 203.15,-81.07"/>
<polygon fill="midnightblue" stroke="midnightblue" points="204.94,-78.06 194.62,-75.65 201.19,-83.97 204.94,-78.06"/>
</g>
<!-- Node8 -->
<g id="node8" class="node">
<title>Node8</title>
<g id="a_node8"><a xlink:href="_comp_kernel_8h.html" target="_top" xlink:title=" ">
<polygon fill="white" stroke="black" points="58.5,-56.5 58.5,-75.5 137.5,-75.5 137.5,-56.5 58.5,-56.5"/>
<text text-anchor="middle" x="98" y="-63.5" font-family="Helvetica,sans-Serif" font-size="10.00">CompKernel.h</text>
</a>
</g>
</g>
<!-- Node4&#45;&gt;Node8 -->
<g id="edge7" class="edge">
<title>Node4&#45;&gt;Node8</title>
<path fill="none" stroke="midnightblue" d="M243.69,-113.83C215.78,-104.86 167.63,-89.38 134.37,-78.69"/>
<polygon fill="midnightblue" stroke="midnightblue" points="135.15,-75.27 124.56,-75.54 133.01,-81.93 135.15,-75.27"/>
</g>
<!-- Node9 -->
<g id="node9" class="node">
<title>Node9</title>
<g id="a_node9"><a xlink:href="_model_factory_8h.html" target="_top" xlink:title=" ">
<polygon fill="white" stroke="black" points="224.5,-56.5 224.5,-75.5 307.5,-75.5 307.5,-56.5 224.5,-56.5"/>
<text text-anchor="middle" x="266" y="-63.5" font-family="Helvetica,sans-Serif" font-size="10.00">ModelFactory.h</text>
</a>
</g>
</g>
<!-- Node4&#45;&gt;Node9 -->
<g id="edge9" class="edge">
<title>Node4&#45;&gt;Node9</title>
<path fill="none" stroke="midnightblue" d="M266,-112.08C266,-105.01 266,-94.86 266,-85.99"/>
<polygon fill="midnightblue" stroke="midnightblue" points="269.5,-85.75 266,-75.75 262.5,-85.75 269.5,-85.75"/>
</g>
<!-- Node10 -->
<g id="node10" class="node">
<title>Node10</title>
<g id="a_node10"><a xlink:href="_arguments_dict_8h.html" target="_top" xlink:title=" ">
<polygon fill="white" stroke="black" points="407,-56.5 407,-75.5 497,-75.5 497,-56.5 407,-56.5"/>
<text text-anchor="middle" x="452" y="-63.5" font-family="Helvetica,sans-Serif" font-size="10.00">ArgumentsDict.h</text>
</a>
</g>
</g>
<!-- Node4&#45;&gt;Node10 -->
<g id="edge11" class="edge">
<title>Node4&#45;&gt;Node10</title>
<path fill="none" stroke="midnightblue" d="M288.07,-114.59C318.81,-105.67 375.01,-89.35 412.93,-78.34"/>
<polygon fill="midnightblue" stroke="midnightblue" points="414,-81.68 422.62,-75.53 412.04,-74.96 414,-81.68"/>
</g>
<!-- Node14 -->
<g id="node14" class="node">
<title>Node14</title>
<g id="a_node14"><a xlink:title=" ">
<polygon fill="white" stroke="#bfbfbf" points="580,-0.5 580,-19.5 714,-19.5 714,-0.5 580,-0.5"/>
<text text-anchor="middle" x="647" y="-7.5" font-family="Helvetica,sans-Serif" font-size="10.00">xtensor&#45;python/pyarray.hpp</text>
</a>
</g>
</g>
<!-- Node4&#45;&gt;Node14 -->
<g id="edge17" class="edge">
<title>Node4&#45;&gt;Node14</title>
<path fill="none" stroke="midnightblue" d="M288.29,-118.68C331.22,-113.81 428.05,-100.85 506,-76 548.73,-62.38 595.48,-39 622.97,-24.31"/>
<polygon fill="midnightblue" stroke="midnightblue" points="624.72,-27.34 631.85,-19.51 621.39,-21.19 624.72,-27.34"/>
</g>
<!-- Node8&#45;&gt;Node5 -->
<g id="edge8" class="edge">
<title>Node8&#45;&gt;Node5</title>
<path fill="none" stroke="midnightblue" d="M92.39,-56.08C87.63,-48.53 80.68,-37.49 74.85,-28.23"/>
<polygon fill="midnightblue" stroke="midnightblue" points="77.8,-26.35 69.51,-19.75 71.88,-30.08 77.8,-26.35"/>
</g>
<!-- Node9&#45;&gt;Node6 -->
<g id="edge10" class="edge">
<title>Node9&#45;&gt;Node6</title>
<path fill="none" stroke="midnightblue" d="M262.37,-56.08C259.39,-48.77 255.07,-38.18 251.38,-29.1"/>
<polygon fill="midnightblue" stroke="midnightblue" points="254.58,-27.69 247.57,-19.75 248.1,-30.33 254.58,-27.69"/>
</g>
<!-- Node11 -->
<g id="node11" class="node">
<title>Node11</title>
<g id="a_node11"><a xlink:title=" ">
<polygon fill="white" stroke="#bfbfbf" points="390.5,-0.5 390.5,-19.5 425.5,-19.5 425.5,-0.5 390.5,-0.5"/>
<text text-anchor="middle" x="408" y="-7.5" font-family="Helvetica,sans-Serif" font-size="10.00">map</text>
</a>
</g>
</g>
<!-- Node10&#45;&gt;Node11 -->
<g id="edge12" class="edge">
<title>Node10&#45;&gt;Node11</title>
<path fill="none" stroke="midnightblue" d="M444.73,-56.08C438.46,-48.38 429.21,-37.03 421.57,-27.65"/>
<polygon fill="midnightblue" stroke="midnightblue" points="424.16,-25.29 415.13,-19.75 418.73,-29.71 424.16,-25.29"/>
</g>
<!-- Node12 -->
<g id="node12" class="node">
<title>Node12</title>
<g id="a_node12"><a xlink:title=" ">
<polygon fill="white" stroke="#bfbfbf" points="443.5,-0.5 443.5,-19.5 502.5,-19.5 502.5,-0.5 443.5,-0.5"/>
<text text-anchor="middle" x="473" y="-7.5" font-family="Helvetica,sans-Serif" font-size="10.00">stdexcept</text>
</a>
</g>
</g>
<!-- Node10&#45;&gt;Node12 -->
<g id="edge13" class="edge">
<title>Node10&#45;&gt;Node12</title>
<path fill="none" stroke="midnightblue" d="M455.47,-56.08C458.31,-48.77 462.43,-38.18 465.96,-29.1"/>
<polygon fill="midnightblue" stroke="midnightblue" points="469.23,-30.34 469.6,-19.75 462.71,-27.8 469.23,-30.34"/>
</g>
<!-- Node13 -->
<g id="node13" class="node">
<title>Node13</title>
<g id="a_node13"><a xlink:title=" ">
<polygon fill="white" stroke="#bfbfbf" points="520.5,-0.5 520.5,-19.5 561.5,-19.5 561.5,-0.5 520.5,-0.5"/>
<text text-anchor="middle" x="541" y="-7.5" font-family="Helvetica,sans-Serif" font-size="10.00">string</text>
</a>
</g>
</g>
<!-- Node10&#45;&gt;Node13 -->
<g id="edge14" class="edge">
<title>Node10&#45;&gt;Node13</title>
<path fill="none" stroke="midnightblue" d="M466.3,-56.32C480.18,-47.9 501.49,-34.97 517.8,-25.07"/>
<polygon fill="midnightblue" stroke="midnightblue" points="520,-27.83 526.74,-19.65 516.37,-21.85 520,-27.83"/>
</g>
<!-- Node10&#45;&gt;Node14 -->
<g id="edge15" class="edge">
<title>Node10&#45;&gt;Node14</title>
<path fill="none" stroke="midnightblue" d="M482.9,-56.44C516.27,-47.2 569.59,-32.44 606.35,-22.26"/>
<polygon fill="midnightblue" stroke="midnightblue" points="607.54,-25.56 616.25,-19.52 605.67,-18.81 607.54,-25.56"/>
</g>
<!-- Node15 -->
<g id="node15" class="node">
<title>Node15</title>
<g id="a_node15"><a xlink:title=" ">
<polygon fill="white" stroke="#bfbfbf" points="289.5,-0.5 289.5,-19.5 372.5,-19.5 372.5,-0.5 289.5,-0.5"/>
<text text-anchor="middle" x="331" y="-7.5" font-family="Helvetica,sans-Serif" font-size="10.00">xtensor/xio.hpp</text>
</a>
</g>
</g>
<!-- Node10&#45;&gt;Node15 -->
<g id="edge16" class="edge">
<title>Node10&#45;&gt;Node15</title>
<path fill="none" stroke="midnightblue" d="M432.83,-56.44C413.09,-47.64 382.11,-33.81 359.51,-23.72"/>
<polygon fill="midnightblue" stroke="midnightblue" points="360.64,-20.4 350.08,-19.52 357.79,-26.79 360.64,-20.4"/>
</g>
</g>
</svg>
