<?xml version="1.0" encoding="UTF-8" standalone="no"?>
<!DOCTYPE svg PUBLIC "-//W3C//DTD SVG 1.1//EN"
 "http://www.w3.org/Graphics/SVG/1.1/DTD/svg11.dtd">
<!-- Generated by graphviz version 2.43.0 (0)
 -->
<!-- Title: VOS3P.h Pages: 1 -->
<svg width="733pt" height="140pt"
 viewBox="0.00 0.00 733.00 140.00" xmlns="http://www.w3.org/2000/svg" xmlns:xlink="http://www.w3.org/1999/xlink">
<g id="graph0" class="graph" transform="scale(1 1) rotate(0) translate(4 136)">
<title>VOS3P.h</title>
<polygon fill="white" stroke="transparent" points="-4,4 -4,-136 729,-136 729,4 -4,4"/>
<!-- Node1 -->
<g id="node1" class="node">
<title>Node1</title>
<g id="a_node1"><a xlink:title=" ">
<polygon fill="#bfbfbf" stroke="black" points="210.5,-112.5 210.5,-131.5 266.5,-131.5 266.5,-112.5 210.5,-112.5"/>
<text text-anchor="middle" x="238.5" y="-119.5" font-family="Helvetica,sans-Serif" font-size="10.00">VOS3P.h</text>
</a>
</g>
</g>
<!-- Node2 -->
<g id="node2" class="node">
<title>Node2</title>
<g id="a_node2"><a xlink:title=" ">
<polygon fill="white" stroke="#bfbfbf" points="0,-0.5 0,-19.5 47,-19.5 47,-0.5 0,-0.5"/>
<text text-anchor="middle" x="23.5" y="-7.5" font-family="Helvetica,sans-Serif" font-size="10.00">cmath</text>
</a>
</g>
</g>
<!-- Node1&#45;&gt;Node2 -->
<g id="edge1" class="edge">
<title>Node1&#45;&gt;Node2</title>
<path fill="none" stroke="midnightblue" d="M210.46,-119.85C154.49,-116.92 32.08,-107.02 6.5,-76 -4.59,-62.55 3.07,-42.64 11.36,-28.4"/>
<polygon fill="midnightblue" stroke="midnightblue" points="14.55,-29.91 16.98,-19.6 8.65,-26.15 14.55,-29.91"/>
</g>
<!-- Node3 -->
<g id="node3" class="node">
<title>Node3</title>
<g id="a_node3"><a xlink:title=" ">
<polygon fill="white" stroke="#bfbfbf" points="183.5,-0.5 183.5,-19.5 243.5,-19.5 243.5,-0.5 183.5,-0.5"/>
<text text-anchor="middle" x="213.5" y="-7.5" font-family="Helvetica,sans-Serif" font-size="10.00">iostream</text>
</a>
</g>
</g>
<!-- Node1&#45;&gt;Node3 -->
<g id="edge2" class="edge">
<title>Node1&#45;&gt;Node3</title>
<path fill="none" stroke="midnightblue" d="M254.55,-112.43C274.46,-100.59 304.32,-78.19 291.5,-56 282.82,-40.98 267.01,-30.52 251.88,-23.5"/>
<polygon fill="midnightblue" stroke="midnightblue" points="253.19,-20.25 242.62,-19.56 250.45,-26.69 253.19,-20.25"/>
</g>
<!-- Node4 -->
<g id="node4" class="node">
<title>Node4</title>
<g id="a_node4"><a xlink:title=" ">
<polygon fill="white" stroke="#bfbfbf" points="119,-56.5 119,-75.5 176,-75.5 176,-56.5 119,-56.5"/>
<text text-anchor="middle" x="147.5" y="-63.5" font-family="Helvetica,sans-Serif" font-size="10.00">valarray</text>
</a>
</g>
</g>
<!-- Node1&#45;&gt;Node4 -->
<g id="edge3" class="edge">
<title>Node1&#45;&gt;Node4</title>
<path fill="none" stroke="midnightblue" d="M223.88,-112.32C209.55,-103.82 187.49,-90.73 170.75,-80.8"/>
<polygon fill="midnightblue" stroke="midnightblue" points="172.47,-77.75 162.08,-75.65 168.9,-83.77 172.47,-77.75"/>
</g>
<!-- Node5 -->
<g id="node5" class="node">
<title>Node5</title>
<g id="a_node5"><a xlink:href="_comp_kernel_8h.html" target="_top" xlink:title=" ">
<polygon fill="white" stroke="black" points="16,-56.5 16,-75.5 101,-75.5 101,-56.5 16,-56.5"/>
<text text-anchor="middle" x="58.5" y="-63.5" font-family="Helvetica,sans-Serif" font-size="10.00">CompKernel.h</text>
</a>
</g>
</g>
<!-- Node1&#45;&gt;Node5 -->
<g id="edge4" class="edge">
<title>Node1&#45;&gt;Node5</title>
<path fill="none" stroke="midnightblue" d="M210.38,-112.56C179.78,-103.38 130.69,-88.66 96.63,-78.44"/>
<polygon fill="midnightblue" stroke="midnightblue" points="97.61,-75.08 87.02,-75.56 95.59,-81.78 97.61,-75.08"/>
</g>
<!-- Node6 -->
<g id="node6" class="node">
<title>Node6</title>
<g id="a_node6"><a xlink:href="_model_factory_8h.html" target="_top" xlink:title=" ">
<polygon fill="white" stroke="black" points="194,-56.5 194,-75.5 283,-75.5 283,-56.5 194,-56.5"/>
<text text-anchor="middle" x="238.5" y="-63.5" font-family="Helvetica,sans-Serif" font-size="10.00">ModelFactory.h</text>
</a>
</g>
</g>
<!-- Node1&#45;&gt;Node6 -->
<g id="edge6" class="edge">
<title>Node1&#45;&gt;Node6</title>
<path fill="none" stroke="midnightblue" d="M238.5,-112.08C238.5,-105.01 238.5,-94.86 238.5,-85.99"/>
<polygon fill="midnightblue" stroke="midnightblue" points="242,-85.75 238.5,-75.75 235,-85.75 242,-85.75"/>
</g>
<!-- Node7 -->
<g id="node7" class="node">
<title>Node7</title>
<g id="a_node7"><a xlink:href="_arguments_dict_8h.html" target="_top" xlink:title=" ">
<polygon fill="white" stroke="black" points="387.5,-56.5 387.5,-75.5 485.5,-75.5 485.5,-56.5 387.5,-56.5"/>
<text text-anchor="middle" x="436.5" y="-63.5" font-family="Helvetica,sans-Serif" font-size="10.00">ArgumentsDict.h</text>
</a>
</g>
</g>
<!-- Node1&#45;&gt;Node7 -->
<g id="edge8" class="edge">
<title>Node1&#45;&gt;Node7</title>
<path fill="none" stroke="midnightblue" d="M266.87,-113.26C300.54,-104.08 356.95,-88.7 395.4,-78.21"/>
<polygon fill="midnightblue" stroke="midnightblue" points="396.52,-81.53 405.24,-75.52 394.68,-74.78 396.52,-81.53"/>
</g>
<!-- Node11 -->
<g id="node11" class="node">
<title>Node11</title>
<g id="a_node11"><a xlink:title=" ">
<polygon fill="white" stroke="#bfbfbf" points="574,-0.5 574,-19.5 725,-19.5 725,-0.5 574,-0.5"/>
<text text-anchor="middle" x="649.5" y="-7.5" font-family="Helvetica,sans-Serif" font-size="10.00">xtensor&#45;python/pyarray.hpp</text>
</a>
</g>
</g>
<!-- Node1&#45;&gt;Node11 -->
<g id="edge14" class="edge">
<title>Node1&#45;&gt;Node11</title>
<path fill="none" stroke="midnightblue" d="M266.62,-118.14C314.26,-112.82 413.53,-99.77 494.5,-76 541.24,-62.28 592.93,-38.81 623.24,-24.15"/>
<polygon fill="midnightblue" stroke="midnightblue" points="624.85,-27.25 632.3,-19.72 621.78,-20.97 624.85,-27.25"/>
</g>
<!-- Node5&#45;&gt;Node2 -->
<g id="edge5" class="edge">
<title>Node5&#45;&gt;Node2</title>
<path fill="none" stroke="midnightblue" d="M52.72,-56.08C47.83,-48.53 40.67,-37.49 34.67,-28.23"/>
<polygon fill="midnightblue" stroke="midnightblue" points="37.55,-26.24 29.17,-19.75 31.67,-30.05 37.55,-26.24"/>
</g>
<!-- Node6&#45;&gt;Node3 -->
<g id="edge7" class="edge">
<title>Node6&#45;&gt;Node3</title>
<path fill="none" stroke="midnightblue" d="M234.37,-56.08C230.99,-48.77 226.08,-38.18 221.88,-29.1"/>
<polygon fill="midnightblue" stroke="midnightblue" points="224.93,-27.36 217.55,-19.75 218.58,-30.3 224.93,-27.36"/>
</g>
<!-- Node8 -->
<g id="node8" class="node">
<title>Node8</title>
<g id="a_node8"><a xlink:title=" ">
<polygon fill="white" stroke="#bfbfbf" points="371.5,-0.5 371.5,-19.5 409.5,-19.5 409.5,-0.5 371.5,-0.5"/>
<text text-anchor="middle" x="390.5" y="-7.5" font-family="Helvetica,sans-Serif" font-size="10.00">map</text>
</a>
</g>
</g>
<!-- Node7&#45;&gt;Node8 -->
<g id="edge9" class="edge">
<title>Node7&#45;&gt;Node8</title>
<path fill="none" stroke="midnightblue" d="M428.9,-56.08C422.27,-48.3 412.48,-36.8 404.44,-27.37"/>
<polygon fill="midnightblue" stroke="midnightblue" points="407.1,-25.09 397.95,-19.75 401.77,-29.63 407.1,-25.09"/>
</g>
<!-- Node9 -->
<g id="node9" class="node">
<title>Node9</title>
<g id="a_node9"><a xlink:title=" ">
<polygon fill="white" stroke="#bfbfbf" points="428,-0.5 428,-19.5 493,-19.5 493,-0.5 428,-0.5"/>
<text text-anchor="middle" x="460.5" y="-7.5" font-family="Helvetica,sans-Serif" font-size="10.00">stdexcept</text>
</a>
</g>
</g>
<!-- Node7&#45;&gt;Node9 -->
<g id="edge10" class="edge">
<title>Node7&#45;&gt;Node9</title>
<path fill="none" stroke="midnightblue" d="M440.46,-56.08C443.71,-48.77 448.42,-38.18 452.45,-29.1"/>
<polygon fill="midnightblue" stroke="midnightblue" points="455.75,-30.31 456.61,-19.75 449.35,-27.47 455.75,-30.31"/>
</g>
<!-- Node10 -->
<g id="node10" class="node">
<title>Node10</title>
<g id="a_node10"><a xlink:title=" ">
<polygon fill="white" stroke="#bfbfbf" points="511.5,-0.5 511.5,-19.5 555.5,-19.5 555.5,-0.5 511.5,-0.5"/>
<text text-anchor="middle" x="533.5" y="-7.5" font-family="Helvetica,sans-Serif" font-size="10.00">string</text>
</a>
</g>
</g>
<!-- Node7&#45;&gt;Node10 -->
<g id="edge11" class="edge">
<title>Node7&#45;&gt;Node10</title>
<path fill="none" stroke="midnightblue" d="M452.08,-56.32C467.5,-47.74 491.31,-34.49 509.21,-24.52"/>
<polygon fill="midnightblue" stroke="midnightblue" points="510.92,-27.58 517.95,-19.65 507.51,-21.46 510.92,-27.58"/>
</g>
<!-- Node7&#45;&gt;Node11 -->
<g id="edge12" class="edge">
<title>Node7&#45;&gt;Node11</title>
<path fill="none" stroke="midnightblue" d="M470.25,-56.44C507.02,-47.12 565.95,-32.18 606.12,-22"/>
<polygon fill="midnightblue" stroke="midnightblue" points="607.07,-25.37 615.91,-19.52 605.35,-18.58 607.07,-25.37"/>
</g>
<!-- Node12 -->
<g id="node12" class="node">
<title>Node12</title>
<g id="a_node12"><a xlink:title=" ">
<polygon fill="white" stroke="#bfbfbf" points="261.5,-0.5 261.5,-19.5 353.5,-19.5 353.5,-0.5 261.5,-0.5"/>
<text text-anchor="middle" x="307.5" y="-7.5" font-family="Helvetica,sans-Serif" font-size="10.00">xtensor/xio.hpp</text>
</a>
</g>
</g>
<!-- Node7&#45;&gt;Node12 -->
<g id="edge13" class="edge">
<title>Node7&#45;&gt;Node12</title>
<path fill="none" stroke="midnightblue" d="M416.06,-56.44C394.83,-47.56 361.4,-33.56 337.25,-23.45"/>
<polygon fill="midnightblue" stroke="midnightblue" points="338.42,-20.15 327.84,-19.52 335.72,-26.61 338.42,-20.15"/>
</g>
</g>
</svg>
