<?xml version="1.0" encoding="UTF-8" standalone="no"?>
<!DOCTYPE svg PUBLIC "-//W3C//DTD SVG 1.1//EN"
 "http://www.w3.org/Graphics/SVG/1.1/DTD/svg11.dtd">
<!-- Generated by graphviz version 2.40.1 (20161225.0304)
 -->
<!-- Title: cElastoPlastic.cpp Pages: 1 -->
<svg width="1451pt" height="196pt"
 viewBox="0.00 0.00 1450.50 196.00" xmlns="http://www.w3.org/2000/svg" xmlns:xlink="http://www.w3.org/1999/xlink">
<g id="graph0" class="graph" transform="scale(1 1) rotate(0) translate(4 192)">
<title>cElastoPlastic.cpp</title>
<polygon fill="#ffffff" stroke="transparent" points="-4,4 -4,-192 1446.5,-192 1446.5,4 -4,4"/>
<!-- Node0 -->
<g id="node1" class="node">
<title>Node0</title>
<polygon fill="#bfbfbf" stroke="#000000" points="376,-168.5 376,-187.5 474,-187.5 474,-168.5 376,-168.5"/>
<text text-anchor="middle" x="425" y="-175.5" font-family="Helvetica,sans-Serif" font-size="10.00" fill="#000000">cElastoPlastic.cpp</text>
</g>
<!-- Node1 -->
<g id="node2" class="node">
<title>Node1</title>
<polygon fill="#ffffff" stroke="#bfbfbf" points="0,-56.5 0,-75.5 106,-75.5 106,-56.5 0,-56.5"/>
<text text-anchor="middle" x="53" y="-63.5" font-family="Helvetica,sans-Serif" font-size="10.00" fill="#000000">pybind11/pybind11.h</text>
</g>
<!-- Node0&#45;&gt;Node1 -->
<g id="edge1" class="edge">
<title>Node0&#45;&gt;Node1</title>
<path fill="none" stroke="#191970" d="M393.2835,-168.4509C326.0221,-148.2002 169.1134,-100.9589 94.2133,-78.4083"/>
<polygon fill="#191970" stroke="#191970" points="95.2207,-75.0565 84.6362,-75.5249 93.2026,-81.7593 95.2207,-75.0565"/>
</g>
<!-- Node2 -->
<g id="node3" class="node">
<title>Node2</title>
<polygon fill="#ffffff" stroke="#bfbfbf" points="374.5,-112.5 374.5,-131.5 475.5,-131.5 475.5,-112.5 374.5,-112.5"/>
<text text-anchor="middle" x="425" y="-119.5" font-family="Helvetica,sans-Serif" font-size="10.00" fill="#000000">pybind11/stl_bind.h</text>
</g>
<!-- Node0&#45;&gt;Node2 -->
<g id="edge2" class="edge">
<title>Node0&#45;&gt;Node2</title>
<path fill="none" stroke="#191970" d="M425,-168.2455C425,-160.9382 425,-150.6944 425,-141.7046"/>
<polygon fill="#191970" stroke="#191970" points="428.5001,-141.6426 425,-131.6427 421.5001,-141.6427 428.5001,-141.6426"/>
</g>
<!-- Node3 -->
<g id="node4" class="node">
<title>Node3</title>
<g id="a_node4"><a xlink:href="_elasto_plastic_8h.html" target="_top" xlink:title="ElastoPlastic.h">
<polygon fill="#ffffff" stroke="#000000" points="590.5,-112.5 590.5,-131.5 673.5,-131.5 673.5,-112.5 590.5,-112.5"/>
<text text-anchor="middle" x="632" y="-119.5" font-family="Helvetica,sans-Serif" font-size="10.00" fill="#000000">ElastoPlastic.h</text>
</a>
</g>
</g>
<!-- Node0&#45;&gt;Node3 -->
<g id="edge3" class="edge">
<title>Node0&#45;&gt;Node3</title>
<path fill="none" stroke="#191970" d="M460.5846,-168.3733C495.6016,-158.9001 549.1881,-144.4032 587.1125,-134.1435"/>
<polygon fill="#191970" stroke="#191970" points="588.1408,-137.4912 596.8798,-131.5011 586.3127,-130.7341 588.1408,-137.4912"/>
</g>
<!-- Node3&#45;&gt;Node1 -->
<g id="edge26" class="edge">
<title>Node3&#45;&gt;Node1</title>
<path fill="none" stroke="#191970" d="M590.4354,-119.0951C503.1331,-112.8111 294.354,-96.8257 120,-76 118.8906,-75.8675 117.7713,-75.731 116.6443,-75.5911"/>
<polygon fill="#191970" stroke="#191970" points="116.724,-72.072 106.3557,-74.2513 115.82,-79.0134 116.724,-72.072"/>
</g>
<!-- Node4 -->
<g id="node5" class="node">
<title>Node4</title>
<polygon fill="#ffffff" stroke="#bfbfbf" points="715,-.5 715,-19.5 759,-19.5 759,-.5 715,-.5"/>
<text text-anchor="middle" x="737" y="-7.5" font-family="Helvetica,sans-Serif" font-size="10.00" fill="#000000">cmath</text>
</g>
<!-- Node3&#45;&gt;Node4 -->
<g id="edge4" class="edge">
<title>Node3&#45;&gt;Node4</title>
<path fill="none" stroke="#191970" d="M673.5726,-121.2223C786.2585,-118.6868 1091.1148,-108.8284 1121,-76 1169.604,-22.6092 870.1362,-12.368 769.2958,-10.4388"/>
<polygon fill="#191970" stroke="#191970" points="769.1504,-6.9358 759.0904,-10.2593 769.0273,-13.9347 769.1504,-6.9358"/>
</g>
<!-- Node5 -->
<g id="node6" class="node">
<title>Node5</title>
<polygon fill="#ffffff" stroke="#bfbfbf" points="256,-.5 256,-19.5 310,-19.5 310,-.5 256,-.5"/>
<text text-anchor="middle" x="283" y="-7.5" font-family="Helvetica,sans-Serif" font-size="10.00" fill="#000000">iostream</text>
</g>
<!-- Node3&#45;&gt;Node5 -->
<g id="edge5" class="edge">
<title>Node3&#45;&gt;Node5</title>
<path fill="none" stroke="#191970" d="M590.234,-118.7345C474.9572,-109.6256 160.3384,-84.0769 153,-76 122.7123,-42.6643 197.3397,-23.7833 245.6647,-15.3685"/>
<polygon fill="#191970" stroke="#191970" points="246.5329,-18.7724 255.8256,-13.6837 245.3878,-11.8667 246.5329,-18.7724"/>
</g>
<!-- Node6 -->
<g id="node7" class="node">
<title>Node6</title>
<polygon fill="#ffffff" stroke="#bfbfbf" points="162,-56.5 162,-75.5 212,-75.5 212,-56.5 162,-56.5"/>
<text text-anchor="middle" x="187" y="-63.5" font-family="Helvetica,sans-Serif" font-size="10.00" fill="#000000">iomanip</text>
</g>
<!-- Node3&#45;&gt;Node6 -->
<g id="edge6" class="edge">
<title>Node3&#45;&gt;Node6</title>
<path fill="none" stroke="#191970" d="M590.2089,-119.739C517.2531,-115.27 361.8869,-103.4372 222.1604,-75.93"/>
<polygon fill="#191970" stroke="#191970" points="222.6209,-72.4528 212.1285,-73.9223 221.2471,-79.3167 222.6209,-72.4528"/>
</g>
<!-- Node7 -->
<g id="node8" class="node">
<title>Node7</title>
<polygon fill="#ffffff" stroke="#bfbfbf" points="230,-56.5 230,-75.5 274,-75.5 274,-56.5 230,-56.5"/>
<text text-anchor="middle" x="252" y="-63.5" font-family="Helvetica,sans-Serif" font-size="10.00" fill="#000000">vector</text>
</g>
<!-- Node3&#45;&gt;Node7 -->
<g id="edge7" class="edge">
<title>Node3&#45;&gt;Node7</title>
<path fill="none" stroke="#191970" d="M590.4737,-118.9727C526.5062,-113.779 399.9813,-101.4035 284.3026,-75.9573"/>
<polygon fill="#191970" stroke="#191970" points="284.7406,-72.4687 274.2174,-73.6989 283.2109,-79.2996 284.7406,-72.4687"/>
</g>
<!-- Node8 -->
<g id="node9" class="node">
<title>Node8</title>
<g id="a_node9"><a xlink:href="proteus__blas_8h.html" target="_top" xlink:title="proteus_blas.h">
<polygon fill="#ffffff" stroke="#000000" points="292,-56.5 292,-75.5 372,-75.5 372,-56.5 292,-56.5"/>
<text text-anchor="middle" x="332" y="-63.5" font-family="Helvetica,sans-Serif" font-size="10.00" fill="#000000">proteus_blas.h</text>
</a>
</g>
</g>
<!-- Node3&#45;&gt;Node8 -->
<g id="edge8" class="edge">
<title>Node3&#45;&gt;Node8</title>
<path fill="none" stroke="#191970" d="M590.2047,-114.6048C542.3927,-106.0865 461.4863,-91.4939 382.2528,-76.2152"/>
<polygon fill="#191970" stroke="#191970" points="382.581,-72.7139 372.0983,-74.2515 381.2518,-79.5866 382.581,-72.7139"/>
</g>
<!-- Node9 -->
<g id="node10" class="node">
<title>Node9</title>
<g id="a_node10"><a xlink:href="_comp_kernel_8h.html" target="_top" xlink:title="CompKernel.h">
<polygon fill="#ffffff" stroke="#000000" points="491.5,-56.5 491.5,-75.5 570.5,-75.5 570.5,-56.5 491.5,-56.5"/>
<text text-anchor="middle" x="531" y="-63.5" font-family="Helvetica,sans-Serif" font-size="10.00" fill="#000000">CompKernel.h</text>
</a>
</g>
</g>
<!-- Node3&#45;&gt;Node9 -->
<g id="edge9" class="edge">
<title>Node3&#45;&gt;Node9</title>
<path fill="none" stroke="#191970" d="M614.4071,-112.2455C598.621,-103.4928 575.2361,-90.527 557.2413,-80.5496"/>
<polygon fill="#191970" stroke="#191970" points="558.8341,-77.4308 548.3913,-75.6427 555.4397,-83.5528 558.8341,-77.4308"/>
</g>
<!-- Node10 -->
<g id="node11" class="node">
<title>Node10</title>
<g id="a_node11"><a xlink:href="_model_factory_8h.html" target="_top" xlink:title="ModelFactory.h">
<polygon fill="#ffffff" stroke="#000000" points="390,-56.5 390,-75.5 474,-75.5 474,-56.5 390,-56.5"/>
<text text-anchor="middle" x="432" y="-63.5" font-family="Helvetica,sans-Serif" font-size="10.00" fill="#000000">ModelFactory.h</text>
</a>
</g>
</g>
<!-- Node3&#45;&gt;Node10 -->
<g id="edge11" class="edge">
<title>Node3&#45;&gt;Node10</title>
<path fill="none" stroke="#191970" d="M597.6188,-112.3733C563.9299,-102.9404 512.4518,-88.5265 475.8382,-78.2747"/>
<polygon fill="#191970" stroke="#191970" points="476.506,-74.8271 465.9326,-75.5011 474.6185,-81.5679 476.506,-74.8271"/>
</g>
<!-- Node11 -->
<g id="node12" class="node">
<title>Node11</title>
<g id="a_node12"><a xlink:href="mohr_coulomb_8h.html" target="_top" xlink:title="mohrCoulomb.h">
<polygon fill="#ffffff" stroke="#000000" points="589,-56.5 589,-75.5 675,-75.5 675,-56.5 589,-56.5"/>
<text text-anchor="middle" x="632" y="-63.5" font-family="Helvetica,sans-Serif" font-size="10.00" fill="#000000">mohrCoulomb.h</text>
</a>
</g>
</g>
<!-- Node3&#45;&gt;Node11 -->
<g id="edge13" class="edge">
<title>Node3&#45;&gt;Node11</title>
<path fill="none" stroke="#191970" d="M632,-112.2455C632,-104.9382 632,-94.6944 632,-85.7046"/>
<polygon fill="#191970" stroke="#191970" points="635.5001,-85.6426 632,-75.6427 628.5001,-85.6427 635.5001,-85.6426"/>
</g>
<!-- Node12 -->
<g id="node13" class="node">
<title>Node12</title>
<g id="a_node13"><a xlink:href="mohr_coulomb2_8h.html" target="_top" xlink:title="mohrCoulomb2.h">
<polygon fill="#ffffff" stroke="#000000" points="693.5,-56.5 693.5,-75.5 784.5,-75.5 784.5,-56.5 693.5,-56.5"/>
<text text-anchor="middle" x="739" y="-63.5" font-family="Helvetica,sans-Serif" font-size="10.00" fill="#000000">mohrCoulomb2.h</text>
</a>
</g>
</g>
<!-- Node3&#45;&gt;Node12 -->
<g id="edge14" class="edge">
<title>Node3&#45;&gt;Node12</title>
<path fill="none" stroke="#191970" d="M650.638,-112.2455C667.4386,-103.4527 692.3634,-90.4079 711.4618,-80.4125"/>
<polygon fill="#191970" stroke="#191970" points="713.3386,-83.3807 720.5756,-75.6427 710.0927,-77.1787 713.3386,-83.3807"/>
</g>
<!-- Node13 -->
<g id="node14" class="node">
<title>Node13</title>
<g id="a_node14"><a xlink:href="von_mises_8h.html" target="_top" xlink:title="vonMises.h">
<polygon fill="#ffffff" stroke="#000000" points="802.5,-56.5 802.5,-75.5 869.5,-75.5 869.5,-56.5 802.5,-56.5"/>
<text text-anchor="middle" x="836" y="-63.5" font-family="Helvetica,sans-Serif" font-size="10.00" fill="#000000">vonMises.h</text>
</a>
</g>
</g>
<!-- Node3&#45;&gt;Node13 -->
<g id="edge15" class="edge">
<title>Node3&#45;&gt;Node13</title>
<path fill="none" stroke="#191970" d="M667.0689,-112.3733C701.7439,-102.8546 754.8954,-88.264 792.2998,-77.9961"/>
<polygon fill="#191970" stroke="#191970" points="793.687,-81.2449 802.4037,-75.2225 791.8339,-74.4946 793.687,-81.2449"/>
</g>
<!-- Node14 -->
<g id="node15" class="node">
<title>Node14</title>
<g id="a_node15"><a xlink:href="tresca_8h.html" target="_top" xlink:title="tresca.h">
<polygon fill="#ffffff" stroke="#000000" points="888,-56.5 888,-75.5 940,-75.5 940,-56.5 888,-56.5"/>
<text text-anchor="middle" x="914" y="-63.5" font-family="Helvetica,sans-Serif" font-size="10.00" fill="#000000">tresca.h</text>
</a>
</g>
</g>
<!-- Node3&#45;&gt;Node14 -->
<g id="edge16" class="edge">
<title>Node3&#45;&gt;Node14</title>
<path fill="none" stroke="#191970" d="M673.576,-115.3489C722.6727,-107.2359 806.6822,-92.5408 878,-76 878.0987,-75.9771 878.1976,-75.9541 878.2966,-75.931"/>
<polygon fill="#191970" stroke="#191970" points="878.8648,-79.3966 887.7209,-73.5811 877.1712,-72.6046 878.8648,-79.3966"/>
</g>
<!-- Node15 -->
<g id="node16" class="node">
<title>Node15</title>
<g id="a_node16"><a xlink:href="drucker_prager_8h.html" target="_top" xlink:title="druckerPrager.h">
<polygon fill="#ffffff" stroke="#000000" points="958,-56.5 958,-75.5 1044,-75.5 1044,-56.5 958,-56.5"/>
<text text-anchor="middle" x="1001" y="-63.5" font-family="Helvetica,sans-Serif" font-size="10.00" fill="#000000">druckerPrager.h</text>
</a>
</g>
</g>
<!-- Node3&#45;&gt;Node15 -->
<g id="edge17" class="edge">
<title>Node3&#45;&gt;Node15</title>
<path fill="none" stroke="#191970" d="M673.6349,-116.5782C732.4243,-108.7865 843.3563,-93.5859 947.811,-76.1418"/>
<polygon fill="#191970" stroke="#191970" points="948.6156,-79.5557 957.8973,-74.4468 947.4555,-72.6525 948.6156,-79.5557"/>
</g>
<!-- Node16 -->
<g id="node17" class="node">
<title>Node16</title>
<g id="a_node17"><a xlink:href="mcdp_8h.html" target="_top" xlink:title="mcdp.h">
<polygon fill="#ffffff" stroke="#000000" points="1062.5,-56.5 1062.5,-75.5 1111.5,-75.5 1111.5,-56.5 1062.5,-56.5"/>
<text text-anchor="middle" x="1087" y="-63.5" font-family="Helvetica,sans-Serif" font-size="10.00" fill="#000000">mcdp.h</text>
</a>
</g>
</g>
<!-- Node3&#45;&gt;Node16 -->
<g id="edge18" class="edge">
<title>Node3&#45;&gt;Node16</title>
<path fill="none" stroke="#191970" d="M673.6046,-119.9029C747.8848,-115.6302 908.2411,-104.0132 1052.3386,-75.8033"/>
<polygon fill="#191970" stroke="#191970" points="1053.1196,-79.2165 1062.2443,-73.8323 1051.7536,-72.3511 1053.1196,-79.2165"/>
</g>
<!-- Node17 -->
<g id="node18" class="node">
<title>Node17</title>
<g id="a_node18"><a xlink:href="_arguments_dict_8h.html" target="_top" xlink:title="../mprans/ArgumentsDict.h">
<polygon fill="#ffffff" stroke="#000000" points="1168,-56.5 1168,-75.5 1302,-75.5 1302,-56.5 1168,-56.5"/>
<text text-anchor="middle" x="1235" y="-63.5" font-family="Helvetica,sans-Serif" font-size="10.00" fill="#000000">../mprans/ArgumentsDict.h</text>
</a>
</g>
</g>
<!-- Node3&#45;&gt;Node17 -->
<g id="edge19" class="edge">
<title>Node3&#45;&gt;Node17</title>
<path fill="none" stroke="#191970" d="M673.6617,-118.8259C762.1896,-111.9718 975.5446,-94.8729 1154,-76 1155.2682,-75.8659 1156.5473,-75.7288 1157.835,-75.5892"/>
<polygon fill="#191970" stroke="#191970" points="1158.2861,-79.0607 1167.8371,-74.475 1157.5111,-72.1038 1158.2861,-79.0607"/>
</g>
<!-- Node21 -->
<g id="node22" class="node">
<title>Node21</title>
<polygon fill="#ffffff" stroke="#bfbfbf" points="1307.5,-.5 1307.5,-19.5 1442.5,-19.5 1442.5,-.5 1307.5,-.5"/>
<text text-anchor="middle" x="1375" y="-7.5" font-family="Helvetica,sans-Serif" font-size="10.00" fill="#000000">xtensor&#45;python/pyarray.hpp</text>
</g>
<!-- Node3&#45;&gt;Node21 -->
<g id="edge25" class="edge">
<title>Node3&#45;&gt;Node21</title>
<path fill="none" stroke="#191970" d="M673.7521,-120.9076C812.5983,-117.0365 1253.3196,-102.7481 1311,-76 1333.2717,-65.672 1351.8842,-43.9289 1363.1946,-28.2162"/>
<polygon fill="#191970" stroke="#191970" points="1366.2035,-30.0174 1368.9826,-19.7936 1360.4344,-26.0529 1366.2035,-30.0174"/>
</g>
<!-- Node9&#45;&gt;Node4 -->
<g id="edge10" class="edge">
<title>Node9&#45;&gt;Node4</title>
<path fill="none" stroke="#191970" d="M566.4127,-56.3733C605.3182,-45.797 667.2578,-28.959 704.8254,-18.7465"/>
<polygon fill="#191970" stroke="#191970" points="706.004,-22.0532 714.7357,-16.0524 704.1677,-15.2983 706.004,-22.0532"/>
</g>
<!-- Node10&#45;&gt;Node5 -->
<g id="edge12" class="edge">
<title>Node10&#45;&gt;Node5</title>
<path fill="none" stroke="#191970" d="M406.386,-56.3733C381.9313,-47.1822 344.8946,-33.2624 317.7791,-23.0713"/>
<polygon fill="#191970" stroke="#191970" points="318.8719,-19.7431 308.2798,-19.5011 316.4091,-26.2956 318.8719,-19.7431"/>
</g>
<!-- Node18 -->
<g id="node19" class="node">
<title>Node18</title>
<polygon fill="#ffffff" stroke="#bfbfbf" points="1118.5,-.5 1118.5,-19.5 1153.5,-19.5 1153.5,-.5 1118.5,-.5"/>
<text text-anchor="middle" x="1136" y="-7.5" font-family="Helvetica,sans-Serif" font-size="10.00" fill="#000000">map</text>
</g>
<!-- Node17&#45;&gt;Node18 -->
<g id="edge20" class="edge">
<title>Node17&#45;&gt;Node18</title>
<path fill="none" stroke="#191970" d="M1217.7555,-56.2455C1202.4239,-47.5731 1179.7801,-34.7645 1162.2084,-24.825"/>
<polygon fill="#191970" stroke="#191970" points="1163.4741,-21.5198 1153.0469,-19.6427 1160.0276,-27.6126 1163.4741,-21.5198"/>
</g>
<!-- Node19 -->
<g id="node20" class="node">
<title>Node19</title>
<polygon fill="#ffffff" stroke="#bfbfbf" points="1171.5,-.5 1171.5,-19.5 1230.5,-19.5 1230.5,-.5 1171.5,-.5"/>
<text text-anchor="middle" x="1201" y="-7.5" font-family="Helvetica,sans-Serif" font-size="10.00" fill="#000000">stdexcept</text>
</g>
<!-- Node17&#45;&gt;Node19 -->
<g id="edge21" class="edge">
<title>Node17&#45;&gt;Node19</title>
<path fill="none" stroke="#191970" d="M1229.0777,-56.2455C1224.3973,-48.5367 1217.7327,-37.5598 1212.0711,-28.2348"/>
<polygon fill="#191970" stroke="#191970" points="1215.0361,-26.3741 1206.8545,-19.6427 1209.0525,-30.007 1215.0361,-26.3741"/>
</g>
<!-- Node20 -->
<g id="node21" class="node">
<title>Node20</title>
<polygon fill="#ffffff" stroke="#bfbfbf" points="1248.5,-.5 1248.5,-19.5 1289.5,-19.5 1289.5,-.5 1248.5,-.5"/>
<text text-anchor="middle" x="1269" y="-7.5" font-family="Helvetica,sans-Serif" font-size="10.00" fill="#000000">string</text>
</g>
<!-- Node17&#45;&gt;Node20 -->
<g id="edge22" class="edge">
<title>Node17&#45;&gt;Node20</title>
<path fill="none" stroke="#191970" d="M1240.9223,-56.2455C1245.6027,-48.5367 1252.2673,-37.5598 1257.9289,-28.2348"/>
<polygon fill="#191970" stroke="#191970" points="1260.9475,-30.007 1263.1455,-19.6427 1254.9639,-26.3741 1260.9475,-30.007"/>
</g>
<!-- Node17&#45;&gt;Node21 -->
<g id="edge23" class="edge">
<title>Node17&#45;&gt;Node21</title>
<path fill="none" stroke="#191970" d="M1259.0669,-56.3733C1281.8428,-47.2629 1316.2344,-33.5062 1341.649,-23.3404"/>
<polygon fill="#191970" stroke="#191970" points="1343.2623,-26.4648 1351.2472,-19.5011 1340.6625,-19.9654 1343.2623,-26.4648"/>
</g>
<!-- Node22 -->
<g id="node23" class="node">
<title>Node22</title>
<polygon fill="#ffffff" stroke="#bfbfbf" points="1017.5,-.5 1017.5,-19.5 1100.5,-19.5 1100.5,-.5 1017.5,-.5"/>
<text text-anchor="middle" x="1059" y="-7.5" font-family="Helvetica,sans-Serif" font-size="10.00" fill="#000000">xtensor/xio.hpp</text>
</g>
<!-- Node17&#45;&gt;Node22 -->
<g id="edge24" class="edge">
<title>Node17&#45;&gt;Node22</title>
<path fill="none" stroke="#191970" d="M1204.7445,-56.3733C1175.3517,-47.021 1130.5708,-32.7725 1098.4066,-22.5385"/>
<polygon fill="#191970" stroke="#191970" points="1099.4512,-19.198 1088.8607,-19.5011 1097.3287,-25.8685 1099.4512,-19.198"/>
</g>
</g>
</svg>
