<?xml version="1.0" encoding="UTF-8" standalone="no"?>
<!DOCTYPE svg PUBLIC "-//W3C//DTD SVG 1.1//EN"
 "http://www.w3.org/Graphics/SVG/1.1/DTD/svg11.dtd">
<!-- Generated by graphviz version 2.43.0 (0)
 -->
<!-- Title: cElastoPlastic.cpp Pages: 1 -->
<svg width="1557pt" height="196pt"
 viewBox="0.00 0.00 1557.00 196.00" xmlns="http://www.w3.org/2000/svg" xmlns:xlink="http://www.w3.org/1999/xlink">
<g id="graph0" class="graph" transform="scale(1 1) rotate(0) translate(4 192)">
<title>cElastoPlastic.cpp</title>
<polygon fill="white" stroke="transparent" points="-4,4 -4,-192 1553,-192 1553,4 -4,4"/>
<!-- Node1 -->
<g id="node1" class="node">
<title>Node1</title>
<g id="a_node1"><a xlink:title=" ">
<polygon fill="#bfbfbf" stroke="black" points="404.5,-168.5 404.5,-187.5 508.5,-187.5 508.5,-168.5 404.5,-168.5"/>
<text text-anchor="middle" x="456.5" y="-175.5" font-family="Helvetica,sans-Serif" font-size="10.00">cElastoPlastic.cpp</text>
</a>
</g>
</g>
<!-- Node2 -->
<g id="node2" class="node">
<title>Node2</title>
<g id="a_node2"><a xlink:title=" ">
<polygon fill="white" stroke="#bfbfbf" points="0,-56.5 0,-75.5 119,-75.5 119,-56.5 0,-56.5"/>
<text text-anchor="middle" x="59.5" y="-63.5" font-family="Helvetica,sans-Serif" font-size="10.00">pybind11/pybind11.h</text>
</a>
</g>
</g>
<!-- Node1&#45;&gt;Node2 -->
<g id="edge1" class="edge">
<title>Node1&#45;&gt;Node2</title>
<path fill="none" stroke="midnightblue" d="M425.68,-168.46C354.66,-148.78 179.51,-100.25 99.97,-78.21"/>
<polygon fill="midnightblue" stroke="midnightblue" points="100.87,-74.83 90.3,-75.53 99,-81.58 100.87,-74.83"/>
</g>
<!-- Node3 -->
<g id="node3" class="node">
<title>Node3</title>
<g id="a_node3"><a xlink:title=" ">
<polygon fill="white" stroke="#bfbfbf" points="400.5,-112.5 400.5,-131.5 512.5,-131.5 512.5,-112.5 400.5,-112.5"/>
<text text-anchor="middle" x="456.5" y="-119.5" font-family="Helvetica,sans-Serif" font-size="10.00">pybind11/stl_bind.h</text>
</a>
</g>
</g>
<!-- Node1&#45;&gt;Node3 -->
<g id="edge2" class="edge">
<title>Node1&#45;&gt;Node3</title>
<path fill="none" stroke="midnightblue" d="M456.5,-168.08C456.5,-161.01 456.5,-150.86 456.5,-141.99"/>
<polygon fill="midnightblue" stroke="midnightblue" points="460,-141.75 456.5,-131.75 453,-141.75 460,-141.75"/>
</g>
<!-- Node4 -->
<g id="node4" class="node">
<title>Node4</title>
<g id="a_node4"><a xlink:href="_elasto_plastic_8h.html" target="_top" xlink:title=" ">
<polygon fill="white" stroke="black" points="634.5,-112.5 634.5,-131.5 722.5,-131.5 722.5,-112.5 634.5,-112.5"/>
<text text-anchor="middle" x="678.5" y="-119.5" font-family="Helvetica,sans-Serif" font-size="10.00">ElastoPlastic.h</text>
</a>
</g>
</g>
<!-- Node1&#45;&gt;Node4 -->
<g id="edge3" class="edge">
<title>Node1&#45;&gt;Node4</title>
<path fill="none" stroke="midnightblue" d="M491.68,-168.44C530.08,-159.1 591.68,-144.12 633.56,-133.93"/>
<polygon fill="midnightblue" stroke="midnightblue" points="634.6,-137.28 643.49,-131.52 632.94,-130.48 634.6,-137.28"/>
</g>
<!-- Node4&#45;&gt;Node2 -->
<g id="edge26" class="edge">
<title>Node4&#45;&gt;Node2</title>
<path fill="none" stroke="midnightblue" d="M634.29,-117.93C541.44,-111.36 319.33,-94.97 133.5,-76 132.2,-75.87 130.88,-75.73 129.55,-75.59"/>
<polygon fill="midnightblue" stroke="midnightblue" points="129.57,-72.07 119.25,-74.47 128.81,-79.03 129.57,-72.07"/>
</g>
<!-- Node5 -->
<g id="node5" class="node">
<title>Node5</title>
<g id="a_node5"><a xlink:title=" ">
<polygon fill="white" stroke="#bfbfbf" points="765,-0.5 765,-19.5 812,-19.5 812,-0.5 765,-0.5"/>
<text text-anchor="middle" x="788.5" y="-7.5" font-family="Helvetica,sans-Serif" font-size="10.00">cmath</text>
</a>
</g>
</g>
<!-- Node4&#45;&gt;Node5 -->
<g id="edge4" class="edge">
<title>Node4&#45;&gt;Node5</title>
<path fill="none" stroke="midnightblue" d="M722.87,-120.53C843.13,-118.8 1168.48,-110.89 1200.5,-76 1252.86,-18.93 930.08,-11.85 822.5,-11.07"/>
<polygon fill="midnightblue" stroke="midnightblue" points="822.23,-7.56 812.21,-11.01 822.19,-14.56 822.23,-7.56"/>
</g>
<!-- Node6 -->
<g id="node6" class="node">
<title>Node6</title>
<g id="a_node6"><a xlink:title=" ">
<polygon fill="white" stroke="#bfbfbf" points="276.5,-0.5 276.5,-19.5 336.5,-19.5 336.5,-0.5 276.5,-0.5"/>
<text text-anchor="middle" x="306.5" y="-7.5" font-family="Helvetica,sans-Serif" font-size="10.00">iostream</text>
</a>
</g>
</g>
<!-- Node4&#45;&gt;Node6 -->
<g id="edge5" class="edge">
<title>Node4&#45;&gt;Node6</title>
<path fill="none" stroke="midnightblue" d="M634.3,-117.91C511.45,-109.21 174.38,-84.61 166.5,-76 134.34,-40.89 214.24,-23.21 266.16,-15.67"/>
<polygon fill="midnightblue" stroke="midnightblue" points="266.7,-19.13 276.12,-14.3 265.74,-12.2 266.7,-19.13"/>
</g>
<!-- Node7 -->
<g id="node7" class="node">
<title>Node7</title>
<g id="a_node7"><a xlink:title=" ">
<polygon fill="white" stroke="#bfbfbf" points="175.5,-56.5 175.5,-75.5 231.5,-75.5 231.5,-56.5 175.5,-56.5"/>
<text text-anchor="middle" x="203.5" y="-63.5" font-family="Helvetica,sans-Serif" font-size="10.00">iomanip</text>
</a>
</g>
</g>
<!-- Node4&#45;&gt;Node7 -->
<g id="edge6" class="edge">
<title>Node4&#45;&gt;Node7</title>
<path fill="none" stroke="midnightblue" d="M634.4,-118.46C556.9,-113.57 391.11,-101.18 241.95,-76.03"/>
<polygon fill="midnightblue" stroke="midnightblue" points="242.15,-72.51 231.7,-74.28 240.97,-79.41 242.15,-72.51"/>
</g>
<!-- Node8 -->
<g id="node8" class="node">
<title>Node8</title>
<g id="a_node8"><a xlink:title=" ">
<polygon fill="white" stroke="#bfbfbf" points="250,-56.5 250,-75.5 297,-75.5 297,-56.5 250,-56.5"/>
<text text-anchor="middle" x="273.5" y="-63.5" font-family="Helvetica,sans-Serif" font-size="10.00">vector</text>
</a>
</g>
</g>
<!-- Node4&#45;&gt;Node8 -->
<g id="edge7" class="edge">
<title>Node4&#45;&gt;Node8</title>
<path fill="none" stroke="midnightblue" d="M634.37,-117.76C566.22,-112.29 431.17,-99.65 307.24,-75.86"/>
<polygon fill="midnightblue" stroke="midnightblue" points="307.68,-72.38 297.2,-73.91 306.34,-79.26 307.68,-72.38"/>
</g>
<!-- Node9 -->
<g id="node9" class="node">
<title>Node9</title>
<g id="a_node9"><a xlink:href="proteus__blas_8h.html" target="_top" xlink:title=" ">
<polygon fill="white" stroke="black" points="315.5,-56.5 315.5,-75.5 403.5,-75.5 403.5,-56.5 315.5,-56.5"/>
<text text-anchor="middle" x="359.5" y="-63.5" font-family="Helvetica,sans-Serif" font-size="10.00">proteus_blas.h</text>
</a>
</g>
</g>
<!-- Node4&#45;&gt;Node9 -->
<g id="edge8" class="edge">
<title>Node4&#45;&gt;Node9</title>
<path fill="none" stroke="midnightblue" d="M634.08,-113.58C583.16,-105.05 496.88,-90.56 413.86,-76.4"/>
<polygon fill="midnightblue" stroke="midnightblue" points="414.2,-72.91 403.75,-74.67 413.02,-79.81 414.2,-72.91"/>
</g>
<!-- Node10 -->
<g id="node10" class="node">
<title>Node10</title>
<g id="a_node10"><a xlink:href="_comp_kernel_8h.html" target="_top" xlink:title=" ">
<polygon fill="white" stroke="black" points="528,-56.5 528,-75.5 613,-75.5 613,-56.5 528,-56.5"/>
<text text-anchor="middle" x="570.5" y="-63.5" font-family="Helvetica,sans-Serif" font-size="10.00">CompKernel.h</text>
</a>
</g>
</g>
<!-- Node4&#45;&gt;Node10 -->
<g id="edge9" class="edge">
<title>Node4&#45;&gt;Node10</title>
<path fill="none" stroke="midnightblue" d="M661.15,-112.32C643.83,-103.66 616.98,-90.24 597,-80.25"/>
<polygon fill="midnightblue" stroke="midnightblue" points="598.32,-77 587.81,-75.65 595.19,-83.26 598.32,-77"/>
</g>
<!-- Node11 -->
<g id="node11" class="node">
<title>Node11</title>
<g id="a_node11"><a xlink:href="_model_factory_8h.html" target="_top" xlink:title=" ">
<polygon fill="white" stroke="black" points="421,-56.5 421,-75.5 510,-75.5 510,-56.5 421,-56.5"/>
<text text-anchor="middle" x="465.5" y="-63.5" font-family="Helvetica,sans-Serif" font-size="10.00">ModelFactory.h</text>
</a>
</g>
</g>
<!-- Node4&#45;&gt;Node11 -->
<g id="edge11" class="edge">
<title>Node4&#45;&gt;Node11</title>
<path fill="none" stroke="midnightblue" d="M644.75,-112.44C607.98,-103.12 549.05,-88.18 508.88,-78"/>
<polygon fill="midnightblue" stroke="midnightblue" points="509.65,-74.58 499.09,-75.52 507.93,-81.37 509.65,-74.58"/>
</g>
<!-- Node12 -->
<g id="node12" class="node">
<title>Node12</title>
<g id="a_node12"><a xlink:href="mohr_coulomb_8h.html" target="_top" xlink:title=" ">
<polygon fill="white" stroke="black" points="631,-56.5 631,-75.5 726,-75.5 726,-56.5 631,-56.5"/>
<text text-anchor="middle" x="678.5" y="-63.5" font-family="Helvetica,sans-Serif" font-size="10.00">mohrCoulomb.h</text>
</a>
</g>
</g>
<!-- Node4&#45;&gt;Node12 -->
<g id="edge13" class="edge">
<title>Node4&#45;&gt;Node12</title>
<path fill="none" stroke="midnightblue" d="M678.5,-112.08C678.5,-105.01 678.5,-94.86 678.5,-85.99"/>
<polygon fill="midnightblue" stroke="midnightblue" points="682,-85.75 678.5,-75.75 675,-85.75 682,-85.75"/>
</g>
<!-- Node13 -->
<g id="node13" class="node">
<title>Node13</title>
<g id="a_node13"><a xlink:href="mohr_coulomb2_8h.html" target="_top" xlink:title=" ">
<polygon fill="white" stroke="black" points="744,-56.5 744,-75.5 845,-75.5 845,-56.5 744,-56.5"/>
<text text-anchor="middle" x="794.5" y="-63.5" font-family="Helvetica,sans-Serif" font-size="10.00">mohrCoulomb2.h</text>
</a>
</g>
</g>
<!-- Node4&#45;&gt;Node13 -->
<g id="edge14" class="edge">
<title>Node4&#45;&gt;Node13</title>
<path fill="none" stroke="midnightblue" d="M696.88,-112.44C715.72,-103.68 745.23,-89.94 766.88,-79.86"/>
<polygon fill="midnightblue" stroke="midnightblue" points="768.62,-82.91 776.21,-75.52 765.66,-76.56 768.62,-82.91"/>
</g>
<!-- Node14 -->
<g id="node14" class="node">
<title>Node14</title>
<g id="a_node14"><a xlink:href="von_mises_8h.html" target="_top" xlink:title=" ">
<polygon fill="white" stroke="black" points="863.5,-56.5 863.5,-75.5 935.5,-75.5 935.5,-56.5 863.5,-56.5"/>
<text text-anchor="middle" x="899.5" y="-63.5" font-family="Helvetica,sans-Serif" font-size="10.00">vonMises.h</text>
</a>
</g>
</g>
<!-- Node4&#45;&gt;Node14 -->
<g id="edge15" class="edge">
<title>Node4&#45;&gt;Node14</title>
<path fill="none" stroke="midnightblue" d="M713.52,-112.44C751.75,-103.1 813.07,-88.12 854.76,-77.93"/>
<polygon fill="midnightblue" stroke="midnightblue" points="855.76,-81.29 864.65,-75.52 854.1,-74.49 855.76,-81.29"/>
</g>
<!-- Node15 -->
<g id="node15" class="node">
<title>Node15</title>
<g id="a_node15"><a xlink:href="tresca_8h.html" target="_top" xlink:title=" ">
<polygon fill="white" stroke="black" points="953.5,-56.5 953.5,-75.5 1009.5,-75.5 1009.5,-56.5 953.5,-56.5"/>
<text text-anchor="middle" x="981.5" y="-63.5" font-family="Helvetica,sans-Serif" font-size="10.00">tresca.h</text>
</a>
</g>
</g>
<!-- Node4&#45;&gt;Node15 -->
<g id="edge16" class="edge">
<title>Node4&#45;&gt;Node15</title>
<path fill="none" stroke="midnightblue" d="M722.92,-114.47C773.86,-106.77 860.09,-93.06 943.39,-76.11"/>
<polygon fill="midnightblue" stroke="midnightblue" points="944.17,-79.53 953.26,-74.09 942.77,-72.67 944.17,-79.53"/>
</g>
<!-- Node16 -->
<g id="node16" class="node">
<title>Node16</title>
<g id="a_node16"><a xlink:href="drucker_prager_8h.html" target="_top" xlink:title=" ">
<polygon fill="white" stroke="black" points="1027.5,-56.5 1027.5,-75.5 1119.5,-75.5 1119.5,-56.5 1027.5,-56.5"/>
<text text-anchor="middle" x="1073.5" y="-63.5" font-family="Helvetica,sans-Serif" font-size="10.00">druckerPrager.h</text>
</a>
</g>
</g>
<!-- Node4&#45;&gt;Node16 -->
<g id="edge17" class="edge">
<title>Node4&#45;&gt;Node16</title>
<path fill="none" stroke="midnightblue" d="M722.57,-115.6C785.56,-107.8 905.2,-92.61 1017.19,-76.16"/>
<polygon fill="midnightblue" stroke="midnightblue" points="1017.92,-79.59 1027.3,-74.66 1016.9,-72.66 1017.92,-79.59"/>
</g>
<!-- Node17 -->
<g id="node17" class="node">
<title>Node17</title>
<g id="a_node17"><a xlink:href="mcdp_8h.html" target="_top" xlink:title=" ">
<polygon fill="white" stroke="black" points="1138,-56.5 1138,-75.5 1191,-75.5 1191,-56.5 1138,-56.5"/>
<text text-anchor="middle" x="1164.5" y="-63.5" font-family="Helvetica,sans-Serif" font-size="10.00">mcdp.h</text>
</a>
</g>
</g>
<!-- Node4&#45;&gt;Node17 -->
<g id="edge18" class="edge">
<title>Node4&#45;&gt;Node17</title>
<path fill="none" stroke="midnightblue" d="M722.54,-118.73C801.71,-114.18 973.37,-102.21 1127.72,-75.87"/>
<polygon fill="midnightblue" stroke="midnightblue" points="1128.6,-79.27 1137.86,-74.12 1127.41,-72.38 1128.6,-79.27"/>
</g>
<!-- Node18 -->
<g id="node18" class="node">
<title>Node18</title>
<g id="a_node18"><a xlink:href="_arguments_dict_8h.html" target="_top" xlink:title=" ">
<polygon fill="white" stroke="black" points="1248,-56.5 1248,-75.5 1395,-75.5 1395,-56.5 1248,-56.5"/>
<text text-anchor="middle" x="1321.5" y="-63.5" font-family="Helvetica,sans-Serif" font-size="10.00">../mprans/ArgumentsDict.h</text>
</a>
</g>
</g>
<!-- Node4&#45;&gt;Node18 -->
<g id="edge19" class="edge">
<title>Node4&#45;&gt;Node18</title>
<path fill="none" stroke="midnightblue" d="M722.77,-117.73C816.85,-110.7 1043.61,-93.41 1233.5,-76 1234.79,-75.88 1236.09,-75.76 1237.4,-75.64"/>
<polygon fill="midnightblue" stroke="midnightblue" points="1237.94,-79.1 1247.57,-74.67 1237.28,-72.13 1237.94,-79.1"/>
</g>
<!-- Node22 -->
<g id="node22" class="node">
<title>Node22</title>
<g id="a_node22"><a xlink:title=" ">
<polygon fill="white" stroke="#bfbfbf" points="1398,-0.5 1398,-19.5 1549,-19.5 1549,-0.5 1398,-0.5"/>
<text text-anchor="middle" x="1473.5" y="-7.5" font-family="Helvetica,sans-Serif" font-size="10.00">xtensor&#45;python/pyarray.hpp</text>
</a>
</g>
</g>
<!-- Node4&#45;&gt;Node22 -->
<g id="edge25" class="edge">
<title>Node4&#45;&gt;Node22</title>
<path fill="none" stroke="midnightblue" d="M722.57,-120.01C870.29,-116.44 1342.07,-103.04 1404.5,-76 1428.23,-65.72 1448.83,-43.57 1461.2,-27.99"/>
<polygon fill="midnightblue" stroke="midnightblue" points="1464.22,-29.8 1467.49,-19.72 1458.65,-25.56 1464.22,-29.8"/>
</g>
<!-- Node10&#45;&gt;Node5 -->
<g id="edge10" class="edge">
<title>Node10&#45;&gt;Node5</title>
<path fill="none" stroke="midnightblue" d="M605.04,-56.44C646.13,-46.27 714.25,-29.39 754.91,-19.32"/>
<polygon fill="midnightblue" stroke="midnightblue" points="756,-22.66 764.87,-16.85 754.32,-15.86 756,-22.66"/>
</g>
<!-- Node11&#45;&gt;Node6 -->
<g id="edge12" class="edge">
<title>Node11&#45;&gt;Node6</title>
<path fill="none" stroke="midnightblue" d="M440.31,-56.44C413.56,-47.36 371.1,-32.94 341.19,-22.78"/>
<polygon fill="midnightblue" stroke="midnightblue" points="342.17,-19.42 331.58,-19.52 339.92,-26.05 342.17,-19.42"/>
</g>
<!-- Node19 -->
<g id="node19" class="node">
<title>Node19</title>
<g id="a_node19"><a xlink:title=" ">
<polygon fill="white" stroke="#bfbfbf" points="1195.5,-0.5 1195.5,-19.5 1233.5,-19.5 1233.5,-0.5 1195.5,-0.5"/>
<text text-anchor="middle" x="1214.5" y="-7.5" font-family="Helvetica,sans-Serif" font-size="10.00">map</text>
</a>
</g>
</g>
<!-- Node18&#45;&gt;Node19 -->
<g id="edge20" class="edge">
<title>Node18&#45;&gt;Node19</title>
<path fill="none" stroke="midnightblue" d="M1304.31,-56.32C1287.15,-47.66 1260.55,-34.24 1240.75,-24.25"/>
<polygon fill="midnightblue" stroke="midnightblue" points="1242.15,-21.04 1231.65,-19.65 1239,-27.28 1242.15,-21.04"/>
</g>
<!-- Node20 -->
<g id="node20" class="node">
<title>Node20</title>
<g id="a_node20"><a xlink:title=" ">
<polygon fill="white" stroke="#bfbfbf" points="1252,-0.5 1252,-19.5 1317,-19.5 1317,-0.5 1252,-0.5"/>
<text text-anchor="middle" x="1284.5" y="-7.5" font-family="Helvetica,sans-Serif" font-size="10.00">stdexcept</text>
</a>
</g>
</g>
<!-- Node18&#45;&gt;Node20 -->
<g id="edge21" class="edge">
<title>Node18&#45;&gt;Node20</title>
<path fill="none" stroke="midnightblue" d="M1315.39,-56.08C1310.22,-48.53 1302.65,-37.49 1296.31,-28.23"/>
<polygon fill="midnightblue" stroke="midnightblue" points="1299.04,-26.02 1290.5,-19.75 1293.26,-29.98 1299.04,-26.02"/>
</g>
<!-- Node21 -->
<g id="node21" class="node">
<title>Node21</title>
<g id="a_node21"><a xlink:title=" ">
<polygon fill="white" stroke="#bfbfbf" points="1335.5,-0.5 1335.5,-19.5 1379.5,-19.5 1379.5,-0.5 1335.5,-0.5"/>
<text text-anchor="middle" x="1357.5" y="-7.5" font-family="Helvetica,sans-Serif" font-size="10.00">string</text>
</a>
</g>
</g>
<!-- Node18&#45;&gt;Node21 -->
<g id="edge22" class="edge">
<title>Node18&#45;&gt;Node21</title>
<path fill="none" stroke="midnightblue" d="M1327.44,-56.08C1332.48,-48.53 1339.84,-37.49 1346.01,-28.23"/>
<polygon fill="midnightblue" stroke="midnightblue" points="1349.03,-30.01 1351.67,-19.75 1343.21,-26.13 1349.03,-30.01"/>
</g>
<!-- Node18&#45;&gt;Node22 -->
<g id="edge23" class="edge">
<title>Node18&#45;&gt;Node22</title>
<path fill="none" stroke="midnightblue" d="M1345.58,-56.44C1371.04,-47.4 1411.39,-33.06 1439.96,-22.92"/>
<polygon fill="midnightblue" stroke="midnightblue" points="1441.28,-26.16 1449.53,-19.52 1438.93,-19.57 1441.28,-26.16"/>
</g>
<!-- Node23 -->
<g id="node23" class="node">
<title>Node23</title>
<g id="a_node23"><a xlink:title=" ">
<polygon fill="white" stroke="#bfbfbf" points="1085.5,-0.5 1085.5,-19.5 1177.5,-19.5 1177.5,-0.5 1085.5,-0.5"/>
<text text-anchor="middle" x="1131.5" y="-7.5" font-family="Helvetica,sans-Serif" font-size="10.00">xtensor/xio.hpp</text>
</a>
</g>
</g>
<!-- Node18&#45;&gt;Node23 -->
<g id="edge24" class="edge">
<title>Node18&#45;&gt;Node23</title>
<path fill="none" stroke="midnightblue" d="M1291.39,-56.44C1258.87,-47.2 1206.92,-32.44 1171.11,-22.26"/>
<polygon fill="midnightblue" stroke="midnightblue" points="1172.04,-18.88 1161.47,-19.52 1170.13,-25.62 1172.04,-18.88"/>
</g>
</g>
</svg>
