<?xml version="1.0" encoding="UTF-8" standalone="no"?>
<!DOCTYPE svg PUBLIC "-//W3C//DTD SVG 1.1//EN"
 "http://www.w3.org/Graphics/SVG/1.1/DTD/svg11.dtd">
<!-- Generated by graphviz version 2.44.1 (20200629.0846)
 -->
<!-- Title: cElastoPlastic.cpp Pages: 1 -->
<svg width="1285pt" height="196pt"
 viewBox="0.00 0.00 1285.46 196.00" xmlns="http://www.w3.org/2000/svg" xmlns:xlink="http://www.w3.org/1999/xlink">
<g id="graph0" class="graph" transform="scale(1 1) rotate(0) translate(4 192)">
<title>cElastoPlastic.cpp</title>
<polygon fill="white" stroke="transparent" points="-4,4 -4,-192 1281.46,-192 1281.46,4 -4,4"/>
<!-- Node1 -->
<g id="node1" class="node">
<title>Node1</title>
<g id="a_node1"><a xlink:title=" ">
<polygon fill="#bfbfbf" stroke="black" points="350,-168.5 350,-187.5 448,-187.5 448,-168.5 350,-168.5"/>
<text text-anchor="middle" x="399" y="-175.5" font-family="Helvetica,sans-Serif" font-size="10.00">cElastoPlastic.cpp</text>
</a>
</g>
</g>
<!-- Node2 -->
<g id="node2" class="node">
<title>Node2</title>
<g id="a_node2"><a xlink:title=" ">
<polygon fill="white" stroke="#bfbfbf" points="0,-56.5 0,-75.5 106,-75.5 106,-56.5 0,-56.5"/>
<text text-anchor="middle" x="53" y="-63.5" font-family="Helvetica,sans-Serif" font-size="10.00">pybind11/pybind11.h</text>
</a>
</g>
</g>
<!-- Node1&#45;&gt;Node2 -->
<g id="edge1" class="edge">
<title>Node1&#45;&gt;Node2</title>
<path fill="none" stroke="midnightblue" d="M372.14,-168.46C310.7,-148.93 159.83,-100.96 89.81,-78.7"/>
<polygon fill="midnightblue" stroke="midnightblue" points="90.67,-75.3 80.08,-75.61 88.55,-81.98 90.67,-75.3"/>
</g>
<!-- Node3 -->
<g id="node3" class="node">
<title>Node3</title>
<g id="a_node3"><a xlink:title=" ">
<polygon fill="white" stroke="#bfbfbf" points="348.5,-112.5 348.5,-131.5 449.5,-131.5 449.5,-112.5 348.5,-112.5"/>
<text text-anchor="middle" x="399" y="-119.5" font-family="Helvetica,sans-Serif" font-size="10.00">pybind11/stl_bind.h</text>
</a>
</g>
</g>
<!-- Node1&#45;&gt;Node3 -->
<g id="edge2" class="edge">
<title>Node1&#45;&gt;Node3</title>
<path fill="none" stroke="midnightblue" d="M399,-168.08C399,-161.01 399,-150.86 399,-141.99"/>
<polygon fill="midnightblue" stroke="midnightblue" points="402.5,-141.75 399,-131.75 395.5,-141.75 402.5,-141.75"/>
</g>
<!-- Node4 -->
<g id="node4" class="node">
<title>Node4</title>
<g id="a_node4"><a xlink:href="_elasto_plastic_8h.html" target="_top" xlink:title=" ">
<polygon fill="white" stroke="black" points="539.5,-112.5 539.5,-131.5 622.5,-131.5 622.5,-112.5 539.5,-112.5"/>
<text text-anchor="middle" x="581" y="-119.5" font-family="Helvetica,sans-Serif" font-size="10.00">ElastoPlastic.h</text>
</a>
</g>
</g>
<!-- Node1&#45;&gt;Node4 -->
<g id="edge3" class="edge">
<title>Node1&#45;&gt;Node4</title>
<path fill="none" stroke="midnightblue" d="M427.84,-168.44C458.86,-159.24 508.33,-144.56 542.62,-134.39"/>
<polygon fill="midnightblue" stroke="midnightblue" points="543.71,-137.72 552.3,-131.52 541.71,-131.01 543.71,-137.72"/>
</g>
<!-- Node4&#45;&gt;Node2 -->
<g id="edge20" class="edge">
<title>Node4&#45;&gt;Node2</title>
<path fill="none" stroke="midnightblue" d="M539.31,-117.44C458.38,-110.42 274.37,-93.9 120,-76 118.72,-75.85 117.43,-75.7 116.13,-75.54"/>
<polygon fill="midnightblue" stroke="midnightblue" points="116.36,-72.05 106.01,-74.3 115.51,-78.99 116.36,-72.05"/>
</g>
<!-- Node5 -->
<g id="node5" class="node">
<title>Node5</title>
<g id="a_node5"><a xlink:title=" ">
<polygon fill="white" stroke="#bfbfbf" points="889,-0.5 889,-19.5 933,-19.5 933,-0.5 889,-0.5"/>
<text text-anchor="middle" x="911" y="-7.5" font-family="Helvetica,sans-Serif" font-size="10.00">cmath</text>
</a>
</g>
</g>
<!-- Node4&#45;&gt;Node5 -->
<g id="edge4" class="edge">
<title>Node4&#45;&gt;Node5</title>
<path fill="none" stroke="midnightblue" d="M622.59,-121.51C765.13,-122.84 1227.56,-123.43 1272,-76 1318.17,-26.73 1040.16,-14.49 943.35,-11.73"/>
<polygon fill="midnightblue" stroke="midnightblue" points="943.34,-8.23 933.25,-11.46 943.15,-15.23 943.34,-8.23"/>
</g>
<!-- Node6 -->
<g id="node6" class="node">
<title>Node6</title>
<g id="a_node6"><a xlink:title=" ">
<polygon fill="white" stroke="#bfbfbf" points="256,-0.5 256,-19.5 310,-19.5 310,-0.5 256,-0.5"/>
<text text-anchor="middle" x="283" y="-7.5" font-family="Helvetica,sans-Serif" font-size="10.00">iostream</text>
</a>
</g>
</g>
<!-- Node4&#45;&gt;Node6 -->
<g id="edge5" class="edge">
<title>Node4&#45;&gt;Node6</title>
<path fill="none" stroke="midnightblue" d="M539.13,-117.34C432.65,-107.93 159.44,-83.15 153,-76 122.96,-42.63 197.49,-24.25 245.73,-16.14"/>
<polygon fill="midnightblue" stroke="midnightblue" points="246.55,-19.55 255.88,-14.52 245.45,-12.64 246.55,-19.55"/>
</g>
<!-- Node7 -->
<g id="node7" class="node">
<title>Node7</title>
<g id="a_node7"><a xlink:title=" ">
<polygon fill="white" stroke="#bfbfbf" points="162,-56.5 162,-75.5 212,-75.5 212,-56.5 162,-56.5"/>
<text text-anchor="middle" x="187" y="-63.5" font-family="Helvetica,sans-Serif" font-size="10.00">iomanip</text>
</a>
</g>
</g>
<!-- Node4&#45;&gt;Node7 -->
<g id="edge6" class="edge">
<title>Node4&#45;&gt;Node7</title>
<path fill="none" stroke="midnightblue" d="M539.41,-117.63C473.93,-111.93 342.67,-98.89 222.29,-76.02"/>
<polygon fill="midnightblue" stroke="midnightblue" points="222.65,-72.52 212.16,-74.06 221.32,-79.39 222.65,-72.52"/>
</g>
<!-- Node8 -->
<g id="node8" class="node">
<title>Node8</title>
<g id="a_node8"><a xlink:title=" ">
<polygon fill="white" stroke="#bfbfbf" points="230,-56.5 230,-75.5 274,-75.5 274,-56.5 230,-56.5"/>
<text text-anchor="middle" x="252" y="-63.5" font-family="Helvetica,sans-Serif" font-size="10.00">vector</text>
</a>
</g>
</g>
<!-- Node4&#45;&gt;Node8 -->
<g id="edge7" class="edge">
<title>Node4&#45;&gt;Node8</title>
<path fill="none" stroke="midnightblue" d="M539.22,-116.46C483.21,-110 380.56,-96.78 284.17,-76.01"/>
<polygon fill="midnightblue" stroke="midnightblue" points="284.78,-72.56 274.26,-73.85 283.28,-79.4 284.78,-72.56"/>
</g>
<!-- Node9 -->
<g id="node9" class="node">
<title>Node9</title>
<g id="a_node9"><a xlink:href="proteus__blas_8h.html" target="_top" xlink:title=" ">
<polygon fill="white" stroke="black" points="292,-56.5 292,-75.5 372,-75.5 372,-56.5 292,-56.5"/>
<text text-anchor="middle" x="332" y="-63.5" font-family="Helvetica,sans-Serif" font-size="10.00">proteus_blas.h</text>
</a>
</g>
</g>
<!-- Node4&#45;&gt;Node9 -->
<g id="edge8" class="edge">
<title>Node4&#45;&gt;Node9</title>
<path fill="none" stroke="midnightblue" d="M541.55,-112.44C498.11,-103.02 428.21,-87.87 381.22,-77.68"/>
<polygon fill="midnightblue" stroke="midnightblue" points="381.78,-74.22 371.27,-75.52 380.3,-81.06 381.78,-74.22"/>
</g>
<!-- Node10 -->
<g id="node10" class="node">
<title>Node10</title>
<g id="a_node10"><a xlink:href="_comp_kernel_8h.html" target="_top" xlink:title=" ">
<polygon fill="white" stroke="black" points="491.5,-56.5 491.5,-75.5 570.5,-75.5 570.5,-56.5 491.5,-56.5"/>
<text text-anchor="middle" x="531" y="-63.5" font-family="Helvetica,sans-Serif" font-size="10.00">CompKernel.h</text>
</a>
</g>
</g>
<!-- Node4&#45;&gt;Node10 -->
<g id="edge9" class="edge">
<title>Node4&#45;&gt;Node10</title>
<path fill="none" stroke="midnightblue" d="M572.74,-112.08C565.54,-104.3 554.89,-92.8 546.15,-83.37"/>
<polygon fill="midnightblue" stroke="midnightblue" points="548.47,-80.71 539.1,-75.75 543.33,-85.47 548.47,-80.71"/>
</g>
<!-- Node11 -->
<g id="node11" class="node">
<title>Node11</title>
<g id="a_node11"><a xlink:href="_model_factory_8h.html" target="_top" xlink:title=" ">
<polygon fill="white" stroke="black" points="390.5,-56.5 390.5,-75.5 473.5,-75.5 473.5,-56.5 390.5,-56.5"/>
<text text-anchor="middle" x="432" y="-63.5" font-family="Helvetica,sans-Serif" font-size="10.00">ModelFactory.h</text>
</a>
</g>
</g>
<!-- Node4&#45;&gt;Node11 -->
<g id="edge11" class="edge">
<title>Node4&#45;&gt;Node11</title>
<path fill="none" stroke="midnightblue" d="M557.39,-112.44C532.54,-103.44 493.23,-89.19 465.25,-79.05"/>
<polygon fill="midnightblue" stroke="midnightblue" points="466.09,-75.63 455.5,-75.52 463.71,-82.21 466.09,-75.63"/>
</g>
<!-- Node12 -->
<g id="node12" class="node">
<title>Node12</title>
<g id="a_node12"><a xlink:href="mohr_coulomb_8h.html" target="_top" xlink:title=" ">
<polygon fill="white" stroke="black" points="589,-56.5 589,-75.5 675,-75.5 675,-56.5 589,-56.5"/>
<text text-anchor="middle" x="632" y="-63.5" font-family="Helvetica,sans-Serif" font-size="10.00">mohrCoulomb.h</text>
</a>
</g>
</g>
<!-- Node4&#45;&gt;Node12 -->
<g id="edge13" class="edge">
<title>Node4&#45;&gt;Node12</title>
<path fill="none" stroke="midnightblue" d="M589.42,-112.08C596.85,-104.22 607.85,-92.57 616.81,-83.08"/>
<polygon fill="midnightblue" stroke="midnightblue" points="619.41,-85.42 623.74,-75.75 614.32,-80.62 619.41,-85.42"/>
</g>
<!-- Node13 -->
<g id="node13" class="node">
<title>Node13</title>
<g id="a_node13"><a xlink:href="mohr_coulomb2_8h.html" target="_top" xlink:title=" ">
<polygon fill="white" stroke="black" points="693.5,-56.5 693.5,-75.5 784.5,-75.5 784.5,-56.5 693.5,-56.5"/>
<text text-anchor="middle" x="739" y="-63.5" font-family="Helvetica,sans-Serif" font-size="10.00">mohrCoulomb2.h</text>
</a>
</g>
</g>
<!-- Node4&#45;&gt;Node13 -->
<g id="edge14" class="edge">
<title>Node4&#45;&gt;Node13</title>
<path fill="none" stroke="midnightblue" d="M606.04,-112.44C632.62,-103.36 674.81,-88.94 704.52,-78.78"/>
<polygon fill="midnightblue" stroke="midnightblue" points="705.75,-82.06 714.08,-75.52 703.49,-75.44 705.75,-82.06"/>
</g>
<!-- Node14 -->
<g id="node14" class="node">
<title>Node14</title>
<g id="a_node14"><a xlink:href="von_mises_8h.html" target="_top" xlink:title=" ">
<polygon fill="white" stroke="black" points="802.5,-56.5 802.5,-75.5 869.5,-75.5 869.5,-56.5 802.5,-56.5"/>
<text text-anchor="middle" x="836" y="-63.5" font-family="Helvetica,sans-Serif" font-size="10.00">vonMises.h</text>
</a>
</g>
</g>
<!-- Node4&#45;&gt;Node14 -->
<g id="edge15" class="edge">
<title>Node4&#45;&gt;Node14</title>
<path fill="none" stroke="midnightblue" d="M621.44,-112.49C662.2,-103.91 727.19,-90.2 792.09,-76.4"/>
<polygon fill="midnightblue" stroke="midnightblue" points="793.02,-79.78 802.08,-74.28 791.57,-72.94 793.02,-79.78"/>
</g>
<!-- Node15 -->
<g id="node15" class="node">
<title>Node15</title>
<g id="a_node15"><a xlink:href="tresca_8h.html" target="_top" xlink:title=" ">
<polygon fill="white" stroke="black" points="888,-56.5 888,-75.5 940,-75.5 940,-56.5 888,-56.5"/>
<text text-anchor="middle" x="914" y="-63.5" font-family="Helvetica,sans-Serif" font-size="10.00">tresca.h</text>
</a>
</g>
</g>
<!-- Node4&#45;&gt;Node15 -->
<g id="edge16" class="edge">
<title>Node4&#45;&gt;Node15</title>
<path fill="none" stroke="midnightblue" d="M622.69,-116.07C678.61,-109.15 781.15,-95.42 877.76,-76.08"/>
<polygon fill="midnightblue" stroke="midnightblue" points="878.59,-79.49 887.69,-74.07 877.2,-72.63 878.59,-79.49"/>
</g>
<!-- Node16 -->
<g id="node16" class="node">
<title>Node16</title>
<g id="a_node16"><a xlink:href="drucker_prager_8h.html" target="_top" xlink:title=" ">
<polygon fill="white" stroke="black" points="958.5,-56.5 958.5,-75.5 1043.5,-75.5 1043.5,-56.5 958.5,-56.5"/>
<text text-anchor="middle" x="1001" y="-63.5" font-family="Helvetica,sans-Serif" font-size="10.00">druckerPrager.h</text>
</a>
</g>
</g>
<!-- Node4&#45;&gt;Node16 -->
<g id="edge17" class="edge">
<title>Node4&#45;&gt;Node16</title>
<path fill="none" stroke="midnightblue" d="M622.76,-116.58C689.3,-109.38 823.71,-94.24 948.36,-76.03"/>
<polygon fill="midnightblue" stroke="midnightblue" points="949.08,-79.46 958.46,-74.54 948.06,-72.53 949.08,-79.46"/>
</g>
<!-- Node17 -->
<g id="node17" class="node">
<title>Node17</title>
<g id="a_node17"><a xlink:href="mcdp_8h.html" target="_top" xlink:title=" ">
<polygon fill="white" stroke="black" points="1061.5,-56.5 1061.5,-75.5 1110.5,-75.5 1110.5,-56.5 1061.5,-56.5"/>
<text text-anchor="middle" x="1086" y="-63.5" font-family="Helvetica,sans-Serif" font-size="10.00">mcdp.h</text>
</a>
</g>
</g>
<!-- Node4&#45;&gt;Node17 -->
<g id="edge18" class="edge">
<title>Node4&#45;&gt;Node17</title>
<path fill="none" stroke="midnightblue" d="M622.68,-119.42C703.66,-115.84 887.94,-105.18 1051.02,-76.09"/>
<polygon fill="midnightblue" stroke="midnightblue" points="1052.02,-79.47 1061.24,-74.24 1050.77,-72.58 1052.02,-79.47"/>
</g>
<!-- Node18 -->
<g id="node18" class="node">
<title>Node18</title>
<g id="a_node18"><a xlink:title=" ">
<polygon fill="white" stroke="#bfbfbf" points="1129,-56.5 1129,-75.5 1263,-75.5 1263,-56.5 1129,-56.5"/>
<text text-anchor="middle" x="1196" y="-63.5" font-family="Helvetica,sans-Serif" font-size="10.00">xtensor&#45;python/pyarray.hpp</text>
</a>
</g>
</g>
<!-- Node4&#45;&gt;Node18 -->
<g id="edge19" class="edge">
<title>Node4&#45;&gt;Node18</title>
<path fill="none" stroke="midnightblue" d="M622.64,-118.02C711.64,-111.53 927.24,-95.26 1118.9,-76.08"/>
<polygon fill="midnightblue" stroke="midnightblue" points="1119.28,-79.56 1128.88,-75.08 1118.58,-72.59 1119.28,-79.56"/>
</g>
<!-- Node10&#45;&gt;Node5 -->
<g id="edge10" class="edge">
<title>Node10&#45;&gt;Node5</title>
<path fill="none" stroke="midnightblue" d="M570.55,-57.57C573.75,-57.02 576.93,-56.49 580,-56 689.17,-38.56 819.3,-22.14 878.63,-14.89"/>
<polygon fill="midnightblue" stroke="midnightblue" points="879.36,-18.33 888.87,-13.65 878.52,-11.38 879.36,-18.33"/>
</g>
<!-- Node11&#45;&gt;Node6 -->
<g id="edge12" class="edge">
<title>Node11&#45;&gt;Node6</title>
<path fill="none" stroke="midnightblue" d="M408.39,-56.44C383.54,-47.44 344.23,-33.19 316.25,-23.05"/>
<polygon fill="midnightblue" stroke="midnightblue" points="317.09,-19.63 306.5,-19.52 314.71,-26.21 317.09,-19.63"/>
</g>
</g>
</svg>
