<?xml version="1.0" encoding="UTF-8" standalone="no"?>
<!DOCTYPE svg PUBLIC "-//W3C//DTD SVG 1.1//EN"
 "http://www.w3.org/Graphics/SVG/1.1/DTD/svg11.dtd">
<!-- Generated by graphviz version 2.50.0 (20211204.2007)
 -->
<!-- Title: cElastoPlastic.cpp Pages: 1 -->
<svg width="1449pt" height="196pt"
 viewBox="0.00 0.00 1449.00 196.00" xmlns="http://www.w3.org/2000/svg" xmlns:xlink="http://www.w3.org/1999/xlink">
<g id="graph0" class="graph" transform="scale(1 1) rotate(0) translate(4 192)">
<title>cElastoPlastic.cpp</title>
<polygon fill="white" stroke="transparent" points="-4,4 -4,-192 1445,-192 1445,4 -4,4"/>
<!-- Node1 -->
<g id="node1" class="node">
<title>Node1</title>
<g id="a_node1"><a xlink:title=" ">
<polygon fill="#bfbfbf" stroke="black" points="376,-168.5 376,-187.5 474,-187.5 474,-168.5 376,-168.5"/>
<text text-anchor="middle" x="425" y="-175.5" font-family="Helvetica,sans-Serif" font-size="10.00">cElastoPlastic.cpp</text>
</a>
</g>
</g>
<!-- Node2 -->
<g id="node2" class="node">
<title>Node2</title>
<g id="a_node2"><a xlink:title=" ">
<polygon fill="white" stroke="#bfbfbf" points="0,-56.5 0,-75.5 106,-75.5 106,-56.5 0,-56.5"/>
<text text-anchor="middle" x="53" y="-63.5" font-family="Helvetica,sans-Serif" font-size="10.00">pybind11/pybind11.h</text>
</a>
</g>
</g>
<!-- Node1&#45;&gt;Node2 -->
<g id="edge1" class="edge">
<title>Node1&#45;&gt;Node2</title>
<path fill="none" stroke="midnightblue" d="M396.12,-168.46C329.84,-148.86 166.79,-100.65 91.83,-78.48"/>
<polygon fill="midnightblue" stroke="midnightblue" points="92.44,-75.01 81.86,-75.53 90.46,-81.73 92.44,-75.01"/>
</g>
<!-- Node3 -->
<g id="node3" class="node">
<title>Node3</title>
<g id="a_node3"><a xlink:title=" ">
<polygon fill="white" stroke="#bfbfbf" points="374.5,-112.5 374.5,-131.5 475.5,-131.5 475.5,-112.5 374.5,-112.5"/>
<text text-anchor="middle" x="425" y="-119.5" font-family="Helvetica,sans-Serif" font-size="10.00">pybind11/stl_bind.h</text>
</a>
</g>
</g>
<!-- Node1&#45;&gt;Node3 -->
<g id="edge2" class="edge">
<title>Node1&#45;&gt;Node3</title>
<path fill="none" stroke="midnightblue" d="M425,-168.08C425,-161.01 425,-150.86 425,-141.99"/>
<polygon fill="midnightblue" stroke="midnightblue" points="428.5,-141.75 425,-131.75 421.5,-141.75 428.5,-141.75"/>
</g>
<!-- Node4 -->
<g id="node4" class="node">
<title>Node4</title>
<g id="a_node4"><a xlink:href="_elasto_plastic_8h.html" target="_top" xlink:title=" ">
<polygon fill="white" stroke="black" points="590.5,-112.5 590.5,-131.5 673.5,-131.5 673.5,-112.5 590.5,-112.5"/>
<text text-anchor="middle" x="632" y="-119.5" font-family="Helvetica,sans-Serif" font-size="10.00">ElastoPlastic.h</text>
</a>
</g>
</g>
<!-- Node1&#45;&gt;Node4 -->
<g id="edge3" class="edge">
<title>Node1&#45;&gt;Node4</title>
<path fill="none" stroke="midnightblue" d="M457.8,-168.44C493.38,-159.16 550.31,-144.31 589.35,-134.13"/>
<polygon fill="midnightblue" stroke="midnightblue" points="590.56,-137.43 599.35,-131.52 588.79,-130.65 590.56,-137.43"/>
</g>
<!-- Node4&#45;&gt;Node2 -->
<g id="edge26" class="edge">
<title>Node4&#45;&gt;Node2</title>
<path fill="none" stroke="midnightblue" d="M590.46,-118C503.2,-111.55 294.49,-95.38 120,-76 118.72,-75.86 117.43,-75.71 116.12,-75.56"/>
<polygon fill="midnightblue" stroke="midnightblue" points="116.35,-72.06 106,-74.35 115.52,-79.01 116.35,-72.06"/>
</g>
<!-- Node5 -->
<g id="node5" class="node">
<title>Node5</title>
<g id="a_node5"><a xlink:title=" ">
<polygon fill="white" stroke="#bfbfbf" points="714,-0.5 714,-19.5 758,-19.5 758,-0.5 714,-0.5"/>
<text text-anchor="middle" x="736" y="-7.5" font-family="Helvetica,sans-Serif" font-size="10.00">cmath</text>
</a>
</g>
</g>
<!-- Node4&#45;&gt;Node5 -->
<g id="edge4" class="edge">
<title>Node4&#45;&gt;Node5</title>
<path fill="none" stroke="midnightblue" d="M673.89,-120.29C786.66,-117.97 1090.19,-108.69 1120,-76 1168.63,-22.68 869.15,-13.09 768.3,-11.37"/>
<polygon fill="midnightblue" stroke="midnightblue" points="768.14,-7.87 758.09,-11.21 768.04,-14.87 768.14,-7.87"/>
</g>
<!-- Node6 -->
<g id="node6" class="node">
<title>Node6</title>
<g id="a_node6"><a xlink:title=" ">
<polygon fill="white" stroke="#bfbfbf" points="256,-0.5 256,-19.5 310,-19.5 310,-0.5 256,-0.5"/>
<text text-anchor="middle" x="283" y="-7.5" font-family="Helvetica,sans-Serif" font-size="10.00">iostream</text>
</a>
</g>
</g>
<!-- Node4&#45;&gt;Node6 -->
<g id="edge5" class="edge">
<title>Node4&#45;&gt;Node6</title>
<path fill="none" stroke="midnightblue" d="M590.16,-118.59C476.18,-111.82 167.66,-92.1 153,-76 122.77,-42.8 197.38,-24.35 245.68,-16.18"/>
<polygon fill="midnightblue" stroke="midnightblue" points="246.52,-19.59 255.84,-14.55 245.41,-12.68 246.52,-19.59"/>
</g>
<!-- Node7 -->
<g id="node7" class="node">
<title>Node7</title>
<g id="a_node7"><a xlink:title=" ">
<polygon fill="white" stroke="#bfbfbf" points="162,-56.5 162,-75.5 212,-75.5 212,-56.5 162,-56.5"/>
<text text-anchor="middle" x="187" y="-63.5" font-family="Helvetica,sans-Serif" font-size="10.00">iomanip</text>
</a>
</g>
</g>
<!-- Node4&#45;&gt;Node7 -->
<g id="edge6" class="edge">
<title>Node4&#45;&gt;Node7</title>
<path fill="none" stroke="midnightblue" d="M590.28,-118.5C517.43,-113.7 362.23,-101.47 222.21,-75.97"/>
<polygon fill="midnightblue" stroke="midnightblue" points="222.63,-72.48 212.16,-74.11 221.35,-79.37 222.63,-72.48"/>
</g>
<!-- Node8 -->
<g id="node8" class="node">
<title>Node8</title>
<g id="a_node8"><a xlink:title=" ">
<polygon fill="white" stroke="#bfbfbf" points="230,-56.5 230,-75.5 274,-75.5 274,-56.5 230,-56.5"/>
<text text-anchor="middle" x="252" y="-63.5" font-family="Helvetica,sans-Serif" font-size="10.00">vector</text>
</a>
</g>
</g>
<!-- Node4&#45;&gt;Node8 -->
<g id="edge7" class="edge">
<title>Node4&#45;&gt;Node8</title>
<path fill="none" stroke="midnightblue" d="M590.29,-117.72C526.34,-112.23 400.16,-99.61 284.35,-76"/>
<polygon fill="midnightblue" stroke="midnightblue" points="284.75,-72.51 274.25,-73.9 283.33,-79.36 284.75,-72.51"/>
</g>
<!-- Node9 -->
<g id="node9" class="node">
<title>Node9</title>
<g id="a_node9"><a xlink:href="proteus__blas_8h.html" target="_top" xlink:title=" ">
<polygon fill="white" stroke="black" points="292,-56.5 292,-75.5 372,-75.5 372,-56.5 292,-56.5"/>
<text text-anchor="middle" x="332" y="-63.5" font-family="Helvetica,sans-Serif" font-size="10.00">proteus_blas.h</text>
</a>
</g>
</g>
<!-- Node4&#45;&gt;Node9 -->
<g id="edge8" class="edge">
<title>Node4&#45;&gt;Node9</title>
<path fill="none" stroke="midnightblue" d="M590.24,-113.57C542.47,-105.06 461.59,-90.61 382.27,-76.23"/>
<polygon fill="midnightblue" stroke="midnightblue" points="382.57,-72.72 372.11,-74.38 381.32,-79.61 382.57,-72.72"/>
</g>
<!-- Node10 -->
<g id="node10" class="node">
<title>Node10</title>
<g id="a_node10"><a xlink:href="_comp_kernel_8h.html" target="_top" xlink:title=" ">
<polygon fill="white" stroke="black" points="491.5,-56.5 491.5,-75.5 570.5,-75.5 570.5,-56.5 491.5,-56.5"/>
<text text-anchor="middle" x="531" y="-63.5" font-family="Helvetica,sans-Serif" font-size="10.00">CompKernel.h</text>
</a>
</g>
</g>
<!-- Node4&#45;&gt;Node10 -->
<g id="edge9" class="edge">
<title>Node4&#45;&gt;Node10</title>
<path fill="none" stroke="midnightblue" d="M615.77,-112.32C599.65,-103.7 574.7,-90.36 556.04,-80.39"/>
<polygon fill="midnightblue" stroke="midnightblue" points="557.66,-77.28 547.19,-75.65 554.36,-83.46 557.66,-77.28"/>
</g>
<!-- Node11 -->
<g id="node11" class="node">
<title>Node11</title>
<g id="a_node11"><a xlink:href="_model_factory_8h.html" target="_top" xlink:title=" ">
<polygon fill="white" stroke="black" points="390.5,-56.5 390.5,-75.5 473.5,-75.5 473.5,-56.5 390.5,-56.5"/>
<text text-anchor="middle" x="432" y="-63.5" font-family="Helvetica,sans-Serif" font-size="10.00">ModelFactory.h</text>
</a>
</g>
</g>
<!-- Node4&#45;&gt;Node11 -->
<g id="edge11" class="edge">
<title>Node4&#45;&gt;Node11</title>
<path fill="none" stroke="midnightblue" d="M600.31,-112.44C565.93,-103.16 510.92,-88.31 473.21,-78.13"/>
<polygon fill="midnightblue" stroke="midnightblue" points="474.11,-74.74 463.54,-75.52 472.28,-81.5 474.11,-74.74"/>
</g>
<!-- Node12 -->
<g id="node12" class="node">
<title>Node12</title>
<g id="a_node12"><a xlink:href="mohr_coulomb_8h.html" target="_top" xlink:title=" ">
<polygon fill="white" stroke="black" points="589,-56.5 589,-75.5 675,-75.5 675,-56.5 589,-56.5"/>
<text text-anchor="middle" x="632" y="-63.5" font-family="Helvetica,sans-Serif" font-size="10.00">mohrCoulomb.h</text>
</a>
</g>
</g>
<!-- Node4&#45;&gt;Node12 -->
<g id="edge13" class="edge">
<title>Node4&#45;&gt;Node12</title>
<path fill="none" stroke="midnightblue" d="M632,-112.08C632,-105.01 632,-94.86 632,-85.99"/>
<polygon fill="midnightblue" stroke="midnightblue" points="635.5,-85.75 632,-75.75 628.5,-85.75 635.5,-85.75"/>
</g>
<!-- Node13 -->
<g id="node13" class="node">
<title>Node13</title>
<g id="a_node13"><a xlink:href="mohr_coulomb2_8h.html" target="_top" xlink:title=" ">
<polygon fill="white" stroke="black" points="693.5,-56.5 693.5,-75.5 784.5,-75.5 784.5,-56.5 693.5,-56.5"/>
<text text-anchor="middle" x="739" y="-63.5" font-family="Helvetica,sans-Serif" font-size="10.00">mohrCoulomb2.h</text>
</a>
</g>
</g>
<!-- Node4&#45;&gt;Node13 -->
<g id="edge14" class="edge">
<title>Node4&#45;&gt;Node13</title>
<path fill="none" stroke="midnightblue" d="M649.19,-112.32C666.35,-103.66 692.95,-90.24 712.75,-80.25"/>
<polygon fill="midnightblue" stroke="midnightblue" points="714.5,-83.28 721.85,-75.65 711.35,-77.04 714.5,-83.28"/>
</g>
<!-- Node14 -->
<g id="node14" class="node">
<title>Node14</title>
<g id="a_node14"><a xlink:href="von_mises_8h.html" target="_top" xlink:title=" ">
<polygon fill="white" stroke="black" points="802.5,-56.5 802.5,-75.5 869.5,-75.5 869.5,-56.5 802.5,-56.5"/>
<text text-anchor="middle" x="836" y="-63.5" font-family="Helvetica,sans-Serif" font-size="10.00">vonMises.h</text>
</a>
</g>
</g>
<!-- Node4&#45;&gt;Node14 -->
<g id="edge15" class="edge">
<title>Node4&#45;&gt;Node14</title>
<path fill="none" stroke="midnightblue" d="M664.32,-112.44C699.39,-103.16 755.5,-88.31 793.96,-78.13"/>
<polygon fill="midnightblue" stroke="midnightblue" points="795.06,-81.46 803.83,-75.52 793.26,-74.69 795.06,-81.46"/>
</g>
<!-- Node15 -->
<g id="node15" class="node">
<title>Node15</title>
<g id="a_node15"><a xlink:href="tresca_8h.html" target="_top" xlink:title=" ">
<polygon fill="white" stroke="black" points="888,-56.5 888,-75.5 940,-75.5 940,-56.5 888,-56.5"/>
<text text-anchor="middle" x="914" y="-63.5" font-family="Helvetica,sans-Serif" font-size="10.00">tresca.h</text>
</a>
</g>
</g>
<!-- Node4&#45;&gt;Node15 -->
<g id="edge16" class="edge">
<title>Node4&#45;&gt;Node15</title>
<path fill="none" stroke="midnightblue" d="M673.51,-114.24C720.53,-106.4 799.67,-92.65 877.7,-75.94"/>
<polygon fill="midnightblue" stroke="midnightblue" points="878.66,-79.31 887.7,-73.78 877.19,-72.47 878.66,-79.31"/>
</g>
<!-- Node16 -->
<g id="node16" class="node">
<title>Node16</title>
<g id="a_node16"><a xlink:href="drucker_prager_8h.html" target="_top" xlink:title=" ">
<polygon fill="white" stroke="black" points="958.5,-56.5 958.5,-75.5 1043.5,-75.5 1043.5,-56.5 958.5,-56.5"/>
<text text-anchor="middle" x="1001" y="-63.5" font-family="Helvetica,sans-Serif" font-size="10.00">druckerPrager.h</text>
</a>
</g>
</g>
<!-- Node4&#45;&gt;Node16 -->
<g id="edge17" class="edge">
<title>Node4&#45;&gt;Node16</title>
<path fill="none" stroke="midnightblue" d="M673.6,-115.5C732.35,-107.65 843.23,-92.51 948.3,-76.07"/>
<polygon fill="midnightblue" stroke="midnightblue" points="949.11,-79.48 958.45,-74.47 948.03,-72.57 949.11,-79.48"/>
</g>
<!-- Node17 -->
<g id="node17" class="node">
<title>Node17</title>
<g id="a_node17"><a xlink:href="mcdp_8h.html" target="_top" xlink:title=" ">
<polygon fill="white" stroke="black" points="1061.5,-56.5 1061.5,-75.5 1110.5,-75.5 1110.5,-56.5 1061.5,-56.5"/>
<text text-anchor="middle" x="1086" y="-63.5" font-family="Helvetica,sans-Serif" font-size="10.00">mcdp.h</text>
</a>
</g>
</g>
<!-- Node4&#45;&gt;Node17 -->
<g id="edge18" class="edge">
<title>Node4&#45;&gt;Node17</title>
<path fill="none" stroke="midnightblue" d="M673.55,-118.77C747.75,-114.3 907.99,-102.49 1051.38,-76.06"/>
<polygon fill="midnightblue" stroke="midnightblue" points="1052.05,-79.49 1061.23,-74.21 1050.76,-72.61 1052.05,-79.49"/>
</g>
<!-- Node18 -->
<g id="node18" class="node">
<title>Node18</title>
<g id="a_node18"><a xlink:href="_arguments_dict_8h.html" target="_top" xlink:title=" ">
<polygon fill="white" stroke="black" points="1167,-56.5 1167,-75.5 1301,-75.5 1301,-56.5 1167,-56.5"/>
<text text-anchor="middle" x="1234" y="-63.5" font-family="Helvetica,sans-Serif" font-size="10.00">../mprans/ArgumentsDict.h</text>
</a>
</g>
</g>
<!-- Node4&#45;&gt;Node18 -->
<g id="edge19" class="edge">
<title>Node4&#45;&gt;Node18</title>
<path fill="none" stroke="midnightblue" d="M673.57,-117.76C761.89,-110.79 974.79,-93.59 1153,-76 1154.27,-75.87 1155.55,-75.75 1156.83,-75.62"/>
<polygon fill="midnightblue" stroke="midnightblue" points="1157.24,-79.09 1166.83,-74.59 1156.52,-72.13 1157.24,-79.09"/>
</g>
<!-- Node22 -->
<g id="node22" class="node">
<title>Node22</title>
<g id="a_node22"><a xlink:title=" ">
<polygon fill="white" stroke="#bfbfbf" points="1307,-0.5 1307,-19.5 1441,-19.5 1441,-0.5 1307,-0.5"/>
<text text-anchor="middle" x="1374" y="-7.5" font-family="Helvetica,sans-Serif" font-size="10.00">xtensor&#45;python/pyarray.hpp</text>
</a>
</g>
</g>
<!-- Node4&#45;&gt;Node22 -->
<g id="edge25" class="edge">
<title>Node4&#45;&gt;Node22</title>
<path fill="none" stroke="midnightblue" d="M673.68,-119.95C812.3,-116.23 1252.29,-102.45 1310,-76 1332.63,-65.63 1351.59,-43.5 1362.86,-27.95"/>
<polygon fill="midnightblue" stroke="midnightblue" points="1365.76,-29.91 1368.58,-19.7 1360.01,-25.92 1365.76,-29.91"/>
</g>
<!-- Node10&#45;&gt;Node5 -->
<g id="edge10" class="edge">
<title>Node10&#45;&gt;Node5</title>
<path fill="none" stroke="midnightblue" d="M563.48,-56.44C601.87,-46.33 665.36,-29.61 703.68,-19.51"/>
<polygon fill="midnightblue" stroke="midnightblue" points="705,-22.79 713.78,-16.85 703.22,-16.02 705,-22.79"/>
</g>
<!-- Node11&#45;&gt;Node6 -->
<g id="edge12" class="edge">
<title>Node11&#45;&gt;Node6</title>
<path fill="none" stroke="midnightblue" d="M408.39,-56.44C383.54,-47.44 344.23,-33.19 316.25,-23.05"/>
<polygon fill="midnightblue" stroke="midnightblue" points="317.09,-19.63 306.5,-19.52 314.71,-26.21 317.09,-19.63"/>
</g>
<!-- Node19 -->
<g id="node19" class="node">
<title>Node19</title>
<g id="a_node19"><a xlink:title=" ">
<polygon fill="white" stroke="#bfbfbf" points="1117.5,-0.5 1117.5,-19.5 1152.5,-19.5 1152.5,-0.5 1117.5,-0.5"/>
<text text-anchor="middle" x="1135" y="-7.5" font-family="Helvetica,sans-Serif" font-size="10.00">map</text>
</a>
</g>
</g>
<!-- Node18&#45;&gt;Node19 -->
<g id="edge20" class="edge">
<title>Node18&#45;&gt;Node19</title>
<path fill="none" stroke="midnightblue" d="M1218.09,-56.32C1202.36,-47.74 1178.06,-34.49 1159.79,-24.52"/>
<polygon fill="midnightblue" stroke="midnightblue" points="1161.32,-21.37 1150.87,-19.65 1157.97,-27.52 1161.32,-21.37"/>
</g>
<!-- Node20 -->
<g id="node20" class="node">
<title>Node20</title>
<g id="a_node20"><a xlink:title=" ">
<polygon fill="white" stroke="#bfbfbf" points="1170.5,-0.5 1170.5,-19.5 1229.5,-19.5 1229.5,-0.5 1170.5,-0.5"/>
<text text-anchor="middle" x="1200" y="-7.5" font-family="Helvetica,sans-Serif" font-size="10.00">stdexcept</text>
</a>
</g>
</g>
<!-- Node18&#45;&gt;Node20 -->
<g id="edge21" class="edge">
<title>Node18&#45;&gt;Node20</title>
<path fill="none" stroke="midnightblue" d="M1228.39,-56.08C1223.63,-48.53 1216.68,-37.49 1210.85,-28.23"/>
<polygon fill="midnightblue" stroke="midnightblue" points="1213.8,-26.35 1205.51,-19.75 1207.88,-30.08 1213.8,-26.35"/>
</g>
<!-- Node21 -->
<g id="node21" class="node">
<title>Node21</title>
<g id="a_node21"><a xlink:title=" ">
<polygon fill="white" stroke="#bfbfbf" points="1247.5,-0.5 1247.5,-19.5 1288.5,-19.5 1288.5,-0.5 1247.5,-0.5"/>
<text text-anchor="middle" x="1268" y="-7.5" font-family="Helvetica,sans-Serif" font-size="10.00">string</text>
</a>
</g>
</g>
<!-- Node18&#45;&gt;Node21 -->
<g id="edge22" class="edge">
<title>Node18&#45;&gt;Node21</title>
<path fill="none" stroke="midnightblue" d="M1239.61,-56.08C1244.37,-48.53 1251.32,-37.49 1257.15,-28.23"/>
<polygon fill="midnightblue" stroke="midnightblue" points="1260.12,-30.08 1262.49,-19.75 1254.2,-26.35 1260.12,-30.08"/>
</g>
<!-- Node18&#45;&gt;Node22 -->
<g id="edge23" class="edge">
<title>Node18&#45;&gt;Node22</title>
<path fill="none" stroke="midnightblue" d="M1256.18,-56.44C1279.43,-47.48 1316.15,-33.31 1342.42,-23.18"/>
<polygon fill="midnightblue" stroke="midnightblue" points="1343.85,-26.38 1351.92,-19.52 1341.33,-19.85 1343.85,-26.38"/>
</g>
<!-- Node23 -->
<g id="node23" class="node">
<title>Node23</title>
<g id="a_node23"><a xlink:title=" ">
<polygon fill="white" stroke="#bfbfbf" points="1016.5,-0.5 1016.5,-19.5 1099.5,-19.5 1099.5,-0.5 1016.5,-0.5"/>
<text text-anchor="middle" x="1058" y="-7.5" font-family="Helvetica,sans-Serif" font-size="10.00">xtensor/xio.hpp</text>
</a>
</g>
</g>
<!-- Node18&#45;&gt;Node23 -->
<g id="edge24" class="edge">
<title>Node18&#45;&gt;Node23</title>
<path fill="none" stroke="midnightblue" d="M1206.11,-56.44C1176.25,-47.28 1128.69,-32.69 1095.54,-22.52"/>
<polygon fill="midnightblue" stroke="midnightblue" points="1096.34,-19.1 1085.76,-19.52 1094.29,-25.8 1096.34,-19.1"/>
</g>
</g>
</svg>
