<?xml version="1.0" encoding="UTF-8" standalone="no"?>
<!DOCTYPE svg PUBLIC "-//W3C//DTD SVG 1.1//EN"
 "http://www.w3.org/Graphics/SVG/1.1/DTD/svg11.dtd">
<!-- Generated by graphviz version 2.44.1 (20200629.0846)
 -->
<!-- Title: cMeshAdaptPUMI.cpp Pages: 1 -->
<svg width="1231pt" height="196pt"
 viewBox="0.00 0.00 1230.50 196.00" xmlns="http://www.w3.org/2000/svg" xmlns:xlink="http://www.w3.org/1999/xlink">
<g id="graph0" class="graph" transform="scale(1 1) rotate(0) translate(4 192)">
<title>cMeshAdaptPUMI.cpp</title>
<polygon fill="white" stroke="transparent" points="-4,4 -4,-192 1226.5,-192 1226.5,4 -4,4"/>
<!-- Node1 -->
<g id="node1" class="node">
<title>Node1</title>
<g id="a_node1"><a xlink:title=" ">
<polygon fill="#bfbfbf" stroke="black" points="502.5,-168.5 502.5,-187.5 618.5,-187.5 618.5,-168.5 502.5,-168.5"/>
<text text-anchor="middle" x="560.5" y="-175.5" font-family="Helvetica,sans-Serif" font-size="10.00">cMeshAdaptPUMI.cpp</text>
</a>
</g>
</g>
<!-- Node2 -->
<g id="node2" class="node">
<title>Node2</title>
<g id="a_node2"><a xlink:title=" ">
<polygon fill="white" stroke="#bfbfbf" points="0,-112.5 0,-131.5 41,-131.5 41,-112.5 0,-112.5"/>
<text text-anchor="middle" x="20.5" y="-119.5" font-family="Helvetica,sans-Serif" font-size="10.00">gmi.h</text>
</a>
</g>
</g>
<!-- Node1&#45;&gt;Node2 -->
<g id="edge1" class="edge">
<title>Node1&#45;&gt;Node2</title>
<path fill="none" stroke="midnightblue" d="M502.22,-175.7C408.8,-172.79 219.77,-163.43 51.08,-131.68"/>
<polygon fill="midnightblue" stroke="midnightblue" points="51.5,-128.2 41.02,-129.76 50.18,-135.07 51.5,-128.2"/>
</g>
<!-- Node3 -->
<g id="node3" class="node">
<title>Node3</title>
<g id="a_node3"><a xlink:title=" ">
<polygon fill="white" stroke="#bfbfbf" points="59.5,-112.5 59.5,-131.5 129.5,-131.5 129.5,-112.5 59.5,-112.5"/>
<text text-anchor="middle" x="94.5" y="-119.5" font-family="Helvetica,sans-Serif" font-size="10.00">gmi_mesh.h</text>
</a>
</g>
</g>
<!-- Node1&#45;&gt;Node3 -->
<g id="edge2" class="edge">
<title>Node1&#45;&gt;Node3</title>
<path fill="none" stroke="midnightblue" d="M502.25,-172.56C422.62,-166.1 275.16,-152.73 139.66,-132.04"/>
<polygon fill="midnightblue" stroke="midnightblue" points="139.93,-128.54 129.51,-130.48 138.86,-135.46 139.93,-128.54"/>
</g>
<!-- Node4 -->
<g id="node4" class="node">
<title>Node4</title>
<g id="a_node4"><a xlink:title=" ">
<polygon fill="white" stroke="#bfbfbf" points="148,-112.5 148,-131.5 209,-131.5 209,-112.5 148,-112.5"/>
<text text-anchor="middle" x="178.5" y="-119.5" font-family="Helvetica,sans-Serif" font-size="10.00">gmi_null.h</text>
</a>
</g>
</g>
<!-- Node1&#45;&gt;Node4 -->
<g id="edge3" class="edge">
<title>Node1&#45;&gt;Node4</title>
<path fill="none" stroke="midnightblue" d="M502.47,-170.98C436.3,-163.76 324.71,-150.48 218.91,-131.92"/>
<polygon fill="midnightblue" stroke="midnightblue" points="219.47,-128.47 209.02,-130.17 218.25,-135.36 219.47,-128.47"/>
</g>
<!-- Node5 -->
<g id="node5" class="node">
<title>Node5</title>
<g id="a_node5"><a xlink:title=" ">
<polygon fill="white" stroke="#bfbfbf" points="227.5,-112.5 227.5,-131.5 265.5,-131.5 265.5,-112.5 227.5,-112.5"/>
<text text-anchor="middle" x="246.5" y="-119.5" font-family="Helvetica,sans-Serif" font-size="10.00">ma.h</text>
</a>
</g>
</g>
<!-- Node1&#45;&gt;Node5 -->
<g id="edge4" class="edge">
<title>Node1&#45;&gt;Node5</title>
<path fill="none" stroke="midnightblue" d="M502.47,-170.55C446.54,-163.73 359.44,-151.53 275.61,-131.95"/>
<polygon fill="midnightblue" stroke="midnightblue" points="276.21,-128.5 265.67,-129.59 274.59,-135.31 276.21,-128.5"/>
</g>
<!-- Node6 -->
<g id="node6" class="node">
<title>Node6</title>
<g id="a_node6"><a xlink:title=" ">
<polygon fill="white" stroke="#bfbfbf" points="283.5,-112.5 283.5,-131.5 349.5,-131.5 349.5,-112.5 283.5,-112.5"/>
<text text-anchor="middle" x="316.5" y="-119.5" font-family="Helvetica,sans-Serif" font-size="10.00">maShape.h</text>
</a>
</g>
</g>
<!-- Node1&#45;&gt;Node6 -->
<g id="edge5" class="edge">
<title>Node1&#45;&gt;Node6</title>
<path fill="none" stroke="midnightblue" d="M521.84,-168.44C477.61,-158.66 405.4,-142.67 359.45,-132.51"/>
<polygon fill="midnightblue" stroke="midnightblue" points="360.02,-129.05 349.5,-130.3 358.51,-135.88 360.02,-129.05"/>
</g>
<!-- Node7 -->
<g id="node7" class="node">
<title>Node7</title>
<g id="a_node7"><a xlink:title=" ">
<polygon fill="white" stroke="#bfbfbf" points="368,-112.5 368,-131.5 429,-131.5 429,-112.5 368,-112.5"/>
<text text-anchor="middle" x="398.5" y="-119.5" font-family="Helvetica,sans-Serif" font-size="10.00">apfMDS.h</text>
</a>
</g>
</g>
<!-- Node1&#45;&gt;Node7 -->
<g id="edge6" class="edge">
<title>Node1&#45;&gt;Node7</title>
<path fill="none" stroke="midnightblue" d="M534.83,-168.44C507.58,-159.36 464.32,-144.94 433.85,-134.78"/>
<polygon fill="midnightblue" stroke="midnightblue" points="434.64,-131.36 424.05,-131.52 432.43,-138 434.64,-131.36"/>
</g>
<!-- Node8 -->
<g id="node8" class="node">
<title>Node8</title>
<g id="a_node8"><a xlink:title=" ">
<polygon fill="white" stroke="#bfbfbf" points="447,-112.5 447,-131.5 494,-131.5 494,-112.5 447,-112.5"/>
<text text-anchor="middle" x="470.5" y="-119.5" font-family="Helvetica,sans-Serif" font-size="10.00">PCU.h</text>
</a>
</g>
</g>
<!-- Node1&#45;&gt;Node8 -->
<g id="edge7" class="edge">
<title>Node1&#45;&gt;Node8</title>
<path fill="none" stroke="midnightblue" d="M546.04,-168.32C532,-159.9 510.45,-146.97 493.96,-137.07"/>
<polygon fill="midnightblue" stroke="midnightblue" points="495.3,-133.8 484.92,-131.65 491.7,-139.8 495.3,-133.8"/>
</g>
<!-- Node9 -->
<g id="node9" class="node">
<title>Node9</title>
<g id="a_node9"><a xlink:title=" ">
<polygon fill="white" stroke="#bfbfbf" points="590.5,-56.5 590.5,-75.5 628.5,-75.5 628.5,-56.5 590.5,-56.5"/>
<text text-anchor="middle" x="609.5" y="-63.5" font-family="Helvetica,sans-Serif" font-size="10.00">apf.h</text>
</a>
</g>
</g>
<!-- Node1&#45;&gt;Node9 -->
<g id="edge8" class="edge">
<title>Node1&#45;&gt;Node9</title>
<path fill="none" stroke="midnightblue" d="M564.34,-168.37C572.32,-150.46 590.83,-108.92 601.5,-84.95"/>
<polygon fill="midnightblue" stroke="midnightblue" points="604.8,-86.15 605.67,-75.59 598.41,-83.3 604.8,-86.15"/>
</g>
<!-- Node10 -->
<g id="node10" class="node">
<title>Node10</title>
<g id="a_node10"><a xlink:title=" ">
<polygon fill="white" stroke="#bfbfbf" points="416.5,-0.5 416.5,-19.5 470.5,-19.5 470.5,-0.5 416.5,-0.5"/>
<text text-anchor="middle" x="443.5" y="-7.5" font-family="Helvetica,sans-Serif" font-size="10.00">iostream</text>
</a>
</g>
</g>
<!-- Node1&#45;&gt;Node10 -->
<g id="edge9" class="edge">
<title>Node1&#45;&gt;Node10</title>
<path fill="none" stroke="midnightblue" d="M554.21,-168.08C535.47,-141.49 479.82,-62.54 455.32,-27.76"/>
<polygon fill="midnightblue" stroke="midnightblue" points="458.16,-25.73 449.54,-19.57 452.44,-29.76 458.16,-25.73"/>
</g>
<!-- Node11 -->
<g id="node11" class="node">
<title>Node11</title>
<g id="a_node11"><a xlink:title=" ">
<polygon fill="white" stroke="#bfbfbf" points="488.5,-0.5 488.5,-19.5 538.5,-19.5 538.5,-0.5 488.5,-0.5"/>
<text text-anchor="middle" x="513.5" y="-7.5" font-family="Helvetica,sans-Serif" font-size="10.00">fstream</text>
</a>
</g>
</g>
<!-- Node1&#45;&gt;Node11 -->
<g id="edge10" class="edge">
<title>Node1&#45;&gt;Node11</title>
<path fill="none" stroke="midnightblue" d="M559.61,-168.28C557.36,-148.07 550.62,-96.67 536.5,-56 533.23,-46.57 528.32,-36.64 523.88,-28.51"/>
<polygon fill="midnightblue" stroke="midnightblue" points="526.82,-26.6 518.84,-19.64 520.74,-30.07 526.82,-26.6"/>
</g>
<!-- Node12 -->
<g id="node12" class="node">
<title>Node12</title>
<g id="a_node12"><a xlink:title=" ">
<polygon fill="white" stroke="#bfbfbf" points="744.5,-112.5 744.5,-131.5 790.5,-131.5 790.5,-112.5 744.5,-112.5"/>
<text text-anchor="middle" x="767.5" y="-119.5" font-family="Helvetica,sans-Serif" font-size="10.00">stdio.h</text>
</a>
</g>
</g>
<!-- Node1&#45;&gt;Node12 -->
<g id="edge11" class="edge">
<title>Node1&#45;&gt;Node12</title>
<path fill="none" stroke="midnightblue" d="M594.76,-168.43C628.09,-160.04 680.38,-146.74 734.65,-132.19"/>
<polygon fill="midnightblue" stroke="midnightblue" points="735.7,-135.53 744.45,-129.55 733.88,-128.77 735.7,-135.53"/>
</g>
<!-- Node13 -->
<g id="node13" class="node">
<title>Node13</title>
<g id="a_node13"><a xlink:title=" ">
<polygon fill="white" stroke="#bfbfbf" points="809,-112.5 809,-131.5 858,-131.5 858,-112.5 809,-112.5"/>
<text text-anchor="middle" x="833.5" y="-119.5" font-family="Helvetica,sans-Serif" font-size="10.00">string.h</text>
</a>
</g>
</g>
<!-- Node1&#45;&gt;Node13 -->
<g id="edge12" class="edge">
<title>Node1&#45;&gt;Node13</title>
<path fill="none" stroke="midnightblue" d="M611.54,-168.5C657.9,-160.52 728.37,-147.79 798.74,-132.04"/>
<polygon fill="midnightblue" stroke="midnightblue" points="799.69,-135.41 808.67,-129.8 798.14,-128.58 799.69,-135.41"/>
</g>
<!-- Node14 -->
<g id="node14" class="node">
<title>Node14</title>
<g id="a_node14"><a xlink:href="_mesh_adapt_p_u_m_i_8h.html" target="_top" xlink:title=" ">
<polygon fill="white" stroke="black" points="626.5,-112.5 626.5,-131.5 726.5,-131.5 726.5,-112.5 626.5,-112.5"/>
<text text-anchor="middle" x="676.5" y="-119.5" font-family="Helvetica,sans-Serif" font-size="10.00">MeshAdaptPUMI.h</text>
</a>
</g>
</g>
<!-- Node1&#45;&gt;Node14 -->
<g id="edge13" class="edge">
<title>Node1&#45;&gt;Node14</title>
<path fill="none" stroke="midnightblue" d="M578.88,-168.44C597.72,-159.68 627.23,-145.94 648.88,-135.86"/>
<polygon fill="midnightblue" stroke="midnightblue" points="650.62,-138.91 658.21,-131.52 647.66,-132.56 650.62,-138.91"/>
</g>
<!-- Node27 -->
<g id="node27" class="node">
<title>Node27</title>
<g id="a_node27"><a xlink:title=" ">
<polygon fill="white" stroke="#bfbfbf" points="876.5,-112.5 876.5,-131.5 920.5,-131.5 920.5,-112.5 876.5,-112.5"/>
<text text-anchor="middle" x="898.5" y="-119.5" font-family="Helvetica,sans-Serif" font-size="10.00">sam.h</text>
</a>
</g>
</g>
<!-- Node1&#45;&gt;Node27 -->
<g id="edge29" class="edge">
<title>Node1&#45;&gt;Node27</title>
<path fill="none" stroke="midnightblue" d="M618.64,-170.88C678.52,-164.04 774.65,-151.57 866.25,-132.02"/>
<polygon fill="midnightblue" stroke="midnightblue" points="867.21,-135.4 876.24,-129.86 865.73,-128.55 867.21,-135.4"/>
</g>
<!-- Node28 -->
<g id="node28" class="node">
<title>Node28</title>
<g id="a_node28"><a xlink:title=" ">
<polygon fill="white" stroke="#bfbfbf" points="938.5,-112.5 938.5,-131.5 994.5,-131.5 994.5,-112.5 938.5,-112.5"/>
<text text-anchor="middle" x="966.5" y="-119.5" font-family="Helvetica,sans-Serif" font-size="10.00">samSz.h</text>
</a>
</g>
</g>
<!-- Node1&#45;&gt;Node28 -->
<g id="edge30" class="edge">
<title>Node1&#45;&gt;Node28</title>
<path fill="none" stroke="midnightblue" d="M618.66,-172.03C689.57,-165.51 813.2,-152.6 928.25,-132.04"/>
<polygon fill="midnightblue" stroke="midnightblue" points="929.07,-135.45 938.29,-130.22 927.83,-128.56 929.07,-135.45"/>
</g>
<!-- Node29 -->
<g id="node29" class="node">
<title>Node29</title>
<g id="a_node29"><a xlink:title=" ">
<polygon fill="white" stroke="#bfbfbf" points="1012.5,-112.5 1012.5,-131.5 1078.5,-131.5 1078.5,-112.5 1012.5,-112.5"/>
<text text-anchor="middle" x="1045.5" y="-119.5" font-family="Helvetica,sans-Serif" font-size="10.00">apfShape.h</text>
</a>
</g>
</g>
<!-- Node1&#45;&gt;Node29 -->
<g id="edge31" class="edge">
<title>Node1&#45;&gt;Node29</title>
<path fill="none" stroke="midnightblue" d="M618.81,-173.13C701.79,-167.17 858.84,-154.21 1001.82,-132.11"/>
<polygon fill="midnightblue" stroke="midnightblue" points="1002.75,-135.51 1012.09,-130.51 1001.67,-128.59 1002.75,-135.51"/>
</g>
<!-- Node30 -->
<g id="node30" class="node">
<title>Node30</title>
<g id="a_node30"><a xlink:href="_py_embedded_functions_8h.html" target="_top" xlink:title=" ">
<polygon fill="white" stroke="black" points="1096.5,-112.5 1096.5,-131.5 1222.5,-131.5 1222.5,-112.5 1096.5,-112.5"/>
<text text-anchor="middle" x="1159.5" y="-119.5" font-family="Helvetica,sans-Serif" font-size="10.00">PyEmbeddedFunctions.h</text>
</a>
</g>
</g>
<!-- Node1&#45;&gt;Node30 -->
<g id="edge32" class="edge">
<title>Node1&#45;&gt;Node30</title>
<path fill="none" stroke="midnightblue" d="M618.67,-172.78C714.06,-165.7 909.97,-150.46 1086.32,-132.09"/>
<polygon fill="midnightblue" stroke="midnightblue" points="1086.72,-135.57 1096.3,-131.04 1085.99,-128.6 1086.72,-135.57"/>
</g>
<!-- Node14&#45;&gt;Node9 -->
<g id="edge25" class="edge">
<title>Node14&#45;&gt;Node9</title>
<path fill="none" stroke="midnightblue" d="M665.74,-112.32C655.73,-104.26 640.61,-92.08 628.57,-82.37"/>
<polygon fill="midnightblue" stroke="midnightblue" points="630.44,-79.38 620.46,-75.83 626.05,-84.83 630.44,-79.38"/>
</g>
<!-- Node15 -->
<g id="node15" class="node">
<title>Node15</title>
<g id="a_node15"><a xlink:href="mesh_8h.html" target="_top" xlink:title=" ">
<polygon fill="white" stroke="black" points="649,-56.5 649,-75.5 698,-75.5 698,-56.5 649,-56.5"/>
<text text-anchor="middle" x="673.5" y="-63.5" font-family="Helvetica,sans-Serif" font-size="10.00">mesh.h</text>
</a>
</g>
</g>
<!-- Node14&#45;&gt;Node15 -->
<g id="edge14" class="edge">
<title>Node14&#45;&gt;Node15</title>
<path fill="none" stroke="midnightblue" d="M676,-112.08C675.61,-105.01 675.05,-94.86 674.55,-85.99"/>
<polygon fill="midnightblue" stroke="midnightblue" points="678.04,-85.54 673.99,-75.75 671.05,-85.93 678.04,-85.54"/>
</g>
<!-- Node24 -->
<g id="node24" class="node">
<title>Node24</title>
<g id="a_node24"><a xlink:title=" ">
<polygon fill="white" stroke="#bfbfbf" points="716.5,-56.5 716.5,-75.5 784.5,-75.5 784.5,-56.5 716.5,-56.5"/>
<text text-anchor="middle" x="750.5" y="-63.5" font-family="Helvetica,sans-Serif" font-size="10.00">apfMesh2.h</text>
</a>
</g>
</g>
<!-- Node14&#45;&gt;Node24 -->
<g id="edge26" class="edge">
<title>Node14&#45;&gt;Node24</title>
<path fill="none" stroke="midnightblue" d="M688.39,-112.32C699.65,-104.11 716.79,-91.6 730.21,-81.81"/>
<polygon fill="midnightblue" stroke="midnightblue" points="732.38,-84.56 738.39,-75.83 728.25,-78.9 732.38,-84.56"/>
</g>
<!-- Node25 -->
<g id="node25" class="node">
<title>Node25</title>
<g id="a_node25"><a xlink:title=" ">
<polygon fill="white" stroke="#bfbfbf" points="802.5,-56.5 802.5,-75.5 888.5,-75.5 888.5,-56.5 802.5,-56.5"/>
<text text-anchor="middle" x="845.5" y="-63.5" font-family="Helvetica,sans-Serif" font-size="10.00">apfNumbering.h</text>
</a>
</g>
</g>
<!-- Node14&#45;&gt;Node25 -->
<g id="edge27" class="edge">
<title>Node14&#45;&gt;Node25</title>
<path fill="none" stroke="midnightblue" d="M703.28,-112.44C731.83,-103.32 777.23,-88.81 809.04,-78.65"/>
<polygon fill="midnightblue" stroke="midnightblue" points="810.39,-81.89 818.85,-75.52 808.26,-75.23 810.39,-81.89"/>
</g>
<!-- Node26 -->
<g id="node26" class="node">
<title>Node26</title>
<g id="a_node26"><a xlink:title=" ">
<polygon fill="white" stroke="#bfbfbf" points="907,-56.5 907,-75.5 950,-75.5 950,-56.5 907,-56.5"/>
<text text-anchor="middle" x="928.5" y="-63.5" font-family="Helvetica,sans-Serif" font-size="10.00">queue</text>
</a>
</g>
</g>
<!-- Node14&#45;&gt;Node26 -->
<g id="edge28" class="edge">
<title>Node14&#45;&gt;Node26</title>
<path fill="none" stroke="midnightblue" d="M724.17,-112.46C766.91,-104.54 831.5,-91.93 896.82,-76"/>
<polygon fill="midnightblue" stroke="midnightblue" points="898.01,-79.31 906.88,-73.52 896.33,-72.51 898.01,-79.31"/>
</g>
<!-- Node15&#45;&gt;Node10 -->
<g id="edge20" class="edge">
<title>Node15&#45;&gt;Node10</title>
<path fill="none" stroke="midnightblue" d="M648.73,-58.73C644.97,-57.81 641.13,-56.87 637.5,-56 570.46,-39.98 551.19,-36.98 480.46,-20.19"/>
<polygon fill="midnightblue" stroke="midnightblue" points="481.15,-16.76 470.61,-17.84 479.53,-23.57 481.15,-16.76"/>
</g>
<!-- Node15&#45;&gt;Node11 -->
<g id="edge22" class="edge">
<title>Node15&#45;&gt;Node11</title>
<path fill="none" stroke="midnightblue" d="M648.85,-56.68C621.99,-47.62 578.82,-33.04 548.46,-22.8"/>
<polygon fill="midnightblue" stroke="midnightblue" points="549.3,-19.39 538.71,-19.51 547.06,-26.02 549.3,-19.39"/>
</g>
<!-- Node16 -->
<g id="node16" class="node">
<title>Node16</title>
<g id="a_node16"><a xlink:title=" ">
<polygon fill="white" stroke="#bfbfbf" points="686.5,-0.5 686.5,-19.5 716.5,-19.5 716.5,-0.5 686.5,-0.5"/>
<text text-anchor="middle" x="701.5" y="-7.5" font-family="Helvetica,sans-Serif" font-size="10.00">set</text>
</a>
</g>
</g>
<!-- Node15&#45;&gt;Node16 -->
<g id="edge15" class="edge">
<title>Node15&#45;&gt;Node16</title>
<path fill="none" stroke="midnightblue" d="M678.12,-56.08C681.96,-48.69 687.52,-37.95 692.26,-28.81"/>
<polygon fill="midnightblue" stroke="midnightblue" points="695.47,-30.24 696.96,-19.75 689.25,-27.02 695.47,-30.24"/>
</g>
<!-- Node17 -->
<g id="node17" class="node">
<title>Node17</title>
<g id="a_node17"><a xlink:title=" ">
<polygon fill="white" stroke="#bfbfbf" points="734.5,-0.5 734.5,-19.5 778.5,-19.5 778.5,-0.5 734.5,-0.5"/>
<text text-anchor="middle" x="756.5" y="-7.5" font-family="Helvetica,sans-Serif" font-size="10.00">vector</text>
</a>
</g>
</g>
<!-- Node15&#45;&gt;Node17 -->
<g id="edge16" class="edge">
<title>Node15&#45;&gt;Node17</title>
<path fill="none" stroke="midnightblue" d="M686.84,-56.32C699.66,-47.98 719.28,-35.21 734.44,-25.35"/>
<polygon fill="midnightblue" stroke="midnightblue" points="736.72,-28.04 743.2,-19.65 732.91,-22.17 736.72,-28.04"/>
</g>
<!-- Node18 -->
<g id="node18" class="node">
<title>Node18</title>
<g id="a_node18"><a xlink:title=" ">
<polygon fill="white" stroke="#bfbfbf" points="796.5,-0.5 796.5,-19.5 852.5,-19.5 852.5,-0.5 796.5,-0.5"/>
<text text-anchor="middle" x="824.5" y="-7.5" font-family="Helvetica,sans-Serif" font-size="10.00">algorithm</text>
</a>
</g>
</g>
<!-- Node15&#45;&gt;Node18 -->
<g id="edge17" class="edge">
<title>Node15&#45;&gt;Node18</title>
<path fill="none" stroke="midnightblue" d="M697.43,-56.44C722.72,-47.4 762.8,-33.06 791.18,-22.92"/>
<polygon fill="midnightblue" stroke="midnightblue" points="792.45,-26.18 800.69,-19.52 790.09,-19.59 792.45,-26.18"/>
</g>
<!-- Node19 -->
<g id="node19" class="node">
<title>Node19</title>
<g id="a_node19"><a xlink:title=" ">
<polygon fill="white" stroke="#bfbfbf" points="871,-0.5 871,-19.5 906,-19.5 906,-0.5 871,-0.5"/>
<text text-anchor="middle" x="888.5" y="-7.5" font-family="Helvetica,sans-Serif" font-size="10.00">map</text>
</a>
</g>
</g>
<!-- Node15&#45;&gt;Node19 -->
<g id="edge18" class="edge">
<title>Node15&#45;&gt;Node19</title>
<path fill="none" stroke="midnightblue" d="M698.36,-58.33C701.44,-57.53 704.54,-56.74 707.5,-56 772.64,-39.77 792.13,-39.16 860.82,-19.97"/>
<polygon fill="midnightblue" stroke="midnightblue" points="862.18,-23.23 870.85,-17.14 860.28,-16.49 862.18,-23.23"/>
</g>
<!-- Node20 -->
<g id="node20" class="node">
<title>Node20</title>
<g id="a_node20"><a xlink:title=" ">
<polygon fill="white" stroke="#bfbfbf" points="924,-0.5 924,-19.5 953,-19.5 953,-0.5 924,-0.5"/>
<text text-anchor="middle" x="938.5" y="-7.5" font-family="Helvetica,sans-Serif" font-size="10.00">list</text>
</a>
</g>
</g>
<!-- Node15&#45;&gt;Node20 -->
<g id="edge19" class="edge">
<title>Node15&#45;&gt;Node20</title>
<path fill="none" stroke="midnightblue" d="M698.32,-58.16C701.4,-57.39 704.52,-56.65 707.5,-56 796.02,-36.66 823.28,-44.62 913.71,-20.08"/>
<polygon fill="midnightblue" stroke="midnightblue" points="914.85,-23.39 923.55,-17.35 912.98,-16.65 914.85,-23.39"/>
</g>
<!-- Node21 -->
<g id="node21" class="node">
<title>Node21</title>
<g id="a_node21"><a xlink:title=" ">
<polygon fill="white" stroke="#bfbfbf" points="971.5,-0.5 971.5,-19.5 1021.5,-19.5 1021.5,-0.5 971.5,-0.5"/>
<text text-anchor="middle" x="996.5" y="-7.5" font-family="Helvetica,sans-Serif" font-size="10.00">iomanip</text>
</a>
</g>
</g>
<!-- Node15&#45;&gt;Node21 -->
<g id="edge21" class="edge">
<title>Node15&#45;&gt;Node21</title>
<path fill="none" stroke="midnightblue" d="M698.3,-58.07C701.39,-57.32 704.51,-56.61 707.5,-56 816.51,-33.96 848.51,-42.18 961.26,-20.03"/>
<polygon fill="midnightblue" stroke="midnightblue" points="962.21,-23.41 971.33,-18.02 960.83,-16.55 962.21,-23.41"/>
</g>
<!-- Node22 -->
<g id="node22" class="node">
<title>Node22</title>
<g id="a_node22"><a xlink:title=" ">
<polygon fill="white" stroke="#bfbfbf" points="557,-0.5 557,-19.5 606,-19.5 606,-0.5 557,-0.5"/>
<text text-anchor="middle" x="581.5" y="-7.5" font-family="Helvetica,sans-Serif" font-size="10.00">cassert</text>
</a>
</g>
</g>
<!-- Node15&#45;&gt;Node22 -->
<g id="edge23" class="edge">
<title>Node15&#45;&gt;Node22</title>
<path fill="none" stroke="midnightblue" d="M658.72,-56.32C644.23,-47.82 621.93,-34.73 605.01,-24.8"/>
<polygon fill="midnightblue" stroke="midnightblue" points="606.64,-21.7 596.24,-19.65 603.1,-27.74 606.64,-21.7"/>
</g>
<!-- Node23 -->
<g id="node23" class="node">
<title>Node23</title>
<g id="a_node23"><a xlink:title=" ">
<polygon fill="white" stroke="#bfbfbf" points="624.5,-0.5 624.5,-19.5 668.5,-19.5 668.5,-0.5 624.5,-0.5"/>
<text text-anchor="middle" x="646.5" y="-7.5" font-family="Helvetica,sans-Serif" font-size="10.00">cmath</text>
</a>
</g>
</g>
<!-- Node15&#45;&gt;Node23 -->
<g id="edge24" class="edge">
<title>Node15&#45;&gt;Node23</title>
<path fill="none" stroke="midnightblue" d="M669.04,-56.08C665.35,-48.69 659.98,-37.95 655.41,-28.81"/>
<polygon fill="midnightblue" stroke="midnightblue" points="658.48,-27.13 650.88,-19.75 652.22,-30.26 658.48,-27.13"/>
</g>
<!-- Node31 -->
<g id="node31" class="node">
<title>Node31</title>
<g id="a_node31"><a xlink:title=" ">
<polygon fill="white" stroke="#bfbfbf" points="1131.5,-56.5 1131.5,-75.5 1187.5,-75.5 1187.5,-56.5 1131.5,-56.5"/>
<text text-anchor="middle" x="1159.5" y="-63.5" font-family="Helvetica,sans-Serif" font-size="10.00">Python.h</text>
</a>
</g>
</g>
<!-- Node30&#45;&gt;Node31 -->
<g id="edge33" class="edge">
<title>Node30&#45;&gt;Node31</title>
<path fill="none" stroke="midnightblue" d="M1159.5,-112.08C1159.5,-105.01 1159.5,-94.86 1159.5,-85.99"/>
<polygon fill="midnightblue" stroke="midnightblue" points="1163,-85.75 1159.5,-75.75 1156,-85.75 1163,-85.75"/>
</g>
</g>
</svg>
