<?xml version="1.0" encoding="UTF-8" standalone="no"?>
<!DOCTYPE svg PUBLIC "-//W3C//DTD SVG 1.1//EN"
 "http://www.w3.org/Graphics/SVG/1.1/DTD/svg11.dtd">
<!-- Generated by graphviz version 2.43.0 (0)
 -->
<!-- Title: cMeshAdaptPUMI.cpp Pages: 1 -->
<svg width="1290pt" height="196pt"
 viewBox="0.00 0.00 1290.00 196.00" xmlns="http://www.w3.org/2000/svg" xmlns:xlink="http://www.w3.org/1999/xlink">
<g id="graph0" class="graph" transform="scale(1 1) rotate(0) translate(4 192)">
<title>cMeshAdaptPUMI.cpp</title>
<polygon fill="white" stroke="transparent" points="-4,4 -4,-192 1286,-192 1286,4 -4,4"/>
<!-- Node1 -->
<g id="node1" class="node">
<title>Node1</title>
<g id="a_node1"><a xlink:title=" ">
<polygon fill="#bfbfbf" stroke="black" points="507,-168.5 507,-187.5 629,-187.5 629,-168.5 507,-168.5"/>
<text text-anchor="middle" x="568" y="-175.5" font-family="Helvetica,sans-Serif" font-size="10.00">cMeshAdaptPUMI.cpp</text>
</a>
</g>
</g>
<!-- Node2 -->
<g id="node2" class="node">
<title>Node2</title>
<g id="a_node2"><a xlink:title=" ">
<polygon fill="white" stroke="#bfbfbf" points="0,-112.5 0,-131.5 44,-131.5 44,-112.5 0,-112.5"/>
<text text-anchor="middle" x="22" y="-119.5" font-family="Helvetica,sans-Serif" font-size="10.00">gmi.h</text>
</a>
</g>
</g>
<!-- Node1&#45;&gt;Node2 -->
<g id="edge1" class="edge">
<title>Node1&#45;&gt;Node2</title>
<path fill="none" stroke="midnightblue" d="M506.83,-175.51C411.72,-172.36 222.68,-162.7 54.26,-131.88"/>
<polygon fill="midnightblue" stroke="midnightblue" points="54.7,-128.4 44.23,-130.02 53.42,-135.29 54.7,-128.4"/>
</g>
<!-- Node3 -->
<g id="node3" class="node">
<title>Node3</title>
<g id="a_node3"><a xlink:title=" ">
<polygon fill="white" stroke="#bfbfbf" points="62.5,-112.5 62.5,-131.5 139.5,-131.5 139.5,-112.5 62.5,-112.5"/>
<text text-anchor="middle" x="101" y="-119.5" font-family="Helvetica,sans-Serif" font-size="10.00">gmi_mesh.h</text>
</a>
</g>
</g>
<!-- Node1&#45;&gt;Node3 -->
<g id="edge2" class="edge">
<title>Node1&#45;&gt;Node3</title>
<path fill="none" stroke="midnightblue" d="M506.75,-171.94C426.95,-165 282.92,-151.34 149.71,-131.99"/>
<polygon fill="midnightblue" stroke="midnightblue" points="150.13,-128.52 139.73,-130.53 149.12,-135.44 150.13,-128.52"/>
</g>
<!-- Node4 -->
<g id="node4" class="node">
<title>Node4</title>
<g id="a_node4"><a xlink:title=" ">
<polygon fill="white" stroke="#bfbfbf" points="158,-112.5 158,-131.5 226,-131.5 226,-112.5 158,-112.5"/>
<text text-anchor="middle" x="192" y="-119.5" font-family="Helvetica,sans-Serif" font-size="10.00">gmi_null.h</text>
</a>
</g>
</g>
<!-- Node1&#45;&gt;Node4 -->
<g id="edge3" class="edge">
<title>Node1&#45;&gt;Node4</title>
<path fill="none" stroke="midnightblue" d="M506.73,-170.06C441.93,-162.42 336.5,-149.13 236.22,-132.11"/>
<polygon fill="midnightblue" stroke="midnightblue" points="236.67,-128.63 226.23,-130.4 235.49,-135.53 236.67,-128.63"/>
</g>
<!-- Node5 -->
<g id="node5" class="node">
<title>Node5</title>
<g id="a_node5"><a xlink:title=" ">
<polygon fill="white" stroke="#bfbfbf" points="244.5,-112.5 244.5,-131.5 285.5,-131.5 285.5,-112.5 244.5,-112.5"/>
<text text-anchor="middle" x="265" y="-119.5" font-family="Helvetica,sans-Serif" font-size="10.00">ma.h</text>
</a>
</g>
</g>
<!-- Node1&#45;&gt;Node5 -->
<g id="edge4" class="edge">
<title>Node1&#45;&gt;Node5</title>
<path fill="none" stroke="midnightblue" d="M506.85,-169.42C453.3,-162.23 373.26,-150.13 295.74,-132.17"/>
<polygon fill="midnightblue" stroke="midnightblue" points="296.35,-128.72 285.81,-129.84 294.75,-135.53 296.35,-128.72"/>
</g>
<!-- Node6 -->
<g id="node6" class="node">
<title>Node6</title>
<g id="a_node6"><a xlink:title=" ">
<polygon fill="white" stroke="#bfbfbf" points="303.5,-112.5 303.5,-131.5 374.5,-131.5 374.5,-112.5 303.5,-112.5"/>
<text text-anchor="middle" x="339" y="-119.5" font-family="Helvetica,sans-Serif" font-size="10.00">maShape.h</text>
</a>
</g>
</g>
<!-- Node1&#45;&gt;Node6 -->
<g id="edge5" class="edge">
<title>Node1&#45;&gt;Node6</title>
<path fill="none" stroke="midnightblue" d="M531.71,-168.44C491.9,-159.06 427.92,-143.97 384.71,-133.78"/>
<polygon fill="midnightblue" stroke="midnightblue" points="385.28,-130.32 374.74,-131.43 383.67,-137.13 385.28,-130.32"/>
</g>
<!-- Node7 -->
<g id="node7" class="node">
<title>Node7</title>
<g id="a_node7"><a xlink:title=" ">
<polygon fill="white" stroke="#bfbfbf" points="393,-112.5 393,-131.5 457,-131.5 457,-112.5 393,-112.5"/>
<text text-anchor="middle" x="425" y="-119.5" font-family="Helvetica,sans-Serif" font-size="10.00">apfMDS.h</text>
</a>
</g>
</g>
<!-- Node1&#45;&gt;Node7 -->
<g id="edge6" class="edge">
<title>Node1&#45;&gt;Node7</title>
<path fill="none" stroke="midnightblue" d="M545.34,-168.44C521.6,-159.48 484.09,-145.31 457.26,-135.18"/>
<polygon fill="midnightblue" stroke="midnightblue" points="458.14,-131.77 447.55,-131.52 455.67,-138.32 458.14,-131.77"/>
</g>
<!-- Node8 -->
<g id="node8" class="node">
<title>Node8</title>
<g id="a_node8"><a xlink:title=" ">
<polygon fill="white" stroke="#bfbfbf" points="475,-112.5 475,-131.5 521,-131.5 521,-112.5 475,-112.5"/>
<text text-anchor="middle" x="498" y="-119.5" font-family="Helvetica,sans-Serif" font-size="10.00">PCU.h</text>
</a>
</g>
</g>
<!-- Node1&#45;&gt;Node8 -->
<g id="edge7" class="edge">
<title>Node1&#45;&gt;Node8</title>
<path fill="none" stroke="midnightblue" d="M556.75,-168.32C546.2,-160.18 530.2,-147.84 517.56,-138.09"/>
<polygon fill="midnightblue" stroke="midnightblue" points="519.51,-135.17 509.45,-131.83 515.23,-140.71 519.51,-135.17"/>
</g>
<!-- Node9 -->
<g id="node9" class="node">
<title>Node9</title>
<g id="a_node9"><a xlink:title=" ">
<polygon fill="white" stroke="#bfbfbf" points="417.5,-56.5 417.5,-75.5 458.5,-75.5 458.5,-56.5 417.5,-56.5"/>
<text text-anchor="middle" x="438" y="-63.5" font-family="Helvetica,sans-Serif" font-size="10.00">apf.h</text>
</a>
</g>
</g>
<!-- Node1&#45;&gt;Node9 -->
<g id="edge8" class="edge">
<title>Node1&#45;&gt;Node9</title>
<path fill="none" stroke="midnightblue" d="M570.03,-168.4C572.68,-154.9 575.62,-128.57 563,-112 559.98,-108.04 504.11,-88.93 468.1,-76.92"/>
<polygon fill="midnightblue" stroke="midnightblue" points="469.12,-73.57 458.53,-73.74 466.91,-80.22 469.12,-73.57"/>
</g>
<!-- Node10 -->
<g id="node10" class="node">
<title>Node10</title>
<g id="a_node10"><a xlink:title=" ">
<polygon fill="white" stroke="#bfbfbf" points="398,-0.5 398,-19.5 458,-19.5 458,-0.5 398,-0.5"/>
<text text-anchor="middle" x="428" y="-7.5" font-family="Helvetica,sans-Serif" font-size="10.00">iostream</text>
</a>
</g>
</g>
<!-- Node1&#45;&gt;Node10 -->
<g id="edge9" class="edge">
<title>Node1&#45;&gt;Node10</title>
<path fill="none" stroke="midnightblue" d="M565.32,-168.44C560.53,-154.51 549.14,-126.99 530,-112 485.49,-77.14 441.85,-121.28 408,-76 397.45,-61.88 406,-42.12 414.97,-28.11"/>
<polygon fill="midnightblue" stroke="midnightblue" points="417.89,-30.05 420.73,-19.84 412.14,-26.05 417.89,-30.05"/>
</g>
<!-- Node11 -->
<g id="node11" class="node">
<title>Node11</title>
<g id="a_node11"><a xlink:title=" ">
<polygon fill="white" stroke="#bfbfbf" points="712.5,-0.5 712.5,-19.5 767.5,-19.5 767.5,-0.5 712.5,-0.5"/>
<text text-anchor="middle" x="740" y="-7.5" font-family="Helvetica,sans-Serif" font-size="10.00">fstream</text>
</a>
</g>
</g>
<!-- Node1&#45;&gt;Node11 -->
<g id="edge10" class="edge">
<title>Node1&#45;&gt;Node11</title>
<path fill="none" stroke="midnightblue" d="M607.72,-168.47C641,-160.74 689.44,-148.09 730,-132 747.74,-124.96 750.29,-119.12 768,-112 821.64,-90.42 858.23,-122.19 893,-76 898.35,-68.9 898.33,-63.12 893,-56 889.43,-51.23 821.52,-32.54 777.38,-20.8"/>
<polygon fill="midnightblue" stroke="midnightblue" points="778.11,-17.37 767.54,-18.19 776.31,-24.13 778.11,-17.37"/>
</g>
<!-- Node12 -->
<g id="node12" class="node">
<title>Node12</title>
<g id="a_node12"><a xlink:title=" ">
<polygon fill="white" stroke="#bfbfbf" points="777,-112.5 777,-131.5 827,-131.5 827,-112.5 777,-112.5"/>
<text text-anchor="middle" x="802" y="-119.5" font-family="Helvetica,sans-Serif" font-size="10.00">stdio.h</text>
</a>
</g>
</g>
<!-- Node1&#45;&gt;Node12 -->
<g id="edge11" class="edge">
<title>Node1&#45;&gt;Node12</title>
<path fill="none" stroke="midnightblue" d="M605.08,-168.44C649.58,-158.17 723.63,-141.09 767.13,-131.05"/>
<polygon fill="midnightblue" stroke="midnightblue" points="768.01,-134.44 776.97,-128.78 766.44,-127.62 768.01,-134.44"/>
</g>
<!-- Node13 -->
<g id="node13" class="node">
<title>Node13</title>
<g id="a_node13"><a xlink:title=" ">
<polygon fill="white" stroke="#bfbfbf" points="845.5,-112.5 845.5,-131.5 898.5,-131.5 898.5,-112.5 845.5,-112.5"/>
<text text-anchor="middle" x="872" y="-119.5" font-family="Helvetica,sans-Serif" font-size="10.00">string.h</text>
</a>
</g>
</g>
<!-- Node1&#45;&gt;Node13 -->
<g id="edge12" class="edge">
<title>Node1&#45;&gt;Node13</title>
<path fill="none" stroke="midnightblue" d="M626.8,-168.49C679.03,-160.62 757.64,-148.02 835.35,-131.99"/>
<polygon fill="midnightblue" stroke="midnightblue" points="836.24,-135.38 845.32,-129.92 834.81,-128.53 836.24,-135.38"/>
</g>
<!-- Node14 -->
<g id="node14" class="node">
<title>Node14</title>
<g id="a_node14"><a xlink:href="_mesh_adapt_p_u_m_i_8h.html" target="_top" xlink:title=" ">
<polygon fill="white" stroke="black" points="615,-112.5 615,-131.5 721,-131.5 721,-112.5 615,-112.5"/>
<text text-anchor="middle" x="668" y="-119.5" font-family="Helvetica,sans-Serif" font-size="10.00">MeshAdaptPUMI.h</text>
</a>
</g>
</g>
<!-- Node1&#45;&gt;Node14 -->
<g id="edge13" class="edge">
<title>Node1&#45;&gt;Node14</title>
<path fill="none" stroke="midnightblue" d="M584.07,-168.32C599.96,-159.74 624.51,-146.49 642.96,-136.52"/>
<polygon fill="midnightblue" stroke="midnightblue" points="644.84,-139.49 651.97,-131.65 641.51,-133.33 644.84,-139.49"/>
</g>
<!-- Node29 -->
<g id="node29" class="node">
<title>Node29</title>
<g id="a_node29"><a xlink:title=" ">
<polygon fill="white" stroke="#bfbfbf" points="916.5,-112.5 916.5,-131.5 963.5,-131.5 963.5,-112.5 916.5,-112.5"/>
<text text-anchor="middle" x="940" y="-119.5" font-family="Helvetica,sans-Serif" font-size="10.00">sam.h</text>
</a>
</g>
</g>
<!-- Node1&#45;&gt;Node29 -->
<g id="edge31" class="edge">
<title>Node1&#45;&gt;Node29</title>
<path fill="none" stroke="midnightblue" d="M629.24,-171.55C695.52,-165.06 804.41,-152.66 906.47,-132.08"/>
<polygon fill="midnightblue" stroke="midnightblue" points="907.23,-135.5 916.33,-130.06 905.83,-128.64 907.23,-135.5"/>
</g>
<!-- Node30 -->
<g id="node30" class="node">
<title>Node30</title>
<g id="a_node30"><a xlink:title=" ">
<polygon fill="white" stroke="#bfbfbf" points="982,-112.5 982,-131.5 1040,-131.5 1040,-112.5 982,-112.5"/>
<text text-anchor="middle" x="1011" y="-119.5" font-family="Helvetica,sans-Serif" font-size="10.00">samSz.h</text>
</a>
</g>
</g>
<!-- Node1&#45;&gt;Node30 -->
<g id="edge32" class="edge">
<title>Node1&#45;&gt;Node30</title>
<path fill="none" stroke="midnightblue" d="M629.05,-172.55C706.59,-166.38 844.65,-153.66 971.71,-132.04"/>
<polygon fill="midnightblue" stroke="midnightblue" points="972.35,-135.48 981.61,-130.33 971.17,-128.58 972.35,-135.48"/>
</g>
<!-- Node31 -->
<g id="node31" class="node">
<title>Node31</title>
<g id="a_node31"><a xlink:title=" ">
<polygon fill="white" stroke="#bfbfbf" points="1058.5,-112.5 1058.5,-131.5 1129.5,-131.5 1129.5,-112.5 1058.5,-112.5"/>
<text text-anchor="middle" x="1094" y="-119.5" font-family="Helvetica,sans-Serif" font-size="10.00">apfShape.h</text>
</a>
</g>
</g>
<!-- Node1&#45;&gt;Node31 -->
<g id="edge33" class="edge">
<title>Node1&#45;&gt;Node31</title>
<path fill="none" stroke="midnightblue" d="M629.37,-173.31C719.06,-167.47 891.39,-154.53 1047.91,-132.01"/>
<polygon fill="midnightblue" stroke="midnightblue" points="1048.81,-135.41 1058.2,-130.51 1047.8,-128.49 1048.81,-135.41"/>
</g>
<!-- Node14&#45;&gt;Node9 -->
<g id="edge25" class="edge">
<title>Node14&#45;&gt;Node9</title>
<path fill="none" stroke="midnightblue" d="M626.04,-112.45C587.49,-104.4 528.58,-91.6 468.29,-75.93"/>
<polygon fill="midnightblue" stroke="midnightblue" points="469.16,-72.54 458.6,-73.39 467.39,-79.31 469.16,-72.54"/>
</g>
<!-- Node15 -->
<g id="node15" class="node">
<title>Node15</title>
<g id="a_node15"><a xlink:href="mesh_8h.html" target="_top" xlink:title=" ">
<polygon fill="white" stroke="black" points="940.5,-56.5 940.5,-75.5 993.5,-75.5 993.5,-56.5 940.5,-56.5"/>
<text text-anchor="middle" x="967" y="-63.5" font-family="Helvetica,sans-Serif" font-size="10.00">mesh.h</text>
</a>
</g>
</g>
<!-- Node14&#45;&gt;Node15 -->
<g id="edge14" class="edge">
<title>Node14&#45;&gt;Node15</title>
<path fill="none" stroke="midnightblue" d="M715.38,-112.44C774.97,-101.68 876.02,-83.43 930.16,-73.65"/>
<polygon fill="midnightblue" stroke="midnightblue" points="931.11,-77.04 940.33,-71.82 929.87,-70.15 931.11,-77.04"/>
</g>
<!-- Node24 -->
<g id="node24" class="node">
<title>Node24</title>
<g id="a_node24"><a xlink:title=" ">
<polygon fill="white" stroke="#bfbfbf" points="631,-56.5 631,-75.5 705,-75.5 705,-56.5 631,-56.5"/>
<text text-anchor="middle" x="668" y="-63.5" font-family="Helvetica,sans-Serif" font-size="10.00">apfMesh2.h</text>
</a>
</g>
</g>
<!-- Node14&#45;&gt;Node24 -->
<g id="edge26" class="edge">
<title>Node14&#45;&gt;Node24</title>
<path fill="none" stroke="midnightblue" d="M668,-112.08C668,-105.01 668,-94.86 668,-85.99"/>
<polygon fill="midnightblue" stroke="midnightblue" points="671.5,-85.75 668,-75.75 664.5,-85.75 671.5,-85.75"/>
</g>
<!-- Node25 -->
<g id="node25" class="node">
<title>Node25</title>
<g id="a_node25"><a xlink:title=" ">
<polygon fill="white" stroke="#bfbfbf" points="723.5,-56.5 723.5,-75.5 818.5,-75.5 818.5,-56.5 723.5,-56.5"/>
<text text-anchor="middle" x="771" y="-63.5" font-family="Helvetica,sans-Serif" font-size="10.00">apfNumbering.h</text>
</a>
</g>
</g>
<!-- Node14&#45;&gt;Node25 -->
<g id="edge27" class="edge">
<title>Node14&#45;&gt;Node25</title>
<path fill="none" stroke="midnightblue" d="M684.55,-112.32C700.99,-103.7 726.43,-90.36 745.47,-80.39"/>
<polygon fill="midnightblue" stroke="midnightblue" points="747.26,-83.4 754.49,-75.65 744.01,-77.2 747.26,-83.4"/>
</g>
<!-- Node26 -->
<g id="node26" class="node">
<title>Node26</title>
<g id="a_node26"><a xlink:title=" ">
<polygon fill="white" stroke="#bfbfbf" points="836.5,-56.5 836.5,-75.5 883.5,-75.5 883.5,-56.5 836.5,-56.5"/>
<text text-anchor="middle" x="860" y="-63.5" font-family="Helvetica,sans-Serif" font-size="10.00">queue</text>
</a>
</g>
</g>
<!-- Node14&#45;&gt;Node26 -->
<g id="edge28" class="edge">
<title>Node14&#45;&gt;Node26</title>
<path fill="none" stroke="midnightblue" d="M698.42,-112.44C733.26,-102.65 790.17,-86.64 826.32,-76.47"/>
<polygon fill="midnightblue" stroke="midnightblue" points="827.7,-79.72 836.38,-73.64 825.8,-72.98 827.7,-79.72"/>
</g>
<!-- Node27 -->
<g id="node27" class="node">
<title>Node27</title>
<g id="a_node27"><a xlink:href="_py_embedded_functions_8h.html" target="_top" xlink:title=" ">
<polygon fill="white" stroke="black" points="477,-56.5 477,-75.5 613,-75.5 613,-56.5 477,-56.5"/>
<text text-anchor="middle" x="545" y="-63.5" font-family="Helvetica,sans-Serif" font-size="10.00">PyEmbeddedFunctions.h</text>
</a>
</g>
</g>
<!-- Node14&#45;&gt;Node27 -->
<g id="edge29" class="edge">
<title>Node14&#45;&gt;Node27</title>
<path fill="none" stroke="midnightblue" d="M648.51,-112.44C628.36,-103.6 596.68,-89.69 573.67,-79.59"/>
<polygon fill="midnightblue" stroke="midnightblue" points="574.96,-76.33 564.4,-75.52 572.15,-82.74 574.96,-76.33"/>
</g>
<!-- Node15&#45;&gt;Node10 -->
<g id="edge20" class="edge">
<title>Node15&#45;&gt;Node10</title>
<path fill="none" stroke="midnightblue" d="M940.3,-61.57C926.24,-59.81 908.7,-57.68 893,-56 721.24,-37.57 677.81,-37.9 506,-20 493.84,-18.73 480.62,-17.25 468.58,-15.85"/>
<polygon fill="midnightblue" stroke="midnightblue" points="468.7,-12.34 458.36,-14.66 467.88,-19.3 468.7,-12.34"/>
</g>
<!-- Node15&#45;&gt;Node11 -->
<g id="edge22" class="edge">
<title>Node15&#45;&gt;Node11</title>
<path fill="none" stroke="midnightblue" d="M940.24,-58.72C905.25,-50.49 841.77,-35.52 777.74,-20.17"/>
<polygon fill="midnightblue" stroke="midnightblue" points="778.42,-16.73 767.88,-17.8 776.78,-23.54 778.42,-16.73"/>
</g>
<!-- Node16 -->
<g id="node16" class="node">
<title>Node16</title>
<g id="a_node16"><a xlink:title=" ">
<polygon fill="white" stroke="#bfbfbf" points="922,-0.5 922,-19.5 954,-19.5 954,-0.5 922,-0.5"/>
<text text-anchor="middle" x="938" y="-7.5" font-family="Helvetica,sans-Serif" font-size="10.00">set</text>
</a>
</g>
</g>
<!-- Node15&#45;&gt;Node16 -->
<g id="edge15" class="edge">
<title>Node15&#45;&gt;Node16</title>
<path fill="none" stroke="midnightblue" d="M962.21,-56.08C958.24,-48.69 952.47,-37.95 947.57,-28.81"/>
<polygon fill="midnightblue" stroke="midnightblue" points="950.51,-26.91 942.7,-19.75 944.35,-30.22 950.51,-26.91"/>
</g>
<!-- Node17 -->
<g id="node17" class="node">
<title>Node17</title>
<g id="a_node17"><a xlink:title=" ">
<polygon fill="white" stroke="#bfbfbf" points="972.5,-0.5 972.5,-19.5 1019.5,-19.5 1019.5,-0.5 972.5,-0.5"/>
<text text-anchor="middle" x="996" y="-7.5" font-family="Helvetica,sans-Serif" font-size="10.00">vector</text>
</a>
</g>
</g>
<!-- Node15&#45;&gt;Node17 -->
<g id="edge16" class="edge">
<title>Node15&#45;&gt;Node17</title>
<path fill="none" stroke="midnightblue" d="M971.79,-56.08C975.76,-48.69 981.53,-37.95 986.43,-28.81"/>
<polygon fill="midnightblue" stroke="midnightblue" points="989.65,-30.22 991.3,-19.75 983.49,-26.91 989.65,-30.22"/>
</g>
<!-- Node18 -->
<g id="node18" class="node">
<title>Node18</title>
<g id="a_node18"><a xlink:title=" ">
<polygon fill="white" stroke="#bfbfbf" points="1038,-0.5 1038,-19.5 1102,-19.5 1102,-0.5 1038,-0.5"/>
<text text-anchor="middle" x="1070" y="-7.5" font-family="Helvetica,sans-Serif" font-size="10.00">algorithm</text>
</a>
</g>
</g>
<!-- Node15&#45;&gt;Node18 -->
<g id="edge17" class="edge">
<title>Node15&#45;&gt;Node18</title>
<path fill="none" stroke="midnightblue" d="M983.55,-56.32C999.99,-47.7 1025.43,-34.36 1044.47,-24.39"/>
<polygon fill="midnightblue" stroke="midnightblue" points="1046.26,-27.4 1053.49,-19.65 1043.01,-21.2 1046.26,-27.4"/>
</g>
<!-- Node19 -->
<g id="node19" class="node">
<title>Node19</title>
<g id="a_node19"><a xlink:title=" ">
<polygon fill="white" stroke="#bfbfbf" points="1120,-0.5 1120,-19.5 1158,-19.5 1158,-0.5 1120,-0.5"/>
<text text-anchor="middle" x="1139" y="-7.5" font-family="Helvetica,sans-Serif" font-size="10.00">map</text>
</a>
</g>
</g>
<!-- Node15&#45;&gt;Node19 -->
<g id="edge18" class="edge">
<title>Node15&#45;&gt;Node19</title>
<path fill="none" stroke="midnightblue" d="M993.56,-56.77C1020.61,-48.37 1064,-34.86 1110.15,-20.25"/>
<polygon fill="midnightblue" stroke="midnightblue" points="1111.25,-23.58 1119.73,-17.22 1109.14,-16.9 1111.25,-23.58"/>
</g>
<!-- Node20 -->
<g id="node20" class="node">
<title>Node20</title>
<g id="a_node20"><a xlink:title=" ">
<polygon fill="white" stroke="#bfbfbf" points="1176,-0.5 1176,-19.5 1208,-19.5 1208,-0.5 1176,-0.5"/>
<text text-anchor="middle" x="1192" y="-7.5" font-family="Helvetica,sans-Serif" font-size="10.00">list</text>
</a>
</g>
</g>
<!-- Node15&#45;&gt;Node20 -->
<g id="edge19" class="edge">
<title>Node15&#45;&gt;Node20</title>
<path fill="none" stroke="midnightblue" d="M993.8,-60.07C1030.61,-53.06 1099.03,-39.2 1166.08,-19.98"/>
<polygon fill="midnightblue" stroke="midnightblue" points="1167.33,-23.26 1175.96,-17.11 1165.38,-16.54 1167.33,-23.26"/>
</g>
<!-- Node21 -->
<g id="node21" class="node">
<title>Node21</title>
<g id="a_node21"><a xlink:title=" ">
<polygon fill="white" stroke="#bfbfbf" points="1226,-0.5 1226,-19.5 1282,-19.5 1282,-0.5 1226,-0.5"/>
<text text-anchor="middle" x="1254" y="-7.5" font-family="Helvetica,sans-Serif" font-size="10.00">iomanip</text>
</a>
</g>
</g>
<!-- Node15&#45;&gt;Node21 -->
<g id="edge21" class="edge">
<title>Node15&#45;&gt;Node21</title>
<path fill="none" stroke="midnightblue" d="M993.74,-60.73C1037.89,-53.57 1129.01,-38.29 1215.75,-20.16"/>
<polygon fill="midnightblue" stroke="midnightblue" points="1216.69,-23.54 1225.76,-18.06 1215.25,-16.69 1216.69,-23.54"/>
</g>
<!-- Node22 -->
<g id="node22" class="node">
<title>Node22</title>
<g id="a_node22"><a xlink:title=" ">
<polygon fill="white" stroke="#bfbfbf" points="786,-0.5 786,-19.5 838,-19.5 838,-0.5 786,-0.5"/>
<text text-anchor="middle" x="812" y="-7.5" font-family="Helvetica,sans-Serif" font-size="10.00">cassert</text>
</a>
</g>
</g>
<!-- Node15&#45;&gt;Node22 -->
<g id="edge23" class="edge">
<title>Node15&#45;&gt;Node22</title>
<path fill="none" stroke="midnightblue" d="M942.44,-56.44C916.48,-47.4 875.33,-33.06 846.2,-22.92"/>
<polygon fill="midnightblue" stroke="midnightblue" points="847.04,-19.5 836.45,-19.52 844.74,-26.11 847.04,-19.5"/>
</g>
<!-- Node23 -->
<g id="node23" class="node">
<title>Node23</title>
<g id="a_node23"><a xlink:title=" ">
<polygon fill="white" stroke="#bfbfbf" points="856.5,-0.5 856.5,-19.5 903.5,-19.5 903.5,-0.5 856.5,-0.5"/>
<text text-anchor="middle" x="880" y="-7.5" font-family="Helvetica,sans-Serif" font-size="10.00">cmath</text>
</a>
</g>
</g>
<!-- Node15&#45;&gt;Node23 -->
<g id="edge24" class="edge">
<title>Node15&#45;&gt;Node23</title>
<path fill="none" stroke="midnightblue" d="M953.02,-56.32C939.45,-47.9 918.62,-34.97 902.68,-25.07"/>
<polygon fill="midnightblue" stroke="midnightblue" points="904.29,-21.95 893.94,-19.65 900.59,-27.9 904.29,-21.95"/>
</g>
<!-- Node28 -->
<g id="node28" class="node">
<title>Node28</title>
<g id="a_node28"><a xlink:title=" ">
<polygon fill="white" stroke="#bfbfbf" points="515.5,-0.5 515.5,-19.5 574.5,-19.5 574.5,-0.5 515.5,-0.5"/>
<text text-anchor="middle" x="545" y="-7.5" font-family="Helvetica,sans-Serif" font-size="10.00">Python.h</text>
</a>
</g>
</g>
<!-- Node27&#45;&gt;Node28 -->
<g id="edge30" class="edge">
<title>Node27&#45;&gt;Node28</title>
<path fill="none" stroke="midnightblue" d="M545,-56.08C545,-49.01 545,-38.86 545,-29.99"/>
<polygon fill="midnightblue" stroke="midnightblue" points="548.5,-29.75 545,-19.75 541.5,-29.75 548.5,-29.75"/>
</g>
</g>
</svg>
