<?xml version="1.0" encoding="UTF-8" standalone="no"?>
<!DOCTYPE svg PUBLIC "-//W3C//DTD SVG 1.1//EN"
 "http://www.w3.org/Graphics/SVG/1.1/DTD/svg11.dtd">
<!-- Generated by graphviz version 2.50.0 (20211204.2007)
 -->
<!-- Title: cMeshAdaptPUMI.cpp Pages: 1 -->
<svg width="1220pt" height="196pt"
 viewBox="0.00 0.00 1219.50 196.00" xmlns="http://www.w3.org/2000/svg" xmlns:xlink="http://www.w3.org/1999/xlink">
<g id="graph0" class="graph" transform="scale(1 1) rotate(0) translate(4 192)">
<title>cMeshAdaptPUMI.cpp</title>
<polygon fill="white" stroke="transparent" points="-4,4 -4,-192 1215.5,-192 1215.5,4 -4,4"/>
<!-- Node1 -->
<g id="node1" class="node">
<title>Node1</title>
<g id="a_node1"><a xlink:title=" ">
<polygon fill="#bfbfbf" stroke="black" points="483.5,-168.5 483.5,-187.5 599.5,-187.5 599.5,-168.5 483.5,-168.5"/>
<text text-anchor="middle" x="541.5" y="-175.5" font-family="Helvetica,sans-Serif" font-size="10.00">cMeshAdaptPUMI.cpp</text>
</a>
</g>
</g>
<!-- Node2 -->
<g id="node2" class="node">
<title>Node2</title>
<g id="a_node2"><a xlink:title=" ">
<polygon fill="white" stroke="#bfbfbf" points="0,-112.5 0,-131.5 41,-131.5 41,-112.5 0,-112.5"/>
<text text-anchor="middle" x="20.5" y="-119.5" font-family="Helvetica,sans-Serif" font-size="10.00">gmi.h</text>
</a>
</g>
</g>
<!-- Node1&#45;&gt;Node2 -->
<g id="edge1" class="edge">
<title>Node1&#45;&gt;Node2</title>
<path fill="none" stroke="midnightblue" d="M483.15,-175.42C392.52,-172.14 212.5,-162.34 51.13,-131.7"/>
<polygon fill="midnightblue" stroke="midnightblue" points="51.5,-128.21 41.02,-129.75 50.18,-135.08 51.5,-128.21"/>
</g>
<!-- Node3 -->
<g id="node3" class="node">
<title>Node3</title>
<g id="a_node3"><a xlink:title=" ">
<polygon fill="white" stroke="#bfbfbf" points="59.5,-112.5 59.5,-131.5 129.5,-131.5 129.5,-112.5 59.5,-112.5"/>
<text text-anchor="middle" x="94.5" y="-119.5" font-family="Helvetica,sans-Serif" font-size="10.00">gmi_mesh.h</text>
</a>
</g>
</g>
<!-- Node1&#45;&gt;Node3 -->
<g id="edge2" class="edge">
<title>Node1&#45;&gt;Node3</title>
<path fill="none" stroke="midnightblue" d="M483.22,-172.16C406.65,-165.43 267.82,-151.96 139.52,-132.03"/>
<polygon fill="midnightblue" stroke="midnightblue" points="139.93,-128.55 129.51,-130.46 138.85,-135.47 139.93,-128.55"/>
</g>
<!-- Node4 -->
<g id="node4" class="node">
<title>Node4</title>
<g id="a_node4"><a xlink:title=" ">
<polygon fill="white" stroke="#bfbfbf" points="148,-112.5 148,-131.5 209,-131.5 209,-112.5 148,-112.5"/>
<text text-anchor="middle" x="178.5" y="-119.5" font-family="Helvetica,sans-Serif" font-size="10.00">gmi_null.h</text>
</a>
</g>
</g>
<!-- Node1&#45;&gt;Node4 -->
<g id="edge3" class="edge">
<title>Node1&#45;&gt;Node4</title>
<path fill="none" stroke="midnightblue" d="M483.21,-170.35C420.5,-162.87 317.66,-149.65 219.15,-131.98"/>
<polygon fill="midnightblue" stroke="midnightblue" points="219.49,-128.48 209.02,-130.14 218.24,-135.37 219.49,-128.48"/>
</g>
<!-- Node5 -->
<g id="node5" class="node">
<title>Node5</title>
<g id="a_node5"><a xlink:title=" ">
<polygon fill="white" stroke="#bfbfbf" points="227.5,-112.5 227.5,-131.5 265.5,-131.5 265.5,-112.5 227.5,-112.5"/>
<text text-anchor="middle" x="246.5" y="-119.5" font-family="Helvetica,sans-Serif" font-size="10.00">ma.h</text>
</a>
</g>
</g>
<!-- Node1&#45;&gt;Node5 -->
<g id="edge4" class="edge">
<title>Node1&#45;&gt;Node5</title>
<path fill="none" stroke="midnightblue" d="M483.46,-169.68C431.27,-162.54 352.43,-150.38 275.53,-131.96"/>
<polygon fill="midnightblue" stroke="midnightblue" points="276.22,-128.53 265.68,-129.57 274.56,-135.33 276.22,-128.53"/>
</g>
<!-- Node6 -->
<g id="node6" class="node">
<title>Node6</title>
<g id="a_node6"><a xlink:title=" ">
<polygon fill="white" stroke="#bfbfbf" points="283.5,-112.5 283.5,-131.5 349.5,-131.5 349.5,-112.5 283.5,-112.5"/>
<text text-anchor="middle" x="316.5" y="-119.5" font-family="Helvetica,sans-Serif" font-size="10.00">maShape.h</text>
</a>
</g>
</g>
<!-- Node1&#45;&gt;Node6 -->
<g id="edge5" class="edge">
<title>Node1&#45;&gt;Node6</title>
<path fill="none" stroke="midnightblue" d="M505.85,-168.44C466.16,-158.92 402.02,-143.52 359.56,-133.33"/>
<polygon fill="midnightblue" stroke="midnightblue" points="360.33,-129.92 349.78,-130.99 358.69,-136.73 360.33,-129.92"/>
</g>
<!-- Node7 -->
<g id="node7" class="node">
<title>Node7</title>
<g id="a_node7"><a xlink:title=" ">
<polygon fill="white" stroke="#bfbfbf" points="368,-112.5 368,-131.5 429,-131.5 429,-112.5 368,-112.5"/>
<text text-anchor="middle" x="398.5" y="-119.5" font-family="Helvetica,sans-Serif" font-size="10.00">apfMDS.h</text>
</a>
</g>
</g>
<!-- Node1&#45;&gt;Node7 -->
<g id="edge6" class="edge">
<title>Node1&#45;&gt;Node7</title>
<path fill="none" stroke="midnightblue" d="M518.84,-168.44C495.1,-159.48 457.59,-145.31 430.76,-135.18"/>
<polygon fill="midnightblue" stroke="midnightblue" points="431.64,-131.77 421.05,-131.52 429.17,-138.32 431.64,-131.77"/>
</g>
<!-- Node8 -->
<g id="node8" class="node">
<title>Node8</title>
<g id="a_node8"><a xlink:title=" ">
<polygon fill="white" stroke="#bfbfbf" points="447,-112.5 447,-131.5 494,-131.5 494,-112.5 447,-112.5"/>
<text text-anchor="middle" x="470.5" y="-119.5" font-family="Helvetica,sans-Serif" font-size="10.00">PCU.h</text>
</a>
</g>
</g>
<!-- Node1&#45;&gt;Node8 -->
<g id="edge7" class="edge">
<title>Node1&#45;&gt;Node8</title>
<path fill="none" stroke="midnightblue" d="M530.09,-168.32C519.39,-160.18 503.16,-147.84 490.34,-138.09"/>
<polygon fill="midnightblue" stroke="midnightblue" points="492.19,-135.1 482.11,-131.83 487.96,-140.67 492.19,-135.1"/>
</g>
<!-- Node9 -->
<g id="node9" class="node">
<title>Node9</title>
<g id="a_node9"><a xlink:title=" ">
<polygon fill="white" stroke="#bfbfbf" points="404.5,-56.5 404.5,-75.5 442.5,-75.5 442.5,-56.5 404.5,-56.5"/>
<text text-anchor="middle" x="423.5" y="-63.5" font-family="Helvetica,sans-Serif" font-size="10.00">apf.h</text>
</a>
</g>
</g>
<!-- Node1&#45;&gt;Node9 -->
<g id="edge8" class="edge">
<title>Node1&#45;&gt;Node9</title>
<path fill="none" stroke="midnightblue" d="M543.46,-168.45C546.02,-155.01 548.84,-128.77 536.5,-112 531.25,-104.86 484.31,-87.74 452.61,-76.8"/>
<polygon fill="midnightblue" stroke="midnightblue" points="453.52,-73.41 442.92,-73.48 451.25,-80.03 453.52,-73.41"/>
</g>
<!-- Node10 -->
<g id="node10" class="node">
<title>Node10</title>
<g id="a_node10"><a xlink:title=" ">
<polygon fill="white" stroke="#bfbfbf" points="386.5,-0.5 386.5,-19.5 440.5,-19.5 440.5,-0.5 386.5,-0.5"/>
<text text-anchor="middle" x="413.5" y="-7.5" font-family="Helvetica,sans-Serif" font-size="10.00">iostream</text>
</a>
</g>
</g>
<!-- Node1&#45;&gt;Node10 -->
<g id="edge9" class="edge">
<title>Node1&#45;&gt;Node10</title>
<path fill="none" stroke="midnightblue" d="M538.46,-168.07C533.26,-154.12 521.37,-127.18 502.5,-112 463.41,-80.55 424.78,-116.75 395.5,-76 385.4,-61.94 392.97,-42.43 401.17,-28.47"/>
<polygon fill="midnightblue" stroke="midnightblue" points="404.27,-30.12 406.74,-19.82 398.38,-26.33 404.27,-30.12"/>
</g>
<!-- Node11 -->
<g id="node11" class="node">
<title>Node11</title>
<g id="a_node11"><a xlink:title=" ">
<polygon fill="white" stroke="#bfbfbf" points="678.5,-0.5 678.5,-19.5 728.5,-19.5 728.5,-0.5 678.5,-0.5"/>
<text text-anchor="middle" x="703.5" y="-7.5" font-family="Helvetica,sans-Serif" font-size="10.00">fstream</text>
</a>
</g>
</g>
<!-- Node1&#45;&gt;Node11 -->
<g id="edge10" class="edge">
<title>Node1&#45;&gt;Node11</title>
<path fill="none" stroke="midnightblue" d="M579.09,-168.44C611.15,-160.61 658.15,-147.84 697.5,-132 715.2,-124.87 717.9,-119.39 735.5,-112 783.7,-91.75 816.7,-118.25 847.5,-76 852.74,-68.82 852.77,-63.16 847.5,-56 844.16,-51.46 780.09,-32.64 738.55,-20.83"/>
<polygon fill="midnightblue" stroke="midnightblue" points="739.35,-17.42 728.78,-18.06 737.44,-24.15 739.35,-17.42"/>
</g>
<!-- Node12 -->
<g id="node12" class="node">
<title>Node12</title>
<g id="a_node12"><a xlink:title=" ">
<polygon fill="white" stroke="#bfbfbf" points="744.5,-112.5 744.5,-131.5 790.5,-131.5 790.5,-112.5 744.5,-112.5"/>
<text text-anchor="middle" x="767.5" y="-119.5" font-family="Helvetica,sans-Serif" font-size="10.00">stdio.h</text>
</a>
</g>
</g>
<!-- Node1&#45;&gt;Node12 -->
<g id="edge11" class="edge">
<title>Node1&#45;&gt;Node12</title>
<path fill="none" stroke="midnightblue" d="M577.75,-168.43C615.8,-159.41 677.37,-144.79 730.5,-132 731.77,-131.7 733.05,-131.38 734.36,-131.07"/>
<polygon fill="midnightblue" stroke="midnightblue" points="735.52,-134.39 744.41,-128.63 733.87,-127.59 735.52,-134.39"/>
</g>
<!-- Node13 -->
<g id="node13" class="node">
<title>Node13</title>
<g id="a_node13"><a xlink:title=" ">
<polygon fill="white" stroke="#bfbfbf" points="809,-112.5 809,-131.5 858,-131.5 858,-112.5 809,-112.5"/>
<text text-anchor="middle" x="833.5" y="-119.5" font-family="Helvetica,sans-Serif" font-size="10.00">string.h</text>
</a>
</g>
</g>
<!-- Node1&#45;&gt;Node13 -->
<g id="edge12" class="edge">
<title>Node1&#45;&gt;Node13</title>
<path fill="none" stroke="midnightblue" d="M598.65,-168.48C648.86,-160.67 724.08,-148.17 798.64,-132.03"/>
<polygon fill="midnightblue" stroke="midnightblue" points="799.66,-135.39 808.68,-129.83 798.16,-128.55 799.66,-135.39"/>
</g>
<!-- Node14 -->
<g id="node14" class="node">
<title>Node14</title>
<g id="a_node14"><a xlink:href="_mesh_adapt_p_u_m_i_8h.html" target="_top" xlink:title=" ">
<polygon fill="white" stroke="black" points="588.5,-112.5 588.5,-131.5 688.5,-131.5 688.5,-112.5 588.5,-112.5"/>
<text text-anchor="middle" x="638.5" y="-119.5" font-family="Helvetica,sans-Serif" font-size="10.00">MeshAdaptPUMI.h</text>
</a>
</g>
</g>
<!-- Node1&#45;&gt;Node14 -->
<g id="edge13" class="edge">
<title>Node1&#45;&gt;Node14</title>
<path fill="none" stroke="midnightblue" d="M557.08,-168.32C572.5,-159.74 596.31,-146.49 614.21,-136.52"/>
<polygon fill="midnightblue" stroke="midnightblue" points="615.92,-139.58 622.95,-131.65 612.51,-133.46 615.92,-139.58"/>
</g>
<!-- Node29 -->
<g id="node29" class="node">
<title>Node29</title>
<g id="a_node29"><a xlink:title=" ">
<polygon fill="white" stroke="#bfbfbf" points="876.5,-112.5 876.5,-131.5 920.5,-131.5 920.5,-112.5 876.5,-112.5"/>
<text text-anchor="middle" x="898.5" y="-119.5" font-family="Helvetica,sans-Serif" font-size="10.00">sam.h</text>
</a>
</g>
</g>
<!-- Node1&#45;&gt;Node29 -->
<g id="edge31" class="edge">
<title>Node1&#45;&gt;Node29</title>
<path fill="none" stroke="midnightblue" d="M599.65,-171.55C663.09,-165.03 767.72,-152.59 866.41,-131.97"/>
<polygon fill="midnightblue" stroke="midnightblue" points="867.19,-135.38 876.25,-129.88 865.74,-128.53 867.19,-135.38"/>
</g>
<!-- Node30 -->
<g id="node30" class="node">
<title>Node30</title>
<g id="a_node30"><a xlink:title=" ">
<polygon fill="white" stroke="#bfbfbf" points="938.5,-112.5 938.5,-131.5 994.5,-131.5 994.5,-112.5 938.5,-112.5"/>
<text text-anchor="middle" x="966.5" y="-119.5" font-family="Helvetica,sans-Serif" font-size="10.00">samSz.h</text>
</a>
</g>
</g>
<!-- Node1&#45;&gt;Node30 -->
<g id="edge32" class="edge">
<title>Node1&#45;&gt;Node30</title>
<path fill="none" stroke="midnightblue" d="M599.67,-172.5C673.84,-166.27 806.14,-153.48 928.39,-132"/>
<polygon fill="midnightblue" stroke="midnightblue" points="929.06,-135.44 938.29,-130.24 927.84,-128.55 929.06,-135.44"/>
</g>
<!-- Node31 -->
<g id="node31" class="node">
<title>Node31</title>
<g id="a_node31"><a xlink:title=" ">
<polygon fill="white" stroke="#bfbfbf" points="1012.5,-112.5 1012.5,-131.5 1078.5,-131.5 1078.5,-112.5 1012.5,-112.5"/>
<text text-anchor="middle" x="1045.5" y="-119.5" font-family="Helvetica,sans-Serif" font-size="10.00">apfShape.h</text>
</a>
</g>
</g>
<!-- Node1&#45;&gt;Node31 -->
<g id="edge33" class="edge">
<title>Node1&#45;&gt;Node31</title>
<path fill="none" stroke="midnightblue" d="M599.75,-173.46C685.65,-167.78 851.5,-155.01 1001.76,-132.11"/>
<polygon fill="midnightblue" stroke="midnightblue" points="1002.74,-135.5 1012.09,-130.52 1001.68,-128.58 1002.74,-135.5"/>
</g>
<!-- Node14&#45;&gt;Node9 -->
<g id="edge25" class="edge">
<title>Node14&#45;&gt;Node9</title>
<path fill="none" stroke="midnightblue" d="M599.24,-112.45C563.33,-104.43 508.54,-91.7 452.46,-76.12"/>
<polygon fill="midnightblue" stroke="midnightblue" points="453.3,-72.72 442.72,-73.39 451.41,-79.46 453.3,-72.72"/>
</g>
<!-- Node15 -->
<g id="node15" class="node">
<title>Node15</title>
<g id="a_node15"><a xlink:href="mesh_8h.html" target="_top" xlink:title=" ">
<polygon fill="white" stroke="black" points="895,-56.5 895,-75.5 944,-75.5 944,-56.5 895,-56.5"/>
<text text-anchor="middle" x="919.5" y="-63.5" font-family="Helvetica,sans-Serif" font-size="10.00">mesh.h</text>
</a>
</g>
</g>
<!-- Node14&#45;&gt;Node15 -->
<g id="edge14" class="edge">
<title>Node14&#45;&gt;Node15</title>
<path fill="none" stroke="midnightblue" d="M683.03,-112.44C739.06,-101.68 834.09,-83.41 884.95,-73.64"/>
<polygon fill="midnightblue" stroke="midnightblue" points="885.65,-77.07 894.81,-71.75 884.33,-70.2 885.65,-77.07"/>
</g>
<!-- Node24 -->
<g id="node24" class="node">
<title>Node24</title>
<g id="a_node24"><a xlink:title=" ">
<polygon fill="white" stroke="#bfbfbf" points="604.5,-56.5 604.5,-75.5 672.5,-75.5 672.5,-56.5 604.5,-56.5"/>
<text text-anchor="middle" x="638.5" y="-63.5" font-family="Helvetica,sans-Serif" font-size="10.00">apfMesh2.h</text>
</a>
</g>
</g>
<!-- Node14&#45;&gt;Node24 -->
<g id="edge26" class="edge">
<title>Node14&#45;&gt;Node24</title>
<path fill="none" stroke="midnightblue" d="M638.5,-112.08C638.5,-105.01 638.5,-94.86 638.5,-85.99"/>
<polygon fill="midnightblue" stroke="midnightblue" points="642,-85.75 638.5,-75.75 635,-85.75 642,-85.75"/>
</g>
<!-- Node25 -->
<g id="node25" class="node">
<title>Node25</title>
<g id="a_node25"><a xlink:title=" ">
<polygon fill="white" stroke="#bfbfbf" points="690.5,-56.5 690.5,-75.5 776.5,-75.5 776.5,-56.5 690.5,-56.5"/>
<text text-anchor="middle" x="733.5" y="-63.5" font-family="Helvetica,sans-Serif" font-size="10.00">apfNumbering.h</text>
</a>
</g>
</g>
<!-- Node14&#45;&gt;Node25 -->
<g id="edge27" class="edge">
<title>Node14&#45;&gt;Node25</title>
<path fill="none" stroke="midnightblue" d="M653.76,-112.32C668.72,-103.82 691.75,-90.73 709.23,-80.8"/>
<polygon fill="midnightblue" stroke="midnightblue" points="711.31,-83.64 718.27,-75.65 707.85,-77.55 711.31,-83.64"/>
</g>
<!-- Node26 -->
<g id="node26" class="node">
<title>Node26</title>
<g id="a_node26"><a xlink:title=" ">
<polygon fill="white" stroke="#bfbfbf" points="795,-56.5 795,-75.5 838,-75.5 838,-56.5 795,-56.5"/>
<text text-anchor="middle" x="816.5" y="-63.5" font-family="Helvetica,sans-Serif" font-size="10.00">queue</text>
</a>
</g>
</g>
<!-- Node14&#45;&gt;Node26 -->
<g id="edge28" class="edge">
<title>Node14&#45;&gt;Node26</title>
<path fill="none" stroke="midnightblue" d="M666.7,-112.44C698.95,-102.66 751.6,-86.69 785.12,-76.52"/>
<polygon fill="midnightblue" stroke="midnightblue" points="786.31,-79.82 794.87,-73.56 784.28,-73.12 786.31,-79.82"/>
</g>
<!-- Node27 -->
<g id="node27" class="node">
<title>Node27</title>
<g id="a_node27"><a xlink:href="_py_embedded_functions_8h.html" target="_top" xlink:title=" ">
<polygon fill="white" stroke="black" points="460.5,-56.5 460.5,-75.5 586.5,-75.5 586.5,-56.5 460.5,-56.5"/>
<text text-anchor="middle" x="523.5" y="-63.5" font-family="Helvetica,sans-Serif" font-size="10.00">PyEmbeddedFunctions.h</text>
</a>
</g>
</g>
<!-- Node14&#45;&gt;Node27 -->
<g id="edge29" class="edge">
<title>Node14&#45;&gt;Node27</title>
<path fill="none" stroke="midnightblue" d="M620.28,-112.44C601.6,-103.68 572.34,-89.94 550.88,-79.86"/>
<polygon fill="midnightblue" stroke="midnightblue" points="552.18,-76.6 541.64,-75.52 549.2,-82.93 552.18,-76.6"/>
</g>
<!-- Node15&#45;&gt;Node10 -->
<g id="edge20" class="edge">
<title>Node15&#45;&gt;Node10</title>
<path fill="none" stroke="midnightblue" d="M894.86,-61.77C880.96,-59.98 863.27,-57.77 847.5,-56 687.27,-38 646.75,-37.87 486.5,-20 474.84,-18.7 462.15,-17.17 450.66,-15.75"/>
<polygon fill="midnightblue" stroke="midnightblue" points="450.88,-12.25 440.52,-14.48 450.01,-19.2 450.88,-12.25"/>
</g>
<!-- Node15&#45;&gt;Node11 -->
<g id="edge22" class="edge">
<title>Node15&#45;&gt;Node11</title>
<path fill="none" stroke="midnightblue" d="M894.89,-58.95C860.06,-50.37 794.38,-34.13 738.5,-20 738.4,-19.98 738.3,-19.95 738.2,-19.92"/>
<polygon fill="midnightblue" stroke="midnightblue" points="739.28,-16.59 728.73,-17.51 737.56,-23.37 739.28,-16.59"/>
</g>
<!-- Node16 -->
<g id="node16" class="node">
<title>Node16</title>
<g id="a_node16"><a xlink:title=" ">
<polygon fill="white" stroke="#bfbfbf" points="876.5,-0.5 876.5,-19.5 906.5,-19.5 906.5,-0.5 876.5,-0.5"/>
<text text-anchor="middle" x="891.5" y="-7.5" font-family="Helvetica,sans-Serif" font-size="10.00">set</text>
</a>
</g>
</g>
<!-- Node15&#45;&gt;Node16 -->
<g id="edge15" class="edge">
<title>Node15&#45;&gt;Node16</title>
<path fill="none" stroke="midnightblue" d="M914.88,-56.08C911.04,-48.69 905.48,-37.95 900.74,-28.81"/>
<polygon fill="midnightblue" stroke="midnightblue" points="903.75,-27.02 896.04,-19.75 897.53,-30.24 903.75,-27.02"/>
</g>
<!-- Node17 -->
<g id="node17" class="node">
<title>Node17</title>
<g id="a_node17"><a xlink:title=" ">
<polygon fill="white" stroke="#bfbfbf" points="924.5,-0.5 924.5,-19.5 968.5,-19.5 968.5,-0.5 924.5,-0.5"/>
<text text-anchor="middle" x="946.5" y="-7.5" font-family="Helvetica,sans-Serif" font-size="10.00">vector</text>
</a>
</g>
</g>
<!-- Node15&#45;&gt;Node17 -->
<g id="edge16" class="edge">
<title>Node15&#45;&gt;Node17</title>
<path fill="none" stroke="midnightblue" d="M923.96,-56.08C927.65,-48.69 933.02,-37.95 937.59,-28.81"/>
<polygon fill="midnightblue" stroke="midnightblue" points="940.78,-30.26 942.12,-19.75 934.52,-27.13 940.78,-30.26"/>
</g>
<!-- Node18 -->
<g id="node18" class="node">
<title>Node18</title>
<g id="a_node18"><a xlink:title=" ">
<polygon fill="white" stroke="#bfbfbf" points="986.5,-0.5 986.5,-19.5 1042.5,-19.5 1042.5,-0.5 986.5,-0.5"/>
<text text-anchor="middle" x="1014.5" y="-7.5" font-family="Helvetica,sans-Serif" font-size="10.00">algorithm</text>
</a>
</g>
</g>
<!-- Node15&#45;&gt;Node18 -->
<g id="edge17" class="edge">
<title>Node15&#45;&gt;Node18</title>
<path fill="none" stroke="midnightblue" d="M934.76,-56.32C949.72,-47.82 972.75,-34.73 990.23,-24.8"/>
<polygon fill="midnightblue" stroke="midnightblue" points="992.31,-27.64 999.27,-19.65 988.85,-21.55 992.31,-27.64"/>
</g>
<!-- Node19 -->
<g id="node19" class="node">
<title>Node19</title>
<g id="a_node19"><a xlink:title=" ">
<polygon fill="white" stroke="#bfbfbf" points="1061,-0.5 1061,-19.5 1096,-19.5 1096,-0.5 1061,-0.5"/>
<text text-anchor="middle" x="1078.5" y="-7.5" font-family="Helvetica,sans-Serif" font-size="10.00">map</text>
</a>
</g>
</g>
<!-- Node15&#45;&gt;Node19 -->
<g id="edge18" class="edge">
<title>Node15&#45;&gt;Node19</title>
<path fill="none" stroke="midnightblue" d="M944.34,-56.56C973.25,-46.74 1020.85,-30.58 1050.89,-20.38"/>
<polygon fill="midnightblue" stroke="midnightblue" points="1052.38,-23.57 1060.72,-17.04 1050.13,-16.94 1052.38,-23.57"/>
</g>
<!-- Node20 -->
<g id="node20" class="node">
<title>Node20</title>
<g id="a_node20"><a xlink:title=" ">
<polygon fill="white" stroke="#bfbfbf" points="1114,-0.5 1114,-19.5 1143,-19.5 1143,-0.5 1114,-0.5"/>
<text text-anchor="middle" x="1128.5" y="-7.5" font-family="Helvetica,sans-Serif" font-size="10.00">list</text>
</a>
</g>
</g>
<!-- Node15&#45;&gt;Node20 -->
<g id="edge19" class="edge">
<title>Node15&#45;&gt;Node20</title>
<path fill="none" stroke="midnightblue" d="M944.16,-60.15C978.24,-53.2 1041.74,-39.41 1103.6,-20.31"/>
<polygon fill="midnightblue" stroke="midnightblue" points="1105.02,-23.54 1113.51,-17.2 1102.92,-16.86 1105.02,-23.54"/>
</g>
<!-- Node21 -->
<g id="node21" class="node">
<title>Node21</title>
<g id="a_node21"><a xlink:title=" ">
<polygon fill="white" stroke="#bfbfbf" points="1161.5,-0.5 1161.5,-19.5 1211.5,-19.5 1211.5,-0.5 1161.5,-0.5"/>
<text text-anchor="middle" x="1186.5" y="-7.5" font-family="Helvetica,sans-Serif" font-size="10.00">iomanip</text>
</a>
</g>
</g>
<!-- Node15&#45;&gt;Node21 -->
<g id="edge21" class="edge">
<title>Node15&#45;&gt;Node21</title>
<path fill="none" stroke="midnightblue" d="M944.1,-60.82C985.06,-53.73 1070.02,-38.51 1151.39,-20.13"/>
<polygon fill="midnightblue" stroke="midnightblue" points="1152.32,-23.51 1161.3,-17.88 1150.77,-16.69 1152.32,-23.51"/>
</g>
<!-- Node22 -->
<g id="node22" class="node">
<title>Node22</title>
<g id="a_node22"><a xlink:title=" ">
<polygon fill="white" stroke="#bfbfbf" points="747,-0.5 747,-19.5 796,-19.5 796,-0.5 747,-0.5"/>
<text text-anchor="middle" x="771.5" y="-7.5" font-family="Helvetica,sans-Serif" font-size="10.00">cassert</text>
</a>
</g>
</g>
<!-- Node15&#45;&gt;Node22 -->
<g id="edge23" class="edge">
<title>Node15&#45;&gt;Node22</title>
<path fill="none" stroke="midnightblue" d="M896.05,-56.44C871.37,-47.44 832.31,-33.19 804.52,-23.05"/>
<polygon fill="midnightblue" stroke="midnightblue" points="805.44,-19.66 794.84,-19.52 803.04,-26.23 805.44,-19.66"/>
</g>
<!-- Node23 -->
<g id="node23" class="node">
<title>Node23</title>
<g id="a_node23"><a xlink:title=" ">
<polygon fill="white" stroke="#bfbfbf" points="814.5,-0.5 814.5,-19.5 858.5,-19.5 858.5,-0.5 814.5,-0.5"/>
<text text-anchor="middle" x="836.5" y="-7.5" font-family="Helvetica,sans-Serif" font-size="10.00">cmath</text>
</a>
</g>
</g>
<!-- Node15&#45;&gt;Node23 -->
<g id="edge24" class="edge">
<title>Node15&#45;&gt;Node23</title>
<path fill="none" stroke="midnightblue" d="M906.16,-56.32C893.34,-47.98 873.72,-35.21 858.56,-25.35"/>
<polygon fill="midnightblue" stroke="midnightblue" points="860.09,-22.17 849.8,-19.65 856.28,-28.04 860.09,-22.17"/>
</g>
<!-- Node28 -->
<g id="node28" class="node">
<title>Node28</title>
<g id="a_node28"><a xlink:title=" ">
<polygon fill="white" stroke="#bfbfbf" points="495.5,-0.5 495.5,-19.5 551.5,-19.5 551.5,-0.5 495.5,-0.5"/>
<text text-anchor="middle" x="523.5" y="-7.5" font-family="Helvetica,sans-Serif" font-size="10.00">Python.h</text>
</a>
</g>
</g>
<!-- Node27&#45;&gt;Node28 -->
<g id="edge30" class="edge">
<title>Node27&#45;&gt;Node28</title>
<path fill="none" stroke="midnightblue" d="M523.5,-56.08C523.5,-49.01 523.5,-38.86 523.5,-29.99"/>
<polygon fill="midnightblue" stroke="midnightblue" points="527,-29.75 523.5,-19.75 520,-29.75 527,-29.75"/>
</g>
</g>
</svg>
