<?xml version="1.0" encoding="UTF-8" standalone="no"?>
<!DOCTYPE svg PUBLIC "-//W3C//DTD SVG 1.1//EN"
 "http://www.w3.org/Graphics/SVG/1.1/DTD/svg11.dtd">
<!-- Generated by graphviz version 2.40.1 (20161225.0304)
 -->
<!-- Title: cMeshAdaptPUMI.cpp Pages: 1 -->
<svg width="1220pt" height="196pt"
 viewBox="0.00 0.00 1219.50 196.00" xmlns="http://www.w3.org/2000/svg" xmlns:xlink="http://www.w3.org/1999/xlink">
<g id="graph0" class="graph" transform="scale(1 1) rotate(0) translate(4 192)">
<title>cMeshAdaptPUMI.cpp</title>
<polygon fill="#ffffff" stroke="transparent" points="-4,4 -4,-192 1215.5,-192 1215.5,4 -4,4"/>
<!-- Node0 -->
<g id="node1" class="node">
<title>Node0</title>
<polygon fill="#bfbfbf" stroke="#000000" points="483.5,-168.5 483.5,-187.5 599.5,-187.5 599.5,-168.5 483.5,-168.5"/>
<text text-anchor="middle" x="541.5" y="-175.5" font-family="Helvetica,sans-Serif" font-size="10.00" fill="#000000">cMeshAdaptPUMI.cpp</text>
</g>
<!-- Node1 -->
<g id="node2" class="node">
<title>Node1</title>
<polygon fill="#ffffff" stroke="#bfbfbf" points="0,-112.5 0,-131.5 41,-131.5 41,-112.5 0,-112.5"/>
<text text-anchor="middle" x="20.5" y="-119.5" font-family="Helvetica,sans-Serif" font-size="10.00" fill="#000000">gmi.h</text>
</g>
<!-- Node0&#45;&gt;Node1 -->
<g id="edge1" class="edge">
<title>Node0&#45;&gt;Node1</title>
<path fill="none" stroke="#191970" d="M483.4113,-176.8353C392.7599,-174.0839 212.2502,-164.8562 51.3898,-131.7261"/>
<polygon fill="#191970" stroke="#191970" points="51.8182,-128.2399 41.3128,-129.6136 50.3819,-135.091 51.8182,-128.2399"/>
</g>
<!-- Node2 -->
<g id="node3" class="node">
<title>Node2</title>
<polygon fill="#ffffff" stroke="#bfbfbf" points="59.5,-112.5 59.5,-131.5 129.5,-131.5 129.5,-112.5 59.5,-112.5"/>
<text text-anchor="middle" x="94.5" y="-119.5" font-family="Helvetica,sans-Serif" font-size="10.00" fill="#000000">gmi_mesh.h</text>
</g>
<!-- Node0&#45;&gt;Node2 -->
<g id="edge2" class="edge">
<title>Node0&#45;&gt;Node2</title>
<path fill="none" stroke="#191970" d="M483.4914,-173.3942C406.9278,-166.8681 267.7999,-153.4662 139.9433,-132.1002"/>
<polygon fill="#191970" stroke="#191970" points="140.4184,-128.631 129.9747,-130.4141 139.2509,-135.5329 140.4184,-128.631"/>
</g>
<!-- Node3 -->
<g id="node4" class="node">
<title>Node3</title>
<polygon fill="#ffffff" stroke="#bfbfbf" points="148,-112.5 148,-131.5 209,-131.5 209,-112.5 148,-112.5"/>
<text text-anchor="middle" x="178.5" y="-119.5" font-family="Helvetica,sans-Serif" font-size="10.00" fill="#000000">gmi_null.h</text>
</g>
<!-- Node0&#45;&gt;Node3 -->
<g id="edge3" class="edge">
<title>Node0&#45;&gt;Node3</title>
<path fill="none" stroke="#191970" d="M483.4332,-171.567C420.6323,-164.1977 317.4172,-150.8933 218.8333,-131.8885"/>
<polygon fill="#191970" stroke="#191970" points="219.4871,-128.4502 209.002,-129.971 218.147,-135.3207 219.4871,-128.4502"/>
</g>
<!-- Node4 -->
<g id="node5" class="node">
<title>Node4</title>
<polygon fill="#ffffff" stroke="#bfbfbf" points="227.5,-112.5 227.5,-131.5 265.5,-131.5 265.5,-112.5 227.5,-112.5"/>
<text text-anchor="middle" x="246.5" y="-119.5" font-family="Helvetica,sans-Serif" font-size="10.00" fill="#000000">ma.h</text>
</g>
<!-- Node0&#45;&gt;Node4 -->
<g id="edge4" class="edge">
<title>Node0&#45;&gt;Node4</title>
<path fill="none" stroke="#191970" d="M483.3318,-170.9232C431.0612,-163.9013 352.1558,-151.6646 275.4682,-131.9048"/>
<polygon fill="#191970" stroke="#191970" points="276.2037,-128.4794 265.6429,-129.328 274.4278,-135.2504 276.2037,-128.4794"/>
</g>
<!-- Node5 -->
<g id="node6" class="node">
<title>Node5</title>
<polygon fill="#ffffff" stroke="#bfbfbf" points="283.5,-112.5 283.5,-131.5 349.5,-131.5 349.5,-112.5 283.5,-112.5"/>
<text text-anchor="middle" x="316.5" y="-119.5" font-family="Helvetica,sans-Serif" font-size="10.00" fill="#000000">maShape.h</text>
</g>
<!-- Node0&#45;&gt;Node5 -->
<g id="edge5" class="edge">
<title>Node0&#45;&gt;Node5</title>
<path fill="none" stroke="#191970" d="M503.0768,-168.4369C463.1891,-158.5093 400.9363,-143.0153 359.4496,-132.6897"/>
<polygon fill="#191970" stroke="#191970" points="360.1846,-129.2659 349.6353,-130.247 358.4939,-136.0587 360.1846,-129.2659"/>
</g>
<!-- Node6 -->
<g id="node7" class="node">
<title>Node6</title>
<polygon fill="#ffffff" stroke="#bfbfbf" points="368,-112.5 368,-131.5 429,-131.5 429,-112.5 368,-112.5"/>
<text text-anchor="middle" x="398.5" y="-119.5" font-family="Helvetica,sans-Serif" font-size="10.00" fill="#000000">apfMDS.h</text>
</g>
<!-- Node0&#45;&gt;Node6 -->
<g id="edge6" class="edge">
<title>Node0&#45;&gt;Node6</title>
<path fill="none" stroke="#191970" d="M516.9174,-168.3733C493.5504,-159.2226 458.2138,-145.3844 432.2216,-135.2057"/>
<polygon fill="#191970" stroke="#191970" points="433.3495,-131.8886 422.7618,-131.5011 430.797,-138.4066 433.3495,-131.8886"/>
</g>
<!-- Node7 -->
<g id="node8" class="node">
<title>Node7</title>
<polygon fill="#ffffff" stroke="#bfbfbf" points="447,-112.5 447,-131.5 494,-131.5 494,-112.5 447,-112.5"/>
<text text-anchor="middle" x="470.5" y="-119.5" font-family="Helvetica,sans-Serif" font-size="10.00" fill="#000000">PCU.h</text>
</g>
<!-- Node0&#45;&gt;Node7 -->
<g id="edge7" class="edge">
<title>Node0&#45;&gt;Node7</title>
<path fill="none" stroke="#191970" d="M529.1327,-168.2455C518.5446,-159.8943 503.0936,-147.7076 490.7107,-137.9408"/>
<polygon fill="#191970" stroke="#191970" points="492.7447,-135.0875 482.7255,-131.6427 488.4097,-140.5837 492.7447,-135.0875"/>
</g>
<!-- Node8 -->
<g id="node9" class="node">
<title>Node8</title>
<polygon fill="#ffffff" stroke="#bfbfbf" points="404.5,-56.5 404.5,-75.5 442.5,-75.5 442.5,-56.5 404.5,-56.5"/>
<text text-anchor="middle" x="423.5" y="-63.5" font-family="Helvetica,sans-Serif" font-size="10.00" fill="#000000">apf.h</text>
</g>
<!-- Node0&#45;&gt;Node8 -->
<g id="edge8" class="edge">
<title>Node0&#45;&gt;Node8</title>
<path fill="none" stroke="#191970" d="M543.6612,-168.4225C546.2064,-154.5536 548.6844,-128.7145 536.5,-112 533.8427,-108.3548 484.6717,-89.1869 452.0763,-76.7725"/>
<polygon fill="#191970" stroke="#191970" points="453.1537,-73.4378 442.5624,-73.1612 450.6695,-79.9822 453.1537,-73.4378"/>
</g>
<!-- Node9 -->
<g id="node10" class="node">
<title>Node9</title>
<polygon fill="#ffffff" stroke="#bfbfbf" points="386.5,-.5 386.5,-19.5 440.5,-19.5 440.5,-.5 386.5,-.5"/>
<text text-anchor="middle" x="413.5" y="-7.5" font-family="Helvetica,sans-Serif" font-size="10.00" fill="#000000">iostream</text>
</g>
<!-- Node0&#45;&gt;Node9 -->
<g id="edge9" class="edge">
<title>Node0&#45;&gt;Node9</title>
<path fill="none" stroke="#191970" d="M538.3261,-168.4658C533.0937,-154.173 521.3226,-127.2466 502.5,-112 463.5112,-80.4183 424.7808,-116.7451 395.5,-76 385.476,-62.0514 392.5228,-42.7986 400.5517,-28.6865"/>
<polygon fill="#191970" stroke="#191970" points="403.7331,-30.2004 406.0693,-19.8663 397.7986,-26.488 403.7331,-30.2004"/>
</g>
<!-- Node10 -->
<g id="node11" class="node">
<title>Node10</title>
<polygon fill="#ffffff" stroke="#bfbfbf" points="678.5,-.5 678.5,-19.5 728.5,-19.5 728.5,-.5 678.5,-.5"/>
<text text-anchor="middle" x="703.5" y="-7.5" font-family="Helvetica,sans-Serif" font-size="10.00" fill="#000000">fstream</text>
</g>
<!-- Node0&#45;&gt;Node10 -->
<g id="edge10" class="edge">
<title>Node0&#45;&gt;Node10</title>
<path fill="none" stroke="#191970" d="M581.6702,-168.4914C613.623,-160.3746 659.1715,-147.5589 697.5,-132 715.1838,-124.8215 717.9046,-119.3924 735.5,-112 783.7045,-91.7478 816.7002,-118.2516 847.5,-76 852.7361,-68.817 852.7426,-63.1783 847.5,-56 844.1664,-51.4355 780.0937,-32.1789 738.5495,-20.0739"/>
<polygon fill="#191970" stroke="#191970" points="739.3587,-16.6644 728.7794,-17.2378 737.4072,-23.3869 739.3587,-16.6644"/>
</g>
<!-- Node11 -->
<g id="node12" class="node">
<title>Node11</title>
<polygon fill="#ffffff" stroke="#bfbfbf" points="744.5,-112.5 744.5,-131.5 790.5,-131.5 790.5,-112.5 744.5,-112.5"/>
<text text-anchor="middle" x="767.5" y="-119.5" font-family="Helvetica,sans-Serif" font-size="10.00" fill="#000000">stdio.h</text>
</g>
<!-- Node0&#45;&gt;Node11 -->
<g id="edge11" class="edge">
<title>Node0&#45;&gt;Node11</title>
<path fill="none" stroke="#191970" d="M582.1288,-168.4245C620.4528,-159.3181 679.4737,-145.1028 730.5,-132 731.7689,-131.6742 733.0614,-131.3393 734.3664,-130.9988"/>
<polygon fill="#191970" stroke="#191970" points="735.6616,-134.2764 744.4311,-128.3312 733.8682,-127.51 735.6616,-134.2764"/>
</g>
<!-- Node12 -->
<g id="node13" class="node">
<title>Node12</title>
<polygon fill="#ffffff" stroke="#bfbfbf" points="809,-112.5 809,-131.5 858,-131.5 858,-112.5 809,-112.5"/>
<text text-anchor="middle" x="833.5" y="-119.5" font-family="Helvetica,sans-Serif" font-size="10.00" fill="#000000">string.h</text>
</g>
<!-- Node0&#45;&gt;Node12 -->
<g id="edge12" class="edge">
<title>Node0&#45;&gt;Node12</title>
<path fill="none" stroke="#191970" d="M599.5103,-169.5199C649.788,-161.7486 724.638,-149.1717 798.7287,-131.9786"/>
<polygon fill="#191970" stroke="#191970" points="799.7673,-135.33 808.7014,-129.6349 798.1658,-128.5156 799.7673,-135.33"/>
</g>
<!-- Node13 -->
<g id="node14" class="node">
<title>Node13</title>
<g id="a_node14"><a xlink:href="_mesh_adapt_p_u_m_i_8h.html" target="_top" xlink:title="MeshAdaptPUMI.h">
<polygon fill="#ffffff" stroke="#000000" points="588.5,-112.5 588.5,-131.5 688.5,-131.5 688.5,-112.5 588.5,-112.5"/>
<text text-anchor="middle" x="638.5" y="-119.5" font-family="Helvetica,sans-Serif" font-size="10.00" fill="#000000">MeshAdaptPUMI.h</text>
</a>
</g>
</g>
<!-- Node0&#45;&gt;Node13 -->
<g id="edge13" class="edge">
<title>Node0&#45;&gt;Node13</title>
<path fill="none" stroke="#191970" d="M558.3961,-168.2455C573.418,-159.5731 595.6043,-146.7645 612.821,-136.825"/>
<polygon fill="#191970" stroke="#191970" points="614.8871,-139.6737 621.7975,-131.6427 611.3872,-133.6114 614.8871,-139.6737"/>
</g>
<!-- Node28 -->
<g id="node29" class="node">
<title>Node28</title>
<polygon fill="#ffffff" stroke="#bfbfbf" points="876.5,-112.5 876.5,-131.5 920.5,-131.5 920.5,-112.5 876.5,-112.5"/>
<text text-anchor="middle" x="898.5" y="-119.5" font-family="Helvetica,sans-Serif" font-size="10.00" fill="#000000">sam.h</text>
</g>
<!-- Node0&#45;&gt;Node28 -->
<g id="edge31" class="edge">
<title>Node0&#45;&gt;Node28</title>
<path fill="none" stroke="#191970" d="M599.7608,-172.8285C663.2949,-166.5086 768.0132,-154.1044 866.4643,-131.9225"/>
<polygon fill="#191970" stroke="#191970" points="867.3114,-135.3192 876.2769,-129.6739 865.7478,-128.4961 867.3114,-135.3192"/>
</g>
<!-- Node29 -->
<g id="node30" class="node">
<title>Node29</title>
<polygon fill="#ffffff" stroke="#bfbfbf" points="938.5,-112.5 938.5,-131.5 994.5,-131.5 994.5,-112.5 938.5,-112.5"/>
<text text-anchor="middle" x="966.5" y="-119.5" font-family="Helvetica,sans-Serif" font-size="10.00" fill="#000000">samSz.h</text>
</g>
<!-- Node0&#45;&gt;Node29 -->
<g id="edge32" class="edge">
<title>Node0&#45;&gt;Node29</title>
<path fill="none" stroke="#191970" d="M599.7551,-173.7609C674.0052,-167.7664 806.4032,-155.0961 928.4278,-131.9735"/>
<polygon fill="#191970" stroke="#191970" points="929.1582,-135.3973 938.3174,-130.0719 927.8363,-128.5232 929.1582,-135.3973"/>
</g>
<!-- Node30 -->
<g id="node31" class="node">
<title>Node30</title>
<polygon fill="#ffffff" stroke="#bfbfbf" points="1012.5,-112.5 1012.5,-131.5 1078.5,-131.5 1078.5,-112.5 1012.5,-112.5"/>
<text text-anchor="middle" x="1045.5" y="-119.5" font-family="Helvetica,sans-Serif" font-size="10.00" fill="#000000">apfShape.h</text>
</g>
<!-- Node0&#45;&gt;Node30 -->
<g id="edge33" class="edge">
<title>Node0&#45;&gt;Node30</title>
<path fill="none" stroke="#191970" d="M599.8149,-174.7174C685.8829,-169.3164 852.0867,-156.7662 1002.2457,-132.0249"/>
<polygon fill="#191970" stroke="#191970" points="1002.8252,-135.4767 1012.1122,-130.3775 1001.6723,-128.5722 1002.8252,-135.4767"/>
</g>
<!-- Node13&#45;&gt;Node8 -->
<g id="edge25" class="edge">
<title>Node13&#45;&gt;Node8</title>
<path fill="none" stroke="#191970" d="M594.3291,-112.4697C558.3771,-104.4136 506.1728,-92.0396 452.3948,-76.0622"/>
<polygon fill="#191970" stroke="#191970" points="453.2786,-72.6732 442.6943,-73.1454 451.2629,-79.3767 453.2786,-72.6732"/>
</g>
<!-- Node14 -->
<g id="node15" class="node">
<title>Node14</title>
<g id="a_node15"><a xlink:href="mesh_8h.html" target="_top" xlink:title="mesh.h">
<polygon fill="#ffffff" stroke="#000000" points="895,-56.5 895,-75.5 944,-75.5 944,-56.5 895,-56.5"/>
<text text-anchor="middle" x="919.5" y="-63.5" font-family="Helvetica,sans-Serif" font-size="10.00" fill="#000000">mesh.h</text>
</a>
</g>
</g>
<!-- Node13&#45;&gt;Node14 -->
<g id="edge14" class="edge">
<title>Node13&#45;&gt;Node14</title>
<path fill="none" stroke="#191970" d="M686.4863,-112.4369C742.8282,-101.2086 834.9002,-82.8598 884.7689,-72.9215"/>
<polygon fill="#191970" stroke="#191970" points="885.6186,-76.3211 894.7417,-70.934 884.2504,-69.4561 885.6186,-76.3211"/>
</g>
<!-- Node23 -->
<g id="node24" class="node">
<title>Node23</title>
<polygon fill="#ffffff" stroke="#bfbfbf" points="604.5,-56.5 604.5,-75.5 672.5,-75.5 672.5,-56.5 604.5,-56.5"/>
<text text-anchor="middle" x="638.5" y="-63.5" font-family="Helvetica,sans-Serif" font-size="10.00" fill="#000000">apfMesh2.h</text>
</g>
<!-- Node13&#45;&gt;Node23 -->
<g id="edge26" class="edge">
<title>Node13&#45;&gt;Node23</title>
<path fill="none" stroke="#191970" d="M638.5,-112.2455C638.5,-104.9382 638.5,-94.6944 638.5,-85.7046"/>
<polygon fill="#191970" stroke="#191970" points="642.0001,-85.6426 638.5,-75.6427 635.0001,-85.6427 642.0001,-85.6426"/>
</g>
<!-- Node24 -->
<g id="node25" class="node">
<title>Node24</title>
<polygon fill="#ffffff" stroke="#bfbfbf" points="690.5,-56.5 690.5,-75.5 776.5,-75.5 776.5,-56.5 690.5,-56.5"/>
<text text-anchor="middle" x="733.5" y="-63.5" font-family="Helvetica,sans-Serif" font-size="10.00" fill="#000000">apfNumbering.h</text>
</g>
<!-- Node13&#45;&gt;Node24 -->
<g id="edge27" class="edge">
<title>Node13&#45;&gt;Node24</title>
<path fill="none" stroke="#191970" d="M655.0477,-112.2455C669.7599,-103.5731 691.4888,-90.7645 708.3505,-80.825"/>
<polygon fill="#191970" stroke="#191970" points="710.3046,-83.736 717.1419,-75.6427 706.7498,-77.7057 710.3046,-83.736"/>
</g>
<!-- Node25 -->
<g id="node26" class="node">
<title>Node25</title>
<polygon fill="#ffffff" stroke="#bfbfbf" points="795,-56.5 795,-75.5 838,-75.5 838,-56.5 795,-56.5"/>
<text text-anchor="middle" x="816.5" y="-63.5" font-family="Helvetica,sans-Serif" font-size="10.00" fill="#000000">queue</text>
</g>
<!-- Node13&#45;&gt;Node25 -->
<g id="edge28" class="edge">
<title>Node13&#45;&gt;Node25</title>
<path fill="none" stroke="#191970" d="M669.2133,-112.475C696.9937,-103.8406 739.2723,-90.6533 785.0174,-76.1349"/>
<polygon fill="#191970" stroke="#191970" points="786.357,-79.3818 794.8276,-73.0178 784.2372,-72.7105 786.357,-79.3818"/>
</g>
<!-- Node26 -->
<g id="node27" class="node">
<title>Node26</title>
<g id="a_node27"><a xlink:href="_py_embedded_functions_8h.html" target="_top" xlink:title="PyEmbeddedFunctions.h">
<polygon fill="#ffffff" stroke="#000000" points="460.5,-56.5 460.5,-75.5 586.5,-75.5 586.5,-56.5 460.5,-56.5"/>
<text text-anchor="middle" x="523.5" y="-63.5" font-family="Helvetica,sans-Serif" font-size="10.00" fill="#000000">PyEmbeddedFunctions.h</text>
</a>
</g>
</g>
<!-- Node13&#45;&gt;Node26 -->
<g id="edge29" class="edge">
<title>Node13&#45;&gt;Node26</title>
<path fill="none" stroke="#191970" d="M618.7308,-112.3733C600.3531,-103.4241 572.7688,-89.9917 552.0107,-79.8835"/>
<polygon fill="#191970" stroke="#191970" points="553.5343,-76.7325 543.0112,-75.5011 550.4696,-83.026 553.5343,-76.7325"/>
</g>
<!-- Node14&#45;&gt;Node9 -->
<g id="edge20" class="edge">
<title>Node14&#45;&gt;Node9</title>
<path fill="none" stroke="#191970" d="M894.8712,-62.3396C880.9779,-60.335 863.2893,-57.883 847.5,-56 687.3943,-36.9057 646.6234,-38.9449 486.5,-20 474.8288,-18.6191 462.1325,-16.9414 450.6501,-15.3578"/>
<polygon fill="#191970" stroke="#191970" points="450.8987,-11.8586 440.5106,-13.9411 449.9301,-18.7913 450.8987,-11.8586"/>
</g>
<!-- Node14&#45;&gt;Node10 -->
<g id="edge22" class="edge">
<title>Node14&#45;&gt;Node10</title>
<path fill="none" stroke="#191970" d="M894.745,-59.6418C890.0164,-58.4303 885.1058,-57.1743 880.5,-56 817.4106,-39.9144 801.3639,-36.9451 738.5,-20 738.4008,-19.9733 738.3015,-19.9465 738.2021,-19.9196"/>
<polygon fill="#191970" stroke="#191970" points="739.2806,-16.5865 728.7099,-17.3005 737.4187,-23.3343 739.2806,-16.5865"/>
</g>
<!-- Node15 -->
<g id="node16" class="node">
<title>Node15</title>
<polygon fill="#ffffff" stroke="#bfbfbf" points="876.5,-.5 876.5,-19.5 906.5,-19.5 906.5,-.5 876.5,-.5"/>
<text text-anchor="middle" x="891.5" y="-7.5" font-family="Helvetica,sans-Serif" font-size="10.00" fill="#000000">set</text>
</g>
<!-- Node14&#45;&gt;Node15 -->
<g id="edge15" class="edge">
<title>Node14&#45;&gt;Node15</title>
<path fill="none" stroke="#191970" d="M914.6228,-56.2455C910.8487,-48.6973 905.5079,-38.0158 900.9099,-28.8197"/>
<polygon fill="#191970" stroke="#191970" points="903.924,-27.0217 896.3213,-19.6427 897.663,-30.1522 903.924,-27.0217"/>
</g>
<!-- Node16 -->
<g id="node17" class="node">
<title>Node16</title>
<polygon fill="#ffffff" stroke="#bfbfbf" points="924.5,-.5 924.5,-19.5 968.5,-19.5 968.5,-.5 924.5,-.5"/>
<text text-anchor="middle" x="946.5" y="-7.5" font-family="Helvetica,sans-Serif" font-size="10.00" fill="#000000">vector</text>
</g>
<!-- Node14&#45;&gt;Node16 -->
<g id="edge16" class="edge">
<title>Node14&#45;&gt;Node16</title>
<path fill="none" stroke="#191970" d="M924.203,-56.2455C927.8424,-48.6973 932.9924,-38.0158 937.4262,-28.8197"/>
<polygon fill="#191970" stroke="#191970" points="940.6605,-30.1704 941.8509,-19.6427 934.3551,-27.1303 940.6605,-30.1704"/>
</g>
<!-- Node17 -->
<g id="node18" class="node">
<title>Node17</title>
<polygon fill="#ffffff" stroke="#bfbfbf" points="986.5,-.5 986.5,-19.5 1042.5,-19.5 1042.5,-.5 986.5,-.5"/>
<text text-anchor="middle" x="1014.5" y="-7.5" font-family="Helvetica,sans-Serif" font-size="10.00" fill="#000000">algorithm</text>
</g>
<!-- Node14&#45;&gt;Node17 -->
<g id="edge17" class="edge">
<title>Node14&#45;&gt;Node17</title>
<path fill="none" stroke="#191970" d="M936.0477,-56.2455C950.7599,-47.5731 972.4888,-34.7645 989.3505,-24.825"/>
<polygon fill="#191970" stroke="#191970" points="991.3046,-27.736 998.1419,-19.6427 987.7498,-21.7057 991.3046,-27.736"/>
</g>
<!-- Node18 -->
<g id="node19" class="node">
<title>Node18</title>
<polygon fill="#ffffff" stroke="#bfbfbf" points="1061,-.5 1061,-19.5 1096,-19.5 1096,-.5 1061,-.5"/>
<text text-anchor="middle" x="1078.5" y="-7.5" font-family="Helvetica,sans-Serif" font-size="10.00" fill="#000000">map</text>
</g>
<!-- Node14&#45;&gt;Node18 -->
<g id="edge18" class="edge">
<title>Node14&#45;&gt;Node18</title>
<path fill="none" stroke="#191970" d="M944.3657,-57.4954C969.1221,-48.9932 1008.4273,-35.4008 1051.3069,-20.024"/>
<polygon fill="#191970" stroke="#191970" points="1052.5728,-23.2883 1060.7992,-16.6116 1050.2047,-16.701 1052.5728,-23.2883"/>
</g>
<!-- Node19 -->
<g id="node20" class="node">
<title>Node19</title>
<polygon fill="#ffffff" stroke="#bfbfbf" points="1114,-.5 1114,-19.5 1143,-19.5 1143,-.5 1114,-.5"/>
<text text-anchor="middle" x="1128.5" y="-7.5" font-family="Helvetica,sans-Serif" font-size="10.00" fill="#000000">list</text>
</g>
<!-- Node14&#45;&gt;Node19 -->
<g id="edge19" class="edge">
<title>Node14&#45;&gt;Node19</title>
<path fill="none" stroke="#191970" d="M944.2497,-61.259C978.4936,-54.4057 1042.3105,-40.5769 1104.0592,-20.1312"/>
<polygon fill="#191970" stroke="#191970" points="1105.1915,-23.4431 1113.5481,-16.9302 1102.954,-16.8103 1105.1915,-23.4431"/>
</g>
<!-- Node20 -->
<g id="node21" class="node">
<title>Node20</title>
<polygon fill="#ffffff" stroke="#bfbfbf" points="1161.5,-.5 1161.5,-19.5 1211.5,-19.5 1211.5,-.5 1161.5,-.5"/>
<text text-anchor="middle" x="1186.5" y="-7.5" font-family="Helvetica,sans-Serif" font-size="10.00" fill="#000000">iomanip</text>
</g>
<!-- Node14&#45;&gt;Node20 -->
<g id="edge21" class="edge">
<title>Node14&#45;&gt;Node20</title>
<path fill="none" stroke="#191970" d="M944.1498,-61.8953C985.1782,-54.9006 1070.2269,-39.7109 1151.437,-20.0976"/>
<polygon fill="#191970" stroke="#191970" points="1152.4344,-23.4569 1161.3184,-17.6841 1150.7735,-16.6568 1152.4344,-23.4569"/>
</g>
<!-- Node21 -->
<g id="node22" class="node">
<title>Node21</title>
<polygon fill="#ffffff" stroke="#bfbfbf" points="747,-.5 747,-19.5 796,-19.5 796,-.5 747,-.5"/>
<text text-anchor="middle" x="771.5" y="-7.5" font-family="Helvetica,sans-Serif" font-size="10.00" fill="#000000">cassert</text>
</g>
<!-- Node14&#45;&gt;Node21 -->
<g id="edge23" class="edge">
<title>Node14&#45;&gt;Node21</title>
<path fill="none" stroke="#191970" d="M894.7281,-56.6269C870.3963,-47.4202 833.069,-33.2964 805.8716,-23.0055"/>
<polygon fill="#191970" stroke="#191970" points="806.9442,-19.6692 796.3527,-19.4037 804.4669,-26.2162 806.9442,-19.6692"/>
</g>
<!-- Node22 -->
<g id="node23" class="node">
<title>Node22</title>
<polygon fill="#ffffff" stroke="#bfbfbf" points="814.5,-.5 814.5,-19.5 858.5,-19.5 858.5,-.5 814.5,-.5"/>
<text text-anchor="middle" x="836.5" y="-7.5" font-family="Helvetica,sans-Serif" font-size="10.00" fill="#000000">cmath</text>
</g>
<!-- Node14&#45;&gt;Node22 -->
<g id="edge24" class="edge">
<title>Node14&#45;&gt;Node22</title>
<path fill="none" stroke="#191970" d="M905.0425,-56.2455C892.4268,-47.7337 873.9056,-35.2375 859.2955,-25.3801"/>
<polygon fill="#191970" stroke="#191970" points="861.0391,-22.3343 850.7918,-19.6427 857.1239,-28.1371 861.0391,-22.3343"/>
</g>
<!-- Node27 -->
<g id="node28" class="node">
<title>Node27</title>
<polygon fill="#ffffff" stroke="#bfbfbf" points="495.5,-.5 495.5,-19.5 551.5,-19.5 551.5,-.5 495.5,-.5"/>
<text text-anchor="middle" x="523.5" y="-7.5" font-family="Helvetica,sans-Serif" font-size="10.00" fill="#000000">Python.h</text>
</g>
<!-- Node26&#45;&gt;Node27 -->
<g id="edge30" class="edge">
<title>Node26&#45;&gt;Node27</title>
<path fill="none" stroke="#191970" d="M523.5,-56.2455C523.5,-48.9382 523.5,-38.6944 523.5,-29.7046"/>
<polygon fill="#191970" stroke="#191970" points="527.0001,-29.6426 523.5,-19.6427 520.0001,-29.6427 527.0001,-29.6426"/>
</g>
</g>
</svg>
