<?xml version="1.0" encoding="UTF-8" standalone="no"?>
<!DOCTYPE svg PUBLIC "-//W3C//DTD SVG 1.1//EN"
 "http://www.w3.org/Graphics/SVG/1.1/DTD/svg11.dtd">
<!-- Generated by graphviz version 2.40.1 (20161225.0304)
 -->
<!-- Title: cRichards.cpp Pages: 1 -->
<svg width="720pt" height="196pt"
 viewBox="0.00 0.00 719.50 196.00" xmlns="http://www.w3.org/2000/svg" xmlns:xlink="http://www.w3.org/1999/xlink">
<g id="graph0" class="graph" transform="scale(1 1) rotate(0) translate(4 192)">
<title>cRichards.cpp</title>
<polygon fill="#ffffff" stroke="transparent" points="-4,4 -4,-192 715.5,-192 715.5,4 -4,4"/>
<!-- Node0 -->
<g id="node1" class="node">
<title>Node0</title>
<polygon fill="#bfbfbf" stroke="#000000" points="135,-168.5 135,-187.5 215,-187.5 215,-168.5 135,-168.5"/>
<text text-anchor="middle" x="175" y="-175.5" font-family="Helvetica,sans-Serif" font-size="10.00" fill="#000000">cRichards.cpp</text>
</g>
<!-- Node1 -->
<g id="node2" class="node">
<title>Node1</title>
<polygon fill="#ffffff" stroke="#bfbfbf" points="0,-112.5 0,-131.5 106,-131.5 106,-112.5 0,-112.5"/>
<text text-anchor="middle" x="53" y="-119.5" font-family="Helvetica,sans-Serif" font-size="10.00" fill="#000000">pybind11/pybind11.h</text>
</g>
<!-- Node0&#45;&gt;Node1 -->
<g id="edge1" class="edge">
<title>Node0&#45;&gt;Node1</title>
<path fill="none" stroke="#191970" d="M154.0275,-168.3733C134.4433,-159.3838 105.0039,-145.8706 82.949,-135.7471"/>
<polygon fill="#191970" stroke="#191970" points="84.2473,-132.4919 73.6989,-131.5011 81.3271,-138.8538 84.2473,-132.4919"/>
</g>
<!-- Node2 -->
<g id="node3" class="node">
<title>Node2</title>
<polygon fill="#ffffff" stroke="#bfbfbf" points="124.5,-112.5 124.5,-131.5 225.5,-131.5 225.5,-112.5 124.5,-112.5"/>
<text text-anchor="middle" x="175" y="-119.5" font-family="Helvetica,sans-Serif" font-size="10.00" fill="#000000">pybind11/stl_bind.h</text>
</g>
<!-- Node0&#45;&gt;Node2 -->
<g id="edge2" class="edge">
<title>Node0&#45;&gt;Node2</title>
<path fill="none" stroke="#191970" d="M175,-168.2455C175,-160.9382 175,-150.6944 175,-141.7046"/>
<polygon fill="#191970" stroke="#191970" points="178.5001,-141.6426 175,-131.6427 171.5001,-141.6427 178.5001,-141.6426"/>
</g>
<!-- Node3 -->
<g id="node4" class="node">
<title>Node3</title>
<g id="a_node4"><a xlink:href="_richards_8h.html" target="_top" xlink:title="Richards.h">
<polygon fill="#ffffff" stroke="#000000" points="244,-112.5 244,-131.5 308,-131.5 308,-112.5 244,-112.5"/>
<text text-anchor="middle" x="276" y="-119.5" font-family="Helvetica,sans-Serif" font-size="10.00" fill="#000000">Richards.h</text>
</a>
</g>
</g>
<!-- Node0&#45;&gt;Node3 -->
<g id="edge3" class="edge">
<title>Node0&#45;&gt;Node3</title>
<path fill="none" stroke="#191970" d="M192.5929,-168.2455C208.379,-159.4928 231.7639,-146.527 249.7587,-136.5496"/>
<polygon fill="#191970" stroke="#191970" points="251.5603,-139.5528 258.6087,-131.6427 248.1659,-133.4308 251.5603,-139.5528"/>
</g>
<!-- Node4 -->
<g id="node5" class="node">
<title>Node4</title>
<polygon fill="#ffffff" stroke="#bfbfbf" points="117,-.5 117,-19.5 161,-19.5 161,-.5 117,-.5"/>
<text text-anchor="middle" x="139" y="-7.5" font-family="Helvetica,sans-Serif" font-size="10.00" fill="#000000">cmath</text>
</g>
<!-- Node3&#45;&gt;Node4 -->
<g id="edge4" class="edge">
<title>Node3&#45;&gt;Node4</title>
<path fill="none" stroke="#191970" d="M243.945,-114.4481C201.5452,-104.1396 131.2913,-85.8245 124,-76 113.7583,-62.2001 120.1141,-42.6272 127.4461,-28.3812"/>
<polygon fill="#191970" stroke="#191970" points="130.5914,-29.9302 132.486,-19.5061 124.5044,-26.4735 130.5914,-29.9302"/>
</g>
<!-- Node5 -->
<g id="node6" class="node">
<title>Node5</title>
<polygon fill="#ffffff" stroke="#bfbfbf" points="214,-.5 214,-19.5 268,-19.5 268,-.5 214,-.5"/>
<text text-anchor="middle" x="241" y="-7.5" font-family="Helvetica,sans-Serif" font-size="10.00" fill="#000000">iostream</text>
</g>
<!-- Node3&#45;&gt;Node5 -->
<g id="edge5" class="edge">
<title>Node3&#45;&gt;Node5</title>
<path fill="none" stroke="#191970" d="M272.4108,-112.1813C269.0607,-102.9031 263.9927,-88.5717 260,-76 255.0937,-60.5516 250.0406,-42.8998 246.38,-29.7405"/>
<polygon fill="#191970" stroke="#191970" points="249.6967,-28.6016 243.6664,-19.8903 242.9481,-30.4608 249.6967,-28.6016"/>
</g>
<!-- Node6 -->
<g id="node7" class="node">
<title>Node6</title>
<g id="a_node7"><a xlink:href="_comp_kernel_8h.html" target="_top" xlink:title="CompKernel.h">
<polygon fill="#ffffff" stroke="#000000" points="133.5,-56.5 133.5,-75.5 212.5,-75.5 212.5,-56.5 133.5,-56.5"/>
<text text-anchor="middle" x="173" y="-63.5" font-family="Helvetica,sans-Serif" font-size="10.00" fill="#000000">CompKernel.h</text>
</a>
</g>
</g>
<!-- Node3&#45;&gt;Node6 -->
<g id="edge6" class="edge">
<title>Node3&#45;&gt;Node6</title>
<path fill="none" stroke="#191970" d="M258.0588,-112.2455C241.96,-103.4928 218.1121,-90.527 199.7609,-80.5496"/>
<polygon fill="#191970" stroke="#191970" points="201.1929,-77.3444 190.7356,-75.6427 197.8493,-83.4942 201.1929,-77.3444"/>
</g>
<!-- Node7 -->
<g id="node8" class="node">
<title>Node7</title>
<g id="a_node8"><a xlink:href="_model_factory_8h.html" target="_top" xlink:title="ModelFactory.h">
<polygon fill="#ffffff" stroke="#000000" points="269,-56.5 269,-75.5 353,-75.5 353,-56.5 269,-56.5"/>
<text text-anchor="middle" x="311" y="-63.5" font-family="Helvetica,sans-Serif" font-size="10.00" fill="#000000">ModelFactory.h</text>
</a>
</g>
</g>
<!-- Node3&#45;&gt;Node7 -->
<g id="edge8" class="edge">
<title>Node3&#45;&gt;Node7</title>
<path fill="none" stroke="#191970" d="M282.0965,-112.2455C286.9145,-104.5367 293.7751,-93.5598 299.6032,-84.2348"/>
<polygon fill="#191970" stroke="#191970" points="302.6413,-85.9777 304.9733,-75.6427 296.7053,-82.2677 302.6413,-85.9777"/>
</g>
<!-- Node8 -->
<g id="node9" class="node">
<title>Node8</title>
<g id="a_node9"><a xlink:href="_arguments_dict_8h.html" target="_top" xlink:title="../mprans/ArgumentsDict.h">
<polygon fill="#ffffff" stroke="#000000" points="371,-56.5 371,-75.5 505,-75.5 505,-56.5 371,-56.5"/>
<text text-anchor="middle" x="438" y="-63.5" font-family="Helvetica,sans-Serif" font-size="10.00" fill="#000000">../mprans/ArgumentsDict.h</text>
</a>
</g>
</g>
<!-- Node3&#45;&gt;Node8 -->
<g id="edge10" class="edge">
<title>Node3&#45;&gt;Node8</title>
<path fill="none" stroke="#191970" d="M303.8488,-112.3733C330.6703,-103.1016 371.4127,-89.0178 400.9598,-78.804"/>
<polygon fill="#191970" stroke="#191970" points="402.2069,-82.0762 410.5146,-75.5011 399.9198,-75.4603 402.2069,-82.0762"/>
</g>
<!-- Node12 -->
<g id="node13" class="node">
<title>Node12</title>
<polygon fill="#ffffff" stroke="#bfbfbf" points="576.5,-.5 576.5,-19.5 711.5,-19.5 711.5,-.5 576.5,-.5"/>
<text text-anchor="middle" x="644" y="-7.5" font-family="Helvetica,sans-Serif" font-size="10.00" fill="#000000">xtensor&#45;python/pyarray.hpp</text>
</g>
<!-- Node3&#45;&gt;Node12 -->
<g id="edge16" class="edge">
<title>Node3&#45;&gt;Node12</title>
<path fill="none" stroke="#191970" d="M308.3026,-118.6507C354.7744,-113.1892 442.7427,-100.4355 514,-76 552.8099,-62.6913 594.5916,-39.7758 620.0222,-24.7548"/>
<polygon fill="#191970" stroke="#191970" points="621.8335,-27.7497 628.6158,-19.6103 618.238,-21.7437 621.8335,-27.7497"/>
</g>
<!-- Node6&#45;&gt;Node4 -->
<g id="edge7" class="edge">
<title>Node6&#45;&gt;Node4</title>
<path fill="none" stroke="#191970" d="M167.0777,-56.2455C162.3973,-48.5367 155.7327,-37.5598 150.0711,-28.2348"/>
<polygon fill="#191970" stroke="#191970" points="153.0361,-26.3741 144.8545,-19.6427 147.0525,-30.007 153.0361,-26.3741"/>
</g>
<!-- Node7&#45;&gt;Node5 -->
<g id="edge9" class="edge">
<title>Node7&#45;&gt;Node5</title>
<path fill="none" stroke="#191970" d="M298.8069,-56.2455C288.3679,-47.8943 273.1345,-35.7076 260.926,-25.9408"/>
<polygon fill="#191970" stroke="#191970" points="263.0485,-23.1566 253.0533,-19.6427 258.6756,-28.6227 263.0485,-23.1566"/>
</g>
<!-- Node9 -->
<g id="node10" class="node">
<title>Node9</title>
<polygon fill="#ffffff" stroke="#bfbfbf" points="286.5,-.5 286.5,-19.5 321.5,-19.5 321.5,-.5 286.5,-.5"/>
<text text-anchor="middle" x="304" y="-7.5" font-family="Helvetica,sans-Serif" font-size="10.00" fill="#000000">map</text>
</g>
<!-- Node8&#45;&gt;Node9 -->
<g id="edge11" class="edge">
<title>Node8&#45;&gt;Node9</title>
<path fill="none" stroke="#191970" d="M414.9646,-56.3733C391.6827,-46.6435 355.7202,-31.6144 331.086,-21.3195"/>
<polygon fill="#191970" stroke="#191970" points="332.1881,-17.9868 321.6118,-17.3601 329.4889,-24.4455 332.1881,-17.9868"/>
</g>
<!-- Node10 -->
<g id="node11" class="node">
<title>Node10</title>
<polygon fill="#ffffff" stroke="#bfbfbf" points="339.5,-.5 339.5,-19.5 398.5,-19.5 398.5,-.5 339.5,-.5"/>
<text text-anchor="middle" x="369" y="-7.5" font-family="Helvetica,sans-Serif" font-size="10.00" fill="#000000">stdexcept</text>
</g>
<!-- Node8&#45;&gt;Node10 -->
<g id="edge12" class="edge">
<title>Node8&#45;&gt;Node10</title>
<path fill="none" stroke="#191970" d="M425.9811,-56.2455C415.7902,-47.9746 400.9638,-35.9416 388.9893,-26.2232"/>
<polygon fill="#191970" stroke="#191970" points="390.8514,-23.2268 380.8812,-19.6427 386.4402,-28.662 390.8514,-23.2268"/>
</g>
<!-- Node11 -->
<g id="node12" class="node">
<title>Node11</title>
<polygon fill="#ffffff" stroke="#bfbfbf" points="416.5,-.5 416.5,-19.5 457.5,-19.5 457.5,-.5 416.5,-.5"/>
<text text-anchor="middle" x="437" y="-7.5" font-family="Helvetica,sans-Serif" font-size="10.00" fill="#000000">string</text>
</g>
<!-- Node8&#45;&gt;Node11 -->
<g id="edge13" class="edge">
<title>Node8&#45;&gt;Node11</title>
<path fill="none" stroke="#191970" d="M437.8258,-56.2455C437.6953,-48.9382 437.5124,-38.6944 437.3519,-29.7046"/>
<polygon fill="#191970" stroke="#191970" points="440.8503,-29.5786 437.1722,-19.6427 433.8514,-29.7036 440.8503,-29.5786"/>
</g>
<!-- Node8&#45;&gt;Node12 -->
<g id="edge14" class="edge">
<title>Node8&#45;&gt;Node12</title>
<path fill="none" stroke="#191970" d="M473.4127,-56.3733C508.2605,-46.9001 561.5882,-32.4032 599.3293,-22.1435"/>
<polygon fill="#191970" stroke="#191970" points="600.3178,-25.5019 609.0494,-19.5011 598.4815,-18.747 600.3178,-25.5019"/>
</g>
<!-- Node13 -->
<g id="node14" class="node">
<title>Node13</title>
<polygon fill="#ffffff" stroke="#bfbfbf" points="475.5,-.5 475.5,-19.5 558.5,-19.5 558.5,-.5 475.5,-.5"/>
<text text-anchor="middle" x="517" y="-7.5" font-family="Helvetica,sans-Serif" font-size="10.00" fill="#000000">xtensor/xio.hpp</text>
</g>
<!-- Node8&#45;&gt;Node13 -->
<g id="edge15" class="edge">
<title>Node8&#45;&gt;Node13</title>
<path fill="none" stroke="#191970" d="M451.7607,-56.2455C463.6552,-47.814 481.065,-35.4729 494.9085,-25.6598"/>
<polygon fill="#191970" stroke="#191970" points="497.2628,-28.2811 503.3969,-19.6427 493.2146,-22.5704 497.2628,-28.2811"/>
</g>
</g>
</svg>
