<?xml version="1.0" encoding="UTF-8" standalone="no"?>
<!DOCTYPE svg PUBLIC "-//W3C//DTD SVG 1.1//EN"
 "http://www.w3.org/Graphics/SVG/1.1/DTD/svg11.dtd">
<!-- Generated by graphviz version 2.40.1 (20161225.0304)
 -->
<!-- Title: proteus::RDLS&lt; CompKernelType, nSpace, nQuadraturePoints_element, nDOF_mesh_trial_element, nDOF_trial_element, nDOF_test_element, nQuadraturePoints_elementBoundary &gt; Pages: 1 -->
<svg width="759pt" height="112pt"
 viewBox="0.00 0.00 759.00 111.50" xmlns="http://www.w3.org/2000/svg" xmlns:xlink="http://www.w3.org/1999/xlink">
<g id="graph0" class="graph" transform="scale(1 1) rotate(0) translate(4 107.5)">
<title>proteus::RDLS&lt; CompKernelType, nSpace, nQuadraturePoints_element, nDOF_mesh_trial_element, nDOF_trial_element, nDOF_test_element, nQuadraturePoints_elementBoundary &gt;</title>
<polygon fill="#ffffff" stroke="transparent" points="-4,4 -4,-107.5 755,-107.5 755,4 -4,4"/>
<!-- Node2 -->
<g id="node1" class="node">
<title>Node2</title>
<polygon fill="#bfbfbf" stroke="#000000" points="548,-13 548,-76 751,-76 751,-13 548,-13"/>
<text text-anchor="start" x="556" y="-64" font-family="Helvetica,sans-Serif" font-size="10.00" fill="#000000">proteus::RDLS&lt; CompKernel</text>
<text text-anchor="start" x="556" y="-53" font-family="Helvetica,sans-Serif" font-size="10.00" fill="#000000">Type, nSpace, nQuadraturePoints</text>
<text text-anchor="start" x="556" y="-42" font-family="Helvetica,sans-Serif" font-size="10.00" fill="#000000">_element, nDOF_mesh_trial_element,</text>
<text text-anchor="start" x="556" y="-31" font-family="Helvetica,sans-Serif" font-size="10.00" fill="#000000"> nDOF_trial_element, nDOF_test_element,</text>
<text text-anchor="middle" x="649.5" y="-20" font-family="Helvetica,sans-Serif" font-size="10.00" fill="#000000"> nQuadraturePoints_elementBoundary &gt;</text>
</g>
<!-- Node3 -->
<g id="node2" class="node">
<title>Node3</title>
<g id="a_node2"><a xlink:href="classproteus_1_1_r_d_l_s__base.html" target="_top" xlink:title="proteus::RDLS_base">
<polygon fill="#ffffff" stroke="#000000" points="324.5,-72 324.5,-91 432.5,-91 432.5,-72 324.5,-72"/>
<text text-anchor="middle" x="378.5" y="-79" font-family="Helvetica,sans-Serif" font-size="10.00" fill="#000000">proteus::RDLS_base</text>
</a>
</g>
</g>
<!-- Node3&#45;&gt;Node2 -->
<g id="edge1" class="edge">
<title>Node3&#45;&gt;Node2</title>
<path fill="none" stroke="#191970" d="M442.6295,-72.7443C474.0612,-68.4529 512.6632,-63.1825 547.9745,-58.3614"/>
<polygon fill="#191970" stroke="#191970" points="442.1241,-69.2807 432.6896,-74.1014 443.0711,-76.2164 442.1241,-69.2807"/>
</g>
<!-- Node4 -->
<g id="node3" class="node">
<title>Node4</title>
<polygon fill="#ffffff" stroke="#bfbfbf" points="0,-72 0,-91 117,-91 117,-72 0,-72"/>
<text text-anchor="middle" x="58.5" y="-79" font-family="Helvetica,sans-Serif" font-size="10.00" fill="#000000">std::valarray&lt; double &gt;</text>
</g>
<!-- Node4&#45;&gt;Node3 -->
<g id="edge2" class="edge">
<title>Node4&#45;&gt;Node3</title>
<path fill="none" stroke="#9a32cd" stroke-dasharray="5,2" d="M127.5398,-81.5C186.5312,-81.5 270.2256,-81.5 324.4426,-81.5"/>
<polygon fill="#9a32cd" stroke="#9a32cd" points="127.193,-78.0001 117.1929,-81.5 127.1929,-85.0001 127.193,-78.0001"/>
<text text-anchor="start" x="135" y="-95.5" font-family="Helvetica,sans-Serif" font-size="10.00" fill="#000000"> weighted_lumped_mass</text>
<text text-anchor="middle" x="189.5" y="-84.5" font-family="Helvetica,sans-Serif" font-size="10.00" fill="#000000">_matrix</text>
</g>
<!-- Node5 -->
<g id="node4" class="node">
<title>Node5</title>
<g id="a_node4"><a xlink:href="classequivalent__polynomials_1_1_generalized_functions__mix.html" target="_top" xlink:title="equivalent_polynomials\l::GeneralizedFunctions\l_mix\&lt; nSpace, 2, nQuadraturePoints\l_element, nQuadraturePoints_elementBoundary \&gt;">
<polygon fill="#ffffff" stroke="#000000" points="262,-.5 262,-52.5 495,-52.5 495,-.5 262,-.5"/>
<text text-anchor="start" x="270" y="-40.5" font-family="Helvetica,sans-Serif" font-size="10.00" fill="#000000">equivalent_polynomials</text>
<text text-anchor="start" x="270" y="-29.5" font-family="Helvetica,sans-Serif" font-size="10.00" fill="#000000">::GeneralizedFunctions</text>
<text text-anchor="start" x="270" y="-18.5" font-family="Helvetica,sans-Serif" font-size="10.00" fill="#000000">_mix&lt; nSpace, 2, nQuadraturePoints</text>
<text text-anchor="middle" x="378.5" y="-7.5" font-family="Helvetica,sans-Serif" font-size="10.00" fill="#000000">_element, nQuadraturePoints_elementBoundary &gt;</text>
</a>
</g>
</g>
<!-- Node5&#45;&gt;Node2 -->
<g id="edge3" class="edge">
<title>Node5&#45;&gt;Node2</title>
<path fill="none" stroke="#9a32cd" stroke-dasharray="5,2" d="M505.3306,-34.8629C513.6791,-35.4161 521.9596,-35.9655 530,-36.5 535.8092,-36.8862 541.7772,-37.2836 547.7998,-37.6851"/>
<polygon fill="#9a32cd" stroke="#9a32cd" points="505.3344,-31.3555 495.1249,-34.187 504.8717,-38.3402 505.3344,-31.3555"/>
<text text-anchor="middle" x="521.5" y="-50.5" font-family="Helvetica,sans-Serif" font-size="10.00" fill="#000000"> gfu</text>
<text text-anchor="middle" x="521.5" y="-39.5" font-family="Helvetica,sans-Serif" font-size="10.00" fill="#000000">gf</text>
</g>
</g>
</svg>
