<?xml version="1.0" encoding="UTF-8" standalone="no"?>
<!DOCTYPE svg PUBLIC "-//W3C//DTD SVG 1.1//EN"
 "http://www.w3.org/Graphics/SVG/1.1/DTD/svg11.dtd">
<!-- Generated by graphviz version 2.40.1 (20161225.0304)
 -->
<!-- Title: proteus::VOF_base Pages: 1 -->
<svg width="348pt" height="72pt"
 viewBox="0.00 0.00 348.00 72.00" xmlns="http://www.w3.org/2000/svg" xmlns:xlink="http://www.w3.org/1999/xlink">
<g id="graph0" class="graph" transform="scale(1 1) rotate(0) translate(4 68)">
<title>proteus::VOF_base</title>
<polygon fill="#ffffff" stroke="transparent" points="-4,4 -4,-68 344,-68 344,4 -4,4"/>
<!-- Node0 -->
<g id="node1" class="node">
<title>Node0</title>
<polygon fill="#bfbfbf" stroke="#000000" points="0,-22.5 0,-41.5 101,-41.5 101,-22.5 0,-22.5"/>
<text text-anchor="middle" x="50.5" y="-29.5" font-family="Helvetica,sans-Serif" font-size="10.00" fill="#000000">proteus::VOF_base</text>
</g>
<!-- Node1 -->
<g id="node2" class="node">
<title>Node1</title>
<g id="a_node2"><a xlink:href="classproteus_1_1_v_o_f.html" target="_top" xlink:title="proteus::VOF\&lt; CompKernel\lType, nSpace, nQuadraturePoints\l_element, nDOF_mesh_trial_element,\l nDOF_trial_element, nDOF_test_element,\l nQuadraturePoints_elementBoundary \&gt;">
<polygon fill="#ffffff" stroke="#000000" points="137,-.5 137,-63.5 340,-63.5 340,-.5 137,-.5"/>
<text text-anchor="start" x="145" y="-51.5" font-family="Helvetica,sans-Serif" font-size="10.00" fill="#000000">proteus::VOF&lt; CompKernel</text>
<text text-anchor="start" x="145" y="-40.5" font-family="Helvetica,sans-Serif" font-size="10.00" fill="#000000">Type, nSpace, nQuadraturePoints</text>
<text text-anchor="start" x="145" y="-29.5" font-family="Helvetica,sans-Serif" font-size="10.00" fill="#000000">_element, nDOF_mesh_trial_element,</text>
<text text-anchor="start" x="145" y="-18.5" font-family="Helvetica,sans-Serif" font-size="10.00" fill="#000000"> nDOF_trial_element, nDOF_test_element,</text>
<text text-anchor="middle" x="238.5" y="-7.5" font-family="Helvetica,sans-Serif" font-size="10.00" fill="#000000"> nQuadraturePoints_elementBoundary &gt;</text>
</a>
</g>
</g>
<!-- Node0&#45;&gt;Node1 -->
<g id="edge1" class="edge">
<title>Node0&#45;&gt;Node1</title>
<path fill="none" stroke="#191970" d="M111.5025,-32C119.6759,-32 128.2306,-32 136.8718,-32"/>
<polygon fill="#191970" stroke="#191970" points="111.3755,-28.5001 101.3755,-32 111.3755,-35.5001 111.3755,-28.5001"/>
</g>
</g>
</svg>
