<?xml version="1.0" encoding="UTF-8" standalone="no"?>
<!DOCTYPE svg PUBLIC "-//W3C//DTD SVG 1.1//EN"
 "http://www.w3.org/Graphics/SVG/1.1/DTD/svg11.dtd">
<!-- Generated by graphviz version 2.44.1 (20200629.0846)
 -->
<!-- Title: PiecewiseLinearComplexDomain Pages: 1 -->
<svg width="680pt" height="294pt"
 viewBox="0.00 0.00 680.00 293.50" xmlns="http://www.w3.org/2000/svg" xmlns:xlink="http://www.w3.org/1999/xlink">
<g id="graph0" class="graph" transform="scale(1 1) rotate(0) translate(4 289.5)">
<title>PiecewiseLinearComplexDomain</title>
<polygon fill="white" stroke="transparent" points="-4,4 -4,-289.5 676,-289.5 676,4 -4,4"/>
<!-- Node1 -->
<g id="node1" class="node">
<title>Node1</title>
<g id="a_node1"><a xlink:title=" ">
<polygon fill="#bfbfbf" stroke="black" points="511,-130.5 511,-149.5 672,-149.5 672,-130.5 511,-130.5"/>
<text text-anchor="middle" x="591.5" y="-137.5" font-family="Helvetica,sans-Serif" font-size="10.00">PiecewiseLinearComplexDomain</text>
</a>
</g>
</g>
<!-- Node2 -->
<g id="node2" class="node">
<title>Node2</title>
<g id="a_node2"><a xlink:href="class_d__base.html" target="_top" xlink:title=" ">
<polygon fill="white" stroke="black" points="339.5,-243.5 339.5,-262.5 389.5,-262.5 389.5,-243.5 339.5,-243.5"/>
<text text-anchor="middle" x="364.5" y="-250.5" font-family="Helvetica,sans-Serif" font-size="10.00">D_base</text>
</a>
</g>
</g>
<!-- Node2&#45;&gt;Node1 -->
<g id="edge1" class="edge">
<title>Node2&#45;&gt;Node1</title>
<path fill="none" stroke="midnightblue" d="M399.58,-242.92C425.81,-234.58 462.61,-221.59 493,-206 525.73,-189.2 560.64,-163.4 578.48,-149.56"/>
<polygon fill="midnightblue" stroke="midnightblue" points="398.23,-239.68 389.73,-246 400.32,-246.36 398.23,-239.68"/>
</g>
<!-- Node3 -->
<g id="node3" class="node">
<title>Node3</title>
<g id="a_node3"><a xlink:title="STL class.">
<polygon fill="white" stroke="#bfbfbf" points="157,-260.5 157,-279.5 217,-279.5 217,-260.5 157,-260.5"/>
<text text-anchor="middle" x="187" y="-267.5" font-family="Helvetica,sans-Serif" font-size="10.00">std::string</text>
</a>
</g>
</g>
<!-- Node3&#45;&gt;Node2 -->
<g id="edge2" class="edge">
<title>Node3&#45;&gt;Node2</title>
<path fill="none" stroke="#9a32cd" stroke-dasharray="5,2" d="M227.54,-266.17C261.91,-262.84 310.57,-258.13 339.4,-255.33"/>
<polygon fill="#9a32cd" stroke="#9a32cd" points="226.99,-262.71 217.37,-267.15 227.67,-269.67 226.99,-262.71"/>
<text text-anchor="middle" x="274" y="-277" font-family="Helvetica,sans-Serif" font-size="10.00"> name</text>
<text text-anchor="middle" x="274" y="-266" font-family="Helvetica,sans-Serif" font-size="10.00">units</text>
</g>
<!-- Node4 -->
<g id="node4" class="node">
<title>Node4</title>
<g id="a_node4"><a xlink:title="STL class.">
<polygon fill="white" stroke="#bfbfbf" points="0,-255 0,-285 95,-285 95,-255 0,-255"/>
<text text-anchor="start" x="8" y="-273" font-family="Helvetica,sans-Serif" font-size="10.00">std::basic_string&lt;</text>
<text text-anchor="middle" x="47.5" y="-262" font-family="Helvetica,sans-Serif" font-size="10.00"> char &gt;</text>
</a>
</g>
</g>
<!-- Node4&#45;&gt;Node3 -->
<g id="edge3" class="edge">
<title>Node4&#45;&gt;Node3</title>
<path fill="none" stroke="midnightblue" d="M105.3,-270C122.98,-270 141.74,-270 156.72,-270"/>
<polygon fill="midnightblue" stroke="midnightblue" points="105.05,-266.5 95.05,-270 105.05,-273.5 105.05,-266.5"/>
</g>
<!-- Node5 -->
<g id="node5" class="node">
<title>Node5</title>
<g id="a_node5"><a xlink:title=" ">
<polygon fill="white" stroke="#bfbfbf" points="132,-199.5 132,-218.5 242,-218.5 242,-199.5 132,-199.5"/>
<text text-anchor="middle" x="187" y="-206.5" font-family="Helvetica,sans-Serif" font-size="10.00">std::vector&lt; double &gt;</text>
</a>
</g>
</g>
<!-- Node5&#45;&gt;Node1 -->
<g id="edge8" class="edge">
<title>Node5&#45;&gt;Node1</title>
<path fill="none" stroke="#9a32cd" stroke-dasharray="5,2" d="M252.48,-197.95C330.59,-184.56 460.89,-162.22 534.82,-149.55"/>
<polygon fill="#9a32cd" stroke="#9a32cd" points="251.55,-194.55 242.28,-199.69 252.73,-201.45 251.55,-194.55"/>
<text text-anchor="middle" x="364.5" y="-212" font-family="Helvetica,sans-Serif" font-size="10.00"> holes</text>
<text text-anchor="middle" x="364.5" y="-201" font-family="Helvetica,sans-Serif" font-size="10.00">regions</text>
<text text-anchor="middle" x="364.5" y="-190" font-family="Helvetica,sans-Serif" font-size="10.00">v</text>
</g>
<!-- Node5&#45;&gt;Node2 -->
<g id="edge4" class="edge">
<title>Node5&#45;&gt;Node2</title>
<path fill="none" stroke="#9a32cd" stroke-dasharray="5,2" d="M236.38,-221.08C252.77,-225.18 271.18,-229.78 288,-234 305.17,-238.31 324.54,-243.18 339.36,-246.92"/>
<polygon fill="#9a32cd" stroke="#9a32cd" points="237.02,-217.63 226.47,-218.6 235.32,-224.42 237.02,-217.63"/>
<text text-anchor="middle" x="274" y="-248" font-family="Helvetica,sans-Serif" font-size="10.00"> L</text>
<text text-anchor="middle" x="274" y="-237" font-family="Helvetica,sans-Serif" font-size="10.00">x</text>
</g>
<!-- Node6 -->
<g id="node6" class="node">
<title>Node6</title>
<g id="a_node6"><a xlink:title=" ">
<polygon fill="white" stroke="#bfbfbf" points="306,-125 306,-155 423,-155 423,-125 306,-125"/>
<text text-anchor="start" x="314" y="-143" font-family="Helvetica,sans-Serif" font-size="10.00">std::vector&lt; vector</text>
<text text-anchor="middle" x="364.5" y="-132" font-family="Helvetica,sans-Serif" font-size="10.00">&lt; vector&lt; double &gt; &gt; &gt;</text>
</a>
</g>
</g>
<!-- Node6&#45;&gt;Node1 -->
<g id="edge5" class="edge">
<title>Node6&#45;&gt;Node1</title>
<path fill="none" stroke="#9a32cd" stroke-dasharray="5,2" d="M433.4,-140C457.83,-140 485.61,-140 510.94,-140"/>
<polygon fill="#9a32cd" stroke="#9a32cd" points="433.15,-136.5 423.15,-140 433.15,-143.5 433.15,-136.5"/>
<text text-anchor="middle" x="467" y="-143" font-family="Helvetica,sans-Serif" font-size="10.00"> vertices</text>
</g>
<!-- Node7 -->
<g id="node7" class="node">
<title>Node7</title>
<g id="a_node7"><a xlink:title=" ">
<polygon fill="white" stroke="#bfbfbf" points="315,-76 315,-106 414,-106 414,-76 315,-76"/>
<text text-anchor="start" x="323" y="-94" font-family="Helvetica,sans-Serif" font-size="10.00">std::vector&lt; vector</text>
<text text-anchor="middle" x="364.5" y="-83" font-family="Helvetica,sans-Serif" font-size="10.00">&lt; vector&lt; int &gt; &gt; &gt;</text>
</a>
</g>
</g>
<!-- Node7&#45;&gt;Node1 -->
<g id="edge6" class="edge">
<title>Node7&#45;&gt;Node1</title>
<path fill="none" stroke="#9a32cd" stroke-dasharray="5,2" d="M424.04,-103.75C462.37,-112.1 511.65,-122.83 546.62,-130.44"/>
<polygon fill="#9a32cd" stroke="#9a32cd" points="424.56,-100.28 414.04,-101.57 423.07,-107.12 424.56,-100.28"/>
<text text-anchor="middle" x="467" y="-121" font-family="Helvetica,sans-Serif" font-size="10.00"> facets</text>
</g>
<!-- Node8 -->
<g id="node8" class="node">
<title>Node8</title>
<g id="a_node8"><a xlink:title=" ">
<polygon fill="white" stroke="#bfbfbf" points="318.5,-0.5 318.5,-19.5 410.5,-19.5 410.5,-0.5 318.5,-0.5"/>
<text text-anchor="middle" x="364.5" y="-7.5" font-family="Helvetica,sans-Serif" font-size="10.00">std::vector&lt; int &gt;</text>
</a>
</g>
</g>
<!-- Node8&#45;&gt;Node1 -->
<g id="edge7" class="edge">
<title>Node8&#45;&gt;Node1</title>
<path fill="none" stroke="#9a32cd" stroke-dasharray="5,2" d="M420.73,-14.9C444.16,-18.77 471.06,-25.67 493,-38 535.28,-61.77 570.48,-109.79 584.26,-130.33"/>
<polygon fill="#9a32cd" stroke="#9a32cd" points="420.99,-11.4 410.58,-13.38 419.95,-18.33 420.99,-11.4"/>
<text text-anchor="middle" x="467" y="-96" font-family="Helvetica,sans-Serif" font-size="10.00"> f</text>
<text text-anchor="middle" x="467" y="-85" font-family="Helvetica,sans-Serif" font-size="10.00">fN</text>
<text text-anchor="middle" x="467" y="-74" font-family="Helvetica,sans-Serif" font-size="10.00">facetFlags</text>
<text text-anchor="middle" x="467" y="-63" font-family="Helvetica,sans-Serif" font-size="10.00">facetHoles</text>
<text text-anchor="middle" x="467" y="-52" font-family="Helvetica,sans-Serif" font-size="10.00">vN</text>
<text text-anchor="middle" x="467" y="-41" font-family="Helvetica,sans-Serif" font-size="10.00">vertexFlags</text>
</g>
</g>
</svg>
