<?xml version="1.0" encoding="UTF-8" standalone="no"?>
<!DOCTYPE svg PUBLIC "-//W3C//DTD SVG 1.1//EN"
 "http://www.w3.org/Graphics/SVG/1.1/DTD/svg11.dtd">
<!-- Generated by graphviz version 2.40.1 (20161225.0304)
 -->
<!-- Title: proteus::RANS2P2D&lt; CompKernelType, CompKernelType_v, nSpace, nQuadraturePoints_element, nDOF_mesh_trial_element, nDOF_trial_element, nDOF_test_element, nDOF_v_trial_element, nDOF_v_test_element, nQuadraturePoints_elementBoundary &gt; Pages: 1 -->
<svg width="622pt" height="188pt"
 viewBox="0.00 0.00 622.00 188.00" xmlns="http://www.w3.org/2000/svg" xmlns:xlink="http://www.w3.org/1999/xlink">
<g id="graph0" class="graph" transform="scale(1 1) rotate(0) translate(4 184)">
<title>proteus::RANS2P2D&lt; CompKernelType, CompKernelType_v, nSpace, nQuadraturePoints_element, nDOF_mesh_trial_element, nDOF_trial_element, nDOF_test_element, nDOF_v_trial_element, nDOF_v_test_element, nQuadraturePoints_elementBoundary &gt;</title>
<polygon fill="#ffffff" stroke="transparent" points="-4,4 -4,-184 618,-184 618,4 -4,4"/>
<!-- Node2 -->
<g id="node1" class="node">
<title>Node2</title>
<polygon fill="#bfbfbf" stroke="#000000" points="390,-38.5 390,-123.5 614,-123.5 614,-38.5 390,-38.5"/>
<text text-anchor="start" x="398" y="-111.5" font-family="Helvetica,sans-Serif" font-size="10.00" fill="#000000">proteus::RANS2P2D&lt;</text>
<text text-anchor="start" x="398" y="-100.5" font-family="Helvetica,sans-Serif" font-size="10.00" fill="#000000"> CompKernelType, CompKernel</text>
<text text-anchor="start" x="398" y="-89.5" font-family="Helvetica,sans-Serif" font-size="10.00" fill="#000000">Type_v, nSpace, nQuadraturePoints</text>
<text text-anchor="start" x="398" y="-78.5" font-family="Helvetica,sans-Serif" font-size="10.00" fill="#000000">_element, nDOF_mesh_trial_element,</text>
<text text-anchor="start" x="398" y="-67.5" font-family="Helvetica,sans-Serif" font-size="10.00" fill="#000000"> nDOF_trial_element, nDOF_test_element,</text>
<text text-anchor="start" x="398" y="-56.5" font-family="Helvetica,sans-Serif" font-size="10.00" fill="#000000"> nDOF_v_trial_element, nDOF_v_test_element,</text>
<text text-anchor="middle" x="502" y="-45.5" font-family="Helvetica,sans-Serif" font-size="10.00" fill="#000000"> nQuadraturePoints_elementBoundary &gt;</text>
</g>
<!-- Node3 -->
<g id="node2" class="node">
<title>Node3</title>
<g id="a_node2"><a xlink:href="classproteus_1_1_r_a_n_s2_p2_d__base.html" target="_top" xlink:title="proteus::RANS2P2D_base">
<polygon fill="#ffffff" stroke="#000000" points="49.5,-160.5 49.5,-179.5 183.5,-179.5 183.5,-160.5 49.5,-160.5"/>
<text text-anchor="middle" x="116.5" y="-167.5" font-family="Helvetica,sans-Serif" font-size="10.00" fill="#000000">proteus::RANS2P2D_base</text>
</a>
</g>
</g>
<!-- Node3&#45;&gt;Node2 -->
<g id="edge1" class="edge">
<title>Node3&#45;&gt;Node2</title>
<path fill="none" stroke="#191970" d="M193.7869,-167.1359C245.0949,-163.7292 313.5105,-156.2797 372,-140 387.2816,-135.7466 403.0473,-129.9324 418.1001,-123.6036"/>
<polygon fill="#191970" stroke="#191970" points="193.5227,-163.6455 183.7615,-167.7648 193.961,-170.6318 193.5227,-163.6455"/>
</g>
<!-- Node4 -->
<g id="node3" class="node">
<title>Node4</title>
<g id="a_node3"><a xlink:href="classequivalent__polynomials_1_1_generalized_functions__mix.html" target="_top" xlink:title="equivalent_polynomials\l::GeneralizedFunctions\l_mix\&lt; nSpace, 3, nQuadraturePoints\l_element, nQuadraturePoints_elementBoundary \&gt;">
<polygon fill="#ffffff" stroke="#000000" points="0,-89 0,-141 233,-141 233,-89 0,-89"/>
<text text-anchor="start" x="8" y="-129" font-family="Helvetica,sans-Serif" font-size="10.00" fill="#000000">equivalent_polynomials</text>
<text text-anchor="start" x="8" y="-118" font-family="Helvetica,sans-Serif" font-size="10.00" fill="#000000">::GeneralizedFunctions</text>
<text text-anchor="start" x="8" y="-107" font-family="Helvetica,sans-Serif" font-size="10.00" fill="#000000">_mix&lt; nSpace, 3, nQuadraturePoints</text>
<text text-anchor="middle" x="116.5" y="-96" font-family="Helvetica,sans-Serif" font-size="10.00" fill="#000000">_element, nQuadraturePoints_elementBoundary &gt;</text>
</a>
</g>
</g>
<!-- Node4&#45;&gt;Node2 -->
<g id="edge2" class="edge">
<title>Node4&#45;&gt;Node2</title>
<path fill="none" stroke="#9a32cd" stroke-dasharray="5,2" d="M243.2726,-104.2393C284.3473,-100.7113 330.1104,-96.7368 372,-93 377.8697,-92.4764 383.888,-91.9354 389.9643,-91.3858"/>
<polygon fill="#9a32cd" stroke="#9a32cd" points="242.877,-100.7603 233.2129,-105.1025 243.4755,-107.7346 242.877,-100.7603"/>
<text text-anchor="middle" x="311.5" y="-128" font-family="Helvetica,sans-Serif" font-size="10.00" fill="#000000"> gf_s</text>
<text text-anchor="middle" x="311.5" y="-117" font-family="Helvetica,sans-Serif" font-size="10.00" fill="#000000">gf_p</text>
<text text-anchor="middle" x="311.5" y="-106" font-family="Helvetica,sans-Serif" font-size="10.00" fill="#000000">gf</text>
</g>
<!-- Node5 -->
<g id="node4" class="node">
<title>Node5</title>
<polygon fill="#ffffff" stroke="#bfbfbf" points="77.5,-38.5 77.5,-57.5 155.5,-57.5 155.5,-38.5 77.5,-38.5"/>
<text text-anchor="middle" x="116.5" y="-45.5" font-family="Helvetica,sans-Serif" font-size="10.00" fill="#000000">std::set&lt; int &gt;</text>
</g>
<!-- Node5&#45;&gt;Node2 -->
<g id="edge3" class="edge">
<title>Node5&#45;&gt;Node2</title>
<path fill="none" stroke="#9a32cd" stroke-dasharray="5,2" d="M165.8429,-44.7427C217.4636,-42.1405 300.746,-40.2177 372,-49 377.8825,-49.725 383.8829,-50.6231 389.9195,-51.6526"/>
<polygon fill="#9a32cd" stroke="#9a32cd" points="165.4384,-41.2592 155.6391,-45.2869 165.8113,-48.2492 165.4384,-41.2592"/>
<text text-anchor="middle" x="311.5" y="-85" font-family="Helvetica,sans-Serif" font-size="10.00" fill="#000000"> ifem_boundary_elements</text>
<text text-anchor="middle" x="311.5" y="-74" font-family="Helvetica,sans-Serif" font-size="10.00" fill="#000000">cutfem_boundary_elements</text>
<text text-anchor="middle" x="311.5" y="-63" font-family="Helvetica,sans-Serif" font-size="10.00" fill="#000000">cutfem_boundaries</text>
<text text-anchor="middle" x="311.5" y="-52" font-family="Helvetica,sans-Serif" font-size="10.00" fill="#000000">ifem_boundaries</text>
</g>
<!-- Node6 -->
<g id="node5" class="node">
<title>Node6</title>
<polygon fill="#ffffff" stroke="#bfbfbf" points="63,-.5 63,-19.5 170,-19.5 170,-.5 63,-.5"/>
<text text-anchor="middle" x="116.5" y="-7.5" font-family="Helvetica,sans-Serif" font-size="10.00" fill="#000000">std::valarray&lt; bool &gt;</text>
</g>
<!-- Node6&#45;&gt;Node2 -->
<g id="edge4" class="edge">
<title>Node6&#45;&gt;Node2</title>
<path fill="none" stroke="#9a32cd" stroke-dasharray="5,2" d="M180.1959,-8.9392C232.3946,-9.3872 307.8479,-13.0653 372,-28 383.6318,-30.7079 395.5735,-34.3209 407.2803,-38.3933"/>
<polygon fill="#9a32cd" stroke="#9a32cd" points="180.0932,-5.4388 170.0764,-8.8903 180.0593,-12.4387 180.0932,-5.4388"/>
<text text-anchor="middle" x="311.5" y="-31" font-family="Helvetica,sans-Serif" font-size="10.00" fill="#000000"> elementIsActive</text>
</g>
</g>
</svg>
