<?xml version="1.0" encoding="UTF-8" standalone="no"?>
<!DOCTYPE svg PUBLIC "-//W3C//DTD SVG 1.1//EN"
 "http://www.w3.org/Graphics/SVG/1.1/DTD/svg11.dtd">
<!-- Generated by graphviz version 2.50.0 (20211204.2007)
 -->
<!-- Title: proteus::cppPres_base Pages: 1 -->
<svg width="364pt" height="72pt"
 viewBox="0.00 0.00 364.00 72.00" xmlns="http://www.w3.org/2000/svg" xmlns:xlink="http://www.w3.org/1999/xlink">
<g id="graph0" class="graph" transform="scale(1 1) rotate(0) translate(4 68)">
<title>proteus::cppPres_base</title>
<polygon fill="white" stroke="transparent" points="-4,4 -4,-68 360,-68 360,4 -4,4"/>
<!-- Node1 -->
<g id="node1" class="node">
<title>Node1</title>
<g id="a_node1"><a xlink:title=" ">
<polygon fill="#bfbfbf" stroke="black" points="0,-22.5 0,-41.5 117,-41.5 117,-22.5 0,-22.5"/>
<text text-anchor="middle" x="58.5" y="-29.5" font-family="Helvetica,sans-Serif" font-size="10.00">proteus::cppPres_base</text>
</a>
</g>
</g>
<!-- Node2 -->
<g id="node2" class="node">
<title>Node2</title>
<g id="a_node2"><a xlink:href="classproteus_1_1cpp_pres.html" target="_top" xlink:title=" ">
<polygon fill="white" stroke="black" points="153,-0.5 153,-63.5 356,-63.5 356,-0.5 153,-0.5"/>
<text text-anchor="start" x="161" y="-51.5" font-family="Helvetica,sans-Serif" font-size="10.00">proteus::cppPres&lt; CompKernel</text>
<text text-anchor="start" x="161" y="-40.5" font-family="Helvetica,sans-Serif" font-size="10.00">Type, nSpace, nQuadraturePoints</text>
<text text-anchor="start" x="161" y="-29.5" font-family="Helvetica,sans-Serif" font-size="10.00">_element, nDOF_mesh_trial_element,</text>
<text text-anchor="start" x="161" y="-18.5" font-family="Helvetica,sans-Serif" font-size="10.00"> nDOF_trial_element, nDOF_test_element,</text>
<text text-anchor="middle" x="254.5" y="-7.5" font-family="Helvetica,sans-Serif" font-size="10.00"> nQuadraturePoints_elementBoundary &gt;</text>
</a>
</g>
</g>
<!-- Node1&#45;&gt;Node2 -->
<g id="edge1" class="edge">
<title>Node1&#45;&gt;Node2</title>
<path fill="none" stroke="midnightblue" d="M127.43,-32C135.67,-32 144.22,-32 152.81,-32"/>
<polygon fill="midnightblue" stroke="midnightblue" points="127.18,-28.5 117.18,-32 127.18,-35.5 127.18,-28.5"/>
</g>
</g>
</svg>
