<?xml version="1.0" encoding="UTF-8" standalone="no"?>
<!DOCTYPE svg PUBLIC "-//W3C//DTD SVG 1.1//EN"
 "http://www.w3.org/Graphics/SVG/1.1/DTD/svg11.dtd">
<!-- Generated by graphviz version 2.40.1 (20161225.0304)
 -->
<!-- Title: proteus::Dissipation2D&lt; CompKernelType, nSpace, nQuadraturePoints_element, nDOF_mesh_trial_element, nDOF_trial_element, nDOF_test_element, nQuadraturePoints_elementBoundary &gt; Pages: 1 -->
<svg width="328pt" height="150pt"
 viewBox="0.00 0.00 327.50 150.00" xmlns="http://www.w3.org/2000/svg" xmlns:xlink="http://www.w3.org/1999/xlink">
<g id="graph0" class="graph" transform="scale(1 1) rotate(0) translate(4 146)">
<title>proteus::Dissipation2D&lt; CompKernelType, nSpace, nQuadraturePoints_element, nDOF_mesh_trial_element, nDOF_trial_element, nDOF_test_element, nQuadraturePoints_elementBoundary &gt;</title>
<polygon fill="#ffffff" stroke="transparent" points="-4,4 -4,-146 323.5,-146 323.5,4 -4,4"/>
<!-- Node2 -->
<g id="node1" class="node">
<title>Node2</title>
<polygon fill="#bfbfbf" stroke="#000000" points="39,-.5 39,-74.5 272,-74.5 272,-.5 39,-.5"/>
<text text-anchor="start" x="47" y="-62.5" font-family="Helvetica,sans-Serif" font-size="10.00" fill="#000000">proteus::Dissipation2D</text>
<text text-anchor="start" x="47" y="-51.5" font-family="Helvetica,sans-Serif" font-size="10.00" fill="#000000">&lt; CompKernelType, nSpace,</text>
<text text-anchor="start" x="47" y="-40.5" font-family="Helvetica,sans-Serif" font-size="10.00" fill="#000000"> nQuadraturePoints_element,</text>
<text text-anchor="start" x="47" y="-29.5" font-family="Helvetica,sans-Serif" font-size="10.00" fill="#000000"> nDOF_mesh_trial_element,</text>
<text text-anchor="start" x="47" y="-18.5" font-family="Helvetica,sans-Serif" font-size="10.00" fill="#000000"> nDOF_trial_element, nDOF_test</text>
<text text-anchor="middle" x="155.5" y="-7.5" font-family="Helvetica,sans-Serif" font-size="10.00" fill="#000000">_element, nQuadraturePoints_elementBoundary &gt;</text>
</g>
<!-- Node3 -->
<g id="node2" class="node">
<title>Node3</title>
<g id="a_node2"><a xlink:href="classproteus_1_1_dissipation2_d__base.html" target="_top" xlink:title="proteus::Dissipation2D_base">
<polygon fill="#ffffff" stroke="#000000" points="0,-122.5 0,-141.5 143,-141.5 143,-122.5 0,-122.5"/>
<text text-anchor="middle" x="71.5" y="-129.5" font-family="Helvetica,sans-Serif" font-size="10.00" fill="#000000">proteus::Dissipation2D_base</text>
</a>
</g>
</g>
<!-- Node3&#45;&gt;Node2 -->
<g id="edge1" class="edge">
<title>Node3&#45;&gt;Node2</title>
<path fill="none" stroke="#191970" d="M87.0465,-114.5102C96.9782,-103.337 110.2384,-88.4193 122.4423,-74.6899"/>
<polygon fill="#191970" stroke="#191970" points="84.2008,-112.4434 80.1731,-122.2428 89.4327,-117.0939 84.2008,-112.4434"/>
</g>
<!-- Node4 -->
<g id="node3" class="node">
<title>Node4</title>
<g id="a_node3"><a xlink:href="classproteus_1_1cpp_hsu_sed_stress.html" target="_top" xlink:title="proteus::cppHsuSedStress\&lt; 2 \&gt;">
<polygon fill="#ffffff" stroke="#000000" points="161.5,-122.5 161.5,-141.5 319.5,-141.5 319.5,-122.5 161.5,-122.5"/>
<text text-anchor="middle" x="240.5" y="-129.5" font-family="Helvetica,sans-Serif" font-size="10.00" fill="#000000">proteus::cppHsuSedStress&lt; 2 &gt;</text>
</a>
</g>
</g>
<!-- Node4&#45;&gt;Node2 -->
<g id="edge2" class="edge">
<title>Node4&#45;&gt;Node2</title>
<path fill="none" stroke="#9a32cd" stroke-dasharray="5,2" d="M224.7684,-114.5102C214.7185,-103.337 201.3004,-88.4193 188.9513,-74.6899"/>
<polygon fill="#9a32cd" stroke="#9a32cd" points="222.4339,-117.1485 231.7237,-122.2428 227.6384,-112.4672 222.4339,-117.1485"/>
<text text-anchor="middle" x="230" y="-96" font-family="Helvetica,sans-Serif" font-size="10.00" fill="#000000"> closure</text>
</g>
</g>
</svg>
