<?xml version="1.0" encoding="UTF-8" standalone="no"?>
<!DOCTYPE svg PUBLIC "-//W3C//DTD SVG 1.1//EN"
 "http://www.w3.org/Graphics/SVG/1.1/DTD/svg11.dtd">
<!-- Generated by graphviz version 2.40.1 (20161225.0304)
 -->
<!-- Title: proteus::Dissipation&lt; CompKernelType, nSpace, nQuadraturePoints_element, nDOF_mesh_trial_element, nDOF_trial_element, nDOF_test_element, nQuadraturePoints_elementBoundary &gt; Pages: 1 -->
<svg width="314pt" height="150pt"
 viewBox="0.00 0.00 314.00 150.00" xmlns="http://www.w3.org/2000/svg" xmlns:xlink="http://www.w3.org/1999/xlink">
<g id="graph0" class="graph" transform="scale(1 1) rotate(0) translate(4 146)">
<title>proteus::Dissipation&lt; CompKernelType, nSpace, nQuadraturePoints_element, nDOF_mesh_trial_element, nDOF_trial_element, nDOF_test_element, nQuadraturePoints_elementBoundary &gt;</title>
<polygon fill="#ffffff" stroke="transparent" points="-4,4 -4,-146 310,-146 310,4 -4,4"/>
<!-- Node2 -->
<g id="node1" class="node">
<title>Node2</title>
<polygon fill="#bfbfbf" stroke="#000000" points="29.5,-.5 29.5,-74.5 262.5,-74.5 262.5,-.5 29.5,-.5"/>
<text text-anchor="start" x="37.5" y="-62.5" font-family="Helvetica,sans-Serif" font-size="10.00" fill="#000000">proteus::Dissipation</text>
<text text-anchor="start" x="37.5" y="-51.5" font-family="Helvetica,sans-Serif" font-size="10.00" fill="#000000">&lt; CompKernelType, nSpace,</text>
<text text-anchor="start" x="37.5" y="-40.5" font-family="Helvetica,sans-Serif" font-size="10.00" fill="#000000"> nQuadraturePoints_element,</text>
<text text-anchor="start" x="37.5" y="-29.5" font-family="Helvetica,sans-Serif" font-size="10.00" fill="#000000"> nDOF_mesh_trial_element,</text>
<text text-anchor="start" x="37.5" y="-18.5" font-family="Helvetica,sans-Serif" font-size="10.00" fill="#000000"> nDOF_trial_element, nDOF_test</text>
<text text-anchor="middle" x="146" y="-7.5" font-family="Helvetica,sans-Serif" font-size="10.00" fill="#000000">_element, nQuadraturePoints_elementBoundary &gt;</text>
</g>
<!-- Node3 -->
<g id="node2" class="node">
<title>Node3</title>
<g id="a_node2"><a xlink:href="classproteus_1_1_dissipation__base.html" target="_top" xlink:title="proteus::Dissipation_base">
<polygon fill="#ffffff" stroke="#000000" points="0,-122.5 0,-141.5 130,-141.5 130,-122.5 0,-122.5"/>
<text text-anchor="middle" x="65" y="-129.5" font-family="Helvetica,sans-Serif" font-size="10.00" fill="#000000">proteus::Dissipation_base</text>
</a>
</g>
</g>
<!-- Node3&#45;&gt;Node2 -->
<g id="edge1" class="edge">
<title>Node3&#45;&gt;Node2</title>
<path fill="none" stroke="#191970" d="M79.9913,-114.5102C89.5683,-103.337 102.3549,-88.4193 114.1229,-74.6899"/>
<polygon fill="#191970" stroke="#191970" points="77.2139,-112.3724 73.3633,-122.2428 82.5287,-116.928 77.2139,-112.3724"/>
</g>
<!-- Node4 -->
<g id="node3" class="node">
<title>Node4</title>
<g id="a_node3"><a xlink:href="classproteus_1_1cpp_hsu_sed_stress.html" target="_top" xlink:title="proteus::cppHsuSedStress\&lt; 3 \&gt;">
<polygon fill="#ffffff" stroke="#000000" points="148,-122.5 148,-141.5 306,-141.5 306,-122.5 148,-122.5"/>
<text text-anchor="middle" x="227" y="-129.5" font-family="Helvetica,sans-Serif" font-size="10.00" fill="#000000">proteus::cppHsuSedStress&lt; 3 &gt;</text>
</a>
</g>
</g>
<!-- Node4&#45;&gt;Node2 -->
<g id="edge2" class="edge">
<title>Node4&#45;&gt;Node2</title>
<path fill="none" stroke="#9a32cd" stroke-dasharray="5,2" d="M212.0087,-114.5102C202.4317,-103.337 189.6451,-88.4193 177.8771,-74.6899"/>
<polygon fill="#9a32cd" stroke="#9a32cd" points="209.4713,-116.928 218.6367,-122.2428 214.7861,-112.3724 209.4713,-116.928"/>
<text text-anchor="middle" x="217.5" y="-96" font-family="Helvetica,sans-Serif" font-size="10.00" fill="#000000"> closure</text>
</g>
</g>
</svg>
