<?xml version="1.0" encoding="UTF-8" standalone="no"?>
<!DOCTYPE svg PUBLIC "-//W3C//DTD SVG 1.1//EN"
 "http://www.w3.org/Graphics/SVG/1.1/DTD/svg11.dtd">
<!-- Generated by graphviz version 2.43.0 (0)
 -->
<!-- Title: proteus::RANS2P2D&lt; CompKernelType, CompKernelType_v, nSpace, nQuadraturePoints_element, nDOF_mesh_trial_element, nDOF_trial_element, nDOF_test_element, nDOF_v_trial_element, nDOF_v_test_element, nQuadraturePoints_elementBoundary &gt; Pages: 1 -->
<svg width="680pt" height="178pt"
 viewBox="0.00 0.00 680.00 178.00" xmlns="http://www.w3.org/2000/svg" xmlns:xlink="http://www.w3.org/1999/xlink">
<g id="graph0" class="graph" transform="scale(1 1) rotate(0) translate(4 174)">
<title>proteus::RANS2P2D&lt; CompKernelType, CompKernelType_v, nSpace, nQuadraturePoints_element, nDOF_mesh_trial_element, nDOF_trial_element, nDOF_test_element, nDOF_v_trial_element, nDOF_v_test_element, nQuadraturePoints_elementBoundary &gt;</title>
<polygon fill="white" stroke="transparent" points="-4,4 -4,-174 676,-174 676,4 -4,4"/>
<!-- Node1 -->
<g id="node1" class="node">
<title>Node1</title>
<g id="a_node1"><a xlink:title=" ">
<polygon fill="#bfbfbf" stroke="black" points="427,-51.5 427,-136.5 672,-136.5 672,-51.5 427,-51.5"/>
<text text-anchor="start" x="435" y="-124.5" font-family="Helvetica,sans-Serif" font-size="10.00">proteus::RANS2P2D&lt;</text>
<text text-anchor="start" x="435" y="-113.5" font-family="Helvetica,sans-Serif" font-size="10.00"> CompKernelType, CompKernel</text>
<text text-anchor="start" x="435" y="-102.5" font-family="Helvetica,sans-Serif" font-size="10.00">Type_v, nSpace, nQuadraturePoints</text>
<text text-anchor="start" x="435" y="-91.5" font-family="Helvetica,sans-Serif" font-size="10.00">_element, nDOF_mesh_trial_element,</text>
<text text-anchor="start" x="435" y="-80.5" font-family="Helvetica,sans-Serif" font-size="10.00"> nDOF_trial_element, nDOF_test_element,</text>
<text text-anchor="start" x="435" y="-69.5" font-family="Helvetica,sans-Serif" font-size="10.00"> nDOF_v_trial_element, nDOF_v_test_element,</text>
<text text-anchor="middle" x="549.5" y="-58.5" font-family="Helvetica,sans-Serif" font-size="10.00"> nQuadraturePoints_elementBoundary &gt;</text>
</a>
</g>
</g>
<!-- Node2 -->
<g id="node2" class="node">
<title>Node2</title>
<g id="a_node2"><a xlink:href="classproteus_1_1_r_a_n_s2_p2_d__base.html" target="_top" xlink:title=" ">
<polygon fill="white" stroke="black" points="61.5,-150.5 61.5,-169.5 201.5,-169.5 201.5,-150.5 61.5,-150.5"/>
<text text-anchor="middle" x="131.5" y="-157.5" font-family="Helvetica,sans-Serif" font-size="10.00">proteus::RANS2P2D_base</text>
</a>
</g>
</g>
<!-- Node2&#45;&gt;Node1 -->
<g id="edge1" class="edge">
<title>Node2&#45;&gt;Node1</title>
<path fill="none" stroke="midnightblue" d="M211.65,-152.46C267.12,-146.64 342.85,-137.62 409,-126 414.87,-124.97 420.87,-123.85 426.92,-122.67"/>
<polygon fill="midnightblue" stroke="midnightblue" points="211.12,-148.99 201.54,-153.51 211.85,-155.96 211.12,-148.99"/>
</g>
<!-- Node3 -->
<g id="node3" class="node">
<title>Node3</title>
<g id="a_node3"><a xlink:title=" ">
<polygon fill="white" stroke="#bfbfbf" points="75,-112.5 75,-131.5 188,-131.5 188,-112.5 75,-112.5"/>
<text text-anchor="middle" x="131.5" y="-119.5" font-family="Helvetica,sans-Serif" font-size="10.00">std::map&lt; int, int &gt;</text>
</a>
</g>
</g>
<!-- Node3&#45;&gt;Node1 -->
<g id="edge2" class="edge">
<title>Node3&#45;&gt;Node1</title>
<path fill="none" stroke="#9a32cd" stroke-dasharray="5,2" d="M198.46,-117.56C259.6,-113.45 352.08,-107.22 426.63,-102.2"/>
<polygon fill="#9a32cd" stroke="#9a32cd" points="197.91,-114.09 188.17,-118.25 198.38,-121.07 197.91,-114.09"/>
<text text-anchor="middle" x="345" y="-114" font-family="Helvetica,sans-Serif" font-size="10.00"> cutfem_local_boundaries</text>
</g>
<!-- Node4 -->
<g id="node4" class="node">
<title>Node4</title>
<g id="a_node4"><a xlink:href="classequivalent__polynomials_1_1_generalized_functions__mix.html" target="_top" xlink:title=" ">
<polygon fill="white" stroke="black" points="0,-40 0,-92 263,-92 263,-40 0,-40"/>
<text text-anchor="start" x="8" y="-80" font-family="Helvetica,sans-Serif" font-size="10.00">equivalent_polynomials</text>
<text text-anchor="start" x="8" y="-69" font-family="Helvetica,sans-Serif" font-size="10.00">::GeneralizedFunctions</text>
<text text-anchor="start" x="8" y="-58" font-family="Helvetica,sans-Serif" font-size="10.00">_mix&lt; nSpace, 3, nQuadraturePoints</text>
<text text-anchor="middle" x="131.5" y="-47" font-family="Helvetica,sans-Serif" font-size="10.00">_element, nQuadraturePoints_elementBoundary &gt;</text>
</a>
</g>
</g>
<!-- Node4&#45;&gt;Node1 -->
<g id="edge3" class="edge">
<title>Node4&#45;&gt;Node1</title>
<path fill="none" stroke="#9a32cd" stroke-dasharray="5,2" d="M273.32,-60.62C316.9,-60.4 365.02,-61.63 409,-66 414.9,-66.59 420.92,-67.31 426.98,-68.14"/>
<polygon fill="#9a32cd" stroke="#9a32cd" points="273.19,-57.12 263.22,-60.7 273.25,-64.12 273.19,-57.12"/>
<text text-anchor="middle" x="345" y="-91" font-family="Helvetica,sans-Serif" font-size="10.00"> gf_s</text>
<text text-anchor="middle" x="345" y="-80" font-family="Helvetica,sans-Serif" font-size="10.00">gf_p</text>
<text text-anchor="middle" x="345" y="-69" font-family="Helvetica,sans-Serif" font-size="10.00">gf</text>
</g>
<!-- Node5 -->
<g id="node5" class="node">
<title>Node5</title>
<g id="a_node5"><a xlink:title=" ">
<polygon fill="white" stroke="#bfbfbf" points="87.5,-0.5 87.5,-19.5 175.5,-19.5 175.5,-0.5 87.5,-0.5"/>
<text text-anchor="middle" x="131.5" y="-7.5" font-family="Helvetica,sans-Serif" font-size="10.00">std::set&lt; int &gt;</text>
</a>
</g>
</g>
<!-- Node5&#45;&gt;Node1 -->
<g id="edge4" class="edge">
<title>Node5&#45;&gt;Node1</title>
<path fill="none" stroke="#9a32cd" stroke-dasharray="5,2" d="M186.1,-6.26C242.54,-3.81 333.53,-4.1 409,-24 432.32,-30.15 456.28,-40.48 477.63,-51.35"/>
<polygon fill="#9a32cd" stroke="#9a32cd" points="185.79,-2.77 175.97,-6.75 186.13,-9.77 185.79,-2.77"/>
<text text-anchor="middle" x="345" y="-49" font-family="Helvetica,sans-Serif" font-size="10.00"> ifem_boundary_elements</text>
<text text-anchor="middle" x="345" y="-38" font-family="Helvetica,sans-Serif" font-size="10.00">cutfem_boundaries</text>
<text text-anchor="middle" x="345" y="-27" font-family="Helvetica,sans-Serif" font-size="10.00">ifem_boundaries</text>
</g>
</g>
</svg>
