<?xml version="1.0" encoding="UTF-8" standalone="no"?>
<!DOCTYPE svg PUBLIC "-//W3C//DTD SVG 1.1//EN"
 "http://www.w3.org/Graphics/SVG/1.1/DTD/svg11.dtd">
<!-- Generated by graphviz version 2.50.0 (20211204.2007)
 -->
<!-- Title: cppSystem Pages: 1 -->
<svg width="388pt" height="174pt"
 viewBox="0.00 0.00 387.50 174.00" xmlns="http://www.w3.org/2000/svg" xmlns:xlink="http://www.w3.org/1999/xlink">
<g id="graph0" class="graph" transform="scale(1 1) rotate(0) translate(4 170)">
<title>cppSystem</title>
<polygon fill="white" stroke="transparent" points="-4,4 -4,-170 383.5,-170 383.5,4 -4,4"/>
<!-- Node1 -->
<g id="node1" class="node">
<title>Node1</title>
<g id="a_node1"><a xlink:title=" ">
<polygon fill="#bfbfbf" stroke="black" points="161,-0.5 161,-19.5 227,-19.5 227,-0.5 161,-0.5"/>
<text text-anchor="middle" x="194" y="-7.5" font-family="Helvetica,sans-Serif" font-size="10.00">cppSystem</text>
</a>
</g>
</g>
<!-- Node2 -->
<g id="node2" class="node">
<title>Node2</title>
<g id="a_node2"><a xlink:title=" ">
<polygon fill="white" stroke="#bfbfbf" points="0,-73 0,-92 146,-92 146,-73 0,-73"/>
<text text-anchor="middle" x="73" y="-80" font-family="Helvetica,sans-Serif" font-size="10.00">std::shared_ptr&lt; ChSystem &gt;</text>
</a>
</g>
</g>
<!-- Node2&#45;&gt;Node1 -->
<g id="edge1" class="edge">
<title>Node2&#45;&gt;Node1</title>
<path fill="none" stroke="#9a32cd" stroke-dasharray="5,2" d="M96.49,-67.81C120.91,-53.59 158.38,-31.75 179.04,-19.72"/>
<polygon fill="#9a32cd" stroke="#9a32cd" points="94.72,-64.8 87.84,-72.86 98.24,-70.85 94.72,-64.8"/>
<text text-anchor="middle" x="163" y="-41" font-family="Helvetica,sans-Serif" font-size="10.00"> system</text>
</g>
<!-- Node3 -->
<g id="node3" class="node">
<title>Node3</title>
<g id="a_node3"><a xlink:title="STL class.">
<polygon fill="white" stroke="#bfbfbf" points="164,-73 164,-92 224,-92 224,-73 164,-73"/>
<text text-anchor="middle" x="194" y="-80" font-family="Helvetica,sans-Serif" font-size="10.00">std::string</text>
</a>
</g>
</g>
<!-- Node3&#45;&gt;Node1 -->
<g id="edge2" class="edge">
<title>Node3&#45;&gt;Node1</title>
<path fill="none" stroke="#9a32cd" stroke-dasharray="5,2" d="M194,-62.44C194,-48.53 194,-30.32 194,-19.72"/>
<polygon fill="#9a32cd" stroke="#9a32cd" points="190.5,-62.86 194,-72.86 197.5,-62.86 190.5,-62.86"/>
<text text-anchor="middle" x="214.5" y="-41" font-family="Helvetica,sans-Serif" font-size="10.00"> directory</text>
</g>
<!-- Node4 -->
<g id="node4" class="node">
<title>Node4</title>
<g id="a_node4"><a xlink:title="STL class.">
<polygon fill="white" stroke="#bfbfbf" points="146.5,-135.5 146.5,-165.5 241.5,-165.5 241.5,-135.5 146.5,-135.5"/>
<text text-anchor="start" x="154.5" y="-153.5" font-family="Helvetica,sans-Serif" font-size="10.00">std::basic_string&lt;</text>
<text text-anchor="middle" x="194" y="-142.5" font-family="Helvetica,sans-Serif" font-size="10.00"> char &gt;</text>
</a>
</g>
</g>
<!-- Node4&#45;&gt;Node3 -->
<g id="edge3" class="edge">
<title>Node4&#45;&gt;Node3</title>
<path fill="none" stroke="midnightblue" d="M194,-124.88C194,-113.47 194,-100.64 194,-92.33"/>
<polygon fill="midnightblue" stroke="midnightblue" points="190.5,-125.18 194,-135.18 197.5,-125.18 190.5,-125.18"/>
</g>
<!-- Node5 -->
<g id="node5" class="node">
<title>Node5</title>
<g id="a_node5"><a xlink:title=" ">
<polygon fill="white" stroke="#bfbfbf" points="242.5,-67.5 242.5,-97.5 379.5,-97.5 379.5,-67.5 242.5,-67.5"/>
<text text-anchor="start" x="250.5" y="-85.5" font-family="Helvetica,sans-Serif" font-size="10.00">std::shared_ptr&lt; ChSystem</text>
<text text-anchor="middle" x="311" y="-74.5" font-family="Helvetica,sans-Serif" font-size="10.00">SMC &gt;</text>
</a>
</g>
</g>
<!-- Node5&#45;&gt;Node1 -->
<g id="edge4" class="edge">
<title>Node5&#45;&gt;Node1</title>
<path fill="none" stroke="#9a32cd" stroke-dasharray="5,2" d="M278.97,-62.12C266.5,-54.58 252.09,-45.88 239,-38 228.7,-31.8 217.05,-24.81 208.19,-19.5"/>
<polygon fill="#9a32cd" stroke="#9a32cd" points="277.3,-65.2 287.66,-67.38 280.92,-59.21 277.3,-65.2"/>
<text text-anchor="middle" x="285" y="-41" font-family="Helvetica,sans-Serif" font-size="10.00"> systemSMC</text>
</g>
</g>
</svg>
