<?xml version="1.0" encoding="UTF-8" standalone="no"?>
<!DOCTYPE svg PUBLIC "-//W3C//DTD SVG 1.1//EN"
 "http://www.w3.org/Graphics/SVG/1.1/DTD/svg11.dtd">
<!-- Generated by graphviz version 2.50.0 (20211204.2007)
 -->
<!-- Title: proteus::RANS2P&lt; CompKernelType, CompKernelType_v, nSpace, nQuadraturePoints_element, nDOF_mesh_trial_element, nDOF_trial_element, nDOF_test_element, nDOF_v_trial_element, nDOF_v_test_element, nQuadraturePoints_elementBoundary &gt; Pages: 1 -->
<svg width="594pt" height="178pt"
 viewBox="0.00 0.00 594.00 178.00" xmlns="http://www.w3.org/2000/svg" xmlns:xlink="http://www.w3.org/1999/xlink">
<g id="graph0" class="graph" transform="scale(1 1) rotate(0) translate(4 174)">
<title>proteus::RANS2P&lt; CompKernelType, CompKernelType_v, nSpace, nQuadraturePoints_element, nDOF_mesh_trial_element, nDOF_trial_element, nDOF_test_element, nDOF_v_trial_element, nDOF_v_test_element, nQuadraturePoints_elementBoundary &gt;</title>
<polygon fill="white" stroke="transparent" points="-4,4 -4,-174 590,-174 590,4 -4,4"/>
<!-- Node1 -->
<g id="node1" class="node">
<title>Node1</title>
<g id="a_node1"><a xlink:title=" ">
<polygon fill="#bfbfbf" stroke="black" points="381,-46 381,-142 586,-142 586,-46 381,-46"/>
<text text-anchor="start" x="389" y="-130" font-family="Helvetica,sans-Serif" font-size="10.00">proteus::RANS2P&lt; CompKernel</text>
<text text-anchor="start" x="389" y="-119" font-family="Helvetica,sans-Serif" font-size="10.00">Type, CompKernelType_v,</text>
<text text-anchor="start" x="389" y="-108" font-family="Helvetica,sans-Serif" font-size="10.00"> nSpace, nQuadraturePoints</text>
<text text-anchor="start" x="389" y="-97" font-family="Helvetica,sans-Serif" font-size="10.00">_element, nDOF_mesh_trial_element,</text>
<text text-anchor="start" x="389" y="-86" font-family="Helvetica,sans-Serif" font-size="10.00"> nDOF_trial_element, nDOF_test</text>
<text text-anchor="start" x="389" y="-75" font-family="Helvetica,sans-Serif" font-size="10.00">_element, nDOF_v_trial_element,</text>
<text text-anchor="start" x="389" y="-64" font-family="Helvetica,sans-Serif" font-size="10.00"> nDOF_v_test_element, nQuadraturePoints</text>
<text text-anchor="middle" x="483.5" y="-53" font-family="Helvetica,sans-Serif" font-size="10.00">_elementBoundary &gt;</text>
</a>
</g>
</g>
<!-- Node2 -->
<g id="node2" class="node">
<title>Node2</title>
<g id="a_node2"><a xlink:href="classproteus_1_1_r_a_n_s2_p__base.html" target="_top" xlink:title=" ">
<polygon fill="white" stroke="black" points="55.5,-150.5 55.5,-169.5 177.5,-169.5 177.5,-150.5 55.5,-150.5"/>
<text text-anchor="middle" x="116.5" y="-157.5" font-family="Helvetica,sans-Serif" font-size="10.00">proteus::RANS2P_base</text>
</a>
</g>
</g>
<!-- Node2&#45;&gt;Node1 -->
<g id="edge1" class="edge">
<title>Node2&#45;&gt;Node1</title>
<path fill="none" stroke="midnightblue" d="M187.87,-152.6C237.16,-146.85 304.43,-137.85 363,-126 368.79,-124.83 374.71,-123.54 380.68,-122.17"/>
<polygon fill="midnightblue" stroke="midnightblue" points="187.17,-149.16 177.63,-153.78 187.97,-156.11 187.17,-149.16"/>
</g>
<!-- Node3 -->
<g id="node3" class="node">
<title>Node3</title>
<g id="a_node3"><a xlink:title=" ">
<polygon fill="white" stroke="#bfbfbf" points="66.5,-112.5 66.5,-131.5 166.5,-131.5 166.5,-112.5 66.5,-112.5"/>
<text text-anchor="middle" x="116.5" y="-119.5" font-family="Helvetica,sans-Serif" font-size="10.00">std::map&lt; int, int &gt;</text>
</a>
</g>
</g>
<!-- Node3&#45;&gt;Node1 -->
<g id="edge2" class="edge">
<title>Node3&#45;&gt;Node1</title>
<path fill="none" stroke="#9a32cd" stroke-dasharray="5,2" d="M177.01,-117.43C232.08,-113.21 315.09,-106.84 380.69,-101.81"/>
<polygon fill="#9a32cd" stroke="#9a32cd" points="176.43,-113.97 166.73,-118.22 176.96,-120.95 176.43,-113.97"/>
<text text-anchor="middle" x="307" y="-114" font-family="Helvetica,sans-Serif" font-size="10.00"> cutfem_local_boundaries</text>
</g>
<!-- Node4 -->
<g id="node4" class="node">
<title>Node4</title>
<g id="a_node4"><a xlink:href="classequivalent__polynomials_1_1_generalized_functions__mix.html" target="_top" xlink:title=" ">
<polygon fill="white" stroke="black" points="0,-40 0,-92 233,-92 233,-40 0,-40"/>
<text text-anchor="start" x="8" y="-80" font-family="Helvetica,sans-Serif" font-size="10.00">equivalent_polynomials</text>
<text text-anchor="start" x="8" y="-69" font-family="Helvetica,sans-Serif" font-size="10.00">::GeneralizedFunctions</text>
<text text-anchor="start" x="8" y="-58" font-family="Helvetica,sans-Serif" font-size="10.00">_mix&lt; nSpace, 3, nQuadraturePoints</text>
<text text-anchor="middle" x="116.5" y="-47" font-family="Helvetica,sans-Serif" font-size="10.00">_element, nQuadraturePoints_elementBoundary &gt;</text>
</a>
</g>
</g>
<!-- Node4&#45;&gt;Node1 -->
<g id="edge3" class="edge">
<title>Node4&#45;&gt;Node1</title>
<path fill="none" stroke="#9a32cd" stroke-dasharray="5,2" d="M243.26,-60.45C281.79,-60.24 324.23,-61.52 363,-66 368.82,-66.67 374.77,-67.52 380.75,-68.51"/>
<polygon fill="#9a32cd" stroke="#9a32cd" points="243,-56.96 233.03,-60.54 243.06,-63.96 243,-56.96"/>
<text text-anchor="middle" x="307" y="-91" font-family="Helvetica,sans-Serif" font-size="10.00"> gf</text>
<text text-anchor="middle" x="307" y="-80" font-family="Helvetica,sans-Serif" font-size="10.00">gf_p</text>
<text text-anchor="middle" x="307" y="-69" font-family="Helvetica,sans-Serif" font-size="10.00">gf_s</text>
</g>
<!-- Node5 -->
<g id="node5" class="node">
<title>Node5</title>
<g id="a_node5"><a xlink:title=" ">
<polygon fill="white" stroke="#bfbfbf" points="77.5,-0.5 77.5,-19.5 155.5,-19.5 155.5,-0.5 77.5,-0.5"/>
<text text-anchor="middle" x="116.5" y="-7.5" font-family="Helvetica,sans-Serif" font-size="10.00">std::set&lt; int &gt;</text>
</a>
</g>
</g>
<!-- Node5&#45;&gt;Node1 -->
<g id="edge4" class="edge">
<title>Node5&#45;&gt;Node1</title>
<path fill="none" stroke="#9a32cd" stroke-dasharray="5,2" d="M166.17,-6.16C216.56,-3.71 297,-4.06 363,-24 380.03,-29.15 397.2,-37.17 413.01,-45.97"/>
<polygon fill="#9a32cd" stroke="#9a32cd" points="165.68,-2.68 155.89,-6.72 166.07,-9.67 165.68,-2.68"/>
<text text-anchor="middle" x="307" y="-49" font-family="Helvetica,sans-Serif" font-size="10.00"> cutfem_boundaries</text>
<text text-anchor="middle" x="307" y="-38" font-family="Helvetica,sans-Serif" font-size="10.00">ifem_boundaries</text>
<text text-anchor="middle" x="307" y="-27" font-family="Helvetica,sans-Serif" font-size="10.00">ifem_boundary_elements</text>
</g>
</g>
</svg>
