<?xml version="1.0" encoding="UTF-8" standalone="no"?>
<!DOCTYPE svg PUBLIC "-//W3C//DTD SVG 1.1//EN"
 "http://www.w3.org/Graphics/SVG/1.1/DTD/svg11.dtd">
<!-- Generated by graphviz version 2.43.0 (0)
 -->
<!-- Title: proteus::throwing_map&lt; K, T &gt; Pages: 1 -->
<svg width="137pt" height="163pt"
 viewBox="0.00 0.00 137.00 163.00" xmlns="http://www.w3.org/2000/svg" xmlns:xlink="http://www.w3.org/1999/xlink">
<g id="graph0" class="graph" transform="scale(1 1) rotate(0) translate(4 159)">
<title>proteus::throwing_map&lt; K, T &gt;</title>
<polygon fill="white" stroke="transparent" points="-4,4 -4,-159 133,-159 133,4 -4,4"/>
<!-- Node1 -->
<g id="node1" class="node">
<title>Node1</title>
<g id="a_node1"><a xlink:title=" ">
<polygon fill="#bfbfbf" stroke="black" points="0,-0.5 0,-30.5 129,-30.5 129,-0.5 0,-0.5"/>
<text text-anchor="start" x="8" y="-18.5" font-family="Helvetica,sans-Serif" font-size="10.00">proteus::throwing_map</text>
<text text-anchor="middle" x="64.5" y="-7.5" font-family="Helvetica,sans-Serif" font-size="10.00">&lt; K, T &gt;</text>
</a>
</g>
</g>
<!-- Node2 -->
<g id="node2" class="node">
<title>Node2</title>
<g id="a_node2"><a xlink:title="STL class.">
<polygon fill="white" stroke="#bfbfbf" points="14,-68.5 14,-87.5 115,-87.5 115,-68.5 14,-68.5"/>
<text text-anchor="middle" x="64.5" y="-75.5" font-family="Helvetica,sans-Serif" font-size="10.00">std::map&lt; K, T &gt;</text>
</a>
</g>
</g>
<!-- Node2&#45;&gt;Node1 -->
<g id="edge1" class="edge">
<title>Node2&#45;&gt;Node1</title>
<path fill="none" stroke="#8b1a1a" d="M64.5,-58.22C64.5,-49.36 64.5,-38.96 64.5,-30.76"/>
<polygon fill="#8b1a1a" stroke="#8b1a1a" points="61,-58.33 64.5,-68.33 68,-58.33 61,-58.33"/>
</g>
<!-- Node3 -->
<g id="node3" class="node">
<title>Node3</title>
<g id="a_node3"><a xlink:title=" ">
<polygon fill="white" stroke="#bfbfbf" points="26,-135.5 26,-154.5 55,-154.5 55,-135.5 26,-135.5"/>
<text text-anchor="middle" x="40.5" y="-142.5" font-family="Helvetica,sans-Serif" font-size="10.00">K</text>
</a>
</g>
</g>
<!-- Node3&#45;&gt;Node2 -->
<g id="edge2" class="edge">
<title>Node3&#45;&gt;Node2</title>
<path fill="none" stroke="#9a32cd" stroke-dasharray="5,2" d="M38.53,-125C38.52,-118.77 39.23,-111.93 41.5,-106 44.14,-99.1 49.36,-92.74 54.16,-87.92"/>
<polygon fill="#9a32cd" stroke="#9a32cd" points="35.05,-125.45 39.12,-135.23 42.03,-125.04 35.05,-125.45"/>
<text text-anchor="middle" x="54.5" y="-109" font-family="Helvetica,sans-Serif" font-size="10.00"> keys</text>
</g>
<!-- Node4 -->
<g id="node4" class="node">
<title>Node4</title>
<g id="a_node4"><a xlink:title=" ">
<polygon fill="white" stroke="#bfbfbf" points="75,-135.5 75,-154.5 104,-154.5 104,-135.5 75,-135.5"/>
<text text-anchor="middle" x="89.5" y="-142.5" font-family="Helvetica,sans-Serif" font-size="10.00">T</text>
</a>
</g>
</g>
<!-- Node4&#45;&gt;Node2 -->
<g id="edge3" class="edge">
<title>Node4&#45;&gt;Node2</title>
<path fill="none" stroke="#9a32cd" stroke-dasharray="5,2" d="M82.5,-125.79C77.7,-113.31 71.54,-97.31 67.82,-87.63"/>
<polygon fill="#9a32cd" stroke="#9a32cd" points="79.27,-127.16 86.13,-135.23 85.81,-124.64 79.27,-127.16"/>
<text text-anchor="middle" x="102" y="-109" font-family="Helvetica,sans-Serif" font-size="10.00"> elements</text>
</g>
</g>
</svg>
