<?xml version="1.0" encoding="UTF-8" standalone="no"?>
<!DOCTYPE svg PUBLIC "-//W3C//DTD SVG 1.1//EN"
 "http://www.w3.org/Graphics/SVG/1.1/DTD/svg11.dtd">
<!-- Generated by graphviz version 2.50.0 (20211204.2007)
 -->
<!-- Title: proteus::NCLS&lt; CompKernelType, nSpace, nQuadraturePoints_element, nDOF_mesh_trial_element, nDOF_trial_element, nDOF_test_element, nQuadraturePoints_elementBoundary &gt; Pages: 1 -->
<svg width="225pt" height="306pt"
 viewBox="0.00 0.00 224.50 306.00" xmlns="http://www.w3.org/2000/svg" xmlns:xlink="http://www.w3.org/1999/xlink">
<g id="graph0" class="graph" transform="scale(1 1) rotate(0) translate(4 302)">
<title>proteus::NCLS&lt; CompKernelType, nSpace, nQuadraturePoints_element, nDOF_mesh_trial_element, nDOF_trial_element, nDOF_test_element, nQuadraturePoints_elementBoundary &gt;</title>
<polygon fill="white" stroke="transparent" points="-4,4 -4,-302 220.5,-302 220.5,4 -4,4"/>
<!-- Node1 -->
<g id="node1" class="node">
<title>Node1</title>
<g id="a_node1"><a xlink:title=" ">
<polygon fill="#bfbfbf" stroke="black" points="0,-0.5 0,-63.5 203,-63.5 203,-0.5 0,-0.5"/>
<text text-anchor="start" x="8" y="-51.5" font-family="Helvetica,sans-Serif" font-size="10.00">proteus::NCLS&lt; CompKernel</text>
<text text-anchor="start" x="8" y="-40.5" font-family="Helvetica,sans-Serif" font-size="10.00">Type, nSpace, nQuadraturePoints</text>
<text text-anchor="start" x="8" y="-29.5" font-family="Helvetica,sans-Serif" font-size="10.00">_element, nDOF_mesh_trial_element,</text>
<text text-anchor="start" x="8" y="-18.5" font-family="Helvetica,sans-Serif" font-size="10.00"> nDOF_trial_element, nDOF_test_element,</text>
<text text-anchor="middle" x="101.5" y="-7.5" font-family="Helvetica,sans-Serif" font-size="10.00"> nQuadraturePoints_elementBoundary &gt;</text>
</a>
</g>
</g>
<!-- Node2 -->
<g id="node2" class="node">
<title>Node2</title>
<g id="a_node2"><a xlink:href="classproteus_1_1_n_c_l_s__base.html" target="_top" xlink:title=" ">
<polygon fill="white" stroke="black" points="47.5,-101.5 47.5,-120.5 155.5,-120.5 155.5,-101.5 47.5,-101.5"/>
<text text-anchor="middle" x="101.5" y="-108.5" font-family="Helvetica,sans-Serif" font-size="10.00">proteus::NCLS_base</text>
</a>
</g>
</g>
<!-- Node2&#45;&gt;Node1 -->
<g id="edge1" class="edge">
<title>Node2&#45;&gt;Node1</title>
<path fill="none" stroke="midnightblue" d="M101.5,-91.36C101.5,-83.01 101.5,-72.94 101.5,-63.53"/>
<polygon fill="midnightblue" stroke="midnightblue" points="98,-91.47 101.5,-101.47 105,-91.47 98,-91.47"/>
</g>
<!-- Node3 -->
<g id="node3" class="node">
<title>Node3</title>
<g id="a_node3"><a xlink:title=" ">
<polygon fill="white" stroke="#bfbfbf" points="43,-278.5 43,-297.5 160,-297.5 160,-278.5 43,-278.5"/>
<text text-anchor="middle" x="101.5" y="-285.5" font-family="Helvetica,sans-Serif" font-size="10.00">std::valarray&lt; double &gt;</text>
</a>
</g>
</g>
<!-- Node3&#45;&gt;Node2 -->
<g id="edge2" class="edge">
<title>Node3&#45;&gt;Node2</title>
<path fill="none" stroke="#9a32cd" stroke-dasharray="5,2" d="M101.5,-267.95C101.5,-230.3 101.5,-147.65 101.5,-120.69"/>
<polygon fill="#9a32cd" stroke="#9a32cd" points="98,-268.08 101.5,-278.08 105,-268.08 98,-268.08"/>
<text text-anchor="middle" x="159" y="-252" font-family="Helvetica,sans-Serif" font-size="10.00"> L2_norm_per_node</text>
<text text-anchor="middle" x="159" y="-241" font-family="Helvetica,sans-Serif" font-size="10.00">TransportMatrix</text>
<text text-anchor="middle" x="159" y="-230" font-family="Helvetica,sans-Serif" font-size="10.00">TransposeTransportMatrix</text>
<text text-anchor="middle" x="159" y="-219" font-family="Helvetica,sans-Serif" font-size="10.00">alpha_denominator_neg</text>
<text text-anchor="middle" x="159" y="-208" font-family="Helvetica,sans-Serif" font-size="10.00">alpha_denominator_pos</text>
<text text-anchor="middle" x="159" y="-197" font-family="Helvetica,sans-Serif" font-size="10.00">alpha_numerator_neg</text>
<text text-anchor="middle" x="159" y="-186" font-family="Helvetica,sans-Serif" font-size="10.00">alpha_numerator_pos</text>
<text text-anchor="middle" x="159" y="-175" font-family="Helvetica,sans-Serif" font-size="10.00">eta</text>
<text text-anchor="middle" x="159" y="-164" font-family="Helvetica,sans-Serif" font-size="10.00">etaMax</text>
<text text-anchor="middle" x="159" y="-153" font-family="Helvetica,sans-Serif" font-size="10.00">etaMin</text>
<text text-anchor="middle" x="159" y="-142" font-family="Helvetica,sans-Serif" font-size="10.00">...</text>
</g>
</g>
</svg>
