<?xml version="1.0" encoding="UTF-8" standalone="no"?>
<!DOCTYPE svg PUBLIC "-//W3C//DTD SVG 1.1//EN"
 "http://www.w3.org/Graphics/SVG/1.1/DTD/svg11.dtd">
<!-- Generated by graphviz version 2.50.0 (20211204.2007)
 -->
<!-- Title: cppCable Pages: 1 -->
<svg width="673pt" height="712pt"
 viewBox="0.00 0.00 673.00 711.88" xmlns="http://www.w3.org/2000/svg" xmlns:xlink="http://www.w3.org/1999/xlink">
<g id="graph0" class="graph" transform="scale(1 1) rotate(0) translate(4 707.88)">
<title>cppCable</title>
<polygon fill="white" stroke="transparent" points="-4,4 -4,-707.88 669,-707.88 669,4 -4,4"/>
<!-- Node1 -->
<g id="node1" class="node">
<title>Node1</title>
<g id="a_node1"><a xlink:title=" ">
<polygon fill="#bfbfbf" stroke="black" points="607,-355.38 607,-374.38 665,-374.38 665,-355.38 607,-355.38"/>
<text text-anchor="middle" x="636" y="-362.38" font-family="Helvetica,sans-Serif" font-size="10.00">cppCable</text>
</a>
</g>
</g>
<!-- Node2 -->
<g id="node2" class="node">
<title>Node2</title>
<g id="a_node2"><a xlink:title=" ">
<polygon fill="white" stroke="#bfbfbf" points="289.5,-660.88 289.5,-690.88 437.5,-690.88 437.5,-660.88 289.5,-660.88"/>
<text text-anchor="start" x="297.5" y="-678.88" font-family="Helvetica,sans-Serif" font-size="10.00">std::vector&lt; std::shared</text>
<text text-anchor="middle" x="363.5" y="-667.88" font-family="Helvetica,sans-Serif" font-size="10.00">_ptr&lt; ChVector&lt; double &gt; &gt; &gt;</text>
</a>
</g>
</g>
<!-- Node2&#45;&gt;Node1 -->
<g id="edge1" class="edge">
<title>Node2&#45;&gt;Node1</title>
<path fill="none" stroke="#9a32cd" stroke-dasharray="5,2" d="M447.69,-684.17C495.31,-684.12 552.63,-675.14 589,-638.88 627.34,-600.65 633.81,-418.76 634.82,-374.57"/>
<polygon fill="#9a32cd" stroke="#9a32cd" points="447.73,-680.67 437.68,-684.05 447.64,-687.67 447.73,-680.67"/>
<text text-anchor="middle" x="534.5" y="-695.88" font-family="Helvetica,sans-Serif" font-size="10.00"> forces_addedmass</text>
<text text-anchor="middle" x="534.5" y="-684.88" font-family="Helvetica,sans-Serif" font-size="10.00">forces_drag</text>
</g>
<!-- Node3 -->
<g id="node3" class="node">
<title>Node3</title>
<g id="a_node3"><a xlink:title=" ">
<polygon fill="white" stroke="#bfbfbf" points="27,-660.88 27,-690.88 159,-690.88 159,-660.88 27,-660.88"/>
<text text-anchor="start" x="35" y="-678.88" font-family="Helvetica,sans-Serif" font-size="10.00">std::shared_ptr&lt; ChVector</text>
<text text-anchor="middle" x="93" y="-667.88" font-family="Helvetica,sans-Serif" font-size="10.00">&lt; double &gt; &gt;</text>
</a>
</g>
</g>
<!-- Node3&#45;&gt;Node2 -->
<g id="edge2" class="edge">
<title>Node3&#45;&gt;Node2</title>
<path fill="none" stroke="#9a32cd" stroke-dasharray="5,2" d="M169.69,-675.88C207.15,-675.88 252.17,-675.88 289.28,-675.88"/>
<polygon fill="#9a32cd" stroke="#9a32cd" points="169.34,-672.38 159.34,-675.88 169.34,-679.38 169.34,-672.38"/>
<text text-anchor="middle" x="225.5" y="-678.88" font-family="Helvetica,sans-Serif" font-size="10.00"> elements</text>
</g>
<!-- Node4 -->
<g id="node4" class="node">
<title>Node4</title>
<g id="a_node4"><a xlink:title=" ">
<polygon fill="white" stroke="#bfbfbf" points="282.5,-611.88 282.5,-641.88 444.5,-641.88 444.5,-611.88 282.5,-611.88"/>
<text text-anchor="start" x="290.5" y="-629.88" font-family="Helvetica,sans-Serif" font-size="10.00">std::shared_ptr&lt; ChBeamSection</text>
<text text-anchor="middle" x="363.5" y="-618.88" font-family="Helvetica,sans-Serif" font-size="10.00">Cable &gt;</text>
</a>
</g>
</g>
<!-- Node4&#45;&gt;Node1 -->
<g id="edge3" class="edge">
<title>Node4&#45;&gt;Node1</title>
<path fill="none" stroke="#9a32cd" stroke-dasharray="5,2" d="M454.79,-625.71C508.43,-623.06 569.66,-615.98 589,-597.88 622.42,-566.61 632.47,-414.36 634.55,-374.47"/>
<polygon fill="#9a32cd" stroke="#9a32cd" points="454.37,-622.22 444.53,-626.17 454.68,-629.22 454.37,-622.22"/>
<text text-anchor="middle" x="534.5" y="-626.88" font-family="Helvetica,sans-Serif" font-size="10.00"> msection_cable</text>
</g>
<!-- Node5 -->
<g id="node5" class="node">
<title>Node5</title>
<g id="a_node5"><a xlink:title=" ">
<polygon fill="white" stroke="#bfbfbf" points="290.5,-573.38 290.5,-592.38 436.5,-592.38 436.5,-573.38 290.5,-573.38"/>
<text text-anchor="middle" x="363.5" y="-580.38" font-family="Helvetica,sans-Serif" font-size="10.00">std::shared_ptr&lt; ChSystem &gt;</text>
</a>
</g>
</g>
<!-- Node5&#45;&gt;Node1 -->
<g id="edge4" class="edge">
<title>Node5&#45;&gt;Node1</title>
<path fill="none" stroke="#9a32cd" stroke-dasharray="5,2" d="M446.88,-584.56C502.03,-583.91 568.19,-579.09 589,-560.88 617.8,-535.68 630.99,-410.16 634.2,-374.4"/>
<polygon fill="#9a32cd" stroke="#9a32cd" points="446.7,-581.07 436.73,-584.64 446.75,-588.07 446.7,-581.07"/>
<text text-anchor="middle" x="534.5" y="-585.88" font-family="Helvetica,sans-Serif" font-size="10.00"> system</text>
</g>
<!-- Node6 -->
<g id="node6" class="node">
<title>Node6</title>
<g id="a_node6"><a xlink:title=" ">
<polygon fill="white" stroke="#bfbfbf" points="290.5,-523.88 290.5,-553.88 436.5,-553.88 436.5,-523.88 290.5,-523.88"/>
<text text-anchor="start" x="298.5" y="-541.88" font-family="Helvetica,sans-Serif" font-size="10.00">std::vector&lt; std::shared</text>
<text text-anchor="middle" x="363.5" y="-530.88" font-family="Helvetica,sans-Serif" font-size="10.00">_ptr&lt; ChNodeFEAxyzDD &gt; &gt;</text>
</a>
</g>
</g>
<!-- Node6&#45;&gt;Node1 -->
<g id="edge5" class="edge">
<title>Node6&#45;&gt;Node1</title>
<path fill="none" stroke="#9a32cd" stroke-dasharray="5,2" d="M446.7,-547.66C493.4,-548.14 550.12,-540.53 589,-507.88 630.54,-473 634.95,-400.4 635.14,-374.4"/>
<polygon fill="#9a32cd" stroke="#9a32cd" points="446.67,-544.16 436.59,-547.43 446.51,-551.16 446.67,-544.16"/>
<text text-anchor="middle" x="534.5" y="-548.88" font-family="Helvetica,sans-Serif" font-size="10.00"> nodesDD</text>
</g>
<!-- Node7 -->
<g id="node7" class="node">
<title>Node7</title>
<g id="a_node7"><a xlink:title=" ">
<polygon fill="white" stroke="#bfbfbf" points="0,-529.38 0,-548.38 186,-548.38 186,-529.38 0,-529.38"/>
<text text-anchor="middle" x="93" y="-536.38" font-family="Helvetica,sans-Serif" font-size="10.00">std::shared_ptr&lt; ChNodeFEAxyzDD &gt;</text>
</a>
</g>
</g>
<!-- Node7&#45;&gt;Node6 -->
<g id="edge6" class="edge">
<title>Node7&#45;&gt;Node6</title>
<path fill="none" stroke="#9a32cd" stroke-dasharray="5,2" d="M196.09,-538.88C227.4,-538.88 261.19,-538.88 290.08,-538.88"/>
<polygon fill="#9a32cd" stroke="#9a32cd" points="196.03,-535.38 186.03,-538.88 196.03,-542.38 196.03,-535.38"/>
<text text-anchor="middle" x="225.5" y="-541.88" font-family="Helvetica,sans-Serif" font-size="10.00"> elements</text>
</g>
<!-- Node8 -->
<g id="node8" class="node">
<title>Node8</title>
<g id="a_node8"><a xlink:title=" ">
<polygon fill="white" stroke="#bfbfbf" points="295,-485.38 295,-504.38 432,-504.38 432,-485.38 295,-485.38"/>
<text text-anchor="middle" x="363.5" y="-492.38" font-family="Helvetica,sans-Serif" font-size="10.00">std::shared_ptr&lt; ChMesh &gt;</text>
</a>
</g>
</g>
<!-- Node8&#45;&gt;Node1 -->
<g id="edge7" class="edge">
<title>Node8&#45;&gt;Node1</title>
<path fill="none" stroke="#9a32cd" stroke-dasharray="5,2" d="M442.09,-497.24C488.74,-494.9 547.02,-484.96 589,-453.88 616.12,-433.81 628.55,-393.05 632.98,-374.48"/>
<polygon fill="#9a32cd" stroke="#9a32cd" points="441.87,-493.74 432.01,-497.63 442.14,-500.74 441.87,-493.74"/>
<text text-anchor="middle" x="534.5" y="-495.88" font-family="Helvetica,sans-Serif" font-size="10.00"> mesh</text>
</g>
<!-- Node9 -->
<g id="node9" class="node">
<title>Node9</title>
<g id="a_node9"><a xlink:title=" ">
<polygon fill="white" stroke="#bfbfbf" points="285,-435.88 285,-465.88 442,-465.88 442,-435.88 285,-435.88"/>
<text text-anchor="start" x="293" y="-453.88" font-family="Helvetica,sans-Serif" font-size="10.00">std::vector&lt; std::shared</text>
<text text-anchor="middle" x="363.5" y="-442.88" font-family="Helvetica,sans-Serif" font-size="10.00">_ptr&lt; ChElementBeamEuler &gt; &gt;</text>
</a>
</g>
</g>
<!-- Node9&#45;&gt;Node1 -->
<g id="edge8" class="edge">
<title>Node9&#45;&gt;Node1</title>
<path fill="none" stroke="#9a32cd" stroke-dasharray="5,2" d="M452.24,-444.16C495.22,-438.21 546.69,-427 589,-405.88 604.32,-398.24 618.46,-384.13 626.91,-374.63"/>
<polygon fill="#9a32cd" stroke="#9a32cd" points="451.54,-440.72 442.08,-445.49 452.45,-447.66 451.54,-440.72"/>
<text text-anchor="middle" x="534.5" y="-441.88" font-family="Helvetica,sans-Serif" font-size="10.00"> elemsBeamEuler</text>
</g>
<!-- Node10 -->
<g id="node10" class="node">
<title>Node10</title>
<g id="a_node10"><a xlink:title=" ">
<polygon fill="white" stroke="#bfbfbf" points="23,-435.88 23,-465.88 163,-465.88 163,-435.88 23,-435.88"/>
<text text-anchor="start" x="31" y="-453.88" font-family="Helvetica,sans-Serif" font-size="10.00">std::shared_ptr&lt; ChElement</text>
<text text-anchor="middle" x="93" y="-442.88" font-family="Helvetica,sans-Serif" font-size="10.00">BeamEuler &gt;</text>
</a>
</g>
</g>
<!-- Node10&#45;&gt;Node9 -->
<g id="edge9" class="edge">
<title>Node10&#45;&gt;Node9</title>
<path fill="none" stroke="#9a32cd" stroke-dasharray="5,2" d="M173.36,-450.88C208.47,-450.88 249.64,-450.88 284.58,-450.88"/>
<polygon fill="#9a32cd" stroke="#9a32cd" points="173.15,-447.38 163.15,-450.88 173.15,-454.38 173.15,-447.38"/>
<text text-anchor="middle" x="225.5" y="-453.88" font-family="Helvetica,sans-Serif" font-size="10.00"> elements</text>
</g>
<!-- Node11 -->
<g id="node11" class="node">
<title>Node11</title>
<g id="a_node11"><a xlink:title=" ">
<polygon fill="white" stroke="#bfbfbf" points="294,-386.88 294,-416.88 433,-416.88 433,-386.88 294,-386.88"/>
<text text-anchor="start" x="302" y="-404.88" font-family="Helvetica,sans-Serif" font-size="10.00">std::vector&lt; std::shared</text>
<text text-anchor="middle" x="363.5" y="-393.88" font-family="Helvetica,sans-Serif" font-size="10.00">_ptr&lt; ChNodeFEAxyzD &gt; &gt;</text>
</a>
</g>
</g>
<!-- Node11&#45;&gt;Node1 -->
<g id="edge10" class="edge">
<title>Node11&#45;&gt;Node1</title>
<path fill="none" stroke="#9a32cd" stroke-dasharray="5,2" d="M443.33,-395.91C486.57,-391.93 540.98,-385.77 589,-376.88 594.84,-375.8 601.04,-374.38 606.93,-372.89"/>
<polygon fill="#9a32cd" stroke="#9a32cd" points="442.8,-392.44 433.16,-396.82 443.43,-399.41 442.8,-392.44"/>
<text text-anchor="middle" x="534.5" y="-393.88" font-family="Helvetica,sans-Serif" font-size="10.00"> nodes</text>
</g>
<!-- Node12 -->
<g id="node12" class="node">
<title>Node12</title>
<g id="a_node12"><a xlink:title=" ">
<polygon fill="white" stroke="#bfbfbf" points="3.5,-392.38 3.5,-411.38 182.5,-411.38 182.5,-392.38 3.5,-392.38"/>
<text text-anchor="middle" x="93" y="-399.38" font-family="Helvetica,sans-Serif" font-size="10.00">std::shared_ptr&lt; ChNodeFEAxyzD &gt;</text>
</a>
</g>
</g>
<!-- Node12&#45;&gt;Node11 -->
<g id="edge11" class="edge">
<title>Node12&#45;&gt;Node11</title>
<path fill="none" stroke="#9a32cd" stroke-dasharray="5,2" d="M192.96,-401.88C226.53,-401.88 263.26,-401.88 293.92,-401.88"/>
<polygon fill="#9a32cd" stroke="#9a32cd" points="192.66,-398.38 182.66,-401.88 192.66,-405.38 192.66,-398.38"/>
<text text-anchor="middle" x="225.5" y="-404.88" font-family="Helvetica,sans-Serif" font-size="10.00"> elements</text>
</g>
<!-- Node13 -->
<g id="node13" class="node">
<title>Node13</title>
<g id="a_node13"><a xlink:title=" ">
<polygon fill="white" stroke="#bfbfbf" points="265,-337.88 265,-367.88 462,-367.88 462,-337.88 265,-337.88"/>
<text text-anchor="start" x="273" y="-355.88" font-family="Helvetica,sans-Serif" font-size="10.00">std::vector&lt; std::shared</text>
<text text-anchor="middle" x="363.5" y="-344.88" font-family="Helvetica,sans-Serif" font-size="10.00">_ptr&lt; ChLoad&lt; MyLoaderTriangular &gt; &gt; &gt;</text>
</a>
</g>
</g>
<!-- Node13&#45;&gt;Node1 -->
<g id="edge12" class="edge">
<title>Node13&#45;&gt;Node1</title>
<path fill="none" stroke="#9a32cd" stroke-dasharray="5,2" d="M472.17,-357.66C520.98,-359.82 574.8,-362.21 606.71,-363.63"/>
<polygon fill="#9a32cd" stroke="#9a32cd" points="472.3,-354.16 462.16,-357.22 471.99,-361.16 472.3,-354.16"/>
<text text-anchor="middle" x="534.5" y="-364.88" font-family="Helvetica,sans-Serif" font-size="10.00"> elems_loads_triangular</text>
</g>
<!-- Node14 -->
<g id="node14" class="node">
<title>Node14</title>
<g id="a_node14"><a xlink:title=" ">
<polygon fill="white" stroke="#bfbfbf" points="28.5,-337.88 28.5,-367.88 157.5,-367.88 157.5,-337.88 28.5,-337.88"/>
<text text-anchor="start" x="36.5" y="-355.88" font-family="Helvetica,sans-Serif" font-size="10.00">std::shared_ptr&lt; ChLoad</text>
<text text-anchor="middle" x="93" y="-344.88" font-family="Helvetica,sans-Serif" font-size="10.00">&lt; MyLoaderTriangular &gt; &gt;</text>
</a>
</g>
</g>
<!-- Node14&#45;&gt;Node13 -->
<g id="edge13" class="edge">
<title>Node14&#45;&gt;Node13</title>
<path fill="none" stroke="#9a32cd" stroke-dasharray="5,2" d="M168,-352.88C197.95,-352.88 232.94,-352.88 264.93,-352.88"/>
<polygon fill="#9a32cd" stroke="#9a32cd" points="167.63,-349.38 157.63,-352.88 167.63,-356.38 167.63,-349.38"/>
<text text-anchor="middle" x="225.5" y="-355.88" font-family="Helvetica,sans-Serif" font-size="10.00"> elements</text>
</g>
<!-- Node15 -->
<g id="node15" class="node">
<title>Node15</title>
<g id="a_node15"><a xlink:title=" ">
<polygon fill="white" stroke="#bfbfbf" points="271,-288.88 271,-318.88 456,-318.88 456,-288.88 271,-288.88"/>
<text text-anchor="start" x="279" y="-306.88" font-family="Helvetica,sans-Serif" font-size="10.00">std::vector&lt; std::shared</text>
<text text-anchor="middle" x="363.5" y="-295.88" font-family="Helvetica,sans-Serif" font-size="10.00">_ptr&lt; ChLoad&lt; ChLoaderGravity &gt; &gt; &gt;</text>
</a>
</g>
</g>
<!-- Node15&#45;&gt;Node1 -->
<g id="edge14" class="edge">
<title>Node15&#45;&gt;Node1</title>
<path fill="none" stroke="#9a32cd" stroke-dasharray="5,2" d="M466.54,-315.58C505.44,-321.59 549.82,-330.37 589,-342.88 598.95,-346.06 609.5,-350.98 617.99,-355.37"/>
<polygon fill="#9a32cd" stroke="#9a32cd" points="466.67,-312.05 456.26,-314.03 465.62,-318.98 466.67,-312.05"/>
<text text-anchor="middle" x="534.5" y="-345.88" font-family="Helvetica,sans-Serif" font-size="10.00"> elems_loads_volumetric</text>
</g>
<!-- Node16 -->
<g id="node16" class="node">
<title>Node16</title>
<g id="a_node16"><a xlink:title=" ">
<polygon fill="white" stroke="#bfbfbf" points="30.5,-288.88 30.5,-318.88 155.5,-318.88 155.5,-288.88 30.5,-288.88"/>
<text text-anchor="start" x="38.5" y="-306.88" font-family="Helvetica,sans-Serif" font-size="10.00">std::shared_ptr&lt; ChLoad</text>
<text text-anchor="middle" x="93" y="-295.88" font-family="Helvetica,sans-Serif" font-size="10.00">&lt; ChLoaderGravity &gt; &gt;</text>
</a>
</g>
</g>
<!-- Node16&#45;&gt;Node15 -->
<g id="edge15" class="edge">
<title>Node16&#45;&gt;Node15</title>
<path fill="none" stroke="#9a32cd" stroke-dasharray="5,2" d="M165.84,-303.88C198.11,-303.88 236.56,-303.88 270.87,-303.88"/>
<polygon fill="#9a32cd" stroke="#9a32cd" points="165.6,-300.38 155.6,-303.88 165.6,-307.38 165.6,-300.38"/>
<text text-anchor="middle" x="225.5" y="-306.88" font-family="Helvetica,sans-Serif" font-size="10.00"> elements</text>
</g>
<!-- Node17 -->
<g id="node17" class="node">
<title>Node17</title>
<g id="a_node17"><a xlink:title=" ">
<polygon fill="white" stroke="#bfbfbf" points="282.5,-239.88 282.5,-269.88 444.5,-269.88 444.5,-239.88 282.5,-239.88"/>
<text text-anchor="start" x="290.5" y="-257.88" font-family="Helvetica,sans-Serif" font-size="10.00">std::shared_ptr&lt; ChBeamSection</text>
<text text-anchor="middle" x="363.5" y="-246.88" font-family="Helvetica,sans-Serif" font-size="10.00">Advanced &gt;</text>
</a>
</g>
</g>
<!-- Node17&#45;&gt;Node1 -->
<g id="edge16" class="edge">
<title>Node17&#45;&gt;Node1</title>
<path fill="none" stroke="#9a32cd" stroke-dasharray="5,2" d="M454.48,-271C511.76,-281.8 577.31,-295.37 589,-302.88 609.29,-315.93 623.79,-341.28 630.61,-355.19"/>
<polygon fill="#9a32cd" stroke="#9a32cd" points="455.11,-267.56 444.64,-269.16 453.82,-274.44 455.11,-267.56"/>
<text text-anchor="middle" x="534.5" y="-305.88" font-family="Helvetica,sans-Serif" font-size="10.00"> msection_advanced</text>
</g>
<!-- Node18 -->
<g id="node18" class="node">
<title>Node18</title>
<g id="a_node18"><a xlink:title="STL class.">
<polygon fill="white" stroke="#bfbfbf" points="333.5,-201.38 333.5,-220.38 393.5,-220.38 393.5,-201.38 333.5,-201.38"/>
<text text-anchor="middle" x="363.5" y="-208.38" font-family="Helvetica,sans-Serif" font-size="10.00">std::string</text>
</a>
</g>
</g>
<!-- Node18&#45;&gt;Node1 -->
<g id="edge17" class="edge">
<title>Node18&#45;&gt;Node1</title>
<path fill="none" stroke="#9a32cd" stroke-dasharray="5,2" d="M403.66,-216.12C421.78,-219.24 443.36,-223.98 462,-230.88 470.58,-234.06 471.4,-237.76 480,-240.88 526.37,-257.74 550.35,-231.23 589,-261.88 619.38,-285.98 630.28,-334.42 633.66,-355.13"/>
<polygon fill="#9a32cd" stroke="#9a32cd" points="404.16,-212.65 393.73,-214.5 403.04,-219.56 404.16,-212.65"/>
<text text-anchor="middle" x="534.5" y="-264.88" font-family="Helvetica,sans-Serif" font-size="10.00"> beam_type</text>
</g>
<!-- Node19 -->
<g id="node19" class="node">
<title>Node19</title>
<g id="a_node19"><a xlink:title="STL class.">
<polygon fill="white" stroke="#bfbfbf" points="45.5,-195.88 45.5,-225.88 140.5,-225.88 140.5,-195.88 45.5,-195.88"/>
<text text-anchor="start" x="53.5" y="-213.88" font-family="Helvetica,sans-Serif" font-size="10.00">std::basic_string&lt;</text>
<text text-anchor="middle" x="93" y="-202.88" font-family="Helvetica,sans-Serif" font-size="10.00"> char &gt;</text>
</a>
</g>
</g>
<!-- Node19&#45;&gt;Node18 -->
<g id="edge18" class="edge">
<title>Node19&#45;&gt;Node18</title>
<path fill="none" stroke="midnightblue" d="M150.86,-210.88C206.69,-210.88 289.62,-210.88 333.25,-210.88"/>
<polygon fill="midnightblue" stroke="midnightblue" points="150.77,-207.38 140.77,-210.88 150.77,-214.38 150.77,-207.38"/>
</g>
<!-- Node20 -->
<g id="node20" class="node">
<title>Node20</title>
<g id="a_node20"><a xlink:title=" ">
<polygon fill="white" stroke="#bfbfbf" points="296.5,-163.38 296.5,-182.38 430.5,-182.38 430.5,-163.38 296.5,-163.38"/>
<text text-anchor="middle" x="363.5" y="-170.38" font-family="Helvetica,sans-Serif" font-size="10.00">std::vector&lt; ChVector&lt;&gt; &gt;</text>
</a>
</g>
</g>
<!-- Node20&#45;&gt;Node1 -->
<g id="edge19" class="edge">
<title>Node20&#45;&gt;Node1</title>
<path fill="none" stroke="#9a32cd" stroke-dasharray="5,2" d="M440.96,-162.31C496.88,-156.36 566.69,-153.25 589,-170.88 618.73,-194.39 631.26,-319.65 634.26,-355.37"/>
<polygon fill="#9a32cd" stroke="#9a32cd" points="440.25,-158.87 430.69,-163.45 441.02,-165.82 440.25,-158.87"/>
<text text-anchor="middle" x="534.5" y="-228.88" font-family="Helvetica,sans-Serif" font-size="10.00"> fluid_acceleration</text>
<text text-anchor="middle" x="534.5" y="-217.88" font-family="Helvetica,sans-Serif" font-size="10.00">fluid_velocity</text>
<text text-anchor="middle" x="534.5" y="-206.88" font-family="Helvetica,sans-Serif" font-size="10.00">mdirs</text>
<text text-anchor="middle" x="534.5" y="-195.88" font-family="Helvetica,sans-Serif" font-size="10.00">mvecs</text>
<text text-anchor="middle" x="534.5" y="-184.88" font-family="Helvetica,sans-Serif" font-size="10.00">mvecs_middle</text>
<text text-anchor="middle" x="534.5" y="-173.88" font-family="Helvetica,sans-Serif" font-size="10.00">mvecs_tangents</text>
</g>
<!-- Node21 -->
<g id="node21" class="node">
<title>Node21</title>
<g id="a_node21"><a xlink:title=" ">
<polygon fill="white" stroke="#bfbfbf" points="282.5,-113.88 282.5,-143.88 444.5,-143.88 444.5,-113.88 282.5,-113.88"/>
<text text-anchor="start" x="290.5" y="-131.88" font-family="Helvetica,sans-Serif" font-size="10.00">std::vector&lt; std::shared</text>
<text text-anchor="middle" x="363.5" y="-120.88" font-family="Helvetica,sans-Serif" font-size="10.00">_ptr&lt; ChElementCableANCF &gt; &gt;</text>
</a>
</g>
</g>
<!-- Node21&#45;&gt;Node1 -->
<g id="edge20" class="edge">
<title>Node21&#45;&gt;Node1</title>
<path fill="none" stroke="#9a32cd" stroke-dasharray="5,2" d="M454.77,-118.48C508.03,-114.44 568.85,-114.16 589,-130.88 624.36,-160.24 632.99,-314.65 634.65,-355.15"/>
<polygon fill="#9a32cd" stroke="#9a32cd" points="454.26,-115.01 444.57,-119.3 454.82,-121.99 454.26,-115.01"/>
<text text-anchor="middle" x="534.5" y="-144.88" font-family="Helvetica,sans-Serif" font-size="10.00"> elemsCableANCF</text>
<text text-anchor="middle" x="534.5" y="-133.88" font-family="Helvetica,sans-Serif" font-size="10.00">elems_cable</text>
</g>
<!-- Node22 -->
<g id="node22" class="node">
<title>Node22</title>
<g id="a_node22"><a xlink:title=" ">
<polygon fill="white" stroke="#bfbfbf" points="23,-113.88 23,-143.88 163,-143.88 163,-113.88 23,-113.88"/>
<text text-anchor="start" x="31" y="-131.88" font-family="Helvetica,sans-Serif" font-size="10.00">std::shared_ptr&lt; ChElement</text>
<text text-anchor="middle" x="93" y="-120.88" font-family="Helvetica,sans-Serif" font-size="10.00">CableANCF &gt;</text>
</a>
</g>
</g>
<!-- Node22&#45;&gt;Node21 -->
<g id="edge21" class="edge">
<title>Node22&#45;&gt;Node21</title>
<path fill="none" stroke="#9a32cd" stroke-dasharray="5,2" d="M173.58,-128.88C207.84,-128.88 247.82,-128.88 282.16,-128.88"/>
<polygon fill="#9a32cd" stroke="#9a32cd" points="173.15,-125.38 163.15,-128.88 173.15,-132.38 173.15,-125.38"/>
<text text-anchor="middle" x="225.5" y="-131.88" font-family="Helvetica,sans-Serif" font-size="10.00"> elements</text>
</g>
<!-- Node23 -->
<g id="node23" class="node">
<title>Node23</title>
<g id="a_node23"><a xlink:title=" ">
<polygon fill="white" stroke="#bfbfbf" points="292,-64.88 292,-94.88 435,-94.88 435,-64.88 292,-64.88"/>
<text text-anchor="start" x="300" y="-82.88" font-family="Helvetica,sans-Serif" font-size="10.00">std::vector&lt; std::shared</text>
<text text-anchor="middle" x="363.5" y="-71.88" font-family="Helvetica,sans-Serif" font-size="10.00">_ptr&lt; ChNodeFEAxyzrot &gt; &gt;</text>
</a>
</g>
</g>
<!-- Node23&#45;&gt;Node1 -->
<g id="edge22" class="edge">
<title>Node23&#45;&gt;Node1</title>
<path fill="none" stroke="#9a32cd" stroke-dasharray="5,2" d="M445.26,-77.45C500.93,-77.57 568.46,-81.91 589,-100.88 627.28,-136.24 633.79,-311.85 634.82,-355.2"/>
<polygon fill="#9a32cd" stroke="#9a32cd" points="445,-73.95 435.01,-77.47 445.02,-80.95 445,-73.95"/>
<text text-anchor="middle" x="534.5" y="-103.88" font-family="Helvetica,sans-Serif" font-size="10.00"> nodesRot</text>
</g>
<!-- Node24 -->
<g id="node24" class="node">
<title>Node24</title>
<g id="a_node24"><a xlink:title=" ">
<polygon fill="white" stroke="#bfbfbf" points="2,-70.38 2,-89.38 184,-89.38 184,-70.38 2,-70.38"/>
<text text-anchor="middle" x="93" y="-77.38" font-family="Helvetica,sans-Serif" font-size="10.00">std::shared_ptr&lt; ChNodeFEAxyzrot &gt;</text>
</a>
</g>
</g>
<!-- Node24&#45;&gt;Node23 -->
<g id="edge23" class="edge">
<title>Node24&#45;&gt;Node23</title>
<path fill="none" stroke="#9a32cd" stroke-dasharray="5,2" d="M194.54,-79.88C226.85,-79.88 261.96,-79.88 291.68,-79.88"/>
<polygon fill="#9a32cd" stroke="#9a32cd" points="194.15,-76.38 184.15,-79.88 194.15,-83.38 194.15,-76.38"/>
<text text-anchor="middle" x="225.5" y="-82.88" font-family="Helvetica,sans-Serif" font-size="10.00"> elements</text>
</g>
<!-- Node25 -->
<g id="node25" class="node">
<title>Node25</title>
<g id="a_node25"><a xlink:title=" ">
<polygon fill="white" stroke="#bfbfbf" points="308.5,-18.38 308.5,-37.38 418.5,-37.38 418.5,-18.38 308.5,-18.38"/>
<text text-anchor="middle" x="363.5" y="-25.38" font-family="Helvetica,sans-Serif" font-size="10.00">std::vector&lt; double &gt;</text>
</a>
</g>
</g>
<!-- Node25&#45;&gt;Node1 -->
<g id="edge24" class="edge">
<title>Node25&#45;&gt;Node1</title>
<path fill="none" stroke="#9a32cd" stroke-dasharray="5,2" d="M400.41,-15.39C449.43,-0.85 537.12,15.77 589,-29.88 639.24,-74.09 636.48,-305.28 635.27,-355.32"/>
<polygon fill="#9a32cd" stroke="#9a32cd" points="399.37,-12.04 390.85,-18.34 401.44,-18.73 399.37,-12.04"/>
<text text-anchor="middle" x="534.5" y="-65.88" font-family="Helvetica,sans-Serif" font-size="10.00"> elems_length</text>
<text text-anchor="middle" x="534.5" y="-54.88" font-family="Helvetica,sans-Serif" font-size="10.00">fluid_density</text>
<text text-anchor="middle" x="534.5" y="-43.88" font-family="Helvetica,sans-Serif" font-size="10.00">length_per_elem</text>
<text text-anchor="middle" x="534.5" y="-32.88" font-family="Helvetica,sans-Serif" font-size="10.00">nodes_density</text>
</g>
</g>
</svg>
