<?xml version="1.0" encoding="UTF-8" standalone="no"?>
<!DOCTYPE svg PUBLIC "-//W3C//DTD SVG 1.1//EN"
 "http://www.w3.org/Graphics/SVG/1.1/DTD/svg11.dtd">
<!-- Generated by graphviz version 2.40.1 (20161225.0304)
 -->
<!-- Title: proteus::cppRANS3PF2D_base Pages: 1 -->
<svg width="174pt" height="216pt"
 viewBox="0.00 0.00 174.00 216.00" xmlns="http://www.w3.org/2000/svg" xmlns:xlink="http://www.w3.org/1999/xlink">
<g id="graph0" class="graph" transform="scale(1 1) rotate(0) translate(4 212)">
<title>proteus::cppRANS3PF2D_base</title>
<polygon fill="#ffffff" stroke="transparent" points="-4,4 -4,-212 170,-212 170,4 -4,4"/>
<!-- Node2 -->
<g id="node1" class="node">
<title>Node2</title>
<polygon fill="#bfbfbf" stroke="#000000" points="0,-.5 0,-19.5 156,-19.5 156,-.5 0,-.5"/>
<text text-anchor="middle" x="78" y="-7.5" font-family="Helvetica,sans-Serif" font-size="10.00" fill="#000000">proteus::cppRANS3PF2D_base</text>
</g>
<!-- Node3 -->
<g id="node2" class="node">
<title>Node3</title>
<polygon fill="#ffffff" stroke="#bfbfbf" points="19.5,-188.5 19.5,-207.5 136.5,-207.5 136.5,-188.5 19.5,-188.5"/>
<text text-anchor="middle" x="78" y="-195.5" font-family="Helvetica,sans-Serif" font-size="10.00" fill="#000000">std::valarray&lt; double &gt;</text>
</g>
<!-- Node3&#45;&gt;Node2 -->
<g id="edge1" class="edge">
<title>Node3&#45;&gt;Node2</title>
<path fill="none" stroke="#9a32cd" stroke-dasharray="5,2" d="M78,-178.3683C78,-138.5188 78,-49.4125 78,-19.7876"/>
<polygon fill="#9a32cd" stroke="#9a32cd" points="74.5001,-178.4186 78,-188.4186 81.5001,-178.4186 74.5001,-178.4186"/>
<text text-anchor="middle" x="122" y="-162" font-family="Helvetica,sans-Serif" font-size="10.00" fill="#000000"> wStar_min_hiHe</text>
<text text-anchor="middle" x="122" y="-151" font-family="Helvetica,sans-Serif" font-size="10.00" fill="#000000">den_hi</text>
<text text-anchor="middle" x="122" y="-140" font-family="Helvetica,sans-Serif" font-size="10.00" fill="#000000">vStar_hi</text>
<text text-anchor="start" x="78" y="-129" font-family="Helvetica,sans-Serif" font-size="10.00" fill="#000000">TransposeTransport</text>
<text text-anchor="middle" x="122" y="-118" font-family="Helvetica,sans-Serif" font-size="10.00" fill="#000000">Matrix</text>
<text text-anchor="middle" x="122" y="-107" font-family="Helvetica,sans-Serif" font-size="10.00" fill="#000000">uStar_hi</text>
<text text-anchor="middle" x="122" y="-96" font-family="Helvetica,sans-Serif" font-size="10.00" fill="#000000">wStar_hi</text>
<text text-anchor="middle" x="122" y="-85" font-family="Helvetica,sans-Serif" font-size="10.00" fill="#000000">wStar_psi</text>
<text text-anchor="middle" x="122" y="-74" font-family="Helvetica,sans-Serif" font-size="10.00" fill="#000000">wStar_gamma</text>
<text text-anchor="middle" x="122" y="-63" font-family="Helvetica,sans-Serif" font-size="10.00" fill="#000000">vStar_psi</text>
<text text-anchor="middle" x="122" y="-52" font-family="Helvetica,sans-Serif" font-size="10.00" fill="#000000">uStar_psi</text>
<text text-anchor="middle" x="122" y="-41" font-family="Helvetica,sans-Serif" font-size="10.00" fill="#000000">...</text>
</g>
</g>
</svg>
