<?xml version="1.0" encoding="UTF-8" standalone="no"?>
<!DOCTYPE svg PUBLIC "-//W3C//DTD SVG 1.1//EN"
 "http://www.w3.org/Graphics/SVG/1.1/DTD/svg11.dtd">
<!-- Generated by graphviz version 2.50.0 (20211204.2007)
 -->
<!-- Title: proteus::CLSVOF_base Pages: 1 -->
<svg width="163pt" height="117pt"
 viewBox="0.00 0.00 162.50 117.00" xmlns="http://www.w3.org/2000/svg" xmlns:xlink="http://www.w3.org/1999/xlink">
<g id="graph0" class="graph" transform="scale(1 1) rotate(0) translate(4 113)">
<title>proteus::CLSVOF_base</title>
<polygon fill="white" stroke="transparent" points="-4,4 -4,-113 158.5,-113 158.5,4 -4,4"/>
<!-- Node1 -->
<g id="node1" class="node">
<title>Node1</title>
<g id="a_node1"><a xlink:title=" ">
<polygon fill="#bfbfbf" stroke="black" points="0,-0.5 0,-19.5 121,-19.5 121,-0.5 0,-0.5"/>
<text text-anchor="middle" x="60.5" y="-7.5" font-family="Helvetica,sans-Serif" font-size="10.00">proteus::CLSVOF_base</text>
</a>
</g>
</g>
<!-- Node2 -->
<g id="node2" class="node">
<title>Node2</title>
<g id="a_node2"><a xlink:title=" ">
<polygon fill="white" stroke="#bfbfbf" points="2,-89.5 2,-108.5 119,-108.5 119,-89.5 2,-89.5"/>
<text text-anchor="middle" x="60.5" y="-96.5" font-family="Helvetica,sans-Serif" font-size="10.00">std::valarray&lt; double &gt;</text>
</a>
</g>
</g>
<!-- Node2&#45;&gt;Node1 -->
<g id="edge1" class="edge">
<title>Node2&#45;&gt;Node1</title>
<path fill="none" stroke="#9a32cd" stroke-dasharray="5,2" d="M60.5,-79.19C60.5,-60.74 60.5,-33.41 60.5,-19.62"/>
<polygon fill="#9a32cd" stroke="#9a32cd" points="57,-79.34 60.5,-89.34 64,-79.34 57,-79.34"/>
<text text-anchor="middle" x="107.5" y="-63" font-family="Helvetica,sans-Serif" font-size="10.00"> FluxCorrectionMatrix</text>
<text text-anchor="middle" x="107.5" y="-52" font-family="Helvetica,sans-Serif" font-size="10.00">Rneg</text>
<text text-anchor="middle" x="107.5" y="-41" font-family="Helvetica,sans-Serif" font-size="10.00">Rpos</text>
</g>
</g>
</svg>
