<?xml version="1.0" encoding="UTF-8" standalone="no"?>
<!DOCTYPE svg PUBLIC "-//W3C//DTD SVG 1.1//EN"
 "http://www.w3.org/Graphics/SVG/1.1/DTD/svg11.dtd">
<!-- Generated by graphviz version 2.50.0 (20211204.2007)
 -->
<!-- Title: chrono::ChBodyAddedMass Pages: 1 -->
<svg width="285pt" height="152pt"
 viewBox="0.00 0.00 285.00 152.00" xmlns="http://www.w3.org/2000/svg" xmlns:xlink="http://www.w3.org/1999/xlink">
<g id="graph0" class="graph" transform="scale(1 1) rotate(0) translate(4 148)">
<title>chrono::ChBodyAddedMass</title>
<polygon fill="white" stroke="transparent" points="-4,4 -4,-148 281,-148 281,4 -4,4"/>
<!-- Node1 -->
<g id="node1" class="node">
<title>Node1</title>
<g id="a_node1"><a xlink:title=" ">
<polygon fill="#bfbfbf" stroke="black" points="0,-0.5 0,-19.5 139,-19.5 139,-0.5 0,-0.5"/>
<text text-anchor="middle" x="69.5" y="-7.5" font-family="Helvetica,sans-Serif" font-size="10.00">chrono::ChBodyAddedMass</text>
</a>
</g>
</g>
<!-- Node2 -->
<g id="node2" class="node">
<title>Node2</title>
<g id="a_node2"><a xlink:title=" ">
<polygon fill="white" stroke="#bfbfbf" points="27.5,-67.5 27.5,-86.5 79.5,-86.5 79.5,-67.5 27.5,-67.5"/>
<text text-anchor="middle" x="53.5" y="-74.5" font-family="Helvetica,sans-Serif" font-size="10.00">ChBody</text>
</a>
</g>
</g>
<!-- Node2&#45;&gt;Node1 -->
<g id="edge1" class="edge">
<title>Node2&#45;&gt;Node1</title>
<path fill="none" stroke="midnightblue" d="M58.07,-57.41C61.13,-44.99 65.02,-29.22 67.38,-19.63"/>
<polygon fill="midnightblue" stroke="midnightblue" points="54.65,-56.69 55.66,-67.23 61.45,-58.36 54.65,-56.69"/>
</g>
<!-- Node3 -->
<g id="node3" class="node">
<title>Node3</title>
<g id="a_node3"><a xlink:href="classchrono_1_1_ch_variables_body_added_mass.html" target="_top" xlink:title=" ">
<polygon fill="white" stroke="black" points="98,-67.5 98,-86.5 277,-86.5 277,-67.5 98,-67.5"/>
<text text-anchor="middle" x="187.5" y="-74.5" font-family="Helvetica,sans-Serif" font-size="10.00">chrono::ChVariablesBodyAddedMass</text>
</a>
</g>
</g>
<!-- Node3&#45;&gt;Node1 -->
<g id="edge2" class="edge">
<title>Node3&#45;&gt;Node1</title>
<path fill="none" stroke="#9a32cd" stroke-dasharray="5,2" d="M162.61,-62.29C139.22,-49.4 104.94,-30.52 85.16,-19.63"/>
<polygon fill="#9a32cd" stroke="#9a32cd" points="161.14,-65.47 171.59,-67.23 164.52,-59.34 161.14,-65.47"/>
<text text-anchor="middle" x="157" y="-41" font-family="Helvetica,sans-Serif" font-size="10.00"> variables</text>
</g>
<!-- Node4 -->
<g id="node4" class="node">
<title>Node4</title>
<g id="a_node4"><a xlink:title=" ">
<polygon fill="white" stroke="#bfbfbf" points="119.5,-124.5 119.5,-143.5 255.5,-143.5 255.5,-124.5 119.5,-124.5"/>
<text text-anchor="middle" x="187.5" y="-131.5" font-family="Helvetica,sans-Serif" font-size="10.00">ChVariablesBodyOwnMass</text>
</a>
</g>
</g>
<!-- Node4&#45;&gt;Node3 -->
<g id="edge3" class="edge">
<title>Node4&#45;&gt;Node3</title>
<path fill="none" stroke="midnightblue" d="M187.5,-114.12C187.5,-104.82 187.5,-94.06 187.5,-86.71"/>
<polygon fill="midnightblue" stroke="midnightblue" points="184,-114.41 187.5,-124.41 191,-114.41 184,-114.41"/>
</g>
</g>
</svg>
