<?xml version="1.0" encoding="UTF-8" standalone="no"?>
<!DOCTYPE svg PUBLIC "-//W3C//DTD SVG 1.1//EN"
 "http://www.w3.org/Graphics/SVG/1.1/DTD/svg11.dtd">
<!-- Generated by graphviz version 2.44.1 (20200629.0846)
 -->
<!-- Title: proteus::MCorr&lt; CompKernelType, nSpace, nQuadraturePoints_element, nDOF_mesh_trial_element, nDOF_trial_element, nDOF_test_element, nQuadraturePoints_elementBoundary &gt; Pages: 1 -->
<svg width="715pt" height="194pt"
 viewBox="0.00 0.00 715.00 193.50" xmlns="http://www.w3.org/2000/svg" xmlns:xlink="http://www.w3.org/1999/xlink">
<g id="graph0" class="graph" transform="scale(1 1) rotate(0) translate(4 189.5)">
<title>proteus::MCorr&lt; CompKernelType, nSpace, nQuadraturePoints_element, nDOF_mesh_trial_element, nDOF_trial_element, nDOF_test_element, nQuadraturePoints_elementBoundary &gt;</title>
<polygon fill="white" stroke="transparent" points="-4,4 -4,-189.5 711,-189.5 711,4 -4,4"/>
<!-- Node1 -->
<g id="node1" class="node">
<title>Node1</title>
<g id="a_node1"><a xlink:title=" ">
<polygon fill="#bfbfbf" stroke="black" points="504,-66 504,-129 707,-129 707,-66 504,-66"/>
<text text-anchor="start" x="512" y="-117" font-family="Helvetica,sans-Serif" font-size="10.00">proteus::MCorr&lt; CompKernel</text>
<text text-anchor="start" x="512" y="-106" font-family="Helvetica,sans-Serif" font-size="10.00">Type, nSpace, nQuadraturePoints</text>
<text text-anchor="start" x="512" y="-95" font-family="Helvetica,sans-Serif" font-size="10.00">_element, nDOF_mesh_trial_element,</text>
<text text-anchor="start" x="512" y="-84" font-family="Helvetica,sans-Serif" font-size="10.00"> nDOF_trial_element, nDOF_test_element,</text>
<text text-anchor="middle" x="605.5" y="-73" font-family="Helvetica,sans-Serif" font-size="10.00"> nQuadraturePoints_elementBoundary &gt;</text>
</a>
</g>
</g>
<!-- Node2 -->
<g id="node2" class="node">
<title>Node2</title>
<g id="a_node2"><a xlink:href="classproteus_1_1_m_corr__base.html" target="_top" xlink:title=" ">
<polygon fill="white" stroke="black" points="282,-143 282,-162 390,-162 390,-143 282,-143"/>
<text text-anchor="middle" x="336" y="-150" font-family="Helvetica,sans-Serif" font-size="10.00">proteus::MCorr_base</text>
</a>
</g>
</g>
<!-- Node2&#45;&gt;Node1 -->
<g id="edge1" class="edge">
<title>Node2&#45;&gt;Node1</title>
<path fill="none" stroke="midnightblue" d="M393.37,-140.91C425.43,-134.32 466.53,-125.87 503.94,-118.18"/>
<polygon fill="midnightblue" stroke="midnightblue" points="392.38,-137.54 383.29,-142.98 393.79,-144.4 392.38,-137.54"/>
</g>
<!-- Node3 -->
<g id="node3" class="node">
<title>Node3</title>
<g id="a_node3"><a xlink:title=" ">
<polygon fill="white" stroke="#bfbfbf" points="0,-143 0,-162 117,-162 117,-143 0,-143"/>
<text text-anchor="middle" x="58.5" y="-150" font-family="Helvetica,sans-Serif" font-size="10.00">std::valarray&lt; double &gt;</text>
</a>
</g>
</g>
<!-- Node3&#45;&gt;Node2 -->
<g id="edge2" class="edge">
<title>Node3&#45;&gt;Node2</title>
<path fill="none" stroke="#9a32cd" stroke-dasharray="5,2" d="M127.49,-152.5C175.17,-152.5 238,-152.5 281.99,-152.5"/>
<polygon fill="#9a32cd" stroke="#9a32cd" points="127.25,-149 117.25,-152.5 127.25,-156 127.25,-149"/>
<text text-anchor="middle" x="182" y="-177.5" font-family="Helvetica,sans-Serif" font-size="10.00"> FluxCorrectionMatrix</text>
<text text-anchor="middle" x="182" y="-166.5" font-family="Helvetica,sans-Serif" font-size="10.00">Rneg</text>
<text text-anchor="middle" x="182" y="-155.5" font-family="Helvetica,sans-Serif" font-size="10.00">Rpos</text>
</g>
<!-- Node4 -->
<g id="node4" class="node">
<title>Node4</title>
<g id="a_node4"><a xlink:href="classequivalent__polynomials_1_1_generalized_functions__mix.html" target="_top" xlink:title=" ">
<polygon fill="white" stroke="black" points="264,-71.5 264,-123.5 408,-123.5 408,-71.5 264,-71.5"/>
<text text-anchor="start" x="272" y="-111.5" font-family="Helvetica,sans-Serif" font-size="10.00">equivalent_polynomials</text>
<text text-anchor="start" x="272" y="-100.5" font-family="Helvetica,sans-Serif" font-size="10.00">::GeneralizedFunctions</text>
<text text-anchor="start" x="272" y="-89.5" font-family="Helvetica,sans-Serif" font-size="10.00">_mix&lt; nSpace, 1, nDOF_trial</text>
<text text-anchor="middle" x="336" y="-78.5" font-family="Helvetica,sans-Serif" font-size="10.00">_element &gt;</text>
</a>
</g>
</g>
<!-- Node4&#45;&gt;Node1 -->
<g id="edge3" class="edge">
<title>Node4&#45;&gt;Node1</title>
<path fill="none" stroke="#9a32cd" stroke-dasharray="5,2" d="M418.49,-97.5C445.44,-97.5 475.76,-97.5 503.97,-97.5"/>
<polygon fill="#9a32cd" stroke="#9a32cd" points="418.33,-94 408.33,-97.5 418.33,-101 418.33,-94"/>
<text text-anchor="middle" x="464.5" y="-100.5" font-family="Helvetica,sans-Serif" font-size="10.00"> gf_nodes</text>
</g>
<!-- Node5 -->
<g id="node5" class="node">
<title>Node5</title>
<g id="a_node5"><a xlink:href="classequivalent__polynomials_1_1_generalized_functions__mix.html" target="_top" xlink:title=" ">
<polygon fill="white" stroke="black" points="247,-0.5 247,-52.5 425,-52.5 425,-0.5 247,-0.5"/>
<text text-anchor="start" x="255" y="-40.5" font-family="Helvetica,sans-Serif" font-size="10.00">equivalent_polynomials</text>
<text text-anchor="start" x="255" y="-29.5" font-family="Helvetica,sans-Serif" font-size="10.00">::GeneralizedFunctions</text>
<text text-anchor="start" x="255" y="-18.5" font-family="Helvetica,sans-Serif" font-size="10.00">_mix&lt; nSpace, 1, nQuadraturePoints</text>
<text text-anchor="middle" x="336" y="-7.5" font-family="Helvetica,sans-Serif" font-size="10.00">_element &gt;</text>
</a>
</g>
</g>
<!-- Node5&#45;&gt;Node1 -->
<g id="edge4" class="edge">
<title>Node5&#45;&gt;Node1</title>
<path fill="none" stroke="#9a32cd" stroke-dasharray="5,2" d="M435.15,-52.55C457.51,-58.49 481.3,-64.8 503.76,-70.76"/>
<polygon fill="#9a32cd" stroke="#9a32cd" points="435.89,-49.13 425.33,-49.94 434.1,-55.89 435.89,-49.13"/>
<text text-anchor="middle" x="464.5" y="-66.5" font-family="Helvetica,sans-Serif" font-size="10.00"> gf</text>
</g>
</g>
</svg>
