<?xml version="1.0" encoding="UTF-8" standalone="no"?>
<!DOCTYPE svg PUBLIC "-//W3C//DTD SVG 1.1//EN"
 "http://www.w3.org/Graphics/SVG/1.1/DTD/svg11.dtd">
<!-- Generated by graphviz version 2.40.1 (20161225.0304)
 -->
<!-- Title: cppMultiSegmentedCable Pages: 1 -->
<svg width="549pt" height="513pt"
 viewBox="0.00 0.00 549.00 512.50" xmlns="http://www.w3.org/2000/svg" xmlns:xlink="http://www.w3.org/1999/xlink">
<g id="graph0" class="graph" transform="scale(1 1) rotate(0) translate(4 508.5)">
<title>cppMultiSegmentedCable</title>
<polygon fill="#ffffff" stroke="transparent" points="-4,4 -4,-508.5 545,-508.5 545,4 -4,4"/>
<!-- Node1 -->
<g id="node1" class="node">
<title>Node1</title>
<polygon fill="#bfbfbf" stroke="#000000" points="413,-239.5 413,-258.5 541,-258.5 541,-239.5 413,-239.5"/>
<text text-anchor="middle" x="477" y="-246.5" font-family="Helvetica,sans-Serif" font-size="10.00" fill="#000000">cppMultiSegmentedCable</text>
</g>
<!-- Node2 -->
<g id="node2" class="node">
<title>Node2</title>
<polygon fill="#ffffff" stroke="#bfbfbf" points="139,-474 139,-504 287,-504 287,-474 139,-474"/>
<text text-anchor="start" x="147" y="-492" font-family="Helvetica,sans-Serif" font-size="10.00" fill="#000000">std::vector&lt; std::shared</text>
<text text-anchor="middle" x="213" y="-481" font-family="Helvetica,sans-Serif" font-size="10.00" fill="#000000">_ptr&lt; ChVector&lt; double &gt; &gt; &gt;</text>
</g>
<!-- Node2&#45;&gt;Node1 -->
<g id="edge1" class="edge">
<title>Node2&#45;&gt;Node1</title>
<path fill="none" stroke="#9a32cd" stroke-dasharray="5,2" d="M297.6806,-483.2229C331.2186,-477.1209 368.1066,-465.1567 395,-442 454.0382,-391.1648 471.6728,-290.4529 475.8701,-258.7752"/>
<polygon fill="#9a32cd" stroke="#9a32cd" points="296.6844,-479.8404 287.3945,-484.9343 297.8334,-486.7455 296.6844,-479.8404"/>
<text text-anchor="middle" x="353.5" y="-494" font-family="Helvetica,sans-Serif" font-size="10.00" fill="#000000"> forces_drag</text>
<text text-anchor="middle" x="353.5" y="-483" font-family="Helvetica,sans-Serif" font-size="10.00" fill="#000000">forces_addedmass</text>
</g>
<!-- Node3 -->
<g id="node3" class="node">
<title>Node3</title>
<polygon fill="#ffffff" stroke="#bfbfbf" points="152.5,-425 152.5,-455 273.5,-455 273.5,-425 152.5,-425"/>
<text text-anchor="start" x="160.5" y="-443" font-family="Helvetica,sans-Serif" font-size="10.00" fill="#000000">std::vector&lt; std::shared</text>
<text text-anchor="middle" x="213" y="-432" font-family="Helvetica,sans-Serif" font-size="10.00" fill="#000000">_ptr&lt; cppCable &gt; &gt;</text>
</g>
<!-- Node3&#45;&gt;Node1 -->
<g id="edge2" class="edge">
<title>Node3&#45;&gt;Node1</title>
<path fill="none" stroke="#9a32cd" stroke-dasharray="5,2" d="M283.5508,-434.3862C319.8807,-428.477 363.1155,-416.4409 395,-392 442.0162,-355.96 466.612,-284.7066 474.305,-258.7503"/>
<polygon fill="#9a32cd" stroke="#9a32cd" points="282.8714,-430.9489 273.5022,-435.8956 283.9112,-437.8712 282.8714,-430.9489"/>
<text text-anchor="middle" x="353.5" y="-430" font-family="Helvetica,sans-Serif" font-size="10.00" fill="#000000"> cables</text>
</g>
<!-- Node4 -->
<g id="node4" class="node">
<title>Node4</title>
<polygon fill="#ffffff" stroke="#bfbfbf" points="140,-376 140,-406 286,-406 286,-376 140,-376"/>
<text text-anchor="start" x="148" y="-394" font-family="Helvetica,sans-Serif" font-size="10.00" fill="#000000">std::vector&lt; std::shared</text>
<text text-anchor="middle" x="213" y="-383" font-family="Helvetica,sans-Serif" font-size="10.00" fill="#000000">_ptr&lt; ChNodeFEAxyzDD &gt; &gt;</text>
</g>
<!-- Node4&#45;&gt;Node1 -->
<g id="edge3" class="edge">
<title>Node4&#45;&gt;Node1</title>
<path fill="none" stroke="#9a32cd" stroke-dasharray="5,2" d="M296.1823,-381.673C328.8069,-375.2355 365.4305,-364.3618 395,-346 431.7174,-323.1996 460.2782,-278.4527 471.6491,-258.73"/>
<polygon fill="#9a32cd" stroke="#9a32cd" points="295.3885,-378.2605 286.198,-383.5317 296.6697,-385.1423 295.3885,-378.2605"/>
<text text-anchor="middle" x="353.5" y="-380" font-family="Helvetica,sans-Serif" font-size="10.00" fill="#000000"> nodesDD</text>
</g>
<!-- Node5 -->
<g id="node5" class="node">
<title>Node5</title>
<polygon fill="#ffffff" stroke="#bfbfbf" points="134.5,-327 134.5,-357 291.5,-357 291.5,-327 134.5,-327"/>
<text text-anchor="start" x="142.5" y="-345" font-family="Helvetica,sans-Serif" font-size="10.00" fill="#000000">std::vector&lt; std::shared</text>
<text text-anchor="middle" x="213" y="-334" font-family="Helvetica,sans-Serif" font-size="10.00" fill="#000000">_ptr&lt; ChElementBeamEuler &gt; &gt;</text>
</g>
<!-- Node5&#45;&gt;Node1 -->
<g id="edge4" class="edge">
<title>Node5&#45;&gt;Node1</title>
<path fill="none" stroke="#9a32cd" stroke-dasharray="5,2" d="M301.9581,-333.3481C332.3192,-328.3356 365.9254,-320.4365 395,-308 423.7024,-295.7227 452.1342,-271.9944 466.7953,-258.6747"/>
<polygon fill="#9a32cd" stroke="#9a32cd" points="301.1352,-329.9343 291.7973,-334.9397 302.2185,-336.8499 301.1352,-329.9343"/>
<text text-anchor="middle" x="353.5" y="-334" font-family="Helvetica,sans-Serif" font-size="10.00" fill="#000000"> elemsBeamEuler</text>
</g>
<!-- Node6 -->
<g id="node6" class="node">
<title>Node6</title>
<polygon fill="#ffffff" stroke="#bfbfbf" points="143.5,-278 143.5,-308 282.5,-308 282.5,-278 143.5,-278"/>
<text text-anchor="start" x="151.5" y="-296" font-family="Helvetica,sans-Serif" font-size="10.00" fill="#000000">std::vector&lt; std::shared</text>
<text text-anchor="middle" x="213" y="-285" font-family="Helvetica,sans-Serif" font-size="10.00" fill="#000000">_ptr&lt; ChNodeFEAxyzD &gt; &gt;</text>
</g>
<!-- Node6&#45;&gt;Node1 -->
<g id="edge5" class="edge">
<title>Node6&#45;&gt;Node1</title>
<path fill="none" stroke="#9a32cd" stroke-dasharray="5,2" d="M293.1137,-294.4098C325.1383,-293.4721 362.1472,-290.4837 395,-283 417.9904,-277.7629 442.7899,-266.6412 459.0241,-258.5395"/>
<polygon fill="#9a32cd" stroke="#9a32cd" points="292.8195,-290.9156 282.9029,-294.6454 292.981,-297.9137 292.8195,-290.9156"/>
<text text-anchor="middle" x="353.5" y="-296" font-family="Helvetica,sans-Serif" font-size="10.00" fill="#000000"> nodes</text>
</g>
<!-- Node7 -->
<g id="node7" class="node">
<title>Node7</title>
<polygon fill="#ffffff" stroke="#bfbfbf" points="146,-239.5 146,-258.5 280,-258.5 280,-239.5 146,-239.5"/>
<text text-anchor="middle" x="213" y="-246.5" font-family="Helvetica,sans-Serif" font-size="10.00" fill="#000000">std::vector&lt; ChVector&lt;&gt; &gt;</text>
</g>
<!-- Node7&#45;&gt;Node1 -->
<g id="edge6" class="edge">
<title>Node7&#45;&gt;Node1</title>
<path fill="none" stroke="#9a32cd" stroke-dasharray="5,2" d="M290.5088,-249C329.3106,-249 375.7319,-249 412.5529,-249"/>
<polygon fill="#9a32cd" stroke="#9a32cd" points="290.3015,-245.5001 280.3014,-249 290.3014,-252.5001 290.3015,-245.5001"/>
<text text-anchor="middle" x="353.5" y="-274" font-family="Helvetica,sans-Serif" font-size="10.00" fill="#000000"> fluid_acceleration</text>
<text text-anchor="middle" x="353.5" y="-263" font-family="Helvetica,sans-Serif" font-size="10.00" fill="#000000">fluid_velocity</text>
<text text-anchor="middle" x="353.5" y="-252" font-family="Helvetica,sans-Serif" font-size="10.00" fill="#000000">mvecs</text>
</g>
<!-- Node8 -->
<g id="node8" class="node">
<title>Node8</title>
<g id="a_node8"><a xlink:title="STL class. ">
<polygon fill="#ffffff" stroke="#bfbfbf" points="183,-201.5 183,-220.5 243,-220.5 243,-201.5 183,-201.5"/>
<text text-anchor="middle" x="213" y="-208.5" font-family="Helvetica,sans-Serif" font-size="10.00" fill="#000000">std::string</text>
</a>
</g>
</g>
<!-- Node8&#45;&gt;Node1 -->
<g id="edge7" class="edge">
<title>Node8&#45;&gt;Node1</title>
<path fill="none" stroke="#9a32cd" stroke-dasharray="5,2" d="M253.3747,-215.4546C290.3151,-219.684 346.4431,-226.4965 395,-234 405.4409,-235.6134 416.595,-237.5264 427.2065,-239.4369"/>
<polygon fill="#9a32cd" stroke="#9a32cd" points="253.3529,-211.9298 243.0219,-214.2795 252.5633,-218.8851 253.3529,-211.9298"/>
<text text-anchor="middle" x="353.5" y="-237" font-family="Helvetica,sans-Serif" font-size="10.00" fill="#000000"> beam_type</text>
</g>
<!-- Node9 -->
<g id="node9" class="node">
<title>Node9</title>
<g id="a_node9"><a xlink:title="STL class. ">
<polygon fill="#ffffff" stroke="#bfbfbf" points="0,-196 0,-226 95,-226 95,-196 0,-196"/>
<text text-anchor="start" x="8" y="-214" font-family="Helvetica,sans-Serif" font-size="10.00" fill="#000000">std::basic_string&lt;</text>
<text text-anchor="middle" x="47.5" y="-203" font-family="Helvetica,sans-Serif" font-size="10.00" fill="#000000"> char &gt;</text>
</a>
</g>
</g>
<!-- Node9&#45;&gt;Node8 -->
<g id="edge8" class="edge">
<title>Node9&#45;&gt;Node8</title>
<path fill="none" stroke="#191970" d="M105.55,-211C131.6631,-211 161.389,-211 182.9452,-211"/>
<polygon fill="#191970" stroke="#191970" points="105.3695,-207.5001 95.3695,-211 105.3694,-214.5001 105.3695,-207.5001"/>
</g>
<!-- Node10 -->
<g id="node10" class="node">
<title>Node10</title>
<polygon fill="#ffffff" stroke="#bfbfbf" points="167,-163.5 167,-182.5 259,-182.5 259,-163.5 167,-163.5"/>
<text text-anchor="middle" x="213" y="-170.5" font-family="Helvetica,sans-Serif" font-size="10.00" fill="#000000">std::vector&lt; int &gt;</text>
</g>
<!-- Node10&#45;&gt;Node1 -->
<g id="edge9" class="edge">
<title>Node10&#45;&gt;Node1</title>
<path fill="none" stroke="#9a32cd" stroke-dasharray="5,2" d="M269.2417,-173.6709C306.0022,-175.6533 354.5234,-181.2362 395,-196 422.8681,-206.1649 450.9539,-227.1994 465.937,-239.4926"/>
<polygon fill="#9a32cd" stroke="#9a32cd" points="269.3539,-170.1724 259.2017,-173.2026 269.0277,-177.1648 269.3539,-170.1724"/>
<text text-anchor="middle" x="353.5" y="-210" font-family="Helvetica,sans-Serif" font-size="10.00" fill="#000000"> nb_nodes</text>
<text text-anchor="middle" x="353.5" y="-199" font-family="Helvetica,sans-Serif" font-size="10.00" fill="#000000">nb_elems</text>
</g>
<!-- Node11 -->
<g id="node11" class="node">
<title>Node11</title>
<polygon fill="#ffffff" stroke="#bfbfbf" points="132,-114 132,-144 294,-144 294,-114 132,-114"/>
<text text-anchor="start" x="140" y="-132" font-family="Helvetica,sans-Serif" font-size="10.00" fill="#000000">std::vector&lt; std::shared</text>
<text text-anchor="middle" x="213" y="-121" font-family="Helvetica,sans-Serif" font-size="10.00" fill="#000000">_ptr&lt; ChElementCableANCF &gt; &gt;</text>
</g>
<!-- Node11&#45;&gt;Node1 -->
<g id="edge10" class="edge">
<title>Node11&#45;&gt;Node1</title>
<path fill="none" stroke="#9a32cd" stroke-dasharray="5,2" d="M304.2809,-134.1157C334.537,-138.7255 367.4864,-147.0701 395,-162 430.2089,-181.1057 458.9361,-220.8522 470.943,-239.2578"/>
<polygon fill="#9a32cd" stroke="#9a32cd" points="304.5246,-130.6157 294.1351,-132.6915 303.5514,-137.5477 304.5246,-130.6157"/>
<text text-anchor="middle" x="353.5" y="-165" font-family="Helvetica,sans-Serif" font-size="10.00" fill="#000000"> elemsCableANCF</text>
</g>
<!-- Node12 -->
<g id="node12" class="node">
<title>Node12</title>
<polygon fill="#ffffff" stroke="#bfbfbf" points="141.5,-65 141.5,-95 284.5,-95 284.5,-65 141.5,-65"/>
<text text-anchor="start" x="149.5" y="-83" font-family="Helvetica,sans-Serif" font-size="10.00" fill="#000000">std::vector&lt; std::shared</text>
<text text-anchor="middle" x="213" y="-72" font-family="Helvetica,sans-Serif" font-size="10.00" fill="#000000">_ptr&lt; ChNodeFEAxyzrot &gt; &gt;</text>
</g>
<!-- Node12&#45;&gt;Node1 -->
<g id="edge11" class="edge">
<title>Node12&#45;&gt;Node1</title>
<path fill="none" stroke="#9a32cd" stroke-dasharray="5,2" d="M294.9306,-84.3332C328.373,-89.4106 365.932,-99.6641 395,-120 439.5763,-151.1854 465.3434,-215.1467 473.8409,-239.3937"/>
<polygon fill="#9a32cd" stroke="#9a32cd" points="295.0832,-80.8211 284.698,-82.9182 294.1243,-87.7551 295.0832,-80.8211"/>
<text text-anchor="middle" x="353.5" y="-123" font-family="Helvetica,sans-Serif" font-size="10.00" fill="#000000"> nodesRot</text>
</g>
<!-- Node13 -->
<g id="node13" class="node">
<title>Node13</title>
<polygon fill="#ffffff" stroke="#bfbfbf" points="158,-.5 158,-19.5 268,-19.5 268,-.5 158,-.5"/>
<text text-anchor="middle" x="213" y="-7.5" font-family="Helvetica,sans-Serif" font-size="10.00" fill="#000000">std::vector&lt; double &gt;</text>
</g>
<!-- Node13&#45;&gt;Node1 -->
<g id="edge12" class="edge">
<title>Node13&#45;&gt;Node1</title>
<path fill="none" stroke="#9a32cd" stroke-dasharray="5,2" d="M278.7146,-.873C316.3971,.7476 362.5146,-3.8389 395,-29 430.6093,-56.5806 465.8478,-200.4976 474.8177,-239.3343"/>
<polygon fill="#9a32cd" stroke="#9a32cd" points="278.1058,2.5973 268.3282,-1.4828 278.5162,-4.3906 278.1058,2.5973"/>
<text text-anchor="middle" x="353.5" y="-76" font-family="Helvetica,sans-Serif" font-size="10.00" fill="#000000"> E</text>
<text text-anchor="middle" x="353.5" y="-65" font-family="Helvetica,sans-Serif" font-size="10.00" fill="#000000">rho</text>
<text text-anchor="middle" x="353.5" y="-54" font-family="Helvetica,sans-Serif" font-size="10.00" fill="#000000">length</text>
<text text-anchor="middle" x="353.5" y="-43" font-family="Helvetica,sans-Serif" font-size="10.00" fill="#000000">d</text>
<text text-anchor="middle" x="353.5" y="-32" font-family="Helvetica,sans-Serif" font-size="10.00" fill="#000000">fluid_density</text>
</g>
</g>
</svg>
