<?xml version="1.0" encoding="UTF-8" standalone="no"?>
<!DOCTYPE svg PUBLIC "-//W3C//DTD SVG 1.1//EN"
 "http://www.w3.org/Graphics/SVG/1.1/DTD/svg11.dtd">
<!-- Generated by graphviz version 2.40.1 (20161225.0304)
 -->
<!-- Title: proteus::cADR&lt; CompKernelType, nSpace, nQuadraturePoints_element, nDOF_mesh_trial_element, nDOF_trial_element, nDOF_test_element, nQuadraturePoints_elementBoundary &gt; Pages: 1 -->
<svg width="601pt" height="188pt"
 viewBox="0.00 0.00 601.00 188.00" xmlns="http://www.w3.org/2000/svg" xmlns:xlink="http://www.w3.org/1999/xlink">
<g id="graph0" class="graph" transform="scale(1 1) rotate(0) translate(4 184)">
<title>proteus::cADR&lt; CompKernelType, nSpace, nQuadraturePoints_element, nDOF_mesh_trial_element, nDOF_trial_element, nDOF_test_element, nQuadraturePoints_elementBoundary &gt;</title>
<polygon fill="#ffffff" stroke="transparent" points="-4,4 -4,-184 597,-184 597,4 -4,4"/>
<!-- Node2 -->
<g id="node1" class="node">
<title>Node2</title>
<polygon fill="#bfbfbf" stroke="#000000" points="390,-49.5 390,-112.5 593,-112.5 593,-49.5 390,-49.5"/>
<text text-anchor="start" x="398" y="-100.5" font-family="Helvetica,sans-Serif" font-size="10.00" fill="#000000">proteus::cADR&lt; CompKernel</text>
<text text-anchor="start" x="398" y="-89.5" font-family="Helvetica,sans-Serif" font-size="10.00" fill="#000000">Type, nSpace, nQuadraturePoints</text>
<text text-anchor="start" x="398" y="-78.5" font-family="Helvetica,sans-Serif" font-size="10.00" fill="#000000">_element, nDOF_mesh_trial_element,</text>
<text text-anchor="start" x="398" y="-67.5" font-family="Helvetica,sans-Serif" font-size="10.00" fill="#000000"> nDOF_trial_element, nDOF_test_element,</text>
<text text-anchor="middle" x="491.5" y="-56.5" font-family="Helvetica,sans-Serif" font-size="10.00" fill="#000000"> nQuadraturePoints_elementBoundary &gt;</text>
</g>
<!-- Node3 -->
<g id="node2" class="node">
<title>Node3</title>
<g id="a_node2"><a xlink:href="classproteus_1_1c_a_d_r__base.html" target="_top" xlink:title="proteus::cADR_base">
<polygon fill="#ffffff" stroke="#000000" points="62.5,-160.5 62.5,-179.5 170.5,-179.5 170.5,-160.5 62.5,-160.5"/>
<text text-anchor="middle" x="116.5" y="-167.5" font-family="Helvetica,sans-Serif" font-size="10.00" fill="#000000">proteus::cADR_base</text>
</a>
</g>
</g>
<!-- Node3&#45;&gt;Node2 -->
<g id="edge1" class="edge">
<title>Node3&#45;&gt;Node2</title>
<path fill="none" stroke="#191970" d="M180.7066,-163.7107C232.8949,-157.645 308.0779,-146.7275 372,-129 387.9429,-124.5786 404.6539,-118.7025 420.3568,-112.5823"/>
<polygon fill="#191970" stroke="#191970" points="180.127,-160.2539 170.5857,-164.8597 180.9167,-167.2092 180.127,-160.2539"/>
</g>
<!-- Node4 -->
<g id="node3" class="node">
<title>Node4</title>
<g id="a_node3"><a xlink:href="classequivalent__polynomials_1_1_generalized_functions__mix.html" target="_top" xlink:title="equivalent_polynomials\l::GeneralizedFunctions\l_mix\&lt; nSpace, 3, nQuadraturePoints\l_element, nQuadraturePoints_elementBoundary \&gt;">
<polygon fill="#ffffff" stroke="#000000" points="0,-89 0,-141 233,-141 233,-89 0,-89"/>
<text text-anchor="start" x="8" y="-129" font-family="Helvetica,sans-Serif" font-size="10.00" fill="#000000">equivalent_polynomials</text>
<text text-anchor="start" x="8" y="-118" font-family="Helvetica,sans-Serif" font-size="10.00" fill="#000000">::GeneralizedFunctions</text>
<text text-anchor="start" x="8" y="-107" font-family="Helvetica,sans-Serif" font-size="10.00" fill="#000000">_mix&lt; nSpace, 3, nQuadraturePoints</text>
<text text-anchor="middle" x="116.5" y="-96" font-family="Helvetica,sans-Serif" font-size="10.00" fill="#000000">_element, nQuadraturePoints_elementBoundary &gt;</text>
</a>
</g>
</g>
<!-- Node4&#45;&gt;Node2 -->
<g id="edge2" class="edge">
<title>Node4&#45;&gt;Node2</title>
<path fill="none" stroke="#9a32cd" stroke-dasharray="5,2" d="M243.2909,-104.4403C284.3667,-100.9237 330.1258,-96.9051 372,-93 377.813,-92.4579 383.784,-91.8908 389.8089,-91.3107"/>
<polygon fill="#9a32cd" stroke="#9a32cd" points="242.8967,-100.9611 233.2309,-105.2996 243.4925,-107.9357 242.8967,-100.9611"/>
<text text-anchor="middle" x="311.5" y="-117" font-family="Helvetica,sans-Serif" font-size="10.00" fill="#000000"> gf_s</text>
<text text-anchor="middle" x="311.5" y="-106" font-family="Helvetica,sans-Serif" font-size="10.00" fill="#000000">gf</text>
</g>
<!-- Node5 -->
<g id="node4" class="node">
<title>Node5</title>
<polygon fill="#ffffff" stroke="#bfbfbf" points="77.5,-38.5 77.5,-57.5 155.5,-57.5 155.5,-38.5 77.5,-38.5"/>
<text text-anchor="middle" x="116.5" y="-45.5" font-family="Helvetica,sans-Serif" font-size="10.00" fill="#000000">std::set&lt; int &gt;</text>
</g>
<!-- Node5&#45;&gt;Node2 -->
<g id="edge3" class="edge">
<title>Node5&#45;&gt;Node2</title>
<path fill="none" stroke="#9a32cd" stroke-dasharray="5,2" d="M165.8806,-44.4495C217.5318,-41.6092 300.8387,-39.4954 372,-49 377.8543,-49.7819 383.8298,-50.7651 389.833,-51.8973"/>
<polygon fill="#9a32cd" stroke="#9a32cd" points="165.4502,-40.9686 155.6703,-45.0434 165.8567,-47.9568 165.4502,-40.9686"/>
<text text-anchor="middle" x="311.5" y="-85" font-family="Helvetica,sans-Serif" font-size="10.00" fill="#000000"> ifem_boundary_elements</text>
<text text-anchor="middle" x="311.5" y="-74" font-family="Helvetica,sans-Serif" font-size="10.00" fill="#000000">cutfem_boundary_elements</text>
<text text-anchor="middle" x="311.5" y="-63" font-family="Helvetica,sans-Serif" font-size="10.00" fill="#000000">cutfem_boundaries</text>
<text text-anchor="middle" x="311.5" y="-52" font-family="Helvetica,sans-Serif" font-size="10.00" fill="#000000">ifem_boundaries</text>
</g>
<!-- Node6 -->
<g id="node5" class="node">
<title>Node6</title>
<polygon fill="#ffffff" stroke="#bfbfbf" points="63,-.5 63,-19.5 170,-19.5 170,-.5 63,-.5"/>
<text text-anchor="middle" x="116.5" y="-7.5" font-family="Helvetica,sans-Serif" font-size="10.00" fill="#000000">std::valarray&lt; bool &gt;</text>
</g>
<!-- Node6&#45;&gt;Node2 -->
<g id="edge4" class="edge">
<title>Node6&#45;&gt;Node2</title>
<path fill="none" stroke="#9a32cd" stroke-dasharray="5,2" d="M180.3204,-8.422C232.5917,-8.5688 308.0817,-12.0943 372,-28 391.9315,-32.9599 412.7052,-41.0365 431.2346,-49.4065"/>
<polygon fill="#9a32cd" stroke="#9a32cd" points="180.1815,-4.922 170.1861,-8.435 180.1906,-11.922 180.1815,-4.922"/>
<text text-anchor="middle" x="311.5" y="-31" font-family="Helvetica,sans-Serif" font-size="10.00" fill="#000000"> elementIsActive</text>
</g>
</g>
</svg>
