<?xml version="1.0" encoding="UTF-8" standalone="no"?>
<!DOCTYPE svg PUBLIC "-//W3C//DTD SVG 1.1//EN"
 "http://www.w3.org/Graphics/SVG/1.1/DTD/svg11.dtd">
<!-- Generated by graphviz version 2.50.0 (20211204.2007)
 -->
<!-- Title: cppRigidBody Pages: 1 -->
<svg width="726pt" height="293pt"
 viewBox="0.00 0.00 726.00 292.50" xmlns="http://www.w3.org/2000/svg" xmlns:xlink="http://www.w3.org/1999/xlink">
<g id="graph0" class="graph" transform="scale(1 1) rotate(0) translate(4 288.5)">
<title>cppRigidBody</title>
<polygon fill="white" stroke="transparent" points="-4,4 -4,-288.5 722,-288.5 722,4 -4,4"/>
<!-- Node1 -->
<g id="node1" class="node">
<title>Node1</title>
<g id="a_node1"><a xlink:title=" ">
<polygon fill="#bfbfbf" stroke="black" points="641,-116 641,-135 718,-135 718,-116 641,-116"/>
<text text-anchor="middle" x="679.5" y="-123" font-family="Helvetica,sans-Serif" font-size="10.00">cppRigidBody</text>
</a>
</g>
</g>
<!-- Node2 -->
<g id="node2" class="node">
<title>Node2</title>
<g id="a_node2"><a xlink:href="classcpp_system.html" target="_top" xlink:title=" ">
<polygon fill="white" stroke="black" points="418,-227 418,-246 484,-246 484,-227 418,-227"/>
<text text-anchor="middle" x="451" y="-234" font-family="Helvetica,sans-Serif" font-size="10.00">cppSystem</text>
</a>
</g>
</g>
<!-- Node2&#45;&gt;Node1 -->
<g id="edge1" class="edge">
<title>Node2&#45;&gt;Node1</title>
<path fill="none" stroke="#9a32cd" stroke-dasharray="5,2" d="M494.7,-238.64C531.48,-238.48 584.55,-233.25 623,-208.5 650.99,-190.49 668.21,-152.81 675.08,-135.09"/>
<polygon fill="#9a32cd" stroke="#9a32cd" points="494.34,-235.14 484.32,-238.56 494.29,-242.14 494.34,-235.14"/>
<text text-anchor="middle" x="585.5" y="-237.5" font-family="Helvetica,sans-Serif" font-size="10.00"> system</text>
</g>
<!-- Node3 -->
<g id="node3" class="node">
<title>Node3</title>
<g id="a_node3"><a xlink:title=" ">
<polygon fill="white" stroke="#bfbfbf" points="132,-265 132,-284 278,-284 278,-265 132,-265"/>
<text text-anchor="middle" x="205" y="-272" font-family="Helvetica,sans-Serif" font-size="10.00">std::shared_ptr&lt; ChSystem &gt;</text>
</a>
</g>
</g>
<!-- Node3&#45;&gt;Node2 -->
<g id="edge2" class="edge">
<title>Node3&#45;&gt;Node2</title>
<path fill="none" stroke="#9a32cd" stroke-dasharray="5,2" d="M277.1,-263.46C301.48,-259.68 328.93,-255.41 354,-251.5 375.17,-248.2 398.96,-244.48 417.56,-241.58"/>
<polygon fill="#9a32cd" stroke="#9a32cd" points="276.55,-260.01 267.21,-265 277.63,-266.92 276.55,-260.01"/>
<text text-anchor="middle" x="325" y="-262.5" font-family="Helvetica,sans-Serif" font-size="10.00"> system</text>
</g>
<!-- Node4 -->
<g id="node4" class="node">
<title>Node4</title>
<g id="a_node4"><a xlink:title="STL class.">
<polygon fill="white" stroke="#bfbfbf" points="175,-227 175,-246 235,-246 235,-227 175,-227"/>
<text text-anchor="middle" x="205" y="-234" font-family="Helvetica,sans-Serif" font-size="10.00">std::string</text>
</a>
</g>
</g>
<!-- Node4&#45;&gt;Node2 -->
<g id="edge3" class="edge">
<title>Node4&#45;&gt;Node2</title>
<path fill="none" stroke="#9a32cd" stroke-dasharray="5,2" d="M245.44,-236.5C293.37,-236.5 373.33,-236.5 417.75,-236.5"/>
<polygon fill="#9a32cd" stroke="#9a32cd" points="245.43,-233 235.43,-236.5 245.43,-240 245.43,-233"/>
<text text-anchor="middle" x="325" y="-239.5" font-family="Helvetica,sans-Serif" font-size="10.00"> directory</text>
</g>
<!-- Node5 -->
<g id="node5" class="node">
<title>Node5</title>
<g id="a_node5"><a xlink:title="STL class.">
<polygon fill="white" stroke="#bfbfbf" points="0,-221.5 0,-251.5 95,-251.5 95,-221.5 0,-221.5"/>
<text text-anchor="start" x="8" y="-239.5" font-family="Helvetica,sans-Serif" font-size="10.00">std::basic_string&lt;</text>
<text text-anchor="middle" x="47.5" y="-228.5" font-family="Helvetica,sans-Serif" font-size="10.00"> char &gt;</text>
</a>
</g>
</g>
<!-- Node5&#45;&gt;Node4 -->
<g id="edge4" class="edge">
<title>Node5&#45;&gt;Node4</title>
<path fill="none" stroke="midnightblue" d="M105.43,-236.5C129.06,-236.5 155.46,-236.5 174.99,-236.5"/>
<polygon fill="midnightblue" stroke="midnightblue" points="105.16,-233 95.16,-236.5 105.16,-240 105.16,-233"/>
</g>
<!-- Node6 -->
<g id="node6" class="node">
<title>Node6</title>
<g id="a_node6"><a xlink:title=" ">
<polygon fill="white" stroke="#bfbfbf" points="136.5,-177.5 136.5,-207.5 273.5,-207.5 273.5,-177.5 136.5,-177.5"/>
<text text-anchor="start" x="144.5" y="-195.5" font-family="Helvetica,sans-Serif" font-size="10.00">std::shared_ptr&lt; ChSystem</text>
<text text-anchor="middle" x="205" y="-184.5" font-family="Helvetica,sans-Serif" font-size="10.00">SMC &gt;</text>
</a>
</g>
</g>
<!-- Node6&#45;&gt;Node2 -->
<g id="edge5" class="edge">
<title>Node6&#45;&gt;Node2</title>
<path fill="none" stroke="#9a32cd" stroke-dasharray="5,2" d="M283.77,-206.52C329.17,-214.71 384.01,-224.6 417.96,-230.72"/>
<polygon fill="#9a32cd" stroke="#9a32cd" points="284.11,-203.03 273.64,-204.7 282.86,-209.92 284.11,-203.03"/>
<text text-anchor="middle" x="325" y="-220.5" font-family="Helvetica,sans-Serif" font-size="10.00"> systemSMC</text>
</g>
<!-- Node7 -->
<g id="node7" class="node">
<title>Node7</title>
<g id="a_node7"><a xlink:title=" ">
<polygon fill="white" stroke="#bfbfbf" points="372,-189 372,-208 530,-208 530,-189 372,-189"/>
<text text-anchor="middle" x="451" y="-196" font-family="Helvetica,sans-Serif" font-size="10.00">std::shared_ptr&lt; ChLinkSpring &gt;</text>
</a>
</g>
</g>
<!-- Node7&#45;&gt;Node1 -->
<g id="edge6" class="edge">
<title>Node7&#45;&gt;Node1</title>
<path fill="none" stroke="#9a32cd" stroke-dasharray="5,2" d="M540.38,-195.18C567.79,-191.65 597.49,-185.17 623,-173.5 642.69,-164.49 660.71,-146.28 670.59,-135.06"/>
<polygon fill="#9a32cd" stroke="#9a32cd" points="539.92,-191.71 530.4,-196.35 540.74,-198.66 539.92,-191.71"/>
<text text-anchor="middle" x="585.5" y="-196.5" font-family="Helvetica,sans-Serif" font-size="10.00"> spring</text>
</g>
<!-- Node8 -->
<g id="node8" class="node">
<title>Node8</title>
<g id="a_node8"><a xlink:title=" ">
<polygon fill="white" stroke="#bfbfbf" points="384,-137 384,-156 518,-156 518,-137 384,-137"/>
<text text-anchor="middle" x="451" y="-144" font-family="Helvetica,sans-Serif" font-size="10.00">std::vector&lt; ChVector&lt;&gt; &gt;</text>
</a>
</g>
</g>
<!-- Node8&#45;&gt;Node1 -->
<g id="edge7" class="edge">
<title>Node8&#45;&gt;Node1</title>
<path fill="none" stroke="#9a32cd" stroke-dasharray="5,2" d="M528.13,-139.44C566.09,-135.92 610.3,-131.82 640.91,-128.99"/>
<polygon fill="#9a32cd" stroke="#9a32cd" points="527.76,-135.96 518.12,-140.37 528.4,-142.93 527.76,-135.96"/>
<text text-anchor="middle" x="585.5" y="-161.5" font-family="Helvetica,sans-Serif" font-size="10.00"> trimesh_pos</text>
<text text-anchor="middle" x="585.5" y="-150.5" font-family="Helvetica,sans-Serif" font-size="10.00">trimesh_pos0</text>
<text text-anchor="middle" x="585.5" y="-139.5" font-family="Helvetica,sans-Serif" font-size="10.00">trimesh_pos_last</text>
</g>
<!-- Node9 -->
<g id="node9" class="node">
<title>Node9</title>
<g id="a_node9"><a xlink:title=" ">
<polygon fill="white" stroke="#bfbfbf" points="383.5,-99 383.5,-118 518.5,-118 518.5,-99 383.5,-99"/>
<text text-anchor="middle" x="451" y="-106" font-family="Helvetica,sans-Serif" font-size="10.00">std::shared_ptr&lt; ChBody &gt;</text>
</a>
</g>
</g>
<!-- Node9&#45;&gt;Node1 -->
<g id="edge8" class="edge">
<title>Node9&#45;&gt;Node1</title>
<path fill="none" stroke="#9a32cd" stroke-dasharray="5,2" d="M529.14,-104.47C558.64,-104.1 592.51,-105.1 623,-109.5 632.23,-110.83 642.08,-113.31 650.88,-115.92"/>
<polygon fill="#9a32cd" stroke="#9a32cd" points="528.84,-100.98 518.91,-104.66 528.97,-107.98 528.84,-100.98"/>
<text text-anchor="middle" x="585.5" y="-112.5" font-family="Helvetica,sans-Serif" font-size="10.00"> body</text>
</g>
<!-- Node10 -->
<g id="node10" class="node">
<title>Node10</title>
<g id="a_node10"><a xlink:title=" ">
<polygon fill="white" stroke="#bfbfbf" points="379.5,-49.5 379.5,-79.5 522.5,-79.5 522.5,-49.5 379.5,-49.5"/>
<text text-anchor="start" x="387.5" y="-67.5" font-family="Helvetica,sans-Serif" font-size="10.00">std::shared_ptr&lt; ChLinkLock</text>
<text text-anchor="middle" x="451" y="-56.5" font-family="Helvetica,sans-Serif" font-size="10.00">Lock &gt;</text>
</a>
</g>
</g>
<!-- Node10&#45;&gt;Node1 -->
<g id="edge9" class="edge">
<title>Node10&#45;&gt;Node1</title>
<path fill="none" stroke="#9a32cd" stroke-dasharray="5,2" d="M532.96,-68.39C562.06,-71.71 594.68,-77.72 623,-88.5 639.88,-94.93 656.8,-107.26 667.44,-115.92"/>
<polygon fill="#9a32cd" stroke="#9a32cd" points="533.14,-64.89 522.82,-67.32 532.4,-71.85 533.14,-64.89"/>
<text text-anchor="middle" x="585.5" y="-91.5" font-family="Helvetica,sans-Serif" font-size="10.00"> lock_motion</text>
</g>
<!-- Node11 -->
<g id="node11" class="node">
<title>Node11</title>
<g id="a_node11"><a xlink:title=" ">
<polygon fill="white" stroke="#bfbfbf" points="382,-0.5 382,-30.5 520,-30.5 520,-0.5 382,-0.5"/>
<text text-anchor="start" x="390" y="-18.5" font-family="Helvetica,sans-Serif" font-size="10.00">std::shared_ptr&lt; ChTriangle</text>
<text text-anchor="middle" x="451" y="-7.5" font-family="Helvetica,sans-Serif" font-size="10.00">MeshConnected &gt;</text>
</a>
</g>
</g>
<!-- Node11&#45;&gt;Node1 -->
<g id="edge10" class="edge">
<title>Node11&#45;&gt;Node1</title>
<path fill="none" stroke="#9a32cd" stroke-dasharray="5,2" d="M530.43,-22.64C561.11,-28.19 595.47,-38.04 623,-55.5 647.1,-70.78 665.23,-100.26 673.52,-115.63"/>
<polygon fill="#9a32cd" stroke="#9a32cd" points="530.62,-19.12 520.18,-20.91 529.46,-26.02 530.62,-19.12"/>
<text text-anchor="middle" x="585.5" y="-58.5" font-family="Helvetica,sans-Serif" font-size="10.00"> trimesh</text>
</g>
</g>
</svg>
