<?xml version="1.0" encoding="UTF-8" standalone="no"?>
<!DOCTYPE svg PUBLIC "-//W3C//DTD SVG 1.1//EN"
 "http://www.w3.org/Graphics/SVG/1.1/DTD/svg11.dtd">
<!-- Generated by graphviz version 2.50.0 (20211204.2007)
 -->
<!-- Title: proteus::cppRANS3PF2D_base Pages: 1 -->
<svg width="201pt" height="205pt"
 viewBox="0.00 0.00 201.00 205.00" xmlns="http://www.w3.org/2000/svg" xmlns:xlink="http://www.w3.org/1999/xlink">
<g id="graph0" class="graph" transform="scale(1 1) rotate(0) translate(4 201)">
<title>proteus::cppRANS3PF2D_base</title>
<polygon fill="white" stroke="transparent" points="-4,4 -4,-201 197,-201 197,4 -4,4"/>
<!-- Node1 -->
<g id="node1" class="node">
<title>Node1</title>
<g id="a_node1"><a xlink:title=" ">
<polygon fill="#bfbfbf" stroke="black" points="0,-0.5 0,-19.5 156,-19.5 156,-0.5 0,-0.5"/>
<text text-anchor="middle" x="78" y="-7.5" font-family="Helvetica,sans-Serif" font-size="10.00">proteus::cppRANS3PF2D_base</text>
</a>
</g>
</g>
<!-- Node2 -->
<g id="node2" class="node">
<title>Node2</title>
<g id="a_node2"><a xlink:title=" ">
<polygon fill="white" stroke="#bfbfbf" points="19.5,-177.5 19.5,-196.5 136.5,-196.5 136.5,-177.5 19.5,-177.5"/>
<text text-anchor="middle" x="78" y="-184.5" font-family="Helvetica,sans-Serif" font-size="10.00">std::valarray&lt; double &gt;</text>
</a>
</g>
</g>
<!-- Node2&#45;&gt;Node1 -->
<g id="edge1" class="edge">
<title>Node2&#45;&gt;Node1</title>
<path fill="none" stroke="#9a32cd" stroke-dasharray="5,2" d="M78,-166.95C78,-129.3 78,-46.65 78,-19.69"/>
<polygon fill="#9a32cd" stroke="#9a32cd" points="74.5,-167.08 78,-177.08 81.5,-167.08 74.5,-167.08"/>
<text text-anchor="middle" x="135.5" y="-151" font-family="Helvetica,sans-Serif" font-size="10.00"> TransportMatrix</text>
<text text-anchor="middle" x="135.5" y="-140" font-family="Helvetica,sans-Serif" font-size="10.00">TransposeTransportMatrix</text>
<text text-anchor="middle" x="135.5" y="-129" font-family="Helvetica,sans-Serif" font-size="10.00">den_hi</text>
<text text-anchor="middle" x="135.5" y="-118" font-family="Helvetica,sans-Serif" font-size="10.00">uStar_gamma</text>
<text text-anchor="middle" x="135.5" y="-107" font-family="Helvetica,sans-Serif" font-size="10.00">uStar_hi</text>
<text text-anchor="middle" x="135.5" y="-96" font-family="Helvetica,sans-Serif" font-size="10.00">uStar_min_hiHe</text>
<text text-anchor="middle" x="135.5" y="-85" font-family="Helvetica,sans-Serif" font-size="10.00">uStar_psi</text>
<text text-anchor="middle" x="135.5" y="-74" font-family="Helvetica,sans-Serif" font-size="10.00">vStar_gamma</text>
<text text-anchor="middle" x="135.5" y="-63" font-family="Helvetica,sans-Serif" font-size="10.00">vStar_hi</text>
<text text-anchor="middle" x="135.5" y="-52" font-family="Helvetica,sans-Serif" font-size="10.00">vStar_min_hiHe</text>
<text text-anchor="middle" x="135.5" y="-41" font-family="Helvetica,sans-Serif" font-size="10.00">...</text>
</g>
</g>
</svg>
