<?xml version="1.0" encoding="UTF-8" standalone="no"?>
<!DOCTYPE svg PUBLIC "-//W3C//DTD SVG 1.1//EN"
 "http://www.w3.org/Graphics/SVG/1.1/DTD/svg11.dtd">
<!-- Generated by graphviz version 2.50.0 (20211204.2007)
 -->
<!-- Title: proteus::cppVOS3P_base Pages: 1 -->
<svg width="377pt" height="72pt"
 viewBox="0.00 0.00 377.00 72.00" xmlns="http://www.w3.org/2000/svg" xmlns:xlink="http://www.w3.org/1999/xlink">
<g id="graph0" class="graph" transform="scale(1 1) rotate(0) translate(4 68)">
<title>proteus::cppVOS3P_base</title>
<polygon fill="white" stroke="transparent" points="-4,4 -4,-68 373,-68 373,4 -4,4"/>
<!-- Node1 -->
<g id="node1" class="node">
<title>Node1</title>
<g id="a_node1"><a xlink:title=" ">
<polygon fill="#bfbfbf" stroke="black" points="0,-22.5 0,-41.5 130,-41.5 130,-22.5 0,-22.5"/>
<text text-anchor="middle" x="65" y="-29.5" font-family="Helvetica,sans-Serif" font-size="10.00">proteus::cppVOS3P_base</text>
</a>
</g>
</g>
<!-- Node2 -->
<g id="node2" class="node">
<title>Node2</title>
<g id="a_node2"><a xlink:href="classproteus_1_1cpp_v_o_s.html" target="_top" xlink:title=" ">
<polygon fill="white" stroke="black" points="166,-0.5 166,-63.5 369,-63.5 369,-0.5 166,-0.5"/>
<text text-anchor="start" x="174" y="-51.5" font-family="Helvetica,sans-Serif" font-size="10.00">proteus::cppVOS&lt; CompKernel</text>
<text text-anchor="start" x="174" y="-40.5" font-family="Helvetica,sans-Serif" font-size="10.00">Type, nSpace, nQuadraturePoints</text>
<text text-anchor="start" x="174" y="-29.5" font-family="Helvetica,sans-Serif" font-size="10.00">_element, nDOF_mesh_trial_element,</text>
<text text-anchor="start" x="174" y="-18.5" font-family="Helvetica,sans-Serif" font-size="10.00"> nDOF_trial_element, nDOF_test_element,</text>
<text text-anchor="middle" x="267.5" y="-7.5" font-family="Helvetica,sans-Serif" font-size="10.00"> nQuadraturePoints_elementBoundary &gt;</text>
</a>
</g>
</g>
<!-- Node1&#45;&gt;Node2 -->
<g id="edge1" class="edge">
<title>Node1&#45;&gt;Node2</title>
<path fill="none" stroke="midnightblue" d="M140.54,-32C148.76,-32 157.23,-32 165.71,-32"/>
<polygon fill="midnightblue" stroke="midnightblue" points="140.27,-28.5 130.27,-32 140.27,-35.5 140.27,-28.5"/>
</g>
</g>
</svg>
