<?xml version="1.0" encoding="UTF-8" standalone="no"?>
<!DOCTYPE svg PUBLIC "-//W3C//DTD SVG 1.1//EN"
 "http://www.w3.org/Graphics/SVG/1.1/DTD/svg11.dtd">
<!-- Generated by graphviz version 2.50.0 (20211204.2007)
 -->
<!-- Title: cppMultiSegmentedCable Pages: 1 -->
<svg width="1337pt" height="1111pt"
 viewBox="0.00 0.00 1337.00 1110.67" xmlns="http://www.w3.org/2000/svg" xmlns:xlink="http://www.w3.org/1999/xlink">
<g id="graph0" class="graph" transform="scale(1 1) rotate(0) translate(4 1106.67)">
<title>cppMultiSegmentedCable</title>
<polygon fill="white" stroke="transparent" points="-4,4 -4,-1106.67 1333,-1106.67 1333,4 -4,4"/>
<!-- Node1 -->
<g id="node1" class="node">
<title>Node1</title>
<g id="a_node1"><a xlink:title=" ">
<polygon fill="#bfbfbf" stroke="black" points="1201,-455.17 1201,-474.17 1329,-474.17 1329,-455.17 1201,-455.17"/>
<text text-anchor="middle" x="1265" y="-462.17" font-family="Helvetica,sans-Serif" font-size="10.00">cppMultiSegmentedCable</text>
</a>
</g>
</g>
<!-- Node2 -->
<g id="node2" class="node">
<title>Node2</title>
<g id="a_node2"><a xlink:title=" ">
<polygon fill="white" stroke="#bfbfbf" points="289.5,-984.67 289.5,-1014.67 437.5,-1014.67 437.5,-984.67 289.5,-984.67"/>
<text text-anchor="start" x="297.5" y="-1002.67" font-family="Helvetica,sans-Serif" font-size="10.00">std::vector&lt; std::shared</text>
<text text-anchor="middle" x="363.5" y="-991.67" font-family="Helvetica,sans-Serif" font-size="10.00">_ptr&lt; ChVector&lt; double &gt; &gt; &gt;</text>
</a>
</g>
</g>
<!-- Node2&#45;&gt;Node1 -->
<g id="edge1" class="edge">
<title>Node2&#45;&gt;Node1</title>
<path fill="none" stroke="#9a32cd" stroke-dasharray="5,2" d="M447.77,-1015.12C501.1,-1023.71 571.89,-1032.67 635,-1032.67 635,-1032.67 635,-1032.67 1013.5,-1032.67 1267.85,-1032.67 1266.13,-549.95 1264.31,-474.53"/>
<polygon fill="#9a32cd" stroke="#9a32cd" points="448.12,-1011.63 437.68,-1013.47 446.99,-1018.54 448.12,-1011.63"/>
<text text-anchor="middle" x="786.5" y="-1046.67" font-family="Helvetica,sans-Serif" font-size="10.00"> forces_addedmass</text>
<text text-anchor="middle" x="786.5" y="-1035.67" font-family="Helvetica,sans-Serif" font-size="10.00">forces_drag</text>
</g>
<!-- Node6 -->
<g id="node6" class="node">
<title>Node6</title>
<g id="a_node6"><a xlink:href="classcpp_cable.html" target="_top" xlink:title=" ">
<polygon fill="white" stroke="black" points="607,-704.17 607,-723.17 665,-723.17 665,-704.17 607,-704.17"/>
<text text-anchor="middle" x="636" y="-711.17" font-family="Helvetica,sans-Serif" font-size="10.00">cppCable</text>
</a>
</g>
</g>
<!-- Node2&#45;&gt;Node6 -->
<g id="edge6" class="edge">
<title>Node2&#45;&gt;Node6</title>
<path fill="none" stroke="#9a32cd" stroke-dasharray="5,2" d="M447.66,-999.81C495.42,-995.35 552.89,-981.52 589,-943.67 620.13,-911.04 631.83,-762.69 634.42,-723.3"/>
<polygon fill="#9a32cd" stroke="#9a32cd" points="447.32,-996.32 437.63,-1000.62 447.88,-1003.3 447.32,-996.32"/>
<text text-anchor="middle" x="534.5" y="-1007.67" font-family="Helvetica,sans-Serif" font-size="10.00"> forces_addedmass</text>
<text text-anchor="middle" x="534.5" y="-996.67" font-family="Helvetica,sans-Serif" font-size="10.00">forces_drag</text>
</g>
<!-- Node3 -->
<g id="node3" class="node">
<title>Node3</title>
<g id="a_node3"><a xlink:title=" ">
<polygon fill="white" stroke="#bfbfbf" points="27,-984.67 27,-1014.67 159,-1014.67 159,-984.67 27,-984.67"/>
<text text-anchor="start" x="35" y="-1002.67" font-family="Helvetica,sans-Serif" font-size="10.00">std::shared_ptr&lt; ChVector</text>
<text text-anchor="middle" x="93" y="-991.67" font-family="Helvetica,sans-Serif" font-size="10.00">&lt; double &gt; &gt;</text>
</a>
</g>
</g>
<!-- Node3&#45;&gt;Node2 -->
<g id="edge2" class="edge">
<title>Node3&#45;&gt;Node2</title>
<path fill="none" stroke="#9a32cd" stroke-dasharray="5,2" d="M169.69,-999.67C207.15,-999.67 252.17,-999.67 289.28,-999.67"/>
<polygon fill="#9a32cd" stroke="#9a32cd" points="169.34,-996.17 159.34,-999.67 169.34,-1003.17 169.34,-996.17"/>
<text text-anchor="middle" x="225.5" y="-1002.67" font-family="Helvetica,sans-Serif" font-size="10.00"> elements</text>
</g>
<!-- Node4 -->
<g id="node4" class="node">
<title>Node4</title>
<g id="a_node4"><a xlink:title=" ">
<polygon fill="white" stroke="#bfbfbf" points="952,-679.67 952,-709.67 1073,-709.67 1073,-679.67 952,-679.67"/>
<text text-anchor="start" x="960" y="-697.67" font-family="Helvetica,sans-Serif" font-size="10.00">std::vector&lt; std::shared</text>
<text text-anchor="middle" x="1012.5" y="-686.67" font-family="Helvetica,sans-Serif" font-size="10.00">_ptr&lt; cppCable &gt; &gt;</text>
</a>
</g>
</g>
<!-- Node4&#45;&gt;Node1 -->
<g id="edge3" class="edge">
<title>Node4&#45;&gt;Node1</title>
<path fill="none" stroke="#9a32cd" stroke-dasharray="5,2" d="M1083.3,-696.84C1116.7,-694.42 1155.34,-686.16 1183,-663.67 1245.23,-613.08 1260.07,-507.1 1263.22,-474.45"/>
<polygon fill="#9a32cd" stroke="#9a32cd" points="1082.9,-693.36 1073.12,-697.41 1083.3,-700.34 1082.9,-693.36"/>
<text text-anchor="middle" x="1145" y="-695.67" font-family="Helvetica,sans-Serif" font-size="10.00"> cables</text>
</g>
<!-- Node5 -->
<g id="node5" class="node">
<title>Node5</title>
<g id="a_node5"><a xlink:title=" ">
<polygon fill="white" stroke="#bfbfbf" points="716,-697.17 716,-716.17 857,-716.17 857,-697.17 716,-697.17"/>
<text text-anchor="middle" x="786.5" y="-704.17" font-family="Helvetica,sans-Serif" font-size="10.00">std::shared_ptr&lt; cppCable &gt;</text>
</a>
</g>
</g>
<!-- Node5&#45;&gt;Node4 -->
<g id="edge4" class="edge">
<title>Node5&#45;&gt;Node4</title>
<path fill="none" stroke="#9a32cd" stroke-dasharray="5,2" d="M867.25,-702.39C895.08,-700.9 925.8,-699.26 951.72,-697.87"/>
<polygon fill="#9a32cd" stroke="#9a32cd" points="866.95,-698.91 857.15,-702.94 867.32,-705.9 866.95,-698.91"/>
<text text-anchor="middle" x="896.5" y="-704.67" font-family="Helvetica,sans-Serif" font-size="10.00"> elements</text>
</g>
<!-- Node6&#45;&gt;Node5 -->
<g id="edge5" class="edge">
<title>Node6&#45;&gt;Node5</title>
<path fill="none" stroke="#9a32cd" stroke-dasharray="5,2" d="M675.6,-711.85C687.89,-711.27 701.9,-710.61 715.7,-709.96"/>
<polygon fill="#9a32cd" stroke="#9a32cd" points="675.11,-708.37 665.28,-712.33 675.43,-715.36 675.11,-708.37"/>
<text text-anchor="middle" x="690.5" y="-713.67" font-family="Helvetica,sans-Serif" font-size="10.00"> ptr</text>
</g>
<!-- Node7 -->
<g id="node7" class="node">
<title>Node7</title>
<g id="a_node7"><a xlink:title=" ">
<polygon fill="white" stroke="#bfbfbf" points="282.5,-601.67 282.5,-631.67 444.5,-631.67 444.5,-601.67 282.5,-601.67"/>
<text text-anchor="start" x="290.5" y="-619.67" font-family="Helvetica,sans-Serif" font-size="10.00">std::shared_ptr&lt; ChBeamSection</text>
<text text-anchor="middle" x="363.5" y="-608.67" font-family="Helvetica,sans-Serif" font-size="10.00">Cable &gt;</text>
</a>
</g>
</g>
<!-- Node7&#45;&gt;Node6 -->
<g id="edge7" class="edge">
<title>Node7&#45;&gt;Node6</title>
<path fill="none" stroke="#9a32cd" stroke-dasharray="5,2" d="M454.85,-617.66C498,-621.67 548.86,-631.81 589,-655.67 608.67,-667.35 623.22,-690.83 630.27,-704.05"/>
<polygon fill="#9a32cd" stroke="#9a32cd" points="454.89,-614.15 444.63,-616.81 454.31,-621.12 454.89,-614.15"/>
<text text-anchor="middle" x="534.5" y="-658.67" font-family="Helvetica,sans-Serif" font-size="10.00"> msection_cable</text>
</g>
<!-- Node8 -->
<g id="node8" class="node">
<title>Node8</title>
<g id="a_node8"><a xlink:title=" ">
<polygon fill="white" stroke="#bfbfbf" points="290.5,-890.17 290.5,-909.17 436.5,-909.17 436.5,-890.17 290.5,-890.17"/>
<text text-anchor="middle" x="363.5" y="-897.17" font-family="Helvetica,sans-Serif" font-size="10.00">std::shared_ptr&lt; ChSystem &gt;</text>
</a>
</g>
</g>
<!-- Node8&#45;&gt;Node1 -->
<g id="edge29" class="edge">
<title>Node8&#45;&gt;Node1</title>
<path fill="none" stroke="#9a32cd" stroke-dasharray="5,2" d="M446.68,-901.51C500.29,-902.56 571.79,-903.67 635,-903.67 635,-903.67 635,-903.67 1013.5,-903.67 1105.29,-903.67 1132.79,-862.51 1183,-785.67 1252.96,-678.62 1262.5,-515.16 1263.8,-474.22"/>
<polygon fill="#9a32cd" stroke="#9a32cd" points="446.61,-898.01 436.54,-901.31 446.47,-905.01 446.61,-898.01"/>
<text text-anchor="middle" x="786.5" y="-906.67" font-family="Helvetica,sans-Serif" font-size="10.00"> system</text>
</g>
<!-- Node8&#45;&gt;Node6 -->
<g id="edge8" class="edge">
<title>Node8&#45;&gt;Node6</title>
<path fill="none" stroke="#9a32cd" stroke-dasharray="5,2" d="M427.45,-888.2C485.41,-876.48 565.79,-856.88 589,-834.67 621.8,-803.28 631.48,-746.09 634.1,-723.36"/>
<polygon fill="#9a32cd" stroke="#9a32cd" points="426.76,-884.77 417.64,-890.16 428.13,-891.64 426.76,-884.77"/>
<text text-anchor="middle" x="534.5" y="-878.67" font-family="Helvetica,sans-Serif" font-size="10.00"> system</text>
</g>
<!-- Node9 -->
<g id="node9" class="node">
<title>Node9</title>
<g id="a_node9"><a xlink:title=" ">
<polygon fill="white" stroke="#bfbfbf" points="290.5,-836.67 290.5,-866.67 436.5,-866.67 436.5,-836.67 290.5,-836.67"/>
<text text-anchor="start" x="298.5" y="-854.67" font-family="Helvetica,sans-Serif" font-size="10.00">std::vector&lt; std::shared</text>
<text text-anchor="middle" x="363.5" y="-843.67" font-family="Helvetica,sans-Serif" font-size="10.00">_ptr&lt; ChNodeFEAxyzDD &gt; &gt;</text>
</a>
</g>
</g>
<!-- Node9&#45;&gt;Node1 -->
<g id="edge30" class="edge">
<title>Node9&#45;&gt;Node1</title>
<path fill="none" stroke="#9a32cd" stroke-dasharray="5,2" d="M446.67,-848.44C500.27,-846.6 571.78,-844.67 635,-844.67 635,-844.67 635,-844.67 1013.5,-844.67 1196.42,-844.67 1253.36,-533.92 1262.58,-474.44"/>
<polygon fill="#9a32cd" stroke="#9a32cd" points="446.4,-844.94 436.53,-848.79 446.65,-851.94 446.4,-844.94"/>
<text text-anchor="middle" x="786.5" y="-847.67" font-family="Helvetica,sans-Serif" font-size="10.00"> nodesDD</text>
</g>
<!-- Node9&#45;&gt;Node6 -->
<g id="edge9" class="edge">
<title>Node9&#45;&gt;Node6</title>
<path fill="none" stroke="#9a32cd" stroke-dasharray="5,2" d="M442.23,-833.86C448.96,-831.92 455.63,-829.85 462,-827.67 470.28,-824.83 471.67,-822.36 480,-819.67 527.1,-804.42 549.18,-826.09 589,-796.67 614.31,-777.97 627.46,-740.97 632.5,-723.39"/>
<polygon fill="#9a32cd" stroke="#9a32cd" points="441.04,-830.56 432.35,-836.61 442.92,-837.3 441.04,-830.56"/>
<text text-anchor="middle" x="534.5" y="-822.67" font-family="Helvetica,sans-Serif" font-size="10.00"> nodesDD</text>
</g>
<!-- Node10 -->
<g id="node10" class="node">
<title>Node10</title>
<g id="a_node10"><a xlink:title=" ">
<polygon fill="white" stroke="#bfbfbf" points="0,-842.17 0,-861.17 186,-861.17 186,-842.17 0,-842.17"/>
<text text-anchor="middle" x="93" y="-849.17" font-family="Helvetica,sans-Serif" font-size="10.00">std::shared_ptr&lt; ChNodeFEAxyzDD &gt;</text>
</a>
</g>
</g>
<!-- Node10&#45;&gt;Node9 -->
<g id="edge10" class="edge">
<title>Node10&#45;&gt;Node9</title>
<path fill="none" stroke="#9a32cd" stroke-dasharray="5,2" d="M196.09,-851.67C227.4,-851.67 261.19,-851.67 290.08,-851.67"/>
<polygon fill="#9a32cd" stroke="#9a32cd" points="196.03,-848.17 186.03,-851.67 196.03,-855.17 196.03,-848.17"/>
<text text-anchor="middle" x="225.5" y="-854.67" font-family="Helvetica,sans-Serif" font-size="10.00"> elements</text>
</g>
<!-- Node11 -->
<g id="node11" class="node">
<title>Node11</title>
<g id="a_node11"><a xlink:title=" ">
<polygon fill="white" stroke="#bfbfbf" points="295,-651.17 295,-670.17 432,-670.17 432,-651.17 295,-651.17"/>
<text text-anchor="middle" x="363.5" y="-658.17" font-family="Helvetica,sans-Serif" font-size="10.00">std::shared_ptr&lt; ChMesh &gt;</text>
</a>
</g>
</g>
<!-- Node11&#45;&gt;Node1 -->
<g id="edge31" class="edge">
<title>Node11&#45;&gt;Node1</title>
<path fill="none" stroke="#9a32cd" stroke-dasharray="5,2" d="M442.2,-655.83C496.25,-652.88 569.98,-649.67 635,-649.67 635,-649.67 635,-649.67 1013.5,-649.67 1132.71,-649.67 1232.4,-512.42 1257.76,-474.35"/>
<polygon fill="#9a32cd" stroke="#9a32cd" points="441.79,-652.35 432,-656.4 442.18,-659.34 441.79,-652.35"/>
<text text-anchor="middle" x="786.5" y="-652.67" font-family="Helvetica,sans-Serif" font-size="10.00"> mesh</text>
</g>
<!-- Node11&#45;&gt;Node6 -->
<g id="edge11" class="edge">
<title>Node11&#45;&gt;Node6</title>
<path fill="none" stroke="#9a32cd" stroke-dasharray="5,2" d="M442.37,-666.24C486.12,-670.73 541.33,-678.7 589,-692.67 598.6,-695.48 608.78,-699.95 617.11,-704.05"/>
<polygon fill="#9a32cd" stroke="#9a32cd" points="442.66,-662.75 432.37,-665.25 441.98,-669.71 442.66,-662.75"/>
<text text-anchor="middle" x="534.5" y="-695.67" font-family="Helvetica,sans-Serif" font-size="10.00"> mesh</text>
</g>
<!-- Node12 -->
<g id="node12" class="node">
<title>Node12</title>
<g id="a_node12"><a xlink:title=" ">
<polygon fill="white" stroke="#bfbfbf" points="285,-1063.67 285,-1093.67 442,-1093.67 442,-1063.67 285,-1063.67"/>
<text text-anchor="start" x="293" y="-1081.67" font-family="Helvetica,sans-Serif" font-size="10.00">std::vector&lt; std::shared</text>
<text text-anchor="middle" x="363.5" y="-1070.67" font-family="Helvetica,sans-Serif" font-size="10.00">_ptr&lt; ChElementBeamEuler &gt; &gt;</text>
</a>
</g>
</g>
<!-- Node12&#45;&gt;Node1 -->
<g id="edge32" class="edge">
<title>Node12&#45;&gt;Node1</title>
<path fill="none" stroke="#9a32cd" stroke-dasharray="5,2" d="M452.31,-1085.02C505.21,-1088.32 573.94,-1091.67 635,-1091.67 635,-1091.67 635,-1091.67 1013.5,-1091.67 1104.54,-1091.67 1135.9,-1054.57 1183,-976.67 1237.13,-887.14 1259.75,-537.92 1263.45,-474.56"/>
<polygon fill="#9a32cd" stroke="#9a32cd" points="452.49,-1081.53 442.28,-1084.39 452.04,-1088.51 452.49,-1081.53"/>
<text text-anchor="middle" x="786.5" y="-1094.67" font-family="Helvetica,sans-Serif" font-size="10.00"> elemsBeamEuler</text>
</g>
<!-- Node12&#45;&gt;Node6 -->
<g id="edge12" class="edge">
<title>Node12&#45;&gt;Node6</title>
<path fill="none" stroke="#9a32cd" stroke-dasharray="5,2" d="M452.16,-1065.74C506.93,-1055.82 570.47,-1040.31 589,-1019.67 629.55,-974.49 634.35,-770.6 634.92,-723.43"/>
<polygon fill="#9a32cd" stroke="#9a32cd" points="451.29,-1062.34 442.05,-1067.53 452.51,-1069.23 451.29,-1062.34"/>
<text text-anchor="middle" x="534.5" y="-1062.67" font-family="Helvetica,sans-Serif" font-size="10.00"> elemsBeamEuler</text>
</g>
<!-- Node13 -->
<g id="node13" class="node">
<title>Node13</title>
<g id="a_node13"><a xlink:title=" ">
<polygon fill="white" stroke="#bfbfbf" points="23,-1063.67 23,-1093.67 163,-1093.67 163,-1063.67 23,-1063.67"/>
<text text-anchor="start" x="31" y="-1081.67" font-family="Helvetica,sans-Serif" font-size="10.00">std::shared_ptr&lt; ChElement</text>
<text text-anchor="middle" x="93" y="-1070.67" font-family="Helvetica,sans-Serif" font-size="10.00">BeamEuler &gt;</text>
</a>
</g>
</g>
<!-- Node13&#45;&gt;Node12 -->
<g id="edge13" class="edge">
<title>Node13&#45;&gt;Node12</title>
<path fill="none" stroke="#9a32cd" stroke-dasharray="5,2" d="M173.36,-1078.67C208.47,-1078.67 249.64,-1078.67 284.58,-1078.67"/>
<polygon fill="#9a32cd" stroke="#9a32cd" points="173.15,-1075.17 163.15,-1078.67 173.15,-1082.17 173.15,-1075.17"/>
<text text-anchor="middle" x="225.5" y="-1081.67" font-family="Helvetica,sans-Serif" font-size="10.00"> elements</text>
</g>
<!-- Node14 -->
<g id="node14" class="node">
<title>Node14</title>
<g id="a_node14"><a xlink:title=" ">
<polygon fill="white" stroke="#bfbfbf" points="294,-933.67 294,-963.67 433,-963.67 433,-933.67 294,-933.67"/>
<text text-anchor="start" x="302" y="-951.67" font-family="Helvetica,sans-Serif" font-size="10.00">std::vector&lt; std::shared</text>
<text text-anchor="middle" x="363.5" y="-940.67" font-family="Helvetica,sans-Serif" font-size="10.00">_ptr&lt; ChNodeFEAxyzD &gt; &gt;</text>
</a>
</g>
</g>
<!-- Node14&#45;&gt;Node1 -->
<g id="edge34" class="edge">
<title>Node14&#45;&gt;Node1</title>
<path fill="none" stroke="#9a32cd" stroke-dasharray="5,2" d="M443.28,-954.9C497.22,-958.63 570.39,-962.67 635,-962.67 635,-962.67 635,-962.67 1013.5,-962.67 1105.04,-962.67 1134.12,-923.06 1183,-845.67 1264.25,-717.02 1265.25,-520.2 1264.3,-474.42"/>
<polygon fill="#9a32cd" stroke="#9a32cd" points="443.32,-951.39 433.1,-954.18 442.83,-958.37 443.32,-951.39"/>
<text text-anchor="middle" x="786.5" y="-965.67" font-family="Helvetica,sans-Serif" font-size="10.00"> nodes</text>
</g>
<!-- Node14&#45;&gt;Node6 -->
<g id="edge14" class="edge">
<title>Node14&#45;&gt;Node6</title>
<path fill="none" stroke="#9a32cd" stroke-dasharray="5,2" d="M443.1,-937C499.25,-927.12 568.38,-911.26 589,-890.67 636.63,-843.11 636.92,-752.93 635.61,-723.34"/>
<polygon fill="#9a32cd" stroke="#9a32cd" points="442.4,-933.57 433.14,-938.72 443.58,-940.47 442.4,-933.57"/>
<text text-anchor="middle" x="534.5" y="-931.67" font-family="Helvetica,sans-Serif" font-size="10.00"> nodes</text>
</g>
<!-- Node15 -->
<g id="node15" class="node">
<title>Node15</title>
<g id="a_node15"><a xlink:title=" ">
<polygon fill="white" stroke="#bfbfbf" points="3.5,-939.17 3.5,-958.17 182.5,-958.17 182.5,-939.17 3.5,-939.17"/>
<text text-anchor="middle" x="93" y="-946.17" font-family="Helvetica,sans-Serif" font-size="10.00">std::shared_ptr&lt; ChNodeFEAxyzD &gt;</text>
</a>
</g>
</g>
<!-- Node15&#45;&gt;Node14 -->
<g id="edge15" class="edge">
<title>Node15&#45;&gt;Node14</title>
<path fill="none" stroke="#9a32cd" stroke-dasharray="5,2" d="M192.96,-948.67C226.53,-948.67 263.26,-948.67 293.92,-948.67"/>
<polygon fill="#9a32cd" stroke="#9a32cd" points="192.66,-945.17 182.66,-948.67 192.66,-952.17 192.66,-945.17"/>
<text text-anchor="middle" x="225.5" y="-951.67" font-family="Helvetica,sans-Serif" font-size="10.00"> elements</text>
</g>
<!-- Node16 -->
<g id="node16" class="node">
<title>Node16</title>
<g id="a_node16"><a xlink:title=" ">
<polygon fill="white" stroke="#bfbfbf" points="265,-787.67 265,-817.67 462,-817.67 462,-787.67 265,-787.67"/>
<text text-anchor="start" x="273" y="-805.67" font-family="Helvetica,sans-Serif" font-size="10.00">std::vector&lt; std::shared</text>
<text text-anchor="middle" x="363.5" y="-794.67" font-family="Helvetica,sans-Serif" font-size="10.00">_ptr&lt; ChLoad&lt; MyLoaderTriangular &gt; &gt; &gt;</text>
</a>
</g>
</g>
<!-- Node16&#45;&gt;Node6 -->
<g id="edge16" class="edge">
<title>Node16&#45;&gt;Node6</title>
<path fill="none" stroke="#9a32cd" stroke-dasharray="5,2" d="M472.19,-786.91C519.19,-778.85 568.27,-768.47 589,-757.67 605.07,-749.29 619.43,-733.59 627.67,-723.38"/>
<polygon fill="#9a32cd" stroke="#9a32cd" points="471.48,-783.48 462.2,-788.6 472.64,-790.38 471.48,-783.48"/>
<text text-anchor="middle" x="534.5" y="-787.67" font-family="Helvetica,sans-Serif" font-size="10.00"> elems_loads_triangular</text>
</g>
<!-- Node17 -->
<g id="node17" class="node">
<title>Node17</title>
<g id="a_node17"><a xlink:title=" ">
<polygon fill="white" stroke="#bfbfbf" points="28.5,-787.67 28.5,-817.67 157.5,-817.67 157.5,-787.67 28.5,-787.67"/>
<text text-anchor="start" x="36.5" y="-805.67" font-family="Helvetica,sans-Serif" font-size="10.00">std::shared_ptr&lt; ChLoad</text>
<text text-anchor="middle" x="93" y="-794.67" font-family="Helvetica,sans-Serif" font-size="10.00">&lt; MyLoaderTriangular &gt; &gt;</text>
</a>
</g>
</g>
<!-- Node17&#45;&gt;Node16 -->
<g id="edge17" class="edge">
<title>Node17&#45;&gt;Node16</title>
<path fill="none" stroke="#9a32cd" stroke-dasharray="5,2" d="M168,-802.67C197.95,-802.67 232.94,-802.67 264.93,-802.67"/>
<polygon fill="#9a32cd" stroke="#9a32cd" points="167.63,-799.17 157.63,-802.67 167.63,-806.17 167.63,-799.17"/>
<text text-anchor="middle" x="225.5" y="-805.67" font-family="Helvetica,sans-Serif" font-size="10.00"> elements</text>
</g>
<!-- Node18 -->
<g id="node18" class="node">
<title>Node18</title>
<g id="a_node18"><a xlink:title=" ">
<polygon fill="white" stroke="#bfbfbf" points="271,-738.67 271,-768.67 456,-768.67 456,-738.67 271,-738.67"/>
<text text-anchor="start" x="279" y="-756.67" font-family="Helvetica,sans-Serif" font-size="10.00">std::vector&lt; std::shared</text>
<text text-anchor="middle" x="363.5" y="-745.67" font-family="Helvetica,sans-Serif" font-size="10.00">_ptr&lt; ChLoad&lt; ChLoaderGravity &gt; &gt; &gt;</text>
</a>
</g>
</g>
<!-- Node18&#45;&gt;Node6 -->
<g id="edge18" class="edge">
<title>Node18&#45;&gt;Node6</title>
<path fill="none" stroke="#9a32cd" stroke-dasharray="5,2" d="M466.43,-744.8C505.03,-740.56 549.25,-734.62 589,-726.67 594.86,-725.49 601.06,-723.95 606.95,-722.34"/>
<polygon fill="#9a32cd" stroke="#9a32cd" points="465.79,-741.35 456.22,-745.9 466.54,-748.31 465.79,-741.35"/>
<text text-anchor="middle" x="534.5" y="-745.67" font-family="Helvetica,sans-Serif" font-size="10.00"> elems_loads_volumetric</text>
</g>
<!-- Node19 -->
<g id="node19" class="node">
<title>Node19</title>
<g id="a_node19"><a xlink:title=" ">
<polygon fill="white" stroke="#bfbfbf" points="30.5,-738.67 30.5,-768.67 155.5,-768.67 155.5,-738.67 30.5,-738.67"/>
<text text-anchor="start" x="38.5" y="-756.67" font-family="Helvetica,sans-Serif" font-size="10.00">std::shared_ptr&lt; ChLoad</text>
<text text-anchor="middle" x="93" y="-745.67" font-family="Helvetica,sans-Serif" font-size="10.00">&lt; ChLoaderGravity &gt; &gt;</text>
</a>
</g>
</g>
<!-- Node19&#45;&gt;Node18 -->
<g id="edge19" class="edge">
<title>Node19&#45;&gt;Node18</title>
<path fill="none" stroke="#9a32cd" stroke-dasharray="5,2" d="M165.84,-753.67C198.11,-753.67 236.56,-753.67 270.87,-753.67"/>
<polygon fill="#9a32cd" stroke="#9a32cd" points="165.6,-750.17 155.6,-753.67 165.6,-757.17 165.6,-750.17"/>
<text text-anchor="middle" x="225.5" y="-756.67" font-family="Helvetica,sans-Serif" font-size="10.00"> elements</text>
</g>
<!-- Node20 -->
<g id="node20" class="node">
<title>Node20</title>
<g id="a_node20"><a xlink:title=" ">
<polygon fill="white" stroke="#bfbfbf" points="282.5,-689.67 282.5,-719.67 444.5,-719.67 444.5,-689.67 282.5,-689.67"/>
<text text-anchor="start" x="290.5" y="-707.67" font-family="Helvetica,sans-Serif" font-size="10.00">std::shared_ptr&lt; ChBeamSection</text>
<text text-anchor="middle" x="363.5" y="-696.67" font-family="Helvetica,sans-Serif" font-size="10.00">Advanced &gt;</text>
</a>
</g>
</g>
<!-- Node20&#45;&gt;Node6 -->
<g id="edge20" class="edge">
<title>Node20&#45;&gt;Node6</title>
<path fill="none" stroke="#9a32cd" stroke-dasharray="5,2" d="M454.67,-707.67C507.69,-709.43 571.15,-711.54 606.9,-712.73"/>
<polygon fill="#9a32cd" stroke="#9a32cd" points="454.67,-704.17 444.56,-707.33 454.44,-711.16 454.67,-704.17"/>
<text text-anchor="middle" x="534.5" y="-714.67" font-family="Helvetica,sans-Serif" font-size="10.00"> msection_advanced</text>
</g>
<!-- Node21 -->
<g id="node21" class="node">
<title>Node21</title>
<g id="a_node21"><a xlink:title="STL class.">
<polygon fill="white" stroke="#bfbfbf" points="333.5,-471.17 333.5,-490.17 393.5,-490.17 393.5,-471.17 333.5,-471.17"/>
<text text-anchor="middle" x="363.5" y="-478.17" font-family="Helvetica,sans-Serif" font-size="10.00">std::string</text>
</a>
</g>
</g>
<!-- Node21&#45;&gt;Node1 -->
<g id="edge36" class="edge">
<title>Node21&#45;&gt;Node1</title>
<path fill="none" stroke="#9a32cd" stroke-dasharray="5,2" d="M403.93,-476.87C456.56,-472.14 552.7,-464.67 635,-464.67 635,-464.67 635,-464.67 1013.5,-464.67 1077.32,-464.67 1150.29,-464.67 1200.94,-464.67"/>
<polygon fill="#9a32cd" stroke="#9a32cd" points="403.33,-473.41 393.69,-477.81 403.96,-480.38 403.33,-473.41"/>
<text text-anchor="middle" x="786.5" y="-467.67" font-family="Helvetica,sans-Serif" font-size="10.00"> beam_type</text>
</g>
<!-- Node21&#45;&gt;Node6 -->
<g id="edge21" class="edge">
<title>Node21&#45;&gt;Node6</title>
<path fill="none" stroke="#9a32cd" stroke-dasharray="5,2" d="M403.82,-477.85C453.74,-476.55 539.31,-482.31 589,-530.67 614.47,-555.46 629.81,-669.71 633.9,-703.95"/>
<polygon fill="#9a32cd" stroke="#9a32cd" points="403.6,-474.35 393.74,-478.22 403.86,-481.35 403.6,-474.35"/>
<text text-anchor="middle" x="534.5" y="-533.67" font-family="Helvetica,sans-Serif" font-size="10.00"> beam_type</text>
</g>
<!-- Node22 -->
<g id="node22" class="node">
<title>Node22</title>
<g id="a_node22"><a xlink:title="STL class.">
<polygon fill="white" stroke="#bfbfbf" points="45.5,-465.67 45.5,-495.67 140.5,-495.67 140.5,-465.67 45.5,-465.67"/>
<text text-anchor="start" x="53.5" y="-483.67" font-family="Helvetica,sans-Serif" font-size="10.00">std::basic_string&lt;</text>
<text text-anchor="middle" x="93" y="-472.67" font-family="Helvetica,sans-Serif" font-size="10.00"> char &gt;</text>
</a>
</g>
</g>
<!-- Node22&#45;&gt;Node21 -->
<g id="edge22" class="edge">
<title>Node22&#45;&gt;Node21</title>
<path fill="none" stroke="midnightblue" d="M150.86,-480.67C206.69,-480.67 289.62,-480.67 333.25,-480.67"/>
<polygon fill="midnightblue" stroke="midnightblue" points="150.77,-477.17 140.77,-480.67 150.77,-484.17 150.77,-477.17"/>
</g>
<!-- Node23 -->
<g id="node23" class="node">
<title>Node23</title>
<g id="a_node23"><a xlink:title=" ">
<polygon fill="white" stroke="#bfbfbf" points="296.5,-345.17 296.5,-364.17 430.5,-364.17 430.5,-345.17 296.5,-345.17"/>
<text text-anchor="middle" x="363.5" y="-352.17" font-family="Helvetica,sans-Serif" font-size="10.00">std::vector&lt; ChVector&lt;&gt; &gt;</text>
</a>
</g>
</g>
<!-- Node23&#45;&gt;Node1 -->
<g id="edge35" class="edge">
<title>Node23&#45;&gt;Node1</title>
<path fill="none" stroke="#9a32cd" stroke-dasharray="5,2" d="M440.86,-352.94C495.04,-351.86 569.48,-350.67 635,-350.67 635,-350.67 635,-350.67 1013.5,-350.67 1113.84,-350.67 1218.12,-427.38 1252.36,-454.95"/>
<polygon fill="#9a32cd" stroke="#9a32cd" points="440.57,-349.44 430.64,-353.14 440.71,-356.44 440.57,-349.44"/>
<text text-anchor="middle" x="786.5" y="-375.67" font-family="Helvetica,sans-Serif" font-size="10.00"> fluid_acceleration</text>
<text text-anchor="middle" x="786.5" y="-364.67" font-family="Helvetica,sans-Serif" font-size="10.00">fluid_velocity</text>
<text text-anchor="middle" x="786.5" y="-353.67" font-family="Helvetica,sans-Serif" font-size="10.00">mvecs</text>
</g>
<!-- Node23&#45;&gt;Node6 -->
<g id="edge23" class="edge">
<title>Node23&#45;&gt;Node6</title>
<path fill="none" stroke="#9a32cd" stroke-dasharray="5,2" d="M440.69,-365.24C497.7,-374.76 569.11,-390.65 589,-412.67 629.05,-456.99 634.24,-657.64 634.9,-704.06"/>
<polygon fill="#9a32cd" stroke="#9a32cd" points="441.02,-361.75 430.59,-363.59 439.9,-368.66 441.02,-361.75"/>
<text text-anchor="middle" x="534.5" y="-470.67" font-family="Helvetica,sans-Serif" font-size="10.00"> fluid_acceleration</text>
<text text-anchor="middle" x="534.5" y="-459.67" font-family="Helvetica,sans-Serif" font-size="10.00">fluid_velocity</text>
<text text-anchor="middle" x="534.5" y="-448.67" font-family="Helvetica,sans-Serif" font-size="10.00">mdirs</text>
<text text-anchor="middle" x="534.5" y="-437.67" font-family="Helvetica,sans-Serif" font-size="10.00">mvecs</text>
<text text-anchor="middle" x="534.5" y="-426.67" font-family="Helvetica,sans-Serif" font-size="10.00">mvecs_middle</text>
<text text-anchor="middle" x="534.5" y="-415.67" font-family="Helvetica,sans-Serif" font-size="10.00">mvecs_tangents</text>
</g>
<!-- Node24 -->
<g id="node24" class="node">
<title>Node24</title>
<g id="a_node24"><a xlink:title=" ">
<polygon fill="white" stroke="#bfbfbf" points="282.5,-294.67 282.5,-324.67 444.5,-324.67 444.5,-294.67 282.5,-294.67"/>
<text text-anchor="start" x="290.5" y="-312.67" font-family="Helvetica,sans-Serif" font-size="10.00">std::vector&lt; std::shared</text>
<text text-anchor="middle" x="363.5" y="-301.67" font-family="Helvetica,sans-Serif" font-size="10.00">_ptr&lt; ChElementCableANCF &gt; &gt;</text>
</a>
</g>
</g>
<!-- Node24&#45;&gt;Node1 -->
<g id="edge39" class="edge">
<title>Node24&#45;&gt;Node1</title>
<path fill="none" stroke="#9a32cd" stroke-dasharray="5,2" d="M454.7,-295.13C507.17,-287.89 574.66,-280.67 635,-280.67 635,-280.67 635,-280.67 1013.5,-280.67 1132.48,-280.67 1232.34,-417.17 1257.75,-455.03"/>
<polygon fill="#9a32cd" stroke="#9a32cd" points="454.16,-291.67 444.75,-296.52 455.13,-298.6 454.16,-291.67"/>
<text text-anchor="middle" x="786.5" y="-283.67" font-family="Helvetica,sans-Serif" font-size="10.00"> elemsCableANCF</text>
</g>
<!-- Node24&#45;&gt;Node6 -->
<g id="edge24" class="edge">
<title>Node24&#45;&gt;Node6</title>
<path fill="none" stroke="#9a32cd" stroke-dasharray="5,2" d="M454.77,-300.88C501.18,-301.56 555,-311.33 589,-346.67 639.98,-399.65 636.56,-651.51 635.27,-704.05"/>
<polygon fill="#9a32cd" stroke="#9a32cd" points="454.68,-297.38 444.68,-300.87 454.67,-304.38 454.68,-297.38"/>
<text text-anchor="middle" x="534.5" y="-360.67" font-family="Helvetica,sans-Serif" font-size="10.00"> elemsCableANCF</text>
<text text-anchor="middle" x="534.5" y="-349.67" font-family="Helvetica,sans-Serif" font-size="10.00">elems_cable</text>
</g>
<!-- Node25 -->
<g id="node25" class="node">
<title>Node25</title>
<g id="a_node25"><a xlink:title=" ">
<polygon fill="white" stroke="#bfbfbf" points="23,-294.67 23,-324.67 163,-324.67 163,-294.67 23,-294.67"/>
<text text-anchor="start" x="31" y="-312.67" font-family="Helvetica,sans-Serif" font-size="10.00">std::shared_ptr&lt; ChElement</text>
<text text-anchor="middle" x="93" y="-301.67" font-family="Helvetica,sans-Serif" font-size="10.00">CableANCF &gt;</text>
</a>
</g>
</g>
<!-- Node25&#45;&gt;Node24 -->
<g id="edge25" class="edge">
<title>Node25&#45;&gt;Node24</title>
<path fill="none" stroke="#9a32cd" stroke-dasharray="5,2" d="M173.58,-309.67C207.84,-309.67 247.82,-309.67 282.16,-309.67"/>
<polygon fill="#9a32cd" stroke="#9a32cd" points="173.15,-306.17 163.15,-309.67 173.15,-313.17 173.15,-306.17"/>
<text text-anchor="middle" x="225.5" y="-312.67" font-family="Helvetica,sans-Serif" font-size="10.00"> elements</text>
</g>
<!-- Node26 -->
<g id="node26" class="node">
<title>Node26</title>
<g id="a_node26"><a xlink:title=" ">
<polygon fill="white" stroke="#bfbfbf" points="292,-223.67 292,-253.67 435,-253.67 435,-223.67 292,-223.67"/>
<text text-anchor="start" x="300" y="-241.67" font-family="Helvetica,sans-Serif" font-size="10.00">std::vector&lt; std::shared</text>
<text text-anchor="middle" x="363.5" y="-230.67" font-family="Helvetica,sans-Serif" font-size="10.00">_ptr&lt; ChNodeFEAxyzrot &gt; &gt;</text>
</a>
</g>
</g>
<!-- Node26&#45;&gt;Node1 -->
<g id="edge42" class="edge">
<title>Node26&#45;&gt;Node1</title>
<path fill="none" stroke="#9a32cd" stroke-dasharray="5,2" d="M445.32,-232.21C580.51,-223.52 860.22,-214.61 1089,-266.67 1132.62,-276.59 1149.86,-272.62 1183,-302.67 1231.92,-347.02 1255.09,-427.62 1261.83,-455.15"/>
<polygon fill="#9a32cd" stroke="#9a32cd" points="444.8,-228.73 435.05,-232.88 445.26,-235.72 444.8,-228.73"/>
<text text-anchor="middle" x="786.5" y="-235.67" font-family="Helvetica,sans-Serif" font-size="10.00"> nodesRot</text>
</g>
<!-- Node26&#45;&gt;Node6 -->
<g id="edge26" class="edge">
<title>Node26&#45;&gt;Node6</title>
<path fill="none" stroke="#9a32cd" stroke-dasharray="5,2" d="M445.33,-234.38C494.1,-236.46 553.48,-248.11 589,-287.67 617.83,-319.77 632.18,-643.56 634.62,-703.98"/>
<polygon fill="#9a32cd" stroke="#9a32cd" points="445.19,-230.88 435.09,-234.08 444.98,-237.87 445.19,-230.88"/>
<text text-anchor="middle" x="534.5" y="-290.67" font-family="Helvetica,sans-Serif" font-size="10.00"> nodesRot</text>
</g>
<!-- Node27 -->
<g id="node27" class="node">
<title>Node27</title>
<g id="a_node27"><a xlink:title=" ">
<polygon fill="white" stroke="#bfbfbf" points="2,-229.17 2,-248.17 184,-248.17 184,-229.17 2,-229.17"/>
<text text-anchor="middle" x="93" y="-236.17" font-family="Helvetica,sans-Serif" font-size="10.00">std::shared_ptr&lt; ChNodeFEAxyzrot &gt;</text>
</a>
</g>
</g>
<!-- Node27&#45;&gt;Node26 -->
<g id="edge27" class="edge">
<title>Node27&#45;&gt;Node26</title>
<path fill="none" stroke="#9a32cd" stroke-dasharray="5,2" d="M194.54,-238.67C226.85,-238.67 261.96,-238.67 291.68,-238.67"/>
<polygon fill="#9a32cd" stroke="#9a32cd" points="194.15,-235.17 184.15,-238.67 194.15,-242.17 194.15,-235.17"/>
<text text-anchor="middle" x="225.5" y="-241.67" font-family="Helvetica,sans-Serif" font-size="10.00"> elements</text>
</g>
<!-- Node28 -->
<g id="node28" class="node">
<title>Node28</title>
<g id="a_node28"><a xlink:title=" ">
<polygon fill="white" stroke="#bfbfbf" points="308.5,-531.17 308.5,-550.17 418.5,-550.17 418.5,-531.17 308.5,-531.17"/>
<text text-anchor="middle" x="363.5" y="-538.17" font-family="Helvetica,sans-Serif" font-size="10.00">std::vector&lt; double &gt;</text>
</a>
</g>
</g>
<!-- Node28&#45;&gt;Node1 -->
<g id="edge43" class="edge">
<title>Node28&#45;&gt;Node1</title>
<path fill="none" stroke="#9a32cd" stroke-dasharray="5,2" d="M428.84,-534.34C483.6,-529.51 564.38,-523.67 635,-523.67 635,-523.67 635,-523.67 1013.5,-523.67 1098.61,-523.67 1195.77,-491 1239.91,-474.28"/>
<polygon fill="#9a32cd" stroke="#9a32cd" points="428.23,-530.88 418.58,-535.27 428.85,-537.86 428.23,-530.88"/>
<text text-anchor="middle" x="786.5" y="-570.67" font-family="Helvetica,sans-Serif" font-size="10.00"> E</text>
<text text-anchor="middle" x="786.5" y="-559.67" font-family="Helvetica,sans-Serif" font-size="10.00">d</text>
<text text-anchor="middle" x="786.5" y="-548.67" font-family="Helvetica,sans-Serif" font-size="10.00">fluid_density</text>
<text text-anchor="middle" x="786.5" y="-537.67" font-family="Helvetica,sans-Serif" font-size="10.00">length</text>
<text text-anchor="middle" x="786.5" y="-526.67" font-family="Helvetica,sans-Serif" font-size="10.00">rho</text>
</g>
<!-- Node28&#45;&gt;Node6 -->
<g id="edge28" class="edge">
<title>Node28&#45;&gt;Node6</title>
<path fill="none" stroke="#9a32cd" stroke-dasharray="5,2" d="M428.82,-542.42C486.43,-545.28 565.36,-552.81 589,-572.67 629.82,-606.94 634.7,-677.98 635.08,-703.91"/>
<polygon fill="#9a32cd" stroke="#9a32cd" points="428.84,-538.91 418.69,-541.95 428.52,-545.91 428.84,-538.91"/>
<text text-anchor="middle" x="534.5" y="-608.67" font-family="Helvetica,sans-Serif" font-size="10.00"> elems_length</text>
<text text-anchor="middle" x="534.5" y="-597.67" font-family="Helvetica,sans-Serif" font-size="10.00">fluid_density</text>
<text text-anchor="middle" x="534.5" y="-586.67" font-family="Helvetica,sans-Serif" font-size="10.00">length_per_elem</text>
<text text-anchor="middle" x="534.5" y="-575.67" font-family="Helvetica,sans-Serif" font-size="10.00">nodes_density</text>
</g>
<!-- Node29 -->
<g id="node29" class="node">
<title>Node29</title>
<g id="a_node29"><a xlink:title=" ">
<polygon fill="white" stroke="#bfbfbf" points="943.5,-183.67 943.5,-213.67 1081.5,-213.67 1081.5,-183.67 943.5,-183.67"/>
<text text-anchor="start" x="951.5" y="-201.67" font-family="Helvetica,sans-Serif" font-size="10.00">std::shared_ptr&lt; ChMaterial</text>
<text text-anchor="middle" x="1012.5" y="-190.67" font-family="Helvetica,sans-Serif" font-size="10.00">SurfaceSMC &gt;</text>
</a>
</g>
</g>
<!-- Node29&#45;&gt;Node1 -->
<g id="edge33" class="edge">
<title>Node29&#45;&gt;Node1</title>
<path fill="none" stroke="#9a32cd" stroke-dasharray="5,2" d="M1091.67,-184.16C1122.95,-182.68 1157.53,-187.03 1183,-206.67 1265.16,-270.02 1265.83,-416.27 1264.48,-455.07"/>
<polygon fill="#9a32cd" stroke="#9a32cd" points="1091.39,-180.67 1081.64,-184.84 1091.86,-187.66 1091.39,-180.67"/>
<text text-anchor="middle" x="1145" y="-220.67" font-family="Helvetica,sans-Serif" font-size="10.00"> contact_material</text>
<text text-anchor="middle" x="1145" y="-209.67" font-family="Helvetica,sans-Serif" font-size="10.00">mysurfmaterial</text>
</g>
<!-- Node30 -->
<g id="node30" class="node">
<title>Node30</title>
<g id="a_node30"><a xlink:title=" ">
<polygon fill="white" stroke="#bfbfbf" points="966.5,-145.17 966.5,-164.17 1058.5,-164.17 1058.5,-145.17 966.5,-145.17"/>
<text text-anchor="middle" x="1012.5" y="-152.17" font-family="Helvetica,sans-Serif" font-size="10.00">std::vector&lt; int &gt;</text>
</a>
</g>
</g>
<!-- Node30&#45;&gt;Node1 -->
<g id="edge37" class="edge">
<title>Node30&#45;&gt;Node1</title>
<path fill="none" stroke="#9a32cd" stroke-dasharray="5,2" d="M1068.5,-148.71C1111.12,-145.34 1165.74,-144.13 1183,-157.67 1232.11,-196.2 1257.73,-406.87 1262.98,-454.91"/>
<polygon fill="#9a32cd" stroke="#9a32cd" points="1068.17,-145.23 1058.5,-149.56 1068.76,-152.2 1068.17,-145.23"/>
<text text-anchor="middle" x="1145" y="-171.67" font-family="Helvetica,sans-Serif" font-size="10.00"> nb_elems</text>
<text text-anchor="middle" x="1145" y="-160.67" font-family="Helvetica,sans-Serif" font-size="10.00">nb_nodes</text>
</g>
<!-- Node31 -->
<g id="node31" class="node">
<title>Node31</title>
<g id="a_node31"><a xlink:title=" ">
<polygon fill="white" stroke="#bfbfbf" points="936,-107.17 936,-126.17 1089,-126.17 1089,-107.17 936,-107.17"/>
<text text-anchor="middle" x="1012.5" y="-114.17" font-family="Helvetica,sans-Serif" font-size="10.00">std::shared_ptr&lt; ChLinkBase &gt;</text>
</a>
</g>
</g>
<!-- Node31&#45;&gt;Node1 -->
<g id="edge38" class="edge">
<title>Node31&#45;&gt;Node1</title>
<path fill="none" stroke="#9a32cd" stroke-dasharray="5,2" d="M1053.65,-104.68C1091.28,-96.11 1146.99,-90.61 1183,-119.67 1237.7,-163.81 1259.29,-404.01 1263.29,-455.11"/>
<polygon fill="#9a32cd" stroke="#9a32cd" points="1052.43,-101.38 1043.55,-107.16 1054.09,-108.18 1052.43,-101.38"/>
<text text-anchor="middle" x="1145" y="-133.67" font-family="Helvetica,sans-Serif" font-size="10.00"> constraint_back</text>
<text text-anchor="middle" x="1145" y="-122.67" font-family="Helvetica,sans-Serif" font-size="10.00">constraint_front</text>
</g>
<!-- Node32 -->
<g id="node32" class="node">
<title>Node32</title>
<g id="a_node32"><a xlink:title=" ">
<polygon fill="white" stroke="#bfbfbf" points="940.5,-57.67 940.5,-87.67 1084.5,-87.67 1084.5,-57.67 940.5,-57.67"/>
<text text-anchor="start" x="948.5" y="-75.67" font-family="Helvetica,sans-Serif" font-size="10.00">std::shared_ptr&lt; ChLinkPoint</text>
<text text-anchor="middle" x="1012.5" y="-64.67" font-family="Helvetica,sans-Serif" font-size="10.00">Frame &gt;</text>
</a>
</g>
</g>
<!-- Node32&#45;&gt;Node1 -->
<g id="edge40" class="edge">
<title>Node32&#45;&gt;Node1</title>
<path fill="none" stroke="#9a32cd" stroke-dasharray="5,2" d="M1095.08,-57.97C1125.89,-57.03 1159.21,-62.2 1183,-82.67 1241.98,-133.4 1260.31,-400.18 1263.47,-454.87"/>
<polygon fill="#9a32cd" stroke="#9a32cd" points="1094.55,-54.49 1084.75,-58.51 1094.92,-61.48 1094.55,-54.49"/>
<text text-anchor="middle" x="1145" y="-85.67" font-family="Helvetica,sans-Serif" font-size="10.00"> fairlead2</text>
</g>
<!-- Node33 -->
<g id="node33" class="node">
<title>Node33</title>
<g id="a_node33"><a xlink:title=" ">
<polygon fill="white" stroke="#bfbfbf" points="945,-12.17 945,-31.17 1080,-31.17 1080,-12.17 945,-12.17"/>
<text text-anchor="middle" x="1012.5" y="-19.17" font-family="Helvetica,sans-Serif" font-size="10.00">std::shared_ptr&lt; ChBody &gt;</text>
</a>
</g>
</g>
<!-- Node33&#45;&gt;Node1 -->
<g id="edge41" class="edge">
<title>Node33&#45;&gt;Node1</title>
<path fill="none" stroke="#9a32cd" stroke-dasharray="5,2" d="M1050.61,-9.28C1088.39,0.77 1146.43,8.82 1183,-21.67 1252.51,-79.62 1262.54,-395.02 1263.83,-454.86"/>
<polygon fill="#9a32cd" stroke="#9a32cd" points="1049.2,-6.04 1040.53,-12.14 1051.11,-12.78 1049.2,-6.04"/>
<text text-anchor="middle" x="1145" y="-46.67" font-family="Helvetica,sans-Serif" font-size="10.00"> body_back</text>
<text text-anchor="middle" x="1145" y="-35.67" font-family="Helvetica,sans-Serif" font-size="10.00">body_front</text>
<text text-anchor="middle" x="1145" y="-24.67" font-family="Helvetica,sans-Serif" font-size="10.00">fairleadd</text>
</g>
</g>
</svg>
