<?xml version="1.0" encoding="UTF-8" standalone="no"?>
<!DOCTYPE svg PUBLIC "-//W3C//DTD SVG 1.1//EN"
 "http://www.w3.org/Graphics/SVG/1.1/DTD/svg11.dtd">
<!-- Generated by graphviz version 2.40.1 (20161225.0304)
 -->
<!-- Title: proteus::cppRANS3PF2D_base Pages: 1 -->
<svg width="433pt" height="83pt"
 viewBox="0.00 0.00 433.00 83.00" xmlns="http://www.w3.org/2000/svg" xmlns:xlink="http://www.w3.org/1999/xlink">
<g id="graph0" class="graph" transform="scale(1 1) rotate(0) translate(4 79)">
<title>proteus::cppRANS3PF2D_base</title>
<polygon fill="#ffffff" stroke="transparent" points="-4,4 -4,-79 429,-79 429,4 -4,4"/>
<!-- Node0 -->
<g id="node1" class="node">
<title>Node0</title>
<polygon fill="#bfbfbf" stroke="#000000" points="0,-28 0,-47 156,-47 156,-28 0,-28"/>
<text text-anchor="middle" x="78" y="-35" font-family="Helvetica,sans-Serif" font-size="10.00" fill="#000000">proteus::cppRANS3PF2D_base</text>
</g>
<!-- Node1 -->
<g id="node2" class="node">
<title>Node1</title>
<g id="a_node2"><a xlink:href="classproteus_1_1cpp_r_a_n_s3_p_f2_d.html" target="_top" xlink:title="proteus::cppRANS3PF2D\l\&lt; CompKernelType, nSpace,\l nQuadraturePoints_element,\l nDOF_mesh_trial_element,\l nDOF_trial_element, nDOF_test\l_element, nQuadraturePoints_elementBoundary \&gt;">
<polygon fill="#ffffff" stroke="#000000" points="192,-.5 192,-74.5 425,-74.5 425,-.5 192,-.5"/>
<text text-anchor="start" x="200" y="-62.5" font-family="Helvetica,sans-Serif" font-size="10.00" fill="#000000">proteus::cppRANS3PF2D</text>
<text text-anchor="start" x="200" y="-51.5" font-family="Helvetica,sans-Serif" font-size="10.00" fill="#000000">&lt; CompKernelType, nSpace,</text>
<text text-anchor="start" x="200" y="-40.5" font-family="Helvetica,sans-Serif" font-size="10.00" fill="#000000"> nQuadraturePoints_element,</text>
<text text-anchor="start" x="200" y="-29.5" font-family="Helvetica,sans-Serif" font-size="10.00" fill="#000000"> nDOF_mesh_trial_element,</text>
<text text-anchor="start" x="200" y="-18.5" font-family="Helvetica,sans-Serif" font-size="10.00" fill="#000000"> nDOF_trial_element, nDOF_test</text>
<text text-anchor="middle" x="308.5" y="-7.5" font-family="Helvetica,sans-Serif" font-size="10.00" fill="#000000">_element, nQuadraturePoints_elementBoundary &gt;</text>
</a>
</g>
</g>
<!-- Node0&#45;&gt;Node1 -->
<g id="edge1" class="edge">
<title>Node0&#45;&gt;Node1</title>
<path fill="none" stroke="#191970" d="M166.1294,-37.5C174.4963,-37.5 183.0653,-37.5 191.6462,-37.5"/>
<polygon fill="#191970" stroke="#191970" points="166.0368,-34.0001 156.0368,-37.5 166.0368,-41.0001 166.0368,-34.0001"/>
</g>
</g>
</svg>
