<?xml version="1.0" encoding="UTF-8" standalone="no"?>
<!DOCTYPE svg PUBLIC "-//W3C//DTD SVG 1.1//EN"
 "http://www.w3.org/Graphics/SVG/1.1/DTD/svg11.dtd">
<!-- Generated by graphviz version 2.40.1 (20161225.0304)
 -->
<!-- Title: proteus::cppVOF3P_base Pages: 1 -->
<svg width="188pt" height="194pt"
 viewBox="0.00 0.00 187.50 194.00" xmlns="http://www.w3.org/2000/svg" xmlns:xlink="http://www.w3.org/1999/xlink">
<g id="graph0" class="graph" transform="scale(1 1) rotate(0) translate(4 190)">
<title>proteus::cppVOF3P_base</title>
<polygon fill="#ffffff" stroke="transparent" points="-4,4 -4,-190 183.5,-190 183.5,4 -4,4"/>
<!-- Node2 -->
<g id="node1" class="node">
<title>Node2</title>
<polygon fill="#bfbfbf" stroke="#000000" points="0,-.5 0,-19.5 129,-19.5 129,-.5 0,-.5"/>
<text text-anchor="middle" x="64.5" y="-7.5" font-family="Helvetica,sans-Serif" font-size="10.00" fill="#000000">proteus::cppVOF3P_base</text>
</g>
<!-- Node3 -->
<g id="node2" class="node">
<title>Node3</title>
<polygon fill="#ffffff" stroke="#bfbfbf" points="6,-166.5 6,-185.5 123,-185.5 123,-166.5 6,-166.5"/>
<text text-anchor="middle" x="64.5" y="-173.5" font-family="Helvetica,sans-Serif" font-size="10.00" fill="#000000">std::valarray&lt; double &gt;</text>
</g>
<!-- Node3&#45;&gt;Node2 -->
<g id="edge1" class="edge">
<title>Node3&#45;&gt;Node2</title>
<path fill="none" stroke="#9a32cd" stroke-dasharray="5,2" d="M64.5,-155.8906C64.5,-119.9583 64.5,-46.0224 64.5,-19.6272"/>
<polygon fill="#9a32cd" stroke="#9a32cd" points="61.0001,-156.113 64.5,-166.1131 68.0001,-156.1131 61.0001,-156.113"/>
<text text-anchor="middle" x="122" y="-140" font-family="Helvetica,sans-Serif" font-size="10.00" fill="#000000"> boundary_integral</text>
<text text-anchor="middle" x="122" y="-129" font-family="Helvetica,sans-Serif" font-size="10.00" fill="#000000">psi</text>
<text text-anchor="middle" x="122" y="-118" font-family="Helvetica,sans-Serif" font-size="10.00" fill="#000000">Rpos</text>
<text text-anchor="start" x="64.5" y="-107" font-family="Helvetica,sans-Serif" font-size="10.00" fill="#000000">global_entropy</text>
<text text-anchor="middle" x="122" y="-96" font-family="Helvetica,sans-Serif" font-size="10.00" fill="#000000">_residual</text>
<text text-anchor="middle" x="122" y="-85" font-family="Helvetica,sans-Serif" font-size="10.00" fill="#000000">FluxCorrectionMatrix</text>
<text text-anchor="middle" x="122" y="-74" font-family="Helvetica,sans-Serif" font-size="10.00" fill="#000000">TransposeTransportMatrix</text>
<text text-anchor="middle" x="122" y="-63" font-family="Helvetica,sans-Serif" font-size="10.00" fill="#000000">TransportMatrix</text>
<text text-anchor="middle" x="122" y="-52" font-family="Helvetica,sans-Serif" font-size="10.00" fill="#000000">Rneg</text>
<text text-anchor="middle" x="122" y="-41" font-family="Helvetica,sans-Serif" font-size="10.00" fill="#000000">eta</text>
</g>
</g>
</svg>
