<?xml version="1.0" encoding="UTF-8" standalone="no"?>
<!DOCTYPE svg PUBLIC "-//W3C//DTD SVG 1.1//EN"
 "http://www.w3.org/Graphics/SVG/1.1/DTD/svg11.dtd">
<!-- Generated by graphviz version 2.44.1 (20200629.0846)
 -->
<!-- Title: MeshAdaptPUMIDrvr Pages: 1 -->
<svg width="146pt" height="185pt"
 viewBox="0.00 0.00 146.00 185.00" xmlns="http://www.w3.org/2000/svg" xmlns:xlink="http://www.w3.org/1999/xlink">
<g id="graph0" class="graph" transform="scale(1 1) rotate(0) translate(4 181)">
<title>MeshAdaptPUMIDrvr</title>
<polygon fill="white" stroke="transparent" points="-4,4 -4,-181 142,-181 142,4 -4,4"/>
<!-- Node1 -->
<g id="node1" class="node">
<title>Node1</title>
<g id="a_node1"><a xlink:title="Class that handles the interface between SCOREC tools and Proteus.">
<polygon fill="#bfbfbf" stroke="black" points="0,-0.5 0,-19.5 110,-19.5 110,-0.5 0,-0.5"/>
<text text-anchor="middle" x="55" y="-7.5" font-family="Helvetica,sans-Serif" font-size="10.00">MeshAdaptPUMIDrvr</text>
</a>
</g>
</g>
<!-- Node2 -->
<g id="node2" class="node">
<title>Node2</title>
<g id="a_node2"><a xlink:title="STL class.">
<polygon fill="white" stroke="#bfbfbf" points="25,-89.5 25,-108.5 85,-108.5 85,-89.5 25,-89.5"/>
<text text-anchor="middle" x="55" y="-96.5" font-family="Helvetica,sans-Serif" font-size="10.00">std::string</text>
</a>
</g>
</g>
<!-- Node2&#45;&gt;Node1 -->
<g id="edge1" class="edge">
<title>Node2&#45;&gt;Node1</title>
<path fill="none" stroke="#9a32cd" stroke-dasharray="5,2" d="M55,-79.19C55,-60.74 55,-33.41 55,-19.62"/>
<polygon fill="#9a32cd" stroke="#9a32cd" points="51.5,-79.34 55,-89.34 58.5,-79.34 51.5,-79.34"/>
<text text-anchor="middle" x="96.5" y="-63" font-family="Helvetica,sans-Serif" font-size="10.00"> adapt_type_config</text>
<text text-anchor="middle" x="96.5" y="-52" font-family="Helvetica,sans-Serif" font-size="10.00">logging_config</text>
<text text-anchor="middle" x="96.5" y="-41" font-family="Helvetica,sans-Serif" font-size="10.00">size_field_config</text>
</g>
<!-- Node3 -->
<g id="node3" class="node">
<title>Node3</title>
<g id="a_node3"><a xlink:title="STL class.">
<polygon fill="white" stroke="#bfbfbf" points="7.5,-146.5 7.5,-176.5 102.5,-176.5 102.5,-146.5 7.5,-146.5"/>
<text text-anchor="start" x="15.5" y="-164.5" font-family="Helvetica,sans-Serif" font-size="10.00">std::basic_string&lt;</text>
<text text-anchor="middle" x="55" y="-153.5" font-family="Helvetica,sans-Serif" font-size="10.00"> char &gt;</text>
</a>
</g>
</g>
<!-- Node3&#45;&gt;Node2 -->
<g id="edge2" class="edge">
<title>Node3&#45;&gt;Node2</title>
<path fill="none" stroke="midnightblue" d="M55,-136.35C55,-126.51 55,-115.78 55,-108.54"/>
<polygon fill="midnightblue" stroke="midnightblue" points="51.5,-136.47 55,-146.47 58.5,-136.47 51.5,-136.47"/>
</g>
</g>
</svg>
