<?xml version="1.0" encoding="UTF-8" standalone="no"?>
<!DOCTYPE svg PUBLIC "-//W3C//DTD SVG 1.1//EN"
 "http://www.w3.org/Graphics/SVG/1.1/DTD/svg11.dtd">
<!-- Generated by graphviz version 2.40.1 (20161225.0304)
 -->
<!-- Title: chrono::ChBodyAddedMass Pages: 1 -->
<svg width="285pt" height="152pt"
 viewBox="0.00 0.00 285.00 152.00" xmlns="http://www.w3.org/2000/svg" xmlns:xlink="http://www.w3.org/1999/xlink">
<g id="graph0" class="graph" transform="scale(1 1) rotate(0) translate(4 148)">
<title>chrono::ChBodyAddedMass</title>
<polygon fill="#ffffff" stroke="transparent" points="-4,4 -4,-148 281,-148 281,4 -4,4"/>
<!-- Node2 -->
<g id="node1" class="node">
<title>Node2</title>
<polygon fill="#bfbfbf" stroke="#000000" points="0,-.5 0,-19.5 139,-19.5 139,-.5 0,-.5"/>
<text text-anchor="middle" x="69.5" y="-7.5" font-family="Helvetica,sans-Serif" font-size="10.00" fill="#000000">chrono::ChBodyAddedMass</text>
</g>
<!-- Node3 -->
<g id="node2" class="node">
<title>Node3</title>
<polygon fill="#ffffff" stroke="#bfbfbf" points="27.5,-67.5 27.5,-86.5 79.5,-86.5 79.5,-67.5 27.5,-67.5"/>
<text text-anchor="middle" x="53.5" y="-74.5" font-family="Helvetica,sans-Serif" font-size="10.00" fill="#000000">ChBody</text>
</g>
<!-- Node3&#45;&gt;Node2 -->
<g id="edge1" class="edge">
<title>Node3&#45;&gt;Node2</title>
<path fill="none" stroke="#191970" d="M58.16,-57.4863C61.135,-45.0286 64.861,-29.4258 67.2118,-19.5817"/>
<polygon fill="#191970" stroke="#191970" points="54.711,-56.861 55.7924,-67.4005 61.5195,-58.487 54.711,-56.861"/>
</g>
<!-- Node4 -->
<g id="node3" class="node">
<title>Node4</title>
<g id="a_node3"><a xlink:href="classchrono_1_1_ch_variables_body_added_mass.html" target="_top" xlink:title="chrono::ChVariablesBodyAddedMass">
<polygon fill="#ffffff" stroke="#000000" points="98,-67.5 98,-86.5 277,-86.5 277,-67.5 98,-67.5"/>
<text text-anchor="middle" x="187.5" y="-74.5" font-family="Helvetica,sans-Serif" font-size="10.00" fill="#000000">chrono::ChVariablesBodyAddedMass</text>
</a>
</g>
</g>
<!-- Node4&#45;&gt;Node2 -->
<g id="edge2" class="edge">
<title>Node4&#45;&gt;Node2</title>
<path fill="none" stroke="#9a32cd" stroke-dasharray="5,2" d="M161.7595,-62.3846C138.8753,-49.391 106.0767,-30.7681 86.3752,-19.5817"/>
<polygon fill="#9a32cd" stroke="#9a32cd" points="160.1693,-65.5065 170.5935,-67.4005 163.6256,-59.4193 160.1693,-65.5065"/>
<text text-anchor="middle" x="157" y="-41" font-family="Helvetica,sans-Serif" font-size="10.00" fill="#000000"> variables</text>
</g>
<!-- Node5 -->
<g id="node4" class="node">
<title>Node5</title>
<polygon fill="#ffffff" stroke="#bfbfbf" points="119,-124.5 119,-143.5 256,-143.5 256,-124.5 119,-124.5"/>
<text text-anchor="middle" x="187.5" y="-131.5" font-family="Helvetica,sans-Serif" font-size="10.00" fill="#000000">ChVariablesBodyOwnMass</text>
</g>
<!-- Node5&#45;&gt;Node4 -->
<g id="edge3" class="edge">
<title>Node5&#45;&gt;Node4</title>
<path fill="none" stroke="#191970" d="M187.5,-114.2342C187.5,-104.8491 187.5,-94.0651 187.5,-86.5265"/>
<polygon fill="#191970" stroke="#191970" points="184.0001,-114.3307 187.5,-124.3307 191.0001,-114.3308 184.0001,-114.3307"/>
</g>
</g>
</svg>
