<?xml version="1.0" encoding="UTF-8" standalone="no"?>
<!DOCTYPE svg PUBLIC "-//W3C//DTD SVG 1.1//EN"
 "http://www.w3.org/Graphics/SVG/1.1/DTD/svg11.dtd">
<!-- Generated by graphviz version 2.50.0 (20211204.2007)
 -->
<!-- Title: proteus::RANS2P2D&lt; CompKernelType, CompKernelType_v, nSpace, nQuadraturePoints_element, nDOF_mesh_trial_element, nDOF_trial_element, nDOF_test_element, nDOF_v_trial_element, nDOF_v_test_element, nQuadraturePoints_elementBoundary &gt; Pages: 1 -->
<svg width="613pt" height="178pt"
 viewBox="0.00 0.00 613.00 178.00" xmlns="http://www.w3.org/2000/svg" xmlns:xlink="http://www.w3.org/1999/xlink">
<g id="graph0" class="graph" transform="scale(1 1) rotate(0) translate(4 174)">
<title>proteus::RANS2P2D&lt; CompKernelType, CompKernelType_v, nSpace, nQuadraturePoints_element, nDOF_mesh_trial_element, nDOF_trial_element, nDOF_test_element, nDOF_v_trial_element, nDOF_v_test_element, nQuadraturePoints_elementBoundary &gt;</title>
<polygon fill="white" stroke="transparent" points="-4,4 -4,-174 609,-174 609,4 -4,4"/>
<!-- Node1 -->
<g id="node1" class="node">
<title>Node1</title>
<g id="a_node1"><a xlink:title=" ">
<polygon fill="#bfbfbf" stroke="black" points="381,-51.5 381,-136.5 605,-136.5 605,-51.5 381,-51.5"/>
<text text-anchor="start" x="389" y="-124.5" font-family="Helvetica,sans-Serif" font-size="10.00">proteus::RANS2P2D&lt;</text>
<text text-anchor="start" x="389" y="-113.5" font-family="Helvetica,sans-Serif" font-size="10.00"> CompKernelType, CompKernel</text>
<text text-anchor="start" x="389" y="-102.5" font-family="Helvetica,sans-Serif" font-size="10.00">Type_v, nSpace, nQuadraturePoints</text>
<text text-anchor="start" x="389" y="-91.5" font-family="Helvetica,sans-Serif" font-size="10.00">_element, nDOF_mesh_trial_element,</text>
<text text-anchor="start" x="389" y="-80.5" font-family="Helvetica,sans-Serif" font-size="10.00"> nDOF_trial_element, nDOF_test_element,</text>
<text text-anchor="start" x="389" y="-69.5" font-family="Helvetica,sans-Serif" font-size="10.00"> nDOF_v_trial_element, nDOF_v_test_element,</text>
<text text-anchor="middle" x="493" y="-58.5" font-family="Helvetica,sans-Serif" font-size="10.00"> nQuadraturePoints_elementBoundary &gt;</text>
</a>
</g>
</g>
<!-- Node2 -->
<g id="node2" class="node">
<title>Node2</title>
<g id="a_node2"><a xlink:href="classproteus_1_1_r_a_n_s2_p2_d__base.html" target="_top" xlink:title=" ">
<polygon fill="white" stroke="black" points="49.5,-150.5 49.5,-169.5 183.5,-169.5 183.5,-150.5 49.5,-150.5"/>
<text text-anchor="middle" x="116.5" y="-157.5" font-family="Helvetica,sans-Serif" font-size="10.00">proteus::RANS2P2D_base</text>
</a>
</g>
</g>
<!-- Node2&#45;&gt;Node1 -->
<g id="edge1" class="edge">
<title>Node2&#45;&gt;Node1</title>
<path fill="none" stroke="midnightblue" d="M193.85,-151.53C242.48,-145.62 306.69,-136.85 363,-126 368.89,-124.86 374.92,-123.63 380.99,-122.33"/>
<polygon fill="midnightblue" stroke="midnightblue" points="193.23,-148.08 183.72,-152.75 194.06,-155.03 193.23,-148.08"/>
</g>
<!-- Node3 -->
<g id="node3" class="node">
<title>Node3</title>
<g id="a_node3"><a xlink:title=" ">
<polygon fill="white" stroke="#bfbfbf" points="66.5,-112.5 66.5,-131.5 166.5,-131.5 166.5,-112.5 66.5,-112.5"/>
<text text-anchor="middle" x="116.5" y="-119.5" font-family="Helvetica,sans-Serif" font-size="10.00">std::map&lt; int, int &gt;</text>
</a>
</g>
</g>
<!-- Node3&#45;&gt;Node1 -->
<g id="edge2" class="edge">
<title>Node3&#45;&gt;Node1</title>
<path fill="none" stroke="#9a32cd" stroke-dasharray="5,2" d="M177.04,-117.55C231.63,-113.47 313.89,-107.32 380.65,-102.33"/>
<polygon fill="#9a32cd" stroke="#9a32cd" points="176.56,-114.07 166.84,-118.31 177.08,-121.06 176.56,-114.07"/>
<text text-anchor="middle" x="307" y="-114" font-family="Helvetica,sans-Serif" font-size="10.00"> cutfem_local_boundaries</text>
</g>
<!-- Node4 -->
<g id="node4" class="node">
<title>Node4</title>
<g id="a_node4"><a xlink:href="classequivalent__polynomials_1_1_generalized_functions__mix.html" target="_top" xlink:title=" ">
<polygon fill="white" stroke="black" points="0,-40 0,-92 233,-92 233,-40 0,-40"/>
<text text-anchor="start" x="8" y="-80" font-family="Helvetica,sans-Serif" font-size="10.00">equivalent_polynomials</text>
<text text-anchor="start" x="8" y="-69" font-family="Helvetica,sans-Serif" font-size="10.00">::GeneralizedFunctions</text>
<text text-anchor="start" x="8" y="-58" font-family="Helvetica,sans-Serif" font-size="10.00">_mix&lt; nSpace, 3, nQuadraturePoints</text>
<text text-anchor="middle" x="116.5" y="-47" font-family="Helvetica,sans-Serif" font-size="10.00">_element, nQuadraturePoints_elementBoundary &gt;</text>
</a>
</g>
</g>
<!-- Node4&#45;&gt;Node1 -->
<g id="edge3" class="edge">
<title>Node4&#45;&gt;Node1</title>
<path fill="none" stroke="#9a32cd" stroke-dasharray="5,2" d="M243.5,-60.85C281.95,-60.66 324.29,-61.85 363,-66 368.81,-66.62 374.74,-67.4 380.72,-68.29"/>
<polygon fill="#9a32cd" stroke="#9a32cd" points="243.26,-57.35 233.29,-60.93 243.32,-64.35 243.26,-57.35"/>
<text text-anchor="middle" x="307" y="-91" font-family="Helvetica,sans-Serif" font-size="10.00"> gf</text>
<text text-anchor="middle" x="307" y="-80" font-family="Helvetica,sans-Serif" font-size="10.00">gf_p</text>
<text text-anchor="middle" x="307" y="-69" font-family="Helvetica,sans-Serif" font-size="10.00">gf_s</text>
</g>
<!-- Node5 -->
<g id="node5" class="node">
<title>Node5</title>
<g id="a_node5"><a xlink:title=" ">
<polygon fill="white" stroke="#bfbfbf" points="77.5,-0.5 77.5,-19.5 155.5,-19.5 155.5,-0.5 77.5,-0.5"/>
<text text-anchor="middle" x="116.5" y="-7.5" font-family="Helvetica,sans-Serif" font-size="10.00">std::set&lt; int &gt;</text>
</a>
</g>
</g>
<!-- Node5&#45;&gt;Node1 -->
<g id="edge4" class="edge">
<title>Node5&#45;&gt;Node1</title>
<path fill="none" stroke="#9a32cd" stroke-dasharray="5,2" d="M166.04,-6.61C216.32,-4.5 296.68,-5.14 363,-24 384.81,-30.2 407.05,-40.55 426.78,-51.42"/>
<polygon fill="#9a32cd" stroke="#9a32cd" points="165.61,-3.12 155.78,-7.09 165.94,-10.11 165.61,-3.12"/>
<text text-anchor="middle" x="307" y="-49" font-family="Helvetica,sans-Serif" font-size="10.00"> cutfem_boundaries</text>
<text text-anchor="middle" x="307" y="-38" font-family="Helvetica,sans-Serif" font-size="10.00">ifem_boundaries</text>
<text text-anchor="middle" x="307" y="-27" font-family="Helvetica,sans-Serif" font-size="10.00">ifem_boundary_elements</text>
</g>
</g>
</svg>
