<?xml version="1.0" encoding="UTF-8" standalone="no"?>
<!DOCTYPE svg PUBLIC "-//W3C//DTD SVG 1.1//EN"
 "http://www.w3.org/Graphics/SVG/1.1/DTD/svg11.dtd">
<!-- Generated by graphviz version 2.40.1 (20161225.0304)
 -->
<!-- Title: proteus::cppRANS3PF&lt; CompKernelType, nSpace, nQuadraturePoints_element, nDOF_mesh_trial_element, nDOF_trial_element, nDOF_test_element, nQuadraturePoints_elementBoundary &gt; Pages: 1 -->
<svg width="845pt" height="338pt"
 viewBox="0.00 0.00 845.00 337.50" xmlns="http://www.w3.org/2000/svg" xmlns:xlink="http://www.w3.org/1999/xlink">
<g id="graph0" class="graph" transform="scale(1 1) rotate(0) translate(4 333.5)">
<title>proteus::cppRANS3PF&lt; CompKernelType, nSpace, nQuadraturePoints_element, nDOF_mesh_trial_element, nDOF_trial_element, nDOF_test_element, nQuadraturePoints_elementBoundary &gt;</title>
<polygon fill="#ffffff" stroke="transparent" points="-4,4 -4,-333.5 841,-333.5 841,4 -4,4"/>
<!-- Node2 -->
<g id="node1" class="node">
<title>Node2</title>
<polygon fill="#bfbfbf" stroke="#000000" points="604,-83.5 604,-157.5 837,-157.5 837,-83.5 604,-83.5"/>
<text text-anchor="start" x="612" y="-145.5" font-family="Helvetica,sans-Serif" font-size="10.00" fill="#000000">proteus::cppRANS3PF</text>
<text text-anchor="start" x="612" y="-134.5" font-family="Helvetica,sans-Serif" font-size="10.00" fill="#000000">&lt; CompKernelType, nSpace,</text>
<text text-anchor="start" x="612" y="-123.5" font-family="Helvetica,sans-Serif" font-size="10.00" fill="#000000"> nQuadraturePoints_element,</text>
<text text-anchor="start" x="612" y="-112.5" font-family="Helvetica,sans-Serif" font-size="10.00" fill="#000000"> nDOF_mesh_trial_element,</text>
<text text-anchor="start" x="612" y="-101.5" font-family="Helvetica,sans-Serif" font-size="10.00" fill="#000000"> nDOF_trial_element, nDOF_test</text>
<text text-anchor="middle" x="720.5" y="-90.5" font-family="Helvetica,sans-Serif" font-size="10.00" fill="#000000">_element, nQuadraturePoints_elementBoundary &gt;</text>
</g>
<!-- Node3 -->
<g id="node2" class="node">
<title>Node3</title>
<g id="a_node2"><a xlink:href="classproteus_1_1cpp_r_a_n_s3_p_f__base.html" target="_top" xlink:title="proteus::cppRANS3PF_base">
<polygon fill="#ffffff" stroke="#000000" points="286,-188 286,-207 429,-207 429,-188 286,-188"/>
<text text-anchor="middle" x="357.5" y="-195" font-family="Helvetica,sans-Serif" font-size="10.00" fill="#000000">proteus::cppRANS3PF_base</text>
</a>
</g>
</g>
<!-- Node3&#45;&gt;Node2 -->
<g id="edge1" class="edge">
<title>Node3&#45;&gt;Node2</title>
<path fill="none" stroke="#191970" d="M439.0462,-187.4692C482.8858,-181.3707 537.7087,-172.6073 586,-161.5 591.8286,-160.1594 597.7735,-158.6998 603.759,-157.1564"/>
<polygon fill="#191970" stroke="#191970" points="438.4414,-184.0193 429.0098,-188.8457 439.3926,-190.9544 438.4414,-184.0193"/>
</g>
<!-- Node4 -->
<g id="node3" class="node">
<title>Node4</title>
<polygon fill="#ffffff" stroke="#bfbfbf" points="0,-188 0,-207 117,-207 117,-188 0,-188"/>
<text text-anchor="middle" x="58.5" y="-195" font-family="Helvetica,sans-Serif" font-size="10.00" fill="#000000">std::valarray&lt; double &gt;</text>
</g>
<!-- Node4&#45;&gt;Node3 -->
<g id="edge2" class="edge">
<title>Node4&#45;&gt;Node3</title>
<path fill="none" stroke="#9a32cd" stroke-dasharray="5,2" d="M127.413,-197.5C174.9278,-197.5 237.9322,-197.5 285.9967,-197.5"/>
<polygon fill="#9a32cd" stroke="#9a32cd" points="127.2161,-194.0001 117.216,-197.5 127.216,-201.0001 127.2161,-194.0001"/>
<text text-anchor="middle" x="179" y="-321.5" font-family="Helvetica,sans-Serif" font-size="10.00" fill="#000000"> wStar_min_hiHe</text>
<text text-anchor="middle" x="179" y="-310.5" font-family="Helvetica,sans-Serif" font-size="10.00" fill="#000000">den_hi</text>
<text text-anchor="middle" x="179" y="-299.5" font-family="Helvetica,sans-Serif" font-size="10.00" fill="#000000">vStar_hi</text>
<text text-anchor="start" x="135" y="-288.5" font-family="Helvetica,sans-Serif" font-size="10.00" fill="#000000">TransposeTransport</text>
<text text-anchor="middle" x="179" y="-277.5" font-family="Helvetica,sans-Serif" font-size="10.00" fill="#000000">Matrix</text>
<text text-anchor="middle" x="179" y="-266.5" font-family="Helvetica,sans-Serif" font-size="10.00" fill="#000000">uStar_hi</text>
<text text-anchor="middle" x="179" y="-255.5" font-family="Helvetica,sans-Serif" font-size="10.00" fill="#000000">wStar_hi</text>
<text text-anchor="middle" x="179" y="-244.5" font-family="Helvetica,sans-Serif" font-size="10.00" fill="#000000">wStar_psi</text>
<text text-anchor="middle" x="179" y="-233.5" font-family="Helvetica,sans-Serif" font-size="10.00" fill="#000000">wStar_gamma</text>
<text text-anchor="middle" x="179" y="-222.5" font-family="Helvetica,sans-Serif" font-size="10.00" fill="#000000">vStar_psi</text>
<text text-anchor="middle" x="179" y="-211.5" font-family="Helvetica,sans-Serif" font-size="10.00" fill="#000000">uStar_psi</text>
<text text-anchor="middle" x="179" y="-200.5" font-family="Helvetica,sans-Serif" font-size="10.00" fill="#000000">...</text>
</g>
<!-- Node5 -->
<g id="node4" class="node">
<title>Node5</title>
<g id="a_node4"><a xlink:href="classproteus_1_1cpp_hsu_sed_stress.html" target="_top" xlink:title="proteus::cppHsuSedStress\&lt; 3 \&gt;">
<polygon fill="#ffffff" stroke="#000000" points="278.5,-150 278.5,-169 436.5,-169 436.5,-150 278.5,-150"/>
<text text-anchor="middle" x="357.5" y="-157" font-family="Helvetica,sans-Serif" font-size="10.00" fill="#000000">proteus::cppHsuSedStress&lt; 3 &gt;</text>
</a>
</g>
</g>
<!-- Node5&#45;&gt;Node2 -->
<g id="edge3" class="edge">
<title>Node5&#45;&gt;Node2</title>
<path fill="none" stroke="#9a32cd" stroke-dasharray="5,2" d="M446.5957,-151.5417C488.8705,-147.607 540.0718,-142.6124 586,-137.5 591.848,-136.849 597.8365,-136.1631 603.8823,-135.4552"/>
<polygon fill="#9a32cd" stroke="#9a32cd" points="446.2421,-148.0594 436.6077,-152.4671 446.888,-155.0295 446.2421,-148.0594"/>
<text text-anchor="middle" x="539" y="-149.5" font-family="Helvetica,sans-Serif" font-size="10.00" fill="#000000"> closure</text>
</g>
<!-- Node6 -->
<g id="node5" class="node">
<title>Node6</title>
<polygon fill="#ffffff" stroke="#bfbfbf" points="311.5,-72 311.5,-91 403.5,-91 403.5,-72 311.5,-72"/>
<text text-anchor="middle" x="357.5" y="-79" font-family="Helvetica,sans-Serif" font-size="10.00" fill="#000000">std::vector&lt; int &gt;</text>
</g>
<!-- Node6&#45;&gt;Node2 -->
<g id="edge4" class="edge">
<title>Node6&#45;&gt;Node2</title>
<path fill="none" stroke="#9a32cd" stroke-dasharray="5,2" d="M413.9296,-75.643C460.3933,-72.0429 527.8424,-69.6308 586,-78.5 594.3432,-79.7724 602.8803,-81.4646 611.4077,-83.4404"/>
<polygon fill="#9a32cd" stroke="#9a32cd" points="413.4415,-72.1712 403.7606,-76.4758 414.013,-79.1478 413.4415,-72.1712"/>
<text text-anchor="start" x="492" y="-125.5" font-family="Helvetica,sans-Serif" font-size="10.00" fill="#000000"> surrogate_boundary</text>
<text text-anchor="middle" x="539" y="-114.5" font-family="Helvetica,sans-Serif" font-size="10.00" fill="#000000">_elements</text>
<text text-anchor="middle" x="539" y="-103.5" font-family="Helvetica,sans-Serif" font-size="10.00" fill="#000000">surrogate_boundaries</text>
<text text-anchor="start" x="492" y="-92.5" font-family="Helvetica,sans-Serif" font-size="10.00" fill="#000000">surrogate_boundary</text>
<text text-anchor="middle" x="539" y="-81.5" font-family="Helvetica,sans-Serif" font-size="10.00" fill="#000000">_particle</text>
</g>
<!-- Node7 -->
<g id="node6" class="node">
<title>Node7</title>
<g id="a_node6"><a xlink:href="classequivalent__polynomials_1_1_generalized_functions__mix.html" target="_top" xlink:title="equivalent_polynomials\l::GeneralizedFunctions\l_mix\&lt; nSpace, 1, nQuadraturePoints\l_element, nQuadraturePoints_elementBoundary \&gt;">
<polygon fill="#ffffff" stroke="#000000" points="241,-.5 241,-52.5 474,-52.5 474,-.5 241,-.5"/>
<text text-anchor="start" x="249" y="-40.5" font-family="Helvetica,sans-Serif" font-size="10.00" fill="#000000">equivalent_polynomials</text>
<text text-anchor="start" x="249" y="-29.5" font-family="Helvetica,sans-Serif" font-size="10.00" fill="#000000">::GeneralizedFunctions</text>
<text text-anchor="start" x="249" y="-18.5" font-family="Helvetica,sans-Serif" font-size="10.00" fill="#000000">_mix&lt; nSpace, 1, nQuadraturePoints</text>
<text text-anchor="middle" x="357.5" y="-7.5" font-family="Helvetica,sans-Serif" font-size="10.00" fill="#000000">_element, nQuadraturePoints_elementBoundary &gt;</text>
</a>
</g>
</g>
<!-- Node7&#45;&gt;Node2 -->
<g id="edge5" class="edge">
<title>Node7&#45;&gt;Node2</title>
<path fill="none" stroke="#9a32cd" stroke-dasharray="5,2" d="M484.4181,-27.453C517.9873,-30.2905 553.8211,-35.6932 586,-45.5 614.004,-54.0345 642.6591,-68.9897 666.2848,-83.3115"/>
<polygon fill="#9a32cd" stroke="#9a32cd" points="484.3196,-23.935 474.0793,-26.6527 483.7794,-30.9141 484.3196,-23.935"/>
<text text-anchor="middle" x="539" y="-59.5" font-family="Helvetica,sans-Serif" font-size="10.00" fill="#000000"> gf_s</text>
<text text-anchor="middle" x="539" y="-48.5" font-family="Helvetica,sans-Serif" font-size="10.00" fill="#000000">gf</text>
</g>
</g>
</svg>
