<?xml version="1.0" encoding="UTF-8" standalone="no"?>
<!DOCTYPE svg PUBLIC "-//W3C//DTD SVG 1.1//EN"
 "http://www.w3.org/Graphics/SVG/1.1/DTD/svg11.dtd">
<!-- Generated by graphviz version 2.40.1 (20161225.0304)
 -->
<!-- Title: proteus::SW2DCV_base Pages: 1 -->
<svg width="133pt" height="150pt"
 viewBox="0.00 0.00 133.00 150.00" xmlns="http://www.w3.org/2000/svg" xmlns:xlink="http://www.w3.org/1999/xlink">
<g id="graph0" class="graph" transform="scale(1 1) rotate(0) translate(4 146)">
<title>proteus::SW2DCV_base</title>
<polygon fill="#ffffff" stroke="transparent" points="-4,4 -4,-146 129,-146 129,4 -4,4"/>
<!-- Node2 -->
<g id="node1" class="node">
<title>Node2</title>
<polygon fill="#bfbfbf" stroke="#000000" points="0,-.5 0,-19.5 125,-19.5 125,-.5 0,-.5"/>
<text text-anchor="middle" x="62.5" y="-7.5" font-family="Helvetica,sans-Serif" font-size="10.00" fill="#000000">proteus::SW2DCV_base</text>
</g>
<!-- Node3 -->
<g id="node2" class="node">
<title>Node3</title>
<polygon fill="#ffffff" stroke="#bfbfbf" points="4,-122.5 4,-141.5 121,-141.5 121,-122.5 4,-122.5"/>
<text text-anchor="middle" x="62.5" y="-129.5" font-family="Helvetica,sans-Serif" font-size="10.00" fill="#000000">std::valarray&lt; double &gt;</text>
</g>
<!-- Node3&#45;&gt;Node2 -->
<g id="edge1" class="edge">
<title>Node3&#45;&gt;Node2</title>
<path fill="none" stroke="#9a32cd" stroke-dasharray="5,2" d="M62.5,-112.3912C62.5,-85.8282 62.5,-39.4446 62.5,-19.5287"/>
<polygon fill="#9a32cd" stroke="#9a32cd" points="59.0001,-112.4268 62.5,-122.4269 66.0001,-112.4269 59.0001,-112.4268"/>
<text text-anchor="middle" x="77" y="-96" font-family="Helvetica,sans-Serif" font-size="10.00" fill="#000000"> Rpos</text>
<text text-anchor="middle" x="77" y="-85" font-family="Helvetica,sans-Serif" font-size="10.00" fill="#000000">hvLow</text>
<text text-anchor="middle" x="77" y="-74" font-family="Helvetica,sans-Serif" font-size="10.00" fill="#000000">huLow</text>
<text text-anchor="middle" x="77" y="-63" font-family="Helvetica,sans-Serif" font-size="10.00" fill="#000000">Kmax</text>
<text text-anchor="middle" x="77" y="-52" font-family="Helvetica,sans-Serif" font-size="10.00" fill="#000000">Rneg</text>
<text text-anchor="middle" x="77" y="-41" font-family="Helvetica,sans-Serif" font-size="10.00" fill="#000000">hLow</text>
</g>
</g>
</svg>
