<?xml version="1.0" encoding="UTF-8" standalone="no"?>
<!DOCTYPE svg PUBLIC "-//W3C//DTD SVG 1.1//EN"
 "http://www.w3.org/Graphics/SVG/1.1/DTD/svg11.dtd">
<!-- Generated by graphviz version 2.44.1 (20200629.0846)
 -->
<!-- Title: proteus::cppRANS3PF2D&lt; CompKernelType, nSpace, nQuadraturePoints_element, nDOF_mesh_trial_element, nDOF_trial_element, nDOF_test_element, nQuadraturePoints_elementBoundary &gt; Pages: 1 -->
<svg width="820pt" height="310pt"
 viewBox="0.00 0.00 820.00 309.50" xmlns="http://www.w3.org/2000/svg" xmlns:xlink="http://www.w3.org/1999/xlink">
<g id="graph0" class="graph" transform="scale(1 1) rotate(0) translate(4 305.5)">
<title>proteus::cppRANS3PF2D&lt; CompKernelType, nSpace, nQuadraturePoints_element, nDOF_mesh_trial_element, nDOF_trial_element, nDOF_test_element, nQuadraturePoints_elementBoundary &gt;</title>
<polygon fill="white" stroke="transparent" points="-4,4 -4,-305.5 816,-305.5 816,4 -4,4"/>
<!-- Node1 -->
<g id="node1" class="node">
<title>Node1</title>
<g id="a_node1"><a xlink:title=" ">
<polygon fill="#bfbfbf" stroke="black" points="579,-122.5 579,-196.5 812,-196.5 812,-122.5 579,-122.5"/>
<text text-anchor="start" x="587" y="-184.5" font-family="Helvetica,sans-Serif" font-size="10.00">proteus::cppRANS3PF2D</text>
<text text-anchor="start" x="587" y="-173.5" font-family="Helvetica,sans-Serif" font-size="10.00">&lt; CompKernelType, nSpace,</text>
<text text-anchor="start" x="587" y="-162.5" font-family="Helvetica,sans-Serif" font-size="10.00"> nQuadraturePoints_element,</text>
<text text-anchor="start" x="587" y="-151.5" font-family="Helvetica,sans-Serif" font-size="10.00"> nDOF_mesh_trial_element,</text>
<text text-anchor="start" x="587" y="-140.5" font-family="Helvetica,sans-Serif" font-size="10.00"> nDOF_trial_element, nDOF_test</text>
<text text-anchor="middle" x="695.5" y="-129.5" font-family="Helvetica,sans-Serif" font-size="10.00">_element, nQuadraturePoints_elementBoundary &gt;</text>
</a>
</g>
</g>
<!-- Node2 -->
<g id="node2" class="node">
<title>Node2</title>
<g id="a_node2"><a xlink:href="classproteus_1_1cpp_r_a_n_s3_p_f2_d__base.html" target="_top" xlink:title=" ">
<polygon fill="white" stroke="black" points="279,-185 279,-204 435,-204 435,-185 279,-185"/>
<text text-anchor="middle" x="357" y="-192" font-family="Helvetica,sans-Serif" font-size="10.00">proteus::cppRANS3PF2D_base</text>
</a>
</g>
</g>
<!-- Node2&#45;&gt;Node1 -->
<g id="edge1" class="edge">
<title>Node2&#45;&gt;Node1</title>
<path fill="none" stroke="midnightblue" d="M445.35,-185.41C486.03,-181.18 534.98,-176.09 578.69,-171.55"/>
<polygon fill="midnightblue" stroke="midnightblue" points="444.78,-181.95 435.2,-186.47 445.51,-188.92 444.78,-181.95"/>
</g>
<!-- Node3 -->
<g id="node3" class="node">
<title>Node3</title>
<g id="a_node3"><a xlink:title=" ">
<polygon fill="white" stroke="#bfbfbf" points="0,-208 0,-227 117,-227 117,-208 0,-208"/>
<text text-anchor="middle" x="58.5" y="-215" font-family="Helvetica,sans-Serif" font-size="10.00">std::valarray&lt; double &gt;</text>
</a>
</g>
</g>
<!-- Node3&#45;&gt;Node1 -->
<g id="edge4" class="edge">
<title>Node3&#45;&gt;Node1</title>
<path fill="none" stroke="#9a32cd" stroke-dasharray="5,2" d="M76.12,-234.12C90.37,-247.12 112.17,-264.18 135,-271.5 183.67,-287.11 199.28,-277.79 250,-271.5 364.32,-257.32 491.47,-223.37 580.39,-196.54"/>
<polygon fill="#9a32cd" stroke="#9a32cd" points="78.31,-231.38 68.65,-227.04 73.5,-236.46 78.31,-231.38"/>
<text text-anchor="middle" x="357" y="-293.5" font-family="Helvetica,sans-Serif" font-size="10.00"> TransportMatrix</text>
<text text-anchor="middle" x="357" y="-282.5" font-family="Helvetica,sans-Serif" font-size="10.00">TransposeTransportMatrix</text>
<text text-anchor="middle" x="357" y="-271.5" font-family="Helvetica,sans-Serif" font-size="10.00">psi</text>
</g>
<!-- Node3&#45;&gt;Node2 -->
<g id="edge2" class="edge">
<title>Node3&#45;&gt;Node2</title>
<path fill="none" stroke="#9a32cd" stroke-dasharray="5,2" d="M73.12,-199.55C86.73,-183.24 109.29,-160.26 135,-150.5 182.78,-132.36 204.51,-127.2 250,-150.5 262.19,-156.74 256.55,-168 268,-175.5 273.88,-179.35 280.42,-182.44 287.19,-184.91"/>
<polygon fill="#9a32cd" stroke="#9a32cd" points="70.03,-197.81 66.51,-207.81 75.49,-202.18 70.03,-197.81"/>
<text text-anchor="middle" x="192.5" y="-263.5" font-family="Helvetica,sans-Serif" font-size="10.00"> TransportMatrix</text>
<text text-anchor="middle" x="192.5" y="-252.5" font-family="Helvetica,sans-Serif" font-size="10.00">TransposeTransportMatrix</text>
<text text-anchor="middle" x="192.5" y="-241.5" font-family="Helvetica,sans-Serif" font-size="10.00">den_hi</text>
<text text-anchor="middle" x="192.5" y="-230.5" font-family="Helvetica,sans-Serif" font-size="10.00">uStar_gamma</text>
<text text-anchor="middle" x="192.5" y="-219.5" font-family="Helvetica,sans-Serif" font-size="10.00">uStar_hi</text>
<text text-anchor="middle" x="192.5" y="-208.5" font-family="Helvetica,sans-Serif" font-size="10.00">uStar_min_hiHe</text>
<text text-anchor="middle" x="192.5" y="-197.5" font-family="Helvetica,sans-Serif" font-size="10.00">uStar_psi</text>
<text text-anchor="middle" x="192.5" y="-186.5" font-family="Helvetica,sans-Serif" font-size="10.00">vStar_gamma</text>
<text text-anchor="middle" x="192.5" y="-175.5" font-family="Helvetica,sans-Serif" font-size="10.00">vStar_hi</text>
<text text-anchor="middle" x="192.5" y="-164.5" font-family="Helvetica,sans-Serif" font-size="10.00">vStar_min_hiHe</text>
<text text-anchor="middle" x="192.5" y="-153.5" font-family="Helvetica,sans-Serif" font-size="10.00">...</text>
</g>
<!-- Node4 -->
<g id="node4" class="node">
<title>Node4</title>
<g id="a_node4"><a xlink:href="classproteus_1_1cpp_hsu_sed_stress.html" target="_top" xlink:title=" ">
<polygon fill="white" stroke="black" points="278,-147 278,-166 436,-166 436,-147 278,-147"/>
<text text-anchor="middle" x="357" y="-154" font-family="Helvetica,sans-Serif" font-size="10.00">proteus::cppHsuSedStress&lt; 2 &gt;</text>
</a>
</g>
</g>
<!-- Node4&#45;&gt;Node1 -->
<g id="edge3" class="edge">
<title>Node4&#45;&gt;Node1</title>
<path fill="none" stroke="#9a32cd" stroke-dasharray="5,2" d="M446.18,-157.29C486.76,-157.65 535.44,-158.08 578.9,-158.47"/>
<polygon fill="#9a32cd" stroke="#9a32cd" points="446.08,-153.79 436.05,-157.2 446.01,-160.78 446.08,-153.79"/>
<text text-anchor="middle" x="512.5" y="-160.5" font-family="Helvetica,sans-Serif" font-size="10.00"> closure</text>
</g>
<!-- Node5 -->
<g id="node5" class="node">
<title>Node5</title>
<g id="a_node5"><a xlink:title=" ">
<polygon fill="white" stroke="#bfbfbf" points="311,-72 311,-91 403,-91 403,-72 311,-72"/>
<text text-anchor="middle" x="357" y="-79" font-family="Helvetica,sans-Serif" font-size="10.00">std::vector&lt; int &gt;</text>
</a>
</g>
</g>
<!-- Node5&#45;&gt;Node1 -->
<g id="edge5" class="edge">
<title>Node5&#45;&gt;Node1</title>
<path fill="none" stroke="#9a32cd" stroke-dasharray="5,2" d="M413.25,-80.6C454.58,-81.18 512.14,-84.67 561,-97.5 583.25,-103.34 606.35,-112.74 626.96,-122.47"/>
<polygon fill="#9a32cd" stroke="#9a32cd" points="413.14,-77.1 403.11,-80.51 413.08,-84.1 413.14,-77.1"/>
<text text-anchor="middle" x="512.5" y="-144.5" font-family="Helvetica,sans-Serif" font-size="10.00"> surrogate_boundaries</text>
<text text-anchor="start" x="464" y="-133.5" font-family="Helvetica,sans-Serif" font-size="10.00">surrogate_boundary</text>
<text text-anchor="middle" x="512.5" y="-122.5" font-family="Helvetica,sans-Serif" font-size="10.00">_elements</text>
<text text-anchor="start" x="464" y="-111.5" font-family="Helvetica,sans-Serif" font-size="10.00">surrogate_boundary</text>
<text text-anchor="middle" x="512.5" y="-100.5" font-family="Helvetica,sans-Serif" font-size="10.00">_particle</text>
</g>
<!-- Node6 -->
<g id="node6" class="node">
<title>Node6</title>
<g id="a_node6"><a xlink:href="classequivalent__polynomials_1_1_generalized_functions__mix.html" target="_top" xlink:title=" ">
<polygon fill="white" stroke="black" points="268,-0.5 268,-52.5 446,-52.5 446,-0.5 268,-0.5"/>
<text text-anchor="start" x="276" y="-40.5" font-family="Helvetica,sans-Serif" font-size="10.00">equivalent_polynomials</text>
<text text-anchor="start" x="276" y="-29.5" font-family="Helvetica,sans-Serif" font-size="10.00">::GeneralizedFunctions</text>
<text text-anchor="start" x="276" y="-18.5" font-family="Helvetica,sans-Serif" font-size="10.00">_mix&lt; nSpace, 1, nQuadraturePoints</text>
<text text-anchor="middle" x="357" y="-7.5" font-family="Helvetica,sans-Serif" font-size="10.00">_element &gt;</text>
</a>
</g>
</g>
<!-- Node6&#45;&gt;Node1 -->
<g id="edge6" class="edge">
<title>Node6&#45;&gt;Node1</title>
<path fill="none" stroke="#9a32cd" stroke-dasharray="5,2" d="M456.1,-30.86C490.32,-34.99 528.32,-42.61 561,-56.5 597.24,-71.9 632.25,-99.55 657.32,-122.33"/>
<polygon fill="#9a32cd" stroke="#9a32cd" points="456.41,-27.37 446.08,-29.74 455.63,-34.33 456.41,-27.37"/>
<text text-anchor="middle" x="512.5" y="-70.5" font-family="Helvetica,sans-Serif" font-size="10.00"> gf</text>
<text text-anchor="middle" x="512.5" y="-59.5" font-family="Helvetica,sans-Serif" font-size="10.00">gf_s</text>
</g>
</g>
</svg>
