<?xml version="1.0" encoding="UTF-8" standalone="no"?>
<!DOCTYPE svg PUBLIC "-//W3C//DTD SVG 1.1//EN"
 "http://www.w3.org/Graphics/SVG/1.1/DTD/svg11.dtd">
<!-- Generated by graphviz version 2.40.1 (20161225.0304)
 -->
<!-- Title: proteus::cppRANS3PSed2D&lt; CompKernelType, nSpace, nQuadraturePoints_element, nDOF_mesh_trial_element, nDOF_trial_element, nDOF_test_element, nQuadraturePoints_elementBoundary &gt; Pages: 1 -->
<svg width="351pt" height="150pt"
 viewBox="0.00 0.00 350.50 150.00" xmlns="http://www.w3.org/2000/svg" xmlns:xlink="http://www.w3.org/1999/xlink">
<g id="graph0" class="graph" transform="scale(1 1) rotate(0) translate(4 146)">
<title>proteus::cppRANS3PSed2D&lt; CompKernelType, nSpace, nQuadraturePoints_element, nDOF_mesh_trial_element, nDOF_trial_element, nDOF_test_element, nQuadraturePoints_elementBoundary &gt;</title>
<polygon fill="#ffffff" stroke="transparent" points="-4,4 -4,-146 346.5,-146 346.5,4 -4,4"/>
<!-- Node2 -->
<g id="node1" class="node">
<title>Node2</title>
<polygon fill="#bfbfbf" stroke="#000000" points="57,-.5 57,-74.5 290,-74.5 290,-.5 57,-.5"/>
<text text-anchor="start" x="65" y="-62.5" font-family="Helvetica,sans-Serif" font-size="10.00" fill="#000000">proteus::cppRANS3PSed2D</text>
<text text-anchor="start" x="65" y="-51.5" font-family="Helvetica,sans-Serif" font-size="10.00" fill="#000000">&lt; CompKernelType, nSpace,</text>
<text text-anchor="start" x="65" y="-40.5" font-family="Helvetica,sans-Serif" font-size="10.00" fill="#000000"> nQuadraturePoints_element,</text>
<text text-anchor="start" x="65" y="-29.5" font-family="Helvetica,sans-Serif" font-size="10.00" fill="#000000"> nDOF_mesh_trial_element,</text>
<text text-anchor="start" x="65" y="-18.5" font-family="Helvetica,sans-Serif" font-size="10.00" fill="#000000"> nDOF_trial_element, nDOF_test</text>
<text text-anchor="middle" x="173.5" y="-7.5" font-family="Helvetica,sans-Serif" font-size="10.00" fill="#000000">_element, nQuadraturePoints_elementBoundary &gt;</text>
</g>
<!-- Node3 -->
<g id="node2" class="node">
<title>Node3</title>
<g id="a_node2"><a xlink:href="classproteus_1_1cpp_r_a_n_s3_p_sed2_d__base.html" target="_top" xlink:title="proteus::cppRANS3PSed2D_base">
<polygon fill="#ffffff" stroke="#000000" points="0,-122.5 0,-141.5 167,-141.5 167,-122.5 0,-122.5"/>
<text text-anchor="middle" x="83.5" y="-129.5" font-family="Helvetica,sans-Serif" font-size="10.00" fill="#000000">proteus::cppRANS3PSed2D_base</text>
</a>
</g>
</g>
<!-- Node3&#45;&gt;Node2 -->
<g id="edge1" class="edge">
<title>Node3&#45;&gt;Node2</title>
<path fill="none" stroke="#191970" d="M99.845,-114.8377C110.5194,-103.6296 124.8772,-88.5539 138.081,-74.6899"/>
<polygon fill="#191970" stroke="#191970" points="97.1547,-112.5876 92.7926,-122.2428 102.2237,-117.4152 97.1547,-112.5876"/>
</g>
<!-- Node4 -->
<g id="node3" class="node">
<title>Node4</title>
<g id="a_node3"><a xlink:href="classproteus_1_1cpp_hsu_sed_stress.html" target="_top" xlink:title="proteus::cppHsuSedStress\&lt; 2 \&gt;">
<polygon fill="#ffffff" stroke="#000000" points="184.5,-122.5 184.5,-141.5 342.5,-141.5 342.5,-122.5 184.5,-122.5"/>
<text text-anchor="middle" x="263.5" y="-129.5" font-family="Helvetica,sans-Serif" font-size="10.00" fill="#000000">proteus::cppHsuSedStress&lt; 2 &gt;</text>
</a>
</g>
</g>
<!-- Node4&#45;&gt;Node2 -->
<g id="edge2" class="edge">
<title>Node4&#45;&gt;Node2</title>
<path fill="none" stroke="#9a32cd" stroke-dasharray="5,2" d="M247.155,-114.8377C236.4806,-103.6296 222.1228,-88.5539 208.919,-74.6899"/>
<polygon fill="#9a32cd" stroke="#9a32cd" points="244.7763,-117.4152 254.2074,-122.2428 249.8453,-112.5876 244.7763,-117.4152"/>
<text text-anchor="middle" x="251" y="-96" font-family="Helvetica,sans-Serif" font-size="10.00" fill="#000000"> closure</text>
</g>
</g>
</svg>
