<?xml version="1.0" encoding="UTF-8" standalone="no"?>
<!DOCTYPE svg PUBLIC "-//W3C//DTD SVG 1.1//EN"
 "http://www.w3.org/Graphics/SVG/1.1/DTD/svg11.dtd">
<!-- Generated by graphviz version 2.50.0 (20211204.2007)
 -->
<!-- Title: proteus::cADR&lt; CompKernelType, nSpace, nQuadraturePoints_element, nDOF_mesh_trial_element, nDOF_trial_element, nDOF_test_element, nQuadraturePoints_elementBoundary &gt; Pages: 1 -->
<svg width="601pt" height="188pt"
 viewBox="0.00 0.00 601.00 188.00" xmlns="http://www.w3.org/2000/svg" xmlns:xlink="http://www.w3.org/1999/xlink">
<g id="graph0" class="graph" transform="scale(1 1) rotate(0) translate(4 184)">
<title>proteus::cADR&lt; CompKernelType, nSpace, nQuadraturePoints_element, nDOF_mesh_trial_element, nDOF_trial_element, nDOF_test_element, nQuadraturePoints_elementBoundary &gt;</title>
<polygon fill="white" stroke="transparent" points="-4,4 -4,-184 597,-184 597,4 -4,4"/>
<!-- Node1 -->
<g id="node1" class="node">
<title>Node1</title>
<g id="a_node1"><a xlink:title=" ">
<polygon fill="#bfbfbf" stroke="black" points="390,-49.5 390,-112.5 593,-112.5 593,-49.5 390,-49.5"/>
<text text-anchor="start" x="398" y="-100.5" font-family="Helvetica,sans-Serif" font-size="10.00">proteus::cADR&lt; CompKernel</text>
<text text-anchor="start" x="398" y="-89.5" font-family="Helvetica,sans-Serif" font-size="10.00">Type, nSpace, nQuadraturePoints</text>
<text text-anchor="start" x="398" y="-78.5" font-family="Helvetica,sans-Serif" font-size="10.00">_element, nDOF_mesh_trial_element,</text>
<text text-anchor="start" x="398" y="-67.5" font-family="Helvetica,sans-Serif" font-size="10.00"> nDOF_trial_element, nDOF_test_element,</text>
<text text-anchor="middle" x="491.5" y="-56.5" font-family="Helvetica,sans-Serif" font-size="10.00"> nQuadraturePoints_elementBoundary &gt;</text>
</a>
</g>
</g>
<!-- Node2 -->
<g id="node2" class="node">
<title>Node2</title>
<g id="a_node2"><a xlink:href="classproteus_1_1c_a_d_r__base.html" target="_top" xlink:title=" ">
<polygon fill="white" stroke="black" points="62.5,-160.5 62.5,-179.5 170.5,-179.5 170.5,-160.5 62.5,-160.5"/>
<text text-anchor="middle" x="116.5" y="-167.5" font-family="Helvetica,sans-Serif" font-size="10.00">proteus::cADR_base</text>
</a>
</g>
</g>
<!-- Node2&#45;&gt;Node1 -->
<g id="edge1" class="edge">
<title>Node2&#45;&gt;Node1</title>
<path fill="none" stroke="midnightblue" d="M180.97,-163.79C232.98,-157.75 308.15,-146.83 372,-129 387.82,-124.58 404.4,-118.71 419.97,-112.59"/>
<polygon fill="midnightblue" stroke="midnightblue" points="180.43,-160.33 170.89,-164.94 181.22,-167.29 180.43,-160.33"/>
</g>
<!-- Node3 -->
<g id="node3" class="node">
<title>Node3</title>
<g id="a_node3"><a xlink:href="classequivalent__polynomials_1_1_generalized_functions__mix.html" target="_top" xlink:title=" ">
<polygon fill="white" stroke="black" points="0,-89 0,-141 233,-141 233,-89 0,-89"/>
<text text-anchor="start" x="8" y="-129" font-family="Helvetica,sans-Serif" font-size="10.00">equivalent_polynomials</text>
<text text-anchor="start" x="8" y="-118" font-family="Helvetica,sans-Serif" font-size="10.00">::GeneralizedFunctions</text>
<text text-anchor="start" x="8" y="-107" font-family="Helvetica,sans-Serif" font-size="10.00">_mix&lt; nSpace, 3, nQuadraturePoints</text>
<text text-anchor="middle" x="116.5" y="-96" font-family="Helvetica,sans-Serif" font-size="10.00">_element, nQuadraturePoints_elementBoundary &gt;</text>
</a>
</g>
</g>
<!-- Node3&#45;&gt;Node1 -->
<g id="edge2" class="edge">
<title>Node3&#45;&gt;Node1</title>
<path fill="none" stroke="#9a32cd" stroke-dasharray="5,2" d="M243.2,-104.5C284.27,-100.97 330.09,-96.93 372,-93 377.87,-92.45 383.9,-91.87 389.98,-91.28"/>
<polygon fill="#9a32cd" stroke="#9a32cd" points="242.8,-101.02 233.14,-105.36 243.4,-108 242.8,-101.02"/>
<text text-anchor="middle" x="311.5" y="-117" font-family="Helvetica,sans-Serif" font-size="10.00"> gf</text>
<text text-anchor="middle" x="311.5" y="-106" font-family="Helvetica,sans-Serif" font-size="10.00">gf_s</text>
</g>
<!-- Node4 -->
<g id="node4" class="node">
<title>Node4</title>
<g id="a_node4"><a xlink:title=" ">
<polygon fill="white" stroke="#bfbfbf" points="77.5,-38.5 77.5,-57.5 155.5,-57.5 155.5,-38.5 77.5,-38.5"/>
<text text-anchor="middle" x="116.5" y="-45.5" font-family="Helvetica,sans-Serif" font-size="10.00">std::set&lt; int &gt;</text>
</a>
</g>
</g>
<!-- Node4&#45;&gt;Node1 -->
<g id="edge3" class="edge">
<title>Node4&#45;&gt;Node1</title>
<path fill="none" stroke="#9a32cd" stroke-dasharray="5,2" d="M165.8,-44.48C217.18,-41.61 300.72,-39.4 372,-49 377.81,-49.78 383.74,-50.77 389.69,-51.9"/>
<polygon fill="#9a32cd" stroke="#9a32cd" points="165.43,-41 155.66,-45.08 165.84,-47.99 165.43,-41"/>
<text text-anchor="middle" x="311.5" y="-85" font-family="Helvetica,sans-Serif" font-size="10.00"> cutfem_boundaries</text>
<text text-anchor="middle" x="311.5" y="-74" font-family="Helvetica,sans-Serif" font-size="10.00">cutfem_boundary_elements</text>
<text text-anchor="middle" x="311.5" y="-63" font-family="Helvetica,sans-Serif" font-size="10.00">ifem_boundaries</text>
<text text-anchor="middle" x="311.5" y="-52" font-family="Helvetica,sans-Serif" font-size="10.00">ifem_boundary_elements</text>
</g>
<!-- Node5 -->
<g id="node5" class="node">
<title>Node5</title>
<g id="a_node5"><a xlink:title=" ">
<polygon fill="white" stroke="#bfbfbf" points="63,-0.5 63,-19.5 170,-19.5 170,-0.5 63,-0.5"/>
<text text-anchor="middle" x="116.5" y="-7.5" font-family="Helvetica,sans-Serif" font-size="10.00">std::valarray&lt; bool &gt;</text>
</a>
</g>
</g>
<!-- Node5&#45;&gt;Node1 -->
<g id="edge4" class="edge">
<title>Node5&#45;&gt;Node1</title>
<path fill="none" stroke="#9a32cd" stroke-dasharray="5,2" d="M180.1,-8.4C232.21,-8.49 307.95,-11.95 372,-28 391.78,-32.96 412.39,-41.04 430.76,-49.41"/>
<polygon fill="#9a32cd" stroke="#9a32cd" points="179.99,-4.9 170,-8.42 180.01,-11.9 179.99,-4.9"/>
<text text-anchor="middle" x="311.5" y="-31" font-family="Helvetica,sans-Serif" font-size="10.00"> elementIsActive</text>
</g>
</g>
</svg>
