<?xml version="1.0" encoding="UTF-8" standalone="no"?>
<!DOCTYPE svg PUBLIC "-//W3C//DTD SVG 1.1//EN"
 "http://www.w3.org/Graphics/SVG/1.1/DTD/svg11.dtd">
<!-- Generated by graphviz version 2.44.1 (20200629.0846)
 -->
<!-- Title: proteus::MoveMesh2D&lt; CompKernelType, nSpace, nQuadraturePoints_element, nDOF_mesh_trial_element, nDOF_trial_element, nDOF_test_element, nQuadraturePoints_elementBoundary &gt; Pages: 1 -->
<svg width="266pt" height="150pt"
 viewBox="0.00 0.00 266.00 150.00" xmlns="http://www.w3.org/2000/svg" xmlns:xlink="http://www.w3.org/1999/xlink">
<g id="graph0" class="graph" transform="scale(1 1) rotate(0) translate(4 146)">
<title>proteus::MoveMesh2D&lt; CompKernelType, nSpace, nQuadraturePoints_element, nDOF_mesh_trial_element, nDOF_trial_element, nDOF_test_element, nQuadraturePoints_elementBoundary &gt;</title>
<polygon fill="white" stroke="transparent" points="-4,4 -4,-146 262,-146 262,4 -4,4"/>
<!-- Node1 -->
<g id="node1" class="node">
<title>Node1</title>
<g id="a_node1"><a xlink:title=" ">
<polygon fill="#bfbfbf" stroke="black" points="23.5,-0.5 23.5,-74.5 256.5,-74.5 256.5,-0.5 23.5,-0.5"/>
<text text-anchor="start" x="31.5" y="-62.5" font-family="Helvetica,sans-Serif" font-size="10.00">proteus::MoveMesh2D</text>
<text text-anchor="start" x="31.5" y="-51.5" font-family="Helvetica,sans-Serif" font-size="10.00">&lt; CompKernelType, nSpace,</text>
<text text-anchor="start" x="31.5" y="-40.5" font-family="Helvetica,sans-Serif" font-size="10.00"> nQuadraturePoints_element,</text>
<text text-anchor="start" x="31.5" y="-29.5" font-family="Helvetica,sans-Serif" font-size="10.00"> nDOF_mesh_trial_element,</text>
<text text-anchor="start" x="31.5" y="-18.5" font-family="Helvetica,sans-Serif" font-size="10.00"> nDOF_trial_element, nDOF_test</text>
<text text-anchor="middle" x="140" y="-7.5" font-family="Helvetica,sans-Serif" font-size="10.00">_element, nQuadraturePoints_elementBoundary &gt;</text>
</a>
</g>
</g>
<!-- Node2 -->
<g id="node2" class="node">
<title>Node2</title>
<g id="a_node2"><a xlink:href="classproteus_1_1_move_mesh2_d__base.html" target="_top" xlink:title=" ">
<polygon fill="white" stroke="black" points="0,-122.5 0,-141.5 142,-141.5 142,-122.5 0,-122.5"/>
<text text-anchor="middle" x="71" y="-129.5" font-family="Helvetica,sans-Serif" font-size="10.00">proteus::MoveMesh2D_base</text>
</a>
</g>
</g>
<!-- Node2&#45;&gt;Node1 -->
<g id="edge1" class="edge">
<title>Node2&#45;&gt;Node1</title>
<path fill="none" stroke="midnightblue" d="M83.5,-114.25C91.69,-103.27 102.71,-88.48 112.85,-74.89"/>
<polygon fill="midnightblue" stroke="midnightblue" points="80.54,-112.36 77.37,-122.46 86.15,-116.54 80.54,-112.36"/>
</g>
<!-- Node3 -->
<g id="node3" class="node">
<title>Node3</title>
<g id="a_node3"><a xlink:href="class_e_index.html" target="_top" xlink:title=" ">
<polygon fill="white" stroke="black" points="160,-122.5 160,-141.5 258,-141.5 258,-122.5 160,-122.5"/>
<text text-anchor="middle" x="209" y="-129.5" font-family="Helvetica,sans-Serif" font-size="10.00">EIndex&lt; nSpace &gt;</text>
</a>
</g>
</g>
<!-- Node3&#45;&gt;Node1 -->
<g id="edge2" class="edge">
<title>Node3&#45;&gt;Node1</title>
<path fill="none" stroke="#9a32cd" stroke-dasharray="5,2" d="M196.5,-114.25C188.31,-103.27 177.29,-88.48 167.15,-74.89"/>
<polygon fill="#9a32cd" stroke="#9a32cd" points="193.85,-116.54 202.63,-122.46 199.46,-112.36 193.85,-116.54"/>
<text text-anchor="middle" x="193.5" y="-96" font-family="Helvetica,sans-Serif" font-size="10.00"> ei</text>
</g>
</g>
</svg>
