<?xml version="1.0" encoding="UTF-8" standalone="no"?>
<!DOCTYPE svg PUBLIC "-//W3C//DTD SVG 1.1//EN"
 "http://www.w3.org/Graphics/SVG/1.1/DTD/svg11.dtd">
<!-- Generated by graphviz version 2.40.1 (20161225.0304)
 -->
<!-- Title: proteus::ElastoPlastic&lt; CompKernelType, nSpace, nQuadraturePoints_element, nDOF_mesh_trial_element, nDOF_trial_element, nDOF_test_element, nQuadraturePoints_elementBoundary &gt; Pages: 1 -->
<svg width="264pt" height="150pt"
 viewBox="0.00 0.00 263.50 150.00" xmlns="http://www.w3.org/2000/svg" xmlns:xlink="http://www.w3.org/1999/xlink">
<g id="graph0" class="graph" transform="scale(1 1) rotate(0) translate(4 146)">
<title>proteus::ElastoPlastic&lt; CompKernelType, nSpace, nQuadraturePoints_element, nDOF_mesh_trial_element, nDOF_trial_element, nDOF_test_element, nQuadraturePoints_elementBoundary &gt;</title>
<polygon fill="#ffffff" stroke="transparent" points="-4,4 -4,-146 259.5,-146 259.5,4 -4,4"/>
<!-- Node2 -->
<g id="node1" class="node">
<title>Node2</title>
<polygon fill="#bfbfbf" stroke="#000000" points="21,-.5 21,-74.5 254,-74.5 254,-.5 21,-.5"/>
<text text-anchor="start" x="29" y="-62.5" font-family="Helvetica,sans-Serif" font-size="10.00" fill="#000000">proteus::ElastoPlastic</text>
<text text-anchor="start" x="29" y="-51.5" font-family="Helvetica,sans-Serif" font-size="10.00" fill="#000000">&lt; CompKernelType, nSpace,</text>
<text text-anchor="start" x="29" y="-40.5" font-family="Helvetica,sans-Serif" font-size="10.00" fill="#000000"> nQuadraturePoints_element,</text>
<text text-anchor="start" x="29" y="-29.5" font-family="Helvetica,sans-Serif" font-size="10.00" fill="#000000"> nDOF_mesh_trial_element,</text>
<text text-anchor="start" x="29" y="-18.5" font-family="Helvetica,sans-Serif" font-size="10.00" fill="#000000"> nDOF_trial_element, nDOF_test</text>
<text text-anchor="middle" x="137.5" y="-7.5" font-family="Helvetica,sans-Serif" font-size="10.00" fill="#000000">_element, nQuadraturePoints_elementBoundary &gt;</text>
</g>
<!-- Node3 -->
<g id="node2" class="node">
<title>Node3</title>
<g id="a_node2"><a xlink:href="classproteus_1_1_elasto_plastic__base.html" target="_top" xlink:title="proteus::ElastoPlastic_base">
<polygon fill="#ffffff" stroke="#000000" points="0,-122.5 0,-141.5 139,-141.5 139,-122.5 0,-122.5"/>
<text text-anchor="middle" x="69.5" y="-129.5" font-family="Helvetica,sans-Serif" font-size="10.00" fill="#000000">proteus::ElastoPlastic_base</text>
</a>
</g>
</g>
<!-- Node3&#45;&gt;Node2 -->
<g id="edge1" class="edge">
<title>Node3&#45;&gt;Node2</title>
<path fill="none" stroke="#191970" d="M82.5613,-113.8487C90.5459,-102.7525 101.0534,-88.1501 110.739,-74.6899"/>
<polygon fill="#191970" stroke="#191970" points="79.521,-112.0815 76.5211,-122.2428 85.2028,-116.1701 79.521,-112.0815"/>
</g>
<!-- Node4 -->
<g id="node3" class="node">
<title>Node4</title>
<g id="a_node3"><a xlink:href="class_e_index.html" target="_top" xlink:title="EIndex\&lt; nSpace \&gt;">
<polygon fill="#ffffff" stroke="#000000" points="157.5,-122.5 157.5,-141.5 255.5,-141.5 255.5,-122.5 157.5,-122.5"/>
<text text-anchor="middle" x="206.5" y="-129.5" font-family="Helvetica,sans-Serif" font-size="10.00" fill="#000000">EIndex&lt; nSpace &gt;</text>
</a>
</g>
</g>
<!-- Node4&#45;&gt;Node2 -->
<g id="edge2" class="edge">
<title>Node4&#45;&gt;Node2</title>
<path fill="none" stroke="#9a32cd" stroke-dasharray="5,2" d="M193.2466,-113.8487C185.1447,-102.7525 174.4826,-88.1501 164.6546,-74.6899"/>
<polygon fill="#9a32cd" stroke="#9a32cd" points="190.652,-116.2304 199.3757,-122.2428 196.3054,-112.1025 190.652,-116.2304"/>
<text text-anchor="middle" x="189" y="-96" font-family="Helvetica,sans-Serif" font-size="10.00" fill="#000000"> ei</text>
</g>
</g>
</svg>
