<?xml version="1.0" encoding="UTF-8" standalone="no"?>
<!DOCTYPE svg PUBLIC "-//W3C//DTD SVG 1.1//EN"
 "http://www.w3.org/Graphics/SVG/1.1/DTD/svg11.dtd">
<!-- Generated by graphviz version 2.40.1 (20161225.0304)
 -->
<!-- Title: proteus::CLSVOF_base Pages: 1 -->
<svg width="160pt" height="117pt"
 viewBox="0.00 0.00 159.50 117.00" xmlns="http://www.w3.org/2000/svg" xmlns:xlink="http://www.w3.org/1999/xlink">
<g id="graph0" class="graph" transform="scale(1 1) rotate(0) translate(4 113)">
<title>proteus::CLSVOF_base</title>
<polygon fill="#ffffff" stroke="transparent" points="-4,4 -4,-113 155.5,-113 155.5,4 -4,4"/>
<!-- Node2 -->
<g id="node1" class="node">
<title>Node2</title>
<polygon fill="#bfbfbf" stroke="#000000" points="0,-.5 0,-19.5 121,-19.5 121,-.5 0,-.5"/>
<text text-anchor="middle" x="60.5" y="-7.5" font-family="Helvetica,sans-Serif" font-size="10.00" fill="#000000">proteus::CLSVOF_base</text>
</g>
<!-- Node3 -->
<g id="node2" class="node">
<title>Node3</title>
<polygon fill="#ffffff" stroke="#bfbfbf" points="2,-89.5 2,-108.5 119,-108.5 119,-89.5 2,-89.5"/>
<text text-anchor="middle" x="60.5" y="-96.5" font-family="Helvetica,sans-Serif" font-size="10.00" fill="#000000">std::valarray&lt; double &gt;</text>
</g>
<!-- Node3&#45;&gt;Node2 -->
<g id="edge1" class="edge">
<title>Node3&#45;&gt;Node2</title>
<path fill="none" stroke="#9a32cd" stroke-dasharray="5,2" d="M60.5,-79.2379C60.5,-60.7654 60.5,-33.957 60.5,-19.7259"/>
<polygon fill="#9a32cd" stroke="#9a32cd" points="57.0001,-79.4754 60.5,-89.4754 64.0001,-79.4755 57.0001,-79.4754"/>
<text text-anchor="middle" x="106" y="-63" font-family="Helvetica,sans-Serif" font-size="10.00" fill="#000000"> Rpos</text>
<text text-anchor="middle" x="106" y="-52" font-family="Helvetica,sans-Serif" font-size="10.00" fill="#000000">FluxCorrectionMatrix</text>
<text text-anchor="middle" x="106" y="-41" font-family="Helvetica,sans-Serif" font-size="10.00" fill="#000000">Rneg</text>
</g>
</g>
</svg>
