<?xml version="1.0" encoding="UTF-8" standalone="no"?>
<!DOCTYPE svg PUBLIC "-//W3C//DTD SVG 1.1//EN"
 "http://www.w3.org/Graphics/SVG/1.1/DTD/svg11.dtd">
<!-- Generated by graphviz version 2.50.0 (20211204.2007)
 -->
<!-- Title: proteus::NCLS_base Pages: 1 -->
<svg width="182pt" height="205pt"
 viewBox="0.00 0.00 181.50 205.00" xmlns="http://www.w3.org/2000/svg" xmlns:xlink="http://www.w3.org/1999/xlink">
<g id="graph0" class="graph" transform="scale(1 1) rotate(0) translate(4 201)">
<title>proteus::NCLS_base</title>
<polygon fill="white" stroke="transparent" points="-4,4 -4,-201 177.5,-201 177.5,4 -4,4"/>
<!-- Node1 -->
<g id="node1" class="node">
<title>Node1</title>
<g id="a_node1"><a xlink:title=" ">
<polygon fill="#bfbfbf" stroke="black" points="4.5,-0.5 4.5,-19.5 112.5,-19.5 112.5,-0.5 4.5,-0.5"/>
<text text-anchor="middle" x="58.5" y="-7.5" font-family="Helvetica,sans-Serif" font-size="10.00">proteus::NCLS_base</text>
</a>
</g>
</g>
<!-- Node2 -->
<g id="node2" class="node">
<title>Node2</title>
<g id="a_node2"><a xlink:title=" ">
<polygon fill="white" stroke="#bfbfbf" points="0,-177.5 0,-196.5 117,-196.5 117,-177.5 0,-177.5"/>
<text text-anchor="middle" x="58.5" y="-184.5" font-family="Helvetica,sans-Serif" font-size="10.00">std::valarray&lt; double &gt;</text>
</a>
</g>
</g>
<!-- Node2&#45;&gt;Node1 -->
<g id="edge1" class="edge">
<title>Node2&#45;&gt;Node1</title>
<path fill="none" stroke="#9a32cd" stroke-dasharray="5,2" d="M58.5,-166.95C58.5,-129.3 58.5,-46.65 58.5,-19.69"/>
<polygon fill="#9a32cd" stroke="#9a32cd" points="55,-167.08 58.5,-177.08 62,-167.08 55,-167.08"/>
<text text-anchor="middle" x="116" y="-151" font-family="Helvetica,sans-Serif" font-size="10.00"> L2_norm_per_node</text>
<text text-anchor="middle" x="116" y="-140" font-family="Helvetica,sans-Serif" font-size="10.00">TransportMatrix</text>
<text text-anchor="middle" x="116" y="-129" font-family="Helvetica,sans-Serif" font-size="10.00">TransposeTransportMatrix</text>
<text text-anchor="middle" x="116" y="-118" font-family="Helvetica,sans-Serif" font-size="10.00">alpha_denominator_neg</text>
<text text-anchor="middle" x="116" y="-107" font-family="Helvetica,sans-Serif" font-size="10.00">alpha_denominator_pos</text>
<text text-anchor="middle" x="116" y="-96" font-family="Helvetica,sans-Serif" font-size="10.00">alpha_numerator_neg</text>
<text text-anchor="middle" x="116" y="-85" font-family="Helvetica,sans-Serif" font-size="10.00">alpha_numerator_pos</text>
<text text-anchor="middle" x="116" y="-74" font-family="Helvetica,sans-Serif" font-size="10.00">eta</text>
<text text-anchor="middle" x="116" y="-63" font-family="Helvetica,sans-Serif" font-size="10.00">etaMax</text>
<text text-anchor="middle" x="116" y="-52" font-family="Helvetica,sans-Serif" font-size="10.00">etaMin</text>
<text text-anchor="middle" x="116" y="-41" font-family="Helvetica,sans-Serif" font-size="10.00">...</text>
</g>
</g>
</svg>
