<?xml version="1.0" encoding="UTF-8" standalone="no"?>
<!DOCTYPE svg PUBLIC "-//W3C//DTD SVG 1.1//EN"
 "http://www.w3.org/Graphics/SVG/1.1/DTD/svg11.dtd">
<!-- Generated by graphviz version 2.50.0 (20211204.2007)
 -->
<!-- Title: PlanarStraightLineGraphDomain Pages: 1 -->
<svg width="672pt" height="410pt"
 viewBox="0.00 0.00 672.00 409.50" xmlns="http://www.w3.org/2000/svg" xmlns:xlink="http://www.w3.org/1999/xlink">
<g id="graph0" class="graph" transform="scale(1 1) rotate(0) translate(4 405.5)">
<title>PlanarStraightLineGraphDomain</title>
<polygon fill="white" stroke="transparent" points="-4,4 -4,-405.5 668,-405.5 668,4 -4,4"/>
<!-- Node1 -->
<g id="node1" class="node">
<title>Node1</title>
<g id="a_node1"><a xlink:title=" ">
<polygon fill="#bfbfbf" stroke="black" points="508,-246 508,-265 664,-265 664,-246 508,-246"/>
<text text-anchor="middle" x="586" y="-253" font-family="Helvetica,sans-Serif" font-size="10.00">PlanarStraightLineGraphDomain</text>
</a>
</g>
</g>
<!-- Node2 -->
<g id="node2" class="node">
<title>Node2</title>
<g id="a_node2"><a xlink:href="class_d__base.html" target="_top" xlink:title=" ">
<polygon fill="white" stroke="black" points="348.5,-337 348.5,-356 398.5,-356 398.5,-337 348.5,-337"/>
<text text-anchor="middle" x="373.5" y="-344" font-family="Helvetica,sans-Serif" font-size="10.00">D_base</text>
</a>
</g>
</g>
<!-- Node2&#45;&gt;Node1 -->
<g id="edge1" class="edge">
<title>Node2&#45;&gt;Node1</title>
<path fill="none" stroke="midnightblue" d="M406.06,-332.85C449.16,-314.22 525.33,-281.3 562.85,-265.07"/>
<polygon fill="midnightblue" stroke="midnightblue" points="404.42,-329.75 396.63,-336.93 407.2,-336.18 404.42,-329.75"/>
</g>
<!-- Node3 -->
<g id="node3" class="node">
<title>Node3</title>
<g id="a_node3"><a xlink:title="STL class.">
<polygon fill="white" stroke="#bfbfbf" points="157,-365 157,-384 217,-384 217,-365 157,-365"/>
<text text-anchor="middle" x="187" y="-372" font-family="Helvetica,sans-Serif" font-size="10.00">std::string</text>
</a>
</g>
</g>
<!-- Node3&#45;&gt;Node2 -->
<g id="edge2" class="edge">
<title>Node3&#45;&gt;Node2</title>
<path fill="none" stroke="#9a32cd" stroke-dasharray="5,2" d="M226.96,-362.15C237.58,-359.2 249.15,-356.37 260,-354.5 290.1,-349.3 325.29,-347.47 348.19,-346.83"/>
<polygon fill="#9a32cd" stroke="#9a32cd" points="225.76,-358.85 217.12,-364.98 227.7,-365.58 225.76,-358.85"/>
<text text-anchor="middle" x="281.5" y="-368.5" font-family="Helvetica,sans-Serif" font-size="10.00"> name</text>
<text text-anchor="middle" x="281.5" y="-357.5" font-family="Helvetica,sans-Serif" font-size="10.00">units</text>
</g>
<!-- Node9 -->
<g id="node9" class="node">
<title>Node9</title>
<g id="a_node9"><a xlink:title=" ">
<polygon fill="white" stroke="#bfbfbf" points="321,-382 321,-401 426,-401 426,-382 321,-382"/>
<text text-anchor="middle" x="373.5" y="-389" font-family="Helvetica,sans-Serif" font-size="10.00">std::vector&lt; string &gt;</text>
</a>
</g>
</g>
<!-- Node3&#45;&gt;Node9 -->
<g id="edge10" class="edge">
<title>Node3&#45;&gt;Node9</title>
<path fill="none" stroke="#9a32cd" stroke-dasharray="5,2" d="M227.55,-378.14C254.77,-380.65 291.19,-384.01 320.72,-386.73"/>
<polygon fill="#9a32cd" stroke="#9a32cd" points="227.51,-374.63 217.23,-377.19 226.87,-381.6 227.51,-374.63"/>
<text text-anchor="middle" x="281.5" y="-387.5" font-family="Helvetica,sans-Serif" font-size="10.00"> elements</text>
</g>
<!-- Node4 -->
<g id="node4" class="node">
<title>Node4</title>
<g id="a_node4"><a xlink:title="STL class.">
<polygon fill="white" stroke="#bfbfbf" points="0,-359.5 0,-389.5 95,-389.5 95,-359.5 0,-359.5"/>
<text text-anchor="start" x="8" y="-377.5" font-family="Helvetica,sans-Serif" font-size="10.00">std::basic_string&lt;</text>
<text text-anchor="middle" x="47.5" y="-366.5" font-family="Helvetica,sans-Serif" font-size="10.00"> char &gt;</text>
</a>
</g>
</g>
<!-- Node4&#45;&gt;Node3 -->
<g id="edge3" class="edge">
<title>Node4&#45;&gt;Node3</title>
<path fill="none" stroke="midnightblue" d="M105.3,-374.5C122.98,-374.5 141.74,-374.5 156.72,-374.5"/>
<polygon fill="midnightblue" stroke="midnightblue" points="105.05,-371 95.05,-374.5 105.05,-378 105.05,-371"/>
</g>
<!-- Node5 -->
<g id="node5" class="node">
<title>Node5</title>
<g id="a_node5"><a xlink:title=" ">
<polygon fill="white" stroke="#bfbfbf" points="132,-265 132,-284 242,-284 242,-265 132,-265"/>
<text text-anchor="middle" x="187" y="-272" font-family="Helvetica,sans-Serif" font-size="10.00">std::vector&lt; double &gt;</text>
</a>
</g>
</g>
<!-- Node5&#45;&gt;Node1 -->
<g id="edge12" class="edge">
<title>Node5&#45;&gt;Node1</title>
<path fill="none" stroke="#9a32cd" stroke-dasharray="5,2" d="M252.28,-271.64C313.42,-268.89 407.99,-264.56 490,-260.5 495.77,-260.21 501.74,-259.91 507.75,-259.61"/>
<polygon fill="#9a32cd" stroke="#9a32cd" points="251.85,-268.15 242.01,-272.1 252.16,-275.15 251.85,-268.15"/>
<text text-anchor="middle" x="373.5" y="-303.5" font-family="Helvetica,sans-Serif" font-size="10.00"> h</text>
<text text-anchor="middle" x="373.5" y="-292.5" font-family="Helvetica,sans-Serif" font-size="10.00">r</text>
<text text-anchor="middle" x="373.5" y="-281.5" font-family="Helvetica,sans-Serif" font-size="10.00">regions</text>
<text text-anchor="middle" x="373.5" y="-270.5" font-family="Helvetica,sans-Serif" font-size="10.00">v</text>
</g>
<!-- Node5&#45;&gt;Node2 -->
<g id="edge4" class="edge">
<title>Node5&#45;&gt;Node2</title>
<path fill="none" stroke="#9a32cd" stroke-dasharray="5,2" d="M222.27,-287.87C258.98,-302.2 316.3,-324.57 348.48,-337.13"/>
<polygon fill="#9a32cd" stroke="#9a32cd" points="223.09,-284.44 212.5,-284.06 220.54,-290.96 223.09,-284.44"/>
<text text-anchor="middle" x="281.5" y="-332.5" font-family="Helvetica,sans-Serif" font-size="10.00"> L</text>
<text text-anchor="middle" x="281.5" y="-321.5" font-family="Helvetica,sans-Serif" font-size="10.00">x</text>
</g>
<!-- Node8 -->
<g id="node8" class="node">
<title>Node8</title>
<g id="a_node8"><a xlink:title=" ">
<polygon fill="white" stroke="#bfbfbf" points="324,-207.5 324,-237.5 423,-237.5 423,-207.5 324,-207.5"/>
<text text-anchor="start" x="332" y="-225.5" font-family="Helvetica,sans-Serif" font-size="10.00">std::vector&lt; vector</text>
<text text-anchor="middle" x="373.5" y="-214.5" font-family="Helvetica,sans-Serif" font-size="10.00">&lt; double &gt; &gt;</text>
</a>
</g>
</g>
<!-- Node5&#45;&gt;Node8 -->
<g id="edge8" class="edge">
<title>Node5&#45;&gt;Node8</title>
<path fill="none" stroke="#9a32cd" stroke-dasharray="5,2" d="M222.9,-261.61C234.61,-257.49 247.8,-253.07 260,-249.5 280.72,-243.43 303.88,-237.7 323.77,-233.09"/>
<polygon fill="#9a32cd" stroke="#9a32cd" points="221.7,-258.32 213.46,-264.97 224.06,-264.91 221.7,-258.32"/>
<text text-anchor="middle" x="281.5" y="-252.5" font-family="Helvetica,sans-Serif" font-size="10.00"> elements</text>
</g>
<!-- Node6 -->
<g id="node6" class="node">
<title>Node6</title>
<g id="a_node6"><a xlink:title=" ">
<polygon fill="white" stroke="#bfbfbf" points="324,-0.5 324,-30.5 423,-30.5 423,-0.5 324,-0.5"/>
<text text-anchor="start" x="332" y="-18.5" font-family="Helvetica,sans-Serif" font-size="10.00">std::vector&lt; vector</text>
<text text-anchor="middle" x="373.5" y="-7.5" font-family="Helvetica,sans-Serif" font-size="10.00">&lt; int &gt; &gt;</text>
</a>
</g>
</g>
<!-- Node6&#45;&gt;Node1 -->
<g id="edge5" class="edge">
<title>Node6&#45;&gt;Node1</title>
<path fill="none" stroke="#9a32cd" stroke-dasharray="5,2" d="M433.16,-18.74C452.99,-22.38 474.11,-29.37 490,-42.5 557.43,-98.2 578.7,-211.54 583.71,-245.6"/>
<polygon fill="#9a32cd" stroke="#9a32cd" points="433.67,-15.28 423.25,-17.16 432.57,-22.19 433.67,-15.28"/>
<text text-anchor="middle" x="467" y="-45.5" font-family="Helvetica,sans-Serif" font-size="10.00"> segments</text>
</g>
<!-- Node7 -->
<g id="node7" class="node">
<title>Node7</title>
<g id="a_node7"><a xlink:title=" ">
<polygon fill="white" stroke="#bfbfbf" points="141,-39 141,-58 233,-58 233,-39 141,-39"/>
<text text-anchor="middle" x="187" y="-46" font-family="Helvetica,sans-Serif" font-size="10.00">std::vector&lt; int &gt;</text>
</a>
</g>
</g>
<!-- Node7&#45;&gt;Node1 -->
<g id="edge11" class="edge">
<title>Node7&#45;&gt;Node1</title>
<path fill="none" stroke="#9a32cd" stroke-dasharray="5,2" d="M243.29,-50.75C303.47,-53.98 395.22,-61.42 426,-77.5 504.23,-118.37 562.35,-214.46 579.67,-245.58"/>
<polygon fill="#9a32cd" stroke="#9a32cd" points="243.35,-47.25 233.18,-50.23 242.99,-54.24 243.35,-47.25"/>
<text text-anchor="middle" x="373.5" y="-190.5" font-family="Helvetica,sans-Serif" font-size="10.00"> hN</text>
<text text-anchor="middle" x="373.5" y="-179.5" font-family="Helvetica,sans-Serif" font-size="10.00">nVertexAttributes</text>
<text text-anchor="middle" x="373.5" y="-168.5" font-family="Helvetica,sans-Serif" font-size="10.00">nVertices</text>
<text text-anchor="middle" x="373.5" y="-157.5" font-family="Helvetica,sans-Serif" font-size="10.00">rN</text>
<text text-anchor="middle" x="373.5" y="-146.5" font-family="Helvetica,sans-Serif" font-size="10.00">regionFlags</text>
<text text-anchor="middle" x="373.5" y="-135.5" font-family="Helvetica,sans-Serif" font-size="10.00">s</text>
<text text-anchor="middle" x="373.5" y="-124.5" font-family="Helvetica,sans-Serif" font-size="10.00">sFlags</text>
<text text-anchor="middle" x="373.5" y="-113.5" font-family="Helvetica,sans-Serif" font-size="10.00">sN</text>
<text text-anchor="middle" x="373.5" y="-102.5" font-family="Helvetica,sans-Serif" font-size="10.00">segmentFlags</text>
<text text-anchor="middle" x="373.5" y="-91.5" font-family="Helvetica,sans-Serif" font-size="10.00">vN</text>
<text text-anchor="middle" x="373.5" y="-80.5" font-family="Helvetica,sans-Serif" font-size="10.00">...</text>
</g>
<!-- Node7&#45;&gt;Node6 -->
<g id="edge6" class="edge">
<title>Node7&#45;&gt;Node6</title>
<path fill="none" stroke="#9a32cd" stroke-dasharray="5,2" d="M243.1,-38.64C268.8,-34.05 299.13,-28.62 323.96,-24.18"/>
<polygon fill="#9a32cd" stroke="#9a32cd" points="242.36,-35.22 233.13,-40.43 243.59,-42.11 242.36,-35.22"/>
<text text-anchor="middle" x="281.5" y="-38.5" font-family="Helvetica,sans-Serif" font-size="10.00"> elements</text>
</g>
<!-- Node8&#45;&gt;Node1 -->
<g id="edge7" class="edge">
<title>Node8&#45;&gt;Node1</title>
<path fill="none" stroke="#9a32cd" stroke-dasharray="5,2" d="M433.09,-230.16C451.35,-232.67 471.53,-235.57 490,-238.5 504.23,-240.76 519.62,-243.42 533.79,-245.95"/>
<polygon fill="#9a32cd" stroke="#9a32cd" points="433.55,-226.69 423.17,-228.81 432.61,-233.63 433.55,-226.69"/>
<text text-anchor="middle" x="467" y="-252.5" font-family="Helvetica,sans-Serif" font-size="10.00"> holes</text>
<text text-anchor="middle" x="467" y="-241.5" font-family="Helvetica,sans-Serif" font-size="10.00">vertices</text>
</g>
<!-- Node9&#45;&gt;Node1 -->
<g id="edge9" class="edge">
<title>Node9&#45;&gt;Node1</title>
<path fill="none" stroke="#9a32cd" stroke-dasharray="5,2" d="M404.73,-377.11C411.81,-373.5 419.25,-369.51 426,-365.5 482.55,-331.88 545.71,-285.26 572.21,-265.25"/>
<polygon fill="#9a32cd" stroke="#9a32cd" points="402.79,-374.17 395.4,-381.76 405.91,-380.43 402.79,-374.17"/>
<text text-anchor="middle" x="467" y="-354.5" font-family="Helvetica,sans-Serif" font-size="10.00"> line</text>
</g>
</g>
</svg>
