<?xml version="1.0" encoding="UTF-8" standalone="no"?>
<!DOCTYPE svg PUBLIC "-//W3C//DTD SVG 1.1//EN"
 "http://www.w3.org/Graphics/SVG/1.1/DTD/svg11.dtd">
<!-- Generated by graphviz version 2.40.1 (20161225.0304)
 -->
<!-- Title: proteus::cppPres_base Pages: 1 -->
<svg width="364pt" height="72pt"
 viewBox="0.00 0.00 364.00 72.00" xmlns="http://www.w3.org/2000/svg" xmlns:xlink="http://www.w3.org/1999/xlink">
<g id="graph0" class="graph" transform="scale(1 1) rotate(0) translate(4 68)">
<title>proteus::cppPres_base</title>
<polygon fill="#ffffff" stroke="transparent" points="-4,4 -4,-68 360,-68 360,4 -4,4"/>
<!-- Node0 -->
<g id="node1" class="node">
<title>Node0</title>
<polygon fill="#bfbfbf" stroke="#000000" points="0,-22.5 0,-41.5 117,-41.5 117,-22.5 0,-22.5"/>
<text text-anchor="middle" x="58.5" y="-29.5" font-family="Helvetica,sans-Serif" font-size="10.00" fill="#000000">proteus::cppPres_base</text>
</g>
<!-- Node1 -->
<g id="node2" class="node">
<title>Node1</title>
<g id="a_node2"><a xlink:href="classproteus_1_1cpp_pres.html" target="_top" xlink:title="proteus::cppPres\&lt; CompKernel\lType, nSpace, nQuadraturePoints\l_element, nDOF_mesh_trial_element,\l nDOF_trial_element, nDOF_test_element,\l nQuadraturePoints_elementBoundary \&gt;">
<polygon fill="#ffffff" stroke="#000000" points="153,-.5 153,-63.5 356,-63.5 356,-.5 153,-.5"/>
<text text-anchor="start" x="161" y="-51.5" font-family="Helvetica,sans-Serif" font-size="10.00" fill="#000000">proteus::cppPres&lt; CompKernel</text>
<text text-anchor="start" x="161" y="-40.5" font-family="Helvetica,sans-Serif" font-size="10.00" fill="#000000">Type, nSpace, nQuadraturePoints</text>
<text text-anchor="start" x="161" y="-29.5" font-family="Helvetica,sans-Serif" font-size="10.00" fill="#000000">_element, nDOF_mesh_trial_element,</text>
<text text-anchor="start" x="161" y="-18.5" font-family="Helvetica,sans-Serif" font-size="10.00" fill="#000000"> nDOF_trial_element, nDOF_test_element,</text>
<text text-anchor="middle" x="254.5" y="-7.5" font-family="Helvetica,sans-Serif" font-size="10.00" fill="#000000"> nQuadraturePoints_elementBoundary &gt;</text>
</a>
</g>
</g>
<!-- Node0&#45;&gt;Node1 -->
<g id="edge1" class="edge">
<title>Node0&#45;&gt;Node1</title>
<path fill="none" stroke="#191970" d="M127.289,-32C135.523,-32 144.0598,-32 152.6361,-32"/>
<polygon fill="#191970" stroke="#191970" points="127.041,-28.5001 117.041,-32 127.0409,-35.5001 127.041,-28.5001"/>
</g>
</g>
</svg>
