<?xml version="1.0" encoding="UTF-8" standalone="no"?>
<!DOCTYPE svg PUBLIC "-//W3C//DTD SVG 1.1//EN"
 "http://www.w3.org/Graphics/SVG/1.1/DTD/svg11.dtd">
<!-- Generated by graphviz version 2.43.0 (0)
 -->
<!-- Title: proteus::cppRANS3PF2D&lt; CompKernelType, nSpace, nQuadraturePoints_element, nDOF_mesh_trial_element, nDOF_trial_element, nDOF_test_element, nQuadraturePoints_elementBoundary &gt; Pages: 1 -->
<svg width="940pt" height="315pt"
 viewBox="0.00 0.00 940.00 314.50" xmlns="http://www.w3.org/2000/svg" xmlns:xlink="http://www.w3.org/1999/xlink">
<g id="graph0" class="graph" transform="scale(1 1) rotate(0) translate(4 310.5)">
<title>proteus::cppRANS3PF2D&lt; CompKernelType, nSpace, nQuadraturePoints_element, nDOF_mesh_trial_element, nDOF_trial_element, nDOF_test_element, nQuadraturePoints_elementBoundary &gt;</title>
<polygon fill="white" stroke="transparent" points="-4,4 -4,-310.5 936,-310.5 936,4 -4,4"/>
<!-- Node1 -->
<g id="node1" class="node">
<title>Node1</title>
<g id="a_node1"><a xlink:title=" ">
<polygon fill="#bfbfbf" stroke="black" points="669,-122.5 669,-196.5 932,-196.5 932,-122.5 669,-122.5"/>
<text text-anchor="start" x="677" y="-184.5" font-family="Helvetica,sans-Serif" font-size="10.00">proteus::cppRANS3PF2D</text>
<text text-anchor="start" x="677" y="-173.5" font-family="Helvetica,sans-Serif" font-size="10.00">&lt; CompKernelType, nSpace,</text>
<text text-anchor="start" x="677" y="-162.5" font-family="Helvetica,sans-Serif" font-size="10.00"> nQuadraturePoints_element,</text>
<text text-anchor="start" x="677" y="-151.5" font-family="Helvetica,sans-Serif" font-size="10.00"> nDOF_mesh_trial_element,</text>
<text text-anchor="start" x="677" y="-140.5" font-family="Helvetica,sans-Serif" font-size="10.00"> nDOF_trial_element, nDOF_test</text>
<text text-anchor="middle" x="800.5" y="-129.5" font-family="Helvetica,sans-Serif" font-size="10.00">_element, nQuadraturePoints_elementBoundary &gt;</text>
</a>
</g>
</g>
<!-- Node2 -->
<g id="node2" class="node">
<title>Node2</title>
<g id="a_node2"><a xlink:href="classproteus_1_1cpp_r_a_n_s3_p_f2_d__base.html" target="_top" xlink:title=" ">
<polygon fill="white" stroke="black" points="313.5,-185 313.5,-204 477.5,-204 477.5,-185 313.5,-185"/>
<text text-anchor="middle" x="395.5" y="-192" font-family="Helvetica,sans-Serif" font-size="10.00">proteus::cppRANS3PF2D_base</text>
</a>
</g>
</g>
<!-- Node2&#45;&gt;Node1 -->
<g id="edge1" class="edge">
<title>Node2&#45;&gt;Node1</title>
<path fill="none" stroke="midnightblue" d="M487.75,-186.64C536.24,-182.45 596.86,-177.21 651,-172.5 656.8,-172 662.73,-171.48 668.72,-170.96"/>
<polygon fill="midnightblue" stroke="midnightblue" points="487.26,-183.17 477.59,-187.51 487.86,-190.14 487.26,-183.17"/>
</g>
<!-- Node3 -->
<g id="node3" class="node">
<title>Node3</title>
<g id="a_node3"><a xlink:title=" ">
<polygon fill="white" stroke="#bfbfbf" points="0,-207 0,-226 134,-226 134,-207 0,-207"/>
<text text-anchor="middle" x="67" y="-214" font-family="Helvetica,sans-Serif" font-size="10.00">std::valarray&lt; double &gt;</text>
</a>
</g>
</g>
<!-- Node3&#45;&gt;Node1 -->
<g id="edge4" class="edge">
<title>Node3&#45;&gt;Node1</title>
<path fill="none" stroke="#9a32cd" stroke-dasharray="5,2" d="M84.56,-233.19C100.34,-247.82 125.55,-268.02 152,-276.5 191.78,-289.25 204.45,-280.84 246,-276.5 392.53,-261.18 557.37,-223.65 668.76,-195.19"/>
<polygon fill="#9a32cd" stroke="#9a32cd" points="86.85,-230.54 77.21,-226.15 82.01,-235.59 86.85,-230.54"/>
<text text-anchor="middle" x="395.5" y="-298.5" font-family="Helvetica,sans-Serif" font-size="10.00"> psi</text>
<text text-anchor="middle" x="395.5" y="-287.5" font-family="Helvetica,sans-Serif" font-size="10.00">TransposeTransportMatrix</text>
<text text-anchor="middle" x="395.5" y="-276.5" font-family="Helvetica,sans-Serif" font-size="10.00">TransportMatrix</text>
</g>
<!-- Node3&#45;&gt;Node2 -->
<g id="edge2" class="edge">
<title>Node3&#45;&gt;Node2</title>
<path fill="none" stroke="#9a32cd" stroke-dasharray="5,2" d="M81.74,-199.01C96.8,-181.4 122.74,-155.32 152,-144.5 191.18,-130.01 209.79,-123.66 246,-144.5 259.81,-152.45 250.8,-166.57 264,-175.5 278.51,-185.31 296,-190.96 313.39,-194.05"/>
<polygon fill="#9a32cd" stroke="#9a32cd" points="78.91,-196.93 75.25,-206.87 84.32,-201.39 78.91,-196.93"/>
<text text-anchor="middle" x="199" y="-268.5" font-family="Helvetica,sans-Serif" font-size="10.00"> wStar_min_hiHe</text>
<text text-anchor="middle" x="199" y="-257.5" font-family="Helvetica,sans-Serif" font-size="10.00">den_hi</text>
<text text-anchor="middle" x="199" y="-246.5" font-family="Helvetica,sans-Serif" font-size="10.00">vStar_hi</text>
<text text-anchor="start" x="152" y="-235.5" font-family="Helvetica,sans-Serif" font-size="10.00">TransposeTransport</text>
<text text-anchor="middle" x="199" y="-224.5" font-family="Helvetica,sans-Serif" font-size="10.00">Matrix</text>
<text text-anchor="middle" x="199" y="-213.5" font-family="Helvetica,sans-Serif" font-size="10.00">uStar_hi</text>
<text text-anchor="middle" x="199" y="-202.5" font-family="Helvetica,sans-Serif" font-size="10.00">wStar_hi</text>
<text text-anchor="middle" x="199" y="-191.5" font-family="Helvetica,sans-Serif" font-size="10.00">wStar_psi</text>
<text text-anchor="middle" x="199" y="-180.5" font-family="Helvetica,sans-Serif" font-size="10.00">wStar_gamma</text>
<text text-anchor="middle" x="199" y="-169.5" font-family="Helvetica,sans-Serif" font-size="10.00">vStar_psi</text>
<text text-anchor="middle" x="199" y="-158.5" font-family="Helvetica,sans-Serif" font-size="10.00">uStar_psi</text>
<text text-anchor="middle" x="199" y="-147.5" font-family="Helvetica,sans-Serif" font-size="10.00">...</text>
</g>
<!-- Node4 -->
<g id="node4" class="node">
<title>Node4</title>
<g id="a_node4"><a xlink:href="classproteus_1_1cpp_hsu_sed_stress.html" target="_top" xlink:title=" ">
<polygon fill="white" stroke="black" points="309.5,-147 309.5,-166 481.5,-166 481.5,-147 309.5,-147"/>
<text text-anchor="middle" x="395.5" y="-154" font-family="Helvetica,sans-Serif" font-size="10.00">proteus::cppHsuSedStress&lt; 2 &gt;</text>
</a>
</g>
</g>
<!-- Node4&#45;&gt;Node1 -->
<g id="edge3" class="edge">
<title>Node4&#45;&gt;Node1</title>
<path fill="none" stroke="#9a32cd" stroke-dasharray="5,2" d="M492.01,-157.21C544.87,-157.6 611.32,-158.1 668.92,-158.53"/>
<polygon fill="#9a32cd" stroke="#9a32cd" points="491.99,-153.71 481.97,-157.14 491.94,-160.71 491.99,-153.71"/>
<text text-anchor="middle" x="598" y="-160.5" font-family="Helvetica,sans-Serif" font-size="10.00"> closure</text>
</g>
<!-- Node5 -->
<g id="node5" class="node">
<title>Node5</title>
<g id="a_node5"><a xlink:title=" ">
<polygon fill="white" stroke="#bfbfbf" points="343.5,-72 343.5,-91 447.5,-91 447.5,-72 343.5,-72"/>
<text text-anchor="middle" x="395.5" y="-79" font-family="Helvetica,sans-Serif" font-size="10.00">std::vector&lt; int &gt;</text>
</a>
</g>
</g>
<!-- Node5&#45;&gt;Node1 -->
<g id="edge5" class="edge">
<title>Node5&#45;&gt;Node1</title>
<path fill="none" stroke="#9a32cd" stroke-dasharray="5,2" d="M457.99,-80.1C510.04,-80.22 586.3,-83.47 651,-98.5 675.03,-104.08 700.19,-113.09 722.83,-122.5"/>
<polygon fill="#9a32cd" stroke="#9a32cd" points="457.9,-76.6 447.91,-80.12 457.92,-83.6 457.9,-76.6"/>
<text text-anchor="start" x="545" y="-145.5" font-family="Helvetica,sans-Serif" font-size="10.00"> surrogate_boundary</text>
<text text-anchor="middle" x="598" y="-134.5" font-family="Helvetica,sans-Serif" font-size="10.00">_elements</text>
<text text-anchor="middle" x="598" y="-123.5" font-family="Helvetica,sans-Serif" font-size="10.00">surrogate_boundaries</text>
<text text-anchor="start" x="545" y="-112.5" font-family="Helvetica,sans-Serif" font-size="10.00">surrogate_boundary</text>
<text text-anchor="middle" x="598" y="-101.5" font-family="Helvetica,sans-Serif" font-size="10.00">_particle</text>
</g>
<!-- Node6 -->
<g id="node6" class="node">
<title>Node6</title>
<g id="a_node6"><a xlink:href="classequivalent__polynomials_1_1_generalized_functions__mix.html" target="_top" xlink:title=" ">
<polygon fill="white" stroke="black" points="264,-0.5 264,-52.5 527,-52.5 527,-0.5 264,-0.5"/>
<text text-anchor="start" x="272" y="-40.5" font-family="Helvetica,sans-Serif" font-size="10.00">equivalent_polynomials</text>
<text text-anchor="start" x="272" y="-29.5" font-family="Helvetica,sans-Serif" font-size="10.00">::GeneralizedFunctions</text>
<text text-anchor="start" x="272" y="-18.5" font-family="Helvetica,sans-Serif" font-size="10.00">_mix&lt; nSpace, 1, nQuadraturePoints</text>
<text text-anchor="middle" x="395.5" y="-7.5" font-family="Helvetica,sans-Serif" font-size="10.00">_element, nQuadraturePoints_elementBoundary &gt;</text>
</a>
</g>
</g>
<!-- Node6&#45;&gt;Node1 -->
<g id="edge6" class="edge">
<title>Node6&#45;&gt;Node1</title>
<path fill="none" stroke="#9a32cd" stroke-dasharray="5,2" d="M537.29,-31.51C575.1,-36.09 615.36,-44.02 651,-57.5 690.35,-72.38 729.34,-99.78 757.49,-122.44"/>
<polygon fill="#9a32cd" stroke="#9a32cd" points="537.56,-28.01 527.22,-30.36 536.76,-34.97 537.56,-28.01"/>
<text text-anchor="middle" x="598" y="-71.5" font-family="Helvetica,sans-Serif" font-size="10.00"> gf_s</text>
<text text-anchor="middle" x="598" y="-60.5" font-family="Helvetica,sans-Serif" font-size="10.00">gf</text>
</g>
</g>
</svg>
