<?xml version="1.0" encoding="UTF-8" standalone="no"?>
<!DOCTYPE svg PUBLIC "-//W3C//DTD SVG 1.1//EN"
 "http://www.w3.org/Graphics/SVG/1.1/DTD/svg11.dtd">
<!-- Generated by graphviz version 2.40.1 (20161225.0304)
 -->
<!-- Title: proteus::VOF_base Pages: 1 -->
<svg width="182pt" height="216pt"
 viewBox="0.00 0.00 181.50 216.00" xmlns="http://www.w3.org/2000/svg" xmlns:xlink="http://www.w3.org/1999/xlink">
<g id="graph0" class="graph" transform="scale(1 1) rotate(0) translate(4 212)">
<title>proteus::VOF_base</title>
<polygon fill="#ffffff" stroke="transparent" points="-4,4 -4,-212 177.5,-212 177.5,4 -4,4"/>
<!-- Node2 -->
<g id="node1" class="node">
<title>Node2</title>
<polygon fill="#bfbfbf" stroke="#000000" points="8,-.5 8,-19.5 109,-19.5 109,-.5 8,-.5"/>
<text text-anchor="middle" x="58.5" y="-7.5" font-family="Helvetica,sans-Serif" font-size="10.00" fill="#000000">proteus::VOF_base</text>
</g>
<!-- Node3 -->
<g id="node2" class="node">
<title>Node3</title>
<polygon fill="#ffffff" stroke="#bfbfbf" points="0,-188.5 0,-207.5 117,-207.5 117,-188.5 0,-188.5"/>
<text text-anchor="middle" x="58.5" y="-195.5" font-family="Helvetica,sans-Serif" font-size="10.00" fill="#000000">std::valarray&lt; double &gt;</text>
</g>
<!-- Node3&#45;&gt;Node2 -->
<g id="edge1" class="edge">
<title>Node3&#45;&gt;Node2</title>
<path fill="none" stroke="#9a32cd" stroke-dasharray="5,2" d="M58.5,-178.3683C58.5,-138.5188 58.5,-49.4125 58.5,-19.7876"/>
<polygon fill="#9a32cd" stroke="#9a32cd" points="55.0001,-178.4186 58.5,-188.4186 62.0001,-178.4186 55.0001,-178.4186"/>
<text text-anchor="middle" x="116" y="-162" font-family="Helvetica,sans-Serif" font-size="10.00" fill="#000000"> boundary_integral</text>
<text text-anchor="middle" x="116" y="-151" font-family="Helvetica,sans-Serif" font-size="10.00" fill="#000000">psi</text>
<text text-anchor="middle" x="116" y="-140" font-family="Helvetica,sans-Serif" font-size="10.00" fill="#000000">Rpos</text>
<text text-anchor="middle" x="116" y="-129" font-family="Helvetica,sans-Serif" font-size="10.00" fill="#000000">maxEntRes</text>
<text text-anchor="start" x="58.5" y="-118" font-family="Helvetica,sans-Serif" font-size="10.00" fill="#000000">global_entropy</text>
<text text-anchor="middle" x="116" y="-107" font-family="Helvetica,sans-Serif" font-size="10.00" fill="#000000">_residual</text>
<text text-anchor="middle" x="116" y="-96" font-family="Helvetica,sans-Serif" font-size="10.00" fill="#000000">FluxCorrectionMatrix</text>
<text text-anchor="middle" x="116" y="-85" font-family="Helvetica,sans-Serif" font-size="10.00" fill="#000000">TransposeTransportMatrix</text>
<text text-anchor="middle" x="116" y="-74" font-family="Helvetica,sans-Serif" font-size="10.00" fill="#000000">maxVel</text>
<text text-anchor="middle" x="116" y="-63" font-family="Helvetica,sans-Serif" font-size="10.00" fill="#000000">TransportMatrix</text>
<text text-anchor="middle" x="116" y="-52" font-family="Helvetica,sans-Serif" font-size="10.00" fill="#000000">Rneg</text>
<text text-anchor="middle" x="116" y="-41" font-family="Helvetica,sans-Serif" font-size="10.00" fill="#000000">...</text>
</g>
</g>
</svg>
