<?xml version="1.0" encoding="UTF-8" standalone="no"?>
<!DOCTYPE svg PUBLIC "-//W3C//DTD SVG 1.1//EN"
 "http://www.w3.org/Graphics/SVG/1.1/DTD/svg11.dtd">
<!-- Generated by graphviz version 2.40.1 (20161225.0304)
 -->
<!-- Title: proteus::cppRANS3PF2D&lt; CompKernelType, nSpace, nQuadraturePoints_element, nDOF_mesh_trial_element, nDOF_trial_element, nDOF_test_element, nQuadraturePoints_elementBoundary &gt; Pages: 1 -->
<svg width="845pt" height="315pt"
 viewBox="0.00 0.00 845.00 314.50" xmlns="http://www.w3.org/2000/svg" xmlns:xlink="http://www.w3.org/1999/xlink">
<g id="graph0" class="graph" transform="scale(1 1) rotate(0) translate(4 310.5)">
<title>proteus::cppRANS3PF2D&lt; CompKernelType, nSpace, nQuadraturePoints_element, nDOF_mesh_trial_element, nDOF_trial_element, nDOF_test_element, nQuadraturePoints_elementBoundary &gt;</title>
<polygon fill="#ffffff" stroke="transparent" points="-4,4 -4,-310.5 841,-310.5 841,4 -4,4"/>
<!-- Node2 -->
<g id="node1" class="node">
<title>Node2</title>
<polygon fill="#bfbfbf" stroke="#000000" points="604,-122.5 604,-196.5 837,-196.5 837,-122.5 604,-122.5"/>
<text text-anchor="start" x="612" y="-184.5" font-family="Helvetica,sans-Serif" font-size="10.00" fill="#000000">proteus::cppRANS3PF2D</text>
<text text-anchor="start" x="612" y="-173.5" font-family="Helvetica,sans-Serif" font-size="10.00" fill="#000000">&lt; CompKernelType, nSpace,</text>
<text text-anchor="start" x="612" y="-162.5" font-family="Helvetica,sans-Serif" font-size="10.00" fill="#000000"> nQuadraturePoints_element,</text>
<text text-anchor="start" x="612" y="-151.5" font-family="Helvetica,sans-Serif" font-size="10.00" fill="#000000"> nDOF_mesh_trial_element,</text>
<text text-anchor="start" x="612" y="-140.5" font-family="Helvetica,sans-Serif" font-size="10.00" fill="#000000"> nDOF_trial_element, nDOF_test</text>
<text text-anchor="middle" x="720.5" y="-129.5" font-family="Helvetica,sans-Serif" font-size="10.00" fill="#000000">_element, nQuadraturePoints_elementBoundary &gt;</text>
</g>
<!-- Node3 -->
<g id="node2" class="node">
<title>Node3</title>
<g id="a_node2"><a xlink:href="classproteus_1_1cpp_r_a_n_s3_p_f2_d__base.html" target="_top" xlink:title="proteus::cppRANS3PF2D_base">
<polygon fill="#ffffff" stroke="#000000" points="279.5,-185 279.5,-204 435.5,-204 435.5,-185 279.5,-185"/>
<text text-anchor="middle" x="357.5" y="-192" font-family="Helvetica,sans-Serif" font-size="10.00" fill="#000000">proteus::cppRANS3PF2D_base</text>
</a>
</g>
</g>
<!-- Node3&#45;&gt;Node2 -->
<g id="edge1" class="edge">
<title>Node3&#45;&gt;Node2</title>
<path fill="none" stroke="#191970" d="M445.7745,-186.0086C488.1804,-181.9275 539.7262,-176.9639 586,-172.5 591.8378,-171.9368 597.8181,-171.3597 603.8573,-170.7767"/>
<polygon fill="#191970" stroke="#191970" points="445.378,-182.5305 435.7593,-186.9724 446.0486,-189.4983 445.378,-182.5305"/>
</g>
<!-- Node4 -->
<g id="node3" class="node">
<title>Node4</title>
<polygon fill="#ffffff" stroke="#bfbfbf" points="0,-207 0,-226 117,-226 117,-207 0,-207"/>
<text text-anchor="middle" x="58.5" y="-214" font-family="Helvetica,sans-Serif" font-size="10.00" fill="#000000">std::valarray&lt; double &gt;</text>
</g>
<!-- Node4&#45;&gt;Node2 -->
<g id="edge4" class="edge">
<title>Node4&#45;&gt;Node2</title>
<path fill="none" stroke="#9a32cd" stroke-dasharray="5,2" d="M73.6757,-233.5681C87.8666,-248.1388 110.5004,-268.0384 135,-276.5 171.9683,-289.268 184.1494,-281.0069 223,-276.5 355.4256,-261.1379 503.7792,-223.5055 603.7477,-195.036"/>
<polygon fill="#9a32cd" stroke="#9a32cd" points="76.0945,-231.0307 66.7023,-226.128 70.9872,-235.8177 76.0945,-231.0307"/>
<text text-anchor="middle" x="357.5" y="-298.5" font-family="Helvetica,sans-Serif" font-size="10.00" fill="#000000"> psi</text>
<text text-anchor="middle" x="357.5" y="-287.5" font-family="Helvetica,sans-Serif" font-size="10.00" fill="#000000">TransposeTransportMatrix</text>
<text text-anchor="middle" x="357.5" y="-276.5" font-family="Helvetica,sans-Serif" font-size="10.00" fill="#000000">TransportMatrix</text>
</g>
<!-- Node4&#45;&gt;Node3 -->
<g id="edge2" class="edge">
<title>Node4&#45;&gt;Node3</title>
<path fill="none" stroke="#9a32cd" stroke-dasharray="5,2" d="M71.0227,-198.5676C84.4996,-180.9943 107.7135,-155.3212 135,-144.5 171.3565,-130.0818 189.1047,-124.9863 223,-144.5 236.8073,-152.4489 227.8796,-166.4621 241,-175.5 252.3072,-183.2889 265.6757,-188.3022 279.2519,-191.4593"/>
<polygon fill="#9a32cd" stroke="#9a32cd" points="68.0009,-196.7688 64.8927,-206.8974 73.6388,-200.9178 68.0009,-196.7688"/>
<text text-anchor="middle" x="179" y="-268.5" font-family="Helvetica,sans-Serif" font-size="10.00" fill="#000000"> wStar_min_hiHe</text>
<text text-anchor="middle" x="179" y="-257.5" font-family="Helvetica,sans-Serif" font-size="10.00" fill="#000000">den_hi</text>
<text text-anchor="middle" x="179" y="-246.5" font-family="Helvetica,sans-Serif" font-size="10.00" fill="#000000">vStar_hi</text>
<text text-anchor="start" x="135" y="-235.5" font-family="Helvetica,sans-Serif" font-size="10.00" fill="#000000">TransposeTransport</text>
<text text-anchor="middle" x="179" y="-224.5" font-family="Helvetica,sans-Serif" font-size="10.00" fill="#000000">Matrix</text>
<text text-anchor="middle" x="179" y="-213.5" font-family="Helvetica,sans-Serif" font-size="10.00" fill="#000000">uStar_hi</text>
<text text-anchor="middle" x="179" y="-202.5" font-family="Helvetica,sans-Serif" font-size="10.00" fill="#000000">wStar_hi</text>
<text text-anchor="middle" x="179" y="-191.5" font-family="Helvetica,sans-Serif" font-size="10.00" fill="#000000">wStar_psi</text>
<text text-anchor="middle" x="179" y="-180.5" font-family="Helvetica,sans-Serif" font-size="10.00" fill="#000000">wStar_gamma</text>
<text text-anchor="middle" x="179" y="-169.5" font-family="Helvetica,sans-Serif" font-size="10.00" fill="#000000">vStar_psi</text>
<text text-anchor="middle" x="179" y="-158.5" font-family="Helvetica,sans-Serif" font-size="10.00" fill="#000000">uStar_psi</text>
<text text-anchor="middle" x="179" y="-147.5" font-family="Helvetica,sans-Serif" font-size="10.00" fill="#000000">...</text>
</g>
<!-- Node5 -->
<g id="node4" class="node">
<title>Node5</title>
<g id="a_node4"><a xlink:href="classproteus_1_1cpp_hsu_sed_stress.html" target="_top" xlink:title="proteus::cppHsuSedStress\&lt; 2 \&gt;">
<polygon fill="#ffffff" stroke="#000000" points="278.5,-147 278.5,-166 436.5,-166 436.5,-147 278.5,-147"/>
<text text-anchor="middle" x="357.5" y="-154" font-family="Helvetica,sans-Serif" font-size="10.00" fill="#000000">proteus::cppHsuSedStress&lt; 2 &gt;</text>
</a>
</g>
</g>
<!-- Node5&#45;&gt;Node2 -->
<g id="edge3" class="edge">
<title>Node5&#45;&gt;Node2</title>
<path fill="none" stroke="#9a32cd" stroke-dasharray="5,2" d="M446.9444,-157.2392C494.2911,-157.6305 553.0047,-158.1157 603.8844,-158.5362"/>
<polygon fill="#9a32cd" stroke="#9a32cd" points="446.7419,-153.7375 436.7133,-157.1547 446.684,-160.7373 446.7419,-153.7375"/>
<text text-anchor="middle" x="539" y="-160.5" font-family="Helvetica,sans-Serif" font-size="10.00" fill="#000000"> closure</text>
</g>
<!-- Node6 -->
<g id="node5" class="node">
<title>Node6</title>
<polygon fill="#ffffff" stroke="#bfbfbf" points="311.5,-72 311.5,-91 403.5,-91 403.5,-72 311.5,-72"/>
<text text-anchor="middle" x="357.5" y="-79" font-family="Helvetica,sans-Serif" font-size="10.00" fill="#000000">std::vector&lt; int &gt;</text>
</g>
<!-- Node6&#45;&gt;Node2 -->
<g id="edge5" class="edge">
<title>Node6&#45;&gt;Node2</title>
<path fill="none" stroke="#9a32cd" stroke-dasharray="5,2" d="M414.0237,-80.2421C460.8144,-80.4929 528.6675,-83.8591 586,-98.5 607.8616,-104.0828 630.5864,-113.0354 650.9978,-122.3814"/>
<polygon fill="#9a32cd" stroke="#9a32cd" points="413.7848,-76.7421 403.7824,-80.2351 413.78,-83.7421 413.7848,-76.7421"/>
<text text-anchor="start" x="492" y="-145.5" font-family="Helvetica,sans-Serif" font-size="10.00" fill="#000000"> surrogate_boundary</text>
<text text-anchor="middle" x="539" y="-134.5" font-family="Helvetica,sans-Serif" font-size="10.00" fill="#000000">_elements</text>
<text text-anchor="middle" x="539" y="-123.5" font-family="Helvetica,sans-Serif" font-size="10.00" fill="#000000">surrogate_boundaries</text>
<text text-anchor="start" x="492" y="-112.5" font-family="Helvetica,sans-Serif" font-size="10.00" fill="#000000">surrogate_boundary</text>
<text text-anchor="middle" x="539" y="-101.5" font-family="Helvetica,sans-Serif" font-size="10.00" fill="#000000">_particle</text>
</g>
<!-- Node7 -->
<g id="node6" class="node">
<title>Node7</title>
<g id="a_node6"><a xlink:href="classequivalent__polynomials_1_1_generalized_functions__mix.html" target="_top" xlink:title="equivalent_polynomials\l::GeneralizedFunctions\l_mix\&lt; nSpace, 1, nQuadraturePoints\l_element, nQuadraturePoints_elementBoundary \&gt;">
<polygon fill="#ffffff" stroke="#000000" points="241,-.5 241,-52.5 474,-52.5 474,-.5 241,-.5"/>
<text text-anchor="start" x="249" y="-40.5" font-family="Helvetica,sans-Serif" font-size="10.00" fill="#000000">equivalent_polynomials</text>
<text text-anchor="start" x="249" y="-29.5" font-family="Helvetica,sans-Serif" font-size="10.00" fill="#000000">::GeneralizedFunctions</text>
<text text-anchor="start" x="249" y="-18.5" font-family="Helvetica,sans-Serif" font-size="10.00" fill="#000000">_mix&lt; nSpace, 1, nQuadraturePoints</text>
<text text-anchor="middle" x="357.5" y="-7.5" font-family="Helvetica,sans-Serif" font-size="10.00" fill="#000000">_element, nQuadraturePoints_elementBoundary &gt;</text>
</a>
</g>
</g>
<!-- Node7&#45;&gt;Node2 -->
<g id="edge6" class="edge">
<title>Node7&#45;&gt;Node2</title>
<path fill="none" stroke="#9a32cd" stroke-dasharray="5,2" d="M484.1282,-31.996C518.1361,-36.579 554.2611,-44.3853 586,-57.5 622.2937,-72.4968 657.4436,-99.7404 682.7032,-122.3011"/>
<polygon fill="#9a32cd" stroke="#9a32cd" points="484.4854,-28.5134 474.1253,-30.7311 483.6071,-35.4581 484.4854,-28.5134"/>
<text text-anchor="middle" x="539" y="-71.5" font-family="Helvetica,sans-Serif" font-size="10.00" fill="#000000"> gf_s</text>
<text text-anchor="middle" x="539" y="-60.5" font-family="Helvetica,sans-Serif" font-size="10.00" fill="#000000">gf</text>
</g>
</g>
</svg>
