<?xml version="1.0" encoding="UTF-8" standalone="no"?>
<!DOCTYPE svg PUBLIC "-//W3C//DTD SVG 1.1//EN"
 "http://www.w3.org/Graphics/SVG/1.1/DTD/svg11.dtd">
<!-- Generated by graphviz version 2.50.0 (20211204.2007)
 -->
<!-- Title: proteus::throwing_map&lt; K, T &gt; Pages: 1 -->
<svg width="124pt" height="163pt"
 viewBox="0.00 0.00 124.00 163.00" xmlns="http://www.w3.org/2000/svg" xmlns:xlink="http://www.w3.org/1999/xlink">
<g id="graph0" class="graph" transform="scale(1 1) rotate(0) translate(4 159)">
<title>proteus::throwing_map&lt; K, T &gt;</title>
<polygon fill="white" stroke="transparent" points="-4,4 -4,-159 120,-159 120,4 -4,4"/>
<!-- Node1 -->
<g id="node1" class="node">
<title>Node1</title>
<g id="a_node1"><a xlink:title=" ">
<polygon fill="#bfbfbf" stroke="black" points="0,-0.5 0,-30.5 116,-30.5 116,-0.5 0,-0.5"/>
<text text-anchor="start" x="8" y="-18.5" font-family="Helvetica,sans-Serif" font-size="10.00">proteus::throwing_map</text>
<text text-anchor="middle" x="58" y="-7.5" font-family="Helvetica,sans-Serif" font-size="10.00">&lt; K, T &gt;</text>
</a>
</g>
</g>
<!-- Node2 -->
<g id="node2" class="node">
<title>Node2</title>
<g id="a_node2"><a xlink:title="STL class.">
<polygon fill="white" stroke="#bfbfbf" points="12,-68.5 12,-87.5 104,-87.5 104,-68.5 12,-68.5"/>
<text text-anchor="middle" x="58" y="-75.5" font-family="Helvetica,sans-Serif" font-size="10.00">std::map&lt; K, T &gt;</text>
</a>
</g>
</g>
<!-- Node2&#45;&gt;Node1 -->
<g id="edge1" class="edge">
<title>Node2&#45;&gt;Node1</title>
<path fill="none" stroke="#8b1a1a" d="M58,-58.22C58,-49.36 58,-38.96 58,-30.76"/>
<polygon fill="#8b1a1a" stroke="#8b1a1a" points="54.5,-58.33 58,-68.33 61.5,-58.33 54.5,-58.33"/>
</g>
<!-- Node3 -->
<g id="node3" class="node">
<title>Node3</title>
<g id="a_node3"><a xlink:title=" ">
<polygon fill="white" stroke="#bfbfbf" points="19.5,-135.5 19.5,-154.5 48.5,-154.5 48.5,-135.5 19.5,-135.5"/>
<text text-anchor="middle" x="34" y="-142.5" font-family="Helvetica,sans-Serif" font-size="10.00">K</text>
</a>
</g>
</g>
<!-- Node3&#45;&gt;Node2 -->
<g id="edge2" class="edge">
<title>Node3&#45;&gt;Node2</title>
<path fill="none" stroke="#9a32cd" stroke-dasharray="5,2" d="M32.03,-125C32.02,-118.77 32.73,-111.93 35,-106 37.64,-99.1 42.86,-92.74 47.66,-87.92"/>
<polygon fill="#9a32cd" stroke="#9a32cd" points="28.55,-125.45 32.62,-135.23 35.53,-125.04 28.55,-125.45"/>
<text text-anchor="middle" x="47.5" y="-109" font-family="Helvetica,sans-Serif" font-size="10.00"> keys</text>
</g>
<!-- Node4 -->
<g id="node4" class="node">
<title>Node4</title>
<g id="a_node4"><a xlink:title=" ">
<polygon fill="white" stroke="#bfbfbf" points="67.5,-135.5 67.5,-154.5 96.5,-154.5 96.5,-135.5 67.5,-135.5"/>
<text text-anchor="middle" x="82" y="-142.5" font-family="Helvetica,sans-Serif" font-size="10.00">T</text>
</a>
</g>
</g>
<!-- Node4&#45;&gt;Node2 -->
<g id="edge3" class="edge">
<title>Node4&#45;&gt;Node2</title>
<path fill="none" stroke="#9a32cd" stroke-dasharray="5,2" d="M75.28,-125.79C70.67,-113.31 64.76,-97.31 61.19,-87.63"/>
<polygon fill="#9a32cd" stroke="#9a32cd" points="72.02,-127.07 78.76,-135.23 78.58,-124.64 72.02,-127.07"/>
<text text-anchor="middle" x="92.5" y="-109" font-family="Helvetica,sans-Serif" font-size="10.00"> elements</text>
</g>
</g>
</svg>
