<?xml version="1.0" encoding="UTF-8" standalone="no"?>
<!DOCTYPE svg PUBLIC "-//W3C//DTD SVG 1.1//EN"
 "http://www.w3.org/Graphics/SVG/1.1/DTD/svg11.dtd">
<!-- Generated by graphviz version 2.40.1 (20161225.0304)
 -->
<!-- Title: cppCable Pages: 1 -->
<svg width="540pt" height="570pt"
 viewBox="0.00 0.00 540.00 569.60" xmlns="http://www.w3.org/2000/svg" xmlns:xlink="http://www.w3.org/1999/xlink">
<g id="graph0" class="graph" transform="scale(1 1) rotate(0) translate(4 565.6015)">
<title>cppCable</title>
<polygon fill="#ffffff" stroke="transparent" points="-4,4 -4,-565.6015 536,-565.6015 536,4 -4,4"/>
<!-- Node1 -->
<g id="node1" class="node">
<title>Node1</title>
<polygon fill="#bfbfbf" stroke="#000000" points="474,-292.1015 474,-311.1015 532,-311.1015 532,-292.1015 474,-292.1015"/>
<text text-anchor="middle" x="503" y="-299.1015" font-family="Helvetica,sans-Serif" font-size="10.00" fill="#000000">cppCable</text>
</g>
<!-- Node2 -->
<g id="node2" class="node">
<title>Node2</title>
<polygon fill="#ffffff" stroke="#bfbfbf" points="156.5,-516.6015 156.5,-546.6015 304.5,-546.6015 304.5,-516.6015 156.5,-516.6015"/>
<text text-anchor="start" x="164.5" y="-534.6015" font-family="Helvetica,sans-Serif" font-size="10.00" fill="#000000">std::vector&lt; std::shared</text>
<text text-anchor="middle" x="230.5" y="-523.6015" font-family="Helvetica,sans-Serif" font-size="10.00" fill="#000000">_ptr&lt; ChVector&lt; double &gt; &gt; &gt;</text>
</g>
<!-- Node2&#45;&gt;Node1 -->
<g id="edge1" class="edge">
<title>Node2&#45;&gt;Node1</title>
<path fill="none" stroke="#9a32cd" stroke-dasharray="5,2" d="M314.8098,-541.6124C361.9006,-542.4143 418.472,-534.7128 456,-500.6015 484.7646,-474.4558 498.7106,-347.4102 502.141,-311.2323"/>
<polygon fill="#9a32cd" stroke="#9a32cd" points="314.7091,-538.1079 304.6083,-541.3056 314.4986,-545.1047 314.7091,-538.1079"/>
<text text-anchor="middle" x="401.5" y="-553.6015" font-family="Helvetica,sans-Serif" font-size="10.00" fill="#000000"> forces_drag</text>
<text text-anchor="middle" x="401.5" y="-542.6015" font-family="Helvetica,sans-Serif" font-size="10.00" fill="#000000">forces_addedmass</text>
</g>
<!-- Node3 -->
<g id="node3" class="node">
<title>Node3</title>
<polygon fill="#ffffff" stroke="#bfbfbf" points="157.5,-467.6015 157.5,-497.6015 303.5,-497.6015 303.5,-467.6015 157.5,-467.6015"/>
<text text-anchor="start" x="165.5" y="-485.6015" font-family="Helvetica,sans-Serif" font-size="10.00" fill="#000000">std::vector&lt; std::shared</text>
<text text-anchor="middle" x="230.5" y="-474.6015" font-family="Helvetica,sans-Serif" font-size="10.00" fill="#000000">_ptr&lt; ChNodeFEAxyzDD &gt; &gt;</text>
</g>
<!-- Node3&#45;&gt;Node1 -->
<g id="edge2" class="edge">
<title>Node3&#45;&gt;Node1</title>
<path fill="none" stroke="#9a32cd" stroke-dasharray="5,2" d="M313.7289,-488.4635C360.5908,-487.3135 417.2945,-477.8765 456,-444.6015 477.0056,-426.5431 495.4528,-340.3258 501.1736,-311.2221"/>
<polygon fill="#9a32cd" stroke="#9a32cd" points="313.5392,-484.9654 303.5833,-488.5889 313.6258,-491.9649 313.5392,-484.9654"/>
<text text-anchor="middle" x="401.5" y="-488.6015" font-family="Helvetica,sans-Serif" font-size="10.00" fill="#000000"> nodesDD</text>
</g>
<!-- Node4 -->
<g id="node4" class="node">
<title>Node4</title>
<polygon fill="#ffffff" stroke="#bfbfbf" points="152,-418.6015 152,-448.6015 309,-448.6015 309,-418.6015 152,-418.6015"/>
<text text-anchor="start" x="160" y="-436.6015" font-family="Helvetica,sans-Serif" font-size="10.00" fill="#000000">std::vector&lt; std::shared</text>
<text text-anchor="middle" x="230.5" y="-425.6015" font-family="Helvetica,sans-Serif" font-size="10.00" fill="#000000">_ptr&lt; ChElementBeamEuler &gt; &gt;</text>
</g>
<!-- Node4&#45;&gt;Node1 -->
<g id="edge3" class="edge">
<title>Node4&#45;&gt;Node1</title>
<path fill="none" stroke="#9a32cd" stroke-dasharray="5,2" d="M319.2044,-433.2848C363.9587,-429.0761 416.8931,-417.4896 456,-388.6015 482.6502,-368.9151 495.8305,-329.4635 500.7037,-311.2382"/>
<polygon fill="#9a32cd" stroke="#9a32cd" points="318.8752,-429.8 309.1999,-434.1175 319.4558,-436.7759 318.8752,-429.8"/>
<text text-anchor="middle" x="401.5" y="-432.6015" font-family="Helvetica,sans-Serif" font-size="10.00" fill="#000000"> elemsBeamEuler</text>
</g>
<!-- Node5 -->
<g id="node5" class="node">
<title>Node5</title>
<polygon fill="#ffffff" stroke="#bfbfbf" points="161,-369.6015 161,-399.6015 300,-399.6015 300,-369.6015 161,-369.6015"/>
<text text-anchor="start" x="169" y="-387.6015" font-family="Helvetica,sans-Serif" font-size="10.00" fill="#000000">std::vector&lt; std::shared</text>
<text text-anchor="middle" x="230.5" y="-376.6015" font-family="Helvetica,sans-Serif" font-size="10.00" fill="#000000">_ptr&lt; ChNodeFEAxyzD &gt; &gt;</text>
</g>
<!-- Node5&#45;&gt;Node1 -->
<g id="edge4" class="edge">
<title>Node5&#45;&gt;Node1</title>
<path fill="none" stroke="#9a32cd" stroke-dasharray="5,2" d="M310.4289,-379.4335C355.0225,-374.1224 410.5668,-363.3674 456,-341.6015 471.461,-334.1945 485.9551,-320.4213 494.6515,-311.1329"/>
<polygon fill="#9a32cd" stroke="#9a32cd" points="309.7652,-375.9859 300.2173,-380.5781 310.545,-382.9423 309.7652,-375.9859"/>
<text text-anchor="middle" x="401.5" y="-376.6015" font-family="Helvetica,sans-Serif" font-size="10.00" fill="#000000"> nodes</text>
</g>
<!-- Node6 -->
<g id="node6" class="node">
<title>Node6</title>
<polygon fill="#ffffff" stroke="#bfbfbf" points="132,-320.6015 132,-350.6015 329,-350.6015 329,-320.6015 132,-320.6015"/>
<text text-anchor="start" x="140" y="-338.6015" font-family="Helvetica,sans-Serif" font-size="10.00" fill="#000000">std::vector&lt; std::shared</text>
<text text-anchor="middle" x="230.5" y="-327.6015" font-family="Helvetica,sans-Serif" font-size="10.00" fill="#000000">_ptr&lt; ChLoad&lt; MyLoaderTriangular &gt; &gt; &gt;</text>
</g>
<!-- Node6&#45;&gt;Node1 -->
<g id="edge5" class="edge">
<title>Node6&#45;&gt;Node1</title>
<path fill="none" stroke="#9a32cd" stroke-dasharray="5,2" d="M339.5191,-328.3474C376.6443,-324.9815 418.2838,-320.2162 456,-313.6015 461.8064,-312.5832 467.9515,-311.2245 473.816,-309.7878"/>
<polygon fill="#9a32cd" stroke="#9a32cd" points="338.8284,-324.8946 329.1747,-329.26 339.4436,-331.8675 338.8284,-324.8946"/>
<text text-anchor="middle" x="401.5" y="-329.6015" font-family="Helvetica,sans-Serif" font-size="10.00" fill="#000000"> elems_loads_triangular</text>
</g>
<!-- Node7 -->
<g id="node7" class="node">
<title>Node7</title>
<polygon fill="#ffffff" stroke="#bfbfbf" points="138,-271.6015 138,-301.6015 323,-301.6015 323,-271.6015 138,-271.6015"/>
<text text-anchor="start" x="146" y="-289.6015" font-family="Helvetica,sans-Serif" font-size="10.00" fill="#000000">std::vector&lt; std::shared</text>
<text text-anchor="middle" x="230.5" y="-278.6015" font-family="Helvetica,sans-Serif" font-size="10.00" fill="#000000">_ptr&lt; ChLoad&lt; ChLoaderGravity &gt; &gt; &gt;</text>
</g>
<!-- Node7&#45;&gt;Node1 -->
<g id="edge6" class="edge">
<title>Node7&#45;&gt;Node1</title>
<path fill="none" stroke="#9a32cd" stroke-dasharray="5,2" d="M333.4209,-292.2669C383.6726,-295.033 440.3687,-298.1539 473.819,-299.9952"/>
<polygon fill="#9a32cd" stroke="#9a32cd" points="333.3136,-288.7558 323.1363,-291.7007 332.9288,-295.7452 333.3136,-288.7558"/>
<text text-anchor="middle" x="401.5" y="-301.6015" font-family="Helvetica,sans-Serif" font-size="10.00" fill="#000000"> elems_loads_volumetric</text>
</g>
<!-- Node8 -->
<g id="node8" class="node">
<title>Node8</title>
<g id="a_node8"><a xlink:title="STL class. ">
<polygon fill="#ffffff" stroke="#bfbfbf" points="200.5,-233.1015 200.5,-252.1015 260.5,-252.1015 260.5,-233.1015 200.5,-233.1015"/>
<text text-anchor="middle" x="230.5" y="-240.1015" font-family="Helvetica,sans-Serif" font-size="10.00" fill="#000000">std::string</text>
</a>
</g>
</g>
<!-- Node8&#45;&gt;Node1 -->
<g id="edge7" class="edge">
<title>Node8&#45;&gt;Node1</title>
<path fill="none" stroke="#9a32cd" stroke-dasharray="5,2" d="M270.8789,-244.9933C316.704,-248.589 393.2312,-257.2835 456,-277.6015 466.983,-281.1567 478.5403,-287.0262 487.446,-292.0706"/>
<polygon fill="#9a32cd" stroke="#9a32cd" points="270.9815,-241.4914 260.7502,-244.2428 270.4641,-248.4723 270.9815,-241.4914"/>
<text text-anchor="middle" x="401.5" y="-280.6015" font-family="Helvetica,sans-Serif" font-size="10.00" fill="#000000"> beam_type</text>
</g>
<!-- Node9 -->
<g id="node9" class="node">
<title>Node9</title>
<g id="a_node9"><a xlink:title="STL class. ">
<polygon fill="#ffffff" stroke="#bfbfbf" points="0,-227.6015 0,-257.6015 95,-257.6015 95,-227.6015 0,-227.6015"/>
<text text-anchor="start" x="8" y="-245.6015" font-family="Helvetica,sans-Serif" font-size="10.00" fill="#000000">std::basic_string&lt;</text>
<text text-anchor="middle" x="47.5" y="-234.6015" font-family="Helvetica,sans-Serif" font-size="10.00" fill="#000000"> char &gt;</text>
</a>
</g>
</g>
<!-- Node9&#45;&gt;Node8 -->
<g id="edge8" class="edge">
<title>Node9&#45;&gt;Node8</title>
<path fill="none" stroke="#191970" d="M105.1124,-242.6015C136.6903,-242.6015 174.539,-242.6015 200.3342,-242.6015"/>
<polygon fill="#191970" stroke="#191970" points="105.1034,-239.1016 95.1034,-242.6015 105.1033,-246.1016 105.1034,-239.1016"/>
</g>
<!-- Node10 -->
<g id="node10" class="node">
<title>Node10</title>
<polygon fill="#ffffff" stroke="#bfbfbf" points="163.5,-169.1015 163.5,-188.1015 297.5,-188.1015 297.5,-169.1015 163.5,-169.1015"/>
<text text-anchor="middle" x="230.5" y="-176.1015" font-family="Helvetica,sans-Serif" font-size="10.00" fill="#000000">std::vector&lt; ChVector&lt;&gt; &gt;</text>
</g>
<!-- Node10&#45;&gt;Node1 -->
<g id="edge9" class="edge">
<title>Node10&#45;&gt;Node1</title>
<path fill="none" stroke="#9a32cd" stroke-dasharray="5,2" d="M307.7948,-171.4716C363.4561,-167.9548 432.6845,-167.4111 456,-183.6015 492.7687,-209.1338 500.7781,-268.3718 502.5185,-291.8057"/>
<polygon fill="#9a32cd" stroke="#9a32cd" points="307.316,-167.9958 297.5736,-172.1595 307.7861,-174.98 307.316,-167.9958"/>
<text text-anchor="middle" x="401.5" y="-241.6015" font-family="Helvetica,sans-Serif" font-size="10.00" fill="#000000"> fluid_acceleration</text>
<text text-anchor="middle" x="401.5" y="-230.6015" font-family="Helvetica,sans-Serif" font-size="10.00" fill="#000000">mvecs_tangents</text>
<text text-anchor="middle" x="401.5" y="-219.6015" font-family="Helvetica,sans-Serif" font-size="10.00" fill="#000000">fluid_velocity</text>
<text text-anchor="middle" x="401.5" y="-208.6015" font-family="Helvetica,sans-Serif" font-size="10.00" fill="#000000">mvecs</text>
<text text-anchor="middle" x="401.5" y="-197.6015" font-family="Helvetica,sans-Serif" font-size="10.00" fill="#000000">mvecs_middle</text>
<text text-anchor="middle" x="401.5" y="-186.6015" font-family="Helvetica,sans-Serif" font-size="10.00" fill="#000000">mdirs</text>
</g>
<!-- Node11 -->
<g id="node11" class="node">
<title>Node11</title>
<polygon fill="#ffffff" stroke="#bfbfbf" points="149.5,-118.6015 149.5,-148.6015 311.5,-148.6015 311.5,-118.6015 149.5,-118.6015"/>
<text text-anchor="start" x="157.5" y="-136.6015" font-family="Helvetica,sans-Serif" font-size="10.00" fill="#000000">std::vector&lt; std::shared</text>
<text text-anchor="middle" x="230.5" y="-125.6015" font-family="Helvetica,sans-Serif" font-size="10.00" fill="#000000">_ptr&lt; ChElementCableANCF &gt; &gt;</text>
</g>
<!-- Node11&#45;&gt;Node1 -->
<g id="edge10" class="edge">
<title>Node11&#45;&gt;Node1</title>
<path fill="none" stroke="#9a32cd" stroke-dasharray="5,2" d="M299.7733,-116.8653C348.4568,-109.3756 412.4213,-108.6654 456,-142.6015 480.3007,-161.5252 496.8169,-259.9187 501.5821,-291.6947"/>
<polygon fill="#9a32cd" stroke="#9a32cd" points="298.9178,-113.4595 289.6295,-118.5564 300.069,-120.3642 298.9178,-113.4595"/>
<text text-anchor="middle" x="401.5" y="-156.6015" font-family="Helvetica,sans-Serif" font-size="10.00" fill="#000000"> elems_cable</text>
<text text-anchor="middle" x="401.5" y="-145.6015" font-family="Helvetica,sans-Serif" font-size="10.00" fill="#000000">elemsCableANCF</text>
</g>
<!-- Node12 -->
<g id="node12" class="node">
<title>Node12</title>
<polygon fill="#ffffff" stroke="#bfbfbf" points="159,-69.6015 159,-99.6015 302,-99.6015 302,-69.6015 159,-69.6015"/>
<text text-anchor="start" x="167" y="-87.6015" font-family="Helvetica,sans-Serif" font-size="10.00" fill="#000000">std::vector&lt; std::shared</text>
<text text-anchor="middle" x="230.5" y="-76.6015" font-family="Helvetica,sans-Serif" font-size="10.00" fill="#000000">_ptr&lt; ChNodeFEAxyzrot &gt; &gt;</text>
</g>
<!-- Node12&#45;&gt;Node1 -->
<g id="edge11" class="edge">
<title>Node12&#45;&gt;Node1</title>
<path fill="none" stroke="#9a32cd" stroke-dasharray="5,2" d="M312.2649,-79.3534C367.7467,-77.611 434.735,-79.6549 456,-97.6015 486.4831,-123.3277 499.2455,-254.9126 502.2652,-291.9119"/>
<polygon fill="#9a32cd" stroke="#9a32cd" points="311.9208,-75.8634 302.0528,-79.7199 312.1719,-82.8589 311.9208,-75.8634"/>
<text text-anchor="middle" x="401.5" y="-100.6015" font-family="Helvetica,sans-Serif" font-size="10.00" fill="#000000"> nodesRot</text>
</g>
<!-- Node13 -->
<g id="node13" class="node">
<title>Node13</title>
<polygon fill="#ffffff" stroke="#bfbfbf" points="175.5,-16.1015 175.5,-35.1015 285.5,-35.1015 285.5,-16.1015 175.5,-16.1015"/>
<text text-anchor="middle" x="230.5" y="-23.1015" font-family="Helvetica,sans-Serif" font-size="10.00" fill="#000000">std::vector&lt; double &gt;</text>
</g>
<!-- Node13&#45;&gt;Node1 -->
<g id="edge12" class="edge">
<title>Node13&#45;&gt;Node1</title>
<path fill="none" stroke="#9a32cd" stroke-dasharray="5,2" d="M268.385,-13.3488C317.8066,.031 404.0743,14.0862 456,-30.6015 496.6268,-65.5653 502.1432,-247.6176 502.8856,-291.8901"/>
<polygon fill="#9a32cd" stroke="#9a32cd" points="267.3871,-9.9937 258.7185,-16.0851 269.2937,-16.7291 267.3871,-9.9937"/>
<text text-anchor="middle" x="401.5" y="-66.6015" font-family="Helvetica,sans-Serif" font-size="10.00" fill="#000000"> nodes_density</text>
<text text-anchor="middle" x="401.5" y="-55.6015" font-family="Helvetica,sans-Serif" font-size="10.00" fill="#000000">elems_length</text>
<text text-anchor="middle" x="401.5" y="-44.6015" font-family="Helvetica,sans-Serif" font-size="10.00" fill="#000000">length_per_elem</text>
<text text-anchor="middle" x="401.5" y="-33.6015" font-family="Helvetica,sans-Serif" font-size="10.00" fill="#000000">fluid_density</text>
</g>
</g>
</svg>
