<?xml version="1.0" encoding="UTF-8" standalone="no"?>
<!DOCTYPE svg PUBLIC "-//W3C//DTD SVG 1.1//EN"
 "http://www.w3.org/Graphics/SVG/1.1/DTD/svg11.dtd">
<!-- Generated by graphviz version 2.43.0 (0)
 -->
<!-- Title: proteus::MCorr&lt; CompKernelType, nSpace, nQuadraturePoints_element, nDOF_mesh_trial_element, nDOF_trial_element, nDOF_test_element, nQuadraturePoints_elementBoundary &gt; Pages: 1 -->
<svg width="851pt" height="205pt"
 viewBox="0.00 0.00 851.00 204.50" xmlns="http://www.w3.org/2000/svg" xmlns:xlink="http://www.w3.org/1999/xlink">
<g id="graph0" class="graph" transform="scale(1 1) rotate(0) translate(4 200.5)">
<title>proteus::MCorr&lt; CompKernelType, nSpace, nQuadraturePoints_element, nDOF_mesh_trial_element, nDOF_trial_element, nDOF_test_element, nQuadraturePoints_elementBoundary &gt;</title>
<polygon fill="white" stroke="transparent" points="-4,4 -4,-200.5 847,-200.5 847,4 -4,4"/>
<!-- Node1 -->
<g id="node1" class="node">
<title>Node1</title>
<g id="a_node1"><a xlink:title=" ">
<polygon fill="#bfbfbf" stroke="black" points="620,-72 620,-135 843,-135 843,-72 620,-72"/>
<text text-anchor="start" x="628" y="-123" font-family="Helvetica,sans-Serif" font-size="10.00">proteus::MCorr&lt; CompKernel</text>
<text text-anchor="start" x="628" y="-112" font-family="Helvetica,sans-Serif" font-size="10.00">Type, nSpace, nQuadraturePoints</text>
<text text-anchor="start" x="628" y="-101" font-family="Helvetica,sans-Serif" font-size="10.00">_element, nDOF_mesh_trial_element,</text>
<text text-anchor="start" x="628" y="-90" font-family="Helvetica,sans-Serif" font-size="10.00"> nDOF_trial_element, nDOF_test_element,</text>
<text text-anchor="middle" x="731.5" y="-79" font-family="Helvetica,sans-Serif" font-size="10.00"> nQuadraturePoints_elementBoundary &gt;</text>
</a>
</g>
</g>
<!-- Node2 -->
<g id="node2" class="node">
<title>Node2</title>
<g id="a_node2"><a xlink:href="classproteus_1_1_m_corr__base.html" target="_top" xlink:title=" ">
<polygon fill="white" stroke="black" points="346,-154 346,-173 463,-173 463,-154 346,-154"/>
<text text-anchor="middle" x="404.5" y="-161" font-family="Helvetica,sans-Serif" font-size="10.00">proteus::MCorr_base</text>
</a>
</g>
</g>
<!-- Node2&#45;&gt;Node1 -->
<g id="edge1" class="edge">
<title>Node2&#45;&gt;Node1</title>
<path fill="none" stroke="midnightblue" d="M473.19,-154.47C493.44,-151.55 515.66,-148.12 536,-144.5 563.27,-139.65 592.55,-133.81 619.91,-128.08"/>
<polygon fill="midnightblue" stroke="midnightblue" points="472.53,-151.03 463.12,-155.91 473.51,-157.96 472.53,-151.03"/>
</g>
<!-- Node3 -->
<g id="node3" class="node">
<title>Node3</title>
<g id="a_node3"><a xlink:title=" ">
<polygon fill="white" stroke="#bfbfbf" points="0,-154 0,-173 134,-173 134,-154 0,-154"/>
<text text-anchor="middle" x="67" y="-161" font-family="Helvetica,sans-Serif" font-size="10.00">std::valarray&lt; double &gt;</text>
</a>
</g>
</g>
<!-- Node3&#45;&gt;Node2 -->
<g id="edge2" class="edge">
<title>Node3&#45;&gt;Node2</title>
<path fill="none" stroke="#9a32cd" stroke-dasharray="5,2" d="M144.66,-163.5C205.82,-163.5 290.18,-163.5 345.74,-163.5"/>
<polygon fill="#9a32cd" stroke="#9a32cd" points="144.28,-160 134.28,-163.5 144.28,-167 144.28,-160"/>
<text text-anchor="middle" x="203.5" y="-188.5" font-family="Helvetica,sans-Serif" font-size="10.00"> Rpos</text>
<text text-anchor="middle" x="203.5" y="-177.5" font-family="Helvetica,sans-Serif" font-size="10.00">FluxCorrectionMatrix</text>
<text text-anchor="middle" x="203.5" y="-166.5" font-family="Helvetica,sans-Serif" font-size="10.00">Rneg</text>
</g>
<!-- Node4 -->
<g id="node4" class="node">
<title>Node4</title>
<g id="a_node4"><a xlink:href="classequivalent__polynomials_1_1_generalized_functions__mix.html" target="_top" xlink:title=" ">
<polygon fill="white" stroke="black" points="325,-72 325,-135 484,-135 484,-72 325,-72"/>
<text text-anchor="start" x="333" y="-123" font-family="Helvetica,sans-Serif" font-size="10.00">equivalent_polynomials</text>
<text text-anchor="start" x="333" y="-112" font-family="Helvetica,sans-Serif" font-size="10.00">::GeneralizedFunctions</text>
<text text-anchor="start" x="333" y="-101" font-family="Helvetica,sans-Serif" font-size="10.00">_mix&lt; nSpace, 2, nDOF_trial</text>
<text text-anchor="start" x="333" y="-90" font-family="Helvetica,sans-Serif" font-size="10.00">_element, nQuadraturePoints</text>
<text text-anchor="middle" x="404.5" y="-79" font-family="Helvetica,sans-Serif" font-size="10.00">_elementBoundary &gt;</text>
</a>
</g>
</g>
<!-- Node4&#45;&gt;Node1 -->
<g id="edge3" class="edge">
<title>Node4&#45;&gt;Node1</title>
<path fill="none" stroke="#9a32cd" stroke-dasharray="5,2" d="M494.37,-103.5C533.06,-103.5 578.82,-103.5 619.7,-103.5"/>
<polygon fill="#9a32cd" stroke="#9a32cd" points="494.17,-100 484.17,-103.5 494.17,-107 494.17,-100"/>
<text text-anchor="middle" x="578" y="-106.5" font-family="Helvetica,sans-Serif" font-size="10.00"> gf_nodes</text>
</g>
<!-- Node5 -->
<g id="node5" class="node">
<title>Node5</title>
<g id="a_node5"><a xlink:href="classequivalent__polynomials_1_1_generalized_functions__mix.html" target="_top" xlink:title=" ">
<polygon fill="white" stroke="black" points="273,-0.5 273,-52.5 536,-52.5 536,-0.5 273,-0.5"/>
<text text-anchor="start" x="281" y="-40.5" font-family="Helvetica,sans-Serif" font-size="10.00">equivalent_polynomials</text>
<text text-anchor="start" x="281" y="-29.5" font-family="Helvetica,sans-Serif" font-size="10.00">::GeneralizedFunctions</text>
<text text-anchor="start" x="281" y="-18.5" font-family="Helvetica,sans-Serif" font-size="10.00">_mix&lt; nSpace, 2, nQuadraturePoints</text>
<text text-anchor="middle" x="404.5" y="-7.5" font-family="Helvetica,sans-Serif" font-size="10.00">_element, nQuadraturePoints_elementBoundary &gt;</text>
</a>
</g>
</g>
<!-- Node5&#45;&gt;Node1 -->
<g id="edge4" class="edge">
<title>Node5&#45;&gt;Node1</title>
<path fill="none" stroke="#9a32cd" stroke-dasharray="5,2" d="M525.47,-54.92C556.33,-62.23 589.39,-70.07 619.75,-77.26"/>
<polygon fill="#9a32cd" stroke="#9a32cd" points="526.07,-51.47 515.53,-52.57 524.45,-58.28 526.07,-51.47"/>
<text text-anchor="middle" x="578" y="-74.5" font-family="Helvetica,sans-Serif" font-size="10.00"> gf</text>
</g>
</g>
</svg>
