<?xml version="1.0" encoding="UTF-8" standalone="no"?>
<!DOCTYPE svg PUBLIC "-//W3C//DTD SVG 1.1//EN"
 "http://www.w3.org/Graphics/SVG/1.1/DTD/svg11.dtd">
<!-- Generated by graphviz version 2.40.1 (20161225.0304)
 -->
<!-- Title: proteus::cppRANS3PSed&lt; CompKernelType, nSpace, nQuadraturePoints_element, nDOF_mesh_trial_element, nDOF_trial_element, nDOF_test_element, nQuadraturePoints_elementBoundary &gt; Pages: 1 -->
<svg width="340pt" height="150pt"
 viewBox="0.00 0.00 339.50 150.00" xmlns="http://www.w3.org/2000/svg" xmlns:xlink="http://www.w3.org/1999/xlink">
<g id="graph0" class="graph" transform="scale(1 1) rotate(0) translate(4 146)">
<title>proteus::cppRANS3PSed&lt; CompKernelType, nSpace, nQuadraturePoints_element, nDOF_mesh_trial_element, nDOF_trial_element, nDOF_test_element, nQuadraturePoints_elementBoundary &gt;</title>
<polygon fill="#ffffff" stroke="transparent" points="-4,4 -4,-146 335.5,-146 335.5,4 -4,4"/>
<!-- Node2 -->
<g id="node1" class="node">
<title>Node2</title>
<polygon fill="#bfbfbf" stroke="#000000" points="48,-.5 48,-74.5 281,-74.5 281,-.5 48,-.5"/>
<text text-anchor="start" x="56" y="-62.5" font-family="Helvetica,sans-Serif" font-size="10.00" fill="#000000">proteus::cppRANS3PSed</text>
<text text-anchor="start" x="56" y="-51.5" font-family="Helvetica,sans-Serif" font-size="10.00" fill="#000000">&lt; CompKernelType, nSpace,</text>
<text text-anchor="start" x="56" y="-40.5" font-family="Helvetica,sans-Serif" font-size="10.00" fill="#000000"> nQuadraturePoints_element,</text>
<text text-anchor="start" x="56" y="-29.5" font-family="Helvetica,sans-Serif" font-size="10.00" fill="#000000"> nDOF_mesh_trial_element,</text>
<text text-anchor="start" x="56" y="-18.5" font-family="Helvetica,sans-Serif" font-size="10.00" fill="#000000"> nDOF_trial_element, nDOF_test</text>
<text text-anchor="middle" x="164.5" y="-7.5" font-family="Helvetica,sans-Serif" font-size="10.00" fill="#000000">_element, nQuadraturePoints_elementBoundary &gt;</text>
</g>
<!-- Node3 -->
<g id="node2" class="node">
<title>Node3</title>
<g id="a_node2"><a xlink:href="classproteus_1_1cpp_r_a_n_s3_p_sed__base.html" target="_top" xlink:title="proteus::cppRANS3PSed_base">
<polygon fill="#ffffff" stroke="#000000" points="0,-122.5 0,-141.5 155,-141.5 155,-122.5 0,-122.5"/>
<text text-anchor="middle" x="77.5" y="-129.5" font-family="Helvetica,sans-Serif" font-size="10.00" fill="#000000">proteus::cppRANS3PSed_base</text>
</a>
</g>
</g>
<!-- Node3&#45;&gt;Node2 -->
<g id="edge1" class="edge">
<title>Node3&#45;&gt;Node2</title>
<path fill="none" stroke="#191970" d="M93.3002,-114.8377C103.6188,-103.6296 117.498,-88.5539 130.2616,-74.6899"/>
<polygon fill="#191970" stroke="#191970" points="90.681,-112.5152 86.4828,-122.2428 95.8309,-117.2564 90.681,-112.5152"/>
</g>
<!-- Node4 -->
<g id="node3" class="node">
<title>Node4</title>
<g id="a_node3"><a xlink:href="classproteus_1_1cpp_hsu_sed_stress.html" target="_top" xlink:title="proteus::cppHsuSedStress\&lt; 3 \&gt;">
<polygon fill="#ffffff" stroke="#000000" points="173.5,-122.5 173.5,-141.5 331.5,-141.5 331.5,-122.5 173.5,-122.5"/>
<text text-anchor="middle" x="252.5" y="-129.5" font-family="Helvetica,sans-Serif" font-size="10.00" fill="#000000">proteus::cppHsuSedStress&lt; 3 &gt;</text>
</a>
</g>
</g>
<!-- Node4&#45;&gt;Node2 -->
<g id="edge2" class="edge">
<title>Node4&#45;&gt;Node2</title>
<path fill="none" stroke="#9a32cd" stroke-dasharray="5,2" d="M236.5182,-114.8377C226.081,-103.6296 212.0423,-88.5539 199.1319,-74.6899"/>
<polygon fill="#9a32cd" stroke="#9a32cd" points="234.0376,-117.3097 243.4139,-122.2428 239.1604,-112.5392 234.0376,-117.3097"/>
<text text-anchor="middle" x="241" y="-96" font-family="Helvetica,sans-Serif" font-size="10.00" fill="#000000"> closure</text>
</g>
</g>
</svg>
