<?xml version="1.0" encoding="UTF-8" standalone="no"?>
<!DOCTYPE svg PUBLIC "-//W3C//DTD SVG 1.1//EN"
 "http://www.w3.org/Graphics/SVG/1.1/DTD/svg11.dtd">
<!-- Generated by graphviz version 2.43.0 (0)
 -->
<!-- Title: proteus::cADR&lt; CompKernelType, nSpace, nQuadraturePoints_element, nDOF_mesh_trial_element, nDOF_trial_element, nDOF_test_element, nQuadraturePoints_elementBoundary &gt; Pages: 1 -->
<svg width="667pt" height="188pt"
 viewBox="0.00 0.00 667.00 188.00" xmlns="http://www.w3.org/2000/svg" xmlns:xlink="http://www.w3.org/1999/xlink">
<g id="graph0" class="graph" transform="scale(1 1) rotate(0) translate(4 184)">
<title>proteus::cADR&lt; CompKernelType, nSpace, nQuadraturePoints_element, nDOF_mesh_trial_element, nDOF_trial_element, nDOF_test_element, nQuadraturePoints_elementBoundary &gt;</title>
<polygon fill="white" stroke="transparent" points="-4,4 -4,-184 663,-184 663,4 -4,4"/>
<!-- Node1 -->
<g id="node1" class="node">
<title>Node1</title>
<g id="a_node1"><a xlink:title=" ">
<polygon fill="#bfbfbf" stroke="black" points="436,-49.5 436,-112.5 659,-112.5 659,-49.5 436,-49.5"/>
<text text-anchor="start" x="444" y="-100.5" font-family="Helvetica,sans-Serif" font-size="10.00">proteus::cADR&lt; CompKernel</text>
<text text-anchor="start" x="444" y="-89.5" font-family="Helvetica,sans-Serif" font-size="10.00">Type, nSpace, nQuadraturePoints</text>
<text text-anchor="start" x="444" y="-78.5" font-family="Helvetica,sans-Serif" font-size="10.00">_element, nDOF_mesh_trial_element,</text>
<text text-anchor="start" x="444" y="-67.5" font-family="Helvetica,sans-Serif" font-size="10.00"> nDOF_trial_element, nDOF_test_element,</text>
<text text-anchor="middle" x="547.5" y="-56.5" font-family="Helvetica,sans-Serif" font-size="10.00"> nQuadraturePoints_elementBoundary &gt;</text>
</a>
</g>
</g>
<!-- Node2 -->
<g id="node2" class="node">
<title>Node2</title>
<g id="a_node2"><a xlink:href="classproteus_1_1c_a_d_r__base.html" target="_top" xlink:title=" ">
<polygon fill="white" stroke="black" points="74.5,-160.5 74.5,-179.5 188.5,-179.5 188.5,-160.5 74.5,-160.5"/>
<text text-anchor="middle" x="131.5" y="-167.5" font-family="Helvetica,sans-Serif" font-size="10.00">proteus::cADR_base</text>
</a>
</g>
</g>
<!-- Node2&#45;&gt;Node1 -->
<g id="edge1" class="edge">
<title>Node2&#45;&gt;Node1</title>
<path fill="none" stroke="midnightblue" d="M198.92,-164.54C257.3,-158.77 344.2,-147.85 418,-129 435.19,-124.61 453.26,-118.71 470.24,-112.55"/>
<polygon fill="midnightblue" stroke="midnightblue" points="198.35,-161.08 188.73,-165.52 199.02,-168.04 198.35,-161.08"/>
</g>
<!-- Node3 -->
<g id="node3" class="node">
<title>Node3</title>
<g id="a_node3"><a xlink:href="classequivalent__polynomials_1_1_generalized_functions__mix.html" target="_top" xlink:title=" ">
<polygon fill="white" stroke="black" points="0,-89 0,-141 263,-141 263,-89 0,-89"/>
<text text-anchor="start" x="8" y="-129" font-family="Helvetica,sans-Serif" font-size="10.00">equivalent_polynomials</text>
<text text-anchor="start" x="8" y="-118" font-family="Helvetica,sans-Serif" font-size="10.00">::GeneralizedFunctions</text>
<text text-anchor="start" x="8" y="-107" font-family="Helvetica,sans-Serif" font-size="10.00">_mix&lt; nSpace, 3, nQuadraturePoints</text>
<text text-anchor="middle" x="131.5" y="-96" font-family="Helvetica,sans-Serif" font-size="10.00">_element, nQuadraturePoints_elementBoundary &gt;</text>
</a>
</g>
</g>
<!-- Node3&#45;&gt;Node1 -->
<g id="edge2" class="edge">
<title>Node3&#45;&gt;Node1</title>
<path fill="none" stroke="#9a32cd" stroke-dasharray="5,2" d="M273.36,-104.6C319.47,-101.08 370.93,-97.01 418,-93 423.8,-92.51 429.76,-91.99 435.76,-91.46"/>
<polygon fill="#9a32cd" stroke="#9a32cd" points="273,-101.12 263.3,-105.37 273.53,-108.1 273,-101.12"/>
<text text-anchor="middle" x="349.5" y="-117" font-family="Helvetica,sans-Serif" font-size="10.00"> gf_s</text>
<text text-anchor="middle" x="349.5" y="-106" font-family="Helvetica,sans-Serif" font-size="10.00">gf</text>
</g>
<!-- Node4 -->
<g id="node4" class="node">
<title>Node4</title>
<g id="a_node4"><a xlink:title=" ">
<polygon fill="white" stroke="#bfbfbf" points="87.5,-38.5 87.5,-57.5 175.5,-57.5 175.5,-38.5 87.5,-38.5"/>
<text text-anchor="middle" x="131.5" y="-45.5" font-family="Helvetica,sans-Serif" font-size="10.00">std::set&lt; int &gt;</text>
</a>
</g>
</g>
<!-- Node4&#45;&gt;Node1 -->
<g id="edge3" class="edge">
<title>Node4&#45;&gt;Node1</title>
<path fill="none" stroke="#9a32cd" stroke-dasharray="5,2" d="M186.06,-44.37C243.62,-41.36 337.66,-39 418,-49 423.82,-49.72 429.75,-50.62 435.72,-51.65"/>
<polygon fill="#9a32cd" stroke="#9a32cd" points="185.54,-40.89 175.75,-44.94 185.93,-47.88 185.54,-40.89"/>
<text text-anchor="middle" x="349.5" y="-85" font-family="Helvetica,sans-Serif" font-size="10.00"> ifem_boundary_elements</text>
<text text-anchor="middle" x="349.5" y="-74" font-family="Helvetica,sans-Serif" font-size="10.00">cutfem_boundary_elements</text>
<text text-anchor="middle" x="349.5" y="-63" font-family="Helvetica,sans-Serif" font-size="10.00">cutfem_boundaries</text>
<text text-anchor="middle" x="349.5" y="-52" font-family="Helvetica,sans-Serif" font-size="10.00">ifem_boundaries</text>
</g>
<!-- Node5 -->
<g id="node5" class="node">
<title>Node5</title>
<g id="a_node5"><a xlink:title=" ">
<polygon fill="white" stroke="#bfbfbf" points="70.5,-0.5 70.5,-19.5 192.5,-19.5 192.5,-0.5 70.5,-0.5"/>
<text text-anchor="middle" x="131.5" y="-7.5" font-family="Helvetica,sans-Serif" font-size="10.00">std::valarray&lt; bool &gt;</text>
</a>
</g>
</g>
<!-- Node5&#45;&gt;Node1 -->
<g id="edge4" class="edge">
<title>Node5&#45;&gt;Node1</title>
<path fill="none" stroke="#9a32cd" stroke-dasharray="5,2" d="M202.89,-7.64C261.26,-7.23 346.03,-10.25 418,-27 439.92,-32.1 462.87,-40.62 483.21,-49.41"/>
<polygon fill="#9a32cd" stroke="#9a32cd" points="202.63,-4.14 192.67,-7.74 202.7,-11.14 202.63,-4.14"/>
<text text-anchor="middle" x="349.5" y="-30" font-family="Helvetica,sans-Serif" font-size="10.00"> elementIsActive</text>
</g>
</g>
</svg>
