<?xml version="1.0" encoding="UTF-8" standalone="no"?>
<!DOCTYPE svg PUBLIC "-//W3C//DTD SVG 1.1//EN"
 "http://www.w3.org/Graphics/SVG/1.1/DTD/svg11.dtd">
<!-- Generated by graphviz version 2.50.0 (20211204.2007)
 -->
<!-- Title: proteus::cppRANS3PF&lt; CompKernelType, nSpace, nQuadraturePoints_element, nDOF_mesh_trial_element, nDOF_trial_element, nDOF_test_element, nQuadraturePoints_elementBoundary &gt; Pages: 1 -->
<svg width="875pt" height="327pt"
 viewBox="0.00 0.00 875.00 326.50" xmlns="http://www.w3.org/2000/svg" xmlns:xlink="http://www.w3.org/1999/xlink">
<g id="graph0" class="graph" transform="scale(1 1) rotate(0) translate(4 322.5)">
<title>proteus::cppRANS3PF&lt; CompKernelType, nSpace, nQuadraturePoints_element, nDOF_mesh_trial_element, nDOF_trial_element, nDOF_test_element, nQuadraturePoints_elementBoundary &gt;</title>
<polygon fill="white" stroke="transparent" points="-4,4 -4,-322.5 871,-322.5 871,4 -4,4"/>
<!-- Node1 -->
<g id="node1" class="node">
<title>Node1</title>
<g id="a_node1"><a xlink:title=" ">
<polygon fill="#bfbfbf" stroke="black" points="634,-83.5 634,-157.5 867,-157.5 867,-83.5 634,-83.5"/>
<text text-anchor="start" x="642" y="-145.5" font-family="Helvetica,sans-Serif" font-size="10.00">proteus::cppRANS3PF</text>
<text text-anchor="start" x="642" y="-134.5" font-family="Helvetica,sans-Serif" font-size="10.00">&lt; CompKernelType, nSpace,</text>
<text text-anchor="start" x="642" y="-123.5" font-family="Helvetica,sans-Serif" font-size="10.00"> nQuadraturePoints_element,</text>
<text text-anchor="start" x="642" y="-112.5" font-family="Helvetica,sans-Serif" font-size="10.00"> nDOF_mesh_trial_element,</text>
<text text-anchor="start" x="642" y="-101.5" font-family="Helvetica,sans-Serif" font-size="10.00"> nDOF_trial_element, nDOF_test</text>
<text text-anchor="middle" x="750.5" y="-90.5" font-family="Helvetica,sans-Serif" font-size="10.00">_element, nQuadraturePoints_elementBoundary &gt;</text>
</a>
</g>
</g>
<!-- Node2 -->
<g id="node2" class="node">
<title>Node2</title>
<g id="a_node2"><a xlink:href="classproteus_1_1cpp_r_a_n_s3_p_f__base.html" target="_top" xlink:title=" ">
<polygon fill="white" stroke="black" points="313,-188 313,-207 456,-207 456,-188 313,-188"/>
<text text-anchor="middle" x="384.5" y="-195" font-family="Helvetica,sans-Serif" font-size="10.00">proteus::cppRANS3PF_base</text>
</a>
</g>
</g>
<!-- Node2&#45;&gt;Node1 -->
<g id="edge1" class="edge">
<title>Node2&#45;&gt;Node1</title>
<path fill="none" stroke="midnightblue" d="M466.28,-187.76C510.75,-181.69 566.75,-172.85 616,-161.5 621.91,-160.14 627.93,-158.65 634,-157.08"/>
<polygon fill="midnightblue" stroke="midnightblue" points="465.55,-184.33 456.11,-189.14 466.48,-191.27 465.55,-184.33"/>
</g>
<!-- Node3 -->
<g id="node3" class="node">
<title>Node3</title>
<g id="a_node3"><a xlink:title=" ">
<polygon fill="white" stroke="#bfbfbf" points="0,-188 0,-207 117,-207 117,-188 0,-188"/>
<text text-anchor="middle" x="58.5" y="-195" font-family="Helvetica,sans-Serif" font-size="10.00">std::valarray&lt; double &gt;</text>
</a>
</g>
</g>
<!-- Node3&#45;&gt;Node2 -->
<g id="edge2" class="edge">
<title>Node3&#45;&gt;Node2</title>
<path fill="none" stroke="#9a32cd" stroke-dasharray="5,2" d="M127.29,-197.5C181.69,-197.5 257.81,-197.5 312.93,-197.5"/>
<polygon fill="#9a32cd" stroke="#9a32cd" points="127.05,-194 117.05,-197.5 127.05,-201 127.05,-194"/>
<text text-anchor="middle" x="192.5" y="-310.5" font-family="Helvetica,sans-Serif" font-size="10.00"> TransportMatrix</text>
<text text-anchor="middle" x="192.5" y="-299.5" font-family="Helvetica,sans-Serif" font-size="10.00">TransposeTransportMatrix</text>
<text text-anchor="middle" x="192.5" y="-288.5" font-family="Helvetica,sans-Serif" font-size="10.00">den_hi</text>
<text text-anchor="middle" x="192.5" y="-277.5" font-family="Helvetica,sans-Serif" font-size="10.00">uStar_gamma</text>
<text text-anchor="middle" x="192.5" y="-266.5" font-family="Helvetica,sans-Serif" font-size="10.00">uStar_hi</text>
<text text-anchor="middle" x="192.5" y="-255.5" font-family="Helvetica,sans-Serif" font-size="10.00">uStar_min_hiHe</text>
<text text-anchor="middle" x="192.5" y="-244.5" font-family="Helvetica,sans-Serif" font-size="10.00">uStar_psi</text>
<text text-anchor="middle" x="192.5" y="-233.5" font-family="Helvetica,sans-Serif" font-size="10.00">vStar_gamma</text>
<text text-anchor="middle" x="192.5" y="-222.5" font-family="Helvetica,sans-Serif" font-size="10.00">vStar_hi</text>
<text text-anchor="middle" x="192.5" y="-211.5" font-family="Helvetica,sans-Serif" font-size="10.00">vStar_min_hiHe</text>
<text text-anchor="middle" x="192.5" y="-200.5" font-family="Helvetica,sans-Serif" font-size="10.00">...</text>
</g>
<!-- Node4 -->
<g id="node4" class="node">
<title>Node4</title>
<g id="a_node4"><a xlink:href="classproteus_1_1cpp_hsu_sed_stress.html" target="_top" xlink:title=" ">
<polygon fill="white" stroke="black" points="305.5,-150 305.5,-169 463.5,-169 463.5,-150 305.5,-150"/>
<text text-anchor="middle" x="384.5" y="-157" font-family="Helvetica,sans-Serif" font-size="10.00">proteus::cppHsuSedStress&lt; 3 &gt;</text>
</a>
</g>
</g>
<!-- Node4&#45;&gt;Node1 -->
<g id="edge3" class="edge">
<title>Node4&#45;&gt;Node1</title>
<path fill="none" stroke="#9a32cd" stroke-dasharray="5,2" d="M473.85,-151.72C516.79,-147.78 569.12,-142.72 616,-137.5 621.81,-136.85 627.75,-136.17 633.75,-135.47"/>
<polygon fill="#9a32cd" stroke="#9a32cd" points="473.35,-148.26 463.71,-152.65 473.99,-155.23 473.35,-148.26"/>
<text text-anchor="middle" x="567.5" y="-149.5" font-family="Helvetica,sans-Serif" font-size="10.00"> closure</text>
</g>
<!-- Node5 -->
<g id="node5" class="node">
<title>Node5</title>
<g id="a_node5"><a xlink:title=" ">
<polygon fill="white" stroke="#bfbfbf" points="338.5,-72 338.5,-91 430.5,-91 430.5,-72 338.5,-72"/>
<text text-anchor="middle" x="384.5" y="-79" font-family="Helvetica,sans-Serif" font-size="10.00">std::vector&lt; int &gt;</text>
</a>
</g>
</g>
<!-- Node5&#45;&gt;Node1 -->
<g id="edge4" class="edge">
<title>Node5&#45;&gt;Node1</title>
<path fill="none" stroke="#9a32cd" stroke-dasharray="5,2" d="M441.11,-75.67C488.02,-71.97 556.79,-69.41 616,-78.5 624.29,-79.77 632.76,-81.46 641.23,-83.44"/>
<polygon fill="#9a32cd" stroke="#9a32cd" points="440.53,-72.21 430.86,-76.53 441.11,-79.18 440.53,-72.21"/>
<text text-anchor="middle" x="567.5" y="-125.5" font-family="Helvetica,sans-Serif" font-size="10.00"> surrogate_boundaries</text>
<text text-anchor="start" x="519" y="-114.5" font-family="Helvetica,sans-Serif" font-size="10.00">surrogate_boundary</text>
<text text-anchor="middle" x="567.5" y="-103.5" font-family="Helvetica,sans-Serif" font-size="10.00">_elements</text>
<text text-anchor="start" x="519" y="-92.5" font-family="Helvetica,sans-Serif" font-size="10.00">surrogate_boundary</text>
<text text-anchor="middle" x="567.5" y="-81.5" font-family="Helvetica,sans-Serif" font-size="10.00">_particle</text>
</g>
<!-- Node6 -->
<g id="node6" class="node">
<title>Node6</title>
<g id="a_node6"><a xlink:href="classequivalent__polynomials_1_1_generalized_functions__mix.html" target="_top" xlink:title=" ">
<polygon fill="white" stroke="black" points="268,-0.5 268,-52.5 501,-52.5 501,-0.5 268,-0.5"/>
<text text-anchor="start" x="276" y="-40.5" font-family="Helvetica,sans-Serif" font-size="10.00">equivalent_polynomials</text>
<text text-anchor="start" x="276" y="-29.5" font-family="Helvetica,sans-Serif" font-size="10.00">::GeneralizedFunctions</text>
<text text-anchor="start" x="276" y="-18.5" font-family="Helvetica,sans-Serif" font-size="10.00">_mix&lt; nSpace, 1, nQuadraturePoints</text>
<text text-anchor="middle" x="384.5" y="-7.5" font-family="Helvetica,sans-Serif" font-size="10.00">_element, nQuadraturePoints_elementBoundary &gt;</text>
</a>
</g>
</g>
<!-- Node6&#45;&gt;Node1 -->
<g id="edge5" class="edge">
<title>Node6&#45;&gt;Node1</title>
<path fill="none" stroke="#9a32cd" stroke-dasharray="5,2" d="M511.2,-27.09C545.73,-29.87 582.8,-35.34 616,-45.5 643.96,-54.06 672.54,-69.11 696.05,-83.49"/>
<polygon fill="#9a32cd" stroke="#9a32cd" points="511.28,-23.59 501.05,-26.34 510.77,-30.57 511.28,-23.59"/>
<text text-anchor="middle" x="567.5" y="-59.5" font-family="Helvetica,sans-Serif" font-size="10.00"> gf</text>
<text text-anchor="middle" x="567.5" y="-48.5" font-family="Helvetica,sans-Serif" font-size="10.00">gf_s</text>
</g>
</g>
</svg>
