<?xml version="1.0" encoding="UTF-8" standalone="no"?>
<!DOCTYPE svg PUBLIC "-//W3C//DTD SVG 1.1//EN"
 "http://www.w3.org/Graphics/SVG/1.1/DTD/svg11.dtd">
<!-- Generated by graphviz version 2.50.0 (20211204.2007)
 -->
<!-- Title: proteus::MCorr&lt; CompKernelType, nSpace, nQuadraturePoints_element, nDOF_mesh_trial_element, nDOF_trial_element, nDOF_test_element, nQuadraturePoints_elementBoundary &gt; Pages: 1 -->
<svg width="770pt" height="205pt"
 viewBox="0.00 0.00 770.00 204.50" xmlns="http://www.w3.org/2000/svg" xmlns:xlink="http://www.w3.org/1999/xlink">
<g id="graph0" class="graph" transform="scale(1 1) rotate(0) translate(4 200.5)">
<title>proteus::MCorr&lt; CompKernelType, nSpace, nQuadraturePoints_element, nDOF_mesh_trial_element, nDOF_trial_element, nDOF_test_element, nQuadraturePoints_elementBoundary &gt;</title>
<polygon fill="white" stroke="transparent" points="-4,4 -4,-200.5 766,-200.5 766,4 -4,4"/>
<!-- Node1 -->
<g id="node1" class="node">
<title>Node1</title>
<g id="a_node1"><a xlink:title=" ">
<polygon fill="#bfbfbf" stroke="black" points="559,-72 559,-135 762,-135 762,-72 559,-72"/>
<text text-anchor="start" x="567" y="-123" font-family="Helvetica,sans-Serif" font-size="10.00">proteus::MCorr&lt; CompKernel</text>
<text text-anchor="start" x="567" y="-112" font-family="Helvetica,sans-Serif" font-size="10.00">Type, nSpace, nQuadraturePoints</text>
<text text-anchor="start" x="567" y="-101" font-family="Helvetica,sans-Serif" font-size="10.00">_element, nDOF_mesh_trial_element,</text>
<text text-anchor="start" x="567" y="-90" font-family="Helvetica,sans-Serif" font-size="10.00"> nDOF_trial_element, nDOF_test_element,</text>
<text text-anchor="middle" x="660.5" y="-79" font-family="Helvetica,sans-Serif" font-size="10.00"> nQuadraturePoints_elementBoundary &gt;</text>
</a>
</g>
</g>
<!-- Node2 -->
<g id="node2" class="node">
<title>Node2</title>
<g id="a_node2"><a xlink:href="classproteus_1_1_m_corr__base.html" target="_top" xlink:title=" ">
<polygon fill="white" stroke="black" points="309.5,-154 309.5,-173 417.5,-173 417.5,-154 309.5,-154"/>
<text text-anchor="middle" x="363.5" y="-161" font-family="Helvetica,sans-Serif" font-size="10.00">proteus::MCorr_base</text>
</a>
</g>
</g>
<!-- Node2&#45;&gt;Node1 -->
<g id="edge1" class="edge">
<title>Node2&#45;&gt;Node1</title>
<path fill="none" stroke="midnightblue" d="M427.41,-153.87C444.51,-151.06 463,-147.84 480,-144.5 505.56,-139.48 533.04,-133.5 558.63,-127.69"/>
<polygon fill="midnightblue" stroke="midnightblue" points="426.83,-150.42 417.52,-155.48 427.95,-157.33 426.83,-150.42"/>
</g>
<!-- Node3 -->
<g id="node3" class="node">
<title>Node3</title>
<g id="a_node3"><a xlink:title=" ">
<polygon fill="white" stroke="#bfbfbf" points="0,-154 0,-173 117,-173 117,-154 0,-154"/>
<text text-anchor="middle" x="58.5" y="-161" font-family="Helvetica,sans-Serif" font-size="10.00">std::valarray&lt; double &gt;</text>
</a>
</g>
</g>
<!-- Node3&#45;&gt;Node2 -->
<g id="edge2" class="edge">
<title>Node3&#45;&gt;Node2</title>
<path fill="none" stroke="#9a32cd" stroke-dasharray="5,2" d="M127.21,-163.5C182.2,-163.5 258.67,-163.5 309.32,-163.5"/>
<polygon fill="#9a32cd" stroke="#9a32cd" points="127.21,-160 117.21,-163.5 127.21,-167 127.21,-160"/>
<text text-anchor="middle" x="182" y="-188.5" font-family="Helvetica,sans-Serif" font-size="10.00"> FluxCorrectionMatrix</text>
<text text-anchor="middle" x="182" y="-177.5" font-family="Helvetica,sans-Serif" font-size="10.00">Rneg</text>
<text text-anchor="middle" x="182" y="-166.5" font-family="Helvetica,sans-Serif" font-size="10.00">Rpos</text>
</g>
<!-- Node4 -->
<g id="node4" class="node">
<title>Node4</title>
<g id="a_node4"><a xlink:href="classequivalent__polynomials_1_1_generalized_functions__mix.html" target="_top" xlink:title=" ">
<polygon fill="white" stroke="black" points="291.5,-72 291.5,-135 435.5,-135 435.5,-72 291.5,-72"/>
<text text-anchor="start" x="299.5" y="-123" font-family="Helvetica,sans-Serif" font-size="10.00">equivalent_polynomials</text>
<text text-anchor="start" x="299.5" y="-112" font-family="Helvetica,sans-Serif" font-size="10.00">::GeneralizedFunctions</text>
<text text-anchor="start" x="299.5" y="-101" font-family="Helvetica,sans-Serif" font-size="10.00">_mix&lt; nSpace, 2, nDOF_trial</text>
<text text-anchor="start" x="299.5" y="-90" font-family="Helvetica,sans-Serif" font-size="10.00">_element, nQuadraturePoints</text>
<text text-anchor="middle" x="363.5" y="-79" font-family="Helvetica,sans-Serif" font-size="10.00">_elementBoundary &gt;</text>
</a>
</g>
</g>
<!-- Node4&#45;&gt;Node1 -->
<g id="edge3" class="edge">
<title>Node4&#45;&gt;Node1</title>
<path fill="none" stroke="#9a32cd" stroke-dasharray="5,2" d="M445.71,-103.5C480.73,-103.5 522.04,-103.5 558.97,-103.5"/>
<polygon fill="#9a32cd" stroke="#9a32cd" points="445.54,-100 435.54,-103.5 445.54,-107 445.54,-100"/>
<text text-anchor="middle" x="519.5" y="-106.5" font-family="Helvetica,sans-Serif" font-size="10.00"> gf_nodes</text>
</g>
<!-- Node5 -->
<g id="node5" class="node">
<title>Node5</title>
<g id="a_node5"><a xlink:href="classequivalent__polynomials_1_1_generalized_functions__mix.html" target="_top" xlink:title=" ">
<polygon fill="white" stroke="black" points="247,-0.5 247,-52.5 480,-52.5 480,-0.5 247,-0.5"/>
<text text-anchor="start" x="255" y="-40.5" font-family="Helvetica,sans-Serif" font-size="10.00">equivalent_polynomials</text>
<text text-anchor="start" x="255" y="-29.5" font-family="Helvetica,sans-Serif" font-size="10.00">::GeneralizedFunctions</text>
<text text-anchor="start" x="255" y="-18.5" font-family="Helvetica,sans-Serif" font-size="10.00">_mix&lt; nSpace, 2, nQuadraturePoints</text>
<text text-anchor="middle" x="363.5" y="-7.5" font-family="Helvetica,sans-Serif" font-size="10.00">_element, nQuadraturePoints_elementBoundary &gt;</text>
</a>
</g>
</g>
<!-- Node5&#45;&gt;Node1 -->
<g id="edge4" class="edge">
<title>Node5&#45;&gt;Node1</title>
<path fill="none" stroke="#9a32cd" stroke-dasharray="5,2" d="M474.12,-55.11C501.92,-62.37 531.65,-70.13 558.98,-77.26"/>
<polygon fill="#9a32cd" stroke="#9a32cd" points="474.93,-51.71 464.37,-52.57 473.17,-58.48 474.93,-51.71"/>
<text text-anchor="middle" x="519.5" y="-74.5" font-family="Helvetica,sans-Serif" font-size="10.00"> gf</text>
</g>
</g>
</svg>
