<?xml version="1.0" encoding="UTF-8" standalone="no"?>
<!DOCTYPE svg PUBLIC "-//W3C//DTD SVG 1.1//EN"
 "http://www.w3.org/Graphics/SVG/1.1/DTD/svg11.dtd">
<!-- Generated by graphviz version 2.40.1 (20161225.0304)
 -->
<!-- Title: proteus::throwing_map&lt; K, T &gt; Pages: 1 -->
<svg width="124pt" height="163pt"
 viewBox="0.00 0.00 124.00 163.00" xmlns="http://www.w3.org/2000/svg" xmlns:xlink="http://www.w3.org/1999/xlink">
<g id="graph0" class="graph" transform="scale(1 1) rotate(0) translate(4 159)">
<title>proteus::throwing_map&lt; K, T &gt;</title>
<polygon fill="#ffffff" stroke="transparent" points="-4,4 -4,-159 120,-159 120,4 -4,4"/>
<!-- Node2 -->
<g id="node1" class="node">
<title>Node2</title>
<polygon fill="#bfbfbf" stroke="#000000" points="0,-.5 0,-30.5 116,-30.5 116,-.5 0,-.5"/>
<text text-anchor="start" x="8" y="-18.5" font-family="Helvetica,sans-Serif" font-size="10.00" fill="#000000">proteus::throwing_map</text>
<text text-anchor="middle" x="58" y="-7.5" font-family="Helvetica,sans-Serif" font-size="10.00" fill="#000000">&lt; K, T &gt;</text>
</g>
<!-- Node3 -->
<g id="node2" class="node">
<title>Node3</title>
<g id="a_node2"><a xlink:title="STL class. ">
<polygon fill="#ffffff" stroke="#bfbfbf" points="12,-68.5 12,-87.5 104,-87.5 104,-68.5 12,-68.5"/>
<text text-anchor="middle" x="58" y="-75.5" font-family="Helvetica,sans-Serif" font-size="10.00" fill="#000000">std::map&lt; K, T &gt;</text>
</a>
</g>
</g>
<!-- Node3&#45;&gt;Node2 -->
<g id="edge1" class="edge">
<title>Node3&#45;&gt;Node2</title>
<path fill="none" stroke="#8b1a1a" d="M58,-58.0501C58,-49.2205 58,-39.0001 58,-30.7892"/>
<polygon fill="#8b1a1a" stroke="#8b1a1a" points="54.5001,-58.2343 58,-68.2344 61.5001,-58.2344 54.5001,-58.2343"/>
</g>
<!-- Node4 -->
<g id="node3" class="node">
<title>Node4</title>
<polygon fill="#ffffff" stroke="#bfbfbf" points="19.5,-135.5 19.5,-154.5 48.5,-154.5 48.5,-135.5 19.5,-135.5"/>
<text text-anchor="middle" x="34" y="-142.5" font-family="Helvetica,sans-Serif" font-size="10.00" fill="#000000">K</text>
</g>
<!-- Node4&#45;&gt;Node3 -->
<g id="edge2" class="edge">
<title>Node4&#45;&gt;Node3</title>
<path fill="none" stroke="#9a32cd" stroke-dasharray="5,2" d="M32.0243,-125.0305C32.0557,-118.7726 32.7831,-111.9502 35,-106 37.5917,-99.0439 42.6809,-92.5515 47.4145,-87.5732"/>
<polygon fill="#9a32cd" stroke="#9a32cd" points="28.5468,-125.5643 32.5479,-135.3745 35.5378,-125.2103 28.5468,-125.5643"/>
<text text-anchor="middle" x="47.5" y="-109" font-family="Helvetica,sans-Serif" font-size="10.00" fill="#000000"> keys</text>
</g>
<!-- Node5 -->
<g id="node4" class="node">
<title>Node5</title>
<polygon fill="#ffffff" stroke="#bfbfbf" points="67.5,-135.5 67.5,-154.5 96.5,-154.5 96.5,-135.5 67.5,-135.5"/>
<text text-anchor="middle" x="82" y="-142.5" font-family="Helvetica,sans-Serif" font-size="10.00" fill="#000000">T</text>
</g>
<!-- Node5&#45;&gt;Node3 -->
<g id="edge3" class="edge">
<title>Node5&#45;&gt;Node3</title>
<path fill="none" stroke="#9a32cd" stroke-dasharray="5,2" d="M75.1449,-125.8628C70.6607,-113.3444 64.9941,-97.5252 61.4322,-87.5817"/>
<polygon fill="#9a32cd" stroke="#9a32cd" points="71.8941,-127.1666 78.5614,-135.4005 78.484,-124.806 71.8941,-127.1666"/>
<text text-anchor="middle" x="92.5" y="-109" font-family="Helvetica,sans-Serif" font-size="10.00" fill="#000000"> elements</text>
</g>
</g>
</svg>
