<?xml version="1.0" encoding="UTF-8" standalone="no"?>
<!DOCTYPE svg PUBLIC "-//W3C//DTD SVG 1.1//EN"
 "http://www.w3.org/Graphics/SVG/1.1/DTD/svg11.dtd">
<!-- Generated by graphviz version 2.44.1 (20200629.0846)
 -->
<!-- Title: proteus::cppRANS3PF&lt; CompKernelType, nSpace, nQuadraturePoints_element, nDOF_mesh_trial_element, nDOF_trial_element, nDOF_test_element, nQuadraturePoints_elementBoundary &gt; Pages: 1 -->
<svg width="820pt" height="327pt"
 viewBox="0.00 0.00 820.00 326.50" xmlns="http://www.w3.org/2000/svg" xmlns:xlink="http://www.w3.org/1999/xlink">
<g id="graph0" class="graph" transform="scale(1 1) rotate(0) translate(4 322.5)">
<title>proteus::cppRANS3PF&lt; CompKernelType, nSpace, nQuadraturePoints_element, nDOF_mesh_trial_element, nDOF_trial_element, nDOF_test_element, nQuadraturePoints_elementBoundary &gt;</title>
<polygon fill="white" stroke="transparent" points="-4,4 -4,-322.5 816,-322.5 816,4 -4,4"/>
<!-- Node1 -->
<g id="node1" class="node">
<title>Node1</title>
<g id="a_node1"><a xlink:title=" ">
<polygon fill="#bfbfbf" stroke="black" points="579,-83.5 579,-157.5 812,-157.5 812,-83.5 579,-83.5"/>
<text text-anchor="start" x="587" y="-145.5" font-family="Helvetica,sans-Serif" font-size="10.00">proteus::cppRANS3PF</text>
<text text-anchor="start" x="587" y="-134.5" font-family="Helvetica,sans-Serif" font-size="10.00">&lt; CompKernelType, nSpace,</text>
<text text-anchor="start" x="587" y="-123.5" font-family="Helvetica,sans-Serif" font-size="10.00"> nQuadraturePoints_element,</text>
<text text-anchor="start" x="587" y="-112.5" font-family="Helvetica,sans-Serif" font-size="10.00"> nDOF_mesh_trial_element,</text>
<text text-anchor="start" x="587" y="-101.5" font-family="Helvetica,sans-Serif" font-size="10.00"> nDOF_trial_element, nDOF_test</text>
<text text-anchor="middle" x="695.5" y="-90.5" font-family="Helvetica,sans-Serif" font-size="10.00">_element, nQuadraturePoints_elementBoundary &gt;</text>
</a>
</g>
</g>
<!-- Node2 -->
<g id="node2" class="node">
<title>Node2</title>
<g id="a_node2"><a xlink:href="classproteus_1_1cpp_r_a_n_s3_p_f__base.html" target="_top" xlink:title=" ">
<polygon fill="white" stroke="black" points="285.5,-188 285.5,-207 428.5,-207 428.5,-188 285.5,-188"/>
<text text-anchor="middle" x="357" y="-195" font-family="Helvetica,sans-Serif" font-size="10.00">proteus::cppRANS3PF_base</text>
</a>
</g>
</g>
<!-- Node2&#45;&gt;Node1 -->
<g id="edge1" class="edge">
<title>Node2&#45;&gt;Node1</title>
<path fill="none" stroke="midnightblue" d="M436.99,-186.4C474.77,-180.45 520.48,-172.32 561,-162.5 567.26,-160.98 573.65,-159.33 580.08,-157.59"/>
<polygon fill="midnightblue" stroke="midnightblue" points="436.41,-182.95 427.06,-187.94 437.48,-189.87 436.41,-182.95"/>
</g>
<!-- Node3 -->
<g id="node3" class="node">
<title>Node3</title>
<g id="a_node3"><a xlink:title=" ">
<polygon fill="white" stroke="#bfbfbf" points="0,-188 0,-207 117,-207 117,-188 0,-188"/>
<text text-anchor="middle" x="58.5" y="-195" font-family="Helvetica,sans-Serif" font-size="10.00">std::valarray&lt; double &gt;</text>
</a>
</g>
</g>
<!-- Node3&#45;&gt;Node2 -->
<g id="edge2" class="edge">
<title>Node3&#45;&gt;Node2</title>
<path fill="none" stroke="#9a32cd" stroke-dasharray="5,2" d="M127.16,-197.5C174.42,-197.5 237.38,-197.5 285.3,-197.5"/>
<polygon fill="#9a32cd" stroke="#9a32cd" points="127.02,-194 117.02,-197.5 127.02,-201 127.02,-194"/>
<text text-anchor="middle" x="192.5" y="-310.5" font-family="Helvetica,sans-Serif" font-size="10.00"> TransportMatrix</text>
<text text-anchor="middle" x="192.5" y="-299.5" font-family="Helvetica,sans-Serif" font-size="10.00">TransposeTransportMatrix</text>
<text text-anchor="middle" x="192.5" y="-288.5" font-family="Helvetica,sans-Serif" font-size="10.00">den_hi</text>
<text text-anchor="middle" x="192.5" y="-277.5" font-family="Helvetica,sans-Serif" font-size="10.00">uStar_gamma</text>
<text text-anchor="middle" x="192.5" y="-266.5" font-family="Helvetica,sans-Serif" font-size="10.00">uStar_hi</text>
<text text-anchor="middle" x="192.5" y="-255.5" font-family="Helvetica,sans-Serif" font-size="10.00">uStar_min_hiHe</text>
<text text-anchor="middle" x="192.5" y="-244.5" font-family="Helvetica,sans-Serif" font-size="10.00">uStar_psi</text>
<text text-anchor="middle" x="192.5" y="-233.5" font-family="Helvetica,sans-Serif" font-size="10.00">vStar_gamma</text>
<text text-anchor="middle" x="192.5" y="-222.5" font-family="Helvetica,sans-Serif" font-size="10.00">vStar_hi</text>
<text text-anchor="middle" x="192.5" y="-211.5" font-family="Helvetica,sans-Serif" font-size="10.00">vStar_min_hiHe</text>
<text text-anchor="middle" x="192.5" y="-200.5" font-family="Helvetica,sans-Serif" font-size="10.00">...</text>
</g>
<!-- Node4 -->
<g id="node4" class="node">
<title>Node4</title>
<g id="a_node4"><a xlink:href="classproteus_1_1cpp_hsu_sed_stress.html" target="_top" xlink:title=" ">
<polygon fill="white" stroke="black" points="278,-150 278,-169 436,-169 436,-150 278,-150"/>
<text text-anchor="middle" x="357" y="-157" font-family="Helvetica,sans-Serif" font-size="10.00">proteus::cppHsuSedStress&lt; 3 &gt;</text>
</a>
</g>
</g>
<!-- Node4&#45;&gt;Node1 -->
<g id="edge3" class="edge">
<title>Node4&#45;&gt;Node1</title>
<path fill="none" stroke="#9a32cd" stroke-dasharray="5,2" d="M446.48,-150.27C482.08,-146.47 523.51,-141.92 561,-137.5 566.8,-136.82 572.74,-136.1 578.74,-135.38"/>
<polygon fill="#9a32cd" stroke="#9a32cd" points="445.69,-146.84 436.12,-151.38 446.44,-153.8 445.69,-146.84"/>
<text text-anchor="middle" x="512.5" y="-150.5" font-family="Helvetica,sans-Serif" font-size="10.00"> closure</text>
</g>
<!-- Node5 -->
<g id="node5" class="node">
<title>Node5</title>
<g id="a_node5"><a xlink:title=" ">
<polygon fill="white" stroke="#bfbfbf" points="311,-72 311,-91 403,-91 403,-72 311,-72"/>
<text text-anchor="middle" x="357" y="-79" font-family="Helvetica,sans-Serif" font-size="10.00">std::vector&lt; int &gt;</text>
</a>
</g>
</g>
<!-- Node5&#45;&gt;Node1 -->
<g id="edge4" class="edge">
<title>Node5&#45;&gt;Node1</title>
<path fill="none" stroke="#9a32cd" stroke-dasharray="5,2" d="M413.55,-79.63C429.81,-79.17 447.62,-78.73 464,-78.5 507.11,-77.89 518.39,-71.96 561,-78.5 569.29,-79.77 577.76,-81.46 586.23,-83.44"/>
<polygon fill="#9a32cd" stroke="#9a32cd" points="413.02,-76.15 403.13,-79.94 413.23,-83.14 413.02,-76.15"/>
<text text-anchor="middle" x="512.5" y="-125.5" font-family="Helvetica,sans-Serif" font-size="10.00"> surrogate_boundaries</text>
<text text-anchor="start" x="464" y="-114.5" font-family="Helvetica,sans-Serif" font-size="10.00">surrogate_boundary</text>
<text text-anchor="middle" x="512.5" y="-103.5" font-family="Helvetica,sans-Serif" font-size="10.00">_elements</text>
<text text-anchor="start" x="464" y="-92.5" font-family="Helvetica,sans-Serif" font-size="10.00">surrogate_boundary</text>
<text text-anchor="middle" x="512.5" y="-81.5" font-family="Helvetica,sans-Serif" font-size="10.00">_particle</text>
</g>
<!-- Node6 -->
<g id="node6" class="node">
<title>Node6</title>
<g id="a_node6"><a xlink:href="classequivalent__polynomials_1_1_generalized_functions__mix.html" target="_top" xlink:title=" ">
<polygon fill="white" stroke="black" points="268,-0.5 268,-52.5 446,-52.5 446,-0.5 268,-0.5"/>
<text text-anchor="start" x="276" y="-40.5" font-family="Helvetica,sans-Serif" font-size="10.00">equivalent_polynomials</text>
<text text-anchor="start" x="276" y="-29.5" font-family="Helvetica,sans-Serif" font-size="10.00">::GeneralizedFunctions</text>
<text text-anchor="start" x="276" y="-18.5" font-family="Helvetica,sans-Serif" font-size="10.00">_mix&lt; nSpace, 1, nQuadraturePoints</text>
<text text-anchor="middle" x="357" y="-7.5" font-family="Helvetica,sans-Serif" font-size="10.00">_element &gt;</text>
</a>
</g>
</g>
<!-- Node6&#45;&gt;Node1 -->
<g id="edge5" class="edge">
<title>Node6&#45;&gt;Node1</title>
<path fill="none" stroke="#9a32cd" stroke-dasharray="5,2" d="M456.51,-29.51C490.22,-32.54 527.79,-38.18 561,-48.5 587.4,-56.7 614.61,-70.29 637.51,-83.47"/>
<polygon fill="#9a32cd" stroke="#9a32cd" points="456.44,-25.99 446.19,-28.65 455.86,-32.96 456.44,-25.99"/>
<text text-anchor="middle" x="512.5" y="-62.5" font-family="Helvetica,sans-Serif" font-size="10.00"> gf</text>
<text text-anchor="middle" x="512.5" y="-51.5" font-family="Helvetica,sans-Serif" font-size="10.00">gf_s</text>
</g>
</g>
</svg>
