<?xml version="1.0" encoding="UTF-8" standalone="no"?>
<!DOCTYPE svg PUBLIC "-//W3C//DTD SVG 1.1//EN"
 "http://www.w3.org/Graphics/SVG/1.1/DTD/svg11.dtd">
<!-- Generated by graphviz version 2.44.1 (20200629.0846)
 -->
<!-- Title: proteus::RDLS&lt; CompKernelType, nSpace, nQuadraturePoints_element, nDOF_mesh_trial_element, nDOF_trial_element, nDOF_test_element, nQuadraturePoints_elementBoundary &gt; Pages: 1 -->
<svg width="701pt" height="112pt"
 viewBox="0.00 0.00 701.00 111.50" xmlns="http://www.w3.org/2000/svg" xmlns:xlink="http://www.w3.org/1999/xlink">
<g id="graph0" class="graph" transform="scale(1 1) rotate(0) translate(4 107.5)">
<title>proteus::RDLS&lt; CompKernelType, nSpace, nQuadraturePoints_element, nDOF_mesh_trial_element, nDOF_trial_element, nDOF_test_element, nQuadraturePoints_elementBoundary &gt;</title>
<polygon fill="white" stroke="transparent" points="-4,4 -4,-107.5 697,-107.5 697,4 -4,4"/>
<!-- Node1 -->
<g id="node1" class="node">
<title>Node1</title>
<g id="a_node1"><a xlink:title=" ">
<polygon fill="#bfbfbf" stroke="black" points="490,-13 490,-76 693,-76 693,-13 490,-13"/>
<text text-anchor="start" x="498" y="-64" font-family="Helvetica,sans-Serif" font-size="10.00">proteus::RDLS&lt; CompKernel</text>
<text text-anchor="start" x="498" y="-53" font-family="Helvetica,sans-Serif" font-size="10.00">Type, nSpace, nQuadraturePoints</text>
<text text-anchor="start" x="498" y="-42" font-family="Helvetica,sans-Serif" font-size="10.00">_element, nDOF_mesh_trial_element,</text>
<text text-anchor="start" x="498" y="-31" font-family="Helvetica,sans-Serif" font-size="10.00"> nDOF_trial_element, nDOF_test_element,</text>
<text text-anchor="middle" x="591.5" y="-20" font-family="Helvetica,sans-Serif" font-size="10.00"> nQuadraturePoints_elementBoundary &gt;</text>
</a>
</g>
</g>
<!-- Node2 -->
<g id="node2" class="node">
<title>Node2</title>
<g id="a_node2"><a xlink:href="classproteus_1_1_r_d_l_s__base.html" target="_top" xlink:title=" ">
<polygon fill="white" stroke="black" points="297,-72 297,-91 405,-91 405,-72 297,-72"/>
<text text-anchor="middle" x="351" y="-79" font-family="Helvetica,sans-Serif" font-size="10.00">proteus::RDLS_base</text>
</a>
</g>
</g>
<!-- Node2&#45;&gt;Node1 -->
<g id="edge1" class="edge">
<title>Node2&#45;&gt;Node1</title>
<path fill="none" stroke="midnightblue" d="M415.16,-71.7C438.09,-68.14 464.6,-64.03 489.96,-60.1"/>
<polygon fill="midnightblue" stroke="midnightblue" points="414.57,-68.25 405.23,-73.24 415.65,-75.17 414.57,-68.25"/>
</g>
<!-- Node3 -->
<g id="node3" class="node">
<title>Node3</title>
<g id="a_node3"><a xlink:title=" ">
<polygon fill="white" stroke="#bfbfbf" points="0,-72 0,-91 117,-91 117,-72 0,-72"/>
<text text-anchor="middle" x="58.5" y="-79" font-family="Helvetica,sans-Serif" font-size="10.00">std::valarray&lt; double &gt;</text>
</a>
</g>
</g>
<!-- Node3&#45;&gt;Node2 -->
<g id="edge2" class="edge">
<title>Node3&#45;&gt;Node2</title>
<path fill="none" stroke="#9a32cd" stroke-dasharray="5,2" d="M127.32,-81.5C178.98,-81.5 249.11,-81.5 296.77,-81.5"/>
<polygon fill="#9a32cd" stroke="#9a32cd" points="127.24,-78 117.24,-81.5 127.24,-85 127.24,-78"/>
<text text-anchor="start" x="135" y="-95.5" font-family="Helvetica,sans-Serif" font-size="10.00"> weighted_lumped_mass</text>
<text text-anchor="middle" x="189.5" y="-84.5" font-family="Helvetica,sans-Serif" font-size="10.00">_matrix</text>
</g>
<!-- Node4 -->
<g id="node4" class="node">
<title>Node4</title>
<g id="a_node4"><a xlink:href="classequivalent__polynomials_1_1_generalized_functions__mix.html" target="_top" xlink:title=" ">
<polygon fill="white" stroke="black" points="262,-0.5 262,-52.5 440,-52.5 440,-0.5 262,-0.5"/>
<text text-anchor="start" x="270" y="-40.5" font-family="Helvetica,sans-Serif" font-size="10.00">equivalent_polynomials</text>
<text text-anchor="start" x="270" y="-29.5" font-family="Helvetica,sans-Serif" font-size="10.00">::GeneralizedFunctions</text>
<text text-anchor="start" x="270" y="-18.5" font-family="Helvetica,sans-Serif" font-size="10.00">_mix&lt; nSpace, 1, nQuadraturePoints</text>
<text text-anchor="middle" x="351" y="-7.5" font-family="Helvetica,sans-Serif" font-size="10.00">_element &gt;</text>
</a>
</g>
</g>
<!-- Node4&#45;&gt;Node1 -->
<g id="edge3" class="edge">
<title>Node4&#45;&gt;Node1</title>
<path fill="none" stroke="#9a32cd" stroke-dasharray="5,2" d="M450.47,-33.93C463.47,-34.91 476.82,-35.92 489.85,-36.9"/>
<polygon fill="#9a32cd" stroke="#9a32cd" points="450.37,-30.41 440.13,-33.15 449.84,-37.39 450.37,-30.41"/>
<text text-anchor="middle" x="465" y="-49.5" font-family="Helvetica,sans-Serif" font-size="10.00"> gf</text>
<text text-anchor="middle" x="465" y="-38.5" font-family="Helvetica,sans-Serif" font-size="10.00">gfu</text>
</g>
</g>
</svg>
