<?xml version="1.0" encoding="UTF-8" standalone="no"?>
<!DOCTYPE svg PUBLIC "-//W3C//DTD SVG 1.1//EN"
 "http://www.w3.org/Graphics/SVG/1.1/DTD/svg11.dtd">
<!-- Generated by graphviz version 2.43.0 (0)
 -->
<!-- Title: proteus::RDLS&lt; CompKernelType, nSpace, nQuadraturePoints_element, nDOF_mesh_trial_element, nDOF_trial_element, nDOF_test_element, nQuadraturePoints_elementBoundary &gt; Pages: 1 -->
<svg width="841pt" height="112pt"
 viewBox="0.00 0.00 841.00 111.50" xmlns="http://www.w3.org/2000/svg" xmlns:xlink="http://www.w3.org/1999/xlink">
<g id="graph0" class="graph" transform="scale(1 1) rotate(0) translate(4 107.5)">
<title>proteus::RDLS&lt; CompKernelType, nSpace, nQuadraturePoints_element, nDOF_mesh_trial_element, nDOF_trial_element, nDOF_test_element, nQuadraturePoints_elementBoundary &gt;</title>
<polygon fill="white" stroke="transparent" points="-4,4 -4,-107.5 837,-107.5 837,4 -4,4"/>
<!-- Node1 -->
<g id="node1" class="node">
<title>Node1</title>
<g id="a_node1"><a xlink:title=" ">
<polygon fill="#bfbfbf" stroke="black" points="610,-13 610,-76 833,-76 833,-13 610,-13"/>
<text text-anchor="start" x="618" y="-64" font-family="Helvetica,sans-Serif" font-size="10.00">proteus::RDLS&lt; CompKernel</text>
<text text-anchor="start" x="618" y="-53" font-family="Helvetica,sans-Serif" font-size="10.00">Type, nSpace, nQuadraturePoints</text>
<text text-anchor="start" x="618" y="-42" font-family="Helvetica,sans-Serif" font-size="10.00">_element, nDOF_mesh_trial_element,</text>
<text text-anchor="start" x="618" y="-31" font-family="Helvetica,sans-Serif" font-size="10.00"> nDOF_trial_element, nDOF_test_element,</text>
<text text-anchor="middle" x="721.5" y="-20" font-family="Helvetica,sans-Serif" font-size="10.00"> nQuadraturePoints_elementBoundary &gt;</text>
</a>
</g>
</g>
<!-- Node2 -->
<g id="node2" class="node">
<title>Node2</title>
<g id="a_node2"><a xlink:href="classproteus_1_1_r_d_l_s__base.html" target="_top" xlink:title=" ">
<polygon fill="white" stroke="black" points="367,-72 367,-91 480,-91 480,-72 367,-72"/>
<text text-anchor="middle" x="423.5" y="-79" font-family="Helvetica,sans-Serif" font-size="10.00">proteus::RDLS_base</text>
</a>
</g>
</g>
<!-- Node2&#45;&gt;Node1 -->
<g id="edge1" class="edge">
<title>Node2&#45;&gt;Node1</title>
<path fill="none" stroke="midnightblue" d="M490.31,-73.27C525.45,-68.88 569.64,-63.36 609.89,-58.33"/>
<polygon fill="midnightblue" stroke="midnightblue" points="489.66,-69.83 480.18,-74.54 490.53,-76.77 489.66,-69.83"/>
</g>
<!-- Node3 -->
<g id="node3" class="node">
<title>Node3</title>
<g id="a_node3"><a xlink:title=" ">
<polygon fill="white" stroke="#bfbfbf" points="0,-72 0,-91 134,-91 134,-72 0,-72"/>
<text text-anchor="middle" x="67" y="-79" font-family="Helvetica,sans-Serif" font-size="10.00">std::valarray&lt; double &gt;</text>
</a>
</g>
</g>
<!-- Node3&#45;&gt;Node2 -->
<g id="edge2" class="edge">
<title>Node3&#45;&gt;Node2</title>
<path fill="none" stroke="#9a32cd" stroke-dasharray="5,2" d="M144.33,-81.5C211.21,-81.5 306.84,-81.5 366.76,-81.5"/>
<polygon fill="#9a32cd" stroke="#9a32cd" points="144.26,-78 134.26,-81.5 144.26,-85 144.26,-78"/>
<text text-anchor="start" x="152" y="-95.5" font-family="Helvetica,sans-Serif" font-size="10.00"> weighted_lumped_mass</text>
<text text-anchor="middle" x="213" y="-84.5" font-family="Helvetica,sans-Serif" font-size="10.00">_matrix</text>
</g>
<!-- Node4 -->
<g id="node4" class="node">
<title>Node4</title>
<g id="a_node4"><a xlink:href="classequivalent__polynomials_1_1_generalized_functions__mix.html" target="_top" xlink:title=" ">
<polygon fill="white" stroke="black" points="292,-0.5 292,-52.5 555,-52.5 555,-0.5 292,-0.5"/>
<text text-anchor="start" x="300" y="-40.5" font-family="Helvetica,sans-Serif" font-size="10.00">equivalent_polynomials</text>
<text text-anchor="start" x="300" y="-29.5" font-family="Helvetica,sans-Serif" font-size="10.00">::GeneralizedFunctions</text>
<text text-anchor="start" x="300" y="-18.5" font-family="Helvetica,sans-Serif" font-size="10.00">_mix&lt; nSpace, 2, nQuadraturePoints</text>
<text text-anchor="middle" x="423.5" y="-7.5" font-family="Helvetica,sans-Serif" font-size="10.00">_element, nQuadraturePoints_elementBoundary &gt;</text>
</a>
</g>
</g>
<!-- Node4&#45;&gt;Node1 -->
<g id="edge3" class="edge">
<title>Node4&#45;&gt;Node1</title>
<path fill="none" stroke="#9a32cd" stroke-dasharray="5,2" d="M565.43,-34.89C574.42,-35.43 583.34,-35.97 592,-36.5 597.8,-36.85 603.75,-37.22 609.75,-37.59"/>
<polygon fill="#9a32cd" stroke="#9a32cd" points="565.45,-31.38 555.26,-34.27 565.03,-38.37 565.45,-31.38"/>
<text text-anchor="middle" x="582.5" y="-50.5" font-family="Helvetica,sans-Serif" font-size="10.00"> gfu</text>
<text text-anchor="middle" x="582.5" y="-39.5" font-family="Helvetica,sans-Serif" font-size="10.00">gf</text>
</g>
</g>
</svg>
