<?xml version="1.0" encoding="UTF-8" standalone="no"?>
<!DOCTYPE svg PUBLIC "-//W3C//DTD SVG 1.1//EN"
 "http://www.w3.org/Graphics/SVG/1.1/DTD/svg11.dtd">
<!-- Generated by graphviz version 2.40.1 (20161225.0304)
 -->
<!-- Title: proteus::MoveMesh&lt; CompKernelType, nSpace, nQuadraturePoints_element, nDOF_mesh_trial_element, nDOF_trial_element, nDOF_test_element, nQuadraturePoints_elementBoundary &gt; Pages: 1 -->
<svg width="255pt" height="150pt"
 viewBox="0.00 0.00 255.00 150.00" xmlns="http://www.w3.org/2000/svg" xmlns:xlink="http://www.w3.org/1999/xlink">
<g id="graph0" class="graph" transform="scale(1 1) rotate(0) translate(4 146)">
<title>proteus::MoveMesh&lt; CompKernelType, nSpace, nQuadraturePoints_element, nDOF_mesh_trial_element, nDOF_trial_element, nDOF_test_element, nQuadraturePoints_elementBoundary &gt;</title>
<polygon fill="#ffffff" stroke="transparent" points="-4,4 -4,-146 251,-146 251,4 -4,4"/>
<!-- Node2 -->
<g id="node1" class="node">
<title>Node2</title>
<polygon fill="#bfbfbf" stroke="#000000" points="14,-.5 14,-74.5 247,-74.5 247,-.5 14,-.5"/>
<text text-anchor="start" x="22" y="-62.5" font-family="Helvetica,sans-Serif" font-size="10.00" fill="#000000">proteus::MoveMesh&lt;</text>
<text text-anchor="start" x="22" y="-51.5" font-family="Helvetica,sans-Serif" font-size="10.00" fill="#000000"> CompKernelType, nSpace,</text>
<text text-anchor="start" x="22" y="-40.5" font-family="Helvetica,sans-Serif" font-size="10.00" fill="#000000"> nQuadraturePoints_element,</text>
<text text-anchor="start" x="22" y="-29.5" font-family="Helvetica,sans-Serif" font-size="10.00" fill="#000000"> nDOF_mesh_trial_element,</text>
<text text-anchor="start" x="22" y="-18.5" font-family="Helvetica,sans-Serif" font-size="10.00" fill="#000000"> nDOF_trial_element, nDOF_test</text>
<text text-anchor="middle" x="130.5" y="-7.5" font-family="Helvetica,sans-Serif" font-size="10.00" fill="#000000">_element, nQuadraturePoints_elementBoundary &gt;</text>
</g>
<!-- Node3 -->
<g id="node2" class="node">
<title>Node3</title>
<g id="a_node2"><a xlink:href="classproteus_1_1_move_mesh__base.html" target="_top" xlink:title="proteus::MoveMesh_base">
<polygon fill="#ffffff" stroke="#000000" points="0,-122.5 0,-141.5 129,-141.5 129,-122.5 0,-122.5"/>
<text text-anchor="middle" x="64.5" y="-129.5" font-family="Helvetica,sans-Serif" font-size="10.00" fill="#000000">proteus::MoveMesh_base</text>
</a>
</g>
</g>
<!-- Node3&#45;&gt;Node2 -->
<g id="edge1" class="edge">
<title>Node3&#45;&gt;Node2</title>
<path fill="none" stroke="#191970" d="M77.1771,-113.8487C84.9269,-102.7525 95.1253,-88.1501 104.5261,-74.6899"/>
<polygon fill="#191970" stroke="#191970" points="74.171,-112.0403 71.3146,-122.2428 79.91,-116.0484 74.171,-112.0403"/>
</g>
<!-- Node4 -->
<g id="node3" class="node">
<title>Node4</title>
<g id="a_node3"><a xlink:href="class_e_index.html" target="_top" xlink:title="EIndex\&lt; nSpace \&gt;">
<polygon fill="#ffffff" stroke="#000000" points="147.5,-122.5 147.5,-141.5 245.5,-141.5 245.5,-122.5 147.5,-122.5"/>
<text text-anchor="middle" x="196.5" y="-129.5" font-family="Helvetica,sans-Serif" font-size="10.00" fill="#000000">EIndex&lt; nSpace &gt;</text>
</a>
</g>
</g>
<!-- Node4&#45;&gt;Node2 -->
<g id="edge2" class="edge">
<title>Node4&#45;&gt;Node2</title>
<path fill="none" stroke="#9a32cd" stroke-dasharray="5,2" d="M183.8229,-113.8487C176.0731,-102.7525 165.8747,-88.1501 156.4739,-74.6899"/>
<polygon fill="#9a32cd" stroke="#9a32cd" points="181.09,-116.0484 189.6854,-122.2428 186.829,-112.0403 181.09,-116.0484"/>
<text text-anchor="middle" x="180" y="-96" font-family="Helvetica,sans-Serif" font-size="10.00" fill="#000000"> ei</text>
</g>
</g>
</svg>
