<?xml version="1.0" encoding="UTF-8" standalone="no"?>
<!DOCTYPE svg PUBLIC "-//W3C//DTD SVG 1.1//EN"
 "http://www.w3.org/Graphics/SVG/1.1/DTD/svg11.dtd">
<!-- Generated by graphviz version 2.40.1 (20161225.0304)
 -->
<!-- Title: proteus::MoveMesh2D&lt; CompKernelType, nSpace, nQuadraturePoints_element, nDOF_mesh_trial_element, nDOF_trial_element, nDOF_test_element, nQuadraturePoints_elementBoundary &gt; Pages: 1 -->
<svg width="266pt" height="150pt"
 viewBox="0.00 0.00 266.00 150.00" xmlns="http://www.w3.org/2000/svg" xmlns:xlink="http://www.w3.org/1999/xlink">
<g id="graph0" class="graph" transform="scale(1 1) rotate(0) translate(4 146)">
<title>proteus::MoveMesh2D&lt; CompKernelType, nSpace, nQuadraturePoints_element, nDOF_mesh_trial_element, nDOF_trial_element, nDOF_test_element, nQuadraturePoints_elementBoundary &gt;</title>
<polygon fill="#ffffff" stroke="transparent" points="-4,4 -4,-146 262,-146 262,4 -4,4"/>
<!-- Node2 -->
<g id="node1" class="node">
<title>Node2</title>
<polygon fill="#bfbfbf" stroke="#000000" points="23.5,-.5 23.5,-74.5 256.5,-74.5 256.5,-.5 23.5,-.5"/>
<text text-anchor="start" x="31.5" y="-62.5" font-family="Helvetica,sans-Serif" font-size="10.00" fill="#000000">proteus::MoveMesh2D</text>
<text text-anchor="start" x="31.5" y="-51.5" font-family="Helvetica,sans-Serif" font-size="10.00" fill="#000000">&lt; CompKernelType, nSpace,</text>
<text text-anchor="start" x="31.5" y="-40.5" font-family="Helvetica,sans-Serif" font-size="10.00" fill="#000000"> nQuadraturePoints_element,</text>
<text text-anchor="start" x="31.5" y="-29.5" font-family="Helvetica,sans-Serif" font-size="10.00" fill="#000000"> nDOF_mesh_trial_element,</text>
<text text-anchor="start" x="31.5" y="-18.5" font-family="Helvetica,sans-Serif" font-size="10.00" fill="#000000"> nDOF_trial_element, nDOF_test</text>
<text text-anchor="middle" x="140" y="-7.5" font-family="Helvetica,sans-Serif" font-size="10.00" fill="#000000">_element, nQuadraturePoints_elementBoundary &gt;</text>
</g>
<!-- Node3 -->
<g id="node2" class="node">
<title>Node3</title>
<g id="a_node2"><a xlink:href="classproteus_1_1_move_mesh2_d__base.html" target="_top" xlink:title="proteus::MoveMesh2D_base">
<polygon fill="#ffffff" stroke="#000000" points="0,-122.5 0,-141.5 142,-141.5 142,-122.5 0,-122.5"/>
<text text-anchor="middle" x="71" y="-129.5" font-family="Helvetica,sans-Serif" font-size="10.00" fill="#000000">proteus::MoveMesh2D_base</text>
</a>
</g>
</g>
<!-- Node3&#45;&gt;Node2 -->
<g id="edge1" class="edge">
<title>Node3&#45;&gt;Node2</title>
<path fill="none" stroke="#191970" d="M84.2534,-113.8487C92.3553,-102.7525 103.0174,-88.1501 112.8454,-74.6899"/>
<polygon fill="#191970" stroke="#191970" points="81.1946,-112.1025 78.1243,-122.2428 86.848,-116.2304 81.1946,-112.1025"/>
</g>
<!-- Node4 -->
<g id="node3" class="node">
<title>Node4</title>
<g id="a_node3"><a xlink:href="class_e_index.html" target="_top" xlink:title="EIndex\&lt; nSpace \&gt;">
<polygon fill="#ffffff" stroke="#000000" points="160,-122.5 160,-141.5 258,-141.5 258,-122.5 160,-122.5"/>
<text text-anchor="middle" x="209" y="-129.5" font-family="Helvetica,sans-Serif" font-size="10.00" fill="#000000">EIndex&lt; nSpace &gt;</text>
</a>
</g>
</g>
<!-- Node4&#45;&gt;Node2 -->
<g id="edge2" class="edge">
<title>Node4&#45;&gt;Node2</title>
<path fill="none" stroke="#9a32cd" stroke-dasharray="5,2" d="M195.7466,-113.8487C187.6447,-102.7525 176.9826,-88.1501 167.1546,-74.6899"/>
<polygon fill="#9a32cd" stroke="#9a32cd" points="193.152,-116.2304 201.8757,-122.2428 198.8054,-112.1025 193.152,-116.2304"/>
<text text-anchor="middle" x="191.5" y="-96" font-family="Helvetica,sans-Serif" font-size="10.00" fill="#000000"> ei</text>
</g>
</g>
</svg>
