<?xml version="1.0" encoding="UTF-8" standalone="no"?>
<!DOCTYPE svg PUBLIC "-//W3C//DTD SVG 1.1//EN"
 "http://www.w3.org/Graphics/SVG/1.1/DTD/svg11.dtd">
<!-- Generated by graphviz version 2.50.0 (20211204.2007)
 -->
<!-- Title: proteus::cppRANS3PF2D&lt; CompKernelType, nSpace, nQuadraturePoints_element, nDOF_mesh_trial_element, nDOF_trial_element, nDOF_test_element, nQuadraturePoints_elementBoundary &gt; Pages: 1 -->
<svg width="875pt" height="310pt"
 viewBox="0.00 0.00 875.00 309.50" xmlns="http://www.w3.org/2000/svg" xmlns:xlink="http://www.w3.org/1999/xlink">
<g id="graph0" class="graph" transform="scale(1 1) rotate(0) translate(4 305.5)">
<title>proteus::cppRANS3PF2D&lt; CompKernelType, nSpace, nQuadraturePoints_element, nDOF_mesh_trial_element, nDOF_trial_element, nDOF_test_element, nQuadraturePoints_elementBoundary &gt;</title>
<polygon fill="white" stroke="transparent" points="-4,4 -4,-305.5 871,-305.5 871,4 -4,4"/>
<!-- Node1 -->
<g id="node1" class="node">
<title>Node1</title>
<g id="a_node1"><a xlink:title=" ">
<polygon fill="#bfbfbf" stroke="black" points="634,-122.5 634,-196.5 867,-196.5 867,-122.5 634,-122.5"/>
<text text-anchor="start" x="642" y="-184.5" font-family="Helvetica,sans-Serif" font-size="10.00">proteus::cppRANS3PF2D</text>
<text text-anchor="start" x="642" y="-173.5" font-family="Helvetica,sans-Serif" font-size="10.00">&lt; CompKernelType, nSpace,</text>
<text text-anchor="start" x="642" y="-162.5" font-family="Helvetica,sans-Serif" font-size="10.00"> nQuadraturePoints_element,</text>
<text text-anchor="start" x="642" y="-151.5" font-family="Helvetica,sans-Serif" font-size="10.00"> nDOF_mesh_trial_element,</text>
<text text-anchor="start" x="642" y="-140.5" font-family="Helvetica,sans-Serif" font-size="10.00"> nDOF_trial_element, nDOF_test</text>
<text text-anchor="middle" x="750.5" y="-129.5" font-family="Helvetica,sans-Serif" font-size="10.00">_element, nQuadraturePoints_elementBoundary &gt;</text>
</a>
</g>
</g>
<!-- Node2 -->
<g id="node2" class="node">
<title>Node2</title>
<g id="a_node2"><a xlink:href="classproteus_1_1cpp_r_a_n_s3_p_f2_d__base.html" target="_top" xlink:title=" ">
<polygon fill="white" stroke="black" points="306.5,-185 306.5,-204 462.5,-204 462.5,-185 306.5,-185"/>
<text text-anchor="middle" x="384.5" y="-192" font-family="Helvetica,sans-Serif" font-size="10.00">proteus::cppRANS3PF2D_base</text>
</a>
</g>
</g>
<!-- Node2&#45;&gt;Node1 -->
<g id="edge1" class="edge">
<title>Node2&#45;&gt;Node1</title>
<path fill="none" stroke="midnightblue" d="M472.77,-186.21C515.88,-182.1 568.68,-177.06 616,-172.5 621.79,-171.94 627.73,-171.37 633.73,-170.79"/>
<polygon fill="midnightblue" stroke="midnightblue" points="472.22,-182.75 462.6,-187.18 472.89,-189.71 472.22,-182.75"/>
</g>
<!-- Node3 -->
<g id="node3" class="node">
<title>Node3</title>
<g id="a_node3"><a xlink:title=" ">
<polygon fill="white" stroke="#bfbfbf" points="0,-208 0,-227 117,-227 117,-208 0,-208"/>
<text text-anchor="middle" x="58.5" y="-215" font-family="Helvetica,sans-Serif" font-size="10.00">std::valarray&lt; double &gt;</text>
</a>
</g>
</g>
<!-- Node3&#45;&gt;Node1 -->
<g id="edge4" class="edge">
<title>Node3&#45;&gt;Node1</title>
<path fill="none" stroke="#9a32cd" stroke-dasharray="5,2" d="M76.12,-234.12C90.37,-247.12 112.17,-264.18 135,-271.5 183.67,-287.11 199.19,-277.06 250,-271.5 383.4,-256.91 533.21,-220.57 633.67,-193.21"/>
<polygon fill="#9a32cd" stroke="#9a32cd" points="78.31,-231.38 68.65,-227.04 73.5,-236.46 78.31,-231.38"/>
<text text-anchor="middle" x="384.5" y="-293.5" font-family="Helvetica,sans-Serif" font-size="10.00"> TransportMatrix</text>
<text text-anchor="middle" x="384.5" y="-282.5" font-family="Helvetica,sans-Serif" font-size="10.00">TransposeTransportMatrix</text>
<text text-anchor="middle" x="384.5" y="-271.5" font-family="Helvetica,sans-Serif" font-size="10.00">psi</text>
</g>
<!-- Node3&#45;&gt;Node2 -->
<g id="edge2" class="edge">
<title>Node3&#45;&gt;Node2</title>
<path fill="none" stroke="#9a32cd" stroke-dasharray="5,2" d="M73.12,-199.55C86.73,-183.24 109.29,-160.26 135,-150.5 182.78,-132.36 204.51,-127.2 250,-150.5 262.19,-156.74 256.36,-168.29 268,-175.5 279.49,-182.62 292.8,-187.32 306.21,-190.38"/>
<polygon fill="#9a32cd" stroke="#9a32cd" points="70.03,-197.81 66.51,-207.81 75.49,-202.18 70.03,-197.81"/>
<text text-anchor="middle" x="192.5" y="-263.5" font-family="Helvetica,sans-Serif" font-size="10.00"> TransportMatrix</text>
<text text-anchor="middle" x="192.5" y="-252.5" font-family="Helvetica,sans-Serif" font-size="10.00">TransposeTransportMatrix</text>
<text text-anchor="middle" x="192.5" y="-241.5" font-family="Helvetica,sans-Serif" font-size="10.00">den_hi</text>
<text text-anchor="middle" x="192.5" y="-230.5" font-family="Helvetica,sans-Serif" font-size="10.00">uStar_gamma</text>
<text text-anchor="middle" x="192.5" y="-219.5" font-family="Helvetica,sans-Serif" font-size="10.00">uStar_hi</text>
<text text-anchor="middle" x="192.5" y="-208.5" font-family="Helvetica,sans-Serif" font-size="10.00">uStar_min_hiHe</text>
<text text-anchor="middle" x="192.5" y="-197.5" font-family="Helvetica,sans-Serif" font-size="10.00">uStar_psi</text>
<text text-anchor="middle" x="192.5" y="-186.5" font-family="Helvetica,sans-Serif" font-size="10.00">vStar_gamma</text>
<text text-anchor="middle" x="192.5" y="-175.5" font-family="Helvetica,sans-Serif" font-size="10.00">vStar_hi</text>
<text text-anchor="middle" x="192.5" y="-164.5" font-family="Helvetica,sans-Serif" font-size="10.00">vStar_min_hiHe</text>
<text text-anchor="middle" x="192.5" y="-153.5" font-family="Helvetica,sans-Serif" font-size="10.00">...</text>
</g>
<!-- Node4 -->
<g id="node4" class="node">
<title>Node4</title>
<g id="a_node4"><a xlink:href="classproteus_1_1cpp_hsu_sed_stress.html" target="_top" xlink:title=" ">
<polygon fill="white" stroke="black" points="305.5,-147 305.5,-166 463.5,-166 463.5,-147 305.5,-147"/>
<text text-anchor="middle" x="384.5" y="-154" font-family="Helvetica,sans-Serif" font-size="10.00">proteus::cppHsuSedStress&lt; 2 &gt;</text>
</a>
</g>
</g>
<!-- Node4&#45;&gt;Node1 -->
<g id="edge3" class="edge">
<title>Node4&#45;&gt;Node1</title>
<path fill="none" stroke="#9a32cd" stroke-dasharray="5,2" d="M473.67,-157.23C521.8,-157.62 581.99,-158.12 633.86,-158.55"/>
<polygon fill="#9a32cd" stroke="#9a32cd" points="473.62,-153.73 463.59,-157.14 473.56,-160.73 473.62,-153.73"/>
<text text-anchor="middle" x="567.5" y="-160.5" font-family="Helvetica,sans-Serif" font-size="10.00"> closure</text>
</g>
<!-- Node5 -->
<g id="node5" class="node">
<title>Node5</title>
<g id="a_node5"><a xlink:title=" ">
<polygon fill="white" stroke="#bfbfbf" points="338.5,-72 338.5,-91 430.5,-91 430.5,-72 338.5,-72"/>
<text text-anchor="middle" x="384.5" y="-79" font-family="Helvetica,sans-Serif" font-size="10.00">std::vector&lt; int &gt;</text>
</a>
</g>
</g>
<!-- Node5&#45;&gt;Node1 -->
<g id="edge5" class="edge">
<title>Node5&#45;&gt;Node1</title>
<path fill="none" stroke="#9a32cd" stroke-dasharray="5,2" d="M440.91,-80.14C488.16,-80.26 557.52,-83.5 616,-98.5 637.72,-104.07 660.28,-113.02 680.54,-122.37"/>
<polygon fill="#9a32cd" stroke="#9a32cd" points="440.87,-76.64 430.88,-80.16 440.88,-83.64 440.87,-76.64"/>
<text text-anchor="middle" x="567.5" y="-145.5" font-family="Helvetica,sans-Serif" font-size="10.00"> surrogate_boundaries</text>
<text text-anchor="start" x="519" y="-134.5" font-family="Helvetica,sans-Serif" font-size="10.00">surrogate_boundary</text>
<text text-anchor="middle" x="567.5" y="-123.5" font-family="Helvetica,sans-Serif" font-size="10.00">_elements</text>
<text text-anchor="start" x="519" y="-112.5" font-family="Helvetica,sans-Serif" font-size="10.00">surrogate_boundary</text>
<text text-anchor="middle" x="567.5" y="-101.5" font-family="Helvetica,sans-Serif" font-size="10.00">_particle</text>
</g>
<!-- Node6 -->
<g id="node6" class="node">
<title>Node6</title>
<g id="a_node6"><a xlink:href="classequivalent__polynomials_1_1_generalized_functions__mix.html" target="_top" xlink:title=" ">
<polygon fill="white" stroke="black" points="268,-0.5 268,-52.5 501,-52.5 501,-0.5 268,-0.5"/>
<text text-anchor="start" x="276" y="-40.5" font-family="Helvetica,sans-Serif" font-size="10.00">equivalent_polynomials</text>
<text text-anchor="start" x="276" y="-29.5" font-family="Helvetica,sans-Serif" font-size="10.00">::GeneralizedFunctions</text>
<text text-anchor="start" x="276" y="-18.5" font-family="Helvetica,sans-Serif" font-size="10.00">_mix&lt; nSpace, 1, nQuadraturePoints</text>
<text text-anchor="middle" x="384.5" y="-7.5" font-family="Helvetica,sans-Serif" font-size="10.00">_element, nQuadraturePoints_elementBoundary &gt;</text>
</a>
</g>
</g>
<!-- Node6&#45;&gt;Node1 -->
<g id="edge6" class="edge">
<title>Node6&#45;&gt;Node1</title>
<path fill="none" stroke="#9a32cd" stroke-dasharray="5,2" d="M511.36,-31.54C546.22,-36.09 583.41,-43.99 616,-57.5 652.1,-72.47 686.99,-99.72 712.04,-122.28"/>
<polygon fill="#9a32cd" stroke="#9a32cd" points="511.46,-28.03 501.11,-30.29 510.61,-34.98 511.46,-28.03"/>
<text text-anchor="middle" x="567.5" y="-71.5" font-family="Helvetica,sans-Serif" font-size="10.00"> gf</text>
<text text-anchor="middle" x="567.5" y="-60.5" font-family="Helvetica,sans-Serif" font-size="10.00">gf_s</text>
</g>
</g>
</svg>
