<?xml version="1.0" encoding="UTF-8" standalone="no"?>
<!DOCTYPE svg PUBLIC "-//W3C//DTD SVG 1.1//EN"
 "http://www.w3.org/Graphics/SVG/1.1/DTD/svg11.dtd">
<!-- Generated by graphviz version 2.43.0 (0)
 -->
<!-- Title: proteus::RANS2P&lt; CompKernelType, CompKernelType_v, nSpace, nQuadraturePoints_element, nDOF_mesh_trial_element, nDOF_trial_element, nDOF_test_element, nDOF_v_trial_element, nDOF_v_test_element, nQuadraturePoints_elementBoundary &gt; Pages: 1 -->
<svg width="659pt" height="178pt"
 viewBox="0.00 0.00 659.00 178.00" xmlns="http://www.w3.org/2000/svg" xmlns:xlink="http://www.w3.org/1999/xlink">
<g id="graph0" class="graph" transform="scale(1 1) rotate(0) translate(4 174)">
<title>proteus::RANS2P&lt; CompKernelType, CompKernelType_v, nSpace, nQuadraturePoints_element, nDOF_mesh_trial_element, nDOF_trial_element, nDOF_test_element, nDOF_v_trial_element, nDOF_v_test_element, nQuadraturePoints_elementBoundary &gt;</title>
<polygon fill="white" stroke="transparent" points="-4,4 -4,-174 655,-174 655,4 -4,4"/>
<!-- Node1 -->
<g id="node1" class="node">
<title>Node1</title>
<g id="a_node1"><a xlink:title=" ">
<polygon fill="#bfbfbf" stroke="black" points="427,-46 427,-142 651,-142 651,-46 427,-46"/>
<text text-anchor="start" x="435" y="-130" font-family="Helvetica,sans-Serif" font-size="10.00">proteus::RANS2P&lt; CompKernel</text>
<text text-anchor="start" x="435" y="-119" font-family="Helvetica,sans-Serif" font-size="10.00">Type, CompKernelType_v,</text>
<text text-anchor="start" x="435" y="-108" font-family="Helvetica,sans-Serif" font-size="10.00"> nSpace, nQuadraturePoints</text>
<text text-anchor="start" x="435" y="-97" font-family="Helvetica,sans-Serif" font-size="10.00">_element, nDOF_mesh_trial_element,</text>
<text text-anchor="start" x="435" y="-86" font-family="Helvetica,sans-Serif" font-size="10.00"> nDOF_trial_element, nDOF_test</text>
<text text-anchor="start" x="435" y="-75" font-family="Helvetica,sans-Serif" font-size="10.00">_element, nDOF_v_trial_element,</text>
<text text-anchor="start" x="435" y="-64" font-family="Helvetica,sans-Serif" font-size="10.00"> nDOF_v_test_element, nQuadraturePoints</text>
<text text-anchor="middle" x="539" y="-53" font-family="Helvetica,sans-Serif" font-size="10.00">_elementBoundary &gt;</text>
</a>
</g>
</g>
<!-- Node2 -->
<g id="node2" class="node">
<title>Node2</title>
<g id="a_node2"><a xlink:href="classproteus_1_1_r_a_n_s2_p__base.html" target="_top" xlink:title=" ">
<polygon fill="white" stroke="black" points="68,-150.5 68,-169.5 195,-169.5 195,-150.5 68,-150.5"/>
<text text-anchor="middle" x="131.5" y="-157.5" font-family="Helvetica,sans-Serif" font-size="10.00">proteus::RANS2P_base</text>
</a>
</g>
</g>
<!-- Node2&#45;&gt;Node1 -->
<g id="edge1" class="edge">
<title>Node2&#45;&gt;Node1</title>
<path fill="none" stroke="midnightblue" d="M205.32,-153.47C261.29,-147.87 340.39,-138.68 409,-126 414.79,-124.93 420.7,-123.76 426.66,-122.51"/>
<polygon fill="midnightblue" stroke="midnightblue" points="204.76,-150.01 195.15,-154.48 205.44,-156.98 204.76,-150.01"/>
</g>
<!-- Node3 -->
<g id="node3" class="node">
<title>Node3</title>
<g id="a_node3"><a xlink:title=" ">
<polygon fill="white" stroke="#bfbfbf" points="75,-112.5 75,-131.5 188,-131.5 188,-112.5 75,-112.5"/>
<text text-anchor="middle" x="131.5" y="-119.5" font-family="Helvetica,sans-Serif" font-size="10.00">std::map&lt; int, int &gt;</text>
</a>
</g>
</g>
<!-- Node3&#45;&gt;Node1 -->
<g id="edge2" class="edge">
<title>Node3&#45;&gt;Node1</title>
<path fill="none" stroke="#9a32cd" stroke-dasharray="5,2" d="M198.02,-117.48C259.68,-113.22 353.24,-106.76 426.61,-101.69"/>
<polygon fill="#9a32cd" stroke="#9a32cd" points="197.77,-113.98 188.03,-118.17 198.25,-120.97 197.77,-113.98"/>
<text text-anchor="middle" x="345" y="-114" font-family="Helvetica,sans-Serif" font-size="10.00"> cutfem_local_boundaries</text>
</g>
<!-- Node4 -->
<g id="node4" class="node">
<title>Node4</title>
<g id="a_node4"><a xlink:href="classequivalent__polynomials_1_1_generalized_functions__mix.html" target="_top" xlink:title=" ">
<polygon fill="white" stroke="black" points="0,-40 0,-92 263,-92 263,-40 0,-40"/>
<text text-anchor="start" x="8" y="-80" font-family="Helvetica,sans-Serif" font-size="10.00">equivalent_polynomials</text>
<text text-anchor="start" x="8" y="-69" font-family="Helvetica,sans-Serif" font-size="10.00">::GeneralizedFunctions</text>
<text text-anchor="start" x="8" y="-58" font-family="Helvetica,sans-Serif" font-size="10.00">_mix&lt; nSpace, 3, nQuadraturePoints</text>
<text text-anchor="middle" x="131.5" y="-47" font-family="Helvetica,sans-Serif" font-size="10.00">_element, nQuadraturePoints_elementBoundary &gt;</text>
</a>
</g>
</g>
<!-- Node4&#45;&gt;Node1 -->
<g id="edge3" class="edge">
<title>Node4&#45;&gt;Node1</title>
<path fill="none" stroke="#9a32cd" stroke-dasharray="5,2" d="M273.36,-60.2C316.95,-59.96 365.05,-61.29 409,-66 414.81,-66.62 420.74,-67.4 426.72,-68.29"/>
<polygon fill="#9a32cd" stroke="#9a32cd" points="273.23,-56.7 263.26,-60.28 273.29,-63.7 273.23,-56.7"/>
<text text-anchor="middle" x="345" y="-91" font-family="Helvetica,sans-Serif" font-size="10.00"> gf_s</text>
<text text-anchor="middle" x="345" y="-80" font-family="Helvetica,sans-Serif" font-size="10.00">gf_p</text>
<text text-anchor="middle" x="345" y="-69" font-family="Helvetica,sans-Serif" font-size="10.00">gf</text>
</g>
<!-- Node5 -->
<g id="node5" class="node">
<title>Node5</title>
<g id="a_node5"><a xlink:title=" ">
<polygon fill="white" stroke="#bfbfbf" points="87.5,-0.5 87.5,-19.5 175.5,-19.5 175.5,-0.5 87.5,-0.5"/>
<text text-anchor="middle" x="131.5" y="-7.5" font-family="Helvetica,sans-Serif" font-size="10.00">std::set&lt; int &gt;</text>
</a>
</g>
</g>
<!-- Node5&#45;&gt;Node1 -->
<g id="edge4" class="edge">
<title>Node5&#45;&gt;Node1</title>
<path fill="none" stroke="#9a32cd" stroke-dasharray="5,2" d="M185.74,-5.8C242.26,-2.93 333.64,-2.83 409,-24 427.15,-29.1 445.59,-37.1 462.63,-45.9"/>
<polygon fill="#9a32cd" stroke="#9a32cd" points="185.39,-2.32 175.6,-6.37 185.78,-9.31 185.39,-2.32"/>
<text text-anchor="middle" x="345" y="-49" font-family="Helvetica,sans-Serif" font-size="10.00"> ifem_boundary_elements</text>
<text text-anchor="middle" x="345" y="-38" font-family="Helvetica,sans-Serif" font-size="10.00">cutfem_boundaries</text>
<text text-anchor="middle" x="345" y="-27" font-family="Helvetica,sans-Serif" font-size="10.00">ifem_boundaries</text>
</g>
</g>
</svg>
