<?xml version="1.0" encoding="UTF-8" standalone="no"?>
<!DOCTYPE svg PUBLIC "-//W3C//DTD SVG 1.1//EN"
 "http://www.w3.org/Graphics/SVG/1.1/DTD/svg11.dtd">
<!-- Generated by graphviz version 2.40.1 (20161225.0304)
 -->
<!-- Title: cppRigidBody Pages: 1 -->
<svg width="242pt" height="252pt"
 viewBox="0.00 0.00 241.50 252.00" xmlns="http://www.w3.org/2000/svg" xmlns:xlink="http://www.w3.org/1999/xlink">
<g id="graph0" class="graph" transform="scale(1 1) rotate(0) translate(4 248)">
<title>cppRigidBody</title>
<polygon fill="#ffffff" stroke="transparent" points="-4,4 -4,-248 237.5,-248 237.5,4 -4,4"/>
<!-- Node1 -->
<g id="node1" class="node">
<title>Node1</title>
<polygon fill="#bfbfbf" stroke="#000000" points="97,-.5 97,-19.5 174,-19.5 174,-.5 97,-.5"/>
<text text-anchor="middle" x="135.5" y="-7.5" font-family="Helvetica,sans-Serif" font-size="10.00" fill="#000000">cppRigidBody</text>
</g>
<!-- Node2 -->
<g id="node2" class="node">
<title>Node2</title>
<g id="a_node2"><a xlink:href="classcpp_system.html" target="_top" xlink:title="cppSystem">
<polygon fill="#ffffff" stroke="#000000" points="14.5,-89.5 14.5,-108.5 80.5,-108.5 80.5,-89.5 14.5,-89.5"/>
<text text-anchor="middle" x="47.5" y="-96.5" font-family="Helvetica,sans-Serif" font-size="10.00" fill="#000000">cppSystem</text>
</a>
</g>
</g>
<!-- Node2&#45;&gt;Node1 -->
<g id="edge1" class="edge">
<title>Node2&#45;&gt;Node1</title>
<path fill="none" stroke="#9a32cd" stroke-dasharray="5,2" d="M63.1516,-81.4731C74.396,-69.0759 90.0565,-52.2012 104.5,-38 110.9125,-31.6951 118.386,-24.9288 124.3883,-19.6272"/>
<polygon fill="#9a32cd" stroke="#9a32cd" points="60.2356,-79.4807 56.1417,-89.2526 65.4359,-84.1666 60.2356,-79.4807"/>
<text text-anchor="middle" x="122.5" y="-52" font-family="Helvetica,sans-Serif" font-size="10.00" fill="#000000"> system</text>
</g>
<!-- Node3 -->
<g id="node3" class="node">
<title>Node3</title>
<g id="a_node3"><a xlink:title="STL class. ">
<polygon fill="#ffffff" stroke="#bfbfbf" points="17.5,-156.5 17.5,-175.5 77.5,-175.5 77.5,-156.5 17.5,-156.5"/>
<text text-anchor="middle" x="47.5" y="-163.5" font-family="Helvetica,sans-Serif" font-size="10.00" fill="#000000">std::string</text>
</a>
</g>
</g>
<!-- Node3&#45;&gt;Node2 -->
<g id="edge2" class="edge">
<title>Node3&#45;&gt;Node2</title>
<path fill="none" stroke="#9a32cd" stroke-dasharray="5,2" d="M47.5,-146.1079C47.5,-133.714 47.5,-118.3263 47.5,-108.5817"/>
<polygon fill="#9a32cd" stroke="#9a32cd" points="44.0001,-146.4005 47.5,-156.4005 51.0001,-146.4006 44.0001,-146.4005"/>
<text text-anchor="middle" x="68" y="-130" font-family="Helvetica,sans-Serif" font-size="10.00" fill="#000000"> directory</text>
</g>
<!-- Node4 -->
<g id="node4" class="node">
<title>Node4</title>
<g id="a_node4"><a xlink:title="STL class. ">
<polygon fill="#ffffff" stroke="#bfbfbf" points="0,-213.5 0,-243.5 95,-243.5 95,-213.5 0,-213.5"/>
<text text-anchor="start" x="8" y="-231.5" font-family="Helvetica,sans-Serif" font-size="10.00" fill="#000000">std::basic_string&lt;</text>
<text text-anchor="middle" x="47.5" y="-220.5" font-family="Helvetica,sans-Serif" font-size="10.00" fill="#000000"> char &gt;</text>
</a>
</g>
</g>
<!-- Node4&#45;&gt;Node3 -->
<g id="edge3" class="edge">
<title>Node4&#45;&gt;Node3</title>
<path fill="none" stroke="#191970" d="M47.5,-203.3498C47.5,-193.6481 47.5,-183.1303 47.5,-175.7356"/>
<polygon fill="#191970" stroke="#191970" points="44.0001,-203.3705 47.5,-213.3705 51.0001,-203.3705 44.0001,-203.3705"/>
</g>
<!-- Node5 -->
<g id="node5" class="node">
<title>Node5</title>
<polygon fill="#ffffff" stroke="#bfbfbf" points="98.5,-89.5 98.5,-108.5 232.5,-108.5 232.5,-89.5 98.5,-89.5"/>
<text text-anchor="middle" x="165.5" y="-96.5" font-family="Helvetica,sans-Serif" font-size="10.00" fill="#000000">std::vector&lt; ChVector&lt;&gt; &gt;</text>
</g>
<!-- Node5&#45;&gt;Node1 -->
<g id="edge4" class="edge">
<title>Node5&#45;&gt;Node1</title>
<path fill="none" stroke="#9a32cd" stroke-dasharray="5,2" d="M159.0141,-79.7584C152.7828,-61.2723 143.6206,-34.0912 138.7784,-19.7259"/>
<polygon fill="#9a32cd" stroke="#9a32cd" points="155.7786,-81.1173 162.2895,-89.4754 162.4119,-78.8813 155.7786,-81.1173"/>
<text text-anchor="middle" x="194.5" y="-63" font-family="Helvetica,sans-Serif" font-size="10.00" fill="#000000"> trimesh_pos_last</text>
<text text-anchor="middle" x="194.5" y="-52" font-family="Helvetica,sans-Serif" font-size="10.00" fill="#000000">trimesh_pos0</text>
<text text-anchor="middle" x="194.5" y="-41" font-family="Helvetica,sans-Serif" font-size="10.00" fill="#000000">trimesh_pos</text>
</g>
</g>
</svg>
