<?xml version="1.0" encoding="UTF-8" standalone="no"?>
<!DOCTYPE svg PUBLIC "-//W3C//DTD SVG 1.1//EN"
 "http://www.w3.org/Graphics/SVG/1.1/DTD/svg11.dtd">
<!-- Generated by graphviz version 2.40.1 (20161225.0304)
 -->
<!-- Title: proteus::MCorr&lt; CompKernelType, nSpace, nQuadraturePoints_element, nDOF_mesh_trial_element, nDOF_trial_element, nDOF_test_element, nQuadraturePoints_elementBoundary &gt; Pages: 1 -->
<svg width="767pt" height="205pt"
 viewBox="0.00 0.00 767.00 204.50" xmlns="http://www.w3.org/2000/svg" xmlns:xlink="http://www.w3.org/1999/xlink">
<g id="graph0" class="graph" transform="scale(1 1) rotate(0) translate(4 200.5)">
<title>proteus::MCorr&lt; CompKernelType, nSpace, nQuadraturePoints_element, nDOF_mesh_trial_element, nDOF_trial_element, nDOF_test_element, nQuadraturePoints_elementBoundary &gt;</title>
<polygon fill="#ffffff" stroke="transparent" points="-4,4 -4,-200.5 763,-200.5 763,4 -4,4"/>
<!-- Node2 -->
<g id="node1" class="node">
<title>Node2</title>
<polygon fill="#bfbfbf" stroke="#000000" points="556,-72 556,-135 759,-135 759,-72 556,-72"/>
<text text-anchor="start" x="564" y="-123" font-family="Helvetica,sans-Serif" font-size="10.00" fill="#000000">proteus::MCorr&lt; CompKernel</text>
<text text-anchor="start" x="564" y="-112" font-family="Helvetica,sans-Serif" font-size="10.00" fill="#000000">Type, nSpace, nQuadraturePoints</text>
<text text-anchor="start" x="564" y="-101" font-family="Helvetica,sans-Serif" font-size="10.00" fill="#000000">_element, nDOF_mesh_trial_element,</text>
<text text-anchor="start" x="564" y="-90" font-family="Helvetica,sans-Serif" font-size="10.00" fill="#000000"> nDOF_trial_element, nDOF_test_element,</text>
<text text-anchor="middle" x="657.5" y="-79" font-family="Helvetica,sans-Serif" font-size="10.00" fill="#000000"> nQuadraturePoints_elementBoundary &gt;</text>
</g>
<!-- Node3 -->
<g id="node2" class="node">
<title>Node3</title>
<g id="a_node2"><a xlink:href="classproteus_1_1_m_corr__base.html" target="_top" xlink:title="proteus::MCorr_base">
<polygon fill="#ffffff" stroke="#000000" points="306.5,-154 306.5,-173 414.5,-173 414.5,-154 306.5,-154"/>
<text text-anchor="middle" x="360.5" y="-161" font-family="Helvetica,sans-Serif" font-size="10.00" fill="#000000">proteus::MCorr_base</text>
</a>
</g>
</g>
<!-- Node3&#45;&gt;Node2 -->
<g id="edge1" class="edge">
<title>Node3&#45;&gt;Node2</title>
<path fill="none" stroke="#191970" d="M424.4594,-153.7974C441.5651,-151.0038 460.0175,-147.8103 477,-144.5 502.5486,-139.5199 530,-133.5867 555.5925,-127.802"/>
<polygon fill="#191970" stroke="#191970" points="423.8796,-150.3456 414.5648,-155.3939 424.9947,-157.2562 423.8796,-150.3456"/>
</g>
<!-- Node4 -->
<g id="node3" class="node">
<title>Node4</title>
<polygon fill="#ffffff" stroke="#bfbfbf" points="0,-154 0,-173 117,-173 117,-154 0,-154"/>
<text text-anchor="middle" x="58.5" y="-161" font-family="Helvetica,sans-Serif" font-size="10.00" fill="#000000">std::valarray&lt; double &gt;</text>
</g>
<!-- Node4&#45;&gt;Node3 -->
<g id="edge2" class="edge">
<title>Node4&#45;&gt;Node3</title>
<path fill="none" stroke="#9a32cd" stroke-dasharray="5,2" d="M127.3195,-163.5C181.6202,-163.5 256.3105,-163.5 306.389,-163.5"/>
<polygon fill="#9a32cd" stroke="#9a32cd" points="127.0868,-160.0001 117.0867,-163.5 127.0867,-167.0001 127.0868,-160.0001"/>
<text text-anchor="middle" x="180.5" y="-188.5" font-family="Helvetica,sans-Serif" font-size="10.00" fill="#000000"> Rpos</text>
<text text-anchor="middle" x="180.5" y="-177.5" font-family="Helvetica,sans-Serif" font-size="10.00" fill="#000000">FluxCorrectionMatrix</text>
<text text-anchor="middle" x="180.5" y="-166.5" font-family="Helvetica,sans-Serif" font-size="10.00" fill="#000000">Rneg</text>
</g>
<!-- Node5 -->
<g id="node4" class="node">
<title>Node5</title>
<g id="a_node4"><a xlink:href="classequivalent__polynomials_1_1_generalized_functions__mix.html" target="_top" xlink:title="equivalent_polynomials\l::GeneralizedFunctions\l_mix\&lt; nSpace, 2, nDOF_trial\l_element, nQuadraturePoints\l_elementBoundary \&gt;">
<polygon fill="#ffffff" stroke="#000000" points="288.5,-72 288.5,-135 432.5,-135 432.5,-72 288.5,-72"/>
<text text-anchor="start" x="296.5" y="-123" font-family="Helvetica,sans-Serif" font-size="10.00" fill="#000000">equivalent_polynomials</text>
<text text-anchor="start" x="296.5" y="-112" font-family="Helvetica,sans-Serif" font-size="10.00" fill="#000000">::GeneralizedFunctions</text>
<text text-anchor="start" x="296.5" y="-101" font-family="Helvetica,sans-Serif" font-size="10.00" fill="#000000">_mix&lt; nSpace, 2, nDOF_trial</text>
<text text-anchor="start" x="296.5" y="-90" font-family="Helvetica,sans-Serif" font-size="10.00" fill="#000000">_element, nQuadraturePoints</text>
<text text-anchor="middle" x="360.5" y="-79" font-family="Helvetica,sans-Serif" font-size="10.00" fill="#000000">_elementBoundary &gt;</text>
</a>
</g>
</g>
<!-- Node5&#45;&gt;Node2 -->
<g id="edge3" class="edge">
<title>Node5&#45;&gt;Node2</title>
<path fill="none" stroke="#9a32cd" stroke-dasharray="5,2" d="M442.9476,-103.5C477.9406,-103.5 519.0791,-103.5 555.9227,-103.5"/>
<polygon fill="#9a32cd" stroke="#9a32cd" points="442.7746,-100.0001 432.7746,-103.5 442.7746,-107.0001 442.7746,-100.0001"/>
<text text-anchor="middle" x="516.5" y="-106.5" font-family="Helvetica,sans-Serif" font-size="10.00" fill="#000000"> gf_nodes</text>
</g>
<!-- Node6 -->
<g id="node5" class="node">
<title>Node6</title>
<g id="a_node5"><a xlink:href="classequivalent__polynomials_1_1_generalized_functions__mix.html" target="_top" xlink:title="equivalent_polynomials\l::GeneralizedFunctions\l_mix\&lt; nSpace, 2, nQuadraturePoints\l_element, nQuadraturePoints_elementBoundary \&gt;">
<polygon fill="#ffffff" stroke="#000000" points="244,-.5 244,-52.5 477,-52.5 477,-.5 244,-.5"/>
<text text-anchor="start" x="252" y="-40.5" font-family="Helvetica,sans-Serif" font-size="10.00" fill="#000000">equivalent_polynomials</text>
<text text-anchor="start" x="252" y="-29.5" font-family="Helvetica,sans-Serif" font-size="10.00" fill="#000000">::GeneralizedFunctions</text>
<text text-anchor="start" x="252" y="-18.5" font-family="Helvetica,sans-Serif" font-size="10.00" fill="#000000">_mix&lt; nSpace, 2, nQuadraturePoints</text>
<text text-anchor="middle" x="360.5" y="-7.5" font-family="Helvetica,sans-Serif" font-size="10.00" fill="#000000">_element, nQuadraturePoints_elementBoundary &gt;</text>
</a>
</g>
</g>
<!-- Node6&#45;&gt;Node2 -->
<g id="edge4" class="edge">
<title>Node6&#45;&gt;Node2</title>
<path fill="none" stroke="#9a32cd" stroke-dasharray="5,2" d="M470.809,-55.0986C498.6438,-62.3151 528.3993,-70.0294 555.7893,-77.1306"/>
<polygon fill="#9a32cd" stroke="#9a32cd" points="471.609,-51.6904 461.0507,-52.5687 469.8522,-58.4664 471.609,-51.6904"/>
<text text-anchor="middle" x="516.5" y="-74.5" font-family="Helvetica,sans-Serif" font-size="10.00" fill="#000000"> gf</text>
</g>
</g>
</svg>
