<?xml version="1.0" encoding="UTF-8" standalone="no"?>
<!DOCTYPE svg PUBLIC "-//W3C//DTD SVG 1.1//EN"
 "http://www.w3.org/Graphics/SVG/1.1/DTD/svg11.dtd">
<!-- Generated by graphviz version 2.43.0 (0)
 -->
<!-- Title: PiecewiseLinearComplexDomain Pages: 1 -->
<svg width="814pt" height="299pt"
 viewBox="0.00 0.00 814.00 298.84" xmlns="http://www.w3.org/2000/svg" xmlns:xlink="http://www.w3.org/1999/xlink">
<g id="graph0" class="graph" transform="scale(1 1) rotate(0) translate(4 294.84)">
<title>PiecewiseLinearComplexDomain</title>
<polygon fill="white" stroke="transparent" points="-4,4 -4,-294.84 810,-294.84 810,4 -4,4"/>
<!-- Node1 -->
<g id="node1" class="node">
<title>Node1</title>
<g id="a_node1"><a xlink:title=" ">
<polygon fill="#bfbfbf" stroke="black" points="629,-123.84 629,-142.84 806,-142.84 806,-123.84 629,-123.84"/>
<text text-anchor="middle" x="717.5" y="-130.84" font-family="Helvetica,sans-Serif" font-size="10.00">PiecewiseLinearComplexDomain</text>
</a>
</g>
</g>
<!-- Node2 -->
<g id="node2" class="node">
<title>Node2</title>
<g id="a_node2"><a xlink:href="class_d__base.html" target="_top" xlink:title=" ">
<polygon fill="white" stroke="black" points="455,-215.84 455,-234.84 508,-234.84 508,-215.84 455,-215.84"/>
<text text-anchor="middle" x="481.5" y="-222.84" font-family="Helvetica,sans-Serif" font-size="10.00">D_base</text>
</a>
</g>
</g>
<!-- Node2&#45;&gt;Node1 -->
<g id="edge1" class="edge">
<title>Node2&#45;&gt;Node1</title>
<path fill="none" stroke="midnightblue" d="M518.08,-218.38C544.3,-212.66 580.55,-203.53 611,-191.34 644.96,-177.75 681.79,-155.64 701.7,-143"/>
<polygon fill="midnightblue" stroke="midnightblue" points="517.26,-214.97 508.2,-220.47 518.71,-221.82 517.26,-214.97"/>
</g>
<!-- Node3 -->
<g id="node3" class="node">
<title>Node3</title>
<g id="a_node3"><a xlink:title="STL class.">
<polygon fill="white" stroke="#bfbfbf" points="231.5,-265.84 231.5,-284.84 296.5,-284.84 296.5,-265.84 231.5,-265.84"/>
<text text-anchor="middle" x="264" y="-272.84" font-family="Helvetica,sans-Serif" font-size="10.00">std::string</text>
</a>
</g>
</g>
<!-- Node3&#45;&gt;Node2 -->
<g id="edge2" class="edge">
<title>Node3&#45;&gt;Node2</title>
<path fill="none" stroke="#9a32cd" stroke-dasharray="5,2" d="M306.6,-265.69C350.53,-255.5 418.37,-239.75 454.98,-231.26"/>
<polygon fill="#9a32cd" stroke="#9a32cd" points="305.75,-262.29 296.8,-267.96 307.33,-269.11 305.75,-262.29"/>
<text text-anchor="middle" x="366" y="-271.34" font-family="Helvetica,sans-Serif" font-size="10.00"> units</text>
<text text-anchor="middle" x="366" y="-260.34" font-family="Helvetica,sans-Serif" font-size="10.00">name</text>
</g>
<!-- Node4 -->
<g id="node4" class="node">
<title>Node4</title>
<g id="a_node4"><a xlink:title="STL class.">
<polygon fill="white" stroke="#bfbfbf" points="10,-260.34 10,-290.34 114,-290.34 114,-260.34 10,-260.34"/>
<text text-anchor="start" x="18" y="-278.34" font-family="Helvetica,sans-Serif" font-size="10.00">std::basic_string&lt;</text>
<text text-anchor="middle" x="62" y="-267.34" font-family="Helvetica,sans-Serif" font-size="10.00"> char &gt;</text>
</a>
</g>
</g>
<!-- Node4&#45;&gt;Node3 -->
<g id="edge3" class="edge">
<title>Node4&#45;&gt;Node3</title>
<path fill="none" stroke="midnightblue" d="M124.46,-275.34C159.77,-275.34 202.65,-275.34 231.26,-275.34"/>
<polygon fill="midnightblue" stroke="midnightblue" points="124.25,-271.84 114.25,-275.34 124.25,-278.84 124.25,-271.84"/>
</g>
<!-- Node5 -->
<g id="node5" class="node">
<title>Node5</title>
<g id="a_node5"><a xlink:title=" ">
<polygon fill="white" stroke="#bfbfbf" points="0,-167.84 0,-186.84 124,-186.84 124,-167.84 0,-167.84"/>
<text text-anchor="middle" x="62" y="-174.84" font-family="Helvetica,sans-Serif" font-size="10.00">std::vector&lt; double &gt;</text>
</a>
</g>
</g>
<!-- Node5&#45;&gt;Node1 -->
<g id="edge12" class="edge">
<title>Node5&#45;&gt;Node1</title>
<path fill="none" stroke="#9a32cd" stroke-dasharray="5,2" d="M134.34,-177.01C229.38,-176.01 402.68,-172.23 550,-158.34 587.98,-154.76 630.5,-148.33 663.07,-142.89"/>
<polygon fill="#9a32cd" stroke="#9a32cd" points="134.23,-173.51 124.26,-177.11 134.3,-180.51 134.23,-173.51"/>
<text text-anchor="middle" x="366" y="-196.34" font-family="Helvetica,sans-Serif" font-size="10.00"> regions</text>
<text text-anchor="middle" x="366" y="-185.34" font-family="Helvetica,sans-Serif" font-size="10.00">holes</text>
<text text-anchor="middle" x="366" y="-174.34" font-family="Helvetica,sans-Serif" font-size="10.00">v</text>
</g>
<!-- Node5&#45;&gt;Node2 -->
<g id="edge4" class="edge">
<title>Node5&#45;&gt;Node2</title>
<path fill="none" stroke="#9a32cd" stroke-dasharray="5,2" d="M123.78,-188.57C129.92,-189.57 136.08,-190.51 142,-191.34 258.41,-207.6 398.38,-219.13 454.94,-223.45"/>
<polygon fill="#9a32cd" stroke="#9a32cd" points="123.93,-185.05 113.49,-186.85 122.77,-191.95 123.93,-185.05"/>
<text text-anchor="middle" x="264" y="-225.34" font-family="Helvetica,sans-Serif" font-size="10.00"> x</text>
<text text-anchor="middle" x="264" y="-214.34" font-family="Helvetica,sans-Serif" font-size="10.00">L</text>
</g>
<!-- Node7 -->
<g id="node7" class="node">
<title>Node7</title>
<g id="a_node7"><a xlink:title=" ">
<polygon fill="white" stroke="#bfbfbf" points="209,-118.34 209,-148.34 319,-148.34 319,-118.34 209,-118.34"/>
<text text-anchor="start" x="217" y="-136.34" font-family="Helvetica,sans-Serif" font-size="10.00">std::vector&lt; vector</text>
<text text-anchor="middle" x="264" y="-125.34" font-family="Helvetica,sans-Serif" font-size="10.00">&lt; double &gt; &gt;</text>
</a>
</g>
</g>
<!-- Node5&#45;&gt;Node7 -->
<g id="edge7" class="edge">
<title>Node5&#45;&gt;Node7</title>
<path fill="none" stroke="#9a32cd" stroke-dasharray="5,2" d="M99.49,-164.53C112.76,-160.21 127.94,-155.65 142,-152.34 163.63,-147.25 187.76,-143.15 208.75,-140.08"/>
<polygon fill="#9a32cd" stroke="#9a32cd" points="98.16,-161.28 89.78,-167.76 100.37,-167.92 98.16,-161.28"/>
<text text-anchor="middle" x="166.5" y="-155.34" font-family="Helvetica,sans-Serif" font-size="10.00"> elements</text>
</g>
<!-- Node6 -->
<g id="node6" class="node">
<title>Node6</title>
<g id="a_node6"><a xlink:title=" ">
<polygon fill="white" stroke="#bfbfbf" points="413,-118.34 413,-148.34 550,-148.34 550,-118.34 413,-118.34"/>
<text text-anchor="start" x="421" y="-136.34" font-family="Helvetica,sans-Serif" font-size="10.00">std::vector&lt; vector</text>
<text text-anchor="middle" x="481.5" y="-125.34" font-family="Helvetica,sans-Serif" font-size="10.00">&lt; vector&lt; double &gt; &gt; &gt;</text>
</a>
</g>
</g>
<!-- Node6&#45;&gt;Node1 -->
<g id="edge5" class="edge">
<title>Node6&#45;&gt;Node1</title>
<path fill="none" stroke="#9a32cd" stroke-dasharray="5,2" d="M560.44,-133.34C582.4,-133.34 606.43,-133.34 628.9,-133.34"/>
<polygon fill="#9a32cd" stroke="#9a32cd" points="560.18,-129.84 550.18,-133.34 560.18,-136.84 560.18,-129.84"/>
<text text-anchor="middle" x="589.5" y="-136.34" font-family="Helvetica,sans-Serif" font-size="10.00"> vertices</text>
</g>
<!-- Node7&#45;&gt;Node6 -->
<g id="edge6" class="edge">
<title>Node7&#45;&gt;Node6</title>
<path fill="none" stroke="#9a32cd" stroke-dasharray="5,2" d="M329.35,-133.34C355.69,-133.34 386.18,-133.34 412.85,-133.34"/>
<polygon fill="#9a32cd" stroke="#9a32cd" points="329.1,-129.84 319.1,-133.34 329.1,-136.84 329.1,-129.84"/>
<text text-anchor="middle" x="366" y="-136.34" font-family="Helvetica,sans-Serif" font-size="10.00"> elements</text>
</g>
<!-- Node8 -->
<g id="node8" class="node">
<title>Node8</title>
<g id="a_node8"><a xlink:title=" ">
<polygon fill="white" stroke="#bfbfbf" points="423.5,-69.34 423.5,-99.34 539.5,-99.34 539.5,-69.34 423.5,-69.34"/>
<text text-anchor="start" x="431.5" y="-87.34" font-family="Helvetica,sans-Serif" font-size="10.00">std::vector&lt; vector</text>
<text text-anchor="middle" x="481.5" y="-76.34" font-family="Helvetica,sans-Serif" font-size="10.00">&lt; vector&lt; int &gt; &gt; &gt;</text>
</a>
</g>
</g>
<!-- Node8&#45;&gt;Node1 -->
<g id="edge8" class="edge">
<title>Node8&#45;&gt;Node1</title>
<path fill="none" stroke="#9a32cd" stroke-dasharray="5,2" d="M549.91,-98.46C588.7,-106.58 636.4,-116.57 670.81,-123.77"/>
<polygon fill="#9a32cd" stroke="#9a32cd" points="550.25,-94.95 539.74,-96.33 548.81,-101.8 550.25,-94.95"/>
<text text-anchor="middle" x="589.5" y="-112.34" font-family="Helvetica,sans-Serif" font-size="10.00"> facets</text>
</g>
<!-- Node9 -->
<g id="node9" class="node">
<title>Node9</title>
<g id="a_node9"><a xlink:title=" ">
<polygon fill="white" stroke="#bfbfbf" points="209,-59.34 209,-89.34 319,-89.34 319,-59.34 209,-59.34"/>
<text text-anchor="start" x="217" y="-77.34" font-family="Helvetica,sans-Serif" font-size="10.00">std::vector&lt; vector</text>
<text text-anchor="middle" x="264" y="-66.34" font-family="Helvetica,sans-Serif" font-size="10.00">&lt; int &gt; &gt;</text>
</a>
</g>
</g>
<!-- Node9&#45;&gt;Node8 -->
<g id="edge9" class="edge">
<title>Node9&#45;&gt;Node8</title>
<path fill="none" stroke="#9a32cd" stroke-dasharray="5,2" d="M329.42,-77.33C359.28,-78.71 394.46,-80.35 423.36,-81.69"/>
<polygon fill="#9a32cd" stroke="#9a32cd" points="329.25,-73.82 319.1,-76.85 328.93,-80.81 329.25,-73.82"/>
<text text-anchor="middle" x="366" y="-82.34" font-family="Helvetica,sans-Serif" font-size="10.00"> elements</text>
</g>
<!-- Node10 -->
<g id="node10" class="node">
<title>Node10</title>
<g id="a_node10"><a xlink:title=" ">
<polygon fill="white" stroke="#bfbfbf" points="10,-20.84 10,-39.84 114,-39.84 114,-20.84 10,-20.84"/>
<text text-anchor="middle" x="62" y="-27.84" font-family="Helvetica,sans-Serif" font-size="10.00">std::vector&lt; int &gt;</text>
</a>
</g>
</g>
<!-- Node10&#45;&gt;Node1 -->
<g id="edge11" class="edge">
<title>Node10&#45;&gt;Node1</title>
<path fill="none" stroke="#9a32cd" stroke-dasharray="5,2" d="M117.25,-18.87C183.3,-6.69 298.02,8.78 395,-7.34 466.82,-19.28 482.16,-33.92 550,-60.34 603.53,-81.18 665.1,-109.29 696.22,-123.79"/>
<polygon fill="#9a32cd" stroke="#9a32cd" points="116.26,-15.5 107.08,-20.8 117.56,-22.38 116.26,-15.5"/>
<text text-anchor="middle" x="366" y="-65.34" font-family="Helvetica,sans-Serif" font-size="10.00"> f</text>
<text text-anchor="middle" x="366" y="-54.34" font-family="Helvetica,sans-Serif" font-size="10.00">vertexFlags</text>
<text text-anchor="middle" x="366" y="-43.34" font-family="Helvetica,sans-Serif" font-size="10.00">facetHoles</text>
<text text-anchor="middle" x="366" y="-32.34" font-family="Helvetica,sans-Serif" font-size="10.00">fN</text>
<text text-anchor="middle" x="366" y="-21.34" font-family="Helvetica,sans-Serif" font-size="10.00">vN</text>
<text text-anchor="middle" x="366" y="-10.34" font-family="Helvetica,sans-Serif" font-size="10.00">facetFlags</text>
</g>
<!-- Node10&#45;&gt;Node9 -->
<g id="edge10" class="edge">
<title>Node10&#45;&gt;Node9</title>
<path fill="none" stroke="#9a32cd" stroke-dasharray="5,2" d="M116.24,-42.05C144.91,-48.36 180.19,-56.12 208.98,-62.45"/>
<polygon fill="#9a32cd" stroke="#9a32cd" points="116.92,-38.62 106.4,-39.89 115.41,-45.45 116.92,-38.62"/>
<text text-anchor="middle" x="166.5" y="-60.34" font-family="Helvetica,sans-Serif" font-size="10.00"> elements</text>
</g>
</g>
</svg>
