<?xml version="1.0" encoding="UTF-8" standalone="no"?>
<!DOCTYPE svg PUBLIC "-//W3C//DTD SVG 1.1//EN"
 "http://www.w3.org/Graphics/SVG/1.1/DTD/svg11.dtd">
<!-- Generated by graphviz version 2.40.1 (20161225.0304)
 -->
<!-- Title: proteus::SW2DCV&lt; CompKernelType, nSpace, nQuadraturePoints_element, nDOF_mesh_trial_element, nDOF_trial_element, nDOF_test_element, nQuadraturePoints_elementBoundary &gt; Pages: 1 -->
<svg width="211pt" height="251pt"
 viewBox="0.00 0.00 211.00 251.00" xmlns="http://www.w3.org/2000/svg" xmlns:xlink="http://www.w3.org/1999/xlink">
<g id="graph0" class="graph" transform="scale(1 1) rotate(0) translate(4 247)">
<title>proteus::SW2DCV&lt; CompKernelType, nSpace, nQuadraturePoints_element, nDOF_mesh_trial_element, nDOF_trial_element, nDOF_test_element, nQuadraturePoints_elementBoundary &gt;</title>
<polygon fill="#ffffff" stroke="transparent" points="-4,4 -4,-247 207,-247 207,4 -4,4"/>
<!-- Node2 -->
<g id="node1" class="node">
<title>Node2</title>
<polygon fill="#bfbfbf" stroke="#000000" points="0,-.5 0,-63.5 203,-63.5 203,-.5 0,-.5"/>
<text text-anchor="start" x="8" y="-51.5" font-family="Helvetica,sans-Serif" font-size="10.00" fill="#000000">proteus::SW2DCV&lt; CompKernel</text>
<text text-anchor="start" x="8" y="-40.5" font-family="Helvetica,sans-Serif" font-size="10.00" fill="#000000">Type, nSpace, nQuadraturePoints</text>
<text text-anchor="start" x="8" y="-29.5" font-family="Helvetica,sans-Serif" font-size="10.00" fill="#000000">_element, nDOF_mesh_trial_element,</text>
<text text-anchor="start" x="8" y="-18.5" font-family="Helvetica,sans-Serif" font-size="10.00" fill="#000000"> nDOF_trial_element, nDOF_test_element,</text>
<text text-anchor="middle" x="101.5" y="-7.5" font-family="Helvetica,sans-Serif" font-size="10.00" fill="#000000"> nQuadraturePoints_elementBoundary &gt;</text>
</g>
<!-- Node3 -->
<g id="node2" class="node">
<title>Node3</title>
<g id="a_node2"><a xlink:href="classproteus_1_1_s_w2_d_c_v__base.html" target="_top" xlink:title="proteus::SW2DCV_base">
<polygon fill="#ffffff" stroke="#000000" points="39,-101.5 39,-120.5 164,-120.5 164,-101.5 39,-101.5"/>
<text text-anchor="middle" x="101.5" y="-108.5" font-family="Helvetica,sans-Serif" font-size="10.00" fill="#000000">proteus::SW2DCV_base</text>
</a>
</g>
</g>
<!-- Node3&#45;&gt;Node2 -->
<g id="edge1" class="edge">
<title>Node3&#45;&gt;Node2</title>
<path fill="none" stroke="#191970" d="M101.5,-91.1335C101.5,-82.8107 101.5,-72.9285 101.5,-63.6487"/>
<polygon fill="#191970" stroke="#191970" points="98.0001,-91.313 101.5,-101.313 105.0001,-91.3131 98.0001,-91.313"/>
</g>
<!-- Node4 -->
<g id="node3" class="node">
<title>Node4</title>
<polygon fill="#ffffff" stroke="#bfbfbf" points="43,-223.5 43,-242.5 160,-242.5 160,-223.5 43,-223.5"/>
<text text-anchor="middle" x="101.5" y="-230.5" font-family="Helvetica,sans-Serif" font-size="10.00" fill="#000000">std::valarray&lt; double &gt;</text>
</g>
<!-- Node4&#45;&gt;Node3 -->
<g id="edge2" class="edge">
<title>Node4&#45;&gt;Node3</title>
<path fill="none" stroke="#9a32cd" stroke-dasharray="5,2" d="M101.5,-213.3912C101.5,-186.8282 101.5,-140.4446 101.5,-120.5287"/>
<polygon fill="#9a32cd" stroke="#9a32cd" points="98.0001,-213.4268 101.5,-223.4269 105.0001,-213.4269 98.0001,-213.4268"/>
<text text-anchor="middle" x="116" y="-197" font-family="Helvetica,sans-Serif" font-size="10.00" fill="#000000"> Rpos</text>
<text text-anchor="middle" x="116" y="-186" font-family="Helvetica,sans-Serif" font-size="10.00" fill="#000000">hvLow</text>
<text text-anchor="middle" x="116" y="-175" font-family="Helvetica,sans-Serif" font-size="10.00" fill="#000000">huLow</text>
<text text-anchor="middle" x="116" y="-164" font-family="Helvetica,sans-Serif" font-size="10.00" fill="#000000">Kmax</text>
<text text-anchor="middle" x="116" y="-153" font-family="Helvetica,sans-Serif" font-size="10.00" fill="#000000">Rneg</text>
<text text-anchor="middle" x="116" y="-142" font-family="Helvetica,sans-Serif" font-size="10.00" fill="#000000">hLow</text>
</g>
</g>
</svg>
