<?xml version="1.0" encoding="UTF-8" standalone="no"?>
<!DOCTYPE svg PUBLIC "-//W3C//DTD SVG 1.1//EN"
 "http://www.w3.org/Graphics/SVG/1.1/DTD/svg11.dtd">
<!-- Generated by graphviz version 2.40.1 (20161225.0304)
 -->
<!-- Title: proteus::CLSVOF_base Pages: 1 -->
<svg width="368pt" height="72pt"
 viewBox="0.00 0.00 368.00 72.00" xmlns="http://www.w3.org/2000/svg" xmlns:xlink="http://www.w3.org/1999/xlink">
<g id="graph0" class="graph" transform="scale(1 1) rotate(0) translate(4 68)">
<title>proteus::CLSVOF_base</title>
<polygon fill="#ffffff" stroke="transparent" points="-4,4 -4,-68 364,-68 364,4 -4,4"/>
<!-- Node0 -->
<g id="node1" class="node">
<title>Node0</title>
<polygon fill="#bfbfbf" stroke="#000000" points="0,-22.5 0,-41.5 121,-41.5 121,-22.5 0,-22.5"/>
<text text-anchor="middle" x="60.5" y="-29.5" font-family="Helvetica,sans-Serif" font-size="10.00" fill="#000000">proteus::CLSVOF_base</text>
</g>
<!-- Node1 -->
<g id="node2" class="node">
<title>Node1</title>
<g id="a_node2"><a xlink:href="classproteus_1_1_c_l_s_v_o_f.html" target="_top" xlink:title="proteus::CLSVOF\&lt; CompKernel\lType, nSpace, nQuadraturePoints\l_element, nDOF_mesh_trial_element,\l nDOF_trial_element, nDOF_test_element,\l nQuadraturePoints_elementBoundary \&gt;">
<polygon fill="#ffffff" stroke="#000000" points="157,-.5 157,-63.5 360,-63.5 360,-.5 157,-.5"/>
<text text-anchor="start" x="165" y="-51.5" font-family="Helvetica,sans-Serif" font-size="10.00" fill="#000000">proteus::CLSVOF&lt; CompKernel</text>
<text text-anchor="start" x="165" y="-40.5" font-family="Helvetica,sans-Serif" font-size="10.00" fill="#000000">Type, nSpace, nQuadraturePoints</text>
<text text-anchor="start" x="165" y="-29.5" font-family="Helvetica,sans-Serif" font-size="10.00" fill="#000000">_element, nDOF_mesh_trial_element,</text>
<text text-anchor="start" x="165" y="-18.5" font-family="Helvetica,sans-Serif" font-size="10.00" fill="#000000"> nDOF_trial_element, nDOF_test_element,</text>
<text text-anchor="middle" x="258.5" y="-7.5" font-family="Helvetica,sans-Serif" font-size="10.00" fill="#000000"> nQuadraturePoints_elementBoundary &gt;</text>
</a>
</g>
</g>
<!-- Node0&#45;&gt;Node1 -->
<g id="edge1" class="edge">
<title>Node0&#45;&gt;Node1</title>
<path fill="none" stroke="#191970" d="M131.2914,-32C139.6558,-32 148.3132,-32 156.9964,-32"/>
<polygon fill="#191970" stroke="#191970" points="131.2522,-28.5001 121.2521,-32 131.2521,-35.5001 131.2522,-28.5001"/>
</g>
</g>
</svg>
