<?xml version="1.0" encoding="UTF-8" standalone="no"?>
<!DOCTYPE svg PUBLIC "-//W3C//DTD SVG 1.1//EN"
 "http://www.w3.org/Graphics/SVG/1.1/DTD/svg11.dtd">
<!-- Generated by graphviz version 2.44.1 (20200629.0846)
 -->
<!-- Title: PskRelation Pages: 1 -->
<svg width="284pt" height="196pt"
 viewBox="0.00 0.00 284.00 196.00" xmlns="http://www.w3.org/2000/svg" xmlns:xlink="http://www.w3.org/1999/xlink">
<g id="graph0" class="graph" transform="scale(1 1) rotate(0) translate(4 192)">
<title>PskRelation</title>
<polygon fill="white" stroke="transparent" points="-4,4 -4,-192 280,-192 280,4 -4,4"/>
<!-- Node1 -->
<g id="node1" class="node">
<title>Node1</title>
<g id="a_node1"><a xlink:title=" ">
<polygon fill="#bfbfbf" stroke="black" points="93.5,-168.5 93.5,-187.5 163.5,-187.5 163.5,-168.5 93.5,-168.5"/>
<text text-anchor="middle" x="128.5" y="-175.5" font-family="Helvetica,sans-Serif" font-size="10.00">PskRelation</text>
</a>
</g>
</g>
<!-- Node2 -->
<g id="node2" class="node">
<title>Node2</title>
<g id="a_node2"><a xlink:href="class_b_c_m.html" target="_top" xlink:title=" ">
<polygon fill="white" stroke="black" points="0,-112.5 0,-131.5 39,-131.5 39,-112.5 0,-112.5"/>
<text text-anchor="middle" x="19.5" y="-119.5" font-family="Helvetica,sans-Serif" font-size="10.00">BCM</text>
</a>
</g>
</g>
<!-- Node1&#45;&gt;Node2 -->
<g id="edge1" class="edge">
<title>Node1&#45;&gt;Node2</title>
<path fill="none" stroke="midnightblue" d="M101.98,-163.86C81.77,-153.85 54.51,-140.35 36.97,-131.65"/>
<polygon fill="midnightblue" stroke="midnightblue" points="100.47,-167.02 110.99,-168.32 103.58,-160.75 100.47,-167.02"/>
</g>
<!-- Node4 -->
<g id="node4" class="node">
<title>Node4</title>
<g id="a_node4"><a xlink:href="class_psk_spline.html" target="_top" xlink:title=" ">
<polygon fill="white" stroke="black" points="57,-112.5 57,-131.5 118,-131.5 118,-112.5 57,-112.5"/>
<text text-anchor="middle" x="87.5" y="-119.5" font-family="Helvetica,sans-Serif" font-size="10.00">PskSpline</text>
</a>
</g>
</g>
<!-- Node1&#45;&gt;Node4 -->
<g id="edge3" class="edge">
<title>Node1&#45;&gt;Node4</title>
<path fill="none" stroke="midnightblue" d="M115.48,-159.86C108.38,-150.5 99.9,-139.33 94.14,-131.75"/>
<polygon fill="midnightblue" stroke="midnightblue" points="112.89,-162.24 121.73,-168.08 118.47,-158 112.89,-162.24"/>
</g>
<!-- Node5 -->
<g id="node5" class="node">
<title>Node5</title>
<g id="a_node5"><a xlink:href="class_simple_p_s_k.html" target="_top" xlink:title=" ">
<polygon fill="white" stroke="black" points="136,-112.5 136,-131.5 203,-131.5 203,-112.5 136,-112.5"/>
<text text-anchor="middle" x="169.5" y="-119.5" font-family="Helvetica,sans-Serif" font-size="10.00">SimplePSK</text>
</a>
</g>
</g>
<!-- Node1&#45;&gt;Node5 -->
<g id="edge4" class="edge">
<title>Node1&#45;&gt;Node5</title>
<path fill="none" stroke="midnightblue" d="M141.52,-159.86C148.62,-150.5 157.1,-139.33 162.86,-131.75"/>
<polygon fill="midnightblue" stroke="midnightblue" points="138.53,-158 135.27,-168.08 144.11,-162.24 138.53,-158"/>
</g>
<!-- Node6 -->
<g id="node6" class="node">
<title>Node6</title>
<g id="a_node6"><a xlink:href="class_v_g_morig.html" target="_top" xlink:title=" ">
<polygon fill="white" stroke="black" points="221,-112.5 221,-131.5 276,-131.5 276,-112.5 221,-112.5"/>
<text text-anchor="middle" x="248.5" y="-119.5" font-family="Helvetica,sans-Serif" font-size="10.00">VGMorig</text>
</a>
</g>
</g>
<!-- Node1&#45;&gt;Node6 -->
<g id="edge5" class="edge">
<title>Node1&#45;&gt;Node6</title>
<path fill="none" stroke="midnightblue" d="M156.87,-164.23C179.32,-154.13 210.04,-140.31 229.57,-131.52"/>
<polygon fill="midnightblue" stroke="midnightblue" points="155.2,-161.15 147.51,-168.44 158.07,-167.53 155.2,-161.15"/>
</g>
<!-- Node3 -->
<g id="node3" class="node">
<title>Node3</title>
<g id="a_node3"><a xlink:href="class_b_c_b.html" target="_top" xlink:title=" ">
<polygon fill="white" stroke="black" points="0.5,-56.5 0.5,-75.5 38.5,-75.5 38.5,-56.5 0.5,-56.5"/>
<text text-anchor="middle" x="19.5" y="-63.5" font-family="Helvetica,sans-Serif" font-size="10.00">BCB</text>
</a>
</g>
</g>
<!-- Node2&#45;&gt;Node3 -->
<g id="edge2" class="edge">
<title>Node2&#45;&gt;Node3</title>
<path fill="none" stroke="midnightblue" d="M19.5,-101.8C19.5,-92.91 19.5,-82.78 19.5,-75.75"/>
<polygon fill="midnightblue" stroke="midnightblue" points="16,-102.08 19.5,-112.08 23,-102.08 16,-102.08"/>
</g>
<!-- Node7 -->
<g id="node7" class="node">
<title>Node7</title>
<g id="a_node7"><a xlink:href="class_v_g_m.html" target="_top" xlink:title=" ">
<polygon fill="white" stroke="black" points="229,-56.5 229,-75.5 268,-75.5 268,-56.5 229,-56.5"/>
<text text-anchor="middle" x="248.5" y="-63.5" font-family="Helvetica,sans-Serif" font-size="10.00">VGM</text>
</a>
</g>
</g>
<!-- Node6&#45;&gt;Node7 -->
<g id="edge6" class="edge">
<title>Node6&#45;&gt;Node7</title>
<path fill="none" stroke="midnightblue" d="M248.5,-101.8C248.5,-92.91 248.5,-82.78 248.5,-75.75"/>
<polygon fill="midnightblue" stroke="midnightblue" points="245,-102.08 248.5,-112.08 252,-102.08 245,-102.08"/>
</g>
<!-- Node8 -->
<g id="node8" class="node">
<title>Node8</title>
<g id="a_node8"><a xlink:href="class_v_g_b.html" target="_top" xlink:title=" ">
<polygon fill="white" stroke="black" points="229.5,-0.5 229.5,-19.5 267.5,-19.5 267.5,-0.5 229.5,-0.5"/>
<text text-anchor="middle" x="248.5" y="-7.5" font-family="Helvetica,sans-Serif" font-size="10.00">VGB</text>
</a>
</g>
</g>
<!-- Node7&#45;&gt;Node8 -->
<g id="edge7" class="edge">
<title>Node7&#45;&gt;Node8</title>
<path fill="none" stroke="midnightblue" d="M248.5,-45.8C248.5,-36.91 248.5,-26.78 248.5,-19.75"/>
<polygon fill="midnightblue" stroke="midnightblue" points="245,-46.08 248.5,-56.08 252,-46.08 245,-46.08"/>
</g>
</g>
</svg>
