<?xml version="1.0" encoding="UTF-8" standalone="no"?>
<!DOCTYPE svg PUBLIC "-//W3C//DTD SVG 1.1//EN"
 "http://www.w3.org/Graphics/SVG/1.1/DTD/svg11.dtd">
<!-- Generated by graphviz version 2.40.1 (20161225.0304)
 -->
<!-- Title: proteus::GN_SW2DCV_base Pages: 1 -->
<svg width="153pt" height="205pt"
 viewBox="0.00 0.00 153.00 205.00" xmlns="http://www.w3.org/2000/svg" xmlns:xlink="http://www.w3.org/1999/xlink">
<g id="graph0" class="graph" transform="scale(1 1) rotate(0) translate(4 201)">
<title>proteus::GN_SW2DCV_base</title>
<polygon fill="#ffffff" stroke="transparent" points="-4,4 -4,-201 149,-201 149,4 -4,4"/>
<!-- Node2 -->
<g id="node1" class="node">
<title>Node2</title>
<polygon fill="#bfbfbf" stroke="#000000" points="0,-.5 0,-19.5 145,-19.5 145,-.5 0,-.5"/>
<text text-anchor="middle" x="72.5" y="-7.5" font-family="Helvetica,sans-Serif" font-size="10.00" fill="#000000">proteus::GN_SW2DCV_base</text>
</g>
<!-- Node3 -->
<g id="node2" class="node">
<title>Node3</title>
<polygon fill="#ffffff" stroke="#bfbfbf" points="14,-177.5 14,-196.5 131,-196.5 131,-177.5 14,-177.5"/>
<text text-anchor="middle" x="72.5" y="-184.5" font-family="Helvetica,sans-Serif" font-size="10.00" fill="#000000">std::valarray&lt; double &gt;</text>
</g>
<!-- Node3&#45;&gt;Node2 -->
<g id="edge1" class="edge">
<title>Node3&#45;&gt;Node2</title>
<path fill="none" stroke="#9a32cd" stroke-dasharray="5,2" d="M72.5,-167.2171C72.5,-129.2545 72.5,-47.4758 72.5,-19.5633"/>
<polygon fill="#9a32cd" stroke="#9a32cd" points="69.0001,-167.4837 72.5,-177.4837 76.0001,-167.4837 69.0001,-167.4837"/>
<text text-anchor="middle" x="96.5" y="-151" font-family="Helvetica,sans-Serif" font-size="10.00" fill="#000000"> Rpos</text>
<text text-anchor="middle" x="96.5" y="-140" font-family="Helvetica,sans-Serif" font-size="10.00" fill="#000000">hwLow</text>
<text text-anchor="middle" x="96.5" y="-129" font-family="Helvetica,sans-Serif" font-size="10.00" fill="#000000">Rpos_heta</text>
<text text-anchor="middle" x="96.5" y="-118" font-family="Helvetica,sans-Serif" font-size="10.00" fill="#000000">Rneg_heta</text>
<text text-anchor="middle" x="96.5" y="-107" font-family="Helvetica,sans-Serif" font-size="10.00" fill="#000000">hvLow</text>
<text text-anchor="middle" x="96.5" y="-96" font-family="Helvetica,sans-Serif" font-size="10.00" fill="#000000">huLow</text>
<text text-anchor="middle" x="96.5" y="-85" font-family="Helvetica,sans-Serif" font-size="10.00" fill="#000000">Kmax</text>
<text text-anchor="middle" x="96.5" y="-74" font-family="Helvetica,sans-Serif" font-size="10.00" fill="#000000">Rneg</text>
<text text-anchor="middle" x="96.5" y="-63" font-family="Helvetica,sans-Serif" font-size="10.00" fill="#000000">hLow</text>
<text text-anchor="middle" x="96.5" y="-52" font-family="Helvetica,sans-Serif" font-size="10.00" fill="#000000">hetaLow</text>
<text text-anchor="middle" x="96.5" y="-41" font-family="Helvetica,sans-Serif" font-size="10.00" fill="#000000">...</text>
</g>
</g>
</svg>
