<?xml version="1.0" encoding="UTF-8" standalone="no"?>
<!DOCTYPE svg PUBLIC "-//W3C//DTD SVG 1.1//EN"
 "http://www.w3.org/Graphics/SVG/1.1/DTD/svg11.dtd">
<!-- Generated by graphviz version 2.50.0 (20211204.2007)
 -->
<!-- Title: D_base Pages: 1 -->
<svg width="465pt" height="84pt"
 viewBox="0.00 0.00 465.00 84.00" xmlns="http://www.w3.org/2000/svg" xmlns:xlink="http://www.w3.org/1999/xlink">
<g id="graph0" class="graph" transform="scale(1 1) rotate(0) translate(4 80)">
<title>D_base</title>
<polygon fill="white" stroke="transparent" points="-4,4 -4,-80 461,-80 461,4 -4,4"/>
<!-- Node1 -->
<g id="node1" class="node">
<title>Node1</title>
<g id="a_node1"><a xlink:title=" ">
<polygon fill="#bfbfbf" stroke="black" points="232.5,-56.5 232.5,-75.5 282.5,-75.5 282.5,-56.5 232.5,-56.5"/>
<text text-anchor="middle" x="257.5" y="-63.5" font-family="Helvetica,sans-Serif" font-size="10.00">D_base</text>
</a>
</g>
</g>
<!-- Node2 -->
<g id="node2" class="node">
<title>Node2</title>
<g id="a_node2"><a xlink:href="class_piecewise_linear_complex_domain.html" target="_top" xlink:title=" ">
<polygon fill="white" stroke="black" points="0,-0.5 0,-19.5 161,-19.5 161,-0.5 0,-0.5"/>
<text text-anchor="middle" x="80.5" y="-7.5" font-family="Helvetica,sans-Serif" font-size="10.00">PiecewiseLinearComplexDomain</text>
</a>
</g>
</g>
<!-- Node1&#45;&gt;Node2 -->
<g id="edge1" class="edge">
<title>Node1&#45;&gt;Node2</title>
<path fill="none" stroke="midnightblue" d="M222.32,-54.27C188.88,-44.07 139.25,-28.92 108.44,-19.52"/>
<polygon fill="midnightblue" stroke="midnightblue" points="221.55,-57.69 232.14,-57.26 223.6,-51 221.55,-57.69"/>
</g>
<!-- Node3 -->
<g id="node3" class="node">
<title>Node3</title>
<g id="a_node3"><a xlink:href="class_planar_straight_line_graph_domain.html" target="_top" xlink:title=" ">
<polygon fill="white" stroke="black" points="179.5,-0.5 179.5,-19.5 335.5,-19.5 335.5,-0.5 179.5,-0.5"/>
<text text-anchor="middle" x="257.5" y="-7.5" font-family="Helvetica,sans-Serif" font-size="10.00">PlanarStraightLineGraphDomain</text>
</a>
</g>
</g>
<!-- Node1&#45;&gt;Node3 -->
<g id="edge2" class="edge">
<title>Node1&#45;&gt;Node3</title>
<path fill="none" stroke="midnightblue" d="M257.5,-45.8C257.5,-36.91 257.5,-26.78 257.5,-19.75"/>
<polygon fill="midnightblue" stroke="midnightblue" points="254,-46.08 257.5,-56.08 261,-46.08 254,-46.08"/>
</g>
<!-- Node4 -->
<g id="node4" class="node">
<title>Node4</title>
<g id="a_node4"><a xlink:href="class_rectangular_domain.html" target="_top" xlink:title=" ">
<polygon fill="white" stroke="black" points="354,-0.5 354,-19.5 457,-19.5 457,-0.5 354,-0.5"/>
<text text-anchor="middle" x="405.5" y="-7.5" font-family="Helvetica,sans-Serif" font-size="10.00">RectangularDomain</text>
</a>
</g>
</g>
<!-- Node1&#45;&gt;Node4 -->
<g id="edge3" class="edge">
<title>Node1&#45;&gt;Node4</title>
<path fill="none" stroke="midnightblue" d="M290.65,-52.91C318.47,-42.75 357.52,-28.51 382.16,-19.52"/>
<polygon fill="midnightblue" stroke="midnightblue" points="289.15,-49.73 280.95,-56.44 291.54,-56.3 289.15,-49.73"/>
</g>
</g>
</svg>
