<?xml version="1.0" encoding="UTF-8" standalone="no"?>
<!DOCTYPE svg PUBLIC "-//W3C//DTD SVG 1.1//EN"
 "http://www.w3.org/Graphics/SVG/1.1/DTD/svg11.dtd">
<!-- Generated by graphviz version 2.44.1 (20200629.0846)
 -->
<!-- Title: createAnalyticGeometry.cpp Pages: 1 -->
<svg width="1380pt" height="196pt"
 viewBox="0.00 0.00 1380.00 196.00" xmlns="http://www.w3.org/2000/svg" xmlns:xlink="http://www.w3.org/1999/xlink">
<g id="graph0" class="graph" transform="scale(1 1) rotate(0) translate(4 192)">
<title>createAnalyticGeometry.cpp</title>
<polygon fill="white" stroke="transparent" points="-4,4 -4,-192 1376,-192 1376,4 -4,4"/>
<!-- Node1 -->
<g id="node1" class="node">
<title>Node1</title>
<g id="a_node1"><a xlink:title=" ">
<polygon fill="#bfbfbf" stroke="black" points="882.5,-168.5 882.5,-187.5 1021.5,-187.5 1021.5,-168.5 882.5,-168.5"/>
<text text-anchor="middle" x="952" y="-175.5" font-family="Helvetica,sans-Serif" font-size="10.00">createAnalyticGeometry.cpp</text>
</a>
</g>
</g>
<!-- Node2 -->
<g id="node2" class="node">
<title>Node2</title>
<g id="a_node2"><a xlink:href="create_analytic_geometry_8h.html" target="_top" xlink:title=" ">
<polygon fill="white" stroke="black" points="518,-56.5 518,-75.5 646,-75.5 646,-56.5 518,-56.5"/>
<text text-anchor="middle" x="582" y="-63.5" font-family="Helvetica,sans-Serif" font-size="10.00">createAnalyticGeometry.h</text>
</a>
</g>
</g>
<!-- Node1&#45;&gt;Node2 -->
<g id="edge1" class="edge">
<title>Node1&#45;&gt;Node2</title>
<path fill="none" stroke="midnightblue" d="M923.27,-168.46C857.35,-148.86 695.18,-100.65 620.63,-78.48"/>
<polygon fill="midnightblue" stroke="midnightblue" points="621.29,-75.03 610.71,-75.53 619.3,-81.74 621.29,-75.03"/>
</g>
<!-- Node17 -->
<g id="node17" class="node">
<title>Node17</title>
<g id="a_node17"><a xlink:href="_mesh_adapt_p_u_m_i_8h.html" target="_top" xlink:title=" ">
<polygon fill="white" stroke="black" points="859,-112.5 859,-131.5 959,-131.5 959,-112.5 859,-112.5"/>
<text text-anchor="middle" x="909" y="-119.5" font-family="Helvetica,sans-Serif" font-size="10.00">MeshAdaptPUMI.h</text>
</a>
</g>
</g>
<!-- Node1&#45;&gt;Node17 -->
<g id="edge16" class="edge">
<title>Node1&#45;&gt;Node17</title>
<path fill="none" stroke="midnightblue" d="M944.9,-168.08C938.76,-160.38 929.73,-149.03 922.26,-139.65"/>
<polygon fill="midnightblue" stroke="midnightblue" points="924.94,-137.39 915.97,-131.75 919.46,-141.75 924.94,-137.39"/>
</g>
<!-- Node27 -->
<g id="node27" class="node">
<title>Node27</title>
<g id="a_node27"><a xlink:title=" ">
<polygon fill="white" stroke="#bfbfbf" points="977,-112.5 977,-131.5 1015,-131.5 1015,-112.5 977,-112.5"/>
<text text-anchor="middle" x="996" y="-119.5" font-family="Helvetica,sans-Serif" font-size="10.00">ma.h</text>
</a>
</g>
</g>
<!-- Node1&#45;&gt;Node27 -->
<g id="edge32" class="edge">
<title>Node1&#45;&gt;Node27</title>
<path fill="none" stroke="midnightblue" d="M959.27,-168.08C965.54,-160.38 974.79,-149.03 982.43,-139.65"/>
<polygon fill="midnightblue" stroke="midnightblue" points="985.27,-141.71 988.87,-131.75 979.84,-137.29 985.27,-141.71"/>
</g>
<!-- Node28 -->
<g id="node28" class="node">
<title>Node28</title>
<g id="a_node28"><a xlink:title=" ">
<polygon fill="white" stroke="#bfbfbf" points="1033,-112.5 1033,-131.5 1093,-131.5 1093,-112.5 1033,-112.5"/>
<text text-anchor="middle" x="1063" y="-119.5" font-family="Helvetica,sans-Serif" font-size="10.00">lionPrint.h</text>
</a>
</g>
</g>
<!-- Node1&#45;&gt;Node28 -->
<g id="edge33" class="edge">
<title>Node1&#45;&gt;Node28</title>
<path fill="none" stroke="midnightblue" d="M969.83,-168.32C987.72,-159.62 1015.48,-146.12 1036.05,-136.11"/>
<polygon fill="midnightblue" stroke="midnightblue" points="1037.75,-139.18 1045.21,-131.65 1034.69,-132.88 1037.75,-139.18"/>
</g>
<!-- Node3 -->
<g id="node3" class="node">
<title>Node3</title>
<g id="a_node3"><a xlink:title=" ">
<polygon fill="white" stroke="#bfbfbf" points="0,-0.5 0,-19.5 38,-19.5 38,-0.5 0,-0.5"/>
<text text-anchor="middle" x="19" y="-7.5" font-family="Helvetica,sans-Serif" font-size="10.00">apf.h</text>
</a>
</g>
</g>
<!-- Node2&#45;&gt;Node3 -->
<g id="edge2" class="edge">
<title>Node2&#45;&gt;Node3</title>
<path fill="none" stroke="midnightblue" d="M517.93,-64.29C418.75,-62.17 222.18,-53.87 47.98,-19.74"/>
<polygon fill="midnightblue" stroke="midnightblue" points="48.62,-16.3 38.13,-17.78 47.25,-23.17 48.62,-16.3"/>
</g>
<!-- Node4 -->
<g id="node4" class="node">
<title>Node4</title>
<g id="a_node4"><a xlink:title=" ">
<polygon fill="white" stroke="#bfbfbf" points="142.5,-0.5 142.5,-19.5 203.5,-19.5 203.5,-0.5 142.5,-0.5"/>
<text text-anchor="middle" x="173" y="-7.5" font-family="Helvetica,sans-Serif" font-size="10.00">apfMDS.h</text>
</a>
</g>
</g>
<!-- Node2&#45;&gt;Node4 -->
<g id="edge3" class="edge">
<title>Node2&#45;&gt;Node4</title>
<path fill="none" stroke="midnightblue" d="M517.72,-59.13C446.03,-52.14 326.46,-39.16 213.7,-19.95"/>
<polygon fill="midnightblue" stroke="midnightblue" points="213.96,-16.45 203.51,-18.2 212.77,-23.34 213.96,-16.45"/>
</g>
<!-- Node5 -->
<g id="node5" class="node">
<title>Node5</title>
<g id="a_node5"><a xlink:title=" ">
<polygon fill="white" stroke="#bfbfbf" points="56,-0.5 56,-19.5 124,-19.5 124,-0.5 56,-0.5"/>
<text text-anchor="middle" x="90" y="-7.5" font-family="Helvetica,sans-Serif" font-size="10.00">apfMesh2.h</text>
</a>
</g>
</g>
<!-- Node2&#45;&gt;Node5 -->
<g id="edge4" class="edge">
<title>Node2&#45;&gt;Node5</title>
<path fill="none" stroke="midnightblue" d="M517.78,-60.72C432.44,-54.56 276.78,-41.65 134.43,-20.07"/>
<polygon fill="midnightblue" stroke="midnightblue" points="134.62,-16.56 124.21,-18.5 133.56,-23.48 134.62,-16.56"/>
</g>
<!-- Node6 -->
<g id="node6" class="node">
<title>Node6</title>
<g id="a_node6"><a xlink:title=" ">
<polygon fill="white" stroke="#bfbfbf" points="222,-0.5 222,-19.5 288,-19.5 288,-0.5 222,-0.5"/>
<text text-anchor="middle" x="255" y="-7.5" font-family="Helvetica,sans-Serif" font-size="10.00">apfShape.h</text>
</a>
</g>
</g>
<!-- Node2&#45;&gt;Node6 -->
<g id="edge5" class="edge">
<title>Node2&#45;&gt;Node6</title>
<path fill="none" stroke="midnightblue" d="M521.79,-56.47C466.25,-48.37 381.28,-35.44 298.52,-20.21"/>
<polygon fill="midnightblue" stroke="midnightblue" points="298.91,-16.72 288.44,-18.34 297.63,-23.6 298.91,-16.72"/>
</g>
<!-- Node7 -->
<g id="node7" class="node">
<title>Node7</title>
<g id="a_node7"><a xlink:title=" ">
<polygon fill="white" stroke="#bfbfbf" points="306.5,-0.5 306.5,-19.5 353.5,-19.5 353.5,-0.5 306.5,-0.5"/>
<text text-anchor="middle" x="330" y="-7.5" font-family="Helvetica,sans-Serif" font-size="10.00">PCU.h</text>
</a>
</g>
</g>
<!-- Node2&#45;&gt;Node7 -->
<g id="edge6" class="edge">
<title>Node2&#45;&gt;Node7</title>
<path fill="none" stroke="midnightblue" d="M536.09,-56.45C493.82,-48.38 429.16,-35.53 363.81,-20.07"/>
<polygon fill="midnightblue" stroke="midnightblue" points="364.29,-16.59 353.75,-17.67 362.66,-23.4 364.29,-16.59"/>
</g>
<!-- Node8 -->
<g id="node8" class="node">
<title>Node8</title>
<g id="a_node8"><a xlink:title=" ">
<polygon fill="white" stroke="#bfbfbf" points="372,-0.5 372,-19.5 452,-19.5 452,-0.5 372,-0.5"/>
<text text-anchor="middle" x="412" y="-7.5" font-family="Helvetica,sans-Serif" font-size="10.00">gmi_analytic.h</text>
</a>
</g>
</g>
<!-- Node2&#45;&gt;Node8 -->
<g id="edge7" class="edge">
<title>Node2&#45;&gt;Node8</title>
<path fill="none" stroke="midnightblue" d="M555.06,-56.44C526.34,-47.32 480.67,-32.81 448.68,-22.65"/>
<polygon fill="midnightblue" stroke="midnightblue" points="449.4,-19.21 438.81,-19.52 447.28,-25.88 449.4,-19.21"/>
</g>
<!-- Node9 -->
<g id="node9" class="node">
<title>Node9</title>
<g id="a_node9"><a xlink:title=" ">
<polygon fill="white" stroke="#bfbfbf" points="470,-0.5 470,-19.5 540,-19.5 540,-0.5 470,-0.5"/>
<text text-anchor="middle" x="505" y="-7.5" font-family="Helvetica,sans-Serif" font-size="10.00">gmi_mesh.h</text>
</a>
</g>
</g>
<!-- Node2&#45;&gt;Node9 -->
<g id="edge8" class="edge">
<title>Node2&#45;&gt;Node9</title>
<path fill="none" stroke="midnightblue" d="M569.63,-56.32C557.84,-48.06 539.87,-35.45 525.86,-25.63"/>
<polygon fill="midnightblue" stroke="midnightblue" points="527.54,-22.53 517.34,-19.65 523.52,-28.26 527.54,-22.53"/>
</g>
<!-- Node10 -->
<g id="node10" class="node">
<title>Node10</title>
<g id="a_node10"><a xlink:title=" ">
<polygon fill="white" stroke="#bfbfbf" points="766.5,-0.5 766.5,-19.5 815.5,-19.5 815.5,-0.5 766.5,-0.5"/>
<text text-anchor="middle" x="791" y="-7.5" font-family="Helvetica,sans-Serif" font-size="10.00">cassert</text>
</a>
</g>
</g>
<!-- Node2&#45;&gt;Node10 -->
<g id="edge9" class="edge">
<title>Node2&#45;&gt;Node10</title>
<path fill="none" stroke="midnightblue" d="M615.57,-56.44C648.81,-47.95 701.44,-34.47 756.54,-20.11"/>
<polygon fill="midnightblue" stroke="midnightblue" points="757.7,-23.42 766.49,-17.51 755.93,-16.65 757.7,-23.42"/>
</g>
<!-- Node11 -->
<g id="node11" class="node">
<title>Node11</title>
<g id="a_node11"><a xlink:title=" ">
<polygon fill="white" stroke="#bfbfbf" points="558,-0.5 558,-19.5 606,-19.5 606,-0.5 558,-0.5"/>
<text text-anchor="middle" x="582" y="-7.5" font-family="Helvetica,sans-Serif" font-size="10.00">stdlib.h</text>
</a>
</g>
</g>
<!-- Node2&#45;&gt;Node11 -->
<g id="edge10" class="edge">
<title>Node2&#45;&gt;Node11</title>
<path fill="none" stroke="midnightblue" d="M582,-56.08C582,-49.01 582,-38.86 582,-29.99"/>
<polygon fill="midnightblue" stroke="midnightblue" points="585.5,-29.75 582,-19.75 578.5,-29.75 585.5,-29.75"/>
</g>
<!-- Node12 -->
<g id="node12" class="node">
<title>Node12</title>
<g id="a_node12"><a xlink:title=" ">
<polygon fill="white" stroke="#bfbfbf" points="834,-0.5 834,-19.5 888,-19.5 888,-0.5 834,-0.5"/>
<text text-anchor="middle" x="861" y="-7.5" font-family="Helvetica,sans-Serif" font-size="10.00">iostream</text>
</a>
</g>
</g>
<!-- Node2&#45;&gt;Node12 -->
<g id="edge11" class="edge">
<title>Node2&#45;&gt;Node12</title>
<path fill="none" stroke="midnightblue" d="M632.22,-56.49C681.27,-47.98 757.98,-34.16 824,-20 824.1,-19.98 824.2,-19.96 824.3,-19.93"/>
<polygon fill="midnightblue" stroke="midnightblue" points="824.98,-23.37 833.96,-17.76 823.44,-16.54 824.98,-23.37"/>
</g>
<!-- Node13 -->
<g id="node13" class="node">
<title>Node13</title>
<g id="a_node13"><a xlink:title=" ">
<polygon fill="white" stroke="#bfbfbf" points="906,-0.5 906,-19.5 956,-19.5 956,-0.5 906,-0.5"/>
<text text-anchor="middle" x="931" y="-7.5" font-family="Helvetica,sans-Serif" font-size="10.00">fstream</text>
</a>
</g>
</g>
<!-- Node2&#45;&gt;Node13 -->
<g id="edge12" class="edge">
<title>Node2&#45;&gt;Node13</title>
<path fill="none" stroke="midnightblue" d="M646.03,-58.08C707.69,-50.91 803.74,-38.42 895.78,-20.05"/>
<polygon fill="midnightblue" stroke="midnightblue" points="896.72,-23.43 905.83,-18.01 895.33,-16.57 896.72,-23.43"/>
</g>
<!-- Node14 -->
<g id="node14" class="node">
<title>Node14</title>
<g id="a_node14"><a xlink:title=" ">
<polygon fill="white" stroke="#bfbfbf" points="974.5,-0.5 974.5,-19.5 1009.5,-19.5 1009.5,-0.5 974.5,-0.5"/>
<text text-anchor="middle" x="992" y="-7.5" font-family="Helvetica,sans-Serif" font-size="10.00">map</text>
</a>
</g>
</g>
<!-- Node2&#45;&gt;Node14 -->
<g id="edge13" class="edge">
<title>Node2&#45;&gt;Node14</title>
<path fill="none" stroke="midnightblue" d="M646.03,-61.49C720.54,-56.52 847.24,-45.29 964.56,-19.63"/>
<polygon fill="midnightblue" stroke="midnightblue" points="965.43,-23.02 974.43,-17.43 963.91,-16.19 965.43,-23.02"/>
</g>
<!-- Node15 -->
<g id="node15" class="node">
<title>Node15</title>
<g id="a_node15"><a xlink:title=" ">
<polygon fill="white" stroke="#bfbfbf" points="624.5,-0.5 624.5,-19.5 671.5,-19.5 671.5,-0.5 624.5,-0.5"/>
<text text-anchor="middle" x="648" y="-7.5" font-family="Helvetica,sans-Serif" font-size="10.00">math.h</text>
</a>
</g>
</g>
<!-- Node2&#45;&gt;Node15 -->
<g id="edge14" class="edge">
<title>Node2&#45;&gt;Node15</title>
<path fill="none" stroke="midnightblue" d="M592.6,-56.32C602.46,-48.26 617.35,-36.08 629.22,-26.37"/>
<polygon fill="midnightblue" stroke="midnightblue" points="631.68,-28.88 637.2,-19.83 627.25,-23.46 631.68,-28.88"/>
</g>
<!-- Node16 -->
<g id="node16" class="node">
<title>Node16</title>
<g id="a_node16"><a xlink:title=" ">
<polygon fill="white" stroke="#bfbfbf" points="689.5,-0.5 689.5,-19.5 748.5,-19.5 748.5,-0.5 689.5,-0.5"/>
<text text-anchor="middle" x="719" y="-7.5" font-family="Helvetica,sans-Serif" font-size="10.00">pcu_util.h</text>
</a>
</g>
</g>
<!-- Node2&#45;&gt;Node16 -->
<g id="edge15" class="edge">
<title>Node2&#45;&gt;Node16</title>
<path fill="none" stroke="midnightblue" d="M603.71,-56.44C626.35,-47.52 662.07,-33.44 687.75,-23.32"/>
<polygon fill="midnightblue" stroke="midnightblue" points="689.37,-26.44 697.39,-19.52 686.81,-19.93 689.37,-26.44"/>
</g>
<!-- Node17&#45;&gt;Node3 -->
<g id="edge28" class="edge">
<title>Node17&#45;&gt;Node3</title>
<path fill="none" stroke="midnightblue" d="M858.78,-118.43C762.37,-113.15 544.81,-99.55 363,-76 224.73,-58.09 187.11,-54.5 47.94,-19.97"/>
<polygon fill="midnightblue" stroke="midnightblue" points="48.73,-16.56 38.18,-17.54 47.04,-23.36 48.73,-16.56"/>
</g>
<!-- Node17&#45;&gt;Node5 -->
<g id="edge29" class="edge">
<title>Node17&#45;&gt;Node5</title>
<path fill="none" stroke="midnightblue" d="M858.81,-116.14C736.43,-103.94 412.85,-69.52 134.13,-20.12"/>
<polygon fill="midnightblue" stroke="midnightblue" points="134.69,-16.66 124.23,-18.35 133.46,-23.55 134.69,-16.66"/>
</g>
<!-- Node18 -->
<g id="node18" class="node">
<title>Node18</title>
<g id="a_node18"><a xlink:href="mesh_8h.html" target="_top" xlink:title=" ">
<polygon fill="white" stroke="black" points="967.5,-56.5 967.5,-75.5 1016.5,-75.5 1016.5,-56.5 967.5,-56.5"/>
<text text-anchor="middle" x="992" y="-63.5" font-family="Helvetica,sans-Serif" font-size="10.00">mesh.h</text>
</a>
</g>
</g>
<!-- Node17&#45;&gt;Node18 -->
<g id="edge17" class="edge">
<title>Node17&#45;&gt;Node18</title>
<path fill="none" stroke="midnightblue" d="M922.34,-112.32C935.16,-103.98 954.78,-91.21 969.94,-81.35"/>
<polygon fill="midnightblue" stroke="midnightblue" points="972.22,-84.04 978.7,-75.65 968.41,-78.17 972.22,-84.04"/>
</g>
<!-- Node25 -->
<g id="node25" class="node">
<title>Node25</title>
<g id="a_node25"><a xlink:title=" ">
<polygon fill="white" stroke="#bfbfbf" points="1035,-56.5 1035,-75.5 1121,-75.5 1121,-56.5 1035,-56.5"/>
<text text-anchor="middle" x="1078" y="-63.5" font-family="Helvetica,sans-Serif" font-size="10.00">apfNumbering.h</text>
</a>
</g>
</g>
<!-- Node17&#45;&gt;Node25 -->
<g id="edge30" class="edge">
<title>Node17&#45;&gt;Node25</title>
<path fill="none" stroke="midnightblue" d="M935.78,-112.44C964.33,-103.32 1009.73,-88.81 1041.54,-78.65"/>
<polygon fill="midnightblue" stroke="midnightblue" points="1042.89,-81.89 1051.35,-75.52 1040.76,-75.23 1042.89,-81.89"/>
</g>
<!-- Node26 -->
<g id="node26" class="node">
<title>Node26</title>
<g id="a_node26"><a xlink:title=" ">
<polygon fill="white" stroke="#bfbfbf" points="1139.5,-56.5 1139.5,-75.5 1182.5,-75.5 1182.5,-56.5 1139.5,-56.5"/>
<text text-anchor="middle" x="1161" y="-63.5" font-family="Helvetica,sans-Serif" font-size="10.00">queue</text>
</a>
</g>
</g>
<!-- Node17&#45;&gt;Node26 -->
<g id="edge31" class="edge">
<title>Node17&#45;&gt;Node26</title>
<path fill="none" stroke="midnightblue" d="M956.67,-112.46C999.41,-104.54 1064,-91.93 1129.32,-76"/>
<polygon fill="midnightblue" stroke="midnightblue" points="1130.51,-79.31 1139.38,-73.52 1128.83,-72.51 1130.51,-79.31"/>
</g>
<!-- Node18&#45;&gt;Node10 -->
<g id="edge26" class="edge">
<title>Node18&#45;&gt;Node10</title>
<path fill="none" stroke="midnightblue" d="M967.35,-58.38C931.69,-48.8 865.57,-31.03 825.21,-20.19"/>
<polygon fill="midnightblue" stroke="midnightblue" points="826.1,-16.81 815.53,-17.59 824.28,-23.57 826.1,-16.81"/>
</g>
<!-- Node18&#45;&gt;Node12 -->
<g id="edge23" class="edge">
<title>Node18&#45;&gt;Node12</title>
<path fill="none" stroke="midnightblue" d="M971.24,-56.44C949.68,-47.56 915.74,-33.56 891.21,-23.45"/>
<polygon fill="midnightblue" stroke="midnightblue" points="892.24,-20.09 881.66,-19.52 889.57,-26.56 892.24,-20.09"/>
</g>
<!-- Node18&#45;&gt;Node13 -->
<g id="edge25" class="edge">
<title>Node18&#45;&gt;Node13</title>
<path fill="none" stroke="midnightblue" d="M982.2,-56.32C973.18,-48.34 959.59,-36.31 948.68,-26.65"/>
<polygon fill="midnightblue" stroke="midnightblue" points="950.79,-23.84 940.98,-19.83 946.15,-29.08 950.79,-23.84"/>
</g>
<!-- Node18&#45;&gt;Node14 -->
<g id="edge21" class="edge">
<title>Node18&#45;&gt;Node14</title>
<path fill="none" stroke="midnightblue" d="M992,-56.08C992,-49.01 992,-38.86 992,-29.99"/>
<polygon fill="midnightblue" stroke="midnightblue" points="995.5,-29.75 992,-19.75 988.5,-29.75 995.5,-29.75"/>
</g>
<!-- Node19 -->
<g id="node19" class="node">
<title>Node19</title>
<g id="a_node19"><a xlink:title=" ">
<polygon fill="white" stroke="#bfbfbf" points="1028,-0.5 1028,-19.5 1058,-19.5 1058,-0.5 1028,-0.5"/>
<text text-anchor="middle" x="1043" y="-7.5" font-family="Helvetica,sans-Serif" font-size="10.00">set</text>
</a>
</g>
</g>
<!-- Node18&#45;&gt;Node19 -->
<g id="edge18" class="edge">
<title>Node18&#45;&gt;Node19</title>
<path fill="none" stroke="midnightblue" d="M1000.42,-56.08C1007.85,-48.22 1018.85,-36.57 1027.81,-27.08"/>
<polygon fill="midnightblue" stroke="midnightblue" points="1030.41,-29.42 1034.74,-19.75 1025.32,-24.62 1030.41,-29.42"/>
</g>
<!-- Node20 -->
<g id="node20" class="node">
<title>Node20</title>
<g id="a_node20"><a xlink:title=" ">
<polygon fill="white" stroke="#bfbfbf" points="1076,-0.5 1076,-19.5 1120,-19.5 1120,-0.5 1076,-0.5"/>
<text text-anchor="middle" x="1098" y="-7.5" font-family="Helvetica,sans-Serif" font-size="10.00">vector</text>
</a>
</g>
</g>
<!-- Node18&#45;&gt;Node20 -->
<g id="edge19" class="edge">
<title>Node18&#45;&gt;Node20</title>
<path fill="none" stroke="midnightblue" d="M1009.03,-56.32C1026.03,-47.66 1052.38,-34.24 1071.99,-24.25"/>
<polygon fill="midnightblue" stroke="midnightblue" points="1073.69,-27.31 1081.01,-19.65 1070.51,-21.08 1073.69,-27.31"/>
</g>
<!-- Node21 -->
<g id="node21" class="node">
<title>Node21</title>
<g id="a_node21"><a xlink:title=" ">
<polygon fill="white" stroke="#bfbfbf" points="1138,-0.5 1138,-19.5 1194,-19.5 1194,-0.5 1138,-0.5"/>
<text text-anchor="middle" x="1166" y="-7.5" font-family="Helvetica,sans-Serif" font-size="10.00">algorithm</text>
</a>
</g>
</g>
<!-- Node18&#45;&gt;Node21 -->
<g id="edge20" class="edge">
<title>Node18&#45;&gt;Node21</title>
<path fill="none" stroke="midnightblue" d="M1016.56,-57.38C1045.81,-48.3 1094.95,-33.05 1128.85,-22.53"/>
<polygon fill="midnightblue" stroke="midnightblue" points="1129.89,-25.87 1138.41,-19.56 1127.82,-19.19 1129.89,-25.87"/>
</g>
<!-- Node22 -->
<g id="node22" class="node">
<title>Node22</title>
<g id="a_node22"><a xlink:title=" ">
<polygon fill="white" stroke="#bfbfbf" points="1212.5,-0.5 1212.5,-19.5 1241.5,-19.5 1241.5,-0.5 1212.5,-0.5"/>
<text text-anchor="middle" x="1227" y="-7.5" font-family="Helvetica,sans-Serif" font-size="10.00">list</text>
</a>
</g>
</g>
<!-- Node18&#45;&gt;Node22 -->
<g id="edge22" class="edge">
<title>Node18&#45;&gt;Node22</title>
<path fill="none" stroke="midnightblue" d="M1016.84,-58.25C1019.92,-57.46 1023.03,-56.7 1026,-56 1101.12,-38.44 1124.06,-41.85 1202.55,-19.72"/>
<polygon fill="midnightblue" stroke="midnightblue" points="1203.75,-23.02 1212.4,-16.89 1201.82,-16.29 1203.75,-23.02"/>
</g>
<!-- Node23 -->
<g id="node23" class="node">
<title>Node23</title>
<g id="a_node23"><a xlink:title=" ">
<polygon fill="white" stroke="#bfbfbf" points="1260,-0.5 1260,-19.5 1310,-19.5 1310,-0.5 1260,-0.5"/>
<text text-anchor="middle" x="1285" y="-7.5" font-family="Helvetica,sans-Serif" font-size="10.00">iomanip</text>
</a>
</g>
</g>
<!-- Node18&#45;&gt;Node23 -->
<g id="edge24" class="edge">
<title>Node18&#45;&gt;Node23</title>
<path fill="none" stroke="midnightblue" d="M1016.81,-58.12C1019.9,-57.36 1023.01,-56.63 1026,-56 1121.98,-35.67 1150.18,-40.64 1249.93,-20.04"/>
<polygon fill="midnightblue" stroke="midnightblue" points="1250.75,-23.45 1259.82,-17.97 1249.31,-16.6 1250.75,-23.45"/>
</g>
<!-- Node24 -->
<g id="node24" class="node">
<title>Node24</title>
<g id="a_node24"><a xlink:title=" ">
<polygon fill="white" stroke="#bfbfbf" points="1328,-0.5 1328,-19.5 1372,-19.5 1372,-0.5 1328,-0.5"/>
<text text-anchor="middle" x="1350" y="-7.5" font-family="Helvetica,sans-Serif" font-size="10.00">cmath</text>
</a>
</g>
</g>
<!-- Node18&#45;&gt;Node24 -->
<g id="edge27" class="edge">
<title>Node18&#45;&gt;Node24</title>
<path fill="none" stroke="midnightblue" d="M1016.79,-58.02C1019.88,-57.27 1023,-56.58 1026,-56 1151.68,-31.76 1188.68,-45.66 1317.88,-19.93"/>
<polygon fill="midnightblue" stroke="midnightblue" points="1318.65,-23.34 1327.76,-17.92 1317.26,-16.48 1318.65,-23.34"/>
</g>
</g>
</svg>
