<?xml version="1.0" encoding="UTF-8" standalone="no"?>
<!DOCTYPE svg PUBLIC "-//W3C//DTD SVG 1.1//EN"
 "http://www.w3.org/Graphics/SVG/1.1/DTD/svg11.dtd">
<!-- Generated by graphviz version 2.40.1 (20161225.0304)
 -->
<!-- Title: createAnalyticGeometry.h Pages: 1 -->
<svg width="1018pt" height="84pt"
 viewBox="0.00 0.00 1017.50 84.00" xmlns="http://www.w3.org/2000/svg" xmlns:xlink="http://www.w3.org/1999/xlink">
<g id="graph0" class="graph" transform="scale(1 1) rotate(0) translate(4 80)">
<title>createAnalyticGeometry.h</title>
<polygon fill="#ffffff" stroke="transparent" points="-4,4 -4,-80 1013.5,-80 1013.5,4 -4,4"/>
<!-- Node0 -->
<g id="node1" class="node">
<title>Node0</title>
<polygon fill="#bfbfbf" stroke="#000000" points="479,-56.5 479,-75.5 609,-75.5 609,-56.5 479,-56.5"/>
<text text-anchor="middle" x="544" y="-63.5" font-family="Helvetica,sans-Serif" font-size="10.00" fill="#000000">createAnalyticGeometry.h</text>
</g>
<!-- Node1 -->
<g id="node2" class="node">
<title>Node1</title>
<polygon fill="#ffffff" stroke="#bfbfbf" points="0,-.5 0,-19.5 38,-19.5 38,-.5 0,-.5"/>
<text text-anchor="middle" x="19" y="-7.5" font-family="Helvetica,sans-Serif" font-size="10.00" fill="#000000">apf.h</text>
</g>
<!-- Node0&#45;&gt;Node1 -->
<g id="edge1" class="edge">
<title>Node0&#45;&gt;Node1</title>
<path fill="none" stroke="#191970" d="M478.8695,-62.0073C367.5085,-54.8535 144.0252,-38.991 48.0636,-19.6592"/>
<polygon fill="#191970" stroke="#191970" points="48.6036,-16.1957 38.0934,-17.5324 47.1432,-23.0417 48.6036,-16.1957"/>
</g>
<!-- Node2 -->
<g id="node3" class="node">
<title>Node2</title>
<polygon fill="#ffffff" stroke="#bfbfbf" points="56.5,-.5 56.5,-19.5 117.5,-19.5 117.5,-.5 56.5,-.5"/>
<text text-anchor="middle" x="87" y="-7.5" font-family="Helvetica,sans-Serif" font-size="10.00" fill="#000000">apfMDS.h</text>
</g>
<!-- Node0&#45;&gt;Node2 -->
<g id="edge2" class="edge">
<title>Node0&#45;&gt;Node2</title>
<path fill="none" stroke="#191970" d="M478.9611,-61.5611C398.678,-55.472 257.8667,-42.807 128.0426,-19.9738"/>
<polygon fill="#191970" stroke="#191970" points="128.3788,-16.4786 117.9196,-18.1685 127.1498,-23.3699 128.3788,-16.4786"/>
</g>
<!-- Node3 -->
<g id="node4" class="node">
<title>Node3</title>
<polygon fill="#ffffff" stroke="#bfbfbf" points="136,-.5 136,-19.5 204,-19.5 204,-.5 136,-.5"/>
<text text-anchor="middle" x="170" y="-7.5" font-family="Helvetica,sans-Serif" font-size="10.00" fill="#000000">apfMesh2.h</text>
</g>
<!-- Node0&#45;&gt;Node3 -->
<g id="edge3" class="edge">
<title>Node0&#45;&gt;Node3</title>
<path fill="none" stroke="#191970" d="M478.7153,-58.6943C413.9737,-51.0497 311.7655,-37.908 214.2389,-20.1007"/>
<polygon fill="#191970" stroke="#191970" points="214.6782,-16.6227 204.209,-18.2495 213.4076,-23.5065 214.6782,-16.6227"/>
</g>
<!-- Node4 -->
<g id="node5" class="node">
<title>Node4</title>
<polygon fill="#ffffff" stroke="#bfbfbf" points="222,-.5 222,-19.5 288,-19.5 288,-.5 222,-.5"/>
<text text-anchor="middle" x="255" y="-7.5" font-family="Helvetica,sans-Serif" font-size="10.00" fill="#000000">apfShape.h</text>
</g>
<!-- Node0&#45;&gt;Node4 -->
<g id="edge4" class="edge">
<title>Node0&#45;&gt;Node4</title>
<path fill="none" stroke="#191970" d="M488.4182,-56.4613C440.5084,-48.0549 369.254,-35.115 298.4257,-20.2319"/>
<polygon fill="#191970" stroke="#191970" points="298.9447,-16.7643 288.4369,-18.1192 297.4961,-23.6128 298.9447,-16.7643"/>
</g>
<!-- Node5 -->
<g id="node6" class="node">
<title>Node5</title>
<polygon fill="#ffffff" stroke="#bfbfbf" points="306.5,-.5 306.5,-19.5 353.5,-19.5 353.5,-.5 306.5,-.5"/>
<text text-anchor="middle" x="330" y="-7.5" font-family="Helvetica,sans-Serif" font-size="10.00" fill="#000000">PCU.h</text>
</g>
<!-- Node0&#45;&gt;Node5 -->
<g id="edge5" class="edge">
<title>Node0&#45;&gt;Node5</title>
<path fill="none" stroke="#191970" d="M504.3174,-56.464C469.6367,-48.0074 417.7109,-35.0518 363.535,-20.0609"/>
<polygon fill="#191970" stroke="#191970" points="364.3278,-16.6486 353.7555,-17.3392 362.4509,-23.3923 364.3278,-16.6486"/>
</g>
<!-- Node6 -->
<g id="node7" class="node">
<title>Node6</title>
<polygon fill="#ffffff" stroke="#bfbfbf" points="372,-.5 372,-19.5 452,-19.5 452,-.5 372,-.5"/>
<text text-anchor="middle" x="412" y="-7.5" font-family="Helvetica,sans-Serif" font-size="10.00" fill="#000000">gmi_analytic.h</text>
</g>
<!-- Node0&#45;&gt;Node6 -->
<g id="edge6" class="edge">
<title>Node0&#45;&gt;Node6</title>
<path fill="none" stroke="#191970" d="M521.3084,-56.3733C499.9289,-47.3032 467.6943,-33.6279 443.7638,-23.4755"/>
<polygon fill="#191970" stroke="#191970" points="444.9683,-20.1846 434.3955,-19.5011 442.2344,-26.6287 444.9683,-20.1846"/>
</g>
<!-- Node7 -->
<g id="node8" class="node">
<title>Node7</title>
<polygon fill="#ffffff" stroke="#bfbfbf" points="470,-.5 470,-19.5 540,-19.5 540,-.5 470,-.5"/>
<text text-anchor="middle" x="505" y="-7.5" font-family="Helvetica,sans-Serif" font-size="10.00" fill="#000000">gmi_mesh.h</text>
</g>
<!-- Node0&#45;&gt;Node7 -->
<g id="edge7" class="edge">
<title>Node0&#45;&gt;Node7</title>
<path fill="none" stroke="#191970" d="M537.2067,-56.2455C531.7822,-48.4564 524.0339,-37.3308 517.4967,-27.9439"/>
<polygon fill="#191970" stroke="#191970" points="520.3025,-25.8485 511.7154,-19.6427 514.5583,-29.849 520.3025,-25.8485"/>
</g>
<!-- Node8 -->
<g id="node9" class="node">
<title>Node8</title>
<polygon fill="#ffffff" stroke="#bfbfbf" points="558.5,-.5 558.5,-19.5 607.5,-19.5 607.5,-.5 558.5,-.5"/>
<text text-anchor="middle" x="583" y="-7.5" font-family="Helvetica,sans-Serif" font-size="10.00" fill="#000000">cassert</text>
</g>
<!-- Node0&#45;&gt;Node8 -->
<g id="edge8" class="edge">
<title>Node0&#45;&gt;Node8</title>
<path fill="none" stroke="#191970" d="M550.7933,-56.2455C556.2178,-48.4564 563.9661,-37.3308 570.5033,-27.9439"/>
<polygon fill="#191970" stroke="#191970" points="573.4417,-29.849 576.2846,-19.6427 567.6975,-25.8485 573.4417,-29.849"/>
</g>
<!-- Node9 -->
<g id="node10" class="node">
<title>Node9</title>
<polygon fill="#ffffff" stroke="#bfbfbf" points="626,-.5 626,-19.5 674,-19.5 674,-.5 626,-.5"/>
<text text-anchor="middle" x="650" y="-7.5" font-family="Helvetica,sans-Serif" font-size="10.00" fill="#000000">stdlib.h</text>
</g>
<!-- Node0&#45;&gt;Node9 -->
<g id="edge9" class="edge">
<title>Node0&#45;&gt;Node9</title>
<path fill="none" stroke="#191970" d="M562.4638,-56.2455C579.1074,-47.4527 603.7993,-34.4079 622.7192,-24.4125"/>
<polygon fill="#191970" stroke="#191970" points="624.5408,-27.4086 631.7478,-19.6427 621.2709,-21.2193 624.5408,-27.4086"/>
</g>
<!-- Node10 -->
<g id="node11" class="node">
<title>Node10</title>
<polygon fill="#ffffff" stroke="#bfbfbf" points="692,-.5 692,-19.5 746,-19.5 746,-.5 692,-.5"/>
<text text-anchor="middle" x="719" y="-7.5" font-family="Helvetica,sans-Serif" font-size="10.00" fill="#000000">iostream</text>
</g>
<!-- Node0&#45;&gt;Node10 -->
<g id="edge10" class="edge">
<title>Node0&#45;&gt;Node10</title>
<path fill="none" stroke="#191970" d="M574.0836,-56.3733C603.977,-46.8073 649.8782,-32.119 681.9892,-21.8435"/>
<polygon fill="#191970" stroke="#191970" points="683.4349,-25.0557 691.8924,-18.6744 681.3015,-18.3888 683.4349,-25.0557"/>
</g>
<!-- Node11 -->
<g id="node12" class="node">
<title>Node11</title>
<polygon fill="#ffffff" stroke="#bfbfbf" points="764,-.5 764,-19.5 814,-19.5 814,-.5 764,-.5"/>
<text text-anchor="middle" x="789" y="-7.5" font-family="Helvetica,sans-Serif" font-size="10.00" fill="#000000">fstream</text>
</g>
<!-- Node0&#45;&gt;Node11 -->
<g id="edge11" class="edge">
<title>Node0&#45;&gt;Node11</title>
<path fill="none" stroke="#191970" d="M592.4167,-56.4689C633.1539,-48.2187 693.1339,-35.5348 754.0264,-20.1245"/>
<polygon fill="#191970" stroke="#191970" points="754.981,-23.4931 763.8044,-17.6281 753.2493,-16.7107 754.981,-23.4931"/>
</g>
<!-- Node12 -->
<g id="node13" class="node">
<title>Node12</title>
<polygon fill="#ffffff" stroke="#bfbfbf" points="832.5,-.5 832.5,-19.5 867.5,-19.5 867.5,-.5 832.5,-.5"/>
<text text-anchor="middle" x="850" y="-7.5" font-family="Helvetica,sans-Serif" font-size="10.00" fill="#000000">map</text>
</g>
<!-- Node0&#45;&gt;Node12 -->
<g id="edge12" class="edge">
<title>Node0&#45;&gt;Node12</title>
<path fill="none" stroke="#191970" d="M609.013,-58.8571C663.6978,-52.0393 743.9586,-40.1419 822.3864,-19.7217"/>
<polygon fill="#191970" stroke="#191970" points="823.6694,-23.0024 832.4372,-17.0546 821.874,-16.2366 823.6694,-23.0024"/>
</g>
<!-- Node13 -->
<g id="node14" class="node">
<title>Node13</title>
<polygon fill="#ffffff" stroke="#bfbfbf" points="885.5,-.5 885.5,-19.5 932.5,-19.5 932.5,-.5 885.5,-.5"/>
<text text-anchor="middle" x="909" y="-7.5" font-family="Helvetica,sans-Serif" font-size="10.00" fill="#000000">math.h</text>
</g>
<!-- Node0&#45;&gt;Node13 -->
<g id="edge13" class="edge">
<title>Node0&#45;&gt;Node13</title>
<path fill="none" stroke="#191970" d="M609.0271,-60.2345C674.3216,-53.7218 777.8625,-41.4274 875.3336,-20.0988"/>
<polygon fill="#191970" stroke="#191970" points="876.3518,-23.4579 885.3528,-17.8692 874.8313,-16.6251 876.3518,-23.4579"/>
</g>
<!-- Node14 -->
<g id="node15" class="node">
<title>Node14</title>
<polygon fill="#ffffff" stroke="#bfbfbf" points="950.5,-.5 950.5,-19.5 1009.5,-19.5 1009.5,-.5 950.5,-.5"/>
<text text-anchor="middle" x="980" y="-7.5" font-family="Helvetica,sans-Serif" font-size="10.00" fill="#000000">pcu_util.h</text>
</g>
<!-- Node0&#45;&gt;Node14 -->
<g id="edge14" class="edge">
<title>Node0&#45;&gt;Node14</title>
<path fill="none" stroke="#191970" d="M609.2278,-61.3252C686.3282,-55.1594 818.5924,-42.5763 940.3526,-20.1119"/>
<polygon fill="#191970" stroke="#191970" points="941.035,-23.545 950.2204,-18.265 939.7472,-16.6645 941.035,-23.545"/>
</g>
</g>
</svg>
