<?xml version="1.0" encoding="UTF-8" standalone="no"?>
<!DOCTYPE svg PUBLIC "-//W3C//DTD SVG 1.1//EN"
 "http://www.w3.org/Graphics/SVG/1.1/DTD/svg11.dtd">
<!-- Generated by graphviz version 2.40.1 (20161225.0304)
 -->
<!-- Title: createAnalyticGeometry.cpp Pages: 1 -->
<svg width="1454pt" height="196pt"
 viewBox="0.00 0.00 1454.00 196.00" xmlns="http://www.w3.org/2000/svg" xmlns:xlink="http://www.w3.org/1999/xlink">
<g id="graph0" class="graph" transform="scale(1 1) rotate(0) translate(4 192)">
<title>createAnalyticGeometry.cpp</title>
<polygon fill="#ffffff" stroke="transparent" points="-4,4 -4,-192 1450,-192 1450,4 -4,4"/>
<!-- Node0 -->
<g id="node1" class="node">
<title>Node0</title>
<polygon fill="#bfbfbf" stroke="#000000" points="990,-168.5 990,-187.5 1130,-187.5 1130,-168.5 990,-168.5"/>
<text text-anchor="middle" x="1060" y="-175.5" font-family="Helvetica,sans-Serif" font-size="10.00" fill="#000000">createAnalyticGeometry.cpp</text>
</g>
<!-- Node1 -->
<g id="node2" class="node">
<title>Node1</title>
<g id="a_node2"><a xlink:href="create_analytic_geometry_8h.html" target="_top" xlink:title="createAnalyticGeometry.h">
<polygon fill="#ffffff" stroke="#000000" points="517,-56.5 517,-75.5 647,-75.5 647,-56.5 517,-56.5"/>
<text text-anchor="middle" x="582" y="-63.5" font-family="Helvetica,sans-Serif" font-size="10.00" fill="#000000">createAnalyticGeometry.h</text>
</a>
</g>
</g>
<!-- Node0&#45;&gt;Node1 -->
<g id="edge1" class="edge">
<title>Node0&#45;&gt;Node1</title>
<path fill="none" stroke="#191970" d="M1019.246,-168.4509C932.1132,-148.0349 727.9,-100.1858 632.6211,-77.861"/>
<polygon fill="#191970" stroke="#191970" points="633.1856,-74.3986 622.6509,-75.5249 631.5887,-81.214 633.1856,-74.3986"/>
</g>
<!-- Node16 -->
<g id="node17" class="node">
<title>Node16</title>
<g id="a_node17"><a xlink:href="_mesh_adapt_p_u_m_i_8h.html" target="_top" xlink:title="MeshAdaptPUMI.h">
<polygon fill="#ffffff" stroke="#000000" points="967,-112.5 967,-131.5 1067,-131.5 1067,-112.5 967,-112.5"/>
<text text-anchor="middle" x="1017" y="-119.5" font-family="Helvetica,sans-Serif" font-size="10.00" fill="#000000">MeshAdaptPUMI.h</text>
</a>
</g>
</g>
<!-- Node0&#45;&gt;Node16 -->
<g id="edge16" class="edge">
<title>Node0&#45;&gt;Node16</title>
<path fill="none" stroke="#191970" d="M1052.51,-168.2455C1046.4674,-160.3761 1037.8097,-149.101 1030.5559,-139.6542"/>
<polygon fill="#191970" stroke="#191970" points="1033.2705,-137.4426 1024.4042,-131.6427 1027.7185,-141.7058 1033.2705,-137.4426"/>
</g>
<!-- Node28 -->
<g id="node29" class="node">
<title>Node28</title>
<polygon fill="#ffffff" stroke="#bfbfbf" points="1085,-112.5 1085,-131.5 1123,-131.5 1123,-112.5 1085,-112.5"/>
<text text-anchor="middle" x="1104" y="-119.5" font-family="Helvetica,sans-Serif" font-size="10.00" fill="#000000">ma.h</text>
</g>
<!-- Node0&#45;&gt;Node28 -->
<g id="edge34" class="edge">
<title>Node0&#45;&gt;Node28</title>
<path fill="none" stroke="#191970" d="M1067.6642,-168.2455C1073.8473,-160.3761 1082.7063,-149.101 1090.1289,-139.6542"/>
<polygon fill="#191970" stroke="#191970" points="1092.9975,-141.6683 1096.4236,-131.6427 1087.4932,-137.3435 1092.9975,-141.6683"/>
</g>
<!-- Node29 -->
<g id="node30" class="node">
<title>Node29</title>
<polygon fill="#ffffff" stroke="#bfbfbf" points="1141,-112.5 1141,-131.5 1201,-131.5 1201,-112.5 1141,-112.5"/>
<text text-anchor="middle" x="1171" y="-119.5" font-family="Helvetica,sans-Serif" font-size="10.00" fill="#000000">lionPrint.h</text>
</g>
<!-- Node0&#45;&gt;Node29 -->
<g id="edge35" class="edge">
<title>Node0&#45;&gt;Node29</title>
<path fill="none" stroke="#191970" d="M1079.0816,-168.3733C1096.7402,-159.4644 1123.2053,-146.1127 1143.2098,-136.0203"/>
<polygon fill="#191970" stroke="#191970" points="1144.8158,-139.1303 1152.1674,-131.5011 1141.6628,-132.8806 1144.8158,-139.1303"/>
</g>
<!-- Node2 -->
<g id="node3" class="node">
<title>Node2</title>
<polygon fill="#ffffff" stroke="#bfbfbf" points="0,-.5 0,-19.5 38,-19.5 38,-.5 0,-.5"/>
<text text-anchor="middle" x="19" y="-7.5" font-family="Helvetica,sans-Serif" font-size="10.00" fill="#000000">apf.h</text>
</g>
<!-- Node1&#45;&gt;Node2 -->
<g id="edge2" class="edge">
<title>Node1&#45;&gt;Node2</title>
<path fill="none" stroke="#191970" d="M516.7156,-62.4911C398.2883,-55.7889 151.4816,-40.1889 47.9461,-19.6207"/>
<polygon fill="#191970" stroke="#191970" points="48.5957,-16.1808 38.0897,-17.5496 47.1562,-23.0312 48.5957,-16.1808"/>
</g>
<!-- Node3 -->
<g id="node4" class="node">
<title>Node3</title>
<polygon fill="#ffffff" stroke="#bfbfbf" points="142.5,-.5 142.5,-19.5 203.5,-19.5 203.5,-.5 142.5,-.5"/>
<text text-anchor="middle" x="173" y="-7.5" font-family="Helvetica,sans-Serif" font-size="10.00" fill="#000000">apfMDS.h</text>
</g>
<!-- Node1&#45;&gt;Node3 -->
<g id="edge3" class="edge">
<title>Node1&#45;&gt;Node3</title>
<path fill="none" stroke="#191970" d="M516.9763,-60.2948C445.1412,-53.4531 325.9058,-40.5066 214.0352,-20.0018"/>
<polygon fill="#191970" stroke="#191970" points="214.3987,-16.5096 203.9277,-18.1246 213.1204,-23.3919 214.3987,-16.5096"/>
</g>
<!-- Node4 -->
<g id="node5" class="node">
<title>Node4</title>
<polygon fill="#ffffff" stroke="#bfbfbf" points="56,-.5 56,-19.5 124,-19.5 124,-.5 56,-.5"/>
<text text-anchor="middle" x="90" y="-7.5" font-family="Helvetica,sans-Serif" font-size="10.00" fill="#000000">apfMesh2.h</text>
</g>
<!-- Node1&#45;&gt;Node4 -->
<g id="edge4" class="edge">
<title>Node1&#45;&gt;Node4</title>
<path fill="none" stroke="#191970" d="M516.9679,-61.9275C431.3815,-55.9923 276.1381,-43.244 134.3719,-20.0499"/>
<polygon fill="#191970" stroke="#191970" points="134.627,-16.5445 124.1892,-18.3618 133.4821,-23.4503 134.627,-16.5445"/>
</g>
<!-- Node5 -->
<g id="node6" class="node">
<title>Node5</title>
<polygon fill="#ffffff" stroke="#bfbfbf" points="222,-.5 222,-19.5 288,-19.5 288,-.5 222,-.5"/>
<text text-anchor="middle" x="255" y="-7.5" font-family="Helvetica,sans-Serif" font-size="10.00" fill="#000000">apfShape.h</text>
</g>
<!-- Node1&#45;&gt;Node5 -->
<g id="edge5" class="edge">
<title>Node1&#45;&gt;Node5</title>
<path fill="none" stroke="#191970" d="M516.9539,-56.8959C461.2917,-48.7869 378.8273,-36.0213 298.2385,-20.1439"/>
<polygon fill="#191970" stroke="#191970" points="298.9124,-16.7094 288.4218,-18.1923 297.5474,-23.5751 298.9124,-16.7094"/>
</g>
<!-- Node6 -->
<g id="node7" class="node">
<title>Node6</title>
<polygon fill="#ffffff" stroke="#bfbfbf" points="306.5,-.5 306.5,-19.5 353.5,-19.5 353.5,-.5 306.5,-.5"/>
<text text-anchor="middle" x="330" y="-7.5" font-family="Helvetica,sans-Serif" font-size="10.00" fill="#000000">PCU.h</text>
</g>
<!-- Node1&#45;&gt;Node6 -->
<g id="edge6" class="edge">
<title>Node1&#45;&gt;Node6</title>
<path fill="none" stroke="#191970" d="M530.3779,-56.4756C488.076,-48.373 426.4773,-35.8972 363.7908,-20.0339"/>
<polygon fill="#191970" stroke="#191970" points="364.2789,-16.5461 353.7235,-17.459 362.5443,-23.3278 364.2789,-16.5461"/>
</g>
<!-- Node7 -->
<g id="node8" class="node">
<title>Node7</title>
<polygon fill="#ffffff" stroke="#bfbfbf" points="372,-.5 372,-19.5 452,-19.5 452,-.5 372,-.5"/>
<text text-anchor="middle" x="412" y="-7.5" font-family="Helvetica,sans-Serif" font-size="10.00" fill="#000000">gmi_analytic.h</text>
</g>
<!-- Node1&#45;&gt;Node7 -->
<g id="edge7" class="edge">
<title>Node1&#45;&gt;Node7</title>
<path fill="none" stroke="#191970" d="M552.776,-56.3733C524.5075,-47.0613 481.5035,-32.8953 450.4656,-22.671"/>
<polygon fill="#191970" stroke="#191970" points="451.4357,-19.3056 440.8427,-19.5011 449.2456,-25.9542 451.4357,-19.3056"/>
</g>
<!-- Node8 -->
<g id="node9" class="node">
<title>Node8</title>
<polygon fill="#ffffff" stroke="#bfbfbf" points="470,-.5 470,-19.5 540,-19.5 540,-.5 470,-.5"/>
<text text-anchor="middle" x="505" y="-7.5" font-family="Helvetica,sans-Serif" font-size="10.00" fill="#000000">gmi_mesh.h</text>
</g>
<!-- Node1&#45;&gt;Node8 -->
<g id="edge8" class="edge">
<title>Node1&#45;&gt;Node8</title>
<path fill="none" stroke="#191970" d="M568.5876,-56.2455C556.9943,-47.814 540.0252,-35.4729 526.5322,-25.6598"/>
<polygon fill="#191970" stroke="#191970" points="528.4047,-22.6938 518.2587,-19.6427 524.2874,-28.355 528.4047,-22.6938"/>
</g>
<!-- Node9 -->
<g id="node10" class="node">
<title>Node9</title>
<polygon fill="#ffffff" stroke="#bfbfbf" points="766.5,-.5 766.5,-19.5 815.5,-19.5 815.5,-.5 766.5,-.5"/>
<text text-anchor="middle" x="791" y="-7.5" font-family="Helvetica,sans-Serif" font-size="10.00" fill="#000000">cassert</text>
</g>
<!-- Node1&#45;&gt;Node9 -->
<g id="edge9" class="edge">
<title>Node1&#45;&gt;Node9</title>
<path fill="none" stroke="#191970" d="M619.6359,-56.4436C653.053,-47.8834 703.4505,-34.7917 756.2569,-20.1524"/>
<polygon fill="#191970" stroke="#191970" points="757.4459,-23.4546 766.1415,-17.4017 755.5692,-16.7109 757.4459,-23.4546"/>
</g>
<!-- Node10 -->
<g id="node11" class="node">
<title>Node10</title>
<polygon fill="#ffffff" stroke="#bfbfbf" points="558,-.5 558,-19.5 606,-19.5 606,-.5 558,-.5"/>
<text text-anchor="middle" x="582" y="-7.5" font-family="Helvetica,sans-Serif" font-size="10.00" fill="#000000">stdlib.h</text>
</g>
<!-- Node1&#45;&gt;Node10 -->
<g id="edge10" class="edge">
<title>Node1&#45;&gt;Node10</title>
<path fill="none" stroke="#191970" d="M582,-56.2455C582,-48.9382 582,-38.6944 582,-29.7046"/>
<polygon fill="#191970" stroke="#191970" points="585.5001,-29.6426 582,-19.6427 578.5001,-29.6427 585.5001,-29.6426"/>
</g>
<!-- Node11 -->
<g id="node12" class="node">
<title>Node11</title>
<polygon fill="#ffffff" stroke="#bfbfbf" points="834,-.5 834,-19.5 888,-19.5 888,-.5 834,-.5"/>
<text text-anchor="middle" x="861" y="-7.5" font-family="Helvetica,sans-Serif" font-size="10.00" fill="#000000">iostream</text>
</g>
<!-- Node1&#45;&gt;Node11 -->
<g id="edge11" class="edge">
<title>Node1&#45;&gt;Node11</title>
<path fill="none" stroke="#191970" d="M638.9748,-56.4324C688.1771,-47.8694 761.0638,-34.4643 824,-20 824.1013,-19.9767 824.2028,-19.9533 824.3044,-19.9299"/>
<polygon fill="#191970" stroke="#191970" points="825.103,-23.3378 833.9818,-17.557 823.4359,-16.5392 825.103,-23.3378"/>
</g>
<!-- Node12 -->
<g id="node13" class="node">
<title>Node12</title>
<polygon fill="#ffffff" stroke="#bfbfbf" points="906,-.5 906,-19.5 956,-19.5 956,-.5 906,-.5"/>
<text text-anchor="middle" x="931" y="-7.5" font-family="Helvetica,sans-Serif" font-size="10.00" fill="#000000">fstream</text>
</g>
<!-- Node1&#45;&gt;Node12 -->
<g id="edge12" class="edge">
<title>Node1&#45;&gt;Node12</title>
<path fill="none" stroke="#191970" d="M647.0337,-59.2176C708.8162,-52.1608 804.416,-39.653 895.8724,-20.0028"/>
<polygon fill="#191970" stroke="#191970" points="896.827,-23.377 905.8514,-17.8263 895.3352,-16.5378 896.827,-23.377"/>
</g>
<!-- Node13 -->
<g id="node14" class="node">
<title>Node13</title>
<polygon fill="#ffffff" stroke="#bfbfbf" points="974.5,-.5 974.5,-19.5 1009.5,-19.5 1009.5,-.5 974.5,-.5"/>
<text text-anchor="middle" x="992" y="-7.5" font-family="Helvetica,sans-Serif" font-size="10.00" fill="#000000">map</text>
</g>
<!-- Node1&#45;&gt;Node13 -->
<g id="edge13" class="edge">
<title>Node1&#45;&gt;Node13</title>
<path fill="none" stroke="#191970" d="M647.2022,-62.8421C721.9877,-58.1803 848.176,-47.134 964.6661,-19.5363"/>
<polygon fill="#191970" stroke="#191970" points="965.5675,-22.9194 974.4663,-17.1694 963.924,-16.115 965.5675,-22.9194"/>
</g>
<!-- Node14 -->
<g id="node15" class="node">
<title>Node14</title>
<polygon fill="#ffffff" stroke="#bfbfbf" points="624.5,-.5 624.5,-19.5 671.5,-19.5 671.5,-.5 624.5,-.5"/>
<text text-anchor="middle" x="648" y="-7.5" font-family="Helvetica,sans-Serif" font-size="10.00" fill="#000000">math.h</text>
</g>
<!-- Node1&#45;&gt;Node14 -->
<g id="edge14" class="edge">
<title>Node1&#45;&gt;Node14</title>
<path fill="none" stroke="#191970" d="M593.4963,-56.2455C603.2442,-47.9746 617.4259,-35.9416 628.8798,-26.2232"/>
<polygon fill="#191970" stroke="#191970" points="631.2747,-28.7813 636.6354,-19.6427 626.7459,-23.4437 631.2747,-28.7813"/>
</g>
<!-- Node15 -->
<g id="node16" class="node">
<title>Node15</title>
<polygon fill="#ffffff" stroke="#bfbfbf" points="689.5,-.5 689.5,-19.5 748.5,-19.5 748.5,-.5 689.5,-.5"/>
<text text-anchor="middle" x="719" y="-7.5" font-family="Helvetica,sans-Serif" font-size="10.00" fill="#000000">pcu_util.h</text>
</g>
<!-- Node1&#45;&gt;Node15 -->
<g id="edge15" class="edge">
<title>Node1&#45;&gt;Node15</title>
<path fill="none" stroke="#191970" d="M605.5511,-56.3733C627.8391,-47.2629 661.4937,-33.5062 686.3637,-23.3404"/>
<polygon fill="#191970" stroke="#191970" points="687.8239,-26.5247 695.7562,-19.5011 685.1753,-20.0451 687.8239,-26.5247"/>
</g>
<!-- Node16&#45;&gt;Node2 -->
<g id="edge28" class="edge">
<title>Node16&#45;&gt;Node2</title>
<path fill="none" stroke="#191970" d="M966.9901,-120.1451C858.2494,-115.7379 592.2729,-102.932 371,-76 229.1938,-58.7402 190.0757,-57.2185 48.0955,-19.9526"/>
<polygon fill="#191970" stroke="#191970" points="48.7053,-16.4937 38.1432,-17.3266 46.9193,-23.2621 48.7053,-16.4937"/>
</g>
<!-- Node16&#45;&gt;Node4 -->
<g id="edge29" class="edge">
<title>Node16&#45;&gt;Node4</title>
<path fill="none" stroke="#191970" d="M966.765,-118.8015C832.6261,-109.7083 454.9894,-80.4909 134.1676,-20.1048"/>
<polygon fill="#191970" stroke="#191970" points="134.6919,-16.6419 124.2149,-18.2179 133.3879,-23.5194 134.6919,-16.6419"/>
</g>
<!-- Node17 -->
<g id="node18" class="node">
<title>Node17</title>
<g id="a_node18"><a xlink:href="mesh_8h.html" target="_top" xlink:title="mesh.h">
<polygon fill="#ffffff" stroke="#000000" points="992.5,-56.5 992.5,-75.5 1041.5,-75.5 1041.5,-56.5 992.5,-56.5"/>
<text text-anchor="middle" x="1017" y="-63.5" font-family="Helvetica,sans-Serif" font-size="10.00" fill="#000000">mesh.h</text>
</a>
</g>
</g>
<!-- Node16&#45;&gt;Node17 -->
<g id="edge17" class="edge">
<title>Node16&#45;&gt;Node17</title>
<path fill="none" stroke="#191970" d="M1017,-112.2455C1017,-104.9382 1017,-94.6944 1017,-85.7046"/>
<polygon fill="#191970" stroke="#191970" points="1020.5001,-85.6426 1017,-75.6427 1013.5001,-85.6427 1020.5001,-85.6426"/>
</g>
<!-- Node24 -->
<g id="node25" class="node">
<title>Node24</title>
<polygon fill="#ffffff" stroke="#bfbfbf" points="1060,-56.5 1060,-75.5 1146,-75.5 1146,-56.5 1060,-56.5"/>
<text text-anchor="middle" x="1103" y="-63.5" font-family="Helvetica,sans-Serif" font-size="10.00" fill="#000000">apfNumbering.h</text>
</g>
<!-- Node16&#45;&gt;Node24 -->
<g id="edge30" class="edge">
<title>Node16&#45;&gt;Node24</title>
<path fill="none" stroke="#191970" d="M1031.9801,-112.2455C1045.1751,-103.6534 1064.6051,-91.0014 1079.8079,-81.1018"/>
<polygon fill="#191970" stroke="#191970" points="1081.7215,-84.0325 1088.1916,-75.6427 1077.9017,-78.1665 1081.7215,-84.0325"/>
</g>
<!-- Node25 -->
<g id="node26" class="node">
<title>Node25</title>
<polygon fill="#ffffff" stroke="#bfbfbf" points="1164.5,-56.5 1164.5,-75.5 1207.5,-75.5 1207.5,-56.5 1164.5,-56.5"/>
<text text-anchor="middle" x="1186" y="-63.5" font-family="Helvetica,sans-Serif" font-size="10.00" fill="#000000">queue</text>
</g>
<!-- Node16&#45;&gt;Node25 -->
<g id="edge31" class="edge">
<title>Node16&#45;&gt;Node25</title>
<path fill="none" stroke="#191970" d="M1046.0521,-112.3733C1076.2371,-102.3711 1123.3231,-86.7687 1154.4146,-76.4662"/>
<polygon fill="#191970" stroke="#191970" points="1155.9065,-79.659 1164.298,-73.1912 1153.7046,-73.0143 1155.9065,-79.659"/>
</g>
<!-- Node26 -->
<g id="node27" class="node">
<title>Node26</title>
<g id="a_node27"><a xlink:href="_py_embedded_functions_8h.html" target="_top" xlink:title="PyEmbeddedFunctions.h">
<polygon fill="#ffffff" stroke="#000000" points="1303,-56.5 1303,-75.5 1429,-75.5 1429,-56.5 1303,-56.5"/>
<text text-anchor="middle" x="1366" y="-63.5" font-family="Helvetica,sans-Serif" font-size="10.00" fill="#000000">PyEmbeddedFunctions.h</text>
</a>
</g>
</g>
<!-- Node16&#45;&gt;Node26 -->
<g id="edge32" class="edge">
<title>Node16&#45;&gt;Node26</title>
<path fill="none" stroke="#191970" d="M1067.206,-113.4533C1070.181,-112.9585 1073.1294,-112.4709 1076,-112 1150.6586,-99.7522 1236.221,-86.2448 1294.9516,-77.0549"/>
<polygon fill="#191970" stroke="#191970" points="1295.5286,-80.5073 1304.8679,-75.5044 1294.4472,-73.5913 1295.5286,-80.5073"/>
</g>
<!-- Node17&#45;&gt;Node9 -->
<g id="edge26" class="edge">
<title>Node17&#45;&gt;Node9</title>
<path fill="none" stroke="#191970" d="M992.3494,-60.5166C957.4284,-52.6576 891.3548,-37.4545 825.5453,-20.0483"/>
<polygon fill="#191970" stroke="#191970" points="826.4052,-16.6554 815.8413,-17.4648 824.6042,-23.4198 826.4052,-16.6554"/>
</g>
<!-- Node17&#45;&gt;Node11 -->
<g id="edge23" class="edge">
<title>Node17&#45;&gt;Node11</title>
<path fill="none" stroke="#191970" d="M992.2813,-57.1266C966.6549,-47.9274 926.3305,-33.452 897.1312,-22.9702"/>
<polygon fill="#191970" stroke="#191970" points="898.2872,-19.6665 887.6927,-19.582 895.9221,-26.2549 898.2872,-19.6665"/>
</g>
<!-- Node17&#45;&gt;Node12 -->
<g id="edge25" class="edge">
<title>Node17&#45;&gt;Node12</title>
<path fill="none" stroke="#191970" d="M1002.0199,-56.2455C988.8249,-47.6534 969.3949,-35.0014 954.1921,-25.1018"/>
<polygon fill="#191970" stroke="#191970" points="956.0983,-22.1665 945.8084,-19.6427 952.2785,-28.0325 956.0983,-22.1665"/>
</g>
<!-- Node17&#45;&gt;Node13 -->
<g id="edge21" class="edge">
<title>Node17&#45;&gt;Node13</title>
<path fill="none" stroke="#191970" d="M1012.6453,-56.2455C1009.2756,-48.6973 1004.507,-38.0158 1000.4017,-28.8197"/>
<polygon fill="#191970" stroke="#191970" points="1003.5773,-27.3473 996.3048,-19.6427 997.1853,-30.2009 1003.5773,-27.3473"/>
</g>
<!-- Node18 -->
<g id="node19" class="node">
<title>Node18</title>
<polygon fill="#ffffff" stroke="#bfbfbf" points="1028,-.5 1028,-19.5 1058,-19.5 1058,-.5 1028,-.5"/>
<text text-anchor="middle" x="1043" y="-7.5" font-family="Helvetica,sans-Serif" font-size="10.00" fill="#000000">set</text>
</g>
<!-- Node17&#45;&gt;Node18 -->
<g id="edge18" class="edge">
<title>Node17&#45;&gt;Node18</title>
<path fill="none" stroke="#191970" d="M1021.5289,-56.2455C1025.0334,-48.6973 1029.9927,-38.0158 1034.2623,-28.8197"/>
<polygon fill="#191970" stroke="#191970" points="1037.4864,-30.1867 1038.523,-19.6427 1031.1373,-27.2389 1037.4864,-30.1867"/>
</g>
<!-- Node19 -->
<g id="node20" class="node">
<title>Node19</title>
<polygon fill="#ffffff" stroke="#bfbfbf" points="1076,-.5 1076,-19.5 1120,-19.5 1120,-.5 1076,-.5"/>
<text text-anchor="middle" x="1098" y="-7.5" font-family="Helvetica,sans-Serif" font-size="10.00" fill="#000000">vector</text>
</g>
<!-- Node17&#45;&gt;Node19 -->
<g id="edge19" class="edge">
<title>Node17&#45;&gt;Node19</title>
<path fill="none" stroke="#191970" d="M1031.1091,-56.2455C1043.4209,-47.7337 1061.4958,-35.2375 1075.7538,-25.3801"/>
<polygon fill="#191970" stroke="#191970" points="1077.8174,-28.2085 1084.0526,-19.6427 1073.8366,-22.4506 1077.8174,-28.2085"/>
</g>
<!-- Node20 -->
<g id="node21" class="node">
<title>Node20</title>
<polygon fill="#ffffff" stroke="#bfbfbf" points="1138,-.5 1138,-19.5 1194,-19.5 1194,-.5 1138,-.5"/>
<text text-anchor="middle" x="1166" y="-7.5" font-family="Helvetica,sans-Serif" font-size="10.00" fill="#000000">algorithm</text>
</g>
<!-- Node17&#45;&gt;Node20 -->
<g id="edge20" class="edge">
<title>Node17&#45;&gt;Node20</title>
<path fill="none" stroke="#191970" d="M1041.6043,-56.7527C1065.9712,-47.5947 1103.5177,-33.4833 1130.9888,-23.1586"/>
<polygon fill="#191970" stroke="#191970" points="1132.4814,-26.3367 1140.6107,-19.5423 1130.0187,-19.7842 1132.4814,-26.3367"/>
</g>
<!-- Node21 -->
<g id="node22" class="node">
<title>Node21</title>
<polygon fill="#ffffff" stroke="#bfbfbf" points="1212.5,-.5 1212.5,-19.5 1241.5,-19.5 1241.5,-.5 1212.5,-.5"/>
<text text-anchor="middle" x="1227" y="-7.5" font-family="Helvetica,sans-Serif" font-size="10.00" fill="#000000">list</text>
</g>
<!-- Node17&#45;&gt;Node21 -->
<g id="edge22" class="edge">
<title>Node17&#45;&gt;Node21</title>
<path fill="none" stroke="#191970" d="M1041.8393,-58.5277C1044.9174,-57.651 1048.0265,-56.7888 1051,-56 1118.1035,-38.199 1136.963,-41.4213 1203,-20 1203.0966,-19.9687 1203.1934,-19.9371 1203.2903,-19.9053"/>
<polygon fill="#191970" stroke="#191970" points="1204.2611,-23.2784 1212.4185,-16.5177 1201.8255,-16.7157 1204.2611,-23.2784"/>
</g>
<!-- Node22 -->
<g id="node23" class="node">
<title>Node22</title>
<polygon fill="#ffffff" stroke="#bfbfbf" points="1260,-.5 1260,-19.5 1310,-19.5 1310,-.5 1260,-.5"/>
<text text-anchor="middle" x="1285" y="-7.5" font-family="Helvetica,sans-Serif" font-size="10.00" fill="#000000">iomanip</text>
</g>
<!-- Node17&#45;&gt;Node22 -->
<g id="edge24" class="edge">
<title>Node17&#45;&gt;Node22</title>
<path fill="none" stroke="#191970" d="M1041.7998,-58.3699C1044.8847,-57.5202 1048.0061,-56.7076 1051,-56 1135.8061,-35.9578 1161.323,-40.4152 1249.8913,-20.0584"/>
<polygon fill="#191970" stroke="#191970" points="1250.8908,-23.4191 1259.8299,-17.7319 1249.2953,-16.6033 1250.8908,-23.4191"/>
</g>
<!-- Node23 -->
<g id="node24" class="node">
<title>Node23</title>
<polygon fill="#ffffff" stroke="#bfbfbf" points="1328,-.5 1328,-19.5 1372,-19.5 1372,-.5 1328,-.5"/>
<text text-anchor="middle" x="1350" y="-7.5" font-family="Helvetica,sans-Serif" font-size="10.00" fill="#000000">cmath</text>
</g>
<!-- Node17&#45;&gt;Node23 -->
<g id="edge27" class="edge">
<title>Node17&#45;&gt;Node23</title>
<path fill="none" stroke="#191970" d="M1041.7706,-58.2399C1044.8605,-57.4126 1047.9911,-56.6407 1051,-56 1165.4466,-31.6317 1199.9776,-45.7602 1318.0051,-19.8839"/>
<polygon fill="#191970" stroke="#191970" points="1318.7891,-23.2952 1327.7811,-17.6921 1317.2576,-16.4647 1318.7891,-23.2952"/>
</g>
<!-- Node27 -->
<g id="node28" class="node">
<title>Node27</title>
<polygon fill="#ffffff" stroke="#bfbfbf" points="1390,-.5 1390,-19.5 1446,-19.5 1446,-.5 1390,-.5"/>
<text text-anchor="middle" x="1418" y="-7.5" font-family="Helvetica,sans-Serif" font-size="10.00" fill="#000000">Python.h</text>
</g>
<!-- Node26&#45;&gt;Node27 -->
<g id="edge33" class="edge">
<title>Node26&#45;&gt;Node27</title>
<path fill="none" stroke="#191970" d="M1375.0577,-56.2455C1382.5142,-48.2155 1393.2634,-36.6394 1402.1417,-27.0781"/>
<polygon fill="#191970" stroke="#191970" points="1404.8063,-29.3522 1409.0461,-19.6427 1399.6768,-24.589 1404.8063,-29.3522"/>
</g>
</g>
</svg>
