<?xml version="1.0" encoding="UTF-8" standalone="no"?>
<!DOCTYPE svg PUBLIC "-//W3C//DTD SVG 1.1//EN"
 "http://www.w3.org/Graphics/SVG/1.1/DTD/svg11.dtd">
<!-- Generated by graphviz version 2.50.0 (20211204.2007)
 -->
<!-- Title: createAnalyticGeometry.cpp Pages: 1 -->
<svg width="1454pt" height="196pt"
 viewBox="0.00 0.00 1454.00 196.00" xmlns="http://www.w3.org/2000/svg" xmlns:xlink="http://www.w3.org/1999/xlink">
<g id="graph0" class="graph" transform="scale(1 1) rotate(0) translate(4 192)">
<title>createAnalyticGeometry.cpp</title>
<polygon fill="white" stroke="transparent" points="-4,4 -4,-192 1450,-192 1450,4 -4,4"/>
<!-- Node1 -->
<g id="node1" class="node">
<title>Node1</title>
<g id="a_node1"><a xlink:title=" ">
<polygon fill="#bfbfbf" stroke="black" points="990.5,-168.5 990.5,-187.5 1129.5,-187.5 1129.5,-168.5 990.5,-168.5"/>
<text text-anchor="middle" x="1060" y="-175.5" font-family="Helvetica,sans-Serif" font-size="10.00">createAnalyticGeometry.cpp</text>
</a>
</g>
</g>
<!-- Node2 -->
<g id="node2" class="node">
<title>Node2</title>
<g id="a_node2"><a xlink:href="create_analytic_geometry_8h.html" target="_top" xlink:title=" ">
<polygon fill="white" stroke="black" points="518,-56.5 518,-75.5 646,-75.5 646,-56.5 518,-56.5"/>
<text text-anchor="middle" x="582" y="-63.5" font-family="Helvetica,sans-Serif" font-size="10.00">createAnalyticGeometry.h</text>
</a>
</g>
</g>
<!-- Node1&#45;&gt;Node2 -->
<g id="edge1" class="edge">
<title>Node1&#45;&gt;Node2</title>
<path fill="none" stroke="midnightblue" d="M1022.89,-168.46C936.86,-148.66 723.92,-99.66 628.98,-77.81"/>
<polygon fill="midnightblue" stroke="midnightblue" points="629.62,-74.37 619.09,-75.53 628.05,-81.19 629.62,-74.37"/>
</g>
<!-- Node17 -->
<g id="node17" class="node">
<title>Node17</title>
<g id="a_node17"><a xlink:href="_mesh_adapt_p_u_m_i_8h.html" target="_top" xlink:title=" ">
<polygon fill="white" stroke="black" points="967,-112.5 967,-131.5 1067,-131.5 1067,-112.5 967,-112.5"/>
<text text-anchor="middle" x="1017" y="-119.5" font-family="Helvetica,sans-Serif" font-size="10.00">MeshAdaptPUMI.h</text>
</a>
</g>
</g>
<!-- Node1&#45;&gt;Node17 -->
<g id="edge16" class="edge">
<title>Node1&#45;&gt;Node17</title>
<path fill="none" stroke="midnightblue" d="M1052.9,-168.08C1046.76,-160.38 1037.73,-149.03 1030.26,-139.65"/>
<polygon fill="midnightblue" stroke="midnightblue" points="1032.94,-137.39 1023.97,-131.75 1027.46,-141.75 1032.94,-137.39"/>
</g>
<!-- Node29 -->
<g id="node29" class="node">
<title>Node29</title>
<g id="a_node29"><a xlink:title=" ">
<polygon fill="white" stroke="#bfbfbf" points="1085,-112.5 1085,-131.5 1123,-131.5 1123,-112.5 1085,-112.5"/>
<text text-anchor="middle" x="1104" y="-119.5" font-family="Helvetica,sans-Serif" font-size="10.00">ma.h</text>
</a>
</g>
</g>
<!-- Node1&#45;&gt;Node29 -->
<g id="edge34" class="edge">
<title>Node1&#45;&gt;Node29</title>
<path fill="none" stroke="midnightblue" d="M1067.27,-168.08C1073.54,-160.38 1082.79,-149.03 1090.43,-139.65"/>
<polygon fill="midnightblue" stroke="midnightblue" points="1093.27,-141.71 1096.87,-131.75 1087.84,-137.29 1093.27,-141.71"/>
</g>
<!-- Node30 -->
<g id="node30" class="node">
<title>Node30</title>
<g id="a_node30"><a xlink:title=" ">
<polygon fill="white" stroke="#bfbfbf" points="1141,-112.5 1141,-131.5 1201,-131.5 1201,-112.5 1141,-112.5"/>
<text text-anchor="middle" x="1171" y="-119.5" font-family="Helvetica,sans-Serif" font-size="10.00">lionPrint.h</text>
</a>
</g>
</g>
<!-- Node1&#45;&gt;Node30 -->
<g id="edge35" class="edge">
<title>Node1&#45;&gt;Node30</title>
<path fill="none" stroke="midnightblue" d="M1077.83,-168.32C1095.72,-159.62 1123.48,-146.12 1144.05,-136.11"/>
<polygon fill="midnightblue" stroke="midnightblue" points="1145.75,-139.18 1153.21,-131.65 1142.69,-132.88 1145.75,-139.18"/>
</g>
<!-- Node3 -->
<g id="node3" class="node">
<title>Node3</title>
<g id="a_node3"><a xlink:title=" ">
<polygon fill="white" stroke="#bfbfbf" points="0,-0.5 0,-19.5 38,-19.5 38,-0.5 0,-0.5"/>
<text text-anchor="middle" x="19" y="-7.5" font-family="Helvetica,sans-Serif" font-size="10.00">apf.h</text>
</a>
</g>
</g>
<!-- Node2&#45;&gt;Node3 -->
<g id="edge2" class="edge">
<title>Node2&#45;&gt;Node3</title>
<path fill="none" stroke="midnightblue" d="M517.93,-64.29C418.75,-62.17 222.18,-53.87 47.98,-19.74"/>
<polygon fill="midnightblue" stroke="midnightblue" points="48.62,-16.3 38.13,-17.78 47.25,-23.17 48.62,-16.3"/>
</g>
<!-- Node4 -->
<g id="node4" class="node">
<title>Node4</title>
<g id="a_node4"><a xlink:title=" ">
<polygon fill="white" stroke="#bfbfbf" points="142.5,-0.5 142.5,-19.5 203.5,-19.5 203.5,-0.5 142.5,-0.5"/>
<text text-anchor="middle" x="173" y="-7.5" font-family="Helvetica,sans-Serif" font-size="10.00">apfMDS.h</text>
</a>
</g>
</g>
<!-- Node2&#45;&gt;Node4 -->
<g id="edge3" class="edge">
<title>Node2&#45;&gt;Node4</title>
<path fill="none" stroke="midnightblue" d="M517.72,-59.13C446.03,-52.14 326.46,-39.16 213.7,-19.95"/>
<polygon fill="midnightblue" stroke="midnightblue" points="213.96,-16.45 203.51,-18.2 212.77,-23.34 213.96,-16.45"/>
</g>
<!-- Node5 -->
<g id="node5" class="node">
<title>Node5</title>
<g id="a_node5"><a xlink:title=" ">
<polygon fill="white" stroke="#bfbfbf" points="56,-0.5 56,-19.5 124,-19.5 124,-0.5 56,-0.5"/>
<text text-anchor="middle" x="90" y="-7.5" font-family="Helvetica,sans-Serif" font-size="10.00">apfMesh2.h</text>
</a>
</g>
</g>
<!-- Node2&#45;&gt;Node5 -->
<g id="edge4" class="edge">
<title>Node2&#45;&gt;Node5</title>
<path fill="none" stroke="midnightblue" d="M517.78,-60.72C432.44,-54.56 276.78,-41.65 134.43,-20.07"/>
<polygon fill="midnightblue" stroke="midnightblue" points="134.62,-16.56 124.21,-18.5 133.56,-23.48 134.62,-16.56"/>
</g>
<!-- Node6 -->
<g id="node6" class="node">
<title>Node6</title>
<g id="a_node6"><a xlink:title=" ">
<polygon fill="white" stroke="#bfbfbf" points="222,-0.5 222,-19.5 288,-19.5 288,-0.5 222,-0.5"/>
<text text-anchor="middle" x="255" y="-7.5" font-family="Helvetica,sans-Serif" font-size="10.00">apfShape.h</text>
</a>
</g>
</g>
<!-- Node2&#45;&gt;Node6 -->
<g id="edge5" class="edge">
<title>Node2&#45;&gt;Node6</title>
<path fill="none" stroke="midnightblue" d="M521.79,-56.47C466.25,-48.37 381.28,-35.44 298.52,-20.21"/>
<polygon fill="midnightblue" stroke="midnightblue" points="298.91,-16.72 288.44,-18.34 297.63,-23.6 298.91,-16.72"/>
</g>
<!-- Node7 -->
<g id="node7" class="node">
<title>Node7</title>
<g id="a_node7"><a xlink:title=" ">
<polygon fill="white" stroke="#bfbfbf" points="306.5,-0.5 306.5,-19.5 353.5,-19.5 353.5,-0.5 306.5,-0.5"/>
<text text-anchor="middle" x="330" y="-7.5" font-family="Helvetica,sans-Serif" font-size="10.00">PCU.h</text>
</a>
</g>
</g>
<!-- Node2&#45;&gt;Node7 -->
<g id="edge6" class="edge">
<title>Node2&#45;&gt;Node7</title>
<path fill="none" stroke="midnightblue" d="M536.09,-56.45C493.82,-48.38 429.16,-35.53 363.81,-20.07"/>
<polygon fill="midnightblue" stroke="midnightblue" points="364.29,-16.59 353.75,-17.67 362.66,-23.4 364.29,-16.59"/>
</g>
<!-- Node8 -->
<g id="node8" class="node">
<title>Node8</title>
<g id="a_node8"><a xlink:title=" ">
<polygon fill="white" stroke="#bfbfbf" points="372,-0.5 372,-19.5 452,-19.5 452,-0.5 372,-0.5"/>
<text text-anchor="middle" x="412" y="-7.5" font-family="Helvetica,sans-Serif" font-size="10.00">gmi_analytic.h</text>
</a>
</g>
</g>
<!-- Node2&#45;&gt;Node8 -->
<g id="edge7" class="edge">
<title>Node2&#45;&gt;Node8</title>
<path fill="none" stroke="midnightblue" d="M555.06,-56.44C526.34,-47.32 480.67,-32.81 448.68,-22.65"/>
<polygon fill="midnightblue" stroke="midnightblue" points="449.4,-19.21 438.81,-19.52 447.28,-25.88 449.4,-19.21"/>
</g>
<!-- Node9 -->
<g id="node9" class="node">
<title>Node9</title>
<g id="a_node9"><a xlink:title=" ">
<polygon fill="white" stroke="#bfbfbf" points="470,-0.5 470,-19.5 540,-19.5 540,-0.5 470,-0.5"/>
<text text-anchor="middle" x="505" y="-7.5" font-family="Helvetica,sans-Serif" font-size="10.00">gmi_mesh.h</text>
</a>
</g>
</g>
<!-- Node2&#45;&gt;Node9 -->
<g id="edge8" class="edge">
<title>Node2&#45;&gt;Node9</title>
<path fill="none" stroke="midnightblue" d="M569.63,-56.32C557.84,-48.06 539.87,-35.45 525.86,-25.63"/>
<polygon fill="midnightblue" stroke="midnightblue" points="527.54,-22.53 517.34,-19.65 523.52,-28.26 527.54,-22.53"/>
</g>
<!-- Node10 -->
<g id="node10" class="node">
<title>Node10</title>
<g id="a_node10"><a xlink:title=" ">
<polygon fill="white" stroke="#bfbfbf" points="766.5,-0.5 766.5,-19.5 815.5,-19.5 815.5,-0.5 766.5,-0.5"/>
<text text-anchor="middle" x="791" y="-7.5" font-family="Helvetica,sans-Serif" font-size="10.00">cassert</text>
</a>
</g>
</g>
<!-- Node2&#45;&gt;Node10 -->
<g id="edge9" class="edge">
<title>Node2&#45;&gt;Node10</title>
<path fill="none" stroke="midnightblue" d="M615.57,-56.44C648.81,-47.95 701.44,-34.47 756.54,-20.11"/>
<polygon fill="midnightblue" stroke="midnightblue" points="757.7,-23.42 766.49,-17.51 755.93,-16.65 757.7,-23.42"/>
</g>
<!-- Node11 -->
<g id="node11" class="node">
<title>Node11</title>
<g id="a_node11"><a xlink:title=" ">
<polygon fill="white" stroke="#bfbfbf" points="558,-0.5 558,-19.5 606,-19.5 606,-0.5 558,-0.5"/>
<text text-anchor="middle" x="582" y="-7.5" font-family="Helvetica,sans-Serif" font-size="10.00">stdlib.h</text>
</a>
</g>
</g>
<!-- Node2&#45;&gt;Node11 -->
<g id="edge10" class="edge">
<title>Node2&#45;&gt;Node11</title>
<path fill="none" stroke="midnightblue" d="M582,-56.08C582,-49.01 582,-38.86 582,-29.99"/>
<polygon fill="midnightblue" stroke="midnightblue" points="585.5,-29.75 582,-19.75 578.5,-29.75 585.5,-29.75"/>
</g>
<!-- Node12 -->
<g id="node12" class="node">
<title>Node12</title>
<g id="a_node12"><a xlink:title=" ">
<polygon fill="white" stroke="#bfbfbf" points="834,-0.5 834,-19.5 888,-19.5 888,-0.5 834,-0.5"/>
<text text-anchor="middle" x="861" y="-7.5" font-family="Helvetica,sans-Serif" font-size="10.00">iostream</text>
</a>
</g>
</g>
<!-- Node2&#45;&gt;Node12 -->
<g id="edge11" class="edge">
<title>Node2&#45;&gt;Node12</title>
<path fill="none" stroke="midnightblue" d="M632.22,-56.49C681.27,-47.98 757.98,-34.16 824,-20 824.1,-19.98 824.2,-19.96 824.3,-19.93"/>
<polygon fill="midnightblue" stroke="midnightblue" points="824.98,-23.37 833.96,-17.76 823.44,-16.54 824.98,-23.37"/>
</g>
<!-- Node13 -->
<g id="node13" class="node">
<title>Node13</title>
<g id="a_node13"><a xlink:title=" ">
<polygon fill="white" stroke="#bfbfbf" points="906,-0.5 906,-19.5 956,-19.5 956,-0.5 906,-0.5"/>
<text text-anchor="middle" x="931" y="-7.5" font-family="Helvetica,sans-Serif" font-size="10.00">fstream</text>
</a>
</g>
</g>
<!-- Node2&#45;&gt;Node13 -->
<g id="edge12" class="edge">
<title>Node2&#45;&gt;Node13</title>
<path fill="none" stroke="midnightblue" d="M646.03,-58.08C707.69,-50.91 803.74,-38.42 895.78,-20.05"/>
<polygon fill="midnightblue" stroke="midnightblue" points="896.72,-23.43 905.83,-18.01 895.33,-16.57 896.72,-23.43"/>
</g>
<!-- Node14 -->
<g id="node14" class="node">
<title>Node14</title>
<g id="a_node14"><a xlink:title=" ">
<polygon fill="white" stroke="#bfbfbf" points="974.5,-0.5 974.5,-19.5 1009.5,-19.5 1009.5,-0.5 974.5,-0.5"/>
<text text-anchor="middle" x="992" y="-7.5" font-family="Helvetica,sans-Serif" font-size="10.00">map</text>
</a>
</g>
</g>
<!-- Node2&#45;&gt;Node14 -->
<g id="edge13" class="edge">
<title>Node2&#45;&gt;Node14</title>
<path fill="none" stroke="midnightblue" d="M646.03,-61.49C720.54,-56.52 847.24,-45.29 964.56,-19.63"/>
<polygon fill="midnightblue" stroke="midnightblue" points="965.43,-23.02 974.43,-17.43 963.91,-16.19 965.43,-23.02"/>
</g>
<!-- Node15 -->
<g id="node15" class="node">
<title>Node15</title>
<g id="a_node15"><a xlink:title=" ">
<polygon fill="white" stroke="#bfbfbf" points="624.5,-0.5 624.5,-19.5 671.5,-19.5 671.5,-0.5 624.5,-0.5"/>
<text text-anchor="middle" x="648" y="-7.5" font-family="Helvetica,sans-Serif" font-size="10.00">math.h</text>
</a>
</g>
</g>
<!-- Node2&#45;&gt;Node15 -->
<g id="edge14" class="edge">
<title>Node2&#45;&gt;Node15</title>
<path fill="none" stroke="midnightblue" d="M592.6,-56.32C602.46,-48.26 617.35,-36.08 629.22,-26.37"/>
<polygon fill="midnightblue" stroke="midnightblue" points="631.68,-28.88 637.2,-19.83 627.25,-23.46 631.68,-28.88"/>
</g>
<!-- Node16 -->
<g id="node16" class="node">
<title>Node16</title>
<g id="a_node16"><a xlink:title=" ">
<polygon fill="white" stroke="#bfbfbf" points="689.5,-0.5 689.5,-19.5 748.5,-19.5 748.5,-0.5 689.5,-0.5"/>
<text text-anchor="middle" x="719" y="-7.5" font-family="Helvetica,sans-Serif" font-size="10.00">pcu_util.h</text>
</a>
</g>
</g>
<!-- Node2&#45;&gt;Node16 -->
<g id="edge15" class="edge">
<title>Node2&#45;&gt;Node16</title>
<path fill="none" stroke="midnightblue" d="M603.71,-56.44C626.35,-47.52 662.07,-33.44 687.75,-23.32"/>
<polygon fill="midnightblue" stroke="midnightblue" points="689.37,-26.44 697.39,-19.52 686.81,-19.93 689.37,-26.44"/>
</g>
<!-- Node17&#45;&gt;Node3 -->
<g id="edge28" class="edge">
<title>Node17&#45;&gt;Node3</title>
<path fill="none" stroke="midnightblue" d="M966.95,-119.61C855.54,-116.09 578.78,-104.94 349,-76 216.73,-59.34 181.02,-53.67 47.94,-20"/>
<polygon fill="midnightblue" stroke="midnightblue" points="48.74,-16.59 38.19,-17.52 47.02,-23.37 48.74,-16.59"/>
</g>
<!-- Node17&#45;&gt;Node5 -->
<g id="edge29" class="edge">
<title>Node17&#45;&gt;Node5</title>
<path fill="none" stroke="midnightblue" d="M966.79,-117.55C875.49,-111.05 676.27,-95.85 509,-76 344.5,-56.48 301,-50.02 134.34,-20.17"/>
<polygon fill="midnightblue" stroke="midnightblue" points="134.69,-16.67 124.23,-18.35 133.46,-23.56 134.69,-16.67"/>
</g>
<!-- Node18 -->
<g id="node18" class="node">
<title>Node18</title>
<g id="a_node18"><a xlink:href="mesh_8h.html" target="_top" xlink:title=" ">
<polygon fill="white" stroke="black" points="992.5,-56.5 992.5,-75.5 1041.5,-75.5 1041.5,-56.5 992.5,-56.5"/>
<text text-anchor="middle" x="1017" y="-63.5" font-family="Helvetica,sans-Serif" font-size="10.00">mesh.h</text>
</a>
</g>
</g>
<!-- Node17&#45;&gt;Node18 -->
<g id="edge17" class="edge">
<title>Node17&#45;&gt;Node18</title>
<path fill="none" stroke="midnightblue" d="M1017,-112.08C1017,-105.01 1017,-94.86 1017,-85.99"/>
<polygon fill="midnightblue" stroke="midnightblue" points="1020.5,-85.75 1017,-75.75 1013.5,-85.75 1020.5,-85.75"/>
</g>
<!-- Node25 -->
<g id="node25" class="node">
<title>Node25</title>
<g id="a_node25"><a xlink:title=" ">
<polygon fill="white" stroke="#bfbfbf" points="1060,-56.5 1060,-75.5 1146,-75.5 1146,-56.5 1060,-56.5"/>
<text text-anchor="middle" x="1103" y="-63.5" font-family="Helvetica,sans-Serif" font-size="10.00">apfNumbering.h</text>
</a>
</g>
</g>
<!-- Node17&#45;&gt;Node25 -->
<g id="edge30" class="edge">
<title>Node17&#45;&gt;Node25</title>
<path fill="none" stroke="midnightblue" d="M1030.82,-112.32C1044.23,-103.9 1064.82,-90.97 1080.59,-81.07"/>
<polygon fill="midnightblue" stroke="midnightblue" points="1082.61,-83.94 1089.22,-75.65 1078.89,-78.01 1082.61,-83.94"/>
</g>
<!-- Node26 -->
<g id="node26" class="node">
<title>Node26</title>
<g id="a_node26"><a xlink:title=" ">
<polygon fill="white" stroke="#bfbfbf" points="1164.5,-56.5 1164.5,-75.5 1207.5,-75.5 1207.5,-56.5 1164.5,-56.5"/>
<text text-anchor="middle" x="1186" y="-63.5" font-family="Helvetica,sans-Serif" font-size="10.00">queue</text>
</a>
</g>
</g>
<!-- Node17&#45;&gt;Node26 -->
<g id="edge31" class="edge">
<title>Node17&#45;&gt;Node26</title>
<path fill="none" stroke="midnightblue" d="M1043.78,-112.44C1073.93,-102.81 1122.86,-87.18 1154.74,-76.99"/>
<polygon fill="midnightblue" stroke="midnightblue" points="1155.98,-80.27 1164.44,-73.89 1153.85,-73.6 1155.98,-80.27"/>
</g>
<!-- Node27 -->
<g id="node27" class="node">
<title>Node27</title>
<g id="a_node27"><a xlink:href="_py_embedded_functions_8h.html" target="_top" xlink:title=" ">
<polygon fill="white" stroke="black" points="1303,-56.5 1303,-75.5 1429,-75.5 1429,-56.5 1303,-56.5"/>
<text text-anchor="middle" x="1366" y="-63.5" font-family="Helvetica,sans-Serif" font-size="10.00">PyEmbeddedFunctions.h</text>
</a>
</g>
</g>
<!-- Node17&#45;&gt;Node27 -->
<g id="edge32" class="edge">
<title>Node17&#45;&gt;Node27</title>
<path fill="none" stroke="midnightblue" d="M1067,-113.26C1128.5,-103.75 1233.02,-87.58 1300.78,-77.09"/>
<polygon fill="midnightblue" stroke="midnightblue" points="1301.56,-80.51 1310.91,-75.52 1300.49,-73.59 1301.56,-80.51"/>
</g>
<!-- Node18&#45;&gt;Node10 -->
<g id="edge26" class="edge">
<title>Node18&#45;&gt;Node10</title>
<path fill="none" stroke="midnightblue" d="M992.4,-59.47C957.53,-51.58 891.53,-36.46 825.59,-20.09"/>
<polygon fill="midnightblue" stroke="midnightblue" points="826.41,-16.69 815.86,-17.67 824.72,-23.48 826.41,-16.69"/>
</g>
<!-- Node18&#45;&gt;Node12 -->
<g id="edge23" class="edge">
<title>Node18&#45;&gt;Node12</title>
<path fill="none" stroke="midnightblue" d="M992.28,-56.44C966.15,-47.4 924.74,-33.06 895.42,-22.92"/>
<polygon fill="midnightblue" stroke="midnightblue" points="896.2,-19.48 885.6,-19.52 893.91,-26.1 896.2,-19.48"/>
</g>
<!-- Node18&#45;&gt;Node13 -->
<g id="edge25" class="edge">
<title>Node18&#45;&gt;Node13</title>
<path fill="none" stroke="midnightblue" d="M1003.18,-56.32C989.77,-47.9 969.18,-34.97 953.41,-25.07"/>
<polygon fill="midnightblue" stroke="midnightblue" points="955.11,-22.01 944.78,-19.65 951.39,-27.94 955.11,-22.01"/>
</g>
<!-- Node18&#45;&gt;Node14 -->
<g id="edge21" class="edge">
<title>Node18&#45;&gt;Node14</title>
<path fill="none" stroke="midnightblue" d="M1012.87,-56.08C1009.49,-48.77 1004.58,-38.18 1000.38,-29.1"/>
<polygon fill="midnightblue" stroke="midnightblue" points="1003.43,-27.36 996.05,-19.75 997.08,-30.3 1003.43,-27.36"/>
</g>
<!-- Node19 -->
<g id="node19" class="node">
<title>Node19</title>
<g id="a_node19"><a xlink:title=" ">
<polygon fill="white" stroke="#bfbfbf" points="1028,-0.5 1028,-19.5 1058,-19.5 1058,-0.5 1028,-0.5"/>
<text text-anchor="middle" x="1043" y="-7.5" font-family="Helvetica,sans-Serif" font-size="10.00">set</text>
</a>
</g>
</g>
<!-- Node18&#45;&gt;Node19 -->
<g id="edge18" class="edge">
<title>Node18&#45;&gt;Node19</title>
<path fill="none" stroke="midnightblue" d="M1021.29,-56.08C1024.85,-48.69 1030.02,-37.95 1034.42,-28.81"/>
<polygon fill="midnightblue" stroke="midnightblue" points="1037.6,-30.28 1038.79,-19.75 1031.29,-27.24 1037.6,-30.28"/>
</g>
<!-- Node20 -->
<g id="node20" class="node">
<title>Node20</title>
<g id="a_node20"><a xlink:title=" ">
<polygon fill="white" stroke="#bfbfbf" points="1076,-0.5 1076,-19.5 1120,-19.5 1120,-0.5 1076,-0.5"/>
<text text-anchor="middle" x="1098" y="-7.5" font-family="Helvetica,sans-Serif" font-size="10.00">vector</text>
</a>
</g>
</g>
<!-- Node18&#45;&gt;Node20 -->
<g id="edge19" class="edge">
<title>Node18&#45;&gt;Node20</title>
<path fill="none" stroke="midnightblue" d="M1030.01,-56.32C1042.53,-47.98 1061.68,-35.21 1076.47,-25.35"/>
<polygon fill="midnightblue" stroke="midnightblue" points="1078.64,-28.11 1085.02,-19.65 1074.76,-22.29 1078.64,-28.11"/>
</g>
<!-- Node21 -->
<g id="node21" class="node">
<title>Node21</title>
<g id="a_node21"><a xlink:title=" ">
<polygon fill="white" stroke="#bfbfbf" points="1138,-0.5 1138,-19.5 1194,-19.5 1194,-0.5 1138,-0.5"/>
<text text-anchor="middle" x="1166" y="-7.5" font-family="Helvetica,sans-Serif" font-size="10.00">algorithm</text>
</a>
</g>
</g>
<!-- Node18&#45;&gt;Node21 -->
<g id="edge20" class="edge">
<title>Node18&#45;&gt;Node21</title>
<path fill="none" stroke="midnightblue" d="M1040.61,-56.44C1065.46,-47.44 1104.77,-33.19 1132.75,-23.05"/>
<polygon fill="midnightblue" stroke="midnightblue" points="1134.29,-26.21 1142.5,-19.52 1131.91,-19.63 1134.29,-26.21"/>
</g>
<!-- Node22 -->
<g id="node22" class="node">
<title>Node22</title>
<g id="a_node22"><a xlink:title=" ">
<polygon fill="white" stroke="#bfbfbf" points="1212.5,-0.5 1212.5,-19.5 1241.5,-19.5 1241.5,-0.5 1212.5,-0.5"/>
<text text-anchor="middle" x="1227" y="-7.5" font-family="Helvetica,sans-Serif" font-size="10.00">list</text>
</a>
</g>
</g>
<!-- Node18&#45;&gt;Node22 -->
<g id="edge22" class="edge">
<title>Node18&#45;&gt;Node22</title>
<path fill="none" stroke="midnightblue" d="M1041.86,-58.34C1044.94,-57.54 1048.04,-56.74 1051,-56 1115.32,-39.87 1134.85,-40.16 1202.5,-19.83"/>
<polygon fill="midnightblue" stroke="midnightblue" points="1203.83,-23.08 1212.38,-16.82 1201.79,-16.39 1203.83,-23.08"/>
</g>
<!-- Node23 -->
<g id="node23" class="node">
<title>Node23</title>
<g id="a_node23"><a xlink:title=" ">
<polygon fill="white" stroke="#bfbfbf" points="1260,-0.5 1260,-19.5 1310,-19.5 1310,-0.5 1260,-0.5"/>
<text text-anchor="middle" x="1285" y="-7.5" font-family="Helvetica,sans-Serif" font-size="10.00">iomanip</text>
</a>
</g>
</g>
<!-- Node18&#45;&gt;Node23 -->
<g id="edge24" class="edge">
<title>Node18&#45;&gt;Node23</title>
<path fill="none" stroke="midnightblue" d="M1041.83,-58.18C1044.91,-57.41 1048.02,-56.66 1051,-56 1136.07,-37.12 1161.09,-39.38 1249.84,-20.11"/>
<polygon fill="midnightblue" stroke="midnightblue" points="1250.79,-23.48 1259.8,-17.91 1249.29,-16.64 1250.79,-23.48"/>
</g>
<!-- Node24 -->
<g id="node24" class="node">
<title>Node24</title>
<g id="a_node24"><a xlink:title=" ">
<polygon fill="white" stroke="#bfbfbf" points="1328,-0.5 1328,-19.5 1372,-19.5 1372,-0.5 1328,-0.5"/>
<text text-anchor="middle" x="1350" y="-7.5" font-family="Helvetica,sans-Serif" font-size="10.00">cmath</text>
</a>
</g>
</g>
<!-- Node18&#45;&gt;Node24 -->
<g id="edge27" class="edge">
<title>Node18&#45;&gt;Node24</title>
<path fill="none" stroke="midnightblue" d="M1041.8,-58.05C1044.88,-57.3 1048.01,-56.6 1051,-56 1165.77,-33.19 1199.64,-44.2 1317.95,-19.94"/>
<polygon fill="midnightblue" stroke="midnightblue" points="1318.68,-23.36 1327.75,-17.89 1317.24,-16.51 1318.68,-23.36"/>
</g>
<!-- Node28 -->
<g id="node28" class="node">
<title>Node28</title>
<g id="a_node28"><a xlink:title=" ">
<polygon fill="white" stroke="#bfbfbf" points="1390,-0.5 1390,-19.5 1446,-19.5 1446,-0.5 1390,-0.5"/>
<text text-anchor="middle" x="1418" y="-7.5" font-family="Helvetica,sans-Serif" font-size="10.00">Python.h</text>
</a>
</g>
</g>
<!-- Node27&#45;&gt;Node28 -->
<g id="edge33" class="edge">
<title>Node27&#45;&gt;Node28</title>
<path fill="none" stroke="midnightblue" d="M1374.59,-56.08C1382.16,-48.22 1393.38,-36.57 1402.51,-27.08"/>
<polygon fill="midnightblue" stroke="midnightblue" points="1405.16,-29.38 1409.57,-19.75 1400.12,-24.53 1405.16,-29.38"/>
</g>
</g>
</svg>
