<?xml version="1.0" encoding="UTF-8" standalone="no"?>
<!DOCTYPE svg PUBLIC "-//W3C//DTD SVG 1.1//EN"
 "http://www.w3.org/Graphics/SVG/1.1/DTD/svg11.dtd">
<!-- Generated by graphviz version 2.44.1 (20200629.0846)
 -->
<!-- Title: createAnalyticGeometry.h Pages: 1 -->
<svg width="1018pt" height="84pt"
 viewBox="0.00 0.00 1017.50 84.00" xmlns="http://www.w3.org/2000/svg" xmlns:xlink="http://www.w3.org/1999/xlink">
<g id="graph0" class="graph" transform="scale(1 1) rotate(0) translate(4 80)">
<title>createAnalyticGeometry.h</title>
<polygon fill="white" stroke="transparent" points="-4,4 -4,-80 1013.5,-80 1013.5,4 -4,4"/>
<!-- Node1 -->
<g id="node1" class="node">
<title>Node1</title>
<g id="a_node1"><a xlink:title=" ">
<polygon fill="#bfbfbf" stroke="black" points="480,-56.5 480,-75.5 608,-75.5 608,-56.5 480,-56.5"/>
<text text-anchor="middle" x="544" y="-63.5" font-family="Helvetica,sans-Serif" font-size="10.00">createAnalyticGeometry.h</text>
</a>
</g>
</g>
<!-- Node2 -->
<g id="node2" class="node">
<title>Node2</title>
<g id="a_node2"><a xlink:title=" ">
<polygon fill="white" stroke="#bfbfbf" points="0,-0.5 0,-19.5 38,-19.5 38,-0.5 0,-0.5"/>
<text text-anchor="middle" x="19" y="-7.5" font-family="Helvetica,sans-Serif" font-size="10.00">apf.h</text>
</a>
</g>
</g>
<!-- Node1&#45;&gt;Node2 -->
<g id="edge1" class="edge">
<title>Node1&#45;&gt;Node2</title>
<path fill="none" stroke="midnightblue" d="M479.8,-63.7C386.42,-60.82 207.76,-51.56 48.13,-19.79"/>
<polygon fill="midnightblue" stroke="midnightblue" points="48.63,-16.32 38.13,-17.76 47.24,-23.18 48.63,-16.32"/>
</g>
<!-- Node3 -->
<g id="node3" class="node">
<title>Node3</title>
<g id="a_node3"><a xlink:title=" ">
<polygon fill="white" stroke="#bfbfbf" points="56.5,-0.5 56.5,-19.5 117.5,-19.5 117.5,-0.5 56.5,-0.5"/>
<text text-anchor="middle" x="87" y="-7.5" font-family="Helvetica,sans-Serif" font-size="10.00">apfMDS.h</text>
</a>
</g>
</g>
<!-- Node1&#45;&gt;Node3 -->
<g id="edge2" class="edge">
<title>Node1&#45;&gt;Node3</title>
<path fill="none" stroke="midnightblue" d="M479.76,-60.35C399.68,-54.05 258.49,-41.26 127.7,-19.92"/>
<polygon fill="midnightblue" stroke="midnightblue" points="127.94,-16.42 117.5,-18.24 126.8,-23.32 127.94,-16.42"/>
</g>
<!-- Node4 -->
<g id="node4" class="node">
<title>Node4</title>
<g id="a_node4"><a xlink:title=" ">
<polygon fill="white" stroke="#bfbfbf" points="136,-0.5 136,-19.5 204,-19.5 204,-0.5 136,-0.5"/>
<text text-anchor="middle" x="170" y="-7.5" font-family="Helvetica,sans-Serif" font-size="10.00">apfMesh2.h</text>
</a>
</g>
</g>
<!-- Node1&#45;&gt;Node4 -->
<g id="edge3" class="edge">
<title>Node1&#45;&gt;Node4</title>
<path fill="none" stroke="midnightblue" d="M479.72,-57.64C415.09,-49.92 312.4,-36.82 214.31,-20.13"/>
<polygon fill="midnightblue" stroke="midnightblue" points="214.67,-16.64 204.23,-18.39 213.49,-23.54 214.67,-16.64"/>
</g>
<!-- Node5 -->
<g id="node5" class="node">
<title>Node5</title>
<g id="a_node5"><a xlink:title=" ">
<polygon fill="white" stroke="#bfbfbf" points="222,-0.5 222,-19.5 288,-19.5 288,-0.5 222,-0.5"/>
<text text-anchor="middle" x="255" y="-7.5" font-family="Helvetica,sans-Serif" font-size="10.00">apfShape.h</text>
</a>
</g>
</g>
<!-- Node1&#45;&gt;Node5 -->
<g id="edge4" class="edge">
<title>Node1&#45;&gt;Node5</title>
<path fill="none" stroke="midnightblue" d="M494.71,-56.48C446.94,-48.12 372.18,-34.77 298.38,-20.23"/>
<polygon fill="midnightblue" stroke="midnightblue" points="298.94,-16.77 288.45,-18.27 297.58,-23.64 298.94,-16.77"/>
</g>
<!-- Node6 -->
<g id="node6" class="node">
<title>Node6</title>
<g id="a_node6"><a xlink:title=" ">
<polygon fill="white" stroke="#bfbfbf" points="306.5,-0.5 306.5,-19.5 353.5,-19.5 353.5,-0.5 306.5,-0.5"/>
<text text-anchor="middle" x="330" y="-7.5" font-family="Helvetica,sans-Serif" font-size="10.00">PCU.h</text>
</a>
</g>
</g>
<!-- Node1&#45;&gt;Node6 -->
<g id="edge5" class="edge">
<title>Node1&#45;&gt;Node6</title>
<path fill="none" stroke="midnightblue" d="M508.56,-56.44C474.03,-48.04 419.79,-34.71 363.55,-20.1"/>
<polygon fill="midnightblue" stroke="midnightblue" points="364.34,-16.69 353.78,-17.55 362.57,-23.46 364.34,-16.69"/>
</g>
<!-- Node7 -->
<g id="node7" class="node">
<title>Node7</title>
<g id="a_node7"><a xlink:title=" ">
<polygon fill="white" stroke="#bfbfbf" points="372,-0.5 372,-19.5 452,-19.5 452,-0.5 372,-0.5"/>
<text text-anchor="middle" x="412" y="-7.5" font-family="Helvetica,sans-Serif" font-size="10.00">gmi_analytic.h</text>
</a>
</g>
</g>
<!-- Node1&#45;&gt;Node7 -->
<g id="edge6" class="edge">
<title>Node1&#45;&gt;Node7</title>
<path fill="none" stroke="midnightblue" d="M523.08,-56.44C501.26,-47.52 466.85,-33.44 442.11,-23.32"/>
<polygon fill="midnightblue" stroke="midnightblue" points="443.4,-20.06 432.82,-19.52 440.75,-26.54 443.4,-20.06"/>
</g>
<!-- Node8 -->
<g id="node8" class="node">
<title>Node8</title>
<g id="a_node8"><a xlink:title=" ">
<polygon fill="white" stroke="#bfbfbf" points="470,-0.5 470,-19.5 540,-19.5 540,-0.5 470,-0.5"/>
<text text-anchor="middle" x="505" y="-7.5" font-family="Helvetica,sans-Serif" font-size="10.00">gmi_mesh.h</text>
</a>
</g>
</g>
<!-- Node1&#45;&gt;Node8 -->
<g id="edge7" class="edge">
<title>Node1&#45;&gt;Node8</title>
<path fill="none" stroke="midnightblue" d="M537.56,-56.08C532.05,-48.46 523.97,-37.26 517.24,-27.94"/>
<polygon fill="midnightblue" stroke="midnightblue" points="520.01,-25.81 511.32,-19.75 514.34,-29.91 520.01,-25.81"/>
</g>
<!-- Node9 -->
<g id="node9" class="node">
<title>Node9</title>
<g id="a_node9"><a xlink:title=" ">
<polygon fill="white" stroke="#bfbfbf" points="558.5,-0.5 558.5,-19.5 607.5,-19.5 607.5,-0.5 558.5,-0.5"/>
<text text-anchor="middle" x="583" y="-7.5" font-family="Helvetica,sans-Serif" font-size="10.00">cassert</text>
</a>
</g>
</g>
<!-- Node1&#45;&gt;Node9 -->
<g id="edge8" class="edge">
<title>Node1&#45;&gt;Node9</title>
<path fill="none" stroke="midnightblue" d="M550.44,-56.08C555.95,-48.46 564.03,-37.26 570.76,-27.94"/>
<polygon fill="midnightblue" stroke="midnightblue" points="573.66,-29.91 576.68,-19.75 567.99,-25.81 573.66,-29.91"/>
</g>
<!-- Node10 -->
<g id="node10" class="node">
<title>Node10</title>
<g id="a_node10"><a xlink:title=" ">
<polygon fill="white" stroke="#bfbfbf" points="626,-0.5 626,-19.5 674,-19.5 674,-0.5 626,-0.5"/>
<text text-anchor="middle" x="650" y="-7.5" font-family="Helvetica,sans-Serif" font-size="10.00">stdlib.h</text>
</a>
</g>
</g>
<!-- Node1&#45;&gt;Node10 -->
<g id="edge9" class="edge">
<title>Node1&#45;&gt;Node10</title>
<path fill="none" stroke="midnightblue" d="M561.03,-56.32C578.03,-47.66 604.38,-34.24 623.99,-24.25"/>
<polygon fill="midnightblue" stroke="midnightblue" points="625.69,-27.31 633.01,-19.65 622.51,-21.08 625.69,-27.31"/>
</g>
<!-- Node11 -->
<g id="node11" class="node">
<title>Node11</title>
<g id="a_node11"><a xlink:title=" ">
<polygon fill="white" stroke="#bfbfbf" points="692,-0.5 692,-19.5 746,-19.5 746,-0.5 692,-0.5"/>
<text text-anchor="middle" x="719" y="-7.5" font-family="Helvetica,sans-Serif" font-size="10.00">iostream</text>
</a>
</g>
</g>
<!-- Node1&#45;&gt;Node11 -->
<g id="edge10" class="edge">
<title>Node1&#45;&gt;Node11</title>
<path fill="none" stroke="midnightblue" d="M571.73,-56.44C601.6,-47.23 649.27,-32.52 682.25,-22.34"/>
<polygon fill="midnightblue" stroke="midnightblue" points="683.45,-25.63 691.98,-19.34 681.39,-18.94 683.45,-25.63"/>
</g>
<!-- Node12 -->
<g id="node12" class="node">
<title>Node12</title>
<g id="a_node12"><a xlink:title=" ">
<polygon fill="white" stroke="#bfbfbf" points="764,-0.5 764,-19.5 814,-19.5 814,-0.5 764,-0.5"/>
<text text-anchor="middle" x="789" y="-7.5" font-family="Helvetica,sans-Serif" font-size="10.00">fstream</text>
</a>
</g>
</g>
<!-- Node1&#45;&gt;Node12 -->
<g id="edge11" class="edge">
<title>Node1&#45;&gt;Node12</title>
<path fill="none" stroke="midnightblue" d="M586.97,-56.47C627.62,-48.26 690.55,-35.19 754.01,-20.15"/>
<polygon fill="midnightblue" stroke="midnightblue" points="754.87,-23.55 763.78,-17.82 753.24,-16.74 754.87,-23.55"/>
</g>
<!-- Node13 -->
<g id="node13" class="node">
<title>Node13</title>
<g id="a_node13"><a xlink:title=" ">
<polygon fill="white" stroke="#bfbfbf" points="832.5,-0.5 832.5,-19.5 867.5,-19.5 867.5,-0.5 832.5,-0.5"/>
<text text-anchor="middle" x="850" y="-7.5" font-family="Helvetica,sans-Serif" font-size="10.00">map</text>
</a>
</g>
</g>
<!-- Node1&#45;&gt;Node13 -->
<g id="edge12" class="edge">
<title>Node1&#45;&gt;Node13</title>
<path fill="none" stroke="midnightblue" d="M608.03,-57.67C662.62,-50.74 743.27,-38.9 822.28,-19.81"/>
<polygon fill="midnightblue" stroke="midnightblue" points="823.53,-23.11 832.4,-17.32 821.85,-16.31 823.53,-23.11"/>
</g>
<!-- Node14 -->
<g id="node14" class="node">
<title>Node14</title>
<g id="a_node14"><a xlink:title=" ">
<polygon fill="white" stroke="#bfbfbf" points="885.5,-0.5 885.5,-19.5 932.5,-19.5 932.5,-0.5 885.5,-0.5"/>
<text text-anchor="middle" x="909" y="-7.5" font-family="Helvetica,sans-Serif" font-size="10.00">math.h</text>
</a>
</g>
</g>
<!-- Node1&#45;&gt;Node14 -->
<g id="edge13" class="edge">
<title>Node1&#45;&gt;Node14</title>
<path fill="none" stroke="midnightblue" d="M608.29,-59.01C673.45,-52.33 777.28,-40.02 875.25,-20.13"/>
<polygon fill="midnightblue" stroke="midnightblue" points="876.24,-23.5 885.33,-18.06 874.82,-16.65 876.24,-23.5"/>
</g>
<!-- Node15 -->
<g id="node15" class="node">
<title>Node15</title>
<g id="a_node15"><a xlink:title=" ">
<polygon fill="white" stroke="#bfbfbf" points="950.5,-0.5 950.5,-19.5 1009.5,-19.5 1009.5,-0.5 950.5,-0.5"/>
<text text-anchor="middle" x="980" y="-7.5" font-family="Helvetica,sans-Serif" font-size="10.00">pcu_util.h</text>
</a>
</g>
</g>
<!-- Node1&#45;&gt;Node15 -->
<g id="edge14" class="edge">
<title>Node1&#45;&gt;Node15</title>
<path fill="none" stroke="midnightblue" d="M608.1,-60.14C684.95,-53.77 817.79,-41.08 940.27,-20.13"/>
<polygon fill="midnightblue" stroke="midnightblue" points="940.94,-23.57 950.2,-18.41 939.75,-16.67 940.94,-23.57"/>
</g>
</g>
</svg>
