<?xml version="1.0" encoding="UTF-8" standalone="no"?>
<!DOCTYPE svg PUBLIC "-//W3C//DTD SVG 1.1//EN"
 "http://www.w3.org/Graphics/SVG/1.1/DTD/svg11.dtd">
<!-- Generated by graphviz version 2.43.0 (0)
 -->
<!-- Title: createAnalyticGeometry.cpp Pages: 1 -->
<svg width="1545pt" height="196pt"
 viewBox="0.00 0.00 1545.00 196.00" xmlns="http://www.w3.org/2000/svg" xmlns:xlink="http://www.w3.org/1999/xlink">
<g id="graph0" class="graph" transform="scale(1 1) rotate(0) translate(4 192)">
<title>createAnalyticGeometry.cpp</title>
<polygon fill="white" stroke="transparent" points="-4,4 -4,-192 1541,-192 1541,4 -4,4"/>
<!-- Node1 -->
<g id="node1" class="node">
<title>Node1</title>
<g id="a_node1"><a xlink:title=" ">
<polygon fill="#bfbfbf" stroke="black" points="1048,-168.5 1048,-187.5 1203,-187.5 1203,-168.5 1048,-168.5"/>
<text text-anchor="middle" x="1125.5" y="-175.5" font-family="Helvetica,sans-Serif" font-size="10.00">createAnalyticGeometry.cpp</text>
</a>
</g>
</g>
<!-- Node2 -->
<g id="node2" class="node">
<title>Node2</title>
<g id="a_node2"><a xlink:href="create_analytic_geometry_8h.html" target="_top" xlink:title=" ">
<polygon fill="white" stroke="black" points="545,-56.5 545,-75.5 688,-75.5 688,-56.5 545,-56.5"/>
<text text-anchor="middle" x="616.5" y="-63.5" font-family="Helvetica,sans-Serif" font-size="10.00">createAnalyticGeometry.h</text>
</a>
</g>
</g>
<!-- Node1&#45;&gt;Node2 -->
<g id="edge1" class="edge">
<title>Node1&#45;&gt;Node2</title>
<path fill="none" stroke="midnightblue" d="M1085.98,-168.46C994.19,-148.62 766.7,-99.46 665.92,-77.68"/>
<polygon fill="midnightblue" stroke="midnightblue" points="666.51,-74.23 655.99,-75.53 665.03,-81.07 666.51,-74.23"/>
</g>
<!-- Node17 -->
<g id="node17" class="node">
<title>Node17</title>
<g id="a_node17"><a xlink:href="_mesh_adapt_p_u_m_i_8h.html" target="_top" xlink:title=" ">
<polygon fill="white" stroke="black" points="1026.5,-112.5 1026.5,-131.5 1132.5,-131.5 1132.5,-112.5 1026.5,-112.5"/>
<text text-anchor="middle" x="1079.5" y="-119.5" font-family="Helvetica,sans-Serif" font-size="10.00">MeshAdaptPUMI.h</text>
</a>
</g>
</g>
<!-- Node1&#45;&gt;Node17 -->
<g id="edge16" class="edge">
<title>Node1&#45;&gt;Node17</title>
<path fill="none" stroke="midnightblue" d="M1117.9,-168.08C1111.27,-160.3 1101.48,-148.8 1093.44,-139.37"/>
<polygon fill="midnightblue" stroke="midnightblue" points="1096.1,-137.09 1086.95,-131.75 1090.77,-141.63 1096.1,-137.09"/>
</g>
<!-- Node29 -->
<g id="node29" class="node">
<title>Node29</title>
<g id="a_node29"><a xlink:title=" ">
<polygon fill="white" stroke="#bfbfbf" points="1151,-112.5 1151,-131.5 1192,-131.5 1192,-112.5 1151,-112.5"/>
<text text-anchor="middle" x="1171.5" y="-119.5" font-family="Helvetica,sans-Serif" font-size="10.00">ma.h</text>
</a>
</g>
</g>
<!-- Node1&#45;&gt;Node29 -->
<g id="edge34" class="edge">
<title>Node1&#45;&gt;Node29</title>
<path fill="none" stroke="midnightblue" d="M1133.1,-168.08C1139.73,-160.3 1149.52,-148.8 1157.56,-139.37"/>
<polygon fill="midnightblue" stroke="midnightblue" points="1160.23,-141.63 1164.05,-131.75 1154.9,-137.09 1160.23,-141.63"/>
</g>
<!-- Node30 -->
<g id="node30" class="node">
<title>Node30</title>
<g id="a_node30"><a xlink:title=" ">
<polygon fill="white" stroke="#bfbfbf" points="1210.5,-112.5 1210.5,-131.5 1276.5,-131.5 1276.5,-112.5 1210.5,-112.5"/>
<text text-anchor="middle" x="1243.5" y="-119.5" font-family="Helvetica,sans-Serif" font-size="10.00">lionPrint.h</text>
</a>
</g>
</g>
<!-- Node1&#45;&gt;Node30 -->
<g id="edge35" class="edge">
<title>Node1&#45;&gt;Node30</title>
<path fill="none" stroke="midnightblue" d="M1144.2,-168.44C1163.44,-159.64 1193.65,-145.81 1215.7,-135.72"/>
<polygon fill="midnightblue" stroke="midnightblue" points="1217.25,-138.86 1224.89,-131.52 1214.34,-132.5 1217.25,-138.86"/>
</g>
<!-- Node3 -->
<g id="node3" class="node">
<title>Node3</title>
<g id="a_node3"><a xlink:title=" ">
<polygon fill="white" stroke="#bfbfbf" points="0,-0.5 0,-19.5 41,-19.5 41,-0.5 0,-0.5"/>
<text text-anchor="middle" x="20.5" y="-7.5" font-family="Helvetica,sans-Serif" font-size="10.00">apf.h</text>
</a>
</g>
</g>
<!-- Node2&#45;&gt;Node3 -->
<g id="edge2" class="edge">
<title>Node2&#45;&gt;Node3</title>
<path fill="none" stroke="midnightblue" d="M544.83,-64.15C438.72,-61.83 233.68,-53.25 51.07,-19.66"/>
<polygon fill="midnightblue" stroke="midnightblue" points="51.49,-16.18 41.02,-17.78 50.2,-23.06 51.49,-16.18"/>
</g>
<!-- Node4 -->
<g id="node4" class="node">
<title>Node4</title>
<g id="a_node4"><a xlink:title=" ">
<polygon fill="white" stroke="#bfbfbf" points="151.5,-0.5 151.5,-19.5 215.5,-19.5 215.5,-0.5 151.5,-0.5"/>
<text text-anchor="middle" x="183.5" y="-7.5" font-family="Helvetica,sans-Serif" font-size="10.00">apfMDS.h</text>
</a>
</g>
</g>
<!-- Node2&#45;&gt;Node4 -->
<g id="edge3" class="edge">
<title>Node2&#45;&gt;Node4</title>
<path fill="none" stroke="midnightblue" d="M544.66,-58.96C468.05,-52.03 342.98,-39.28 225.89,-20.08"/>
<polygon fill="midnightblue" stroke="midnightblue" points="226.11,-16.57 215.67,-18.39 224.96,-23.48 226.11,-16.57"/>
</g>
<!-- Node5 -->
<g id="node5" class="node">
<title>Node5</title>
<g id="a_node5"><a xlink:title=" ">
<polygon fill="white" stroke="#bfbfbf" points="59.5,-0.5 59.5,-19.5 133.5,-19.5 133.5,-0.5 59.5,-0.5"/>
<text text-anchor="middle" x="96.5" y="-7.5" font-family="Helvetica,sans-Serif" font-size="10.00">apfMesh2.h</text>
</a>
</g>
</g>
<!-- Node2&#45;&gt;Node5 -->
<g id="edge4" class="edge">
<title>Node2&#45;&gt;Node5</title>
<path fill="none" stroke="midnightblue" d="M544.77,-60.4C453.79,-54.07 291.91,-41.17 143.79,-20.05"/>
<polygon fill="midnightblue" stroke="midnightblue" points="144,-16.55 133.6,-18.59 143,-23.48 144,-16.55"/>
</g>
<!-- Node6 -->
<g id="node6" class="node">
<title>Node6</title>
<g id="a_node6"><a xlink:title=" ">
<polygon fill="white" stroke="#bfbfbf" points="234,-0.5 234,-19.5 305,-19.5 305,-0.5 234,-0.5"/>
<text text-anchor="middle" x="269.5" y="-7.5" font-family="Helvetica,sans-Serif" font-size="10.00">apfShape.h</text>
</a>
</g>
</g>
<!-- Node2&#45;&gt;Node6 -->
<g id="edge5" class="edge">
<title>Node2&#45;&gt;Node6</title>
<path fill="none" stroke="midnightblue" d="M553.01,-56.47C494.01,-48.33 403.45,-35.3 315.24,-20.06"/>
<polygon fill="midnightblue" stroke="midnightblue" points="315.78,-16.6 305.33,-18.33 314.58,-23.49 315.78,-16.6"/>
</g>
<!-- Node7 -->
<g id="node7" class="node">
<title>Node7</title>
<g id="a_node7"><a xlink:title=" ">
<polygon fill="white" stroke="#bfbfbf" points="323.5,-0.5 323.5,-19.5 369.5,-19.5 369.5,-0.5 323.5,-0.5"/>
<text text-anchor="middle" x="346.5" y="-7.5" font-family="Helvetica,sans-Serif" font-size="10.00">PCU.h</text>
</a>
</g>
</g>
<!-- Node2&#45;&gt;Node7 -->
<g id="edge6" class="edge">
<title>Node2&#45;&gt;Node7</title>
<path fill="none" stroke="midnightblue" d="M564.23,-56.47C517.99,-48.62 448.54,-36.08 379.28,-20.02"/>
<polygon fill="midnightblue" stroke="midnightblue" points="380.04,-16.6 369.51,-17.73 378.45,-23.42 380.04,-16.6"/>
</g>
<!-- Node8 -->
<g id="node8" class="node">
<title>Node8</title>
<g id="a_node8"><a xlink:title=" ">
<polygon fill="white" stroke="#bfbfbf" points="388,-0.5 388,-19.5 477,-19.5 477,-0.5 388,-0.5"/>
<text text-anchor="middle" x="432.5" y="-7.5" font-family="Helvetica,sans-Serif" font-size="10.00">gmi_analytic.h</text>
</a>
</g>
</g>
<!-- Node2&#45;&gt;Node8 -->
<g id="edge7" class="edge">
<title>Node2&#45;&gt;Node8</title>
<path fill="none" stroke="midnightblue" d="M587.34,-56.44C555.99,-47.24 505.97,-32.56 471.3,-22.39"/>
<polygon fill="midnightblue" stroke="midnightblue" points="472.1,-18.97 461.52,-19.52 470.13,-25.69 472.1,-18.97"/>
</g>
<!-- Node9 -->
<g id="node9" class="node">
<title>Node9</title>
<g id="a_node9"><a xlink:title=" ">
<polygon fill="white" stroke="#bfbfbf" points="495,-0.5 495,-19.5 572,-19.5 572,-0.5 495,-0.5"/>
<text text-anchor="middle" x="533.5" y="-7.5" font-family="Helvetica,sans-Serif" font-size="10.00">gmi_mesh.h</text>
</a>
</g>
</g>
<!-- Node2&#45;&gt;Node9 -->
<g id="edge8" class="edge">
<title>Node2&#45;&gt;Node9</title>
<path fill="none" stroke="midnightblue" d="M603.16,-56.32C590.34,-47.98 570.72,-35.21 555.56,-25.35"/>
<polygon fill="midnightblue" stroke="midnightblue" points="557.09,-22.17 546.8,-19.65 553.28,-28.04 557.09,-22.17"/>
</g>
<!-- Node10 -->
<g id="node10" class="node">
<title>Node10</title>
<g id="a_node10"><a xlink:title=" ">
<polygon fill="white" stroke="#bfbfbf" points="812.5,-0.5 812.5,-19.5 864.5,-19.5 864.5,-0.5 812.5,-0.5"/>
<text text-anchor="middle" x="838.5" y="-7.5" font-family="Helvetica,sans-Serif" font-size="10.00">cassert</text>
</a>
</g>
</g>
<!-- Node2&#45;&gt;Node10 -->
<g id="edge9" class="edge">
<title>Node2&#45;&gt;Node10</title>
<path fill="none" stroke="midnightblue" d="M652.74,-56.46C688.38,-48.01 744.6,-34.59 802.14,-20.31"/>
<polygon fill="midnightblue" stroke="midnightblue" points="803.28,-23.64 812.14,-17.83 801.59,-16.84 803.28,-23.64"/>
</g>
<!-- Node11 -->
<g id="node11" class="node">
<title>Node11</title>
<g id="a_node11"><a xlink:title=" ">
<polygon fill="white" stroke="#bfbfbf" points="590,-0.5 590,-19.5 643,-19.5 643,-0.5 590,-0.5"/>
<text text-anchor="middle" x="616.5" y="-7.5" font-family="Helvetica,sans-Serif" font-size="10.00">stdlib.h</text>
</a>
</g>
</g>
<!-- Node2&#45;&gt;Node11 -->
<g id="edge10" class="edge">
<title>Node2&#45;&gt;Node11</title>
<path fill="none" stroke="midnightblue" d="M616.5,-56.08C616.5,-49.01 616.5,-38.86 616.5,-29.99"/>
<polygon fill="midnightblue" stroke="midnightblue" points="620,-29.75 616.5,-19.75 613,-29.75 620,-29.75"/>
</g>
<!-- Node12 -->
<g id="node12" class="node">
<title>Node12</title>
<g id="a_node12"><a xlink:title=" ">
<polygon fill="white" stroke="#bfbfbf" points="882.5,-0.5 882.5,-19.5 942.5,-19.5 942.5,-0.5 882.5,-0.5"/>
<text text-anchor="middle" x="912.5" y="-7.5" font-family="Helvetica,sans-Serif" font-size="10.00">iostream</text>
</a>
</g>
</g>
<!-- Node2&#45;&gt;Node12 -->
<g id="edge11" class="edge">
<title>Node2&#45;&gt;Node12</title>
<path fill="none" stroke="midnightblue" d="M670.31,-56.44C720.18,-48.31 796.66,-35.35 872.14,-20.19"/>
<polygon fill="midnightblue" stroke="midnightblue" points="873.19,-23.55 882.3,-18.14 871.81,-16.69 873.19,-23.55"/>
</g>
<!-- Node13 -->
<g id="node13" class="node">
<title>Node13</title>
<g id="a_node13"><a xlink:title=" ">
<polygon fill="white" stroke="#bfbfbf" points="961,-0.5 961,-19.5 1016,-19.5 1016,-0.5 961,-0.5"/>
<text text-anchor="middle" x="988.5" y="-7.5" font-family="Helvetica,sans-Serif" font-size="10.00">fstream</text>
</a>
</g>
</g>
<!-- Node2&#45;&gt;Node13 -->
<g id="edge12" class="edge">
<title>Node2&#45;&gt;Node13</title>
<path fill="none" stroke="midnightblue" d="M688.08,-57.59C753.89,-50.28 854.31,-37.85 950.77,-19.96"/>
<polygon fill="midnightblue" stroke="midnightblue" points="951.51,-23.38 960.69,-18.1 950.21,-16.5 951.51,-23.38"/>
</g>
<!-- Node14 -->
<g id="node14" class="node">
<title>Node14</title>
<g id="a_node14"><a xlink:title=" ">
<polygon fill="white" stroke="#bfbfbf" points="1034.5,-0.5 1034.5,-19.5 1072.5,-19.5 1072.5,-0.5 1034.5,-0.5"/>
<text text-anchor="middle" x="1053.5" y="-7.5" font-family="Helvetica,sans-Serif" font-size="10.00">map</text>
</a>
</g>
</g>
<!-- Node2&#45;&gt;Node14 -->
<g id="edge13" class="edge">
<title>Node2&#45;&gt;Node14</title>
<path fill="none" stroke="midnightblue" d="M688.27,-61.24C770.28,-55.99 908.17,-44.23 1024.5,-20 1024.6,-19.98 1024.7,-19.96 1024.8,-19.94"/>
<polygon fill="midnightblue" stroke="midnightblue" points="1025.46,-23.38 1034.29,-17.52 1023.74,-16.6 1025.46,-23.38"/>
</g>
<!-- Node15 -->
<g id="node15" class="node">
<title>Node15</title>
<g id="a_node15"><a xlink:title=" ">
<polygon fill="white" stroke="#bfbfbf" points="661,-0.5 661,-19.5 712,-19.5 712,-0.5 661,-0.5"/>
<text text-anchor="middle" x="686.5" y="-7.5" font-family="Helvetica,sans-Serif" font-size="10.00">math.h</text>
</a>
</g>
</g>
<!-- Node2&#45;&gt;Node15 -->
<g id="edge14" class="edge">
<title>Node2&#45;&gt;Node15</title>
<path fill="none" stroke="midnightblue" d="M627.75,-56.32C638.3,-48.18 654.3,-35.84 666.94,-26.09"/>
<polygon fill="midnightblue" stroke="midnightblue" points="669.27,-28.71 675.05,-19.83 664.99,-23.17 669.27,-28.71"/>
</g>
<!-- Node16 -->
<g id="node16" class="node">
<title>Node16</title>
<g id="a_node16"><a xlink:title=" ">
<polygon fill="white" stroke="#bfbfbf" points="730.5,-0.5 730.5,-19.5 794.5,-19.5 794.5,-0.5 730.5,-0.5"/>
<text text-anchor="middle" x="762.5" y="-7.5" font-family="Helvetica,sans-Serif" font-size="10.00">pcu_util.h</text>
</a>
</g>
</g>
<!-- Node2&#45;&gt;Node16 -->
<g id="edge15" class="edge">
<title>Node2&#45;&gt;Node16</title>
<path fill="none" stroke="midnightblue" d="M639.63,-56.44C663.98,-47.44 702.51,-33.19 729.92,-23.05"/>
<polygon fill="midnightblue" stroke="midnightblue" points="731.31,-26.27 739.47,-19.52 728.88,-19.7 731.31,-26.27"/>
</g>
<!-- Node17&#45;&gt;Node3 -->
<g id="edge28" class="edge">
<title>Node17&#45;&gt;Node3</title>
<path fill="none" stroke="midnightblue" d="M1026.25,-119.65C907.7,-116.21 613.21,-105.2 368.5,-76 229.2,-59.38 191.8,-53.39 50.95,-19.87"/>
<polygon fill="midnightblue" stroke="midnightblue" points="51.61,-16.43 41.07,-17.52 49.99,-23.24 51.61,-16.43"/>
</g>
<!-- Node17&#45;&gt;Node5 -->
<g id="edge29" class="edge">
<title>Node17&#45;&gt;Node5</title>
<path fill="none" stroke="midnightblue" d="M1026.12,-117.63C928.54,-111.25 714.9,-96.18 535.5,-76 363.43,-56.64 318.13,-49.65 143.66,-20.13"/>
<polygon fill="midnightblue" stroke="midnightblue" points="144.07,-16.65 133.63,-18.43 142.9,-23.55 144.07,-16.65"/>
</g>
<!-- Node18 -->
<g id="node18" class="node">
<title>Node18</title>
<g id="a_node18"><a xlink:href="mesh_8h.html" target="_top" xlink:title=" ">
<polygon fill="white" stroke="black" points="1053,-56.5 1053,-75.5 1106,-75.5 1106,-56.5 1053,-56.5"/>
<text text-anchor="middle" x="1079.5" y="-63.5" font-family="Helvetica,sans-Serif" font-size="10.00">mesh.h</text>
</a>
</g>
</g>
<!-- Node17&#45;&gt;Node18 -->
<g id="edge17" class="edge">
<title>Node17&#45;&gt;Node18</title>
<path fill="none" stroke="midnightblue" d="M1079.5,-112.08C1079.5,-105.01 1079.5,-94.86 1079.5,-85.99"/>
<polygon fill="midnightblue" stroke="midnightblue" points="1083,-85.75 1079.5,-75.75 1076,-85.75 1083,-85.75"/>
</g>
<!-- Node25 -->
<g id="node25" class="node">
<title>Node25</title>
<g id="a_node25"><a xlink:title=" ">
<polygon fill="white" stroke="#bfbfbf" points="1124,-56.5 1124,-75.5 1219,-75.5 1219,-56.5 1124,-56.5"/>
<text text-anchor="middle" x="1171.5" y="-63.5" font-family="Helvetica,sans-Serif" font-size="10.00">apfNumbering.h</text>
</a>
</g>
</g>
<!-- Node17&#45;&gt;Node25 -->
<g id="edge30" class="edge">
<title>Node17&#45;&gt;Node25</title>
<path fill="none" stroke="midnightblue" d="M1094.28,-112.32C1108.77,-103.82 1131.07,-90.73 1147.99,-80.8"/>
<polygon fill="midnightblue" stroke="midnightblue" points="1149.9,-83.74 1156.76,-75.65 1146.36,-77.7 1149.9,-83.74"/>
</g>
<!-- Node26 -->
<g id="node26" class="node">
<title>Node26</title>
<g id="a_node26"><a xlink:title=" ">
<polygon fill="white" stroke="#bfbfbf" points="1237,-56.5 1237,-75.5 1284,-75.5 1284,-56.5 1237,-56.5"/>
<text text-anchor="middle" x="1260.5" y="-63.5" font-family="Helvetica,sans-Serif" font-size="10.00">queue</text>
</a>
</g>
</g>
<!-- Node17&#45;&gt;Node26 -->
<g id="edge31" class="edge">
<title>Node17&#45;&gt;Node26</title>
<path fill="none" stroke="midnightblue" d="M1108.18,-112.44C1140.43,-102.82 1192.74,-87.21 1226.89,-77.03"/>
<polygon fill="midnightblue" stroke="midnightblue" points="1228.28,-80.27 1236.86,-74.05 1226.27,-73.56 1228.28,-80.27"/>
</g>
<!-- Node27 -->
<g id="node27" class="node">
<title>Node27</title>
<g id="a_node27"><a xlink:href="_py_embedded_functions_8h.html" target="_top" xlink:title=" ">
<polygon fill="white" stroke="black" points="1383.5,-56.5 1383.5,-75.5 1519.5,-75.5 1519.5,-56.5 1383.5,-56.5"/>
<text text-anchor="middle" x="1451.5" y="-63.5" font-family="Helvetica,sans-Serif" font-size="10.00">PyEmbeddedFunctions.h</text>
</a>
</g>
</g>
<!-- Node17&#45;&gt;Node27 -->
<g id="edge32" class="edge">
<title>Node17&#45;&gt;Node27</title>
<path fill="none" stroke="midnightblue" d="M1132.8,-113.26C1198.61,-103.71 1310.68,-87.44 1382.86,-76.96"/>
<polygon fill="midnightblue" stroke="midnightblue" points="1383.38,-80.42 1392.78,-75.52 1382.38,-73.5 1383.38,-80.42"/>
</g>
<!-- Node18&#45;&gt;Node10 -->
<g id="edge26" class="edge">
<title>Node18&#45;&gt;Node10</title>
<path fill="none" stroke="midnightblue" d="M1052.76,-59.49C1015.17,-51.66 944.34,-36.67 874.67,-20.22"/>
<polygon fill="midnightblue" stroke="midnightblue" points="875.39,-16.79 864.85,-17.89 873.77,-23.6 875.39,-16.79"/>
</g>
<!-- Node18&#45;&gt;Node12 -->
<g id="edge23" class="edge">
<title>Node18&#45;&gt;Node12</title>
<path fill="none" stroke="midnightblue" d="M1053.04,-56.44C1024.82,-47.32 979.96,-32.81 948.53,-22.65"/>
<polygon fill="midnightblue" stroke="midnightblue" points="949.43,-19.26 938.84,-19.52 947.28,-25.92 949.43,-19.26"/>
</g>
<!-- Node18&#45;&gt;Node13 -->
<g id="edge25" class="edge">
<title>Node18&#45;&gt;Node13</title>
<path fill="none" stroke="midnightblue" d="M1064.88,-56.32C1050.55,-47.82 1028.49,-34.73 1011.75,-24.8"/>
<polygon fill="midnightblue" stroke="midnightblue" points="1013.47,-21.75 1003.08,-19.65 1009.9,-27.77 1013.47,-21.75"/>
</g>
<!-- Node18&#45;&gt;Node14 -->
<g id="edge21" class="edge">
<title>Node18&#45;&gt;Node14</title>
<path fill="none" stroke="midnightblue" d="M1075.21,-56.08C1071.65,-48.69 1066.48,-37.95 1062.08,-28.81"/>
<polygon fill="midnightblue" stroke="midnightblue" points="1065.21,-27.24 1057.71,-19.75 1058.9,-30.28 1065.21,-27.24"/>
</g>
<!-- Node19 -->
<g id="node19" class="node">
<title>Node19</title>
<g id="a_node19"><a xlink:title=" ">
<polygon fill="white" stroke="#bfbfbf" points="1090.5,-0.5 1090.5,-19.5 1122.5,-19.5 1122.5,-0.5 1090.5,-0.5"/>
<text text-anchor="middle" x="1106.5" y="-7.5" font-family="Helvetica,sans-Serif" font-size="10.00">set</text>
</a>
</g>
</g>
<!-- Node18&#45;&gt;Node19 -->
<g id="edge18" class="edge">
<title>Node18&#45;&gt;Node19</title>
<path fill="none" stroke="midnightblue" d="M1083.96,-56.08C1087.65,-48.69 1093.02,-37.95 1097.59,-28.81"/>
<polygon fill="midnightblue" stroke="midnightblue" points="1100.78,-30.26 1102.12,-19.75 1094.52,-27.13 1100.78,-30.26"/>
</g>
<!-- Node20 -->
<g id="node20" class="node">
<title>Node20</title>
<g id="a_node20"><a xlink:title=" ">
<polygon fill="white" stroke="#bfbfbf" points="1141,-0.5 1141,-19.5 1188,-19.5 1188,-0.5 1141,-0.5"/>
<text text-anchor="middle" x="1164.5" y="-7.5" font-family="Helvetica,sans-Serif" font-size="10.00">vector</text>
</a>
</g>
</g>
<!-- Node18&#45;&gt;Node20 -->
<g id="edge19" class="edge">
<title>Node18&#45;&gt;Node20</title>
<path fill="none" stroke="midnightblue" d="M1093.16,-56.32C1106.42,-47.9 1126.77,-34.97 1142.35,-25.07"/>
<polygon fill="midnightblue" stroke="midnightblue" points="1144.31,-27.97 1150.88,-19.65 1140.56,-22.06 1144.31,-27.97"/>
</g>
<!-- Node21 -->
<g id="node21" class="node">
<title>Node21</title>
<g id="a_node21"><a xlink:title=" ">
<polygon fill="white" stroke="#bfbfbf" points="1206.5,-0.5 1206.5,-19.5 1270.5,-19.5 1270.5,-0.5 1206.5,-0.5"/>
<text text-anchor="middle" x="1238.5" y="-7.5" font-family="Helvetica,sans-Serif" font-size="10.00">algorithm</text>
</a>
</g>
</g>
<!-- Node18&#45;&gt;Node21 -->
<g id="edge20" class="edge">
<title>Node18&#45;&gt;Node21</title>
<path fill="none" stroke="midnightblue" d="M1104.69,-56.44C1131.44,-47.36 1173.9,-32.94 1203.81,-22.78"/>
<polygon fill="midnightblue" stroke="midnightblue" points="1205.08,-26.05 1213.42,-19.52 1202.83,-19.42 1205.08,-26.05"/>
</g>
<!-- Node22 -->
<g id="node22" class="node">
<title>Node22</title>
<g id="a_node22"><a xlink:title=" ">
<polygon fill="white" stroke="#bfbfbf" points="1288.5,-0.5 1288.5,-19.5 1320.5,-19.5 1320.5,-0.5 1288.5,-0.5"/>
<text text-anchor="middle" x="1304.5" y="-7.5" font-family="Helvetica,sans-Serif" font-size="10.00">list</text>
</a>
</g>
</g>
<!-- Node18&#45;&gt;Node22 -->
<g id="edge22" class="edge">
<title>Node18&#45;&gt;Node22</title>
<path fill="none" stroke="midnightblue" d="M1106.23,-58.02C1109.02,-57.32 1111.81,-56.64 1114.5,-56 1184.53,-39.36 1205.65,-40.62 1278.79,-19.9"/>
<polygon fill="midnightblue" stroke="midnightblue" points="1279.82,-23.25 1288.46,-17.12 1277.89,-16.52 1279.82,-23.25"/>
</g>
<!-- Node23 -->
<g id="node23" class="node">
<title>Node23</title>
<g id="a_node23"><a xlink:title=" ">
<polygon fill="white" stroke="#bfbfbf" points="1338.5,-0.5 1338.5,-19.5 1394.5,-19.5 1394.5,-0.5 1338.5,-0.5"/>
<text text-anchor="middle" x="1366.5" y="-7.5" font-family="Helvetica,sans-Serif" font-size="10.00">iomanip</text>
</a>
</g>
</g>
<!-- Node18&#45;&gt;Node23 -->
<g id="edge24" class="edge">
<title>Node18&#45;&gt;Node23</title>
<path fill="none" stroke="midnightblue" d="M1106.2,-57.88C1108.99,-57.21 1111.8,-56.57 1114.5,-56 1206.13,-36.58 1232.83,-39.25 1328.19,-20.14"/>
<polygon fill="midnightblue" stroke="midnightblue" points="1329.16,-23.51 1338.27,-18.09 1327.77,-16.65 1329.16,-23.51"/>
</g>
<!-- Node24 -->
<g id="node24" class="node">
<title>Node24</title>
<g id="a_node24"><a xlink:title=" ">
<polygon fill="white" stroke="#bfbfbf" points="1413,-0.5 1413,-19.5 1460,-19.5 1460,-0.5 1413,-0.5"/>
<text text-anchor="middle" x="1436.5" y="-7.5" font-family="Helvetica,sans-Serif" font-size="10.00">cmath</text>
</a>
</g>
</g>
<!-- Node18&#45;&gt;Node24 -->
<g id="edge27" class="edge">
<title>Node18&#45;&gt;Node24</title>
<path fill="none" stroke="midnightblue" d="M1106.17,-57.77C1108.97,-57.12 1111.79,-56.52 1114.5,-56 1238.43,-32.45 1274.69,-44.44 1402.61,-19.89"/>
<polygon fill="midnightblue" stroke="midnightblue" points="1403.66,-23.25 1412.8,-17.9 1402.32,-16.38 1403.66,-23.25"/>
</g>
<!-- Node28 -->
<g id="node28" class="node">
<title>Node28</title>
<g id="a_node28"><a xlink:title=" ">
<polygon fill="white" stroke="#bfbfbf" points="1478,-0.5 1478,-19.5 1537,-19.5 1537,-0.5 1478,-0.5"/>
<text text-anchor="middle" x="1507.5" y="-7.5" font-family="Helvetica,sans-Serif" font-size="10.00">Python.h</text>
</a>
</g>
</g>
<!-- Node27&#45;&gt;Node28 -->
<g id="edge33" class="edge">
<title>Node27&#45;&gt;Node28</title>
<path fill="none" stroke="midnightblue" d="M1460.5,-56.32C1468.69,-48.42 1481.01,-36.55 1490.97,-26.94"/>
<polygon fill="midnightblue" stroke="midnightblue" points="1493.57,-29.29 1498.34,-19.83 1488.71,-24.26 1493.57,-29.29"/>
</g>
</g>
</svg>
