<?xml version="1.0" encoding="UTF-8" standalone="no"?>
<!DOCTYPE svg PUBLIC "-//W3C//DTD SVG 1.1//EN"
 "http://www.w3.org/Graphics/SVG/1.1/DTD/svg11.dtd">
<!-- Generated by graphviz version 2.44.1 (20200629.0846)
 -->
<!-- Title: densityRelations.h Pages: 1 -->
<svg width="352pt" height="140pt"
 viewBox="0.00 0.00 351.50 140.00" xmlns="http://www.w3.org/2000/svg" xmlns:xlink="http://www.w3.org/1999/xlink">
<g id="graph0" class="graph" transform="scale(1 1) rotate(0) translate(4 136)">
<title>densityRelations.h</title>
<polygon fill="white" stroke="transparent" points="-4,4 -4,-136 347.5,-136 347.5,4 -4,4"/>
<!-- Node1 -->
<g id="node1" class="node">
<title>Node1</title>
<g id="a_node1"><a xlink:title=" ">
<polygon fill="#bfbfbf" stroke="black" points="141.5,-112.5 141.5,-131.5 239.5,-131.5 239.5,-112.5 141.5,-112.5"/>
<text text-anchor="middle" x="190.5" y="-119.5" font-family="Helvetica,sans-Serif" font-size="10.00">densityRelations.h</text>
</a>
</g>
</g>
<!-- Node2 -->
<g id="node2" class="node">
<title>Node2</title>
<g id="a_node2"><a xlink:href="psk_relations_8h.html" target="_top" xlink:title=" ">
<polygon fill="white" stroke="black" points="149.5,-56.5 149.5,-75.5 231.5,-75.5 231.5,-56.5 149.5,-56.5"/>
<text text-anchor="middle" x="190.5" y="-63.5" font-family="Helvetica,sans-Serif" font-size="10.00">pskRelations.h</text>
</a>
</g>
</g>
<!-- Node1&#45;&gt;Node2 -->
<g id="edge1" class="edge">
<title>Node1&#45;&gt;Node2</title>
<path fill="none" stroke="midnightblue" d="M190.5,-101.8C190.5,-92.91 190.5,-82.78 190.5,-75.75"/>
<polygon fill="midnightblue" stroke="midnightblue" points="187,-102.08 190.5,-112.08 194,-102.08 187,-102.08"/>
</g>
<!-- Node3 -->
<g id="node3" class="node">
<title>Node3</title>
<g id="a_node3"><a xlink:href="_subsurface_transport_coefficients_8cpp.html" target="_top" xlink:title=" ">
<polygon fill="white" stroke="black" points="0,-0.5 0,-19.5 179,-19.5 179,-0.5 0,-0.5"/>
<text text-anchor="middle" x="89.5" y="-7.5" font-family="Helvetica,sans-Serif" font-size="10.00">SubsurfaceTransportCoefficients.cpp</text>
</a>
</g>
</g>
<!-- Node1&#45;&gt;Node3 -->
<g id="edge4" class="edge">
<title>Node1&#45;&gt;Node3</title>
<path fill="none" stroke="midnightblue" d="M171.79,-105.52C162.08,-97.15 150.25,-86.43 140.5,-76 122.87,-57.14 104.82,-32.67 95.65,-19.8"/>
<polygon fill="midnightblue" stroke="midnightblue" points="169.78,-108.4 179.67,-112.19 174.3,-103.06 169.78,-108.4"/>
</g>
<!-- Node4 -->
<g id="node4" class="node">
<title>Node4</title>
<g id="a_node4"><a xlink:href="twophase_darcy_coefficients_8h.html" target="_top" xlink:title=" ">
<polygon fill="white" stroke="black" points="197.5,-0.5 197.5,-19.5 343.5,-19.5 343.5,-0.5 197.5,-0.5"/>
<text text-anchor="middle" x="270.5" y="-7.5" font-family="Helvetica,sans-Serif" font-size="10.00">twophaseDarcyCoefficients.h</text>
</a>
</g>
</g>
<!-- Node1&#45;&gt;Node4 -->
<g id="edge5" class="edge">
<title>Node1&#45;&gt;Node4</title>
<path fill="none" stroke="midnightblue" d="M210.64,-106.08C220.55,-97.99 232.14,-87.34 240.5,-76 253.92,-57.79 263.42,-32.62 267.79,-19.59"/>
<polygon fill="midnightblue" stroke="midnightblue" points="208.19,-103.55 202.48,-112.48 212.51,-109.06 208.19,-103.55"/>
</g>
<!-- Node2&#45;&gt;Node3 -->
<g id="edge2" class="edge">
<title>Node2&#45;&gt;Node3</title>
<path fill="none" stroke="midnightblue" d="M165.42,-51.59C146.74,-41.61 121.8,-28.27 105.69,-19.65"/>
<polygon fill="midnightblue" stroke="midnightblue" points="163.8,-54.7 174.27,-56.32 167.1,-48.52 163.8,-54.7"/>
</g>
<!-- Node2&#45;&gt;Node4 -->
<g id="edge3" class="edge">
<title>Node2&#45;&gt;Node4</title>
<path fill="none" stroke="midnightblue" d="M211.8,-50.62C226.42,-40.76 245.33,-27.99 257.68,-19.65"/>
<polygon fill="midnightblue" stroke="midnightblue" points="209.68,-47.83 203.35,-56.32 213.6,-53.63 209.68,-47.83"/>
</g>
</g>
</svg>
