<?xml version="1.0" encoding="UTF-8" standalone="no"?>
<!DOCTYPE svg PUBLIC "-//W3C//DTD SVG 1.1//EN"
 "http://www.w3.org/Graphics/SVG/1.1/DTD/svg11.dtd">
<!-- Generated by graphviz version 2.44.1 (20200629.0846)
 -->
<!-- Title: proteus Pages: 1 -->
<svg width="670pt" height="111pt"
 viewBox="0.00 0.00 670.00 111.00" xmlns="http://www.w3.org/2000/svg" xmlns:xlink="http://www.w3.org/1999/xlink">
<g id="graph0" class="graph" transform="scale(1 1) rotate(0) translate(4 107)">
<title>proteus</title>
<polygon fill="white" stroke="transparent" points="-4,4 -4,-107 666,-107 666,4 -4,4"/>
<g id="clust1" class="cluster">
<title>clusterdir_4ad49f643cfe3beef94593057dbbb329</title>
<g id="a_clust1"><a xlink:href="dir_4ad49f643cfe3beef94593057dbbb329.html" target="_top" xlink:title="proteus">
<polygon fill="#ddddee" stroke="black" points="8,-8 8,-95 654,-95 654,-8 8,-8"/>
<text text-anchor="middle" x="331" y="-83" font-family="Helvetica,sans-Serif" font-size="10.00">proteus</text>
</a>
</g>
</g>
<g id="clust2" class="cluster">
<title>clusterdir_492f78248aacc14ac3304a897fd427ac</title>
<g id="a_clust2"><a xlink:href="dir_492f78248aacc14ac3304a897fd427ac.html" target="_top">
<polygon fill="#eeeeff" stroke="black" points="16,-16 16,-68 646,-68 646,-16 16,-16"/>
</a>
</g>
</g>
<!-- dir_492f78248aacc14ac3304a897fd427ac -->
<g id="node1" class="node">
<title>dir_492f78248aacc14ac3304a897fd427ac</title>
<text text-anchor="middle" x="611" y="-39.5" font-family="Helvetica,sans-Serif" font-size="10.00">proteus</text>
</g>
<!-- dir_c32f490529df8e9d7d34b0b39e7a820d -->
<g id="node2" class="node">
<title>dir_c32f490529df8e9d7d34b0b39e7a820d</title>
<g id="a_node2"><a xlink:href="dir_c32f490529df8e9d7d34b0b39e7a820d.html" target="_top" xlink:title="elastoplastic">
<polygon fill="white" stroke="black" points="565.5,-60 494.5,-60 494.5,-24 565.5,-24 565.5,-60"/>
<text text-anchor="middle" x="530" y="-39.5" font-family="Helvetica,sans-Serif" font-size="10.00">elastoplastic</text>
</a>
</g>
</g>
<!-- dir_363178190c8cd58c35b0b61e3f086755 -->
<g id="node3" class="node">
<title>dir_363178190c8cd58c35b0b61e3f086755</title>
<g id="a_node3"><a xlink:href="dir_363178190c8cd58c35b0b61e3f086755.html" target="_top" xlink:title="fenton">
<polygon fill="white" stroke="black" points="476,-60 422,-60 422,-24 476,-24 476,-60"/>
<text text-anchor="middle" x="449" y="-39.5" font-family="Helvetica,sans-Serif" font-size="10.00">fenton</text>
</a>
</g>
</g>
<!-- dir_5ce8b82d6bfd680af00f94622abe5bc6 -->
<g id="node4" class="node">
<title>dir_5ce8b82d6bfd680af00f94622abe5bc6</title>
<g id="a_node4"><a xlink:href="dir_5ce8b82d6bfd680af00f94622abe5bc6.html" target="_top" xlink:title="mbd">
<polygon fill="white" stroke="black" points="404,-60 350,-60 350,-24 404,-24 404,-60"/>
<text text-anchor="middle" x="377" y="-39.5" font-family="Helvetica,sans-Serif" font-size="10.00">mbd</text>
</a>
</g>
</g>
<!-- dir_04d5b61739190d60300be1ed1f1c606b -->
<g id="node5" class="node">
<title>dir_04d5b61739190d60300be1ed1f1c606b</title>
<g id="a_node5"><a xlink:href="dir_04d5b61739190d60300be1ed1f1c606b.html" target="_top" xlink:title="MeshAdaptPUMI">
<polygon fill="white" stroke="black" points="332,-60 240,-60 240,-24 332,-24 332,-60"/>
<text text-anchor="middle" x="286" y="-39.5" font-family="Helvetica,sans-Serif" font-size="10.00">MeshAdaptPUMI</text>
</a>
</g>
</g>
<!-- dir_fe942153297951da8feb4e848dcf3066 -->
<g id="node6" class="node">
<title>dir_fe942153297951da8feb4e848dcf3066</title>
<g id="a_node6"><a xlink:href="dir_fe942153297951da8feb4e848dcf3066.html" target="_top" xlink:title="mprans">
<polygon fill="white" stroke="black" points="222,-60 168,-60 168,-24 222,-24 222,-60"/>
<text text-anchor="middle" x="195" y="-39.5" font-family="Helvetica,sans-Serif" font-size="10.00">mprans</text>
</a>
</g>
</g>
<!-- dir_2b0f679cb1ec23bd716114e67b50a4ad -->
<g id="node7" class="node">
<title>dir_2b0f679cb1ec23bd716114e67b50a4ad</title>
<g id="a_node7"><a xlink:href="dir_2b0f679cb1ec23bd716114e67b50a4ad.html" target="_top" xlink:title="richards">
<polygon fill="white" stroke="black" points="150,-60 96,-60 96,-24 150,-24 150,-60"/>
<text text-anchor="middle" x="123" y="-39.5" font-family="Helvetica,sans-Serif" font-size="10.00">richards</text>
</a>
</g>
</g>
<!-- dir_b108bc431685bd33cecaa3dbbbe58479 -->
<g id="node8" class="node">
<title>dir_b108bc431685bd33cecaa3dbbbe58479</title>
<g id="a_node8"><a xlink:href="dir_b108bc431685bd33cecaa3dbbbe58479.html" target="_top" xlink:title="tests">
<polygon fill="white" stroke="red" points="78,-60 24,-60 24,-24 78,-24 78,-60"/>
<text text-anchor="middle" x="51" y="-39.5" font-family="Helvetica,sans-Serif" font-size="10.00">tests</text>
</a>
</g>
</g>
</g>
</svg>
