<?xml version="1.0" encoding="UTF-8" standalone="no"?>
<!DOCTYPE svg PUBLIC "-//W3C//DTD SVG 1.1//EN"
 "http://www.w3.org/Graphics/SVG/1.1/DTD/svg11.dtd">
<!-- Generated by graphviz version 2.43.0 (0)
 -->
<!-- Title: elastoplastic Pages: 1 -->
<svg width="118pt" height="151pt"
 viewBox="0.00 0.00 118.00 151.00" xmlns="http://www.w3.org/2000/svg" xmlns:xlink="http://www.w3.org/1999/xlink">
<g id="graph0" class="graph" transform="scale(1 1) rotate(0) translate(4 147)">
<title>elastoplastic</title>
<polygon fill="white" stroke="transparent" points="-4,4 -4,-147 114,-147 114,4 -4,4"/>
<g id="clust1" class="cluster">
<title>clusterdir_3446673df0752febf990988ab0ae2061</title>
<g id="a_clust1"><a xlink:href="dir_3446673df0752febf990988ab0ae2061.html" target="_top" xlink:title="proteus">
<polygon fill="#ddddee" stroke="black" points="8,-64 8,-135 102,-135 102,-64 8,-64"/>
<text text-anchor="middle" x="55" y="-123" font-family="Helvetica,sans-Serif" font-size="10.00">proteus</text>
</a>
</g>
</g>
<!-- dir_d53145f6b2fadd9511d28af01ca8fba1 -->
<g id="node1" class="node">
<title>dir_d53145f6b2fadd9511d28af01ca8fba1</title>
<g id="a_node1"><a xlink:href="dir_d53145f6b2fadd9511d28af01ca8fba1.html" target="_top" xlink:title="elastoplastic">
<polygon fill="#eeeeff" stroke="black" points="94.5,-108 15.5,-108 15.5,-72 94.5,-72 94.5,-108"/>
<text text-anchor="middle" x="55" y="-87.5" font-family="Helvetica,sans-Serif" font-size="10.00">elastoplastic</text>
</a>
</g>
</g>
<!-- dir_01ff30a23d48d438db9096f7ec5b51e5 -->
<g id="node2" class="node">
<title>dir_01ff30a23d48d438db9096f7ec5b51e5</title>
<g id="a_node2"><a xlink:href="dir_01ff30a23d48d438db9096f7ec5b51e5.html" target="_top" xlink:title="mprans">
<polygon fill="none" stroke="black" points="82,-36 28,-36 28,0 82,0 82,-36"/>
<text text-anchor="middle" x="55" y="-15.5" font-family="Helvetica,sans-Serif" font-size="10.00">mprans</text>
</a>
</g>
</g>
<!-- dir_d53145f6b2fadd9511d28af01ca8fba1&#45;&gt;dir_01ff30a23d48d438db9096f7ec5b51e5 -->
<g id="edge1" class="edge">
<title>dir_d53145f6b2fadd9511d28af01ca8fba1&#45;&gt;dir_01ff30a23d48d438db9096f7ec5b51e5</title>
<path fill="none" stroke="black" d="M55,-71.7C55,-63.98 55,-54.71 55,-46.11"/>
<polygon fill="black" stroke="black" points="58.5,-46.1 55,-36.1 51.5,-46.1 58.5,-46.1"/>
<g id="a_edge1&#45;headlabel"><a xlink:href="dir_000006_000004.html" target="_top" xlink:title="1">
<text text-anchor="middle" x="61.34" y="-47.2" font-family="Helvetica,sans-Serif" font-size="10.00">1</text>
</a>
</g>
</g>
</g>
</svg>
