<?xml version="1.0" encoding="UTF-8" standalone="no"?>
<!DOCTYPE svg PUBLIC "-//W3C//DTD SVG 1.1//EN"
 "http://www.w3.org/Graphics/SVG/1.1/DTD/svg11.dtd">
<!-- Generated by graphviz version 2.40.1 (20161225.0304)
 -->
<!-- Title: proteus Pages: 1 -->
<svg width="598pt" height="183pt"
 viewBox="0.00 0.00 598.00 183.00" xmlns="http://www.w3.org/2000/svg" xmlns:xlink="http://www.w3.org/1999/xlink">
<g id="graph0" class="graph" transform="scale(1 1) rotate(0) translate(4 179)">
<title>proteus</title>
<polygon fill="#ffffff" stroke="transparent" points="-4,4 -4,-179 594,-179 594,4 -4,4"/>
<g id="clust1" class="cluster">
<title>clusterdir_d25e8b414f234b705fab62ac55a8a3a3</title>
<g id="a_clust1"><a xlink:href="dir_d25e8b414f234b705fab62ac55a8a3a3.html" target="_top" xlink:title="proteus">
<polygon fill="#ddddee" stroke="#000000" points="8,-8 8,-167 582,-167 582,-8 8,-8"/>
<text text-anchor="middle" x="295" y="-155" font-family="Helvetica,sans-Serif" font-size="10.00" fill="#000000">proteus</text>
</a>
</g>
</g>
<g id="clust2" class="cluster">
<title>clusterdir_3446673df0752febf990988ab0ae2061</title>
<g id="a_clust2"><a xlink:href="dir_3446673df0752febf990988ab0ae2061.html" target="_top">
<polygon fill="#eeeeff" stroke="#000000" points="16,-16 16,-140 574,-140 574,-16 16,-16"/>
</a>
</g>
</g>
<!-- dir_3446673df0752febf990988ab0ae2061 -->
<g id="node1" class="node">
<title>dir_3446673df0752febf990988ab0ae2061</title>
<text text-anchor="middle" x="539" y="-111.5" font-family="Helvetica,sans-Serif" font-size="10.00" fill="#000000">proteus</text>
</g>
<!-- dir_d53145f6b2fadd9511d28af01ca8fba1 -->
<g id="node2" class="node">
<title>dir_d53145f6b2fadd9511d28af01ca8fba1</title>
<g id="a_node2"><a xlink:href="dir_d53145f6b2fadd9511d28af01ca8fba1.html" target="_top" xlink:title="elastoplastic">
<polygon fill="#ffffff" stroke="#000000" points="493.5,-132 422.5,-132 422.5,-96 493.5,-96 493.5,-132"/>
<text text-anchor="middle" x="458" y="-111.5" font-family="Helvetica,sans-Serif" font-size="10.00" fill="#000000">elastoplastic</text>
</a>
</g>
</g>
<!-- dir_01ff30a23d48d438db9096f7ec5b51e5 -->
<g id="node6" class="node">
<title>dir_01ff30a23d48d438db9096f7ec5b51e5</title>
<g id="a_node6"><a xlink:href="dir_01ff30a23d48d438db9096f7ec5b51e5.html" target="_top" xlink:title="mprans">
<polygon fill="#ffffff" stroke="#000000" points="317,-60 263,-60 263,-24 317,-24 317,-60"/>
<text text-anchor="middle" x="290" y="-39.5" font-family="Helvetica,sans-Serif" font-size="10.00" fill="#000000">mprans</text>
</a>
</g>
</g>
<!-- dir_d53145f6b2fadd9511d28af01ca8fba1&#45;&gt;dir_01ff30a23d48d438db9096f7ec5b51e5 -->
<g id="edge1" class="edge">
<title>dir_d53145f6b2fadd9511d28af01ca8fba1&#45;&gt;dir_01ff30a23d48d438db9096f7ec5b51e5</title>
<path fill="none" stroke="#000000" d="M422.3715,-98.7307C394.0743,-86.6033 354.6675,-69.7146 326.2176,-57.5218"/>
<polygon fill="#000000" stroke="#000000" points="327.5914,-54.3028 317.0212,-53.5805 324.834,-60.7368 327.5914,-54.3028"/>
<g id="a_edge1&#45;headlabel"><a xlink:href="dir_000007_000005.html" target="_top" xlink:title="1">
<text text-anchor="middle" x="332.0138" y="-50.609" font-family="Helvetica,sans-Serif" font-size="10.00" fill="#000000">1</text>
</a>
</g>
</g>
<!-- dir_452f90c3d1c7d484c29ec767689c7ed8 -->
<g id="node3" class="node">
<title>dir_452f90c3d1c7d484c29ec767689c7ed8</title>
<g id="a_node3"><a xlink:href="dir_452f90c3d1c7d484c29ec767689c7ed8.html" target="_top" xlink:title="fenton">
<polygon fill="#ffffff" stroke="#000000" points="404,-132 350,-132 350,-96 404,-96 404,-132"/>
<text text-anchor="middle" x="377" y="-111.5" font-family="Helvetica,sans-Serif" font-size="10.00" fill="#000000">fenton</text>
</a>
</g>
</g>
<!-- dir_e2b48c1924f76d147fe8f091e436ede5 -->
<g id="node4" class="node">
<title>dir_e2b48c1924f76d147fe8f091e436ede5</title>
<g id="a_node4"><a xlink:href="dir_e2b48c1924f76d147fe8f091e436ede5.html" target="_top" xlink:title="mbd">
<polygon fill="#ffffff" stroke="#000000" points="332,-132 278,-132 278,-96 332,-96 332,-132"/>
<text text-anchor="middle" x="305" y="-111.5" font-family="Helvetica,sans-Serif" font-size="10.00" fill="#000000">mbd</text>
</a>
</g>
</g>
<!-- dir_68f57fbeb6ea790b41f939da47cea2e7 -->
<g id="node5" class="node">
<title>dir_68f57fbeb6ea790b41f939da47cea2e7</title>
<g id="a_node5"><a xlink:href="dir_68f57fbeb6ea790b41f939da47cea2e7.html" target="_top" xlink:title="MeshAdaptPUMI">
<polygon fill="#ffffff" stroke="#000000" points="260,-132 168,-132 168,-96 260,-96 260,-132"/>
<text text-anchor="middle" x="214" y="-111.5" font-family="Helvetica,sans-Serif" font-size="10.00" fill="#000000">MeshAdaptPUMI</text>
</a>
</g>
</g>
<!-- dir_8363ac4e8703871621ac4c6b99fd7927 -->
<g id="node7" class="node">
<title>dir_8363ac4e8703871621ac4c6b99fd7927</title>
<g id="a_node7"><a xlink:href="dir_8363ac4e8703871621ac4c6b99fd7927.html" target="_top" xlink:title="richards">
<polygon fill="#ffffff" stroke="#000000" points="150,-132 96,-132 96,-96 150,-96 150,-132"/>
<text text-anchor="middle" x="123" y="-111.5" font-family="Helvetica,sans-Serif" font-size="10.00" fill="#000000">richards</text>
</a>
</g>
</g>
<!-- dir_8363ac4e8703871621ac4c6b99fd7927&#45;&gt;dir_01ff30a23d48d438db9096f7ec5b51e5 -->
<g id="edge2" class="edge">
<title>dir_8363ac4e8703871621ac4c6b99fd7927&#45;&gt;dir_01ff30a23d48d438db9096f7ec5b51e5</title>
<path fill="none" stroke="#000000" d="M150.0252,-100.2239C153.0383,-98.7667 156.0747,-97.3321 159,-96 190.4646,-81.6717 226.8649,-66.8001 253.2978,-56.3004"/>
<polygon fill="#000000" stroke="#000000" points="254.8966,-59.432 262.9094,-52.5005 252.323,-52.9222 254.8966,-59.432"/>
<g id="a_edge2&#45;headlabel"><a xlink:href="dir_000009_000005.html" target="_top" xlink:title="1">
<text text-anchor="middle" x="252.5975" y="-60.8939" font-family="Helvetica,sans-Serif" font-size="10.00" fill="#000000">1</text>
</a>
</g>
</g>
<!-- dir_5f2af49ce699d1ca15102aad09ba1855 -->
<g id="node8" class="node">
<title>dir_5f2af49ce699d1ca15102aad09ba1855</title>
<g id="a_node8"><a xlink:href="dir_5f2af49ce699d1ca15102aad09ba1855.html" target="_top" xlink:title="tests">
<polygon fill="#ffffff" stroke="#ff0000" points="78,-132 24,-132 24,-96 78,-96 78,-132"/>
<text text-anchor="middle" x="51" y="-111.5" font-family="Helvetica,sans-Serif" font-size="10.00" fill="#000000">tests</text>
</a>
</g>
</g>
</g>
</svg>
