<?xml version="1.0" encoding="UTF-8" standalone="no"?>
<!DOCTYPE svg PUBLIC "-//W3C//DTD SVG 1.1//EN"
 "http://www.w3.org/Graphics/SVG/1.1/DTD/svg11.dtd">
<!-- Generated by graphviz version 2.50.0 (20211204.2007)
 -->
<!-- Title: proteus Pages: 1 -->
<svg width="598pt" height="183pt"
 viewBox="0.00 0.00 598.00 183.00" xmlns="http://www.w3.org/2000/svg" xmlns:xlink="http://www.w3.org/1999/xlink">
<g id="graph0" class="graph" transform="scale(1 1) rotate(0) translate(4 179)">
<title>proteus</title>
<polygon fill="white" stroke="transparent" points="-4,4 -4,-179 594,-179 594,4 -4,4"/>
<g id="clust1" class="cluster">
<title>clusterdir_4ad49f643cfe3beef94593057dbbb329</title>
<g id="a_clust1"><a xlink:href="dir_4ad49f643cfe3beef94593057dbbb329.html" target="_top" xlink:title="proteus">
<polygon fill="#ddddee" stroke="black" points="8,-8 8,-167 582,-167 582,-8 8,-8"/>
<text text-anchor="middle" x="295" y="-155" font-family="Helvetica,sans-Serif" font-size="10.00">proteus</text>
</a>
</g>
</g>
<g id="clust2" class="cluster">
<title>clusterdir_492f78248aacc14ac3304a897fd427ac</title>
<g id="a_clust2"><a xlink:href="dir_492f78248aacc14ac3304a897fd427ac.html" target="_top">
<polygon fill="#eeeeff" stroke="black" points="16,-16 16,-140 574,-140 574,-16 16,-16"/>
</a>
</g>
</g>
<!-- dir_492f78248aacc14ac3304a897fd427ac -->
<g id="node1" class="node">
<title>dir_492f78248aacc14ac3304a897fd427ac</title>
<text text-anchor="middle" x="539" y="-111.5" font-family="Helvetica,sans-Serif" font-size="10.00">proteus</text>
</g>
<!-- dir_c32f490529df8e9d7d34b0b39e7a820d -->
<g id="node2" class="node">
<title>dir_c32f490529df8e9d7d34b0b39e7a820d</title>
<g id="a_node2"><a xlink:href="dir_c32f490529df8e9d7d34b0b39e7a820d.html" target="_top" xlink:title="elastoplastic">
<polygon fill="white" stroke="black" points="493.5,-132 422.5,-132 422.5,-96 493.5,-96 493.5,-132"/>
<text text-anchor="middle" x="458" y="-111.5" font-family="Helvetica,sans-Serif" font-size="10.00">elastoplastic</text>
</a>
</g>
</g>
<!-- dir_fe942153297951da8feb4e848dcf3066 -->
<g id="node6" class="node">
<title>dir_fe942153297951da8feb4e848dcf3066</title>
<g id="a_node6"><a xlink:href="dir_fe942153297951da8feb4e848dcf3066.html" target="_top" xlink:title="mprans">
<polygon fill="white" stroke="black" points="317,-60 263,-60 263,-24 317,-24 317,-60"/>
<text text-anchor="middle" x="290" y="-39.5" font-family="Helvetica,sans-Serif" font-size="10.00">mprans</text>
</a>
</g>
</g>
<!-- dir_c32f490529df8e9d7d34b0b39e7a820d&#45;&gt;dir_fe942153297951da8feb4e848dcf3066 -->
<g id="edge2" class="edge">
<title>dir_c32f490529df8e9d7d34b0b39e7a820d&#45;&gt;dir_fe942153297951da8feb4e848dcf3066</title>
<path fill="none" stroke="black" d="M422.37,-98.15C394.2,-86.42 355.01,-70.09 326.59,-58.25"/>
<polygon fill="black" stroke="black" points="327.6,-54.87 317.02,-54.26 324.91,-61.34 327.6,-54.87"/>
<g id="a_edge2&#45;headlabel"><a xlink:href="dir_000006_000004.html" target="_top" xlink:title="1">
<text text-anchor="middle" x="332.01" y="-51.14" font-family="Helvetica,sans-Serif" font-size="10.00">1</text>
</a>
</g>
</g>
<!-- dir_363178190c8cd58c35b0b61e3f086755 -->
<g id="node3" class="node">
<title>dir_363178190c8cd58c35b0b61e3f086755</title>
<g id="a_node3"><a xlink:href="dir_363178190c8cd58c35b0b61e3f086755.html" target="_top" xlink:title="fenton">
<polygon fill="white" stroke="black" points="404,-132 350,-132 350,-96 404,-96 404,-132"/>
<text text-anchor="middle" x="377" y="-111.5" font-family="Helvetica,sans-Serif" font-size="10.00">fenton</text>
</a>
</g>
</g>
<!-- dir_5ce8b82d6bfd680af00f94622abe5bc6 -->
<g id="node4" class="node">
<title>dir_5ce8b82d6bfd680af00f94622abe5bc6</title>
<g id="a_node4"><a xlink:href="dir_5ce8b82d6bfd680af00f94622abe5bc6.html" target="_top" xlink:title="mbd">
<polygon fill="white" stroke="black" points="332,-132 278,-132 278,-96 332,-96 332,-132"/>
<text text-anchor="middle" x="305" y="-111.5" font-family="Helvetica,sans-Serif" font-size="10.00">mbd</text>
</a>
</g>
</g>
<!-- dir_04d5b61739190d60300be1ed1f1c606b -->
<g id="node5" class="node">
<title>dir_04d5b61739190d60300be1ed1f1c606b</title>
<g id="a_node5"><a xlink:href="dir_04d5b61739190d60300be1ed1f1c606b.html" target="_top" xlink:title="MeshAdaptPUMI">
<polygon fill="white" stroke="black" points="260,-132 168,-132 168,-96 260,-96 260,-132"/>
<text text-anchor="middle" x="214" y="-111.5" font-family="Helvetica,sans-Serif" font-size="10.00">MeshAdaptPUMI</text>
</a>
</g>
</g>
<!-- dir_2b0f679cb1ec23bd716114e67b50a4ad -->
<g id="node7" class="node">
<title>dir_2b0f679cb1ec23bd716114e67b50a4ad</title>
<g id="a_node7"><a xlink:href="dir_2b0f679cb1ec23bd716114e67b50a4ad.html" target="_top" xlink:title="richards">
<polygon fill="white" stroke="black" points="150,-132 96,-132 96,-96 150,-96 150,-132"/>
<text text-anchor="middle" x="123" y="-111.5" font-family="Helvetica,sans-Serif" font-size="10.00">richards</text>
</a>
</g>
</g>
<!-- dir_2b0f679cb1ec23bd716114e67b50a4ad&#45;&gt;dir_fe942153297951da8feb4e848dcf3066 -->
<g id="edge1" class="edge">
<title>dir_2b0f679cb1ec23bd716114e67b50a4ad&#45;&gt;dir_fe942153297951da8feb4e848dcf3066</title>
<path fill="none" stroke="black" d="M150.05,-100.02C153.06,-98.64 156.09,-97.28 159,-96 190.58,-82.17 226.97,-67.55 253.37,-57.18"/>
<polygon fill="black" stroke="black" points="254.93,-60.32 262.97,-53.42 252.38,-53.8 254.93,-60.32"/>
<g id="a_edge1&#45;headlabel"><a xlink:href="dir_000009_000004.html" target="_top" xlink:title="1">
<text text-anchor="middle" x="252.62" y="-61.78" font-family="Helvetica,sans-Serif" font-size="10.00">1</text>
</a>
</g>
</g>
<!-- dir_b108bc431685bd33cecaa3dbbbe58479 -->
<g id="node8" class="node">
<title>dir_b108bc431685bd33cecaa3dbbbe58479</title>
<g id="a_node8"><a xlink:href="dir_b108bc431685bd33cecaa3dbbbe58479.html" target="_top" xlink:title="tests">
<polygon fill="white" stroke="red" points="78,-132 24,-132 24,-96 78,-96 78,-132"/>
<text text-anchor="middle" x="51" y="-111.5" font-family="Helvetica,sans-Serif" font-size="10.00">tests</text>
</a>
</g>
</g>
</g>
</svg>
