<?xml version="1.0" encoding="UTF-8" standalone="no"?>
<!DOCTYPE svg PUBLIC "-//W3C//DTD SVG 1.1//EN"
 "http://www.w3.org/Graphics/SVG/1.1/DTD/svg11.dtd">
<!-- Generated by graphviz version 2.43.0 (0)
 -->
<!-- Title: proteus Pages: 1 -->
<svg width="614pt" height="183pt"
 viewBox="0.00 0.00 614.00 183.00" xmlns="http://www.w3.org/2000/svg" xmlns:xlink="http://www.w3.org/1999/xlink">
<g id="graph0" class="graph" transform="scale(1 1) rotate(0) translate(4 179)">
<title>proteus</title>
<polygon fill="white" stroke="transparent" points="-4,4 -4,-179 610,-179 610,4 -4,4"/>
<g id="clust1" class="cluster">
<title>clusterdir_d25e8b414f234b705fab62ac55a8a3a3</title>
<g id="a_clust1"><a xlink:href="dir_d25e8b414f234b705fab62ac55a8a3a3.html" target="_top" xlink:title="proteus">
<polygon fill="#ddddee" stroke="black" points="8,-8 8,-167 598,-167 598,-8 8,-8"/>
<text text-anchor="middle" x="303" y="-155" font-family="Helvetica,sans-Serif" font-size="10.00">proteus</text>
</a>
</g>
</g>
<g id="clust2" class="cluster">
<title>clusterdir_3446673df0752febf990988ab0ae2061</title>
<g id="a_clust2"><a xlink:href="dir_3446673df0752febf990988ab0ae2061.html" target="_top">
<polygon fill="#eeeeff" stroke="black" points="16,-16 16,-140 590,-140 590,-16 16,-16"/>
</a>
</g>
</g>
<!-- dir_3446673df0752febf990988ab0ae2061 -->
<g id="node1" class="node">
<title>dir_3446673df0752febf990988ab0ae2061</title>
<text text-anchor="middle" x="555" y="-111.5" font-family="Helvetica,sans-Serif" font-size="10.00">proteus</text>
</g>
<!-- dir_d53145f6b2fadd9511d28af01ca8fba1 -->
<g id="node2" class="node">
<title>dir_d53145f6b2fadd9511d28af01ca8fba1</title>
<g id="a_node2"><a xlink:href="dir_d53145f6b2fadd9511d28af01ca8fba1.html" target="_top" xlink:title="elastoplastic">
<polygon fill="white" stroke="black" points="509.5,-132 430.5,-132 430.5,-96 509.5,-96 509.5,-132"/>
<text text-anchor="middle" x="470" y="-111.5" font-family="Helvetica,sans-Serif" font-size="10.00">elastoplastic</text>
</a>
</g>
</g>
<!-- dir_01ff30a23d48d438db9096f7ec5b51e5 -->
<g id="node6" class="node">
<title>dir_01ff30a23d48d438db9096f7ec5b51e5</title>
<g id="a_node6"><a xlink:href="dir_01ff30a23d48d438db9096f7ec5b51e5.html" target="_top" xlink:title="mprans">
<polygon fill="white" stroke="black" points="324,-60 270,-60 270,-24 324,-24 324,-60"/>
<text text-anchor="middle" x="297" y="-39.5" font-family="Helvetica,sans-Serif" font-size="10.00">mprans</text>
</a>
</g>
</g>
<!-- dir_d53145f6b2fadd9511d28af01ca8fba1&#45;&gt;dir_01ff30a23d48d438db9096f7ec5b51e5 -->
<g id="edge1" class="edge">
<title>dir_d53145f6b2fadd9511d28af01ca8fba1&#45;&gt;dir_01ff30a23d48d438db9096f7ec5b51e5</title>
<path fill="none" stroke="black" d="M430.31,-96.94C401.22,-85.17 362.02,-69.31 333.66,-57.84"/>
<polygon fill="black" stroke="black" points="334.7,-54.48 324.12,-53.97 332.08,-60.97 334.7,-54.48"/>
<g id="a_edge1&#45;headlabel"><a xlink:href="dir_000006_000004.html" target="_top" xlink:title="1">
<text text-anchor="middle" x="339.1" y="-50.7" font-family="Helvetica,sans-Serif" font-size="10.00">1</text>
</a>
</g>
</g>
<!-- dir_452f90c3d1c7d484c29ec767689c7ed8 -->
<g id="node3" class="node">
<title>dir_452f90c3d1c7d484c29ec767689c7ed8</title>
<g id="a_node3"><a xlink:href="dir_452f90c3d1c7d484c29ec767689c7ed8.html" target="_top" xlink:title="fenton">
<polygon fill="white" stroke="black" points="412,-132 358,-132 358,-96 412,-96 412,-132"/>
<text text-anchor="middle" x="385" y="-111.5" font-family="Helvetica,sans-Serif" font-size="10.00">fenton</text>
</a>
</g>
</g>
<!-- dir_e2b48c1924f76d147fe8f091e436ede5 -->
<g id="node4" class="node">
<title>dir_e2b48c1924f76d147fe8f091e436ede5</title>
<g id="a_node4"><a xlink:href="dir_e2b48c1924f76d147fe8f091e436ede5.html" target="_top" xlink:title="mbd">
<polygon fill="white" stroke="black" points="340,-132 286,-132 286,-96 340,-96 340,-132"/>
<text text-anchor="middle" x="313" y="-111.5" font-family="Helvetica,sans-Serif" font-size="10.00">mbd</text>
</a>
</g>
</g>
<!-- dir_68f57fbeb6ea790b41f939da47cea2e7 -->
<g id="node5" class="node">
<title>dir_68f57fbeb6ea790b41f939da47cea2e7</title>
<g id="a_node5"><a xlink:href="dir_68f57fbeb6ea790b41f939da47cea2e7.html" target="_top" xlink:title="MeshAdaptPUMI">
<polygon fill="white" stroke="black" points="267.5,-132 170.5,-132 170.5,-96 267.5,-96 267.5,-132"/>
<text text-anchor="middle" x="219" y="-111.5" font-family="Helvetica,sans-Serif" font-size="10.00">MeshAdaptPUMI</text>
</a>
</g>
</g>
<!-- dir_8363ac4e8703871621ac4c6b99fd7927 -->
<g id="node7" class="node">
<title>dir_8363ac4e8703871621ac4c6b99fd7927</title>
<g id="a_node7"><a xlink:href="dir_8363ac4e8703871621ac4c6b99fd7927.html" target="_top" xlink:title="richards">
<polygon fill="white" stroke="black" points="152,-132 96,-132 96,-96 152,-96 152,-132"/>
<text text-anchor="middle" x="124" y="-111.5" font-family="Helvetica,sans-Serif" font-size="10.00">richards</text>
</a>
</g>
</g>
<!-- dir_8363ac4e8703871621ac4c6b99fd7927&#45;&gt;dir_01ff30a23d48d438db9096f7ec5b51e5 -->
<g id="edge2" class="edge">
<title>dir_8363ac4e8703871621ac4c6b99fd7927&#45;&gt;dir_01ff30a23d48d438db9096f7ec5b51e5</title>
<path fill="none" stroke="black" d="M152.16,-100.23C155.47,-98.78 158.8,-97.34 162,-96 195.08,-82.11 233.17,-67.27 260.43,-56.83"/>
<polygon fill="black" stroke="black" points="261.86,-60.03 269.96,-53.19 259.37,-53.49 261.86,-60.03"/>
<g id="a_edge2&#45;headlabel"><a xlink:href="dir_000009_000004.html" target="_top" xlink:title="1">
<text text-anchor="middle" x="259.52" y="-61.46" font-family="Helvetica,sans-Serif" font-size="10.00">1</text>
</a>
</g>
</g>
<!-- dir_5f2af49ce699d1ca15102aad09ba1855 -->
<g id="node8" class="node">
<title>dir_5f2af49ce699d1ca15102aad09ba1855</title>
<g id="a_node8"><a xlink:href="dir_5f2af49ce699d1ca15102aad09ba1855.html" target="_top" xlink:title="tests">
<polygon fill="white" stroke="red" points="78,-132 24,-132 24,-96 78,-96 78,-132"/>
<text text-anchor="middle" x="51" y="-111.5" font-family="Helvetica,sans-Serif" font-size="10.00">tests</text>
</a>
</g>
</g>
</g>
</svg>
