<?xml version="1.0" encoding="UTF-8" standalone="no"?>
<!DOCTYPE svg PUBLIC "-//W3C//DTD SVG 1.1//EN"
 "http://www.w3.org/Graphics/SVG/1.1/DTD/svg11.dtd">
<!-- Generated by graphviz version 2.43.0 (0)
 -->
<!-- Title: equivalent_polynomials_utils.h Pages: 1 -->
<svg width="642pt" height="207pt"
 viewBox="0.00 0.00 642.00 207.00" xmlns="http://www.w3.org/2000/svg" xmlns:xlink="http://www.w3.org/1999/xlink">
<g id="graph0" class="graph" transform="scale(1 1) rotate(0) translate(4 203)">
<title>equivalent_polynomials_utils.h</title>
<polygon fill="white" stroke="transparent" points="-4,4 -4,-203 638,-203 638,4 -4,4"/>
<!-- Node1 -->
<g id="node1" class="node">
<title>Node1</title>
<g id="a_node1"><a xlink:title=" ">
<polygon fill="#bfbfbf" stroke="black" points="230,-168.5 230,-198.5 364,-198.5 364,-168.5 230,-168.5"/>
<text text-anchor="start" x="238" y="-186.5" font-family="Helvetica,sans-Serif" font-size="10.00">equivalent_polynomials</text>
<text text-anchor="middle" x="297" y="-175.5" font-family="Helvetica,sans-Serif" font-size="10.00">_utils.h</text>
</a>
</g>
</g>
<!-- Node2 -->
<g id="node2" class="node">
<title>Node2</title>
<g id="a_node2"><a xlink:href="equivalent__polynomials_8h.html" target="_top" xlink:title=" ">
<polygon fill="white" stroke="black" points="225.5,-112.5 225.5,-131.5 368.5,-131.5 368.5,-112.5 225.5,-112.5"/>
<text text-anchor="middle" x="297" y="-119.5" font-family="Helvetica,sans-Serif" font-size="10.00">equivalent_polynomials.h</text>
</a>
</g>
</g>
<!-- Node1&#45;&gt;Node2 -->
<g id="edge1" class="edge">
<title>Node1&#45;&gt;Node2</title>
<path fill="none" stroke="midnightblue" d="M297,-158.29C297,-148.86 297,-138.65 297,-131.66"/>
<polygon fill="midnightblue" stroke="midnightblue" points="293.5,-158.4 297,-168.4 300.5,-158.4 293.5,-158.4"/>
</g>
<!-- Node3 -->
<g id="node3" class="node">
<title>Node3</title>
<g id="a_node3"><a xlink:href="_a_d_r_8h.html" target="_top" xlink:title=" ">
<polygon fill="white" stroke="black" points="16.5,-56.5 16.5,-75.5 63.5,-75.5 63.5,-56.5 16.5,-56.5"/>
<text text-anchor="middle" x="40" y="-63.5" font-family="Helvetica,sans-Serif" font-size="10.00">ADR.h</text>
</a>
</g>
</g>
<!-- Node2&#45;&gt;Node3 -->
<g id="edge2" class="edge">
<title>Node2&#45;&gt;Node3</title>
<path fill="none" stroke="midnightblue" d="M243.3,-110.43C198.9,-101.58 134.26,-88.44 78,-76 73.37,-74.98 68.43,-73.84 63.69,-72.73"/>
<polygon fill="midnightblue" stroke="midnightblue" points="242.8,-113.9 253.29,-112.42 244.16,-107.03 242.8,-113.9"/>
</g>
<!-- Node5 -->
<g id="node5" class="node">
<title>Node5</title>
<g id="a_node5"><a xlink:href="_m_corr_8h.html" target="_top" xlink:title=" ">
<polygon fill="white" stroke="black" points="87,-56.5 87,-75.5 141,-75.5 141,-56.5 87,-56.5"/>
<text text-anchor="middle" x="114" y="-63.5" font-family="Helvetica,sans-Serif" font-size="10.00">MCorr.h</text>
</a>
</g>
</g>
<!-- Node2&#45;&gt;Node5 -->
<g id="edge4" class="edge">
<title>Node2&#45;&gt;Node5</title>
<path fill="none" stroke="midnightblue" d="M258.08,-109.51C222.89,-99.13 172.01,-84.12 141.07,-74.99"/>
<polygon fill="midnightblue" stroke="midnightblue" points="257.42,-112.97 268,-112.44 259.4,-106.26 257.42,-112.97"/>
</g>
<!-- Node7 -->
<g id="node7" class="node">
<title>Node7</title>
<g id="a_node7"><a xlink:href="_r_a_n_s2_p_8h.html" target="_top" xlink:title=" ">
<polygon fill="white" stroke="black" points="170.5,-56.5 170.5,-75.5 233.5,-75.5 233.5,-56.5 170.5,-56.5"/>
<text text-anchor="middle" x="202" y="-63.5" font-family="Helvetica,sans-Serif" font-size="10.00">RANS2P.h</text>
</a>
</g>
</g>
<!-- Node2&#45;&gt;Node7 -->
<g id="edge6" class="edge">
<title>Node2&#45;&gt;Node7</title>
<path fill="none" stroke="midnightblue" d="M272.68,-107.18C255.2,-97.24 232.17,-84.15 217.23,-75.65"/>
<polygon fill="midnightblue" stroke="midnightblue" points="271.31,-110.43 281.74,-112.32 274.77,-104.34 271.31,-110.43"/>
</g>
<!-- Node9 -->
<g id="node9" class="node">
<title>Node9</title>
<g id="a_node9"><a xlink:href="_r_a_n_s2_p2_d_8h.html" target="_top" xlink:title=" ">
<polygon fill="white" stroke="black" points="258,-56.5 258,-75.5 336,-75.5 336,-56.5 258,-56.5"/>
<text text-anchor="middle" x="297" y="-63.5" font-family="Helvetica,sans-Serif" font-size="10.00">RANS2P2D.h</text>
</a>
</g>
</g>
<!-- Node2&#45;&gt;Node9 -->
<g id="edge8" class="edge">
<title>Node2&#45;&gt;Node9</title>
<path fill="none" stroke="midnightblue" d="M297,-101.8C297,-92.91 297,-82.78 297,-75.75"/>
<polygon fill="midnightblue" stroke="midnightblue" points="293.5,-102.08 297,-112.08 300.5,-102.08 293.5,-102.08"/>
</g>
<!-- Node11 -->
<g id="node11" class="node">
<title>Node11</title>
<g id="a_node11"><a xlink:href="_r_a_n_s3_p_f_8h.html" target="_top" xlink:title=" ">
<polygon fill="white" stroke="black" points="359.5,-56.5 359.5,-75.5 428.5,-75.5 428.5,-56.5 359.5,-56.5"/>
<text text-anchor="middle" x="394" y="-63.5" font-family="Helvetica,sans-Serif" font-size="10.00">RANS3PF.h</text>
</a>
</g>
</g>
<!-- Node2&#45;&gt;Node11 -->
<g id="edge10" class="edge">
<title>Node2&#45;&gt;Node11</title>
<path fill="none" stroke="midnightblue" d="M321.34,-107.45C339.24,-97.48 363.05,-84.23 378.45,-75.65"/>
<polygon fill="midnightblue" stroke="midnightblue" points="319.62,-104.4 312.58,-112.32 323.02,-110.52 319.62,-104.4"/>
</g>
<!-- Node13 -->
<g id="node13" class="node">
<title>Node13</title>
<g id="a_node13"><a xlink:href="_r_a_n_s3_p_f2_d_8h.html" target="_top" xlink:title=" ">
<polygon fill="white" stroke="black" points="455,-56.5 455,-75.5 539,-75.5 539,-56.5 455,-56.5"/>
<text text-anchor="middle" x="497" y="-63.5" font-family="Helvetica,sans-Serif" font-size="10.00">RANS3PF2D.h</text>
</a>
</g>
</g>
<!-- Node2&#45;&gt;Node13 -->
<g id="edge12" class="edge">
<title>Node2&#45;&gt;Node13</title>
<path fill="none" stroke="midnightblue" d="M338.37,-109.83C376.14,-99.63 431.14,-84.78 465.46,-75.52"/>
<polygon fill="midnightblue" stroke="midnightblue" points="337.43,-106.46 328.69,-112.44 339.26,-113.22 337.43,-106.46"/>
</g>
<!-- Node15 -->
<g id="node15" class="node">
<title>Node15</title>
<g id="a_node15"><a xlink:href="_r_d_l_s_8h.html" target="_top" xlink:title=" ">
<polygon fill="white" stroke="black" points="566.5,-56.5 566.5,-75.5 617.5,-75.5 617.5,-56.5 566.5,-56.5"/>
<text text-anchor="middle" x="592" y="-63.5" font-family="Helvetica,sans-Serif" font-size="10.00">RDLS.h</text>
</a>
</g>
</g>
<!-- Node2&#45;&gt;Node15 -->
<g id="edge14" class="edge">
<title>Node2&#45;&gt;Node15</title>
<path fill="none" stroke="midnightblue" d="M356.76,-110.71C407.66,-101.84 482.72,-88.53 548,-76 553.97,-74.85 560.39,-73.57 566.43,-72.34"/>
<polygon fill="midnightblue" stroke="midnightblue" points="355.85,-107.31 346.6,-112.48 357.05,-114.21 355.85,-107.31"/>
</g>
<!-- Node4 -->
<g id="node4" class="node">
<title>Node4</title>
<g id="a_node4"><a xlink:href="_a_d_r_8cpp.html" target="_top" xlink:title=" ">
<polygon fill="white" stroke="black" points="0,-0.5 0,-19.5 58,-19.5 58,-0.5 0,-0.5"/>
<text text-anchor="middle" x="29" y="-7.5" font-family="Helvetica,sans-Serif" font-size="10.00">ADR.cpp</text>
</a>
</g>
</g>
<!-- Node3&#45;&gt;Node4 -->
<g id="edge3" class="edge">
<title>Node3&#45;&gt;Node4</title>
<path fill="none" stroke="midnightblue" d="M36.15,-46.1C34.32,-37.14 32.23,-26.86 30.78,-19.75"/>
<polygon fill="midnightblue" stroke="midnightblue" points="32.76,-46.98 38.18,-56.08 39.62,-45.59 32.76,-46.98"/>
</g>
<!-- Node6 -->
<g id="node6" class="node">
<title>Node6</title>
<g id="a_node6"><a xlink:href="_m_corr_8cpp.html" target="_top" xlink:title=" ">
<polygon fill="white" stroke="black" points="76.5,-0.5 76.5,-19.5 141.5,-19.5 141.5,-0.5 76.5,-0.5"/>
<text text-anchor="middle" x="109" y="-7.5" font-family="Helvetica,sans-Serif" font-size="10.00">MCorr.cpp</text>
</a>
</g>
</g>
<!-- Node5&#45;&gt;Node6 -->
<g id="edge5" class="edge">
<title>Node5&#45;&gt;Node6</title>
<path fill="none" stroke="midnightblue" d="M112.25,-46.1C111.42,-37.14 110.47,-26.86 109.81,-19.75"/>
<polygon fill="midnightblue" stroke="midnightblue" points="108.77,-46.45 113.17,-56.08 115.74,-45.8 108.77,-46.45"/>
</g>
<!-- Node8 -->
<g id="node8" class="node">
<title>Node8</title>
<g id="a_node8"><a xlink:href="_r_a_n_s2_p_8cpp.html" target="_top" xlink:title=" ">
<polygon fill="white" stroke="black" points="160,-0.5 160,-19.5 234,-19.5 234,-0.5 160,-0.5"/>
<text text-anchor="middle" x="197" y="-7.5" font-family="Helvetica,sans-Serif" font-size="10.00">RANS2P.cpp</text>
</a>
</g>
</g>
<!-- Node7&#45;&gt;Node8 -->
<g id="edge7" class="edge">
<title>Node7&#45;&gt;Node8</title>
<path fill="none" stroke="midnightblue" d="M200.25,-46.1C199.42,-37.14 198.47,-26.86 197.81,-19.75"/>
<polygon fill="midnightblue" stroke="midnightblue" points="196.77,-46.45 201.17,-56.08 203.74,-45.8 196.77,-46.45"/>
</g>
<!-- Node10 -->
<g id="node10" class="node">
<title>Node10</title>
<g id="a_node10"><a xlink:href="_r_a_n_s2_p2_d_8cpp.html" target="_top" xlink:title=" ">
<polygon fill="white" stroke="black" points="252.5,-0.5 252.5,-19.5 341.5,-19.5 341.5,-0.5 252.5,-0.5"/>
<text text-anchor="middle" x="297" y="-7.5" font-family="Helvetica,sans-Serif" font-size="10.00">RANS2P2D.cpp</text>
</a>
</g>
</g>
<!-- Node9&#45;&gt;Node10 -->
<g id="edge9" class="edge">
<title>Node9&#45;&gt;Node10</title>
<path fill="none" stroke="midnightblue" d="M297,-45.8C297,-36.91 297,-26.78 297,-19.75"/>
<polygon fill="midnightblue" stroke="midnightblue" points="293.5,-46.08 297,-56.08 300.5,-46.08 293.5,-46.08"/>
</g>
<!-- Node12 -->
<g id="node12" class="node">
<title>Node12</title>
<g id="a_node12"><a xlink:href="_r_a_n_s3_p_f_8cpp.html" target="_top" xlink:title=" ">
<polygon fill="white" stroke="black" points="360,-0.5 360,-19.5 440,-19.5 440,-0.5 360,-0.5"/>
<text text-anchor="middle" x="400" y="-7.5" font-family="Helvetica,sans-Serif" font-size="10.00">RANS3PF.cpp</text>
</a>
</g>
</g>
<!-- Node11&#45;&gt;Node12 -->
<g id="edge11" class="edge">
<title>Node11&#45;&gt;Node12</title>
<path fill="none" stroke="midnightblue" d="M396.1,-46.1C397.1,-37.14 398.24,-26.86 399.03,-19.75"/>
<polygon fill="midnightblue" stroke="midnightblue" points="392.62,-45.76 394.99,-56.08 399.57,-46.53 392.62,-45.76"/>
</g>
<!-- Node14 -->
<g id="node14" class="node">
<title>Node14</title>
<g id="a_node14"><a xlink:href="_r_a_n_s3_p_f2_d_8cpp.html" target="_top" xlink:title=" ">
<polygon fill="white" stroke="black" points="458.5,-0.5 458.5,-19.5 553.5,-19.5 553.5,-0.5 458.5,-0.5"/>
<text text-anchor="middle" x="506" y="-7.5" font-family="Helvetica,sans-Serif" font-size="10.00">RANS3PF2D.cpp</text>
</a>
</g>
</g>
<!-- Node13&#45;&gt;Node14 -->
<g id="edge13" class="edge">
<title>Node13&#45;&gt;Node14</title>
<path fill="none" stroke="midnightblue" d="M500.15,-46.1C501.64,-37.14 503.36,-26.86 504.54,-19.75"/>
<polygon fill="midnightblue" stroke="midnightblue" points="496.68,-45.64 498.49,-56.08 503.58,-46.79 496.68,-45.64"/>
</g>
<!-- Node16 -->
<g id="node16" class="node">
<title>Node16</title>
<g id="a_node16"><a xlink:href="_r_d_l_s_8cpp.html" target="_top" xlink:title=" ">
<polygon fill="white" stroke="black" points="572,-0.5 572,-19.5 634,-19.5 634,-0.5 572,-0.5"/>
<text text-anchor="middle" x="603" y="-7.5" font-family="Helvetica,sans-Serif" font-size="10.00">RDLS.cpp</text>
</a>
</g>
</g>
<!-- Node15&#45;&gt;Node16 -->
<g id="edge15" class="edge">
<title>Node15&#45;&gt;Node16</title>
<path fill="none" stroke="midnightblue" d="M595.85,-46.1C597.68,-37.14 599.77,-26.86 601.22,-19.75"/>
<polygon fill="midnightblue" stroke="midnightblue" points="592.38,-45.59 593.82,-56.08 599.24,-46.98 592.38,-45.59"/>
</g>
</g>
</svg>
