<?xml version="1.0" encoding="UTF-8" standalone="no"?>
<!DOCTYPE svg PUBLIC "-//W3C//DTD SVG 1.1//EN"
 "http://www.w3.org/Graphics/SVG/1.1/DTD/svg11.dtd">
<!-- Generated by graphviz version 2.50.0 (20211204.2007)
 -->
<!-- Title: equivalent_polynomials.h Pages: 1 -->
<svg width="638pt" height="140pt"
 viewBox="0.00 0.00 637.50 140.00" xmlns="http://www.w3.org/2000/svg" xmlns:xlink="http://www.w3.org/1999/xlink">
<g id="graph0" class="graph" transform="scale(1 1) rotate(0) translate(4 136)">
<title>equivalent_polynomials.h</title>
<polygon fill="white" stroke="transparent" points="-4,4 -4,-136 633.5,-136 633.5,4 -4,4"/>
<!-- Node1 -->
<g id="node1" class="node">
<title>Node1</title>
<g id="a_node1"><a xlink:title=" ">
<polygon fill="#bfbfbf" stroke="black" points="229.5,-112.5 229.5,-131.5 355.5,-131.5 355.5,-112.5 229.5,-112.5"/>
<text text-anchor="middle" x="292.5" y="-119.5" font-family="Helvetica,sans-Serif" font-size="10.00">equivalent_polynomials.h</text>
</a>
</g>
</g>
<!-- Node2 -->
<g id="node2" class="node">
<title>Node2</title>
<g id="a_node2"><a xlink:href="_a_d_r_8h.html" target="_top" xlink:title=" ">
<polygon fill="white" stroke="black" points="16,-56.5 16,-75.5 63,-75.5 63,-56.5 16,-56.5"/>
<text text-anchor="middle" x="39.5" y="-63.5" font-family="Helvetica,sans-Serif" font-size="10.00">ADR.h</text>
</a>
</g>
</g>
<!-- Node1&#45;&gt;Node2 -->
<g id="edge1" class="edge">
<title>Node1&#45;&gt;Node2</title>
<path fill="none" stroke="midnightblue" d="M239.52,-110.47C195.73,-101.65 131.96,-88.52 76.5,-76 72.24,-75.04 67.72,-73.98 63.36,-72.93"/>
<polygon fill="midnightblue" stroke="midnightblue" points="238.88,-113.92 249.38,-112.45 240.26,-107.05 238.88,-113.92"/>
</g>
<!-- Node4 -->
<g id="node4" class="node">
<title>Node4</title>
<g id="a_node4"><a xlink:href="_m_corr_8h.html" target="_top" xlink:title=" ">
<polygon fill="white" stroke="black" points="86,-56.5 86,-75.5 137,-75.5 137,-56.5 86,-56.5"/>
<text text-anchor="middle" x="111.5" y="-63.5" font-family="Helvetica,sans-Serif" font-size="10.00">MCorr.h</text>
</a>
</g>
</g>
<!-- Node1&#45;&gt;Node4 -->
<g id="edge3" class="edge">
<title>Node1&#45;&gt;Node4</title>
<path fill="none" stroke="midnightblue" d="M253.88,-109.48C218.64,-98.97 167.56,-83.72 137.12,-74.64"/>
<polygon fill="midnightblue" stroke="midnightblue" points="253.24,-112.94 263.82,-112.44 255.24,-106.23 253.24,-112.94"/>
</g>
<!-- Node6 -->
<g id="node6" class="node">
<title>Node6</title>
<g id="a_node6"><a xlink:href="_r_a_n_s2_p_8h.html" target="_top" xlink:title=" ">
<polygon fill="white" stroke="black" points="165.5,-56.5 165.5,-75.5 229.5,-75.5 229.5,-56.5 165.5,-56.5"/>
<text text-anchor="middle" x="197.5" y="-63.5" font-family="Helvetica,sans-Serif" font-size="10.00">RANS2P.h</text>
</a>
</g>
</g>
<!-- Node1&#45;&gt;Node6 -->
<g id="edge5" class="edge">
<title>Node1&#45;&gt;Node6</title>
<path fill="none" stroke="midnightblue" d="M268.18,-107.18C250.7,-97.24 227.67,-84.15 212.73,-75.65"/>
<polygon fill="midnightblue" stroke="midnightblue" points="266.81,-110.43 277.24,-112.32 270.27,-104.34 266.81,-110.43"/>
</g>
<!-- Node8 -->
<g id="node8" class="node">
<title>Node8</title>
<g id="a_node8"><a xlink:href="_r_a_n_s2_p2_d_8h.html" target="_top" xlink:title=" ">
<polygon fill="white" stroke="black" points="253.5,-56.5 253.5,-75.5 331.5,-75.5 331.5,-56.5 253.5,-56.5"/>
<text text-anchor="middle" x="292.5" y="-63.5" font-family="Helvetica,sans-Serif" font-size="10.00">RANS2P2D.h</text>
</a>
</g>
</g>
<!-- Node1&#45;&gt;Node8 -->
<g id="edge7" class="edge">
<title>Node1&#45;&gt;Node8</title>
<path fill="none" stroke="midnightblue" d="M292.5,-101.8C292.5,-92.91 292.5,-82.78 292.5,-75.75"/>
<polygon fill="midnightblue" stroke="midnightblue" points="289,-102.08 292.5,-112.08 296,-102.08 289,-102.08"/>
</g>
<!-- Node10 -->
<g id="node10" class="node">
<title>Node10</title>
<g id="a_node10"><a xlink:href="_r_a_n_s3_p_f_8h.html" target="_top" xlink:title=" ">
<polygon fill="white" stroke="black" points="354.5,-56.5 354.5,-75.5 424.5,-75.5 424.5,-56.5 354.5,-56.5"/>
<text text-anchor="middle" x="389.5" y="-63.5" font-family="Helvetica,sans-Serif" font-size="10.00">RANS3PF.h</text>
</a>
</g>
</g>
<!-- Node1&#45;&gt;Node10 -->
<g id="edge9" class="edge">
<title>Node1&#45;&gt;Node10</title>
<path fill="none" stroke="midnightblue" d="M316.84,-107.45C334.74,-97.48 358.55,-84.23 373.95,-75.65"/>
<polygon fill="midnightblue" stroke="midnightblue" points="315.12,-104.4 308.08,-112.32 318.52,-110.52 315.12,-104.4"/>
</g>
<!-- Node12 -->
<g id="node12" class="node">
<title>Node12</title>
<g id="a_node12"><a xlink:href="_r_a_n_s3_p_f2_d_8h.html" target="_top" xlink:title=" ">
<polygon fill="white" stroke="black" points="450.5,-56.5 450.5,-75.5 534.5,-75.5 534.5,-56.5 450.5,-56.5"/>
<text text-anchor="middle" x="492.5" y="-63.5" font-family="Helvetica,sans-Serif" font-size="10.00">RANS3PF2D.h</text>
</a>
</g>
</g>
<!-- Node1&#45;&gt;Node12 -->
<g id="edge11" class="edge">
<title>Node1&#45;&gt;Node12</title>
<path fill="none" stroke="midnightblue" d="M333.87,-109.83C371.64,-99.63 426.64,-84.78 460.96,-75.52"/>
<polygon fill="midnightblue" stroke="midnightblue" points="332.93,-106.46 324.19,-112.44 334.76,-113.22 332.93,-106.46"/>
</g>
<!-- Node14 -->
<g id="node14" class="node">
<title>Node14</title>
<g id="a_node14"><a xlink:href="_r_d_l_s_8h.html" target="_top" xlink:title=" ">
<polygon fill="white" stroke="black" points="562.5,-56.5 562.5,-75.5 614.5,-75.5 614.5,-56.5 562.5,-56.5"/>
<text text-anchor="middle" x="588.5" y="-63.5" font-family="Helvetica,sans-Serif" font-size="10.00">RDLS.h</text>
</a>
</g>
</g>
<!-- Node1&#45;&gt;Node14 -->
<g id="edge13" class="edge">
<title>Node1&#45;&gt;Node14</title>
<path fill="none" stroke="midnightblue" d="M351.77,-110.72C402.67,-101.81 477.98,-88.42 543.5,-76 549.61,-74.84 556.17,-73.55 562.34,-72.32"/>
<polygon fill="midnightblue" stroke="midnightblue" points="350.86,-107.32 341.61,-112.49 352.06,-114.22 350.86,-107.32"/>
</g>
<!-- Node3 -->
<g id="node3" class="node">
<title>Node3</title>
<g id="a_node3"><a xlink:href="_a_d_r_8cpp.html" target="_top" xlink:title=" ">
<polygon fill="white" stroke="black" points="0,-0.5 0,-19.5 57,-19.5 57,-0.5 0,-0.5"/>
<text text-anchor="middle" x="28.5" y="-7.5" font-family="Helvetica,sans-Serif" font-size="10.00">ADR.cpp</text>
</a>
</g>
</g>
<!-- Node2&#45;&gt;Node3 -->
<g id="edge2" class="edge">
<title>Node2&#45;&gt;Node3</title>
<path fill="none" stroke="midnightblue" d="M35.65,-46.1C33.82,-37.14 31.73,-26.86 30.28,-19.75"/>
<polygon fill="midnightblue" stroke="midnightblue" points="32.26,-46.98 37.68,-56.08 39.12,-45.59 32.26,-46.98"/>
</g>
<!-- Node5 -->
<g id="node5" class="node">
<title>Node5</title>
<g id="a_node5"><a xlink:href="_m_corr_8cpp.html" target="_top" xlink:title=" ">
<polygon fill="white" stroke="black" points="75.5,-0.5 75.5,-19.5 137.5,-19.5 137.5,-0.5 75.5,-0.5"/>
<text text-anchor="middle" x="106.5" y="-7.5" font-family="Helvetica,sans-Serif" font-size="10.00">MCorr.cpp</text>
</a>
</g>
</g>
<!-- Node4&#45;&gt;Node5 -->
<g id="edge4" class="edge">
<title>Node4&#45;&gt;Node5</title>
<path fill="none" stroke="midnightblue" d="M109.75,-46.1C108.92,-37.14 107.97,-26.86 107.31,-19.75"/>
<polygon fill="midnightblue" stroke="midnightblue" points="106.27,-46.45 110.67,-56.08 113.24,-45.8 106.27,-46.45"/>
</g>
<!-- Node7 -->
<g id="node7" class="node">
<title>Node7</title>
<g id="a_node7"><a xlink:href="_r_a_n_s2_p_8cpp.html" target="_top" xlink:title=" ">
<polygon fill="white" stroke="black" points="155.5,-0.5 155.5,-19.5 229.5,-19.5 229.5,-0.5 155.5,-0.5"/>
<text text-anchor="middle" x="192.5" y="-7.5" font-family="Helvetica,sans-Serif" font-size="10.00">RANS2P.cpp</text>
</a>
</g>
</g>
<!-- Node6&#45;&gt;Node7 -->
<g id="edge6" class="edge">
<title>Node6&#45;&gt;Node7</title>
<path fill="none" stroke="midnightblue" d="M195.75,-46.1C194.92,-37.14 193.97,-26.86 193.31,-19.75"/>
<polygon fill="midnightblue" stroke="midnightblue" points="192.27,-46.45 196.67,-56.08 199.24,-45.8 192.27,-46.45"/>
</g>
<!-- Node9 -->
<g id="node9" class="node">
<title>Node9</title>
<g id="a_node9"><a xlink:href="_r_a_n_s2_p2_d_8cpp.html" target="_top" xlink:title=" ">
<polygon fill="white" stroke="black" points="248,-0.5 248,-19.5 337,-19.5 337,-0.5 248,-0.5"/>
<text text-anchor="middle" x="292.5" y="-7.5" font-family="Helvetica,sans-Serif" font-size="10.00">RANS2P2D.cpp</text>
</a>
</g>
</g>
<!-- Node8&#45;&gt;Node9 -->
<g id="edge8" class="edge">
<title>Node8&#45;&gt;Node9</title>
<path fill="none" stroke="midnightblue" d="M292.5,-45.8C292.5,-36.91 292.5,-26.78 292.5,-19.75"/>
<polygon fill="midnightblue" stroke="midnightblue" points="289,-46.08 292.5,-56.08 296,-46.08 289,-46.08"/>
</g>
<!-- Node11 -->
<g id="node11" class="node">
<title>Node11</title>
<g id="a_node11"><a xlink:href="_r_a_n_s3_p_f_8cpp.html" target="_top" xlink:title=" ">
<polygon fill="white" stroke="black" points="355.5,-0.5 355.5,-19.5 435.5,-19.5 435.5,-0.5 355.5,-0.5"/>
<text text-anchor="middle" x="395.5" y="-7.5" font-family="Helvetica,sans-Serif" font-size="10.00">RANS3PF.cpp</text>
</a>
</g>
</g>
<!-- Node10&#45;&gt;Node11 -->
<g id="edge10" class="edge">
<title>Node10&#45;&gt;Node11</title>
<path fill="none" stroke="midnightblue" d="M391.6,-46.1C392.6,-37.14 393.74,-26.86 394.53,-19.75"/>
<polygon fill="midnightblue" stroke="midnightblue" points="388.12,-45.76 390.49,-56.08 395.07,-46.53 388.12,-45.76"/>
</g>
<!-- Node13 -->
<g id="node13" class="node">
<title>Node13</title>
<g id="a_node13"><a xlink:href="_r_a_n_s3_p_f2_d_8cpp.html" target="_top" xlink:title=" ">
<polygon fill="white" stroke="black" points="454,-0.5 454,-19.5 549,-19.5 549,-0.5 454,-0.5"/>
<text text-anchor="middle" x="501.5" y="-7.5" font-family="Helvetica,sans-Serif" font-size="10.00">RANS3PF2D.cpp</text>
</a>
</g>
</g>
<!-- Node12&#45;&gt;Node13 -->
<g id="edge12" class="edge">
<title>Node12&#45;&gt;Node13</title>
<path fill="none" stroke="midnightblue" d="M495.65,-46.1C497.14,-37.14 498.86,-26.86 500.04,-19.75"/>
<polygon fill="midnightblue" stroke="midnightblue" points="492.18,-45.64 493.99,-56.08 499.08,-46.79 492.18,-45.64"/>
</g>
<!-- Node15 -->
<g id="node15" class="node">
<title>Node15</title>
<g id="a_node15"><a xlink:href="_r_d_l_s_8cpp.html" target="_top" xlink:title=" ">
<polygon fill="white" stroke="black" points="567.5,-0.5 567.5,-19.5 629.5,-19.5 629.5,-0.5 567.5,-0.5"/>
<text text-anchor="middle" x="598.5" y="-7.5" font-family="Helvetica,sans-Serif" font-size="10.00">RDLS.cpp</text>
</a>
</g>
</g>
<!-- Node14&#45;&gt;Node15 -->
<g id="edge14" class="edge">
<title>Node14&#45;&gt;Node15</title>
<path fill="none" stroke="midnightblue" d="M592,-46.1C593.66,-37.14 595.56,-26.86 596.88,-19.75"/>
<polygon fill="midnightblue" stroke="midnightblue" points="588.53,-45.61 590.15,-56.08 595.41,-46.89 588.53,-45.61"/>
</g>
</g>
</svg>
