<?xml version="1.0" encoding="UTF-8" standalone="no"?>
<!DOCTYPE svg PUBLIC "-//W3C//DTD SVG 1.1//EN"
 "http://www.w3.org/Graphics/SVG/1.1/DTD/svg11.dtd">
<!-- Generated by graphviz version 2.40.1 (20161225.0304)
 -->
<!-- Title: equivalent_polynomials_coefficients.h Pages: 1 -->
<svg width="642pt" height="207pt"
 viewBox="0.00 0.00 641.50 207.00" xmlns="http://www.w3.org/2000/svg" xmlns:xlink="http://www.w3.org/1999/xlink">
<g id="graph0" class="graph" transform="scale(1 1) rotate(0) translate(4 203)">
<title>equivalent_polynomials_coefficients.h</title>
<polygon fill="#ffffff" stroke="transparent" points="-4,4 -4,-203 637.5,-203 637.5,4 -4,4"/>
<!-- Node1 -->
<g id="node1" class="node">
<title>Node1</title>
<polygon fill="#bfbfbf" stroke="#000000" points="235.5,-168.5 235.5,-198.5 353.5,-198.5 353.5,-168.5 235.5,-168.5"/>
<text text-anchor="start" x="243.5" y="-186.5" font-family="Helvetica,sans-Serif" font-size="10.00" fill="#000000">equivalent_polynomials</text>
<text text-anchor="middle" x="294.5" y="-175.5" font-family="Helvetica,sans-Serif" font-size="10.00" fill="#000000">_coefficients.h</text>
</g>
<!-- Node2 -->
<g id="node2" class="node">
<title>Node2</title>
<g id="a_node2"><a xlink:href="equivalent__polynomials_8h.html" target="_top" xlink:title="equivalent_polynomials.h">
<polygon fill="#ffffff" stroke="#000000" points="231.5,-112.5 231.5,-131.5 357.5,-131.5 357.5,-112.5 231.5,-112.5"/>
<text text-anchor="middle" x="294.5" y="-119.5" font-family="Helvetica,sans-Serif" font-size="10.00" fill="#000000">equivalent_polynomials.h</text>
</a>
</g>
</g>
<!-- Node1&#45;&gt;Node2 -->
<g id="edge1" class="edge">
<title>Node1&#45;&gt;Node2</title>
<path fill="none" stroke="#191970" d="M294.5,-158.2849C294.5,-148.9858 294.5,-138.9883 294.5,-131.8469"/>
<polygon fill="#191970" stroke="#191970" points="291.0001,-158.2977 294.5,-168.2977 298.0001,-158.2978 291.0001,-158.2977"/>
</g>
<!-- Node3 -->
<g id="node3" class="node">
<title>Node3</title>
<g id="a_node3"><a xlink:href="_a_d_r_8h.html" target="_top" xlink:title="ADR.h">
<polygon fill="#ffffff" stroke="#000000" points="15,-56.5 15,-75.5 62,-75.5 62,-56.5 15,-56.5"/>
<text text-anchor="middle" x="38.5" y="-63.5" font-family="Helvetica,sans-Serif" font-size="10.00" fill="#000000">ADR.h</text>
</a>
</g>
</g>
<!-- Node2&#45;&gt;Node3 -->
<g id="edge2" class="edge">
<title>Node2&#45;&gt;Node3</title>
<path fill="none" stroke="#191970" d="M235.9141,-110.4545C191.9264,-101.588 130.2747,-88.7409 76.5,-76 71.8534,-74.8991 66.9067,-73.6525 62.1714,-72.4223"/>
<polygon fill="#191970" stroke="#191970" points="235.3663,-113.9143 245.8597,-112.452 236.7447,-107.0513 235.3663,-113.9143"/>
</g>
<!-- Node5 -->
<g id="node5" class="node">
<title>Node5</title>
<g id="a_node5"><a xlink:href="_m_corr_8h.html" target="_top" xlink:title="MCorr.h">
<polygon fill="#ffffff" stroke="#000000" points="85.5,-56.5 85.5,-75.5 137.5,-75.5 137.5,-56.5 85.5,-56.5"/>
<text text-anchor="middle" x="111.5" y="-63.5" font-family="Helvetica,sans-Serif" font-size="10.00" fill="#000000">MCorr.h</text>
</a>
</g>
</g>
<!-- Node2&#45;&gt;Node5 -->
<g id="edge4" class="edge">
<title>Node2&#45;&gt;Node5</title>
<path fill="none" stroke="#191970" d="M253.4506,-109.4384C217.9602,-98.578 167.7384,-83.2096 137.5228,-73.9633"/>
<polygon fill="#191970" stroke="#191970" points="252.4547,-112.7938 263.0412,-112.3733 254.5031,-106.1002 252.4547,-112.7938"/>
</g>
<!-- Node7 -->
<g id="node7" class="node">
<title>Node7</title>
<g id="a_node7"><a xlink:href="_r_a_n_s2_p_8h.html" target="_top" xlink:title="RANS2P.h">
<polygon fill="#ffffff" stroke="#000000" points="166,-56.5 166,-75.5 231,-75.5 231,-56.5 166,-56.5"/>
<text text-anchor="middle" x="198.5" y="-63.5" font-family="Helvetica,sans-Serif" font-size="10.00" fill="#000000">RANS2P.h</text>
</a>
</g>
</g>
<!-- Node2&#45;&gt;Node7 -->
<g id="edge6" class="edge">
<title>Node2&#45;&gt;Node7</title>
<path fill="none" stroke="#191970" d="M268.8654,-107.0465C251.7841,-97.0824 229.836,-84.2794 215.0303,-75.6427"/>
<polygon fill="#191970" stroke="#191970" points="267.3767,-110.23 277.7781,-112.2455 270.9038,-104.1836 267.3767,-110.23"/>
</g>
<!-- Node9 -->
<g id="node9" class="node">
<title>Node9</title>
<g id="a_node9"><a xlink:href="_r_a_n_s2_p2_d_8h.html" target="_top" xlink:title="RANS2P2D.h">
<polygon fill="#ffffff" stroke="#000000" points="255.5,-56.5 255.5,-75.5 333.5,-75.5 333.5,-56.5 255.5,-56.5"/>
<text text-anchor="middle" x="294.5" y="-63.5" font-family="Helvetica,sans-Serif" font-size="10.00" fill="#000000">RANS2P2D.h</text>
</a>
</g>
</g>
<!-- Node2&#45;&gt;Node9 -->
<g id="edge8" class="edge">
<title>Node2&#45;&gt;Node9</title>
<path fill="none" stroke="#191970" d="M294.5,-102.1575C294.5,-93.155 294.5,-82.9199 294.5,-75.6427"/>
<polygon fill="#191970" stroke="#191970" points="291.0001,-102.2455 294.5,-112.2455 298.0001,-102.2456 291.0001,-102.2455"/>
</g>
<!-- Node11 -->
<g id="node11" class="node">
<title>Node11</title>
<g id="a_node11"><a xlink:href="_r_a_n_s3_p_f_8h.html" target="_top" xlink:title="RANS3PF.h">
<polygon fill="#ffffff" stroke="#000000" points="357,-56.5 357,-75.5 428,-75.5 428,-56.5 357,-56.5"/>
<text text-anchor="middle" x="392.5" y="-63.5" font-family="Helvetica,sans-Serif" font-size="10.00" fill="#000000">RANS3PF.h</text>
</a>
</g>
</g>
<!-- Node2&#45;&gt;Node11 -->
<g id="edge10" class="edge">
<title>Node2&#45;&gt;Node11</title>
<path fill="none" stroke="#191970" d="M320.6686,-107.0465C338.1058,-97.0824 360.5111,-84.2794 375.6253,-75.6427"/>
<polygon fill="#191970" stroke="#191970" points="318.5162,-104.2453 311.5703,-112.2455 321.9892,-110.323 318.5162,-104.2453"/>
</g>
<!-- Node13 -->
<g id="node13" class="node">
<title>Node13</title>
<g id="a_node13"><a xlink:href="_r_a_n_s3_p_f2_d_8h.html" target="_top" xlink:title="RANS3PF2D.h">
<polygon fill="#ffffff" stroke="#000000" points="454.5,-56.5 454.5,-75.5 538.5,-75.5 538.5,-56.5 454.5,-56.5"/>
<text text-anchor="middle" x="496.5" y="-63.5" font-family="Helvetica,sans-Serif" font-size="10.00" fill="#000000">RANS3PF2D.h</text>
</a>
</g>
</g>
<!-- Node2&#45;&gt;Node13 -->
<g id="edge12" class="edge">
<title>Node2&#45;&gt;Node13</title>
<path fill="none" stroke="#191970" d="M339.2711,-109.5882C376.3838,-99.2996 428.3629,-84.8895 462.2281,-75.5011"/>
<polygon fill="#191970" stroke="#191970" points="337.9265,-106.3289 329.225,-112.3733 339.7966,-113.0745 337.9265,-106.3289"/>
</g>
<!-- Node15 -->
<g id="node15" class="node">
<title>Node15</title>
<g id="a_node15"><a xlink:href="_r_d_l_s_8h.html" target="_top" xlink:title="RDLS.h">
<polygon fill="#ffffff" stroke="#000000" points="566.5,-56.5 566.5,-75.5 618.5,-75.5 618.5,-56.5 566.5,-56.5"/>
<text text-anchor="middle" x="592.5" y="-63.5" font-family="Helvetica,sans-Serif" font-size="10.00" fill="#000000">RDLS.h</text>
</a>
</g>
</g>
<!-- Node2&#45;&gt;Node15 -->
<g id="edge14" class="edge">
<title>Node2&#45;&gt;Node15</title>
<path fill="none" stroke="#191970" d="M360.3245,-110.7533C411.4651,-101.8413 484.1159,-88.7999 547.5,-76 553.6189,-74.7643 560.1866,-73.3533 566.3617,-71.9885"/>
<polygon fill="#191970" stroke="#191970" points="359.6454,-107.3188 350.3924,-112.4794 360.844,-114.2154 359.6454,-107.3188"/>
</g>
<!-- Node4 -->
<g id="node4" class="node">
<title>Node4</title>
<g id="a_node4"><a xlink:href="_a_d_r_8cpp.html" target="_top" xlink:title="ADR.cpp">
<polygon fill="#ffffff" stroke="#000000" points="0,-.5 0,-19.5 57,-19.5 57,-.5 0,-.5"/>
<text text-anchor="middle" x="28.5" y="-7.5" font-family="Helvetica,sans-Serif" font-size="10.00" fill="#000000">ADR.cpp</text>
</a>
</g>
</g>
<!-- Node3&#45;&gt;Node4 -->
<g id="edge3" class="edge">
<title>Node3&#45;&gt;Node4</title>
<path fill="none" stroke="#191970" d="M34.9567,-46.1575C33.3491,-37.155 31.5214,-26.9199 30.2219,-19.6427"/>
<polygon fill="#191970" stroke="#191970" points="31.5546,-47.0166 36.7581,-56.2455 38.4456,-45.786 31.5546,-47.0166"/>
</g>
<!-- Node6 -->
<g id="node6" class="node">
<title>Node6</title>
<g id="a_node6"><a xlink:href="_m_corr_8cpp.html" target="_top" xlink:title="MCorr.cpp">
<polygon fill="#ffffff" stroke="#000000" points="75.5,-.5 75.5,-19.5 137.5,-19.5 137.5,-.5 75.5,-.5"/>
<text text-anchor="middle" x="106.5" y="-7.5" font-family="Helvetica,sans-Serif" font-size="10.00" fill="#000000">MCorr.cpp</text>
</a>
</g>
</g>
<!-- Node5&#45;&gt;Node6 -->
<g id="edge5" class="edge">
<title>Node5&#45;&gt;Node6</title>
<path fill="none" stroke="#191970" d="M109.7283,-46.1575C108.9246,-37.155 108.0107,-26.9199 107.361,-19.6427"/>
<polygon fill="#191970" stroke="#191970" points="106.2535,-46.5965 110.6291,-56.2455 113.2258,-45.9739 106.2535,-46.5965"/>
</g>
<!-- Node8 -->
<g id="node8" class="node">
<title>Node8</title>
<g id="a_node8"><a xlink:href="_r_a_n_s2_p_8cpp.html" target="_top" xlink:title="RANS2P.cpp">
<polygon fill="#ffffff" stroke="#000000" points="155.5,-.5 155.5,-19.5 231.5,-19.5 231.5,-.5 155.5,-.5"/>
<text text-anchor="middle" x="193.5" y="-7.5" font-family="Helvetica,sans-Serif" font-size="10.00" fill="#000000">RANS2P.cpp</text>
</a>
</g>
</g>
<!-- Node7&#45;&gt;Node8 -->
<g id="edge7" class="edge">
<title>Node7&#45;&gt;Node8</title>
<path fill="none" stroke="#191970" d="M196.7283,-46.1575C195.9246,-37.155 195.0107,-26.9199 194.361,-19.6427"/>
<polygon fill="#191970" stroke="#191970" points="193.2535,-46.5965 197.6291,-56.2455 200.2258,-45.9739 193.2535,-46.5965"/>
</g>
<!-- Node10 -->
<g id="node10" class="node">
<title>Node10</title>
<g id="a_node10"><a xlink:href="_r_a_n_s2_p2_d_8cpp.html" target="_top" xlink:title="RANS2P2D.cpp">
<polygon fill="#ffffff" stroke="#000000" points="250,-.5 250,-19.5 339,-19.5 339,-.5 250,-.5"/>
<text text-anchor="middle" x="294.5" y="-7.5" font-family="Helvetica,sans-Serif" font-size="10.00" fill="#000000">RANS2P2D.cpp</text>
</a>
</g>
</g>
<!-- Node9&#45;&gt;Node10 -->
<g id="edge9" class="edge">
<title>Node9&#45;&gt;Node10</title>
<path fill="none" stroke="#191970" d="M294.5,-46.1575C294.5,-37.155 294.5,-26.9199 294.5,-19.6427"/>
<polygon fill="#191970" stroke="#191970" points="291.0001,-46.2455 294.5,-56.2455 298.0001,-46.2456 291.0001,-46.2455"/>
</g>
<!-- Node12 -->
<g id="node12" class="node">
<title>Node12</title>
<g id="a_node12"><a xlink:href="_r_a_n_s3_p_f_8cpp.html" target="_top" xlink:title="RANS3PF.cpp">
<polygon fill="#ffffff" stroke="#000000" points="357.5,-.5 357.5,-19.5 439.5,-19.5 439.5,-.5 357.5,-.5"/>
<text text-anchor="middle" x="398.5" y="-7.5" font-family="Helvetica,sans-Serif" font-size="10.00" fill="#000000">RANS3PF.cpp</text>
</a>
</g>
</g>
<!-- Node11&#45;&gt;Node12 -->
<g id="edge11" class="edge">
<title>Node11&#45;&gt;Node12</title>
<path fill="none" stroke="#191970" d="M394.626,-46.1575C395.5905,-37.155 396.6872,-26.9199 397.4669,-19.6427"/>
<polygon fill="#191970" stroke="#191970" points="391.1305,-45.9296 393.5451,-56.2455 398.0906,-46.6753 391.1305,-45.9296"/>
</g>
<!-- Node14 -->
<g id="node14" class="node">
<title>Node14</title>
<g id="a_node14"><a xlink:href="_r_a_n_s3_p_f2_d_8cpp.html" target="_top" xlink:title="RANS3PF2D.cpp">
<polygon fill="#ffffff" stroke="#000000" points="458,-.5 458,-19.5 553,-19.5 553,-.5 458,-.5"/>
<text text-anchor="middle" x="505.5" y="-7.5" font-family="Helvetica,sans-Serif" font-size="10.00" fill="#000000">RANS3PF2D.cpp</text>
</a>
</g>
</g>
<!-- Node13&#45;&gt;Node14 -->
<g id="edge13" class="edge">
<title>Node13&#45;&gt;Node14</title>
<path fill="none" stroke="#191970" d="M499.689,-46.1575C501.1358,-37.155 502.7807,-26.9199 503.9503,-19.6427"/>
<polygon fill="#191970" stroke="#191970" points="496.1989,-45.8168 498.0677,-56.2455 503.1102,-46.9276 496.1989,-45.8168"/>
</g>
<!-- Node16 -->
<g id="node16" class="node">
<title>Node16</title>
<g id="a_node16"><a xlink:href="_r_d_l_s_8cpp.html" target="_top" xlink:title="RDLS.cpp">
<polygon fill="#ffffff" stroke="#000000" points="571.5,-.5 571.5,-19.5 633.5,-19.5 633.5,-.5 571.5,-.5"/>
<text text-anchor="middle" x="602.5" y="-7.5" font-family="Helvetica,sans-Serif" font-size="10.00" fill="#000000">RDLS.cpp</text>
</a>
</g>
</g>
<!-- Node15&#45;&gt;Node16 -->
<g id="edge15" class="edge">
<title>Node15&#45;&gt;Node16</title>
<path fill="none" stroke="#191970" d="M596.0433,-46.1575C597.6509,-37.155 599.4786,-26.9199 600.7781,-19.6427"/>
<polygon fill="#191970" stroke="#191970" points="592.5544,-45.786 594.2419,-56.2455 599.4454,-47.0166 592.5544,-45.786"/>
</g>
</g>
</svg>
