<?xml version="1.0" encoding="UTF-8" standalone="no"?>
<!DOCTYPE svg PUBLIC "-//W3C//DTD SVG 1.1//EN"
 "http://www.w3.org/Graphics/SVG/1.1/DTD/svg11.dtd">
<!-- Generated by graphviz version 2.40.1 (20161225.0304)
 -->
<!-- Title: equivalent_polynomials.h Pages: 1 -->
<svg width="464pt" height="95pt"
 viewBox="0.00 0.00 464.00 95.00" xmlns="http://www.w3.org/2000/svg" xmlns:xlink="http://www.w3.org/1999/xlink">
<g id="graph0" class="graph" transform="scale(1 1) rotate(0) translate(4 91)">
<title>equivalent_polynomials.h</title>
<polygon fill="#ffffff" stroke="transparent" points="-4,4 -4,-91 460,-91 460,4 -4,4"/>
<!-- Node0 -->
<g id="node1" class="node">
<title>Node0</title>
<polygon fill="#bfbfbf" stroke="#000000" points="94,-67.5 94,-86.5 220,-86.5 220,-67.5 94,-67.5"/>
<text text-anchor="middle" x="157" y="-74.5" font-family="Helvetica,sans-Serif" font-size="10.00" fill="#000000">equivalent_polynomials.h</text>
</g>
<!-- Node1 -->
<g id="node2" class="node">
<title>Node1</title>
<polygon fill="#ffffff" stroke="#bfbfbf" points="0,-6 0,-25 44,-25 44,-6 0,-6"/>
<text text-anchor="middle" x="22" y="-13" font-family="Helvetica,sans-Serif" font-size="10.00" fill="#000000">cmath</text>
</g>
<!-- Node0&#45;&gt;Node1 -->
<g id="edge1" class="edge">
<title>Node0&#45;&gt;Node1</title>
<path fill="none" stroke="#191970" d="M134.5458,-67.4322C113.3885,-58.3313 80.8648,-44.1197 53,-31 52.0201,-30.5386 51.0247,-30.0655 50.0209,-29.5846"/>
<polygon fill="#191970" stroke="#191970" points="51.4696,-26.397 40.9482,-25.1513 48.3963,-32.6863 51.4696,-26.397"/>
</g>
<!-- Node2 -->
<g id="node3" class="node">
<title>Node2</title>
<polygon fill="#ffffff" stroke="#bfbfbf" points="62.5,-6 62.5,-25 111.5,-25 111.5,-6 62.5,-6"/>
<text text-anchor="middle" x="87" y="-13" font-family="Helvetica,sans-Serif" font-size="10.00" fill="#000000">cassert</text>
</g>
<!-- Node0&#45;&gt;Node2 -->
<g id="edge2" class="edge">
<title>Node0&#45;&gt;Node2</title>
<path fill="none" stroke="#191970" d="M146.0625,-67.3906C135.338,-57.9683 118.7713,-43.4134 105.9099,-32.1137"/>
<polygon fill="#191970" stroke="#191970" points="107.9143,-29.2158 98.0917,-25.2449 103.2941,-34.4745 107.9143,-29.2158"/>
</g>
<!-- Node3 -->
<g id="node4" class="node">
<title>Node3</title>
<polygon fill="#ffffff" stroke="#bfbfbf" points="130,-6 130,-25 184,-25 184,-6 130,-6"/>
<text text-anchor="middle" x="157" y="-13" font-family="Helvetica,sans-Serif" font-size="10.00" fill="#000000">iostream</text>
</g>
<!-- Node0&#45;&gt;Node3 -->
<g id="edge3" class="edge">
<title>Node0&#45;&gt;Node3</title>
<path fill="none" stroke="#191970" d="M157,-67.3906C157,-58.8657 157,-46.1392 157,-35.4235"/>
<polygon fill="#191970" stroke="#191970" points="160.5001,-35.2448 157,-25.2449 153.5001,-35.2449 160.5001,-35.2448"/>
</g>
<!-- Node4 -->
<g id="node5" class="node">
<title>Node4</title>
<g id="a_node5"><a xlink:href="equivalent__polynomials__coefficients_8h.html" target="_top" xlink:title="equivalent_polynomials\l_coefficients.h">
<polygon fill="#ffffff" stroke="#000000" points="202,-.5 202,-30.5 320,-30.5 320,-.5 202,-.5"/>
<text text-anchor="start" x="210" y="-18.5" font-family="Helvetica,sans-Serif" font-size="10.00" fill="#000000">equivalent_polynomials</text>
<text text-anchor="middle" x="261" y="-7.5" font-family="Helvetica,sans-Serif" font-size="10.00" fill="#000000">_coefficients.h</text>
</a>
</g>
</g>
<!-- Node0&#45;&gt;Node4 -->
<g id="edge4" class="edge">
<title>Node0&#45;&gt;Node4</title>
<path fill="none" stroke="#191970" d="M173.25,-67.3906C187.4555,-58.9903 208.5599,-46.5103 226.5117,-35.8945"/>
<polygon fill="#191970" stroke="#191970" points="228.7327,-38.6474 235.5587,-30.5446 225.1696,-32.622 228.7327,-38.6474"/>
</g>
<!-- Node5 -->
<g id="node6" class="node">
<title>Node5</title>
<g id="a_node6"><a xlink:href="equivalent__polynomials__utils_8h.html" target="_top" xlink:title="equivalent_polynomials\l_utils.h">
<polygon fill="#ffffff" stroke="#000000" points="338,-.5 338,-30.5 456,-30.5 456,-.5 338,-.5"/>
<text text-anchor="start" x="346" y="-18.5" font-family="Helvetica,sans-Serif" font-size="10.00" fill="#000000">equivalent_polynomials</text>
<text text-anchor="middle" x="397" y="-7.5" font-family="Helvetica,sans-Serif" font-size="10.00" fill="#000000">_utils.h</text>
</a>
</g>
</g>
<!-- Node0&#45;&gt;Node5 -->
<g id="edge5" class="edge">
<title>Node0&#45;&gt;Node5</title>
<path fill="none" stroke="#191970" d="M194.2367,-67.4581C229.9791,-58.2991 284.8213,-44.2458 328.4612,-33.0631"/>
<polygon fill="#191970" stroke="#191970" points="329.3392,-36.4512 338.1574,-30.5784 327.6015,-29.6703 329.3392,-36.4512"/>
</g>
</g>
</svg>
