<?xml version="1.0" encoding="UTF-8" standalone="no"?>
<!DOCTYPE svg PUBLIC "-//W3C//DTD SVG 1.1//EN"
 "http://www.w3.org/Graphics/SVG/1.1/DTD/svg11.dtd">
<!-- Generated by graphviz version 2.44.1 (20200629.0846)
 -->
<!-- Title: equivalent_polynomials.h Pages: 1 -->
<svg width="392pt" height="95pt"
 viewBox="0.00 0.00 392.00 95.00" xmlns="http://www.w3.org/2000/svg" xmlns:xlink="http://www.w3.org/1999/xlink">
<g id="graph0" class="graph" transform="scale(1 1) rotate(0) translate(4 91)">
<title>equivalent_polynomials.h</title>
<polygon fill="white" stroke="transparent" points="-4,4 -4,-91 388,-91 388,4 -4,4"/>
<!-- Node1 -->
<g id="node1" class="node">
<title>Node1</title>
<g id="a_node1"><a xlink:title=" ">
<polygon fill="#bfbfbf" stroke="black" points="75,-67.5 75,-86.5 201,-86.5 201,-67.5 75,-67.5"/>
<text text-anchor="middle" x="138" y="-74.5" font-family="Helvetica,sans-Serif" font-size="10.00">equivalent_polynomials.h</text>
</a>
</g>
</g>
<!-- Node2 -->
<g id="node2" class="node">
<title>Node2</title>
<g id="a_node2"><a xlink:title=" ">
<polygon fill="white" stroke="#bfbfbf" points="0,-6 0,-25 44,-25 44,-6 0,-6"/>
<text text-anchor="middle" x="22" y="-13" font-family="Helvetica,sans-Serif" font-size="10.00">cmath</text>
</a>
</g>
</g>
<!-- Node1&#45;&gt;Node2 -->
<g id="edge1" class="edge">
<title>Node1&#45;&gt;Node2</title>
<path fill="none" stroke="midnightblue" d="M121.38,-67.48C102.08,-57.58 70.04,-41.14 47.57,-29.62"/>
<polygon fill="midnightblue" stroke="midnightblue" points="49.08,-26.46 38.59,-25.01 45.89,-32.69 49.08,-26.46"/>
</g>
<!-- Node3 -->
<g id="node3" class="node">
<title>Node3</title>
<g id="a_node3"><a xlink:title=" ">
<polygon fill="white" stroke="#bfbfbf" points="62.5,-6 62.5,-25 111.5,-25 111.5,-6 62.5,-6"/>
<text text-anchor="middle" x="87" y="-13" font-family="Helvetica,sans-Serif" font-size="10.00">cassert</text>
</a>
</g>
</g>
<!-- Node1&#45;&gt;Node3 -->
<g id="edge2" class="edge">
<title>Node1&#45;&gt;Node3</title>
<path fill="none" stroke="midnightblue" d="M130.69,-67.48C122.97,-58.46 110.59,-44.02 100.98,-32.81"/>
<polygon fill="midnightblue" stroke="midnightblue" points="103.46,-30.32 94.29,-25.01 98.14,-34.88 103.46,-30.32"/>
</g>
<!-- Node4 -->
<g id="node4" class="node">
<title>Node4</title>
<g id="a_node4"><a xlink:href="equivalent__polynomials__coefficients_8h.html" target="_top" xlink:title=" ">
<polygon fill="white" stroke="black" points="130,-0.5 130,-30.5 248,-30.5 248,-0.5 130,-0.5"/>
<text text-anchor="start" x="138" y="-18.5" font-family="Helvetica,sans-Serif" font-size="10.00">equivalent_polynomials</text>
<text text-anchor="middle" x="189" y="-7.5" font-family="Helvetica,sans-Serif" font-size="10.00">_coefficients.h</text>
</a>
</g>
</g>
<!-- Node1&#45;&gt;Node4 -->
<g id="edge3" class="edge">
<title>Node1&#45;&gt;Node4</title>
<path fill="none" stroke="midnightblue" d="M145.31,-67.48C151.83,-59.87 161.66,-48.4 170.34,-38.26"/>
<polygon fill="midnightblue" stroke="midnightblue" points="173.13,-40.39 176.98,-30.52 167.81,-35.84 173.13,-40.39"/>
</g>
<!-- Node5 -->
<g id="node5" class="node">
<title>Node5</title>
<g id="a_node5"><a xlink:href="equivalent__polynomials__utils_8h.html" target="_top" xlink:title=" ">
<polygon fill="white" stroke="black" points="266,-0.5 266,-30.5 384,-30.5 384,-0.5 266,-0.5"/>
<text text-anchor="start" x="274" y="-18.5" font-family="Helvetica,sans-Serif" font-size="10.00">equivalent_polynomials</text>
<text text-anchor="middle" x="325" y="-7.5" font-family="Helvetica,sans-Serif" font-size="10.00">_utils.h</text>
</a>
</g>
</g>
<!-- Node1&#45;&gt;Node5 -->
<g id="edge4" class="edge">
<title>Node1&#45;&gt;Node5</title>
<path fill="none" stroke="midnightblue" d="M164.79,-67.48C192.49,-58.66 236.47,-44.67 271.35,-33.57"/>
<polygon fill="midnightblue" stroke="midnightblue" points="272.46,-36.89 280.93,-30.52 270.34,-30.22 272.46,-36.89"/>
</g>
</g>
</svg>
