<?xml version="1.0" encoding="UTF-8" standalone="no"?>
<!DOCTYPE svg PUBLIC "-//W3C//DTD SVG 1.1//EN"
 "http://www.w3.org/Graphics/SVG/1.1/DTD/svg11.dtd">
<!-- Generated by graphviz version 2.44.1 (20200629.0846)
 -->
<!-- Title: equivalent_polynomials.h Pages: 1 -->
<svg width="518pt" height="140pt"
 viewBox="0.00 0.00 518.00 140.00" xmlns="http://www.w3.org/2000/svg" xmlns:xlink="http://www.w3.org/1999/xlink">
<g id="graph0" class="graph" transform="scale(1 1) rotate(0) translate(4 136)">
<title>equivalent_polynomials.h</title>
<polygon fill="white" stroke="transparent" points="-4,4 -4,-136 514,-136 514,4 -4,4"/>
<!-- Node1 -->
<g id="node1" class="node">
<title>Node1</title>
<g id="a_node1"><a xlink:title=" ">
<polygon fill="#bfbfbf" stroke="black" points="189,-112.5 189,-131.5 315,-131.5 315,-112.5 189,-112.5"/>
<text text-anchor="middle" x="252" y="-119.5" font-family="Helvetica,sans-Serif" font-size="10.00">equivalent_polynomials.h</text>
</a>
</g>
</g>
<!-- Node2 -->
<g id="node2" class="node">
<title>Node2</title>
<g id="a_node2"><a xlink:href="_m_corr_8h.html" target="_top" xlink:title=" ">
<polygon fill="white" stroke="black" points="10.5,-56.5 10.5,-75.5 61.5,-75.5 61.5,-56.5 10.5,-56.5"/>
<text text-anchor="middle" x="36" y="-63.5" font-family="Helvetica,sans-Serif" font-size="10.00">MCorr.h</text>
</a>
</g>
</g>
<!-- Node1&#45;&gt;Node2 -->
<g id="edge1" class="edge">
<title>Node1&#45;&gt;Node2</title>
<path fill="none" stroke="midnightblue" d="M207.91,-109.98C163.86,-98.96 97.65,-82.41 61.61,-73.4"/>
<polygon fill="midnightblue" stroke="midnightblue" points="207.22,-113.41 217.77,-112.44 208.92,-106.62 207.22,-113.41"/>
</g>
<!-- Node4 -->
<g id="node4" class="node">
<title>Node4</title>
<g id="a_node4"><a xlink:href="_r_a_n_s2_p_8h.html" target="_top" xlink:title=" ">
<polygon fill="white" stroke="black" points="85,-56.5 85,-75.5 149,-75.5 149,-56.5 85,-56.5"/>
<text text-anchor="middle" x="117" y="-63.5" font-family="Helvetica,sans-Serif" font-size="10.00">RANS2P.h</text>
</a>
</g>
</g>
<!-- Node1&#45;&gt;Node4 -->
<g id="edge3" class="edge">
<title>Node1&#45;&gt;Node4</title>
<path fill="none" stroke="midnightblue" d="M221.09,-108.64C195.76,-98.5 160.57,-84.43 138.29,-75.52"/>
<polygon fill="midnightblue" stroke="midnightblue" points="220.02,-111.98 230.61,-112.44 222.62,-105.48 220.02,-111.98"/>
</g>
<!-- Node6 -->
<g id="node6" class="node">
<title>Node6</title>
<g id="a_node6"><a xlink:href="_r_a_n_s2_p2_d_8h.html" target="_top" xlink:title=" ">
<polygon fill="white" stroke="black" points="167,-56.5 167,-75.5 245,-75.5 245,-56.5 167,-56.5"/>
<text text-anchor="middle" x="206" y="-63.5" font-family="Helvetica,sans-Serif" font-size="10.00">RANS2P2D.h</text>
</a>
</g>
</g>
<!-- Node1&#45;&gt;Node6 -->
<g id="edge5" class="edge">
<title>Node1&#45;&gt;Node6</title>
<path fill="none" stroke="midnightblue" d="M237.89,-104.43C229.82,-94.97 220.04,-83.48 213.45,-75.75"/>
<polygon fill="midnightblue" stroke="midnightblue" points="235.25,-106.74 244.4,-112.08 240.58,-102.2 235.25,-106.74"/>
</g>
<!-- Node8 -->
<g id="node8" class="node">
<title>Node8</title>
<g id="a_node8"><a xlink:href="_r_a_n_s3_p_f_8h.html" target="_top" xlink:title=" ">
<polygon fill="white" stroke="black" points="263,-56.5 263,-75.5 333,-75.5 333,-56.5 263,-56.5"/>
<text text-anchor="middle" x="298" y="-63.5" font-family="Helvetica,sans-Serif" font-size="10.00">RANS3PF.h</text>
</a>
</g>
</g>
<!-- Node1&#45;&gt;Node8 -->
<g id="edge7" class="edge">
<title>Node1&#45;&gt;Node8</title>
<path fill="none" stroke="midnightblue" d="M266.11,-104.43C274.18,-94.97 283.96,-83.48 290.55,-75.75"/>
<polygon fill="midnightblue" stroke="midnightblue" points="263.42,-102.2 259.6,-112.08 268.75,-106.74 263.42,-102.2"/>
</g>
<!-- Node9 -->
<g id="node9" class="node">
<title>Node9</title>
<g id="a_node9"><a xlink:href="_r_a_n_s3_p_f2_d_8h.html" target="_top" xlink:title=" ">
<polygon fill="white" stroke="black" points="351,-56.5 351,-75.5 435,-75.5 435,-56.5 351,-56.5"/>
<text text-anchor="middle" x="393" y="-63.5" font-family="Helvetica,sans-Serif" font-size="10.00">RANS3PF2D.h</text>
</a>
</g>
</g>
<!-- Node1&#45;&gt;Node9 -->
<g id="edge8" class="edge">
<title>Node1&#45;&gt;Node9</title>
<path fill="none" stroke="midnightblue" d="M283.93,-108.77C310.41,-98.63 347.39,-84.47 370.76,-75.52"/>
<polygon fill="midnightblue" stroke="midnightblue" points="282.43,-105.6 274.34,-112.44 284.93,-112.14 282.43,-105.6"/>
</g>
<!-- Node10 -->
<g id="node10" class="node">
<title>Node10</title>
<g id="a_node10"><a xlink:href="_r_d_l_s_8h.html" target="_top" xlink:title=" ">
<polygon fill="white" stroke="black" points="453,-56.5 453,-75.5 505,-75.5 505,-56.5 453,-56.5"/>
<text text-anchor="middle" x="479" y="-63.5" font-family="Helvetica,sans-Serif" font-size="10.00">RDLS.h</text>
</a>
</g>
</g>
<!-- Node1&#45;&gt;Node10 -->
<g id="edge9" class="edge">
<title>Node1&#45;&gt;Node10</title>
<path fill="none" stroke="midnightblue" d="M299.57,-110.15C338.47,-101.21 394.86,-88.07 444,-76 446.8,-75.31 449.73,-74.58 452.64,-73.84"/>
<polygon fill="midnightblue" stroke="midnightblue" points="298.55,-106.79 289.58,-112.44 300.11,-113.62 298.55,-106.79"/>
</g>
<!-- Node3 -->
<g id="node3" class="node">
<title>Node3</title>
<g id="a_node3"><a xlink:href="_m_corr_8cpp.html" target="_top" xlink:title=" ">
<polygon fill="white" stroke="black" points="0,-0.5 0,-19.5 62,-19.5 62,-0.5 0,-0.5"/>
<text text-anchor="middle" x="31" y="-7.5" font-family="Helvetica,sans-Serif" font-size="10.00">MCorr.cpp</text>
</a>
</g>
</g>
<!-- Node2&#45;&gt;Node3 -->
<g id="edge2" class="edge">
<title>Node2&#45;&gt;Node3</title>
<path fill="none" stroke="midnightblue" d="M34.25,-46.1C33.42,-37.14 32.47,-26.86 31.81,-19.75"/>
<polygon fill="midnightblue" stroke="midnightblue" points="30.77,-46.45 35.17,-56.08 37.74,-45.8 30.77,-46.45"/>
</g>
<!-- Node5 -->
<g id="node5" class="node">
<title>Node5</title>
<g id="a_node5"><a xlink:href="_r_a_n_s2_p_8cpp.html" target="_top" xlink:title=" ">
<polygon fill="white" stroke="black" points="80,-0.5 80,-19.5 154,-19.5 154,-0.5 80,-0.5"/>
<text text-anchor="middle" x="117" y="-7.5" font-family="Helvetica,sans-Serif" font-size="10.00">RANS2P.cpp</text>
</a>
</g>
</g>
<!-- Node4&#45;&gt;Node5 -->
<g id="edge4" class="edge">
<title>Node4&#45;&gt;Node5</title>
<path fill="none" stroke="midnightblue" d="M117,-45.8C117,-36.91 117,-26.78 117,-19.75"/>
<polygon fill="midnightblue" stroke="midnightblue" points="113.5,-46.08 117,-56.08 120.5,-46.08 113.5,-46.08"/>
</g>
<!-- Node7 -->
<g id="node7" class="node">
<title>Node7</title>
<g id="a_node7"><a xlink:href="_r_a_n_s2_p2_d_8cpp.html" target="_top" xlink:title=" ">
<polygon fill="white" stroke="black" points="172.5,-0.5 172.5,-19.5 261.5,-19.5 261.5,-0.5 172.5,-0.5"/>
<text text-anchor="middle" x="217" y="-7.5" font-family="Helvetica,sans-Serif" font-size="10.00">RANS2P2D.cpp</text>
</a>
</g>
</g>
<!-- Node6&#45;&gt;Node7 -->
<g id="edge6" class="edge">
<title>Node6&#45;&gt;Node7</title>
<path fill="none" stroke="midnightblue" d="M209.85,-46.1C211.68,-37.14 213.77,-26.86 215.22,-19.75"/>
<polygon fill="midnightblue" stroke="midnightblue" points="206.38,-45.59 207.82,-56.08 213.24,-46.98 206.38,-45.59"/>
</g>
<!-- Node11 -->
<g id="node11" class="node">
<title>Node11</title>
<g id="a_node11"><a xlink:href="_r_d_l_s_8cpp.html" target="_top" xlink:title=" ">
<polygon fill="white" stroke="black" points="448,-0.5 448,-19.5 510,-19.5 510,-0.5 448,-0.5"/>
<text text-anchor="middle" x="479" y="-7.5" font-family="Helvetica,sans-Serif" font-size="10.00">RDLS.cpp</text>
</a>
</g>
</g>
<!-- Node10&#45;&gt;Node11 -->
<g id="edge10" class="edge">
<title>Node10&#45;&gt;Node11</title>
<path fill="none" stroke="midnightblue" d="M479,-45.8C479,-36.91 479,-26.78 479,-19.75"/>
<polygon fill="midnightblue" stroke="midnightblue" points="475.5,-46.08 479,-56.08 482.5,-46.08 475.5,-46.08"/>
</g>
</g>
</svg>
