<?xml version="1.0" encoding="UTF-8" standalone="no"?>
<!DOCTYPE svg PUBLIC "-//W3C//DTD SVG 1.1//EN"
 "http://www.w3.org/Graphics/SVG/1.1/DTD/svg11.dtd">
<!-- Generated by graphviz version 2.44.1 (20200629.0846)
 -->
<!-- Title: femIntegrals.c Pages: 1 -->
<svg width="493pt" height="84pt"
 viewBox="0.00 0.00 492.50 84.00" xmlns="http://www.w3.org/2000/svg" xmlns:xlink="http://www.w3.org/1999/xlink">
<g id="graph0" class="graph" transform="scale(1 1) rotate(0) translate(4 80)">
<title>femIntegrals.c</title>
<polygon fill="white" stroke="transparent" points="-4,4 -4,-80 488.5,-80 488.5,4 -4,4"/>
<!-- Node1 -->
<g id="node1" class="node">
<title>Node1</title>
<g id="a_node1"><a xlink:title=" ">
<polygon fill="#bfbfbf" stroke="black" points="180.5,-56.5 180.5,-75.5 259.5,-75.5 259.5,-56.5 180.5,-56.5"/>
<text text-anchor="middle" x="220" y="-63.5" font-family="Helvetica,sans-Serif" font-size="10.00">femIntegrals.c</text>
</a>
</g>
</g>
<!-- Node2 -->
<g id="node2" class="node">
<title>Node2</title>
<g id="a_node2"><a xlink:title=" ">
<polygon fill="white" stroke="#bfbfbf" points="0,-0.5 0,-19.5 48,-19.5 48,-0.5 0,-0.5"/>
<text text-anchor="middle" x="24" y="-7.5" font-family="Helvetica,sans-Serif" font-size="10.00">stdlib.h</text>
</a>
</g>
</g>
<!-- Node1&#45;&gt;Node2 -->
<g id="edge1" class="edge">
<title>Node1&#45;&gt;Node2</title>
<path fill="none" stroke="midnightblue" d="M188.94,-56.44C153.23,-46.6 94.78,-30.5 57.91,-20.34"/>
<polygon fill="midnightblue" stroke="midnightblue" points="58.69,-16.93 48.11,-17.64 56.83,-23.67 58.69,-16.93"/>
</g>
<!-- Node3 -->
<g id="node3" class="node">
<title>Node3</title>
<g id="a_node3"><a xlink:title=" ">
<polygon fill="white" stroke="#bfbfbf" points="66,-0.5 66,-19.5 112,-19.5 112,-0.5 66,-0.5"/>
<text text-anchor="middle" x="89" y="-7.5" font-family="Helvetica,sans-Serif" font-size="10.00">stdio.h</text>
</a>
</g>
</g>
<!-- Node1&#45;&gt;Node3 -->
<g id="edge2" class="edge">
<title>Node1&#45;&gt;Node3</title>
<path fill="none" stroke="midnightblue" d="M199.24,-56.44C177.68,-47.56 143.74,-33.56 119.21,-23.45"/>
<polygon fill="midnightblue" stroke="midnightblue" points="120.24,-20.09 109.66,-19.52 117.57,-26.56 120.24,-20.09"/>
</g>
<!-- Node4 -->
<g id="node4" class="node">
<title>Node4</title>
<g id="a_node4"><a xlink:title=" ">
<polygon fill="white" stroke="#bfbfbf" points="130.5,-0.5 130.5,-19.5 177.5,-19.5 177.5,-0.5 130.5,-0.5"/>
<text text-anchor="middle" x="154" y="-7.5" font-family="Helvetica,sans-Serif" font-size="10.00">math.h</text>
</a>
</g>
</g>
<!-- Node1&#45;&gt;Node4 -->
<g id="edge3" class="edge">
<title>Node1&#45;&gt;Node4</title>
<path fill="none" stroke="midnightblue" d="M209.4,-56.32C199.54,-48.26 184.65,-36.08 172.78,-26.37"/>
<polygon fill="midnightblue" stroke="midnightblue" points="174.75,-23.46 164.8,-19.83 170.32,-28.88 174.75,-23.46"/>
</g>
<!-- Node5 -->
<g id="node5" class="node">
<title>Node5</title>
<g id="a_node5"><a xlink:title=" ">
<polygon fill="white" stroke="#bfbfbf" points="195.5,-0.5 195.5,-19.5 244.5,-19.5 244.5,-0.5 195.5,-0.5"/>
<text text-anchor="middle" x="220" y="-7.5" font-family="Helvetica,sans-Serif" font-size="10.00">string.h</text>
</a>
</g>
</g>
<!-- Node1&#45;&gt;Node5 -->
<g id="edge4" class="edge">
<title>Node1&#45;&gt;Node5</title>
<path fill="none" stroke="midnightblue" d="M220,-56.08C220,-49.01 220,-38.86 220,-29.99"/>
<polygon fill="midnightblue" stroke="midnightblue" points="223.5,-29.75 220,-19.75 216.5,-29.75 223.5,-29.75"/>
</g>
<!-- Node6 -->
<g id="node6" class="node">
<title>Node6</title>
<g id="a_node6"><a xlink:title=" ">
<polygon fill="white" stroke="#bfbfbf" points="263,-0.5 263,-19.5 317,-19.5 317,-0.5 263,-0.5"/>
<text text-anchor="middle" x="290" y="-7.5" font-family="Helvetica,sans-Serif" font-size="10.00">strings.h</text>
</a>
</g>
</g>
<!-- Node1&#45;&gt;Node6 -->
<g id="edge5" class="edge">
<title>Node1&#45;&gt;Node6</title>
<path fill="none" stroke="midnightblue" d="M231.25,-56.32C241.8,-48.18 257.8,-35.84 270.44,-26.09"/>
<polygon fill="midnightblue" stroke="midnightblue" points="272.77,-28.71 278.55,-19.83 268.49,-23.17 272.77,-28.71"/>
</g>
<!-- Node7 -->
<g id="node7" class="node">
<title>Node7</title>
<g id="a_node7"><a xlink:title=" ">
<polygon fill="white" stroke="#bfbfbf" points="335,-0.5 335,-19.5 387,-19.5 387,-0.5 335,-0.5"/>
<text text-anchor="middle" x="361" y="-7.5" font-family="Helvetica,sans-Serif" font-size="10.00">assert.h</text>
</a>
</g>
</g>
<!-- Node1&#45;&gt;Node7 -->
<g id="edge6" class="edge">
<title>Node1&#45;&gt;Node7</title>
<path fill="none" stroke="midnightblue" d="M242.34,-56.44C265.75,-47.48 302.74,-33.31 329.19,-23.18"/>
<polygon fill="midnightblue" stroke="midnightblue" points="330.68,-26.36 338.76,-19.52 328.17,-19.82 330.68,-26.36"/>
</g>
<!-- Node8 -->
<g id="node8" class="node">
<title>Node8</title>
<g id="a_node8"><a xlink:href="fem_integrals_8h.html" target="_top" xlink:title="A library of functions for computing the discrete finite element formulations.">
<polygon fill="white" stroke="black" points="405.5,-0.5 405.5,-19.5 484.5,-19.5 484.5,-0.5 405.5,-0.5"/>
<text text-anchor="middle" x="445" y="-7.5" font-family="Helvetica,sans-Serif" font-size="10.00">femIntegrals.h</text>
</a>
</g>
</g>
<!-- Node1&#45;&gt;Node8 -->
<g id="edge7" class="edge">
<title>Node1&#45;&gt;Node8</title>
<path fill="none" stroke="midnightblue" d="M255.65,-56.44C294.66,-47.08 357.27,-32.06 399.72,-21.87"/>
<polygon fill="midnightblue" stroke="midnightblue" points="400.61,-25.25 409.51,-19.52 398.97,-18.45 400.61,-25.25"/>
</g>
</g>
</svg>
