<?xml version="1.0" encoding="UTF-8" standalone="no"?>
<!DOCTYPE svg PUBLIC "-//W3C//DTD SVG 1.1//EN"
 "http://www.w3.org/Graphics/SVG/1.1/DTD/svg11.dtd">
<!-- Generated by graphviz version 2.40.1 (20161225.0304)
 -->
<!-- Title: Graphical Class Hierarchy Pages: 1 -->
<svg width="252pt" height="137pt"
 viewBox="0.00 0.00 252.00 137.00" xmlns="http://www.w3.org/2000/svg" xmlns:xlink="http://www.w3.org/1999/xlink">
<g id="graph0" class="graph" transform="scale(1 1) rotate(0) translate(4 133)">
<title>Graphical Class Hierarchy</title>
<polygon fill="#ffffff" stroke="transparent" points="-4,4 -4,-133 248,-133 248,4 -4,4"/>
<!-- Node44 -->
<g id="node1" class="node">
<title>Node44</title>
<g id="a_node1"><a xlink:title="STL class. ">
<polygon fill="#ffffff" stroke="#bfbfbf" points="0,-55 0,-74 92,-74 92,-55 0,-55"/>
<text text-anchor="middle" x="46" y="-62" font-family="Helvetica,sans-Serif" font-size="10.00" fill="#000000">std::map&lt; K, T &gt;</text>
</a>
</g>
</g>
<!-- Node0 -->
<g id="node2" class="node">
<title>Node0</title>
<g id="a_node2"><a xlink:href="classproteus_1_1throwing__map.html" target="_top" xlink:title="proteus::throwing_map\l\&lt; K, T \&gt;">
<polygon fill="#ffffff" stroke="#000000" points="128,-98.5 128,-128.5 244,-128.5 244,-98.5 128,-98.5"/>
<text text-anchor="start" x="136" y="-116.5" font-family="Helvetica,sans-Serif" font-size="10.00" fill="#000000">proteus::throwing_map</text>
<text text-anchor="middle" x="186" y="-105.5" font-family="Helvetica,sans-Serif" font-size="10.00" fill="#000000">&lt; K, T &gt;</text>
</a>
</g>
</g>
<!-- Node44&#45;&gt;Node0 -->
<g id="edge1" class="edge">
<title>Node44&#45;&gt;Node0</title>
<path fill="none" stroke="#8b1a1a" d="M82.8532,-77.3986C101.3207,-83.8622 123.7901,-91.7265 143.0372,-98.463"/>
<polygon fill="#8b1a1a" stroke="#8b1a1a" points="83.9206,-74.0641 73.3258,-74.064 81.6081,-80.6711 83.9206,-74.0641"/>
</g>
<!-- Node46 -->
<g id="node3" class="node">
<title>Node46</title>
<g id="a_node3"><a xlink:href="classproteus_1_1throwing__map.html" target="_top" xlink:title="proteus::throwing_map\l\&lt; std::string, double \&gt;">
<polygon fill="#ffffff" stroke="#000000" points="128,-49.5 128,-79.5 244,-79.5 244,-49.5 128,-49.5"/>
<text text-anchor="start" x="136" y="-67.5" font-family="Helvetica,sans-Serif" font-size="10.00" fill="#000000">proteus::throwing_map</text>
<text text-anchor="middle" x="186" y="-56.5" font-family="Helvetica,sans-Serif" font-size="10.00" fill="#000000">&lt; std::string, double &gt;</text>
</a>
</g>
</g>
<!-- Node44&#45;&gt;Node46 -->
<g id="edge2" class="edge">
<title>Node44&#45;&gt;Node46</title>
<path fill="none" stroke="#8b1a1a" d="M102.2388,-64.5C110.5828,-64.5 119.1984,-64.5 127.5858,-64.5"/>
<polygon fill="#8b1a1a" stroke="#8b1a1a" points="102.2293,-61.0001 92.2292,-64.5 102.2292,-68.0001 102.2293,-61.0001"/>
</g>
<!-- Node47 -->
<g id="node4" class="node">
<title>Node47</title>
<g id="a_node4"><a xlink:href="classproteus_1_1throwing__map.html" target="_top" xlink:title="proteus::throwing_map\l\&lt; std::string, int \&gt;">
<polygon fill="#ffffff" stroke="#000000" points="128,-.5 128,-30.5 244,-30.5 244,-.5 128,-.5"/>
<text text-anchor="start" x="136" y="-18.5" font-family="Helvetica,sans-Serif" font-size="10.00" fill="#000000">proteus::throwing_map</text>
<text text-anchor="middle" x="186" y="-7.5" font-family="Helvetica,sans-Serif" font-size="10.00" fill="#000000">&lt; std::string, int &gt;</text>
</a>
</g>
</g>
<!-- Node44&#45;&gt;Node47 -->
<g id="edge3" class="edge">
<title>Node44&#45;&gt;Node47</title>
<path fill="none" stroke="#8b1a1a" d="M82.8532,-51.6014C101.3207,-45.1378 123.7901,-37.2735 143.0372,-30.537"/>
<polygon fill="#8b1a1a" stroke="#8b1a1a" points="81.6081,-48.3289 73.3258,-54.936 83.9206,-54.9359 81.6081,-48.3289"/>
</g>
</g>
</svg>
