<?xml version="1.0" encoding="UTF-8" standalone="no"?>
<!DOCTYPE svg PUBLIC "-//W3C//DTD SVG 1.1//EN"
 "http://www.w3.org/Graphics/SVG/1.1/DTD/svg11.dtd">
<!-- Generated by graphviz version 2.44.1 (20200629.0846)
 -->
<!-- Title: Graphical Class Hierarchy Pages: 1 -->
<svg width="357pt" height="142pt"
 viewBox="0.00 0.00 357.00 142.00" xmlns="http://www.w3.org/2000/svg" xmlns:xlink="http://www.w3.org/1999/xlink">
<g id="graph0" class="graph" transform="scale(1 1) rotate(0) translate(4 138)">
<title>Graphical Class Hierarchy</title>
<polygon fill="white" stroke="transparent" points="-4,4 -4,-138 353,-138 353,4 -4,4"/>
<!-- Node0 -->
<g id="node1" class="node">
<title>Node0</title>
<g id="a_node1"><a xlink:href="class_density_relation.html" target="_top" xlink:title=" ">
<polygon fill="white" stroke="black" points="0,-57.5 0,-76.5 86,-76.5 86,-57.5 0,-57.5"/>
<text text-anchor="middle" x="43" y="-64.5" font-family="Helvetica,sans-Serif" font-size="10.00">DensityRelation</text>
</a>
</g>
</g>
<!-- Node1 -->
<g id="node2" class="node">
<title>Node1</title>
<g id="a_node2"><a xlink:href="class_constant_density.html" target="_top" xlink:title=" ">
<polygon fill="white" stroke="black" points="122,-114.5 122,-133.5 212,-133.5 212,-114.5 122,-114.5"/>
<text text-anchor="middle" x="167" y="-121.5" font-family="Helvetica,sans-Serif" font-size="10.00">ConstantDensity</text>
</a>
</g>
</g>
<!-- Node0&#45;&gt;Node1 -->
<g id="edge1" class="edge">
<title>Node0&#45;&gt;Node1</title>
<path fill="none" stroke="midnightblue" d="M72.23,-81.14C86.98,-88.43 105.38,-97.37 122,-105 128.81,-108.13 136.26,-111.4 143.08,-114.34"/>
<polygon fill="midnightblue" stroke="midnightblue" points="73.63,-77.93 63.12,-76.62 70.52,-84.2 73.63,-77.93"/>
</g>
<!-- Node2 -->
<g id="node3" class="node">
<title>Node2</title>
<g id="a_node3"><a xlink:href="class_ideal_gas_density.html" target="_top" xlink:title=" ">
<polygon fill="white" stroke="black" points="122.5,-76.5 122.5,-95.5 211.5,-95.5 211.5,-76.5 122.5,-76.5"/>
<text text-anchor="middle" x="167" y="-83.5" font-family="Helvetica,sans-Serif" font-size="10.00">IdealGasDensity</text>
</a>
</g>
</g>
<!-- Node0&#45;&gt;Node2 -->
<g id="edge2" class="edge">
<title>Node0&#45;&gt;Node2</title>
<path fill="none" stroke="midnightblue" d="M96.28,-75.14C104.88,-76.48 113.72,-77.86 122.09,-79.16"/>
<polygon fill="midnightblue" stroke="midnightblue" points="96.75,-71.67 86.33,-73.59 95.67,-78.59 96.75,-71.67"/>
</g>
<!-- Node3 -->
<g id="node4" class="node">
<title>Node3</title>
<g id="a_node4"><a xlink:href="class_linear_density.html" target="_top" xlink:title=" ">
<polygon fill="white" stroke="black" points="128.5,-38.5 128.5,-57.5 205.5,-57.5 205.5,-38.5 128.5,-38.5"/>
<text text-anchor="middle" x="167" y="-45.5" font-family="Helvetica,sans-Serif" font-size="10.00">LinearDensity</text>
</a>
</g>
</g>
<!-- Node0&#45;&gt;Node3 -->
<g id="edge3" class="edge">
<title>Node0&#45;&gt;Node3</title>
<path fill="none" stroke="midnightblue" d="M96.43,-58.84C107.12,-57.17 118.17,-55.45 128.23,-53.88"/>
<polygon fill="midnightblue" stroke="midnightblue" points="95.67,-55.41 86.33,-60.41 96.75,-62.33 95.67,-55.41"/>
</g>
<!-- Node5 -->
<g id="node6" class="node">
<title>Node5</title>
<g id="a_node6"><a xlink:href="class_real_gas_density.html" target="_top" xlink:title=" ">
<polygon fill="white" stroke="black" points="122.5,-0.5 122.5,-19.5 211.5,-19.5 211.5,-0.5 122.5,-0.5"/>
<text text-anchor="middle" x="167" y="-7.5" font-family="Helvetica,sans-Serif" font-size="10.00">RealGasDensity</text>
</a>
</g>
</g>
<!-- Node0&#45;&gt;Node5 -->
<g id="edge5" class="edge">
<title>Node0&#45;&gt;Node5</title>
<path fill="none" stroke="midnightblue" d="M72.23,-52.86C86.98,-45.57 105.38,-36.63 122,-29 128.81,-25.87 136.26,-22.6 143.08,-19.66"/>
<polygon fill="midnightblue" stroke="midnightblue" points="70.52,-49.8 63.12,-57.38 73.63,-56.07 70.52,-49.8"/>
</g>
<!-- Node4 -->
<g id="node5" class="node">
<title>Node4</title>
<g id="a_node5"><a xlink:href="class_exponential_density.html" target="_top" xlink:title=" ">
<polygon fill="white" stroke="black" points="248,-38.5 248,-57.5 349,-57.5 349,-38.5 248,-38.5"/>
<text text-anchor="middle" x="298.5" y="-45.5" font-family="Helvetica,sans-Serif" font-size="10.00">ExponentialDensity</text>
</a>
</g>
</g>
<!-- Node3&#45;&gt;Node4 -->
<g id="edge4" class="edge">
<title>Node3&#45;&gt;Node4</title>
<path fill="none" stroke="midnightblue" d="M215.95,-48C226.35,-48 237.37,-48 247.84,-48"/>
<polygon fill="midnightblue" stroke="midnightblue" points="215.8,-44.5 205.8,-48 215.8,-51.5 215.8,-44.5"/>
</g>
</g>
</svg>
