<?xml version="1.0" encoding="UTF-8" standalone="no"?>
<!DOCTYPE svg PUBLIC "-//W3C//DTD SVG 1.1//EN"
 "http://www.w3.org/Graphics/SVG/1.1/DTD/svg11.dtd">
<!-- Generated by graphviz version 2.44.1 (20200629.0846)
 -->
<!-- Title: Graphical Class Hierarchy Pages: 1 -->
<svg width="330pt" height="142pt"
 viewBox="0.00 0.00 330.00 142.00" xmlns="http://www.w3.org/2000/svg" xmlns:xlink="http://www.w3.org/1999/xlink">
<g id="graph0" class="graph" transform="scale(1 1) rotate(0) translate(4 138)">
<title>Graphical Class Hierarchy</title>
<polygon fill="white" stroke="transparent" points="-4,4 -4,-138 326,-138 326,4 -4,4"/>
<!-- Node0 -->
<g id="node1" class="node">
<title>Node0</title>
<g id="a_node1"><a xlink:href="class_psk_relation.html" target="_top" xlink:title=" ">
<polygon fill="white" stroke="black" points="0,-57.5 0,-76.5 70,-76.5 70,-57.5 0,-57.5"/>
<text text-anchor="middle" x="35" y="-64.5" font-family="Helvetica,sans-Serif" font-size="10.00">PskRelation</text>
</a>
</g>
</g>
<!-- Node1 -->
<g id="node2" class="node">
<title>Node1</title>
<g id="a_node2"><a xlink:href="class_b_c_m.html" target="_top" xlink:title=" ">
<polygon fill="white" stroke="black" points="120,-114.5 120,-133.5 159,-133.5 159,-114.5 120,-114.5"/>
<text text-anchor="middle" x="139.5" y="-121.5" font-family="Helvetica,sans-Serif" font-size="10.00">BCM</text>
</a>
</g>
</g>
<!-- Node0&#45;&gt;Node1 -->
<g id="edge1" class="edge">
<title>Node0&#45;&gt;Node1</title>
<path fill="none" stroke="midnightblue" d="M62.24,-81.59C80.83,-91.93 105.23,-105.5 121.37,-114.47"/>
<polygon fill="midnightblue" stroke="midnightblue" points="63.83,-78.47 53.39,-76.67 60.43,-84.59 63.83,-78.47"/>
</g>
<!-- Node3 -->
<g id="node4" class="node">
<title>Node3</title>
<g id="a_node4"><a xlink:href="class_psk_spline.html" target="_top" xlink:title=" ">
<polygon fill="white" stroke="black" points="109,-76.5 109,-95.5 170,-95.5 170,-76.5 109,-76.5"/>
<text text-anchor="middle" x="139.5" y="-83.5" font-family="Helvetica,sans-Serif" font-size="10.00">PskSpline</text>
</a>
</g>
</g>
<!-- Node0&#45;&gt;Node3 -->
<g id="edge3" class="edge">
<title>Node0&#45;&gt;Node3</title>
<path fill="none" stroke="midnightblue" d="M80.11,-75.18C89.87,-76.98 99.97,-78.86 108.98,-80.53"/>
<polygon fill="midnightblue" stroke="midnightblue" points="80.6,-71.71 70.13,-73.33 79.33,-78.59 80.6,-71.71"/>
</g>
<!-- Node4 -->
<g id="node5" class="node">
<title>Node4</title>
<g id="a_node5"><a xlink:href="class_simple_p_s_k.html" target="_top" xlink:title=" ">
<polygon fill="white" stroke="black" points="106,-38.5 106,-57.5 173,-57.5 173,-38.5 106,-38.5"/>
<text text-anchor="middle" x="139.5" y="-45.5" font-family="Helvetica,sans-Serif" font-size="10.00">SimplePSK</text>
</a>
</g>
</g>
<!-- Node0&#45;&gt;Node4 -->
<g id="edge4" class="edge">
<title>Node0&#45;&gt;Node4</title>
<path fill="none" stroke="midnightblue" d="M80.11,-58.82C88.77,-57.22 97.71,-55.56 105.91,-54.04"/>
<polygon fill="midnightblue" stroke="midnightblue" points="79.33,-55.41 70.13,-60.67 80.6,-62.29 79.33,-55.41"/>
</g>
<!-- Node5 -->
<g id="node6" class="node">
<title>Node5</title>
<g id="a_node6"><a xlink:href="class_v_g_morig.html" target="_top" xlink:title=" ">
<polygon fill="white" stroke="black" points="112,-0.5 112,-19.5 167,-19.5 167,-0.5 112,-0.5"/>
<text text-anchor="middle" x="139.5" y="-7.5" font-family="Helvetica,sans-Serif" font-size="10.00">VGMorig</text>
</a>
</g>
</g>
<!-- Node0&#45;&gt;Node5 -->
<g id="edge5" class="edge">
<title>Node0&#45;&gt;Node5</title>
<path fill="none" stroke="midnightblue" d="M62.24,-52.41C80.83,-42.07 105.23,-28.5 121.37,-19.53"/>
<polygon fill="midnightblue" stroke="midnightblue" points="60.43,-49.41 53.39,-57.33 63.83,-55.53 60.43,-49.41"/>
</g>
<!-- Node2 -->
<g id="node3" class="node">
<title>Node2</title>
<g id="a_node3"><a xlink:href="class_b_c_b.html" target="_top" xlink:title=" ">
<polygon fill="white" stroke="black" points="209.5,-114.5 209.5,-133.5 247.5,-133.5 247.5,-114.5 209.5,-114.5"/>
<text text-anchor="middle" x="228.5" y="-121.5" font-family="Helvetica,sans-Serif" font-size="10.00">BCB</text>
</a>
</g>
</g>
<!-- Node1&#45;&gt;Node2 -->
<g id="edge2" class="edge">
<title>Node1&#45;&gt;Node2</title>
<path fill="none" stroke="midnightblue" d="M169.39,-124C182.54,-124 197.71,-124 209.26,-124"/>
<polygon fill="midnightblue" stroke="midnightblue" points="169.38,-120.5 159.38,-124 169.38,-127.5 169.38,-120.5"/>
</g>
<!-- Node6 -->
<g id="node7" class="node">
<title>Node6</title>
<g id="a_node7"><a xlink:href="class_v_g_m.html" target="_top" xlink:title=" ">
<polygon fill="white" stroke="black" points="209,-0.5 209,-19.5 248,-19.5 248,-0.5 209,-0.5"/>
<text text-anchor="middle" x="228.5" y="-7.5" font-family="Helvetica,sans-Serif" font-size="10.00">VGM</text>
</a>
</g>
</g>
<!-- Node5&#45;&gt;Node6 -->
<g id="edge6" class="edge">
<title>Node5&#45;&gt;Node6</title>
<path fill="none" stroke="midnightblue" d="M177.24,-10C188.12,-10 199.58,-10 208.81,-10"/>
<polygon fill="midnightblue" stroke="midnightblue" points="177.08,-6.5 167.08,-10 177.08,-13.5 177.08,-6.5"/>
</g>
<!-- Node7 -->
<g id="node8" class="node">
<title>Node7</title>
<g id="a_node8"><a xlink:href="class_v_g_b.html" target="_top" xlink:title=" ">
<polygon fill="white" stroke="black" points="284,-0.5 284,-19.5 322,-19.5 322,-0.5 284,-0.5"/>
<text text-anchor="middle" x="303" y="-7.5" font-family="Helvetica,sans-Serif" font-size="10.00">VGB</text>
</a>
</g>
</g>
<!-- Node6&#45;&gt;Node7 -->
<g id="edge7" class="edge">
<title>Node6&#45;&gt;Node7</title>
<path fill="none" stroke="midnightblue" d="M258.2,-10C266.77,-10 275.93,-10 283.64,-10"/>
<polygon fill="midnightblue" stroke="midnightblue" points="258.17,-6.5 248.17,-10 258.17,-13.5 258.17,-6.5"/>
</g>
</g>
</svg>
