<?xml version="1.0" encoding="UTF-8" standalone="no"?>
<!DOCTYPE svg PUBLIC "-//W3C//DTD SVG 1.1//EN"
 "http://www.w3.org/Graphics/SVG/1.1/DTD/svg11.dtd">
<!-- Generated by graphviz version 2.50.0 (20211204.2007)
 -->
<!-- Title: Graphical Class Hierarchy Pages: 1 -->
<svg width="252pt" height="137pt"
 viewBox="0.00 0.00 252.00 137.00" xmlns="http://www.w3.org/2000/svg" xmlns:xlink="http://www.w3.org/1999/xlink">
<g id="graph0" class="graph" transform="scale(1 1) rotate(0) translate(4 133)">
<title>Graphical Class Hierarchy</title>
<polygon fill="white" stroke="transparent" points="-4,4 -4,-133 248,-133 248,4 -4,4"/>
<!-- Node45 -->
<g id="node1" class="node">
<title>Node45</title>
<g id="a_node1"><a xlink:title="STL class.">
<polygon fill="white" stroke="#bfbfbf" points="0,-55 0,-74 92,-74 92,-55 0,-55"/>
<text text-anchor="middle" x="46" y="-62" font-family="Helvetica,sans-Serif" font-size="10.00">std::map&lt; K, T &gt;</text>
</a>
</g>
</g>
<!-- Node0 -->
<g id="node2" class="node">
<title>Node0</title>
<g id="a_node2"><a xlink:href="classproteus_1_1throwing__map.html" target="_top" xlink:title=" ">
<polygon fill="white" stroke="black" points="128,-98.5 128,-128.5 244,-128.5 244,-98.5 128,-98.5"/>
<text text-anchor="start" x="136" y="-116.5" font-family="Helvetica,sans-Serif" font-size="10.00">proteus::throwing_map</text>
<text text-anchor="middle" x="186" y="-105.5" font-family="Helvetica,sans-Serif" font-size="10.00">&lt; K, T &gt;</text>
</a>
</g>
</g>
<!-- Node45&#45;&gt;Node0 -->
<g id="edge1" class="edge">
<title>Node45&#45;&gt;Node0</title>
<path fill="none" stroke="#8b1a1a" d="M83.58,-77.49C101.73,-83.93 123.77,-91.76 142.65,-98.46"/>
<polygon fill="#8b1a1a" stroke="#8b1a1a" points="84.53,-74.11 73.94,-74.06 82.19,-80.71 84.53,-74.11"/>
</g>
<!-- Node47 -->
<g id="node3" class="node">
<title>Node47</title>
<g id="a_node3"><a xlink:href="classproteus_1_1throwing__map.html" target="_top" xlink:title=" ">
<polygon fill="white" stroke="black" points="128,-49.5 128,-79.5 244,-79.5 244,-49.5 128,-49.5"/>
<text text-anchor="start" x="136" y="-67.5" font-family="Helvetica,sans-Serif" font-size="10.00">proteus::throwing_map</text>
<text text-anchor="middle" x="186" y="-56.5" font-family="Helvetica,sans-Serif" font-size="10.00">&lt; std::string, double &gt;</text>
</a>
</g>
</g>
<!-- Node45&#45;&gt;Node47 -->
<g id="edge2" class="edge">
<title>Node45&#45;&gt;Node47</title>
<path fill="none" stroke="#8b1a1a" d="M102.21,-64.5C110.57,-64.5 119.22,-64.5 127.62,-64.5"/>
<polygon fill="#8b1a1a" stroke="#8b1a1a" points="102.19,-61 92.19,-64.5 102.19,-68 102.19,-61"/>
</g>
<!-- Node48 -->
<g id="node4" class="node">
<title>Node48</title>
<g id="a_node4"><a xlink:href="classproteus_1_1throwing__map.html" target="_top" xlink:title=" ">
<polygon fill="white" stroke="black" points="128,-0.5 128,-30.5 244,-30.5 244,-0.5 128,-0.5"/>
<text text-anchor="start" x="136" y="-18.5" font-family="Helvetica,sans-Serif" font-size="10.00">proteus::throwing_map</text>
<text text-anchor="middle" x="186" y="-7.5" font-family="Helvetica,sans-Serif" font-size="10.00">&lt; std::string, int &gt;</text>
</a>
</g>
</g>
<!-- Node45&#45;&gt;Node48 -->
<g id="edge3" class="edge">
<title>Node45&#45;&gt;Node48</title>
<path fill="none" stroke="#8b1a1a" d="M83.58,-51.51C101.73,-45.07 123.77,-37.24 142.65,-30.54"/>
<polygon fill="#8b1a1a" stroke="#8b1a1a" points="82.19,-48.29 73.94,-54.94 84.53,-54.89 82.19,-48.29"/>
</g>
</g>
</svg>
