<?xml version="1.0" encoding="UTF-8" standalone="no"?>
<!DOCTYPE svg PUBLIC "-//W3C//DTD SVG 1.1//EN"
 "http://www.w3.org/Graphics/SVG/1.1/DTD/svg11.dtd">
<!-- Generated by graphviz version 2.40.1 (20161225.0304)
 -->
<!-- Title: Graphical Class Hierarchy Pages: 1 -->
<svg width="355pt" height="72pt"
 viewBox="0.00 0.00 355.00 72.00" xmlns="http://www.w3.org/2000/svg" xmlns:xlink="http://www.w3.org/1999/xlink">
<g id="graph0" class="graph" transform="scale(1 1) rotate(0) translate(4 68)">
<title>Graphical Class Hierarchy</title>
<polygon fill="#ffffff" stroke="transparent" points="-4,4 -4,-68 351,-68 351,4 -4,4"/>
<!-- Node0 -->
<g id="node1" class="node">
<title>Node0</title>
<g id="a_node1"><a xlink:href="classproteus_1_1_n_c_l_s__base.html" target="_top" xlink:title="proteus::NCLS_base">
<polygon fill="#ffffff" stroke="#000000" points="0,-22.5 0,-41.5 108,-41.5 108,-22.5 0,-22.5"/>
<text text-anchor="middle" x="54" y="-29.5" font-family="Helvetica,sans-Serif" font-size="10.00" fill="#000000">proteus::NCLS_base</text>
</a>
</g>
</g>
<!-- Node1 -->
<g id="node2" class="node">
<title>Node1</title>
<g id="a_node2"><a xlink:href="classproteus_1_1_n_c_l_s.html" target="_top" xlink:title="proteus::NCLS\&lt; CompKernel\lType, nSpace, nQuadraturePoints\l_element, nDOF_mesh_trial_element,\l nDOF_trial_element, nDOF_test_element,\l nQuadraturePoints_elementBoundary \&gt;">
<polygon fill="#ffffff" stroke="#000000" points="144,-.5 144,-63.5 347,-63.5 347,-.5 144,-.5"/>
<text text-anchor="start" x="152" y="-51.5" font-family="Helvetica,sans-Serif" font-size="10.00" fill="#000000">proteus::NCLS&lt; CompKernel</text>
<text text-anchor="start" x="152" y="-40.5" font-family="Helvetica,sans-Serif" font-size="10.00" fill="#000000">Type, nSpace, nQuadraturePoints</text>
<text text-anchor="start" x="152" y="-29.5" font-family="Helvetica,sans-Serif" font-size="10.00" fill="#000000">_element, nDOF_mesh_trial_element,</text>
<text text-anchor="start" x="152" y="-18.5" font-family="Helvetica,sans-Serif" font-size="10.00" fill="#000000"> nDOF_trial_element, nDOF_test_element,</text>
<text text-anchor="middle" x="245.5" y="-7.5" font-family="Helvetica,sans-Serif" font-size="10.00" fill="#000000"> nQuadraturePoints_elementBoundary &gt;</text>
</a>
</g>
</g>
<!-- Node0&#45;&gt;Node1 -->
<g id="edge1" class="edge">
<title>Node0&#45;&gt;Node1</title>
<path fill="none" stroke="#191970" d="M118.1116,-32C126.4765,-32 135.2043,-32 143.997,-32"/>
<polygon fill="#191970" stroke="#191970" points="118.1084,-28.5001 108.1083,-32 118.1083,-35.5001 118.1084,-28.5001"/>
</g>
</g>
</svg>
