<?xml version="1.0" encoding="UTF-8" standalone="no"?>
<!DOCTYPE svg PUBLIC "-//W3C//DTD SVG 1.1//EN"
 "http://www.w3.org/Graphics/SVG/1.1/DTD/svg11.dtd">
<!-- Generated by graphviz version 2.40.1 (20161225.0304)
 -->
<!-- Title: jf.h Pages: 1 -->
<svg width="319pt" height="84pt"
 viewBox="0.00 0.00 319.00 84.00" xmlns="http://www.w3.org/2000/svg" xmlns:xlink="http://www.w3.org/1999/xlink">
<g id="graph0" class="graph" transform="scale(1 1) rotate(0) translate(4 80)">
<title>jf.h</title>
<polygon fill="#ffffff" stroke="transparent" points="-4,4 -4,-80 315,-80 315,4 -4,4"/>
<!-- Node0 -->
<g id="node1" class="node">
<title>Node0</title>
<polygon fill="#bfbfbf" stroke="#000000" points="138.5,-56.5 138.5,-75.5 168.5,-75.5 168.5,-56.5 138.5,-56.5"/>
<text text-anchor="middle" x="153.5" y="-63.5" font-family="Helvetica,sans-Serif" font-size="10.00" fill="#000000">jf.h</text>
</g>
<!-- Node1 -->
<g id="node2" class="node">
<title>Node1</title>
<polygon fill="#ffffff" stroke="#bfbfbf" points="0,-.5 0,-19.5 47,-19.5 47,-.5 0,-.5"/>
<text text-anchor="middle" x="23.5" y="-7.5" font-family="Helvetica,sans-Serif" font-size="10.00" fill="#000000">math.h</text>
</g>
<!-- Node0&#45;&gt;Node1 -->
<g id="edge1" class="edge">
<title>Node0&#45;&gt;Node1</title>
<path fill="none" stroke="#191970" d="M138.3329,-59.4665C118.0512,-50.7298 81.5925,-35.0245 55.1863,-23.6495"/>
<polygon fill="#191970" stroke="#191970" points="56.53,-20.4174 45.9611,-19.6756 53.7606,-26.8463 56.53,-20.4174"/>
</g>
<!-- Node2 -->
<g id="node3" class="node">
<title>Node2</title>
<polygon fill="#ffffff" stroke="#bfbfbf" points="65.5,-.5 65.5,-19.5 111.5,-19.5 111.5,-.5 65.5,-.5"/>
<text text-anchor="middle" x="88.5" y="-7.5" font-family="Helvetica,sans-Serif" font-size="10.00" fill="#000000">stdio.h</text>
</g>
<!-- Node0&#45;&gt;Node2 -->
<g id="edge2" class="edge">
<title>Node0&#45;&gt;Node2</title>
<path fill="none" stroke="#191970" d="M142.1779,-56.2455C132.5777,-47.9746 118.6108,-35.9416 107.3305,-26.2232"/>
<polygon fill="#191970" stroke="#191970" points="109.553,-23.5182 99.6924,-19.6427 104.984,-28.8214 109.553,-23.5182"/>
</g>
<!-- Node3 -->
<g id="node4" class="node">
<title>Node3</title>
<polygon fill="#ffffff" stroke="#bfbfbf" points="129.5,-.5 129.5,-19.5 177.5,-19.5 177.5,-.5 129.5,-.5"/>
<text text-anchor="middle" x="153.5" y="-7.5" font-family="Helvetica,sans-Serif" font-size="10.00" fill="#000000">conio.h</text>
</g>
<!-- Node0&#45;&gt;Node3 -->
<g id="edge3" class="edge">
<title>Node0&#45;&gt;Node3</title>
<path fill="none" stroke="#191970" d="M153.5,-56.2455C153.5,-48.9382 153.5,-38.6944 153.5,-29.7046"/>
<polygon fill="#191970" stroke="#191970" points="157.0001,-29.6426 153.5,-19.6427 150.0001,-29.6427 157.0001,-29.6426"/>
</g>
<!-- Node4 -->
<g id="node5" class="node">
<title>Node4</title>
<polygon fill="#ffffff" stroke="#bfbfbf" points="195.5,-.5 195.5,-19.5 243.5,-19.5 243.5,-.5 195.5,-.5"/>
<text text-anchor="middle" x="219.5" y="-7.5" font-family="Helvetica,sans-Serif" font-size="10.00" fill="#000000">stdlib.h</text>
</g>
<!-- Node0&#45;&gt;Node4 -->
<g id="edge4" class="edge">
<title>Node0&#45;&gt;Node4</title>
<path fill="none" stroke="#191970" d="M164.9963,-56.2455C174.7442,-47.9746 188.9259,-35.9416 200.3798,-26.2232"/>
<polygon fill="#191970" stroke="#191970" points="202.7747,-28.7813 208.1354,-19.6427 198.2459,-23.4437 202.7747,-28.7813"/>
</g>
<!-- Node5 -->
<g id="node6" class="node">
<title>Node5</title>
<polygon fill="#ffffff" stroke="#bfbfbf" points="262,-.5 262,-19.5 311,-19.5 311,-.5 262,-.5"/>
<text text-anchor="middle" x="286.5" y="-7.5" font-family="Helvetica,sans-Serif" font-size="10.00" fill="#000000">string.h</text>
</g>
<!-- Node0&#45;&gt;Node5 -->
<g id="edge5" class="edge">
<title>Node0&#45;&gt;Node5</title>
<path fill="none" stroke="#191970" d="M168.7568,-59.5761C189.5398,-50.8253 227.2662,-34.9405 254.4209,-23.507"/>
<polygon fill="#191970" stroke="#191970" points="256.0379,-26.6238 263.896,-19.5175 253.3214,-20.1724 256.0379,-26.6238"/>
</g>
</g>
</svg>
