<?xml version="1.0" encoding="UTF-8" standalone="no"?>
<!DOCTYPE svg PUBLIC "-//W3C//DTD SVG 1.1//EN"
 "http://www.w3.org/Graphics/SVG/1.1/DTD/svg11.dtd">
<!-- Generated by graphviz version 2.40.1 (20161225.0304)
 -->
<!-- Title: mesh.h Pages: 1 -->
<svg width="1180pt" height="140pt"
 viewBox="0.00 0.00 1179.50 140.00" xmlns="http://www.w3.org/2000/svg" xmlns:xlink="http://www.w3.org/1999/xlink">
<g id="graph0" class="graph" transform="scale(1 1) rotate(0) translate(4 136)">
<title>mesh.h</title>
<polygon fill="#ffffff" stroke="transparent" points="-4,4 -4,-136 1175.5,-136 1175.5,4 -4,4"/>
<!-- Node11 -->
<g id="node1" class="node">
<title>Node11</title>
<polygon fill="#bfbfbf" stroke="#000000" points="808.5,-112.5 808.5,-131.5 857.5,-131.5 857.5,-112.5 808.5,-112.5"/>
<text text-anchor="middle" x="833" y="-119.5" font-family="Helvetica,sans-Serif" font-size="10.00" fill="#000000">mesh.h</text>
</g>
<!-- Node12 -->
<g id="node2" class="node">
<title>Node12</title>
<g id="a_node2"><a xlink:href="mesh_8cpp.html" target="_top" xlink:title="mesh.cpp">
<polygon fill="#ffffff" stroke="#000000" points="484.5,-56.5 484.5,-75.5 543.5,-75.5 543.5,-56.5 484.5,-56.5"/>
<text text-anchor="middle" x="514" y="-63.5" font-family="Helvetica,sans-Serif" font-size="10.00" fill="#000000">mesh.cpp</text>
</a>
</g>
</g>
<!-- Node11&#45;&gt;Node12 -->
<g id="edge1" class="edge">
<title>Node11&#45;&gt;Node12</title>
<path fill="none" stroke="#191970" d="M798.1788,-116.8352C745.8707,-108.9278 643.9751,-92.9459 558,-76 553.3885,-75.0911 548.5217,-74.0589 543.7725,-73.0111"/>
<polygon fill="#191970" stroke="#191970" points="797.853,-120.3255 808.2624,-118.3523 798.8944,-113.4034 797.853,-120.3255"/>
</g>
<!-- Node13 -->
<g id="node3" class="node">
<title>Node13</title>
<g id="a_node3"><a xlink:href="_mesh_adapt_p_u_m_i_8h.html" target="_top" xlink:title="MeshAdaptPUMI.h">
<polygon fill="#ffffff" stroke="#000000" points="600,-56.5 600,-75.5 700,-75.5 700,-56.5 600,-56.5"/>
<text text-anchor="middle" x="650" y="-63.5" font-family="Helvetica,sans-Serif" font-size="10.00" fill="#000000">MeshAdaptPUMI.h</text>
</a>
</g>
</g>
<!-- Node11&#45;&gt;Node13 -->
<g id="edge2" class="edge">
<title>Node11&#45;&gt;Node13</title>
<path fill="none" stroke="#191970" d="M798.4447,-111.4257C764.7274,-101.1078 713.8866,-85.55 681.3207,-75.5845"/>
<polygon fill="#191970" stroke="#191970" points="797.7333,-114.8682 808.3198,-114.4476 799.7817,-108.1745 797.7333,-114.8682"/>
</g>
<!-- Node17 -->
<g id="node7" class="node">
<title>Node17</title>
<g id="a_node7"><a xlink:href="_mesh_converter_8cpp.html" target="_top" xlink:title="MeshConverter.cpp">
<polygon fill="#ffffff" stroke="#000000" points="0,-.5 0,-19.5 102,-19.5 102,-.5 0,-.5"/>
<text text-anchor="middle" x="51" y="-7.5" font-family="Helvetica,sans-Serif" font-size="10.00" fill="#000000">MeshConverter.cpp</text>
</a>
</g>
</g>
<!-- Node11&#45;&gt;Node17 -->
<g id="edge14" class="edge">
<title>Node11&#45;&gt;Node17</title>
<path fill="none" stroke="#191970" d="M798.2484,-118.5537C750.5129,-113.1151 662.4456,-100.5395 591,-76 572.5768,-69.6722 570.7336,-61.3393 552,-56 362.8794,-2.0981 306.159,-44.1859 111,-20 108.0655,-19.6363 105.0552,-19.2326 102.0208,-18.8019"/>
<polygon fill="#191970" stroke="#191970" points="798.0394,-122.0518 808.3625,-119.6673 798.8056,-115.0938 798.0394,-122.0518"/>
</g>
<!-- Node19 -->
<g id="node9" class="node">
<title>Node19</title>
<g id="a_node9"><a xlink:href="_parallel_mesh_converter_8cpp.html" target="_top" xlink:title="ParallelMeshConverter.cpp">
<polygon fill="#ffffff" stroke="#000000" points="832,-.5 832,-19.5 966,-19.5 966,-.5 832,-.5"/>
<text text-anchor="middle" x="899" y="-7.5" font-family="Helvetica,sans-Serif" font-size="10.00" fill="#000000">ParallelMeshConverter.cpp</text>
</a>
</g>
</g>
<!-- Node11&#45;&gt;Node19 -->
<g id="edge15" class="edge">
<title>Node11&#45;&gt;Node19</title>
<path fill="none" stroke="#191970" d="M836.2628,-102.6167C839.1775,-88.8884 844.3568,-70.4251 853,-56 861.7074,-41.4679 876.0036,-28.1727 886.3499,-19.6542"/>
<polygon fill="#191970" stroke="#191970" points="832.8241,-101.9651 834.388,-112.4439 839.7001,-103.277 832.8241,-101.9651"/>
</g>
<!-- Node22 -->
<g id="node12" class="node">
<title>Node22</title>
<g id="a_node12"><a xlink:href="_dump_mesh_8h.html" target="_top" xlink:title="DumpMesh.h">
<polygon fill="#ffffff" stroke="#000000" points="861.5,-56.5 861.5,-75.5 936.5,-75.5 936.5,-56.5 861.5,-56.5"/>
<text text-anchor="middle" x="899" y="-63.5" font-family="Helvetica,sans-Serif" font-size="10.00" fill="#000000">DumpMesh.h</text>
</a>
</g>
</g>
<!-- Node11&#45;&gt;Node22 -->
<g id="edge11" class="edge">
<title>Node11&#45;&gt;Node22</title>
<path fill="none" stroke="#191970" d="M852.2755,-105.645C863.7538,-95.9058 877.9277,-83.8795 887.6354,-75.6427"/>
<polygon fill="#191970" stroke="#191970" points="849.857,-103.1069 844.4963,-112.2455 854.3859,-108.4445 849.857,-103.1069"/>
</g>
<!-- Node24 -->
<g id="node14" class="node">
<title>Node24</title>
<g id="a_node14"><a xlink:href="partitioning_8h.html" target="_top" xlink:title="partitioning.h">
<polygon fill="#ffffff" stroke="#000000" points="955,-56.5 955,-75.5 1027,-75.5 1027,-56.5 955,-56.5"/>
<text text-anchor="middle" x="991" y="-63.5" font-family="Helvetica,sans-Serif" font-size="10.00" fill="#000000">partitioning.h</text>
</a>
</g>
</g>
<!-- Node11&#45;&gt;Node24 -->
<g id="edge16" class="edge">
<title>Node11&#45;&gt;Node24</title>
<path fill="none" stroke="#191970" d="M867.4164,-109.8018C896.4519,-99.5107 937.4334,-84.9856 964.108,-75.5314"/>
<polygon fill="#191970" stroke="#191970" points="865.9437,-106.6103 857.6875,-113.25 868.2823,-113.2082 865.9437,-106.6103"/>
</g>
<!-- Node26 -->
<g id="node16" class="node">
<title>Node26</title>
<g id="a_node16"><a xlink:href="test_mesh_8cpp.html" target="_top" xlink:title="testMesh.cpp">
<polygon fill="#ffffff" stroke="#000000" points="1045,-56.5 1045,-75.5 1121,-75.5 1121,-56.5 1045,-56.5"/>
<text text-anchor="middle" x="1083" y="-63.5" font-family="Helvetica,sans-Serif" font-size="10.00" fill="#000000">testMesh.cpp</text>
</a>
</g>
</g>
<!-- Node11&#45;&gt;Node26 -->
<g id="edge18" class="edge">
<title>Node11&#45;&gt;Node26</title>
<path fill="none" stroke="#191970" d="M867.8065,-114.2033C914.3689,-103.7734 996.643,-85.344 1044.8476,-74.5461"/>
<polygon fill="#191970" stroke="#191970" points="866.8781,-110.8245 857.8849,-116.4258 868.4082,-117.6552 866.8781,-110.8245"/>
</g>
<!-- Node14 -->
<g id="node4" class="node">
<title>Node14</title>
<g id="a_node4"><a xlink:href="c_mesh_adapt_p_u_m_i_8cpp.html" target="_top" xlink:title="cMeshAdaptPUMI.cpp">
<polygon fill="#ffffff" stroke="#000000" points="120,-.5 120,-19.5 236,-19.5 236,-.5 120,-.5"/>
<text text-anchor="middle" x="178" y="-7.5" font-family="Helvetica,sans-Serif" font-size="10.00" fill="#000000">cMeshAdaptPUMI.cpp</text>
</a>
</g>
</g>
<!-- Node13&#45;&gt;Node14 -->
<g id="edge3" class="edge">
<title>Node13&#45;&gt;Node14</title>
<path fill="none" stroke="#191970" d="M589.7999,-56.5063C588.5223,-56.3331 587.2545,-56.1641 586,-56 434.8899,-36.2305 396.1768,-39.2528 245,-20 242.0834,-19.6286 239.0974,-19.2343 236.0835,-18.8252"/>
<polygon fill="#191970" stroke="#191970" points="589.3353,-59.9753 599.7254,-57.9024 590.3104,-53.0436 589.3353,-59.9753"/>
</g>
<!-- Node15 -->
<g id="node5" class="node">
<title>Node15</title>
<g id="a_node5"><a xlink:href="create_analytic_geometry_8cpp.html" target="_top" xlink:title="createAnalyticGeometry.cpp">
<polygon fill="#ffffff" stroke="#000000" points="254,-.5 254,-19.5 394,-19.5 394,-.5 254,-.5"/>
<text text-anchor="middle" x="324" y="-7.5" font-family="Helvetica,sans-Serif" font-size="10.00" fill="#000000">createAnalyticGeometry.cpp</text>
</a>
</g>
</g>
<!-- Node13&#45;&gt;Node15 -->
<g id="edge4" class="edge">
<title>Node13&#45;&gt;Node15</title>
<path fill="none" stroke="#191970" d="M589.6636,-55.6355C529.4982,-45.3003 437.86,-29.5588 379.4666,-19.528"/>
<polygon fill="#191970" stroke="#191970" points="589.3287,-59.1291 599.7769,-57.3727 590.5139,-52.2302 589.3287,-59.1291"/>
</g>
<!-- Node16 -->
<g id="node6" class="node">
<title>Node16</title>
<g id="a_node6"><a xlink:href="_error_residual_method_8cpp.html" target="_top" xlink:title="ErrorResidualMethod.cpp">
<polygon fill="#ffffff" stroke="#000000" points="412.5,-.5 412.5,-19.5 539.5,-19.5 539.5,-.5 412.5,-.5"/>
<text text-anchor="middle" x="476" y="-7.5" font-family="Helvetica,sans-Serif" font-size="10.00" fill="#000000">ErrorResidualMethod.cpp</text>
</a>
</g>
</g>
<!-- Node13&#45;&gt;Node16 -->
<g id="edge5" class="edge">
<title>Node13&#45;&gt;Node16</title>
<path fill="none" stroke="#191970" d="M610.199,-53.1905C578.321,-42.9309 534.3184,-28.7691 505.5213,-19.5011"/>
<polygon fill="#191970" stroke="#191970" points="609.4969,-56.6413 620.0883,-56.3733 611.6415,-49.9779 609.4969,-56.6413"/>
</g>
<!-- Node13&#45;&gt;Node17 -->
<g id="edge6" class="edge">
<title>Node13&#45;&gt;Node17</title>
<path fill="none" stroke="#191970" d="M589.8061,-56.4554C588.5267,-56.2977 587.2568,-56.1456 586,-56 375.6897,-31.6388 321.184,-45.4285 111,-20 108.0645,-19.6449 105.0534,-19.2478 102.0183,-18.8222"/>
<polygon fill="#191970" stroke="#191970" points="589.3719,-59.9284 599.7428,-57.7616 590.2842,-52.9881 589.3719,-59.9284"/>
</g>
<!-- Node18 -->
<g id="node8" class="node">
<title>Node18</title>
<g id="a_node8"><a xlink:href="_mesh_fields_8cpp.html" target="_top" xlink:title="MeshFields.cpp">
<polygon fill="#ffffff" stroke="#000000" points="558,-.5 558,-19.5 644,-19.5 644,-.5 558,-.5"/>
<text text-anchor="middle" x="601" y="-7.5" font-family="Helvetica,sans-Serif" font-size="10.00" fill="#000000">MeshFields.cpp</text>
</a>
</g>
</g>
<!-- Node13&#45;&gt;Node18 -->
<g id="edge7" class="edge">
<title>Node13&#45;&gt;Node18</title>
<path fill="none" stroke="#191970" d="M634.6878,-48.5004C626.3553,-38.9775 616.3647,-27.5596 609.4373,-19.6427"/>
<polygon fill="#191970" stroke="#191970" points="632.2457,-51.0245 641.4649,-56.2455 637.5138,-46.415 632.2457,-51.0245"/>
</g>
<!-- Node13&#45;&gt;Node19 -->
<g id="edge8" class="edge">
<title>Node13&#45;&gt;Node19</title>
<path fill="none" stroke="#191970" d="M702.279,-54.2425C748.1496,-43.9262 814.0133,-29.1135 856.6537,-19.5237"/>
<polygon fill="#191970" stroke="#191970" points="701.51,-50.8279 692.5217,-56.4369 703.046,-57.6573 701.51,-50.8279"/>
</g>
<!-- Node20 -->
<g id="node10" class="node">
<title>Node20</title>
<g id="a_node10"><a xlink:href="_size_field_8cpp.html" target="_top" xlink:title="SizeField.cpp">
<polygon fill="#ffffff" stroke="#000000" points="662,-.5 662,-19.5 738,-19.5 738,-.5 662,-.5"/>
<text text-anchor="middle" x="700" y="-7.5" font-family="Helvetica,sans-Serif" font-size="10.00" fill="#000000">SizeField.cpp</text>
</a>
</g>
</g>
<!-- Node13&#45;&gt;Node20 -->
<g id="edge9" class="edge">
<title>Node13&#45;&gt;Node20</title>
<path fill="none" stroke="#191970" d="M665.6247,-48.5004C674.1273,-38.9775 684.3218,-27.5596 691.3905,-19.6427"/>
<polygon fill="#191970" stroke="#191970" points="662.7587,-46.4551 658.7093,-56.2455 667.9803,-51.1172 662.7587,-46.4551"/>
</g>
<!-- Node21 -->
<g id="node11" class="node">
<title>Node21</title>
<g id="a_node11"><a xlink:href="_v_m_s_8cpp.html" target="_top" xlink:title="VMS.cpp">
<polygon fill="#ffffff" stroke="#000000" points="756.5,-.5 756.5,-19.5 813.5,-19.5 813.5,-.5 756.5,-.5"/>
<text text-anchor="middle" x="785" y="-7.5" font-family="Helvetica,sans-Serif" font-size="10.00" fill="#000000">VMS.cpp</text>
</a>
</g>
</g>
<!-- Node13&#45;&gt;Node21 -->
<g id="edge10" class="edge">
<title>Node13&#45;&gt;Node21</title>
<path fill="none" stroke="#191970" d="M682.4991,-52.5189C707.0854,-42.3201 740.2366,-28.5685 762.0955,-19.5011"/>
<polygon fill="#191970" stroke="#191970" points="681.1031,-49.3087 673.2073,-56.3733 683.7852,-55.7745 681.1031,-49.3087"/>
</g>
<!-- Node22&#45;&gt;Node19 -->
<g id="edge13" class="edge">
<title>Node22&#45;&gt;Node19</title>
<path fill="none" stroke="#191970" d="M899,-46.1575C899,-37.155 899,-26.9199 899,-19.6427"/>
<polygon fill="#191970" stroke="#191970" points="895.5001,-46.2455 899,-56.2455 902.5001,-46.2456 895.5001,-46.2455"/>
</g>
<!-- Node23 -->
<g id="node13" class="node">
<title>Node23</title>
<g id="a_node13"><a xlink:href="_dump_mesh_8cpp.html" target="_top" xlink:title="DumpMesh.cpp">
<polygon fill="#ffffff" stroke="#000000" points="984,-.5 984,-19.5 1070,-19.5 1070,-.5 984,-.5"/>
<text text-anchor="middle" x="1027" y="-7.5" font-family="Helvetica,sans-Serif" font-size="10.00" fill="#000000">DumpMesh.cpp</text>
</a>
</g>
</g>
<!-- Node22&#45;&gt;Node23 -->
<g id="edge12" class="edge">
<title>Node22&#45;&gt;Node23</title>
<path fill="none" stroke="#191970" d="M930.4348,-52.2473C953.6809,-42.0771 984.7411,-28.4883 1005.2831,-19.5011"/>
<polygon fill="#191970" stroke="#191970" points="928.7627,-49.1585 921.004,-56.3733 931.5685,-55.5716 928.7627,-49.1585"/>
</g>
<!-- Node25 -->
<g id="node15" class="node">
<title>Node25</title>
<g id="a_node15"><a xlink:href="partitioning_8cpp.html" target="_top" xlink:title="partitioning.cpp">
<polygon fill="#ffffff" stroke="#000000" points="1088.5,-.5 1088.5,-19.5 1171.5,-19.5 1171.5,-.5 1088.5,-.5"/>
<text text-anchor="middle" x="1130" y="-7.5" font-family="Helvetica,sans-Serif" font-size="10.00" fill="#000000">partitioning.cpp</text>
</a>
</g>
</g>
<!-- Node24&#45;&gt;Node25 -->
<g id="edge17" class="edge">
<title>Node24&#45;&gt;Node25</title>
<path fill="none" stroke="#191970" d="M1024.4621,-52.5189C1049.7769,-42.3201 1083.9103,-28.5685 1106.4169,-19.5011"/>
<polygon fill="#191970" stroke="#191970" points="1022.8626,-49.3899 1014.895,-56.3733 1025.4784,-55.8827 1022.8626,-49.3899"/>
</g>
</g>
</svg>
