<?xml version="1.0" encoding="UTF-8" standalone="no"?>
<!DOCTYPE svg PUBLIC "-//W3C//DTD SVG 1.1//EN"
 "http://www.w3.org/Graphics/SVG/1.1/DTD/svg11.dtd">
<!-- Generated by graphviz version 2.40.1 (20161225.0304)
 -->
<!-- Title: meshio.h Pages: 1 -->
<svg width="248pt" height="140pt"
 viewBox="0.00 0.00 248.00 140.00" xmlns="http://www.w3.org/2000/svg" xmlns:xlink="http://www.w3.org/1999/xlink">
<g id="graph0" class="graph" transform="scale(1 1) rotate(0) translate(4 136)">
<title>meshio.h</title>
<polygon fill="#ffffff" stroke="transparent" points="-4,4 -4,-136 244,-136 244,4 -4,4"/>
<!-- Node3 -->
<g id="node1" class="node">
<title>Node3</title>
<polygon fill="#bfbfbf" stroke="#000000" points="82.5,-112.5 82.5,-131.5 138.5,-131.5 138.5,-112.5 82.5,-112.5"/>
<text text-anchor="middle" x="110.5" y="-119.5" font-family="Helvetica,sans-Serif" font-size="10.00" fill="#000000">meshio.h</text>
</g>
<!-- Node4 -->
<g id="node2" class="node">
<title>Node4</title>
<g id="a_node2"><a xlink:href="mesh_8cpp.html" target="_top" xlink:title="mesh.cpp">
<polygon fill="#ffffff" stroke="#000000" points="0,-56.5 0,-75.5 59,-75.5 59,-56.5 0,-56.5"/>
<text text-anchor="middle" x="29.5" y="-63.5" font-family="Helvetica,sans-Serif" font-size="10.00" fill="#000000">mesh.cpp</text>
</a>
</g>
</g>
<!-- Node3&#45;&gt;Node4 -->
<g id="edge1" class="edge">
<title>Node3&#45;&gt;Node4</title>
<path fill="none" stroke="#191970" d="M88.066,-106.49C73.7746,-96.6096 55.7084,-84.1194 43.4474,-75.6427"/>
<polygon fill="#191970" stroke="#191970" points="86.1749,-109.4376 96.3909,-112.2455 90.1557,-103.6797 86.1749,-109.4376"/>
</g>
<!-- Node5 -->
<g id="node3" class="node">
<title>Node5</title>
<g id="a_node3"><a xlink:href="meshio_8cpp.html" target="_top" xlink:title="meshio.cpp">
<polygon fill="#ffffff" stroke="#000000" points="77,-56.5 77,-75.5 144,-75.5 144,-56.5 77,-56.5"/>
<text text-anchor="middle" x="110.5" y="-63.5" font-family="Helvetica,sans-Serif" font-size="10.00" fill="#000000">meshio.cpp</text>
</a>
</g>
</g>
<!-- Node3&#45;&gt;Node5 -->
<g id="edge2" class="edge">
<title>Node3&#45;&gt;Node5</title>
<path fill="none" stroke="#191970" d="M110.5,-102.1575C110.5,-93.155 110.5,-82.9199 110.5,-75.6427"/>
<polygon fill="#191970" stroke="#191970" points="107.0001,-102.2455 110.5,-112.2455 114.0001,-102.2456 107.0001,-102.2455"/>
</g>
<!-- Node6 -->
<g id="node4" class="node">
<title>Node6</title>
<g id="a_node4"><a xlink:href="partitioning_8h.html" target="_top" xlink:title="partitioning.h">
<polygon fill="#ffffff" stroke="#000000" points="162.5,-56.5 162.5,-75.5 234.5,-75.5 234.5,-56.5 162.5,-56.5"/>
<text text-anchor="middle" x="198.5" y="-63.5" font-family="Helvetica,sans-Serif" font-size="10.00" fill="#000000">partitioning.h</text>
</a>
</g>
</g>
<!-- Node3&#45;&gt;Node6 -->
<g id="edge3" class="edge">
<title>Node3&#45;&gt;Node6</title>
<path fill="none" stroke="#191970" d="M134.4345,-106.769C150.0283,-96.8456 169.901,-84.1994 183.3472,-75.6427"/>
<polygon fill="#191970" stroke="#191970" points="132.386,-103.9239 125.8284,-112.2455 136.1441,-109.8296 132.386,-103.9239"/>
</g>
<!-- Node7 -->
<g id="node5" class="node">
<title>Node7</title>
<g id="a_node5"><a xlink:href="partitioning_8cpp.html" target="_top" xlink:title="partitioning.cpp">
<polygon fill="#ffffff" stroke="#000000" points="157,-.5 157,-19.5 240,-19.5 240,-.5 157,-.5"/>
<text text-anchor="middle" x="198.5" y="-7.5" font-family="Helvetica,sans-Serif" font-size="10.00" fill="#000000">partitioning.cpp</text>
</a>
</g>
</g>
<!-- Node6&#45;&gt;Node7 -->
<g id="edge4" class="edge">
<title>Node6&#45;&gt;Node7</title>
<path fill="none" stroke="#191970" d="M198.5,-46.1575C198.5,-37.155 198.5,-26.9199 198.5,-19.6427"/>
<polygon fill="#191970" stroke="#191970" points="195.0001,-46.2455 198.5,-56.2455 202.0001,-46.2456 195.0001,-46.2455"/>
</g>
</g>
</svg>
