<?xml version="1.0" encoding="UTF-8" standalone="no"?>
<!DOCTYPE svg PUBLIC "-//W3C//DTD SVG 1.1//EN"
 "http://www.w3.org/Graphics/SVG/1.1/DTD/svg11.dtd">
<!-- Generated by graphviz version 2.44.1 (20200629.0846)
 -->
<!-- Title: mesh.cpp Pages: 1 -->
<svg width="613pt" height="140pt"
 viewBox="0.00 0.00 613.00 140.00" xmlns="http://www.w3.org/2000/svg" xmlns:xlink="http://www.w3.org/1999/xlink">
<g id="graph0" class="graph" transform="scale(1 1) rotate(0) translate(4 136)">
<title>mesh.cpp</title>
<polygon fill="white" stroke="transparent" points="-4,4 -4,-136 609,-136 609,4 -4,4"/>
<!-- Node1 -->
<g id="node1" class="node">
<title>Node1</title>
<g id="a_node1"><a xlink:title=" ">
<polygon fill="#bfbfbf" stroke="black" points="266.5,-112.5 266.5,-131.5 325.5,-131.5 325.5,-112.5 266.5,-112.5"/>
<text text-anchor="middle" x="296" y="-119.5" font-family="Helvetica,sans-Serif" font-size="10.00">mesh.cpp</text>
</a>
</g>
</g>
<!-- Node2 -->
<g id="node2" class="node">
<title>Node2</title>
<g id="a_node2"><a xlink:href="mesh_8h.html" target="_top" xlink:title=" ">
<polygon fill="white" stroke="black" points="218.5,-56.5 218.5,-75.5 267.5,-75.5 267.5,-56.5 218.5,-56.5"/>
<text text-anchor="middle" x="243" y="-63.5" font-family="Helvetica,sans-Serif" font-size="10.00">mesh.h</text>
</a>
</g>
</g>
<!-- Node1&#45;&gt;Node2 -->
<g id="edge1" class="edge">
<title>Node1&#45;&gt;Node2</title>
<path fill="none" stroke="midnightblue" d="M287.25,-112.08C279.53,-104.22 268.1,-92.57 258.78,-83.08"/>
<polygon fill="midnightblue" stroke="midnightblue" points="261.09,-80.44 251.59,-75.75 256.1,-85.34 261.09,-80.44"/>
</g>
<!-- Node3 -->
<g id="node3" class="node">
<title>Node3</title>
<g id="a_node3"><a xlink:title=" ">
<polygon fill="white" stroke="#bfbfbf" points="0,-0.5 0,-19.5 30,-19.5 30,-0.5 0,-0.5"/>
<text text-anchor="middle" x="15" y="-7.5" font-family="Helvetica,sans-Serif" font-size="10.00">set</text>
</a>
</g>
</g>
<!-- Node1&#45;&gt;Node3 -->
<g id="edge15" class="edge">
<title>Node1&#45;&gt;Node3</title>
<path fill="none" stroke="midnightblue" d="M266.18,-119.51C223.91,-116.35 145.15,-106.51 86,-76 62.91,-64.09 41.67,-42.67 28.56,-27.68"/>
<polygon fill="midnightblue" stroke="midnightblue" points="30.96,-25.1 21.83,-19.73 25.61,-29.62 30.96,-25.1"/>
</g>
<!-- Node8 -->
<g id="node8" class="node">
<title>Node8</title>
<g id="a_node8"><a xlink:title=" ">
<polygon fill="white" stroke="#bfbfbf" points="48,-0.5 48,-19.5 102,-19.5 102,-0.5 48,-0.5"/>
<text text-anchor="middle" x="75" y="-7.5" font-family="Helvetica,sans-Serif" font-size="10.00">iostream</text>
</a>
</g>
</g>
<!-- Node1&#45;&gt;Node8 -->
<g id="edge19" class="edge">
<title>Node1&#45;&gt;Node8</title>
<path fill="none" stroke="midnightblue" d="M266.35,-121.69C225.54,-121.09 151.83,-114.25 105,-76 90.73,-64.35 82.93,-44.4 78.89,-29.67"/>
<polygon fill="midnightblue" stroke="midnightblue" points="82.22,-28.55 76.49,-19.64 75.41,-30.18 82.22,-28.55"/>
</g>
<!-- Node10 -->
<g id="node10" class="node">
<title>Node10</title>
<g id="a_node10"><a xlink:title=" ">
<polygon fill="white" stroke="#bfbfbf" points="555,-0.5 555,-19.5 605,-19.5 605,-0.5 555,-0.5"/>
<text text-anchor="middle" x="580" y="-7.5" font-family="Helvetica,sans-Serif" font-size="10.00">fstream</text>
</a>
</g>
</g>
<!-- Node1&#45;&gt;Node10 -->
<g id="edge20" class="edge">
<title>Node1&#45;&gt;Node10</title>
<path fill="none" stroke="midnightblue" d="M295.94,-112.3C296.36,-98.18 299.4,-70.38 316,-56 391.84,9.69 441.66,-38.17 544.98,-19.89"/>
<polygon fill="midnightblue" stroke="midnightblue" points="545.67,-23.32 554.82,-17.98 544.33,-16.45 545.67,-23.32"/>
</g>
<!-- Node13 -->
<g id="node13" class="node">
<title>Node13</title>
<g id="a_node13"><a xlink:href="meshio_8h.html" target="_top" xlink:title=" ">
<polygon fill="white" stroke="black" points="114,-56.5 114,-75.5 170,-75.5 170,-56.5 114,-56.5"/>
<text text-anchor="middle" x="142" y="-63.5" font-family="Helvetica,sans-Serif" font-size="10.00">meshio.h</text>
</a>
</g>
</g>
<!-- Node1&#45;&gt;Node13 -->
<g id="edge12" class="edge">
<title>Node1&#45;&gt;Node13</title>
<path fill="none" stroke="midnightblue" d="M271.6,-112.44C245.8,-103.4 204.92,-89.06 175.98,-78.92"/>
<polygon fill="midnightblue" stroke="midnightblue" points="176.88,-75.52 166.29,-75.52 174.57,-82.13 176.88,-75.52"/>
</g>
<!-- Node14 -->
<g id="node14" class="node">
<title>Node14</title>
<g id="a_node14"><a xlink:title=" ">
<polygon fill="white" stroke="#bfbfbf" points="324.5,-56.5 324.5,-75.5 375.5,-75.5 375.5,-56.5 324.5,-56.5"/>
<text text-anchor="middle" x="350" y="-63.5" font-family="Helvetica,sans-Serif" font-size="10.00">valarray</text>
</a>
</g>
</g>
<!-- Node1&#45;&gt;Node14 -->
<g id="edge16" class="edge">
<title>Node1&#45;&gt;Node14</title>
<path fill="none" stroke="midnightblue" d="M304.92,-112.08C312.78,-104.22 324.43,-92.57 333.92,-83.08"/>
<polygon fill="midnightblue" stroke="midnightblue" points="336.65,-85.3 341.25,-75.75 331.7,-80.35 336.65,-85.3"/>
</g>
<!-- Node15 -->
<g id="node15" class="node">
<title>Node15</title>
<g id="a_node15"><a xlink:title=" ">
<polygon fill="white" stroke="#bfbfbf" points="393.5,-56.5 393.5,-75.5 434.5,-75.5 434.5,-56.5 393.5,-56.5"/>
<text text-anchor="middle" x="414" y="-63.5" font-family="Helvetica,sans-Serif" font-size="10.00">string</text>
</a>
</g>
</g>
<!-- Node1&#45;&gt;Node15 -->
<g id="edge17" class="edge">
<title>Node1&#45;&gt;Node15</title>
<path fill="none" stroke="midnightblue" d="M314.7,-112.44C333.94,-103.64 364.15,-89.81 386.2,-79.72"/>
<polygon fill="midnightblue" stroke="midnightblue" points="387.75,-82.86 395.39,-75.52 384.84,-76.5 387.75,-82.86"/>
</g>
<!-- Node16 -->
<g id="node16" class="node">
<title>Node16</title>
<g id="a_node16"><a xlink:title=" ">
<polygon fill="white" stroke="#bfbfbf" points="453,-56.5 453,-75.5 505,-75.5 505,-56.5 453,-56.5"/>
<text text-anchor="middle" x="479" y="-63.5" font-family="Helvetica,sans-Serif" font-size="10.00">sstream</text>
</a>
</g>
</g>
<!-- Node1&#45;&gt;Node16 -->
<g id="edge18" class="edge">
<title>Node1&#45;&gt;Node16</title>
<path fill="none" stroke="midnightblue" d="M325,-112.44C357.01,-103 408.58,-87.78 443.11,-77.59"/>
<polygon fill="midnightblue" stroke="midnightblue" points="444.21,-80.92 452.81,-74.73 442.23,-74.2 444.21,-80.92"/>
</g>
<!-- Node17 -->
<g id="node17" class="node">
<title>Node17</title>
<g id="a_node17"><a xlink:title=" ">
<polygon fill="white" stroke="#bfbfbf" points="523,-56.5 523,-75.5 569,-75.5 569,-56.5 523,-56.5"/>
<text text-anchor="middle" x="546" y="-63.5" font-family="Helvetica,sans-Serif" font-size="10.00">cstring</text>
</a>
</g>
</g>
<!-- Node1&#45;&gt;Node17 -->
<g id="edge21" class="edge">
<title>Node1&#45;&gt;Node17</title>
<path fill="none" stroke="midnightblue" d="M325.77,-115.55C366.07,-108.01 440.42,-93.58 513.19,-76.06"/>
<polygon fill="midnightblue" stroke="midnightblue" points="514.09,-79.45 522.98,-73.68 512.44,-72.64 514.09,-79.45"/>
</g>
<!-- Node2&#45;&gt;Node3 -->
<g id="edge2" class="edge">
<title>Node2&#45;&gt;Node3</title>
<path fill="none" stroke="midnightblue" d="M218.22,-60.71C181.28,-54.06 109.47,-40.17 39.92,-19.94"/>
<polygon fill="midnightblue" stroke="midnightblue" points="40.71,-16.52 30.13,-17.04 38.72,-23.23 40.71,-16.52"/>
</g>
<!-- Node4 -->
<g id="node4" class="node">
<title>Node4</title>
<g id="a_node4"><a xlink:title=" ">
<polygon fill="white" stroke="#bfbfbf" points="120,-0.5 120,-19.5 164,-19.5 164,-0.5 120,-0.5"/>
<text text-anchor="middle" x="142" y="-7.5" font-family="Helvetica,sans-Serif" font-size="10.00">vector</text>
</a>
</g>
</g>
<!-- Node2&#45;&gt;Node4 -->
<g id="edge3" class="edge">
<title>Node2&#45;&gt;Node4</title>
<path fill="none" stroke="midnightblue" d="M226.77,-56.32C210.65,-47.7 185.7,-34.36 167.04,-24.39"/>
<polygon fill="midnightblue" stroke="midnightblue" points="168.66,-21.28 158.19,-19.65 165.36,-27.46 168.66,-21.28"/>
</g>
<!-- Node5 -->
<g id="node5" class="node">
<title>Node5</title>
<g id="a_node5"><a xlink:title=" ">
<polygon fill="white" stroke="#bfbfbf" points="182,-0.5 182,-19.5 238,-19.5 238,-0.5 182,-0.5"/>
<text text-anchor="middle" x="210" y="-7.5" font-family="Helvetica,sans-Serif" font-size="10.00">algorithm</text>
</a>
</g>
</g>
<!-- Node2&#45;&gt;Node5 -->
<g id="edge4" class="edge">
<title>Node2&#45;&gt;Node5</title>
<path fill="none" stroke="midnightblue" d="M237.55,-56.08C232.99,-48.61 226.33,-37.72 220.71,-28.52"/>
<polygon fill="midnightblue" stroke="midnightblue" points="223.55,-26.46 215.35,-19.75 217.58,-30.11 223.55,-26.46"/>
</g>
<!-- Node6 -->
<g id="node6" class="node">
<title>Node6</title>
<g id="a_node6"><a xlink:title=" ">
<polygon fill="white" stroke="#bfbfbf" points="256.5,-0.5 256.5,-19.5 291.5,-19.5 291.5,-0.5 256.5,-0.5"/>
<text text-anchor="middle" x="274" y="-7.5" font-family="Helvetica,sans-Serif" font-size="10.00">map</text>
</a>
</g>
</g>
<!-- Node2&#45;&gt;Node6 -->
<g id="edge5" class="edge">
<title>Node2&#45;&gt;Node6</title>
<path fill="none" stroke="midnightblue" d="M248.12,-56.08C252.41,-48.61 258.66,-37.72 263.94,-28.52"/>
<polygon fill="midnightblue" stroke="midnightblue" points="267.03,-30.17 268.98,-19.75 260.96,-26.68 267.03,-30.17"/>
</g>
<!-- Node7 -->
<g id="node7" class="node">
<title>Node7</title>
<g id="a_node7"><a xlink:title=" ">
<polygon fill="white" stroke="#bfbfbf" points="309.5,-0.5 309.5,-19.5 338.5,-19.5 338.5,-0.5 309.5,-0.5"/>
<text text-anchor="middle" x="324" y="-7.5" font-family="Helvetica,sans-Serif" font-size="10.00">list</text>
</a>
</g>
</g>
<!-- Node2&#45;&gt;Node7 -->
<g id="edge6" class="edge">
<title>Node2&#45;&gt;Node7</title>
<path fill="none" stroke="midnightblue" d="M256.01,-56.32C268.53,-47.98 287.68,-35.21 302.47,-25.35"/>
<polygon fill="midnightblue" stroke="midnightblue" points="304.64,-28.11 311.02,-19.65 300.76,-22.29 304.64,-28.11"/>
</g>
<!-- Node2&#45;&gt;Node8 -->
<g id="edge7" class="edge">
<title>Node2&#45;&gt;Node8</title>
<path fill="none" stroke="midnightblue" d="M218.21,-57.03C189.92,-47.94 143.4,-32.99 111.09,-22.6"/>
<polygon fill="midnightblue" stroke="midnightblue" points="112.15,-19.26 101.56,-19.54 110.01,-25.93 112.15,-19.26"/>
</g>
<!-- Node9 -->
<g id="node9" class="node">
<title>Node9</title>
<g id="a_node9"><a xlink:title=" ">
<polygon fill="white" stroke="#bfbfbf" points="357,-0.5 357,-19.5 407,-19.5 407,-0.5 357,-0.5"/>
<text text-anchor="middle" x="382" y="-7.5" font-family="Helvetica,sans-Serif" font-size="10.00">iomanip</text>
</a>
</g>
</g>
<!-- Node2&#45;&gt;Node9 -->
<g id="edge8" class="edge">
<title>Node2&#45;&gt;Node9</title>
<path fill="none" stroke="midnightblue" d="M265.02,-56.44C288.1,-47.48 324.56,-33.31 350.64,-23.18"/>
<polygon fill="midnightblue" stroke="midnightblue" points="352.02,-26.4 360.08,-19.52 349.49,-19.88 352.02,-26.4"/>
</g>
<!-- Node2&#45;&gt;Node10 -->
<g id="edge9" class="edge">
<title>Node2&#45;&gt;Node10</title>
<path fill="none" stroke="midnightblue" d="M267.69,-58.95C272.42,-57.89 277.35,-56.85 282,-56 395.3,-35.25 428.09,-42.75 544.79,-20.02"/>
<polygon fill="midnightblue" stroke="midnightblue" points="545.7,-23.41 554.83,-18.03 544.34,-16.54 545.7,-23.41"/>
</g>
<!-- Node11 -->
<g id="node11" class="node">
<title>Node11</title>
<g id="a_node11"><a xlink:title=" ">
<polygon fill="white" stroke="#bfbfbf" points="425.5,-0.5 425.5,-19.5 474.5,-19.5 474.5,-0.5 425.5,-0.5"/>
<text text-anchor="middle" x="450" y="-7.5" font-family="Helvetica,sans-Serif" font-size="10.00">cassert</text>
</a>
</g>
</g>
<!-- Node2&#45;&gt;Node11 -->
<g id="edge10" class="edge">
<title>Node2&#45;&gt;Node11</title>
<path fill="none" stroke="midnightblue" d="M267.65,-58.62C299.44,-50.39 356.71,-35.54 415.64,-20.09"/>
<polygon fill="midnightblue" stroke="midnightblue" points="416.7,-23.42 425.49,-17.5 414.93,-16.65 416.7,-23.42"/>
</g>
<!-- Node12 -->
<g id="node12" class="node">
<title>Node12</title>
<g id="a_node12"><a xlink:title=" ">
<polygon fill="white" stroke="#bfbfbf" points="493,-0.5 493,-19.5 537,-19.5 537,-0.5 493,-0.5"/>
<text text-anchor="middle" x="515" y="-7.5" font-family="Helvetica,sans-Serif" font-size="10.00">cmath</text>
</a>
</g>
</g>
<!-- Node2&#45;&gt;Node12 -->
<g id="edge11" class="edge">
<title>Node2&#45;&gt;Node12</title>
<path fill="none" stroke="midnightblue" d="M267.72,-59.1C272.45,-58.02 277.37,-56.95 282,-56 368.29,-38.37 393.49,-40.56 482.98,-20.04"/>
<polygon fill="midnightblue" stroke="midnightblue" points="483.78,-23.45 492.72,-17.77 482.19,-16.63 483.78,-23.45"/>
</g>
<!-- Node13&#45;&gt;Node4 -->
<g id="edge14" class="edge">
<title>Node13&#45;&gt;Node4</title>
<path fill="none" stroke="midnightblue" d="M142,-56.08C142,-49.01 142,-38.86 142,-29.99"/>
<polygon fill="midnightblue" stroke="midnightblue" points="145.5,-29.75 142,-19.75 138.5,-29.75 145.5,-29.75"/>
</g>
<!-- Node13&#45;&gt;Node8 -->
<g id="edge13" class="edge">
<title>Node13&#45;&gt;Node8</title>
<path fill="none" stroke="midnightblue" d="M131.24,-56.32C121.23,-48.26 106.11,-36.08 94.07,-26.37"/>
<polygon fill="midnightblue" stroke="midnightblue" points="95.94,-23.38 85.96,-19.83 91.55,-28.83 95.94,-23.38"/>
</g>
</g>
</svg>
