<?xml version="1.0" encoding="UTF-8" standalone="no"?>
<!DOCTYPE svg PUBLIC "-//W3C//DTD SVG 1.1//EN"
 "http://www.w3.org/Graphics/SVG/1.1/DTD/svg11.dtd">
<!-- Generated by graphviz version 2.44.1 (20200629.0846)
 -->
<!-- Title: mesh.h Pages: 1 -->
<svg width="1177pt" height="140pt"
 viewBox="0.00 0.00 1176.50 140.00" xmlns="http://www.w3.org/2000/svg" xmlns:xlink="http://www.w3.org/1999/xlink">
<g id="graph0" class="graph" transform="scale(1 1) rotate(0) translate(4 136)">
<title>mesh.h</title>
<polygon fill="white" stroke="transparent" points="-4,4 -4,-136 1172.5,-136 1172.5,4 -4,4"/>
<!-- Node1 -->
<g id="node1" class="node">
<title>Node1</title>
<g id="a_node1"><a xlink:title=" ">
<polygon fill="#bfbfbf" stroke="black" points="586.5,-112.5 586.5,-131.5 635.5,-131.5 635.5,-112.5 586.5,-112.5"/>
<text text-anchor="middle" x="611" y="-119.5" font-family="Helvetica,sans-Serif" font-size="10.00">mesh.h</text>
</a>
</g>
</g>
<!-- Node2 -->
<g id="node2" class="node">
<title>Node2</title>
<g id="a_node2"><a xlink:href="mesh_8cpp.html" target="_top" xlink:title=" ">
<polygon fill="white" stroke="black" points="130.5,-56.5 130.5,-75.5 189.5,-75.5 189.5,-56.5 130.5,-56.5"/>
<text text-anchor="middle" x="160" y="-63.5" font-family="Helvetica,sans-Serif" font-size="10.00">mesh.cpp</text>
</a>
</g>
</g>
<!-- Node1&#45;&gt;Node2 -->
<g id="edge1" class="edge">
<title>Node1&#45;&gt;Node2</title>
<path fill="none" stroke="midnightblue" d="M575.95,-118.66C504.48,-113.55 336.94,-99.93 198,-76 195.33,-75.54 192.56,-75 189.8,-74.43"/>
<polygon fill="midnightblue" stroke="midnightblue" points="575.96,-122.16 586.18,-119.37 576.45,-115.18 575.96,-122.16"/>
</g>
<!-- Node3 -->
<g id="node3" class="node">
<title>Node3</title>
<g id="a_node3"><a xlink:href="_dump_mesh_8h.html" target="_top" xlink:title=" ">
<polygon fill="white" stroke="black" points="207.5,-56.5 207.5,-75.5 282.5,-75.5 282.5,-56.5 207.5,-56.5"/>
<text text-anchor="middle" x="245" y="-63.5" font-family="Helvetica,sans-Serif" font-size="10.00">DumpMesh.h</text>
</a>
</g>
</g>
<!-- Node1&#45;&gt;Node3 -->
<g id="edge2" class="edge">
<title>Node1&#45;&gt;Node3</title>
<path fill="none" stroke="midnightblue" d="M576.52,-115.91C507.75,-105.77 354.02,-83.09 282.69,-72.56"/>
<polygon fill="midnightblue" stroke="midnightblue" points="576.01,-119.38 586.42,-117.37 577.04,-112.45 576.01,-119.38"/>
</g>
<!-- Node5 -->
<g id="node5" class="node">
<title>Node5</title>
<g id="a_node5"><a xlink:href="_parallel_mesh_converter_8cpp.html" target="_top" xlink:title=" ">
<polygon fill="white" stroke="black" points="104,-0.5 104,-19.5 238,-19.5 238,-0.5 104,-0.5"/>
<text text-anchor="middle" x="171" y="-7.5" font-family="Helvetica,sans-Serif" font-size="10.00">ParallelMeshConverter.cpp</text>
</a>
</g>
</g>
<!-- Node1&#45;&gt;Node5 -->
<g id="edge15" class="edge">
<title>Node1&#45;&gt;Node5</title>
<path fill="none" stroke="midnightblue" d="M576.55,-112.39C494.24,-91.81 286.96,-39.99 205.06,-19.51"/>
<polygon fill="midnightblue" stroke="midnightblue" points="575.85,-115.82 586.4,-114.85 577.55,-109.03 575.85,-115.82"/>
</g>
<!-- Node6 -->
<g id="node6" class="node">
<title>Node6</title>
<g id="a_node6"><a xlink:href="_mesh_adapt_p_u_m_i_8h.html" target="_top" xlink:title=" ">
<polygon fill="white" stroke="black" points="561,-56.5 561,-75.5 661,-75.5 661,-56.5 561,-56.5"/>
<text text-anchor="middle" x="611" y="-63.5" font-family="Helvetica,sans-Serif" font-size="10.00">MeshAdaptPUMI.h</text>
</a>
</g>
</g>
<!-- Node1&#45;&gt;Node6 -->
<g id="edge5" class="edge">
<title>Node1&#45;&gt;Node6</title>
<path fill="none" stroke="midnightblue" d="M611,-101.8C611,-92.91 611,-82.78 611,-75.75"/>
<polygon fill="midnightblue" stroke="midnightblue" points="607.5,-102.08 611,-112.08 614.5,-102.08 607.5,-102.08"/>
</g>
<!-- Node10 -->
<g id="node10" class="node">
<title>Node10</title>
<g id="a_node10"><a xlink:href="_mesh_converter_8cpp.html" target="_top" xlink:title=" ">
<polygon fill="white" stroke="black" points="966.5,-0.5 966.5,-19.5 1067.5,-19.5 1067.5,-0.5 966.5,-0.5"/>
<text text-anchor="middle" x="1017" y="-7.5" font-family="Helvetica,sans-Serif" font-size="10.00">MeshConverter.cpp</text>
</a>
</g>
</g>
<!-- Node1&#45;&gt;Node10 -->
<g id="edge14" class="edge">
<title>Node1&#45;&gt;Node10</title>
<path fill="none" stroke="midnightblue" d="M630.57,-106.36C653.92,-89.17 691.81,-62.22 708,-56 812.79,-15.75 846.96,-36.46 958,-20 960.77,-19.59 963.61,-19.17 966.47,-18.74"/>
<polygon fill="midnightblue" stroke="midnightblue" points="628.37,-103.64 622.41,-112.4 632.53,-109.26 628.37,-103.64"/>
</g>
<!-- Node14 -->
<g id="node14" class="node">
<title>Node14</title>
<g id="a_node14"><a xlink:href="partitioning_8h.html" target="_top" xlink:title=" ">
<polygon fill="white" stroke="black" points="717,-56.5 717,-75.5 789,-75.5 789,-56.5 717,-56.5"/>
<text text-anchor="middle" x="753" y="-63.5" font-family="Helvetica,sans-Serif" font-size="10.00">partitioning.h</text>
</a>
</g>
</g>
<!-- Node1&#45;&gt;Node14 -->
<g id="edge16" class="edge">
<title>Node1&#45;&gt;Node14</title>
<path fill="none" stroke="midnightblue" d="M643.16,-108.77C669.83,-98.63 707.07,-84.47 730.6,-75.52"/>
<polygon fill="midnightblue" stroke="midnightblue" points="641.6,-105.62 633.5,-112.44 644.09,-112.16 641.6,-105.62"/>
</g>
<!-- Node16 -->
<g id="node16" class="node">
<title>Node16</title>
<g id="a_node16"><a xlink:href="test_mesh_8cpp.html" target="_top" xlink:title=" ">
<polygon fill="white" stroke="black" points="807,-56.5 807,-75.5 883,-75.5 883,-56.5 807,-56.5"/>
<text text-anchor="middle" x="845" y="-63.5" font-family="Helvetica,sans-Serif" font-size="10.00">testMesh.cpp</text>
</a>
</g>
</g>
<!-- Node1&#45;&gt;Node16 -->
<g id="edge18" class="edge">
<title>Node1&#45;&gt;Node16</title>
<path fill="none" stroke="midnightblue" d="M645.43,-113.05C688.93,-103.02 763.49,-85.81 808.12,-75.51"/>
<polygon fill="midnightblue" stroke="midnightblue" points="644.56,-109.66 635.6,-115.32 646.13,-116.48 644.56,-109.66"/>
</g>
<!-- Node4 -->
<g id="node4" class="node">
<title>Node4</title>
<g id="a_node4"><a xlink:href="_dump_mesh_8cpp.html" target="_top" xlink:title=" ">
<polygon fill="white" stroke="black" points="0,-0.5 0,-19.5 86,-19.5 86,-0.5 0,-0.5"/>
<text text-anchor="middle" x="43" y="-7.5" font-family="Helvetica,sans-Serif" font-size="10.00">DumpMesh.cpp</text>
</a>
</g>
</g>
<!-- Node3&#45;&gt;Node4 -->
<g id="edge3" class="edge">
<title>Node3&#45;&gt;Node4</title>
<path fill="none" stroke="midnightblue" d="M203.21,-53.83C165.07,-43.63 109.52,-28.78 74.86,-19.52"/>
<polygon fill="midnightblue" stroke="midnightblue" points="202.43,-57.24 212.99,-56.44 204.24,-50.48 202.43,-57.24"/>
</g>
<!-- Node3&#45;&gt;Node5 -->
<g id="edge4" class="edge">
<title>Node3&#45;&gt;Node5</title>
<path fill="none" stroke="midnightblue" d="M224.97,-50.38C211.59,-40.62 194.44,-28.11 183.11,-19.83"/>
<polygon fill="midnightblue" stroke="midnightblue" points="222.97,-53.26 233.11,-56.32 227.1,-47.6 222.97,-53.26"/>
</g>
<!-- Node6&#45;&gt;Node5 -->
<g id="edge11" class="edge">
<title>Node6&#45;&gt;Node5</title>
<path fill="none" stroke="midnightblue" d="M550.83,-57.62C469.1,-47.58 323.44,-29.71 238.22,-19.25"/>
<polygon fill="midnightblue" stroke="midnightblue" points="550.6,-61.11 560.95,-58.86 551.46,-54.17 550.6,-61.11"/>
</g>
<!-- Node7 -->
<g id="node7" class="node">
<title>Node7</title>
<g id="a_node7"><a xlink:href="c_mesh_adapt_p_u_m_i_8cpp.html" target="_top" xlink:title=" ">
<polygon fill="white" stroke="black" points="256,-0.5 256,-19.5 372,-19.5 372,-0.5 256,-0.5"/>
<text text-anchor="middle" x="314" y="-7.5" font-family="Helvetica,sans-Serif" font-size="10.00">cMeshAdaptPUMI.cpp</text>
</a>
</g>
</g>
<!-- Node6&#45;&gt;Node7 -->
<g id="edge6" class="edge">
<title>Node6&#45;&gt;Node7</title>
<path fill="none" stroke="midnightblue" d="M553.8,-54.6C497.67,-44.4 413.1,-29.02 360.84,-19.52"/>
<polygon fill="midnightblue" stroke="midnightblue" points="553.47,-58.1 563.94,-56.44 554.73,-51.21 553.47,-58.1"/>
</g>
<!-- Node8 -->
<g id="node8" class="node">
<title>Node8</title>
<g id="a_node8"><a xlink:href="create_analytic_geometry_8cpp.html" target="_top" xlink:title=" ">
<polygon fill="white" stroke="black" points="390.5,-0.5 390.5,-19.5 529.5,-19.5 529.5,-0.5 390.5,-0.5"/>
<text text-anchor="middle" x="460" y="-7.5" font-family="Helvetica,sans-Serif" font-size="10.00">createAnalyticGeometry.cpp</text>
</a>
</g>
</g>
<!-- Node6&#45;&gt;Node8 -->
<g id="edge7" class="edge">
<title>Node6&#45;&gt;Node8</title>
<path fill="none" stroke="midnightblue" d="M577.55,-53.04C549.14,-42.88 509.06,-28.55 483.81,-19.52"/>
<polygon fill="midnightblue" stroke="midnightblue" points="576.48,-56.37 587.07,-56.44 578.84,-49.78 576.48,-56.37"/>
</g>
<!-- Node9 -->
<g id="node9" class="node">
<title>Node9</title>
<g id="a_node9"><a xlink:href="_error_residual_method_8cpp.html" target="_top" xlink:title=" ">
<polygon fill="white" stroke="black" points="547.5,-0.5 547.5,-19.5 674.5,-19.5 674.5,-0.5 547.5,-0.5"/>
<text text-anchor="middle" x="611" y="-7.5" font-family="Helvetica,sans-Serif" font-size="10.00">ErrorResidualMethod.cpp</text>
</a>
</g>
</g>
<!-- Node6&#45;&gt;Node9 -->
<g id="edge8" class="edge">
<title>Node6&#45;&gt;Node9</title>
<path fill="none" stroke="midnightblue" d="M611,-45.8C611,-36.91 611,-26.78 611,-19.75"/>
<polygon fill="midnightblue" stroke="midnightblue" points="607.5,-46.08 611,-56.08 614.5,-46.08 607.5,-46.08"/>
</g>
<!-- Node6&#45;&gt;Node10 -->
<g id="edge9" class="edge">
<title>Node6&#45;&gt;Node10</title>
<path fill="none" stroke="midnightblue" d="M671.21,-56.51C672.48,-56.34 673.75,-56.17 675,-56 800.67,-39.17 832.43,-37.56 958,-20 960.77,-19.61 963.61,-19.21 966.48,-18.79"/>
<polygon fill="midnightblue" stroke="midnightblue" points="670.73,-53.04 661.3,-57.86 671.68,-59.98 670.73,-53.04"/>
</g>
<!-- Node11 -->
<g id="node11" class="node">
<title>Node11</title>
<g id="a_node11"><a xlink:href="_mesh_fields_8cpp.html" target="_top" xlink:title=" ">
<polygon fill="white" stroke="black" points="693,-0.5 693,-19.5 779,-19.5 779,-0.5 693,-0.5"/>
<text text-anchor="middle" x="736" y="-7.5" font-family="Helvetica,sans-Serif" font-size="10.00">MeshFields.cpp</text>
</a>
</g>
</g>
<!-- Node6&#45;&gt;Node11 -->
<g id="edge10" class="edge">
<title>Node6&#45;&gt;Node11</title>
<path fill="none" stroke="midnightblue" d="M640.24,-52.37C663.65,-42.26 695.84,-28.35 716.29,-19.52"/>
<polygon fill="midnightblue" stroke="midnightblue" points="638.6,-49.26 630.81,-56.44 641.37,-55.69 638.6,-49.26"/>
</g>
<!-- Node12 -->
<g id="node12" class="node">
<title>Node12</title>
<g id="a_node12"><a xlink:href="_size_field_8cpp.html" target="_top" xlink:title=" ">
<polygon fill="white" stroke="black" points="797,-0.5 797,-19.5 873,-19.5 873,-0.5 797,-0.5"/>
<text text-anchor="middle" x="835" y="-7.5" font-family="Helvetica,sans-Serif" font-size="10.00">SizeField.cpp</text>
</a>
</g>
</g>
<!-- Node6&#45;&gt;Node12 -->
<g id="edge12" class="edge">
<title>Node6&#45;&gt;Node12</title>
<path fill="none" stroke="midnightblue" d="M656.26,-54.09C698.58,-43.89 760.91,-28.86 799.67,-19.52"/>
<polygon fill="midnightblue" stroke="midnightblue" points="655.39,-50.7 646.49,-56.44 657.04,-57.5 655.39,-50.7"/>
</g>
<!-- Node13 -->
<g id="node13" class="node">
<title>Node13</title>
<g id="a_node13"><a xlink:href="_v_m_s_8cpp.html" target="_top" xlink:title=" ">
<polygon fill="white" stroke="black" points="891.5,-0.5 891.5,-19.5 948.5,-19.5 948.5,-0.5 891.5,-0.5"/>
<text text-anchor="middle" x="920" y="-7.5" font-family="Helvetica,sans-Serif" font-size="10.00">VMS.cpp</text>
</a>
</g>
</g>
<!-- Node6&#45;&gt;Node13 -->
<g id="edge13" class="edge">
<title>Node6&#45;&gt;Node13</title>
<path fill="none" stroke="midnightblue" d="M671.07,-56.22C726.13,-47.9 809.81,-34.52 882,-20 885.06,-19.38 888.24,-18.7 891.41,-17.99"/>
<polygon fill="midnightblue" stroke="midnightblue" points="670.5,-52.77 661.13,-57.72 671.54,-59.69 670.5,-52.77"/>
</g>
<!-- Node15 -->
<g id="node15" class="node">
<title>Node15</title>
<g id="a_node15"><a xlink:href="partitioning_8cpp.html" target="_top" xlink:title=" ">
<polygon fill="white" stroke="black" points="1085.5,-0.5 1085.5,-19.5 1168.5,-19.5 1168.5,-0.5 1085.5,-0.5"/>
<text text-anchor="middle" x="1127" y="-7.5" font-family="Helvetica,sans-Serif" font-size="10.00">partitioning.cpp</text>
</a>
</g>
</g>
<!-- Node14&#45;&gt;Node15 -->
<g id="edge17" class="edge">
<title>Node14&#45;&gt;Node15</title>
<path fill="none" stroke="midnightblue" d="M799.55,-55.84C923.13,-35.89 956.69,-38.58 1077,-20 1079.7,-19.58 1082.48,-19.13 1085.28,-18.67"/>
<polygon fill="midnightblue" stroke="midnightblue" points="798.62,-52.45 789.31,-57.51 799.74,-59.36 798.62,-52.45"/>
</g>
</g>
</svg>
