<?xml version="1.0" encoding="UTF-8" standalone="no"?>
<!DOCTYPE svg PUBLIC "-//W3C//DTD SVG 1.1//EN"
 "http://www.w3.org/Graphics/SVG/1.1/DTD/svg11.dtd">
<!-- Generated by graphviz version 2.44.1 (20200629.0846)
 -->
<!-- Title: partitioning.h Pages: 1 -->
<svg width="625pt" height="140pt"
 viewBox="0.00 0.00 624.50 140.00" xmlns="http://www.w3.org/2000/svg" xmlns:xlink="http://www.w3.org/1999/xlink">
<g id="graph0" class="graph" transform="scale(1 1) rotate(0) translate(4 136)">
<title>partitioning.h</title>
<polygon fill="white" stroke="transparent" points="-4,4 -4,-136 620.5,-136 620.5,4 -4,4"/>
<!-- Node1 -->
<g id="node1" class="node">
<title>Node1</title>
<g id="a_node1"><a xlink:title=" ">
<polygon fill="#bfbfbf" stroke="black" points="315,-112.5 315,-131.5 387,-131.5 387,-112.5 315,-112.5"/>
<text text-anchor="middle" x="351" y="-119.5" font-family="Helvetica,sans-Serif" font-size="10.00">partitioning.h</text>
</a>
</g>
</g>
<!-- Node2 -->
<g id="node2" class="node">
<title>Node2</title>
<g id="a_node2"><a xlink:title=" ">
<polygon fill="white" stroke="#bfbfbf" points="0,-0.5 0,-19.5 54,-19.5 54,-0.5 0,-0.5"/>
<text text-anchor="middle" x="27" y="-7.5" font-family="Helvetica,sans-Serif" font-size="10.00">iostream</text>
</a>
</g>
</g>
<!-- Node1&#45;&gt;Node2 -->
<g id="edge1" class="edge">
<title>Node1&#45;&gt;Node2</title>
<path fill="none" stroke="midnightblue" d="M314.93,-119.67C245.61,-116.46 97.07,-106.16 57,-76 42.28,-64.92 34.55,-44.88 30.65,-29.97"/>
<polygon fill="midnightblue" stroke="midnightblue" points="33.97,-28.79 28.36,-19.8 27.14,-30.33 33.97,-28.79"/>
</g>
<!-- Node3 -->
<g id="node3" class="node">
<title>Node3</title>
<g id="a_node3"><a xlink:title=" ">
<polygon fill="white" stroke="#bfbfbf" points="293.5,-56.5 293.5,-75.5 344.5,-75.5 344.5,-56.5 293.5,-56.5"/>
<text text-anchor="middle" x="319" y="-63.5" font-family="Helvetica,sans-Serif" font-size="10.00">valarray</text>
</a>
</g>
</g>
<!-- Node1&#45;&gt;Node3 -->
<g id="edge2" class="edge">
<title>Node1&#45;&gt;Node3</title>
<path fill="none" stroke="midnightblue" d="M345.72,-112.08C341.29,-104.61 334.84,-93.72 329.38,-84.52"/>
<polygon fill="midnightblue" stroke="midnightblue" points="332.29,-82.57 324.19,-75.75 326.27,-86.14 332.29,-82.57"/>
</g>
<!-- Node4 -->
<g id="node4" class="node">
<title>Node4</title>
<g id="a_node4"><a xlink:title=" ">
<polygon fill="white" stroke="#bfbfbf" points="362.5,-56.5 362.5,-75.5 403.5,-75.5 403.5,-56.5 362.5,-56.5"/>
<text text-anchor="middle" x="383" y="-63.5" font-family="Helvetica,sans-Serif" font-size="10.00">mpi.h</text>
</a>
</g>
</g>
<!-- Node1&#45;&gt;Node4 -->
<g id="edge3" class="edge">
<title>Node1&#45;&gt;Node4</title>
<path fill="none" stroke="midnightblue" d="M356.28,-112.08C360.71,-104.61 367.16,-93.72 372.62,-84.52"/>
<polygon fill="midnightblue" stroke="midnightblue" points="375.73,-86.14 377.81,-75.75 369.71,-82.57 375.73,-86.14"/>
</g>
<!-- Node5 -->
<g id="node5" class="node">
<title>Node5</title>
<g id="a_node5"><a xlink:title=" ">
<polygon fill="white" stroke="#bfbfbf" points="422,-56.5 422,-75.5 466,-75.5 466,-56.5 422,-56.5"/>
<text text-anchor="middle" x="444" y="-63.5" font-family="Helvetica,sans-Serif" font-size="10.00">hdf5.h</text>
</a>
</g>
</g>
<!-- Node1&#45;&gt;Node5 -->
<g id="edge4" class="edge">
<title>Node1&#45;&gt;Node5</title>
<path fill="none" stroke="midnightblue" d="M365.94,-112.32C380.59,-103.82 403.13,-90.73 420.24,-80.8"/>
<polygon fill="midnightblue" stroke="midnightblue" points="422.2,-83.7 429.1,-75.65 418.69,-77.65 422.2,-83.7"/>
</g>
<!-- Node6 -->
<g id="node6" class="node">
<title>Node6</title>
<g id="a_node6"><a xlink:title=" ">
<polygon fill="white" stroke="#bfbfbf" points="484.5,-56.5 484.5,-75.5 533.5,-75.5 533.5,-56.5 484.5,-56.5"/>
<text text-anchor="middle" x="509" y="-63.5" font-family="Helvetica,sans-Serif" font-size="10.00">petsc.h</text>
</a>
</g>
</g>
<!-- Node1&#45;&gt;Node6 -->
<g id="edge5" class="edge">
<title>Node1&#45;&gt;Node6</title>
<path fill="none" stroke="midnightblue" d="M376.04,-112.44C402.69,-103.33 445.06,-88.85 474.79,-78.69"/>
<polygon fill="midnightblue" stroke="midnightblue" points="476.01,-81.97 484.34,-75.43 473.75,-75.35 476.01,-81.97"/>
</g>
<!-- Node7 -->
<g id="node7" class="node">
<title>Node7</title>
<g id="a_node7"><a xlink:title=" ">
<polygon fill="white" stroke="#bfbfbf" points="551.5,-56.5 551.5,-75.5 616.5,-75.5 616.5,-56.5 551.5,-56.5"/>
<text text-anchor="middle" x="584" y="-63.5" font-family="Helvetica,sans-Serif" font-size="10.00">petscsys.h</text>
</a>
</g>
</g>
<!-- Node1&#45;&gt;Node7 -->
<g id="edge6" class="edge">
<title>Node1&#45;&gt;Node7</title>
<path fill="none" stroke="midnightblue" d="M387.15,-112.62C428.77,-102.98 497.08,-87.14 541.29,-76.9"/>
<polygon fill="midnightblue" stroke="midnightblue" points="542.21,-80.28 551.16,-74.61 540.62,-73.46 542.21,-80.28"/>
</g>
<!-- Node8 -->
<g id="node8" class="node">
<title>Node8</title>
<g id="a_node8"><a xlink:href="mesh_8h.html" target="_top" xlink:title=" ">
<polygon fill="white" stroke="black" points="226.5,-56.5 226.5,-75.5 275.5,-75.5 275.5,-56.5 226.5,-56.5"/>
<text text-anchor="middle" x="251" y="-63.5" font-family="Helvetica,sans-Serif" font-size="10.00">mesh.h</text>
</a>
</g>
</g>
<!-- Node1&#45;&gt;Node8 -->
<g id="edge7" class="edge">
<title>Node1&#45;&gt;Node8</title>
<path fill="none" stroke="midnightblue" d="M334.93,-112.32C319.04,-103.74 294.49,-90.49 276.04,-80.52"/>
<polygon fill="midnightblue" stroke="midnightblue" points="277.49,-77.33 267.03,-75.65 274.16,-83.49 277.49,-77.33"/>
</g>
<!-- Node18 -->
<g id="node18" class="node">
<title>Node18</title>
<g id="a_node18"><a xlink:href="meshio_8h.html" target="_top" xlink:title=" ">
<polygon fill="white" stroke="black" points="66,-56.5 66,-75.5 122,-75.5 122,-56.5 66,-56.5"/>
<text text-anchor="middle" x="94" y="-63.5" font-family="Helvetica,sans-Serif" font-size="10.00">meshio.h</text>
</a>
</g>
</g>
<!-- Node1&#45;&gt;Node18 -->
<g id="edge18" class="edge">
<title>Node1&#45;&gt;Node18</title>
<path fill="none" stroke="midnightblue" d="M314.99,-113.43C266.76,-103.3 181.54,-85.39 132.2,-75.03"/>
<polygon fill="midnightblue" stroke="midnightblue" points="132.76,-71.57 122.25,-72.94 131.32,-78.42 132.76,-71.57"/>
</g>
<!-- Node8&#45;&gt;Node2 -->
<g id="edge13" class="edge">
<title>Node8&#45;&gt;Node2</title>
<path fill="none" stroke="midnightblue" d="M226.35,-59.18C192.16,-51.1 128.16,-35.9 64,-20.23"/>
<polygon fill="midnightblue" stroke="midnightblue" points="64.66,-16.79 54.12,-17.81 63,-23.59 64.66,-16.79"/>
</g>
<!-- Node9 -->
<g id="node9" class="node">
<title>Node9</title>
<g id="a_node9"><a xlink:title=" ">
<polygon fill="white" stroke="#bfbfbf" points="264,-0.5 264,-19.5 294,-19.5 294,-0.5 264,-0.5"/>
<text text-anchor="middle" x="279" y="-7.5" font-family="Helvetica,sans-Serif" font-size="10.00">set</text>
</a>
</g>
</g>
<!-- Node8&#45;&gt;Node9 -->
<g id="edge8" class="edge">
<title>Node8&#45;&gt;Node9</title>
<path fill="none" stroke="midnightblue" d="M255.62,-56.08C259.46,-48.69 265.02,-37.95 269.76,-28.81"/>
<polygon fill="midnightblue" stroke="midnightblue" points="272.97,-30.24 274.46,-19.75 266.75,-27.02 272.97,-30.24"/>
</g>
<!-- Node10 -->
<g id="node10" class="node">
<title>Node10</title>
<g id="a_node10"><a xlink:title=" ">
<polygon fill="white" stroke="#bfbfbf" points="72,-0.5 72,-19.5 116,-19.5 116,-0.5 72,-0.5"/>
<text text-anchor="middle" x="94" y="-7.5" font-family="Helvetica,sans-Serif" font-size="10.00">vector</text>
</a>
</g>
</g>
<!-- Node8&#45;&gt;Node10 -->
<g id="edge9" class="edge">
<title>Node8&#45;&gt;Node10</title>
<path fill="none" stroke="midnightblue" d="M226.47,-56.56C199.27,-47.21 155.32,-32.09 125.58,-21.86"/>
<polygon fill="midnightblue" stroke="midnightblue" points="126.67,-18.54 116.08,-18.59 124.4,-25.16 126.67,-18.54"/>
</g>
<!-- Node11 -->
<g id="node11" class="node">
<title>Node11</title>
<g id="a_node11"><a xlink:title=" ">
<polygon fill="white" stroke="#bfbfbf" points="312,-0.5 312,-19.5 368,-19.5 368,-0.5 312,-0.5"/>
<text text-anchor="middle" x="340" y="-7.5" font-family="Helvetica,sans-Serif" font-size="10.00">algorithm</text>
</a>
</g>
</g>
<!-- Node8&#45;&gt;Node11 -->
<g id="edge10" class="edge">
<title>Node8&#45;&gt;Node11</title>
<path fill="none" stroke="midnightblue" d="M265.3,-56.32C279.18,-47.9 300.49,-34.97 316.8,-25.07"/>
<polygon fill="midnightblue" stroke="midnightblue" points="319,-27.83 325.74,-19.65 315.37,-21.85 319,-27.83"/>
</g>
<!-- Node12 -->
<g id="node12" class="node">
<title>Node12</title>
<g id="a_node12"><a xlink:title=" ">
<polygon fill="white" stroke="#bfbfbf" points="386.5,-0.5 386.5,-19.5 421.5,-19.5 421.5,-0.5 386.5,-0.5"/>
<text text-anchor="middle" x="404" y="-7.5" font-family="Helvetica,sans-Serif" font-size="10.00">map</text>
</a>
</g>
</g>
<!-- Node8&#45;&gt;Node12 -->
<g id="edge11" class="edge">
<title>Node8&#45;&gt;Node12</title>
<path fill="none" stroke="midnightblue" d="M275.24,-56.44C302.83,-46.71 347.78,-30.84 376.61,-20.67"/>
<polygon fill="midnightblue" stroke="midnightblue" points="377.82,-23.95 386.08,-17.32 375.49,-17.35 377.82,-23.95"/>
</g>
<!-- Node13 -->
<g id="node13" class="node">
<title>Node13</title>
<g id="a_node13"><a xlink:title=" ">
<polygon fill="white" stroke="#bfbfbf" points="439.5,-0.5 439.5,-19.5 468.5,-19.5 468.5,-0.5 439.5,-0.5"/>
<text text-anchor="middle" x="454" y="-7.5" font-family="Helvetica,sans-Serif" font-size="10.00">list</text>
</a>
</g>
</g>
<!-- Node8&#45;&gt;Node13 -->
<g id="edge12" class="edge">
<title>Node8&#45;&gt;Node13</title>
<path fill="none" stroke="midnightblue" d="M275.5,-58.46C278.69,-57.62 281.92,-56.79 285,-56 346.72,-40.22 365.55,-40.19 429.27,-20.28"/>
<polygon fill="midnightblue" stroke="midnightblue" points="430.53,-23.55 439.01,-17.19 428.42,-16.88 430.53,-23.55"/>
</g>
<!-- Node14 -->
<g id="node14" class="node">
<title>Node14</title>
<g id="a_node14"><a xlink:title=" ">
<polygon fill="white" stroke="#bfbfbf" points="487,-0.5 487,-19.5 537,-19.5 537,-0.5 487,-0.5"/>
<text text-anchor="middle" x="512" y="-7.5" font-family="Helvetica,sans-Serif" font-size="10.00">iomanip</text>
</a>
</g>
</g>
<!-- Node8&#45;&gt;Node14 -->
<g id="edge14" class="edge">
<title>Node8&#45;&gt;Node14</title>
<path fill="none" stroke="midnightblue" d="M275.83,-58.2C278.91,-57.42 282.02,-56.67 285,-56 367.05,-37.52 391.15,-39.04 476.89,-20.11"/>
<polygon fill="midnightblue" stroke="midnightblue" points="477.81,-23.49 486.8,-17.89 476.28,-16.66 477.81,-23.49"/>
</g>
<!-- Node15 -->
<g id="node15" class="node">
<title>Node15</title>
<g id="a_node15"><a xlink:title=" ">
<polygon fill="white" stroke="#bfbfbf" points="555,-0.5 555,-19.5 605,-19.5 605,-0.5 555,-0.5"/>
<text text-anchor="middle" x="580" y="-7.5" font-family="Helvetica,sans-Serif" font-size="10.00">fstream</text>
</a>
</g>
</g>
<!-- Node8&#45;&gt;Node15 -->
<g id="edge15" class="edge">
<title>Node8&#45;&gt;Node15</title>
<path fill="none" stroke="midnightblue" d="M275.8,-58.06C278.89,-57.31 282.01,-56.6 285,-56 396.67,-33.6 429.41,-42.5 544.89,-20"/>
<polygon fill="midnightblue" stroke="midnightblue" points="545.7,-23.41 554.83,-18.03 544.34,-16.54 545.7,-23.41"/>
</g>
<!-- Node16 -->
<g id="node16" class="node">
<title>Node16</title>
<g id="a_node16"><a xlink:title=" ">
<polygon fill="white" stroke="#bfbfbf" points="134.5,-0.5 134.5,-19.5 183.5,-19.5 183.5,-0.5 134.5,-0.5"/>
<text text-anchor="middle" x="159" y="-7.5" font-family="Helvetica,sans-Serif" font-size="10.00">cassert</text>
</a>
</g>
</g>
<!-- Node8&#45;&gt;Node16 -->
<g id="edge16" class="edge">
<title>Node8&#45;&gt;Node16</title>
<path fill="none" stroke="midnightblue" d="M236.22,-56.32C221.73,-47.82 199.43,-34.73 182.51,-24.8"/>
<polygon fill="midnightblue" stroke="midnightblue" points="184.14,-21.7 173.74,-19.65 180.6,-27.74 184.14,-21.7"/>
</g>
<!-- Node17 -->
<g id="node17" class="node">
<title>Node17</title>
<g id="a_node17"><a xlink:title=" ">
<polygon fill="white" stroke="#bfbfbf" points="202,-0.5 202,-19.5 246,-19.5 246,-0.5 202,-0.5"/>
<text text-anchor="middle" x="224" y="-7.5" font-family="Helvetica,sans-Serif" font-size="10.00">cmath</text>
</a>
</g>
</g>
<!-- Node8&#45;&gt;Node17 -->
<g id="edge17" class="edge">
<title>Node8&#45;&gt;Node17</title>
<path fill="none" stroke="midnightblue" d="M246.54,-56.08C242.85,-48.69 237.48,-37.95 232.91,-28.81"/>
<polygon fill="midnightblue" stroke="midnightblue" points="235.98,-27.13 228.38,-19.75 229.72,-30.26 235.98,-27.13"/>
</g>
<!-- Node18&#45;&gt;Node2 -->
<g id="edge19" class="edge">
<title>Node18&#45;&gt;Node2</title>
<path fill="none" stroke="midnightblue" d="M83.24,-56.32C73.23,-48.26 58.11,-36.08 46.07,-26.37"/>
<polygon fill="midnightblue" stroke="midnightblue" points="47.94,-23.38 37.96,-19.83 43.55,-28.83 47.94,-23.38"/>
</g>
<!-- Node18&#45;&gt;Node10 -->
<g id="edge20" class="edge">
<title>Node18&#45;&gt;Node10</title>
<path fill="none" stroke="midnightblue" d="M94,-56.08C94,-49.01 94,-38.86 94,-29.99"/>
<polygon fill="midnightblue" stroke="midnightblue" points="97.5,-29.75 94,-19.75 90.5,-29.75 97.5,-29.75"/>
</g>
</g>
</svg>
