<?xml version="1.0" encoding="UTF-8" standalone="no"?>
<!DOCTYPE svg PUBLIC "-//W3C//DTD SVG 1.1//EN"
 "http://www.w3.org/Graphics/SVG/1.1/DTD/svg11.dtd">
<!-- Generated by graphviz version 2.50.0 (20211204.2007)
 -->
<!-- Title: proteus_lapack.h Pages: 1 -->
<svg width="190pt" height="140pt"
 viewBox="0.00 0.00 189.50 140.00" xmlns="http://www.w3.org/2000/svg" xmlns:xlink="http://www.w3.org/1999/xlink">
<g id="graph0" class="graph" transform="scale(1 1) rotate(0) translate(4 136)">
<title>proteus_lapack.h</title>
<polygon fill="white" stroke="transparent" points="-4,4 -4,-136 185.5,-136 185.5,4 -4,4"/>
<!-- Node1 -->
<g id="node1" class="node">
<title>Node1</title>
<g id="a_node1"><a xlink:title=" ">
<polygon fill="#bfbfbf" stroke="black" points="40.5,-112.5 40.5,-131.5 131.5,-131.5 131.5,-112.5 40.5,-112.5"/>
<text text-anchor="middle" x="86" y="-119.5" font-family="Helvetica,sans-Serif" font-size="10.00">proteus_lapack.h</text>
</a>
</g>
</g>
<!-- Node2 -->
<g id="node2" class="node">
<title>Node2</title>
<g id="a_node2"><a xlink:href="_r_a_n_s2_p_8h.html" target="_top" xlink:title=" ">
<polygon fill="white" stroke="black" points="10,-56.5 10,-75.5 74,-75.5 74,-56.5 10,-56.5"/>
<text text-anchor="middle" x="42" y="-63.5" font-family="Helvetica,sans-Serif" font-size="10.00">RANS2P.h</text>
</a>
</g>
</g>
<!-- Node1&#45;&gt;Node2 -->
<g id="edge1" class="edge">
<title>Node1&#45;&gt;Node2</title>
<path fill="none" stroke="midnightblue" d="M72.27,-104.14C64.6,-94.74 55.37,-83.4 49.13,-75.75"/>
<polygon fill="midnightblue" stroke="midnightblue" points="69.7,-106.54 78.73,-112.08 75.13,-102.12 69.7,-106.54"/>
</g>
<!-- Node4 -->
<g id="node4" class="node">
<title>Node4</title>
<g id="a_node4"><a xlink:href="_r_a_n_s2_p2_d_8h.html" target="_top" xlink:title=" ">
<polygon fill="white" stroke="black" points="95,-56.5 95,-75.5 173,-75.5 173,-56.5 95,-56.5"/>
<text text-anchor="middle" x="134" y="-63.5" font-family="Helvetica,sans-Serif" font-size="10.00">RANS2P2D.h</text>
</a>
</g>
</g>
<!-- Node1&#45;&gt;Node4 -->
<g id="edge3" class="edge">
<title>Node1&#45;&gt;Node4</title>
<path fill="none" stroke="midnightblue" d="M100.73,-104.43C109.14,-94.97 119.35,-83.48 126.22,-75.75"/>
<polygon fill="midnightblue" stroke="midnightblue" points="97.95,-102.28 93.93,-112.08 103.19,-106.93 97.95,-102.28"/>
</g>
<!-- Node3 -->
<g id="node3" class="node">
<title>Node3</title>
<g id="a_node3"><a xlink:href="_r_a_n_s2_p_8cpp.html" target="_top" xlink:title=" ">
<polygon fill="white" stroke="black" points="0,-0.5 0,-19.5 74,-19.5 74,-0.5 0,-0.5"/>
<text text-anchor="middle" x="37" y="-7.5" font-family="Helvetica,sans-Serif" font-size="10.00">RANS2P.cpp</text>
</a>
</g>
</g>
<!-- Node2&#45;&gt;Node3 -->
<g id="edge2" class="edge">
<title>Node2&#45;&gt;Node3</title>
<path fill="none" stroke="midnightblue" d="M40.25,-46.1C39.42,-37.14 38.47,-26.86 37.81,-19.75"/>
<polygon fill="midnightblue" stroke="midnightblue" points="36.77,-46.45 41.17,-56.08 43.74,-45.8 36.77,-46.45"/>
</g>
<!-- Node5 -->
<g id="node5" class="node">
<title>Node5</title>
<g id="a_node5"><a xlink:href="_r_a_n_s2_p2_d_8cpp.html" target="_top" xlink:title=" ">
<polygon fill="white" stroke="black" points="92.5,-0.5 92.5,-19.5 181.5,-19.5 181.5,-0.5 92.5,-0.5"/>
<text text-anchor="middle" x="137" y="-7.5" font-family="Helvetica,sans-Serif" font-size="10.00">RANS2P2D.cpp</text>
</a>
</g>
</g>
<!-- Node4&#45;&gt;Node5 -->
<g id="edge4" class="edge">
<title>Node4&#45;&gt;Node5</title>
<path fill="none" stroke="midnightblue" d="M135.07,-45.8C135.56,-36.91 136.12,-26.78 136.51,-19.75"/>
<polygon fill="midnightblue" stroke="midnightblue" points="131.56,-45.9 134.5,-56.08 138.54,-46.29 131.56,-45.9"/>
</g>
</g>
</svg>
