<?xml version="1.0" encoding="UTF-8" standalone="no"?>
<!DOCTYPE svg PUBLIC "-//W3C//DTD SVG 1.1//EN"
 "http://www.w3.org/Graphics/SVG/1.1/DTD/svg11.dtd">
<!-- Generated by graphviz version 2.40.1 (20161225.0304)
 -->
<!-- Title: pskRelations.h Pages: 1 -->
<svg width="352pt" height="84pt"
 viewBox="0.00 0.00 351.50 84.00" xmlns="http://www.w3.org/2000/svg" xmlns:xlink="http://www.w3.org/1999/xlink">
<g id="graph0" class="graph" transform="scale(1 1) rotate(0) translate(4 80)">
<title>pskRelations.h</title>
<polygon fill="#ffffff" stroke="transparent" points="-4,4 -4,-80 347.5,-80 347.5,4 -4,4"/>
<!-- Node6 -->
<g id="node1" class="node">
<title>Node6</title>
<polygon fill="#bfbfbf" stroke="#000000" points="138.5,-56.5 138.5,-75.5 220.5,-75.5 220.5,-56.5 138.5,-56.5"/>
<text text-anchor="middle" x="179.5" y="-63.5" font-family="Helvetica,sans-Serif" font-size="10.00" fill="#000000">pskRelations.h</text>
</g>
<!-- Node7 -->
<g id="node2" class="node">
<title>Node7</title>
<g id="a_node2"><a xlink:href="_subsurface_transport_coefficients_8cpp.html" target="_top" xlink:title="SubsurfaceTransportCoefficients.cpp">
<polygon fill="#ffffff" stroke="#000000" points="0,-.5 0,-19.5 179,-19.5 179,-.5 0,-.5"/>
<text text-anchor="middle" x="89.5" y="-7.5" font-family="Helvetica,sans-Serif" font-size="10.00" fill="#000000">SubsurfaceTransportCoefficients.cpp</text>
</a>
</g>
</g>
<!-- Node6&#45;&gt;Node7 -->
<g id="edge1" class="edge">
<title>Node6&#45;&gt;Node7</title>
<path fill="none" stroke="#191970" d="M155.0216,-50.769C139.0734,-40.8456 118.749,-28.1994 104.9972,-19.6427"/>
<polygon fill="#191970" stroke="#191970" points="153.4835,-53.9342 163.8232,-56.2455 157.1817,-47.9908 153.4835,-53.9342"/>
</g>
<!-- Node8 -->
<g id="node3" class="node">
<title>Node8</title>
<g id="a_node3"><a xlink:href="twophase_darcy_coefficients_8h.html" target="_top" xlink:title="twophaseDarcyCoefficients.h">
<polygon fill="#ffffff" stroke="#000000" points="197.5,-.5 197.5,-19.5 343.5,-19.5 343.5,-.5 197.5,-.5"/>
<text text-anchor="middle" x="270.5" y="-7.5" font-family="Helvetica,sans-Serif" font-size="10.00" fill="#000000">twophaseDarcyCoefficients.h</text>
</a>
</g>
</g>
<!-- Node6&#45;&gt;Node8 -->
<g id="edge2" class="edge">
<title>Node6&#45;&gt;Node8</title>
<path fill="none" stroke="#191970" d="M204.2504,-50.769C220.3758,-40.8456 240.926,-28.1994 254.8307,-19.6427"/>
<polygon fill="#191970" stroke="#191970" points="202.0332,-48.0237 195.351,-56.2455 205.7019,-53.9853 202.0332,-48.0237"/>
</g>
</g>
</svg>
