<?xml version="1.0" encoding="UTF-8" standalone="no"?>
<!DOCTYPE svg PUBLIC "-//W3C//DTD SVG 1.1//EN"
 "http://www.w3.org/Graphics/SVG/1.1/DTD/svg11.dtd">
<!-- Generated by graphviz version 2.44.1 (20200629.0846)
 -->
<!-- Title: shockCapturing.c Pages: 1 -->
<svg width="166pt" height="84pt"
 viewBox="0.00 0.00 166.00 84.00" xmlns="http://www.w3.org/2000/svg" xmlns:xlink="http://www.w3.org/1999/xlink">
<g id="graph0" class="graph" transform="scale(1 1) rotate(0) translate(4 80)">
<title>shockCapturing.c</title>
<polygon fill="white" stroke="transparent" points="-4,4 -4,-80 162,-80 162,4 -4,4"/>
<!-- Node1 -->
<g id="node1" class="node">
<title>Node1</title>
<g id="a_node1"><a xlink:title=" ">
<polygon fill="#bfbfbf" stroke="black" points="21,-56.5 21,-75.5 114,-75.5 114,-56.5 21,-56.5"/>
<text text-anchor="middle" x="67.5" y="-63.5" font-family="Helvetica,sans-Serif" font-size="10.00">shockCapturing.c</text>
</a>
</g>
</g>
<!-- Node2 -->
<g id="node2" class="node">
<title>Node2</title>
<g id="a_node2"><a xlink:title=" ">
<polygon fill="white" stroke="#bfbfbf" points="0,-0.5 0,-19.5 47,-19.5 47,-0.5 0,-0.5"/>
<text text-anchor="middle" x="23.5" y="-7.5" font-family="Helvetica,sans-Serif" font-size="10.00">math.h</text>
</a>
</g>
</g>
<!-- Node1&#45;&gt;Node2 -->
<g id="edge1" class="edge">
<title>Node1&#45;&gt;Node2</title>
<path fill="none" stroke="midnightblue" d="M60.23,-56.08C53.96,-48.38 44.71,-37.03 37.07,-27.65"/>
<polygon fill="midnightblue" stroke="midnightblue" points="39.66,-25.29 30.63,-19.75 34.23,-29.71 39.66,-25.29"/>
</g>
<!-- Node3 -->
<g id="node3" class="node">
<title>Node3</title>
<g id="a_node3"><a xlink:href="shock_capturing_8h.html" target="_top" xlink:title="C implementations of shock capturing diffusion calculations.">
<polygon fill="white" stroke="black" points="65,-0.5 65,-19.5 158,-19.5 158,-0.5 65,-0.5"/>
<text text-anchor="middle" x="111.5" y="-7.5" font-family="Helvetica,sans-Serif" font-size="10.00">shockCapturing.h</text>
</a>
</g>
</g>
<!-- Node1&#45;&gt;Node3 -->
<g id="edge2" class="edge">
<title>Node1&#45;&gt;Node3</title>
<path fill="none" stroke="midnightblue" d="M74.77,-56.08C81.04,-48.38 90.29,-37.03 97.93,-27.65"/>
<polygon fill="midnightblue" stroke="midnightblue" points="100.77,-29.71 104.37,-19.75 95.34,-25.29 100.77,-29.71"/>
</g>
</g>
</svg>
