<?xml version="1.0" encoding="UTF-8" standalone="no"?>
<!DOCTYPE svg PUBLIC "-//W3C//DTD SVG 1.1//EN"
 "http://www.w3.org/Graphics/SVG/1.1/DTD/svg11.dtd">
<!-- Generated by graphviz version 2.50.0 (20211204.2007)
 -->
<!-- Title: sparsity.h Pages: 1 -->
<svg width="234pt" height="84pt"
 viewBox="0.00 0.00 233.50 84.00" xmlns="http://www.w3.org/2000/svg" xmlns:xlink="http://www.w3.org/1999/xlink">
<g id="graph0" class="graph" transform="scale(1 1) rotate(0) translate(4 80)">
<title>sparsity.h</title>
<polygon fill="white" stroke="transparent" points="-4,4 -4,-80 229.5,-80 229.5,4 -4,4"/>
<!-- Node1 -->
<g id="node1" class="node">
<title>Node1</title>
<g id="a_node1"><a xlink:title=" ">
<polygon fill="#bfbfbf" stroke="black" points="68.5,-56.5 68.5,-75.5 126.5,-75.5 126.5,-56.5 68.5,-56.5"/>
<text text-anchor="middle" x="97.5" y="-63.5" font-family="Helvetica,sans-Serif" font-size="10.00">sparsity.h</text>
</a>
</g>
</g>
<!-- Node2 -->
<g id="node2" class="node">
<title>Node2</title>
<g id="a_node2"><a xlink:title=" ">
<polygon fill="white" stroke="#bfbfbf" points="0,-0.5 0,-19.5 35,-19.5 35,-0.5 0,-0.5"/>
<text text-anchor="middle" x="17.5" y="-7.5" font-family="Helvetica,sans-Serif" font-size="10.00">map</text>
</a>
</g>
</g>
<!-- Node1&#45;&gt;Node2 -->
<g id="edge1" class="edge">
<title>Node1&#45;&gt;Node2</title>
<path fill="none" stroke="midnightblue" d="M84.65,-56.32C72.28,-47.98 53.37,-35.21 38.76,-25.35"/>
<polygon fill="midnightblue" stroke="midnightblue" points="40.57,-22.35 30.32,-19.65 36.65,-28.15 40.57,-22.35"/>
</g>
<!-- Node3 -->
<g id="node3" class="node">
<title>Node3</title>
<g id="a_node3"><a xlink:title=" ">
<polygon fill="white" stroke="#bfbfbf" points="53.5,-0.5 53.5,-19.5 83.5,-19.5 83.5,-0.5 53.5,-0.5"/>
<text text-anchor="middle" x="68.5" y="-7.5" font-family="Helvetica,sans-Serif" font-size="10.00">set</text>
</a>
</g>
</g>
<!-- Node1&#45;&gt;Node3 -->
<g id="edge2" class="edge">
<title>Node1&#45;&gt;Node3</title>
<path fill="none" stroke="midnightblue" d="M92.71,-56.08C88.74,-48.69 82.97,-37.95 78.07,-28.81"/>
<polygon fill="midnightblue" stroke="midnightblue" points="81.01,-26.91 73.2,-19.75 74.85,-30.22 81.01,-26.91"/>
</g>
<!-- Node4 -->
<g id="node4" class="node">
<title>Node4</title>
<g id="a_node4"><a xlink:title=" ">
<polygon fill="white" stroke="#bfbfbf" points="102,-0.5 102,-19.5 151,-19.5 151,-0.5 102,-0.5"/>
<text text-anchor="middle" x="126.5" y="-7.5" font-family="Helvetica,sans-Serif" font-size="10.00">cassert</text>
</a>
</g>
</g>
<!-- Node1&#45;&gt;Node4 -->
<g id="edge3" class="edge">
<title>Node1&#45;&gt;Node4</title>
<path fill="none" stroke="midnightblue" d="M102.29,-56.08C106.26,-48.69 112.03,-37.95 116.93,-28.81"/>
<polygon fill="midnightblue" stroke="midnightblue" points="120.15,-30.22 121.8,-19.75 113.99,-26.91 120.15,-30.22"/>
</g>
<!-- Node5 -->
<g id="node5" class="node">
<title>Node5</title>
<g id="a_node5"><a xlink:title=" ">
<polygon fill="white" stroke="#bfbfbf" points="169.5,-0.5 169.5,-19.5 225.5,-19.5 225.5,-0.5 169.5,-0.5"/>
<text text-anchor="middle" x="197.5" y="-7.5" font-family="Helvetica,sans-Serif" font-size="10.00">algorithm</text>
</a>
</g>
</g>
<!-- Node1&#45;&gt;Node5 -->
<g id="edge4" class="edge">
<title>Node1&#45;&gt;Node5</title>
<path fill="none" stroke="midnightblue" d="M113.57,-56.32C129.46,-47.74 154.01,-34.49 172.46,-24.52"/>
<polygon fill="midnightblue" stroke="midnightblue" points="174.34,-27.49 181.47,-19.65 171.01,-21.33 174.34,-27.49"/>
</g>
</g>
</svg>
