<?xml version="1.0" encoding="UTF-8" standalone="no"?>
<!DOCTYPE svg PUBLIC "-//W3C//DTD SVG 1.1//EN"
 "http://www.w3.org/Graphics/SVG/1.1/DTD/svg11.dtd">
<!-- Generated by graphviz version 2.50.0 (20211204.2007)
 -->
<!-- Title: proteus::arguments_dict Pages: 1 -->
<svg width="583pt" height="102pt"
 viewBox="0.00 0.00 583.00 101.98" xmlns="http://www.w3.org/2000/svg" xmlns:xlink="http://www.w3.org/1999/xlink">
<g id="graph0" class="graph" transform="scale(1 1) rotate(0) translate(4 97.98)">
<title>proteus::arguments_dict</title>
<polygon fill="white" stroke="transparent" points="-4,4 -4,-97.98 579,-97.98 579,4 -4,4"/>
<!-- Node1 -->
<g id="node1" class="node">
<title>Node1</title>
<g id="a_node1"><a xlink:title=" ">
<polygon fill="#bfbfbf" stroke="black" points="453,-43.48 453,-62.48 575,-62.48 575,-43.48 453,-43.48"/>
<text text-anchor="middle" x="514" y="-50.48" font-family="Helvetica,sans-Serif" font-size="10.00">proteus::arguments_dict</text>
</a>
</g>
</g>
<!-- Node2 -->
<g id="node2" class="node">
<title>Node2</title>
<g id="a_node2"><a xlink:href="classproteus_1_1throwing__map.html" target="_top" xlink:title=" ">
<polygon fill="white" stroke="black" points="255,-62.98 255,-92.98 371,-92.98 371,-62.98 255,-62.98"/>
<text text-anchor="start" x="263" y="-80.98" font-family="Helvetica,sans-Serif" font-size="10.00">proteus::throwing_map</text>
<text text-anchor="middle" x="313" y="-69.98" font-family="Helvetica,sans-Serif" font-size="10.00">&lt; std::string, int &gt;</text>
</a>
</g>
</g>
<!-- Node2&#45;&gt;Node1 -->
<g id="edge1" class="edge">
<title>Node2&#45;&gt;Node1</title>
<path fill="none" stroke="#9a32cd" stroke-dasharray="5,2" d="M381.14,-69.55C404.36,-66.63 430.22,-63.38 452.84,-60.54"/>
<polygon fill="#9a32cd" stroke="#9a32cd" points="380.51,-66.1 371.03,-70.82 381.38,-73.05 380.51,-66.1"/>
<text text-anchor="middle" x="412" y="-81.98" font-family="Helvetica,sans-Serif" font-size="10.00"> m_iarray</text>
<text text-anchor="middle" x="412" y="-70.98" font-family="Helvetica,sans-Serif" font-size="10.00">m_iscalar</text>
</g>
<!-- Node3 -->
<g id="node3" class="node">
<title>Node3</title>
<g id="a_node3"><a xlink:title="STL class.">
<polygon fill="white" stroke="#bfbfbf" points="108,-62.98 108,-92.98 218,-92.98 218,-62.98 108,-62.98"/>
<text text-anchor="start" x="116" y="-80.98" font-family="Helvetica,sans-Serif" font-size="10.00">std::map&lt; std::string,</text>
<text text-anchor="middle" x="163" y="-69.98" font-family="Helvetica,sans-Serif" font-size="10.00"> int &gt;</text>
</a>
</g>
</g>
<!-- Node3&#45;&gt;Node2 -->
<g id="edge2" class="edge">
<title>Node3&#45;&gt;Node2</title>
<path fill="none" stroke="#8b1a1a" d="M228.44,-77.98C237.19,-77.98 246.13,-77.98 254.75,-77.98"/>
<polygon fill="#8b1a1a" stroke="#8b1a1a" points="228.27,-74.48 218.27,-77.98 228.27,-81.48 228.27,-74.48"/>
</g>
<!-- Node4 -->
<g id="node4" class="node">
<title>Node4</title>
<g id="a_node4"><a xlink:title=" ">
<polygon fill="white" stroke="#bfbfbf" points="0,-70.48 0,-89.48 29,-89.48 29,-70.48 0,-70.48"/>
<text text-anchor="middle" x="14.5" y="-77.48" font-family="Helvetica,sans-Serif" font-size="10.00">K</text>
</a>
</g>
</g>
<!-- Node4&#45;&gt;Node3 -->
<g id="edge3" class="edge">
<title>Node4&#45;&gt;Node3</title>
<path fill="none" stroke="#9a32cd" stroke-dasharray="5,2" d="M39.44,-82.5C41.99,-82.7 44.55,-82.87 47,-82.98 66.86,-83.93 88.66,-83.38 107.88,-82.36"/>
<polygon fill="#9a32cd" stroke="#9a32cd" points="39.55,-79 29.28,-81.58 38.92,-85.97 39.55,-79"/>
<text text-anchor="middle" x="68.5" y="-85.98" font-family="Helvetica,sans-Serif" font-size="10.00"> keys</text>
</g>
<!-- Node7 -->
<g id="node7" class="node">
<title>Node7</title>
<g id="a_node7"><a xlink:title="STL class.">
<polygon fill="white" stroke="#bfbfbf" points="108,-13.98 108,-43.98 218,-43.98 218,-13.98 108,-13.98"/>
<text text-anchor="start" x="116" y="-31.98" font-family="Helvetica,sans-Serif" font-size="10.00">std::map&lt; std::string,</text>
<text text-anchor="middle" x="163" y="-20.98" font-family="Helvetica,sans-Serif" font-size="10.00"> double &gt;</text>
</a>
</g>
</g>
<!-- Node4&#45;&gt;Node7 -->
<g id="edge7" class="edge">
<title>Node4&#45;&gt;Node7</title>
<path fill="none" stroke="#9a32cd" stroke-dasharray="5,2" d="M38.57,-71.95C59.99,-64.5 92.42,-53.21 118.66,-44.07"/>
<polygon fill="#9a32cd" stroke="#9a32cd" points="37.31,-68.68 29.02,-75.28 39.61,-75.3 37.31,-68.68"/>
<text text-anchor="middle" x="68.5" y="-70.98" font-family="Helvetica,sans-Serif" font-size="10.00"> keys</text>
</g>
<!-- Node5 -->
<g id="node5" class="node">
<title>Node5</title>
<g id="a_node5"><a xlink:title=" ">
<polygon fill="white" stroke="#bfbfbf" points="0,-17.48 0,-36.48 29,-36.48 29,-17.48 0,-17.48"/>
<text text-anchor="middle" x="14.5" y="-24.48" font-family="Helvetica,sans-Serif" font-size="10.00">T</text>
</a>
</g>
</g>
<!-- Node5&#45;&gt;Node3 -->
<g id="edge4" class="edge">
<title>Node5&#45;&gt;Node3</title>
<path fill="none" stroke="#9a32cd" stroke-dasharray="5,2" d="M39.19,-27.04C54.34,-27.89 74.08,-30.55 90,-37.98 99.7,-42.51 99,-48.19 108,-53.98 113,-57.21 118.51,-60.2 124.04,-62.91"/>
<polygon fill="#9a32cd" stroke="#9a32cd" points="39.19,-23.54 29.08,-26.7 38.95,-30.54 39.19,-23.54"/>
<text text-anchor="middle" x="68.5" y="-40.98" font-family="Helvetica,sans-Serif" font-size="10.00"> elements</text>
</g>
<!-- Node5&#45;&gt;Node7 -->
<g id="edge8" class="edge">
<title>Node5&#45;&gt;Node7</title>
<path fill="none" stroke="#9a32cd" stroke-dasharray="5,2" d="M33.26,-11.09C37.49,-8.17 42.18,-5.56 47,-3.98 75.36,5.27 108.78,-4.17 132.26,-13.98"/>
<polygon fill="#9a32cd" stroke="#9a32cd" points="31.08,-8.35 25.34,-17.26 35.38,-13.88 31.08,-8.35"/>
<text text-anchor="middle" x="68.5" y="-6.98" font-family="Helvetica,sans-Serif" font-size="10.00"> elements</text>
</g>
<!-- Node6 -->
<g id="node6" class="node">
<title>Node6</title>
<g id="a_node6"><a xlink:href="classproteus_1_1throwing__map.html" target="_top" xlink:title=" ">
<polygon fill="white" stroke="black" points="255,-13.98 255,-43.98 371,-43.98 371,-13.98 255,-13.98"/>
<text text-anchor="start" x="263" y="-31.98" font-family="Helvetica,sans-Serif" font-size="10.00">proteus::throwing_map</text>
<text text-anchor="middle" x="313" y="-20.98" font-family="Helvetica,sans-Serif" font-size="10.00">&lt; std::string, double &gt;</text>
</a>
</g>
</g>
<!-- Node6&#45;&gt;Node1 -->
<g id="edge5" class="edge">
<title>Node6&#45;&gt;Node1</title>
<path fill="none" stroke="#9a32cd" stroke-dasharray="5,2" d="M381.32,-28.61C398.86,-29.22 417.69,-30.51 435,-32.98 450.78,-35.24 467.97,-39.45 482.19,-43.43"/>
<polygon fill="#9a32cd" stroke="#9a32cd" points="381.26,-25.11 371.16,-28.32 381.06,-32.1 381.26,-25.11"/>
<text text-anchor="middle" x="412" y="-46.98" font-family="Helvetica,sans-Serif" font-size="10.00"> m_darray</text>
<text text-anchor="middle" x="412" y="-35.98" font-family="Helvetica,sans-Serif" font-size="10.00">m_dscalar</text>
</g>
<!-- Node7&#45;&gt;Node6 -->
<g id="edge6" class="edge">
<title>Node7&#45;&gt;Node6</title>
<path fill="none" stroke="#8b1a1a" d="M228.44,-28.98C237.19,-28.98 246.13,-28.98 254.75,-28.98"/>
<polygon fill="#8b1a1a" stroke="#8b1a1a" points="228.27,-25.48 218.27,-28.98 228.27,-32.48 228.27,-25.48"/>
</g>
</g>
</svg>
