<?xml version="1.0" encoding="UTF-8" standalone="no"?>
<!DOCTYPE svg PUBLIC "-//W3C//DTD SVG 1.1//EN"
 "http://www.w3.org/Graphics/SVG/1.1/DTD/svg11.dtd">
<!-- Generated by graphviz version 2.40.1 (20161225.0304)
 -->
<!-- Title: proteus::arguments_dict Pages: 1 -->
<svg width="586pt" height="102pt"
 viewBox="0.00 0.00 586.00 101.90" xmlns="http://www.w3.org/2000/svg" xmlns:xlink="http://www.w3.org/1999/xlink">
<g id="graph0" class="graph" transform="scale(1 1) rotate(0) translate(4 97.8986)">
<title>proteus::arguments_dict</title>
<polygon fill="#ffffff" stroke="transparent" points="-4,4 -4,-97.8986 582,-97.8986 582,4 -4,4"/>
<!-- Node1 -->
<g id="node1" class="node">
<title>Node1</title>
<polygon fill="#bfbfbf" stroke="#000000" points="456,-43.3986 456,-62.3986 578,-62.3986 578,-43.3986 456,-43.3986"/>
<text text-anchor="middle" x="517" y="-50.3986" font-family="Helvetica,sans-Serif" font-size="10.00" fill="#000000">proteus::arguments_dict</text>
</g>
<!-- Node2 -->
<g id="node2" class="node">
<title>Node2</title>
<g id="a_node2"><a xlink:href="classproteus_1_1throwing__map.html" target="_top" xlink:title="proteus::throwing_map\l\&lt; std::string, int \&gt;">
<polygon fill="#ffffff" stroke="#000000" points="255,-62.8986 255,-92.8986 371,-92.8986 371,-62.8986 255,-62.8986"/>
<text text-anchor="start" x="263" y="-80.8986" font-family="Helvetica,sans-Serif" font-size="10.00" fill="#000000">proteus::throwing_map</text>
<text text-anchor="middle" x="313" y="-69.8986" font-family="Helvetica,sans-Serif" font-size="10.00" fill="#000000">&lt; std::string, int &gt;</text>
</a>
</g>
</g>
<!-- Node2&#45;&gt;Node1 -->
<g id="edge1" class="edge">
<title>Node2&#45;&gt;Node1</title>
<path fill="none" stroke="#9a32cd" stroke-dasharray="5,2" d="M381.3318,-69.5247C405.4542,-66.5685 432.4063,-63.2655 455.8921,-60.3874"/>
<polygon fill="#9a32cd" stroke="#9a32cd" points="380.6852,-66.0776 371.1852,-70.7681 381.5367,-73.0256 380.6852,-66.0776"/>
<text text-anchor="middle" x="413.5" y="-81.8986" font-family="Helvetica,sans-Serif" font-size="10.00" fill="#000000"> m_iarray</text>
<text text-anchor="middle" x="413.5" y="-70.8986" font-family="Helvetica,sans-Serif" font-size="10.00" fill="#000000">m_iscalar</text>
</g>
<!-- Node3 -->
<g id="node3" class="node">
<title>Node3</title>
<g id="a_node3"><a xlink:title="STL class. ">
<polygon fill="#ffffff" stroke="#bfbfbf" points="108,-62.8986 108,-92.8986 218,-92.8986 218,-62.8986 108,-62.8986"/>
<text text-anchor="start" x="116" y="-80.8986" font-family="Helvetica,sans-Serif" font-size="10.00" fill="#000000">std::map&lt; std::string,</text>
<text text-anchor="middle" x="163" y="-69.8986" font-family="Helvetica,sans-Serif" font-size="10.00" fill="#000000"> int &gt;</text>
</a>
</g>
</g>
<!-- Node3&#45;&gt;Node2 -->
<g id="edge2" class="edge">
<title>Node3&#45;&gt;Node2</title>
<path fill="none" stroke="#8b1a1a" d="M228.0179,-77.8986C236.9863,-77.8986 246.1485,-77.8986 254.9793,-77.8986"/>
<polygon fill="#8b1a1a" stroke="#8b1a1a" points="228.0028,-74.3987 218.0027,-77.8986 228.0027,-81.3987 228.0028,-74.3987"/>
</g>
<!-- Node4 -->
<g id="node4" class="node">
<title>Node4</title>
<polygon fill="#ffffff" stroke="#bfbfbf" points="0,-70.3986 0,-89.3986 29,-89.3986 29,-70.3986 0,-70.3986"/>
<text text-anchor="middle" x="14.5" y="-77.3986" font-family="Helvetica,sans-Serif" font-size="10.00" fill="#000000">K</text>
</g>
<!-- Node4&#45;&gt;Node3 -->
<g id="edge3" class="edge">
<title>Node4&#45;&gt;Node3</title>
<path fill="none" stroke="#9a32cd" stroke-dasharray="5,2" d="M39.061,-82.4074C41.7379,-82.6088 44.4245,-82.78 47,-82.8986 66.8342,-83.8121 88.5785,-83.2824 107.8268,-82.2849"/>
<polygon fill="#9a32cd" stroke="#9a32cd" points="39.3083,-78.9158 29.0408,-81.5288 38.6968,-85.889 39.3083,-78.9158"/>
<text text-anchor="middle" x="68.5" y="-85.8986" font-family="Helvetica,sans-Serif" font-size="10.00" fill="#000000"> keys</text>
</g>
<!-- Node7 -->
<g id="node7" class="node">
<title>Node7</title>
<g id="a_node7"><a xlink:title="STL class. ">
<polygon fill="#ffffff" stroke="#bfbfbf" points="108,-13.8986 108,-43.8986 218,-43.8986 218,-13.8986 108,-13.8986"/>
<text text-anchor="start" x="116" y="-31.8986" font-family="Helvetica,sans-Serif" font-size="10.00" fill="#000000">std::map&lt; std::string,</text>
<text text-anchor="middle" x="163" y="-20.8986" font-family="Helvetica,sans-Serif" font-size="10.00" fill="#000000"> double &gt;</text>
</a>
</g>
</g>
<!-- Node4&#45;&gt;Node7 -->
<g id="edge7" class="edge">
<title>Node4&#45;&gt;Node7</title>
<path fill="none" stroke="#9a32cd" stroke-dasharray="5,2" d="M38.7609,-71.5666C60.5276,-64.0912 92.9964,-52.9403 119.2827,-43.9127"/>
<polygon fill="#9a32cd" stroke="#9a32cd" points="37.3301,-68.3573 29.0092,-74.9157 39.6038,-74.9777 37.3301,-68.3573"/>
<text text-anchor="middle" x="68.5" y="-69.8986" font-family="Helvetica,sans-Serif" font-size="10.00" fill="#000000"> keys</text>
</g>
<!-- Node5 -->
<g id="node5" class="node">
<title>Node5</title>
<polygon fill="#ffffff" stroke="#bfbfbf" points="0,-17.3986 0,-36.3986 29,-36.3986 29,-17.3986 0,-17.3986"/>
<text text-anchor="middle" x="14.5" y="-24.3986" font-family="Helvetica,sans-Serif" font-size="10.00" fill="#000000">T</text>
</g>
<!-- Node5&#45;&gt;Node3 -->
<g id="edge4" class="edge">
<title>Node5&#45;&gt;Node3</title>
<path fill="none" stroke="#9a32cd" stroke-dasharray="5,2" d="M39.3347,-26.948C54.58,-27.8272 74.1522,-30.5217 90,-37.8986 99.7038,-42.4157 98.9831,-48.1312 108,-53.8986 113.0903,-57.1545 118.6972,-60.167 124.3254,-62.8793"/>
<polygon fill="#9a32cd" stroke="#9a32cd" points="39.2307,-23.4422 29.1135,-26.5876 38.984,-30.4379 39.2307,-23.4422"/>
<text text-anchor="middle" x="68.5" y="-40.8986" font-family="Helvetica,sans-Serif" font-size="10.00" fill="#000000"> elements</text>
</g>
<!-- Node5&#45;&gt;Node7 -->
<g id="edge8" class="edge">
<title>Node5&#45;&gt;Node7</title>
<path fill="none" stroke="#9a32cd" stroke-dasharray="5,2" d="M32.8897,-10.9988C37.2486,-8.0816 42.0719,-5.466 47,-3.8986 75.4667,5.1553 108.9007,-4.0676 132.5423,-13.7677"/>
<polygon fill="#9a32cd" stroke="#9a32cd" points="30.584,-8.354 24.7099,-17.1713 34.8004,-13.9416 30.584,-8.354"/>
<text text-anchor="middle" x="68.5" y="-6.8986" font-family="Helvetica,sans-Serif" font-size="10.00" fill="#000000"> elements</text>
</g>
<!-- Node6 -->
<g id="node6" class="node">
<title>Node6</title>
<g id="a_node6"><a xlink:href="classproteus_1_1throwing__map.html" target="_top" xlink:title="proteus::throwing_map\l\&lt; std::string, double \&gt;">
<polygon fill="#ffffff" stroke="#000000" points="255,-13.8986 255,-43.8986 371,-43.8986 371,-13.8986 255,-13.8986"/>
<text text-anchor="start" x="263" y="-31.8986" font-family="Helvetica,sans-Serif" font-size="10.00" fill="#000000">proteus::throwing_map</text>
<text text-anchor="middle" x="313" y="-20.8986" font-family="Helvetica,sans-Serif" font-size="10.00" fill="#000000">&lt; std::string, double &gt;</text>
</a>
</g>
</g>
<!-- Node6&#45;&gt;Node1 -->
<g id="edge5" class="edge">
<title>Node6&#45;&gt;Node1</title>
<path fill="none" stroke="#9a32cd" stroke-dasharray="5,2" d="M381.2048,-28.4174C399.7024,-29.0111 419.6778,-30.3172 438,-32.8986 453.971,-35.1488 471.3837,-39.361 485.7871,-43.3416"/>
<polygon fill="#9a32cd" stroke="#9a32cd" points="381.1871,-24.9159 371.1003,-28.1573 381.0068,-31.9136 381.1871,-24.9159"/>
<text text-anchor="middle" x="413.5" y="-46.8986" font-family="Helvetica,sans-Serif" font-size="10.00" fill="#000000"> m_dscalar</text>
<text text-anchor="middle" x="413.5" y="-35.8986" font-family="Helvetica,sans-Serif" font-size="10.00" fill="#000000">m_darray</text>
</g>
<!-- Node7&#45;&gt;Node6 -->
<g id="edge6" class="edge">
<title>Node7&#45;&gt;Node6</title>
<path fill="none" stroke="#8b1a1a" d="M228.0179,-28.8986C236.9863,-28.8986 246.1485,-28.8986 254.9793,-28.8986"/>
<polygon fill="#8b1a1a" stroke="#8b1a1a" points="228.0028,-25.3987 218.0027,-28.8986 228.0027,-32.3987 228.0028,-25.3987"/>
</g>
</g>
</svg>
