<?xml version="1.0" encoding="UTF-8" standalone="no"?>
<!DOCTYPE svg PUBLIC "-//W3C//DTD SVG 1.1//EN"
 "http://www.w3.org/Graphics/SVG/1.1/DTD/svg11.dtd">
<!-- Generated by graphviz version 2.43.0 (0)
 -->
<!-- Title: proteus::arguments_dict Pages: 1 -->
<svg width="635pt" height="103pt"
 viewBox="0.00 0.00 635.00 102.60" xmlns="http://www.w3.org/2000/svg" xmlns:xlink="http://www.w3.org/1999/xlink">
<g id="graph0" class="graph" transform="scale(1 1) rotate(0) translate(4 98.6)">
<title>proteus::arguments_dict</title>
<polygon fill="white" stroke="transparent" points="-4,4 -4,-98.6 631,-98.6 631,4 -4,4"/>
<!-- Node1 -->
<g id="node1" class="node">
<title>Node1</title>
<g id="a_node1"><a xlink:title=" ">
<polygon fill="#bfbfbf" stroke="black" points="492,-44.1 492,-63.1 627,-63.1 627,-44.1 492,-44.1"/>
<text text-anchor="middle" x="559.5" y="-51.1" font-family="Helvetica,sans-Serif" font-size="10.00">proteus::arguments_dict</text>
</a>
</g>
</g>
<!-- Node2 -->
<g id="node2" class="node">
<title>Node2</title>
<g id="a_node2"><a xlink:href="classproteus_1_1throwing__map.html" target="_top" xlink:title=" ">
<polygon fill="white" stroke="black" points="273,-63.6 273,-93.6 402,-93.6 402,-63.6 273,-63.6"/>
<text text-anchor="start" x="281" y="-81.6" font-family="Helvetica,sans-Serif" font-size="10.00">proteus::throwing_map</text>
<text text-anchor="middle" x="337.5" y="-70.6" font-family="Helvetica,sans-Serif" font-size="10.00">&lt; std::string, int &gt;</text>
</a>
</g>
</g>
<!-- Node2&#45;&gt;Node1 -->
<g id="edge1" class="edge">
<title>Node2&#45;&gt;Node1</title>
<path fill="none" stroke="#9a32cd" stroke-dasharray="5,2" d="M412.23,-70.22C438.01,-67.29 466.78,-64.02 491.95,-61.16"/>
<polygon fill="#9a32cd" stroke="#9a32cd" points="411.67,-66.76 402.13,-71.37 412.46,-73.72 411.67,-66.76"/>
<text text-anchor="middle" x="447" y="-82.6" font-family="Helvetica,sans-Serif" font-size="10.00"> m_iarray</text>
<text text-anchor="middle" x="447" y="-71.6" font-family="Helvetica,sans-Serif" font-size="10.00">m_iscalar</text>
</g>
<!-- Node3 -->
<g id="node3" class="node">
<title>Node3</title>
<g id="a_node3"><a xlink:title="STL class.">
<polygon fill="white" stroke="#bfbfbf" points="114,-63.6 114,-93.6 236,-93.6 236,-63.6 114,-63.6"/>
<text text-anchor="start" x="122" y="-81.6" font-family="Helvetica,sans-Serif" font-size="10.00">std::map&lt; std::string,</text>
<text text-anchor="middle" x="175" y="-70.6" font-family="Helvetica,sans-Serif" font-size="10.00"> int &gt;</text>
</a>
</g>
</g>
<!-- Node3&#45;&gt;Node2 -->
<g id="edge2" class="edge">
<title>Node3&#45;&gt;Node2</title>
<path fill="none" stroke="#8b1a1a" d="M246.48,-78.6C255.3,-78.6 264.28,-78.6 272.99,-78.6"/>
<polygon fill="#8b1a1a" stroke="#8b1a1a" points="246.22,-75.1 236.22,-78.6 246.22,-82.1 246.22,-75.1"/>
</g>
<!-- Node4 -->
<g id="node4" class="node">
<title>Node4</title>
<g id="a_node4"><a xlink:title=" ">
<polygon fill="white" stroke="#bfbfbf" points="0,-71.1 0,-90.1 29,-90.1 29,-71.1 0,-71.1"/>
<text text-anchor="middle" x="14.5" y="-78.1" font-family="Helvetica,sans-Serif" font-size="10.00">K</text>
</a>
</g>
</g>
<!-- Node4&#45;&gt;Node3 -->
<g id="edge3" class="edge">
<title>Node4&#45;&gt;Node3</title>
<path fill="none" stroke="#9a32cd" stroke-dasharray="5,2" d="M39.44,-83.12C41.99,-83.32 44.55,-83.49 47,-83.6 68.82,-84.64 92.76,-84.13 113.91,-83.11"/>
<polygon fill="#9a32cd" stroke="#9a32cd" points="39.55,-79.62 29.28,-82.2 38.92,-86.59 39.55,-79.62"/>
<text text-anchor="middle" x="71.5" y="-86.6" font-family="Helvetica,sans-Serif" font-size="10.00"> keys</text>
</g>
<!-- Node7 -->
<g id="node7" class="node">
<title>Node7</title>
<g id="a_node7"><a xlink:title="STL class.">
<polygon fill="white" stroke="#bfbfbf" points="114,-14.6 114,-44.6 236,-44.6 236,-14.6 114,-14.6"/>
<text text-anchor="start" x="122" y="-32.6" font-family="Helvetica,sans-Serif" font-size="10.00">std::map&lt; std::string,</text>
<text text-anchor="middle" x="175" y="-21.6" font-family="Helvetica,sans-Serif" font-size="10.00"> double &gt;</text>
</a>
</g>
</g>
<!-- Node4&#45;&gt;Node7 -->
<g id="edge7" class="edge">
<title>Node4&#45;&gt;Node7</title>
<path fill="none" stroke="#9a32cd" stroke-dasharray="5,2" d="M38.64,-73.16C61.74,-65.72 97.92,-54.08 127.06,-44.71"/>
<polygon fill="#9a32cd" stroke="#9a32cd" points="37.46,-69.86 29.01,-76.25 39.61,-76.52 37.46,-69.86"/>
<text text-anchor="middle" x="71.5" y="-71.6" font-family="Helvetica,sans-Serif" font-size="10.00"> keys</text>
</g>
<!-- Node5 -->
<g id="node5" class="node">
<title>Node5</title>
<g id="a_node5"><a xlink:title=" ">
<polygon fill="white" stroke="#bfbfbf" points="0,-18.1 0,-37.1 29,-37.1 29,-18.1 0,-18.1"/>
<text text-anchor="middle" x="14.5" y="-25.1" font-family="Helvetica,sans-Serif" font-size="10.00">T</text>
</a>
</g>
</g>
<!-- Node5&#45;&gt;Node3 -->
<g id="edge4" class="edge">
<title>Node5&#45;&gt;Node3</title>
<path fill="none" stroke="#9a32cd" stroke-dasharray="5,2" d="M39.73,-27.27C56.27,-27.9 78.3,-30.46 96,-38.6 105.72,-43.08 104.89,-48.97 114,-54.6 119.34,-57.9 125.22,-60.91 131.14,-63.59"/>
<polygon fill="#9a32cd" stroke="#9a32cd" points="39.33,-23.76 29.28,-27.1 39.22,-30.76 39.33,-23.76"/>
<text text-anchor="middle" x="71.5" y="-41.6" font-family="Helvetica,sans-Serif" font-size="10.00"> elements</text>
</g>
<!-- Node5&#45;&gt;Node7 -->
<g id="edge8" class="edge">
<title>Node5&#45;&gt;Node7</title>
<path fill="none" stroke="#9a32cd" stroke-dasharray="5,2" d="M33.26,-11.71C37.49,-8.79 42.18,-6.17 47,-4.6 78.62,5.71 116.12,-4.25 142.14,-14.5"/>
<polygon fill="#9a32cd" stroke="#9a32cd" points="31.08,-8.97 25.34,-17.88 35.38,-14.49 31.08,-8.97"/>
<text text-anchor="middle" x="71.5" y="-7.6" font-family="Helvetica,sans-Serif" font-size="10.00"> elements</text>
</g>
<!-- Node6 -->
<g id="node6" class="node">
<title>Node6</title>
<g id="a_node6"><a xlink:href="classproteus_1_1throwing__map.html" target="_top" xlink:title=" ">
<polygon fill="white" stroke="black" points="273,-14.6 273,-44.6 402,-44.6 402,-14.6 273,-14.6"/>
<text text-anchor="start" x="281" y="-32.6" font-family="Helvetica,sans-Serif" font-size="10.00">proteus::throwing_map</text>
<text text-anchor="middle" x="337.5" y="-21.6" font-family="Helvetica,sans-Serif" font-size="10.00">&lt; std::string, double &gt;</text>
</a>
</g>
</g>
<!-- Node6&#45;&gt;Node1 -->
<g id="edge5" class="edge">
<title>Node6&#45;&gt;Node1</title>
<path fill="none" stroke="#9a32cd" stroke-dasharray="5,2" d="M412.17,-29.06C432.29,-29.65 454.04,-30.97 474,-33.6 491.04,-35.85 509.66,-40.06 525.07,-44.04"/>
<polygon fill="#9a32cd" stroke="#9a32cd" points="412.21,-25.56 402.13,-28.82 412.05,-32.56 412.21,-25.56"/>
<text text-anchor="middle" x="447" y="-47.6" font-family="Helvetica,sans-Serif" font-size="10.00"> m_dscalar</text>
<text text-anchor="middle" x="447" y="-36.6" font-family="Helvetica,sans-Serif" font-size="10.00">m_darray</text>
</g>
<!-- Node7&#45;&gt;Node6 -->
<g id="edge6" class="edge">
<title>Node7&#45;&gt;Node6</title>
<path fill="none" stroke="#8b1a1a" d="M246.48,-29.6C255.3,-29.6 264.28,-29.6 272.99,-29.6"/>
<polygon fill="#8b1a1a" stroke="#8b1a1a" points="246.22,-26.1 236.22,-29.6 246.22,-33.1 246.22,-26.1"/>
</g>
</g>
</svg>
