<?xml version="1.0" encoding="UTF-8" standalone="no"?>
<!DOCTYPE svg PUBLIC "-//W3C//DTD SVG 1.1//EN"
 "http://www.w3.org/Graphics/SVG/1.1/DTD/svg11.dtd">
<!-- Generated by graphviz version 2.50.0 (20211204.2007)
 -->
<!-- Title: timeIntegration.c Pages: 1 -->
<svg width="436pt" height="84pt"
 viewBox="0.00 0.00 435.50 84.00" xmlns="http://www.w3.org/2000/svg" xmlns:xlink="http://www.w3.org/1999/xlink">
<g id="graph0" class="graph" transform="scale(1 1) rotate(0) translate(4 80)">
<title>timeIntegration.c</title>
<polygon fill="white" stroke="transparent" points="-4,4 -4,-80 431.5,-80 431.5,4 -4,4"/>
<!-- Node1 -->
<g id="node1" class="node">
<title>Node1</title>
<g id="a_node1"><a xlink:title=" ">
<polygon fill="#bfbfbf" stroke="black" points="143.5,-56.5 143.5,-75.5 232.5,-75.5 232.5,-56.5 143.5,-56.5"/>
<text text-anchor="middle" x="188" y="-63.5" font-family="Helvetica,sans-Serif" font-size="10.00">timeIntegration.c</text>
</a>
</g>
</g>
<!-- Node2 -->
<g id="node2" class="node">
<title>Node2</title>
<g id="a_node2"><a xlink:title=" ">
<polygon fill="white" stroke="#bfbfbf" points="0,-0.5 0,-19.5 48,-19.5 48,-0.5 0,-0.5"/>
<text text-anchor="middle" x="24" y="-7.5" font-family="Helvetica,sans-Serif" font-size="10.00">stdlib.h</text>
</a>
</g>
</g>
<!-- Node1&#45;&gt;Node2 -->
<g id="edge1" class="edge">
<title>Node1&#45;&gt;Node2</title>
<path fill="none" stroke="midnightblue" d="M162.01,-56.44C133.81,-47.16 88.69,-32.3 57.76,-22.12"/>
<polygon fill="midnightblue" stroke="midnightblue" points="58.85,-18.79 48.26,-18.99 56.66,-25.44 58.85,-18.79"/>
</g>
<!-- Node3 -->
<g id="node3" class="node">
<title>Node3</title>
<g id="a_node3"><a xlink:title=" ">
<polygon fill="white" stroke="#bfbfbf" points="66,-0.5 66,-19.5 112,-19.5 112,-0.5 66,-0.5"/>
<text text-anchor="middle" x="89" y="-7.5" font-family="Helvetica,sans-Serif" font-size="10.00">stdio.h</text>
</a>
</g>
</g>
<!-- Node1&#45;&gt;Node3 -->
<g id="edge2" class="edge">
<title>Node1&#45;&gt;Node3</title>
<path fill="none" stroke="midnightblue" d="M172.09,-56.32C156.36,-47.74 132.06,-34.49 113.79,-24.52"/>
<polygon fill="midnightblue" stroke="midnightblue" points="115.32,-21.37 104.87,-19.65 111.97,-27.52 115.32,-21.37"/>
</g>
<!-- Node4 -->
<g id="node4" class="node">
<title>Node4</title>
<g id="a_node4"><a xlink:title=" ">
<polygon fill="white" stroke="#bfbfbf" points="130.5,-0.5 130.5,-19.5 177.5,-19.5 177.5,-0.5 130.5,-0.5"/>
<text text-anchor="middle" x="154" y="-7.5" font-family="Helvetica,sans-Serif" font-size="10.00">math.h</text>
</a>
</g>
</g>
<!-- Node1&#45;&gt;Node4 -->
<g id="edge3" class="edge">
<title>Node1&#45;&gt;Node4</title>
<path fill="none" stroke="midnightblue" d="M182.39,-56.08C177.63,-48.53 170.68,-37.49 164.85,-28.23"/>
<polygon fill="midnightblue" stroke="midnightblue" points="167.8,-26.35 159.51,-19.75 161.88,-30.08 167.8,-26.35"/>
</g>
<!-- Node5 -->
<g id="node5" class="node">
<title>Node5</title>
<g id="a_node5"><a xlink:title=" ">
<polygon fill="white" stroke="#bfbfbf" points="196,-0.5 196,-19.5 250,-19.5 250,-0.5 196,-0.5"/>
<text text-anchor="middle" x="223" y="-7.5" font-family="Helvetica,sans-Serif" font-size="10.00">strings.h</text>
</a>
</g>
</g>
<!-- Node1&#45;&gt;Node5 -->
<g id="edge4" class="edge">
<title>Node1&#45;&gt;Node5</title>
<path fill="none" stroke="midnightblue" d="M193.78,-56.08C198.67,-48.53 205.83,-37.49 211.83,-28.23"/>
<polygon fill="midnightblue" stroke="midnightblue" points="214.83,-30.05 217.33,-19.75 208.95,-26.24 214.83,-30.05"/>
</g>
<!-- Node6 -->
<g id="node6" class="node">
<title>Node6</title>
<g id="a_node6"><a xlink:title=" ">
<polygon fill="white" stroke="#bfbfbf" points="268,-0.5 268,-19.5 320,-19.5 320,-0.5 268,-0.5"/>
<text text-anchor="middle" x="294" y="-7.5" font-family="Helvetica,sans-Serif" font-size="10.00">assert.h</text>
</a>
</g>
</g>
<!-- Node1&#45;&gt;Node6 -->
<g id="edge5" class="edge">
<title>Node1&#45;&gt;Node6</title>
<path fill="none" stroke="midnightblue" d="M205.03,-56.32C222.03,-47.66 248.38,-34.24 267.99,-24.25"/>
<polygon fill="midnightblue" stroke="midnightblue" points="269.69,-27.31 277.01,-19.65 266.51,-21.08 269.69,-27.31"/>
</g>
<!-- Node7 -->
<g id="node7" class="node">
<title>Node7</title>
<g id="a_node7"><a xlink:href="time_integration_8h.html" target="_top" xlink:title="c interface for implementation of time discretization algorithms">
<polygon fill="white" stroke="black" points="338.5,-0.5 338.5,-19.5 427.5,-19.5 427.5,-0.5 338.5,-0.5"/>
<text text-anchor="middle" x="383" y="-7.5" font-family="Helvetica,sans-Serif" font-size="10.00">timeIntegration.h</text>
</a>
</g>
</g>
<!-- Node1&#45;&gt;Node7 -->
<g id="edge6" class="edge">
<title>Node1&#45;&gt;Node7</title>
<path fill="none" stroke="midnightblue" d="M218.9,-56.44C252.27,-47.2 305.59,-32.44 342.35,-22.26"/>
<polygon fill="midnightblue" stroke="midnightblue" points="343.54,-25.56 352.25,-19.52 341.67,-18.81 343.54,-25.56"/>
</g>
</g>
</svg>
