<?xml version="1.0" encoding="UTF-8" standalone="no"?>
<!DOCTYPE svg PUBLIC "-//W3C//DTD SVG 1.1//EN"
 "http://www.w3.org/Graphics/SVG/1.1/DTD/svg11.dtd">
<!-- Generated by graphviz version 2.40.1 (20161225.0304)
 -->
<!-- Title: transportCoefficients.c Pages: 1 -->
<svg width="334pt" height="140pt"
 viewBox="0.00 0.00 333.50 140.00" xmlns="http://www.w3.org/2000/svg" xmlns:xlink="http://www.w3.org/1999/xlink">
<g id="graph0" class="graph" transform="scale(1 1) rotate(0) translate(4 136)">
<title>transportCoefficients.c</title>
<polygon fill="#ffffff" stroke="transparent" points="-4,4 -4,-136 329.5,-136 329.5,4 -4,4"/>
<!-- Node0 -->
<g id="node1" class="node">
<title>Node0</title>
<polygon fill="#bfbfbf" stroke="#000000" points="100.5,-112.5 100.5,-131.5 216.5,-131.5 216.5,-112.5 100.5,-112.5"/>
<text text-anchor="middle" x="158.5" y="-119.5" font-family="Helvetica,sans-Serif" font-size="10.00" fill="#000000">transportCoefficients.c</text>
</g>
<!-- Node1 -->
<g id="node2" class="node">
<title>Node1</title>
<g id="a_node2"><a xlink:href="transport_coefficients_8h.html" target="_top" xlink:title="transportCoefficients.h">
<polygon fill="#ffffff" stroke="#000000" points="100.5,-56.5 100.5,-75.5 216.5,-75.5 216.5,-56.5 100.5,-56.5"/>
<text text-anchor="middle" x="158.5" y="-63.5" font-family="Helvetica,sans-Serif" font-size="10.00" fill="#000000">transportCoefficients.h</text>
</a>
</g>
</g>
<!-- Node0&#45;&gt;Node1 -->
<g id="edge1" class="edge">
<title>Node0&#45;&gt;Node1</title>
<path fill="none" stroke="#191970" d="M158.5,-112.2455C158.5,-104.9382 158.5,-94.6944 158.5,-85.7046"/>
<polygon fill="#191970" stroke="#191970" points="162.0001,-85.6426 158.5,-75.6427 155.0001,-85.6427 162.0001,-85.6426"/>
</g>
<!-- Node2 -->
<g id="node3" class="node">
<title>Node2</title>
<polygon fill="#ffffff" stroke="#bfbfbf" points="0,-.5 0,-19.5 47,-19.5 47,-.5 0,-.5"/>
<text text-anchor="middle" x="23.5" y="-7.5" font-family="Helvetica,sans-Serif" font-size="10.00" fill="#000000">math.h</text>
</g>
<!-- Node1&#45;&gt;Node2 -->
<g id="edge2" class="edge">
<title>Node1&#45;&gt;Node2</title>
<path fill="none" stroke="#191970" d="M135.2927,-56.3733C113.3301,-47.2629 80.1668,-33.5062 55.6599,-23.3404"/>
<polygon fill="#191970" stroke="#191970" points="56.9824,-20.0999 46.4045,-19.5011 54.3003,-26.5657 56.9824,-20.0999"/>
</g>
<!-- Node3 -->
<g id="node4" class="node">
<title>Node3</title>
<polygon fill="#ffffff" stroke="#bfbfbf" points="65.5,-.5 65.5,-19.5 117.5,-19.5 117.5,-.5 65.5,-.5"/>
<text text-anchor="middle" x="91.5" y="-7.5" font-family="Helvetica,sans-Serif" font-size="10.00" fill="#000000">assert.h</text>
</g>
<!-- Node1&#45;&gt;Node3 -->
<g id="edge3" class="edge">
<title>Node1&#45;&gt;Node3</title>
<path fill="none" stroke="#191970" d="M146.8295,-56.2455C136.9339,-47.9746 122.5373,-35.9416 110.9099,-26.2232"/>
<polygon fill="#191970" stroke="#191970" points="112.9542,-23.3703 103.0368,-19.6427 108.465,-28.7413 112.9542,-23.3703"/>
</g>
<!-- Node4 -->
<g id="node5" class="node">
<title>Node4</title>
<polygon fill="#ffffff" stroke="#bfbfbf" points="135.5,-.5 135.5,-19.5 181.5,-19.5 181.5,-.5 135.5,-.5"/>
<text text-anchor="middle" x="158.5" y="-7.5" font-family="Helvetica,sans-Serif" font-size="10.00" fill="#000000">stdio.h</text>
</g>
<!-- Node1&#45;&gt;Node4 -->
<g id="edge4" class="edge">
<title>Node1&#45;&gt;Node4</title>
<path fill="none" stroke="#191970" d="M158.5,-56.2455C158.5,-48.9382 158.5,-38.6944 158.5,-29.7046"/>
<polygon fill="#191970" stroke="#191970" points="162.0001,-29.6426 158.5,-19.6427 155.0001,-29.6427 162.0001,-29.6426"/>
</g>
<!-- Node5 -->
<g id="node6" class="node">
<title>Node5</title>
<polygon fill="#ffffff" stroke="#bfbfbf" points="199.5,-.5 199.5,-19.5 259.5,-19.5 259.5,-.5 199.5,-.5"/>
<text text-anchor="middle" x="229.5" y="-7.5" font-family="Helvetica,sans-Serif" font-size="10.00" fill="#000000">memory.h</text>
</g>
<!-- Node1&#45;&gt;Node5 -->
<g id="edge5" class="edge">
<title>Node1&#45;&gt;Node5</title>
<path fill="none" stroke="#191970" d="M170.8673,-56.2455C181.4554,-47.8943 196.9064,-35.7076 209.2893,-25.9408"/>
<polygon fill="#191970" stroke="#191970" points="211.5903,-28.5837 217.2745,-19.6427 207.2553,-23.0875 211.5903,-28.5837"/>
</g>
<!-- Node6 -->
<g id="node7" class="node">
<title>Node6</title>
<polygon fill="#ffffff" stroke="#bfbfbf" points="277.5,-.5 277.5,-19.5 325.5,-19.5 325.5,-.5 277.5,-.5"/>
<text text-anchor="middle" x="301.5" y="-7.5" font-family="Helvetica,sans-Serif" font-size="10.00" fill="#000000">stdlib.h</text>
</g>
<!-- Node1&#45;&gt;Node6 -->
<g id="edge6" class="edge">
<title>Node1&#45;&gt;Node6</title>
<path fill="none" stroke="#191970" d="M183.0826,-56.3733C206.4496,-47.2226 241.7862,-33.3844 267.7784,-23.2057"/>
<polygon fill="#191970" stroke="#191970" points="269.203,-26.4066 277.2382,-19.5011 266.6505,-19.8886 269.203,-26.4066"/>
</g>
</g>
</svg>
