<?xml version="1.0" encoding="UTF-8" standalone="no"?>
<!DOCTYPE svg PUBLIC "-//W3C//DTD SVG 1.1//EN"
 "http://www.w3.org/Graphics/SVG/1.1/DTD/svg11.dtd">
<!-- Generated by graphviz version 2.43.0 (0)
 -->
<!-- Title: NumericalSolutionHasA Pages: 1 -->
<svg width="1156pt" height="118pt"
 viewBox="0.00 0.00 1156.00 118.00" xmlns="http://www.w3.org/2000/svg" xmlns:xlink="http://www.w3.org/1999/xlink">
<g id="graph0" class="graph" transform="scale(1 1) rotate(0) translate(4 114)">
<title>NumericalSolutionHasA</title>
<polygon fill="white" stroke="transparent" points="-4,4 -4,-114 1152,-114 1152,4 -4,4"/>
<!-- NS -->
<g id="node1" class="node">
<title>NS</title>
<g id="a_node1"><a xlink:href="\ref NumericalSolution" xlink:title="NumericalSolution">
<polygon fill="gray" stroke="black" points="538.5,-73.5 538.5,-109.5 654.5,-109.5 654.5,-73.5 538.5,-73.5"/>
<text text-anchor="middle" x="596.5" y="-88.4" font-family="Helvetica,sans-Serif" font-size="12.00">NumericalSolution</text>
</a>
</g>
</g>
<!-- mList -->
<g id="node2" class="node">
<title>mList</title>
<g id="a_node2"><a xlink:href="\ref proteus::Transport::MultilevelTransport" xlink:title="MultilevelTranportModel [n]">
<polygon fill="none" stroke="black" points="0,-0.5 0,-36.5 161,-36.5 161,-0.5 0,-0.5"/>
<text text-anchor="middle" x="80.5" y="-15.4" font-family="Helvetica,sans-Serif" font-size="12.00">MultilevelTranportModel [n]</text>
</a>
</g>
</g>
<!-- NS&#45;&gt;mList -->
<g id="edge5" class="edge">
<title>NS&#45;&gt;mList</title>
<path fill="none" stroke="purple" stroke-dasharray="5,2" d="M538.3,-84.51C457.96,-75.94 308.33,-58.96 171.7,-37.3"/>
<polygon fill="purple" stroke="purple" points="171.89,-33.79 161.46,-35.67 170.79,-40.7 171.89,-33.79"/>
</g>
<!-- nsList -->
<g id="node3" class="node">
<title>nsList</title>
<g id="a_node3"><a xlink:href="\ref proteus::NonLinearSolver" xlink:title="NonLinearSolver [n] ">
<polygon fill="none" stroke="black" points="179,-0.5 179,-36.5 302,-36.5 302,-0.5 179,-0.5"/>
<text text-anchor="middle" x="240.5" y="-15.4" font-family="Helvetica,sans-Serif" font-size="12.00">NonLinearSolver [n]</text>
</a>
</g>
</g>
<!-- NS&#45;&gt;nsList -->
<g id="edge6" class="edge">
<title>NS&#45;&gt;nsList</title>
<path fill="none" stroke="purple" stroke-dasharray="5,2" d="M538.23,-80.66C482.5,-71 395.88,-55.38 312.21,-37.32"/>
<polygon fill="purple" stroke="purple" points="312.8,-33.86 302.29,-35.16 311.32,-40.71 312.8,-33.86"/>
</g>
<!-- lsList -->
<g id="node4" class="node">
<title>lsList</title>
<g id="a_node4"><a xlink:href="\ref proteus::LinearSolver" xlink:title="LinearSolver [n] ">
<polygon fill="none" stroke="black" points="320,-0.5 320,-36.5 421,-36.5 421,-0.5 320,-0.5"/>
<text text-anchor="middle" x="370.5" y="-15.4" font-family="Helvetica,sans-Serif" font-size="12.00">LinearSolver [n]</text>
</a>
</g>
</g>
<!-- NS&#45;&gt;lsList -->
<g id="edge7" class="edge">
<title>NS&#45;&gt;lsList</title>
<path fill="none" stroke="purple" stroke-dasharray="5,2" d="M542.37,-73.49C508.71,-62.92 465.38,-49.31 430.65,-38.4"/>
<polygon fill="purple" stroke="purple" points="431.68,-35.05 421.09,-35.39 429.58,-41.73 431.68,-35.05"/>
</g>
<!-- pList -->
<g id="node5" class="node">
<title>pList</title>
<g id="a_node5"><a xlink:href="\ref proteus::default_p" xlink:title="Problem Specification [n]">
<polygon fill="none" stroke="black" points="439,-0.5 439,-36.5 588,-36.5 588,-0.5 439,-0.5"/>
<text text-anchor="middle" x="513.5" y="-15.4" font-family="Helvetica,sans-Serif" font-size="12.00">Problem Specification [n]</text>
</a>
</g>
</g>
<!-- NS&#45;&gt;pList -->
<g id="edge1" class="edge">
<title>NS&#45;&gt;pList</title>
<path fill="none" stroke="purple" stroke-dasharray="5,2" d="M576.41,-73.31C565.81,-64.24 552.63,-52.98 541.09,-43.1"/>
<polygon fill="purple" stroke="purple" points="543.28,-40.37 533.41,-36.53 538.73,-45.69 543.28,-40.37"/>
</g>
<!-- nList -->
<g id="node6" class="node">
<title>nList</title>
<g id="a_node6"><a xlink:href="\ref proteus::default_n" xlink:title="Numerics Specifiation [n]">
<polygon fill="none" stroke="black" points="606,-0.5 606,-36.5 755,-36.5 755,-0.5 606,-0.5"/>
<text text-anchor="middle" x="680.5" y="-15.4" font-family="Helvetica,sans-Serif" font-size="12.00">Numerics Specifiation [n]</text>
</a>
</g>
</g>
<!-- NS&#45;&gt;nList -->
<g id="edge2" class="edge">
<title>NS&#45;&gt;nList</title>
<path fill="none" stroke="purple" stroke-dasharray="5,2" d="M616.83,-73.31C627.56,-64.24 640.89,-52.98 652.58,-43.1"/>
<polygon fill="purple" stroke="purple" points="654.98,-45.66 660.35,-36.53 650.46,-40.31 654.98,-45.66"/>
</g>
<!-- sList -->
<g id="node7" class="node">
<title>sList</title>
<g id="a_node7"><a xlink:href="\ref proteus::SimTools" xlink:title="Output Specification [n]">
<polygon fill="none" stroke="black" points="773.5,-0.5 773.5,-36.5 913.5,-36.5 913.5,-0.5 773.5,-0.5"/>
<text text-anchor="middle" x="843.5" y="-15.4" font-family="Helvetica,sans-Serif" font-size="12.00">Output Specification [n]</text>
</a>
</g>
</g>
<!-- NS&#45;&gt;sList -->
<g id="edge4" class="edge">
<title>NS&#45;&gt;sList</title>
<path fill="none" stroke="purple" stroke-dasharray="5,2" d="M654.72,-73.76C690.47,-63.49 736.44,-50.27 774.08,-39.46"/>
<polygon fill="purple" stroke="purple" points="775.31,-42.74 783.95,-36.62 773.37,-36.02 775.31,-42.74"/>
</g>
<!-- so -->
<g id="node8" class="node">
<title>so</title>
<g id="a_node8"><a xlink:href="\ref proteus::SO_base" xlink:title="Coupling Specification ">
<polygon fill="none" stroke="black" points="932,-0.5 932,-36.5 1069,-36.5 1069,-0.5 932,-0.5"/>
<text text-anchor="middle" x="1000.5" y="-15.4" font-family="Helvetica,sans-Serif" font-size="12.00">Coupling Specification</text>
</a>
</g>
</g>
<!-- NS&#45;&gt;so -->
<g id="edge3" class="edge">
<title>NS&#45;&gt;so</title>
<path fill="none" stroke="purple" stroke-dasharray="5,2" d="M654.69,-81.99C717.93,-72.51 822.19,-56.2 921.72,-37.09"/>
<polygon fill="purple" stroke="purple" points="922.49,-40.51 931.64,-35.18 921.16,-33.64 922.49,-40.51"/>
</g>
<!-- ar -->
<g id="node9" class="node">
<title>ar</title>
<g id="a_node9"><a xlink:href="\ref proteus::AR_base" xlink:title="Archiver">
<polygon fill="none" stroke="black" points="1087,-0.5 1087,-36.5 1148,-36.5 1148,-0.5 1087,-0.5"/>
<text text-anchor="middle" x="1117.5" y="-15.4" font-family="Helvetica,sans-Serif" font-size="12.00">Archiver</text>
</a>
</g>
</g>
<!-- NS&#45;&gt;ar -->
<g id="edge8" class="edge">
<title>NS&#45;&gt;ar</title>
<path fill="none" stroke="purple" stroke-dasharray="5,2" d="M654.71,-89.84C744.54,-87.55 921.98,-78.04 1077.03,-36.97"/>
<polygon fill="purple" stroke="purple" points="1078,-40.33 1086.74,-34.34 1076.18,-33.57 1078,-40.33"/>
</g>
</g>
</svg>
