<?xml version="1.0" encoding="UTF-8" standalone="no"?>
<!DOCTYPE svg PUBLIC "-//W3C//DTD SVG 1.1//EN"
 "http://www.w3.org/Graphics/SVG/1.1/DTD/svg11.dtd">
<!-- Generated by graphviz version 2.44.1 (20200629.0846)
 -->
<!-- Title: inheritance22b3c436e6 Pages: 1 -->
<svg width="1812pt" height="429pt"
 viewBox="0.00 0.00 1812.00 429.00" xmlns="http://www.w3.org/2000/svg" xmlns:xlink="http://www.w3.org/1999/xlink">
<g id="graph0" class="graph" transform="scale(1 1) rotate(0) translate(4 425)">
<title>inheritance22b3c436e6</title>
<!-- BlockHeterogeneousCoefficients -->
<g id="node1" class="node">
<title>BlockHeterogeneousCoefficients</title>
<g id="a_node1"><a xlink:href="../api/proteus.SubsurfaceTransportCoefficients.html#proteus.SubsurfaceTransportCoefficients.BlockHeterogeneousCoefficients" xlink:title="Basic data structures and functionality for keeping track of a" target="_top">
<polygon fill="white" stroke="black" stroke-width="0.5" points="159,-255 0,-255 0,-236 159,-236 159,-255"/>
<text text-anchor="middle" x="79.5" y="-243" font-family="Vera Sans, DejaVu Sans, Liberation Sans, Arial, Helvetica, sans" font-size="10.00">BlockHeterogeneousCoefficients</text>
</a>
</g>
</g>
<!-- CompressibleFractionalFlowPressureMualemVanGenuchten -->
<g id="node2" class="node">
<title>CompressibleFractionalFlowPressureMualemVanGenuchten</title>
<g id="a_node2"><a xlink:href="../api/proteus.SubsurfaceTransportCoefficients.html#proteus.SubsurfaceTransportCoefficients.CompressibleFractionalFlowPressureMualemVanGenuchten" xlink:title="Total flow equation coefficients for slight compressible flow" target="_top">
<polygon fill="white" stroke="black" stroke-width="0.5" points="1382.5,-278 1104.5,-278 1104.5,-259 1382.5,-259 1382.5,-278"/>
<text text-anchor="middle" x="1243.5" y="-266" font-family="Vera Sans, DejaVu Sans, Liberation Sans, Arial, Helvetica, sans" font-size="10.00">CompressibleFractionalFlowPressureMualemVanGenuchten</text>
</a>
</g>
</g>
<!-- TwophaseDarcy_compressible_split_pressure -->
<g id="node3" class="node">
<title>TwophaseDarcy_compressible_split_pressure</title>
<g id="a_node3"><a xlink:href="../api/proteus.SubsurfaceTransportCoefficients.html#proteus.SubsurfaceTransportCoefficients.TwophaseDarcy_compressible_split_pressure" xlink:title="Total flow conservation equation in a split compressible" target="_top">
<polygon fill="white" stroke="black" stroke-width="0.5" points="1007,-241 791,-241 791,-222 1007,-222 1007,-241"/>
<text text-anchor="middle" x="899" y="-229" font-family="Vera Sans, DejaVu Sans, Liberation Sans, Arial, Helvetica, sans" font-size="10.00">TwophaseDarcy_compressible_split_pressure</text>
</a>
</g>
</g>
<!-- TwophaseDarcy_compressible_split_pressure&#45;&gt;CompressibleFractionalFlowPressureMualemVanGenuchten -->
<g id="edge1" class="edge">
<title>TwophaseDarcy_compressible_split_pressure&#45;&gt;CompressibleFractionalFlowPressureMualemVanGenuchten</title>
<path fill="none" stroke="black" stroke-width="0.5" d="M983.44,-241.02C1008.09,-243.8 1035.13,-246.81 1060,-249.5 1087.43,-252.47 1117.19,-255.61 1144.56,-258.45"/>
<polygon fill="black" stroke="black" stroke-width="0.5" points="1144.49,-260.21 1149.64,-258.98 1144.85,-256.73 1144.49,-260.21"/>
</g>
<!-- CompressibleFractionalFlowSaturationMualemVanGenuchten -->
<g id="node4" class="node">
<title>CompressibleFractionalFlowSaturationMualemVanGenuchten</title>
<g id="a_node4"><a xlink:href="../api/proteus.SubsurfaceTransportCoefficients.html#proteus.SubsurfaceTransportCoefficients.CompressibleFractionalFlowSaturationMualemVanGenuchten" xlink:title="Saturation equation coefficients for slightly compressible flow" target="_top">
<polygon fill="white" stroke="black" stroke-width="0.5" points="1385,-167 1102,-167 1102,-148 1385,-148 1385,-167"/>
<text text-anchor="middle" x="1243.5" y="-155" font-family="Vera Sans, DejaVu Sans, Liberation Sans, Arial, Helvetica, sans" font-size="10.00">CompressibleFractionalFlowSaturationMualemVanGenuchten</text>
</a>
</g>
</g>
<!-- TwophaseDarcy_compressible_split_saturation -->
<g id="node5" class="node">
<title>TwophaseDarcy_compressible_split_saturation</title>
<g id="a_node5"><a xlink:href="../api/proteus.SubsurfaceTransportCoefficients.html#proteus.SubsurfaceTransportCoefficients.TwophaseDarcy_compressible_split_saturation" xlink:title="Aqueous phase mass conservation equation (saturation equation) in a" target="_top">
<polygon fill="white" stroke="black" stroke-width="0.5" points="1009.5,-167 788.5,-167 788.5,-148 1009.5,-148 1009.5,-167"/>
<text text-anchor="middle" x="899" y="-155" font-family="Vera Sans, DejaVu Sans, Liberation Sans, Arial, Helvetica, sans" font-size="10.00">TwophaseDarcy_compressible_split_saturation</text>
</a>
</g>
</g>
<!-- TwophaseDarcy_compressible_split_saturation&#45;&gt;CompressibleFractionalFlowSaturationMualemVanGenuchten -->
<g id="edge2" class="edge">
<title>TwophaseDarcy_compressible_split_saturation&#45;&gt;CompressibleFractionalFlowSaturationMualemVanGenuchten</title>
<path fill="none" stroke="black" stroke-width="0.5" d="M1009.78,-157.5C1037.43,-157.5 1067.55,-157.5 1096.67,-157.5"/>
<polygon fill="black" stroke="black" stroke-width="0.5" points="1096.71,-159.25 1101.71,-157.5 1096.71,-155.75 1096.71,-159.25"/>
</g>
<!-- ConservativeHeadRichardsMualemVanGenuchten -->
<g id="node6" class="node">
<title>ConservativeHeadRichardsMualemVanGenuchten</title>
<g id="a_node6"><a xlink:href="../api/proteus.SubsurfaceTransportCoefficients.html#proteus.SubsurfaceTransportCoefficients.ConservativeHeadRichardsMualemVanGenuchten" xlink:title="version of Re where element material type id&#39;s used in evals" target="_top">
<polygon fill="white" stroke="black" stroke-width="0.5" points="430,-366 195,-366 195,-347 430,-347 430,-366"/>
<text text-anchor="middle" x="312.5" y="-354" font-family="Vera Sans, DejaVu Sans, Liberation Sans, Arial, Helvetica, sans" font-size="10.00">ConservativeHeadRichardsMualemVanGenuchten</text>
</a>
</g>
</g>
<!-- TC_base -->
<g id="node7" class="node">
<title>TC_base</title>
<g id="a_node7"><a xlink:href="../proteus.TransportCoefficients.html#proteus.TransportCoefficients.TC_base" xlink:title="This is the base class for coefficients of the vector transport" target="_top">
<polygon fill="white" stroke="black" stroke-width="0.5" points="107.5,-292 51.5,-292 51.5,-273 107.5,-273 107.5,-292"/>
<text text-anchor="middle" x="79.5" y="-280" font-family="Vera Sans, DejaVu Sans, Liberation Sans, Arial, Helvetica, sans" font-size="10.00">TC_base</text>
</a>
</g>
</g>
<!-- TC_base&#45;&gt;ConservativeHeadRichardsMualemVanGenuchten -->
<g id="edge3" class="edge">
<title>TC_base&#45;&gt;ConservativeHeadRichardsMualemVanGenuchten</title>
<path fill="none" stroke="black" stroke-width="0.5" d="M96.17,-292.07C117.66,-304.74 157.84,-326.84 195,-338.5 204.4,-341.45 214.38,-343.93 224.39,-346"/>
<polygon fill="black" stroke="black" stroke-width="0.5" points="224.06,-347.72 229.31,-346.99 224.75,-344.29 224.06,-347.72"/>
</g>
<!-- GroundwaterTransportCoefficients -->
<g id="node14" class="node">
<title>GroundwaterTransportCoefficients</title>
<g id="a_node14"><a xlink:href="../api/proteus.SubsurfaceTransportCoefficients.html#proteus.SubsurfaceTransportCoefficients.GroundwaterTransportCoefficients" xlink:title="GroundwaterTransportCoefficients" target="_top">
<polygon fill="white" stroke="black" stroke-width="0.5" points="395,-329 230,-329 230,-310 395,-310 395,-329"/>
<text text-anchor="middle" x="312.5" y="-317" font-family="Vera Sans, DejaVu Sans, Liberation Sans, Arial, Helvetica, sans" font-size="10.00">GroundwaterTransportCoefficients</text>
</a>
</g>
</g>
<!-- TC_base&#45;&gt;GroundwaterTransportCoefficients -->
<g id="edge8" class="edge">
<title>TC_base&#45;&gt;GroundwaterTransportCoefficients</title>
<path fill="none" stroke="black" stroke-width="0.5" d="M107.91,-286.89C141.92,-292.34 201.04,-301.81 246.83,-309.14"/>
<polygon fill="black" stroke="black" stroke-width="0.5" points="246.57,-310.87 251.78,-309.94 247.12,-307.42 246.57,-310.87"/>
</g>
<!-- MultiphaseGroundwaterTransportCoefficients -->
<g id="node22" class="node">
<title>MultiphaseGroundwaterTransportCoefficients</title>
<g id="a_node22"><a xlink:href="../api/proteus.SubsurfaceTransportCoefficients.html#proteus.SubsurfaceTransportCoefficients.MultiphaseGroundwaterTransportCoefficients" xlink:title="MultiphaseGroundwaterTransportCoefficients" target="_top">
<polygon fill="white" stroke="black" stroke-width="0.5" points="418.5,-292 206.5,-292 206.5,-273 418.5,-273 418.5,-292"/>
<text text-anchor="middle" x="312.5" y="-280" font-family="Vera Sans, DejaVu Sans, Liberation Sans, Arial, Helvetica, sans" font-size="10.00">MultiphaseGroundwaterTransportCoefficients</text>
</a>
</g>
</g>
<!-- TC_base&#45;&gt;MultiphaseGroundwaterTransportCoefficients -->
<g id="edge14" class="edge">
<title>TC_base&#45;&gt;MultiphaseGroundwaterTransportCoefficients</title>
<path fill="none" stroke="black" stroke-width="0.5" d="M107.91,-282.5C131.31,-282.5 166.61,-282.5 201.27,-282.5"/>
<polygon fill="black" stroke="black" stroke-width="0.5" points="201.38,-284.25 206.38,-282.5 201.38,-280.75 201.38,-284.25"/>
</g>
<!-- SinglePhaseDarcyCoefficients -->
<g id="node30" class="node">
<title>SinglePhaseDarcyCoefficients</title>
<g id="a_node30"><a xlink:href="../api/proteus.SubsurfaceTransportCoefficients.html#proteus.SubsurfaceTransportCoefficients.SinglePhaseDarcyCoefficients" xlink:title=":math:`S_s h_t &#45;deld ( K_i(x,t) grad h_i ) + r(x,t) = 0 i=1,nc`" target="_top">
<polygon fill="white" stroke="black" stroke-width="0.5" points="387,-255 238,-255 238,-236 387,-236 387,-255"/>
<text text-anchor="middle" x="312.5" y="-243" font-family="Vera Sans, DejaVu Sans, Liberation Sans, Arial, Helvetica, sans" font-size="10.00">SinglePhaseDarcyCoefficients</text>
</a>
</g>
</g>
<!-- TC_base&#45;&gt;SinglePhaseDarcyCoefficients -->
<g id="edge19" class="edge">
<title>TC_base&#45;&gt;SinglePhaseDarcyCoefficients</title>
<path fill="none" stroke="black" stroke-width="0.5" d="M107.79,-277.88C130.97,-273.98 165.16,-268.28 195,-263.5 210.84,-260.96 227.9,-258.29 243.96,-255.81"/>
<polygon fill="black" stroke="black" stroke-width="0.5" points="244.23,-257.53 248.9,-255.04 243.69,-254.08 244.23,-257.53"/>
</g>
<!-- TwophaseDarcyFlow_base -->
<g id="node31" class="node">
<title>TwophaseDarcyFlow_base</title>
<g id="a_node31"><a xlink:href="../api/proteus.SubsurfaceTransportCoefficients.html#proteus.SubsurfaceTransportCoefficients.TwophaseDarcyFlow_base" xlink:title="TwophaseDarcyFlow_base" target="_top">
<polygon fill="white" stroke="black" stroke-width="0.5" points="379.5,-209 245.5,-209 245.5,-190 379.5,-190 379.5,-209"/>
<text text-anchor="middle" x="312.5" y="-197" font-family="Vera Sans, DejaVu Sans, Liberation Sans, Arial, Helvetica, sans" font-size="10.00">TwophaseDarcyFlow_base</text>
</a>
</g>
</g>
<!-- TC_base&#45;&gt;TwophaseDarcyFlow_base -->
<g id="edge20" class="edge">
<title>TC_base&#45;&gt;TwophaseDarcyFlow_base</title>
<path fill="none" stroke="black" stroke-width="0.5" d="M107.69,-279.73C123.48,-277.22 143.29,-272.46 159,-263.5 178.93,-252.13 175.01,-237.77 195,-226.5 208.73,-218.76 224.56,-213.23 240.04,-209.29"/>
<polygon fill="black" stroke="black" stroke-width="0.5" points="240.83,-210.9 245.27,-208.02 240,-207.5 240.83,-210.9"/>
</g>
<!-- FullyCoupledMualemVanGenuchten -->
<g id="node8" class="node">
<title>FullyCoupledMualemVanGenuchten</title>
<g id="a_node8"><a xlink:href="../api/proteus.SubsurfaceTransportCoefficients.html#proteus.SubsurfaceTransportCoefficients.FullyCoupledMualemVanGenuchten" xlink:title="Formulation using phase continuity equations and Van&#45;Genuchten" target="_top">
<polygon fill="white" stroke="black" stroke-width="0.5" points="985,-389 813,-389 813,-370 985,-370 985,-389"/>
<text text-anchor="middle" x="899" y="-377" font-family="Vera Sans, DejaVu Sans, Liberation Sans, Arial, Helvetica, sans" font-size="10.00">FullyCoupledMualemVanGenuchten</text>
</a>
</g>
</g>
<!-- TwophaseDarcy_fc -->
<g id="node9" class="node">
<title>TwophaseDarcy_fc</title>
<g id="a_node9"><a xlink:href="../api/proteus.SubsurfaceTransportCoefficients.html#proteus.SubsurfaceTransportCoefficients.TwophaseDarcy_fc" xlink:title="continuity equation for each phase" target="_top">
<polygon fill="white" stroke="black" stroke-width="0.5" points="652.5,-331 551.5,-331 551.5,-312 652.5,-312 652.5,-331"/>
<text text-anchor="middle" x="602" y="-319" font-family="Vera Sans, DejaVu Sans, Liberation Sans, Arial, Helvetica, sans" font-size="10.00">TwophaseDarcy_fc</text>
</a>
</g>
</g>
<!-- TwophaseDarcy_fc&#45;&gt;FullyCoupledMualemVanGenuchten -->
<g id="edge4" class="edge">
<title>TwophaseDarcy_fc&#45;&gt;FullyCoupledMualemVanGenuchten</title>
<path fill="none" stroke="black" stroke-width="0.5" d="M652.5,-323.86C678.52,-326.24 710.61,-331 738,-340.5 755.5,-346.57 756.51,-355.39 774,-361.5 784.78,-365.27 796.36,-368.25 807.94,-370.6"/>
<polygon fill="black" stroke="black" stroke-width="0.5" points="807.67,-372.33 812.91,-371.57 808.34,-368.9 807.67,-372.33"/>
</g>
<!-- FullyCoupledSimplePSKs -->
<g id="node13" class="node">
<title>FullyCoupledSimplePSKs</title>
<g id="a_node13"><a xlink:href="../api/proteus.SubsurfaceTransportCoefficients.html#proteus.SubsurfaceTransportCoefficients.FullyCoupledSimplePSKs" xlink:title="Formulation using phase continuity equations and &#39;simp&#39; quadratic" target="_top">
<polygon fill="white" stroke="black" stroke-width="0.5" points="963.5,-352 834.5,-352 834.5,-333 963.5,-333 963.5,-352"/>
<text text-anchor="middle" x="899" y="-340" font-family="Vera Sans, DejaVu Sans, Liberation Sans, Arial, Helvetica, sans" font-size="10.00">FullyCoupledSimplePSKs</text>
</a>
</g>
</g>
<!-- TwophaseDarcy_fc&#45;&gt;FullyCoupledSimplePSKs -->
<g id="edge7" class="edge">
<title>TwophaseDarcy_fc&#45;&gt;FullyCoupledSimplePSKs</title>
<path fill="none" stroke="black" stroke-width="0.5" d="M652.71,-325.04C701.15,-328.49 775.19,-333.76 829.26,-337.61"/>
<polygon fill="black" stroke="black" stroke-width="0.5" points="829.32,-339.36 834.43,-337.97 829.56,-335.87 829.32,-339.36"/>
</g>
<!-- FullyCoupledPressurePressureMualemVanGenuchten -->
<g id="node10" class="node">
<title>FullyCoupledPressurePressureMualemVanGenuchten</title>
<g id="a_node10"><a xlink:href="../api/proteus.SubsurfaceTransportCoefficients.html#proteus.SubsurfaceTransportCoefficients.FullyCoupledPressurePressureMualemVanGenuchten" xlink:title="Formulation using phase continuity equations, pressure&#45;pressure" target="_top">
<polygon fill="white" stroke="black" stroke-width="0.5" points="1024,-315 774,-315 774,-296 1024,-296 1024,-315"/>
<text text-anchor="middle" x="899" y="-303" font-family="Vera Sans, DejaVu Sans, Liberation Sans, Arial, Helvetica, sans" font-size="10.00">FullyCoupledPressurePressureMualemVanGenuchten</text>
</a>
</g>
</g>
<!-- TwophaseDarcy_fc_pp -->
<g id="node11" class="node">
<title>TwophaseDarcy_fc_pp</title>
<g id="a_node11"><a xlink:href="../api/proteus.SubsurfaceTransportCoefficients.html#proteus.SubsurfaceTransportCoefficients.TwophaseDarcy_fc_pp" xlink:title="continuity equation for each phase" target="_top">
<polygon fill="white" stroke="black" stroke-width="0.5" points="660,-278 544,-278 544,-259 660,-259 660,-278"/>
<text text-anchor="middle" x="602" y="-266" font-family="Vera Sans, DejaVu Sans, Liberation Sans, Arial, Helvetica, sans" font-size="10.00">TwophaseDarcy_fc_pp</text>
</a>
</g>
</g>
<!-- TwophaseDarcy_fc_pp&#45;&gt;FullyCoupledPressurePressureMualemVanGenuchten -->
<g id="edge5" class="edge">
<title>TwophaseDarcy_fc_pp&#45;&gt;FullyCoupledPressurePressureMualemVanGenuchten</title>
<path fill="none" stroke="black" stroke-width="0.5" d="M660.23,-275.68C704.86,-281.28 767.4,-289.12 817.14,-295.36"/>
<polygon fill="black" stroke="black" stroke-width="0.5" points="817.04,-297.11 822.22,-296 817.48,-293.64 817.04,-297.11"/>
</g>
<!-- FullyCoupledPressurePressureSimplePSKs -->
<g id="node12" class="node">
<title>FullyCoupledPressurePressureSimplePSKs</title>
<g id="a_node12"><a xlink:href="../api/proteus.SubsurfaceTransportCoefficients.html#proteus.SubsurfaceTransportCoefficients.FullyCoupledPressurePressureSimplePSKs" xlink:title="Formulation using phase continuity equations and &#39;simp&#39; quadratic" target="_top">
<polygon fill="white" stroke="black" stroke-width="0.5" points="1002.5,-278 795.5,-278 795.5,-259 1002.5,-259 1002.5,-278"/>
<text text-anchor="middle" x="899" y="-266" font-family="Vera Sans, DejaVu Sans, Liberation Sans, Arial, Helvetica, sans" font-size="10.00">FullyCoupledPressurePressureSimplePSKs</text>
</a>
</g>
</g>
<!-- TwophaseDarcy_fc_pp&#45;&gt;FullyCoupledPressurePressureSimplePSKs -->
<g id="edge6" class="edge">
<title>TwophaseDarcy_fc_pp&#45;&gt;FullyCoupledPressurePressureSimplePSKs</title>
<path fill="none" stroke="black" stroke-width="0.5" d="M660.23,-268.5C697.09,-268.5 746.18,-268.5 790.18,-268.5"/>
<polygon fill="black" stroke="black" stroke-width="0.5" points="790.25,-270.25 795.25,-268.5 790.25,-266.75 790.25,-270.25"/>
</g>
<!-- IncompressibleFractionalFlowPressureMualemVanGenuchten -->
<g id="node15" class="node">
<title>IncompressibleFractionalFlowPressureMualemVanGenuchten</title>
<g id="a_node15"><a xlink:href="../api/proteus.SubsurfaceTransportCoefficients.html#proteus.SubsurfaceTransportCoefficients.IncompressibleFractionalFlowPressureMualemVanGenuchten" xlink:title="Total flow equation coefficients for incompressible flow assuming" target="_top">
<polygon fill="white" stroke="black" stroke-width="0.5" points="1385.5,-241 1101.5,-241 1101.5,-222 1385.5,-222 1385.5,-241"/>
<text text-anchor="middle" x="1243.5" y="-229" font-family="Vera Sans, DejaVu Sans, Liberation Sans, Arial, Helvetica, sans" font-size="10.00">IncompressibleFractionalFlowPressureMualemVanGenuchten</text>
</a>
</g>
</g>
<!-- TwophaseDarcy_incompressible_split_pressure -->
<g id="node16" class="node">
<title>TwophaseDarcy_incompressible_split_pressure</title>
<g id="a_node16"><a xlink:href="../api/proteus.SubsurfaceTransportCoefficients.html#proteus.SubsurfaceTransportCoefficients.TwophaseDarcy_incompressible_split_pressure" xlink:title="Total flow conservation equation in an incompressible fractional" target="_top">
<polygon fill="white" stroke="black" stroke-width="0.5" points="1011,-204 787,-204 787,-185 1011,-185 1011,-204"/>
<text text-anchor="middle" x="899" y="-192" font-family="Vera Sans, DejaVu Sans, Liberation Sans, Arial, Helvetica, sans" font-size="10.00">TwophaseDarcy_incompressible_split_pressure</text>
</a>
</g>
</g>
<!-- TwophaseDarcy_incompressible_split_pressure&#45;&gt;IncompressibleFractionalFlowPressureMualemVanGenuchten -->
<g id="edge9" class="edge">
<title>TwophaseDarcy_incompressible_split_pressure&#45;&gt;IncompressibleFractionalFlowPressureMualemVanGenuchten</title>
<path fill="none" stroke="black" stroke-width="0.5" d="M983.44,-204.02C1008.09,-206.8 1035.13,-209.81 1060,-212.5 1087.43,-215.47 1117.19,-218.61 1144.56,-221.45"/>
<polygon fill="black" stroke="black" stroke-width="0.5" points="1144.49,-223.21 1149.64,-221.98 1144.85,-219.73 1144.49,-223.21"/>
</g>
<!-- IncompressibleFractionalFlowPressureSimplePSKs -->
<g id="node17" class="node">
<title>IncompressibleFractionalFlowPressureSimplePSKs</title>
<g id="a_node17"><a xlink:href="../api/proteus.SubsurfaceTransportCoefficients.html#proteus.SubsurfaceTransportCoefficients.IncompressibleFractionalFlowPressureSimplePSKs" xlink:title="Total flow equation coefficients for incompressible flow assuming" target="_top">
<polygon fill="white" stroke="black" stroke-width="0.5" points="1364,-204 1123,-204 1123,-185 1364,-185 1364,-204"/>
<text text-anchor="middle" x="1243.5" y="-192" font-family="Vera Sans, DejaVu Sans, Liberation Sans, Arial, Helvetica, sans" font-size="10.00">IncompressibleFractionalFlowPressureSimplePSKs</text>
</a>
</g>
</g>
<!-- TwophaseDarcy_incompressible_split_pressure&#45;&gt;IncompressibleFractionalFlowPressureSimplePSKs -->
<g id="edge10" class="edge">
<title>TwophaseDarcy_incompressible_split_pressure&#45;&gt;IncompressibleFractionalFlowPressureSimplePSKs</title>
<path fill="none" stroke="black" stroke-width="0.5" d="M1011.2,-194.5C1045.18,-194.5 1082.76,-194.5 1117.59,-194.5"/>
<polygon fill="black" stroke="black" stroke-width="0.5" points="1117.7,-196.25 1122.7,-194.5 1117.7,-192.75 1117.7,-196.25"/>
</g>
<!-- IncompressibleFractionalFlowSaturationMualemVanGenuchten -->
<g id="node18" class="node">
<title>IncompressibleFractionalFlowSaturationMualemVanGenuchten</title>
<g id="a_node18"><a xlink:href="../api/proteus.SubsurfaceTransportCoefficients.html#proteus.SubsurfaceTransportCoefficients.IncompressibleFractionalFlowSaturationMualemVanGenuchten" xlink:title="Saturation equation coefficients for incompressible flow assuming" target="_top">
<polygon fill="white" stroke="black" stroke-width="0.5" points="1388,-130 1099,-130 1099,-111 1388,-111 1388,-130"/>
<text text-anchor="middle" x="1243.5" y="-118" font-family="Vera Sans, DejaVu Sans, Liberation Sans, Arial, Helvetica, sans" font-size="10.00">IncompressibleFractionalFlowSaturationMualemVanGenuchten</text>
</a>
</g>
</g>
<!-- IncompressibleFractionalFlowSaturationMualemVanGenuchtenSplitAdvDiff -->
<g id="node20" class="node">
<title>IncompressibleFractionalFlowSaturationMualemVanGenuchtenSplitAdvDiff</title>
<g id="a_node20"><a xlink:href="../api/proteus.SubsurfaceTransportCoefficients.html#proteus.SubsurfaceTransportCoefficients.IncompressibleFractionalFlowSaturationMualemVanGenuchtenSplitAdvDiff" xlink:title="Saturation equation coefficients for incompressible flow assuming" target="_top">
<polygon fill="white" stroke="black" stroke-width="0.5" points="1804,-130 1463,-130 1463,-111 1804,-111 1804,-130"/>
<text text-anchor="middle" x="1633.5" y="-118" font-family="Vera Sans, DejaVu Sans, Liberation Sans, Arial, Helvetica, sans" font-size="10.00">IncompressibleFractionalFlowSaturationMualemVanGenuchtenSplitAdvDiff</text>
</a>
</g>
</g>
<!-- IncompressibleFractionalFlowSaturationMualemVanGenuchten&#45;&gt;IncompressibleFractionalFlowSaturationMualemVanGenuchtenSplitAdvDiff -->
<g id="edge12" class="edge">
<title>IncompressibleFractionalFlowSaturationMualemVanGenuchten&#45;&gt;IncompressibleFractionalFlowSaturationMualemVanGenuchtenSplitAdvDiff</title>
<path fill="none" stroke="black" stroke-width="0.5" d="M1388.15,-120.5C1410.72,-120.5 1434.26,-120.5 1457.44,-120.5"/>
<polygon fill="black" stroke="black" stroke-width="0.5" points="1457.69,-122.25 1462.69,-120.5 1457.69,-118.75 1457.69,-122.25"/>
</g>
<!-- TwophaseDarcy_incompressible_split_saturation -->
<g id="node19" class="node">
<title>TwophaseDarcy_incompressible_split_saturation</title>
<g id="a_node19"><a xlink:href="../api/proteus.SubsurfaceTransportCoefficients.html#proteus.SubsurfaceTransportCoefficients.TwophaseDarcy_incompressible_split_saturation" xlink:title="Aqueous phase mass conservation equation (saturation equation) in" target="_top">
<polygon fill="white" stroke="black" stroke-width="0.5" points="1013.5,-130 784.5,-130 784.5,-111 1013.5,-111 1013.5,-130"/>
<text text-anchor="middle" x="899" y="-118" font-family="Vera Sans, DejaVu Sans, Liberation Sans, Arial, Helvetica, sans" font-size="10.00">TwophaseDarcy_incompressible_split_saturation</text>
</a>
</g>
</g>
<!-- TwophaseDarcy_incompressible_split_saturation&#45;&gt;IncompressibleFractionalFlowSaturationMualemVanGenuchten -->
<g id="edge11" class="edge">
<title>TwophaseDarcy_incompressible_split_saturation&#45;&gt;IncompressibleFractionalFlowSaturationMualemVanGenuchten</title>
<path fill="none" stroke="black" stroke-width="0.5" d="M1013.57,-120.5C1039.24,-120.5 1066.86,-120.5 1093.73,-120.5"/>
<polygon fill="black" stroke="black" stroke-width="0.5" points="1093.73,-122.25 1098.73,-120.5 1093.73,-118.75 1093.73,-122.25"/>
</g>
<!-- IncompressibleFractionalFlowSaturationSimplePSKs -->
<g id="node21" class="node">
<title>IncompressibleFractionalFlowSaturationSimplePSKs</title>
<g id="a_node21"><a xlink:href="../api/proteus.SubsurfaceTransportCoefficients.html#proteus.SubsurfaceTransportCoefficients.IncompressibleFractionalFlowSaturationSimplePSKs" xlink:title="Saturation equation coefficients for incompressible flow assuming" target="_top">
<polygon fill="white" stroke="black" stroke-width="0.5" points="1366.5,-93 1120.5,-93 1120.5,-74 1366.5,-74 1366.5,-93"/>
<text text-anchor="middle" x="1243.5" y="-81" font-family="Vera Sans, DejaVu Sans, Liberation Sans, Arial, Helvetica, sans" font-size="10.00">IncompressibleFractionalFlowSaturationSimplePSKs</text>
</a>
</g>
</g>
<!-- TwophaseDarcy_incompressible_split_saturation&#45;&gt;IncompressibleFractionalFlowSaturationSimplePSKs -->
<g id="edge13" class="edge">
<title>TwophaseDarcy_incompressible_split_saturation&#45;&gt;IncompressibleFractionalFlowSaturationSimplePSKs</title>
<path fill="none" stroke="black" stroke-width="0.5" d="M977.68,-110.96C1003.82,-107.83 1033.16,-104.42 1060,-101.5 1084.93,-98.79 1111.79,-96.05 1137.03,-93.54"/>
<polygon fill="black" stroke="black" stroke-width="0.5" points="1137.25,-95.28 1142.06,-93.04 1136.91,-91.8 1137.25,-95.28"/>
</g>
<!-- VariablySaturatedGroundwaterEnergyTransportCoefficients -->
<g id="node36" class="node">
<title>VariablySaturatedGroundwaterEnergyTransportCoefficients</title>
<g id="a_node36"><a xlink:href="../api/proteus.SubsurfaceTransportCoefficients.html#proteus.SubsurfaceTransportCoefficients.VariablySaturatedGroundwaterEnergyTransportCoefficients" xlink:title="VariablySaturatedGroundwaterEnergyTransportCoefficients" target="_top">
<polygon fill="white" stroke="black" stroke-width="0.5" points="738,-368 466,-368 466,-349 738,-349 738,-368"/>
<text text-anchor="middle" x="602" y="-356" font-family="Vera Sans, DejaVu Sans, Liberation Sans, Arial, Helvetica, sans" font-size="10.00">VariablySaturatedGroundwaterEnergyTransportCoefficients</text>
</a>
</g>
</g>
<!-- MultiphaseGroundwaterTransportCoefficients&#45;&gt;VariablySaturatedGroundwaterEnergyTransportCoefficients -->
<g id="edge33" class="edge">
<title>MultiphaseGroundwaterTransportCoefficients&#45;&gt;VariablySaturatedGroundwaterEnergyTransportCoefficients</title>
<path fill="none" stroke="black" stroke-width="0.5" d="M410.27,-292.07C417.14,-294.36 423.79,-297.14 430,-300.5 451.04,-311.88 444.84,-329.34 466,-340.5 470.8,-343.03 475.83,-345.26 481.01,-347.21"/>
<polygon fill="black" stroke="black" stroke-width="0.5" points="480.5,-348.88 485.8,-348.92 481.68,-345.59 480.5,-348.88"/>
</g>
<!-- NonlinearEquation -->
<g id="node23" class="node">
<title>NonlinearEquation</title>
<g id="a_node23"><a xlink:href="../proteus.NonlinearSolvers.html#proteus.NonlinearSolvers.NonlinearEquation" xlink:title="The base class for nonlinear equations." target="_top">
<polygon fill="white" stroke="black" stroke-width="0.5" points="127.5,-421 31.5,-421 31.5,-402 127.5,-402 127.5,-421"/>
<text text-anchor="middle" x="79.5" y="-409" font-family="Vera Sans, DejaVu Sans, Liberation Sans, Arial, Helvetica, sans" font-size="10.00">NonlinearEquation</text>
</a>
</g>
</g>
<!-- OneLevelTransport -->
<g id="node24" class="node">
<title>OneLevelTransport</title>
<g id="a_node24"><a xlink:href="../proteus.Transport.html#proteus.Transport.OneLevelTransport" xlink:title="A class for finite element discretizations of multicomponent" target="_top">
<polygon fill="white" stroke="black" stroke-width="0.5" points="362,-421 263,-421 263,-402 362,-402 362,-421"/>
<text text-anchor="middle" x="312.5" y="-409" font-family="Vera Sans, DejaVu Sans, Liberation Sans, Arial, Helvetica, sans" font-size="10.00">OneLevelTransport</text>
</a>
</g>
</g>
<!-- NonlinearEquation&#45;&gt;OneLevelTransport -->
<g id="edge15" class="edge">
<title>NonlinearEquation&#45;&gt;OneLevelTransport</title>
<path fill="none" stroke="black" stroke-width="0.5" d="M127.52,-411.5C165.27,-411.5 218.29,-411.5 257.72,-411.5"/>
<polygon fill="black" stroke="black" stroke-width="0.5" points="257.95,-413.25 262.95,-411.5 257.95,-409.75 257.95,-413.25"/>
</g>
<!-- RE_NCP1_OneLevelTransport -->
<g id="node29" class="node">
<title>RE_NCP1_OneLevelTransport</title>
<g id="a_node29"><a xlink:href="../api/proteus.SubsurfaceTransportCoefficients.html#proteus.SubsurfaceTransportCoefficients.RE_NCP1_OneLevelTransport" xlink:title="OneLevelTransport designed specifically for Non&#45;Conforming" target="_top">
<polygon fill="white" stroke="black" stroke-width="0.5" points="677.5,-421 526.5,-421 526.5,-402 677.5,-402 677.5,-421"/>
<text text-anchor="middle" x="602" y="-409" font-family="Vera Sans, DejaVu Sans, Liberation Sans, Arial, Helvetica, sans" font-size="10.00">RE_NCP1_OneLevelTransport</text>
</a>
</g>
</g>
<!-- OneLevelTransport&#45;&gt;RE_NCP1_OneLevelTransport -->
<g id="edge18" class="edge">
<title>OneLevelTransport&#45;&gt;RE_NCP1_OneLevelTransport</title>
<path fill="none" stroke="black" stroke-width="0.5" d="M362.27,-411.5C405.72,-411.5 470.11,-411.5 521.08,-411.5"/>
<polygon fill="black" stroke="black" stroke-width="0.5" points="521.28,-413.25 526.28,-411.5 521.28,-409.75 521.28,-413.25"/>
</g>
<!-- PressurePressureIncompressibleFractionalFlowPressureMualemVanGenuchten -->
<g id="node25" class="node">
<title>PressurePressureIncompressibleFractionalFlowPressureMualemVanGenuchten</title>
<g id="a_node25"><a xlink:href="../api/proteus.SubsurfaceTransportCoefficients.html#proteus.SubsurfaceTransportCoefficients.PressurePressureIncompressibleFractionalFlowPressureMualemVanGenuchten" xlink:title="Total flow equation coefficients for incompressible flow assuming" target="_top">
<polygon fill="white" stroke="black" stroke-width="0.5" points="1424.5,-56 1062.5,-56 1062.5,-37 1424.5,-37 1424.5,-56"/>
<text text-anchor="middle" x="1243.5" y="-44" font-family="Vera Sans, DejaVu Sans, Liberation Sans, Arial, Helvetica, sans" font-size="10.00">PressurePressureIncompressibleFractionalFlowPressureMualemVanGenuchten</text>
</a>
</g>
</g>
<!-- TwophaseDarcy_incompressible_split_pp_pressure -->
<g id="node26" class="node">
<title>TwophaseDarcy_incompressible_split_pp_pressure</title>
<g id="a_node26"><a xlink:href="../api/proteus.SubsurfaceTransportCoefficients.html#proteus.SubsurfaceTransportCoefficients.TwophaseDarcy_incompressible_split_pp_pressure" xlink:title="Total flow conservation equation in an incompressible fractional" target="_top">
<polygon fill="white" stroke="black" stroke-width="0.5" points="1018.5,-84 779.5,-84 779.5,-65 1018.5,-65 1018.5,-84"/>
<text text-anchor="middle" x="899" y="-72" font-family="Vera Sans, DejaVu Sans, Liberation Sans, Arial, Helvetica, sans" font-size="10.00">TwophaseDarcy_incompressible_split_pp_pressure</text>
</a>
</g>
</g>
<!-- TwophaseDarcy_incompressible_split_pp_pressure&#45;&gt;PressurePressureIncompressibleFractionalFlowPressureMualemVanGenuchten -->
<g id="edge16" class="edge">
<title>TwophaseDarcy_incompressible_split_pp_pressure&#45;&gt;PressurePressureIncompressibleFractionalFlowPressureMualemVanGenuchten</title>
<path fill="none" stroke="black" stroke-width="0.5" d="M1016.43,-64.98C1050.17,-62.22 1087.07,-59.21 1121.1,-56.42"/>
<polygon fill="black" stroke="black" stroke-width="0.5" points="1121.26,-58.17 1126.1,-56.02 1120.97,-54.68 1121.26,-58.17"/>
</g>
<!-- PressurePressureIncompressibleFractionalFlowSaturationMualemVanGenuchten -->
<g id="node27" class="node">
<title>PressurePressureIncompressibleFractionalFlowSaturationMualemVanGenuchten</title>
<g id="a_node27"><a xlink:href="../api/proteus.SubsurfaceTransportCoefficients.html#proteus.SubsurfaceTransportCoefficients.PressurePressureIncompressibleFractionalFlowSaturationMualemVanGenuchten" xlink:title="Saturation equation coefficients for incompressible flow assuming" target="_top">
<polygon fill="white" stroke="black" stroke-width="0.5" points="1427,-19 1060,-19 1060,0 1427,0 1427,-19"/>
<text text-anchor="middle" x="1243.5" y="-7" font-family="Vera Sans, DejaVu Sans, Liberation Sans, Arial, Helvetica, sans" font-size="10.00">PressurePressureIncompressibleFractionalFlowSaturationMualemVanGenuchten</text>
</a>
</g>
</g>
<!-- TwophaseDarcy_incompressible_split_pp_saturation -->
<g id="node28" class="node">
<title>TwophaseDarcy_incompressible_split_pp_saturation</title>
<g id="a_node28"><a xlink:href="../api/proteus.SubsurfaceTransportCoefficients.html#proteus.SubsurfaceTransportCoefficients.TwophaseDarcy_incompressible_split_pp_saturation" xlink:title="Aqueous phase mass conservation equation (saturation equation) in" target="_top">
<polygon fill="white" stroke="black" stroke-width="0.5" points="1021.5,-37 776.5,-37 776.5,-18 1021.5,-18 1021.5,-37"/>
<text text-anchor="middle" x="899" y="-25" font-family="Vera Sans, DejaVu Sans, Liberation Sans, Arial, Helvetica, sans" font-size="10.00">TwophaseDarcy_incompressible_split_pp_saturation</text>
</a>
</g>
</g>
<!-- TwophaseDarcy_incompressible_split_pp_saturation&#45;&gt;PressurePressureIncompressibleFractionalFlowSaturationMualemVanGenuchten -->
<g id="edge17" class="edge">
<title>TwophaseDarcy_incompressible_split_pp_saturation&#45;&gt;PressurePressureIncompressibleFractionalFlowSaturationMualemVanGenuchten</title>
<path fill="none" stroke="black" stroke-width="0.5" d="M1021.72,-21.1C1033.07,-20.51 1044.75,-19.89 1056.52,-19.27"/>
<polygon fill="black" stroke="black" stroke-width="0.5" points="1056.66,-21.02 1061.56,-19.01 1056.48,-17.52 1056.66,-21.02"/>
</g>
<!-- TwophaseDarcyFlow_base&#45;&gt;TwophaseDarcy_fc -->
<g id="edge23" class="edge">
<title>TwophaseDarcyFlow_base&#45;&gt;TwophaseDarcy_fc</title>
<path fill="none" stroke="black" stroke-width="0.5" d="M379.69,-205.37C397.26,-209.35 415.39,-215.87 430,-226.5 455.15,-244.8 441.09,-267.88 466,-286.5 489.09,-303.76 519.9,-312.54 546.26,-316.99"/>
<polygon fill="black" stroke="black" stroke-width="0.5" points="546.26,-318.76 551.47,-317.82 546.81,-315.3 546.26,-318.76"/>
</g>
<!-- TwophaseDarcyFlow_base&#45;&gt;TwophaseDarcy_fc_pp -->
<g id="edge24" class="edge">
<title>TwophaseDarcyFlow_base&#45;&gt;TwophaseDarcy_fc_pp</title>
<path fill="none" stroke="black" stroke-width="0.5" d="M355.32,-209.05C377.52,-214.16 405.26,-220.6 430,-226.5 473.5,-236.88 523.13,-249.12 557.68,-257.69"/>
<polygon fill="black" stroke="black" stroke-width="0.5" points="557.39,-259.42 562.66,-258.93 558.23,-256.03 557.39,-259.42"/>
</g>
<!-- TwophaseDarcy_split_pressure_base -->
<g id="node32" class="node">
<title>TwophaseDarcy_split_pressure_base</title>
<g id="a_node32"><a xlink:href="../api/proteus.SubsurfaceTransportCoefficients.html#proteus.SubsurfaceTransportCoefficients.TwophaseDarcy_split_pressure_base" xlink:title="Base class for &#39;pressure&#39; or total flow conservation equation in" target="_top">
<polygon fill="white" stroke="black" stroke-width="0.5" points="691.5,-209 512.5,-209 512.5,-190 691.5,-190 691.5,-209"/>
<text text-anchor="middle" x="602" y="-197" font-family="Vera Sans, DejaVu Sans, Liberation Sans, Arial, Helvetica, sans" font-size="10.00">TwophaseDarcy_split_pressure_base</text>
</a>
</g>
</g>
<!-- TwophaseDarcyFlow_base&#45;&gt;TwophaseDarcy_split_pressure_base -->
<g id="edge31" class="edge">
<title>TwophaseDarcyFlow_base&#45;&gt;TwophaseDarcy_split_pressure_base</title>
<path fill="none" stroke="black" stroke-width="0.5" d="M379.82,-199.5C417.67,-199.5 465.72,-199.5 507.36,-199.5"/>
<polygon fill="black" stroke="black" stroke-width="0.5" points="507.4,-201.25 512.4,-199.5 507.4,-197.75 507.4,-201.25"/>
</g>
<!-- TwophaseDarcy_split_saturation_base -->
<g id="node33" class="node">
<title>TwophaseDarcy_split_saturation_base</title>
<g id="a_node33"><a xlink:href="../api/proteus.SubsurfaceTransportCoefficients.html#proteus.SubsurfaceTransportCoefficients.TwophaseDarcy_split_saturation_base" xlink:title="Base class for aqueous phase mass conservation equation" target="_top">
<polygon fill="white" stroke="black" stroke-width="0.5" points="694.5,-167 509.5,-167 509.5,-148 694.5,-148 694.5,-167"/>
<text text-anchor="middle" x="602" y="-155" font-family="Vera Sans, DejaVu Sans, Liberation Sans, Arial, Helvetica, sans" font-size="10.00">TwophaseDarcy_split_saturation_base</text>
</a>
</g>
</g>
<!-- TwophaseDarcyFlow_base&#45;&gt;TwophaseDarcy_split_saturation_base -->
<g id="edge32" class="edge">
<title>TwophaseDarcyFlow_base&#45;&gt;TwophaseDarcy_split_saturation_base</title>
<path fill="none" stroke="black" stroke-width="0.5" d="M378.74,-189.97C423.98,-183.36 484.18,-174.57 530.51,-167.8"/>
<polygon fill="black" stroke="black" stroke-width="0.5" points="530.83,-169.52 535.52,-167.07 530.32,-166.06 530.83,-169.52"/>
</g>
<!-- TwophaseDarcy_split_pp_pressure_base -->
<g id="node34" class="node">
<title>TwophaseDarcy_split_pp_pressure_base</title>
<g id="a_node34"><a xlink:href="../api/proteus.SubsurfaceTransportCoefficients.html#proteus.SubsurfaceTransportCoefficients.TwophaseDarcy_split_pp_pressure_base" xlink:title="Base class for &#39;pressure&#39; or total flow conservation equation in" target="_top">
<polygon fill="white" stroke="black" stroke-width="0.5" points="699.5,-121 504.5,-121 504.5,-102 699.5,-102 699.5,-121"/>
<text text-anchor="middle" x="602" y="-109" font-family="Vera Sans, DejaVu Sans, Liberation Sans, Arial, Helvetica, sans" font-size="10.00">TwophaseDarcy_split_pp_pressure_base</text>
</a>
</g>
</g>
<!-- TwophaseDarcyFlow_base&#45;&gt;TwophaseDarcy_split_pp_pressure_base -->
<g id="edge29" class="edge">
<title>TwophaseDarcyFlow_base&#45;&gt;TwophaseDarcy_split_pp_pressure_base</title>
<path fill="none" stroke="black" stroke-width="0.5" d="M333.79,-189.99C362.62,-176.8 417.35,-152.96 466,-138.5 488.58,-131.79 513.78,-126.24 536.24,-121.96"/>
<polygon fill="black" stroke="black" stroke-width="0.5" points="536.69,-123.66 541.28,-121.01 536.04,-120.22 536.69,-123.66"/>
</g>
<!-- TwophaseDarcy_split_pp_saturation_base -->
<g id="node35" class="node">
<title>TwophaseDarcy_split_pp_saturation_base</title>
<g id="a_node35"><a xlink:href="../api/proteus.SubsurfaceTransportCoefficients.html#proteus.SubsurfaceTransportCoefficients.TwophaseDarcy_split_pp_saturation_base" xlink:title="Base class for aqueous phase mass conservation equation" target="_top">
<polygon fill="white" stroke="black" stroke-width="0.5" points="702,-74 502,-74 502,-55 702,-55 702,-74"/>
<text text-anchor="middle" x="602" y="-62" font-family="Vera Sans, DejaVu Sans, Liberation Sans, Arial, Helvetica, sans" font-size="10.00">TwophaseDarcy_split_pp_saturation_base</text>
</a>
</g>
</g>
<!-- TwophaseDarcyFlow_base&#45;&gt;TwophaseDarcy_split_pp_saturation_base -->
<g id="edge30" class="edge">
<title>TwophaseDarcyFlow_base&#45;&gt;TwophaseDarcy_split_pp_saturation_base</title>
<path fill="none" stroke="black" stroke-width="0.5" d="M324.03,-189.75C347.54,-168.53 406.93,-118.05 466,-92.5 483.67,-84.86 503.57,-79.25 522.54,-75.16"/>
<polygon fill="black" stroke="black" stroke-width="0.5" points="523.33,-76.78 527.87,-74.05 522.62,-73.36 523.33,-76.78"/>
</g>
<!-- TwophaseDarcy_split_pressure_base&#45;&gt;TwophaseDarcy_compressible_split_pressure -->
<g id="edge21" class="edge">
<title>TwophaseDarcy_split_pressure_base&#45;&gt;TwophaseDarcy_compressible_split_pressure</title>
<path fill="none" stroke="black" stroke-width="0.5" d="M690.71,-209.01C726.73,-212.92 768.47,-217.45 805.02,-221.41"/>
<polygon fill="black" stroke="black" stroke-width="0.5" points="805.21,-223.2 810.37,-221.99 805.59,-219.72 805.21,-223.2"/>
</g>
<!-- TwophaseDarcy_split_pressure_base&#45;&gt;TwophaseDarcy_incompressible_split_pressure -->
<g id="edge27" class="edge">
<title>TwophaseDarcy_split_pressure_base&#45;&gt;TwophaseDarcy_incompressible_split_pressure</title>
<path fill="none" stroke="black" stroke-width="0.5" d="M691.51,-198C719.83,-197.52 751.62,-196.98 781.61,-196.47"/>
<polygon fill="black" stroke="black" stroke-width="0.5" points="781.82,-198.22 786.79,-196.38 781.76,-194.72 781.82,-198.22"/>
</g>
<!-- TwophaseDarcy_split_saturation_base&#45;&gt;TwophaseDarcy_compressible_split_saturation -->
<g id="edge22" class="edge">
<title>TwophaseDarcy_split_saturation_base&#45;&gt;TwophaseDarcy_compressible_split_saturation</title>
<path fill="none" stroke="black" stroke-width="0.5" d="M694.72,-157.5C722.78,-157.5 754,-157.5 783.39,-157.5"/>
<polygon fill="black" stroke="black" stroke-width="0.5" points="783.47,-159.25 788.47,-157.5 783.47,-155.75 783.47,-159.25"/>
</g>
<!-- TwophaseDarcy_split_saturation_base&#45;&gt;TwophaseDarcy_incompressible_split_saturation -->
<g id="edge28" class="edge">
<title>TwophaseDarcy_split_saturation_base&#45;&gt;TwophaseDarcy_incompressible_split_saturation</title>
<path fill="none" stroke="black" stroke-width="0.5" d="M678.97,-147.97C721.21,-142.67 773.78,-136.08 816.83,-130.68"/>
<polygon fill="black" stroke="black" stroke-width="0.5" points="817.29,-132.39 822.03,-130.03 816.85,-128.91 817.29,-132.39"/>
</g>
<!-- TwophaseDarcy_split_pp_pressure_base&#45;&gt;TwophaseDarcy_incompressible_split_pp_pressure -->
<g id="edge25" class="edge">
<title>TwophaseDarcy_split_pp_pressure_base&#45;&gt;TwophaseDarcy_incompressible_split_pp_pressure</title>
<path fill="none" stroke="black" stroke-width="0.5" d="M678.97,-101.97C721.21,-96.67 773.78,-90.08 816.83,-84.68"/>
<polygon fill="black" stroke="black" stroke-width="0.5" points="817.29,-86.39 822.03,-84.03 816.85,-82.91 817.29,-86.39"/>
</g>
<!-- TwophaseDarcy_split_pp_saturation_base&#45;&gt;TwophaseDarcy_incompressible_split_pp_saturation -->
<g id="edge26" class="edge">
<title>TwophaseDarcy_split_pp_saturation_base&#45;&gt;TwophaseDarcy_incompressible_split_pp_saturation</title>
<path fill="none" stroke="black" stroke-width="0.5" d="M678.97,-54.97C721.21,-49.67 773.78,-43.08 816.83,-37.68"/>
<polygon fill="black" stroke="black" stroke-width="0.5" points="817.29,-39.39 822.03,-37.03 816.85,-35.91 817.29,-39.39"/>
</g>
</g>
</svg>
