<?xml version="1.0" encoding="UTF-8" standalone="no"?>
<!DOCTYPE svg PUBLIC "-//W3C//DTD SVG 1.1//EN"
 "http://www.w3.org/Graphics/SVG/1.1/DTD/svg11.dtd">
<!-- Generated by graphviz version 2.44.1 (20200629.0846)
 -->
<!-- Title: inheritanceb3a20b897e Pages: 1 -->
<svg width="672pt" height="360pt"
 viewBox="0.00 0.00 672.00 360.00" xmlns="http://www.w3.org/2000/svg" xmlns:xlink="http://www.w3.org/1999/xlink">
<g id="graph0" class="graph" transform="scale(1 1) rotate(0) translate(4 356)">
<title>inheritanceb3a20b897e</title>
<!-- AggregateVelocityPostProcessor -->
<g id="node1" class="node">
<title>AggregateVelocityPostProcessor</title>
<g id="a_node1"><a xlink:href="../api/proteus.PostProcessingTools.html#proteus.PostProcessingTools.AggregateVelocityPostProcessor" xlink:title="collect different velocity postprocessing algorithms for a (possibly) multicomponent system" target="_top">
<polygon fill="white" stroke="black" stroke-width="0.5" points="172,-148 12,-148 12,-129 172,-129 172,-148"/>
<text text-anchor="middle" x="92" y="-136" font-family="Vera Sans, DejaVu Sans, Liberation Sans, Arial, Helvetica, sans" font-size="10.00">AggregateVelocityPostProcessor</text>
</a>
</g>
</g>
<!-- VPP_DG_BDM -->
<g id="node2" class="node">
<title>VPP_DG_BDM</title>
<g id="a_node2"><a xlink:href="../api/proteus.PostProcessingTools.html#proteus.PostProcessingTools.VPP_DG_BDM" xlink:title="Project DG solution onto BDM1 local representation which is" target="_top">
<polygon fill="white" stroke="black" stroke-width="0.5" points="497,-352 412,-352 412,-333 497,-333 497,-352"/>
<text text-anchor="middle" x="454.5" y="-340" font-family="Vera Sans, DejaVu Sans, Liberation Sans, Arial, Helvetica, sans" font-size="10.00">VPP_DG_BDM</text>
</a>
</g>
</g>
<!-- VPP_DG_RT0 -->
<g id="node3" class="node">
<title>VPP_DG_RT0</title>
<g id="a_node3"><a xlink:href="../api/proteus.PostProcessingTools.html#proteus.PostProcessingTools.VPP_DG_RT0" xlink:title="Post process DG solution velocity by projecting boundary fluxes" target="_top">
<polygon fill="white" stroke="black" stroke-width="0.5" points="331,-352 251,-352 251,-333 331,-333 331,-352"/>
<text text-anchor="middle" x="291" y="-340" font-family="Vera Sans, DejaVu Sans, Liberation Sans, Arial, Helvetica, sans" font-size="10.00">VPP_DG_RT0</text>
</a>
</g>
</g>
<!-- VPP_DG_RT0&#45;&gt;VPP_DG_BDM -->
<g id="edge1" class="edge">
<title>VPP_DG_RT0&#45;&gt;VPP_DG_BDM</title>
<path fill="none" stroke="black" stroke-width="0.5" d="M331.09,-342.5C353.93,-342.5 382.88,-342.5 406.9,-342.5"/>
<polygon fill="black" stroke="black" stroke-width="0.5" points="406.94,-344.25 411.94,-342.5 406.94,-340.75 406.94,-344.25"/>
</g>
<!-- VelocityPostProcessingAlgorithmBase -->
<g id="node4" class="node">
<title>VelocityPostProcessingAlgorithmBase</title>
<g id="a_node4"><a xlink:href="../api/proteus.PostProcessingTools.html#proteus.PostProcessingTools.VelocityPostProcessingAlgorithmBase" xlink:title="Base class for velocity post processing algorithms" target="_top">
<polygon fill="white" stroke="black" stroke-width="0.5" points="184,-185 0,-185 0,-166 184,-166 184,-185"/>
<text text-anchor="middle" x="92" y="-173" font-family="Vera Sans, DejaVu Sans, Liberation Sans, Arial, Helvetica, sans" font-size="10.00">VelocityPostProcessingAlgorithmBase</text>
</a>
</g>
</g>
<!-- VelocityPostProcessingAlgorithmBase&#45;&gt;VPP_DG_RT0 -->
<g id="edge2" class="edge">
<title>VelocityPostProcessingAlgorithmBase&#45;&gt;VPP_DG_RT0</title>
<path fill="none" stroke="black" stroke-width="0.5" d="M170.58,-185.12C175.45,-187.66 180,-190.75 184,-194.5 227.73,-235.51 177.22,-282.5 220,-324.5 227.02,-331.39 236.29,-335.74 245.79,-338.48"/>
<polygon fill="black" stroke="black" stroke-width="0.5" points="245.49,-340.2 250.77,-339.76 246.36,-336.82 245.49,-340.2"/>
</g>
<!-- VPP_LOW_K_IB_PWL_RT0 -->
<g id="node5" class="node">
<title>VPP_LOW_K_IB_PWL_RT0</title>
<g id="a_node5"><a xlink:href="../api/proteus.PostProcessingTools.html#proteus.PostProcessingTools.VPP_LOW_K_IB_PWL_RT0" xlink:title="Local Larson&#45;Niklasson method with RT_0 representation for element" target="_top">
<polygon fill="white" stroke="black" stroke-width="0.5" points="362,-315 220,-315 220,-296 362,-296 362,-315"/>
<text text-anchor="middle" x="291" y="-303" font-family="Vera Sans, DejaVu Sans, Liberation Sans, Arial, Helvetica, sans" font-size="10.00">VPP_LOW_K_IB_PWL_RT0</text>
</a>
</g>
</g>
<!-- VelocityPostProcessingAlgorithmBase&#45;&gt;VPP_LOW_K_IB_PWL_RT0 -->
<g id="edge3" class="edge">
<title>VelocityPostProcessingAlgorithmBase&#45;&gt;VPP_LOW_K_IB_PWL_RT0</title>
<path fill="none" stroke="black" stroke-width="0.5" d="M169.29,-185.15C174.59,-187.66 179.57,-190.74 184,-194.5 217.79,-223.18 186.87,-258.06 220,-287.5 222.52,-289.74 225.29,-291.71 228.22,-293.44"/>
<polygon fill="black" stroke="black" stroke-width="0.5" points="227.71,-295.16 232.95,-295.97 229.36,-292.07 227.71,-295.16"/>
</g>
<!-- VPP_P1nc_RT0 -->
<g id="node6" class="node">
<title>VPP_P1nc_RT0</title>
<g id="a_node6"><a xlink:href="../api/proteus.PostProcessingTools.html#proteus.PostProcessingTools.VPP_P1nc_RT0" xlink:title="P1&#45;nonconforming velocity postprocessing" target="_top">
<polygon fill="white" stroke="black" stroke-width="0.5" points="335,-278 247,-278 247,-259 335,-259 335,-278"/>
<text text-anchor="middle" x="291" y="-266" font-family="Vera Sans, DejaVu Sans, Liberation Sans, Arial, Helvetica, sans" font-size="10.00">VPP_P1nc_RT0</text>
</a>
</g>
</g>
<!-- VelocityPostProcessingAlgorithmBase&#45;&gt;VPP_P1nc_RT0 -->
<g id="edge4" class="edge">
<title>VelocityPostProcessingAlgorithmBase&#45;&gt;VPP_P1nc_RT0</title>
<path fill="none" stroke="black" stroke-width="0.5" d="M165.75,-185.08C172.21,-187.56 178.42,-190.66 184,-194.5 208.38,-211.27 196.02,-233.17 220,-250.5 226.49,-255.19 234.08,-258.65 241.84,-261.22"/>
<polygon fill="black" stroke="black" stroke-width="0.5" points="241.38,-262.91 246.68,-262.7 242.41,-259.56 241.38,-262.91"/>
</g>
<!-- VPP_POINT_EVAL -->
<g id="node7" class="node">
<title>VPP_POINT_EVAL</title>
<g id="a_node7"><a xlink:href="../api/proteus.PostProcessingTools.html#proteus.PostProcessingTools.VPP_POINT_EVAL" xlink:title="Velocity calculation from just directly evaluating flux formula at intergration points using" target="_top">
<polygon fill="white" stroke="black" stroke-width="0.5" points="342.5,-241 239.5,-241 239.5,-222 342.5,-222 342.5,-241"/>
<text text-anchor="middle" x="291" y="-229" font-family="Vera Sans, DejaVu Sans, Liberation Sans, Arial, Helvetica, sans" font-size="10.00">VPP_POINT_EVAL</text>
</a>
</g>
</g>
<!-- VelocityPostProcessingAlgorithmBase&#45;&gt;VPP_POINT_EVAL -->
<g id="edge5" class="edge">
<title>VelocityPostProcessingAlgorithmBase&#45;&gt;VPP_POINT_EVAL</title>
<path fill="none" stroke="black" stroke-width="0.5" d="M150.96,-185.06C162.08,-187.61 173.52,-190.73 184,-194.5 201.02,-200.63 203.12,-206.98 220,-213.5 226.75,-216.11 234.02,-218.46 241.22,-220.53"/>
<polygon fill="black" stroke="black" stroke-width="0.5" points="240.9,-222.25 246.19,-221.92 241.84,-218.88 240.9,-222.25"/>
</g>
<!-- VPP_POINT_EVAL_GWVD -->
<g id="node8" class="node">
<title>VPP_POINT_EVAL_GWVD</title>
<g id="a_node8"><a xlink:href="../api/proteus.PostProcessingTools.html#proteus.PostProcessingTools.VPP_POINT_EVAL_GWVD" xlink:title="Velocity calculation for evaluating coarse grid velocity solution" target="_top">
<polygon fill="white" stroke="black" stroke-width="0.5" points="361,-204 221,-204 221,-185 361,-185 361,-204"/>
<text text-anchor="middle" x="291" y="-192" font-family="Vera Sans, DejaVu Sans, Liberation Sans, Arial, Helvetica, sans" font-size="10.00">VPP_POINT_EVAL_GWVD</text>
</a>
</g>
</g>
<!-- VelocityPostProcessingAlgorithmBase&#45;&gt;VPP_POINT_EVAL_GWVD -->
<g id="edge6" class="edge">
<title>VelocityPostProcessingAlgorithmBase&#45;&gt;VPP_POINT_EVAL_GWVD</title>
<path fill="none" stroke="black" stroke-width="0.5" d="M184,-184.28C194.66,-185.3 205.43,-186.34 215.82,-187.35"/>
<polygon fill="black" stroke="black" stroke-width="0.5" points="215.75,-189.1 220.89,-187.83 216.08,-185.61 215.75,-189.1"/>
</g>
<!-- VPP_PWC_RT0 -->
<g id="node9" class="node">
<title>VPP_PWC_RT0</title>
<g id="a_node9"><a xlink:href="../api/proteus.PostProcessingTools.html#proteus.PostProcessingTools.VPP_PWC_RT0" xlink:title="Global piecewise constant Larson&#45;Niklasson method with :math:`RT_0`" target="_top">
<polygon fill="white" stroke="black" stroke-width="0.5" points="335.5,-167 246.5,-167 246.5,-148 335.5,-148 335.5,-167"/>
<text text-anchor="middle" x="291" y="-155" font-family="Vera Sans, DejaVu Sans, Liberation Sans, Arial, Helvetica, sans" font-size="10.00">VPP_PWC_RT0</text>
</a>
</g>
</g>
<!-- VelocityPostProcessingAlgorithmBase&#45;&gt;VPP_PWC_RT0 -->
<g id="edge7" class="edge">
<title>VelocityPostProcessingAlgorithmBase&#45;&gt;VPP_PWC_RT0</title>
<path fill="none" stroke="black" stroke-width="0.5" d="M184,-167.18C203.65,-165.39 223.69,-163.56 240.98,-161.98"/>
<polygon fill="black" stroke="black" stroke-width="0.5" points="241.44,-163.69 246.26,-161.5 241.12,-160.21 241.44,-163.69"/>
</g>
<!-- VPP_PWL_RT0 -->
<g id="node11" class="node">
<title>VPP_PWL_RT0</title>
<g id="a_node11"><a xlink:href="../api/proteus.PostProcessingTools.html#proteus.PostProcessingTools.VPP_PWL_RT0" xlink:title="Local Larson&#45;Niklasson method with RT_0 representation for element" target="_top">
<polygon fill="white" stroke="black" stroke-width="0.5" points="334.5,-130 247.5,-130 247.5,-111 334.5,-111 334.5,-130"/>
<text text-anchor="middle" x="291" y="-118" font-family="Vera Sans, DejaVu Sans, Liberation Sans, Arial, Helvetica, sans" font-size="10.00">VPP_PWL_RT0</text>
</a>
</g>
</g>
<!-- VelocityPostProcessingAlgorithmBase&#45;&gt;VPP_PWL_RT0 -->
<g id="edge11" class="edge">
<title>VelocityPostProcessingAlgorithmBase&#45;&gt;VPP_PWL_RT0</title>
<path fill="none" stroke="black" stroke-width="0.5" d="M153.32,-165.94C163.68,-163.63 174.25,-160.83 184,-157.5 200.93,-151.71 203.29,-145.87 220,-139.5 227.79,-136.53 236.24,-133.82 244.49,-131.44"/>
<polygon fill="black" stroke="black" stroke-width="0.5" points="245.25,-133.05 249.58,-130 244.29,-129.68 245.25,-133.05"/>
</g>
<!-- VPP_PWL_RT1 -->
<g id="node15" class="node">
<title>VPP_PWL_RT1</title>
<g id="a_node15"><a xlink:href="../api/proteus.PostProcessingTools.html#proteus.PostProcessingTools.VPP_PWL_RT1" xlink:title="Base class for higher order RT elements." target="_top">
<polygon fill="white" stroke="black" stroke-width="0.5" points="334.5,-93 247.5,-93 247.5,-74 334.5,-74 334.5,-93"/>
<text text-anchor="middle" x="291" y="-81" font-family="Vera Sans, DejaVu Sans, Liberation Sans, Arial, Helvetica, sans" font-size="10.00">VPP_PWL_RT1</text>
</a>
</g>
</g>
<!-- VelocityPostProcessingAlgorithmBase&#45;&gt;VPP_PWL_RT1 -->
<g id="edge13" class="edge">
<title>VelocityPostProcessingAlgorithmBase&#45;&gt;VPP_PWL_RT1</title>
<path fill="none" stroke="black" stroke-width="0.5" d="M168,-165.83C173.65,-163.58 179.06,-160.83 184,-157.5 208.22,-141.17 196.36,-119.67 220,-102.5 226.67,-97.66 234.5,-94.05 242.46,-91.36"/>
<polygon fill="black" stroke="black" stroke-width="0.5" points="243.18,-92.97 247.43,-89.8 242.13,-89.63 243.18,-92.97"/>
</g>
<!-- VPP_SUN_GS_RT0 -->
<g id="node16" class="node">
<title>VPP_SUN_GS_RT0</title>
<g id="a_node16"><a xlink:href="../api/proteus.PostProcessingTools.html#proteus.PostProcessingTools.VPP_SUN_GS_RT0" xlink:title="Local Sun&#45;Wheeler &quot;Gauss&#45;Seidel&quot; method with :math:`RT_0` representation" target="_top">
<polygon fill="white" stroke="black" stroke-width="0.5" points="344.5,-56 237.5,-56 237.5,-37 344.5,-37 344.5,-56"/>
<text text-anchor="middle" x="291" y="-44" font-family="Vera Sans, DejaVu Sans, Liberation Sans, Arial, Helvetica, sans" font-size="10.00">VPP_SUN_GS_RT0</text>
</a>
</g>
</g>
<!-- VelocityPostProcessingAlgorithmBase&#45;&gt;VPP_SUN_GS_RT0 -->
<g id="edge14" class="edge">
<title>VelocityPostProcessingAlgorithmBase&#45;&gt;VPP_SUN_GS_RT0</title>
<path fill="none" stroke="black" stroke-width="0.5" d="M171.01,-165.87C175.66,-163.57 180.05,-160.81 184,-157.5 217.68,-129.33 187.32,-94.83 220,-65.5 223.8,-62.09 228.14,-59.29 232.77,-56.98"/>
<polygon fill="black" stroke="black" stroke-width="0.5" points="233.66,-58.5 237.48,-54.84 232.21,-55.32 233.66,-58.5"/>
</g>
<!-- VPP_SUN_RT0 -->
<g id="node17" class="node">
<title>VPP_SUN_RT0</title>
<g id="a_node17"><a xlink:href="../api/proteus.PostProcessingTools.html#proteus.PostProcessingTools.VPP_SUN_RT0" xlink:title="Global piecewise constant Sun&#45;Wheeler method with :math:`RT_0`" target="_top">
<polygon fill="white" stroke="black" stroke-width="0.5" points="334.5,-19 247.5,-19 247.5,0 334.5,0 334.5,-19"/>
<text text-anchor="middle" x="291" y="-7" font-family="Vera Sans, DejaVu Sans, Liberation Sans, Arial, Helvetica, sans" font-size="10.00">VPP_SUN_RT0</text>
</a>
</g>
</g>
<!-- VelocityPostProcessingAlgorithmBase&#45;&gt;VPP_SUN_RT0 -->
<g id="edge15" class="edge">
<title>VelocityPostProcessingAlgorithmBase&#45;&gt;VPP_SUN_RT0</title>
<path fill="none" stroke="black" stroke-width="0.5" d="M172.26,-165.87C176.5,-163.55 180.46,-160.79 184,-157.5 227.95,-116.72 177.22,-69.5 220,-27.5 226.15,-21.46 234.05,-17.36 242.31,-14.6"/>
<polygon fill="black" stroke="black" stroke-width="0.5" points="243.2,-16.17 247.49,-13.05 242.19,-12.81 243.2,-16.17"/>
</g>
<!-- VPP_PWL_BDM -->
<g id="node10" class="node">
<title>VPP_PWL_BDM</title>
<g id="a_node10"><a xlink:href="../api/proteus.PostProcessingTools.html#proteus.PostProcessingTools.VPP_PWL_BDM" xlink:title="Local Larson&#45;Niklasson method with BDM1 representation for element" target="_top">
<polygon fill="white" stroke="black" stroke-width="0.5" points="500.5,-167 408.5,-167 408.5,-148 500.5,-148 500.5,-167"/>
<text text-anchor="middle" x="454.5" y="-155" font-family="Vera Sans, DejaVu Sans, Liberation Sans, Arial, Helvetica, sans" font-size="10.00">VPP_PWL_BDM</text>
</a>
</g>
</g>
<!-- VPP_PWL_RT0&#45;&gt;VPP_PWL_BDM -->
<g id="edge8" class="edge">
<title>VPP_PWL_RT0&#45;&gt;VPP_PWL_BDM</title>
<path fill="none" stroke="black" stroke-width="0.5" d="M333.59,-130.03C355.92,-135.14 383.52,-141.47 406.61,-146.76"/>
<polygon fill="black" stroke="black" stroke-width="0.5" points="406.51,-148.53 411.77,-147.94 407.29,-145.12 406.51,-148.53"/>
</g>
<!-- VPP_PWL_BDM2 -->
<g id="node12" class="node">
<title>VPP_PWL_BDM2</title>
<g id="a_node12"><a xlink:href="../api/proteus.PostProcessingTools.html#proteus.PostProcessingTools.VPP_PWL_BDM2" xlink:title="This class is intended to implement BDM2 elements in proteus" target="_top">
<polygon fill="white" stroke="black" stroke-width="0.5" points="503,-130 406,-130 406,-111 503,-111 503,-130"/>
<text text-anchor="middle" x="454.5" y="-118" font-family="Vera Sans, DejaVu Sans, Liberation Sans, Arial, Helvetica, sans" font-size="10.00">VPP_PWL_BDM2</text>
</a>
</g>
</g>
<!-- VPP_PWL_RT0&#45;&gt;VPP_PWL_BDM2 -->
<g id="edge9" class="edge">
<title>VPP_PWL_RT0&#45;&gt;VPP_PWL_BDM2</title>
<path fill="none" stroke="black" stroke-width="0.5" d="M334.86,-120.5C355.1,-120.5 379.45,-120.5 400.81,-120.5"/>
<polygon fill="black" stroke="black" stroke-width="0.5" points="400.89,-122.25 405.89,-120.5 400.89,-118.75 400.89,-122.25"/>
</g>
<!-- VPP_PWL_RT0_OPT -->
<g id="node14" class="node">
<title>VPP_PWL_RT0_OPT</title>
<g id="a_node14"><a xlink:href="../api/proteus.PostProcessingTools.html#proteus.PostProcessingTools.VPP_PWL_RT0_OPT" xlink:title="Version of local Larson&#45;Niklasson scheme to use with optimized" target="_top">
<polygon fill="white" stroke="black" stroke-width="0.5" points="511,-93 398,-93 398,-74 511,-74 511,-93"/>
<text text-anchor="middle" x="454.5" y="-81" font-family="Vera Sans, DejaVu Sans, Liberation Sans, Arial, Helvetica, sans" font-size="10.00">VPP_PWL_RT0_OPT</text>
</a>
</g>
</g>
<!-- VPP_PWL_RT0&#45;&gt;VPP_PWL_RT0_OPT -->
<g id="edge12" class="edge">
<title>VPP_PWL_RT0&#45;&gt;VPP_PWL_RT0_OPT</title>
<path fill="none" stroke="black" stroke-width="0.5" d="M333.59,-110.97C355.92,-105.86 383.52,-99.53 406.61,-94.24"/>
<polygon fill="black" stroke="black" stroke-width="0.5" points="407.29,-95.88 411.77,-93.06 406.51,-92.47 407.29,-95.88"/>
</g>
<!-- VPP_PWL_BDM_OPT -->
<g id="node13" class="node">
<title>VPP_PWL_BDM_OPT</title>
<g id="a_node13"><a xlink:href="../api/proteus.PostProcessingTools.html#proteus.PostProcessingTools.VPP_PWL_BDM_OPT" xlink:title="Local Larson&#45;Niklasson method with BDM1 representation for element" target="_top">
<polygon fill="white" stroke="black" stroke-width="0.5" points="664,-93 547,-93 547,-74 664,-74 664,-93"/>
<text text-anchor="middle" x="605.5" y="-81" font-family="Vera Sans, DejaVu Sans, Liberation Sans, Arial, Helvetica, sans" font-size="10.00">VPP_PWL_BDM_OPT</text>
</a>
</g>
</g>
<!-- VPP_PWL_RT0_OPT&#45;&gt;VPP_PWL_BDM_OPT -->
<g id="edge10" class="edge">
<title>VPP_PWL_RT0_OPT&#45;&gt;VPP_PWL_BDM_OPT</title>
<path fill="none" stroke="black" stroke-width="0.5" d="M511.41,-83.5C521.25,-83.5 531.56,-83.5 541.58,-83.5"/>
<polygon fill="black" stroke="black" stroke-width="0.5" points="541.79,-85.25 546.79,-83.5 541.79,-81.75 541.79,-85.25"/>
</g>
<!-- VelocityPostProcessor_Original -->
<g id="node18" class="node">
<title>VelocityPostProcessor_Original</title>
<g id="a_node18"><a xlink:href="../api/proteus.PostProcessingTools.html#proteus.PostProcessingTools.VelocityPostProcessor_Original" xlink:title="accumulate basic functionality for post&#45;processing velocity vields" target="_top">
<polygon fill="white" stroke="black" stroke-width="0.5" points="169,-222 15,-222 15,-203 169,-203 169,-222"/>
<text text-anchor="middle" x="92" y="-210" font-family="Vera Sans, DejaVu Sans, Liberation Sans, Arial, Helvetica, sans" font-size="10.00">VelocityPostProcessor_Original</text>
</a>
</g>
</g>
</g>
</svg>
