<?xml version="1.0" encoding="UTF-8" standalone="no"?>
<!DOCTYPE svg PUBLIC "-//W3C//DTD SVG 1.1//EN"
 "http://www.w3.org/Graphics/SVG/1.1/DTD/svg11.dtd">
<!-- Generated by graphviz version 2.44.1 (20200629.0846)
 -->
<!-- Title: inheritancecb50c7d34c Pages: 1 -->
<svg width="447pt" height="360pt"
 viewBox="0.00 0.00 447.00 360.00" xmlns="http://www.w3.org/2000/svg" xmlns:xlink="http://www.w3.org/1999/xlink">
<g id="graph0" class="graph" transform="scale(1 1) rotate(0) translate(4 356)">
<title>inheritancecb50c7d34c</title>
<!-- D_base -->
<g id="node1" class="node">
<title>D_base</title>
<g id="a_node1"><a xlink:href="../api/proteus.Domain.html#proteus.Domain.D_base" xlink:title="The base class for domains" target="_top">
<polygon fill="white" stroke="black" stroke-width="0.5" points="54,-185 0,-185 0,-166 54,-166 54,-185"/>
<text text-anchor="middle" x="27" y="-173" font-family="Vera Sans, DejaVu Sans, Liberation Sans, Arial, Helvetica, sans" font-size="10.00">D_base</text>
</a>
</g>
</g>
<!-- GMSH_3D_Domain -->
<g id="node2" class="node">
<title>GMSH_3D_Domain</title>
<g id="a_node2"><a xlink:href="../api/proteus.Domain.html#proteus.Domain.GMSH_3D_Domain" xlink:title="A domain described by a gmsh .geo file" target="_top">
<polygon fill="white" stroke="black" stroke-width="0.5" points="222.5,-352 118.5,-352 118.5,-333 222.5,-333 222.5,-352"/>
<text text-anchor="middle" x="170.5" y="-340" font-family="Vera Sans, DejaVu Sans, Liberation Sans, Arial, Helvetica, sans" font-size="10.00">GMSH_3D_Domain</text>
</a>
</g>
</g>
<!-- D_base&#45;&gt;GMSH_3D_Domain -->
<g id="edge1" class="edge">
<title>D_base&#45;&gt;GMSH_3D_Domain</title>
<path fill="none" stroke="black" stroke-width="0.5" d="M29.02,-185.29C32.35,-212.07 45.41,-286.98 90,-324.5 96.64,-330.08 104.65,-334.03 113,-336.79"/>
<polygon fill="black" stroke="black" stroke-width="0.5" points="112.94,-338.6 118.24,-338.37 113.95,-335.25 112.94,-338.6"/>
</g>
<!-- PlanarStraightLineGraphDomain -->
<g id="node4" class="node">
<title>PlanarStraightLineGraphDomain</title>
<g id="a_node4"><a xlink:href="../api/proteus.Domain.html#proteus.Domain.PlanarStraightLineGraphDomain" xlink:title="2D domains described by planar straight line graphs." target="_top">
<polygon fill="white" stroke="black" stroke-width="0.5" points="248.5,-315 92.5,-315 92.5,-296 248.5,-296 248.5,-315"/>
<text text-anchor="middle" x="170.5" y="-303" font-family="Vera Sans, DejaVu Sans, Liberation Sans, Arial, Helvetica, sans" font-size="10.00">PlanarStraightLineGraphDomain</text>
</a>
</g>
</g>
<!-- D_base&#45;&gt;PlanarStraightLineGraphDomain -->
<g id="edge9" class="edge">
<title>D_base&#45;&gt;PlanarStraightLineGraphDomain</title>
<path fill="none" stroke="black" stroke-width="0.5" d="M30.41,-185.07C36.43,-206.93 54.27,-260.68 90,-287.5 93.11,-289.84 96.47,-291.88 99.99,-293.66"/>
<polygon fill="black" stroke="black" stroke-width="0.5" points="99.61,-295.42 104.88,-295.94 101.09,-292.24 99.61,-295.42"/>
</g>
<!-- Mesh2DMDomain -->
<g id="node5" class="node">
<title>Mesh2DMDomain</title>
<g id="a_node5"><a xlink:href="../api/proteus.Domain.html#proteus.Domain.Mesh2DMDomain" xlink:title="2D domains from ADH mesh files" target="_top">
<polygon fill="white" stroke="black" stroke-width="0.5" points="218,-278 123,-278 123,-259 218,-259 218,-278"/>
<text text-anchor="middle" x="170.5" y="-266" font-family="Vera Sans, DejaVu Sans, Liberation Sans, Arial, Helvetica, sans" font-size="10.00">Mesh2DMDomain</text>
</a>
</g>
</g>
<!-- D_base&#45;&gt;Mesh2DMDomain -->
<g id="edge3" class="edge">
<title>D_base&#45;&gt;Mesh2DMDomain</title>
<path fill="none" stroke="black" stroke-width="0.5" d="M33.07,-185.04C42.19,-201.21 62.95,-233.86 90,-250.5 98.42,-255.68 108.16,-259.37 117.87,-262"/>
<polygon fill="black" stroke="black" stroke-width="0.5" points="117.67,-263.75 122.94,-263.28 118.53,-260.36 117.67,-263.75"/>
</g>
<!-- Mesh3DMDomain -->
<g id="node6" class="node">
<title>Mesh3DMDomain</title>
<g id="a_node6"><a xlink:href="../api/proteus.Domain.html#proteus.Domain.Mesh3DMDomain" xlink:title="3D domains from ADH mesh files" target="_top">
<polygon fill="white" stroke="black" stroke-width="0.5" points="218,-241 123,-241 123,-222 218,-222 218,-241"/>
<text text-anchor="middle" x="170.5" y="-229" font-family="Vera Sans, DejaVu Sans, Liberation Sans, Arial, Helvetica, sans" font-size="10.00">Mesh3DMDomain</text>
</a>
</g>
</g>
<!-- D_base&#45;&gt;Mesh3DMDomain -->
<g id="edge4" class="edge">
<title>D_base&#45;&gt;Mesh3DMDomain</title>
<path fill="none" stroke="black" stroke-width="0.5" d="M41.11,-185.3C53.21,-193.91 71.99,-206.18 90,-213.5 98.82,-217.09 108.49,-220.03 117.96,-222.42"/>
<polygon fill="black" stroke="black" stroke-width="0.5" points="117.62,-224.14 122.89,-223.62 118.45,-220.74 117.62,-224.14"/>
</g>
<!-- MeshHexDomain -->
<g id="node7" class="node">
<title>MeshHexDomain</title>
<g id="a_node7"><a xlink:href="../api/proteus.Domain.html#proteus.Domain.MeshHexDomain" xlink:title="3D domains from Hex mesh files" target="_top">
<polygon fill="white" stroke="black" stroke-width="0.5" points="216.5,-204 124.5,-204 124.5,-185 216.5,-185 216.5,-204"/>
<text text-anchor="middle" x="170.5" y="-192" font-family="Vera Sans, DejaVu Sans, Liberation Sans, Arial, Helvetica, sans" font-size="10.00">MeshHexDomain</text>
</a>
</g>
</g>
<!-- D_base&#45;&gt;MeshHexDomain -->
<g id="edge5" class="edge">
<title>D_base&#45;&gt;MeshHexDomain</title>
<path fill="none" stroke="black" stroke-width="0.5" d="M54.28,-179.03C72.49,-181.47 97.29,-184.8 119.22,-187.75"/>
<polygon fill="black" stroke="black" stroke-width="0.5" points="119.25,-189.52 124.44,-188.45 119.72,-186.05 119.25,-189.52"/>
</g>
<!-- MeshTetgenDomain -->
<g id="node8" class="node">
<title>MeshTetgenDomain</title>
<g id="a_node8"><a xlink:href="../api/proteus.Domain.html#proteus.Domain.MeshTetgenDomain" xlink:title="3D domains from tetgen mesh files" target="_top">
<polygon fill="white" stroke="black" stroke-width="0.5" points="222.5,-167 118.5,-167 118.5,-148 222.5,-148 222.5,-167"/>
<text text-anchor="middle" x="170.5" y="-155" font-family="Vera Sans, DejaVu Sans, Liberation Sans, Arial, Helvetica, sans" font-size="10.00">MeshTetgenDomain</text>
</a>
</g>
</g>
<!-- D_base&#45;&gt;MeshTetgenDomain -->
<g id="edge6" class="edge">
<title>D_base&#45;&gt;MeshTetgenDomain</title>
<path fill="none" stroke="black" stroke-width="0.5" d="M54.28,-172.16C70.86,-170.05 92.92,-167.24 113.29,-164.65"/>
<polygon fill="black" stroke="black" stroke-width="0.5" points="113.69,-166.36 118.43,-164 113.25,-162.89 113.69,-166.36"/>
</g>
<!-- PUMIDomain -->
<g id="node9" class="node">
<title>PUMIDomain</title>
<g id="a_node9"><a xlink:href="../api/proteus.Domain.html#proteus.Domain.PUMIDomain" xlink:title="3d domains from PUMI mesh files" target="_top">
<polygon fill="white" stroke="black" stroke-width="0.5" points="208.5,-130 132.5,-130 132.5,-111 208.5,-111 208.5,-130"/>
<text text-anchor="middle" x="170.5" y="-118" font-family="Vera Sans, DejaVu Sans, Liberation Sans, Arial, Helvetica, sans" font-size="10.00">PUMIDomain</text>
</a>
</g>
</g>
<!-- D_base&#45;&gt;PUMIDomain -->
<g id="edge7" class="edge">
<title>D_base&#45;&gt;PUMIDomain</title>
<path fill="none" stroke="black" stroke-width="0.5" d="M41.69,-165.98C53.87,-157.9 72.43,-146.52 90,-139.5 101.76,-134.8 114.98,-131.07 127.22,-128.2"/>
<polygon fill="black" stroke="black" stroke-width="0.5" points="127.91,-129.84 132.4,-127.02 127.13,-126.42 127.91,-129.84"/>
</g>
<!-- PiecewiseLinearComplexDomain -->
<g id="node10" class="node">
<title>PiecewiseLinearComplexDomain</title>
<g id="a_node10"><a xlink:href="../api/proteus.Domain.html#proteus.Domain.PiecewiseLinearComplexDomain" xlink:title="3D domains desribed by closed surfaces made up of general polygonal facets." target="_top">
<polygon fill="white" stroke="black" stroke-width="0.5" points="251,-93 90,-93 90,-74 251,-74 251,-93"/>
<text text-anchor="middle" x="170.5" y="-81" font-family="Vera Sans, DejaVu Sans, Liberation Sans, Arial, Helvetica, sans" font-size="10.00">PiecewiseLinearComplexDomain</text>
</a>
</g>
</g>
<!-- D_base&#45;&gt;PiecewiseLinearComplexDomain -->
<g id="edge8" class="edge">
<title>D_base&#45;&gt;PiecewiseLinearComplexDomain</title>
<path fill="none" stroke="black" stroke-width="0.5" d="M33.31,-165.99C42.63,-150.22 63.5,-118.77 90,-102.5 94.81,-99.54 100.05,-97.05 105.47,-94.94"/>
<polygon fill="black" stroke="black" stroke-width="0.5" points="106.39,-96.47 110.49,-93.11 105.19,-93.18 106.39,-96.47"/>
</g>
<!-- RectangularDomain -->
<g id="node11" class="node">
<title>RectangularDomain</title>
<g id="a_node11"><a xlink:href="../api/proteus.Domain.html#proteus.Domain.RectangularDomain" xlink:title="Rectangular domains in 1,2, or 3D specified by the lower left hand corner and dimensions." target="_top">
<polygon fill="white" stroke="black" stroke-width="0.5" points="222,-56 119,-56 119,-37 222,-37 222,-56"/>
<text text-anchor="middle" x="170.5" y="-44" font-family="Vera Sans, DejaVu Sans, Liberation Sans, Arial, Helvetica, sans" font-size="10.00">RectangularDomain</text>
</a>
</g>
</g>
<!-- D_base&#45;&gt;RectangularDomain -->
<g id="edge10" class="edge">
<title>D_base&#45;&gt;RectangularDomain</title>
<path fill="none" stroke="black" stroke-width="0.5" d="M30.58,-165.8C36.84,-144.19 54.99,-91.9 90,-65.5 97.07,-60.17 105.43,-56.3 114.01,-53.51"/>
<polygon fill="black" stroke="black" stroke-width="0.5" points="114.52,-55.19 118.8,-52.07 113.51,-51.84 114.52,-55.19"/>
</g>
<!-- TriangulatedSurfaceDomain -->
<g id="node12" class="node">
<title>TriangulatedSurfaceDomain</title>
<g id="a_node12"><a xlink:href="../api/proteus.Domain.html#proteus.Domain.TriangulatedSurfaceDomain" xlink:title="3D domains described by closed surfaces made up of triangular facets." target="_top">
<polygon fill="white" stroke="black" stroke-width="0.5" points="239,-19 102,-19 102,0 239,0 239,-19"/>
<text text-anchor="middle" x="170.5" y="-7" font-family="Vera Sans, DejaVu Sans, Liberation Sans, Arial, Helvetica, sans" font-size="10.00">TriangulatedSurfaceDomain</text>
</a>
</g>
</g>
<!-- D_base&#45;&gt;TriangulatedSurfaceDomain -->
<g id="edge11" class="edge">
<title>D_base&#45;&gt;TriangulatedSurfaceDomain</title>
<path fill="none" stroke="black" stroke-width="0.5" d="M29.09,-165.86C32.59,-139.51 46.05,-65.75 90,-28.5 93.27,-25.73 96.87,-23.35 100.68,-21.3"/>
<polygon fill="black" stroke="black" stroke-width="0.5" points="101.54,-22.83 105.25,-19.05 99.99,-19.69 101.54,-22.83"/>
</g>
<!-- InterpolatedBathymetryDomain -->
<g id="node3" class="node">
<title>InterpolatedBathymetryDomain</title>
<g id="a_node3"><a xlink:href="../api/proteus.Domain.html#proteus.Domain.InterpolatedBathymetryDomain" xlink:title="2D domains with an attached bathymetry data set." target="_top">
<polygon fill="white" stroke="black" stroke-width="0.5" points="439,-315 287,-315 287,-296 439,-296 439,-315"/>
<text text-anchor="middle" x="363" y="-303" font-family="Vera Sans, DejaVu Sans, Liberation Sans, Arial, Helvetica, sans" font-size="10.00">InterpolatedBathymetryDomain</text>
</a>
</g>
</g>
<!-- PlanarStraightLineGraphDomain&#45;&gt;InterpolatedBathymetryDomain -->
<g id="edge2" class="edge">
<title>PlanarStraightLineGraphDomain&#45;&gt;InterpolatedBathymetryDomain</title>
<path fill="none" stroke="black" stroke-width="0.5" d="M248.71,-305.5C259.62,-305.5 270.86,-305.5 281.83,-305.5"/>
<polygon fill="black" stroke="black" stroke-width="0.5" points="281.84,-307.25 286.84,-305.5 281.84,-303.75 281.84,-307.25"/>
</g>
</g>
</svg>
