<?xml version="1.0" encoding="UTF-8" standalone="no"?>
<!DOCTYPE svg PUBLIC "-//W3C//DTD SVG 1.1//EN"
 "http://www.w3.org/Graphics/SVG/1.1/DTD/svg11.dtd">
<!-- Generated by graphviz version 2.44.1 (20200629.0846)
 -->
<!-- Title: inheritanced9289a834f Pages: 1 -->
<svg width="638pt" height="582pt"
 viewBox="0.00 0.00 638.00 582.00" xmlns="http://www.w3.org/2000/svg" xmlns:xlink="http://www.w3.org/1999/xlink">
<g id="graph0" class="graph" transform="scale(1 1) rotate(0) translate(4 578)">
<title>inheritanced9289a834f</title>
<!-- Edge -->
<g id="node1" class="node">
<title>Edge</title>
<g id="a_node1"><a xlink:href="../api/proteus.MeshTools.html#proteus.MeshTools.Edge" xlink:title="Edge" target="_top">
<polygon fill="white" stroke="black" stroke-width="0.5" points="258.5,-130 204.5,-130 204.5,-111 258.5,-111 258.5,-130"/>
<text text-anchor="middle" x="231.5" y="-118" font-family="Vera Sans, DejaVu Sans, Liberation Sans, Arial, Helvetica, sans" font-size="10.00">Edge</text>
</a>
</g>
</g>
<!-- Element -->
<g id="node2" class="node">
<title>Element</title>
<g id="a_node2"><a xlink:href="../api/proteus.MeshTools.html#proteus.MeshTools.Element" xlink:title="An numbered polytope in R^n" target="_top">
<polygon fill="white" stroke="black" stroke-width="0.5" points="101,-93 47,-93 47,-74 101,-74 101,-93"/>
<text text-anchor="middle" x="74" y="-81" font-family="Vera Sans, DejaVu Sans, Liberation Sans, Arial, Helvetica, sans" font-size="10.00">Element</text>
</a>
</g>
</g>
<!-- Element&#45;&gt;Edge -->
<g id="edge1" class="edge">
<title>Element&#45;&gt;Edge</title>
<path fill="none" stroke="black" stroke-width="0.5" d="M101.03,-89.69C128.05,-96.12 170.33,-106.18 199.17,-113.04"/>
<polygon fill="black" stroke="black" stroke-width="0.5" points="199.12,-114.83 204.39,-114.29 199.93,-111.43 199.12,-114.83"/>
</g>
<!-- Polyhedron -->
<g id="node8" class="node">
<title>Polyhedron</title>
<g id="a_node8"><a xlink:href="../api/proteus.MeshTools.html#proteus.MeshTools.Polyhedron" xlink:title="An abstract 3D Element&#45;&#45;a closed set of Polygons connecting a set" target="_top">
<polygon fill="white" stroke="black" stroke-width="0.5" points="264,-93 199,-93 199,-74 264,-74 264,-93"/>
<text text-anchor="middle" x="231.5" y="-81" font-family="Vera Sans, DejaVu Sans, Liberation Sans, Arial, Helvetica, sans" font-size="10.00">Polyhedron</text>
</a>
</g>
</g>
<!-- Element&#45;&gt;Polyhedron -->
<g id="edge21" class="edge">
<title>Element&#45;&gt;Polyhedron</title>
<path fill="none" stroke="black" stroke-width="0.5" d="M101.03,-83.5C126.34,-83.5 165.04,-83.5 193.54,-83.5"/>
<polygon fill="black" stroke="black" stroke-width="0.5" points="193.74,-85.25 198.74,-83.5 193.74,-81.75 193.74,-85.25"/>
</g>
<!-- Polygon -->
<g id="node26" class="node">
<title>Polygon</title>
<g id="a_node26"><a xlink:href="../api/proteus.MeshTools.html#proteus.MeshTools.Polygon" xlink:title="An abstract 2D element&#45;&#45;a closed set of Edges connecting a set of Nodes." target="_top">
<polygon fill="white" stroke="black" stroke-width="0.5" points="258.5,-56 204.5,-56 204.5,-37 258.5,-37 258.5,-56"/>
<text text-anchor="middle" x="231.5" y="-44" font-family="Vera Sans, DejaVu Sans, Liberation Sans, Arial, Helvetica, sans" font-size="10.00">Polygon</text>
</a>
</g>
</g>
<!-- Element&#45;&gt;Polygon -->
<g id="edge20" class="edge">
<title>Element&#45;&gt;Polygon</title>
<path fill="none" stroke="black" stroke-width="0.5" d="M101.03,-77.31C128.05,-70.88 170.33,-60.82 199.17,-53.96"/>
<polygon fill="black" stroke="black" stroke-width="0.5" points="199.93,-55.57 204.39,-52.71 199.12,-52.17 199.93,-55.57"/>
</g>
<!-- EdgeGrid -->
<g id="node3" class="node">
<title>EdgeGrid</title>
<g id="a_node3"><a xlink:href="../api/proteus.MeshTools.html#proteus.MeshTools.EdgeGrid" xlink:title="A 1D regular grid on an interval" target="_top">
<polygon fill="white" stroke="black" stroke-width="0.5" points="260,-574 203,-574 203,-555 260,-555 260,-574"/>
<text text-anchor="middle" x="231.5" y="-562" font-family="Vera Sans, DejaVu Sans, Liberation Sans, Arial, Helvetica, sans" font-size="10.00">EdgeGrid</text>
</a>
</g>
</g>
<!-- Mesh -->
<g id="node4" class="node">
<title>Mesh</title>
<g id="a_node4"><a xlink:href="../api/proteus.MeshTools.html#proteus.MeshTools.Mesh" xlink:title="A partition of a domain in R^n into elements." target="_top">
<polygon fill="white" stroke="black" stroke-width="0.5" points="101,-370 47,-370 47,-351 101,-351 101,-370"/>
<text text-anchor="middle" x="74" y="-358" font-family="Vera Sans, DejaVu Sans, Liberation Sans, Arial, Helvetica, sans" font-size="10.00">Mesh</text>
</a>
</g>
</g>
<!-- Mesh&#45;&gt;EdgeGrid -->
<g id="edge2" class="edge">
<title>Mesh&#45;&gt;EdgeGrid</title>
<path fill="none" stroke="black" stroke-width="0.5" d="M101.02,-360.74C116.71,-362.29 135.95,-366.93 148,-379.5 200.54,-434.31 134.69,-488.77 184,-546.5 187.7,-550.83 192.58,-554.13 197.77,-556.63"/>
<polygon fill="black" stroke="black" stroke-width="0.5" points="197.33,-558.35 202.61,-558.72 198.71,-555.13 197.33,-558.35"/>
</g>
<!-- EdgeMesh -->
<g id="node5" class="node">
<title>EdgeMesh</title>
<g id="a_node5"><a xlink:href="../api/proteus.MeshTools.html#proteus.MeshTools.EdgeMesh" xlink:title="A mesh of edges" target="_top">
<polygon fill="white" stroke="black" stroke-width="0.5" points="263,-537 200,-537 200,-518 263,-518 263,-537"/>
<text text-anchor="middle" x="231.5" y="-525" font-family="Vera Sans, DejaVu Sans, Liberation Sans, Arial, Helvetica, sans" font-size="10.00">EdgeMesh</text>
</a>
</g>
</g>
<!-- Mesh&#45;&gt;EdgeMesh -->
<g id="edge3" class="edge">
<title>Mesh&#45;&gt;EdgeMesh</title>
<path fill="none" stroke="black" stroke-width="0.5" d="M101.12,-361.02C116.66,-362.7 135.68,-367.37 148,-379.5 190.72,-421.56 143.76,-465.06 184,-509.5 187.16,-512.99 191.07,-515.81 195.27,-518.08"/>
<polygon fill="black" stroke="black" stroke-width="0.5" points="194.67,-519.73 199.93,-520.34 196.2,-516.58 194.67,-519.73"/>
</g>
<!-- HexahedralMesh -->
<g id="node6" class="node">
<title>HexahedralMesh</title>
<g id="a_node6"><a xlink:href="../api/proteus.MeshTools.html#proteus.MeshTools.HexahedralMesh" xlink:title="A mesh of hexahedra." target="_top">
<polygon fill="white" stroke="black" stroke-width="0.5" points="276.5,-500 186.5,-500 186.5,-481 276.5,-481 276.5,-500"/>
<text text-anchor="middle" x="231.5" y="-488" font-family="Vera Sans, DejaVu Sans, Liberation Sans, Arial, Helvetica, sans" font-size="10.00">HexahedralMesh</text>
</a>
</g>
</g>
<!-- Mesh&#45;&gt;HexahedralMesh -->
<g id="edge4" class="edge">
<title>Mesh&#45;&gt;HexahedralMesh</title>
<path fill="none" stroke="black" stroke-width="0.5" d="M101.06,-361.5C116.38,-363.38 135.19,-368.08 148,-379.5 181.09,-408.99 152.66,-441.16 184,-472.5 186.25,-474.75 188.81,-476.72 191.55,-478.46"/>
<polygon fill="black" stroke="black" stroke-width="0.5" points="190.77,-480.03 195.98,-480.98 192.5,-476.99 190.77,-480.03"/>
</g>
<!-- Mesh2DM -->
<g id="node11" class="node">
<title>Mesh2DM</title>
<g id="a_node11"><a xlink:href="../api/proteus.MeshTools.html#proteus.MeshTools.Mesh2DM" xlink:title="A triangular mesh based on an ADH 3dm file" target="_top">
<polygon fill="white" stroke="black" stroke-width="0.5" points="262.5,-463 200.5,-463 200.5,-444 262.5,-444 262.5,-463"/>
<text text-anchor="middle" x="231.5" y="-451" font-family="Vera Sans, DejaVu Sans, Liberation Sans, Arial, Helvetica, sans" font-size="10.00">Mesh2DM</text>
</a>
</g>
</g>
<!-- Mesh&#45;&gt;Mesh2DM -->
<g id="edge7" class="edge">
<title>Mesh&#45;&gt;Mesh2DM</title>
<path fill="none" stroke="black" stroke-width="0.5" d="M101.32,-362.62C116.18,-364.91 134.43,-369.66 148,-379.5 171.96,-396.86 161.08,-416.79 184,-435.5 187.55,-438.39 191.61,-440.86 195.83,-442.95"/>
<polygon fill="black" stroke="black" stroke-width="0.5" points="195.18,-444.58 200.45,-445.08 196.64,-441.4 195.18,-444.58"/>
</g>
<!-- Mesh3DM -->
<g id="node12" class="node">
<title>Mesh3DM</title>
<g id="a_node12"><a xlink:href="../api/proteus.MeshTools.html#proteus.MeshTools.Mesh3DM" xlink:title="A Mesh for reading in tetrahedral meshes in the .3dm format" target="_top">
<polygon fill="white" stroke="black" stroke-width="0.5" points="262.5,-426 200.5,-426 200.5,-407 262.5,-407 262.5,-426"/>
<text text-anchor="middle" x="231.5" y="-414" font-family="Vera Sans, DejaVu Sans, Liberation Sans, Arial, Helvetica, sans" font-size="10.00">Mesh3DM</text>
</a>
</g>
</g>
<!-- Mesh&#45;&gt;Mesh3DM -->
<g id="edge8" class="edge">
<title>Mesh&#45;&gt;Mesh3DM</title>
<path fill="none" stroke="black" stroke-width="0.5" d="M101.14,-365.76C115.26,-368.98 132.86,-373.63 148,-379.5 164.87,-386.04 167.54,-391 184,-398.5 188.95,-400.75 194.26,-402.98 199.47,-405.07"/>
<polygon fill="black" stroke="black" stroke-width="0.5" points="198.92,-406.73 204.21,-406.94 200.2,-403.47 198.92,-406.73"/>
</g>
<!-- MultilevelMesh -->
<g id="node16" class="node">
<title>MultilevelMesh</title>
<g id="a_node16"><a xlink:href="../api/proteus.MeshTools.html#proteus.MeshTools.MultilevelMesh" xlink:title="A hierchical multilevel mesh" target="_top">
<polygon fill="white" stroke="black" stroke-width="0.5" points="272.5,-389 190.5,-389 190.5,-370 272.5,-370 272.5,-389"/>
<text text-anchor="middle" x="231.5" y="-377" font-family="Vera Sans, DejaVu Sans, Liberation Sans, Arial, Helvetica, sans" font-size="10.00">MultilevelMesh</text>
</a>
</g>
</g>
<!-- Mesh&#45;&gt;MultilevelMesh -->
<g id="edge11" class="edge">
<title>Mesh&#45;&gt;MultilevelMesh</title>
<path fill="none" stroke="black" stroke-width="0.5" d="M101.03,-363.68C123.98,-366.48 157.94,-370.63 185.32,-373.98"/>
<polygon fill="black" stroke="black" stroke-width="0.5" points="185.18,-375.73 190.35,-374.59 185.6,-372.25 185.18,-375.73"/>
</g>
<!-- PointMesh -->
<g id="node25" class="node">
<title>PointMesh</title>
<g id="a_node25"><a xlink:href="../api/proteus.MeshTools.html#proteus.MeshTools.PointMesh" xlink:title="0D mesh" target="_top">
<polygon fill="white" stroke="black" stroke-width="0.5" points="263,-352 200,-352 200,-333 263,-333 263,-352"/>
<text text-anchor="middle" x="231.5" y="-340" font-family="Vera Sans, DejaVu Sans, Liberation Sans, Arial, Helvetica, sans" font-size="10.00">PointMesh</text>
</a>
</g>
</g>
<!-- Mesh&#45;&gt;PointMesh -->
<g id="edge19" class="edge">
<title>Mesh&#45;&gt;PointMesh</title>
<path fill="none" stroke="black" stroke-width="0.5" d="M101.03,-357.49C126.67,-354.52 166.04,-349.96 194.63,-346.65"/>
<polygon fill="black" stroke="black" stroke-width="0.5" points="195.08,-348.36 199.84,-346.05 194.67,-344.89 195.08,-348.36"/>
</g>
<!-- QuadrilateralGrid -->
<g id="node28" class="node">
<title>QuadrilateralGrid</title>
<g id="a_node28"><a xlink:href="../api/proteus.MeshTools.html#proteus.MeshTools.QuadrilateralGrid" xlink:title="A 2D regular grid of quadrilateral cells" target="_top">
<polygon fill="white" stroke="black" stroke-width="0.5" points="276,-315 187,-315 187,-296 276,-296 276,-315"/>
<text text-anchor="middle" x="231.5" y="-303" font-family="Vera Sans, DejaVu Sans, Liberation Sans, Arial, Helvetica, sans" font-size="10.00">QuadrilateralGrid</text>
</a>
</g>
</g>
<!-- Mesh&#45;&gt;QuadrilateralGrid -->
<g id="edge23" class="edge">
<title>Mesh&#45;&gt;QuadrilateralGrid</title>
<path fill="none" stroke="black" stroke-width="0.5" d="M101.03,-351.29C127.92,-341.78 169.91,-326.93 198.74,-316.73"/>
<polygon fill="black" stroke="black" stroke-width="0.5" points="199.47,-318.33 203.6,-315.01 198.31,-315.03 199.47,-318.33"/>
</g>
<!-- QuadrilateralMesh -->
<g id="node29" class="node">
<title>QuadrilateralMesh</title>
<g id="a_node29"><a xlink:href="../api/proteus.MeshTools.html#proteus.MeshTools.QuadrilateralMesh" xlink:title="A mesh of quads" target="_top">
<polygon fill="white" stroke="black" stroke-width="0.5" points="279,-278 184,-278 184,-259 279,-259 279,-278"/>
<text text-anchor="middle" x="231.5" y="-266" font-family="Vera Sans, DejaVu Sans, Liberation Sans, Arial, Helvetica, sans" font-size="10.00">QuadrilateralMesh</text>
</a>
</g>
</g>
<!-- Mesh&#45;&gt;QuadrilateralMesh -->
<g id="edge24" class="edge">
<title>Mesh&#45;&gt;QuadrilateralMesh</title>
<path fill="none" stroke="black" stroke-width="0.5" d="M87.56,-350.85C107.32,-335.97 147.21,-307.08 184,-287.5 188.95,-284.87 194.35,-282.36 199.66,-280.07"/>
<polygon fill="black" stroke="black" stroke-width="0.5" points="200.56,-281.59 204.49,-278.05 199.2,-278.37 200.56,-281.59"/>
</g>
<!-- RectangularGrid -->
<g id="node30" class="node">
<title>RectangularGrid</title>
<g id="a_node30"><a xlink:href="../api/proteus.MeshTools.html#proteus.MeshTools.RectangularGrid" xlink:title="A regular partition into rectangles." target="_top">
<polygon fill="white" stroke="black" stroke-width="0.5" points="275,-241 188,-241 188,-222 275,-222 275,-241"/>
<text text-anchor="middle" x="231.5" y="-229" font-family="Vera Sans, DejaVu Sans, Liberation Sans, Arial, Helvetica, sans" font-size="10.00">RectangularGrid</text>
</a>
</g>
</g>
<!-- Mesh&#45;&gt;RectangularGrid -->
<g id="edge25" class="edge">
<title>Mesh&#45;&gt;RectangularGrid</title>
<path fill="none" stroke="black" stroke-width="0.5" d="M82.19,-350.99C98.32,-330.2 139.51,-280.22 184,-250.5 188.13,-247.74 192.73,-245.27 197.38,-243.09"/>
<polygon fill="black" stroke="black" stroke-width="0.5" points="198.18,-244.65 202.04,-241.01 196.76,-241.45 198.18,-244.65"/>
</g>
<!-- TetrahedralMesh -->
<g id="node31" class="node">
<title>TetrahedralMesh</title>
<g id="a_node31"><a xlink:href="../api/proteus.MeshTools.html#proteus.MeshTools.TetrahedralMesh" xlink:title="A mesh of tetrahedra." target="_top">
<polygon fill="white" stroke="black" stroke-width="0.5" points="276,-204 187,-204 187,-185 276,-185 276,-204"/>
<text text-anchor="middle" x="231.5" y="-192" font-family="Vera Sans, DejaVu Sans, Liberation Sans, Arial, Helvetica, sans" font-size="10.00">TetrahedralMesh</text>
</a>
</g>
</g>
<!-- Mesh&#45;&gt;TetrahedralMesh -->
<g id="edge26" class="edge">
<title>Mesh&#45;&gt;TetrahedralMesh</title>
<path fill="none" stroke="black" stroke-width="0.5" d="M79.74,-350.84C92.85,-325.05 132.06,-253.84 184,-213.5 187.47,-210.81 191.36,-208.44 195.39,-206.37"/>
<polygon fill="black" stroke="black" stroke-width="0.5" points="196.41,-207.83 200.16,-204.09 194.9,-204.67 196.41,-207.83"/>
</g>
<!-- TriangularMesh -->
<g id="node34" class="node">
<title>TriangularMesh</title>
<g id="a_node34"><a xlink:href="../api/proteus.MeshTools.html#proteus.MeshTools.TriangularMesh" xlink:title="A mesh of triangles" target="_top">
<polygon fill="white" stroke="black" stroke-width="0.5" points="273,-167 190,-167 190,-148 273,-148 273,-167"/>
<text text-anchor="middle" x="231.5" y="-155" font-family="Vera Sans, DejaVu Sans, Liberation Sans, Arial, Helvetica, sans" font-size="10.00">TriangularMesh</text>
</a>
</g>
</g>
<!-- Mesh&#45;&gt;TriangularMesh -->
<g id="edge29" class="edge">
<title>Mesh&#45;&gt;TriangularMesh</title>
<path fill="none" stroke="black" stroke-width="0.5" d="M78.27,-350.62C88.76,-320.36 124.41,-227.92 184,-176.5 187,-173.91 190.39,-171.65 193.95,-169.67"/>
<polygon fill="black" stroke="black" stroke-width="0.5" points="195.23,-170.98 198.88,-167.15 193.63,-167.87 195.23,-170.98"/>
</g>
<!-- NURBSMesh -->
<g id="node23" class="node">
<title>NURBSMesh</title>
<g id="a_node23"><a xlink:href="../api/proteus.MeshTools.html#proteus.MeshTools.NURBSMesh" xlink:title="A mesh consisting of NURBS." target="_top">
<polygon fill="white" stroke="black" stroke-width="0.5" points="422,-537 345,-537 345,-518 422,-518 422,-537"/>
<text text-anchor="middle" x="383.5" y="-525" font-family="Vera Sans, DejaVu Sans, Liberation Sans, Arial, Helvetica, sans" font-size="10.00">NURBSMesh</text>
</a>
</g>
</g>
<!-- HexahedralMesh&#45;&gt;NURBSMesh -->
<g id="edge18" class="edge">
<title>HexahedralMesh&#45;&gt;NURBSMesh</title>
<path fill="none" stroke="black" stroke-width="0.5" d="M271.13,-500.03C292.1,-505.2 318.09,-511.61 339.68,-516.94"/>
<polygon fill="black" stroke="black" stroke-width="0.5" points="339.51,-518.7 344.78,-518.2 340.34,-515.3 339.51,-518.7"/>
</g>
<!-- Hexahedron -->
<g id="node7" class="node">
<title>Hexahedron</title>
<g id="a_node7"><a xlink:href="../api/proteus.MeshTools.html#proteus.MeshTools.Hexahedron" xlink:title="A 3D hexahedral element" target="_top">
<polygon fill="white" stroke="black" stroke-width="0.5" points="418,-130 349,-130 349,-111 418,-111 418,-130"/>
<text text-anchor="middle" x="383.5" y="-118" font-family="Vera Sans, DejaVu Sans, Liberation Sans, Arial, Helvetica, sans" font-size="10.00">Hexahedron</text>
</a>
</g>
</g>
<!-- Polyhedron&#45;&gt;Hexahedron -->
<g id="edge5" class="edge">
<title>Polyhedron&#45;&gt;Hexahedron</title>
<path fill="none" stroke="black" stroke-width="0.5" d="M264.31,-91.35C287.51,-97.07 319.08,-104.86 343.76,-110.94"/>
<polygon fill="black" stroke="black" stroke-width="0.5" points="343.64,-112.72 348.91,-112.22 344.48,-109.32 343.64,-112.72"/>
</g>
<!-- Tetrahedron -->
<g id="node32" class="node">
<title>Tetrahedron</title>
<g id="a_node32"><a xlink:href="../api/proteus.MeshTools.html#proteus.MeshTools.Tetrahedron" xlink:title="A 3D tetrahedral element" target="_top">
<polygon fill="white" stroke="black" stroke-width="0.5" points="417.5,-93 349.5,-93 349.5,-74 417.5,-74 417.5,-93"/>
<text text-anchor="middle" x="383.5" y="-81" font-family="Vera Sans, DejaVu Sans, Liberation Sans, Arial, Helvetica, sans" font-size="10.00">Tetrahedron</text>
</a>
</g>
</g>
<!-- Polyhedron&#45;&gt;Tetrahedron -->
<g id="edge27" class="edge">
<title>Polyhedron&#45;&gt;Tetrahedron</title>
<path fill="none" stroke="black" stroke-width="0.5" d="M264.31,-83.5C287.67,-83.5 319.52,-83.5 344.27,-83.5"/>
<polygon fill="black" stroke="black" stroke-width="0.5" points="344.44,-85.25 349.44,-83.5 344.44,-81.75 344.44,-85.25"/>
</g>
<!-- InterpolatedBathymetryMesh -->
<g id="node9" class="node">
<title>InterpolatedBathymetryMesh</title>
<g id="a_node9"><a xlink:href="../api/proteus.MeshTools.html#proteus.MeshTools.InterpolatedBathymetryMesh" xlink:title="A triangular mesh that interpolates bathymetry from a point cloud" target="_top">
<polygon fill="white" stroke="black" stroke-width="0.5" points="630,-500 488,-500 488,-481 630,-481 630,-500"/>
<text text-anchor="middle" x="559" y="-488" font-family="Vera Sans, DejaVu Sans, Liberation Sans, Arial, Helvetica, sans" font-size="10.00">InterpolatedBathymetryMesh</text>
</a>
</g>
</g>
<!-- MultilevelTriangularMesh -->
<g id="node10" class="node">
<title>MultilevelTriangularMesh</title>
<g id="a_node10"><a xlink:href="../api/proteus.MeshTools.html#proteus.MeshTools.MultilevelTriangularMesh" xlink:title="A hierarchical &#160;multilevel mesh of triangular cells" target="_top">
<polygon fill="white" stroke="black" stroke-width="0.5" points="446,-500 321,-500 321,-481 446,-481 446,-500"/>
<text text-anchor="middle" x="383.5" y="-488" font-family="Vera Sans, DejaVu Sans, Liberation Sans, Arial, Helvetica, sans" font-size="10.00">MultilevelTriangularMesh</text>
</a>
</g>
</g>
<!-- MultilevelTriangularMesh&#45;&gt;InterpolatedBathymetryMesh -->
<g id="edge6" class="edge">
<title>MultilevelTriangularMesh&#45;&gt;InterpolatedBathymetryMesh</title>
<path fill="none" stroke="black" stroke-width="0.5" d="M446.16,-490.5C458,-490.5 470.53,-490.5 482.75,-490.5"/>
<polygon fill="black" stroke="black" stroke-width="0.5" points="482.97,-492.25 487.97,-490.5 482.97,-488.75 482.97,-492.25"/>
</g>
<!-- MeshOptions -->
<g id="node13" class="node">
<title>MeshOptions</title>
<g id="a_node13"><a xlink:href="../api/proteus.MeshTools.html#proteus.MeshTools.MeshOptions" xlink:title="Mesh options for the domain" target="_top">
<polygon fill="white" stroke="black" stroke-width="0.5" points="111,-407 37,-407 37,-388 111,-388 111,-407"/>
<text text-anchor="middle" x="74" y="-395" font-family="Vera Sans, DejaVu Sans, Liberation Sans, Arial, Helvetica, sans" font-size="10.00">MeshOptions</text>
</a>
</g>
</g>
<!-- MeshParallelPartitioningTypes -->
<g id="node14" class="node">
<title>MeshParallelPartitioningTypes</title>
<g id="a_node14"><a xlink:href="../api/proteus.MeshTools.html#proteus.MeshTools.MeshParallelPartitioningTypes" xlink:title="fake an enum for parallel partitioning options" target="_top">
<polygon fill="white" stroke="black" stroke-width="0.5" points="148,-444 0,-444 0,-425 148,-425 148,-444"/>
<text text-anchor="middle" x="74" y="-432" font-family="Vera Sans, DejaVu Sans, Liberation Sans, Arial, Helvetica, sans" font-size="10.00">MeshParallelPartitioningTypes</text>
</a>
</g>
</g>
<!-- MultilevelEdgeMesh -->
<g id="node15" class="node">
<title>MultilevelEdgeMesh</title>
<g id="a_node15"><a xlink:href="../api/proteus.MeshTools.html#proteus.MeshTools.MultilevelEdgeMesh" xlink:title="A hierarchical multilevel mesh of intervals (edges)" target="_top">
<polygon fill="white" stroke="black" stroke-width="0.5" points="435.5,-463 331.5,-463 331.5,-444 435.5,-444 435.5,-463"/>
<text text-anchor="middle" x="383.5" y="-451" font-family="Vera Sans, DejaVu Sans, Liberation Sans, Arial, Helvetica, sans" font-size="10.00">MultilevelEdgeMesh</text>
</a>
</g>
</g>
<!-- MultilevelMesh&#45;&gt;MultilevelTriangularMesh -->
<g id="edge17" class="edge">
<title>MultilevelMesh&#45;&gt;MultilevelTriangularMesh</title>
<path fill="none" stroke="black" stroke-width="0.5" d="M264.86,-389.09C269.98,-391.59 274.93,-394.68 279,-398.5 305.69,-423.51 286.78,-449.24 315,-472.5 317.83,-474.83 320.94,-476.87 324.21,-478.64"/>
<polygon fill="black" stroke="black" stroke-width="0.5" points="323.51,-480.25 328.77,-480.9 325.06,-477.11 323.51,-480.25"/>
</g>
<!-- MultilevelMesh&#45;&gt;MultilevelEdgeMesh -->
<g id="edge9" class="edge">
<title>MultilevelMesh&#45;&gt;MultilevelEdgeMesh</title>
<path fill="none" stroke="black" stroke-width="0.5" d="M261.48,-389.18C267.51,-391.78 273.65,-394.89 279,-398.5 298.02,-411.33 295.2,-423.9 315,-435.5 319.4,-438.07 324.17,-440.29 329.07,-442.19"/>
<polygon fill="black" stroke="black" stroke-width="0.5" points="328.71,-443.92 334.01,-443.99 329.91,-440.64 328.71,-443.92"/>
</g>
<!-- MultilevelHexahedralMesh -->
<g id="node17" class="node">
<title>MultilevelHexahedralMesh</title>
<g id="a_node17"><a xlink:href="../api/proteus.MeshTools.html#proteus.MeshTools.MultilevelHexahedralMesh" xlink:title="A hierarchical multilevel mesh with hexahedral cells" target="_top">
<polygon fill="white" stroke="black" stroke-width="0.5" points="449,-426 318,-426 318,-407 449,-407 449,-426"/>
<text text-anchor="middle" x="383.5" y="-414" font-family="Vera Sans, DejaVu Sans, Liberation Sans, Arial, Helvetica, sans" font-size="10.00">MultilevelHexahedralMesh</text>
</a>
</g>
</g>
<!-- MultilevelMesh&#45;&gt;MultilevelHexahedralMesh -->
<g id="edge10" class="edge">
<title>MultilevelMesh&#45;&gt;MultilevelHexahedralMesh</title>
<path fill="none" stroke="black" stroke-width="0.5" d="M271.13,-389.03C291.78,-394.12 317.29,-400.41 338.68,-405.69"/>
<polygon fill="black" stroke="black" stroke-width="0.5" points="338.47,-407.44 343.74,-406.94 339.31,-404.04 338.47,-407.44"/>
</g>
<!-- MultilevelNURBSMesh -->
<g id="node18" class="node">
<title>MultilevelNURBSMesh</title>
<g id="a_node18"><a xlink:href="../api/proteus.MeshTools.html#proteus.MeshTools.MultilevelNURBSMesh" xlink:title="MultilevelNURBSMesh" target="_top">
<polygon fill="white" stroke="black" stroke-width="0.5" points="442.5,-389 324.5,-389 324.5,-370 442.5,-370 442.5,-389"/>
<text text-anchor="middle" x="383.5" y="-377" font-family="Vera Sans, DejaVu Sans, Liberation Sans, Arial, Helvetica, sans" font-size="10.00">MultilevelNURBSMesh</text>
</a>
</g>
</g>
<!-- MultilevelMesh&#45;&gt;MultilevelNURBSMesh -->
<g id="edge12" class="edge">
<title>MultilevelMesh&#45;&gt;MultilevelNURBSMesh</title>
<path fill="none" stroke="black" stroke-width="0.5" d="M272.7,-379.5C286.97,-379.5 303.39,-379.5 319.12,-379.5"/>
<polygon fill="black" stroke="black" stroke-width="0.5" points="319.42,-381.25 324.42,-379.5 319.42,-377.75 319.42,-381.25"/>
</g>
<!-- MultilevelQuadrilateralMesh -->
<g id="node19" class="node">
<title>MultilevelQuadrilateralMesh</title>
<g id="a_node19"><a xlink:href="../api/proteus.MeshTools.html#proteus.MeshTools.MultilevelQuadrilateralMesh" xlink:title="A heirarchical multilevel mesh of quadrilaterals" target="_top">
<polygon fill="white" stroke="black" stroke-width="0.5" points="452,-352 315,-352 315,-333 452,-333 452,-352"/>
<text text-anchor="middle" x="383.5" y="-340" font-family="Vera Sans, DejaVu Sans, Liberation Sans, Arial, Helvetica, sans" font-size="10.00">MultilevelQuadrilateralMesh</text>
</a>
</g>
</g>
<!-- MultilevelMesh&#45;&gt;MultilevelQuadrilateralMesh -->
<g id="edge13" class="edge">
<title>MultilevelMesh&#45;&gt;MultilevelQuadrilateralMesh</title>
<path fill="none" stroke="black" stroke-width="0.5" d="M271.13,-369.97C291.78,-364.88 317.29,-358.59 338.68,-353.31"/>
<polygon fill="black" stroke="black" stroke-width="0.5" points="339.31,-354.96 343.74,-352.06 338.47,-351.56 339.31,-354.96"/>
</g>
<!-- MultilevelRectangularGrid -->
<g id="node20" class="node">
<title>MultilevelRectangularGrid</title>
<g id="a_node20"><a xlink:href="../api/proteus.MeshTools.html#proteus.MeshTools.MultilevelRectangularGrid" xlink:title="A hierarchical multilevel grid" target="_top">
<polygon fill="white" stroke="black" stroke-width="0.5" points="447.5,-315 319.5,-315 319.5,-296 447.5,-296 447.5,-315"/>
<text text-anchor="middle" x="383.5" y="-303" font-family="Vera Sans, DejaVu Sans, Liberation Sans, Arial, Helvetica, sans" font-size="10.00">MultilevelRectangularGrid</text>
</a>
</g>
</g>
<!-- MultilevelMesh&#45;&gt;MultilevelRectangularGrid -->
<g id="edge14" class="edge">
<title>MultilevelMesh&#45;&gt;MultilevelRectangularGrid</title>
<path fill="none" stroke="black" stroke-width="0.5" d="M262.96,-369.89C268.51,-367.54 274.09,-364.75 279,-361.5 298.14,-348.85 295.28,-336.23 315,-324.5 320.07,-321.48 325.63,-318.93 331.33,-316.77"/>
<polygon fill="black" stroke="black" stroke-width="0.5" points="332.02,-318.38 336.14,-315.05 330.84,-315.09 332.02,-318.38"/>
</g>
<!-- MultilevelSimplicialMesh -->
<g id="node21" class="node">
<title>MultilevelSimplicialMesh</title>
<g id="a_node21"><a xlink:href="../api/proteus.MeshTools.html#proteus.MeshTools.MultilevelSimplicialMesh" xlink:title="A wrapper for all the simplicial hierarchical meshes in 1,2, and 3D" target="_top">
<polygon fill="white" stroke="black" stroke-width="0.5" points="445.5,-278 321.5,-278 321.5,-259 445.5,-259 445.5,-278"/>
<text text-anchor="middle" x="383.5" y="-266" font-family="Vera Sans, DejaVu Sans, Liberation Sans, Arial, Helvetica, sans" font-size="10.00">MultilevelSimplicialMesh</text>
</a>
</g>
</g>
<!-- MultilevelMesh&#45;&gt;MultilevelSimplicialMesh -->
<g id="edge15" class="edge">
<title>MultilevelMesh&#45;&gt;MultilevelSimplicialMesh</title>
<path fill="none" stroke="black" stroke-width="0.5" d="M266.29,-369.95C270.9,-367.68 275.3,-364.9 279,-361.5 305.92,-336.74 286.94,-310.96 315,-287.5 318.36,-284.69 322.1,-282.3 326.06,-280.26"/>
<polygon fill="black" stroke="black" stroke-width="0.5" points="327.02,-281.74 330.79,-278.03 325.52,-278.58 327.02,-281.74"/>
</g>
<!-- MultilevelTetrahedralMesh -->
<g id="node22" class="node">
<title>MultilevelTetrahedralMesh</title>
<g id="a_node22"><a xlink:href="../api/proteus.MeshTools.html#proteus.MeshTools.MultilevelTetrahedralMesh" xlink:title="A hierarchical multilevel mesh with tetrahedral cells" target="_top">
<polygon fill="white" stroke="black" stroke-width="0.5" points="448.5,-241 318.5,-241 318.5,-222 448.5,-222 448.5,-241"/>
<text text-anchor="middle" x="383.5" y="-229" font-family="Vera Sans, DejaVu Sans, Liberation Sans, Arial, Helvetica, sans" font-size="10.00">MultilevelTetrahedralMesh</text>
</a>
</g>
</g>
<!-- MultilevelMesh&#45;&gt;MultilevelTetrahedralMesh -->
<g id="edge16" class="edge">
<title>MultilevelMesh&#45;&gt;MultilevelTetrahedralMesh</title>
<path fill="none" stroke="black" stroke-width="0.5" d="M267.67,-369.91C271.86,-367.66 275.79,-364.9 279,-361.5 314.64,-323.82 277.61,-286.45 315,-250.5 317.78,-247.83 320.9,-245.53 324.23,-243.55"/>
<polygon fill="black" stroke="black" stroke-width="0.5" points="325.33,-244.95 328.9,-241.04 323.67,-241.87 325.33,-244.95"/>
</g>
<!-- Node -->
<g id="node24" class="node">
<title>Node</title>
<g id="a_node24"><a xlink:href="../api/proteus.MeshTools.html#proteus.MeshTools.Node" xlink:title="A numbered point in 3D Euclidean space" target="_top">
<polygon fill="white" stroke="black" stroke-width="0.5" points="101,-481 47,-481 47,-462 101,-462 101,-481"/>
<text text-anchor="middle" x="74" y="-469" font-family="Vera Sans, DejaVu Sans, Liberation Sans, Arial, Helvetica, sans" font-size="10.00">Node</text>
</a>
</g>
</g>
<!-- Quadrilateral -->
<g id="node27" class="node">
<title>Quadrilateral</title>
<g id="a_node27"><a xlink:href="../api/proteus.MeshTools.html#proteus.MeshTools.Quadrilateral" xlink:title="A 2D quadrilateral element" target="_top">
<polygon fill="white" stroke="black" stroke-width="0.5" points="419,-56 348,-56 348,-37 419,-37 419,-56"/>
<text text-anchor="middle" x="383.5" y="-44" font-family="Vera Sans, DejaVu Sans, Liberation Sans, Arial, Helvetica, sans" font-size="10.00">Quadrilateral</text>
</a>
</g>
</g>
<!-- Polygon&#45;&gt;Quadrilateral -->
<g id="edge22" class="edge">
<title>Polygon&#45;&gt;Quadrilateral</title>
<path fill="none" stroke="black" stroke-width="0.5" d="M258.63,-46.5C281.84,-46.5 316.12,-46.5 342.74,-46.5"/>
<polygon fill="black" stroke="black" stroke-width="0.5" points="342.95,-48.25 347.95,-46.5 342.95,-44.75 342.95,-48.25"/>
</g>
<!-- Triangle -->
<g id="node33" class="node">
<title>Triangle</title>
<g id="a_node33"><a xlink:href="../api/proteus.MeshTools.html#proteus.MeshTools.Triangle" xlink:title="A 2D triangular element" target="_top">
<polygon fill="white" stroke="black" stroke-width="0.5" points="410.5,-19 356.5,-19 356.5,0 410.5,0 410.5,-19"/>
<text text-anchor="middle" x="383.5" y="-7" font-family="Vera Sans, DejaVu Sans, Liberation Sans, Arial, Helvetica, sans" font-size="10.00">Triangle</text>
</a>
</g>
</g>
<!-- Polygon&#45;&gt;Triangle -->
<g id="edge28" class="edge">
<title>Polygon&#45;&gt;Triangle</title>
<path fill="none" stroke="black" stroke-width="0.5" d="M258.63,-40.06C284.47,-33.68 324.01,-23.93 351.45,-17.16"/>
<polygon fill="black" stroke="black" stroke-width="0.5" points="351.98,-18.83 356.42,-15.93 351.15,-15.43 351.98,-18.83"/>
</g>
</g>
</svg>
