<?xml version="1.0" encoding="UTF-8" standalone="no"?>
<!DOCTYPE svg PUBLIC "-//W3C//DTD SVG 1.1//EN"
 "http://www.w3.org/Graphics/SVG/1.1/DTD/svg11.dtd">
<!-- Generated by graphviz version 2.44.1 (20200629.0846)
 -->
<!-- Title: inheritance44a015191f Pages: 1 -->
<svg width="196pt" height="249pt"
 viewBox="0.00 0.00 196.00 249.00" xmlns="http://www.w3.org/2000/svg" xmlns:xlink="http://www.w3.org/1999/xlink">
<g id="graph0" class="graph" transform="scale(1 1) rotate(0) translate(4 245)">
<title>inheritance44a015191f</title>
<!-- BCContainer -->
<g id="node1" class="node">
<title>BCContainer</title>
<g id="a_node1"><a xlink:href="../api/proteus.SpatialTools.html#proteus.SpatialTools.BCContainer" xlink:title="Creates a class from a dictionary (keys become class variable names)" target="_top">
<polygon fill="white" stroke="black" stroke-width="0.5" points="73,-93 0,-93 0,-74 73,-74 73,-93"/>
<text text-anchor="middle" x="36.5" y="-81" font-family="Vera Sans, DejaVu Sans, Liberation Sans, Arial, Helvetica, sans" font-size="10.00">BCContainer</text>
</a>
</g>
</g>
<!-- Circle -->
<g id="node2" class="node">
<title>Circle</title>
<g id="a_node2"><a xlink:href="../api/proteus.SpatialTools.html#proteus.SpatialTools.Circle" xlink:title="Class to create a circular shape." target="_top">
<polygon fill="white" stroke="black" stroke-width="0.5" points="175.5,-241 121.5,-241 121.5,-222 175.5,-222 175.5,-241"/>
<text text-anchor="middle" x="148.5" y="-229" font-family="Vera Sans, DejaVu Sans, Liberation Sans, Arial, Helvetica, sans" font-size="10.00">Circle</text>
</a>
</g>
</g>
<!-- Shape -->
<g id="node3" class="node">
<title>Shape</title>
<g id="a_node3"><a xlink:href="../api/proteus.SpatialTools.html#proteus.SpatialTools.Shape" xlink:title="Base/super class of all shapes." target="_top">
<polygon fill="white" stroke="black" stroke-width="0.5" points="63.5,-130 9.5,-130 9.5,-111 63.5,-111 63.5,-130"/>
<text text-anchor="middle" x="36.5" y="-118" font-family="Vera Sans, DejaVu Sans, Liberation Sans, Arial, Helvetica, sans" font-size="10.00">Shape</text>
</a>
</g>
</g>
<!-- Shape&#45;&gt;Circle -->
<g id="edge1" class="edge">
<title>Shape&#45;&gt;Circle</title>
<path fill="none" stroke="black" stroke-width="0.5" d="M42.79,-130.15C53.27,-148.53 78.35,-188.9 109,-213.5 111.64,-215.62 114.58,-217.56 117.61,-219.32"/>
<polygon fill="black" stroke="black" stroke-width="0.5" points="117.21,-221.09 122.44,-221.92 118.87,-218.01 117.21,-221.09"/>
</g>
<!-- Cuboid -->
<g id="node4" class="node">
<title>Cuboid</title>
<g id="a_node4"><a xlink:href="../api/proteus.SpatialTools.html#proteus.SpatialTools.Cuboid" xlink:title="Class to create a 3D cuboid" target="_top">
<polygon fill="white" stroke="black" stroke-width="0.5" points="175.5,-204 121.5,-204 121.5,-185 175.5,-185 175.5,-204"/>
<text text-anchor="middle" x="148.5" y="-192" font-family="Vera Sans, DejaVu Sans, Liberation Sans, Arial, Helvetica, sans" font-size="10.00">Cuboid</text>
</a>
</g>
</g>
<!-- Shape&#45;&gt;Cuboid -->
<g id="edge2" class="edge">
<title>Shape&#45;&gt;Cuboid</title>
<path fill="none" stroke="black" stroke-width="0.5" d="M48.08,-130.05C61.56,-141.9 85.89,-162.3 109,-176.5 112.37,-178.57 116.02,-180.56 119.68,-182.42"/>
<polygon fill="black" stroke="black" stroke-width="0.5" points="119.4,-184.23 124.66,-184.86 120.94,-181.09 119.4,-184.23"/>
</g>
<!-- CustomShape -->
<g id="node5" class="node">
<title>CustomShape</title>
<g id="a_node5"><a xlink:href="../api/proteus.SpatialTools.html#proteus.SpatialTools.CustomShape" xlink:title="Class to create a custom 2D or 3D shape" target="_top">
<polygon fill="white" stroke="black" stroke-width="0.5" points="188,-167 109,-167 109,-148 188,-148 188,-167"/>
<text text-anchor="middle" x="148.5" y="-155" font-family="Vera Sans, DejaVu Sans, Liberation Sans, Arial, Helvetica, sans" font-size="10.00">CustomShape</text>
</a>
</g>
</g>
<!-- Shape&#45;&gt;CustomShape -->
<g id="edge3" class="edge">
<title>Shape&#45;&gt;CustomShape</title>
<path fill="none" stroke="black" stroke-width="0.5" d="M63.57,-129.27C78.65,-134.34 97.8,-140.78 113.99,-146.23"/>
<polygon fill="black" stroke="black" stroke-width="0.5" points="113.62,-147.95 118.92,-147.89 114.73,-144.63 113.62,-147.95"/>
</g>
<!-- Cylinder -->
<g id="node6" class="node">
<title>Cylinder</title>
<g id="a_node6"><a xlink:href="../api/proteus.SpatialTools.html#proteus.SpatialTools.Cylinder" xlink:title="Class to create a cylinder." target="_top">
<polygon fill="white" stroke="black" stroke-width="0.5" points="175.5,-130 121.5,-130 121.5,-111 175.5,-111 175.5,-130"/>
<text text-anchor="middle" x="148.5" y="-118" font-family="Vera Sans, DejaVu Sans, Liberation Sans, Arial, Helvetica, sans" font-size="10.00">Cylinder</text>
</a>
</g>
</g>
<!-- Shape&#45;&gt;Cylinder -->
<g id="edge4" class="edge">
<title>Shape&#45;&gt;Cylinder</title>
<path fill="none" stroke="black" stroke-width="0.5" d="M63.57,-120.5C79.34,-120.5 99.56,-120.5 116.2,-120.5"/>
<polygon fill="black" stroke="black" stroke-width="0.5" points="116.24,-122.25 121.24,-120.5 116.24,-118.75 116.24,-122.25"/>
</g>
<!-- Rectangle -->
<g id="node7" class="node">
<title>Rectangle</title>
<g id="a_node7"><a xlink:href="../api/proteus.SpatialTools.html#proteus.SpatialTools.Rectangle" xlink:title="Class to create a rectangle" target="_top">
<polygon fill="white" stroke="black" stroke-width="0.5" points="179,-93 118,-93 118,-74 179,-74 179,-93"/>
<text text-anchor="middle" x="148.5" y="-81" font-family="Vera Sans, DejaVu Sans, Liberation Sans, Arial, Helvetica, sans" font-size="10.00">Rectangle</text>
</a>
</g>
</g>
<!-- Shape&#45;&gt;Rectangle -->
<g id="edge5" class="edge">
<title>Shape&#45;&gt;Rectangle</title>
<path fill="none" stroke="black" stroke-width="0.5" d="M63.57,-111.73C78.65,-106.66 97.8,-100.22 113.99,-94.77"/>
<polygon fill="black" stroke="black" stroke-width="0.5" points="114.73,-96.37 118.92,-93.11 113.62,-93.05 114.73,-96.37"/>
</g>
<!-- ShapeSTL -->
<g id="node8" class="node">
<title>ShapeSTL</title>
<g id="a_node8"><a xlink:href="../api/proteus.SpatialTools.html#proteus.SpatialTools.ShapeSTL" xlink:title="Class to extract geometrical information from STL file" target="_top">
<polygon fill="white" stroke="black" stroke-width="0.5" points="179.5,-56 117.5,-56 117.5,-37 179.5,-37 179.5,-56"/>
<text text-anchor="middle" x="148.5" y="-44" font-family="Vera Sans, DejaVu Sans, Liberation Sans, Arial, Helvetica, sans" font-size="10.00">ShapeSTL</text>
</a>
</g>
</g>
<!-- Shape&#45;&gt;ShapeSTL -->
<g id="edge6" class="edge">
<title>Shape&#45;&gt;ShapeSTL</title>
<path fill="none" stroke="black" stroke-width="0.5" d="M59.2,-110.93C63.92,-108.46 68.77,-105.61 73,-102.5 91.48,-88.91 90.44,-78.99 109,-65.5 112.47,-62.98 116.32,-60.63 120.21,-58.51"/>
<polygon fill="black" stroke="black" stroke-width="0.5" points="121.15,-59.99 124.77,-56.12 119.53,-56.89 121.15,-59.99"/>
</g>
<!-- Sphere -->
<g id="node9" class="node">
<title>Sphere</title>
<g id="a_node9"><a xlink:href="../api/proteus.SpatialTools.html#proteus.SpatialTools.Sphere" xlink:title="Class to create a 3D cuboid" target="_top">
<polygon fill="white" stroke="black" stroke-width="0.5" points="175.5,-19 121.5,-19 121.5,0 175.5,0 175.5,-19"/>
<text text-anchor="middle" x="148.5" y="-7" font-family="Vera Sans, DejaVu Sans, Liberation Sans, Arial, Helvetica, sans" font-size="10.00">Sphere</text>
</a>
</g>
</g>
<!-- Shape&#45;&gt;Sphere -->
<g id="edge7" class="edge">
<title>Shape&#45;&gt;Sphere</title>
<path fill="none" stroke="black" stroke-width="0.5" d="M61.85,-110.85C65.89,-108.52 69.8,-105.75 73,-102.5 98.65,-76.43 83.21,-54.44 109,-28.5 111.53,-25.96 114.47,-23.7 117.57,-21.71"/>
<polygon fill="black" stroke="black" stroke-width="0.5" points="118.47,-23.21 121.89,-19.16 116.69,-20.19 118.47,-23.21"/>
</g>
</g>
</svg>
