<?xml version="1.0" encoding="UTF-8" standalone="no"?>
<!DOCTYPE svg PUBLIC "-//W3C//DTD SVG 1.1//EN"
 "http://www.w3.org/Graphics/SVG/1.1/DTD/svg11.dtd">
<!-- Generated by graphviz version 2.44.1 (20200629.0846)
 -->
<!-- Title: inheritancea2a0a950e2 Pages: 1 -->
<svg width="541pt" height="249pt"
 viewBox="0.00 0.00 541.00 249.00" xmlns="http://www.w3.org/2000/svg" xmlns:xlink="http://www.w3.org/1999/xlink">
<g id="graph0" class="graph" transform="scale(1 1) rotate(0) translate(4 245)">
<title>inheritancea2a0a950e2</title>
<!-- ISO_fixed_MinAdaptiveModelStep -->
<g id="node1" class="node">
<title>ISO_fixed_MinAdaptiveModelStep</title>
<g id="a_node1"><a xlink:href="../api/proteus.SplitOperator.html#proteus.SplitOperator.ISO_fixed_MinAdaptiveModelStep" xlink:title="Look at the minimum model step and make that the system step as" target="_top">
<polygon fill="white" stroke="black" stroke-width="0.5" points="269.5,-241 103.5,-241 103.5,-222 269.5,-222 269.5,-241"/>
<text text-anchor="middle" x="186.5" y="-229" font-family="Vera Sans, DejaVu Sans, Liberation Sans, Arial, Helvetica, sans" font-size="10.00">ISO_fixed_MinAdaptiveModelStep</text>
</a>
</g>
</g>
<!-- SO_base -->
<g id="node2" class="node">
<title>SO_base</title>
<g id="a_node2"><a xlink:href="../api/proteus.SplitOperator.html#proteus.SplitOperator.SO_base" xlink:title="Base class for operating splitting methods for systems." target="_top">
<polygon fill="white" stroke="black" stroke-width="0.5" points="57,-130 0,-130 0,-111 57,-111 57,-130"/>
<text text-anchor="middle" x="28.5" y="-118" font-family="Vera Sans, DejaVu Sans, Liberation Sans, Arial, Helvetica, sans" font-size="10.00">SO_base</text>
</a>
</g>
</g>
<!-- SO_base&#45;&gt;ISO_fixed_MinAdaptiveModelStep -->
<g id="edge1" class="edge">
<title>SO_base&#45;&gt;ISO_fixed_MinAdaptiveModelStep</title>
<path fill="none" stroke="black" stroke-width="0.5" d="M46.33,-130.1C50.16,-132.8 53.98,-135.98 57,-139.5 80.83,-167.25 64,-191.22 93,-213.5 95.94,-215.76 99.09,-217.76 102.39,-219.53"/>
<polygon fill="black" stroke="black" stroke-width="0.5" points="101.7,-221.15 106.96,-221.81 103.26,-218.02 101.7,-221.15"/>
</g>
<!-- Sequential_MinAdaptiveModelStep -->
<g id="node4" class="node">
<title>Sequential_MinAdaptiveModelStep</title>
<g id="a_node4"><a xlink:href="../api/proteus.SplitOperator.html#proteus.SplitOperator.Sequential_MinAdaptiveModelStep" xlink:title="Look at the minimum model step and make that the system step as" target="_top">
<polygon fill="white" stroke="black" stroke-width="0.5" points="270.5,-204 102.5,-204 102.5,-185 270.5,-185 270.5,-204"/>
<text text-anchor="middle" x="186.5" y="-192" font-family="Vera Sans, DejaVu Sans, Liberation Sans, Arial, Helvetica, sans" font-size="10.00">Sequential_MinAdaptiveModelStep</text>
</a>
</g>
</g>
<!-- SO_base&#45;&gt;Sequential_MinAdaptiveModelStep -->
<g id="edge4" class="edge">
<title>SO_base&#45;&gt;Sequential_MinAdaptiveModelStep</title>
<path fill="none" stroke="black" stroke-width="0.5" d="M44.45,-130.05C48.63,-132.93 53.1,-136.2 57,-139.5 74.52,-154.31 72.82,-165.59 93,-176.5 97.85,-179.12 103.02,-181.36 108.35,-183.28"/>
<polygon fill="black" stroke="black" stroke-width="0.5" points="107.99,-185.01 113.29,-184.96 109.11,-181.69 107.99,-185.01"/>
</g>
<!-- Sequential_MinFLCBDFModelStep -->
<g id="node6" class="node">
<title>Sequential_MinFLCBDFModelStep</title>
<g id="a_node6"><a xlink:href="../api/proteus.SplitOperator.html#proteus.SplitOperator.Sequential_MinFLCBDFModelStep" xlink:title="Look at the minimum model step and make that the system step as" target="_top">
<polygon fill="white" stroke="black" stroke-width="0.5" points="271,-167 102,-167 102,-148 271,-148 271,-167"/>
<text text-anchor="middle" x="186.5" y="-155" font-family="Vera Sans, DejaVu Sans, Liberation Sans, Arial, Helvetica, sans" font-size="10.00">Sequential_MinFLCBDFModelStep</text>
</a>
</g>
</g>
<!-- SO_base&#45;&gt;Sequential_MinFLCBDFModelStep -->
<g id="edge6" class="edge">
<title>SO_base&#45;&gt;Sequential_MinFLCBDFModelStep</title>
<path fill="none" stroke="black" stroke-width="0.5" d="M57.16,-129.42C68.23,-132.82 81.16,-136.58 93,-139.5 103.75,-142.15 115.27,-144.65 126.41,-146.9"/>
<polygon fill="black" stroke="black" stroke-width="0.5" points="126.25,-148.66 131.5,-147.92 126.94,-145.22 126.25,-148.66"/>
</g>
<!-- Sequential_MinAdaptiveModelStep_SS -->
<g id="node7" class="node">
<title>Sequential_MinAdaptiveModelStep_SS</title>
<g id="a_node7"><a xlink:href="../api/proteus.SplitOperator.html#proteus.SplitOperator.Sequential_MinAdaptiveModelStep_SS" xlink:title="Look at the minimum model step and make that the system step as" target="_top">
<polygon fill="white" stroke="black" stroke-width="0.5" points="280,-130 93,-130 93,-111 280,-111 280,-130"/>
<text text-anchor="middle" x="186.5" y="-118" font-family="Vera Sans, DejaVu Sans, Liberation Sans, Arial, Helvetica, sans" font-size="10.00">Sequential_MinAdaptiveModelStep_SS</text>
</a>
</g>
</g>
<!-- SO_base&#45;&gt;Sequential_MinAdaptiveModelStep_SS -->
<g id="edge5" class="edge">
<title>SO_base&#45;&gt;Sequential_MinAdaptiveModelStep_SS</title>
<path fill="none" stroke="black" stroke-width="0.5" d="M57.03,-120.5C65.98,-120.5 76.49,-120.5 87.57,-120.5"/>
<polygon fill="black" stroke="black" stroke-width="0.5" points="87.69,-122.25 92.69,-120.5 87.69,-118.75 87.69,-122.25"/>
</g>
<!-- Sequential_MinModelStep -->
<g id="node8" class="node">
<title>Sequential_MinModelStep</title>
<g id="a_node8"><a xlink:href="../api/proteus.SplitOperator.html#proteus.SplitOperator.Sequential_MinModelStep" xlink:title="Look at the minimum model step and make that the system step as" target="_top">
<polygon fill="white" stroke="black" stroke-width="0.5" points="251.5,-93 121.5,-93 121.5,-74 251.5,-74 251.5,-93"/>
<text text-anchor="middle" x="186.5" y="-81" font-family="Vera Sans, DejaVu Sans, Liberation Sans, Arial, Helvetica, sans" font-size="10.00">Sequential_MinModelStep</text>
</a>
</g>
</g>
<!-- SO_base&#45;&gt;Sequential_MinModelStep -->
<g id="edge7" class="edge">
<title>SO_base&#45;&gt;Sequential_MinModelStep</title>
<path fill="none" stroke="black" stroke-width="0.5" d="M57.2,-112.17C68.29,-108.96 81.2,-105.38 93,-102.5 104.98,-99.57 117.92,-96.73 130.2,-94.17"/>
<polygon fill="black" stroke="black" stroke-width="0.5" points="130.88,-95.81 135.42,-93.09 130.17,-92.38 130.88,-95.81"/>
</g>
<!-- Sequential_NonUniformFixedStep -->
<g id="node9" class="node">
<title>Sequential_NonUniformFixedStep</title>
<g id="a_node9"><a xlink:href="../api/proteus.SplitOperator.html#proteus.SplitOperator.Sequential_NonUniformFixedStep" xlink:title="Just step to system output time levels, allowing models to" target="_top">
<polygon fill="white" stroke="black" stroke-width="0.5" points="268.5,-56 104.5,-56 104.5,-37 268.5,-37 268.5,-56"/>
<text text-anchor="middle" x="186.5" y="-44" font-family="Vera Sans, DejaVu Sans, Liberation Sans, Arial, Helvetica, sans" font-size="10.00">Sequential_NonUniformFixedStep</text>
</a>
</g>
</g>
<!-- SO_base&#45;&gt;Sequential_NonUniformFixedStep -->
<g id="edge8" class="edge">
<title>SO_base&#45;&gt;Sequential_NonUniformFixedStep</title>
<path fill="none" stroke="black" stroke-width="0.5" d="M37.87,-110.64C49.08,-98.1 70.24,-76.72 93,-65.5 99.45,-62.32 106.41,-59.67 113.51,-57.46"/>
<polygon fill="black" stroke="black" stroke-width="0.5" points="114.14,-59.1 118.44,-56.01 113.15,-55.74 114.14,-59.1"/>
</g>
<!-- Sequential_tnList -->
<g id="node10" class="node">
<title>Sequential_tnList</title>
<g id="a_node10"><a xlink:href="../api/proteus.SplitOperator.html#proteus.SplitOperator.Sequential_tnList" xlink:title="Sequential_tnList" target="_top">
<polygon fill="white" stroke="black" stroke-width="0.5" points="232.5,-19 140.5,-19 140.5,0 232.5,0 232.5,-19"/>
<text text-anchor="middle" x="186.5" y="-7" font-family="Vera Sans, DejaVu Sans, Liberation Sans, Arial, Helvetica, sans" font-size="10.00">Sequential_tnList</text>
</a>
</g>
</g>
<!-- SO_base&#45;&gt;Sequential_tnList -->
<g id="edge9" class="edge">
<title>SO_base&#45;&gt;Sequential_tnList</title>
<path fill="none" stroke="black" stroke-width="0.5" d="M33.22,-110.88C41.12,-91.83 61.44,-49.39 93,-28.5 105.42,-20.28 120.67,-15.5 135.18,-12.76"/>
<polygon fill="black" stroke="black" stroke-width="0.5" points="135.86,-14.42 140.49,-11.84 135.27,-10.97 135.86,-14.42"/>
</g>
<!-- SequentialNotInOrder_MinAdaptiveModelStep -->
<g id="node3" class="node">
<title>SequentialNotInOrder_MinAdaptiveModelStep</title>
<g id="a_node3"><a xlink:href="../api/proteus.SplitOperator.html#proteus.SplitOperator.SequentialNotInOrder_MinAdaptiveModelStep" xlink:title="loop through the models in some specified order" target="_top">
<polygon fill="white" stroke="black" stroke-width="0.5" points="532.5,-204 316.5,-204 316.5,-185 532.5,-185 532.5,-204"/>
<text text-anchor="middle" x="424.5" y="-192" font-family="Vera Sans, DejaVu Sans, Liberation Sans, Arial, Helvetica, sans" font-size="10.00">SequentialNotInOrder_MinAdaptiveModelStep</text>
</a>
</g>
</g>
<!-- Sequential_MinAdaptiveModelStep&#45;&gt;SequentialNotInOrder_MinAdaptiveModelStep -->
<g id="edge2" class="edge">
<title>Sequential_MinAdaptiveModelStep&#45;&gt;SequentialNotInOrder_MinAdaptiveModelStep</title>
<path fill="none" stroke="black" stroke-width="0.5" d="M270.7,-194.5C283.82,-194.5 297.57,-194.5 311.22,-194.5"/>
<polygon fill="black" stroke="black" stroke-width="0.5" points="311.24,-196.25 316.24,-194.5 311.24,-192.75 311.24,-196.25"/>
</g>
<!-- SequentialNotInOrder_MinFLCBDFModelStep -->
<g id="node5" class="node">
<title>SequentialNotInOrder_MinFLCBDFModelStep</title>
<g id="a_node5"><a xlink:href="../api/proteus.SplitOperator.html#proteus.SplitOperator.SequentialNotInOrder_MinFLCBDFModelStep" xlink:title="loop through the models in some specified order" target="_top">
<polygon fill="white" stroke="black" stroke-width="0.5" points="533,-167 316,-167 316,-148 533,-148 533,-167"/>
<text text-anchor="middle" x="424.5" y="-155" font-family="Vera Sans, DejaVu Sans, Liberation Sans, Arial, Helvetica, sans" font-size="10.00">SequentialNotInOrder_MinFLCBDFModelStep</text>
</a>
</g>
</g>
<!-- Sequential_MinFLCBDFModelStep&#45;&gt;SequentialNotInOrder_MinFLCBDFModelStep -->
<g id="edge3" class="edge">
<title>Sequential_MinFLCBDFModelStep&#45;&gt;SequentialNotInOrder_MinFLCBDFModelStep</title>
<path fill="none" stroke="black" stroke-width="0.5" d="M271.04,-157.5C283.8,-157.5 297.14,-157.5 310.41,-157.5"/>
<polygon fill="black" stroke="black" stroke-width="0.5" points="310.69,-159.25 315.69,-157.5 310.69,-155.75 310.69,-159.25"/>
</g>
<!-- System -->
<g id="node11" class="node">
<title>System</title>
<g id="a_node11"><a xlink:href="../api/proteus.SplitOperator.html#proteus.SplitOperator.System" xlink:title="System" target="_top">
<polygon fill="white" stroke="black" stroke-width="0.5" points="55.5,-167 1.5,-167 1.5,-148 55.5,-148 55.5,-167"/>
<text text-anchor="middle" x="28.5" y="-155" font-family="Vera Sans, DejaVu Sans, Liberation Sans, Arial, Helvetica, sans" font-size="10.00">System</text>
</a>
</g>
</g>
</g>
</svg>
