<?xml version="1.0" encoding="UTF-8" standalone="no"?>
<!DOCTYPE svg PUBLIC "-//W3C//DTD SVG 1.1//EN"
 "http://www.w3.org/Graphics/SVG/1.1/DTD/svg11.dtd">
<!-- Generated by graphviz version 2.38.0 (20140413.2041)
 -->
<!-- Title: inheritance51f61a8c20 Pages: 1 -->
<svg width="444pt" height="101pt"
 viewBox="0.00 0.00 444.00 101.00" xmlns="http://www.w3.org/2000/svg" xmlns:xlink="http://www.w3.org/1999/xlink">
<g id="graph0" class="graph" transform="scale(1 1) rotate(0) translate(4 97)">
<title>inheritance51f61a8c20</title>
<polygon fill="white" stroke="none" points="-4,4 -4,-97 440,-97 440,4 -4,4"/>
<!-- TC_base -->
<g id="node1" class="node"><title>TC_base</title>
<g id="a_node1"><a xlink:href="../proteus.TransportCoefficients.html#proteus.TransportCoefficients.TC_base" xlink:title="This is the base class for coefficients of the vector transport" target="_top">
<polygon fill="none" stroke="black" stroke-width="0.5" points="56,-56 0,-56 0,-37 56,-37 56,-56"/>
<text text-anchor="middle" x="28" y="-44" font-family="Vera Sans, DejaVu Sans, Liberation Sans, Arial, Helvetica, sans" font-size="10.00">TC_base</text>
</a>
</g>
</g>
<!-- TwophaseDarcyFlow_base -->
<g id="node2" class="node"><title>TwophaseDarcyFlow_base</title>
<g id="a_node2"><a xlink:href="../api/proteus.TwophaseDarcyCoefficients.html#proteus.TwophaseDarcyCoefficients.TwophaseDarcyFlow_base" xlink:title="TwophaseDarcyFlow_base" target="_top">
<polygon fill="none" stroke="black" stroke-width="0.5" points="231,-56 92,-56 92,-37 231,-37 231,-56"/>
<text text-anchor="middle" x="161.5" y="-44" font-family="Vera Sans, DejaVu Sans, Liberation Sans, Arial, Helvetica, sans" font-size="10.00">TwophaseDarcyFlow_base</text>
</a>
</g>
</g>
<!-- TC_base&#45;&gt;TwophaseDarcyFlow_base -->
<g id="edge1" class="edge"><title>TC_base&#45;&gt;TwophaseDarcyFlow_base</title>
<path fill="none" stroke="black" stroke-width="0.5" d="M56.2469,-46.5C65.3149,-46.5 75.8915,-46.5 86.7639,-46.5"/>
<polygon fill="black" stroke="black" stroke-width="0.5" points="86.7758,-48.2501 91.7757,-46.5 86.7757,-44.7501 86.7758,-48.2501"/>
</g>
<!-- TwophaseDarcy_fc -->
<g id="node3" class="node"><title>TwophaseDarcy_fc</title>
<g id="a_node3"><a xlink:href="../api/proteus.TwophaseDarcyCoefficients.html#proteus.TwophaseDarcyCoefficients.TwophaseDarcy_fc" xlink:title="TwophaseDarcy_fc" target="_top">
<polygon fill="none" stroke="black" stroke-width="0.5" points="403.5,-93 299.5,-93 299.5,-74 403.5,-74 403.5,-93"/>
<text text-anchor="middle" x="351.5" y="-81" font-family="Vera Sans, DejaVu Sans, Liberation Sans, Arial, Helvetica, sans" font-size="10.00">TwophaseDarcy_fc</text>
</a>
</g>
</g>
<!-- TwophaseDarcyFlow_base&#45;&gt;TwophaseDarcy_fc -->
<g id="edge2" class="edge"><title>TwophaseDarcyFlow_base&#45;&gt;TwophaseDarcy_fc</title>
<path fill="none" stroke="black" stroke-width="0.5" d="M210.915,-56.0284C237.237,-61.2088 269.851,-67.6276 296.933,-72.9576"/>
<polygon fill="black" stroke="black" stroke-width="0.5" points="296.679,-74.6911 301.923,-73.9396 297.355,-71.257 296.679,-74.6911"/>
</g>
<!-- TwophaseDarcy_split_pressure -->
<g id="node4" class="node"><title>TwophaseDarcy_split_pressure</title>
<g id="a_node4"><a xlink:href="../api/proteus.TwophaseDarcyCoefficients.html#proteus.TwophaseDarcyCoefficients.TwophaseDarcy_split_pressure" xlink:title="TwophaseDarcy_split_pressure" target="_top">
<polygon fill="none" stroke="black" stroke-width="0.5" points="432.5,-56 270.5,-56 270.5,-37 432.5,-37 432.5,-56"/>
<text text-anchor="middle" x="351.5" y="-44" font-family="Vera Sans, DejaVu Sans, Liberation Sans, Arial, Helvetica, sans" font-size="10.00">TwophaseDarcy_split_pressure</text>
</a>
</g>
</g>
<!-- TwophaseDarcyFlow_base&#45;&gt;TwophaseDarcy_split_pressure -->
<g id="edge3" class="edge"><title>TwophaseDarcyFlow_base&#45;&gt;TwophaseDarcy_split_pressure</title>
<path fill="none" stroke="black" stroke-width="0.5" d="M231.17,-46.5C242.177,-46.5 253.684,-46.5 265.024,-46.5"/>
<polygon fill="black" stroke="black" stroke-width="0.5" points="265.22,-48.2501 270.22,-46.5 265.22,-44.7501 265.22,-48.2501"/>
</g>
<!-- TwophaseDarcy_split_saturation -->
<g id="node5" class="node"><title>TwophaseDarcy_split_saturation</title>
<g id="a_node5"><a xlink:href="../api/proteus.TwophaseDarcyCoefficients.html#proteus.TwophaseDarcyCoefficients.TwophaseDarcy_split_saturation" xlink:title="TwophaseDarcy_split_saturation" target="_top">
<polygon fill="none" stroke="black" stroke-width="0.5" points="436,-19 267,-19 267,-0 436,-0 436,-19"/>
<text text-anchor="middle" x="351.5" y="-7" font-family="Vera Sans, DejaVu Sans, Liberation Sans, Arial, Helvetica, sans" font-size="10.00">TwophaseDarcy_split_saturation</text>
</a>
</g>
</g>
<!-- TwophaseDarcyFlow_base&#45;&gt;TwophaseDarcy_split_saturation -->
<g id="edge4" class="edge"><title>TwophaseDarcyFlow_base&#45;&gt;TwophaseDarcy_split_saturation</title>
<path fill="none" stroke="black" stroke-width="0.5" d="M210.915,-36.9716C237.237,-31.7912 269.851,-25.3724 296.933,-20.0424"/>
<polygon fill="black" stroke="black" stroke-width="0.5" points="297.355,-21.743 301.923,-19.0604 296.679,-18.3089 297.355,-21.743"/>
</g>
</g>
</svg>
