<?xml version="1.0" encoding="UTF-8" standalone="no"?>
<!DOCTYPE svg PUBLIC "-//W3C//DTD SVG 1.1//EN"
 "http://www.w3.org/Graphics/SVG/1.1/DTD/svg11.dtd">
<!-- Generated by graphviz version 2.44.1 (20200629.0846)
 -->
<!-- Title: inheritance478a470905 Pages: 1 -->
<svg width="681pt" height="813pt"
 viewBox="0.00 0.00 681.00 813.00" xmlns="http://www.w3.org/2000/svg" xmlns:xlink="http://www.w3.org/1999/xlink">
<g id="graph0" class="graph" transform="scale(1 1) rotate(0) translate(4 809)">
<title>inheritance478a470905</title>
<!-- BlockedDofOrderType -->
<g id="node1" class="node">
<title>BlockedDofOrderType</title>
<g id="a_node1"><a xlink:href="../api/proteus.LinearSolvers.html#proteus.LinearSolvers.BlockedDofOrderType" xlink:title="Manages the DOF for blocked velocity and pressure ordering." target="_top">
<polygon fill="white" stroke="black" stroke-width="0.5" points="330,-56 217,-56 217,-37 330,-37 330,-56"/>
<text text-anchor="middle" x="273.5" y="-44" font-family="Vera Sans, DejaVu Sans, Liberation Sans, Arial, Helvetica, sans" font-size="10.00">BlockedDofOrderType</text>
</a>
</g>
</g>
<!-- DofOrderInfo -->
<g id="node2" class="node">
<title>DofOrderInfo</title>
<g id="a_node2"><a xlink:href="../api/proteus.LinearSolvers.html#proteus.LinearSolvers.DofOrderInfo" xlink:title="Base class for managing DOF ordering information" target="_top">
<polygon fill="white" stroke="black" stroke-width="0.5" points="116.5,-37 43.5,-37 43.5,-18 116.5,-18 116.5,-37"/>
<text text-anchor="middle" x="80" y="-25" font-family="Vera Sans, DejaVu Sans, Liberation Sans, Arial, Helvetica, sans" font-size="10.00">DofOrderInfo</text>
</a>
</g>
</g>
<!-- DofOrderInfo&#45;&gt;BlockedDofOrderType -->
<g id="edge1" class="edge">
<title>DofOrderInfo&#45;&gt;BlockedDofOrderType</title>
<path fill="none" stroke="black" stroke-width="0.5" d="M116.57,-31.03C143.27,-33.68 180.46,-37.37 211.82,-40.48"/>
<polygon fill="black" stroke="black" stroke-width="0.5" points="211.65,-42.22 216.8,-40.97 212,-38.74 211.65,-42.22"/>
</g>
<!-- InterlacedDofOrderType -->
<g id="node8" class="node">
<title>InterlacedDofOrderType</title>
<g id="a_node8"><a xlink:href="../api/proteus.LinearSolvers.html#proteus.LinearSolvers.InterlacedDofOrderType" xlink:title="Manages the DOF for interlaced velocity and pressure ordering." target="_top">
<polygon fill="white" stroke="black" stroke-width="0.5" points="333.5,-19 213.5,-19 213.5,0 333.5,0 333.5,-19"/>
<text text-anchor="middle" x="273.5" y="-7" font-family="Vera Sans, DejaVu Sans, Liberation Sans, Arial, Helvetica, sans" font-size="10.00">InterlacedDofOrderType</text>
</a>
</g>
</g>
<!-- DofOrderInfo&#45;&gt;InterlacedDofOrderType -->
<g id="edge5" class="edge">
<title>DofOrderInfo&#45;&gt;InterlacedDofOrderType</title>
<path fill="none" stroke="black" stroke-width="0.5" d="M116.57,-24.16C142.24,-21.74 177.6,-18.42 208.16,-15.55"/>
<polygon fill="black" stroke="black" stroke-width="0.5" points="208.6,-17.26 213.42,-15.05 208.27,-13.78 208.6,-17.26"/>
</g>
<!-- ChebyshevSemiIteration -->
<g id="node3" class="node">
<title>ChebyshevSemiIteration</title>
<g id="a_node3"><a xlink:href="../api/proteus.LinearSolvers.html#proteus.LinearSolvers.ChebyshevSemiIteration" xlink:title="Class for implementing the ChebyshevSemiIteration." target="_top">
<polygon fill="white" stroke="black" stroke-width="0.5" points="335.5,-352 211.5,-352 211.5,-333 335.5,-333 335.5,-352"/>
<text text-anchor="middle" x="273.5" y="-340" font-family="Vera Sans, DejaVu Sans, Liberation Sans, Arial, Helvetica, sans" font-size="10.00">ChebyshevSemiIteration</text>
</a>
</g>
</g>
<!-- LinearSolver -->
<g id="node4" class="node">
<title>LinearSolver</title>
<g id="a_node4"><a xlink:href="../api/proteus.LinearSolvers.html#proteus.LinearSolvers.LinearSolver" xlink:title="The base class for linear solvers." target="_top">
<polygon fill="white" stroke="black" stroke-width="0.5" points="115.5,-222 44.5,-222 44.5,-203 115.5,-203 115.5,-222"/>
<text text-anchor="middle" x="80" y="-210" font-family="Vera Sans, DejaVu Sans, Liberation Sans, Arial, Helvetica, sans" font-size="10.00">LinearSolver</text>
</a>
</g>
</g>
<!-- LinearSolver&#45;&gt;ChebyshevSemiIteration -->
<g id="edge2" class="edge">
<title>LinearSolver&#45;&gt;ChebyshevSemiIteration</title>
<path fill="none" stroke="black" stroke-width="0.5" d="M88.13,-222.25C104.57,-243.99 147.45,-296.62 196,-323.5 201.43,-326.5 207.33,-329.04 213.37,-331.18"/>
<polygon fill="black" stroke="black" stroke-width="0.5" points="213.17,-332.96 218.46,-332.88 214.28,-329.64 213.17,-332.96"/>
</g>
<!-- GaussSeidel -->
<g id="node7" class="node">
<title>GaussSeidel</title>
<g id="a_node7"><a xlink:href="../api/proteus.LinearSolvers.html#proteus.LinearSolvers.GaussSeidel" xlink:title="Damped Gauss&#45;Seidel." target="_top">
<polygon fill="white" stroke="black" stroke-width="0.5" points="309.5,-315 237.5,-315 237.5,-296 309.5,-296 309.5,-315"/>
<text text-anchor="middle" x="273.5" y="-303" font-family="Vera Sans, DejaVu Sans, Liberation Sans, Arial, Helvetica, sans" font-size="10.00">GaussSeidel</text>
</a>
</g>
</g>
<!-- LinearSolver&#45;&gt;GaussSeidel -->
<g id="edge4" class="edge">
<title>LinearSolver&#45;&gt;GaussSeidel</title>
<path fill="none" stroke="black" stroke-width="0.5" d="M93,-222.15C113.12,-237.86 155.46,-268.99 196,-286.5 207.43,-291.44 220.4,-295.26 232.38,-298.15"/>
<polygon fill="black" stroke="black" stroke-width="0.5" points="232.17,-299.9 237.44,-299.33 232.96,-296.49 232.17,-299.9"/>
</g>
<!-- Jacobi -->
<g id="node9" class="node">
<title>Jacobi</title>
<g id="a_node9"><a xlink:href="../api/proteus.LinearSolvers.html#proteus.LinearSolvers.Jacobi" xlink:title="Damped Jacobi iteration." target="_top">
<polygon fill="white" stroke="black" stroke-width="0.5" points="300.5,-278 246.5,-278 246.5,-259 300.5,-259 300.5,-278"/>
<text text-anchor="middle" x="273.5" y="-266" font-family="Vera Sans, DejaVu Sans, Liberation Sans, Arial, Helvetica, sans" font-size="10.00">Jacobi</text>
</a>
</g>
</g>
<!-- LinearSolver&#45;&gt;Jacobi -->
<g id="edge6" class="edge">
<title>LinearSolver&#45;&gt;Jacobi</title>
<path fill="none" stroke="black" stroke-width="0.5" d="M108.72,-222C131.92,-229.81 165.94,-240.94 196,-249.5 210.77,-253.7 227.29,-257.87 241.19,-261.23"/>
<polygon fill="black" stroke="black" stroke-width="0.5" points="240.91,-262.96 246.18,-262.43 241.73,-259.56 240.91,-262.96"/>
</g>
<!-- KSP_petsc4py -->
<g id="node11" class="node">
<title>KSP_petsc4py</title>
<g id="a_node11"><a xlink:href="../api/proteus.LinearSolvers.html#proteus.LinearSolvers.KSP_petsc4py" xlink:title="A class that interfaces Proteus with PETSc KSP." target="_top">
<polygon fill="white" stroke="black" stroke-width="0.5" points="314.5,-241 232.5,-241 232.5,-222 314.5,-222 314.5,-241"/>
<text text-anchor="middle" x="273.5" y="-229" font-family="Vera Sans, DejaVu Sans, Liberation Sans, Arial, Helvetica, sans" font-size="10.00">KSP_petsc4py</text>
</a>
</g>
</g>
<!-- LinearSolver&#45;&gt;KSP_petsc4py -->
<g id="edge7" class="edge">
<title>LinearSolver&#45;&gt;KSP_petsc4py</title>
<path fill="none" stroke="black" stroke-width="0.5" d="M115.68,-215.94C146.88,-219.04 192.94,-223.61 227.08,-226.99"/>
<polygon fill="black" stroke="black" stroke-width="0.5" points="227.3,-228.77 232.45,-227.53 227.64,-225.29 227.3,-228.77"/>
</g>
<!-- LU -->
<g id="node12" class="node">
<title>LU</title>
<g id="a_node12"><a xlink:href="../api/proteus.LinearSolvers.html#proteus.LinearSolvers.LU" xlink:title="A wrapper for pysparse&#39;s wrapper for superlu." target="_top">
<polygon fill="white" stroke="black" stroke-width="0.5" points="300.5,-204 246.5,-204 246.5,-185 300.5,-185 300.5,-204"/>
<text text-anchor="middle" x="273.5" y="-192" font-family="Vera Sans, DejaVu Sans, Liberation Sans, Arial, Helvetica, sans" font-size="10.00">LU</text>
</a>
</g>
</g>
<!-- LinearSolver&#45;&gt;LU -->
<g id="edge8" class="edge">
<title>LinearSolver&#45;&gt;LU</title>
<path fill="none" stroke="black" stroke-width="0.5" d="M115.68,-209.24C151.39,-205.88 206.54,-200.7 241.02,-197.46"/>
<polygon fill="black" stroke="black" stroke-width="0.5" points="241.56,-199.17 246.38,-196.96 241.23,-195.68 241.56,-199.17"/>
</g>
<!-- StarBILU -->
<g id="node32" class="node">
<title>StarBILU</title>
<g id="a_node32"><a xlink:href="../api/proteus.LinearSolvers.html#proteus.LinearSolvers.StarBILU" xlink:title="Alternating Schwarz Method on &#39;blocks&#39; consisting of consectutive rows in system for things like dg ..." target="_top">
<polygon fill="white" stroke="black" stroke-width="0.5" points="302,-167 245,-167 245,-148 302,-148 302,-167"/>
<text text-anchor="middle" x="273.5" y="-155" font-family="Vera Sans, DejaVu Sans, Liberation Sans, Arial, Helvetica, sans" font-size="10.00">StarBILU</text>
</a>
</g>
</g>
<!-- LinearSolver&#45;&gt;StarBILU -->
<g id="edge23" class="edge">
<title>LinearSolver&#45;&gt;StarBILU</title>
<path fill="none" stroke="black" stroke-width="0.5" d="M108.7,-202.9C131.87,-195.03 165.89,-183.87 196,-175.5 210.28,-171.53 226.22,-167.69 239.84,-164.58"/>
<polygon fill="black" stroke="black" stroke-width="0.5" points="240.25,-166.28 244.74,-163.47 239.48,-162.86 240.25,-166.28"/>
</g>
<!-- StarILU -->
<g id="node33" class="node">
<title>StarILU</title>
<g id="a_node33"><a xlink:href="../api/proteus.LinearSolvers.html#proteus.LinearSolvers.StarILU" xlink:title="Alternating Schwarz Method on node stars." target="_top">
<polygon fill="white" stroke="black" stroke-width="0.5" points="300.5,-130 246.5,-130 246.5,-111 300.5,-111 300.5,-130"/>
<text text-anchor="middle" x="273.5" y="-118" font-family="Vera Sans, DejaVu Sans, Liberation Sans, Arial, Helvetica, sans" font-size="10.00">StarILU</text>
</a>
</g>
</g>
<!-- LinearSolver&#45;&gt;StarILU -->
<g id="edge24" class="edge">
<title>LinearSolver&#45;&gt;StarILU</title>
<path fill="none" stroke="black" stroke-width="0.5" d="M92.98,-202.8C113.06,-187 155.35,-155.75 196,-138.5 210.32,-132.42 227.05,-128.19 241.22,-125.36"/>
<polygon fill="black" stroke="black" stroke-width="0.5" points="241.73,-127.04 246.31,-124.38 241.07,-123.61 241.73,-127.04"/>
</g>
<!-- TwoLevel -->
<g id="node35" class="node">
<title>TwoLevel</title>
<g id="a_node35"><a xlink:href="../api/proteus.LinearSolvers.html#proteus.LinearSolvers.TwoLevel" xlink:title="A generic two&#45;level multiplicative Schwarz solver." target="_top">
<polygon fill="white" stroke="black" stroke-width="0.5" points="302.5,-93 244.5,-93 244.5,-74 302.5,-74 302.5,-93"/>
<text text-anchor="middle" x="273.5" y="-81" font-family="Vera Sans, DejaVu Sans, Liberation Sans, Arial, Helvetica, sans" font-size="10.00">TwoLevel</text>
</a>
</g>
</g>
<!-- LinearSolver&#45;&gt;TwoLevel -->
<g id="edge25" class="edge">
<title>LinearSolver&#45;&gt;TwoLevel</title>
<path fill="none" stroke="black" stroke-width="0.5" d="M88.11,-202.7C104.49,-180.88 147.28,-128.08 196,-101.5 209.23,-94.28 225.28,-89.94 239.26,-87.34"/>
<polygon fill="black" stroke="black" stroke-width="0.5" points="239.68,-89.04 244.3,-86.46 239.08,-85.6 239.68,-89.04"/>
</g>
<!-- ConstantNullSpace -->
<g id="node5" class="node">
<title>ConstantNullSpace</title>
<g id="a_node5"><a xlink:href="../api/proteus.LinearSolvers.html#proteus.LinearSolvers.ConstantNullSpace" xlink:title="ConstantNullSpace" target="_top">
<polygon fill="white" stroke="black" stroke-width="0.5" points="324,-426 223,-426 223,-407 324,-407 324,-426"/>
<text text-anchor="middle" x="273.5" y="-414" font-family="Vera Sans, DejaVu Sans, Liberation Sans, Arial, Helvetica, sans" font-size="10.00">ConstantNullSpace</text>
</a>
</g>
</g>
<!-- SolverNullSpace -->
<g id="node6" class="node">
<title>SolverNullSpace</title>
<g id="a_node6"><a xlink:href="../api/proteus.LinearSolvers.html#proteus.LinearSolvers.SolverNullSpace" xlink:title="SolverNullSpace" target="_top">
<polygon fill="white" stroke="black" stroke-width="0.5" points="124.5,-407 35.5,-407 35.5,-388 124.5,-388 124.5,-407"/>
<text text-anchor="middle" x="80" y="-395" font-family="Vera Sans, DejaVu Sans, Liberation Sans, Arial, Helvetica, sans" font-size="10.00">SolverNullSpace</text>
</a>
</g>
</g>
<!-- SolverNullSpace&#45;&gt;ConstantNullSpace -->
<g id="edge3" class="edge">
<title>SolverNullSpace&#45;&gt;ConstantNullSpace</title>
<path fill="none" stroke="black" stroke-width="0.5" d="M124.93,-401.86C152.49,-404.59 188.24,-408.14 217.66,-411.06"/>
<polygon fill="black" stroke="black" stroke-width="0.5" points="217.54,-412.81 222.69,-411.56 217.89,-409.32 217.54,-412.81"/>
</g>
<!-- NavierStokesConstantPressure -->
<g id="node20" class="node">
<title>NavierStokesConstantPressure</title>
<g id="a_node20"><a xlink:href="../api/proteus.LinearSolvers.html#proteus.LinearSolvers.NavierStokesConstantPressure" xlink:title="NavierStokesConstantPressure" target="_top">
<polygon fill="white" stroke="black" stroke-width="0.5" points="351,-389 196,-389 196,-370 351,-370 351,-389"/>
<text text-anchor="middle" x="273.5" y="-377" font-family="Vera Sans, DejaVu Sans, Liberation Sans, Arial, Helvetica, sans" font-size="10.00">NavierStokesConstantPressure</text>
</a>
</g>
</g>
<!-- SolverNullSpace&#45;&gt;NavierStokesConstantPressure -->
<g id="edge13" class="edge">
<title>SolverNullSpace&#45;&gt;NavierStokesConstantPressure</title>
<path fill="none" stroke="black" stroke-width="0.5" d="M124.93,-393.37C144.44,-391.54 168.05,-389.32 190.61,-387.2"/>
<polygon fill="black" stroke="black" stroke-width="0.5" points="190.9,-388.93 195.71,-386.72 190.57,-385.44 190.9,-388.93"/>
</g>
<!-- KSP_Preconditioner -->
<g id="node10" class="node">
<title>KSP_Preconditioner</title>
<g id="a_node10"><a xlink:href="../api/proteus.LinearSolvers.html#proteus.LinearSolvers.KSP_Preconditioner" xlink:title="Base class for PETSc KSP precondtioners." target="_top">
<polygon fill="white" stroke="black" stroke-width="0.5" points="132,-500 28,-500 28,-481 132,-481 132,-500"/>
<text text-anchor="middle" x="80" y="-488" font-family="Vera Sans, DejaVu Sans, Liberation Sans, Arial, Helvetica, sans" font-size="10.00">KSP_Preconditioner</text>
</a>
</g>
</g>
<!-- SchurPrecon -->
<g id="node22" class="node">
<title>SchurPrecon</title>
<g id="a_node22"><a xlink:href="../api/proteus.LinearSolvers.html#proteus.LinearSolvers.SchurPrecon" xlink:title="Base class for PETSc Schur complement preconditioners." target="_top">
<polygon fill="white" stroke="black" stroke-width="0.5" points="310,-537 237,-537 237,-518 310,-518 310,-537"/>
<text text-anchor="middle" x="273.5" y="-525" font-family="Vera Sans, DejaVu Sans, Liberation Sans, Arial, Helvetica, sans" font-size="10.00">SchurPrecon</text>
</a>
</g>
</g>
<!-- KSP_Preconditioner&#45;&gt;SchurPrecon -->
<g id="edge19" class="edge">
<title>KSP_Preconditioner&#45;&gt;SchurPrecon</title>
<path fill="none" stroke="black" stroke-width="0.5" d="M130.32,-500.03C161.85,-506.12 202.25,-513.93 231.92,-519.66"/>
<polygon fill="black" stroke="black" stroke-width="0.5" points="231.71,-521.4 236.96,-520.63 232.38,-517.97 231.71,-521.4"/>
</g>
<!-- petsc_ASM -->
<g id="node36" class="node">
<title>petsc_ASM</title>
<g id="a_node36"><a xlink:href="../api/proteus.LinearSolvers.html#proteus.LinearSolvers.petsc_ASM" xlink:title="ASM PETSc preconditioner class." target="_top">
<polygon fill="white" stroke="black" stroke-width="0.5" points="307.5,-500 239.5,-500 239.5,-481 307.5,-481 307.5,-500"/>
<text text-anchor="middle" x="273.5" y="-488" font-family="Vera Sans, DejaVu Sans, Liberation Sans, Arial, Helvetica, sans" font-size="10.00">petsc_ASM</text>
</a>
</g>
</g>
<!-- KSP_Preconditioner&#45;&gt;petsc_ASM -->
<g id="edge26" class="edge">
<title>KSP_Preconditioner&#45;&gt;petsc_ASM</title>
<path fill="none" stroke="black" stroke-width="0.5" d="M132.07,-490.5C164.09,-490.5 204.71,-490.5 234.01,-490.5"/>
<polygon fill="black" stroke="black" stroke-width="0.5" points="234.35,-492.25 239.35,-490.5 234.35,-488.75 234.35,-492.25"/>
</g>
<!-- petsc_LU -->
<g id="node37" class="node">
<title>petsc_LU</title>
<g id="a_node37"><a xlink:href="../api/proteus.LinearSolvers.html#proteus.LinearSolvers.petsc_LU" xlink:title="LU PETSc preconditioner class." target="_top">
<polygon fill="white" stroke="black" stroke-width="0.5" points="303,-463 244,-463 244,-444 303,-444 303,-463"/>
<text text-anchor="middle" x="273.5" y="-451" font-family="Vera Sans, DejaVu Sans, Liberation Sans, Arial, Helvetica, sans" font-size="10.00">petsc_LU</text>
</a>
</g>
</g>
<!-- KSP_Preconditioner&#45;&gt;petsc_LU -->
<g id="edge27" class="edge">
<title>KSP_Preconditioner&#45;&gt;petsc_LU</title>
<path fill="none" stroke="black" stroke-width="0.5" d="M130.32,-480.97C164.36,-474.39 208.75,-465.82 238.8,-460.01"/>
<polygon fill="black" stroke="black" stroke-width="0.5" points="239.29,-461.7 243.87,-459.03 238.63,-458.26 239.29,-461.7"/>
</g>
<!-- MGM -->
<g id="node13" class="node">
<title>MGM</title>
<g id="a_node13"><a xlink:href="../api/proteus.LinearSolvers.html#proteus.LinearSolvers.MGM" xlink:title="A generic multigrid W cycle." target="_top">
<polygon fill="white" stroke="black" stroke-width="0.5" points="300.5,-611 246.5,-611 246.5,-592 300.5,-592 300.5,-611"/>
<text text-anchor="middle" x="273.5" y="-599" font-family="Vera Sans, DejaVu Sans, Liberation Sans, Arial, Helvetica, sans" font-size="10.00">MGM</text>
</a>
</g>
</g>
<!-- MultilevelLinearSolver -->
<g id="node14" class="node">
<title>MultilevelLinearSolver</title>
<g id="a_node14"><a xlink:href="../api/proteus.LinearSolvers.html#proteus.LinearSolvers.MultilevelLinearSolver" xlink:title="A generic multilevel solver." target="_top">
<polygon fill="white" stroke="black" stroke-width="0.5" points="136,-583 24,-583 24,-564 136,-564 136,-583"/>
<text text-anchor="middle" x="80" y="-571" font-family="Vera Sans, DejaVu Sans, Liberation Sans, Arial, Helvetica, sans" font-size="10.00">MultilevelLinearSolver</text>
</a>
</g>
</g>
<!-- MultilevelLinearSolver&#45;&gt;MGM -->
<g id="edge9" class="edge">
<title>MultilevelLinearSolver&#45;&gt;MGM</title>
<path fill="none" stroke="black" stroke-width="0.5" d="M136.13,-581.56C170.25,-586.55 212.82,-592.77 241.23,-596.93"/>
<polygon fill="black" stroke="black" stroke-width="0.5" points="241.16,-598.69 246.36,-597.68 241.67,-595.22 241.16,-598.69"/>
</g>
<!-- NI -->
<g id="node16" class="node">
<title>NI</title>
<g id="a_node16"><a xlink:href="../api/proteus.LinearSolvers.html#proteus.LinearSolvers.NI" xlink:title="A generic nested iteration solver." target="_top">
<polygon fill="white" stroke="black" stroke-width="0.5" points="300.5,-574 246.5,-574 246.5,-555 300.5,-555 300.5,-574"/>
<text text-anchor="middle" x="273.5" y="-562" font-family="Vera Sans, DejaVu Sans, Liberation Sans, Arial, Helvetica, sans" font-size="10.00">NI</text>
</a>
</g>
</g>
<!-- MultilevelLinearSolver&#45;&gt;NI -->
<g id="edge10" class="edge">
<title>MultilevelLinearSolver&#45;&gt;NI</title>
<path fill="none" stroke="black" stroke-width="0.5" d="M136.13,-570.91C170.25,-569.31 212.82,-567.31 241.23,-565.97"/>
<polygon fill="black" stroke="black" stroke-width="0.5" points="241.45,-567.71 246.36,-565.73 241.29,-564.22 241.45,-567.71"/>
</g>
<!-- ModelInfo -->
<g id="node15" class="node">
<title>ModelInfo</title>
<g id="a_node15"><a xlink:href="../api/proteus.LinearSolvers.html#proteus.LinearSolvers.ModelInfo" xlink:title="This class stores the model information needed to initialize a" target="_top">
<polygon fill="white" stroke="black" stroke-width="0.5" points="109.5,-620 50.5,-620 50.5,-601 109.5,-601 109.5,-620"/>
<text text-anchor="middle" x="80" y="-608" font-family="Vera Sans, DejaVu Sans, Liberation Sans, Arial, Helvetica, sans" font-size="10.00">ModelInfo</text>
</a>
</g>
</g>
<!-- NavierStokes2D -->
<g id="node17" class="node">
<title>NavierStokes2D</title>
<g id="a_node17"><a xlink:href="../api/proteus.LinearSolvers.html#proteus.LinearSolvers.NavierStokes2D" xlink:title="NavierStokes2D" target="_top">
<polygon fill="white" stroke="black" stroke-width="0.5" points="643,-610 554,-610 554,-591 643,-591 643,-610"/>
<text text-anchor="middle" x="598.5" y="-598" font-family="Vera Sans, DejaVu Sans, Liberation Sans, Arial, Helvetica, sans" font-size="10.00">NavierStokes2D</text>
</a>
</g>
</g>
<!-- NavierStokesSchur -->
<g id="node18" class="node">
<title>NavierStokesSchur</title>
<g id="a_node18"><a xlink:href="../api/proteus.LinearSolvers.html#proteus.LinearSolvers.NavierStokesSchur" xlink:title="Schur complement preconditioners for Navier&#45;Stokes problems." target="_top">
<polygon fill="white" stroke="black" stroke-width="0.5" points="488,-555 387,-555 387,-536 488,-536 488,-555"/>
<text text-anchor="middle" x="437.5" y="-543" font-family="Vera Sans, DejaVu Sans, Liberation Sans, Arial, Helvetica, sans" font-size="10.00">NavierStokesSchur</text>
</a>
</g>
</g>
<!-- NavierStokesSchur&#45;&gt;NavierStokes2D -->
<g id="edge11" class="edge">
<title>NavierStokesSchur&#45;&gt;NavierStokes2D</title>
<path fill="none" stroke="black" stroke-width="0.5" d="M458.91,-555.09C476.03,-562.88 501.26,-573.82 524,-581.5 532.74,-584.45 542.21,-587.21 551.34,-589.66"/>
<polygon fill="black" stroke="black" stroke-width="0.5" points="551.09,-591.41 556.37,-590.99 551.98,-588.02 551.09,-591.41"/>
</g>
<!-- NavierStokes3D -->
<g id="node19" class="node">
<title>NavierStokes3D</title>
<g id="a_node19"><a xlink:href="../api/proteus.LinearSolvers.html#proteus.LinearSolvers.NavierStokes3D" xlink:title="NavierStokes3D" target="_top">
<polygon fill="white" stroke="black" stroke-width="0.5" points="643,-573 554,-573 554,-554 643,-554 643,-573"/>
<text text-anchor="middle" x="598.5" y="-561" font-family="Vera Sans, DejaVu Sans, Liberation Sans, Arial, Helvetica, sans" font-size="10.00">NavierStokes3D</text>
</a>
</g>
</g>
<!-- NavierStokesSchur&#45;&gt;NavierStokes3D -->
<g id="edge12" class="edge">
<title>NavierStokesSchur&#45;&gt;NavierStokes3D</title>
<path fill="none" stroke="black" stroke-width="0.5" d="M488.37,-551.15C507.6,-553.32 529.53,-555.81 548.66,-557.97"/>
<polygon fill="black" stroke="black" stroke-width="0.5" points="548.81,-559.75 553.98,-558.57 549.21,-556.27 548.81,-559.75"/>
</g>
<!-- NavierStokes_TwoPhasePCD -->
<g id="node23" class="node">
<title>NavierStokes_TwoPhasePCD</title>
<g id="a_node23"><a xlink:href="../api/proteus.LinearSolvers.html#proteus.LinearSolvers.NavierStokes_TwoPhasePCD" xlink:title="Two&#45;phase PCD Schur complement approximation class." target="_top">
<polygon fill="white" stroke="black" stroke-width="0.5" points="673,-536 524,-536 524,-517 673,-517 673,-536"/>
<text text-anchor="middle" x="598.5" y="-524" font-family="Vera Sans, DejaVu Sans, Liberation Sans, Arial, Helvetica, sans" font-size="10.00">NavierStokes_TwoPhasePCD</text>
</a>
</g>
</g>
<!-- NavierStokesSchur&#45;&gt;NavierStokes_TwoPhasePCD -->
<g id="edge16" class="edge">
<title>NavierStokesSchur&#45;&gt;NavierStokes_TwoPhasePCD</title>
<path fill="none" stroke="black" stroke-width="0.5" d="M488.37,-539.54C498.08,-538.38 508.47,-537.14 518.84,-535.9"/>
<polygon fill="black" stroke="black" stroke-width="0.5" points="519.17,-537.62 523.93,-535.29 518.76,-534.15 519.17,-537.62"/>
</g>
<!-- Schur_Sp -->
<g id="node30" class="node">
<title>Schur_Sp</title>
<g id="a_node30"><a xlink:href="../api/proteus.LinearSolvers.html#proteus.LinearSolvers.Schur_Sp" xlink:title="Implements the SIMPLE Schur complement approximation proposed" target="_top">
<polygon fill="white" stroke="black" stroke-width="0.5" points="628,-499 569,-499 569,-480 628,-480 628,-499"/>
<text text-anchor="middle" x="598.5" y="-487" font-family="Vera Sans, DejaVu Sans, Liberation Sans, Arial, Helvetica, sans" font-size="10.00">Schur_Sp</text>
</a>
</g>
</g>
<!-- NavierStokesSchur&#45;&gt;Schur_Sp -->
<g id="edge22" class="edge">
<title>NavierStokesSchur&#45;&gt;Schur_Sp</title>
<path fill="none" stroke="black" stroke-width="0.5" d="M465.2,-535.92C472.65,-533.06 480.71,-529.81 488,-526.5 504.47,-519.02 507.09,-513.92 524,-507.5 536.69,-502.68 551.1,-498.82 563.78,-495.93"/>
<polygon fill="black" stroke="black" stroke-width="0.5" points="564.23,-497.62 568.73,-494.83 563.47,-494.21 564.23,-497.62"/>
</g>
<!-- NavierStokesPressureCorrection -->
<g id="node21" class="node">
<title>NavierStokesPressureCorrection</title>
<g id="a_node21"><a xlink:href="../api/proteus.LinearSolvers.html#proteus.LinearSolvers.NavierStokesPressureCorrection" xlink:title="NavierStokesPressureCorrection" target="_top">
<polygon fill="white" stroke="black" stroke-width="0.5" points="160,-657 0,-657 0,-638 160,-638 160,-657"/>
<text text-anchor="middle" x="80" y="-645" font-family="Vera Sans, DejaVu Sans, Liberation Sans, Arial, Helvetica, sans" font-size="10.00">NavierStokesPressureCorrection</text>
</a>
</g>
</g>
<!-- SchurPrecon&#45;&gt;NavierStokesSchur -->
<g id="edge14" class="edge">
<title>SchurPrecon&#45;&gt;NavierStokesSchur</title>
<path fill="none" stroke="black" stroke-width="0.5" d="M310.05,-525.75C335.55,-527.26 369.93,-531.01 396.4,-535.13"/>
<polygon fill="black" stroke="black" stroke-width="0.5" points="396.37,-536.89 401.59,-535.96 396.93,-533.44 396.37,-536.89"/>
</g>
<!-- SchurPrecon&#45;&gt;NavierStokesSchur -->
<g id="edge15" class="edge">
<title>SchurPrecon&#45;&gt;NavierStokesSchur</title>
<path fill="none" stroke="black" stroke-width="0.5" d="M309.25,-537.02C330.34,-540.49 357.73,-543.79 381.69,-545.84"/>
<polygon fill="black" stroke="black" stroke-width="0.5" points="381.62,-547.59 386.74,-546.25 381.9,-544.1 381.62,-547.59"/>
</g>
<!-- Schur_LSC -->
<g id="node28" class="node">
<title>Schur_LSC</title>
<g id="a_node28"><a xlink:href="../api/proteus.LinearSolvers.html#proteus.LinearSolvers.Schur_LSC" xlink:title="The Least&#45;Squares Communtator preconditioner for saddle" target="_top">
<polygon fill="white" stroke="black" stroke-width="0.5" points="471,-518 404,-518 404,-499 471,-499 471,-518"/>
<text text-anchor="middle" x="437.5" y="-506" font-family="Vera Sans, DejaVu Sans, Liberation Sans, Arial, Helvetica, sans" font-size="10.00">Schur_LSC</text>
</a>
</g>
</g>
<!-- SchurPrecon&#45;&gt;Schur_LSC -->
<g id="edge20" class="edge">
<title>SchurPrecon&#45;&gt;Schur_LSC</title>
<path fill="none" stroke="black" stroke-width="0.5" d="M310.05,-523.33C336.25,-520.26 371.82,-516.09 398.56,-512.95"/>
<polygon fill="black" stroke="black" stroke-width="0.5" points="399.02,-514.66 403.79,-512.34 398.62,-511.18 399.02,-514.66"/>
</g>
<!-- Schur_Qp -->
<g id="node29" class="node">
<title>Schur_Qp</title>
<g id="a_node29"><a xlink:href="../api/proteus.LinearSolvers.html#proteus.LinearSolvers.Schur_Qp" xlink:title="A Navier&#45;Stokes (or Stokes) preconditioner which uses the" target="_top">
<polygon fill="white" stroke="black" stroke-width="0.5" points="467.5,-481 407.5,-481 407.5,-462 467.5,-462 467.5,-481"/>
<text text-anchor="middle" x="437.5" y="-469" font-family="Vera Sans, DejaVu Sans, Liberation Sans, Arial, Helvetica, sans" font-size="10.00">Schur_Qp</text>
</a>
</g>
</g>
<!-- SchurPrecon&#45;&gt;Schur_Qp -->
<g id="edge21" class="edge">
<title>SchurPrecon&#45;&gt;Schur_Qp</title>
<path fill="none" stroke="black" stroke-width="0.5" d="M310.09,-520.55C323.17,-517.5 337.96,-513.48 351,-508.5 367.9,-502.05 370.46,-496.83 387,-489.5 392.18,-487.2 397.76,-484.96 403.24,-482.88"/>
<polygon fill="black" stroke="black" stroke-width="0.5" points="404.15,-484.41 408.22,-481.03 402.93,-481.13 404.15,-484.41"/>
</g>
<!-- OperatorConstructor -->
<g id="node24" class="node">
<title>OperatorConstructor</title>
<g id="a_node24"><a xlink:href="../api/proteus.LinearSolvers.html#proteus.LinearSolvers.OperatorConstructor" xlink:title="Base class for operator constructors." target="_top">
<polygon fill="white" stroke="black" stroke-width="0.5" points="132.5,-694 27.5,-694 27.5,-675 132.5,-675 132.5,-694"/>
<text text-anchor="middle" x="80" y="-682" font-family="Vera Sans, DejaVu Sans, Liberation Sans, Arial, Helvetica, sans" font-size="10.00">OperatorConstructor</text>
</a>
</g>
</g>
<!-- OperatorConstructor_oneLevel -->
<g id="node25" class="node">
<title>OperatorConstructor_oneLevel</title>
<g id="a_node25"><a xlink:href="../api/proteus.LinearSolvers.html#proteus.LinearSolvers.OperatorConstructor_oneLevel" xlink:title="A class for building common discrete operators from one&#45;level" target="_top">
<polygon fill="white" stroke="black" stroke-width="0.5" points="348,-703 199,-703 199,-684 348,-684 348,-703"/>
<text text-anchor="middle" x="273.5" y="-691" font-family="Vera Sans, DejaVu Sans, Liberation Sans, Arial, Helvetica, sans" font-size="10.00">OperatorConstructor_oneLevel</text>
</a>
</g>
</g>
<!-- OperatorConstructor&#45;&gt;OperatorConstructor_oneLevel -->
<g id="edge17" class="edge">
<title>OperatorConstructor&#45;&gt;OperatorConstructor_oneLevel</title>
<path fill="none" stroke="black" stroke-width="0.5" d="M132.57,-686.92C151.36,-687.81 173.06,-688.83 193.68,-689.8"/>
<polygon fill="black" stroke="black" stroke-width="0.5" points="193.82,-691.55 198.89,-690.04 193.98,-688.06 193.82,-691.55"/>
</g>
<!-- OperatorConstructor_rans2p -->
<g id="node26" class="node">
<title>OperatorConstructor_rans2p</title>
<g id="a_node26"><a xlink:href="../api/proteus.LinearSolvers.html#proteus.LinearSolvers.OperatorConstructor_rans2p" xlink:title="A class for building common discrete rans2p operators." target="_top">
<polygon fill="white" stroke="black" stroke-width="0.5" points="343.5,-666 203.5,-666 203.5,-647 343.5,-647 343.5,-666"/>
<text text-anchor="middle" x="273.5" y="-654" font-family="Vera Sans, DejaVu Sans, Liberation Sans, Arial, Helvetica, sans" font-size="10.00">OperatorConstructor_rans2p</text>
</a>
</g>
</g>
<!-- OperatorConstructor&#45;&gt;OperatorConstructor_rans2p -->
<g id="edge18" class="edge">
<title>OperatorConstructor&#45;&gt;OperatorConstructor_rans2p</title>
<path fill="none" stroke="black" stroke-width="0.5" d="M132.57,-676.96C153.99,-673.83 179.19,-670.14 202.26,-666.77"/>
<polygon fill="black" stroke="black" stroke-width="0.5" points="202.76,-668.47 207.46,-666.01 202.26,-665 202.76,-668.47"/>
</g>
<!-- SchurOperatorConstructor -->
<g id="node27" class="node">
<title>SchurOperatorConstructor</title>
<g id="a_node27"><a xlink:href="../api/proteus.LinearSolvers.html#proteus.LinearSolvers.SchurOperatorConstructor" xlink:title="Generate matrices for use in Schur complement preconditioner operators." target="_top">
<polygon fill="white" stroke="black" stroke-width="0.5" points="145.5,-731 14.5,-731 14.5,-712 145.5,-712 145.5,-731"/>
<text text-anchor="middle" x="80" y="-719" font-family="Vera Sans, DejaVu Sans, Liberation Sans, Arial, Helvetica, sans" font-size="10.00">SchurOperatorConstructor</text>
</a>
</g>
</g>
<!-- SimpleDarcyFC -->
<g id="node31" class="node">
<title>SimpleDarcyFC</title>
<g id="a_node31"><a xlink:href="../api/proteus.LinearSolvers.html#proteus.LinearSolvers.SimpleDarcyFC" xlink:title="SimpleDarcyFC" target="_top">
<polygon fill="white" stroke="black" stroke-width="0.5" points="123,-768 37,-768 37,-749 123,-749 123,-768"/>
<text text-anchor="middle" x="80" y="-756" font-family="Vera Sans, DejaVu Sans, Liberation Sans, Arial, Helvetica, sans" font-size="10.00">SimpleDarcyFC</text>
</a>
</g>
</g>
<!-- StorageSet -->
<g id="node34" class="node">
<title>StorageSet</title>
<g id="a_node34"><a xlink:href="../api/proteus.LinearSolvers.html#proteus.LinearSolvers.StorageSet" xlink:title="StorageSet" target="_top">
<polygon fill="white" stroke="black" stroke-width="0.5" points="112.5,-805 47.5,-805 47.5,-786 112.5,-786 112.5,-805"/>
<text text-anchor="middle" x="80" y="-793" font-family="Vera Sans, DejaVu Sans, Liberation Sans, Arial, Helvetica, sans" font-size="10.00">StorageSet</text>
</a>
</g>
</g>
</g>
</svg>
