<?xml version="1.0" encoding="UTF-8" standalone="no"?>
<!DOCTYPE svg PUBLIC "-//W3C//DTD SVG 1.1//EN"
 "http://www.w3.org/Graphics/SVG/1.1/DTD/svg11.dtd">
<!-- Generated by graphviz version 2.44.1 (20200629.0846)
 -->
<!-- Title: inheritance56adf9a4e7 Pages: 1 -->
<svg width="434pt" height="360pt"
 viewBox="0.00 0.00 434.00 360.00" xmlns="http://www.w3.org/2000/svg" xmlns:xlink="http://www.w3.org/1999/xlink">
<g id="graph0" class="graph" transform="scale(1 1) rotate(0) translate(4 356)">
<title>inheritance56adf9a4e7</title>
<!-- FLCBDF_controller -->
<g id="node1" class="node">
<title>FLCBDF_controller</title>
<g id="a_node1"><a xlink:href="../api/proteus.StepControl.html#proteus.StepControl.FLCBDF_controller" xlink:title="FLCBDF_controller" target="_top">
<polygon fill="white" stroke="black" stroke-width="0.5" points="231,-352 130,-352 130,-333 231,-333 231,-352"/>
<text text-anchor="middle" x="180.5" y="-340" font-family="Vera Sans, DejaVu Sans, Liberation Sans, Arial, Helvetica, sans" font-size="10.00">FLCBDF_controller</text>
</a>
</g>
</g>
<!-- FLCBDF_controller_sys -->
<g id="node3" class="node">
<title>FLCBDF_controller_sys</title>
<g id="a_node3"><a xlink:href="../api/proteus.StepControl.html#proteus.StepControl.FLCBDF_controller_sys" xlink:title="FLCBDF_controller_sys" target="_top">
<polygon fill="white" stroke="black" stroke-width="0.5" points="426,-352 304,-352 304,-333 426,-333 426,-352"/>
<text text-anchor="middle" x="365" y="-340" font-family="Vera Sans, DejaVu Sans, Liberation Sans, Arial, Helvetica, sans" font-size="10.00">FLCBDF_controller_sys</text>
</a>
</g>
</g>
<!-- FLCBDF_controller&#45;&gt;FLCBDF_controller_sys -->
<g id="edge2" class="edge">
<title>FLCBDF_controller&#45;&gt;FLCBDF_controller_sys</title>
<path fill="none" stroke="black" stroke-width="0.5" d="M231.37,-342.5C252.08,-342.5 276.4,-342.5 298.53,-342.5"/>
<polygon fill="black" stroke="black" stroke-width="0.5" points="298.8,-344.25 303.8,-342.5 298.8,-340.75 298.8,-344.25"/>
</g>
<!-- SC_base -->
<g id="node2" class="node">
<title>SC_base</title>
<g id="a_node2"><a xlink:href="../api/proteus.StepControl.html#proteus.StepControl.SC_base" xlink:title="A simple fixed time stepping controller with no error/stability" target="_top">
<polygon fill="white" stroke="black" stroke-width="0.5" points="57,-185 0,-185 0,-166 57,-166 57,-185"/>
<text text-anchor="middle" x="28.5" y="-173" font-family="Vera Sans, DejaVu Sans, Liberation Sans, Arial, Helvetica, sans" font-size="10.00">SC_base</text>
</a>
</g>
</g>
<!-- SC_base&#45;&gt;FLCBDF_controller -->
<g id="edge1" class="edge">
<title>SC_base&#45;&gt;FLCBDF_controller</title>
<path fill="none" stroke="black" stroke-width="0.5" d="M30.59,-185.34C34.12,-212.23 47.76,-287.43 93,-324.5 102.03,-331.9 113.34,-336.49 124.77,-339.29"/>
<polygon fill="black" stroke="black" stroke-width="0.5" points="124.41,-341 129.67,-340.38 125.18,-337.59 124.41,-341"/>
</g>
<!-- GustafssonFullNewton_dt_controller -->
<g id="node4" class="node">
<title>GustafssonFullNewton_dt_controller</title>
<g id="a_node4"><a xlink:href="../api/proteus.StepControl.html#proteus.StepControl.GustafssonFullNewton_dt_controller" xlink:title="Try version of basic Gustafsson and Soederlind 97 time step selection strategy" target="_top">
<polygon fill="white" stroke="black" stroke-width="0.5" points="268,-315 93,-315 93,-296 268,-296 268,-315"/>
<text text-anchor="middle" x="180.5" y="-303" font-family="Vera Sans, DejaVu Sans, Liberation Sans, Arial, Helvetica, sans" font-size="10.00">GustafssonFullNewton_dt_controller</text>
</a>
</g>
</g>
<!-- SC_base&#45;&gt;GustafssonFullNewton_dt_controller -->
<g id="edge3" class="edge">
<title>SC_base&#45;&gt;GustafssonFullNewton_dt_controller</title>
<path fill="none" stroke="black" stroke-width="0.5" d="M32.01,-185.12C38.26,-207.08 56.7,-261.03 93,-287.5 96.15,-289.8 99.53,-291.82 103.06,-293.59"/>
<polygon fill="black" stroke="black" stroke-width="0.5" points="102.69,-295.35 107.97,-295.86 104.16,-292.17 102.69,-295.35"/>
</g>
<!-- HeuristicNL_dt_controller -->
<g id="node5" class="node">
<title>HeuristicNL_dt_controller</title>
<g id="a_node5"><a xlink:href="../api/proteus.StepControl.html#proteus.StepControl.HeuristicNL_dt_controller" xlink:title="Classical Heuristic step controller that picks time step based on threshholds in nonlinear" target="_top">
<polygon fill="white" stroke="black" stroke-width="0.5" points="244,-278 117,-278 117,-259 244,-259 244,-278"/>
<text text-anchor="middle" x="180.5" y="-266" font-family="Vera Sans, DejaVu Sans, Liberation Sans, Arial, Helvetica, sans" font-size="10.00">HeuristicNL_dt_controller</text>
</a>
</g>
</g>
<!-- SC_base&#45;&gt;HeuristicNL_dt_controller -->
<g id="edge4" class="edge">
<title>SC_base&#45;&gt;HeuristicNL_dt_controller</title>
<path fill="none" stroke="black" stroke-width="0.5" d="M34.73,-185.09C44.11,-201.34 65.44,-234.1 93,-250.5 98.78,-253.94 105.11,-256.73 111.64,-258.99"/>
<polygon fill="black" stroke="black" stroke-width="0.5" points="111.38,-260.74 116.67,-260.61 112.45,-257.41 111.38,-260.74"/>
</g>
<!-- Min_dt_RKcontroller -->
<g id="node6" class="node">
<title>Min_dt_RKcontroller</title>
<g id="a_node6"><a xlink:href="../api/proteus.StepControl.html#proteus.StepControl.Min_dt_RKcontroller" xlink:title="Min_dt_RKcontroller" target="_top">
<polygon fill="white" stroke="black" stroke-width="0.5" points="233,-241 128,-241 128,-222 233,-222 233,-241"/>
<text text-anchor="middle" x="180.5" y="-229" font-family="Vera Sans, DejaVu Sans, Liberation Sans, Arial, Helvetica, sans" font-size="10.00">Min_dt_RKcontroller</text>
</a>
</g>
</g>
<!-- SC_base&#45;&gt;Min_dt_RKcontroller -->
<g id="edge5" class="edge">
<title>SC_base&#45;&gt;Min_dt_RKcontroller</title>
<path fill="none" stroke="black" stroke-width="0.5" d="M42.45,-185.03C54.83,-193.69 74.33,-206.21 93,-213.5 102.46,-217.19 112.8,-220.18 122.95,-222.58"/>
<polygon fill="black" stroke="black" stroke-width="0.5" points="122.64,-224.3 127.91,-223.71 123.42,-220.89 122.64,-224.3"/>
</g>
<!-- Min_dt_controller -->
<g id="node8" class="node">
<title>Min_dt_controller</title>
<g id="a_node8"><a xlink:href="../api/proteus.StepControl.html#proteus.StepControl.Min_dt_controller" xlink:title="Min_dt_controller" target="_top">
<polygon fill="white" stroke="black" stroke-width="0.5" points="226,-204 135,-204 135,-185 226,-185 226,-204"/>
<text text-anchor="middle" x="180.5" y="-192" font-family="Vera Sans, DejaVu Sans, Liberation Sans, Arial, Helvetica, sans" font-size="10.00">Min_dt_controller</text>
</a>
</g>
</g>
<!-- SC_base&#45;&gt;Min_dt_controller -->
<g id="edge7" class="edge">
<title>SC_base&#45;&gt;Min_dt_controller</title>
<path fill="none" stroke="black" stroke-width="0.5" d="M57.01,-178.98C77.31,-181.56 105.48,-185.12 129.69,-188.19"/>
<polygon fill="black" stroke="black" stroke-width="0.5" points="129.61,-189.94 134.79,-188.84 130.05,-186.47 129.61,-189.94"/>
</g>
<!-- Newton_controller -->
<g id="node10" class="node">
<title>Newton_controller</title>
<g id="a_node10"><a xlink:href="../api/proteus.StepControl.html#proteus.StepControl.Newton_controller" xlink:title="Same as SC_base but since there is no dt we have not &#160;way to retry" target="_top">
<polygon fill="white" stroke="black" stroke-width="0.5" points="228,-167 133,-167 133,-148 228,-148 228,-167"/>
<text text-anchor="middle" x="180.5" y="-155" font-family="Vera Sans, DejaVu Sans, Liberation Sans, Arial, Helvetica, sans" font-size="10.00">Newton_controller</text>
</a>
</g>
</g>
<!-- SC_base&#45;&gt;Newton_controller -->
<g id="edge9" class="edge">
<title>SC_base&#45;&gt;Newton_controller</title>
<path fill="none" stroke="black" stroke-width="0.5" d="M57.01,-172.2C76.75,-169.83 103.95,-166.57 127.7,-163.72"/>
<polygon fill="black" stroke="black" stroke-width="0.5" points="127.96,-165.45 132.71,-163.11 127.54,-161.97 127.96,-165.45"/>
</g>
<!-- Osher_PsiTC_controller -->
<g id="node11" class="node">
<title>Osher_PsiTC_controller</title>
<g id="a_node11"><a xlink:href="../api/proteus.StepControl.html#proteus.StepControl.Osher_PsiTC_controller" xlink:title="Osher_PsiTC_controller" target="_top">
<polygon fill="white" stroke="black" stroke-width="0.5" points="241,-130 120,-130 120,-111 241,-111 241,-130"/>
<text text-anchor="middle" x="180.5" y="-118" font-family="Vera Sans, DejaVu Sans, Liberation Sans, Arial, Helvetica, sans" font-size="10.00">Osher_PsiTC_controller</text>
</a>
</g>
</g>
<!-- SC_base&#45;&gt;Osher_PsiTC_controller -->
<g id="edge10" class="edge">
<title>SC_base&#45;&gt;Osher_PsiTC_controller</title>
<path fill="none" stroke="black" stroke-width="0.5" d="M43.52,-165.92C56,-157.79 75.01,-146.39 93,-139.5 101.36,-136.3 110.39,-133.57 119.35,-131.26"/>
<polygon fill="black" stroke="black" stroke-width="0.5" points="119.89,-132.93 124.32,-130.03 119.05,-129.54 119.89,-132.93"/>
</g>
<!-- Osher_PsiTC_controller2 -->
<g id="node12" class="node">
<title>Osher_PsiTC_controller2</title>
<g id="a_node12"><a xlink:href="../api/proteus.StepControl.html#proteus.StepControl.Osher_PsiTC_controller2" xlink:title="Osher_PsiTC_controller2" target="_top">
<polygon fill="white" stroke="black" stroke-width="0.5" points="243.5,-93 117.5,-93 117.5,-74 243.5,-74 243.5,-93"/>
<text text-anchor="middle" x="180.5" y="-81" font-family="Vera Sans, DejaVu Sans, Liberation Sans, Arial, Helvetica, sans" font-size="10.00">Osher_PsiTC_controller2</text>
</a>
</g>
</g>
<!-- SC_base&#45;&gt;Osher_PsiTC_controller2 -->
<g id="edge11" class="edge">
<title>SC_base&#45;&gt;Osher_PsiTC_controller2</title>
<path fill="none" stroke="black" stroke-width="0.5" d="M34.97,-165.94C44.56,-150.09 65.99,-118.53 93,-102.5 98.9,-99 105.37,-96.14 112.04,-93.81"/>
<polygon fill="black" stroke="black" stroke-width="0.5" points="112.96,-95.35 117.16,-92.12 111.87,-92.02 112.96,-95.35"/>
</g>
<!-- Osher_controller -->
<g id="node13" class="node">
<title>Osher_controller</title>
<g id="a_node13"><a xlink:href="../api/proteus.StepControl.html#proteus.StepControl.Osher_controller" xlink:title="Osher_controller" target="_top">
<polygon fill="white" stroke="black" stroke-width="0.5" points="224.5,-56 136.5,-56 136.5,-37 224.5,-37 224.5,-56"/>
<text text-anchor="middle" x="180.5" y="-44" font-family="Vera Sans, DejaVu Sans, Liberation Sans, Arial, Helvetica, sans" font-size="10.00">Osher_controller</text>
</a>
</g>
</g>
<!-- SC_base&#45;&gt;Osher_controller -->
<g id="edge12" class="edge">
<title>SC_base&#45;&gt;Osher_controller</title>
<path fill="none" stroke="black" stroke-width="0.5" d="M32.18,-165.75C38.67,-144.03 57.41,-91.54 93,-65.5 103.95,-57.48 117.64,-52.74 130.87,-49.96"/>
<polygon fill="black" stroke="black" stroke-width="0.5" points="131.53,-51.61 136.11,-48.95 130.87,-48.18 131.53,-51.61"/>
</g>
<!-- PsiTCtte_controller -->
<g id="node14" class="node">
<title>PsiTCtte_controller</title>
<g id="a_node14"><a xlink:href="../api/proteus.StepControl.html#proteus.StepControl.PsiTCtte_controller" xlink:title="PsiTCtte_controller" target="_top">
<polygon fill="white" stroke="black" stroke-width="0.5" points="231,-19 130,-19 130,0 231,0 231,-19"/>
<text text-anchor="middle" x="180.5" y="-7" font-family="Vera Sans, DejaVu Sans, Liberation Sans, Arial, Helvetica, sans" font-size="10.00">PsiTCtte_controller</text>
</a>
</g>
</g>
<!-- SC_base&#45;&gt;PsiTCtte_controller -->
<g id="edge13" class="edge">
<title>SC_base&#45;&gt;PsiTCtte_controller</title>
<path fill="none" stroke="black" stroke-width="0.5" d="M30.61,-165.72C34.2,-139.01 47.98,-64.31 93,-27.5 102.04,-20.11 113.35,-15.52 124.79,-12.73"/>
<polygon fill="black" stroke="black" stroke-width="0.5" points="125.19,-14.43 129.69,-11.63 124.43,-11.01 125.19,-14.43"/>
</g>
<!-- Min_dt_cfl_controller -->
<g id="node7" class="node">
<title>Min_dt_cfl_controller</title>
<g id="a_node7"><a xlink:href="../api/proteus.StepControl.html#proteus.StepControl.Min_dt_cfl_controller" xlink:title="Min_dt_cfl_controller" target="_top">
<polygon fill="white" stroke="black" stroke-width="0.5" points="418.5,-223 311.5,-223 311.5,-204 418.5,-204 418.5,-223"/>
<text text-anchor="middle" x="365" y="-211" font-family="Vera Sans, DejaVu Sans, Liberation Sans, Arial, Helvetica, sans" font-size="10.00">Min_dt_cfl_controller</text>
</a>
</g>
</g>
<!-- Min_dt_controller&#45;&gt;Min_dt_cfl_controller -->
<g id="edge6" class="edge">
<title>Min_dt_controller&#45;&gt;Min_dt_cfl_controller</title>
<path fill="none" stroke="black" stroke-width="0.5" d="M226.14,-199.15C250.28,-201.66 280.37,-204.79 306.27,-207.49"/>
<polygon fill="black" stroke="black" stroke-width="0.5" points="306.24,-209.25 311.39,-208.02 306.6,-205.76 306.24,-209.25"/>
</g>
<!-- Min_dt_controller_FCT -->
<g id="node9" class="node">
<title>Min_dt_controller_FCT</title>
<g id="a_node9"><a xlink:href="../api/proteus.StepControl.html#proteus.StepControl.Min_dt_controller_FCT" xlink:title="controller try and implement a piece of FCT methodology where first step is" target="_top">
<polygon fill="white" stroke="black" stroke-width="0.5" points="423,-186 307,-186 307,-167 423,-167 423,-186"/>
<text text-anchor="middle" x="365" y="-174" font-family="Vera Sans, DejaVu Sans, Liberation Sans, Arial, Helvetica, sans" font-size="10.00">Min_dt_controller_FCT</text>
</a>
</g>
</g>
<!-- Min_dt_controller&#45;&gt;Min_dt_controller_FCT -->
<g id="edge8" class="edge">
<title>Min_dt_controller&#45;&gt;Min_dt_controller_FCT</title>
<path fill="none" stroke="black" stroke-width="0.5" d="M226.14,-190.1C248.8,-187.86 276.7,-185.11 301.46,-182.67"/>
<polygon fill="black" stroke="black" stroke-width="0.5" points="301.89,-184.38 306.7,-182.15 301.55,-180.9 301.89,-184.38"/>
</g>
</g>
</svg>
