<?xml version="1.0" encoding="UTF-8" standalone="no"?>
<!DOCTYPE svg PUBLIC "-//W3C//DTD SVG 1.1//EN"
 "http://www.w3.org/Graphics/SVG/1.1/DTD/svg11.dtd">
<!-- Generated by graphviz version 2.44.1 (20200629.0846)
 -->
<!-- Title: inheritance0624bf74da Pages: 1 -->
<svg width="570pt" height="508pt"
 viewBox="0.00 0.00 570.00 508.00" xmlns="http://www.w3.org/2000/svg" xmlns:xlink="http://www.w3.org/1999/xlink">
<g id="graph0" class="graph" transform="scale(1 1) rotate(0) translate(4 504)">
<title>inheritance0624bf74da</title>
<!-- AddedMassNewton -->
<g id="node1" class="node">
<title>AddedMassNewton</title>
<g id="a_node1"><a xlink:href="../api/proteus.NonlinearSolvers.html#proteus.NonlinearSolvers.AddedMassNewton" xlink:title="AddedMassNewton" target="_top">
<polygon fill="white" stroke="black" stroke-width="0.5" points="474,-500 372,-500 372,-481 474,-481 474,-500"/>
<text text-anchor="middle" x="423" y="-488" font-family="Vera Sans, DejaVu Sans, Liberation Sans, Arial, Helvetica, sans" font-size="10.00">AddedMassNewton</text>
</a>
</g>
</g>
<!-- Newton -->
<g id="node2" class="node">
<title>Newton</title>
<g id="a_node2"><a xlink:href="../api/proteus.NonlinearSolvers.html#proteus.NonlinearSolvers.Newton" xlink:title="A simple iterative solver that is Newton&#39;s method" target="_top">
<polygon fill="white" stroke="black" stroke-width="0.5" points="232.5,-259 178.5,-259 178.5,-240 232.5,-240 232.5,-259"/>
<text text-anchor="middle" x="205.5" y="-247" font-family="Vera Sans, DejaVu Sans, Liberation Sans, Arial, Helvetica, sans" font-size="10.00">Newton</text>
</a>
</g>
</g>
<!-- Newton&#45;&gt;AddedMassNewton -->
<g id="edge1" class="edge">
<title>Newton&#45;&gt;AddedMassNewton</title>
<path fill="none" stroke="black" stroke-width="0.5" d="M232.88,-256.98C238.62,-259.75 244.12,-263.48 248,-268.5 304.31,-341.34 217.45,-408.88 284,-472.5 305.54,-493.09 338.35,-498.02 366.58,-497.6"/>
<polygon fill="black" stroke="black" stroke-width="0.5" points="366.84,-499.34 371.79,-497.46 366.74,-495.84 366.84,-499.34"/>
</g>
<!-- CLSVOFNewton -->
<g id="node3" class="node">
<title>CLSVOFNewton</title>
<g id="a_node3"><a xlink:href="../api/proteus.NonlinearSolvers.html#proteus.NonlinearSolvers.CLSVOFNewton" xlink:title="CLSVOFNewton" target="_top">
<polygon fill="white" stroke="black" stroke-width="0.5" points="468,-463 378,-463 378,-444 468,-444 468,-463"/>
<text text-anchor="middle" x="423" y="-451" font-family="Vera Sans, DejaVu Sans, Liberation Sans, Arial, Helvetica, sans" font-size="10.00">CLSVOFNewton</text>
</a>
</g>
</g>
<!-- Newton&#45;&gt;CLSVOFNewton -->
<g id="edge2" class="edge">
<title>Newton&#45;&gt;CLSVOFNewton</title>
<path fill="none" stroke="black" stroke-width="0.5" d="M232.74,-257.09C238.49,-259.85 244.03,-263.56 248,-268.5 295.56,-327.69 228.14,-384.07 284,-435.5 307.44,-457.08 343.35,-461.2 372.66,-460.13"/>
<polygon fill="black" stroke="black" stroke-width="0.5" points="372.77,-461.88 377.68,-459.89 372.6,-458.38 372.77,-461.88"/>
</g>
<!-- ExplicitConsistentMassMatrixForVOF -->
<g id="node4" class="node">
<title>ExplicitConsistentMassMatrixForVOF</title>
<g id="a_node4"><a xlink:href="../api/proteus.NonlinearSolvers.html#proteus.NonlinearSolvers.ExplicitConsistentMassMatrixForVOF" xlink:title="This is a fake solver meant to be used with optimized code" target="_top">
<polygon fill="white" stroke="black" stroke-width="0.5" points="514,-426 332,-426 332,-407 514,-407 514,-426"/>
<text text-anchor="middle" x="423" y="-414" font-family="Vera Sans, DejaVu Sans, Liberation Sans, Arial, Helvetica, sans" font-size="10.00">ExplicitConsistentMassMatrixForVOF</text>
</a>
</g>
</g>
<!-- Newton&#45;&gt;ExplicitConsistentMassMatrixForVOF -->
<g id="edge3" class="edge">
<title>Newton&#45;&gt;ExplicitConsistentMassMatrixForVOF</title>
<path fill="none" stroke="black" stroke-width="0.5" d="M232.54,-257.25C238.29,-260.01 243.89,-263.68 248,-268.5 286.89,-314.13 238.74,-359.19 284,-398.5 295.96,-408.89 310.86,-415.14 326.39,-418.69"/>
<polygon fill="black" stroke="black" stroke-width="0.5" points="326.43,-420.48 331.68,-419.79 327.14,-417.05 326.43,-420.48"/>
</g>
<!-- ExplicitConsistentMassMatrixShallowWaterEquationsSolver -->
<g id="node5" class="node">
<title>ExplicitConsistentMassMatrixShallowWaterEquationsSolver</title>
<g id="a_node5"><a xlink:href="../api/proteus.NonlinearSolvers.html#proteus.NonlinearSolvers.ExplicitConsistentMassMatrixShallowWaterEquationsSolver" xlink:title="This is a fake solver meant to be used with optimized code" target="_top">
<polygon fill="white" stroke="black" stroke-width="0.5" points="562,-389 284,-389 284,-370 562,-370 562,-389"/>
<text text-anchor="middle" x="423" y="-377" font-family="Vera Sans, DejaVu Sans, Liberation Sans, Arial, Helvetica, sans" font-size="10.00">ExplicitConsistentMassMatrixShallowWaterEquationsSolver</text>
</a>
</g>
</g>
<!-- Newton&#45;&gt;ExplicitConsistentMassMatrixShallowWaterEquationsSolver -->
<g id="edge4" class="edge">
<title>Newton&#45;&gt;ExplicitConsistentMassMatrixShallowWaterEquationsSolver</title>
<path fill="none" stroke="black" stroke-width="0.5" d="M232.64,-257.76C238.25,-260.48 243.76,-264 248,-268.5 278.39,-300.77 249.14,-334.13 284,-361.5 286.68,-363.61 289.49,-365.53 292.39,-367.3"/>
<polygon fill="black" stroke="black" stroke-width="0.5" points="291.83,-368.99 297.04,-369.93 293.56,-365.94 291.83,-368.99"/>
</g>
<!-- ExplicitConsistentMassMatrixWithRedistancing -->
<g id="node6" class="node">
<title>ExplicitConsistentMassMatrixWithRedistancing</title>
<g id="a_node6"><a xlink:href="../api/proteus.NonlinearSolvers.html#proteus.NonlinearSolvers.ExplicitConsistentMassMatrixWithRedistancing" xlink:title="This is a fake solver meant to be used with optimized code" target="_top">
<polygon fill="white" stroke="black" stroke-width="0.5" points="535,-352 311,-352 311,-333 535,-333 535,-352"/>
<text text-anchor="middle" x="423" y="-340" font-family="Vera Sans, DejaVu Sans, Liberation Sans, Arial, Helvetica, sans" font-size="10.00">ExplicitConsistentMassMatrixWithRedistancing</text>
</a>
</g>
</g>
<!-- Newton&#45;&gt;ExplicitConsistentMassMatrixWithRedistancing -->
<g id="edge5" class="edge">
<title>Newton&#45;&gt;ExplicitConsistentMassMatrixWithRedistancing</title>
<path fill="none" stroke="black" stroke-width="0.5" d="M232.88,-258.83C238.23,-261.45 243.57,-264.66 248,-268.5 270.35,-287.89 259,-308.67 284,-324.5 290.85,-328.84 298.27,-332.34 305.99,-335.17"/>
<polygon fill="black" stroke="black" stroke-width="0.5" points="305.55,-336.86 310.84,-336.84 306.69,-333.56 305.55,-336.86"/>
</g>
<!-- ExplicitLumpedMassMatrix -->
<g id="node7" class="node">
<title>ExplicitLumpedMassMatrix</title>
<g id="a_node7"><a xlink:href="../api/proteus.NonlinearSolvers.html#proteus.NonlinearSolvers.ExplicitLumpedMassMatrix" xlink:title="This is a fake solver meant to be used with optimized code" target="_top">
<polygon fill="white" stroke="black" stroke-width="0.5" points="490,-315 356,-315 356,-296 490,-296 490,-315"/>
<text text-anchor="middle" x="423" y="-303" font-family="Vera Sans, DejaVu Sans, Liberation Sans, Arial, Helvetica, sans" font-size="10.00">ExplicitLumpedMassMatrix</text>
</a>
</g>
</g>
<!-- Newton&#45;&gt;ExplicitLumpedMassMatrix -->
<g id="edge6" class="edge">
<title>Newton&#45;&gt;ExplicitLumpedMassMatrix</title>
<path fill="none" stroke="black" stroke-width="0.5" d="M228.15,-259.13C234.57,-262.07 241.6,-265.35 248,-268.5 264.23,-276.49 266.76,-282.02 284,-287.5 305.1,-294.21 328.79,-298.42 350.49,-301.06"/>
<polygon fill="black" stroke="black" stroke-width="0.5" points="350.5,-302.82 355.67,-301.67 350.91,-299.35 350.5,-302.82"/>
</g>
<!-- ExplicitLumpedMassMatrixShallowWaterEquationsSolver -->
<g id="node8" class="node">
<title>ExplicitLumpedMassMatrixShallowWaterEquationsSolver</title>
<g id="a_node8"><a xlink:href="../api/proteus.NonlinearSolvers.html#proteus.NonlinearSolvers.ExplicitLumpedMassMatrixShallowWaterEquationsSolver" xlink:title="This is a fake solver meant to be used with optimized code" target="_top">
<polygon fill="white" stroke="black" stroke-width="0.5" points="556,-278 290,-278 290,-259 556,-259 556,-278"/>
<text text-anchor="middle" x="423" y="-266" font-family="Vera Sans, DejaVu Sans, Liberation Sans, Arial, Helvetica, sans" font-size="10.00">ExplicitLumpedMassMatrixShallowWaterEquationsSolver</text>
</a>
</g>
</g>
<!-- Newton&#45;&gt;ExplicitLumpedMassMatrixShallowWaterEquationsSolver -->
<g id="edge7" class="edge">
<title>Newton&#45;&gt;ExplicitLumpedMassMatrixShallowWaterEquationsSolver</title>
<path fill="none" stroke="black" stroke-width="0.5" d="M232.92,-251.83C252.39,-253.55 280.33,-256.01 308.78,-258.52"/>
<polygon fill="black" stroke="black" stroke-width="0.5" points="308.96,-260.29 314.09,-258.99 309.27,-256.8 308.96,-260.29"/>
</g>
<!-- MoveMeshMonitorNewton -->
<g id="node12" class="node">
<title>MoveMeshMonitorNewton</title>
<g id="a_node12"><a xlink:href="../api/proteus.NonlinearSolvers.html#proteus.NonlinearSolvers.MoveMeshMonitorNewton" xlink:title="MoveMeshMonitorNewton" target="_top">
<polygon fill="white" stroke="black" stroke-width="0.5" points="488.5,-241 357.5,-241 357.5,-222 488.5,-222 488.5,-241"/>
<text text-anchor="middle" x="423" y="-229" font-family="Vera Sans, DejaVu Sans, Liberation Sans, Arial, Helvetica, sans" font-size="10.00">MoveMeshMonitorNewton</text>
</a>
</g>
</g>
<!-- Newton&#45;&gt;MoveMeshMonitorNewton -->
<g id="edge9" class="edge">
<title>Newton&#45;&gt;MoveMeshMonitorNewton</title>
<path fill="none" stroke="black" stroke-width="0.5" d="M232.92,-247.29C262.4,-244.83 311.28,-240.75 351.95,-237.35"/>
<polygon fill="black" stroke="black" stroke-width="0.5" points="352.54,-239.06 357.38,-236.9 352.25,-235.57 352.54,-239.06"/>
</g>
<!-- NewtonWithL2ProjectionForMassCorrection -->
<g id="node19" class="node">
<title>NewtonWithL2ProjectionForMassCorrection</title>
<g id="a_node19"><a xlink:href="../api/proteus.NonlinearSolvers.html#proteus.NonlinearSolvers.NewtonWithL2ProjectionForMassCorrection" xlink:title="This is a fake solver meant to be used with optimized code" target="_top">
<polygon fill="white" stroke="black" stroke-width="0.5" points="527,-204 319,-204 319,-185 527,-185 527,-204"/>
<text text-anchor="middle" x="423" y="-192" font-family="Vera Sans, DejaVu Sans, Liberation Sans, Arial, Helvetica, sans" font-size="10.00">NewtonWithL2ProjectionForMassCorrection</text>
</a>
</g>
</g>
<!-- Newton&#45;&gt;NewtonWithL2ProjectionForMassCorrection -->
<g id="edge16" class="edge">
<title>Newton&#45;&gt;NewtonWithL2ProjectionForMassCorrection</title>
<path fill="none" stroke="black" stroke-width="0.5" d="M229.43,-239.82C235.5,-237.19 242.02,-234.29 248,-231.5 264.21,-223.94 266.91,-218.79 284,-213.5 295.02,-210.09 306.72,-207.29 318.47,-204.99"/>
<polygon fill="black" stroke="black" stroke-width="0.5" points="318.92,-206.69 323.5,-204.04 318.26,-203.25 318.92,-206.69"/>
</g>
<!-- POD_DEIM_Newton -->
<g id="node21" class="node">
<title>POD_DEIM_Newton</title>
<g id="a_node21"><a xlink:href="../api/proteus.NonlinearSolvers.html#proteus.NonlinearSolvers.POD_DEIM_Newton" xlink:title="Newton&#39;s method on the reduced order system based on POD" target="_top">
<polygon fill="white" stroke="black" stroke-width="0.5" points="477,-167 369,-167 369,-148 477,-148 477,-167"/>
<text text-anchor="middle" x="423" y="-155" font-family="Vera Sans, DejaVu Sans, Liberation Sans, Arial, Helvetica, sans" font-size="10.00">POD_DEIM_Newton</text>
</a>
</g>
</g>
<!-- Newton&#45;&gt;POD_DEIM_Newton -->
<g id="edge17" class="edge">
<title>Newton&#45;&gt;POD_DEIM_Newton</title>
<path fill="none" stroke="black" stroke-width="0.5" d="M232.89,-240.85C238.24,-238.35 243.57,-235.26 248,-231.5 270.55,-212.34 259,-191.33 284,-175.5 307.44,-160.65 337.62,-155.5 363.78,-154.34"/>
<polygon fill="black" stroke="black" stroke-width="0.5" points="364.02,-156.08 368.96,-154.16 363.9,-152.59 364.02,-156.08"/>
</g>
<!-- POD_Newton -->
<g id="node22" class="node">
<title>POD_Newton</title>
<g id="a_node22"><a xlink:href="../api/proteus.NonlinearSolvers.html#proteus.NonlinearSolvers.POD_Newton" xlink:title="Newton&#39;s method on the reduced order system based on POD" target="_top">
<polygon fill="white" stroke="black" stroke-width="0.5" points="461.5,-130 384.5,-130 384.5,-111 461.5,-111 461.5,-130"/>
<text text-anchor="middle" x="423" y="-118" font-family="Vera Sans, DejaVu Sans, Liberation Sans, Arial, Helvetica, sans" font-size="10.00">POD_Newton</text>
</a>
</g>
</g>
<!-- Newton&#45;&gt;POD_Newton -->
<g id="edge18" class="edge">
<title>Newton&#45;&gt;POD_Newton</title>
<path fill="none" stroke="black" stroke-width="0.5" d="M232.63,-241.9C238.25,-239.31 243.76,-235.92 248,-231.5 278.71,-199.54 249.14,-165.87 284,-138.5 310.68,-117.56 349.59,-114.17 379.3,-115.38"/>
<polygon fill="black" stroke="black" stroke-width="0.5" points="379.28,-117.13 384.36,-115.64 379.46,-113.64 379.28,-117.13"/>
</g>
<!-- PicardNewton -->
<g id="node23" class="node">
<title>PicardNewton</title>
<g id="a_node23"><a xlink:href="../api/proteus.NonlinearSolvers.html#proteus.NonlinearSolvers.PicardNewton" xlink:title="PicardNewton" target="_top">
<polygon fill="white" stroke="black" stroke-width="0.5" points="462,-93 384,-93 384,-74 462,-74 462,-93"/>
<text text-anchor="middle" x="423" y="-81" font-family="Vera Sans, DejaVu Sans, Liberation Sans, Arial, Helvetica, sans" font-size="10.00">PicardNewton</text>
</a>
</g>
</g>
<!-- Newton&#45;&gt;PicardNewton -->
<g id="edge19" class="edge">
<title>Newton&#45;&gt;PicardNewton</title>
<path fill="none" stroke="black" stroke-width="0.5" d="M232.53,-242.4C238.28,-239.78 243.88,-236.24 248,-231.5 287.34,-186.26 238.74,-140.81 284,-101.5 309.61,-79.26 348.63,-76 378.65,-77.59"/>
<polygon fill="black" stroke="black" stroke-width="0.5" points="378.66,-79.34 383.76,-77.91 378.88,-75.85 378.66,-79.34"/>
</g>
<!-- SSPRKNewton -->
<g id="node24" class="node">
<title>SSPRKNewton</title>
<g id="a_node24"><a xlink:href="../api/proteus.NonlinearSolvers.html#proteus.NonlinearSolvers.SSPRKNewton" xlink:title="Version of Newton for SSPRK so doesn&#39;t refactor unnecessarily" target="_top">
<polygon fill="white" stroke="black" stroke-width="0.5" points="465.5,-56 380.5,-56 380.5,-37 465.5,-37 465.5,-56"/>
<text text-anchor="middle" x="423" y="-44" font-family="Vera Sans, DejaVu Sans, Liberation Sans, Arial, Helvetica, sans" font-size="10.00">SSPRKNewton</text>
</a>
</g>
</g>
<!-- Newton&#45;&gt;SSPRKNewton -->
<g id="edge20" class="edge">
<title>Newton&#45;&gt;SSPRKNewton</title>
<path fill="none" stroke="black" stroke-width="0.5" d="M232.73,-242.56C238.47,-239.94 244.02,-236.36 248,-231.5 296.15,-172.79 228.14,-115.93 284,-64.5 308.11,-42.3 345.42,-38.57 375.17,-39.98"/>
<polygon fill="black" stroke="black" stroke-width="0.5" points="375.16,-41.73 380.25,-40.27 375.36,-38.23 375.16,-41.73"/>
</g>
<!-- TwoStageNewton -->
<g id="node25" class="node">
<title>TwoStageNewton</title>
<g id="a_node25"><a xlink:href="../api/proteus.NonlinearSolvers.html#proteus.NonlinearSolvers.TwoStageNewton" xlink:title="Solves a 2 Stage problem via Newton&#39;s solve" target="_top">
<polygon fill="white" stroke="black" stroke-width="0.5" points="470,-19 376,-19 376,0 470,0 470,-19"/>
<text text-anchor="middle" x="423" y="-7" font-family="Vera Sans, DejaVu Sans, Liberation Sans, Arial, Helvetica, sans" font-size="10.00">TwoStageNewton</text>
</a>
</g>
</g>
<!-- Newton&#45;&gt;TwoStageNewton -->
<g id="edge21" class="edge">
<title>Newton&#45;&gt;TwoStageNewton</title>
<path fill="none" stroke="black" stroke-width="0.5" d="M232.86,-242.67C238.6,-240.04 244.11,-236.43 248,-231.5 305.04,-159.23 217.45,-91.12 284,-27.5 306.52,-5.97 341.38,-1.56 370.42,-2.49"/>
<polygon fill="black" stroke="black" stroke-width="0.5" points="370.7,-4.26 375.78,-2.72 370.86,-0.76 370.7,-4.26"/>
</g>
<!-- FAS -->
<g id="node9" class="node">
<title>FAS</title>
<g id="a_node9"><a xlink:href="../api/proteus.NonlinearSolvers.html#proteus.NonlinearSolvers.FAS" xlink:title="A generic nonlinear multigrid W cycle using the Full Approximation Scheme (FAS)." target="_top">
<polygon fill="white" stroke="black" stroke-width="0.5" points="90.5,-240 36.5,-240 36.5,-221 90.5,-221 90.5,-240"/>
<text text-anchor="middle" x="63.5" y="-228" font-family="Vera Sans, DejaVu Sans, Liberation Sans, Arial, Helvetica, sans" font-size="10.00">FAS</text>
</a>
</g>
</g>
<!-- FasTwoLevel -->
<g id="node10" class="node">
<title>FasTwoLevel</title>
<g id="a_node10"><a xlink:href="../api/proteus.NonlinearSolvers.html#proteus.NonlinearSolvers.FasTwoLevel" xlink:title="A generic nonlinear two&#45;level solver based on the full approximation scheme. (FAS)." target="_top">
<polygon fill="white" stroke="black" stroke-width="0.5" points="242.5,-222 168.5,-222 168.5,-203 242.5,-203 242.5,-222"/>
<text text-anchor="middle" x="205.5" y="-210" font-family="Vera Sans, DejaVu Sans, Liberation Sans, Arial, Helvetica, sans" font-size="10.00">FasTwoLevel</text>
</a>
</g>
</g>
<!-- NonlinearSolver -->
<g id="node11" class="node">
<title>NonlinearSolver</title>
<g id="a_node11"><a xlink:href="../api/proteus.NonlinearSolvers.html#proteus.NonlinearSolvers.NonlinearSolver" xlink:title="The base class for nonlinear solvers." target="_top">
<polygon fill="white" stroke="black" stroke-width="0.5" points="106.5,-166 20.5,-166 20.5,-147 106.5,-147 106.5,-166"/>
<text text-anchor="middle" x="63.5" y="-154" font-family="Vera Sans, DejaVu Sans, Liberation Sans, Arial, Helvetica, sans" font-size="10.00">NonlinearSolver</text>
</a>
</g>
</g>
<!-- NonlinearSolver&#45;&gt;Newton -->
<g id="edge14" class="edge">
<title>NonlinearSolver&#45;&gt;Newton</title>
<path fill="none" stroke="black" stroke-width="0.5" d="M75.39,-166.22C92.92,-181.51 128.88,-211.51 163,-231.5 166.88,-233.77 171.1,-235.93 175.32,-237.91"/>
<polygon fill="black" stroke="black" stroke-width="0.5" points="174.6,-239.51 179.88,-239.99 176.05,-236.32 174.6,-239.51"/>
</g>
<!-- NonlinearSolver&#45;&gt;FasTwoLevel -->
<g id="edge8" class="edge">
<title>NonlinearSolver&#45;&gt;FasTwoLevel</title>
<path fill="none" stroke="black" stroke-width="0.5" d="M88.57,-166.13C112.85,-175.84 150.35,-190.84 176.08,-201.13"/>
<polygon fill="black" stroke="black" stroke-width="0.5" points="175.45,-202.77 180.75,-203 176.75,-199.52 175.45,-202.77"/>
</g>
<!-- NLGaussSeidel -->
<g id="node14" class="node">
<title>NLGaussSeidel</title>
<g id="a_node14"><a xlink:href="../api/proteus.NonlinearSolvers.html#proteus.NonlinearSolvers.NLGaussSeidel" xlink:title="Nonlinear Gauss&#45;Seidel." target="_top">
<polygon fill="white" stroke="black" stroke-width="0.5" points="248,-185 163,-185 163,-166 248,-166 248,-185"/>
<text text-anchor="middle" x="205.5" y="-173" font-family="Vera Sans, DejaVu Sans, Liberation Sans, Arial, Helvetica, sans" font-size="10.00">NLGaussSeidel</text>
</a>
</g>
</g>
<!-- NonlinearSolver&#45;&gt;NLGaussSeidel -->
<g id="edge10" class="edge">
<title>NonlinearSolver&#45;&gt;NLGaussSeidel</title>
<path fill="none" stroke="black" stroke-width="0.5" d="M106.5,-162.2C122.56,-164.38 140.97,-166.88 157.47,-169.12"/>
<polygon fill="black" stroke="black" stroke-width="0.5" points="157.34,-170.87 162.53,-169.8 157.81,-167.4 157.34,-170.87"/>
</g>
<!-- NLJacobi -->
<g id="node15" class="node">
<title>NLJacobi</title>
<g id="a_node15"><a xlink:href="../api/proteus.NonlinearSolvers.html#proteus.NonlinearSolvers.NLJacobi" xlink:title="Nonlinear Jacobi iteration." target="_top">
<polygon fill="white" stroke="black" stroke-width="0.5" points="234.5,-148 176.5,-148 176.5,-129 234.5,-129 234.5,-148"/>
<text text-anchor="middle" x="205.5" y="-136" font-family="Vera Sans, DejaVu Sans, Liberation Sans, Arial, Helvetica, sans" font-size="10.00">NLJacobi</text>
</a>
</g>
</g>
<!-- NonlinearSolver&#45;&gt;NLJacobi -->
<g id="edge11" class="edge">
<title>NonlinearSolver&#45;&gt;NLJacobi</title>
<path fill="none" stroke="black" stroke-width="0.5" d="M106.5,-151.1C127.12,-148.45 151.61,-145.3 170.95,-142.81"/>
<polygon fill="black" stroke="black" stroke-width="0.5" points="171.53,-144.5 176.26,-142.13 171.08,-141.03 171.53,-144.5"/>
</g>
<!-- NLStarILU -->
<g id="node17" class="node">
<title>NLStarILU</title>
<g id="a_node17"><a xlink:href="../api/proteus.NonlinearSolvers.html#proteus.NonlinearSolvers.NLStarILU" xlink:title="Nonlinear alternating Schwarz on node stars." target="_top">
<polygon fill="white" stroke="black" stroke-width="0.5" points="237,-111 174,-111 174,-92 237,-92 237,-111"/>
<text text-anchor="middle" x="205.5" y="-99" font-family="Vera Sans, DejaVu Sans, Liberation Sans, Arial, Helvetica, sans" font-size="10.00">NLStarILU</text>
</a>
</g>
</g>
<!-- NonlinearSolver&#45;&gt;NLStarILU -->
<g id="edge13" class="edge">
<title>NonlinearSolver&#45;&gt;NLStarILU</title>
<path fill="none" stroke="black" stroke-width="0.5" d="M88.89,-146.92C112.83,-137.51 149.38,-123.15 174.96,-113.1"/>
<polygon fill="black" stroke="black" stroke-width="0.5" points="175.91,-114.61 179.92,-111.16 174.63,-111.35 175.91,-114.61"/>
</g>
<!-- NewtonNS -->
<g id="node18" class="node">
<title>NewtonNS</title>
<g id="a_node18"><a xlink:href="../api/proteus.NonlinearSolvers.html#proteus.NonlinearSolvers.NewtonNS" xlink:title="A simple iterative solver that is Newton&#39;s method" target="_top">
<polygon fill="white" stroke="black" stroke-width="0.5" points="238,-74 173,-74 173,-55 238,-55 238,-74"/>
<text text-anchor="middle" x="205.5" y="-62" font-family="Vera Sans, DejaVu Sans, Liberation Sans, Arial, Helvetica, sans" font-size="10.00">NewtonNS</text>
</a>
</g>
</g>
<!-- NonlinearSolver&#45;&gt;NewtonNS -->
<g id="edge15" class="edge">
<title>NonlinearSolver&#45;&gt;NewtonNS</title>
<path fill="none" stroke="black" stroke-width="0.5" d="M75.42,-146.93C92.98,-131.86 128.98,-102.29 163,-82.5 166.89,-80.24 171.11,-78.09 175.33,-76.11"/>
<polygon fill="black" stroke="black" stroke-width="0.5" points="176.06,-77.7 179.89,-74.04 174.61,-74.52 176.06,-77.7"/>
</g>
<!-- MultilevelNonlinearSolver -->
<g id="node13" class="node">
<title>MultilevelNonlinearSolver</title>
<g id="a_node13"><a xlink:href="../api/proteus.NonlinearSolvers.html#proteus.NonlinearSolvers.MultilevelNonlinearSolver" xlink:title="A generic multilevel solver." target="_top">
<polygon fill="white" stroke="black" stroke-width="0.5" points="127,-296 0,-296 0,-277 127,-277 127,-296"/>
<text text-anchor="middle" x="63.5" y="-284" font-family="Vera Sans, DejaVu Sans, Liberation Sans, Arial, Helvetica, sans" font-size="10.00">MultilevelNonlinearSolver</text>
</a>
</g>
</g>
<!-- NLNI -->
<g id="node16" class="node">
<title>NLNI</title>
<g id="a_node16"><a xlink:href="../api/proteus.NonlinearSolvers.html#proteus.NonlinearSolvers.NLNI" xlink:title="Nonlinear nested iteration." target="_top">
<polygon fill="white" stroke="black" stroke-width="0.5" points="232.5,-296 178.5,-296 178.5,-277 232.5,-277 232.5,-296"/>
<text text-anchor="middle" x="205.5" y="-284" font-family="Vera Sans, DejaVu Sans, Liberation Sans, Arial, Helvetica, sans" font-size="10.00">NLNI</text>
</a>
</g>
</g>
<!-- MultilevelNonlinearSolver&#45;&gt;NLNI -->
<g id="edge12" class="edge">
<title>MultilevelNonlinearSolver&#45;&gt;NLNI</title>
<path fill="none" stroke="black" stroke-width="0.5" d="M127.13,-286.5C143.07,-286.5 159.52,-286.5 173.14,-286.5"/>
<polygon fill="black" stroke="black" stroke-width="0.5" points="173.4,-288.25 178.4,-286.5 173.4,-284.75 173.4,-288.25"/>
</g>
<!-- NonlinearEquation -->
<g id="node20" class="node">
<title>NonlinearEquation</title>
<g id="a_node20"><a xlink:href="../api/proteus.NonlinearSolvers.html#proteus.NonlinearSolvers.NonlinearEquation" xlink:title="The base class for nonlinear equations." target="_top">
<polygon fill="white" stroke="black" stroke-width="0.5" points="111.5,-333 15.5,-333 15.5,-314 111.5,-314 111.5,-333"/>
<text text-anchor="middle" x="63.5" y="-321" font-family="Vera Sans, DejaVu Sans, Liberation Sans, Arial, Helvetica, sans" font-size="10.00">NonlinearEquation</text>
</a>
</g>
</g>
</g>
</svg>
