<?xml version="1.0" encoding="UTF-8" standalone="no"?>
<!DOCTYPE svg PUBLIC "-//W3C//DTD SVG 1.1//EN"
 "http://www.w3.org/Graphics/SVG/1.1/DTD/svg11.dtd">
<!-- Generated by graphviz version 2.44.1 (20200629.0846)
 -->
<!-- Title: inheritance3ba27a0141 Pages: 1 -->
<svg width="617pt" height="434pt"
 viewBox="0.00 0.00 617.00 434.00" xmlns="http://www.w3.org/2000/svg" xmlns:xlink="http://www.w3.org/1999/xlink">
<g id="graph0" class="graph" transform="scale(1 1) rotate(0) translate(4 430)">
<title>inheritance3ba27a0141</title>
<!-- AS_base -->
<g id="node1" class="node">
<title>AS_base</title>
<g id="a_node1"><a xlink:href="../api/proteus.AnalyticalSolutions.html#proteus.AnalyticalSolutions.AS_base" xlink:title="The base class for general analytical solutions, u(x,y,z,t)" target="_top">
<polygon fill="white" stroke="black" stroke-width="0.5" points="56,-222 0,-222 0,-203 56,-203 56,-222"/>
<text text-anchor="middle" x="28" y="-210" font-family="Vera Sans, DejaVu Sans, Liberation Sans, Arial, Helvetica, sans" font-size="10.00">AS_base</text>
</a>
</g>
</g>
<!-- Buckley_Leverett_RiemannSoln -->
<g id="node2" class="node">
<title>Buckley_Leverett_RiemannSoln</title>
<g id="a_node2"><a xlink:href="../api/proteus.AnalyticalSolutions.html#proteus.AnalyticalSolutions.Buckley_Leverett_RiemannSoln" xlink:title="Buckley_Leverett_RiemannSoln" target="_top">
<polygon fill="white" stroke="black" stroke-width="0.5" points="248,-333 92,-333 92,-314 248,-314 248,-333"/>
<text text-anchor="middle" x="170" y="-321" font-family="Vera Sans, DejaVu Sans, Liberation Sans, Arial, Helvetica, sans" font-size="10.00">Buckley_Leverett_RiemannSoln</text>
</a>
</g>
</g>
<!-- AS_base&#45;&gt;Buckley_Leverett_RiemannSoln -->
<g id="edge1" class="edge">
<title>AS_base&#45;&gt;Buckley_Leverett_RiemannSoln</title>
<path fill="none" stroke="black" stroke-width="0.5" d="M32.69,-222.15C40.51,-241.27 60.67,-283.95 92,-305.5 95.58,-307.96 99.45,-310.09 103.48,-311.93"/>
<polygon fill="black" stroke="black" stroke-width="0.5" points="102.99,-313.62 108.28,-313.96 104.36,-310.4 102.99,-313.62"/>
</g>
<!-- DAE_base -->
<g id="node3" class="node">
<title>DAE_base</title>
<g id="a_node3"><a xlink:href="../api/proteus.AnalyticalSolutions.html#proteus.AnalyticalSolutions.DAE_base" xlink:title="The base class for differential&#45;algebraic equation solutions" target="_top">
<polygon fill="white" stroke="black" stroke-width="0.5" points="202,-296 138,-296 138,-277 202,-277 202,-296"/>
<text text-anchor="middle" x="170" y="-284" font-family="Vera Sans, DejaVu Sans, Liberation Sans, Arial, Helvetica, sans" font-size="10.00">DAE_base</text>
</a>
</g>
</g>
<!-- AS_base&#45;&gt;DAE_base -->
<g id="edge2" class="edge">
<title>AS_base&#45;&gt;DAE_base</title>
<path fill="none" stroke="black" stroke-width="0.5" d="M36.91,-222.02C47.93,-234.62 69.13,-256.65 92,-268.5 104.48,-274.97 119.3,-279.14 132.59,-281.82"/>
<polygon fill="black" stroke="black" stroke-width="0.5" points="132.55,-283.6 137.79,-282.81 133.2,-280.16 132.55,-283.6"/>
</g>
<!-- LinearAD_DiracIC -->
<g id="node5" class="node">
<title>LinearAD_DiracIC</title>
<g id="a_node5"><a xlink:href="../api/proteus.AnalyticalSolutions.html#proteus.AnalyticalSolutions.LinearAD_DiracIC" xlink:title="The exact solution of" target="_top">
<polygon fill="white" stroke="black" stroke-width="0.5" points="218,-259 122,-259 122,-240 218,-240 218,-259"/>
<text text-anchor="middle" x="170" y="-247" font-family="Vera Sans, DejaVu Sans, Liberation Sans, Arial, Helvetica, sans" font-size="10.00">LinearAD_DiracIC</text>
</a>
</g>
</g>
<!-- AS_base&#45;&gt;LinearAD_DiracIC -->
<g id="edge5" class="edge">
<title>AS_base&#45;&gt;LinearAD_DiracIC</title>
<path fill="none" stroke="black" stroke-width="0.5" d="M56.18,-221.11C67.25,-224.51 80.19,-228.34 92,-231.5 101.37,-234.01 111.44,-236.5 121.1,-238.8"/>
<polygon fill="black" stroke="black" stroke-width="0.5" points="120.85,-240.54 126.11,-239.98 121.65,-237.13 120.85,-240.54"/>
</g>
<!-- SteadyState -->
<g id="node7" class="node">
<title>SteadyState</title>
<g id="a_node7"><a xlink:href="../api/proteus.AnalyticalSolutions.html#proteus.AnalyticalSolutions.SteadyState" xlink:title="Based class for steady&#45;state solutions u(x)" target="_top">
<polygon fill="white" stroke="black" stroke-width="0.5" points="205.5,-222 134.5,-222 134.5,-203 205.5,-203 205.5,-222"/>
<text text-anchor="middle" x="170" y="-210" font-family="Vera Sans, DejaVu Sans, Liberation Sans, Arial, Helvetica, sans" font-size="10.00">SteadyState</text>
</a>
</g>
</g>
<!-- AS_base&#45;&gt;SteadyState -->
<g id="edge22" class="edge">
<title>AS_base&#45;&gt;SteadyState</title>
<path fill="none" stroke="black" stroke-width="0.5" d="M56.33,-212.5C77.04,-212.5 105.82,-212.5 129.1,-212.5"/>
<polygon fill="black" stroke="black" stroke-width="0.5" points="129.29,-214.25 134.29,-212.5 129.29,-210.75 129.29,-214.25"/>
</g>
<!-- VortexDecay_p -->
<g id="node24" class="node">
<title>VortexDecay_p</title>
<g id="a_node24"><a xlink:href="../api/proteus.AnalyticalSolutions.html#proteus.AnalyticalSolutions.VortexDecay_p" xlink:title="The exact solution for the u component of &#160;velocity in the vortex &#160;decay problem" target="_top">
<polygon fill="white" stroke="black" stroke-width="0.5" points="211.5,-185 128.5,-185 128.5,-166 211.5,-166 211.5,-185"/>
<text text-anchor="middle" x="170" y="-173" font-family="Vera Sans, DejaVu Sans, Liberation Sans, Arial, Helvetica, sans" font-size="10.00">VortexDecay_p</text>
</a>
</g>
</g>
<!-- AS_base&#45;&gt;VortexDecay_p -->
<g id="edge23" class="edge">
<title>AS_base&#45;&gt;VortexDecay_p</title>
<path fill="none" stroke="black" stroke-width="0.5" d="M56.23,-204.49C67.3,-201.29 80.24,-197.63 92,-194.5 102.29,-191.76 113.39,-188.94 123.87,-186.34"/>
<polygon fill="black" stroke="black" stroke-width="0.5" points="124.53,-187.98 128.96,-185.09 123.69,-184.59 124.53,-187.98"/>
</g>
<!-- VortexDecay_u -->
<g id="node25" class="node">
<title>VortexDecay_u</title>
<g id="a_node25"><a xlink:href="../api/proteus.AnalyticalSolutions.html#proteus.AnalyticalSolutions.VortexDecay_u" xlink:title="The exact solution for the u component of &#160;velocity in the vortex &#160;decay problem" target="_top">
<polygon fill="white" stroke="black" stroke-width="0.5" points="211.5,-148 128.5,-148 128.5,-129 211.5,-129 211.5,-148"/>
<text text-anchor="middle" x="170" y="-136" font-family="Vera Sans, DejaVu Sans, Liberation Sans, Arial, Helvetica, sans" font-size="10.00">VortexDecay_u</text>
</a>
</g>
</g>
<!-- AS_base&#45;&gt;VortexDecay_u -->
<g id="edge24" class="edge">
<title>AS_base&#45;&gt;VortexDecay_u</title>
<path fill="none" stroke="black" stroke-width="0.5" d="M37.35,-202.78C48.54,-190.38 69.59,-169.16 92,-157.5 101.55,-152.53 112.45,-148.82 122.99,-146.07"/>
<polygon fill="black" stroke="black" stroke-width="0.5" points="123.69,-147.7 128.12,-144.8 122.85,-144.3 123.69,-147.7"/>
</g>
<!-- VortexDecay_v -->
<g id="node26" class="node">
<title>VortexDecay_v</title>
<g id="a_node26"><a xlink:href="../api/proteus.AnalyticalSolutions.html#proteus.AnalyticalSolutions.VortexDecay_v" xlink:title="The exact solution for the u component of &#160;velocity in the vortex &#160;decay problem" target="_top">
<polygon fill="white" stroke="black" stroke-width="0.5" points="211.5,-111 128.5,-111 128.5,-92 211.5,-92 211.5,-111"/>
<text text-anchor="middle" x="170" y="-99" font-family="Vera Sans, DejaVu Sans, Liberation Sans, Arial, Helvetica, sans" font-size="10.00">VortexDecay_v</text>
</a>
</g>
</g>
<!-- AS_base&#45;&gt;VortexDecay_v -->
<g id="edge25" class="edge">
<title>AS_base&#45;&gt;VortexDecay_v</title>
<path fill="none" stroke="black" stroke-width="0.5" d="M32.74,-202.98C40.66,-184.13 60.98,-142.01 92,-120.5 101.22,-114.11 112.38,-109.86 123.31,-107.04"/>
<polygon fill="black" stroke="black" stroke-width="0.5" points="123.85,-108.71 128.3,-105.84 123.03,-105.3 123.85,-108.71"/>
</g>
<!-- NonlinearDAE -->
<g id="node11" class="node">
<title>NonlinearDAE</title>
<g id="a_node11"><a xlink:href="../api/proteus.AnalyticalSolutions.html#proteus.AnalyticalSolutions.NonlinearDAE" xlink:title="The exact solution of the simple nonlinear DAE" target="_top">
<polygon fill="white" stroke="black" stroke-width="0.5" points="392,-426 313,-426 313,-407 392,-407 392,-426"/>
<text text-anchor="middle" x="352.5" y="-414" font-family="Vera Sans, DejaVu Sans, Liberation Sans, Arial, Helvetica, sans" font-size="10.00">NonlinearDAE</text>
</a>
</g>
</g>
<!-- DAE_base&#45;&gt;NonlinearDAE -->
<g id="edge9" class="edge">
<title>DAE_base&#45;&gt;NonlinearDAE</title>
<path fill="none" stroke="black" stroke-width="0.5" d="M202.22,-287.6C217.61,-289.65 235.49,-294.49 248,-305.5 281.27,-334.78 251,-368.91 284,-398.5 290.7,-404.51 299.2,-408.55 307.88,-411.26"/>
<polygon fill="black" stroke="black" stroke-width="0.5" points="307.42,-412.95 312.71,-412.62 308.38,-409.58 307.42,-412.95"/>
</g>
<!-- LinearADR_Decay_DiracIC -->
<g id="node4" class="node">
<title>LinearADR_Decay_DiracIC</title>
<g id="a_node4"><a xlink:href="../api/proteus.AnalyticalSolutions.html#proteus.AnalyticalSolutions.LinearADR_Decay_DiracIC" xlink:title="The exact solution of" target="_top">
<polygon fill="white" stroke="black" stroke-width="0.5" points="421,-389 284,-389 284,-370 421,-370 421,-389"/>
<text text-anchor="middle" x="352.5" y="-377" font-family="Vera Sans, DejaVu Sans, Liberation Sans, Arial, Helvetica, sans" font-size="10.00">LinearADR_Decay_DiracIC</text>
</a>
</g>
</g>
<!-- NonlinearADR_Decay_DiracIC -->
<g id="node9" class="node">
<title>NonlinearADR_Decay_DiracIC</title>
<g id="a_node9"><a xlink:href="../api/proteus.AnalyticalSolutions.html#proteus.AnalyticalSolutions.NonlinearADR_Decay_DiracIC" xlink:title="The approximate analytical solution of" target="_top">
<polygon fill="white" stroke="black" stroke-width="0.5" points="609,-389 457,-389 457,-370 609,-370 609,-389"/>
<text text-anchor="middle" x="533" y="-377" font-family="Vera Sans, DejaVu Sans, Liberation Sans, Arial, Helvetica, sans" font-size="10.00">NonlinearADR_Decay_DiracIC</text>
</a>
</g>
</g>
<!-- LinearADR_Decay_DiracIC&#45;&gt;NonlinearADR_Decay_DiracIC -->
<g id="edge7" class="edge">
<title>LinearADR_Decay_DiracIC&#45;&gt;NonlinearADR_Decay_DiracIC</title>
<path fill="none" stroke="black" stroke-width="0.5" d="M421.24,-379.5C431.24,-379.5 441.62,-379.5 451.85,-379.5"/>
<polygon fill="black" stroke="black" stroke-width="0.5" points="451.85,-381.25 456.85,-379.5 451.85,-377.75 451.85,-381.25"/>
</g>
<!-- LinearAD_DiracIC&#45;&gt;LinearADR_Decay_DiracIC -->
<g id="edge3" class="edge">
<title>LinearAD_DiracIC&#45;&gt;LinearADR_Decay_DiracIC</title>
<path fill="none" stroke="black" stroke-width="0.5" d="M218.01,-253.67C228.84,-256.52 239.63,-261.13 248,-268.5 281.27,-297.78 251,-331.91 284,-361.5 286.49,-363.73 289.22,-365.69 292.12,-367.41"/>
<polygon fill="black" stroke="black" stroke-width="0.5" points="291.57,-369.1 296.8,-369.92 293.23,-366.02 291.57,-369.1"/>
</g>
<!-- LinearADR_Sine -->
<g id="node6" class="node">
<title>LinearADR_Sine</title>
<g id="a_node6"><a xlink:href="../api/proteus.AnalyticalSolutions.html#proteus.AnalyticalSolutions.LinearADR_Sine" xlink:title="An exact solution and source term for" target="_top">
<polygon fill="white" stroke="black" stroke-width="0.5" points="397,-352 308,-352 308,-333 397,-333 397,-352"/>
<text text-anchor="middle" x="352.5" y="-340" font-family="Vera Sans, DejaVu Sans, Liberation Sans, Arial, Helvetica, sans" font-size="10.00">LinearADR_Sine</text>
</a>
</g>
</g>
<!-- SteadyState&#45;&gt;LinearADR_Sine -->
<g id="edge4" class="edge">
<title>SteadyState&#45;&gt;LinearADR_Sine</title>
<path fill="none" stroke="black" stroke-width="0.5" d="M205.69,-214.1C220.24,-216.4 236.42,-221.31 248,-231.5 281.27,-260.78 251,-294.91 284,-324.5 289.43,-329.37 296.03,-332.94 302.96,-335.56"/>
<polygon fill="black" stroke="black" stroke-width="0.5" points="302.49,-337.25 307.79,-337.23 303.63,-333.95 302.49,-337.25"/>
</g>
<!-- LinearAD_SteadyState -->
<g id="node8" class="node">
<title>LinearAD_SteadyState</title>
<g id="a_node8"><a xlink:href="../api/proteus.AnalyticalSolutions.html#proteus.AnalyticalSolutions.LinearAD_SteadyState" xlink:title="The solution of the steady linear advection&#45;diffusion equation" target="_top">
<polygon fill="white" stroke="black" stroke-width="0.5" points="410.5,-315 294.5,-315 294.5,-296 410.5,-296 410.5,-315"/>
<text text-anchor="middle" x="352.5" y="-303" font-family="Vera Sans, DejaVu Sans, Liberation Sans, Arial, Helvetica, sans" font-size="10.00">LinearAD_SteadyState</text>
</a>
</g>
</g>
<!-- SteadyState&#45;&gt;LinearAD_SteadyState -->
<g id="edge6" class="edge">
<title>SteadyState&#45;&gt;LinearAD_SteadyState</title>
<path fill="none" stroke="black" stroke-width="0.5" d="M205.55,-215.4C219.73,-217.94 235.68,-222.69 248,-231.5 272.07,-248.71 260.09,-270.07 284,-287.5 287.38,-289.97 291.08,-292.09 294.94,-293.93"/>
<polygon fill="black" stroke="black" stroke-width="0.5" points="294.26,-295.54 299.55,-295.95 295.67,-292.34 294.26,-295.54"/>
</g>
<!-- PlaneBase -->
<g id="node12" class="node">
<title>PlaneBase</title>
<g id="a_node12"><a xlink:href="../api/proteus.AnalyticalSolutions.html#proteus.AnalyticalSolutions.PlaneBase" xlink:title="The exact solution for the u component of &#160;velocity in plane Poiseuille Flow" target="_top">
<polygon fill="white" stroke="black" stroke-width="0.5" points="384.5,-278 320.5,-278 320.5,-259 384.5,-259 384.5,-278"/>
<text text-anchor="middle" x="352.5" y="-266" font-family="Vera Sans, DejaVu Sans, Liberation Sans, Arial, Helvetica, sans" font-size="10.00">PlaneBase</text>
</a>
</g>
</g>
<!-- SteadyState&#45;&gt;PlaneBase -->
<g id="edge10" class="edge">
<title>SteadyState&#45;&gt;PlaneBase</title>
<path fill="none" stroke="black" stroke-width="0.5" d="M205.66,-219.16C219.11,-222.24 234.49,-226.36 248,-231.5 264.91,-237.94 267.15,-243.91 284,-250.5 294,-254.41 305.15,-257.77 315.47,-260.49"/>
<polygon fill="black" stroke="black" stroke-width="0.5" points="315.17,-262.22 320.45,-261.78 316.05,-258.84 315.17,-262.22"/>
</g>
<!-- PlaneCouetteFlow_p -->
<g id="node13" class="node">
<title>PlaneCouetteFlow_p</title>
<g id="a_node13"><a xlink:href="../api/proteus.AnalyticalSolutions.html#proteus.AnalyticalSolutions.PlaneCouetteFlow_p" xlink:title="The exact solution for the v component of &#160;velocity in plane Couette Flow" target="_top">
<polygon fill="white" stroke="black" stroke-width="0.5" points="406,-241 299,-241 299,-222 406,-222 406,-241"/>
<text text-anchor="middle" x="352.5" y="-229" font-family="Vera Sans, DejaVu Sans, Liberation Sans, Arial, Helvetica, sans" font-size="10.00">PlaneCouetteFlow_p</text>
</a>
</g>
</g>
<!-- SteadyState&#45;&gt;PlaneCouetteFlow_p -->
<g id="edge11" class="edge">
<title>SteadyState&#45;&gt;PlaneCouetteFlow_p</title>
<path fill="none" stroke="black" stroke-width="0.5" d="M205.8,-216.16C230.59,-218.77 264.48,-222.34 293.34,-225.38"/>
<polygon fill="black" stroke="black" stroke-width="0.5" points="293.51,-227.16 298.67,-225.94 293.88,-223.68 293.51,-227.16"/>
</g>
<!-- PlaneCouetteFlow_u -->
<g id="node14" class="node">
<title>PlaneCouetteFlow_u</title>
<g id="a_node14"><a xlink:href="../api/proteus.AnalyticalSolutions.html#proteus.AnalyticalSolutions.PlaneCouetteFlow_u" xlink:title="The exact solution for the u component of &#160;velocity in plane Couette Flow" target="_top">
<polygon fill="white" stroke="black" stroke-width="0.5" points="406,-204 299,-204 299,-185 406,-185 406,-204"/>
<text text-anchor="middle" x="352.5" y="-192" font-family="Vera Sans, DejaVu Sans, Liberation Sans, Arial, Helvetica, sans" font-size="10.00">PlaneCouetteFlow_u</text>
</a>
</g>
</g>
<!-- SteadyState&#45;&gt;PlaneCouetteFlow_u -->
<g id="edge12" class="edge">
<title>SteadyState&#45;&gt;PlaneCouetteFlow_u</title>
<path fill="none" stroke="black" stroke-width="0.5" d="M205.8,-209.03C230.59,-206.56 264.48,-203.18 293.34,-200.3"/>
<polygon fill="black" stroke="black" stroke-width="0.5" points="293.87,-202.01 298.67,-199.77 293.52,-198.52 293.87,-202.01"/>
</g>
<!-- PlaneCouetteFlow_v -->
<g id="node15" class="node">
<title>PlaneCouetteFlow_v</title>
<g id="a_node15"><a xlink:href="../api/proteus.AnalyticalSolutions.html#proteus.AnalyticalSolutions.PlaneCouetteFlow_v" xlink:title="The exact solution for the v component of &#160;velocity in plane Couette Flow" target="_top">
<polygon fill="white" stroke="black" stroke-width="0.5" points="406,-167 299,-167 299,-148 406,-148 406,-167"/>
<text text-anchor="middle" x="352.5" y="-155" font-family="Vera Sans, DejaVu Sans, Liberation Sans, Arial, Helvetica, sans" font-size="10.00">PlaneCouetteFlow_v</text>
</a>
</g>
</g>
<!-- SteadyState&#45;&gt;PlaneCouetteFlow_v -->
<g id="edge13" class="edge">
<title>SteadyState&#45;&gt;PlaneCouetteFlow_v</title>
<path fill="none" stroke="black" stroke-width="0.5" d="M205.61,-206.21C219.05,-203.31 234.44,-199.4 248,-194.5 264.82,-188.42 267.32,-182.95 284,-176.5 291.62,-173.55 299.88,-170.85 307.92,-168.46"/>
<polygon fill="black" stroke="black" stroke-width="0.5" points="308.58,-170.09 312.89,-167.01 307.6,-166.73 308.58,-170.09"/>
</g>
<!-- PlanePoiseuilleFlow_p -->
<g id="node16" class="node">
<title>PlanePoiseuilleFlow_p</title>
<g id="a_node16"><a xlink:href="../api/proteus.AnalyticalSolutions.html#proteus.AnalyticalSolutions.PlanePoiseuilleFlow_p" xlink:title="The exact solution for the v component of &#160;velocity in plane Poiseuille Flow" target="_top">
<polygon fill="white" stroke="black" stroke-width="0.5" points="410,-130 295,-130 295,-111 410,-111 410,-130"/>
<text text-anchor="middle" x="352.5" y="-118" font-family="Vera Sans, DejaVu Sans, Liberation Sans, Arial, Helvetica, sans" font-size="10.00">PlanePoiseuilleFlow_p</text>
</a>
</g>
</g>
<!-- SteadyState&#45;&gt;PlanePoiseuilleFlow_p -->
<g id="edge14" class="edge">
<title>SteadyState&#45;&gt;PlanePoiseuilleFlow_p</title>
<path fill="none" stroke="black" stroke-width="0.5" d="M205.88,-210C219.96,-207.61 235.74,-203.08 248,-194.5 271.94,-177.75 260.44,-156.78 284,-139.5 287.98,-136.58 292.38,-134.12 296.99,-132.02"/>
<polygon fill="black" stroke="black" stroke-width="0.5" points="297.72,-133.62 301.64,-130.06 296.36,-130.39 297.72,-133.62"/>
</g>
<!-- PlanePoiseuilleFlow_u -->
<g id="node18" class="node">
<title>PlanePoiseuilleFlow_u</title>
<g id="a_node18"><a xlink:href="../api/proteus.AnalyticalSolutions.html#proteus.AnalyticalSolutions.PlanePoiseuilleFlow_u" xlink:title="PlanePoiseuilleFlow_u" target="_top">
<polygon fill="white" stroke="black" stroke-width="0.5" points="410,-93 295,-93 295,-74 410,-74 410,-93"/>
<text text-anchor="middle" x="352.5" y="-81" font-family="Vera Sans, DejaVu Sans, Liberation Sans, Arial, Helvetica, sans" font-size="10.00">PlanePoiseuilleFlow_u</text>
</a>
</g>
</g>
<!-- SteadyState&#45;&gt;PlanePoiseuilleFlow_u -->
<g id="edge16" class="edge">
<title>SteadyState&#45;&gt;PlanePoiseuilleFlow_u</title>
<path fill="none" stroke="black" stroke-width="0.5" d="M205.65,-211.38C220.19,-209.27 236.38,-204.57 248,-194.5 281.19,-165.76 251.46,-131.98 284,-102.5 286.92,-99.86 290.17,-97.58 293.63,-95.62"/>
<polygon fill="black" stroke="black" stroke-width="0.5" points="294.82,-96.97 298.47,-93.13 293.22,-93.86 294.82,-96.97"/>
</g>
<!-- PlanePoiseuilleFlow_v -->
<g id="node20" class="node">
<title>PlanePoiseuilleFlow_v</title>
<g id="a_node20"><a xlink:href="../api/proteus.AnalyticalSolutions.html#proteus.AnalyticalSolutions.PlanePoiseuilleFlow_v" xlink:title="The exact solution for the v component of &#160;velocity in plane Poiseuille Flow" target="_top">
<polygon fill="white" stroke="black" stroke-width="0.5" points="410,-56 295,-56 295,-37 410,-37 410,-56"/>
<text text-anchor="middle" x="352.5" y="-44" font-family="Vera Sans, DejaVu Sans, Liberation Sans, Arial, Helvetica, sans" font-size="10.00">PlanePoiseuilleFlow_v</text>
</a>
</g>
</g>
<!-- SteadyState&#45;&gt;PlanePoiseuilleFlow_v -->
<g id="edge18" class="edge">
<title>SteadyState&#45;&gt;PlanePoiseuilleFlow_v</title>
<path fill="none" stroke="black" stroke-width="0.5" d="M205.75,-211.97C220.48,-210 236.8,-205.23 248,-194.5 290.97,-153.31 241.96,-107.64 284,-65.5 286.66,-62.83 289.66,-60.53 292.89,-58.55"/>
<polygon fill="black" stroke="black" stroke-width="0.5" points="293.89,-60 297.41,-56.04 292.19,-56.94 293.89,-60"/>
</g>
<!-- PoissonsEquation -->
<g id="node23" class="node">
<title>PoissonsEquation</title>
<g id="a_node23"><a xlink:href="../api/proteus.AnalyticalSolutions.html#proteus.AnalyticalSolutions.PoissonsEquation" xlink:title="Manufactured solution of Poisson&#39;s equation" target="_top">
<polygon fill="white" stroke="black" stroke-width="0.5" points="400,-19 305,-19 305,0 400,0 400,-19"/>
<text text-anchor="middle" x="352.5" y="-7" font-family="Vera Sans, DejaVu Sans, Liberation Sans, Arial, Helvetica, sans" font-size="10.00">PoissonsEquation</text>
</a>
</g>
</g>
<!-- SteadyState&#45;&gt;PoissonsEquation -->
<g id="edge21" class="edge">
<title>SteadyState&#45;&gt;PoissonsEquation</title>
<path fill="none" stroke="black" stroke-width="0.5" d="M205.67,-212.33C220.56,-210.45 237.03,-205.66 248,-194.5 301.22,-140.35 231.62,-82.47 284,-27.5 288.53,-22.74 294.17,-19.19 300.24,-16.55"/>
<polygon fill="black" stroke="black" stroke-width="0.5" points="300.94,-18.16 304.96,-14.7 299.67,-14.9 300.94,-18.16"/>
</g>
<!-- NonlinearAD_SteadyState -->
<g id="node10" class="node">
<title>NonlinearAD_SteadyState</title>
<g id="a_node10"><a xlink:href="../api/proteus.AnalyticalSolutions.html#proteus.AnalyticalSolutions.NonlinearAD_SteadyState" xlink:title="The solution of a steady nonlinear advection&#45;diffusion equation" target="_top">
<polygon fill="white" stroke="black" stroke-width="0.5" points="598.5,-352 467.5,-352 467.5,-333 598.5,-333 598.5,-352"/>
<text text-anchor="middle" x="533" y="-340" font-family="Vera Sans, DejaVu Sans, Liberation Sans, Arial, Helvetica, sans" font-size="10.00">NonlinearAD_SteadyState</text>
</a>
</g>
</g>
<!-- LinearAD_SteadyState&#45;&gt;NonlinearAD_SteadyState -->
<g id="edge8" class="edge">
<title>LinearAD_SteadyState&#45;&gt;NonlinearAD_SteadyState</title>
<path fill="none" stroke="black" stroke-width="0.5" d="M399.47,-315.03C424.36,-320.19 455.17,-326.57 480.82,-331.89"/>
<polygon fill="black" stroke="black" stroke-width="0.5" points="480.63,-333.64 485.88,-332.94 481.34,-330.21 480.63,-333.64"/>
</g>
<!-- PlanePoiseuilleFlow_p2 -->
<g id="node17" class="node">
<title>PlanePoiseuilleFlow_p2</title>
<g id="a_node17"><a xlink:href="../api/proteus.AnalyticalSolutions.html#proteus.AnalyticalSolutions.PlanePoiseuilleFlow_p2" xlink:title="The exact solution for the v component of &#160;velocity in plane Poiseuille Flow" target="_top">
<polygon fill="white" stroke="black" stroke-width="0.5" points="593,-315 473,-315 473,-296 593,-296 593,-315"/>
<text text-anchor="middle" x="533" y="-303" font-family="Vera Sans, DejaVu Sans, Liberation Sans, Arial, Helvetica, sans" font-size="10.00">PlanePoiseuilleFlow_p2</text>
</a>
</g>
</g>
<!-- PlaneBase&#45;&gt;PlanePoiseuilleFlow_p2 -->
<g id="edge15" class="edge">
<title>PlaneBase&#45;&gt;PlanePoiseuilleFlow_p2</title>
<path fill="none" stroke="black" stroke-width="0.5" d="M384.59,-274.94C411.14,-280.45 449.85,-288.47 480.94,-294.92"/>
<polygon fill="black" stroke="black" stroke-width="0.5" points="480.61,-296.63 485.86,-295.94 481.32,-293.21 480.61,-296.63"/>
</g>
<!-- PlanePoiseuilleFlow_u2 -->
<g id="node19" class="node">
<title>PlanePoiseuilleFlow_u2</title>
<g id="a_node19"><a xlink:href="../api/proteus.AnalyticalSolutions.html#proteus.AnalyticalSolutions.PlanePoiseuilleFlow_u2" xlink:title="The exact solution for the u component of &#160;velocity in plane Poiseuille Flow" target="_top">
<polygon fill="white" stroke="black" stroke-width="0.5" points="593,-278 473,-278 473,-259 593,-259 593,-278"/>
<text text-anchor="middle" x="533" y="-266" font-family="Vera Sans, DejaVu Sans, Liberation Sans, Arial, Helvetica, sans" font-size="10.00">PlanePoiseuilleFlow_u2</text>
</a>
</g>
</g>
<!-- PlaneBase&#45;&gt;PlanePoiseuilleFlow_u2 -->
<g id="edge17" class="edge">
<title>PlaneBase&#45;&gt;PlanePoiseuilleFlow_u2</title>
<path fill="none" stroke="black" stroke-width="0.5" d="M384.59,-268.5C407.44,-268.5 439.3,-268.5 467.56,-268.5"/>
<polygon fill="black" stroke="black" stroke-width="0.5" points="467.79,-270.25 472.79,-268.5 467.79,-266.75 467.79,-270.25"/>
</g>
<!-- PlanePoiseuilleFlow_v2 -->
<g id="node21" class="node">
<title>PlanePoiseuilleFlow_v2</title>
<g id="a_node21"><a xlink:href="../api/proteus.AnalyticalSolutions.html#proteus.AnalyticalSolutions.PlanePoiseuilleFlow_v2" xlink:title="The exact solution for the v component of &#160;velocity in plane Poiseuille Flow" target="_top">
<polygon fill="white" stroke="black" stroke-width="0.5" points="593,-241 473,-241 473,-222 593,-222 593,-241"/>
<text text-anchor="middle" x="533" y="-229" font-family="Vera Sans, DejaVu Sans, Liberation Sans, Arial, Helvetica, sans" font-size="10.00">PlanePoiseuilleFlow_v2</text>
</a>
</g>
</g>
<!-- PlaneBase&#45;&gt;PlanePoiseuilleFlow_v2 -->
<g id="edge19" class="edge">
<title>PlaneBase&#45;&gt;PlanePoiseuilleFlow_v2</title>
<path fill="none" stroke="black" stroke-width="0.5" d="M384.59,-262.06C411.14,-256.55 449.85,-248.53 480.94,-242.08"/>
<polygon fill="black" stroke="black" stroke-width="0.5" points="481.32,-243.79 485.86,-241.06 480.61,-240.37 481.32,-243.79"/>
</g>
<!-- PlanePoiseuilleFlow_w2 -->
<g id="node22" class="node">
<title>PlanePoiseuilleFlow_w2</title>
<g id="a_node22"><a xlink:href="../api/proteus.AnalyticalSolutions.html#proteus.AnalyticalSolutions.PlanePoiseuilleFlow_w2" xlink:title="The exact solution for the v component of &#160;velocity in plane Poiseuille Flow" target="_top">
<polygon fill="white" stroke="black" stroke-width="0.5" points="594,-204 472,-204 472,-185 594,-185 594,-204"/>
<text text-anchor="middle" x="533" y="-192" font-family="Vera Sans, DejaVu Sans, Liberation Sans, Arial, Helvetica, sans" font-size="10.00">PlanePoiseuilleFlow_w2</text>
</a>
</g>
</g>
<!-- PlaneBase&#45;&gt;PlanePoiseuilleFlow_w2 -->
<g id="edge20" class="edge">
<title>PlaneBase&#45;&gt;PlanePoiseuilleFlow_w2</title>
<path fill="none" stroke="black" stroke-width="0.5" d="M384.78,-263.82C396.68,-261.12 410.01,-256.94 421,-250.5 440.8,-238.9 437.13,-224.97 457,-213.5 462.27,-210.46 468.03,-207.9 473.93,-205.74"/>
<polygon fill="black" stroke="black" stroke-width="0.5" points="474.75,-207.31 478.91,-204.03 473.62,-204 474.75,-207.31"/>
</g>
</g>
</svg>
