<?xml version="1.0" encoding="UTF-8" standalone="no"?>
<!DOCTYPE svg PUBLIC "-//W3C//DTD SVG 1.1//EN"
 "http://www.w3.org/Graphics/SVG/1.1/DTD/svg11.dtd">
<!-- Generated by graphviz version 2.44.1 (20200629.0846)
 -->
<!-- Title: inheritance65a8d20231 Pages: 1 -->
<svg width="227pt" height="397pt"
 viewBox="0.00 0.00 227.00 397.00" xmlns="http://www.w3.org/2000/svg" xmlns:xlink="http://www.w3.org/1999/xlink">
<g id="graph0" class="graph" transform="scale(1 1) rotate(0) translate(4 393)">
<title>inheritance65a8d20231</title>
<!-- AV_base -->
<g id="node1" class="node">
<title>AV_base</title>
<g id="a_node1"><a xlink:href="../api/proteus.AuxiliaryVariables.html#proteus.AuxiliaryVariables.AV_base" xlink:title="AV_base" target="_top">
<polygon fill="white" stroke="black" stroke-width="0.5" points="56,-204 0,-204 0,-185 56,-185 56,-204"/>
<text text-anchor="middle" x="28" y="-192" font-family="Vera Sans, DejaVu Sans, Liberation Sans, Arial, Helvetica, sans" font-size="10.00">AV_base</text>
</a>
</g>
</g>
<!-- BoundaryForce -->
<g id="node2" class="node">
<title>BoundaryForce</title>
<g id="a_node2"><a xlink:href="../api/proteus.AuxiliaryVariables.html#proteus.AuxiliaryVariables.BoundaryForce" xlink:title="BoundaryForce" target="_top">
<polygon fill="white" stroke="black" stroke-width="0.5" points="197,-389 114,-389 114,-370 197,-370 197,-389"/>
<text text-anchor="middle" x="155.5" y="-377" font-family="Vera Sans, DejaVu Sans, Liberation Sans, Arial, Helvetica, sans" font-size="10.00">BoundaryForce</text>
</a>
</g>
</g>
<!-- AV_base&#45;&gt;BoundaryForce -->
<g id="edge1" class="edge">
<title>AV_base&#45;&gt;BoundaryForce</title>
<path fill="none" stroke="black" stroke-width="0.5" d="M29.7,-204.06C32.31,-232.46 43.95,-317.16 92,-361.5 96.89,-366.02 102.85,-369.41 109.12,-371.95"/>
<polygon fill="black" stroke="black" stroke-width="0.5" points="108.66,-373.65 113.96,-373.73 109.87,-370.36 108.66,-373.65"/>
</g>
<!-- BoundaryPressure -->
<g id="node3" class="node">
<title>BoundaryPressure</title>
<g id="a_node3"><a xlink:href="../api/proteus.AuxiliaryVariables.html#proteus.AuxiliaryVariables.BoundaryPressure" xlink:title="BoundaryPressure" target="_top">
<polygon fill="white" stroke="black" stroke-width="0.5" points="204,-352 107,-352 107,-333 204,-333 204,-352"/>
<text text-anchor="middle" x="155.5" y="-340" font-family="Vera Sans, DejaVu Sans, Liberation Sans, Arial, Helvetica, sans" font-size="10.00">BoundaryPressure</text>
</a>
</g>
</g>
<!-- AV_base&#45;&gt;BoundaryPressure -->
<g id="edge2" class="edge">
<title>AV_base&#45;&gt;BoundaryPressure</title>
<path fill="none" stroke="black" stroke-width="0.5" d="M30.9,-204.33C36.1,-228.56 52.87,-291.54 92,-324.5 95.03,-327.05 98.4,-329.24 101.96,-331.12"/>
<polygon fill="black" stroke="black" stroke-width="0.5" points="101.66,-332.92 106.93,-333.5 103.17,-329.76 101.66,-332.92"/>
</g>
<!-- ConservationHistoryLS -->
<g id="node4" class="node">
<title>ConservationHistoryLS</title>
<g id="a_node4"><a xlink:href="../api/proteus.AuxiliaryVariables.html#proteus.AuxiliaryVariables.ConservationHistoryLS" xlink:title="A simple class for storing the time history of things related conservation in non&#45;conservative level set methods" target="_top">
<polygon fill="white" stroke="black" stroke-width="0.5" points="214.5,-315 96.5,-315 96.5,-296 214.5,-296 214.5,-315"/>
<text text-anchor="middle" x="155.5" y="-303" font-family="Vera Sans, DejaVu Sans, Liberation Sans, Arial, Helvetica, sans" font-size="10.00">ConservationHistoryLS</text>
</a>
</g>
</g>
<!-- AV_base&#45;&gt;ConservationHistoryLS -->
<g id="edge3" class="edge">
<title>AV_base&#45;&gt;ConservationHistoryLS</title>
<path fill="none" stroke="black" stroke-width="0.5" d="M32.78,-204.02C40.78,-222.89 61.23,-265.16 92,-287.5 95.42,-289.98 99.17,-292.12 103.08,-293.96"/>
<polygon fill="black" stroke="black" stroke-width="0.5" points="102.46,-295.6 107.74,-296 103.86,-292.39 102.46,-295.6"/>
</g>
<!-- ConservationHistoryMC -->
<g id="node5" class="node">
<title>ConservationHistoryMC</title>
<g id="a_node5"><a xlink:href="../api/proteus.AuxiliaryVariables.html#proteus.AuxiliaryVariables.ConservationHistoryMC" xlink:title="A simple class for storing the time history of things related conservation in conservative level set methods" target="_top">
<polygon fill="white" stroke="black" stroke-width="0.5" points="216.5,-278 94.5,-278 94.5,-259 216.5,-259 216.5,-278"/>
<text text-anchor="middle" x="155.5" y="-266" font-family="Vera Sans, DejaVu Sans, Liberation Sans, Arial, Helvetica, sans" font-size="10.00">ConservationHistoryMC</text>
</a>
</g>
</g>
<!-- AV_base&#45;&gt;ConservationHistoryMC -->
<g id="edge4" class="edge">
<title>AV_base&#45;&gt;ConservationHistoryMC</title>
<path fill="none" stroke="black" stroke-width="0.5" d="M37.39,-204.27C48.61,-216.76 69.7,-238.21 92,-250.5 96.69,-253.09 101.8,-255.33 107,-257.28"/>
<polygon fill="black" stroke="black" stroke-width="0.5" points="106.49,-258.95 111.79,-258.98 107.66,-255.65 106.49,-258.95"/>
</g>
<!-- GatherDOF -->
<g id="node6" class="node">
<title>GatherDOF</title>
<g id="a_node6"><a xlink:href="../api/proteus.AuxiliaryVariables.html#proteus.AuxiliaryVariables.GatherDOF" xlink:title="GatherDOF" target="_top">
<polygon fill="white" stroke="black" stroke-width="0.5" points="189,-241 122,-241 122,-222 189,-222 189,-241"/>
<text text-anchor="middle" x="155.5" y="-229" font-family="Vera Sans, DejaVu Sans, Liberation Sans, Arial, Helvetica, sans" font-size="10.00">GatherDOF</text>
</a>
</g>
</g>
<!-- AV_base&#45;&gt;GatherDOF -->
<g id="edge5" class="edge">
<title>AV_base&#45;&gt;GatherDOF</title>
<path fill="none" stroke="black" stroke-width="0.5" d="M56.27,-202.8C67.35,-206.16 80.28,-210.04 92,-213.5 99.98,-215.85 108.55,-218.34 116.7,-220.7"/>
<polygon fill="black" stroke="black" stroke-width="0.5" points="116.43,-222.44 121.72,-222.14 117.4,-219.08 116.43,-222.44"/>
</g>
<!-- MassOverRegion -->
<g id="node7" class="node">
<title>MassOverRegion</title>
<g id="a_node7"><a xlink:href="../api/proteus.AuxiliaryVariables.html#proteus.AuxiliaryVariables.MassOverRegion" xlink:title="MassOverRegion" target="_top">
<polygon fill="white" stroke="black" stroke-width="0.5" points="201.5,-204 109.5,-204 109.5,-185 201.5,-185 201.5,-204"/>
<text text-anchor="middle" x="155.5" y="-192" font-family="Vera Sans, DejaVu Sans, Liberation Sans, Arial, Helvetica, sans" font-size="10.00">MassOverRegion</text>
</a>
</g>
</g>
<!-- AV_base&#45;&gt;MassOverRegion -->
<g id="edge6" class="edge">
<title>AV_base&#45;&gt;MassOverRegion</title>
<path fill="none" stroke="black" stroke-width="0.5" d="M56.23,-194.5C70.21,-194.5 87.7,-194.5 104.03,-194.5"/>
<polygon fill="black" stroke="black" stroke-width="0.5" points="104.06,-196.25 109.06,-194.5 104.06,-192.75 104.06,-196.25"/>
</g>
<!-- PT123velocityGenerator -->
<g id="node8" class="node">
<title>PT123velocityGenerator</title>
<g id="a_node8"><a xlink:href="../api/proteus.AuxiliaryVariables.html#proteus.AuxiliaryVariables.PT123velocityGenerator" xlink:title="write out the velocity field from a model for PT123 to use in tracking as a" target="_top">
<polygon fill="white" stroke="black" stroke-width="0.5" points="216.5,-167 94.5,-167 94.5,-148 216.5,-148 216.5,-167"/>
<text text-anchor="middle" x="155.5" y="-155" font-family="Vera Sans, DejaVu Sans, Liberation Sans, Arial, Helvetica, sans" font-size="10.00">PT123velocityGenerator</text>
</a>
</g>
</g>
<!-- AV_base&#45;&gt;PT123velocityGenerator -->
<g id="edge7" class="edge">
<title>AV_base&#45;&gt;PT123velocityGenerator</title>
<path fill="none" stroke="black" stroke-width="0.5" d="M56.23,-186.47C74.04,-181.22 97.55,-174.29 117.1,-168.53"/>
<polygon fill="black" stroke="black" stroke-width="0.5" points="117.68,-170.18 121.98,-167.09 116.69,-166.82 117.68,-170.18"/>
</g>
<!-- PressureProfile -->
<g id="node9" class="node">
<title>PressureProfile</title>
<g id="a_node9"><a xlink:href="../api/proteus.AuxiliaryVariables.html#proteus.AuxiliaryVariables.PressureProfile" xlink:title="PressureProfile" target="_top">
<polygon fill="white" stroke="black" stroke-width="0.5" points="197,-130 114,-130 114,-111 197,-111 197,-130"/>
<text text-anchor="middle" x="155.5" y="-118" font-family="Vera Sans, DejaVu Sans, Liberation Sans, Arial, Helvetica, sans" font-size="10.00">PressureProfile</text>
</a>
</g>
</g>
<!-- AV_base&#45;&gt;PressureProfile -->
<g id="edge8" class="edge">
<title>AV_base&#45;&gt;PressureProfile</title>
<path fill="none" stroke="black" stroke-width="0.5" d="M37.45,-184.96C48.74,-172.76 69.91,-151.75 92,-139.5 97.35,-136.53 103.21,-133.98 109.14,-131.78"/>
<polygon fill="black" stroke="black" stroke-width="0.5" points="109.99,-133.34 114.13,-130.03 108.83,-130.04 109.99,-133.34"/>
</g>
<!-- RecirculationLength -->
<g id="node10" class="node">
<title>RecirculationLength</title>
<g id="a_node10"><a xlink:href="../api/proteus.AuxiliaryVariables.html#proteus.AuxiliaryVariables.RecirculationLength" xlink:title="RecirculationLength" target="_top">
<polygon fill="white" stroke="black" stroke-width="0.5" points="207,-93 104,-93 104,-74 207,-74 207,-93"/>
<text text-anchor="middle" x="155.5" y="-81" font-family="Vera Sans, DejaVu Sans, Liberation Sans, Arial, Helvetica, sans" font-size="10.00">RecirculationLength</text>
</a>
</g>
</g>
<!-- AV_base&#45;&gt;RecirculationLength -->
<g id="edge9" class="edge">
<title>AV_base&#45;&gt;RecirculationLength</title>
<path fill="none" stroke="black" stroke-width="0.5" d="M32.97,-184.83C41.15,-166.09 61.72,-124.71 92,-102.5 95.98,-99.58 100.41,-97.11 105.02,-95.01"/>
<polygon fill="black" stroke="black" stroke-width="0.5" points="105.77,-96.6 109.69,-93.04 104.4,-93.37 105.77,-96.6"/>
</g>
<!-- VelocityAverage -->
<g id="node11" class="node">
<title>VelocityAverage</title>
<g id="a_node11"><a xlink:href="../api/proteus.AuxiliaryVariables.html#proteus.AuxiliaryVariables.VelocityAverage" xlink:title="VelocityAverage" target="_top">
<polygon fill="white" stroke="black" stroke-width="0.5" points="199,-56 112,-56 112,-37 199,-37 199,-56"/>
<text text-anchor="middle" x="155.5" y="-44" font-family="Vera Sans, DejaVu Sans, Liberation Sans, Arial, Helvetica, sans" font-size="10.00">VelocityAverage</text>
</a>
</g>
</g>
<!-- AV_base&#45;&gt;VelocityAverage -->
<g id="edge10" class="edge">
<title>AV_base&#45;&gt;VelocityAverage</title>
<path fill="none" stroke="black" stroke-width="0.5" d="M30.95,-184.78C36.27,-160.81 53.3,-98.48 92,-65.5 96.45,-61.71 101.64,-58.67 107.1,-56.24"/>
<polygon fill="black" stroke="black" stroke-width="0.5" points="107.77,-57.86 111.73,-54.34 106.44,-54.62 107.77,-57.86"/>
</g>
<!-- VelocityNormOverRegion -->
<g id="node12" class="node">
<title>VelocityNormOverRegion</title>
<g id="a_node12"><a xlink:href="../api/proteus.AuxiliaryVariables.html#proteus.AuxiliaryVariables.VelocityNormOverRegion" xlink:title="VelocityNormOverRegion" target="_top">
<polygon fill="white" stroke="black" stroke-width="0.5" points="219,-19 92,-19 92,0 219,0 219,-19"/>
<text text-anchor="middle" x="155.5" y="-7" font-family="Vera Sans, DejaVu Sans, Liberation Sans, Arial, Helvetica, sans" font-size="10.00">VelocityNormOverRegion</text>
</a>
</g>
</g>
<!-- AV_base&#45;&gt;VelocityNormOverRegion -->
<g id="edge11" class="edge">
<title>AV_base&#45;&gt;VelocityNormOverRegion</title>
<path fill="none" stroke="black" stroke-width="0.5" d="M29.79,-184.63C32.61,-156.09 44.71,-72.7 92,-28.5 94.85,-25.84 98.06,-23.55 101.48,-21.58"/>
<polygon fill="black" stroke="black" stroke-width="0.5" points="102.64,-22.95 106.27,-19.09 101.03,-19.84 102.64,-22.95"/>
</g>
</g>
</svg>
