<?xml version="1.0" encoding="UTF-8" standalone="no"?>
<!DOCTYPE svg PUBLIC "-//W3C//DTD SVG 1.1//EN"
 "http://www.w3.org/Graphics/SVG/1.1/DTD/svg11.dtd">
<!-- Generated by graphviz version 2.44.1 (20200629.0846)
 -->
<!-- Title: inheritance51f61a8c20 Pages: 1 -->
<svg width="428pt" height="101pt"
 viewBox="0.00 0.00 428.00 101.00" xmlns="http://www.w3.org/2000/svg" xmlns:xlink="http://www.w3.org/1999/xlink">
<g id="graph0" class="graph" transform="scale(1 1) rotate(0) translate(4 97)">
<title>inheritance51f61a8c20</title>
<!-- TC_base -->
<g id="node1" class="node">
<title>TC_base</title>
<g id="a_node1"><a xlink:href="../proteus.TransportCoefficients.html#proteus.TransportCoefficients.TC_base" xlink:title="This is the base class for coefficients of the vector transport" target="_top">
<polygon fill="white" stroke="black" stroke-width="0.5" points="56,-56 0,-56 0,-37 56,-37 56,-56"/>
<text text-anchor="middle" x="28" y="-44" font-family="Vera Sans, DejaVu Sans, Liberation Sans, Arial, Helvetica, sans" font-size="10.00">TC_base</text>
</a>
</g>
</g>
<!-- TwophaseDarcyFlow_base -->
<g id="node2" class="node">
<title>TwophaseDarcyFlow_base</title>
<g id="a_node2"><a xlink:href="../api/proteus.TwophaseDarcyCoefficients.html#proteus.TwophaseDarcyCoefficients.TwophaseDarcyFlow_base" xlink:title="TwophaseDarcyFlow_base" target="_top">
<polygon fill="white" stroke="black" stroke-width="0.5" points="226,-56 92,-56 92,-37 226,-37 226,-56"/>
<text text-anchor="middle" x="159" y="-44" font-family="Vera Sans, DejaVu Sans, Liberation Sans, Arial, Helvetica, sans" font-size="10.00">TwophaseDarcyFlow_base</text>
</a>
</g>
</g>
<!-- TC_base&#45;&gt;TwophaseDarcyFlow_base -->
<g id="edge1" class="edge">
<title>TC_base&#45;&gt;TwophaseDarcyFlow_base</title>
<path fill="none" stroke="black" stroke-width="0.5" d="M56.04,-46.5C65.2,-46.5 75.91,-46.5 86.87,-46.5"/>
<polygon fill="black" stroke="black" stroke-width="0.5" points="86.92,-48.25 91.92,-46.5 86.92,-44.75 86.92,-48.25"/>
</g>
<!-- TwophaseDarcy_fc -->
<g id="node3" class="node">
<title>TwophaseDarcy_fc</title>
<g id="a_node3"><a xlink:href="../api/proteus.TwophaseDarcyCoefficients.html#proteus.TwophaseDarcyCoefficients.TwophaseDarcy_fc" xlink:title="TwophaseDarcy_fc" target="_top">
<polygon fill="white" stroke="black" stroke-width="0.5" points="391.5,-93 290.5,-93 290.5,-74 391.5,-74 391.5,-93"/>
<text text-anchor="middle" x="341" y="-81" font-family="Vera Sans, DejaVu Sans, Liberation Sans, Arial, Helvetica, sans" font-size="10.00">TwophaseDarcy_fc</text>
</a>
</g>
</g>
<!-- TwophaseDarcyFlow_base&#45;&gt;TwophaseDarcy_fc -->
<g id="edge2" class="edge">
<title>TwophaseDarcyFlow_base&#45;&gt;TwophaseDarcy_fc</title>
<path fill="none" stroke="black" stroke-width="0.5" d="M206.35,-56.03C231.45,-61.19 262.52,-67.57 288.39,-72.89"/>
<polygon fill="black" stroke="black" stroke-width="0.5" points="288.24,-74.65 293.49,-73.94 288.94,-71.22 288.24,-74.65"/>
</g>
<!-- TwophaseDarcy_split_pressure -->
<g id="node4" class="node">
<title>TwophaseDarcy_split_pressure</title>
<g id="a_node4"><a xlink:href="../api/proteus.TwophaseDarcyCoefficients.html#proteus.TwophaseDarcyCoefficients.TwophaseDarcy_split_pressure" xlink:title="TwophaseDarcy_split_pressure" target="_top">
<polygon fill="white" stroke="black" stroke-width="0.5" points="417.5,-56 264.5,-56 264.5,-37 417.5,-37 417.5,-56"/>
<text text-anchor="middle" x="341" y="-44" font-family="Vera Sans, DejaVu Sans, Liberation Sans, Arial, Helvetica, sans" font-size="10.00">TwophaseDarcy_split_pressure</text>
</a>
</g>
</g>
<!-- TwophaseDarcyFlow_base&#45;&gt;TwophaseDarcy_split_pressure -->
<g id="edge3" class="edge">
<title>TwophaseDarcyFlow_base&#45;&gt;TwophaseDarcy_split_pressure</title>
<path fill="none" stroke="black" stroke-width="0.5" d="M226,-46.5C236.79,-46.5 248.08,-46.5 259.18,-46.5"/>
<polygon fill="black" stroke="black" stroke-width="0.5" points="259.26,-48.25 264.26,-46.5 259.26,-44.75 259.26,-48.25"/>
</g>
<!-- TwophaseDarcy_split_saturation -->
<g id="node5" class="node">
<title>TwophaseDarcy_split_saturation</title>
<g id="a_node5"><a xlink:href="../api/proteus.TwophaseDarcyCoefficients.html#proteus.TwophaseDarcyCoefficients.TwophaseDarcy_split_saturation" xlink:title="TwophaseDarcy_split_saturation" target="_top">
<polygon fill="white" stroke="black" stroke-width="0.5" points="420,-19 262,-19 262,0 420,0 420,-19"/>
<text text-anchor="middle" x="341" y="-7" font-family="Vera Sans, DejaVu Sans, Liberation Sans, Arial, Helvetica, sans" font-size="10.00">TwophaseDarcy_split_saturation</text>
</a>
</g>
</g>
<!-- TwophaseDarcyFlow_base&#45;&gt;TwophaseDarcy_split_saturation -->
<g id="edge4" class="edge">
<title>TwophaseDarcyFlow_base&#45;&gt;TwophaseDarcy_split_saturation</title>
<path fill="none" stroke="black" stroke-width="0.5" d="M206.35,-36.97C231.45,-31.81 262.52,-25.43 288.39,-20.11"/>
<polygon fill="black" stroke="black" stroke-width="0.5" points="288.94,-21.78 293.49,-19.06 288.24,-18.35 288.94,-21.78"/>
</g>
</g>
</svg>
