<?xml version="1.0" encoding="UTF-8" standalone="no"?>
<!DOCTYPE svg PUBLIC "-//W3C//DTD SVG 1.1//EN"
 "http://www.w3.org/Graphics/SVG/1.1/DTD/svg11.dtd">
<!-- Generated by graphviz version 2.44.1 (20200629.0846)
 -->
<!-- Title: inheritancee01062b6ab Pages: 1 -->
<svg width="851pt" height="619pt"
 viewBox="0.00 0.00 851.00 619.00" xmlns="http://www.w3.org/2000/svg" xmlns:xlink="http://www.w3.org/1999/xlink">
<g id="graph0" class="graph" transform="scale(1 1) rotate(0) translate(4 615)">
<title>inheritancee01062b6ab</title>
<!-- AdvectionDiffusionReactionHaukeSangalliInterpolantWithTransientSubScales_ASGS -->
<g id="node1" class="node">
<title>AdvectionDiffusionReactionHaukeSangalliInterpolantWithTransientSubScales_ASGS</title>
<g id="a_node1"><a xlink:href="../api/proteus.SubgridError.html#proteus.SubgridError.AdvectionDiffusionReactionHaukeSangalliInterpolantWithTransientSubScales_ASGS" xlink:title="Should be basic Hauke Sangalli approach but computes terms at interpolation points" target="_top">
<polygon fill="white" stroke="black" stroke-width="0.5" points="843,-611 456,-611 456,-592 843,-592 843,-611"/>
<text text-anchor="middle" x="649.5" y="-599" font-family="Vera Sans, DejaVu Sans, Liberation Sans, Arial, Helvetica, sans" font-size="10.00">AdvectionDiffusionReactionHaukeSangalliInterpolantWithTransientSubScales_ASGS</text>
</a>
</g>
</g>
<!-- AdvectionDiffusionReactionHaukeSangalliInterpolant_ASGS -->
<g id="node2" class="node">
<title>AdvectionDiffusionReactionHaukeSangalliInterpolant_ASGS</title>
<g id="a_node2"><a xlink:href="../api/proteus.SubgridError.html#proteus.SubgridError.AdvectionDiffusionReactionHaukeSangalliInterpolant_ASGS" xlink:title="Should be basic Hauke Sangalli approach but computes terms at interpolation points" target="_top">
<polygon fill="white" stroke="black" stroke-width="0.5" points="420,-611 141,-611 141,-592 420,-592 420,-611"/>
<text text-anchor="middle" x="280.5" y="-599" font-family="Vera Sans, DejaVu Sans, Liberation Sans, Arial, Helvetica, sans" font-size="10.00">AdvectionDiffusionReactionHaukeSangalliInterpolant_ASGS</text>
</a>
</g>
</g>
<!-- AdvectionDiffusionReactionHaukeSangalliInterpolant_ASGS&#45;&gt;AdvectionDiffusionReactionHaukeSangalliInterpolantWithTransientSubScales_ASGS -->
<g id="edge1" class="edge">
<title>AdvectionDiffusionReactionHaukeSangalliInterpolant_ASGS&#45;&gt;AdvectionDiffusionReactionHaukeSangalliInterpolantWithTransientSubScales_ASGS</title>
<path fill="none" stroke="black" stroke-width="0.5" d="M420.25,-601.5C430.28,-601.5 440.5,-601.5 450.78,-601.5"/>
<polygon fill="black" stroke="black" stroke-width="0.5" points="450.83,-603.25 455.83,-601.5 450.83,-599.75 450.83,-603.25"/>
</g>
<!-- SGE_base -->
<g id="node3" class="node">
<title>SGE_base</title>
<g id="a_node3"><a xlink:href="../api/proteus.SubgridError.html#proteus.SubgridError.SGE_base" xlink:title="SGE_base" target="_top">
<polygon fill="white" stroke="black" stroke-width="0.5" points="84.5,-315 20.5,-315 20.5,-296 84.5,-296 84.5,-315"/>
<text text-anchor="middle" x="52.5" y="-303" font-family="Vera Sans, DejaVu Sans, Liberation Sans, Arial, Helvetica, sans" font-size="10.00">SGE_base</text>
</a>
</g>
</g>
<!-- SGE_base&#45;&gt;AdvectionDiffusionReactionHaukeSangalliInterpolant_ASGS -->
<g id="edge2" class="edge">
<title>SGE_base&#45;&gt;AdvectionDiffusionReactionHaukeSangalliInterpolant_ASGS</title>
<path fill="none" stroke="black" stroke-width="0.5" d="M84.67,-311.06C92.36,-313.88 99.86,-318.12 105,-324.5 177.87,-415.03 58.46,-501.69 141,-583.5 142.89,-585.37 144.88,-587.12 146.94,-588.75"/>
<polygon fill="black" stroke="black" stroke-width="0.5" points="146.22,-590.39 151.29,-591.92 148.28,-587.56 146.22,-590.39"/>
</g>
<!-- AdvectionDiffusionReaction_ASGS -->
<g id="node5" class="node">
<title>AdvectionDiffusionReaction_ASGS</title>
<g id="a_node5"><a xlink:href="../api/proteus.SubgridError.html#proteus.SubgridError.AdvectionDiffusionReaction_ASGS" xlink:title="AdvectionDiffusionReaction_ASGS" target="_top">
<polygon fill="white" stroke="black" stroke-width="0.5" points="365.5,-574 195.5,-574 195.5,-555 365.5,-555 365.5,-574"/>
<text text-anchor="middle" x="280.5" y="-562" font-family="Vera Sans, DejaVu Sans, Liberation Sans, Arial, Helvetica, sans" font-size="10.00">AdvectionDiffusionReaction_ASGS</text>
</a>
</g>
</g>
<!-- SGE_base&#45;&gt;AdvectionDiffusionReaction_ASGS -->
<g id="edge4" class="edge">
<title>SGE_base&#45;&gt;AdvectionDiffusionReaction_ASGS</title>
<path fill="none" stroke="black" stroke-width="0.5" d="M84.58,-311.14C92.27,-313.95 99.79,-318.17 105,-324.5 168.55,-401.65 69.22,-476.94 141,-546.5 154.29,-559.38 171.97,-566.18 190.23,-569.38"/>
<polygon fill="black" stroke="black" stroke-width="0.5" points="190.19,-571.14 195.4,-570.19 190.73,-567.68 190.19,-571.14"/>
</g>
<!-- AdvectionLag_ASGS -->
<g id="node6" class="node">
<title>AdvectionLag_ASGS</title>
<g id="a_node6"><a xlink:href="../api/proteus.SubgridError.html#proteus.SubgridError.AdvectionLag_ASGS" xlink:title="AdvectionLag_ASGS" target="_top">
<polygon fill="white" stroke="black" stroke-width="0.5" points="335,-537 226,-537 226,-518 335,-518 335,-537"/>
<text text-anchor="middle" x="280.5" y="-525" font-family="Vera Sans, DejaVu Sans, Liberation Sans, Arial, Helvetica, sans" font-size="10.00">AdvectionLag_ASGS</text>
</a>
</g>
</g>
<!-- SGE_base&#45;&gt;AdvectionLag_ASGS -->
<g id="edge5" class="edge">
<title>SGE_base&#45;&gt;AdvectionLag_ASGS</title>
<path fill="none" stroke="black" stroke-width="0.5" d="M84.71,-311.35C92.31,-314.16 99.75,-318.33 105,-324.5 159.27,-388.31 79.93,-452.16 141,-509.5 161.97,-529.19 193.24,-534.49 220.76,-534.52"/>
<polygon fill="black" stroke="black" stroke-width="0.5" points="220.88,-536.27 225.86,-534.47 220.84,-532.77 220.88,-536.27"/>
</g>
<!-- Advection_ASGS -->
<g id="node7" class="node">
<title>Advection_ASGS</title>
<g id="a_node7"><a xlink:href="../api/proteus.SubgridError.html#proteus.SubgridError.Advection_ASGS" xlink:title="Advection_ASGS" target="_top">
<polygon fill="white" stroke="black" stroke-width="0.5" points="327,-500 234,-500 234,-481 327,-481 327,-500"/>
<text text-anchor="middle" x="280.5" y="-488" font-family="Vera Sans, DejaVu Sans, Liberation Sans, Arial, Helvetica, sans" font-size="10.00">Advection_ASGS</text>
</a>
</g>
</g>
<!-- SGE_base&#45;&gt;Advection_ASGS -->
<g id="edge6" class="edge">
<title>SGE_base&#45;&gt;Advection_ASGS</title>
<path fill="none" stroke="black" stroke-width="0.5" d="M84.52,-311.51C92.12,-314.33 99.61,-318.45 105,-324.5 150.04,-375.04 90.59,-427.32 141,-472.5 164.37,-493.45 199.52,-497.81 228.56,-497.01"/>
<polygon fill="black" stroke="black" stroke-width="0.5" points="228.98,-498.75 233.91,-496.8 228.84,-495.25 228.98,-498.75"/>
</g>
<!-- DarcyFC_ASGS -->
<g id="node8" class="node">
<title>DarcyFC_ASGS</title>
<g id="a_node8"><a xlink:href="../api/proteus.SubgridError.html#proteus.SubgridError.DarcyFC_ASGS" xlink:title="basic stablization for TwophaseDarcy_fc, no advection term" target="_top">
<polygon fill="white" stroke="black" stroke-width="0.5" points="325,-463 236,-463 236,-444 325,-444 325,-463"/>
<text text-anchor="middle" x="280.5" y="-451" font-family="Vera Sans, DejaVu Sans, Liberation Sans, Arial, Helvetica, sans" font-size="10.00">DarcyFC_ASGS</text>
</a>
</g>
</g>
<!-- SGE_base&#45;&gt;DarcyFC_ASGS -->
<g id="edge7" class="edge">
<title>SGE_base&#45;&gt;DarcyFC_ASGS</title>
<path fill="none" stroke="black" stroke-width="0.5" d="M84.76,-311.99C92.18,-314.79 99.52,-318.8 105,-324.5 140.94,-361.9 101.11,-402.36 141,-435.5 165.49,-455.85 201.31,-460.06 230.38,-459.33"/>
<polygon fill="black" stroke="black" stroke-width="0.5" points="230.79,-461.07 235.72,-459.14 230.66,-457.57 230.79,-461.07"/>
</g>
<!-- FFDarcyFC_ASGS -->
<g id="node9" class="node">
<title>FFDarcyFC_ASGS</title>
<g id="a_node9"><a xlink:href="../api/proteus.SubgridError.html#proteus.SubgridError.FFDarcyFC_ASGS" xlink:title="basic stablization for TwophaseDarcy_fc_ff, only &#39;mixture&#39; equation has advection term" target="_top">
<polygon fill="white" stroke="black" stroke-width="0.5" points="331,-426 230,-426 230,-407 331,-407 331,-426"/>
<text text-anchor="middle" x="280.5" y="-414" font-family="Vera Sans, DejaVu Sans, Liberation Sans, Arial, Helvetica, sans" font-size="10.00">FFDarcyFC_ASGS</text>
</a>
</g>
</g>
<!-- SGE_base&#45;&gt;FFDarcyFC_ASGS -->
<g id="edge8" class="edge">
<title>SGE_base&#45;&gt;FFDarcyFC_ASGS</title>
<path fill="none" stroke="black" stroke-width="0.5" d="M84.5,-312.63C91.84,-315.42 99.21,-319.26 105,-324.5 132.11,-349.05 111.31,-377.14 141,-398.5 164.9,-415.7 197.3,-420.63 224.74,-421.06"/>
<polygon fill="black" stroke="black" stroke-width="0.5" points="224.8,-422.81 229.81,-421.09 224.82,-419.31 224.8,-422.81"/>
</g>
<!-- HamiltonJacobiDiffusionReaction_ASGS -->
<g id="node10" class="node">
<title>HamiltonJacobiDiffusionReaction_ASGS</title>
<g id="a_node10"><a xlink:href="../api/proteus.SubgridError.html#proteus.SubgridError.HamiltonJacobiDiffusionReaction_ASGS" xlink:title="HamiltonJacobiDiffusionReaction_ASGS" target="_top">
<polygon fill="white" stroke="black" stroke-width="0.5" points="377.5,-389 183.5,-389 183.5,-370 377.5,-370 377.5,-389"/>
<text text-anchor="middle" x="280.5" y="-377" font-family="Vera Sans, DejaVu Sans, Liberation Sans, Arial, Helvetica, sans" font-size="10.00">HamiltonJacobiDiffusionReaction_ASGS</text>
</a>
</g>
</g>
<!-- SGE_base&#45;&gt;HamiltonJacobiDiffusionReaction_ASGS -->
<g id="edge9" class="edge">
<title>SGE_base&#45;&gt;HamiltonJacobiDiffusionReaction_ASGS</title>
<path fill="none" stroke="black" stroke-width="0.5" d="M84.53,-314.41C91.55,-317.1 98.77,-320.45 105,-324.5 124.24,-337 120.48,-351.23 141,-361.5 152.48,-367.25 165.15,-371.39 178.01,-374.34"/>
<polygon fill="black" stroke="black" stroke-width="0.5" points="177.88,-376.11 183.13,-375.46 178.62,-372.69 177.88,-376.11"/>
</g>
<!-- HamiltonJacobi_ASGS -->
<g id="node11" class="node">
<title>HamiltonJacobi_ASGS</title>
<g id="a_node11"><a xlink:href="../api/proteus.SubgridError.html#proteus.SubgridError.HamiltonJacobi_ASGS" xlink:title="HamiltonJacobi_ASGS" target="_top">
<polygon fill="white" stroke="black" stroke-width="0.5" points="339,-352 222,-352 222,-333 339,-333 339,-352"/>
<text text-anchor="middle" x="280.5" y="-340" font-family="Vera Sans, DejaVu Sans, Liberation Sans, Arial, Helvetica, sans" font-size="10.00">HamiltonJacobi_ASGS</text>
</a>
</g>
</g>
<!-- SGE_base&#45;&gt;HamiltonJacobi_ASGS -->
<g id="edge10" class="edge">
<title>SGE_base&#45;&gt;HamiltonJacobi_ASGS</title>
<path fill="none" stroke="black" stroke-width="0.5" d="M84.56,-312.91C101.22,-316.72 122.16,-321.24 141,-324.5 165.65,-328.77 192.92,-332.52 216.7,-335.48"/>
<polygon fill="black" stroke="black" stroke-width="0.5" points="216.54,-337.22 221.72,-336.1 216.97,-333.75 216.54,-337.22"/>
</g>
<!-- HamiltonJacobi_ASGS_opt -->
<g id="node12" class="node">
<title>HamiltonJacobi_ASGS_opt</title>
<g id="a_node12"><a xlink:href="../api/proteus.SubgridError.html#proteus.SubgridError.HamiltonJacobi_ASGS_opt" xlink:title="HamiltonJacobi_ASGS_opt" target="_top">
<polygon fill="white" stroke="black" stroke-width="0.5" points="348.5,-315 212.5,-315 212.5,-296 348.5,-296 348.5,-315"/>
<text text-anchor="middle" x="280.5" y="-303" font-family="Vera Sans, DejaVu Sans, Liberation Sans, Arial, Helvetica, sans" font-size="10.00">HamiltonJacobi_ASGS_opt</text>
</a>
</g>
</g>
<!-- SGE_base&#45;&gt;HamiltonJacobi_ASGS_opt -->
<g id="edge11" class="edge">
<title>SGE_base&#45;&gt;HamiltonJacobi_ASGS_opt</title>
<path fill="none" stroke="black" stroke-width="0.5" d="M84.92,-305.5C116.33,-305.5 165.73,-305.5 206.9,-305.5"/>
<polygon fill="black" stroke="black" stroke-width="0.5" points="207.13,-307.25 212.13,-305.5 207.13,-303.75 207.13,-307.25"/>
</g>
<!-- NavierStokesASGS_velocity_pressure -->
<g id="node13" class="node">
<title>NavierStokesASGS_velocity_pressure</title>
<g id="a_node13"><a xlink:href="../api/proteus.SubgridError.html#proteus.SubgridError.NavierStokesASGS_velocity_pressure" xlink:title="NavierStokesASGS_velocity_pressure" target="_top">
<polygon fill="white" stroke="black" stroke-width="0.5" points="373,-278 188,-278 188,-259 373,-259 373,-278"/>
<text text-anchor="middle" x="280.5" y="-266" font-family="Vera Sans, DejaVu Sans, Liberation Sans, Arial, Helvetica, sans" font-size="10.00">NavierStokesASGS_velocity_pressure</text>
</a>
</g>
</g>
<!-- SGE_base&#45;&gt;NavierStokesASGS_velocity_pressure -->
<g id="edge12" class="edge">
<title>SGE_base&#45;&gt;NavierStokesASGS_velocity_pressure</title>
<path fill="none" stroke="black" stroke-width="0.5" d="M84.59,-298.58C101.26,-295 122.2,-290.72 141,-287.5 159.37,-284.35 179.18,-281.39 197.91,-278.77"/>
<polygon fill="black" stroke="black" stroke-width="0.5" points="198.45,-280.46 203.16,-278.05 197.97,-277 198.45,-280.46"/>
</g>
<!-- NavierStokesASGS_velocity_pressure_opt -->
<g id="node14" class="node">
<title>NavierStokesASGS_velocity_pressure_opt</title>
<g id="a_node14"><a xlink:href="../api/proteus.SubgridError.html#proteus.SubgridError.NavierStokesASGS_velocity_pressure_opt" xlink:title="NavierStokesASGS_velocity_pressure_opt" target="_top">
<polygon fill="white" stroke="black" stroke-width="0.5" points="382.5,-241 178.5,-241 178.5,-222 382.5,-222 382.5,-241"/>
<text text-anchor="middle" x="280.5" y="-229" font-family="Vera Sans, DejaVu Sans, Liberation Sans, Arial, Helvetica, sans" font-size="10.00">NavierStokesASGS_velocity_pressure_opt</text>
</a>
</g>
</g>
<!-- SGE_base&#45;&gt;NavierStokesASGS_velocity_pressure_opt -->
<g id="edge13" class="edge">
<title>SGE_base&#45;&gt;NavierStokesASGS_velocity_pressure_opt</title>
<path fill="none" stroke="black" stroke-width="0.5" d="M65.1,-295.91C81.09,-283.24 111.32,-261.29 141,-250.5 151.29,-246.76 162.24,-243.75 173.32,-241.32"/>
<polygon fill="black" stroke="black" stroke-width="0.5" points="173.89,-242.99 178.42,-240.25 173.16,-239.57 173.89,-242.99"/>
</g>
<!-- NavierStokesASGS_velocity_pressure_optV2 -->
<g id="node15" class="node">
<title>NavierStokesASGS_velocity_pressure_optV2</title>
<g id="a_node15"><a xlink:href="../api/proteus.SubgridError.html#proteus.SubgridError.NavierStokesASGS_velocity_pressure_optV2" xlink:title="NavierStokesASGS_velocity_pressure_optV2" target="_top">
<polygon fill="white" stroke="black" stroke-width="0.5" points="388.5,-204 172.5,-204 172.5,-185 388.5,-185 388.5,-204"/>
<text text-anchor="middle" x="280.5" y="-192" font-family="Vera Sans, DejaVu Sans, Liberation Sans, Arial, Helvetica, sans" font-size="10.00">NavierStokesASGS_velocity_pressure_optV2</text>
</a>
</g>
</g>
<!-- SGE_base&#45;&gt;NavierStokesASGS_velocity_pressure_optV2 -->
<g id="edge14" class="edge">
<title>SGE_base&#45;&gt;NavierStokesASGS_velocity_pressure_optV2</title>
<path fill="none" stroke="black" stroke-width="0.5" d="M59.33,-295.95C71.68,-276.66 102.55,-233.2 141,-213.5 149.2,-209.3 158.02,-205.93 167.08,-203.23"/>
<polygon fill="black" stroke="black" stroke-width="0.5" points="167.81,-204.84 172.14,-201.8 166.86,-201.47 167.81,-204.84"/>
</g>
<!-- ShallowWater_CFL -->
<g id="node18" class="node">
<title>ShallowWater_CFL</title>
<g id="a_node18"><a xlink:href="../api/proteus.SubgridError.html#proteus.SubgridError.ShallowWater_CFL" xlink:title="ShallowWater_CFL" target="_top">
<polygon fill="white" stroke="black" stroke-width="0.5" points="331,-167 230,-167 230,-148 331,-148 331,-167"/>
<text text-anchor="middle" x="280.5" y="-155" font-family="Vera Sans, DejaVu Sans, Liberation Sans, Arial, Helvetica, sans" font-size="10.00">ShallowWater_CFL</text>
</a>
</g>
</g>
<!-- SGE_base&#45;&gt;ShallowWater_CFL -->
<g id="edge17" class="edge">
<title>SGE_base&#45;&gt;ShallowWater_CFL</title>
<path fill="none" stroke="black" stroke-width="0.5" d="M56.92,-295.66C66.11,-270.88 93.87,-205.76 141,-176.5 165.65,-161.2 197.47,-156.04 224.4,-154.9"/>
<polygon fill="black" stroke="black" stroke-width="0.5" points="224.78,-156.64 229.72,-154.72 224.66,-153.14 224.78,-156.64"/>
</g>
<!-- StokesASGS_velocity -->
<g id="node20" class="node">
<title>StokesASGS_velocity</title>
<g id="a_node20"><a xlink:href="../api/proteus.SubgridError.html#proteus.SubgridError.StokesASGS_velocity" xlink:title="StokesASGS_velocity" target="_top">
<polygon fill="white" stroke="black" stroke-width="0.5" points="337.5,-130 223.5,-130 223.5,-111 337.5,-111 337.5,-130"/>
<text text-anchor="middle" x="280.5" y="-118" font-family="Vera Sans, DejaVu Sans, Liberation Sans, Arial, Helvetica, sans" font-size="10.00">StokesASGS_velocity</text>
</a>
</g>
</g>
<!-- SGE_base&#45;&gt;StokesASGS_velocity -->
<g id="edge18" class="edge">
<title>SGE_base&#45;&gt;StokesASGS_velocity</title>
<path fill="none" stroke="black" stroke-width="0.5" d="M55.35,-295.99C61.55,-266.96 84.43,-179.12 141,-139.5 163.18,-123.97 192.33,-118.36 218.16,-116.99"/>
<polygon fill="black" stroke="black" stroke-width="0.5" points="218.36,-118.73 223.28,-116.76 218.21,-115.23 218.36,-118.73"/>
</g>
<!-- StokesASGS_velocity_pressure -->
<g id="node21" class="node">
<title>StokesASGS_velocity_pressure</title>
<g id="a_node21"><a xlink:href="../api/proteus.SubgridError.html#proteus.SubgridError.StokesASGS_velocity_pressure" xlink:title="StokesASGS_velocity_pressure" target="_top">
<polygon fill="white" stroke="black" stroke-width="0.5" points="359,-93 202,-93 202,-74 359,-74 359,-93"/>
<text text-anchor="middle" x="280.5" y="-81" font-family="Vera Sans, DejaVu Sans, Liberation Sans, Arial, Helvetica, sans" font-size="10.00">StokesASGS_velocity_pressure</text>
</a>
</g>
</g>
<!-- SGE_base&#45;&gt;StokesASGS_velocity_pressure -->
<g id="edge19" class="edge">
<title>SGE_base&#45;&gt;StokesASGS_velocity_pressure</title>
<path fill="none" stroke="black" stroke-width="0.5" d="M54.41,-295.86C58.09,-262.7 75.01,-152.67 141,-102.5 156.94,-90.38 176.99,-84.1 196.85,-81.15"/>
<polygon fill="black" stroke="black" stroke-width="0.5" points="197.17,-82.87 201.89,-80.47 196.7,-79.41 197.17,-82.87"/>
</g>
<!-- StokesStabilization_1 -->
<g id="node22" class="node">
<title>StokesStabilization_1</title>
<g id="a_node22"><a xlink:href="../api/proteus.SubgridError.html#proteus.SubgridError.StokesStabilization_1" xlink:title="StokesStabilization_1" target="_top">
<polygon fill="white" stroke="black" stroke-width="0.5" points="336,-56 225,-56 225,-37 336,-37 336,-56"/>
<text text-anchor="middle" x="280.5" y="-44" font-family="Vera Sans, DejaVu Sans, Liberation Sans, Arial, Helvetica, sans" font-size="10.00">StokesStabilization_1</text>
</a>
</g>
</g>
<!-- SGE_base&#45;&gt;StokesStabilization_1 -->
<g id="edge20" class="edge">
<title>SGE_base&#45;&gt;StokesStabilization_1</title>
<path fill="none" stroke="black" stroke-width="0.5" d="M53.71,-295.98C55.07,-259.37 65.23,-126.62 141,-65.5 162.69,-48 192.8,-42.38 219.4,-41.5"/>
<polygon fill="black" stroke="black" stroke-width="0.5" points="219.71,-43.24 224.67,-41.38 219.63,-39.74 219.71,-43.24"/>
</g>
<!-- TwophaseStokes_LS_FC_ASGS -->
<g id="node23" class="node">
<title>TwophaseStokes_LS_FC_ASGS</title>
<g id="a_node23"><a xlink:href="../api/proteus.SubgridError.html#proteus.SubgridError.TwophaseStokes_LS_FC_ASGS" xlink:title="TwophaseStokes_LS_FC_ASGS" target="_top">
<polygon fill="white" stroke="black" stroke-width="0.5" points="361,-19 200,-19 200,0 361,0 361,-19"/>
<text text-anchor="middle" x="280.5" y="-7" font-family="Vera Sans, DejaVu Sans, Liberation Sans, Arial, Helvetica, sans" font-size="10.00">TwophaseStokes_LS_FC_ASGS</text>
</a>
</g>
</g>
<!-- SGE_base&#45;&gt;TwophaseStokes_LS_FC_ASGS -->
<g id="edge21" class="edge">
<title>SGE_base&#45;&gt;TwophaseStokes_LS_FC_ASGS</title>
<path fill="none" stroke="black" stroke-width="0.5" d="M53.16,-295.91C52.33,-255.73 54.91,-99.65 141,-27.5 156.08,-14.86 175.51,-8.43 195.02,-5.53"/>
<polygon fill="black" stroke="black" stroke-width="0.5" points="195.25,-7.27 199.97,-4.87 194.79,-3.8 195.25,-7.27"/>
</g>
<!-- AdvectionDiffusionReactionTransientSubscales_ASGS -->
<g id="node4" class="node">
<title>AdvectionDiffusionReactionTransientSubscales_ASGS</title>
<g id="a_node4"><a xlink:href="../api/proteus.SubgridError.html#proteus.SubgridError.AdvectionDiffusionReactionTransientSubscales_ASGS" xlink:title="track subgrid scales in time with Backward Euler" target="_top">
<polygon fill="white" stroke="black" stroke-width="0.5" points="778,-574 521,-574 521,-555 778,-555 778,-574"/>
<text text-anchor="middle" x="649.5" y="-562" font-family="Vera Sans, DejaVu Sans, Liberation Sans, Arial, Helvetica, sans" font-size="10.00">AdvectionDiffusionReactionTransientSubscales_ASGS</text>
</a>
</g>
</g>
<!-- AdvectionDiffusionReaction_ASGS&#45;&gt;AdvectionDiffusionReactionTransientSubscales_ASGS -->
<g id="edge3" class="edge">
<title>AdvectionDiffusionReaction_ASGS&#45;&gt;AdvectionDiffusionReactionTransientSubscales_ASGS</title>
<path fill="none" stroke="black" stroke-width="0.5" d="M365.7,-564.5C410.09,-564.5 465.59,-564.5 515.63,-564.5"/>
<polygon fill="black" stroke="black" stroke-width="0.5" points="515.77,-566.25 520.77,-564.5 515.77,-562.75 515.77,-566.25"/>
</g>
<!-- NavierStokesTransientSubScalesASGS_velocity_pressure -->
<g id="node16" class="node">
<title>NavierStokesTransientSubScalesASGS_velocity_pressure</title>
<g id="a_node16"><a xlink:href="../api/proteus.SubgridError.html#proteus.SubgridError.NavierStokesTransientSubScalesASGS_velocity_pressure" xlink:title="NavierStokesTransientSubScalesASGS_velocity_pressure" target="_top">
<polygon fill="white" stroke="black" stroke-width="0.5" points="786,-297 513,-297 513,-278 786,-278 786,-297"/>
<text text-anchor="middle" x="649.5" y="-285" font-family="Vera Sans, DejaVu Sans, Liberation Sans, Arial, Helvetica, sans" font-size="10.00">NavierStokesTransientSubScalesASGS_velocity_pressure</text>
</a>
</g>
</g>
<!-- NavierStokesASGS_velocity_pressure&#45;&gt;NavierStokesTransientSubScalesASGS_velocity_pressure -->
<g id="edge15" class="edge">
<title>NavierStokesASGS_velocity_pressure&#45;&gt;NavierStokesTransientSubScalesASGS_velocity_pressure</title>
<path fill="none" stroke="black" stroke-width="0.5" d="M373.16,-273.25C413.84,-275.35 462.64,-277.88 507.78,-280.21"/>
<polygon fill="black" stroke="black" stroke-width="0.5" points="507.9,-281.97 512.98,-280.48 508.08,-278.48 507.9,-281.97"/>
</g>
<!-- NavierStokesWithBodyForceASGS_velocity_pressure -->
<g id="node17" class="node">
<title>NavierStokesWithBodyForceASGS_velocity_pressure</title>
<g id="a_node17"><a xlink:href="../api/proteus.SubgridError.html#proteus.SubgridError.NavierStokesWithBodyForceASGS_velocity_pressure" xlink:title="NavierStokesWithBodyForceASGS_velocity_pressure" target="_top">
<polygon fill="white" stroke="black" stroke-width="0.5" points="776,-260 523,-260 523,-241 776,-241 776,-260"/>
<text text-anchor="middle" x="649.5" y="-248" font-family="Vera Sans, DejaVu Sans, Liberation Sans, Arial, Helvetica, sans" font-size="10.00">NavierStokesWithBodyForceASGS_velocity_pressure</text>
</a>
</g>
</g>
<!-- NavierStokesASGS_velocity_pressure&#45;&gt;NavierStokesWithBodyForceASGS_velocity_pressure -->
<g id="edge16" class="edge">
<title>NavierStokesASGS_velocity_pressure&#45;&gt;NavierStokesWithBodyForceASGS_velocity_pressure</title>
<path fill="none" stroke="black" stroke-width="0.5" d="M373.16,-264C416.8,-261.86 469.76,-259.27 517.54,-256.92"/>
<polygon fill="black" stroke="black" stroke-width="0.5" points="517.83,-258.66 522.74,-256.67 517.66,-255.17 517.83,-258.66"/>
</g>
<!-- SkewStabilization_1 -->
<g id="node19" class="node">
<title>SkewStabilization_1</title>
<g id="a_node19"><a xlink:href="../api/proteus.SubgridError.html#proteus.SubgridError.SkewStabilization_1" xlink:title="SkewStabilization_1" target="_top">
<polygon fill="white" stroke="black" stroke-width="0.5" points="105,-352 0,-352 0,-333 105,-333 105,-352"/>
<text text-anchor="middle" x="52.5" y="-340" font-family="Vera Sans, DejaVu Sans, Liberation Sans, Arial, Helvetica, sans" font-size="10.00">SkewStabilization_1</text>
</a>
</g>
</g>
</g>
</svg>
