<?xml version="1.0" encoding="UTF-8" standalone="no"?>
<!DOCTYPE svg PUBLIC "-//W3C//DTD SVG 1.1//EN"
 "http://www.w3.org/Graphics/SVG/1.1/DTD/svg11.dtd">
<!-- Generated by graphviz version 2.44.1 (20200629.0846)
 -->
<!-- Title: inheritanceb0b43b8140 Pages: 1 -->
<svg width="411pt" height="341pt"
 viewBox="0.00 0.00 411.00 341.00" xmlns="http://www.w3.org/2000/svg" xmlns:xlink="http://www.w3.org/1999/xlink">
<g id="graph0" class="graph" transform="scale(1 1) rotate(0) translate(4 337)">
<title>inheritanceb0b43b8140</title>
<!-- InvOperatorShell -->
<g id="node1" class="node">
<title>InvOperatorShell</title>
<g id="a_node1"><a xlink:href="../api/proteus.LinearAlgebraTools.html#proteus.LinearAlgebraTools.InvOperatorShell" xlink:title="A base class for inverse operator shells" target="_top">
<polygon fill="white" stroke="black" stroke-width="0.5" points="228.5,-93 139.5,-93 139.5,-74 228.5,-74 228.5,-93"/>
<text text-anchor="middle" x="184" y="-81" font-family="Vera Sans, DejaVu Sans, Liberation Sans, Arial, Helvetica, sans" font-size="10.00">InvOperatorShell</text>
</a>
</g>
</g>
<!-- LSCInv_shell -->
<g id="node3" class="node">
<title>LSCInv_shell</title>
<g id="a_node3"><a xlink:href="../api/proteus.LinearAlgebraTools.html#proteus.LinearAlgebraTools.LSCInv_shell" xlink:title="Shell class for the LSC Inverse Preconditioner" target="_top">
<polygon fill="white" stroke="black" stroke-width="0.5" points="376.5,-167 301.5,-167 301.5,-148 376.5,-148 376.5,-167"/>
<text text-anchor="middle" x="339" y="-155" font-family="Vera Sans, DejaVu Sans, Liberation Sans, Arial, Helvetica, sans" font-size="10.00">LSCInv_shell</text>
</a>
</g>
</g>
<!-- InvOperatorShell&#45;&gt;LSCInv_shell -->
<g id="edge2" class="edge">
<title>InvOperatorShell&#45;&gt;LSCInv_shell</title>
<path fill="none" stroke="black" stroke-width="0.5" d="M197.78,-93.06C214.67,-105.31 245.73,-126.52 275,-139.5 281.76,-142.5 289.15,-145.13 296.41,-147.4"/>
<polygon fill="black" stroke="black" stroke-width="0.5" points="296.12,-149.14 301.41,-148.91 297.13,-145.79 296.12,-149.14"/>
</g>
<!-- MatrixInvShell -->
<g id="node6" class="node">
<title>MatrixInvShell</title>
<g id="a_node6"><a xlink:href="../api/proteus.LinearAlgebraTools.html#proteus.LinearAlgebraTools.MatrixInvShell" xlink:title="A PETSc shell class for a inverse operator." target="_top">
<polygon fill="white" stroke="black" stroke-width="0.5" points="378.5,-130 299.5,-130 299.5,-111 378.5,-111 378.5,-130"/>
<text text-anchor="middle" x="339" y="-118" font-family="Vera Sans, DejaVu Sans, Liberation Sans, Arial, Helvetica, sans" font-size="10.00">MatrixInvShell</text>
</a>
</g>
</g>
<!-- InvOperatorShell&#45;&gt;MatrixInvShell -->
<g id="edge4" class="edge">
<title>InvOperatorShell&#45;&gt;MatrixInvShell</title>
<path fill="none" stroke="black" stroke-width="0.5" d="M224.4,-93.03C245.8,-98.2 272.32,-104.62 294.34,-109.94"/>
<polygon fill="black" stroke="black" stroke-width="0.5" points="293.99,-111.66 299.26,-111.13 294.81,-108.26 293.99,-111.66"/>
</g>
<!-- SpInv_shell -->
<g id="node13" class="node">
<title>SpInv_shell</title>
<g id="a_node13"><a xlink:href="../api/proteus.LinearAlgebraTools.html#proteus.LinearAlgebraTools.SpInv_shell" xlink:title="Shell class for the SIMPLE preconditioner which applies the" target="_top">
<polygon fill="white" stroke="black" stroke-width="0.5" points="373,-93 305,-93 305,-74 373,-74 373,-93"/>
<text text-anchor="middle" x="339" y="-81" font-family="Vera Sans, DejaVu Sans, Liberation Sans, Arial, Helvetica, sans" font-size="10.00">SpInv_shell</text>
</a>
</g>
</g>
<!-- InvOperatorShell&#45;&gt;SpInv_shell -->
<g id="edge9" class="edge">
<title>InvOperatorShell&#45;&gt;SpInv_shell</title>
<path fill="none" stroke="black" stroke-width="0.5" d="M228.84,-83.5C251.24,-83.5 278.24,-83.5 299.78,-83.5"/>
<polygon fill="black" stroke="black" stroke-width="0.5" points="299.85,-85.25 304.85,-83.5 299.85,-81.75 299.85,-85.25"/>
</g>
<!-- TwoPhase_PCDInv_shell -->
<g id="node15" class="node">
<title>TwoPhase_PCDInv_shell</title>
<g id="a_node15"><a xlink:href="../api/proteus.LinearAlgebraTools.html#proteus.LinearAlgebraTools.TwoPhase_PCDInv_shell" xlink:title="Shell class for the two&#45;phase PCD preconditioner. &#160;The" target="_top">
<polygon fill="white" stroke="black" stroke-width="0.5" points="403,-56 275,-56 275,-37 403,-37 403,-56"/>
<text text-anchor="middle" x="339" y="-44" font-family="Vera Sans, DejaVu Sans, Liberation Sans, Arial, Helvetica, sans" font-size="10.00">TwoPhase_PCDInv_shell</text>
</a>
</g>
</g>
<!-- InvOperatorShell&#45;&gt;TwoPhase_PCDInv_shell -->
<g id="edge10" class="edge">
<title>InvOperatorShell&#45;&gt;TwoPhase_PCDInv_shell</title>
<path fill="none" stroke="black" stroke-width="0.5" d="M224.4,-73.97C245.56,-68.86 271.71,-62.53 293.58,-57.24"/>
<polygon fill="black" stroke="black" stroke-width="0.5" points="294.02,-58.94 298.47,-56.06 293.2,-55.53 294.02,-58.94"/>
</g>
<!-- OperatorShell -->
<g id="node2" class="node">
<title>OperatorShell</title>
<g id="a_node2"><a xlink:href="../api/proteus.LinearAlgebraTools.html#proteus.LinearAlgebraTools.OperatorShell" xlink:title="A base class for operator shells" target="_top">
<polygon fill="white" stroke="black" stroke-width="0.5" points="84.5,-75 8.5,-75 8.5,-56 84.5,-56 84.5,-75"/>
<text text-anchor="middle" x="46.5" y="-63" font-family="Vera Sans, DejaVu Sans, Liberation Sans, Arial, Helvetica, sans" font-size="10.00">OperatorShell</text>
</a>
</g>
</g>
<!-- OperatorShell&#45;&gt;InvOperatorShell -->
<g id="edge1" class="edge">
<title>OperatorShell&#45;&gt;InvOperatorShell</title>
<path fill="none" stroke="black" stroke-width="0.5" d="M84.53,-70.42C99.86,-72.46 117.87,-74.85 134.26,-77.03"/>
<polygon fill="black" stroke="black" stroke-width="0.5" points="134.1,-78.77 139.29,-77.69 134.56,-75.3 134.1,-78.77"/>
</g>
<!-- ProductOperatorShell -->
<g id="node8" class="node">
<title>ProductOperatorShell</title>
<g id="a_node8"><a xlink:href="../api/proteus.LinearAlgebraTools.html#proteus.LinearAlgebraTools.ProductOperatorShell" xlink:title="A base class for shell operators that apply multiplcation." target="_top">
<polygon fill="white" stroke="black" stroke-width="0.5" points="239,-38 129,-38 129,-19 239,-19 239,-38"/>
<text text-anchor="middle" x="184" y="-26" font-family="Vera Sans, DejaVu Sans, Liberation Sans, Arial, Helvetica, sans" font-size="10.00">ProductOperatorShell</text>
</a>
</g>
</g>
<!-- OperatorShell&#45;&gt;ProductOperatorShell -->
<g id="edge8" class="edge">
<title>OperatorShell&#45;&gt;ProductOperatorShell</title>
<path fill="none" stroke="black" stroke-width="0.5" d="M82.39,-55.97C100.74,-50.96 123.33,-44.79 142.46,-39.57"/>
<polygon fill="black" stroke="black" stroke-width="0.5" points="143.39,-41.13 147.75,-38.12 142.47,-37.75 143.39,-41.13"/>
</g>
<!-- Mat -->
<g id="node4" class="node">
<title>Mat</title>
<polygon fill="white" stroke="black" stroke-width="0.5" points="211,-241 157,-241 157,-222 211,-222 211,-241"/>
<text text-anchor="middle" x="184" y="-229" font-family="Vera Sans, DejaVu Sans, Liberation Sans, Arial, Helvetica, sans" font-size="10.00">Mat</text>
</g>
<!-- ParMat_petsc4py -->
<g id="node10" class="node">
<title>ParMat_petsc4py</title>
<g id="a_node10"><a xlink:href="../api/proteus.LinearAlgebraTools.html#proteus.LinearAlgebraTools.ParMat_petsc4py" xlink:title="Parallel matrix based on petsc4py&#39;s wrappers for PETSc." target="_top">
<polygon fill="white" stroke="black" stroke-width="0.5" points="385.5,-241 292.5,-241 292.5,-222 385.5,-222 385.5,-241"/>
<text text-anchor="middle" x="339" y="-229" font-family="Vera Sans, DejaVu Sans, Liberation Sans, Arial, Helvetica, sans" font-size="10.00">ParMat_petsc4py</text>
</a>
</g>
</g>
<!-- Mat&#45;&gt;ParMat_petsc4py -->
<g id="edge6" class="edge">
<title>Mat&#45;&gt;ParMat_petsc4py</title>
<path fill="none" stroke="black" stroke-width="0.5" d="M211.3,-231.5C232.13,-231.5 261.84,-231.5 287.26,-231.5"/>
<polygon fill="black" stroke="black" stroke-width="0.5" points="287.28,-233.25 292.28,-231.5 287.28,-229.75 287.28,-233.25"/>
</g>
<!-- Object -->
<g id="node5" class="node">
<title>Object</title>
<polygon fill="white" stroke="black" stroke-width="0.5" points="73.5,-222 19.5,-222 19.5,-203 73.5,-203 73.5,-222"/>
<text text-anchor="middle" x="46.5" y="-210" font-family="Vera Sans, DejaVu Sans, Liberation Sans, Arial, Helvetica, sans" font-size="10.00">Object</text>
</g>
<!-- Object&#45;&gt;Mat -->
<g id="edge3" class="edge">
<title>Object&#45;&gt;Mat</title>
<path fill="none" stroke="black" stroke-width="0.5" d="M73.63,-216.16C95.93,-219.29 128.07,-223.8 151.74,-227.12"/>
<polygon fill="black" stroke="black" stroke-width="0.5" points="151.76,-228.89 156.95,-227.85 152.25,-225.42 151.76,-228.89"/>
</g>
<!-- Vec -->
<g id="node12" class="node">
<title>Vec</title>
<polygon fill="white" stroke="black" stroke-width="0.5" points="211,-204 157,-204 157,-185 211,-185 211,-204"/>
<text text-anchor="middle" x="184" y="-192" font-family="Vera Sans, DejaVu Sans, Liberation Sans, Arial, Helvetica, sans" font-size="10.00">Vec</text>
</g>
<!-- Object&#45;&gt;Vec -->
<g id="edge11" class="edge">
<title>Object&#45;&gt;Vec</title>
<path fill="none" stroke="black" stroke-width="0.5" d="M73.63,-209.03C95.93,-206.07 128.07,-201.8 151.74,-198.65"/>
<polygon fill="black" stroke="black" stroke-width="0.5" points="152.23,-200.35 156.95,-197.96 151.77,-196.88 152.23,-200.35"/>
</g>
<!-- MatrixShell -->
<g id="node7" class="node">
<title>MatrixShell</title>
<g id="a_node7"><a xlink:href="../api/proteus.LinearAlgebraTools.html#proteus.LinearAlgebraTools.MatrixShell" xlink:title="A shell class for a matrix." target="_top">
<polygon fill="white" stroke="black" stroke-width="0.5" points="371.5,-19 306.5,-19 306.5,0 371.5,0 371.5,-19"/>
<text text-anchor="middle" x="339" y="-7" font-family="Vera Sans, DejaVu Sans, Liberation Sans, Arial, Helvetica, sans" font-size="10.00">MatrixShell</text>
</a>
</g>
</g>
<!-- ProductOperatorShell&#45;&gt;MatrixShell -->
<g id="edge5" class="edge">
<title>ProductOperatorShell&#45;&gt;MatrixShell</title>
<path fill="none" stroke="black" stroke-width="0.5" d="M239.37,-21.75C259.79,-19.21 282.5,-16.39 300.98,-14.1"/>
<polygon fill="black" stroke="black" stroke-width="0.5" points="301.33,-15.82 306.07,-13.46 300.89,-12.34 301.33,-15.82"/>
</g>
<!-- ParInfo_petsc4py -->
<g id="node9" class="node">
<title>ParInfo_petsc4py</title>
<g id="a_node9"><a xlink:href="../api/proteus.LinearAlgebraTools.html#proteus.LinearAlgebraTools.ParInfo_petsc4py" xlink:title="ARB &#45; this class is experimental. &#160;My idea is to store the" target="_top">
<polygon fill="white" stroke="black" stroke-width="0.5" points="93,-259 0,-259 0,-240 93,-240 93,-259"/>
<text text-anchor="middle" x="46.5" y="-247" font-family="Vera Sans, DejaVu Sans, Liberation Sans, Arial, Helvetica, sans" font-size="10.00">ParInfo_petsc4py</text>
</a>
</g>
</g>
<!-- ParVec_petsc4py -->
<g id="node11" class="node">
<title>ParVec_petsc4py</title>
<g id="a_node11"><a xlink:href="../api/proteus.LinearAlgebraTools.html#proteus.LinearAlgebraTools.ParVec_petsc4py" xlink:title="Parallel vector using petsc4py&#39;s wrappers for PETSc" target="_top">
<polygon fill="white" stroke="black" stroke-width="0.5" points="385.5,-204 292.5,-204 292.5,-185 385.5,-185 385.5,-204"/>
<text text-anchor="middle" x="339" y="-192" font-family="Vera Sans, DejaVu Sans, Liberation Sans, Arial, Helvetica, sans" font-size="10.00">ParVec_petsc4py</text>
</a>
</g>
</g>
<!-- Vec&#45;&gt;ParVec_petsc4py -->
<g id="edge7" class="edge">
<title>Vec&#45;&gt;ParVec_petsc4py</title>
<path fill="none" stroke="black" stroke-width="0.5" d="M211.3,-194.5C232.13,-194.5 261.84,-194.5 287.26,-194.5"/>
<polygon fill="black" stroke="black" stroke-width="0.5" points="287.28,-196.25 292.28,-194.5 287.28,-192.75 287.28,-196.25"/>
</g>
<!-- SparseMatShell -->
<g id="node14" class="node">
<title>SparseMatShell</title>
<g id="a_node14"><a xlink:href="../api/proteus.LinearAlgebraTools.html#proteus.LinearAlgebraTools.SparseMatShell" xlink:title="Build a parallel matrix shell from CSR data structures." target="_top">
<polygon fill="white" stroke="black" stroke-width="0.5" points="89.5,-296 3.5,-296 3.5,-277 89.5,-277 89.5,-296"/>
<text text-anchor="middle" x="46.5" y="-284" font-family="Vera Sans, DejaVu Sans, Liberation Sans, Arial, Helvetica, sans" font-size="10.00">SparseMatShell</text>
</a>
</g>
</g>
<!-- WeightedNorm -->
<g id="node16" class="node">
<title>WeightedNorm</title>
<g id="a_node16"><a xlink:href="../api/proteus.LinearAlgebraTools.html#proteus.LinearAlgebraTools.WeightedNorm" xlink:title="Compute the weighted norm for time step control (not currently parallel)" target="_top">
<polygon fill="white" stroke="black" stroke-width="0.5" points="87,-333 6,-333 6,-314 87,-314 87,-333"/>
<text text-anchor="middle" x="46.5" y="-321" font-family="Vera Sans, DejaVu Sans, Liberation Sans, Arial, Helvetica, sans" font-size="10.00">WeightedNorm</text>
</a>
</g>
</g>
</g>
</svg>
