<?xml version="1.0" encoding="UTF-8" standalone="no"?>
<!DOCTYPE svg PUBLIC "-//W3C//DTD SVG 1.1//EN"
 "http://www.w3.org/Graphics/SVG/1.1/DTD/svg11.dtd">
<!-- Generated by graphviz version 2.44.1 (20200629.0846)
 -->
<!-- Title: inheritance46841c7b14 Pages: 1 -->
<svg width="247pt" height="656pt"
 viewBox="0.00 0.00 247.00 656.00" xmlns="http://www.w3.org/2000/svg" xmlns:xlink="http://www.w3.org/1999/xlink">
<g id="graph0" class="graph" transform="scale(1 1) rotate(0) translate(4 652)">
<title>inheritance46841c7b14</title>
<!-- CompositeTetrahedron -->
<g id="node1" class="node">
<title>CompositeTetrahedron</title>
<g id="a_node1"><a xlink:href="../api/proteus.Quadrature.html#proteus.Quadrature.CompositeTetrahedron" xlink:title="CompositeTetrahedron" target="_top">
<polygon fill="white" stroke="black" stroke-width="0.5" points="222,-648 107,-648 107,-629 222,-629 222,-648"/>
<text text-anchor="middle" x="164.5" y="-636" font-family="Vera Sans, DejaVu Sans, Liberation Sans, Arial, Helvetica, sans" font-size="10.00">CompositeTetrahedron</text>
</a>
</g>
</g>
<!-- Q_base -->
<g id="node2" class="node">
<title>Q_base</title>
<g id="a_node2"><a xlink:href="../api/proteus.Quadrature.html#proteus.Quadrature.Q_base" xlink:title="The base class for quadrature methods." target="_top">
<polygon fill="white" stroke="black" stroke-width="0.5" points="54,-333 0,-333 0,-314 54,-314 54,-333"/>
<text text-anchor="middle" x="27" y="-321" font-family="Vera Sans, DejaVu Sans, Liberation Sans, Arial, Helvetica, sans" font-size="10.00">Q_base</text>
</a>
</g>
</g>
<!-- Q_base&#45;&gt;CompositeTetrahedron -->
<g id="edge1" class="edge">
<title>Q_base&#45;&gt;CompositeTetrahedron</title>
<path fill="none" stroke="black" stroke-width="0.5" d="M28.65,-333.02C31.99,-379 48.64,-577.69 90,-620.5 93.56,-624.18 97.74,-627.16 102.27,-629.57"/>
<polygon fill="black" stroke="black" stroke-width="0.5" points="101.64,-631.21 106.91,-631.79 103.15,-628.05 101.64,-631.21"/>
</g>
<!-- CompositeTrapezoidalEdge -->
<g id="node3" class="node">
<title>CompositeTrapezoidalEdge</title>
<g id="a_node3"><a xlink:href="../api/proteus.Quadrature.html#proteus.Quadrature.CompositeTrapezoidalEdge" xlink:title="Composite trapezoidal rule on the unit interval." target="_top">
<polygon fill="white" stroke="black" stroke-width="0.5" points="233,-611 96,-611 96,-592 233,-592 233,-611"/>
<text text-anchor="middle" x="164.5" y="-599" font-family="Vera Sans, DejaVu Sans, Liberation Sans, Arial, Helvetica, sans" font-size="10.00">CompositeTrapezoidalEdge</text>
</a>
</g>
</g>
<!-- Q_base&#45;&gt;CompositeTrapezoidalEdge -->
<g id="edge2" class="edge">
<title>Q_base&#45;&gt;CompositeTrapezoidalEdge</title>
<path fill="none" stroke="black" stroke-width="0.5" d="M28.98,-333.23C33.46,-375.99 53.44,-546.72 90,-583.5 92.08,-585.6 94.37,-587.46 96.8,-589.13"/>
<polygon fill="black" stroke="black" stroke-width="0.5" points="96.16,-590.78 101.34,-591.9 97.99,-587.8 96.16,-590.78"/>
</g>
<!-- CompositeTrapezoidalTriangle -->
<g id="node4" class="node">
<title>CompositeTrapezoidalTriangle</title>
<g id="a_node4"><a xlink:href="../api/proteus.Quadrature.html#proteus.Quadrature.CompositeTrapezoidalTriangle" xlink:title="Composite trapezoidal rule on the reference triangle" target="_top">
<polygon fill="white" stroke="black" stroke-width="0.5" points="239,-574 90,-574 90,-555 239,-555 239,-574"/>
<text text-anchor="middle" x="164.5" y="-562" font-family="Vera Sans, DejaVu Sans, Liberation Sans, Arial, Helvetica, sans" font-size="10.00">CompositeTrapezoidalTriangle</text>
</a>
</g>
</g>
<!-- Q_base&#45;&gt;CompositeTrapezoidalTriangle -->
<g id="edge3" class="edge">
<title>Q_base&#45;&gt;CompositeTrapezoidalTriangle</title>
<path fill="none" stroke="black" stroke-width="0.5" d="M27.52,-333.22C26.38,-367.78 27.39,-485.8 90,-546.5 92.29,-548.72 94.81,-550.68 97.49,-552.41"/>
<polygon fill="black" stroke="black" stroke-width="0.5" points="96.62,-553.94 101.82,-554.95 98.39,-550.91 96.62,-553.94"/>
</g>
<!-- CompositeTriangle -->
<g id="node5" class="node">
<title>CompositeTriangle</title>
<g id="a_node5"><a xlink:href="../api/proteus.Quadrature.html#proteus.Quadrature.CompositeTriangle" xlink:title="Composite quadrature rule on the unit triangle." target="_top">
<polygon fill="white" stroke="black" stroke-width="0.5" points="213.5,-537 115.5,-537 115.5,-518 213.5,-518 213.5,-537"/>
<text text-anchor="middle" x="164.5" y="-525" font-family="Vera Sans, DejaVu Sans, Liberation Sans, Arial, Helvetica, sans" font-size="10.00">CompositeTriangle</text>
</a>
</g>
</g>
<!-- Q_base&#45;&gt;CompositeTriangle -->
<g id="edge4" class="edge">
<title>Q_base&#45;&gt;CompositeTriangle</title>
<path fill="none" stroke="black" stroke-width="0.5" d="M28.15,-333.32C29.17,-364.23 36.69,-460.37 90,-509.5 95.73,-514.78 102.75,-518.58 110.16,-521.3"/>
<polygon fill="black" stroke="black" stroke-width="0.5" points="110.04,-523.11 115.33,-523.02 111.14,-519.78 110.04,-523.11"/>
</g>
<!-- CubeGaussQuadrature -->
<g id="node6" class="node">
<title>CubeGaussQuadrature</title>
<g id="a_node6"><a xlink:href="../api/proteus.Quadrature.html#proteus.Quadrature.CubeGaussQuadrature" xlink:title="A class for all quadrature on unit simplices." target="_top">
<polygon fill="white" stroke="black" stroke-width="0.5" points="222.5,-500 106.5,-500 106.5,-481 222.5,-481 222.5,-500"/>
<text text-anchor="middle" x="164.5" y="-488" font-family="Vera Sans, DejaVu Sans, Liberation Sans, Arial, Helvetica, sans" font-size="10.00">CubeGaussQuadrature</text>
</a>
</g>
</g>
<!-- Q_base&#45;&gt;CubeGaussQuadrature -->
<g id="edge5" class="edge">
<title>Q_base&#45;&gt;CubeGaussQuadrature</title>
<path fill="none" stroke="black" stroke-width="0.5" d="M29.05,-333.25C32.47,-359.92 45.74,-434.59 90,-472.5 93.52,-475.51 97.46,-478.04 101.64,-480.15"/>
<polygon fill="black" stroke="black" stroke-width="0.5" points="100.99,-481.78 106.27,-482.29 102.46,-478.6 100.99,-481.78"/>
</g>
<!-- FaceBarycenterEdge -->
<g id="node7" class="node">
<title>FaceBarycenterEdge</title>
<g id="a_node7"><a xlink:href="../api/proteus.Quadrature.html#proteus.Quadrature.FaceBarycenterEdge" xlink:title="FaceBarycenterEdge" target="_top">
<polygon fill="white" stroke="black" stroke-width="0.5" points="218.5,-463 110.5,-463 110.5,-444 218.5,-444 218.5,-463"/>
<text text-anchor="middle" x="164.5" y="-451" font-family="Vera Sans, DejaVu Sans, Liberation Sans, Arial, Helvetica, sans" font-size="10.00">FaceBarycenterEdge</text>
</a>
</g>
</g>
<!-- Q_base&#45;&gt;FaceBarycenterEdge -->
<g id="edge6" class="edge">
<title>Q_base&#45;&gt;FaceBarycenterEdge</title>
<path fill="none" stroke="black" stroke-width="0.5" d="M30.44,-333.03C36.53,-354.8 54.51,-408.37 90,-435.5 94.73,-439.12 100.09,-442.01 105.7,-444.34"/>
<polygon fill="black" stroke="black" stroke-width="0.5" points="105.18,-446.01 110.47,-446.16 106.42,-442.74 105.18,-446.01"/>
</g>
<!-- FaceBarycenterTetrahedron -->
<g id="node8" class="node">
<title>FaceBarycenterTetrahedron</title>
<g id="a_node8"><a xlink:href="../api/proteus.Quadrature.html#proteus.Quadrature.FaceBarycenterTetrahedron" xlink:title="FaceBarycenterTetrahedron" target="_top">
<polygon fill="white" stroke="black" stroke-width="0.5" points="233,-426 96,-426 96,-407 233,-407 233,-426"/>
<text text-anchor="middle" x="164.5" y="-414" font-family="Vera Sans, DejaVu Sans, Liberation Sans, Arial, Helvetica, sans" font-size="10.00">FaceBarycenterTetrahedron</text>
</a>
</g>
</g>
<!-- Q_base&#45;&gt;FaceBarycenterTetrahedron -->
<g id="edge7" class="edge">
<title>Q_base&#45;&gt;FaceBarycenterTetrahedron</title>
<path fill="none" stroke="black" stroke-width="0.5" d="M33.25,-333.25C42.49,-349.43 63.24,-381.72 90,-398.5 94.01,-401.01 98.34,-403.17 102.82,-405.03"/>
<polygon fill="black" stroke="black" stroke-width="0.5" points="102.45,-406.76 107.74,-406.93 103.71,-403.5 102.45,-406.76"/>
</g>
<!-- FaceBarycenterTriangle -->
<g id="node9" class="node">
<title>FaceBarycenterTriangle</title>
<g id="a_node9"><a xlink:href="../api/proteus.Quadrature.html#proteus.Quadrature.FaceBarycenterTriangle" xlink:title="FaceBarycenterTriangle" target="_top">
<polygon fill="white" stroke="black" stroke-width="0.5" points="224.5,-389 104.5,-389 104.5,-370 224.5,-370 224.5,-389"/>
<text text-anchor="middle" x="164.5" y="-377" font-family="Vera Sans, DejaVu Sans, Liberation Sans, Arial, Helvetica, sans" font-size="10.00">FaceBarycenterTriangle</text>
</a>
</g>
</g>
<!-- Q_base&#45;&gt;FaceBarycenterTriangle -->
<g id="edge8" class="edge">
<title>Q_base&#45;&gt;FaceBarycenterTriangle</title>
<path fill="none" stroke="black" stroke-width="0.5" d="M41.14,-333.23C53.26,-341.79 72.06,-354.02 90,-361.5 96.5,-364.21 103.51,-366.58 110.51,-368.62"/>
<polygon fill="black" stroke="black" stroke-width="0.5" points="110.08,-370.32 115.36,-369.99 111.02,-366.95 110.08,-370.32"/>
</g>
<!-- GaussEdge -->
<g id="node10" class="node">
<title>GaussEdge</title>
<g id="a_node10"><a xlink:href="../api/proteus.Quadrature.html#proteus.Quadrature.GaussEdge" xlink:title="Gaussian Quadrature on the unit interval." target="_top">
<polygon fill="white" stroke="black" stroke-width="0.5" points="198.5,-352 130.5,-352 130.5,-333 198.5,-333 198.5,-352"/>
<text text-anchor="middle" x="164.5" y="-340" font-family="Vera Sans, DejaVu Sans, Liberation Sans, Arial, Helvetica, sans" font-size="10.00">GaussEdge</text>
</a>
</g>
</g>
<!-- Q_base&#45;&gt;GaussEdge -->
<g id="edge9" class="edge">
<title>Q_base&#45;&gt;GaussEdge</title>
<path fill="none" stroke="black" stroke-width="0.5" d="M54.13,-327.16C74.29,-329.99 102.48,-333.94 125.19,-337.13"/>
<polygon fill="black" stroke="black" stroke-width="0.5" points="125.05,-338.88 130.24,-337.84 125.54,-335.41 125.05,-338.88"/>
</g>
<!-- GaussPoint -->
<g id="node11" class="node">
<title>GaussPoint</title>
<g id="a_node11"><a xlink:href="../api/proteus.Quadrature.html#proteus.Quadrature.GaussPoint" xlink:title="A dummy class for integrating the boundary of the unit interval (i.e. a point)." target="_top">
<polygon fill="white" stroke="black" stroke-width="0.5" points="198.5,-315 130.5,-315 130.5,-296 198.5,-296 198.5,-315"/>
<text text-anchor="middle" x="164.5" y="-303" font-family="Vera Sans, DejaVu Sans, Liberation Sans, Arial, Helvetica, sans" font-size="10.00">GaussPoint</text>
</a>
</g>
</g>
<!-- Q_base&#45;&gt;GaussPoint -->
<g id="edge10" class="edge">
<title>Q_base&#45;&gt;GaussPoint</title>
<path fill="none" stroke="black" stroke-width="0.5" d="M54.13,-320.03C74.29,-317.35 102.48,-313.61 125.19,-310.59"/>
<polygon fill="black" stroke="black" stroke-width="0.5" points="125.52,-312.31 130.24,-309.92 125.06,-308.84 125.52,-312.31"/>
</g>
<!-- GaussTetrahedron -->
<g id="node12" class="node">
<title>GaussTetrahedron</title>
<g id="a_node12"><a xlink:href="../api/proteus.Quadrature.html#proteus.Quadrature.GaussTetrahedron" xlink:title="Gauss&#45;Legendre quadrature on the unit tetrahedron." target="_top">
<polygon fill="white" stroke="black" stroke-width="0.5" points="212.5,-278 116.5,-278 116.5,-259 212.5,-259 212.5,-278"/>
<text text-anchor="middle" x="164.5" y="-266" font-family="Vera Sans, DejaVu Sans, Liberation Sans, Arial, Helvetica, sans" font-size="10.00">GaussTetrahedron</text>
</a>
</g>
</g>
<!-- Q_base&#45;&gt;GaussTetrahedron -->
<g id="edge11" class="edge">
<title>Q_base&#45;&gt;GaussTetrahedron</title>
<path fill="none" stroke="black" stroke-width="0.5" d="M42.2,-313.74C54.41,-305.73 72.73,-294.59 90,-287.5 97.47,-284.43 105.58,-281.75 113.59,-279.43"/>
<polygon fill="black" stroke="black" stroke-width="0.5" points="114.21,-281.07 118.55,-278.04 113.27,-277.7 114.21,-281.07"/>
</g>
<!-- GaussTriangle -->
<g id="node13" class="node">
<title>GaussTriangle</title>
<g id="a_node13"><a xlink:href="../api/proteus.Quadrature.html#proteus.Quadrature.GaussTriangle" xlink:title="Gauss quadrature on the unit triangle." target="_top">
<polygon fill="white" stroke="black" stroke-width="0.5" points="204.5,-241 124.5,-241 124.5,-222 204.5,-222 204.5,-241"/>
<text text-anchor="middle" x="164.5" y="-229" font-family="Vera Sans, DejaVu Sans, Liberation Sans, Arial, Helvetica, sans" font-size="10.00">GaussTriangle</text>
</a>
</g>
</g>
<!-- Q_base&#45;&gt;GaussTriangle -->
<g id="edge12" class="edge">
<title>Q_base&#45;&gt;GaussTriangle</title>
<path fill="none" stroke="black" stroke-width="0.5" d="M33.49,-313.79C42.94,-298.02 63.79,-266.92 90,-250.5 98.83,-244.97 109.22,-241.04 119.36,-238.25"/>
<polygon fill="black" stroke="black" stroke-width="0.5" points="119.9,-239.92 124.3,-236.97 119.03,-236.53 119.9,-239.92"/>
</g>
<!-- LobattoEdge -->
<g id="node14" class="node">
<title>LobattoEdge</title>
<g id="a_node14"><a xlink:href="../api/proteus.Quadrature.html#proteus.Quadrature.LobattoEdge" xlink:title="Gauss&#45;Lobatto quadrature on the unit interval." target="_top">
<polygon fill="white" stroke="black" stroke-width="0.5" points="200,-204 129,-204 129,-185 200,-185 200,-204"/>
<text text-anchor="middle" x="164.5" y="-192" font-family="Vera Sans, DejaVu Sans, Liberation Sans, Arial, Helvetica, sans" font-size="10.00">LobattoEdge</text>
</a>
</g>
</g>
<!-- Q_base&#45;&gt;LobattoEdge -->
<g id="edge13" class="edge">
<title>Q_base&#45;&gt;LobattoEdge</title>
<path fill="none" stroke="black" stroke-width="0.5" d="M30.61,-313.85C36.95,-292.33 55.24,-240.22 90,-213.5 99.69,-206.05 112.01,-201.51 123.78,-198.74"/>
<polygon fill="black" stroke="black" stroke-width="0.5" points="124.26,-200.42 128.78,-197.66 123.52,-197 124.26,-200.42"/>
</g>
<!-- LobattoEdgeAlt -->
<g id="node15" class="node">
<title>LobattoEdgeAlt</title>
<g id="a_node15"><a xlink:href="../api/proteus.Quadrature.html#proteus.Quadrature.LobattoEdgeAlt" xlink:title="Gauss&#45;Lobatto quadrature on the [&#45;1:1] interval." target="_top">
<polygon fill="white" stroke="black" stroke-width="0.5" points="206,-167 123,-167 123,-148 206,-148 206,-167"/>
<text text-anchor="middle" x="164.5" y="-155" font-family="Vera Sans, DejaVu Sans, Liberation Sans, Arial, Helvetica, sans" font-size="10.00">LobattoEdgeAlt</text>
</a>
</g>
</g>
<!-- Q_base&#45;&gt;LobattoEdgeAlt -->
<g id="edge14" class="edge">
<title>Q_base&#45;&gt;LobattoEdgeAlt</title>
<path fill="none" stroke="black" stroke-width="0.5" d="M29.12,-313.91C32.72,-287.66 46.4,-214.15 90,-176.5 97.89,-169.69 107.91,-165.27 118,-162.42"/>
<polygon fill="black" stroke="black" stroke-width="0.5" points="118.55,-164.09 122.95,-161.14 117.68,-160.7 118.55,-164.09"/>
</g>
<!-- LobattoTetrahedron -->
<g id="node16" class="node">
<title>LobattoTetrahedron</title>
<g id="a_node16"><a xlink:href="../api/proteus.Quadrature.html#proteus.Quadrature.LobattoTetrahedron" xlink:title="Gauss&#45;Lobatto quadrature on the unit tetrahedron." target="_top">
<polygon fill="white" stroke="black" stroke-width="0.5" points="214.5,-130 114.5,-130 114.5,-111 214.5,-111 214.5,-130"/>
<text text-anchor="middle" x="164.5" y="-118" font-family="Vera Sans, DejaVu Sans, Liberation Sans, Arial, Helvetica, sans" font-size="10.00">LobattoTetrahedron</text>
</a>
</g>
</g>
<!-- Q_base&#45;&gt;LobattoTetrahedron -->
<g id="edge15" class="edge">
<title>Q_base&#45;&gt;LobattoTetrahedron</title>
<path fill="none" stroke="black" stroke-width="0.5" d="M28.21,-313.81C29.42,-283.31 37.43,-188.41 90,-139.5 95.49,-134.39 102.17,-130.62 109.23,-127.84"/>
<polygon fill="black" stroke="black" stroke-width="0.5" points="110.06,-129.4 114.18,-126.06 108.88,-126.1 110.06,-129.4"/>
</g>
<!-- LobattoTriangle -->
<g id="node17" class="node">
<title>LobattoTriangle</title>
<g id="a_node17"><a xlink:href="../api/proteus.Quadrature.html#proteus.Quadrature.LobattoTriangle" xlink:title="Gauss&#45;Lobatto quadrature on the unit triangle." target="_top">
<polygon fill="white" stroke="black" stroke-width="0.5" points="206,-93 123,-93 123,-74 206,-74 206,-93"/>
<text text-anchor="middle" x="164.5" y="-81" font-family="Vera Sans, DejaVu Sans, Liberation Sans, Arial, Helvetica, sans" font-size="10.00">LobattoTriangle</text>
</a>
</g>
</g>
<!-- Q_base&#45;&gt;LobattoTriangle -->
<g id="edge16" class="edge">
<title>Q_base&#45;&gt;LobattoTriangle</title>
<path fill="none" stroke="black" stroke-width="0.5" d="M27.58,-313.89C26.63,-279.73 28.23,-163.01 90,-102.5 97.52,-95.13 107.51,-90.51 117.7,-87.64"/>
<polygon fill="black" stroke="black" stroke-width="0.5" points="118.29,-89.29 122.7,-86.37 117.42,-85.9 118.29,-89.29"/>
</g>
<!-- SimplexGaussQuadrature -->
<g id="node18" class="node">
<title>SimplexGaussQuadrature</title>
<g id="a_node18"><a xlink:href="../api/proteus.Quadrature.html#proteus.Quadrature.SimplexGaussQuadrature" xlink:title="A class which defines quadrature on unit simplices." target="_top">
<polygon fill="white" stroke="black" stroke-width="0.5" points="228.5,-56 100.5,-56 100.5,-37 228.5,-37 228.5,-56"/>
<text text-anchor="middle" x="164.5" y="-44" font-family="Vera Sans, DejaVu Sans, Liberation Sans, Arial, Helvetica, sans" font-size="10.00">SimplexGaussQuadrature</text>
</a>
</g>
</g>
<!-- Q_base&#45;&gt;SimplexGaussQuadrature -->
<g id="edge17" class="edge">
<title>Q_base&#45;&gt;SimplexGaussQuadrature</title>
<path fill="none" stroke="black" stroke-width="0.5" d="M29,-313.86C33.58,-271.47 53.91,-102.21 90,-65.5 92.6,-62.85 95.53,-60.55 98.66,-58.57"/>
<polygon fill="black" stroke="black" stroke-width="0.5" points="99.6,-60.05 103.07,-56.04 97.86,-57.01 99.6,-60.05"/>
</g>
<!-- SimplexLobattoQuadrature -->
<g id="node19" class="node">
<title>SimplexLobattoQuadrature</title>
<g id="a_node19"><a xlink:href="../api/proteus.Quadrature.html#proteus.Quadrature.SimplexLobattoQuadrature" xlink:title="A class for quadrature on unit simplices." target="_top">
<polygon fill="white" stroke="black" stroke-width="0.5" points="230.5,-19 98.5,-19 98.5,0 230.5,0 230.5,-19"/>
<text text-anchor="middle" x="164.5" y="-7" font-family="Vera Sans, DejaVu Sans, Liberation Sans, Arial, Helvetica, sans" font-size="10.00">SimplexLobattoQuadrature</text>
</a>
</g>
</g>
<!-- Q_base&#45;&gt;SimplexLobattoQuadrature -->
<g id="edge18" class="edge">
<title>Q_base&#45;&gt;SimplexLobattoQuadrature</title>
<path fill="none" stroke="black" stroke-width="0.5" d="M28.69,-313.75C32.18,-267.56 49.24,-71.17 90,-28.5 92.39,-26 95.06,-23.81 97.93,-21.9"/>
<polygon fill="black" stroke="black" stroke-width="0.5" points="99.2,-23.18 102.6,-19.11 97.41,-20.17 99.2,-23.18"/>
</g>
</g>
</svg>
