<?xml version="1.0" encoding="UTF-8" standalone="no"?>
<!DOCTYPE svg PUBLIC "-//W3C//DTD SVG 1.1//EN"
 "http://www.w3.org/Graphics/SVG/1.1/DTD/svg11.dtd">
<!-- Generated by graphviz version 2.44.1 (20200629.0846)
 -->
<!-- Title: inheritancecaff6f4bb2 Pages: 1 -->
<svg width="252pt" height="175pt"
 viewBox="0.00 0.00 252.00 175.00" xmlns="http://www.w3.org/2000/svg" xmlns:xlink="http://www.w3.org/1999/xlink">
<g id="graph0" class="graph" transform="scale(1 1) rotate(0) translate(4 171)">
<title>inheritancecaff6f4bb2</title>
<!-- BuckleyLeverett -->
<g id="node1" class="node">
<title>BuckleyLeverett</title>
<g id="a_node1"><a xlink:href="../api/proteus.ObjectiveFunctions.html#proteus.ObjectiveFunctions.BuckleyLeverett" xlink:title="BuckleyLeverett" target="_top">
<polygon fill="white" stroke="black" stroke-width="0.5" points="104.5,-56 17.5,-56 17.5,-37 104.5,-37 104.5,-56"/>
<text text-anchor="middle" x="61" y="-44" font-family="Vera Sans, DejaVu Sans, Liberation Sans, Arial, Helvetica, sans" font-size="10.00">BuckleyLeverett</text>
</a>
</g>
</g>
<!-- ObjectiveFunction_base -->
<g id="node2" class="node">
<title>ObjectiveFunction_base</title>
<g id="a_node2"><a xlink:href="../proteus.Optimizers.html#proteus.Optimizers.ObjectiveFunction_base" xlink:title="ObjectiveFunction_base" target="_top">
<polygon fill="white" stroke="black" stroke-width="0.5" points="122,-93 0,-93 0,-74 122,-74 122,-93"/>
<text text-anchor="middle" x="61" y="-81" font-family="Vera Sans, DejaVu Sans, Liberation Sans, Arial, Helvetica, sans" font-size="10.00">ObjectiveFunction_base</text>
</a>
</g>
</g>
<!-- OsherFunc -->
<g id="node3" class="node">
<title>OsherFunc</title>
<g id="a_node3"><a xlink:href="../api/proteus.ObjectiveFunctions.html#proteus.ObjectiveFunctions.OsherFunc" xlink:title="OsherFunc" target="_top">
<polygon fill="white" stroke="black" stroke-width="0.5" points="233.5,-167 168.5,-167 168.5,-148 233.5,-148 233.5,-167"/>
<text text-anchor="middle" x="201" y="-155" font-family="Vera Sans, DejaVu Sans, Liberation Sans, Arial, Helvetica, sans" font-size="10.00">OsherFunc</text>
</a>
</g>
</g>
<!-- ObjectiveFunction_base&#45;&gt;OsherFunc -->
<g id="edge1" class="edge">
<title>ObjectiveFunction_base&#45;&gt;OsherFunc</title>
<path fill="none" stroke="black" stroke-width="0.5" d="M76.98,-93.01C95.6,-104.66 128.53,-124.66 158,-139.5 162.27,-141.65 166.85,-143.78 171.37,-145.79"/>
<polygon fill="black" stroke="black" stroke-width="0.5" points="170.94,-147.51 176.22,-147.91 172.34,-144.31 170.94,-147.51"/>
</g>
<!-- OsherFuncCoef -->
<g id="node4" class="node">
<title>OsherFuncCoef</title>
<g id="a_node4"><a xlink:href="../api/proteus.ObjectiveFunctions.html#proteus.ObjectiveFunctions.OsherFuncCoef" xlink:title="OsherFuncCoef" target="_top">
<polygon fill="white" stroke="black" stroke-width="0.5" points="244,-130 158,-130 158,-111 244,-111 244,-130"/>
<text text-anchor="middle" x="201" y="-118" font-family="Vera Sans, DejaVu Sans, Liberation Sans, Arial, Helvetica, sans" font-size="10.00">OsherFuncCoef</text>
</a>
</g>
</g>
<!-- ObjectiveFunction_base&#45;&gt;OsherFuncCoef -->
<g id="edge2" class="edge">
<title>ObjectiveFunction_base&#45;&gt;OsherFuncCoef</title>
<path fill="none" stroke="black" stroke-width="0.5" d="M97.54,-93.03C116.39,-98.08 139.63,-104.31 159.21,-109.56"/>
<polygon fill="black" stroke="black" stroke-width="0.5" points="158.82,-111.27 164.1,-110.88 159.73,-107.89 158.82,-111.27"/>
</g>
<!-- SimpelFunc -->
<g id="node5" class="node">
<title>SimpelFunc</title>
<g id="a_node5"><a xlink:href="../api/proteus.ObjectiveFunctions.html#proteus.ObjectiveFunctions.SimpelFunc" xlink:title="SimpelFunc" target="_top">
<polygon fill="white" stroke="black" stroke-width="0.5" points="235,-93 167,-93 167,-74 235,-74 235,-93"/>
<text text-anchor="middle" x="201" y="-81" font-family="Vera Sans, DejaVu Sans, Liberation Sans, Arial, Helvetica, sans" font-size="10.00">SimpelFunc</text>
</a>
</g>
</g>
<!-- ObjectiveFunction_base&#45;&gt;SimpelFunc -->
<g id="edge3" class="edge">
<title>ObjectiveFunction_base&#45;&gt;SimpelFunc</title>
<path fill="none" stroke="black" stroke-width="0.5" d="M122.13,-83.5C135.6,-83.5 149.53,-83.5 161.82,-83.5"/>
<polygon fill="black" stroke="black" stroke-width="0.5" points="161.98,-85.25 166.98,-83.5 161.98,-81.75 161.98,-85.25"/>
</g>
<!-- SimpelFunc2 -->
<g id="node6" class="node">
<title>SimpelFunc2</title>
<g id="a_node6"><a xlink:href="../api/proteus.ObjectiveFunctions.html#proteus.ObjectiveFunctions.SimpelFunc2" xlink:title="SimpelFunc2" target="_top">
<polygon fill="white" stroke="black" stroke-width="0.5" points="238,-56 164,-56 164,-37 238,-37 238,-56"/>
<text text-anchor="middle" x="201" y="-44" font-family="Vera Sans, DejaVu Sans, Liberation Sans, Arial, Helvetica, sans" font-size="10.00">SimpelFunc2</text>
</a>
</g>
</g>
<!-- ObjectiveFunction_base&#45;&gt;SimpelFunc2 -->
<g id="edge4" class="edge">
<title>ObjectiveFunction_base&#45;&gt;SimpelFunc2</title>
<path fill="none" stroke="black" stroke-width="0.5" d="M97.54,-73.97C116.39,-68.92 139.63,-62.69 159.21,-57.44"/>
<polygon fill="black" stroke="black" stroke-width="0.5" points="159.73,-59.11 164.1,-56.12 158.82,-55.73 159.73,-59.11"/>
</g>
<!-- SimpelFunc3 -->
<g id="node7" class="node">
<title>SimpelFunc3</title>
<g id="a_node7"><a xlink:href="../api/proteus.ObjectiveFunctions.html#proteus.ObjectiveFunctions.SimpelFunc3" xlink:title="SimpelFunc3" target="_top">
<polygon fill="white" stroke="black" stroke-width="0.5" points="238,-19 164,-19 164,0 238,0 238,-19"/>
<text text-anchor="middle" x="201" y="-7" font-family="Vera Sans, DejaVu Sans, Liberation Sans, Arial, Helvetica, sans" font-size="10.00">SimpelFunc3</text>
</a>
</g>
</g>
<!-- ObjectiveFunction_base&#45;&gt;SimpelFunc3 -->
<g id="edge5" class="edge">
<title>ObjectiveFunction_base&#45;&gt;SimpelFunc3</title>
<path fill="none" stroke="black" stroke-width="0.5" d="M103.85,-73.95C110.16,-71.67 116.42,-68.88 122,-65.5 141.62,-53.6 139.22,-41.68 158,-28.5 161.75,-25.87 165.93,-23.46 170.15,-21.31"/>
<polygon fill="black" stroke="black" stroke-width="0.5" points="171,-22.84 174.73,-19.08 169.47,-19.7 171,-22.84"/>
</g>
</g>
</svg>
