<?xml version="1.0" encoding="UTF-8" standalone="no"?>
<!DOCTYPE svg PUBLIC "-//W3C//DTD SVG 1.1//EN"
 "http://www.w3.org/Graphics/SVG/1.1/DTD/svg11.dtd">
<!-- Generated by graphviz version 2.44.1 (20200629.0846)
 -->
<!-- Title: inheritance3db099f6f4 Pages: 1 -->
<svg width="720pt" height="647pt"
 viewBox="0.00 0.00 720.00 647.00" xmlns="http://www.w3.org/2000/svg" xmlns:xlink="http://www.w3.org/1999/xlink">
<g id="graph0" class="graph" transform="scale(1 1) rotate(0) translate(4 643)">
<title>inheritance3db099f6f4</title>
<!-- BackwardEuler -->
<g id="node1" class="node">
<title>BackwardEuler</title>
<g id="a_node1"><a xlink:href="../api/proteus.TimeIntegration.html#proteus.TimeIntegration.BackwardEuler" xlink:title="BackwardEuler" target="_top">
<polygon fill="white" stroke="black" stroke-width="0.5" points="286.5,-315 203.5,-315 203.5,-296 286.5,-296 286.5,-315"/>
<text text-anchor="middle" x="245" y="-303" font-family="Vera Sans, DejaVu Sans, Liberation Sans, Arial, Helvetica, sans" font-size="10.00">BackwardEuler</text>
</a>
</g>
</g>
<!-- BackwardEuler_cfl -->
<g id="node3" class="node">
<title>BackwardEuler_cfl</title>
<g id="a_node3"><a xlink:href="../api/proteus.TimeIntegration.html#proteus.TimeIntegration.BackwardEuler_cfl" xlink:title="Take a fraction of the max (over all components and elements)" target="_top">
<polygon fill="white" stroke="black" stroke-width="0.5" points="502,-352 404,-352 404,-333 502,-333 502,-352"/>
<text text-anchor="middle" x="453" y="-340" font-family="Vera Sans, DejaVu Sans, Liberation Sans, Arial, Helvetica, sans" font-size="10.00">BackwardEuler_cfl</text>
</a>
</g>
</g>
<!-- BackwardEuler&#45;&gt;BackwardEuler_cfl -->
<g id="edge2" class="edge">
<title>BackwardEuler&#45;&gt;BackwardEuler_cfl</title>
<path fill="none" stroke="black" stroke-width="0.5" d="M286.7,-312.81C318.77,-318.57 363.76,-326.65 398.71,-332.93"/>
<polygon fill="black" stroke="black" stroke-width="0.5" points="398.55,-334.68 403.79,-333.84 399.17,-331.23 398.55,-334.68"/>
</g>
<!-- PsiTCtte_new -->
<g id="node30" class="node">
<title>PsiTCtte_new</title>
<g id="a_node30"><a xlink:href="../api/proteus.TimeIntegration.html#proteus.TimeIntegration.PsiTCtte_new" xlink:title="PsiTCtte_new" target="_top">
<polygon fill="white" stroke="black" stroke-width="0.5" points="492.5,-315 413.5,-315 413.5,-296 492.5,-296 492.5,-315"/>
<text text-anchor="middle" x="453" y="-303" font-family="Vera Sans, DejaVu Sans, Liberation Sans, Arial, Helvetica, sans" font-size="10.00">PsiTCtte_new</text>
</a>
</g>
</g>
<!-- BackwardEuler&#45;&gt;PsiTCtte_new -->
<g id="edge24" class="edge">
<title>BackwardEuler&#45;&gt;PsiTCtte_new</title>
<path fill="none" stroke="black" stroke-width="0.5" d="M286.7,-305.5C321.79,-305.5 372.34,-305.5 408.28,-305.5"/>
<polygon fill="black" stroke="black" stroke-width="0.5" points="408.48,-307.25 413.48,-305.5 408.48,-303.75 408.48,-307.25"/>
</g>
<!-- TI_base -->
<g id="node2" class="node">
<title>TI_base</title>
<g id="a_node2"><a xlink:href="../api/proteus.TimeIntegration.html#proteus.TimeIntegration.TI_base" xlink:title="The base class for time discretizations of tightly coupled systems" target="_top">
<polygon fill="white" stroke="black" stroke-width="0.5" points="91,-167 37,-167 37,-148 91,-148 91,-167"/>
<text text-anchor="middle" x="64" y="-155" font-family="Vera Sans, DejaVu Sans, Liberation Sans, Arial, Helvetica, sans" font-size="10.00">TI_base</text>
</a>
</g>
</g>
<!-- TI_base&#45;&gt;BackwardEuler -->
<g id="edge1" class="edge">
<title>TI_base&#45;&gt;BackwardEuler</title>
<path fill="none" stroke="black" stroke-width="0.5" d="M69.44,-167.07C81.16,-191.24 115.42,-255.04 164,-286.5 174.17,-293.09 186.39,-297.39 198.18,-300.21"/>
<polygon fill="black" stroke="black" stroke-width="0.5" points="197.94,-301.95 203.2,-301.33 198.7,-298.53 197.94,-301.95"/>
</g>
<!-- CentralDifference_2ndD -->
<g id="node4" class="node">
<title>CentralDifference_2ndD</title>
<g id="a_node4"><a xlink:href="../api/proteus.TimeIntegration.html#proteus.TimeIntegration.CentralDifference_2ndD" xlink:title="CentralDifference_2ndD" target="_top">
<polygon fill="white" stroke="black" stroke-width="0.5" points="305.5,-278 184.5,-278 184.5,-259 305.5,-259 305.5,-278"/>
<text text-anchor="middle" x="245" y="-266" font-family="Vera Sans, DejaVu Sans, Liberation Sans, Arial, Helvetica, sans" font-size="10.00">CentralDifference_2ndD</text>
</a>
</g>
</g>
<!-- TI_base&#45;&gt;CentralDifference_2ndD -->
<g id="edge3" class="edge">
<title>TI_base&#45;&gt;CentralDifference_2ndD</title>
<path fill="none" stroke="black" stroke-width="0.5" d="M72.31,-167.01C87.33,-185.84 123.65,-227.93 164,-249.5 169.82,-252.61 176.14,-255.22 182.6,-257.4"/>
<polygon fill="black" stroke="black" stroke-width="0.5" points="182.27,-259.13 187.56,-258.99 183.33,-255.8 182.27,-259.13"/>
</g>
<!-- ExplicitRK_base -->
<g id="node19" class="node">
<title>ExplicitRK_base</title>
<g id="a_node19"><a xlink:href="../api/proteus.TimeIntegration.html#proteus.TimeIntegration.ExplicitRK_base" xlink:title="base class for explicit RK schemes which can be written in" target="_top">
<polygon fill="white" stroke="black" stroke-width="0.5" points="289.5,-241 200.5,-241 200.5,-222 289.5,-222 289.5,-241"/>
<text text-anchor="middle" x="245" y="-229" font-family="Vera Sans, DejaVu Sans, Liberation Sans, Arial, Helvetica, sans" font-size="10.00">ExplicitRK_base</text>
</a>
</g>
</g>
<!-- TI_base&#45;&gt;ExplicitRK_base -->
<g id="edge14" class="edge">
<title>TI_base&#45;&gt;ExplicitRK_base</title>
<path fill="none" stroke="black" stroke-width="0.5" d="M79.15,-167C97.83,-179.16 132.11,-200.12 164,-212.5 173.84,-216.32 184.66,-219.51 195.08,-222.13"/>
<polygon fill="black" stroke="black" stroke-width="0.5" points="194.89,-223.88 200.16,-223.37 195.72,-220.48 194.89,-223.88"/>
</g>
<!-- FLCBDF -->
<g id="node20" class="node">
<title>FLCBDF</title>
<g id="a_node20"><a xlink:href="../api/proteus.TimeIntegration.html#proteus.TimeIntegration.FLCBDF" xlink:title="FLCBDF" target="_top">
<polygon fill="white" stroke="black" stroke-width="0.5" points="273,-204 217,-204 217,-185 273,-185 273,-204"/>
<text text-anchor="middle" x="245" y="-192" font-family="Vera Sans, DejaVu Sans, Liberation Sans, Arial, Helvetica, sans" font-size="10.00">FLCBDF</text>
</a>
</g>
</g>
<!-- TI_base&#45;&gt;FLCBDF -->
<g id="edge15" class="edge">
<title>TI_base&#45;&gt;FLCBDF</title>
<path fill="none" stroke="black" stroke-width="0.5" d="M91.03,-162.88C123,-169.49 177.25,-180.7 211.82,-187.85"/>
<polygon fill="black" stroke="black" stroke-width="0.5" points="211.52,-189.57 216.77,-188.87 212.22,-186.14 211.52,-189.57"/>
</g>
<!-- ForwardEuler -->
<g id="node22" class="node">
<title>ForwardEuler</title>
<g id="a_node22"><a xlink:href="../api/proteus.TimeIntegration.html#proteus.TimeIntegration.ForwardEuler" xlink:title="ForwardEuler" target="_top">
<polygon fill="white" stroke="black" stroke-width="0.5" points="282,-167 208,-167 208,-148 282,-148 282,-167"/>
<text text-anchor="middle" x="245" y="-155" font-family="Vera Sans, DejaVu Sans, Liberation Sans, Arial, Helvetica, sans" font-size="10.00">ForwardEuler</text>
</a>
</g>
</g>
<!-- TI_base&#45;&gt;ForwardEuler -->
<g id="edge17" class="edge">
<title>TI_base&#45;&gt;ForwardEuler</title>
<path fill="none" stroke="black" stroke-width="0.5" d="M91.03,-157.5C120.2,-157.5 167.92,-157.5 202.31,-157.5"/>
<polygon fill="black" stroke="black" stroke-width="0.5" points="202.71,-159.25 207.71,-157.5 202.71,-155.75 202.71,-159.25"/>
</g>
<!-- ForwardEuler_A -->
<g id="node23" class="node">
<title>ForwardEuler_A</title>
<g id="a_node23"><a xlink:href="../api/proteus.TimeIntegration.html#proteus.TimeIntegration.ForwardEuler_A" xlink:title="ForwardEuler_A" target="_top">
<polygon fill="white" stroke="black" stroke-width="0.5" points="288,-130 202,-130 202,-111 288,-111 288,-130"/>
<text text-anchor="middle" x="245" y="-118" font-family="Vera Sans, DejaVu Sans, Liberation Sans, Arial, Helvetica, sans" font-size="10.00">ForwardEuler_A</text>
</a>
</g>
</g>
<!-- TI_base&#45;&gt;ForwardEuler_A -->
<g id="edge18" class="edge">
<title>TI_base&#45;&gt;ForwardEuler_A</title>
<path fill="none" stroke="black" stroke-width="0.5" d="M91.03,-152.12C118.66,-146.41 162.93,-137.26 196.75,-130.27"/>
<polygon fill="black" stroke="black" stroke-width="0.5" points="197.11,-131.98 201.66,-129.25 196.41,-128.55 197.11,-131.98"/>
</g>
<!-- ForwardEuler_H -->
<g id="node24" class="node">
<title>ForwardEuler_H</title>
<g id="a_node24"><a xlink:href="../api/proteus.TimeIntegration.html#proteus.TimeIntegration.ForwardEuler_H" xlink:title="ForwardEuler_H" target="_top">
<polygon fill="white" stroke="black" stroke-width="0.5" points="288.5,-93 201.5,-93 201.5,-74 288.5,-74 288.5,-93"/>
<text text-anchor="middle" x="245" y="-81" font-family="Vera Sans, DejaVu Sans, Liberation Sans, Arial, Helvetica, sans" font-size="10.00">ForwardEuler_H</text>
</a>
</g>
</g>
<!-- TI_base&#45;&gt;ForwardEuler_H -->
<g id="edge19" class="edge">
<title>TI_base&#45;&gt;ForwardEuler_H</title>
<path fill="none" stroke="black" stroke-width="0.5" d="M78.78,-147.96C97.33,-135.54 131.76,-113.93 164,-101.5 174.25,-97.55 185.59,-94.34 196.44,-91.79"/>
<polygon fill="black" stroke="black" stroke-width="0.5" points="196.89,-93.48 201.38,-90.67 196.11,-90.07 196.89,-93.48"/>
</g>
<!-- OuterTheta -->
<g id="node28" class="node">
<title>OuterTheta</title>
<g id="a_node28"><a xlink:href="../api/proteus.TimeIntegration.html#proteus.TimeIntegration.OuterTheta" xlink:title="OuterTheta" target="_top">
<polygon fill="white" stroke="black" stroke-width="0.5" points="277.5,-56 212.5,-56 212.5,-37 277.5,-37 277.5,-56"/>
<text text-anchor="middle" x="245" y="-44" font-family="Vera Sans, DejaVu Sans, Liberation Sans, Arial, Helvetica, sans" font-size="10.00">OuterTheta</text>
</a>
</g>
</g>
<!-- TI_base&#45;&gt;OuterTheta -->
<g id="edge22" class="edge">
<title>TI_base&#45;&gt;OuterTheta</title>
<path fill="none" stroke="black" stroke-width="0.5" d="M72.26,-147.85C87.2,-128.73 123.38,-86.05 164,-64.5 177.22,-57.49 193.06,-53.2 207.16,-50.58"/>
<polygon fill="black" stroke="black" stroke-width="0.5" points="207.63,-52.27 212.26,-49.69 207.03,-48.83 207.63,-52.27"/>
</g>
<!-- VBDF -->
<g id="node35" class="node">
<title>VBDF</title>
<g id="a_node35"><a xlink:href="../api/proteus.TimeIntegration.html#proteus.TimeIntegration.VBDF" xlink:title="Variable coefficient bdf&#39;s just first and second order" target="_top">
<polygon fill="white" stroke="black" stroke-width="0.5" points="272,-19 218,-19 218,0 272,0 272,-19"/>
<text text-anchor="middle" x="245" y="-7" font-family="Vera Sans, DejaVu Sans, Liberation Sans, Arial, Helvetica, sans" font-size="10.00">VBDF</text>
</a>
</g>
</g>
<!-- TI_base&#45;&gt;VBDF -->
<g id="edge29" class="edge">
<title>TI_base&#45;&gt;VBDF</title>
<path fill="none" stroke="black" stroke-width="0.5" d="M69.39,-147.82C81.02,-123.38 115.06,-58.91 164,-27.5 178.42,-18.24 196.97,-13.71 212.58,-11.51"/>
<polygon fill="black" stroke="black" stroke-width="0.5" points="213.01,-13.22 217.75,-10.85 212.57,-9.75 213.01,-13.22"/>
</g>
<!-- PsiTCtte -->
<g id="node29" class="node">
<title>PsiTCtte</title>
<g id="a_node29"><a xlink:href="../api/proteus.TimeIntegration.html#proteus.TimeIntegration.PsiTCtte" xlink:title="PsiTCtte" target="_top">
<polygon fill="white" stroke="black" stroke-width="0.5" points="674,-370 618,-370 618,-351 674,-351 674,-370"/>
<text text-anchor="middle" x="646" y="-358" font-family="Vera Sans, DejaVu Sans, Liberation Sans, Arial, Helvetica, sans" font-size="10.00">PsiTCtte</text>
</a>
</g>
</g>
<!-- BackwardEuler_cfl&#45;&gt;PsiTCtte -->
<g id="edge23" class="edge">
<title>BackwardEuler_cfl&#45;&gt;PsiTCtte</title>
<path fill="none" stroke="black" stroke-width="0.5" d="M502.2,-347.04C536.78,-350.3 582.42,-354.6 612.7,-357.46"/>
<polygon fill="black" stroke="black" stroke-width="0.5" points="612.65,-359.21 617.79,-357.94 612.98,-355.72 612.65,-359.21"/>
</g>
<!-- SSP -->
<g id="node31" class="node">
<title>SSP</title>
<g id="a_node31"><a xlink:href="../api/proteus.TimeIntegration.html#proteus.TimeIntegration.SSP" xlink:title="SSP" target="_top">
<polygon fill="white" stroke="black" stroke-width="0.5" points="673,-333 619,-333 619,-314 673,-314 673,-333"/>
<text text-anchor="middle" x="646" y="-321" font-family="Vera Sans, DejaVu Sans, Liberation Sans, Arial, Helvetica, sans" font-size="10.00">SSP</text>
</a>
</g>
</g>
<!-- BackwardEuler_cfl&#45;&gt;SSP -->
<g id="edge25" class="edge">
<title>BackwardEuler_cfl&#45;&gt;SSP</title>
<path fill="none" stroke="black" stroke-width="0.5" d="M502.2,-337.71C537.19,-334.22 583.53,-329.61 613.79,-326.6"/>
<polygon fill="black" stroke="black" stroke-width="0.5" points="614.07,-328.34 618.87,-326.1 613.73,-324.85 614.07,-328.34"/>
</g>
<!-- CockburnNotesLimiter2d_base -->
<g id="node5" class="node">
<title>CockburnNotesLimiter2d_base</title>
<g id="a_node5"><a xlink:href="../api/proteus.TimeIntegration.html#proteus.TimeIntegration.CockburnNotesLimiter2d_base" xlink:title="CockburnNotesLimiter2d_base" target="_top">
<polygon fill="white" stroke="black" stroke-width="0.5" points="320.5,-454 169.5,-454 169.5,-435 320.5,-435 320.5,-454"/>
<text text-anchor="middle" x="245" y="-442" font-family="Vera Sans, DejaVu Sans, Liberation Sans, Arial, Helvetica, sans" font-size="10.00">CockburnNotesLimiter2d_base</text>
</a>
</g>
</g>
<!-- DGlimiterP1Lagrange2d -->
<g id="node12" class="node">
<title>DGlimiterP1Lagrange2d</title>
<g id="a_node12"><a xlink:href="../api/proteus.TimeIntegration.html#proteus.TimeIntegration.DGlimiterP1Lagrange2d" xlink:title="apply standard, Cockburn RKDG limiter in 2d (maybe)" target="_top">
<polygon fill="white" stroke="black" stroke-width="0.5" points="513,-500 393,-500 393,-481 513,-481 513,-500"/>
<text text-anchor="middle" x="453" y="-488" font-family="Vera Sans, DejaVu Sans, Liberation Sans, Arial, Helvetica, sans" font-size="10.00">DGlimiterP1Lagrange2d</text>
</a>
</g>
</g>
<!-- CockburnNotesLimiter2d_base&#45;&gt;DGlimiterP1Lagrange2d -->
<g id="edge9" class="edge">
<title>CockburnNotesLimiter2d_base&#45;&gt;DGlimiterP1Lagrange2d</title>
<path fill="none" stroke="black" stroke-width="0.5" d="M289.22,-454.03C301.15,-456.71 314.09,-459.67 326,-462.5 342.05,-466.31 345.93,-467.8 362,-471.5 374.36,-474.35 387.72,-477.26 400.27,-479.92"/>
<polygon fill="black" stroke="black" stroke-width="0.5" points="399.96,-481.64 405.22,-480.97 400.69,-478.22 399.96,-481.64"/>
</g>
<!-- DGlimiterP2Lagrange2d -->
<g id="node15" class="node">
<title>DGlimiterP2Lagrange2d</title>
<g id="a_node15"><a xlink:href="../api/proteus.TimeIntegration.html#proteus.TimeIntegration.DGlimiterP2Lagrange2d" xlink:title="canonical (I hope) 2d DG limiting procedure when original" target="_top">
<polygon fill="white" stroke="black" stroke-width="0.5" points="513,-463 393,-463 393,-444 513,-444 513,-463"/>
<text text-anchor="middle" x="453" y="-451" font-family="Vera Sans, DejaVu Sans, Liberation Sans, Arial, Helvetica, sans" font-size="10.00">DGlimiterP2Lagrange2d</text>
</a>
</g>
</g>
<!-- CockburnNotesLimiter2d_base&#45;&gt;DGlimiterP2Lagrange2d -->
<g id="edge11" class="edge">
<title>CockburnNotesLimiter2d_base&#45;&gt;DGlimiterP2Lagrange2d</title>
<path fill="none" stroke="black" stroke-width="0.5" d="M320.66,-447.76C342.62,-448.72 366.44,-449.76 387.69,-450.69"/>
<polygon fill="black" stroke="black" stroke-width="0.5" points="387.68,-452.44 392.75,-450.91 387.84,-448.94 387.68,-452.44"/>
</g>
<!-- DGlimiterPkMonomial2d -->
<g id="node18" class="node">
<title>DGlimiterPkMonomial2d</title>
<g id="a_node18"><a xlink:href="../api/proteus.TimeIntegration.html#proteus.TimeIntegration.DGlimiterPkMonomial2d" xlink:title="canonical (I hope) 2d DG limiting procedure when original" target="_top">
<polygon fill="white" stroke="black" stroke-width="0.5" points="514,-426 392,-426 392,-407 514,-407 514,-426"/>
<text text-anchor="middle" x="453" y="-414" font-family="Vera Sans, DejaVu Sans, Liberation Sans, Arial, Helvetica, sans" font-size="10.00">DGlimiterPkMonomial2d</text>
</a>
</g>
</g>
<!-- CockburnNotesLimiter2d_base&#45;&gt;DGlimiterPkMonomial2d -->
<g id="edge13" class="edge">
<title>CockburnNotesLimiter2d_base&#45;&gt;DGlimiterPkMonomial2d</title>
<path fill="none" stroke="black" stroke-width="0.5" d="M316.03,-434.98C338.91,-431.87 364.22,-428.43 386.73,-425.37"/>
<polygon fill="black" stroke="black" stroke-width="0.5" points="387.07,-427.09 391.79,-424.68 386.6,-423.62 387.07,-427.09"/>
</g>
<!-- UnstructuredLimiter_base -->
<g id="node6" class="node">
<title>UnstructuredLimiter_base</title>
<g id="a_node6"><a xlink:href="../api/proteus.TimeIntegration.html#proteus.TimeIntegration.UnstructuredLimiter_base" xlink:title="UnstructuredLimiter_base" target="_top">
<polygon fill="white" stroke="black" stroke-width="0.5" points="128,-399 0,-399 0,-380 128,-380 128,-399"/>
<text text-anchor="middle" x="64" y="-387" font-family="Vera Sans, DejaVu Sans, Liberation Sans, Arial, Helvetica, sans" font-size="10.00">UnstructuredLimiter_base</text>
</a>
</g>
</g>
<!-- UnstructuredLimiter_base&#45;&gt;CockburnNotesLimiter2d_base -->
<g id="edge4" class="edge">
<title>UnstructuredLimiter_base&#45;&gt;CockburnNotesLimiter2d_base</title>
<path fill="none" stroke="black" stroke-width="0.5" d="M96.18,-399.08C127.27,-408.63 174.99,-423.3 207.75,-433.36"/>
<polygon fill="black" stroke="black" stroke-width="0.5" points="207.58,-435.14 212.88,-434.94 208.61,-431.8 207.58,-435.14"/>
</g>
<!-- DGlimiterDurlofskyP1Lagrange2d -->
<g id="node7" class="node">
<title>DGlimiterDurlofskyP1Lagrange2d</title>
<g id="a_node7"><a xlink:href="../api/proteus.TimeIntegration.html#proteus.TimeIntegration.DGlimiterDurlofskyP1Lagrange2d" xlink:title="DGlimiterDurlofskyP1Lagrange2d" target="_top">
<polygon fill="white" stroke="black" stroke-width="0.5" points="326,-399 164,-399 164,-380 326,-380 326,-399"/>
<text text-anchor="middle" x="245" y="-387" font-family="Vera Sans, DejaVu Sans, Liberation Sans, Arial, Helvetica, sans" font-size="10.00">DGlimiterDurlofskyP1Lagrange2d</text>
</a>
</g>
</g>
<!-- UnstructuredLimiter_base&#45;&gt;DGlimiterDurlofskyP1Lagrange2d -->
<g id="edge5" class="edge">
<title>UnstructuredLimiter_base&#45;&gt;DGlimiterDurlofskyP1Lagrange2d</title>
<path fill="none" stroke="black" stroke-width="0.5" d="M128.11,-389.5C138.06,-389.5 148.48,-389.5 158.83,-389.5"/>
<polygon fill="black" stroke="black" stroke-width="0.5" points="158.9,-391.25 163.9,-389.5 158.9,-387.75 158.9,-391.25"/>
</g>
<!-- DGlimiterDurlofskyP1Lagrange3d -->
<g id="node9" class="node">
<title>DGlimiterDurlofskyP1Lagrange3d</title>
<g id="a_node9"><a xlink:href="../api/proteus.TimeIntegration.html#proteus.TimeIntegration.DGlimiterDurlofskyP1Lagrange3d" xlink:title="DGlimiterDurlofskyP1Lagrange3d" target="_top">
<polygon fill="white" stroke="black" stroke-width="0.5" points="326,-362 164,-362 164,-343 326,-343 326,-362"/>
<text text-anchor="middle" x="245" y="-350" font-family="Vera Sans, DejaVu Sans, Liberation Sans, Arial, Helvetica, sans" font-size="10.00">DGlimiterDurlofskyP1Lagrange3d</text>
</a>
</g>
</g>
<!-- UnstructuredLimiter_base&#45;&gt;DGlimiterDurlofskyP1Lagrange3d -->
<g id="edge7" class="edge">
<title>UnstructuredLimiter_base&#45;&gt;DGlimiterDurlofskyP1Lagrange3d</title>
<path fill="none" stroke="black" stroke-width="0.5" d="M111.1,-379.97C136.05,-374.81 166.95,-368.43 192.68,-363.11"/>
<polygon fill="black" stroke="black" stroke-width="0.5" points="193.21,-364.79 197.75,-362.06 192.5,-361.36 193.21,-364.79"/>
</g>
<!-- DGlimiterDurlofskyP1Lagrange2d_Sw -->
<g id="node8" class="node">
<title>DGlimiterDurlofskyP1Lagrange2d_Sw</title>
<g id="a_node8"><a xlink:href="../api/proteus.TimeIntegration.html#proteus.TimeIntegration.DGlimiterDurlofskyP1Lagrange2d_Sw" xlink:title="DGlimiterDurlofskyP1Lagrange2d_Sw" target="_top">
<polygon fill="white" stroke="black" stroke-width="0.5" points="544,-389 362,-389 362,-370 544,-370 544,-389"/>
<text text-anchor="middle" x="453" y="-377" font-family="Vera Sans, DejaVu Sans, Liberation Sans, Arial, Helvetica, sans" font-size="10.00">DGlimiterDurlofskyP1Lagrange2d_Sw</text>
</a>
</g>
</g>
<!-- DGlimiterDurlofskyP1Lagrange2d&#45;&gt;DGlimiterDurlofskyP1Lagrange2d_Sw -->
<g id="edge6" class="edge">
<title>DGlimiterDurlofskyP1Lagrange2d&#45;&gt;DGlimiterDurlofskyP1Lagrange2d_Sw</title>
<path fill="none" stroke="black" stroke-width="0.5" d="M326.23,-385.61C336.23,-385.12 346.54,-384.62 356.74,-384.12"/>
<polygon fill="black" stroke="black" stroke-width="0.5" points="356.82,-385.87 361.73,-383.88 356.65,-382.38 356.82,-385.87"/>
</g>
<!-- DGlimiterP1Lagrange1d -->
<g id="node10" class="node">
<title>DGlimiterP1Lagrange1d</title>
<g id="a_node10"><a xlink:href="../api/proteus.TimeIntegration.html#proteus.TimeIntegration.DGlimiterP1Lagrange1d" xlink:title="canonical (I hope) 1d DG limiting procedure when original" target="_top">
<polygon fill="white" stroke="black" stroke-width="0.5" points="124,-491 4,-491 4,-472 124,-472 124,-491"/>
<text text-anchor="middle" x="64" y="-479" font-family="Vera Sans, DejaVu Sans, Liberation Sans, Arial, Helvetica, sans" font-size="10.00">DGlimiterP1Lagrange1d</text>
</a>
</g>
</g>
<!-- DGlimiterP1Lagrange1d_Sw -->
<g id="node11" class="node">
<title>DGlimiterP1Lagrange1d_Sw</title>
<g id="a_node11"><a xlink:href="../api/proteus.TimeIntegration.html#proteus.TimeIntegration.DGlimiterP1Lagrange1d_Sw" xlink:title="DGP1 version of limiting that applies minmod limiting for h &lt; h_eps" target="_top">
<polygon fill="white" stroke="black" stroke-width="0.5" points="315,-491 175,-491 175,-472 315,-472 315,-491"/>
<text text-anchor="middle" x="245" y="-479" font-family="Vera Sans, DejaVu Sans, Liberation Sans, Arial, Helvetica, sans" font-size="10.00">DGlimiterP1Lagrange1d_Sw</text>
</a>
</g>
</g>
<!-- DGlimiterP1Lagrange1d&#45;&gt;DGlimiterP1Lagrange1d_Sw -->
<g id="edge8" class="edge">
<title>DGlimiterP1Lagrange1d&#45;&gt;DGlimiterP1Lagrange1d_Sw</title>
<path fill="none" stroke="black" stroke-width="0.5" d="M124.11,-481.5C138.65,-481.5 154.42,-481.5 169.58,-481.5"/>
<polygon fill="black" stroke="black" stroke-width="0.5" points="169.7,-483.25 174.7,-481.5 169.7,-479.75 169.7,-483.25"/>
</g>
<!-- DGlimiterP2Lagrange1d -->
<g id="node13" class="node">
<title>DGlimiterP2Lagrange1d</title>
<g id="a_node13"><a xlink:href="../api/proteus.TimeIntegration.html#proteus.TimeIntegration.DGlimiterP2Lagrange1d" xlink:title="canonical (I hope) 1d DG limiting procedure when original" target="_top">
<polygon fill="white" stroke="black" stroke-width="0.5" points="124,-528 4,-528 4,-509 124,-509 124,-528"/>
<text text-anchor="middle" x="64" y="-516" font-family="Vera Sans, DejaVu Sans, Liberation Sans, Arial, Helvetica, sans" font-size="10.00">DGlimiterP2Lagrange1d</text>
</a>
</g>
</g>
<!-- DGlimiterP2Lagrange1d_Sw -->
<g id="node14" class="node">
<title>DGlimiterP2Lagrange1d_Sw</title>
<g id="a_node14"><a xlink:href="../api/proteus.TimeIntegration.html#proteus.TimeIntegration.DGlimiterP2Lagrange1d_Sw" xlink:title="DGP1 version of limiting that applies minmod limiting for h &lt; h_eps" target="_top">
<polygon fill="white" stroke="black" stroke-width="0.5" points="315,-528 175,-528 175,-509 315,-509 315,-528"/>
<text text-anchor="middle" x="245" y="-516" font-family="Vera Sans, DejaVu Sans, Liberation Sans, Arial, Helvetica, sans" font-size="10.00">DGlimiterP2Lagrange1d_Sw</text>
</a>
</g>
</g>
<!-- DGlimiterP2Lagrange1d&#45;&gt;DGlimiterP2Lagrange1d_Sw -->
<g id="edge10" class="edge">
<title>DGlimiterP2Lagrange1d&#45;&gt;DGlimiterP2Lagrange1d_Sw</title>
<path fill="none" stroke="black" stroke-width="0.5" d="M124.11,-518.5C138.65,-518.5 154.42,-518.5 169.58,-518.5"/>
<polygon fill="black" stroke="black" stroke-width="0.5" points="169.7,-520.25 174.7,-518.5 169.7,-516.75 169.7,-520.25"/>
</g>
<!-- DGlimiterPkMonomial1d -->
<g id="node16" class="node">
<title>DGlimiterPkMonomial1d</title>
<g id="a_node16"><a xlink:href="../api/proteus.TimeIntegration.html#proteus.TimeIntegration.DGlimiterPkMonomial1d" xlink:title="canonical (I hope) 1d DG limiting procedure when original" target="_top">
<polygon fill="white" stroke="black" stroke-width="0.5" points="125,-565 3,-565 3,-546 125,-546 125,-565"/>
<text text-anchor="middle" x="64" y="-553" font-family="Vera Sans, DejaVu Sans, Liberation Sans, Arial, Helvetica, sans" font-size="10.00">DGlimiterPkMonomial1d</text>
</a>
</g>
</g>
<!-- DGlimiterPkMonomial1d_Sw -->
<g id="node17" class="node">
<title>DGlimiterPkMonomial1d_Sw</title>
<g id="a_node17"><a xlink:href="../api/proteus.TimeIntegration.html#proteus.TimeIntegration.DGlimiterPkMonomial1d_Sw" xlink:title="DGPk version of limiting that applies minmod limiting for h &lt; h_eps" target="_top">
<polygon fill="white" stroke="black" stroke-width="0.5" points="316,-565 174,-565 174,-546 316,-546 316,-565"/>
<text text-anchor="middle" x="245" y="-553" font-family="Vera Sans, DejaVu Sans, Liberation Sans, Arial, Helvetica, sans" font-size="10.00">DGlimiterPkMonomial1d_Sw</text>
</a>
</g>
</g>
<!-- DGlimiterPkMonomial1d&#45;&gt;DGlimiterPkMonomial1d_Sw -->
<g id="edge12" class="edge">
<title>DGlimiterPkMonomial1d&#45;&gt;DGlimiterPkMonomial1d_Sw</title>
<path fill="none" stroke="black" stroke-width="0.5" d="M125.1,-555.5C139.03,-555.5 154.03,-555.5 168.53,-555.5"/>
<polygon fill="black" stroke="black" stroke-width="0.5" points="168.84,-557.25 173.84,-555.5 168.84,-553.75 168.84,-557.25"/>
</g>
<!-- LinearSSPRKintegration -->
<g id="node27" class="node">
<title>LinearSSPRKintegration</title>
<g id="a_node27"><a xlink:href="../api/proteus.TimeIntegration.html#proteus.TimeIntegration.LinearSSPRKintegration" xlink:title="implementation of Explicit RK schemes for ODE that are SSP for" target="_top">
<polygon fill="white" stroke="black" stroke-width="0.5" points="514,-278 392,-278 392,-259 514,-259 514,-278"/>
<text text-anchor="middle" x="453" y="-266" font-family="Vera Sans, DejaVu Sans, Liberation Sans, Arial, Helvetica, sans" font-size="10.00">LinearSSPRKintegration</text>
</a>
</g>
</g>
<!-- ExplicitRK_base&#45;&gt;LinearSSPRKintegration -->
<g id="edge21" class="edge">
<title>ExplicitRK_base&#45;&gt;LinearSSPRKintegration</title>
<path fill="none" stroke="black" stroke-width="0.5" d="M289.69,-239.35C319.96,-244.78 360.59,-252.08 393.63,-258.02"/>
<polygon fill="black" stroke="black" stroke-width="0.5" points="393.64,-259.79 398.87,-258.96 394.25,-256.35 393.64,-259.79"/>
</g>
<!-- SSPRKPIintegration -->
<g id="node32" class="node">
<title>SSPRKPIintegration</title>
<g id="a_node32"><a xlink:href="../api/proteus.TimeIntegration.html#proteus.TimeIntegration.SSPRKPIintegration" xlink:title="So called SSP RK integration with limiting step at end of each" target="_top">
<polygon fill="white" stroke="black" stroke-width="0.5" points="506,-241 400,-241 400,-222 506,-222 506,-241"/>
<text text-anchor="middle" x="453" y="-229" font-family="Vera Sans, DejaVu Sans, Liberation Sans, Arial, Helvetica, sans" font-size="10.00">SSPRKPIintegration</text>
</a>
</g>
</g>
<!-- ExplicitRK_base&#45;&gt;SSPRKPIintegration -->
<g id="edge26" class="edge">
<title>ExplicitRK_base&#45;&gt;SSPRKPIintegration</title>
<path fill="none" stroke="black" stroke-width="0.5" d="M289.69,-231.5C320.29,-231.5 361.5,-231.5 394.73,-231.5"/>
<polygon fill="black" stroke="black" stroke-width="0.5" points="394.99,-233.25 399.99,-231.5 394.99,-229.75 394.99,-233.25"/>
</g>
<!-- FLCBDF_TwophaseDarcy_fc -->
<g id="node21" class="node">
<title>FLCBDF_TwophaseDarcy_fc</title>
<g id="a_node21"><a xlink:href="../api/proteus.TimeIntegration.html#proteus.TimeIntegration.FLCBDF_TwophaseDarcy_fc" xlink:title="FLCBDF_TwophaseDarcy_fc" target="_top">
<polygon fill="white" stroke="black" stroke-width="0.5" points="525.5,-204 380.5,-204 380.5,-185 525.5,-185 525.5,-204"/>
<text text-anchor="middle" x="453" y="-192" font-family="Vera Sans, DejaVu Sans, Liberation Sans, Arial, Helvetica, sans" font-size="10.00">FLCBDF_TwophaseDarcy_fc</text>
</a>
</g>
</g>
<!-- FLCBDF&#45;&gt;FLCBDF_TwophaseDarcy_fc -->
<g id="edge16" class="edge">
<title>FLCBDF&#45;&gt;FLCBDF_TwophaseDarcy_fc</title>
<path fill="none" stroke="black" stroke-width="0.5" d="M273.36,-194.5C299.23,-194.5 339.28,-194.5 374.92,-194.5"/>
<polygon fill="black" stroke="black" stroke-width="0.5" points="375.14,-196.25 380.14,-194.5 375.14,-192.75 375.14,-196.25"/>
</g>
<!-- ForwardIntegrator -->
<g id="node25" class="node">
<title>ForwardIntegrator</title>
<g id="a_node25"><a xlink:href="../api/proteus.TimeIntegration.html#proteus.TimeIntegration.ForwardIntegrator" xlink:title="class that is responsible for basic process of integrating a problem" target="_top">
<polygon fill="white" stroke="black" stroke-width="0.5" points="110.5,-620 17.5,-620 17.5,-601 110.5,-601 110.5,-620"/>
<text text-anchor="middle" x="64" y="-608" font-family="Vera Sans, DejaVu Sans, Liberation Sans, Arial, Helvetica, sans" font-size="10.00">ForwardIntegrator</text>
</a>
</g>
</g>
<!-- SignedDistanceIntegrator -->
<g id="node33" class="node">
<title>SignedDistanceIntegrator</title>
<g id="a_node33"><a xlink:href="../api/proteus.TimeIntegration.html#proteus.TimeIntegration.SignedDistanceIntegrator" xlink:title="apply some form of pseudo&#45;transient continuation or direct solve to" target="_top">
<polygon fill="white" stroke="black" stroke-width="0.5" points="308.5,-639 181.5,-639 181.5,-620 308.5,-620 308.5,-639"/>
<text text-anchor="middle" x="245" y="-627" font-family="Vera Sans, DejaVu Sans, Liberation Sans, Arial, Helvetica, sans" font-size="10.00">SignedDistanceIntegrator</text>
</a>
</g>
</g>
<!-- ForwardIntegrator&#45;&gt;SignedDistanceIntegrator -->
<g id="edge27" class="edge">
<title>ForwardIntegrator&#45;&gt;SignedDistanceIntegrator</title>
<path fill="none" stroke="black" stroke-width="0.5" d="M110.63,-615.34C130.48,-617.45 154.16,-619.96 176.01,-622.28"/>
<polygon fill="black" stroke="black" stroke-width="0.5" points="176.07,-624.05 181.23,-622.84 176.44,-620.57 176.07,-624.05"/>
</g>
<!-- SteadyStateIntegrator -->
<g id="node34" class="node">
<title>SteadyStateIntegrator</title>
<g id="a_node34"><a xlink:href="../api/proteus.TimeIntegration.html#proteus.TimeIntegration.SteadyStateIntegrator" xlink:title="apply some form of pseudo&#45;transient continuation or direct solve to" target="_top">
<polygon fill="white" stroke="black" stroke-width="0.5" points="301,-602 189,-602 189,-583 301,-583 301,-602"/>
<text text-anchor="middle" x="245" y="-590" font-family="Vera Sans, DejaVu Sans, Liberation Sans, Arial, Helvetica, sans" font-size="10.00">SteadyStateIntegrator</text>
</a>
</g>
</g>
<!-- ForwardIntegrator&#45;&gt;SteadyStateIntegrator -->
<g id="edge28" class="edge">
<title>ForwardIntegrator&#45;&gt;SteadyStateIntegrator</title>
<path fill="none" stroke="black" stroke-width="0.5" d="M110.63,-605.91C132.87,-603.67 159.92,-600.96 183.82,-598.55"/>
<polygon fill="black" stroke="black" stroke-width="0.5" points="184.07,-600.29 188.87,-598.04 183.72,-596.8 184.07,-600.29"/>
</g>
<!-- LinearSSPRKPIintegration -->
<g id="node26" class="node">
<title>LinearSSPRKPIintegration</title>
<g id="a_node26"><a xlink:href="../api/proteus.TimeIntegration.html#proteus.TimeIntegration.LinearSSPRKPIintegration" xlink:title="Linear SSP RK integration with limiting step at end of each phase, this one" target="_top">
<polygon fill="white" stroke="black" stroke-width="0.5" points="712,-278 580,-278 580,-259 712,-259 712,-278"/>
<text text-anchor="middle" x="646" y="-266" font-family="Vera Sans, DejaVu Sans, Liberation Sans, Arial, Helvetica, sans" font-size="10.00">LinearSSPRKPIintegration</text>
</a>
</g>
</g>
<!-- LinearSSPRKintegration&#45;&gt;LinearSSPRKPIintegration -->
<g id="edge20" class="edge">
<title>LinearSSPRKintegration&#45;&gt;LinearSSPRKPIintegration</title>
<path fill="none" stroke="black" stroke-width="0.5" d="M514.17,-268.5C533.43,-268.5 554.91,-268.5 574.81,-268.5"/>
<polygon fill="black" stroke="black" stroke-width="0.5" points="574.84,-270.25 579.84,-268.5 574.84,-266.75 574.84,-270.25"/>
</g>
</g>
</svg>
