<?xml version="1.0" encoding="UTF-8" standalone="no"?>
<!DOCTYPE svg PUBLIC "-//W3C//DTD SVG 1.1//EN"
 "http://www.w3.org/Graphics/SVG/1.1/DTD/svg11.dtd">
<!-- Generated by graphviz version 2.44.1 (20200629.0846)
 -->
<!-- Title: inheritance544eebe99b Pages: 1 -->
<svg width="476pt" height="323pt"
 viewBox="0.00 0.00 476.00 323.00" xmlns="http://www.w3.org/2000/svg" xmlns:xlink="http://www.w3.org/1999/xlink">
<g id="graph0" class="graph" transform="scale(1 1) rotate(0) translate(4 319)">
<title>inheritance544eebe99b</title>
<!-- Eikonal_SC -->
<g id="node1" class="node">
<title>Eikonal_SC</title>
<g id="a_node1"><a xlink:href="../api/proteus.ShockCapturing.html#proteus.ShockCapturing.Eikonal_SC" xlink:title="Eikonal_SC" target="_top">
<polygon fill="white" stroke="black" stroke-width="0.5" points="247,-315 179,-315 179,-296 247,-296 247,-315"/>
<text text-anchor="middle" x="213" y="-303" font-family="Vera Sans, DejaVu Sans, Liberation Sans, Arial, Helvetica, sans" font-size="10.00">Eikonal_SC</text>
</a>
</g>
</g>
<!-- ShockCapturing_base -->
<g id="node2" class="node">
<title>ShockCapturing_base</title>
<g id="a_node2"><a xlink:href="../api/proteus.ShockCapturing.html#proteus.ShockCapturing.ShockCapturing_base" xlink:title="ShockCapturing_base" target="_top">
<polygon fill="white" stroke="black" stroke-width="0.5" points="113,-167 0,-167 0,-148 113,-148 113,-167"/>
<text text-anchor="middle" x="56.5" y="-155" font-family="Vera Sans, DejaVu Sans, Liberation Sans, Arial, Helvetica, sans" font-size="10.00">ShockCapturing_base</text>
</a>
</g>
</g>
<!-- ShockCapturing_base&#45;&gt;Eikonal_SC -->
<g id="edge1" class="edge">
<title>ShockCapturing_base&#45;&gt;Eikonal_SC</title>
<path fill="none" stroke="black" stroke-width="0.5" d="M61.46,-167.02C71.95,-191.08 102.88,-254.72 149,-287.5 156.22,-292.63 164.87,-296.3 173.42,-298.93"/>
<polygon fill="black" stroke="black" stroke-width="0.5" points="173.43,-300.76 178.71,-300.44 174.38,-297.39 173.43,-300.76"/>
</g>
<!-- HamiltonJacobiJaffre_SC -->
<g id="node3" class="node">
<title>HamiltonJacobiJaffre_SC</title>
<g id="a_node3"><a xlink:href="../api/proteus.ShockCapturing.html#proteus.ShockCapturing.HamiltonJacobiJaffre_SC" xlink:title="HamiltonJacobiJaffre_SC" target="_top">
<polygon fill="white" stroke="black" stroke-width="0.5" points="277,-278 149,-278 149,-259 277,-259 277,-278"/>
<text text-anchor="middle" x="213" y="-266" font-family="Vera Sans, DejaVu Sans, Liberation Sans, Arial, Helvetica, sans" font-size="10.00">HamiltonJacobiJaffre_SC</text>
</a>
</g>
</g>
<!-- ShockCapturing_base&#45;&gt;HamiltonJacobiJaffre_SC -->
<g id="edge2" class="edge">
<title>ShockCapturing_base&#45;&gt;HamiltonJacobiJaffre_SC</title>
<path fill="none" stroke="black" stroke-width="0.5" d="M64.35,-167.27C78.15,-186.22 111.22,-228.06 149,-250.5 153.25,-253.03 157.88,-255.21 162.63,-257.11"/>
<polygon fill="black" stroke="black" stroke-width="0.5" points="162.12,-258.78 167.42,-258.9 163.35,-255.5 162.12,-258.78"/>
</g>
<!-- HamiltonJacobi_SC -->
<g id="node4" class="node">
<title>HamiltonJacobi_SC</title>
<g id="a_node4"><a xlink:href="../api/proteus.ShockCapturing.html#proteus.ShockCapturing.HamiltonJacobi_SC" xlink:title="HamiltonJacobi_SC" target="_top">
<polygon fill="white" stroke="black" stroke-width="0.5" points="265,-241 161,-241 161,-222 265,-222 265,-241"/>
<text text-anchor="middle" x="213" y="-229" font-family="Vera Sans, DejaVu Sans, Liberation Sans, Arial, Helvetica, sans" font-size="10.00">HamiltonJacobi_SC</text>
</a>
</g>
</g>
<!-- ShockCapturing_base&#45;&gt;HamiltonJacobi_SC -->
<g id="edge3" class="edge">
<title>ShockCapturing_base&#45;&gt;HamiltonJacobi_SC</title>
<path fill="none" stroke="black" stroke-width="0.5" d="M70.52,-167.05C87.72,-179.28 119.33,-200.47 149,-213.5 154.89,-216.09 161.26,-218.41 167.6,-220.46"/>
<polygon fill="black" stroke="black" stroke-width="0.5" points="167.14,-222.15 172.44,-221.97 168.19,-218.81 167.14,-222.15"/>
</g>
<!-- JaffreGradU_SC -->
<g id="node5" class="node">
<title>JaffreGradU_SC</title>
<g id="a_node5"><a xlink:href="../api/proteus.ShockCapturing.html#proteus.ShockCapturing.JaffreGradU_SC" xlink:title="JaffreGradU_SC" target="_top">
<polygon fill="white" stroke="black" stroke-width="0.5" points="257.5,-204 168.5,-204 168.5,-185 257.5,-185 257.5,-204"/>
<text text-anchor="middle" x="213" y="-192" font-family="Vera Sans, DejaVu Sans, Liberation Sans, Arial, Helvetica, sans" font-size="10.00">JaffreGradU_SC</text>
</a>
</g>
</g>
<!-- ShockCapturing_base&#45;&gt;JaffreGradU_SC -->
<g id="edge4" class="edge">
<title>ShockCapturing_base&#45;&gt;JaffreGradU_SC</title>
<path fill="none" stroke="black" stroke-width="0.5" d="M97.29,-167.03C118.65,-172.14 145.06,-178.47 167.15,-183.76"/>
<polygon fill="black" stroke="black" stroke-width="0.5" points="166.81,-185.48 172.08,-184.94 167.62,-182.07 166.81,-185.48"/>
</g>
<!-- ResGradQuad_SC -->
<g id="node7" class="node">
<title>ResGradQuad_SC</title>
<g id="a_node7"><a xlink:href="../api/proteus.ShockCapturing.html#proteus.ShockCapturing.ResGradQuad_SC" xlink:title="ResGradQuad_SC" target="_top">
<polygon fill="white" stroke="black" stroke-width="0.5" points="262,-167 164,-167 164,-148 262,-148 262,-167"/>
<text text-anchor="middle" x="213" y="-155" font-family="Vera Sans, DejaVu Sans, Liberation Sans, Arial, Helvetica, sans" font-size="10.00">ResGradQuad_SC</text>
</a>
</g>
</g>
<!-- ShockCapturing_base&#45;&gt;ResGradQuad_SC -->
<g id="edge12" class="edge">
<title>ShockCapturing_base&#45;&gt;ResGradQuad_SC</title>
<path fill="none" stroke="black" stroke-width="0.5" d="M113.28,-157.5C128.06,-157.5 143.98,-157.5 158.63,-157.5"/>
<polygon fill="black" stroke="black" stroke-width="0.5" points="158.96,-159.25 163.96,-157.5 158.96,-155.75 158.96,-159.25"/>
</g>
<!-- ResGrad_SC -->
<g id="node10" class="node">
<title>ResGrad_SC</title>
<g id="a_node10"><a xlink:href="../api/proteus.ShockCapturing.html#proteus.ShockCapturing.ResGrad_SC" xlink:title="ResGrad_SC" target="_top">
<polygon fill="white" stroke="black" stroke-width="0.5" points="250.5,-130 175.5,-130 175.5,-111 250.5,-111 250.5,-130"/>
<text text-anchor="middle" x="213" y="-118" font-family="Vera Sans, DejaVu Sans, Liberation Sans, Arial, Helvetica, sans" font-size="10.00">ResGrad_SC</text>
</a>
</g>
</g>
<!-- ShockCapturing_base&#45;&gt;ResGrad_SC -->
<g id="edge13" class="edge">
<title>ShockCapturing_base&#45;&gt;ResGrad_SC</title>
<path fill="none" stroke="black" stroke-width="0.5" d="M97.29,-147.97C119.65,-142.62 147.53,-135.94 170.21,-130.51"/>
<polygon fill="black" stroke="black" stroke-width="0.5" points="170.81,-132.16 175.26,-129.3 169.99,-128.76 170.81,-132.16"/>
</g>
<!-- ResGradFFDarcy_SC -->
<g id="node12" class="node">
<title>ResGradFFDarcy_SC</title>
<g id="a_node12"><a xlink:href="../api/proteus.ShockCapturing.html#proteus.ShockCapturing.ResGradFFDarcy_SC" xlink:title="ResGradFFDarcy_SC" target="_top">
<polygon fill="white" stroke="black" stroke-width="0.5" points="269.5,-93 156.5,-93 156.5,-74 269.5,-74 269.5,-93"/>
<text text-anchor="middle" x="213" y="-81" font-family="Vera Sans, DejaVu Sans, Liberation Sans, Arial, Helvetica, sans" font-size="10.00">ResGradFFDarcy_SC</text>
</a>
</g>
</g>
<!-- ShockCapturing_base&#45;&gt;ResGradFFDarcy_SC -->
<g id="edge9" class="edge">
<title>ShockCapturing_base&#45;&gt;ResGradFFDarcy_SC</title>
<path fill="none" stroke="black" stroke-width="0.5" d="M71.18,-147.79C88.57,-135.8 119.85,-115.41 149,-102.5 155.62,-99.57 162.82,-96.92 169.91,-94.6"/>
<polygon fill="black" stroke="black" stroke-width="0.5" points="170.56,-96.23 174.8,-93.05 169.5,-92.9 170.56,-96.23"/>
</g>
<!-- ResGradJuanes_SC -->
<g id="node13" class="node">
<title>ResGradJuanes_SC</title>
<g id="a_node13"><a xlink:href="../api/proteus.ShockCapturing.html#proteus.ShockCapturing.ResGradJuanes_SC" xlink:title="ResGradJuanes_SC" target="_top">
<polygon fill="white" stroke="black" stroke-width="0.5" points="266.5,-56 159.5,-56 159.5,-37 266.5,-37 266.5,-56"/>
<text text-anchor="middle" x="213" y="-44" font-family="Vera Sans, DejaVu Sans, Liberation Sans, Arial, Helvetica, sans" font-size="10.00">ResGradJuanes_SC</text>
</a>
</g>
</g>
<!-- ShockCapturing_base&#45;&gt;ResGradJuanes_SC -->
<g id="edge10" class="edge">
<title>ShockCapturing_base&#45;&gt;ResGradJuanes_SC</title>
<path fill="none" stroke="black" stroke-width="0.5" d="M64.35,-147.73C78.15,-128.78 111.22,-86.94 149,-64.5 153.25,-61.97 157.88,-59.79 162.63,-57.89"/>
<polygon fill="black" stroke="black" stroke-width="0.5" points="163.35,-59.5 167.42,-56.1 162.12,-56.22 163.35,-59.5"/>
</g>
<!-- ScalarAdvection_SC -->
<g id="node15" class="node">
<title>ScalarAdvection_SC</title>
<g id="a_node15"><a xlink:href="../api/proteus.ShockCapturing.html#proteus.ShockCapturing.ScalarAdvection_SC" xlink:title="ScalarAdvection_SC" target="_top">
<polygon fill="white" stroke="black" stroke-width="0.5" points="266.5,-19 159.5,-19 159.5,0 266.5,0 266.5,-19"/>
<text text-anchor="middle" x="213" y="-7" font-family="Vera Sans, DejaVu Sans, Liberation Sans, Arial, Helvetica, sans" font-size="10.00">ScalarAdvection_SC</text>
</a>
</g>
</g>
<!-- ShockCapturing_base&#45;&gt;ScalarAdvection_SC -->
<g id="edge14" class="edge">
<title>ShockCapturing_base&#45;&gt;ScalarAdvection_SC</title>
<path fill="none" stroke="black" stroke-width="0.5" d="M61.46,-147.98C71.95,-123.92 102.88,-60.28 149,-27.5 152.47,-25.04 156.26,-22.91 160.22,-21.07"/>
<polygon fill="black" stroke="black" stroke-width="0.5" points="161.03,-22.63 164.93,-19.05 159.64,-19.41 161.03,-22.63"/>
</g>
<!-- NavierStokes_SC -->
<g id="node6" class="node">
<title>NavierStokes_SC</title>
<g id="a_node6"><a xlink:href="../api/proteus.ShockCapturing.html#proteus.ShockCapturing.NavierStokes_SC" xlink:title="NavierStokes_SC" target="_top">
<polygon fill="white" stroke="black" stroke-width="0.5" points="438,-241 343,-241 343,-222 438,-222 438,-241"/>
<text text-anchor="middle" x="390.5" y="-229" font-family="Vera Sans, DejaVu Sans, Liberation Sans, Arial, Helvetica, sans" font-size="10.00">NavierStokes_SC</text>
</a>
</g>
</g>
<!-- ResGradQuad_SC&#45;&gt;NavierStokes_SC -->
<g id="edge5" class="edge">
<title>ResGradQuad_SC&#45;&gt;NavierStokes_SC</title>
<path fill="none" stroke="black" stroke-width="0.5" d="M256.28,-167.01C263.47,-169.52 270.65,-172.64 277,-176.5 296.61,-188.41 293.03,-202.2 313,-213.5 320.47,-217.73 328.9,-220.97 337.35,-223.45"/>
<polygon fill="black" stroke="black" stroke-width="0.5" points="337.32,-225.25 342.61,-224.89 338.25,-221.88 337.32,-225.25"/>
</g>
<!-- NavierStokes_SC_opt -->
<g id="node8" class="node">
<title>NavierStokes_SC_opt</title>
<g id="a_node8"><a xlink:href="../api/proteus.ShockCapturing.html#proteus.ShockCapturing.NavierStokes_SC_opt" xlink:title="NavierStokes_SC_opt" target="_top">
<polygon fill="white" stroke="black" stroke-width="0.5" points="447.5,-204 333.5,-204 333.5,-185 447.5,-185 447.5,-204"/>
<text text-anchor="middle" x="390.5" y="-192" font-family="Vera Sans, DejaVu Sans, Liberation Sans, Arial, Helvetica, sans" font-size="10.00">NavierStokes_SC_opt</text>
</a>
</g>
</g>
<!-- ResGradQuad_SC&#45;&gt;NavierStokes_SC_opt -->
<g id="edge6" class="edge">
<title>ResGradQuad_SC&#45;&gt;NavierStokes_SC_opt</title>
<path fill="none" stroke="black" stroke-width="0.5" d="M259.2,-167.03C283.67,-172.19 313.96,-178.57 339.18,-183.89"/>
<polygon fill="black" stroke="black" stroke-width="0.5" points="338.9,-185.62 344.15,-184.94 339.62,-182.2 338.9,-185.62"/>
</g>
<!-- ResGradQuadDelayLag_SC -->
<g id="node14" class="node">
<title>ResGradQuadDelayLag_SC</title>
<g id="a_node14"><a xlink:href="../api/proteus.ShockCapturing.html#proteus.ShockCapturing.ResGradQuadDelayLag_SC" xlink:title="ResGradQuadDelayLag_SC" target="_top">
<polygon fill="white" stroke="black" stroke-width="0.5" points="460.5,-167 320.5,-167 320.5,-148 460.5,-148 460.5,-167"/>
<text text-anchor="middle" x="390.5" y="-155" font-family="Vera Sans, DejaVu Sans, Liberation Sans, Arial, Helvetica, sans" font-size="10.00">ResGradQuadDelayLag_SC</text>
</a>
</g>
</g>
<!-- ResGradQuad_SC&#45;&gt;ResGradQuadDelayLag_SC -->
<g id="edge11" class="edge">
<title>ResGradQuad_SC&#45;&gt;ResGradQuadDelayLag_SC</title>
<path fill="none" stroke="black" stroke-width="0.5" d="M262.42,-157.5C278.74,-157.5 297.35,-157.5 315.2,-157.5"/>
<polygon fill="black" stroke="black" stroke-width="0.5" points="315.22,-159.25 320.22,-157.5 315.22,-155.75 315.22,-159.25"/>
</g>
<!-- ResGradDelayLag_SC -->
<g id="node9" class="node">
<title>ResGradDelayLag_SC</title>
<g id="a_node9"><a xlink:href="../api/proteus.ShockCapturing.html#proteus.ShockCapturing.ResGradDelayLag_SC" xlink:title="ResGradDelayLag_SC" target="_top">
<polygon fill="white" stroke="black" stroke-width="0.5" points="448.5,-130 332.5,-130 332.5,-111 448.5,-111 448.5,-130"/>
<text text-anchor="middle" x="390.5" y="-118" font-family="Vera Sans, DejaVu Sans, Liberation Sans, Arial, Helvetica, sans" font-size="10.00">ResGradDelayLag_SC</text>
</a>
</g>
</g>
<!-- ResGrad_SC&#45;&gt;ResGradDelayLag_SC -->
<g id="edge7" class="edge">
<title>ResGrad_SC&#45;&gt;ResGradDelayLag_SC</title>
<path fill="none" stroke="black" stroke-width="0.5" d="M250.79,-120.5C272.93,-120.5 301.7,-120.5 327.3,-120.5"/>
<polygon fill="black" stroke="black" stroke-width="0.5" points="327.37,-122.25 332.37,-120.5 327.37,-118.75 327.37,-122.25"/>
</g>
<!-- ResGradFFDarcyDelayLag_SC -->
<g id="node11" class="node">
<title>ResGradFFDarcyDelayLag_SC</title>
<g id="a_node11"><a xlink:href="../api/proteus.ShockCapturing.html#proteus.ShockCapturing.ResGradFFDarcyDelayLag_SC" xlink:title="ResGradFFDarcyDelayLag_SC" target="_top">
<polygon fill="white" stroke="black" stroke-width="0.5" points="468,-93 313,-93 313,-74 468,-74 468,-93"/>
<text text-anchor="middle" x="390.5" y="-81" font-family="Vera Sans, DejaVu Sans, Liberation Sans, Arial, Helvetica, sans" font-size="10.00">ResGradFFDarcyDelayLag_SC</text>
</a>
</g>
</g>
<!-- ResGradFFDarcy_SC&#45;&gt;ResGradFFDarcyDelayLag_SC -->
<g id="edge8" class="edge">
<title>ResGradFFDarcy_SC&#45;&gt;ResGradFFDarcyDelayLag_SC</title>
<path fill="none" stroke="black" stroke-width="0.5" d="M269.53,-83.5C281.67,-83.5 294.78,-83.5 307.71,-83.5"/>
<polygon fill="black" stroke="black" stroke-width="0.5" points="307.84,-85.25 312.84,-83.5 307.84,-81.75 307.84,-85.25"/>
</g>
</g>
</svg>
