<?xml version="1.0" encoding="UTF-8" standalone="no"?>
<!DOCTYPE svg PUBLIC "-//W3C//DTD SVG 1.1//EN"
 "http://www.w3.org/Graphics/SVG/1.1/DTD/svg11.dtd">
<!-- Generated by graphviz version 2.38.0 (20140413.2041)
 -->
<!-- Title: Allocation.h Pages: 1 -->
<svg width="273pt" height="84pt"
 viewBox="0.00 0.00 273.00 84.00" xmlns="http://www.w3.org/2000/svg" xmlns:xlink="http://www.w3.org/1999/xlink">
<g id="graph0" class="graph" transform="scale(1 1) rotate(0) translate(4 80)">
<title>Allocation.h</title>
<polygon fill="white" stroke="none" points="-4,4 -4,-80 269,-80 269,4 -4,4"/>
<!-- Node1 -->
<g id="node1" class="node"><title>Node1</title>
<polygon fill="#bfbfbf" stroke="black" points="100.5,-56.5 100.5,-75.5 172.5,-75.5 172.5,-56.5 100.5,-56.5"/>
<text text-anchor="middle" x="136.5" y="-63.5" font-family="Helvetica,sans-Serif" font-size="10.00">Allocation.h</text>
</g>
<!-- Node2 -->
<g id="node2" class="node"><title>Node2</title>
<g id="a_node2"><a xlink:href="_dsvbksb_8cpp.html" target="_top" xlink:title="Dsvbksb.cpp">
<polygon fill="white" stroke="black" points="0,-0.5 0,-19.5 77,-19.5 77,-0.5 0,-0.5"/>
<text text-anchor="middle" x="38.5" y="-7.5" font-family="Helvetica,sans-Serif" font-size="10.00">Dsvbksb.cpp</text>
</a>
</g>
</g>
<!-- Node1&#45;&gt;Node2 -->
<g id="edge1" class="edge"><title>Node1&#45;&gt;Node2</title>
<path fill="none" stroke="midnightblue" d="M111.914,-51.4526C93.8219,-41.4835 69.7654,-28.2279 54.2063,-19.6545"/>
<polygon fill="midnightblue" stroke="midnightblue" points="110.307,-54.5633 120.755,-56.324 113.685,-48.4324 110.307,-54.5633"/>
</g>
<!-- Node3 -->
<g id="node3" class="node"><title>Node3</title>
<g id="a_node3"><a xlink:href="_dsvdcmp_8cpp.html" target="_top" xlink:title="Dsvdcmp.cpp">
<polygon fill="white" stroke="black" points="95.5,-0.5 95.5,-19.5 177.5,-19.5 177.5,-0.5 95.5,-0.5"/>
<text text-anchor="middle" x="136.5" y="-7.5" font-family="Helvetica,sans-Serif" font-size="10.00">Dsvdcmp.cpp</text>
</a>
</g>
</g>
<!-- Node1&#45;&gt;Node3 -->
<g id="edge2" class="edge"><title>Node1&#45;&gt;Node3</title>
<path fill="none" stroke="midnightblue" d="M136.5,-45.8045C136.5,-36.9102 136.5,-26.7798 136.5,-19.7511"/>
<polygon fill="midnightblue" stroke="midnightblue" points="133,-46.083 136.5,-56.083 140,-46.083 133,-46.083"/>
</g>
<!-- Node4 -->
<g id="node4" class="node"><title>Node4</title>
<g id="a_node4"><a xlink:href="_fourier_8cpp.html" target="_top" xlink:title="Fourier.cpp">
<polygon fill="white" stroke="black" points="196,-0.5 196,-19.5 265,-19.5 265,-0.5 196,-0.5"/>
<text text-anchor="middle" x="230.5" y="-7.5" font-family="Helvetica,sans-Serif" font-size="10.00">Fourier.cpp</text>
</a>
</g>
</g>
<!-- Node1&#45;&gt;Node4 -->
<g id="edge3" class="edge"><title>Node1&#45;&gt;Node4</title>
<path fill="none" stroke="midnightblue" d="M160.562,-51.1774C177.859,-41.2407 200.648,-28.1492 215.435,-19.6545"/>
<polygon fill="midnightblue" stroke="midnightblue" points="158.53,-48.3078 151.603,-56.324 162.017,-54.3775 158.53,-48.3078"/>
</g>
</g>
</svg>
