<?xml version="1.0" encoding="UTF-8" standalone="no"?>
<!DOCTYPE svg PUBLIC "-//W3C//DTD SVG 1.1//EN"
 "http://www.w3.org/Graphics/SVG/1.1/DTD/svg11.dtd">
<!-- Generated by graphviz version 2.38.0 (20140413.2041)
 -->
<!-- Title: ChVariablesBodyAddedMass.h Pages: 1 -->
<svg width="356pt" height="140pt"
 viewBox="0.00 0.00 355.50 140.00" xmlns="http://www.w3.org/2000/svg" xmlns:xlink="http://www.w3.org/1999/xlink">
<g id="graph0" class="graph" transform="scale(1 1) rotate(0) translate(4 136)">
<title>ChVariablesBodyAddedMass.h</title>
<polygon fill="white" stroke="none" points="-4,4 -4,-136 351.5,-136 351.5,4 -4,4"/>
<!-- Node1 -->
<g id="node1" class="node"><title>Node1</title>
<polygon fill="#bfbfbf" stroke="black" points="65.5,-112.5 65.5,-131.5 226.5,-131.5 226.5,-112.5 65.5,-112.5"/>
<text text-anchor="middle" x="146" y="-119.5" font-family="Helvetica,sans-Serif" font-size="10.00">ChVariablesBodyAddedMass.h</text>
</g>
<!-- Node2 -->
<g id="node2" class="node"><title>Node2</title>
<g id="a_node2"><a xlink:href="_ch_body_added_mass_8h.html" target="_top" xlink:title="ChBodyAddedMass.h">
<polygon fill="white" stroke="black" points="0,-56.5 0,-75.5 118,-75.5 118,-56.5 0,-56.5"/>
<text text-anchor="middle" x="59" y="-63.5" font-family="Helvetica,sans-Serif" font-size="10.00">ChBodyAddedMass.h</text>
</a>
</g>
</g>
<!-- Node1&#45;&gt;Node2 -->
<g id="edge1" class="edge"><title>Node1&#45;&gt;Node2</title>
<path fill="none" stroke="midnightblue" d="M123.284,-106.901C107.331,-96.9986 86.5025,-84.0705 72.9434,-75.6545"/>
<polygon fill="midnightblue" stroke="midnightblue" points="121.68,-110.024 132.022,-112.324 125.371,-104.077 121.68,-110.024"/>
</g>
<!-- Node3 -->
<g id="node3" class="node"><title>Node3</title>
<g id="a_node3"><a xlink:href="_ch_body_added_mass_8cpp.html" target="_top" xlink:title="ChBodyAddedMass.cpp">
<polygon fill="white" stroke="black" points="37.5,-0.5 37.5,-19.5 166.5,-19.5 166.5,-0.5 37.5,-0.5"/>
<text text-anchor="middle" x="102" y="-7.5" font-family="Helvetica,sans-Serif" font-size="10.00">ChBodyAddedMass.cpp</text>
</a>
</g>
</g>
<!-- Node1&#45;&gt;Node3 -->
<g id="edge3" class="edge"><title>Node1&#45;&gt;Node3</title>
<path fill="none" stroke="midnightblue" d="M141.785,-102.589C138.478,-89.3643 133.373,-71.2554 127,-56 121.488,-42.8057 113.1,-28.5262 107.585,-19.6719"/>
<polygon fill="midnightblue" stroke="midnightblue" points="138.396,-103.468 144.128,-112.378 145.204,-101.838 138.396,-103.468"/>
</g>
<!-- Node4 -->
<g id="node4" class="node"><title>Node4</title>
<g id="a_node4"><a xlink:href="_ch_variables_body_added_mass_8cpp.html" target="_top" xlink:title="ChVariablesBodyAddedMass.cpp">
<polygon fill="white" stroke="black" points="174.5,-56.5 174.5,-75.5 347.5,-75.5 347.5,-56.5 174.5,-56.5"/>
<text text-anchor="middle" x="261" y="-63.5" font-family="Helvetica,sans-Serif" font-size="10.00">ChVariablesBodyAddedMass.cpp</text>
</a>
</g>
</g>
<!-- Node1&#45;&gt;Node4 -->
<g id="edge4" class="edge"><title>Node1&#45;&gt;Node4</title>
<path fill="none" stroke="midnightblue" d="M173.481,-108.096C194.966,-98.0073 224.222,-84.2697 242.863,-75.5164"/>
<polygon fill="midnightblue" stroke="midnightblue" points="171.786,-105.025 164.222,-112.444 174.762,-111.361 171.786,-105.025"/>
</g>
<!-- Node2&#45;&gt;Node3 -->
<g id="edge2" class="edge"><title>Node2&#45;&gt;Node3</title>
<path fill="none" stroke="midnightblue" d="M72.4224,-48.144C79.9142,-38.7357 88.9371,-27.4046 95.0315,-19.7511"/>
<polygon fill="midnightblue" stroke="midnightblue" points="69.5919,-46.0799 66.1006,-56.083 75.0679,-50.4404 69.5919,-46.0799"/>
</g>
</g>
</svg>
