<?xml version="1.0" encoding="UTF-8" standalone="no"?>
<!DOCTYPE svg PUBLIC "-//W3C//DTD SVG 1.1//EN"
 "http://www.w3.org/Graphics/SVG/1.1/DTD/svg11.dtd">
<!-- Generated by graphviz version 2.38.0 (20140413.2041)
 -->
<!-- Title: Domain.cpp Pages: 1 -->
<svg width="449pt" height="140pt"
 viewBox="0.00 0.00 448.50 140.00" xmlns="http://www.w3.org/2000/svg" xmlns:xlink="http://www.w3.org/1999/xlink">
<g id="graph0" class="graph" transform="scale(1 1) rotate(0) translate(4 136)">
<title>Domain.cpp</title>
<polygon fill="white" stroke="none" points="-4,4 -4,-136 444.5,-136 444.5,4 -4,4"/>
<!-- Node1 -->
<g id="node1" class="node"><title>Node1</title>
<polygon fill="#bfbfbf" stroke="black" points="176.5,-112.5 176.5,-131.5 250.5,-131.5 250.5,-112.5 176.5,-112.5"/>
<text text-anchor="middle" x="213.5" y="-119.5" font-family="Helvetica,sans-Serif" font-size="10.00">Domain.cpp</text>
</g>
<!-- Node2 -->
<g id="node2" class="node"><title>Node2</title>
<g id="a_node2"><a xlink:href="_domain_8h.html" target="_top" xlink:title="Domain.h">
<polygon fill="white" stroke="black" points="67,-56.5 67,-75.5 130,-75.5 130,-56.5 67,-56.5"/>
<text text-anchor="middle" x="98.5" y="-63.5" font-family="Helvetica,sans-Serif" font-size="10.00">Domain.h</text>
</a>
</g>
</g>
<!-- Node1&#45;&gt;Node2 -->
<g id="edge1" class="edge"><title>Node1&#45;&gt;Node2</title>
<path fill="none" stroke="midnightblue" d="M195.278,-112.444C176.604,-103.675 147.344,-89.9355 125.883,-79.8579"/>
<polygon fill="midnightblue" stroke="midnightblue" points="127.176,-76.5988 116.637,-75.5164 124.201,-82.935 127.176,-76.5988"/>
</g>
<!-- Node3 -->
<g id="node3" class="node"><title>Node3</title>
<polygon fill="white" stroke="#bfbfbf" points="0,-0.5 0,-19.5 59,-19.5 59,-0.5 0,-0.5"/>
<text text-anchor="middle" x="29.5" y="-7.5" font-family="Helvetica,sans-Serif" font-size="10.00">iostream</text>
</g>
<!-- Node1&#45;&gt;Node3 -->
<g id="edge6" class="edge"><title>Node1&#45;&gt;Node3</title>
<path fill="none" stroke="midnightblue" d="M176.449,-119.144C141.851,-115.557 90.6994,-105.262 57.5,-76 43.8375,-63.9579 36.6096,-44.0709 32.9451,-29.4599"/>
<polygon fill="midnightblue" stroke="midnightblue" points="36.3318,-28.5622 30.7899,-19.5324 29.4912,-30.0473 36.3318,-28.5622"/>
</g>
<!-- Node4 -->
<g id="node4" class="node"><title>Node4</title>
<polygon fill="white" stroke="#bfbfbf" points="138,-0.5 138,-19.5 185,-19.5 185,-0.5 138,-0.5"/>
<text text-anchor="middle" x="161.5" y="-7.5" font-family="Helvetica,sans-Serif" font-size="10.00">vector</text>
</g>
<!-- Node1&#45;&gt;Node4 -->
<g id="edge8" class="edge"><title>Node1&#45;&gt;Node4</title>
<path fill="none" stroke="midnightblue" d="M204.785,-112.499C196.565,-103.997 184.49,-90.1782 177.5,-76 170.273,-61.3418 166.158,-43.1739 163.917,-29.7753"/>
<polygon fill="midnightblue" stroke="midnightblue" points="167.371,-29.2055 162.447,-19.824 160.446,-30.2279 167.371,-29.2055"/>
</g>
<!-- Node6 -->
<g id="node6" class="node"><title>Node6</title>
<polygon fill="white" stroke="#bfbfbf" points="186.5,-56.5 186.5,-75.5 240.5,-75.5 240.5,-56.5 186.5,-56.5"/>
<text text-anchor="middle" x="213.5" y="-63.5" font-family="Helvetica,sans-Serif" font-size="10.00">fstream</text>
</g>
<!-- Node1&#45;&gt;Node6 -->
<g id="edge5" class="edge"><title>Node1&#45;&gt;Node6</title>
<path fill="none" stroke="midnightblue" d="M213.5,-112.083C213.5,-105.006 213.5,-94.8611 213.5,-85.9865"/>
<polygon fill="midnightblue" stroke="midnightblue" points="217,-85.751 213.5,-75.7511 210,-85.7511 217,-85.751"/>
</g>
<!-- Node7 -->
<g id="node7" class="node"><title>Node7</title>
<polygon fill="white" stroke="#bfbfbf" points="258.5,-56.5 258.5,-75.5 302.5,-75.5 302.5,-56.5 258.5,-56.5"/>
<text text-anchor="middle" x="280.5" y="-63.5" font-family="Helvetica,sans-Serif" font-size="10.00">string</text>
</g>
<!-- Node1&#45;&gt;Node7 -->
<g id="edge7" class="edge"><title>Node1&#45;&gt;Node7</title>
<path fill="none" stroke="midnightblue" d="M224.265,-112.324C234.266,-104.263 249.387,-92.0765 261.43,-82.3695"/>
<polygon fill="midnightblue" stroke="midnightblue" points="263.95,-84.8343 269.539,-75.8339 259.557,-79.3841 263.95,-84.8343"/>
</g>
<!-- Node8 -->
<g id="node8" class="node"><title>Node8</title>
<polygon fill="white" stroke="#bfbfbf" points="321,-56.5 321,-75.5 370,-75.5 370,-56.5 321,-56.5"/>
<text text-anchor="middle" x="345.5" y="-63.5" font-family="Helvetica,sans-Serif" font-size="10.00">cstring</text>
</g>
<!-- Node1&#45;&gt;Node8 -->
<g id="edge9" class="edge"><title>Node1&#45;&gt;Node8</title>
<path fill="none" stroke="midnightblue" d="M234.416,-112.444C256.236,-103.517 290.65,-89.4387 315.392,-79.3168"/>
<polygon fill="midnightblue" stroke="midnightblue" points="316.752,-82.5422 324.682,-75.5164 314.101,-76.0634 316.752,-82.5422"/>
</g>
<!-- Node9 -->
<g id="node9" class="node"><title>Node9</title>
<polygon fill="white" stroke="#bfbfbf" points="388.5,-56.5 388.5,-75.5 440.5,-75.5 440.5,-56.5 388.5,-56.5"/>
<text text-anchor="middle" x="414.5" y="-63.5" font-family="Helvetica,sans-Serif" font-size="10.00">cassert</text>
</g>
<!-- Node1&#45;&gt;Node9 -->
<g id="edge10" class="edge"><title>Node1&#45;&gt;Node9</title>
<path fill="none" stroke="midnightblue" d="M245.349,-112.444C281.472,-102.739 340.26,-86.9452 378.148,-76.7661"/>
<polygon fill="midnightblue" stroke="midnightblue" points="379.495,-80.0285 388.245,-74.0537 377.679,-73.2682 379.495,-80.0285"/>
</g>
<!-- Node2&#45;&gt;Node3 -->
<g id="edge2" class="edge"><title>Node2&#45;&gt;Node3</title>
<path fill="none" stroke="midnightblue" d="M87.414,-56.324C77.014,-48.1849 61.2394,-35.8395 48.7784,-26.0874"/>
<polygon fill="midnightblue" stroke="midnightblue" points="50.8199,-23.2407 40.7878,-19.8339 46.5057,-28.7533 50.8199,-23.2407"/>
</g>
<!-- Node2&#45;&gt;Node4 -->
<g id="edge3" class="edge"><title>Node2&#45;&gt;Node4</title>
<path fill="none" stroke="midnightblue" d="M108.622,-56.324C118.026,-48.2631 132.244,-36.0765 143.569,-26.3695"/>
<polygon fill="midnightblue" stroke="midnightblue" points="145.879,-28.9993 151.194,-19.8339 141.323,-23.6844 145.879,-28.9993"/>
</g>
<!-- Node5 -->
<g id="node5" class="node"><title>Node5</title>
<polygon fill="white" stroke="#bfbfbf" points="77.5,-0.5 77.5,-19.5 119.5,-19.5 119.5,-0.5 77.5,-0.5"/>
<text text-anchor="middle" x="98.5" y="-7.5" font-family="Helvetica,sans-Serif" font-size="10.00">utility</text>
</g>
<!-- Node2&#45;&gt;Node5 -->
<g id="edge4" class="edge"><title>Node2&#45;&gt;Node5</title>
<path fill="none" stroke="midnightblue" d="M98.5,-56.083C98.5,-49.0059 98.5,-38.8611 98.5,-29.9865"/>
<polygon fill="midnightblue" stroke="midnightblue" points="102,-29.751 98.5,-19.7511 95.0001,-29.7511 102,-29.751"/>
</g>
</g>
</svg>
