<?xml version="1.0" encoding="UTF-8" standalone="no"?>
<!DOCTYPE svg PUBLIC "-//W3C//DTD SVG 1.1//EN"
 "http://www.w3.org/Graphics/SVG/1.1/DTD/svg11.dtd">
<!-- Generated by graphviz version 2.38.0 (20140413.2041)
 -->
<!-- Title: Domain.h Pages: 1 -->
<svg width="194pt" height="84pt"
 viewBox="0.00 0.00 193.50 84.00" xmlns="http://www.w3.org/2000/svg" xmlns:xlink="http://www.w3.org/1999/xlink">
<g id="graph0" class="graph" transform="scale(1 1) rotate(0) translate(4 80)">
<title>Domain.h</title>
<polygon fill="white" stroke="none" points="-4,4 -4,-80 189.5,-80 189.5,4 -4,4"/>
<!-- Node1 -->
<g id="node1" class="node"><title>Node1</title>
<polygon fill="#bfbfbf" stroke="black" points="56.5,-56.5 56.5,-75.5 119.5,-75.5 119.5,-56.5 56.5,-56.5"/>
<text text-anchor="middle" x="88" y="-63.5" font-family="Helvetica,sans-Serif" font-size="10.00">Domain.h</text>
</g>
<!-- Node2 -->
<g id="node2" class="node"><title>Node2</title>
<g id="a_node2"><a xlink:href="_domain_8cpp.html" target="_top" xlink:title="Domain.cpp">
<polygon fill="white" stroke="black" points="0,-0.5 0,-19.5 74,-19.5 74,-0.5 0,-0.5"/>
<text text-anchor="middle" x="37" y="-7.5" font-family="Helvetica,sans-Serif" font-size="10.00">Domain.cpp</text>
</a>
</g>
</g>
<!-- Node1&#45;&gt;Node2 -->
<g id="edge1" class="edge"><title>Node1&#45;&gt;Node2</title>
<path fill="none" stroke="midnightblue" d="M72.6221,-48.7175C63.6331,-39.1997 52.6408,-27.5608 45.2649,-19.7511"/>
<polygon fill="midnightblue" stroke="midnightblue" points="70.1676,-51.216 79.5784,-56.083 75.2567,-46.4096 70.1676,-51.216"/>
</g>
<!-- Node3 -->
<g id="node3" class="node"><title>Node3</title>
<g id="a_node3"><a xlink:href="test_domain_8cpp.html" target="_top" xlink:title="testDomain.cpp">
<polygon fill="white" stroke="black" points="92.5,-0.5 92.5,-19.5 185.5,-19.5 185.5,-0.5 92.5,-0.5"/>
<text text-anchor="middle" x="139" y="-7.5" font-family="Helvetica,sans-Serif" font-size="10.00">testDomain.cpp</text>
</a>
</g>
</g>
<!-- Node1&#45;&gt;Node3 -->
<g id="edge2" class="edge"><title>Node1&#45;&gt;Node3</title>
<path fill="none" stroke="midnightblue" d="M103.378,-48.7175C112.367,-39.1997 123.359,-27.5608 130.735,-19.7511"/>
<polygon fill="midnightblue" stroke="midnightblue" points="100.743,-46.4096 96.4216,-56.083 105.832,-51.216 100.743,-46.4096"/>
</g>
</g>
</svg>
