<?xml version="1.0" encoding="UTF-8" standalone="no"?>
<!DOCTYPE svg PUBLIC "-//W3C//DTD SVG 1.1//EN"
 "http://www.w3.org/Graphics/SVG/1.1/DTD/svg11.dtd">
<!-- Generated by graphviz version 2.38.0 (20140413.2041)
 -->
<!-- Title: ErrorResidualMethod.cpp Pages: 1 -->
<svg width="840pt" height="196pt"
 viewBox="0.00 0.00 839.50 196.00" xmlns="http://www.w3.org/2000/svg" xmlns:xlink="http://www.w3.org/1999/xlink">
<g id="graph0" class="graph" transform="scale(1 1) rotate(0) translate(4 192)">
<title>ErrorResidualMethod.cpp</title>
<polygon fill="white" stroke="none" points="-4,4 -4,-192 835.5,-192 835.5,4 -4,4"/>
<!-- Node1 -->
<g id="node1" class="node"><title>Node1</title>
<polygon fill="#bfbfbf" stroke="black" points="325,-168.5 325,-187.5 460,-187.5 460,-168.5 325,-168.5"/>
<text text-anchor="middle" x="392.5" y="-175.5" font-family="Helvetica,sans-Serif" font-size="10.00">ErrorResidualMethod.cpp</text>
</g>
<!-- Node2 -->
<g id="node2" class="node"><title>Node2</title>
<g id="a_node2"><a xlink:href="_mesh_adapt_p_u_m_i_8h.html" target="_top" xlink:title="MeshAdaptPUMI.h">
<polygon fill="white" stroke="black" points="235.5,-112.5 235.5,-131.5 339.5,-131.5 339.5,-112.5 235.5,-112.5"/>
<text text-anchor="middle" x="287.5" y="-119.5" font-family="Helvetica,sans-Serif" font-size="10.00">MeshAdaptPUMI.h</text>
</a>
</g>
</g>
<!-- Node1&#45;&gt;Node2 -->
<g id="edge1" class="edge"><title>Node1&#45;&gt;Node2</title>
<path fill="none" stroke="midnightblue" d="M375.63,-168.324C358.791,-159.664 332.693,-146.242 313.262,-136.249"/>
<polygon fill="midnightblue" stroke="midnightblue" points="314.822,-133.116 304.328,-131.655 311.62,-139.341 314.822,-133.116"/>
</g>
<!-- Node9 -->
<g id="node9" class="node"><title>Node9</title>
<polygon fill="white" stroke="#bfbfbf" points="0,-0.5 0,-19.5 59,-19.5 59,-0.5 0,-0.5"/>
<text text-anchor="middle" x="29.5" y="-7.5" font-family="Helvetica,sans-Serif" font-size="10.00">iostream</text>
</g>
<!-- Node1&#45;&gt;Node9 -->
<g id="edge24" class="edge"><title>Node1&#45;&gt;Node9</title>
<path fill="none" stroke="midnightblue" d="M324.855,-170.618C282.152,-164.674 226.715,-153.354 181.5,-132 124.562,-105.109 69.8339,-53.0905 44.3723,-26.8933"/>
<polygon fill="midnightblue" stroke="midnightblue" points="46.8824,-24.454 37.44,-19.6486 41.8247,-29.2935 46.8824,-24.454"/>
</g>
<!-- Node11 -->
<g id="node11" class="node"><title>Node11</title>
<polygon fill="white" stroke="#bfbfbf" points="77.5,-0.5 77.5,-19.5 131.5,-19.5 131.5,-0.5 77.5,-0.5"/>
<text text-anchor="middle" x="104.5" y="-7.5" font-family="Helvetica,sans-Serif" font-size="10.00">fstream</text>
</g>
<!-- Node1&#45;&gt;Node11 -->
<g id="edge25" class="edge"><title>Node1&#45;&gt;Node11</title>
<path fill="none" stroke="midnightblue" d="M324.732,-170.186C288.752,-164.202 244.974,-152.989 210.5,-132 166.735,-105.354 131.256,-54.7529 114.666,-28.2185"/>
<polygon fill="midnightblue" stroke="midnightblue" points="117.619,-26.3395 109.428,-19.6205 111.641,-29.9815 117.619,-26.3395"/>
</g>
<!-- Node14 -->
<g id="node14" class="node"><title>Node14</title>
<polygon fill="white" stroke="#bfbfbf" points="187.5,-56.5 187.5,-75.5 227.5,-75.5 227.5,-56.5 187.5,-56.5"/>
<text text-anchor="middle" x="207.5" y="-63.5" font-family="Helvetica,sans-Serif" font-size="10.00">apf.h</text>
</g>
<!-- Node1&#45;&gt;Node14 -->
<g id="edge19" class="edge"><title>Node1&#45;&gt;Node14</title>
<path fill="none" stroke="midnightblue" d="M324.635,-173.821C291.112,-168.826 252.404,-157.4 226.5,-132 214.312,-120.049 209.837,-100.747 208.247,-86.2757"/>
<polygon fill="midnightblue" stroke="midnightblue" points="211.712,-85.6594 207.498,-75.9385 204.73,-86.1654 211.712,-85.6594"/>
</g>
<!-- Node16 -->
<g id="node16" class="node"><title>Node16</title>
<polygon fill="white" stroke="#bfbfbf" points="473.5,-56.5 473.5,-75.5 567.5,-75.5 567.5,-56.5 473.5,-56.5"/>
<text text-anchor="middle" x="520.5" y="-63.5" font-family="Helvetica,sans-Serif" font-size="10.00">apfNumbering.h</text>
</g>
<!-- Node1&#45;&gt;Node16 -->
<g id="edge23" class="edge"><title>Node1&#45;&gt;Node16</title>
<path fill="none" stroke="midnightblue" d="M388.454,-168.485C382.752,-155.102 374.326,-128.93 386.5,-112 396.465,-98.1416 435.168,-86.0568 468.433,-77.9102"/>
<polygon fill="midnightblue" stroke="midnightblue" points="469.623,-81.2252 478.545,-75.5108 468.007,-74.4143 469.623,-81.2252"/>
</g>
<!-- Node18 -->
<g id="node18" class="node"><title>Node18</title>
<polygon fill="white" stroke="#bfbfbf" points="395.5,-112.5 395.5,-131.5 441.5,-131.5 441.5,-112.5 395.5,-112.5"/>
<text text-anchor="middle" x="418.5" y="-119.5" font-family="Helvetica,sans-Serif" font-size="10.00">PCU.h</text>
</g>
<!-- Node1&#45;&gt;Node18 -->
<g id="edge17" class="edge"><title>Node1&#45;&gt;Node18</title>
<path fill="none" stroke="midnightblue" d="M396.793,-168.083C400.352,-160.691 405.522,-149.953 409.924,-140.811"/>
<polygon fill="midnightblue" stroke="midnightblue" points="413.102,-142.279 414.287,-131.751 406.795,-139.243 413.102,-142.279"/>
</g>
<!-- Node19 -->
<g id="node19" class="node"><title>Node19</title>
<polygon fill="white" stroke="#bfbfbf" points="459.5,-112.5 459.5,-131.5 527.5,-131.5 527.5,-112.5 459.5,-112.5"/>
<text text-anchor="middle" x="493.5" y="-119.5" font-family="Helvetica,sans-Serif" font-size="10.00">petscksp.h</text>
</g>
<!-- Node1&#45;&gt;Node19 -->
<g id="edge18" class="edge"><title>Node1&#45;&gt;Node19</title>
<path fill="none" stroke="midnightblue" d="M408.727,-168.324C424.851,-159.703 449.8,-146.364 468.464,-136.386"/>
<polygon fill="midnightblue" stroke="midnightblue" points="470.144,-139.456 477.313,-131.655 466.844,-133.283 470.144,-139.456"/>
</g>
<!-- Node20 -->
<g id="node20" class="node"><title>Node20</title>
<polygon fill="white" stroke="#bfbfbf" points="545.5,-112.5 545.5,-131.5 611.5,-131.5 611.5,-112.5 545.5,-112.5"/>
<text text-anchor="middle" x="578.5" y="-119.5" font-family="Helvetica,sans-Serif" font-size="10.00">apfMesh.h</text>
</g>
<!-- Node1&#45;&gt;Node20 -->
<g id="edge20" class="edge"><title>Node1&#45;&gt;Node20</title>
<path fill="none" stroke="midnightblue" d="M421.972,-168.444C453.671,-159.241 504.232,-144.562 539.275,-134.388"/>
<polygon fill="midnightblue" stroke="midnightblue" points="540.538,-137.666 549.166,-131.516 538.586,-130.943 540.538,-137.666"/>
</g>
<!-- Node21 -->
<g id="node21" class="node"><title>Node21</title>
<polygon fill="white" stroke="#bfbfbf" points="630,-112.5 630,-131.5 701,-131.5 701,-112.5 630,-112.5"/>
<text text-anchor="middle" x="665.5" y="-119.5" font-family="Helvetica,sans-Serif" font-size="10.00">apfShape.h</text>
</g>
<!-- Node1&#45;&gt;Node21 -->
<g id="edge21" class="edge"><title>Node1&#45;&gt;Node21</title>
<path fill="none" stroke="midnightblue" d="M435.791,-168.489C479.598,-159.87 549.555,-146.085 619.738,-132.148"/>
<polygon fill="midnightblue" stroke="midnightblue" points="620.514,-135.562 629.64,-130.18 619.15,-128.696 620.514,-135.562"/>
</g>
<!-- Node22 -->
<g id="node22" class="node"><title>Node22</title>
<polygon fill="white" stroke="#bfbfbf" points="719.5,-112.5 719.5,-131.5 831.5,-131.5 831.5,-112.5 719.5,-112.5"/>
<text text-anchor="middle" x="775.5" y="-119.5" font-family="Helvetica,sans-Serif" font-size="10.00">apfDynamicMatrix.h</text>
</g>
<!-- Node1&#45;&gt;Node22 -->
<g id="edge22" class="edge"><title>Node1&#45;&gt;Node22</title>
<path fill="none" stroke="midnightblue" d="M453.187,-168.444C522.949,-158.608 637.075,-142.517 709.141,-132.356"/>
<polygon fill="midnightblue" stroke="midnightblue" points="710.044,-135.763 719.458,-130.902 709.067,-128.832 710.044,-135.763"/>
</g>
<!-- Node3 -->
<g id="node3" class="node"><title>Node3</title>
<g id="a_node3"><a xlink:href="mesh_8h.html" target="_top" xlink:title="mesh.h">
<polygon fill="white" stroke="black" points="246,-56.5 246,-75.5 299,-75.5 299,-56.5 246,-56.5"/>
<text text-anchor="middle" x="272.5" y="-63.5" font-family="Helvetica,sans-Serif" font-size="10.00">mesh.h</text>
</a>
</g>
</g>
<!-- Node2&#45;&gt;Node3 -->
<g id="edge2" class="edge"><title>Node2&#45;&gt;Node3</title>
<path fill="none" stroke="midnightblue" d="M285.023,-112.083C283.014,-104.849 280.114,-94.4087 277.61,-85.3968"/>
<polygon fill="midnightblue" stroke="midnightblue" points="280.98,-84.4495 274.931,-75.7511 274.235,-86.323 280.98,-84.4495"/>
</g>
<!-- Node2&#45;&gt;Node14 -->
<g id="edge13" class="edge"><title>Node2&#45;&gt;Node14</title>
<path fill="none" stroke="midnightblue" d="M274.647,-112.324C262.284,-103.979 243.37,-91.2122 228.763,-81.3524"/>
<polygon fill="midnightblue" stroke="midnightblue" points="230.568,-78.3483 220.321,-75.6545 226.652,-84.1503 230.568,-78.3483"/>
</g>
<!-- Node15 -->
<g id="node15" class="node"><title>Node15</title>
<polygon fill="white" stroke="#bfbfbf" points="317.5,-56.5 317.5,-75.5 389.5,-75.5 389.5,-56.5 317.5,-56.5"/>
<text text-anchor="middle" x="353.5" y="-63.5" font-family="Helvetica,sans-Serif" font-size="10.00">apfMesh2.h</text>
</g>
<!-- Node2&#45;&gt;Node15 -->
<g id="edge14" class="edge"><title>Node2&#45;&gt;Node15</title>
<path fill="none" stroke="midnightblue" d="M298.104,-112.324C307.956,-104.263 322.851,-92.0765 334.715,-82.3695"/>
<polygon fill="midnightblue" stroke="midnightblue" points="337.18,-84.8752 342.703,-75.8339 332.747,-79.4575 337.18,-84.8752"/>
</g>
<!-- Node2&#45;&gt;Node16 -->
<g id="edge15" class="edge"><title>Node2&#45;&gt;Node16</title>
<path fill="none" stroke="midnightblue" d="M324.42,-112.444C364.895,-103.063 429.921,-87.9926 473.884,-77.8036"/>
<polygon fill="midnightblue" stroke="midnightblue" points="474.802,-81.1839 483.753,-75.5164 473.221,-74.3646 474.802,-81.1839"/>
</g>
<!-- Node17 -->
<g id="node17" class="node"><title>Node17</title>
<polygon fill="white" stroke="#bfbfbf" points="408,-56.5 408,-75.5 455,-75.5 455,-56.5 408,-56.5"/>
<text text-anchor="middle" x="431.5" y="-63.5" font-family="Helvetica,sans-Serif" font-size="10.00">queue</text>
</g>
<!-- Node2&#45;&gt;Node17 -->
<g id="edge16" class="edge"><title>Node2&#45;&gt;Node17</title>
<path fill="none" stroke="midnightblue" d="M310.317,-112.444C334.332,-103.438 372.329,-89.1891 399.369,-79.049"/>
<polygon fill="midnightblue" stroke="midnightblue" points="400.655,-82.3049 408.79,-75.5164 398.197,-75.7506 400.655,-82.3049"/>
</g>
<!-- Node4 -->
<g id="node4" class="node"><title>Node4</title>
<polygon fill="white" stroke="#bfbfbf" points="285.5,-0.5 285.5,-19.5 317.5,-19.5 317.5,-0.5 285.5,-0.5"/>
<text text-anchor="middle" x="301.5" y="-7.5" font-family="Helvetica,sans-Serif" font-size="10.00">set</text>
</g>
<!-- Node3&#45;&gt;Node4 -->
<g id="edge3" class="edge"><title>Node3&#45;&gt;Node4</title>
<path fill="none" stroke="midnightblue" d="M277.289,-56.083C281.258,-48.6913 287.025,-37.9533 291.935,-28.8111"/>
<polygon fill="midnightblue" stroke="midnightblue" points="295.153,-30.217 296.8,-19.7511 288.986,-26.9051 295.153,-30.217"/>
</g>
<!-- Node5 -->
<g id="node5" class="node"><title>Node5</title>
<polygon fill="white" stroke="#bfbfbf" points="336,-0.5 336,-19.5 383,-19.5 383,-0.5 336,-0.5"/>
<text text-anchor="middle" x="359.5" y="-7.5" font-family="Helvetica,sans-Serif" font-size="10.00">vector</text>
</g>
<!-- Node3&#45;&gt;Node5 -->
<g id="edge4" class="edge"><title>Node3&#45;&gt;Node5</title>
<path fill="none" stroke="midnightblue" d="M286.478,-56.324C300.05,-47.9002 320.88,-34.9709 336.825,-25.0741"/>
<polygon fill="midnightblue" stroke="midnightblue" points="338.906,-27.9019 345.557,-19.6545 335.214,-21.9544 338.906,-27.9019"/>
</g>
<!-- Node6 -->
<g id="node6" class="node"><title>Node6</title>
<polygon fill="white" stroke="#bfbfbf" points="401.5,-0.5 401.5,-19.5 463.5,-19.5 463.5,-0.5 401.5,-0.5"/>
<text text-anchor="middle" x="432.5" y="-7.5" font-family="Helvetica,sans-Serif" font-size="10.00">algorithm</text>
</g>
<!-- Node3&#45;&gt;Node6 -->
<g id="edge5" class="edge"><title>Node3&#45;&gt;Node6</title>
<path fill="none" stroke="midnightblue" d="M297.852,-56.4435C324.769,-47.3591 367.496,-32.9388 397.587,-22.7831"/>
<polygon fill="midnightblue" stroke="midnightblue" points="398.91,-26.0305 407.266,-19.5164 396.672,-19.3981 398.91,-26.0305"/>
</g>
<!-- Node7 -->
<g id="node7" class="node"><title>Node7</title>
<polygon fill="white" stroke="#bfbfbf" points="481.5,-0.5 481.5,-19.5 519.5,-19.5 519.5,-0.5 481.5,-0.5"/>
<text text-anchor="middle" x="500.5" y="-7.5" font-family="Helvetica,sans-Serif" font-size="10.00">map</text>
</g>
<!-- Node3&#45;&gt;Node7 -->
<g id="edge6" class="edge"><title>Node3&#45;&gt;Node7</title>
<path fill="none" stroke="midnightblue" d="M299.215,-58.2299C302.342,-57.4646 305.489,-56.7066 308.5,-56 378.028,-39.6814 398.695,-39.4299 471.203,-20.1535"/>
<polygon fill="midnightblue" stroke="midnightblue" points="472.545,-23.417 481.292,-17.4389 470.726,-16.6575 472.545,-23.417"/>
</g>
<!-- Node8 -->
<g id="node8" class="node"><title>Node8</title>
<polygon fill="white" stroke="#bfbfbf" points="537.5,-0.5 537.5,-19.5 567.5,-19.5 567.5,-0.5 537.5,-0.5"/>
<text text-anchor="middle" x="552.5" y="-7.5" font-family="Helvetica,sans-Serif" font-size="10.00">list</text>
</g>
<!-- Node3&#45;&gt;Node8 -->
<g id="edge7" class="edge"><title>Node3&#45;&gt;Node8</title>
<path fill="none" stroke="midnightblue" d="M299.18,-58.0688C302.313,-57.3324 305.472,-56.6252 308.5,-56 402.405,-36.6134 430.936,-44.9327 527.53,-19.7961"/>
<polygon fill="midnightblue" stroke="midnightblue" points="528.645,-23.1214 537.411,-17.1714 526.848,-16.3561 528.645,-23.1214"/>
</g>
<!-- Node3&#45;&gt;Node9 -->
<g id="edge8" class="edge"><title>Node3&#45;&gt;Node9</title>
<path fill="none" stroke="midnightblue" d="M245.788,-58.215C242.661,-57.4524 239.512,-56.6991 236.5,-56 165.166,-39.4453 144.697,-36.7877 69.2853,-20.1422"/>
<polygon fill="midnightblue" stroke="midnightblue" points="69.8202,-16.6759 59.2996,-17.9275 68.3045,-23.5098 69.8202,-16.6759"/>
</g>
<!-- Node10 -->
<g id="node10" class="node"><title>Node10</title>
<polygon fill="white" stroke="#bfbfbf" points="586,-0.5 586,-19.5 641,-19.5 641,-0.5 586,-0.5"/>
<text text-anchor="middle" x="613.5" y="-7.5" font-family="Helvetica,sans-Serif" font-size="10.00">iomanip</text>
</g>
<!-- Node3&#45;&gt;Node10 -->
<g id="edge9" class="edge"><title>Node3&#45;&gt;Node10</title>
<path fill="none" stroke="midnightblue" d="M299.163,-57.9827C302.299,-57.2617 305.463,-56.5817 308.5,-56 423.423,-33.987 456.654,-41.7887 575.814,-19.9386"/>
<polygon fill="midnightblue" stroke="midnightblue" points="576.499,-23.3713 585.688,-18.097 575.215,-16.49 576.499,-23.3713"/>
</g>
<!-- Node3&#45;&gt;Node11 -->
<g id="edge10" class="edge"><title>Node3&#45;&gt;Node11</title>
<path fill="none" stroke="midnightblue" d="M245.88,-56.4435C217.494,-47.3196 172.363,-32.8133 140.747,-22.6509"/>
<polygon fill="midnightblue" stroke="midnightblue" points="141.587,-19.2445 130.996,-19.5164 139.445,-25.9087 141.587,-19.2445"/>
</g>
<!-- Node12 -->
<g id="node12" class="node"><title>Node12</title>
<polygon fill="white" stroke="#bfbfbf" points="149.5,-0.5 149.5,-19.5 201.5,-19.5 201.5,-0.5 149.5,-0.5"/>
<text text-anchor="middle" x="175.5" y="-7.5" font-family="Helvetica,sans-Serif" font-size="10.00">cassert</text>
</g>
<!-- Node3&#45;&gt;Node12 -->
<g id="edge11" class="edge"><title>Node3&#45;&gt;Node12</title>
<path fill="none" stroke="midnightblue" d="M256.915,-56.324C241.501,-47.7428 217.688,-34.486 199.79,-24.5224"/>
<polygon fill="midnightblue" stroke="midnightblue" points="201.486,-21.4606 191.046,-19.6545 198.081,-27.5767 201.486,-21.4606"/>
</g>
<!-- Node13 -->
<g id="node13" class="node"><title>Node13</title>
<polygon fill="white" stroke="#bfbfbf" points="220,-0.5 220,-19.5 267,-19.5 267,-0.5 220,-0.5"/>
<text text-anchor="middle" x="243.5" y="-7.5" font-family="Helvetica,sans-Serif" font-size="10.00">cmath</text>
</g>
<!-- Node3&#45;&gt;Node13 -->
<g id="edge12" class="edge"><title>Node3&#45;&gt;Node13</title>
<path fill="none" stroke="midnightblue" d="M267.711,-56.083C263.742,-48.6913 257.975,-37.9533 253.065,-28.8111"/>
<polygon fill="midnightblue" stroke="midnightblue" points="256.014,-26.9051 248.2,-19.7511 249.847,-30.217 256.014,-26.9051"/>
</g>
</g>
</svg>
