<?xml version="1.0" encoding="UTF-8" standalone="no"?>
<!DOCTYPE svg PUBLIC "-//W3C//DTD SVG 1.1//EN"
 "http://www.w3.org/Graphics/SVG/1.1/DTD/svg11.dtd">
<!-- Generated by graphviz version 2.38.0 (20140413.2041)
 -->
<!-- Title: Fourier.cpp Pages: 1 -->
<svg width="645pt" height="84pt"
 viewBox="0.00 0.00 644.50 84.00" xmlns="http://www.w3.org/2000/svg" xmlns:xlink="http://www.w3.org/1999/xlink">
<g id="graph0" class="graph" transform="scale(1 1) rotate(0) translate(4 80)">
<title>Fourier.cpp</title>
<polygon fill="white" stroke="none" points="-4,4 -4,-80 640.5,-80 640.5,4 -4,4"/>
<!-- Node1 -->
<g id="node1" class="node"><title>Node1</title>
<polygon fill="#bfbfbf" stroke="black" points="263,-56.5 263,-75.5 332,-75.5 332,-56.5 263,-56.5"/>
<text text-anchor="middle" x="297.5" y="-63.5" font-family="Helvetica,sans-Serif" font-size="10.00">Fourier.cpp</text>
</g>
<!-- Node2 -->
<g id="node2" class="node"><title>Node2</title>
<polygon fill="white" stroke="#bfbfbf" points="0,-0.5 0,-19.5 51,-19.5 51,-0.5 0,-0.5"/>
<text text-anchor="middle" x="25.5" y="-7.5" font-family="Helvetica,sans-Serif" font-size="10.00">math.h</text>
</g>
<!-- Node1&#45;&gt;Node2 -->
<g id="edge1" class="edge"><title>Node1&#45;&gt;Node2</title>
<path fill="none" stroke="midnightblue" d="M262.653,-59.2197C218.043,-51.6434 138.168,-37.4852 60.96,-20.2127"/>
<polygon fill="midnightblue" stroke="midnightblue" points="61.5965,-16.7684 51.0711,-17.9797 60.0546,-23.5964 61.5965,-16.7684"/>
</g>
<!-- Node3 -->
<g id="node3" class="node"><title>Node3</title>
<polygon fill="white" stroke="#bfbfbf" points="69,-0.5 69,-19.5 118,-19.5 118,-0.5 69,-0.5"/>
<text text-anchor="middle" x="93.5" y="-7.5" font-family="Helvetica,sans-Serif" font-size="10.00">stdio.h</text>
</g>
<!-- Node1&#45;&gt;Node3 -->
<g id="edge2" class="edge"><title>Node1&#45;&gt;Node3</title>
<path fill="none" stroke="midnightblue" d="M264.695,-56.46C232.272,-47.999 180.993,-34.5627 127.927,-20.3669"/>
<polygon fill="midnightblue" stroke="midnightblue" points="128.567,-16.9149 118.002,-17.7084 126.756,-23.6766 128.567,-16.9149"/>
</g>
<!-- Node4 -->
<g id="node4" class="node"><title>Node4</title>
<polygon fill="white" stroke="#bfbfbf" points="136,-0.5 136,-19.5 207,-19.5 207,-0.5 136,-0.5"/>
<text text-anchor="middle" x="171.5" y="-7.5" font-family="Helvetica,sans-Serif" font-size="10.00">sys/types.h</text>
</g>
<!-- Node1&#45;&gt;Node4 -->
<g id="edge3" class="edge"><title>Node1&#45;&gt;Node4</title>
<path fill="none" stroke="midnightblue" d="M277.535,-56.4435C256.891,-47.5961 224.437,-33.6875 200.868,-23.5865"/>
<polygon fill="midnightblue" stroke="midnightblue" points="201.942,-20.2387 191.372,-19.5164 199.184,-26.6727 201.942,-20.2387"/>
</g>
<!-- Node5 -->
<g id="node5" class="node"><title>Node5</title>
<polygon fill="white" stroke="#bfbfbf" points="225,-0.5 225,-19.5 278,-19.5 278,-0.5 225,-0.5"/>
<text text-anchor="middle" x="251.5" y="-7.5" font-family="Helvetica,sans-Serif" font-size="10.00">string.h</text>
</g>
<!-- Node1&#45;&gt;Node5 -->
<g id="edge4" class="edge"><title>Node1&#45;&gt;Node5</title>
<path fill="none" stroke="midnightblue" d="M289.904,-56.083C283.273,-48.2982 273.479,-36.8015 265.442,-27.3665"/>
<polygon fill="midnightblue" stroke="midnightblue" points="268.104,-25.0939 258.955,-19.7511 262.775,-29.6332 268.104,-25.0939"/>
</g>
<!-- Node6 -->
<g id="node6" class="node"><title>Node6</title>
<polygon fill="white" stroke="#bfbfbf" points="295.5,-0.5 295.5,-19.5 393.5,-19.5 393.5,-0.5 295.5,-0.5"/>
<text text-anchor="middle" x="344.5" y="-7.5" font-family="Helvetica,sans-Serif" font-size="10.00">ncurses/curses.h</text>
</g>
<!-- Node1&#45;&gt;Node6 -->
<g id="edge5" class="edge"><title>Node1&#45;&gt;Node6</title>
<path fill="none" stroke="midnightblue" d="M305.261,-56.083C312.037,-48.2982 322.043,-36.8015 330.255,-27.3665"/>
<polygon fill="midnightblue" stroke="midnightblue" points="332.958,-29.592 336.883,-19.7511 327.678,-24.9963 332.958,-29.592"/>
</g>
<!-- Node7 -->
<g id="node7" class="node"><title>Node7</title>
<polygon fill="white" stroke="#bfbfbf" points="411,-0.5 411,-19.5 462,-19.5 462,-0.5 411,-0.5"/>
<text text-anchor="middle" x="436.5" y="-7.5" font-family="Helvetica,sans-Serif" font-size="10.00">stdlib.h</text>
</g>
<!-- Node1&#45;&gt;Node7 -->
<g id="edge6" class="edge"><title>Node1&#45;&gt;Node7</title>
<path fill="none" stroke="midnightblue" d="M319.525,-56.4435C342.604,-47.4776 379.062,-33.314 405.141,-23.1827"/>
<polygon fill="midnightblue" stroke="midnightblue" points="406.524,-26.4002 414.578,-19.5164 403.989,-19.8753 406.524,-26.4002"/>
</g>
<!-- Node8 -->
<g id="node8" class="node"><title>Node8</title>
<g id="a_node8"><a xlink:href="_allocation_8h.html" target="_top" xlink:title="Allocation.h">
<polygon fill="white" stroke="black" points="480.5,-0.5 480.5,-19.5 552.5,-19.5 552.5,-0.5 480.5,-0.5"/>
<text text-anchor="middle" x="516.5" y="-7.5" font-family="Helvetica,sans-Serif" font-size="10.00">Allocation.h</text>
</a>
</g>
</g>
<!-- Node1&#45;&gt;Node8 -->
<g id="edge7" class="edge"><title>Node1&#45;&gt;Node8</title>
<path fill="none" stroke="midnightblue" d="M332.201,-56.4435C370.085,-47.1024 430.849,-32.1194 472.162,-21.9326"/>
<polygon fill="midnightblue" stroke="midnightblue" points="473.09,-25.3088 481.961,-19.5164 471.414,-18.5123 473.09,-25.3088"/>
</g>
<!-- Node9 -->
<g id="node9" class="node"><title>Node9</title>
<g id="a_node9"><a xlink:href="_headers_8h.html" target="_top" xlink:title="Headers.h">
<polygon fill="white" stroke="black" points="570.5,-0.5 570.5,-19.5 636.5,-19.5 636.5,-0.5 570.5,-0.5"/>
<text text-anchor="middle" x="603.5" y="-7.5" font-family="Helvetica,sans-Serif" font-size="10.00">Headers.h</text>
</a>
</g>
</g>
<!-- Node1&#45;&gt;Node9 -->
<g id="edge8" class="edge"><title>Node1&#45;&gt;Node9</title>
<path fill="none" stroke="midnightblue" d="M332.179,-59.568C380.899,-51.8321 472.608,-36.8891 560.222,-20.1856"/>
<polygon fill="midnightblue" stroke="midnightblue" points="560.893,-23.6206 570.055,-18.2999 559.575,-16.7459 560.893,-23.6206"/>
</g>
</g>
</svg>
