<?xml version="1.0" encoding="UTF-8" standalone="no"?>
<!DOCTYPE svg PUBLIC "-//W3C//DTD SVG 1.1//EN"
 "http://www.w3.org/Graphics/SVG/1.1/DTD/svg11.dtd">
<!-- Generated by graphviz version 2.38.0 (20140413.2041)
 -->
<!-- Title: GN_SW2DCV.h Pages: 1 -->
<svg width="486pt" height="140pt"
 viewBox="0.00 0.00 486.00 140.00" xmlns="http://www.w3.org/2000/svg" xmlns:xlink="http://www.w3.org/1999/xlink">
<g id="graph0" class="graph" transform="scale(1 1) rotate(0) translate(4 136)">
<title>GN_SW2DCV.h</title>
<polygon fill="white" stroke="none" points="-4,4 -4,-136 482,-136 482,4 -4,4"/>
<!-- Node1 -->
<g id="node1" class="node"><title>Node1</title>
<polygon fill="#bfbfbf" stroke="black" points="212.5,-112.5 212.5,-131.5 298.5,-131.5 298.5,-112.5 212.5,-112.5"/>
<text text-anchor="middle" x="255.5" y="-119.5" font-family="Helvetica,sans-Serif" font-size="10.00">GN_SW2DCV.h</text>
</g>
<!-- Node2 -->
<g id="node2" class="node"><title>Node2</title>
<g id="a_node2"><a xlink:href="_comp_kernel_8h.html" target="_top" xlink:title="CompKernel.h">
<polygon fill="white" stroke="black" points="0,-56.5 0,-75.5 83,-75.5 83,-56.5 0,-56.5"/>
<text text-anchor="middle" x="41.5" y="-63.5" font-family="Helvetica,sans-Serif" font-size="10.00">CompKernel.h</text>
</a>
</g>
</g>
<!-- Node1&#45;&gt;Node2 -->
<g id="edge1" class="edge"><title>Node1&#45;&gt;Node2</title>
<path fill="none" stroke="midnightblue" d="M221.591,-112.444C184.651,-103.122 125.446,-88.1828 85.0816,-77.9972"/>
<polygon fill="midnightblue" stroke="midnightblue" points="85.8027,-74.5695 75.2503,-75.5164 84.09,-81.3568 85.8027,-74.5695"/>
</g>
<!-- Node3 -->
<g id="node3" class="node"><title>Node3</title>
<polygon fill="white" stroke="#bfbfbf" points="53,-0.5 53,-19.5 100,-19.5 100,-0.5 53,-0.5"/>
<text text-anchor="middle" x="76.5" y="-7.5" font-family="Helvetica,sans-Serif" font-size="10.00">cmath</text>
</g>
<!-- Node1&#45;&gt;Node3 -->
<g id="edge6" class="edge"><title>Node1&#45;&gt;Node3</title>
<path fill="none" stroke="midnightblue" d="M215.781,-112.478C189.856,-105.585 156.183,-94.01 130.5,-76 112.37,-63.2861 96.8467,-42.9686 87.1591,-28.4334"/>
<polygon fill="midnightblue" stroke="midnightblue" points="90.0064,-26.3894 81.6669,-19.8547 84.1111,-30.1638 90.0064,-26.3894"/>
</g>
<!-- Node4 -->
<g id="node4" class="node"><title>Node4</title>
<g id="a_node4"><a xlink:href="_model_factory_8h.html" target="_top" xlink:title="ModelFactory.h">
<polygon fill="white" stroke="black" points="140,-56.5 140,-75.5 227,-75.5 227,-56.5 140,-56.5"/>
<text text-anchor="middle" x="183.5" y="-63.5" font-family="Helvetica,sans-Serif" font-size="10.00">ModelFactory.h</text>
</a>
</g>
</g>
<!-- Node1&#45;&gt;Node4 -->
<g id="edge3" class="edge"><title>Node1&#45;&gt;Node4</title>
<path fill="none" stroke="midnightblue" d="M243.932,-112.324C233.08,-104.185 216.619,-91.8395 203.617,-82.0874"/>
<polygon fill="midnightblue" stroke="midnightblue" points="205.379,-79.0339 195.279,-75.8339 201.179,-84.6339 205.379,-79.0339"/>
</g>
<!-- Node5 -->
<g id="node5" class="node"><title>Node5</title>
<polygon fill="white" stroke="#bfbfbf" points="190,-0.5 190,-19.5 249,-19.5 249,-0.5 190,-0.5"/>
<text text-anchor="middle" x="219.5" y="-7.5" font-family="Helvetica,sans-Serif" font-size="10.00">iostream</text>
</g>
<!-- Node1&#45;&gt;Node5 -->
<g id="edge7" class="edge"><title>Node1&#45;&gt;Node5</title>
<path fill="none" stroke="midnightblue" d="M253.132,-112.102C249.731,-99.5188 243.139,-75.8465 236.5,-56 233.516,-47.0788 229.867,-37.2962 226.715,-29.1374"/>
<polygon fill="midnightblue" stroke="midnightblue" points="229.867,-27.5877 222.957,-19.5563 223.35,-30.1438 229.867,-27.5877"/>
</g>
<!-- Node6 -->
<g id="node6" class="node"><title>Node6</title>
<polygon fill="white" stroke="#bfbfbf" points="283.5,-56.5 283.5,-75.5 339.5,-75.5 339.5,-56.5 283.5,-56.5"/>
<text text-anchor="middle" x="311.5" y="-63.5" font-family="Helvetica,sans-Serif" font-size="10.00">assert.h</text>
</g>
<!-- Node1&#45;&gt;Node6 -->
<g id="edge5" class="edge"><title>Node1&#45;&gt;Node6</title>
<path fill="none" stroke="midnightblue" d="M264.497,-112.324C272.694,-104.42 285.006,-92.5482 294.972,-82.9377"/>
<polygon fill="midnightblue" stroke="midnightblue" points="297.57,-85.2947 302.339,-75.8339 292.711,-80.2558 297.57,-85.2947"/>
</g>
<!-- Node7 -->
<g id="node7" class="node"><title>Node7</title>
<polygon fill="white" stroke="#bfbfbf" points="358,-56.5 358,-75.5 413,-75.5 413,-56.5 358,-56.5"/>
<text text-anchor="middle" x="385.5" y="-63.5" font-family="Helvetica,sans-Serif" font-size="10.00">valarray</text>
</g>
<!-- Node1&#45;&gt;Node7 -->
<g id="edge8" class="edge"><title>Node1&#45;&gt;Node7</title>
<path fill="none" stroke="midnightblue" d="M276.099,-112.444C297.493,-103.557 331.181,-89.5632 355.524,-79.4514"/>
<polygon fill="midnightblue" stroke="midnightblue" points="357.105,-82.5848 364.997,-75.5164 354.42,-76.1203 357.105,-82.5848"/>
</g>
<!-- Node8 -->
<g id="node8" class="node"><title>Node8</title>
<polygon fill="white" stroke="#bfbfbf" points="431,-56.5 431,-75.5 478,-75.5 478,-56.5 431,-56.5"/>
<text text-anchor="middle" x="454.5" y="-63.5" font-family="Helvetica,sans-Serif" font-size="10.00">vector</text>
</g>
<!-- Node1&#45;&gt;Node8 -->
<g id="edge9" class="edge"><title>Node1&#45;&gt;Node8</title>
<path fill="none" stroke="midnightblue" d="M287.543,-112.477C319.212,-104.029 369.296,-90.6039 421.061,-76.3777"/>
<polygon fill="midnightblue" stroke="midnightblue" points="422.03,-79.7413 430.742,-73.713 420.172,-72.9923 422.03,-79.7413"/>
</g>
<!-- Node2&#45;&gt;Node3 -->
<g id="edge2" class="edge"><title>Node2&#45;&gt;Node3</title>
<path fill="none" stroke="midnightblue" d="M47.2795,-56.083C52.1724,-48.5341 59.3274,-37.4948 65.3326,-28.2298"/>
<polygon fill="midnightblue" stroke="midnightblue" points="68.326,-30.0463 70.828,-19.7511 62.452,-26.239 68.326,-30.0463"/>
</g>
<!-- Node4&#45;&gt;Node5 -->
<g id="edge4" class="edge"><title>Node4&#45;&gt;Node5</title>
<path fill="none" stroke="midnightblue" d="M189.445,-56.083C194.477,-48.5341 201.837,-37.4948 208.013,-28.2298"/>
<polygon fill="midnightblue" stroke="midnightblue" points="211.031,-30.0131 213.666,-19.7511 205.207,-26.1301 211.031,-30.0131"/>
</g>
</g>
</svg>
