<?xml version="1.0" encoding="UTF-8" standalone="no"?>
<!DOCTYPE svg PUBLIC "-//W3C//DTD SVG 1.1//EN"
 "http://www.w3.org/Graphics/SVG/1.1/DTD/svg11.dtd">
<!-- Generated by graphviz version 2.38.0 (20140413.2041)
 -->
<!-- Title: Headers.h Pages: 1 -->
<svg width="269pt" height="84pt"
 viewBox="0.00 0.00 269.00 84.00" xmlns="http://www.w3.org/2000/svg" xmlns:xlink="http://www.w3.org/1999/xlink">
<g id="graph0" class="graph" transform="scale(1 1) rotate(0) translate(4 80)">
<title>Headers.h</title>
<polygon fill="white" stroke="none" points="-4,4 -4,-80 265,-80 265,4 -4,4"/>
<!-- Node1 -->
<g id="node1" class="node"><title>Node1</title>
<polygon fill="#bfbfbf" stroke="black" points="84.5,-56.5 84.5,-75.5 150.5,-75.5 150.5,-56.5 84.5,-56.5"/>
<text text-anchor="middle" x="117.5" y="-63.5" font-family="Helvetica,sans-Serif" font-size="10.00">Headers.h</text>
</g>
<!-- Node2 -->
<g id="node2" class="node"><title>Node2</title>
<g id="a_node2"><a xlink:href="_fourier_8cpp.html" target="_top" xlink:title="Fourier.cpp">
<polygon fill="white" stroke="black" points="0,-0.5 0,-19.5 69,-19.5 69,-0.5 0,-0.5"/>
<text text-anchor="middle" x="34.5" y="-7.5" font-family="Helvetica,sans-Serif" font-size="10.00">Fourier.cpp</text>
</a>
</g>
</g>
<!-- Node1&#45;&gt;Node2 -->
<g id="edge1" class="edge"><title>Node1&#45;&gt;Node2</title>
<path fill="none" stroke="midnightblue" d="M95.4007,-50.6221C80.2382,-40.7574 60.6172,-27.9919 47.8023,-19.6545"/>
<polygon fill="midnightblue" stroke="midnightblue" points="93.8738,-53.8042 104.165,-56.324 97.6912,-47.9367 93.8738,-53.8042"/>
</g>
<!-- Node3 -->
<g id="node3" class="node"><title>Node3</title>
<g id="a_node3"><a xlink:href="_inout_8cpp.html" target="_top" xlink:title="Inout.cpp">
<polygon fill="white" stroke="black" points="87,-0.5 87,-19.5 148,-19.5 148,-0.5 87,-0.5"/>
<text text-anchor="middle" x="117.5" y="-7.5" font-family="Helvetica,sans-Serif" font-size="10.00">Inout.cpp</text>
</a>
</g>
</g>
<!-- Node1&#45;&gt;Node3 -->
<g id="edge2" class="edge"><title>Node1&#45;&gt;Node3</title>
<path fill="none" stroke="midnightblue" d="M117.5,-45.8045C117.5,-36.9102 117.5,-26.7798 117.5,-19.7511"/>
<polygon fill="midnightblue" stroke="midnightblue" points="114,-46.083 117.5,-56.083 121,-46.083 114,-46.083"/>
</g>
<!-- Node4 -->
<g id="node4" class="node"><title>Node4</title>
<g id="a_node4"><a xlink:href="_subroutines_8cpp.html" target="_top" xlink:title="Subroutines.cpp">
<polygon fill="white" stroke="black" points="166,-0.5 166,-19.5 261,-19.5 261,-0.5 166,-0.5"/>
<text text-anchor="middle" x="213.5" y="-7.5" font-family="Helvetica,sans-Serif" font-size="10.00">Subroutines.cpp</text>
</a>
</g>
</g>
<!-- Node1&#45;&gt;Node4 -->
<g id="edge3" class="edge"><title>Node1&#45;&gt;Node4</title>
<path fill="none" stroke="midnightblue" d="M142.074,-51.1774C159.739,-41.2407 183.013,-28.1492 198.114,-19.6545"/>
<polygon fill="midnightblue" stroke="midnightblue" points="139.924,-48.3708 132.924,-56.324 143.356,-54.4718 139.924,-48.3708"/>
</g>
</g>
</svg>
