<?xml version="1.0" encoding="UTF-8" standalone="no"?>
<!DOCTYPE svg PUBLIC "-//W3C//DTD SVG 1.1//EN"
 "http://www.w3.org/Graphics/SVG/1.1/DTD/svg11.dtd">
<!-- Generated by graphviz version 2.38.0 (20140413.2041)
 -->
<!-- Title: MeshConverter.cpp Pages: 1 -->
<svg width="1473pt" height="196pt"
 viewBox="0.00 0.00 1473.00 196.00" xmlns="http://www.w3.org/2000/svg" xmlns:xlink="http://www.w3.org/1999/xlink">
<g id="graph0" class="graph" transform="scale(1 1) rotate(0) translate(4 192)">
<title>MeshConverter.cpp</title>
<polygon fill="white" stroke="none" points="-4,4 -4,-192 1469,-192 1469,4 -4,4"/>
<!-- Node1 -->
<g id="node1" class="node"><title>Node1</title>
<polygon fill="#bfbfbf" stroke="black" points="686.5,-168.5 686.5,-187.5 795.5,-187.5 795.5,-168.5 686.5,-168.5"/>
<text text-anchor="middle" x="741" y="-175.5" font-family="Helvetica,sans-Serif" font-size="10.00">MeshConverter.cpp</text>
</g>
<!-- Node2 -->
<g id="node2" class="node"><title>Node2</title>
<polygon fill="white" stroke="#bfbfbf" points="0,-0.5 0,-19.5 62,-19.5 62,-0.5 0,-0.5"/>
<text text-anchor="middle" x="31" y="-7.5" font-family="Helvetica,sans-Serif" font-size="10.00">algorithm</text>
</g>
<!-- Node1&#45;&gt;Node2 -->
<g id="edge1" class="edge"><title>Node1&#45;&gt;Node2</title>
<path fill="none" stroke="midnightblue" d="M686.392,-177.809C599.063,-177.746 423.326,-172.025 281,-132 191.67,-106.878 95.3675,-51.148 53.0572,-25.025"/>
<polygon fill="midnightblue" stroke="midnightblue" points="54.7475,-21.9543 44.4103,-19.6321 51.0431,-27.8938 54.7475,-21.9543"/>
</g>
<!-- Node3 -->
<g id="node3" class="node"><title>Node3</title>
<g id="a_node3"><a xlink:href="_mesh_adapt_p_u_m_i_8h.html" target="_top" xlink:title="MeshAdaptPUMI.h">
<polygon fill="white" stroke="black" points="349,-112.5 349,-131.5 453,-131.5 453,-112.5 349,-112.5"/>
<text text-anchor="middle" x="401" y="-119.5" font-family="Helvetica,sans-Serif" font-size="10.00">MeshAdaptPUMI.h</text>
</a>
</g>
</g>
<!-- Node1&#45;&gt;Node3 -->
<g id="edge2" class="edge"><title>Node1&#45;&gt;Node3</title>
<path fill="none" stroke="midnightblue" d="M687.126,-168.444C626.25,-158.775 527.32,-143.063 463.206,-132.88"/>
<polygon fill="midnightblue" stroke="midnightblue" points="463.652,-129.407 453.227,-131.295 462.554,-136.32 463.652,-129.407"/>
</g>
<!-- Node4 -->
<g id="node4" class="node"><title>Node4</title>
<g id="a_node4"><a xlink:href="mesh_8h.html" target="_top" xlink:title="mesh.h">
<polygon fill="white" stroke="black" points="206.5,-56.5 206.5,-75.5 259.5,-75.5 259.5,-56.5 206.5,-56.5"/>
<text text-anchor="middle" x="233" y="-63.5" font-family="Helvetica,sans-Serif" font-size="10.00">mesh.h</text>
</a>
</g>
</g>
<!-- Node1&#45;&gt;Node4 -->
<g id="edge19" class="edge"><title>Node1&#45;&gt;Node4</title>
<path fill="none" stroke="midnightblue" d="M686.34,-174.903C587.399,-170.5 382.766,-158.432 317,-132 289.609,-120.991 263.626,-98.3311 248.002,-82.8977"/>
<polygon fill="midnightblue" stroke="midnightblue" points="250.326,-80.2696 240.823,-75.5857 245.331,-85.1736 250.326,-80.2696"/>
</g>
<!-- Node7 -->
<g id="node7" class="node"><title>Node7</title>
<polygon fill="white" stroke="#bfbfbf" points="551,-0.5 551,-19.5 589,-19.5 589,-0.5 551,-0.5"/>
<text text-anchor="middle" x="570" y="-7.5" font-family="Helvetica,sans-Serif" font-size="10.00">map</text>
</g>
<!-- Node1&#45;&gt;Node7 -->
<g id="edge26" class="edge"><title>Node1&#45;&gt;Node7</title>
<path fill="none" stroke="midnightblue" d="M718.596,-168.347C700.612,-160.657 675.414,-148.138 657,-132 621.957,-101.289 593.163,-53.9047 579.168,-28.5053"/>
<polygon fill="midnightblue" stroke="midnightblue" points="582.219,-26.7893 574.397,-19.6431 576.055,-30.1073 582.219,-26.7893"/>
</g>
<!-- Node12 -->
<g id="node12" class="node"><title>Node12</title>
<polygon fill="white" stroke="#bfbfbf" points="616,-0.5 616,-19.5 668,-19.5 668,-0.5 616,-0.5"/>
<text text-anchor="middle" x="642" y="-7.5" font-family="Helvetica,sans-Serif" font-size="10.00">cassert</text>
</g>
<!-- Node1&#45;&gt;Node12 -->
<g id="edge32" class="edge"><title>Node1&#45;&gt;Node12</title>
<path fill="none" stroke="midnightblue" d="M719.444,-168.438C703.686,-161.082 683.043,-148.964 671,-132 648.878,-100.839 643.482,-54.963 642.259,-29.5899"/>
<polygon fill="midnightblue" stroke="midnightblue" points="645.755,-29.3878 641.946,-19.5013 638.758,-29.6051 645.755,-29.3878"/>
</g>
<!-- Node14 -->
<g id="node14" class="node"><title>Node14</title>
<polygon fill="white" stroke="#bfbfbf" points="278,-56.5 278,-75.5 318,-75.5 318,-56.5 278,-56.5"/>
<text text-anchor="middle" x="298" y="-63.5" font-family="Helvetica,sans-Serif" font-size="10.00">apf.h</text>
</g>
<!-- Node1&#45;&gt;Node14 -->
<g id="edge24" class="edge"><title>Node1&#45;&gt;Node14</title>
<path fill="none" stroke="midnightblue" d="M686.444,-176.562C590.572,-174.875 396.657,-167.084 340,-132 322.552,-121.195 310.972,-100.143 304.47,-84.9186"/>
<polygon fill="midnightblue" stroke="midnightblue" points="307.687,-83.5333 300.77,-75.5074 301.172,-86.0946 307.687,-83.5333"/>
</g>
<!-- Node15 -->
<g id="node15" class="node"><title>Node15</title>
<polygon fill="white" stroke="#bfbfbf" points="402,-56.5 402,-75.5 474,-75.5 474,-56.5 402,-56.5"/>
<text text-anchor="middle" x="438" y="-63.5" font-family="Helvetica,sans-Serif" font-size="10.00">apfMesh2.h</text>
</g>
<!-- Node1&#45;&gt;Node15 -->
<g id="edge23" class="edge"><title>Node1&#45;&gt;Node15</title>
<path fill="none" stroke="midnightblue" d="M700.374,-168.485C665.712,-160.677 614.832,-147.923 572,-132 532.284,-117.235 488.505,-94.7376 462.14,-80.458"/>
<polygon fill="midnightblue" stroke="midnightblue" points="463.707,-77.326 453.254,-75.5985 460.349,-83.4675 463.707,-77.326"/>
</g>
<!-- Node16 -->
<g id="node16" class="node"><title>Node16</title>
<polygon fill="white" stroke="#bfbfbf" points="492,-56.5 492,-75.5 586,-75.5 586,-56.5 492,-56.5"/>
<text text-anchor="middle" x="539" y="-63.5" font-family="Helvetica,sans-Serif" font-size="10.00">apfNumbering.h</text>
</g>
<!-- Node1&#45;&gt;Node16 -->
<g id="edge25" class="edge"><title>Node1&#45;&gt;Node16</title>
<path fill="none" stroke="midnightblue" d="M694.643,-168.451C665.829,-161.675 628.9,-150.241 600,-132 580.059,-119.413 562.245,-98.7821 551.091,-84.1418"/>
<polygon fill="midnightblue" stroke="midnightblue" points="553.792,-81.9072 545.047,-75.9259 548.153,-86.0551 553.792,-81.9072"/>
</g>
<!-- Node18 -->
<g id="node18" class="node"><title>Node18</title>
<polygon fill="white" stroke="#bfbfbf" points="680,-112.5 680,-131.5 726,-131.5 726,-112.5 680,-112.5"/>
<text text-anchor="middle" x="703" y="-119.5" font-family="Helvetica,sans-Serif" font-size="10.00">PCU.h</text>
</g>
<!-- Node1&#45;&gt;Node18 -->
<g id="edge18" class="edge"><title>Node1&#45;&gt;Node18</title>
<path fill="none" stroke="midnightblue" d="M734.725,-168.083C729.358,-160.455 721.482,-149.264 714.921,-139.941"/>
<polygon fill="midnightblue" stroke="midnightblue" points="717.775,-137.915 709.158,-131.751 712.051,-141.943 717.775,-137.915"/>
</g>
<!-- Node19 -->
<g id="node19" class="node"><title>Node19</title>
<polygon fill="white" stroke="#bfbfbf" points="744.5,-112.5 744.5,-131.5 815.5,-131.5 815.5,-112.5 744.5,-112.5"/>
<text text-anchor="middle" x="780" y="-119.5" font-family="Helvetica,sans-Serif" font-size="10.00">apfShape.h</text>
</g>
<!-- Node1&#45;&gt;Node19 -->
<g id="edge20" class="edge"><title>Node1&#45;&gt;Node19</title>
<path fill="none" stroke="midnightblue" d="M747.44,-168.083C752.949,-160.455 761.031,-149.264 767.765,-139.941"/>
<polygon fill="midnightblue" stroke="midnightblue" points="770.662,-141.907 773.68,-131.751 764.987,-137.809 770.662,-141.907"/>
</g>
<!-- Node20 -->
<g id="node20" class="node"><title>Node20</title>
<polygon fill="white" stroke="#bfbfbf" points="834,-112.5 834,-131.5 890,-131.5 890,-112.5 834,-112.5"/>
<text text-anchor="middle" x="862" y="-119.5" font-family="Helvetica,sans-Serif" font-size="10.00">sstream</text>
</g>
<!-- Node1&#45;&gt;Node20 -->
<g id="edge21" class="edge"><title>Node1&#45;&gt;Node20</title>
<path fill="none" stroke="midnightblue" d="M760.173,-168.444C779.909,-159.636 810.885,-145.812 833.493,-135.722"/>
<polygon fill="midnightblue" stroke="midnightblue" points="835.211,-138.788 842.917,-131.516 832.359,-132.396 835.211,-138.788"/>
</g>
<!-- Node21 -->
<g id="node21" class="node"><title>Node21</title>
<polygon fill="white" stroke="#bfbfbf" points="908,-112.5 908,-131.5 986,-131.5 986,-112.5 908,-112.5"/>
<text text-anchor="middle" x="947" y="-119.5" font-family="Helvetica,sans-Serif" font-size="10.00">apfConvert.h</text>
</g>
<!-- Node1&#45;&gt;Node21 -->
<g id="edge22" class="edge"><title>Node1&#45;&gt;Node21</title>
<path fill="none" stroke="midnightblue" d="M773.641,-168.444C809.05,-159.162 865.709,-144.309 904.553,-134.127"/>
<polygon fill="midnightblue" stroke="midnightblue" points="905.726,-137.438 914.511,-131.516 903.951,-130.667 905.726,-137.438"/>
</g>
<!-- Node22 -->
<g id="node22" class="node"><title>Node22</title>
<polygon fill="white" stroke="#bfbfbf" points="1004.5,-112.5 1004.5,-131.5 1069.5,-131.5 1069.5,-112.5 1004.5,-112.5"/>
<text text-anchor="middle" x="1037" y="-119.5" font-family="Helvetica,sans-Serif" font-size="10.00">gmi_null.h</text>
</g>
<!-- Node1&#45;&gt;Node22 -->
<g id="edge27" class="edge"><title>Node1&#45;&gt;Node22</title>
<path fill="none" stroke="midnightblue" d="M792.183,-168.485C841.344,-160.182 917.963,-146.917 994.2,-132.097"/>
<polygon fill="midnightblue" stroke="midnightblue" points="995.321,-135.445 1004.46,-130.092 993.979,-128.574 995.321,-135.445"/>
</g>
<!-- Node23 -->
<g id="node23" class="node"><title>Node23</title>
<polygon fill="white" stroke="#bfbfbf" points="1088,-112.5 1088,-131.5 1164,-131.5 1164,-112.5 1088,-112.5"/>
<text text-anchor="middle" x="1126" y="-119.5" font-family="Helvetica,sans-Serif" font-size="10.00">gmi_mesh.h</text>
</g>
<!-- Node1&#45;&gt;Node23 -->
<g id="edge28" class="edge"><title>Node1&#45;&gt;Node23</title>
<path fill="none" stroke="midnightblue" d="M795.583,-170.701C860.429,-163.002 972.114,-149.064 1077.62,-132.147"/>
<polygon fill="midnightblue" stroke="midnightblue" points="1078.5,-135.551 1087.81,-130.501 1077.38,-128.64 1078.5,-135.551"/>
</g>
<!-- Node24 -->
<g id="node24" class="node"><title>Node24</title>
<polygon fill="white" stroke="#bfbfbf" points="1182,-112.5 1182,-131.5 1226,-131.5 1226,-112.5 1182,-112.5"/>
<text text-anchor="middle" x="1204" y="-119.5" font-family="Helvetica,sans-Serif" font-size="10.00">gmi.h</text>
</g>
<!-- Node1&#45;&gt;Node24 -->
<g id="edge29" class="edge"><title>Node1&#45;&gt;Node24</title>
<path fill="none" stroke="midnightblue" d="M795.679,-174.442C876.187,-169.987 1031.38,-158.78 1171.69,-131.931"/>
<polygon fill="midnightblue" stroke="midnightblue" points="1172.62,-135.316 1181.77,-129.971 1171.28,-128.445 1172.62,-135.316"/>
</g>
<!-- Node25 -->
<g id="node25" class="node"><title>Node25</title>
<polygon fill="white" stroke="#bfbfbf" points="1244.5,-112.5 1244.5,-131.5 1307.5,-131.5 1307.5,-112.5 1244.5,-112.5"/>
<text text-anchor="middle" x="1276" y="-119.5" font-family="Helvetica,sans-Serif" font-size="10.00">apfMDS.h</text>
</g>
<!-- Node1&#45;&gt;Node25 -->
<g id="edge30" class="edge"><title>Node1&#45;&gt;Node25</title>
<path fill="none" stroke="midnightblue" d="M795.732,-174.259C885.268,-169.284 1068.76,-157.035 1233.94,-131.964"/>
<polygon fill="midnightblue" stroke="midnightblue" points="1234.94,-135.351 1244.29,-130.372 1233.87,-128.433 1234.94,-135.351"/>
</g>
<!-- Node26 -->
<g id="node26" class="node"><title>Node26</title>
<polygon fill="white" stroke="#bfbfbf" points="1325.5,-112.5 1325.5,-131.5 1366.5,-131.5 1366.5,-112.5 1325.5,-112.5"/>
<text text-anchor="middle" x="1346" y="-119.5" font-family="Helvetica,sans-Serif" font-size="10.00">ma.h</text>
</g>
<!-- Node1&#45;&gt;Node26 -->
<g id="edge31" class="edge"><title>Node1&#45;&gt;Node26</title>
<path fill="none" stroke="midnightblue" d="M795.536,-176.769C896.722,-175.468 1120.28,-168.503 1315.38,-131.931"/>
<polygon fill="midnightblue" stroke="midnightblue" points="1316.06,-135.363 1325.23,-130.053 1314.75,-128.487 1316.06,-135.363"/>
</g>
<!-- Node27 -->
<g id="node27" class="node"><title>Node27</title>
<polygon fill="white" stroke="#bfbfbf" points="1385,-112.5 1385,-131.5 1465,-131.5 1465,-112.5 1385,-112.5"/>
<text text-anchor="middle" x="1425" y="-119.5" font-family="Helvetica,sans-Serif" font-size="10.00">gmi_lookup.h</text>
</g>
<!-- Node1&#45;&gt;Node27 -->
<g id="edge33" class="edge"><title>Node1&#45;&gt;Node27</title>
<path fill="none" stroke="midnightblue" d="M795.563,-175.173C904.008,-171.099 1154.47,-159.484 1374.81,-132.009"/>
<polygon fill="midnightblue" stroke="midnightblue" points="1375.46,-135.454 1384.95,-130.731 1374.59,-128.509 1375.46,-135.454"/>
</g>
<!-- Node3&#45;&gt;Node4 -->
<g id="edge3" class="edge"><title>Node3&#45;&gt;Node4</title>
<path fill="none" stroke="midnightblue" d="M374.38,-112.444C345.994,-103.32 300.863,-88.8133 269.247,-78.6509"/>
<polygon fill="midnightblue" stroke="midnightblue" points="270.087,-75.2445 259.496,-75.5164 267.945,-81.9087 270.087,-75.2445"/>
</g>
<!-- Node3&#45;&gt;Node14 -->
<g id="edge14" class="edge"><title>Node3&#45;&gt;Node14</title>
<path fill="none" stroke="midnightblue" d="M384.451,-112.324C368.008,-103.703 342.565,-90.3643 323.532,-80.3855"/>
<polygon fill="midnightblue" stroke="midnightblue" points="324.989,-77.198 314.508,-75.6545 321.739,-83.3977 324.989,-77.198"/>
</g>
<!-- Node3&#45;&gt;Node15 -->
<g id="edge15" class="edge"><title>Node3&#45;&gt;Node15</title>
<path fill="none" stroke="midnightblue" d="M407.11,-112.083C412.282,-104.534 419.846,-93.4948 426.194,-84.2298"/>
<polygon fill="midnightblue" stroke="midnightblue" points="429.239,-85.9787 432.004,-75.7511 423.464,-82.0221 429.239,-85.9787"/>
</g>
<!-- Node3&#45;&gt;Node16 -->
<g id="edge16" class="edge"><title>Node3&#45;&gt;Node16</title>
<path fill="none" stroke="midnightblue" d="M422.867,-112.444C445.779,-103.478 481.975,-89.314 507.866,-79.1827"/>
<polygon fill="midnightblue" stroke="midnightblue" points="509.199,-82.4198 517.236,-75.5164 506.648,-75.9011 509.199,-82.4198"/>
</g>
<!-- Node17 -->
<g id="node17" class="node"><title>Node17</title>
<polygon fill="white" stroke="#bfbfbf" points="336.5,-56.5 336.5,-75.5 383.5,-75.5 383.5,-56.5 336.5,-56.5"/>
<text text-anchor="middle" x="360" y="-63.5" font-family="Helvetica,sans-Serif" font-size="10.00">queue</text>
</g>
<!-- Node3&#45;&gt;Node17 -->
<g id="edge17" class="edge"><title>Node3&#45;&gt;Node17</title>
<path fill="none" stroke="midnightblue" d="M394.23,-112.083C388.438,-104.455 379.942,-93.2645 372.862,-83.9408"/>
<polygon fill="midnightblue" stroke="midnightblue" points="375.479,-81.5991 366.644,-75.7511 369.904,-85.8321 375.479,-81.5991"/>
</g>
<!-- Node4&#45;&gt;Node2 -->
<g id="edge6" class="edge"><title>Node4&#45;&gt;Node2</title>
<path fill="none" stroke="midnightblue" d="M206.176,-57.8292C171.845,-48.6517 112.032,-32.662 71.9796,-21.9549"/>
<polygon fill="midnightblue" stroke="midnightblue" points="72.8148,-18.5554 62.2501,-19.354 71.007,-25.3179 72.8148,-18.5554"/>
</g>
<!-- Node5 -->
<g id="node5" class="node"><title>Node5</title>
<polygon fill="white" stroke="#bfbfbf" points="417,-0.5 417,-19.5 449,-19.5 449,-0.5 417,-0.5"/>
<text text-anchor="middle" x="433" y="-7.5" font-family="Helvetica,sans-Serif" font-size="10.00">set</text>
</g>
<!-- Node4&#45;&gt;Node5 -->
<g id="edge4" class="edge"><title>Node4&#45;&gt;Node5</title>
<path fill="none" stroke="midnightblue" d="M259.616,-58.2418C304.772,-46.7577 392.886,-24.2604 407,-20 407.1,-19.9698 407.2,-19.9395 407.301,-19.909"/>
<polygon fill="midnightblue" stroke="midnightblue" points="408.404,-23.2308 416.838,-16.819 406.246,-16.5716 408.404,-23.2308"/>
</g>
<!-- Node6 -->
<g id="node6" class="node"><title>Node6</title>
<polygon fill="white" stroke="#bfbfbf" points="467.5,-0.5 467.5,-19.5 514.5,-19.5 514.5,-0.5 467.5,-0.5"/>
<text text-anchor="middle" x="491" y="-7.5" font-family="Helvetica,sans-Serif" font-size="10.00">vector</text>
</g>
<!-- Node4&#45;&gt;Node6 -->
<g id="edge5" class="edge"><title>Node4&#45;&gt;Node6</title>
<path fill="none" stroke="midnightblue" d="M259.697,-58.1467C262.827,-57.3963 265.98,-56.6646 269,-56 349.495,-38.287 373.005,-39.1718 457.498,-19.959"/>
<polygon fill="midnightblue" stroke="midnightblue" points="458.303,-23.3653 467.263,-17.7116 456.733,-16.5436 458.303,-23.3653"/>
</g>
<!-- Node4&#45;&gt;Node7 -->
<g id="edge7" class="edge"><title>Node4&#45;&gt;Node7</title>
<path fill="none" stroke="midnightblue" d="M259.667,-58.0045C262.803,-57.2797 265.965,-56.5928 269,-56 380.903,-34.1437 410.531,-38.7272 523,-20 528.737,-19.0448 534.85,-17.9391 540.705,-16.8365"/>
<polygon fill="midnightblue" stroke="midnightblue" points="541.671,-20.2151 550.829,-14.8886 540.348,-13.3412 541.671,-20.2151"/>
</g>
<!-- Node8 -->
<g id="node8" class="node"><title>Node8</title>
<polygon fill="white" stroke="#bfbfbf" points="80,-0.5 80,-19.5 110,-19.5 110,-0.5 80,-0.5"/>
<text text-anchor="middle" x="95" y="-7.5" font-family="Helvetica,sans-Serif" font-size="10.00">list</text>
</g>
<!-- Node4&#45;&gt;Node8 -->
<g id="edge8" class="edge"><title>Node4&#45;&gt;Node8</title>
<path fill="none" stroke="midnightblue" d="M211.133,-56.4435C186.309,-46.7295 145.892,-30.9142 119.881,-20.7362"/>
<polygon fill="midnightblue" stroke="midnightblue" points="120.943,-17.3931 110.355,-17.0084 118.392,-23.9118 120.943,-17.3931"/>
</g>
<!-- Node9 -->
<g id="node9" class="node"><title>Node9</title>
<polygon fill="white" stroke="#bfbfbf" points="128.5,-0.5 128.5,-19.5 187.5,-19.5 187.5,-0.5 128.5,-0.5"/>
<text text-anchor="middle" x="158" y="-7.5" font-family="Helvetica,sans-Serif" font-size="10.00">iostream</text>
</g>
<!-- Node4&#45;&gt;Node9 -->
<g id="edge9" class="edge"><title>Node4&#45;&gt;Node9</title>
<path fill="none" stroke="midnightblue" d="M220.95,-56.324C209.537,-48.1066 192.169,-35.6017 178.565,-25.8069"/>
<polygon fill="midnightblue" stroke="midnightblue" points="180.43,-22.8366 170.269,-19.8339 176.34,-28.5174 180.43,-22.8366"/>
</g>
<!-- Node10 -->
<g id="node10" class="node"><title>Node10</title>
<polygon fill="white" stroke="#bfbfbf" points="205.5,-0.5 205.5,-19.5 260.5,-19.5 260.5,-0.5 205.5,-0.5"/>
<text text-anchor="middle" x="233" y="-7.5" font-family="Helvetica,sans-Serif" font-size="10.00">iomanip</text>
</g>
<!-- Node4&#45;&gt;Node10 -->
<g id="edge10" class="edge"><title>Node4&#45;&gt;Node10</title>
<path fill="none" stroke="midnightblue" d="M233,-56.083C233,-49.0059 233,-38.8611 233,-29.9865"/>
<polygon fill="midnightblue" stroke="midnightblue" points="236.5,-29.751 233,-19.7511 229.5,-29.7511 236.5,-29.751"/>
</g>
<!-- Node11 -->
<g id="node11" class="node"><title>Node11</title>
<polygon fill="white" stroke="#bfbfbf" points="279,-0.5 279,-19.5 333,-19.5 333,-0.5 279,-0.5"/>
<text text-anchor="middle" x="306" y="-7.5" font-family="Helvetica,sans-Serif" font-size="10.00">fstream</text>
</g>
<!-- Node4&#45;&gt;Node11 -->
<g id="edge11" class="edge"><title>Node4&#45;&gt;Node11</title>
<path fill="none" stroke="midnightblue" d="M244.729,-56.324C255.837,-48.1066 272.742,-35.6017 285.983,-25.8069"/>
<polygon fill="midnightblue" stroke="midnightblue" points="288.1,-28.5948 294.058,-19.8339 283.937,-22.9671 288.1,-28.5948"/>
</g>
<!-- Node4&#45;&gt;Node12 -->
<g id="edge12" class="edge"><title>Node4&#45;&gt;Node12</title>
<path fill="none" stroke="midnightblue" d="M259.649,-57.9088C262.788,-57.2011 265.956,-56.5444 269,-56 413.797,-30.1023 452.677,-42.7631 598,-20 600.494,-19.6094 603.061,-19.1736 605.642,-18.7103"/>
<polygon fill="midnightblue" stroke="midnightblue" points="606.378,-22.1331 615.547,-16.8248 605.069,-15.2566 606.378,-22.1331"/>
</g>
<!-- Node13 -->
<g id="node13" class="node"><title>Node13</title>
<polygon fill="white" stroke="#bfbfbf" points="351.5,-0.5 351.5,-19.5 398.5,-19.5 398.5,-0.5 351.5,-0.5"/>
<text text-anchor="middle" x="375" y="-7.5" font-family="Helvetica,sans-Serif" font-size="10.00">cmath</text>
</g>
<!-- Node4&#45;&gt;Node13 -->
<g id="edge13" class="edge"><title>Node4&#45;&gt;Node13</title>
<path fill="none" stroke="midnightblue" d="M255.5,-56.4435C279.077,-47.4776 316.322,-33.314 342.964,-23.1827"/>
<polygon fill="midnightblue" stroke="midnightblue" points="344.502,-26.3424 352.605,-19.5164 342.014,-19.7995 344.502,-26.3424"/>
</g>
</g>
</svg>
