<?xml version="1.0" encoding="UTF-8" standalone="no"?>
<!DOCTYPE svg PUBLIC "-//W3C//DTD SVG 1.1//EN"
 "http://www.w3.org/Graphics/SVG/1.1/DTD/svg11.dtd">
<!-- Generated by graphviz version 2.38.0 (20140413.2041)
 -->
<!-- Title: ModelFactory.h Pages: 1 -->
<svg width="2562pt" height="84pt"
 viewBox="0.00 0.00 2562.00 84.00" xmlns="http://www.w3.org/2000/svg" xmlns:xlink="http://www.w3.org/1999/xlink">
<g id="graph0" class="graph" transform="scale(1 1) rotate(0) translate(4 80)">
<title>ModelFactory.h</title>
<polygon fill="white" stroke="none" points="-4,4 -4,-80 2558,-80 2558,4 -4,4"/>
<!-- Node1 -->
<g id="node1" class="node"><title>Node1</title>
<polygon fill="#bfbfbf" stroke="black" points="1270.5,-56.5 1270.5,-75.5 1357.5,-75.5 1357.5,-56.5 1270.5,-56.5"/>
<text text-anchor="middle" x="1314" y="-63.5" font-family="Helvetica,sans-Serif" font-size="10.00">ModelFactory.h</text>
</g>
<!-- Node2 -->
<g id="node2" class="node"><title>Node2</title>
<g id="a_node2"><a xlink:href="_a_d_r_8h.html" target="_top" xlink:title="ADR.h">
<polygon fill="white" stroke="black" points="0,-0.5 0,-19.5 46,-19.5 46,-0.5 0,-0.5"/>
<text text-anchor="middle" x="23" y="-7.5" font-family="Helvetica,sans-Serif" font-size="10.00">ADR.h</text>
</a>
</g>
</g>
<!-- Node1&#45;&gt;Node2 -->
<g id="edge1" class="edge"><title>Node1&#45;&gt;Node2</title>
<path fill="none" stroke="midnightblue" d="M1260.16,-64.782C1051.05,-63.6711 292.611,-57.1147 55,-20 52.149,-19.5547 49.191,-18.94 46.2765,-18.2391"/>
<polygon fill="midnightblue" stroke="midnightblue" points="1260.26,-68.2825 1270.28,-64.8338 1260.3,-61.2826 1260.26,-68.2825"/>
</g>
<!-- Node3 -->
<g id="node3" class="node"><title>Node3</title>
<g id="a_node3"><a xlink:href="_elasto_plastic_8h.html" target="_top" xlink:title="ElastoPlastic.h">
<polygon fill="white" stroke="black" points="64,-0.5 64,-19.5 150,-19.5 150,-0.5 64,-0.5"/>
<text text-anchor="middle" x="107" y="-7.5" font-family="Helvetica,sans-Serif" font-size="10.00">ElastoPlastic.h</text>
</a>
</g>
</g>
<!-- Node1&#45;&gt;Node3 -->
<g id="edge2" class="edge"><title>Node1&#45;&gt;Node3</title>
<path fill="none" stroke="midnightblue" d="M1259.94,-65.4308C1094.6,-66.205 581.286,-64.5721 159,-20 156.084,-19.6923 153.085,-19.3208 150.069,-18.9064"/>
<polygon fill="midnightblue" stroke="midnightblue" points="1260.34,-68.9289 1270.32,-65.3768 1260.3,-61.929 1260.34,-68.9289"/>
</g>
<!-- Node4 -->
<g id="node4" class="node"><title>Node4</title>
<g id="a_node4"><a xlink:href="_added_mass_8h.html" target="_top" xlink:title="AddedMass.h">
<polygon fill="white" stroke="black" points="168.5,-0.5 168.5,-19.5 249.5,-19.5 249.5,-0.5 168.5,-0.5"/>
<text text-anchor="middle" x="209" y="-7.5" font-family="Helvetica,sans-Serif" font-size="10.00">AddedMass.h</text>
</a>
</g>
</g>
<!-- Node1&#45;&gt;Node4 -->
<g id="edge3" class="edge"><title>Node1&#45;&gt;Node4</title>
<path fill="none" stroke="midnightblue" d="M1260.14,-65.2719C1104.49,-65.5057 640.841,-62.3121 259,-20 255.932,-19.66 252.768,-19.2448 249.592,-18.7812"/>
<polygon fill="midnightblue" stroke="midnightblue" points="1260.38,-68.7715 1270.38,-65.2508 1260.37,-61.7715 1260.38,-68.7715"/>
</g>
<!-- Node5 -->
<g id="node5" class="node"><title>Node5</title>
<g id="a_node5"><a xlink:href="_c_l_s_v_o_f_8h.html" target="_top" xlink:title="CLSVOF.h">
<polygon fill="white" stroke="black" points="268,-0.5 268,-19.5 330,-19.5 330,-0.5 268,-0.5"/>
<text text-anchor="middle" x="299" y="-7.5" font-family="Helvetica,sans-Serif" font-size="10.00">CLSVOF.h</text>
</a>
</g>
</g>
<!-- Node1&#45;&gt;Node5 -->
<g id="edge4" class="edge"><title>Node1&#45;&gt;Node5</title>
<path fill="none" stroke="midnightblue" d="M1260.19,-63.7592C1083.07,-59.4798 519.301,-44.2542 339,-20 336.178,-19.6204 333.262,-19.1397 330.349,-18.5988"/>
<polygon fill="midnightblue" stroke="midnightblue" points="1260.23,-67.261 1270.31,-64.0019 1260.4,-60.263 1260.23,-67.261"/>
</g>
<!-- Node6 -->
<g id="node6" class="node"><title>Node6</title>
<g id="a_node6"><a xlink:href="_dissipation_8h.html" target="_top" xlink:title="Dissipation.h">
<polygon fill="white" stroke="black" points="348,-0.5 348,-19.5 426,-19.5 426,-0.5 348,-0.5"/>
<text text-anchor="middle" x="387" y="-7.5" font-family="Helvetica,sans-Serif" font-size="10.00">Dissipation.h</text>
</a>
</g>
</g>
<!-- Node1&#45;&gt;Node6 -->
<g id="edge5" class="edge"><title>Node1&#45;&gt;Node6</title>
<path fill="none" stroke="midnightblue" d="M1260.1,-64.7522C1122.27,-63.5748 745.927,-56.9391 435,-20 432.137,-19.6599 429.189,-19.2514 426.227,-18.7987"/>
<polygon fill="midnightblue" stroke="midnightblue" points="1260.35,-68.2542 1270.38,-64.8335 1260.41,-61.2544 1260.35,-68.2542"/>
</g>
<!-- Node7 -->
<g id="node7" class="node"><title>Node7</title>
<g id="a_node7"><a xlink:href="_dissipation2_d_8h.html" target="_top" xlink:title="Dissipation2D.h">
<polygon fill="white" stroke="black" points="444,-0.5 444,-19.5 536,-19.5 536,-0.5 444,-0.5"/>
<text text-anchor="middle" x="490" y="-7.5" font-family="Helvetica,sans-Serif" font-size="10.00">Dissipation2D.h</text>
</a>
</g>
</g>
<!-- Node1&#45;&gt;Node7 -->
<g id="edge6" class="edge"><title>Node1&#45;&gt;Node7</title>
<path fill="none" stroke="midnightblue" d="M1259.94,-63.7642C1134.18,-60.4687 812.302,-49.6103 545,-20 542.115,-19.6804 539.151,-19.3121 536.166,-18.911"/>
<polygon fill="midnightblue" stroke="midnightblue" points="1259.99,-67.2666 1270.08,-64.0245 1260.17,-60.2689 1259.99,-67.2666"/>
</g>
<!-- Node8 -->
<g id="node8" class="node"><title>Node8</title>
<g id="a_node8"><a xlink:href="_g_n___s_w2_d_c_v_8h.html" target="_top" xlink:title="GN_SW2DCV.h">
<polygon fill="white" stroke="black" points="554,-0.5 554,-19.5 640,-19.5 640,-0.5 554,-0.5"/>
<text text-anchor="middle" x="597" y="-7.5" font-family="Helvetica,sans-Serif" font-size="10.00">GN_SW2DCV.h</text>
</a>
</g>
</g>
<!-- Node1&#45;&gt;Node8 -->
<g id="edge7" class="edge"><title>Node1&#45;&gt;Node8</title>
<path fill="none" stroke="midnightblue" d="M1260.13,-63.2515C1146.72,-59.154 875.167,-47.1501 649,-20 646.089,-19.6506 643.093,-19.2479 640.08,-18.8107"/>
<polygon fill="midnightblue" stroke="midnightblue" points="1260.16,-66.7549 1270.28,-63.6124 1260.41,-59.7593 1260.16,-66.7549"/>
</g>
<!-- Node9 -->
<g id="node9" class="node"><title>Node9</title>
<g id="a_node9"><a xlink:href="_kappa_8h.html" target="_top" xlink:title="Kappa.h">
<polygon fill="white" stroke="black" points="658,-0.5 658,-19.5 714,-19.5 714,-0.5 658,-0.5"/>
<text text-anchor="middle" x="686" y="-7.5" font-family="Helvetica,sans-Serif" font-size="10.00">Kappa.h</text>
</a>
</g>
</g>
<!-- Node1&#45;&gt;Node9 -->
<g id="edge8" class="edge"><title>Node1&#45;&gt;Node9</title>
<path fill="none" stroke="midnightblue" d="M1260.07,-63.8233C1155.74,-60.9014 919.267,-51.1304 723,-20 720.127,-19.5443 717.149,-18.9794 714.186,-18.3563"/>
<polygon fill="midnightblue" stroke="midnightblue" points="1260.25,-67.3295 1270.34,-64.1007 1260.44,-60.332 1260.25,-67.3295"/>
</g>
<!-- Node10 -->
<g id="node10" class="node"><title>Node10</title>
<g id="a_node10"><a xlink:href="_kappa2_d_8h.html" target="_top" xlink:title="Kappa2D.h">
<polygon fill="white" stroke="black" points="732.5,-0.5 732.5,-19.5 801.5,-19.5 801.5,-0.5 732.5,-0.5"/>
<text text-anchor="middle" x="767" y="-7.5" font-family="Helvetica,sans-Serif" font-size="10.00">Kappa2D.h</text>
</a>
</g>
</g>
<!-- Node1&#45;&gt;Node10 -->
<g id="edge9" class="edge"><title>Node1&#45;&gt;Node10</title>
<path fill="none" stroke="midnightblue" d="M1260.08,-62.2665C1167.6,-57.1141 972.942,-44.2409 810,-20 807.284,-19.596 804.482,-19.1276 801.671,-18.6209"/>
<polygon fill="midnightblue" stroke="midnightblue" points="1260.14,-65.7746 1270.31,-62.8281 1260.52,-58.7851 1260.14,-65.7746"/>
</g>
<!-- Node11 -->
<g id="node11" class="node"><title>Node11</title>
<g id="a_node11"><a xlink:href="_m_corr_8h.html" target="_top" xlink:title="MCorr.h">
<polygon fill="white" stroke="black" points="819.5,-0.5 819.5,-19.5 872.5,-19.5 872.5,-0.5 819.5,-0.5"/>
<text text-anchor="middle" x="846" y="-7.5" font-family="Helvetica,sans-Serif" font-size="10.00">MCorr.h</text>
</a>
</g>
</g>
<!-- Node1&#45;&gt;Node11 -->
<g id="edge10" class="edge"><title>Node1&#45;&gt;Node11</title>
<path fill="none" stroke="midnightblue" d="M1260.27,-61.9831C1178.07,-56.7908 1016.36,-44.2998 881,-20 878.283,-19.5122 875.466,-18.9263 872.663,-18.2903"/>
<polygon fill="midnightblue" stroke="midnightblue" points="1260.18,-65.4839 1270.37,-62.6097 1260.61,-58.4973 1260.18,-65.4839"/>
</g>
<!-- Node12 -->
<g id="node12" class="node"><title>Node12</title>
<g id="a_node12"><a xlink:href="_m_corr3_p_8h.html" target="_top" xlink:title="MCorr3P.h">
<polygon fill="white" stroke="black" points="890.5,-0.5 890.5,-19.5 955.5,-19.5 955.5,-0.5 890.5,-0.5"/>
<text text-anchor="middle" x="923" y="-7.5" font-family="Helvetica,sans-Serif" font-size="10.00">MCorr3P.h</text>
</a>
</g>
</g>
<!-- Node1&#45;&gt;Node12 -->
<g id="edge11" class="edge"><title>Node1&#45;&gt;Node12</title>
<path fill="none" stroke="midnightblue" d="M1260.26,-59.5804C1191.37,-52.2913 1068.35,-38.1246 964,-20 961.272,-19.5261 958.45,-18.9946 955.622,-18.433"/>
<polygon fill="midnightblue" stroke="midnightblue" points="1260.13,-63.085 1270.44,-60.6482 1260.86,-56.1232 1260.13,-63.085"/>
</g>
<!-- Node13 -->
<g id="node13" class="node"><title>Node13</title>
<g id="a_node13"><a xlink:href="_move_mesh_8h.html" target="_top" xlink:title="MoveMesh.h">
<polygon fill="white" stroke="black" points="973.5,-0.5 973.5,-19.5 1050.5,-19.5 1050.5,-0.5 973.5,-0.5"/>
<text text-anchor="middle" x="1012" y="-7.5" font-family="Helvetica,sans-Serif" font-size="10.00">MoveMesh.h</text>
</a>
</g>
</g>
<!-- Node1&#45;&gt;Node13 -->
<g id="edge12" class="edge"><title>Node1&#45;&gt;Node13</title>
<path fill="none" stroke="midnightblue" d="M1260.49,-55.6793C1209.06,-46.6851 1129.18,-32.6142 1060,-20 1056.91,-19.4373 1053.72,-18.8493 1050.51,-18.2549"/>
<polygon fill="midnightblue" stroke="midnightblue" points="1259.93,-59.1344 1270.38,-57.4085 1261.13,-52.239 1259.93,-59.1344"/>
</g>
<!-- Node14 -->
<g id="node14" class="node"><title>Node14</title>
<g id="a_node14"><a xlink:href="_move_mesh2_d_8h.html" target="_top" xlink:title="MoveMesh2D.h">
<polygon fill="white" stroke="black" points="1069,-0.5 1069,-19.5 1159,-19.5 1159,-0.5 1069,-0.5"/>
<text text-anchor="middle" x="1114" y="-7.5" font-family="Helvetica,sans-Serif" font-size="10.00">MoveMesh2D.h</text>
</a>
</g>
</g>
<!-- Node1&#45;&gt;Node14 -->
<g id="edge13" class="edge"><title>Node1&#45;&gt;Node14</title>
<path fill="none" stroke="midnightblue" d="M1272.63,-53.8291C1234.86,-43.6333 1179.86,-28.7823 1145.54,-19.5164"/>
<polygon fill="midnightblue" stroke="midnightblue" points="1271.74,-57.2158 1282.31,-56.4435 1273.57,-50.4578 1271.74,-57.2158"/>
</g>
<!-- Node15 -->
<g id="node15" class="node"><title>Node15</title>
<g id="a_node15"><a xlink:href="_n_c_l_s_8h.html" target="_top" xlink:title="NCLS.h">
<polygon fill="white" stroke="black" points="1177,-0.5 1177,-19.5 1229,-19.5 1229,-0.5 1177,-0.5"/>
<text text-anchor="middle" x="1203" y="-7.5" font-family="Helvetica,sans-Serif" font-size="10.00">NCLS.h</text>
</a>
</g>
</g>
<!-- Node1&#45;&gt;Node15 -->
<g id="edge14" class="edge"><title>Node1&#45;&gt;Node15</title>
<path fill="none" stroke="midnightblue" d="M1286.99,-51.8622C1266.41,-41.8492 1238.66,-28.3458 1220.79,-19.6545"/>
<polygon fill="midnightblue" stroke="midnightblue" points="1285.64,-55.0966 1296.17,-56.324 1288.7,-48.8019 1285.64,-55.0966"/>
</g>
<!-- Node16 -->
<g id="node16" class="node"><title>Node16</title>
<g id="a_node16"><a xlink:href="_n_c_l_s3_p_8h.html" target="_top" xlink:title="NCLS3P.h">
<polygon fill="white" stroke="black" points="1247,-0.5 1247,-19.5 1309,-19.5 1309,-0.5 1247,-0.5"/>
<text text-anchor="middle" x="1278" y="-7.5" font-family="Helvetica,sans-Serif" font-size="10.00">NCLS3P.h</text>
</a>
</g>
</g>
<!-- Node1&#45;&gt;Node16 -->
<g id="edge15" class="edge"><title>Node1&#45;&gt;Node16</title>
<path fill="none" stroke="midnightblue" d="M1302.38,-47.5656C1296.18,-38.2747 1288.83,-27.2484 1283.83,-19.7511"/>
<polygon fill="midnightblue" stroke="midnightblue" points="1299.6,-49.7039 1308.06,-56.083 1305.42,-45.821 1299.6,-49.7039"/>
</g>
<!-- Node17 -->
<g id="node17" class="node"><title>Node17</title>
<g id="a_node17"><a xlink:href="_pres_8h.html" target="_top" xlink:title="Pres.h">
<polygon fill="white" stroke="black" points="1327.5,-0.5 1327.5,-19.5 1374.5,-19.5 1374.5,-0.5 1327.5,-0.5"/>
<text text-anchor="middle" x="1351" y="-7.5" font-family="Helvetica,sans-Serif" font-size="10.00">Pres.h</text>
</a>
</g>
</g>
<!-- Node1&#45;&gt;Node17 -->
<g id="edge16" class="edge"><title>Node1&#45;&gt;Node17</title>
<path fill="none" stroke="midnightblue" d="M1325.95,-47.5656C1332.31,-38.2747 1339.87,-27.2484 1345,-19.7511"/>
<polygon fill="midnightblue" stroke="midnightblue" points="1322.87,-45.8553 1320.11,-56.083 1328.65,-49.812 1322.87,-45.8553"/>
</g>
<!-- Node18 -->
<g id="node18" class="node"><title>Node18</title>
<g id="a_node18"><a xlink:href="_pres_inc_8h.html" target="_top" xlink:title="PresInc.h">
<polygon fill="white" stroke="black" points="1393,-0.5 1393,-19.5 1453,-19.5 1453,-0.5 1393,-0.5"/>
<text text-anchor="middle" x="1423" y="-7.5" font-family="Helvetica,sans-Serif" font-size="10.00">PresInc.h</text>
</a>
</g>
</g>
<!-- Node1&#45;&gt;Node18 -->
<g id="edge17" class="edge"><title>Node1&#45;&gt;Node18</title>
<path fill="none" stroke="midnightblue" d="M1340.52,-51.8622C1360.73,-41.8492 1387.99,-28.3458 1405.53,-19.6545"/>
<polygon fill="midnightblue" stroke="midnightblue" points="1338.92,-48.7485 1331.51,-56.324 1342.03,-55.0209 1338.92,-48.7485"/>
</g>
<!-- Node19 -->
<g id="node19" class="node"><title>Node19</title>
<g id="a_node19"><a xlink:href="_pres_init_8h.html" target="_top" xlink:title="PresInit.h">
<polygon fill="white" stroke="black" points="1471.5,-0.5 1471.5,-19.5 1532.5,-19.5 1532.5,-0.5 1471.5,-0.5"/>
<text text-anchor="middle" x="1502" y="-7.5" font-family="Helvetica,sans-Serif" font-size="10.00">PresInit.h</text>
</a>
</g>
</g>
<!-- Node1&#45;&gt;Node19 -->
<g id="edge18" class="edge"><title>Node1&#45;&gt;Node19</title>
<path fill="none" stroke="midnightblue" d="M1353.8,-53.5677C1389.27,-43.381 1440.37,-28.7034 1472.35,-19.5164"/>
<polygon fill="midnightblue" stroke="midnightblue" points="1352.43,-50.3188 1343.79,-56.4435 1354.37,-57.0467 1352.43,-50.3188"/>
</g>
<!-- Node20 -->
<g id="node20" class="node"><title>Node20</title>
<g id="a_node20"><a xlink:href="_r_a_n_s2_p___i_b_8h.html" target="_top" xlink:title="RANS2P_IB.h">
<polygon fill="white" stroke="black" points="1551,-0.5 1551,-19.5 1629,-19.5 1629,-0.5 1551,-0.5"/>
<text text-anchor="middle" x="1590" y="-7.5" font-family="Helvetica,sans-Serif" font-size="10.00">RANS2P_IB.h</text>
</a>
</g>
</g>
<!-- Node1&#45;&gt;Node20 -->
<g id="edge19" class="edge"><title>Node1&#45;&gt;Node20</title>
<path fill="none" stroke="midnightblue" d="M1367.77,-54.4791C1421.57,-43.9533 1503.03,-28.0168 1550.93,-18.6433"/>
<polygon fill="midnightblue" stroke="midnightblue" points="1366.87,-51.0885 1357.73,-56.4435 1368.22,-57.9582 1366.87,-51.0885"/>
</g>
<!-- Node21 -->
<g id="node21" class="node"><title>Node21</title>
<g id="a_node21"><a xlink:href="_r_a_n_s3_p_f_8h.html" target="_top" xlink:title="RANS3PF.h">
<polygon fill="white" stroke="black" points="1647,-0.5 1647,-19.5 1715,-19.5 1715,-0.5 1647,-0.5"/>
<text text-anchor="middle" x="1681" y="-7.5" font-family="Helvetica,sans-Serif" font-size="10.00">RANS3PF.h</text>
</a>
</g>
</g>
<!-- Node1&#45;&gt;Node21 -->
<g id="edge20" class="edge"><title>Node1&#45;&gt;Node21</title>
<path fill="none" stroke="midnightblue" d="M1367.96,-58.6498C1432.42,-50.8015 1543.4,-36.4505 1638,-20 1640.86,-19.5035 1643.81,-18.9561 1646.77,-18.3838"/>
<polygon fill="midnightblue" stroke="midnightblue" points="1367.15,-55.2227 1357.64,-59.8993 1367.99,-62.1719 1367.15,-55.2227"/>
</g>
<!-- Node22 -->
<g id="node22" class="node"><title>Node22</title>
<g id="a_node22"><a xlink:href="_r_a_n_s3_p_f2_d_8h.html" target="_top" xlink:title="RANS3PF2D.h">
<polygon fill="white" stroke="black" points="1733.5,-0.5 1733.5,-19.5 1816.5,-19.5 1816.5,-0.5 1733.5,-0.5"/>
<text text-anchor="middle" x="1775" y="-7.5" font-family="Helvetica,sans-Serif" font-size="10.00">RANS3PF2D.h</text>
</a>
</g>
</g>
<!-- Node1&#45;&gt;Node22 -->
<g id="edge21" class="edge"><title>Node1&#45;&gt;Node22</title>
<path fill="none" stroke="midnightblue" d="M1367.63,-60.2415C1446.07,-53.0256 1596.63,-38.2088 1724,-20 1727.03,-19.5674 1730.15,-19.0909 1733.29,-18.5899"/>
<polygon fill="midnightblue" stroke="midnightblue" points="1367.15,-56.7708 1357.51,-61.1671 1367.78,-63.7417 1367.15,-56.7708"/>
</g>
<!-- Node23 -->
<g id="node23" class="node"><title>Node23</title>
<g id="a_node23"><a xlink:href="_r_a_n_s3_p_sed_8h.html" target="_top" xlink:title="RANS3PSed.h">
<polygon fill="white" stroke="black" points="1834.5,-0.5 1834.5,-19.5 1917.5,-19.5 1917.5,-0.5 1834.5,-0.5"/>
<text text-anchor="middle" x="1876" y="-7.5" font-family="Helvetica,sans-Serif" font-size="10.00">RANS3PSed.h</text>
</a>
</g>
</g>
<!-- Node1&#45;&gt;Node23 -->
<g id="edge22" class="edge"><title>Node1&#45;&gt;Node23</title>
<path fill="none" stroke="midnightblue" d="M1367.7,-61.8841C1461.13,-56.1049 1659.55,-42.2487 1826,-20 1828.71,-19.6377 1831.5,-19.2313 1834.3,-18.7965"/>
<polygon fill="midnightblue" stroke="midnightblue" points="1367.41,-58.3952 1357.64,-62.5 1367.83,-65.3821 1367.41,-58.3952"/>
</g>
<!-- Node24 -->
<g id="node24" class="node"><title>Node24</title>
<g id="a_node24"><a xlink:href="_r_a_n_s3_p_sed2_d_8h.html" target="_top" xlink:title="RANS3PSed2D.h">
<polygon fill="white" stroke="black" points="1936,-0.5 1936,-19.5 2032,-19.5 2032,-0.5 1936,-0.5"/>
<text text-anchor="middle" x="1984" y="-7.5" font-family="Helvetica,sans-Serif" font-size="10.00">RANS3PSed2D.h</text>
</a>
</g>
</g>
<!-- Node1&#45;&gt;Node24 -->
<g id="edge23" class="edge"><title>Node1&#45;&gt;Node24</title>
<path fill="none" stroke="midnightblue" d="M1367.8,-62.5604C1474.64,-57.382 1721.05,-43.7765 1927,-20 1929.89,-19.6668 1932.85,-19.2936 1935.84,-18.8937"/>
<polygon fill="midnightblue" stroke="midnightblue" points="1367.42,-59.0746 1357.6,-63.0497 1367.75,-66.0665 1367.42,-59.0746"/>
</g>
<!-- Node25 -->
<g id="node25" class="node"><title>Node25</title>
<g id="a_node25"><a xlink:href="_r_d_l_s_8h.html" target="_top" xlink:title="RDLS.h">
<polygon fill="white" stroke="black" points="2050.5,-0.5 2050.5,-19.5 2101.5,-19.5 2101.5,-0.5 2050.5,-0.5"/>
<text text-anchor="middle" x="2076" y="-7.5" font-family="Helvetica,sans-Serif" font-size="10.00">RDLS.h</text>
</a>
</g>
</g>
<!-- Node1&#45;&gt;Node25 -->
<g id="edge24" class="edge"><title>Node1&#45;&gt;Node25</title>
<path fill="none" stroke="midnightblue" d="M1367.86,-65.1481C1488.95,-64.7228 1791.59,-59.4201 2041,-20 2043.97,-19.5299 2047.06,-18.9196 2050.12,-18.2383"/>
<polygon fill="midnightblue" stroke="midnightblue" points="1367.74,-61.6483 1357.74,-65.1736 1367.75,-68.6483 1367.74,-61.6483"/>
</g>
<!-- Node26 -->
<g id="node26" class="node"><title>Node26</title>
<g id="a_node26"><a xlink:href="_s_w2_d_8h.html" target="_top" xlink:title="SW2D.h">
<polygon fill="white" stroke="black" points="2120,-0.5 2120,-19.5 2174,-19.5 2174,-0.5 2120,-0.5"/>
<text text-anchor="middle" x="2147" y="-7.5" font-family="Helvetica,sans-Serif" font-size="10.00">SW2D.h</text>
</a>
</g>
</g>
<!-- Node1&#45;&gt;Node26 -->
<g id="edge25" class="edge"><title>Node1&#45;&gt;Node26</title>
<path fill="none" stroke="midnightblue" d="M1367.96,-65.4465C1497.1,-65.7576 1833.85,-62.0827 2111,-20 2113.93,-19.5551 2116.97,-18.9795 2119.98,-18.3346"/>
<polygon fill="midnightblue" stroke="midnightblue" points="1367.94,-61.9465 1357.93,-65.4131 1367.92,-68.9465 1367.94,-61.9465"/>
</g>
<!-- Node27 -->
<g id="node27" class="node"><title>Node27</title>
<g id="a_node27"><a xlink:href="_s_w2_d_c_v_8h.html" target="_top" xlink:title="SW2DCV.h">
<polygon fill="white" stroke="black" points="2192,-0.5 2192,-19.5 2258,-19.5 2258,-0.5 2192,-0.5"/>
<text text-anchor="middle" x="2225" y="-7.5" font-family="Helvetica,sans-Serif" font-size="10.00">SW2DCV.h</text>
</a>
</g>
</g>
<!-- Node1&#45;&gt;Node27 -->
<g id="edge26" class="edge"><title>Node1&#45;&gt;Node27</title>
<path fill="none" stroke="midnightblue" d="M1367.83,-65.1847C1504.63,-65.011 1876.47,-60.5158 2183,-20 2185.81,-19.6287 2188.71,-19.1693 2191.61,-18.6562"/>
<polygon fill="midnightblue" stroke="midnightblue" points="1367.62,-61.6847 1357.63,-65.19 1367.63,-68.6847 1367.62,-61.6847"/>
</g>
<!-- Node28 -->
<g id="node28" class="node"><title>Node28</title>
<g id="a_node28"><a xlink:href="_v_o_f_8h.html" target="_top" xlink:title="VOF.h">
<polygon fill="white" stroke="black" points="2276,-0.5 2276,-19.5 2320,-19.5 2320,-0.5 2276,-0.5"/>
<text text-anchor="middle" x="2298" y="-7.5" font-family="Helvetica,sans-Serif" font-size="10.00">VOF.h</text>
</a>
</g>
</g>
<!-- Node1&#45;&gt;Node28 -->
<g id="edge27" class="edge"><title>Node1&#45;&gt;Node28</title>
<path fill="none" stroke="midnightblue" d="M1367.81,-64.1234C1542.41,-61.0176 2091.97,-49.1214 2267,-20 2269.87,-19.5217 2272.86,-18.8664 2275.79,-18.1257"/>
<polygon fill="midnightblue" stroke="midnightblue" points="1367.52,-60.6278 1357.59,-64.3028 1367.65,-67.6267 1367.52,-60.6278"/>
</g>
<!-- Node29 -->
<g id="node29" class="node"><title>Node29</title>
<g id="a_node29"><a xlink:href="_v_o_f3_p_8h.html" target="_top" xlink:title="VOF3P.h">
<polygon fill="white" stroke="black" points="2338,-0.5 2338,-19.5 2394,-19.5 2394,-0.5 2338,-0.5"/>
<text text-anchor="middle" x="2366" y="-7.5" font-family="Helvetica,sans-Serif" font-size="10.00">VOF3P.h</text>
</a>
</g>
</g>
<!-- Node1&#45;&gt;Node29 -->
<g id="edge28" class="edge"><title>Node1&#45;&gt;Node29</title>
<path fill="none" stroke="midnightblue" d="M1367.88,-63.9928C1549.86,-60.3745 2140.78,-46.8038 2329,-20 2331.88,-19.5899 2334.86,-19.0549 2337.83,-18.4501"/>
<polygon fill="midnightblue" stroke="midnightblue" points="1367.68,-60.496 1357.75,-64.1923 1367.82,-67.4946 1367.68,-60.496"/>
</g>
<!-- Node30 -->
<g id="node30" class="node"><title>Node30</title>
<g id="a_node30"><a xlink:href="_v_o_s3_p_8h.html" target="_top" xlink:title="VOS3P.h">
<polygon fill="white" stroke="black" points="2412.5,-0.5 2412.5,-19.5 2469.5,-19.5 2469.5,-0.5 2412.5,-0.5"/>
<text text-anchor="middle" x="2441" y="-7.5" font-family="Helvetica,sans-Serif" font-size="10.00">VOS3P.h</text>
</a>
</g>
</g>
<!-- Node1&#45;&gt;Node30 -->
<g id="edge29" class="edge"><title>Node1&#45;&gt;Node30</title>
<path fill="none" stroke="midnightblue" d="M1367.62,-64.1421C1557.79,-60.8876 2199.49,-48.0414 2403,-20 2406.09,-19.5743 2409.3,-19.011 2412.48,-18.3733"/>
<polygon fill="midnightblue" stroke="midnightblue" points="1367.53,-60.6431 1357.59,-64.3121 1367.64,-67.6421 1367.53,-60.6431"/>
</g>
<!-- Node31 -->
<g id="node31" class="node"><title>Node31</title>
<g id="a_node31"><a xlink:href="_richards_8h.html" target="_top" xlink:title="Richards.h">
<polygon fill="white" stroke="black" points="2488,-0.5 2488,-19.5 2554,-19.5 2554,-0.5 2488,-0.5"/>
<text text-anchor="middle" x="2521" y="-7.5" font-family="Helvetica,sans-Serif" font-size="10.00">Richards.h</text>
</a>
</g>
</g>
<!-- Node1&#45;&gt;Node31 -->
<g id="edge30" class="edge"><title>Node1&#45;&gt;Node31</title>
<path fill="none" stroke="midnightblue" d="M1367.97,-64.1516C1567.03,-60.8302 2259.75,-47.5168 2479,-20 2481.81,-19.6471 2484.71,-19.2007 2487.62,-18.6963"/>
<polygon fill="midnightblue" stroke="midnightblue" points="1367.71,-60.6554 1357.77,-64.3203 1367.83,-67.6544 1367.71,-60.6554"/>
</g>
</g>
</svg>
