<?xml version="1.0" encoding="UTF-8" standalone="no"?>
<!DOCTYPE svg PUBLIC "-//W3C//DTD SVG 1.1//EN"
 "http://www.w3.org/Graphics/SVG/1.1/DTD/svg11.dtd">
<!-- Generated by graphviz version 2.38.0 (20140413.2041)
 -->
<!-- Title: NCLS.h Pages: 1 -->
<svg width="308pt" height="140pt"
 viewBox="0.00 0.00 308.00 140.00" xmlns="http://www.w3.org/2000/svg" xmlns:xlink="http://www.w3.org/1999/xlink">
<g id="graph0" class="graph" transform="scale(1 1) rotate(0) translate(4 136)">
<title>NCLS.h</title>
<polygon fill="white" stroke="none" points="-4,4 -4,-136 304,-136 304,4 -4,4"/>
<!-- Node1 -->
<g id="node1" class="node"><title>Node1</title>
<polygon fill="#bfbfbf" stroke="black" points="119.5,-112.5 119.5,-131.5 171.5,-131.5 171.5,-112.5 119.5,-112.5"/>
<text text-anchor="middle" x="145.5" y="-119.5" font-family="Helvetica,sans-Serif" font-size="10.00">NCLS.h</text>
</g>
<!-- Node2 -->
<g id="node2" class="node"><title>Node2</title>
<polygon fill="white" stroke="#bfbfbf" points="0,-0.5 0,-19.5 47,-19.5 47,-0.5 0,-0.5"/>
<text text-anchor="middle" x="23.5" y="-7.5" font-family="Helvetica,sans-Serif" font-size="10.00">cmath</text>
</g>
<!-- Node1&#45;&gt;Node2 -->
<g id="edge1" class="edge"><title>Node1&#45;&gt;Node2</title>
<path fill="none" stroke="midnightblue" d="M119.463,-121.003C87.126,-119.43 33.1064,-111.283 7.5,-76 -2.59399,-62.0914 4.31197,-42.5629 11.9463,-28.5478"/>
<polygon fill="midnightblue" stroke="midnightblue" points="15.0124,-30.24 17.148,-19.8627 9.00712,-26.6433 15.0124,-30.24"/>
</g>
<!-- Node3 -->
<g id="node3" class="node"><title>Node3</title>
<polygon fill="white" stroke="#bfbfbf" points="241,-0.5 241,-19.5 300,-19.5 300,-0.5 241,-0.5"/>
<text text-anchor="middle" x="270.5" y="-7.5" font-family="Helvetica,sans-Serif" font-size="10.00">iostream</text>
</g>
<!-- Node1&#45;&gt;Node3 -->
<g id="edge2" class="edge"><title>Node1&#45;&gt;Node3</title>
<path fill="none" stroke="midnightblue" d="M171.692,-121.282C204.871,-120.049 260.919,-112.308 287.5,-76 297.689,-62.0826 290.435,-42.5554 282.489,-28.543"/>
<polygon fill="midnightblue" stroke="midnightblue" points="285.34,-26.4997 277.084,-19.8599 279.397,-30.1991 285.34,-26.4997"/>
</g>
<!-- Node4 -->
<g id="node4" class="node"><title>Node4</title>
<polygon fill="white" stroke="#bfbfbf" points="118,-56.5 118,-75.5 173,-75.5 173,-56.5 118,-56.5"/>
<text text-anchor="middle" x="145.5" y="-63.5" font-family="Helvetica,sans-Serif" font-size="10.00">valarray</text>
</g>
<!-- Node1&#45;&gt;Node4 -->
<g id="edge3" class="edge"><title>Node1&#45;&gt;Node4</title>
<path fill="none" stroke="midnightblue" d="M145.5,-112.083C145.5,-105.006 145.5,-94.8611 145.5,-85.9865"/>
<polygon fill="midnightblue" stroke="midnightblue" points="149,-85.751 145.5,-75.7511 142,-85.7511 149,-85.751"/>
</g>
<!-- Node5 -->
<g id="node5" class="node"><title>Node5</title>
<g id="a_node5"><a xlink:href="_comp_kernel_8h.html" target="_top" xlink:title="CompKernel.h">
<polygon fill="white" stroke="black" points="17,-56.5 17,-75.5 100,-75.5 100,-56.5 17,-56.5"/>
<text text-anchor="middle" x="58.5" y="-63.5" font-family="Helvetica,sans-Serif" font-size="10.00">CompKernel.h</text>
</a>
</g>
</g>
<!-- Node1&#45;&gt;Node5 -->
<g id="edge4" class="edge"><title>Node1&#45;&gt;Node5</title>
<path fill="none" stroke="midnightblue" d="M131.522,-112.324C117.95,-103.9 97.1198,-90.9709 81.175,-81.0741"/>
<polygon fill="midnightblue" stroke="midnightblue" points="82.7856,-77.9544 72.4434,-75.6545 79.094,-83.9019 82.7856,-77.9544"/>
</g>
<!-- Node6 -->
<g id="node6" class="node"><title>Node6</title>
<g id="a_node6"><a xlink:href="_model_factory_8h.html" target="_top" xlink:title="ModelFactory.h">
<polygon fill="white" stroke="black" points="191,-56.5 191,-75.5 278,-75.5 278,-56.5 191,-56.5"/>
<text text-anchor="middle" x="234.5" y="-63.5" font-family="Helvetica,sans-Serif" font-size="10.00">ModelFactory.h</text>
</a>
</g>
</g>
<!-- Node1&#45;&gt;Node6 -->
<g id="edge6" class="edge"><title>Node1&#45;&gt;Node6</title>
<path fill="none" stroke="midnightblue" d="M159.799,-112.324C173.683,-103.9 194.992,-90.9709 211.304,-81.0741"/>
<polygon fill="midnightblue" stroke="midnightblue" points="213.502,-83.8341 220.236,-75.6545 209.871,-77.8495 213.502,-83.8341"/>
</g>
<!-- Node5&#45;&gt;Node2 -->
<g id="edge5" class="edge"><title>Node5&#45;&gt;Node2</title>
<path fill="none" stroke="midnightblue" d="M52.7205,-56.083C47.8276,-48.5341 40.6726,-37.4948 34.6674,-28.2298"/>
<polygon fill="midnightblue" stroke="midnightblue" points="37.548,-26.239 29.172,-19.7511 31.674,-30.0463 37.548,-26.239"/>
</g>
<!-- Node6&#45;&gt;Node3 -->
<g id="edge7" class="edge"><title>Node6&#45;&gt;Node3</title>
<path fill="none" stroke="midnightblue" d="M240.445,-56.083C245.477,-48.5341 252.837,-37.4948 259.013,-28.2298"/>
<polygon fill="midnightblue" stroke="midnightblue" points="262.031,-30.0131 264.666,-19.7511 256.207,-26.1301 262.031,-30.0131"/>
</g>
</g>
</svg>
