<?xml version="1.0" encoding="UTF-8" standalone="no"?>
<!DOCTYPE svg PUBLIC "-//W3C//DTD SVG 1.1//EN"
 "http://www.w3.org/Graphics/SVG/1.1/DTD/svg11.dtd">
<!-- Generated by graphviz version 2.38.0 (20140413.2041)
 -->
<!-- Title: ProtChMoorings.h Pages: 1 -->
<svg width="3285pt" height="95pt"
 viewBox="0.00 0.00 3284.50 95.00" xmlns="http://www.w3.org/2000/svg" xmlns:xlink="http://www.w3.org/1999/xlink">
<g id="graph0" class="graph" transform="scale(1 1) rotate(0) translate(4 91)">
<title>ProtChMoorings.h</title>
<polygon fill="white" stroke="none" points="-4,4 -4,-91 3280.5,-91 3280.5,4 -4,4"/>
<!-- Node1 -->
<g id="node1" class="node"><title>Node1</title>
<polygon fill="#bfbfbf" stroke="black" points="1478,-67.5 1478,-86.5 1579,-86.5 1579,-67.5 1478,-67.5"/>
<text text-anchor="middle" x="1528.5" y="-74.5" font-family="Helvetica,sans-Serif" font-size="10.00">ProtChMoorings.h</text>
</g>
<!-- Node2 -->
<g id="node2" class="node"><title>Node2</title>
<polygon fill="white" stroke="#bfbfbf" points="0,-6 0,-25 59,-25 59,-6 0,-6"/>
<text text-anchor="middle" x="29.5" y="-13" font-family="Helvetica,sans-Serif" font-size="10.00">iostream</text>
</g>
<!-- Node1&#45;&gt;Node2 -->
<g id="edge1" class="edge"><title>Node1&#45;&gt;Node2</title>
<path fill="none" stroke="midnightblue" d="M1477.6,-75.4369C1235.67,-72.6252 207.853,-59.109 67.5,-31 64.2459,-30.3483 60.9057,-29.4471 57.6209,-28.4101"/>
<polygon fill="midnightblue" stroke="midnightblue" points="58.6682,-25.0677 48.0735,-25.0048 56.3166,-31.6609 58.6682,-25.0677"/>
</g>
<!-- Node3 -->
<g id="node3" class="node"><title>Node3</title>
<polygon fill="white" stroke="#bfbfbf" points="77,-6 77,-25 128,-25 128,-6 77,-6"/>
<text text-anchor="middle" x="102.5" y="-13" font-family="Helvetica,sans-Serif" font-size="10.00">math.h</text>
</g>
<!-- Node1&#45;&gt;Node3 -->
<g id="edge2" class="edge"><title>Node1&#45;&gt;Node3</title>
<path fill="none" stroke="midnightblue" d="M1477.7,-75.4369C1243.11,-72.6907 270.279,-59.6549 137.5,-31 134.667,-30.3886 131.773,-29.5582 128.921,-28.6021"/>
<polygon fill="midnightblue" stroke="midnightblue" points="130.138,-25.3203 119.548,-25.0039 127.63,-31.8553 130.138,-25.3203"/>
</g>
<!-- Node4 -->
<g id="node4" class="node"><title>Node4</title>
<polygon fill="white" stroke="#bfbfbf" points="146.5,-6 146.5,-25 190.5,-25 190.5,-6 146.5,-6"/>
<text text-anchor="middle" x="168.5" y="-13" font-family="Helvetica,sans-Serif" font-size="10.00">string</text>
</g>
<!-- Node1&#45;&gt;Node4 -->
<g id="edge3" class="edge"><title>Node1&#45;&gt;Node4</title>
<path fill="none" stroke="midnightblue" d="M1477.62,-75.5238C1249.22,-73.2176 324.179,-62.0254 198.5,-31 196.52,-30.5113 194.517,-29.8822 192.534,-29.1608"/>
<polygon fill="midnightblue" stroke="midnightblue" points="193.56,-25.7898 182.994,-25.0051 190.764,-32.2074 193.56,-25.7898"/>
</g>
<!-- Node5 -->
<g id="node5" class="node"><title>Node5</title>
<polygon fill="white" stroke="#bfbfbf" points="208,-6 208,-25 357,-25 357,-6 208,-6"/>
<text text-anchor="middle" x="282.5" y="-13" font-family="Helvetica,sans-Serif" font-size="10.00">chrono/physics/ChSystem.h</text>
</g>
<!-- Node1&#45;&gt;Node5 -->
<g id="edge4" class="edge"><title>Node1&#45;&gt;Node5</title>
<path fill="none" stroke="midnightblue" d="M1477.88,-76.4617C1315.62,-77.425 793.985,-76.5095 365.5,-31 355.572,-29.9456 345.039,-28.4228 334.928,-26.7563"/>
<polygon fill="midnightblue" stroke="midnightblue" points="335.444,-23.2937 324.996,-25.0539 334.261,-30.1931 335.444,-23.2937"/>
</g>
<!-- Node6 -->
<g id="node6" class="node"><title>Node6</title>
<polygon fill="white" stroke="#bfbfbf" points="375,-6 375,-25 546,-25 546,-6 375,-6"/>
<text text-anchor="middle" x="460.5" y="-13" font-family="Helvetica,sans-Serif" font-size="10.00">chrono/physics/ChSystemSMC.h</text>
</g>
<!-- Node1&#45;&gt;Node6 -->
<g id="edge5" class="edge"><title>Node1&#45;&gt;Node6</title>
<path fill="none" stroke="midnightblue" d="M1477.98,-75.5363C1333.67,-73.8087 907.413,-65.8965 555.5,-31 543.943,-29.854 531.647,-28.2591 519.869,-26.5442"/>
<polygon fill="midnightblue" stroke="midnightblue" points="520.091,-23.0385 509.682,-25.0146 519.052,-29.9609 520.091,-23.0385"/>
</g>
<!-- Node7 -->
<g id="node7" class="node"><title>Node7</title>
<polygon fill="white" stroke="#bfbfbf" points="564.5,-6 564.5,-25 746.5,-25 746.5,-6 564.5,-6"/>
<text text-anchor="middle" x="655.5" y="-13" font-family="Helvetica,sans-Serif" font-size="10.00">chrono/physics/ChLoadContainer.h</text>
</g>
<!-- Node1&#45;&gt;Node7 -->
<g id="edge6" class="edge"><title>Node1&#45;&gt;Node7</title>
<path fill="none" stroke="midnightblue" d="M1477.73,-74.5529C1353.98,-70.6971 1027,-58.5348 755.5,-31 743.501,-29.7831 730.735,-28.174 718.478,-26.4712"/>
<polygon fill="midnightblue" stroke="midnightblue" points="718.725,-22.9711 708.331,-25.0253 717.737,-29.9011 718.725,-22.9711"/>
</g>
<!-- Node8 -->
<g id="node8" class="node"><title>Node8</title>
<polygon fill="white" stroke="#bfbfbf" points="765,-6 765,-25 920,-25 920,-6 765,-6"/>
<text text-anchor="middle" x="842.5" y="-13" font-family="Helvetica,sans-Serif" font-size="10.00">chrono/physics/ChLinkMate.h</text>
</g>
<!-- Node1&#45;&gt;Node8 -->
<g id="edge7" class="edge"><title>Node1&#45;&gt;Node8</title>
<path fill="none" stroke="midnightblue" d="M1477.86,-73.7397C1374.5,-68.7862 1131.91,-55.4203 929.5,-31 919.581,-29.8032 909.066,-28.2746 898.903,-26.6609"/>
<polygon fill="midnightblue" stroke="midnightblue" points="899.327,-23.1838 888.894,-25.0281 898.2,-30.0925 899.327,-23.1838"/>
</g>
<!-- Node9 -->
<g id="node9" class="node"><title>Node9</title>
<polygon fill="white" stroke="#bfbfbf" points="938.5,-6 938.5,-25 1096.5,-25 1096.5,-6 938.5,-6"/>
<text text-anchor="middle" x="1017.5" y="-13" font-family="Helvetica,sans-Serif" font-size="10.00">chrono/physics/ChBodyEasy.h</text>
</g>
<!-- Node1&#45;&gt;Node9 -->
<g id="edge8" class="edge"><title>Node1&#45;&gt;Node9</title>
<path fill="none" stroke="midnightblue" d="M1477.92,-71.5645C1398.47,-64.3833 1239.61,-49.167 1105.5,-31 1096.05,-29.7196 1086.05,-28.2158 1076.31,-26.6703"/>
<polygon fill="midnightblue" stroke="midnightblue" points="1076.73,-23.192 1066.3,-25.0522 1075.61,-30.1024 1076.73,-23.192"/>
</g>
<!-- Node10 -->
<g id="node10" class="node"><title>Node10</title>
<polygon fill="white" stroke="#bfbfbf" points="1114.5,-0.5 1114.5,-30.5 1266.5,-30.5 1266.5,-0.5 1114.5,-0.5"/>
<text text-anchor="start" x="1122.5" y="-18.5" font-family="Helvetica,sans-Serif" font-size="10.00">chrono/fea/ChElementBeam</text>
<text text-anchor="middle" x="1190.5" y="-7.5" font-family="Helvetica,sans-Serif" font-size="10.00">ANCF.h</text>
</g>
<!-- Node1&#45;&gt;Node10 -->
<g id="edge9" class="edge"><title>Node1&#45;&gt;Node10</title>
<path fill="none" stroke="midnightblue" d="M1480.07,-67.4751C1427.14,-58.1569 1341.28,-43.0419 1276.76,-31.6856"/>
<polygon fill="midnightblue" stroke="midnightblue" points="1277.06,-28.1835 1266.6,-29.8967 1275.84,-35.0775 1277.06,-28.1835"/>
</g>
<!-- Node11 -->
<g id="node11" class="node"><title>Node11</title>
<polygon fill="white" stroke="#bfbfbf" points="1284.5,-0.5 1284.5,-30.5 1434.5,-30.5 1434.5,-0.5 1284.5,-0.5"/>
<text text-anchor="start" x="1292.5" y="-18.5" font-family="Helvetica,sans-Serif" font-size="10.00">chrono/fea/ChElementCable</text>
<text text-anchor="middle" x="1359.5" y="-7.5" font-family="Helvetica,sans-Serif" font-size="10.00">ANCF.h</text>
</g>
<!-- Node1&#45;&gt;Node11 -->
<g id="edge10" class="edge"><title>Node1&#45;&gt;Node11</title>
<path fill="none" stroke="midnightblue" d="M1504.29,-67.4751C1479.47,-58.7388 1440.19,-44.9073 1408.79,-33.855"/>
<polygon fill="midnightblue" stroke="midnightblue" points="1409.92,-30.5426 1399.33,-30.523 1407.6,-37.1453 1409.92,-30.5426"/>
</g>
<!-- Node12 -->
<g id="node12" class="node"><title>Node12</title>
<polygon fill="white" stroke="#bfbfbf" points="1452.5,-0.5 1452.5,-30.5 1604.5,-30.5 1604.5,-0.5 1452.5,-0.5"/>
<text text-anchor="start" x="1460.5" y="-18.5" font-family="Helvetica,sans-Serif" font-size="10.00">chrono/fea/ChElementBeam</text>
<text text-anchor="middle" x="1528.5" y="-7.5" font-family="Helvetica,sans-Serif" font-size="10.00">Euler.h</text>
</g>
<!-- Node1&#45;&gt;Node12 -->
<g id="edge11" class="edge"><title>Node1&#45;&gt;Node12</title>
<path fill="none" stroke="midnightblue" d="M1528.5,-67.4751C1528.5,-60.471 1528.5,-50.1919 1528.5,-40.6956"/>
<polygon fill="midnightblue" stroke="midnightblue" points="1532,-40.5229 1528.5,-30.523 1525,-40.523 1532,-40.5229"/>
</g>
<!-- Node13 -->
<g id="node13" class="node"><title>Node13</title>
<polygon fill="white" stroke="#bfbfbf" points="1623,-6 1623,-25 1780,-25 1780,-6 1623,-6"/>
<text text-anchor="middle" x="1701.5" y="-13" font-family="Helvetica,sans-Serif" font-size="10.00">chrono/fea/ChBeamSection.h</text>
</g>
<!-- Node1&#45;&gt;Node13 -->
<g id="edge12" class="edge"><title>Node1&#45;&gt;Node13</title>
<path fill="none" stroke="midnightblue" d="M1553.29,-67.4751C1583.09,-57.2246 1633.29,-39.9593 1666.9,-28.3994"/>
<polygon fill="midnightblue" stroke="midnightblue" points="1668.44,-31.5712 1676.76,-25.0091 1666.16,-24.9518 1668.44,-31.5712"/>
</g>
<!-- Node14 -->
<g id="node14" class="node"><title>Node14</title>
<polygon fill="white" stroke="#bfbfbf" points="1798.5,-6 1798.5,-25 1916.5,-25 1916.5,-6 1798.5,-6"/>
<text text-anchor="middle" x="1857.5" y="-13" font-family="Helvetica,sans-Serif" font-size="10.00">chrono/fea/ChMesh.h</text>
</g>
<!-- Node1&#45;&gt;Node14 -->
<g id="edge13" class="edge"><title>Node1&#45;&gt;Node14</title>
<path fill="none" stroke="midnightblue" d="M1579.13,-67.8768C1631.79,-59.2855 1716.58,-45.0546 1789.5,-31 1795.72,-29.8006 1802.25,-28.4833 1808.7,-27.1469"/>
<polygon fill="midnightblue" stroke="midnightblue" points="1809.65,-30.5247 1818.72,-25.0454 1808.21,-23.6739 1809.65,-30.5247"/>
</g>
<!-- Node15 -->
<g id="node15" class="node"><title>Node15</title>
<polygon fill="white" stroke="#bfbfbf" points="1935,-6 1935,-25 2094,-25 2094,-6 1935,-6"/>
<text text-anchor="middle" x="2014.5" y="-13" font-family="Helvetica,sans-Serif" font-size="10.00">chrono/fea/ChLinkPointPoint.h</text>
</g>
<!-- Node1&#45;&gt;Node15 -->
<g id="edge14" class="edge"><title>Node1&#45;&gt;Node15</title>
<path fill="none" stroke="midnightblue" d="M1579.05,-71.0657C1654.57,-63.5131 1801.3,-48.146 1925.5,-31 1934.94,-29.697 1944.92,-28.1941 1954.65,-26.6599"/>
<polygon fill="midnightblue" stroke="midnightblue" points="1955.35,-30.093 1964.67,-25.0569 1954.24,-23.1809 1955.35,-30.093"/>
</g>
<!-- Node16 -->
<g id="node16" class="node"><title>Node16</title>
<polygon fill="white" stroke="#bfbfbf" points="2112,-6 2112,-25 2277,-25 2277,-6 2112,-6"/>
<text text-anchor="middle" x="2194.5" y="-13" font-family="Helvetica,sans-Serif" font-size="10.00">chrono/fea/ChLinkPointFrame.h</text>
</g>
<!-- Node1&#45;&gt;Node16 -->
<g id="edge15" class="edge"><title>Node1&#45;&gt;Node16</title>
<path fill="none" stroke="midnightblue" d="M1579.01,-73.4072C1679.26,-67.9613 1910.35,-53.9095 2103.5,-31 2113.85,-29.772 2124.83,-28.2295 2135.45,-26.6122"/>
<polygon fill="midnightblue" stroke="midnightblue" points="2136.14,-30.0464 2145.48,-25.0465 2135.06,-23.1301 2136.14,-30.0464"/>
</g>
<!-- Node17 -->
<g id="node17" class="node"><title>Node17</title>
<polygon fill="white" stroke="#bfbfbf" points="2295,-6 2295,-25 2450,-25 2450,-6 2295,-6"/>
<text text-anchor="middle" x="2372.5" y="-13" font-family="Helvetica,sans-Serif" font-size="10.00">chrono/fea/ChLinkDirFrame.h</text>
</g>
<!-- Node1&#45;&gt;Node17 -->
<g id="edge16" class="edge"><title>Node1&#45;&gt;Node17</title>
<path fill="none" stroke="midnightblue" d="M1579.23,-74.8752C1701.35,-71.7566 2021.25,-61.1455 2286.5,-31 2296.54,-29.8587 2307.19,-28.3268 2317.46,-26.6855"/>
<polygon fill="midnightblue" stroke="midnightblue" points="2318.25,-30.1012 2327.55,-25.0182 2317.11,-23.1948 2318.25,-30.1012"/>
</g>
<!-- Node18 -->
<g id="node18" class="node"><title>Node18</title>
<polygon fill="white" stroke="#bfbfbf" points="2468,-6 2468,-25 2617,-25 2617,-6 2468,-6"/>
<text text-anchor="middle" x="2542.5" y="-13" font-family="Helvetica,sans-Serif" font-size="10.00">chrono/fea/ChLoadsBeam.h</text>
</g>
<!-- Node1&#45;&gt;Node18 -->
<g id="edge17" class="edge"><title>Node1&#45;&gt;Node18</title>
<path fill="none" stroke="midnightblue" d="M1579.14,-75.7663C1719.45,-74.6417 2124.97,-68.1592 2459.5,-31 2469.21,-29.9213 2479.51,-28.4183 2489.42,-26.7859"/>
<polygon fill="midnightblue" stroke="midnightblue" points="2490.3,-30.1858 2499.57,-25.0503 2489.12,-23.2859 2490.3,-30.1858"/>
</g>
<!-- Node19 -->
<g id="node19" class="node"><title>Node19</title>
<polygon fill="white" stroke="#bfbfbf" points="2634.5,-0.5 2634.5,-30.5 2792.5,-30.5 2792.5,-0.5 2634.5,-0.5"/>
<text text-anchor="start" x="2642.5" y="-18.5" font-family="Helvetica,sans-Serif" font-size="10.00">chrono/fea/ChContactSurface</text>
<text text-anchor="middle" x="2713.5" y="-7.5" font-family="Helvetica,sans-Serif" font-size="10.00">NodeCloud.h</text>
</g>
<!-- Node1&#45;&gt;Node19 -->
<g id="edge18" class="edge"><title>Node1&#45;&gt;Node19</title>
<path fill="none" stroke="midnightblue" d="M1579,-76.1564C1733.91,-76.1634 2216.09,-72.667 2624.14,-31.1666"/>
<polygon fill="midnightblue" stroke="midnightblue" points="2624.78,-34.6193 2634.37,-30.1165 2624.07,-27.6559 2624.78,-34.6193"/>
</g>
<!-- Node20 -->
<g id="node20" class="node"><title>Node20</title>
<polygon fill="white" stroke="#bfbfbf" points="2810,-0.5 2810,-30.5 2921,-30.5 2921,-0.5 2810,-0.5"/>
<text text-anchor="start" x="2818" y="-18.5" font-family="Helvetica,sans-Serif" font-size="10.00">chrono/timestepper</text>
<text text-anchor="middle" x="2865.5" y="-7.5" font-family="Helvetica,sans-Serif" font-size="10.00">/ChTimestepper.h</text>
</g>
<!-- Node1&#45;&gt;Node20 -->
<g id="edge19" class="edge"><title>Node1&#45;&gt;Node20</title>
<path fill="none" stroke="midnightblue" d="M1579.09,-75.4782C1782.07,-73.1914 2538.58,-62.7678 2799.57,-31.0569"/>
<polygon fill="midnightblue" stroke="midnightblue" points="2800.28,-34.4955 2809.76,-29.7745 2799.4,-27.5503 2800.28,-34.4955"/>
</g>
<!-- Node21 -->
<g id="node21" class="node"><title>Node21</title>
<polygon fill="white" stroke="#bfbfbf" points="2939,-6 2939,-25 3112,-25 3112,-6 2939,-6"/>
<text text-anchor="middle" x="3025.5" y="-13" font-family="Helvetica,sans-Serif" font-size="10.00">chrono/solver/ChSolverMINRES.h</text>
</g>
<!-- Node1&#45;&gt;Node21 -->
<g id="edge20" class="edge"><title>Node1&#45;&gt;Node21</title>
<path fill="none" stroke="midnightblue" d="M1579.27,-75.1839C1797.91,-71.5442 2660.26,-55.8709 2930.5,-31 2942.31,-29.913 2954.89,-28.3114 2966.9,-26.5649"/>
<polygon fill="midnightblue" stroke="midnightblue" points="2967.45,-30.0209 2976.82,-25.0719 2966.41,-23.0988 2967.45,-30.0209"/>
</g>
<!-- Node22 -->
<g id="node22" class="node"><title>Node22</title>
<polygon fill="white" stroke="#bfbfbf" points="3130.5,-6 3130.5,-25 3276.5,-25 3276.5,-6 3130.5,-6"/>
<text text-anchor="middle" x="3203.5" y="-13" font-family="Helvetica,sans-Serif" font-size="10.00">chrono/core/ChTransform.h</text>
</g>
<!-- Node1&#45;&gt;Node22 -->
<g id="edge21" class="edge"><title>Node1&#45;&gt;Node22</title>
<path fill="none" stroke="midnightblue" d="M1579.3,-75.5694C1815.95,-73.4094 2811.85,-62.5788 3121.5,-31 3131.42,-29.9879 3141.96,-28.4681 3152.05,-26.7876"/>
<polygon fill="midnightblue" stroke="midnightblue" points="3152.7,-30.227 3161.95,-25.0666 3151.5,-23.3303 3152.7,-30.227"/>
</g>
</g>
</svg>
