<?xml version="1.0" encoding="UTF-8" standalone="no"?>
<!DOCTYPE svg PUBLIC "-//W3C//DTD SVG 1.1//EN"
 "http://www.w3.org/Graphics/SVG/1.1/DTD/svg11.dtd">
<!-- Generated by graphviz version 2.38.0 (20140413.2041)
 -->
<!-- Title: SW2DCV.h Pages: 1 -->
<svg width="421pt" height="140pt"
 viewBox="0.00 0.00 421.00 140.00" xmlns="http://www.w3.org/2000/svg" xmlns:xlink="http://www.w3.org/1999/xlink">
<g id="graph0" class="graph" transform="scale(1 1) rotate(0) translate(4 136)">
<title>SW2DCV.h</title>
<polygon fill="white" stroke="none" points="-4,4 -4,-136 417,-136 417,4 -4,4"/>
<!-- Node1 -->
<g id="node1" class="node"><title>Node1</title>
<polygon fill="#bfbfbf" stroke="black" points="186.5,-112.5 186.5,-131.5 252.5,-131.5 252.5,-112.5 186.5,-112.5"/>
<text text-anchor="middle" x="219.5" y="-119.5" font-family="Helvetica,sans-Serif" font-size="10.00">SW2DCV.h</text>
</g>
<!-- Node2 -->
<g id="node2" class="node"><title>Node2</title>
<g id="a_node2"><a xlink:href="_comp_kernel_8h.html" target="_top" xlink:title="CompKernel.h">
<polygon fill="white" stroke="black" points="0,-56.5 0,-75.5 83,-75.5 83,-56.5 0,-56.5"/>
<text text-anchor="middle" x="41.5" y="-63.5" font-family="Helvetica,sans-Serif" font-size="10.00">CompKernel.h</text>
</a>
</g>
</g>
<!-- Node1&#45;&gt;Node2 -->
<g id="edge1" class="edge"><title>Node1&#45;&gt;Node2</title>
<path fill="none" stroke="midnightblue" d="M191.295,-112.444C161.09,-103.28 112.989,-88.6876 79.4707,-78.5192"/>
<polygon fill="midnightblue" stroke="midnightblue" points="80.1581,-75.0703 69.5727,-75.5164 78.1259,-81.7688 80.1581,-75.0703"/>
</g>
<!-- Node3 -->
<g id="node3" class="node"><title>Node3</title>
<polygon fill="white" stroke="#bfbfbf" points="53,-0.5 53,-19.5 100,-19.5 100,-0.5 53,-0.5"/>
<text text-anchor="middle" x="76.5" y="-7.5" font-family="Helvetica,sans-Serif" font-size="10.00">cmath</text>
</g>
<!-- Node1&#45;&gt;Node3 -->
<g id="edge6" class="edge"><title>Node1&#45;&gt;Node3</title>
<path fill="none" stroke="midnightblue" d="M196.427,-112.414C177.515,-104.684 150.675,-92.0779 130.5,-76 113.182,-62.1995 97.5138,-42.0767 87.5698,-27.8844"/>
<polygon fill="midnightblue" stroke="midnightblue" points="90.4162,-25.8458 81.902,-19.5404 84.6258,-29.7791 90.4162,-25.8458"/>
</g>
<!-- Node4 -->
<g id="node4" class="node"><title>Node4</title>
<g id="a_node4"><a xlink:href="_model_factory_8h.html" target="_top" xlink:title="ModelFactory.h">
<polygon fill="white" stroke="black" points="140,-56.5 140,-75.5 227,-75.5 227,-56.5 140,-56.5"/>
<text text-anchor="middle" x="183.5" y="-63.5" font-family="Helvetica,sans-Serif" font-size="10.00">ModelFactory.h</text>
</a>
</g>
</g>
<!-- Node1&#45;&gt;Node4 -->
<g id="edge3" class="edge"><title>Node1&#45;&gt;Node4</title>
<path fill="none" stroke="midnightblue" d="M213.555,-112.083C208.523,-104.534 201.163,-93.4948 194.987,-84.2298"/>
<polygon fill="midnightblue" stroke="midnightblue" points="197.793,-82.1301 189.334,-75.7511 191.969,-86.0131 197.793,-82.1301"/>
</g>
<!-- Node5 -->
<g id="node5" class="node"><title>Node5</title>
<polygon fill="white" stroke="#bfbfbf" points="190,-0.5 190,-19.5 249,-19.5 249,-0.5 190,-0.5"/>
<text text-anchor="middle" x="219.5" y="-7.5" font-family="Helvetica,sans-Serif" font-size="10.00">iostream</text>
</g>
<!-- Node1&#45;&gt;Node5 -->
<g id="edge7" class="edge"><title>Node1&#45;&gt;Node5</title>
<path fill="none" stroke="midnightblue" d="M223.866,-112.307C228.059,-103.437 234.1,-89.1449 236.5,-76 239.443,-59.8836 234.039,-41.8858 228.562,-28.9223"/>
<polygon fill="midnightblue" stroke="midnightblue" points="231.688,-27.3427 224.311,-19.7372 225.335,-30.2825 231.688,-27.3427"/>
</g>
<!-- Node6 -->
<g id="node6" class="node"><title>Node6</title>
<polygon fill="white" stroke="#bfbfbf" points="283.5,-56.5 283.5,-75.5 339.5,-75.5 339.5,-56.5 283.5,-56.5"/>
<text text-anchor="middle" x="311.5" y="-63.5" font-family="Helvetica,sans-Serif" font-size="10.00">assert.h</text>
</g>
<!-- Node1&#45;&gt;Node6 -->
<g id="edge5" class="edge"><title>Node1&#45;&gt;Node6</title>
<path fill="none" stroke="midnightblue" d="M234.281,-112.324C248.767,-103.822 271.073,-90.7288 287.993,-80.7975"/>
<polygon fill="midnightblue" stroke="midnightblue" points="289.903,-83.735 296.755,-75.6545 286.359,-77.6981 289.903,-83.735"/>
</g>
<!-- Node7 -->
<g id="node7" class="node"><title>Node7</title>
<polygon fill="white" stroke="#bfbfbf" points="358,-56.5 358,-75.5 413,-75.5 413,-56.5 358,-56.5"/>
<text text-anchor="middle" x="385.5" y="-63.5" font-family="Helvetica,sans-Serif" font-size="10.00">valarray</text>
</g>
<!-- Node1&#45;&gt;Node7 -->
<g id="edge8" class="edge"><title>Node1&#45;&gt;Node7</title>
<path fill="none" stroke="midnightblue" d="M245.803,-112.444C273.851,-103.32 318.444,-88.8133 349.684,-78.6509"/>
<polygon fill="midnightblue" stroke="midnightblue" points="350.893,-81.9383 359.32,-75.5164 348.728,-75.2816 350.893,-81.9383"/>
</g>
<!-- Node2&#45;&gt;Node3 -->
<g id="edge2" class="edge"><title>Node2&#45;&gt;Node3</title>
<path fill="none" stroke="midnightblue" d="M47.2795,-56.083C52.1724,-48.5341 59.3274,-37.4948 65.3326,-28.2298"/>
<polygon fill="midnightblue" stroke="midnightblue" points="68.326,-30.0463 70.828,-19.7511 62.452,-26.239 68.326,-30.0463"/>
</g>
<!-- Node4&#45;&gt;Node5 -->
<g id="edge4" class="edge"><title>Node4&#45;&gt;Node5</title>
<path fill="none" stroke="midnightblue" d="M189.445,-56.083C194.477,-48.5341 201.837,-37.4948 208.013,-28.2298"/>
<polygon fill="midnightblue" stroke="midnightblue" points="211.031,-30.0131 213.666,-19.7511 205.207,-26.1301 211.031,-30.0131"/>
</g>
</g>
</svg>
