<?xml version="1.0" encoding="UTF-8" standalone="no"?>
<!DOCTYPE svg PUBLIC "-//W3C//DTD SVG 1.1//EN"
 "http://www.w3.org/Graphics/SVG/1.1/DTD/svg11.dtd">
<!-- Generated by graphviz version 2.38.0 (20140413.2041)
 -->
<!-- Title: SubsurfaceTransportCoefficients.h Pages: 1 -->
<svg width="372pt" height="140pt"
 viewBox="0.00 0.00 372.00 140.00" xmlns="http://www.w3.org/2000/svg" xmlns:xlink="http://www.w3.org/1999/xlink">
<g id="graph0" class="graph" transform="scale(1 1) rotate(0) translate(4 136)">
<title>SubsurfaceTransportCoefficients.h</title>
<polygon fill="white" stroke="none" points="-4,4 -4,-136 368,-136 368,4 -4,4"/>
<!-- Node1 -->
<g id="node1" class="node"><title>Node1</title>
<polygon fill="#bfbfbf" stroke="black" points="41,-112.5 41,-131.5 220,-131.5 220,-112.5 41,-112.5"/>
<text text-anchor="middle" x="130.5" y="-119.5" font-family="Helvetica,sans-Serif" font-size="10.00">SubsurfaceTransportCoefficients.h</text>
</g>
<!-- Node2 -->
<g id="node2" class="node"><title>Node2</title>
<g id="a_node2"><a xlink:href="psk_relations_8h.html" target="_top" xlink:title="pskRelations.h">
<polygon fill="white" stroke="black" points="124,-56.5 124,-75.5 209,-75.5 209,-56.5 124,-56.5"/>
<text text-anchor="middle" x="166.5" y="-63.5" font-family="Helvetica,sans-Serif" font-size="10.00">pskRelations.h</text>
</a>
</g>
</g>
<!-- Node1&#45;&gt;Node2 -->
<g id="edge1" class="edge"><title>Node1&#45;&gt;Node2</title>
<path fill="none" stroke="midnightblue" d="M142.123,-103.566C148.317,-94.2747 155.668,-83.2484 160.666,-75.7511"/>
<polygon fill="midnightblue" stroke="midnightblue" points="139.08,-101.821 136.445,-112.083 144.904,-105.704 139.08,-101.821"/>
</g>
<!-- Node3 -->
<g id="node3" class="node"><title>Node3</title>
<g id="a_node3"><a xlink:href="_subsurface_transport_coefficients_8cpp.html" target="_top" xlink:title="SubsurfaceTransportCoefficients.cpp">
<polygon fill="white" stroke="black" points="0,-0.5 0,-19.5 191,-19.5 191,-0.5 0,-0.5"/>
<text text-anchor="middle" x="95.5" y="-7.5" font-family="Helvetica,sans-Serif" font-size="10.00">SubsurfaceTransportCoefficients.cpp</text>
</a>
</g>
</g>
<!-- Node1&#45;&gt;Node3 -->
<g id="edge4" class="edge"><title>Node1&#45;&gt;Node3</title>
<path fill="none" stroke="midnightblue" d="M123.773,-102.829C120.819,-94.6643 117.376,-84.886 114.5,-76 108.056,-56.0894 101.388,-32.4421 97.9221,-19.8804"/>
<polygon fill="midnightblue" stroke="midnightblue" points="120.56,-104.236 127.285,-112.423 127.134,-101.829 120.56,-104.236"/>
</g>
<!-- Node2&#45;&gt;Node3 -->
<g id="edge2" class="edge"><title>Node2&#45;&gt;Node3</title>
<path fill="none" stroke="midnightblue" d="M146.91,-50.1008C134.132,-40.3824 117.887,-28.0269 107.115,-19.8339"/>
<polygon fill="midnightblue" stroke="midnightblue" points="145.014,-53.0561 155.093,-56.324 149.252,-47.4844 145.014,-53.0561"/>
</g>
<!-- Node4 -->
<g id="node4" class="node"><title>Node4</title>
<g id="a_node4"><a xlink:href="twophase_darcy_coefficients_8h.html" target="_top" xlink:title="twophaseDarcyCoefficients.h">
<polygon fill="white" stroke="black" points="209,-0.5 209,-19.5 364,-19.5 364,-0.5 209,-0.5"/>
<text text-anchor="middle" x="286.5" y="-7.5" font-family="Helvetica,sans-Serif" font-size="10.00">twophaseDarcyCoefficients.h</text>
</a>
</g>
</g>
<!-- Node2&#45;&gt;Node4 -->
<g id="edge3" class="edge"><title>Node2&#45;&gt;Node4</title>
<path fill="none" stroke="midnightblue" d="M194.873,-52.2321C217.32,-42.1312 248.035,-28.3091 267.575,-19.5164"/>
<polygon fill="midnightblue" stroke="midnightblue" points="193.197,-49.1481 185.514,-56.4435 196.07,-55.5316 193.197,-49.1481"/>
</g>
</g>
</svg>
