<?xml version="1.0" encoding="UTF-8" standalone="no"?>
<!DOCTYPE svg PUBLIC "-//W3C//DTD SVG 1.1//EN"
 "http://www.w3.org/Graphics/SVG/1.1/DTD/svg11.dtd">
<!-- Generated by graphviz version 2.38.0 (20140413.2041)
 -->
<!-- Title: PiecewiseLinearComplexDomain Pages: 1 -->
<svg width="731pt" height="294pt"
 viewBox="0.00 0.00 731.00 293.50" xmlns="http://www.w3.org/2000/svg" xmlns:xlink="http://www.w3.org/1999/xlink">
<g id="graph0" class="graph" transform="scale(1 1) rotate(0) translate(4 289.5)">
<title>PiecewiseLinearComplexDomain</title>
<polygon fill="white" stroke="none" points="-4,4 -4,-289.5 727,-289.5 727,4 -4,4"/>
<!-- Node1 -->
<g id="node1" class="node"><title>Node1</title>
<polygon fill="#bfbfbf" stroke="black" points="552,-130.5 552,-149.5 723,-149.5 723,-130.5 552,-130.5"/>
<text text-anchor="middle" x="637.5" y="-137.5" font-family="Helvetica,sans-Serif" font-size="10.00">PiecewiseLinearComplexDomain</text>
</g>
<!-- Node2 -->
<g id="node2" class="node"><title>Node2</title>
<g id="a_node2"><a xlink:href="class_d__base.html" target="_top" xlink:title="D_base">
<polygon fill="white" stroke="black" points="367,-243.5 367,-262.5 420,-262.5 420,-243.5 367,-243.5"/>
<text text-anchor="middle" x="393.5" y="-250.5" font-family="Helvetica,sans-Serif" font-size="10.00">D_base</text>
</a>
</g>
</g>
<!-- Node2&#45;&gt;Node1 -->
<g id="edge1" class="edge"><title>Node2&#45;&gt;Node1</title>
<path fill="none" stroke="midnightblue" d="M430.189,-243.621C458.954,-235.441 500.056,-222.335 534,-206 568.329,-189.48 605.057,-163.562 623.839,-149.629"/>
<polygon fill="midnightblue" stroke="midnightblue" points="428.879,-240.352 420.186,-246.408 430.759,-247.095 428.879,-240.352"/>
</g>
<!-- Node3 -->
<g id="node3" class="node"><title>Node3</title>
<g id="a_node3"><a xlink:title="STL class. ">
<polygon fill="white" stroke="#bfbfbf" points="168.5,-260.5 168.5,-279.5 233.5,-279.5 233.5,-260.5 168.5,-260.5"/>
<text text-anchor="middle" x="201" y="-267.5" font-family="Helvetica,sans-Serif" font-size="10.00">std::string</text>
</a>
</g>
</g>
<!-- Node3&#45;&gt;Node2 -->
<g id="edge2" class="edge"><title>Node3&#45;&gt;Node2</title>
<path fill="none" stroke="#9a32cd" stroke-dasharray="5,2" d="M244.021,-266.25C281.601,-262.897 335.463,-258.09 366.928,-255.282"/>
<polygon fill="#9a32cd" stroke="#9a32cd" points="243.535,-262.779 233.885,-267.155 244.157,-269.752 243.535,-262.779"/>
<text text-anchor="middle" x="294" y="-277" font-family="Helvetica,sans-Serif" font-size="10.00"> units</text>
<text text-anchor="middle" x="294" y="-266" font-family="Helvetica,sans-Serif" font-size="10.00">name</text>
</g>
<!-- Node4 -->
<g id="node4" class="node"><title>Node4</title>
<g id="a_node4"><a xlink:title="STL class. ">
<polygon fill="white" stroke="#bfbfbf" points="0,-255 0,-285 103,-285 103,-255 0,-255"/>
<text text-anchor="start" x="8" y="-273" font-family="Helvetica,sans-Serif" font-size="10.00">std::basic_string&lt;</text>
<text text-anchor="middle" x="51.5" y="-262" font-family="Helvetica,sans-Serif" font-size="10.00"> char &gt;</text>
</a>
</g>
</g>
<!-- Node4&#45;&gt;Node3 -->
<g id="edge3" class="edge"><title>Node4&#45;&gt;Node3</title>
<path fill="none" stroke="midnightblue" d="M113.519,-270C132.251,-270 152.112,-270 168.071,-270"/>
<polygon fill="midnightblue" stroke="midnightblue" points="113.261,-266.5 103.261,-270 113.261,-273.5 113.261,-266.5"/>
</g>
<!-- Node5 -->
<g id="node5" class="node"><title>Node5</title>
<polygon fill="white" stroke="#bfbfbf" points="140,-199.5 140,-218.5 262,-218.5 262,-199.5 140,-199.5"/>
<text text-anchor="middle" x="201" y="-206.5" font-family="Helvetica,sans-Serif" font-size="10.00">std::vector&lt; double &gt;</text>
</g>
<!-- Node5&#45;&gt;Node1 -->
<g id="edge8" class="edge"><title>Node5&#45;&gt;Node1</title>
<path fill="none" stroke="#9a32cd" stroke-dasharray="5,2" d="M271.965,-197.889C356.354,-184.488 496.777,-162.188 576.459,-149.535"/>
<polygon fill="#9a32cd" stroke="#9a32cd" points="271.286,-194.453 261.959,-199.478 272.384,-201.367 271.286,-194.453"/>
<text text-anchor="middle" x="393.5" y="-215" font-family="Helvetica,sans-Serif" font-size="10.00"> regions</text>
<text text-anchor="middle" x="393.5" y="-204" font-family="Helvetica,sans-Serif" font-size="10.00">holes</text>
<text text-anchor="middle" x="393.5" y="-193" font-family="Helvetica,sans-Serif" font-size="10.00">v</text>
</g>
<!-- Node5&#45;&gt;Node2 -->
<g id="edge4" class="edge"><title>Node5&#45;&gt;Node2</title>
<path fill="none" stroke="#9a32cd" stroke-dasharray="5,2" d="M253.357,-220.862C290.017,-229.329 337.781,-240.362 366.742,-247.051"/>
<polygon fill="#9a32cd" stroke="#9a32cd" points="253.867,-217.388 243.336,-218.547 252.291,-224.208 253.867,-217.388"/>
<text text-anchor="middle" x="294" y="-246" font-family="Helvetica,sans-Serif" font-size="10.00"> x</text>
<text text-anchor="middle" x="294" y="-235" font-family="Helvetica,sans-Serif" font-size="10.00">L</text>
</g>
<!-- Node6 -->
<g id="node6" class="node"><title>Node6</title>
<polygon fill="white" stroke="#bfbfbf" points="326,-125 326,-155 461,-155 461,-125 326,-125"/>
<text text-anchor="start" x="334" y="-143" font-family="Helvetica,sans-Serif" font-size="10.00">std::vector&lt; vector</text>
<text text-anchor="middle" x="393.5" y="-132" font-family="Helvetica,sans-Serif" font-size="10.00">&lt; vector&lt; double &gt; &gt; &gt;</text>
</g>
<!-- Node6&#45;&gt;Node1 -->
<g id="edge5" class="edge"><title>Node6&#45;&gt;Node1</title>
<path fill="none" stroke="#9a32cd" stroke-dasharray="5,2" d="M471.293,-140C496.906,-140 525.583,-140 551.765,-140"/>
<polygon fill="#9a32cd" stroke="#9a32cd" points="471.268,-136.5 461.268,-140 471.268,-143.5 471.268,-136.5"/>
<text text-anchor="middle" x="506.5" y="-143" font-family="Helvetica,sans-Serif" font-size="10.00"> vertices</text>
</g>
<!-- Node7 -->
<g id="node7" class="node"><title>Node7</title>
<polygon fill="white" stroke="#bfbfbf" points="336,-76 336,-106 451,-106 451,-76 336,-76"/>
<text text-anchor="start" x="344" y="-94" font-family="Helvetica,sans-Serif" font-size="10.00">std::vector&lt; vector</text>
<text text-anchor="middle" x="393.5" y="-83" font-family="Helvetica,sans-Serif" font-size="10.00">&lt; vector&lt; int &gt; &gt; &gt;</text>
</g>
<!-- Node7&#45;&gt;Node1 -->
<g id="edge6" class="edge"><title>Node7&#45;&gt;Node1</title>
<path fill="none" stroke="#9a32cd" stroke-dasharray="5,2" d="M461.087,-104.483C501.818,-112.73 552.938,-123.08 589.467,-130.477"/>
<polygon fill="#9a32cd" stroke="#9a32cd" points="461.734,-101.043 451.238,-102.488 460.345,-107.903 461.734,-101.043"/>
<text text-anchor="middle" x="506.5" y="-122" font-family="Helvetica,sans-Serif" font-size="10.00"> facets</text>
</g>
<!-- Node8 -->
<g id="node8" class="node"><title>Node8</title>
<polygon fill="white" stroke="#bfbfbf" points="342.5,-0.5 342.5,-19.5 444.5,-19.5 444.5,-0.5 342.5,-0.5"/>
<text text-anchor="middle" x="393.5" y="-7.5" font-family="Helvetica,sans-Serif" font-size="10.00">std::vector&lt; int &gt;</text>
</g>
<!-- Node8&#45;&gt;Node1 -->
<g id="edge7" class="edge"><title>Node8&#45;&gt;Node1</title>
<path fill="none" stroke="#9a32cd" stroke-dasharray="5,2" d="M454.603,-14.8747C480.227,-18.8381 509.742,-26.0142 534,-39 577.61,-62.3451 615.077,-109.997 629.816,-130.391"/>
<polygon fill="#9a32cd" stroke="#9a32cd" points="455.019,-11.3987 444.627,-13.4601 454.036,-18.3294 455.019,-11.3987"/>
<text text-anchor="middle" x="506.5" y="-97" font-family="Helvetica,sans-Serif" font-size="10.00"> f</text>
<text text-anchor="middle" x="506.5" y="-86" font-family="Helvetica,sans-Serif" font-size="10.00">vertexFlags</text>
<text text-anchor="middle" x="506.5" y="-75" font-family="Helvetica,sans-Serif" font-size="10.00">facetHoles</text>
<text text-anchor="middle" x="506.5" y="-64" font-family="Helvetica,sans-Serif" font-size="10.00">fN</text>
<text text-anchor="middle" x="506.5" y="-53" font-family="Helvetica,sans-Serif" font-size="10.00">vN</text>
<text text-anchor="middle" x="506.5" y="-42" font-family="Helvetica,sans-Serif" font-size="10.00">facetFlags</text>
</g>
</g>
</svg>
