<?xml version="1.0" encoding="UTF-8" standalone="no"?>
<!DOCTYPE svg PUBLIC "-//W3C//DTD SVG 1.1//EN"
 "http://www.w3.org/Graphics/SVG/1.1/DTD/svg11.dtd">
<!-- Generated by graphviz version 2.38.0 (20140413.2041)
 -->
<!-- Title: proteus::NCLS_base Pages: 1 -->
<svg width="168pt" height="249pt"
 viewBox="0.00 0.00 167.50 249.00" xmlns="http://www.w3.org/2000/svg" xmlns:xlink="http://www.w3.org/1999/xlink">
<g id="graph0" class="graph" transform="scale(1 1) rotate(0) translate(4 245)">
<title>proteus::NCLS_base</title>
<polygon fill="white" stroke="none" points="-4,4 -4,-245 163.5,-245 163.5,4 -4,4"/>
<!-- Node1 -->
<g id="node1" class="node"><title>Node1</title>
<polygon fill="#bfbfbf" stroke="black" points="8.5,-0.5 8.5,-19.5 122.5,-19.5 122.5,-0.5 8.5,-0.5"/>
<text text-anchor="middle" x="65.5" y="-7.5" font-family="Helvetica,sans-Serif" font-size="10.00">proteus::NCLS_base</text>
</g>
<!-- Node2 -->
<g id="node2" class="node"><title>Node2</title>
<polygon fill="white" stroke="#bfbfbf" points="0,-221.5 0,-240.5 131,-240.5 131,-221.5 0,-221.5"/>
<text text-anchor="middle" x="65.5" y="-228.5" font-family="Helvetica,sans-Serif" font-size="10.00">std::valarray&lt; double &gt;</text>
</g>
<!-- Node2&#45;&gt;Node1 -->
<g id="edge1" class="edge"><title>Node2&#45;&gt;Node1</title>
<path fill="none" stroke="#9a32cd" stroke-dasharray="5,2" d="M65.5,-211.261C65.5,-166.03 65.5,-52.2192 65.5,-19.7637"/>
<polygon fill="#9a32cd" stroke="#9a32cd" points="62.0001,-211.415 65.5,-221.415 69.0001,-211.415 62.0001,-211.415"/>
<text text-anchor="middle" x="112.5" y="-195" font-family="Helvetica,sans-Serif" font-size="10.00"> gx</text>
<text text-anchor="middle" x="112.5" y="-184" font-family="Helvetica,sans-Serif" font-size="10.00">etaMin</text>
<text text-anchor="middle" x="112.5" y="-173" font-family="Helvetica,sans-Serif" font-size="10.00">psi</text>
<text text-anchor="middle" x="112.5" y="-162" font-family="Helvetica,sans-Serif" font-size="10.00">gy</text>
<text text-anchor="middle" x="112.5" y="-151" font-family="Helvetica,sans-Serif" font-size="10.00">etaMax</text>
<text text-anchor="middle" x="112.5" y="-140" font-family="Helvetica,sans-Serif" font-size="10.00">gz</text>
<text text-anchor="start" x="65.5" y="-129" font-family="Helvetica,sans-Serif" font-size="10.00">global_entropy</text>
<text text-anchor="middle" x="112.5" y="-118" font-family="Helvetica,sans-Serif" font-size="10.00">_residual</text>
<text text-anchor="start" x="65.5" y="-107" font-family="Helvetica,sans-Serif" font-size="10.00">TransposeTransport</text>
<text text-anchor="middle" x="112.5" y="-96" font-family="Helvetica,sans-Serif" font-size="10.00">Matrix</text>
<text text-anchor="start" x="65.5" y="-85" font-family="Helvetica,sans-Serif" font-size="10.00">alpha_denominator</text>
<text text-anchor="middle" x="112.5" y="-74" font-family="Helvetica,sans-Serif" font-size="10.00">_pos</text>
<text text-anchor="start" x="65.5" y="-63" font-family="Helvetica,sans-Serif" font-size="10.00">alpha_denominator</text>
<text text-anchor="middle" x="112.5" y="-52" font-family="Helvetica,sans-Serif" font-size="10.00">_neg</text>
<text text-anchor="middle" x="112.5" y="-41" font-family="Helvetica,sans-Serif" font-size="10.00">...</text>
</g>
</g>
</svg>
