<?xml version="1.0" encoding="UTF-8" standalone="no"?>
<!DOCTYPE svg PUBLIC "-//W3C//DTD SVG 1.1//EN"
 "http://www.w3.org/Graphics/SVG/1.1/DTD/svg11.dtd">
<!-- Generated by graphviz version 2.38.0 (20140413.2041)
 -->
<!-- Title: proteus::cppVOF3P_base Pages: 1 -->
<svg width="199pt" height="194pt"
 viewBox="0.00 0.00 198.50 194.00" xmlns="http://www.w3.org/2000/svg" xmlns:xlink="http://www.w3.org/1999/xlink">
<g id="graph0" class="graph" transform="scale(1 1) rotate(0) translate(4 190)">
<title>proteus::cppVOF3P_base</title>
<polygon fill="white" stroke="none" points="-4,4 -4,-190 194.5,-190 194.5,4 -4,4"/>
<!-- Node1 -->
<g id="node1" class="node"><title>Node1</title>
<polygon fill="#bfbfbf" stroke="black" points="0,-0.5 0,-19.5 137,-19.5 137,-0.5 0,-0.5"/>
<text text-anchor="middle" x="68.5" y="-7.5" font-family="Helvetica,sans-Serif" font-size="10.00">proteus::cppVOF3P_base</text>
</g>
<!-- Node2 -->
<g id="node2" class="node"><title>Node2</title>
<polygon fill="white" stroke="#bfbfbf" points="3,-166.5 3,-185.5 134,-185.5 134,-166.5 3,-166.5"/>
<text text-anchor="middle" x="68.5" y="-173.5" font-family="Helvetica,sans-Serif" font-size="10.00">std::valarray&lt; double &gt;</text>
</g>
<!-- Node2&#45;&gt;Node1 -->
<g id="edge1" class="edge"><title>Node2&#45;&gt;Node1</title>
<path fill="none" stroke="#9a32cd" stroke-dasharray="5,2" d="M68.5,-155.751C68.5,-120.193 68.5,-45.5003 68.5,-19.8609"/>
<polygon fill="#9a32cd" stroke="#9a32cd" points="65.0001,-156.183 68.5,-166.183 72.0001,-156.183 65.0001,-156.183"/>
<text text-anchor="middle" x="129.5" y="-140" font-family="Helvetica,sans-Serif" font-size="10.00"> boundary_integral</text>
<text text-anchor="middle" x="129.5" y="-129" font-family="Helvetica,sans-Serif" font-size="10.00">psi</text>
<text text-anchor="middle" x="129.5" y="-118" font-family="Helvetica,sans-Serif" font-size="10.00">Rpos</text>
<text text-anchor="start" x="68.5" y="-107" font-family="Helvetica,sans-Serif" font-size="10.00">global_entropy</text>
<text text-anchor="middle" x="129.5" y="-96" font-family="Helvetica,sans-Serif" font-size="10.00">_residual</text>
<text text-anchor="middle" x="129.5" y="-85" font-family="Helvetica,sans-Serif" font-size="10.00">FluxCorrectionMatrix</text>
<text text-anchor="middle" x="129.5" y="-74" font-family="Helvetica,sans-Serif" font-size="10.00">TransposeTransportMatrix</text>
<text text-anchor="middle" x="129.5" y="-63" font-family="Helvetica,sans-Serif" font-size="10.00">TransportMatrix</text>
<text text-anchor="middle" x="129.5" y="-52" font-family="Helvetica,sans-Serif" font-size="10.00">Rneg</text>
<text text-anchor="middle" x="129.5" y="-41" font-family="Helvetica,sans-Serif" font-size="10.00">eta</text>
</g>
</g>
</svg>
