<?xml version="1.0" encoding="UTF-8" standalone="no"?>
<!DOCTYPE svg PUBLIC "-//W3C//DTD SVG 1.1//EN"
 "http://www.w3.org/Graphics/SVG/1.1/DTD/svg11.dtd">
<!-- Generated by graphviz version 2.38.0 (20140413.2041)
 -->
<!-- Title: MeshAdaptPUMIDrvr Pages: 1 -->
<svg width="154pt" height="185pt"
 viewBox="0.00 0.00 153.50 185.00" xmlns="http://www.w3.org/2000/svg" xmlns:xlink="http://www.w3.org/1999/xlink">
<g id="graph0" class="graph" transform="scale(1 1) rotate(0) translate(4 181)">
<title>MeshAdaptPUMIDrvr</title>
<polygon fill="white" stroke="none" points="-4,4 -4,-181 149.5,-181 149.5,4 -4,4"/>
<!-- Node1 -->
<g id="node1" class="node"><title>Node1</title>
<polygon fill="#bfbfbf" stroke="black" points="-7.10543e-15,-0.5 -7.10543e-15,-19.5 115,-19.5 115,-0.5 -7.10543e-15,-0.5"/>
<text text-anchor="middle" x="57.5" y="-7.5" font-family="Helvetica,sans-Serif" font-size="10.00">MeshAdaptPUMIDrvr</text>
</g>
<!-- Node2 -->
<g id="node2" class="node"><title>Node2</title>
<g id="a_node2"><a xlink:title="STL class. ">
<polygon fill="white" stroke="#bfbfbf" points="25,-89.5 25,-108.5 90,-108.5 90,-89.5 25,-89.5"/>
<text text-anchor="middle" x="57.5" y="-96.5" font-family="Helvetica,sans-Serif" font-size="10.00">std::string</text>
</a>
</g>
</g>
<!-- Node2&#45;&gt;Node1 -->
<g id="edge1" class="edge"><title>Node2&#45;&gt;Node1</title>
<path fill="none" stroke="#9a32cd" stroke-dasharray="5,2" d="M57.5,-79.1946C57.5,-60.7379 57.5,-33.412 57.5,-19.6249"/>
<polygon fill="#9a32cd" stroke="#9a32cd" points="54.0001,-79.34 57.5,-89.34 61.0001,-79.3401 54.0001,-79.34"/>
<text text-anchor="middle" x="101.5" y="-63" font-family="Helvetica,sans-Serif" font-size="10.00"> logging_config</text>
<text text-anchor="middle" x="101.5" y="-52" font-family="Helvetica,sans-Serif" font-size="10.00">adapt_type_config</text>
<text text-anchor="middle" x="101.5" y="-41" font-family="Helvetica,sans-Serif" font-size="10.00">size_field_config</text>
</g>
<!-- Node3 -->
<g id="node3" class="node"><title>Node3</title>
<g id="a_node3"><a xlink:title="STL class. ">
<polygon fill="white" stroke="#bfbfbf" points="6,-146.5 6,-176.5 109,-176.5 109,-146.5 6,-146.5"/>
<text text-anchor="start" x="14" y="-164.5" font-family="Helvetica,sans-Serif" font-size="10.00">std::basic_string&lt;</text>
<text text-anchor="middle" x="57.5" y="-153.5" font-family="Helvetica,sans-Serif" font-size="10.00"> char &gt;</text>
</a>
</g>
</g>
<!-- Node3&#45;&gt;Node2 -->
<g id="edge2" class="edge"><title>Node3&#45;&gt;Node2</title>
<path fill="none" stroke="midnightblue" d="M57.5,-136.352C57.5,-126.513 57.5,-115.775 57.5,-108.54"/>
<polygon fill="midnightblue" stroke="midnightblue" points="54.0001,-136.468 57.5,-146.468 61.0001,-136.468 54.0001,-136.468"/>
</g>
</g>
</svg>
