<?xml version="1.0" encoding="UTF-8" standalone="no"?>
<!DOCTYPE svg PUBLIC "-//W3C//DTD SVG 1.1//EN"
 "http://www.w3.org/Graphics/SVG/1.1/DTD/svg11.dtd">
<!-- Generated by graphviz version 2.38.0 (20140413.2041)
 -->
<!-- Title: proteus::cppRANS3PSed2D&lt; CompKernelType, nSpace, nQuadraturePoints_element, nDOF_mesh_trial_element, nDOF_trial_element, nDOF_test_element, nQuadraturePoints_elementBoundary &gt; Pages: 1 -->
<svg width="376pt" height="150pt"
 viewBox="0.00 0.00 375.50 150.00" xmlns="http://www.w3.org/2000/svg" xmlns:xlink="http://www.w3.org/1999/xlink">
<g id="graph0" class="graph" transform="scale(1 1) rotate(0) translate(4 146)">
<title>proteus::cppRANS3PSed2D&lt; CompKernelType, nSpace, nQuadraturePoints_element, nDOF_mesh_trial_element, nDOF_trial_element, nDOF_test_element, nQuadraturePoints_elementBoundary &gt;</title>
<polygon fill="white" stroke="none" points="-4,4 -4,-146 371.5,-146 371.5,4 -4,4"/>
<!-- Node1 -->
<g id="node1" class="node"><title>Node1</title>
<polygon fill="#bfbfbf" stroke="black" points="54,-0.5 54,-74.5 314,-74.5 314,-0.5 54,-0.5"/>
<text text-anchor="start" x="62" y="-62.5" font-family="Helvetica,sans-Serif" font-size="10.00">proteus::cppRANS3PSed2D</text>
<text text-anchor="start" x="62" y="-51.5" font-family="Helvetica,sans-Serif" font-size="10.00">&lt; CompKernelType, nSpace,</text>
<text text-anchor="start" x="62" y="-40.5" font-family="Helvetica,sans-Serif" font-size="10.00"> nQuadraturePoints_element,</text>
<text text-anchor="start" x="62" y="-29.5" font-family="Helvetica,sans-Serif" font-size="10.00"> nDOF_mesh_trial_element,</text>
<text text-anchor="start" x="62" y="-18.5" font-family="Helvetica,sans-Serif" font-size="10.00"> nDOF_trial_element, nDOF_test</text>
<text text-anchor="middle" x="184" y="-7.5" font-family="Helvetica,sans-Serif" font-size="10.00">_element, nQuadraturePoints_elementBoundary &gt;</text>
</g>
<!-- Node2 -->
<g id="node2" class="node"><title>Node2</title>
<g id="a_node2"><a xlink:href="classproteus_1_1cpp_r_a_n_s3_p_sed2_d__base.html" target="_top" xlink:title="proteus::cppRANS3PSed2D_base">
<polygon fill="white" stroke="black" points="0,-122.5 0,-141.5 176,-141.5 176,-122.5 0,-122.5"/>
<text text-anchor="middle" x="88" y="-129.5" font-family="Helvetica,sans-Serif" font-size="10.00">proteus::cppRANS3PSed2D_base</text>
</a>
</g>
</g>
<!-- Node2&#45;&gt;Node1 -->
<g id="edge1" class="edge"><title>Node2&#45;&gt;Node1</title>
<path fill="none" stroke="midnightblue" d="M104.373,-115.224C115.86,-104.156 131.701,-88.8924 146.231,-74.8925"/>
<polygon fill="midnightblue" stroke="midnightblue" points="101.632,-113.005 96.8594,-122.464 106.489,-118.045 101.632,-113.005"/>
</g>
<!-- Node3 -->
<g id="node3" class="node"><title>Node3</title>
<g id="a_node3"><a xlink:href="classproteus_1_1cpp_hsu_sed_stress.html" target="_top" xlink:title="proteus::cppHsuSedStress\&lt; 2 \&gt;">
<polygon fill="white" stroke="black" points="194.5,-122.5 194.5,-141.5 367.5,-141.5 367.5,-122.5 194.5,-122.5"/>
<text text-anchor="middle" x="281" y="-129.5" font-family="Helvetica,sans-Serif" font-size="10.00">proteus::cppHsuSedStress&lt; 2 &gt;</text>
</a>
</g>
</g>
<!-- Node3&#45;&gt;Node1 -->
<g id="edge2" class="edge"><title>Node3&#45;&gt;Node1</title>
<path fill="none" stroke="#9a32cd" stroke-dasharray="5,2" d="M264.793,-115.545C253.161,-104.453 236.986,-89.0284 222.163,-74.8925"/>
<polygon fill="#9a32cd" stroke="#9a32cd" points="262.396,-118.095 272.048,-122.464 267.227,-113.029 262.396,-118.095"/>
<text text-anchor="middle" x="272" y="-96" font-family="Helvetica,sans-Serif" font-size="10.00"> closure</text>
</g>
</g>
</svg>
