<?xml version="1.0" encoding="UTF-8" standalone="no"?>
<!DOCTYPE svg PUBLIC "-//W3C//DTD SVG 1.1//EN"
 "http://www.w3.org/Graphics/SVG/1.1/DTD/svg11.dtd">
<!-- Generated by graphviz version 2.38.0 (20140413.2041)
 -->
<!-- Title: cppCable Pages: 1 -->
<svg width="584pt" height="579pt"
 viewBox="0.00 0.00 584.00 578.69" xmlns="http://www.w3.org/2000/svg" xmlns:xlink="http://www.w3.org/1999/xlink">
<g id="graph0" class="graph" transform="scale(1 1) rotate(0) translate(4 574.687)">
<title>cppCable</title>
<polygon fill="white" stroke="none" points="-4,4 -4,-574.687 580,-574.687 580,4 -4,4"/>
<!-- Node1 -->
<g id="node1" class="node"><title>Node1</title>
<polygon fill="#bfbfbf" stroke="black" points="515,-295.187 515,-314.187 576,-314.187 576,-295.187 515,-295.187"/>
<text text-anchor="middle" x="545.5" y="-302.187" font-family="Helvetica,sans-Serif" font-size="10.00">cppCable</text>
</g>
<!-- Node2 -->
<g id="node2" class="node"><title>Node2</title>
<polygon fill="white" stroke="#bfbfbf" points="166.5,-519.687 166.5,-549.687 333.5,-549.687 333.5,-519.687 166.5,-519.687"/>
<text text-anchor="start" x="174.5" y="-537.687" font-family="Helvetica,sans-Serif" font-size="10.00">std::vector&lt; std::shared</text>
<text text-anchor="middle" x="250" y="-526.687" font-family="Helvetica,sans-Serif" font-size="10.00">_ptr&lt; ChVector&lt; double &gt; &gt; &gt;</text>
</g>
<!-- Node2&#45;&gt;Node1 -->
<g id="edge1" class="edge"><title>Node2&#45;&gt;Node1</title>
<path fill="none" stroke="#9a32cd" stroke-dasharray="5,2" d="M343.705,-549.016C394.786,-551.534 455.966,-544.943 497,-508.687 526.908,-482.262 540.449,-351.177 543.702,-314.334"/>
<polygon fill="#9a32cd" stroke="#9a32cd" points="343.828,-545.517 333.632,-548.397 343.398,-552.504 343.828,-545.517"/>
<text text-anchor="middle" x="437.5" y="-562.687" font-family="Helvetica,sans-Serif" font-size="10.00"> forces_drag</text>
<text text-anchor="middle" x="437.5" y="-551.687" font-family="Helvetica,sans-Serif" font-size="10.00">forces_addedmass</text>
</g>
<!-- Node3 -->
<g id="node3" class="node"><title>Node3</title>
<polygon fill="white" stroke="#bfbfbf" points="172,-470.687 172,-500.687 328,-500.687 328,-470.687 172,-470.687"/>
<text text-anchor="start" x="180" y="-488.687" font-family="Helvetica,sans-Serif" font-size="10.00">std::vector&lt; std::shared</text>
<text text-anchor="middle" x="250" y="-477.687" font-family="Helvetica,sans-Serif" font-size="10.00">_ptr&lt; ChNodeFEAxyzDD &gt; &gt;</text>
</g>
<!-- Node3&#45;&gt;Node1 -->
<g id="edge2" class="edge"><title>Node3&#45;&gt;Node1</title>
<path fill="none" stroke="#9a32cd" stroke-dasharray="5,2" d="M338.417,-495.673C390.065,-496.736 453.626,-488.983 497,-452.687 540.046,-416.665 544.5,-341.476 544.656,-314.546"/>
<polygon fill="#9a32cd" stroke="#9a32cd" points="338.363,-492.169 328.256,-495.348 338.139,-499.166 338.363,-492.169"/>
<text text-anchor="middle" x="437.5" y="-496.687" font-family="Helvetica,sans-Serif" font-size="10.00"> nodesDD</text>
</g>
<!-- Node4 -->
<g id="node4" class="node"><title>Node4</title>
<polygon fill="white" stroke="#bfbfbf" points="163,-421.687 163,-451.687 337,-451.687 337,-421.687 163,-421.687"/>
<text text-anchor="start" x="171" y="-439.687" font-family="Helvetica,sans-Serif" font-size="10.00">std::vector&lt; std::shared</text>
<text text-anchor="middle" x="250" y="-428.687" font-family="Helvetica,sans-Serif" font-size="10.00">_ptr&lt; ChElementBeamEuler &gt; &gt;</text>
</g>
<!-- Node4&#45;&gt;Node1 -->
<g id="edge3" class="edge"><title>Node4&#45;&gt;Node1</title>
<path fill="none" stroke="#9a32cd" stroke-dasharray="5,2" d="M347.412,-440.241C396.3,-437.475 454.214,-426.715 497,-395.687 525.133,-375.285 537.967,-333.165 542.486,-314.25"/>
<polygon fill="#9a32cd" stroke="#9a32cd" points="346.955,-436.758 337.126,-440.714 347.276,-443.751 346.955,-436.758"/>
<text text-anchor="middle" x="437.5" y="-440.687" font-family="Helvetica,sans-Serif" font-size="10.00"> elemsBeamEuler</text>
</g>
<!-- Node5 -->
<g id="node5" class="node"><title>Node5</title>
<polygon fill="white" stroke="#bfbfbf" points="175.5,-372.687 175.5,-402.687 324.5,-402.687 324.5,-372.687 175.5,-372.687"/>
<text text-anchor="start" x="183.5" y="-390.687" font-family="Helvetica,sans-Serif" font-size="10.00">std::vector&lt; std::shared</text>
<text text-anchor="middle" x="250" y="-379.687" font-family="Helvetica,sans-Serif" font-size="10.00">_ptr&lt; ChNodeFEAxyzD &gt; &gt;</text>
</g>
<!-- Node5&#45;&gt;Node1 -->
<g id="edge4" class="edge"><title>Node5&#45;&gt;Node1</title>
<path fill="none" stroke="#9a32cd" stroke-dasharray="5,2" d="M334.674,-385.219C383.953,-381.023 446.352,-370.816 497,-346.687 513.099,-339.017 527.844,-324.236 536.502,-314.414"/>
<polygon fill="#9a32cd" stroke="#9a32cd" points="334.38,-381.732 324.684,-386.004 334.928,-388.71 334.38,-381.732"/>
<text text-anchor="middle" x="437.5" y="-383.687" font-family="Helvetica,sans-Serif" font-size="10.00"> nodes</text>
</g>
<!-- Node6 -->
<g id="node6" class="node"><title>Node6</title>
<polygon fill="white" stroke="#bfbfbf" points="140,-323.687 140,-353.687 360,-353.687 360,-323.687 140,-323.687"/>
<text text-anchor="start" x="148" y="-341.687" font-family="Helvetica,sans-Serif" font-size="10.00">std::vector&lt; std::shared</text>
<text text-anchor="middle" x="250" y="-330.687" font-family="Helvetica,sans-Serif" font-size="10.00">_ptr&lt; ChLoad&lt; MyLoaderTriangular &gt; &gt; &gt;</text>
</g>
<!-- Node6&#45;&gt;Node1 -->
<g id="edge5" class="edge"><title>Node6&#45;&gt;Node1</title>
<path fill="none" stroke="#9a32cd" stroke-dasharray="5,2" d="M370.322,-331.836C410.721,-328.504 455.984,-323.657 497,-316.687 502.786,-315.704 508.904,-314.379 514.754,-312.968"/>
<polygon fill="#9a32cd" stroke="#9a32cd" points="369.85,-328.362 360.162,-332.651 370.41,-335.34 369.85,-328.362"/>
<text text-anchor="middle" x="437.5" y="-334.687" font-family="Helvetica,sans-Serif" font-size="10.00"> elems_loads_triangular</text>
</g>
<!-- Node7 -->
<g id="node7" class="node"><title>Node7</title>
<polygon fill="white" stroke="#bfbfbf" points="146.5,-274.687 146.5,-304.687 353.5,-304.687 353.5,-274.687 146.5,-274.687"/>
<text text-anchor="start" x="154.5" y="-292.687" font-family="Helvetica,sans-Serif" font-size="10.00">std::vector&lt; std::shared</text>
<text text-anchor="middle" x="250" y="-281.687" font-family="Helvetica,sans-Serif" font-size="10.00">_ptr&lt; ChLoad&lt; ChLoaderGravity &gt; &gt; &gt;</text>
</g>
<!-- Node7&#45;&gt;Node1 -->
<g id="edge6" class="edge"><title>Node7&#45;&gt;Node1</title>
<path fill="none" stroke="#9a32cd" stroke-dasharray="5,2" d="M363.74,-295.449C418.223,-298.233 479.324,-301.356 514.708,-303.164"/>
<polygon fill="#9a32cd" stroke="#9a32cd" points="363.818,-291.948 353.652,-294.933 363.46,-298.939 363.818,-291.948"/>
<text text-anchor="middle" x="437.5" y="-305.687" font-family="Helvetica,sans-Serif" font-size="10.00"> elems_loads_volumetric</text>
</g>
<!-- Node8 -->
<g id="node8" class="node"><title>Node8</title>
<g id="a_node8"><a xlink:title="STL class. ">
<polygon fill="white" stroke="#bfbfbf" points="217.5,-236.187 217.5,-255.187 282.5,-255.187 282.5,-236.187 217.5,-236.187"/>
<text text-anchor="middle" x="250" y="-243.187" font-family="Helvetica,sans-Serif" font-size="10.00">std::string</text>
</a>
</g>
</g>
<!-- Node8&#45;&gt;Node1 -->
<g id="edge7" class="edge"><title>Node8&#45;&gt;Node1</title>
<path fill="none" stroke="#9a32cd" stroke-dasharray="5,2" d="M292.781,-247.912C342.418,-251.437 427.28,-260.263 497,-281.687 507.685,-284.97 518.974,-290.348 527.864,-295.078"/>
<polygon fill="#9a32cd" stroke="#9a32cd" points="292.954,-244.416 282.742,-247.237 292.485,-251.4 292.954,-244.416"/>
<text text-anchor="middle" x="437.5" y="-284.687" font-family="Helvetica,sans-Serif" font-size="10.00"> beam_type</text>
</g>
<!-- Node9 -->
<g id="node9" class="node"><title>Node9</title>
<g id="a_node9"><a xlink:title="STL class. ">
<polygon fill="white" stroke="#bfbfbf" points="0,-230.687 0,-260.687 103,-260.687 103,-230.687 0,-230.687"/>
<text text-anchor="start" x="8" y="-248.687" font-family="Helvetica,sans-Serif" font-size="10.00">std::basic_string&lt;</text>
<text text-anchor="middle" x="51.5" y="-237.687" font-family="Helvetica,sans-Serif" font-size="10.00"> char &gt;</text>
</a>
</g>
</g>
<!-- Node9&#45;&gt;Node8 -->
<g id="edge8" class="edge"><title>Node9&#45;&gt;Node8</title>
<path fill="none" stroke="midnightblue" d="M113.517,-245.687C147.882,-245.687 189.379,-245.687 217.318,-245.687"/>
<polygon fill="midnightblue" stroke="midnightblue" points="113.104,-242.187 103.104,-245.687 113.104,-249.187 113.104,-242.187"/>
</g>
<!-- Node10 -->
<g id="node10" class="node"><title>Node10</title>
<polygon fill="white" stroke="#bfbfbf" points="175,-172.187 175,-191.187 325,-191.187 325,-172.187 175,-172.187"/>
<text text-anchor="middle" x="250" y="-179.187" font-family="Helvetica,sans-Serif" font-size="10.00">std::vector&lt; ChVector&lt;&gt; &gt;</text>
</g>
<!-- Node10&#45;&gt;Node1 -->
<g id="edge9" class="edge"><title>Node10&#45;&gt;Node1</title>
<path fill="none" stroke="#9a32cd" stroke-dasharray="5,2" d="M335.058,-174.173C395.808,-170.492 471.491,-170.056 497,-187.687 533.61,-212.99 542.027,-271.734 543.943,-294.973"/>
<polygon fill="#9a32cd" stroke="#9a32cd" points="334.817,-170.682 325.062,-174.816 335.266,-177.667 334.817,-170.682"/>
<text text-anchor="middle" x="437.5" y="-245.687" font-family="Helvetica,sans-Serif" font-size="10.00"> fluid_acceleration</text>
<text text-anchor="middle" x="437.5" y="-234.687" font-family="Helvetica,sans-Serif" font-size="10.00">mvecs_tangents</text>
<text text-anchor="middle" x="437.5" y="-223.687" font-family="Helvetica,sans-Serif" font-size="10.00">fluid_velocity</text>
<text text-anchor="middle" x="437.5" y="-212.687" font-family="Helvetica,sans-Serif" font-size="10.00">mvecs</text>
<text text-anchor="middle" x="437.5" y="-201.687" font-family="Helvetica,sans-Serif" font-size="10.00">mvecs_middle</text>
<text text-anchor="middle" x="437.5" y="-190.687" font-family="Helvetica,sans-Serif" font-size="10.00">mdirs</text>
</g>
<!-- Node11 -->
<g id="node11" class="node"><title>Node11</title>
<polygon fill="white" stroke="#bfbfbf" points="162.5,-121.687 162.5,-151.687 337.5,-151.687 337.5,-121.687 162.5,-121.687"/>
<text text-anchor="start" x="170.5" y="-139.687" font-family="Helvetica,sans-Serif" font-size="10.00">std::vector&lt; std::shared</text>
<text text-anchor="middle" x="250" y="-128.687" font-family="Helvetica,sans-Serif" font-size="10.00">_ptr&lt; ChElementCableANCF &gt; &gt;</text>
</g>
<!-- Node11&#45;&gt;Node1 -->
<g id="edge10" class="edge"><title>Node11&#45;&gt;Node1</title>
<path fill="none" stroke="#9a32cd" stroke-dasharray="5,2" d="M318.756,-119.817C372.639,-110.631 447.025,-107.926 497,-146.687 544.53,-183.552 546.044,-266.256 545.054,-294.787"/>
<polygon fill="#9a32cd" stroke="#9a32cd" points="317.817,-116.43 308.605,-121.664 319.07,-123.317 317.817,-116.43"/>
<text text-anchor="middle" x="437.5" y="-160.687" font-family="Helvetica,sans-Serif" font-size="10.00"> elems_cable</text>
<text text-anchor="middle" x="437.5" y="-149.687" font-family="Helvetica,sans-Serif" font-size="10.00">elemsCableANCF</text>
</g>
<!-- Node12 -->
<g id="node12" class="node"><title>Node12</title>
<polygon fill="white" stroke="#bfbfbf" points="172.5,-72.6871 172.5,-102.687 327.5,-102.687 327.5,-72.6871 172.5,-72.6871"/>
<text text-anchor="start" x="180.5" y="-90.6871" font-family="Helvetica,sans-Serif" font-size="10.00">std::vector&lt; std::shared</text>
<text text-anchor="middle" x="250" y="-79.6871" font-family="Helvetica,sans-Serif" font-size="10.00">_ptr&lt; ChNodeFEAxyzrot &gt; &gt;</text>
</g>
<!-- Node12&#45;&gt;Node1 -->
<g id="edge11" class="edge"><title>Node12&#45;&gt;Node1</title>
<path fill="none" stroke="#9a32cd" stroke-dasharray="5,2" d="M337.811,-81.2208C398.752,-78.6249 473.414,-79.9845 497,-99.6871 527.771,-125.392 540.695,-257.727 543.755,-294.941"/>
<polygon fill="#9a32cd" stroke="#9a32cd" points="337.598,-77.7268 327.772,-81.6886 337.924,-84.7192 337.598,-77.7268"/>
<text text-anchor="middle" x="437.5" y="-102.687" font-family="Helvetica,sans-Serif" font-size="10.00"> nodesRot</text>
</g>
<!-- Node13 -->
<g id="node13" class="node"><title>Node13</title>
<polygon fill="white" stroke="#bfbfbf" points="189,-19.1871 189,-38.1871 311,-38.1871 311,-19.1871 189,-19.1871"/>
<text text-anchor="middle" x="250" y="-26.1871" font-family="Helvetica,sans-Serif" font-size="10.00">std::vector&lt; double &gt;</text>
</g>
<!-- Node13&#45;&gt;Node1 -->
<g id="edge12" class="edge"><title>Node13&#45;&gt;Node1</title>
<path fill="none" stroke="#9a32cd" stroke-dasharray="5,2" d="M288.215,-16.1856C341.288,-0.939872 438.731,17.1024 497,-32.6871 537.909,-67.6425 543.597,-250.47 544.378,-294.934"/>
<polygon fill="#9a32cd" stroke="#9a32cd" points="287.108,-12.8634 278.528,-19.0796 289.112,-19.5704 287.108,-12.8634"/>
<text text-anchor="middle" x="437.5" y="-68.6871" font-family="Helvetica,sans-Serif" font-size="10.00"> nodes_density</text>
<text text-anchor="middle" x="437.5" y="-57.6871" font-family="Helvetica,sans-Serif" font-size="10.00">elems_length</text>
<text text-anchor="middle" x="437.5" y="-46.6871" font-family="Helvetica,sans-Serif" font-size="10.00">length_per_elem</text>
<text text-anchor="middle" x="437.5" y="-35.6871" font-family="Helvetica,sans-Serif" font-size="10.00">fluid_density</text>
</g>
</g>
</svg>
