<?xml version="1.0" encoding="UTF-8" standalone="no"?>
<!DOCTYPE svg PUBLIC "-//W3C//DTD SVG 1.1//EN"
 "http://www.w3.org/Graphics/SVG/1.1/DTD/svg11.dtd">
<!-- Generated by graphviz version 2.38.0 (20140413.2041)
 -->
<!-- Title: PlanarStraightLineGraphDomain Pages: 1 -->
<svg width="731pt" height="410pt"
 viewBox="0.00 0.00 731.00 409.50" xmlns="http://www.w3.org/2000/svg" xmlns:xlink="http://www.w3.org/1999/xlink">
<g id="graph0" class="graph" transform="scale(1 1) rotate(0) translate(4 405.5)">
<title>PlanarStraightLineGraphDomain</title>
<polygon fill="white" stroke="none" points="-4,4 -4,-405.5 727,-405.5 727,4 -4,4"/>
<!-- Node1 -->
<g id="node1" class="node"><title>Node1</title>
<polygon fill="#bfbfbf" stroke="black" points="552,-246 552,-265 723,-265 723,-246 552,-246"/>
<text text-anchor="middle" x="637.5" y="-253" font-family="Helvetica,sans-Serif" font-size="10.00">PlanarStraightLineGraphDomain</text>
</g>
<!-- Node2 -->
<g id="node2" class="node"><title>Node2</title>
<g id="a_node2"><a xlink:href="class_d__base.html" target="_top" xlink:title="D_base">
<polygon fill="white" stroke="black" points="379,-337 379,-356 432,-356 432,-337 379,-337"/>
<text text-anchor="middle" x="405.5" y="-344" font-family="Helvetica,sans-Serif" font-size="10.00">D_base</text>
</a>
</g>
</g>
<!-- Node2&#45;&gt;Node1 -->
<g id="edge1" class="edge"><title>Node2&#45;&gt;Node1</title>
<path fill="none" stroke="midnightblue" d="M440.1,-333.206C487.022,-314.641 571.045,-281.397 612.3,-265.075"/>
<polygon fill="midnightblue" stroke="midnightblue" points="438.69,-330 430.679,-336.933 441.266,-336.509 438.69,-330"/>
</g>
<!-- Node3 -->
<g id="node3" class="node"><title>Node3</title>
<g id="a_node3"><a xlink:title="STL class. ">
<polygon fill="white" stroke="#bfbfbf" points="168.5,-365 168.5,-384 233.5,-384 233.5,-365 168.5,-365"/>
<text text-anchor="middle" x="201" y="-372" font-family="Helvetica,sans-Serif" font-size="10.00">std::string</text>
</a>
</g>
</g>
<!-- Node3&#45;&gt;Node2 -->
<g id="edge2" class="edge"><title>Node3&#45;&gt;Node2</title>
<path fill="none" stroke="#9a32cd" stroke-dasharray="5,2" d="M243.545,-362.316C255.243,-359.305 268.04,-356.4 280,-354.5 313.797,-349.129 353.301,-347.341 378.593,-346.758"/>
<polygon fill="#9a32cd" stroke="#9a32cd" points="242.358,-359.01 233.596,-364.967 244.16,-365.774 242.358,-359.01"/>
<text text-anchor="middle" x="304.5" y="-368.5" font-family="Helvetica,sans-Serif" font-size="10.00"> units</text>
<text text-anchor="middle" x="304.5" y="-357.5" font-family="Helvetica,sans-Serif" font-size="10.00">name</text>
</g>
<!-- Node9 -->
<g id="node9" class="node"><title>Node9</title>
<polygon fill="white" stroke="#bfbfbf" points="347,-382 347,-401 464,-401 464,-382 347,-382"/>
<text text-anchor="middle" x="405.5" y="-389" font-family="Helvetica,sans-Serif" font-size="10.00">std::vector&lt; string &gt;</text>
</g>
<!-- Node3&#45;&gt;Node9 -->
<g id="edge10" class="edge"><title>Node3&#45;&gt;Node9</title>
<path fill="none" stroke="#9a32cd" stroke-dasharray="5,2" d="M243.681,-377.999C273.406,-380.495 313.759,-383.882 346.607,-386.64"/>
<polygon fill="#9a32cd" stroke="#9a32cd" points="243.898,-374.505 233.641,-377.156 243.313,-381.481 243.898,-374.505"/>
<text text-anchor="middle" x="304.5" y="-387.5" font-family="Helvetica,sans-Serif" font-size="10.00"> elements</text>
</g>
<!-- Node4 -->
<g id="node4" class="node"><title>Node4</title>
<g id="a_node4"><a xlink:title="STL class. ">
<polygon fill="white" stroke="#bfbfbf" points="0,-359.5 0,-389.5 103,-389.5 103,-359.5 0,-359.5"/>
<text text-anchor="start" x="8" y="-377.5" font-family="Helvetica,sans-Serif" font-size="10.00">std::basic_string&lt;</text>
<text text-anchor="middle" x="51.5" y="-366.5" font-family="Helvetica,sans-Serif" font-size="10.00"> char &gt;</text>
</a>
</g>
</g>
<!-- Node4&#45;&gt;Node3 -->
<g id="edge3" class="edge"><title>Node4&#45;&gt;Node3</title>
<path fill="none" stroke="midnightblue" d="M113.519,-374.5C132.251,-374.5 152.112,-374.5 168.071,-374.5"/>
<polygon fill="midnightblue" stroke="midnightblue" points="113.261,-371 103.261,-374.5 113.261,-378 113.261,-371"/>
</g>
<!-- Node5 -->
<g id="node5" class="node"><title>Node5</title>
<polygon fill="white" stroke="#bfbfbf" points="140,-265 140,-284 262,-284 262,-265 140,-265"/>
<text text-anchor="middle" x="201" y="-272" font-family="Helvetica,sans-Serif" font-size="10.00">std::vector&lt; double &gt;</text>
</g>
<!-- Node5&#45;&gt;Node1 -->
<g id="edge12" class="edge"><title>Node5&#45;&gt;Node1</title>
<path fill="none" stroke="#9a32cd" stroke-dasharray="5,2" d="M272.335,-271.669C339.541,-268.932 443.69,-264.607 534,-260.5 539.784,-260.237 545.752,-259.96 551.763,-259.677"/>
<polygon fill="#9a32cd" stroke="#9a32cd" points="272.134,-268.174 262.284,-272.078 272.418,-275.168 272.134,-268.174"/>
<text text-anchor="middle" x="405.5" y="-305.5" font-family="Helvetica,sans-Serif" font-size="10.00"> regions</text>
<text text-anchor="middle" x="405.5" y="-294.5" font-family="Helvetica,sans-Serif" font-size="10.00">h</text>
<text text-anchor="middle" x="405.5" y="-283.5" font-family="Helvetica,sans-Serif" font-size="10.00">r</text>
<text text-anchor="middle" x="405.5" y="-272.5" font-family="Helvetica,sans-Serif" font-size="10.00">v</text>
</g>
<!-- Node5&#45;&gt;Node2 -->
<g id="edge4" class="edge"><title>Node5&#45;&gt;Node2</title>
<path fill="none" stroke="#9a32cd" stroke-dasharray="5,2" d="M238.386,-287.437C278.861,-301.828 343.221,-324.712 378.779,-337.355"/>
<polygon fill="#9a32cd" stroke="#9a32cd" points="239.485,-284.113 228.89,-284.061 237.14,-290.709 239.485,-284.113"/>
<text text-anchor="middle" x="304.5" y="-332.5" font-family="Helvetica,sans-Serif" font-size="10.00"> x</text>
<text text-anchor="middle" x="304.5" y="-321.5" font-family="Helvetica,sans-Serif" font-size="10.00">L</text>
</g>
<!-- Node8 -->
<g id="node8" class="node"><title>Node8</title>
<polygon fill="white" stroke="#bfbfbf" points="351,-207.5 351,-237.5 460,-237.5 460,-207.5 351,-207.5"/>
<text text-anchor="start" x="359" y="-225.5" font-family="Helvetica,sans-Serif" font-size="10.00">std::vector&lt; vector</text>
<text text-anchor="middle" x="405.5" y="-214.5" font-family="Helvetica,sans-Serif" font-size="10.00">&lt; double &gt; &gt;</text>
</g>
<!-- Node5&#45;&gt;Node8 -->
<g id="edge8" class="edge"><title>Node5&#45;&gt;Node8</title>
<path fill="none" stroke="#9a32cd" stroke-dasharray="5,2" d="M239.451,-261.687C252.235,-257.53 266.669,-253.073 280,-249.5 303.072,-243.316 328.835,-237.545 350.913,-232.938"/>
<polygon fill="#9a32cd" stroke="#9a32cd" points="238.005,-258.479 229.604,-264.934 240.197,-265.127 238.005,-258.479"/>
<text text-anchor="middle" x="304.5" y="-252.5" font-family="Helvetica,sans-Serif" font-size="10.00"> elements</text>
</g>
<!-- Node6 -->
<g id="node6" class="node"><title>Node6</title>
<polygon fill="white" stroke="#bfbfbf" points="351,-0.5 351,-30.5 460,-30.5 460,-0.5 351,-0.5"/>
<text text-anchor="start" x="359" y="-18.5" font-family="Helvetica,sans-Serif" font-size="10.00">std::vector&lt; vector</text>
<text text-anchor="middle" x="405.5" y="-7.5" font-family="Helvetica,sans-Serif" font-size="10.00">&lt; int &gt; &gt;</text>
</g>
<!-- Node6&#45;&gt;Node1 -->
<g id="edge5" class="edge"><title>Node6&#45;&gt;Node1</title>
<path fill="none" stroke="#9a32cd" stroke-dasharray="5,2" d="M470.05,-17.6422C492.17,-21.1455 515.942,-28.3255 534,-42.5 603.728,-97.2312 628.761,-211.241 634.882,-245.533"/>
<polygon fill="#9a32cd" stroke="#9a32cd" points="470.41,-14.1591 460.03,-16.2794 469.467,-21.0952 470.41,-14.1591"/>
<text text-anchor="middle" x="508" y="-45.5" font-family="Helvetica,sans-Serif" font-size="10.00"> segments</text>
</g>
<!-- Node7 -->
<g id="node7" class="node"><title>Node7</title>
<polygon fill="white" stroke="#bfbfbf" points="150,-39 150,-58 252,-58 252,-39 150,-39"/>
<text text-anchor="middle" x="201" y="-46" font-family="Helvetica,sans-Serif" font-size="10.00">std::vector&lt; int &gt;</text>
</g>
<!-- Node7&#45;&gt;Node1 -->
<g id="edge11" class="edge"><title>Node7&#45;&gt;Node1</title>
<path fill="none" stroke="#9a32cd" stroke-dasharray="5,2" d="M262.467,-50.2077C328.575,-52.9035 429.679,-59.7014 464,-76.5 546.955,-117.103 611.761,-214.906 630.793,-245.905"/>
<polygon fill="#9a32cd" stroke="#9a32cd" points="262.302,-46.6988 252.174,-49.8094 262.031,-53.6936 262.302,-46.6988"/>
<text text-anchor="middle" x="405.5" y="-189.5" font-family="Helvetica,sans-Serif" font-size="10.00"> vertexFlags</text>
<text text-anchor="middle" x="405.5" y="-178.5" font-family="Helvetica,sans-Serif" font-size="10.00">nVertices</text>
<text text-anchor="middle" x="405.5" y="-167.5" font-family="Helvetica,sans-Serif" font-size="10.00">segmentFlags</text>
<text text-anchor="middle" x="405.5" y="-156.5" font-family="Helvetica,sans-Serif" font-size="10.00">sFlags</text>
<text text-anchor="middle" x="405.5" y="-145.5" font-family="Helvetica,sans-Serif" font-size="10.00">hN</text>
<text text-anchor="middle" x="405.5" y="-134.5" font-family="Helvetica,sans-Serif" font-size="10.00">vN</text>
<text text-anchor="middle" x="405.5" y="-123.5" font-family="Helvetica,sans-Serif" font-size="10.00">regionFlags</text>
<text text-anchor="middle" x="405.5" y="-112.5" font-family="Helvetica,sans-Serif" font-size="10.00">vertexAttributes</text>
<text text-anchor="middle" x="405.5" y="-101.5" font-family="Helvetica,sans-Serif" font-size="10.00">s</text>
<text text-anchor="middle" x="405.5" y="-90.5" font-family="Helvetica,sans-Serif" font-size="10.00">sN</text>
<text text-anchor="middle" x="405.5" y="-79.5" font-family="Helvetica,sans-Serif" font-size="10.00">...</text>
</g>
<!-- Node7&#45;&gt;Node6 -->
<g id="edge6" class="edge"><title>Node7&#45;&gt;Node6</title>
<path fill="none" stroke="#9a32cd" stroke-dasharray="5,2" d="M262.166,-38.6952C290.286,-34.1126 323.499,-28.7002 350.765,-24.2568"/>
<polygon fill="#9a32cd" stroke="#9a32cd" points="261.363,-35.2798 252.056,-40.3427 262.489,-42.1886 261.363,-35.2798"/>
<text text-anchor="middle" x="304.5" y="-38.5" font-family="Helvetica,sans-Serif" font-size="10.00"> elements</text>
</g>
<!-- Node8&#45;&gt;Node1 -->
<g id="edge7" class="edge"><title>Node8&#45;&gt;Node1</title>
<path fill="none" stroke="#9a32cd" stroke-dasharray="5,2" d="M470.336,-230.009C490.703,-232.539 513.32,-235.489 534,-238.5 549.44,-240.748 566.149,-243.418 581.505,-245.968"/>
<polygon fill="#9a32cd" stroke="#9a32cd" points="470.578,-226.512 460.225,-228.764 469.722,-233.46 470.578,-226.512"/>
<text text-anchor="middle" x="508" y="-252.5" font-family="Helvetica,sans-Serif" font-size="10.00"> holes</text>
<text text-anchor="middle" x="508" y="-241.5" font-family="Helvetica,sans-Serif" font-size="10.00">vertices</text>
</g>
<!-- Node9&#45;&gt;Node1 -->
<g id="edge9" class="edge"><title>Node9&#45;&gt;Node1</title>
<path fill="none" stroke="#9a32cd" stroke-dasharray="5,2" d="M438.934,-377.811C447.221,-374.049 456.036,-369.811 464,-365.5 525.534,-332.19 594.514,-285.006 623.041,-265.027"/>
<polygon fill="#9a32cd" stroke="#9a32cd" points="437.251,-374.728 429.531,-381.985 440.091,-381.126 437.251,-374.728"/>
<text text-anchor="middle" x="508" y="-357.5" font-family="Helvetica,sans-Serif" font-size="10.00"> line</text>
</g>
</g>
</svg>
