<?xml version="1.0" encoding="UTF-8" standalone="no"?>
<!DOCTYPE svg PUBLIC "-//W3C//DTD SVG 1.1//EN"
 "http://www.w3.org/Graphics/SVG/1.1/DTD/svg11.dtd">
<!-- Generated by graphviz version 2.38.0 (20140413.2041)
 -->
<!-- Title: VGMorig Pages: 1 -->
<svg width="79pt" height="196pt"
 viewBox="0.00 0.00 79.00 196.00" xmlns="http://www.w3.org/2000/svg" xmlns:xlink="http://www.w3.org/1999/xlink">
<g id="graph0" class="graph" transform="scale(1 1) rotate(0) translate(4 192)">
<title>VGMorig</title>
<polygon fill="white" stroke="none" points="-4,4 -4,-192 75,-192 75,4 -4,4"/>
<!-- Node1 -->
<g id="node1" class="node"><title>Node1</title>
<polygon fill="#bfbfbf" stroke="black" points="7,-112.5 7,-131.5 64,-131.5 64,-112.5 7,-112.5"/>
<text text-anchor="middle" x="35.5" y="-119.5" font-family="Helvetica,sans-Serif" font-size="10.00">VGMorig</text>
</g>
<!-- Node3 -->
<g id="node3" class="node"><title>Node3</title>
<g id="a_node3"><a xlink:href="class_v_g_m.html" target="_top" xlink:title="VGM">
<polygon fill="white" stroke="black" points="16,-56.5 16,-75.5 55,-75.5 55,-56.5 16,-56.5"/>
<text text-anchor="middle" x="35.5" y="-63.5" font-family="Helvetica,sans-Serif" font-size="10.00">VGM</text>
</a>
</g>
</g>
<!-- Node1&#45;&gt;Node3 -->
<g id="edge2" class="edge"><title>Node1&#45;&gt;Node3</title>
<path fill="none" stroke="midnightblue" d="M35.5,-101.805C35.5,-92.9102 35.5,-82.7798 35.5,-75.7511"/>
<polygon fill="midnightblue" stroke="midnightblue" points="32.0001,-102.083 35.5,-112.083 39.0001,-102.083 32.0001,-102.083"/>
</g>
<!-- Node2 -->
<g id="node2" class="node"><title>Node2</title>
<g id="a_node2"><a xlink:href="class_psk_relation.html" target="_top" xlink:title="PskRelation">
<polygon fill="white" stroke="black" points="0,-168.5 0,-187.5 71,-187.5 71,-168.5 0,-168.5"/>
<text text-anchor="middle" x="35.5" y="-175.5" font-family="Helvetica,sans-Serif" font-size="10.00">PskRelation</text>
</a>
</g>
</g>
<!-- Node2&#45;&gt;Node1 -->
<g id="edge1" class="edge"><title>Node2&#45;&gt;Node1</title>
<path fill="none" stroke="midnightblue" d="M35.5,-157.805C35.5,-148.91 35.5,-138.78 35.5,-131.751"/>
<polygon fill="midnightblue" stroke="midnightblue" points="32.0001,-158.083 35.5,-168.083 39.0001,-158.083 32.0001,-158.083"/>
</g>
<!-- Node4 -->
<g id="node4" class="node"><title>Node4</title>
<g id="a_node4"><a xlink:href="class_v_g_b.html" target="_top" xlink:title="VGB">
<polygon fill="white" stroke="black" points="16.5,-0.5 16.5,-19.5 54.5,-19.5 54.5,-0.5 16.5,-0.5"/>
<text text-anchor="middle" x="35.5" y="-7.5" font-family="Helvetica,sans-Serif" font-size="10.00">VGB</text>
</a>
</g>
</g>
<!-- Node3&#45;&gt;Node4 -->
<g id="edge3" class="edge"><title>Node3&#45;&gt;Node4</title>
<path fill="none" stroke="midnightblue" d="M35.5,-45.8045C35.5,-36.9102 35.5,-26.7798 35.5,-19.7511"/>
<polygon fill="midnightblue" stroke="midnightblue" points="32.0001,-46.083 35.5,-56.083 39.0001,-46.083 32.0001,-46.083"/>
</g>
</g>
</svg>
