<?xml version="1.0" encoding="UTF-8" standalone="no"?>
<!DOCTYPE svg PUBLIC "-//W3C//DTD SVG 1.1//EN"
 "http://www.w3.org/Graphics/SVG/1.1/DTD/svg11.dtd">
<!-- Generated by graphviz version 2.38.0 (20140413.2041)
 -->
<!-- Title: cppRigidBody Pages: 1 -->
<svg width="264pt" height="252pt"
 viewBox="0.00 0.00 263.50 252.00" xmlns="http://www.w3.org/2000/svg" xmlns:xlink="http://www.w3.org/1999/xlink">
<g id="graph0" class="graph" transform="scale(1 1) rotate(0) translate(4 248)">
<title>cppRigidBody</title>
<polygon fill="white" stroke="none" points="-4,4 -4,-248 259.5,-248 259.5,4 -4,4"/>
<!-- Node1 -->
<g id="node1" class="node"><title>Node1</title>
<polygon fill="#bfbfbf" stroke="black" points="107.5,-0.5 107.5,-19.5 187.5,-19.5 187.5,-0.5 107.5,-0.5"/>
<text text-anchor="middle" x="147.5" y="-7.5" font-family="Helvetica,sans-Serif" font-size="10.00">cppRigidBody</text>
</g>
<!-- Node2 -->
<g id="node2" class="node"><title>Node2</title>
<g id="a_node2"><a xlink:href="classcpp_system.html" target="_top" xlink:title="cppSystem">
<polygon fill="white" stroke="black" points="16,-89.5 16,-108.5 87,-108.5 87,-89.5 16,-89.5"/>
<text text-anchor="middle" x="51.5" y="-96.5" font-family="Helvetica,sans-Serif" font-size="10.00">cppSystem</text>
</a>
</g>
</g>
<!-- Node2&#45;&gt;Node1 -->
<g id="edge1" class="edge"><title>Node2&#45;&gt;Node1</title>
<path fill="none" stroke="#9a32cd" stroke-dasharray="5,2" d="M68.0219,-82.0613C80.8168,-69.8283 99.0706,-52.6145 115.5,-38 122.56,-31.7195 130.702,-24.8551 137.006,-19.6193"/>
<polygon fill="#9a32cd" stroke="#9a32cd" points="65.2673,-79.8538 60.4761,-89.3035 70.1144,-84.9041 65.2673,-79.8538"/>
<text text-anchor="middle" x="135" y="-52" font-family="Helvetica,sans-Serif" font-size="10.00"> system</text>
</g>
<!-- Node3 -->
<g id="node3" class="node"><title>Node3</title>
<g id="a_node3"><a xlink:title="STL class. ">
<polygon fill="white" stroke="#bfbfbf" points="19,-156.5 19,-175.5 84,-175.5 84,-156.5 19,-156.5"/>
<text text-anchor="middle" x="51.5" y="-163.5" font-family="Helvetica,sans-Serif" font-size="10.00">std::string</text>
</a>
</g>
</g>
<!-- Node3&#45;&gt;Node2 -->
<g id="edge2" class="edge"><title>Node3&#45;&gt;Node2</title>
<path fill="none" stroke="#9a32cd" stroke-dasharray="5,2" d="M51.5,-146.037C51.5,-133.67 51.5,-118.12 51.5,-108.627"/>
<polygon fill="#9a32cd" stroke="#9a32cd" points="48.0001,-146.234 51.5,-156.234 55.0001,-146.234 48.0001,-146.234"/>
<text text-anchor="middle" x="74.5" y="-130" font-family="Helvetica,sans-Serif" font-size="10.00"> directory</text>
</g>
<!-- Node4 -->
<g id="node4" class="node"><title>Node4</title>
<g id="a_node4"><a xlink:title="STL class. ">
<polygon fill="white" stroke="#bfbfbf" points="0,-213.5 0,-243.5 103,-243.5 103,-213.5 0,-213.5"/>
<text text-anchor="start" x="8" y="-231.5" font-family="Helvetica,sans-Serif" font-size="10.00">std::basic_string&lt;</text>
<text text-anchor="middle" x="51.5" y="-220.5" font-family="Helvetica,sans-Serif" font-size="10.00"> char &gt;</text>
</a>
</g>
</g>
<!-- Node4&#45;&gt;Node3 -->
<g id="edge3" class="edge"><title>Node4&#45;&gt;Node3</title>
<path fill="none" stroke="midnightblue" d="M51.5,-203.352C51.5,-193.513 51.5,-182.775 51.5,-175.54"/>
<polygon fill="midnightblue" stroke="midnightblue" points="48.0001,-203.468 51.5,-213.468 55.0001,-203.468 48.0001,-203.468"/>
</g>
<!-- Node5 -->
<g id="node5" class="node"><title>Node5</title>
<polygon fill="white" stroke="#bfbfbf" points="105.5,-89.5 105.5,-108.5 255.5,-108.5 255.5,-89.5 105.5,-89.5"/>
<text text-anchor="middle" x="180.5" y="-96.5" font-family="Helvetica,sans-Serif" font-size="10.00">std::vector&lt; ChVector&lt;&gt; &gt;</text>
</g>
<!-- Node5&#45;&gt;Node1 -->
<g id="edge4" class="edge"><title>Node5&#45;&gt;Node1</title>
<path fill="none" stroke="#9a32cd" stroke-dasharray="5,2" d="M173.662,-79.9727C166.66,-61.514 156.075,-33.6071 150.772,-19.6249"/>
<polygon fill="#9a32cd" stroke="#9a32cd" points="170.396,-81.2314 177.215,-89.34 176.941,-78.7487 170.396,-81.2314"/>
<text text-anchor="middle" x="213" y="-63" font-family="Helvetica,sans-Serif" font-size="10.00"> trimesh_pos_last</text>
<text text-anchor="middle" x="213" y="-52" font-family="Helvetica,sans-Serif" font-size="10.00">trimesh_pos0</text>
<text text-anchor="middle" x="213" y="-41" font-family="Helvetica,sans-Serif" font-size="10.00">trimesh_pos</text>
</g>
</g>
</svg>
