<?xml version="1.0" encoding="UTF-8" standalone="no"?>
<!DOCTYPE svg PUBLIC "-//W3C//DTD SVG 1.1//EN"
 "http://www.w3.org/Graphics/SVG/1.1/DTD/svg11.dtd">
<!-- Generated by graphviz version 2.38.0 (20140413.2041)
 -->
<!-- Title: proteus::VOF_base Pages: 1 -->
<svg width="196pt" height="216pt"
 viewBox="0.00 0.00 195.50 216.00" xmlns="http://www.w3.org/2000/svg" xmlns:xlink="http://www.w3.org/1999/xlink">
<g id="graph0" class="graph" transform="scale(1 1) rotate(0) translate(4 212)">
<title>proteus::VOF_base</title>
<polygon fill="white" stroke="none" points="-4,4 -4,-212 191.5,-212 191.5,4 -4,4"/>
<!-- Node1 -->
<g id="node1" class="node"><title>Node1</title>
<polygon fill="#bfbfbf" stroke="black" points="12,-0.5 12,-19.5 119,-19.5 119,-0.5 12,-0.5"/>
<text text-anchor="middle" x="65.5" y="-7.5" font-family="Helvetica,sans-Serif" font-size="10.00">proteus::VOF_base</text>
</g>
<!-- Node2 -->
<g id="node2" class="node"><title>Node2</title>
<polygon fill="white" stroke="#bfbfbf" points="0,-188.5 0,-207.5 131,-207.5 131,-188.5 0,-188.5"/>
<text text-anchor="middle" x="65.5" y="-195.5" font-family="Helvetica,sans-Serif" font-size="10.00">std::valarray&lt; double &gt;</text>
</g>
<!-- Node2&#45;&gt;Node1 -->
<g id="edge1" class="edge"><title>Node2&#45;&gt;Node1</title>
<path fill="none" stroke="#9a32cd" stroke-dasharray="5,2" d="M65.5,-177.86C65.5,-138.211 65.5,-48.4172 65.5,-19.8812"/>
<polygon fill="#9a32cd" stroke="#9a32cd" points="62.0001,-178.029 65.5,-188.029 69.0001,-178.029 62.0001,-178.029"/>
<text text-anchor="middle" x="126.5" y="-162" font-family="Helvetica,sans-Serif" font-size="10.00"> boundary_integral</text>
<text text-anchor="middle" x="126.5" y="-151" font-family="Helvetica,sans-Serif" font-size="10.00">psi</text>
<text text-anchor="middle" x="126.5" y="-140" font-family="Helvetica,sans-Serif" font-size="10.00">Rpos</text>
<text text-anchor="middle" x="126.5" y="-129" font-family="Helvetica,sans-Serif" font-size="10.00">maxEntRes</text>
<text text-anchor="start" x="65.5" y="-118" font-family="Helvetica,sans-Serif" font-size="10.00">global_entropy</text>
<text text-anchor="middle" x="126.5" y="-107" font-family="Helvetica,sans-Serif" font-size="10.00">_residual</text>
<text text-anchor="middle" x="126.5" y="-96" font-family="Helvetica,sans-Serif" font-size="10.00">FluxCorrectionMatrix</text>
<text text-anchor="middle" x="126.5" y="-85" font-family="Helvetica,sans-Serif" font-size="10.00">TransposeTransportMatrix</text>
<text text-anchor="middle" x="126.5" y="-74" font-family="Helvetica,sans-Serif" font-size="10.00">maxVel</text>
<text text-anchor="middle" x="126.5" y="-63" font-family="Helvetica,sans-Serif" font-size="10.00">TransportMatrix</text>
<text text-anchor="middle" x="126.5" y="-52" font-family="Helvetica,sans-Serif" font-size="10.00">Rneg</text>
<text text-anchor="middle" x="126.5" y="-41" font-family="Helvetica,sans-Serif" font-size="10.00">...</text>
</g>
</g>
</svg>
