<?xml version="1.0" encoding="UTF-8" standalone="no"?>
<!DOCTYPE svg PUBLIC "-//W3C//DTD SVG 1.1//EN"
 "http://www.w3.org/Graphics/SVG/1.1/DTD/svg11.dtd">
<!-- Generated by graphviz version 2.38.0 (20140413.2041)
 -->
<!-- Title: proteus::cppPres_base Pages: 1 -->
<svg width="388pt" height="72pt"
 viewBox="0.00 0.00 388.00 72.00" xmlns="http://www.w3.org/2000/svg" xmlns:xlink="http://www.w3.org/1999/xlink">
<g id="graph0" class="graph" transform="scale(1 1) rotate(0) translate(4 68)">
<title>proteus::cppPres_base</title>
<polygon fill="white" stroke="none" points="-4,4 -4,-68 384,-68 384,4 -4,4"/>
<!-- Node1 -->
<g id="node1" class="node"><title>Node1</title>
<polygon fill="#bfbfbf" stroke="black" points="0,-22.5 0,-41.5 126,-41.5 126,-22.5 0,-22.5"/>
<text text-anchor="middle" x="63" y="-29.5" font-family="Helvetica,sans-Serif" font-size="10.00">proteus::cppPres_base</text>
</g>
<!-- Node2 -->
<g id="node2" class="node"><title>Node2</title>
<g id="a_node2"><a xlink:href="classproteus_1_1cpp_pres.html" target="_top" xlink:title="proteus::cppPres\&lt; CompKernel\lType, nSpace, nQuadraturePoints\l_element, nDOF_mesh_trial_element,\l nDOF_trial_element, nDOF_test_element,\l nQuadraturePoints_elementBoundary \&gt;">
<polygon fill="white" stroke="black" points="162,-0.5 162,-63.5 380,-63.5 380,-0.5 162,-0.5"/>
<text text-anchor="start" x="170" y="-51.5" font-family="Helvetica,sans-Serif" font-size="10.00">proteus::cppPres&lt; CompKernel</text>
<text text-anchor="start" x="170" y="-40.5" font-family="Helvetica,sans-Serif" font-size="10.00">Type, nSpace, nQuadraturePoints</text>
<text text-anchor="start" x="170" y="-29.5" font-family="Helvetica,sans-Serif" font-size="10.00">_element, nDOF_mesh_trial_element,</text>
<text text-anchor="start" x="170" y="-18.5" font-family="Helvetica,sans-Serif" font-size="10.00"> nDOF_trial_element, nDOF_test_element,</text>
<text text-anchor="middle" x="271" y="-7.5" font-family="Helvetica,sans-Serif" font-size="10.00"> nQuadraturePoints_elementBoundary &gt;</text>
</a>
</g>
</g>
<!-- Node1&#45;&gt;Node2 -->
<g id="edge1" class="edge"><title>Node1&#45;&gt;Node2</title>
<path fill="none" stroke="midnightblue" d="M136.131,-32C144.501,-32 153.172,-32 161.891,-32"/>
<polygon fill="midnightblue" stroke="midnightblue" points="136.086,-28.5001 126.086,-32 136.086,-35.5001 136.086,-28.5001"/>
</g>
</g>
</svg>
