<?xml version="1.0" encoding="UTF-8" standalone="no"?>
<!DOCTYPE svg PUBLIC "-//W3C//DTD SVG 1.1//EN"
 "http://www.w3.org/Graphics/SVG/1.1/DTD/svg11.dtd">
<!-- Generated by graphviz version 2.38.0 (20140413.2041)
 -->
<!-- Title: proteus::GN_SW2DCV&lt; CompKernelType, nSpace, nQuadraturePoints_element, nDOF_mesh_trial_element, nDOF_trial_element, nDOF_test_element, nQuadraturePoints_elementBoundary &gt; Pages: 1 -->
<svg width="268pt" height="317pt"
 viewBox="0.00 0.00 268.00 317.00" xmlns="http://www.w3.org/2000/svg" xmlns:xlink="http://www.w3.org/1999/xlink">
<g id="graph0" class="graph" transform="scale(1 1) rotate(0) translate(4 313)">
<title>proteus::GN_SW2DCV&lt; CompKernelType, nSpace, nQuadraturePoints_element, nDOF_mesh_trial_element, nDOF_trial_element, nDOF_test_element, nQuadraturePoints_elementBoundary &gt;</title>
<polygon fill="white" stroke="none" points="-4,4 -4,-313 264,-313 264,4 -4,4"/>
<!-- Node1 -->
<g id="node1" class="node"><title>Node1</title>
<polygon fill="#bfbfbf" stroke="black" points="0,-0.5 0,-74.5 260,-74.5 260,-0.5 0,-0.5"/>
<text text-anchor="start" x="8" y="-62.5" font-family="Helvetica,sans-Serif" font-size="10.00">proteus::GN_SW2DCV</text>
<text text-anchor="start" x="8" y="-51.5" font-family="Helvetica,sans-Serif" font-size="10.00">&lt; CompKernelType, nSpace,</text>
<text text-anchor="start" x="8" y="-40.5" font-family="Helvetica,sans-Serif" font-size="10.00"> nQuadraturePoints_element,</text>
<text text-anchor="start" x="8" y="-29.5" font-family="Helvetica,sans-Serif" font-size="10.00"> nDOF_mesh_trial_element,</text>
<text text-anchor="start" x="8" y="-18.5" font-family="Helvetica,sans-Serif" font-size="10.00"> nDOF_trial_element, nDOF_test</text>
<text text-anchor="middle" x="130" y="-7.5" font-family="Helvetica,sans-Serif" font-size="10.00">_element, nQuadraturePoints_elementBoundary &gt;</text>
</g>
<!-- Node2 -->
<g id="node2" class="node"><title>Node2</title>
<g id="a_node2"><a xlink:href="classproteus_1_1_g_n___s_w2_d_c_v__base.html" target="_top" xlink:title="proteus::GN_SW2DCV_base">
<polygon fill="white" stroke="black" points="55,-112.5 55,-131.5 205,-131.5 205,-112.5 55,-112.5"/>
<text text-anchor="middle" x="130" y="-119.5" font-family="Helvetica,sans-Serif" font-size="10.00">proteus::GN_SW2DCV_base</text>
</a>
</g>
</g>
<!-- Node2&#45;&gt;Node1 -->
<g id="edge1" class="edge"><title>Node2&#45;&gt;Node1</title>
<path fill="none" stroke="midnightblue" d="M130,-102.297C130,-94.1404 130,-84.2866 130,-74.7889"/>
<polygon fill="midnightblue" stroke="midnightblue" points="126.5,-102.482 130,-112.482 133.5,-102.482 126.5,-102.482"/>
</g>
<!-- Node3 -->
<g id="node3" class="node"><title>Node3</title>
<polygon fill="white" stroke="#bfbfbf" points="64.5,-289.5 64.5,-308.5 195.5,-308.5 195.5,-289.5 64.5,-289.5"/>
<text text-anchor="middle" x="130" y="-296.5" font-family="Helvetica,sans-Serif" font-size="10.00">std::valarray&lt; double &gt;</text>
</g>
<!-- Node3&#45;&gt;Node2 -->
<g id="edge2" class="edge"><title>Node3&#45;&gt;Node2</title>
<path fill="none" stroke="#9a32cd" stroke-dasharray="5,2" d="M130,-278.951C130,-241.297 130,-158.654 130,-131.693"/>
<polygon fill="#9a32cd" stroke="#9a32cd" points="126.5,-279.081 130,-289.081 133.5,-279.081 126.5,-279.081"/>
<text text-anchor="middle" x="156" y="-263" font-family="Helvetica,sans-Serif" font-size="10.00"> Rpos</text>
<text text-anchor="middle" x="156" y="-252" font-family="Helvetica,sans-Serif" font-size="10.00">hwLow</text>
<text text-anchor="middle" x="156" y="-241" font-family="Helvetica,sans-Serif" font-size="10.00">Rpos_heta</text>
<text text-anchor="middle" x="156" y="-230" font-family="Helvetica,sans-Serif" font-size="10.00">Rneg_heta</text>
<text text-anchor="middle" x="156" y="-219" font-family="Helvetica,sans-Serif" font-size="10.00">hvLow</text>
<text text-anchor="middle" x="156" y="-208" font-family="Helvetica,sans-Serif" font-size="10.00">huLow</text>
<text text-anchor="middle" x="156" y="-197" font-family="Helvetica,sans-Serif" font-size="10.00">Kmax</text>
<text text-anchor="middle" x="156" y="-186" font-family="Helvetica,sans-Serif" font-size="10.00">Rneg</text>
<text text-anchor="middle" x="156" y="-175" font-family="Helvetica,sans-Serif" font-size="10.00">hLow</text>
<text text-anchor="middle" x="156" y="-164" font-family="Helvetica,sans-Serif" font-size="10.00">hetaLow</text>
<text text-anchor="middle" x="156" y="-153" font-family="Helvetica,sans-Serif" font-size="10.00">...</text>
</g>
</g>
</svg>
