<?xml version="1.0" encoding="UTF-8" standalone="no"?>
<!DOCTYPE svg PUBLIC "-//W3C//DTD SVG 1.1//EN"
 "http://www.w3.org/Graphics/SVG/1.1/DTD/svg11.dtd">
<!-- Generated by graphviz version 2.38.0 (20140413.2041)
 -->
<!-- Title: proteus::SW2DCV&lt; CompKernelType, nSpace, nQuadraturePoints_element, nDOF_mesh_trial_element, nDOF_trial_element, nDOF_test_element, nQuadraturePoints_elementBoundary &gt; Pages: 1 -->
<svg width="226pt" height="251pt"
 viewBox="0.00 0.00 226.00 251.00" xmlns="http://www.w3.org/2000/svg" xmlns:xlink="http://www.w3.org/1999/xlink">
<g id="graph0" class="graph" transform="scale(1 1) rotate(0) translate(4 247)">
<title>proteus::SW2DCV&lt; CompKernelType, nSpace, nQuadraturePoints_element, nDOF_mesh_trial_element, nDOF_trial_element, nDOF_test_element, nQuadraturePoints_elementBoundary &gt;</title>
<polygon fill="white" stroke="none" points="-4,4 -4,-247 222,-247 222,4 -4,4"/>
<!-- Node1 -->
<g id="node1" class="node"><title>Node1</title>
<polygon fill="#bfbfbf" stroke="black" points="0,-0.5 0,-63.5 218,-63.5 218,-0.5 0,-0.5"/>
<text text-anchor="start" x="8" y="-51.5" font-family="Helvetica,sans-Serif" font-size="10.00">proteus::SW2DCV&lt; CompKernel</text>
<text text-anchor="start" x="8" y="-40.5" font-family="Helvetica,sans-Serif" font-size="10.00">Type, nSpace, nQuadraturePoints</text>
<text text-anchor="start" x="8" y="-29.5" font-family="Helvetica,sans-Serif" font-size="10.00">_element, nDOF_mesh_trial_element,</text>
<text text-anchor="start" x="8" y="-18.5" font-family="Helvetica,sans-Serif" font-size="10.00"> nDOF_trial_element, nDOF_test_element,</text>
<text text-anchor="middle" x="109" y="-7.5" font-family="Helvetica,sans-Serif" font-size="10.00"> nQuadraturePoints_elementBoundary &gt;</text>
</g>
<!-- Node2 -->
<g id="node2" class="node"><title>Node2</title>
<g id="a_node2"><a xlink:href="classproteus_1_1_s_w2_d_c_v__base.html" target="_top" xlink:title="proteus::SW2DCV_base">
<polygon fill="white" stroke="black" points="44,-101.5 44,-120.5 174,-120.5 174,-101.5 44,-101.5"/>
<text text-anchor="middle" x="109" y="-108.5" font-family="Helvetica,sans-Serif" font-size="10.00">proteus::SW2DCV_base</text>
</a>
</g>
</g>
<!-- Node2&#45;&gt;Node1 -->
<g id="edge1" class="edge"><title>Node2&#45;&gt;Node1</title>
<path fill="none" stroke="midnightblue" d="M109,-91.3632C109,-83.0099 109,-72.9385 109,-63.5309"/>
<polygon fill="midnightblue" stroke="midnightblue" points="105.5,-91.4654 109,-101.465 112.5,-91.4655 105.5,-91.4654"/>
</g>
<!-- Node3 -->
<g id="node3" class="node"><title>Node3</title>
<polygon fill="white" stroke="#bfbfbf" points="43.5,-223.5 43.5,-242.5 174.5,-242.5 174.5,-223.5 43.5,-223.5"/>
<text text-anchor="middle" x="109" y="-230.5" font-family="Helvetica,sans-Serif" font-size="10.00">std::valarray&lt; double &gt;</text>
</g>
<!-- Node3&#45;&gt;Node2 -->
<g id="edge2" class="edge"><title>Node3&#45;&gt;Node2</title>
<path fill="none" stroke="#9a32cd" stroke-dasharray="5,2" d="M109,-213.145C109,-186.723 109,-139.764 109,-120.552"/>
<polygon fill="#9a32cd" stroke="#9a32cd" points="105.5,-213.37 109,-223.37 112.5,-213.37 105.5,-213.37"/>
<text text-anchor="middle" x="124.5" y="-197" font-family="Helvetica,sans-Serif" font-size="10.00"> Rpos</text>
<text text-anchor="middle" x="124.5" y="-186" font-family="Helvetica,sans-Serif" font-size="10.00">hvLow</text>
<text text-anchor="middle" x="124.5" y="-175" font-family="Helvetica,sans-Serif" font-size="10.00">huLow</text>
<text text-anchor="middle" x="124.5" y="-164" font-family="Helvetica,sans-Serif" font-size="10.00">Kmax</text>
<text text-anchor="middle" x="124.5" y="-153" font-family="Helvetica,sans-Serif" font-size="10.00">Rneg</text>
<text text-anchor="middle" x="124.5" y="-142" font-family="Helvetica,sans-Serif" font-size="10.00">hLow</text>
</g>
</g>
</svg>
