<?xml version="1.0" encoding="UTF-8" standalone="no"?>
<!DOCTYPE svg PUBLIC "-//W3C//DTD SVG 1.1//EN"
 "http://www.w3.org/Graphics/SVG/1.1/DTD/svg11.dtd">
<!-- Generated by graphviz version 2.38.0 (20140413.2041)
 -->
<!-- Title: proteus::MCorr&lt; CompKernelType, nSpace, nQuadraturePoints_element, nDOF_mesh_trial_element, nDOF_trial_element, nDOF_test_element, nQuadraturePoints_elementBoundary &gt; Pages: 1 -->
<svg width="768pt" height="194pt"
 viewBox="0.00 0.00 768.00 193.50" xmlns="http://www.w3.org/2000/svg" xmlns:xlink="http://www.w3.org/1999/xlink">
<g id="graph0" class="graph" transform="scale(1 1) rotate(0) translate(4 189.5)">
<title>proteus::MCorr&lt; CompKernelType, nSpace, nQuadraturePoints_element, nDOF_mesh_trial_element, nDOF_trial_element, nDOF_test_element, nQuadraturePoints_elementBoundary &gt;</title>
<polygon fill="white" stroke="none" points="-4,4 -4,-189.5 764,-189.5 764,4 -4,4"/>
<!-- Node1 -->
<g id="node1" class="node"><title>Node1</title>
<polygon fill="#bfbfbf" stroke="black" points="542,-66 542,-129 760,-129 760,-66 542,-66"/>
<text text-anchor="start" x="550" y="-117" font-family="Helvetica,sans-Serif" font-size="10.00">proteus::MCorr&lt; CompKernel</text>
<text text-anchor="start" x="550" y="-106" font-family="Helvetica,sans-Serif" font-size="10.00">Type, nSpace, nQuadraturePoints</text>
<text text-anchor="start" x="550" y="-95" font-family="Helvetica,sans-Serif" font-size="10.00">_element, nDOF_mesh_trial_element,</text>
<text text-anchor="start" x="550" y="-84" font-family="Helvetica,sans-Serif" font-size="10.00"> nDOF_trial_element, nDOF_test_element,</text>
<text text-anchor="middle" x="651" y="-73" font-family="Helvetica,sans-Serif" font-size="10.00"> nQuadraturePoints_elementBoundary &gt;</text>
</g>
<!-- Node2 -->
<g id="node2" class="node"><title>Node2</title>
<g id="a_node2"><a xlink:href="classproteus_1_1_m_corr__base.html" target="_top" xlink:title="proteus::MCorr_base">
<polygon fill="white" stroke="black" points="304,-143 304,-162 420,-162 420,-143 304,-143"/>
<text text-anchor="middle" x="362" y="-150" font-family="Helvetica,sans-Serif" font-size="10.00">proteus::MCorr_base</text>
</a>
</g>
</g>
<!-- Node2&#45;&gt;Node1 -->
<g id="edge1" class="edge"><title>Node2&#45;&gt;Node1</title>
<path fill="none" stroke="midnightblue" d="M422.56,-141.086C457.004,-134.485 501.398,-125.978 541.809,-118.234"/>
<polygon fill="midnightblue" stroke="midnightblue" points="421.826,-137.663 412.664,-142.983 423.144,-144.538 421.826,-137.663"/>
</g>
<!-- Node3 -->
<g id="node3" class="node"><title>Node3</title>
<polygon fill="white" stroke="#bfbfbf" points="0,-143 0,-162 131,-162 131,-143 0,-143"/>
<text text-anchor="middle" x="65.5" y="-150" font-family="Helvetica,sans-Serif" font-size="10.00">std::valarray&lt; double &gt;</text>
</g>
<!-- Node3&#45;&gt;Node2 -->
<g id="edge2" class="edge"><title>Node3&#45;&gt;Node2</title>
<path fill="none" stroke="#9a32cd" stroke-dasharray="5,2" d="M141.353,-152.5C191.92,-152.5 257.651,-152.5 303.984,-152.5"/>
<polygon fill="#9a32cd" stroke="#9a32cd" points="141.129,-149 131.129,-152.5 141.129,-156 141.129,-149"/>
<text text-anchor="middle" x="198" y="-177.5" font-family="Helvetica,sans-Serif" font-size="10.00"> Rpos</text>
<text text-anchor="middle" x="198" y="-166.5" font-family="Helvetica,sans-Serif" font-size="10.00">FluxCorrectionMatrix</text>
<text text-anchor="middle" x="198" y="-155.5" font-family="Helvetica,sans-Serif" font-size="10.00">Rneg</text>
</g>
<!-- Node4 -->
<g id="node4" class="node"><title>Node4</title>
<g id="a_node4"><a xlink:href="classequivalent__polynomials_1_1_generalized_functions__mix.html" target="_top" xlink:title="equivalent_polynomials\l::GeneralizedFunctions\l_mix\&lt; nSpace, 1, nDOF_trial\l_element \&gt;">
<polygon fill="white" stroke="black" points="285,-71.5 285,-123.5 439,-123.5 439,-71.5 285,-71.5"/>
<text text-anchor="start" x="293" y="-111.5" font-family="Helvetica,sans-Serif" font-size="10.00">equivalent_polynomials</text>
<text text-anchor="start" x="293" y="-100.5" font-family="Helvetica,sans-Serif" font-size="10.00">::GeneralizedFunctions</text>
<text text-anchor="start" x="293" y="-89.5" font-family="Helvetica,sans-Serif" font-size="10.00">_mix&lt; nSpace, 1, nDOF_trial</text>
<text text-anchor="middle" x="362" y="-78.5" font-family="Helvetica,sans-Serif" font-size="10.00">_element &gt;</text>
</a>
</g>
</g>
<!-- Node4&#45;&gt;Node1 -->
<g id="edge3" class="edge"><title>Node4&#45;&gt;Node1</title>
<path fill="none" stroke="#9a32cd" stroke-dasharray="5,2" d="M449.291,-97.5C478.411,-97.5 511.291,-97.5 541.882,-97.5"/>
<polygon fill="#9a32cd" stroke="#9a32cd" points="449.157,-94.0001 439.157,-97.5 449.157,-101 449.157,-94.0001"/>
<text text-anchor="middle" x="500.5" y="-100.5" font-family="Helvetica,sans-Serif" font-size="10.00"> gf_nodes</text>
</g>
<!-- Node5 -->
<g id="node5" class="node"><title>Node5</title>
<g id="a_node5"><a xlink:href="classequivalent__polynomials_1_1_generalized_functions__mix.html" target="_top" xlink:title="equivalent_polynomials\l::GeneralizedFunctions\l_mix\&lt; nSpace, 1, nQuadraturePoints\l_element \&gt;">
<polygon fill="white" stroke="black" points="265,-0.5 265,-52.5 459,-52.5 459,-0.5 265,-0.5"/>
<text text-anchor="start" x="273" y="-40.5" font-family="Helvetica,sans-Serif" font-size="10.00">equivalent_polynomials</text>
<text text-anchor="start" x="273" y="-29.5" font-family="Helvetica,sans-Serif" font-size="10.00">::GeneralizedFunctions</text>
<text text-anchor="start" x="273" y="-18.5" font-family="Helvetica,sans-Serif" font-size="10.00">_mix&lt; nSpace, 1, nQuadraturePoints</text>
<text text-anchor="middle" x="362" y="-7.5" font-family="Helvetica,sans-Serif" font-size="10.00">_element &gt;</text>
</a>
</g>
</g>
<!-- Node5&#45;&gt;Node1 -->
<g id="edge4" class="edge"><title>Node5&#45;&gt;Node1</title>
<path fill="none" stroke="#9a32cd" stroke-dasharray="5,2" d="M469.362,-52.8126C492.911,-58.6384 517.894,-64.8187 541.526,-70.6651"/>
<polygon fill="#9a32cd" stroke="#9a32cd" points="469.913,-49.3435 459.365,-50.3395 468.232,-56.1386 469.913,-49.3435"/>
<text text-anchor="middle" x="500.5" y="-69.5" font-family="Helvetica,sans-Serif" font-size="10.00"> gf</text>
</g>
</g>
</svg>
