<?xml version="1.0" encoding="UTF-8" standalone="no"?>
<!DOCTYPE svg PUBLIC "-//W3C//DTD SVG 1.1//EN"
 "http://www.w3.org/Graphics/SVG/1.1/DTD/svg11.dtd">
<!-- Generated by graphviz version 2.38.0 (20140413.2041)
 -->
<!-- Title: createAnalyticGeometry.cpp Pages: 1 -->
<svg width="1449pt" height="196pt"
 viewBox="0.00 0.00 1448.50 196.00" xmlns="http://www.w3.org/2000/svg" xmlns:xlink="http://www.w3.org/1999/xlink">
<g id="graph0" class="graph" transform="scale(1 1) rotate(0) translate(4 192)">
<title>createAnalyticGeometry.cpp</title>
<polygon fill="white" stroke="none" points="-4,4 -4,-192 1444.5,-192 1444.5,4 -4,4"/>
<!-- Node1 -->
<g id="node1" class="node"><title>Node1</title>
<polygon fill="#bfbfbf" stroke="black" points="920,-168.5 920,-187.5 1072,-187.5 1072,-168.5 920,-168.5"/>
<text text-anchor="middle" x="996" y="-175.5" font-family="Helvetica,sans-Serif" font-size="10.00">createAnalyticGeometry.cpp</text>
</g>
<!-- Node2 -->
<g id="node2" class="node"><title>Node2</title>
<g id="a_node2"><a xlink:href="create_analytic_geometry_8h.html" target="_top" xlink:title="createAnalyticGeometry.h">
<polygon fill="white" stroke="black" points="537,-56.5 537,-75.5 677,-75.5 677,-56.5 537,-56.5"/>
<text text-anchor="middle" x="607" y="-63.5" font-family="Helvetica,sans-Serif" font-size="10.00">createAnalyticGeometry.h</text>
</a>
</g>
</g>
<!-- Node1&#45;&gt;Node2 -->
<g id="edge1" class="edge"><title>Node1&#45;&gt;Node2</title>
<path fill="none" stroke="midnightblue" d="M965.8,-168.46C896.353,-148.822 725.292,-100.45 647.13,-78.3477"/>
<polygon fill="midnightblue" stroke="midnightblue" points="647.756,-74.8877 637.181,-75.5345 645.852,-81.6236 647.756,-74.8877"/>
</g>
<!-- Node17 -->
<g id="node17" class="node"><title>Node17</title>
<g id="a_node17"><a xlink:href="_mesh_adapt_p_u_m_i_8h.html" target="_top" xlink:title="MeshAdaptPUMI.h">
<polygon fill="white" stroke="black" points="899,-112.5 899,-131.5 1003,-131.5 1003,-112.5 899,-112.5"/>
<text text-anchor="middle" x="951" y="-119.5" font-family="Helvetica,sans-Serif" font-size="10.00">MeshAdaptPUMI.h</text>
</a>
</g>
</g>
<!-- Node1&#45;&gt;Node17 -->
<g id="edge16" class="edge"><title>Node1&#45;&gt;Node17</title>
<path fill="none" stroke="midnightblue" d="M988.569,-168.083C982.147,-160.377 972.694,-149.033 964.878,-139.653"/>
<polygon fill="midnightblue" stroke="midnightblue" points="967.383,-137.193 958.293,-131.751 962.006,-141.674 967.383,-137.193"/>
</g>
<!-- Node27 -->
<g id="node27" class="node"><title>Node27</title>
<polygon fill="white" stroke="#bfbfbf" points="1021.5,-112.5 1021.5,-131.5 1062.5,-131.5 1062.5,-112.5 1021.5,-112.5"/>
<text text-anchor="middle" x="1042" y="-119.5" font-family="Helvetica,sans-Serif" font-size="10.00">ma.h</text>
</g>
<!-- Node1&#45;&gt;Node27 -->
<g id="edge32" class="edge"><title>Node1&#45;&gt;Node27</title>
<path fill="none" stroke="midnightblue" d="M1003.6,-168.083C1010.23,-160.298 1020.02,-148.801 1028.06,-139.367"/>
<polygon fill="midnightblue" stroke="midnightblue" points="1030.73,-141.633 1034.55,-131.751 1025.4,-137.094 1030.73,-141.633"/>
</g>
<!-- Node28 -->
<g id="node28" class="node"><title>Node28</title>
<polygon fill="white" stroke="#bfbfbf" points="1081,-112.5 1081,-131.5 1145,-131.5 1145,-112.5 1081,-112.5"/>
<text text-anchor="middle" x="1113" y="-119.5" font-family="Helvetica,sans-Serif" font-size="10.00">lionPrint.h</text>
</g>
<!-- Node1&#45;&gt;Node28 -->
<g id="edge33" class="edge"><title>Node1&#45;&gt;Node28</title>
<path fill="none" stroke="midnightblue" d="M1014.54,-168.444C1033.62,-159.636 1063.57,-145.812 1085.44,-135.722"/>
<polygon fill="midnightblue" stroke="midnightblue" points="1086.93,-138.885 1094.55,-131.516 1084,-132.529 1086.93,-138.885"/>
</g>
<!-- Node3 -->
<g id="node3" class="node"><title>Node3</title>
<polygon fill="white" stroke="#bfbfbf" points="0,-0.5 0,-19.5 40,-19.5 40,-0.5 0,-0.5"/>
<text text-anchor="middle" x="20" y="-7.5" font-family="Helvetica,sans-Serif" font-size="10.00">apf.h</text>
</g>
<!-- Node2&#45;&gt;Node3 -->
<g id="edge2" class="edge"><title>Node2&#45;&gt;Node3</title>
<path fill="none" stroke="midnightblue" d="M536.739,-64.2798C432.215,-62.1196 229.687,-53.7453 50.0291,-19.7731"/>
<polygon fill="midnightblue" stroke="midnightblue" points="50.6174,-16.3222 40.1366,-17.8719 49.2962,-23.1964 50.6174,-16.3222"/>
</g>
<!-- Node4 -->
<g id="node4" class="node"><title>Node4</title>
<polygon fill="white" stroke="#bfbfbf" points="148.5,-0.5 148.5,-19.5 211.5,-19.5 211.5,-0.5 148.5,-0.5"/>
<text text-anchor="middle" x="180" y="-7.5" font-family="Helvetica,sans-Serif" font-size="10.00">apfMDS.h</text>
</g>
<!-- Node2&#45;&gt;Node4 -->
<g id="edge3" class="edge"><title>Node2&#45;&gt;Node4</title>
<path fill="none" stroke="midnightblue" d="M536.771,-59.0807C461.191,-52.2037 337.289,-39.4682 221.884,-20.1801"/>
<polygon fill="midnightblue" stroke="midnightblue" points="222.26,-16.6941 211.817,-18.4769 221.093,-23.596 222.26,-16.6941"/>
</g>
<!-- Node5 -->
<g id="node5" class="node"><title>Node5</title>
<polygon fill="white" stroke="#bfbfbf" points="58,-0.5 58,-19.5 130,-19.5 130,-0.5 58,-0.5"/>
<text text-anchor="middle" x="94" y="-7.5" font-family="Helvetica,sans-Serif" font-size="10.00">apfMesh2.h</text>
</g>
<!-- Node2&#45;&gt;Node5 -->
<g id="edge4" class="edge"><title>Node2&#45;&gt;Node5</title>
<path fill="none" stroke="midnightblue" d="M536.957,-60.4938C447.275,-54.2262 286.91,-41.3459 140.372,-20.0677"/>
<polygon fill="midnightblue" stroke="midnightblue" points="140.697,-16.5779 130.294,-18.5877 139.679,-23.5036 140.697,-16.5779"/>
</g>
<!-- Node6 -->
<g id="node6" class="node"><title>Node6</title>
<polygon fill="white" stroke="#bfbfbf" points="229.5,-0.5 229.5,-19.5 300.5,-19.5 300.5,-0.5 229.5,-0.5"/>
<text text-anchor="middle" x="265" y="-7.5" font-family="Helvetica,sans-Serif" font-size="10.00">apfShape.h</text>
</g>
<!-- Node2&#45;&gt;Node6 -->
<g id="edge5" class="edge"><title>Node2&#45;&gt;Node6</title>
<path fill="none" stroke="midnightblue" d="M545.144,-56.4923C487.204,-48.3269 397.953,-35.2485 310.888,-20.0866"/>
<polygon fill="midnightblue" stroke="midnightblue" points="311.287,-16.6033 300.833,-18.3245 310.078,-23.4982 311.287,-16.6033"/>
</g>
<!-- Node7 -->
<g id="node7" class="node"><title>Node7</title>
<polygon fill="white" stroke="#bfbfbf" points="319,-0.5 319,-19.5 365,-19.5 365,-0.5 319,-0.5"/>
<text text-anchor="middle" x="342" y="-7.5" font-family="Helvetica,sans-Serif" font-size="10.00">PCU.h</text>
</g>
<!-- Node2&#45;&gt;Node7 -->
<g id="edge6" class="edge"><title>Node2&#45;&gt;Node7</title>
<path fill="none" stroke="midnightblue" d="M556.29,-56.4636C511.136,-48.5796 443.089,-36.0075 375.048,-20.092"/>
<polygon fill="midnightblue" stroke="midnightblue" points="375.549,-16.614 365.012,-17.7197 373.939,-23.4263 375.549,-16.614"/>
</g>
<!-- Node8 -->
<g id="node8" class="node"><title>Node8</title>
<polygon fill="white" stroke="#bfbfbf" points="383,-0.5 383,-19.5 469,-19.5 469,-0.5 383,-0.5"/>
<text text-anchor="middle" x="426" y="-7.5" font-family="Helvetica,sans-Serif" font-size="10.00">gmi_analytic.h</text>
</g>
<!-- Node2&#45;&gt;Node8 -->
<g id="edge7" class="edge"><title>Node2&#45;&gt;Node8</title>
<path fill="none" stroke="midnightblue" d="M578.32,-56.4435C547.473,-47.2406 498.272,-32.5617 464.171,-22.3879"/>
<polygon fill="midnightblue" stroke="midnightblue" points="465.129,-19.0215 454.546,-19.5164 463.128,-25.7293 465.129,-19.0215"/>
</g>
<!-- Node9 -->
<g id="node9" class="node"><title>Node9</title>
<polygon fill="white" stroke="#bfbfbf" points="487,-0.5 487,-19.5 563,-19.5 563,-0.5 487,-0.5"/>
<text text-anchor="middle" x="525" y="-7.5" font-family="Helvetica,sans-Serif" font-size="10.00">gmi_mesh.h</text>
</g>
<!-- Node2&#45;&gt;Node9 -->
<g id="edge8" class="edge"><title>Node2&#45;&gt;Node9</title>
<path fill="none" stroke="midnightblue" d="M593.825,-56.324C581.153,-47.979 561.767,-35.2122 546.794,-25.3524"/>
<polygon fill="midnightblue" stroke="midnightblue" points="548.419,-22.2313 538.142,-19.6545 544.569,-28.0776 548.419,-22.2313"/>
</g>
<!-- Node10 -->
<g id="node10" class="node"><title>Node10</title>
<polygon fill="white" stroke="#bfbfbf" points="800,-0.5 800,-19.5 852,-19.5 852,-0.5 800,-0.5"/>
<text text-anchor="middle" x="826" y="-7.5" font-family="Helvetica,sans-Serif" font-size="10.00">cassert</text>
</g>
<!-- Node2&#45;&gt;Node10 -->
<g id="edge9" class="edge"><title>Node2&#45;&gt;Node10</title>
<path fill="none" stroke="midnightblue" d="M642.305,-56.497C677.342,-48.0293 732.836,-34.5398 789.748,-20.2942"/>
<polygon fill="midnightblue" stroke="midnightblue" points="790.787,-23.6421 799.635,-17.8151 789.084,-16.8523 790.787,-23.6421"/>
</g>
<!-- Node11 -->
<g id="node11" class="node"><title>Node11</title>
<polygon fill="white" stroke="#bfbfbf" points="581.5,-0.5 581.5,-19.5 632.5,-19.5 632.5,-0.5 581.5,-0.5"/>
<text text-anchor="middle" x="607" y="-7.5" font-family="Helvetica,sans-Serif" font-size="10.00">stdlib.h</text>
</g>
<!-- Node2&#45;&gt;Node11 -->
<g id="edge10" class="edge"><title>Node2&#45;&gt;Node11</title>
<path fill="none" stroke="midnightblue" d="M607,-56.083C607,-49.0059 607,-38.8611 607,-29.9865"/>
<polygon fill="midnightblue" stroke="midnightblue" points="610.5,-29.751 607,-19.7511 603.5,-29.7511 610.5,-29.751"/>
</g>
<!-- Node12 -->
<g id="node12" class="node"><title>Node12</title>
<polygon fill="white" stroke="#bfbfbf" points="870.5,-0.5 870.5,-19.5 929.5,-19.5 929.5,-0.5 870.5,-0.5"/>
<text text-anchor="middle" x="900" y="-7.5" font-family="Helvetica,sans-Serif" font-size="10.00">iostream</text>
</g>
<!-- Node2&#45;&gt;Node12 -->
<g id="edge11" class="edge"><title>Node2&#45;&gt;Node12</title>
<path fill="none" stroke="midnightblue" d="M659.688,-56.4782C708.951,-48.3271 784.802,-35.3106 860.089,-20.0994"/>
<polygon fill="midnightblue" stroke="midnightblue" points="861.122,-23.4609 870.224,-18.0375 859.727,-16.6014 861.122,-23.4609"/>
</g>
<!-- Node13 -->
<g id="node13" class="node"><title>Node13</title>
<polygon fill="white" stroke="#bfbfbf" points="948,-0.5 948,-19.5 1002,-19.5 1002,-0.5 948,-0.5"/>
<text text-anchor="middle" x="975" y="-7.5" font-family="Helvetica,sans-Serif" font-size="10.00">fstream</text>
</g>
<!-- Node2&#45;&gt;Node13 -->
<g id="edge12" class="edge"><title>Node2&#45;&gt;Node13</title>
<path fill="none" stroke="midnightblue" d="M677.079,-57.6048C744.31,-50.0081 848.535,-36.9154 938,-20 938.101,-19.9808 938.203,-19.9615 938.305,-19.9421"/>
<polygon fill="midnightblue" stroke="midnightblue" points="938.923,-23.3887 947.992,-17.9112 937.487,-16.5376 938.923,-23.3887"/>
</g>
<!-- Node14 -->
<g id="node14" class="node"><title>Node14</title>
<polygon fill="white" stroke="#bfbfbf" points="1020,-0.5 1020,-19.5 1058,-19.5 1058,-0.5 1020,-0.5"/>
<text text-anchor="middle" x="1039" y="-7.5" font-family="Helvetica,sans-Serif" font-size="10.00">map</text>
</g>
<!-- Node2&#45;&gt;Node14 -->
<g id="edge13" class="edge"><title>Node2&#45;&gt;Node14</title>
<path fill="none" stroke="midnightblue" d="M677.022,-61.4593C755.989,-56.5132 888.211,-45.3618 1009.99,-19.8176"/>
<polygon fill="midnightblue" stroke="midnightblue" points="1010.81,-23.2214 1019.86,-17.7105 1009.35,-16.3757 1010.81,-23.2214"/>
</g>
<!-- Node15 -->
<g id="node15" class="node"><title>Node15</title>
<polygon fill="white" stroke="#bfbfbf" points="650.5,-0.5 650.5,-19.5 701.5,-19.5 701.5,-0.5 650.5,-0.5"/>
<text text-anchor="middle" x="676" y="-7.5" font-family="Helvetica,sans-Serif" font-size="10.00">math.h</text>
</g>
<!-- Node2&#45;&gt;Node15 -->
<g id="edge14" class="edge"><title>Node2&#45;&gt;Node15</title>
<path fill="none" stroke="midnightblue" d="M618.086,-56.324C628.486,-48.1849 644.261,-35.8395 656.722,-26.0874"/>
<polygon fill="midnightblue" stroke="midnightblue" points="658.994,-28.7533 664.712,-19.8339 654.68,-23.2407 658.994,-28.7533"/>
</g>
<!-- Node16 -->
<g id="node16" class="node"><title>Node16</title>
<polygon fill="white" stroke="#bfbfbf" points="720,-0.5 720,-19.5 782,-19.5 782,-0.5 720,-0.5"/>
<text text-anchor="middle" x="751" y="-7.5" font-family="Helvetica,sans-Serif" font-size="10.00">pcu_util.h</text>
</g>
<!-- Node2&#45;&gt;Node16 -->
<g id="edge15" class="edge"><title>Node2&#45;&gt;Node16</title>
<path fill="none" stroke="midnightblue" d="M629.817,-56.4435C653.832,-47.4381 691.829,-33.1891 718.869,-23.049"/>
<polygon fill="midnightblue" stroke="midnightblue" points="720.155,-26.3049 728.29,-19.5164 717.697,-19.7506 720.155,-26.3049"/>
</g>
<!-- Node17&#45;&gt;Node3 -->
<g id="edge28" class="edge"><title>Node17&#45;&gt;Node3</title>
<path fill="none" stroke="midnightblue" d="M898.659,-118.642C796.512,-113.667 563.564,-100.489 369,-76 228.964,-58.3745 191.034,-54.1005 50.0721,-20.0235"/>
<polygon fill="midnightblue" stroke="midnightblue" points="50.733,-16.5824 40.1898,-17.6269 49.0831,-23.3852 50.733,-16.5824"/>
</g>
<!-- Node17&#45;&gt;Node5 -->
<g id="edge29" class="edge"><title>Node17&#45;&gt;Node5</title>
<path fill="none" stroke="midnightblue" d="M898.832,-116.077C818.903,-108.392 661.37,-92.6883 528,-76 357.896,-54.7154 312.808,-49.7647 140.243,-20.1464"/>
<polygon fill="midnightblue" stroke="midnightblue" points="140.766,-16.685 130.318,-18.4399 139.58,-23.5838 140.766,-16.685"/>
</g>
<!-- Node18 -->
<g id="node18" class="node"><title>Node18</title>
<g id="a_node18"><a xlink:href="mesh_8h.html" target="_top" xlink:title="mesh.h">
<polygon fill="white" stroke="black" points="1012.5,-56.5 1012.5,-75.5 1065.5,-75.5 1065.5,-56.5 1012.5,-56.5"/>
<text text-anchor="middle" x="1039" y="-63.5" font-family="Helvetica,sans-Serif" font-size="10.00">mesh.h</text>
</a>
</g>
</g>
<!-- Node17&#45;&gt;Node18 -->
<g id="edge17" class="edge"><title>Node17&#45;&gt;Node18</title>
<path fill="none" stroke="midnightblue" d="M965.139,-112.324C978.866,-103.9 999.936,-90.9709 1016.06,-81.0741"/>
<polygon fill="midnightblue" stroke="midnightblue" points="1018.2,-83.8678 1024.9,-75.6545 1014.54,-77.9016 1018.2,-83.8678"/>
</g>
<!-- Node25 -->
<g id="node25" class="node"><title>Node25</title>
<polygon fill="white" stroke="#bfbfbf" points="1084,-56.5 1084,-75.5 1178,-75.5 1178,-56.5 1084,-56.5"/>
<text text-anchor="middle" x="1131" y="-63.5" font-family="Helvetica,sans-Serif" font-size="10.00">apfNumbering.h</text>
</g>
<!-- Node17&#45;&gt;Node25 -->
<g id="edge30" class="edge"><title>Node17&#45;&gt;Node25</title>
<path fill="none" stroke="midnightblue" d="M979.522,-112.444C1010.07,-103.28 1058.71,-88.6876 1092.6,-78.5192"/>
<polygon fill="midnightblue" stroke="midnightblue" points="1094.04,-81.7424 1102.61,-75.5164 1092.03,-75.0376 1094.04,-81.7424"/>
</g>
<!-- Node26 -->
<g id="node26" class="node"><title>Node26</title>
<polygon fill="white" stroke="#bfbfbf" points="1196.5,-56.5 1196.5,-75.5 1243.5,-75.5 1243.5,-56.5 1196.5,-56.5"/>
<text text-anchor="middle" x="1220" y="-63.5" font-family="Helvetica,sans-Serif" font-size="10.00">queue</text>
</g>
<!-- Node17&#45;&gt;Node26 -->
<g id="edge31" class="edge"><title>Node17&#45;&gt;Node26</title>
<path fill="none" stroke="midnightblue" d="M1001.88,-112.478C1047.68,-104.541 1117.03,-91.8678 1186.47,-75.9748"/>
<polygon fill="midnightblue" stroke="midnightblue" points="1187.31,-79.3728 1196.26,-73.711 1185.73,-72.5525 1187.31,-79.3728"/>
</g>
<!-- Node18&#45;&gt;Node10 -->
<g id="edge26" class="edge"><title>Node18&#45;&gt;Node10</title>
<path fill="none" stroke="midnightblue" d="M1012.45,-58.3246C979.495,-50.0292 921.301,-35.3566 862.238,-20.3088"/>
<polygon fill="midnightblue" stroke="midnightblue" points="862.925,-16.872 852.37,-17.7932 861.196,-23.655 862.925,-16.872"/>
</g>
<!-- Node18&#45;&gt;Node12 -->
<g id="edge23" class="edge"><title>Node18&#45;&gt;Node12</title>
<path fill="none" stroke="midnightblue" d="M1016.98,-56.4435C993.896,-47.4776 957.438,-33.314 931.359,-23.1827"/>
<polygon fill="midnightblue" stroke="midnightblue" points="932.511,-19.8753 921.922,-19.5164 929.976,-26.4002 932.511,-19.8753"/>
</g>
<!-- Node18&#45;&gt;Node13 -->
<g id="edge25" class="edge"><title>Node18&#45;&gt;Node13</title>
<path fill="none" stroke="midnightblue" d="M1028.72,-56.324C1019.16,-48.2631 1004.72,-36.0765 993.216,-26.3695"/>
<polygon fill="midnightblue" stroke="midnightblue" points="995.37,-23.6076 985.47,-19.8339 990.856,-28.9577 995.37,-23.6076"/>
</g>
<!-- Node18&#45;&gt;Node14 -->
<g id="edge21" class="edge"><title>Node18&#45;&gt;Node14</title>
<path fill="none" stroke="midnightblue" d="M1039,-56.083C1039,-49.0059 1039,-38.8611 1039,-29.9865"/>
<polygon fill="midnightblue" stroke="midnightblue" points="1042.5,-29.751 1039,-19.7511 1035.5,-29.7511 1042.5,-29.751"/>
</g>
<!-- Node19 -->
<g id="node19" class="node"><title>Node19</title>
<polygon fill="white" stroke="#bfbfbf" points="1076,-0.5 1076,-19.5 1108,-19.5 1108,-0.5 1076,-0.5"/>
<text text-anchor="middle" x="1092" y="-7.5" font-family="Helvetica,sans-Serif" font-size="10.00">set</text>
</g>
<!-- Node18&#45;&gt;Node19 -->
<g id="edge18" class="edge"><title>Node18&#45;&gt;Node19</title>
<path fill="none" stroke="midnightblue" d="M1047.75,-56.083C1055.47,-48.2195 1066.9,-36.5688 1076.22,-27.0813"/>
<polygon fill="midnightblue" stroke="midnightblue" points="1078.9,-29.3396 1083.41,-19.7511 1073.91,-24.4363 1078.9,-29.3396"/>
</g>
<!-- Node20 -->
<g id="node20" class="node"><title>Node20</title>
<polygon fill="white" stroke="#bfbfbf" points="1126.5,-0.5 1126.5,-19.5 1173.5,-19.5 1173.5,-0.5 1126.5,-0.5"/>
<text text-anchor="middle" x="1150" y="-7.5" font-family="Helvetica,sans-Serif" font-size="10.00">vector</text>
</g>
<!-- Node18&#45;&gt;Node20 -->
<g id="edge19" class="edge"><title>Node18&#45;&gt;Node20</title>
<path fill="none" stroke="midnightblue" d="M1056.83,-56.324C1074.72,-47.6247 1102.48,-34.1202 1123.05,-24.113"/>
<polygon fill="midnightblue" stroke="midnightblue" points="1124.75,-27.1765 1132.21,-19.6545 1121.69,-20.8819 1124.75,-27.1765"/>
</g>
<!-- Node21 -->
<g id="node21" class="node"><title>Node21</title>
<polygon fill="white" stroke="#bfbfbf" points="1192,-0.5 1192,-19.5 1254,-19.5 1254,-0.5 1192,-0.5"/>
<text text-anchor="middle" x="1223" y="-7.5" font-family="Helvetica,sans-Serif" font-size="10.00">algorithm</text>
</g>
<!-- Node18&#45;&gt;Node21 -->
<g id="edge20" class="edge"><title>Node18&#45;&gt;Node21</title>
<path fill="none" stroke="midnightblue" d="M1065.76,-57.1479C1096.78,-48.0427 1148.2,-32.9519 1183.75,-22.5188"/>
<polygon fill="midnightblue" stroke="midnightblue" points="1185.17,-25.75 1193.78,-19.5756 1183.2,-19.0333 1185.17,-25.75"/>
</g>
<!-- Node22 -->
<g id="node22" class="node"><title>Node22</title>
<polygon fill="white" stroke="#bfbfbf" points="1272,-0.5 1272,-19.5 1302,-19.5 1302,-0.5 1272,-0.5"/>
<text text-anchor="middle" x="1287" y="-7.5" font-family="Helvetica,sans-Serif" font-size="10.00">list</text>
</g>
<!-- Node18&#45;&gt;Node22 -->
<g id="edge22" class="edge"><title>Node18&#45;&gt;Node22</title>
<path fill="none" stroke="midnightblue" d="M1065.7,-58.1497C1068.83,-57.3987 1071.98,-56.666 1075,-56 1154.99,-38.3562 1179.31,-42.6545 1262.06,-19.8659"/>
<polygon fill="midnightblue" stroke="midnightblue" points="1263.21,-23.1782 1271.89,-17.1077 1261.32,-16.4383 1263.21,-23.1782"/>
</g>
<!-- Node23 -->
<g id="node23" class="node"><title>Node23</title>
<polygon fill="white" stroke="#bfbfbf" points="1320.5,-0.5 1320.5,-19.5 1375.5,-19.5 1375.5,-0.5 1320.5,-0.5"/>
<text text-anchor="middle" x="1348" y="-7.5" font-family="Helvetica,sans-Serif" font-size="10.00">iomanip</text>
</g>
<!-- Node18&#45;&gt;Node23 -->
<g id="edge24" class="edge"><title>Node18&#45;&gt;Node23</title>
<path fill="none" stroke="midnightblue" d="M1065.67,-58.0363C1068.81,-57.3057 1071.97,-56.6088 1075,-56 1175.88,-35.7427 1205.15,-40.2525 1310.12,-20.0126"/>
<polygon fill="midnightblue" stroke="midnightblue" points="1311.04,-23.3998 1320.18,-18.0432 1309.69,-16.5303 1311.04,-23.3998"/>
</g>
<!-- Node24 -->
<g id="node24" class="node"><title>Node24</title>
<polygon fill="white" stroke="#bfbfbf" points="1393.5,-0.5 1393.5,-19.5 1440.5,-19.5 1440.5,-0.5 1393.5,-0.5"/>
<text text-anchor="middle" x="1417" y="-7.5" font-family="Helvetica,sans-Serif" font-size="10.00">cmath</text>
</g>
<!-- Node18&#45;&gt;Node24 -->
<g id="edge27" class="edge"><title>Node18&#45;&gt;Node24</title>
<path fill="none" stroke="midnightblue" d="M1065.65,-57.9288C1068.79,-57.2175 1071.96,-56.5545 1075,-56 1208.26,-31.7106 1247.11,-46.1459 1383.35,-20.0566"/>
<polygon fill="midnightblue" stroke="midnightblue" points="1384.19,-23.4593 1393.34,-18.107 1382.85,-16.5891 1384.19,-23.4593"/>
</g>
</g>
</svg>
