<?xml version="1.0" encoding="UTF-8" standalone="no"?>
<!DOCTYPE svg PUBLIC "-//W3C//DTD SVG 1.1//EN"
 "http://www.w3.org/Graphics/SVG/1.1/DTD/svg11.dtd">
<!-- Generated by graphviz version 2.38.0 (20140413.2041)
 -->
<!-- Title: createAnalyticGeometry.h Pages: 1 -->
<svg width="1067pt" height="84pt"
 viewBox="0.00 0.00 1067.00 84.00" xmlns="http://www.w3.org/2000/svg" xmlns:xlink="http://www.w3.org/1999/xlink">
<g id="graph0" class="graph" transform="scale(1 1) rotate(0) translate(4 80)">
<title>createAnalyticGeometry.h</title>
<polygon fill="white" stroke="none" points="-4,4 -4,-80 1063,-80 1063,4 -4,4"/>
<!-- Node1 -->
<g id="node1" class="node"><title>Node1</title>
<polygon fill="#bfbfbf" stroke="black" points="497,-56.5 497,-75.5 637,-75.5 637,-56.5 497,-56.5"/>
<text text-anchor="middle" x="567" y="-63.5" font-family="Helvetica,sans-Serif" font-size="10.00">createAnalyticGeometry.h</text>
</g>
<!-- Node2 -->
<g id="node2" class="node"><title>Node2</title>
<polygon fill="white" stroke="#bfbfbf" points="0,-0.5 0,-19.5 40,-19.5 40,-0.5 0,-0.5"/>
<text text-anchor="middle" x="20" y="-7.5" font-family="Helvetica,sans-Serif" font-size="10.00">apf.h</text>
</g>
<!-- Node1&#45;&gt;Node2 -->
<g id="edge1" class="edge"><title>Node1&#45;&gt;Node2</title>
<path fill="none" stroke="midnightblue" d="M496.795,-63.6561C398.63,-60.7271 214.848,-51.4225 50.44,-19.8669"/>
<polygon fill="midnightblue" stroke="midnightblue" points="50.6252,-16.337 40.1398,-17.8555 49.2835,-23.2073 50.6252,-16.337"/>
</g>
<!-- Node3 -->
<g id="node3" class="node"><title>Node3</title>
<polygon fill="white" stroke="#bfbfbf" points="58.5,-0.5 58.5,-19.5 121.5,-19.5 121.5,-0.5 58.5,-0.5"/>
<text text-anchor="middle" x="90" y="-7.5" font-family="Helvetica,sans-Serif" font-size="10.00">apfMDS.h</text>
</g>
<!-- Node1&#45;&gt;Node3 -->
<g id="edge2" class="edge"><title>Node1&#45;&gt;Node3</title>
<path fill="none" stroke="midnightblue" d="M496.831,-60.2169C412.518,-53.9187 266.627,-41.2695 131.815,-19.9507"/>
<polygon fill="midnightblue" stroke="midnightblue" points="132.144,-16.4588 121.716,-18.3339 131.037,-23.3708 132.144,-16.4588"/>
</g>
<!-- Node4 -->
<g id="node4" class="node"><title>Node4</title>
<polygon fill="white" stroke="#bfbfbf" points="140,-0.5 140,-19.5 212,-19.5 212,-0.5 140,-0.5"/>
<text text-anchor="middle" x="176" y="-7.5" font-family="Helvetica,sans-Serif" font-size="10.00">apfMesh2.h</text>
</g>
<!-- Node1&#45;&gt;Node4 -->
<g id="edge3" class="edge"><title>Node1&#45;&gt;Node4</title>
<path fill="none" stroke="midnightblue" d="M496.88,-57.2987C429.094,-49.5311 323.272,-36.5588 222.372,-20.1348"/>
<polygon fill="midnightblue" stroke="midnightblue" points="222.745,-16.6493 212.311,-18.4826 221.611,-23.5568 222.745,-16.6493"/>
</g>
<!-- Node5 -->
<g id="node5" class="node"><title>Node5</title>
<polygon fill="white" stroke="#bfbfbf" points="230.5,-0.5 230.5,-19.5 301.5,-19.5 301.5,-0.5 230.5,-0.5"/>
<text text-anchor="middle" x="266" y="-7.5" font-family="Helvetica,sans-Serif" font-size="10.00">apfShape.h</text>
</g>
<!-- Node1&#45;&gt;Node5 -->
<g id="edge4" class="edge"><title>Node1&#45;&gt;Node5</title>
<path fill="none" stroke="midnightblue" d="M516.42,-56.4681C466.854,-48.0264 388.902,-34.5357 311.741,-20.1044"/>
<polygon fill="midnightblue" stroke="midnightblue" points="312.321,-16.6523 301.847,-18.2479 311.03,-23.5322 312.321,-16.6523"/>
</g>
<!-- Node6 -->
<g id="node6" class="node"><title>Node6</title>
<polygon fill="white" stroke="#bfbfbf" points="320,-0.5 320,-19.5 366,-19.5 366,-0.5 320,-0.5"/>
<text text-anchor="middle" x="343" y="-7.5" font-family="Helvetica,sans-Serif" font-size="10.00">PCU.h</text>
</g>
<!-- Node1&#45;&gt;Node6 -->
<g id="edge5" class="edge"><title>Node1&#45;&gt;Node6</title>
<path fill="none" stroke="midnightblue" d="M528.264,-56.4465C491.448,-48.2003 434.305,-35.0998 375.817,-20.1277"/>
<polygon fill="midnightblue" stroke="midnightblue" points="376.596,-16.7143 366.039,-17.6103 374.851,-23.4932 376.596,-16.7143"/>
</g>
<!-- Node7 -->
<g id="node7" class="node"><title>Node7</title>
<polygon fill="white" stroke="#bfbfbf" points="384,-0.5 384,-19.5 470,-19.5 470,-0.5 384,-0.5"/>
<text text-anchor="middle" x="427" y="-7.5" font-family="Helvetica,sans-Serif" font-size="10.00">gmi_analytic.h</text>
</g>
<!-- Node1&#45;&gt;Node7 -->
<g id="edge6" class="edge"><title>Node1&#45;&gt;Node7</title>
<path fill="none" stroke="midnightblue" d="M544.817,-56.4435C521.572,-47.4776 484.851,-33.314 458.585,-23.1827"/>
<polygon fill="midnightblue" stroke="midnightblue" points="459.669,-19.8497 449.08,-19.5164 457.15,-26.3807 459.669,-19.8497"/>
</g>
<!-- Node8 -->
<g id="node8" class="node"><title>Node8</title>
<polygon fill="white" stroke="#bfbfbf" points="488,-0.5 488,-19.5 564,-19.5 564,-0.5 488,-0.5"/>
<text text-anchor="middle" x="526" y="-7.5" font-family="Helvetica,sans-Serif" font-size="10.00">gmi_mesh.h</text>
</g>
<!-- Node1&#45;&gt;Node8 -->
<g id="edge7" class="edge"><title>Node1&#45;&gt;Node8</title>
<path fill="none" stroke="midnightblue" d="M560.23,-56.083C554.438,-48.4554 545.942,-37.2645 538.862,-27.9408"/>
<polygon fill="midnightblue" stroke="midnightblue" points="541.479,-25.5991 532.644,-19.7511 535.904,-29.8321 541.479,-25.5991"/>
</g>
<!-- Node9 -->
<g id="node9" class="node"><title>Node9</title>
<polygon fill="white" stroke="#bfbfbf" points="582,-0.5 582,-19.5 634,-19.5 634,-0.5 582,-0.5"/>
<text text-anchor="middle" x="608" y="-7.5" font-family="Helvetica,sans-Serif" font-size="10.00">cassert</text>
</g>
<!-- Node1&#45;&gt;Node9 -->
<g id="edge8" class="edge"><title>Node1&#45;&gt;Node9</title>
<path fill="none" stroke="midnightblue" d="M573.77,-56.083C579.562,-48.4554 588.058,-37.2645 595.138,-27.9408"/>
<polygon fill="midnightblue" stroke="midnightblue" points="598.096,-29.8321 601.356,-19.7511 592.521,-25.5991 598.096,-29.8321"/>
</g>
<!-- Node10 -->
<g id="node10" class="node"><title>Node10</title>
<polygon fill="white" stroke="#bfbfbf" points="652.5,-0.5 652.5,-19.5 703.5,-19.5 703.5,-0.5 652.5,-0.5"/>
<text text-anchor="middle" x="678" y="-7.5" font-family="Helvetica,sans-Serif" font-size="10.00">stdlib.h</text>
</g>
<!-- Node1&#45;&gt;Node10 -->
<g id="edge9" class="edge"><title>Node1&#45;&gt;Node10</title>
<path fill="none" stroke="midnightblue" d="M584.834,-56.324C602.716,-47.6247 630.475,-34.1202 651.046,-24.113"/>
<polygon fill="midnightblue" stroke="midnightblue" points="652.749,-27.1765 660.21,-19.6545 649.687,-20.8819 652.749,-27.1765"/>
</g>
<!-- Node11 -->
<g id="node11" class="node"><title>Node11</title>
<polygon fill="white" stroke="#bfbfbf" points="721.5,-0.5 721.5,-19.5 780.5,-19.5 780.5,-0.5 721.5,-0.5"/>
<text text-anchor="middle" x="751" y="-7.5" font-family="Helvetica,sans-Serif" font-size="10.00">iostream</text>
</g>
<!-- Node1&#45;&gt;Node11 -->
<g id="edge10" class="edge"><title>Node1&#45;&gt;Node11</title>
<path fill="none" stroke="midnightblue" d="M596.155,-56.4435C627.513,-47.2406 677.531,-32.5617 712.197,-22.3879"/>
<polygon fill="midnightblue" stroke="midnightblue" points="713.371,-25.6909 721.981,-19.5164 711.4,-18.9742 713.371,-25.6909"/>
</g>
<!-- Node12 -->
<g id="node12" class="node"><title>Node12</title>
<polygon fill="white" stroke="#bfbfbf" points="799,-0.5 799,-19.5 853,-19.5 853,-0.5 799,-0.5"/>
<text text-anchor="middle" x="826" y="-7.5" font-family="Helvetica,sans-Serif" font-size="10.00">fstream</text>
</g>
<!-- Node1&#45;&gt;Node12 -->
<g id="edge11" class="edge"><title>Node1&#45;&gt;Node12</title>
<path fill="none" stroke="midnightblue" d="M612.402,-56.4707C655.439,-48.2442 722.127,-35.1315 789.035,-20.1403"/>
<polygon fill="midnightblue" stroke="midnightblue" points="789.919,-23.5287 798.905,-17.9151 788.38,-16.7 789.919,-23.5287"/>
</g>
<!-- Node13 -->
<g id="node13" class="node"><title>Node13</title>
<polygon fill="white" stroke="#bfbfbf" points="871,-0.5 871,-19.5 909,-19.5 909,-0.5 871,-0.5"/>
<text text-anchor="middle" x="890" y="-7.5" font-family="Helvetica,sans-Serif" font-size="10.00">map</text>
</g>
<!-- Node1&#45;&gt;Node13 -->
<g id="edge12" class="edge"><title>Node1&#45;&gt;Node13</title>
<path fill="none" stroke="midnightblue" d="M637.04,-57.5099C694.844,-50.6 779.085,-38.8579 860.874,-19.9475"/>
<polygon fill="midnightblue" stroke="midnightblue" points="861.9,-23.3016 870.834,-17.6056 860.298,-16.4874 861.9,-23.3016"/>
</g>
<!-- Node14 -->
<g id="node14" class="node"><title>Node14</title>
<polygon fill="white" stroke="#bfbfbf" points="927.5,-0.5 927.5,-19.5 978.5,-19.5 978.5,-0.5 927.5,-0.5"/>
<text text-anchor="middle" x="953" y="-7.5" font-family="Helvetica,sans-Serif" font-size="10.00">math.h</text>
</g>
<!-- Node1&#45;&gt;Node14 -->
<g id="edge13" class="edge"><title>Node1&#45;&gt;Node14</title>
<path fill="none" stroke="midnightblue" d="M637.332,-58.5773C706.265,-51.6945 814.443,-39.3293 917.512,-19.8618"/>
<polygon fill="midnightblue" stroke="midnightblue" points="918.305,-23.2736 927.469,-17.9557 916.989,-16.3984 918.305,-23.2736"/>
</g>
<!-- Node15 -->
<g id="node15" class="node"><title>Node15</title>
<polygon fill="white" stroke="#bfbfbf" points="997,-0.5 997,-19.5 1059,-19.5 1059,-0.5 997,-0.5"/>
<text text-anchor="middle" x="1028" y="-7.5" font-family="Helvetica,sans-Serif" font-size="10.00">pcu_util.h</text>
</g>
<!-- Node1&#45;&gt;Node15 -->
<g id="edge14" class="edge"><title>Node1&#45;&gt;Node15</title>
<path fill="none" stroke="midnightblue" d="M637.355,-59.9638C719.093,-53.5552 858.154,-40.9315 986.607,-20.065"/>
<polygon fill="midnightblue" stroke="midnightblue" points="987.325,-23.4941 996.624,-18.4173 986.188,-16.5869 987.325,-23.4941"/>
</g>
</g>
</svg>
