<?xml version="1.0" encoding="UTF-8" standalone="no"?>
<!DOCTYPE svg PUBLIC "-//W3C//DTD SVG 1.1//EN"
 "http://www.w3.org/Graphics/SVG/1.1/DTD/svg11.dtd">
<!-- Generated by graphviz version 2.38.0 (20140413.2041)
 -->
<!-- Title: densityRelations.h Pages: 1 -->
<svg width="372pt" height="140pt"
 viewBox="0.00 0.00 372.00 140.00" xmlns="http://www.w3.org/2000/svg" xmlns:xlink="http://www.w3.org/1999/xlink">
<g id="graph0" class="graph" transform="scale(1 1) rotate(0) translate(4 136)">
<title>densityRelations.h</title>
<polygon fill="white" stroke="none" points="-4,4 -4,-136 368,-136 368,4 -4,4"/>
<!-- Node1 -->
<g id="node1" class="node"><title>Node1</title>
<polygon fill="#bfbfbf" stroke="black" points="133,-112.5 133,-131.5 236,-131.5 236,-112.5 133,-112.5"/>
<text text-anchor="middle" x="184.5" y="-119.5" font-family="Helvetica,sans-Serif" font-size="10.00">densityRelations.h</text>
</g>
<!-- Node2 -->
<g id="node2" class="node"><title>Node2</title>
<g id="a_node2"><a xlink:href="psk_relations_8h.html" target="_top" xlink:title="pskRelations.h">
<polygon fill="white" stroke="black" points="142,-56.5 142,-75.5 227,-75.5 227,-56.5 142,-56.5"/>
<text text-anchor="middle" x="184.5" y="-63.5" font-family="Helvetica,sans-Serif" font-size="10.00">pskRelations.h</text>
</a>
</g>
</g>
<!-- Node1&#45;&gt;Node2 -->
<g id="edge1" class="edge"><title>Node1&#45;&gt;Node2</title>
<path fill="none" stroke="midnightblue" d="M184.5,-101.805C184.5,-92.9102 184.5,-82.7798 184.5,-75.7511"/>
<polygon fill="midnightblue" stroke="midnightblue" points="181,-102.083 184.5,-112.083 188,-102.083 181,-102.083"/>
</g>
<!-- Node3 -->
<g id="node3" class="node"><title>Node3</title>
<g id="a_node3"><a xlink:href="_subsurface_transport_coefficients_8cpp.html" target="_top" xlink:title="SubsurfaceTransportCoefficients.cpp">
<polygon fill="white" stroke="black" points="0,-0.5 0,-19.5 191,-19.5 191,-0.5 0,-0.5"/>
<text text-anchor="middle" x="95.5" y="-7.5" font-family="Helvetica,sans-Serif" font-size="10.00">SubsurfaceTransportCoefficients.cpp</text>
</a>
</g>
</g>
<!-- Node1&#45;&gt;Node3 -->
<g id="edge4" class="edge"><title>Node1&#45;&gt;Node3</title>
<path fill="none" stroke="midnightblue" d="M164.239,-106.147C153.961,-97.9827 141.733,-87.2454 132.5,-76 117.503,-57.7354 105.129,-32.5877 99.2283,-19.5753"/>
<polygon fill="midnightblue" stroke="midnightblue" points="162.246,-109.029 172.305,-112.354 166.515,-103.482 162.246,-109.029"/>
</g>
<!-- Node4 -->
<g id="node4" class="node"><title>Node4</title>
<g id="a_node4"><a xlink:href="twophase_darcy_coefficients_8h.html" target="_top" xlink:title="twophaseDarcyCoefficients.h">
<polygon fill="white" stroke="black" points="209,-0.5 209,-19.5 364,-19.5 364,-0.5 209,-0.5"/>
<text text-anchor="middle" x="286.5" y="-7.5" font-family="Helvetica,sans-Serif" font-size="10.00">twophaseDarcyCoefficients.h</text>
</a>
</g>
</g>
<!-- Node1&#45;&gt;Node4 -->
<g id="edge5" class="edge"><title>Node1&#45;&gt;Node4</title>
<path fill="none" stroke="midnightblue" d="M203.315,-105.824C213.281,-97.4396 225.495,-86.5995 235.5,-76 253.222,-57.2245 271.236,-32.7171 280.37,-19.8205"/>
<polygon fill="midnightblue" stroke="midnightblue" points="201.044,-103.16 195.569,-112.23 205.506,-108.554 201.044,-103.16"/>
</g>
<!-- Node2&#45;&gt;Node3 -->
<g id="edge2" class="edge"><title>Node2&#45;&gt;Node3</title>
<path fill="none" stroke="midnightblue" d="M161.262,-50.9005C144.942,-40.9986 123.635,-28.0705 109.764,-19.6545"/>
<polygon fill="midnightblue" stroke="midnightblue" points="159.836,-54.1289 170.201,-56.324 163.467,-48.1444 159.836,-54.1289"/>
</g>
<!-- Node2&#45;&gt;Node4 -->
<g id="edge3" class="edge"><title>Node2&#45;&gt;Node4</title>
<path fill="none" stroke="midnightblue" d="M209.831,-51.5895C228.69,-41.6052 253.884,-28.2672 270.153,-19.6545"/>
<polygon fill="midnightblue" stroke="midnightblue" points="208.088,-48.5518 200.888,-56.324 211.364,-54.7383 208.088,-48.5518"/>
</g>
</g>
</svg>
