<?xml version="1.0" encoding="UTF-8" standalone="no"?>
<!DOCTYPE svg PUBLIC "-//W3C//DTD SVG 1.1//EN"
 "http://www.w3.org/Graphics/SVG/1.1/DTD/svg11.dtd">
<!-- Generated by graphviz version 2.38.0 (20140413.2041)
 -->
<!-- Title: proteus Pages: 1 -->
<svg width="682pt" height="111pt"
 viewBox="0.00 0.00 682.00 111.00" xmlns="http://www.w3.org/2000/svg" xmlns:xlink="http://www.w3.org/1999/xlink">
<g id="graph0" class="graph" transform="scale(1 1) rotate(0) translate(4 107)">
<title>proteus</title>
<polygon fill="white" stroke="none" points="-4,4 -4,-107 678,-107 678,4 -4,4"/>
<g id="clust1" class="cluster"><title>clusterdir_fb0fc22a9570c2eb8131b4469869d9c6</title>
<g id="a_clust1"><a xlink:href="dir_fb0fc22a9570c2eb8131b4469869d9c6.html" target="_top" xlink:title="proteus">
<polygon fill="#ddddee" stroke="black" points="8,-8 8,-95 666,-95 666,-8 8,-8"/>
<text text-anchor="middle" x="337" y="-83" font-family="Helvetica,sans-Serif" font-size="10.00">proteus</text>
</a>
</g>
</g>
<g id="clust2" class="cluster"><title>clusterdir_80d1a9a23ae764b015f824511b2f5777</title>
<g id="a_clust2"><a xlink:href="dir_80d1a9a23ae764b015f824511b2f5777.html" target="_top">
<polygon fill="#eeeeff" stroke="black" points="16,-16 16,-68 658,-68 658,-16 16,-16"/>
</a>
</g>
</g>
<!-- dir_80d1a9a23ae764b015f824511b2f5777 -->
<g id="node1" class="node"><title>dir_80d1a9a23ae764b015f824511b2f5777</title>
<text text-anchor="middle" x="623" y="-39.5" font-family="Helvetica,sans-Serif" font-size="10.00">proteus</text>
</g>
<!-- dir_9953c23611b4ffa54c214788d05456d9 -->
<g id="node2" class="node"><title>dir_9953c23611b4ffa54c214788d05456d9</title>
<g id="a_node2"><a xlink:href="dir_9953c23611b4ffa54c214788d05456d9.html" target="_top" xlink:title="elastoplastic">
<polygon fill="white" stroke="black" points="577.5,-60 500.5,-60 500.5,-24 577.5,-24 577.5,-60"/>
<text text-anchor="middle" x="539" y="-39.5" font-family="Helvetica,sans-Serif" font-size="10.00">elastoplastic</text>
</a>
</g>
</g>
<!-- dir_1ca2b054e895d1d15eab91fe33ca803b -->
<g id="node3" class="node"><title>dir_1ca2b054e895d1d15eab91fe33ca803b</title>
<g id="a_node3"><a xlink:href="dir_1ca2b054e895d1d15eab91fe33ca803b.html" target="_top" xlink:title="fenton">
<polygon fill="white" stroke="black" points="482,-60 428,-60 428,-24 482,-24 482,-60"/>
<text text-anchor="middle" x="455" y="-39.5" font-family="Helvetica,sans-Serif" font-size="10.00">fenton</text>
</a>
</g>
</g>
<!-- dir_03952893777aeb4a237deba7be92c7b7 -->
<g id="node4" class="node"><title>dir_03952893777aeb4a237deba7be92c7b7</title>
<g id="a_node4"><a xlink:href="dir_03952893777aeb4a237deba7be92c7b7.html" target="_top" xlink:title="mbd">
<polygon fill="white" stroke="black" points="410,-60 356,-60 356,-24 410,-24 410,-60"/>
<text text-anchor="middle" x="383" y="-39.5" font-family="Helvetica,sans-Serif" font-size="10.00">mbd</text>
</a>
</g>
</g>
<!-- dir_2791a4b02529b436b47c40304e217df0 -->
<g id="node5" class="node"><title>dir_2791a4b02529b436b47c40304e217df0</title>
<g id="a_node5"><a xlink:href="dir_2791a4b02529b436b47c40304e217df0.html" target="_top" xlink:title="MeshAdaptPUMI">
<polygon fill="white" stroke="black" points="337.5,-60 242.5,-60 242.5,-24 337.5,-24 337.5,-60"/>
<text text-anchor="middle" x="290" y="-39.5" font-family="Helvetica,sans-Serif" font-size="10.00">MeshAdaptPUMI</text>
</a>
</g>
</g>
<!-- dir_81149bff0501e53f4efeb4d5d98a160f -->
<g id="node6" class="node"><title>dir_81149bff0501e53f4efeb4d5d98a160f</title>
<g id="a_node6"><a xlink:href="dir_81149bff0501e53f4efeb4d5d98a160f.html" target="_top" xlink:title="mprans">
<polygon fill="white" stroke="black" points="224,-60 170,-60 170,-24 224,-24 224,-60"/>
<text text-anchor="middle" x="197" y="-39.5" font-family="Helvetica,sans-Serif" font-size="10.00">mprans</text>
</a>
</g>
</g>
<!-- dir_793534f3b583b2c6552629712018a9d5 -->
<g id="node7" class="node"><title>dir_793534f3b583b2c6552629712018a9d5</title>
<g id="a_node7"><a xlink:href="dir_793534f3b583b2c6552629712018a9d5.html" target="_top" xlink:title="richards">
<polygon fill="white" stroke="black" points="151.5,-60 96.5,-60 96.5,-24 151.5,-24 151.5,-60"/>
<text text-anchor="middle" x="124" y="-39.5" font-family="Helvetica,sans-Serif" font-size="10.00">richards</text>
</a>
</g>
</g>
<!-- dir_d41e05c2919173d601c599a65b74435d -->
<g id="node8" class="node"><title>dir_d41e05c2919173d601c599a65b74435d</title>
<g id="a_node8"><a xlink:href="dir_d41e05c2919173d601c599a65b74435d.html" target="_top" xlink:title="tests">
<polygon fill="white" stroke="red" points="78,-60 24,-60 24,-24 78,-24 78,-60"/>
<text text-anchor="middle" x="51" y="-39.5" font-family="Helvetica,sans-Serif" font-size="10.00">tests</text>
</a>
</g>
</g>
</g>
</svg>
