<?xml version="1.0" encoding="UTF-8" standalone="no"?>
<!DOCTYPE svg PUBLIC "-//W3C//DTD SVG 1.1//EN"
 "http://www.w3.org/Graphics/SVG/1.1/DTD/svg11.dtd">
<!-- Generated by graphviz version 2.38.0 (20140413.2041)
 -->
<!-- Title: Graphical Class Hierarchy Pages: 1 -->
<svg width="332pt" height="142pt"
 viewBox="0.00 0.00 332.00 142.00" xmlns="http://www.w3.org/2000/svg" xmlns:xlink="http://www.w3.org/1999/xlink">
<g id="graph0" class="graph" transform="scale(1 1) rotate(0) translate(4 138)">
<title>Graphical Class Hierarchy</title>
<polygon fill="white" stroke="none" points="-4,4 -4,-138 328,-138 328,4 -4,4"/>
<!-- Node1 -->
<g id="node1" class="node"><title>Node1</title>
<g id="a_node1"><a xlink:href="class_psk_relation.html" target="_top" xlink:title="PskRelation">
<polygon fill="white" stroke="black" points="0,-57.5 0,-76.5 71,-76.5 71,-57.5 0,-57.5"/>
<text text-anchor="middle" x="35.5" y="-64.5" font-family="Helvetica,sans-Serif" font-size="10.00">PskRelation</text>
</a>
</g>
</g>
<!-- Node2 -->
<g id="node2" class="node"><title>Node2</title>
<g id="a_node2"><a xlink:href="class_b_c_m.html" target="_top" xlink:title="BCM">
<polygon fill="white" stroke="black" points="122,-114.5 122,-133.5 160,-133.5 160,-114.5 122,-114.5"/>
<text text-anchor="middle" x="141" y="-121.5" font-family="Helvetica,sans-Serif" font-size="10.00">BCM</text>
</a>
</g>
</g>
<!-- Node1&#45;&gt;Node2 -->
<g id="edge1" class="edge"><title>Node1&#45;&gt;Node2</title>
<path fill="none" stroke="midnightblue" d="M62.9995,-81.5939C81.7693,-91.9309 106.41,-105.501 122.702,-114.474"/>
<polygon fill="midnightblue" stroke="midnightblue" points="64.5053,-78.4276 54.0574,-76.6693 61.1284,-84.5592 64.5053,-78.4276"/>
</g>
<!-- Node4 -->
<g id="node4" class="node"><title>Node4</title>
<g id="a_node4"><a xlink:href="class_psk_spline.html" target="_top" xlink:title="PskSpline">
<polygon fill="white" stroke="black" points="110,-76.5 110,-95.5 172,-95.5 172,-76.5 110,-76.5"/>
<text text-anchor="middle" x="141" y="-83.5" font-family="Helvetica,sans-Serif" font-size="10.00">PskSpline</text>
</a>
</g>
</g>
<!-- Node1&#45;&gt;Node4 -->
<g id="edge3" class="edge"><title>Node1&#45;&gt;Node4</title>
<path fill="none" stroke="midnightblue" d="M81.1181,-75.1908C90.7578,-76.9604 100.734,-78.7917 109.674,-80.433"/>
<polygon fill="midnightblue" stroke="midnightblue" points="81.7196,-71.7428 71.2519,-73.3796 80.4556,-78.6277 81.7196,-71.7428"/>
</g>
<!-- Node5 -->
<g id="node5" class="node"><title>Node5</title>
<g id="a_node5"><a xlink:href="class_simple_p_s_k.html" target="_top" xlink:title="SimplePSK">
<polygon fill="white" stroke="black" points="107,-38.5 107,-57.5 175,-57.5 175,-38.5 107,-38.5"/>
<text text-anchor="middle" x="141" y="-45.5" font-family="Helvetica,sans-Serif" font-size="10.00">SimplePSK</text>
</a>
</g>
</g>
<!-- Node1&#45;&gt;Node5 -->
<g id="edge4" class="edge"><title>Node1&#45;&gt;Node5</title>
<path fill="none" stroke="midnightblue" d="M81.2043,-58.7934C89.8367,-57.2087 98.7358,-55.5751 106.916,-54.0734"/>
<polygon fill="midnightblue" stroke="midnightblue" points="80.4556,-55.3723 71.2519,-60.6204 81.7196,-62.2572 80.4556,-55.3723"/>
</g>
<!-- Node6 -->
<g id="node6" class="node"><title>Node6</title>
<g id="a_node6"><a xlink:href="class_v_g_morig.html" target="_top" xlink:title="VGMorig">
<polygon fill="white" stroke="black" points="112.5,-0.5 112.5,-19.5 169.5,-19.5 169.5,-0.5 112.5,-0.5"/>
<text text-anchor="middle" x="141" y="-7.5" font-family="Helvetica,sans-Serif" font-size="10.00">VGMorig</text>
</a>
</g>
</g>
<!-- Node1&#45;&gt;Node6 -->
<g id="edge5" class="edge"><title>Node1&#45;&gt;Node6</title>
<path fill="none" stroke="midnightblue" d="M62.9995,-52.4061C81.7693,-42.0691 106.41,-28.4991 122.702,-19.5265"/>
<polygon fill="midnightblue" stroke="midnightblue" points="61.1284,-49.4408 54.0574,-57.3307 64.5053,-55.5724 61.1284,-49.4408"/>
</g>
<!-- Node3 -->
<g id="node3" class="node"><title>Node3</title>
<g id="a_node3"><a xlink:href="class_b_c_b.html" target="_top" xlink:title="BCB">
<polygon fill="white" stroke="black" points="212,-114.5 212,-133.5 249,-133.5 249,-114.5 212,-114.5"/>
<text text-anchor="middle" x="230.5" y="-121.5" font-family="Helvetica,sans-Serif" font-size="10.00">BCB</text>
</a>
</g>
</g>
<!-- Node2&#45;&gt;Node3 -->
<g id="edge2" class="edge"><title>Node2&#45;&gt;Node3</title>
<path fill="none" stroke="midnightblue" d="M170.491,-124C184.169,-124 200.122,-124 211.99,-124"/>
<polygon fill="midnightblue" stroke="midnightblue" points="170.13,-120.5 160.13,-124 170.13,-127.5 170.13,-120.5"/>
</g>
<!-- Node7 -->
<g id="node7" class="node"><title>Node7</title>
<g id="a_node7"><a xlink:href="class_v_g_m.html" target="_top" xlink:title="VGM">
<polygon fill="white" stroke="black" points="211,-0.5 211,-19.5 250,-19.5 250,-0.5 211,-0.5"/>
<text text-anchor="middle" x="230.5" y="-7.5" font-family="Helvetica,sans-Serif" font-size="10.00">VGM</text>
</a>
</g>
</g>
<!-- Node6&#45;&gt;Node7 -->
<g id="edge6" class="edge"><title>Node6&#45;&gt;Node7</title>
<path fill="none" stroke="midnightblue" d="M179.76,-10C190.515,-10 201.763,-10 210.836,-10"/>
<polygon fill="midnightblue" stroke="midnightblue" points="179.686,-6.5001 169.686,-10 179.686,-13.5001 179.686,-6.5001"/>
</g>
<!-- Node8 -->
<g id="node8" class="node"><title>Node8</title>
<g id="a_node8"><a xlink:href="class_v_g_b.html" target="_top" xlink:title="VGB">
<polygon fill="white" stroke="black" points="286,-0.5 286,-19.5 324,-19.5 324,-0.5 286,-0.5"/>
<text text-anchor="middle" x="305" y="-7.5" font-family="Helvetica,sans-Serif" font-size="10.00">VGB</text>
</a>
</g>
</g>
<!-- Node7&#45;&gt;Node8 -->
<g id="edge7" class="edge"><title>Node7&#45;&gt;Node8</title>
<path fill="none" stroke="midnightblue" d="M260.196,-10C268.767,-10 277.927,-10 285.644,-10"/>
<polygon fill="midnightblue" stroke="midnightblue" points="260.171,-6.5001 250.171,-10 260.171,-13.5001 260.171,-6.5001"/>
</g>
</g>
</svg>
