<?xml version="1.0" encoding="UTF-8" standalone="no"?>
<!DOCTYPE svg PUBLIC "-//W3C//DTD SVG 1.1//EN"
 "http://www.w3.org/Graphics/SVG/1.1/DTD/svg11.dtd">
<!-- Generated by graphviz version 2.38.0 (20140413.2041)
 -->
<!-- Title: meshio.cpp Pages: 1 -->
<svg width="470pt" height="140pt"
 viewBox="0.00 0.00 470.00 140.00" xmlns="http://www.w3.org/2000/svg" xmlns:xlink="http://www.w3.org/1999/xlink">
<g id="graph0" class="graph" transform="scale(1 1) rotate(0) translate(4 136)">
<title>meshio.cpp</title>
<polygon fill="white" stroke="none" points="-4,4 -4,-136 466,-136 466,4 -4,4"/>
<!-- Node1 -->
<g id="node1" class="node"><title>Node1</title>
<polygon fill="#bfbfbf" stroke="black" points="190.5,-112.5 190.5,-131.5 262.5,-131.5 262.5,-112.5 190.5,-112.5"/>
<text text-anchor="middle" x="226.5" y="-119.5" font-family="Helvetica,sans-Serif" font-size="10.00">meshio.cpp</text>
</g>
<!-- Node2 -->
<g id="node2" class="node"><title>Node2</title>
<g id="a_node2"><a xlink:href="meshio_8h.html" target="_top" xlink:title="meshio.h">
<polygon fill="white" stroke="black" points="58,-56.5 58,-75.5 119,-75.5 119,-56.5 58,-56.5"/>
<text text-anchor="middle" x="88.5" y="-63.5" font-family="Helvetica,sans-Serif" font-size="10.00">meshio.h</text>
</a>
</g>
</g>
<!-- Node1&#45;&gt;Node2 -->
<g id="edge1" class="edge"><title>Node1&#45;&gt;Node2</title>
<path fill="none" stroke="midnightblue" d="M204.633,-112.444C181.721,-103.478 145.525,-89.314 119.634,-79.1827"/>
<polygon fill="midnightblue" stroke="midnightblue" points="120.852,-75.9011 110.264,-75.5164 118.301,-82.4198 120.852,-75.9011"/>
</g>
<!-- Node3 -->
<g id="node3" class="node"><title>Node3</title>
<polygon fill="white" stroke="#bfbfbf" points="0,-0.5 0,-19.5 59,-19.5 59,-0.5 0,-0.5"/>
<text text-anchor="middle" x="29.5" y="-7.5" font-family="Helvetica,sans-Serif" font-size="10.00">iostream</text>
</g>
<!-- Node1&#45;&gt;Node3 -->
<g id="edge9" class="edge"><title>Node1&#45;&gt;Node3</title>
<path fill="none" stroke="midnightblue" d="M190.455,-121.851C150.513,-120.789 86.711,-112.831 48.5,-76 36.0766,-64.0251 31.6531,-44.4167 30.14,-29.8633"/>
<polygon fill="midnightblue" stroke="midnightblue" points="33.608,-29.2641 29.4533,-19.5179 26.6234,-29.7278 33.608,-29.2641"/>
</g>
<!-- Node5 -->
<g id="node5" class="node"><title>Node5</title>
<polygon fill="white" stroke="#bfbfbf" points="137.5,-56.5 137.5,-75.5 181.5,-75.5 181.5,-56.5 137.5,-56.5"/>
<text text-anchor="middle" x="159.5" y="-63.5" font-family="Helvetica,sans-Serif" font-size="10.00">string</text>
</g>
<!-- Node1&#45;&gt;Node5 -->
<g id="edge4" class="edge"><title>Node1&#45;&gt;Node5</title>
<path fill="none" stroke="midnightblue" d="M215.735,-112.324C205.734,-104.263 190.613,-92.0765 178.57,-82.3695"/>
<polygon fill="midnightblue" stroke="midnightblue" points="180.443,-79.3841 170.461,-75.8339 176.05,-84.8343 180.443,-79.3841"/>
</g>
<!-- Node6 -->
<g id="node6" class="node"><title>Node6</title>
<polygon fill="white" stroke="#bfbfbf" points="199.5,-56.5 199.5,-75.5 253.5,-75.5 253.5,-56.5 199.5,-56.5"/>
<text text-anchor="middle" x="226.5" y="-63.5" font-family="Helvetica,sans-Serif" font-size="10.00">fstream</text>
</g>
<!-- Node1&#45;&gt;Node6 -->
<g id="edge5" class="edge"><title>Node1&#45;&gt;Node6</title>
<path fill="none" stroke="midnightblue" d="M226.5,-112.083C226.5,-105.006 226.5,-94.8611 226.5,-85.9865"/>
<polygon fill="midnightblue" stroke="midnightblue" points="230,-85.751 226.5,-75.7511 223,-85.7511 230,-85.751"/>
</g>
<!-- Node7 -->
<g id="node7" class="node"><title>Node7</title>
<polygon fill="white" stroke="#bfbfbf" points="271.5,-56.5 271.5,-75.5 323.5,-75.5 323.5,-56.5 271.5,-56.5"/>
<text text-anchor="middle" x="297.5" y="-63.5" font-family="Helvetica,sans-Serif" font-size="10.00">cassert</text>
</g>
<!-- Node1&#45;&gt;Node7 -->
<g id="edge6" class="edge"><title>Node1&#45;&gt;Node7</title>
<path fill="none" stroke="midnightblue" d="M237.907,-112.324C248.609,-104.185 264.841,-91.8395 277.663,-82.0874"/>
<polygon fill="midnightblue" stroke="midnightblue" points="280.044,-84.6734 285.885,-75.8339 275.807,-79.1018 280.044,-84.6734"/>
</g>
<!-- Node8 -->
<g id="node8" class="node"><title>Node8</title>
<polygon fill="white" stroke="#bfbfbf" points="342,-56.5 342,-75.5 389,-75.5 389,-56.5 342,-56.5"/>
<text text-anchor="middle" x="365.5" y="-63.5" font-family="Helvetica,sans-Serif" font-size="10.00">cmath</text>
</g>
<!-- Node1&#45;&gt;Node8 -->
<g id="edge7" class="edge"><title>Node1&#45;&gt;Node8</title>
<path fill="none" stroke="midnightblue" d="M248.525,-112.444C271.604,-103.478 308.062,-89.314 334.141,-79.1827"/>
<polygon fill="midnightblue" stroke="midnightblue" points="335.524,-82.4002 343.578,-75.5164 332.989,-75.8753 335.524,-82.4002"/>
</g>
<!-- Node9 -->
<g id="node9" class="node"><title>Node9</title>
<polygon fill="white" stroke="#bfbfbf" points="407,-56.5 407,-75.5 462,-75.5 462,-56.5 407,-56.5"/>
<text text-anchor="middle" x="434.5" y="-63.5" font-family="Helvetica,sans-Serif" font-size="10.00">iomanip</text>
</g>
<!-- Node1&#45;&gt;Node9 -->
<g id="edge8" class="edge"><title>Node1&#45;&gt;Node9</title>
<path fill="none" stroke="midnightblue" d="M259.458,-112.444C296.868,-102.731 357.768,-86.9208 396.973,-76.7426"/>
<polygon fill="midnightblue" stroke="midnightblue" points="397.889,-80.1209 406.688,-74.2203 396.13,-73.3455 397.889,-80.1209"/>
</g>
<!-- Node2&#45;&gt;Node3 -->
<g id="edge2" class="edge"><title>Node2&#45;&gt;Node3</title>
<path fill="none" stroke="midnightblue" d="M79.0206,-56.324C70.2989,-48.3414 57.1565,-36.3128 46.6022,-26.6529"/>
<polygon fill="midnightblue" stroke="midnightblue" points="48.8917,-24.0036 39.1519,-19.8339 44.1655,-29.1674 48.8917,-24.0036"/>
</g>
<!-- Node4 -->
<g id="node4" class="node"><title>Node4</title>
<polygon fill="white" stroke="#bfbfbf" points="77,-0.5 77,-19.5 124,-19.5 124,-0.5 77,-0.5"/>
<text text-anchor="middle" x="100.5" y="-7.5" font-family="Helvetica,sans-Serif" font-size="10.00">vector</text>
</g>
<!-- Node2&#45;&gt;Node4 -->
<g id="edge3" class="edge"><title>Node2&#45;&gt;Node4</title>
<path fill="none" stroke="midnightblue" d="M90.4816,-56.083C92.0717,-48.9272 94.3588,-38.6353 96.3464,-29.6911"/>
<polygon fill="midnightblue" stroke="midnightblue" points="99.8026,-30.2722 98.5553,-19.7511 92.9693,-28.7537 99.8026,-30.2722"/>
</g>
</g>
</svg>
