<?xml version="1.0" encoding="UTF-8" standalone="no"?>
<!DOCTYPE svg PUBLIC "-//W3C//DTD SVG 1.1//EN"
 "http://www.w3.org/Graphics/SVG/1.1/DTD/svg11.dtd">
<!-- Generated by graphviz version 2.38.0 (20140413.2041)
 -->
<!-- Title: postprocessing.c Pages: 1 -->
<svg width="462pt" height="84pt"
 viewBox="0.00 0.00 461.50 84.00" xmlns="http://www.w3.org/2000/svg" xmlns:xlink="http://www.w3.org/1999/xlink">
<g id="graph0" class="graph" transform="scale(1 1) rotate(0) translate(4 80)">
<title>postprocessing.c</title>
<polygon fill="white" stroke="none" points="-4,4 -4,-80 457.5,-80 457.5,4 -4,4"/>
<!-- Node1 -->
<g id="node1" class="node"><title>Node1</title>
<polygon fill="#bfbfbf" stroke="black" points="148.5,-56.5 148.5,-75.5 246.5,-75.5 246.5,-56.5 148.5,-56.5"/>
<text text-anchor="middle" x="197.5" y="-63.5" font-family="Helvetica,sans-Serif" font-size="10.00">postprocessing.c</text>
</g>
<!-- Node2 -->
<g id="node2" class="node"><title>Node2</title>
<polygon fill="white" stroke="#bfbfbf" points="0,-0.5 0,-19.5 51,-19.5 51,-0.5 0,-0.5"/>
<text text-anchor="middle" x="25.5" y="-7.5" font-family="Helvetica,sans-Serif" font-size="10.00">stdlib.h</text>
</g>
<!-- Node1&#45;&gt;Node2 -->
<g id="edge1" class="edge"><title>Node1&#45;&gt;Node2</title>
<path fill="none" stroke="midnightblue" d="M170.246,-56.4435C140.63,-47.1454 93.2081,-32.2572 60.7711,-22.0735"/>
<polygon fill="midnightblue" stroke="midnightblue" points="61.8111,-18.7316 51.2218,-19.0755 59.7143,-25.4102 61.8111,-18.7316"/>
</g>
<!-- Node3 -->
<g id="node3" class="node"><title>Node3</title>
<polygon fill="white" stroke="#bfbfbf" points="69,-0.5 69,-19.5 118,-19.5 118,-0.5 69,-0.5"/>
<text text-anchor="middle" x="93.5" y="-7.5" font-family="Helvetica,sans-Serif" font-size="10.00">stdio.h</text>
</g>
<!-- Node1&#45;&gt;Node3 -->
<g id="edge2" class="edge"><title>Node1&#45;&gt;Node3</title>
<path fill="none" stroke="midnightblue" d="M180.791,-56.324C164.188,-47.7034 138.498,-34.3643 119.28,-24.3855"/>
<polygon fill="midnightblue" stroke="midnightblue" points="120.656,-21.1565 110.168,-19.6545 117.43,-27.3689 120.656,-21.1565"/>
</g>
<!-- Node4 -->
<g id="node4" class="node"><title>Node4</title>
<polygon fill="white" stroke="#bfbfbf" points="136,-0.5 136,-19.5 187,-19.5 187,-0.5 136,-0.5"/>
<text text-anchor="middle" x="161.5" y="-7.5" font-family="Helvetica,sans-Serif" font-size="10.00">math.h</text>
</g>
<!-- Node1&#45;&gt;Node4 -->
<g id="edge3" class="edge"><title>Node1&#45;&gt;Node4</title>
<path fill="none" stroke="midnightblue" d="M191.555,-56.083C186.523,-48.5341 179.163,-37.4948 172.987,-28.2298"/>
<polygon fill="midnightblue" stroke="midnightblue" points="175.793,-26.1301 167.334,-19.7511 169.969,-30.0131 175.793,-26.1301"/>
</g>
<!-- Node5 -->
<g id="node5" class="node"><title>Node5</title>
<polygon fill="white" stroke="#bfbfbf" points="205.5,-0.5 205.5,-19.5 263.5,-19.5 263.5,-0.5 205.5,-0.5"/>
<text text-anchor="middle" x="234.5" y="-7.5" font-family="Helvetica,sans-Serif" font-size="10.00">strings.h</text>
</g>
<!-- Node1&#45;&gt;Node5 -->
<g id="edge4" class="edge"><title>Node1&#45;&gt;Node5</title>
<path fill="none" stroke="midnightblue" d="M203.61,-56.083C208.782,-48.5341 216.346,-37.4948 222.694,-28.2298"/>
<polygon fill="midnightblue" stroke="midnightblue" points="225.739,-29.9787 228.504,-19.7511 219.964,-26.0221 225.739,-29.9787"/>
</g>
<!-- Node6 -->
<g id="node6" class="node"><title>Node6</title>
<polygon fill="white" stroke="#bfbfbf" points="281.5,-0.5 281.5,-19.5 337.5,-19.5 337.5,-0.5 281.5,-0.5"/>
<text text-anchor="middle" x="309.5" y="-7.5" font-family="Helvetica,sans-Serif" font-size="10.00">assert.h</text>
</g>
<!-- Node1&#45;&gt;Node6 -->
<g id="edge5" class="edge"><title>Node1&#45;&gt;Node6</title>
<path fill="none" stroke="midnightblue" d="M215.495,-56.324C233.538,-47.6247 261.547,-34.1202 282.303,-24.113"/>
<polygon fill="midnightblue" stroke="midnightblue" points="284.062,-27.1502 291.55,-19.6545 281.022,-20.8449 284.062,-27.1502"/>
</g>
<!-- Node7 -->
<g id="node7" class="node"><title>Node7</title>
<g id="a_node7"><a xlink:href="postprocessing_8h.html" target="_top" xlink:title="Python interface to velocity postprocessing library. ">
<polygon fill="white" stroke="black" points="355.5,-0.5 355.5,-19.5 453.5,-19.5 453.5,-0.5 355.5,-0.5"/>
<text text-anchor="middle" x="404.5" y="-7.5" font-family="Helvetica,sans-Serif" font-size="10.00">postprocessing.h</text>
</a>
</g>
</g>
<!-- Node1&#45;&gt;Node7 -->
<g id="edge6" class="edge"><title>Node1&#45;&gt;Node7</title>
<path fill="none" stroke="midnightblue" d="M230.3,-56.4435C265.88,-47.1616 322.814,-32.3093 361.847,-22.127"/>
<polygon fill="midnightblue" stroke="midnightblue" points="363.061,-25.4274 371.854,-19.5164 361.294,-18.6541 363.061,-25.4274"/>
</g>
</g>
</svg>
