<?xml version="1.0" encoding="UTF-8" standalone="no"?>
<!DOCTYPE svg PUBLIC "-//W3C//DTD SVG 1.1//EN"
 "http://www.w3.org/Graphics/SVG/1.1/DTD/svg11.dtd">
<!-- Generated by graphviz version 2.38.0 (20140413.2041)
 -->
<!-- Title: sparsity.cpp Pages: 1 -->
<svg width="246pt" height="140pt"
 viewBox="0.00 0.00 246.00 140.00" xmlns="http://www.w3.org/2000/svg" xmlns:xlink="http://www.w3.org/1999/xlink">
<g id="graph0" class="graph" transform="scale(1 1) rotate(0) translate(4 136)">
<title>sparsity.cpp</title>
<polygon fill="white" stroke="none" points="-4,4 -4,-136 242,-136 242,4 -4,4"/>
<!-- Node1 -->
<g id="node1" class="node"><title>Node1</title>
<polygon fill="#bfbfbf" stroke="black" points="65.5,-112.5 65.5,-131.5 138.5,-131.5 138.5,-112.5 65.5,-112.5"/>
<text text-anchor="middle" x="102" y="-119.5" font-family="Helvetica,sans-Serif" font-size="10.00">sparsity.cpp</text>
</g>
<!-- Node2 -->
<g id="node2" class="node"><title>Node2</title>
<g id="a_node2"><a xlink:href="sparsity_8h.html" target="_top" xlink:title="sparsity.h">
<polygon fill="white" stroke="black" points="71,-56.5 71,-75.5 133,-75.5 133,-56.5 71,-56.5"/>
<text text-anchor="middle" x="102" y="-63.5" font-family="Helvetica,sans-Serif" font-size="10.00">sparsity.h</text>
</a>
</g>
</g>
<!-- Node1&#45;&gt;Node2 -->
<g id="edge1" class="edge"><title>Node1&#45;&gt;Node2</title>
<path fill="none" stroke="midnightblue" d="M102,-112.083C102,-105.006 102,-94.8611 102,-85.9865"/>
<polygon fill="midnightblue" stroke="midnightblue" points="105.5,-85.751 102,-75.7511 98.5001,-85.7511 105.5,-85.751"/>
</g>
<!-- Node3 -->
<g id="node3" class="node"><title>Node3</title>
<polygon fill="white" stroke="#bfbfbf" points="0,-0.5 0,-19.5 38,-19.5 38,-0.5 0,-0.5"/>
<text text-anchor="middle" x="19" y="-7.5" font-family="Helvetica,sans-Serif" font-size="10.00">map</text>
</g>
<!-- Node2&#45;&gt;Node3 -->
<g id="edge2" class="edge"><title>Node2&#45;&gt;Node3</title>
<path fill="none" stroke="midnightblue" d="M88.6646,-56.324C75.838,-47.979 56.215,-35.2122 41.0602,-25.3524"/>
<polygon fill="midnightblue" stroke="midnightblue" points="42.5932,-22.1742 32.3023,-19.6545 38.7757,-28.0417 42.5932,-22.1742"/>
</g>
<!-- Node4 -->
<g id="node4" class="node"><title>Node4</title>
<polygon fill="white" stroke="#bfbfbf" points="56,-0.5 56,-19.5 88,-19.5 88,-0.5 56,-0.5"/>
<text text-anchor="middle" x="72" y="-7.5" font-family="Helvetica,sans-Serif" font-size="10.00">set</text>
</g>
<!-- Node2&#45;&gt;Node4 -->
<g id="edge3" class="edge"><title>Node2&#45;&gt;Node4</title>
<path fill="none" stroke="midnightblue" d="M97.0461,-56.083C92.8959,-48.6127 86.8469,-37.7244 81.7333,-28.5199"/>
<polygon fill="midnightblue" stroke="midnightblue" points="84.7777,-26.7929 76.8617,-19.7511 78.6586,-30.1924 84.7777,-26.7929"/>
</g>
<!-- Node5 -->
<g id="node5" class="node"><title>Node5</title>
<polygon fill="white" stroke="#bfbfbf" points="106,-0.5 106,-19.5 158,-19.5 158,-0.5 106,-0.5"/>
<text text-anchor="middle" x="132" y="-7.5" font-family="Helvetica,sans-Serif" font-size="10.00">cassert</text>
</g>
<!-- Node2&#45;&gt;Node5 -->
<g id="edge4" class="edge"><title>Node2&#45;&gt;Node5</title>
<path fill="none" stroke="midnightblue" d="M106.954,-56.083C111.104,-48.6127 117.153,-37.7244 122.267,-28.5199"/>
<polygon fill="midnightblue" stroke="midnightblue" points="125.341,-30.1924 127.138,-19.7511 119.222,-26.7929 125.341,-30.1924"/>
</g>
<!-- Node6 -->
<g id="node6" class="node"><title>Node6</title>
<polygon fill="white" stroke="#bfbfbf" points="176,-0.5 176,-19.5 238,-19.5 238,-0.5 176,-0.5"/>
<text text-anchor="middle" x="207" y="-7.5" font-family="Helvetica,sans-Serif" font-size="10.00">algorithm</text>
</g>
<!-- Node2&#45;&gt;Node6 -->
<g id="edge5" class="edge"><title>Node2&#45;&gt;Node6</title>
<path fill="none" stroke="midnightblue" d="M118.87,-56.324C135.709,-47.6641 161.807,-34.2424 181.238,-24.249"/>
<polygon fill="midnightblue" stroke="midnightblue" points="182.88,-27.3405 190.172,-19.6545 179.678,-21.1155 182.88,-27.3405"/>
</g>
</g>
</svg>
