<?xml version="1.0" encoding="UTF-8" standalone="no"?>
<!DOCTYPE svg PUBLIC "-//W3C//DTD SVG 1.1//EN"
 "http://www.w3.org/Graphics/SVG/1.1/DTD/svg11.dtd">
<!-- Generated by graphviz version 2.38.0 (20140413.2041)
 -->
<!-- Title: transportCoefficients.c Pages: 1 -->
<svg width="353pt" height="140pt"
 viewBox="0.00 0.00 353.00 140.00" xmlns="http://www.w3.org/2000/svg" xmlns:xlink="http://www.w3.org/1999/xlink">
<g id="graph0" class="graph" transform="scale(1 1) rotate(0) translate(4 136)">
<title>transportCoefficients.c</title>
<polygon fill="white" stroke="none" points="-4,4 -4,-136 349,-136 349,4 -4,4"/>
<!-- Node1 -->
<g id="node1" class="node"><title>Node1</title>
<polygon fill="#bfbfbf" stroke="black" points="106,-112.5 106,-131.5 231,-131.5 231,-112.5 106,-112.5"/>
<text text-anchor="middle" x="168.5" y="-119.5" font-family="Helvetica,sans-Serif" font-size="10.00">transportCoefficients.c</text>
</g>
<!-- Node2 -->
<g id="node2" class="node"><title>Node2</title>
<g id="a_node2"><a xlink:href="transport_coefficients_8h.html" target="_top" xlink:title="transportCoefficients.h">
<polygon fill="white" stroke="black" points="106,-56.5 106,-75.5 231,-75.5 231,-56.5 106,-56.5"/>
<text text-anchor="middle" x="168.5" y="-63.5" font-family="Helvetica,sans-Serif" font-size="10.00">transportCoefficients.h</text>
</a>
</g>
</g>
<!-- Node1&#45;&gt;Node2 -->
<g id="edge1" class="edge"><title>Node1&#45;&gt;Node2</title>
<path fill="none" stroke="midnightblue" d="M168.5,-112.083C168.5,-105.006 168.5,-94.8611 168.5,-85.9865"/>
<polygon fill="midnightblue" stroke="midnightblue" points="172,-85.751 168.5,-75.7511 165,-85.7511 172,-85.751"/>
</g>
<!-- Node3 -->
<g id="node3" class="node"><title>Node3</title>
<polygon fill="white" stroke="#bfbfbf" points="0,-0.5 0,-19.5 51,-19.5 51,-0.5 0,-0.5"/>
<text text-anchor="middle" x="25.5" y="-7.5" font-family="Helvetica,sans-Serif" font-size="10.00">math.h</text>
</g>
<!-- Node2&#45;&gt;Node3 -->
<g id="edge2" class="edge"><title>Node2&#45;&gt;Node3</title>
<path fill="none" stroke="midnightblue" d="M145.841,-56.4435C122.098,-47.4776 84.5909,-33.314 57.7616,-23.1827"/>
<polygon fill="midnightblue" stroke="midnightblue" points="58.6445,-19.7749 48.0528,-19.5164 56.1715,-26.3235 58.6445,-19.7749"/>
</g>
<!-- Node4 -->
<g id="node4" class="node"><title>Node4</title>
<polygon fill="white" stroke="#bfbfbf" points="69.5,-0.5 69.5,-19.5 125.5,-19.5 125.5,-0.5 69.5,-0.5"/>
<text text-anchor="middle" x="97.5" y="-7.5" font-family="Helvetica,sans-Serif" font-size="10.00">assert.h</text>
</g>
<!-- Node2&#45;&gt;Node4 -->
<g id="edge3" class="edge"><title>Node2&#45;&gt;Node4</title>
<path fill="none" stroke="midnightblue" d="M157.093,-56.324C146.391,-48.1849 130.159,-35.8395 117.337,-26.0874"/>
<polygon fill="midnightblue" stroke="midnightblue" points="119.193,-23.1018 109.115,-19.8339 114.956,-28.6734 119.193,-23.1018"/>
</g>
<!-- Node5 -->
<g id="node5" class="node"><title>Node5</title>
<polygon fill="white" stroke="#bfbfbf" points="144,-0.5 144,-19.5 193,-19.5 193,-0.5 144,-0.5"/>
<text text-anchor="middle" x="168.5" y="-7.5" font-family="Helvetica,sans-Serif" font-size="10.00">stdio.h</text>
</g>
<!-- Node2&#45;&gt;Node5 -->
<g id="edge4" class="edge"><title>Node2&#45;&gt;Node5</title>
<path fill="none" stroke="midnightblue" d="M168.5,-56.083C168.5,-49.0059 168.5,-38.8611 168.5,-29.9865"/>
<polygon fill="midnightblue" stroke="midnightblue" points="172,-29.751 168.5,-19.7511 165,-29.7511 172,-29.751"/>
</g>
<!-- Node6 -->
<g id="node6" class="node"><title>Node6</title>
<polygon fill="white" stroke="#bfbfbf" points="211,-0.5 211,-19.5 276,-19.5 276,-0.5 211,-0.5"/>
<text text-anchor="middle" x="243.5" y="-7.5" font-family="Helvetica,sans-Serif" font-size="10.00">memory.h</text>
</g>
<!-- Node2&#45;&gt;Node6 -->
<g id="edge5" class="edge"><title>Node2&#45;&gt;Node6</title>
<path fill="none" stroke="midnightblue" d="M180.55,-56.324C191.963,-48.1066 209.331,-35.6017 222.935,-25.8069"/>
<polygon fill="midnightblue" stroke="midnightblue" points="225.16,-28.5174 231.231,-19.8339 221.07,-22.8366 225.16,-28.5174"/>
</g>
<!-- Node7 -->
<g id="node7" class="node"><title>Node7</title>
<polygon fill="white" stroke="#bfbfbf" points="294,-0.5 294,-19.5 345,-19.5 345,-0.5 294,-0.5"/>
<text text-anchor="middle" x="319.5" y="-7.5" font-family="Helvetica,sans-Serif" font-size="10.00">stdlib.h</text>
</g>
<!-- Node2&#45;&gt;Node7 -->
<g id="edge6" class="edge"><title>Node2&#45;&gt;Node7</title>
<path fill="none" stroke="midnightblue" d="M192.426,-56.4435C217.719,-47.3986 257.802,-33.064 286.18,-22.9158"/>
<polygon fill="midnightblue" stroke="midnightblue" points="287.448,-26.1794 295.686,-19.5164 285.091,-19.5882 287.448,-26.1794"/>
</g>
</g>
</svg>
