<?xml version="1.0" encoding="UTF-8" standalone="no"?>
<!DOCTYPE svg PUBLIC "-//W3C//DTD SVG 1.1//EN"
 "http://www.w3.org/Graphics/SVG/1.1/DTD/svg11.dtd">
<!-- Generated by graphviz version 2.38.0 (20140413.2041)
 -->
<!-- Title: twophaseDarcyCoefficients.h Pages: 1 -->
<svg width="521pt" height="140pt"
 viewBox="0.00 0.00 521.00 140.00" xmlns="http://www.w3.org/2000/svg" xmlns:xlink="http://www.w3.org/1999/xlink">
<g id="graph0" class="graph" transform="scale(1 1) rotate(0) translate(4 136)">
<title>twophaseDarcyCoefficients.h</title>
<polygon fill="white" stroke="none" points="-4,4 -4,-136 517,-136 517,4 -4,4"/>
<!-- Node1 -->
<g id="node1" class="node"><title>Node1</title>
<polygon fill="#bfbfbf" stroke="black" points="31,-112.5 31,-131.5 186,-131.5 186,-112.5 31,-112.5"/>
<text text-anchor="middle" x="108.5" y="-119.5" font-family="Helvetica,sans-Serif" font-size="10.00">twophaseDarcyCoefficients.h</text>
</g>
<!-- Node2 -->
<g id="node2" class="node"><title>Node2</title>
<g id="a_node2"><a xlink:href="density_relations_8h.html" target="_top" xlink:title="densityRelations.h">
<polygon fill="white" stroke="black" points="0,-0.5 0,-19.5 103,-19.5 103,-0.5 0,-0.5"/>
<text text-anchor="middle" x="51.5" y="-7.5" font-family="Helvetica,sans-Serif" font-size="10.00">densityRelations.h</text>
</a>
</g>
</g>
<!-- Node1&#45;&gt;Node2 -->
<g id="edge1" class="edge"><title>Node1&#45;&gt;Node2</title>
<path fill="none" stroke="midnightblue" d="M104.027,-112.368C94.7039,-94.376 73.0306,-52.5503 60.6338,-28.6267"/>
<polygon fill="midnightblue" stroke="midnightblue" points="63.6604,-26.8599 55.9519,-19.5914 57.4452,-30.0805 63.6604,-26.8599"/>
</g>
<!-- Node3 -->
<g id="node3" class="node"><title>Node3</title>
<g id="a_node3"><a xlink:href="psk_relations_8h.html" target="_top" xlink:title="pskRelations.h">
<polygon fill="white" stroke="black" points="137,-56.5 137,-75.5 222,-75.5 222,-56.5 137,-56.5"/>
<text text-anchor="middle" x="179.5" y="-63.5" font-family="Helvetica,sans-Serif" font-size="10.00">pskRelations.h</text>
</a>
</g>
</g>
<!-- Node1&#45;&gt;Node3 -->
<g id="edge2" class="edge"><title>Node1&#45;&gt;Node3</title>
<path fill="none" stroke="midnightblue" d="M119.907,-112.324C130.609,-104.185 146.841,-91.8395 159.663,-82.0874"/>
<polygon fill="midnightblue" stroke="midnightblue" points="162.044,-84.6734 167.885,-75.8339 157.807,-79.1018 162.044,-84.6734"/>
</g>
<!-- Node3&#45;&gt;Node2 -->
<g id="edge6" class="edge"><title>Node3&#45;&gt;Node2</title>
<path fill="none" stroke="midnightblue" d="M159.218,-56.4435C138.153,-47.5566 104.983,-33.5632 81.0145,-23.4514"/>
<polygon fill="midnightblue" stroke="midnightblue" points="82.2612,-20.1787 71.6871,-19.5164 79.5403,-26.6283 82.2612,-20.1787"/>
</g>
<!-- Node4 -->
<g id="node4" class="node"><title>Node4</title>
<polygon fill="white" stroke="#bfbfbf" points="121,-0.5 121,-19.5 168,-19.5 168,-0.5 121,-0.5"/>
<text text-anchor="middle" x="144.5" y="-7.5" font-family="Helvetica,sans-Serif" font-size="10.00">cmath</text>
</g>
<!-- Node3&#45;&gt;Node4 -->
<g id="edge3" class="edge"><title>Node3&#45;&gt;Node4</title>
<path fill="none" stroke="midnightblue" d="M173.72,-56.083C168.828,-48.5341 161.673,-37.4948 155.667,-28.2298"/>
<polygon fill="midnightblue" stroke="midnightblue" points="158.548,-26.239 150.172,-19.7511 152.674,-30.0463 158.548,-26.239"/>
</g>
<!-- Node5 -->
<g id="node5" class="node"><title>Node5</title>
<polygon fill="white" stroke="#bfbfbf" points="186,-0.5 186,-19.5 245,-19.5 245,-0.5 186,-0.5"/>
<text text-anchor="middle" x="215.5" y="-7.5" font-family="Helvetica,sans-Serif" font-size="10.00">iostream</text>
</g>
<!-- Node3&#45;&gt;Node5 -->
<g id="edge4" class="edge"><title>Node3&#45;&gt;Node5</title>
<path fill="none" stroke="midnightblue" d="M185.445,-56.083C190.477,-48.5341 197.837,-37.4948 204.013,-28.2298"/>
<polygon fill="midnightblue" stroke="midnightblue" points="207.031,-30.0131 209.666,-19.7511 201.207,-26.1301 207.031,-30.0131"/>
</g>
<!-- Node6 -->
<g id="node6" class="node"><title>Node6</title>
<polygon fill="white" stroke="#bfbfbf" points="263.5,-0.5 263.5,-19.5 315.5,-19.5 315.5,-0.5 263.5,-0.5"/>
<text text-anchor="middle" x="289.5" y="-7.5" font-family="Helvetica,sans-Serif" font-size="10.00">cassert</text>
</g>
<!-- Node3&#45;&gt;Node6 -->
<g id="edge5" class="edge"><title>Node3&#45;&gt;Node6</title>
<path fill="none" stroke="midnightblue" d="M197.173,-56.324C214.894,-47.6247 242.403,-34.1202 262.788,-24.113"/>
<polygon fill="midnightblue" stroke="midnightblue" points="264.436,-27.2031 271.87,-19.6545 261.351,-20.9195 264.436,-27.2031"/>
</g>
<!-- Node7 -->
<g id="node7" class="node"><title>Node7</title>
<g id="a_node7"><a xlink:href="_subsurface_transport_coefficients_8h.html" target="_top" xlink:title="SubsurfaceTransportCoefficients.h">
<polygon fill="white" stroke="black" points="334,-0.5 334,-19.5 513,-19.5 513,-0.5 334,-0.5"/>
<text text-anchor="middle" x="423.5" y="-7.5" font-family="Helvetica,sans-Serif" font-size="10.00">SubsurfaceTransportCoefficients.h</text>
</a>
</g>
</g>
<!-- Node3&#45;&gt;Node7 -->
<g id="edge7" class="edge"><title>Node3&#45;&gt;Node7</title>
<path fill="none" stroke="midnightblue" d="M218.163,-56.4435C260.638,-47.0431 328.931,-31.9291 374.974,-21.7393"/>
<polygon fill="midnightblue" stroke="midnightblue" points="376.011,-25.0946 385.018,-19.5164 374.498,-18.26 376.011,-25.0946"/>
</g>
</g>
</svg>
