<?xml version="1.0" encoding="UTF-8" standalone="no"?>
<!-- Created with Inkscape (http://www.inkscape.org/) -->

<svg
   xmlns:dc="http://purl.org/dc/elements/1.1/"
   xmlns:cc="http://creativecommons.org/ns#"
   xmlns:rdf="http://www.w3.org/1999/02/22-rdf-syntax-ns#"
   xmlns:svg="http://www.w3.org/2000/svg"
   xmlns="http://www.w3.org/2000/svg"
   xmlns:sodipodi="http://sodipodi.sourceforge.net/DTD/sodipodi-0.dtd"
   xmlns:inkscape="http://www.inkscape.org/namespaces/inkscape"
   id="svg2"
   version="1.1"
   inkscape:version="0.92.5 (2060ec1f9f, 2020-04-08)"
   width="92.903642"
   height="69.180522"
   xml:space="preserve"
   sodipodi:docname="lsu_logo_cross2.svg"><metadata
     id="metadata8"><rdf:RDF><cc:Work
         rdf:about=""><dc:format>image/svg+xml</dc:format><dc:type
           rdf:resource="http://purl.org/dc/dcmitype/StillImage" /><dc:title /></cc:Work></rdf:RDF></metadata><defs
     id="defs6" /><sodipodi:namedview
     pagecolor="#ffffff"
     bordercolor="#666666"
     borderopacity="1"
     objecttolerance="10"
     gridtolerance="10"
     guidetolerance="10"
     inkscape:pageopacity="0"
     inkscape:pageshadow="2"
     inkscape:window-width="1737"
     inkscape:window-height="1126"
     id="namedview4"
     showgrid="false"
     inkscape:zoom="13.661303"
     inkscape:cx="52.10758"
     inkscape:cy="48.638951"
     inkscape:window-x="72"
     inkscape:window-y="27"
     inkscape:window-maximized="0"
     inkscape:current-layer="g12" /><g
     id="g10"
     inkscape:groupmode="layer"
     inkscape:label="corps_logo"
     transform="matrix(1.25,0,0,-1.25,0,69.180522)"><g
       id="g12"><path
         d="m 8.1910269,-0.1074472 c -5.207,-0.062 -8.3144741,3.7715528 -8.1304741,7.8845528 L 0.07318427,49.032079 c -0.187,4.894 3.34163143,6.175921 7.53663143,6.171921 l 59.1035533,0.285079 c 4.812,-0.027 7.722262,-0.770895 7.620262,-7.008895 L 74.418157,8.1887371 C 74.824157,3.3217371 71.48,0.212 67.379,0.29 z M 67.578157,5.075 c 2.191,0.101 2.453659,1.4132629 2.285659,2.8502629 L 69.867,48.922263 c 0.008,2.449 -0.671106,2.421737 -2.733106,2.460737 L 7.672,51.083 C 6.367,50.977 4.7419213,50.81871 4.9059213,49.03771 L 5.3550269,7.9331843 C 5.4370269,5.8901843 6.0062112,4.993 8.1112112,4.954 z"
         style="fill:#ff0000;fill-opacity:1;fill-rule:nonzero;stroke:none;stroke-width:0.29059401000000001;stroke-linecap:butt;stroke-linejoin:miter;stroke-miterlimit:4;stroke-opacity:1;stroke-dasharray:none"
         id="path30"
         inkscape:connector-curvature="0"
         sodipodi:nodetypes="cccccccccccccccccc" /><path
         style="color:#000000;fill:#ff0000;fill-opacity:1;fill-rule:nonzero;stroke:#000000;stroke-width:0;stroke-linecap:round;stroke-linejoin:bevel;stroke-miterlimit:4;stroke-opacity:1;stroke-dasharray:none;stroke-dashoffset:0;marker:none;visibility:visible;display:inline;overflow:visible;enable-background:accumulate"
         d="M 11.90625 8 C 10.701902 8 9.71875 8.9831522 9.71875 10.1875 L 9.71875 57.46875 C 9.71875 58.673098 10.701902 59.65625 11.90625 59.65625 L 82.09375 59.65625 C 83.298098 59.65625 84.25 58.673098 84.25 57.46875 L 84.25 10.1875 C 84.25 8.9831522 83.298098 8 82.09375 8 L 11.90625 8 z M 78.03125 13.21875 C 70.711835 25.552928 67.109749 34.931604 64.59375 49.96875 L 51.96875 50 L 52.0625 57.0625 L 44.9375 57.09375 L 44.71875 49.9375 L 32.875 50.03125 C 30.343424 35.449272 25.026843 24.077304 16.875 13.375 C 22.415609 18.05132 28.215166 22.173968 34.46875 25.03125 L 27.34375 23.71875 L 36.9375 44.40625 L 44.53125 44.46875 C 45.827906 36.893309 46.390371 29.950012 44.75 22.8125 L 39.5 24.0625 C 43.637629 20.934192 47.165349 17.162103 48.375 13.375 C 49.62285 17.305682 52.647371 21.082562 56.75 24.28125 L 51.46875 22.90625 C 49.628864 30.032915 49.616565 36.861786 51.65625 44.28125 L 60.75 44.34375 L 68.03125 24.90625 C 67.878605 24.889288 62.245885 25.638454 61.65625 25.5625 C 68.135413 22.497251 72.394166 18.998391 78.03125 13.21875 z "
         transform="matrix(0.8,0,0,-0.8,0,55.344418)"
         id="rect3775" /><path
         style="fill:none;stroke:#000000;stroke-width:0;stroke-linecap:round;stroke-linejoin:bevel;stroke-miterlimit:4;stroke-opacity:1;stroke-dasharray:none"
         d="M 29.046541,48.477423 C 28.937596,48.189038 20.199232,18.950804 20.199232,18.87466 c 0,-0.04524 1.245717,0.54094 2.76826,1.30263 l 2.768259,1.38489 3.274436,10.54613 3.274436,10.546132 1.229561,0.06305 c 0.676259,0.03468 2.452388,0.09685 3.946953,0.138166 l 2.717391,0.07511 -0.0029,-0.655763 c -0.0016,-0.360671 -0.182486,-5.123511 -0.401995,-10.584092 l -0.399106,-9.928328 2.126746,-2.675157 2.126746,-2.675157 0.174369,0.284645 c 0.0959,0.156554 0.903617,1.461835 1.794918,2.900625 l 1.620548,2.615981 0,10.260373 0,10.260374 2.510352,-0.067 c 1.380693,-0.03685 3.426772,-0.09601 4.546842,-0.131462 l 2.036489,-0.06446 2.909317,-8.655867 c 1.600123,-4.760727 3.174983,-9.428823 3.499688,-10.373547 l 0.590373,-1.717681 4.343917,-2.394632 c 2.389154,-1.317047 4.353832,-2.384153 4.365952,-2.371346 0.01212,0.01281 -1.080705,7.055893 -2.428497,15.651302 l -2.450531,15.628016 -0.360501,0.07273 c -0.198277,0.04 -7.930378,0.124246 -17.182449,0.187218 -20.941303,0.142531 -20.490665,0.142972 -20.552277,-0.02012 z"
         id="path3792"
         inkscape:connector-curvature="0"
         transform="matrix(0.8,0,0,-0.8,0,55.344418)" /><path
         style="fill:none;stroke:#000000;stroke-width:0;stroke-linecap:round;stroke-linejoin:bevel;stroke-miterlimit:4;stroke-opacity:1;stroke-dasharray:none"
         d="M 29.046541,48.477423 C 28.937596,48.189038 20.199232,18.950804 20.199232,18.87466 c 0,-0.04524 1.245717,0.54094 2.76826,1.30263 l 2.768259,1.38489 3.274436,10.54613 3.274436,10.546132 1.229561,0.06305 c 0.676259,0.03468 2.452388,0.09685 3.946953,0.138166 l 2.717391,0.07511 -0.0029,-0.655763 c -0.0016,-0.360671 -0.182486,-5.123511 -0.401995,-10.584092 l -0.399106,-9.928328 2.126746,-2.675157 2.126746,-2.675157 0.174369,0.284645 c 0.0959,0.156554 0.903617,1.461835 1.794918,2.900625 l 1.620548,2.615981 0,10.260373 0,10.260374 2.510352,-0.067 c 1.380693,-0.03685 3.426772,-0.09601 4.546842,-0.131462 l 2.036489,-0.06446 2.909317,-8.655867 c 1.600123,-4.760727 3.174983,-9.428823 3.499688,-10.373547 l 0.590373,-1.717681 4.343917,-2.394632 c 2.389154,-1.317047 4.353832,-2.384153 4.365952,-2.371346 0.01212,0.01281 -1.080705,7.055893 -2.428497,15.651302 l -2.450531,15.628016 -0.360501,0.07273 c -0.198277,0.04 -7.930378,0.124246 -17.182449,0.187218 -20.941303,0.142531 -20.490665,0.142972 -20.552277,-0.02012 z"
         id="path3794"
         inkscape:connector-curvature="0"
         transform="matrix(0.8,0,0,-0.8,0,55.344418)" /><path
         style="fill:none;stroke:#000000;stroke-width:0;stroke-linecap:round;stroke-linejoin:bevel;stroke-miterlimit:4;stroke-opacity:1;stroke-dasharray:none"
         d="M 29.046541,48.477423 C 28.937596,48.189038 20.199232,18.950804 20.199232,18.87466 c 0,-0.04524 1.245717,0.54094 2.76826,1.30263 l 2.768259,1.38489 3.274436,10.54613 3.274436,10.546132 1.229561,0.06305 c 0.676259,0.03468 2.452388,0.09685 3.946953,0.138166 l 2.717391,0.07511 -0.0029,-0.655763 c -0.0016,-0.360671 -0.182486,-5.123511 -0.401995,-10.584092 l -0.399106,-9.928328 2.126746,-2.675157 2.126746,-2.675157 0.174369,0.284645 c 0.0959,0.156554 0.903617,1.461835 1.794918,2.900625 l 1.620548,2.615981 0,10.260373 0,10.260374 2.510352,-0.067 c 1.380693,-0.03685 11.463458,0.02206 10.343943,-0.02794 l -3.760612,-0.16798 2.909317,-8.655867 c 1.600123,-4.760727 3.174983,-9.428823 3.499688,-10.373547 l 0.590373,-1.717681 4.343917,-2.394632 c 2.389154,-1.317047 4.353832,-2.384153 4.365952,-2.371346 0.01212,0.01281 -1.080705,7.055893 -2.428497,15.651302 l -2.450531,15.628016 -0.360501,0.07273 c -0.198277,0.04 -7.930378,0.124246 -17.182449,0.187218 -20.941303,0.142531 -20.490665,0.142972 -20.552277,-0.02012 z"
         id="path3796"
         inkscape:connector-curvature="0"
         transform="matrix(0.8,0,0,-0.8,0,55.344418)"
         sodipodi:nodetypes="csscccssccscccsscccsscsscscscsscc" /><path
         style="fill:#782167;stroke-width:0.07319946"
         d="M 8.4761326,69.174667 C 6.0962705,68.819774 4.1149201,67.841338 2.6568225,66.300959 1.4530386,65.029244 0.71871021,63.627695 0.26674448,61.739225 0.14182108,61.217251 0.1341658,59.864328 0.11121749,34.252827 0.09429079,15.361765 0.11065152,7.0817111 0.16598965,6.5329985 0.27352069,5.4667601 0.47249321,4.735767 0.87950673,3.9116514 1.1657889,3.3319908 1.3331266,3.1052191 1.8849621,2.5490838 2.8695399,1.5568341 3.9314023,0.9983906 5.5786149,0.60655646 7.091173,0.24675352 7.0321192,0.24875406 18.138461,0.18107234 40.995652,0.0417813 65.161131,-0.06446606 75.453638,-0.07092293 l 10.83352,-0.0067963 0.874727,0.16595663 c 1.91115,0.36259234 2.88195,0.80466008 3.820806,1.7398611 0.505757,0.5037916 0.653115,0.7102327 0.969901,1.3588167 0.385607,0.7894693 0.664029,1.7285894 0.812667,2.7411336 0.06226,0.4240498 0.10133,5.8212372 0.143867,19.8702412 0.09618,31.768138 0.09663,35.116778 0.0048,35.684737 -0.622723,3.850607 -3.234092,6.542005 -6.954849,7.167981 -0.740457,0.124573 -2.675353,0.145031 -31.58687,0.333983 -6.320774,0.04131 -16.136821,0.106898 -21.813439,0.145751 -21.343375,0.146085 -23.3727284,0.149787 -24.0826227,0.04393 z M 58.434764,62.915145 c 18.729882,-0.04545 26.642459,-0.08797 26.900801,-0.144544 0.54997,-0.120448 1.247202,-0.490938 1.499469,-0.796782 0.123034,-0.149157 0.290192,-0.44881 0.371473,-0.665897 0.147285,-0.393395 0.14776,-0.484025 0.142929,-27.339999 C 87.344386,5.7041746 87.352364,6.4588 87.051595,5.8735647 86.879342,5.538378 86.50724,5.2240932 86.142758,5.1059292 85.562045,4.9176662 83.799028,4.9134402 58.98376,5.0408281 9.211337,5.2963319 9.3366662,5.2954147 8.576716,5.4097361 7.1093364,5.6304783 6.3922976,6.0996663 6.1677391,6.9860287 6.0667365,7.3847 6.6409759,59.699131 6.7533458,60.336039 c 0.2441049,1.383577 0.7186498,2.045995 1.739275,2.42786 0.7792514,0.291556 -3.0728073,0.27989 49.9421432,0.151246 z"
         id="path58"
         inkscape:connector-curvature="0"
         transform="matrix(0.8,0,0,-0.8,0,55.344418)" /><path
         style="fill:#782167;stroke-width:0.07319946"
         d="M 11.148279,59.48894 C 10.941273,59.415801 10.664976,59.218415 10.403267,58.956706 9.6851576,58.238597 9.7537173,60.998456 9.7749855,33.665294 L 9.7937229,9.5846095 9.9588711,9.275547 C 10.217886,8.7908208 10.537321,8.4730785 10.988221,8.2516536 l 0.41589,-0.2042328 h 35.574937 35.574938 l 0.386449,0.1746397 c 0.230432,0.1041328 0.516488,0.319269 0.708534,0.5328746 0.608932,0.6772722 0.555138,-1.8612806 0.534144,25.2069959 -0.01824,23.513411 -0.0224,24.160714 -0.156866,24.410118 -0.250972,0.465501 -0.541442,0.773264 -0.936185,0.991929 l -0.389677,0.215863 -35.611537,0.01268 c -32.367142,0.01152 -35.641514,0.0021 -35.940569,-0.103577 z m 40.896141,-5.911049 -0.04569,-3.549768 6.309687,-0.01871 6.309688,-0.01871 0.166739,-0.951593 c 2.381579,-13.59189 5.691335,-22.766498 12.332017,-34.184212 0.421459,-0.724639 0.809242,-1.399875 0.861739,-1.500524 0.0525,-0.10065 -0.610421,0.508736 -1.473152,1.35419 -5.204,5.099783 -8.406144,7.505439 -13.568921,10.193841 l -1.317591,0.686106 0.805194,-0.04535 c 0.442857,-0.02494 1.859267,-0.170957 3.147577,-0.324482 1.288311,-0.153525 2.354754,-0.268444 2.369875,-0.255374 0.03637,0.03144 -7.157384,19.226434 -7.235696,19.306905 -0.03333,0.03425 -2.07997,0.03425 -4.548091,0 l -4.487492,-0.06227 -0.240539,-0.936938 c -0.49944,-1.945406 -0.895539,-4.212958 -1.134171,-6.492807 -0.128551,-1.228157 -0.128583,-5.871722 -4.9e-5,-7.100348 0.205761,-1.966825 0.633605,-4.468589 1.042012,-6.093044 0.146572,-0.582995 0.174642,-0.6362 0.316739,-0.60035 0.08575,0.02163 1.259396,0.329274 2.608096,0.683642 1.3487,0.35437 2.467647,0.631022 2.486549,0.614783 0.0189,-0.01624 -0.07979,-0.11837 -0.219319,-0.226957 -0.883597,-0.687656 -1.717693,-1.435615 -2.747646,-2.4639 -2.609697,-2.605466 -4.213507,-5.012627 -5.267278,-7.905662 -0.10989,-0.301694 -0.141993,-0.338984 -0.189054,-0.219598 -0.340866,0.864719 -0.722022,1.701637 -0.996214,2.187424 -1.445472,2.560939 -3.820704,5.182481 -6.964079,7.68625 -0.489087,0.389569 -0.88925,0.720224 -0.88925,0.734789 0,0.02944 -0.02919,0.03612 3.027132,-0.692812 1.201936,-0.286663 2.198118,-0.508426 2.213738,-0.492806 0.128659,0.12866 0.676088,3.533758 0.850082,5.287652 0.126944,1.279626 0.127207,6.742757 3.66e-4,8.12514 -0.232102,2.530064 -0.582685,5.276089 -0.975537,7.641126 l -0.08983,0.540777 -0.657648,-0.04668 c -0.361707,-0.02567 -2.060763,-0.04791 -3.77568,-0.04941 l -3.118008,-0.0027 -3.257375,-7.040966 c -1.791557,-3.872532 -3.938012,-8.507573 -4.7699,-10.300092 -0.831888,-1.792519 -1.507153,-3.263544 -1.500589,-3.268945 0.0066,-0.0054 1.576573,0.279233 3.488909,0.632521 1.912336,0.353287 3.488758,0.6314 3.503161,0.618029 0.0144,-0.01337 -0.611454,-0.34297 -1.39079,-0.73244 C 28.195787,21.880646 23.72188,18.923333 18.684015,14.814584 17.872069,14.152382 17.120702,13.544953 17.01431,13.464742 l -0.193439,-0.145837 0.109799,0.161396 c 0.06039,0.08877 0.573682,0.796721 1.140651,1.573227 6.695608,9.170157 11.08061,18.641666 13.650055,29.483824 0.128804,0.543506 0.437736,2.002746 0.686517,3.242757 l 0.452329,2.254564 3.985035,-0.0035 c 2.191771,-0.0019 4.849705,-0.02523 5.906523,-0.05178 1.056817,-0.02655 1.922749,-0.03486 1.924293,-0.01847 0.01301,0.138114 0.212949,6.422433 0.214619,6.745853 l 0.0022,0.4209 h 3.598621 3.598621 z"
         id="path60"
         inkscape:connector-curvature="0"
         transform="matrix(0.8,0,0,-0.8,0,55.344418)" /><path
         style="fill:#ffcc00;stroke-width:0.07319946"
         d="m 44.961908,56.779961 c -7.76e-4,-0.150974 -0.04964,-1.723847 -0.108601,-3.495274 -0.05896,-1.771427 -0.107736,-3.257536 -0.108395,-3.302463 -0.0011,-0.07822 -4.323214,-0.0789 -9.969955,-0.0016 l -1.880218,0.02575 -0.04694,-0.300647 C 32.821979,49.540407 32.623309,48.515742 32.406307,47.42873 30.029763,35.524052 25.497153,25.185918 18.28911,15.229744 c -0.5503,-0.760107 -0.991032,-1.391526 -0.979405,-1.403154 0.01163,-0.01163 0.399874,0.290562 0.86277,0.671532 1.329948,1.094565 3.515305,2.785748 4.831,3.738567 3.385917,2.452063 6.013696,4.07933 9.332931,5.779471 0.966233,0.494912 1.740317,0.900315 1.720188,0.900894 -0.02013,5.86e-4 -1.535258,-0.275888 -3.366951,-0.614373 -1.831693,-0.338484 -3.340465,-0.605311 -3.352827,-0.592948 -0.01727,0.01727 7.206586,15.648635 9.227762,19.967525 l 0.368255,0.786894 3.649243,0.01307 c 2.007083,0.0072 3.723043,0.01543 3.813244,0.0183 0.15701,0.005 0.174081,-0.05717 0.400493,-1.45876 0.622454,-3.853262 0.8958,-6.746092 0.951045,-10.064926 0.04817,-2.894052 -0.07625,-5.056292 -0.421224,-7.319946 -0.151809,-0.996148 -0.534124,-2.854779 -0.58722,-2.854779 -0.03051,0 -1.162504,0.263518 -2.515548,0.585596 -1.353045,0.322077 -2.476494,0.585595 -2.496553,0.585595 -0.02006,0 0.37395,-0.329791 0.875579,-0.73287 3.645118,-2.929001 6.316464,-6.133767 7.467909,-8.95912 l 0.315442,-0.774015 0.194659,0.548326 c 0.675738,1.903447 2.046877,4.137258 3.766431,6.136136 0.746093,0.867289 2.642552,2.71162 3.507084,3.410686 0.370113,0.299275 0.663866,0.553201 0.652786,0.564281 -0.01108,0.01108 -1.151519,-0.27587 -2.534308,-0.637669 -1.382789,-0.361798 -2.523103,-0.648664 -2.534031,-0.637481 -0.04267,0.04367 -0.612069,2.703315 -0.756567,3.533908 -0.734152,4.220022 -0.783921,8.551184 -0.146777,12.773306 0.222268,1.472892 0.98282,4.982596 1.101427,5.082736 0.01382,0.01166 2.072245,0.04347 4.57429,0.07068 l 4.549173,0.04947 0.189222,-0.496958 c 1.182119,-3.104622 7.072511,-18.883287 7.072511,-18.945219 0,-0.0471 -0.08629,-0.0719 -0.201299,-0.05785 -1.833732,0.22404 -4.743375,0.543485 -5.252061,0.576616 l -0.658795,0.04291 1.248845,-0.652626 c 4.890561,-2.555727 8.385397,-5.176456 13.04335,-9.781027 0.855518,-0.845714 1.555488,-1.519283 1.555488,-1.49682 0,0.02246 -0.333957,0.613697 -0.742127,1.313853 -5.983719,10.26421 -9.382679,19.191942 -11.621669,30.525559 -0.290155,1.46875 -0.812107,4.339052 -0.812107,4.465921 0,0.03482 -2.832488,0.06308 -6.323229,0.06308 h -6.323228 l 0.02943,3.019477 c 0.01619,1.660713 0.04035,3.258291 0.05368,3.550174 l 0.02425,0.530696 H 48.50249 44.96331 Z"
         id="path62"
         inkscape:connector-curvature="0"
         transform="matrix(0.8,0,0,-0.8,0,55.344418)" /><path
         style="fill:#ffcc00;stroke-width:0.07319946"
         d="M 9.3135488,62.883844 C 8.0270142,62.711763 7.3370543,62.152225 6.962175,60.976949 6.8288209,60.558874 6.8024337,60.21255 6.7446631,58.122171 6.7085024,56.81373 6.5812445,46.487116 6.4618677,35.17414 6.342491,23.861163 6.2228431,12.918433 6.1959836,10.856962 L 6.1471481,7.1088332 6.3460536,6.7022851 C 6.5625387,6.2598057 6.8289526,6.0187309 7.3620624,5.782911 8.0066708,5.4977701 8.6751625,5.4144145 10.632766,5.3750803 14.511421,5.2971463 84.202645,4.9925602 85.091499,5.0496578 c 1.328687,0.085352 1.684436,0.2818032 2.01794,1.1143599 0.11903,0.2971294 0.127733,1.933755 0.146194,27.4967723 0.01288,17.835165 -0.0053,27.273702 -0.0531,27.450923 -0.188071,0.698443 -0.710378,1.211896 -1.522336,1.496541 -0.413687,0.145021 -0.648072,0.148329 -14.29188,0.201718 -21.988411,0.08604 -61.6310838,0.133218 -62.0747692,0.07387 z M 83.071874,59.461705 c 0.449628,-0.240551 0.96034,-0.846957 1.09057,-1.294909 0.09686,-0.333186 0.107639,-3.231204 0.09112,-24.49518 L 84.234823,9.554329 84.036987,9.1793026 C 83.790583,8.7121956 83.271313,8.2472536 82.826934,8.0958372 82.520814,7.9915319 79.105648,7.9805406 47.002604,7.9805406 H 11.516652 L 11.099828,8.1364945 C 10.602283,8.3226498 10.105361,8.7887196 9.8766189,9.2837577 L 9.7177732,9.6275284 V 33.78335 c 0,23.518025 0.00366,24.165299 0.1384469,24.514762 0.1909099,0.494958 0.5854669,0.906369 1.1059439,1.153185 l 0.439197,0.208272 35.684736,-0.0184 35.684737,-0.01841 z"
         id="path64"
         inkscape:connector-curvature="0"
         transform="matrix(0.8,0,0,-0.8,0,55.344418)" /></g></g></svg>